<?xml version="1.0" encoding="utf-8" standalone="no"?>
<!DOCTYPE svg PUBLIC "-//W3C//DTD SVG 1.1//EN"
  "http://www.w3.org/Graphics/SVG/1.1/DTD/svg11.dtd">
<svg xmlns:xlink="http://www.w3.org/1999/xlink" width="169.502425pt" height="108pt" viewBox="0 0 169.502425 108" xmlns="http://www.w3.org/2000/svg" version="1.1">
 <metadata>
  <rdf:RDF xmlns:dc="http://purl.org/dc/elements/1.1/" xmlns:cc="http://creativecommons.org/ns#" xmlns:rdf="http://www.w3.org/1999/02/22-rdf-syntax-ns#">
   <cc:Work>
    <dc:type rdf:resource="http://purl.org/dc/dcmitype/StillImage"/>
    <dc:date>2025-09-05T15:49:27.439504</dc:date>
    <dc:format>image/svg+xml</dc:format>
    <dc:creator>
     <cc:Agent>
      <dc:title>Matplotlib v3.10.3, https://matplotlib.org/</dc:title>
     </cc:Agent>
    </dc:creator>
   </cc:Work>
  </rdf:RDF>
 </metadata>
 <defs>
  <style type="text/css">*{stroke-linejoin: round; stroke-linecap: butt}</style>
 </defs>
 <g id="figure_1">
  <g id="patch_1">
   <path d="M 0 108 
L 169.502425 108 
L 169.502425 0 
L 0 0 
z
" style="fill: #ffffff"/>
  </g>
  <g id="axes_1">
   <g id="PatchCollection_1">
    <path d="M 162.474876 -2.023771 
L 163.405013 -3.197551 
L 163.717569 -4.467492 
L 164.874973 -5.517503 
L 165.355595 -6.837049 
L 166.864689 -7.576613 
L 166.772877 -8.351719 
L 167.713048 -9.666534 
L 167.877104 -10.966137 
L 167.193297 -13.09723 
L 167.474747 -13.739619 
L 167.24196 -14.303236 
L 165.098226 -17.226957 
L 164.842363 -18.686004 
L 165.125822 -19.63053 
L 163.731617 -20.164485 
L 163.986475 -20.653947 
L 163.403009 -20.667758 
L 162.880243 -22.361944 
L 164.841863 -24.343693 
L 169.843651 -26.373701 
L 169.768503 -25.859308 
L 170.616619 -25.749864 
L 170.380435 -25.13697 
L 170.80984 -24.34298 
L 171.434868 -24.645405 
L 172.315575 -24.339605 
L 172.900551 -23.470387 
L 177.630005 -23.108664 
L 182.902796 -19.357926 
L 184.878964 -19.54678 
L 189.710763 -18.322104 
L 191.380899 -20.618015 
L 195.823889 -22.684796 
L 197.761927 -20.99112 
L 201.266751 -21.162075 
L 198.634372 -17.321574 
L 196.802689 -15.406444 
L 196.872424 2.828893 
L 199.508822 6.302682 
L 199.568111 6.913993 
L 198.343112 8.261088 
L 198.033804 8.03315 
L 197.033578 8.626755 
L 197.000395 7.930857 
L 196.705305 8.778984 
L 196.296049 8.236117 
L 196.870036 9.615027 
L 196.702936 9.947672 
L 196.305928 9.561869 
L 195.873363 9.798665 
L 196.081942 10.385832 
L 195.274494 11.085758 
L 194.499438 11.032194 
L 193.243231 11.727691 
L 192.905871 13.040151 
L 193.247183 13.27574 
L 192.713098 14.688478 
L 192.063663 15.212417 
L 191.951866 14.955079 
L 191.465973 16.416141 
L 191.053165 16.169274 
L 191.471109 16.804364 
L 191.079635 17.904187 
L 190.581495 17.904187 
L 190.880143 18.159109 
L 190.657739 18.553771 
L 190.468514 18.169576 
L 189.983412 18.511084 
L 190.494586 18.868695 
L 189.185444 21.426769 
L 188.720886 21.258432 
L 188.187592 21.666786 
L 181.296376 16.608968 
L 180.992349 15.974255 
L 180.46206 15.906231 
L 180.394835 15.409099 
L 180.952215 14.921171 
L 180.684313 13.59293 
L 162.526549 3.480995 
L 162.76586 -0.716497 
z
" clip-path="url(#pb4808747ea)" style="fill: #eeeeee; stroke: #000000; stroke-width: 0.3"/>
    <path d="M 196.821446 9.009743 
L 197.232677 8.662192 
L 197.724492 8.97148 
L 196.939955 9.392726 
z
" clip-path="url(#pb4808747ea)" style="fill: #eeeeee; stroke: #000000; stroke-width: 0.3"/>
    <path d="M 156.502978 65.80254 
L 157.229929 65.46549 
L 158.12846 63.853392 
L 158.203214 62.44204 
L 157.85153 61.712704 
L 158.257897 60.934788 
L 159.838231 60.538924 
L 160.696123 59.662803 
L 159.833716 59.525736 
L 159.364133 58.593354 
L 159.661636 56.775652 
L 159.577853 55.89186 
L 159.169476 55.744565 
L 159.255264 55.015744 
L 160.034893 53.769843 
L 159.266302 52.376646 
L 160.569196 51.812005 
L 161.410036 50.861215 
L 160.725976 49.149892 
L 159.613473 48.321337 
L 159.804616 47.171592 
L 158.988867 46.037703 
L 158.073778 46.167099 
L 157.827948 44.995363 
L 158.976824 45.586088 
L 159.59491 45.493005 
L 160.268179 46.13283 
L 161.703272 45.947688 
L 162.563674 46.610019 
L 163.053329 45.419869 
L 164.534827 46.616156 
L 165.595405 48.218535 
L 165.812134 50.676577 
L 166.268174 51.729151 
L 165.969667 53.459907 
L 166.707656 54.662329 
L 167.295137 54.812188 
L 167.673918 55.79264 
L 165.985219 55.816166 
L 165.728351 57.06616 
L 164.732994 58.667004 
L 165.391719 61.304568 
L 165.638549 64.463556 
L 166.101108 65.288019 
L 167.181254 65.404118 
L 168.253875 66.336495 
L 171.958371 71.018842 
L 172.235306 72.18905 
L 171.652339 73.599126 
L 171.92576 74.813311 
L 171.656854 77.906577 
L 170.343422 78.545382 
L 169.664134 78.395014 
L 168.486157 80.357973 
L 169.351578 81.90665 
L 169.325992 83.161755 
L 168.985341 83.315701 
L 168.166078 83.189373 
L 168.419932 81.821751 
L 167.386949 81.363491 
L 165.061602 79.052743 
L 164.955247 77.993014 
L 164.123436 77.152186 
L 165.734875 74.220027 
L 165.427339 70.649063 
L 164.661754 69.717195 
L 163.237952 70.25064 
L 161.634289 70.223537 
L 161.267551 70.777949 
L 159.497579 68.101005 
L 158.818291 67.428959 
L 158.136489 68.049861 
L 157.526431 66.912389 
L 156.987113 66.69758 
L 157.020224 66.052638 
z
" clip-path="url(#pb4808747ea)" style="fill: #eeeeee; stroke: #000000; stroke-width: 0.3"/>
    <path d="M 166.175362 58.280345 
L 166.360986 57.904939 
L 166.692103 58.102363 
L 166.335904 58.519194 
z
" clip-path="url(#pb4808747ea)" style="fill: #eeeeee; stroke: #000000; stroke-width: 0.3"/>
    <path d="M 165.63253 57.959156 
L 166.037397 57.839988 
L 165.958128 58.261936 
z
" clip-path="url(#pb4808747ea)" style="fill: #eeeeee; stroke: #000000; stroke-width: 0.3"/>
    <path d="M 140.292285 22.867615 
L 140.682604 20.539993 
L 142.277986 20.606993 
L 143.589409 19.659785 
L 145.087964 17.274368 
L 145.427111 17.266692 
L 145.673193 16.09649 
L 147.456961 14.724261 
L 147.614488 14.220483 
L 147.581883 13.259464 
L 145.945862 13.086079 
L 145.593172 12.631396 
L 146.111418 11.630486 
L 145.575362 11.733288 
L 146.041183 10.710381 
L 147.625027 10.125793 
L 147.8844 8.825165 
L 147.443413 8.067192 
L 147.608721 6.408552 
L 147.154939 5.480777 
L 146.270455 5.043998 
L 145.909737 3.76076 
L 146.674822 3.831342 
L 147.347086 3.398141 
L 162.991617 3.480995 
L 180.684313 13.59293 
L 180.952215 14.921171 
L 180.394835 15.409099 
L 180.46206 15.906231 
L 180.992349 15.974255 
L 181.296376 16.608968 
L 188.306499 21.721958 
L 188.29899 22.551964 
L 187.789792 22.849974 
L 187.672467 23.499157 
L 187.95531 23.737165 
L 186.189906 28.4828 
L 186.85001 30.372357 
L 187.460728 30.537873 
L 188.621734 31.80966 
L 188.622919 32.321113 
L 189.517276 32.455621 
L 189.950234 33.163599 
L 189.920211 33.745125 
L 188.853618 34.690309 
L 188.488609 37.234279 
L 188.853618 36.754239 
L 189.415357 37.280192 
L 189.467894 38.160134 
L 188.621734 39.638916 
L 188.982399 41.641632 
L 189.950234 42.672596 
L 189.443798 42.357671 
L 189.149101 42.55661 
L 189.650008 42.752332 
L 189.6824 43.671739 
L 190.025289 43.517501 
L 190.387532 43.992706 
L 190.016595 45.271743 
L 190.421113 45.25805 
L 190.858809 46.356666 
L 190.645492 46.743275 
L 191.148763 47.133914 
L 190.615469 48.22045 
L 191.27636 47.957877 
L 192.044304 49.099179 
L 192.212589 48.663439 
L 192.760499 48.845469 
L 192.702035 49.347658 
L 193.243231 49.473709 
L 193.243231 48.997693 
L 193.809708 49.777762 
L 194.189339 49.490624 
L 194.237138 50.355259 
L 192.156013 52.019654 
L 189.682167 52.908048 
L 188.540315 53.779562 
L 186.758805 53.784164 
L 184.79769 55.000398 
L 183.653829 54.325794 
L 182.107615 54.359548 
L 181.519629 55.594706 
L 179.83394 56.514811 
L 178.241567 56.29335 
L 177.711278 55.749677 
L 176.680805 55.79264 
L 175.73712 56.52402 
L 173.669141 56.42582 
L 173.515623 55.818215 
L 171.85703 55.000398 
L 170.642934 55.949145 
L 167.673918 55.79264 
L 167.295137 54.812188 
L 166.707656 54.662329 
L 165.969667 53.459907 
L 166.268174 51.729151 
L 165.812134 50.676577 
L 165.595405 48.218535 
L 164.534827 46.616156 
L 163.053329 45.419869 
L 162.563674 46.610019 
L 161.703272 45.947688 
L 160.268179 46.13283 
L 159.59491 45.493005 
L 155.797851 44.335075 
L 155.338549 43.7689 
L 152.982601 43.362803 
L 152.975577 42.723487 
L 151.694255 42.626826 
L 151.045568 41.590107 
L 150.144026 41.014213 
L 148.806765 41.15844 
L 148.232575 40.832649 
L 145.718594 36.110915 
L 145.004181 33.899393 
L 144.015848 32.61565 
L 142.152564 31.276151 
L 141.27159 29.562784 
L 141.031784 28.221756 
L 141.693515 26.748264 
z
" clip-path="url(#pb4808747ea)" style="fill: #eeeeee; stroke: #000000; stroke-width: 0.3"/>
    <path d="M 188.1868 27.786902 
L 188.621734 27.429291 
L 188.784092 26.81796 
L 189.284207 29.161784 
L 189.694249 29.182325 
L 189.6824 28.823903 
L 189.900459 29.800901 
L 189.730592 30.501629 
L 189.284207 29.702637 
L 189.221394 30.060654 
L 188.226304 29.303942 
z
" clip-path="url(#pb4808747ea)" style="fill: #eeeeee; stroke: #000000; stroke-width: 0.3"/>
    <path d="M 190.383978 25.311391 
L 190.483528 24.683957 
L 191.053165 24.447156 
L 190.836688 24.450378 
L 190.417161 24.207139 
L 190.884089 24.278013 
L 190.583077 22.719895 
L 191.250288 23.232155 
L 191.417388 22.754129 
L 191.126642 25.275954 
z
" clip-path="url(#pb4808747ea)" style="fill: #eeeeee; stroke: #000000; stroke-width: 0.3"/>
    <path d="M 190.112591 37.838761 
L 191.610162 36.315278 
L 191.599104 36.891568 
L 191.258584 37.68291 
L 190.319195 38.038106 
z
" clip-path="url(#pb4808747ea)" style="fill: #eeeeee; stroke: #000000; stroke-width: 0.3"/>
    <path d="M 190.055744 25.215156 
L 190.428171 25.494232 
L 190.465208 25.618081 
L 190.249295 25.557852 
z
" clip-path="url(#pb4808747ea)" style="fill: #eeeeee; stroke: #000000; stroke-width: 0.3"/>
    <path d="M 190.673865 38.560783 
L 190.673884 38.351016 
L 191.152952 38.141111 
z
" clip-path="url(#pb4808747ea)" style="fill: #eeeeee; stroke: #000000; stroke-width: 0.3"/>
    <path d="M 188.303165 27.109641 
L 188.416995 27.498933 
L 188.303446 27.509122 
z
" clip-path="url(#pb4808747ea)" style="fill: #eeeeee; stroke: #000000; stroke-width: 0.3"/>
    <path d="M 51.899003 18.00161 
L 52.377177 16.816107 
L 53.6881 15.885774 
L 54.683463 16.823268 
L 55.741027 16.550149 
L 55.350212 16.192132 
L 55.929665 14.865935 
L 54.682958 14.211788 
L 55.123945 13.393462 
L 54.436628 12.540362 
L 53.921892 12.706071 
L 54.376427 11.548141 
L 54.093972 10.04856 
L 55.01558 10.471022 
L 55.900569 10.045491 
L 56.502098 10.470513 
L 58.429097 10.049584 
L 58.625759 8.889611 
L 58.27207 7.843178 
L 58.561543 8.0452 
L 59.269432 7.551651 
L 60.105253 8.016562 
L 61.093586 9.785165 
L 60.903444 10.259791 
L 63.281469 10.599399 
L 64.661374 8.897281 
L 65.452541 10.197394 
L 65.159553 10.725727 
L 66.345053 10.884275 
L 67.045918 10.173359 
L 66.626503 9.529436 
L 67.097596 8.292234 
L 67.836585 7.955699 
L 68.086429 6.864259 
L 67.679057 6.497033 
L 68.156164 6.183514 
L 68.275567 5.494074 
L 67.809999 3.583798 
L 68.286606 1.493491 
L 67.464328 0.719153 
L 66.683195 0.771831 
L 66.371144 -0.111446 
L 65.088818 -0.463836 
L 65.52529 -1.218232 
L 65.28297 -2.452365 
L 65.642184 -3.214431 
L 66.276823 -4.149876 
L 67.503963 -4.554439 
L 68.180246 -5.999547 
L 67.281214 -7.07283 
L 67.132211 -8.06607 
L 66.609445 -8.366936 
L 64.911718 -8.578805 
L 63.691855 -7.831828 
L 61.782913 -7.698849 
L 62.273568 -8.09983 
L 61.683077 -9.360814 
L 61.84111 -10.881872 
L 62.483778 -12.174572 
L 68.00967 -12.031365 
L 68.636786 -12.410863 
L 69.620605 -11.701476 
L 70.068116 -11.951321 
L 70.240196 -11.409181 
L 71.794439 -11.573614 
L 72.399983 -10.988896 
L 73.106367 -11.258051 
L 74.193031 -11.040936 
L 75.683558 -10.245882 
L 75.955479 -9.668068 
L 76.388438 -10.065214 
L 75.931398 -11.273391 
L 76.032738 -12.115753 
L 76.624734 -12.481445 
L 77.94218 -15.516149 
L 77.875955 -17.100629 
L 78.521637 -18.808755 
L 81.427942 -19.204871 
L 82.698226 -19.831147 
L 84.320699 -19.381962 
L 84.558504 -18.999142 
L 85.722933 -19.114475 
L 86.206059 -18.688563 
L 86.531158 -19.171116 
L 87.616317 -19.453949 
L 88.365345 -18.686004 
L 88.30063 -16.960489 
L 85.676275 -12.169456 
L 85.671256 -9.157896 
L 84.677403 -6.511257 
L 85.060193 -3.34741 
L 83.947942 -0.511402 
L 84.108984 1.1099 
L 81.965755 3.542373 
L 80.580078 3.948466 
L 79.66098 4.799522 
L 78.111251 7.859543 
L 76.561023 9.317695 
L 76.711526 14.915545 
L 75.189894 17.905498 
L 73.353196 18.601075 
L 72.989973 19.372345 
L 71.752295 19.991717 
L 69.942694 22.347467 
L 69.173599 22.767371 
L 68.431595 22.477373 
L 67.853143 22.699858 
L 67.610827 21.080599 
L 68.188275 20.438725 
L 67.786917 19.685354 
L 65.638669 20.778843 
L 64.524413 20.555849 
L 64.51237 21.707127 
L 62.959885 22.695255 
L 61.599294 21.16908 
L 61.185898 21.343484 
L 60.422322 20.352802 
L 59.897052 20.25 
L 59.227793 21.081618 
L 58.078412 21.310239 
L 57.762348 22.164878 
L 57.132723 22.092253 
L 56.24636 23.359839 
L 55.32699 22.197752 
L 55.259998 21.170015 
z
" clip-path="url(#pb4808747ea)" style="fill: #eeeeee; stroke: #000000; stroke-width: 0.3"/>
    <path d="M 57.40976 27.364049 
L 57.456816 26.908346 
L 58.670413 26.856688 
L 58.775768 24.067737 
L 58.356853 23.535316 
L 59.495195 22.888073 
L 60.097224 21.975129 
L 61.371022 21.599723 
L 61.480896 21.181867 
L 62.959885 22.695255 
L 64.51237 21.707127 
L 64.524413 20.555849 
L 65.638669 20.778843 
L 67.786917 19.685354 
L 68.188275 20.438725 
L 67.610827 21.080599 
L 67.853143 22.699858 
L 68.431595 22.477373 
L 69.173599 22.767371 
L 69.942694 22.347467 
L 71.752295 19.991717 
L 72.989973 19.372345 
L 73.353196 18.601075 
L 75.189894 17.905498 
L 76.711526 14.915545 
L 76.561023 9.317695 
L 78.111251 7.859543 
L 79.66098 4.799522 
L 80.580078 3.948466 
L 81.965755 3.542373 
L 84.108984 1.1099 
L 83.947942 -0.511402 
L 85.060193 -3.34741 
L 84.677403 -6.511257 
L 85.671256 -9.157896 
L 85.676275 -12.169456 
L 88.30063 -16.960489 
L 88.463176 -21.502321 
L 87.955464 -22.89718 
L 88.981422 -23.257241 
L 90.583328 -25.774741 
L 92.164162 -26.868611 
L 94.181969 -26.703283 
L 96.678392 -25.094634 
L 97.849845 -23.328461 
L 99.263612 -23.518339 
L 100.911172 -22.71766 
L 103.466292 -22.726607 
L 106.213564 -21.911739 
L 107.219455 -22.221295 
L 107.617298 -23.618964 
L 108.088386 -23.707832 
L 109.102306 -25.350363 
L 111.607763 -24.19857 
L 112.450102 -24.906805 
L 115.708097 -25.87639 
L 116.38488 -26.401651 
L 116.373841 -26.828587 
L 117.996315 -25.815147 
L 120.797264 -26.383113 
L 121.06918 -27.760202 
L 121.943383 -28.080495 
L 123.725393 -27.065135 
L 125.120599 -27.403075 
L 126.597583 -26.458297 
L 127.747463 -26.690496 
L 128.367055 -26.409197 
L 129.369936 -27.229567 
L 130.477673 -26.876539 
L 132.624921 -25.173525 
L 132.761881 -24.223249 
L 133.934586 -23.996672 
L 134.107924 -23.348919 
L 135.718354 -22.637106 
L 137.533479 -24.016239 
L 139.794858 -22.960725 
L 140.941977 -24.58804 
L 141.723115 -24.449692 
L 142.588032 -24.026339 
L 142.544888 -23.099841 
L 143.236719 -22.802177 
L 144.493964 -21.057481 
L 146.124461 -20.619297 
L 146.210754 -19.359203 
L 147.200592 -19.665819 
L 147.650108 -18.751984 
L 147.926044 -18.89928 
L 147.992264 -18.273009 
L 147.185544 -16.600686 
L 147.717338 -15.600538 
L 147.023998 -13.580299 
L 147.806641 -13.020769 
L 148.273714 -13.383903 
L 148.697143 -12.813888 
L 149.290896 -12.876542 
L 149.746683 -11.887261 
L 145.896446 -7.609858 
L 144.734275 -7.101983 
L 144.326398 -5.977045 
L 143.318997 -5.560976 
L 143.285887 -3.94632 
L 142.133497 -1.839134 
L 141.41307 3.114799 
L 141.525948 5.390252 
L 139.853308 6.727698 
L 139.354124 7.641666 
L 139.375191 9.395437 
L 138.071797 10.356457 
L 138.027648 10.981961 
L 138.193205 11.646851 
L 138.859455 12.103068 
L 138.695903 12.443186 
L 139.859579 13.595999 
L 139.764505 17.818551 
L 140.368544 18.775478 
L 140.715214 20.79981 
L 140.292285 22.867615 
L 141.693515 26.748264 
L 141.031784 28.221756 
L 141.330791 29.757136 
L 142.152564 31.276151 
L 144.015848 32.61565 
L 145.004181 33.899393 
L 147.225679 39.069158 
L 138.182671 40.499182 
L 138.201734 41.898005 
L 135.577379 44.403099 
L 136.371055 44.929383 
L 137.257049 46.976216 
L 136.632943 49.092607 
L 137.262563 51.188545 
L 136.557689 52.137797 
L 135.615508 55.594706 
L 136.331674 57.273298 
L 137.512407 57.864533 
L 138.89106 59.777883 
L 141.146168 60.145104 
L 141.02275 59.103783 
L 142.600575 58.66547 
L 142.517797 65.106449 
L 141.717596 64.936138 
L 141.968945 64.24312 
L 141.508891 63.966933 
L 139.614502 65.013366 
L 138.691384 64.810829 
L 137.303202 62.305993 
L 136.501497 62.285535 
L 135.91853 60.482663 
L 133.665932 59.723156 
L 133.170758 59.201474 
L 132.110184 59.35593 
L 131.05462 57.51675 
L 130.149065 56.95824 
L 129.886682 55.773207 
L 129.127621 55.901579 
L 128.758374 57.453329 
L 127.640603 57.967336 
L 126.170644 57.466626 
L 124.066544 57.423152 
L 122.320654 56.561352 
L 121.709591 56.797134 
L 120.978373 56.132244 
L 120.810307 53.918167 
L 117.908517 54.567712 
L 116.832891 55.238228 
L 115.876663 54.929821 
L 116.353774 54.335513 
L 116.248419 53.450187 
L 115.052885 53.168374 
L 115.004222 52.554633 
L 114.456875 52.328061 
L 113.642627 53.095239 
L 111.808939 52.761262 
L 109.665206 53.461441 
L 107.173302 53.164287 
L 105.894989 54.189237 
L 105.544805 52.223725 
L 106.292328 51.773134 
L 106.262727 49.829613 
L 105.517713 47.666681 
L 104.153613 46.308773 
L 103.731689 45.066964 
L 104.469178 40.364669 
L 103.547065 38.095351 
L 104.066316 35.484897 
L 103.697574 34.562239 
L 97.559866 34.57707 
L 98.001358 32.744021 
L 96.584075 32.756809 
L 96.461663 33.169552 
L 92.712009 33.169552 
L 92.66987 35.532463 
L 91.905289 36.000952 
L 91.904789 38.118367 
L 87.832047 37.773138 
L 87.788903 38.096376 
L 85.909061 38.219636 
L 85.801197 38.649254 
L 84.683927 38.328574 
L 83.384042 38.596066 
L 82.004385 36.889346 
L 81.327601 35.278782 
L 80.206822 34.172511 
L 80.340273 33.232973 
L 79.344915 31.716512 
L 79.043898 30.512556 
L 79.144238 29.147487 
L 78.300389 27.728207 
L 65.634155 27.42747 
L 62.716564 27.669897 
L 60.54988 27.293571 
L 59.920348 27.544772 
L 59.70738 28.108681 
L 58.381662 28.468271 
L 58.41902 28.121097 
L 58.124707 28.240808 
z
" clip-path="url(#pb4808747ea)" style="fill: #eeeeee; stroke: #000000; stroke-width: 0.3"/>
    <path d="M 59.816701 27.915368 
L 60.219758 27.576859 
L 61.027633 27.559291 
z
" clip-path="url(#pb4808747ea)" style="fill: #eeeeee; stroke: #000000; stroke-width: 0.3"/>
    <path d="M 54.829005 85.3495 
L 55.011119 83.96576 
L 56.62752 83.334625 
L 57.377548 83.758622 
L 58.952862 83.806697 
L 61.861177 82.403782 
L 63.382809 82.696843 
L 63.58449 83.249217 
L 65.813764 84.742147 
L 87.526515 84.575409 
L 88.445114 85.803411 
L 89.645162 86.601275 
L 93.921591 87.051865 
L 96.664849 86.876437 
L 98.946543 87.75 
L 100.670361 87.251334 
L 101.765055 87.666121 
L 115.519959 85.018839 
L 119.483332 85.522112 
L 120.564982 86.575705 
L 119.07746 86.547573 
L 117.189595 87.855871 
L 116.151593 87.377147 
L 112.555962 89.95845 
L 111.016767 87.589403 
L 99.766311 89.174907 
L 99.813469 107.210775 
L 94.927987 107.392339 
L 94.94404 139.170693 
L 92.939781 139.70925 
L 92.387915 140.570535 
L 91.469822 140.755682 
L 91.578686 141.450749 
L 90.762433 141.818994 
L 88.944298 141.236959 
L 86.132814 141.543832 
L 84.903665 140.946966 
L 83.522508 140.862067 
L 83.300259 140.446765 
L 82.429819 140.565933 
L 82.512097 140.017147 
L 82.044519 139.409028 
L 82.410757 139.036689 
L 82.148874 138.207115 
L 81.505201 138.229106 
L 80.841461 137.21336 
L 79.950958 137.489547 
L 79.347924 138.393796 
L 79.210459 139.460686 
L 77.300095 139.83251 
L 74.392251 137.202354 
L 72.195471 133.727695 
L 71.871543 131.862708 
L 71.165222 130.623943 
L 71.581195 130.114103 
L 71.275043 129.264768 
L 70.598745 128.842316 
L 70.660373 127.474278 
L 69.987236 125.954823 
L 70.050044 122.552655 
L 68.137291 117.772786 
L 68.402756 116.753105 
L 68.016413 114.392367 
L 68.296096 113.867622 
L 67.899087 112.193117 
L 68.019966 111.742878 
L 68.137291 112.314338 
L 68.477413 111.843557 
L 68.376684 110.100994 
L 62.984078 101.694646 
L 61.916699 98.428194 
L 61.235173 97.786073 
L 58.384308 92.070877 
L 56.354516 90.095368 
L 55.213893 87.377291 
z
" clip-path="url(#pb4808747ea)" style="fill: #eeeeee; stroke: #000000; stroke-width: 0.3"/>
    <path d="M 104.643768 62.858871 
L 114.452861 62.858871 
L 113.79765 61.810904 
L 114.599355 59.808569 
L 114.228103 58.654732 
L 114.229608 56.106159 
L 114.749359 54.968178 
L 114.291819 52.322434 
L 115.004222 52.554633 
L 115.052885 53.168374 
L 116.248419 53.450187 
L 116.353774 54.335513 
L 115.835523 54.840825 
L 116.617162 55.248457 
L 117.908517 54.567712 
L 120.810307 53.918167 
L 120.978373 56.132244 
L 121.709591 56.797134 
L 122.320654 56.561352 
L 124.066544 57.423152 
L 126.170644 57.466626 
L 127.640603 57.967336 
L 128.758374 57.453329 
L 129.127621 55.901579 
L 129.886682 55.773207 
L 130.149065 56.95824 
L 131.05462 57.51675 
L 132.110184 59.35593 
L 133.170758 59.201474 
L 133.665932 59.723156 
L 135.91853 60.482663 
L 136.501497 62.285535 
L 137.303202 62.305993 
L 138.691384 64.810829 
L 139.614502 65.013366 
L 141.508891 63.966933 
L 141.968945 64.24312 
L 141.717596 64.936138 
L 142.444547 65.119751 
L 142.600575 58.66547 
L 141.02275 59.103783 
L 141.146168 60.145104 
L 138.89106 59.777883 
L 137.512407 57.864533 
L 136.331674 57.273298 
L 135.592932 55.518502 
L 136.557689 52.137797 
L 137.262563 51.188545 
L 136.632943 49.092607 
L 137.257049 46.976216 
L 136.371055 44.929383 
L 135.577379 44.403099 
L 138.201734 41.898005 
L 138.182671 40.499182 
L 147.225679 39.069158 
L 148.592288 41.079169 
L 150.144026 41.014213 
L 151.045568 41.590107 
L 151.694255 42.626826 
L 152.975577 42.723487 
L 152.982601 43.362803 
L 155.338549 43.7689 
L 155.797851 44.335075 
L 157.753194 45.075659 
L 158.073778 46.167099 
L 158.988867 46.037703 
L 159.804616 47.171592 
L 159.613473 48.321337 
L 160.725976 49.149892 
L 161.410036 50.861215 
L 160.569196 51.812005 
L 159.266302 52.376646 
L 160.034893 53.769843 
L 159.255264 55.015744 
L 159.169476 55.744565 
L 159.577853 55.89186 
L 159.661636 56.775652 
L 159.364133 58.593354 
L 159.833716 59.525736 
L 160.696123 59.662803 
L 159.838231 60.538924 
L 158.257897 60.934788 
L 157.85153 61.712704 
L 158.203214 62.44204 
L 158.12846 63.853392 
L 157.229929 65.46549 
L 156.502978 65.80254 
L 157.020224 66.052638 
L 156.987113 66.69758 
L 157.526431 66.912389 
L 158.136489 68.049861 
L 158.818291 67.428959 
L 159.121313 67.868806 
L 144.615872 72.657029 
L 145.566833 75.868438 
L 141.571102 75.993747 
L 138.392376 77.517873 
L 138.027648 77.996597 
L 138.027648 79.618414 
L 137.56107 80.331374 
L 132.97761 82.446236 
L 131.814687 84.442945 
L 129.572622 87.01146 
L 127.556068 87.937191 
L 125.186824 87.014528 
L 123.791619 87.589403 
L 122.611637 86.661628 
L 120.93272 86.808923 
L 119.483332 85.522112 
L 117.772057 85.082775 
L 115.519959 85.018839 
L 111.448221 85.818752 
L 105.266364 80.389169 
L 104.651792 78.411384 
z
" clip-path="url(#pb4808747ea)" style="fill: #eeeeee; stroke: #000000; stroke-width: 0.3"/>
    <path d="M 54.915914 76.990268 
L 56.161058 75.803458 
L 56.473531 73.902223 
L 56.904907 73.58327 
L 57.807953 69.945509 
L 57.79571 68.25651 
L 58.216815 67.199374 
L 58.63871 67.083794 
L 58.701125 64.959451 
L 60.786113 62.764229 
L 60.760042 61.944294 
L 61.92065 60.880714 
L 62.961166 60.72567 
L 64.1597 59.133722 
L 64.899597 56.868428 
L 65.163087 53.517004 
L 64.604507 51.787728 
L 64.800048 51.360445 
L 63.61495 50.017378 
L 61.036171 43.521524 
L 61.016813 43.245258 
L 61.473469 42.524395 
L 61.716814 42.41888 
L 61.117149 43.471588 
L 62.141869 41.938034 
L 62.015064 42.182085 
L 62.899149 41.84501 
L 62.893222 39.826181 
L 60.325588 34.475836 
L 60.245708 32.725845 
L 58.872584 31.341982 
L 57.608859 28.689395 
L 60.167672 28.368418 
L 61.951484 27.500611 
L 78.11677 27.652508 
L 79.144238 29.147487 
L 79.043898 30.512556 
L 79.344915 31.716512 
L 80.340273 33.232973 
L 80.206822 34.172511 
L 81.327601 35.278782 
L 82.004385 36.889346 
L 83.384042 38.596066 
L 84.683927 38.328574 
L 85.801197 38.649254 
L 85.909061 38.219636 
L 87.788903 38.096376 
L 87.832047 37.773138 
L 91.904789 38.118367 
L 91.905289 36.000952 
L 92.66987 35.532463 
L 92.712009 33.169552 
L 96.461663 33.169552 
L 96.584075 32.756809 
L 98.001358 32.744021 
L 97.559866 34.57707 
L 103.697574 34.562239 
L 104.066316 35.484897 
L 103.547065 38.095351 
L 104.469178 40.364669 
L 103.731689 45.066964 
L 104.153613 46.308773 
L 105.517713 47.666681 
L 106.262727 49.829613 
L 106.292328 51.773134 
L 105.544805 52.223725 
L 105.894989 54.189237 
L 107.173302 53.164287 
L 109.665206 53.461441 
L 111.808939 52.761262 
L 113.642627 53.095239 
L 114.291819 52.322434 
L 114.749359 54.968178 
L 114.229608 56.106159 
L 114.228103 58.654732 
L 114.599355 59.808569 
L 113.79765 61.810904 
L 114.452861 62.858871 
L 104.643768 62.858871 
L 104.662831 78.518279 
L 105.477579 80.655127 
L 106.361058 81.031043 
L 108.455628 83.485508 
L 111.448221 85.818752 
L 101.765055 87.666121 
L 100.670361 87.251334 
L 98.946543 87.75 
L 96.664849 86.876437 
L 93.921591 87.051865 
L 89.645162 86.601275 
L 88.445114 85.803411 
L 87.526515 84.575409 
L 65.813764 84.742147 
L 63.58449 83.249217 
L 63.382809 82.696843 
L 61.861177 82.403782 
L 58.952862 83.806697 
L 57.377548 83.758622 
L 56.62752 83.334625 
L 55.024944 83.829639 
L 55.335441 80.068247 
z
" clip-path="url(#pb4808747ea)" style="fill: #eeeeee; stroke: #000000; stroke-width: 0.3"/>
    <path d="M 56.24636 23.359839 
L 57.110146 22.114754 
L 57.762348 22.164878 
L 58.078412 21.310239 
L 59.227793 21.081618 
L 59.897052 20.25 
L 60.422322 20.352802 
L 61.411661 21.458049 
L 60.097224 21.975129 
L 59.495195 22.888073 
L 58.356853 23.535316 
L 58.775768 24.067737 
L 58.670413 26.856688 
L 57.221724 27.040667 
L 56.914387 26.320605 
L 57.312584 25.573158 
L 56.311965 23.490299 
L 56.687697 23.65869 
L 56.865005 23.336902 
z
" clip-path="url(#pb4808747ea)" style="fill: #eeeeee; stroke: #000000; stroke-width: 0.3"/>
    <path d="M 54.753067 80.173623 
L 54.83932 80.20178 
L 54.93039 81.19021 
z
" clip-path="url(#pb4808747ea)" style="fill: #eeeeee; stroke: #000000; stroke-width: 0.3"/>
    <path d="M 94.927987 107.392339 
L 99.813469 107.210775 
L 99.766311 89.174907 
L 111.016767 87.589403 
L 112.555962 89.95845 
L 116.151593 87.377147 
L 117.189595 87.855871 
L 119.07746 86.547573 
L 120.564982 86.575705 
L 120.541901 87.600141 
L 123.870382 92.153607 
L 123.908512 93.054274 
L 124.912898 95.201356 
L 125.631326 95.3998 
L 125.673465 95.766511 
L 127.623546 97.132599 
L 129.991785 97.951945 
L 130.315126 99.945076 
L 132.401163 100.011056 
L 132.24815 102.792846 
L 133.81995 105.171612 
L 136.855191 105.64266 
L 138.908618 106.38887 
L 138.917399 107.492588 
L 140.419969 108.312958 
L 138.908618 108.497081 
L 138.382843 109.570617 
L 137.831487 109.82839 
L 135.331549 110.377181 
L 132.670574 113.430041 
L 131.963685 113.410093 
L 131.676721 114.123059 
L 129.630819 114.935759 
L 128.852943 115.89422 
L 128.231599 118.600574 
L 126.736553 119.555967 
L 126.120976 120.417767 
L 123.519198 120.988544 
L 123.358156 122.315766 
L 122.154593 125.300602 
L 121.529235 125.754261 
L 117.67774 126.309188 
L 116.094901 125.955263 
L 115.340354 125.332313 
L 114.084619 125.348683 
L 111.824992 123.631224 
L 109.744474 123.716637 
L 108.841428 124.615769 
L 108.190231 127.16792 
L 107.387521 128.209745 
L 105.946662 128.900209 
L 105.021539 130.239703 
L 103.676502 130.539416 
L 103.587704 131.16441 
L 103.113102 131.454403 
L 99.439207 131.142418 
L 98.386153 131.596587 
L 97.971252 129.624423 
L 99.117623 127.833319 
L 98.12979 125.304695 
L 98.220092 124.54979 
L 96.804319 122.399135 
L 94.94304 121.010026 
z
" clip-path="url(#pb4808747ea)" style="fill: #eeeeee; stroke: #000000; stroke-width: 0.3"/>
    <path d="M 120.541901 87.600141 
L 120.564982 86.575705 
L 121.810937 86.91326 
L 122.611637 86.661628 
L 123.791619 87.589403 
L 125.186824 87.014528 
L 127.556068 87.937191 
L 129.115578 87.389425 
L 131.814687 84.442945 
L 132.97761 82.446236 
L 137.792852 80.103778 
L 138.027648 77.996597 
L 138.392376 77.517873 
L 141.571102 75.993747 
L 145.498351 75.896056 
L 145.528956 77.70353 
L 149.690996 77.813493 
L 150.392866 78.500375 
L 151.878878 78.775537 
L 152.847645 79.819926 
L 154.693124 79.932957 
L 156.544117 80.665356 
L 156.83309 81.204937 
L 157.984476 81.070424 
L 157.306188 82.32502 
L 158.242349 84.355998 
L 157.829453 85.111927 
L 158.256392 85.710323 
L 157.784804 87.460516 
L 157.918755 88.862922 
L 158.344942 89.336524 
L 157.509874 90.24589 
L 157.664144 91.427345 
L 156.639438 91.722965 
L 156.58927 92.320341 
L 157.437881 92.957613 
L 156.988618 94.839246 
L 157.322745 95.021835 
L 157.261787 95.880052 
L 157.861563 95.756278 
L 158.296531 96.423726 
L 158.172609 97.650189 
L 157.580613 98.00156 
L 156.544117 100.123577 
L 155.621004 100.475968 
L 155.666657 102.125403 
L 154.932682 103.103812 
L 155.453937 103.992715 
L 149.831471 109.355298 
L 147.642084 108.78605 
L 145.200848 109.094967 
L 142.404413 108.036772 
L 140.453332 108.333926 
L 138.917399 107.492588 
L 138.908618 106.38887 
L 136.855191 105.64266 
L 133.81995 105.171612 
L 132.24815 102.792846 
L 132.401163 100.011056 
L 130.315126 99.945076 
L 129.991785 97.951945 
L 127.623546 97.132599 
L 125.673465 95.766511 
L 125.631326 95.3998 
L 124.912898 95.201356 
L 123.908512 93.054274 
L 123.870382 92.153607 
z
" clip-path="url(#pb4808747ea)" style="fill: #eeeeee; stroke: #000000; stroke-width: 0.3"/>
    <path d="M 144.615872 72.657029 
L 159.121313 67.868806 
L 161.267551 70.777949 
L 161.634289 70.223537 
L 163.237952 70.25064 
L 164.661754 69.717195 
L 165.506603 70.806082 
L 165.753938 74.090631 
L 164.123436 77.152186 
L 164.955247 77.993014 
L 165.061602 79.052743 
L 167.386949 81.363491 
L 168.419932 81.821751 
L 168.166078 83.189373 
L 169.262776 83.286039 
L 169.196051 81.165046 
L 168.486157 80.357973 
L 169.664134 78.395014 
L 170.343422 78.545382 
L 171.656854 77.906577 
L 171.92576 74.813311 
L 171.652339 73.599126 
L 172.235306 72.18905 
L 171.958371 71.018842 
L 168.253875 66.336495 
L 167.181254 65.404118 
L 166.101108 65.288019 
L 165.638549 64.463556 
L 165.391719 61.304568 
L 164.709917 58.889999 
L 165.985219 55.816166 
L 170.4257 55.986482 
L 171.85703 55.000398 
L 173.515623 55.818215 
L 173.669141 56.42582 
L 175.73712 56.52402 
L 176.680805 55.79264 
L 177.711278 55.749677 
L 178.241567 56.29335 
L 179.83394 56.514811 
L 181.519629 55.594706 
L 182.107615 54.359548 
L 183.653829 54.325794 
L 184.79769 55.000398 
L 186.758805 53.784164 
L 188.418403 53.816389 
L 189.682167 52.908048 
L 191.076873 52.620613 
L 194.594643 50.369758 
L 194.575677 50.808319 
L 195.295828 51.405146 
L 194.472575 51.777261 
L 195.127543 52.167093 
L 194.524718 52.735326 
L 194.575284 53.13845 
L 194.864447 53.023271 
L 194.575284 53.881869 
L 193.809708 54.523397 
L 194.377768 54.860471 
L 194.192101 56.171323 
L 194.64165 57.106436 
L 194.664562 58.915043 
L 194.306659 59.207417 
L 194.839958 59.818748 
L 194.437814 60.382553 
L 194.844696 60.525919 
L 195.256325 61.695013 
L 194.111119 62.564884 
L 194.463095 62.959951 
L 194.54447 62.594284 
L 195.005869 62.731207 
L 194.674834 65.378276 
L 195.005869 65.6485 
L 194.73488 66.00088 
L 195.274494 67.958094 
L 194.730928 68.614121 
L 194.9877 69.103024 
L 195.496504 68.703528 
L 195.738261 69.140881 
L 195.671895 69.482384 
L 195.204967 69.482384 
L 195.171784 70.602749 
L 195.517042 69.93826 
L 196.006886 69.83275 
L 196.206378 70.098545 
L 195.810555 70.447298 
L 196.138828 70.397362 
L 196.232843 71.288982 
L 195.641877 72.189054 
L 195.238151 72.025152 
L 195.873363 72.737558 
L 195.373252 72.633256 
L 195.572351 73.109674 
L 194.679571 73.397212 
L 194.605307 73.649715 
L 195.201016 73.563535 
L 195.425395 73.901817 
L 194.940692 75.184075 
L 192.431832 77.64388 
L 192.77077 77.630593 
L 192.079463 78.798073 
L 191.065014 79.191532 
L 191.184315 79.622036 
L 191.417388 79.824201 
L 187.889342 81.992033 
L 187.701699 82.565908 
L 185.626195 82.772503 
L 183.247302 84.068855 
L 182.800519 83.589622 
L 183.029242 84.062817 
L 178.473718 86.301528 
L 177.476652 87.655873 
L 177.010117 87.005883 
L 176.742284 86.988969 
L 177.443469 87.825011 
L 174.995447 90.348044 
L 174.677838 91.478479 
L 173.855774 91.029447 
L 173.995618 92.003219 
L 173.412152 92.050741 
L 173.300753 91.557008 
L 171.997539 92.302442 
L 168.461197 96.032019 
L 167.263454 96.81571 
L 166.033718 95.491973 
L 165.676999 95.424716 
L 166.76611 96.576495 
L 166.434279 96.917191 
L 166.753072 98.244556 
L 166.172372 98.24133 
L 166.599797 98.612639 
L 166.099686 99.352837 
L 166.468646 99.802675 
L 166.235578 100.16955 
L 166.583205 100.086591 
L 167.22632 101.020492 
L 167.81334 101.105064 
L 168.028239 102.135622 
L 168.428805 102.274158 
L 167.925529 102.990192 
L 168.196523 104.033635 
L 168.461988 103.324445 
L 168.428805 104.30708 
L 169.161198 105.627997 
L 169.329482 109.312067 
L 169.758489 109.802583 
L 169.988397 107.980679 
L 170.276769 107.913828 
L 170.356965 108.923849 
L 170.522482 108.275473 
L 170.221465 110.803741 
L 170.456509 112.075122 
L 170.787942 111.915644 
L 170.168531 113.212802 
L 169.740708 116.039081 
L 169.698045 115.691134 
L 169.497766 115.683884 
L 169.45905 117.110716 
L 169.690938 116.516304 
L 170.108091 116.693098 
L 170.155497 116.209431 
L 170.40555 116.311318 
L 170.257415 117.787686 
L 168.362439 120.245075 
L 159.482876 123.703627 
L 159.686713 123.483741 
L 157.519558 124.92628 
L 156.618089 126.618906 
L 156.154322 127.030081 
L 155.79089 126.935845 
L 155.597718 127.107002 
L 157.372607 128.611963 
L 157.916173 127.57375 
L 157.618316 131.370584 
L 153.835979 131.340348 
L 153.625769 127.231851 
L 153.036783 126.976122 
L 152.826073 126.258044 
L 153.262546 125.38653 
L 153.217897 119.380029 
L 152.557167 116.942954 
L 150.990128 114.598199 
L 151.032524 113.114473 
L 149.783808 109.444289 
L 155.453937 103.992715 
L 154.932682 103.103812 
L 155.666657 102.125403 
L 155.621004 100.475968 
L 156.544117 100.123577 
L 157.580613 98.00156 
L 158.172609 97.650189 
L 158.296531 96.423726 
L 157.861563 95.756278 
L 157.261787 95.880052 
L 157.322745 95.021835 
L 156.988618 94.839246 
L 157.437881 92.957613 
L 156.58927 92.320341 
L 156.639438 91.722965 
L 157.664144 91.427345 
L 157.509874 90.24589 
L 158.344942 89.336524 
L 157.918755 88.862922 
L 157.784804 87.460516 
L 158.256392 85.710323 
L 157.829453 85.111927 
L 158.242349 84.355998 
L 157.306188 82.32502 
L 157.984476 81.070424 
L 156.83309 81.204937 
L 156.544117 80.665356 
L 154.693124 79.932957 
L 152.847645 79.819926 
L 151.878878 78.775537 
L 150.392866 78.500375 
L 149.690996 77.813493 
L 145.528956 77.70353 
L 145.481793 75.127854 
z
M 166.175362 58.280345 
L 166.335904 58.519194 
L 166.692103 58.102363 
L 166.360986 57.904939 
z
M 165.63253 57.959156 
L 165.958128 58.261936 
L 166.037397 57.839988 
z
" clip-path="url(#pb4808747ea)" style="fill: #eeeeee; stroke: #000000; stroke-width: 0.3"/>
    <path d="M 169.956792 106.314636 
L 169.969437 105.770562 
L 170.125076 105.157622 
L 170.227785 105.616724 
z
" clip-path="url(#pb4808747ea)" style="fill: #eeeeee; stroke: #000000; stroke-width: 0.3"/>
    <path d="M 191.249283 79.268122 
L 191.856225 79.192804 
L 191.526646 79.760399 
z
" clip-path="url(#pb4808747ea)" style="fill: #eeeeee; stroke: #000000; stroke-width: 0.3"/>
    <path d="M 157.740777 127.190362 
L 158.052852 127.030081 
L 157.949356 127.401791 
z
" clip-path="url(#pb4808747ea)" style="fill: #eeeeee; stroke: #000000; stroke-width: 0.3"/>
    <path d="M 138.657021 12.359817 
L 138.878769 11.488303 
L 140.149805 11.638671 
L 140.369549 12.506602 
L 142.215275 12.40278 
L 143.079191 11.73789 
L 143.243243 9.985143 
L 144.141775 10.552343 
L 145.412563 9.916605 
L 146.266946 10.399421 
L 145.594172 11.611562 
L 146.111418 11.630486 
L 145.593172 12.631396 
L 145.945862 13.086079 
L 147.581883 13.259464 
L 147.530205 14.591287 
L 145.673193 16.09649 
L 145.427111 17.266692 
L 145.087964 17.274368 
L 143.589409 19.659785 
L 142.277986 20.606993 
L 140.682604 20.539993 
L 140.368544 18.775478 
L 139.764505 17.818551 
L 139.859579 13.595999 
z
" clip-path="url(#pb4808747ea)" style="fill: #eeeeee; stroke: #000000; stroke-width: 0.3"/>
    <path d="M 138.035425 10.486368 
L 139.375191 9.395437 
L 139.354124 7.641666 
L 140.384597 6.024451 
L 142.682348 5.064456 
L 143.382713 5.768212 
L 144.289273 5.175953 
L 145.212886 3.796054 
L 145.864952 3.799013 
L 146.270455 5.043998 
L 147.154939 5.480777 
L 147.644089 6.513398 
L 147.443413 8.067192 
L 147.8844 8.825165 
L 147.625027 10.125793 
L 146.107404 10.39328 
L 145.412563 9.916605 
L 144.141775 10.552343 
L 143.243243 9.985143 
L 143.079191 11.73789 
L 142.215275 12.40278 
L 140.369549 12.506602 
L 140.209007 11.683678 
L 139.271341 11.359416 
L 138.795234 11.983386 
L 138.193205 11.646851 
z
" clip-path="url(#pb4808747ea)" style="fill: #eeeeee; stroke: #000000; stroke-width: 0.3"/>
    <path d="M 141.41307 3.114799 
L 142.133497 -1.839134 
L 143.285887 -3.94632 
L 143.318997 -5.560976 
L 144.326398 -5.977045 
L 144.734275 -7.101983 
L 145.896446 -7.609858 
L 149.746683 -11.887261 
L 149.290896 -12.876542 
L 148.697143 -12.813888 
L 148.273714 -13.383903 
L 147.806641 -13.020769 
L 147.023998 -13.580299 
L 147.717338 -15.600538 
L 147.185544 -16.600686 
L 147.992264 -18.273009 
L 147.926044 -18.89928 
L 147.650108 -18.751984 
L 148.15933 -19.687687 
L 149.471758 -20.247216 
L 150.971313 -19.572864 
L 152.204977 -20.366383 
L 152.943471 -19.287216 
L 154.098619 -18.861052 
L 154.194692 -19.390147 
L 155.087952 -19.943921 
L 156.955003 -20.131755 
L 158.123946 -20.708288 
L 158.935685 -20.102217 
L 160.519028 -20.036366 
L 163.020718 -22.292767 
L 163.403009 -20.667758 
L 163.986475 -20.653947 
L 163.731617 -20.164485 
L 165.125822 -19.63053 
L 164.842363 -18.686004 
L 165.098226 -17.226957 
L 167.24196 -14.303236 
L 167.474747 -13.739619 
L 167.193297 -13.09723 
L 167.877104 -10.966137 
L 167.713048 -9.666534 
L 166.772877 -8.351719 
L 166.864689 -7.576613 
L 165.355595 -6.837049 
L 164.874973 -5.517503 
L 163.717569 -4.467492 
L 163.405013 -3.197551 
L 162.474876 -2.023771 
L 162.76586 -0.716497 
L 162.526549 3.480995 
L 147.347086 3.398141 
L 145.212886 3.796054 
L 144.289273 5.175953 
L 143.276106 5.808618 
L 142.725997 5.071102 
L 141.525948 5.390252 
z
" clip-path="url(#pb4808747ea)" style="fill: #eeeeee; stroke: #000000; stroke-width: 0.3"/>
    <path d="M 40.159435 1.422518 
L 40.881954 2.47966 
L 41.292787 1.920685 
L 41.692955 2.847742 
L 42.126704 1.48736 
L 43.12495 0.164023 
L 43.313778 -3.24096 
L 43.385673 -2.376528 
L 43.696961 -2.51063 
L 44.006274 -1.966961 
L 44.084882 -2.410554 
L 44.485449 -2.036029 
L 45.09538 -2.14758 
L 45.579691 -1.596662 
L 45.319366 -2.101672 
L 46.615862 -2.410554 
L 45.482908 -2.376528 
L 44.054859 -2.920197 
L 43.121004 -4.173659 
L 43.170779 -4.578994 
L 44.253958 -4.852643 
L 44.351925 -4.556038 
L 43.956499 -4.543958 
L 43.88974 -4.443883 
L 44.419874 -4.443883 
L 44.419874 -4.004516 
L 44.588158 -3.802152 
L 44.511127 -6.499965 
L 45.254185 -6.724478 
L 46.219908 -6.057084 
L 46.634303 -6.446302 
L 52.978207 -6.42482 
L 53.052456 -12.865032 
L 57.760843 -12.931779 
L 59.839856 -12.548954 
L 61.849138 -12.778852 
L 62.435615 -12.57632 
L 61.84111 -10.881872 
L 61.683077 -9.360814 
L 62.273568 -8.09983 
L 61.782913 -7.698849 
L 63.691855 -7.831828 
L 64.911718 -8.578805 
L 66.609445 -8.366936 
L 67.132211 -8.06607 
L 67.281214 -7.07283 
L 68.180246 -5.999547 
L 67.503963 -4.554439 
L 66.276823 -4.149876 
L 65.642184 -3.214431 
L 65.28297 -2.452365 
L 65.52529 -1.218232 
L 65.088818 -0.463836 
L 66.371144 -0.111446 
L 66.683195 0.771831 
L 67.464328 0.719153 
L 68.286606 1.493491 
L 67.810999 3.512706 
L 68.275567 5.494074 
L 68.156164 6.183514 
L 67.679057 6.497033 
L 68.086429 6.864259 
L 67.871705 7.887676 
L 67.073514 8.329057 
L 66.626503 9.529436 
L 67.045918 10.173359 
L 66.345053 10.884275 
L 65.159553 10.725727 
L 65.452541 10.197394 
L 64.661374 8.897281 
L 63.281469 10.599399 
L 60.903444 10.259791 
L 61.093586 9.785165 
L 60.105253 8.016562 
L 59.269432 7.551651 
L 58.561543 8.0452 
L 58.27207 7.843178 
L 58.625759 8.889611 
L 58.429097 10.049584 
L 56.502098 10.470513 
L 55.900569 10.045491 
L 55.01558 10.471022 
L 54.093972 10.04856 
L 54.376427 11.548141 
L 53.921892 12.706071 
L 54.436628 12.540362 
L 55.123945 13.393462 
L 54.682958 14.211788 
L 55.929665 14.865935 
L 55.350212 16.192132 
L 55.741027 16.550149 
L 54.683463 16.823268 
L 53.6881 15.885774 
L 52.377177 16.816107 
L 51.899003 18.00161 
L 51.169731 16.787385 
L 49.629279 15.601823 
L 49.575849 14.917623 
L 46.017794 11.883028 
L 45.051926 10.609341 
L 45.495942 10.895672 
L 45.71519 10.676998 
L 46.381217 11.527941 
L 47.251473 11.252081 
L 47.158641 11.026959 
L 46.414395 11.189659 
L 45.882285 10.442612 
L 45.287368 10.744655 
L 45.151475 10.292803 
L 45.051926 10.573097 
L 44.535223 10.159903 
L 44.383531 9.369774 
L 42.953904 7.80642 
L 43.90554 8.03315 
L 44.274108 8.767707 
L 44.150457 8.05288 
L 43.455199 7.522498 
L 43.290075 7.864007 
L 42.876873 7.601434 
L 42.705429 6.337302 
L 41.717842 5.031285 
L 41.557461 4.610847 
L 41.731274 4.976514 
L 42.409941 5.784369 
L 42.921905 6.117416 
L 42.997752 6.808884 
L 44.353507 6.475032 
L 43.853397 5.796449 
L 43.028566 6.269645 
L 42.84369 5.853635 
L 43.259265 5.440847 
L 43.265586 4.870599 
L 43.204748 5.303523 
L 42.538722 5.500047 
L 41.783024 4.948322 
L 41.79764 4.425596 
L 40.993746 3.354361 
L 41.189286 3.510618 
L 41.325179 3.28751 
L 40.858644 3.084543 
z
" clip-path="url(#pb4808747ea)" style="fill: #eeeeee; stroke: #000000; stroke-width: 0.3"/>
    <path d="M 43.466189 -5.488647 
L 43.501625 -5.486881 
L 43.480057 -5.473727 
z
" clip-path="url(#pb4808747ea)" style="fill: #eeeeee; stroke: #000000; stroke-width: 0.3"/>
    <path d="M 41.391943 1.794228 
L 41.838726 1.8345 
L 41.669252 2.291187 
z
" clip-path="url(#pb4808747ea)" style="fill: #eeeeee; stroke: #000000; stroke-width: 0.3"/>
    <path d="M 43.320098 -7.328154 
L 43.89606 -8.480333 
L 44.621341 -9.338926 
L 44.837027 -9.226568 
L 44.966599 -9.243888 
L 45.251024 -9.398329 
L 44.584998 -9.618013 
L 45.567842 -11.055717 
L 45.51846 -13.068707 
L 45.635436 -12.609817 
L 46.447675 -12.197074 
L 52.908971 -12.197841 
L 52.978207 -6.42482 
L 46.634303 -6.446302 
L 46.219908 -6.057084 
L 45.121452 -7.088537 
L 44.4736 -6.64152 
L 44.184432 -7.088537 
L 43.56186 -6.980608 
z
" clip-path="url(#pb4808747ea)" style="fill: #eeeeee; stroke: #000000; stroke-width: 0.3"/>
    <path d="M 38.9293 -18.411174 
L 39.596511 -18.618976 
L 40.021571 -19.920162 
L 41.261973 -20.041176 
L 41.400234 -19.431057 
L 40.114009 -17.302691 
L 38.96841 -17.676815 
z
" clip-path="url(#pb4808747ea)" style="fill: #eeeeee; stroke: #000000; stroke-width: 0.3"/>
    <path d="M 25.223613 5.611198 
L 25.293532 5.525819 
L 25.273387 5.822221 
z
" clip-path="url(#pb4808747ea)" style="fill: #eeeeee; stroke: #000000; stroke-width: 0.3"/>
   </g>
   <g id="PatchCollection_2">
    <path d="M 54.915914 76.990268 
L 56.161058 75.803458 
L 56.473531 73.902223 
L 56.904907 73.58327 
L 57.807953 69.945509 
L 57.79571 68.25651 
L 58.216815 67.199374 
L 58.63871 67.083794 
L 58.701125 64.959451 
L 60.786113 62.764229 
L 60.760042 61.944294 
L 61.92065 60.880714 
L 62.961166 60.72567 
L 64.1597 59.133722 
L 64.899597 56.868428 
L 65.163087 53.517004 
L 64.604507 51.787728 
L 64.800048 51.360445 
L 63.61495 50.017378 
L 61.036171 43.521524 
L 61.016813 43.245258 
L 61.473469 42.524395 
L 61.716814 42.41888 
L 61.117149 43.471588 
L 62.141869 41.938034 
L 62.015064 42.182085 
L 62.899149 41.84501 
L 62.893222 39.826181 
L 60.325588 34.475836 
L 60.245708 32.725845 
L 58.872584 31.341982 
L 57.608859 28.689395 
L 60.167672 28.368418 
L 61.951484 27.500611 
L 78.11677 27.652508 
L 79.144238 29.147487 
L 79.043898 30.512556 
L 79.344915 31.716512 
L 80.340273 33.232973 
L 80.206822 34.172511 
L 81.327601 35.278782 
L 82.004385 36.889346 
L 83.384042 38.596066 
L 84.683927 38.328574 
L 85.801197 38.649254 
L 85.909061 38.219636 
L 87.788903 38.096376 
L 87.832047 37.773138 
L 91.904789 38.118367 
L 91.905289 36.000952 
L 92.66987 35.532463 
L 92.712009 33.169552 
L 96.461663 33.169552 
L 96.584075 32.756809 
L 98.001358 32.744021 
L 97.559866 34.57707 
L 103.697574 34.562239 
L 104.066316 35.484897 
L 103.547065 38.095351 
L 104.469178 40.364669 
L 103.731689 45.066964 
L 104.153613 46.308773 
L 105.517713 47.666681 
L 106.262727 49.829613 
L 106.292328 51.773134 
L 105.544805 52.223725 
L 105.894989 54.189237 
L 107.173302 53.164287 
L 109.665206 53.461441 
L 111.808939 52.761262 
L 113.642627 53.095239 
L 114.291819 52.322434 
L 114.749359 54.968178 
L 114.229608 56.106159 
L 114.228103 58.654732 
L 114.599355 59.808569 
L 113.79765 61.810904 
L 114.452861 62.858871 
L 104.643768 62.858871 
L 104.662831 78.518279 
L 105.477579 80.655127 
L 106.361058 81.031043 
L 108.455628 83.485508 
L 111.448221 85.818752 
L 101.765055 87.666121 
L 100.670361 87.251334 
L 98.946543 87.75 
L 96.664849 86.876437 
L 93.921591 87.051865 
L 89.645162 86.601275 
L 88.445114 85.803411 
L 87.526515 84.575409 
L 65.813764 84.742147 
L 63.58449 83.249217 
L 63.382809 82.696843 
L 61.861177 82.403782 
L 58.952862 83.806697 
L 57.377548 83.758622 
L 56.62752 83.334625 
L 55.024944 83.829639 
L 55.335441 80.068247 
z
" clip-path="url(#pb4808747ea)" style="fill: #ff6b6b; stroke: #dd0000; stroke-width: 0.5"/>
    <path d="M 56.24636 23.359839 
L 57.110146 22.114754 
L 57.762348 22.164878 
L 58.078412 21.310239 
L 59.227793 21.081618 
L 59.897052 20.25 
L 60.422322 20.352802 
L 61.411661 21.458049 
L 60.097224 21.975129 
L 59.495195 22.888073 
L 58.356853 23.535316 
L 58.775768 24.067737 
L 58.670413 26.856688 
L 57.221724 27.040667 
L 56.914387 26.320605 
L 57.312584 25.573158 
L 56.311965 23.490299 
L 56.687697 23.65869 
L 56.865005 23.336902 
z
" clip-path="url(#pb4808747ea)" style="fill: #ff6b6b; stroke: #dd0000; stroke-width: 0.5"/>
    <path d="M 54.753067 80.173623 
L 54.83932 80.20178 
L 54.93039 81.19021 
z
" clip-path="url(#pb4808747ea)" style="fill: #ff6b6b; stroke: #dd0000; stroke-width: 0.5"/>
   </g>
  </g>
 </g>
 <defs>
  <clipPath id="pb4808747ea">
   <rect x="0" y="0" width="169.502425" height="108"/>
  </clipPath>
 </defs>
</svg>
