<?xml version="1.0" encoding="utf-8" standalone="no"?>
<!DOCTYPE svg PUBLIC "-//W3C//DTD SVG 1.1//EN"
  "http://www.w3.org/Graphics/SVG/1.1/DTD/svg11.dtd">
<svg xmlns:xlink="http://www.w3.org/1999/xlink" width="164.955891pt" height="108pt" viewBox="0 0 164.955891 108" xmlns="http://www.w3.org/2000/svg" version="1.1">
 <metadata>
  <rdf:RDF xmlns:dc="http://purl.org/dc/elements/1.1/" xmlns:cc="http://creativecommons.org/ns#" xmlns:rdf="http://www.w3.org/1999/02/22-rdf-syntax-ns#">
   <cc:Work>
    <dc:type rdf:resource="http://purl.org/dc/dcmitype/StillImage"/>
    <dc:date>2025-09-05T15:49:27.457069</dc:date>
    <dc:format>image/svg+xml</dc:format>
    <dc:creator>
     <cc:Agent>
      <dc:title>Matplotlib v3.10.3, https://matplotlib.org/</dc:title>
     </cc:Agent>
    </dc:creator>
   </cc:Work>
  </rdf:RDF>
 </metadata>
 <defs>
  <style type="text/css">*{stroke-linejoin: round; stroke-linecap: butt}</style>
 </defs>
 <g id="figure_1">
  <g id="patch_1">
   <path d="M 0 108 
L 164.955891 108 
L 164.955891 0 
L 0 0 
z
" style="fill: #ffffff"/>
  </g>
  <g id="axes_1">
   <g id="PatchCollection_1">
    <path d="M 756.683232 -328.694063 
L 756.728285 -330.850942 
L 759.094937 -332.201001 
L 766.040119 -333.474239 
L 767.480332 -332.201001 
L 767.970159 -333.47926 
L 770.624375 -332.857201 
L 771.44298 -334.820781 
L 774.80653 -335.194818 
L 774.914847 -334.230852 
L 776.435107 -335.182763 
L 776.034432 -333.809113 
L 777.416187 -334.567737 
L 781.253746 -330.712871 
L 785.568176 -333.0515 
L 785.400424 -332.201001 
L 786.774028 -331.611578 
L 788.67435 -332.453538 
L 789.523156 -330.769111 
L 788.95281 -332.369191 
L 789.931499 -333.0515 
L 791.131603 -333.219184 
L 791.693787 -332.031799 
L 796.869956 -332.369191 
L 794.548829 -333.650967 
L 793.967952 -334.91215 
L 795.086572 -337.186506 
L 794.078177 -337.128773 
L 793.879765 -339.434765 
L 794.610172 -339.553255 
L 791.452713 -341.505779 
L 790.649444 -343.321762 
L 791.181439 -344.418272 
L 790.054185 -345.705563 
L 793.923853 -344.791803 
L 797.971331 -345.352613 
L 798.386859 -344.471489 
L 797.46234 -343.657142 
L 799.622429 -341.03334 
L 801.771505 -341.611214 
L 810.263296 -340.227026 
L 817.693017 -342.348751 
L 818.657325 -342.861365 
L 815.873697 -342.496866 
L 813.750499 -343.371968 
L 815.62638 -345.769823 
L 827.232509 -348.850506 
L 830.763811 -351.75847 
L 832.548632 -351.485352 
L 831.005368 -352.538676 
L 831.816293 -353.683393 
L 831.166394 -354.10412 
L 831.465466 -359.82968 
L 842.551814 -362.528662 
L 843.572435 -360.968881 
L 843.316791 -359.541249 
L 845.672382 -358.035178 
L 849.706704 -358.722534 
L 851.376918 -355.611572 
L 855.349166 -354.989254 
L 856.392438 -352.789449 
L 860.001903 -353.355021 
L 862.290544 -352.299118 
L 861.444483 -350.691031 
L 862.436623 -349.851921 
L 861.513871 -348.801114 
L 867.570223 -348.918431 
L 869.569133 -351.100382 
L 870.23259 -350.834494 
L 869.196621 -348.595155 
L 870.095027 -348.040429 
L 869.963553 -346.570067 
L 874.795243 -345.301197 
L 877.114321 -342.927329 
L 880.532653 -343.550276 
L 883.057457 -342.216369 
L 888.264109 -342.51414 
L 891.927744 -338.731122 
L 894.290638 -339.320928 
L 895.800156 -338.0986 
L 898.530697 -338.066717 
L 900.133962 -338.85546 
L 902.778059 -337.237169 
L 909.437008 -336.259691 
L 904.842706 -332.020768 
L 904.141498 -328.644239 
L 902.197383 -326.032849 
L 902.614937 -324.079807 
L 901.328188 -320.820916 
L 902.201647 -319.306912 
L 899.757798 -317.407074 
L 894.984531 -318.128226 
L 893.728218 -316.463393 
L 895.729555 -316.159242 
L 891.358022 -312.356137 
L 888.734007 -311.404484 
L 888.575748 -309.142195 
L 884.915152 -306.953877 
L 884.159174 -304.929739 
L 885.111149 -304.324954 
L 884.627859 -302.876913 
L 882.988069 -302.221428 
L 883.035549 -301.364464 
L 885.173234 -301.608031 
L 886.832495 -302.716867 
L 886.042429 -303.647161 
L 886.690055 -304.382021 
L 889.208769 -305.289673 
L 892.790849 -304.865022 
L 892.35869 -304.017929 
L 893.269275 -303.079676 
L 892.538856 -301.625256 
L 895.559129 -298.832462 
L 892.952758 -297.613329 
L 892.895538 -296.276868 
L 897.191605 -292.486188 
L 895.952336 -290.052378 
L 890.619688 -288.692337 
L 892.300256 -286.278293 
L 895.382602 -285.220466 
L 895.948673 -283.527586 
L 894.826272 -283.506536 
L 893.364222 -281.666357 
L 894.330815 -280.460612 
L 893.722129 -279.668685 
L 895.096522 -278.059956 
L 899.197805 -276.622749 
L 903.021536 -277.249534 
L 903.425697 -275.907976 
L 900.927679 -273.417741 
L 900.910493 -272.173006 
L 897.084925 -270.817419 
L 896.935266 -269.574275 
L 894.852456 -269.402606 
L 894.050812 -268.014754 
L 892.13228 -267.77068 
L 890.480276 -266.05622 
L 891.687377 -266.106501 
L 891.527505 -265.225266 
L 887.941727 -263.859216 
L 885.795972 -264.080475 
L 885.641366 -263.181583 
L 882.824581 -264.391979 
L 881.831357 -263.291484 
L 879.67956 -264.957959 
L 875.828656 -265.402278 
L 875.20666 -267.124437 
L 872.142429 -266.877711 
L 872.049519 -267.788966 
L 874.407549 -268.664563 
L 872.084985 -269.63054 
L 872.343786 -268.034977 
L 870.188973 -267.938574 
L 870.042953 -266.955482 
L 868.889175 -267.949617 
L 868.708007 -269.209813 
L 868.144386 -269.883584 
L 868.708973 -267.952134 
L 869.624823 -267.011957 
L 859.409118 -269.400595 
L 849.527421 -264.050072 
L 848.67719 -258.161345 
L 850.315955 -255.723561 
L 847.403469 -256.201578 
L 844.205468 -254.582657 
L 839.673239 -255.688297 
L 836.354718 -254.701886 
L 833.015503 -256.491378 
L 833.131157 -257.92444 
L 829.68359 -257.74591 
L 828.662227 -259.143572 
L 822.423269 -260.660797 
L 820.578966 -260.744651 
L 820.429236 -258.845172 
L 812.389804 -258.853463 
L 809.046325 -260.795018 
L 806.14597 -259.932958 
L 803.900545 -262.078238 
L 799.303804 -262.808952 
L 797.70054 -264.085484 
L 795.685211 -263.294507 
L 796.317018 -265.740755 
L 793.744735 -265.786026 
L 791.688616 -267.357763 
L 793.284024 -267.669971 
L 795.452747 -269.895626 
L 798.039871 -281.93818 
L 798.872847 -283.288239 
L 800.542637 -283.33694 
L 799.041069 -284.679966 
L 798.002969 -282.818798 
L 800.065283 -294.437108 
L 803.82376 -291.43928 
L 804.41519 -289.075554 
L 806.550838 -286.119888 
L 805.826168 -287.719967 
L 807.032503 -287.391115 
L 805.121639 -288.638749 
L 803.478681 -293.30294 
L 798.15681 -296.175258 
L 799.140281 -297.369676 
L 801.220817 -296.267145 
L 799.282626 -298.127794 
L 800.496158 -300.233455 
L 798.586719 -301.908357 
L 799.765257 -303.48936 
L 798.24164 -303.26192 
L 791.700972 -305.856603 
L 790.352303 -308.29061 
L 787.892177 -309.87212 
L 789.400458 -312.530052 
L 786.450998 -313.851497 
L 787.345329 -314.164778 
L 787.399958 -315.439534 
L 792.506161 -314.693964 
L 789.171846 -316.038495 
L 786.011984 -315.133767 
L 782.907235 -315.796494 
L 784.153358 -315.881854 
L 782.737575 -316.822216 
L 784.675765 -317.320764 
L 783.463682 -318.154199 
L 785.004543 -318.33896 
L 781.847084 -318.507655 
L 782.231457 -318.622122 
L 782.496984 -318.928383 
L 779.666383 -318.253107 
L 778.581309 -318.983611 
L 780.557839 -318.896253 
L 781.179929 -319.550948 
L 781.23457 -319.780387 
L 780.969056 -320.023893 
L 778.461484 -319.441491 
L 777.810631 -320.283957 
L 778.219928 -319.012731 
L 776.060322 -319.481666 
L 775.96111 -317.994042 
L 775.14969 -319.985236 
L 776.122148 -321.12693 
L 775.236922 -321.303152 
L 774.871713 -320.192589 
L 773.292501 -320.697664 
L 774.183474 -320.621348 
L 773.292501 -320.866359 
L 774.183474 -321.80824 
L 772.253917 -320.787034 
L 764.176688 -323.493173 
L 763.552195 -322.129553 
L 761.354237 -322.053238 
L 760.614243 -324.13179 
L 757.157229 -324.933095 
L 762.37222 -325.855887 
L 761.266533 -327.299326 
L 759.167305 -326.618522 
L 758.356379 -327.974108 
L 759.294314 -328.711646 
L 759.661443 -328.082554 
L 762.561056 -327.990679 
L 763.525363 -328.226646 
L 760.389459 -328.570564 
L 762.319028 -329.757443 
z
M 835.787434 -255.967252 
L 836.39976 -255.87671 
L 835.894561 -256.34409 
z
" clip-path="url(#pcdda3d3eb9)" style="fill: #eeeeee; stroke: #000000; stroke-width: 0.3"/>
    <path d="M 169.553287 239.125509 
L 172.376338 237.182029 
L 174.79584 232.625568 
L 174.313162 229.240426 
L 176.764915 225.193433 
L 176.8617 223.117965 
L 173.961346 219.999341 
L 172.011741 216.110481 
L 171.067681 207.33231 
L 173.133541 203.348762 
L 176.080857 200.748934 
L 177.577725 196.945446 
L 189.798134 201.129486 
L 195.776182 207.419385 
L 197.070222 206.983591 
L 196.347483 209.53309 
L 197.626186 207.671922 
L 200.069046 209.916159 
L 200.937981 212.871826 
L 199.812636 214.357932 
L 201.105721 213.637977 
L 201.427797 210.383083 
L 202.695958 210.913761 
L 204.491804 216.594136 
L 196.172652 228.942013 
L 195.537193 232.079121 
L 192.223549 238.549091 
L 188.80398 241.013513 
L 185.416684 240.736138 
L 185.820845 240.05452 
L 184.526182 238.8373 
L 182.315468 240.102986 
L 179.570934 238.602012 
L 175.486965 241.741291 
z
" clip-path="url(#pcdda3d3eb9)" style="fill: #eeeeee; stroke: #000000; stroke-width: 0.3"/>
    <path d="M 913.545147 -255.052554 
L 914.8459 -255.703733 
L 915.430616 -257.545813 
L 920.24445 -259.431572 
L 922.297671 -258.725165 
L 922.939891 -262.784373 
L 924.322128 -262.615678 
L 924.072904 -258.303425 
L 925.076505 -257.353019 
L 925.447462 -252.207851 
L 923.605126 -249.819015 
L 923.586916 -246.777508 
L 922.297671 -245.789938 
L 922.98591 -245.232151 
L 921.338157 -243.591391 
L 921.484813 -242.65705 
L 916.403546 -244.985635 
L 917.945844 -246.631911 
L 914.794133 -247.313714 
L 916.564583 -249.251185 
L 914.312939 -249.175376 
L 913.983207 -250.016831 
L 915.852375 -251.097781 
L 913.74165 -252.973003 
L 915.178517 -253.767262 
z
" clip-path="url(#pcdda3d3eb9)" style="fill: #eeeeee; stroke: #000000; stroke-width: 0.3"/>
    <path d="M 91.764879 84.64119 
L 95.771615 85.495205 
L 95.086262 86.863328 
L 96.583035 89.385706 
L 95.874184 90.050445 
L 95.898624 89.213 
L 93.530536 89.327467 
L 93.103018 88.711935 
L 94.397057 88.11448 
L 92.470374 86.856801 
z
" clip-path="url(#pcdda3d3eb9)" style="fill: #eeeeee; stroke: #000000; stroke-width: 0.3"/>
    <path d="M 1463.330135 527.309649 
L 1464.060554 525.853649 
L 1467.487367 525.397781 
L 1470.739727 528.880103 
L 1470.239357 531.169524 
L 1467.448062 531.482818 
L 1464.79288 530.291917 
z
" clip-path="url(#pcdda3d3eb9)" style="fill: #eeeeee; stroke: #000000; stroke-width: 0.3"/>
    <path d="M 1343.388686 424.511662 
L 1343.958066 423.880065 
L 1345.252105 424.8139 
L 1345.0834 427.848386 
L 1344.032837 428.015071 
L 1343.624495 426.980823 
L 1344.495809 427.047094 
z
" clip-path="url(#pcdda3d3eb9)" style="fill: #eeeeee; stroke: #000000; stroke-width: 0.3"/>
    <path d="M 87.940265 66.887143 
L 88.90217 64.07758 
L 90.042368 66.10442 
L 92.423401 67.286783 
L 88.906481 67.911853 
z
" clip-path="url(#pcdda3d3eb9)" style="fill: #eeeeee; stroke: #000000; stroke-width: 0.3"/>
    <path d="M 84.958214 66.556278 
L 85.658915 65.901077 
L 87.852078 66.885131 
L 87.683372 69.994921 
L 86.164549 71.035709 
z
" clip-path="url(#pcdda3d3eb9)" style="fill: #eeeeee; stroke: #000000; stroke-width: 0.3"/>
    <path d="M 794.522951 -302.861268 
L 797.440773 -302.307997 
L 797.755181 -301.681916 
L 795.130188 -302.317029 
z
" clip-path="url(#pcdda3d3eb9)" style="fill: #eeeeee; stroke: #000000; stroke-width: 0.3"/>
    <path d="M 90.439203 71.248084 
L 91.189751 70.294161 
L 92.064905 71.246578 
L 91.112106 71.96604 
z
" clip-path="url(#pcdda3d3eb9)" style="fill: #eeeeee; stroke: #000000; stroke-width: 0.3"/>
    <path d="M 1346.135894 425.825062 
L 1346.216413 425.066944 
L 1346.216413 425.825062 
z
" clip-path="url(#pcdda3d3eb9)" style="fill: #eeeeee; stroke: #000000; stroke-width: 0.3"/>
    <path d="M 924.233941 -258.387773 
L 924.534922 -258.050888 
L 924.472613 -258.038339 
z
" clip-path="url(#pcdda3d3eb9)" style="fill: #eeeeee; stroke: #000000; stroke-width: 0.3"/>
    <path d="M 885.477842 -262.734167 
L 885.583285 -262.84914 
L 886.491043 -262.770825 
z
" clip-path="url(#pcdda3d3eb9)" style="fill: #eeeeee; stroke: #000000; stroke-width: 0.3"/>
    <path d="M 796.300104 -300.410689 
L 798.152982 -299.776575 
L 798.605412 -297.46155 
z
" clip-path="url(#pcdda3d3eb9)" style="fill: #eeeeee; stroke: #000000; stroke-width: 0.3"/>
    <path d="M 785.808767 -312.502943 
L 786.935066 -312.393992 
L 787.611797 -310.981178 
z
" clip-path="url(#pcdda3d3eb9)" style="fill: #eeeeee; stroke: #000000; stroke-width: 0.3"/>
    <path d="M 784.780725 -308.671175 
L 785.778578 -308.64055 
L 786.123175 -308.359893 
z
" clip-path="url(#pcdda3d3eb9)" style="fill: #eeeeee; stroke: #000000; stroke-width: 0.3"/>
    <path d="M 774.425514 -316.822216 
L 776.723154 -315.819087 
L 774.880347 -315.945115 
z
" clip-path="url(#pcdda3d3eb9)" style="fill: #eeeeee; stroke: #000000; stroke-width: 0.3"/>
    <path d="M 752.39084 -330.087295 
L 752.873954 -330.364437 
L 752.919007 -329.950236 
z
" clip-path="url(#pcdda3d3eb9)" style="fill: #eeeeee; stroke: #000000; stroke-width: 0.3"/>
    <path d="M 93.270758 66.64012 
L 93.889032 66.158143 
L 93.542032 66.679284 
z
" clip-path="url(#pcdda3d3eb9)" style="fill: #eeeeee; stroke: #000000; stroke-width: 0.3"/>
    <path d="M 87.333499 72.100594 
L 87.518989 71.879175 
L 87.492629 72.113648 
z
" clip-path="url(#pcdda3d3eb9)" style="fill: #eeeeee; stroke: #000000; stroke-width: 0.3"/>
    <path d="M 86.831222 72.219577 
L 87.093391 72.135229 
L 86.958231 72.296398 
z
" clip-path="url(#pcdda3d3eb9)" style="fill: #eeeeee; stroke: #000000; stroke-width: 0.3"/>
    <path d="M 69.063062 44.863511 
L 70.584759 44.223881 
L 70.585701 45.31891 
L 69.532277 44.904685 
z
" clip-path="url(#pcdda3d3eb9)" style="fill: #eeeeee; stroke: #000000; stroke-width: 0.3"/>
    <path d="M 69.642501 45.287261 
L 69.781019 45.00896 
L 70.585701 45.31891 
z
" clip-path="url(#pcdda3d3eb9)" style="fill: #eeeeee; stroke: #000000; stroke-width: 0.3"/>
    <path d="M 853.496783 -367.984743 
L 858.209014 -368.98485 
L 861.197767 -366.947966 
L 863.298915 -366.972569 
L 859.823209 -368.731807 
L 862.404585 -368.731807 
L 861.293622 -369.337801 
L 862.047044 -369.911159 
L 858.341288 -371.517778 
L 860.877611 -371.857168 
L 860.147204 -373.635493 
L 861.633907 -373.856394 
L 865.948349 -377.937689 
L 868.743472 -385.726242 
L 870.255111 -384.941003 
L 872.662033 -385.558546 
L 876.208659 -387.327321 
L 878.709517 -389.86226 
L 883.294267 -391.136497 
L 893.286189 -391.685757 
L 894.127798 -390.466748 
L 897.591043 -389.149325 
L 897.570194 -386.101452 
L 895.730768 -381.775183 
L 892.201645 -381.618641 
L 891.432274 -380.470925 
L 891.939911 -379.482281 
L 894.984531 -379.356672 
L 895.867118 -378.291849 
L 895.609035 -376.633062 
L 891.446892 -374.404889 
L 893.069626 -373.300841 
L 887.583596 -371.579903 
L 885.01619 -372.51306 
L 885.35949 -371.83845 
L 882.712943 -371.512632 
L 885.938953 -367.105051 
L 884.187172 -364.060718 
L 885.25479 -363.327141 
L 881.782888 -361.976009 
L 882.043396 -361.021173 
L 884.271166 -360.307671 
L 883.460405 -358.362921 
L 880.06398 -358.415842 
L 879.097388 -359.354427 
L 881.507762 -363.3791 
L 877.551344 -364.984004 
L 874.279091 -364.640961 
L 872.065927 -367.331726 
L 870.685444 -366.284115 
L 868.939752 -366.549053 
L 869.653127 -366.552878 
L 869.134536 -367.560635 
L 867.385192 -366.608662 
L 865.652881 -367.301126 
L 864.405097 -366.913133 
L 864.582825 -365.772106 
L 859.948781 -367.039347 
L 857.927197 -366.273701 
z
" clip-path="url(#pcdda3d3eb9)" style="fill: #eeeeee; stroke: #000000; stroke-width: 0.3"/>
    <path d="M 852.300012 -366.078305 
L 854.560773 -366.590499 
L 858.007716 -365.683772 
L 859.776235 -366.513185 
L 862.571901 -365.989194 
L 861.364129 -364.809608 
L 857.709622 -363.981972 
L 855.363772 -365.032137 
L 852.797578 -364.493352 
z
" clip-path="url(#pcdda3d3eb9)" style="fill: #eeeeee; stroke: #000000; stroke-width: 0.3"/>
    <path d="M 6.983055 116.592165 
L 7.463283 115.937963 
L 9.407705 116.949125 
L 9.481027 118.3047 
L 8.904945 119.472009 
L 8.335564 117.259408 
z
" clip-path="url(#pcdda3d3eb9)" style="fill: #eeeeee; stroke: #000000; stroke-width: 0.3"/>
    <path d="M 868.29871 -386.477328 
L 870.026016 -388.442413 
L 870.476538 -387.496017 
L 869.334903 -386.129905 
z
" clip-path="url(#pcdda3d3eb9)" style="fill: #eeeeee; stroke: #000000; stroke-width: 0.3"/>
    <path d="M 70.826316 51.584167 
L 71.439702 52.080643 
L 71.278829 52.337449 
L 71.015422 52.298545 
z
" clip-path="url(#pcdda3d3eb9)" style="fill: #eeeeee; stroke: #000000; stroke-width: 0.3"/>
    <path d="M 888.880698 -393.012224 
L 889.528678 -392.833485 
L 889.36764 -392.742104 
z
" clip-path="url(#pcdda3d3eb9)" style="fill: #eeeeee; stroke: #000000; stroke-width: 0.3"/>
    <path d="M 885.021572 -391.80073 
L 887.18119 -392.469985 
L 887.509968 -392.320377 
z
" clip-path="url(#pcdda3d3eb9)" style="fill: #eeeeee; stroke: #000000; stroke-width: 0.3"/>
    <path d="M 879.233844 -391.662165 
L 882.505379 -391.972942 
L 882.985607 -391.81529 
z
" clip-path="url(#pcdda3d3eb9)" style="fill: #eeeeee; stroke: #000000; stroke-width: 0.3"/>
    <path d="M 873.716436 -390.669585 
L 874.688399 -391.141025 
L 878.635712 -391.722909 
z
" clip-path="url(#pcdda3d3eb9)" style="fill: #eeeeee; stroke: #000000; stroke-width: 0.3"/>
    <path d="M 870.683583 -388.747674 
L 871.582696 -389.704101 
L 872.976429 -389.946607 
z
" clip-path="url(#pcdda3d3eb9)" style="fill: #eeeeee; stroke: #000000; stroke-width: 0.3"/>
    <path d="M 856.272743 -369.995506 
L 857.774793 -370.680826 
L 861.133549 -369.519551 
z
" clip-path="url(#pcdda3d3eb9)" style="fill: #eeeeee; stroke: #000000; stroke-width: 0.3"/>
    <path d="M 67.832286 50.373191 
L 68.157707 50.305908 
L 67.98469 50.485153 
z
" clip-path="url(#pcdda3d3eb9)" style="fill: #eeeeee; stroke: #000000; stroke-width: 0.3"/>
    <path d="M -35.331201 38.342285 
L -33.349335 38.105726 
L -31.921372 36.286264 
L -32.075979 34.841097 
L -33.629938 33.831095 
L -31.01809 31.510789 
L -32.583015 29.351147 
L -31.727201 28.276119 
L -32.358243 24.630259 
L -31.227633 22.365946 
L -25.465311 23.100967 
L -23.447084 21.822202 
L -19.004196 23.933896 
L -16.766462 23.826956 
L -14.965823 25.34972 
L -11.036732 25.018363 
L -8.921696 29.693597 
L -3.832266 29.771923 
L -2.60341 28.908863 
L -2.786497 29.695102 
L -1.814522 29.603721 
L -2.867004 31.127498 
L -7.150291 30.612885 
L -7.046286 32.239073 
L 3.186239 33.83112 
L 7.964607 38.607779 
L 6.53205 41.315411 
L 4.962426 41.014172 
L 4.277544 43.080176 
L 3.147888 43.207203 
L 1.033335 40.643651 
L -9.908524 39.901092 
L -11.853417 40.6552 
L -13.681371 42.87534 
L -18.169784 43.21072 
L -18.483226 40.972504 
L -19.948374 40.423749 
L -22.641423 42.503807 
L -24.425761 41.975128 
L -24.156407 43.977871 
L -28.351024 50.607147 
L -29.698268 48.753024 
L -31.438035 48.626996 
L -31.196478 46.306949 
L -32.57967 45.246592 
L -31.791725 41.865794 
L -34.180791 40.416149 
z
" clip-path="url(#pcdda3d3eb9)" style="fill: #eeeeee; stroke: #000000; stroke-width: 0.3"/>
    <path d="M 2.630274 43.3041 
L 3.011773 43.292045 
L 5.163723 44.400103 
z
" clip-path="url(#pcdda3d3eb9)" style="fill: #eeeeee; stroke: #000000; stroke-width: 0.3"/>
    <path d="M -29.813286 50.960603 
L -29.574132 50.403816 
L -28.938614 50.909891 
z
" clip-path="url(#pcdda3d3eb9)" style="fill: #eeeeee; stroke: #000000; stroke-width: 0.3"/>
    <path d="M -51.597546 154.379908 
L -46.823665 146.758706 
L -45.991609 139.099575 
L -41.096609 130.611846 
L -38.361203 130.191007 
L -34.874683 123.934967 
L -27.649051 121.604457 
L -27.890914 122.743967 
L -34.750301 124.80696 
L -33.530067 129.424967 
L -30.81545 131.91772 
L -32.490517 131.913697 
L -30.224503 135.54364 
L -30.851882 138.839202 
L -34.850949 143.136882 
L -36.680341 146.587074 
L -35.202731 148.701273 
L -34.589263 150.10255 
L -35.072377 149.252545 
L -35.159126 151.1137 
L -34.260485 150.608119 
L -33.382445 151.358711 
L -34.046243 151.417962 
L -34.099447 152.032988 
L -32.088405 152.032988 
L -33.05415 153.901177 
L -32.20823 153.847959 
L -31.782631 155.833119 
L -30.005479 156.266914 
L -26.275765 154.85811 
L -24.171743 152.749439 
L -23.856381 147.598742 
L -28.964975 139.483348 
L -30.305022 134.456163 
L -28.688907 134.616826 
L -28.294946 133.100588 
L -29.339289 132.595513 
L -14.379657 127.764156 
L -13.4774 126.303406 
L -12.08826 126.662094 
L -13.561406 125.087161 
L -9.242323 126.713806 
L -8.638443 125.891427 
L -9.491065 123.54326 
L -14.152494 124.587059 
L -14.107924 122.548163 
L -15.215047 121.513915 
L -14.082046 118.381521 
L -11.866833 117.309109 
L -9.718252 119.575938 
L -8.679656 124.300873 
L -7.224579 126.330724 
L -3.064473 125.488258 
L 1.732116 126.514486 
L 7.148876 129.631308 
L 8.619771 133.021768 
L 7.463283 133.100588 
L 9.086112 133.521821 
L 7.98953 134.20513 
L 8.517686 136.323352 
L 10.373438 138.422991 
L 13.484889 138.861289 
L 23.532418 136.899214 
L 32.207297 136.394139 
L 34.908486 137.327987 
L 34.017041 138.185013 
L 36.363563 140.958917 
L 46.246214 143.854838 
L 49.866657 143.325666 
L 50.568324 141.632688 
L 53.497171 141.373623 
L 54.57698 140.729983 
L 53.556123 140.334353 
L 56.793147 138.547995 
L 63.077393 138.339137 
L 58.638828 137.16029 
L 56.259232 138.086105 
L 55.825011 136.141096 
L 60.013869 136.654709 
L 61.226918 135.63602 
L 64.275106 136.678313 
L 68.889091 135.375944 
L 80.754975 135.9724 
L 84.387879 135.298629 
L 83.013321 136.394139 
L 79.59513 136.638138 
L 78.62604 137.898828 
L 74.769789 137.444465 
L 71.695723 137.891301 
L 70.665278 138.844718 
L 72.476942 137.882257 
L 72.781762 139.421592 
L 70.84932 139.408538 
L 70.745797 141.043265 
L 71.597948 140.916743 
L 71.469985 139.44168 
L 73.56681 139.56318 
L 75.191076 142.827105 
L 74.837363 143.427078 
L 73.413923 143.373861 
L 72.880491 143.922109 
L 71.952615 143.164497 
L 70.584759 143.164497 
L 73.135464 144.490458 
L 73.325253 143.580202 
L 74.129477 143.843795 
L 75.285965 143.3106 
L 75.740327 141.671851 
L 78.817267 148.065666 
L 79.541454 144.757555 
L 79.956499 145.201381 
L 80.030787 148.908626 
L 80.754021 147.820149 
L 80.272344 145.270157 
L 82.249357 145.99063 
L 79.963213 145.035696 
L 80.257079 144.198276 
L 84.556585 147.008307 
L 84.387879 148.746964 
L 85.161431 147.41197 
L 85.594698 149.42124 
L 85.739434 148.216285 
L 84.595207 146.573736 
L 87.370885 147.131325 
L 86.850079 145.69012 
L 89.376249 147.695293 
L 88.424144 146.420624 
L 89.177154 146.681663 
L 91.923043 149.655702 
L 93.7232 149.607506 
L 95.971958 151.151864 
L 96.877785 152.911101 
L 93.343609 155.515816 
L 93.030167 156.267913 
L 94.831277 154.527752 
L 93.175869 157.269032 
L 91.882784 161.603864 
L 86.587274 161.511483 
L 87.297562 162.264593 
L 91.004272 164.217623 
L 92.217792 163.030744 
L 94.036642 162.937858 
L 93.431324 163.363113 
L 93.50321 164.142319 
L 94.63766 162.011549 
L 97.972446 161.657587 
L 100.487686 162.549766 
L 101.748179 161.278527 
L 105.881453 162.233462 
L 108.139376 166.094325 
L 101.714457 171.295104 
L 99.935902 171.421355 
L 97.523397 174.974193 
L 99.040536 177.383769 
L 98.726764 179.098982 
L 99.673862 179.908763 
L 101.746719 179.331703 
L 102.552921 180.789319 
L 101.684021 182.215681 
L 97.879477 184.331312 
L 95.438668 183.737052 
L 95.129466 184.76745 
L 92.820742 184.963525 
L 91.853243 186.868743 
L 92.918128 191.493104 
L 89.677217 194.467624 
L 98.304028 204.034206 
L 98.912714 207.361639 
L 95.577149 209.731374 
L 94.617565 211.872829 
L 90.632844 212.047855 
L 90.898229 212.945315 
L 88.438561 213.515354 
L 87.668272 215.407184 
L 80.762195 217.359584 
L 77.528893 216.213461 
L 75.96398 218.007407 
L 73.803773 218.053961 
L 73.742301 222.664293 
L 72.09522 223.89268 
L 66.649967 218.982972 
L 64.777678 220.268425 
L 62.882244 219.13696 
L 58.570358 219.92347 
L 57.286048 217.109638 
L 52.068454 217.006979 
L 49.68973 214.964345 
L 49.437431 215.875514 
L 51.441511 218.807305 
L 56.623192 223.474395 
L 56.388243 229.282514 
L 59.042695 234.329935 
L 58.448932 237.335696 
L 66.259811 237.961839 
L 66.403452 239.858777 
L 65.942682 241.308089 
L 58.582538 244.048592 
L 57.919069 247.807709 
L 54.856805 250.976059 
L 54.196387 249.228013 
L 50.405236 252.435254 
L 49.128229 252.148328 
L 45.62436 253.924112 
L 44.843729 256.429968 
L 43.381384 256.597035 
L 40.843495 259.817035 
L 40.317283 258.70884 
L 41.128044 256.89034 
L 40.214726 255.692245 
L 38.455029 255.808921 
L 33.873813 258.807674 
L 32.098898 258.625949 
L 25.149605 252.744513 
L 21.118935 239.86834 
L 21.443366 238.285115 
L 16.898357 234.623881 
L 16.297587 233.114627 
L 13.596268 233.406661 
L 13.80018 232.217488 
L 20.033048 226.07526 
L 17.790673 221.954296 
L 16.236714 221.411995 
L 13.37106 211.901529 
L 14.336427 205.353455 
L 13.847648 201.948226 
L 16.410191 199.45224 
L 16.31463 196.455091 
L 18.701871 194.06464 
L 17.892323 192.383544 
L 18.378052 191.353787 
L 13.934693 189.929017 
L 12.158564 191.108295 
L 4.416167 192.119568 
L -0.599353 191.108295 
L -2.778111 192.800866 
L -3.782736 191.866747 
L -5.104797 192.287906 
L -13.179836 181.796126 
L -15.416121 182.218865 
L -19.941954 180.224376 
L -25.604499 181.919181 
L -30.744189 180.814182 
L -35.142507 181.298775 
L -36.372647 180.386977 
L -37.644177 176.745509 
L -40.853745 175.479823 
L -41.001049 169.88978 
L -39.170138 167.836633 
L -39.850638 164.73363 
L -43.170984 161.079737 
L -44.532598 155.373957 
L -46.467597 155.496703 
L -47.108532 153.13526 
L -49.493947 154.639738 
z
" clip-path="url(#pcdda3d3eb9)" style="fill: #eeeeee; stroke: #000000; stroke-width: 0.3"/>
    <path d="M 54.2017 132.503626 
L 54.648865 131.331307 
L 56.421707 130.972829 
L 58.436093 132.216947 
L 59.290164 130.642471 
L 60.818092 130.431601 
L 61.514965 132.425805 
L 60.214683 133.521821 
L 58.310533 133.859213 
L 56.942677 132.503626 
z
" clip-path="url(#pcdda3d3eb9)" style="fill: #eeeeee; stroke: #000000; stroke-width: 0.3"/>
    <path d="M 93.343609 158.128575 
L 93.53341 157.041097 
L 96.092737 155.593636 
L 95.81476 156.241298 
L 95.02155 156.461212 
z
" clip-path="url(#pcdda3d3eb9)" style="fill: #eeeeee; stroke: #000000; stroke-width: 0.3"/>
    <path d="M 92.348594 161.773176 
L 92.860672 159.784611 
L 97.502348 158.110585 
L 98.047959 159.383144 
L 96.157095 161.25 
z
" clip-path="url(#pcdda3d3eb9)" style="fill: #eeeeee; stroke: #000000; stroke-width: 0.3"/>
    <path d="M 91.16531 162.769668 
L 91.669025 162.065766 
L 92.861461 162.525163 
L 94.155983 161.590822 
L 93.860268 162.720461 
z
" clip-path="url(#pcdda3d3eb9)" style="fill: #eeeeee; stroke: #000000; stroke-width: 0.3"/>
    <path d="M 93.270758 158.971042 
L 95.288996 156.428576 
L 96.253775 156.772988 
L 95.940321 157.504998 
z
" clip-path="url(#pcdda3d3eb9)" style="fill: #eeeeee; stroke: #000000; stroke-width: 0.3"/>
    <path d="M 51.372064 121.857821 
L 51.862363 121.008334 
L 52.455701 121.523946 
L 52.384287 122.026517 
z
" clip-path="url(#pcdda3d3eb9)" style="fill: #eeeeee; stroke: #000000; stroke-width: 0.3"/>
    <path d="M 15.728866 119.891231 
L 16.033674 119.961525 
L 16.16788 120.00972 
L 15.834779 119.985623 
z
" clip-path="url(#pcdda3d3eb9)" style="fill: #eeeeee; stroke: #000000; stroke-width: 0.3"/>
    <path d="M 96.609891 161.309559 
L 98.165593 159.705161 
L 98.85322 161.26224 
z
" clip-path="url(#pcdda3d3eb9)" style="fill: #eeeeee; stroke: #000000; stroke-width: 0.3"/>
    <path d="M 96.173256 155.341099 
L 96.364482 154.463985 
L 97.547814 154.399219 
z
" clip-path="url(#pcdda3d3eb9)" style="fill: #eeeeee; stroke: #000000; stroke-width: 0.3"/>
    <path d="M 94.805883 155.923501 
L 96.077401 154.385671 
L 95.648929 155.563517 
z
" clip-path="url(#pcdda3d3eb9)" style="fill: #eeeeee; stroke: #000000; stroke-width: 0.3"/>
    <path d="M 87.988122 162.142143 
L 90.644363 162.069307 
L 91.244074 163.491054 
z
" clip-path="url(#pcdda3d3eb9)" style="fill: #eeeeee; stroke: #000000; stroke-width: 0.3"/>
    <path d="M 79.061215 144.642077 
L 79.198295 144.140012 
L 79.799301 144.27005 
z
" clip-path="url(#pcdda3d3eb9)" style="fill: #eeeeee; stroke: #000000; stroke-width: 0.3"/>
    <path d="M 78.456369 146.016727 
L 78.844582 145.852054 
L 78.734357 146.363656 
z
" clip-path="url(#pcdda3d3eb9)" style="fill: #eeeeee; stroke: #000000; stroke-width: 0.3"/>
    <path d="M 77.433604 143.866388 
L 77.543357 143.833752 
L 77.754714 144.779642 
z
" clip-path="url(#pcdda3d3eb9)" style="fill: #eeeeee; stroke: #000000; stroke-width: 0.3"/>
    <path d="M 73.37079 138.359224 
L 73.770499 138.761875 
L 74.799506 140.61601 
z
" clip-path="url(#pcdda3d3eb9)" style="fill: #eeeeee; stroke: #000000; stroke-width: 0.3"/>
    <path d="M 63.211599 74.102831 
L 63.317996 74.102831 
L 63.307454 74.183662 
z
" clip-path="url(#pcdda3d3eb9)" style="fill: #eeeeee; stroke: #000000; stroke-width: 0.3"/>
    <path d="M 58.960904 134.869869 
L 60.149029 134.850288 
L 60.083846 135.365407 
z
" clip-path="url(#pcdda3d3eb9)" style="fill: #eeeeee; stroke: #000000; stroke-width: 0.3"/>
    <path d="M 56.411636 134.490304 
L 56.617727 134.23325 
L 56.955139 134.579674 
z
" clip-path="url(#pcdda3d3eb9)" style="fill: #eeeeee; stroke: #000000; stroke-width: 0.3"/>
    <path d="M 42.38518 133.0308 
L 44.821338 133.282338 
L 44.354043 133.521821 
z
" clip-path="url(#pcdda3d3eb9)" style="fill: #eeeeee; stroke: #000000; stroke-width: 0.3"/>
    <path d="M 33.167764 122.012969 
L 33.341735 121.94518 
L 34.11385 122.478881 
z
" clip-path="url(#pcdda3d3eb9)" style="fill: #eeeeee; stroke: #000000; stroke-width: 0.3"/>
    <path d="M 27.158609 122.439718 
L 28.211574 121.934642 
L 27.896695 122.706815 
z
" clip-path="url(#pcdda3d3eb9)" style="fill: #eeeeee; stroke: #000000; stroke-width: 0.3"/>
    <path d="M 25.823356 121.354251 
L 25.859293 121.327649 
L 27.072825 121.393415 
z
" clip-path="url(#pcdda3d3eb9)" style="fill: #eeeeee; stroke: #000000; stroke-width: 0.3"/>
    <path d="M 25.390561 122.831326 
L 26.881586 122.452772 
L 25.706406 122.894586 
z
" clip-path="url(#pcdda3d3eb9)" style="fill: #eeeeee; stroke: #000000; stroke-width: 0.3"/>
    <path d="M 15.703942 119.191857 
L 15.731257 119.166254 
L 15.714484 119.215449 
z
" clip-path="url(#pcdda3d3eb9)" style="fill: #eeeeee; stroke: #000000; stroke-width: 0.3"/>
    <path d="M 15.696745 119.420297 
L 15.701068 119.393189 
L 15.70777 119.43134 
z
" clip-path="url(#pcdda3d3eb9)" style="fill: #eeeeee; stroke: #000000; stroke-width: 0.3"/>
    <path d="M 15.650255 119.445394 
L 15.679489 119.416275 
L 15.663682 119.454439 
z
" clip-path="url(#pcdda3d3eb9)" style="fill: #eeeeee; stroke: #000000; stroke-width: 0.3"/>
    <path d="M 15.616226 118.980482 
L 15.652175 118.977471 
L 15.656486 119.000569 
z
" clip-path="url(#pcdda3d3eb9)" style="fill: #eeeeee; stroke: #000000; stroke-width: 0.3"/>
    <path d="M 15.564471 118.912211 
L 15.585083 118.930275 
L 15.582198 118.954373 
z
" clip-path="url(#pcdda3d3eb9)" style="fill: #eeeeee; stroke: #000000; stroke-width: 0.3"/>
    <path d="M 91.059385 104.760974 
L 92.145907 102.730617 
L 92.890224 103.621291 
L 92.37883 105.622516 
z
" clip-path="url(#pcdda3d3eb9)" style="fill: #eeeeee; stroke: #000000; stroke-width: 0.3"/>
    <path d="M 92.140159 109.196725 
L 92.192398 108.862357 
L 92.289206 108.883444 
z
" clip-path="url(#pcdda3d3eb9)" style="fill: #eeeeee; stroke: #000000; stroke-width: 0.3"/>
    <path d="M 91.084791 107.56702 
L 91.976719 106.793342 
L 91.494571 107.735716 
z
" clip-path="url(#pcdda3d3eb9)" style="fill: #eeeeee; stroke: #000000; stroke-width: 0.3"/>
    <path d="M 90.190944 111.169842 
L 90.399909 110.790783 
L 90.482336 111.133196 
z
" clip-path="url(#pcdda3d3eb9)" style="fill: #eeeeee; stroke: #000000; stroke-width: 0.3"/>
    <path d="M 88.979815 112.531956 
L 88.984126 112.272892 
L 89.324894 112.460663 
z
" clip-path="url(#pcdda3d3eb9)" style="fill: #eeeeee; stroke: #000000; stroke-width: 0.3"/>
    <path d="M 110.308511 103.430497 
L 112.878862 105.4458 
L 111.913601 106.717533 
L 110.586016 106.265169 
z
" clip-path="url(#pcdda3d3eb9)" style="fill: #eeeeee; stroke: #000000; stroke-width: 0.3"/>
    <path d="M 93.425094 96.569264 
L 95.133706 93.705485 
L 95.619694 97.14414 
L 94.879205 98.606654 
z
" clip-path="url(#pcdda3d3eb9)" style="fill: #eeeeee; stroke: #000000; stroke-width: 0.3"/>
    <path d="M 88.591119 76.137198 
L 88.825962 74.926209 
L 90.725813 75.599993 
L 91.31484 76.915898 
L 91.326819 79.226407 
L 90.075913 80.25715 
z
" clip-path="url(#pcdda3d3eb9)" style="fill: #eeeeee; stroke: #000000; stroke-width: 0.3"/>
    <path d="M 79.993413 61.910657 
L 80.191825 60.299029 
L 80.513901 60.375344 
z
" clip-path="url(#pcdda3d3eb9)" style="fill: #eeeeee; stroke: #000000; stroke-width: 0.3"/>
    <path d="M 84.057182 49.541768 
L 84.556585 50.49569 
L 84.481814 49.090909 
L 85.777773 50.808984 
L 84.468398 50.748734 
z
" clip-path="url(#pcdda3d3eb9)" style="fill: #eeeeee; stroke: #000000; stroke-width: 0.3"/>
    <path d="M 83.942151 57.464862 
L 84.629436 55.987282 
L 86.486625 57.089826 
L 85.667549 58.2024 
z
" clip-path="url(#pcdda3d3eb9)" style="fill: #eeeeee; stroke: #000000; stroke-width: 0.3"/>
    <path d="M 78.469266 58.888275 
L 78.530527 58.870927 
L 78.483342 58.909091 
z
" clip-path="url(#pcdda3d3eb9)" style="fill: #eeeeee; stroke: #000000; stroke-width: 0.3"/>
    <path d="M 75.360736 56.784564 
L 75.51314 55.565556 
L 76.134288 55.802028 
L 76.121343 56.778543 
z
" clip-path="url(#pcdda3d3eb9)" style="fill: #eeeeee; stroke: #000000; stroke-width: 0.3"/>
    <path d="M 72.522467 53.199313 
L 74.091137 53.645655 
L 74.950002 55.389827 
z
" clip-path="url(#pcdda3d3eb9)" style="fill: #eeeeee; stroke: #000000; stroke-width: 0.3"/>
    <path d="M 49.575913 41.680675 
L 50.215847 41.121273 
L 51.235467 41.576166 
L 50.721741 41.988441 
z
" clip-path="url(#pcdda3d3eb9)" style="fill: #eeeeee; stroke: #000000; stroke-width: 0.3"/>
    <path d="M 48.470049 49.645191 
L 48.690522 48.496464 
L 52.42503 48.795692 
L 51.116126 49.219936 
z
" clip-path="url(#pcdda3d3eb9)" style="fill: #eeeeee; stroke: #000000; stroke-width: 0.3"/>
    <path d="M 46.746584 41.367209 
L 47.823919 40.960757 
L 48.66243 41.974486 
z
" clip-path="url(#pcdda3d3eb9)" style="fill: #eeeeee; stroke: #000000; stroke-width: 0.3"/>
    <path d="M 72.36958 46.605177 
L 73.246654 46.773873 
L 73.029067 47.060059 
z
" clip-path="url(#pcdda3d3eb9)" style="fill: #eeeeee; stroke: #000000; stroke-width: 0.3"/>
    <path d="M 20.487834 41.266426 
L 22.479924 39.280538 
L 30.952551 39.667136 
L 39.915949 40.93033 
L 40.126504 43.074747 
L 38.548104 43.476806 
L 36.173773 46.094587 
L 33.051297 46.681999 
L 26.339532 45.703978 
L 21.508455 46.532046 
L 21.889306 43.221307 
z
" clip-path="url(#pcdda3d3eb9)" style="fill: #eeeeee; stroke: #000000; stroke-width: 0.3"/>
    <path d="M 12.631784 44.568305 
L 12.844577 44.318273 
L 13.597045 44.315768 
L 13.393357 45.07137 
z
" clip-path="url(#pcdda3d3eb9)" style="fill: #eeeeee; stroke: #000000; stroke-width: 0.3"/>
    <path d="M 43.300594 41.527786 
L 44.212169 41.734139 
L 43.788973 42.02985 
z
" clip-path="url(#pcdda3d3eb9)" style="fill: #eeeeee; stroke: #000000; stroke-width: 0.3"/>
    <path d="M 40.398579 44.223881 
L 43.987397 44.038627 
L 41.531592 44.653147 
z
" clip-path="url(#pcdda3d3eb9)" style="fill: #eeeeee; stroke: #000000; stroke-width: 0.3"/>
    <path d="M 71.302669 42.345587 
L 71.409077 42.063202 
L 71.668007 42.156088 
z
" clip-path="url(#pcdda3d3eb9)" style="fill: #eeeeee; stroke: #000000; stroke-width: 0.3"/>
    <path d="M 68.815757 43.641491 
L 70.342731 42.427492 
L 70.786056 42.925546 
z
" clip-path="url(#pcdda3d3eb9)" style="fill: #eeeeee; stroke: #000000; stroke-width: 0.3"/>
    <path d="M 68.742011 42.497255 
L 68.801034 42.456833 
L 68.810103 42.499637 
z
" clip-path="url(#pcdda3d3eb9)" style="fill: #eeeeee; stroke: #000000; stroke-width: 0.3"/>
    <path d="M 68.528629 42.41403 
L 68.553599 42.409267 
L 68.678442 42.442557 
z
" clip-path="url(#pcdda3d3eb9)" style="fill: #eeeeee; stroke: #000000; stroke-width: 0.3"/>
    <path d="M 67.699199 42.251035 
L 68.012464 42.23914 
L 67.824053 42.3628 
z
" clip-path="url(#pcdda3d3eb9)" style="fill: #eeeeee; stroke: #000000; stroke-width: 0.3"/>
    <path d="M 65.741691 38.312055 
L 65.803517 38.327121 
L 65.75175 38.415985 
z
" clip-path="url(#pcdda3d3eb9)" style="fill: #eeeeee; stroke: #000000; stroke-width: 0.3"/>
    <path d="M 54.2017 36.542281 
L 55.241249 36.523193 
L 55.825011 37.085507 
L 54.531926 36.771214 
z
" clip-path="url(#pcdda3d3eb9)" style="fill: #eeeeee; stroke: #000000; stroke-width: 0.3"/>
    <path d="M 53.79192 40.264086 
L 54.121181 39.414093 
L 55.173675 39.414093 
L 54.206011 40.095896 
z
" clip-path="url(#pcdda3d3eb9)" style="fill: #eeeeee; stroke: #000000; stroke-width: 0.3"/>
    <path d="M 52.659873 39.773064 
L 52.781134 39.852896 
L 52.694384 40.025614 
z
" clip-path="url(#pcdda3d3eb9)" style="fill: #eeeeee; stroke: #000000; stroke-width: 0.3"/>
    <path d="M 51.911244 41.343025 
L 52.201683 41.281775 
L 52.289398 41.601596 
z
" clip-path="url(#pcdda3d3eb9)" style="fill: #eeeeee; stroke: #000000; stroke-width: 0.3"/>
    <path d="M 50.602505 40.965644 
L 51.455552 40.164179 
L 52.926235 40.310615 
z
" clip-path="url(#pcdda3d3eb9)" style="fill: #eeeeee; stroke: #000000; stroke-width: 0.3"/>
    <path d="M 49.897329 40.273624 
L 49.962995 40.182761 
L 50.411597 40.327853 
z
" clip-path="url(#pcdda3d3eb9)" style="fill: #eeeeee; stroke: #000000; stroke-width: 0.3"/>
   </g>
   <g id="PatchCollection_2">
    <path d="M 84.057182 49.541768 
L 84.556585 50.49569 
L 84.481814 49.090909 
L 85.777773 50.808984 
L 84.468398 50.748734 
z
" clip-path="url(#pcdda3d3eb9)" style="fill: #ff6b6b; stroke: #dd0000; stroke-width: 0.5"/>
    <path d="M 83.942151 57.464862 
L 84.629436 55.987282 
L 86.486625 57.089826 
L 85.667549 58.2024 
z
" clip-path="url(#pcdda3d3eb9)" style="fill: #ff6b6b; stroke: #dd0000; stroke-width: 0.5"/>
    <path d="M 78.469266 58.888275 
L 78.530527 58.870927 
L 78.483342 58.909091 
z
" clip-path="url(#pcdda3d3eb9)" style="fill: #ff6b6b; stroke: #dd0000; stroke-width: 0.5"/>
   </g>
  </g>
 </g>
 <defs>
  <clipPath id="pcdda3d3eb9">
   <rect x="0" y="0" width="164.955891" height="108"/>
  </clipPath>
 </defs>
</svg>
