<?xml version="1.0" encoding="utf-8" standalone="no"?>
<!DOCTYPE svg PUBLIC "-//W3C//DTD SVG 1.1//EN"
  "http://www.w3.org/Graphics/SVG/1.1/DTD/svg11.dtd">
<svg xmlns:xlink="http://www.w3.org/1999/xlink" width="116.311555pt" height="108pt" viewBox="0 0 116.311555 108" xmlns="http://www.w3.org/2000/svg" version="1.1">
 <metadata>
  <rdf:RDF xmlns:dc="http://purl.org/dc/elements/1.1/" xmlns:cc="http://creativecommons.org/ns#" xmlns:rdf="http://www.w3.org/1999/02/22-rdf-syntax-ns#">
   <cc:Work>
    <dc:type rdf:resource="http://purl.org/dc/dcmitype/StillImage"/>
    <dc:date>2025-09-05T13:56:19.594060</dc:date>
    <dc:format>image/svg+xml</dc:format>
    <dc:creator>
     <cc:Agent>
      <dc:title>Matplotlib v3.10.3, https://matplotlib.org/</dc:title>
     </cc:Agent>
    </dc:creator>
   </cc:Work>
  </rdf:RDF>
 </metadata>
 <defs>
  <style type="text/css">*{stroke-linejoin: round; stroke-linecap: butt}</style>
 </defs>
 <g id="figure_1">
  <g id="patch_1">
   <path d="M -0 108 
L 116.311555 108 
L 116.311555 0 
L -0 0 
z
" style="fill: #ffffff"/>
  </g>
  <g id="axes_1">
   <g id="PatchCollection_1">
    <path d="M -95.214005 45.791983 
L -95.181599 43.591789 
L -93.479345 42.214618 
L -88.483903 40.915811 
L -87.448006 42.214618 
L -87.095689 40.910688 
L -85.186599 41.54524 
L -84.597803 39.542227 
L -82.178512 39.160678 
L -82.100604 40.144003 
L -81.00713 39.172975 
L -81.295323 40.574212 
L -80.301472 39.800352 
L -77.541242 43.732633 
L -74.438014 41.347039 
L -74.558672 42.214618 
L -73.570684 42.815878 
L -72.203845 41.957009 
L -71.593327 43.675263 
L -72.003558 42.043051 
L -71.299619 41.347039 
L -70.436424 41.175988 
L -70.032063 42.387218 
L -66.309015 42.043051 
L -67.978526 40.735534 
L -68.396331 39.449024 
L -67.591745 37.128993 
L -68.31705 37.187886 
L -68.459761 34.835583 
L -67.934403 34.714715 
L -70.20546 32.72298 
L -70.783225 30.870527 
L -70.400579 29.751998 
L -71.211375 28.438854 
L -68.42805 29.370965 
L -65.516832 28.798893 
L -65.217957 29.697712 
L -65.882933 30.528412 
L -64.329252 33.204906 
L -62.783492 32.615427 
L -56.675626 34.027413 
L -51.331672 31.863078 
L -50.638077 31.34017 
L -52.640249 31.711989 
L -54.167396 30.819313 
L -52.818136 28.373303 
L -44.470229 25.230754 
L -41.93028 22.264391 
L -40.646517 22.542995 
L -41.756536 21.468518 
L -41.173264 20.300812 
L -41.640715 19.871636 
L -41.425602 14.031094 
L -33.451557 11.27791 
L -32.717457 12.869015 
L -32.901334 14.325317 
L -31.207034 15.861633 
L -28.30528 15.160474 
L -27.103949 18.33391 
L -24.246842 18.968726 
L -23.496451 21.212709 
L -20.900282 20.635778 
L -19.254137 21.712886 
L -19.862681 23.353267 
L -19.149067 24.209229 
L -19.812773 25.281138 
L -15.456637 25.161465 
L -14.018887 22.935695 
L -13.541685 23.206923 
L -14.286823 25.491233 
L -13.640629 26.057099 
L -13.735194 27.55699 
L -10.259918 28.851341 
L -8.591882 31.272882 
L -6.133188 30.637424 
L -4.317179 31.99812 
L -0.572206 31.694368 
L 2.062926 35.553357 
L 3.762478 34.951707 
L 4.848225 36.198582 
L 6.812214 36.231106 
L 7.965389 35.426522 
L 9.867202 37.077313 
L 14.656765 38.07442 
L 11.352234 42.39847 
L 10.847879 45.842807 
L 9.44954 48.50664 
L 9.749873 50.498903 
L 8.824357 53.823241 
L 9.452607 55.367649 
L 7.694827 57.30564 
L 4.261573 56.570006 
L 3.357949 58.268273 
L 4.797444 58.578531 
L 1.653144 62.458011 
L -0.234224 63.428775 
L -0.348054 65.736496 
L -2.981 67.96876 
L -3.52475 70.033547 
L -2.840026 70.650478 
L -3.187641 72.127599 
L -4.367088 72.796247 
L -4.332937 73.670421 
L -2.79537 73.421963 
L -1.601919 72.290859 
L -2.170187 71.341883 
L -1.704371 70.592265 
L 0.107257 69.666385 
L 2.683729 70.099564 
L 2.372892 70.963669 
L 3.027845 71.920764 
L 2.502479 73.404392 
L 4.674862 76.253272 
L 2.800186 77.496887 
L 2.759029 78.860188 
L 5.849048 82.726993 
L 4.957683 85.209679 
L 1.122085 86.597033 
L 2.330862 89.059556 
L 4.547892 90.138627 
L 4.955049 91.865503 
L 4.147743 91.886976 
L 3.096138 93.76411 
L 3.791376 94.994069 
L 3.353569 95.801899 
L 4.342124 97.442935 
L 7.292043 98.909005 
L 10.042326 98.269633 
L 10.333026 99.638132 
L 8.536284 102.178377 
L 8.523923 103.448109 
L 5.772317 104.830919 
L 5.664672 106.099027 
L 4.166576 106.274144 
L 3.58998 107.689868 
L 2.210043 107.938843 
L 1.02181 109.687733 
L 1.890038 109.636442 
L 1.775048 110.535375 
L -0.804085 111.928858 
L -2.347455 111.703156 
L -2.458659 112.620099 
L -4.484679 111.385395 
L -5.199073 112.507991 
L -6.746789 110.80805 
L -9.516618 110.354808 
L -9.963999 108.598064 
L -12.168 108.849745 
L -12.234827 107.920189 
L -10.538774 107.027009 
L -12.209318 106.041633 
L -12.023171 107.669239 
L -13.573056 107.767577 
L -13.678084 108.770412 
L -14.507959 107.756312 
L -14.638267 106.470809 
L -15.043661 105.783507 
L -14.637572 107.753745 
L -13.978832 108.712803 
L -21.326652 106.276196 
L -28.434232 111.734169 
L -29.045775 117.741155 
L -27.867065 120.227895 
L -29.961921 119.740279 
L -32.262138 121.391711 
L -35.522021 120.263867 
L -37.908924 121.270087 
L -40.310712 119.444658 
L -40.227525 117.982817 
L -42.707247 118.164932 
L -43.44188 116.739202 
L -47.929357 115.191508 
L -49.255903 115.10597 
L -49.3636 117.043596 
L -55.146099 117.035137 
L -57.550953 115.054592 
L -59.637083 115.933964 
L -61.252144 113.745602 
L -64.558428 113.000213 
L -65.711604 111.698046 
L -67.161164 112.504907 
L -66.706725 110.009533 
L -68.556884 109.963353 
L -70.035783 108.360052 
L -68.888258 108.041574 
L -67.328367 105.771223 
L -65.467534 93.486828 
L -64.868402 92.109657 
L -63.667377 92.059978 
L -64.747405 90.689981 
L -65.494076 92.588525 
L -64.010722 80.736894 
L -61.307373 83.794925 
L -60.881976 86.20612 
L -59.345875 89.221142 
L -59.867106 87.588929 
L -58.999429 87.924387 
L -60.373851 86.651696 
L -61.555577 81.893838 
L -65.383424 78.963838 
L -64.676045 77.745434 
L -63.179584 78.870106 
L -64.573661 76.97209 
L -63.700807 74.824143 
L -65.074204 73.115606 
L -64.22652 71.502852 
L -65.322408 71.73486 
L -70.026895 69.08807 
L -70.996948 66.605182 
L -72.766437 64.991912 
L -71.68158 62.280604 
L -73.803029 60.932621 
L -73.159767 60.613048 
L -73.120473 59.312693 
L -69.447749 60.073236 
L -71.846013 58.701703 
L -74.118797 59.6246 
L -76.351942 58.948564 
L -75.455646 58.86149 
L -76.473972 57.902243 
L -75.079896 57.393683 
L -75.951707 56.543511 
L -74.843417 56.35504 
L -77.114473 56.182956 
L -76.838006 56.066191 
L -76.647022 55.75378 
L -78.68298 56.442617 
L -79.463438 55.697442 
L -78.041785 55.786555 
L -77.594336 55.118712 
L -77.555034 54.884665 
L -77.74601 54.63627 
L -79.549624 55.230368 
L -80.017761 54.370983 
L -79.723367 55.667738 
L -81.276701 55.189386 
L -81.348061 56.706885 
L -81.931689 54.675703 
L -81.232232 53.511081 
L -81.868945 53.33132 
L -82.131628 54.464186 
L -83.267504 53.948968 
L -82.626656 54.026816 
L -83.267504 53.776884 
L -82.626656 52.816089 
L -84.014523 53.857803 
L -89.824208 51.097319 
L -90.273386 52.488323 
L -91.854304 52.56617 
L -92.386558 50.445876 
L -94.873074 49.62848 
L -91.122103 48.687156 
L -91.917387 47.21473 
L -93.427293 47.909206 
L -94.010565 46.526396 
L -93.335939 45.774047 
L -93.071875 46.415773 
L -90.986279 46.509492 
L -90.292685 46.268787 
L -92.548237 45.917962 
L -91.160362 44.707248 
z
M -38.316953 119.97931 
L -37.876527 120.07167 
L -38.2399 119.594904 
z
" clip-path="url(#p4168ec136a)" style="fill: #eeeeee; stroke: #000000; stroke-width: 0.3"/>
    <path d="M 17.611614 120.912377 
L 18.547203 120.248121 
L 18.96777 118.369048 
L 22.430202 116.445419 
L 23.907016 117.166012 
L 24.368944 113.025286 
L 25.363142 113.197369 
L 25.183883 117.596221 
L 25.90574 118.565713 
L 26.172557 123.814208 
L 24.847426 126.251017 
L 24.834328 129.353604 
L 23.907016 130.361007 
L 24.402044 130.929995 
L 23.21687 132.603706 
L 23.322355 133.55681 
L 19.667566 131.181462 
L 20.77689 129.502125 
L 18.509968 128.80663 
L 19.783395 126.83025 
L 18.163861 126.907582 
L 17.926696 126.049229 
L 19.271127 124.946571 
L 17.752952 123.033691 
L 18.786443 122.223481 
z
" clip-path="url(#p4168ec136a)" style="fill: #eeeeee; stroke: #000000; stroke-width: 0.3"/>
    <path d="M -67.997139 72.143558 
L -65.898445 72.70794 
L -65.672302 73.346594 
L -67.560373 72.698726 
z
" clip-path="url(#p4168ec136a)" style="fill: #eeeeee; stroke: #000000; stroke-width: 0.3"/>
    <path d="M 25.299712 117.510179 
L 25.516197 117.85383 
L 25.47138 117.866631 
z
" clip-path="url(#p4168ec136a)" style="fill: #eeeeee; stroke: #000000; stroke-width: 0.3"/>
    <path d="M -2.576276 113.0765 
L -2.500434 112.959219 
L -1.847514 113.039106 
z
" clip-path="url(#p4168ec136a)" style="fill: #eeeeee; stroke: #000000; stroke-width: 0.3"/>
    <path d="M -66.718891 74.64335 
L -65.386177 75.290198 
L -65.060759 77.651714 
z
" clip-path="url(#p4168ec136a)" style="fill: #eeeeee; stroke: #000000; stroke-width: 0.3"/>
    <path d="M -74.264965 62.308256 
L -73.454855 62.419396 
L -72.968104 63.860582 
z
" clip-path="url(#p4168ec136a)" style="fill: #eeeeee; stroke: #000000; stroke-width: 0.3"/>
    <path d="M -75.004402 66.216975 
L -74.286679 66.248215 
L -74.038822 66.534509 
z
" clip-path="url(#p4168ec136a)" style="fill: #eeeeee; stroke: #000000; stroke-width: 0.3"/>
    <path d="M -82.452565 57.902243 
L -80.799947 58.925518 
L -82.125418 58.796958 
z
" clip-path="url(#p4168ec136a)" style="fill: #eeeeee; stroke: #000000; stroke-width: 0.3"/>
    <path d="M 47.492866 20.999366 
L 48.112796 21.042941 
L 49.392933 22.942203 
L 51.170411 20.073159 
L 54.918002 19.879326 
L 55.401338 18.765151 
L 59.114787 17.448685 
L 60.035042 16.071073 
L 66.727739 13.887582 
L 67.027199 13.375699 
L 65.810984 12.60038 
L 66.227772 11.916137 
L 67.876535 11.91158 
L 68.657577 12.688196 
L 68.454435 13.486272 
L 69.122521 13.37765 
L 68.986799 14.323367 
L 72.111842 14.153612 
L 71.933218 12.472249 
L 73.487416 12.234199 
L 74.549526 12.975686 
L 75.28066 15.205999 
L 78.975716 15.618373 
L 80.494018 16.424907 
L 80.58333 17.368672 
L 83.545507 16.860037 
L 84.344053 17.82267 
L 82.426483 19.852668 
L 83.647951 20.309912 
L 86.33256 23.795559 
L 89.333259 22.216323 
L 88.30092 19.517047 
L 92.801537 21.938588 
L 95.205951 21.051399 
L 95.541307 22.228683 
L 94.201629 22.91163 
L 94.568509 23.627755 
L 96.318842 25.298054 
L 97.954473 24.930565 
L 97.70055 24.3777 
L 100.157499 26.126691 
L 102.41744 26.134507 
L 102.913035 28.567753 
L 104.359529 29.137534 
L 104.738668 31.13044 
L 102.217797 31.490126 
L 99.040228 34.296728 
L 98.319599 36.958936 
L 95.368808 39.278362 
L 90.626528 39.318035 
L 88.742227 42.535059 
L 88.131929 41.089808 
L 85.137355 39.999686 
L 83.771413 40.985742 
L 81.458937 40.789303 
L 79.198124 39.159986 
L 72.297472 37.42985 
L 71.751968 40.538239 
L 70.572521 40.365879 
L 69.515673 42.886615 
L 67.673393 42.043982 
L 66.46681 43.117188 
L 64.137695 42.572781 
L 60.476349 38.230519 
L 58.939662 38.056862 
L 55.31816 33.840779 
L 52.299941 32.147069 
L 50.097795 28.202869 
L 51.287739 26.162474 
L 48.939367 24.400456 
L 47.521764 21.911275 
z
" clip-path="url(#p4168ec136a)" style="fill: #eeeeee; stroke: #000000; stroke-width: 0.3"/>
    <path d="M -5.18578 12.136301 
L -2.73671 10.463396 
L -3.504613 9.715087 
L -2.223603 7.500368 
L -2.346184 5.968936 
L -4.564977 2.113522 
L -2.661402 1.781161 
L -2.908327 1.093004 
L -1.061676 2.0449 
L 2.316849 0.946987 
L 2.871113 0.050685 
L 1.775725 -0.967882 
L 4.710758 -3.109737 
L 4.896388 -4.801837 
L 4.261573 -5.888044 
L 2.071678 -6.016175 
L 1.706551 -7.024673 
L 2.259934 -8.195438 
L 4.644211 -8.085846 
L 6.121356 -12.768273 
L 6.136351 -15.877355 
L 6.645857 -16.815092 
L 7.593163 -16.604607 
L 4.687808 -17.531078 
L 4.9236 -19.245242 
L 5.688894 -19.554582 
L 5.222823 -20.179907 
L 6.403168 -21.182188 
L 13.225996 -21.7056 
L 14.382899 -19.75637 
L 13.61209 -18.692629 
L 14.699362 -17.962822 
L 15.629436 -18.770993 
L 14.918609 -19.404009 
L 15.252991 -20.50717 
L 17.637123 -19.635501 
L 17.111071 -18.915424 
L 17.233101 -17.300102 
L 17.752952 -19.674418 
L 17.077979 -21.609325 
L 17.937727 -23.749078 
L 23.21687 -23.768537 
L 26.365601 -20.235741 
L 28.480848 -19.635501 
L 26.376631 -20.50206 
L 24.779862 -23.252803 
L 23.616062 -23.939588 
L 21.30157 -24.084019 
L 20.720356 -24.592076 
L 20.019874 -25.838636 
L 21.408436 -25.760285 
L 21.587 -26.61198 
L 19.84613 -27.651642 
L 21.119549 -29.377587 
L 18.70784 -28.768133 
L 18.041831 -29.635196 
L 21.52978 -31.752935 
L 18.794712 -34.634792 
L 18.557877 -36.661404 
L 23.499513 -35.471483 
L 26.34492 -36.283392 
L 28.410522 -34.904698 
L 29.459179 -35.191495 
L 30.058319 -34.206119 
L 29.306123 -33.861964 
L 30.234816 -33.772839 
L 30.131398 -32.42794 
L 28.549107 -31.36216 
L 31.1187 -31.570606 
L 31.63096 -31.182399 
L 31.104908 -29.463112 
L 32.601021 -30.959617 
L 36.099307 -29.284371 
L 39.523827 -30.236972 
L 38.93986 -29.893321 
L 38.93986 -27.694663 
L 36.279947 -26.01072 
L 37.54647 -24.893725 
L 39.858895 -25.606641 
L 42.253371 -24.198746 
L 44.219004 -27.333605 
L 47.594564 -27.822706 
L 47.624216 -26.814799 
L 47.822088 -26.61198 
L 47.770375 -27.683398 
L 51.370706 -31.525534 
L 54.651811 -30.83618 
L 52.135999 -30.703027 
L 51.312791 -30.065404 
L 50.562663 -30.257463 
L 49.972494 -28.768133 
L 52.615853 -30.551435 
L 54.088533 -29.884108 
L 55.394357 -30.89355 
L 56.293398 -28.904357 
L 59.416628 -26.529022 
L 61.351236 -27.5656 
L 62.166166 -26.697518 
L 61.6408 -25.838636 
L 62.995575 -24.663265 
L 62.254419 -23.844333 
L 62.242008 -23.528851 
L 66.03262 -22.253606 
L 65.594126 -21.7056 
L 67.5333 -15.963183 
L 66.700595 -13.40538 
L 65.015928 -12.288914 
L 64.841685 -10.913581 
L 69.254735 -7.468262 
L 68.412406 -5.016802 
L 69.827383 -3.176081 
L 69.60673 -1.730187 
L 70.242418 -1.171784 
L 68.754768 2.261502 
L 69.997255 4.093426 
L 69.807245 5.705839 
L 71.885936 6.899373 
L 72.450697 9.39963 
L 71.885055 11.573681 
L 70.224034 14.768918 
L 68.986799 14.323367 
L 69.122521 13.37765 
L 68.454435 13.486272 
L 68.657577 12.688196 
L 67.876535 11.91158 
L 66.227772 11.916137 
L 65.810984 12.60038 
L 67.027199 13.375699 
L 66.727739 13.887582 
L 60.035042 16.071073 
L 59.114787 17.448685 
L 55.401338 18.765151 
L 54.918002 19.879326 
L 51.170411 20.073159 
L 49.392933 22.942203 
L 48.878072 21.736951 
L 47.492866 20.999366 
L 48.939367 24.400456 
L 51.287739 26.162474 
L 50.097795 28.202869 
L 52.299941 32.147069 
L 55.31816 33.840779 
L 56.832082 36.063289 
L 59.207598 38.24483 
L 60.476349 38.230519 
L 62.23063 40.492714 
L 61.390046 43.573136 
L 59.170821 42.921731 
L 58.755786 45.399547 
L 53.108127 48.711524 
L 55.245479 52.063841 
L 54.404903 53.619011 
L 55.930203 54.425545 
L 55.335672 56.860415 
L 53.446982 55.742653 
L 53.30339 54.332531 
L 51.054827 54.810266 
L 48.870193 54.180976 
L 48.899964 53.51234 
L 48.318564 55.110116 
L 43.632317 55.304276 
L 40.38382 57.767441 
L 38.201813 57.810374 
L 37.178225 56.046732 
L 33.540084 55.463295 
L 33.532205 57.741097 
L 31.25826 59.313511 
L 31.676794 58.037699 
L 30.605932 58.206485 
L 29.44575 55.91957 
L 28.057917 55.319883 
L 26.621921 56.157305 
L 22.985533 54.287647 
L 20.42964 54.467496 
L 17.688988 52.642067 
L 16.274884 54.350089 
L 18.104905 54.465545 
L 17.823837 55.269147 
L 14.93346 54.897755 
L 13.317968 55.670457 
L 9.653555 55.617782 
L 10.076469 55.217114 
L 9.452607 55.367649 
L 8.824357 53.823241 
L 9.749873 50.498903 
L 9.392625 48.698522 
L 10.847879 45.842807 
L 11.352234 42.39847 
L 14.656765 38.07442 
L 9.867202 37.077313 
L 7.965389 35.426522 
L 6.812214 36.231106 
L 4.848225 36.198582 
L 3.762478 34.951707 
L 2.162744 35.594981 
L 0.350675 32.206905 
L -1.058787 31.821593 
L 0.273622 27.538122 
L -1.420669 27.043798 
L -3.167503 24.354276 
L -2.740209 22.272258 
L -0.811252 20.995465 
L -1.129969 18.912137 
L -2.537067 18.447089 
L -1.874234 17.232737 
L -4.212982 15.125999 
L -3.444199 13.543503 
z
" clip-path="url(#p4168ec136a)" style="fill: #eeeeee; stroke: #000000; stroke-width: 0.3"/>
    <path d="M 56.298227 -29.635196 
L 57.580609 -30.236972 
L 56.649849 -30.75219 
L 57.633703 -31.448202 
L 56.534714 -32.213351 
L 57.843292 -31.920915 
L 58.44932 -32.744957 
L 58.275584 -31.97111 
L 59.615881 -31.525534 
L 59.73171 -32.564177 
L 59.05949 -32.393113 
L 58.447253 -33.084518 
L 57.465474 -32.486845 
L 57.806066 -33.464015 
L 57.276566 -33.602807 
L 58.630646 -34.041725 
L 58.916771 -32.744957 
L 61.001681 -32.50682 
L 60.195019 -31.319139 
L 61.813163 -29.721238 
L 61.446376 -28.883879 
L 60.546641 -29.377587 
L 61.173357 -29.807279 
L 59.553137 -29.721238 
L 58.366591 -28.847 
L 58.769917 -28.252399 
z
" clip-path="url(#p4168ec136a)" style="fill: #eeeeee; stroke: #000000; stroke-width: 0.3"/>
    <path d="M 61.698715 -27.307488 
L 62.224081 -27.5656 
L 65.571378 -24.605392 
L 65.493148 -23.846347 
L 62.437126 -23.49556 
L 63.212755 -24.112704 
L 62.982478 -25.322398 
L 64.20143 -24.6356 
L 64.226253 -25.443771 
L 63.334794 -26.218146 
L 61.877974 -25.666565 
L 62.224081 -26.654497 
z
" clip-path="url(#p4168ec136a)" style="fill: #eeeeee; stroke: #000000; stroke-width: 0.3"/>
    <path d="M 15.369506 -34.723904 
L 15.484649 -36.865709 
L 16.125844 -38.40677 
L 16.482287 -38.788822 
L 16.885622 -38.604454 
L 16.249942 -36.635237 
L 18.504453 -36.627559 
L 15.561871 -36.272127 
z
" clip-path="url(#p4168ec136a)" style="fill: #eeeeee; stroke: #000000; stroke-width: 0.3"/>
    <path d="M 41.558404 -25.151334 
L 41.990002 -25.668604 
L 42.593963 -25.666565 
L 42.253371 -24.893725 
z
" clip-path="url(#p4168ec136a)" style="fill: #eeeeee; stroke: #000000; stroke-width: 0.3"/>
    <path d="M 19.84613 -31.448202 
L 20.114329 -31.921431 
L 21.119549 -31.97111 
L 20.482496 -31.276118 
z
" clip-path="url(#p4168ec136a)" style="fill: #eeeeee; stroke: #000000; stroke-width: 0.3"/>
    <path d="M 55.839739 -31.276118 
L 56.18654 -32.88273 
L 56.327184 -32.760842 
z
" clip-path="url(#p4168ec136a)" style="fill: #eeeeee; stroke: #000000; stroke-width: 0.3"/>
    <path d="M 42.899387 -26.448103 
L 43.593668 -26.791237 
L 42.946957 -26.096761 
z
" clip-path="url(#p4168ec136a)" style="fill: #eeeeee; stroke: #000000; stroke-width: 0.3"/>
    <path d="M 38.424144 -31.276118 
L 39.403169 -32.125774 
L 41.037867 -30.588301 
z
" clip-path="url(#p4168ec136a)" style="fill: #eeeeee; stroke: #000000; stroke-width: 0.3"/>
    <path d="M 18.202477 -31.580335 
L 18.880898 -32.410532 
L 18.89813 -32.274296 
z
" clip-path="url(#p4168ec136a)" style="fill: #eeeeee; stroke: #000000; stroke-width: 0.3"/>
    <path d="M 16.302342 -34.377183 
L 16.660165 -34.800733 
L 17.990126 -34.463224 
z
" clip-path="url(#p4168ec136a)" style="fill: #eeeeee; stroke: #000000; stroke-width: 0.3"/>
    <path d="M 15.429496 -33.775923 
L 16.198924 -33.424581 
L 16.360256 -33.346733 
z
" clip-path="url(#p4168ec136a)" style="fill: #eeeeee; stroke: #000000; stroke-width: 0.3"/>
    <path d="M 14.238121 -21.783964 
L 14.250524 -22.096891 
L 14.620073 -21.956047 
z
" clip-path="url(#p4168ec136a)" style="fill: #eeeeee; stroke: #000000; stroke-width: 0.3"/>
    <path d="M 12.262144 -27.733593 
L 12.365562 -27.838074 
L 12.3959 -27.769956 
z
" clip-path="url(#p4168ec136a)" style="fill: #eeeeee; stroke: #000000; stroke-width: 0.3"/>
    <path d="M 11.942233 -27.820654 
L 12.066339 -27.82988 
L 12.105641 -27.622454 
z
" clip-path="url(#p4168ec136a)" style="fill: #eeeeee; stroke: #000000; stroke-width: 0.3"/>
    <path d="M 11.727129 -22.668447 
L 12.092535 -22.815936 
L 12.583428 -22.64744 
z
" clip-path="url(#p4168ec136a)" style="fill: #eeeeee; stroke: #000000; stroke-width: 0.3"/>
    <path d="M 10.302027 -22.623374 
L 11.374126 -22.650523 
L 10.826698 -22.370888 
z
" clip-path="url(#p4168ec136a)" style="fill: #eeeeee; stroke: #000000; stroke-width: 0.3"/>
    <path d="M 8.494966 -22.00521 
L 9.627054 -22.391882 
L 9.801484 -22.244896 
z
" clip-path="url(#p4168ec136a)" style="fill: #eeeeee; stroke: #000000; stroke-width: 0.3"/>
    <path d="M 7.906178 -22.066154 
L 8.177816 -21.956047 
L 8.05648 -21.870005 
z
" clip-path="url(#p4168ec136a)" style="fill: #eeeeee; stroke: #000000; stroke-width: 0.3"/>
    <path d="M 5.958473 -21.62161 
L 6.461083 -21.974487 
L 7.424934 -21.896123 
z
" clip-path="url(#p4168ec136a)" style="fill: #eeeeee; stroke: #000000; stroke-width: 0.3"/>
    <path d="M 3.418523 -21.261055 
L 4.886366 -21.530445 
L 5.211793 -21.440313 
z
" clip-path="url(#p4168ec136a)" style="fill: #eeeeee; stroke: #000000; stroke-width: 0.3"/>
    <path d="M 1.603193 -20.334068 
L 2.663575 -20.597831 
L 2.42502 -19.878258 
z
" clip-path="url(#p4168ec136a)" style="fill: #eeeeee; stroke: #000000; stroke-width: 0.3"/>
    <path d="M -6.365219 26.333538 
L -4.3093 22.881712 
L -2.988879 23.450184 
L -2.097514 26.386867 
L -1.420669 27.043798 
L -1.150988 26.977454 
L -0.620369 27.375516 
L -0.066114 27.414547 
L 0.228093 27.490646 
L 0.273622 27.538122 
L -1.058787 31.821593 
L -4.317179 31.99812 
L -5.757547 30.78441 
L -4.954622 29.452991 
z
" clip-path="url(#p4168ec136a)" style="fill: #eeeeee; stroke: #000000; stroke-width: 0.3"/>
    <path d="M 81.532483 64.453195 
L 83.064797 62.671681 
L 84.856287 62.744192 
L 84.333548 62.422882 
L 85.052423 60.994874 
L 84.232858 60.370127 
L 84.745084 59.241969 
L 84.412354 57.731015 
L 86.165314 57.025299 
L 86.574224 55.954045 
L 86.075129 54.897101 
L 84.190828 54.402122 
L 85.546264 53.233309 
L 87.49186 54.224236 
L 89.846366 53.808615 
L 89.242193 51.860253 
L 90.773627 49.884251 
L 96.203267 53.285996 
L 103.549596 52.934113 
L 104.596821 52.246925 
L 103.976018 50.503787 
L 104.783324 49.63578 
L 109.779536 49.05885 
L 111.431806 47.282207 
L 114.019215 48.502083 
L 117.371037 46.615849 
L 118.704581 43.517856 
L 121.404075 42.974746 
L 124.022137 43.983231 
L 126.692741 43.07491 
L 129.526195 45.938428 
L 133.870952 45.061321 
L 134.593335 47.079601 
L 135.646684 47.086108 
L 136.697408 48.918044 
L 138.357557 48.994457 
L 139.002886 50.809804 
L 136.970605 53.014768 
L 133.881466 53.616406 
L 131.634657 56.213567 
L 131.581249 57.769064 
L 128.457087 62.440453 
L 127.346814 66.457819 
L 125.645517 67.711201 
L 125.473891 70.071597 
L 123.531802 72.340941 
L 121.567814 71.892796 
L 120.249155 73.578716 
L 118.593386 73.120804 
L 116.68106 73.952058 
L 110.810994 73.246342 
L 108.383816 75.546259 
L 106.901418 75.075346 
L 105.997794 76.296205 
L 103.234379 76.475714 
L 101.105779 78.562289 
L 96.477328 78.185699 
L 94.215641 76.115386 
L 92.133443 75.870175 
L 87.832469 70.506085 
L 85.101459 68.997736 
L 83.857218 67.219469 
L 83.492091 64.746865 
z
" clip-path="url(#p4168ec136a)" style="fill: #eeeeee; stroke: #000000; stroke-width: 0.3"/>
    <path d="M 87.890256 45.53776 
L 89.422571 40.745729 
L 90.626528 39.318035 
L 95.368808 39.278362 
L 98.319599 36.958936 
L 99.040228 34.296728 
L 102.217797 31.490126 
L 105.577498 31.205242 
L 105.832302 32.654395 
L 107.352357 32.591312 
L 109.908251 29.97853 
L 111.464152 32.494735 
L 112.669032 32.604968 
L 112.810006 35.184558 
L 115.051554 35.372539 
L 115.774809 33.665159 
L 117.314995 32.623823 
L 120.465428 32.511953 
L 122.40927 33.898665 
L 123.710426 33.057014 
L 123.549314 32.336333 
L 125.303155 31.895992 
L 130.039302 32.804641 
L 131.913097 35.067491 
L 136.139653 36.644121 
L 134.196684 41.559412 
L 132.743176 42.970189 
L 132.385056 45.363776 
L 129.260894 45.84866 
L 126.692741 43.07491 
L 124.022137 43.983231 
L 121.404075 42.974746 
L 118.94888 43.420939 
L 117.371037 46.615849 
L 114.019215 48.502083 
L 111.431806 47.282207 
L 109.779536 49.05885 
L 104.783324 49.63578 
L 103.976018 50.503787 
L 104.596821 52.246925 
L 103.549596 52.934113 
L 95.494025 53.09249 
L 92.070403 50.155479 
L 89.798203 49.690418 
z
" clip-path="url(#p4168ec136a)" style="fill: #eeeeee; stroke: #000000; stroke-width: 0.3"/>
    <path d="M 64.841685 -10.913581 
L 65.015928 -12.288914 
L 66.700595 -13.40538 
L 67.5333 -15.963183 
L 66.027579 -21.603661 
L 66.284272 -22.22185 
L 68.795264 -20.324854 
L 69.07656 -21.010104 
L 68.408475 -21.654901 
L 69.134475 -23.510928 
L 67.450825 -24.198746 
L 66.493175 -23.091481 
L 65.276858 -24.202811 
L 82.254086 -28.690285 
L 85.561395 -32.393113 
L 92.066387 -34.807391 
L 98.970571 -35.931547 
L 100.556319 -35.870603 
L 104.048403 -34.065791 
L 104.756467 -32.970823 
L 101.545679 -35.293925 
L 101.179587 -34.776139 
L 102.661908 -30.838232 
L 105.185312 -29.787304 
L 111.315926 -31.128616 
L 137.484584 -29.696329 
L 138.664023 -30.42611 
L 143.844112 -27.330068 
L 145.046314 -20.486919 
L 147.610968 -14.705911 
L 147.855258 -9.55354 
L 143.363402 -6.6214 
L 141.443196 -3.849273 
L 145.440339 -1.27001 
L 145.770442 -0.132399 
L 144.643538 4.919154 
L 145.949938 7.289304 
L 145.421074 8.544638 
L 149.724674 14.186777 
L 148.152965 14.796231 
L 149.198435 15.99237 
L 149.424342 18.158945 
L 148.35348 19.871522 
L 145.819478 20.331372 
L 137.20877 30.411722 
L 137.818186 34.086645 
L 137.34361 35.523439 
L 138.797991 36.486072 
L 138.813749 37.628227 
L 131.913097 35.067491 
L 130.961319 33.389388 
L 128.189151 32.184791 
L 123.678902 32.276497 
L 122.40927 33.898665 
L 120.465428 32.511953 
L 117.314995 32.623823 
L 115.774809 33.665159 
L 115.051554 35.372539 
L 112.596359 35.10846 
L 112.669032 32.604968 
L 111.464152 32.494735 
L 110.026453 30.025365 
L 107.352357 32.591312 
L 105.832302 32.654395 
L 105.822669 31.350289 
L 104.738668 31.13044 
L 104.359529 29.137534 
L 102.913035 28.567753 
L 102.41744 26.134507 
L 100.157499 26.126691 
L 97.70055 24.3777 
L 97.954473 24.930565 
L 96.318842 25.298054 
L 94.568509 23.627755 
L 94.201629 22.91163 
L 95.541307 22.228683 
L 95.205951 21.051399 
L 92.801537 21.938588 
L 88.30092 19.517047 
L 89.333259 22.216323 
L 86.33256 23.795559 
L 83.647951 20.309912 
L 82.426483 19.852668 
L 84.344053 17.82267 
L 83.545507 16.860037 
L 80.58333 17.368672 
L 80.494018 16.424907 
L 78.975716 15.618373 
L 75.28066 15.205999 
L 74.549526 12.975686 
L 73.487416 12.234199 
L 71.933218 12.472249 
L 72.111842 14.153612 
L 70.657462 14.161415 
L 72.428814 8.960258 
L 71.79837 6.726043 
L 69.807245 5.705839 
L 69.997255 4.093426 
L 68.754768 2.261502 
L 70.242418 -1.171784 
L 69.60673 -1.730187 
L 69.827383 -3.176081 
L 68.412406 -5.016802 
L 69.254735 -7.468262 
z
" clip-path="url(#p4168ec136a)" style="fill: #eeeeee; stroke: #000000; stroke-width: 0.3"/>
    <path d="M 25.847012 59.418231 
L 26.934513 57.569064 
L 26.070055 55.997884 
L 28.057917 55.319883 
L 30.095452 56.584317 
L 30.605932 58.206485 
L 31.676794 58.037699 
L 31.25826 59.313511 
L 33.532205 57.741097 
L 33.540084 55.463295 
L 37.178225 56.046732 
L 38.201813 57.810374 
L 40.38382 57.767441 
L 43.632317 55.304276 
L 48.318564 55.110116 
L 48.343955 53.842108 
L 48.899964 53.51234 
L 48.870193 54.180976 
L 51.054827 54.810266 
L 53.30339 54.332531 
L 53.446982 55.742653 
L 55.335672 56.860415 
L 55.930203 54.425545 
L 54.404903 53.619011 
L 55.245479 52.063841 
L 53.15979 48.621115 
L 58.755786 45.399547 
L 59.170821 42.921731 
L 61.390046 43.573136 
L 62.23063 40.492714 
L 64.425768 42.691812 
L 66.548243 43.108088 
L 67.673393 42.043982 
L 69.515673 42.886615 
L 70.572521 40.365879 
L 71.751968 40.538239 
L 72.111842 37.453261 
L 79.198124 39.159986 
L 81.458937 40.789303 
L 83.771413 40.985742 
L 85.137355 39.999686 
L 88.131929 41.089808 
L 88.742227 42.535059 
L 87.890256 45.53776 
L 90.464543 50.070923 
L 89.242193 51.860253 
L 89.846366 53.808615 
L 87.49186 54.224236 
L 85.546264 53.233309 
L 84.190828 54.402122 
L 86.075129 54.897101 
L 86.574224 55.954045 
L 86.165314 57.025299 
L 84.412354 57.731015 
L 84.745084 59.241969 
L 84.232858 60.370127 
L 85.052423 60.994874 
L 84.333548 62.422882 
L 84.856287 62.744192 
L 83.064797 62.671681 
L 80.580704 64.894845 
L 80.877495 66.870859 
L 79.471312 66.19374 
L 77.651796 66.280902 
L 76.183411 67.576235 
L 72.788688 67.136864 
L 70.996316 67.746318 
L 68.369504 70.546739 
L 50.279045 66.626277 
L 49.106605 64.385555 
L 47.922786 63.873018 
L 48.378106 61.653428 
L 44.601616 63.09576 
L 39.854083 63.180958 
L 38.349785 65.632103 
L 34.02342 64.659715 
L 33.067261 62.773141 
L 30.846723 64.650275 
L 28.845958 63.639512 
L 28.700612 62.531177 
L 26.355739 62.010194 
z
" clip-path="url(#p4168ec136a)" style="fill: #eeeeee; stroke: #000000; stroke-width: 0.3"/>
    <path d="M 1.122085 86.597033 
L 5.405988 84.636651 
L 5.849048 82.726993 
L 4.342124 81.465807 
L 4.177513 79.834538 
L 2.640827 78.113502 
L 4.674862 76.253272 
L 5.788626 76.866627 
L 9.072155 75.512439 
L 11.635927 76.32937 
L 13.896741 73.714651 
L 13.699733 71.8915 
L 16.341431 69.621174 
L 16.671535 72.350053 
L 19.813208 74.182959 
L 19.465593 75.525441 
L 20.338574 75.978797 
L 20.584618 77.497541 
L 21.452346 77.569096 
L 21.966326 76.584336 
L 21.44972 74.817775 
L 23.336647 72.402741 
L 23.823482 69.052375 
L 25.114125 69.040342 
L 25.9766 71.553928 
L 29.212838 70.64105 
L 30.54551 72.543232 
L 31.250372 72.009222 
L 30.681231 71.172128 
L 31.096266 70.241364 
L 30.126976 69.695649 
L 30.181264 68.60423 
L 31.531448 67.423057 
L 33.6653 68.544394 
L 33.793134 67.464026 
L 33.031357 66.849374 
L 33.748478 64.43239 
L 38.349785 65.632103 
L 39.854083 63.180958 
L 44.601616 63.09576 
L 48.378106 61.653428 
L 47.922786 63.873018 
L 49.106605 64.385555 
L 50.279045 66.626277 
L 61.258264 68.770738 
L 58.414296 71.658649 
L 58.794308 72.694774 
L 60.719766 73.042113 
L 59.232116 75.232099 
L 60.452712 75.496178 
L 60.11473 77.448114 
L 61.917157 78.542125 
L 62.899588 79.946408 
L 62.502064 80.540242 
L 61.349855 80.432677 
L 62.166166 80.166874 
L 60.184674 77.960538 
L 58.723033 79.397621 
L 58.44932 78.526971 
L 56.330632 78.182804 
L 56.039687 79.819636 
L 50.437184 82.385494 
L 51.7761 80.940217 
L 50.208974 81.111785 
L 48.156469 83.953692 
L 48.800418 85.328308 
L 49.451263 84.995406 
L 49.972494 87.761013 
L 49.972494 87.073195 
L 51.370706 88.276231 
L 50.614376 90.158375 
L 50.295159 89.267234 
L 50.373754 90.375015 
L 49.10447 90.081043 
L 49.972494 97.330499 
L 52.706868 100.603647 
L 60.534924 106.017567 
L 64.430335 118.121685 
L 69.800484 123.450079 
L 70.067302 124.593707 
L 73.664871 126.567519 
L 81.925906 126.666877 
L 82.297522 128.432771 
L 79.889261 130.509013 
L 80.40635 132.462346 
L 89.691913 137.215082 
L 93.241217 140.383232 
L 97.739208 142.641815 
L 102.052432 149.079513 
L 100.976886 153.134198 
L 98.285948 151.945498 
L 96.520256 147.236803 
L 93.545955 147.009414 
L 90.903969 145.540575 
L 91.946423 144.557754 
L 89.005215 144.631511 
L 85.859237 149.768867 
L 86.086753 151.257177 
L 84.885041 153.661198 
L 85.360761 155.100332 
L 90.552347 158.305878 
L 90.668176 163.915431 
L 85.697219 165.963 
L 85.561395 170.59897 
L 82.171348 174.202452 
L 81.389509 176.761652 
L 78.062206 176.590084 
L 77.625093 173.232443 
L 79.150164 172.221453 
L 80.039563 169.500415 
L 79.351484 167.836446 
L 82.028637 166.805494 
L 82.613977 165.223464 
L 78.824745 152.202604 
L 77.552699 149.852857 
L 75.738182 150.907812 
L 74.477048 150.462323 
L 73.34152 148.696945 
L 71.511016 147.790436 
L 72.249131 145.828015 
L 70.416857 142.400594 
L 66.694495 143.649722 
L 67.808657 141.647728 
L 66.284272 140.274661 
L 64.195898 140.893705 
L 63.972635 139.229259 
L 61.435346 135.06867 
L 59.928201 135.644845 
L 57.741255 134.523232 
L 55.697714 135.381597 
L 54.418086 133.219302 
L 52.229767 132.612919 
L 48.872811 128.978197 
L 47.020255 125.746032 
L 45.386251 125.228762 
L 43.952186 122.142562 
L 41.566673 120.537486 
L 39.279071 120.734151 
L 39.972326 119.613884 
L 39.718251 118.559571 
L 37.898092 116.307143 
L 36.099307 115.5338 
L 36.372334 114.100807 
L 34.135742 113.821172 
L 34.378431 109.966223 
L 32.591372 106.87183 
L 32.035668 102.416137 
L 30.671243 100.166264 
L 28.5884 99.118408 
L 28.482916 99.953211 
L 23.385785 96.033744 
L 23.21687 96.642682 
L 19.418667 95.046832 
L 16.908369 96.655998 
L 13.533496 101.786192 
L 8.74317 103.100884 
L 8.536284 102.178377 
L 10.333026 99.638132 
L 10.042326 98.269633 
L 7.373475 98.929169 
L 4.262445 97.346019 
L 3.096138 93.76411 
L 4.147743 91.886976 
L 4.955049 91.865503 
L 4.529508 90.064467 
L 2.330862 89.059556 
z
M 50.68588 126.868174 
L 50.694386 126.882812 
L 50.693945 126.868841 
z
M 50.199781 101.135026 
L 50.899849 101.529879 
L 50.932661 100.705095 
z
" clip-path="url(#p4168ec136a)" style="fill: #eeeeee; stroke: #000000; stroke-width: 0.3"/>
    <path d="M 14.207782 143.365479 
L 14.59525 138.70134 
L 15.588067 140.12512 
L 17.369611 140.423182 
L 19.928173 138.908251 
L 23.385785 134.939608 
L 25.010139 135.97056 
L 25.183883 137.087567 
L 26.172557 136.657875 
L 25.768536 138.040672 
L 27.045403 138.212239 
L 25.703725 139.165344 
L 27.565253 140.197329 
L 27.005415 140.764278 
L 28.211964 145.098586 
L 26.73653 147.520542 
L 27.63558 149.775525 
L 26.230472 161.540095 
L 25.82507 162.102425 
L 21.549774 160.096857 
L 22.108232 160.591597 
L 21.649744 163.477544 
L 20.188789 164.954074 
L 19.030505 164.266772 
L 18.390004 165.126157 
L 17.700553 162.704717 
L 16.118253 160.62334 
L 16.721528 153.890135 
L 17.339281 154.581011 
L 17.752952 154.594327 
L 17.233101 154.337234 
L 17.663318 152.686066 
L 16.302342 151.931162 
L 16.155488 150.407005 
L 17.111071 149.516896 
L 16.178235 144.932657 
L 15.429496 143.33833 
z
" clip-path="url(#p4168ec136a)" style="fill: #eeeeee; stroke: #000000; stroke-width: 0.3"/>
    <path d="M 50.465455 178.559806 
L 51.023913 175.735306 
L 52.817173 174.610118 
L 53.047451 173.578649 
L 54.48221 175.651832 
L 55.839739 174.954285 
L 56.174815 173.612457 
L 58.014969 173.227824 
L 58.635475 174.706405 
L 62.019312 176.337082 
L 63.965637 175.383461 
L 68.127179 175.446457 
L 71.476544 173.642664 
L 73.008511 174.390923 
L 74.272974 172.672152 
L 74.736283 173.399404 
L 77.784358 172.540019 
L 74.068892 179.007421 
L 73.039535 182.581715 
L 73.140886 184.440813 
L 74.398453 185.347826 
L 73.817935 185.980326 
L 75.079628 188.445303 
L 73.605575 189.545393 
L 73.059529 192.93479 
L 67.920343 191.192458 
L 66.153964 188.037624 
L 61.384327 186.4346 
L 56.794636 182.461866 
L 52.433841 181.478541 
z
" clip-path="url(#p4168ec136a)" style="fill: #eeeeee; stroke: #000000; stroke-width: 0.3"/>
    <path d="M 30.808438 116.125834 
L 31.030447 115.439564 
L 33.660022 115.017549 
L 33.424229 116.73632 
z
" clip-path="url(#p4168ec136a)" style="fill: #eeeeee; stroke: #000000; stroke-width: 0.3"/>
    <path d="M 25.134237 135.905009 
L 25.454148 135.274045 
L 25.454835 135.989 
L 25.365896 136.07197 
z
" clip-path="url(#p4168ec136a)" style="fill: #eeeeee; stroke: #000000; stroke-width: 0.3"/>
    <path d="M 14.908265 161.243556 
L 15.550832 160.98543 
L 15.550832 162.102425 
L 15.117862 162.070165 
z
" clip-path="url(#p4168ec136a)" style="fill: #eeeeee; stroke: #000000; stroke-width: 0.3"/>
    <path d="M 73.848264 166.074139 
L 74.060615 165.804233 
L 74.106127 166.275411 
z
" clip-path="url(#p4168ec136a)" style="fill: #eeeeee; stroke: #000000; stroke-width: 0.3"/>
    <path d="M 71.825412 171.015346 
L 72.325955 171.251444 
L 72.152211 171.422508 
z
" clip-path="url(#p4168ec136a)" style="fill: #eeeeee; stroke: #000000; stroke-width: 0.3"/>
    <path d="M 71.626845 169.430245 
L 72.088781 169.868647 
L 71.978467 170.297824 
z
" clip-path="url(#p4168ec136a)" style="fill: #eeeeee; stroke: #000000; stroke-width: 0.3"/>
    <path d="M 70.516826 168.810545 
L 71.136647 168.690709 
L 71.09183 169.217192 
z
" clip-path="url(#p4168ec136a)" style="fill: #eeeeee; stroke: #000000; stroke-width: 0.3"/>
    <path d="M 68.387795 168.6185 
L 68.569807 168.647688 
L 68.465017 168.936537 
z
" clip-path="url(#p4168ec136a)" style="fill: #eeeeee; stroke: #000000; stroke-width: 0.3"/>
    <path d="M 66.695876 169.116814 
L 66.817907 169.067135 
L 66.848931 169.220263 
z
" clip-path="url(#p4168ec136a)" style="fill: #eeeeee; stroke: #000000; stroke-width: 0.3"/>
    <path d="M 62.513654 141.829038 
L 62.629483 141.235959 
L 63.502328 141.580126 
z
" clip-path="url(#p4168ec136a)" style="fill: #eeeeee; stroke: #000000; stroke-width: 0.3"/>
    <path d="M 58.833347 140.940452 
L 58.913323 140.759671 
L 58.979515 140.744303 
z
" clip-path="url(#p4168ec136a)" style="fill: #eeeeee; stroke: #000000; stroke-width: 0.3"/>
    <path d="M 56.620205 167.260271 
L 56.893224 166.97399 
L 56.992508 167.089736 
z
" clip-path="url(#p4168ec136a)" style="fill: #eeeeee; stroke: #000000; stroke-width: 0.3"/>
    <path d="M 54.014064 202.906317 
L 54.252619 202.859205 
L 54.240208 203.037431 
z
" clip-path="url(#p4168ec136a)" style="fill: #eeeeee; stroke: #000000; stroke-width: 0.3"/>
    <path d="M 51.305209 207.261632 
L 51.55548 207.204275 
L 52.024999 207.606818 
z
" clip-path="url(#p4168ec136a)" style="fill: #eeeeee; stroke: #000000; stroke-width: 0.3"/>
    <path d="M 49.571226 83.518876 
L 50.144857 82.442348 
L 50.498547 82.667182 
z
" clip-path="url(#p4168ec136a)" style="fill: #eeeeee; stroke: #000000; stroke-width: 0.3"/>
    <path d="M 49.564339 82.488956 
L 49.929745 82.239541 
L 49.915266 82.384475 
z
" clip-path="url(#p4168ec136a)" style="fill: #eeeeee; stroke: #000000; stroke-width: 0.3"/>
    <path d="M 49.38646 177.021313 
L 49.509872 176.680217 
L 49.972494 176.946032 
z
" clip-path="url(#p4168ec136a)" style="fill: #eeeeee; stroke: #000000; stroke-width: 0.3"/>
    <path d="M 47.105746 176.201877 
L 47.301551 176.100467 
L 47.519417 176.631054 
z
" clip-path="url(#p4168ec136a)" style="fill: #eeeeee; stroke: #000000; stroke-width: 0.3"/>
    <path d="M 46.212212 190.958411 
L 47.28431 191.230356 
L 47.107127 191.846984 
z
" clip-path="url(#p4168ec136a)" style="fill: #eeeeee; stroke: #000000; stroke-width: 0.3"/>
    <path d="M 37.205192 121.048614 
L 37.865474 121.496922 
L 37.726254 121.647105 
z
" clip-path="url(#p4168ec136a)" style="fill: #eeeeee; stroke: #000000; stroke-width: 0.3"/>
    <path d="M 32.39832 121.530025 
L 32.580341 121.369722 
L 32.557586 121.581755 
z
" clip-path="url(#p4168ec136a)" style="fill: #eeeeee; stroke: #000000; stroke-width: 0.3"/>
    <path d="M 30.329965 118.334221 
L 30.576788 117.931678 
L 30.63056 118.453555 
z
" clip-path="url(#p4168ec136a)" style="fill: #eeeeee; stroke: #000000; stroke-width: 0.3"/>
    <path d="M 28.222079 112.973996 
L 28.268218 112.236385 
L 28.566289 112.758123 
z
" clip-path="url(#p4168ec136a)" style="fill: #eeeeee; stroke: #000000; stroke-width: 0.3"/>
    <path d="M 24.592325 135.351893 
L 24.941194 134.942175 
L 24.780548 135.59465 
z
" clip-path="url(#p4168ec136a)" style="fill: #eeeeee; stroke: #000000; stroke-width: 0.3"/>
    <path d="M 15.891424 162.188466 
L 17.059358 162.540311 
L 16.431955 163.899043 
z
" clip-path="url(#p4168ec136a)" style="fill: #eeeeee; stroke: #000000; stroke-width: 0.3"/>
    <path d="M 14.735902 138.298281 
L 15.723195 136.657875 
L 15.047536 138.32543 
z
" clip-path="url(#p4168ec136a)" style="fill: #eeeeee; stroke: #000000; stroke-width: 0.3"/>
    <path d="M -4.335564 72.644692 
L -3.224418 72.211513 
L -2.828648 70.789672 
L -3.52475 70.033547 
L -2.981 67.96876 
L -0.348054 65.736496 
L -0.234224 63.428775 
L 1.653144 62.458011 
L 4.797444 58.578531 
L 3.357949 58.268273 
L 4.261573 56.570006 
L 6.019793 56.580415 
L 6.504875 57.479951 
L 9.884713 55.237278 
L 10.277865 55.875668 
L 17.710007 55.307523 
L 18.104905 54.465545 
L 16.274884 54.350089 
L 17.688988 52.642067 
L 20.42964 54.467496 
L 23.746429 54.543595 
L 26.941519 57.035708 
L 25.560684 60.082638 
L 25.473126 61.921736 
L 28.700612 62.531177 
L 28.845958 63.639512 
L 30.846723 64.650275 
L 33.114544 62.782568 
L 33.748478 64.43239 
L 33.031357 66.849374 
L 33.793134 67.464026 
L 33.6653 68.544394 
L 31.531448 67.423057 
L 30.181264 68.60423 
L 30.126976 69.695649 
L 31.096266 70.241364 
L 30.902757 72.403383 
L 30.265315 72.537379 
L 29.212838 70.64105 
L 25.9766 71.553928 
L 25.114125 69.040342 
L 23.661498 69.206535 
L 23.336647 72.402741 
L 21.44972 74.817775 
L 21.966326 76.584336 
L 21.452346 77.569096 
L 20.584618 77.497541 
L 20.338574 75.978797 
L 19.465593 75.525441 
L 19.813208 74.182959 
L 16.671535 72.350053 
L 16.341431 69.621174 
L 13.699733 71.8915 
L 13.896741 73.714651 
L 11.529977 76.389207 
L 9.072155 75.512439 
L 5.054874 76.694267 
L 2.576033 73.615783 
L 2.683729 70.099564 
L 1.214904 69.574352 
L -1.429429 70.347381 
L -2.170187 71.341883 
L -1.601919 72.290859 
L -4.332937 73.670421 
z
" clip-path="url(#p4168ec136a)" style="fill: #eeeeee; stroke: #000000; stroke-width: 0.3"/>
    <path d="M -25.5792 5.712259 
L -22.189848 4.692068 
L -20.040136 6.769857 
L -18.528849 6.744759 
L -21.02881 4.950193 
L -19.172111 4.950193 
L -19.971191 4.332029 
L -19.429279 3.747157 
L -22.094707 2.108273 
L -20.270413 1.762067 
L -20.795771 -0.051971 
L -19.726434 -0.277308 
L -16.623198 -4.440564 
L -14.612758 -12.385529 
L -13.525486 -11.58452 
L -11.794266 -12.214465 
L -9.243294 -14.018761 
L -7.44451 -16.604607 
L -4.14685 -17.904433 
L 3.040011 -18.464724 
L 3.645353 -17.221235 
L 6.136351 -15.877355 
L 6.121356 -12.768273 
L 4.798316 -8.355123 
L 2.259934 -8.195438 
L 1.706551 -7.024673 
L 2.071678 -6.016175 
L 4.261573 -5.888044 
L 4.896388 -4.801837 
L 4.710758 -3.109737 
L 1.717065 -0.836818 
L 2.884245 0.289402 
L -1.061676 2.0449 
L -2.908327 1.093004 
L -2.661402 1.781161 
L -4.564977 2.113522 
L -2.244614 6.609617 
L -3.504613 9.715087 
L -2.73671 10.463396 
L -5.233935 11.841662 
L -5.04656 12.815673 
L -3.444199 13.543503 
L -4.027352 15.527309 
L -6.470289 15.473325 
L -7.165527 14.515891 
L -5.431824 10.410394 
L -8.277545 8.77326 
L -10.63117 9.123191 
L -12.223026 6.37839 
L -13.215961 7.447039 
L -14.47158 7.17678 
L -13.958473 7.172879 
L -14.331479 6.144884 
L -15.589724 7.115975 
L -16.835719 6.409604 
L -17.733209 6.805389 
L -17.605375 7.969331 
L -20.93849 6.676641 
L -22.392549 7.457662 
z
" clip-path="url(#p4168ec136a)" style="fill: #eeeeee; stroke: #000000; stroke-width: 0.3"/>
    <path d="M -26.439998 7.656983 
L -24.813907 7.134502 
L -22.334634 8.059438 
L -21.062597 7.21337 
L -19.051766 7.747883 
L -19.920477 8.951158 
L -22.549044 9.795414 
L -24.236337 8.72416 
L -26.082115 9.273764 
z
" clip-path="url(#p4168ec136a)" style="fill: #eeeeee; stroke: #000000; stroke-width: 0.3"/>
    <path d="M -14.932661 -13.151698 
L -13.690267 -15.156246 
L -13.366221 -14.190844 
L -14.187361 -12.797298 
z
" clip-path="url(#p4168ec136a)" style="fill: #eeeeee; stroke: #000000; stroke-width: 0.3"/>
    <path d="M -0.128713 -19.81783 
L 0.337357 -19.635501 
L 0.221528 -19.542285 
z
" clip-path="url(#p4168ec136a)" style="fill: #eeeeee; stroke: #000000; stroke-width: 0.3"/>
    <path d="M -2.904456 -18.582006 
L -1.351114 -19.264701 
L -1.114635 -19.112089 
z
" clip-path="url(#p4168ec136a)" style="fill: #eeeeee; stroke: #000000; stroke-width: 0.3"/>
    <path d="M -7.067379 -18.440659 
L -4.714271 -18.757676 
L -4.368859 -18.596858 
z
" clip-path="url(#p4168ec136a)" style="fill: #eeeeee; stroke: #000000; stroke-width: 0.3"/>
    <path d="M -11.035869 -17.428145 
L -10.336768 -17.909053 
L -7.497595 -18.502622 
z
" clip-path="url(#p4168ec136a)" style="fill: #eeeeee; stroke: #000000; stroke-width: 0.3"/>
    <path d="M -13.2173 -15.467638 
L -12.570598 -16.443272 
L -11.568131 -16.690648 
z
" clip-path="url(#p4168ec136a)" style="fill: #eeeeee; stroke: #000000; stroke-width: 0.3"/>
    <path d="M -23.582544 3.661115 
L -22.502168 2.962032 
L -20.086325 4.146629 
z
" clip-path="url(#p4168ec136a)" style="fill: #eeeeee; stroke: #000000; stroke-width: 0.3"/>
    <path d="M 25.473126 61.921736 
L 25.847012 59.418231 
L 26.648193 61.3822 
L 26.355739 62.010194 
z
" clip-path="url(#p4168ec136a)" style="fill: #eeeeee; stroke: #000000; stroke-width: 0.3"/>
    <path d="M 104.926052 77.107937 
L 106.706155 75.161199 
L 108.383816 75.546259 
L 110.810994 73.246342 
L 116.68106 73.952058 
L 120.453169 78.54604 
L 121.280621 78.427009 
L 121.123008 81.86582 
L 127.275014 86.07279 
L 126.072811 87.921315 
L 127.639268 89.29242 
L 126.107834 89.704139 
L 126.450196 90.539282 
L 131.519954 92.19658 
L 132.640732 94.158925 
L 135.177361 91.251505 
L 138.050226 93.1501 
L 135.669449 94.195338 
L 137.427424 97.610462 
L 136.591466 99.681065 
L 134.953209 100.56955 
L 134.528532 102.903287 
L 135.963656 107.103095 
L 139.909136 110.87428 
L 137.727121 114.495874 
L 135.188739 115.41818 
L 135.658943 116.423091 
L 135.171227 118.44852 
L 136.113382 119.637509 
L 135.159849 121.556922 
L 133.845562 120.99755 
L 127.967617 122.61257 
L 127.46765 121.354958 
L 128.326618 120.792339 
L 129.571732 117.230594 
L 126.303969 116.292681 
L 126.556147 114.998003 
L 125.303155 114.500103 
L 123.88029 111.930909 
L 121.728053 110.92664 
L 121.566069 109.832302 
L 119.7413 110.580611 
L 120.07841 112.414498 
L 118.516333 113.701373 
L 118.659053 114.890677 
L 117.549661 115.244183 
L 117.479614 114.243174 
L 114.023595 111.638536 
L 111.219031 110.854444 
L 107.642176 107.01952 
L 108.292758 105.663369 
L 110.299641 105.967775 
L 110.450248 104.926438 
L 108.214824 100.460273 
L 110.629744 100.772483 
L 111.395029 100.036194 
L 107.140456 96.159635 
L 107.252532 93.961845 
L 109.342609 89.623484 
L 107.734996 88.811097 
L 106.285868 89.590306 
L 106.079218 88.969801 
L 107.267417 88.488478 
L 106.531912 86.171658 
L 109.607038 85.342367 
L 105.961136 83.226868 
L 106.233333 81.62256 
L 107.052025 81.4593 
L 105.334961 80.685944 
L 105.884837 79.482001 
z
" clip-path="url(#p4168ec136a)" style="fill: #eeeeee; stroke: #000000; stroke-width: 0.3"/>
    <path d="M 59.615881 81.455952 
L 62.851433 82.56698 
L 63.553669 81.426776 
L 66.950146 81.884688 
L 68.713611 79.493707 
L 70.545386 82.044034 
L 71.608368 81.417676 
L 73.443641 82.486325 
L 75.01885 82.19949 
L 74.539021 80.326258 
L 75.430386 79.841033 
L 74.424318 78.793202 
L 77.991532 77.305017 
L 78.177162 74.856805 
L 77.261279 73.883764 
L 77.684193 72.698676 
L 80.898548 71.551323 
L 81.226898 70.560723 
L 83.070923 70.615688 
L 82.725934 69.103111 
L 83.65145 68.427968 
L 87.832469 70.506085 
L 91.665873 75.505932 
L 94.215641 76.115386 
L 96.477328 78.185699 
L 101.105779 78.562289 
L 103.234379 76.475714 
L 105.315696 76.17847 
L 104.838485 77.63218 
L 105.884837 79.482001 
L 105.334961 80.685944 
L 107.052025 81.4593 
L 106.233333 81.62256 
L 105.961136 83.226868 
L 109.607038 85.342367 
L 107.184239 85.434727 
L 106.531912 86.171658 
L 107.267417 88.488478 
L 105.216751 89.646253 
L 103.47517 86.831848 
L 102.060193 87.196078 
L 99.695182 85.917346 
L 96.288199 87.08811 
L 95.008935 85.835382 
L 90.792892 86.029216 
L 88.567102 84.317934 
L 87.612697 85.618138 
L 85.217034 85.101699 
L 83.415038 87.883581 
L 80.909053 85.206419 
L 78.976589 85.510171 
L 78.435465 90.805312 
L 80.975601 92.62261 
L 80.787345 93.676306 
L 81.722493 93.922159 
L 83.505223 99.448855 
L 89.466354 106.168757 
L 91.499508 107.241963 
L 91.664119 109.253094 
L 94.531732 112.48604 
L 94.583394 113.696489 
L 93.576293 113.58968 
L 93.460464 112.682151 
L 88.196485 107.962707 
L 84.052176 106.642893 
L 84.411389 106.152772 
L 80.392558 106.728934 
L 80.31603 104.405833 
L 78.247666 103.463477 
L 73.488374 98.025491 
L 73.455282 96.930511 
L 74.76524 97.330499 
L 74.477048 96.299547 
L 75.860094 97.11284 
L 76.742589 97.064696 
L 72.325955 93.314745 
L 71.279366 91.377799 
L 71.599955 88.417578 
L 71.016683 86.720318 
L 68.627722 84.203107 
L 66.431126 83.569588 
L 65.074283 88.182512 
L 64.375174 88.534356 
L 64.502033 88.07034 
L 64.133179 87.408652 
L 63.791902 90.252095 
L 62.861133 89.995002 
L 63.096926 90.689981 
L 62.971447 90.763738 
L 60.599726 86.979476 
L 61.47258 86.20612 
L 60.368763 86.068863 
L 60.483897 83.869702 
z
" clip-path="url(#p4168ec136a)" style="fill: #eeeeee; stroke: #000000; stroke-width: 0.3"/>
    <path d="M 89.2217 112.424026 
L 95.489526 115.095397 
L 94.742846 114.444962 
L 96.085057 114.206748 
L 96.480827 115.375901 
L 101.385101 118.620238 
L 101.885585 120.418669 
L 96.771908 115.704851 
L 95.315782 115.259287 
L 95.662575 115.857476 
L 95.550889 115.941466 
L 91.019798 113.291101 
L 89.598831 113.134373 
z
" clip-path="url(#p4168ec136a)" style="fill: #eeeeee; stroke: #000000; stroke-width: 0.3"/>
    <path d="M 66.151211 86.472439 
L 66.449053 85.728799 
L 67.803142 88.258811 
L 68.1458 92.151142 
L 67.417047 92.221816 
L 66.284272 89.049059 
L 67.277089 88.448315 
z
" clip-path="url(#p4168ec136a)" style="fill: #eeeeee; stroke: #000000; stroke-width: 0.3"/>
    <path d="M 67.39291 86.799702 
L 68.282996 86.202029 
L 68.441575 84.76852 
L 70.696086 88.182512 
L 69.920448 88.612204 
z
" clip-path="url(#p4168ec136a)" style="fill: #eeeeee; stroke: #000000; stroke-width: 0.3"/>
    <path d="M 84.17352 108.884572 
L 84.347264 108.111744 
L 88.295769 109.142697 
L 84.310038 109.075094 
z
" clip-path="url(#p4168ec136a)" style="fill: #eeeeee; stroke: #000000; stroke-width: 0.3"/>
    <path d="M 81.149582 112.251942 
L 81.839034 111.959003 
L 82.779452 112.166417 
L 81.474314 112.927979 
z
" clip-path="url(#p4168ec136a)" style="fill: #eeeeee; stroke: #000000; stroke-width: 0.3"/>
    <path d="M 72.793407 98.447494 
L 74.176444 99.652065 
L 74.419133 100.2605 
L 73.296017 99.324802 
z
" clip-path="url(#p4168ec136a)" style="fill: #eeeeee; stroke: #000000; stroke-width: 0.3"/>
    <path d="M 69.365439 90.431856 
L 69.949405 90.431856 
L 69.601926 89.822918 
L 71.069769 91.456666 
z
" clip-path="url(#p4168ec136a)" style="fill: #eeeeee; stroke: #000000; stroke-width: 0.3"/>
    <path d="M 91.950558 115.704851 
L 92.531771 115.568111 
L 95.552261 116.916597 
z
" clip-path="url(#p4168ec136a)" style="fill: #eeeeee; stroke: #000000; stroke-width: 0.3"/>
    <path d="M 87.689732 116.394205 
L 88.539144 115.876935 
L 88.668757 116.149396 
z
" clip-path="url(#p4168ec136a)" style="fill: #eeeeee; stroke: #000000; stroke-width: 0.3"/>
    <path d="M 86.087448 113.291101 
L 90.903969 114.056754 
L 87.948967 114.322054 
z
" clip-path="url(#p4168ec136a)" style="fill: #eeeeee; stroke: #000000; stroke-width: 0.3"/>
    <path d="M 83.883955 110.611536 
L 90.846054 111.470405 
L 88.727019 111.470405 
z
" clip-path="url(#p4168ec136a)" style="fill: #eeeeee; stroke: #000000; stroke-width: 0.3"/>
    <path d="M 82.527105 106.904089 
L 82.975943 106.616776 
L 83.91498 106.902553 
z
" clip-path="url(#p4168ec136a)" style="fill: #eeeeee; stroke: #000000; stroke-width: 0.3"/>
    <path d="M 82.434031 107.948874 
L 83.082809 107.887414 
L 83.689523 108.809291 
z
" clip-path="url(#p4168ec136a)" style="fill: #eeeeee; stroke: #000000; stroke-width: 0.3"/>
    <path d="M 77.378955 104.579968 
L 78.536553 105.174054 
L 77.957407 105.049094 
z
" clip-path="url(#p4168ec136a)" style="fill: #eeeeee; stroke: #000000; stroke-width: 0.3"/>
    <path d="M 74.477048 100.346541 
L 76.042802 101.901422 
L 75.302323 101.500414 
z
" clip-path="url(#p4168ec136a)" style="fill: #eeeeee; stroke: #000000; stroke-width: 0.3"/>
    <path d="M 74.193685 102.065828 
L 74.520484 102.285539 
L 75.616024 103.350299 
z
" clip-path="url(#p4168ec136a)" style="fill: #eeeeee; stroke: #000000; stroke-width: 0.3"/>
    <path d="M 70.989793 98.27541 
L 72.325955 99.315073 
L 73.911694 102.088874 
z
" clip-path="url(#p4168ec136a)" style="fill: #eeeeee; stroke: #000000; stroke-width: 0.3"/>
    <path d="M 70.759515 98.362484 
L 71.15526 98.716884 
L 70.80157 98.498205 
z
" clip-path="url(#p4168ec136a)" style="fill: #eeeeee; stroke: #000000; stroke-width: 0.3"/>
    <path d="M 70.198304 95.904165 
L 70.259659 95.257833 
L 70.596802 95.381773 
z
" clip-path="url(#p4168ec136a)" style="fill: #eeeeee; stroke: #000000; stroke-width: 0.3"/>
    <path d="M 70.133494 97.192223 
L 70.4989 97.055483 
L 70.482354 97.126157 
z
" clip-path="url(#p4168ec136a)" style="fill: #eeeeee; stroke: #000000; stroke-width: 0.3"/>
    <path d="M 70.00732 91.634905 
L 74.419133 96.205827 
L 73.354618 96.558691 
z
" clip-path="url(#p4168ec136a)" style="fill: #eeeeee; stroke: #000000; stroke-width: 0.3"/>
    <path d="M 68.833185 96.116714 
L 69.244094 96.385588 
L 69.395091 96.600693 
z
" clip-path="url(#p4168ec136a)" style="fill: #eeeeee; stroke: #000000; stroke-width: 0.3"/>
    <path d="M 66.63658 91.463841 
L 68.318849 94.392821 
L 66.867553 93.268137 
z
" clip-path="url(#p4168ec136a)" style="fill: #eeeeee; stroke: #000000; stroke-width: 0.3"/>
    <path d="M 65.762354 92.605932 
L 66.167757 91.957548 
L 66.089153 92.775964 
z
" clip-path="url(#p4168ec136a)" style="fill: #eeeeee; stroke: #000000; stroke-width: 0.3"/>
    <path d="M 58.414296 71.658649 
L 61.258264 68.770738 
L 68.369504 70.546739 
L 70.996316 67.746318 
L 72.788688 67.136864 
L 76.183411 67.576235 
L 77.651796 66.280902 
L 79.471312 66.19374 
L 80.877495 66.870859 
L 80.498398 64.983618 
L 81.532483 64.453195 
L 83.492091 64.746865 
L 83.924638 67.394435 
L 84.978869 68.455281 
L 82.971978 68.818869 
L 83.070923 70.615688 
L 81.226898 70.560723 
L 80.898548 71.551323 
L 77.684193 72.698676 
L 77.261279 73.883764 
L 78.177162 74.856805 
L 77.991532 77.305017 
L 74.424318 78.793202 
L 75.430386 79.841033 
L 74.539021 80.326258 
L 75.01885 82.19949 
L 73.443641 82.486325 
L 71.608368 81.417676 
L 70.545386 82.044034 
L 68.713611 79.493707 
L 66.950146 81.884688 
L 60.766625 82.116469 
L 60.137104 81.111785 
L 62.899588 79.946408 
L 60.244317 77.713489 
L 60.452712 75.496178 
L 59.232116 75.232099 
L 60.719766 73.042113 
L 58.794308 72.694774 
z
" clip-path="url(#p4168ec136a)" style="fill: #eeeeee; stroke: #000000; stroke-width: 0.3"/>
    <path d="M 50.199781 101.135026 
L 50.932661 100.705095 
L 50.899849 101.529879 
z
" clip-path="url(#p4168ec136a)" style="fill: #eeeeee; stroke: #000000; stroke-width: 0.3"/>
    <path d="M 7.586411 103.975549 
L 7.935618 103.462319 
L 7.913168 104.035473 
z
" clip-path="url(#p4168ec136a)" style="fill: #eeeeee; stroke: #000000; stroke-width: 0.3"/>
    <path d="M 101.352704 113.648685 
L 103.093404 112.817444 
L 103.307933 110.13735 
L 104.637097 108.775345 
L 106.087979 109.710338 
L 106.74206 109.185126 
L 105.352473 106.896915 
L 105.961017 106.197052 
L 107.806796 106.366165 
L 107.780524 107.351239 
L 111.219031 110.854444 
L 114.023595 111.638536 
L 117.619707 114.444483 
L 116.177586 116.313172 
L 114.848413 116.304387 
L 115.504248 117.438411 
L 114.469282 119.23002 
L 112.941347 119.766622 
L 112.269755 117.526869 
L 111.419547 118.043963 
L 108.481006 123.251287 
L 109.307578 124.346607 
L 109.244808 127.517049 
L 107.594259 126.439488 
L 105.185998 122.079566 
L 104.275918 122.241921 
L 102.298569 120.327505 
L 103.614043 120.712641 
L 103.503043 119.580794 
L 101.885585 120.418669 
L 101.385101 118.620238 
L 102.339506 117.250103 
z
" clip-path="url(#p4168ec136a)" style="fill: #eeeeee; stroke: #000000; stroke-width: 0.3"/>
    <path d="M 78.435465 90.805312 
L 78.976589 85.510171 
L 80.909053 85.206419 
L 83.415038 87.883581 
L 85.217034 85.101699 
L 87.612697 85.618138 
L 88.567102 84.317934 
L 90.792892 86.029216 
L 95.008935 85.835382 
L 96.288199 87.08811 
L 99.695182 85.917346 
L 102.060193 87.196078 
L 103.425261 86.799324 
L 105.216751 89.646253 
L 107.734996 88.811097 
L 109.275181 89.319733 
L 107.059904 95.66857 
L 111.33198 99.799441 
L 110.629744 100.772483 
L 108.462622 100.329537 
L 108.094869 101.018336 
L 110.06323 103.479563 
L 110.299641 105.967775 
L 109.087805 105.409057 
L 105.398002 106.687474 
L 106.74206 109.185126 
L 106.087979 109.710338 
L 104.637097 108.775345 
L 103.307933 110.13735 
L 103.093404 112.817444 
L 101.515561 113.15533 
L 101.446387 115.374592 
L 102.339506 117.250103 
L 101.849172 118.55032 
L 97.640136 116.339189 
L 96.085057 114.206748 
L 93.922392 113.893381 
L 94.822432 113.503965 
L 94.531732 112.48604 
L 91.664119 109.253094 
L 91.499508 107.241963 
L 89.466354 106.168757 
L 83.505223 99.448855 
L 81.722493 93.922159 
L 80.787345 93.676306 
L 80.975601 92.62261 
z
" clip-path="url(#p4168ec136a)" style="fill: #eeeeee; stroke: #000000; stroke-width: 0.3"/>
   </g>
   <g id="PatchCollection_2">
    <defs>
     <path id="maab9c9abff" d="M 25.847012 -48.581769 
L 26.934513 -50.430936 
L 26.070055 -52.002116 
L 28.057917 -52.680117 
L 30.095452 -51.415683 
L 30.605932 -49.793515 
L 31.676794 -49.962301 
L 31.25826 -48.686489 
L 33.532205 -50.258903 
L 33.540084 -52.536705 
L 37.178225 -51.953268 
L 38.201813 -50.189626 
L 40.38382 -50.232559 
L 43.632317 -52.695724 
L 48.318564 -52.889884 
L 48.343955 -54.157892 
L 48.899964 -54.48766 
L 48.870193 -53.819024 
L 51.054827 -53.189734 
L 53.30339 -53.667469 
L 53.446982 -52.257347 
L 55.335672 -51.139585 
L 55.930203 -53.574455 
L 54.404903 -54.380989 
L 55.245479 -55.936159 
L 53.15979 -59.378885 
L 58.755786 -62.600453 
L 59.170821 -65.078269 
L 61.390046 -64.426864 
L 62.23063 -67.507286 
L 64.425768 -65.308188 
L 66.548243 -64.891912 
L 67.673393 -65.956018 
L 69.515673 -65.113385 
L 70.572521 -67.634121 
L 71.751968 -67.461761 
L 72.111842 -70.546739 
L 79.198124 -68.840014 
L 81.458937 -67.210697 
L 83.771413 -67.014258 
L 85.137355 -68.000314 
L 88.131929 -66.910192 
L 88.742227 -65.464941 
L 87.890256 -62.46224 
L 90.464543 -57.929077 
L 89.242193 -56.139747 
L 89.846366 -54.191385 
L 87.49186 -53.775764 
L 85.546264 -54.766691 
L 84.190828 -53.597878 
L 86.075129 -53.102899 
L 86.574224 -52.045955 
L 86.165314 -50.974701 
L 84.412354 -50.268985 
L 84.745084 -48.758031 
L 84.232858 -47.629873 
L 85.052423 -47.005126 
L 84.333548 -45.577118 
L 84.856287 -45.255808 
L 83.064797 -45.328319 
L 80.580704 -43.105155 
L 80.877495 -41.129141 
L 79.471312 -41.80626 
L 77.651796 -41.719098 
L 76.183411 -40.423765 
L 72.788688 -40.863136 
L 70.996316 -40.253682 
L 68.369504 -37.453261 
L 50.279045 -41.373723 
L 49.106605 -43.614445 
L 47.922786 -44.126982 
L 48.378106 -46.346572 
L 44.601616 -44.90424 
L 39.854083 -44.819042 
L 38.349785 -42.367897 
L 34.02342 -43.340285 
L 33.067261 -45.226859 
L 30.846723 -43.349725 
L 28.845958 -44.360488 
L 28.700612 -45.468823 
L 26.355739 -45.989806 
z
" style="stroke: #dd0000; stroke-width: 0.5"/>
    </defs>
    <g clip-path="url(#p4168ec136a)">
     <use xlink:href="#maab9c9abff" x="0" y="108" style="fill: #ff6b6b; stroke: #dd0000; stroke-width: 0.5"/>
    </g>
   </g>
  </g>
 </g>
 <defs>
  <clipPath id="p4168ec136a">
   <rect x="0" y="0" width="116.311555" height="108"/>
  </clipPath>
 </defs>
</svg>
