<?xml version="1.0" encoding="utf-8" standalone="no"?>
<!DOCTYPE svg PUBLIC "-//W3C//DTD SVG 1.1//EN"
  "http://www.w3.org/Graphics/SVG/1.1/DTD/svg11.dtd">
<svg xmlns:xlink="http://www.w3.org/1999/xlink" width="109.920945pt" height="108pt" viewBox="0 0 109.920945 108" xmlns="http://www.w3.org/2000/svg" version="1.1">
 <metadata>
  <rdf:RDF xmlns:dc="http://purl.org/dc/elements/1.1/" xmlns:cc="http://creativecommons.org/ns#" xmlns:rdf="http://www.w3.org/1999/02/22-rdf-syntax-ns#">
   <cc:Work>
    <dc:type rdf:resource="http://purl.org/dc/dcmitype/StillImage"/>
    <dc:date>2025-09-05T13:56:19.539752</dc:date>
    <dc:format>image/svg+xml</dc:format>
    <dc:creator>
     <cc:Agent>
      <dc:title>Matplotlib v3.10.3, https://matplotlib.org/</dc:title>
     </cc:Agent>
    </dc:creator>
   </cc:Work>
  </rdf:RDF>
 </metadata>
 <defs>
  <style type="text/css">*{stroke-linejoin: round; stroke-linecap: butt}</style>
 </defs>
 <g id="figure_1">
  <g id="patch_1">
   <path d="M 0 108 
L 109.920945 108 
L 109.920945 0 
L 0 0 
z
" style="fill: #ffffff"/>
  </g>
  <g id="axes_1">
   <g id="PatchCollection_1">
    <path d="M -64.564276 97.867648 
L -64.514672 94.303901 
L -61.90895 92.073239 
L -54.26219 89.969505 
L -52.676493 92.073239 
L -52.137185 89.961208 
L -49.21485 90.989018 
L -48.313552 87.744653 
L -44.610228 87.126642 
L -44.49097 88.719375 
L -42.817138 87.14656 
L -43.258288 89.416202 
L -41.736953 88.162749 
L -37.511738 94.532031 
L -32.76148 90.667984 
L -32.946177 92.073239 
L -31.433817 93.047125 
L -29.341531 91.655978 
L -28.406982 94.439108 
L -29.034942 91.795343 
L -27.95739 90.667984 
L -26.636055 90.390925 
L -26.017081 92.352805 
L -20.318035 91.795343 
L -22.873634 89.677502 
L -23.513188 87.593687 
L -22.28157 83.835836 
L -23.391829 83.931226 
L -23.610283 80.121102 
L -22.806094 79.925326 
L -26.282508 76.699228 
L -27.166921 73.698733 
L -26.581185 71.887002 
L -27.82231 69.760048 
L -23.561742 71.269827 
L -19.105402 70.343218 
L -18.6479 71.799073 
L -19.66581 73.144594 
L -17.287517 77.479825 
L -14.921349 76.525021 
L -5.571748 78.812074 
L 2.608497 75.30641 
L 3.670215 74.459432 
L 0.605396 75.061684 
L -1.73228 73.615778 
L 0.333096 69.653873 
L 13.111634 64.563752 
L 16.999655 59.759008 
L 18.964772 60.210274 
L 17.265613 58.469898 
L 18.158455 56.578516 
L 17.442905 55.88336 
L 17.772189 46.423186 
L 29.97844 41.963737 
L 31.10216 44.540917 
L 30.820692 46.899753 
L 33.414236 49.388188 
L 37.85609 48.25249 
L 39.695024 53.392641 
L 44.068534 54.420879 
L 45.217193 58.055553 
L 49.191273 57.121074 
L 51.711105 58.865711 
L 50.779577 61.522706 
L 51.87194 62.909144 
L 50.855975 64.645361 
L 57.524118 64.451521 
L 59.724951 60.846348 
L 60.455427 61.285667 
L 59.314809 64.98566 
L 60.303968 65.902219 
L 60.159214 68.331654 
L 65.478983 70.428171 
L 68.032326 74.350443 
L 71.795966 73.321166 
L 74.575816 75.525142 
L 80.308425 75.033142 
L 84.342147 81.283711 
L 86.943732 80.309193 
L 88.605736 82.328809 
L 91.612107 82.381489 
L 93.377327 81.078271 
L 96.288522 83.752127 
L 103.620134 85.367184 
L 98.561732 92.371031 
L 97.789691 97.949971 
L 95.649188 102.264693 
L 96.108922 105.491648 
L 94.692191 110.876218 
L 95.653883 113.377762 
L 92.963165 116.516808 
L 87.70772 115.32527 
L 86.324499 118.076025 
L 88.528003 118.578564 
L 83.714874 124.862323 
L 80.82579 126.43471 
L 80.651545 130.172623 
L 76.621169 133.788317 
L 75.788825 137.132741 
L 76.836965 138.132009 
L 76.304854 140.524564 
L 74.499418 141.607603 
L 74.551695 143.02354 
L 76.905322 142.621101 
L 78.732194 140.789004 
L 77.862319 139.251907 
L 78.575366 138.037719 
L 81.348512 136.538032 
L 85.29244 137.23967 
L 84.816626 138.639298 
L 85.819195 140.189545 
L 85.014992 142.592641 
L 88.340362 147.207093 
L 85.470705 149.221429 
L 85.407704 151.429625 
L 90.137744 157.692854 
L 88.773289 161.714167 
L 82.901956 163.961322 
L 84.752289 167.949975 
L 88.146003 169.697792 
L 88.769256 172.494887 
L 87.533475 172.529667 
L 85.923734 175.570142 
L 86.987968 177.562358 
L 86.317795 178.870836 
L 87.831024 181.528891 
L 92.346604 183.903547 
L 96.556594 182.867929 
L 97.001582 185.084545 
L 94.251223 189.199087 
L 94.232302 191.255726 
L 90.020288 193.495522 
L 89.855511 195.549532 
L 87.562304 195.833176 
L 86.679681 198.126284 
L 84.567345 198.529559 
L 82.748461 201.36231 
L 84.077499 201.279233 
L 83.901478 202.735272 
L 79.953477 204.992356 
L 77.590966 204.626777 
L 77.420742 206.111989 
L 74.319416 204.112087 
L 73.22586 205.930402 
L 70.856696 203.176936 
L 66.616788 202.4428 
L 65.93196 199.597327 
L 62.558192 200.004985 
L 62.455896 198.499345 
L 65.052125 197.052624 
L 62.494944 195.456567 
L 62.779888 198.09287 
L 60.407405 198.252153 
L 60.246634 199.876486 
L 58.976305 198.233907 
L 58.776836 196.151723 
L 58.156281 195.038471 
L 58.7779 198.229748 
L 59.786266 199.783175 
L 48.538607 195.836499 
L 37.658697 204.67701 
L 36.722579 214.406781 
L 38.526886 218.434659 
L 35.320191 217.644846 
L 31.799139 220.319741 
L 26.809081 218.492925 
L 23.155335 220.122742 
L 19.478804 217.166017 
L 19.606142 214.798211 
L 15.810314 215.093191 
L 14.685776 212.783875 
L 7.816582 210.27701 
L 5.785974 210.13846 
L 5.621119 213.276914 
L -3.230428 213.263214 
L -6.911653 210.05524 
L -10.104991 211.479597 
L -12.577241 207.935014 
L -17.638328 206.727676 
L -19.403548 204.618499 
L -21.622459 205.925407 
L -20.926828 201.883544 
L -23.758954 201.808744 
L -26.022775 199.211809 
L -24.266204 198.695957 
L -21.878405 195.018573 
L -19.029939 175.121016 
L -18.112819 172.890354 
L -16.274353 172.809886 
L -17.927603 170.590844 
L -19.070569 173.665997 
L -16.799927 154.469406 
L -12.661782 159.422629 
L -12.010608 163.328143 
L -9.659224 168.211703 
L -10.457098 165.567939 
L -9.128904 166.111293 
L -11.232796 164.049863 
L -13.041721 156.343358 
L -18.901187 151.597512 
L -17.81837 149.624011 
L -15.527665 151.44569 
L -17.661645 148.371393 
L -16.325527 144.892273 
L -18.42785 142.124882 
L -17.130261 139.512636 
L -18.807788 139.888429 
L -26.009171 135.601311 
L -27.494077 131.579672 
L -30.202717 128.96659 
L -28.542074 124.574968 
L -31.789478 122.391583 
L -30.804805 121.873958 
L -30.744658 119.767717 
L -25.122644 120.9996 
L -28.79378 118.778071 
L -32.27284 120.272927 
L -35.69122 119.177921 
L -34.319217 119.036884 
L -35.878018 117.483151 
L -33.744038 116.659415 
L -35.078562 115.282355 
L -33.382049 114.977081 
L -36.858463 114.69835 
L -36.435261 114.50922 
L -36.142913 114.003194 
L -39.259451 115.118933 
L -40.454135 113.911942 
L -38.277943 114.056282 
L -37.593011 112.974548 
L -37.532851 112.595452 
L -37.825186 112.193115 
L -40.586063 113.155401 
L -41.302664 111.763419 
L -40.852021 113.863829 
L -43.229783 113.089021 
L -43.339017 115.546978 
L -44.232404 112.256988 
L -43.161711 110.3706 
L -44.136359 110.079433 
L -44.53846 111.914384 
L -46.277199 111.079863 
L -45.296223 111.205957 
L -46.277199 110.801133 
L -45.296223 109.244892 
L -47.420697 110.9322 
L -56.313859 106.460926 
L -57.001436 108.713994 
L -59.421423 108.840088 
L -60.236169 105.405757 
L -64.042398 104.081785 
L -58.300607 102.557083 
L -59.517986 100.172132 
L -61.829271 101.297005 
L -62.722114 99.057209 
L -61.689432 97.838597 
L -61.285217 98.878027 
L -58.092696 99.029829 
L -57.030978 98.639948 
L -60.48366 98.071702 
L -58.359173 96.110657 
z
M 22.530747 218.032016 
L 23.204927 218.181615 
L 22.648695 217.409377 
z
" clip-path="url(#p771f3e81b8)" style="fill: #eeeeee; stroke: #000000; stroke-width: 0.3"/>
    <path d="M 108.143262 219.543344 
L 109.575413 218.46742 
L 110.219195 215.423806 
L 115.519304 212.308022 
L 117.779934 213.475198 
L 118.487029 206.768287 
L 120.008895 207.047018 
L 119.734495 214.172025 
L 120.839476 215.742353 
L 121.247906 224.243564 
L 119.219464 228.190566 
L 119.199415 233.215958 
L 117.779934 234.847692 
L 118.537697 235.769306 
L 116.723494 238.480286 
L 116.884965 240.02407 
L 111.290406 236.176618 
L 112.988501 233.456525 
L 109.518416 232.330001 
L 111.467711 229.128775 
L 108.988614 229.254033 
L 108.625574 227.863722 
L 110.683558 226.077699 
L 108.359616 222.979326 
L 109.94163 221.666995 
z
" clip-path="url(#p771f3e81b8)" style="fill: #eeeeee; stroke: #000000; stroke-width: 0.3"/>
    <path d="M -22.902125 140.550415 
L -19.689556 141.464568 
L -19.343387 142.499024 
L -22.233547 141.449644 
z
" clip-path="url(#p771f3e81b8)" style="fill: #eeeeee; stroke: #000000; stroke-width: 0.3"/>
    <path d="M 119.9118 214.03266 
L 120.243184 214.589285 
L 120.174581 214.610019 
z
" clip-path="url(#p771f3e81b8)" style="fill: #eeeeee; stroke: #000000; stroke-width: 0.3"/>
    <path d="M 77.2407 206.851241 
L 77.356794 206.661276 
L 78.356251 206.790672 
z
" clip-path="url(#p771f3e81b8)" style="fill: #eeeeee; stroke: #000000; stroke-width: 0.3"/>
    <path d="M -20.945451 144.599434 
L -18.905402 145.647162 
L -18.407269 149.472209 
z
" clip-path="url(#p771f3e81b8)" style="fill: #eeeeee; stroke: #000000; stroke-width: 0.3"/>
    <path d="M -32.496585 124.619759 
L -31.256511 124.799776 
L -30.511419 127.134126 
z
" clip-path="url(#p771f3e81b8)" style="fill: #eeeeee; stroke: #000000; stroke-width: 0.3"/>
    <path d="M -33.628476 130.950876 
L -32.529823 131.001477 
L -32.150417 131.465199 
z
" clip-path="url(#p771f3e81b8)" style="fill: #eeeeee; stroke: #000000; stroke-width: 0.3"/>
    <path d="M -45.029733 117.483151 
L -42.499994 119.140593 
L -44.528955 118.93236 
z
" clip-path="url(#p771f3e81b8)" style="fill: #eeeeee; stroke: #000000; stroke-width: 0.3"/>
    <path d="M 73.246207 43.354109 
L 76.995116 40.644434 
L 75.819651 39.432366 
L 77.780553 35.845092 
L 77.592912 33.364567 
L 74.1965 27.119788 
L 77.110393 26.581449 
L 76.732413 25.466811 
L 79.55917 27.008638 
L 84.730839 25.230302 
L 85.579277 23.778524 
L 83.902515 22.128707 
L 88.395309 18.659454 
L 88.679462 15.918688 
L 87.70772 14.159312 
L 84.355544 13.951772 
L 83.796627 12.318265 
L 84.643717 10.421928 
L 88.293442 10.599438 
L 90.554578 3.015112 
L 90.577532 -2.0208 
L 91.357458 -3.539692 
L 92.807543 -3.19876 
L 88.360178 -4.699406 
L 88.721117 -7.475909 
L 89.892588 -7.97696 
L 89.179152 -8.989827 
L 90.985962 -10.613263 
L 101.429988 -11.461056 
L 103.200915 -8.303805 
L 102.021002 -6.580819 
L 103.68534 -5.39872 
L 105.109048 -6.707748 
L 104.020952 -7.733071 
L 104.532806 -9.519909 
L 108.18231 -8.108028 
L 107.377057 -6.941689 
L 107.563855 -4.325284 
L 108.359616 -8.171065 
L 107.326402 -11.305116 
L 108.642459 -14.770965 
L 116.723494 -14.802483 
L 121.543406 -9.080263 
L 124.781317 -8.108028 
L 121.560291 -9.511632 
L 119.11604 -13.967126 
L 117.334557 -15.079542 
L 113.791654 -15.313483 
L 112.901963 -16.136403 
L 111.829701 -18.15551 
L 113.955238 -18.028601 
L 114.228575 -19.408127 
L 111.563743 -21.092113 
L 113.513025 -23.887699 
L 109.821308 -22.900541 
L 108.801816 -24.304959 
L 114.140986 -27.735152 
L 109.954287 -32.403017 
L 109.591753 -35.685608 
L 117.156149 -33.758242 
L 121.51175 -35.073325 
L 124.673665 -32.840196 
L 126.278893 -33.304734 
L 127.196025 -31.708677 
L 126.044604 -31.151236 
L 127.466198 -31.006876 
L 127.307892 -28.828485 
L 124.885804 -27.102197 
L 128.819202 -27.439826 
L 129.603342 -26.81103 
L 128.798089 -24.026229 
L 131.088261 -26.45018 
L 136.443254 -23.736713 
L 141.685329 -25.279682 
L 140.791423 -24.723056 
L 140.791423 -21.161796 
L 136.719768 -18.434241 
L 138.658494 -16.624998 
L 142.198233 -17.779737 
L 145.863572 -15.49931 
L 148.872459 -20.576975 
L 154.039589 -21.369193 
L 154.084979 -19.736643 
L 154.387871 -19.408127 
L 154.308712 -21.143549 
L 159.819909 -27.36682 
L 164.842454 -26.250245 
L 160.99138 -26.034571 
L 159.731257 -25.001787 
L 158.583 -25.312872 
L 157.679601 -22.900541 
L 161.725916 -25.78903 
L 163.980217 -24.708133 
L 165.979104 -26.343169 
L 167.355308 -23.121189 
L 172.136185 -19.273757 
L 175.097581 -20.952748 
L 176.345034 -19.546677 
L 175.540831 -18.15551 
L 177.61465 -16.251712 
L 176.480127 -14.925253 
L 176.461128 -14.414253 
L 182.263598 -12.348685 
L 181.592375 -11.461056 
L 184.560761 -2.159819 
L 183.2861 1.983163 
L 180.707301 3.79155 
L 180.440577 6.019236 
L 187.195843 11.599766 
L 185.90645 15.570499 
L 188.072423 18.551994 
L 187.734659 20.893969 
L 188.707737 21.798438 
L 186.43052 27.359478 
L 188.332455 30.326722 
L 188.041597 32.938418 
L 191.223548 34.871634 
L 192.088055 38.921407 
L 191.2222 42.442811 
L 188.679595 47.618272 
L 186.785702 46.896593 
L 186.993457 45.364776 
L 185.970787 45.540715 
L 186.281746 44.248038 
L 185.086167 42.99012 
L 182.562328 42.9975 
L 181.924329 44.105798 
L 183.786048 45.361616 
L 183.327651 46.190734 
L 173.082821 49.727428 
L 171.674143 51.958804 
L 165.98979 54.09114 
L 165.249924 55.895817 
L 159.513308 56.209776 
L 156.792439 60.856888 
L 156.004317 58.904691 
L 153.883915 57.709993 
L 156.098144 63.218883 
L 159.692909 66.072898 
L 157.871405 69.377813 
L 161.242333 75.766401 
L 165.862465 78.509776 
L 168.179898 82.109669 
L 171.816213 85.643203 
L 173.75835 85.620023 
L 176.443711 89.284197 
L 175.15699 94.273688 
L 171.759917 93.218579 
L 171.124603 97.232002 
L 162.479464 102.596553 
L 165.751209 108.026443 
L 164.4645 110.545419 
L 166.799349 111.851796 
L 165.889271 115.795659 
L 162.998165 113.985172 
L 162.778362 111.701136 
L 159.336379 112.474945 
L 155.992256 111.455657 
L 156.037828 110.372639 
L 155.147851 112.960624 
L 147.97439 113.275114 
L 143.001761 117.264806 
L 139.661659 117.334346 
L 138.094805 114.477701 
L 132.525729 113.532683 
L 132.513668 117.222136 
L 129.032832 119.769042 
L 129.673502 117.702556 
L 128.034283 117.975945 
L 126.258338 114.271732 
L 124.133916 113.300394 
L 121.935768 114.656801 
L 116.369377 111.628436 
L 112.456948 111.919746 
L 108.261703 108.963021 
L 106.097066 111.729576 
L 108.898366 111.916586 
L 108.468123 113.218214 
L 104.043686 112.616655 
L 101.570774 113.868232 
L 95.961483 113.782913 
L 96.608857 113.133934 
L 95.653883 113.377762 
L 94.692191 110.876218 
L 96.108922 105.491648 
L 95.562066 102.575493 
L 97.789691 97.949971 
L 98.561732 92.371031 
L 103.620134 85.367184 
L 96.288522 83.752127 
L 93.377327 81.078271 
L 91.612107 82.381489 
L 88.605736 82.328809 
L 86.943732 80.309193 
L 84.494942 81.351131 
L 81.721123 75.863321 
L 79.563592 75.239214 
L 81.603174 68.301094 
L 79.009642 67.500416 
L 76.33568 63.144084 
L 76.98976 59.77175 
L 79.942506 57.703673 
L 79.454631 54.329219 
L 77.300718 53.575961 
L 78.315348 51.609024 
L 74.735316 48.19665 
L 75.912129 45.633415 
z
" clip-path="url(#p771f3e81b8)" style="fill: #eeeeee; stroke: #000000; stroke-width: 0.3"/>
    <path d="M 167.362701 -24.304959 
L 169.325704 -25.279682 
L 167.900945 -26.114203 
L 169.406977 -27.241562 
L 167.724703 -28.480908 
L 169.727805 -28.007236 
L 170.655481 -29.341972 
L 170.389536 -28.08854 
L 172.441191 -27.36682 
L 172.618497 -29.049154 
L 171.589498 -28.772074 
L 170.652316 -29.891972 
L 169.149462 -28.923896 
L 169.670821 -30.506661 
L 168.86029 -30.731468 
L 170.933045 -31.442403 
L 171.371031 -29.341972 
L 174.562501 -28.956251 
L 173.327705 -27.032514 
L 175.804676 -24.444325 
L 175.243217 -23.088019 
L 173.86595 -23.887699 
L 174.825294 -24.58369 
L 172.345147 -24.444325 
L 170.528843 -23.028286 
L 171.146235 -22.065184 
z
" clip-path="url(#p771f3e81b8)" style="fill: #eeeeee; stroke: #000000; stroke-width: 0.3"/>
    <path d="M 175.629484 -20.534672 
L 176.433687 -20.952748 
L 181.557554 -16.157973 
L 181.437803 -14.928515 
L 176.759806 -14.36033 
L 177.947098 -15.359945 
L 177.594601 -17.319338 
L 179.460509 -16.206902 
L 179.498507 -17.51593 
L 178.133909 -18.770219 
L 175.903885 -17.8768 
L 176.433687 -19.476995 
z
" clip-path="url(#p771f3e81b8)" style="fill: #eeeeee; stroke: #000000; stroke-width: 0.3"/>
    <path d="M 104.711161 -32.547357 
L 104.887416 -36.016529 
L 105.868924 -38.512651 
L 106.414548 -39.131477 
L 107.031952 -38.832849 
L 106.058887 -35.643223 
L 109.509973 -35.630787 
L 105.005624 -35.055079 
z
" clip-path="url(#p771f3e81b8)" style="fill: #eeeeee; stroke: #000000; stroke-width: 0.3"/>
    <path d="M 144.799753 -17.042258 
L 145.460421 -17.880102 
L 146.384932 -17.8768 
L 145.863572 -16.624998 
z
" clip-path="url(#p771f3e81b8)" style="fill: #eeeeee; stroke: #000000; stroke-width: 0.3"/>
    <path d="M 111.563743 -27.241562 
L 111.974287 -28.008072 
L 113.513025 -28.08854 
L 112.537859 -26.962831 
z
" clip-path="url(#p771f3e81b8)" style="fill: #eeeeee; stroke: #000000; stroke-width: 0.3"/>
    <path d="M 166.660871 -26.962831 
L 167.191737 -29.565128 
L 167.407027 -29.367701 
z
" clip-path="url(#p771f3e81b8)" style="fill: #eeeeee; stroke: #000000; stroke-width: 0.3"/>
    <path d="M 146.852459 -19.142689 
L 147.915228 -19.698479 
L 146.925278 -18.573607 
z
" clip-path="url(#p771f3e81b8)" style="fill: #eeeeee; stroke: #000000; stroke-width: 0.3"/>
    <path d="M 140.001992 -26.962831 
L 141.500632 -28.339055 
L 144.002943 -25.848744 
z
" clip-path="url(#p771f3e81b8)" style="fill: #eeeeee; stroke: #000000; stroke-width: 0.3"/>
    <path d="M 109.047724 -27.455585 
L 110.086216 -28.80029 
L 110.112594 -28.579621 
z
" clip-path="url(#p771f3e81b8)" style="fill: #eeeeee; stroke: #000000; stroke-width: 0.3"/>
    <path d="M 106.139097 -31.985757 
L 106.686835 -32.671799 
L 108.722669 -32.125122 
z
" clip-path="url(#p771f3e81b8)" style="fill: #eeeeee; stroke: #000000; stroke-width: 0.3"/>
    <path d="M 104.802991 -31.01187 
L 105.980791 -30.442788 
L 106.22775 -30.316695 
z
" clip-path="url(#p771f3e81b8)" style="fill: #eeeeee; stroke: #000000; stroke-width: 0.3"/>
    <path d="M 102.979296 -11.587985 
L 102.998282 -12.094846 
L 103.563968 -11.866716 
z
" clip-path="url(#p771f3e81b8)" style="fill: #eeeeee; stroke: #000000; stroke-width: 0.3"/>
    <path d="M 99.954575 -21.224853 
L 100.112881 -21.394085 
L 100.159322 -21.283751 
z
" clip-path="url(#p771f3e81b8)" style="fill: #eeeeee; stroke: #000000; stroke-width: 0.3"/>
    <path d="M 99.464871 -21.365869 
L 99.654847 -21.380813 
L 99.715008 -21.044836 
z
" clip-path="url(#p771f3e81b8)" style="fill: #eeeeee; stroke: #000000; stroke-width: 0.3"/>
    <path d="M 99.135601 -13.020619 
L 99.694945 -13.259514 
L 100.446379 -12.986594 
z
" clip-path="url(#p771f3e81b8)" style="fill: #eeeeee; stroke: #000000; stroke-width: 0.3"/>
    <path d="M 96.954131 -12.947614 
L 98.595243 -12.991588 
L 97.75727 -12.538651 
z
" clip-path="url(#p771f3e81b8)" style="fill: #eeeeee; stroke: #000000; stroke-width: 0.3"/>
    <path d="M 94.187975 -11.946348 
L 95.920917 -12.572656 
L 96.187926 -12.334577 
z
" clip-path="url(#p771f3e81b8)" style="fill: #eeeeee; stroke: #000000; stroke-width: 0.3"/>
    <path d="M 93.286691 -12.045061 
L 93.7025 -11.866716 
L 93.516765 -11.727351 
z
" clip-path="url(#p771f3e81b8)" style="fill: #eeeeee; stroke: #000000; stroke-width: 0.3"/>
    <path d="M 90.305245 -11.325013 
L 91.074615 -11.896583 
L 92.550028 -11.769654 
z
" clip-path="url(#p771f3e81b8)" style="fill: #eeeeee; stroke: #000000; stroke-width: 0.3"/>
    <path d="M 86.417224 -10.741008 
L 88.66412 -11.17735 
L 89.162267 -11.031359 
z
" clip-path="url(#p771f3e81b8)" style="fill: #eeeeee; stroke: #000000; stroke-width: 0.3"/>
    <path d="M 83.638412 -9.239526 
L 85.261588 -9.666756 
L 84.896421 -8.501232 
z
" clip-path="url(#p771f3e81b8)" style="fill: #eeeeee; stroke: #000000; stroke-width: 0.3"/>
    <path d="M 71.440785 66.349978 
L 74.587877 60.758908 
L 76.609108 61.679686 
L 77.973563 66.436358 
L 79.009642 67.500416 
L 79.422456 67.392956 
L 80.234699 68.037715 
L 81.083124 68.100935 
L 81.533481 68.224195 
L 81.603174 68.301094 
L 79.563592 75.239214 
L 74.575816 75.525142 
L 72.370976 73.559245 
L 73.600053 71.402689 
z
" clip-path="url(#p771f3e81b8)" style="fill: #eeeeee; stroke: #000000; stroke-width: 0.3"/>
    <path d="M 29.97844 41.963737 
L 40.711365 36.098768 
L 41.259194 38.717537 
L 44.084615 37.827319 
L 48.202114 39.543516 
L 52.020883 36.246003 
L 53.147444 38.218953 
L 52.534138 36.217909 
L 54.481565 36.475642 
L 54.717462 34.330135 
L 57.320396 35.222474 
L 59.246452 33.649557 
L 59.817429 35.314643 
L 59.031992 35.320963 
L 60.954027 35.758713 
L 62.473961 34.027776 
L 64.910691 38.473648 
L 68.513496 37.906849 
L 72.869576 40.558584 
L 70.215715 47.208432 
L 78.315348 51.609024 
L 77.300718 53.575961 
L 79.454631 54.329219 
L 79.942506 57.703673 
L 77.123789 59.59475 
L 76.609108 61.679686 
L 74.587877 60.758908 
L 71.440785 66.349978 
L 73.600053 71.402689 
L 72.9768 73.083066 
L 68.032326 74.350443 
L 65.478983 70.428171 
L 60.159214 68.331654 
L 60.303968 65.902219 
L 59.314809 64.98566 
L 60.33613 61.126587 
L 55.17586 65.44816 
L 50.855975 64.645361 
L 51.87194 62.909144 
L 50.779577 61.522706 
L 51.711105 58.865711 
L 49.191273 57.121074 
L 45.217193 58.055553 
L 44.068534 54.420879 
L 39.695024 53.392641 
L 37.85609 48.25249 
L 33.414236 49.388188 
L 30.820692 46.899753 
L 31.10216 44.540917 
z
" clip-path="url(#p771f3e81b8)" style="fill: #eeeeee; stroke: #000000; stroke-width: 0.3"/>
    <path d="M -83.57746 -73.040113 
L -77.380812 -74.18737 
L -78.606633 -75.085784 
L -77.085299 -75.409305 
L -76.132295 -75.984177 
L -79.513728 -76.41471 
L -78.353864 -78.51514 
L -77.362332 -79.114905 
L -76.10855 -78.155106 
L -74.976646 -78.243871 
L -74.353977 -78.654506 
L -77.6341 -80.119474 
L -72.760356 -80.74248 
L -76.398253 -81.792675 
L -75.066881 -84.011717 
L -72.849008 -83.260986 
L -74.077475 -84.234037 
L -73.282766 -85.082666 
L -77.026201 -84.652133 
L -74.06902 -86.137019 
L -73.379342 -87.17064 
L -78.04358 -85.80936 
L -78.450959 -90.383486 
L -75.867388 -88.992339 
L -74.216783 -89.612838 
L -78.019316 -91.675104 
L -76.309601 -93.041358 
L -77.992393 -93.738185 
L -78.087906 -95.559864 
L -76.628315 -96.291533 
L -76.132295 -94.724508 
L -75.424137 -94.281539 
L -75.51279 -97.508473 
L -70.441691 -95.838595 
L -72.317092 -97.79966 
L -68.486067 -95.559864 
L -73.36509 -100.680668 
L -71.468576 -100.390337 
L -70.707118 -101.975608 
L -72.652704 -104.289205 
L -66.706698 -103.507772 
L -69.814262 -106.176429 
L -69.423249 -107.41661 
L -67.77791 -106.873256 
L -68.937773 -109.26734 
L -67.414856 -111.770088 
L -65.440247 -111.295581 
L -65.209122 -109.656385 
L -64.669814 -111.33872 
L -63.159048 -110.292663 
L -64.468244 -108.093519 
L -62.185451 -110.665949 
L -60.130631 -110.099374 
L -61.023487 -108.125037 
L -54.976158 -111.093994 
L -46.35265 -111.209303 
L -46.492489 -112.763872 
L -41.878906 -112.014793 
L -43.307361 -109.41168 
L -42.322688 -108.45604 
L -43.314221 -106.489165 
L -54.624725 -97.647838 
L -55.693822 -98.230193 
L -54.720756 -96.267476 
L -59.688431 -97.090397 
L -55.117048 -95.253774 
L -51.739311 -96.017776 
L -54.447419 -92.762627 
L -58.422498 -92.439942 
L -60.155959 -90.347809 
L -54.720756 -92.610826 
L -55.96083 -90.383486 
L -58.005094 -89.828511 
L -57.827789 -88.71526 
L -46.937335 -93.320089 
L -28.632309 -92.901992 
L -26.450839 -91.080313 
L -25.54163 -88.228316 
L -28.406982 -85.082666 
L -31.079738 -76.831155 
L -34.19258 -73.503 
L -35.335546 -70.245363 
L -38.099068 -67.759211 
L -42.417151 -67.395874 
L -45.826025 -65.646344 
L -40.139636 -67.523619 
L -39.073703 -65.228248 
L -36.142913 -63.849537 
L -41.168634 -62.378759 
L -46.075085 -58.740354 
L -52.491795 -60.356308 
L -50.141462 -58.394428 
L -42.64563 -57.102831 
L -36.899093 -59.369986 
L -30.452309 -56.445819 
L -26.282508 -50.70203 
L -23.875191 -49.728144 
L -22.410853 -41.002942 
L -19.266341 -32.670963 
L -17.927603 -31.708677 
L -18.336033 -30.169032 
L -10.026505 -27.1445 
L -7.530004 -22.462526 
L -3.704776 -19.698479 
L -5.571748 -17.8768 
L -0.994567 -10.127156 
L -0.789821 -9.453549 
L -1.02411 -8.716091 
L -6.102069 -12.018517 
L -10.986901 -11.948835 
L -12.146764 -11.309254 
L -6.348509 -11.441158 
L 0.12097 -5.577901 
L 1.899289 0.003301 
L -2.592403 5.289178 
L 2.261279 7.696535 
L 4.661216 3.600218 
L 13.805021 4.418165 
L 18.597491 7.544733 
L 19.93361 10.615707 
L 20.243881 13.455267 
L 17.794352 21.700152 
L 14.552227 24.582832 
L 13.672042 23.476205 
L 12.290546 22.780214 
L 13.801856 24.158925 
L 11.139125 24.310726 
L 13.900002 24.450092 
L 12.830905 25.855346 
L 13.827184 26.52563 
L 11.091634 27.942505 
L 9.981375 26.550522 
L 6.333984 29.069029 
L 9.335492 28.588711 
L 9.263724 31.75428 
L 3.188954 33.441569 
L 2.261279 34.510866 
L 6.285443 34.023087 
L 4.465963 35.345387 
L 6.694924 35.206022 
L 7.187791 36.319273 
L 9.947605 36.629523 
L 16.056145 35.942665 
L 15.140076 37.097404 
L 15.228729 40.656156 
L 11.110633 42.435533 
L 9.981375 45.416946 
L 7.162464 45.157297 
L 0.78903 48.898554 
L -6.222909 47.188025 
L -12.969953 49.251942 
L -14.905515 46.944135 
L -15.963005 46.935838 
L -16.767208 48.214183 
L -16.590966 46.935838 
L -17.829976 46.935838 
L -17.653721 48.20505 
L -21.742793 45.416946 
L -19.808814 47.820979 
L -22.971779 49.477585 
L -29.167921 49.050356 
L -29.734658 49.885712 
L -28.05027 50.341973 
L -28.211209 51.858378 
L -33.828476 50.974092 
L -34.541912 53.378126 
L -39.877906 49.175634 
L -46.405419 51.554775 
L -47.653935 50.302157 
L -47.952613 54.769272 
L -48.844936 55.325898 
L -47.952613 55.88336 
L -50.198459 59.629591 
L -55.304378 58.011986 
L -57.200373 54.769272 
L -58.359173 56.034326 
L -57.112252 57.565674 
L -63.603881 57.13349 
L -67.599554 61.197452 
L -68.254943 60.143914 
L -69.201617 62.171339 
L -68.300851 62.899684 
L -70.046969 64.968576 
L -73.726029 61.476163 
L -76.712752 63.068896 
L -76.446794 60.842393 
L -71.651147 58.965139 
L -68.220109 55.395581 
L -67.770517 53.16659 
L -65.555809 53.655185 
L -66.537317 52.123837 
L -64.876674 52.001066 
L -62.085723 48.341092 
L -61.426638 43.443445 
L -58.97921 43.816751 
L -57.296936 42.191663 
L -57.562894 39.824959 
L -51.6058 38.698435 
L -41.914258 39.824959 
L -41.302664 35.915285 
L -33.634286 27.983972 
L -37.29117 31.164464 
L -41.302664 32.271091 
L -44.027657 35.642364 
L -48.623305 35.624118 
L -52.545628 31.077371 
L -58.359173 32.422056 
L -58.359173 31.169439 
L -55.783525 30.703229 
L -55.514403 29.967422 
L -58.688456 29.93674 
L -59.334352 27.662102 
L -66.803262 31.587535 
L -69.120876 29.917658 
L -65.555809 29.195938 
L -65.289851 27.52606 
L -69.939331 29.696173 
L -70.803681 28.790298 
L -68.997934 27.876961 
L -69.200567 26.296684 
L -71.600492 26.134077 
L -68.478688 22.824189 
L -65.511483 23.058945 
L -58.695316 18.951844 
L -56.020991 15.91404 
L -55.332883 12.567638 
L -53.916554 12.16365 
L -56.226788 11.049562 
L -54.447419 8.39169 
L -56.532313 6.805603 
L -55.60622 4.469581 
L -64.492509 7.266002 
L -59.245168 2.394063 
L -56.907505 -1.461687 
L -52.411585 -2.920029 
L -53.022648 -3.908024 
L -49.440696 -2.915055 
L -45.914678 -4.197539 
L -42.769116 -1.810101 
L -44.047706 -5.032896 
L -42.386545 -5.888986 
L -40.094259 -2.905106 
L -37.737597 -4.197539 
L -40.657831 -4.161026 
L -42.95275 -8.402518 
L -40.321688 -12.018517 
L -42.268869 -12.713673 
L -42.365433 -15.49931 
L -39.789253 -16.751927 
L -39.427263 -17.739086 
L -40.570229 -18.112392 
L -38.98505 -19.964774 
L -39.740699 -21.369193 
L -39.170798 -21.732529 
L -38.98505 -22.48328 
L -40.842516 -20.574487 
L -42.268869 -21.939926 
L -43.516322 -18.712972 
L -44.755864 -19.698479 
L -44.320525 -22.774447 
L -45.609672 -21.324402 
L -49.855455 -27.868707 
L -46.661884 -35.421739 
L -41.914258 -37.300665 
L -49.030152 -37.706325 
L -49.174738 -35.426713 
L -52.225837 -35.478985 
L -54.751362 -33.074116 
L -59.824575 -35.909518 
L -59.558617 -31.277309 
L -65.741025 -35.073325 
L -66.982149 -33.819057 
L -65.741025 -30.316695 
L -69.605833 -35.334646 
L -69.783125 -37.976758 
L -67.510901 -36.174977 
L -67.669208 -40.677769 
L -62.611298 -47.903142 
L -66.537317 -52.244999 
L -65.766352 -53.227183 
L -66.095636 -56.548692 
L -60.846181 -56.72455 
L -65.289851 -59.787246 
L -64.700951 -58.025281 
L -65.642879 -57.942326 
L -65.822299 -59.54668 
L -64.397527 -62.397005 
L -65.644462 -60.482402 
L -66.537317 -61.609761 
L -66.175846 -57.977167 
L -66.980567 -58.116533 
L -67.34943 -55.557375 
L -69.171012 -58.388618 
L -68.690282 -56.173734 
L -69.910826 -57.560743 
L -70.707118 -56.002851 
L -70.175733 -54.751049 
L -71.415807 -55.183253 
L -71.955102 -58.116533 
L -66.537317 -63.849537 
L -73.33132 -58.748652 
L -71.689144 -53.763055 
L -73.923915 -50.940945 
L -73.468513 -49.867509 
L -75.149737 -46.513646 
L -74.37719 -45.110879 
L -77.720638 -44.191731 
L -76.398253 -51.549823 
L -73.468513 -55.042236 
L -76.132295 -54.055058 
L -74.973482 -56.851479 
L -76.599304 -56.473199 
L -74.973482 -58.95189 
L -76.743358 -57.015717 
L -74.46216 -59.94651 
L -74.177203 -62.027022 
L -75.424137 -61.039864 
L -73.959267 -63.495333 
L -75.247351 -63.279639 
L -74.993544 -64.87486 
L -73.379342 -65.519435 
L -74.538674 -65.519435 
L -73.494904 -67.174369 
L -70.274942 -67.296324 
L -69.105054 -68.538157 
L -68.405339 -69.707819 
L -70.175733 -67.607409 
L -73.645287 -67.885304 
L -70.707118 -69.707819 
L -72.936079 -69.290559 
L -71.689144 -71.668864 
L -67.510901 -72.782952 
L -70.658045 -72.796224 
L -69.120876 -74.871762 
L -76.309601 -68.316672 
L -80.642455 -71.280635 
L -74.618884 -72.364855 
L -82.633962 -72.013139 
z
" clip-path="url(#p771f3e81b8)" style="fill: #eeeeee; stroke: #000000; stroke-width: 0.3"/>
    <path d="M -24.64456 -145.547635 
L -20.414598 -145.569205 
L -19.070569 -146.972808 
L -20.8167 -147.684558 
L -21.477367 -149.770045 
L -23.596563 -149.588377 
L -22.527997 -151.086535 
L -21.595575 -150.10851 
L -20.679493 -150.17487 
L -21.920099 -150.73066 
L -19.603017 -152.844342 
L -20.49534 -147.933422 
L -18.514921 -149.887005 
L -17.661645 -148.517428 
L -18.557133 -148.075275 
L -16.14031 -148.921417 
L -17.316009 -147.557629 
L -16.607319 -147.06406 
L -17.927603 -146.821006 
L -16.857974 -145.290474 
L -18.539185 -144.593667 
L -17.299124 -142.784424 
L -18.458988 -141.923339 
L -17.829976 -140.962724 
L -19.254735 -136.761884 
L -20.569741 -137.871833 
L -19.099593 -142.080135 
L -19.166082 -144.733032 
L -21.025661 -145.011763 
L -20.229382 -144.037857 
L -21.600321 -142.918794 
L -22.225624 -144.695704 
L -23.794981 -144.163135 
z
" clip-path="url(#p771f3e81b8)" style="fill: #eeeeee; stroke: #000000; stroke-width: 0.3"/>
    <path d="M -95.127012 -95.635357 
L -91.41841 -97.647838 
L -94.967642 -98.76109 
L -92.65742 -100.027 
L -94.260015 -99.748269 
L -94.967642 -102.6716 
L -92.303341 -103.380027 
L -92.689076 -103.262231 
L -91.684368 -101.139416 
L -91.812587 -102.822565 
L -89.736136 -102.822565 
L -91.152452 -104.772846 
L -83.429191 -109.137924 
L -82.708363 -106.024627 
L -85.284542 -103.797288 
L -82.611799 -103.380027 
L -85.727274 -103.240662 
L -85.373195 -101.836243 
L -88.56888 -100.722155 
L -85.815927 -101.139416 
L -85.107237 -99.748269 
L -87.603206 -99.317737 
L -86.443343 -98.48238 
L -87.506643 -97.356671 
L -89.108175 -97.508473 
L -89.736136 -99.039821 
L -88.214269 -100.153909 
L -89.462786 -100.153909 
L -90.444812 -99.039821 
L -89.108175 -96.520479 
L -90.742958 -96.897923 
L -90.158286 -95.525023 
L -92.923378 -93.738185 
z
" clip-path="url(#p771f3e81b8)" style="fill: #eeeeee; stroke: #000000; stroke-width: 0.3"/>
    <path d="M -108.727934 -26.826035 
L -102.685054 -29.72957 
L -105.561402 -31.616426 
L -100.547897 -32.533005 
L -98.760565 -37.872275 
L -94.201437 -38.793033 
L -93.01941 -41.7678 
L -81.846113 -42.129465 
L -80.358029 -37.427594 
L -76.514334 -33.581813 
L -79.335372 -29.759253 
L -75.020973 -31.277309 
L -73.194113 -26.81103 
L -74.256882 -24.304959 
L -74.804619 -27.848789 
L -76.67159 -29.190171 
L -75.681121 -26.40537 
L -76.760775 -24.58369 
L -75.08588 -25.234891 
L -74.740244 -23.498634 
L -78.747523 -22.112461 
L -79.159117 -19.546677 
L -81.568548 -18.117366 
L -85.138102 -19.668388 
L -88.714775 -18.26509 
L -88.840764 -20.837806 
L -90.753424 -21.551044 
L -93.736334 -25.835737 
L -96.000816 -24.23648 
L -95.493501 -21.984044 
L -97.136753 -19.984447 
L -101.403027 -20.264687 
L -104.611784 -21.722764 
z
" clip-path="url(#p771f3e81b8)" style="fill: #eeeeee; stroke: #000000; stroke-width: 0.3"/>
    <path d="M -90.701809 -87.879087 
L -89.821092 -89.057047 
L -88.405827 -87.623577 
L -88.714529 -88.803189 
L -87.852279 -88.840517 
L -88.84223 -90.955056 
L -84.568461 -88.005181 
L -85.927261 -91.739791 
L -84.568461 -92.901992 
L -82.532108 -90.592534 
L -82.974321 -86.613198 
L -81.823431 -85.34896 
L -82.532108 -84.803935 
L -75.963433 -83.968598 
L -80.623987 -79.152234 
L -78.53117 -82.412358 
L -81.107349 -83.260986 
L -81.685693 -81.171341 
L -82.669314 -82.678632 
L -84.665037 -81.856568 
L -84.12521 -82.691088 
L -86.789511 -84.930864 
L -84.736805 -84.922567 
L -87.41799 -87.043731 
L -87.852279 -85.639291 
z
" clip-path="url(#p771f3e81b8)" style="fill: #eeeeee; stroke: #000000; stroke-width: 0.3"/>
    <path d="M -46.386433 -119.675672 
L -45.83024 -121.945315 
L -44.000747 -122.347652 
L -41.559648 -120.842032 
L -43.144308 -119.310684 
L -38.099068 -118.754058 
L -39.346521 -116.932358 
L -41.387102 -118.534225 
L -44.260896 -117.633324 
L -44.586483 -120.133584 
L -45.384344 -118.335962 
z
" clip-path="url(#p771f3e81b8)" style="fill: #eeeeee; stroke: #000000; stroke-width: 0.3"/>
    <path d="M -87.066544 -51.690024 
L -86.310377 -55.104437 
L -84.8339 -55.943117 
L -84.568461 -54.484775 
L -82.353752 -56.990845 
L -80.930576 -52.663075 
L -84.262936 -49.592102 
L -84.676644 -50.607455 
L -83.690921 -51.25782 
L -84.75369 -52.384344 
L -83.77851 -53.636982 
z
" clip-path="url(#p771f3e81b8)" style="fill: #eeeeee; stroke: #000000; stroke-width: 0.3"/>
    <path d="M -85.284542 -64.754577 
L -83.742626 -64.540554 
L -80.806571 -65.97484 
L -83.172194 -65.939998 
L -80.752739 -68.454366 
L -84.922552 -69.441524 
L -82.498338 -71.474759 
L -76.494285 -67.050783 
L -78.055719 -64.688217 
L -83.996978 -63.55837 
z
" clip-path="url(#p771f3e81b8)" style="fill: #eeeeee; stroke: #000000; stroke-width: 0.3"/>
    <path d="M -99.411324 -83.399516 
L -98.559099 -84.933351 
L -99.057245 -86.475484 
L -96.039385 -84.803935 
L -96.834613 -83.399516 
L -98.083129 -83.525609 
L -96.875775 -81.831675 
L -97.994477 -81.589437 
L -96.304811 -80.894281 
L -98.083129 -80.603114 
z
" clip-path="url(#p771f3e81b8)" style="fill: #eeeeee; stroke: #000000; stroke-width: 0.3"/>
    <path d="M -62.004982 -2.641299 
L -62.004982 -5.032896 
L -58.810347 -5.577901 
L -57.235193 -3.110831 
L -55.155577 -3.19876 
L -59.872597 0.311899 
L -59.593969 -0.744942 
L -61.023487 -0.69269 
z
" clip-path="url(#p771f3e81b8)" style="fill: #eeeeee; stroke: #000000; stroke-width: 0.3"/>
    <path d="M -100.570656 -90.662217 
L -97.552264 -92.610826 
L -94.348668 -91.49841 
L -96.304811 -91.49841 
L -95.133872 -90.216741 
L -97.552264 -89.828511 
L -95.548099 -88.992339 
z
" clip-path="url(#p771f3e81b8)" style="fill: #eeeeee; stroke: #000000; stroke-width: 0.3"/>
    <path d="M -17.689605 -150.098541 
L -17.171423 -154.306007 
L -15.527665 -153.958429 
L -15.609458 -152.693376 
L -16.502313 -153.249166 
L -16.002585 -149.989042 
z
" clip-path="url(#p771f3e81b8)" style="fill: #eeeeee; stroke: #000000; stroke-width: 0.3"/>
    <path d="M -47.250783 -117.002041 
L -44.822354 -117.231007 
L -43.870933 -115.678905 
L -44.852428 -115.110679 
L -43.339017 -115.401846 
L -45.512576 -114.844384 
z
" clip-path="url(#p771f3e81b8)" style="fill: #eeeeee; stroke: #000000; stroke-width: 0.3"/>
    <path d="M -81.511565 -56.473199 
L -79.062554 -57.700108 
L -80.479402 -57.901674 
L -76.49007 -60.716343 
L -80.044581 -54.206044 
L -81.345866 -54.30227 
z
" clip-path="url(#p771f3e81b8)" style="fill: #eeeeee; stroke: #000000; stroke-width: 0.3"/>
    <path d="M -72.66326 -50.980761 
L -70.13985 -52.158721 
L -68.486067 -48.183524 
L -69.095548 -46.764997 
L -71.519231 -47.221238 
z
" clip-path="url(#p771f3e81b8)" style="fill: #eeeeee; stroke: #000000; stroke-width: 0.3"/>
    <path d="M -15.255379 -153.804977 
L -14.900768 -156.046403 
L -12.735132 -156.724984 
L -13.384193 -153.699617 
z
" clip-path="url(#p771f3e81b8)" style="fill: #eeeeee; stroke: #000000; stroke-width: 0.3"/>
    <path d="M -16.136096 -146.669185 
L -15.777257 -147.256513 
L -14.64062 -147.607414 
L -15.382548 -146.672508 
z
" clip-path="url(#p771f3e81b8)" style="fill: #eeeeee; stroke: #000000; stroke-width: 0.3"/>
    <path d="M -23.079431 50.720254 
L -19.824648 48.393365 
L -16.767208 49.592894 
L -19.314896 52.259879 
z
" clip-path="url(#p771f3e81b8)" style="fill: #eeeeee; stroke: #000000; stroke-width: 0.3"/>
    <path d="M -37.560292 -121.165553 
L -36.674297 -121.956935 
L -37.293283 -122.51191 
L -35.338191 -121.260108 
z
" clip-path="url(#p771f3e81b8)" style="fill: #eeeeee; stroke: #000000; stroke-width: 0.3"/>
    <path d="M -39.427263 -123.360538 
L -38.532826 -124.487062 
L -38.187708 -122.37338 
L -38.896398 -122.310323 
z
" clip-path="url(#p771f3e81b8)" style="fill: #eeeeee; stroke: #000000; stroke-width: 0.3"/>
    <path d="M -42.268869 -125.866609 
L -41.17971 -126.705268 
L -39.427263 -124.487062 
L -40.144382 -124.044909 
z
" clip-path="url(#p771f3e81b8)" style="fill: #eeeeee; stroke: #000000; stroke-width: 0.3"/>
    <path d="M -70.155684 -56.373649 
L -68.617464 -55.731581 
L -67.954164 -53.07952 
L -69.067056 -53.790435 
z
" clip-path="url(#p771f3e81b8)" style="fill: #eeeeee; stroke: #000000; stroke-width: 0.3"/>
    <path d="M -81.432405 -87.464314 
L -80.449846 -88.9102 
L -80.400242 -85.654235 
L -81.372257 -85.639291 
z
" clip-path="url(#p771f3e81b8)" style="fill: #eeeeee; stroke: #000000; stroke-width: 0.3"/>
    <path d="M -83.955816 -68.037942 
L -83.328918 -68.454366 
L -82.611799 -67.759211 
L -83.615989 -67.76916 
z
" clip-path="url(#p771f3e81b8)" style="fill: #eeeeee; stroke: #000000; stroke-width: 0.3"/>
    <path d="M -86.443343 -78.654506 
L -84.75369 -79.767758 
L -83.690921 -78.781415 
L -84.116236 -77.617562 
z
" clip-path="url(#p771f3e81b8)" style="fill: #eeeeee; stroke: #000000; stroke-width: 0.3"/>
    <path d="M -88.400017 -79.628392 
L -87.506643 -80.058089 
L -86.886606 -79.767758 
L -87.646482 -79.543766 
z
" clip-path="url(#p771f3e81b8)" style="fill: #eeeeee; stroke: #000000; stroke-width: 0.3"/>
    <path d="M -89.63904 -70.125916 
L -87.788954 -71.749331 
L -86.491897 -72.011467 
L -88.5293 -69.912708 
z
" clip-path="url(#p771f3e81b8)" style="fill: #eeeeee; stroke: #000000; stroke-width: 0.3"/>
    <path d="M -100.725267 -77.616727 
L -99.330582 -79.767758 
L -98.613982 -78.781415 
L -99.279927 -77.494792 
z
" clip-path="url(#p771f3e81b8)" style="fill: #eeeeee; stroke: #000000; stroke-width: 0.3"/>
    <path d="M 6.792019 35.345387 
L 7.220511 34.616226 
L 9.417803 36.184067 
z
" clip-path="url(#p771f3e81b8)" style="fill: #eeeeee; stroke: #000000; stroke-width: 0.3"/>
    <path d="M -14.900768 -152.552359 
L -13.387357 -152.552359 
L -13.829038 -151.300558 
z
" clip-path="url(#p771f3e81b8)" style="fill: #eeeeee; stroke: #000000; stroke-width: 0.3"/>
    <path d="M -15.963005 48.062361 
L -15.338222 47.218727 
L -14.900768 48.214183 
z
" clip-path="url(#p771f3e81b8)" style="fill: #eeeeee; stroke: #000000; stroke-width: 0.3"/>
    <path d="M -17.44371 -143.377542 
L -16.724464 -143.573319 
L -16.781979 -141.878548 
z
" clip-path="url(#p771f3e81b8)" style="fill: #eeeeee; stroke: #000000; stroke-width: 0.3"/>
    <path d="M -20.465253 -140.648336 
L -20.177145 -141.955693 
L -20.019889 -140.623444 
z
" clip-path="url(#p771f3e81b8)" style="fill: #eeeeee; stroke: #000000; stroke-width: 0.3"/>
    <path d="M -23.802373 -130.678814 
L -23.256204 -130.76342 
L -23.432978 -130.194358 
z
" clip-path="url(#p771f3e81b8)" style="fill: #eeeeee; stroke: #000000; stroke-width: 0.3"/>
    <path d="M -30.118811 -142.547996 
L -29.802198 -142.903871 
L -29.479256 -142.139848 
z
" clip-path="url(#p771f3e81b8)" style="fill: #eeeeee; stroke: #000000; stroke-width: 0.3"/>
    <path d="M -37.644717 -123.267635 
L -36.593568 -125.321583 
L -33.752481 -125.167294 
z
" clip-path="url(#p771f3e81b8)" style="fill: #eeeeee; stroke: #000000; stroke-width: 0.3"/>
    <path d="M -42.092095 -115.678905 
L -40.122219 -115.926118 
L -40.852021 -113.857226 
z
" clip-path="url(#p771f3e81b8)" style="fill: #eeeeee; stroke: #000000; stroke-width: 0.3"/>
    <path d="M -43.192849 -122.947417 
L -41.020884 -123.081808 
L -42.821353 -122.258887 
z
" clip-path="url(#p771f3e81b8)" style="fill: #eeeeee; stroke: #000000; stroke-width: 0.3"/>
    <path d="M -63.371706 39.811687 
L -63.203893 40.387395 
L -63.29466 40.484437 
z
" clip-path="url(#p771f3e81b8)" style="fill: #eeeeee; stroke: #000000; stroke-width: 0.3"/>
    <path d="M -63.599134 -3.338126 
L -62.721582 -3.567072 
L -61.90895 -1.957743 
z
" clip-path="url(#p771f3e81b8)" style="fill: #eeeeee; stroke: #000000; stroke-width: 0.3"/>
    <path d="M -75.149737 -66.076876 
L -74.396189 -66.617743 
L -74.088019 -66.772052 
z
" clip-path="url(#p771f3e81b8)" style="fill: #eeeeee; stroke: #000000; stroke-width: 0.3"/>
    <path d="M -75.630453 -63.814696 
L -75.618328 -64.796064 
L -75.149737 -64.824259 
z
" clip-path="url(#p771f3e81b8)" style="fill: #eeeeee; stroke: #000000; stroke-width: 0.3"/>
    <path d="M -76.213556 -62.722198 
L -75.486399 -63.271342 
L -75.834681 -62.045268 
z
" clip-path="url(#p771f3e81b8)" style="fill: #eeeeee; stroke: #000000; stroke-width: 0.3"/>
    <path d="M -77.283185 -61.470396 
L -77.143346 -61.804702 
L -76.304323 -61.834569 
z
" clip-path="url(#p771f3e81b8)" style="fill: #eeeeee; stroke: #000000; stroke-width: 0.3"/>
    <path d="M -80.406583 -89.438631 
L -80.042467 -90.342834 
L -79.955409 -90.244956 
z
" clip-path="url(#p771f3e81b8)" style="fill: #eeeeee; stroke: #000000; stroke-width: 0.3"/>
    <path d="M -80.716855 -85.045337 
L -79.620316 -84.836289 
L -80.637708 -84.763303 
z
" clip-path="url(#p771f3e81b8)" style="fill: #eeeeee; stroke: #000000; stroke-width: 0.3"/>
    <path d="M -84.036557 -58.95189 
L -82.266163 -60.482402 
L -82.797015 -59.078819 
z
" clip-path="url(#p771f3e81b8)" style="fill: #eeeeee; stroke: #000000; stroke-width: 0.3"/>
    <path d="M -84.213863 -43.855774 
L -82.797015 -43.995119 
L -82.765346 -43.776958 
z
" clip-path="url(#p771f3e81b8)" style="fill: #eeeeee; stroke: #000000; stroke-width: 0.3"/>
    <path d="M -84.545779 65.896001 
L -84.221774 65.710194 
L -84.391687 65.97814 
z
" clip-path="url(#p771f3e81b8)" style="fill: #eeeeee; stroke: #000000; stroke-width: 0.3"/>
    <path d="M -85.06186 64.86238 
L -84.770575 65.170978 
L -84.848671 65.323616 
z
" clip-path="url(#p771f3e81b8)" style="fill: #eeeeee; stroke: #000000; stroke-width: 0.3"/>
    <path d="M -91.949262 -104.215384 
L -90.797841 -103.240662 
L -91.86166 -103.240662 
z
" clip-path="url(#p771f3e81b8)" style="fill: #eeeeee; stroke: #000000; stroke-width: 0.3"/>
    <path d="M -93.37402 -68.454366 
L -89.993638 -68.998556 
L -91.969311 -67.244052 
z
" clip-path="url(#p771f3e81b8)" style="fill: #eeeeee; stroke: #000000; stroke-width: 0.3"/>
    <path d="M -94.533884 -96.520479 
L -93.994589 -97.254635 
L -93.471116 -97.229762 
z
" clip-path="url(#p771f3e81b8)" style="fill: #eeeeee; stroke: #000000; stroke-width: 0.3"/>
    <path d="M -96.085293 -93.006517 
L -95.841498 -93.551542 
L -95.476344 -93.380638 
z
" clip-path="url(#p771f3e81b8)" style="fill: #eeeeee; stroke: #000000; stroke-width: 0.3"/>
    <path d="M -98.791287 -87.658419 
L -98.29842 -88.54935 
L -96.169199 -87.107603 
z
" clip-path="url(#p771f3e81b8)" style="fill: #eeeeee; stroke: #000000; stroke-width: 0.3"/>
    <path d="M -114.323297 -95.421335 
L -113.635189 -95.268697 
L -114.136499 -94.980018 
z
" clip-path="url(#p771f3e81b8)" style="fill: #eeeeee; stroke: #000000; stroke-width: 0.3"/>
    <path d="M 42.02903 32.948815 
L 47.217273 31.296368 
L 50.507939 34.661852 
L 52.821338 34.6212 
L 48.994528 31.714465 
L 51.836666 31.714465 
L 50.613477 30.713199 
L 51.443007 29.765856 
L 47.362909 27.111287 
L 50.155442 26.550522 
L 49.351253 23.612248 
L 50.988137 23.24726 
L 55.738408 16.503856 
L 58.815885 3.63506 
L 60.480223 4.932488 
L 63.130284 3.912139 
L 67.035178 0.989644 
L 69.788663 -3.19876 
L 74.836548 -5.304145 
L 85.837817 -6.211672 
L 86.764443 -4.197539 
L 90.577532 -2.0208 
L 90.554578 3.015112 
L 88.529339 10.163279 
L 84.643717 10.421928 
L 83.796627 12.318265 
L 84.355544 13.951772 
L 87.70772 14.159312 
L 88.679462 15.918688 
L 88.395309 18.659454 
L 83.812721 22.340997 
L 85.599379 24.165184 
L 79.55917 27.008638 
L 76.732413 25.466811 
L 77.110393 26.581449 
L 74.1965 27.119788 
L 77.748391 34.402305 
L 75.819651 39.432366 
L 76.995116 40.644434 
L 73.172494 42.87687 
L 73.459319 44.454517 
L 75.912129 45.633415 
L 75.019468 48.846669 
L 71.279949 48.759229 
L 70.215715 47.208432 
L 72.869576 40.558584 
L 68.513496 37.906849 
L 64.910691 38.473648 
L 62.473961 34.027776 
L 60.954027 35.758713 
L 59.031992 35.320963 
L 59.817429 35.314643 
L 59.246452 33.649557 
L 57.320396 35.222474 
L 55.413093 34.078336 
L 54.039262 34.719405 
L 54.234943 36.604691 
L 49.132785 34.510866 
L 46.906988 35.775919 
z
" clip-path="url(#p771f3e81b8)" style="fill: #eeeeee; stroke: #000000; stroke-width: 0.3"/>
    <path d="M 40.711365 36.098768 
L 43.2005 35.252484 
L 46.995641 36.750642 
L 48.94281 35.380228 
L 52.020883 36.246003 
L 50.691106 38.194999 
L 46.667434 39.562476 
L 44.084615 37.827319 
L 41.259194 38.717537 
z
" clip-path="url(#p771f3e81b8)" style="fill: #eeeeee; stroke: #000000; stroke-width: 0.3"/>
    <path d="M 58.326194 2.394063 
L 60.227986 -0.852789 
L 60.724018 0.710913 
L 59.467059 2.968099 
z
" clip-path="url(#p771f3e81b8)" style="fill: #eeeeee; stroke: #000000; stroke-width: 0.3"/>
    <path d="M 80.9873 -8.403354 
L 81.700736 -8.108028 
L 81.523431 -7.957042 
z
" clip-path="url(#p771f3e81b8)" style="fill: #eeeeee; stroke: #000000; stroke-width: 0.3"/>
    <path d="M 76.738339 -6.401638 
L 79.116114 -7.507428 
L 79.478104 -7.260235 
z
" clip-path="url(#p771f3e81b8)" style="fill: #eeeeee; stroke: #000000; stroke-width: 0.3"/>
    <path d="M 70.365955 -6.172692 
L 73.967969 -6.686179 
L 74.496708 -6.425694 
z
" clip-path="url(#p771f3e81b8)" style="fill: #eeeeee; stroke: #000000; stroke-width: 0.3"/>
    <path d="M 64.291198 -4.532681 
L 65.361346 -5.311627 
L 69.707402 -6.273057 
z
" clip-path="url(#p771f3e81b8)" style="fill: #eeeeee; stroke: #000000; stroke-width: 0.3"/>
    <path d="M 60.951978 -1.357163 
L 61.941916 -2.93744 
L 63.476439 -3.338126 
z
" clip-path="url(#p771f3e81b8)" style="fill: #eeeeee; stroke: #000000; stroke-width: 0.3"/>
    <path d="M 45.085407 29.626491 
L 46.739189 28.494157 
L 50.437235 30.412898 
z
" clip-path="url(#p771f3e81b8)" style="fill: #eeeeee; stroke: #000000; stroke-width: 0.3"/>
   </g>
   <g id="PatchCollection_2">
    <defs>
     <path id="md8f25d952d" d="M 29.97844 -66.036263 
L 40.711365 -71.901232 
L 41.259194 -69.282463 
L 44.084615 -70.172681 
L 48.202114 -68.456484 
L 52.020883 -71.753997 
L 53.147444 -69.781047 
L 52.534138 -71.782091 
L 54.481565 -71.524358 
L 54.717462 -73.669865 
L 57.320396 -72.777526 
L 59.246452 -74.350443 
L 59.817429 -72.685357 
L 59.031992 -72.679037 
L 60.954027 -72.241287 
L 62.473961 -73.972224 
L 64.910691 -69.526352 
L 68.513496 -70.093151 
L 72.869576 -67.441416 
L 70.215715 -60.791568 
L 78.315348 -56.390976 
L 77.300718 -54.424039 
L 79.454631 -53.670781 
L 79.942506 -50.296327 
L 77.123789 -48.40525 
L 76.609108 -46.320314 
L 74.587877 -47.241092 
L 71.440785 -41.650022 
L 73.600053 -36.597311 
L 72.9768 -34.916934 
L 68.032326 -33.649557 
L 65.478983 -37.571829 
L 60.159214 -39.668346 
L 60.303968 -42.097781 
L 59.314809 -43.01434 
L 60.33613 -46.873413 
L 55.17586 -42.55184 
L 50.855975 -43.354639 
L 51.87194 -45.090856 
L 50.779577 -46.477294 
L 51.711105 -49.134289 
L 49.191273 -50.878926 
L 45.217193 -49.944447 
L 44.068534 -53.579121 
L 39.695024 -54.607359 
L 37.85609 -59.74751 
L 33.414236 -58.611812 
L 30.820692 -61.100247 
L 31.10216 -63.459083 
z
" style="stroke: #dd0000; stroke-width: 0.5"/>
    </defs>
    <g clip-path="url(#p771f3e81b8)">
     <use xlink:href="#md8f25d952d" x="0" y="108" style="fill: #ff6b6b; stroke: #dd0000; stroke-width: 0.5"/>
    </g>
   </g>
  </g>
 </g>
 <defs>
  <clipPath id="p771f3e81b8">
   <rect x="0" y="0" width="109.920945" height="108"/>
  </clipPath>
 </defs>
</svg>
