<?xml version="1.0" encoding="utf-8" standalone="no"?>
<!DOCTYPE svg PUBLIC "-//W3C//DTD SVG 1.1//EN"
  "http://www.w3.org/Graphics/SVG/1.1/DTD/svg11.dtd">
<svg xmlns:xlink="http://www.w3.org/1999/xlink" width="170.525465pt" height="108pt" viewBox="0 0 170.525465 108" xmlns="http://www.w3.org/2000/svg" version="1.1">
 <metadata>
  <rdf:RDF xmlns:dc="http://purl.org/dc/elements/1.1/" xmlns:cc="http://creativecommons.org/ns#" xmlns:rdf="http://www.w3.org/1999/02/22-rdf-syntax-ns#">
   <cc:Work>
    <dc:type rdf:resource="http://purl.org/dc/dcmitype/StillImage"/>
    <dc:date>2025-09-05T15:49:27.511003</dc:date>
    <dc:format>image/svg+xml</dc:format>
    <dc:creator>
     <cc:Agent>
      <dc:title>Matplotlib v3.10.3, https://matplotlib.org/</dc:title>
     </cc:Agent>
    </dc:creator>
   </cc:Work>
  </rdf:RDF>
 </metadata>
 <defs>
  <style type="text/css">*{stroke-linejoin: round; stroke-linecap: butt}</style>
 </defs>
 <g id="figure_1">
  <g id="patch_1">
   <path d="M 0 108 
L 170.525465 108 
L 170.525465 0 
L 0 0 
z
" style="fill: #ffffff"/>
  </g>
  <g id="axes_1">
   <g id="PatchCollection_1">
    <path d="M 143.654684 142.937813 
L 144.307518 141.328999 
L 146.097273 140.066469 
L 147.456205 141.338716 
L 148.900059 140.968074 
L 148.366494 140.482219 
L 149.157599 138.682473 
L 147.455516 137.794749 
L 148.057579 136.68422 
L 147.119211 135.526501 
L 146.41646 135.751381 
L 147.03702 134.179986 
L 146.651395 132.144945 
L 147.909633 132.718257 
L 149.117876 132.140781 
L 149.939121 132.717566 
L 152.569983 132.146335 
L 152.838479 130.572167 
L 152.355599 129.152082 
L 152.750807 129.42624 
L 153.717262 128.756458 
L 154.858377 129.387377 
L 156.207713 131.787499 
L 155.948118 132.431601 
L 159.194748 132.892474 
L 161.078682 130.582576 
L 162.158834 132.346924 
L 161.758828 133.06391 
L 163.377348 133.279072 
L 164.334213 132.314306 
L 163.761601 131.440456 
L 164.404767 129.761484 
L 165.413682 129.304781 
L 165.754785 127.823618 
L 165.198615 127.325265 
L 165.849992 126.899797 
L 166.013008 125.964177 
L 165.377385 123.371793 
L 166.028079 120.535095 
L 164.905453 119.484261 
L 163.839001 119.555749 
L 163.412969 118.357078 
L 161.662256 117.878859 
L 162.258156 116.855089 
L 161.927325 115.180281 
L 162.417746 114.146102 
L 163.284196 112.876635 
L 164.959565 112.327613 
L 165.882869 110.366497 
L 164.655455 108.909973 
L 164.452025 107.562074 
L 163.738313 107.153778 
L 161.420468 106.866256 
L 159.755034 107.879958 
L 157.148825 108.06042 
L 157.818698 107.51626 
L 157.012523 105.805013 
L 157.228279 103.740826 
L 158.10569 101.986538 
L 165.649989 102.180881 
L 166.506167 101.665874 
L 167.849339 102.628565 
L 168.460309 102.289507 
L 168.695245 103.02523 
L 170.817195 102.802083 
L 171.643922 103.595587 
L 172.608322 103.230325 
L 174.091905 103.524966 
L 176.126867 104.603911 
L 176.498111 105.388047 
L 177.089213 104.849091 
L 176.465234 103.209506 
L 176.60359 102.06636 
L 177.41182 101.570089 
L 179.210482 97.451775 
L 179.120066 95.301521 
L 180.001593 92.98347 
L 183.969464 92.445912 
L 185.703736 91.59601 
L 187.918839 92.205587 
L 188.243507 92.7251 
L 189.833258 92.568586 
L 190.492853 93.146579 
L 190.936698 92.491719 
L 192.418227 92.107894 
L 193.440847 93.150051 
L 193.352493 95.491701 
L 189.769558 101.993482 
L 189.762705 106.080387 
L 188.405834 109.672069 
L 188.928444 113.96564 
L 187.409928 117.814308 
L 187.629793 120.014533 
L 184.703721 123.315576 
L 182.811907 123.866674 
L 181.557095 125.021619 
L 179.441308 129.17429 
L 177.324838 131.153108 
L 177.530315 138.749798 
L 175.452885 142.807382 
L 172.94531 143.75133 
L 172.449414 144.797999 
L 170.759658 145.638533 
L 168.289075 148.835457 
L 167.239058 149.405298 
L 166.226027 149.011749 
L 165.436287 149.313676 
L 165.105463 147.116225 
L 165.893831 146.245155 
L 165.345872 145.222776 
L 162.412948 146.70672 
L 160.891695 146.4041 
L 160.875253 147.966469 
L 158.755701 149.307431 
L 156.898137 147.2363 
L 156.333743 147.472979 
L 155.29126 146.128552 
L 154.574129 145.989041 
L 153.660413 147.117608 
L 152.091206 147.427863 
L 151.659694 148.587671 
L 150.80009 148.489112 
L 149.589972 150.209318 
L 148.33479 148.632283 
L 148.243327 147.237569 
z
" clip-path="url(#pe9084665d2)" style="fill: #eeeeee; stroke: #000000; stroke-width: 0.3"/>
    <path d="M -18.149726 55.78017 
L -16.922477 55.763683 
L -15.883593 54.864502 
L -15.875369 54.229244 
L -14.591278 53.723961 
L -12.657341 50.140607 
L -11.361083 49.818203 
L -10.46381 50.183466 
L -9.00865 49.865575 
L -8.931251 49.393427 
L -4.538714 49.387531 
L -2.146551 52.241582 
L -1.784904 53.425331 
L -0.746875 54.000725 
L -1.218799 55.495938 
L -0.209878 55.695486 
L -0.246864 57.298639 
L 0.533969 58.258375 
L -1.145509 60.84503 
L 1.856935 59.519864 
L 1.600422 61.544664 
L -0.3294 62.560448 
L -0.349606 64.325488 
L -5.002076 68.055813 
L -6.055639 70.031186 
L -8.463992 68.489461 
L -12.884297 66.872037 
L -11.975539 66.872037 
L -12.769421 66.501228 
L -12.365737 65.906613 
L -10.745334 65.442342 
L -12.600347 65.715876 
L -13.13185 65.101041 
L -12.522411 64.291648 
L -13.515845 64.898014 
L -15.742453 63.537457 
L -14.969865 63.328957 
L -15.569595 62.56848 
L -15.331757 62.082625 
L -15.969237 61.069648 
L -17.240696 61.624096 
L -18.054804 59.415066 
L -16.376698 60.244681 
L -16.923842 59.598148 
L -15.290768 58.952166 
L -15.697958 58.86035 
L -15.331757 58.172831 
L -16.56411 58.857892 
L -16.331395 58.402096 
L -17.199435 58.268468 
L -16.866675 58.872646 
L -17.230715 59.298107 
L -17.746313 57.228447 
L -16.059572 57.018309 
L -17.01822 56.971581 
L -16.65202 56.467688 
L -17.923479 56.380519 
z
" clip-path="url(#pe9084665d2)" style="fill: #eeeeee; stroke: #000000; stroke-width: 0.3"/>
    <path d="M -15.833869 65.625699 
L -13.645288 65.193952 
L -12.794233 65.675435 
L -13.169871 66.873401 
L -13.540121 66.275516 
z
" clip-path="url(#pe9084665d2)" style="fill: #eeeeee; stroke: #000000; stroke-width: 0.3"/>
    <path d="M -29.935322 43.576411 
L -27.493879 39.286083 
L -26.233931 39.183186 
L -24.701373 38.135818 
L -22.881822 38.348905 
L -21.920331 37.633308 
L -20.991718 37.860619 
L -20.951994 35.893251 
L -22.599449 34.894128 
L -21.721183 34.05082 
L -20.760381 33.944626 
L -20.980763 31.389722 
L -16.661 31.64133 
L -16.498838 32.740401 
L -15.578621 32.310071 
L -11.918969 33.8596 
L -10.216203 33.176285 
L -6.091824 33.036077 
L -5.475372 33.330019 
L -6.265112 34.625174 
L -5.117834 35.736045 
L -4.166794 35.815168 
L -3.246571 34.551947 
L -2.582516 34.438117 
L -0.986946 36.648066 
L 0.336703 35.119007 
L 1.958305 34.449225 
L 5.563157 35.741249 
L 6.191596 34.76919 
L 8.122445 34.099757 
L 8.305668 33.509441 
L 7.620386 32.853882 
L 8.592659 32.586318 
L 10.514269 33.435864 
L 10.392521 34.402027 
L 11.694426 36.414853 
L 11.367021 38.209045 
L 12.167033 38.26596 
L 12.629368 39.293718 
L 14.494467 40.158536 
L 12.337929 42.772269 
L 13.27356 42.818251 
L 13.630072 42.27305 
L 14.817419 42.467393 
L 15.096875 45.909847 
L 17.172595 47.450706 
L 15.829767 49.733526 
L 15.9373 52.493707 
L 16.623615 53.445807 
L 17.873974 53.305947 
L 17.448625 54.823899 
L 18.659949 55.545392 
L 17.433555 56.081916 
L 17.187665 57.315643 
L 18.991118 58.578173 
L 19.218863 60.25697 
L 18.149322 59.565322 
L 17.872602 59.947938 
L 17.177048 59.437094 
L 15.332493 59.728431 
L 15.219134 61.122486 
L 16.95992 61.538418 
L 17.229443 62.672539 
L 16.523955 62.577801 
L 15.654762 65.619594 
L 14.232818 65.373897 
L 13.764664 65.742799 
L 13.221504 64.868258 
L 12.431764 64.826956 
L 11.296812 67.656368 
L 9.523499 68.212677 
L 8.801569 66.929322 
L 7.102568 66.96472 
L 7.998814 64.507682 
L 6.841263 61.528701 
L 7.046747 60.4678 
L 5.866246 60.145054 
L 6.043306 59.652954 
L 5.568982 59.848855 
L 5.227879 58.993406 
L 3.318602 59.939261 
L 2.746673 59.253509 
L 1.24391 59.451667 
L 0.053482 60.680189 
L -1.145509 60.84503 
L 0.533969 58.258375 
L -0.246864 57.298639 
L -0.209878 55.695486 
L -1.218799 55.495938 
L -0.746875 54.000725 
L -1.784904 53.425331 
L -4.222615 49.463008 
L -8.931251 49.393427 
L -9.00865 49.865575 
L -10.46381 50.183466 
L -11.361083 49.818203 
L -12.657341 50.140607 
L -14.591278 53.723961 
L -15.875369 54.229244 
L -15.883593 54.864502 
L -16.922477 55.763683 
L -18.149726 55.78017 
L -17.199435 54.813107 
L -17.874133 54.740142 
L -17.697232 54.263037 
L -18.243839 54.836061 
L -18.149726 53.662412 
L -18.856784 54.131324 
L -18.782897 53.10824 
L -19.560602 53.039378 
L -19.379659 52.237089 
L -19.782535 52.699715 
L -20.054085 52.237089 
L -20.967157 52.626756 
L -19.87287 50.765314 
L -20.469904 50.398601 
L -20.984958 51.061802 
L -20.695879 49.702607 
L -21.740011 50.278096 
L -23.168145 49.173309 
L -22.780909 48.002118 
L -23.79673 48.969456 
L -23.694525 48.139842 
L -24.25542 48.630613 
L -24.397806 48.118802 
L -25.780636 47.902103 
L -26.327243 45.930269 
L -27.140814 46.122638 
L -26.096682 43.358898 
L -27.419369 45.024137 
L -27.098208 43.903777 
L -27.820363 44.646491 
L -27.688766 43.487872 
L -28.140988 43.813056 
L -28.214066 43.218441 
L -27.186654 42.387188 
L -27.322294 42.200004 
L -28.371549 42.845986 
L -28.869075 42.433096 
L -29.140897 44.183865 
z
" clip-path="url(#pe9084665d2)" style="fill: #eeeeee; stroke: #000000; stroke-width: 0.3"/>
    <path d="M -6.055639 70.031186 
L -5.002076 68.055813 
L -0.349606 64.325488 
L -0.3294 62.560448 
L 1.600422 61.544664 
L 1.856935 59.519864 
L 3.123735 59.34877 
L 3.318602 59.939261 
L 5.227879 58.993406 
L 5.568982 59.848855 
L 6.043306 59.652954 
L 5.866246 60.145054 
L 7.046747 60.4678 
L 6.841263 61.528701 
L 7.998814 64.507682 
L 7.102568 66.96472 
L 8.801569 66.929322 
L 9.523499 68.212677 
L 10.936536 67.810109 
L 12.431764 64.826956 
L 13.221504 64.868258 
L 14.161244 66.119337 
L 15.09893 69.370053 
L 14.745155 70.985865 
L 12.881428 72.895969 
L 14.209874 73.175513 
L 14.252686 73.922163 
L 17.549313 74.380779 
L 18.395901 76.48661 
L 20.332574 77.507256 
L 20.649707 77.24021 
L 21.02608 80.791463 
L 19.793185 82.437294 
L 19.967162 83.499584 
L 19.596263 83.610116 
L 20.025933 87.267329 
L 15.276546 85.741957 
L 9.65894 82.709323 
L 1.516753 75.291975 
L -1.49699 74.238287 
L -1.305265 73.491195 
L -5.240444 71.496951 
z
" clip-path="url(#pe9084665d2)" style="fill: #eeeeee; stroke: #000000; stroke-width: 0.3"/>
    <path d="M 165.347244 75.943497 
L 167.898652 74.067925 
L 170.891858 67.827811 
L 172.276126 66.872756 
L 172.595989 65.976006 
L 175.539874 66.211644 
L 178.49266 64.97376 
L 178.634443 64.227621 
L 179.671451 63.647371 
L 180.1057 64.926213 
L 181.220101 65.855931 
L 186.903071 62.874867 
L 193.194951 62.452864 
L 196.739535 58.240847 
L 195.053887 57.070113 
L 196.062126 56.158091 
L 205.42803 55.131199 
L 206.13489 53.898863 
L 206.970517 54.03057 
L 208.019169 53.251114 
L 210.874005 49.506041 
L 211.6521 49.523744 
L 212.572661 47.996598 
L 213.935013 47.351099 
L 213.960356 45.067238 
L 218.761806 42.639179 
L 221.504999 43.170492 
L 224.355733 46.390148 
L 226.69892 50.262764 
L 226.615357 54.194719 
L 225.568766 54.912565 
L 225.31328 55.931647 
L 226.186583 56.227847 
L 225.774244 58.001388 
L 230.495557 58.130489 
L 230.713368 58.881833 
L 229.961986 59.827164 
L 230.0661 60.639586 
L 234.355895 61.563749 
L 236.072359 63.47212 
L 237.117579 63.687282 
L 237.531972 65.061211 
L 236.77511 65.595653 
L 236.942236 66.124193 
L 238.066226 67.236454 
L 242.480341 69.512337 
L 242.911853 70.629454 
L 244.812567 71.818414 
L 244.098173 73.078513 
L 245.680389 74.825857 
L 245.122847 75.719135 
L 247.452336 76.327322 
L 247.73453 76.9133 
L 249.755111 77.758682 
L 250.664717 79.042387 
L 250.687323 81.174247 
L 251.859255 82.44632 
L 249.422915 81.555815 
L 248.053717 82.669117 
L 247.207812 82.287374 
L 245.637922 82.602485 
L 243.62145 81.320352 
L 241.716627 81.778962 
L 239.283713 80.401044 
L 238.090197 80.835706 
L 237.718959 82.704515 
L 233.894925 83.475287 
L 231.679822 82.099975 
L 231.694893 82.679358 
L 230.770905 83.392174 
L 226.322885 84.707973 
L 225.172869 85.669099 
L 221.752261 84.106031 
L 220.367993 86.335067 
L 219.724834 86.455666 
L 219.181674 88.352405 
L 217.808367 88.772494 
L 214.057617 87.66666 
L 210.569205 87.678802 
L 208.319853 86.592221 
L 206.389687 86.8499 
L 204.790346 84.453075 
L 201.382071 82.270021 
L 198.627233 82.045659 
L 196.468978 83.53012 
L 194.281955 86.946551 
L 192.881251 87.435179 
L 193.574412 89.328104 
L 193.440847 93.150051 
L 192.418227 92.107894 
L 190.936698 92.491719 
L 190.492853 93.146579 
L 189.833258 92.568586 
L 188.243507 92.7251 
L 187.918839 92.205587 
L 185.703736 91.59601 
L 182.723553 92.738639 
L 180.272825 92.802666 
L 179.120066 95.301521 
L 179.210482 97.451775 
L 177.226205 101.409411 
L 176.402215 96.757004 
L 175.465219 95.694714 
L 174.614515 95.62739 
L 169.970607 90.403584 
L 169.580191 89.461718 
L 170.665823 89.213066 
L 170.012385 88.819 
L 169.367855 86.86135 
L 167.534268 85.459659 
L 167.147271 81.816267 
L 166.226027 80.969837 
L 166.872612 79.595042 
L 166.872612 77.112499 
z
" clip-path="url(#pe9084665d2)" style="fill: #eeeeee; stroke: #000000; stroke-width: 0.3"/>
    <path d="M 12.881428 72.895969 
L 14.650638 71.133011 
L 15.08215 69.531772 
L 13.764664 65.742799 
L 14.232818 65.373897 
L 15.464348 65.834763 
L 16.523955 62.577801 
L 17.229443 62.672539 
L 16.95992 61.538418 
L 15.219134 61.122486 
L 15.295851 59.775803 
L 17.177048 59.437094 
L 19.218863 60.25697 
L 18.991118 58.578173 
L 17.187665 57.315643 
L 17.433555 56.081916 
L 18.659949 55.545392 
L 17.448625 54.823899 
L 17.873974 53.305947 
L 16.623615 53.445807 
L 15.9373 52.493707 
L 15.829767 49.733526 
L 17.050329 48.255311 
L 18.115072 47.921806 
L 19.205847 46.407501 
L 20.28566 46.263135 
L 21.200741 47.649555 
L 23.504542 48.397077 
L 23.865852 47.027138 
L 25.803215 46.918694 
L 25.801498 44.950111 
L 27.280635 45.634473 
L 27.40632 44.735641 
L 28.5399 44.46443 
L 28.881342 45.114952 
L 28.504624 45.890761 
L 29.039567 46.521156 
L 28.645724 47.651294 
L 30.130679 48.068086 
L 31.044395 46.817705 
L 32.926612 46.294712 
L 34.195812 47.324727 
L 35.964333 47.299738 
L 36.398933 48.603395 
L 37.106475 49.072414 
L 37.088323 50.007859 
L 38.199132 50.40071 
L 38.212486 50.991892 
L 38.977055 51.478264 
L 40.111146 51.055227 
L 40.165774 51.659942 
L 41.030859 52.14389 
L 42.494918 50.563469 
L 45.114143 49.773786 
L 48.015899 50.005777 
L 48.118297 50.410078 
L 48.69468 49.909825 
L 51.374344 53.297969 
L 52.17761 52.776716 
L 52.36357 54.353658 
L 51.610134 55.68959 
L 52.639945 56.57176 
L 53.389617 61.369064 
L 52.698166 61.667338 
L 52.698855 62.50579 
L 51.50551 63.155271 
L 50.505496 65.614047 
L 50.29813 68.046445 
L 48.627208 70.5014 
L 48.378236 72.06117 
L 49.920723 78.191793 
L 50.351214 78.154656 
L 50.476727 78.836244 
L 51.538898 78.925259 
L 51.66459 81.839866 
L 49.195764 81.965515 
L 48.758911 81.452878 
L 49.149923 80.444279 
L 48.381119 80.632008 
L 48.049161 82.11581 
L 45.336897 81.319533 
L 44.633888 81.59443 
L 43.477842 81.131529 
L 45.287551 81.131529 
L 45.374918 81.025503 
L 45.088535 80.462042 
L 44.783551 80.396457 
L 45.187506 81.081249 
L 44.11155 80.581728 
L 43.563061 81.114041 
L 42.659148 80.856632 
L 41.893306 81.01457 
L 41.671108 80.823289 
L 40.483781 81.182077 
L 39.755423 80.906636 
L 38.936729 81.365434 
L 39.027608 80.815095 
L 38.132058 81.7092 
L 42.272456 81.039713 
L 43.518831 81.365434 
L 37.574934 82.057331 
L 36.798846 81.470365 
L 34.73269 81.375272 
L 34.219252 81.967697 
L 35.624734 81.818228 
L 35.349678 81.548522 
L 36.847384 82.057331 
L 31.221686 82.719981 
L 24.250914 85.191067 
L 20.58189 87.326312 
L 19.806538 87.115905 
L 19.793185 82.437294 
L 21.02608 80.791463 
L 20.649707 77.24021 
L 20.332574 77.507256 
L 18.395901 76.48661 
L 17.549313 74.380779 
L 14.252686 73.922163 
L 14.209874 73.175513 
z
" clip-path="url(#pe9084665d2)" style="fill: #eeeeee; stroke: #000000; stroke-width: 0.3"/>
    <path d="M 48.286462 82.128107 
L 48.566376 81.823419 
L 49.325207 82.307911 
z
" clip-path="url(#pe9084665d2)" style="fill: #eeeeee; stroke: #000000; stroke-width: 0.3"/>
    <path d="M -11.27752 17.276504 
L -9.993595 17.548755 
L -8.336723 16.436843 
L -8.504193 14.56248 
L -7.718217 12.130781 
L -6.974716 12.130781 
L -6.375045 11.443813 
L -2.337654 15.074015 
L -1.079754 12.856786 
L 3.279217 13.315571 
L 7.545386 12.806634 
L 7.361136 11.814106 
L 7.992306 11.078557 
L 8.040254 12.436523 
L 33.477308 12.44624 
L 34.522189 6.95434 
L 32.732435 5.50476 
L 26.305618 -51.351729 
L 38.045705 -51.357981 
L 77.597884 -25.211694 
L 77.651306 -22.774434 
L 80.336286 -21.825631 
L 81.783566 -19.856524 
L 83.726065 -19.245215 
L 84.58498 -19.65247 
L 85.907608 -18.192823 
L 91.19879 -16.607722 
L 91.609751 -13.705258 
L 90.571377 -12.007542 
L 91.769347 -11.068799 
L 98.023558 -12.052658 
L 97.727659 6.255405 
L 96.90984 7.045962 
L 95.655021 10.964727 
L 93.370743 12.434441 
L 93.24197 13.387931 
L 90.103562 12.901203 
L 89.882332 13.487699 
L 78.823934 13.860422 
L 76.45266 15.823794 
L 74.440297 16.169796 
L 71.465933 15.792392 
L 71.447443 16.362924 
L 68.430956 15.324407 
L 67.178192 15.747619 
L 66.898735 15.228448 
L 65.229874 15.238165 
L 62.851755 17.132655 
L 58.753745 19.148953 
L 56.76467 19.319698 
L 56.507129 21.263635 
L 55.73863 21.432123 
L 53.685509 20.594202 
L 52.786182 20.987744 
L 50.997454 22.47706 
L 50.812177 24.8201 
L 49.670551 25.121503 
L 48.216247 24.510362 
L 48.470189 27.230114 
L 47.145341 27.411436 
L 47.139171 28.062656 
L 43.678845 26.59902 
L 44.03433 26.167132 
L 43.614972 25.845427 
L 41.164079 28.401714 
L 42.086522 30.410551 
L 41.783267 31.070448 
L 40.274851 31.112441 
L 40.924346 32.326034 
L 40.497626 32.988537 
L 40.799171 33.847109 
L 40.2555 33.758268 
L 39.776385 34.908009 
L 38.445539 35.86757 
L 36.271531 36.051155 
L 34.130746 37.063468 
L 34.960554 37.530929 
L 35.416725 39.792239 
L 34.659863 41.811143 
L 33.52183 42.139442 
L 34.004371 43.670577 
L 33.671492 45.748128 
L 33.400253 46.485758 
L 31.044395 46.817705 
L 30.130679 48.068086 
L 28.645724 47.651294 
L 29.039567 46.521156 
L 28.504624 45.890761 
L 28.881342 45.114952 
L 28.5399 44.46443 
L 27.40632 44.735641 
L 27.280635 45.634473 
L 25.801498 44.950111 
L 25.803215 46.918694 
L 23.865852 47.027138 
L 23.504542 48.397077 
L 21.200741 47.649555 
L 20.28566 46.263135 
L 19.205847 46.407501 
L 18.115072 47.921806 
L 17.050329 48.255311 
L 17.006497 47.138711 
L 15.465031 46.499639 
L 15.023247 45.733898 
L 14.817419 42.467393 
L 13.630072 42.27305 
L 13.27356 42.818251 
L 12.367725 42.877764 
L 14.494467 40.158536 
L 12.629368 39.293718 
L 12.167033 38.26596 
L 11.367021 38.209045 
L 11.548872 35.826968 
L 10.870781 35.607293 
L 10.514269 33.435864 
L 9.37829 32.785866 
L 7.715937 32.733807 
L 8.305668 33.509441 
L 8.122445 34.099757 
L 6.191596 34.76919 
L 5.563157 35.741249 
L 1.958305 34.449225 
L 0.336703 35.119007 
L -0.986946 36.648066 
L -2.582516 34.438117 
L -3.246571 34.551947 
L -4.166794 35.815168 
L -5.117834 35.736045 
L -6.265112 34.625174 
L -5.475372 33.330019 
L -5.403454 32.686958 
L -6.000043 32.261833 
L -5.476744 29.394075 
L -6.432582 28.44544 
L -6.963072 26.773237 
L -7.812059 26.457603 
L -8.38809 27.132764 
L -10.174081 24.46577 
L -9.281255 23.625935 
L -9.511054 21.364799 
L -10.996526 19.853267 
L -10.620663 18.170131 
z
" clip-path="url(#pe9084665d2)" style="fill: #eeeeee; stroke: #000000; stroke-width: 0.3"/>
    <path d="M 87.701471 63.459972 
L 88.351483 55.675708 
L 90.385079 55.419763 
L 90.759743 52.987889 
L 92.078938 51.680069 
L 92.041269 50.6747 
L 93.2817 50.373296 
L 93.787874 49.686853 
L 94.305003 48.358906 
L 93.674853 47.424501 
L 94.202943 46.416527 
L 95.000901 46.605659 
L 95.431048 45.3145 
L 94.71939 43.91888 
L 94.66665 41.873087 
L 92.985801 39.810459 
L 94.301576 37.525724 
L 93.883763 36.546036 
L 94.133079 32.433269 
L 96.038592 30.872633 
L 97.096827 29.221598 
L 97.342041 26.019986 
L 99.866735 24.531187 
L 102.187323 23.997785 
L 104.644207 24.217809 
L 106.593559 23.28462 
L 110.706639 24.892803 
L 112.20803 24.990495 
L 115.973506 29.227152 
L 116.845437 29.222639 
L 117.703669 28.40796 
L 118.987932 28.440584 
L 121.850992 26.877517 
L 123.714037 27.183958 
L 127.519581 29.709535 
L 133.556664 30.530109 
L 137.065626 27.516764 
L 140.745134 26.677278 
L 145.815079 26.74894 
L 149.908298 28.412124 
L 152.659027 28.765412 
L 153.244654 27.566043 
L 154.862486 26.691508 
L 155.108382 25.911536 
L 157.665271 25.515912 
L 158.339942 24.432105 
L 160.178328 24.467852 
L 163.210905 28.672582 
L 164.03284 33.424414 
L 166.008899 33.643397 
L 167.220561 34.787584 
L 166.371919 37.860619 
L 166.898637 38.398184 
L 166.795213 39.170863 
L 163.877359 41.027007 
L 162.663643 40.772276 
L 161.156082 42.515282 
L 159.72421 45.16996 
L 159.035841 48.312924 
L 157.67897 49.038755 
L 157.448833 52.417531 
L 155.195371 53.519551 
L 155.480302 54.296401 
L 154.648784 57.67691 
L 153.224103 58.706924 
L 151.970657 58.68072 
L 152.202855 59.439867 
L 151.030916 60.180103 
L 150.799408 63.038667 
L 149.652129 64.662464 
L 149.665828 65.620293 
L 147.780866 67.72196 
L 148.679511 68.957076 
L 146.621944 70.322328 
L 146.434267 71.873422 
L 145.350007 73.144971 
L 143.651344 73.291076 
L 143.142433 71.232436 
L 140.106767 68.611423 
L 139.558814 70.331697 
L 137.669055 70.301503 
L 137.219053 69.438418 
L 135.440943 70.915761 
L 134.870385 70.868396 
L 134.237498 72.637599 
L 131.904583 74.097071 
L 129.529883 76.905664 
L 128.689458 77.2298 
L 128.446995 78.197172 
L 129.007963 78.92491 
L 128.312058 81.849234 
L 126.52848 84.876273 
L 124.221245 82.978761 
L 125.360299 85.279331 
L 124.929921 85.952914 
L 120.0911 86.108945 
L 120.000492 84.862063 
L 119.716807 85.790873 
L 118.252535 85.599861 
L 118.598788 86.081895 
L 118.252535 86.246394 
L 116.865935 84.545629 
L 117.613439 86.1513 
L 116.681486 86.704923 
L 116.681486 85.321136 
L 116.142699 84.72871 
L 116.319056 85.554503 
L 115.731195 85.045694 
L 116.547192 86.963152 
L 116.188003 87.121372 
L 115.51978 86.951675 
L 114.967513 84.149952 
L 114.505311 84.032992 
L 115.533803 87.214007 
L 114.505311 87.254992 
L 114.641222 85.554503 
L 114.3694 86.796739 
L 114.097578 86.200486 
L 114.320319 87.376592 
L 113.823065 87.375504 
L 113.711959 86.399422 
L 113.411017 86.246394 
L 113.537763 87.387801 
L 111.555739 87.671717 
L 111.966706 86.704923 
L 111.506121 86.97982 
L 111.329227 86.292302 
L 111.23862 87.621981 
L 110.510533 87.809165 
L 110.35089 86.875983 
L 110.172372 87.654229 
L 109.687518 86.842647 
L 109.507383 87.396813 
L 109.033318 87.159899 
L 106.286539 83.945548 
L 105.69382 82.078095 
L 106.421907 81.965515 
L 105.558453 81.823419 
L 105.390181 80.611511 
L 106.965545 80.356016 
L 106.674312 79.722054 
L 107.205006 79.530229 
L 107.376512 79.293584 
L 105.942991 79.989846 
L 106.010946 80.26475 
L 104.447982 79.553727 
L 104.612476 79.018137 
L 106.513051 78.954741 
L 106.10101 78.51425 
L 105.296339 78.855551 
L 105.372924 78.055446 
L 104.993237 78.774393 
L 103.991711 78.703073 
L 103.816427 77.594459 
L 105.060112 76.809382 
L 103.431889 77.767158 
L 101.464432 75.273124 
L 99.196033 73.795607 
L 92.821214 73.449934 
L 92.432361 73.220401 
L 95.474694 72.103586 
L 93.296359 72.665952 
L 93.070384 72.161515 
L 92.547774 72.497625 
L 92.332045 73.183505 
L 92.429664 73.53492 
L 87.918573 73.73195 
L 88.50491 66.28244 
z
" clip-path="url(#pe9084665d2)" style="fill: #eeeeee; stroke: #000000; stroke-width: 0.3"/>
    <path d="M 117.304942 86.970532 
L 117.911147 86.058941 
L 118.207238 86.333562 
L 118.59393 86.333562 
L 118.367412 86.851666 
z
" clip-path="url(#pe9084665d2)" style="fill: #eeeeee; stroke: #000000; stroke-width: 0.3"/>
    <path d="M 118.623057 86.546709 
L 120.263679 86.382479 
L 119.251907 86.716944 
z
" clip-path="url(#pe9084665d2)" style="fill: #eeeeee; stroke: #000000; stroke-width: 0.3"/>
    <path d="M 75.094417 46.877917 
L 75.177298 44.68896 
L 75.973883 42.676309 
L 76.383479 42.801247 
L 76.503345 42.089465 
L 77.383494 42.441712 
L 77.039653 41.67354 
L 77.676649 41.513204 
L 77.525277 40.880727 
L 78.816399 40.687774 
L 79.540383 39.445894 
L 80.613689 40.017293 
L 83.143863 39.847247 
L 85.067183 38.248607 
L 85.778152 36.261811 
L 86.280899 36.052545 
L 85.648013 34.441931 
L 86.535014 34.009868 
L 88.849432 33.230769 
L 93.833761 37.955013 
L 92.985801 39.810459 
L 94.66665 41.873087 
L 94.71939 43.91888 
L 95.431048 45.3145 
L 95.000901 46.605659 
L 94.202943 46.416527 
L 93.674853 47.424501 
L 94.305003 48.358906 
L 93.787874 49.686853 
L 93.2817 50.373296 
L 92.041269 50.6747 
L 92.078938 51.680069 
L 90.759743 52.987889 
L 90.385079 55.419763 
L 88.351483 55.675708 
L 87.701471 63.459972 
L 88.50491 66.28244 
L 87.918573 73.73195 
L 80.73333 74.769231 
L 81.811652 74.343642 
L 80.378064 71.651491 
L 80.152036 69.544263 
L 80.773279 69.511646 
L 80.610945 55.726203 
L 78.789685 52.55357 
L 78.820508 49.36688 
z
" clip-path="url(#pe9084665d2)" style="fill: #eeeeee; stroke: #000000; stroke-width: 0.3"/>
    <path d="M 159.132419 19.532261 
L 160.513261 18.795671 
L 161.680063 15.633447 
L 165.226012 10.730822 
L 172.493253 3.041128 
L 174.285745 -17.165239 
L 175.83851 -20.071693 
L 173.187097 -22.862584 
L 173.015174 -23.791952 
L 173.446003 -24.197293 
L 170.630891 -27.827327 
L 170.548011 -31.199852 
L 169.274822 -37.930763 
L 175.936454 -40.946453 
L 228.929094 -14.429182 
L 228.949638 10.922043 
L 223.052973 11.035524 
L 221.807744 12.129216 
L 222.147475 14.411002 
L 220.165253 16.722626 
L 220.282376 17.853805 
L 218.207684 18.830545 
L 218.641939 20.703693 
L 219.419352 21.542481 
L 217.221367 22.772044 
L 216.295325 23.955967 
L 217.57206 26.949529 
L 215.560386 28.535846 
L 214.535711 30.581988 
L 215.374082 31.617033 
L 216.500126 31.544155 
L 217.156301 30.91983 
L 218.752216 31.808253 
L 218.26933 32.801829 
L 219.00633 34.805629 
L 218.834407 35.707584 
L 219.857027 35.423016 
L 219.388529 38.376667 
L 220.913897 39.91995 
L 221.861173 39.967497 
L 221.911169 42.042791 
L 221.504999 43.170492 
L 218.761806 42.639179 
L 213.960356 45.067238 
L 213.935013 47.351099 
L 212.572661 47.996598 
L 211.6521 49.523744 
L 210.874005 49.506041 
L 208.019169 53.251114 
L 206.970517 54.03057 
L 206.13489 53.898863 
L 205.42803 55.131199 
L 196.062126 56.158091 
L 195.053887 57.070113 
L 196.739535 58.240847 
L 193.194951 62.452864 
L 186.903071 62.874867 
L 181.373528 65.838927 
L 180.1057 64.926213 
L 179.671451 63.647371 
L 178.634443 64.227621 
L 178.49266 64.97376 
L 175.539874 66.211644 
L 172.595989 65.976006 
L 173.138467 64.168282 
L 172.328865 63.852822 
L 170.62541 59.556645 
L 165.097239 54.928186 
L 162.433499 51.775854 
L 163.984892 49.489729 
L 167.900713 49.868698 
L 173.922726 49.401754 
L 170.280887 45.712038 
L 169.548685 41.401631 
L 170.306912 39.062762 
L 169.848686 38.056695 
L 170.143213 37.369908 
L 169.735672 35.343893 
L 168.732231 34.8858 
L 168.286332 31.760015 
L 166.457536 30.761758 
L 165.552045 28.651408 
L 163.210905 28.672582 
L 160.178328 24.467852 
z
" clip-path="url(#pe9084665d2)" style="fill: #eeeeee; stroke: #000000; stroke-width: 0.3"/>
    <path d="M 126.399043 86.097468 
L 127.008616 83.718218 
L 128.312058 81.849234 
L 129.007963 78.92491 
L 128.446995 78.197172 
L 128.618912 77.340326 
L 131.904583 74.097071 
L 134.237498 72.637599 
L 134.870385 70.868396 
L 135.440943 70.915761 
L 137.219053 69.438418 
L 137.669055 70.301503 
L 139.558814 70.331697 
L 140.106767 68.611423 
L 143.142433 71.232436 
L 143.542439 73.189562 
L 144.592456 73.318146 
L 146.434267 71.873422 
L 146.621944 70.322328 
L 148.679511 68.957076 
L 147.780866 67.72196 
L 149.665828 65.620293 
L 149.652129 64.662464 
L 150.799408 63.038667 
L 151.030916 60.180103 
L 152.202855 59.439867 
L 151.970657 58.68072 
L 153.224103 58.706924 
L 154.791939 57.478403 
L 155.480302 54.296401 
L 155.195371 53.519551 
L 157.448833 52.417531 
L 157.67897 49.038755 
L 159.035841 48.312924 
L 159.72421 45.16996 
L 161.156082 42.515282 
L 162.663643 40.772276 
L 163.877359 41.027007 
L 166.864394 39.01001 
L 166.371919 37.860619 
L 167.209607 34.716097 
L 166.008899 33.643397 
L 164.03284 33.424414 
L 163.210905 28.672582 
L 165.552045 28.651408 
L 166.457536 30.761758 
L 168.209621 31.621895 
L 168.732231 34.8858 
L 169.735672 35.343893 
L 170.306912 39.062762 
L 169.548685 41.401631 
L 170.324037 45.839917 
L 173.922726 49.401754 
L 167.900713 49.868698 
L 163.984892 49.489729 
L 162.422538 51.675905 
L 165.097239 54.928186 
L 169.752108 58.450979 
L 172.328865 63.852822 
L 173.138467 64.168282 
L 172.276126 66.872756 
L 170.891858 67.827811 
L 167.898652 74.067925 
L 165.347244 75.943497 
L 166.872612 77.112499 
L 166.872612 79.595042 
L 166.226027 80.969837 
L 167.147271 81.816267 
L 167.534268 85.459659 
L 169.367855 86.86135 
L 170.012385 88.819 
L 170.665823 89.213066 
L 169.580191 89.461718 
L 169.970607 90.403584 
L 176.647429 97.270621 
L 176.633731 99.639859 
L 177.41182 101.570089 
L 176.726883 101.768254 
L 176.457698 102.961545 
L 177.06798 104.954768 
L 176.498111 105.388047 
L 176.126867 104.603911 
L 174.091905 103.524966 
L 172.608322 103.230325 
L 171.643922 103.595587 
L 170.817195 102.802083 
L 168.695245 103.02523 
L 168.460309 102.289507 
L 167.849339 102.628565 
L 166.506167 101.665874 
L 165.649989 102.180881 
L 158.10569 101.986538 
L 158.039935 101.441337 
L 157.23924 101.166487 
L 154.49604 101.478475 
L 147.25483 100.902389 
L 145.229451 101.049535 
L 145.033557 101.954961 
L 136.212186 101.956002 
L 135.018331 101.289336 
L 135.97853 96.013504 
L 135.804327 94.528882 
L 133.899967 92.732474 
L 135.07624 92.135952 
L 133.7948 92.323137 
L 133.262488 90.848078 
L 133.781857 91.314531 
L 133.760822 90.477543 
L 134.578443 90.848078 
L 134.126486 90.248003 
L 134.710576 89.922551 
L 133.746262 89.90315 
L 134.645318 88.725673 
L 133.484149 89.549552 
L 132.815926 88.888809 
L 133.173498 89.707772 
L 132.547344 89.432324 
L 132.805143 90.202095 
L 131.921184 90.202095 
L 131.806308 89.422486 
L 131.041009 89.876918 
L 129.453776 88.960135 
L 129.218629 85.921217 
L 128.630768 85.340812 
L 128.768833 85.979696 
L 128.309871 85.599861 
L 128.242452 86.000736 
L 127.359037 84.678981 
L 127.806679 86.190923 
z
" clip-path="url(#pe9084665d2)" style="fill: #eeeeee; stroke: #000000; stroke-width: 0.3"/>
    <path d="M 127.627081 120.438779 
L 128.61351 121.873397 
L 129.174406 121.114827 
L 129.720741 122.372911 
L 130.312923 120.526774 
L 131.675791 118.73091 
L 131.93359 114.1101 
L 132.031746 115.283198 
L 132.456737 115.101211 
L 132.87903 115.839009 
L 132.986351 115.237021 
L 133.53323 115.745279 
L 134.365947 115.593896 
L 135.027159 116.341532 
L 134.671747 115.656197 
L 136.441806 115.237021 
L 134.895025 115.283198 
L 132.945362 114.545399 
L 131.670404 112.84436 
L 131.738359 112.29429 
L 133.217184 111.92293 
L 133.350935 112.325444 
L 132.811075 112.341837 
L 132.71993 112.477646 
L 133.443703 112.477646 
L 133.443703 113.0739 
L 133.673455 113.348521 
L 133.568288 109.687394 
L 134.582757 109.382713 
L 135.901223 110.288415 
L 136.466983 109.760218 
L 145.128081 109.78937 
L 145.229451 101.049535 
L 151.65764 100.958954 
L 154.49604 101.478475 
L 157.23924 101.166487 
L 158.039935 101.441337 
L 157.228279 103.740826 
L 157.012523 105.805013 
L 157.818698 107.51626 
L 157.148825 108.06042 
L 159.755034 107.879958 
L 161.420468 106.866256 
L 163.738313 107.153778 
L 164.452025 107.562074 
L 164.655455 108.909973 
L 165.882869 110.366497 
L 164.959565 112.327613 
L 163.284196 112.876635 
L 162.417746 114.146102 
L 161.927325 115.180281 
L 162.258156 116.855089 
L 161.662256 117.878859 
L 163.412969 118.357078 
L 163.839001 119.555749 
L 164.905453 119.484261 
L 166.028079 120.535095 
L 165.37875 123.275316 
L 166.013008 125.964177 
L 165.849992 126.899797 
L 165.198615 127.325265 
L 165.754785 127.823618 
L 165.46163 129.212468 
L 164.371889 129.811455 
L 163.761601 131.440456 
L 164.334213 132.314306 
L 163.377348 133.279072 
L 161.758828 133.06391 
L 162.158834 132.346924 
L 161.078682 130.582576 
L 159.194748 132.892474 
L 155.948118 132.431601 
L 156.207713 131.787499 
L 154.858377 129.387377 
L 153.717262 128.756458 
L 152.750807 129.42624 
L 152.355599 129.152082 
L 152.838479 130.572167 
L 152.569983 132.146335 
L 149.939121 132.717566 
L 149.117876 132.140781 
L 147.909633 132.718257 
L 146.651395 132.144945 
L 147.03702 134.179986 
L 146.41646 135.751381 
L 147.119211 135.526501 
L 148.057579 136.68422 
L 147.455516 137.794749 
L 149.157599 138.682473 
L 148.366494 140.482219 
L 148.900059 140.968074 
L 147.456205 141.338716 
L 146.097273 140.066469 
L 144.307518 141.328999 
L 143.654684 142.937813 
L 142.659036 141.290021 
L 140.555913 139.681126 
L 140.482968 138.752618 
L 135.625285 134.634452 
L 134.30662 132.905966 
L 134.912819 133.294538 
L 135.212151 132.997781 
L 136.121452 134.152573 
L 137.309581 133.77821 
L 137.182842 133.472703 
L 136.16675 133.6935 
L 135.44028 132.679703 
L 134.628061 133.089597 
L 134.442531 132.476401 
L 134.30662 132.85678 
L 133.601186 132.296046 
L 133.394085 131.223783 
L 131.442268 129.102198 
L 132.741502 129.409888 
L 133.244694 130.406734 
L 133.075879 129.436663 
L 132.126668 128.716896 
L 131.90123 129.180348 
L 131.337101 128.824017 
L 131.103034 127.108498 
L 129.754718 125.336139 
L 129.535755 124.765573 
L 129.773056 125.26181 
L 130.699615 126.358128 
L 131.398581 126.810096 
L 131.502132 127.74847 
L 133.353095 127.295407 
L 132.670312 126.374521 
L 131.544201 127.016682 
L 131.291797 126.452127 
L 131.859167 125.891943 
L 131.867795 125.118076 
L 131.784736 125.705585 
L 130.875435 125.972282 
L 129.843709 125.223551 
L 129.863663 124.514174 
L 128.766135 123.06043 
L 129.0331 123.272482 
L 129.218629 122.969708 
L 128.581686 122.694267 
z
" clip-path="url(#pe9084665d2)" style="fill: #eeeeee; stroke: #000000; stroke-width: 0.3"/>
    <path d="M 132.141672 111.059825 
L 132.190051 111.062222 
L 132.160606 111.080072 
z
" clip-path="url(#pe9084665d2)" style="fill: #eeeeee; stroke: #000000; stroke-width: 0.3"/>
    <path d="M 129.30978 120.943216 
L 129.919756 120.997868 
L 129.68838 121.617626 
z
" clip-path="url(#pe9084665d2)" style="fill: #eeeeee; stroke: #000000; stroke-width: 0.3"/>
    <path d="M 71.013188 18.809203 
L 71.465933 15.792392 
L 76.291016 15.902401 
L 78.823934 13.860422 
L 89.882332 13.487699 
L 90.103562 12.901203 
L 93.24197 13.387931 
L 93.370743 12.434441 
L 95.488585 11.162885 
L 96.90984 7.045962 
L 97.727659 6.255405 
L 98.023558 -12.052658 
L 108.399749 -14.11806 
L 119.589313 -23.672917 
L 149.319933 -41.434215 
L 159.349547 -39.166491 
L 164.213664 -35.383065 
L 169.274822 -37.930763 
L 170.548011 -31.199852 
L 170.630891 -27.827327 
L 173.446003 -24.197293 
L 173.015174 -23.791952 
L 173.187097 -22.862584 
L 175.83851 -20.071693 
L 174.285745 -17.165239 
L 172.535714 2.892941 
L 165.226012 10.730822 
L 161.680063 15.633447 
L 160.513261 18.795671 
L 159.132419 19.532261 
L 160.178328 24.467852 
L 158.339942 24.432105 
L 157.665271 25.515912 
L 155.108382 25.911536 
L 154.862486 26.691508 
L 153.244654 27.566043 
L 152.659027 28.765412 
L 149.908298 28.412124 
L 145.815079 26.74894 
L 140.745134 26.677278 
L 137.065626 27.516764 
L 133.556664 30.530109 
L 127.519581 29.709535 
L 123.714037 27.183958 
L 121.850992 26.877517 
L 118.987932 28.440584 
L 117.703669 28.40796 
L 116.845437 29.222639 
L 115.973506 29.227152 
L 111.765557 24.738196 
L 110.706639 24.892803 
L 106.593559 23.28462 
L 104.644207 24.217809 
L 101.974987 24.020343 
L 99.507824 24.671564 
L 97.342041 26.019986 
L 97.096827 29.221598 
L 96.038592 30.872633 
L 94.133079 32.433269 
L 93.883763 36.546036 
L 94.301576 37.525724 
L 93.833761 37.955013 
L 88.849432 33.230769 
L 85.706233 34.325328 
L 86.285008 35.937325 
L 85.839798 36.606765 
L 83.597298 33.615635 
L 84.877452 33.063497 
L 83.976753 31.17317 
L 83.066464 31.04824 
L 82.218504 31.841569 
L 80.363683 31.666661 
L 76.517726 28.979016 
L 76.517726 26.722218 
L 78.407486 26.872313 
L 76.728008 26.069091 
L 75.943749 25.06667 
L 73.938239 24.570057 
L 72.446086 22.218341 
L 72.576225 20.790969 
z
" clip-path="url(#pe9084665d2)" style="fill: #eeeeee; stroke: #000000; stroke-width: 0.3"/>
    <path d="M 33.400253 46.485758 
L 34.004371 43.670577 
L 33.52183 42.139442 
L 34.659863 41.811143 
L 35.416725 39.792239 
L 34.960554 37.530929 
L 34.130746 37.063468 
L 36.271531 36.051155 
L 38.445539 35.86757 
L 39.776385 34.908009 
L 40.2555 33.758268 
L 40.799171 33.847109 
L 40.497626 32.988537 
L 40.924346 32.326034 
L 40.274851 31.112441 
L 41.783267 31.070448 
L 42.086522 30.410551 
L 41.323325 28.064396 
L 41.93464 28.017024 
L 43.63826 25.839007 
L 44.03433 26.167132 
L 43.678845 26.59902 
L 47.139171 28.062656 
L 47.145341 27.411436 
L 48.470189 27.230114 
L 48.216247 24.510362 
L 49.670551 25.121503 
L 50.812177 24.8201 
L 50.997454 22.47706 
L 52.786182 20.987744 
L 53.685509 20.594202 
L 55.73863 21.432123 
L 56.507129 21.263635 
L 56.76467 19.319698 
L 58.753745 19.148953 
L 62.851755 17.132655 
L 65.229874 15.238165 
L 66.898735 15.228448 
L 67.178192 15.747619 
L 68.430956 15.324407 
L 71.447443 16.362924 
L 71.052228 19.148953 
L 72.576225 20.790969 
L 72.446086 22.218341 
L 73.938239 24.570057 
L 75.943749 25.06667 
L 76.728008 26.069091 
L 78.407486 26.872313 
L 76.517726 26.722218 
L 76.517726 28.979016 
L 80.363683 31.666661 
L 82.218504 31.841569 
L 83.066464 31.04824 
L 83.976753 31.17317 
L 84.877452 33.063497 
L 83.597298 33.615635 
L 85.839798 36.606765 
L 85.158963 38.159766 
L 83.325376 39.760656 
L 80.613689 40.017293 
L 79.540383 39.445894 
L 78.816399 40.687774 
L 77.66295 40.709982 
L 77.676649 41.513204 
L 77.039653 41.67354 
L 77.405417 42.411344 
L 76.503345 42.089465 
L 76.383479 42.801247 
L 73.231372 43.075922 
L 73.224526 42.606037 
L 68.000299 41.533338 
L 65.792897 43.245626 
L 64.51377 42.588335 
L 51.19592 42.640911 
L 50.565253 45.083376 
L 51.658427 46.514562 
L 51.169716 47.037896 
L 51.74199 47.591774 
L 51.881373 50.533276 
L 51.474515 51.223541 
L 52.17761 52.776716 
L 51.684107 53.427064 
L 48.69468 49.909825 
L 48.118297 50.410078 
L 48.015899 50.005777 
L 45.114143 49.773786 
L 42.494918 50.563469 
L 41.030859 52.14389 
L 40.165774 51.659942 
L 40.111146 51.055227 
L 38.977055 51.478264 
L 38.212486 50.991892 
L 38.199132 50.40071 
L 37.088323 50.007859 
L 37.106475 49.072414 
L 36.398933 48.603395 
L 36.073583 47.371925 
L 34.195812 47.324727 
z
" clip-path="url(#pe9084665d2)" style="fill: #eeeeee; stroke: #000000; stroke-width: 0.3"/>
    <path d="M 68.898772 41.721086 
L 73.224526 42.606037 
L 73.231372 43.075922 
L 75.973883 42.676309 
L 75.040995 46.776753 
L 78.905442 49.595406 
L 78.789685 52.55357 
L 80.57533 55.542967 
L 80.895882 59.460343 
L 80.773279 69.511646 
L 80.152036 69.544263 
L 80.378064 71.651491 
L 81.811652 74.343642 
L 80.73333 74.769231 
L 77.855491 75.530802 
L 76.517726 74.025758 
L 74.941673 73.244745 
L 73.440965 70.616614 
L 73.277266 69.670584 
L 73.962892 69.280514 
L 74.278653 67.316967 
L 73.284118 66.103368 
L 74.057416 64.792949 
L 73.802619 61.404804 
L 74.72318 60.773368 
L 72.424342 57.574704 
L 73.350556 56.956458 
L 72.857736 55.873517 
L 73.521108 53.365119 
L 72.72777 52.753118 
L 71.502754 53.155336 
L 72.000531 52.650912 
L 71.52518 52.192303 
L 72.502941 52.100507 
L 71.729127 51.645537 
L 72.29985 51.605284 
L 72.627944 47.441156 
L 69.415563 45.088929 
L 70.107007 42.207284 
z
" clip-path="url(#pe9084665d2)" style="fill: #eeeeee; stroke: #000000; stroke-width: 0.3"/>
    <path d="M 48.378236 72.06117 
L 48.516248 70.759945 
L 50.29813 68.046445 
L 50.505496 65.614047 
L 51.50551 63.155271 
L 52.698855 62.50579 
L 52.698166 61.667338 
L 53.389617 61.369064 
L 52.639945 56.57176 
L 51.610134 55.68959 
L 52.372477 54.226122 
L 51.474515 51.223541 
L 51.881373 50.533276 
L 51.74199 47.591774 
L 51.169716 47.037896 
L 51.658427 46.514562 
L 50.565253 45.083376 
L 51.19592 42.640911 
L 64.51377 42.588335 
L 65.792897 43.245626 
L 68.000299 41.533338 
L 70.107007 42.207284 
L 69.415563 45.088929 
L 72.627944 47.441156 
L 72.29985 51.605284 
L 71.729127 51.645537 
L 72.502941 52.100507 
L 71.52518 52.192303 
L 72.000531 52.650912 
L 71.502754 53.155336 
L 72.72777 52.753118 
L 73.521108 53.365119 
L 72.857736 55.873517 
L 73.350556 56.956458 
L 72.424342 57.574704 
L 74.72318 60.773368 
L 73.802619 61.404804 
L 74.057416 64.792949 
L 73.284118 66.103368 
L 74.278653 67.316967 
L 73.962892 69.280514 
L 73.277266 69.670584 
L 73.419731 70.552412 
L 74.941673 73.244745 
L 76.517726 74.025758 
L 77.855491 75.530802 
L 76.327585 77.608669 
L 71.612262 77.843125 
L 64.700817 81.478565 
L 59.273591 82.770536 
L 56.8682 84.583888 
L 56.105056 84.677611 
L 54.381918 83.461063 
L 49.325207 82.307911 
L 51.66459 81.839866 
L 51.512529 80.591915 
L 51.906371 80.415268 
L 51.486848 78.837285 
L 50.476727 78.836244 
L 50.351214 78.154656 
L 49.920723 78.191793 
z
" clip-path="url(#pe9084665d2)" style="fill: #eeeeee; stroke: #000000; stroke-width: 0.3"/>
    <path d="M -43.040107 -22.963318 
L -42.453366 -26.708472 
L -16.255341 -26.767818 
L -17.163575 -36.751097 
L -16.255341 -38.080777 
L -13.632186 -39.778667 
L -9.655235 -41.05577 
L -9.628521 -58.072493 
L 12.424573 -58.10685 
L 12.459505 -66.739108 
L 38.045705 -51.357981 
L 26.305618 -51.351729 
L 32.732435 5.50476 
L 34.522189 6.95434 
L 33.477308 12.44624 
L 8.040254 12.436523 
L 7.992306 11.078557 
L 7.361136 11.814106 
L 7.545386 12.806634 
L 3.279217 13.315571 
L -1.079754 12.856786 
L -2.337654 15.074015 
L -6.375045 11.443813 
L -6.974716 12.130781 
L -7.718217 12.130781 
L -8.504193 14.56248 
L -8.336723 16.436843 
L -9.993595 17.548755 
L -12.061951 16.799151 
L -12.740559 15.649061 
L -15.414405 14.080272 
L -15.014738 13.85869 
L -15.917836 12.345768 
L -16.709955 12.455958 
L -16.881381 11.759796 
L -17.730541 11.578293 
L -18.248014 9.516531 
L -19.368061 8.008646 
L -20.587603 8.339377 
L -20.988298 7.776823 
L -21.693104 8.239771 
L -22.634726 6.779781 
L -25.47638 4.611825 
L -29.23843 4.40638 
L -30.12166 4.580939 
L -30.237762 5.1362 
L -32.483688 5.144528 
L -33.863503 5.816748 
L -37.850553 5.535988 
L -39.076258 7.745588 
L -39.630228 10.333325 
L -39.543663 6.815112 
L -36.559312 -1.325012 
L -36.269424 -5.331538 
L -37.391757 -10.981443 
L -39.584653 -13.654743 
L -38.416478 -13.890018 
L -37.924069 -14.651865 
L -38.630319 -14.213832 
L -38.45261 -14.718813 
L -39.118136 -13.867883 
L -37.585378 -16.427233 
L -37.679757 -17.160928 
L -38.112296 -17.072396 
L -37.510411 -17.836976 
L -37.766586 -18.724251 
L -37.376389 -19.379796 
L -39.132159 -22.175515 
L -38.744387 -22.3463 
L -39.543663 -22.775589 
L -39.630228 -21.579531 
L -40.493954 -22.363244 
L -42.117054 -25.59754 
z
" clip-path="url(#pe9084665d2)" style="fill: #eeeeee; stroke: #000000; stroke-width: 0.3"/>
    <path d="M -38.671574 -15.126243 
L -38.412164 -15.646804 
L -38.034903 -15.950122 
z
" clip-path="url(#pe9084665d2)" style="fill: #eeeeee; stroke: #000000; stroke-width: 0.3"/>
    <path d="M -39.110859 -15.69517 
L -38.328568 -16.928937 
L -38.902141 -15.135262 
z
" clip-path="url(#pe9084665d2)" style="fill: #eeeeee; stroke: #000000; stroke-width: 0.3"/>
    <path d="M -39.178815 -21.803336 
L -38.994366 -21.891599 
L -39.045866 -21.648393 
z
" clip-path="url(#pe9084665d2)" style="fill: #eeeeee; stroke: #000000; stroke-width: 0.3"/>
    <path d="M -39.329014 -15.835352 
L -39.161014 -15.795998 
L -39.245147 -15.648711 
z
" clip-path="url(#pe9084665d2)" style="fill: #eeeeee; stroke: #000000; stroke-width: 0.3"/>
    <path d="M 131.942219 108.563481 
L 132.728559 106.99989 
L 133.718759 105.834716 
L 134.013227 105.987194 
L 134.190127 105.96369 
L 134.578443 105.754102 
L 133.669141 105.455975 
L 135.010982 103.504906 
L 134.943563 100.773133 
L 135.103266 101.395879 
L 136.212186 101.956002 
L 145.033557 101.954961 
L 145.128081 109.78937 
L 136.466983 109.760218 
L 135.901223 110.288415 
L 134.401542 108.888658 
L 133.517053 109.495293 
L 133.122263 108.888658 
L 132.272288 109.035126 
z
" clip-path="url(#pe9084665d2)" style="fill: #eeeeee; stroke: #000000; stroke-width: 0.3"/>
    <path d="M 125.947624 93.523017 
L 126.858542 93.241014 
L 127.438862 91.475209 
L 129.132336 91.310985 
L 129.321099 92.138961 
L 127.565064 95.027309 
L 126.001019 94.519595 
z
" clip-path="url(#pe9084665d2)" style="fill: #eeeeee; stroke: #000000; stroke-width: 0.3"/>
    <path d="M 107.23575 126.123122 
L 107.331209 126.007257 
L 107.303706 126.409496 
z
" clip-path="url(#pe9084665d2)" style="fill: #eeeeee; stroke: #000000; stroke-width: 0.3"/>
    <path d="M 118.59393 105.987194 
L 118.943417 105.134351 
L 119.456848 105.253761 
L 119.050201 106.216459 
z
" clip-path="url(#pe9084665d2)" style="fill: #eeeeee; stroke: #000000; stroke-width: 0.3"/>
    <path d="M 112.883556 114.700335 
L 114.278792 113.765246 
L 114.77659 114.820028 
L 113.252998 116.337436 
z
" clip-path="url(#pe9084665d2)" style="fill: #eeeeee; stroke: #000000; stroke-width: 0.3"/>
   </g>
   <g id="PatchCollection_2">
    <defs>
     <path id="m4d520c614d" d="M 75.094417 -61.122083 
L 75.177298 -63.31104 
L 75.973883 -65.323691 
L 76.383479 -65.198753 
L 76.503345 -65.910535 
L 77.383494 -65.558288 
L 77.039653 -66.32646 
L 77.676649 -66.486796 
L 77.525277 -67.119273 
L 78.816399 -67.312226 
L 79.540383 -68.554106 
L 80.613689 -67.982707 
L 83.143863 -68.152753 
L 85.067183 -69.751393 
L 85.778152 -71.738189 
L 86.280899 -71.947455 
L 85.648013 -73.558069 
L 86.535014 -73.990132 
L 88.849432 -74.769231 
L 93.833761 -70.044987 
L 92.985801 -68.189541 
L 94.66665 -66.126913 
L 94.71939 -64.08112 
L 95.431048 -62.6855 
L 95.000901 -61.394341 
L 94.202943 -61.583473 
L 93.674853 -60.575499 
L 94.305003 -59.641094 
L 93.787874 -58.313147 
L 93.2817 -57.626704 
L 92.041269 -57.3253 
L 92.078938 -56.319931 
L 90.759743 -55.012111 
L 90.385079 -52.580237 
L 88.351483 -52.324292 
L 87.701471 -44.540028 
L 88.50491 -41.71756 
L 87.918573 -34.26805 
L 80.73333 -33.230769 
L 81.811652 -33.656358 
L 80.378064 -36.348509 
L 80.152036 -38.455737 
L 80.773279 -38.488354 
L 80.610945 -52.273797 
L 78.789685 -55.44643 
L 78.820508 -58.63312 
z
" style="stroke: #dd0000; stroke-width: 0.5"/>
    </defs>
    <g clip-path="url(#pe9084665d2)">
     <use xlink:href="#m4d520c614d" x="0" y="108" style="fill: #ff6b6b; stroke: #dd0000; stroke-width: 0.5"/>
    </g>
   </g>
  </g>
 </g>
 <defs>
  <clipPath id="pe9084665d2">
   <rect x="0" y="0" width="170.525465" height="108"/>
  </clipPath>
 </defs>
</svg>
