<?xml version="1.0" encoding="utf-8" standalone="no"?>
<!DOCTYPE svg PUBLIC "-//W3C//DTD SVG 1.1//EN"
  "http://www.w3.org/Graphics/SVG/1.1/DTD/svg11.dtd">
<svg xmlns:xlink="http://www.w3.org/1999/xlink" width="159.8303pt" height="108pt" viewBox="0 0 159.8303 108" xmlns="http://www.w3.org/2000/svg" version="1.1">
 <metadata>
  <rdf:RDF xmlns:dc="http://purl.org/dc/elements/1.1/" xmlns:cc="http://creativecommons.org/ns#" xmlns:rdf="http://www.w3.org/1999/02/22-rdf-syntax-ns#">
   <cc:Work>
    <dc:type rdf:resource="http://purl.org/dc/dcmitype/StillImage"/>
    <dc:date>2025-09-05T15:49:27.579113</dc:date>
    <dc:format>image/svg+xml</dc:format>
    <dc:creator>
     <cc:Agent>
      <dc:title>Matplotlib v3.10.3, https://matplotlib.org/</dc:title>
     </cc:Agent>
    </dc:creator>
   </cc:Work>
  </rdf:RDF>
 </metadata>
 <defs>
  <style type="text/css">*{stroke-linejoin: round; stroke-linecap: butt}</style>
 </defs>
 <g id="figure_1">
  <g id="patch_1">
   <path d="M 0 108 
L 159.8303 108 
L 159.8303 0 
L 0 0 
z
" style="fill: #ffffff"/>
  </g>
  <g id="axes_1">
   <g id="PatchCollection_1">
    <path d="M 123.165871 2.886428 
L 123.975605 2.488277 
L 124.976458 0.583933 
L 125.059725 -1.083274 
L 124.667992 -1.944825 
L 125.120635 -2.863765 
L 126.880932 -3.331392 
L 127.836519 -4.366339 
L 126.875904 -4.528253 
L 126.352846 -5.62966 
L 126.684227 -7.776882 
L 126.590903 -8.82089 
L 126.136022 -8.994887 
L 126.231579 -9.855831 
L 127.099989 -11.327592 
L 126.243875 -12.973352 
L 127.695138 -13.640352 
L 128.63173 -14.763505 
L 127.869771 -16.785062 
L 126.63058 -17.76382 
L 126.843489 -19.121994 
L 125.934846 -20.461438 
L 124.915549 -20.308584 
L 124.641725 -21.692736 
L 125.921431 -20.994923 
L 126.609903 -21.10488 
L 127.359842 -20.349066 
L 128.958358 -20.567771 
L 129.91674 -19.78537 
L 130.462155 -21.191274 
L 132.112362 -19.778121 
L 133.293715 -17.885259 
L 133.535125 -14.981615 
L 134.043097 -13.738227 
L 133.710596 -11.693715 
L 134.532626 -10.273314 
L 135.187007 -10.096288 
L 135.608922 -8.938096 
L 133.72792 -8.910305 
L 133.441801 -7.433709 
L 132.333095 -5.542659 
L 133.066834 -2.42695 
L 133.341772 1.304709 
L 133.857006 2.278633 
L 135.060155 2.415779 
L 136.254923 3.51718 
L 140.381275 9.048358 
L 140.689747 10.430703 
L 140.040394 12.096402 
L 140.344951 13.530699 
L 140.045422 17.184721 
L 138.58242 17.939331 
L 137.825777 17.761704 
L 136.513656 20.080514 
L 137.477629 21.909939 
L 137.449129 23.392574 
L 137.069686 23.574428 
L 136.157128 23.425199 
L 136.439889 21.80965 
L 135.289274 21.268315 
L 132.699124 18.538668 
L 132.580657 17.286828 
L 131.654123 16.293572 
L 133.449068 12.829863 
L 133.10651 8.611543 
L 132.253742 7.510744 
L 130.667803 8.140894 
L 128.88152 8.108877 
L 128.473019 8.763795 
L 126.501489 5.601566 
L 125.744846 4.80769 
L 124.985402 5.54115 
L 124.305872 4.197474 
L 123.705139 3.943724 
L 123.742019 3.181864 
z
" clip-path="url(#p576721e9aa)" style="fill: #eeeeee; stroke: #000000; stroke-width: 0.3"/>
    <path d="M 133.939716 -5.999413 
L 134.146478 -6.442874 
L 134.515302 -6.209659 
L 134.11854 -5.717264 
z
" clip-path="url(#p576721e9aa)" style="fill: #eeeeee; stroke: #000000; stroke-width: 0.3"/>
    <path d="M 133.335068 -6.378828 
L 133.78604 -6.519599 
L 133.697744 -6.021159 
z
" clip-path="url(#p576721e9aa)" style="fill: #eeeeee; stroke: #000000; stroke-width: 0.3"/>
    <path d="M 12.788236 -42.520308 
L 12.840651 -43.058622 
L 14.192448 -43.119645 
L 14.309801 -46.414185 
L 13.843181 -47.043125 
L 15.111154 -47.807702 
L 15.78174 -48.886147 
L 17.200594 -49.329608 
L 17.32298 -49.823214 
L 18.970391 -48.035474 
L 20.699669 -49.202733 
L 20.713084 -50.562719 
L 21.954227 -50.2993 
L 24.347111 -51.59102 
L 24.794174 -50.701075 
L 24.150968 -49.94284 
L 24.420878 -48.030038 
L 25.065202 -48.292855 
L 25.891703 -47.950285 
L 26.748381 -48.446311 
L 28.764054 -51.229118 
L 30.142674 -51.960772 
L 30.54726 -52.871861 
L 32.593115 -53.693533 
L 34.288026 -57.225514 
L 34.120383 -63.838159 
L 35.847147 -65.560649 
L 37.573353 -69.1754 
L 38.597116 -70.180738 
L 40.140589 -70.660449 
L 42.527882 -73.533888 
L 42.348501 -75.449105 
L 43.587412 -78.799232 
L 43.161031 -82.536631 
L 44.26806 -85.663061 
L 44.273651 -89.220565 
L 47.196859 -94.880132 
L 47.377916 -100.24532 
L 46.812387 -101.893044 
L 47.955178 -102.318377 
L 49.739504 -105.292257 
L 51.500358 -106.584427 
L 53.747946 -106.389128 
L 56.528654 -104.488859 
L 57.833508 -102.402509 
L 59.408271 -102.626808 
L 61.243449 -101.680979 
L 64.089538 -101.691548 
L 67.149661 -100.728959 
L 68.2701 -101.094631 
L 68.713248 -102.745675 
L 69.237981 -102.850652 
L 70.367363 -104.790947 
L 73.158134 -103.430353 
L 74.096396 -104.266979 
L 77.7254 -105.412334 
L 78.479253 -106.032815 
L 78.466958 -106.537147 
L 80.274193 -105.339988 
L 83.394106 -106.010917 
L 83.696987 -107.637648 
L 84.670741 -108.016006 
L 86.655681 -106.816578 
L 88.209768 -107.215781 
L 89.854946 -106.099731 
L 91.135771 -106.374023 
L 91.82592 -106.041729 
L 92.943006 -107.010819 
L 94.176888 -106.593792 
L 96.568658 -104.582051 
L 96.721215 -103.459506 
L 98.027464 -103.191854 
L 98.220541 -102.426675 
L 100.014361 -101.585823 
L 102.036187 -103.214968 
L 104.555085 -101.968108 
L 105.832834 -103.890428 
L 106.702926 -103.726999 
L 107.666336 -103.226899 
L 107.618279 -102.132443 
L 108.388894 -101.780818 
L 109.78931 -99.719838 
L 111.605483 -99.202219 
L 111.701602 -97.713691 
L 112.80416 -98.075891 
L 113.304865 -96.996394 
L 113.612223 -97.170391 
L 113.685985 -96.430588 
L 112.787399 -94.455102 
L 113.379752 -93.273644 
L 112.607455 -90.88717 
L 113.479223 -90.226207 
L 113.999485 -90.655171 
L 114.471134 -89.981822 
L 115.132501 -90.055834 
L 115.640192 -88.887213 
L 111.351502 -83.83439 
L 110.056986 -83.234445 
L 109.602662 -81.905576 
L 108.480541 -81.414081 
L 108.443661 -79.506714 
L 107.16004 -77.017531 
L 106.357573 -71.165535 
L 106.483306 -68.47758 
L 104.62019 -66.897679 
L 104.064161 -65.818024 
L 104.087627 -63.746323 
L 102.635807 -62.611087 
L 102.586631 -61.87219 
L 102.77104 -61.086767 
L 103.51316 -60.547845 
L 103.330984 -60.14607 
L 104.627176 -58.784272 
L 104.521275 -53.796242 
L 105.1941 -52.66584 
L 105.580248 -50.274532 
L 105.109157 -47.831868 
L 106.669954 -43.247724 
L 105.932868 -41.507113 
L 106.265925 -39.693395 
L 107.181278 -37.899009 
L 109.256747 -36.316681 
L 110.357629 -34.800218 
L 112.832103 -28.693261 
L 102.759307 -27.003998 
L 102.78054 -25.351593 
L 99.857332 -22.392368 
L 100.74139 -21.770677 
L 101.728278 -19.352788 
L 101.033101 -16.852732 
L 101.73442 -14.376835 
L 100.949277 -13.2555 
L 99.899804 -9.171912 
L 100.697524 -7.18902 
L 102.012716 -6.490604 
L 103.548365 -4.230397 
L 106.060277 -3.796605 
L 105.922805 -5.026699 
L 107.680307 -5.544471 
L 107.588103 2.064148 
L 106.696778 1.862962 
L 106.97675 1.044312 
L 106.464306 0.718057 
L 104.35419 1.95419 
L 103.32595 1.714937 
L 101.779687 -1.243984 
L 100.886686 -1.26815 
L 100.237333 -3.397852 
L 97.728216 -4.295045 
L 97.176653 -4.911299 
L 95.995305 -4.728843 
L 94.819537 -6.901434 
L 93.81086 -7.561193 
L 93.518598 -8.961052 
L 92.673097 -8.809409 
L 92.261801 -6.976353 
L 91.016743 -6.369165 
L 89.379388 -6.960646 
L 87.035681 -7.012 
L 85.090974 -8.03003 
L 84.410326 -7.751505 
L 83.595839 -8.536929 
L 83.408634 -11.152379 
L 80.176398 -10.385083 
L 78.978282 -9.593014 
L 77.913162 -9.95733 
L 78.444606 -10.659376 
L 78.327253 -11.705196 
L 76.995576 -12.038097 
L 76.941371 -12.763099 
L 76.331694 -13.030745 
L 75.424722 -12.124491 
L 73.382219 -12.519012 
L 70.994364 -11.691903 
L 68.21869 -12.042926 
L 66.794808 -10.832169 
L 66.404745 -13.153996 
L 67.237394 -13.68627 
L 67.204422 -15.982119 
L 66.374569 -18.537154 
L 64.85513 -20.141227 
L 64.385158 -21.608155 
L 65.20663 -27.162896 
L 64.17951 -29.843603 
L 64.757891 -32.927289 
L 64.347157 -34.017209 
L 57.510507 -33.999689 
L 58.002275 -36.165038 
L 56.423597 -36.149933 
L 56.287245 -35.662366 
L 52.110592 -35.662366 
L 52.063654 -32.8711 
L 51.212006 -32.317681 
L 51.211449 -29.816414 
L 46.674915 -30.224228 
L 46.626858 -29.842393 
L 44.532947 -29.696788 
L 44.412799 -29.189287 
L 43.168297 -29.5681 
L 41.720387 -29.252117 
L 40.183618 -31.268236 
L 39.429765 -33.170768 
L 38.181354 -34.477587 
L 38.330002 -35.587447 
L 37.221296 -37.378817 
L 36.886 -38.80103 
L 36.997767 -40.413562 
L 36.057823 -42.090134 
L 21.949199 -42.44539 
L 18.699363 -42.159014 
L 16.285944 -42.603563 
L 15.584722 -42.306823 
L 15.347503 -41.640687 
L 13.870816 -41.215909 
L 13.912428 -41.62602 
L 13.584599 -41.484607 
z
" clip-path="url(#p576721e9aa)" style="fill: #eeeeee; stroke: #000000; stroke-width: 0.3"/>
    <path d="M 15.469272 -41.869044 
L 15.918228 -42.268919 
L 16.818101 -42.289672 
z
" clip-path="url(#p576721e9aa)" style="fill: #eeeeee; stroke: #000000; stroke-width: 0.3"/>
    <path d="M 9.913594 25.97692 
L 10.116446 24.342332 
L 11.916917 23.596782 
L 12.752356 24.097642 
L 14.507062 24.154433 
L 17.746566 22.497193 
L 19.441477 22.843382 
L 19.666125 23.495891 
L 22.149262 25.259464 
L 46.334591 25.062499 
L 47.357797 26.513117 
L 48.694503 27.45562 
L 53.457918 27.987895 
L 56.513569 27.780665 
L 59.055095 28.81259 
L 60.975216 28.223524 
L 62.19457 28.713505 
L 77.515838 25.586315 
L 81.930547 26.180824 
L 83.135373 27.425415 
L 81.478456 27.392183 
L 79.375607 28.937653 
L 78.219401 28.372145 
L 74.214311 31.421394 
L 72.499837 28.622879 
L 59.968215 30.495808 
L 60.020743 51.801272 
L 54.578919 52.015751 
L 54.5968 89.55498 
L 52.364302 90.191168 
L 51.749592 91.20859 
L 50.726948 91.427301 
L 50.84821 92.248371 
L 49.939004 92.683374 
L 47.913826 91.995825 
L 44.78218 92.358329 
L 43.413059 91.653261 
L 41.87462 91.552972 
L 41.627063 91.062383 
L 40.657499 91.203153 
L 40.749147 90.554882 
L 40.228323 89.836521 
L 40.636266 89.396684 
L 40.344561 88.416722 
L 39.627589 88.4427 
L 38.888264 87.242816 
L 37.896354 87.569071 
L 37.224648 88.637245 
L 37.071529 89.897544 
L 34.943619 90.336773 
L 31.704639 87.229815 
L 29.257697 83.125259 
L 28.896881 80.922182 
L 28.110126 79.45885 
L 28.573469 78.856584 
L 28.232453 77.85328 
L 27.479141 77.354244 
L 27.547787 75.738204 
L 26.797995 73.943298 
L 26.867955 69.924375 
L 24.737385 64.277996 
L 25.03308 63.073465 
L 24.602741 60.284765 
L 24.914273 59.664892 
L 24.472055 57.686828 
L 24.606699 57.154968 
L 24.737385 57.830025 
L 25.116239 57.273899 
L 25.004039 55.215439 
L 18.99734 45.285163 
L 17.808411 41.426559 
L 17.049275 40.668032 
L 13.873763 33.916768 
L 11.612825 31.583133 
L 10.342311 28.372315 
z
" clip-path="url(#p576721e9aa)" style="fill: #eeeeee; stroke: #000000; stroke-width: 0.3"/>
    <path d="M 35.609365 90.710694 
L 37.071529 89.897544 
L 37.224648 88.637245 
L 37.896354 87.569071 
L 38.888264 87.242816 
L 39.627589 88.4427 
L 40.344561 88.416722 
L 40.636266 89.396684 
L 40.228323 89.836521 
L 40.749147 90.554882 
L 40.657499 91.203153 
L 41.627063 91.062383 
L 41.87462 91.552972 
L 43.413059 91.653261 
L 44.78218 92.358329 
L 47.913826 91.995825 
L 49.939004 92.683374 
L 50.84821 92.248371 
L 50.726948 91.427301 
L 51.749592 91.20859 
L 52.364302 90.191168 
L 54.5968 89.55498 
L 54.595686 68.102093 
L 56.668921 69.743024 
L 58.245918 72.283556 
L 58.145332 73.175312 
L 59.245657 76.162334 
L 57.968741 78.278134 
L 58.430889 80.607817 
L 59.603862 80.071316 
L 63.696128 80.439859 
L 64.224777 80.097294 
L 64.323686 79.358999 
L 65.821892 79.004954 
L 66.852365 77.422633 
L 68.457304 76.606999 
L 69.399482 75.3026 
L 70.076778 72.361497 
L 71.08266 71.299367 
L 73.4001 71.19847 
L 75.917046 73.227275 
L 77.315781 73.207937 
L 78.156253 73.943818 
L 79.91934 74.361903 
L 84.209431 73.706377 
L 84.906003 73.170478 
L 86.246623 69.644541 
L 86.426004 68.076717 
L 89.324064 67.402467 
L 90.009741 66.384438 
L 91.675039 65.255848 
L 92.367139 62.058878 
L 93.233597 60.926665 
L 95.512481 59.966636 
L 95.832123 59.124422 
L 96.61951 59.147986 
L 99.583508 55.541694 
L 102.885597 54.663833 
L 103.567922 53.320764 
L 106.934835 52.75103 
L 110.576691 54.027036 
L 114.997543 53.861492 
L 115.734635 54.334561 
L 117.07246 58.775211 
L 117.025236 60.527911 
L 118.770724 63.29773 
L 119.506696 66.176605 
L 119.556429 73.271983 
L 118.994809 75.30018 
L 116.343193 73.85138 
L 114.820395 74.868802 
L 113.115709 77.718069 
L 113.104251 80.123273 
L 113.524766 79.908794 
L 113.921809 81.242199 
L 114.939986 82.38891 
L 117.01937 83.057729 
L 119.407781 83.089144 
L 119.525696 80.119648 
L 124.40822 80.340844 
L 124.257734 81.341769 
L 121.699463 90.215463 
L 119.670538 91.67451 
L 119.958312 91.795347 
L 119.644579 92.151187 
L 118.330685 92.477535 
L 116.14599 94.876139 
L 114.179104 98.207163 
L 114.48756 98.169107 
L 109.104812 106.018563 
L 105.584222 108.58367 
L 100.917825 113.756705 
L 93.090329 119.385477 
L 89.711867 120.782203 
L 85.977428 120.661372 
L 85.158994 121.313589 
L 85.502205 122.364466 
L 81.476034 122.073321 
L 80.83405 123.362538 
L 74.353015 122.04145 
L 73.008756 122.342585 
L 73.124919 122.80356 
L 68.665769 122.125651 
L 66.424756 122.646574 
L 66.308593 123.202693 
L 65.223067 123.468147 
L 64.367671 124.38915 
L 63.00977 124.199813 
L 61.757039 124.642233 
L 59.634828 124.267366 
L 59.049601 124.487153 
L 59.243651 124.878669 
L 57.305811 124.910546 
L 54.780544 126.947599 
L 52.820698 126.685471 
L 51.444759 125.678367 
L 50.894299 125.771606 
L 51.236629 125.085613 
L 50.859094 124.551847 
L 49.934176 124.501896 
L 50.0455 123.881076 
L 48.303029 124.363463 
L 48.522156 123.039043 
L 48.20798 122.683677 
L 46.468586 122.785006 
L 46.423708 124.191249 
L 45.592071 123.08091 
L 45.58415 122.330216 
L 46.501152 121.247942 
L 45.544111 119.116218 
L 43.638389 116.910756 
L 44.571228 117.468307 
L 44.08457 116.512102 
L 43.351496 116.530177 
L 43.033362 115.281873 
L 43.706154 114.58161 
L 44.524588 114.987881 
L 45.484705 114.026438 
L 45.77116 111.990811 
L 45.379102 109.841485 
L 39.999874 100.810331 
L 37.523891 93.522227 
z
M 92.556301 96.827979 
L 94.606627 99.611395 
L 94.52448 100.595589 
L 94.989142 100.590153 
L 96.5653 102.286664 
L 98.377569 102.628621 
L 98.629598 101.450489 
L 99.240951 100.836655 
L 99.036422 100.428841 
L 100.027213 99.620455 
L 102.253568 99.300245 
L 104.13848 98.3082 
L 103.973627 97.316756 
L 105.715481 94.933304 
L 105.044333 93.456708 
L 103.254984 92.400015 
L 101.381243 90.422565 
L 98.789422 91.191678 
L 98.02495 92.221183 
L 96.585976 92.397601 
L 94.438417 95.739269 
z
" clip-path="url(#p576721e9aa)" style="fill: #eeeeee; stroke: #000000; stroke-width: 0.3"/>
    <path d="M 149.86946 197.854374 
L 150.195959 197.152205 
L 151.053555 197.243544 
L 151.457492 197.510903 
L 150.974787 197.954277 
z
" clip-path="url(#p576721e9aa)" style="fill: #eeeeee; stroke: #000000; stroke-width: 0.3"/>
    <path d="M 151.270044 196.027591 
L 151.48257 195.814468 
L 151.90103 195.907707 
L 151.68938 196.134152 
z
" clip-path="url(#p576721e9aa)" style="fill: #eeeeee; stroke: #000000; stroke-width: 0.3"/>
    <path d="M 65.401102 -0.590878 
L 76.327223 -0.590878 
L 75.597398 -1.828823 
L 76.490399 -4.194148 
L 76.07687 -5.557156 
L 76.078546 -8.567741 
L 76.657484 -9.91202 
L 76.147842 -13.037391 
L 76.941371 -12.763099 
L 76.995576 -12.038097 
L 78.327253 -11.705196 
L 78.444606 -10.659376 
L 77.867338 -10.062459 
L 78.737987 -9.580931 
L 80.176398 -10.385083 
L 83.408634 -11.152379 
L 83.595839 -8.536929 
L 84.410326 -7.751505 
L 85.090974 -8.03003 
L 87.035681 -7.012 
L 89.379388 -6.960646 
L 91.016743 -6.369165 
L 92.261801 -6.976353 
L 92.673097 -8.809409 
L 93.518598 -8.961052 
L 93.81086 -7.561193 
L 94.819537 -6.901434 
L 95.995305 -4.728843 
L 97.176653 -4.911299 
L 97.728216 -4.295045 
L 100.237333 -3.397852 
L 100.886686 -1.26815 
L 101.779687 -1.243984 
L 103.32595 1.714937 
L 104.35419 1.95419 
L 106.464306 0.718057 
L 106.97675 1.044312 
L 106.696778 1.862962 
L 107.506512 2.079861 
L 107.680307 -5.544471 
L 105.922805 -5.026699 
L 106.060277 -3.796605 
L 103.548365 -4.230397 
L 102.012716 -6.490604 
L 100.697524 -7.18902 
L 99.874656 -9.26193 
L 100.949277 -13.2555 
L 101.73442 -14.376835 
L 101.033101 -16.852732 
L 101.728278 -19.352788 
L 100.74139 -21.770677 
L 99.857332 -22.392368 
L 102.78054 -25.351593 
L 102.759307 -27.003998 
L 112.832103 -28.693261 
L 114.354338 -26.31887 
L 116.082783 -26.395601 
L 117.086989 -25.715307 
L 117.809547 -24.490649 
L 119.236781 -24.376465 
L 119.244605 -23.621252 
L 121.868841 -23.141536 
L 122.380447 -22.472723 
L 124.558458 -21.597884 
L 124.915549 -20.308584 
L 125.934846 -20.461438 
L 126.843489 -19.121994 
L 126.63058 -17.76382 
L 127.869771 -16.785062 
L 128.63173 -14.763505 
L 127.695138 -13.640352 
L 126.243875 -12.973352 
L 127.099989 -11.327592 
L 126.231579 -9.855831 
L 126.136022 -8.994887 
L 126.590903 -8.82089 
L 126.684227 -7.776882 
L 126.352846 -5.62966 
L 126.875904 -4.528253 
L 127.836519 -4.366339 
L 126.880932 -3.331392 
L 125.120635 -2.863765 
L 124.667992 -1.944825 
L 125.059725 -1.083274 
L 124.976458 0.583933 
L 123.975605 2.488277 
L 123.165871 2.886428 
L 123.742019 3.181864 
L 123.705139 3.943724 
L 124.305872 4.197474 
L 124.985402 5.54115 
L 125.744846 4.80769 
L 126.082374 5.327274 
L 109.9251 10.98352 
L 110.984354 14.777103 
L 106.533602 14.925128 
L 102.992893 16.725552 
L 102.586631 17.29106 
L 102.586631 19.206885 
L 102.06692 20.049093 
L 96.961511 22.547343 
L 95.666157 24.906021 
L 93.168773 27.940165 
L 90.922581 29.033715 
L 88.283535 27.943789 
L 86.729448 28.622879 
L 85.415094 27.526914 
L 83.544987 27.700912 
L 81.930547 26.180824 
L 80.024397 25.661842 
L 77.515838 25.586315 
L 72.980423 26.531239 
L 66.094597 20.117365 
L 65.410039 17.781041 
z
" clip-path="url(#p576721e9aa)" style="fill: #eeeeee; stroke: #000000; stroke-width: 0.3"/>
    <path d="M 10.0104 16.102301 
L 11.397336 14.700343 
L 11.745393 12.454446 
L 12.225892 12.077673 
L 13.231774 7.780447 
L 13.218138 5.785261 
L 13.687196 4.536484 
L 14.157136 4.399952 
L 14.226658 1.890501 
L 16.549078 -0.702677 
L 16.520037 -1.671252 
L 17.812812 -2.927641 
L 18.971819 -3.110792 
L 20.306838 -4.991333 
L 21.130992 -7.667286 
L 21.424487 -11.626267 
L 20.802298 -13.669032 
L 21.020107 -14.173773 
L 19.700054 -15.760315 
L 16.827612 -23.433757 
L 16.806049 -23.760105 
L 17.314708 -24.611649 
L 17.585763 -24.736291 
L 16.917811 -23.492746 
L 18.059223 -25.304307 
L 17.917977 -25.016014 
L 18.90274 -25.414194 
L 18.896138 -27.799003 
L 16.03611 -34.119275 
L 15.947133 -36.186509 
L 14.417642 -37.821243 
L 13.010008 -40.954699 
L 15.860211 -41.333864 
L 17.847157 -42.35899 
L 35.853295 -42.179556 
L 36.997767 -40.413562 
L 36.886 -38.80103 
L 37.221296 -37.378817 
L 38.330002 -35.587447 
L 38.181354 -34.477587 
L 39.429765 -33.170768 
L 40.183618 -31.268236 
L 41.720387 -29.252117 
L 43.168297 -29.5681 
L 44.412799 -29.189287 
L 44.532947 -29.696788 
L 46.626858 -29.842393 
L 46.674915 -30.224228 
L 51.211449 -29.816414 
L 51.212006 -32.317681 
L 52.063654 -32.8711 
L 52.110592 -35.662366 
L 56.287245 -35.662366 
L 56.423597 -36.149933 
L 58.002275 -36.165038 
L 57.510507 -33.999689 
L 64.347157 -34.017209 
L 64.757891 -32.927289 
L 64.17951 -29.843603 
L 65.20663 -27.162896 
L 64.385158 -21.608155 
L 64.85513 -20.141227 
L 66.374569 -18.537154 
L 67.204422 -15.982119 
L 67.237394 -13.68627 
L 66.404745 -13.153996 
L 66.794808 -10.832169 
L 68.21869 -12.042926 
L 70.994364 -11.691903 
L 73.382219 -12.519012 
L 75.424722 -12.124491 
L 76.147842 -13.037391 
L 76.657484 -9.91202 
L 76.078546 -8.567741 
L 76.07687 -5.557156 
L 76.490399 -4.194148 
L 75.597398 -1.828823 
L 76.327223 -0.590878 
L 65.401102 -0.590878 
L 65.422335 17.907314 
L 66.329864 20.431537 
L 67.313951 20.8756 
L 69.647044 23.775018 
L 72.980423 26.531239 
L 62.19457 28.713505 
L 60.975216 28.223524 
L 59.055095 28.81259 
L 56.513569 27.780665 
L 53.457918 27.987895 
L 48.694503 27.45562 
L 47.357797 26.513117 
L 46.334591 25.062499 
L 22.149262 25.259464 
L 19.666125 23.495891 
L 19.441477 22.843382 
L 17.746566 22.497193 
L 14.507062 24.154433 
L 12.752356 24.097642 
L 11.916917 23.596782 
L 10.131845 24.181534 
L 10.477701 19.738265 
z
" clip-path="url(#p576721e9aa)" style="fill: #eeeeee; stroke: #000000; stroke-width: 0.3"/>
    <path d="M 11.492353 -47.250414 
L 12.454503 -48.721211 
L 13.180976 -48.662 
L 13.533033 -49.67157 
L 14.813301 -49.941636 
L 15.558774 -50.924013 
L 16.14386 -50.802574 
L 17.245861 -49.496965 
L 15.78174 -48.886147 
L 15.111154 -47.807702 
L 13.843181 -47.043125 
L 14.309801 -46.414185 
L 14.192448 -43.119645 
L 12.578787 -42.902313 
L 12.236452 -43.75291 
L 12.679995 -44.635857 
L 11.565428 -47.096303 
L 11.983947 -46.897386 
L 12.181447 -47.277508 
z
" clip-path="url(#p576721e9aa)" style="fill: #eeeeee; stroke: #000000; stroke-width: 0.3"/>
    <path d="M 9.829007 19.862744 
L 9.925083 19.896006 
L 10.026523 21.063621 
z
" clip-path="url(#p576721e9aa)" style="fill: #eeeeee; stroke: #000000; stroke-width: 0.3"/>
    <path d="M 54.578919 52.015751 
L 60.020743 51.801272 
L 59.968215 30.495808 
L 72.499837 28.622879 
L 74.214311 31.421394 
L 78.219401 28.372145 
L 79.375607 28.937653 
L 81.478456 27.392183 
L 83.135373 27.425415 
L 83.109662 28.635564 
L 86.817181 34.014496 
L 86.859652 35.078438 
L 87.978415 37.61475 
L 88.778655 37.849168 
L 88.825592 38.282358 
L 90.997743 39.896095 
L 93.635669 40.863974 
L 93.995831 43.218426 
L 96.319419 43.296366 
L 96.148981 46.582448 
L 97.899773 49.392444 
L 101.280658 49.948885 
L 103.567922 50.830371 
L 103.577703 52.134173 
L 105.251381 53.103263 
L 103.567922 53.320764 
L 102.982274 54.588914 
L 102.368131 54.893417 
L 99.583508 55.541694 
L 96.61951 59.147986 
L 95.832123 59.124422 
L 95.512481 59.966636 
L 93.233597 60.926665 
L 92.367139 62.058878 
L 91.675039 65.255848 
L 90.009741 66.384438 
L 89.324064 67.402467 
L 86.426004 68.076717 
L 86.246623 69.644541 
L 84.906003 73.170478 
L 84.209431 73.706377 
L 79.91934 74.361903 
L 78.156253 73.943818 
L 77.315781 73.207937 
L 75.917046 73.227275 
L 73.4001 71.19847 
L 71.08266 71.299367 
L 70.076778 72.361497 
L 69.351425 75.376308 
L 68.457304 76.606999 
L 66.852365 77.422633 
L 65.821892 79.004954 
L 64.323686 79.358999 
L 64.224777 80.097294 
L 63.696128 80.439859 
L 59.603862 80.071316 
L 58.430889 80.607817 
L 57.968741 78.278134 
L 59.245657 76.162334 
L 58.145332 73.175312 
L 58.245918 72.283556 
L 56.668921 69.743024 
L 54.595686 68.102093 
z
" clip-path="url(#p576721e9aa)" style="fill: #eeeeee; stroke: #000000; stroke-width: 0.3"/>
    <path d="M 83.109662 28.635564 
L 83.135373 27.425415 
L 84.523212 27.824163 
L 85.415094 27.526914 
L 86.729448 28.622879 
L 88.283535 27.943789 
L 90.922581 29.033715 
L 92.659682 28.386648 
L 95.666157 24.906021 
L 96.961511 22.547343 
L 102.325097 19.780238 
L 102.586631 17.29106 
L 102.992893 16.725552 
L 106.533602 14.925128 
L 110.908073 14.809727 
L 110.942163 16.944866 
L 115.578163 17.074763 
L 116.35996 17.886165 
L 118.015194 18.211209 
L 119.094281 19.444928 
L 121.149917 19.57845 
L 123.211695 20.44362 
L 123.533576 21.081018 
L 124.816078 20.92212 
L 124.060548 22.404153 
L 125.103316 24.803312 
L 124.643401 25.696279 
L 125.118959 26.403153 
L 124.593668 28.470628 
L 124.742873 30.127266 
L 125.217592 30.686723 
L 124.287429 31.760942 
L 124.459268 33.156575 
L 123.317871 33.505785 
L 123.26199 34.211456 
L 124.207239 34.964254 
L 123.706815 37.186996 
L 124.078991 37.402685 
L 124.011091 38.416482 
L 124.679168 38.270269 
L 125.163669 39.058715 
L 125.025635 40.507515 
L 124.366225 40.922583 
L 123.211695 43.429286 
L 122.183461 43.845559 
L 122.234313 45.794009 
L 121.416755 46.949786 
L 121.99737 47.999833 
L 115.734635 54.334561 
L 113.295928 53.662118 
L 110.576691 54.027036 
L 107.461807 52.777008 
L 105.288543 53.128031 
L 103.577703 52.134173 
L 103.567922 50.830371 
L 101.280658 49.948885 
L 97.899773 49.392444 
L 96.148981 46.582448 
L 96.319419 43.296366 
L 93.995831 43.218426 
L 93.635669 40.863974 
L 90.997743 39.896095 
L 88.825592 38.282358 
L 88.778655 37.849168 
L 87.978415 37.61475 
L 86.859652 35.078438 
L 86.817181 34.014496 
z
" clip-path="url(#p576721e9aa)" style="fill: #eeeeee; stroke: #000000; stroke-width: 0.3"/>
    <path d="M 109.9251 10.98352 
L 126.082374 5.327274 
L 128.473019 8.763795 
L 128.88152 8.108877 
L 130.667803 8.140894 
L 132.253742 7.510744 
L 133.1948 8.797027 
L 133.470301 12.677009 
L 131.654123 16.293572 
L 132.580657 17.286828 
L 132.699124 18.538668 
L 135.289274 21.268315 
L 136.439889 21.80965 
L 136.157128 23.425199 
L 137.378714 23.539389 
L 137.30439 21.033896 
L 136.513656 20.080514 
L 137.825777 17.761704 
L 138.58242 17.939331 
L 140.045422 17.184721 
L 140.344951 13.530699 
L 140.040394 12.096402 
L 140.689747 10.430703 
L 140.381275 9.048358 
L 136.254923 3.51718 
L 135.060155 2.415779 
L 133.857006 2.278633 
L 133.341772 1.304709 
L 133.066834 -2.42695 
L 132.30739 -5.279239 
L 133.72792 -8.910305 
L 138.674068 -8.709114 
L 140.268394 -9.873958 
L 142.115862 -8.907885 
L 142.286862 -8.190132 
L 144.590336 -8.07413 
L 145.641485 -8.938096 
L 146.789305 -8.988848 
L 147.379982 -8.346616 
L 149.153688 -8.085009 
L 151.031338 -9.171912 
L 151.686282 -10.630983 
L 153.408574 -10.670857 
L 154.682695 -9.873958 
L 156.867135 -11.310675 
L 158.715722 -11.272608 
L 160.1234 -12.345616 
L 161.67693 -12.685158 
L 165.595293 -15.344054 
L 165.574168 -14.82599 
L 166.376327 -14.120969 
L 165.459324 -13.681395 
L 166.188878 -13.220894 
L 165.517406 -12.549649 
L 165.57373 -12.073446 
L 165.895822 -12.209505 
L 165.57373 -11.195257 
L 164.720973 -10.437432 
L 165.353721 -10.039252 
L 165.146911 -8.490765 
L 165.647654 -7.386131 
L 165.673174 -5.249654 
L 165.274515 -4.904278 
L 165.868544 -4.182123 
L 165.420605 -3.51611 
L 165.873821 -3.346754 
L 166.332325 -1.965724 
L 165.056706 -0.93816 
L 165.448764 -0.471474 
L 165.539406 -0.90343 
L 166.053348 -0.741686 
L 165.684615 2.385253 
L 166.053348 2.704463 
L 165.751499 3.120724 
L 166.352563 5.432748 
L 165.747098 6.207701 
L 166.03311 6.785234 
L 166.599855 6.313316 
L 166.869143 6.829953 
L 166.795219 7.233365 
L 166.275119 7.233365 
L 166.238157 8.556833 
L 166.622732 7.771883 
L 167.168358 7.647247 
L 167.390568 7.961226 
L 166.949669 8.373202 
L 167.315324 8.314213 
L 167.420046 9.367469 
L 166.761783 10.430709 
L 166.312081 10.237094 
L 167.019629 11.078647 
L 166.462567 10.955437 
L 166.684339 11.518221 
L 165.689893 11.857886 
L 165.607172 12.156163 
L 166.270718 12.05436 
L 166.520649 12.453966 
L 165.980749 13.968677 
L 163.186188 16.874402 
L 163.563723 16.858706 
L 162.793692 18.237831 
L 161.663721 18.702617 
L 161.796608 19.211164 
L 162.056222 19.449979 
L 158.126413 22.010801 
L 157.917402 22.68871 
L 155.605547 22.932757 
L 152.955753 24.464115 
L 152.458092 23.898005 
L 152.712862 24.456984 
L 147.638569 27.101534 
L 146.52796 28.701399 
L 146.008298 27.933577 
L 145.709964 27.913596 
L 146.490998 28.901199 
L 143.764203 31.881614 
L 143.410426 33.216978 
L 142.494749 32.686545 
L 142.650517 33.836845 
L 142.000607 33.892982 
L 141.876523 33.309744 
L 140.424903 34.190312 
L 136.485854 38.595998 
L 135.151716 39.521759 
L 133.781941 37.95805 
L 133.384601 37.878601 
L 134.597736 39.239178 
L 134.228117 39.641637 
L 134.583213 41.209631 
L 133.936385 41.205819 
L 134.412483 41.64444 
L 133.855422 42.518823 
L 134.266398 43.05021 
L 134.006789 43.483593 
L 134.394002 43.385595 
L 135.110353 44.488797 
L 135.764221 44.5887 
L 136.003592 45.80608 
L 136.449773 45.969731 
L 135.889186 46.815569 
L 136.19104 48.048171 
L 136.486735 47.210417 
L 136.449773 48.371187 
L 137.265569 49.931564 
L 137.453017 54.283493 
L 137.930877 54.862931 
L 138.186967 52.710747 
L 138.508178 52.631777 
L 138.597506 53.824898 
L 138.781872 53.058982 
L 138.446576 56.045582 
L 138.708386 57.547443 
L 139.077562 57.359054 
L 138.387613 58.891365 
L 137.911072 62.23 
L 137.86355 61.818976 
L 137.640465 61.810413 
L 137.597339 63.495905 
L 137.855634 62.793736 
L 138.320291 63.00258 
L 138.373096 62.431232 
L 138.651624 62.55159 
L 138.48662 64.295597 
L 136.37585 67.19847 
L 126.485111 71.283998 
L 126.71216 71.02425 
L 124.298216 72.728297 
L 123.294091 74.727768 
L 122.777511 75.213482 
L 122.372693 75.102162 
L 122.157524 75.304348 
L 124.134532 77.082132 
L 124.739996 75.855709 
L 124.40822 80.340844 
L 120.195163 80.305127 
L 119.961015 75.451829 
L 119.304957 75.14974 
L 119.070253 74.301488 
L 119.556429 73.271983 
L 119.506696 66.176605 
L 118.770724 63.29773 
L 117.025236 60.527911 
L 117.07246 58.775211 
L 115.681544 54.439685 
L 121.99737 47.999833 
L 121.416755 46.949786 
L 122.234313 45.794009 
L 122.183461 43.845559 
L 123.211695 43.429286 
L 124.366225 40.922583 
L 125.025635 40.507515 
L 125.163669 39.058715 
L 124.679168 38.270269 
L 124.011091 38.416482 
L 124.078991 37.402685 
L 123.706815 37.186996 
L 124.207239 34.964254 
L 123.26199 34.211456 
L 123.317871 33.505785 
L 124.459268 33.156575 
L 124.287429 31.760942 
L 125.217592 30.686723 
L 124.742873 30.127266 
L 124.593668 28.470628 
L 125.118959 26.403153 
L 124.643401 25.696279 
L 125.103316 24.803312 
L 124.060548 22.404153 
L 124.816078 20.92212 
L 123.533576 21.081018 
L 123.211695 20.44362 
L 121.149917 19.57845 
L 119.094281 19.444928 
L 118.015194 18.211209 
L 116.35996 17.886165 
L 115.578163 17.074763 
L 110.942163 16.944866 
L 110.88963 13.902263 
z
M 133.939716 -5.999413 
L 134.11854 -5.717264 
L 134.515302 -6.209659 
L 134.146478 -6.442874 
z
M 133.335068 -6.378828 
L 133.697744 -6.021159 
L 133.78604 -6.519599 
z
" clip-path="url(#p576721e9aa)" style="fill: #eeeeee; stroke: #000000; stroke-width: 0.3"/>
    <path d="M 138.151762 50.742679 
L 138.165847 50.099973 
L 138.33921 49.375918 
L 138.453616 49.918248 
z
" clip-path="url(#p576721e9aa)" style="fill: #eeeeee; stroke: #000000; stroke-width: 0.3"/>
    <path d="M 161.868974 18.793091 
L 162.545032 18.704119 
L 162.177922 19.37461 
z
" clip-path="url(#p576721e9aa)" style="fill: #eeeeee; stroke: #000000; stroke-width: 0.3"/>
    <path d="M 124.544627 75.402818 
L 124.89224 75.213482 
L 124.776958 75.652576 
z
" clip-path="url(#p576721e9aa)" style="fill: #eeeeee; stroke: #000000; stroke-width: 0.3"/>
    <path d="M 113.013723 79.585561 
L 113.115709 77.718069 
L 114.820395 74.868802 
L 116.343193 73.85138 
L 118.684943 75.289909 
L 119.961015 75.451829 
L 119.795049 77.05288 
L 120.214163 78.798326 
L 120.195163 80.305127 
L 119.525696 80.119648 
L 119.407781 83.089144 
L 117.01937 83.057729 
L 114.939986 82.38891 
z
" clip-path="url(#p576721e9aa)" style="fill: #eeeeee; stroke: #000000; stroke-width: 0.3"/>
    <path d="M 92.556301 96.827979 
L 94.438417 95.739269 
L 96.585976 92.397601 
L 98.02495 92.221183 
L 98.789422 91.191678 
L 101.381243 90.422565 
L 103.254984 92.400015 
L 105.044333 93.456708 
L 105.715481 94.933304 
L 103.973627 97.316756 
L 104.13848 98.3082 
L 102.253568 99.300245 
L 100.027213 99.620455 
L 99.036422 100.428841 
L 99.240951 100.836655 
L 98.629598 101.450489 
L 98.377569 102.628621 
L 96.5653 102.286664 
L 94.989142 100.590153 
L 94.52448 100.595589 
L 94.606627 99.611395 
z
" clip-path="url(#p576721e9aa)" style="fill: #eeeeee; stroke: #000000; stroke-width: 0.3"/>
   </g>
   <g id="PatchCollection_2">
    <defs>
     <path id="m599c46f301" d="M 54.578919 -55.984249 
L 60.020743 -56.198728 
L 59.968215 -77.504192 
L 72.499837 -79.377121 
L 74.214311 -76.578606 
L 78.219401 -79.627855 
L 79.375607 -79.062347 
L 81.478456 -80.607817 
L 83.135373 -80.574585 
L 83.109662 -79.364436 
L 86.817181 -73.985504 
L 86.859652 -72.921562 
L 87.978415 -70.38525 
L 88.778655 -70.150832 
L 88.825592 -69.717642 
L 90.997743 -68.103905 
L 93.635669 -67.136026 
L 93.995831 -64.781574 
L 96.319419 -64.703634 
L 96.148981 -61.417552 
L 97.899773 -58.607556 
L 101.280658 -58.051115 
L 103.567922 -57.169629 
L 103.577703 -55.865827 
L 105.251381 -54.896737 
L 103.567922 -54.679236 
L 102.982274 -53.411086 
L 102.368131 -53.106583 
L 99.583508 -52.458306 
L 96.61951 -48.852014 
L 95.832123 -48.875578 
L 95.512481 -48.033364 
L 93.233597 -47.073335 
L 92.367139 -45.941122 
L 91.675039 -42.744152 
L 90.009741 -41.615562 
L 89.324064 -40.597533 
L 86.426004 -39.923283 
L 86.246623 -38.355459 
L 84.906003 -34.829522 
L 84.209431 -34.293623 
L 79.91934 -33.638097 
L 78.156253 -34.056182 
L 77.315781 -34.792063 
L 75.917046 -34.772725 
L 73.4001 -36.80153 
L 71.08266 -36.700633 
L 70.076778 -35.638503 
L 69.351425 -32.623692 
L 68.457304 -31.393001 
L 66.852365 -30.577367 
L 65.821892 -28.995046 
L 64.323686 -28.641001 
L 64.224777 -27.902706 
L 63.696128 -27.560141 
L 59.603862 -27.928684 
L 58.430889 -27.392183 
L 57.968741 -29.721866 
L 59.245657 -31.837666 
L 58.145332 -34.824688 
L 58.245918 -35.716444 
L 56.668921 -38.256976 
L 54.595686 -39.897907 
z
" style="stroke: #dd0000; stroke-width: 0.5"/>
    </defs>
    <g clip-path="url(#p576721e9aa)">
     <use xlink:href="#m599c46f301" x="0" y="108" style="fill: #ff6b6b; stroke: #dd0000; stroke-width: 0.5"/>
    </g>
   </g>
  </g>
 </g>
 <defs>
  <clipPath id="p576721e9aa">
   <rect x="0" y="0" width="159.8303" height="108"/>
  </clipPath>
 </defs>
</svg>
