<?xml version="1.0" encoding="utf-8" standalone="no"?>
<!DOCTYPE svg PUBLIC "-//W3C//DTD SVG 1.1//EN"
  "http://www.w3.org/Graphics/SVG/1.1/DTD/svg11.dtd">
<svg xmlns:xlink="http://www.w3.org/1999/xlink" width="126.922319pt" height="108pt" viewBox="0 0 126.922319 108" xmlns="http://www.w3.org/2000/svg" version="1.1">
 <metadata>
  <rdf:RDF xmlns:dc="http://purl.org/dc/elements/1.1/" xmlns:cc="http://creativecommons.org/ns#" xmlns:rdf="http://www.w3.org/1999/02/22-rdf-syntax-ns#">
   <cc:Work>
    <dc:type rdf:resource="http://purl.org/dc/dcmitype/StillImage"/>
    <dc:date>2025-09-05T13:56:19.777398</dc:date>
    <dc:format>image/svg+xml</dc:format>
    <dc:creator>
     <cc:Agent>
      <dc:title>Matplotlib v3.10.3, https://matplotlib.org/</dc:title>
     </cc:Agent>
    </dc:creator>
   </cc:Work>
  </rdf:RDF>
 </metadata>
 <defs>
  <style type="text/css">*{stroke-linejoin: round; stroke-linecap: butt}</style>
 </defs>
 <g id="figure_1">
  <g id="patch_1">
   <path d="M 0 108 
L 126.922319 108 
L 126.922319 0 
L 0 0 
z
" style="fill: #ffffff"/>
  </g>
  <g id="axes_1">
   <g id="PatchCollection_1">
    <path d="M 32.651348 -17.448366 
L 32.705871 -19.524945 
L 34.293776 -20.937321 
L 36.416401 -25.858184 
L 39.445847 -25.074173 
L 37.73168 -26.980136 
L 38.250137 -28.418558 
L 37.584371 -32.097647 
L 46.99126 -42.189423 
L 49.759566 -42.649794 
L 50.929444 -44.364313 
L 50.68265 -46.533344 
L 49.54051 -47.730838 
L 51.257546 -48.340983 
L 46.556018 -53.989518 
L 47.133784 -55.246274 
L 46.384794 -58.022841 
L 49.759566 -57.534143 
L 53.549488 -61.23895 
L 66.295276 -61.850065 
L 79.097021 -59.685911 
L 80.174123 -57.553019 
L 84.109437 -57.574831 
L 84.309362 -55.99315 
L 85.392203 -57.873395 
L 87.609528 -57.176645 
L 88.898022 -58.365357 
L 90.043993 -56.808083 
L 92.543505 -57.125208 
L 93.699036 -55.206216 
L 94.357157 -56.861486 
L 96.794491 -58.096089 
L 97.69414 -57.752276 
L 99.170601 -54.756593 
L 102.112047 -56.335666 
L 103.878831 -55.567948 
L 106.84037 -56.254277 
L 110.459059 -53.11337 
L 111.439544 -54.780358 
L 110.232358 -57.756837 
L 112.32915 -61.46458 
L 114.176289 -62.672811 
L 113.96871 -63.496539 
L 121.794394 -64.018125 
L 123.146029 -63.117229 
L 126.134825 -63.7697 
L 127.624679 -66.868924 
L 132.388385 -65.78897 
L 134.923289 -67.379119 
L 137.678203 -67.25897 
L 137.951782 -66.374039 
L 140.672737 -67.219252 
L 143.090941 -64.749704 
L 143.376959 -62.14374 
L 146.305966 -59.949633 
L 145.969256 -59.07903 
L 143.310959 -58.549959 
L 144.556407 -56.63651 
L 144.206304 -55.116687 
L 145.343658 -54.366547 
L 144.207257 -53.286581 
L 148.116749 -53.098727 
L 148.732786 -52.262952 
L 152.470091 -52.766305 
L 153.07082 -50.887043 
L 155.027958 -50.472576 
L 154.377491 -49.448608 
L 156.081135 -45.973338 
L 155.237444 -45.38469 
L 157.400246 -41.981043 
L 161.976466 -42.855565 
L 163.486885 -41.094801 
L 164.79165 -41.387178 
L 166.498163 -40.125218 
L 174.095221 -42.990999 
L 175.797921 -41.214623 
L 175.77879 -40.0308 
L 179.51131 -36.286603 
L 181.045645 -36.800364 
L 181.117393 -38.307171 
L 182.283448 -38.31172 
L 182.802868 -37.304372 
L 185.659174 -37.110319 
L 188.183555 -35.072828 
L 190.204786 -35.956461 
L 191.177617 -34.329846 
L 193.92297 -34.071327 
L 196.181426 -31.780535 
L 199.087479 -32.390024 
L 198.341358 -31.085738 
L 199.494974 -29.151775 
L 199.329488 -28.045448 
L 197.266173 -25.550824 
L 195.001016 -24.57213 
L 198.506844 -23.054915 
L 195.976716 -22.525517 
L 194.609782 -19.743078 
L 196.67693 -19.354985 
L 197.315911 -17.086975 
L 196.314388 -16.230698 
L 197.931948 -15.545011 
L 195.795931 -12.535972 
L 195.554875 -10.028987 
L 187.626835 -10.599086 
L 186.305818 -8.279311 
L 182.46041 -7.197719 
L 181.254178 -3.539472 
L 182.267186 -2.972952 
L 180.824322 -0.22136 
L 180.169792 -1.004299 
L 175.309367 -0.775103 
L 173.354811 1.734188 
L 172.353798 1.047128 
L 168.898105 2.767342 
L 168.979451 3.064205 
L 168.117036 4.822348 
L 168.424342 3.721528 
L 167.439155 3.025748 
L 164.700503 3.731785 
L 163.57296 5.200235 
L 162.750464 4.423961 
L 160.086382 4.629052 
L 156.290241 7.209109 
L 153.239008 11.238135 
L 151.57594 11.873406 
L 154.90811 8.623212 
L 153.484553 6.396948 
L 153.680387 7.858732 
L 152.744911 9.102106 
L 150.004001 10.627978 
L 151.516336 16.416054 
L 149.788489 15.328074 
L 148.85977 13.18151 
L 146.786356 13.416743 
L 145.576866 11.975901 
L 141.06286 10.388033 
L 139.434509 10.105762 
L 138.009248 12.270256 
L 135.217119 11.238135 
L 135.406928 10.033736 
L 134.368264 11.141739 
L 128.634883 11.894941 
L 122.918069 8.821637 
L 122.134732 9.262073 
L 122.122682 8.541684 
L 124.548003 7.892061 
L 121.648169 6.554357 
L 121.074225 7.437272 
L 119.424707 5.449933 
L 126.914561 7.002985 
L 129.949968 4.66853 
L 127.083277 5.770384 
L 124.186461 4.926444 
L 123.422718 3.291852 
L 124.044863 1.321435 
L 123.937908 1.004575 
L 123.38204 0.822556 
L 123.761658 0.135496 
L 122.72826 -0.078819 
L 123.020507 -0.915085 
L 122.407395 -2.100004 
L 121.732522 -2.471212 
L 121.584899 -3.011636 
L 121.447059 -2.525559 
L 122.811864 -0.928921 
L 122.470665 0.146774 
L 123.681812 1.047128 
L 122.723744 2.690427 
L 123.044608 4.66853 
L 119.28311 4.93156 
L 120.441538 2.603771 
L 119.424707 3.46413 
L 118.798795 2.767342 
L 119.402115 3.776392 
L 118.572085 4.926444 
L 112.782969 5.886778 
L 112.614253 7.858732 
L 111.498001 8.512463 
L 110.038292 11.840077 
L 106.74604 15.125125 
L 106.64436 14.223246 
L 106.340063 15.187171 
L 104.782441 15.200503 
L 104.838936 16.329525 
L 103.636063 16.161871 
L 104.170088 17.025821 
L 103.000368 17.713902 
L 102.116101 15.042577 
L 101.667198 18.410186 
L 102.753314 18.230725 
L 101.81558 19.429492 
L 103.205235 20.063225 
L 102.452034 22.763772 
L 102.227795 21.093482 
L 100.195087 20.031433 
L 98.321172 20.115431 
L 95.560521 21.938039 
L 94.26341 21.404735 
L 94.38298 22.378224 
L 93.525896 22.595072 
L 90.010507 21.385859 
L 88.800452 19.636171 
L 91.600328 19.044259 
L 91.341094 17.164342 
L 93.787036 14.900893 
L 93.805214 13.443582 
L 95.810184 12.836701 
L 96.351595 10.553053 
L 95.593997 9.59064 
L 95.707829 7.123373 
L 97.914631 6.074341 
L 98.066724 8.35407 
L 99.048162 6.906525 
L 99.677582 7.60979 
L 100.44475 6.746343 
L 101.907347 8.294821 
L 102.818953 6.916946 
L 103.874046 8.57742 
L 106.682529 7.52612 
L 104.557036 6.165181 
L 104.800008 2.650508 
L 101.380272 0.936972 
L 101.782038 -0.515463 
L 100.632245 -1.152296 
L 101.252095 -1.455094 
L 101.36067 -3.829896 
L 99.999947 -3.271843 
L 97.649659 -5.417109 
L 97.296206 -6.467111 
L 98.393873 -10.718579 
L 97.356949 -12.044993 
L 95.749913 -11.526015 
L 94.351419 -13.756261 
L 92.263224 -14.300314 
L 91.392749 -13.16566 
L 90.763329 -14.498588 
L 89.891899 -14.053199 
L 90.264955 -15.354222 
L 87.817098 -15.339567 
L 87.661182 -16.315993 
L 83.094522 -18.472007 
L 79.628881 -16.891624 
L 76.143145 -17.279074 
L 75.610333 -15.96632 
L 74.735072 -16.508093 
L 71.252215 -15.019519 
L 70.04502 -12.261185 
L 61.610481 -11.06955 
L 59.927884 -9.108244 
L 58.230932 -8.694105 
L 54.949898 -11.63965 
L 52.07063 -11.050019 
L 44.94229 -11.986399 
L 41.964489 -13.584033 
L 39.544379 -11.676444 
L 38.83938 -13.493849 
L 37.025727 -13.570348 
L 35.87785 -15.404361 
L 34.727103 -15.410875 
L 33.937926 -17.431443 
z
" clip-path="url(#p6f169f90af)" style="fill: #eeeeee; stroke: #000000; stroke-width: 0.3"/>
    <path d="M 119.388556 8.149458 
L 120.441538 9.587654 
L 124.630847 10.555183 
L 125.514355 10.972031 
L 120.091297 9.543047 
L 119.551247 8.907272 
z
" clip-path="url(#p6f169f90af)" style="fill: #eeeeee; stroke: #000000; stroke-width: 0.3"/>
    <path d="M 102.974758 18.003078 
L 106.165321 15.469682 
L 106.630801 15.229724 
L 104.613725 17.057096 
L 103.682765 17.713902 
z
" clip-path="url(#p6f169f90af)" style="fill: #eeeeee; stroke: #000000; stroke-width: 0.3"/>
    <path d="M 129.70819 12.097978 
L 133.762685 12.536361 
L 133.601503 12.700953 
z
" clip-path="url(#p6f169f90af)" style="fill: #eeeeee; stroke: #000000; stroke-width: 0.3"/>
    <path d="M 17.021979 68.932031 
L 17.859931 68.483378 
L 17.542352 66.60801 
L 18.160295 64.855398 
L 19.417229 65.152665 
L 20.175789 62.223716 
L 23.078011 60.788217 
L 24.840009 62.127017 
L 26.205036 60.146495 
L 33.910188 58.590859 
L 36.336999 61.630507 
L 39.179922 63.011948 
L 40.765911 66.831359 
L 40.057098 68.14216 
L 40.12979 71.450079 
L 38.375446 71.88637 
L 37.945951 74.09837 
L 31.867919 73.944703 
L 27.549016 77.543045 
L 21.844993 77.755974 
L 19.549238 76.951789 
L 17.539483 72.890467 
L 17.910632 70.80934 
z
" clip-path="url(#p6f169f90af)" style="fill: #eeeeee; stroke: #000000; stroke-width: 0.3"/>
    <path d="M 6.173549 60.980644 
L 10.127994 55.006189 
L 10.916208 57.277463 
L 13.27415 56.229086 
L 15.111719 59.22608 
L 17.369212 60.350313 
L 18.457791 63.754275 
L 17.542352 66.60801 
L 17.859931 68.483378 
L 17.021979 68.932031 
L 17.910632 70.80934 
L 17.539483 72.890467 
L 19.549238 76.951789 
L 21.765601 77.184249 
L 21.645077 78.816069 
L 22.505983 80.39775 
L 21.581937 82.504923 
L 20.04378 83.141769 
L 18.90451 87.274059 
L 15.668438 88.623936 
L 16.585783 90.751295 
L 15.502952 90.929055 
L 15.655045 92.020413 
L 14.615261 93.032978 
L 12.809559 92.406717 
L 13.001626 90.151735 
L 12.045057 89.637975 
L 11.647373 87.887518 
L 8.063632 85.76637 
L 6.335777 83.161704 
L 8.051582 84.069228 
L 7.232094 81.613264 
L 7.863272 81.479947 
L 6.472867 80.228886 
L 7.183892 77.014075 
L 8.500485 76.858216 
L 8.241382 75.825061 
L 8.095267 76.438797 
L 7.800012 76.685937 
L 8.437216 72.627173 
L 7.295364 70.64752 
L 8.437216 69.388773 
L 7.736742 68.481753 
L 9.329007 68.231034 
L 9.131673 65.540745 
L 7.034751 65.117748 
L 7.103324 61.943713 
z
" clip-path="url(#p6f169f90af)" style="fill: #eeeeee; stroke: #000000; stroke-width: 0.3"/>
    <path d="M 13.232057 53.788835 
L 17.319474 52.477064 
L 17.163558 51.286412 
L 19.065211 49.580361 
L 18.50179 48.162112 
L 20.263789 47.341647 
L 20.672246 48.508534 
L 23.023487 49.513942 
L 24.577916 52.086048 
L 25.946765 52.584511 
L 25.67127 53.880658 
L 29.318659 55.098339 
L 26.942549 58.948672 
L 27.38714 60.153942 
L 25.561261 60.436591 
L 24.936626 62.105533 
L 23.078011 60.788217 
L 20.175789 62.223716 
L 19.218266 65.22299 
L 18.160295 64.855398 
L 17.546184 60.595802 
L 15.111719 59.22608 
L 13.512337 56.367784 
L 13.872963 55.027686 
z
" clip-path="url(#p6f169f90af)" style="fill: #eeeeee; stroke: #000000; stroke-width: 0.3"/>
    <path d="M 69.091163 94.806292 
L 69.894074 92.878945 
L 69.995004 88.79198 
L 75.251604 83.373965 
L 80.354556 82.559246 
L 81.885069 84.401474 
L 84.757785 84.485055 
L 85.876295 83.591367 
L 84.031692 82.207002 
L 84.732925 81.691704 
L 87.272725 82.480793 
L 86.065345 83.420122 
L 86.441945 83.84671 
L 96.687018 83.830304 
L 97.611953 82.989425 
L 94.290324 81.487129 
L 100.749797 79.295216 
L 104.902955 79.196765 
L 98.565505 78.24258 
L 98.652125 77.499119 
L 96.279532 75.473838 
L 96.786439 74.896506 
L 97.047801 74.082291 
L 96.84895 73.933097 
L 97.77991 72.920961 
L 106.731731 74.046404 
L 108.079209 73.142458 
L 113.176895 74.851395 
L 116.860056 74.699114 
L 118.355158 73.483941 
L 118.455338 71.87038 
L 125.473687 68.146432 
L 126.41293 66.783602 
L 136.23395 63.017606 
L 148.911109 63.938461 
L 151.963083 62.091621 
L 153.743656 62.959667 
L 152.59427 64.164067 
L 154.501384 66.846669 
L 157.078844 67.923397 
L 161.412768 67.018948 
L 162.241299 70.037892 
L 164.653051 72.627173 
L 168.013089 71.242808 
L 170.11227 72.147258 
L 171.506451 74.010517 
L 175.109017 75.389753 
L 177.507219 74.313025 
L 178.542875 76.083479 
L 182.570253 76.893082 
L 192.744513 74.440696 
L 199.339558 76.831036 
L 210.886916 71.078216 
L 212.093556 69.378516 
L 214.798148 70.543009 
L 216.047427 69.487475 
L 220.814965 70.416685 
L 222.646785 68.445601 
L 224.11799 68.646168 
L 223.623448 69.5031 
L 227.487505 72.090831 
L 226.738987 72.723116 
L 229.331765 73.499301 
L 232.454006 78.846021 
L 232.329651 80.748078 
L 230.962717 82.437207 
L 232.461178 86.324663 
L 231.943193 87.070896 
L 235.339966 88.350447 
L 238.053748 88.022259 
L 242.508797 92.996574 
L 240.275858 91.40897 
L 239.292504 92.258732 
L 238.630561 95.836889 
L 235.177349 96.346101 
L 235.758947 98.538909 
L 236.76717 99.231098 
L 236.44624 101.505623 
L 237.585029 103.030978 
L 237.719435 108.843929 
L 239.285813 109.39742 
L 236.910174 114.956426 
L 240.557092 117.23453 
L 240.277774 120.626773 
L 242.458744 122.573437 
L 242.130642 124.473213 
L 240.688138 124.01414 
L 237.675907 126.650057 
L 236.705946 125.15759 
L 237.214842 123.278 
L 235.854601 122.340649 
L 233.275696 123.745213 
L 226.847081 121.584965 
L 225.201783 122.227343 
L 223.752579 121.529937 
L 221.575431 124.48623 
L 219.835433 124.875633 
L 219.737863 123.240235 
L 218.483808 122.167438 
L 216.614669 124.048654 
L 211.714178 125.309304 
L 204.580091 124.995442 
L 195.845669 129.510634 
L 190.980561 130.5297 
L 186.217809 130.11817 
L 183.949792 128.079369 
L 181.583243 127.415834 
L 174.38124 130.870918 
L 170.743411 131.050644 
L 169.925543 129.363468 
L 166.91905 128.427744 
L 165.913696 132.826365 
L 167.198368 135.871871 
L 164.449193 135.994288 
L 164.310492 138.938207 
L 162.819203 139.470869 
L 162.278746 141.133284 
L 160.176002 139.898768 
L 160.769539 138.629235 
L 159.028884 135.028334 
L 162.951564 130.767566 
L 162.745938 128.759712 
L 161.184549 127.189738 
L 157.356773 129.532912 
L 157.104454 130.229196 
L 158.305059 129.79133 
L 157.512689 131.270037 
L 154.944262 132.044257 
L 148.899059 128.606915 
L 145.042656 131.465891 
L 142.10667 136.171217 
L 141.293207 134.894513 
L 139.600763 137.135659 
L 139.221145 136.435784 
L 138.342164 137.255631 
L 134.683103 137.135659 
L 131.414203 138.520023 
L 127.358198 136.619844 
L 124.14955 131.975544 
L 117.87462 128.673573 
L 111.818865 127.632732 
L 110.738774 129.01711 
L 110.738774 132.208836 
L 109.420663 136.009699 
L 106.932082 135.0991 
L 102.43245 137.307937 
L 97.101279 133.93622 
L 97.273003 131.898125 
L 96.342802 131.958117 
L 97.101279 130.479914 
L 95.644578 129.3955 
L 94.625498 131.270037 
L 91.137412 127.728108 
L 90.619213 128.914047 
L 89.334245 128.19982 
L 89.685237 129.79133 
L 87.286284 131.745844 
L 86.576768 131.270037 
L 87.783399 130.746031 
L 86.640038 130.183051 
L 88.031202 129.804661 
L 88.050037 128.774065 
L 86.191884 129.532912 
L 84.357083 129.332949 
L 83.910429 130.573753 
L 81.440673 130.479914 
L 80.991769 129.885672 
L 83.671668 128.700237 
L 87.208706 129.01711 
L 87.34127 127.031307 
L 88.483882 127.375348 
L 90.002334 125.79819 
L 82.900382 126.600611 
L 81.183078 125.912014 
L 80.134621 126.723154 
L 80.039717 124.699411 
L 82.929009 124.678393 
L 82.584043 123.831882 
L 83.343269 123.745742 
L 83.399755 122.799748 
L 81.989766 123.08585 
L 82.246602 122.136793 
L 81.371387 122.189603 
L 81.467791 121.060582 
L 79.464274 121.758907 
L 79.628473 118.74048 
L 77.804964 117.872938 
L 80.008082 116.882349 
L 79.911678 113.812636 
L 76.523763 113.218381 
L 75.479832 110.929567 
L 74.328938 111.09518 
L 73.950069 112.350852 
L 72.054257 110.363513 
L 70.600582 110.129188 
L 73.191593 108.205432 
L 72.033173 107.93677 
L 71.67314 105.653072 
L 72.275701 105.099832 
L 74.277718 107.117943 
L 73.8868 108.384893 
L 74.673144 109.789772 
L 74.944299 108.240299 
L 75.802196 109.141674 
L 79.218729 108.033154 
L 77.100723 108.180823 
L 75.983722 106.821067 
L 76.678929 107.258934 
L 76.30007 106.132987 
L 75.098706 105.436703 
L 75.098706 104.576343 
L 76.805468 104.404569 
L 76.747465 103.371427 
L 78.278727 102.485425 
L 75.907643 101.688133 
L 76.544106 99.914604 
L 75.095698 97.7473 
L 74.081884 97.591944 
L 77.049504 94.913966 
L 77.121807 93.817241 
z
" clip-path="url(#p6f169f90af)" style="fill: #eeeeee; stroke: #000000; stroke-width: 0.3"/>
    <path d="M 68.750714 79.196765 
L 71.766841 76.303225 
L 71.410047 72.755676 
L 74.290269 71.353065 
L 73.954512 68.140863 
L 71.528664 66.873371 
L 71.536308 65.909319 
L 73.312662 65.472058 
L 74.049213 63.667997 
L 77.133191 63.30498 
L 78.129457 62.212325 
L 80.228646 62.101299 
L 82.755897 64.502802 
L 85.213324 63.324184 
L 87.109285 63.603141 
L 87.369888 64.640907 
L 86.695024 65.497159 
L 89.108285 69.318536 
L 97.220284 72.893277 
L 96.138684 75.754824 
L 92.740986 76.256261 
L 92.062346 74.843696 
L 91.964434 75.989653 
L 88.483882 74.785254 
L 86.410311 76.222428 
L 82.55015 75.994265 
L 80.363599 79.593616 
L 74.768049 82.71973 
L 71.641505 85.941724 
L 71.921692 86.524688 
L 69.900849 87.7619 
L 70.960607 85.555634 
L 70.471026 84.282522 
L 76.115527 80.873394 
L 75.758511 80.135061 
L 73.123057 80.916463 
L 68.940522 80.135061 
z
" clip-path="url(#p6f169f90af)" style="fill: #eeeeee; stroke: #000000; stroke-width: 0.3"/>
    <path d="M 65.326647 86.869245 
L 67.757993 85.399245 
L 68.35302 86.733887 
L 66.277191 87.23482 
z
" clip-path="url(#p6f169f90af)" style="fill: #eeeeee; stroke: #000000; stroke-width: 0.3"/>
    <path d="M 83.06609 82.45413 
L 83.319169 82.090092 
L 83.775606 82.795612 
z
" clip-path="url(#p6f169f90af)" style="fill: #eeeeee; stroke: #000000; stroke-width: 0.3"/>
    <path d="M 82.570484 80.405777 
L 84.479855 80.58113 
L 83.295817 81.190771 
z
" clip-path="url(#p6f169f90af)" style="fill: #eeeeee; stroke: #000000; stroke-width: 0.3"/>
    <path d="M 68.24004 90.548586 
L 68.482567 90.409637 
L 69.137106 91.169504 
z
" clip-path="url(#p6f169f90af)" style="fill: #eeeeee; stroke: #000000; stroke-width: 0.3"/>
    <path d="M 15.158588 11.492042 
L 17.247735 10.659845 
L 19.056603 11.118276 
L 20.303013 9.481895 
L 23.503683 9.278732 
L 24.764439 7.607182 
L 24.951934 5.244111 
L 26.81054 3.989308 
L 28.023474 -0.032612 
L 31.436508 -4.709295 
L 31.494854 -6.266556 
L 33.949412 -8.866661 
L 37.324185 -9.468981 
L 41.964489 -13.584033 
L 44.94229 -11.986399 
L 52.07063 -11.050019 
L 54.949898 -11.63965 
L 58.230932 -8.694105 
L 59.927884 -9.108244 
L 61.610481 -11.06955 
L 70.04502 -12.261185 
L 71.252215 -15.019519 
L 74.815908 -15.810687 
L 77.126018 -14.928365 
L 79.260601 -12.134207 
L 80.300385 -8.479211 
L 83.028522 -5.548321 
L 82.995999 -4.474542 
L 87.593266 0.398122 
L 89.1209 4.506987 
L 89.231381 7.462625 
L 87.962499 9.903846 
L 87.719528 12.668694 
L 88.508695 17.485373 
L 87.529173 17.975041 
L 90.010507 21.385859 
L 93.525896 22.595072 
L 94.38298 22.378224 
L 94.26341 21.404735 
L 95.560521 21.938039 
L 99.190695 19.862129 
L 101.482155 20.478133 
L 102.684019 23.415953 
L 101.927801 27.200409 
L 97.654129 28.171517 
L 96.216263 29.374896 
L 95.977502 28.668872 
L 97.492938 27.924377 
L 96.617723 27.149137 
L 97.233084 25.832451 
L 96.054322 25.300243 
L 95.00059 26.168805 
L 95.710865 28.413529 
L 94.210487 29.874809 
L 95.262711 29.023674 
L 95.908207 29.222615 
L 96.09424 29.546658 
L 93.967951 30.157836 
L 93.973976 32.192857 
L 95.51503 30.236276 
L 92.832124 34.068931 
L 93.171064 38.088721 
L 92.307141 41.315844 
L 89.001811 41.054969 
L 86.778267 39.954173 
L 86.140239 38.139704 
L 84.378241 38.701651 
L 83.561326 37.680631 
L 81.251216 37.865561 
L 77.952966 35.824806 
L 69.838403 37.899419 
L 66.417715 41.432641 
L 62.919068 42.465392 
L 45.163253 39.560221 
L 39.647687 40.077888 
L 39.620902 38.124722 
L 40.96392 36.882948 
L 37.814904 35.17168 
L 35.836719 32.209528 
L 36.794241 30.92999 
L 38.503632 30.711844 
L 35.365131 28.811098 
L 32.593955 31.721813 
L 31.369545 29.757243 
L 25.831018 28.098067 
L 25.456999 27.261977 
L 27.130035 26.849791 
L 25.418738 25.477133 
L 26.732101 23.626512 
L 20.011256 19.414774 
L 20.183443 15.972064 
L 19.279481 16.09123 
z
" clip-path="url(#p6f169f90af)" style="fill: #eeeeee; stroke: #000000; stroke-width: 0.3"/>
    <path d="M -23.239967 1.982412 
L -21.565968 0.198878 
L -19.60883 0.271471 
L -20.179904 -0.050202 
L -19.394559 -1.479829 
L -20.289904 -2.105284 
L -19.730316 -3.234721 
L -20.093811 -4.747388 
L -18.178765 -5.453903 
L -17.732046 -6.526372 
L -18.277289 -7.584514 
L -20.33582 -8.080054 
L -18.855055 -9.250192 
L -16.729561 -8.258142 
L -14.157349 -8.674234 
L -14.817385 -10.624804 
L -13.144349 -12.603046 
L -7.212663 -9.197445 
L 0.812937 -9.549727 
L 1.956992 -10.237694 
L 1.278787 -11.982808 
L 2.16074 -12.851799 
L 7.618922 -13.429383 
L 9.423967 -15.20804 
L 12.250619 -13.98678 
L 15.912363 -15.875153 
L 17.369212 -18.976658 
L 20.318312 -19.520383 
L 23.17845 -18.510755 
L 26.095989 -19.420106 
L 29.191435 -16.553342 
L 33.937926 -17.431443 
L 34.727103 -15.410875 
L 35.87785 -15.404361 
L 37.025727 -13.570348 
L 38.83938 -13.493849 
L 39.544379 -11.676444 
L 37.324185 -9.468981 
L 33.949412 -8.866661 
L 31.494854 -6.266556 
L 31.436508 -4.709295 
L 28.023474 -0.032612 
L 26.81054 3.989308 
L 24.951934 5.244111 
L 24.764439 7.607182 
L 22.642777 9.879098 
L 20.497191 9.430446 
L 19.056603 11.118276 
L 17.247735 10.659845 
L 15.158588 11.492042 
L 8.745753 10.785526 
L 6.094147 13.08805 
L 4.474682 12.616603 
L 3.487505 13.838845 
L 0.468573 14.018558 
L -1.856845 16.107498 
L -6.913262 15.730481 
L -9.384072 13.657822 
L -11.658799 13.412332 
L -16.357459 8.042162 
L -19.340989 6.532104 
L -20.700277 4.751822 
L -21.099165 2.276414 
z
" clip-path="url(#p6f169f90af)" style="fill: #eeeeee; stroke: #000000; stroke-width: 0.3"/>
    <path d="M 12.909739 92.321094 
L 15.188242 92.706742 
L 15.502952 90.929055 
L 16.585783 90.751295 
L 15.668438 88.623936 
L 18.90451 87.274059 
L 20.04378 83.141769 
L 22.340497 81.415532 
L 21.844993 77.755974 
L 27.549016 77.543045 
L 31.867919 73.944703 
L 37.945951 74.09837 
L 38.649987 71.638273 
L 46.345569 71.183105 
L 52.091676 68.779006 
L 54.654319 68.780959 
L 55.304786 70.307285 
L 57.10027 71.472219 
L 58.136232 70.809982 
L 61.832406 72.841626 
L 69.561955 71.349802 
L 69.953188 69.190537 
L 68.888535 67.175186 
L 70.536702 66.411689 
L 73.954512 68.140863 
L 74.333315 70.823012 
L 74.086521 71.69102 
L 71.410047 72.755676 
L 71.766841 76.303225 
L 69.19846 79.19049 
L 68.497635 78.32872 
L 68.942781 77.98827 
L 64.16521 77.490916 
L 60.469239 75.731235 
L 57.355505 77.704727 
L 55.751181 77.640122 
L 54.60782 76.341897 
L 50.951768 79.287516 
L 47.449373 78.985008 
L 47.157885 79.970481 
L 49.144834 81.668632 
L 48.29447 82.070611 
L 48.712498 83.248347 
L 49.95528 83.590346 
L 50.038134 82.799203 
L 53.57743 86.537503 
L 52.70899 86.84514 
L 51.496335 84.990096 
L 49.345185 83.857471 
L 47.438072 83.935924 
L 47.307016 85.241848 
L 49.851342 86.963071 
L 49.851342 89.043732 
L 48.328364 88.347436 
L 46.928907 85.713044 
L 44.735581 84.940865 
L 43.824965 85.586393 
L 44.042632 86.563146 
L 47.599263 89.334962 
L 44.014764 88.94939 
L 43.445347 85.492567 
L 39.642421 83.591367 
L 39.026301 82.131624 
L 40.521412 81.494816 
L 39.848797 80.336561 
L 36.781756 82.559246 
L 37.540982 83.808769 
L 36.709453 87.775232 
L 43.858858 98.796344 
L 42.561839 99.742326 
L 41.158625 99.828465 
L 42.68687 98.796344 
L 41.923118 97.318154 
L 40.0838 96.516237 
L 39.068478 98.271822 
L 40.659243 100.180709 
L 40.342904 100.946726 
L 41.3537 100.602685 
L 38.752139 102.597207 
L 37.174933 102.13729 
L 36.281633 102.847422 
L 41.065979 104.251267 
L 41.644439 105.616151 
L 43.508616 105.436703 
L 43.318807 106.648789 
L 44.20909 106.914893 
L 43.777512 107.314831 
L 45.927153 107.346106 
L 45.985147 107.947014 
L 46.904806 109.16937 
L 49.479258 109.994863 
L 50.678355 111.568933 
L 49.830999 112.115507 
L 50.741625 116.367051 
L 50.235468 118.051882 
L 45.86765 114.003375 
L 45.994939 113.071229 
L 40.632134 115.145728 
L 42.365255 116.065576 
L 41.796588 116.925419 
L 42.237957 118.522561 
L 43.79333 119.514183 
L 43.56661 118.482062 
L 44.367264 118.223644 
L 44.335629 119.772601 
L 45.54226 120.727303 
L 43.108665 121.208238 
L 42.237957 122.487499 
L 41.3537 121.78557 
L 41.899017 120.608351 
L 38.145052 119.125019 
L 41.733318 129.01711 
L 41.007226 130.683468 
L 42.491795 133.412215 
L 40.421991 132.307286 
L 38.704687 128.864312 
L 37.766943 128.662295 
L 36.765939 128.995575 
L 35.902015 131.218247 
L 35.966035 133.93622 
L 34.702919 132.411886 
L 35.012483 129.963595 
L 32.697893 127.305615 
L 32.839491 125.994562 
L 30.895477 126.345785 
L 31.146288 128.844831 
L 30.335092 129.707232 
L 28.713442 128.554621 
L 28.737552 126.983626 
L 27.439025 124.797344 
L 28.412162 121.271822 
L 23.149536 115.197001 
L 25.183179 113.39066 
L 25.630583 110.880336 
L 27.926348 111.710453 
L 30.028536 109.360096 
L 39.448096 114.422781 
L 40.4491 113.925439 
L 39.524924 113.03945 
L 42.277126 112.658993 
L 42.744864 111.654052 
L 38.878678 110.800875 
L 37.40541 108.746877 
L 36.628108 109.96205 
L 35.139022 107.947014 
L 34.960514 109.342669 
L 33.173165 109.589809 
L 31.031808 108.473074 
L 26.958478 109.933333 
L 25.151545 107.407119 
L 25.281851 108.674586 
L 23.606732 109.831304 
L 22.056635 105.293646 
L 20.869589 103.535503 
L 19.66145 103.45705 
L 20.363432 102.726416 
L 20.035792 101.57688 
L 22.955211 102.769486 
L 23.808583 102.621817 
L 23.646651 101.088245 
L 22.955211 100.266848 
L 22.706649 100.946726 
L 20.730999 100.594482 
L 20.523115 99.617225 
L 19.789498 100.68832 
L 20.609736 101.517404 
L 20.004158 101.342039 
L 19.714928 101.68865 
L 17.376228 97.498119 
L 15.095531 96.027615 
L 15.353885 94.650936 
L 14.147255 94.38482 
L 14.5939 93.191194 
z
" clip-path="url(#p6f169f90af)" style="fill: #eeeeee; stroke: #000000; stroke-width: 0.3"/>
    <path d="M 45.473724 147.756833 
L 46.048417 144.206184 
L 47.3266 145.000919 
L 47.54051 142.806951 
L 48.240234 144.724041 
L 51.625882 144.084158 
L 51.625882 144.99579 
L 50.598518 145.183454 
L 52.26912 145.426486 
L 53.080325 147.073881 
L 56.605312 146.079701 
L 63.386399 147.756833 
L 66.280958 147.233344 
L 65.784593 149.159154 
L 66.548345 150.012331 
L 69.003783 148.523366 
L 70.104217 148.852538 
L 71.415545 147.490729 
L 71.011826 150.202553 
L 69.805945 151.434636 
L 59.364298 152.324734 
L 56.768002 152.324734 
L 56.807921 150.490192 
L 53.654259 149.055071 
z
" clip-path="url(#p6f169f90af)" style="fill: #eeeeee; stroke: #000000; stroke-width: 0.3"/>
    <path d="M 39.138532 103.007906 
L 43.445347 100.524749 
L 46.174956 103.955425 
L 51.372812 105.436703 
L 52.26912 110.788047 
L 55.371563 111.654052 
L 55.177237 113.812636 
L 53.373312 114.014653 
L 51.820207 112.522614 
L 50.323597 108.601262 
L 46.68563 108.548968 
L 46.360998 106.630329 
L 42.549789 103.203256 
z
" clip-path="url(#p6f169f90af)" style="fill: #eeeeee; stroke: #000000; stroke-width: 0.3"/>
    <path d="M 66.98144 98.186716 
L 69.957344 96.28602 
L 71.795162 96.28602 
L 74.110502 100.439126 
L 73.435638 100.815979 
L 72.971657 99.627482 
L 72.488102 99.755658 
L 73.507191 101.212842 
L 69.976928 100.777534 
L 69.256861 100.008443 
L 71.035177 98.584587 
L 69.035418 99.914604 
z
" clip-path="url(#p6f169f90af)" style="fill: #eeeeee; stroke: #000000; stroke-width: 0.3"/>
    <path d="M 16.107836 111.365896 
L 16.612485 109.072974 
L 17.814599 109.408294 
L 17.88841 107.688609 
L 18.747058 110.410174 
L 19.220071 110.105612 
L 20.294137 112.006295 
L 19.700619 112.874341 
L 17.629306 112.264713 
L 17.03277 110.180473 
L 16.847487 111.452035 
z
" clip-path="url(#p6f169f90af)" style="fill: #eeeeee; stroke: #000000; stroke-width: 0.3"/>
    <path d="M 9.454037 91.631476 
L 12.42995 91.100792 
L 11.476389 92.835875 
L 12.240141 93.18042 
L 12.323745 95.10008 
L 13.76312 95.596918 
L 13.889659 96.464964 
L 12.094768 95.637417 
z
" clip-path="url(#p6f169f90af)" style="fill: #eeeeee; stroke: #000000; stroke-width: 0.3"/>
    <path d="M 59.496853 88.518693 
L 61.827269 89.046807 
L 63.351747 88.002891 
L 62.41778 91.134638 
L 61.507913 89.485706 
L 61.173489 90.936213 
L 59.623392 90.505516 
z
" clip-path="url(#p6f169f90af)" style="fill: #eeeeee; stroke: #000000; stroke-width: 0.3"/>
    <path d="M 84.031692 136.869542 
L 86.025427 134.576116 
L 89.173063 133.412215 
L 87.783399 138.16778 
L 84.479855 139.932072 
L 84.705816 137.79913 
z
" clip-path="url(#p6f169f90af)" style="fill: #eeeeee; stroke: #000000; stroke-width: 0.3"/>
    <path d="M 73.813738 116.926956 
L 75.906893 115.997884 
L 78.326938 116.503442 
L 75.823289 118.138022 
L 74.998535 117.269976 
L 73.981704 117.728356 
z
" clip-path="url(#p6f169f90af)" style="fill: #eeeeee; stroke: #000000; stroke-width: 0.3"/>
    <path d="M 67.04471 106.347301 
L 69.957344 106.821067 
L 69.480563 110.855726 
L 68.533786 111.685844 
L 67.423569 110.880336 
L 68.341719 108.881214 
z
" clip-path="url(#p6f169f90af)" style="fill: #eeeeee; stroke: #000000; stroke-width: 0.3"/>
    <path d="M 52.959052 130.659892 
L 53.211381 129.361654 
L 53.880219 130.049735 
L 53.716779 129.275515 
L 54.869173 129.184764 
L 54.986679 130.183051 
z
" clip-path="url(#p6f169f90af)" style="fill: #eeeeee; stroke: #000000; stroke-width: 0.3"/>
    <path d="M 18.644628 115.36928 
L 19.47315 114.602759 
L 22.044585 117.064368 
L 22.132715 117.449941 
L 21.184429 117.019244 
L 20.455329 118.051882 
z
" clip-path="url(#p6f169f90af)" style="fill: #eeeeee; stroke: #000000; stroke-width: 0.3"/>
    <path d="M 78.326938 144.042109 
L 79.743712 141.013941 
L 79.149434 143.474517 
L 79.660108 144.901964 
L 78.959626 146.372468 
z
" clip-path="url(#p6f169f90af)" style="fill: #eeeeee; stroke: #000000; stroke-width: 0.3"/>
    <path d="M 76.937274 129.838494 
L 80.298821 127.422009 
L 80.991769 127.984976 
L 77.624947 129.366278 
L 77.447948 130.307648 
z
" clip-path="url(#p6f169f90af)" style="fill: #eeeeee; stroke: #000000; stroke-width: 0.3"/>
    <path d="M 76.678929 125.130107 
L 78.108503 126.308864 
L 76.880788 126.944651 
L 77.271698 125.909972 
L 76.932008 125.736661 
z
" clip-path="url(#p6f169f90af)" style="fill: #eeeeee; stroke: #000000; stroke-width: 0.3"/>
    <path d="M 73.40777 121.565106 
L 73.985471 121.783012 
L 73.523009 122.146534 
L 73.69775 122.800781 
L 73.500407 122.768989 
z
" clip-path="url(#p6f169f90af)" style="fill: #eeeeee; stroke: #000000; stroke-width: 0.3"/>
    <path d="M 70.863444 131.457688 
L 72.180796 131.434112 
L 71.795162 130.824471 
L 72.756248 131.519735 
L 71.228753 132.394963 
z
" clip-path="url(#p6f169f90af)" style="fill: #eeeeee; stroke: #000000; stroke-width: 0.3"/>
    <path d="M 66.027879 128.844831 
L 68.497635 127.031307 
L 69.134848 127.606069 
L 67.329414 128.844831 
L 66.180778 129.160154 
z
" clip-path="url(#p6f169f90af)" style="fill: #eeeeee; stroke: #000000; stroke-width: 0.3"/>
    <path d="M 62.535276 134.366917 
L 63.230484 133.93622 
L 62.724336 132.818477 
L 63.622902 133.514761 
L 63.492605 134.547398 
z
" clip-path="url(#p6f169f90af)" style="fill: #eeeeee; stroke: #000000; stroke-width: 0.3"/>
    <path d="M 54.715525 80.405777 
L 55.876961 78.32872 
L 57.21089 79.196765 
L 57.152887 80.744701 
L 55.876961 81.268707 
z
" clip-path="url(#p6f169f90af)" style="fill: #eeeeee; stroke: #000000; stroke-width: 0.3"/>
    <path d="M 53.969857 102.597207 
L 54.200334 101.467152 
L 56.194059 103.45705 
L 55.177237 104.052325 
L 55.087609 103.004315 
z
" clip-path="url(#p6f169f90af)" style="fill: #eeeeee; stroke: #000000; stroke-width: 0.3"/>
    <path d="M 19.732254 105.442852 
L 20.324273 105.277756 
L 19.941638 105.7551 
L 20.31598 106.157596 
L 19.868585 105.772023 
z
" clip-path="url(#p6f169f90af)" style="fill: #eeeeee; stroke: #000000; stroke-width: 0.3"/>
    <path d="M 68.224222 119.759269 
L 69.130322 118.223644 
L 71.795162 117.614016 
L 70.577981 119.061952 
z
" clip-path="url(#p6f169f90af)" style="fill: #eeeeee; stroke: #000000; stroke-width: 0.3"/>
    <path d="M 63.293004 82.386967 
L 64.51771 81.973194 
L 65.580475 82.817663 
L 64.437114 83.420122 
z
" clip-path="url(#p6f169f90af)" style="fill: #eeeeee; stroke: #000000; stroke-width: 0.3"/>
    <path d="M 62.351493 125.216246 
L 64.057506 123.788812 
L 64.563653 126.037631 
L 63.351747 127.289208 
z
" clip-path="url(#p6f169f90af)" style="fill: #eeeeee; stroke: #000000; stroke-width: 0.3"/>
    <path d="M 61.714289 129.79133 
L 62.029129 128.844831 
L 62.977405 129.885672 
L 62.642231 130.625025 
z
" clip-path="url(#p6f169f90af)" style="fill: #eeeeee; stroke: #000000; stroke-width: 0.3"/>
    <path d="M 60.144608 126.099161 
L 61.397941 124.348188 
L 61.902589 124.348188 
L 60.932461 126.446793 
z
" clip-path="url(#p6f169f90af)" style="fill: #eeeeee; stroke: #000000; stroke-width: 0.3"/>
    <path d="M 56.352233 114.092072 
L 57.143094 113.657797 
L 58.760978 114.845274 
L 58.794871 117.614016 
z
" clip-path="url(#p6f169f90af)" style="fill: #eeeeee; stroke: #000000; stroke-width: 0.3"/>
    <path d="M 52.481521 119.561865 
L 52.610319 118.129818 
L 53.40118 117.614016 
L 53.595515 118.390277 
z
" clip-path="url(#p6f169f90af)" style="fill: #eeeeee; stroke: #000000; stroke-width: 0.3"/>
    <path d="M 44.606034 116.662389 
L 44.616576 116.581378 
L 45.732069 116.503442 
L 45.158125 117.707325 
z
" clip-path="url(#p6f169f90af)" style="fill: #eeeeee; stroke: #000000; stroke-width: 0.3"/>
    <path d="M 44.456893 114.938596 
L 45.283915 114.078237 
L 44.651977 113.812636 
L 45.985147 114.258718 
z
" clip-path="url(#p6f169f90af)" style="fill: #eeeeee; stroke: #000000; stroke-width: 0.3"/>
    <path d="M 44.141304 122.447504 
L 44.968325 121.758907 
L 46.111686 121.587662 
L 45.275631 122.229082 
z
" clip-path="url(#p6f169f90af)" style="fill: #eeeeee; stroke: #000000; stroke-width: 0.3"/>
    <path d="M 39.766702 134.599188 
L 40.164396 133.955714 
L 41.638414 135.87332 
L 40.591456 137.135659 
z
" clip-path="url(#p6f169f90af)" style="fill: #eeeeee; stroke: #000000; stroke-width: 0.3"/>
    <path d="M 18.644628 107.594771 
L 19.922063 108.979148 
L 19.979298 109.589809 
L 19.277316 109.417531 
z
" clip-path="url(#p6f169f90af)" style="fill: #eeeeee; stroke: #000000; stroke-width: 0.3"/>
    <path d="M 84.732925 131.605874 
L 85.491402 130.738332 
L 85.501194 132.210386 
z
" clip-path="url(#p6f169f90af)" style="fill: #eeeeee; stroke: #000000; stroke-width: 0.3"/>
    <path d="M 82.501189 136.129684 
L 83.404281 135.805125 
L 83.424615 135.988164 
z
" clip-path="url(#p6f169f90af)" style="fill: #eeeeee; stroke: #000000; stroke-width: 0.3"/>
    <path d="M 80.447952 133.001012 
L 80.991769 132.818477 
L 81.662117 134.008524 
z
" clip-path="url(#p6f169f90af)" style="fill: #eeeeee; stroke: #000000; stroke-width: 0.3"/>
    <path d="M 78.899373 131.685864 
L 78.968668 131.300795 
L 79.531311 131.701237 
z
" clip-path="url(#p6f169f90af)" style="fill: #eeeeee; stroke: #000000; stroke-width: 0.3"/>
    <path d="M 76.295544 146.770856 
L 76.775333 146.11405 
L 77.764296 146.450908 
z
" clip-path="url(#p6f169f90af)" style="fill: #eeeeee; stroke: #000000; stroke-width: 0.3"/>
    <path d="M 75.595071 123.959541 
L 76.308354 123.901098 
L 76.309862 125.020896 
z
" clip-path="url(#p6f169f90af)" style="fill: #eeeeee; stroke: #000000; stroke-width: 0.3"/>
    <path d="M 66.412014 124.699411 
L 66.912895 124.527649 
L 66.93248 124.971677 
z
" clip-path="url(#p6f169f90af)" style="fill: #eeeeee; stroke: #000000; stroke-width: 0.3"/>
    <path d="M 66.096424 134.351531 
L 66.294517 133.801896 
L 67.102704 134.280777 
z
" clip-path="url(#p6f169f90af)" style="fill: #eeeeee; stroke: #000000; stroke-width: 0.3"/>
    <path d="M 65.200866 127.375348 
L 65.522481 127.632732 
L 65.426068 127.780401 
z
" clip-path="url(#p6f169f90af)" style="fill: #eeeeee; stroke: #000000; stroke-width: 0.3"/>
    <path d="M 64.030387 106.132987 
L 64.952304 106.363708 
L 64.37837 106.914893 
z
" clip-path="url(#p6f169f90af)" style="fill: #eeeeee; stroke: #000000; stroke-width: 0.3"/>
    <path d="M 63.324638 128.0583 
L 63.615368 127.89115 
L 63.610101 128.338769 
z
" clip-path="url(#p6f169f90af)" style="fill: #eeeeee; stroke: #000000; stroke-width: 0.3"/>
    <path d="M 62.029129 121.070826 
L 62.081847 120.109459 
L 63.472261 120.338655 
z
" clip-path="url(#p6f169f90af)" style="fill: #eeeeee; stroke: #000000; stroke-width: 0.3"/>
    <path d="M 59.811692 130.824471 
L 60.156667 130.049735 
L 60.885768 129.963595 
z
" clip-path="url(#p6f169f90af)" style="fill: #eeeeee; stroke: #000000; stroke-width: 0.3"/>
    <path d="M 59.427567 126.162228 
L 59.861412 125.729995 
L 59.623392 126.649326 
z
" clip-path="url(#p6f169f90af)" style="fill: #eeeeee; stroke: #000000; stroke-width: 0.3"/>
    <path d="M 59.047949 117.707325 
L 61.58775 118.826619 
L 61.187048 119.546492 
z
" clip-path="url(#p6f169f90af)" style="fill: #eeeeee; stroke: #000000; stroke-width: 0.3"/>
    <path d="M 58.971121 94.284845 
L 59.626409 94.187932 
L 59.047949 95.175458 
z
" clip-path="url(#p6f169f90af)" style="fill: #eeeeee; stroke: #000000; stroke-width: 0.3"/>
    <path d="M 58.094397 121.680984 
L 58.219428 119.829519 
L 58.855132 121.199014 
z
" clip-path="url(#p6f169f90af)" style="fill: #eeeeee; stroke: #000000; stroke-width: 0.3"/>
    <path d="M 57.71478 130.479914 
L 58.705992 130.995213 
L 58.852115 131.347973 
z
" clip-path="url(#p6f169f90af)" style="fill: #eeeeee; stroke: #000000; stroke-width: 0.3"/>
    <path d="M 56.038153 118.614345 
L 56.560118 118.309783 
L 56.578953 118.782012 
z
" clip-path="url(#p6f169f90af)" style="fill: #eeeeee; stroke: #000000; stroke-width: 0.3"/>
    <path d="M 55.876961 125.646426 
L 57.020322 126.901582 
L 56.509658 127.468657 
z
" clip-path="url(#p6f169f90af)" style="fill: #eeeeee; stroke: #000000; stroke-width: 0.3"/>
    <path d="M 55.561372 129.01711 
L 56.094638 129.101195 
L 56.035135 129.404724 
z
" clip-path="url(#p6f169f90af)" style="fill: #eeeeee; stroke: #000000; stroke-width: 0.3"/>
    <path d="M 54.756193 128.562824 
L 55.132044 128.206473 
L 55.233732 129.00941 
z
" clip-path="url(#p6f169f90af)" style="fill: #eeeeee; stroke: #000000; stroke-width: 0.3"/>
    <path d="M 53.843318 124.699411 
L 54.750167 123.691899 
L 54.86014 124.621991 
z
" clip-path="url(#p6f169f90af)" style="fill: #eeeeee; stroke: #000000; stroke-width: 0.3"/>
    <path d="M 53.33792 122.361365 
L 53.969857 120.124844 
L 54.399935 121.064677 
z
" clip-path="url(#p6f169f90af)" style="fill: #eeeeee; stroke: #000000; stroke-width: 0.3"/>
    <path d="M 50.362007 153.365071 
L 50.678355 153.114339 
L 51.184512 153.794217 
z
" clip-path="url(#p6f169f90af)" style="fill: #eeeeee; stroke: #000000; stroke-width: 0.3"/>
    <path d="M 50.348448 96.756711 
L 50.802636 96.901293 
L 50.517173 97.31712 
z
" clip-path="url(#p6f169f90af)" style="fill: #eeeeee; stroke: #000000; stroke-width: 0.3"/>
    <path d="M 48.791585 128.231095 
L 48.905315 128.34953 
L 48.86163 128.37414 
z
" clip-path="url(#p6f169f90af)" style="fill: #eeeeee; stroke: #000000; stroke-width: 0.3"/>
    <path d="M 48.391633 99.21832 
L 49.534994 97.411979 
L 48.968585 99.021433 
z
" clip-path="url(#p6f169f90af)" style="fill: #eeeeee; stroke: #000000; stroke-width: 0.3"/>
    <path d="M 46.111686 98.4441 
L 48.013524 99.492124 
L 47.311533 100.086883 
z
" clip-path="url(#p6f169f90af)" style="fill: #eeeeee; stroke: #000000; stroke-width: 0.3"/>
    <path d="M 44.938949 99.398802 
L 45.031595 98.365648 
L 45.424013 98.810192 
z
" clip-path="url(#p6f169f90af)" style="fill: #eeeeee; stroke: #000000; stroke-width: 0.3"/>
    <path d="M 44.839528 127.154354 
L 45.002219 127.440973 
L 44.970584 127.471227 
z
" clip-path="url(#p6f169f90af)" style="fill: #eeeeee; stroke: #000000; stroke-width: 0.3"/>
    <path d="M 44.715247 119.686462 
L 45.312532 119.55007 
L 45.54226 119.686462 
z
" clip-path="url(#p6f169f90af)" style="fill: #eeeeee; stroke: #000000; stroke-width: 0.3"/>
    <path d="M 43.413712 140.631947 
L 43.738344 140.564268 
L 43.761695 141.014962 
z
" clip-path="url(#p6f169f90af)" style="fill: #eeeeee; stroke: #000000; stroke-width: 0.3"/>
    <path d="M 41.551043 122.799748 
L 42.143812 122.841797 
L 42.179963 123.1843 
z
" clip-path="url(#p6f169f90af)" style="fill: #eeeeee; stroke: #000000; stroke-width: 0.3"/>
    <path d="M 29.112644 129.885672 
L 29.386057 129.443181 
L 29.365723 130.049735 
z
" clip-path="url(#p6f169f90af)" style="fill: #eeeeee; stroke: #000000; stroke-width: 0.3"/>
    <path d="M 28.65319 128.89405 
L 28.91681 128.844831 
L 28.796296 129.01711 
z
" clip-path="url(#p6f169f90af)" style="fill: #eeeeee; stroke: #000000; stroke-width: 0.3"/>
    <path d="M 21.184429 106.742615 
L 21.538437 106.062233 
L 21.310968 106.742615 
z
" clip-path="url(#p6f169f90af)" style="fill: #eeeeee; stroke: #000000; stroke-width: 0.3"/>
    <path d="M 20.96901 106.320638 
L 21.13321 105.735103 
L 21.626557 105.7551 
z
" clip-path="url(#p6f169f90af)" style="fill: #eeeeee; stroke: #000000; stroke-width: 0.3"/>
    <path d="M 17.95168 106.484209 
L 19.263007 102.948934 
L 19.537928 105.759712 
z
" clip-path="url(#p6f169f90af)" style="fill: #eeeeee; stroke: #000000; stroke-width: 0.3"/>
    <path d="M 14.192439 98.422566 
L 14.670729 98.506651 
L 14.779942 98.796344 
z
" clip-path="url(#p6f169f90af)" style="fill: #eeeeee; stroke: #000000; stroke-width: 0.3"/>
    <path d="M 2.316665 14.651498 
L 4.261364 12.702553 
L 6.094147 13.08805 
L 8.745753 10.785526 
L 15.158588 11.492042 
L 19.279481 16.09123 
L 20.183443 15.972064 
L 20.011256 19.414774 
L 26.732101 23.626512 
L 25.418738 25.477133 
L 27.130035 26.849791 
L 25.456999 27.261977 
L 25.831018 28.098067 
L 31.369545 29.757243 
L 32.593955 31.721813 
L 35.365131 28.811098 
L 38.503632 30.711844 
L 35.902719 31.758267 
L 37.823243 35.177262 
L 36.909989 37.250212 
L 35.120252 38.139704 
L 34.656309 40.476087 
L 36.22413 44.680655 
L 40.534425 48.456115 
L 38.150651 52.081814 
L 35.37756 53.005165 
L 35.891242 54.011215 
L 35.35843 56.03894 
L 36.3877 57.229277 
L 35.346 59.150865 
L 33.910188 58.590859 
L 27.488745 60.207709 
L 26.942549 58.948672 
L 27.880941 58.385415 
L 29.241183 54.819633 
L 25.67127 53.880658 
L 25.946765 52.584511 
L 24.577916 52.086048 
L 23.023487 49.513942 
L 20.672246 48.508534 
L 20.495284 47.412955 
L 18.50179 48.162112 
L 18.870071 49.998078 
L 17.163558 51.286412 
L 17.319474 52.477064 
L 16.107503 52.830971 
L 16.03098 51.828827 
L 12.255404 49.221237 
L 9.191518 48.436256 
L 5.283933 44.596986 
L 5.994671 43.239297 
L 8.187117 43.544048 
L 8.35165 42.501531 
L 5.909531 38.030304 
L 8.547743 38.342867 
L 9.383789 37.605744 
L 4.735821 33.72479 
L 4.858261 31.524509 
L 7.141595 27.181231 
L 5.385335 26.367923 
L 3.802215 27.148015 
L 3.576458 26.526807 
L 4.874522 26.044939 
L 4.071009 23.725492 
L 7.430473 22.895261 
L 3.447457 20.777365 
L 3.744822 19.171238 
L 4.639214 19.007793 
L 2.763384 18.23356 
L 3.364103 17.028253 
z
" clip-path="url(#p6f169f90af)" style="fill: #eeeeee; stroke: #000000; stroke-width: 0.3"/>
    <path d="M -47.183065 19.004441 
L -43.648341 20.116728 
L -42.881173 18.975232 
L -39.170644 19.433663 
L -37.244122 17.039972 
L -35.242975 19.593189 
L -34.081705 18.966122 
L -32.076734 20.035982 
L -30.355876 19.748822 
L -30.880072 17.873466 
L -29.906288 17.387692 
L -31.00538 16.338673 
L -27.108328 14.848801 
L -26.905533 12.397815 
L -27.906103 11.42367 
L -27.444084 10.237239 
L -23.932517 9.088585 
L -23.573807 8.096862 
L -21.559276 8.15189 
L -21.936164 6.637598 
L -20.925071 5.96169 
L -16.357459 8.042162 
L -12.169603 13.047677 
L -9.384072 13.657822 
L -6.913262 15.730481 
L -1.856845 16.107498 
L 0.468573 14.018558 
L 2.742337 13.720977 
L 2.221001 15.176335 
L 3.364103 17.028253 
L 2.763384 18.23356 
L 4.639214 19.007793 
L 3.744822 19.171238 
L 3.447457 20.777365 
L 7.430473 22.895261 
L 4.783653 22.987726 
L 4.071009 23.725492 
L 4.874522 26.044939 
L 2.634244 27.204026 
L 0.731629 24.386431 
L -0.814183 24.751073 
L -3.397872 23.470892 
L -7.119878 24.642983 
L -8.517428 23.388836 
L -13.123303 23.582888 
L -15.554899 21.869667 
L -16.597552 23.171345 
L -19.214727 22.654321 
L -21.183342 25.439356 
L -23.921041 22.75916 
L -26.032188 23.063255 
L -26.623347 28.364398 
L -23.84834 30.183756 
L -24.054003 31.238647 
L -23.032387 31.484779 
L -21.084819 37.017739 
L -14.572498 43.745258 
L -12.35135 44.81968 
L -12.171519 46.833091 
L -9.038755 50.069701 
L -8.982316 51.281523 
L -10.082537 51.174592 
L -10.209077 50.266035 
L -15.959784 45.541241 
L -20.487293 44.219931 
L -20.094866 43.729255 
L -24.485294 44.30607 
L -24.568897 41.980336 
L -26.82851 41.036912 
L -32.027866 35.592762 
L -32.064018 34.49654 
L -30.632935 34.896982 
L -30.947775 33.864861 
L -29.436847 34.679076 
L -28.472753 34.630878 
L -33.297766 30.876676 
L -34.441127 28.937534 
L -34.090895 25.973958 
L -34.728099 24.274775 
L -37.337953 21.75471 
L -39.737655 21.120473 
L -41.219957 25.738625 
L -41.983709 26.090869 
L -41.845119 25.626327 
L -42.248079 24.963889 
L -42.620913 27.810554 
L -43.637743 27.55317 
L -43.380148 28.248937 
L -43.517229 28.322778 
L -46.108249 24.534226 
L -45.154688 23.759993 
L -46.360569 23.622581 
L -46.234788 21.420927 
z
" clip-path="url(#p6f169f90af)" style="fill: #eeeeee; stroke: #000000; stroke-width: 0.3"/>
    <path d="M -14.839774 50.007617 
L -7.9924 52.682016 
L -8.808121 52.030844 
L -7.341803 51.79236 
L -6.909439 52.962839 
L -1.551696 56.210853 
L -1.004936 58.011322 
L -6.591443 53.292161 
L -8.182208 52.846092 
L -7.80335 53.444959 
L -7.925363 53.529044 
L -12.875416 50.875675 
L -14.427772 50.71877 
z
" clip-path="url(#p6f169f90af)" style="fill: #eeeeee; stroke: #000000; stroke-width: 0.3"/>
    <path d="M -40.043452 24.026614 
L -39.718071 23.282132 
L -38.238777 25.815012 
L -37.864435 29.711754 
L -38.660572 29.782508 
L -39.898087 26.606154 
L -38.81347 26.00473 
z
" clip-path="url(#p6f169f90af)" style="fill: #eeeeee; stroke: #000000; stroke-width: 0.3"/>
    <path d="M -38.68694 24.354248 
L -37.714554 23.755898 
L -37.541312 22.320764 
L -35.07834 25.738625 
L -35.925696 26.168805 
z
" clip-path="url(#p6f169f90af)" style="fill: #eeeeee; stroke: #000000; stroke-width: 0.3"/>
    <path d="M -20.354728 46.464151 
L -20.164919 45.690447 
L -15.85132 46.722569 
L -20.205588 46.65489 
z
" clip-path="url(#p6f169f90af)" style="fill: #eeeeee; stroke: #000000; stroke-width: 0.3"/>
    <path d="M -23.658272 49.835338 
L -22.905071 49.542067 
L -21.877698 49.749716 
L -23.303514 50.512141 
z
" clip-path="url(#p6f169f90af)" style="fill: #eeeeee; stroke: #000000; stroke-width: 0.3"/>
    <path d="M -32.787093 36.015243 
L -31.276174 37.22118 
L -31.011044 37.830303 
L -32.238009 36.893545 
z
" clip-path="url(#p6f169f90af)" style="fill: #eeeeee; stroke: #000000; stroke-width: 0.3"/>
    <path d="M -36.532024 27.990519 
L -35.894061 27.990519 
L -36.27367 27.380891 
L -34.670105 29.016491 
z
" clip-path="url(#p6f169f90af)" style="fill: #eeeeee; stroke: #000000; stroke-width: 0.3"/>
    <path d="M -11.858595 53.292161 
L -11.22364 53.155266 
L -7.923864 54.505281 
z
" clip-path="url(#p6f169f90af)" style="fill: #eeeeee; stroke: #000000; stroke-width: 0.3"/>
    <path d="M -16.513393 53.982296 
L -15.585441 53.46444 
L -15.443844 53.73721 
z
" clip-path="url(#p6f169f90af)" style="fill: #eeeeee; stroke: #000000; stroke-width: 0.3"/>
    <path d="M -18.263831 50.875675 
L -13.001956 51.642196 
L -16.230188 51.907796 
z
" clip-path="url(#p6f169f90af)" style="fill: #eeeeee; stroke: #000000; stroke-width: 0.3"/>
    <path d="M -20.671067 48.193073 
L -13.065225 49.052915 
L -15.380194 49.052915 
z
" clip-path="url(#p6f169f90af)" style="fill: #eeeeee; stroke: #000000; stroke-width: 0.3"/>
    <path d="M -22.153378 44.481423 
L -21.663038 44.193784 
L -20.637174 44.479886 
z
" clip-path="url(#p6f169f90af)" style="fill: #eeeeee; stroke: #000000; stroke-width: 0.3"/>
    <path d="M -22.255057 45.527393 
L -21.546291 45.465863 
L -20.883478 46.388785 
z
" clip-path="url(#p6f169f90af)" style="fill: #eeeeee; stroke: #000000; stroke-width: 0.3"/>
    <path d="M -27.777546 42.154668 
L -26.512912 42.749427 
L -27.145608 42.624326 
z
" clip-path="url(#p6f169f90af)" style="fill: #eeeeee; stroke: #000000; stroke-width: 0.3"/>
    <path d="M -30.947775 37.916443 
L -29.237245 39.473086 
L -30.046192 39.071624 
z
" clip-path="url(#p6f169f90af)" style="fill: #eeeeee; stroke: #000000; stroke-width: 0.3"/>
    <path d="M -31.257339 39.637678 
L -30.900323 39.857638 
L -29.703484 40.923605 
z
" clip-path="url(#p6f169f90af)" style="fill: #eeeeee; stroke: #000000; stroke-width: 0.3"/>
    <path d="M -34.757475 35.842964 
L -33.297766 36.883805 
L -31.565404 39.66075 
z
" clip-path="url(#p6f169f90af)" style="fill: #eeeeee; stroke: #000000; stroke-width: 0.3"/>
    <path d="M -35.009045 35.930137 
L -34.576709 36.284938 
L -34.963102 36.066011 
z
" clip-path="url(#p6f169f90af)" style="fill: #eeeeee; stroke: #000000; stroke-width: 0.3"/>
    <path d="M -35.622148 33.469031 
L -35.555121 32.821966 
L -35.186804 32.946046 
z
" clip-path="url(#p6f169f90af)" style="fill: #eeeeee; stroke: #000000; stroke-width: 0.3"/>
    <path d="M -35.692952 34.758549 
L -35.293759 34.621654 
L -35.311834 34.692408 
z
" clip-path="url(#p6f169f90af)" style="fill: #eeeeee; stroke: #000000; stroke-width: 0.3"/>
    <path d="M -35.830792 29.194931 
L -31.011044 33.771035 
L -32.17399 34.124299 
z
" clip-path="url(#p6f169f90af)" style="fill: #eeeeee; stroke: #000000; stroke-width: 0.3"/>
    <path d="M -37.113492 33.681821 
L -36.664589 33.951 
L -36.49963 34.166348 
z
" clip-path="url(#p6f169f90af)" style="fill: #eeeeee; stroke: #000000; stroke-width: 0.3"/>
    <path d="M -39.513203 29.023674 
L -37.675385 31.955974 
L -39.260874 30.830015 
z
" clip-path="url(#p6f169f90af)" style="fill: #eeeeee; stroke: #000000; stroke-width: 0.3"/>
    <path d="M -40.468264 30.16706 
L -40.025376 29.517941 
L -40.111248 30.337285 
z
" clip-path="url(#p6f169f90af)" style="fill: #eeeeee; stroke: #000000; stroke-width: 0.3"/>
    <path d="M 34.615178 59.307796 
L 36.35613 57.491374 
L 35.35843 56.03894 
L 35.891242 54.011215 
L 35.37756 53.005165 
L 38.150651 52.081814 
L 40.504771 48.149096 
L 36.22413 44.680655 
L 34.656309 40.476087 
L 35.120252 38.139704 
L 36.909989 37.250212 
L 37.823243 35.177262 
L 40.96392 36.882948 
L 39.620902 38.124722 
L 39.647687 40.077888 
L 45.163253 39.560221 
L 62.919068 42.465392 
L 66.417715 41.432641 
L 69.838403 37.899419 
L 77.952966 35.824806 
L 81.251216 37.865561 
L 83.561326 37.680631 
L 84.378241 38.701651 
L 86.140239 38.139704 
L 86.778267 39.954173 
L 89.001811 41.054969 
L 92.307141 41.315844 
L 92.139925 44.937762 
L 91.333246 46.033971 
L 89.930781 45.259751 
L 88.053803 45.722743 
L 87.116819 47.723931 
L 86.065345 48.106933 
L 85.956881 54.304285 
L 84.479855 54.254045 
L 83.515003 55.331794 
L 83.716103 56.225482 
L 81.890335 57.207364 
L 84.353316 58.031824 
L 84.694515 60.000199 
L 87.109285 63.603141 
L 85.213324 63.324184 
L 82.755897 64.502802 
L 80.228646 62.101299 
L 78.129457 62.212325 
L 77.133191 63.30498 
L 74.049213 63.667997 
L 73.312662 65.472058 
L 71.536308 65.909319 
L 71.528664 66.873371 
L 68.940189 67.01857 
L 70.068936 70.41603 
L 67.351331 72.027021 
L 61.400995 72.822738 
L 58.136232 70.809982 
L 57.10027 71.472219 
L 55.304786 70.307285 
L 54.654319 68.780959 
L 50.641519 69.103931 
L 50.254108 70.171196 
L 46.345569 71.183105 
L 39.908827 71.627196 
L 40.759219 66.534433 
L 39.179922 63.011948 
L 36.336999 61.630507 
z
" clip-path="url(#p6f169f90af)" style="fill: #eeeeee; stroke: #000000; stroke-width: 0.3"/>
    <path d="M -1.587089 51.233665 
L 0.314564 50.401481 
L 0.548928 47.718349 
L 2.000992 46.354801 
L 3.586028 47.290853 
L 4.300588 46.765046 
L 2.782515 44.474241 
L 3.447327 43.773584 
L 5.463774 43.942889 
L 5.435073 44.92908 
L 9.191518 48.436256 
L 12.255404 49.221237 
L 16.184026 52.030365 
L 14.60856 53.901172 
L 13.156487 53.892376 
L 13.872963 55.027686 
L 12.7423 56.821325 
L 11.073087 57.358536 
L 10.339396 55.116244 
L 9.410574 55.633924 
L 6.200325 60.847151 
L 7.103324 61.943713 
L 7.034751 65.117748 
L 5.231585 64.038966 
L 2.600647 59.674102 
L 1.606418 59.83664 
L -0.553765 57.920054 
L 0.883343 58.305627 
L 0.762079 57.172498 
L -1.004936 58.011322 
L -1.551696 56.210853 
L -0.509043 54.839165 
z
" clip-path="url(#p6f169f90af)" style="fill: #eeeeee; stroke: #000000; stroke-width: 0.3"/>
    <path d="M -26.623347 28.364398 
L -26.032188 23.063255 
L -23.921041 22.75916 
L -21.183342 25.439356 
L -19.214727 22.654321 
L -16.597552 23.171345 
L -15.554899 21.869667 
L -13.123303 23.582888 
L -8.517428 23.388836 
L -7.119878 24.642983 
L -3.397872 23.470892 
L -0.814183 24.751073 
L 0.677105 24.35387 
L 2.634244 27.204026 
L 5.385335 26.367923 
L 7.067932 26.877135 
L 4.647822 33.233169 
L 9.314911 37.368723 
L 8.547743 38.342867 
L 6.180241 37.899419 
L 5.778484 38.588999 
L 7.928847 41.053015 
L 8.187117 43.544048 
L 6.863231 42.984697 
L 2.832253 44.264563 
L 4.300588 46.765046 
L 3.586028 47.290853 
L 2.000992 46.354801 
L 0.548928 47.718349 
L 0.314564 50.401481 
L -1.409173 50.73975 
L -1.484743 52.961528 
L -0.509043 54.839165 
L -1.044715 56.140855 
L -5.642936 53.927218 
L -7.341803 51.79236 
L -9.704438 51.478637 
L -8.721176 51.08878 
L -9.038755 50.069701 
L -12.171519 46.833091 
L -12.35135 44.81968 
L -14.572498 43.745258 
L -21.084819 37.017739 
L -23.032387 31.484779 
L -24.054003 31.238647 
L -23.84834 30.183756 
z
" clip-path="url(#p6f169f90af)" style="fill: #eeeeee; stroke: #000000; stroke-width: 0.3"/>
    <path d="M 74.162091 -15.610788 
L 74.735072 -16.508093 
L 75.715557 -16.053581 
L 76.143145 -17.279074 
L 79.628881 -16.891624 
L 83.296363 -18.447914 
L 87.661182 -16.315993 
L 87.817098 -15.339567 
L 90.264955 -15.354222 
L 89.891899 -14.053199 
L 90.763329 -14.498588 
L 91.392749 -13.16566 
L 92.263224 -14.300314 
L 94.351419 -13.756261 
L 95.749913 -11.526015 
L 97.356949 -12.044993 
L 98.393873 -10.718579 
L 97.296206 -6.467111 
L 97.649659 -5.417109 
L 99.999947 -3.271843 
L 101.36067 -3.829896 
L 101.252095 -1.455094 
L 100.632245 -1.152296 
L 101.782038 -0.515463 
L 101.380272 0.936972 
L 104.800008 2.650508 
L 104.557036 6.165181 
L 106.682529 7.52612 
L 103.874046 8.57742 
L 102.818953 6.916946 
L 101.907347 8.294821 
L 100.44475 6.746343 
L 99.677582 7.60979 
L 99.048162 6.906525 
L 98.066724 8.35407 
L 97.914631 6.074341 
L 95.707829 7.123373 
L 95.593997 9.59064 
L 96.351595 10.553053 
L 95.810184 12.836701 
L 93.805214 13.443582 
L 93.787036 14.900893 
L 91.341094 17.164342 
L 91.600328 19.044259 
L 88.800452 19.636171 
L 87.529173 17.975041 
L 88.508695 17.485373 
L 87.719528 12.668694 
L 89.243339 5.031169 
L 87.719528 0.612034 
L 85.163577 -1.569043 
L 82.995999 -4.474542 
L 83.028522 -5.548321 
L 80.512749 -8.145818 
L 78.094546 -13.951611 
L 75.893001 -15.601992 
z
" clip-path="url(#p6f169f90af)" style="fill: #eeeeee; stroke: #000000; stroke-width: 0.3"/>
   </g>
   <g id="PatchCollection_2">
    <defs>
     <path id="mb20fda0299" d="M 34.615178 -48.692204 
L 36.35613 -50.508626 
L 35.35843 -51.96106 
L 35.891242 -53.988785 
L 35.37756 -54.994835 
L 38.150651 -55.918186 
L 40.504771 -59.850904 
L 36.22413 -63.319345 
L 34.656309 -67.523913 
L 35.120252 -69.860296 
L 36.909989 -70.749788 
L 37.823243 -72.822738 
L 40.96392 -71.117052 
L 39.620902 -69.875278 
L 39.647687 -67.922112 
L 45.163253 -68.439779 
L 62.919068 -65.534608 
L 66.417715 -66.567359 
L 69.838403 -70.100581 
L 77.952966 -72.175194 
L 81.251216 -70.134439 
L 83.561326 -70.319369 
L 84.378241 -69.298349 
L 86.140239 -69.860296 
L 86.778267 -68.045827 
L 89.001811 -66.945031 
L 92.307141 -66.684156 
L 92.139925 -63.062238 
L 91.333246 -61.966029 
L 89.930781 -62.740249 
L 88.053803 -62.277257 
L 87.116819 -60.276069 
L 86.065345 -59.893067 
L 85.956881 -53.695715 
L 84.479855 -53.745955 
L 83.515003 -52.668206 
L 83.716103 -51.774518 
L 81.890335 -50.792636 
L 84.353316 -49.968176 
L 84.694515 -47.999801 
L 87.109285 -44.396859 
L 85.213324 -44.675816 
L 82.755897 -43.497198 
L 80.228646 -45.898701 
L 78.129457 -45.787675 
L 77.133191 -44.69502 
L 74.049213 -44.332003 
L 73.312662 -42.527942 
L 71.536308 -42.090681 
L 71.528664 -41.126629 
L 68.940189 -40.98143 
L 70.068936 -37.58397 
L 67.351331 -35.972979 
L 61.400995 -35.177262 
L 58.136232 -37.190018 
L 57.10027 -36.527781 
L 55.304786 -37.692715 
L 54.654319 -39.219041 
L 50.641519 -38.896069 
L 50.254108 -37.828804 
L 46.345569 -36.816895 
L 39.908827 -36.372804 
L 40.759219 -41.465567 
L 39.179922 -44.988052 
L 36.336999 -46.369493 
z
" style="stroke: #dd0000; stroke-width: 0.5"/>
    </defs>
    <g clip-path="url(#p6f169f90af)">
     <use xlink:href="#mb20fda0299" x="0" y="108" style="fill: #ff6b6b; stroke: #dd0000; stroke-width: 0.5"/>
    </g>
   </g>
  </g>
 </g>
 <defs>
  <clipPath id="p6f169f90af">
   <rect x="0" y="0" width="126.922319" height="108"/>
  </clipPath>
 </defs>
</svg>
