<?xml version="1.0" encoding="utf-8" standalone="no"?>
<!DOCTYPE svg PUBLIC "-//W3C//DTD SVG 1.1//EN"
  "http://www.w3.org/Graphics/SVG/1.1/DTD/svg11.dtd">
<svg xmlns:xlink="http://www.w3.org/1999/xlink" width="168.664575pt" height="108pt" viewBox="0 0 168.664575 108" xmlns="http://www.w3.org/2000/svg" version="1.1">
 <metadata>
  <rdf:RDF xmlns:dc="http://purl.org/dc/elements/1.1/" xmlns:cc="http://creativecommons.org/ns#" xmlns:rdf="http://www.w3.org/1999/02/22-rdf-syntax-ns#">
   <cc:Work>
    <dc:type rdf:resource="http://purl.org/dc/dcmitype/StillImage"/>
    <dc:date>2025-09-05T13:56:20.412251</dc:date>
    <dc:format>image/svg+xml</dc:format>
    <dc:creator>
     <cc:Agent>
      <dc:title>Matplotlib v3.10.3, https://matplotlib.org/</dc:title>
     </cc:Agent>
    </dc:creator>
   </cc:Work>
  </rdf:RDF>
 </metadata>
 <defs>
  <style type="text/css">*{stroke-linejoin: round; stroke-linecap: butt}</style>
 </defs>
 <g id="figure_1">
  <g id="patch_1">
   <path d="M 0 108 
L 168.664575 108 
L 168.664575 0 
L 0 0 
z
" style="fill: #ffffff"/>
  </g>
  <g id="axes_1">
   <g id="PatchCollection_1">
    <path d="M -303.495241 -283.720442 
L -303.188392 -286.775067 
L -300.644129 -287.121518 
L -299.61363 -288.470694 
L -300.888322 -291.05507 
L -298.932177 -294.319269 
L -294.514874 -294.954569 
L -289.913461 -297.965305 
L -287.979051 -297.900465 
L -288.903424 -299.099001 
L -288.310197 -300.251036 
L -283.874994 -299.359016 
L -279.34773 -301.787518 
L -277.839075 -297.463625 
L -270.882618 -299.358357 
L -270.024725 -298.11791 
L -266.36431 -301.334303 
L -265.88869 -303.460218 
L -263.252378 -306.607844 
L -248.234818 -306.941215 
L -244.839057 -309.867467 
L -244.709922 -311.225148 
L -241.018829 -313.188648 
L -227.544449 -317.590155 
L -226.364367 -319.137435 
L -221.560944 -319.54121 
L -221.100675 -322.130174 
L -222.642582 -327.285823 
L -221.34999 -329.45858 
L -217.634601 -330.247777 
L -219.866905 -332.148733 
L -214.605774 -333.682262 
L -216.468583 -335.922481 
L -215.604295 -337.603698 
L -220.228729 -346.00162 
L -220.019049 -352.736335 
L -218.331393 -353.68796 
L -221.39346 -354.803317 
L -224.523292 -354.520374 
L -226.175148 -355.915392 
L -223.142486 -357.543569 
L -213.858473 -358.738821 
L -203.821406 -361.545877 
L -200.297153 -358.966747 
L -196.645683 -360.073587 
L -193.003168 -358.702803 
L -191.86209 -362.405819 
L -196.074191 -363.893177 
L -187.488888 -381.754596 
L -187.043958 -385.09281 
L -176.110019 -382.153136 
L -166.730753 -382.278556 
L -165.641445 -381.443835 
L -165.789755 -380.135595 
L -159.77494 -383.010113 
L -156.400271 -383.140121 
L -154.169242 -385.96715 
L -156.193152 -394.146652 
L -153.678294 -399.70477 
L -143.207803 -401.84019 
L -140.895598 -404.224169 
L -140.432125 -405.792082 
L -141.422346 -407.25062 
L -139.565932 -409.165656 
L -132.874129 -408.73078 
L -127.729343 -409.932585 
L -127.033181 -407.425493 
L -128.699746 -406.175223 
L -124.722251 -404.131156 
L -126.164427 -402.754807 
L -125.667084 -402.157187 
L -119.238661 -400.132117 
L -118.081588 -397.66235 
L -112.523207 -395.068151 
L -106.384365 -395.550186 
L -103.792797 -392.930437 
L -100.164336 -393.633186 
L -99.691288 -392.065919 
L -96.450864 -390.830706 
L -94.917913 -386.398427 
L -91.906987 -382.669543 
L -89.766731 -381.78277 
L -87.758173 -376.98797 
L -89.629926 -373.637323 
L -88.315599 -370.086252 
L -91.9236 -366.668802 
L -92.661314 -363.385605 
L -89.913767 -359.495282 
L -87.643102 -359.892821 
L -81.740154 -358.036731 
L -73.26736 -357.263909 
L -65.490097 -357.631322 
L -57.106804 -356.517942 
L -52.132062 -352.990445 
L -48.98433 -352.837193 
L -42.596817 -348.815228 
L -38.408368 -347.693318 
L -33.94376 -348.016855 
L -34.917998 -344.678654 
L -32.242051 -343.925475 
L -28.047207 -334.919769 
L -22.550826 -330.648269 
L -22.067536 -328.296393 
L -11.731945 -329.091813 
L 16.487671 -326.264784 
L 23.198647 -327.688292 
L 41.85297 -325.925849 
L 44.456042 -324.958838 
L 48.152257 -321.453951 
L 61.009114 -319.17149 
L 68.653407 -316.062836 
L 78.665547 -317.474228 
L 78.716686 -314.761478 
L 84.517356 -313.869129 
L 87.326273 -315.863085 
L 106.709997 -322.746792 
L 124.146519 -324.872061 
L 131.809999 -324.163089 
L 140.324345 -324.808527 
L 151.724948 -328.855384 
L 158.735105 -335.787886 
L 170.610042 -340.617058 
L 169.44019 -343.686093 
L 165.79128 -346.448283 
L 163.975775 -349.371265 
L 168.200024 -356.708518 
L 170.918166 -358.207016 
L 176.541122 -357.972551 
L 180.69377 -355.428122 
L 191.286358 -353.836623 
L 197.280082 -356.65089 
L 201.357295 -359.689141 
L 202.777736 -362.021372 
L 216.801885 -362.893088 
L 223.018079 -366.122574 
L 224.029391 -367.315875 
L 223.553771 -368.645394 
L 227.94679 -373.495858 
L 230.993517 -374.710755 
L 237.461575 -374.337448 
L 238.158367 -377.050844 
L 240.315236 -377.458548 
L 243.15357 -376.403112 
L 248.984918 -378.971773 
L 254.565047 -378.386269 
L 256.12932 -379.511119 
L 261.948533 -377.5617 
L 266.441271 -377.30759 
L 268.597496 -378.169814 
L 269.117217 -381.197913 
L 266.686738 -384.505012 
L 261.515108 -387.74105 
L 261.864141 -388.517143 
L 259.684263 -389.169133 
L 259.060346 -390.867713 
L 255.150604 -392.066578 
L 252.365339 -394.729216 
L 242.773845 -395.070115 
L 237.750525 -390.732142 
L 231.085566 -393.589309 
L 223.933495 -393.419354 
L 219.858842 -391.150973 
L 215.667833 -394.013045 
L 214.90711 -396.825347 
L 218.442236 -398.228222 
L 218.447345 -401.878832 
L 221.265218 -404.883688 
L 229.381297 -418.264692 
L 243.639408 -414.282016 
L 253.628527 -419.928888 
L 259.161981 -420.334285 
L 261.939576 -421.678873 
L 262.43948 -424.823228 
L 259.729651 -425.479465 
L 264.17188 -429.845929 
L 264.43526 -431.971857 
L 267.192394 -434.085009 
L 267.456418 -435.903762 
L 269.355027 -437.37017 
L 271.641032 -441.542447 
L 278.409543 -444.724456 
L 280.037103 -447.342558 
L 278.144246 -450.247531 
L 279.354376 -452.723521 
L 276.014864 -453.951194 
L 271.380212 -453.329329 
L 270.806147 -455.492593 
L 281.213351 -462.076667 
L 285.286086 -462.033437 
L 299.057729 -464.812331 
L 305.773814 -464.532671 
L 315.108967 -465.665721 
L 330.644331 -459.894747 
L 330.985052 -460.877144 
L 333.162381 -461.21542 
L 339.937288 -459.313489 
L 341.325133 -458.293426 
L 340.247973 -457.067059 
L 342.609412 -457.343766 
L 344.33606 -455.547598 
L 345.710471 -455.67957 
L 344.508022 -453.284476 
L 347.2479 -452.607924 
L 347.09959 -451.771897 
L 348.959839 -450.629025 
L 348.527057 -449.859802 
L 350.055542 -449.341101 
L 348.539205 -448.383913 
L 351.498993 -447.507926 
L 350.055542 -445.825074 
L 353.597052 -442.1607 
L 352.994869 -440.486035 
L 355.871551 -438.135135 
L 354.628825 -436.841965 
L 356.647614 -437.284698 
L 356.14771 -433.986762 
L 360.546482 -430.022766 
L 361.532855 -427.827412 
L 360.566287 -426.410786 
L 361.426741 -425.765677 
L 361.082174 -424.664071 
L 364.298314 -423.149857 
L 363.012118 -420.829424 
L 363.65521 -417.842262 
L 367.564296 -415.243462 
L 371.815402 -414.661887 
L 377.673594 -415.580104 
L 379.279432 -414.993282 
L 378.765463 -413.798675 
L 383.159756 -412.251065 
L 385.950773 -412.154783 
L 386.417437 -413.217746 
L 387.678064 -413.169941 
L 388.558967 -411.512297 
L 390.530451 -411.305334 
L 393.193619 -408.156403 
L 396.59961 -406.342885 
L 402.445023 -406.193562 
L 400.656375 -402.967334 
L 401.851797 -401.269083 
L 403.492136 -401.312973 
L 404.310394 -399.184422 
L 402.450145 -395.967382 
L 405.322992 -393.690167 
L 405.753844 -391.582579 
L 406.762608 -391.13034 
L 411.649135 -391.894988 
L 413.936414 -390.867384 
L 425.334469 -391.450277 
L 427.189609 -394.531099 
L 428.813334 -394.348381 
L 432.352283 -396.510315 
L 437.70164 -396.366568 
L 440.343073 -398.339232 
L 448.364542 -399.989993 
L 452.476281 -398.495436 
L 450.504785 -395.277725 
L 453.142383 -391.490884 
L 450.474106 -388.454927 
L 445.856067 -386.63388 
L 446.396892 -383.975489 
L 444.440747 -382.245478 
L 443.768238 -378.237923 
L 441.677849 -375.774378 
L 442.767156 -374.761843 
L 441.895198 -374.109523 
L 442.378488 -373.091754 
L 439.717869 -371.607019 
L 439.356044 -368.979412 
L 437.118631 -367.529378 
L 437.118631 -365.091054 
L 433.43903 -363.394109 
L 432.436674 -358.501733 
L 430.240171 -357.489211 
L 418.458556 -360.10109 
L 417.026611 -361.414247 
L 411.839629 -356.644997 
L 405.650291 -355.129464 
L 407.288081 -353.105713 
L 409.745404 -345.148889 
L 408.461768 -338.540254 
L 409.948688 -336.606879 
L 407.442787 -332.191304 
L 407.74835 -330.652857 
L 399.140038 -328.434259 
L 401.178013 -326.995036 
L 400.669153 -325.837437 
L 400.306055 -326.855206 
L 399.701311 -326.07649 
L 397.352663 -328.095007 
L 397.059878 -330.549046 
L 392.615719 -331.737759 
L 390.433281 -324.720774 
L 388.353122 -323.79797 
L 385.940543 -324.760063 
L 384.131433 -323.147614 
L 384.344948 -321.901919 
L 380.991371 -319.562489 
L 369.790217 -319.034942 
L 369.953866 -317.390391 
L 373.110542 -313.834416 
L 371.169736 -311.210091 
L 369.379801 -312.407967 
L 364.88835 -311.888595 
L 358.657459 -313.056346 
L 359.214898 -313.856684 
L 356.123414 -316.592677 
L 354.376949 -315.260217 
L 353.026834 -315.76812 
L 353.626456 -315.327997 
L 351.635798 -314.224109 
L 351.080276 -310.900952 
L 346.152196 -307.3977 
L 344.718333 -305.164362 
L 341.663936 -304.991466 
L 337.362978 -301.773767 
L 332.561472 -300.5392 
L 332.761565 -299.610502 
L 330.958208 -299.896056 
L 321.577791 -291.768668 
L 317.072745 -291.464396 
L 315.634156 -292.746426 
L 314.825769 -291.033284 
L 312.801265 -290.302019 
L 312.669383 -291.542783 
L 310.627771 -291.448414 
L 310.270387 -289.707935 
L 307.622732 -289.717212 
L 298.727424 -285.541096 
L 295.662983 -281.849726 
L 292.998219 -281.552691 
L 293.547889 -280.467142 
L 291.733782 -281.47533 
L 290.035463 -280.333573 
L 291.382448 -279.355815 
L 285.696527 -278.538951 
L 284.989813 -277.556022 
L 284.18546 -278.154238 
L 284.227742 -280.375865 
L 291.107613 -282.208648 
L 290.066711 -284.439426 
L 294.433789 -286.154254 
L 289.274393 -285.714372 
L 288.162979 -287.538904 
L 285.532432 -287.792633 
L 289.365997 -288.979775 
L 288.591839 -291.361776 
L 293.578086 -293.657659 
L 292.998219 -294.052169 
L 298.873396 -300.133284 
L 297.000306 -301.419902 
L 297.111641 -302.658664 
L 293.297214 -304.314559 
L 293.505607 -306.387155 
L 291.917496 -304.527706 
L 287.238817 -305.675496 
L 282.545517 -304.245461 
L 282.02102 -303.152182 
L 283.025417 -302.883294 
L 280.608014 -302.30921 
L 277.148533 -298.866728 
L 277.711242 -298.421713 
L 276.237459 -296.482661 
L 264.653438 -292.383005 
L 264.59291 -291.418225 
L 260.60824 -288.311422 
L 261.508935 -288.380469 
L 261.484577 -285.959673 
L 257.112934 -282.74807 
L 257.656555 -283.542768 
L 256.466626 -283.802682 
L 249.691384 -281.484886 
L 246.004039 -283.878535 
L 242.137074 -282.50467 
L 242.877324 -280.852793 
L 241.969962 -281.033382 
L 240.010897 -276.293598 
L 242.145214 -273.216236 
L 246.464147 -270.232458 
L 257.409838 -269.651744 
L 261.239246 -264.817769 
L 258.887307 -265.131877 
L 257.656555 -263.266548 
L 257.547831 -259.492152 
L 259.828033 -258.012107 
L 267.560602 -257.669686 
L 269.128054 -258.906319 
L 268.652879 -260.310056 
L 274.388121 -263.760078 
L 273.066309 -264.415009 
L 279.528404 -266.314836 
L 284.475387 -264.631604 
L 284.892161 -263.059242 
L 287.637469 -263.63424 
L 289.824051 -261.17797 
L 291.132774 -261.311539 
L 290.035463 -261.493585 
L 290.624384 -261.844776 
L 294.991513 -261.139302 
L 296.646548 -262.877196 
L 297.405601 -261.04492 
L 303.653266 -260.939208 
L 301.93884 -259.797971 
L 302.919374 -258.188982 
L 300.754935 -257.700623 
L 300.116679 -256.017378 
L 301.820046 -256.096805 
L 301.416348 -254.45276 
L 300.158962 -254.759086 
L 300.537486 -254.106208 
L 299.095879 -253.501288 
L 297.431777 -253.843201 
L 298.42843 -254.45276 
L 297.194201 -255.924048 
L 295.548222 -254.45276 
L 295.747547 -255.490858 
L 294.227412 -255.664134 
L 294.518354 -254.97103 
L 290.654593 -253.608039 
L 290.503587 -252.454939 
L 288.909959 -252.887103 
L 290.280089 -253.780289 
L 288.452906 -253.57401 
L 287.73814 -252.100136 
L 283.059943 -250.472086 
L 279.683431 -250.889282 
L 279.679411 -249.924933 
L 280.917659 -250.733547 
L 282.319013 -250.01569 
L 282.149884 -248.890954 
L 281.129071 -247.851817 
L 280.380075 -248.951294 
L 279.232428 -248.504695 
L 279.332097 -247.260826 
L 278.360618 -247.158726 
L 279.117667 -245.051581 
L 278.164311 -244.548266 
L 274.77168 -243.589063 
L 274.010611 -243.856708 
L 274.871349 -245.500233 
L 274.188795 -246.547101 
L 273.917993 -245.301698 
L 271.600543 -245.940647 
L 272.566987 -242.990847 
L 274.095175 -242.730945 
L 271.600543 -241.814541 
L 270.434761 -239.621278 
L 269.262954 -239.837873 
L 269.217653 -238.313469 
L 266.043485 -237.798292 
L 264.850525 -235.214131 
L 263.272001 -234.370449 
L 262.456564 -231.628474 
L 260.413949 -230.403184 
L 260.405896 -226.826297 
L 263.498517 -227.179034 
L 266.040467 -224.489668 
L 273.578732 -221.676022 
L 276.382429 -213.287681 
L 281.479416 -205.222167 
L 280.670015 -201.218288 
L 287.586057 -197.255053 
L 287.955588 -195.548704 
L 287.232768 -195.311996 
L 288.253581 -193.825233 
L 292.648493 -192.002108 
L 294.175172 -189.263339 
L 292.879351 -188.459453 
L 286.312008 -190.989649 
L 284.19256 -189.79508 
L 282.494464 -190.023602 
L 280.428407 -192.662856 
L 278.245931 -193.35231 
L 272.023354 -191.656214 
L 270.29986 -192.577244 
L 268.4455 -196.166501 
L 265.60959 -196.869922 
L 266.506574 -196.082448 
L 265.525026 -194.872101 
L 267.783085 -194.89376 
L 267.583759 -193.983034 
L 270.477513 -191.746477 
L 273.243492 -191.221478 
L 276.206248 -192.694832 
L 279.680636 -192.101736 
L 280.601556 -190.205306 
L 279.446858 -190.017328 
L 284.555201 -188.379722 
L 291.73951 -183.271029 
L 294.530984 -179.475405 
L 294.645473 -178.108866 
L 289.485273 -177.376803 
L 282.745943 -174.099727 
L 280.688051 -170.897389 
L 279.034822 -172.021567 
L 276.325648 -172.142893 
L 275.721597 -171.969465 
L 275.086398 -170.4953 
L 273.588789 -170.806543 
L 272.218016 -169.549417 
L 273.792692 -170.547186 
L 275.157565 -170.19194 
L 275.971221 -171.703569 
L 278.08796 -171.7505 
L 279.483289 -169.971733 
L 278.213929 -168.579833 
L 278.840816 -168.104794 
L 280.198872 -167.866033 
L 278.392831 -168.637512 
L 279.693884 -169.888251 
L 281.44291 -169.180673 
L 285.912243 -171.444174 
L 288.08314 -170.741831 
L 291.699553 -166.528314 
L 294.342173 -165.601086 
L 296.736926 -165.809203 
L 291.271707 -161.485817 
L 288.253581 -160.998991 
L 288.766882 -159.304543 
L 291.563651 -161.181557 
L 292.813565 -160.566574 
L 293.2197 -161.150607 
L 291.984458 -161.257878 
L 292.61727 -161.966686 
L 294.783119 -161.874649 
L 294.031105 -161.003122 
L 294.780101 -160.047011 
L 293.908291 -158.13996 
L 295.033795 -157.616013 
L 294.433789 -156.83731 
L 292.484003 -156.485194 
L 293.167348 -158.395236 
L 292.499899 -159.10123 
L 291.729168 -156.661993 
L 290.840101 -156.674477 
L 290.690826 -158.241046 
L 290.548887 -156.742941 
L 289.873385 -158.22196 
L 287.822704 -156.396908 
L 288.414657 -156.050356 
L 287.73814 -155.704843 
L 290.45627 -155.790442 
L 290.373721 -155.090645 
L 289.410295 -155.130352 
L 289.350892 -154.614656 
L 291.301904 -154.571337 
L 291.232443 -153.273844 
L 290.035463 -153.887522 
L 289.830088 -153.468767 
L 289.162638 -153.801911 
L 288.852572 -153.447108 
L 291.056263 -152.141365 
L 290.45627 -151.007859 
L 287.112972 -150.703079 
L 284.529755 -152.401279 
L 286.471699 -150.842833 
L 285.965325 -150.237406 
L 289.07941 -150.008555 
L 289.963788 -148.077462 
L 289.097211 -147.884795 
L 290.286955 -147.729097 
L 290.888148 -145.981356 
L 290.012305 -144.936034 
L 289.467385 -145.759387 
L 287.827739 -145.545593 
L 287.04653 -143.520954 
L 286.006173 -144.542754 
L 285.554279 -144.708425 
L 286.042839 -146.320164 
L 284.858946 -146.558419 
L 284.380134 -145.553653 
L 283.078066 -145.541461 
L 284.312133 -144.666057 
L 282.338731 -141.518203 
L 277.895512 -142.216238 
L 277.536113 -143.146558 
L 277.320681 -143.110463 
L 277.684101 -142.019249 
L 280.731422 -141.122958 
L 281.140477 -140.192702 
L 279.337478 -138.080627 
L 278.256929 -138.681643 
L 278.756251 -137.36765 
L 277.778302 -136.23498 
L 278.834779 -135.110954 
L 278.256929 -133.819646 
L 276.644163 -133.379245 
L 276.804238 -131.562444 
L 275.707928 -131.208148 
L 275.052552 -132.001819 
L 274.694167 -132.168378 
L 274.147527 -132.077621 
L 274.256251 -133.033719 
L 272.820669 -132.781549 
L 272.65457 -131.75582 
L 274.694167 -132.08174 
L 275.61531 -130.869859 
L 273.412621 -130.689359 
L 273.555575 -128.970019 
L 272.237784 -128.777669 
L 273.108592 -127.935533 
L 270.79416 -127.738532 
L 271.98409 -126.433816 
L 272.060601 -124.521619 
L 268.507921 -122.969877 
L 271.384096 -126.433816 
L 269.472349 -126.373488 
L 268.909591 -124.639194 
L 267.822349 -125.049178 
L 268.496837 -127.134144 
L 267.382417 -125.683476 
L 266.511609 -126.624632 
L 266.99584 -125.177576 
L 265.525026 -126.433816 
L 264.857576 -125.827362 
L 265.448514 -123.562415 
L 267.737784 -123.656784 
L 267.822349 -121.571819 
L 266.113948 -122.645504 
L 265.034759 -122.098858 
L 266.049522 -121.877625 
L 266.463278 -120.352714 
L 268.243156 -121.744575 
L 269.779397 -120.95866 
L 266.122001 -119.785954 
L 263.699859 -116.111606 
L 263.415957 -116.09717 
L 263.162275 -116.450934 
L 261.45589 -117.004285 
L 260.697839 -117.601981 
L 259.184743 -118.181617 
L 261.081399 -115.918229 
L 262.108248 -115.627366 
L 263.482411 -115.87491 
L 264.448855 -116.897533 
L 266.630391 -116.366881 
L 265.034759 -114.712001 
L 265.3257 -112.36868 
L 263.583082 -112.36868 
L 264.119652 -110.817458 
L 265.195835 -111.069628 
L 266.125032 -108.198735 
L 265.195835 -108.025459 
L 265.153552 -109.582878 
L 264.005893 -108.363761 
L 264.303886 -109.672609 
L 263.557908 -109.220851 
L 262.739452 -111.148535 
L 261.803204 -111.321812 
L 259.296498 -108.986728 
L 260.543814 -108.198735 
L 260.517638 -106.951266 
L 261.464958 -107.844972 
L 262.286432 -106.731579 
L 261.190123 -105.889025 
L 259.464069 -106.369172 
L 259.254216 -105.068448 
L 258.387428 -105.440791 
L 258.879712 -106.406686 
L 257.648502 -106.528912 
L 258.365594 -107.186074 
L 256.488769 -106.750146 
L 257.713942 -105.973508 
L 256.161594 -104.595043 
L 257.455213 -103.697726 
L 258.079378 -104.296449 
L 258.246491 -103.156251 
L 256.93475 -103.069613 
L 257.434072 -102.021705 
L 254.515614 -101.677219 
L 253.917625 -103.069613 
L 253.959907 -102.071222 
L 252.733732 -102.204778 
L 253.54917 -100.771651 
L 255.095481 -100.65201 
L 253.600508 -99.587615 
L 253.332724 -97.899224 
L 252.510247 -97.551633 
L 250.992116 -99.853714 
L 250.664942 -98.674316 
L 248.366617 -97.848162 
L 247.642782 -99.7743 
L 247.02265 -98.388103 
L 245.346474 -97.991008 
L 246.376341 -97.523789 
L 245.92634 -96.635242 
L 243.075326 -96.91063 
L 244.510909 -95.864269 
L 246.189089 -96.140178 
L 245.853861 -95.128378 
L 246.778023 -95.313504 
L 247.221975 -94.306863 
L 244.510909 -93.346633 
L 244.34178 -91.341094 
L 242.540761 -89.814104 
L 243.159891 -91.262187 
L 241.539085 -91.780976 
L 241.885397 -90.397365 
L 240.606165 -87.653552 
L 240.351172 -89.759962 
L 238.440427 -90.312273 
L 239.349373 -88.864089 
L 236.717935 -88.225761 
L 236.467297 -86.114345 
L 236.125995 -87.092762 
L 234.328873 -85.290421 
L 234.133234 -86.566254 
L 232.254181 -86.711661 
L 230.481602 -82.740784 
L 227.388733 -83.616441 
L 228.004845 -82.414357 
L 230.177424 -82.447461 
L 230.872485 -81.304716 
L 229.170615 -81.877508 
L 229.762567 -81.402038 
L 228.917119 -80.377869 
L 228.481121 -81.337769 
L 227.21155 -81.279305 
L 228.394453 -80.968037 
L 227.035976 -77.543514 
L 223.559201 -78.094355 
L 224.398217 -77.778043 
L 222.709052 -76.383494 
L 221.437304 -77.461971 
L 221.858804 -76.637579 
L 218.566423 -75.094164 
L 217.010662 -76.763151 
L 217.580335 -77.478612 
L 215.480321 -76.402353 
L 215.320259 -76.98664 
L 213.568574 -77.362063 
L 214.335692 -76.402353 
L 215.466231 -76.234742 
L 216.117574 -76.58336 
L 215.065415 -75.359693 
L 215.661697 -74.108713 
L 213.166434 -74.436217 
L 213.632801 -75.628707 
L 211.433118 -75.627959 
L 212.304149 -77.083075 
L 208.364632 -74.374521 
L 206.845313 -75.311203 
L 208.133143 -74.212017 
L 207.259007 -72.577567 
L 205.376343 -73.361821 
L 205.765543 -75.977933 
L 202.63367 -74.585539 
L 202.442447 -73.83226 
L 203.478302 -73.798585 
L 202.303464 -72.760488 
L 203.816548 -72.154541 
L 202.556366 -71.375065 
L 201.071252 -73.413872 
L 195.72761 -72.458294 
L 194.818986 -71.375939 
L 193.182643 -75.186847 
L 192.122578 -75.104341 
L 191.296069 -76.376042 
L 191.699755 -78.754444 
L 191.186331 -77.275425 
L 191.440024 -78.754444 
L 190.932637 -77.53534 
L 191.017201 -78.581168 
L 190.346733 -78.449158 
L 191.00613 -79.559965 
L 194.07359 -79.801313 
L 188.969552 -79.541398 
L 190.018829 -78.571004 
L 189.792041 -77.352267 
L 186.439688 -77.102149 
L 189.918888 -75.458624 
L 188.475252 -75.364243 
L 191.217009 -72.928073 
L 191.074563 -68.653228 
L 189.789146 -67.604598 
L 185.849752 -72.933244 
L 188.777562 -67.914244 
L 187.550088 -67.961403 
L 185.752928 -65.951403 
L 184.857132 -68.269275 
L 184.121917 -64.997383 
L 182.711261 -63.817022 
L 181.652768 -65.209124 
L 178.249065 -62.759559 
L 176.704771 -63.67595 
L 177.54135 -65.209124 
L 176.266856 -65.074529 
L 176.35142 -66.506617 
L 175.845034 -65.381361 
L 176.408795 -63.121573 
L 174.975241 -61.947853 
L 173.690677 -62.507895 
L 173.817524 -63.650679 
L 171.78295 -63.070003 
L 171.945028 -64.170507 
L 171.054093 -63.408305 
L 170.078582 -64.689296 
L 170.247711 -63.296915 
L 171.437653 -62.778126 
L 169.80074 -61.540961 
L 169.394024 -62.683237 
L 167.45208 -62.864764 
L 168.811139 -60.772054 
L 166.863146 -59.679814 
L 166.262138 -60.338877 
L 164.953415 -59.474042 
L 164.410796 -60.606522 
L 164.482272 -59.733437 
L 162.371199 -58.532899 
L 162.790992 -59.293035 
L 160.157439 -58.954734 
L 159.405425 -59.820075 
L 158.813472 -58.60097 
L 159.586628 -59.105843 
L 159.9128 -58.954734 
L 158.976565 -58.349306 
L 156.196013 -58.002754 
L 154.745351 -56.26486 
L 154.567154 -57.657241 
L 156.037968 -58.203887 
L 156.095342 -58.60097 
L 154.556083 -57.793903 
L 154.567154 -55.881693 
L 153.809103 -56.091584 
L 153.976216 -55.823419 
L 152.64937 -55.717188 
L 152.027221 -55.391268 
L 152.709775 -57.21684 
L 152.06145 -56.878018 
L 151.128221 -58.486995 
L 151.634607 -55.202517 
L 149.112784 -53.867891 
L 148.632586 -51.049087 
L 151.258086 -51.049087 
L 151.758423 -49.808323 
L 151.103059 -49.572134 
L 150.921844 -50.702535 
L 150.414468 -48.618089 
L 153.301715 -46.352116 
L 150.160774 -43.497204 
L 147.161773 -44.114494 
L 145.66983 -43.323928 
L 144.996344 -45.44035 
L 146.4762 -44.746232 
L 146.814459 -45.794126 
L 144.492976 -46.837382 
L 144.816143 -47.839905 
L 143.620164 -48.829525 
L 144.967149 -49.358631 
L 144.057077 -49.05024 
L 143.718819 -51.127474 
L 143.203378 -50.529259 
L 142.502713 -52.046451 
L 143.79533 -57.475715 
L 145.754395 -57.562353 
L 146.006072 -59.214128 
L 144.395336 -58.774246 
L 143.887948 -60.338877 
L 143.887948 -59.119759 
L 142.35976 -59.56068 
L 142.698019 -60.865916 
L 141.844319 -60.253265 
L 141.677206 -62.42435 
L 140.071504 -61.385732 
L 141.40842 -60.337318 
L 140.888946 -59.195574 
L 137.353375 -58.434918 
L 137.276863 -59.119759 
L 136.038602 -58.054324 
L 134.815458 -58.671107 
L 136.086934 -59.430723 
L 136.002369 -60.606522 
L 133.432227 -60.759685 
L 132.532225 -61.645646 
L 133.383908 -62.683237 
L 131.86579 -63.336102 
L 132.387255 -62.406822 
L 131.595989 -62.163409 
L 132.608736 -61.125831 
L 131.173166 -60.606522 
L 130.919472 -62.42435 
L 130.404031 -61.904534 
L 129.983237 -62.258817 
L 130.327532 -63.296915 
L 129.306719 -62.345455 
L 129.814107 -64.248375 
L 129.044972 -65.027598 
L 128.032225 -63.816743 
L 127.618457 -64.594927 
L 127.863096 -61.817896 
L 128.94732 -61.564166 
L 127.778531 -60.087213 
L 126.772823 -60.253265 
L 127.778531 -61.47237 
L 126.174834 -62.163409 
L 125.463085 -59.868552 
L 124.563083 -59.309536 
L 125.079539 -60.423449 
L 124.501676 -61.10829 
L 121.843964 -59.914964 
L 122.949328 -59.119759 
L 121.59027 -58.434918 
L 119.622459 -61.174992 
L 113.888912 -60.560668 
L 112.954952 -62.06833 
L 109.618001 -63.237386 
L 109.697902 -64.718851 
L 105.29083 -65.244117 
L 105.412296 -68.468368 
L 103.729749 -71.192904 
L 104.351118 -73.183247 
L 105.62581 -72.98219 
L 106.982321 -75.741757 
L 103.245828 -77.366981 
L 100.371062 -76.470056 
L 98.845781 -77.995398 
L 95.40399 -77.103708 
L 91.664306 -79.068514 
L 88.702601 -82.948355 
L 87.326273 -81.5314 
L 83.23372 -80.384928 
L 82.341301 -79.396638 
L 82.659012 -77.350619 
L 81.139496 -76.008654 
L 79.318226 -76.234273 
L 76.678711 -74.337247 
L 75.400196 -75.043279 
L 75.453884 -76.086585 
L 73.545056 -75.670378 
L 71.96991 -72.065279 
L 68.103007 -75.765343 
L 66.330328 -73.007069 
L 63.930541 -75.624524 
L 60.459345 -71.090082 
L 53.51631 -75.379261 
L 50.426757 -70.843171 
L 47.667705 -71.308819 
L 46.09575 -70.439726 
L 43.883907 -71.707676 
L 41.739174 -68.748028 
L 45.303062 -60.897297 
L 44.466273 -60.199794 
L 44.205453 -57.034489 
L 45.549185 -55.936153 
L 44.711109 -54.780189 
L 41.762196 -56.039634 
L 38.381775 -55.408936 
L 36.383434 -62.682008 
L 30.679934 -58.909564 
L 27.218969 -59.686328 
L 24.998813 -58.494992 
L 24.053337 -59.94699 
L 24.755251 -61.264723 
L 22.37335 -62.104349 
L 22.276193 -66.215385 
L 12.405336 -67.584206 
L 15.044208 -71.917921 
L 14.42796 -75.082568 
L 15.732057 -77.434443 
L 17.273964 -77.379756 
L 16.717799 -79.039364 
L 14.747589 -79.95497 
L 13.297743 -79.039364 
L 8.874045 -80.585668 
L 9.252495 -83.467714 
L 7.907477 -85.065436 
L 8.83697 -86.043258 
L 8.059621 -87.924885 
L 6.457631 -88.412497 
L 6.397547 -90.493229 
L 8.957149 -92.83233 
L 5.487228 -91.945545 
L -0.452795 -92.272681 
L -6.395379 -89.043195 
L -7.733989 -90.261375 
L -5.215296 -92.854598 
L -6.115385 -96.465261 
L -7.773624 -96.54451 
L -7.531992 -100.153208 
L -4.656583 -101.56427 
L -5.468446 -104.483653 
L -4.214215 -106.671467 
L -2.866648 -106.29029 
L -1.196892 -107.613257 
L -0.01937 -111.409273 
L 2.108093 -110.724863 
L 4.409437 -114.188168 
L 6.786216 -114.629596 
L 4.99628 -117.672434 
L 6.975435 -118.550703 
L 6.191702 -119.559309 
L 7.594243 -124.255203 
L 6.650697 -136.324368 
L 3.32269 -137.679425 
L 2.988996 -136.051261 
L 1.893305 -135.808279 
L -0.427225 -141.33987 
L -0.284025 -143.465468 
L -3.020067 -146.184441 
L -4.655309 -146.147763 
L -5.828996 -148.161033 
L -7.594636 -148.392228 
L -8.582939 -145.452871 
L -10.120999 -144.437396 
L -13.152386 -146.43561 
L -14.545983 -145.869408 
L -17.624589 -147.21373 
L -22.759232 -147.013129 
L -19.162736 -151.286391 
L -20.832492 -154.286328 
L -21.958664 -154.817981 
L -24.077048 -153.608509 
L -24.333092 -155.734398 
L -21.962709 -157.615037 
L -23.582599 -157.412016 
L -24.7371 -159.024794 
L -29.650471 -158.669484 
L -29.992095 -157.121405 
L -31.881501 -157.467679 
L -32.83221 -155.229335 
L -34.318784 -154.817462 
L -41.6277 -156.46759 
L -43.812699 -158.367886 
L -47.677685 -156.229855 
L -46.937855 -154.663513 
L -51.33299 -152.386032 
L -52.127584 -150.334183 
L -58.084876 -150.196571 
L -59.681201 -149.329291 
L -61.3003 -147.156141 
L -61.033852 -145.997046 
L -67.580486 -143.367551 
L -68.071434 -142.409703 
L -66.865707 -141.502538 
L -67.517855 -140.546187 
L -72.216413 -138.970961 
L -73.011662 -139.973673 
L -76.565963 -138.19355 
L -84.75619 -142.839674 
L -87.703186 -141.209533 
L -92.459304 -142.825923 
L -94.837357 -142.597998 
L -93.445751 -144.637896 
L -97.110582 -144.993434 
L -97.925538 -146.2234 
L -101.753721 -145.680987 
L -106.140802 -143.387525 
L -113.354318 -135.728028 
L -113.433897 -132.966434 
L -116.058321 -134.521331 
L -114.894221 -139.699907 
L -115.341711 -141.616248 
L -117.905148 -143.022405 
L -124.025458 -141.012734 
L -123.994767 -139.91801 
L -127.477467 -140.519229 
L -128.836538 -139.244727 
L -133.261523 -139.196263 
L -133.326728 -139.846619 
L -135.900396 -139.473299 
L -141.785444 -143.021087 
L -143.35036 -143.001113 
L -144.937011 -140.539533 
L -147.686476 -141.713836 
L -148.268853 -143.664891 
L -149.347919 -142.654003 
L -148.801997 -140.753378 
L -150.442348 -140.225818 
L -153.996649 -145.92966 
L -155.000291 -144.864085 
L -161.487523 -145.53539 
L -160.577216 -149.222032 
L -161.888982 -149.775776 
L -164.894788 -148.550068 
L -169.361956 -150.982169 
L -172.381839 -153.602907 
L -172.076263 -154.684197 
L -173.829124 -157.607179 
L -175.99814 -158.02274 
L -179.401583 -156.316303 
L -180.830968 -156.681752 
L -185.162618 -162.228742 
L -186.506337 -161.690384 
L -187.607793 -162.770698 
L -189.331249 -162.717 
L -192.977598 -166.05586 
L -197.777186 -167.765897 
L -198.58201 -171.21218 
L -204.454923 -172.312469 
L -205.749421 -171.190559 
L -207.256802 -171.767559 
L -207.720274 -169.021414 
L -209.368295 -167.132575 
L -210.84115 -167.243268 
L -212.347257 -170.263179 
L -217.043922 -172.856073 
L -222.196378 -174.119435 
L -221.558395 -176.216542 
L -222.477646 -177.08106 
L -223.647498 -176.974967 
L -226.480711 -179.214845 
L -229.643783 -178.921434 
L -231.823673 -180.002078 
L -235.166116 -185.259117 
L -235.923029 -185.549955 
L -237.768731 -183.120439 
L -239.94486 -183.607506 
L -240.508694 -186.166345 
L -239.031992 -187.40024 
L -240.862849 -189.467881 
L -239.951256 -191.922579 
L -243.4966 -195.28699 
L -244.401798 -199.315825 
L -240.047139 -200.358814 
L -239.618836 -198.227323 
L -237.491372 -196.766161 
L -235.859977 -197.075617 
L -235.394587 -198.363224 
L -232.827241 -199.882571 
L -231.305287 -199.153904 
L -229.113534 -201.612012 
L -232.66494 -204.977753 
L -231.149432 -208.223601 
L -235.578907 -208.695776 
L -239.496096 -212.055979 
L -240.241479 -217.652739 
L -240.130244 -218.728478 
L -237.086078 -220.476169 
L -237.086078 -221.642284 
L -240.940833 -224.395641 
L -245.50005 -225.640676 
L -249.147686 -233.805768 
L -248.614542 -236.628539 
L -250.607762 -235.860951 
L -251.631865 -236.676357 
L -256.785595 -236.379664 
L -262.583704 -237.788432 
L -266.842479 -239.918947 
L -267.257991 -241.835947 
L -271.849186 -240.615791 
L -272.790172 -242.794112 
L -275.140107 -243.876073 
L -273.724775 -245.991507 
L -274.192713 -248.934793 
L -275.761464 -251.242792 
L -278.235413 -252.627987 
L -280.930546 -252.233718 
L -282.395731 -254.842327 
L -285.034616 -255.670813 
L -287.852477 -254.567902 
L -288.839505 -255.937381 
L -291.934811 -256.0199 
L -293.911417 -257.349419 
L -289.719134 -259.519223 
L -288.821605 -258.456589 
L -287.605722 -258.674363 
L -284.243202 -260.822875 
L -287.610844 -263.339473 
L -286.704359 -265.47194 
L -288.862514 -269.451334 
L -288.305076 -274.187835 
L -294.509765 -276.872423 
L -297.117959 -276.903854 
L -298.286524 -275.101146 
L -300.915179 -275.853336 
L -302.592604 -279.482997 
L -300.794987 -280.80007 
z
" clip-path="url(#p6083b603f0)" style="fill: #eeeeee; stroke: #000000; stroke-width: 0.3"/>
    <path d="M 129.708401 -31.101891 
L 134.427866 -35.184158 
L 138.125528 -36.629655 
L 137.702705 -37.675497 
L 136.343646 -36.802931 
L 137.47922 -39.00238 
L 141.519148 -38.461931 
L 140.842643 -39.674331 
L 143.21748 -40.42571 
L 144.658085 -39.41443 
L 145.983929 -40.175593 
L 146.570834 -39.098814 
L 148.635605 -41.144593 
L 150.958089 -41.026499 
L 151.86111 -39.320048 
L 151.431248 -41.317869 
L 154.187628 -39.316956 
L 153.69736 -41.171918 
L 155.079577 -42.363698 
L 156.445687 -40.422618 
L 158.254747 -40.228202 
L 159.194013 -36.283103 
L 157.535947 -34.458051 
L 156.521184 -35.237274 
L 156.543339 -33.758762 
L 153.872527 -29.583672 
L 152.621178 -29.762106 
L 153.558428 -28.724009 
L 153.896686 -29.518694 
L 153.044001 -26.430698 
L 152.031241 -25.35444 
L 152.790307 -24.994998 
L 152.921187 -26.120241 
L 153.304734 -24.900109 
L 147.116472 -21.43152 
L 147.191981 -19.787995 
L 146.305067 -19.88391 
L 146.862778 -20.125777 
L 146.947343 -20.652817 
L 143.552708 -19.960752 
L 143.375525 -18.403345 
L 142.616472 -18.403345 
L 143.468143 -18.222325 
L 143.090633 -17.56946 
L 141.265467 -17.089339 
L 141.265467 -18.222325 
L 140.244654 -17.385348 
L 139.765459 -18.605492 
L 136.334578 -18.591057 
L 136.005387 -19.520337 
L 130.425172 -21.472773 
z
" clip-path="url(#p6083b603f0)" style="fill: #eeeeee; stroke: #000000; stroke-width: 0.3"/>
    <path d="M 285.978413 -286.054726 
L 286.982105 -287.193391 
L 287.995866 -287.106753 
L 287.985797 -285.828854 
L 286.936804 -285.875785 
L 287.27505 -286.738541 
z
" clip-path="url(#p6083b603f0)" style="fill: #eeeeee; stroke: #000000; stroke-width: 0.3"/>
    <path d="M 284.949646 -189.642855 
L 286.759152 -190.213278 
L 293.210497 -187.407502 
L 294.865371 -185.757678 
L 293.300789 -185.268571 
L 289.839155 -186.411558 
z
" clip-path="url(#p6083b603f0)" style="fill: #eeeeee; stroke: #000000; stroke-width: 0.3"/>
    <path d="M 266.297179 -109.84278 
L 267.656238 -110.27597 
L 266.597176 -111.190815 
L 267.473019 -112.017996 
L 268.499868 -110.456977 
L 267.396507 -108.791793 
z
" clip-path="url(#p6083b603f0)" style="fill: #eeeeee; stroke: #000000; stroke-width: 0.3"/>
    <path d="M 266.887103 -195.831811 
L 268.101204 -195.868945 
L 269.184426 -193.306444 
L 267.825367 -193.919615 
L 268.163626 -194.958739 
z
" clip-path="url(#p6083b603f0)" style="fill: #eeeeee; stroke: #000000; stroke-width: 0.3"/>
    <path d="M 260.616293 -117.582894 
L 261.214282 -116.936214 
L 262.99113 -116.283336 
L 263.037445 -116.053851 
L 261.214282 -116.351926 
z
" clip-path="url(#p6083b603f0)" style="fill: #eeeeee; stroke: #000000; stroke-width: 0.3"/>
    <path d="M 251.576486 -281.636033 
L 252.581402 -281.132466 
L 253.682598 -281.658758 
L 253.009458 -280.74049 
L 251.598666 -280.266782 
z
" clip-path="url(#p6083b603f0)" style="fill: #eeeeee; stroke: #000000; stroke-width: 0.3"/>
    <path d="M 180.238339 -61.868426 
L 181.875251 -62.778126 
L 181.461483 -60.433246 
L 180.896721 -60.338877 
L 181.014512 -61.731258 
z
" clip-path="url(#p6083b603f0)" style="fill: #eeeeee; stroke: #000000; stroke-width: 0.3"/>
    <path d="M 149.734933 -52.787501 
L 151.515813 -54.179894 
L 153.466824 -53.436766 
L 153.0883 -52.174342 
L 152.154068 -53.038645 
z
" clip-path="url(#p6083b603f0)" style="fill: #eeeeee; stroke: #000000; stroke-width: 0.3"/>
    <path d="M 303.006957 -284.062076 
L 304.028772 -284.158511 
L 304.317697 -284.084763 
L 303.683462 -283.542768 
z
" clip-path="url(#p6083b603f0)" style="fill: #eeeeee; stroke: #000000; stroke-width: 0.3"/>
    <path d="M 298.573399 -170.013911 
L 299.147217 -170.478038 
L 300.183121 -170.399144 
L 298.91668 -170.072185 
z
" clip-path="url(#p6083b603f0)" style="fill: #eeeeee; stroke: #000000; stroke-width: 0.3"/>
    <path d="M 295.546205 -163.61874 
L 296.468351 -164.362375 
L 297.450914 -162.889541 
L 297.154938 -162.650259 
z
" clip-path="url(#p6083b603f0)" style="fill: #eeeeee; stroke: #000000; stroke-width: 0.3"/>
    <path d="M 294.68345 -168.833474 
L 299.190513 -167.338993 
L 298.771711 -166.189492 
L 295.375072 -166.993467 
z
" clip-path="url(#p6083b603f0)" style="fill: #eeeeee; stroke: #000000; stroke-width: 0.3"/>
    <path d="M 284.257938 -143.400807 
L 285.621364 -144.465976 
L 286.222038 -142.76391 
L 284.64391 -142.203691 
z
" clip-path="url(#p6083b603f0)" style="fill: #eeeeee; stroke: #000000; stroke-width: 0.3"/>
    <path d="M 261.510259 -109.779867 
L 262.314625 -110.84221 
L 262.171671 -109.210535 
L 261.700529 -109.019731 
z
" clip-path="url(#p6083b603f0)" style="fill: #eeeeee; stroke: #000000; stroke-width: 0.3"/>
    <path d="M 246.523327 -96.819354 
L 246.802183 -98.035366 
L 247.901511 -97.767721 
L 247.345804 -96.42639 
z
" clip-path="url(#p6083b603f0)" style="fill: #eeeeee; stroke: #000000; stroke-width: 0.3"/>
    <path d="M 237.251462 -85.587115 
L 237.897808 -88.029786 
L 239.801984 -87.692118 
L 238.625526 -85.696287 
z
" clip-path="url(#p6083b603f0)" style="fill: #eeeeee; stroke: #000000; stroke-width: 0.3"/>
    <path d="M 187.166529 -67.159494 
L 188.317206 -67.639603 
L 187.684988 -66.606664 
L 187.258144 -66.585004 
z
" clip-path="url(#p6083b603f0)" style="fill: #eeeeee; stroke: #000000; stroke-width: 0.3"/>
    <path d="M 177.933964 -60.554433 
L 178.311487 -61.559008 
L 179.417866 -61.998903 
L 179.480275 -61.081472 
z
" clip-path="url(#p6083b603f0)" style="fill: #eeeeee; stroke: #000000; stroke-width: 0.3"/>
    <path d="M 151.86111 -55.226243 
L 153.558428 -54.950854 
L 154.325546 -55.391268 
L 153.41347 -54.294896 
z
" clip-path="url(#p6083b603f0)" style="fill: #eeeeee; stroke: #000000; stroke-width: 0.3"/>
    <path d="M 309.28582 -282.117891 
L 309.92911 -281.752772 
L 309.497232 -281.463467 
z
" clip-path="url(#p6083b603f0)" style="fill: #eeeeee; stroke: #000000; stroke-width: 0.3"/>
    <path d="M 307.38314 -288.057186 
L 308.005289 -287.806562 
L 307.58045 -287.39555 
z
" clip-path="url(#p6083b603f0)" style="fill: #eeeeee; stroke: #000000; stroke-width: 0.3"/>
    <path d="M 301.387153 -284.856242 
L 303.10461 -284.622638 
L 302.390845 -284.362724 
z
" clip-path="url(#p6083b603f0)" style="fill: #eeeeee; stroke: #000000; stroke-width: 0.3"/>
    <path d="M 300.424742 -175.950114 
L 300.457956 -176.446217 
L 301.630778 -175.923296 
z
" clip-path="url(#p6083b603f0)" style="fill: #eeeeee; stroke: #000000; stroke-width: 0.3"/>
    <path d="M 299.52876 -283.572158 
L 300.11971 -283.802682 
L 300.11971 -283.109577 
z
" clip-path="url(#p6083b603f0)" style="fill: #eeeeee; stroke: #000000; stroke-width: 0.3"/>
    <path d="M 299.16534 -166.444768 
L 300.171048 -166.429293 
L 300.028094 -164.916232 
z
" clip-path="url(#p6083b603f0)" style="fill: #eeeeee; stroke: #000000; stroke-width: 0.3"/>
    <path d="M 298.513996 -172.554247 
L 298.603596 -173.145226 
L 300.373392 -172.287628 
z
" clip-path="url(#p6083b603f0)" style="fill: #eeeeee; stroke: #000000; stroke-width: 0.3"/>
    <path d="M 298.005606 -164.953367 
L 298.493857 -165.087455 
L 298.953928 -164.19323 
z
" clip-path="url(#p6083b603f0)" style="fill: #eeeeee; stroke: #000000; stroke-width: 0.3"/>
    <path d="M 296.04956 -170.721971 
L 297.754931 -171.421767 
L 297.642186 -170.094871 
z
" clip-path="url(#p6083b603f0)" style="fill: #eeeeee; stroke: #000000; stroke-width: 0.3"/>
    <path d="M 294.408628 -166.239009 
L 295.045869 -165.866159 
L 294.473053 -165.811484 
z
" clip-path="url(#p6083b603f0)" style="fill: #eeeeee; stroke: #000000; stroke-width: 0.3"/>
    <path d="M 293.508625 -156.223112 
L 294.231445 -156.468071 
L 293.762307 -155.271653 
z
" clip-path="url(#p6083b603f0)" style="fill: #eeeeee; stroke: #000000; stroke-width: 0.3"/>
    <path d="M 293.094857 -167.598894 
L 294.032107 -167.334342 
L 293.408956 -166.751094 
z
" clip-path="url(#p6083b603f0)" style="fill: #eeeeee; stroke: #000000; stroke-width: 0.3"/>
    <path d="M 292.593519 -184.376615 
L 293.677755 -183.968696 
L 293.094857 -183.4102 
z
" clip-path="url(#p6083b603f0)" style="fill: #eeeeee; stroke: #000000; stroke-width: 0.3"/>
    <path d="M 292.451567 -155.934847 
L 292.539163 -156.254062 
L 293.185471 -155.559411 
z
" clip-path="url(#p6083b603f0)" style="fill: #eeeeee; stroke: #000000; stroke-width: 0.3"/>
    <path d="M 289.999217 -185.296619 
L 291.320026 -185.015058 
L 292.249223 -183.76603 
z
" clip-path="url(#p6083b603f0)" style="fill: #eeeeee; stroke: #000000; stroke-width: 0.3"/>
    <path d="M 283.981087 -139.372162 
L 284.17941 -139.705825 
L 284.887138 -139.384545 
z
" clip-path="url(#p6083b603f0)" style="fill: #eeeeee; stroke: #000000; stroke-width: 0.3"/>
    <path d="M 283.636791 -141.464352 
L 284.496528 -141.24725 
L 284.046527 -140.999199 
z
" clip-path="url(#p6083b603f0)" style="fill: #eeeeee; stroke: #000000; stroke-width: 0.3"/>
    <path d="M 283.339269 -134.903167 
L 284.047553 -134.734365 
L 283.600966 -134.542864 
z
" clip-path="url(#p6083b603f0)" style="fill: #eeeeee; stroke: #000000; stroke-width: 0.3"/>
    <path d="M 281.617334 -273.394341 
L 281.752234 -273.430956 
L 281.835785 -273.322151 
z
" clip-path="url(#p6083b603f0)" style="fill: #eeeeee; stroke: #000000; stroke-width: 0.3"/>
    <path d="M 280.386124 -272.283014 
L 280.712297 -272.380476 
L 280.742493 -272.275283 
z
" clip-path="url(#p6083b603f0)" style="fill: #eeeeee; stroke: #000000; stroke-width: 0.3"/>
    <path d="M 279.585779 -270.796251 
L 279.964303 -270.443514 
L 279.805243 -270.579669 
z
" clip-path="url(#p6083b603f0)" style="fill: #eeeeee; stroke: #000000; stroke-width: 0.3"/>
    <path d="M 279.335115 -267.39368 
L 279.766994 -267.439065 
L 279.732765 -267.109533 
z
" clip-path="url(#p6083b603f0)" style="fill: #eeeeee; stroke: #000000; stroke-width: 0.3"/>
    <path d="M 278.912292 -268.232203 
L 279.108599 -268.287905 
L 279.310956 -267.963012 
z
" clip-path="url(#p6083b603f0)" style="fill: #eeeeee; stroke: #000000; stroke-width: 0.3"/>
    <path d="M 277.844175 -268.030056 
L 278.140139 -268.07131 
L 278.103906 -267.770142 
z
" clip-path="url(#p6083b603f0)" style="fill: #eeeeee; stroke: #000000; stroke-width: 0.3"/>
    <path d="M 274.664972 -128.651844 
L 275.169329 -128.185651 
L 274.759606 -128.041258 
z
" clip-path="url(#p6083b603f0)" style="fill: #eeeeee; stroke: #000000; stroke-width: 0.3"/>
    <path d="M 264.880734 -117.545772 
L 265.442478 -117.957291 
L 265.702208 -117.147131 
z
" clip-path="url(#p6083b603f0)" style="fill: #eeeeee; stroke: #000000; stroke-width: 0.3"/>
    <path d="M 263.528714 -106.562941 
L 263.846833 -106.855858 
L 264.57167 -105.755367 
z
" clip-path="url(#p6083b603f0)" style="fill: #eeeeee; stroke: #000000; stroke-width: 0.3"/>
    <path d="M 232.581678 -83.762672 
L 233.066588 -84.135243 
L 234.880015 -83.373675 
z
" clip-path="url(#p6083b603f0)" style="fill: #eeeeee; stroke: #000000; stroke-width: 0.3"/>
    <path d="M 232.495789 -85.099592 
L 233.136061 -84.95468 
L 232.510881 -84.982017 
z
" clip-path="url(#p6083b603f0)" style="fill: #eeeeee; stroke: #000000; stroke-width: 0.3"/>
    <path d="M 198.732649 -65.965141 
L 199.938697 -66.516413 
L 199.917556 -66.206995 
z
" clip-path="url(#p6083b603f0)" style="fill: #eeeeee; stroke: #000000; stroke-width: 0.3"/>
    <path d="M 192.913114 -65.602392 
L 193.261937 -65.217818 
L 193.060657 -65.293481 
z
" clip-path="url(#p6083b603f0)" style="fill: #eeeeee; stroke: #000000; stroke-width: 0.3"/>
    <path d="M 191.356437 -70.876908 
L 191.9426 -71.008893 
L 191.48937 -70.599124 
z
" clip-path="url(#p6083b603f0)" style="fill: #eeeeee; stroke: #000000; stroke-width: 0.3"/>
    <path d="M 190.113438 -77.313662 
L 190.653274 -77.187748 
L 190.547073 -76.790805 
z
" clip-path="url(#p6083b603f0)" style="fill: #eeeeee; stroke: #000000; stroke-width: 0.3"/>
    <path d="M 189.801096 -66.542724 
L 190.223919 -67.251291 
L 190.579286 -66.811916 
z
" clip-path="url(#p6083b603f0)" style="fill: #eeeeee; stroke: #000000; stroke-width: 0.3"/>
    <path d="M 189.699658 -74.757333 
L 191.668742 -73.958389 
L 191.744759 -73.263219 
z
" clip-path="url(#p6083b603f0)" style="fill: #eeeeee; stroke: #000000; stroke-width: 0.3"/>
    <path d="M 188.705788 -77.020669 
L 189.688351 -77.053672 
L 190.711168 -75.243575 
z
" clip-path="url(#p6083b603f0)" style="fill: #eeeeee; stroke: #000000; stroke-width: 0.3"/>
    <path d="M 187.632636 -65.943989 
L 188.538675 -66.773755 
L 188.824582 -65.727394 
z
" clip-path="url(#p6083b603f0)" style="fill: #eeeeee; stroke: #000000; stroke-width: 0.3"/>
    <path d="M 186.598748 -64.381424 
L 186.86955 -64.918273 
L 187.002434 -64.123069 
z
" clip-path="url(#p6083b603f0)" style="fill: #eeeeee; stroke: #000000; stroke-width: 0.3"/>
    <path d="M 180.406453 1.961059 
L 180.418539 1.925471 
L 180.507124 1.962605 
z
" clip-path="url(#p6083b603f0)" style="fill: #eeeeee; stroke: #000000; stroke-width: 0.3"/>
    <path d="M 175.584302 -1.303824 
L 175.653762 -1.344051 
L 175.646711 -1.300732 
z
" clip-path="url(#p6083b603f0)" style="fill: #eeeeee; stroke: #000000; stroke-width: 0.3"/>
    <path d="M 175.481614 -0.111537 
L 175.490669 -0.204879 
L 175.584302 -0.147632 
z
" clip-path="url(#p6083b603f0)" style="fill: #eeeeee; stroke: #000000; stroke-width: 0.3"/>
    <path d="M 169.075904 -60.131559 
L 169.397042 -61.125831 
L 171.432618 -60.837033 
z
" clip-path="url(#p6083b603f0)" style="fill: #eeeeee; stroke: #000000; stroke-width: 0.3"/>
    <path d="M 168.380262 9.838342 
L 168.384295 9.803274 
L 168.48295 9.787811 
z
" clip-path="url(#p6083b603f0)" style="fill: #eeeeee; stroke: #000000; stroke-width: 0.3"/>
    <path d="M 167.462137 3.039384 
L 167.496366 3.051246 
L 167.479258 3.077025 
z
" clip-path="url(#p6083b603f0)" style="fill: #eeeeee; stroke: #000000; stroke-width: 0.3"/>
    <path d="M 166.521869 3.644811 
L 166.605431 3.70927 
L 166.564151 3.760332 
z
" clip-path="url(#p6083b603f0)" style="fill: #eeeeee; stroke: #000000; stroke-width: 0.3"/>
    <path d="M 161.492338 13.120246 
L 161.631259 13.074861 
L 161.631259 13.165111 
z
" clip-path="url(#p6083b603f0)" style="fill: #eeeeee; stroke: #000000; stroke-width: 0.3"/>
    <path d="M 153.466824 -51.921652 
L 154.517833 -52.16196 
L 153.982253 -51.487942 
z
" clip-path="url(#p6083b603f0)" style="fill: #eeeeee; stroke: #000000; stroke-width: 0.3"/>
    <path d="M 151.860108 -48.589205 
L 152.57991 -47.843504 
L 152.350375 -47.728502 
z
" clip-path="url(#p6083b603f0)" style="fill: #eeeeee; stroke: #000000; stroke-width: 0.3"/>
    <path d="M 135.442629 -53.49608 
L 135.841293 -53.793635 
L 135.9027 -53.372308 
z
" clip-path="url(#p6083b603f0)" style="fill: #eeeeee; stroke: #000000; stroke-width: 0.3"/>
    <path d="M 49.197452 -70.676814 
L 50.426757 -70.843171 
L 53.206269 -75.336031 
L 60.459345 -71.090082 
L 63.930541 -75.624524 
L 66.330328 -73.007069 
L 68.103007 -75.765343 
L 71.96991 -72.065279 
L 73.545056 -75.670378 
L 75.453884 -76.086585 
L 75.400196 -75.043279 
L 76.678711 -74.337247 
L 79.318226 -76.234273 
L 81.139496 -76.008654 
L 82.659012 -77.350619 
L 82.341301 -79.396638 
L 83.23372 -80.384928 
L 87.326273 -81.5314 
L 88.702601 -82.948355 
L 91.664306 -79.068514 
L 95.40399 -77.103708 
L 98.845781 -77.995398 
L 100.371062 -76.470056 
L 103.245828 -77.366981 
L 106.982321 -75.741757 
L 105.62581 -72.98219 
L 104.351118 -73.183247 
L 103.729749 -71.192904 
L 105.412296 -68.468368 
L 105.29083 -65.244117 
L 109.697902 -64.718851 
L 109.618001 -63.237386 
L 112.954952 -62.06833 
L 113.888912 -60.560668 
L 119.205017 -61.278474 
L 121.843964 -59.119759 
L 121.082882 -58.574152 
L 120.835237 -59.637522 
L 119.068447 -59.557588 
L 119.310067 -58.774246 
L 116.887914 -56.68928 
L 114.719454 -57.130202 
L 114.042937 -55.996695 
L 114.212066 -53.314033 
L 112.019447 -52.174342 
L 110.399643 -52.441468 
L 111.427507 -53.479059 
L 109.899306 -53.393447 
L 109.594275 -52.344526 
L 107.773129 -52.866408 
L 108.878506 -51.82779 
L 107.948307 -51.478146 
L 106.767433 -52.424967 
L 107.084538 -53.278965 
L 105.154668 -53.220171 
L 106.553003 -52.185686 
L 105.870449 -51.478665 
L 107.181189 -48.878003 
L 104.47011 -48.696983 
L 104.940238 -47.827003 
L 103.62648 -47.1468 
L 104.385545 -47.225708 
L 103.62648 -45.833314 
L 104.562728 -45.971015 
L 104.542242 -43.781274 
L 104.406983 -43.638897 
L 103.853998 -44.208863 
L 103.372786 -44.19752 
L 104.257993 -43.231016 
L 101.921109 -42.977388 
L 99.389229 -40.19364 
L 98.536544 -39.847101 
L 98.536544 -40.712442 
L 96.662044 -39.346346 
L 94.624452 -35.265118 
L 94.845933 -31.167896 
L 92.427812 -27.433728 
L 94.128148 -23.34321 
L 94.297277 -24.562328 
L 98.367415 -18.222325 
L 100.56205 -17.529753 
L 101.500302 -15.696958 
L 102.590575 -16.508664 
L 103.702991 -14.304577 
L 102.60568 -13.447486 
L 103.372786 -11.275882 
L 101.844598 -11.968467 
L 100.739233 -12.055092 
L 103.451314 -10.922626 
L 106.661727 -6.521663 
L 110.965419 -3.388283 
L 112.104011 -1.24607 
L 111.335891 -0.593192 
L 112.260053 -1.102704 
L 117.440602 2.962023 
L 115.066768 2.19157 
L 117.784898 3.410688 
L 119.987574 5.591049 
L 119.630191 6.435251 
L 122.484223 6.014443 
L 122.620137 7.413528 
L 124.480535 7.657968 
L 123.712414 8.523829 
L 124.776511 9.266957 
L 124.39597 10.357131 
L 125.156038 10.270506 
L 124.987923 8.351072 
L 126.05202 8.435644 
L 125.405711 10.459244 
L 130.407062 16.516113 
L 129.732561 17.30256 
L 130.576179 16.862666 
L 131.514443 18.954855 
L 132.188944 17.640849 
L 133.725185 19.906835 
L 132.621824 21.145533 
L 135.388273 26.686199 
L 135.078207 28.607686 
L 138.125528 37.318854 
L 138.083246 38.803044 
L 137.433906 37.134234 
L 137.053378 38.20896 
L 137.962435 41.704354 
L 137.026188 40.226361 
L 136.922498 40.431094 
L 138.525194 42.526376 
L 138.125528 43.270011 
L 137.355391 42.276778 
L 137.195317 43.443287 
L 138.125528 43.954865 
L 138.125528 46.739627 
L 140.075525 49.524402 
L 138.885595 50.648618 
L 139.906396 53.866063 
L 139.314455 52.387044 
L 138.554388 52.733584 
L 138.762769 50.994651 
L 136.858073 52.90686 
L 138.602707 56.076855 
L 138.001699 56.650825 
L 136.174517 55.518359 
L 137.317129 57.228928 
L 136.603377 58.640915 
L 137.962435 62.73142 
L 137.103713 62.637571 
L 137.026188 60.899145 
L 136.509744 59.458806 
L 136.898339 61.395767 
L 135.879542 62.828375 
L 136.858073 62.77114 
L 137.328213 64.449733 
L 136.005387 66.546562 
L 134.573838 65.75341 
L 134.392635 69.417962 
L 132.319811 69.581441 
L 130.974842 71.472511 
L 128.524509 71.830913 
L 125.664427 74.878175 
L 123.269464 74.810623 
L 121.931547 77.583523 
L 119.774158 77.672227 
L 112.946627 81.650328 
L 111.758714 80.396142 
L 109.476495 80.352823 
L 109.986889 79.781438 
L 109.976832 78.747978 
L 109.875147 78.129142 
L 109.385881 77.583523 
L 109.91441 79.550394 
L 109.476495 78.527252 
L 109.1322 80.533323 
L 108.878506 78.834616 
L 108.117424 78.181739 
L 106.459371 77.909455 
L 106.284205 79.825783 
L 104.409705 80.708652 
L 106.378839 80.515782 
L 106.993937 82.83695 
L 102.43655 82.430058 
L 107.078501 84.454684 
L 105.239232 86.772239 
L 103.012384 85.69958 
L 101.663395 83.650202 
L 100.823798 83.130374 
L 102.922797 85.994562 
L 105.825148 87.758247 
L 105.483871 88.43897 
L 104.47011 88.691153 
L 99.003654 83.550155 
L 98.613056 83.477952 
L 104.324138 89.754003 
L 103.93756 91.706439 
L 101.974463 92.172112 
L 94.97278 86.346273 
L 99.64896 92.262362 
L 99.603659 94.440151 
L 91.505667 97.481734 
L 86.09635 103.756086 
L 81.482826 104.19664 
L 84.385177 102.677394 
L 83.026119 102.764032 
L 83.870751 101.537703 
L 82.052722 101.429279 
L 83.066644 89.767234 
L 83.514839 88.33436 
L 85.519749 87.291028 
L 86.242569 88.258482 
L 86.166057 87.046589 
L 82.02041 83.574907 
L 80.054307 84.616097 
L 78.964034 81.131526 
L 78.279464 81.650328 
L 78.053962 81.128434 
L 79.482519 79.754556 
L 83.040023 79.713303 
L 85.666747 77.398752 
L 84.982103 75.245651 
L 85.804827 74.446302 
L 88.773558 75.815769 
L 89.919127 74.242292 
L 94.154881 73.575562 
L 95.71084 75.952329 
L 96.362245 75.086836 
L 99.405138 76.728105 
L 99.194827 73.095175 
L 95.287015 70.099495 
L 94.797973 65.853204 
L 96.396128 65.62595 
L 97.402331 64.008254 
L 102.479352 65.382309 
L 102.085575 61.482164 
L 105.890464 61.469719 
L 112.203173 57.225075 
L 114.726344 57.87936 
L 115.944144 56.741735 
L 116.57254 53.414002 
L 115.277388 48.151919 
L 117.057736 42.107507 
L 113.539878 34.233203 
L 116.486875 24.513949 
L 115.093921 22.756423 
L 116.86916 22.340862 
L 117.797367 19.674626 
L 111.422633 13.275564 
L 111.886105 12.186403 
L 114.227727 11.429955 
L 114.971181 9.531953 
L 113.280333 9.590886 
L 110.921455 7.014367 
L 109.04458 6.512688 
L 107.685509 3.686634 
L 106.395477 5.062007 
L 105.508179 4.771866 
L 103.899793 2.050612 
L 103.700344 -2.133121 
L 102.300364 -2.214994 
L 100.731613 -5.878709 
L 99.5055 -5.531586 
L 93.786017 -10.805139 
L 90.614645 -17.236621 
L 89.362962 -16.857408 
L 86.896683 -18.83139 
L 85.830397 -20.70156 
L 86.937605 -22.735793 
L 86.235048 -23.793839 
L 81.257114 -25.032652 
L 74.298097 -29.93485 
L 70.595487 -31.41795 
L 73.583405 -33.746912 
L 72.482592 -36.244511 
L 75.303026 -36.564778 
L 80.069362 -35.315484 
L 82.428884 -37.640504 
L 82.127786 -39.125898 
L 84.216258 -40.233727 
L 83.702933 -42.512906 
L 80.59867 -42.986425 
L 80.894016 -44.612308 
L 76.92163 -45.863883 
L 80.080867 -48.484291 
L 73.612178 -52.472848 
L 69.814958 -51.012346 
L 68.466749 -48.611346 
L 65.548514 -50.629204 
L 61.526275 -51.296581 
L 57.642115 -56.194204 
L 59.779809 -60.256117 
L 59.454428 -62.306724 
L 58.209784 -61.892798 
L 57.709237 -63.560923 
L 57.03418 -61.594153 
L 55.778662 -61.301401 
L 55.04096 -64.388116 
z
" clip-path="url(#p6083b603f0)" style="fill: #eeeeee; stroke: #000000; stroke-width: 0.3"/>
    <path d="M 107.773129 79.314205 
L 107.989575 78.745912 
L 107.773129 78.449384 
L 108.709377 78.873804 
L 108.455683 79.699958 
z
" clip-path="url(#p6083b603f0)" style="fill: #eeeeee; stroke: #000000; stroke-width: 0.3"/>
    <path d="M 106.513739 78.008462 
L 107.699648 78.667525 
L 107.604012 80.179547 
L 107.604012 81.312026 
L 106.745277 80.562714 
z
" clip-path="url(#p6083b603f0)" style="fill: #eeeeee; stroke: #000000; stroke-width: 0.3"/>
    <path d="M 70.566033 81.741605 
L 72.52913 80.731351 
L 73.485505 81.745217 
L 72.884497 85.230294 
L 73.104964 86.346273 
z
" clip-path="url(#p6083b603f0)" style="fill: #eeeeee; stroke: #000000; stroke-width: 0.3"/>
    <path d="M 114.194958 -53.719367 
L 115.214756 -56.458757 
L 116.764085 -55.651182 
L 115.405026 -54.179894 
z
" clip-path="url(#p6083b603f0)" style="fill: #eeeeee; stroke: #000000; stroke-width: 0.3"/>
    <path d="M 108.504002 -50.89747 
L 109.054674 -51.402851 
L 110.575823 -50.435409 
L 110.153 -49.216292 
z
" clip-path="url(#p6083b603f0)" style="fill: #eeeeee; stroke: #000000; stroke-width: 0.3"/>
    <path d="M 106.745277 -51.17234 
L 106.927495 -52.087704 
L 108.117424 -50.702535 
L 108.017767 -50.297202 
z
" clip-path="url(#p6083b603f0)" style="fill: #eeeeee; stroke: #000000; stroke-width: 0.3"/>
    <path d="M 98.367415 89.477587 
L 100.730165 92.230386 
L 99.643925 91.875583 
L 98.770099 90.598711 
z
" clip-path="url(#p6083b603f0)" style="fill: #eeeeee; stroke: #000000; stroke-width: 0.3"/>
    <path d="M 138.182902 53.313752 
L 138.886597 53.143568 
L 139.274177 54.028503 
z
" clip-path="url(#p6083b603f0)" style="fill: #eeeeee; stroke: #000000; stroke-width: 0.3"/>
    <path d="M 137.357407 58.208752 
L 137.702705 58.114382 
L 138.125528 58.727541 
z
" clip-path="url(#p6083b603f0)" style="fill: #eeeeee; stroke: #000000; stroke-width: 0.3"/>
    <path d="M 133.459405 79.92583 
L 133.815786 79.63446 
L 133.83793 80.073835 
z
" clip-path="url(#p6083b603f0)" style="fill: #eeeeee; stroke: #000000; stroke-width: 0.3"/>
    <path d="M 119.987574 -57.381865 
L 120.327849 -57.908385 
L 121.931547 -58.081661 
z
" clip-path="url(#p6083b603f0)" style="fill: #eeeeee; stroke: #000000; stroke-width: 0.3"/>
    <path d="M 119.683557 -53.038645 
L 120.174826 -53.386236 
L 119.697647 -52.815865 
z
" clip-path="url(#p6083b603f0)" style="fill: #eeeeee; stroke: #000000; stroke-width: 0.3"/>
    <path d="M 118.715096 -52.174342 
L 118.96879 -52.744182 
L 119.389597 -52.787501 
z
" clip-path="url(#p6083b603f0)" style="fill: #eeeeee; stroke: #000000; stroke-width: 0.3"/>
    <path d="M 118.382875 -56.862556 
L 119.279859 -57.480873 
L 119.689594 -57.381865 
z
" clip-path="url(#p6083b603f0)" style="fill: #eeeeee; stroke: #000000; stroke-width: 0.3"/>
    <path d="M 116.502338 -52.787501 
L 116.933214 -54.093256 
L 116.751999 -52.750886 
z
" clip-path="url(#p6083b603f0)" style="fill: #eeeeee; stroke: #000000; stroke-width: 0.3"/>
    <path d="M 115.320462 -50.608685 
L 116.425826 -52.614225 
L 116.32617 -51.9397 
z
" clip-path="url(#p6083b603f0)" style="fill: #eeeeee; stroke: #000000; stroke-width: 0.3"/>
    <path d="M 114.468778 -51.662765 
L 116.172132 -53.479059 
L 115.912402 -52.001066 
z
" clip-path="url(#p6083b603f0)" style="fill: #eeeeee; stroke: #000000; stroke-width: 0.3"/>
    <path d="M 113.801329 -50.969673 
L 113.999652 -50.801555 
L 114.285559 -50.398795 
z
" clip-path="url(#p6083b603f0)" style="fill: #eeeeee; stroke: #000000; stroke-width: 0.3"/>
    <path d="M 113.695623 -51.48537 
L 113.778171 -51.5751 
L 114.13052 -51.169767 
z
" clip-path="url(#p6083b603f0)" style="fill: #eeeeee; stroke: #000000; stroke-width: 0.3"/>
    <path d="M 110.563737 81.491487 
L 112.194613 81.053139 
L 110.660388 82.351151 
z
" clip-path="url(#p6083b603f0)" style="fill: #eeeeee; stroke: #000000; stroke-width: 0.3"/>
    <path d="M 108.195952 81.745217 
L 108.685217 79.841765 
L 109.301329 81.312026 
z
" clip-path="url(#p6083b603f0)" style="fill: #eeeeee; stroke: #000000; stroke-width: 0.3"/>
    <path d="M 104.274805 102.847578 
L 105.323797 102.937308 
L 104.36642 103.487554 
z
" clip-path="url(#p6083b603f0)" style="fill: #eeeeee; stroke: #000000; stroke-width: 0.3"/>
    <path d="M 103.541915 82.697183 
L 106.519776 83.455266 
L 106.169444 83.576453 
z
" clip-path="url(#p6083b603f0)" style="fill: #eeeeee; stroke: #000000; stroke-width: 0.3"/>
    <path d="M 102.43655 87.219865 
L 102.690244 87.298759 
L 103.837891 88.612246 
z
" clip-path="url(#p6083b603f0)" style="fill: #eeeeee; stroke: #000000; stroke-width: 0.3"/>
    <path d="M 51.606839 41.56915 
L 55.124053 40.752438 
L 54.438765 39.938033 
L 56.371901 38.770928 
L 59.284384 33.204953 
L 67.98091 30.133953 
L 71.050003 31.437605 
L 74.660565 30.629093 
L 79.185899 31.184471 
L 82.016563 30.177183 
L 84.517356 30.927738 
L 85.426389 33.038926 
L 87.121071 31.370155 
L 89.019681 34.357964 
L 91.436726 33.669308 
L 94.044919 34.650069 
L 95.970386 36.732767 
L 98.067158 36.809722 
L 99.060583 35.073159 
L 96.889636 31.115374 
L 99.354641 31.066909 
L 100.057829 29.536003 
L 102.397534 29.840212 
L 103.551403 28.270005 
L 107.193275 31.786033 
L 108.760751 31.694338 
L 113.135858 28.166524 
L 114.71484 28.864685 
L 116.01958 26.822265 
L 113.539878 34.233203 
L 117.057736 42.107507 
L 115.277388 48.151919 
L 116.57254 53.414002 
L 116.042589 56.453558 
L 114.726344 57.87936 
L 112.203173 57.225075 
L 105.890464 61.469719 
L 102.085575 61.482164 
L 102.479352 65.382309 
L 97.402331 64.008254 
L 96.396128 65.62595 
L 94.797973 65.853204 
L 95.287015 70.099495 
L 99.194827 73.095175 
L 99.405138 76.728105 
L 96.362245 75.086836 
L 95.71084 75.952329 
L 94.154881 73.575562 
L 89.919127 74.242292 
L 88.773558 75.815769 
L 85.804827 74.446302 
L 84.982103 75.245651 
L 85.366293 77.691846 
L 83.040023 79.713303 
L 79.482519 79.754556 
L 78.279427 81.177735 
L 75.561346 79.219836 
L 71.797242 78.993444 
L 70.81771 77.583523 
L 70.250932 79.55246 
L 67.817706 80.098587 
L 66.309657 78.625752 
L 67.119046 77.239556 
L 68.620056 77.056483 
L 69.036842 75.106113 
L 68.44489 72.966485 
L 66.693217 71.710765 
L 65.895889 71.84948 
L 65.074415 75.239162 
L 61.667706 75.277843 
L 60.813005 70.975369 
L 61.981793 69.741828 
L 60.897569 68.104995 
L 62.256628 68.372133 
L 60.559311 66.106667 
L 60.474746 66.893114 
L 59.538498 66.712614 
L 60.635822 65.854497 
L 59.713677 65.681221 
L 59.931125 64.865383 
L 60.924747 64.797832 
L 61.151263 64.548741 
L 59.882794 64.722017 
L 58.777429 63.250729 
L 59.713677 64.722017 
L 59.538498 66.546562 
L 56.388515 59.34118 
L 57.156907 55.572666 
L 53.746451 52.719769 
L 53.793112 48.475455 
L 51.789663 44.938465 
z
" clip-path="url(#p6083b603f0)" style="fill: #eeeeee; stroke: #000000; stroke-width: 0.3"/>
    <path d="M 69.296573 80.352823 
L 70.069729 80.308997 
L 69.930796 80.698855 
z
" clip-path="url(#p6083b603f0)" style="fill: #eeeeee; stroke: #000000; stroke-width: 0.3"/>
    <path d="M 63.676092 78.681454 
L 64.0526 78.623179 
L 64.101934 79.538025 
z
" clip-path="url(#p6083b603f0)" style="fill: #eeeeee; stroke: #000000; stroke-width: 0.3"/>
    <path d="M 62.555623 76.785226 
L 63.132471 76.587198 
L 63.531122 77.921824 
z
" clip-path="url(#p6083b603f0)" style="fill: #eeeeee; stroke: #000000; stroke-width: 0.3"/>
    <path d="M 60.048905 67.262352 
L 60.72844 67.845081 
L 60.474746 68.372133 
z
" clip-path="url(#p6083b603f0)" style="fill: #eeeeee; stroke: #000000; stroke-width: 0.3"/>
    <path d="M 59.967358 68.372133 
L 60.635822 70.308055 
L 60.193874 70.540645 
z
" clip-path="url(#p6083b603f0)" style="fill: #eeeeee; stroke: #000000; stroke-width: 0.3"/>
    <path d="M 24.223381 -44.881487 
L 26.384728 -49.948076 
L 31.055824 -51.400721 
L 29.394381 -51.777311 
L 31.962296 -56.914633 
L 33.520173 -56.953922 
L 37.326349 -59.969258 
L 38.572268 -55.239309 
L 41.762196 -56.039634 
L 44.84408 -54.873848 
L 45.549185 -55.936153 
L 44.211206 -57.250615 
L 45.303062 -60.897297 
L 41.739174 -68.748028 
L 44.181158 -71.868138 
L 45.782517 -70.496707 
L 47.667705 -71.308819 
L 55.04096 -64.388116 
L 55.778662 -61.301401 
L 57.03418 -61.594153 
L 57.709237 -63.560923 
L 58.209784 -61.892798 
L 59.454428 -62.306724 
L 59.779809 -60.256117 
L 57.642115 -56.194204 
L 61.708467 -51.125649 
L 65.548514 -50.629204 
L 68.466749 -48.611346 
L 69.814958 -51.012346 
L 73.612178 -52.472848 
L 80.080867 -48.484291 
L 76.92163 -45.863883 
L 80.894016 -44.612308 
L 80.59867 -42.986425 
L 83.702933 -42.512906 
L 84.216258 -40.233727 
L 82.127786 -39.125898 
L 82.428884 -37.640504 
L 80.069362 -35.315484 
L 75.303026 -36.564778 
L 72.482592 -36.244511 
L 73.583405 -33.746912 
L 70.595487 -31.41795 
L 74.298097 -29.93485 
L 81.257114 -25.032652 
L 86.235048 -23.793839 
L 86.937605 -22.735793 
L 85.830397 -20.70156 
L 86.896683 -18.83139 
L 89.362962 -16.857408 
L 90.614645 -17.236621 
L 93.786017 -10.805139 
L 99.5055 -5.531586 
L 100.731613 -5.878709 
L 102.300364 -2.214994 
L 103.700344 -2.133121 
L 103.899793 2.050612 
L 105.508179 4.771866 
L 106.395477 5.062007 
L 107.685509 3.686634 
L 109.04458 6.512688 
L 110.921455 7.014367 
L 113.280333 9.590886 
L 114.971181 9.531953 
L 114.227727 11.429955 
L 111.886105 12.186403 
L 111.422633 13.275564 
L 117.797367 19.674626 
L 116.86916 22.340862 
L 115.093921 22.756423 
L 116.486875 24.513949 
L 114.71484 28.864685 
L 113.135858 28.166524 
L 110.828763 30.585862 
L 109.919099 30.23547 
L 107.551264 31.860365 
L 103.551403 28.270005 
L 102.083014 29.97055 
L 100.057829 29.536003 
L 99.354641 31.066909 
L 96.833388 31.254557 
L 99.060583 35.073159 
L 98.067158 36.809722 
L 95.970386 36.732767 
L 94.044919 34.650069 
L 91.436726 33.669308 
L 89.345062 34.433284 
L 88.019231 33.439747 
L 87.121071 31.370155 
L 89.98688 30.32553 
L 91.119658 28.603364 
L 90.892078 25.786157 
L 92.177631 23.194899 
L 90.330804 21.382369 
L 91.817737 19.624197 
L 90.747603 18.606744 
L 92.316354 17.511691 
L 92.769596 14.434798 
L 89.938301 12.942205 
L 89.302236 11.426026 
L 90.062315 10.279225 
L 85.55999 8.868492 
L 85.032599 6.897135 
L 81.936007 3.923723 
L 81.629169 -2.302101 
L 82.570155 -6.994066 
L 78.062077 -10.709516 
L 72.166798 -19.133964 
L 70.911293 -18.532732 
L 63.896015 -20.338063 
L 62.994664 -19.452266 
L 63.7541 -18.590372 
L 62.180884 -18.108667 
L 60.569294 -14.82514 
L 58.278181 -14.588711 
L 56.177561 -12.536139 
L 55.093374 -12.92582 
L 55.147075 -14.375195 
L 48.700752 -17.652828 
L 46.545789 -15.413597 
L 45.136864 -15.875658 
L 44.378059 -13.830285 
L 40.158919 -11.512477 
L 36.995847 -8.120551 
L 33.94912 -9.541106 
L 35.369561 -13.483176 
L 37.402416 -15.620231 
L 37.281605 -19.0354 
L 35.733946 -20.364919 
L 38.262869 -23.288231 
L 38.141404 -26.029788 
L 39.396921 -27.877374 
L 37.491273 -32.387255 
L 38.512184 -34.551495 
L 33.872411 -35.393415 
L 32.30366 -33.731197 
L 28.855473 -34.27053 
L 27.679238 -37.067433 
L 29.749167 -42.418918 
L 27.248374 -45.233184 
L 25.962177 -45.01574 
L 24.87543 -43.321748 
z
" clip-path="url(#p6083b603f0)" style="fill: #eeeeee; stroke: #000000; stroke-width: 0.3"/>
    <path d="M -9.7758 -21.928586 
L -7.819655 -21.169515 
L -4.898229 -22.180731 
L -5.984976 -26.675556 
L -4.092761 -29.039231 
L -4.633574 -32.655128 
L -3.624811 -34.811181 
L -1.649491 -35.716952 
L -1.448768 -37.793756 
L 1.18627 -36.041148 
L 4.836466 -36.182612 
L 8.241183 -37.838951 
L 9.372674 -37.10477 
L 10.629466 -38.022328 
L 11.526982 -41.573728 
L 14.275815 -41.082846 
L 16.931314 -42.240128 
L 15.821557 -45.050454 
L 18.682888 -44.179396 
L 22.210988 -45.930687 
L 24.87543 -43.321748 
L 25.962177 -45.01574 
L 27.248374 -45.233184 
L 29.776023 -42.293498 
L 27.679238 -37.067433 
L 28.855473 -34.27053 
L 32.30366 -33.731197 
L 33.872411 -35.393415 
L 38.512184 -34.551495 
L 37.491273 -32.387255 
L 39.396921 -27.877374 
L 38.141404 -26.029788 
L 38.262869 -23.288231 
L 35.733946 -20.364919 
L 37.281605 -19.0354 
L 37.402416 -15.620231 
L 35.369561 -13.483176 
L 34.146021 -9.391137 
L 36.995847 -8.120551 
L 40.158919 -11.512477 
L 44.378059 -13.830285 
L 45.136864 -15.875658 
L 46.545789 -15.413597 
L 48.700752 -17.652828 
L 55.147075 -14.375195 
L 55.093374 -12.92582 
L 56.177561 -12.536139 
L 58.278181 -14.588711 
L 60.569294 -14.82514 
L 62.180884 -18.108667 
L 63.7541 -18.590372 
L 63.119321 -19.760088 
L 65.008332 -20.537498 
L 70.7112 -18.573998 
L 72.471088 -18.979078 
L 78.062077 -10.709516 
L 82.276739 -7.636552 
L 81.804323 3.701044 
L 85.032599 6.897135 
L 85.55999 8.868492 
L 90.062315 10.279225 
L 89.302236 11.426026 
L 89.938301 12.942205 
L 92.769596 14.434798 
L 92.316354 17.511691 
L 90.747603 18.606744 
L 91.817737 19.624197 
L 90.330804 21.382369 
L 92.177631 23.194899 
L 90.892078 25.786157 
L 91.119658 28.603364 
L 89.98688 30.32553 
L 85.426389 33.038926 
L 84.517356 30.927738 
L 82.016563 30.177183 
L 79.185899 31.184471 
L 74.660565 30.629093 
L 71.050003 31.437605 
L 67.98091 30.133953 
L 61.810103 31.699585 
L 59.093235 33.401105 
L 56.371901 38.770928 
L 54.438765 39.938033 
L 55.124053 40.752438 
L 51.839528 41.270162 
L 51.789663 44.938465 
L 53.793112 48.475455 
L 53.658225 52.518053 
L 57.156907 55.572666 
L 56.292631 58.837524 
L 59.031123 65.587358 
L 55.222732 58.29539 
L 54.933795 60.475244 
L 51.39017 58.691446 
L 50.98547 57.430048 
L 51.889505 57.203149 
L 52.084798 56.445066 
L 51.337818 57.068541 
L 51.490841 55.682864 
L 50.274736 55.576633 
L 50.553591 56.997378 
L 48.527083 53.866063 
L 47.844529 53.944958 
L 48.434465 55.164075 
L 44.836472 52.153428 
L 40.531765 53.550448 
L 36.444507 52.473682 
L 35.043166 53.520031 
L 33.601559 52.827966 
L 34.537794 48.390896 
L 33.853236 47.179522 
L 35.306929 42.137544 
L 31.39887 41.971999 
L 30.384107 40.666256 
L 30.11229 41.840496 
L 26.391482 41.87763 
L 22.527709 44.498406 
L 24.279395 47.69935 
L 22.499529 52.634576 
L 23.236439 58.657417 
L 18.558243 67.141673 
L 17.869652 71.300261 
L 16.758251 72.089281 
L 16.946505 75.467101 
L 16.100858 75.41657 
L 13.592136 79.833007 
L 14.14381 81.827723 
L 12.49381 81.917973 
L 13.768304 83.475899 
L 12.49381 85.135925 
L 12.409245 89.131035 
L 14.620989 94.158577 
L 13.531731 94.858386 
L 13.773339 96.174445 
L 16.491469 96.573594 
L 17.246501 95.550958 
L 20.556571 95.031649 
L 21.578386 96.164129 
L 22.582078 104.118772 
L 24.772681 106.86692 
L 24.610602 105.273418 
L 25.71598 106.10781 
L 28.434097 118.423202 
L 30.09674 121.817789 
L 28.252894 121.0775 
L 28.011274 117.78116 
L 26.361274 117.737841 
L 26.954228 115.496101 
L 25.594167 114.571446 
L 24.779732 115.350669 
L 25.205573 117.736295 
L 28.239138 122.298722 
L 29.865029 122.634716 
L 30.230589 121.624526 
L 32.453899 124.682231 
L 35.329122 126.285023 
L 39.705256 126.04109 
L 38.968 125.044296 
L 42.254256 126.473761 
L 44.90493 130.796348 
L 48.633791 133.878666 
L 48.471886 135.940908 
L 45.261509 140.438685 
L 43.596875 140.113184 
L 42.260813 138.265928 
L 38.43931 139.842041 
L 36.870559 141.833043 
L 34.929753 139.773273 
L 36.333568 137.926017 
L 36.369369 134.018673 
L 33.293237 134.142775 
L 32.018545 130.891668 
L 30.790526 131.505346 
L 27.780874 130.52556 
L 26.246006 128.270613 
L 25.052501 128.332512 
L 24.563285 131.536878 
L 19.101876 126.023043 
L 19.872001 122.871095 
L 17.51932 121.966047 
L 18.084082 119.701101 
L 17.416633 120.643283 
L 16.904222 119.589711 
L 16.441133 120.920206 
L 15.296492 120.400897 
L 14.239446 116.602269 
L 12.233065 114.744722 
L 11.749849 115.700313 
L 11.029045 115.307869 
L 11.479046 112.746914 
L 9.603532 111.144122 
L 7.776349 111.494794 
L 6.94582 108.011262 
L 5.967289 108.231456 
L 6.355884 106.983468 
L 3.545136 107.777646 
L 3.50487 109.913662 
L 1.796481 109.007587 
L 0.715276 105.022274 
L 1.378692 105.018662 
L 1.483396 101.013756 
L 3.088096 98.673515 
L 2.36326 98.790582 
L 2.973322 98.209388 
L 2.234396 96.467362 
L 3.903534 92.169019 
L 4.817626 91.946239 
L 3.980045 91.46044 
L 5.459902 88.43897 
L 4.590108 88.514784 
L 6.051854 87.046589 
L 7.16025 83.558406 
L 7.609583 78.00556 
L 13.252999 72.401259 
L 16.182095 65.994669 
L 17.330212 65.656076 
L 18.411851 63.434524 
L 17.031044 60.770898 
L 17.318708 59.316948 
L 16.212786 59.459718 
L 15.606756 53.800413 
L 13.394913 52.006539 
L 11.771188 47.940038 
L 11.881137 46.254233 
L 12.970445 45.5171 
L 11.731553 37.398179 
L 9.817603 34.669714 
L 5.023124 30.965405 
L 1.25787 25.548093 
L 0.232493 21.730138 
L 1.74883 19.403153 
L 3.013291 19.830501 
L 3.238311 18.514403 
L 5.173995 18.574984 
L 5.014181 9.802437 
L 8.233501 9.003418 
L 9.412309 5.567615 
L 8.633686 4.416898 
L 6.452522 6.771385 
L 3.896755 1.238488 
L 4.550077 -0.909048 
L -4.729458 -11.033052 
L -5.75867 -12.792872 
L -4.794663 -14.550727 
L -6.235565 -18.825497 
L -8.10477 -18.645706 
z
" clip-path="url(#p6083b603f0)" style="fill: #eeeeee; stroke: #000000; stroke-width: 0.3"/>
    <path d="M 54.286485 66.106667 
L 54.597553 64.143408 
L 55.225751 65.09796 
L 55.131117 66.6332 
z
" clip-path="url(#p6083b603f0)" style="fill: #eeeeee; stroke: #000000; stroke-width: 0.3"/>
    <path d="M 22.076706 91.947786 
L 23.856572 91.688898 
L 23.741811 93.242692 
L 22.328384 93.820795 
z
" clip-path="url(#p6083b603f0)" style="fill: #eeeeee; stroke: #000000; stroke-width: 0.3"/>
    <path d="M 11.004886 117.346943 
L 11.050186 116.303168 
L 11.55656 116.750793 
L 11.854552 118.546962 
z
" clip-path="url(#p6083b603f0)" style="fill: #eeeeee; stroke: #000000; stroke-width: 0.3"/>
    <path d="M 1.729025 109.363936 
L 3.680036 110.749093 
L 3.426342 113.014559 
L 1.857888 114.614765 
z
" clip-path="url(#p6083b603f0)" style="fill: #eeeeee; stroke: #000000; stroke-width: 0.3"/>
    <path d="M 50.81634 59.160211 
L 53.187156 61.512315 
L 51.321712 61.418453 
z
" clip-path="url(#p6083b603f0)" style="fill: #eeeeee; stroke: #000000; stroke-width: 0.3"/>
    <path d="M 22.835772 89.996896 
L 23.820339 89.290902 
L 24.103227 90.689481 
z
" clip-path="url(#p6083b603f0)" style="fill: #eeeeee; stroke: #000000; stroke-width: 0.3"/>
    <path d="M 18.972011 91.206723 
L 19.035434 91.361952 
L 19.00624 91.384638 
z
" clip-path="url(#p6083b603f0)" style="fill: #eeeeee; stroke: #000000; stroke-width: 0.3"/>
    <path d="M 18.883414 92.54083 
L 19.261938 92.248953 
L 19.320327 92.514013 
z
" clip-path="url(#p6083b603f0)" style="fill: #eeeeee; stroke: #000000; stroke-width: 0.3"/>
    <path d="M 18.043816 129.747934 
L 18.745495 127.968774 
L 19.332413 130.066629 
z
" clip-path="url(#p6083b603f0)" style="fill: #eeeeee; stroke: #000000; stroke-width: 0.3"/>
    <path d="M 15.29147 121.27037 
L 16.23274 121.439514 
L 15.359915 122.008846 
z
" clip-path="url(#p6083b603f0)" style="fill: #eeeeee; stroke: #000000; stroke-width: 0.3"/>
    <path d="M 12.578374 130.116133 
L 13.170315 129.856739 
L 13.306229 130.337367 
z
" clip-path="url(#p6083b603f0)" style="fill: #eeeeee; stroke: #000000; stroke-width: 0.3"/>
    <path d="M 11.169982 116.060781 
L 11.447836 115.911231 
L 11.963277 116.937985 
z
" clip-path="url(#p6083b603f0)" style="fill: #eeeeee; stroke: #000000; stroke-width: 0.3"/>
    <path d="M 5.417619 110.449472 
L 5.967289 109.363936 
L 5.928026 110.654204 
z
" clip-path="url(#p6083b603f0)" style="fill: #eeeeee; stroke: #000000; stroke-width: 0.3"/>
    <path d="M 4.785413 110.229784 
L 5.699506 110.99044 
L 5.713596 113.014559 
z
" clip-path="url(#p6083b603f0)" style="fill: #eeeeee; stroke: #000000; stroke-width: 0.3"/>
    <path d="M 3.009568 89.895303 
L 3.402182 89.825166 
L 3.17266 90.170172 
z
" clip-path="url(#p6083b603f0)" style="fill: #eeeeee; stroke: #000000; stroke-width: 0.3"/>
    <path d="M 1.367621 99.158782 
L 2.04514 99.654365 
L 1.483396 100.65998 
z
" clip-path="url(#p6083b603f0)" style="fill: #eeeeee; stroke: #000000; stroke-width: 0.3"/>
    <path d="M 1.318287 97.218728 
L 2.243464 98.154726 
L 1.392782 98.654428 
z
" clip-path="url(#p6083b603f0)" style="fill: #eeeeee; stroke: #000000; stroke-width: 0.3"/>
    <path d="M -3.567288 93.273642 
L -3.047826 93.197827 
L -3.053863 93.560881 
z
" clip-path="url(#p6083b603f0)" style="fill: #eeeeee; stroke: #000000; stroke-width: 0.3"/>
    <path d="M -3.731382 93.997163 
L -3.687084 93.735183 
L -3.380036 93.792951 
z
" clip-path="url(#p6083b603f0)" style="fill: #eeeeee; stroke: #000000; stroke-width: 0.3"/>
    <path d="M -73.769824 -56.763346 
L -71.983724 -58.818528 
L -69.486766 -57.541403 
L -68.916536 -56.09858 
L -68.135365 -56.541314 
L -68.851331 -65.354138 
L -67.516556 -67.594028 
L -65.120603 -65.093476 
L -63.999329 -65.476617 
L -63.301263 -68.197225 
L -61.851417 -68.01187 
L -61.456341 -68.926171 
L -62.621084 -75.431654 
L -61.433332 -76.812908 
L -61.719721 -78.945058 
L -60.23024 -78.387057 
L -58.967053 -79.956275 
L -58.256195 -86.516117 
L -59.619101 -92.000562 
L -57.955741 -90.47849 
L -54.808021 -91.05516 
L -49.603139 -89.173203 
L -47.580514 -95.20124 
L -42.468968 -103.987867 
L -42.709326 -105.415291 
L -44.389312 -106.24706 
L -43.712968 -108.661164 
L -38.754853 -113.002078 
L -38.855858 -115.345437 
L -36.993048 -116.966415 
L -38.346998 -119.978469 
L -37.344642 -124.084918 
L -33.783946 -125.225813 
L -24.72943 -132.27096 
L -17.769138 -133.579529 
L -15.78871 -131.182458 
L -12.648648 -130.113601 
L -15.590535 -134.63594 
L -15.728614 -136.85355 
L -11.365012 -140.410184 
L -9.996984 -140.339781 
L -10.120999 -144.437396 
L -8.582939 -145.452871 
L -7.594636 -148.392228 
L -5.828996 -148.161033 
L -4.655309 -146.147763 
L -3.020067 -146.184441 
L -0.181745 -143.256211 
L -0.427225 -141.33987 
L 1.893305 -135.808279 
L 2.988996 -136.051261 
L 3.32269 -137.679425 
L 6.650697 -136.324368 
L 7.594243 -124.255203 
L 6.191702 -119.559309 
L 6.975435 -118.550703 
L 4.99628 -117.672434 
L 6.81306 -114.799881 
L 5.794078 -113.806344 
L 4.409437 -114.188168 
L 2.362517 -110.845378 
L -0.01937 -111.409273 
L -1.196892 -107.613257 
L -2.866648 -106.29029 
L -4.214215 -106.671467 
L -5.468446 -104.483653 
L -4.656583 -101.56427 
L -7.531992 -100.153208 
L -7.773624 -96.54451 
L -6.115385 -96.465261 
L -5.215296 -92.854598 
L -7.733989 -90.261375 
L -6.395379 -89.043195 
L -0.452795 -92.272681 
L 5.487228 -91.945545 
L 8.957149 -92.83233 
L 6.397547 -90.493229 
L 6.457631 -88.412497 
L 8.059621 -87.924885 
L 8.83697 -86.043258 
L 7.907477 -85.065436 
L 9.252495 -83.467714 
L 8.874045 -80.585668 
L 13.297743 -79.039364 
L 14.747589 -79.95497 
L 16.717799 -79.039364 
L 17.273964 -77.379756 
L 15.732057 -77.434443 
L 14.42796 -75.082568 
L 15.044208 -71.917921 
L 12.405336 -67.584206 
L 22.276193 -66.215385 
L 22.37335 -62.104349 
L 24.755251 -61.264723 
L 24.101928 -59.667989 
L 25.303733 -58.387581 
L 27.218969 -59.686328 
L 30.679934 -58.909564 
L 36.383434 -62.682008 
L 37.509816 -60.719813 
L 35.401526 -58.109886 
L 31.962296 -56.914633 
L 29.394381 -51.777311 
L 31.055824 -51.400721 
L 27.501523 -50.787044 
L 25.602913 -49.1294 
L 24.216986 -44.318567 
L 22.210988 -45.930687 
L 18.682888 -44.179396 
L 15.821557 -45.050454 
L 16.931314 -42.240128 
L 14.275815 -41.082846 
L 11.526982 -41.573728 
L 10.629466 -38.022328 
L 9.372674 -37.10477 
L 8.241183 -37.838951 
L 4.836466 -36.182612 
L 1.18627 -36.041148 
L -1.448768 -37.793756 
L -1.649491 -35.716952 
L -3.624811 -34.811181 
L -4.633574 -32.655128 
L -4.092761 -29.039231 
L -5.984976 -26.675556 
L -4.898229 -22.180731 
L -7.819655 -21.169515 
L -9.7758 -21.928586 
L -8.10477 -18.645706 
L -6.235565 -18.825497 
L -4.794663 -14.550727 
L -5.75867 -12.792872 
L -4.729458 -11.033052 
L 4.550077 -0.909048 
L 3.896755 1.238488 
L 6.452522 6.771385 
L 8.633686 4.416898 
L 9.412309 5.567615 
L 8.233501 9.003418 
L 5.014181 9.802437 
L 5.173995 18.574984 
L 3.238311 18.514403 
L 3.013291 19.830501 
L 1.74883 19.403153 
L 0.232493 21.730138 
L 1.25787 25.548093 
L 5.023124 30.965405 
L 9.817603 34.669714 
L 11.731553 37.398179 
L 12.970445 45.5171 
L 11.881137 46.254233 
L 11.771188 47.940038 
L 13.394913 52.006539 
L 15.606756 53.800413 
L 16.212786 59.459718 
L 17.318708 59.316948 
L 17.031044 60.770898 
L 18.411851 63.434524 
L 17.330212 65.656076 
L 16.182095 65.994669 
L 13.252999 72.401259 
L 7.732323 77.718042 
L 7.493461 82.004611 
L 4.966616 86.606174 
L 3.929709 77.380349 
L 4.785413 77.662949 
L 6.051854 75.664102 
L 5.441791 75.268566 
L 7.060581 74.731716 
L 6.390113 72.100624 
L 7.640447 70.364783 
L 6.882396 68.855854 
L 7.833736 68.025581 
L 7.347489 65.636355 
L 9.27736 64.981931 
L 7.933405 64.203228 
L 8.461922 63.30643 
L 8.254543 62.984123 
L 6.587422 65.088683 
L 5.713596 63.588511 
L 6.988102 62.637571 
L 5.039095 62.637571 
L 6.462591 62.108972 
L 7.172323 61.127602 
L 6.03675 59.42683 
L 6.947824 58.086019 
L 4.916281 58.035475 
L 6.988102 56.690545 
L 5.733735 55.663271 
L 7.027354 54.605567 
L 5.955203 54.025411 
L 6.818973 51.907443 
L 5.890778 51.388134 
L 5.403529 46.058905 
L 1.276005 39.375975 
L 0.624662 34.932213 
L 0.559234 41.533144 
L 0.032722 41.618755 
L -0.989093 35.624279 
L -0.390102 33.625431 
L -3.168624 27.082255 
L -1.410902 27.545356 
L -2.372324 25.626949 
L -3.603533 26.580994 
L -4.29111 24.595049 
L -3.944798 20.425624 
L -5.136756 18.774355 
L -4.29111 17.908507 
L -5.128703 12.391566 
L -7.085751 9.613496 
L -6.240105 4.354417 
L -4.965611 3.316306 
L -9.542122 4.276029 
L -11.855551 -1.274953 
L -12.177703 -3.370223 
L -10.894142 -3.62963 
L -12.167634 -3.908099 
L -12.506894 -3.275854 
L -15.56932 -8.066687 
L -16.330389 -7.272003 
L -15.228043 -6.288047 
L -15.986094 -4.968376 
L -15.225024 -2.583789 
L -18.087876 3.118646 
L -21.096527 4.349271 
L -23.203221 2.840316 
L -23.700539 0.75587 
L -22.941474 0.098873 
L -24.376042 0.625913 
L -22.518651 5.14137 
L -25.021349 6.326446 
L -26.411618 5.495134 
L -25.657588 6.472385 
L -28.99585 8.567667 
L -29.896854 7.5801 
L -30.640815 11.04817 
L -33.720349 13.915451 
L -35.301891 13.697829 
L -34.357602 10.600024 
L -34.390817 8.523829 
L -36.232102 13.109423 
L -37.308273 12.71594 
L -37.655586 10.085874 
L -36.06901 8.884309 
L -37.184444 8.523829 
L -37.990827 9.455695 
L -38.443846 12.866517 
L -40.758278 13.05836 
L -40.146198 12.338451 
L -40.908282 11.048689 
L -39.802905 9.91621 
L -40.556936 8.785289 
L -40.099883 8.075176 
L -39.368008 7.858581 
L -38.957271 7.225817 
L -40.661627 8.373758 
L -40.479422 9.885273 
L -42.312642 12.220863 
L -43.795529 11.402972 
L -42.175725 10.183868 
L -41.415658 8.351072 
L -44.225391 11.221965 
L -42.836136 8.867288 
L -42.175725 3.756201 
L -42.859281 3.662351 
L -43.466338 7.106696 
L -43.444182 6.042287 
L -44.787147 6.659577 
L -45.938815 9.464465 
L -48.271369 10.704722 
L -47.915 3.719067 
L -47.011979 3.454007 
L -46.504591 -1.018132 
L -45.485795 -1.63129 
L -45.613657 -4.551687 
L -44.58077 -4.644522 
L -44.478083 -6.320543 
L -43.880094 -5.973991 
L -44.302917 -9.646793 
L -43.6264 -9.183692 
L -45.737473 -14.792429 
L -45.165659 -15.861983 
L -46.003253 -18.016566 
L -47.181109 -18.222325 
L -46.075731 -18.922134 
L -49.391851 -24.208032 
L -48.616679 -24.138414 
L -47.779098 -24.30292 
L -49.391851 -25.946978 
L -50.762983 -25.831456 
L -50.406614 -32.546868 
L -50.821384 -30.209213 
L -51.562314 -29.471256 
L -52.342521 -30.037483 
L -51.427414 -27.209401 
L -52.094864 -25.825271 
L -55.206623 -27.865372 
L -57.579443 -31.846553 
L -56.764005 -33.073921 
L -53.284806 -30.635698 
L -52.100913 -31.415948 
L -51.391181 -32.517998 
L -51.427414 -33.498341 
L -54.5593 -35.633837 
L -53.707629 -35.93707 
L -53.624066 -37.06955 
L -54.189843 -36.170167 
L -54.30662 -37.321201 
L -56.165014 -36.724024 
L -54.450576 -39.341708 
L -56.420712 -38.786824 
L -57.102264 -40.280278 
L -58.369707 -39.85122 
L -58.875078 -41.412758 
L -59.128772 -40.625804 
L -59.390519 -41.586034 
L -60.234137 -40.892929 
L -62.016019 -41.490626 
L -60.687169 -38.35466 
L -62.254621 -40.212207 
L -61.516696 -37.84876 
L -63.973079 -41.931547 
L -62.438842 -42.191461 
L -62.108637 -42.977388 
L -63.722404 -42.254374 
L -62.475088 -45.119589 
L -63.221065 -45.482643 
L -62.54555 -47.045207 
L -62.698573 -47.320077 
L -65.241537 -41.837178 
L -66.348918 -43.226466 
L -64.311325 -44.362026 
L -65.745894 -46.565099 
L -66.458644 -46.05816 
L -67.059652 -47.796586 
L -68.119728 -49.136878 
L -66.929786 -43.575591 
L -71.260669 -49.164215 
z
" clip-path="url(#p6083b603f0)" style="fill: #eeeeee; stroke: #000000; stroke-width: 0.3"/>
    <path d="M 1.983733 56.816371 
L 2.151848 52.387044 
L 3.510907 54.385879 
L 4.016278 53.701557 
L 3.886413 55.298151 
z
" clip-path="url(#p6083b603f0)" style="fill: #eeeeee; stroke: #000000; stroke-width: 0.3"/>
    <path d="M -0.794802 75.191724 
L 0.373999 74.043783 
L 1.559895 75.837378 
L 1.349498 77.662949 
L 0.706208 75.273204 
z
" clip-path="url(#p6083b603f0)" style="fill: #eeeeee; stroke: #000000; stroke-width: 0.3"/>
    <path d="M -1.664596 64.11659 
L -1.580031 62.810847 
L -0.643796 65.760115 
L -1.607221 64.841658 
L -1.401847 64.683856 
z
" clip-path="url(#p6083b603f0)" style="fill: #eeeeee; stroke: #000000; stroke-width: 0.3"/>
    <path d="M -8.44142 6.585004 
L -8.436757 4.354417 
L -6.622662 4.276029 
L -7.054751 7.582039 
L -7.350442 7.870558 
z
" clip-path="url(#p6083b603f0)" style="fill: #eeeeee; stroke: #000000; stroke-width: 0.3"/>
    <path d="M -57.615688 -26.032576 
L -55.913336 -26.480722 
L -54.420379 -25.998547 
L -54.550245 -23.684084 
L -55.622395 -23.553101 
z
" clip-path="url(#p6083b603f0)" style="fill: #eeeeee; stroke: #000000; stroke-width: 0.3"/>
    <path d="M 4.354537 75.153564 
L 5.091447 75.89204 
L 4.768292 76.473742 
L 4.412925 76.38917 
z
" clip-path="url(#p6083b603f0)" style="fill: #eeeeee; stroke: #000000; stroke-width: 0.3"/>
    <path d="M 4.114933 55.713294 
L 4.608231 54.81855 
L 4.608231 55.730315 
L 4.378696 55.956187 
z
" clip-path="url(#p6083b603f0)" style="fill: #eeeeee; stroke: #000000; stroke-width: 0.3"/>
    <path d="M 3.680036 59.68004 
L 6.402186 61.75005 
L 6.390113 61.937255 
L 4.161248 62.481823 
z
" clip-path="url(#p6083b603f0)" style="fill: #eeeeee; stroke: #000000; stroke-width: 0.3"/>
    <path d="M 2.834402 63.770557 
L 5.130711 64.157336 
L 4.869978 67.065871 
L 3.596486 66.590907 
z
" clip-path="url(#p6083b603f0)" style="fill: #eeeeee; stroke: #000000; stroke-width: 0.3"/>
    <path d="M 0.292452 67.766706 
L 1.690775 63.636988 
L 1.755201 67.317014 
L 0.431373 68.080763 
z
" clip-path="url(#p6083b603f0)" style="fill: #eeeeee; stroke: #000000; stroke-width: 0.3"/>
    <path d="M -1.26493 58.471758 
L -0.855207 57.430048 
L -0.121303 58.583148 
L -0.051843 59.341231 
z
" clip-path="url(#p6083b603f0)" style="fill: #eeeeee; stroke: #000000; stroke-width: 0.3"/>
    <path d="M -3.120305 81.124315 
L -2.847486 80.179547 
L -2.450839 80.822628 
L -2.863593 81.353279 
z
" clip-path="url(#p6083b603f0)" style="fill: #eeeeee; stroke: #000000; stroke-width: 0.3"/>
    <path d="M -46.41399 10.392719 
L -43.043515 7.592482 
L -43.445197 9.451576 
L -46.252914 12.44159 
z
" clip-path="url(#p6083b603f0)" style="fill: #eeeeee; stroke: #000000; stroke-width: 0.3"/>
    <path d="M -55.665679 -33.852624 
L -54.652932 -34.668462 
L -51.596543 -32.901164 
L -53.674402 -31.123551 
z
" clip-path="url(#p6083b603f0)" style="fill: #eeeeee; stroke: #000000; stroke-width: 0.3"/>
    <path d="M 4.149162 74.106696 
L 4.738096 72.675114 
L 4.946489 74.358866 
z
" clip-path="url(#p6083b603f0)" style="fill: #eeeeee; stroke: #000000; stroke-width: 0.3"/>
    <path d="M 3.602522 73.854512 
L 3.832057 73.7488 
L 3.694138 74.209835 
z
" clip-path="url(#p6083b603f0)" style="fill: #eeeeee; stroke: #000000; stroke-width: 0.3"/>
    <path d="M 1.420975 62.334857 
L 1.530701 62.259043 
L 1.823659 62.59012 
z
" clip-path="url(#p6083b603f0)" style="fill: #eeeeee; stroke: #000000; stroke-width: 0.3"/>
    <path d="M 1.307216 45.700503 
L 2.409562 47.489459 
L 1.983733 49.524402 
z
" clip-path="url(#p6083b603f0)" style="fill: #eeeeee; stroke: #000000; stroke-width: 0.3"/>
    <path d="M 1.165264 61.500972 
L 1.475343 61.465384 
L 1.292111 62.044513 
z
" clip-path="url(#p6083b603f0)" style="fill: #eeeeee; stroke: #000000; stroke-width: 0.3"/>
    <path d="M 1.095804 54.547292 
L 1.833728 54.429198 
L 1.470308 54.822681 
z
" clip-path="url(#p6083b603f0)" style="fill: #eeeeee; stroke: #000000; stroke-width: 0.3"/>
    <path d="M 0.968957 70.36273 
L 1.729025 70.276092 
L 1.307216 71.054795 
z
" clip-path="url(#p6083b603f0)" style="fill: #eeeeee; stroke: #000000; stroke-width: 0.3"/>
    <path d="M 0.594465 79.912941 
L 0.992115 80.134175 
L 0.631713 80.333229 
z
" clip-path="url(#p6083b603f0)" style="fill: #eeeeee; stroke: #000000; stroke-width: 0.3"/>
    <path d="M 0.461582 84.002939 
L 1.222651 84.262853 
L 0.546146 85.914109 
z
" clip-path="url(#p6083b603f0)" style="fill: #eeeeee; stroke: #000000; stroke-width: 0.3"/>
    <path d="M -0.175672 86.952726 
L 1.813589 86.346273 
L -0.101176 88.403901 
z
" clip-path="url(#p6083b603f0)" style="fill: #eeeeee; stroke: #000000; stroke-width: 0.3"/>
    <path d="M -1.561921 88.647314 
L -1.182382 88.62772 
L -1.525675 89.046463 
z
" clip-path="url(#p6083b603f0)" style="fill: #eeeeee; stroke: #000000; stroke-width: 0.3"/>
    <path d="M -2.425678 57.170134 
L -0.812925 55.682864 
L -1.74916 57.689962 
z
" clip-path="url(#p6083b603f0)" style="fill: #eeeeee; stroke: #000000; stroke-width: 0.3"/>
    <path d="M -2.769973 38.494652 
L -2.757887 37.61177 
L -2.517281 37.630337 
z
" clip-path="url(#p6083b603f0)" style="fill: #eeeeee; stroke: #000000; stroke-width: 0.3"/>
    <path d="M -3.192784 75.743516 
L -2.84145 74.733263 
L -2.348152 74.798761 
z
" clip-path="url(#p6083b603f0)" style="fill: #eeeeee; stroke: #000000; stroke-width: 0.3"/>
    <path d="M -3.789771 51.051898 
L -3.573325 50.877595 
L -3.385071 51.279836 
z
" clip-path="url(#p6083b603f0)" style="fill: #eeeeee; stroke: #000000; stroke-width: 0.3"/>
    <path d="M -3.86225 54.039339 
L -3.608556 53.56335 
L -3.608556 54.290483 
z
" clip-path="url(#p6083b603f0)" style="fill: #eeeeee; stroke: #000000; stroke-width: 0.3"/>
    <path d="M -6.070975 15.572385 
L -5.805208 16.318605 
L -5.903863 16.689389 
z
" clip-path="url(#p6083b603f0)" style="fill: #eeeeee; stroke: #000000; stroke-width: 0.3"/>
    <path d="M -6.170644 62.776805 
L -5.729711 62.520503 
L -5.811245 63.15636 
z
" clip-path="url(#p6083b603f0)" style="fill: #eeeeee; stroke: #000000; stroke-width: 0.3"/>
    <path d="M -8.626013 63.631323 
L -8.1891 63.913404 
L -8.441792 63.809238 
z
" clip-path="url(#p6083b603f0)" style="fill: #eeeeee; stroke: #000000; stroke-width: 0.3"/>
    <path d="M -42.267341 12.787623 
L -41.25358 11.277654 
L -41.291829 12.982558 
z
" clip-path="url(#p6083b603f0)" style="fill: #eeeeee; stroke: #000000; stroke-width: 0.3"/>
    <path d="M -54.897558 24.28923 
L -54.643864 24.170629 
L -54.890507 24.713143 
z
" clip-path="url(#p6083b603f0)" style="fill: #eeeeee; stroke: #000000; stroke-width: 0.3"/>
    <path d="M -58.621384 -39.695991 
L -57.434473 -38.859014 
L -57.271381 -37.06955 
z
" clip-path="url(#p6083b603f0)" style="fill: #eeeeee; stroke: #000000; stroke-width: 0.3"/>
    <path d="M -58.967696 34.932213 
L -58.776423 33.803346 
L -58.721053 34.784209 
z
" clip-path="url(#p6083b603f0)" style="fill: #eeeeee; stroke: #000000; stroke-width: 0.3"/>
    <path d="M -64.693883 -41.364281 
L -63.423409 -39.094176 
L -63.296562 -38.108674 
z
" clip-path="url(#p6083b603f0)" style="fill: #eeeeee; stroke: #000000; stroke-width: 0.3"/>
   </g>
   <g id="PatchCollection_2">
    <path d="M 51.606839 41.56915 
L 55.124053 40.752438 
L 54.438765 39.938033 
L 56.371901 38.770928 
L 59.284384 33.204953 
L 67.98091 30.133953 
L 71.050003 31.437605 
L 74.660565 30.629093 
L 79.185899 31.184471 
L 82.016563 30.177183 
L 84.517356 30.927738 
L 85.426389 33.038926 
L 87.121071 31.370155 
L 89.019681 34.357964 
L 91.436726 33.669308 
L 94.044919 34.650069 
L 95.970386 36.732767 
L 98.067158 36.809722 
L 99.060583 35.073159 
L 96.889636 31.115374 
L 99.354641 31.066909 
L 100.057829 29.536003 
L 102.397534 29.840212 
L 103.551403 28.270005 
L 107.193275 31.786033 
L 108.760751 31.694338 
L 113.135858 28.166524 
L 114.71484 28.864685 
L 116.01958 26.822265 
L 113.539878 34.233203 
L 117.057736 42.107507 
L 115.277388 48.151919 
L 116.57254 53.414002 
L 116.042589 56.453558 
L 114.726344 57.87936 
L 112.203173 57.225075 
L 105.890464 61.469719 
L 102.085575 61.482164 
L 102.479352 65.382309 
L 97.402331 64.008254 
L 96.396128 65.62595 
L 94.797973 65.853204 
L 95.287015 70.099495 
L 99.194827 73.095175 
L 99.405138 76.728105 
L 96.362245 75.086836 
L 95.71084 75.952329 
L 94.154881 73.575562 
L 89.919127 74.242292 
L 88.773558 75.815769 
L 85.804827 74.446302 
L 84.982103 75.245651 
L 85.366293 77.691846 
L 83.040023 79.713303 
L 79.482519 79.754556 
L 78.279427 81.177735 
L 75.561346 79.219836 
L 71.797242 78.993444 
L 70.81771 77.583523 
L 70.250932 79.55246 
L 67.817706 80.098587 
L 66.309657 78.625752 
L 67.119046 77.239556 
L 68.620056 77.056483 
L 69.036842 75.106113 
L 68.44489 72.966485 
L 66.693217 71.710765 
L 65.895889 71.84948 
L 65.074415 75.239162 
L 61.667706 75.277843 
L 60.813005 70.975369 
L 61.981793 69.741828 
L 60.897569 68.104995 
L 62.256628 68.372133 
L 60.559311 66.106667 
L 60.474746 66.893114 
L 59.538498 66.712614 
L 60.635822 65.854497 
L 59.713677 65.681221 
L 59.931125 64.865383 
L 60.924747 64.797832 
L 61.151263 64.548741 
L 59.882794 64.722017 
L 58.777429 63.250729 
L 59.713677 64.722017 
L 59.538498 66.546562 
L 56.388515 59.34118 
L 57.156907 55.572666 
L 53.746451 52.719769 
L 53.793112 48.475455 
L 51.789663 44.938465 
z
" clip-path="url(#p6083b603f0)" style="fill: #ff6b6b; stroke: #dd0000; stroke-width: 0.5"/>
    <path d="M 69.296573 80.352823 
L 70.069729 80.308997 
L 69.930796 80.698855 
z
" clip-path="url(#p6083b603f0)" style="fill: #ff6b6b; stroke: #dd0000; stroke-width: 0.5"/>
    <path d="M 63.676092 78.681454 
L 64.0526 78.623179 
L 64.101934 79.538025 
z
" clip-path="url(#p6083b603f0)" style="fill: #ff6b6b; stroke: #dd0000; stroke-width: 0.5"/>
    <path d="M 62.555623 76.785226 
L 63.132471 76.587198 
L 63.531122 77.921824 
z
" clip-path="url(#p6083b603f0)" style="fill: #ff6b6b; stroke: #dd0000; stroke-width: 0.5"/>
    <path d="M 60.048905 67.262352 
L 60.72844 67.845081 
L 60.474746 68.372133 
z
" clip-path="url(#p6083b603f0)" style="fill: #ff6b6b; stroke: #dd0000; stroke-width: 0.5"/>
    <path d="M 59.967358 68.372133 
L 60.635822 70.308055 
L 60.193874 70.540645 
z
" clip-path="url(#p6083b603f0)" style="fill: #ff6b6b; stroke: #dd0000; stroke-width: 0.5"/>
   </g>
  </g>
 </g>
 <defs>
  <clipPath id="p6083b603f0">
   <rect x="0" y="0" width="168.664575" height="108"/>
  </clipPath>
 </defs>
</svg>
