<?xml version="1.0" encoding="utf-8" standalone="no"?>
<!DOCTYPE svg PUBLIC "-//W3C//DTD SVG 1.1//EN"
  "http://www.w3.org/Graphics/SVG/1.1/DTD/svg11.dtd">
<svg xmlns:xlink="http://www.w3.org/1999/xlink" width="171.37324pt" height="108pt" viewBox="0 0 171.37324 108" xmlns="http://www.w3.org/2000/svg" version="1.1">
 <metadata>
  <rdf:RDF xmlns:dc="http://purl.org/dc/elements/1.1/" xmlns:cc="http://creativecommons.org/ns#" xmlns:rdf="http://www.w3.org/1999/02/22-rdf-syntax-ns#">
   <cc:Work>
    <dc:type rdf:resource="http://purl.org/dc/dcmitype/StillImage"/>
    <dc:date>2025-09-05T15:49:27.661201</dc:date>
    <dc:format>image/svg+xml</dc:format>
    <dc:creator>
     <cc:Agent>
      <dc:title>Matplotlib v3.10.3, https://matplotlib.org/</dc:title>
     </cc:Agent>
    </dc:creator>
   </cc:Work>
  </rdf:RDF>
 </metadata>
 <defs>
  <style type="text/css">*{stroke-linejoin: round; stroke-linecap: butt}</style>
 </defs>
 <g id="figure_1">
  <g id="patch_1">
   <path d="M 0 108 
L 171.37324 108 
L 171.37324 0 
L 0 0 
z
" style="fill: #ffffff"/>
  </g>
  <g id="axes_1">
   <g id="PatchCollection_1">
    <path d="M 140.888533 48.938553 
L 141.419913 48.273318 
L 141.075025 47.657898 
L 142.862683 46.821953 
L 143.43354 44.522317 
L 143.960074 43.827409 
L 143.97824 42.416955 
L 144.82133 41.715209 
L 145.293131 40.205234 
L 148.815401 39.578217 
L 149.176032 40.704285 
L 152.552018 44.015209 
L 154.682867 43.418961 
L 158.501104 43.472935 
L 159.204302 44.720565 
L 162.947794 44.752994 
L 163.275833 43.78663 
L 165.943821 42.687178 
L 166.556822 41.965158 
L 166.564087 41.286124 
L 168.42731 40.282652 
L 171.953212 42.863867 
L 173.823705 42.676185 
L 176.169139 40.548475 
L 177.472402 38.462895 
L 179.758744 36.446667 
L 179.374619 35.381529 
L 179.372679 33.512075 
L 178.125367 32.11017 
L 181.239534 32.096371 
L 181.16978 31.087768 
L 183.407441 31.115121 
L 182.816965 34.003556 
L 183.083138 38.068365 
L 184.213955 38.509052 
L 186.724571 40.736156 
L 186.988325 42.246859 
L 186.557941 43.927535 
L 187.445025 44.138415 
L 187.637897 48.051569 
L 186.976702 48.907783 
L 185.950752 49.269705 
L 185.334602 48.835374 
L 183.529026 48.859306 
L 183.185587 49.304142 
L 183.294578 50.345836 
L 182.379073 51.403644 
L 182.700227 51.967288 
L 185.782908 52.632773 
L 187.144302 53.80109 
L 187.271211 54.555709 
L 187.963896 54.94816 
L 188.429399 55.832455 
L 189.474236 56.258119 
L 189.573053 56.906261 
L 190.411052 57.227404 
L 191.68065 61.111129 
L 192.262891 62.248313 
L 193.028236 62.770927 
L 193.147881 63.422121 
L 193.999932 63.154342 
L 195.569368 63.687093 
L 195.323297 65.8783 
L 196.116247 66.988981 
L 195.265907 66.696949 
L 195.082948 67.1318 
L 194.66243 66.985758 
L 194.247831 66.227514 
L 194.475872 65.642212 
L 193.656999 65.537696 
L 193.729555 65.046461 
L 192.952146 65.2764 
L 188.90023 66.985077 
L 184.726447 71.098487 
L 183.197698 71.0356 
L 182.413948 70.456815 
L 181.28531 71.007392 
L 179.482636 71.18677 
L 178.620175 71.715613 
L 178.527414 72.220888 
L 177.412097 71.81391 
L 176.699066 70.783327 
L 175.507939 71.541121 
L 173.71641 70.931321 
L 172.792914 71.431468 
L 172.301249 72.325045 
L 171.867233 71.452352 
L 170.96045 71.784846 
L 170.828207 70.5418 
L 169.25393 70.123342 
L 168.040035 68.457193 
L 167.372058 68.172931 
L 167.413714 67.288144 
L 166.18723 66.793488 
L 165.824416 66.75173 
L 164.71685 68.305783 
L 162.533444 67.297789 
L 160.668041 68.579058 
L 159.226002 67.935066 
L 159.058641 67.316475 
L 157.926371 67.100099 
L 157.833366 66.240713 
L 156.717805 65.556547 
L 155.545575 63.960614 
L 155.529589 62.460412 
L 154.886311 61.557062 
L 153.457348 60.962162 
L 153.25778 60.549806 
L 151.610356 60.121822 
L 152.004651 59.493217 
L 150.885701 58.263601 
L 151.390924 57.376863 
L 150.046731 56.540185 
L 149.741565 55.754063 
L 146.619884 54.152512 
L 145.824994 53.369807 
L 145.706802 52.997871 
L 146.242058 52.621781 
L 145.948997 51.65494 
L 145.209814 51.503529 
L 143.995923 50.160598 
L 140.962163 49.510259 
z
" clip-path="url(#pc531deb312)" style="fill: #eeeeee; stroke: #000000; stroke-width: 0.3"/>
    <path d="M 165.197125 112.070915 
L 165.573986 109.848084 
L 167.114359 109.912067 
L 168.380564 109.007502 
L 169.827449 106.729478 
L 170.154901 106.722148 
L 170.392499 105.604629 
L 172.114762 104.294178 
L 172.266858 103.81308 
L 172.235377 102.895326 
L 170.655766 102.729747 
L 170.315237 102.295534 
L 170.815614 101.339685 
L 170.298041 101.43786 
L 170.7478 100.461004 
L 172.277033 99.902734 
L 172.527463 98.660661 
L 172.101681 97.936812 
L 172.26129 96.352845 
L 171.823154 95.466839 
L 170.969167 95.049724 
L 170.620887 93.824257 
L 171.359592 93.891662 
L 172.008676 93.477964 
L 187.113781 93.557088 
L 204.19643 103.21378 
L 204.455094 104.482223 
L 203.916933 104.948184 
L 203.98184 105.422935 
L 204.493845 105.487896 
L 204.787388 106.094035 
L 211.555802 110.976836 
L 211.548551 111.769474 
L 211.056911 112.054068 
L 210.943631 112.674024 
L 211.216721 112.901317 
L 209.512189 117.433302 
L 210.149532 119.23779 
L 210.739193 119.395855 
L 211.860167 120.610386 
L 211.861311 121.098813 
L 212.72483 121.227266 
L 213.14286 121.90337 
L 213.113872 122.458715 
L 212.084056 123.361347 
L 211.731632 125.790786 
L 212.084056 125.332358 
L 212.626426 125.834633 
L 212.677152 126.674959 
L 211.860167 128.087166 
L 212.208397 129.999719 
L 213.14286 130.984268 
L 212.653886 130.683522 
L 212.369351 130.873504 
L 212.852986 131.060415 
L 212.884261 131.93843 
L 213.215327 131.791136 
L 213.56508 132.244947 
L 213.206933 133.466401 
L 213.597503 133.453324 
L 214.020107 134.50248 
L 213.814146 134.871685 
L 214.300064 135.244736 
L 213.785158 136.282356 
L 214.423261 136.031604 
L 215.164727 137.121524 
L 215.327209 136.705402 
L 215.856226 136.879236 
L 215.799779 137.358817 
L 216.322315 137.479193 
L 216.322315 137.024607 
L 216.869259 137.769557 
L 217.2358 137.495346 
L 217.281951 138.321055 
L 215.272584 139.910519 
L 212.884036 140.758917 
L 211.781556 141.591195 
L 210.061472 141.59559 
L 208.167977 142.757069 
L 207.063556 142.112835 
L 205.570656 142.14507 
L 205.002944 143.324621 
L 203.375378 144.203302 
L 201.83791 143.991812 
L 201.325906 143.472614 
L 200.330964 143.513644 
L 199.419817 144.212096 
L 197.423142 144.118317 
L 197.274917 143.538067 
L 195.673513 142.757069 
L 194.501279 143.663103 
L 191.634635 143.513644 
L 191.268915 142.577331 
L 190.70169 142.434219 
L 189.989147 141.28593 
L 190.277362 139.633094 
L 189.837046 138.627908 
L 189.62779 136.280527 
L 188.60378 134.750288 
L 187.173364 133.607859 
L 186.700593 134.744428 
L 185.869858 134.111915 
L 184.484248 134.288722 
L 183.834193 133.677702 
L 180.168057 132.571902 
L 179.724592 132.031217 
L 177.449877 131.643402 
L 177.443095 131.032868 
L 176.205953 130.940559 
L 175.579633 129.950514 
L 174.709177 129.400547 
L 173.418025 129.538281 
L 172.863633 129.227156 
L 170.436334 124.717997 
L 169.746555 122.606038 
L 168.792299 121.380089 
L 166.993261 120.100895 
L 166.142664 118.464665 
L 165.911126 117.184011 
L 166.55004 115.776856 
z
" clip-path="url(#pc531deb312)" style="fill: #eeeeee; stroke: #000000; stroke-width: 0.3"/>
    <path d="M 211.44023 116.768734 
L 211.860167 116.427223 
L 212.016927 115.843414 
L 212.499798 118.081718 
L 212.895702 118.101335 
L 212.884261 117.759049 
L 213.094802 118.692062 
L 212.930792 119.361243 
L 212.499798 118.598222 
L 212.439151 118.940121 
L 211.478371 118.217477 
z
" clip-path="url(#pc531deb312)" style="fill: #eeeeee; stroke: #000000; stroke-width: 0.3"/>
    <path d="M 213.561649 114.404671 
L 213.657766 113.805485 
L 214.207762 113.579345 
L 213.998749 113.582421 
L 213.593688 113.350133 
L 214.044516 113.417816 
L 213.753883 111.929845 
L 214.398088 112.419043 
L 214.559427 111.962538 
L 214.278706 114.37083 
z
" clip-path="url(#pc531deb312)" style="fill: #eeeeee; stroke: #000000; stroke-width: 0.3"/>
    <path d="M 213.299619 126.368055 
L 214.745553 124.913159 
L 214.734877 125.463505 
L 214.406098 126.21922 
L 213.499099 126.558425 
z
" clip-path="url(#pc531deb312)" style="fill: #eeeeee; stroke: #000000; stroke-width: 0.3"/>
    <path d="M 213.244732 114.312768 
L 213.604318 114.579281 
L 213.640078 114.697554 
L 213.431609 114.640036 
z
" clip-path="url(#pc531deb312)" style="fill: #eeeeee; stroke: #000000; stroke-width: 0.3"/>
    <path d="M 213.84154 127.057571 
L 213.841559 126.857248 
L 214.304108 126.656793 
z
" clip-path="url(#pc531deb312)" style="fill: #eeeeee; stroke: #000000; stroke-width: 0.3"/>
    <path d="M 211.552582 116.121963 
L 211.662488 116.493729 
L 211.552854 116.50346 
z
" clip-path="url(#pc531deb312)" style="fill: #eeeeee; stroke: #000000; stroke-width: 0.3"/>
    <path d="M 79.851657 107.423979 
L 80.313345 106.291848 
L 81.579067 105.403399 
L 82.540109 106.298686 
L 83.561208 106.037863 
L 83.183869 105.695965 
L 83.743342 104.429473 
L 82.539621 103.804777 
L 82.965403 103.023292 
L 82.301785 102.208598 
L 81.804797 102.366847 
L 82.243659 101.261048 
L 81.970944 99.828978 
L 82.860775 100.232421 
L 83.715249 99.826048 
L 84.296037 100.231934 
L 86.156593 99.829956 
L 86.346474 98.722205 
L 86.00498 97.722884 
L 86.284473 97.91581 
L 86.967953 97.444481 
L 87.774955 97.888462 
L 88.72921 99.577442 
L 88.545624 100.0307 
L 90.841654 100.355018 
L 92.17398 98.72953 
L 92.937867 99.971112 
L 92.654982 100.475659 
L 93.799606 100.62707 
L 94.476305 99.948158 
L 94.071351 99.333225 
L 94.5262 98.151723 
L 95.239709 97.830339 
L 95.480939 96.788036 
L 95.087613 96.437343 
L 95.54827 96.137938 
L 95.663555 95.479537 
L 95.21404 93.655262 
L 95.674213 91.659062 
L 94.880288 90.919585 
L 94.126088 90.969891 
L 93.824797 90.126379 
L 92.586686 89.789854 
L 93.008109 89.069422 
L 92.774144 87.89085 
L 93.120971 87.163092 
L 93.733728 86.269761 
L 94.918556 85.883411 
L 95.571521 84.503363 
L 94.703488 83.478399 
L 94.559622 82.529875 
L 94.054882 82.242555 
L 92.415692 82.040224 
L 91.23789 82.753572 
L 89.394769 82.880564 
L 89.868506 82.497636 
L 89.298375 81.293421 
L 89.450959 79.840842 
L 90.071468 78.606339 
L 95.406827 78.7431 
L 96.012319 78.380686 
L 96.962216 79.058137 
L 97.394297 78.81954 
L 97.560444 79.337272 
L 99.061096 79.180243 
L 99.64576 79.738636 
L 100.327788 79.481599 
L 101.376984 79.68894 
L 102.816118 80.448199 
L 103.078663 81 
L 103.496693 80.620734 
L 103.055412 79.466949 
L 103.153258 78.662511 
L 103.724841 78.313282 
L 104.996862 75.415202 
L 104.93292 73.902056 
L 105.55634 72.27083 
L 108.362434 71.892547 
L 109.588918 71.294467 
L 111.155448 71.723429 
L 111.385054 72.089014 
L 112.509333 71.978874 
L 112.975801 72.385611 
L 113.28969 71.924782 
L 114.337434 71.654683 
L 115.060635 72.388054 
L 114.99815 74.035886 
L 112.464284 78.611226 
L 112.459438 81.487204 
L 111.499853 84.01469 
L 111.869445 87.0361 
L 110.795544 89.744429 
L 110.951033 91.29274 
L 108.881704 93.615702 
L 107.543805 94.003513 
L 106.656397 94.816254 
L 105.160103 97.738512 
L 103.663327 99.131017 
L 103.808641 104.47685 
L 102.339475 107.332194 
L 100.566107 107.996456 
L 100.215408 108.733003 
L 99.020405 109.324491 
L 97.273199 111.574184 
L 96.530623 111.975184 
L 95.814203 111.698242 
L 95.255696 111.91071 
L 95.021736 110.364351 
L 95.579273 109.751374 
L 95.191754 109.03192 
L 93.117578 110.07618 
L 92.041742 109.863225 
L 92.030114 110.962673 
L 90.531158 111.906315 
L 89.217481 110.448849 
L 88.818339 110.615401 
L 88.081092 109.66932 
L 87.573933 109.571146 
L 86.92775 110.365325 
L 85.818 110.583653 
L 85.512833 111.399816 
L 84.904918 111.33046 
L 84.049118 112.540978 
L 83.161447 111.431209 
L 83.096765 110.449742 
z
" clip-path="url(#pc531deb312)" style="fill: #eeeeee; stroke: #000000; stroke-width: 0.3"/>
    <path d="M 85.172403 116.364918 
L 85.217837 115.929731 
L 86.389588 115.880398 
L 86.491311 113.217007 
L 86.08684 112.708556 
L 87.185932 112.090452 
L 87.767203 111.218609 
L 88.99708 110.860104 
L 89.103166 110.46106 
L 90.531158 111.906315 
L 92.030114 110.962673 
L 92.041742 109.863225 
L 93.117578 110.07618 
L 95.191754 109.03192 
L 95.579273 109.751374 
L 95.021736 110.364351 
L 95.255696 111.91071 
L 95.814203 111.698242 
L 96.530623 111.975184 
L 97.273199 111.574184 
L 99.020405 109.324491 
L 100.215408 108.733003 
L 100.566107 107.996456 
L 102.339475 107.332194 
L 103.808641 104.47685 
L 103.663327 99.131017 
L 105.160103 97.738512 
L 106.656397 94.816254 
L 107.543805 94.003513 
L 108.881704 93.615702 
L 110.951033 91.29274 
L 110.795544 89.744429 
L 111.869445 87.0361 
L 111.499853 84.01469 
L 112.459438 81.487204 
L 112.464284 78.611226 
L 114.99815 74.035886 
L 115.155093 69.698529 
L 114.664886 68.366467 
L 115.655469 68.022617 
L 117.202141 65.618455 
L 118.728468 64.573832 
L 120.6767 64.731717 
L 123.087046 66.267943 
L 124.218107 67.954603 
L 125.583128 67.773273 
L 127.173879 68.537906 
L 129.640898 68.529361 
L 132.293444 69.307543 
L 133.264652 69.011924 
L 133.648777 67.677178 
L 134.103622 67.592312 
L 135.082582 66.023727 
L 137.50165 67.123666 
L 138.314946 66.447317 
L 141.460604 65.521382 
L 142.114051 65.01977 
L 142.103394 64.612054 
L 143.669923 65.579869 
L 146.374296 65.037472 
L 146.636836 63.722381 
L 147.480896 63.416507 
L 149.201462 64.386155 
L 150.548561 64.063429 
L 151.974618 64.965673 
L 153.084851 64.743928 
L 153.683079 65.012563 
L 154.651381 64.229126 
L 155.720923 64.566261 
L 157.794133 66.192604 
L 157.926371 67.100099 
L 159.058641 67.316475 
L 159.226002 67.935066 
L 160.780904 68.614833 
L 162.533444 67.297789 
L 164.71685 68.305783 
L 165.824416 66.75173 
L 166.57862 66.88385 
L 167.413714 67.288144 
L 167.372058 68.172931 
L 168.040035 68.457193 
L 169.25393 70.123342 
L 170.828207 70.5418 
L 170.911524 71.745163 
L 171.867233 71.452352 
L 172.301249 72.325045 
L 172.567671 72.184381 
L 172.631608 72.782457 
L 171.852704 74.379491 
L 172.366162 75.334612 
L 171.696727 77.2639 
L 172.452385 77.798238 
L 172.903353 77.451453 
L 173.312183 77.995806 
L 173.885463 77.935972 
L 174.325534 78.880716 
L 170.608054 82.965549 
L 169.485955 83.450559 
L 169.092142 84.524852 
L 168.119476 84.922189 
L 168.087507 86.464153 
L 166.974852 88.476473 
L 166.279265 93.207377 
L 166.388252 95.380389 
L 164.773284 96.657622 
L 164.291312 97.530443 
L 164.311653 99.20526 
L 163.0532 100.123014 
L 163.010574 100.720357 
L 163.170422 101.355314 
L 163.813699 101.790992 
L 163.655787 102.115797 
L 164.779339 103.21671 
L 164.687544 107.249162 
L 165.270755 108.163008 
L 165.605472 110.096203 
L 165.197125 112.070915 
L 166.55004 115.776856 
L 165.911126 117.184011 
L 166.199824 118.650267 
L 166.993261 120.100895 
L 168.792299 121.380089 
L 169.746555 122.606038 
L 171.891454 127.543059 
L 163.160251 128.908702 
L 163.178657 130.24455 
L 160.64479 132.636863 
L 161.4111 133.139454 
L 162.266544 135.094138 
L 161.663958 137.115248 
L 162.271869 139.116827 
L 161.591298 140.023343 
L 160.681605 143.324621 
L 161.373076 144.927642 
L 162.513098 145.492259 
L 163.844215 147.319469 
L 166.021566 147.670158 
L 165.902404 146.675718 
L 167.425825 146.257138 
L 167.345901 152.408142 
L 166.573291 152.245498 
L 166.815974 151.58368 
L 166.371782 151.319927 
L 164.542712 152.319249 
L 163.651423 152.125831 
L 162.311106 149.733763 
L 161.537044 149.714226 
L 160.974178 147.99252 
L 158.79925 147.267206 
L 158.32115 146.76901 
L 157.297145 146.916513 
L 156.277977 145.160134 
L 155.403645 144.626768 
L 155.150309 143.495086 
L 154.417421 143.617678 
L 154.060905 145.099567 
L 152.981676 145.590434 
L 151.5624 145.112266 
L 149.530851 145.070749 
L 147.845159 144.247748 
L 147.255166 144.472914 
L 146.54916 143.837958 
L 146.386889 141.72356 
L 143.585153 142.343862 
L 142.546615 142.984191 
L 141.623357 142.689669 
L 142.084018 142.122117 
L 141.982296 141.276649 
L 140.827984 141.007523 
L 140.780999 140.421413 
L 140.252525 140.205041 
L 139.466352 140.93768 
L 137.69589 140.618739 
L 135.626072 141.287395 
L 133.22009 141.003619 
L 131.985854 141.982426 
L 131.647744 140.105402 
L 132.369492 139.675097 
L 132.340912 137.819074 
L 131.621587 135.753518 
L 130.304521 134.456743 
L 129.897144 133.270842 
L 130.609205 128.780245 
L 129.718886 126.613093 
L 130.220233 124.120162 
L 129.864205 123.239042 
L 123.938127 123.253206 
L 124.364396 121.502682 
L 122.995982 121.514893 
L 122.87779 121.909055 
L 119.257425 121.909055 
L 119.216739 124.165587 
L 118.478521 124.612985 
L 118.478038 126.635073 
L 114.545724 126.305386 
L 114.504068 126.614071 
L 112.689044 126.731782 
L 112.584899 127.142059 
L 111.506152 126.835816 
L 110.251088 127.091266 
L 108.919001 125.461383 
L 108.265553 123.923327 
L 107.183418 122.866861 
L 107.312268 121.969621 
L 106.35123 120.521432 
L 106.060592 119.371678 
L 106.157473 118.068065 
L 105.34272 116.712681 
L 93.113219 116.425484 
L 90.296228 116.656997 
L 88.204251 116.297612 
L 87.596425 116.537505 
L 87.390801 117.076026 
L 86.110794 117.419427 
L 86.146864 117.087883 
L 85.862698 117.202205 
z
" clip-path="url(#pc531deb312)" style="fill: #eeeeee; stroke: #000000; stroke-width: 0.3"/>
    <path d="M 87.496353 116.891416 
L 87.885512 116.568147 
L 88.665531 116.55137 
z
" clip-path="url(#pc531deb312)" style="fill: #eeeeee; stroke: #000000; stroke-width: 0.3"/>
    <path d="M 95.192724 60.279707 
L 96.997091 58.959856 
L 99.113898 54.568653 
L 100.092858 53.896575 
L 100.319066 53.265527 
L 102.400994 53.431347 
L 104.489216 52.560241 
L 104.589486 52.035179 
L 105.322862 51.626854 
L 105.629964 52.526783 
L 106.418073 53.18103 
L 110.437093 51.083238 
L 114.886736 50.786273 
L 117.39348 47.822253 
L 116.201383 46.998401 
L 116.914414 46.356606 
L 123.53802 45.633977 
L 124.037914 44.766775 
L 124.628872 44.859457 
L 125.370483 44.31095 
L 127.389435 41.675522 
L 127.939707 41.687979 
L 128.590732 40.613318 
L 129.554192 40.159077 
L 129.572115 38.551911 
L 132.96772 36.843272 
L 134.907717 37.21716 
L 136.923768 39.48285 
L 138.580879 42.208032 
L 138.521783 44.97497 
L 137.78163 45.480123 
L 137.600949 46.197256 
L 138.218552 46.405693 
L 137.926944 47.653744 
L 141.265877 47.744594 
L 141.419913 48.273318 
L 140.888533 48.938553 
L 140.962163 49.510259 
L 143.995923 50.160598 
L 145.209814 51.503529 
L 145.948997 51.65494 
L 146.242058 52.621781 
L 145.706802 52.997871 
L 145.824994 53.369807 
L 146.619884 54.152512 
L 149.741565 55.754063 
L 150.046731 56.540185 
L 151.390924 57.376863 
L 150.885701 58.263601 
L 152.004651 59.493217 
L 151.610356 60.121822 
L 153.25778 60.549806 
L 153.457348 60.962162 
L 154.886311 61.557062 
L 155.529589 62.460412 
L 155.545575 63.960614 
L 156.37437 64.855779 
L 154.651381 64.229126 
L 153.683079 65.012563 
L 153.084851 64.743928 
L 151.974618 64.965673 
L 150.548561 64.063429 
L 149.201462 64.386155 
L 147.480896 63.416507 
L 146.636836 63.722381 
L 146.374296 65.037472 
L 143.669923 65.579869 
L 142.103394 64.612054 
L 142.114051 65.01977 
L 141.460604 65.521382 
L 138.314946 66.447317 
L 137.50165 67.123666 
L 135.082582 66.023727 
L 134.103622 67.592312 
L 133.648777 67.677178 
L 133.264652 69.011924 
L 132.293444 69.307543 
L 129.640898 68.529361 
L 127.173879 68.537906 
L 125.583128 67.773273 
L 124.218107 67.954603 
L 123.087046 66.267943 
L 120.6767 64.731717 
L 118.728468 64.573832 
L 117.202141 65.618455 
L 115.655469 68.022617 
L 114.664886 68.366467 
L 115.155093 69.698529 
L 115.060635 72.388054 
L 114.337434 71.654683 
L 113.28969 71.924782 
L 112.975801 72.385611 
L 112.509333 71.978874 
L 111.385054 72.089014 
L 111.155448 71.723429 
L 109.588918 71.294467 
L 107.481321 72.098541 
L 105.748156 72.143597 
L 104.93292 73.902056 
L 104.996862 75.415202 
L 103.593574 78.200212 
L 103.010845 74.926287 
L 102.348197 74.178748 
L 101.746576 74.131371 
L 98.462386 70.45535 
L 98.186282 69.792554 
L 98.954045 69.617576 
L 98.491931 69.340269 
L 98.036117 67.96266 
L 96.739396 66.976282 
L 96.465711 64.412407 
L 95.814203 63.81677 
L 96.271471 62.849319 
L 96.271471 61.102339 
z
" clip-path="url(#pc531deb312)" style="fill: #eeeeee; stroke: #000000; stroke-width: 0.3"/>
    <path d="M 129.979009 28.35856 
L 130.703663 26.918678 
L 132.126327 25.802378 
L 131.223415 23.695792 
L 131.878315 22.862659 
L 133.432739 21.997408 
L 132.88295 21.407149 
L 132.575842 20.089004 
L 134.043073 19.401667 
L 133.960243 18.60565 
L 135.362079 16.978947 
L 135.12182 15.373242 
L 136.002451 14.603604 
L 140.172596 14.523747 
L 140.158067 -5.675638 
L 144.841188 -5.707022 
L 144.844581 -15.126946 
L 174.217513 -15.122305 
L 175.037108 -16.221512 
L 175.358261 -15.967527 
L 175.094268 -15.126946 
L 183.275827 -15.12722 
L 185.05562 -13.774261 
L 187.109544 -14.049469 
L 187.508208 -15.127433 
L 200.628707 -15.128661 
L 200.648541 -13.495508 
L 202.64104 -10.695706 
L 202.354982 -10.451683 
L 202.250855 -11.027217 
L 201.666149 -11.403733 
L 202.242845 -8.367408 
L 201.994928 -7.347482 
L 202.31684 -3.694277 
L 203.209727 -0.317977 
L 203.704039 0.371204 
L 204.336378 0.252751 
L 204.726985 0.783484 
L 205.511733 0.989549 
L 206.432 1.801175 
L 206.217631 2.109214 
L 206.571742 2.576068 
L 207.295801 2.305685 
L 206.879299 2.72546 
L 207.695519 2.694884 
L 208.69101 3.688856 
L 206.954569 5.995812 
L 206.420766 5.901787 
L 206.219257 6.21243 
L 206.04294 5.889576 
L 203.498898 7.004902 
L 203.064882 8.338793 
L 201.049802 8.184694 
L 201.17284 9.226264 
L 200.59544 10.778975 
L 200.959707 11.89088 
L 199.631984 14.514466 
L 199.429988 15.82589 
L 198.479608 17.301187 
L 198.954315 21.412276 
L 198.321213 24.551028 
L 197.129116 27.230171 
L 197.066631 28.699849 
L 195.023454 28.993885 
L 193.287871 31.997218 
L 192.141311 32.965284 
L 192.143247 34.240811 
L 191.539207 35.63832 
L 191.605085 37.291525 
L 191.043672 38.115132 
L 190.649376 38.327846 
L 189.807501 37.382616 
L 188.423587 38.888437 
L 188.641078 40.504397 
L 187.445025 44.138415 
L 186.557941 43.927535 
L 186.988325 42.246859 
L 186.724571 40.736156 
L 184.213955 38.509052 
L 183.083138 38.068365 
L 182.816965 34.003556 
L 183.407441 31.115121 
L 181.16978 31.087768 
L 181.239534 32.096371 
L 178.125367 32.11017 
L 179.372679 33.512075 
L 179.374619 35.381529 
L 179.758744 36.446667 
L 177.472402 38.462895 
L 176.169139 40.548475 
L 173.823705 42.676185 
L 171.953212 42.863867 
L 168.42731 40.282652 
L 166.564087 41.286124 
L 166.556822 41.965158 
L 165.943821 42.687178 
L 163.275833 43.78663 
L 162.947794 44.752994 
L 159.204302 44.720565 
L 158.501104 43.472935 
L 154.682867 43.418961 
L 152.552018 44.015209 
L 149.176032 40.704285 
L 148.815401 39.578217 
L 145.293131 40.205234 
L 144.82133 41.715209 
L 143.97824 42.416955 
L 143.960074 43.827409 
L 143.43354 44.522317 
L 142.862683 46.821953 
L 140.780029 47.791237 
L 137.855742 47.550443 
L 138.218552 46.405693 
L 137.600949 46.197256 
L 137.78163 45.480123 
L 138.521783 44.97497 
L 138.580879 42.208032 
L 136.923768 39.48285 
L 134.907717 37.21716 
L 135.341734 35.64919 
L 135.159605 34.963195 
L 134.489688 34.929736 
L 133.410941 33.843719 
L 133.742265 31.765218 
L 133.019064 31.96547 
L 133.140649 31.33076 
L 132.619439 29.920674 
L 132.960938 29.22149 
L 131.8323 28.596301 
L 131.368251 29.035642 
L 130.571907 29.086927 
z
" clip-path="url(#pc531deb312)" style="fill: #eeeeee; stroke: #000000; stroke-width: 0.3"/>
    <path d="M 202.314933 -9.496945 
L 202.502967 -9.632704 
L 202.366422 -9.240806 
z
" clip-path="url(#pc531deb312)" style="fill: #eeeeee; stroke: #000000; stroke-width: 0.3"/>
    <path d="M -12.631722 58.135144 
L -11.380529 56.894541 
L -11.075362 55.76774 
L -12.007093 53.101419 
L -11.676013 52.84182 
L -10.80507 53.166134 
L -10.055711 50.874192 
L -9.556787 50.940859 
L -9.747395 50.142772 
L -10.978486 49.850078 
L -10.924232 48.90241 
L -9.593841 48.664058 
L -8.149862 49.24101 
L -8.310924 48.059631 
L -9.586333 47.171182 
L -9.412439 46.303001 
L -8.545128 45.925446 
L -9.401781 45.417728 
L -9.100973 44.349537 
L -9.985231 44.447957 
L -10.470596 43.777958 
L -10.546644 41.835604 
L -9.683458 40.795376 
L -8.930467 40.560687 
L -8.159067 39.495062 
L -7.395418 39.393471 
L -6.74827 40.369102 
L -5.119012 40.895138 
L -4.863492 39.931104 
L -3.493381 39.854791 
L -3.494595 38.469488 
L -2.448543 38.951077 
L -2.359658 38.318564 
L -1.557986 38.127712 
L -1.316517 38.585488 
L -1.582934 39.131429 
L -1.20462 39.575041 
L -1.483147 40.370326 
L -0.432981 40.663624 
L 0.213203 39.783724 
L 1.544315 39.415691 
L 2.441898 40.140519 
L 3.692603 40.122934 
L 3.999954 41.040324 
L 4.500331 41.370375 
L 4.487493 42.028654 
L 5.273062 42.305105 
L 5.282506 42.721123 
L 5.823213 43.063386 
L 6.625246 42.765692 
L 6.663879 43.191234 
L 7.275671 43.53179 
L 8.31106 42.41964 
L 10.163386 41.863935 
L 12.21552 42.027189 
L 12.287936 42.311697 
L 12.695556 41.959666 
L 14.590626 44.343922 
L 15.158699 43.977114 
L 15.29021 45.086816 
L 14.757377 46.026919 
L 15.485664 46.647707 
L 16.015835 50.023596 
L 15.526837 50.233494 
L 15.527325 50.823517 
L 14.683387 51.28056 
L 13.976172 53.010815 
L 13.829522 54.722507 
L 12.64784 56.450073 
L 12.471766 57.547691 
L 13.562618 61.861845 
L 13.867064 61.835711 
L 13.955827 62.315348 
L 14.706999 62.377989 
L 14.795889 64.429014 
L 13.049925 64.517434 
L 12.74098 64.156688 
L 13.017506 63.446932 
L 12.473805 63.579037 
L 12.239043 64.623198 
L 10.320919 64.062853 
L 9.823748 64.256299 
L 9.006187 63.930553 
L 10.286021 63.930553 
L 10.347807 63.855942 
L 10.145276 63.459432 
L 9.92959 63.413279 
L 10.215269 63.895171 
L 9.454348 63.543655 
L 9.066454 63.918247 
L 8.427203 63.737107 
L 7.885597 63.848248 
L 7.728458 63.713643 
L 6.888775 63.966124 
L 6.373677 63.772295 
L 5.794693 64.095153 
L 5.858963 63.707877 
L 5.225627 64.337063 
L 8.153733 63.865942 
L 9.035175 64.095153 
L 4.831626 64.582045 
L 4.282774 64.168994 
L 2.82158 64.102077 
L 2.458475 64.51897 
L 3.452437 64.413787 
L 3.257916 64.223994 
L 4.3171 64.582045 
L 0.338584 65.048356 
L -4.591175 66.787273 
L -7.185923 68.289857 
L -7.734255 68.141792 
L -7.743699 64.849427 
L -6.87179 63.691247 
L -7.137963 61.19221 
L -7.36224 61.380132 
L -8.731864 60.661898 
L -9.330574 59.180013 
L -11.661962 58.857282 
L -11.692239 58.331861 
z
" clip-path="url(#pc531deb312)" style="fill: #eeeeee; stroke: #000000; stroke-width: 0.3"/>
    <path d="M 12.406863 64.631851 
L 12.604819 64.41744 
L 13.141467 64.75838 
z
" clip-path="url(#pc531deb312)" style="fill: #eeeeee; stroke: #000000; stroke-width: 0.3"/>
    <path d="M -29.717028 18.995417 
L -28.809031 19.187001 
L -27.637284 18.404543 
L -27.755719 17.085543 
L -27.199874 15.374343 
L -26.674067 15.374343 
L -26.249977 14.89092 
L -23.394718 17.445513 
L -22.505126 15.885237 
L -19.422444 16.208086 
L -16.405392 15.849944 
L -16.535695 15.151497 
L -16.089328 14.633887 
L -16.055419 15.589495 
L 1.933769 15.596333 
L 2.672713 11.731653 
L 1.406991 10.711575 
L -3.138079 -29.298653 
L 5.164558 -29.303052 
L 33.13602 -10.903765 
L 33.1738 -9.188652 
L 35.072629 -8.520974 
L 36.096151 -7.135302 
L 37.469894 -6.70512 
L 38.077322 -6.991708 
L 39.01269 -5.964546 
L 42.754636 -4.849102 
L 43.045269 -2.806622 
L 42.310927 -1.61193 
L 43.158136 -0.951331 
L 47.581139 -1.643678 
L 47.371878 11.239808 
L 46.793513 11.796127 
L 45.906101 14.553784 
L 44.29065 15.58803 
L 44.199581 16.259007 
L 41.980086 15.916493 
L 41.823631 16.329213 
L 34.003087 16.591501 
L 32.326113 17.973137 
L 30.902962 18.216621 
L 28.799479 17.951039 
L 28.786403 18.352526 
L 26.653131 17.621715 
L 25.767171 17.919532 
L 25.569538 17.554188 
L 24.389313 17.561027 
L 22.707497 18.89419 
L 19.809368 20.31307 
L 18.402686 20.433224 
L 18.220552 21.801183 
L 17.677066 21.919749 
L 16.225091 21.330099 
L 15.589083 21.607037 
L 14.324088 22.655077 
L 14.193059 24.303887 
L 13.385696 24.515986 
L 12.357206 24.085923 
L 12.536795 25.999828 
L 11.599857 26.127425 
L 11.595494 26.585692 
L 9.148338 25.555723 
L 9.399737 25.251801 
L 9.103166 25.025416 
L 7.369885 26.824289 
L 8.02224 28.237919 
L 7.807777 28.702292 
L 6.741019 28.731843 
L 7.200344 29.585855 
L 6.898566 30.052062 
L 7.11182 30.656244 
L 6.727334 30.593726 
L 6.388502 31.402805 
L 5.447322 32.078054 
L 3.909855 32.207243 
L 2.395883 32.919613 
L 2.982726 33.248568 
L 3.305333 34.839865 
L 2.770077 36.260579 
L 1.965255 36.491605 
L 2.30651 37.569073 
L 2.071097 39.031057 
L 1.879275 39.550132 
L 0.213203 39.783724 
L -0.432981 40.663624 
L -1.483147 40.370326 
L -1.20462 39.575041 
L -1.582934 39.131429 
L -1.316517 38.585488 
L -1.557986 38.127712 
L -2.359658 38.318564 
L -2.448543 38.951077 
L -3.494595 38.469488 
L -3.493381 39.854791 
L -4.863492 39.931104 
L -5.119012 40.895138 
L -6.74827 40.369102 
L -7.395418 39.393471 
L -8.159067 39.495062 
L -8.930467 40.560687 
L -9.683458 40.795376 
L -9.714456 40.009618 
L -10.804587 39.5599 
L -11.117018 39.021043 
L -11.262581 36.722386 
L -12.102277 36.585625 
L -12.354404 36.969286 
L -12.995014 37.011166 
L -11.490973 35.09763 
L -12.809979 34.489053 
L -13.136945 33.765814 
L -13.702716 33.725762 
L -13.574111 32.049481 
L -14.053659 31.894895 
L -14.305786 30.366849 
L -15.109155 29.909441 
L -16.284777 29.872807 
L -15.867718 30.418625 
L -15.997294 30.834034 
L -17.362797 31.305117 
L -17.807233 31.989161 
L -20.356599 31.079956 
L -21.503402 31.551285 
L -22.439492 32.627293 
L -23.567886 31.072139 
L -24.037508 31.152242 
L -24.688293 32.041178 
L -25.360873 31.985498 
L -26.172233 31.203772 
L -25.613725 30.292365 
L -25.562864 29.839839 
L -25.984775 29.540676 
L -25.614696 27.522619 
L -26.290668 26.855059 
L -26.665832 25.678321 
L -27.266239 25.456207 
L -27.673611 25.931322 
L -28.936671 24.054543 
L -28.305261 23.463547 
L -28.467775 21.872373 
L -29.518307 20.808699 
L -29.252496 19.624267 
z
" clip-path="url(#pc531deb312)" style="fill: #eeeeee; stroke: #000000; stroke-width: 0.3"/>
    <path d="M 40.281318 51.49498 
L 40.741008 46.017151 
L 42.179176 45.83704 
L 42.44414 44.125717 
L 43.37708 43.205397 
L 43.35044 42.497913 
L 44.227678 42.285814 
L 44.585646 41.80276 
L 44.951362 40.868276 
L 44.505718 40.21073 
L 44.879185 39.501413 
L 45.443504 39.634506 
L 45.747706 38.725911 
L 45.244418 37.743805 
L 45.207121 36.304169 
L 44.018417 34.852686 
L 44.948939 33.244906 
L 44.65346 32.555494 
L 44.829777 29.661317 
L 46.177363 28.563088 
L 46.925751 27.401246 
L 47.099168 25.148254 
L 48.884641 24.100578 
L 50.525771 23.72522 
L 52.26329 23.880052 
L 53.641879 23.223361 
L 56.550666 24.355049 
L 57.612456 24.423795 
L 60.275416 27.405154 
L 60.892049 27.401978 
L 61.498994 26.828684 
L 62.40723 26.851642 
L 64.431998 25.751703 
L 65.749551 25.967347 
L 68.440847 27.74461 
L 72.710297 28.322053 
L 75.191849 26.201544 
L 77.794012 25.610793 
L 81.379498 25.661223 
L 84.274239 26.831614 
L 86.219565 27.080226 
L 86.633724 26.236223 
L 87.77786 25.620807 
L 87.951759 25.071937 
L 89.760002 24.793534 
L 90.237132 24.030853 
L 91.537246 24.056008 
L 93.681897 27.014901 
L 94.263173 30.358791 
L 95.66065 30.512891 
L 96.517542 31.318061 
L 95.917378 33.480573 
L 96.289876 33.85886 
L 96.216734 34.402599 
L 94.153216 35.708778 
L 93.29487 35.529523 
L 92.228717 36.756085 
L 91.216092 38.624197 
L 90.729274 40.835918 
L 89.769689 41.34669 
L 89.606936 43.724353 
L 88.013278 44.499851 
L 88.214783 45.046524 
L 87.62673 47.425407 
L 86.61919 48.150234 
L 85.732747 48.131794 
L 85.896959 48.66601 
L 85.068159 49.186918 
L 84.904435 51.198506 
L 84.093075 52.341181 
L 84.102763 53.01521 
L 82.76971 54.494165 
L 83.405236 55.363323 
L 81.950116 56.324059 
L 81.81739 57.415572 
L 81.050597 58.310368 
L 79.849295 58.413183 
L 79.489391 56.964506 
L 77.342556 55.120085 
L 76.955042 56.330651 
L 75.618596 56.309404 
L 75.300353 55.702046 
L 74.042866 56.74166 
L 73.639366 56.708329 
L 73.191786 57.953327 
L 71.541938 58.980366 
L 69.862541 60.956789 
L 69.268189 61.184885 
L 69.096718 61.86563 
L 69.493437 62.377743 
L 69.00129 64.435606 
L 67.739936 66.56575 
L 66.10825 65.230461 
L 66.913794 66.849385 
L 66.609429 67.323389 
L 63.187395 67.433189 
L 63.123317 66.555751 
L 62.922694 67.20936 
L 61.887155 67.074943 
L 62.132026 67.414153 
L 61.887155 67.529912 
L 60.906545 66.333075 
L 61.435183 67.462994 
L 60.776102 67.852582 
L 60.776102 66.878803 
L 60.39507 66.46191 
L 60.51979 67.043025 
L 60.104052 66.684973 
L 60.681129 68.034299 
L 60.427109 68.145639 
L 59.954539 68.026222 
L 59.563974 66.054634 
L 59.237102 65.972329 
L 59.964456 68.210827 
L 59.237102 68.239669 
L 59.333219 67.043025 
L 59.140985 67.917193 
L 58.948752 67.497606 
L 59.106275 68.325239 
L 58.754615 68.324474 
L 58.676041 67.637599 
L 58.463213 67.529912 
L 58.552848 68.333127 
L 57.151153 68.53292 
L 57.441791 67.852582 
L 57.116063 68.046028 
L 56.990963 67.562218 
L 56.926885 68.497921 
L 56.411979 68.629643 
L 56.299079 67.972958 
L 56.17283 68.520614 
L 55.82994 67.949499 
L 55.702548 68.339469 
L 55.367287 68.172751 
L 53.424754 65.910794 
L 53.00558 64.596657 
L 53.520486 64.517434 
L 52.909848 64.41744 
L 52.790845 63.564614 
L 53.904949 63.38482 
L 53.698988 62.938698 
L 54.074297 62.80371 
L 54.195587 62.637182 
L 53.181795 63.127145 
L 53.229853 63.320596 
L 52.124518 62.820246 
L 52.240849 62.443347 
L 53.584944 62.398736 
L 53.293547 62.08876 
L 52.72448 62.328935 
L 52.778641 61.765896 
L 52.510125 62.271824 
L 51.801841 62.221636 
L 51.67788 61.441497 
L 52.557419 60.889035 
L 51.405933 61.563026 
L 50.01454 59.807961 
L 48.410319 58.768224 
L 43.90202 58.524972 
L 43.627022 58.363448 
L 45.778573 57.57754 
L 44.238045 57.97328 
L 44.078235 57.618305 
L 43.708643 57.854827 
L 43.556078 58.337485 
L 43.625115 58.584777 
L 40.434853 58.723428 
L 40.849513 53.481166 
z
" clip-path="url(#pc531deb312)" style="fill: #eeeeee; stroke: #000000; stroke-width: 0.3"/>
    <path d="M 61.217013 68.039492 
L 61.645724 67.398 
L 61.85512 67.591253 
L 62.12859 67.591253 
L 61.968396 67.955845 
z
" clip-path="url(#pc531deb312)" style="fill: #eeeeee; stroke: #000000; stroke-width: 0.3"/>
    <path d="M 62.149189 67.741246 
L 63.309444 67.625676 
L 62.593915 67.861041 
z
" clip-path="url(#pc531deb312)" style="fill: #eeeeee; stroke: #000000; stroke-width: 0.3"/>
    <path d="M 31.365558 39.826096 
L 31.424171 38.285715 
L 31.98752 36.869401 
L 32.277187 36.95732 
L 32.361958 36.456435 
L 32.984402 36.704314 
L 32.741237 36.163746 
L 33.191723 36.050918 
L 33.084671 35.60584 
L 33.997758 35.470058 
L 34.509763 34.59614 
L 35.268809 34.998237 
L 37.058159 34.878574 
L 38.418338 33.753602 
L 38.921138 32.355483 
L 39.276684 32.208222 
L 38.829104 31.074824 
L 39.456394 30.770779 
L 41.093161 30.222522 
L 44.618098 33.546999 
L 44.018417 34.852686 
L 45.207121 36.304169 
L 45.244418 37.743805 
L 45.747706 38.725911 
L 45.443504 39.634506 
L 44.879185 39.501413 
L 44.505718 40.21073 
L 44.951362 40.868276 
L 44.585646 41.80276 
L 44.227678 42.285814 
L 43.35044 42.497913 
L 43.37708 43.205397 
L 42.44414 44.125717 
L 42.179176 45.83704 
L 40.741008 46.017151 
L 40.281318 51.49498 
L 40.849513 53.481166 
L 40.434853 58.723428 
L 35.35342 59.453369 
L 36.116014 59.153879 
L 35.102175 57.259398 
L 34.942327 55.77653 
L 35.381672 55.753577 
L 35.266869 46.052684 
L 33.978866 43.820084 
L 34.000664 41.577593 
z
" clip-path="url(#pc531deb312)" style="fill: #eeeeee; stroke: #000000; stroke-width: 0.3"/>
    <path d="M 90.797575 20.582805 
L 91.774112 20.064463 
L 92.599279 17.839188 
L 95.106989 14.389184 
L 100.246411 8.977904 
L 101.514069 -5.24143 
L 102.61219 -7.286717 
L 100.7371 -9.250683 
L 100.615515 -9.904684 
L 100.9202 -10.189925 
L 98.929341 -12.744401 
L 98.870728 -15.117665 
L 97.970323 -19.854245 
L 102.681457 -21.976402 
L 140.158067 -3.316051 
L 140.172596 14.523747 
L 136.002451 14.603604 
L 135.12182 15.373242 
L 135.362079 16.978947 
L 133.960243 18.60565 
L 134.043073 19.401667 
L 132.575842 20.089004 
L 132.88295 21.407149 
L 133.432739 21.997408 
L 131.878315 22.862659 
L 131.223415 23.695792 
L 132.126327 25.802378 
L 130.703663 26.918678 
L 129.979009 28.35856 
L 130.571907 29.086927 
L 131.368251 29.035642 
L 131.8323 28.596301 
L 132.960938 29.22149 
L 132.619439 29.920674 
L 133.140649 31.33076 
L 133.019064 31.96547 
L 133.742265 31.765218 
L 133.410941 33.843719 
L 134.489688 34.929736 
L 135.159605 34.963195 
L 135.194962 36.423591 
L 134.907717 37.21716 
L 132.96772 36.843272 
L 129.572115 38.551911 
L 129.554192 40.159077 
L 128.590732 40.613318 
L 127.939707 41.687979 
L 127.389435 41.675522 
L 125.370483 44.31095 
L 124.628872 44.859457 
L 124.037914 44.766775 
L 123.53802 45.633977 
L 116.914414 46.356606 
L 116.201383 46.998401 
L 117.39348 47.822253 
L 114.886736 50.786273 
L 110.437093 51.083238 
L 106.526577 53.169064 
L 105.629964 52.526783 
L 105.322862 51.626854 
L 104.589486 52.035179 
L 104.489216 52.560241 
L 102.400994 53.431347 
L 100.319066 53.265527 
L 100.702709 51.993422 
L 100.130155 51.771431 
L 98.925465 48.748188 
L 95.015919 45.491115 
L 93.132112 43.272801 
L 94.229264 41.664043 
L 96.998548 41.930725 
L 101.25734 41.602134 
L 98.681817 39.00566 
L 98.164001 35.972403 
L 98.700222 34.326528 
L 98.376163 33.618553 
L 98.584453 33.135257 
L 98.296239 31.709539 
L 97.586601 31.387177 
L 97.271259 29.187544 
L 95.977927 28.485065 
L 95.33756 27 
L 93.681897 27.014901 
L 91.537246 24.056008 
z
" clip-path="url(#pc531deb312)" style="fill: #eeeeee; stroke: #000000; stroke-width: 0.3"/>
    <path d="M 163.618246 102.036181 
L 163.832348 101.203903 
L 165.059558 101.347502 
L 165.271725 102.176359 
L 167.05381 102.077211 
L 167.887939 101.442255 
L 168.046334 99.768417 
L 168.913884 100.310081 
L 170.140855 99.702964 
L 170.965779 100.164043 
L 170.316202 101.321614 
L 170.815614 101.339685 
L 170.315237 102.295534 
L 170.655766 102.729747 
L 172.235377 102.895326 
L 172.185481 104.16719 
L 170.392499 105.604629 
L 170.154901 106.722148 
L 169.827449 106.729478 
L 168.380564 109.007502 
L 167.114359 109.912067 
L 165.573986 109.848084 
L 165.270755 108.163008 
L 164.687544 107.249162 
L 164.779339 103.21671 
z
" clip-path="url(#pc531deb312)" style="fill: #eeeeee; stroke: #000000; stroke-width: 0.3"/>
    <path d="M 163.018082 100.247076 
L 164.311653 99.20526 
L 164.291312 97.530443 
L 165.286254 95.986036 
L 167.504779 95.06926 
L 168.180995 95.741333 
L 169.056297 95.175738 
L 169.948064 93.857962 
L 170.577646 93.860788 
L 170.969167 95.049724 
L 171.823154 95.466839 
L 172.295438 96.452971 
L 172.101681 97.936812 
L 172.527463 98.660661 
L 172.277033 99.902734 
L 170.811738 100.158179 
L 170.140855 99.702964 
L 168.913884 100.310081 
L 168.046334 99.768417 
L 167.887939 101.442255 
L 167.05381 102.077211 
L 165.271725 102.176359 
L 165.116718 101.390483 
L 164.211383 101.080819 
L 163.751693 101.676698 
L 163.170422 101.355314 
z
" clip-path="url(#pc531deb312)" style="fill: #eeeeee; stroke: #000000; stroke-width: 0.3"/>
    <path d="M 166.279265 93.207377 
L 166.974852 88.476473 
L 168.087507 86.464153 
L 168.119476 84.922189 
L 169.092142 84.524852 
L 169.485955 83.450559 
L 170.608054 82.965549 
L 174.325534 78.880716 
L 173.885463 77.935972 
L 173.312183 77.995806 
L 172.903353 77.451453 
L 172.452385 77.798238 
L 171.696727 77.2639 
L 172.366162 75.334612 
L 171.852704 74.379491 
L 172.631608 72.782457 
L 172.567671 72.184381 
L 172.301249 72.325045 
L 172.792914 71.431468 
L 174.060088 70.897129 
L 175.507939 71.541121 
L 176.699066 70.783327 
L 177.412097 71.81391 
L 178.527414 72.220888 
L 178.620175 71.715613 
L 179.482636 71.18677 
L 181.28531 71.007392 
L 182.413948 70.456815 
L 183.197698 71.0356 
L 184.726447 71.098487 
L 187.141879 68.943669 
L 187.510987 70.49552 
L 188.074336 70.508709 
L 187.828265 70.976135 
L 189.174398 71.486051 
L 188.900713 72.388054 
L 189.147754 73.781415 
L 191.217571 76.573509 
L 191.442331 77.111752 
L 191.170586 77.72522 
L 191.830815 79.76037 
L 191.672416 81.001465 
L 190.764662 82.257087 
L 190.853308 82.997297 
L 189.396248 83.703566 
L 188.932198 84.963705 
L 187.814701 85.966444 
L 187.512923 87.179212 
L 186.614857 88.300148 
L 186.895808 89.548568 
L 186.664748 93.557088 
L 172.008676 93.477964 
L 169.948064 93.857962 
L 169.056297 95.175738 
L 168.078063 95.77992 
L 167.546922 95.075607 
L 166.388252 95.380389 
z
" clip-path="url(#pc531deb312)" style="fill: #eeeeee; stroke: #000000; stroke-width: 0.3"/>
    <path d="M 67.648398 67.425112 
L 68.07949 65.750821 
L 69.00129 64.435606 
L 69.493437 62.377743 
L 69.096718 61.86563 
L 69.218298 61.262663 
L 71.541938 58.980366 
L 73.191786 57.953327 
L 73.639366 56.708329 
L 74.042866 56.74166 
L 75.300353 55.702046 
L 75.618596 56.309404 
L 76.955042 56.330651 
L 77.342556 55.120085 
L 79.489391 56.964506 
L 79.772277 58.341747 
L 80.514854 58.432233 
L 81.81739 57.415572 
L 81.950116 56.324059 
L 83.405236 55.363323 
L 82.76971 54.494165 
L 84.102763 53.01521 
L 84.093075 52.341181 
L 84.904435 51.198506 
L 85.068159 49.186918 
L 85.896959 48.66601 
L 85.732747 48.131794 
L 86.61919 48.150234 
L 87.727969 47.285717 
L 88.214783 45.046524 
L 88.013278 44.499851 
L 89.606936 43.724353 
L 89.769689 41.34669 
L 90.729274 40.835918 
L 91.216092 38.624197 
L 92.228717 36.756085 
L 93.29487 35.529523 
L 94.153216 35.708778 
L 96.265659 34.289406 
L 95.917378 33.480573 
L 96.509795 31.267755 
L 95.66065 30.512891 
L 94.263173 30.358791 
L 93.681897 27.014901 
L 95.33756 27 
L 95.977927 28.485065 
L 97.217009 29.090348 
L 97.586601 31.387177 
L 98.296239 31.709539 
L 98.700222 34.326528 
L 98.164001 35.972403 
L 98.712333 39.09565 
L 101.25734 41.602134 
L 96.998548 41.930725 
L 94.229264 41.664043 
L 93.12436 43.202467 
L 95.015919 45.491115 
L 98.307862 47.970124 
L 100.130155 51.771431 
L 100.702709 51.993422 
L 100.092858 53.896575 
L 99.113898 54.568653 
L 96.997091 58.959856 
L 95.192724 60.279707 
L 96.271471 61.102339 
L 96.271471 62.849319 
L 95.814203 63.81677 
L 96.465711 64.412407 
L 96.739396 66.976282 
L 98.036117 67.96266 
L 98.491931 69.340269 
L 98.954045 69.617576 
L 98.186282 69.792554 
L 98.462386 70.45535 
L 103.184261 75.287723 
L 103.174574 76.954968 
L 103.724841 78.313282 
L 103.240451 78.452731 
L 103.050083 79.292458 
L 103.481676 80.6951 
L 103.078663 81 
L 102.816118 80.448199 
L 101.376984 79.68894 
L 100.327788 79.481599 
L 99.64576 79.738636 
L 99.061096 79.180243 
L 97.560444 79.337272 
L 97.394297 78.81954 
L 96.962216 79.058137 
L 96.012319 78.380686 
L 95.406827 78.7431 
L 90.071468 78.606339 
L 90.024965 78.222679 
L 89.458711 78.029265 
L 87.518709 78.248812 
L 82.397696 77.843417 
L 80.965339 77.946965 
L 80.826802 78.584119 
L 74.588292 78.584851 
L 73.743994 78.115714 
L 74.42305 74.403082 
L 74.299853 73.358345 
L 72.953082 72.094203 
L 73.784947 71.674427 
L 72.878707 71.80615 
L 72.502254 70.768143 
L 72.869554 71.096389 
L 72.854678 70.507396 
L 73.432903 70.768143 
L 73.113277 70.345867 
L 73.526348 70.116844 
L 72.844381 70.103192 
L 73.480197 69.274595 
L 72.659014 69.854363 
L 72.186444 69.389394 
L 72.43932 69.965703 
L 71.996502 69.771869 
L 72.178818 70.313561 
L 71.553679 70.313561 
L 71.472438 69.764946 
L 70.931216 70.084733 
L 69.808718 69.439587 
L 69.642421 67.301083 
L 69.226683 66.89265 
L 69.324323 67.342236 
L 68.999743 67.074943 
L 68.952064 67.357042 
L 68.327309 66.426915 
L 68.643884 67.490877 
z
" clip-path="url(#pc531deb312)" style="fill: #eeeeee; stroke: #000000; stroke-width: 0.3"/>
    <path d="M 68.516872 91.591284 
L 69.214478 92.600833 
L 69.611146 92.067023 
L 69.997516 92.952344 
L 70.41631 91.653207 
L 71.380136 90.389447 
L 71.562452 87.137757 
L 71.631869 87.963273 
L 71.932424 87.835208 
L 72.231071 88.3544 
L 72.306969 87.930778 
L 72.693724 88.288442 
L 73.282625 88.181913 
L 73.750236 88.708029 
L 73.498888 88.225754 
L 74.750681 87.930778 
L 73.656791 87.963273 
L 72.277981 87.44408 
L 71.376326 86.247049 
L 71.424384 85.859962 
L 72.470215 85.598633 
L 72.564804 85.881885 
L 72.183013 85.893421 
L 72.118555 85.988991 
L 72.63041 85.988991 
L 72.63041 86.408577 
L 72.792892 86.60183 
L 72.718517 84.025474 
L 73.435954 83.811069 
L 74.368378 84.448416 
L 74.768486 84.076721 
L 80.89365 84.097236 
L 80.965339 77.946965 
L 85.51138 77.883223 
L 87.518709 78.248812 
L 89.458711 78.029265 
L 90.024965 78.222679 
L 89.450959 79.840842 
L 89.298375 81.293421 
L 89.868506 82.497636 
L 89.394769 82.880564 
L 91.23789 82.753572 
L 92.415692 82.040224 
L 94.054882 82.242555 
L 94.559622 82.529875 
L 94.703488 83.478399 
L 95.571521 84.503363 
L 94.918556 85.883411 
L 93.733728 86.269761 
L 93.120971 87.163092 
L 92.774144 87.89085 
L 93.008109 89.069422 
L 92.586686 89.789854 
L 93.824797 90.126379 
L 94.126088 90.969891 
L 94.880288 90.919585 
L 95.674213 91.659062 
L 95.215005 93.587371 
L 95.663555 95.479537 
L 95.54827 96.137938 
L 95.087613 96.437343 
L 95.480939 96.788036 
L 95.273618 97.765378 
L 94.502949 98.186888 
L 94.071351 99.333225 
L 94.476305 99.948158 
L 93.799606 100.62707 
L 92.654982 100.475659 
L 92.937867 99.971112 
L 92.17398 98.72953 
L 90.841654 100.355018 
L 88.545624 100.0307 
L 88.72921 99.577442 
L 87.774955 97.888462 
L 86.967953 97.444481 
L 86.284473 97.91581 
L 86.00498 97.722884 
L 86.346474 98.722205 
L 86.156593 99.829956 
L 84.296037 100.231934 
L 83.715249 99.826048 
L 82.860775 100.232421 
L 81.970944 99.828978 
L 82.243659 101.261048 
L 81.804797 102.366847 
L 82.301785 102.208598 
L 82.965403 103.023292 
L 82.539621 103.804777 
L 83.743342 104.429473 
L 83.183869 105.695965 
L 83.561208 106.037863 
L 82.540109 106.298686 
L 81.579067 105.403399 
L 80.313345 106.291848 
L 79.851657 107.423979 
L 79.147531 106.264419 
L 77.660194 105.132231 
L 77.608607 104.478835 
L 74.173234 101.580858 
L 73.240669 100.364513 
L 73.669375 100.637953 
L 73.881064 100.429124 
L 74.524126 101.241757 
L 75.364375 100.978316 
L 75.274745 100.763329 
L 74.55616 100.918705 
L 74.042397 100.20529 
L 73.467993 100.493735 
L 73.336786 100.062226 
L 73.240669 100.329901 
L 72.741782 99.935309 
L 72.59532 99.180752 
L 71.214987 97.68778 
L 72.133811 97.904303 
L 72.48967 98.605789 
L 72.370283 97.923145 
L 71.698998 97.416641 
L 71.539567 97.742775 
L 71.140612 97.492023 
L 70.975079 96.284803 
L 70.021545 95.037583 
L 69.866693 94.636073 
L 70.034514 94.985278 
L 70.68978 95.756763 
L 71.184092 96.074815 
L 71.257323 96.735154 
L 72.566332 96.416332 
L 72.083465 95.768299 
L 71.287075 96.220191 
L 71.108573 95.82291 
L 71.50982 95.428706 
L 71.515922 94.884131 
L 71.457182 95.297565 
L 70.814121 95.485241 
L 70.08448 94.958355 
L 70.098592 94.459162 
L 69.322415 93.436154 
L 69.511214 93.585377 
L 69.642421 93.372313 
L 69.191972 93.178484 
z
" clip-path="url(#pc531deb312)" style="fill: #eeeeee; stroke: #000000; stroke-width: 0.3"/>
    <path d="M 71.709609 84.991262 
L 71.743822 84.992949 
L 71.722999 85.00551 
z
" clip-path="url(#pc531deb312)" style="fill: #eeeeee; stroke: #000000; stroke-width: 0.3"/>
    <path d="M 69.706883 91.946259 
L 70.138261 91.984718 
L 69.97463 92.420845 
z
" clip-path="url(#pc531deb312)" style="fill: #eeeeee; stroke: #000000; stroke-width: 0.3"/>
    <path d="M 28.479296 20.073986 
L 28.799479 17.951039 
L 32.211797 18.028453 
L 34.003087 16.591501 
L 41.823631 16.329213 
L 41.980086 15.916493 
L 44.199581 16.259007 
L 44.29065 15.58803 
L 45.788396 14.693229 
L 46.793513 11.796127 
L 47.371878 11.239808 
L 47.581139 -1.643678 
L 54.919224 -3.097113 
L 62.832529 -9.820919 
L 83.858145 -22.319643 
L 90.951128 -20.723833 
L 94.391052 -18.061415 
L 97.970323 -19.854245 
L 98.870728 -15.117665 
L 98.929341 -12.744401 
L 100.9202 -10.189925 
L 100.615515 -9.904684 
L 100.7371 -9.250683 
L 102.61219 -7.286717 
L 101.514069 -5.24143 
L 100.27644 8.873624 
L 95.106989 14.389184 
L 92.599279 17.839188 
L 91.774112 20.064463 
L 90.797575 20.582805 
L 91.537246 24.056008 
L 90.237132 24.030853 
L 89.760002 24.793534 
L 87.951759 25.071937 
L 87.77786 25.620807 
L 86.633724 26.236223 
L 86.219565 27.080226 
L 84.274239 26.831614 
L 81.379498 25.661223 
L 77.794012 25.610793 
L 75.191849 26.201544 
L 72.710297 28.322053 
L 68.440847 27.74461 
L 65.749551 25.967347 
L 64.431998 25.751703 
L 62.40723 26.851642 
L 61.498994 26.828684 
L 60.892049 27.401978 
L 60.275416 27.405154 
L 57.299537 24.246251 
L 56.550666 24.355049 
L 53.641879 23.223361 
L 52.26329 23.880052 
L 50.375606 23.741094 
L 48.630818 24.199361 
L 47.099168 25.148254 
L 46.925751 27.401246 
L 46.177363 28.563088 
L 44.829777 29.661317 
L 44.65346 32.555494 
L 44.948939 33.244906 
L 44.618098 33.546999 
L 41.093161 30.222522 
L 38.870277 30.992769 
L 39.279589 32.127141 
L 38.964735 32.598229 
L 37.37883 30.493354 
L 38.28416 30.104811 
L 37.647182 28.774578 
L 37.003422 28.686664 
L 36.403741 29.244934 
L 35.092004 29.12185 
L 32.372128 27.23054 
L 32.372128 25.642419 
L 33.708573 25.748041 
L 32.52084 25.182809 
L 31.966209 24.4774 
L 30.547904 24.127931 
L 29.492647 22.473015 
L 29.584682 21.468566 
z
" clip-path="url(#pc531deb312)" style="fill: #eeeeee; stroke: #000000; stroke-width: 0.3"/>
    <path d="M 1.879275 39.550132 
L 2.30651 37.569073 
L 1.965255 36.491605 
L 2.770077 36.260579 
L 3.305333 34.839865 
L 2.982726 33.248568 
L 2.395883 32.919613 
L 3.909855 32.207243 
L 5.447322 32.078054 
L 6.388502 31.402805 
L 6.727334 30.593726 
L 7.11182 30.656244 
L 6.898566 30.052062 
L 7.200344 29.585855 
L 6.741019 28.731843 
L 7.807777 28.702292 
L 8.02224 28.237919 
L 7.482504 26.586916 
L 7.914828 26.55358 
L 9.119636 25.020898 
L 9.399737 25.251801 
L 9.148338 25.555723 
L 11.595494 26.585692 
L 11.599857 26.127425 
L 12.536795 25.999828 
L 12.357206 24.085923 
L 13.385696 24.515986 
L 14.193059 24.303887 
L 14.324088 22.655077 
L 15.589083 21.607037 
L 16.225091 21.330099 
L 17.677066 21.919749 
L 18.220552 21.801183 
L 18.402686 20.433224 
L 19.809368 20.31307 
L 22.707497 18.89419 
L 24.389313 17.561027 
L 25.569538 17.554188 
L 25.767171 17.919532 
L 26.653131 17.621715 
L 28.786403 18.352526 
L 28.506906 20.31307 
L 29.584682 21.468566 
L 29.492647 22.473015 
L 30.547904 24.127931 
L 31.966209 24.4774 
L 32.52084 25.182809 
L 33.708573 25.748041 
L 32.372128 25.642419 
L 32.372128 27.23054 
L 35.092004 29.12185 
L 36.403741 29.244934 
L 37.003422 28.686664 
L 37.647182 28.774578 
L 38.28416 30.104811 
L 37.37883 30.493354 
L 38.964735 32.598229 
L 38.483246 33.691084 
L 37.186526 34.817639 
L 35.268809 34.998237 
L 34.509763 34.59614 
L 33.997758 35.470058 
L 33.182035 35.485686 
L 33.191723 36.050918 
L 32.741237 36.163746 
L 32.999906 36.682944 
L 32.361958 36.456435 
L 32.277187 36.95732 
L 30.048005 37.150611 
L 30.043163 36.81995 
L 26.348569 36.065086 
L 24.787485 37.270032 
L 23.882881 36.807493 
L 14.464443 36.844491 
L 14.018433 38.563267 
L 14.79153 39.570401 
L 14.445911 39.938674 
L 14.850626 40.328441 
L 14.949199 42.398392 
L 14.661467 42.884136 
L 15.158699 43.977114 
L 14.809692 44.434767 
L 12.695556 41.959666 
L 12.287936 42.311697 
L 12.21552 42.027189 
L 10.163386 41.863935 
L 8.31106 42.41964 
L 7.275671 43.53179 
L 6.663879 43.191234 
L 6.625246 42.765692 
L 5.823213 43.063386 
L 5.282506 42.721123 
L 5.273062 42.305105 
L 4.487493 42.028654 
L 4.500331 41.370375 
L 3.999954 41.040324 
L 3.769865 40.173732 
L 2.441898 40.140519 
z
" clip-path="url(#pc531deb312)" style="fill: #eeeeee; stroke: #000000; stroke-width: 0.3"/>
    <path d="M 26.983972 36.197205 
L 30.043163 36.81995 
L 30.048005 37.150611 
L 31.98752 36.869401 
L 31.327778 39.754906 
L 34.06073 41.738408 
L 33.978866 43.820084 
L 35.241682 45.92374 
L 35.468378 48.680419 
L 35.381672 55.753577 
L 34.942327 55.77653 
L 35.102175 57.259398 
L 36.116014 59.153879 
L 35.35342 59.453369 
L 33.318201 59.989291 
L 32.372128 58.930183 
L 31.257537 58.380579 
L 30.19623 56.531149 
L 30.080461 55.865423 
L 30.565339 55.590928 
L 30.788646 54.209169 
L 30.085307 53.355152 
L 30.632186 52.433003 
L 30.451993 50.048747 
L 31.103018 49.604402 
L 29.47727 47.353485 
L 30.132292 46.918421 
L 29.783768 46.15635 
L 30.252907 44.391176 
L 29.691855 43.960507 
L 28.825519 44.243551 
L 29.177549 43.888585 
L 28.841379 43.565859 
L 29.532855 43.501262 
L 28.985611 43.181097 
L 29.389228 43.15277 
L 29.621258 40.22245 
L 27.349449 38.567175 
L 27.838441 36.539345 
z
" clip-path="url(#pc531deb312)" style="fill: #eeeeee; stroke: #000000; stroke-width: 0.3"/>
    <path d="M 12.471766 57.547691 
L 12.569368 56.632012 
L 13.829522 54.722507 
L 13.976172 53.010815 
L 14.683387 51.28056 
L 15.527325 50.823517 
L 15.526837 50.233494 
L 16.015835 50.023596 
L 15.485664 46.647707 
L 14.757377 46.026919 
L 15.296509 44.997068 
L 14.661467 42.884136 
L 14.949199 42.398392 
L 14.850626 40.328441 
L 14.445911 39.938674 
L 14.79153 39.570401 
L 14.018433 38.563267 
L 14.464443 36.844491 
L 23.882881 36.807493 
L 24.787485 37.270032 
L 26.348569 36.065086 
L 27.838441 36.539345 
L 27.349449 38.567175 
L 29.621258 40.22245 
L 29.389228 43.15277 
L 28.985611 43.181097 
L 29.532855 43.501262 
L 28.841379 43.565859 
L 29.177549 43.888585 
L 28.825519 44.243551 
L 29.691855 43.960507 
L 30.252907 44.391176 
L 29.783768 46.15635 
L 30.132292 46.918421 
L 29.47727 47.353485 
L 31.103018 49.604402 
L 30.451993 50.048747 
L 30.632186 52.433003 
L 30.085307 53.355152 
L 30.788646 54.209169 
L 30.565339 55.590928 
L 30.080461 55.865423 
L 30.181213 56.48597 
L 31.257537 58.380579 
L 32.372128 58.930183 
L 33.318201 59.989291 
L 32.237659 61.451497 
L 28.902964 61.616485 
L 24.015161 64.174765 
L 20.177005 65.083932 
L 18.475903 66.359998 
L 17.936204 66.425951 
L 16.717594 65.56986 
L 13.141467 64.75838 
L 14.795889 64.429014 
L 14.68835 63.550824 
L 14.966877 63.426516 
L 14.670189 62.316081 
L 13.955827 62.315348 
L 13.867064 61.835711 
L 13.562618 61.861845 
z
" clip-path="url(#pc531deb312)" style="fill: #eeeeee; stroke: #000000; stroke-width: 0.3"/>
    <path d="M -52.179658 -9.32157 
L -51.764713 -11.957055 
L -33.237363 -11.998817 
L -33.87967 -19.024107 
L -33.237363 -19.95981 
L -31.382257 -21.154625 
L -28.569741 -22.053329 
L -28.550849 -34.028092 
L -12.954811 -34.052269 
L -12.930107 -40.126837 
L 5.164558 -29.303052 
L -3.138079 -29.298653 
L 1.406991 10.711575 
L 2.672713 11.731653 
L 1.933769 15.596333 
L -16.055419 15.589495 
L -16.089328 14.633887 
L -16.535695 15.151497 
L -16.405392 15.849944 
L -19.422444 16.208086 
L -22.505126 15.885237 
L -23.394718 17.445513 
L -26.249977 14.89092 
L -26.674067 15.374343 
L -27.199874 15.374343 
L -27.755719 17.085543 
L -27.637284 18.404543 
L -28.809031 19.187001 
L -30.271781 18.659501 
L -30.751695 17.850176 
L -32.64265 16.74621 
L -32.360003 16.590282 
L -32.998678 15.52563 
L -33.558868 15.603172 
L -33.680101 15.113279 
L -34.28063 14.985554 
L -34.64659 13.53468 
L -35.438691 12.473573 
L -36.301156 12.70631 
L -36.58453 12.310438 
L -37.082971 12.636217 
L -37.74889 11.608815 
L -39.758519 10.083211 
L -42.419056 9.938639 
L -43.04368 10.061477 
L -43.125788 10.452218 
L -44.714116 10.458078 
L -45.689927 10.931123 
L -48.509585 10.73355 
L -49.376409 12.288458 
L -49.768178 14.109463 
L -49.706959 11.633677 
L -47.596414 5.905426 
L -47.391404 3.086012 
L -48.185123 -0.889858 
L -49.735947 -2.771074 
L -48.90981 -2.936638 
L -48.561576 -3.472754 
L -49.061039 -3.164508 
L -48.935362 -3.519866 
L -49.406025 -2.921062 
L -48.322052 -4.722091 
L -48.388797 -5.238396 
L -48.69469 -5.176095 
L -48.269035 -5.714135 
L -48.450203 -6.338515 
L -48.174254 -6.799825 
L -49.415942 -8.767189 
L -49.141708 -8.887371 
L -49.706959 -9.189464 
L -49.768178 -8.347791 
L -50.379009 -8.899294 
L -51.526872 -11.175287 
z
" clip-path="url(#pc531deb312)" style="fill: #eeeeee; stroke: #000000; stroke-width: 0.3"/>
    <path d="M -49.090214 -3.806577 
L -48.906758 -4.172898 
L -48.639958 -4.386345 
z
" clip-path="url(#pc531deb312)" style="fill: #eeeeee; stroke: #000000; stroke-width: 0.3"/>
    <path d="M -49.400878 -4.206934 
L -48.847639 -5.075142 
L -49.253272 -3.812923 
z
" clip-path="url(#pc531deb312)" style="fill: #eeeeee; stroke: #000000; stroke-width: 0.3"/>
    <path d="M -49.448937 -8.505284 
L -49.318494 -8.567395 
L -49.354915 -8.39625 
z
" clip-path="url(#pc531deb312)" style="fill: #eeeeee; stroke: #000000; stroke-width: 0.3"/>
    <path d="M -49.555158 -4.305581 
L -49.436348 -4.277887 
L -49.495847 -4.174241 
z
" clip-path="url(#pc531deb312)" style="fill: #eeeeee; stroke: #000000; stroke-width: 0.3"/>
    <path d="M 71.568555 83.234571 
L 72.124658 82.134263 
L 72.824931 81.314324 
L 73.03318 81.421623 
L 73.158284 81.405083 
L 73.432903 81.257595 
L 72.789841 81.047802 
L 73.738796 79.674824 
L 73.691117 77.752459 
L 73.80406 78.190689 
L 74.588292 78.584851 
L 80.826802 78.584119 
L 80.89365 84.097236 
L 74.768486 84.076721 
L 74.368378 84.448416 
L 73.307798 83.463399 
L 72.682284 83.890292 
L 72.403086 83.463399 
L 71.801981 83.56647 
z
" clip-path="url(#pc531deb312)" style="fill: #eeeeee; stroke: #000000; stroke-width: 0.3"/>
    <path d="M 67.329152 72.650512 
L 67.973358 72.452066 
L 68.383762 71.209459 
L 69.581394 71.093893 
L 69.714888 71.676544 
L 68.473013 73.709091 
L 67.366914 73.35181 
z
" clip-path="url(#pc531deb312)" style="fill: #eeeeee; stroke: #000000; stroke-width: 0.3"/>
    <path d="M 54.096039 95.591388 
L 54.163548 95.509853 
L 54.144098 95.792911 
z
" clip-path="url(#pc531deb312)" style="fill: #eeeeee; stroke: #000000; stroke-width: 0.3"/>
    <path d="M 62.12859 81.421623 
L 62.375749 80.821473 
L 62.738849 80.905503 
L 62.451267 81.582958 
z
" clip-path="url(#pc531deb312)" style="fill: #eeeeee; stroke: #000000; stroke-width: 0.3"/>
    <path d="M 58.090191 87.553109 
L 59.076907 86.895082 
L 59.428952 87.637338 
L 58.351461 88.705146 
z
" clip-path="url(#pc531deb312)" style="fill: #eeeeee; stroke: #000000; stroke-width: 0.3"/>
   </g>
   <g id="PatchCollection_2">
    <defs>
     <path id="m14b8ef3275" d="M 67.648398 -40.574888 
L 68.07949 -42.249179 
L 69.00129 -43.564394 
L 69.493437 -45.622257 
L 69.096718 -46.13437 
L 69.218298 -46.737337 
L 71.541938 -49.019634 
L 73.191786 -50.046673 
L 73.639366 -51.291671 
L 74.042866 -51.25834 
L 75.300353 -52.297954 
L 75.618596 -51.690596 
L 76.955042 -51.669349 
L 77.342556 -52.879915 
L 79.489391 -51.035494 
L 79.772277 -49.658253 
L 80.514854 -49.567767 
L 81.81739 -50.584428 
L 81.950116 -51.675941 
L 83.405236 -52.636677 
L 82.76971 -53.505835 
L 84.102763 -54.98479 
L 84.093075 -55.658819 
L 84.904435 -56.801494 
L 85.068159 -58.813082 
L 85.896959 -59.33399 
L 85.732747 -59.868206 
L 86.61919 -59.849766 
L 87.727969 -60.714283 
L 88.214783 -62.953476 
L 88.013278 -63.500149 
L 89.606936 -64.275647 
L 89.769689 -66.65331 
L 90.729274 -67.164082 
L 91.216092 -69.375803 
L 92.228717 -71.243915 
L 93.29487 -72.470477 
L 94.153216 -72.291222 
L 96.265659 -73.710594 
L 95.917378 -74.519427 
L 96.509795 -76.732245 
L 95.66065 -77.487109 
L 94.263173 -77.641209 
L 93.681897 -80.985099 
L 95.33756 -81 
L 95.977927 -79.514935 
L 97.217009 -78.909652 
L 97.586601 -76.612823 
L 98.296239 -76.290461 
L 98.700222 -73.673472 
L 98.164001 -72.027597 
L 98.712333 -68.90435 
L 101.25734 -66.397866 
L 96.998548 -66.069275 
L 94.229264 -66.335957 
L 93.12436 -64.797533 
L 95.015919 -62.508885 
L 98.307862 -60.029876 
L 100.130155 -56.228569 
L 100.702709 -56.006578 
L 100.092858 -54.103425 
L 99.113898 -53.431347 
L 96.997091 -49.040144 
L 95.192724 -47.720293 
L 96.271471 -46.897661 
L 96.271471 -45.150681 
L 95.814203 -44.18323 
L 96.465711 -43.587593 
L 96.739396 -41.023718 
L 98.036117 -40.03734 
L 98.491931 -38.659731 
L 98.954045 -38.382424 
L 98.186282 -38.207446 
L 98.462386 -37.54465 
L 103.184261 -32.712277 
L 103.174574 -31.045032 
L 103.724841 -29.686718 
L 103.240451 -29.547269 
L 103.050083 -28.707542 
L 103.481676 -27.3049 
L 103.078663 -27 
L 102.816118 -27.551801 
L 101.376984 -28.31106 
L 100.327788 -28.518401 
L 99.64576 -28.261364 
L 99.061096 -28.819757 
L 97.560444 -28.662728 
L 97.394297 -29.18046 
L 96.962216 -28.941863 
L 96.012319 -29.619314 
L 95.406827 -29.2569 
L 90.071468 -29.393661 
L 90.024965 -29.777321 
L 89.458711 -29.970735 
L 87.518709 -29.751188 
L 82.397696 -30.156583 
L 80.965339 -30.053035 
L 80.826802 -29.415881 
L 74.588292 -29.415149 
L 73.743994 -29.884286 
L 74.42305 -33.596918 
L 74.299853 -34.641655 
L 72.953082 -35.905797 
L 73.784947 -36.325573 
L 72.878707 -36.19385 
L 72.502254 -37.231857 
L 72.869554 -36.903611 
L 72.854678 -37.492604 
L 73.432903 -37.231857 
L 73.113277 -37.654133 
L 73.526348 -37.883156 
L 72.844381 -37.896808 
L 73.480197 -38.725405 
L 72.659014 -38.145637 
L 72.186444 -38.610606 
L 72.43932 -38.034297 
L 71.996502 -38.228131 
L 72.178818 -37.686439 
L 71.553679 -37.686439 
L 71.472438 -38.235054 
L 70.931216 -37.915267 
L 69.808718 -38.560413 
L 69.642421 -40.698917 
L 69.226683 -41.10735 
L 69.324323 -40.657764 
L 68.999743 -40.925057 
L 68.952064 -40.642958 
L 68.327309 -41.573085 
L 68.643884 -40.509123 
z
" style="stroke: #dd0000; stroke-width: 0.5"/>
    </defs>
    <g clip-path="url(#pc531deb312)">
     <use xlink:href="#m14b8ef3275" x="0" y="108" style="fill: #ff6b6b; stroke: #dd0000; stroke-width: 0.5"/>
    </g>
   </g>
  </g>
 </g>
 <defs>
  <clipPath id="pc531deb312">
   <rect x="0" y="0" width="171.37324" height="108"/>
  </clipPath>
 </defs>
</svg>
