<?xml version="1.0" encoding="utf-8" standalone="no"?>
<!DOCTYPE svg PUBLIC "-//W3C//DTD SVG 1.1//EN"
  "http://www.w3.org/Graphics/SVG/1.1/DTD/svg11.dtd">
<svg xmlns:xlink="http://www.w3.org/1999/xlink" width="166.105796pt" height="108pt" viewBox="0 0 166.105796 108" xmlns="http://www.w3.org/2000/svg" version="1.1">
 <metadata>
  <rdf:RDF xmlns:dc="http://purl.org/dc/elements/1.1/" xmlns:cc="http://creativecommons.org/ns#" xmlns:rdf="http://www.w3.org/1999/02/22-rdf-syntax-ns#">
   <cc:Work>
    <dc:type rdf:resource="http://purl.org/dc/dcmitype/StillImage"/>
    <dc:date>2025-09-05T15:50:21.051716</dc:date>
    <dc:format>image/svg+xml</dc:format>
    <dc:creator>
     <cc:Agent>
      <dc:title>Matplotlib v3.10.3, https://matplotlib.org/</dc:title>
     </cc:Agent>
    </dc:creator>
   </cc:Work>
  </rdf:RDF>
 </metadata>
 <defs>
  <style type="text/css">*{stroke-linejoin: round; stroke-linecap: butt}</style>
 </defs>
 <g id="figure_1">
  <g id="patch_1">
   <path d="M 0 108 
L 166.105796 108 
L 166.105796 0 
L 0 0 
z
" style="fill: #ffffff"/>
  </g>
  <g id="axes_1">
   <g id="PatchCollection_1">
    <path d="M 107.987836 33.937839 
L 108.317809 32.045043 
L 109.080119 30.771073 
L 109.934654 30.393762 
L 110.564482 28.459914 
L 111.014195 28.114082 
L 110.836685 27.739483 
L 112.404159 25.172717 
L 112.395181 24.713316 
L 111.613328 25.701403 
L 111.80995 25.220917 
L 115.524773 21.774965 
L 115.796539 19.463202 
L 116.883029 17.217263 
L 117.05301 16.264872 
L 120.273382 14.210978 
L 121.660595 10.746499 
L 122.439409 9.844718 
L 125.609687 9.250964 
L 127.658724 8.375091 
L 129.162056 6.795356 
L 130.903132 5.914212 
L 132.061002 4.770532 
L 134.172007 1.70731 
L 134.326787 0.680215 
L 133.341506 -0.222621 
L 133.610667 -0.884761 
L 133.48745 -3.014266 
L 135.514916 -5.954128 
L 135.578333 -7.361847 
L 138.17858 -9.922743 
L 141.73703 -11.269914 
L 144.252868 -12.776443 
L 146.138728 -15.890274 
L 147.437045 -19.221603 
L 149.317169 -19.753746 
L 149.848919 -18.495597 
L 150.500609 -17.876842 
L 151.553075 -17.223738 
L 152.956649 -16.893575 
L 154.581746 -17.319234 
L 155.051005 -17.105953 
L 155.363748 -17.408101 
L 156.71708 -17.078538 
L 157.578859 -17.397255 
L 157.964861 -17.984084 
L 158.365202 -16.817508 
L 158.749322 -16.760724 
L 158.285713 -17.24332 
L 159.0389 -16.732106 
L 160.431903 -16.737077 
L 162.231453 -15.374026 
L 161.869947 -14.838411 
L 162.468294 -14.405422 
L 162.088765 -14.008495 
L 162.586896 -12.923013 
L 162.312362 -11.528115 
L 162.772985 -10.980451 
L 162.570532 -9.808982 
L 163.192232 -9.15094 
L 162.98132 -8.68247 
L 163.463272 -7.974499 
L 164.855801 -7.056493 
L 164.10097 -6.547564 
L 163.868175 -5.846193 
L 164.273634 -5.766999 
L 164.221227 -5.5583 
L 159.574746 -5.715734 
L 158.275814 -5.508756 
L 158.071062 -5.406415 
L 158.46566 -4.465984 
L 155.506319 -3.922703 
L 155.456585 -2.965489 
L 154.952355 -2.772718 
L 154.853978 -2.154658 
L 155.250427 -2.17742 
L 155.879347 -1.361511 
L 155.506319 -0.921707 
L 155.556057 -0.456036 
L 152.96974 0.294212 
L 150.109875 2.260379 
L 148.816714 3.94197 
L 148.170138 3.94197 
L 148.045796 3.605651 
L 146.205532 3.735004 
L 144.390137 4.226547 
L 143.09698 3.993713 
L 142.375797 4.459384 
L 141.294067 4.486207 
L 137.685961 6.946023 
L 137.633373 10.83373 
L 137.154247 10.833637 
L 137.236557 12.837314 
L 135.036979 12.956583 
L 133.596547 13.838627 
L 132.832063 13.614529 
L 132.053697 13.798837 
L 130.252033 13.209662 
L 127.993244 13.715626 
L 128.187791 14.641095 
L 126.834428 16.600488 
L 125.614747 17.019799 
L 124.297703 21.314287 
L 122.304898 22.648254 
L 121.166858 24.459305 
L 119.102616 25.533023 
L 118.3556 27.720057 
L 117.928168 30.644516 
L 116.470454 32.307409 
L 116.541709 32.715911 
L 116.043023 33.641284 
L 115.259509 33.861843 
L 111.452628 33.641284 
z
" clip-path="url(#p80e94292ee)" style="fill: #eeeeee; stroke: #000000; stroke-width: 0.3"/>
    <path d="M 107.664382 36.001457 
L 107.987836 33.937839 
L 111.452628 33.641284 
L 115.259509 33.861843 
L 116.043023 33.641284 
L 116.541709 32.715911 
L 116.470454 32.307409 
L 117.928168 30.644516 
L 118.3556 27.720057 
L 119.102616 25.533023 
L 121.166858 24.459305 
L 122.304898 22.648254 
L 124.297703 21.314287 
L 125.614747 17.019799 
L 126.834428 16.600488 
L 128.187791 14.641095 
L 127.993244 13.715626 
L 130.252033 13.209662 
L 132.053697 13.798837 
L 132.832063 13.614529 
L 133.596547 13.838627 
L 135.036979 12.956583 
L 137.236557 12.837314 
L 137.154247 10.833637 
L 137.633373 10.83373 
L 137.614617 16.983837 
L 125.773807 17.002775 
L 125.759463 26.382547 
L 123.624148 27.086498 
L 122.215716 28.02239 
L 121.728064 28.755322 
L 122.215716 34.258196 
L 108.18323 34.260302 
L 107.834363 36.35527 
z
" clip-path="url(#p80e94292ee)" style="fill: #eeeeee; stroke: #000000; stroke-width: 0.3"/>
    <path d="M 135.508547 -46.148775 
L 136.119839 -46.467644 
L 135.728913 -46.520212 
L 136.743298 -46.816186 
L 136.545808 -46.992865 
L 137.108163 -47.208257 
L 137.595228 -47.031274 
L 138.884709 -47.446843 
L 139.313574 -47.104627 
L 139.437367 -47.486307 
L 138.975638 -47.614941 
L 139.461692 -47.766467 
L 138.876169 -47.690553 
L 138.948997 -48.044518 
L 140.386884 -48.781965 
L 140.565408 -48.418664 
L 141.180468 -48.882281 
L 141.15904 -48.637217 
L 142.313722 -48.462644 
L 142.655277 -48.022374 
L 143.46218 -48.0159 
L 143.461166 -47.719019 
L 143.819228 -48.040298 
L 146.932021 -48.054005 
L 147.704032 -48.399234 
L 148.32575 -48.022374 
L 149.334922 -48.000534 
L 149.263542 -47.820238 
L 152.580778 -47.365206 
L 154.911285 -47.784994 
L 155.116161 -47.719019 
L 154.966595 -47.520196 
L 155.791307 -47.863619 
L 156.31761 -47.67338 
L 156.212348 -47.472 
L 157.823984 -47.133097 
L 158.042759 -47.539778 
L 158.676351 -47.620213 
L 158.952462 -47.305712 
L 160.956615 -47.009134 
L 162.1441 -47.374101 
L 162.310341 -47.02239 
L 163.533883 -46.845926 
L 163.343015 -46.112036 
L 163.951842 -46.349334 
L 164.436184 -45.966366 
L 165.82485 -45.747147 
L 166.503188 -45.103549 
L 167.379378 -45.362173 
L 168.389436 -44.779694 
L 169.129923 -44.93263 
L 169.507887 -44.718767 
L 170.864837 -44.790214 
L 170.863364 -45.347063 
L 171.420524 -45.321906 
L 173.305299 -44.866729 
L 173.680049 -43.852408 
L 174.602024 -44.104624 
L 175.677359 -43.528264 
L 176.631701 -43.830124 
L 177.476447 -43.448977 
L 178.966986 -43.984111 
L 179.846842 -43.840703 
L 179.869537 -43.537274 
L 180.333437 -43.439068 
L 179.625715 -43.051665 
L 180.029091 -42.043697 
L 178.964456 -41.179099 
L 176.595883 -40.202481 
L 176.109103 -39.66581 
L 172.148286 -38.733457 
L 171.069326 -37.857732 
L 171.581299 -37.380407 
L 170.93728 -36.932156 
L 170.636123 -36.994815 
L 171.135062 -37.185953 
L 170.533032 -37.024184 
L 167.377378 -33.049243 
L 167.965652 -31.146275 
L 169.362566 -30.184245 
L 166.713818 -28.689161 
L 166.73452 -28.203704 
L 166.308701 -28.037867 
L 165.821053 -26.68196 
L 165.481672 -26.483437 
L 166.018254 -26.028257 
L 163.817715 -25.815249 
L 162.582438 -25.079782 
L 162.077706 -24.50139 
L 161.76598 -23.51722 
L 160.960525 -22.759135 
L 160.124373 -23.13072 
L 159.415928 -23.064145 
L 158.855598 -22.557903 
L 158.090537 -22.815616 
L 152.860073 -22.712742 
L 151.948926 -21.912332 
L 150.072616 -21.555354 
L 149.530974 -20.555596 
L 149.222568 -20.698611 
L 149.175655 -20.265722 
L 148.559584 -20.057108 
L 147.047275 -20.734762 
L 146.075024 -22.010386 
L 146.354465 -21.782946 
L 146.539938 -21.934172 
L 145.773721 -22.390859 
L 145.636171 -22.813961 
L 145.948334 -22.97603 
L 145.974683 -23.304538 
L 146.383711 -23.373375 
L 146.484916 -23.48363 
L 145.951519 -23.369458 
L 145.797465 -23.024833 
L 145.400458 -23.585601 
L 144.000936 -24.351519 
L 144.143987 -24.827788 
L 143.753061 -24.600499 
L 143.874392 -24.372907 
L 142.14519 -24.44867 
L 141.789626 -25.961133 
L 142.649452 -27.351533 
L 143.534471 -27.520157 
L 143.806613 -28.164521 
L 143.251478 -28.079204 
L 142.341637 -29.088935 
L 142.657543 -30.166669 
L 143.420281 -30.602146 
L 143.714855 -31.189985 
L 142.701492 -31.920525 
L 142.504187 -32.831645 
L 141.636821 -33.654769 
L 143.544583 -33.707374 
L 144.047863 -34.874061 
L 143.466436 -35.511443 
L 144.351269 -36.159346 
L 144.12822 -36.476698 
L 144.273855 -38.011808 
L 143.824451 -38.600987 
L 144.315964 -38.780228 
L 144.877166 -39.532382 
L 146.035431 -40.063215 
L 146.445302 -40.652775 
L 145.25118 -40.980839 
L 145.312781 -41.752701 
L 145.009378 -42.104009 
L 143.102535 -42.197166 
L 142.841793 -41.795741 
L 142.044486 -41.525161 
L 141.050612 -41.870534 
L 140.429463 -41.717598 
L 140.395627 -41.924576 
L 139.422529 -41.542759 
L 139.242329 -41.89062 
L 139.723174 -42.394959 
L 139.335557 -42.500936 
L 139.270276 -42.812168 
L 137.830859 -42.432358 
L 136.925729 -41.848491 
L 136.875055 -42.684296 
L 137.120471 -42.726622 
L 137.845711 -43.529745 
L 136.97467 -43.192648 
L 137.729881 -43.877232 
L 137.059802 -43.737903 
L 136.707391 -43.980709 
L 137.120471 -43.953143 
L 137.460578 -44.791813 
L 136.409415 -44.25394 
L 136.39595 -44.863208 
L 136.902852 -45.320047 
L 136.14648 -45.047572 
L 136.024569 -45.639971 
L 135.531566 -45.550349 
z
" clip-path="url(#p80e94292ee)" style="fill: #eeeeee; stroke: #000000; stroke-width: 0.3"/>
    <path d="M 176.892696 -33.272316 
L 178.538356 -34.368399 
L 179.841448 -34.724474 
L 179.547816 -34.519929 
L 179.938746 -34.444014 
L 179.688551 -34.058118 
L 180.890871 -33.913518 
L 180.817897 -33.580342 
L 180.101777 -32.567854 
L 179.419247 -32.134362 
L 179.056407 -32.482904 
L 178.443666 -32.529897 
L 178.070111 -33.206344 
L 177.397716 -32.879042 
z
" clip-path="url(#p80e94292ee)" style="fill: #eeeeee; stroke: #000000; stroke-width: 0.3"/>
    <path d="M 119.183853 6.378884 
L 119.428689 5.700779 
L 120.358372 5.366999 
L 120.551374 4.990591 
L 120.783326 5.105366 
L 120.554705 5.880774 
L 119.513533 6.472571 
z
" clip-path="url(#p80e94292ee)" style="fill: #eeeeee; stroke: #000000; stroke-width: 0.3"/>
    <path d="M 108.33543 8.266479 
L 109.790503 8.010454 
L 110.469212 7.462767 
L 111.176066 7.462767 
L 110.330018 8.169568 
L 109.653042 9.49166 
L 109.130267 9.581041 
z
" clip-path="url(#p80e94292ee)" style="fill: #eeeeee; stroke: #000000; stroke-width: 0.3"/>
    <path d="M 116.907354 9.316936 
L 117.913049 8.771381 
L 118.808996 6.85636 
L 119.336604 7.05669 
L 118.94756 8.676488 
L 117.490557 9.39285 
z
" clip-path="url(#p80e94292ee)" style="fill: #eeeeee; stroke: #000000; stroke-width: 0.3"/>
    <path d="M 182.060757 -34.90718 
L 183.135081 -35.134017 
L 183.960662 -34.348369 
L 183.644158 -34.160693 
L 182.158632 -34.603373 
z
" clip-path="url(#p80e94292ee)" style="fill: #eeeeee; stroke: #000000; stroke-width: 0.3"/>
    <path d="M 172.857169 -30.712931 
L 173.355816 -31.42568 
L 174.2425 -31.47629 
L 174.303308 -31.24644 
L 173.520651 -30.517484 
z
" clip-path="url(#p80e94292ee)" style="fill: #eeeeee; stroke: #000000; stroke-width: 0.3"/>
    <path d="M 112.231282 9.870023 
L 112.640452 8.960864 
L 113.69697 8.915074 
L 113.80889 10.127288 
L 113.096823 10.563794 
z
" clip-path="url(#p80e94292ee)" style="fill: #eeeeee; stroke: #000000; stroke-width: 0.3"/>
    <path d="M 106.815452 9.218966 
L 106.934826 8.813788 
L 107.279811 8.819962 
L 107.686529 9.207476 
L 107.119093 9.489524 
z
" clip-path="url(#p80e94292ee)" style="fill: #eeeeee; stroke: #000000; stroke-width: 0.3"/>
    <path d="M 104.48976 6.692782 
L 104.794604 6.413221 
L 105.347486 6.550595 
L 105.471042 6.875842 
L 105.0582 7.894753 
z
" clip-path="url(#p80e94292ee)" style="fill: #eeeeee; stroke: #000000; stroke-width: 0.3"/>
    <path d="M 165.843207 -26.601526 
L 165.894318 -26.335225 
L 165.942964 -26.197254 
L 165.870282 -26.266088 
z
" clip-path="url(#p80e94292ee)" style="fill: #eeeeee; stroke: #000000; stroke-width: 0.3"/>
    <path d="M 103.907713 10.608229 
L 104.71346 10.128191 
L 104.908053 10.267065 
L 104.55144 10.903748 
z
" clip-path="url(#p80e94292ee)" style="fill: #eeeeee; stroke: #000000; stroke-width: 0.3"/>
    <path d="M 178.895507 -31.700865 
L 179.1338 -31.825232 
L 179.068227 -31.56797 
z
" clip-path="url(#p80e94292ee)" style="fill: #eeeeee; stroke: #000000; stroke-width: 0.3"/>
    <path d="M 175.457808 -43.913812 
L 175.490171 -44.026866 
L 175.64279 -43.886649 
z
" clip-path="url(#p80e94292ee)" style="fill: #eeeeee; stroke: #000000; stroke-width: 0.3"/>
    <path d="M 173.448933 -29.813356 
L 173.62107 -30.230938 
L 174.155048 -29.854078 
z
" clip-path="url(#p80e94292ee)" style="fill: #eeeeee; stroke: #000000; stroke-width: 0.3"/>
    <path d="M 159.876252 -16.99324 
L 159.88344 -17.020158 
L 159.89373 -17.005633 
z
" clip-path="url(#p80e94292ee)" style="fill: #eeeeee; stroke: #000000; stroke-width: 0.3"/>
    <path d="M 157.981973 -17.390999 
L 158.1305 -17.397559 
L 158.16293 -17.356588 
z
" clip-path="url(#p80e94292ee)" style="fill: #eeeeee; stroke: #000000; stroke-width: 0.3"/>
    <path d="M 154.645917 -17.135952 
L 154.650738 -17.137958 
L 154.651219 -17.135826 
z
" clip-path="url(#p80e94292ee)" style="fill: #eeeeee; stroke: #000000; stroke-width: 0.3"/>
    <path d="M 154.641558 -17.126579 
L 154.642284 -17.130717 
L 154.643607 -17.129085 
z
" clip-path="url(#p80e94292ee)" style="fill: #eeeeee; stroke: #000000; stroke-width: 0.3"/>
    <path d="M 153.22054 -16.970652 
L 153.23187 -16.970459 
L 153.238279 -16.969116 
z
" clip-path="url(#p80e94292ee)" style="fill: #eeeeee; stroke: #000000; stroke-width: 0.3"/>
    <path d="M 149.317169 -19.753746 
L 149.729182 -19.706308 
L 149.389965 -19.59525 
z
" clip-path="url(#p80e94292ee)" style="fill: #eeeeee; stroke: #000000; stroke-width: 0.3"/>
    <path d="M 149.238954 -19.715859 
L 149.256283 -19.713127 
L 149.249458 -19.703292 
z
" clip-path="url(#p80e94292ee)" style="fill: #eeeeee; stroke: #000000; stroke-width: 0.3"/>
    <path d="M 120.344039 5.029603 
L 120.461751 4.807286 
L 120.519232 4.9805 
z
" clip-path="url(#p80e94292ee)" style="fill: #eeeeee; stroke: #000000; stroke-width: 0.3"/>
    <path d="M 121.198577 79.759394 
L 121.857515 79.750306 
L 122.415316 79.254669 
L 122.419732 78.90451 
L 123.109189 78.625993 
L 124.147564 76.650816 
L 124.843555 76.473104 
L 125.325321 76.67444 
L 126.106629 76.499216 
L 126.148187 76.238963 
L 128.506641 76.235713 
L 129.791047 77.808892 
L 129.985224 78.461385 
L 130.542566 78.778548 
L 130.289178 79.602723 
L 130.830892 79.712715 
L 130.811033 80.596388 
L 131.23028 81.125403 
L 130.32853 82.551191 
L 131.94061 81.820747 
L 131.802883 82.936835 
L 130.766718 83.496745 
L 130.755868 84.46965 
L 128.257851 86.52584 
L 127.692169 87.614683 
L 126.399069 86.76487 
L 124.025706 85.873332 
L 124.513639 85.873332 
L 124.087386 85.668938 
L 124.304133 85.341181 
L 125.174164 85.085271 
L 124.178165 85.236045 
L 123.892789 84.897142 
L 124.220011 84.450998 
L 123.686614 84.785232 
L 122.491097 84.035281 
L 122.905917 83.920354 
L 122.583908 83.501172 
L 122.711609 83.233364 
L 122.369332 82.675002 
L 121.686656 82.980619 
L 121.249543 81.762982 
L 122.150556 82.220273 
L 121.856782 81.863898 
L 122.733617 81.507827 
L 122.514987 81.457217 
L 122.711609 81.07825 
L 122.049931 81.455862 
L 122.174881 81.204623 
L 121.70881 81.130967 
L 121.887476 81.463995 
L 121.692015 81.698513 
L 121.415179 80.557697 
L 122.320828 80.441867 
L 121.806108 80.416111 
L 122.00273 80.13836 
L 121.320054 80.090312 
z
" clip-path="url(#p80e94292ee)" style="fill: #eeeeee; stroke: #000000; stroke-width: 0.3"/>
    <path d="M 122.442014 85.186339 
L 123.617113 84.948356 
L 124.074064 85.213754 
L 123.872375 85.874083 
L 123.67358 85.544524 
z
" clip-path="url(#p80e94292ee)" style="fill: #eeeeee; stroke: #000000; stroke-width: 0.3"/>
    <path d="M 114.870621 73.032571 
L 116.181488 70.667704 
L 116.857982 70.610986 
L 117.680848 70.033667 
L 118.657807 70.151123 
L 119.174053 69.756679 
L 119.672647 69.881975 
L 119.693975 68.797544 
L 118.809419 68.246818 
L 119.28098 67.78198 
L 119.796857 67.723445 
L 119.678529 66.315158 
L 121.997908 66.453847 
L 122.084977 67.059665 
L 122.579062 66.822463 
L 124.544013 67.676577 
L 125.458267 67.299928 
L 127.67274 67.222644 
L 128.003727 67.384668 
L 127.579698 68.098568 
L 128.195698 68.710891 
L 128.706333 68.754504 
L 129.200422 68.058205 
L 129.556968 67.995461 
L 130.413666 69.213605 
L 131.124363 68.370774 
L 131.995038 68.001584 
L 133.930566 68.713759 
L 134.267989 68.177952 
L 135.304706 67.808954 
L 135.403082 67.483566 
L 135.035139 67.122216 
L 135.557175 66.974733 
L 136.588931 67.44301 
L 136.523561 67.975568 
L 137.222584 69.085056 
L 137.046793 70.074031 
L 137.476338 70.105403 
L 137.724576 70.671913 
L 138.72599 71.148608 
L 137.568096 72.589321 
L 138.070458 72.614667 
L 138.261877 72.314147 
L 138.89939 72.421271 
L 139.049437 74.318782 
L 140.163938 75.168118 
L 139.442943 76.426429 
L 139.50068 77.947866 
L 139.869179 78.472672 
L 140.540525 78.39558 
L 140.312145 79.232289 
L 140.962533 79.629982 
L 140.304054 79.925719 
L 140.17203 80.60576 
L 141.140345 81.301678 
L 141.262626 82.227047 
L 140.688365 81.845804 
L 140.539788 82.056705 
L 140.166329 81.775123 
L 139.175946 81.935711 
L 139.115081 82.704127 
L 140.049748 82.933392 
L 140.194461 83.55853 
L 139.815669 83.50631 
L 139.348979 85.182974 
L 138.585505 85.047543 
L 138.334142 85.250885 
L 138.042507 84.76883 
L 137.618478 84.746065 
L 137.009096 86.305662 
L 136.056964 86.612304 
L 135.669343 85.904907 
L 134.757111 85.924419 
L 135.238326 84.570078 
L 134.61681 82.928036 
L 134.727139 82.343258 
L 134.093301 82.165358 
L 134.188369 81.894107 
L 133.933693 82.00209 
L 133.750547 81.530559 
L 132.725413 82.051923 
L 132.418331 81.67393 
L 131.611463 81.783156 
L 130.972295 82.460329 
L 130.32853 82.551191 
L 131.23028 81.125403 
L 130.811033 80.596388 
L 130.830892 79.712715 
L 130.289178 79.602723 
L 130.542566 78.778548 
L 129.985224 78.461385 
L 128.676361 76.277317 
L 126.148187 76.238963 
L 126.106629 76.499216 
L 125.325321 76.67444 
L 124.843555 76.473104 
L 124.147564 76.650816 
L 123.109189 78.625993 
L 122.419732 78.90451 
L 122.415316 79.254669 
L 121.857515 79.750306 
L 121.198577 79.759394 
L 121.70881 79.22634 
L 121.346549 79.186121 
L 121.441531 78.923137 
L 121.148046 79.238993 
L 121.198577 78.592067 
L 120.818941 78.850535 
L 120.858613 78.286602 
L 120.441045 78.248644 
L 120.538198 77.806416 
L 120.321885 78.061419 
L 120.176083 77.806416 
L 119.685834 78.021204 
L 120.273382 76.99516 
L 119.952821 76.793024 
L 119.676276 77.158587 
L 119.83149 76.409386 
L 119.270871 76.726601 
L 118.504073 76.117632 
L 118.711989 75.472061 
L 118.166572 76.005267 
L 118.221448 75.547976 
L 117.92029 75.818493 
L 117.84384 75.536379 
L 117.101367 75.416932 
L 116.807882 74.330039 
L 116.371057 74.436075 
L 116.931675 72.912677 
L 116.221494 73.830571 
L 116.393933 73.213019 
L 116.006191 73.622409 
L 116.076849 72.983768 
L 115.83404 73.163012 
L 115.794803 72.835255 
L 116.346444 72.377061 
L 116.273616 72.273883 
L 115.710247 72.629955 
L 115.443114 72.402366 
L 115.297166 73.367406 
z
" clip-path="url(#p80e94292ee)" style="fill: #eeeeee; stroke: #000000; stroke-width: 0.3"/>
    <path d="M 127.692169 87.614683 
L 128.257851 86.52584 
L 130.755868 84.46965 
L 130.766718 83.496745 
L 131.802883 82.936835 
L 131.94061 81.820747 
L 132.620785 81.726439 
L 132.725413 82.051923 
L 133.750547 81.530559 
L 133.933693 82.00209 
L 134.188369 81.894107 
L 134.093301 82.165358 
L 134.727139 82.343258 
L 134.61681 82.928036 
L 135.238326 84.570078 
L 134.757111 85.924419 
L 135.669343 85.904907 
L 136.056964 86.612304 
L 136.815656 86.390405 
L 137.618478 84.746065 
L 138.042507 84.76883 
L 138.547075 85.458437 
L 139.05054 87.250261 
L 138.86059 88.140911 
L 137.859912 89.193777 
L 138.573186 89.347865 
L 138.596173 89.759425 
L 140.366207 90.012218 
L 140.820759 91.172971 
L 141.860603 91.735561 
L 142.030879 91.588362 
L 142.232963 93.545845 
L 141.570993 94.453042 
L 141.664405 95.038586 
L 141.465261 95.099512 
L 141.69596 97.115401 
L 139.145906 96.274602 
L 136.129685 94.602987 
L 131.757959 90.514477 
L 130.139811 89.933675 
L 130.242753 89.521871 
L 128.129866 88.422626 
z
" clip-path="url(#p80e94292ee)" style="fill: #eeeeee; stroke: #000000; stroke-width: 0.3"/>
    <path d="M 137.859912 89.193777 
L 138.809842 88.222019 
L 139.04153 87.339402 
L 138.334142 85.250885 
L 138.585505 85.047543 
L 139.246742 85.301577 
L 139.815669 83.50631 
L 140.194461 83.55853 
L 140.049748 82.933392 
L 139.115081 82.704127 
L 139.156272 81.961823 
L 140.166329 81.775123 
L 141.262626 82.227047 
L 141.140345 81.301678 
L 140.17203 80.60576 
L 140.304054 79.925719 
L 140.962533 79.629982 
L 140.312145 79.232289 
L 140.540525 78.39558 
L 139.869179 78.472672 
L 139.50068 77.947866 
L 139.442943 76.426429 
L 140.098291 75.611623 
L 140.669976 75.427793 
L 141.255638 74.593094 
L 141.835414 74.513518 
L 142.326742 75.277725 
L 143.563706 75.689766 
L 143.757701 74.934643 
L 144.797915 74.874868 
L 144.796994 73.789767 
L 145.591176 74.166994 
L 145.658659 73.671549 
L 146.267304 73.522056 
L 146.450632 73.880629 
L 146.248363 74.308262 
L 146.535587 74.655742 
L 146.324123 75.278684 
L 147.12143 75.508423 
L 147.612024 74.819202 
L 148.62263 74.530924 
L 149.304092 75.098677 
L 150.253652 75.084903 
L 150.486998 75.80349 
L 150.866894 76.062018 
L 150.857148 76.577644 
L 151.453567 76.794187 
L 151.460736 77.120052 
L 151.871251 77.388145 
L 152.48017 77.154963 
L 152.509501 77.488287 
L 152.973985 77.755043 
L 153.760072 76.883901 
L 155.166394 76.448621 
L 156.724413 76.576496 
L 156.779393 76.799351 
L 157.088866 76.523606 
L 158.527639 78.391182 
L 158.958931 78.103863 
L 159.058777 78.973088 
L 158.65424 79.709465 
L 159.207169 80.195726 
L 159.609685 82.840043 
L 159.238429 83.004454 
L 159.238799 83.466616 
L 158.598065 83.824616 
L 158.061134 85.179916 
L 157.949795 86.520676 
L 157.052639 87.873869 
L 156.91896 88.733629 
L 157.747156 92.112883 
L 157.978297 92.092413 
L 158.045688 92.468111 
L 158.615992 92.517177 
L 158.683479 94.123734 
L 157.357909 94.192993 
L 157.123353 93.910423 
L 157.333297 93.354474 
L 156.920508 93.457952 
L 156.742272 94.275837 
L 155.285996 93.836922 
L 154.908534 93.988448 
L 154.287826 93.733292 
L 155.259501 93.733292 
L 155.30641 93.67485 
L 155.152645 93.364265 
L 154.988891 93.328114 
L 155.205784 93.705578 
L 154.628079 93.430237 
L 154.333583 93.723653 
L 153.848251 93.581767 
L 153.437053 93.668823 
L 153.31775 93.563388 
L 152.680247 93.761155 
L 152.289175 93.60933 
L 151.849599 93.862223 
L 151.898394 93.558872 
L 151.417553 94.05171 
L 153.640627 93.682683 
L 154.309834 93.862223 
L 151.11842 94.243603 
L 150.701721 93.920062 
L 149.592354 93.867646 
L 149.316678 94.194196 
L 150.071313 94.111807 
L 149.923629 93.963143 
L 150.727782 94.243603 
L 147.707216 94.608862 
L 143.964449 95.970947 
L 141.994467 97.147913 
L 141.578163 97.031935 
L 141.570993 94.453042 
L 142.232963 93.545845 
L 142.030879 91.588362 
L 141.860603 91.735561 
L 140.820759 91.172971 
L 140.366207 90.012218 
L 138.596173 89.759425 
L 138.573186 89.347865 
z
" clip-path="url(#p80e94292ee)" style="fill: #eeeeee; stroke: #000000; stroke-width: 0.3"/>
    <path d="M 156.869685 94.282615 
L 157.019977 94.114669 
L 157.42741 94.381725 
z
" clip-path="url(#p80e94292ee)" style="fill: #eeeeee; stroke: #000000; stroke-width: 0.3"/>
    <path d="M 124.888421 58.535825 
L 125.57779 58.685892 
L 126.467403 58.072996 
L 126.377484 57.03983 
L 126.799493 55.699455 
L 127.198696 55.699455 
L 127.520673 55.320793 
L 129.68844 57.321793 
L 130.363835 56.099636 
L 132.704266 56.352522 
L 134.99487 56.071992 
L 134.895942 55.524901 
L 135.234831 55.11946 
L 135.260576 55.867983 
L 148.918311 55.87334 
L 149.479332 52.846155 
L 148.518372 52.047133 
L 145.067667 20.707321 
L 151.371188 20.703875 
L 172.607657 35.115945 
L 172.63634 36.459385 
L 174.077967 36.982374 
L 174.855045 38.067763 
L 175.898017 38.404723 
L 176.359188 38.18024 
L 177.069337 38.98481 
L 179.910294 39.858532 
L 180.130948 41.458397 
L 179.573422 42.394193 
L 180.216639 42.911637 
L 183.574668 42.369325 
L 183.415793 52.460895 
L 182.976687 52.896657 
L 182.302946 55.056716 
L 181.076465 55.866836 
L 181.007324 56.392408 
L 179.322241 56.124119 
L 179.203457 56.447401 
L 173.265951 56.652849 
L 171.99276 57.735078 
L 170.912276 57.925797 
L 169.315272 57.717769 
L 169.305344 58.032251 
L 167.685724 57.459811 
L 167.013086 57.693089 
L 166.863039 57.406918 
L 165.96699 57.412274 
L 164.690123 58.456534 
L 162.489808 59.567936 
L 161.421828 59.662052 
L 161.283549 60.733567 
L 160.870924 60.826439 
L 159.768556 60.36457 
L 159.285687 60.581494 
L 158.325278 61.402418 
L 158.225798 62.693923 
L 157.612834 62.860059 
L 156.831984 62.523193 
L 156.968332 64.022345 
L 156.25699 64.122291 
L 156.253678 64.481249 
L 154.39575 63.67448 
L 154.586617 63.436419 
L 154.361455 63.259093 
L 153.045514 64.668141 
L 153.540795 65.77543 
L 153.377971 66.139172 
L 152.568068 66.162318 
L 152.916796 66.831262 
L 152.68768 67.196439 
L 152.849587 67.669692 
L 152.557677 67.620722 
L 152.30043 68.25447 
L 151.585868 68.783389 
L 150.418594 68.884582 
L 149.269157 69.442578 
L 149.7147 69.700247 
L 149.959629 70.946702 
L 149.553252 72.05954 
L 148.942216 72.240501 
L 149.201304 73.084477 
L 149.022573 74.229642 
L 148.876939 74.63623 
L 147.612024 74.819202 
L 147.12143 75.508423 
L 146.324123 75.278684 
L 146.535587 74.655742 
L 146.248363 74.308262 
L 146.450632 73.880629 
L 146.267304 73.522056 
L 145.658659 73.671549 
L 145.591176 74.166994 
L 144.796994 73.789767 
L 144.797915 74.874868 
L 143.757701 74.934643 
L 143.563706 75.689766 
L 142.326742 75.277725 
L 141.835414 74.513518 
L 141.255638 74.593094 
L 140.669976 75.427793 
L 140.098291 75.611623 
L 140.074756 74.996144 
L 139.247108 74.643881 
L 139.009904 74.221798 
L 138.89939 72.421271 
L 138.261877 72.314147 
L 138.070458 72.614667 
L 137.584094 72.647471 
L 138.72599 71.148608 
L 137.724576 70.671913 
L 137.476338 70.105403 
L 137.046793 70.074031 
L 137.144433 68.761008 
L 136.78035 68.639921 
L 136.588931 67.44301 
L 135.978998 67.084725 
L 135.086443 67.05603 
L 135.403082 67.483566 
L 135.304706 67.808954 
L 134.267989 68.177952 
L 133.930566 68.713759 
L 131.995038 68.001584 
L 131.124363 68.370774 
L 130.413666 69.213605 
L 129.556968 67.995461 
L 129.200422 68.058205 
L 128.706333 68.754504 
L 128.195698 68.710891 
L 127.579698 68.098568 
L 128.003727 67.384668 
L 128.042342 67.030207 
L 127.722019 66.795874 
L 128.002991 65.215139 
L 127.489779 64.692243 
L 127.204947 63.77051 
L 126.749107 63.596529 
L 126.439822 63.968685 
L 125.480883 62.498613 
L 125.960262 62.035688 
L 125.836878 60.78933 
L 125.039294 59.95616 
L 125.241103 59.0284 
z
" clip-path="url(#p80e94292ee)" style="fill: #eeeeee; stroke: #000000; stroke-width: 0.3"/>
    <path d="M 106.129339 58.600778 
L 107.421282 58.069835 
L 108.46998 56.839845 
L 109.693874 54.799207 
L 109.936899 53.356709 
L 110.544993 52.110832 
L 111.124403 51.947468 
L 112.761491 52.219103 
L 113.502345 51.848569 
L 114.708234 51.843979 
L 114.770572 51.537914 
L 115.244799 51.441696 
L 117.264729 51.554939 
L 118.790478 52.749936 
L 119.296057 53.554695 
L 119.674483 53.299514 
L 119.889625 53.609599 
L 120.544425 53.427297 
L 121.145804 54.258457 
L 121.423647 55.394919 
L 121.87958 55.494965 
L 121.971623 55.878696 
L 122.39693 55.817958 
L 122.881824 56.651894 
L 122.667233 56.774032 
L 124.102882 57.638763 
L 125.241103 59.0284 
L 125.039294 59.95616 
L 125.836878 60.78933 
L 125.960262 62.035688 
L 125.480883 62.498613 
L 126.439822 63.968685 
L 126.749107 63.596529 
L 127.204947 63.77051 
L 127.489779 64.692243 
L 127.986626 65.177167 
L 127.722019 66.795874 
L 128.00446 67.312743 
L 125.458267 67.299928 
L 124.544013 67.676577 
L 122.579062 66.822463 
L 122.084977 67.059665 
L 121.943662 66.445429 
L 114.459078 66.292778 
L 112.744205 67.181707 
L 110.803714 67.123364 
L 109.003043 67.576912 
L 108.745656 66.977528 
L 109.532145 66.465407 
L 109.697347 66.715143 
L 110.275052 66.771024 
L 111.489097 66.464807 
L 112.164389 66.745719 
L 112.557198 66.618291 
L 112.859081 66.819072 
L 113.3392 66.454261 
L 113.250011 65.90931 
L 113.705802 65.847555 
L 113.759952 65.705065 
L 113.198174 65.867436 
L 113.223078 66.403955 
L 112.872404 66.736831 
L 112.421676 66.492822 
L 111.903484 66.582292 
L 111.516318 66.109336 
L 111.321725 66.442516 
L 110.275052 66.718152 
L 109.811152 66.187357 
L 109.786828 66.492822 
L 109.33668 66.329998 
L 109.493054 65.987031 
L 109.471046 65.856439 
L 109.292088 66.467517 
L 108.909847 66.689686 
L 108.829924 66.297916 
L 109.107917 66.081921 
L 108.761875 66.159946 
L 108.737839 65.794535 
L 109.074316 64.526107 
L 112.188152 64.525533 
L 112.240188 63.871511 
L 114.167443 63.698389 
L 114.663553 62.922226 
L 117.399237 64.233623 
L 119.065471 63.941714 
L 119.356737 63.516761 
L 118.7526 62.962304 
L 117.410911 63.422453 
L 116.780938 62.733998 
L 116.075205 62.827921 
L 115.582955 62.21665 
L 114.881819 62.074616 
L 113.751135 62.250221 
L 113.309456 62.947668 
L 109.597415 62.933549 
L 109.784219 62.366055 
L 109.464096 62.684469 
L 109.354202 62.291043 
L 109.614673 61.975787 
L 109.861972 62.127617 
L 109.861972 61.394685 
L 109.104006 62.259412 
L 108.937645 61.584472 
L 109.544019 61.445295 
L 109.493054 61.243008 
L 110.297206 60.783307 
L 109.927128 60.686907 
L 109.267329 61.394234 
L 109.029296 61.344076 
L 109.274132 61.036052 
L 109.004971 61.164987 
L 108.837165 62.001092 
L 108.798216 61.183362 
L 108.191411 59.960302 
L 107.239286 58.848704 
L 106.551543 58.67368 
L 106.471762 58.984416 
z
" clip-path="url(#p80e94292ee)" style="fill: #eeeeee; stroke: #000000; stroke-width: 0.3"/>
    <path d="M 137.633373 12.225658 
L 137.646243 7.015845 
L 141.415612 4.437237 
L 142.375797 4.459384 
L 143.09698 3.993713 
L 144.390137 4.226547 
L 145.708163 3.786746 
L 148.045796 3.605651 
L 148.170138 3.94197 
L 148.816714 3.94197 
L 150.109875 2.260379 
L 152.96974 0.294212 
L 155.556057 -0.456036 
L 155.506319 -0.921707 
L 155.879347 -1.361511 
L 155.250427 -2.17742 
L 154.853978 -2.154658 
L 154.952355 -2.772718 
L 155.456585 -2.965489 
L 155.506319 -3.922703 
L 158.46566 -4.465984 
L 158.071062 -5.406415 
L 158.275814 -5.508756 
L 159.574746 -5.715734 
L 164.221227 -5.5583 
L 164.273634 -5.766999 
L 163.868175 -5.846193 
L 164.10097 -6.547564 
L 164.855801 -7.056493 
L 163.463272 -7.974499 
L 162.98132 -8.68247 
L 163.192232 -9.15094 
L 162.570532 -9.808982 
L 162.772985 -10.980451 
L 162.312362 -11.528115 
L 162.586896 -12.923013 
L 162.088765 -14.008495 
L 162.468294 -14.405422 
L 161.869947 -14.838411 
L 162.231453 -15.374026 
L 160.721795 -16.344829 
L 160.619405 -16.662066 
L 162.2613 -16.811334 
L 163.920568 -17.681029 
L 164.852425 -18.858298 
L 165.675397 -19.196298 
L 166.298855 -19.007718 
L 166.821827 -19.626174 
L 168.232351 -19.272061 
L 169.745966 -20.795611 
L 173.319909 -22.050602 
L 176.895592 -22.396131 
L 177.782273 -22.240688 
L 178.964901 -23.026339 
L 179.701581 -22.778565 
L 180.01172 -23.040195 
L 180.912587 -22.910357 
L 182.312397 -23.428501 
L 185.562018 -23.34777 
L 187.402564 -22.413455 
L 188.930366 -23.114303 
L 190.578919 -23.373375 
L 191.357299 -24.079043 
L 193.253151 -23.327885 
L 194.264931 -23.612261 
L 194.228444 -24.067294 
L 196.277773 -23.711223 
L 196.188293 -23.327585 
L 196.6687 -23.178017 
L 197.824107 -23.579727 
L 199.13835 -23.511008 
L 199.277889 -23.129162 
L 198.464403 -22.935003 
L 198.52582 -22.486041 
L 197.599058 -21.979696 
L 198.267284 -21.626378 
L 197.853552 -19.395542 
L 198.19373 -18.322779 
L 198.041844 -17.534852 
L 198.529129 -17.226299 
L 198.063542 -16.582031 
L 197.835899 -15.027217 
L 196.395009 -14.163726 
L 196.159275 -13.535623 
L 195.277384 -12.981548 
L 195.143516 -12.237041 
L 196.015846 -9.784687 
L 197.303381 -9.277098 
L 198.001023 -8.322364 
L 198.173134 -7.179494 
L 200.712894 -5.492306 
L 202.402023 1.329714 
L 201.572354 1.743476 
L 202.928656 3.626929 
L 203.492435 5.402972 
L 203.31738 8.589979 
L 203.877113 10.219398 
L 203.119524 12.201749 
L 203.778921 13.809742 
L 203.742146 14.567446 
L 203.526637 15.117409 
L 202.269996 15.678847 
L 201.897085 16.358507 
L 204.139328 19.458764 
L 204.225016 21.217399 
L 204.799092 21.611268 
L 204.973043 22.184374 
L 205.571757 22.635343 
L 206.598546 22.328704 
L 209.595801 23.286022 
L 211.116864 26.173945 
L 195.153814 35.964133 
L 189.145882 41.230857 
L 180.388014 42.986337 
L 179.573422 42.394193 
L 180.130948 41.458397 
L 179.910294 39.858532 
L 177.069337 38.98481 
L 176.359188 38.18024 
L 175.898017 38.404723 
L 174.855045 38.067763 
L 174.077967 36.982374 
L 172.63634 36.459385 
L 172.607657 35.115945 
L 151.371188 20.703875 
z
" clip-path="url(#p80e94292ee)" style="fill: #eeeeee; stroke: #000000; stroke-width: 0.3"/>
    <path d="M 134.73306 -30.434129 
L 135.254733 -31.868723 
L 135.046817 -32.527187 
L 135.728913 -32.641959 
L 136.181409 -33.282651 
L 136.972353 -35.302112 
L 137.268298 -35.27952 
L 136.82901 -35.582875 
L 137.382103 -37.212165 
L 138.023801 -37.636921 
L 137.682972 -37.606945 
L 137.628676 -37.738892 
L 137.76434 -37.889063 
L 137.729881 -37.967687 
L 137.38992 -37.257803 
L 137.754494 -39.1073 
L 137.438424 -39.465936 
L 137.106295 -41.027781 
L 137.584371 -41.214365 
L 136.929109 -41.269414 
L 136.97467 -41.721966 
L 137.830859 -42.432358 
L 139.270276 -42.812168 
L 139.335557 -42.500936 
L 139.723174 -42.394959 
L 139.236995 -41.821661 
L 139.728875 -41.52803 
L 140.395627 -41.924576 
L 140.429463 -41.717598 
L 141.050612 -41.870534 
L 142.044486 -41.525161 
L 142.841793 -41.795741 
L 143.051416 -42.190662 
L 145.009378 -42.104009 
L 145.312781 -41.752701 
L 145.25118 -40.980839 
L 146.445302 -40.652775 
L 146.035431 -40.063215 
L 144.877166 -39.532382 
L 144.315964 -38.780228 
L 143.824451 -38.600987 
L 144.273855 -38.011808 
L 144.12822 -36.476698 
L 144.351269 -36.159346 
L 143.466436 -35.511443 
L 144.047863 -34.874061 
L 143.544583 -33.707374 
L 141.636821 -33.654769 
L 142.504187 -32.831645 
L 142.751138 -31.862563 
L 143.670725 -31.385483 
L 143.246696 -30.498657 
L 142.657543 -30.166669 
L 142.341637 -29.088935 
L 143.251478 -28.079204 
L 143.806613 -28.164521 
L 143.534471 -27.520157 
L 142.649452 -27.351533 
L 141.735013 -25.834402 
L 142.169368 -24.345192 
L 140.703538 -23.730201 
L 137.99716 -24.193818 
L 136.510766 -23.814397 
L 137.384996 -26.440057 
L 137.183887 -26.410836 
L 137.197729 -27.073394 
L 136.877371 -27.260952 
L 137.305969 -28.128663 
L 137.232401 -28.766386 
L 136.707391 -29.218602 
L 137.21994 -29.013905 
L 137.902324 -28.98649 
L 137.442043 -29.10925 
L 137.309706 -29.529334 
L 137.256135 -29.218602 
L 136.83828 -29.333377 
L 135.68258 -28.98649 
L 135.849209 -29.478262 
L 135.604105 -29.900061 
L 136.119839 -29.875618 
L 136.707391 -30.307604 
L 136.46212 -30.817767 
L 137.338955 -31.500088 
L 136.731424 -31.289065 
L 136.14648 -30.509892 
L 136.102881 -30.080327 
L 134.824857 -30.036935 
z
" clip-path="url(#p80e94292ee)" style="fill: #eeeeee; stroke: #000000; stroke-width: 0.3"/>
    <path d="M 76.511959 -26.895845 
L 76.84975 -27.109274 
L 77.599748 -26.806071 
L 78.866353 -26.934706 
L 79.012155 -26.528021 
L 77.770889 -26.351038 
z
" clip-path="url(#p80e94292ee)" style="fill: #eeeeee; stroke: #000000; stroke-width: 0.3"/>
    <path d="M 140.219074 -23.662871 
L 140.559327 -23.736527 
L 140.583651 -23.685918 
L 140.403537 -23.608648 
z
" clip-path="url(#p80e94292ee)" style="fill: #eeeeee; stroke: #000000; stroke-width: 0.3"/>
    <path d="M 109.665205 -7.375255 
L 109.792183 -7.24075 
L 109.861972 -7.046443 
L 109.685042 -7.291959 
z
" clip-path="url(#p80e94292ee)" style="fill: #eeeeee; stroke: #000000; stroke-width: 0.3"/>
    <path d="M 107.139671 -8.241489 
L 107.37886 -8.462299 
L 109.20145 -8.03453 
L 108.119305 -7.622126 
z
" clip-path="url(#p80e94292ee)" style="fill: #eeeeee; stroke: #000000; stroke-width: 0.3"/>
    <path d="M 78.852742 -23.699473 
L 78.964231 -23.792408 
L 79.33257 -23.814397 
L 79.473884 -23.491763 
z
" clip-path="url(#p80e94292ee)" style="fill: #eeeeee; stroke: #000000; stroke-width: 0.3"/>
    <path d="M 71.059824 -30.245701 
L 71.940281 -30.383519 
L 72.382027 -30.004401 
L 71.641003 -29.809795 
z
" clip-path="url(#p80e94292ee)" style="fill: #eeeeee; stroke: #000000; stroke-width: 0.3"/>
    <path d="M 66.9422 -29.393174 
L 67.562762 -29.474357 
L 68.750892 -28.950942 
L 67.260156 -28.93829 
z
" clip-path="url(#p80e94292ee)" style="fill: #eeeeee; stroke: #000000; stroke-width: 0.3"/>
    <path d="M 65.897844 -29.655559 
L 66.725741 -29.648026 
L 66.677095 -29.370279 
L 66.30832 -29.342565 
z
" clip-path="url(#p80e94292ee)" style="fill: #eeeeee; stroke: #000000; stroke-width: 0.3"/>
    <path d="M 57.22085 -32.778574 
L 57.480599 -33.021077 
L 57.752222 -32.704166 
L 57.313949 -32.463925 
z
" clip-path="url(#p80e94292ee)" style="fill: #eeeeee; stroke: #000000; stroke-width: 0.3"/>
    <path d="M 136.219742 -30.472538 
L 136.284753 -30.591377 
L 136.355844 -30.580084 
z
" clip-path="url(#p80e94292ee)" style="fill: #eeeeee; stroke: #000000; stroke-width: 0.3"/>
    <path d="M 112.040742 1.666492 
L 112.109371 1.633206 
L 112.094024 1.683664 
z
" clip-path="url(#p80e94292ee)" style="fill: #eeeeee; stroke: #000000; stroke-width: 0.3"/>
    <path d="M 111.498075 2.067454 
L 111.512845 2.057511 
L 111.513134 2.068808 
z
" clip-path="url(#p80e94292ee)" style="fill: #eeeeee; stroke: #000000; stroke-width: 0.3"/>
    <path d="M 110.177608 -9.075336 
L 110.566222 -9.330491 
L 110.615159 -9.151099 
z
" clip-path="url(#p80e94292ee)" style="fill: #eeeeee; stroke: #000000; stroke-width: 0.3"/>
    <path d="M 68.676035 -31.272648 
L 68.700214 -31.500088 
L 69.10099 -31.334703 
z
" clip-path="url(#p80e94292ee)" style="fill: #eeeeee; stroke: #000000; stroke-width: 0.3"/>
    <path d="M 67.77256 -30.23169 
L 69.747175 -29.468937 
L 68.772466 -29.620915 
z
" clip-path="url(#p80e94292ee)" style="fill: #eeeeee; stroke: #000000; stroke-width: 0.3"/>
    <path d="M 57.677078 -33.733526 
L 57.934945 -33.704757 
L 57.752222 -33.577177 
z
" clip-path="url(#p80e94292ee)" style="fill: #eeeeee; stroke: #000000; stroke-width: 0.3"/>
    <path d="M 148.876939 74.63623 
L 149.201304 73.084477 
L 148.942216 72.240501 
L 149.553252 72.05954 
L 149.959629 70.946702 
L 149.7147 69.700247 
L 149.269157 69.442578 
L 150.418594 68.884582 
L 151.585868 68.783389 
L 152.30043 68.25447 
L 152.557677 67.620722 
L 152.849587 67.669692 
L 152.68768 67.196439 
L 152.916796 66.831262 
L 152.568068 66.162318 
L 153.377971 66.139172 
L 153.540795 65.77543 
L 153.131017 64.482208 
L 153.459246 64.456096 
L 154.373959 63.255554 
L 154.586617 63.436419 
L 154.39575 63.67448 
L 156.253678 64.481249 
L 156.25699 64.122291 
L 156.968332 64.022345 
L 156.831984 62.523193 
L 157.612834 62.860059 
L 158.225798 62.693923 
L 158.325278 61.402418 
L 159.285687 60.581494 
L 159.768556 60.36457 
L 160.870924 60.826439 
L 161.283549 60.733567 
L 161.421828 59.662052 
L 162.489808 59.567936 
L 164.690123 58.456534 
L 165.96699 57.412274 
L 166.863039 57.406918 
L 167.013086 57.693089 
L 167.685724 57.459811 
L 169.305344 58.032251 
L 169.093145 59.567936 
L 169.911413 60.47303 
L 169.841539 61.25981 
L 170.642709 62.556097 
L 171.719514 62.829835 
L 172.1406 63.382378 
L 173.04235 63.825121 
L 172.027695 63.742388 
L 172.027695 64.986355 
L 174.092678 66.467809 
L 175.088573 66.56422 
L 175.543862 66.12693 
L 176.032617 66.195793 
L 176.516223 67.237758 
L 175.828879 67.542101 
L 177.032929 69.19084 
L 176.667373 70.046868 
L 175.682878 70.929293 
L 174.226911 71.070753 
L 173.650629 70.755793 
L 173.261905 71.440328 
L 172.642592 71.45257 
L 172.649947 71.895313 
L 172.30793 71.983691 
L 172.504316 72.390376 
L 172.019974 72.212953 
L 171.955615 72.605294 
L 170.263177 72.756698 
L 170.259501 72.497693 
L 167.454494 71.906411 
L 166.269289 72.85024 
L 165.582497 72.487935 
L 158.431839 72.516916 
L 158.09322 73.863224 
L 158.68017 74.652107 
L 158.417769 74.940574 
L 158.725036 75.245876 
L 158.799875 76.867258 
L 158.581423 77.247739 
L 158.958931 78.103863 
L 158.693958 78.46234 
L 157.088866 76.523606 
L 156.779393 76.799351 
L 156.724413 76.576496 
L 155.166394 76.448621 
L 153.760072 76.883901 
L 152.973985 77.755043 
L 152.509501 77.488287 
L 152.48017 77.154963 
L 151.871251 77.388145 
L 151.460736 77.120052 
L 151.453567 76.794187 
L 150.857148 76.577644 
L 150.866894 76.062018 
L 150.486998 75.80349 
L 150.31231 75.124693 
L 149.304092 75.098677 
z
" clip-path="url(#p80e94292ee)" style="fill: #eeeeee; stroke: #000000; stroke-width: 0.3"/>
    <path d="M 156.91896 88.733629 
L 156.993062 88.016382 
L 157.949795 86.520676 
L 158.061134 85.179916 
L 158.598065 83.824616 
L 159.238799 83.466616 
L 159.238429 83.004454 
L 159.609685 82.840043 
L 159.207169 80.195726 
L 158.65424 79.709465 
L 159.063559 78.902788 
L 158.581423 77.247739 
L 158.799875 76.867258 
L 158.725036 75.245876 
L 158.417769 74.940574 
L 158.68017 74.652107 
L 158.09322 73.863224 
L 158.431839 72.516916 
L 165.582497 72.487935 
L 166.269289 72.85024 
L 167.454494 71.906411 
L 168.585634 72.277896 
L 168.214381 73.866285 
L 169.939182 75.162854 
L 169.763021 77.458159 
L 169.456587 77.480347 
L 169.872065 77.73113 
L 169.347083 77.781729 
L 169.60231 78.034519 
L 169.335042 78.312562 
L 169.992781 78.090855 
L 170.418742 78.428196 
L 170.062563 79.810848 
L 170.327169 80.407774 
L 169.829864 80.748558 
L 171.064163 82.51169 
L 170.569892 82.859743 
L 170.706698 84.727319 
L 170.291497 85.449634 
L 170.825485 86.118581 
L 170.655946 87.200906 
L 170.287818 87.415916 
L 170.364311 87.901988 
L 171.181476 89.386026 
L 172.027695 89.816527 
L 172.745972 90.646121 
L 171.925604 91.79146 
L 169.393839 91.920694 
L 165.682926 93.924582 
L 162.768925 94.636728 
L 161.477416 95.636264 
L 161.067666 95.687925 
L 160.142474 95.017353 
L 157.42741 94.381725 
L 158.683479 94.123734 
L 158.601833 93.435853 
L 158.813296 93.338483 
L 158.588045 92.468684 
L 158.045688 92.468111 
L 157.978297 92.092413 
L 157.747156 92.112883 
z
" clip-path="url(#p80e94292ee)" style="fill: #eeeeee; stroke: #000000; stroke-width: 0.3"/>
    <path d="M 109.003043 67.576912 
L 110.803714 67.123364 
L 112.744205 67.181707 
L 114.459078 66.292778 
L 119.678529 66.315158 
L 119.796857 67.723445 
L 119.28098 67.78198 
L 118.809419 68.246818 
L 119.693975 68.797544 
L 119.672647 69.881975 
L 119.174053 69.756679 
L 118.657807 70.151123 
L 117.680848 70.033667 
L 116.857982 70.610986 
L 116.181488 70.667704 
L 114.850207 72.777416 
L 115.150205 71.707089 
L 114.33447 72.528739 
L 114.418158 71.64413 
L 114.322453 72.05593 
L 113.878679 71.975651 
L 113.637027 71.44892 
L 114.199528 70.906679 
L 113.932395 71.108966 
L 113.895908 70.794465 
L 113.349046 71.184729 
L 113.468495 70.679238 
L 114.298997 70.373773 
L 114.153053 70.196643 
L 114.741035 70.222851 
L 114.714686 70.490355 
L 115.127328 70.244991 
L 114.541809 70.068008 
L 114.687753 69.888919 
L 114.341999 70.071625 
L 114.3475 69.714347 
L 113.592289 70.447278 
L 113.636305 69.941787 
L 113.459083 70.08729 
L 113.19137 69.795684 
L 113.592289 69.231903 
L 114.480129 69.284467 
L 114.833409 69.029464 
L 114.90624 69.534803 
L 115.381434 69.722179 
L 114.903486 69.323328 
L 115.12762 68.888029 
L 114.388044 69.142432 
L 113.636305 68.951591 
L 112.19856 69.739352 
L 112.540837 69.332971 
L 112.322499 69.231903 
L 111.741029 69.789506 
L 112.074186 68.910624 
L 112.589486 68.928396 
L 112.613811 68.749303 
L 112.079399 68.698697 
L 111.151745 69.231903 
L 110.331373 68.484509 
L 111.370374 67.508471 
L 109.966654 68.171366 
z
" clip-path="url(#p80e94292ee)" style="fill: #eeeeee; stroke: #000000; stroke-width: 0.3"/>
    <path d="M 112.401696 71.868857 
L 112.470326 71.488084 
L 112.810432 71.389123 
L 112.810432 71.64413 
z
" clip-path="url(#p80e94292ee)" style="fill: #eeeeee; stroke: #000000; stroke-width: 0.3"/>
    <path d="M 111.672692 72.331571 
L 111.858599 72.174926 
L 111.785768 71.768241 
L 112.03075 72.236981 
z
" clip-path="url(#p80e94292ee)" style="fill: #eeeeee; stroke: #000000; stroke-width: 0.3"/>
    <path d="M 111.297543 70.778044 
L 111.80995 70.270295 
L 111.957922 70.830764 
L 111.469697 70.954879 
z
" clip-path="url(#p80e94292ee)" style="fill: #eeeeee; stroke: #000000; stroke-width: 0.3"/>
    <path d="M 111.006085 69.284467 
L 111.46347 69.180841 
L 111.646339 69.224522 
L 111.447689 69.714347 
z
" clip-path="url(#p80e94292ee)" style="fill: #eeeeee; stroke: #000000; stroke-width: 0.3"/>
    <path d="M 110.712457 72.122054 
L 111.23934 71.738871 
L 111.421048 72.071596 
L 111.125392 72.402366 
z
" clip-path="url(#p80e94292ee)" style="fill: #eeeeee; stroke: #000000; stroke-width: 0.3"/>
    <path d="M 110.592863 71.611444 
L 110.860141 71.36156 
L 110.97959 71.692326 
L 110.700295 71.703776 
z
" clip-path="url(#p80e94292ee)" style="fill: #eeeeee; stroke: #000000; stroke-width: 0.3"/>
    <path d="M 110.078285 70.550456 
L 110.712457 70.348468 
L 110.614579 70.675322 
L 110.10261 70.702281 
z
" clip-path="url(#p80e94292ee)" style="fill: #eeeeee; stroke: #000000; stroke-width: 0.3"/>
    <path d="M 112.910627 70.551359 
L 113.272016 70.196643 
L 113.47501 70.41384 
z
" clip-path="url(#p80e94292ee)" style="fill: #eeeeee; stroke: #000000; stroke-width: 0.3"/>
    <path d="M 112.537652 70.84432 
L 112.686785 70.651672 
L 112.735288 70.879264 
z
" clip-path="url(#p80e94292ee)" style="fill: #eeeeee; stroke: #000000; stroke-width: 0.3"/>
    <path d="M 111.963423 71.588849 
L 112.214775 71.426177 
L 112.052904 71.768241 
z
" clip-path="url(#p80e94292ee)" style="fill: #eeeeee; stroke: #000000; stroke-width: 0.3"/>
    <path d="M 111.392237 71.904105 
L 111.685865 72.079429 
L 111.534274 72.255356 
z
" clip-path="url(#p80e94292ee)" style="fill: #eeeeee; stroke: #000000; stroke-width: 0.3"/>
    <path d="M 110.520035 70.830764 
L 111.006085 70.601066 
L 110.833643 70.879264 
z
" clip-path="url(#p80e94292ee)" style="fill: #eeeeee; stroke: #000000; stroke-width: 0.3"/>
    <path d="M 107.834363 36.35527 
L 108.149398 34.290908 
L 122.215716 34.258196 
L 121.728064 28.755322 
L 122.215716 28.02239 
L 123.624148 27.086498 
L 125.759463 26.382547 
L 125.773807 17.002775 
L 137.614617 16.983837 
L 137.633373 12.225658 
L 151.371188 20.703875 
L 145.067667 20.707321 
L 148.518372 52.047133 
L 149.479332 52.846155 
L 148.918311 55.87334 
L 135.260576 55.867983 
L 135.234831 55.11946 
L 134.895942 55.524901 
L 134.99487 56.071992 
L 132.704266 56.352522 
L 130.363835 56.099636 
L 129.68844 57.321793 
L 127.520673 55.320793 
L 127.198696 55.699455 
L 126.799493 55.699455 
L 126.377484 57.03983 
L 126.467403 58.072996 
L 125.57779 58.685892 
L 124.467242 58.272703 
L 124.102882 57.638763 
L 122.667233 56.774032 
L 122.881824 56.651894 
L 122.39693 55.817958 
L 121.971623 55.878696 
L 121.87958 55.494965 
L 121.423647 55.394919 
L 121.145804 54.258457 
L 120.544425 53.427297 
L 119.889625 53.609599 
L 119.674483 53.299514 
L 119.296057 53.554695 
L 118.790478 52.749936 
L 117.264729 51.554939 
L 115.244799 51.441696 
L 114.770572 51.537914 
L 114.708234 51.843979 
L 113.502345 51.848569 
L 112.761491 52.219103 
L 110.620753 52.064346 
L 109.962644 53.282298 
L 109.665205 54.708681 
L 109.711683 52.769411 
L 111.31405 48.282501 
L 111.469697 46.074067 
L 110.867091 42.959789 
L 109.689675 41.486241 
L 110.316895 41.356555 
L 110.58128 40.936619 
L 110.202079 41.178066 
L 110.297495 40.899716 
L 109.940159 41.368756 
L 110.763131 39.95802 
L 110.712457 39.5536 
L 110.480217 39.6024 
L 110.803383 39.180956 
L 110.665837 38.691883 
L 110.875343 38.33054 
L 109.932629 36.789514 
L 110.140833 36.695376 
L 109.711683 36.458748 
L 109.665205 37.118026 
L 109.20145 36.686037 
L 108.329971 34.903263 
z
" clip-path="url(#p80e94292ee)" style="fill: #eeeeee; stroke: #000000; stroke-width: 0.3"/>
    <path d="M 110.179928 40.675137 
L 110.319211 40.388199 
L 110.521771 40.221008 
z
" clip-path="url(#p80e94292ee)" style="fill: #eeeeee; stroke: #000000; stroke-width: 0.3"/>
    <path d="M 109.944066 40.361539 
L 110.364096 39.681476 
L 110.056131 40.670166 
z
" clip-path="url(#p80e94292ee)" style="fill: #eeeeee; stroke: #000000; stroke-width: 0.3"/>
    <path d="M 109.907579 36.994663 
L 110.006614 36.946012 
L 109.978962 37.080069 
z
" clip-path="url(#p80e94292ee)" style="fill: #eeeeee; stroke: #000000; stroke-width: 0.3"/>
    <path d="M 109.826933 40.28427 
L 109.917137 40.305962 
L 109.871964 40.387148 
z
" clip-path="url(#p80e94292ee)" style="fill: #eeeeee; stroke: #000000; stroke-width: 0.3"/>
    <path d="M 108.642714 63.853002 
L 109.179588 63.269491 
L 110.10261 64.33545 
L 110.029636 64.082853 
L 110.677127 63.90346 
L 110.785139 64.158468 
L 110.848847 64.176391 
L 111.056763 64.082853 
L 110.786876 63.870926 
L 111.021432 63.519223 
L 112.944217 63.422523 
L 113.219606 63.219484 
L 113.941515 63.474336 
L 114.068785 63.420717 
L 114.104546 63.269491 
L 113.174429 63.150499 
L 111.091222 63.423426 
L 110.205409 63.859181 
L 109.738179 63.777088 
L 109.597415 62.933549 
L 113.309456 62.947668 
L 113.751135 62.250221 
L 114.805693 62.070792 
L 115.582955 62.21665 
L 116.075205 62.827921 
L 116.780938 62.733998 
L 117.410911 63.422453 
L 118.7526 62.962304 
L 119.356737 63.516761 
L 119.065471 63.941714 
L 117.399237 64.233623 
L 114.663553 62.922226 
L 114.167443 63.698389 
L 112.240188 63.871511 
L 112.188152 64.525533 
L 109.198437 64.497892 
L 108.913324 64.865491 
z
" clip-path="url(#p80e94292ee)" style="fill: #eeeeee; stroke: #000000; stroke-width: 0.3"/>
    <path d="M 83.866605 57.385251 
L 83.913083 56.548994 
L 84.184561 56.542365 
L 85.061541 57.615102 
L 84.794405 58.040913 
L 84.142427 57.819499 
z
" clip-path="url(#p80e94292ee)" style="fill: #eeeeee; stroke: #000000; stroke-width: 0.3"/>
    <path d="M 86.815065 53.807807 
L 86.987219 53.097919 
L 87.669461 53.213897 
L 87.818013 53.580515 
L 87.376697 54.053171 
z
" clip-path="url(#p80e94292ee)" style="fill: #eeeeee; stroke: #000000; stroke-width: 0.3"/>
    <path d="M 86.719652 50.981666 
L 86.962895 50.816433 
L 87.10913 51.43685 
L 86.938858 51.804367 
z
" clip-path="url(#p80e94292ee)" style="fill: #eeeeee; stroke: #000000; stroke-width: 0.3"/>
    <path d="M 85.792574 56.75354 
L 86.23215 56.548994 
L 86.288617 57.066234 
L 85.98963 57.250898 
z
" clip-path="url(#p80e94292ee)" style="fill: #eeeeee; stroke: #000000; stroke-width: 0.3"/>
    <path d="M 81.596187 51.633863 
L 83.011778 51.919143 
L 82.159556 51.827262 
L 81.973215 52.214365 
z
" clip-path="url(#p80e94292ee)" style="fill: #eeeeee; stroke: #000000; stroke-width: 0.3"/>
    <path d="M 81.256077 57.981419 
L 81.830306 57.534671 
L 82.073406 58.007927 
L 81.788752 58.383884 
z
" clip-path="url(#p80e94292ee)" style="fill: #eeeeee; stroke: #000000; stroke-width: 0.3"/>
    <path d="M 80.376232 51.031272 
L 80.695402 51.202643 
L 80.690253 51.250839 
L 80.494635 51.282974 
z
" clip-path="url(#p80e94292ee)" style="fill: #eeeeee; stroke: #000000; stroke-width: 0.3"/>
    <path d="M 78.287783 50.094799 
L 79.205157 49.571532 
L 79.672534 49.901999 
L 78.507426 50.605109 
z
" clip-path="url(#p80e94292ee)" style="fill: #eeeeee; stroke: #000000; stroke-width: 0.3"/>
    <path d="M 80.98883 51.743533 
L 81.102084 51.706046 
L 81.081492 51.759599 
z
" clip-path="url(#p80e94292ee)" style="fill: #eeeeee; stroke: #000000; stroke-width: 0.3"/>
    <path d="M 80.428037 58.196355 
L 80.697341 58.285826 
L 80.573693 58.428468 
z
" clip-path="url(#p80e94292ee)" style="fill: #eeeeee; stroke: #000000; stroke-width: 0.3"/>
    <path d="M 79.235275 50.942805 
L 79.648209 50.584324 
L 79.957764 50.987992 
z
" clip-path="url(#p80e94292ee)" style="fill: #eeeeee; stroke: #000000; stroke-width: 0.3"/>
   </g>
   <g id="PatchCollection_2">
    <path d="M 83.866605 57.385251 
L 83.913083 56.548994 
L 84.184561 56.542365 
L 85.061541 57.615102 
L 84.794405 58.040913 
L 84.142427 57.819499 
z
" clip-path="url(#p80e94292ee)" style="fill: #ff6b6b; stroke: #dd0000"/>
    <path d="M 86.815065 53.807807 
L 86.987219 53.097919 
L 87.669461 53.213897 
L 87.818013 53.580515 
L 87.376697 54.053171 
z
" clip-path="url(#p80e94292ee)" style="fill: #ff6b6b; stroke: #dd0000"/>
    <path d="M 86.719652 50.981666 
L 86.962895 50.816433 
L 87.10913 51.43685 
L 86.938858 51.804367 
z
" clip-path="url(#p80e94292ee)" style="fill: #ff6b6b; stroke: #dd0000"/>
    <path d="M 85.792574 56.75354 
L 86.23215 56.548994 
L 86.288617 57.066234 
L 85.98963 57.250898 
z
" clip-path="url(#p80e94292ee)" style="fill: #ff6b6b; stroke: #dd0000"/>
    <path d="M 81.596187 51.633863 
L 83.011778 51.919143 
L 82.159556 51.827262 
L 81.973215 52.214365 
z
" clip-path="url(#p80e94292ee)" style="fill: #ff6b6b; stroke: #dd0000"/>
    <path d="M 81.256077 57.981419 
L 81.830306 57.534671 
L 82.073406 58.007927 
L 81.788752 58.383884 
z
" clip-path="url(#p80e94292ee)" style="fill: #ff6b6b; stroke: #dd0000"/>
    <path d="M 80.376232 51.031272 
L 80.695402 51.202643 
L 80.690253 51.250839 
L 80.494635 51.282974 
z
" clip-path="url(#p80e94292ee)" style="fill: #ff6b6b; stroke: #dd0000"/>
    <path d="M 78.287783 50.094799 
L 79.205157 49.571532 
L 79.672534 49.901999 
L 78.507426 50.605109 
z
" clip-path="url(#p80e94292ee)" style="fill: #ff6b6b; stroke: #dd0000"/>
    <path d="M 80.98883 51.743533 
L 81.102084 51.706046 
L 81.081492 51.759599 
z
" clip-path="url(#p80e94292ee)" style="fill: #ff6b6b; stroke: #dd0000"/>
    <path d="M 80.428037 58.196355 
L 80.697341 58.285826 
L 80.573693 58.428468 
z
" clip-path="url(#p80e94292ee)" style="fill: #ff6b6b; stroke: #dd0000"/>
    <path d="M 79.235275 50.942805 
L 79.648209 50.584324 
L 79.957764 50.987992 
z
" clip-path="url(#p80e94292ee)" style="fill: #ff6b6b; stroke: #dd0000"/>
   </g>
  </g>
 </g>
 <defs>
  <clipPath id="p80e94292ee">
   <rect x="0" y="0" width="166.105796" height="108"/>
  </clipPath>
 </defs>
</svg>
