<?xml version="1.0" encoding="utf-8" standalone="no"?>
<!DOCTYPE svg PUBLIC "-//W3C//DTD SVG 1.1//EN"
  "http://www.w3.org/Graphics/SVG/1.1/DTD/svg11.dtd">
<svg xmlns:xlink="http://www.w3.org/1999/xlink" width="171.646955pt" height="108pt" viewBox="0 0 171.646955 108" xmlns="http://www.w3.org/2000/svg" version="1.1">
 <metadata>
  <rdf:RDF xmlns:dc="http://purl.org/dc/elements/1.1/" xmlns:cc="http://creativecommons.org/ns#" xmlns:rdf="http://www.w3.org/1999/02/22-rdf-syntax-ns#">
   <cc:Work>
    <dc:type rdf:resource="http://purl.org/dc/dcmitype/StillImage"/>
    <dc:date>2025-09-05T15:49:27.406024</dc:date>
    <dc:format>image/svg+xml</dc:format>
    <dc:creator>
     <cc:Agent>
      <dc:title>Matplotlib v3.10.3, https://matplotlib.org/</dc:title>
     </cc:Agent>
    </dc:creator>
   </cc:Work>
  </rdf:RDF>
 </metadata>
 <defs>
  <style type="text/css">*{stroke-linejoin: round; stroke-linecap: butt}</style>
 </defs>
 <g id="figure_1">
  <g id="patch_1">
   <path d="M 0 108 
L 171.646955 108 
L 171.646955 0 
L 0 0 
z
" style="fill: #ffffff"/>
  </g>
  <g id="axes_1">
   <g id="PatchCollection_1">
    <path d="M 163.939574 45.568948 
L 165.203202 44.111234 
L 165.052767 42.675727 
L 165.5268 42.06272 
L 168.018949 42.029741 
L 168.79919 42.639382 
L 171.058341 41.405799 
L 170.931866 35.557091 
L 172.58272 30.549229 
L 172.282528 28.322352 
L 174.192677 26.247254 
L 175.354678 27.549829 
L 175.898906 27.256698 
L 176.673797 26.121727 
L 176.582869 23.843526 
L 177.416596 21.917686 
L 177.413924 20.159944 
L 178.996466 18.825901 
L 181.392008 14.687153 
L 184.156611 14.409841 
L 184.298352 12.256666 
L 185.943747 8.56467 
L 186.817587 4.239309 
L 188.251705 3.792889 
L 190.270831 4.152648 
L 190.664629 3.214886 
L 191.781839 2.976447 
L 193.46333 5.268441 
L 195.648268 0.227599 
L 196.393745 1.237884 
L 197.833879 1.528827 
L 199.111545 3.238611 
L 201.953038 2.740534 
L 202.88237 1.714424 
L 203.64389 2.03363 
L 204.166058 3.088851 
L 206.151093 2.257599 
L 208.591432 3.177531 
L 209.964703 2.920915 
L 214.678237 5.265413 
L 216.999567 8.457144 
L 220.361889 10.853304 
L 221.880912 13.274362 
L 223.422674 14.206406 
L 224.680952 15.946141 
L 220.883385 20.905037 
L 220.682142 25.517472 
L 221.822077 25.949753 
L 226.208676 24.908841 
L 228.201725 25.500644 
L 226.413263 27.887882 
L 227.636105 30.650021 
L 229.133069 32.509734 
L 229.906291 32.764995 
L 231.405927 35.827839 
L 232.715685 36.323558 
L 235.06577 38.463441 
L 254.436711 45.052364 
L 260.905282 45.052364 
L 250.844397 54.819894 
L 241.254868 65.143722 
L 234.963476 64.867088 
L 232.113961 65.599058 
L 229.466693 66.861582 
L 227.606018 69.110842 
L 222.891817 69.830021 
L 221.164862 71.408893 
L 216.811695 71.452982 
L 214.228948 69.224086 
L 208.307949 71.943992 
L 206.082224 74.965436 
L 199.643074 73.353749 
L 197.009513 73.602282 
L 189.982671 68.666271 
L 183.679913 68.190239 
L 183.027369 67.77108 
L 181.805867 65.515764 
L 182.145507 62.496169 
L 179.979289 61.762011 
L 178.803245 62.131024 
L 178.638105 61.233645 
L 177.581736 60.513456 
L 176.778096 58.946359 
L 175.025731 53.594387 
L 173.86908 53.151835 
L 173.732688 52.258663 
L 172.290549 51.672077 
L 171.648039 50.453472 
L 170.691958 49.912655 
L 170.516791 48.872752 
L 168.637725 47.262751 
L 164.382847 46.345678 
z
" clip-path="url(#pf6d8047b64)" style="fill: #eeeeee; stroke: #000000; stroke-width: 0.3"/>
    <path d="M 106.672167 42.171926 
L 107.405605 41.255199 
L 106.929573 40.407119 
L 109.396992 39.255143 
L 110.184918 36.086128 
L 110.911668 35.128509 
L 110.936741 33.184831 
L 112.100418 32.217789 
L 112.751622 30.136966 
L 117.613244 29.272905 
L 118.111005 30.824684 
L 122.770717 35.387306 
L 125.711826 34.565647 
L 130.981956 34.640025 
L 131.952546 36.359324 
L 137.119509 36.404012 
L 137.572285 35.072313 
L 141.254783 33.557212 
L 142.100878 32.562231 
L 142.110905 31.626487 
L 144.682623 30.243653 
L 149.549257 33.800698 
L 152.131009 33.542064 
L 155.368299 30.60997 
L 157.16713 27.735934 
L 160.32286 24.957469 
L 159.79267 23.489654 
L 159.789992 20.913451 
L 158.068387 18.981554 
L 162.366723 18.962538 
L 162.270445 17.572631 
L 165.358982 17.610325 
L 164.543976 21.590736 
L 164.911362 27.192252 
L 166.472174 27.799541 
L 169.937456 30.868604 
L 170.301504 32.95043 
L 169.707465 35.266488 
L 170.931866 35.557091 
L 171.198077 40.949617 
L 170.285461 42.129524 
L 168.869392 42.628271 
L 168.018949 42.029741 
L 165.5268 42.06272 
L 165.052767 42.675727 
L 165.203202 44.111234 
L 163.939574 45.568948 
L 164.382847 46.345678 
L 168.637725 47.262751 
L 170.516791 48.872752 
L 170.691958 49.912655 
L 171.648039 50.453472 
L 172.290549 51.672077 
L 173.732688 52.258663 
L 173.86908 53.151835 
L 175.025731 53.594387 
L 176.778096 58.946359 
L 177.581736 60.513456 
L 178.638105 61.233645 
L 178.803245 62.131024 
L 179.979289 61.762011 
L 182.145507 62.496169 
L 181.805867 65.515764 
L 182.900338 67.046339 
L 181.726654 66.643904 
L 181.474125 67.243151 
L 180.893704 67.041898 
L 180.321452 65.996999 
L 180.636206 65.190423 
L 179.505955 65.046394 
L 179.606101 64.369448 
L 178.533081 64.686316 
L 172.940415 67.04096 
L 167.179543 72.709449 
L 165.069482 72.622788 
L 163.98771 71.825193 
L 162.429905 72.583916 
L 159.94176 72.831108 
L 158.751348 73.55988 
L 158.623314 74.256175 
L 157.083894 73.695338 
L 156.099732 72.275142 
L 154.455677 73.319422 
L 151.982915 72.479085 
L 150.708257 73.168314 
L 150.029636 74.399709 
L 149.430584 73.197093 
L 148.178995 73.655287 
L 147.996466 71.942305 
L 145.823567 71.36565 
L 144.148086 69.069611 
L 143.226109 68.677883 
L 143.283605 67.458601 
L 141.590748 66.77694 
L 141.089973 66.719396 
L 139.561253 68.86096 
L 136.547601 67.471893 
L 133.972875 69.237547 
L 131.982498 68.350093 
L 131.751497 67.497643 
L 130.188679 67.199466 
L 130.060309 66.015188 
L 128.520553 65.072372 
L 126.902581 62.873095 
L 126.880515 60.80574 
L 125.99263 59.560878 
L 124.020301 58.741075 
L 123.744846 58.172827 
L 121.470985 57.583043 
L 122.015213 56.716793 
L 120.47078 55.02232 
L 121.168115 53.800349 
L 119.31279 52.647364 
L 118.891583 51.564049 
L 114.582877 49.357028 
L 113.485727 48.278422 
L 113.322593 47.765874 
L 114.061381 47.247603 
L 113.656883 45.915246 
L 112.636624 45.706595 
L 110.961149 43.855967 
L 106.773794 42.959767 
z
" clip-path="url(#pf6d8047b64)" style="fill: #eeeeee; stroke: #000000; stroke-width: 0.3"/>
    <path d="M 169.786024 96.414218 
L 171.025582 94.869511 
L 171.442112 93.198254 
L 172.98454 91.816429 
L 173.625045 90.079892 
L 175.636156 89.106617 
L 175.513802 88.08657 
L 176.76673 86.356259 
L 176.985362 84.645967 
L 176.074079 81.841426 
L 176.449156 80.996036 
L 176.13893 80.25431 
L 173.28206 76.406661 
L 172.941081 74.486539 
L 173.318836 73.243533 
L 171.460833 72.540842 
L 171.800473 71.896705 
L 171.02291 71.878529 
L 170.326241 69.648963 
L 172.940415 67.04096 
L 179.606101 64.369448 
L 179.505955 65.046394 
L 180.636206 65.190423 
L 180.321452 65.996999 
L 180.893704 67.041898 
L 181.726654 66.643904 
L 182.900338 67.046339 
L 183.679913 68.190239 
L 189.982671 68.666271 
L 197.009513 73.602282 
L 199.643074 73.353749 
L 206.082224 74.965436 
L 208.307949 71.943992 
L 214.228948 69.224086 
L 216.811695 71.452982 
L 221.482437 71.228004 
L 217.974369 76.282144 
L 215.533357 78.802476 
L 215.62629 102.800376 
L 219.139714 107.371919 
L 219.218726 108.176412 
L 217.586218 109.949203 
L 217.174015 109.649235 
L 215.841053 110.430426 
L 215.796831 109.514616 
L 215.403576 110.630761 
L 214.858178 109.916342 
L 215.623107 111.731002 
L 215.400419 112.168767 
L 214.871342 111.661045 
L 214.29488 111.972671 
L 214.572845 112.745389 
L 213.49679 113.6665 
L 212.463904 113.596009 
L 210.789807 114.511291 
L 210.34022 116.238502 
L 210.795072 116.548539 
L 210.083318 118.407718 
L 209.217842 119.097227 
L 209.068855 118.758568 
L 208.421324 120.681341 
L 207.871191 120.356462 
L 208.428169 121.192247 
L 207.906466 122.639626 
L 207.242614 122.639626 
L 207.640611 122.975106 
L 207.344222 123.494485 
L 207.092049 122.98888 
L 206.445573 123.438309 
L 207.126794 123.908929 
L 205.382153 127.275382 
L 204.763053 127.053849 
L 204.052353 127.591247 
L 194.8687 120.935104 
L 194.463536 120.099814 
L 193.75684 120.010294 
L 193.667251 119.356063 
L 194.41005 118.713945 
L 194.053028 116.965966 
L 169.854887 103.65855 
L 170.173807 98.134604 
z
" clip-path="url(#pf6d8047b64)" style="fill: #eeeeee; stroke: #000000; stroke-width: 0.3"/>
    <path d="M 215.558353 110.934441 
L 216.106384 110.477061 
L 216.761807 110.884087 
L 215.716286 111.438451 
z
" clip-path="url(#pf6d8047b64)" style="fill: #eeeeee; stroke: #000000; stroke-width: 0.3"/>
    <path d="M 140.224154 129.171551 
L 140.744317 126.108375 
L 142.87042 126.196547 
L 144.618101 124.950011 
L 146.615168 121.810777 
L 147.067135 121.800676 
L 147.395079 120.260677 
L 149.772236 118.454809 
L 149.982167 117.791832 
L 149.938715 116.52712 
L 147.758454 116.298944 
L 147.288438 115.700576 
L 147.979084 114.383367 
L 147.264704 114.518656 
L 147.885485 113.1725 
L 149.996211 112.403175 
L 150.341867 110.691535 
L 149.754181 109.694034 
L 149.974482 107.511246 
L 149.369744 106.290284 
L 148.191027 105.715479 
L 147.710312 104.026723 
L 148.729911 104.11961 
L 149.625811 103.549513 
L 170.474665 103.65855 
L 194.053028 116.965966 
L 194.41005 118.713945 
L 193.667251 119.356063 
L 193.75684 120.010294 
L 194.463536 120.099814 
L 194.8687 120.935104 
L 204.210817 127.663854 
L 204.20081 128.75615 
L 203.522222 129.148334 
L 203.365867 130.002666 
L 203.7428 130.315888 
L 201.390115 136.561195 
L 202.269811 139.047872 
L 203.083691 139.265693 
L 204.630918 140.939378 
L 204.632497 141.612456 
L 205.824371 141.789471 
L 206.401358 142.721177 
L 206.361347 143.486471 
L 204.939941 144.730343 
L 204.453507 148.078235 
L 204.939941 147.446498 
L 205.688549 148.138658 
L 205.758562 149.29667 
L 204.630918 151.242764 
L 205.111562 153.87836 
L 206.401358 155.235119 
L 205.72645 154.820675 
L 205.33372 155.082481 
L 206.001259 155.340053 
L 206.044426 156.550003 
L 206.501381 156.347023 
L 206.984127 156.972398 
L 206.489795 158.655624 
L 207.02888 158.637605 
L 207.61218 160.083395 
L 207.327901 160.592177 
L 207.99859 161.106261 
L 207.28789 162.536155 
L 208.168634 162.190606 
L 209.192043 163.692572 
L 209.416309 163.119133 
L 210.146487 163.358686 
L 210.068575 164.019573 
L 210.789807 164.185458 
L 210.789807 163.559015 
L 211.544728 164.585594 
L 212.050647 164.207717 
L 212.114347 165.345587 
L 209.340914 167.535948 
L 206.044115 168.705084 
L 204.522414 169.852006 
L 202.148265 169.858063 
L 199.534764 171.45864 
L 198.010385 170.570854 
L 195.949806 170.615275 
L 195.16622 172.240756 
L 192.919769 173.451623 
L 190.797676 173.160179 
L 190.090981 172.444699 
L 188.71771 172.501239 
L 187.460098 173.463743 
L 184.704183 173.33451 
L 184.499595 172.534896 
L 182.289253 171.45864 
L 180.671275 172.707201 
L 176.714584 172.501239 
L 176.209798 171.210953 
L 175.426885 171.013737 
L 174.443395 169.431336 
L 174.841204 167.153643 
L 174.233458 165.768445 
L 173.944631 162.533634 
L 172.53124 160.424886 
L 170.556905 158.850561 
L 169.904361 160.416811 
L 168.757737 159.545176 
L 166.845246 159.788825 
L 165.948007 158.946808 
L 160.887814 157.42296 
L 160.27572 156.677867 
L 157.136041 156.143439 
L 157.12668 155.302092 
L 155.419112 155.174885 
L 154.554632 153.810553 
L 153.353184 153.05267 
L 151.571068 153.242474 
L 150.805867 152.813729 
L 147.455583 146.599877 
L 146.503513 143.689489 
L 145.1864 142.000069 
L 142.703274 140.237274 
L 141.529235 137.982466 
L 141.209655 136.217658 
L 142.091517 134.278526 
z
" clip-path="url(#pf6d8047b64)" style="fill: #eeeeee; stroke: #000000; stroke-width: 0.3"/>
    <path d="M 204.051299 135.645386 
L 204.630918 135.174766 
L 204.847286 134.370247 
L 205.51377 137.454745 
L 206.060217 137.481778 
L 206.044426 137.01009 
L 206.335025 138.29583 
L 206.10865 139.217996 
L 205.51377 138.166513 
L 205.430062 138.637667 
L 204.103943 137.641827 
z
" clip-path="url(#pf6d8047b64)" style="fill: #eeeeee; stroke: #000000; stroke-width: 0.3"/>
    <path d="M 206.979392 132.387586 
L 207.112058 131.561877 
L 207.871191 131.250244 
L 207.582701 131.254484 
L 207.023614 130.934379 
L 207.64587 131.02765 
L 207.244723 128.977149 
L 208.133889 129.651289 
L 208.356576 129.022202 
L 207.969111 132.340951 
z
" clip-path="url(#pf6d8047b64)" style="fill: #eeeeee; stroke: #000000; stroke-width: 0.3"/>
    <path d="M 206.617725 148.873741 
L 208.613478 146.86882 
L 208.598742 147.627224 
L 208.144944 148.668638 
L 206.893057 149.13608 
z
" clip-path="url(#pf6d8047b64)" style="fill: #eeeeee; stroke: #000000; stroke-width: 0.3"/>
    <path d="M 206.541967 132.260939 
L 207.038285 132.628207 
L 207.087644 132.791194 
L 206.799904 132.711931 
z
" clip-path="url(#pf6d8047b64)" style="fill: #eeeeee; stroke: #000000; stroke-width: 0.3"/>
    <path d="M 207.365712 149.823929 
L 207.365738 149.547874 
L 208.004173 149.271636 
z
" clip-path="url(#pf6d8047b64)" style="fill: #eeeeee; stroke: #000000; stroke-width: 0.3"/>
    <path d="M 204.206373 134.754102 
L 204.35807 135.266415 
L 204.206748 135.279824 
z
" clip-path="url(#pf6d8047b64)" style="fill: #eeeeee; stroke: #000000; stroke-width: 0.3"/>
    <path d="M 22.425887 122.767836 
L 23.063132 121.207701 
L 24.810148 119.983372 
L 26.136628 121.217124 
L 27.546002 120.857697 
L 27.025179 120.386543 
L 27.797393 118.641253 
L 26.135955 117.780389 
L 26.723642 116.703463 
L 25.807681 115.580774 
L 25.121712 115.798849 
L 25.727453 114.275001 
L 25.351037 112.301535 
L 26.579228 112.857501 
L 27.758618 112.297498 
L 28.560252 112.85683 
L 31.128289 112.302883 
L 31.390373 110.776346 
L 30.919024 109.399229 
L 31.304795 109.665092 
L 32.24817 109.015576 
L 33.362036 109.627405 
L 34.679149 111.954905 
L 34.425753 112.579518 
L 37.594854 113.026446 
L 39.4338 110.78644 
L 40.488157 112.497403 
L 40.097703 113.192695 
L 41.677573 113.401346 
L 42.611588 112.465772 
L 42.05265 111.618363 
L 42.680457 109.990193 
L 43.665279 109.547309 
L 43.998237 108.110962 
L 43.455349 107.627688 
L 44.09117 107.215094 
L 44.250294 106.307783 
L 43.629849 103.793839 
L 44.265004 101.042973 
L 43.169187 100.023935 
L 42.128201 100.09326 
L 41.712344 98.930858 
L 40.003438 98.467109 
L 40.585107 97.474316 
L 40.262177 95.850184 
L 40.740887 94.847297 
L 41.586646 93.616241 
L 43.222006 93.083831 
L 44.123263 91.182054 
L 42.925159 89.769601 
L 42.726587 88.462487 
L 42.029919 88.066545 
L 39.767424 87.787722 
L 38.14176 88.770752 
L 35.597788 88.945754 
L 36.251664 88.418059 
L 35.46474 86.75859 
L 35.675344 84.756861 
L 36.531803 83.055654 
L 43.895943 83.244117 
L 44.731675 82.744692 
L 46.042773 83.678254 
L 46.639153 83.349455 
L 46.868478 84.062917 
L 48.939757 83.846522 
L 49.746741 84.616017 
L 50.688111 84.261806 
L 52.136266 84.547532 
L 54.122633 85.593831 
L 54.485012 86.35424 
L 55.061998 85.831593 
L 54.452919 84.241618 
L 54.587972 83.13306 
L 55.376901 82.651806 
L 57.132611 78.658103 
L 57.044355 76.57291 
L 57.90483 74.324998 
L 61.777949 73.803705 
L 63.470806 72.979519 
L 65.633012 73.570652 
L 65.949927 74.074446 
L 67.501715 73.922667 
L 68.145558 74.483172 
L 68.578804 73.848126 
L 70.024954 73.475915 
L 71.023154 74.486539 
L 70.93691 76.757335 
L 67.439535 83.062388 
L 67.432846 87.025632 
L 66.108378 90.508637 
L 66.618507 94.672295 
L 65.136254 98.404511 
L 65.350868 100.538163 
L 62.494671 103.739324 
L 60.648034 104.273746 
L 59.423187 105.393745 
L 57.357925 109.420766 
L 55.291996 111.339709 
L 55.492566 118.70654 
L 53.464746 122.641351 
L 51.017051 123.556737 
L 50.532998 124.571737 
L 48.883593 125.386838 
L 46.472008 128.487031 
L 45.447065 129.039629 
L 44.458226 128.657988 
L 43.687345 128.95078 
L 43.364421 126.819818 
L 44.133962 125.975105 
L 43.599089 124.983661 
L 40.736203 126.422704 
L 39.251278 126.129241 
L 39.235228 127.644336 
L 37.166292 128.944723 
L 35.353086 126.93626 
L 34.802169 127.165778 
L 33.784582 125.86203 
L 33.084575 125.726741 
L 32.192679 126.82116 
L 30.660945 127.122027 
L 30.239738 128.246742 
L 29.400661 128.151165 
L 28.219441 129.819322 
L 26.994232 128.290004 
L 26.904954 126.937491 
z
" clip-path="url(#pf6d8047b64)" style="fill: #eeeeee; stroke: #000000; stroke-width: 0.3"/>
    <path d="M 29.769858 135.088906 
L 29.832568 134.489197 
L 31.449881 134.421213 
L 31.590283 130.750924 
L 31.032011 130.050252 
L 32.549035 129.198473 
L 33.351336 127.997029 
L 35.048876 127.502991 
L 35.195301 126.953088 
L 37.166292 128.944723 
L 39.235228 127.644336 
L 39.251278 126.129241 
L 40.736203 126.422704 
L 43.599089 124.983661 
L 44.133962 125.975105 
L 43.364421 126.819818 
L 43.687345 128.95078 
L 44.458226 128.657988 
L 45.447065 129.039629 
L 46.472008 128.487031 
L 48.883593 125.386838 
L 50.532998 124.571737 
L 51.017051 123.556737 
L 53.464746 122.641351 
L 55.492566 118.70654 
L 55.291996 111.339709 
L 57.357925 109.420766 
L 59.423187 105.393745 
L 60.648034 104.273746 
L 62.494671 103.739324 
L 65.350868 100.538163 
L 65.136254 98.404511 
L 66.618507 94.672295 
L 66.108378 90.508637 
L 67.432846 87.025632 
L 67.439535 83.062388 
L 70.93691 76.757335 
L 71.15353 70.780236 
L 70.476922 68.944586 
L 71.844176 68.470742 
L 73.978974 65.157685 
L 76.085689 63.71814 
L 78.774741 63.935714 
L 82.101626 66.052713 
L 83.662775 68.377015 
L 85.546848 68.127134 
L 87.742486 69.180837 
L 91.147594 69.169063 
L 94.808776 70.241437 
L 96.149288 69.834059 
L 96.679478 67.99471 
L 97.307278 67.87776 
L 98.65849 65.716171 
L 101.997414 67.231943 
L 103.119967 66.299898 
L 107.461768 65.023913 
L 108.363691 64.332665 
L 108.348981 63.770813 
L 110.511187 65.104511 
L 114.243903 64.357061 
L 114.606275 62.544798 
L 115.77129 62.123288 
L 118.146106 63.459513 
L 120.005441 63.014779 
L 121.97376 64.258118 
L 123.506161 63.952542 
L 124.331866 64.322734 
L 125.668367 63.243118 
L 127.144604 63.707707 
L 130.006158 65.948892 
L 130.188679 67.199466 
L 131.751497 67.497643 
L 131.982498 68.350093 
L 134.128655 69.286846 
L 136.547601 67.471893 
L 139.561253 68.86096 
L 141.089973 66.719396 
L 142.130965 66.901464 
L 143.283605 67.458601 
L 143.226109 68.677883 
L 144.148086 69.069611 
L 145.823567 71.36565 
L 147.996466 71.942305 
L 148.111465 73.600602 
L 149.430584 73.197093 
L 150.029636 74.399709 
L 150.397365 74.205867 
L 150.485614 75.030046 
L 149.410531 77.23084 
L 150.119232 78.547046 
L 149.195243 81.205703 
L 150.238241 81.942049 
L 150.860691 81.464161 
L 151.424979 82.214308 
L 152.21625 82.131854 
L 152.82366 83.433758 
L 147.6926 89.062867 
L 146.14382 89.731237 
L 145.600258 91.211666 
L 144.257734 91.759218 
L 144.21361 93.884123 
L 142.677864 96.657203 
L 141.717779 103.176631 
L 141.868209 106.171153 
L 139.639146 107.931245 
L 138.973903 109.134037 
L 139.001978 111.44202 
L 137.264997 112.706732 
L 137.206161 113.529902 
L 137.426792 114.404904 
L 138.314677 115.005291 
L 138.096718 115.452889 
L 139.647503 116.970003 
L 139.520802 122.526928 
L 140.325781 123.786255 
L 140.787775 126.450297 
L 140.224154 129.171551 
L 142.091517 134.278526 
L 141.209655 136.217658 
L 141.60813 138.238234 
L 142.703274 140.237274 
L 145.1864 142.000069 
L 146.503513 143.689489 
L 149.464016 150.492956 
L 137.412754 152.374883 
L 137.438158 154.215749 
L 133.940783 157.51248 
L 134.998485 158.205076 
L 136.179213 160.89873 
L 135.347492 163.683923 
L 136.186562 166.4422 
L 135.247203 167.691426 
L 133.991597 172.240756 
L 134.946002 174.449801 
L 136.519519 175.227873 
L 138.356796 177.745861 
L 141.36209 178.229128 
L 141.197616 176.858739 
L 143.300321 176.281915 
L 143.190006 184.758312 
L 142.12361 184.534181 
L 142.458573 183.622162 
L 141.845477 183.258697 
L 139.320898 184.635814 
L 138.090695 184.369273 
L 136.24072 181.072881 
L 135.172319 181.045959 
L 134.395422 178.67336 
L 131.393473 177.67384 
L 130.733573 176.987301 
L 129.320189 177.190567 
L 127.91348 174.770186 
L 126.706681 174.035182 
L 126.357014 172.475665 
L 125.345443 172.644604 
L 124.853362 174.686723 
L 123.363753 175.363162 
L 121.404795 174.704222 
L 118.600744 174.64701 
L 116.274065 173.512872 
L 115.459725 173.823163 
L 114.48526 172.948161 
L 114.261285 170.034413 
L 110.394183 170.88922 
L 108.960738 171.771627 
L 107.68641 171.36576 
L 108.322238 170.583644 
L 108.181835 169.418546 
L 106.588594 169.047677 
L 106.523743 168.239987 
L 105.794315 167.941816 
L 104.709198 168.95143 
L 102.265514 168.511913 
L 99.408644 169.433355 
L 96.087781 169.042297 
L 94.384225 170.391143 
L 93.917547 167.804508 
L 94.913742 167.211526 
L 94.874294 164.653831 
L 93.881444 161.807389 
L 92.063561 160.020367 
L 91.501279 158.386134 
L 92.484102 152.197862 
L 91.255238 149.211416 
L 91.947223 145.776029 
L 91.455815 144.561802 
L 83.276332 144.581319 
L 83.864691 142.169008 
L 81.975934 142.185836 
L 81.8128 142.729011 
L 76.815783 142.729011 
L 76.759626 145.838627 
L 75.740699 146.455164 
L 75.740033 149.241705 
L 70.312448 148.787379 
L 70.254952 149.212764 
L 67.749761 149.374975 
L 67.606014 149.940358 
L 66.117072 149.51834 
L 64.384767 149.870362 
L 62.546151 147.6243 
L 61.644229 145.504781 
L 60.150609 144.048916 
L 60.328454 142.812474 
L 59.00198 140.816795 
L 58.600826 139.232375 
L 58.734546 137.43593 
L 57.609981 135.568142 
L 40.730187 135.172369 
L 36.842028 135.491406 
L 33.954573 134.996156 
L 33.11562 135.32674 
L 32.831807 136.068849 
L 31.065074 136.542074 
L 31.114859 136.085189 
L 30.722639 136.242731 
z
" clip-path="url(#pf6d8047b64)" style="fill: #eeeeee; stroke: #000000; stroke-width: 0.3"/>
    <path d="M 32.977494 135.814448 
L 33.514632 135.368966 
L 34.591255 135.345847 
z
" clip-path="url(#pf6d8047b64)" style="fill: #eeeeee; stroke: #000000; stroke-width: 0.3"/>
    <path d="M 43.600428 57.800616 
L 46.090908 55.981795 
L 49.012636 49.930492 
L 50.363848 49.004335 
L 50.676072 48.134718 
L 53.549658 48.363226 
L 56.431931 47.162798 
L 56.570328 46.439236 
L 57.582572 45.876543 
L 58.006451 47.11669 
L 59.09424 48.018276 
L 64.641501 45.127413 
L 70.78313 44.718179 
L 74.243069 40.633608 
L 72.597675 39.498298 
L 73.581837 38.613872 
L 82.724083 37.618051 
L 83.414063 36.423002 
L 84.229735 36.550724 
L 85.253345 35.794853 
L 88.040007 32.163098 
L 88.799522 32.180264 
L 89.6981 30.699327 
L 91.027919 30.07336 
L 91.052656 27.858602 
L 95.739447 25.504011 
L 98.417133 26.019247 
L 101.199791 29.141484 
L 103.487023 32.896924 
L 103.405456 36.709907 
L 102.383857 37.406033 
L 102.134472 38.39428 
L 102.98692 38.681516 
L 102.584427 40.401395 
L 107.192996 40.526589 
L 107.405605 41.255199 
L 106.672167 42.171926 
L 106.773794 42.959767 
L 110.961149 43.855967 
L 112.636624 45.706595 
L 113.656883 45.915246 
L 114.061381 47.247603 
L 113.322593 47.765874 
L 113.485727 48.278422 
L 114.582877 49.357028 
L 118.891583 51.564049 
L 119.31279 52.647364 
L 121.168115 53.800349 
L 120.47078 55.02232 
L 122.015213 56.716793 
L 121.470985 57.583043 
L 123.744846 58.172827 
L 124.020301 58.741075 
L 125.99263 59.560878 
L 126.880515 60.80574 
L 126.902581 62.873095 
L 128.046527 64.106678 
L 125.668367 63.243118 
L 124.331866 64.322734 
L 123.506161 63.952542 
L 121.97376 64.258118 
L 120.005441 63.014779 
L 118.146106 63.459513 
L 115.77129 62.123288 
L 114.606275 62.544798 
L 114.243903 64.357061 
L 110.511187 65.104511 
L 108.348981 63.770813 
L 108.363691 64.332665 
L 107.461768 65.023913 
L 103.119967 66.299898 
L 101.997414 67.231943 
L 98.65849 65.716171 
L 97.307278 67.87776 
L 96.679478 67.99471 
L 96.149288 69.834059 
L 94.808776 70.241437 
L 91.147594 69.169063 
L 87.742486 69.180837 
L 85.546848 68.127134 
L 83.662775 68.377015 
L 82.101626 66.052713 
L 78.774741 63.935714 
L 76.085689 63.71814 
L 73.978974 65.157685 
L 71.844176 68.470742 
L 70.476922 68.944586 
L 71.15353 70.780236 
L 71.023154 74.486539 
L 70.024954 73.475915 
L 68.578804 73.848126 
L 68.145558 74.483172 
L 67.501715 73.922667 
L 65.949927 74.074446 
L 65.633012 73.570652 
L 63.470806 72.979519 
L 60.56179 74.087575 
L 58.169586 74.149664 
L 57.044355 76.57291 
L 57.132611 78.658103 
L 55.195718 82.495989 
L 54.391406 77.984354 
L 53.476785 76.954206 
L 52.646396 76.888919 
L 48.113385 71.823174 
L 47.732292 70.909807 
L 48.791999 70.668678 
L 48.154166 70.286535 
L 47.525026 68.388119 
L 45.735225 67.02884 
L 45.35747 63.495689 
L 44.458226 62.67487 
L 45.08937 61.341673 
L 45.08937 58.934246 
z
" clip-path="url(#pf6d8047b64)" style="fill: #eeeeee; stroke: #000000; stroke-width: 0.3"/>
    <path d="M 91.614272 13.811643 
L 92.614478 11.827413 
L 94.578113 10.289094 
L 93.331866 7.386111 
L 94.235794 6.23801 
L 96.381291 5.045651 
L 95.622443 4.232243 
L 95.198557 2.415773 
L 97.223706 1.468587 
L 97.10938 0.371635 
L 99.044267 -1.870045 
L 98.712648 -4.08279 
L 99.928141 -5.143389 
L 105.683993 -5.253436 
L 105.663939 -33.089223 
L 112.127827 -33.132472 
L 112.13251 -46.113608 
L 152.674563 -46.107213 
L 153.805811 -47.621976 
L 154.249084 -47.271973 
L 153.884706 -46.113608 
L 165.17732 -46.113986 
L 167.633884 -44.249538 
L 170.468817 -44.628789 
L 171.019074 -46.114279 
L 189.12867 -46.115972 
L 189.156047 -43.865403 
L 191.906198 -40.007133 
L 191.511365 -39.670857 
L 191.367644 -40.463972 
L 190.560602 -40.98283 
L 191.356589 -36.798619 
L 191.0144 -35.393109 
L 191.458721 -30.358805 
L 192.69113 -25.706091 
L 193.373405 -24.756365 
L 194.246191 -24.919599 
L 194.785328 -24.188222 
L 195.868478 -23.904254 
L 197.138679 -22.785791 
L 196.842795 -22.361299 
L 197.331558 -21.71795 
L 198.330942 -22.090551 
L 197.756064 -21.512079 
L 198.882654 -21.554214 
L 200.256682 -20.18447 
L 197.859956 -17.005367 
L 197.123173 -17.134938 
L 196.84504 -16.706857 
L 196.601677 -17.151766 
L 193.090258 -15.614789 
L 192.491206 -13.776619 
L 189.709888 -13.988976 
L 189.879711 -12.553639 
L 189.082754 -10.413924 
L 189.585535 -8.881662 
L 187.752942 -5.266227 
L 187.474136 -3.459017 
L 186.162372 -1.425982 
L 186.817587 4.239309 
L 185.943747 8.56467 
L 184.298352 12.256666 
L 184.212108 14.281957 
L 181.392008 14.687153 
L 178.996466 18.825901 
L 177.413924 20.159944 
L 177.416596 21.917686 
L 176.582869 23.843526 
L 176.673797 26.121727 
L 175.898906 27.256698 
L 175.354678 27.549829 
L 174.192677 26.247254 
L 172.282528 28.322352 
L 172.58272 30.549229 
L 170.931866 35.557091 
L 169.707465 35.266488 
L 170.301504 32.95043 
L 169.937456 30.868604 
L 166.472174 27.799541 
L 164.911362 27.192252 
L 164.543976 21.590736 
L 165.358982 17.610325 
L 162.270445 17.572631 
L 162.366723 18.962538 
L 158.068387 18.981554 
L 159.789992 20.913451 
L 159.79267 23.489654 
L 160.32286 24.957469 
L 157.16713 27.735934 
L 155.368299 30.60997 
L 152.131009 33.542064 
L 149.549257 33.800698 
L 144.682623 30.243653 
L 142.110905 31.626487 
L 142.100878 32.562231 
L 141.254783 33.557212 
L 137.572285 35.072313 
L 137.119509 36.404012 
L 131.952546 36.359324 
L 130.981956 34.640025 
L 125.711826 34.565647 
L 122.770717 35.387306 
L 118.111005 30.824684 
L 117.613244 29.272905 
L 112.751622 30.136966 
L 112.100418 32.217789 
L 110.936741 33.184831 
L 110.911668 35.128509 
L 110.184918 36.086128 
L 109.396992 39.255143 
L 106.522404 40.590867 
L 102.486151 40.25904 
L 102.98692 38.681516 
L 102.134472 38.39428 
L 102.383857 37.406033 
L 103.405456 36.709907 
L 103.487023 32.896924 
L 101.199791 29.141484 
L 98.417133 26.019247 
L 99.016185 23.858504 
L 98.764801 22.913168 
L 97.840146 22.86706 
L 96.351204 21.370473 
L 96.808515 18.506193 
L 95.810315 18.78215 
L 95.978132 17.907487 
L 95.258732 15.964317 
L 95.730086 15.000804 
L 94.172282 14.139263 
L 93.531777 14.744697 
L 92.432622 14.81537 
z
" clip-path="url(#pf6d8047b64)" style="fill: #eeeeee; stroke: #000000; stroke-width: 0.3"/>
    <path d="M 191.456088 -38.355179 
L 191.715623 -38.542261 
L 191.527156 -38.002206 
z
" clip-path="url(#pf6d8047b64)" style="fill: #eeeeee; stroke: #000000; stroke-width: 0.3"/>
    <path d="M -32.191159 45.694814 
L -31.55667 38.146085 
L -29.571636 37.897883 
L -29.205919 35.539592 
L -27.918227 34.271344 
L -27.954996 33.296396 
L -26.744187 33.004112 
L -26.2501 32.338438 
L -25.745321 31.050672 
L -26.360422 30.14454 
L -25.844943 29.167065 
L -25.06604 29.350474 
L -24.646166 28.098383 
L -25.340829 26.744992 
L -25.392309 24.7611 
L -27.03302 22.760881 
L -25.748665 20.545278 
L -26.156501 19.595233 
L -25.913138 15.606909 
L -24.05313 14.093494 
L -23.020165 12.492415 
L -22.780807 9.387677 
L -20.316403 7.943926 
L -18.05123 7.426664 
L -15.653017 7.64003 
L -13.750216 6.735077 
L -9.735356 8.2946 
L -8.269818 8.389336 
L -4.594262 12.497801 
L -3.743154 12.493425 
L -2.905416 11.703396 
L -1.651821 11.735034 
L 1.142869 10.219261 
L 2.961424 10.51643 
L 6.676092 12.965588 
L 12.569009 13.761334 
L 15.994177 10.839166 
L 19.585818 10.025081 
L 24.534693 10.094575 
L 28.530165 11.707434 
L 31.215206 12.050033 
L 31.786849 10.886954 
L 33.366046 10.03888 
L 33.606071 9.282508 
L 36.101901 8.898855 
L 36.760461 7.847842 
L 38.554946 7.882507 
L 41.515105 11.960012 
L 42.317412 16.568064 
L 44.246283 16.780421 
L 45.42901 17.889988 
L 44.600634 20.870039 
L 45.114774 21.391339 
L 45.013819 22.140638 
L 42.165644 23.940619 
L 40.980911 23.693597 
L 39.509351 25.383863 
L 38.111673 27.958216 
L 37.439741 31.006081 
L 36.115272 31.70995 
L 35.890631 34.986493 
L 33.690982 36.055168 
L 33.969109 36.808512 
L 33.157448 40.086734 
L 31.766789 41.085583 
L 30.543274 41.060172 
L 30.769928 41.796349 
L 29.625975 42.514187 
L 29.399995 45.286257 
L 28.280113 46.860922 
L 28.293485 47.789769 
L 26.453536 49.827844 
L 27.330722 51.025589 
L 25.322289 52.349531 
L 25.139094 53.853692 
L 24.080726 55.086767 
L 22.422627 55.228451 
L 21.925869 53.232101 
L 18.962695 50.690394 
L 18.427828 52.358616 
L 16.583196 52.329336 
L 16.14394 51.492366 
L 14.408291 52.925008 
L 13.851358 52.879076 
L 13.233585 54.594747 
L 10.95638 56.010059 
L 8.638388 58.73367 
L 7.818032 59.047999 
L 7.581359 59.9861 
L 8.128931 60.691818 
L 7.449644 63.527659 
L 5.708658 66.463106 
L 3.45652 64.623009 
L 4.568374 66.853969 
L 4.148272 67.507171 
L -0.574997 67.658481 
L -0.663441 66.449326 
L -0.940351 67.350033 
L -2.369656 67.1648 
L -2.031672 67.632249 
L -2.369656 67.79177 
L -3.723145 66.142467 
L -2.993491 67.699554 
L -3.903189 68.236425 
L -3.903189 66.894508 
L -4.42911 66.320009 
L -4.256964 67.120815 
L -4.830787 66.627402 
L -4.034276 68.486841 
L -4.384888 68.640274 
L -5.037154 68.475711 
L -5.576232 65.758762 
L -6.027397 65.645342 
L -5.023465 68.730106 
L -6.027397 68.769851 
L -5.894731 67.120815 
L -6.160062 68.325463 
L -6.425394 67.747251 
L -6.207972 68.887772 
L -6.693351 68.886717 
L -6.801803 67.940169 
L -7.095559 67.79177 
L -6.97184 68.898641 
L -8.906533 69.173966 
L -8.505379 68.236425 
L -8.954966 68.503005 
L -9.127636 67.836289 
L -9.216079 69.125735 
L -9.926779 69.307256 
L -10.08261 68.40231 
L -10.256865 69.157008 
L -10.730141 68.369982 
L -10.905974 68.907381 
L -11.368718 68.677635 
L -14.049904 65.560543 
L -14.628468 63.749595 
L -13.917769 63.640421 
L -14.760604 63.502625 
L -14.924857 62.327387 
L -13.387113 62.079622 
L -13.671392 61.464843 
L -13.15337 61.278822 
L -12.985959 61.049337 
L -14.385248 61.724532 
L -14.318916 61.991118 
L -15.844556 61.301609 
L -15.68399 60.782224 
L -13.828801 60.720747 
L -14.231002 60.293584 
L -15.016458 60.624558 
L -14.941702 59.848662 
L -15.312322 60.545856 
L -16.289932 60.476694 
L -16.461029 59.401623 
L -15.247044 58.640302 
L -16.836385 59.569097 
L -18.756859 57.150527 
L -20.971088 55.717716 
L -27.193677 55.382502 
L -27.573243 55.159914 
L -24.603561 54.076892 
L -26.729878 54.622242 
L -26.950456 54.133068 
L -27.460586 54.459008 
L -27.671164 55.124135 
L -27.575876 55.464917 
L -31.979242 55.655985 
L -31.406907 48.43188 
z
" clip-path="url(#pf6d8047b64)" style="fill: #eeeeee; stroke: #000000; stroke-width: 0.3"/>
    <path d="M -3.294621 68.493998 
L -2.702892 67.609989 
L -2.413872 67.876302 
L -2.036414 67.876302 
L -2.257523 68.378728 
z
" clip-path="url(#pf6d8047b64)" style="fill: #eeeeee; stroke: #000000; stroke-width: 0.3"/>
    <path d="M -2.007983 68.082999 
L -0.406539 67.923738 
L -1.394149 68.248083 
z
" clip-path="url(#pf6d8047b64)" style="fill: #eeeeee; stroke: #000000; stroke-width: 0.3"/>
    <path d="M 37.534014 3.096256 
L 38.881881 2.381954 
L 40.02082 -0.684589 
L 43.482091 -5.438871 
L 50.57579 -12.895892 
L 52.325477 -32.490861 
L 53.841162 -35.309372 
L 51.253065 -38.015817 
L 51.085247 -38.917064 
L 51.505788 -39.310141 
L 48.757901 -42.830339 
L 48.677 -46.100818 
L 47.434215 -52.628067 
L 53.936767 -55.552509 
L 105.663939 -29.83759 
L 105.683993 -5.253436 
L 99.928141 -5.143389 
L 98.712648 -4.08279 
L 99.044267 -1.870045 
L 97.10938 0.371635 
L 97.223706 1.468587 
L 95.198557 2.415773 
L 95.622443 4.232243 
L 96.381291 5.045651 
L 94.235794 6.23801 
L 93.331866 7.386111 
L 94.578113 10.289094 
L 92.614478 11.827413 
L 91.614272 13.811643 
L 92.432622 14.81537 
L 93.531777 14.744697 
L 94.172282 14.139263 
L 95.730086 15.000804 
L 95.258732 15.964317 
L 95.978132 17.907487 
L 95.810315 18.78215 
L 96.808515 18.506193 
L 96.351204 21.370473 
L 97.840146 22.86706 
L 98.764801 22.913168 
L 98.813603 24.925669 
L 98.417133 26.019247 
L 95.739447 25.504011 
L 91.052656 27.858602 
L 91.027919 30.07336 
L 89.6981 30.699327 
L 88.799522 32.180264 
L 88.040007 32.163098 
L 85.253345 35.794853 
L 84.229735 36.550724 
L 83.414063 36.423002 
L 82.724083 37.618051 
L 73.581837 38.613872 
L 72.597675 39.498298 
L 74.243069 40.633608 
L 70.78313 44.718179 
L 64.641501 45.127413 
L 59.244003 48.001787 
L 58.006451 47.11669 
L 57.582572 45.876543 
L 56.570328 46.439236 
L 56.431931 47.162798 
L 53.549658 48.363226 
L 50.676072 48.134718 
L 51.205596 46.381692 
L 50.415328 46.075778 
L 48.752551 41.909593 
L 43.356393 37.421181 
L 40.756263 34.364231 
L 42.270609 32.147279 
L 46.09292 32.514781 
L 51.971127 32.061966 
L 48.416256 28.483893 
L 47.701539 24.303908 
L 48.441659 22.035808 
L 47.994376 21.060182 
L 48.281869 20.394176 
L 47.88406 18.429464 
L 46.904581 17.985232 
L 46.46933 14.954026 
L 44.684206 13.985974 
L 43.800338 11.939478 
L 41.515105 11.960012 
L 38.554946 7.882507 
z
" clip-path="url(#pf6d8047b64)" style="fill: #eeeeee; stroke: #000000; stroke-width: 0.3"/>
    <path d="M 137.216525 112.877696 
L 139.001978 111.44202 
L 138.973903 109.134037 
L 140.347174 107.005765 
L 143.409297 105.742401 
L 144.342646 106.668552 
L 145.550784 105.889132 
L 146.781647 104.07317 
L 147.650629 104.077064 
L 148.191027 105.715479 
L 149.369744 106.290284 
L 150.021615 107.649225 
L 149.754181 109.694034 
L 150.341867 110.691535 
L 149.996211 112.403175 
L 147.973735 112.755191 
L 147.047747 112.127882 
L 145.354218 112.964519 
L 144.15678 112.218079 
L 143.938155 114.524713 
L 142.786847 115.399715 
L 140.32712 115.536346 
L 140.113172 114.453369 
L 138.863581 114.026637 
L 138.229092 114.847788 
L 137.426792 114.404904 
z
" clip-path="url(#pf6d8047b64)" style="fill: #eeeeee; stroke: #000000; stroke-width: 0.3"/>
    <path d="M 141.717779 103.176631 
L 142.677864 96.657203 
L 144.21361 93.884123 
L 144.257734 91.759218 
L 145.600258 91.211666 
L 146.14382 89.731237 
L 147.6926 89.062867 
L 152.82366 83.433758 
L 152.21625 82.131854 
L 151.424979 82.214308 
L 150.860691 81.464161 
L 150.238241 81.942049 
L 149.195243 81.205703 
L 150.119232 78.547046 
L 149.410531 77.23084 
L 150.485614 75.030046 
L 150.397365 74.205867 
L 150.029636 74.399709 
L 150.708257 73.168314 
L 152.457277 72.431968 
L 154.455677 73.319422 
L 156.099732 72.275142 
L 157.083894 73.695338 
L 158.623314 74.256175 
L 158.751348 73.55988 
L 159.94176 72.831108 
L 162.429905 72.583916 
L 163.98771 71.825193 
L 165.069482 72.622788 
L 167.179543 72.709449 
L 170.513447 69.74 
L 171.02291 71.878529 
L 171.800473 71.896705 
L 171.460833 72.540842 
L 173.318836 73.243533 
L 172.941081 74.486539 
L 173.28206 76.406661 
L 176.13893 80.25431 
L 176.449156 80.996036 
L 176.074079 81.841426 
L 176.985362 84.645967 
L 176.76673 86.356259 
L 175.513802 88.08657 
L 175.636156 89.106617 
L 173.625045 90.079892 
L 172.98454 91.816429 
L 171.442112 93.198254 
L 171.025582 94.869511 
L 169.786024 96.414218 
L 170.173807 98.134604 
L 169.854887 103.65855 
L 149.625811 103.549513 
L 146.781647 104.07317 
L 145.550784 105.889132 
L 144.200575 106.721726 
L 143.467466 105.751147 
L 141.868209 106.171153 
z
" clip-path="url(#pf6d8047b64)" style="fill: #eeeeee; stroke: #000000; stroke-width: 0.3"/>
    <path d="M 5.582313 67.647351 
L 6.177328 65.340091 
L 7.449644 63.527659 
L 8.128931 60.691818 
L 7.581359 59.9861 
L 7.74917 59.15518 
L 10.95638 56.010059 
L 13.233585 54.594747 
L 13.851358 52.879076 
L 14.408291 52.925008 
L 16.14394 51.492366 
L 16.583196 52.329336 
L 18.427828 52.358616 
L 18.962695 50.690394 
L 21.925869 53.232101 
L 22.316323 55.130009 
L 23.341265 55.254703 
L 25.139094 53.853692 
L 25.322289 52.349531 
L 27.330722 51.025589 
L 26.453536 49.827844 
L 28.293485 47.789769 
L 28.280113 46.860922 
L 29.399995 45.286257 
L 29.625975 42.514187 
L 30.769928 41.796349 
L 30.543274 41.060172 
L 31.766789 41.085583 
L 33.297184 39.894233 
L 33.969109 36.808512 
L 33.690982 36.055168 
L 35.890631 34.986493 
L 36.115272 31.70995 
L 37.439741 31.006081 
L 38.111673 27.958216 
L 39.509351 25.383863 
L 40.980911 23.693597 
L 42.165644 23.940619 
L 45.081349 21.984653 
L 44.600634 20.870039 
L 45.418317 17.820663 
L 44.246283 16.780421 
L 42.317412 16.568064 
L 41.515105 11.960012 
L 43.800338 11.939478 
L 44.684206 13.985974 
L 46.394452 14.820085 
L 46.904581 17.985232 
L 47.88406 18.429464 
L 48.441659 22.035808 
L 47.701539 24.303908 
L 48.458375 28.607902 
L 51.971127 32.061966 
L 46.09292 32.514781 
L 42.270609 32.147279 
L 40.745564 34.267306 
L 43.356393 37.421181 
L 47.900103 40.837382 
L 50.415328 46.075778 
L 51.205596 46.381692 
L 50.363848 49.004335 
L 49.012636 49.930492 
L 46.090908 55.981795 
L 43.600428 57.800616 
L 45.08937 58.934246 
L 45.08937 61.341673 
L 44.458226 62.67487 
L 45.35747 63.495689 
L 45.735225 67.02884 
L 47.525026 68.388119 
L 48.154166 70.286535 
L 48.791999 70.668678 
L 47.732292 70.909807 
L 48.113385 71.823174 
L 54.630764 78.48243 
L 54.617393 80.779979 
L 55.376901 82.651806 
L 54.708321 82.843974 
L 54.445564 84.00116 
L 55.041272 85.934072 
L 54.485012 86.35424 
L 54.122633 85.593831 
L 52.136266 84.547532 
L 50.688111 84.261806 
L 49.746741 84.616017 
L 48.939757 83.846522 
L 46.868478 84.062917 
L 46.639153 83.349455 
L 46.042773 83.678254 
L 44.731675 82.744692 
L 43.895943 83.244117 
L 36.531803 83.055654 
L 36.467618 82.526949 
L 35.686044 82.260416 
L 33.008351 82.562963 
L 25.940062 82.004308 
L 23.963049 82.147002 
L 23.771833 83.025032 
L 15.161117 83.026042 
L 13.995771 82.379547 
L 14.93304 77.26335 
L 14.762997 75.82365 
L 12.904114 74.081597 
L 14.052297 73.503124 
L 12.801458 73.684645 
L 12.281858 72.254218 
L 12.788824 72.706557 
L 12.768292 71.894895 
L 13.566387 72.254218 
L 13.125223 71.6723 
L 13.695365 71.356695 
L 12.754079 71.337881 
L 13.631666 70.196032 
L 12.498225 70.994983 
L 11.845959 70.354232 
L 12.194993 71.148415 
L 11.583792 70.881302 
L 11.835434 71.627782 
L 10.972584 71.627782 
L 10.860451 70.871761 
L 10.113428 71.312444 
L 8.564098 70.4234 
L 8.334566 67.476432 
L 7.760743 66.91359 
L 7.895511 67.533143 
L 7.447509 67.1648 
L 7.381701 67.553546 
L 6.519381 66.271784 
L 6.956334 67.737978 
z
" clip-path="url(#pf6d8047b64)" style="fill: #eeeeee; stroke: #000000; stroke-width: 0.3"/>
    <path d="M 6.781025 100.949572 
L 7.743898 102.340781 
L 8.291399 101.605164 
L 8.824687 102.825182 
L 9.402728 101.034904 
L 10.733052 99.293379 
L 10.984694 94.812384 
L 11.080506 95.949986 
L 11.495348 95.773506 
L 11.907557 96.48898 
L 12.012315 95.905207 
L 12.546134 96.398087 
L 13.358966 96.251284 
L 14.004388 96.976298 
L 13.657464 96.311699 
L 15.385253 95.905207 
L 13.87541 95.949986 
L 11.972305 95.234512 
L 10.727792 93.584942 
L 10.794125 93.051516 
L 12.237636 92.691392 
L 12.368193 93.081727 
L 11.841224 93.097624 
L 11.752257 93.229325 
L 12.458745 93.229325 
L 12.458745 93.807537 
L 12.683011 94.073849 
L 12.580355 90.523499 
L 13.570599 90.228037 
L 14.85758 91.106334 
L 15.409829 90.594119 
L 23.8641 90.62239 
L 23.963049 82.147002 
L 30.237732 82.059162 
L 33.008351 82.562963 
L 35.686044 82.260416 
L 36.467618 82.526949 
L 35.675344 84.756861 
L 35.46474 86.75859 
L 36.251664 88.418059 
L 35.597788 88.945754 
L 38.14176 88.770752 
L 39.767424 87.787722 
L 42.029919 88.066545 
L 42.726587 88.462487 
L 42.925159 89.769601 
L 44.123263 91.182054 
L 43.222006 93.083831 
L 41.586646 93.616241 
L 40.740887 94.847297 
L 40.262177 95.850184 
L 40.585107 97.474316 
L 40.003438 98.467109 
L 41.712344 98.930858 
L 42.128201 100.09326 
L 43.169187 100.023935 
L 44.265004 101.042973 
L 43.631181 103.700282 
L 44.250294 106.307783 
L 44.09117 107.215094 
L 43.455349 107.627688 
L 43.998237 108.110962 
L 43.712082 109.457789 
L 42.648365 110.038651 
L 42.05265 111.618363 
L 42.611588 112.465772 
L 41.677573 113.401346 
L 40.097703 113.192695 
L 40.488157 112.497403 
L 39.4338 110.78644 
L 37.594854 113.026446 
L 34.425753 112.579518 
L 34.679149 111.954905 
L 33.362036 109.627405 
L 32.24817 109.015576 
L 31.304795 109.665092 
L 30.919024 109.399229 
L 31.390373 110.776346 
L 31.128289 112.302883 
L 28.560252 112.85683 
L 27.758618 112.297498 
L 26.579228 112.857501 
L 25.351037 112.301535 
L 25.727453 114.275001 
L 25.121712 115.798849 
L 25.807681 115.580774 
L 26.723642 116.703463 
L 26.135955 117.780389 
L 27.797393 118.641253 
L 27.025179 120.386543 
L 27.546002 120.857697 
L 26.136628 121.217124 
L 24.810148 119.983372 
L 23.063132 121.207701 
L 22.425887 122.767836 
L 21.454016 121.169902 
L 19.401116 119.609689 
L 19.329912 118.709275 
L 14.588231 114.715716 
L 13.301056 113.039529 
L 13.892779 113.416345 
L 14.184963 113.128567 
L 15.07255 114.248417 
L 16.232306 113.885382 
L 16.108594 113.589119 
L 15.116765 113.803234 
L 14.407644 112.820113 
L 13.61482 113.217605 
L 13.433722 112.622962 
L 13.301056 112.991832 
L 12.612467 112.448065 
L 12.410312 111.408246 
L 10.505105 109.350855 
L 11.773313 109.649235 
L 12.264489 110.615919 
L 12.099705 109.6752 
L 11.173161 108.977212 
L 10.953106 109.42664 
L 10.402449 109.081091 
L 10.173971 107.41748 
L 8.857854 105.698748 
L 8.644119 105.145446 
L 8.875753 105.626669 
L 9.780186 106.689815 
L 10.462461 107.128107 
L 10.563539 108.038088 
L 12.370301 107.598734 
L 11.703823 106.705712 
L 10.604604 107.328442 
L 10.358227 106.780969 
L 10.912048 106.237736 
L 10.92047 105.487283 
L 10.839395 106.057016 
L 9.951808 106.315644 
L 8.944719 105.589567 
L 8.964197 104.901654 
L 7.892878 103.491897 
L 8.153468 103.697533 
L 8.334566 103.403921 
L 7.712834 103.136814 
z
" clip-path="url(#pf6d8047b64)" style="fill: #eeeeee; stroke: #000000; stroke-width: 0.3"/>
    <path d="M 11.187807 91.854403 
L 11.23503 91.856728 
L 11.206289 91.874038 
z
" clip-path="url(#pf6d8047b64)" style="fill: #eeeeee; stroke: #000000; stroke-width: 0.3"/>
    <path d="M 8.42354 101.438746 
L 9.018951 101.491744 
L 8.7931 102.092749 
z
" clip-path="url(#pf6d8047b64)" style="fill: #eeeeee; stroke: #000000; stroke-width: 0.3"/>
    <path d="M -48.480926 2.395076 
L -48.038992 -0.530453 
L -43.329133 -0.423773 
L -40.8567 -2.403966 
L -30.062378 -2.765412 
L -29.846431 -3.334161 
L -26.782968 -2.86216 
L -26.65727 -3.7868 
L -24.590002 -5.019881 
L -23.202687 -9.012236 
L -22.404398 -9.778872 
L -22.115565 -27.532975 
L -11.987158 -29.535883 
L -1.064801 -38.801631 
L 27.95585 -56.025513 
L 37.745956 -53.826405 
L 42.493918 -50.157457 
L 47.434215 -52.628067 
L 48.677 -46.100818 
L 48.757901 -42.830339 
L 51.505788 -39.310141 
L 51.085247 -38.917064 
L 51.253065 -38.015817 
L 53.841162 -35.309372 
L 52.325477 -32.490861 
L 50.617237 -13.039595 
L 43.482091 -5.438871 
L 40.02082 -0.684589 
L 38.881881 2.381954 
L 37.534014 3.096256 
L 38.554946 7.882507 
L 36.760461 7.847842 
L 36.101901 8.898855 
L 33.606071 9.282508 
L 33.366046 10.03888 
L 31.786849 10.886954 
L 31.215206 12.050033 
L 28.530165 11.707434 
L 24.534693 10.094575 
L 19.585818 10.025081 
L 15.994177 10.839166 
L 12.569009 13.761334 
L 6.676092 12.965588 
L 2.961424 10.51643 
L 1.142869 10.219261 
L -1.651821 11.735034 
L -2.905416 11.703396 
L -3.743154 12.493425 
L -4.594262 12.497801 
L -8.701725 8.144671 
L -9.735356 8.2946 
L -13.750216 6.735077 
L -15.653017 7.64003 
L -18.258496 7.448539 
L -20.666743 8.080055 
L -22.780807 9.387677 
L -23.020165 12.492415 
L -24.05313 14.093494 
L -25.913138 15.606909 
L -26.156501 19.595233 
L -25.748665 20.545278 
L -26.205309 20.961578 
L -31.070612 16.380278 
L -34.138751 17.441718 
L -33.573797 19.00494 
L -34.008376 19.654124 
L -36.197325 16.753499 
L -34.947741 16.218067 
L -35.826931 14.384938 
L -36.715482 14.263787 
L -37.543193 15.033113 
L -39.353721 14.863497 
L -43.107836 12.257174 
L -43.107836 10.068662 
L -41.263204 10.214214 
L -42.902575 9.435296 
L -43.668106 8.463207 
L -45.625725 7.98162 
L -47.082245 5.701061 
L -46.955214 4.316879 
z
" clip-path="url(#pf6d8047b64)" style="fill: #eeeeee; stroke: #000000; stroke-width: 0.3"/>
    <path d="M 10.993117 89.433593 
L 11.760679 87.917313 
L 12.727233 86.787395 
L 13.014669 86.935259 
L 13.187345 86.912466 
L 13.566387 86.70922 
L 12.6788 86.420114 
L 13.988597 84.52808 
L 13.922788 81.878964 
L 14.078678 82.482867 
L 15.161117 83.026042 
L 23.771833 83.025032 
L 23.8641 90.62239 
L 15.409829 90.594119 
L 14.85758 91.106334 
L 13.393711 89.748931 
L 12.530344 90.337211 
L 12.144981 89.748931 
L 11.315304 89.890967 
z
" clip-path="url(#pf6d8047b64)" style="fill: #eeeeee; stroke: #000000; stroke-width: 0.3"/>
    <path d="M 5.141673 74.848219 
L 6.030838 74.57475 
L 6.5973 72.862374 
L 8.250334 72.703119 
L 8.434589 73.506042 
L 6.720488 76.306995 
L 5.193793 75.814643 
z
" clip-path="url(#pf6d8047b64)" style="fill: #eeeeee; stroke: #000000; stroke-width: 0.3"/>
    <path d="M -13.12336 106.461919 
L -13.030181 106.34956 
L -13.057027 106.739628 
z
" clip-path="url(#pf6d8047b64)" style="fill: #eeeeee; stroke: #000000; stroke-width: 0.3"/>
   </g>
   <g id="PatchCollection_2">
    <defs>
     <path id="m2af37c4cce" d="M 43.600428 -50.199384 
L 46.090908 -52.018205 
L 49.012636 -58.069508 
L 50.363848 -58.995665 
L 50.676072 -59.865282 
L 53.549658 -59.636774 
L 56.431931 -60.837202 
L 56.570328 -61.560764 
L 57.582572 -62.123457 
L 58.006451 -60.88331 
L 59.09424 -59.981724 
L 64.641501 -62.872587 
L 70.78313 -63.281821 
L 74.243069 -67.366392 
L 72.597675 -68.501702 
L 73.581837 -69.386128 
L 82.724083 -70.381949 
L 83.414063 -71.576998 
L 84.229735 -71.449276 
L 85.253345 -72.205147 
L 88.040007 -75.836902 
L 88.799522 -75.819736 
L 89.6981 -77.300673 
L 91.027919 -77.92664 
L 91.052656 -80.141398 
L 95.739447 -82.495989 
L 98.417133 -81.980753 
L 101.199791 -78.858516 
L 103.487023 -75.103076 
L 103.405456 -71.290093 
L 102.383857 -70.593967 
L 102.134472 -69.60572 
L 102.98692 -69.318484 
L 102.584427 -67.598605 
L 107.192996 -67.473411 
L 107.405605 -66.744801 
L 106.672167 -65.828074 
L 106.773794 -65.040233 
L 110.961149 -64.144033 
L 112.636624 -62.293405 
L 113.656883 -62.084754 
L 114.061381 -60.752397 
L 113.322593 -60.234126 
L 113.485727 -59.721578 
L 114.582877 -58.642972 
L 118.891583 -56.435951 
L 119.31279 -55.352636 
L 121.168115 -54.199651 
L 120.47078 -52.97768 
L 122.015213 -51.283207 
L 121.470985 -50.416957 
L 123.744846 -49.827173 
L 124.020301 -49.258925 
L 125.99263 -48.439122 
L 126.880515 -47.19426 
L 126.902581 -45.126905 
L 128.046527 -43.893322 
L 125.668367 -44.756882 
L 124.331866 -43.677266 
L 123.506161 -44.047458 
L 121.97376 -43.741882 
L 120.005441 -44.985221 
L 118.146106 -44.540487 
L 115.77129 -45.876712 
L 114.606275 -45.455202 
L 114.243903 -43.642939 
L 110.511187 -42.895489 
L 108.348981 -44.229187 
L 108.363691 -43.667335 
L 107.461768 -42.976087 
L 103.119967 -41.700102 
L 101.997414 -40.768057 
L 98.65849 -42.283829 
L 97.307278 -40.12224 
L 96.679478 -40.00529 
L 96.149288 -38.165941 
L 94.808776 -37.758563 
L 91.147594 -38.830937 
L 87.742486 -38.819163 
L 85.546848 -39.872866 
L 83.662775 -39.622985 
L 82.101626 -41.947287 
L 78.774741 -44.064286 
L 76.085689 -44.28186 
L 73.978974 -42.842315 
L 71.844176 -39.529258 
L 70.476922 -39.055414 
L 71.15353 -37.219764 
L 71.023154 -33.513461 
L 70.024954 -34.524085 
L 68.578804 -34.151874 
L 68.145558 -33.516828 
L 67.501715 -34.077333 
L 65.949927 -33.925554 
L 65.633012 -34.429348 
L 63.470806 -35.020481 
L 60.56179 -33.912425 
L 58.169586 -33.850336 
L 57.044355 -31.42709 
L 57.132611 -29.341897 
L 55.195718 -25.504011 
L 54.391406 -30.015646 
L 53.476785 -31.045794 
L 52.646396 -31.111081 
L 48.113385 -36.176826 
L 47.732292 -37.090193 
L 48.791999 -37.331322 
L 48.154166 -37.713465 
L 47.525026 -39.611881 
L 45.735225 -40.97116 
L 45.35747 -44.504311 
L 44.458226 -45.32513 
L 45.08937 -46.658327 
L 45.08937 -49.065754 
z
" style="stroke: #dd0000; stroke-width: 0.5"/>
    </defs>
    <g clip-path="url(#pf6d8047b64)">
     <use xlink:href="#m2af37c4cce" x="0" y="108" style="fill: #ff6b6b; stroke: #dd0000; stroke-width: 0.5"/>
    </g>
   </g>
  </g>
 </g>
 <defs>
  <clipPath id="pf6d8047b64">
   <rect x="0" y="0" width="171.646955" height="108"/>
  </clipPath>
 </defs>
</svg>
