<?xml version="1.0" encoding="utf-8" standalone="no"?>
<!DOCTYPE svg PUBLIC "-//W3C//DTD SVG 1.1//EN"
  "http://www.w3.org/Graphics/SVG/1.1/DTD/svg11.dtd">
<svg xmlns:xlink="http://www.w3.org/1999/xlink" width="169.098819pt" height="108pt" viewBox="0 0 169.098819 108" xmlns="http://www.w3.org/2000/svg" version="1.1">
 <metadata>
  <rdf:RDF xmlns:dc="http://purl.org/dc/elements/1.1/" xmlns:cc="http://creativecommons.org/ns#" xmlns:rdf="http://www.w3.org/1999/02/22-rdf-syntax-ns#">
   <cc:Work>
    <dc:type rdf:resource="http://purl.org/dc/dcmitype/StillImage"/>
    <dc:date>2025-09-05T15:49:27.695422</dc:date>
    <dc:format>image/svg+xml</dc:format>
    <dc:creator>
     <cc:Agent>
      <dc:title>Matplotlib v3.10.3, https://matplotlib.org/</dc:title>
     </cc:Agent>
    </dc:creator>
   </cc:Work>
  </rdf:RDF>
 </metadata>
 <defs>
  <style type="text/css">*{stroke-linejoin: round; stroke-linecap: butt}</style>
 </defs>
 <g id="figure_1">
  <g id="patch_1">
   <path d="M 0 108 
L 169.098819 108 
L 169.098819 0 
L 0 0 
z
" style="fill: #ffffff"/>
  </g>
  <g id="axes_1">
   <g id="PatchCollection_1">
    <path d="M -230.245451 -99.969846 
L -228.504679 -110.375516 
L -221.389482 -110.075995 
L -215.540708 -114.310502 
L -208.857343 -124.974544 
L -207.344794 -125.008857 
L -206.247299 -130.240263 
L -198.291927 -136.374834 
L -197.589375 -138.626982 
L -197.734791 -142.923234 
L -205.031233 -143.698352 
L -206.604182 -145.731019 
L -204.292873 -150.205603 
L -206.683613 -149.746024 
L -204.606112 -154.318944 
L -197.542375 -156.932358 
L -196.385605 -162.746833 
L -198.35235 -166.135364 
L -197.615094 -173.550338 
L -199.638905 -177.697969 
L -203.583587 -179.650596 
L -205.192344 -185.387332 
L -201.780162 -185.071794 
L -198.781952 -187.008426 
L -129.009373 -186.638023 
L -50.102246 -141.432466 
L -48.907439 -135.494545 
L -51.393283 -133.313256 
L -51.093466 -131.09082 
L -48.728445 -130.786719 
L -47.372526 -127.949224 
L -16.108284 -105.091523 
L -16.141775 -101.380973 
L -18.412731 -100.048714 
L -18.935987 -97.146531 
L -17.674544 -96.082512 
L -25.548018 -74.867077 
L -22.604038 -66.419787 
L -19.880315 -65.679845 
L -14.702378 -59.994301 
L -14.697095 -57.707841 
L -10.708379 -57.10652 
L -8.777442 -53.941496 
L -8.911341 -51.341777 
L -13.668206 -47.116317 
L -15.296101 -35.74346 
L -13.668206 -37.889485 
L -11.162921 -35.538204 
L -10.928614 -31.604412 
L -14.702378 -24.993493 
L -13.093858 -16.04032 
L -8.777442 -11.431383 
L -11.03608 -12.839258 
L -12.350389 -11.949898 
L -10.11641 -11.074918 
L -9.971946 -6.964696 
L -8.442705 -7.654221 
L -6.82715 -5.52981 
L -8.481479 0.188144 
L -6.677383 0.12693 
L -4.725316 5.038307 
L -5.67668 6.766653 
L -3.432158 8.513007 
L -5.810579 13.370382 
L -2.863093 12.196545 
L 0.561841 17.298754 
L 1.312368 15.350773 
L 3.755974 16.164539 
L 3.495234 18.409586 
L 5.9089 18.973098 
L 5.9089 16.84506 
L 8.435314 20.332369 
L 10.128416 19.048714 
L 10.341594 22.91408 
L 1.060049 30.354783 
L -9.972985 34.32636 
L -15.065496 38.222477 
L -23.010801 38.243052 
L -31.757118 43.680244 
L -36.858592 40.664417 
L -43.754506 40.815317 
L -46.376846 46.337107 
L -53.8948 50.450448 
L -60.996575 49.460408 
L -63.361596 47.029906 
L -67.957371 47.221976 
L -72.166084 50.491619 
L -81.389003 50.052613 
L -82.073674 47.336307 
L -89.470783 43.680244 
L -94.885496 47.921632 
L -108.12692 47.221976 
L -109.816233 42.838847 
L -112.436322 42.168902 
L -115.72766 36.793454 
L -114.396356 29.056084 
L -116.430234 24.350537 
L -117.396818 13.361821 
L -122.12686 6.198362 
L -128.73415 0.850346 
L -130.917947 6.17093 
L -134.755228 3.209966 
L -141.155554 4.037648 
L -144.158246 1.177299 
L -161.092639 -3.999242 
L -163.141066 -6.530337 
L -173.648289 -8.345802 
L -173.679615 -11.203872 
L -179.394144 -11.635997 
L -182.287206 -16.270663 
L -186.307962 -18.845206 
L -192.271974 -18.200436 
L -194.832789 -19.656893 
L -206.044816 -40.765474 
L -209.231005 -50.65212 
L -213.638845 -56.391112 
L -221.948848 -62.379363 
L -225.877878 -70.038992 
L -226.947381 -76.034079 
L -223.996149 -82.621349 
z
" clip-path="url(#pb8e61d81a5)" style="fill: #eeeeee; stroke: #000000; stroke-width: 0.3"/>
    <path d="M -16.642126 -77.9781 
L -14.702378 -79.576806 
L -13.978284 -82.309771 
L -11.747833 -71.831671 
L -9.919101 -71.739839 
L -9.971946 -73.342173 
L -8.999431 -68.974486 
L -9.757015 -65.841872 
L -11.747833 -69.413779 
L -12.027971 -67.813259 
L -16.465947 -71.196149 
z
" clip-path="url(#pb8e61d81a5)" style="fill: #eeeeee; stroke: #000000; stroke-width: 0.3"/>
    <path d="M -6.842997 -89.04491 
L -6.39902 -91.849863 
L -3.858513 -92.908484 
L -4.82397 -92.894082 
L -6.695005 -93.981485 
L -4.612568 -93.664642 
L -5.955043 -100.630235 
L -2.979369 -98.340168 
L -2.234125 -100.477189 
L -3.530812 -89.203331 
z
" clip-path="url(#pb8e61d81a5)" style="fill: #eeeeee; stroke: #000000; stroke-width: 0.3"/>
    <path d="M -8.053349 -33.041113 
L -1.374379 -39.851868 
L -1.423695 -37.275554 
L -2.942371 -33.737849 
L -7.131925 -32.149939 
z
" clip-path="url(#pb8e61d81a5)" style="fill: #eeeeee; stroke: #000000; stroke-width: 0.3"/>
    <path d="M -8.30688 -89.475132 
L -6.645905 -88.227516 
L -6.480723 -87.673848 
L -7.44367 -87.943105 
z
" clip-path="url(#pb8e61d81a5)" style="fill: #eeeeee; stroke: #000000; stroke-width: 0.3"/>
    <path d="M -5.550142 -29.813304 
L -5.550055 -30.751069 
L -3.413475 -31.689452 
z
" clip-path="url(#pb8e61d81a5)" style="fill: #eeeeee; stroke: #000000; stroke-width: 0.3"/>
    <path d="M -16.123157 -81.005807 
L -15.615488 -79.265471 
L -16.121901 -79.21992 
z
" clip-path="url(#pb8e61d81a5)" style="fill: #eeeeee; stroke: #000000; stroke-width: 0.3"/>
    <path d="M -968.305691 -1278.354647 
L -968.222883 -1282.221828 
L -963.873019 -1284.642419 
L -951.107894 -1286.925273 
L -948.460808 -1284.642419 
L -947.560514 -1286.934277 
L -942.682111 -1285.818955 
L -941.177529 -1289.339559 
L -934.995382 -1290.01019 
L -934.796298 -1288.281844 
L -932.002086 -1289.988576 
L -932.738519 -1287.525686 
L -930.198877 -1288.885864 
L -923.14551 -1281.974273 
L -915.215663 -1286.167323 
L -915.523988 -1284.642419 
L -912.999327 -1283.585611 
L -909.506567 -1285.095206 
L -907.946477 -1282.075109 
L -908.994764 -1284.943975 
L -907.19595 -1286.167323 
L -904.990179 -1286.467972 
L -903.956895 -1284.339048 
L -894.443187 -1284.943975 
L -898.709378 -1287.242138 
L -899.777019 -1289.503378 
L -897.721015 -1293.58119 
L -899.574427 -1293.477677 
L -899.939105 -1297.612212 
L -898.59663 -1297.824657 
L -904.399985 -1301.325439 
L -905.87638 -1304.58141 
L -904.898582 -1306.547399 
L -906.970455 -1308.855452 
L -899.858072 -1307.217124 
L -892.418877 -1308.222628 
L -891.655145 -1306.642815 
L -893.354395 -1305.182731 
L -889.384188 -1300.478379 
L -885.434224 -1301.514479 
L -869.826458 -1299.032696 
L -856.170759 -1302.836849 
L -854.398379 -1303.755941 
L -859.514638 -1303.102411 
L -863.41704 -1304.671428 
L -859.969202 -1308.970667 
L -838.637338 -1314.494183 
L -832.146866 -1319.708024 
L -828.866396 -1319.218335 
L -831.702889 -1321.106895 
L -830.212421 -1323.159318 
L -831.406925 -1323.913662 
L -830.857236 -1334.179316 
L -810.48072 -1339.018462 
L -808.604836 -1336.22185 
L -809.074705 -1333.662173 
L -804.745169 -1330.961861 
L -797.330156 -1332.194257 
L -794.260331 -1326.616451 
L -786.959408 -1325.500665 
L -785.041893 -1321.556519 
L -778.407758 -1322.570563 
L -774.201275 -1320.67738 
L -775.756321 -1317.794157 
L -773.932785 -1316.289672 
L -775.628787 -1314.405626 
L -764.497316 -1314.615969 
L -760.823354 -1318.528103 
L -759.603932 -1318.051379 
L -761.508025 -1314.036351 
L -759.856771 -1313.041754 
L -760.098416 -1310.405465 
L -751.217854 -1308.130442 
L -746.95543 -1303.87421 
L -740.672593 -1304.991125 
L -736.032048 -1302.599493 
L -726.462312 -1303.133383 
L -719.728614 -1296.350614 
L -715.385656 -1297.408107 
L -712.611188 -1295.216531 
L -707.5925 -1295.159366 
L -704.645727 -1296.573545 
L -699.785921 -1293.672026 
L -687.546888 -1291.919456 
L -695.991137 -1284.31927 
L -697.279944 -1278.265315 
L -700.853194 -1273.583219 
L -700.085738 -1270.081507 
L -702.450759 -1264.238471 
L -700.845358 -1261.523934 
L -705.337109 -1258.117617 
L -714.110293 -1259.410607 
L -716.419373 -1256.425641 
L -712.740952 -1255.880313 
L -720.775753 -1249.061528 
L -725.598648 -1247.355261 
L -725.889523 -1243.299085 
L -732.617636 -1239.375536 
L -734.007111 -1235.746353 
L -732.257397 -1234.662003 
L -733.145677 -1232.065735 
L -736.159582 -1230.890482 
L -736.072315 -1229.353985 
L -732.143286 -1229.79069 
L -729.093594 -1231.77878 
L -730.545721 -1233.446752 
L -729.355395 -1234.764321 
L -724.726042 -1236.391698 
L -718.142242 -1235.630319 
L -718.936543 -1234.111521 
L -717.262904 -1232.429279 
L -718.6054 -1229.821573 
L -713.054191 -1224.814227 
L -717.844655 -1222.628381 
L -717.949826 -1220.23217 
L -710.053729 -1213.435662 
L -712.331483 -1209.071957 
L -722.132798 -1206.633469 
L -719.043943 -1202.305204 
L -713.378644 -1200.40857 
L -712.338216 -1197.373319 
L -714.401168 -1197.335577 
L -717.088391 -1194.036224 
L -715.311811 -1191.874381 
L -716.430565 -1190.454494 
L -713.904454 -1187.57012 
L -706.366367 -1184.993276 
L -699.338415 -1186.117071 
L -698.595574 -1183.711723 
L -703.186889 -1179.24685 
L -703.218475 -1177.0151 
L -710.249804 -1174.584598 
L -710.524876 -1172.355701 
L -714.353043 -1172.047906 
L -715.826451 -1169.559553 
L -719.352679 -1169.121941 
L -722.389035 -1166.047997 
L -720.170405 -1166.138148 
L -720.464246 -1164.558136 
L -727.054845 -1162.108873 
L -730.998704 -1162.50558 
L -731.282869 -1160.89391 
L -736.46007 -1163.064093 
L -738.285599 -1161.090958 
L -742.240564 -1164.078867 
L -749.318459 -1164.87551 
L -750.461677 -1167.963258 
L -756.09368 -1167.520891 
L -756.264447 -1169.154727 
L -751.93043 -1170.724629 
L -756.199262 -1172.456581 
L -755.723591 -1169.595812 
L -759.684098 -1169.422967 
L -759.952481 -1167.660331 
L -762.073106 -1169.442767 
L -762.406089 -1171.702237 
L -763.442015 -1172.910276 
L -762.404314 -1169.44728 
L -760.720998 -1167.761587 
L -779.497287 -1172.0443 
L -797.659675 -1162.451069 
L -799.222385 -1151.892863 
L -796.210363 -1147.522034 
L -801.563462 -1148.379095 
L -807.441333 -1145.476447 
L -815.771492 -1147.458807 
L -821.870875 -1145.69022 
L -828.008296 -1148.898693 
L -827.795724 -1151.468105 
L -834.132294 -1151.148009 
L -836.009542 -1153.65395 
L -847.476637 -1156.374261 
L -850.866434 -1156.524608 
L -851.141636 -1153.118932 
L -865.917973 -1153.133798 
L -872.063231 -1156.614913 
L -877.394032 -1155.06928 
L -881.521085 -1158.915665 
L -889.969815 -1160.225801 
L -892.916587 -1162.514562 
L -896.620727 -1161.096378 
L -895.459476 -1165.482383 
L -900.187288 -1165.563551 
L -903.966399 -1168.381601 
L -901.034067 -1168.941375 
L -897.047992 -1172.931868 
L -892.292902 -1194.523589 
L -890.761908 -1196.94418 
L -887.692862 -1197.031499 
L -890.452717 -1199.43948 
L -892.360728 -1196.102495 
L -888.57023 -1216.933568 
L -881.662214 -1211.558607 
L -880.575176 -1207.320559 
L -876.649891 -1202.021192 
L -877.981823 -1204.890057 
L -875.7646 -1204.30044 
L -879.276735 -1206.537389 
L -882.296464 -1214.90006 
L -892.077971 -1220.049988 
L -890.270368 -1222.191522 
L -886.446379 -1220.214737 
L -890.00874 -1223.550792 
L -887.778289 -1227.326141 
L -891.287805 -1230.329159 
L -889.121673 -1233.163823 
L -891.922055 -1232.756033 
L -903.943689 -1237.408176 
L -906.422519 -1241.772234 
L -910.944189 -1244.607805 
L -908.171995 -1249.373349 
L -913.59305 -1251.742637 
L -911.949287 -1252.304336 
L -911.848879 -1254.589911 
L -902.463765 -1253.25314 
L -908.59218 -1255.66382 
L -914.399951 -1254.041686 
L -920.106427 -1255.229925 
L -917.816073 -1255.38297 
L -920.418259 -1257.068995 
L -916.855898 -1257.962868 
L -919.083686 -1259.457176 
L -916.25161 -1259.788443 
L -922.054965 -1260.090906 
L -921.348494 -1260.29614 
L -920.860461 -1260.84525 
L -926.063057 -1259.634513 
L -928.057404 -1260.944272 
L -924.424575 -1260.787643 
L -923.281185 -1261.96148 
L -923.180755 -1262.372854 
L -923.668766 -1262.809448 
L -928.277639 -1261.765228 
L -929.473896 -1263.27573 
L -928.721616 -1260.996482 
L -932.690935 -1261.83726 
L -932.873284 -1259.170022 
L -934.36466 -1262.740137 
L -932.577299 -1264.78714 
L -934.204328 -1265.103098 
L -934.875576 -1263.111911 
L -937.778141 -1264.017486 
L -936.140548 -1263.880657 
L -937.778141 -1264.31995 
L -936.140548 -1266.008695 
L -939.68704 -1264.177722 
L -954.532849 -1269.0297 
L -955.680656 -1266.584796 
L -959.720463 -1266.447966 
L -961.080561 -1270.174711 
L -967.434492 -1271.611411 
L -957.849429 -1273.265933 
L -959.881662 -1275.85395 
L -963.740008 -1274.633301 
L -965.230475 -1277.063803 
L -963.506567 -1278.386172 
L -962.83179 -1277.25824 
L -957.502352 -1277.093514 
L -955.729972 -1277.51659 
L -961.49371 -1278.13322 
L -957.947196 -1280.261237 
z
M -822.913533 -1147.95896 
L -821.78809 -1147.796623 
L -822.716636 -1148.634613 
z
" clip-path="url(#pb8e61d81a5)" style="fill: #eeeeee; stroke: #000000; stroke-width: 0.3"/>
    <path d="M -2047.440388 -260.281366 
L -2042.251669 -263.765932 
L -2037.804666 -271.935448 
L -2038.691819 -278.004845 
L -2034.185541 -285.26091 
L -2034.007652 -288.982124 
L -2039.338453 -294.573668 
L -2042.921792 -301.546207 
L -2044.656957 -317.285048 
L -2040.859943 -324.427358 
L -2035.442827 -329.088725 
L -2032.69161 -335.908196 
L -2010.230709 -328.406413 
L -1999.243159 -317.128927 
L -1996.864738 -317.910283 
L -1998.193119 -313.339155 
L -1995.842884 -316.676139 
L -1991.352951 -312.65233 
L -1989.755863 -307.352962 
L -1991.824228 -304.688445 
L -1989.44756 -305.979289 
L -1988.85559 -311.815158 
L -1986.524731 -310.863677 
L -1983.223998 -300.679037 
L -1998.514455 -278.539886 
L -1999.682417 -272.915202 
L -2005.772838 -261.314856 
L -2012.057947 -256.896264 
L -2018.283739 -257.393585 
L -2017.540898 -258.615694 
L -2019.920467 -260.798111 
L -2023.98372 -258.528796 
L -2029.028127 -261.219971 
L -2036.534391 -255.591393 
z
" clip-path="url(#pb8e61d81a5)" style="fill: #eeeeee; stroke: #000000; stroke-width: 0.3"/>
    <path d="M -679.996201 -1146.318951 
L -677.605439 -1147.486483 
L -676.53074 -1150.789244 
L -667.682998 -1154.170319 
L -663.909213 -1152.903765 
L -662.728824 -1160.181732 
L -660.188295 -1159.879269 
L -660.646365 -1152.147607 
L -658.801764 -1150.443575 
L -658.119951 -1141.218534 
L -661.506133 -1136.935466 
L -661.539602 -1131.48219 
L -663.909213 -1129.711524 
L -662.644241 -1128.711439 
L -665.672782 -1125.769635 
L -665.403231 -1124.094406 
L -674.742513 -1128.269447 
L -671.907796 -1131.221141 
L -677.700586 -1132.443582 
L -674.446528 -1135.917374 
L -678.585012 -1135.781451 
L -679.191053 -1137.29014 
L -675.755555 -1139.228232 
L -679.635031 -1142.590414 
L -676.994094 -1144.014483 
z
" clip-path="url(#pb8e61d81a5)" style="fill: #eeeeee; stroke: #000000; stroke-width: 0.3"/>
    <path d="M -2190.414138 -537.264347 
L -2183.049827 -535.733138 
L -2184.309494 -533.280159 
L -2181.55845 -528.757656 
L -2182.861307 -527.565811 
L -2182.816386 -529.06731 
L -2187.168891 -528.862076 
L -2187.954663 -529.965695 
L -2185.576241 -531.036905 
L -2189.117451 -533.291862 
z
" clip-path="url(#pb8e61d81a5)" style="fill: #eeeeee; stroke: #000000; stroke-width: 0.3"/>
    <path d="M 330.499112 256.418986 
L 331.841609 253.808449 
L 338.140032 252.991099 
L 344.117813 259.234735 
L 343.198143 263.339559 
L 338.06779 263.901279 
L 333.187612 261.766051 
z
" clip-path="url(#pb8e61d81a5)" style="fill: #eeeeee; stroke: #000000; stroke-width: 0.3"/>
    <path d="M 110.048799 72.107122 
L 111.095311 70.974699 
L 113.473733 72.649021 
L 113.163654 78.089709 
L 111.232739 78.388567 
L 110.482212 76.534209 
L 112.083673 76.653031 
z
" clip-path="url(#pb8e61d81a5)" style="fill: #eeeeee; stroke: #000000; stroke-width: 0.3"/>
    <path d="M -2197.443713 -569.096503 
L -2195.675749 -574.133914 
L -2193.580085 -570.499886 
L -2189.203787 -568.379966 
L -2195.667826 -567.259246 
z
" clip-path="url(#pb8e61d81a5)" style="fill: #eeeeee; stroke: #000000; stroke-width: 0.3"/>
    <path d="M -2202.924671 -569.689726 
L -2201.636795 -570.86447 
L -2197.605799 -569.100109 
L -2197.915877 -563.524405 
L -2200.707448 -561.658322 
z
" clip-path="url(#pb8e61d81a5)" style="fill: #eeeeee; stroke: #000000; stroke-width: 0.3"/>
    <path d="M -898.75694 -1232.037683 
L -893.394034 -1231.045696 
L -892.816158 -1229.923161 
L -897.640849 -1231.061889 
z
" clip-path="url(#pb8e61d81a5)" style="fill: #eeeeee; stroke: #000000; stroke-width: 0.3"/>
    <path d="M -2192.850709 -561.277544 
L -2191.471214 -562.987882 
L -2189.862695 -561.280243 
L -2191.613924 -559.990284 
z
" clip-path="url(#pb8e61d81a5)" style="fill: #eeeeee; stroke: #000000; stroke-width: 0.3"/>
    <path d="M 115.098121 74.461986 
L 115.246113 73.102716 
L 115.246113 74.461986 
z
" clip-path="url(#pb8e61d81a5)" style="fill: #eeeeee; stroke: #000000; stroke-width: 0.3"/>
    <path d="M -660.350381 -1152.298839 
L -659.797184 -1151.694819 
L -659.911707 -1151.67232 
z
" clip-path="url(#pb8e61d81a5)" style="fill: #eeeeee; stroke: #000000; stroke-width: 0.3"/>
    <path d="M -731.583421 -1160.091714 
L -731.38962 -1160.297855 
L -729.721176 -1160.157441 
z
" clip-path="url(#pb8e61d81a5)" style="fill: #eeeeee; stroke: #000000; stroke-width: 0.3"/>
    <path d="M -895.490564 -1227.643913 
L -892.085007 -1226.506977 
L -891.253448 -1222.356248 
z
" clip-path="url(#pb8e61d81a5)" style="fill: #eeeeee; stroke: #000000; stroke-width: 0.3"/>
    <path d="M -914.773461 -1249.324745 
L -912.703342 -1249.129401 
L -911.459522 -1246.596293 
z
" clip-path="url(#pb8e61d81a5)" style="fill: #eeeeee; stroke: #000000; stroke-width: 0.3"/>
    <path d="M -916.662984 -1242.454569 
L -914.828947 -1242.39966 
L -914.195585 -1241.896454 
z
" clip-path="url(#pb8e61d81a5)" style="fill: #eeeeee; stroke: #000000; stroke-width: 0.3"/>
    <path d="M -935.695683 -1257.068995 
L -931.47266 -1255.270431 
L -934.859708 -1255.496394 
z
" clip-path="url(#pb8e61d81a5)" style="fill: #eeeeee; stroke: #000000; stroke-width: 0.3"/>
    <path d="M -976.195033 -1280.852646 
L -975.307078 -1281.349547 
L -975.224271 -1280.606906 
z
" clip-path="url(#pb8e61d81a5)" style="fill: #eeeeee; stroke: #000000; stroke-width: 0.3"/>
    <path d="M -2187.646359 -569.539402 
L -2186.509983 -570.403563 
L -2187.147762 -569.469184 
z
" clip-path="url(#pb8e61d81a5)" style="fill: #eeeeee; stroke: #000000; stroke-width: 0.3"/>
    <path d="M -2198.558938 -559.749034 
L -2198.21801 -560.146028 
L -2198.266461 -559.725628 
z
" clip-path="url(#pb8e61d81a5)" style="fill: #eeeeee; stroke: #000000; stroke-width: 0.3"/>
    <path d="M -2199.482116 -559.535704 
L -2199.000253 -559.686935 
L -2199.248675 -559.397967 
z
" clip-path="url(#pb8e61d81a5)" style="fill: #eeeeee; stroke: #000000; stroke-width: 0.3"/>
    <path d="M -210.962815 122.614482 
L -146.270428 101.208658 
L -136.698484 114.214025 
L -135.062882 111.735516 
L -127.910752 111.856683 
L -121.560782 109.471909 
L -117.792864 114.339793 
L -116.689784 129.023419 
L -123.961611 142.710147 
L -120.251842 146.46908 
L -119.777513 151.206617 
L -109.406764 161.536848 
L -104.799797 163.58551 
L -105.931952 169.699484 
L -101.04082 170.131631 
L -101.338407 160.6497 
L -104.50444 157.041667 
L -99.250817 148.266228 
L -96.221281 148.938452 
L -90.363544 146.082661 
L -89.164255 132.25417 
L -90.383677 126.826136 
L -87.783721 120.52237 
L -89.018817 115.290942 
L -105.540387 94.358436 
L -110.32414 90.19023 
L -115.141449 89.671207 
L -117.204402 85.985434 
L -118.30523 71.86313 
L -121.345981 61.068762 
L -115.658297 47.327148 
L -95.854331 48.088549 
L -89.470783 43.680244 
L -82.073674 47.336307 
L -81.389003 50.052613 
L -72.166084 50.491619 
L -67.957371 47.221976 
L -63.361596 47.029906 
L -60.996575 49.460408 
L -53.8948 50.450448 
L -46.376846 46.337107 
L -43.754506 40.815317 
L -36.858592 40.664417 
L -31.757118 43.680244 
L -23.010801 38.243052 
L -15.60921 38.387115 
L -9.972985 34.32636 
L -3.752779 33.041378 
L 11.936019 22.9789 
L 11.851437 24.939491 
L 15.063214 27.607614 
L 11.391612 29.271162 
L 14.312687 31.01391 
L 11.624166 33.554207 
L 11.849683 35.356377 
L 13.139313 34.841468 
L 11.849683 38.679845 
L 8.435314 41.547803 
L 10.968786 43.0547 
L 10.140734 48.914881 
L 12.145668 53.09532 
L 12.247851 61.180726 
L 10.65165 62.487787 
L 13.030094 65.220752 
L 11.236584 67.741249 
L 13.051223 68.38217 
L 14.887035 73.608621 
L 9.779564 77.497393 
L 11.349332 79.263546 
L 11.712255 77.628824 
L 13.770034 78.240941 
L 12.29366 90.074705 
L 13.770034 91.282744 
L 12.561458 92.858066 
L 14.968067 101.60782 
L 12.543836 104.540599 
L 13.689002 106.726245 
L 15.958205 104.940292 
L 17.03641 106.895485 
L 16.740425 108.422181 
L 14.657989 108.422181 
L 14.509996 113.430788 
L 16.049801 110.46018 
L 18.234443 109.988499 
L 19.124151 111.176738 
L 17.358828 112.735844 
L 18.822884 112.512603 
L 19.242181 116.498605 
L 16.606548 120.522392 
L 14.805981 119.789662 
L 17.638945 122.974486 
L 15.408515 122.508203 
L 16.29647 124.638034 
L 12.31479 125.923481 
L 11.983582 127.052298 
L 14.640366 126.667029 
L 15.641069 128.179323 
L 13.479353 133.911679 
L 2.290165 144.908271 
L 3.801784 144.848871 
L 0.718644 150.06811 
L -3.805667 151.827074 
L -3.2736 153.751649 
L -2.234125 154.655433 
L -17.968754 164.346756 
L -18.805617 166.912274 
L -28.062092 167.835857 
L -38.67165 173.631219 
L -40.664244 171.4888 
L -39.644166 173.604229 
L -59.961212 183.612418 
L -64.407999 189.667036 
L -66.488682 186.761248 
L -67.683186 186.685632 
L -64.555991 190.423172 
L -75.473853 201.702428 
L -76.890345 206.756055 
L -80.556643 204.748652 
L -79.932958 209.101915 
L -82.535143 209.314361 
L -83.031966 207.107122 
L -88.844132 210.439594 
L -104.615759 227.112726 
L -109.957536 230.616229 
L -115.442002 224.69844 
L -117.03292 224.397769 
L -112.175625 229.546812 
L -113.65555 231.069902 
L -112.233775 237.003907 
L -114.82362 236.989483 
L -112.917363 238.649425 
L -115.147792 241.958491 
L -113.502275 243.9695 
L -114.541729 245.609619 
L -112.991359 245.238752 
L -110.123151 249.413772 
L -107.505118 249.791851 
L -106.546696 254.398973 
L -104.760222 255.018302 
L -107.004767 258.219342 
L -105.796169 262.884072 
L -104.61223 259.713628 
L -104.760222 264.106513 
L -101.493846 270.011692 
L -100.743319 286.481382 
L -98.830004 288.674241 
L -97.804644 280.529391 
L -96.518543 280.230534 
L -96.16088 284.745847 
L -95.422693 281.84727 
L -96.76519 293.149932 
L -95.716925 298.833661 
L -94.238776 298.120709 
L -97.001272 303.919677 
L -98.909305 316.554597 
L -99.099577 314.999097 
L -99.992793 314.966687 
L -100.165465 321.345361 
L -99.131272 318.688033 
L -97.270823 319.478393 
L -97.059399 317.316153 
L -95.944196 317.77164 
L -96.604857 324.371763 
L -105.056207 335.357559 
L -144.657904 350.819068 
L -143.74882 349.836063 
L -153.41405 356.284955 
L -157.434482 363.851868 
L -159.502825 365.690031 
L -161.123684 365.268746 
L -161.985205 366.033908 
L -154.069429 372.761857 
L -151.645198 368.120511 
L -152.973601 385.094314 
L -169.842334 384.959144 
L -170.779843 366.592045 
L -173.406643 365.448804 
L -174.346382 362.238627 
L -172.399771 358.34251 
L -172.598898 331.490357 
L -175.545671 320.595375 
L -182.534459 310.113116 
L -182.345376 303.480096 
L -187.91449 287.072482 
L -162.626448 262.701138 
L -164.95118 258.727282 
L -161.677746 254.35329 
L -161.881355 246.979465 
L -157.76439 245.404098 
L -153.141749 235.917588 
L -150.501526 234.346779 
L -149.948849 228.863858 
L -151.888749 225.88002 
L -154.563676 226.433356 
L -154.291808 222.596683 
L -155.781972 221.780417 
L -153.778316 213.368545 
L -157.563012 210.519612 
L -157.339269 207.849033 
L -152.769213 206.52746 
L -153.45724 201.245746 
L -149.732944 197.180412 
L -151.633681 195.063169 
L -152.231085 188.793694 
L -150.127865 180.969426 
L -152.031957 178.29429 
L -150.190495 174.914896 
L -154.365652 165.835379 
L -151.340576 160.22669 
L -156.475605 160.828032 
L -157.76439 158.415826 
L -166.019579 155.141626 
L -174.250174 154.636318 
L -178.570747 149.967363 
L -185.198171 148.737245 
L -188.328418 145.666531 
L -206.890577 145.17494 
L -207.100918 133.660341 
z
M -114.810284 58.343297 
L -114.094288 59.411077 
L -112.505686 57.547627 
L -113.982427 56.665037 
z
M -117.231246 56.907415 
L -115.779119 58.261 
L -115.425592 56.374675 
z
" clip-path="url(#pb8e61d81a5)" style="fill: #eeeeee; stroke: #000000; stroke-width: 0.3"/>
    <path d="M -97.9456 273.081322 
L -97.889205 270.649028 
L -97.195074 267.908873 
L -96.737003 269.961296 
z
" clip-path="url(#pb8e61d81a5)" style="fill: #eeeeee; stroke: #000000; stroke-width: 0.3"/>
    <path d="M -2.983851 152.169469 
L -0.276971 151.832759 
L -1.74685 154.370203 
z
" clip-path="url(#pb8e61d81a5)" style="fill: #eeeeee; stroke: #000000; stroke-width: 0.3"/>
    <path d="M -152.427441 366.406567 
L -151.035628 365.690031 
L -151.497206 367.351765 
z
" clip-path="url(#pb8e61d81a5)" style="fill: #eeeeee; stroke: #000000; stroke-width: 0.3"/>
    <path d="M 70.656751 283.521592 
L 72.363925 282.725834 
L 71.174725 278.660632 
L 73.109169 272.769855 
L 76.063714 270.629228 
L 76.817769 262.608621 
L 83.426271 260.723645 
L 85.348398 253.171134 
L 97.739125 233.33477 
L 95.508674 228.639422 
L 97.865967 222.22294 
L 92.554152 213.480398 
L 93.050974 207.17734 
L 88.383974 198.173727 
L 88.251829 184.29296 
L 85.834634 179.359968 
L 96.803608 160.641625 
L 97.106629 149.477585 
L 106.278543 150.033908 
L 114.895508 143.464381 
L 115.577321 147.62502 
L 117.924048 146.361165 
L 117.342643 144.568022 
L 121.470541 143.88748 
L 122.221067 146.294554 
L 123.436701 140.807053 
L 129.664657 140.151731 
L 132.208694 142.092522 
L 132.314406 140.248939 
L 131.119902 140.551402 
L 133.90002 138.592625 
L 135.876767 138.89688 
L 135.267175 141.154537 
L 137.94511 144.643616 
L 139.125521 142.981904 
L 140.926088 144.189943 
L 137.250957 141.069917 
L 137.980355 136.965093 
L 151.333033 127.414183 
L 154.044438 130.192146 
L 151.523306 135.182723 
L 157.451749 132.610016 
L 153.637459 127.307949 
L 160.476761 120.603428 
L 158.568728 119.638431 
L 162.057093 115.75864 
L 163.621556 119.033504 
L 161.687112 125.404988 
L 169.68392 113.430788 
L 172.358326 116.603024 
L 173.396027 114.665839 
L 174.081368 117.766043 
L 174.357956 114.840477 
L 169.830137 112.971695 
L 168.727251 114.186924 
L 167.613801 110.777045 
L 169.548245 105.840469 
L 172.853395 106.045703 
L 172.345986 102.805063 
L 174.372049 104.01131 
L 173.702576 108.099918 
L 174.810744 106.706445 
L 175.119069 102.761857 
L 172.800528 100.992098 
L 174.446045 99.85786 
L 171.387564 96.129324 
L 172.004192 92.123522 
L 175.555988 90.224145 
L 178.24096 95.744055 
L 180.541878 96.438977 
L 181.292405 90.865065 
L 185.640516 90.299761 
L 184.516501 86.753052 
L 187.173285 88.634421 
L 190.96467 87.271544 
L 194.757831 74.613218 
L 193.277929 69.147332 
L 189.879407 66.279351 
L 194.55169 67.273153 
L 195.392081 64.032513 
L 200.087268 59.900677 
L 197.738787 58.836658 
L 199.218711 57.778059 
L 200.561186 59.002291 
L 199.662667 57.626827 
L 201.745126 55.498788 
L 203.801129 61.040312 
L 201.436801 59.758449 
L 200.69686 61.569623 
L 203.28846 63.260161 
L 203.980837 61.585817 
L 205.601696 64.918289 
L 207.402263 65.022708 
L 206.341658 65.660023 
L 208.420566 67.319964 
L 207.902615 70.546202 
L 209.900491 74.461986 
L 211.834935 73.102716 
L 216.121389 79.528202 
L 220.467747 96.104126 
L 221.91418 117.5086 
L 227.981826 127.880466 
L 227.839115 132.835071 
L 224.664358 140.972687 
L 221.013907 144.807457 
L 216.729206 138.90949 
L 215.233457 132.366975 
L 211.264116 132.907081 
L 209.546357 135.072906 
L 211.609439 143.061104 
L 210.658053 147.06872 
L 214.123513 150.474993 
L 214.213378 157.085912 
L 211.419166 161.828072 
L 213.917394 163.455582 
L 208.896259 164.982301 
L 205.062593 173.550205 
L 206.757427 183.369376 
L 203.501637 198.773255 
L 190.323384 232.881075 
L 190.999915 234.461796 
L 178.445348 273.374782 
L 171.924914 288.528407 
L 168.404855 305.658818 
L 164.874209 313.252743 
L 164.738557 318.869861 
L 159.456682 328.094924 
L 155.157888 342.800253 
L 154.713911 341.579604 
L 151.662487 345.706041 
L 144.928876 348.320163 
L 135.922576 348.637028 
L 121.278514 356.64142 
L 112.64921 357.494786 
L 105.550921 351.863266 
L 95.478734 349.933271 
L 93.896627 347.648624 
L 95.794095 349.139327 
L 96.246883 348.415578 
L 88.103836 344.229741 
L 85.711321 335.825656 
L 80.397731 329.538792 
L 79.356502 316.862458 
L 82.311046 310.267755 
L 79.492176 307.635625 
L 78.456229 301.685426 
L 73.650047 296.538197 
z
" clip-path="url(#pb8e61d81a5)" style="fill: #eeeeee; stroke: #000000; stroke-width: 0.3"/>
    <path d="M 178.161681 84.625013 
L 180.968233 83.209948 
L 181.859695 87.804461 
L 178.938641 87.638827 
z
" clip-path="url(#pb8e61d81a5)" style="fill: #eeeeee; stroke: #000000; stroke-width: 0.3"/>
    <path d="M 213.610822 169.358969 
L 214.283846 165.493603 
L 217.895523 160.420176 
z
" clip-path="url(#pb8e61d81a5)" style="fill: #eeeeee; stroke: #000000; stroke-width: 0.3"/>
    <path d="M 623.265953 876.898657 
L 624.967845 876.398173 
L 624.661295 874.428578 
L 626.606326 874.641023 
L 624.196188 871.800054 
L 626.470673 871.28154 
L 629.042897 867.558401 
L 631.225763 869.153523 
L 626.71732 872.85507 
L 632.792002 870.179734 
L 631.065431 870.964674 
L 632.24937 871.796448 
L 628.699327 877.201121 
L 630.179252 877.65121 
L 630.99321 875.055096 
L 633.348727 877.883455 
L 638.186624 875.523193 
L 638.500231 877.168711 
L 641.467094 874.151312 
L 642.647504 877.953673 
L 637.362101 877.716029 
L 634.819818 879.276949 
L 638.926586 878.558599 
L 636.953368 879.239142 
L 640.269061 880.672214 
L 637.608748 881.27714 
L 646.061851 881.577812 
L 649.395188 878.727839 
L 654.553728 878.672023 
L 657.626303 876.394567 
L 661.65377 877.321756 
L 661.690768 882.004495 
L 657.097764 883.574397 
L 660.45223 884.915681 
L 656.59566 884.915681 
L 653.382129 882.695833 
L 646.505829 882.938874 
L 648.73628 883.85706 
L 648.154875 885.003885 
L 643.68343 884.148727 
L 646.322613 886.980692 
L 653.318719 888.869251 
L 651.415968 886.714223 
L 656.759499 886.93388 
L 657.367316 887.909674 
L 653.921253 888.869251 
L 655.64252 890.365351 
L 647.228168 890.224938 
L 644.692943 886.23533 
L 642.499512 886.363156 
L 644.183781 888.069909 
L 643.077367 889.911679 
L 638.873719 889.169923 
L 633.62709 886.006691 
L 633.725744 887.877264 
L 631.817711 886.579207 
L 631.965704 889.007895 
L 630.554515 887.153516 
L 630.956212 889.454378 
L 629.259581 890.905458 
L 623.605972 890.133106 
L 626.576364 884.737438 
L 624.515056 883.293547 
L 627.060868 881.577812 
L 625.156364 881.912663 
L 623.602465 879.379555 
L 627.20886 878.407368 
z
" clip-path="url(#pb8e61d81a5)" style="fill: #eeeeee; stroke: #000000; stroke-width: 0.3"/>
    <path d="M 632.864223 874.903864 
L 636.128845 872.639018 
L 635.526311 873.848849 
L 637.608748 873.622002 
L 633.521378 877.287555 
z
" clip-path="url(#pb8e61d81a5)" style="fill: #eeeeee; stroke: #000000; stroke-width: 0.3"/>
    <path d="M 253.235445 817.20234 
L 254.956712 816.075315 
L 257.081451 817.164532 
L 256.850652 818.815448 
z
" clip-path="url(#pb8e61d81a5)" style="fill: #eeeeee; stroke: #000000; stroke-width: 0.3"/>
    <path d="M 221.174239 810.263737 
L 223.177398 809.799246 
L 223.700653 811.397974 
L 221.729189 811.342159 
z
" clip-path="url(#pb8e61d81a5)" style="fill: #eeeeee; stroke: #000000; stroke-width: 0.3"/>
    <path d="M 812.95703 647.462581 
L 813.788589 648.024302 
L 813.07506 648.119718 
z
" clip-path="url(#pb8e61d81a5)" style="fill: #eeeeee; stroke: #000000; stroke-width: 0.3"/>
    <path d="M 812.821355 629.248351 
L 813.672312 627.872865 
L 814.565549 629.066502 
z
" clip-path="url(#pb8e61d81a5)" style="fill: #eeeeee; stroke: #000000; stroke-width: 0.3"/>
    <path d="M 646.798285 886.28754 
L 650.70244 887.682826 
L 647.059047 886.579207 
z
" clip-path="url(#pb8e61d81a5)" style="fill: #eeeeee; stroke: #000000; stroke-width: 0.3"/>
    <path d="M 640.269061 879.465989 
L 643.383938 878.558599 
L 642.214092 879.808052 
z
" clip-path="url(#pb8e61d81a5)" style="fill: #eeeeee; stroke: #000000; stroke-width: 0.3"/>
    <path d="M 637.460756 871.418369 
L 639.958983 872.037698 
L 637.978729 872.201539 
z
" clip-path="url(#pb8e61d81a5)" style="fill: #eeeeee; stroke: #000000; stroke-width: 0.3"/>
    <path d="M 631.817711 874.770641 
L 632.228219 873.132313 
L 633.984731 872.768636 
z
" clip-path="url(#pb8e61d81a5)" style="fill: #eeeeee; stroke: #000000; stroke-width: 0.3"/>
    <path d="M 623.963613 866.010091 
L 624.777572 865.614004 
L 624.994278 866.190126 
z
" clip-path="url(#pb8e61d81a5)" style="fill: #eeeeee; stroke: #000000; stroke-width: 0.3"/>
    <path d="M 620.984433 882.800253 
L 622.020358 882.182716 
L 623.794492 883.246735 
z
" clip-path="url(#pb8e61d81a5)" style="fill: #eeeeee; stroke: #000000; stroke-width: 0.3"/>
    <path d="M 620.263846 867.183928 
L 620.607394 867.011082 
L 621.516478 867.353168 
z
" clip-path="url(#pb8e61d81a5)" style="fill: #eeeeee; stroke: #000000; stroke-width: 0.3"/>
    <path d="M 315.108031 142.704639 
L 315.247212 142.607409 
L 315.256023 142.80366 
z
" clip-path="url(#pb8e61d81a5)" style="fill: #eeeeee; stroke: #000000; stroke-width: 0.3"/>
    <path d="M 158.660346 47.044308 
L 158.912275 46.714832 
L 159.060268 47.141537 
z
" clip-path="url(#pb8e61d81a5)" style="fill: #eeeeee; stroke: #000000; stroke-width: 0.3"/>
    <path d="M 59.863978 168.676635 
L 60.609222 168.611815 
L 60.457701 168.953878 
z
" clip-path="url(#pb8e61d81a5)" style="fill: #eeeeee; stroke: #000000; stroke-width: 0.3"/>
    <path d="M 8.225666 285.840462 
L 9.240462 285.393979 
L 8.865198 285.905282 
z
" clip-path="url(#pb8e61d81a5)" style="fill: #eeeeee; stroke: #000000; stroke-width: 0.3"/>
    <path d="M -4.998396 265.597215 
L -4.980774 265.537793 
L -4.93674 265.588211 
z
" clip-path="url(#pb8e61d81a5)" style="fill: #eeeeee; stroke: #000000; stroke-width: 0.3"/>
    <path d="M 135.267175 -1.183737 
L 141.503942 -1.801251 
L 140.619517 -0.278161 
L 137.268579 0.227743 
L 135.852108 0.294355 
z
" clip-path="url(#pb8e61d81a5)" style="fill: #eeeeee; stroke: #000000; stroke-width: 0.3"/>
    <path d="M 334.315134 -105.713595 
L 335.466752 -107.888269 
L 337.264028 -102.544832 
L 335.96693 -104.698777 
z
" clip-path="url(#pb8e61d81a5)" style="fill: #eeeeee; stroke: #000000; stroke-width: 0.3"/>
    <path d="M 352.87043 -50.855672 
L 353.490587 -51.523604 
L 353.166415 -50.560421 
z
" clip-path="url(#pb8e61d81a5)" style="fill: #eeeeee; stroke: #000000; stroke-width: 0.3"/>
    <path d="M 345.817734 -107.357852 
L 346.062996 -107.497093 
L 346.188343 -107.252038 
z
" clip-path="url(#pb8e61d81a5)" style="fill: #eeeeee; stroke: #000000; stroke-width: 0.3"/>
    <path d="M 345.510557 -112.630716 
L 345.639368 -112.869289 
L 345.59107 -112.58959 
z
" clip-path="url(#pb8e61d81a5)" style="fill: #eeeeee; stroke: #000000; stroke-width: 0.3"/>
    <path d="M 344.528451 -112.968001 
L 344.737753 -113.050276 
L 344.769945 -112.877519 
z
" clip-path="url(#pb8e61d81a5)" style="fill: #eeeeee; stroke: #000000; stroke-width: 0.3"/>
    <path d="M 344.447938 -114.053878 
L 344.536483 -113.774179 
L 344.455992 -113.765971 
z
" clip-path="url(#pb8e61d81a5)" style="fill: #eeeeee; stroke: #000000; stroke-width: 0.3"/>
    <path d="M 343.489971 -112.096008 
L 344.17423 -112.252305 
L 343.836117 -111.857435 
z
" clip-path="url(#pb8e61d81a5)" style="fill: #eeeeee; stroke: #000000; stroke-width: 0.3"/>
    <path d="M 341.09908 -114.201968 
L 341.702826 -114.169049 
L 341.485471 -113.856454 
z
" clip-path="url(#pb8e61d81a5)" style="fill: #eeeeee; stroke: #000000; stroke-width: 0.3"/>
    <path d="M 340.278843 -113.76898 
L 342.657265 -113.012844 
L 342.052977 -112.397099 
z
" clip-path="url(#pb8e61d81a5)" style="fill: #eeeeee; stroke: #000000; stroke-width: 0.3"/>
    <path d="M 339.90765 -113.017357 
L 340.028408 -112.935104 
L 339.915703 -112.918645 
z
" clip-path="url(#pb8e61d81a5)" style="fill: #eeeeee; stroke: #000000; stroke-width: 0.3"/>
    <path d="M 339.891543 -115.616899 
L 340.133059 -115.666255 
L 340.23771 -115.633337 
z
" clip-path="url(#pb8e61d81a5)" style="fill: #eeeeee; stroke: #000000; stroke-width: 0.3"/>
    <path d="M 339.730929 -124.724446 
L 339.900073 -124.947687 
L 340.03395 -124.490386 
z
" clip-path="url(#pb8e61d81a5)" style="fill: #eeeeee; stroke: #000000; stroke-width: 0.3"/>
    <path d="M 339.553451 -112.59782 
L 339.666134 -112.614279 
L 339.714454 -112.507337 
z
" clip-path="url(#pb8e61d81a5)" style="fill: #eeeeee; stroke: #000000; stroke-width: 0.3"/>
    <path d="M 336.553379 -106.472541 
L 336.692344 -106.504818 
L 336.682861 -106.398319 
z
" clip-path="url(#pb8e61d81a5)" style="fill: #eeeeee; stroke: #000000; stroke-width: 0.3"/>
    <path d="M 336.373389 -106.727484 
L 336.524975 -107.088927 
L 336.755494 -107.040522 
z
" clip-path="url(#pb8e61d81a5)" style="fill: #eeeeee; stroke: #000000; stroke-width: 0.3"/>
    <path d="M 336.269171 -106.295049 
L 336.531275 -106.395089 
L 336.569183 -106.175652 
z
" clip-path="url(#pb8e61d81a5)" style="fill: #eeeeee; stroke: #000000; stroke-width: 0.3"/>
    <path d="M 334.22475 -105.429781 
L 334.426064 -105.393478 
L 334.394499 -105.284567 
z
" clip-path="url(#pb8e61d81a5)" style="fill: #eeeeee; stroke: #000000; stroke-width: 0.3"/>
    <path d="M 333.842992 -79.069109 
L 333.885294 -79.056521 
L 333.84652 -78.977299 
z
" clip-path="url(#pb8e61d81a5)" style="fill: #eeeeee; stroke: #000000; stroke-width: 0.3"/>
    <path d="M 333.454977 -105.643576 
L 333.711561 -105.58307 
L 333.691838 -105.550793 
z
" clip-path="url(#pb8e61d81a5)" style="fill: #eeeeee; stroke: #000000; stroke-width: 0.3"/>
    <path d="M 330.499112 -110.483586 
L 331.24611 -110.083915 
L 330.555486 -109.542016 
z
" clip-path="url(#pb8e61d81a5)" style="fill: #eeeeee; stroke: #000000; stroke-width: 0.3"/>
    <path d="M 289.635951 -88.663225 
L 289.717005 -88.692029 
L 289.783943 -88.447195 
z
" clip-path="url(#pb8e61d81a5)" style="fill: #eeeeee; stroke: #000000; stroke-width: 0.3"/>
    <path d="M 276.732554 -54.083724 
L 276.84883 -53.846058 
L 276.73959 -53.919882 
z
" clip-path="url(#pb8e61d81a5)" style="fill: #eeeeee; stroke: #000000; stroke-width: 0.3"/>
    <path d="M 163.410154 5.733252 
L 163.531713 5.650424 
L 163.593369 5.776457 
z
" clip-path="url(#pb8e61d81a5)" style="fill: #eeeeee; stroke: #000000; stroke-width: 0.3"/>
    <path d="M 141.16217 6.903483 
L 141.320727 6.440784 
L 141.616712 6.802669 
z
" clip-path="url(#pb8e61d81a5)" style="fill: #eeeeee; stroke: #000000; stroke-width: 0.3"/>
    <path d="M 137.601562 -2.490798 
L 140.02404 -2.242358 
L 138.991622 -1.813861 
z
" clip-path="url(#pb8e61d81a5)" style="fill: #eeeeee; stroke: #000000; stroke-width: 0.3"/>
    <path d="M 70.545757 51.131123 
L 71.817786 42.93048 
L 74.379423 43.385967 
L 73.995349 47.919287 
L 75.306129 55.142323 
z
" clip-path="url(#pb8e61d81a5)" style="fill: #eeeeee; stroke: #000000; stroke-width: 0.3"/>
    <path d="M 91.948089 60.208538 
L 95.566824 60.646017 
L 97.591133 58.080522 
L 98.553062 65.06952 
z
" clip-path="url(#pb8e61d81a5)" style="fill: #eeeeee; stroke: #000000; stroke-width: 0.3"/>
    <path d="M 79.594359 61.897284 
L 84.409351 64.871477 
L 80.232116 64.453798 
z
" clip-path="url(#pb8e61d81a5)" style="fill: #eeeeee; stroke: #000000; stroke-width: 0.3"/>
   </g>
   <g id="PatchCollection_2">
    <path d="M 70.545757 51.131123 
L 71.817786 42.93048 
L 74.379423 43.385967 
L 73.995349 47.919287 
L 75.306129 55.142323 
z
" clip-path="url(#pb8e61d81a5)" style="fill: #ff6b6b; stroke: #dd0000; stroke-width: 0.5"/>
    <path d="M 91.948089 60.208538 
L 95.566824 60.646017 
L 97.591133 58.080522 
L 98.553062 65.06952 
z
" clip-path="url(#pb8e61d81a5)" style="fill: #ff6b6b; stroke: #dd0000; stroke-width: 0.5"/>
    <path d="M 79.594359 61.897284 
L 84.409351 64.871477 
L 80.232116 64.453798 
z
" clip-path="url(#pb8e61d81a5)" style="fill: #ff6b6b; stroke: #dd0000; stroke-width: 0.5"/>
   </g>
  </g>
 </g>
 <defs>
  <clipPath id="pb8e61d81a5">
   <rect x="0" y="0" width="169.098819" height="108"/>
  </clipPath>
 </defs>
</svg>
