<?xml version="1.0" encoding="utf-8" standalone="no"?>
<!DOCTYPE svg PUBLIC "-//W3C//DTD SVG 1.1//EN"
  "http://www.w3.org/Graphics/SVG/1.1/DTD/svg11.dtd">
<svg xmlns:xlink="http://www.w3.org/1999/xlink" width="123.288455pt" height="108pt" viewBox="0 0 123.288455 108" xmlns="http://www.w3.org/2000/svg" version="1.1">
 <metadata>
  <rdf:RDF xmlns:dc="http://purl.org/dc/elements/1.1/" xmlns:cc="http://creativecommons.org/ns#" xmlns:rdf="http://www.w3.org/1999/02/22-rdf-syntax-ns#">
   <cc:Work>
    <dc:type rdf:resource="http://purl.org/dc/dcmitype/StillImage"/>
    <dc:date>2025-09-05T13:56:20.911252</dc:date>
    <dc:format>image/svg+xml</dc:format>
    <dc:creator>
     <cc:Agent>
      <dc:title>Matplotlib v3.10.3, https://matplotlib.org/</dc:title>
     </cc:Agent>
    </dc:creator>
   </cc:Work>
  </rdf:RDF>
 </metadata>
 <defs>
  <style type="text/css">*{stroke-linejoin: round; stroke-linecap: butt}</style>
 </defs>
 <g id="figure_1">
  <g id="patch_1">
   <path d="M 0 108 
L 123.288455 108 
L 123.288455 0 
L 0 0 
z
" style="fill: #ffffff"/>
  </g>
  <g id="axes_1">
   <g id="PatchCollection_1">
    <path d="M -123.139123 6.855797 
L -123.105824 4.722885 
L -121.356638 3.387827 
L -116.223469 2.128737 
L -115.159012 3.387827 
L -114.796981 2.123771 
L -112.835257 2.738918 
L -112.230227 0.797157 
L -109.744235 0.427276 
L -109.664179 1.380531 
L -108.540558 0.439197 
L -108.836696 1.797584 
L -107.815444 1.047389 
L -104.979113 4.859421 
L -101.790327 2.546778 
L -101.914312 3.387827 
L -100.899085 3.970701 
L -99.494561 3.138095 
L -98.86721 4.803806 
L -99.288752 3.221506 
L -98.565405 2.546778 
L -97.678411 2.380958 
L -97.262902 3.555148 
L -93.437208 3.221506 
L -95.152747 1.953973 
L -95.582072 0.706804 
L -94.755303 -1.542281 
L -95.500605 -1.485189 
L -95.64725 -3.765559 
L -95.107409 -3.882731 
L -97.441079 -5.81356 
L -98.034774 -7.609365 
L -97.641578 -8.69369 
L -98.474728 -9.966678 
L -95.614665 -9.063071 
L -92.623184 -9.617649 
L -92.316068 -8.746316 
L -92.999378 -7.941018 
L -91.402861 -5.34637 
L -89.814484 -5.917823 
L -83.53822 -4.549016 
L -78.04693 -6.647166 
L -77.334213 -7.154084 
L -79.391586 -6.793634 
L -80.960837 -7.659013 
L -79.574377 -10.030224 
L -70.996314 -13.076675 
L -68.386337 -15.952328 
L -67.06718 -15.682244 
L -68.207803 -16.723863 
L -67.608449 -17.855861 
L -68.088789 -18.271913 
L -67.867745 -23.933853 
L -59.673851 -26.602846 
L -58.919512 -25.060396 
L -59.108458 -23.648627 
L -57.367446 -22.159291 
L -54.385688 -22.839009 
L -53.151236 -19.762615 
L -50.215357 -19.147212 
L -49.444277 -16.97185 
L -46.77653 -17.531138 
L -45.085001 -16.486968 
L -45.710323 -14.896749 
L -44.977034 -14.066963 
L -45.659038 -13.027832 
L -41.182801 -13.143846 
L -39.705412 -15.301552 
L -39.215053 -15.038618 
L -39.980735 -12.824162 
L -39.316725 -12.275599 
L -39.413897 -10.821575 
L -35.842806 -9.566805 
L -34.128781 -7.219314 
L -31.602299 -7.835339 
L -29.736223 -6.516254 
L -25.887998 -6.810717 
L -23.180214 -3.069734 
L -21.433804 -3.652986 
L -20.318123 -2.44424 
L -18.299986 -2.412711 
L -17.115017 -3.192691 
L -15.16077 -1.592381 
L -10.239156 -0.625765 
L -13.634795 3.566057 
L -14.153056 6.905067 
L -15.589947 9.48744 
L -15.281334 11.418781 
L -16.232367 14.641461 
L -15.586796 16.138642 
L -17.393039 18.017369 
L -20.92095 17.304231 
L -21.849487 18.950565 
L -20.370304 19.251336 
L -23.601294 23.012183 
L -25.540698 23.953261 
L -25.657666 26.190412 
L -28.363204 28.354414 
L -28.921946 30.356061 
L -28.218343 30.954126 
L -28.575542 32.386077 
L -29.787507 33.034278 
L -29.752415 33.881721 
L -28.172456 33.64086 
L -26.946101 32.544345 
L -27.530037 31.624388 
L -27.051378 30.897693 
L -25.189802 30.000126 
L -22.542295 30.420059 
L -22.861703 31.25774 
L -22.188692 32.185567 
L -22.728542 33.623826 
L -20.496265 36.385588 
L -22.422628 37.591174 
L -22.46492 38.912785 
L -19.289706 42.661345 
L -20.205647 45.068111 
L -24.146995 46.41304 
L -22.904891 48.80026 
L -20.626736 49.846333 
L -20.208354 51.520402 
L -21.037918 51.541218 
L -22.118516 53.36095 
L -21.40411 54.553297 
L -21.853988 55.336424 
L -20.838177 56.927278 
L -17.806928 58.348515 
L -14.980817 57.728695 
L -14.682103 59.055346 
L -16.528383 61.517911 
L -16.541084 62.748815 
L -19.368553 64.089339 
L -19.479166 65.318669 
L -21.018565 65.488431 
L -21.611059 66.860862 
L -23.029041 67.102223 
L -24.250034 68.797633 
L -23.357869 68.747911 
L -23.47603 69.619354 
L -26.12627 70.970225 
L -27.712192 70.751425 
L -27.826462 71.640328 
L -29.908341 70.443381 
L -30.64243 71.531648 
L -32.232818 69.883691 
L -35.079013 69.444309 
L -35.538729 67.741286 
L -37.803495 67.98527 
L -37.872164 67.08414 
L -36.12935 66.218273 
L -37.845952 65.263029 
L -37.654673 66.840864 
L -39.247289 66.936195 
L -39.355212 67.908363 
L -40.207968 66.925275 
L -40.341868 65.679082 
L -40.758439 65.012798 
L -40.341154 66.922786 
L -39.664252 67.852516 
L -47.214656 65.49042 
L -54.518196 70.781489 
L -55.146599 76.604784 
L -53.935392 79.015479 
L -56.088004 78.542775 
L -58.451639 80.143707 
L -61.801399 79.050352 
L -64.25411 80.025802 
L -66.722117 78.256194 
L -66.636637 76.839056 
L -69.184726 77.015602 
L -69.939613 75.63347 
L -74.550812 74.133104 
L -75.913932 74.050182 
L -76.024597 75.928555 
L -81.966523 75.920356 
L -84.437681 74.000375 
L -86.581326 74.852856 
L -88.240915 72.731413 
L -91.638356 72.008819 
L -92.823325 70.746471 
L -94.31285 71.528659 
L -93.845883 69.109593 
L -95.747051 69.064825 
L -97.266724 67.510552 
L -96.087561 67.201813 
L -94.484663 65.000889 
L -92.572526 53.092147 
L -91.956876 51.75709 
L -90.722737 51.70893 
L -91.832543 50.380827 
L -92.5998 52.221314 
L -91.075549 40.732103 
L -88.297667 43.69662 
L -87.860542 46.034081 
L -86.282089 48.956905 
L -86.817692 47.374605 
L -85.926092 47.699803 
L -87.338407 46.466032 
L -88.552714 41.853668 
L -92.486097 39.013266 
L -91.759215 37.83212 
L -90.221496 38.9224 
L -91.654008 37.082425 
L -90.75709 35.000162 
L -92.168352 33.343871 
L -91.297297 31.780435 
L -92.423399 32.005348 
L -97.257592 29.439496 
L -98.25439 27.032535 
L -100.072664 25.468598 
L -98.957896 22.8402 
L -101.137835 21.533438 
L -100.476838 21.223638 
L -100.436461 19.963047 
L -96.662478 20.700333 
L -99.126863 19.370742 
L -101.46231 20.265417 
L -103.757023 19.610053 
L -102.836016 19.525642 
L -103.882418 18.595728 
L -102.449906 18.10272 
L -103.345754 17.278546 
L -102.206907 17.095839 
L -104.540578 16.929017 
L -104.256488 16.815823 
L -104.060238 16.512965 
L -106.152329 17.180738 
L -106.954305 16.45835 
L -105.493456 16.544738 
L -105.033671 15.897318 
L -104.993285 15.670428 
L -105.189527 15.429628 
L -107.042867 16.005559 
L -107.523911 15.172453 
L -107.221401 16.429554 
L -108.817561 15.96583 
L -108.890888 17.436924 
L -109.490607 15.467856 
L -108.771865 14.338848 
L -109.426133 14.164583 
L -109.696058 15.262807 
L -110.863251 14.763344 
L -110.204734 14.838811 
L -110.863251 14.596522 
L -110.204734 13.665108 
L -111.630865 14.674967 
L -117.600727 11.998897 
L -118.062289 13.347364 
L -119.686794 13.422832 
L -120.233722 11.367376 
L -122.788793 10.574975 
L -118.934405 9.662437 
L -119.751616 8.235037 
L -121.303151 8.908276 
L -121.902504 7.567752 
L -121.209278 6.83841 
L -120.937934 7.460512 
L -118.794837 7.551365 
L -118.08212 7.318021 
L -120.39986 6.977923 
L -118.97372 5.804233 
z
M -64.673388 78.774496 
L -64.22082 78.864032 
L -64.594211 78.401845 
z
" clip-path="url(#p7d3951f6a5)" style="fill: #eeeeee; stroke: #000000; stroke-width: 0.3"/>
    <path d="M -7.202841 79.67903 
L -6.241457 79.035087 
L -5.809295 77.213476 
L -2.251401 75.348671 
L -0.73387 76.047229 
L -0.259207 72.033124 
L 0.762402 72.199945 
L 0.5782 76.464282 
L 1.319959 77.404127 
L 1.594133 82.492125 
L 0.232467 84.854416 
L 0.219008 87.862127 
L -0.73387 88.838724 
L -0.225194 89.390313 
L -1.443045 91.012842 
L -1.334651 91.936801 
L -5.090205 89.63409 
L -3.950296 88.006107 
L -6.279718 87.331879 
L -4.971182 85.415937 
L -6.635367 85.490904 
L -6.879071 84.658799 
L -5.497574 83.58986 
L -7.057606 81.735475 
L -5.99562 80.950041 
z
" clip-path="url(#p7d3951f6a5)" style="fill: #eeeeee; stroke: #000000; stroke-width: 0.3"/>
    <path d="M -95.171873 32.401549 
L -93.015318 32.948671 
L -92.78294 33.567796 
L -94.723066 32.93974 
z
" clip-path="url(#p7d3951f6a5)" style="fill: #eeeeee; stroke: #000000; stroke-width: 0.3"/>
    <path d="M 0.697223 76.380871 
L 0.919677 76.714013 
L 0.873624 76.726422 
z
" clip-path="url(#p7d3951f6a5)" style="fill: #eeeeee; stroke: #000000; stroke-width: 0.3"/>
    <path d="M -27.947321 72.082773 
L -27.869389 71.969078 
L -27.198467 72.046522 
z
" clip-path="url(#p7d3951f6a5)" style="fill: #eeeeee; stroke: #000000; stroke-width: 0.3"/>
    <path d="M -93.858384 34.824897 
L -92.488926 35.451965 
L -92.154536 37.741267 
z
" clip-path="url(#p7d3951f6a5)" style="fill: #eeeeee; stroke: #000000; stroke-width: 0.3"/>
    <path d="M -101.612507 22.867007 
L -100.780062 22.974748 
L -100.279891 24.371863 
z
" clip-path="url(#p7d3951f6a5)" style="fill: #eeeeee; stroke: #000000; stroke-width: 0.3"/>
    <path d="M -102.37233 26.656199 
L -101.63482 26.686483 
L -101.380129 26.964022 
z
" clip-path="url(#p7d3951f6a5)" style="fill: #eeeeee; stroke: #000000; stroke-width: 0.3"/>
    <path d="M -110.025843 18.595728 
L -108.327663 19.587712 
L -109.689677 19.463084 
z
" clip-path="url(#p7d3951f6a5)" style="fill: #eeeeee; stroke: #000000; stroke-width: 0.3"/>
    <path d="M 111.051678 6.131091 
L 111.102962 4.120293 
L 112.596544 2.752657 
L 114.593082 -2.012326 
L 117.442576 -1.25315 
L 115.830233 -3.098738 
L 116.317893 -4.491595 
L 115.691675 -8.05414 
L 124.539785 -17.826235 
L 127.143651 -18.272023 
L 128.244037 -19.932231 
L 128.011902 -22.032553 
L 126.937607 -23.192114 
L 128.552649 -23.78293 
L 124.130396 -29.252535 
L 124.673842 -30.469481 
L 123.969343 -33.158093 
L 127.143651 -32.684876 
L 130.708448 -36.272325 
L 142.697123 -36.864081 
L 154.738432 -34.768482 
L 155.751553 -32.703154 
L 159.453106 -32.724275 
L 159.641155 -31.192698 
L 160.659674 -33.013382 
L 162.745288 -32.338703 
L 163.957244 -33.489759 
L 165.035143 -31.981816 
L 167.386181 -32.288896 
L 168.473073 -30.430691 
L 169.092101 -32.033527 
L 171.384655 -33.229022 
L 172.230864 -32.896099 
L 173.619622 -29.995312 
L 176.386343 -31.524363 
L 178.048178 -30.780965 
L 180.833799 -31.445553 
L 184.237534 -28.404141 
L 185.159777 -30.018324 
L 184.0243 -32.900516 
L 185.996541 -36.490808 
L 187.733957 -37.660765 
L 187.538708 -38.4584 
L 194.89954 -38.963464 
L 196.170885 -38.091105 
L 198.982144 -38.722908 
L 200.383499 -41.723957 
L 204.864237 -40.678213 
L 207.248565 -42.21799 
L 209.839834 -42.101647 
L 210.097162 -41.244748 
L 212.656491 -42.063187 
L 214.93105 -39.671868 
L 215.200079 -37.148453 
L 217.9551 -35.02385 
L 217.638391 -34.180825 
L 215.137999 -33.668514 
L 216.309466 -31.815678 
L 215.98016 -30.343999 
L 217.049954 -29.617621 
L 215.981057 -28.571865 
L 219.658321 -28.389963 
L 220.237765 -27.580663 
L 223.75307 -28.06807 
L 224.318115 -26.248338 
L 226.158997 -25.847001 
L 225.547169 -24.855469 
L 227.149614 -21.490286 
L 226.356039 -20.920285 
L 228.390368 -17.624456 
L 232.694757 -18.471276 
L 234.115456 -16.766289 
L 235.342716 -17.049404 
L 236.94786 -15.827419 
L 244.093646 -18.60242 
L 245.695204 -16.882314 
L 245.677209 -15.735992 
L 249.188014 -12.110401 
L 250.631208 -12.607887 
L 250.698694 -14.066963 
L 251.795484 -14.071367 
L 252.28405 -13.09593 
L 254.970688 -12.908024 
L 257.345119 -10.935075 
L 259.246287 -11.790717 
L 260.161331 -10.215628 
L 262.743607 -9.965299 
L 264.867909 -7.747073 
L 267.60134 -8.337255 
L 266.899539 -7.074285 
L 267.984629 -5.201585 
L 267.828973 -4.130303 
L 265.88822 -1.714703 
L 263.757616 -0.767011 
L 267.055195 0.702142 
L 264.675359 1.214771 
L 263.389622 3.90907 
L 265.333979 4.284869 
L 265.935004 6.481035 
L 264.992973 7.310187 
L 266.514448 7.974153 
L 264.505312 10.887874 
L 264.278576 13.315445 
L 256.821469 12.763405 
L 255.578921 15.009695 
L 251.961935 16.057025 
L 250.827354 19.599389 
L 251.780188 20.147964 
L 250.423031 22.812393 
L 249.807381 22.054254 
L 245.235671 22.276191 
L 243.397217 24.705994 
L 242.455665 24.040698 
L 239.205244 25.706421 
L 239.281757 25.99388 
L 238.470571 27.69633 
L 238.759623 26.63038 
L 237.832957 25.95664 
L 235.256984 26.640312 
L 234.196417 28.062245 
L 233.422778 27.310562 
L 230.916946 27.509156 
L 227.346299 30.007484 
L 224.476312 33.908882 
L 222.912032 34.524029 
L 226.046269 31.376792 
L 224.707272 29.22105 
L 224.891473 30.636529 
L 224.011565 31.840516 
L 221.433468 33.318052 
L 222.855968 38.922778 
L 221.230758 37.869262 
L 220.357205 35.790696 
L 218.406954 36.018477 
L 217.269309 34.623277 
L 213.02344 33.085708 
L 211.491814 32.812379 
L 210.151215 34.908308 
L 207.524941 33.908882 
L 207.703475 32.742634 
L 206.726509 33.815539 
L 201.333696 34.544881 
L 195.956467 31.568931 
L 195.219661 31.995416 
L 195.208327 31.297847 
L 197.489581 30.668802 
L 194.762 29.373473 
L 194.22215 30.22842 
L 192.670614 28.304034 
L 199.715564 29.807889 
L 202.570664 27.547384 
L 199.874258 28.614334 
L 197.149515 27.797128 
L 196.431139 26.214315 
L 197.016328 24.306316 
L 196.915726 23.999493 
L 196.392878 23.82324 
L 196.749946 23.157944 
L 195.777933 22.950418 
L 196.05282 22.140642 
L 195.476128 20.993258 
L 194.841343 20.63381 
L 194.702489 20.110504 
L 194.572837 20.581184 
L 195.85657 22.127245 
L 195.535639 23.168864 
L 196.674843 24.040698 
L 195.773685 25.631942 
L 196.07549 27.547384 
L 192.537428 27.802081 
L 193.627045 25.548031 
L 192.670614 26.381136 
L 192.081882 25.706421 
L 192.649364 26.683506 
L 191.868639 27.797128 
L 186.423401 28.727041 
L 186.264707 30.636529 
L 185.214762 31.269551 
L 183.841761 34.491755 
L 180.745072 37.672742 
L 180.649432 36.799432 
L 180.36321 37.732823 
L 178.898113 37.745732 
L 178.951252 38.83899 
L 177.819831 38.676646 
L 178.322134 39.513229 
L 177.221897 40.179513 
L 176.390157 37.592809 
L 175.967918 40.853741 
L 176.989518 40.679965 
L 176.107486 41.840758 
L 177.414595 42.454417 
L 176.706134 45.069417 
L 176.495215 43.452037 
L 174.583252 42.423632 
L 172.82065 42.504968 
L 170.223984 44.269842 
L 169.003922 43.753431 
L 169.11639 44.696083 
L 168.310218 44.906061 
L 165.003646 43.735152 
L 163.86547 42.04089 
L 166.49903 41.467729 
L 166.255196 39.647362 
L 168.555846 37.455613 
L 168.572944 36.044466 
L 170.458817 35.456809 
L 170.968067 33.245501 
L 170.255472 32.313575 
L 170.362542 29.924464 
L 172.438257 28.908663 
L 172.581316 31.116176 
L 173.504456 29.714485 
L 174.096488 30.395473 
L 174.818085 29.559378 
L 176.193802 31.058804 
L 177.051258 29.724576 
L 178.043677 31.332451 
L 180.685334 30.314453 
L 178.686097 28.996625 
L 178.914636 25.593287 
L 175.698037 23.934031 
L 176.075937 22.527606 
L 174.994443 21.910946 
L 175.577473 21.61774 
L 175.679598 19.318165 
L 174.399703 19.85854 
L 172.189025 17.781231 
L 171.856568 16.76449 
L 172.889032 12.647696 
L 171.913702 11.3633 
L 170.402126 11.865838 
L 169.086704 9.706241 
L 167.12255 9.179421 
L 166.303781 10.278133 
L 165.71175 8.987428 
L 164.892084 9.418708 
L 165.24298 8.158898 
L 162.940528 8.173089 
L 162.793873 7.227594 
L 158.498478 5.139877 
L 155.238699 6.670197 
L 151.96002 6.295021 
L 151.458857 7.56619 
L 150.635587 7.04158 
L 147.359615 8.482999 
L 146.224129 11.153956 
L 138.29061 12.307843 
L 136.707961 14.207021 
L 135.11181 14.608041 
L 132.025672 11.755803 
L 129.317435 12.326756 
L 122.612526 11.420038 
L 119.811609 9.873013 
L 117.535256 11.720175 
L 116.872134 9.96034 
L 115.166214 9.886264 
L 114.086522 8.110348 
L 113.004131 8.10404 
L 112.261832 6.147478 
z
" clip-path="url(#p7d3951f6a5)" style="fill: #eeeeee; stroke: #000000; stroke-width: 0.3"/>
    <path d="M 192.63661 30.918046 
L 193.627045 32.310683 
L 197.567505 33.247563 
L 198.398531 33.651207 
L 193.297608 32.267489 
L 192.789637 31.651854 
z
" clip-path="url(#p7d3951f6a5)" style="fill: #eeeeee; stroke: #000000; stroke-width: 0.3"/>
    <path d="M 177.197808 40.45953 
L 180.198849 38.006384 
L 180.636679 37.774028 
L 178.739419 39.543514 
L 177.863759 40.179513 
z
" clip-path="url(#p7d3951f6a5)" style="fill: #eeeeee; stroke: #000000; stroke-width: 0.3"/>
    <path d="M 202.343248 34.741487 
L 206.156903 35.165983 
L 206.005295 35.325361 
z
" clip-path="url(#p7d3951f6a5)" style="fill: #eeeeee; stroke: #000000; stroke-width: 0.3"/>
    <path d="M 23.502254 -17.178668 
L 24.139276 -17.136426 
L 25.454707 -15.295243 
L 27.281191 -18.076552 
L 31.132105 -18.264458 
L 31.628767 -19.344562 
L 35.444598 -20.620771 
L 36.390225 -21.956255 
L 43.267443 -24.072976 
L 43.57516 -24.569206 
L 42.325412 -25.320816 
L 42.753692 -25.984136 
L 44.447912 -25.988553 
L 45.250488 -25.235685 
L 45.041746 -24.462014 
L 45.72825 -24.567315 
L 45.588787 -23.650518 
L 48.799989 -23.815082 
L 48.616441 -25.445029 
L 50.213488 -25.675799 
L 51.304881 -24.956987 
L 52.056173 -22.794876 
L 55.853104 -22.395113 
L 57.413266 -21.613242 
L 57.505041 -20.698337 
L 60.548887 -21.191418 
L 61.369449 -20.258223 
L 59.39901 -18.290301 
L 60.654155 -17.847039 
L 63.41278 -14.467983 
L 66.49621 -15.998926 
L 65.435409 -18.615659 
L 70.06011 -16.268168 
L 72.530815 -17.128227 
L 72.875417 -15.986944 
L 71.498803 -15.324881 
L 71.875799 -14.630655 
L 73.674389 -13.011433 
L 75.355115 -13.367685 
L 75.094191 -13.903643 
L 77.61888 -12.208136 
L 79.941129 -12.200559 
L 80.450388 -9.841721 
L 81.936762 -9.289363 
L 82.326354 -7.3574 
L 79.735982 -7.008713 
L 76.470805 -4.287937 
L 75.730308 -1.707138 
L 72.698163 0.541361 
L 67.825134 0.579821 
L 65.888882 3.698469 
L 65.261758 2.297413 
L 62.184622 1.240626 
L 60.781021 2.196529 
L 58.404789 2.006098 
L 56.081643 0.426604 
L 48.990737 -1.250624 
L 48.430193 1.762711 
L 47.218228 1.595622 
L 46.132242 4.039274 
L 44.239169 3.222409 
L 42.99932 4.262796 
L 40.60599 3.735038 
L 36.843699 -0.47444 
L 35.264645 -0.642786 
L 31.543296 -4.729942 
L 28.441862 -6.371859 
L 26.179003 -10.195447 
L 27.401754 -12.173447 
L 24.988636 -13.881583 
L 23.531949 -16.294645 
z
" clip-path="url(#p7d3951f6a5)" style="fill: #eeeeee; stroke: #000000; stroke-width: 0.3"/>
    <path d="M -30.628771 -25.770704 
L -28.112179 -27.392452 
L -28.901253 -28.117878 
L -27.584925 -30.264871 
L -27.710886 -31.749472 
L -29.990852 -35.486989 
L -28.034795 -35.809186 
L -28.288528 -36.4763 
L -26.390963 -35.553513 
L -22.91929 -36.617852 
L -22.349745 -37.486745 
L -23.475333 -38.474165 
L -20.45938 -40.550522 
L -20.268632 -42.190878 
L -20.92095 -43.243869 
L -23.171221 -43.368082 
L -23.546414 -44.345741 
L -22.977774 -45.480703 
L -20.527762 -45.374463 
L -19.009892 -49.913703 
L -18.994483 -52.92771 
L -18.470929 -53.836771 
L -17.497506 -53.632723 
L -20.482963 -54.530863 
L -20.240669 -56.192608 
L -19.454277 -56.492488 
L -19.933197 -57.098691 
L -18.720309 -58.070322 
L -11.709373 -58.577729 
L -10.520573 -56.688105 
L -11.312633 -55.656894 
L -10.195385 -54.949404 
L -9.239669 -55.732861 
L -9.970093 -56.34652 
L -9.626492 -57.415947 
L -7.176628 -56.570933 
L -7.717184 -55.872875 
L -7.591789 -54.30695 
L -7.057606 -56.60866 
L -7.751188 -58.484398 
L -6.867737 -60.558718 
L -1.443045 -60.577582 
L 1.792498 -57.152818 
L 3.966065 -56.570933 
L 1.803833 -57.410993 
L 0.16304 -60.077619 
L -1.032846 -60.743403 
L -3.41115 -60.883417 
L -4.008388 -61.375937 
L -4.728183 -62.584378 
L -3.301338 -62.508422 
L -3.117851 -63.334073 
L -4.906717 -64.341943 
L -3.59819 -66.015108 
L -6.076391 -65.424291 
L -6.760763 -66.26484 
L -3.176648 -68.317819 
L -5.987124 -71.111549 
L -6.230488 -73.076189 
L -1.152609 -71.922655 
L 1.771248 -72.709736 
L 3.8938 -71.373202 
L 4.971368 -71.651229 
L 5.587027 -70.695985 
L 4.814093 -70.362355 
L 5.76839 -70.275955 
L 5.662121 -68.972182 
L 4.036206 -67.938994 
L 6.676644 -68.141066 
L 7.203027 -67.76473 
L 6.662471 -66.098019 
L 8.199833 -67.54876 
L 11.794569 -65.924743 
L 15.313504 -66.848214 
L 14.713437 -66.515072 
L 14.713437 -64.383648 
L 11.980189 -62.751199 
L 13.28163 -61.668362 
L 15.65781 -62.359477 
L 18.118304 -60.994635 
L 20.13813 -64.033631 
L 23.606756 -64.507775 
L 23.637225 -63.53069 
L 23.840553 -63.334073 
L 23.787414 -64.372727 
L 27.487008 -68.097372 
L 30.858576 -67.429099 
L 28.273401 -67.300017 
L 27.427497 -66.681893 
L 26.656687 -66.868078 
L 26.050247 -65.424291 
L 28.766485 -67.15306 
L 30.279768 -66.50614 
L 31.621594 -67.484714 
L 32.545422 -65.55635 
L 35.754761 -63.253652 
L 37.742707 -64.258532 
L 38.580105 -63.416995 
L 38.040255 -62.584378 
L 39.432382 -61.44495 
L 38.670791 -60.65106 
L 38.658038 -60.345226 
L 42.553159 -59.108977 
L 42.102576 -58.577729 
L 44.095214 -53.010913 
L 43.239551 -50.531327 
L 41.508437 -49.449003 
L 41.329389 -48.115727 
L 45.86411 -44.775764 
L 44.998557 -42.39927 
L 46.452546 -40.614837 
L 46.225809 -39.213159 
L 46.879024 -38.671832 
L 45.350359 -35.343534 
L 46.627102 -33.56763 
L 46.431853 -32.004523 
L 48.567855 -30.847488 
L 49.148186 -28.423688 
L 48.566949 -26.316119 
L 46.860133 -23.218591 
L 45.588787 -23.650518 
L 45.72825 -24.567315 
L 45.041746 -24.462014 
L 45.250488 -25.235685 
L 44.447912 -25.988553 
L 42.753692 -25.984136 
L 42.325412 -25.320816 
L 43.57516 -24.569206 
L 43.267443 -24.072976 
L 36.390225 -21.956255 
L 35.444598 -20.620771 
L 31.628767 -19.344562 
L 31.132105 -18.264458 
L 27.281191 -18.076552 
L 25.454707 -15.295243 
L 24.925651 -16.463638 
L 23.502254 -17.178668 
L 24.988636 -13.881583 
L 27.401754 -12.173447 
L 26.179003 -10.195447 
L 28.441862 -6.371859 
L 31.543296 -4.729942 
L 33.098957 -2.575396 
L 35.539968 -0.460567 
L 36.843699 -0.47444 
L 38.646346 1.718578 
L 37.782587 4.704802 
L 35.502177 4.073317 
L 35.075699 6.475361 
L 29.272331 9.686059 
L 31.468611 12.935863 
L 30.60486 14.443477 
L 32.172213 15.225347 
L 31.56129 17.58576 
L 29.620529 16.502179 
L 29.472978 15.135177 
L 27.16242 15.598304 
L 24.917555 14.988257 
L 24.948147 14.340068 
L 24.350717 15.888984 
L 19.535268 16.077207 
L 16.197208 18.465049 
L 13.955042 18.506669 
L 12.903233 16.796959 
L 9.164786 16.231363 
L 9.15669 18.439511 
L 6.820051 19.96384 
L 7.250124 18.727043 
L 6.149738 18.890667 
L 4.95757 16.673685 
L 3.531473 16.092337 
L 2.055886 16.90415 
L -1.680759 15.091666 
L -4.30712 15.266016 
L -7.123333 13.496408 
L -8.576425 15.152198 
L -6.69595 15.264124 
L -6.984766 16.043152 
L -9.954832 15.683117 
L -11.614865 16.43219 
L -15.380308 16.381126 
L -14.945734 15.99271 
L -15.586796 16.138642 
L -16.232367 14.641461 
L -15.281334 11.418781 
L -15.648431 9.673455 
L -14.153056 6.905067 
L -13.634795 3.566057 
L -10.239156 -0.625765 
L -15.16077 -1.592381 
L -17.115017 -3.192691 
L -18.299986 -2.412711 
L -20.318123 -2.44424 
L -21.433804 -3.652986 
L -23.077645 -3.029384 
L -24.939673 -6.313853 
L -26.387995 -6.687382 
L -25.01885 -10.839866 
L -26.759854 -11.319074 
L -28.554849 -13.926351 
L -28.115774 -15.944702 
L -26.133635 -17.182451 
L -26.461139 -19.202071 
L -27.907032 -19.652898 
L -27.225924 -20.830115 
L -29.629153 -22.87243 
L -28.839173 -24.406533 
z
" clip-path="url(#p7d3951f6a5)" style="fill: #eeeeee; stroke: #000000; stroke-width: 0.3"/>
    <path d="M 32.550384 -66.26484 
L 33.868122 -66.848214 
L 32.9117 -67.347677 
L 33.92268 -68.022405 
L 32.793391 -68.764156 
L 34.138047 -68.480663 
L 34.760783 -69.279506 
L 34.582258 -68.529323 
L 35.959507 -68.097372 
L 36.07853 -69.104253 
L 35.387777 -68.93842 
L 34.758659 -69.608682 
L 33.749813 -69.029286 
L 34.099795 -69.976575 
L 33.555696 -70.111123 
L 34.947109 -70.536619 
L 35.241123 -69.279506 
L 37.383514 -69.04865 
L 36.554612 -67.897289 
L 38.21737 -66.34825 
L 37.84047 -65.536498 
L 36.915929 -66.015108 
L 37.559924 -66.431661 
L 35.895034 -66.34825 
L 34.675773 -65.500747 
L 35.09022 -64.924328 
z
" clip-path="url(#p7d3951f6a5)" style="fill: #eeeeee; stroke: #000000; stroke-width: 0.3"/>
    <path d="M 38.099766 -64.008312 
L 38.639617 -64.258532 
L 42.079201 -61.388846 
L 41.998814 -60.653013 
L 38.858536 -60.312952 
L 39.655549 -60.911224 
L 39.418923 -62.083927 
L 40.671482 -61.41813 
L 40.69699 -62.201587 
L 39.780953 -62.952283 
L 38.283967 -62.417569 
L 38.639617 -63.37529 
z
" clip-path="url(#p7d3951f6a5)" style="fill: #eeeeee; stroke: #000000; stroke-width: 0.3"/>
    <path d="M -9.506764 -71.197937 
L -9.388447 -73.274246 
L -8.729574 -74.768182 
L -8.363304 -75.138551 
L -7.948848 -74.959821 
L -8.602054 -73.050821 
L -6.285386 -73.043378 
L -9.309096 -72.698815 
z
" clip-path="url(#p7d3951f6a5)" style="fill: #eeeeee; stroke: #000000; stroke-width: 0.3"/>
    <path d="M 17.404176 -61.918094 
L 17.847673 -62.419546 
L 18.468286 -62.417569 
L 18.118304 -61.668362 
z
" clip-path="url(#p7d3951f6a5)" style="fill: #eeeeee; stroke: #000000; stroke-width: 0.3"/>
    <path d="M -4.906717 -68.022405 
L -4.631125 -68.481163 
L -3.59819 -68.529323 
L -4.252806 -67.855583 
z
" clip-path="url(#p7d3951f6a5)" style="fill: #eeeeee; stroke: #000000; stroke-width: 0.3"/>
    <path d="M 32.079255 -67.855583 
L 32.435618 -69.413065 
L 32.580139 -69.294904 
z
" clip-path="url(#p7d3951f6a5)" style="fill: #eeeeee; stroke: #000000; stroke-width: 0.3"/>
    <path d="M 18.782131 -63.175207 
L 19.495553 -63.507849 
L 18.831012 -62.83461 
z
" clip-path="url(#p7d3951f6a5)" style="fill: #eeeeee; stroke: #000000; stroke-width: 0.3"/>
    <path d="M 14.183502 -67.855583 
L 15.189519 -68.679257 
L 16.869288 -67.188799 
z
" clip-path="url(#p7d3951f6a5)" style="fill: #eeeeee; stroke: #000000; stroke-width: 0.3"/>
    <path d="M -6.595687 -68.150498 
L -5.898562 -68.955307 
L -5.880855 -68.823237 
z
" clip-path="url(#p7d3951f6a5)" style="fill: #eeeeee; stroke: #000000; stroke-width: 0.3"/>
    <path d="M -8.54821 -70.861818 
L -8.180521 -71.272416 
L -6.813893 -70.945229 
z
" clip-path="url(#p7d3951f6a5)" style="fill: #eeeeee; stroke: #000000; stroke-width: 0.3"/>
    <path d="M -9.44512 -70.278944 
L -8.654479 -69.938347 
L -8.488699 -69.86288 
z
" clip-path="url(#p7d3951f6a5)" style="fill: #eeeeee; stroke: #000000; stroke-width: 0.3"/>
    <path d="M -10.669343 -58.653696 
L -10.656598 -58.957054 
L -10.27686 -58.820517 
z
" clip-path="url(#p7d3951f6a5)" style="fill: #eeeeee; stroke: #000000; stroke-width: 0.3"/>
    <path d="M -12.699798 -64.421388 
L -12.593529 -64.522674 
L -12.562354 -64.456638 
z
" clip-path="url(#p7d3951f6a5)" style="fill: #eeeeee; stroke: #000000; stroke-width: 0.3"/>
    <path d="M -13.02853 -64.505787 
L -12.901001 -64.51473 
L -12.860616 -64.313647 
z
" clip-path="url(#p7d3951f6a5)" style="fill: #eeeeee; stroke: #000000; stroke-width: 0.3"/>
    <path d="M -13.249564 -59.511132 
L -12.874084 -59.654111 
L -12.369656 -59.490767 
z
" clip-path="url(#p7d3951f6a5)" style="fill: #eeeeee; stroke: #000000; stroke-width: 0.3"/>
    <path d="M -14.713956 -59.467438 
L -13.6123 -59.493757 
L -14.17482 -59.222672 
z
" clip-path="url(#p7d3951f6a5)" style="fill: #eeeeee; stroke: #000000; stroke-width: 0.3"/>
    <path d="M -16.57084 -58.868177 
L -15.407539 -59.243025 
L -15.2283 -59.100534 
z
" clip-path="url(#p7d3951f6a5)" style="fill: #eeeeee; stroke: #000000; stroke-width: 0.3"/>
    <path d="M -17.17586 -58.927258 
L -16.896733 -58.820517 
L -17.021415 -58.737107 
z
" clip-path="url(#p7d3951f6a5)" style="fill: #eeeeee; stroke: #000000; stroke-width: 0.3"/>
    <path d="M -19.177265 -58.496307 
L -18.660798 -58.838393 
L -17.670372 -58.762425 
z
" clip-path="url(#p7d3951f6a5)" style="fill: #eeeeee; stroke: #000000; stroke-width: 0.3"/>
    <path d="M -21.787242 -58.146778 
L -20.27893 -58.40793 
L -19.944532 -58.320554 
z
" clip-path="url(#p7d3951f6a5)" style="fill: #eeeeee; stroke: #000000; stroke-width: 0.3"/>
    <path d="M -23.652622 -57.248137 
L -22.563005 -57.503836 
L -22.808137 -56.806266 
z
" clip-path="url(#p7d3951f6a5)" style="fill: #eeeeee; stroke: #000000; stroke-width: 0.3"/>
    <path d="M 96.350708 89.77519 
L 97.138886 89.34075 
L 96.840171 87.524788 
L 97.421408 85.827694 
L 98.603678 86.115544 
L 99.317179 83.279376 
L 102.047006 81.88935 
L 103.70434 83.185741 
L 104.988283 81.267956 
L 112.235741 79.761599 
L 114.518397 82.704958 
L 117.192447 84.042639 
L 118.684227 87.741062 
L 118.017519 89.010341 
L 118.085893 92.213473 
L 116.435758 92.635944 
L 116.031776 94.777873 
L 110.314785 94.629074 
L 106.252429 98.113431 
L 100.887231 98.319615 
L 98.727846 97.540904 
L 96.837472 93.608234 
L 97.186575 91.593031 
z
" clip-path="url(#p7d3951f6a5)" style="fill: #eeeeee; stroke: #000000; stroke-width: 0.3"/>
    <path d="M 86.146686 82.075682 
L 89.866233 76.290481 
L 90.607627 78.489807 
L 92.825504 77.474641 
L 94.553919 80.376697 
L 96.677316 81.465318 
L 97.701231 84.761452 
L 96.840171 87.524788 
L 97.138886 89.34075 
L 96.350708 89.77519 
L 97.186575 91.593031 
L 96.837472 93.608234 
L 98.727846 97.540904 
L 100.812554 97.766001 
L 100.69919 99.346129 
L 101.508957 100.877706 
L 100.639801 102.91813 
L 99.193011 103.534802 
L 98.121415 107.536193 
L 95.077569 108.843308 
L 95.940423 110.903279 
L 94.921913 111.075408 
L 95.064972 112.132195 
L 94.086952 113.112684 
L 92.38851 112.506261 
L 92.569169 110.322712 
L 91.66942 109.825225 
L 91.295359 108.130219 
L 87.924496 106.076263 
L 86.299277 103.554105 
L 87.913162 104.432882 
L 87.142352 102.054716 
L 87.736038 101.925622 
L 86.428224 100.714192 
L 87.097013 97.601217 
L 88.3354 97.450295 
L 88.091687 96.449868 
L 87.954252 97.044162 
L 87.676535 97.283474 
L 88.275889 93.35328 
L 87.201863 91.436337 
L 88.275889 90.217464 
L 87.617024 89.339176 
L 89.114706 89.096399 
L 88.929095 86.491331 
L 86.956732 86.081733 
L 87.021231 83.008243 
z
" clip-path="url(#p7d3951f6a5)" style="fill: #eeeeee; stroke: #000000; stroke-width: 0.3"/>
    <path d="M 92.785911 75.11169 
L 96.630532 73.841472 
L 96.483878 72.688537 
L 98.27257 71.036529 
L 97.742618 69.663207 
L 99.399952 68.868732 
L 99.784146 69.998655 
L 101.995721 70.972214 
L 103.457815 73.462842 
L 104.745353 73.945516 
L 104.486223 75.200604 
L 107.916954 76.379712 
L 105.681987 80.108078 
L 106.100168 81.275167 
L 104.382749 81.548863 
L 103.795218 83.164937 
L 102.047006 81.88935 
L 99.317179 83.279376 
L 98.416534 86.183642 
L 97.421408 85.827694 
L 96.843775 81.703031 
L 94.553919 80.376697 
L 93.049543 77.608944 
L 93.388747 76.311297 
z
" clip-path="url(#p7d3951f6a5)" style="fill: #eeeeee; stroke: #000000; stroke-width: 0.3"/>
    <path d="M 94.598005 34.154745 
L 96.563055 33.34891 
L 98.264474 33.792819 
L 99.436846 32.208274 
L 102.447393 32.011547 
L 103.633259 30.392947 
L 103.809617 28.104732 
L 105.557819 26.889677 
L 106.698703 22.995162 
L 109.909 18.466623 
L 109.96388 16.958692 
L 112.272635 14.440951 
L 115.446943 13.857711 
L 119.811609 9.873013 
L 122.612526 11.420038 
L 129.317435 12.326756 
L 132.025672 11.755803 
L 135.11181 14.608041 
L 136.707961 14.207021 
L 138.29061 12.307843 
L 146.224129 11.153956 
L 147.359615 8.482999 
L 150.711622 7.716893 
L 152.884509 8.571266 
L 154.892295 11.276912 
L 155.870315 14.816128 
L 158.436399 17.654175 
L 158.405807 18.69394 
L 162.729992 23.412251 
L 164.166883 27.390958 
L 164.270802 30.252969 
L 163.077292 32.616859 
L 162.848753 35.294125 
L 163.591044 39.958224 
L 162.669706 40.432381 
L 165.003646 43.735152 
L 168.310218 44.906061 
L 169.11639 44.696083 
L 169.003922 43.753431 
L 170.223984 44.269842 
L 173.638522 42.25969 
L 175.793868 42.856181 
L 176.92434 45.700939 
L 176.213041 49.365514 
L 172.19323 50.30586 
L 170.840774 51.471119 
L 170.616196 50.78746 
L 172.041614 50.066549 
L 171.218388 49.315865 
L 171.797196 48.040889 
L 170.688453 47.525539 
L 169.697313 48.366588 
L 170.365397 50.540205 
L 168.954144 51.955196 
L 169.943864 51.131022 
L 170.551018 51.323662 
L 170.726 51.63744 
L 168.726014 52.229257 
L 168.731681 54.199814 
L 170.181196 52.305213 
L 167.657656 56.01646 
L 167.976463 59.908913 
L 167.163858 63.033809 
L 164.054868 62.781198 
L 161.963404 61.715273 
L 161.363276 59.958281 
L 159.705942 60.502427 
L 158.937553 59.51375 
L 156.764666 59.692822 
L 153.662335 57.716713 
L 146.029786 59.725608 
L 142.812289 63.146906 
L 139.521466 64.146943 
L 122.820363 61.3338 
L 117.632428 61.835069 
L 117.607234 59.943774 
L 118.870475 58.741336 
L 115.908513 57.084276 
L 114.047834 54.215957 
L 114.948479 52.976951 
L 116.556331 52.765716 
L 113.604259 50.92518 
L 110.997694 53.743692 
L 109.846015 51.841354 
L 104.636481 50.234736 
L 104.28468 49.425131 
L 105.858336 49.026003 
L 104.248691 47.696826 
L 105.48404 45.904828 
L 99.16242 41.826507 
L 99.324379 38.492853 
L 98.474113 38.608244 
z
" clip-path="url(#p7d3951f6a5)" style="fill: #eeeeee; stroke: #000000; stroke-width: 0.3"/>
    <path d="M 58.480362 24.946355 
L 60.054923 23.219318 
L 61.895806 23.289612 
L 61.358654 22.978128 
L 62.097349 21.593788 
L 61.255188 20.988146 
L 61.781536 19.894486 
L 61.439633 18.429737 
L 63.240923 17.745602 
L 63.661106 16.707106 
L 63.148252 15.682483 
L 61.212 15.20264 
L 62.604806 14.069569 
L 64.604043 15.030194 
L 67.023464 14.627283 
L 66.402634 12.738501 
L 67.97629 10.822925 
L 73.555628 14.120645 
L 81.1045 13.779523 
L 82.180597 13.113349 
L 81.542678 11.423515 
L 82.372241 10.582052 
L 87.506202 10.022764 
L 89.204026 8.30045 
L 91.862771 9.483023 
L 95.307005 7.654469 
L 96.677316 4.651212 
L 99.451236 4.12471 
L 102.141479 5.102356 
L 104.885714 4.221811 
L 107.797287 6.997763 
L 112.261832 6.147478 
L 113.004131 8.10404 
L 114.086522 8.110348 
L 115.166214 9.886264 
L 116.872134 9.96034 
L 117.535256 11.720175 
L 115.446943 13.857711 
L 112.272635 14.440951 
L 109.96388 16.958692 
L 109.909 18.466623 
L 106.698703 22.995162 
L 105.557819 26.889677 
L 103.809617 28.104732 
L 103.633259 30.392947 
L 101.637626 32.592895 
L 99.619489 32.158455 
L 98.264474 33.792819 
L 96.563055 33.34891 
L 94.598005 34.154745 
L 88.566098 33.47061 
L 86.072001 35.700196 
L 84.548733 35.243683 
L 83.620195 36.427208 
L 80.780591 36.601228 
L 78.593305 38.623996 
L 73.837245 38.258922 
L 71.513202 36.251919 
L 69.373596 36.014206 
L 64.954042 30.814148 
L 62.147737 29.351925 
L 60.869191 27.628037 
L 60.493998 25.231044 
z
" clip-path="url(#p7d3951f6a5)" style="fill: #eeeeee; stroke: #000000; stroke-width: 0.3"/>
    <path d="M 65.013423 6.609348 
L 66.587984 1.963856 
L 67.825134 0.579821 
L 72.698163 0.541361 
L 75.730308 -1.707138 
L 76.470805 -4.287937 
L 79.735982 -7.008713 
L 83.188311 -7.284886 
L 83.45014 -5.880047 
L 85.012105 -5.941202 
L 87.638466 -8.474085 
L 89.237264 -6.034825 
L 90.475363 -5.927963 
L 90.620224 -3.427255 
L 92.923573 -3.245024 
L 93.666768 -4.900192 
L 95.249417 -5.909685 
L 98.48671 -6.018133 
L 100.484145 -4.673827 
L 101.821174 -5.48974 
L 101.65562 -6.188383 
L 103.457815 -6.615258 
L 108.324541 -5.734395 
L 110.249998 -3.540743 
L 114.593082 -2.012326 
L 112.596544 2.752657 
L 111.102962 4.120293 
L 110.734968 6.440684 
L 107.524672 6.910741 
L 104.885714 4.221811 
L 102.141479 5.102356 
L 99.451236 4.12471 
L 96.92835 4.557259 
L 95.307005 7.654469 
L 91.862771 9.483023 
L 89.204026 8.30045 
L 87.506202 10.022764 
L 82.372241 10.582052 
L 81.542678 11.423515 
L 82.180597 13.113349 
L 81.1045 13.779523 
L 72.826831 13.933057 
L 69.308818 11.085859 
L 66.973972 10.635019 
z
" clip-path="url(#p7d3951f6a5)" style="fill: #eeeeee; stroke: #000000; stroke-width: 0.3"/>
    <path d="M 92.48274 112.423351 
L 94.625897 112.796783 
L 94.921913 111.075408 
L 95.940423 110.903279 
L 95.077569 108.843308 
L 98.121415 107.536193 
L 99.193011 103.534802 
L 101.353302 101.863247 
L 100.887231 98.319615 
L 106.252429 98.113431 
L 110.314785 94.629074 
L 116.031776 94.777873 
L 116.693992 92.395705 
L 123.932449 91.954957 
L 129.337231 89.627013 
L 131.74765 89.628904 
L 132.359479 91.10688 
L 134.04831 92.234912 
L 135.022734 91.593653 
L 138.499352 93.56094 
L 145.769758 92.116373 
L 146.137752 90.025507 
L 145.13634 88.073997 
L 146.686604 87.334686 
L 149.901393 89.009084 
L 150.257695 91.60627 
L 150.025561 92.446782 
L 147.508072 93.477713 
L 147.843672 96.912885 
L 145.427855 99.708689 
L 144.76866 98.874217 
L 145.187364 98.544552 
L 140.693585 98.062953 
L 137.217159 96.359014 
L 134.288383 98.269991 
L 132.779358 98.207433 
L 131.703914 96.950331 
L 128.265034 99.802642 
L 124.970685 99.509717 
L 124.696512 100.463972 
L 126.565435 102.10833 
L 125.765583 102.497575 
L 126.15878 103.638004 
L 127.327739 103.96917 
L 127.405672 103.203088 
L 130.73473 106.822969 
L 129.917876 107.12086 
L 128.777253 105.32458 
L 126.753885 104.227833 
L 124.960056 104.3038 
L 124.836785 105.568357 
L 127.229975 107.235056 
L 127.229975 109.249807 
L 125.797463 108.575567 
L 124.481136 106.024626 
L 122.418095 105.276908 
L 121.56157 105.901987 
L 121.766308 106.847799 
L 125.111672 109.531812 
L 121.740096 109.158453 
L 121.204502 105.811133 
L 117.627474 103.970158 
L 117.047952 102.556656 
L 118.454252 101.94002 
L 117.821591 100.818455 
L 114.936735 102.970732 
L 115.650863 104.180673 
L 114.868727 108.02149 
L 121.59345 118.693482 
L 120.373476 119.609498 
L 119.053614 119.692909 
L 120.49108 118.693482 
L 119.772695 117.262117 
L 118.042635 116.485603 
L 117.087624 118.185576 
L 118.583896 120.033994 
L 118.286347 120.775746 
L 119.237102 120.442604 
L 116.790075 122.373944 
L 115.306557 121.928596 
L 114.46632 122.616233 
L 118.966471 123.975608 
L 119.51057 125.297256 
L 121.264014 125.123492 
L 121.08548 126.297183 
L 121.922878 126.554858 
L 121.516937 126.942126 
L 123.538887 126.972411 
L 123.593436 127.554284 
L 124.458466 128.737919 
L 126.879994 129.537262 
L 128.007863 131.06147 
L 127.210841 131.59073 
L 128.067374 135.707597 
L 127.591283 137.339057 
L 123.482919 133.418796 
L 123.602646 132.516177 
L 118.558397 134.524962 
L 120.188569 135.415672 
L 119.653681 136.248277 
L 120.068833 137.794826 
L 121.531815 138.755036 
L 121.318563 137.75561 
L 122.071657 137.505378 
L 122.041901 139.005268 
L 123.176856 139.929727 
L 120.887819 140.395428 
L 120.068833 141.634166 
L 119.237102 140.954472 
L 119.750026 139.814544 
L 116.21905 138.3782 
L 119.59417 147.956936 
L 118.911208 149.570508 
L 120.307592 152.212816 
L 118.360737 151.142888 
L 116.745442 147.808978 
L 115.863401 147.613361 
L 114.921857 147.936083 
L 114.109252 150.088347 
L 114.169469 152.720222 
L 112.981383 151.244174 
L 113.272559 148.873439 
L 111.095458 146.299656 
L 111.228645 145.030134 
L 109.400107 145.370231 
L 109.636019 147.790114 
L 108.87301 148.625196 
L 107.347687 147.509098 
L 107.370365 145.987867 
L 106.148972 143.870841 
L 107.064303 140.456998 
L 102.114283 134.574611 
L 104.027126 132.82549 
L 104.447953 130.394686 
L 106.607347 131.198507 
L 108.584663 128.922603 
L 117.444692 133.824916 
L 118.386235 133.343328 
L 117.516957 132.485405 
L 120.105675 132.117 
L 120.545629 131.143893 
L 116.909098 130.317742 
L 115.523344 128.328809 
L 114.792214 129.505489 
L 113.391581 127.554284 
L 113.223677 128.905729 
L 111.542498 129.14504 
L 109.52834 128.063679 
L 105.696969 129.477682 
L 103.99737 127.031492 
L 104.119936 128.258808 
L 102.544321 129.378885 
L 101.086301 124.984967 
L 99.969767 123.282517 
L 98.833392 123.20655 
L 99.493676 122.49906 
L 99.185498 121.385939 
L 101.9315 122.540766 
L 102.734181 122.397774 
L 102.581868 120.912783 
L 101.9315 120.117405 
L 101.697703 120.775746 
L 99.839409 120.43466 
L 99.643873 119.48836 
L 98.953834 120.525526 
L 99.725349 121.328347 
L 99.155743 121.158536 
L 98.883693 121.494168 
L 96.683914 117.436381 
L 94.538693 116.012459 
L 94.781701 114.67939 
L 93.646746 114.421703 
L 94.06686 113.265888 
z
" clip-path="url(#p7d3951f6a5)" style="fill: #eeeeee; stroke: #000000; stroke-width: 0.3"/>
    <path d="M 123.112392 166.103035 
L 123.652947 162.664862 
L 124.855206 163.434421 
L 125.056409 161.309952 
L 125.714569 163.166313 
L 128.899106 162.546701 
L 128.899106 163.429455 
L 127.932768 163.611174 
L 129.504135 163.846508 
L 130.267153 165.441717 
L 133.582752 164.47903 
L 139.961037 166.103035 
L 142.683656 165.596129 
L 142.216775 167.460934 
L 142.93516 168.287085 
L 145.244742 166.845287 
L 146.27981 167.164031 
L 147.513243 165.84536 
L 147.133505 168.471281 
L 145.999255 169.664336 
L 136.177852 170.526237 
L 133.735779 170.526237 
L 133.773326 168.749808 
L 130.806995 167.360148 
z
" clip-path="url(#p7d3951f6a5)" style="fill: #eeeeee; stroke: #000000; stroke-width: 0.3"/>
    <path d="M 117.153516 122.771633 
L 121.204502 120.367136 
L 123.77197 123.689138 
L 128.661069 125.123492 
L 129.504135 130.305321 
L 132.42229 131.143893 
L 132.239507 133.234099 
L 130.542737 133.429716 
L 129.081888 131.984941 
L 127.674178 128.187807 
L 124.252309 128.13717 
L 123.946961 126.279308 
L 120.362141 122.960796 
z
" clip-path="url(#p7d3951f6a5)" style="fill: #eeeeee; stroke: #000000; stroke-width: 0.3"/>
    <path d="M 143.342529 118.103166 
L 146.141661 116.262678 
L 147.870311 116.262678 
L 150.048117 120.284226 
L 149.413341 120.649141 
L 148.976921 119.498292 
L 148.522089 119.622407 
L 149.480644 121.033433 
L 146.160082 120.611914 
L 145.482788 119.867185 
L 147.15547 118.488433 
L 145.274498 119.776319 
z
" clip-path="url(#p7d3951f6a5)" style="fill: #eeeeee; stroke: #000000; stroke-width: 0.3"/>
    <path d="M 95.490867 130.864865 
L 95.965538 128.644576 
L 97.096246 128.969275 
L 97.165673 127.304065 
L 97.973316 129.939417 
L 98.418232 129.644503 
L 99.428497 131.484978 
L 98.870234 132.325526 
L 96.92196 131.73521 
L 96.360859 129.716993 
L 96.186582 130.948275 
z
" clip-path="url(#p7d3951f6a5)" style="fill: #eeeeee; stroke: #000000; stroke-width: 0.3"/>
    <path d="M 89.23231 111.755578 
L 92.031451 111.241705 
L 91.134532 112.921825 
L 91.852917 113.255456 
L 91.931554 115.114306 
L 93.285429 115.595406 
L 93.404452 116.435954 
L 91.716178 115.634622 
z
" clip-path="url(#p7d3951f6a5)" style="fill: #eeeeee; stroke: #000000; stroke-width: 0.3"/>
    <path d="M 136.302533 108.7414 
L 138.494521 109.252784 
L 139.928443 108.241937 
L 139.049954 111.274478 
L 138.194134 109.67778 
L 137.879576 111.082339 
L 136.421556 110.665286 
z
" clip-path="url(#p7d3951f6a5)" style="fill: #eeeeee; stroke: #000000; stroke-width: 0.3"/>
    <path d="M 159.379979 155.560624 
L 161.255284 153.339847 
L 164.215948 152.212816 
L 162.908831 156.817737 
L 159.801521 158.526141 
L 160.014059 156.460765 
z
" clip-path="url(#p7d3951f6a5)" style="fill: #eeeeee; stroke: #000000; stroke-width: 0.3"/>
    <path d="M 149.768981 136.249766 
L 151.737801 135.350124 
L 154.014093 135.839667 
L 151.659163 137.422468 
L 150.8834 136.581919 
L 149.92697 137.025779 
z
" clip-path="url(#p7d3951f6a5)" style="fill: #eeeeee; stroke: #000000; stroke-width: 0.3"/>
    <path d="M 143.40204 126.005246 
L 146.141661 126.464004 
L 145.693202 130.370856 
L 144.802664 131.174677 
L 143.758395 130.394686 
L 144.622006 128.458891 
z
" clip-path="url(#p7d3951f6a5)" style="fill: #eeeeee; stroke: #000000; stroke-width: 0.3"/>
    <path d="M 130.153084 149.547679 
L 130.390424 148.290566 
L 131.019533 148.95685 
L 130.865801 148.207155 
L 131.949742 148.119279 
L 132.060268 149.085944 
z
" clip-path="url(#p7d3951f6a5)" style="fill: #eeeeee; stroke: #000000; stroke-width: 0.3"/>
    <path d="M 97.876971 134.741432 
L 98.656277 133.999192 
L 101.074967 136.382825 
L 101.157861 136.756183 
L 100.265905 136.339131 
L 99.580114 137.339057 
z
" clip-path="url(#p7d3951f6a5)" style="fill: #eeeeee; stroke: #000000; stroke-width: 0.3"/>
    <path d="M 154.014093 162.505984 
L 155.346709 159.57374 
L 154.787732 161.956372 
L 155.268071 163.338601 
L 154.609198 164.762523 
z
" clip-path="url(#p7d3951f6a5)" style="fill: #eeeeee; stroke: #000000; stroke-width: 0.3"/>
    <path d="M 152.706976 148.752301 
L 155.868844 146.412363 
L 156.520631 146.957497 
L 153.353801 148.295044 
L 153.187315 149.206594 
z
" clip-path="url(#p7d3951f6a5)" style="fill: #eeeeee; stroke: #000000; stroke-width: 0.3"/>
    <path d="M 152.463977 144.193063 
L 153.808633 145.33448 
L 152.653846 145.950127 
L 153.021535 144.948224 
L 152.702023 144.780402 
z
" clip-path="url(#p7d3951f6a5)" style="fill: #eeeeee; stroke: #000000; stroke-width: 0.3"/>
    <path d="M 149.387128 140.740992 
L 149.930513 140.951995 
L 149.495521 141.304001 
L 149.659883 141.937524 
L 149.474262 141.906739 
z
" clip-path="url(#p7d3951f6a5)" style="fill: #eeeeee; stroke: #000000; stroke-width: 0.3"/>
    <path d="M 146.993937 150.320203 
L 148.233038 150.297374 
L 147.870311 149.707045 
L 148.774307 150.380284 
L 147.337547 151.227788 
z
" clip-path="url(#p7d3951f6a5)" style="fill: #eeeeee; stroke: #000000; stroke-width: 0.3"/>
    <path d="M 142.44561 147.790114 
L 144.76866 146.034038 
L 145.368022 146.590593 
L 143.669833 147.790114 
L 142.589426 148.095449 
z
" clip-path="url(#p7d3951f6a5)" style="fill: #eeeeee; stroke: #000000; stroke-width: 0.3"/>
    <path d="M 139.160471 153.137275 
L 139.814383 152.720222 
L 139.3383 151.637886 
L 140.183491 152.312113 
L 140.060933 153.31204 
z
" clip-path="url(#p7d3951f6a5)" style="fill: #eeeeee; stroke: #000000; stroke-width: 0.3"/>
    <path d="M 131.805221 100.885479 
L 132.897667 98.874217 
L 134.152359 99.714766 
L 134.097801 101.213667 
L 132.897667 101.721073 
z
" clip-path="url(#p7d3951f6a5)" style="fill: #eeeeee; stroke: #000000; stroke-width: 0.3"/>
    <path d="M 131.103847 122.373944 
L 131.320633 121.279687 
L 133.195929 123.20655 
L 132.239507 123.782968 
L 132.155202 122.768156 
z
" clip-path="url(#p7d3951f6a5)" style="fill: #eeeeee; stroke: #000000; stroke-width: 0.3"/>
    <path d="M 98.89999 125.129447 
L 99.456843 124.969581 
L 99.096936 125.431804 
L 99.449042 125.82155 
L 99.028223 125.448191 
z
" clip-path="url(#p7d3951f6a5)" style="fill: #eeeeee; stroke: #000000; stroke-width: 0.3"/>
    <path d="M 144.511488 138.992359 
L 145.363765 137.505378 
L 147.870311 136.915061 
L 146.725431 138.317131 
z
" clip-path="url(#p7d3951f6a5)" style="fill: #eeeeee; stroke: #000000; stroke-width: 0.3"/>
    <path d="M 139.873189 102.80391 
L 141.025146 102.403244 
L 142.024782 103.220963 
L 140.949338 103.804337 
z
" clip-path="url(#p7d3951f6a5)" style="fill: #eeeeee; stroke: #000000; stroke-width: 0.3"/>
    <path d="M 138.987605 144.276474 
L 140.592279 142.894256 
L 141.068361 145.071839 
L 139.928443 146.28377 
z
" clip-path="url(#p7d3951f6a5)" style="fill: #eeeeee; stroke: #000000; stroke-width: 0.3"/>
    <path d="M 138.388251 148.70663 
L 138.684389 147.790114 
L 139.576337 148.797984 
L 139.261073 149.513917 
z
" clip-path="url(#p7d3951f6a5)" style="fill: #eeeeee; stroke: #000000; stroke-width: 0.3"/>
    <path d="M 136.911811 145.13142 
L 138.090695 143.435913 
L 138.565367 143.435913 
L 137.652865 145.468039 
z
" clip-path="url(#p7d3951f6a5)" style="fill: #eeeeee; stroke: #000000; stroke-width: 0.3"/>
    <path d="M 133.344707 133.504683 
L 134.08859 133.084165 
L 135.61037 134.234026 
L 135.64225 136.915061 
z
" clip-path="url(#p7d3951f6a5)" style="fill: #eeeeee; stroke: #000000; stroke-width: 0.3"/>
    <path d="M 129.703919 138.801207 
L 129.825066 137.414524 
L 130.568949 136.915061 
L 130.751741 137.666733 
z
" clip-path="url(#p7d3951f6a5)" style="fill: #eeeeee; stroke: #000000; stroke-width: 0.3"/>
    <path d="M 122.296243 135.993579 
L 122.306159 135.915135 
L 123.355391 135.839667 
L 122.81554 137.005415 
z
" clip-path="url(#p7d3951f6a5)" style="fill: #eeeeee; stroke: #000000; stroke-width: 0.3"/>
    <path d="M 122.155961 134.324391 
L 122.933858 133.491286 
L 122.339458 133.234099 
L 123.593436 133.66605 
z
" clip-path="url(#p7d3951f6a5)" style="fill: #eeeeee; stroke: #000000; stroke-width: 0.3"/>
    <path d="M 121.859119 141.595438 
L 122.637015 140.928653 
L 123.712459 140.762833 
L 122.926066 141.383934 
z
" clip-path="url(#p7d3951f6a5)" style="fill: #eeeeee; stroke: #000000; stroke-width: 0.3"/>
    <path d="M 117.744373 153.362189 
L 118.118443 152.739098 
L 119.504903 154.59596 
L 118.520136 155.818311 
z
" clip-path="url(#p7d3951f6a5)" style="fill: #eeeeee; stroke: #000000; stroke-width: 0.3"/>
    <path d="M 97.876971 127.213199 
L 99.078524 128.553723 
L 99.132359 129.14504 
L 98.472076 128.978219 
z
" clip-path="url(#p7d3951f6a5)" style="fill: #eeeeee; stroke: #000000; stroke-width: 0.3"/>
    <path d="M 160.039558 150.463695 
L 160.75298 149.623634 
L 160.762191 151.049058 
z
" clip-path="url(#p7d3951f6a5)" style="fill: #eeeeee; stroke: #000000; stroke-width: 0.3"/>
    <path d="M 157.940389 154.844203 
L 158.789836 154.529925 
L 158.808963 154.707166 
z
" clip-path="url(#p7d3951f6a5)" style="fill: #eeeeee; stroke: #000000; stroke-width: 0.3"/>
    <path d="M 156.009117 151.814639 
L 156.520631 151.637886 
L 157.151159 152.790235 
z
" clip-path="url(#p7d3951f6a5)" style="fill: #eeeeee; stroke: #000000; stroke-width: 0.3"/>
    <path d="M 154.552525 150.541151 
L 154.617703 150.16828 
L 155.146925 150.556037 
z
" clip-path="url(#p7d3951f6a5)" style="fill: #eeeeee; stroke: #000000; stroke-width: 0.3"/>
    <path d="M 152.103366 165.148291 
L 152.554654 164.512292 
L 153.484872 164.838479 
z
" clip-path="url(#p7d3951f6a5)" style="fill: #eeeeee; stroke: #000000; stroke-width: 0.3"/>
    <path d="M 151.444501 143.059577 
L 152.115414 143.002986 
L 152.116833 144.087311 
z
" clip-path="url(#p7d3951f6a5)" style="fill: #eeeeee; stroke: #000000; stroke-width: 0.3"/>
    <path d="M 142.806927 143.77601 
L 143.278055 143.609689 
L 143.296476 144.039651 
z
" clip-path="url(#p7d3951f6a5)" style="fill: #eeeeee; stroke: #000000; stroke-width: 0.3"/>
    <path d="M 142.510084 153.122377 
L 142.696409 152.590153 
L 143.456589 153.053865 
z
" clip-path="url(#p7d3951f6a5)" style="fill: #eeeeee; stroke: #000000; stroke-width: 0.3"/>
    <path d="M 141.667723 146.36718 
L 141.970233 146.616412 
L 141.879547 146.759403 
z
" clip-path="url(#p7d3951f6a5)" style="fill: #eeeeee; stroke: #000000; stroke-width: 0.3"/>
    <path d="M 140.566771 125.79772 
L 141.433926 126.021132 
L 140.894084 126.554858 
z
" clip-path="url(#p7d3951f6a5)" style="fill: #eeeeee; stroke: #000000; stroke-width: 0.3"/>
    <path d="M 139.902944 147.028498 
L 140.176404 146.866643 
L 140.171451 147.300083 
z
" clip-path="url(#p7d3951f6a5)" style="fill: #eeeeee; stroke: #000000; stroke-width: 0.3"/>
    <path d="M 138.684389 140.262369 
L 138.733976 139.331455 
L 140.041799 139.553391 
z
" clip-path="url(#p7d3951f6a5)" style="fill: #eeeeee; stroke: #000000; stroke-width: 0.3"/>
    <path d="M 136.598671 149.707045 
L 136.923154 148.95685 
L 137.608945 148.873439 
z
" clip-path="url(#p7d3951f6a5)" style="fill: #eeeeee; stroke: #000000; stroke-width: 0.3"/>
    <path d="M 136.237363 145.192489 
L 136.645437 144.773948 
L 136.421556 145.664157 
z
" clip-path="url(#p7d3951f6a5)" style="fill: #eeeeee; stroke: #000000; stroke-width: 0.3"/>
    <path d="M 135.880295 137.005415 
L 138.269229 138.089252 
L 137.892329 138.786321 
z
" clip-path="url(#p7d3951f6a5)" style="fill: #eeeeee; stroke: #000000; stroke-width: 0.3"/>
    <path d="M 135.80803 114.324895 
L 136.424394 114.231052 
L 135.880295 115.187297 
z
" clip-path="url(#p7d3951f6a5)" style="fill: #eeeeee; stroke: #000000; stroke-width: 0.3"/>
    <path d="M 134.983385 140.853198 
L 135.100989 139.060383 
L 135.698932 140.386497 
z
" clip-path="url(#p7d3951f6a5)" style="fill: #eeeeee; stroke: #000000; stroke-width: 0.3"/>
    <path d="M 134.626317 149.373403 
L 135.55865 149.872378 
L 135.696094 150.213963 
z
" clip-path="url(#p7d3951f6a5)" style="fill: #eeeeee; stroke: #000000; stroke-width: 0.3"/>
    <path d="M 133.049283 137.883703 
L 133.540243 137.588789 
L 133.557959 138.046058 
z
" clip-path="url(#p7d3951f6a5)" style="fill: #eeeeee; stroke: #000000; stroke-width: 0.3"/>
    <path d="M 132.897667 144.693026 
L 133.973111 145.908422 
L 133.49278 146.457534 
z
" clip-path="url(#p7d3951f6a5)" style="fill: #eeeeee; stroke: #000000; stroke-width: 0.3"/>
    <path d="M 132.600824 147.956936 
L 133.102413 148.038357 
L 133.046445 148.332271 
z
" clip-path="url(#p7d3951f6a5)" style="fill: #eeeeee; stroke: #000000; stroke-width: 0.3"/>
    <path d="M 131.843473 147.517041 
L 132.196998 147.171978 
L 132.292646 147.94948 
z
" clip-path="url(#p7d3951f6a5)" style="fill: #eeeeee; stroke: #000000; stroke-width: 0.3"/>
    <path d="M 130.984824 143.77601 
L 131.837806 142.800413 
L 131.941245 143.701043 
z
" clip-path="url(#p7d3951f6a5)" style="fill: #eeeeee; stroke: #000000; stroke-width: 0.3"/>
    <path d="M 130.509447 141.512027 
L 131.103847 139.346353 
L 131.508378 140.256415 
z
" clip-path="url(#p7d3951f6a5)" style="fill: #eeeeee; stroke: #000000; stroke-width: 0.3"/>
    <path d="M 127.710306 171.533619 
L 128.007863 171.29083 
L 128.483954 171.949171 
z
" clip-path="url(#p7d3951f6a5)" style="fill: #eeeeee; stroke: #000000; stroke-width: 0.3"/>
    <path d="M 127.697552 116.71846 
L 128.124761 116.858461 
L 127.856255 117.261116 
z
" clip-path="url(#p7d3951f6a5)" style="fill: #eeeeee; stroke: #000000; stroke-width: 0.3"/>
    <path d="M 126.233169 147.19582 
L 126.340143 147.310503 
L 126.299053 147.334333 
z
" clip-path="url(#p7d3951f6a5)" style="fill: #eeeeee; stroke: #000000; stroke-width: 0.3"/>
    <path d="M 125.856975 119.102092 
L 126.932419 117.352971 
L 126.399654 118.911441 
z
" clip-path="url(#p7d3951f6a5)" style="fill: #eeeeee; stroke: #000000; stroke-width: 0.3"/>
    <path d="M 123.712459 118.352397 
L 125.501325 119.367222 
L 124.841033 119.943141 
z
" clip-path="url(#p7d3951f6a5)" style="fill: #eeeeee; stroke: #000000; stroke-width: 0.3"/>
    <path d="M 122.609383 119.276856 
L 122.696526 118.276429 
L 123.065634 118.706892 
z
" clip-path="url(#p7d3951f6a5)" style="fill: #eeeeee; stroke: #000000; stroke-width: 0.3"/>
    <path d="M 122.515868 146.153188 
L 122.668894 146.430727 
L 122.639139 146.460023 
z
" clip-path="url(#p7d3951f6a5)" style="fill: #eeeeee; stroke: #000000; stroke-width: 0.3"/>
    <path d="M 122.398969 138.921857 
L 122.960775 138.789787 
L 123.176856 138.921857 
z
" clip-path="url(#p7d3951f6a5)" style="fill: #eeeeee; stroke: #000000; stroke-width: 0.3"/>
    <path d="M 121.174747 159.203846 
L 121.480095 159.138311 
L 121.502059 159.574728 
z
" clip-path="url(#p7d3951f6a5)" style="fill: #eeeeee; stroke: #000000; stroke-width: 0.3"/>
    <path d="M 119.422722 141.936523 
L 119.98028 141.97724 
L 120.014284 142.308894 
z
" clip-path="url(#p7d3951f6a5)" style="fill: #eeeeee; stroke: #000000; stroke-width: 0.3"/>
    <path d="M 107.723176 148.797984 
L 107.980348 148.36951 
L 107.961222 148.95685 
z
" clip-path="url(#p7d3951f6a5)" style="fill: #eeeeee; stroke: #000000; stroke-width: 0.3"/>
    <path d="M 107.291014 147.837774 
L 107.538975 147.790114 
L 107.42562 147.956936 
z
" clip-path="url(#p7d3951f6a5)" style="fill: #eeeeee; stroke: #000000; stroke-width: 0.3"/>
    <path d="M 100.265905 126.388037 
L 100.598885 125.729208 
L 100.384927 126.388037 
z
" clip-path="url(#p7d3951f6a5)" style="fill: #eeeeee; stroke: #000000; stroke-width: 0.3"/>
    <path d="M 100.063282 125.979427 
L 100.217728 125.41244 
L 100.68177 125.431804 
z
" clip-path="url(#p7d3951f6a5)" style="fill: #eeeeee; stroke: #000000; stroke-width: 0.3"/>
    <path d="M 97.225184 126.137817 
L 98.458617 122.71453 
L 98.717208 125.43627 
z
" clip-path="url(#p7d3951f6a5)" style="fill: #eeeeee; stroke: #000000; stroke-width: 0.3"/>
    <path d="M 93.689246 118.331544 
L 94.139125 118.412966 
L 94.24185 118.693482 
z
" clip-path="url(#p7d3951f6a5)" style="fill: #eeeeee; stroke: #000000; stroke-width: 0.3"/>
    <path d="M 1.259612 20.065358 
L 2.377096 18.272738 
L 1.488804 16.749604 
L 3.531473 16.092337 
L 5.625183 17.318104 
L 6.149738 18.890667 
L 7.250124 18.727043 
L 6.820051 19.96384 
L 9.15669 18.439511 
L 9.164786 16.231363 
L 12.903233 16.796959 
L 13.955042 18.506669 
L 16.197208 18.465049 
L 19.535268 16.077207 
L 24.350717 15.888984 
L 24.376808 14.659751 
L 24.948147 14.340068 
L 24.917555 14.988257 
L 27.16242 15.598304 
L 29.472978 15.135177 
L 29.620529 16.502179 
L 31.56129 17.58576 
L 32.172213 15.225347 
L 30.60486 14.443477 
L 31.468611 12.935863 
L 29.325418 9.598414 
L 35.075699 6.475361 
L 35.502177 4.073317 
L 37.782587 4.704802 
L 38.646346 1.718578 
L 40.902006 3.850429 
L 43.082998 4.253975 
L 44.239169 3.222409 
L 46.132242 4.039274 
L 47.218228 1.595622 
L 48.430193 1.762711 
L 48.799989 -1.227929 
L 56.081643 0.426604 
L 58.404789 2.006098 
L 60.781021 2.196529 
L 62.184622 1.240626 
L 65.261758 2.297413 
L 65.888882 3.698469 
L 65.013423 6.609348 
L 67.658684 11.003888 
L 66.402634 12.738501 
L 67.023464 14.627283 
L 64.604043 15.030194 
L 62.604806 14.069569 
L 61.212 15.20264 
L 63.148252 15.682483 
L 63.661106 16.707106 
L 63.240923 17.745602 
L 61.439633 18.429737 
L 61.781536 19.894486 
L 61.255188 20.988146 
L 62.097349 21.593788 
L 61.358654 22.978128 
L 61.895806 23.289612 
L 60.054923 23.219318 
L 57.502342 25.374499 
L 57.807316 27.290087 
L 56.362363 26.633674 
L 54.492683 26.718171 
L 52.983814 27.973893 
L 49.495496 27.547957 
L 47.653708 28.138774 
L 44.954472 30.85356 
L 26.36525 27.052985 
L 25.160485 24.880783 
L 23.944027 24.383919 
L 24.4119 22.232204 
L 20.531291 23.630429 
L 15.652865 23.713022 
L 14.107093 26.089211 
L 9.661448 25.146559 
L 8.678928 23.317676 
L 6.397168 25.137408 
L 4.341241 24.157553 
L 4.191888 23.083111 
L 1.782365 22.57806 
z
" clip-path="url(#p7d3951f6a5)" style="fill: #eeeeee; stroke: #000000; stroke-width: 0.3"/>
    <path d="M -24.146995 46.41304 
L -19.744982 44.512606 
L -19.289706 42.661345 
L -20.838177 41.438725 
L -21.007327 39.857341 
L -22.58638 38.188934 
L -20.496265 36.385588 
L -19.351795 36.980188 
L -15.977737 35.66741 
L -13.34328 36.459359 
L -11.020134 33.924597 
L -11.222574 32.157198 
L -8.508043 29.956298 
L -8.168838 32.601729 
L -4.940547 34.378585 
L -5.297746 35.680015 
L -4.400697 36.119506 
L -4.147869 37.591808 
L -3.256217 37.661175 
L -2.728067 36.706529 
L -3.258916 34.993988 
L -1.319965 32.652805 
L -0.819707 29.404892 
L 0.506518 29.393228 
L 1.392773 31.829949 
L 4.718236 30.944987 
L 6.08765 32.789 
L 6.811946 32.27132 
L 6.227113 31.459824 
L 6.653591 30.557523 
L 5.657577 30.028495 
L 5.713362 28.970452 
L 7.100771 27.825399 
L 9.293455 28.912445 
L 9.424813 27.865115 
L 8.642033 27.269259 
L 9.378926 24.926185 
L 14.107093 26.089211 
L 15.652865 23.713022 
L 20.531291 23.630429 
L 24.4119 22.232204 
L 23.944027 24.383919 
L 25.160485 24.880783 
L 26.36525 27.052985 
L 37.647172 29.131868 
L 34.724795 31.931467 
L 35.115283 32.935908 
L 37.093827 33.272626 
L 35.565162 35.395642 
L 36.81941 35.651646 
L 36.472109 37.543892 
L 38.324231 38.604449 
L 39.333748 39.965789 
L 38.925264 40.541464 
L 37.741288 40.437188 
L 38.580105 40.179513 
L 36.543983 38.040647 
L 35.042043 39.433784 
L 34.760783 38.589758 
L 32.583683 38.256116 
L 32.284715 39.842894 
L 26.527749 42.330289 
L 27.903579 40.929208 
L 26.293246 41.095529 
L 24.184153 43.850531 
L 24.845856 45.183112 
L 25.514645 44.86039 
L 26.050247 47.541426 
L 26.050247 46.874641 
L 27.487008 48.040889 
L 26.709826 49.865477 
L 26.381808 49.001587 
L 26.46257 50.075492 
L 25.158291 49.79051 
L 26.050247 56.81828 
L 28.860009 59.991336 
L 36.903889 65.2397 
L 40.906698 76.973677 
L 46.424906 82.139131 
L 46.69908 83.247786 
L 50.395836 85.161239 
L 58.884632 85.257559 
L 59.266493 86.969453 
L 56.791836 88.982204 
L 57.323181 90.875805 
L 66.864752 95.483203 
L 70.511912 98.554472 
L 75.133915 100.743988 
L 79.566058 106.984824 
L 78.460858 110.915518 
L 75.69573 109.763168 
L 73.881356 105.198463 
L 70.825052 104.978028 
L 68.110225 103.554105 
L 69.181421 102.601338 
L 66.159121 102.67284 
L 62.926407 107.653097 
L 63.160196 109.095895 
L 61.925352 111.426401 
L 62.414188 112.821528 
L 67.748908 115.929048 
L 67.867931 121.367063 
L 62.759922 123.352018 
L 62.620354 127.846221 
L 59.136841 131.33951 
L 58.333447 133.82045 
L 54.914407 133.654129 
L 54.465243 130.399164 
L 56.032361 129.419089 
L 56.946282 126.78126 
L 56.239232 125.168175 
L 58.990196 124.168749 
L 59.591673 122.635097 
L 55.697971 110.012411 
L 54.390854 107.734519 
L 52.526309 108.757213 
L 51.230405 108.325348 
L 50.06357 106.613954 
L 48.182598 105.735166 
L 48.941063 103.832755 
L 47.058272 100.510143 
L 43.233283 101.721073 
L 44.378163 99.780301 
L 42.81175 98.449221 
L 40.665797 99.049335 
L 40.436379 97.435787 
L 37.829136 93.402428 
L 36.280439 93.960984 
L 34.033197 92.873669 
L 31.933315 93.705786 
L 30.618406 91.609613 
L 28.369754 91.021773 
L 24.920245 87.4982 
L 23.016613 84.364873 
L 21.337559 83.863421 
L 19.863956 80.871597 
L 17.412673 79.315604 
L 15.062 79.506255 
L 15.774369 78.420245 
L 15.513289 77.398173 
L 13.642947 75.214624 
L 11.794569 74.464929 
L 12.075123 73.075757 
L 9.776867 72.804672 
L 10.026247 69.067607 
L 8.189918 66.067839 
L 7.618892 61.7484 
L 6.21685 59.567328 
L 4.076582 58.551515 
L 3.968189 59.36079 
L -1.269473 55.561179 
L -1.443045 56.151496 
L -5.345966 54.604446 
L -7.925474 56.164405 
L -11.393395 61.137719 
L -16.315792 62.412207 
L -16.528383 61.517911 
L -14.682103 59.055346 
L -14.980817 57.728695 
L -17.72325 58.368063 
L -20.920053 56.833325 
L -22.118516 53.36095 
L -21.037918 51.541218 
L -20.208354 51.520402 
L -20.645627 49.774441 
L -22.904891 48.80026 
z
M 26.783301 85.452701 
L 26.792041 85.466891 
L 26.791589 85.453347 
z
M 26.283801 60.506466 
L 27.003169 60.889244 
L 27.036886 60.089681 
z
" clip-path="url(#p7d3951f6a5)" style="fill: #eeeeee; stroke: #000000; stroke-width: 0.3"/>
    <path d="M -10.700517 101.445523 
L -10.302368 96.924012 
L -9.282178 98.304253 
L -7.451516 98.5932 
L -4.822412 97.124596 
L -1.269473 93.277312 
L 0.399666 94.276739 
L 0.5782 95.359588 
L 1.594133 94.943035 
L 1.178972 96.283547 
L 2.491043 96.449868 
L 1.112375 97.373827 
L 3.025226 98.374254 
L 2.449953 98.923866 
L 3.689767 103.125632 
L 2.173655 105.473525 
L 3.097491 107.659552 
L 1.653644 119.064364 
L 1.237065 119.609498 
L -3.156103 117.66526 
L -2.582248 118.144871 
L -3.053377 120.942567 
L -4.554611 122.373944 
L -5.74483 121.70766 
L -6.402989 122.540766 
L -7.11145 120.193372 
L -8.737374 118.175644 
L -8.117467 111.648337 
L -7.482682 112.318087 
L -7.057606 112.330996 
L -7.591789 112.081765 
L -7.149711 110.481089 
L -8.54821 109.74927 
L -8.699113 108.271721 
L -7.717184 107.408832 
L -8.675738 102.964777 
L -9.44512 101.419204 
z
" clip-path="url(#p7d3951f6a5)" style="fill: #eeeeee; stroke: #000000; stroke-width: 0.3"/>
    <path d="M 26.556799 135.563617 
L 27.130654 132.82549 
L 28.973356 131.734709 
L 29.209982 130.734783 
L 30.684299 132.744568 
L 32.079255 132.068352 
L 32.42357 130.767557 
L 34.314457 130.394686 
L 34.952071 131.828052 
L 38.429203 133.408864 
L 40.429188 132.484404 
L 44.705466 132.545474 
L 48.147175 130.796841 
L 49.721379 131.522217 
L 51.020705 129.856007 
L 51.496787 130.561019 
L 54.628899 129.727913 
L 50.810996 135.997545 
L 49.753259 139.462538 
L 49.857404 141.264785 
L 51.149643 142.144061 
L 50.553119 142.75722 
L 51.849598 145.146818 
L 50.334905 146.213269 
L 49.773804 149.499019 
L 44.492928 147.809966 
L 42.677849 144.751606 
L 37.776711 143.197602 
L 33.060479 139.346353 
L 28.579454 138.393098 
z
" clip-path="url(#p7d3951f6a5)" style="fill: #eeeeee; stroke: #000000; stroke-width: 0.3"/>
    <path d="M 6.357828 75.038859 
L 6.585958 74.373575 
L 9.288031 73.964465 
L 9.045737 75.630676 
z
" clip-path="url(#p7d3951f6a5)" style="fill: #eeeeee; stroke: #000000; stroke-width: 0.3"/>
    <path d="M 0.527186 94.213192 
L 0.855917 93.601523 
L 0.856622 94.294614 
L 0.765231 94.375048 
z
" clip-path="url(#p7d3951f6a5)" style="fill: #eeeeee; stroke: #000000; stroke-width: 0.3"/>
    <path d="M -9.980723 118.776893 
L -9.320439 118.526661 
L -9.320439 119.609498 
L -9.765346 119.578225 
z
" clip-path="url(#p7d3951f6a5)" style="fill: #eeeeee; stroke: #000000; stroke-width: 0.3"/>
    <path d="M 50.584285 123.459759 
L 50.802491 123.198106 
L 50.849257 123.654875 
z
" clip-path="url(#p7d3951f6a5)" style="fill: #eeeeee; stroke: #000000; stroke-width: 0.3"/>
    <path d="M 48.505662 128.249865 
L 49.020005 128.478743 
L 48.841471 128.644576 
z
" clip-path="url(#p7d3951f6a5)" style="fill: #eeeeee; stroke: #000000; stroke-width: 0.3"/>
    <path d="M 48.301621 126.713235 
L 48.776293 127.138232 
L 48.662937 127.554284 
z
" clip-path="url(#p7d3951f6a5)" style="fill: #eeeeee; stroke: #000000; stroke-width: 0.3"/>
    <path d="M 47.160998 126.112486 
L 47.797907 125.996314 
L 47.751854 126.506698 
z
" clip-path="url(#p7d3951f6a5)" style="fill: #eeeeee; stroke: #000000; stroke-width: 0.3"/>
    <path d="M 44.973268 125.926313 
L 45.160298 125.954609 
L 45.052619 126.234625 
z
" clip-path="url(#p7d3951f6a5)" style="fill: #eeeeee; stroke: #000000; stroke-width: 0.3"/>
    <path d="M 43.234702 126.40939 
L 43.360097 126.36123 
L 43.391977 126.509675 
z
" clip-path="url(#p7d3951f6a5)" style="fill: #eeeeee; stroke: #000000; stroke-width: 0.3"/>
    <path d="M 38.937173 99.956066 
L 39.056196 99.381123 
L 39.953106 99.714766 
z
" clip-path="url(#p7d3951f6a5)" style="fill: #eeeeee; stroke: #000000; stroke-width: 0.3"/>
    <path d="M 35.155399 99.094652 
L 35.237579 98.9194 
L 35.305596 98.904502 
z
" clip-path="url(#p7d3951f6a5)" style="fill: #eeeeee; stroke: #000000; stroke-width: 0.3"/>
    <path d="M 32.881239 124.609619 
L 33.161786 124.332092 
L 33.263806 124.444299 
z
" clip-path="url(#p7d3951f6a5)" style="fill: #eeeeee; stroke: #000000; stroke-width: 0.3"/>
    <path d="M 30.203246 159.165619 
L 30.448377 159.119948 
L 30.435624 159.292723 
z
" clip-path="url(#p7d3951f6a5)" style="fill: #eeeeee; stroke: #000000; stroke-width: 0.3"/>
    <path d="M 27.419705 163.387749 
L 27.676877 163.332146 
L 28.15934 163.72238 
z
" clip-path="url(#p7d3951f6a5)" style="fill: #eeeeee; stroke: #000000; stroke-width: 0.3"/>
    <path d="M 25.637916 43.429013 
L 26.227362 42.385404 
L 26.590803 42.603362 
z
" clip-path="url(#p7d3951f6a5)" style="fill: #eeeeee; stroke: #000000; stroke-width: 0.3"/>
    <path d="M 25.630839 42.430587 
L 26.006319 42.188799 
L 25.991441 42.329301 
z
" clip-path="url(#p7d3951f6a5)" style="fill: #eeeeee; stroke: #000000; stroke-width: 0.3"/>
    <path d="M 25.448056 134.072171 
L 25.57487 133.741505 
L 26.050247 133.999192 
z
" clip-path="url(#p7d3951f6a5)" style="fill: #eeeeee; stroke: #000000; stroke-width: 0.3"/>
    <path d="M 23.104461 133.277793 
L 23.305664 133.179484 
L 23.529537 133.693846 
z
" clip-path="url(#p7d3951f6a5)" style="fill: #eeeeee; stroke: #000000; stroke-width: 0.3"/>
    <path d="M 22.186292 147.583076 
L 23.287949 147.846706 
L 23.10588 148.444478 
z
" clip-path="url(#p7d3951f6a5)" style="fill: #eeeeee; stroke: #000000; stroke-width: 0.3"/>
    <path d="M 12.930943 79.811101 
L 13.60943 80.2457 
L 13.466371 80.391291 
z
" clip-path="url(#p7d3951f6a5)" style="fill: #eeeeee; stroke: #000000; stroke-width: 0.3"/>
    <path d="M 7.991544 80.277791 
L 8.178583 80.12239 
L 8.1552 80.32794 
z
" clip-path="url(#p7d3951f6a5)" style="fill: #eeeeee; stroke: #000000; stroke-width: 0.3"/>
    <path d="M 5.866163 77.179714 
L 6.119791 76.78948 
L 6.175045 77.295398 
z
" clip-path="url(#p7d3951f6a5)" style="fill: #eeeeee; stroke: #000000; stroke-width: 0.3"/>
    <path d="M 3.700161 71.983402 
L 3.747572 71.268348 
L 4.053861 71.774132 
z
" clip-path="url(#p7d3951f6a5)" style="fill: #eeeeee; stroke: #000000; stroke-width: 0.3"/>
    <path d="M -0.029667 93.67699 
L 0.32882 93.279802 
L 0.163745 93.912324 
z
" clip-path="url(#p7d3951f6a5)" style="fill: #eeeeee; stroke: #000000; stroke-width: 0.3"/>
    <path d="M -8.970457 119.692909 
L -7.770323 120.033994 
L -8.415023 121.351176 
z
" clip-path="url(#p7d3951f6a5)" style="fill: #eeeeee; stroke: #000000; stroke-width: 0.3"/>
    <path d="M -10.157838 96.533278 
L -9.143324 94.943035 
L -9.837611 96.559597 
z
" clip-path="url(#p7d3951f6a5)" style="fill: #eeeeee; stroke: #000000; stroke-width: 0.3"/>
    <path d="M -29.755114 32.887358 
L -28.613333 32.467425 
L -28.206652 31.089064 
L -28.921946 30.356061 
L -28.363204 28.354414 
L -25.657666 26.190412 
L -25.540698 23.953261 
L -23.601294 23.012183 
L -20.370304 19.251336 
L -21.849487 18.950565 
L -20.92095 17.304231 
L -19.114254 17.314322 
L -18.615799 18.18635 
L -15.142776 16.012257 
L -14.738785 16.631126 
L -7.101734 16.080355 
L -6.69595 15.264124 
L -8.576425 15.152198 
L -7.123333 13.496408 
L -4.30712 15.266016 
L -0.898885 15.339787 
L 2.384295 17.755693 
L 0.96539 20.709448 
L 0.875418 22.492306 
L 4.191888 23.083111 
L 4.341241 24.157553 
L 6.397168 25.137408 
L 8.727514 23.326815 
L 9.378926 24.926185 
L 8.642033 27.269259 
L 9.424813 27.865115 
L 9.293455 28.912445 
L 7.100771 27.825399 
L 5.713362 28.970452 
L 5.657577 30.028495 
L 6.653591 30.557523 
L 6.454747 32.653428 
L 5.79973 32.783327 
L 4.718236 30.944987 
L 1.392773 31.829949 
L 0.506518 29.393228 
L -0.986158 29.554338 
L -1.319965 32.652805 
L -3.258916 34.993988 
L -2.728067 36.706529 
L -3.256217 37.661175 
L -4.147869 37.591808 
L -4.400697 36.119506 
L -5.297746 35.680015 
L -4.940547 34.378585 
L -8.168838 32.601729 
L -8.508043 29.956298 
L -11.222574 32.157198 
L -11.020134 33.924597 
L -13.452152 36.517366 
L -15.977737 35.66741 
L -20.105776 36.813098 
L -22.65296 33.828753 
L -22.542295 30.420059 
L -24.051617 29.910908 
L -26.768855 30.660298 
L -27.530037 31.624388 
L -26.946101 32.544345 
L -29.752415 33.881721 
z
" clip-path="url(#p7d3951f6a5)" style="fill: #eeeeee; stroke: #000000; stroke-width: 0.3"/>
    <path d="M 0.875418 22.492306 
L 1.259612 20.065358 
L 2.082882 21.96927 
L 1.782365 22.57806 
z
" clip-path="url(#p7d3951f6a5)" style="fill: #eeeeee; stroke: #000000; stroke-width: 0.3"/>
    <path d="M 82.518904 37.214118 
L 84.348086 35.32691 
L 86.072001 35.700196 
L 88.566098 33.47061 
L 94.598005 34.154745 
L 98.474113 38.608244 
L 99.324379 38.492853 
L 99.16242 41.826507 
L 105.48404 45.904828 
L 104.248691 47.696826 
L 105.858336 49.026003 
L 104.28468 49.425131 
L 104.636481 50.234736 
L 109.846015 51.841354 
L 110.997694 53.743692 
L 113.604259 50.92518 
L 116.556331 52.765716 
L 114.109914 53.778991 
L 115.916357 57.089682 
L 115.057351 59.096966 
L 113.373926 59.958281 
L 112.937542 62.220653 
L 114.412233 66.292033 
L 118.466492 69.947896 
L 116.224317 73.458743 
L 113.61595 74.352844 
L 114.099119 75.327025 
L 113.597956 77.290518 
L 114.566086 78.443148 
L 113.586264 80.303866 
L 112.235741 79.761599 
L 106.195738 81.327232 
L 105.681987 80.108078 
L 106.564637 79.562663 
L 107.844079 76.109835 
L 104.486223 75.200604 
L 104.745353 73.945516 
L 103.457815 73.462842 
L 101.995721 70.972214 
L 99.784146 69.998655 
L 99.617696 68.937781 
L 97.742618 69.663207 
L 98.089022 71.441014 
L 96.483878 72.688537 
L 96.630532 73.841472 
L 95.490553 74.184168 
L 95.418575 73.21377 
L 91.867272 70.688781 
L 88.985385 69.928666 
L 85.309914 66.211013 
L 85.978433 64.896333 
L 88.040646 65.19143 
L 88.195406 64.181937 
L 85.89835 59.852347 
L 88.379851 60.155009 
L 89.166235 59.441236 
L 84.794361 55.68322 
L 84.909527 53.552638 
L 87.057229 49.346943 
L 85.405292 48.559399 
L 83.916211 49.31478 
L 83.703865 48.71325 
L 84.924823 48.246646 
L 84.169039 46.000673 
L 87.328948 45.196741 
L 83.582526 43.145934 
L 83.862228 41.590685 
L 84.703492 41.432417 
L 82.939088 40.68271 
L 83.504124 39.515584 
z
" clip-path="url(#p7d3951f6a5)" style="fill: #eeeeee; stroke: #000000; stroke-width: 0.3"/>
    <path d="M 35.959507 41.429172 
L 39.284265 42.506225 
L 40.005862 41.400888 
L 43.495982 41.844797 
L 45.308067 39.526932 
L 47.190344 41.99927 
L 48.282634 41.392066 
L 50.168507 42.428037 
L 51.787144 42.149973 
L 51.294086 40.334023 
L 52.210027 39.863637 
L 51.176221 38.847848 
L 54.841785 37.405172 
L 55.032533 35.031825 
L 54.091399 34.088539 
L 54.525973 32.939691 
L 57.828949 31.827424 
L 58.166352 30.867116 
L 60.061217 30.9204 
L 59.706717 29.454077 
L 60.65775 28.79958 
L 64.954042 30.814148 
L 68.893135 35.661102 
L 71.513202 36.251919 
L 73.837245 38.258922 
L 78.593305 38.623996 
L 80.780591 36.601228 
L 82.919291 36.313074 
L 82.428923 37.72233 
L 83.504124 39.515584 
L 82.939088 40.68271 
L 84.703492 41.432417 
L 83.862228 41.590685 
L 83.582526 43.145934 
L 87.328948 45.196741 
L 84.839351 45.286277 
L 84.169039 46.000673 
L 84.924823 48.246646 
L 82.817619 49.369016 
L 81.028021 46.640674 
L 79.574032 46.993766 
L 77.143816 45.754138 
L 73.642901 46.8891 
L 72.328367 45.674681 
L 67.996086 45.862586 
L 65.708929 44.203635 
L 64.728211 45.46408 
L 62.266498 44.963433 
L 60.414821 47.660246 
L 57.839744 45.064951 
L 55.854001 45.359414 
L 55.297958 50.492631 
L 57.908127 52.254356 
L 57.71468 53.275831 
L 58.675611 53.514166 
L 60.507492 58.871857 
L 66.632975 65.386266 
L 68.722184 66.426654 
L 68.891333 68.376285 
L 71.838008 71.510368 
L 71.891094 72.683803 
L 70.856227 72.580259 
L 70.737204 71.700482 
L 65.328095 67.125358 
L 61.069524 65.845903 
L 61.438641 65.37077 
L 57.309008 65.929314 
L 57.230371 63.677252 
L 55.104981 62.763713 
L 50.214472 57.492019 
L 50.180468 56.430523 
L 51.526543 56.81828 
L 51.230405 55.818854 
L 52.651583 56.607277 
L 53.558408 56.560605 
L 49.020005 52.925326 
L 47.944561 51.047611 
L 48.273989 48.177914 
L 47.674636 46.532555 
L 45.21981 44.09232 
L 42.962652 43.478173 
L 41.568401 47.950035 
L 40.850016 48.291121 
L 40.980374 47.841294 
L 40.60135 47.19984 
L 40.250663 49.956331 
L 39.294233 49.7071 
L 39.536527 50.380827 
L 39.407588 50.452329 
L 36.970478 46.783788 
L 37.867397 46.034081 
L 36.733146 45.901022 
L 36.851455 43.76911 
z
" clip-path="url(#p7d3951f6a5)" style="fill: #eeeeee; stroke: #000000; stroke-width: 0.3"/>
    <path d="M 66.381575 71.450251 
L 72.822209 74.039932 
L 72.054942 73.409387 
L 73.434159 73.178458 
L 73.84084 74.311859 
L 78.880328 77.456985 
L 79.39461 79.20042 
L 74.139946 74.630749 
L 72.643674 74.19881 
L 73.000029 74.778707 
L 72.885263 74.860128 
L 68.229248 72.290811 
L 66.769104 72.138876 
z
" clip-path="url(#p7d3951f6a5)" style="fill: #eeeeee; stroke: #000000; stroke-width: 0.3"/>
    <path d="M 42.67502 46.292256 
L 42.981073 45.571357 
L 44.372495 48.024002 
L 44.724601 51.797306 
L 43.975756 51.865819 
L 42.81175 48.790083 
L 43.83194 48.20771 
z
" clip-path="url(#p7d3951f6a5)" style="fill: #eeeeee; stroke: #000000; stroke-width: 0.3"/>
    <path d="M 43.950954 46.609511 
L 44.865579 46.030115 
L 45.028531 44.640443 
L 47.345199 47.950035 
L 46.548177 48.366588 
z
" clip-path="url(#p7d3951f6a5)" style="fill: #eeeeee; stroke: #000000; stroke-width: 0.3"/>
    <path d="M 61.194214 68.019032 
L 61.372748 67.269838 
L 65.430116 68.269264 
L 61.334496 68.203729 
z
" clip-path="url(#p7d3951f6a5)" style="fill: #eeeeee; stroke: #000000; stroke-width: 0.3"/>
    <path d="M 58.086904 71.283429 
L 58.795365 70.999448 
L 59.761711 71.200519 
L 58.420589 71.938793 
z
" clip-path="url(#p7d3951f6a5)" style="fill: #eeeeee; stroke: #000000; stroke-width: 0.3"/>
    <path d="M 49.500345 57.901117 
L 50.921513 59.068853 
L 51.170894 59.658682 
L 50.016812 58.751598 
z
" clip-path="url(#p7d3951f6a5)" style="fill: #eeeeee; stroke: #000000; stroke-width: 0.3"/>
    <path d="M 45.977866 50.130595 
L 46.577933 50.130595 
L 46.220873 49.540279 
L 47.729185 51.124067 
z
" clip-path="url(#p7d3951f6a5)" style="fill: #eeeeee; stroke: #000000; stroke-width: 0.3"/>
    <path d="M 69.185669 74.630749 
L 69.782907 74.49819 
L 72.886673 75.80544 
z
" clip-path="url(#p7d3951f6a5)" style="fill: #eeeeee; stroke: #000000; stroke-width: 0.3"/>
    <path d="M 64.80737 75.299022 
L 65.680201 74.797571 
L 65.813388 75.0617 
z
" clip-path="url(#p7d3951f6a5)" style="fill: #eeeeee; stroke: #000000; stroke-width: 0.3"/>
    <path d="M 63.16091 72.290811 
L 68.110225 73.033051 
L 65.073753 73.290238 
z
" clip-path="url(#p7d3951f6a5)" style="fill: #eeeeee; stroke: #000000; stroke-width: 0.3"/>
    <path d="M 60.896666 69.693186 
L 68.050714 70.525791 
L 65.873256 70.525791 
z
" clip-path="url(#p7d3951f6a5)" style="fill: #eeeeee; stroke: #000000; stroke-width: 0.3"/>
    <path d="M 59.502406 66.099112 
L 59.963619 65.820585 
L 60.928546 66.097623 
z
" clip-path="url(#p7d3951f6a5)" style="fill: #eeeeee; stroke: #000000; stroke-width: 0.3"/>
    <path d="M 59.406766 67.111948 
L 60.073431 67.052367 
L 60.696873 67.946054 
z
" clip-path="url(#p7d3951f6a5)" style="fill: #eeeeee; stroke: #000000; stroke-width: 0.3"/>
    <path d="M 54.212319 63.846062 
L 55.401833 64.421981 
L 54.806719 64.300842 
z
" clip-path="url(#p7d3951f6a5)" style="fill: #eeeeee; stroke: #000000; stroke-width: 0.3"/>
    <path d="M 51.230405 59.742092 
L 52.839327 61.249425 
L 52.078433 60.86068 
z
" clip-path="url(#p7d3951f6a5)" style="fill: #eeeeee; stroke: #000000; stroke-width: 0.3"/>
    <path d="M 50.939229 61.408803 
L 51.275039 61.621796 
L 52.400784 62.653996 
z
" clip-path="url(#p7d3951f6a5)" style="fill: #eeeeee; stroke: #000000; stroke-width: 0.3"/>
    <path d="M 47.647004 57.734296 
L 49.020005 58.742166 
L 50.649464 61.431145 
z
" clip-path="url(#p7d3951f6a5)" style="fill: #eeeeee; stroke: #000000; stroke-width: 0.3"/>
    <path d="M 47.410378 57.818707 
L 47.817033 58.162269 
L 47.453592 57.950277 
z
" clip-path="url(#p7d3951f6a5)" style="fill: #eeeeee; stroke: #000000; stroke-width: 0.3"/>
    <path d="M 46.833694 55.435563 
L 46.89674 54.808995 
L 47.243179 54.929145 
z
" clip-path="url(#p7d3951f6a5)" style="fill: #eeeeee; stroke: #000000; stroke-width: 0.3"/>
    <path d="M 46.767096 56.684233 
L 47.142577 56.551674 
L 47.125575 56.620186 
z
" clip-path="url(#p7d3951f6a5)" style="fill: #eeeeee; stroke: #000000; stroke-width: 0.3"/>
    <path d="M 46.637444 51.296855 
L 51.170894 55.728 
L 50.077028 56.070074 
z
" clip-path="url(#p7d3951f6a5)" style="fill: #eeeeee; stroke: #000000; stroke-width: 0.3"/>
    <path d="M 45.430937 55.641612 
L 45.853176 55.902264 
L 46.008335 56.110791 
z
" clip-path="url(#p7d3951f6a5)" style="fill: #eeeeee; stroke: #000000; stroke-width: 0.3"/>
    <path d="M 43.173771 51.131022 
L 44.902421 53.970435 
L 43.411112 52.880143 
z
" clip-path="url(#p7d3951f6a5)" style="fill: #eeeeee; stroke: #000000; stroke-width: 0.3"/>
    <path d="M 42.275442 52.238189 
L 42.692022 51.609632 
L 42.611251 52.403021 
z
" clip-path="url(#p7d3951f6a5)" style="fill: #eeeeee; stroke: #000000; stroke-width: 0.3"/>
    <path d="M 34.724795 31.931467 
L 37.647172 29.131868 
L 44.954472 30.85356 
L 47.653708 28.138774 
L 49.495496 27.547957 
L 52.983814 27.973893 
L 54.492683 26.718171 
L 56.362363 26.633674 
L 57.807316 27.290087 
L 57.417767 25.460557 
L 58.480362 24.946355 
L 60.493998 25.231044 
L 60.93847 27.797652 
L 62.021767 28.826058 
L 59.959545 29.178527 
L 60.061217 30.9204 
L 58.166352 30.867116 
L 57.828949 31.827424 
L 54.525973 32.939691 
L 54.091399 34.088539 
L 55.032533 35.031825 
L 54.841785 37.405172 
L 51.176221 38.847848 
L 52.210027 39.863637 
L 51.294086 40.334023 
L 51.787144 42.149973 
L 50.168507 42.428037 
L 48.282634 41.392066 
L 47.190344 41.99927 
L 45.308067 39.526932 
L 43.495982 41.844797 
L 37.141978 42.069491 
L 36.495101 41.095529 
L 39.333748 39.965789 
L 36.60527 37.801152 
L 36.81941 35.651646 
L 35.565162 35.395642 
L 37.093827 33.272626 
L 35.115283 32.935908 
z
" clip-path="url(#p7d3951f6a5)" style="fill: #eeeeee; stroke: #000000; stroke-width: 0.3"/>
    <path d="M 112.898854 80.455825 
L 114.536392 78.696943 
L 113.597956 77.290518 
L 114.099119 75.327025 
L 113.61595 74.352844 
L 116.224317 73.458743 
L 118.438599 69.650602 
L 114.412233 66.292033 
L 112.937542 62.220653 
L 113.373926 59.958281 
L 115.057351 59.096966 
L 115.916357 57.089682 
L 118.870475 58.741336 
L 117.607234 59.943774 
L 117.632428 61.835069 
L 122.820363 61.3338 
L 139.521466 64.146943 
L 142.812289 63.146906 
L 146.029786 59.725608 
L 153.662335 57.716713 
L 156.764666 59.692822 
L 158.937553 59.51375 
L 159.705942 60.502427 
L 161.363276 59.958281 
L 161.963404 61.715273 
L 164.054868 62.781198 
L 167.163858 63.033809 
L 167.006574 66.540995 
L 166.247813 67.602479 
L 164.928656 66.852785 
L 163.163173 67.30111 
L 162.281846 69.238906 
L 161.292831 69.609776 
L 161.19081 75.610812 
L 159.801521 75.562164 
L 158.893981 76.605772 
L 159.083136 77.471151 
L 157.365821 78.421929 
L 159.682498 79.220272 
L 160.00343 81.126295 
L 162.27476 84.615105 
L 160.491421 84.344985 
L 158.179967 85.486267 
L 155.802838 83.160837 
L 153.828342 83.268346 
L 152.891256 84.326389 
L 149.990469 84.677907 
L 149.29767 86.42482 
L 147.626833 86.84823 
L 147.619643 87.781743 
L 145.184926 87.922342 
L 146.246624 91.21218 
L 143.690447 92.772139 
L 138.093568 93.54265 
L 135.022734 91.593653 
L 134.04831 92.234912 
L 132.359479 91.10688 
L 131.74765 89.628904 
L 127.973215 89.941645 
L 127.608816 90.975102 
L 123.932449 91.954957 
L 117.878056 92.38498 
L 118.677933 87.453542 
L 117.192447 84.042639 
L 114.518397 82.704958 
z
" clip-path="url(#p7d3951f6a5)" style="fill: #eeeeee; stroke: #000000; stroke-width: 0.3"/>
    <path d="M 26.283801 60.506466 
L 27.036886 60.089681 
L 27.003169 60.889244 
z
" clip-path="url(#p7d3951f6a5)" style="fill: #eeeeee; stroke: #000000; stroke-width: 0.3"/>
    <path d="M 78.847038 72.637461 
L 80.63573 71.831638 
L 80.856173 69.233501 
L 82.221983 67.913146 
L 83.712866 68.819547 
L 84.384981 68.310396 
L 82.957082 66.092157 
L 83.582404 65.413696 
L 85.479072 65.577637 
L 85.452076 66.532588 
L 88.985385 69.928666 
L 91.867272 70.688781 
L 95.562531 73.408923 
L 94.080649 75.220468 
L 92.71483 75.211951 
L 93.388747 76.311297 
L 92.325247 78.048119 
L 90.755186 78.568313 
L 90.065077 76.39705 
L 89.191429 76.898332 
L 86.171871 81.946417 
L 87.021231 83.008243 
L 86.956732 86.081733 
L 85.260675 85.037124 
L 82.786018 80.810528 
L 81.850847 80.967917 
L 79.818981 79.112043 
L 81.170723 79.485402 
L 81.056662 78.388167 
L 79.39461 79.20042 
L 78.880328 77.456985 
L 79.861046 76.128748 
z
" clip-path="url(#p7d3951f6a5)" style="fill: #eeeeee; stroke: #000000; stroke-width: 0.3"/>
    <path d="M 55.297958 50.492631 
L 55.854001 45.359414 
L 57.839744 45.064951 
L 60.414821 47.660246 
L 62.266498 44.963433 
L 64.728211 45.46408 
L 65.708929 44.203635 
L 67.996086 45.862586 
L 72.328367 45.674681 
L 73.642901 46.8891 
L 77.143816 45.754138 
L 79.574032 46.993766 
L 80.976736 46.609145 
L 82.817619 49.369016 
L 85.405292 48.559399 
L 86.987941 49.05248 
L 84.711588 55.207172 
L 89.101448 59.211722 
L 88.379851 60.155009 
L 86.15298 59.725608 
L 85.775088 60.393344 
L 87.797717 62.779307 
L 88.040646 65.19143 
L 86.7954 64.649798 
L 83.003866 65.889121 
L 84.384981 68.310396 
L 83.712866 68.819547 
L 82.221983 67.913146 
L 80.856173 69.233501 
L 80.63573 71.831638 
L 79.014385 72.159192 
L 78.943304 74.31059 
L 79.861046 76.128748 
L 79.357193 77.389205 
L 75.032112 75.245689 
L 73.434159 73.178458 
L 71.211867 72.874673 
L 72.136722 72.497166 
L 71.838008 71.510368 
L 68.891333 68.376285 
L 68.722184 66.426654 
L 66.632975 65.386266 
L 60.507492 58.871857 
L 58.675611 53.514166 
L 57.71468 53.275831 
L 57.908127 52.254356 
z
" clip-path="url(#p7d3951f6a5)" style="fill: #eeeeee; stroke: #000000; stroke-width: 0.3"/>
    <path d="M 26.783301 85.452701 
L 26.791589 85.453347 
L 26.792041 85.466891 
z
" clip-path="url(#p7d3951f6a5)" style="fill: #eeeeee; stroke: #000000; stroke-width: 0.3"/>
   </g>
   <g id="PatchCollection_2">
    <path d="M 35.959507 41.429172 
L 39.284265 42.506225 
L 40.005862 41.400888 
L 43.495982 41.844797 
L 45.308067 39.526932 
L 47.190344 41.99927 
L 48.282634 41.392066 
L 50.168507 42.428037 
L 51.787144 42.149973 
L 51.294086 40.334023 
L 52.210027 39.863637 
L 51.176221 38.847848 
L 54.841785 37.405172 
L 55.032533 35.031825 
L 54.091399 34.088539 
L 54.525973 32.939691 
L 57.828949 31.827424 
L 58.166352 30.867116 
L 60.061217 30.9204 
L 59.706717 29.454077 
L 60.65775 28.79958 
L 64.954042 30.814148 
L 68.893135 35.661102 
L 71.513202 36.251919 
L 73.837245 38.258922 
L 78.593305 38.623996 
L 80.780591 36.601228 
L 82.919291 36.313074 
L 82.428923 37.72233 
L 83.504124 39.515584 
L 82.939088 40.68271 
L 84.703492 41.432417 
L 83.862228 41.590685 
L 83.582526 43.145934 
L 87.328948 45.196741 
L 84.839351 45.286277 
L 84.169039 46.000673 
L 84.924823 48.246646 
L 82.817619 49.369016 
L 81.028021 46.640674 
L 79.574032 46.993766 
L 77.143816 45.754138 
L 73.642901 46.8891 
L 72.328367 45.674681 
L 67.996086 45.862586 
L 65.708929 44.203635 
L 64.728211 45.46408 
L 62.266498 44.963433 
L 60.414821 47.660246 
L 57.839744 45.064951 
L 55.854001 45.359414 
L 55.297958 50.492631 
L 57.908127 52.254356 
L 57.71468 53.275831 
L 58.675611 53.514166 
L 60.507492 58.871857 
L 66.632975 65.386266 
L 68.722184 66.426654 
L 68.891333 68.376285 
L 71.838008 71.510368 
L 71.891094 72.683803 
L 70.856227 72.580259 
L 70.737204 71.700482 
L 65.328095 67.125358 
L 61.069524 65.845903 
L 61.438641 65.37077 
L 57.309008 65.929314 
L 57.230371 63.677252 
L 55.104981 62.763713 
L 50.214472 57.492019 
L 50.180468 56.430523 
L 51.526543 56.81828 
L 51.230405 55.818854 
L 52.651583 56.607277 
L 53.558408 56.560605 
L 49.020005 52.925326 
L 47.944561 51.047611 
L 48.273989 48.177914 
L 47.674636 46.532555 
L 45.21981 44.09232 
L 42.962652 43.478173 
L 41.568401 47.950035 
L 40.850016 48.291121 
L 40.980374 47.841294 
L 40.60135 47.19984 
L 40.250663 49.956331 
L 39.294233 49.7071 
L 39.536527 50.380827 
L 39.407588 50.452329 
L 36.970478 46.783788 
L 37.867397 46.034081 
L 36.733146 45.901022 
L 36.851455 43.76911 
z
" clip-path="url(#p7d3951f6a5)" style="fill: #ff6b6b; stroke: #dd0000; stroke-width: 0.5"/>
    <path d="M 66.381575 71.450251 
L 72.822209 74.039932 
L 72.054942 73.409387 
L 73.434159 73.178458 
L 73.84084 74.311859 
L 78.880328 77.456985 
L 79.39461 79.20042 
L 74.139946 74.630749 
L 72.643674 74.19881 
L 73.000029 74.778707 
L 72.885263 74.860128 
L 68.229248 72.290811 
L 66.769104 72.138876 
z
" clip-path="url(#p7d3951f6a5)" style="fill: #ff6b6b; stroke: #dd0000; stroke-width: 0.5"/>
    <path d="M 42.67502 46.292256 
L 42.981073 45.571357 
L 44.372495 48.024002 
L 44.724601 51.797306 
L 43.975756 51.865819 
L 42.81175 48.790083 
L 43.83194 48.20771 
z
" clip-path="url(#p7d3951f6a5)" style="fill: #ff6b6b; stroke: #dd0000; stroke-width: 0.5"/>
    <path d="M 43.950954 46.609511 
L 44.865579 46.030115 
L 45.028531 44.640443 
L 47.345199 47.950035 
L 46.548177 48.366588 
z
" clip-path="url(#p7d3951f6a5)" style="fill: #ff6b6b; stroke: #dd0000; stroke-width: 0.5"/>
    <path d="M 61.194214 68.019032 
L 61.372748 67.269838 
L 65.430116 68.269264 
L 61.334496 68.203729 
z
" clip-path="url(#p7d3951f6a5)" style="fill: #ff6b6b; stroke: #dd0000; stroke-width: 0.5"/>
    <path d="M 58.086904 71.283429 
L 58.795365 70.999448 
L 59.761711 71.200519 
L 58.420589 71.938793 
z
" clip-path="url(#p7d3951f6a5)" style="fill: #ff6b6b; stroke: #dd0000; stroke-width: 0.5"/>
    <path d="M 49.500345 57.901117 
L 50.921513 59.068853 
L 51.170894 59.658682 
L 50.016812 58.751598 
z
" clip-path="url(#p7d3951f6a5)" style="fill: #ff6b6b; stroke: #dd0000; stroke-width: 0.5"/>
    <path d="M 45.977866 50.130595 
L 46.577933 50.130595 
L 46.220873 49.540279 
L 47.729185 51.124067 
z
" clip-path="url(#p7d3951f6a5)" style="fill: #ff6b6b; stroke: #dd0000; stroke-width: 0.5"/>
    <path d="M 69.185669 74.630749 
L 69.782907 74.49819 
L 72.886673 75.80544 
z
" clip-path="url(#p7d3951f6a5)" style="fill: #ff6b6b; stroke: #dd0000; stroke-width: 0.5"/>
    <path d="M 64.80737 75.299022 
L 65.680201 74.797571 
L 65.813388 75.0617 
z
" clip-path="url(#p7d3951f6a5)" style="fill: #ff6b6b; stroke: #dd0000; stroke-width: 0.5"/>
    <path d="M 63.16091 72.290811 
L 68.110225 73.033051 
L 65.073753 73.290238 
z
" clip-path="url(#p7d3951f6a5)" style="fill: #ff6b6b; stroke: #dd0000; stroke-width: 0.5"/>
    <path d="M 60.896666 69.693186 
L 68.050714 70.525791 
L 65.873256 70.525791 
z
" clip-path="url(#p7d3951f6a5)" style="fill: #ff6b6b; stroke: #dd0000; stroke-width: 0.5"/>
    <path d="M 59.502406 66.099112 
L 59.963619 65.820585 
L 60.928546 66.097623 
z
" clip-path="url(#p7d3951f6a5)" style="fill: #ff6b6b; stroke: #dd0000; stroke-width: 0.5"/>
    <path d="M 59.406766 67.111948 
L 60.073431 67.052367 
L 60.696873 67.946054 
z
" clip-path="url(#p7d3951f6a5)" style="fill: #ff6b6b; stroke: #dd0000; stroke-width: 0.5"/>
    <path d="M 54.212319 63.846062 
L 55.401833 64.421981 
L 54.806719 64.300842 
z
" clip-path="url(#p7d3951f6a5)" style="fill: #ff6b6b; stroke: #dd0000; stroke-width: 0.5"/>
    <path d="M 51.230405 59.742092 
L 52.839327 61.249425 
L 52.078433 60.86068 
z
" clip-path="url(#p7d3951f6a5)" style="fill: #ff6b6b; stroke: #dd0000; stroke-width: 0.5"/>
    <path d="M 50.939229 61.408803 
L 51.275039 61.621796 
L 52.400784 62.653996 
z
" clip-path="url(#p7d3951f6a5)" style="fill: #ff6b6b; stroke: #dd0000; stroke-width: 0.5"/>
    <path d="M 47.647004 57.734296 
L 49.020005 58.742166 
L 50.649464 61.431145 
z
" clip-path="url(#p7d3951f6a5)" style="fill: #ff6b6b; stroke: #dd0000; stroke-width: 0.5"/>
    <path d="M 47.410378 57.818707 
L 47.817033 58.162269 
L 47.453592 57.950277 
z
" clip-path="url(#p7d3951f6a5)" style="fill: #ff6b6b; stroke: #dd0000; stroke-width: 0.5"/>
    <path d="M 46.833694 55.435563 
L 46.89674 54.808995 
L 47.243179 54.929145 
z
" clip-path="url(#p7d3951f6a5)" style="fill: #ff6b6b; stroke: #dd0000; stroke-width: 0.5"/>
    <path d="M 46.767096 56.684233 
L 47.142577 56.551674 
L 47.125575 56.620186 
z
" clip-path="url(#p7d3951f6a5)" style="fill: #ff6b6b; stroke: #dd0000; stroke-width: 0.5"/>
    <path d="M 46.637444 51.296855 
L 51.170894 55.728 
L 50.077028 56.070074 
z
" clip-path="url(#p7d3951f6a5)" style="fill: #ff6b6b; stroke: #dd0000; stroke-width: 0.5"/>
    <path d="M 45.430937 55.641612 
L 45.853176 55.902264 
L 46.008335 56.110791 
z
" clip-path="url(#p7d3951f6a5)" style="fill: #ff6b6b; stroke: #dd0000; stroke-width: 0.5"/>
    <path d="M 43.173771 51.131022 
L 44.902421 53.970435 
L 43.411112 52.880143 
z
" clip-path="url(#p7d3951f6a5)" style="fill: #ff6b6b; stroke: #dd0000; stroke-width: 0.5"/>
    <path d="M 42.275442 52.238189 
L 42.692022 51.609632 
L 42.611251 52.403021 
z
" clip-path="url(#p7d3951f6a5)" style="fill: #ff6b6b; stroke: #dd0000; stroke-width: 0.5"/>
   </g>
  </g>
 </g>
 <defs>
  <clipPath id="p7d3951f6a5">
   <rect x="0" y="0" width="123.288455" height="108"/>
  </clipPath>
 </defs>
</svg>
