<?xml version="1.0" encoding="utf-8" standalone="no"?>
<!DOCTYPE svg PUBLIC "-//W3C//DTD SVG 1.1//EN"
  "http://www.w3.org/Graphics/SVG/1.1/DTD/svg11.dtd">
<svg xmlns:xlink="http://www.w3.org/1999/xlink" width="172.37057pt" height="108pt" viewBox="0 0 172.37057 108" xmlns="http://www.w3.org/2000/svg" version="1.1">
 <metadata>
  <rdf:RDF xmlns:dc="http://purl.org/dc/elements/1.1/" xmlns:cc="http://creativecommons.org/ns#" xmlns:rdf="http://www.w3.org/1999/02/22-rdf-syntax-ns#">
   <cc:Work>
    <dc:type rdf:resource="http://purl.org/dc/dcmitype/StillImage"/>
    <dc:date>2025-09-05T15:49:27.764676</dc:date>
    <dc:format>image/svg+xml</dc:format>
    <dc:creator>
     <cc:Agent>
      <dc:title>Matplotlib v3.10.3, https://matplotlib.org/</dc:title>
     </cc:Agent>
    </dc:creator>
   </cc:Work>
  </rdf:RDF>
 </metadata>
 <defs>
  <style type="text/css">*{stroke-linejoin: round; stroke-linecap: butt}</style>
 </defs>
 <g id="figure_1">
  <g id="patch_1">
   <path d="M 0 108 
L 172.37057 108 
L 172.37057 0 
L 0 0 
z
" style="fill: #ffffff"/>
  </g>
  <g id="axes_1">
   <g id="PatchCollection_1">
    <path d="M 126.185118 11.300873 
L 126.880918 10.501571 
L 126.798083 9.714446 
L 127.059103 9.378318 
L 128.431373 9.360235 
L 128.861003 9.694517 
L 130.104975 9.018112 
L 130.035333 5.811116 
L 130.944355 3.065177 
L 130.779058 1.844123 
L 131.830857 0.706294 
L 132.470698 1.420529 
L 132.77037 1.259798 
L 133.197054 0.637464 
L 133.146986 -0.611732 
L 133.606067 -1.667719 
L 133.604595 -2.631533 
L 134.476002 -3.363024 
L 135.795076 -5.632405 
L 137.317369 -5.784462 
L 137.395417 -6.965103 
L 138.301432 -8.989519 
L 138.782602 -11.361225 
L 139.57228 -11.606008 
L 140.684086 -11.408743 
L 140.900926 -11.922942 
L 141.516103 -12.053684 
L 142.441994 -10.796925 
L 143.645103 -13.560948 
L 144.05559 -13.006983 
L 144.848581 -12.847452 
L 145.552112 -11.909933 
L 147.116743 -12.183041 
L 147.628468 -12.745684 
L 148.047789 -12.570655 
L 148.335314 -11.99205 
L 149.428348 -12.447847 
L 150.77209 -11.943425 
L 151.528263 -12.084134 
L 154.12371 -10.798586 
L 155.401921 -9.048478 
L 157.25334 -7.734602 
L 158.089771 -6.407074 
L 158.938722 -5.89601 
L 159.631577 -4.942069 
L 157.540495 -2.22298 
L 157.429683 0.306136 
L 158.057374 0.543167 
L 160.472798 -0.027592 
L 161.570245 0.296909 
L 160.585452 1.605893 
L 161.258794 3.120444 
L 162.083078 4.140172 
L 162.508843 4.280138 
L 163.334598 5.959574 
L 164.055799 6.231389 
L 165.349843 7.404742 
L 176.016203 11.017616 
L 179.578038 11.017616 
L 174.038142 16.373403 
L 168.757791 22.034222 
L 165.293516 21.882536 
L 163.724468 22.283894 
L 162.266783 22.976168 
L 161.242227 24.209495 
L 158.646413 24.60384 
L 157.695487 25.469575 
L 155.298472 25.49375 
L 153.876315 24.27159 
L 150.615993 25.762984 
L 149.390426 27.419719 
L 145.844791 26.535989 
L 144.394655 26.672267 
L 140.525414 23.965726 
L 137.054881 23.704705 
L 136.695567 23.47487 
L 136.022962 22.238222 
L 136.20998 20.582501 
L 135.017181 20.179943 
L 134.369607 20.382283 
L 134.278675 19.890227 
L 133.696999 19.495329 
L 133.254485 18.63605 
L 132.289567 15.701426 
L 131.652672 15.458764 
L 131.57757 14.969015 
L 130.783475 14.647374 
L 130.429684 13.979182 
L 129.903231 13.682638 
L 129.806778 13.112433 
L 128.772094 12.229628 
L 126.4292 11.726774 
z
" clip-path="url(#pc4db6a36e1)" style="fill: #eeeeee; stroke: #000000; stroke-width: 0.3"/>
    <path d="M 94.651556 9.438199 
L 95.055414 8.935534 
L 94.793293 8.47051 
L 96.151946 7.838852 
L 96.585807 6.1012 
L 96.985982 5.576113 
L 96.999789 4.510345 
L 97.640552 3.980091 
L 97.99913 2.839123 
L 100.676119 2.365336 
L 100.950205 3.216216 
L 103.516016 5.718018 
L 105.135499 5.267482 
L 108.037429 5.308265 
L 108.571872 6.251001 
L 111.416994 6.275504 
L 111.666309 5.5453 
L 113.694029 4.714531 
L 114.15992 4.168957 
L 114.165441 3.655865 
L 115.581525 2.897622 
L 118.261275 4.848041 
L 119.682883 4.706225 
L 121.465455 3.098483 
L 122.455959 1.522576 
L 124.19362 -0.000928 
L 123.901678 -0.805769 
L 123.900203 -2.218366 
L 122.952224 -3.277675 
L 125.319047 -3.288102 
L 125.266033 -4.050223 
L 126.966696 -4.029555 
L 126.517924 -1.846994 
L 126.72022 1.22446 
L 127.579661 1.557453 
L 129.487774 3.240299 
L 129.688233 4.381817 
L 129.361133 5.65177 
L 130.035333 5.811116 
L 130.181919 8.767975 
L 129.679399 9.414949 
L 128.899658 9.688425 
L 128.431373 9.360235 
L 127.059103 9.378318 
L 126.798083 9.714446 
L 126.880918 10.501571 
L 126.185118 11.300873 
L 126.4292 11.726774 
L 128.772094 12.229628 
L 129.806778 13.112433 
L 129.903231 13.682638 
L 130.429684 13.979182 
L 130.783475 14.647374 
L 131.57757 14.969015 
L 131.652672 15.458764 
L 132.289567 15.701426 
L 133.254485 18.63605 
L 133.696999 19.495329 
L 134.278675 19.890227 
L 134.369607 20.382283 
L 135.017181 20.179943 
L 136.20998 20.582501 
L 136.022962 22.238222 
L 136.625618 23.077475 
L 135.979345 22.85681 
L 135.840293 23.185392 
L 135.520691 23.07504 
L 135.205588 22.502096 
L 135.378904 22.059829 
L 134.756545 21.980855 
L 134.81169 21.609667 
L 134.220845 21.783414 
L 131.141315 23.074526 
L 127.969165 26.182703 
L 126.807287 26.135185 
L 126.211623 25.697843 
L 125.353838 26.11387 
L 123.983773 26.249412 
L 123.328287 26.649016 
L 123.257787 27.030813 
L 122.410126 26.723292 
L 121.868209 25.944562 
L 120.962931 26.517167 
L 119.601337 26.056389 
L 118.899463 26.434311 
L 118.525789 27.109516 
L 118.195929 26.450091 
L 117.506757 26.701331 
L 117.40625 25.762059 
L 116.209771 25.445864 
L 115.287189 24.186887 
L 114.779514 23.972093 
L 114.811174 23.303529 
L 113.879024 22.929757 
L 113.603278 22.898204 
L 112.761508 24.072479 
L 111.10208 23.310818 
L 109.68434 24.278971 
L 108.588364 23.792357 
L 108.461167 23.324937 
L 107.600621 23.161439 
L 107.529936 22.512069 
L 106.682089 21.995099 
L 105.791173 20.789179 
L 105.779023 19.655596 
L 105.290121 18.973006 
L 104.204083 18.523487 
L 104.052407 18.211902 
L 102.800335 17.888508 
L 103.100007 17.413521 
L 102.249585 16.484398 
L 102.633563 15.81436 
L 101.611952 15.182149 
L 101.38002 14.58814 
L 99.007486 13.377974 
L 98.403355 12.786547 
L 98.313527 12.505504 
L 98.720331 12.221322 
L 98.4976 11.490757 
L 97.935807 11.376348 
L 97.013228 10.361602 
L 94.707515 9.870192 
z
" clip-path="url(#pc4db6a36e1)" style="fill: #eeeeee; stroke: #000000; stroke-width: 0.3"/>
    <path d="M 154.645743 42.682328 
L 154.645743 29.424573 
L 155.938683 28.141703 
L 158.007306 25.037122 
L 158.523451 24.665749 
L 161.242227 24.209495 
L 162.266783 22.976168 
L 165.162821 21.913814 
L 168.757791 22.034222 
L 174.191481 16.22501 
L 179.578038 11.017616 
L 182.997402 5.823111 
L 182.997406 -0.597048 
L 187.732118 -1.811774 
L 189.060062 -3.115562 
L 189.618378 -3.239494 
L 191.381003 -2.682391 
L 190.628024 -0.926887 
L 190.644549 -0.378664 
L 191.01342 -0.201303 
L 190.748325 0.316309 
L 190.910659 1.726461 
L 190.374381 2.313625 
L 191.123431 2.285001 
L 190.965735 1.853743 
L 191.746024 2.152948 
L 191.754345 2.450156 
L 190.659335 2.409019 
L 190.079753 2.692797 
L 189.734034 5.935988 
L 188.342608 7.833767 
L 187.100759 10.430303 
L 186.150239 11.241378 
L 185.864997 12.472805 
L 184.095277 15.252568 
L 183.343035 17.632169 
L 179.468783 23.656798 
L 172.697752 30.805918 
L 167.363368 34.005454 
L 164.189177 36.698469 
L 158.179951 43.142877 
L 158.111831 42.766837 
L 157.871809 43.89234 
L 157.671212 43.74675 
L 157.697881 44.08036 
L 156.623872 45.630146 
L 156.580365 45.189022 
z
" clip-path="url(#pc4db6a36e1)" style="fill: #eeeeee; stroke: #000000; stroke-width: 0.3"/>
    <path d="M 129.40439 39.180634 
L 130.086937 38.333632 
L 130.316294 37.417239 
L 131.165612 36.659549 
L 131.518298 35.707361 
L 132.62569 35.17369 
L 132.558317 34.614372 
L 133.248226 33.665598 
L 133.368613 32.727802 
L 132.866827 31.19 
L 133.073358 30.726451 
L 132.902536 30.319744 
L 131.329438 28.209979 
L 131.141682 27.157127 
L 131.349688 26.475555 
L 130.326602 26.090252 
L 130.513621 25.737055 
L 130.085466 25.727089 
L 129.701854 24.504561 
L 131.141315 23.074526 
L 134.81169 21.609667 
L 134.756545 21.980855 
L 135.378904 22.059829 
L 135.205588 22.502096 
L 135.520691 23.07504 
L 135.979345 22.85681 
L 136.625618 23.077475 
L 137.054881 23.704705 
L 140.525414 23.965726 
L 144.394655 26.672267 
L 145.844791 26.535989 
L 149.390426 27.419719 
L 150.615993 25.762984 
L 153.876315 24.27159 
L 155.298472 25.49375 
L 157.870356 25.370389 
L 155.938683 28.141703 
L 154.594571 29.523666 
L 154.645743 42.682328 
L 156.580365 45.189022 
L 156.623872 45.630146 
L 155.724953 46.602213 
L 155.497979 46.437732 
L 154.764 46.866079 
L 154.73965 46.363918 
L 154.523109 46.975928 
L 154.222792 46.584194 
L 154.643991 47.579218 
L 154.521371 47.819256 
L 154.230041 47.540859 
L 153.912619 47.711732 
L 154.065677 48.135433 
L 153.473162 48.640501 
L 152.904416 48.60185 
L 151.982596 49.103722 
L 151.735037 50.050796 
L 151.985496 50.220797 
L 151.593577 51.240232 
L 151.117014 51.618308 
L 151.034976 51.432613 
L 150.678422 52.486918 
L 150.375498 52.308779 
L 150.68219 52.767061 
L 150.394922 53.560696 
L 150.02938 53.560696 
L 150.248532 53.744648 
L 150.085329 54.029437 
L 149.946473 53.752201 
L 149.5905 53.998634 
L 149.965605 54.256687 
L 149.004941 56.102599 
L 148.664042 55.981127 
L 148.272704 56.275796 
L 143.215843 52.626063 
L 142.992745 52.168052 
L 142.603612 52.118966 
L 142.554281 51.760234 
L 142.963294 51.408145 
L 142.766704 50.449683 
L 129.442308 43.152887 
L 129.617918 40.123966 
z
" clip-path="url(#pc4db6a36e1)" style="fill: #eeeeee; stroke: #000000; stroke-width: 0.3"/>
    <path d="M 154.608335 47.142444 
L 154.910101 46.891651 
L 155.271001 47.114834 
L 154.695299 47.418805 
z
" clip-path="url(#pc4db6a36e1)" style="fill: #eeeeee; stroke: #000000; stroke-width: 0.3"/>
    <path d="M 125.022136 88.12426 
L 125.555582 87.881045 
L 126.214936 86.717751 
L 126.269791 85.699315 
L 126.011721 85.173025 
L 126.309918 84.611679 
L 127.469587 84.326023 
L 128.099119 83.693811 
L 127.466274 83.594904 
L 127.121688 82.922095 
L 127.339999 81.610436 
L 127.278518 80.97269 
L 126.978846 80.866402 
L 127.041798 80.340483 
L 127.6139 79.441438 
L 127.049899 78.436104 
L 128.005978 78.028658 
L 128.622997 77.342565 
L 128.121026 76.10767 
L 127.304657 75.509783 
L 127.44492 74.680124 
L 126.846313 73.861907 
L 126.174809 73.95528 
L 125.994416 73.109752 
L 126.837476 73.536021 
L 127.291035 73.468852 
L 127.785088 73.930551 
L 128.838177 73.796952 
L 129.469551 74.274892 
L 129.828866 73.416077 
L 130.916008 74.27932 
L 131.694274 75.4356 
L 131.853312 77.20933 
L 132.18796 77.968869 
L 131.968912 79.217787 
L 132.510457 80.085458 
L 132.941558 80.193596 
L 133.219513 80.901093 
L 131.980324 80.918069 
L 131.791831 81.820068 
L 131.061425 82.975241 
L 131.544806 84.878513 
L 131.725933 87.158046 
L 132.065365 87.75298 
L 132.857989 87.836758 
L 133.645092 88.509563 
L 136.363498 91.888356 
L 136.566716 92.732781 
L 136.138928 93.750295 
L 136.339568 94.626454 
L 136.142241 96.858562 
L 135.178428 97.319525 
L 134.679958 97.211019 
L 133.815544 98.627495 
L 134.450601 99.745024 
L 134.431825 100.650711 
L 134.181851 100.761799 
L 133.580666 100.67064 
L 133.766947 99.683761 
L 133.008931 99.353079 
L 131.302562 97.685638 
L 131.224517 96.920935 
L 130.614124 96.314192 
L 131.796619 94.198339 
L 131.570945 91.621523 
L 131.009149 90.949085 
L 129.964345 91.33402 
L 128.787557 91.314462 
L 128.51844 91.714527 
L 127.219613 89.782838 
L 126.721142 89.297888 
L 126.220827 89.745932 
L 125.773159 88.92513 
L 125.377401 88.770123 
L 125.401698 88.304731 
z
" clip-path="url(#pc4db6a36e1)" style="fill: #eeeeee; stroke: #000000; stroke-width: 0.3"/>
    <path d="M 132.119853 82.696227 
L 132.256066 82.425333 
L 132.499045 82.567795 
L 132.237661 82.868581 
z
" clip-path="url(#pc4db6a36e1)" style="fill: #eeeeee; stroke: #000000; stroke-width: 0.3"/>
    <path d="M 131.721516 82.464456 
L 132.018613 82.378464 
L 131.960445 82.682943 
z
" clip-path="url(#pc4db6a36e1)" style="fill: #eeeeee; stroke: #000000; stroke-width: 0.3"/>
    <path d="M 113.126526 57.142317 
L 113.412947 55.4627 
L 114.583658 55.511047 
L 115.545997 54.827539 
L 116.645656 53.106217 
L 116.894526 53.100678 
L 117.075104 52.256258 
L 118.384055 51.266054 
L 118.499651 50.902526 
L 118.475725 50.209052 
L 117.275192 50.083938 
L 117.016384 49.755837 
L 117.396679 49.033578 
L 117.003314 49.107761 
L 117.34514 48.369629 
L 118.507384 47.947788 
L 118.697715 47.009252 
L 118.374113 46.462297 
L 118.495419 45.265418 
L 118.162428 44.595934 
L 117.513383 44.280753 
L 117.248683 43.354765 
L 117.810112 43.405698 
L 118.303428 43.093099 
L 129.783582 43.152887 
L 142.766704 50.449683 
L 142.963294 51.408145 
L 142.554281 51.760234 
L 142.603612 52.118966 
L 142.992745 52.168052 
L 143.215843 52.626063 
L 148.35996 56.315609 
L 148.35445 56.914542 
L 147.980794 57.129587 
L 147.894699 57.598039 
L 148.102253 57.769786 
L 146.806777 61.194248 
L 147.29117 62.557756 
L 147.739322 62.677193 
L 148.591283 63.594918 
L 148.592153 63.963984 
L 149.248443 64.061045 
L 149.566153 64.571923 
L 149.544122 64.991554 
L 148.761443 65.673601 
L 148.493594 67.509336 
L 148.761443 67.162938 
L 149.173654 67.542467 
L 149.212206 68.177435 
L 148.591283 69.244528 
L 148.855944 70.689692 
L 149.566153 71.433638 
L 149.194524 71.206388 
L 148.978272 71.349942 
L 149.345844 71.491176 
L 149.369613 72.154622 
L 149.62123 72.043324 
L 149.887048 72.386233 
L 149.61485 73.309189 
L 149.91169 73.299308 
L 150.232877 74.092071 
L 150.076342 74.37105 
L 150.445649 74.652935 
L 150.054311 75.436982 
L 150.539281 75.247509 
L 151.102808 76.071075 
L 151.226298 75.756645 
L 151.628361 75.887998 
L 151.585459 76.250379 
L 151.982596 76.341337 
L 151.982596 75.997843 
L 152.398284 76.560742 
L 152.676862 76.353543 
L 152.711937 76.977466 
L 151.184782 78.178497 
L 149.369442 78.819564 
L 148.531537 79.448451 
L 147.224242 79.451772 
L 145.785152 80.329409 
L 144.945772 79.842613 
L 143.811141 79.866971 
L 143.379669 80.758263 
L 142.142689 81.422213 
L 140.974187 81.262407 
L 140.585054 80.87009 
L 139.82888 80.901093 
L 139.136392 81.428858 
L 137.618883 81.357997 
L 137.506229 80.919548 
L 136.289133 80.329409 
L 135.398214 81.014027 
L 133.219513 80.901093 
L 132.941558 80.193596 
L 132.510457 80.085458 
L 131.968912 79.217787 
L 132.18796 77.968869 
L 131.853312 77.20933 
L 131.694274 75.4356 
L 130.916008 74.27932 
L 129.828866 73.416077 
L 129.469551 74.274892 
L 128.838177 73.796952 
L 127.785088 73.930551 
L 127.291035 73.468852 
L 124.504705 72.633287 
L 124.167664 72.224734 
L 122.438839 71.931693 
L 122.433685 71.470361 
L 121.493435 71.40061 
L 121.01742 70.652512 
L 120.355858 70.236945 
L 119.374559 70.34102 
L 118.953211 70.105928 
L 117.10842 66.698714 
L 116.584175 65.102874 
L 115.858923 64.176522 
L 114.491622 63.209936 
L 113.845152 61.973567 
L 113.66918 61.005878 
L 114.154766 59.942602 
z
" clip-path="url(#pc4db6a36e1)" style="fill: #eeeeee; stroke: #000000; stroke-width: 0.3"/>
    <path d="M 148.272123 60.692086 
L 148.591283 60.434033 
L 148.710423 59.992895 
L 149.077414 61.684204 
L 149.378308 61.699027 
L 149.369613 61.440388 
L 149.529628 62.145393 
L 149.404977 62.65104 
L 149.077414 62.074485 
L 149.031322 62.332831 
L 148.301111 61.786786 
z
" clip-path="url(#pc4db6a36e1)" style="fill: #eeeeee; stroke: #000000; stroke-width: 0.3"/>
    <path d="M 149.88444 58.905752 
L 149.957491 58.452994 
L 150.375498 58.282118 
L 150.216644 58.284443 
L 149.90879 58.108921 
L 150.251428 58.160064 
L 150.030541 57.035722 
L 150.520149 57.40537 
L 150.642769 57.060425 
L 150.429416 58.88018 
z
" clip-path="url(#pc4db6a36e1)" style="fill: #eeeeee; stroke: #000000; stroke-width: 0.3"/>
    <path d="M 149.685293 67.945532 
L 150.784229 66.846182 
L 150.776115 67.262035 
L 150.526237 67.833069 
L 149.836901 68.089379 
z
" clip-path="url(#pc4db6a36e1)" style="fill: #eeeeee; stroke: #000000; stroke-width: 0.3"/>
    <path d="M 149.643578 58.836308 
L 149.916869 59.03769 
L 149.944048 59.12706 
L 149.785608 59.083598 
z
" clip-path="url(#pc4db6a36e1)" style="fill: #eeeeee; stroke: #000000; stroke-width: 0.3"/>
    <path d="M 150.097162 68.466544 
L 150.097177 68.315176 
L 150.448723 68.163708 
z
" clip-path="url(#pc4db6a36e1)" style="fill: #eeeeee; stroke: #000000; stroke-width: 0.3"/>
    <path d="M 148.357513 60.203373 
L 148.441043 60.484287 
L 148.35772 60.49164 
z
" clip-path="url(#pc4db6a36e1)" style="fill: #eeeeee; stroke: #000000; stroke-width: 0.3"/>
    <path d="M 160.590236 1.68155 
L 162.849058 -1.489058 
L 163.585355 -1.067685 
L 163.580718 -0.560582 
L 164.797055 0.996175 
L 166.642035 2.383315 
L 167.491923 2.49375 
L 168.830756 2.378716 
L 171.706362 0.727805 
L 174.123097 1.388491 
L 177.536149 -0.366752 
L 178.620883 -0.069029 
L 180.116667 -0.19544 
L 181.51157 -0.847552 
L 182.997406 -0.597048 
L 182.997402 5.823111 
L 179.578038 11.017616 
L 176.016203 11.017616 
L 165.489002 7.48612 
L 164.055799 6.231389 
L 163.334598 5.959574 
L 162.508843 4.280138 
L 162.083078 4.140172 
L 161.258794 3.120444 
z
" clip-path="url(#pc4db6a36e1)" style="fill: #eeeeee; stroke: #000000; stroke-width: 0.3"/>
    <path d="M -8.311509 -133.065127 
L -8.297884 -133.689343 
L -7.582171 -134.080059 
L -5.481839 -134.448543 
L -5.046296 -134.080059 
L -4.898165 -134.449997 
L -4.095488 -134.269968 
L -3.847929 -134.838242 
L -2.830739 -134.946491 
L -2.797982 -134.667512 
L -2.338232 -134.943002 
L -2.459402 -134.545458 
L -2.041538 -134.765009 
L -0.880999 -133.649384 
L 0.423752 -134.3262 
L 0.373021 -134.080059 
L 0.788421 -133.909476 
L 1.363108 -134.153145 
L 1.6198 -133.66566 
L 1.447318 -134.128735 
L 1.743289 -134.3262 
L 2.10622 -134.374729 
L 2.276233 -134.031091 
L 3.841588 -134.128735 
L 3.139643 -134.49969 
L 2.963976 -134.864685 
L 3.302264 -135.522899 
L 2.99731 -135.506191 
L 2.937307 -136.173562 
L 3.158194 -136.207853 
L 2.203329 -136.772927 
L 1.960407 -137.298486 
L 2.121291 -137.615823 
L 1.780392 -137.988374 
L 2.95064 -137.723926 
L 4.174661 -137.886228 
L 4.300323 -137.631225 
L 4.020734 -137.395547 
L 4.673979 -136.6362 
L 5.323893 -136.803441 
L 7.891944 -136.402847 
L 10.138809 -137.016889 
L 10.43043 -137.165244 
L 9.588618 -137.059755 
L 8.946529 -137.313016 
L 9.513825 -138.006972 
L 13.023701 -138.898543 
L 14.091622 -139.740128 
L 14.63138 -139.661086 
L 14.164673 -139.965925 
L 14.409909 -140.297214 
L 14.213369 -140.418976 
L 14.303814 -142.075993 
L 17.656499 -142.857097 
L 17.965151 -142.405686 
L 17.88784 -141.992519 
L 18.600208 -141.556652 
L 19.82025 -141.755577 
L 20.325349 -140.855243 
L 21.52662 -140.67514 
L 21.842121 -140.038501 
L 22.93368 -140.202181 
L 23.625801 -139.896596 
L 23.369939 -139.431204 
L 23.669978 -139.188359 
L 23.390923 -138.884248 
L 25.222459 -138.918201 
L 25.826961 -139.549673 
L 26.027601 -139.472723 
L 25.714308 -138.824643 
L 25.986 -138.664101 
L 25.94624 -138.238568 
L 27.407419 -137.871348 
L 28.108744 -137.184334 
L 29.142502 -137.364619 
L 29.906042 -136.978577 
L 31.480615 -137.064754 
L 32.588556 -135.969922 
L 33.303132 -136.140616 
L 33.759634 -135.786866 
L 34.585393 -135.777639 
L 35.070245 -136.005907 
L 35.869862 -135.537562 
L 37.883633 -135.254673 
L 36.494243 -134.027899 
L 36.282187 -133.050707 
L 35.694256 -132.294953 
L 35.820531 -131.729729 
L 35.431398 -130.786583 
L 35.695546 -130.348419 
L 34.956488 -129.798593 
L 33.512976 -130.007299 
L 33.133048 -129.525485 
L 33.738283 -129.437462 
L 32.416263 -128.336816 
L 31.62272 -128.061401 
L 31.57486 -127.406679 
L 30.467838 -126.773365 
L 30.239219 -126.187565 
L 30.527111 -126.012536 
L 30.380956 -125.593462 
L 29.885058 -125.403761 
L 29.899417 -125.155749 
L 30.545886 -125.226239 
L 31.047673 -125.547144 
L 30.808744 -125.816378 
L 31.004597 -126.029051 
L 31.766295 -126.291732 
L 32.849573 -126.168835 
L 32.718881 -125.92368 
L 32.994256 -125.652144 
L 32.773366 -125.231224 
L 33.686744 -124.42297 
L 32.898537 -124.070144 
L 32.881232 -123.683363 
L 34.18043 -122.586314 
L 33.805656 -121.881952 
L 32.192979 -121.488346 
L 32.70121 -120.789705 
L 33.63336 -120.483563 
L 33.804548 -119.993631 
L 33.465117 -119.987539 
L 33.02297 -119.454979 
L 33.315283 -119.106028 
L 33.131206 -118.876838 
L 33.546844 -118.411261 
L 34.787137 -117.995323 
L 35.943493 -118.176719 
L 36.065718 -117.788463 
L 35.310278 -117.067771 
L 35.305081 -116.707536 
L 34.148169 -116.31522 
L 34.102909 -115.955445 
L 33.473035 -115.905763 
L 33.230605 -115.504109 
L 32.650411 -115.433472 
L 32.150819 -114.937296 
L 32.515865 -114.951847 
L 32.467518 -114.696811 
L 31.383122 -114.301467 
L 30.734212 -114.365501 
L 30.687457 -114.105355 
L 29.835617 -114.455653 
L 29.53525 -114.137162 
L 28.884513 -114.619451 
L 27.719939 -114.74804 
L 27.531838 -115.246445 
L 26.605166 -115.175041 
L 26.577069 -115.438764 
L 27.290174 -115.692168 
L 26.587794 -115.971729 
L 26.66606 -115.509962 
L 26.01441 -115.482062 
L 25.970252 -115.197548 
L 25.621331 -115.485258 
L 25.566543 -115.849967 
L 25.396095 -116.044961 
L 25.566835 -115.485986 
L 25.843802 -115.213892 
L 22.754413 -115.905181 
L 19.766032 -114.356702 
L 19.508909 -112.652463 
L 20.004498 -111.946951 
L 19.123716 -112.085293 
L 18.15659 -111.616766 
L 16.785973 -111.936746 
L 15.7824 -111.651272 
L 14.772569 -112.169163 
L 14.807545 -112.583901 
L 13.764946 -112.532234 
L 13.45607 -112.936727 
L 11.569311 -113.375822 
L 11.011565 -113.40009 
L 10.966284 -112.850367 
L 8.535034 -112.852767 
L 7.523913 -113.414667 
L 6.6468 -113.16518 
L 5.967748 -113.786039 
L 4.577622 -113.997513 
L 4.092769 -114.366951 
L 3.483302 -114.138036 
L 3.674371 -114.845998 
L 2.896472 -114.859099 
L 2.274669 -115.313971 
L 2.757146 -115.404326 
L 3.413002 -116.048447 
L 4.195389 -119.533646 
L 4.447293 -119.924363 
L 4.952264 -119.938457 
L 4.498167 -120.327138 
L 4.184229 -119.788503 
L 4.807905 -123.150924 
L 5.944527 -122.283331 
L 6.123385 -121.599252 
L 6.769239 -120.743862 
L 6.550087 -121.206936 
L 6.914902 -121.111764 
L 6.337026 -121.472838 
L 5.84017 -122.822688 
L 4.230753 -123.653956 
L 4.52817 -123.999629 
L 5.157357 -123.680549 
L 4.571217 -124.219034 
L 4.938208 -124.828427 
L 4.360764 -125.313155 
L 4.717172 -125.770709 
L 4.256407 -125.704886 
L 2.278406 -126.455806 
L 1.870547 -127.160224 
L 1.126566 -127.617924 
L 1.582694 -128.387148 
L 0.690731 -128.769584 
L 0.961191 -128.86025 
L 0.977712 -129.229173 
L 2.521908 -129.0134 
L 1.513558 -129.402517 
L 0.557967 -129.140682 
L -0.380958 -129.33248 
L -0.004111 -129.357184 
L -0.432266 -129.629331 
L 0.153873 -129.773614 
L -0.21268 -130.014816 
L 0.253301 -130.068287 
L -0.701565 -130.117109 
L -0.585324 -130.150236 
L -0.505025 -130.23887 
L -1.361043 -130.043441 
L -1.689186 -130.254854 
L -1.091453 -130.229572 
L -0.903323 -130.419045 
L -0.886798 -130.485447 
L -0.967094 -130.555919 
L -1.725423 -130.387367 
L -1.922251 -130.631183 
L -1.798474 -130.263281 
L -2.451573 -130.398994 
L -2.481576 -129.968466 
L -2.726962 -130.544731 
L -2.432875 -130.875145 
L -2.700581 -130.926145 
L -2.811026 -130.60474 
L -3.288605 -130.750913 
L -3.019161 -130.728827 
L -3.288605 -130.799734 
L -3.019161 -131.072321 
L -3.602689 -130.776777 
L -6.04537 -131.559953 
L -6.234227 -131.165312 
L -6.898923 -131.143226 
L -7.122709 -131.744773 
L -8.168165 -131.976676 
L -6.591069 -132.243739 
L -6.925446 -132.66148 
L -7.560286 -132.464451 
L -7.805523 -132.856767 
L -7.521877 -133.070215 
L -7.410851 -132.888152 
L -6.533963 -132.861563 
L -6.242341 -132.929853 
L -7.190688 -133.029385 
L -6.607156 -133.372876 
z
M 15.610845 -112.017477 
L 15.796021 -111.991274 
L 15.643241 -112.126537 
z
" clip-path="url(#pc4db6a36e1)" style="fill: #eeeeee; stroke: #000000; stroke-width: 0.3"/>
    <path d="M -185.868827 31.265843 
L -185.015092 30.703386 
L -184.283397 29.384714 
L -184.429366 28.40503 
L -183.687918 27.233802 
L -183.658648 26.633147 
L -184.535761 25.730596 
L -185.125352 24.605132 
L -185.410851 22.064668 
L -184.786102 20.911801 
L -183.894788 20.159393 
L -183.442111 19.058637 
L -179.746467 20.269527 
L -177.938612 22.089868 
L -177.547274 21.963746 
L -177.765842 22.701589 
L -177.379142 22.162954 
L -176.640383 22.812452 
L -176.377603 23.667843 
L -176.717925 24.097932 
L -176.326876 23.889572 
L -176.229475 22.947583 
L -175.845963 23.101165 
L -175.302871 24.745105 
L -177.818713 28.318668 
L -178.010886 29.226569 
L -179.012984 31.099023 
L -180.047115 31.812245 
L -181.071487 31.73197 
L -180.949262 31.534705 
L -181.340789 31.182433 
L -182.009343 31.548732 
L -182.839334 31.114339 
L -184.07439 32.022868 
z
" clip-path="url(#pc4db6a36e1)" style="fill: #eeeeee; stroke: #000000; stroke-width: 0.3"/>
    <path d="M 39.125998 -111.752757 
L 39.519367 -111.941213 
L 39.696194 -112.474324 
L 41.151973 -113.020076 
L 41.772899 -112.815637 
L 41.967116 -113.9904 
L 42.385127 -113.941578 
L 42.309757 -112.693582 
L 42.613262 -112.418528 
L 42.725445 -110.92948 
L 42.168294 -110.238134 
L 42.162787 -109.357901 
L 41.772899 -109.072091 
L 41.981033 -108.910664 
L 41.482727 -108.435816 
L 41.527078 -108.165411 
L 39.990423 -108.83932 
L 40.456838 -109.315764 
L 39.503711 -109.513083 
L 40.039123 -110.0738 
L 39.358191 -110.051861 
L 39.258475 -110.295384 
L 39.82374 -110.608218 
L 39.185424 -111.15092 
L 39.619955 -111.380785 
z
" clip-path="url(#pc4db6a36e1)" style="fill: #eeeeee; stroke: #000000; stroke-width: 0.3"/>
    <path d="M -209.393264 -13.443004 
L -208.181564 -13.195845 
L -208.388825 -12.799901 
L -207.936178 -12.069907 
L -208.150546 -11.877527 
L -208.143154 -12.119889 
L -208.859301 -12.086762 
L -208.98859 -12.264901 
L -208.597252 -12.437809 
L -209.179911 -12.80179 
z
" clip-path="url(#pc4db6a36e1)" style="fill: #eeeeee; stroke: #000000; stroke-width: 0.3"/>
    <path d="M 205.389615 114.668355 
L 205.610505 114.246979 
L 206.646828 114.115048 
L 207.630392 115.122856 
L 207.479073 115.785431 
L 206.634941 115.8761 
L 205.831972 115.531445 
z
" clip-path="url(#pc4db6a36e1)" style="fill: #eeeeee; stroke: #000000; stroke-width: 0.3"/>
    <path d="M 169.117437 84.917897 
L 169.289627 84.735108 
L 169.680964 85.005366 
L 169.629945 85.883568 
L 169.312238 85.931808 
L 169.188749 85.632489 
L 169.452248 85.651669 
z
" clip-path="url(#pc4db6a36e1)" style="fill: #eeeeee; stroke: #000000; stroke-width: 0.3"/>
    <path d="M -210.549887 -18.581149 
L -210.258992 -19.394257 
L -209.914178 -18.807675 
L -209.194117 -18.465491 
L -210.257688 -18.284591 
z
" clip-path="url(#pc4db6a36e1)" style="fill: #eeeeee; stroke: #000000; stroke-width: 0.3"/>
    <path d="M -211.451706 -18.676904 
L -211.239803 -18.866524 
L -210.576556 -18.581731 
L -210.627576 -17.681737 
L -211.086892 -17.380525 
z
" clip-path="url(#pc4db6a36e1)" style="fill: #eeeeee; stroke: #000000; stroke-width: 0.3"/>
    <path d="M 3.131817 -125.588935 
L 4.014212 -125.428814 
L 4.109294 -125.247622 
L 3.315455 -125.431428 
z
" clip-path="url(#pc4db6a36e1)" style="fill: #eeeeee; stroke: #000000; stroke-width: 0.3"/>
    <path d="M -209.794169 -17.319062 
L -209.567192 -17.595134 
L -209.302531 -17.319498 
L -209.590673 -17.111281 
z
" clip-path="url(#pc4db6a36e1)" style="fill: #eeeeee; stroke: #000000; stroke-width: 0.3"/>
    <path d="M 169.948236 85.298004 
L 169.972586 85.078599 
L 169.972586 85.298004 
z
" clip-path="url(#pc4db6a36e1)" style="fill: #eeeeee; stroke: #000000; stroke-width: 0.3"/>
    <path d="M 42.358458 -112.717993 
L 42.449479 -112.620496 
L 42.430636 -112.616864 
z
" clip-path="url(#pc4db6a36e1)" style="fill: #eeeeee; stroke: #000000; stroke-width: 0.3"/>
    <path d="M 30.638005 -113.97587 
L 30.669892 -114.009144 
L 30.944412 -113.986479 
z
" clip-path="url(#pc4db6a36e1)" style="fill: #eeeeee; stroke: #000000; stroke-width: 0.3"/>
    <path d="M 3.669256 -124.87972 
L 4.229595 -124.696203 
L 4.366417 -124.026218 
z
" clip-path="url(#pc4db6a36e1)" style="fill: #eeeeee; stroke: #000000; stroke-width: 0.3"/>
    <path d="M 0.49651 -128.379303 
L 0.837121 -128.347772 
L 1.041775 -127.938894 
z
" clip-path="url(#pc4db6a36e1)" style="fill: #eeeeee; stroke: #000000; stroke-width: 0.3"/>
    <path d="M 0.185614 -127.270363 
L 0.487381 -127.2615 
L 0.591592 -127.180275 
z
" clip-path="url(#pc4db6a36e1)" style="fill: #eeeeee; stroke: #000000; stroke-width: 0.3"/>
    <path d="M -2.945964 -129.629331 
L -2.251122 -129.339018 
L -2.808415 -129.375492 
z
" clip-path="url(#pc4db6a36e1)" style="fill: #eeeeee; stroke: #000000; stroke-width: 0.3"/>
    <path d="M -9.609596 -133.468338 
L -9.463494 -133.548545 
L -9.44987 -133.428672 
z
" clip-path="url(#pc4db6a36e1)" style="fill: #eeeeee; stroke: #000000; stroke-width: 0.3"/>
    <path d="M -208.937862 -18.652639 
L -208.750887 -18.792127 
L -208.855825 -18.641305 
z
" clip-path="url(#pc4db6a36e1)" style="fill: #eeeeee; stroke: #000000; stroke-width: 0.3"/>
    <path d="M -210.733383 -17.07234 
L -210.677288 -17.13642 
L -210.685259 -17.068562 
z
" clip-path="url(#pc4db6a36e1)" style="fill: #eeeeee; stroke: #000000; stroke-width: 0.3"/>
    <path d="M -210.885279 -17.037906 
L -210.805995 -17.062316 
L -210.84687 -17.015673 
z
" clip-path="url(#pc4db6a36e1)" style="fill: #eeeeee; stroke: #000000; stroke-width: 0.3"/>
    <path d="M 48.262425 53.630996 
L 48.613315 52.775535 
L 49.575287 52.104204 
L 50.305696 52.780702 
L 51.08175 52.583619 
L 50.794966 52.325273 
L 51.220175 51.368286 
L 50.305326 50.896252 
L 50.628928 50.305746 
L 50.124566 49.690147 
L 49.746846 49.809723 
L 50.080389 48.974158 
L 49.873121 47.892056 
L 50.549408 48.196906 
L 51.198824 47.889843 
L 51.640234 48.196539 
L 53.05429 47.892796 
L 53.198603 47.055756 
L 52.939061 46.300648 
L 53.151481 46.446427 
L 53.670938 46.090281 
L 54.284274 46.425763 
L 55.009526 47.70199 
L 54.869997 48.044481 
L 56.615021 48.289543 
L 57.627613 47.061291 
L 58.208181 47.999456 
L 57.993183 48.380702 
L 58.863118 48.495111 
L 59.377421 47.982112 
L 59.069649 47.517456 
L 59.415343 46.624688 
L 59.957623 46.381844 
L 60.140962 45.594258 
L 59.842027 45.329267 
L 60.192134 45.103031 
L 60.279753 44.605529 
L 59.938113 43.227069 
L 60.287854 41.718699 
L 59.684456 41.159935 
L 59.111251 41.197947 
L 58.882264 40.560572 
L 57.941277 40.306287 
L 58.261566 39.761913 
L 58.083748 38.87136 
L 58.347344 38.321451 
L 58.81305 37.646432 
L 59.71354 37.354498 
L 60.209805 36.311705 
L 59.550085 35.537221 
L 59.440744 34.820497 
L 59.057132 34.603392 
L 57.811319 34.450506 
L 56.916168 34.989527 
L 55.515362 35.085485 
L 55.875411 34.796136 
L 55.442101 33.886207 
L 55.558068 32.788607 
L 56.029665 31.855792 
L 60.084635 31.959131 
L 60.54482 31.685284 
L 61.266759 32.19718 
L 61.595148 32.016891 
L 61.721423 32.4081 
L 62.861946 32.289445 
L 63.306301 32.711379 
L 63.824655 32.517156 
L 64.622063 32.673827 
L 65.71583 33.247539 
L 65.91537 33.664491 
L 66.23308 33.37791 
L 65.897698 32.506086 
L 65.972063 31.898236 
L 66.406477 31.634352 
L 67.373236 29.444502 
L 67.324639 28.301138 
L 67.798449 27.06855 
L 69.931131 26.782712 
L 70.863281 26.33079 
L 72.053873 26.654923 
L 72.228377 26.931166 
L 73.08285 26.847942 
L 73.437374 27.155281 
L 73.675935 26.807069 
L 74.472239 26.602977 
L 75.021885 27.157127 
L 74.974396 28.402263 
L 73.048611 31.859484 
L 73.044928 34.032633 
L 72.315626 35.942453 
L 72.596523 38.225493 
L 71.780339 40.271963 
L 71.898514 41.441899 
L 70.325785 43.197177 
L 69.308958 43.490214 
L 68.634512 44.104339 
L 67.497302 46.312457 
L 66.359725 47.364663 
L 66.470166 51.404084 
L 65.353573 53.561642 
L 64.005782 54.063571 
L 63.739244 54.620122 
L 62.83102 55.067063 
L 61.503112 56.766977 
L 60.93874 57.069981 
L 60.394249 56.860718 
L 59.969773 57.021263 
L 59.791959 55.852802 
L 60.215697 55.389624 
L 59.921176 54.84599 
L 58.344765 55.635054 
L 57.52711 55.474141 
L 57.518272 56.304906 
L 56.379039 57.017942 
L 55.38062 55.91665 
L 55.077265 56.0425 
L 54.516944 55.327622 
L 54.131494 55.25344 
L 53.640383 55.853538 
L 52.796953 56.018511 
L 52.565021 56.635221 
L 52.102994 56.582814 
L 51.45257 57.497507 
L 50.777925 56.658942 
L 50.728765 55.917325 
z
" clip-path="url(#pc4db6a36e1)" style="fill: #eeeeee; stroke: #000000; stroke-width: 0.3"/>
    <path d="M 52.306288 60.386954 
L 52.340818 60.058118 
L 53.23137 60.020841 
L 53.308681 58.008328 
L 53.001276 57.624132 
L 53.836606 57.15708 
L 54.278382 56.498297 
L 55.213111 56.227403 
L 55.293738 55.925878 
L 56.379039 57.017942 
L 57.518272 56.304906 
L 57.52711 55.474141 
L 58.344765 55.635054 
L 59.921176 54.84599 
L 60.215697 55.389624 
L 59.791959 55.852802 
L 59.969773 57.021263 
L 60.394249 56.860718 
L 60.93874 57.069981 
L 61.503112 56.766977 
L 62.83102 55.067063 
L 63.739244 54.620122 
L 64.005782 54.063571 
L 65.353573 53.561642 
L 66.470166 51.404084 
L 66.359725 47.364663 
L 67.497302 46.312457 
L 68.634512 44.104339 
L 69.308958 43.490214 
L 70.325785 43.197177 
L 71.898514 41.441899 
L 71.780339 40.271963 
L 72.596523 38.225493 
L 72.315626 35.942453 
L 73.044928 34.032633 
L 73.048611 31.859484 
L 74.974396 28.402263 
L 75.093675 25.124866 
L 74.721109 24.118333 
L 75.47397 23.858512 
L 76.649469 22.041878 
L 77.809505 21.252539 
L 79.290197 21.37184 
L 81.122103 22.532645 
L 81.98173 23.807119 
L 83.019171 23.670103 
L 84.22817 24.247875 
L 86.103149 24.241419 
L 88.119132 24.829429 
L 88.857268 24.606054 
L 89.14921 23.597492 
L 89.4949 23.533365 
L 90.238928 22.34811 
L 92.077463 23.179247 
L 92.695583 22.668183 
L 95.08634 21.968528 
L 95.582972 21.589499 
L 95.574872 21.281421 
L 96.765463 22.012722 
L 98.820835 21.602876 
L 99.02037 20.609165 
L 99.661871 20.37804 
L 100.969533 21.110727 
L 101.993352 20.866868 
L 103.077181 21.548622 
L 103.920978 21.381067 
L 104.375642 21.584053 
L 105.111569 20.992072 
L 105.92444 21.246818 
L 107.500118 22.475717 
L 107.600621 23.161439 
L 108.461167 23.324937 
L 108.588364 23.792357 
L 109.770118 24.306003 
L 111.10208 23.310818 
L 112.761508 24.072479 
L 113.603278 22.898204 
L 114.176487 22.998037 
L 114.811174 23.303529 
L 114.779514 23.972093 
L 115.287189 24.186887 
L 116.209771 25.445864 
L 117.40625 25.762059 
L 117.469573 26.671345 
L 118.195929 26.450091 
L 118.525789 27.109516 
L 118.728274 27.003227 
L 118.776868 27.455146 
L 118.184886 28.661898 
L 118.575124 29.383607 
L 118.066341 30.841417 
L 118.640655 31.245174 
L 118.983399 30.983136 
L 119.294117 31.39446 
L 119.72982 31.349249 
L 120.064282 32.063116 
L 117.23893 35.149701 
L 116.386114 35.516185 
L 116.086809 36.327942 
L 115.347566 36.628179 
L 115.323269 37.793318 
L 114.47763 39.313869 
L 113.948972 42.888638 
L 114.031804 44.530611 
L 112.804399 45.495715 
L 112.438092 46.155236 
L 112.453551 47.420762 
L 111.497104 48.114236 
L 111.464707 48.565601 
L 111.586195 49.045387 
L 112.075097 49.374595 
L 111.955081 49.620024 
L 112.809001 50.451897 
L 112.739235 53.498901 
L 113.182486 54.189422 
L 113.436877 55.650184 
L 113.126526 57.142317 
L 114.154766 59.942602 
L 113.66918 61.005878 
L 113.888595 62.113812 
L 114.491622 63.209936 
L 115.858923 64.176522 
L 116.584175 65.102874 
L 118.214338 68.833389 
L 111.578465 69.865297 
L 111.592453 70.874691 
L 109.666669 72.682373 
L 110.249079 73.062141 
L 110.899232 74.539141 
L 110.441255 76.066333 
L 110.903278 77.578767 
L 110.386032 78.263749 
L 109.694649 80.758263 
L 110.22018 81.969539 
L 111.086617 82.396176 
L 112.09829 83.776853 
L 113.753116 84.041841 
L 113.662551 83.290422 
L 114.820378 82.974134 
L 114.759635 87.62196 
L 114.172437 87.499062 
L 114.35688 86.998979 
L 114.019287 86.799682 
L 112.62916 87.55479 
L 111.951765 87.408639 
L 110.9331 85.601143 
L 110.344798 85.586381 
L 109.91701 84.285425 
L 108.264025 83.737362 
L 107.90066 83.360915 
L 107.122398 83.472371 
L 106.347812 82.145215 
L 105.683304 81.742193 
L 105.490764 80.88707 
L 104.933755 80.979704 
L 104.662797 82.09945 
L 103.842563 82.470358 
L 102.763888 82.109045 
L 101.219874 82.077674 
L 99.938717 81.455797 
L 99.490312 81.625938 
L 98.953735 81.146152 
L 98.830406 79.548469 
L 96.701036 80.017182 
L 95.911728 80.501028 
L 95.210036 80.278481 
L 95.560146 79.849627 
L 95.482835 79.210774 
L 94.605537 79.007416 
L 94.569828 78.564539 
L 94.168178 78.401044 
L 93.570672 78.954642 
L 92.225089 78.713643 
L 90.65199 79.218894 
L 88.8234 79.004467 
L 87.885358 79.744074 
L 87.628388 78.325755 
L 88.17693 78.000608 
L 88.155209 76.598159 
L 87.608508 75.037381 
L 86.607515 74.057512 
L 86.297901 73.16142 
L 86.83908 69.768233 
L 86.162422 68.130688 
L 86.543455 66.246977 
L 86.272867 65.581185 
L 81.76894 65.591887 
L 82.092912 64.269155 
L 81.052893 64.278383 
L 80.963065 64.576219 
L 78.211522 64.576219 
L 78.180599 66.281301 
L 77.619541 66.619364 
L 77.619174 68.147296 
L 74.630544 67.898177 
L 74.598884 68.131427 
L 73.219433 68.220371 
L 73.140281 68.530385 
L 72.320414 68.298982 
L 71.366542 68.492005 
L 70.354132 67.260431 
L 69.8575 66.098245 
L 69.035058 65.299957 
L 69.132986 64.621984 
L 68.40258 63.527702 
L 68.18169 62.658924 
L 68.255321 61.673888 
L 67.636094 60.649732 
L 58.341452 60.432719 
L 56.200487 60.607655 
L 54.610547 60.336097 
L 54.148588 60.517365 
L 53.99231 60.924282 
L 53.019482 61.183764 
L 53.046895 60.933242 
L 52.830924 61.019626 
z
" clip-path="url(#pc4db6a36e1)" style="fill: #eeeeee; stroke: #000000; stroke-width: 0.3"/>
    <path d="M 54.072531 60.784788 
L 54.368299 60.540518 
L 54.961128 60.527842 
z
" clip-path="url(#pc4db6a36e1)" style="fill: #eeeeee; stroke: #000000; stroke-width: 0.3"/>
    <path d="M 50.412497 102.229393 
L 50.546135 101.230883 
L 51.73227 100.775454 
L 52.28265 101.081411 
L 53.438636 101.116103 
L 55.572793 100.103756 
L 56.689386 100.315229 
L 56.837382 100.713823 
L 58.473251 101.791126 
L 74.406341 101.670807 
L 75.08042 102.556936 
L 75.961031 103.132676 
L 79.099128 103.457824 
L 81.112165 103.331234 
L 82.786501 103.961599 
L 84.051461 103.601761 
L 84.85476 103.901072 
L 94.948282 101.990787 
L 97.856655 102.35395 
L 98.650383 103.114225 
L 97.558821 103.093925 
L 96.173482 104.037996 
L 95.411783 103.692548 
L 92.773264 105.555222 
L 91.643783 103.845712 
L 83.388057 104.989815 
L 83.422662 118.00454 
L 79.837634 118.135558 
L 79.849414 141.066893 
L 78.378664 141.455516 
L 77.973698 142.077022 
L 77.299989 142.210625 
L 77.379875 142.712186 
L 76.780898 142.977913 
L 75.446728 142.557915 
L 73.383626 142.779355 
L 72.481661 142.348655 
L 71.46815 142.287392 
L 71.305061 141.98771 
L 70.666321 142.073701 
L 70.726698 141.677696 
L 70.383583 141.238875 
L 70.652333 140.970195 
L 70.46016 140.371572 
L 69.987825 140.387442 
L 69.500764 139.654477 
L 68.847302 139.853774 
L 68.404788 140.506282 
L 68.303915 141.276152 
L 66.902065 141.544461 
L 64.768253 139.646535 
L 63.156228 137.139212 
L 62.918526 135.793434 
L 62.400218 134.899538 
L 62.705465 134.531636 
L 62.480806 133.918754 
L 61.98453 133.613911 
L 62.029754 132.626732 
L 61.535797 131.53029 
L 61.581887 129.075278 
L 60.178285 125.626112 
L 60.373086 124.890308 
L 60.089583 123.186794 
L 60.294817 122.808137 
L 60.003488 121.59981 
L 60.09219 121.274916 
L 60.178285 121.687284 
L 60.427871 121.347567 
L 60.353955 120.090129 
L 56.396792 114.024089 
L 55.613536 111.667009 
L 55.113424 111.203653 
L 53.021423 107.079554 
L 51.531936 105.654022 
L 50.694933 103.692651 
z
" clip-path="url(#pc4db6a36e1)" style="fill: #eeeeee; stroke: #000000; stroke-width: 0.3"/>
    <path d="M 86.967196 86.000102 
L 94.165232 86.000102 
L 93.68443 85.243887 
L 94.272731 83.798997 
L 94.000302 82.966385 
L 94.001406 81.127329 
L 94.382806 80.306159 
L 94.047057 78.396984 
L 94.569828 78.564539 
L 94.605537 79.007416 
L 95.482835 79.210774 
L 95.560146 79.849627 
L 95.179847 80.214261 
L 95.753423 80.508409 
L 96.701036 80.017182 
L 98.830406 79.548469 
L 98.953735 81.146152 
L 99.490312 81.625938 
L 99.938717 81.455797 
L 101.219874 82.077674 
L 102.763888 82.109045 
L 103.842563 82.470358 
L 104.662797 82.09945 
L 104.933755 80.979704 
L 105.490764 80.88707 
L 105.683304 81.742193 
L 106.347812 82.145215 
L 107.122398 83.472371 
L 107.90066 83.360915 
L 108.264025 83.737362 
L 109.91701 84.285425 
L 110.344798 85.586381 
L 110.9331 85.601143 
L 111.951765 87.408639 
L 112.62916 87.55479 
L 114.019287 86.799682 
L 114.35688 86.998979 
L 114.172437 87.499062 
L 114.705883 87.631558 
L 114.820378 82.974134 
L 113.662551 83.290422 
L 113.753116 84.041841 
L 112.09829 83.776853 
L 111.086617 82.396176 
L 110.22018 81.969539 
L 109.678082 80.703275 
L 110.386032 78.263749 
L 110.903278 77.578767 
L 110.441255 76.066333 
L 110.899232 74.539141 
L 110.249079 73.062141 
L 109.666669 72.682373 
L 111.592453 70.874691 
L 111.578465 69.865297 
L 118.214338 68.833389 
L 119.217173 70.283817 
L 120.355858 70.236945 
L 121.01742 70.652512 
L 121.493435 71.40061 
L 122.433685 71.470361 
L 122.438839 71.931693 
L 124.167664 72.224734 
L 124.504705 72.633287 
L 125.93956 73.167694 
L 126.174809 73.95528 
L 126.846313 73.861907 
L 127.44492 74.680124 
L 127.304657 75.509783 
L 128.121026 76.10767 
L 128.622997 77.342565 
L 128.005978 78.028658 
L 127.049899 78.436104 
L 127.6139 79.441438 
L 127.041798 80.340483 
L 126.978846 80.866402 
L 127.278518 80.97269 
L 127.339999 81.610436 
L 127.121688 82.922095 
L 127.466274 83.594904 
L 128.099119 83.693811 
L 127.469587 84.326023 
L 126.309918 84.611679 
L 126.011721 85.173025 
L 126.269791 85.699315 
L 126.214936 86.717751 
L 125.555582 87.881045 
L 125.022136 88.12426 
L 125.401698 88.304731 
L 125.377401 88.770123 
L 125.773159 88.92513 
L 126.220827 89.745932 
L 126.721142 89.297888 
L 126.943504 89.615283 
L 116.299228 93.070476 
L 116.997056 95.387836 
L 114.064938 95.478259 
L 111.732349 96.578072 
L 111.464707 96.92352 
L 111.464707 98.093827 
L 111.122326 98.608301 
L 107.758926 100.134391 
L 106.905558 101.57522 
L 105.260303 103.428667 
L 103.78053 104.096677 
L 102.041949 103.430881 
L 101.01813 103.845712 
L 100.152245 103.176227 
L 98.920234 103.282516 
L 97.856655 102.35395 
L 96.6009 102.036923 
L 94.948282 101.990787 
L 91.960389 102.568006 
L 87.424065 98.650006 
L 86.973085 97.222832 
z
" clip-path="url(#pc4db6a36e1)" style="fill: #eeeeee; stroke: #000000; stroke-width: 0.3"/>
    <path d="M 59.921913 18.007809 
L 61.293264 17.010503 
L 62.902076 13.692419 
L 63.646103 13.184583 
L 63.818026 12.70775 
L 65.400329 12.833047 
L 66.987416 12.174822 
L 67.063622 11.778074 
L 67.621001 11.469535 
L 67.854405 12.14954 
L 68.453382 12.643902 
L 71.50791 11.058768 
L 74.889719 10.834374 
L 76.79489 8.5947 
L 75.888875 7.97218 
L 76.430791 7.487227 
L 81.464851 6.941193 
L 81.84478 6.285917 
L 82.293919 6.35595 
L 82.857557 5.941487 
L 84.391996 3.950102 
L 84.810213 3.959515 
L 85.305004 3.14748 
L 86.037251 2.804246 
L 86.050873 1.589838 
L 88.631594 0.298755 
L 90.106027 0.581272 
L 91.638262 2.293275 
L 92.897697 4.352478 
L 92.852783 6.443234 
L 92.290253 6.824938 
L 92.152932 7.366819 
L 92.622322 7.524318 
L 92.400695 8.467371 
L 94.938344 8.536019 
L 95.055414 8.935534 
L 94.651556 9.438199 
L 94.707515 9.870192 
L 97.013228 10.361602 
L 97.935807 11.376348 
L 98.4976 11.490757 
L 98.720331 12.221322 
L 98.313527 12.505504 
L 98.403355 12.786547 
L 99.007486 13.377974 
L 101.38002 14.58814 
L 101.611952 15.182149 
L 102.633563 15.81436 
L 102.249585 16.484398 
L 103.100007 17.413521 
L 102.800335 17.888508 
L 104.052407 18.211902 
L 104.204083 18.523487 
L 105.290121 18.973006 
L 105.779023 19.655596 
L 105.791173 20.789179 
L 106.421072 21.465584 
L 105.111569 20.992072 
L 104.375642 21.584053 
L 103.920978 21.381067 
L 103.077181 21.548622 
L 101.993352 20.866868 
L 100.969533 21.110727 
L 99.661871 20.37804 
L 99.02037 20.609165 
L 98.820835 21.602876 
L 96.765463 22.012722 
L 95.574872 21.281421 
L 95.582972 21.589499 
L 95.08634 21.968528 
L 92.695583 22.668183 
L 92.077463 23.179247 
L 90.238928 22.34811 
L 89.4949 23.533365 
L 89.14921 23.597492 
L 88.857268 24.606054 
L 88.119132 24.829429 
L 86.103149 24.241419 
L 84.22817 24.247875 
L 83.019171 23.670103 
L 81.98173 23.807119 
L 81.122103 22.532645 
L 79.290197 21.37184 
L 77.809505 21.252539 
L 76.649469 22.041878 
L 75.47397 23.858512 
L 74.721109 24.118333 
L 75.093675 25.124866 
L 75.021885 27.157127 
L 74.472239 26.602977 
L 73.675935 26.807069 
L 73.437374 27.155281 
L 73.08285 26.847942 
L 72.228377 26.931166 
L 72.053873 26.654923 
L 70.863281 26.33079 
L 69.261469 26.938365 
L 67.944233 26.97241 
L 67.324639 28.301138 
L 67.373236 29.444502 
L 66.306711 31.548914 
L 65.863827 29.075068 
L 65.360202 28.510212 
L 64.902959 28.474414 
L 62.406915 25.696736 
L 62.197071 25.195914 
L 62.780585 25.063696 
L 62.42937 24.854158 
L 62.082943 23.813208 
L 61.097412 23.06788 
L 60.889406 21.130563 
L 60.394249 20.680487 
L 60.74178 19.949461 
L 60.74178 18.629408 
z
" clip-path="url(#pc4db6a36e1)" style="fill: #eeeeee; stroke: #000000; stroke-width: 0.3"/>
    <path d="M 86.360119 -6.112469 
L 86.91087 -7.200474 
L 87.99212 -8.043973 
L 87.305891 -9.635753 
L 87.803627 -10.265286 
L 88.985017 -10.919087 
L 88.567167 -11.365099 
L 88.33376 -12.361116 
L 89.448882 -12.880483 
L 89.38593 -13.481969 
L 90.451351 -14.71114 
L 90.268749 -15.924444 
L 90.938044 -16.505998 
L 94.107431 -16.56634 
L 94.096388 -31.829413 
L 97.655645 -31.853127 
L 97.658224 -38.971016 
L 119.982184 -38.96751 
L 120.605091 -39.798093 
L 120.849174 -39.606177 
L 120.648534 -38.971016 
L 126.866667 -38.971224 
L 128.219342 -37.948899 
L 129.780361 -38.156852 
L 130.083353 -38.971384 
L 140.05517 -38.972313 
L 140.070244 -37.738268 
L 141.58458 -35.62268 
L 141.36717 -35.438291 
L 141.288032 -35.873177 
L 140.843644 -36.15768 
L 141.281944 -33.86337 
L 141.093522 -33.092692 
L 141.338182 -30.332255 
L 142.016792 -27.781053 
L 142.392478 -27.260294 
L 142.873067 -27.349799 
L 143.169935 -26.948766 
L 143.766358 -26.79306 
L 144.465778 -26.179778 
L 144.302853 -25.947018 
L 144.571984 -25.594253 
L 145.122282 -25.79856 
L 144.805733 -25.481369 
L 145.426075 -25.504473 
L 146.182666 -24.753407 
L 144.86294 -23.010223 
L 144.45724 -23.081271 
L 144.304089 -22.846543 
L 144.170085 -23.090498 
L 142.236567 -22.247734 
L 141.906707 -21.239819 
L 140.37521 -21.356259 
L 140.468721 -20.569227 
L 140.029886 -19.395967 
L 140.306736 -18.555789 
L 139.297642 -16.573353 
L 139.144121 -15.582414 
L 138.421816 -14.467649 
L 138.782602 -11.361225 
L 138.301432 -8.989519 
L 137.395417 -6.965103 
L 137.347928 -5.854584 
L 135.795076 -5.632405 
L 134.476002 -3.363024 
L 133.604595 -2.631533 
L 133.606067 -1.667719 
L 133.146986 -0.611732 
L 133.197054 0.637464 
L 132.77037 1.259798 
L 132.470698 1.420529 
L 131.830857 0.706294 
L 130.779058 1.844123 
L 130.944355 3.065177 
L 130.035333 5.811116 
L 129.361133 5.65177 
L 129.688233 4.381817 
L 129.487774 3.240299 
L 127.579661 1.557453 
L 126.72022 1.22446 
L 126.517924 -1.846994 
L 126.966696 -4.029555 
L 125.266033 -4.050223 
L 125.319047 -3.288102 
L 122.952224 -3.277675 
L 123.900203 -2.218366 
L 123.901678 -0.805769 
L 124.19362 -0.000928 
L 122.455959 1.522576 
L 121.465455 3.098483 
L 119.682883 4.706225 
L 118.261275 4.848041 
L 115.581525 2.897622 
L 114.165441 3.655865 
L 114.15992 4.168957 
L 113.694029 4.714531 
L 111.666309 5.5453 
L 111.416994 6.275504 
L 108.571872 6.251001 
L 108.037429 5.308265 
L 105.135499 5.267482 
L 103.516016 5.718018 
L 100.950205 3.216216 
L 100.676119 2.365336 
L 97.99913 2.839123 
L 97.640552 3.980091 
L 96.999789 4.510345 
L 96.985982 5.576113 
L 96.585807 6.1012 
L 96.151946 7.838852 
L 94.56909 8.571264 
L 92.34658 8.389314 
L 92.622322 7.524318 
L 92.152932 7.366819 
L 92.290253 6.824938 
L 92.852783 6.443234 
L 92.897697 4.352478 
L 91.638262 2.293275 
L 90.106027 0.581272 
L 90.435888 -0.603518 
L 90.297466 -1.121871 
L 89.788317 -1.147153 
L 88.96845 -1.96777 
L 89.220262 -3.538327 
L 88.670616 -3.387013 
L 88.763023 -3.866613 
L 88.366894 -4.932103 
L 88.62644 -5.460422 
L 87.768655 -5.932827 
L 87.415969 -5.600852 
L 86.810733 -5.5621 
z
" clip-path="url(#pc4db6a36e1)" style="fill: #eeeeee; stroke: #000000; stroke-width: 0.3"/>
    <path d="M 141.336732 -34.716871 
L 141.479642 -34.819453 
L 141.375865 -34.523327 
z
" clip-path="url(#pc4db6a36e1)" style="fill: #eeeeee; stroke: #000000; stroke-width: 0.3"/>
    <path d="M 157.429683 0.306136 
L 157.540495 -2.22298 
L 159.814916 -5.136381 
L 160.695893 -4.563962 
L 161.101964 -4.810866 
L 161.37476 -5.514303 
L 162.26118 -5.806255 
L 163.01516 -5.023662 
L 163.317795 -4.081526 
L 163.185319 -3.29559 
L 162.577733 -3.127767 
L 162.039713 -2.577077 
L 161.048323 -2.322216 
L 160.6593 -1.73767 
L 160.114905 -1.757574 
L 160.430584 -1.37776 
L 161.328346 -1.834878 
L 162.382931 -1.89198 
L 162.69948 -1.449535 
L 161.39059 0.370259 
L 160.472798 -0.027592 
L 158.057374 0.543167 
z
" clip-path="url(#pc4db6a36e1)" style="fill: #eeeeee; stroke: #000000; stroke-width: 0.3"/>
    <path d="M 18.18825 11.369888 
L 18.537623 7.230727 
L 19.630657 7.094632 
L 19.832034 5.801521 
L 20.541085 5.106108 
L 20.520838 4.571519 
L 21.187555 4.411252 
L 21.459617 4.046246 
L 21.737568 3.340131 
L 21.39887 2.843276 
L 21.682712 2.307301 
L 22.111605 2.407869 
L 22.342803 1.721316 
L 21.960296 0.979216 
L 21.931949 -0.108602 
L 21.028513 -1.205373 
L 21.735726 -2.420245 
L 21.511157 -2.941179 
L 21.645161 -5.128079 
L 22.669351 -5.957923 
L 23.23814 -6.835836 
L 23.369939 -8.538243 
L 24.726932 -9.329889 
L 25.97422 -9.613517 
L 27.294765 -9.496522 
L 28.342518 -9.992731 
L 30.553249 -9.137605 
L 31.360229 -9.085659 
L 33.384126 -6.832882 
L 33.852778 -6.835282 
L 34.314068 -7.268475 
L 35.004344 -7.251127 
L 36.543204 -8.082264 
L 37.544568 -7.919319 
L 39.590002 -6.576383 
L 42.834861 -6.140055 
L 44.720886 -7.742355 
L 46.698577 -8.188738 
L 49.423611 -8.150633 
L 51.623666 -7.266261 
L 53.10215 -7.078405 
L 53.416918 -7.716151 
L 54.286482 -8.181171 
L 54.418649 -8.59591 
L 55.792946 -8.806277 
L 56.155573 -9.382574 
L 57.143683 -9.363566 
L 58.773657 -7.127766 
L 59.215437 -4.601053 
L 60.277545 -4.484612 
L 60.928799 -3.876209 
L 60.472664 -2.24217 
L 60.755768 -1.956328 
L 60.700179 -1.545468 
L 59.131868 -0.558493 
L 58.47951 -0.693941 
L 57.669214 0.232875 
L 56.899601 1.644459 
L 56.52961 3.315681 
L 55.800308 3.70163 
L 55.676613 5.498242 
L 54.465404 6.084224 
L 54.618551 6.497302 
L 54.171621 8.294835 
L 53.405872 8.842529 
L 52.732159 8.828596 
L 52.856963 9.23226 
L 52.22706 9.625869 
L 52.102627 11.145866 
L 51.485979 12.009295 
L 51.493342 12.518606 
L 50.480198 13.636134 
L 50.963208 14.292888 
L 49.857291 15.01884 
L 49.756417 15.84361 
L 49.17364 16.519736 
L 48.260629 16.597425 
L 47.987096 15.502776 
L 46.355462 14.109093 
L 46.060944 15.023821 
L 45.045221 15.007767 
L 44.803351 14.548835 
L 43.847638 15.334388 
L 43.54097 15.309203 
L 43.200801 16.249949 
L 41.946888 17.026001 
L 40.670515 18.519427 
L 40.218797 18.691781 
L 40.088476 19.206166 
L 40.389989 19.593129 
L 40.015949 21.148093 
L 39.057297 22.757674 
L 37.817186 21.748701 
L 38.429414 22.971994 
L 38.198091 23.330161 
L 35.597283 23.413128 
L 35.548583 22.750118 
L 35.396105 23.243998 
L 34.609077 23.142431 
L 34.795184 23.398745 
L 34.609077 23.486214 
L 33.863796 22.581859 
L 34.26557 23.43565 
L 33.764657 23.73003 
L 33.764657 22.994223 
L 33.475066 22.67921 
L 33.569855 23.118313 
L 33.253887 22.847761 
L 33.692475 23.867339 
L 33.499416 23.951471 
L 33.140254 23.861237 
L 32.843417 22.371464 
L 32.594989 22.309273 
L 33.147791 24.000728 
L 32.594989 24.022521 
L 32.66804 23.118313 
L 32.521939 23.778852 
L 32.375837 23.461804 
L 32.495558 24.08718 
L 32.22829 24.086602 
L 32.168572 23.567585 
L 32.006819 23.486214 
L 32.074944 24.09314 
L 31.00963 24.244108 
L 31.23052 23.73003 
L 30.982961 23.876203 
L 30.887883 23.510625 
L 30.839182 24.217662 
L 30.447844 24.317194 
L 30.362038 23.820989 
L 30.266087 24.234809 
L 30.005484 23.803263 
L 29.908664 24.097932 
L 29.653859 23.971957 
L 28.177499 22.262776 
L 27.85892 21.269787 
L 28.250257 21.209924 
L 27.786161 21.134366 
L 27.695717 20.489953 
L 28.542456 20.354097 
L 28.385922 20.016998 
L 28.671164 19.914998 
L 28.763346 19.789166 
L 27.992846 20.159393 
L 28.029371 20.305569 
L 27.189297 19.927493 
L 27.27771 19.642701 
L 28.299246 19.608991 
L 28.077779 19.374767 
L 27.645278 19.556249 
L 27.686442 19.130805 
L 27.482364 19.513094 
L 26.944056 19.475171 
L 26.849844 18.885682 
L 27.518309 18.46823 
L 26.643159 18.977512 
L 25.585675 17.651349 
L 24.366438 16.865702 
L 20.940049 16.681896 
L 20.731046 16.559845 
L 22.366263 15.965996 
L 21.195434 16.265026 
L 21.073975 15.996799 
L 20.793079 16.17552 
L 20.677127 16.540226 
L 20.729596 16.727086 
L 18.304939 16.831853 
L 18.620088 12.870692 
z
" clip-path="url(#pc4db6a36e1)" style="fill: #eeeeee; stroke: #000000; stroke-width: 0.3"/>
    <path d="M 34.099757 23.871264 
L 34.425585 23.386539 
L 34.58473 23.532565 
L 34.792573 23.532565 
L 34.670822 23.808059 
z
" clip-path="url(#pc4db6a36e1)" style="fill: #eeeeee; stroke: #000000; stroke-width: 0.3"/>
    <path d="M 34.808228 23.645903 
L 35.690042 23.558576 
L 35.146227 23.736422 
z
" clip-path="url(#pc4db6a36e1)" style="fill: #eeeeee; stroke: #000000; stroke-width: 0.3"/>
    <path d="M 11.412111 2.552638 
L 11.456658 1.388695 
L 11.884813 0.318498 
L 12.104966 0.384932 
L 12.169392 0.006453 
L 12.642461 0.193755 
L 12.457652 -0.214709 
L 12.800029 -0.299965 
L 12.718668 -0.636275 
L 13.412631 -0.738874 
L 13.801764 -1.399224 
L 14.378652 -1.095392 
L 15.73859 -1.185812 
L 16.772352 -2.035864 
L 17.154489 -3.092312 
L 17.424709 -3.203585 
L 17.084541 -4.060004 
L 17.561293 -4.289747 
L 18.805265 -4.704021 
L 21.484281 -2.191977 
L 21.028513 -1.205373 
L 21.931949 -0.108602 
L 21.960296 0.979216 
L 22.342803 1.721316 
L 22.111605 2.407869 
L 21.682712 2.307301 
L 21.39887 2.843276 
L 21.737568 3.340131 
L 21.459617 4.046246 
L 21.187555 4.411252 
L 20.520838 4.571519 
L 20.541085 5.106108 
L 19.832034 5.801521 
L 19.630657 7.094632 
L 18.537623 7.230727 
L 18.18825 11.369888 
L 18.620088 12.870692 
L 18.304939 16.831853 
L 14.442958 17.383411 
L 15.022543 17.157111 
L 14.252007 15.725601 
L 14.13052 14.605116 
L 14.46443 14.587772 
L 14.377178 7.257577 
L 13.398272 5.570578 
L 13.414839 3.876106 
z
" clip-path="url(#pc4db6a36e1)" style="fill: #eeeeee; stroke: #000000; stroke-width: 0.3"/>
    <path d="M 50.476272 96.197351 
L 51.389974 95.340946 
L 51.619271 93.969011 
L 51.93582 93.738854 
L 52.598486 91.113837 
L 52.589503 89.895051 
L 52.898514 89.132219 
L 53.208107 89.048816 
L 53.253908 87.515885 
L 54.783898 85.931808 
L 54.764766 85.340141 
L 55.616435 84.572659 
L 56.379979 84.460779 
L 57.259478 83.312026 
L 57.802424 81.677384 
L 57.995776 79.258988 
L 57.585884 78.011139 
L 57.729374 77.70281 
L 56.859734 76.73365 
L 54.967394 72.046227 
L 54.953188 71.846873 
L 55.288288 71.326696 
L 55.466858 71.250556 
L 55.026816 72.010192 
L 55.778769 70.903577 
L 55.685717 71.079684 
L 56.33447 70.83645 
L 56.330121 69.379659 
L 54.445959 65.518837 
L 54.387342 64.256039 
L 53.379726 63.25744 
L 52.452389 61.343327 
L 54.330078 61.11171 
L 55.639061 60.485498 
L 67.501352 60.595107 
L 68.255321 61.673888 
L 68.18169 62.658924 
L 68.40258 63.527702 
L 69.132986 64.621984 
L 69.035058 65.299957 
L 69.8575 66.098245 
L 70.354132 67.260431 
L 71.366542 68.492005 
L 72.320414 68.298982 
L 73.140281 68.530385 
L 73.219433 68.220371 
L 74.598884 68.131427 
L 74.630544 67.898177 
L 77.619174 68.147296 
L 77.619541 66.619364 
L 78.180599 66.281301 
L 78.211522 64.576219 
L 80.963065 64.576219 
L 81.052893 64.278383 
L 82.092912 64.269155 
L 81.76894 65.591887 
L 86.272867 65.581185 
L 86.543455 66.246977 
L 86.162422 68.130688 
L 86.83908 69.768233 
L 86.297901 73.16142 
L 86.607515 74.057512 
L 87.608508 75.037381 
L 88.155209 76.598159 
L 88.17693 78.000608 
L 87.628388 78.325755 
L 87.885358 79.744074 
L 88.8234 79.004467 
L 90.65199 79.218894 
L 92.225089 78.713643 
L 93.570672 78.954642 
L 94.047057 78.396984 
L 94.382806 80.306159 
L 94.001406 81.127329 
L 94.000302 82.966385 
L 94.272731 83.798997 
L 93.68443 85.243887 
L 94.165232 86.000102 
L 86.967196 86.000102 
L 86.981185 97.299967 
L 87.579057 98.841922 
L 88.227365 99.113184 
L 89.764387 100.884332 
L 91.960389 102.568006 
L 84.85476 103.901072 
L 84.051461 103.601761 
L 82.786501 103.961599 
L 81.112165 103.331234 
L 79.099128 103.457824 
L 75.961031 103.132676 
L 75.08042 102.556936 
L 74.406341 101.670807 
L 58.473251 101.791126 
L 56.837382 100.713823 
L 56.689386 100.315229 
L 55.572793 100.103756 
L 53.438636 101.116103 
L 52.28265 101.081411 
L 51.73227 100.775454 
L 50.55628 101.132657 
L 50.784126 98.418428 
z
" clip-path="url(#pc4db6a36e1)" style="fill: #eeeeee; stroke: #000000; stroke-width: 0.3"/>
    <path d="M 51.45257 57.497507 
L 52.086427 56.599051 
L 52.565021 56.635221 
L 52.796953 56.018511 
L 53.640383 55.853538 
L 54.131494 55.25344 
L 54.516944 55.327622 
L 55.242933 56.125171 
L 54.278382 56.498297 
L 53.836606 57.15708 
L 53.001276 57.624132 
L 53.308681 58.008328 
L 53.23137 60.020841 
L 52.168304 60.153601 
L 51.942777 59.634003 
L 52.234979 59.094643 
L 51.500712 57.591647 
L 51.776429 57.713159 
L 51.90654 57.480956 
z
" clip-path="url(#pc4db6a36e1)" style="fill: #eeeeee; stroke: #000000; stroke-width: 0.3"/>
    <path d="M 50.356773 98.494467 
L 50.420067 98.514786 
L 50.486894 99.228039 
z
" clip-path="url(#pc4db6a36e1)" style="fill: #eeeeee; stroke: #000000; stroke-width: 0.3"/>
    <path d="M 79.837634 118.135558 
L 83.422662 118.00454 
L 83.388057 104.989815 
L 91.643783 103.845712 
L 92.773264 105.555222 
L 95.411783 103.692548 
L 96.173482 104.037996 
L 97.558821 103.093925 
L 98.650383 103.114225 
L 98.633446 103.853461 
L 101.075928 107.139253 
L 101.103907 107.789176 
L 101.840939 109.338515 
L 102.36813 109.481713 
L 102.399052 109.746333 
L 103.830046 110.732105 
L 105.56789 111.323347 
L 105.805161 112.761595 
L 107.335922 112.809206 
L 107.223639 114.816553 
L 108.377045 116.533076 
L 110.604343 116.872985 
L 112.111174 117.411452 
L 112.117617 118.207897 
L 113.220222 118.799879 
L 112.111174 118.932742 
L 111.725353 119.707408 
L 111.320761 119.893418 
L 109.486276 120.289426 
L 107.533619 122.492378 
L 107.014895 122.477983 
L 106.804317 122.992461 
L 105.303008 123.578907 
L 104.732193 124.270535 
L 104.276243 126.223446 
L 103.179159 126.91286 
L 102.727441 127.534737 
L 100.818224 127.946611 
L 100.700049 128.904337 
L 99.81686 131.058202 
L 99.357964 131.385564 
L 96.531689 131.786 
L 95.370182 131.530608 
L 94.816486 131.081085 
L 93.895011 131.092898 
L 92.236869 129.853575 
L 90.710159 129.915209 
L 90.047492 130.564025 
L 89.569636 132.405663 
L 88.980597 133.157447 
L 87.923276 133.655687 
L 87.24441 134.62227 
L 86.257404 134.838543 
L 86.192243 135.28954 
L 85.843974 135.4988 
L 83.148024 135.273671 
L 82.37528 135.6014 
L 82.07082 134.178282 
L 82.912042 132.885817 
L 82.187157 131.061156 
L 82.253422 130.516414 
L 81.21451 128.964497 
L 79.84868 127.962113 
z
" clip-path="url(#pc4db6a36e1)" style="fill: #eeeeee; stroke: #000000; stroke-width: 0.3"/>
    <path d="M 98.633446 103.853461 
L 98.650383 103.114225 
L 99.56468 103.357806 
L 100.152245 103.176227 
L 101.01813 103.845712 
L 102.041949 103.430881 
L 103.78053 104.096677 
L 104.924918 103.701407 
L 106.905558 101.57522 
L 107.758926 100.134391 
L 111.292411 98.444067 
L 111.464707 96.92352 
L 111.732349 96.578072 
L 114.064938 95.478259 
L 116.946802 95.407765 
L 116.969261 96.712043 
L 120.023419 96.791392 
L 120.538459 97.287048 
L 121.628914 97.485606 
L 122.339807 98.239239 
L 123.694043 98.320803 
L 125.052324 98.849303 
L 125.264377 99.238666 
L 126.109278 99.141602 
L 125.611542 100.046921 
L 126.298508 101.512479 
L 125.99552 102.05796 
L 126.308814 102.489763 
L 125.962757 103.752707 
L 126.061051 104.764686 
L 126.373792 105.106438 
L 125.761009 105.762639 
L 125.874215 106.61518 
L 125.122272 106.8285 
L 125.085459 107.259568 
L 125.70818 107.719425 
L 125.378505 109.077216 
L 125.623692 109.208973 
L 125.57896 109.828264 
L 126.019083 109.738948 
L 126.338268 110.22058 
L 126.247332 111.105599 
L 125.812919 111.359149 
L 125.052324 112.890402 
L 124.374932 113.144687 
L 124.408434 114.334924 
L 123.869833 115.040946 
L 124.252337 115.682381 
L 120.126501 119.552034 
L 118.519901 119.141263 
L 116.728491 119.364178 
L 114.676432 118.600582 
L 113.244704 118.815009 
L 112.117617 118.207897 
L 112.111174 117.411452 
L 110.604343 116.872985 
L 108.377045 116.533076 
L 107.223639 114.816553 
L 107.335922 112.809206 
L 105.805161 112.761595 
L 105.56789 111.323347 
L 103.830046 110.732105 
L 102.399052 109.746333 
L 102.36813 109.481713 
L 101.840939 109.338515 
L 101.103907 107.789176 
L 101.075928 107.139253 
z
" clip-path="url(#pc4db6a36e1)" style="fill: #eeeeee; stroke: #000000; stroke-width: 0.3"/>
    <path d="M 56.58152 -11.98799 
L 57.323706 -12.37966 
L 57.950848 -14.061124 
L 59.856753 -16.668018 
L 63.762807 -20.756894 
L 64.726249 -31.501316 
L 65.560842 -33.046777 
L 64.13574 -34.53079 
L 64.043333 -35.024967 
L 64.274898 -35.240501 
L 62.76181 -37.170716 
L 62.717263 -38.964003 
L 62.032939 -42.543061 
L 65.613486 -44.146607 
L 94.096388 -30.04646 
L 94.107431 -16.56634 
L 90.938044 -16.505998 
L 90.268749 -15.924444 
L 90.451351 -14.71114 
L 89.38593 -13.481969 
L 89.448882 -12.880483 
L 88.33376 -12.361116 
L 88.567167 -11.365099 
L 88.985017 -10.919087 
L 87.803627 -10.265286 
L 87.305891 -9.635753 
L 87.99212 -8.043973 
L 86.91087 -7.200474 
L 86.360119 -6.112469 
L 86.810733 -5.5621 
L 87.415969 -5.600852 
L 87.768655 -5.932827 
L 88.62644 -5.460422 
L 88.366894 -4.932103 
L 88.763023 -3.866613 
L 88.670616 -3.387013 
L 89.220262 -3.538327 
L 88.96845 -1.96777 
L 89.788317 -1.147153 
L 90.297466 -1.121871 
L 90.324338 -0.018365 
L 90.106027 0.581272 
L 88.631594 0.298755 
L 86.050873 1.589838 
L 86.037251 2.804246 
L 85.305004 3.14748 
L 84.810213 3.959515 
L 84.391996 3.950102 
L 82.857557 5.941487 
L 82.293919 6.35595 
L 81.84478 6.285917 
L 81.464851 6.941193 
L 76.430791 7.487227 
L 75.888875 7.97218 
L 76.79489 8.5947 
L 74.889719 10.834374 
L 71.50791 11.058768 
L 68.535847 12.634861 
L 67.854405 12.14954 
L 67.621001 11.469535 
L 67.063622 11.778074 
L 66.987416 12.174822 
L 65.400329 12.833047 
L 63.818026 12.70775 
L 64.109601 11.746521 
L 63.67445 11.57878 
L 62.758864 9.294355 
L 59.787538 6.833244 
L 58.355811 5.15704 
L 59.189666 3.941429 
L 61.294372 4.14294 
L 64.531131 3.89465 
L 62.573687 1.9327 
L 62.180137 -0.359292 
L 62.587675 -1.602949 
L 62.341384 -2.13791 
L 62.499689 -2.503098 
L 62.28064 -3.5804 
L 61.741303 -3.823984 
L 61.501637 -5.486072 
L 60.518682 -6.016879 
L 60.031991 -7.139025 
L 58.773657 -7.127766 
L 57.143683 -9.363566 
z
" clip-path="url(#pc4db6a36e1)" style="fill: #eeeeee; stroke: #000000; stroke-width: 0.3"/>
    <path d="M 116.299228 93.070476 
L 126.943504 89.615283 
L 128.51844 91.714527 
L 128.787557 91.314462 
L 129.964345 91.33402 
L 131.009149 90.949085 
L 131.62911 91.734828 
L 131.810607 94.104966 
L 130.614124 96.314192 
L 131.224517 96.920935 
L 131.302562 97.685638 
L 133.008931 99.353079 
L 133.766947 99.683761 
L 133.580666 100.67064 
L 134.385436 100.740395 
L 134.336473 99.209881 
L 133.815544 98.627495 
L 134.679958 97.211019 
L 135.178428 97.319525 
L 136.142241 96.858562 
L 136.339568 94.626454 
L 136.138928 93.750295 
L 136.566716 92.732781 
L 136.363498 91.888356 
L 133.645092 88.509563 
L 132.857989 87.836758 
L 132.065365 87.75298 
L 131.725933 87.158046 
L 131.544806 84.878513 
L 131.044491 83.136154 
L 131.980324 80.918069 
L 135.238805 81.04097 
L 136.289133 80.329409 
L 137.506229 80.919548 
L 137.618883 81.357997 
L 139.136392 81.428858 
L 139.82888 80.901093 
L 140.585054 80.87009 
L 140.974187 81.262407 
L 142.142689 81.422213 
L 143.379669 80.758263 
L 143.811141 79.866971 
L 144.945772 79.842613 
L 145.785152 80.329409 
L 147.224242 79.451772 
L 148.442076 79.475026 
L 149.369442 78.819564 
L 150.392895 78.612151 
L 152.974279 76.987929 
L 152.960362 77.304395 
L 153.488817 77.735067 
L 152.884704 78.003586 
L 153.365328 78.284889 
L 152.922967 78.694928 
L 152.960073 78.985823 
L 153.172265 78.90271 
L 152.960073 79.522276 
L 152.398284 79.985204 
L 152.815133 80.228438 
L 152.678888 81.174351 
L 153.008774 81.849131 
L 153.025586 83.154227 
L 152.762953 83.365204 
L 153.154294 83.806342 
L 152.859196 84.213185 
L 153.157771 84.316638 
L 153.459829 85.160259 
L 152.619463 85.78796 
L 152.877747 86.073041 
L 152.937461 85.809175 
L 153.276042 85.907979 
L 153.033124 87.818111 
L 153.276042 88.013105 
L 153.077186 88.267383 
L 153.473162 89.679713 
L 153.074287 90.153104 
L 153.262709 90.505897 
L 153.636076 90.21762 
L 153.81348 90.533215 
L 153.76478 90.779644 
L 153.422143 90.779644 
L 153.397792 91.588102 
L 153.651147 91.108605 
L 154.010601 91.03247 
L 154.156991 91.224268 
L 153.86653 91.475929 
L 154.107421 91.439894 
L 154.176411 92.08329 
L 153.742752 92.732784 
L 153.446493 92.614512 
L 153.912619 93.128586 
L 153.545632 93.053321 
L 153.691733 93.397105 
L 153.0366 93.604594 
L 152.982104 93.7868 
L 153.419243 93.724613 
L 153.583895 93.968718 
L 153.228214 94.893998 
L 151.387181 96.668999 
L 151.635898 96.659411 
L 151.128608 97.501868 
L 150.384193 97.785788 
L 150.471737 98.096441 
L 150.642769 98.242324 
L 148.053844 99.806637 
L 147.91615 100.220746 
L 146.393119 100.369825 
L 144.647457 101.305276 
L 144.319602 100.95946 
L 144.487443 101.30092 
L 141.144542 102.916378 
L 140.412882 103.893677 
L 140.070533 103.424643 
L 139.873993 103.412437 
L 140.388532 104.015727 
L 138.592142 105.836354 
L 138.359077 106.652078 
L 137.755836 106.328056 
L 137.858456 107.030732 
L 137.4303 107.065024 
L 137.348555 106.708745 
L 136.39224 107.246652 
L 133.797228 109.937924 
L 132.918309 110.503437 
L 132.015913 109.548225 
L 131.754148 109.499692 
L 132.553352 110.330819 
L 132.30985 110.576666 
L 132.543784 111.534496 
L 132.117659 111.532168 
L 132.431309 111.800105 
L 132.064321 112.334233 
L 132.335069 112.658838 
L 132.164041 112.923576 
L 132.419134 112.863713 
L 132.891059 113.537618 
L 133.321822 113.598645 
L 133.479517 114.342298 
L 133.773458 114.442266 
L 133.404148 114.958958 
L 133.603007 115.711909 
L 133.797808 115.200156 
L 133.773458 115.909228 
L 134.310897 116.862404 
L 134.434386 119.520838 
L 134.749197 119.874795 
L 134.917906 118.560105 
L 135.129517 118.511865 
L 135.188366 119.240699 
L 135.309825 118.772829 
L 135.088935 120.597233 
L 135.261413 121.514665 
L 135.504623 121.399585 
L 135.050091 122.335617 
L 134.736149 124.375067 
L 134.704842 124.123988 
L 134.557875 124.118756 
L 134.529465 125.148361 
L 134.699627 124.719432 
L 135.005739 124.847007 
L 135.040526 124.497992 
L 135.224018 124.571514 
L 135.115315 125.636864 
L 133.724758 127.410122 
L 127.208823 129.905822 
L 127.358401 129.747151 
L 125.768115 130.78809 
L 125.106607 132.009494 
L 124.766288 132.306199 
L 124.499597 132.238197 
L 124.357845 132.361705 
L 125.660281 133.447688 
L 126.059156 132.698511 
L 125.840585 135.438316 
L 123.065059 135.416497 
L 122.910804 132.451796 
L 122.478599 132.267261 
L 122.323977 131.749095 
L 122.644266 131.120208 
L 122.611503 126.785903 
L 122.12665 125.027303 
L 120.976738 123.335323 
L 121.007849 122.264663 
L 120.091525 119.61625 
L 124.252337 115.682381 
L 123.869833 115.040946 
L 124.408434 114.334924 
L 124.374932 113.144687 
L 125.052324 112.890402 
L 125.812919 111.359149 
L 126.247332 111.105599 
L 126.338268 110.22058 
L 126.019083 109.738948 
L 125.57896 109.828264 
L 125.623692 109.208973 
L 125.378505 109.077216 
L 125.70818 107.719425 
L 125.085459 107.259568 
L 125.122272 106.8285 
L 125.874215 106.61518 
L 125.761009 105.762639 
L 126.373792 105.106438 
L 126.061051 104.764686 
L 125.962757 103.752707 
L 126.308814 102.489763 
L 125.99552 102.05796 
L 126.298508 101.512479 
L 125.611542 100.046921 
L 126.109278 99.141602 
L 125.264377 99.238666 
L 125.052324 98.849303 
L 123.694043 98.320803 
L 122.339807 98.239239 
L 121.628914 97.485606 
L 120.538459 97.287048 
L 120.023419 96.791392 
L 116.969261 96.712043 
L 116.934652 94.853429 
z
M 132.119853 82.696227 
L 132.237661 82.868581 
L 132.499045 82.567795 
L 132.256066 82.425333 
z
M 131.721516 82.464456 
L 131.960445 82.682943 
L 132.018613 82.378464 
z
" clip-path="url(#pc4db6a36e1)" style="fill: #eeeeee; stroke: #000000; stroke-width: 0.3"/>
    <path d="M 134.894714 117.357885 
L 134.903993 116.965279 
L 135.018203 116.522981 
L 135.093573 116.85427 
z
" clip-path="url(#pc4db6a36e1)" style="fill: #eeeeee; stroke: #000000; stroke-width: 0.3"/>
    <path d="M 150.519412 97.841056 
L 150.964793 97.786706 
L 150.722944 98.196284 
z
" clip-path="url(#pc4db6a36e1)" style="fill: #eeeeee; stroke: #000000; stroke-width: 0.3"/>
    <path d="M 125.930449 132.421857 
L 126.159453 132.306199 
L 126.083507 132.574425 
z
" clip-path="url(#pc4db6a36e1)" style="fill: #eeeeee; stroke: #000000; stroke-width: 0.3"/>
    <path d="M 111.926549 49.559865 
L 112.089271 48.930978 
L 113.021973 49.039485 
L 113.183223 49.665786 
L 114.53764 49.590868 
L 115.171593 49.111082 
L 115.291976 47.846295 
L 115.95133 48.255588 
L 116.88385 47.796838 
L 117.510807 48.145239 
L 117.017117 49.019923 
L 117.396679 49.033578 
L 117.016384 49.755837 
L 117.275192 50.083938 
L 118.475725 50.209052 
L 118.437803 51.170099 
L 117.075104 52.256258 
L 116.894526 53.100678 
L 116.645656 53.106217 
L 115.545997 54.827539 
L 114.583658 55.511047 
L 113.412947 55.4627 
L 113.182486 54.189422 
L 112.739235 53.498901 
L 112.809001 50.451897 
z
" clip-path="url(#pc4db6a36e1)" style="fill: #eeeeee; stroke: #000000; stroke-width: 0.3"/>
    <path d="M 111.470414 48.20798 
L 112.453551 47.420762 
L 112.438092 46.155236 
L 113.194266 44.98825 
L 114.880385 44.295515 
L 115.394321 44.803348 
L 116.059566 44.375972 
L 116.737325 43.380233 
L 117.215819 43.382369 
L 117.513383 44.280753 
L 118.162428 44.595934 
L 118.521372 45.341076 
L 118.374113 46.462297 
L 118.697715 47.009252 
L 118.507384 47.947788 
L 117.393733 48.140807 
L 116.88385 47.796838 
L 115.95133 48.255588 
L 115.291976 47.846295 
L 115.171593 49.111082 
L 114.53764 49.590868 
L 113.183223 49.665786 
L 113.065415 49.071962 
L 112.377344 48.837974 
L 112.027971 49.288232 
L 111.586195 49.045387 
z
" clip-path="url(#pc4db6a36e1)" style="fill: #eeeeee; stroke: #000000; stroke-width: 0.3"/>
    <path d="M 113.948972 42.888638 
L 114.47763 39.313869 
L 115.323269 37.793318 
L 115.347566 36.628179 
L 116.086809 36.327942 
L 116.386114 35.516185 
L 117.23893 35.149701 
L 120.064282 32.063116 
L 119.72982 31.349249 
L 119.294117 31.39446 
L 118.983399 30.983136 
L 118.640655 31.245174 
L 118.066341 30.841417 
L 118.575124 29.383607 
L 118.184886 28.661898 
L 118.776868 27.455146 
L 118.728274 27.003227 
L 118.525789 27.109516 
L 118.899463 26.434311 
L 119.862538 26.030553 
L 120.962931 26.517167 
L 121.868209 25.944562 
L 122.410126 26.723292 
L 123.257787 27.030813 
L 123.328287 26.649016 
L 123.983773 26.249412 
L 125.353838 26.11387 
L 126.211623 25.697843 
L 126.807287 26.135185 
L 127.969165 26.182703 
L 129.804936 24.554479 
L 130.085466 25.727089 
L 130.513621 25.737055 
L 130.326602 26.090252 
L 131.349688 26.475555 
L 131.141682 27.157127 
L 131.329438 28.209979 
L 132.902536 30.319744 
L 133.073358 30.726451 
L 132.866827 31.19 
L 133.368613 32.727802 
L 133.248226 33.665598 
L 132.558317 34.614372 
L 132.62569 35.17369 
L 131.518298 35.707361 
L 131.165612 36.659549 
L 130.316294 37.417239 
L 130.086937 38.333632 
L 129.40439 39.180634 
L 129.617918 40.123966 
L 129.442308 43.152887 
L 118.303428 43.093099 
L 116.737325 43.380233 
L 116.059566 44.375972 
L 115.316091 44.832504 
L 114.912415 44.300311 
L 114.031804 44.530611 
z
" clip-path="url(#pc4db6a36e1)" style="fill: #eeeeee; stroke: #000000; stroke-width: 0.3"/>
    <path d="M 38.987727 23.407026 
L 39.315364 22.141896 
L 40.015949 21.148093 
L 40.389989 19.593129 
L 40.088476 19.206166 
L 40.180879 18.750551 
L 41.946888 17.026001 
L 43.200801 16.249949 
L 43.54097 15.309203 
L 43.847638 15.334388 
L 44.803351 14.548835 
L 45.045221 15.007767 
L 46.060944 15.023821 
L 46.355462 14.109093 
L 47.987096 15.502776 
L 48.202094 16.543447 
L 48.766466 16.61182 
L 49.756417 15.84361 
L 49.857291 15.01884 
L 50.963208 14.292888 
L 50.480198 13.636134 
L 51.493342 12.518606 
L 51.485979 12.009295 
L 52.102627 11.145866 
L 52.22706 9.625869 
L 52.856963 9.23226 
L 52.732159 8.828596 
L 53.405872 8.842529 
L 54.248564 8.189282 
L 54.618551 6.497302 
L 54.465404 6.084224 
L 55.676613 5.498242 
L 55.800308 3.70163 
L 56.52961 3.315681 
L 56.899601 1.644459 
L 57.669214 0.232875 
L 58.47951 -0.693941 
L 59.131868 -0.558493 
L 60.737363 -1.630999 
L 60.472664 -2.24217 
L 60.922911 -3.914221 
L 60.277545 -4.484612 
L 59.215437 -4.601053 
L 58.773657 -7.127766 
L 60.031991 -7.139025 
L 60.518682 -6.016879 
L 61.460407 -5.559515 
L 61.741303 -3.823984 
L 62.28064 -3.5804 
L 62.587675 -1.602949 
L 62.180137 -0.359292 
L 62.596879 2.000698 
L 64.531131 3.89465 
L 61.294372 4.14294 
L 59.189666 3.941429 
L 58.349919 5.103894 
L 59.787538 6.833244 
L 62.289474 8.706434 
L 63.67445 11.57878 
L 64.109601 11.746521 
L 63.646103 13.184583 
L 62.902076 13.692419 
L 61.293264 17.010503 
L 59.921913 18.007809 
L 60.74178 18.629408 
L 60.74178 19.949461 
L 60.394249 20.680487 
L 60.889406 21.130563 
L 61.097412 23.06788 
L 62.082943 23.813208 
L 62.42937 24.854158 
L 62.780585 25.063696 
L 62.197071 25.195914 
L 62.406915 25.696736 
L 65.995626 29.348176 
L 65.988263 30.607982 
L 66.406477 31.634352 
L 66.038332 31.739723 
L 65.893648 32.374237 
L 66.221667 33.434102 
L 65.91537 33.664491 
L 65.71583 33.247539 
L 64.622063 32.673827 
L 63.824655 32.517156 
L 63.306301 32.711379 
L 62.861946 32.289445 
L 61.721423 32.4081 
L 61.595148 32.016891 
L 61.266759 32.19718 
L 60.54482 31.685284 
L 60.084635 31.959131 
L 56.029665 31.855792 
L 55.994323 31.56589 
L 55.563959 31.419743 
L 54.089522 31.585637 
L 50.19746 31.279312 
L 49.108843 31.357555 
L 49.003552 31.839001 
L 44.262172 31.839555 
L 43.620489 31.485065 
L 44.136585 28.679724 
L 44.042952 27.890299 
L 43.019382 26.935087 
L 43.651615 26.617896 
L 42.962856 26.717428 
L 42.676745 25.933088 
L 42.955899 26.181118 
L 42.944594 25.736063 
L 43.384055 25.933088 
L 43.141133 25.614008 
L 43.455075 25.440954 
L 42.936768 25.430638 
L 43.419999 24.804533 
L 42.795885 25.242618 
L 42.436723 24.891278 
L 42.628914 25.326749 
L 42.292364 25.180284 
L 42.430928 25.589597 
L 41.95581 25.589597 
L 41.894066 25.175052 
L 41.482727 25.41669 
L 40.629608 24.929205 
L 40.50322 23.313307 
L 40.187251 23.004686 
L 40.26146 23.344402 
L 40.014773 23.142431 
L 39.978536 23.35559 
L 39.503711 22.652767 
L 39.744314 23.456719 
z
" clip-path="url(#pc4db6a36e1)" style="fill: #eeeeee; stroke: #000000; stroke-width: 0.3"/>
    <path d="M 39.647782 41.667485 
L 40.177976 42.43032 
L 40.47945 42.026963 
L 40.773099 42.695929 
L 41.091389 41.714275 
L 41.823915 40.759352 
L 41.962479 38.302308 
L 42.015236 38.926084 
L 42.243664 38.829316 
L 42.470641 39.221628 
L 42.528325 38.901531 
L 42.822266 39.171789 
L 43.269841 39.091293 
L 43.625234 39.488837 
L 43.434205 39.124421 
L 44.38559 38.901531 
L 43.554214 38.926084 
L 42.506294 38.533771 
L 41.821019 37.62927 
L 41.857544 37.336779 
L 42.652395 37.139314 
L 42.724284 37.353344 
L 42.434116 37.362061 
L 42.385127 37.434276 
L 42.774146 37.434276 
L 42.774146 37.751324 
L 42.897635 37.89735 
L 42.841109 35.950602 
L 43.386374 35.788593 
L 44.095033 36.270186 
L 44.399122 35.989325 
L 49.054358 36.004827 
L 49.108843 31.357555 
L 52.563917 31.30939 
L 54.089522 31.585637 
L 55.563959 31.419743 
L 55.994323 31.56589 
L 55.558068 32.788607 
L 55.442101 33.886207 
L 55.875411 34.796136 
L 55.515362 35.085485 
L 56.916168 34.989527 
L 57.811319 34.450506 
L 59.057132 34.603392 
L 59.440744 34.820497 
L 59.550085 35.537221 
L 60.209805 36.311705 
L 59.71354 37.354498 
L 58.81305 37.646432 
L 58.347344 38.321451 
L 58.083748 38.87136 
L 58.261566 39.761913 
L 57.941277 40.306287 
L 58.882264 40.560572 
L 59.111251 41.197947 
L 59.684456 41.159935 
L 60.287854 41.718699 
L 59.938847 43.175769 
L 60.279753 44.605529 
L 60.192134 45.103031 
L 59.842027 45.329267 
L 60.140962 45.594258 
L 59.983394 46.332758 
L 59.397672 46.651259 
L 59.069649 47.517456 
L 59.377421 47.982112 
L 58.863118 48.495111 
L 57.993183 48.380702 
L 58.208181 47.999456 
L 57.627613 47.061291 
L 56.615021 48.289543 
L 54.869997 48.044481 
L 55.009526 47.70199 
L 54.284274 46.425763 
L 53.670938 46.090281 
L 53.151481 46.446427 
L 52.939061 46.300648 
L 53.198603 47.055756 
L 53.05429 47.892796 
L 51.640234 48.196539 
L 51.198824 47.889843 
L 50.549408 48.196906 
L 49.873121 47.892056 
L 50.080389 48.974158 
L 49.746846 49.809723 
L 50.124566 49.690147 
L 50.628928 50.305746 
L 50.305326 50.896252 
L 51.220175 51.368286 
L 50.794966 52.325273 
L 51.08175 52.583619 
L 50.305696 52.780702 
L 49.575287 52.104204 
L 48.613315 52.775535 
L 48.262425 53.630996 
L 47.727276 52.754809 
L 46.596873 51.899304 
L 46.557665 51.405584 
L 43.94672 49.215813 
L 43.237954 48.296717 
L 43.563778 48.503335 
L 43.724665 48.345539 
L 44.213404 48.959581 
L 44.852009 48.76052 
L 44.783888 48.598072 
L 44.23775 48.715476 
L 43.847282 48.176406 
L 43.410724 48.394361 
L 43.311004 48.068303 
L 43.237954 48.270564 
L 42.858791 47.972402 
L 42.747477 47.402243 
L 41.698399 46.274123 
L 42.396721 46.437732 
L 42.667181 46.96779 
L 42.576445 46.45197 
L 42.066255 46.069245 
L 41.945085 46.315678 
L 41.641873 46.126205 
L 41.516064 45.214004 
L 40.791361 44.271579 
L 40.673671 43.96819 
L 40.801217 44.232056 
L 41.299232 44.815007 
L 41.674918 45.055334 
L 41.730575 45.554299 
L 42.725445 45.31339 
L 42.358458 44.823723 
L 41.753187 45.165183 
L 41.617522 44.864989 
L 41.922477 44.56712 
L 41.927115 44.155628 
L 41.882471 44.468027 
L 41.393733 44.609839 
L 40.839192 44.211713 
L 40.849918 43.834512 
L 40.26001 43.061507 
L 40.4035 43.174262 
L 40.50322 43.013267 
L 40.160871 42.866805 
z
" clip-path="url(#pc4db6a36e1)" style="fill: #eeeeee; stroke: #000000; stroke-width: 0.3"/>
    <path d="M 42.07432 36.680371 
L 42.100323 36.681646 
L 42.084497 36.691138 
z
" clip-path="url(#pc4db6a36e1)" style="fill: #eeeeee; stroke: #000000; stroke-width: 0.3"/>
    <path d="M 40.552212 41.935711 
L 40.880067 41.964771 
L 40.755705 42.294318 
z
" clip-path="url(#pc4db6a36e1)" style="fill: #eeeeee; stroke: #000000; stroke-width: 0.3"/>
    <path d="M -10.997998 2.344114 
L -10.673292 0.847185 
L -10.932652 0.033028 
L -10.320973 -0.14154 
L -9.914169 -1.215061 
L -10.159356 -2.417478 
L -10.605367 -2.666043 
L -9.454721 -3.204324 
L -8.286218 -3.301943 
L -7.570905 -3.812175 
L -7.313386 -4.423532 
L -7.021169 -4.376292 
L -7.183246 -4.832824 
L -6.953889 -5.1851 
L -7.302985 -5.830409 
L -6.49223 -5.852738 
L -6.329234 -6.203628 
L -6.739443 -7.45116 
L -6.410869 -7.476349 
L -5.495193 -8.634476 
L -5.282311 -8.46 
L -5.473379 -8.23035 
L -3.613496 -7.452085 
L -3.61018 -7.798361 
L -2.89809 -7.894776 
L -3.034581 -9.340962 
L -2.25291 -9.015997 
L -1.6393 -9.176264 
L -1.539716 -10.422139 
L -0.578296 -11.21406 
L -0.094919 -11.423319 
L 1.008609 -10.977768 
L 1.421668 -11.067359 
L 1.560093 -12.101017 
L 2.629197 -12.191808 
L 4.831828 -13.263943 
L 6.110038 -14.271309 
L 7.007031 -14.276476 
L 7.157235 -14.000415 
L 7.830581 -14.225451 
L 9.451906 -13.673235 
L 9.239483 -12.191808 
L 10.058613 -11.318691 
L 9.988665 -10.559709 
L 10.790679 -9.30922 
L 11.868616 -9.045154 
L 12.290146 -8.512132 
L 13.192845 -8.085031 
L 12.177122 -8.164842 
L 12.177122 -6.964825 
L 14.244277 -5.535711 
L 15.241221 -5.442706 
L 15.696989 -5.864547 
L 16.186259 -5.798117 
L 16.670374 -4.792965 
L 15.982306 -4.499375 
L 17.187623 -2.908887 
L 16.821682 -2.083103 
L 15.836152 -1.231855 
L 14.378652 -1.095392 
L 13.801764 -1.399224 
L 13.412631 -0.738874 
L 12.792666 -0.727065 
L 12.800029 -0.299965 
L 12.457652 -0.214709 
L 12.654245 0.177608 
L 12.169392 0.006453 
L 12.104966 0.384932 
L 10.410746 0.530986 
L 10.407067 0.281132 
L 7.599108 -0.289259 
L 6.412656 0.621224 
L 5.725141 0.271719 
L -1.433043 0.299676 
L -1.772018 1.598419 
L -1.184451 2.35943 
L -1.447127 2.637705 
L -1.139537 2.93222 
L -1.06462 4.496319 
L -1.283301 4.863356 
L -0.905396 5.689233 
L -1.170648 6.035045 
L -2.777429 4.164808 
L -3.087228 4.43081 
L -3.142265 4.215829 
L -4.701924 4.092472 
L -6.109726 4.512373 
L -6.89664 5.352737 
L -7.361613 5.095406 
L -7.390975 4.773858 
L -8.000534 4.998802 
L -8.411481 4.740181 
L -8.418659 4.425828 
L -9.015705 4.216936 
L -9.005949 3.719528 
L -9.386244 3.470134 
L -9.561116 2.815319 
L -10.570395 2.790223 
z
" clip-path="url(#pc4db6a36e1)" style="fill: #eeeeee; stroke: #000000; stroke-width: 0.3"/>
    <path d="M 8.082026 -0.189427 
L 10.407067 0.281132 
L 10.410746 0.530986 
L 11.884813 0.318498 
L 11.383397 2.498846 
L 13.46049 3.997621 
L 13.398272 5.570578 
L 14.358035 7.160144 
L 14.530328 9.243148 
L 14.46443 14.587772 
L 14.13052 14.605116 
L 14.252007 15.725601 
L 15.022543 17.157111 
L 14.442958 17.383411 
L 12.896154 17.788365 
L 12.177122 16.988081 
L 11.330013 16.572789 
L 10.5234 15.175322 
L 10.435414 14.672285 
L 10.803929 14.464871 
L 10.973647 13.420786 
L 10.439097 12.775473 
L 10.854735 12.078678 
L 10.717785 10.277085 
L 11.212575 9.941328 
L 9.976978 8.240489 
L 10.474806 7.911746 
L 10.209922 7.335909 
L 10.566476 6.002107 
L 10.140066 5.676685 
L 9.481635 5.890558 
L 9.749184 5.622339 
L 9.493689 5.37848 
L 10.019223 5.329669 
L 9.603308 5.087746 
L 9.910064 5.066342 
L 10.086411 2.852132 
L 8.359795 1.601372 
L 8.731438 0.069101 
z
" clip-path="url(#pc4db6a36e1)" style="fill: #eeeeee; stroke: #000000; stroke-width: 0.3"/>
    <path d="M -2.947514 15.943442 
L -2.873334 15.251536 
L -1.915594 13.808674 
L -1.804137 12.515285 
L -1.266641 11.207868 
L -0.625233 10.862517 
L -0.625604 10.416683 
L -0.253957 10.25808 
L -0.656896 7.707189 
L -1.210407 7.238108 
L -0.800657 6.459932 
L -1.283301 4.863356 
L -1.06462 4.496319 
L -1.139537 2.93222 
L -1.447127 2.637705 
L -1.184451 2.35943 
L -1.772018 1.598419 
L -1.433043 0.299676 
L 5.725141 0.271719 
L 6.412656 0.621224 
L 7.599108 -0.289259 
L 8.731438 0.069101 
L 8.359795 1.601372 
L 10.086411 2.852132 
L 9.910064 5.066342 
L 9.603308 5.087746 
L 10.019223 5.329669 
L 9.493689 5.37848 
L 9.749184 5.622339 
L 9.481635 5.890558 
L 10.140066 5.676685 
L 10.566476 6.002107 
L 10.209922 7.335909 
L 10.474806 7.911746 
L 9.976978 8.240489 
L 11.212575 9.941328 
L 10.717785 10.277085 
L 10.854735 12.078678 
L 10.439097 12.775473 
L 10.973647 13.420786 
L 10.803929 14.464871 
L 10.435414 14.672285 
L 10.511987 15.141183 
L 11.330013 16.572789 
L 12.177122 16.988081 
L 12.896154 17.788365 
L 12.074923 18.893238 
L 9.540494 19.017907 
L 5.825676 20.950996 
L 2.908608 21.637981 
L 1.615739 22.602203 
L 1.205558 22.652039 
L 0.279393 22.005158 
L -2.438528 21.391987 
L -1.181138 21.143112 
L -1.262869 20.479533 
L -1.051184 20.385604 
L -1.276672 19.546536 
L -1.8196 19.545982 
L -1.887062 19.183558 
L -2.118446 19.203306 
z
" clip-path="url(#pc4db6a36e1)" style="fill: #eeeeee; stroke: #000000; stroke-width: 0.3"/>
    <path d="M 41.967116 35.352979 
L 42.389765 34.521564 
L 42.921985 33.902001 
L 43.080258 33.983079 
L 43.17534 33.970581 
L 43.384055 33.859135 
L 42.895316 33.700611 
L 43.616539 32.663161 
L 43.580302 31.210583 
L 43.666141 31.541718 
L 44.262172 31.839555 
L 49.003552 31.839001 
L 49.054358 36.004827 
L 44.399122 35.989325 
L 44.095033 36.270186 
L 43.288973 35.525887 
L 42.813571 35.848456 
L 42.601376 35.525887 
L 42.144524 35.603769 
z
" clip-path="url(#pc4db6a36e1)" style="fill: #eeeeee; stroke: #000000; stroke-width: 0.3"/>
    <path d="M 38.745094 27.355446 
L 39.234702 27.205495 
L 39.546616 26.266556 
L 40.456838 26.179232 
L 40.558296 26.619496 
L 39.614448 28.15533 
L 38.773793 27.885361 
z
" clip-path="url(#pc4db6a36e1)" style="fill: #eeeeee; stroke: #000000; stroke-width: 0.3"/>
    <path d="M 28.687688 44.690046 
L 28.738996 44.628436 
L 28.724213 44.842321 
z
" clip-path="url(#pc4db6a36e1)" style="fill: #eeeeee; stroke: #000000; stroke-width: 0.3"/>
    <path d="M 162.635997 119.043087 
L 162.91689 118.914641 
L 162.721223 118.258462 
L 163.03951 117.30761 
L 163.525641 116.962083 
L 163.649711 115.667447 
L 164.737053 115.363186 
L 165.053313 114.144108 
L 167.092043 110.942247 
L 166.725052 110.184353 
L 167.112913 109.148645 
L 166.238924 107.737479 
L 166.32067 106.720079 
L 165.552777 105.266773 
L 165.531034 103.026227 
L 165.133317 102.229975 
L 166.938116 99.208578 
L 166.987974 97.406549 
L 168.497091 97.496347 
L 169.914899 96.435935 
L 170.027082 97.107519 
L 170.413205 96.903516 
L 170.317542 96.614078 
L 170.996733 96.504229 
L 171.120222 96.892764 
L 171.320239 96.007006 
L 172.344966 95.901228 
L 172.763554 96.214499 
L 172.780947 95.916919 
L 172.584408 95.965741 
L 173.041839 95.649567 
L 173.367087 95.698678 
L 173.266786 96.063095 
L 173.707405 96.62628 
L 173.901626 96.358057 
L 174.197886 96.553051 
L 173.593192 96.049436 
L 173.713204 95.386861 
L 175.910211 93.845214 
L 176.356336 94.293615 
L 175.941517 95.099162 
L 176.916964 94.683892 
L 176.289373 93.828066 
L 177.41469 92.745865 
L 177.100748 92.590101 
L 177.674713 91.963849 
L 177.932124 92.492457 
L 177.613837 93.520902 
L 178.929606 91.588102 
L 179.369644 92.100145 
L 179.540384 91.787456 
L 179.653148 92.287872 
L 179.698657 91.815645 
L 178.953664 91.513998 
L 178.772199 91.710153 
L 178.588995 91.159752 
L 178.907282 90.362921 
L 179.451101 90.396048 
L 179.367614 89.872965 
L 179.700975 90.067669 
L 179.590823 90.727627 
L 179.773157 90.502701 
L 179.823888 89.865991 
L 179.442403 89.580327 
L 179.713151 89.397246 
L 179.209918 88.795409 
L 179.311376 88.148818 
L 179.895777 87.842232 
L 180.337553 88.733221 
L 180.716139 88.845391 
L 180.839628 87.945685 
L 181.555052 87.854438 
L 181.370111 87.28195 
L 181.807249 87.585629 
L 182.431072 87.365642 
L 183.055186 85.322415 
L 182.811688 84.440146 
L 182.252506 83.977215 
L 183.021268 84.137628 
L 183.159543 83.614544 
L 183.932074 82.947609 
L 183.545663 82.775862 
L 183.789165 82.604989 
L 184.010051 82.802597 
L 183.862212 82.580579 
L 184.204853 82.237084 
L 184.543141 83.131562 
L 184.154122 82.924652 
L 184.032374 83.217 
L 184.458788 83.489876 
L 184.572709 83.219614 
L 184.8394 83.75752 
L 185.13566 83.774375 
L 184.961151 83.877246 
L 185.303208 84.145184 
L 185.217986 84.665943 
L 185.54671 85.298004 
L 185.864997 85.078599 
L 186.570276 86.11576 
L 187.285412 88.791342 
L 187.523403 92.246317 
L 188.521754 93.920478 
L 188.498273 94.720219 
L 187.975909 96.033742 
L 187.375275 96.652726 
L 186.670285 95.700714 
L 186.424179 94.644662 
L 185.771076 94.731843 
L 185.488442 95.081436 
L 185.827895 96.370841 
L 185.671357 97.017725 
L 186.241552 97.567544 
L 186.256338 98.634637 
L 185.796588 99.400087 
L 186.207638 99.662789 
L 185.381477 99.909222 
L 184.750698 101.292199 
L 185.02956 102.877148 
L 184.493863 105.363545 
L 182.325556 110.869014 
L 182.436871 111.124164 
L 180.371183 117.405253 
L 179.298332 119.851256 
L 178.719153 122.616339 
L 178.138232 123.842102 
L 178.115912 124.748782 
L 177.246849 126.237833 
L 176.53954 128.611475 
L 176.466489 128.414445 
L 175.964418 129.080509 
L 174.856491 129.502464 
L 173.374624 129.55361 
L 170.965138 130.845629 
L 169.5453 130.983374 
L 168.377371 130.074369 
L 166.720126 129.762842 
L 166.459811 129.394068 
L 166.772014 129.634688 
L 166.846514 129.517865 
L 165.506684 128.842214 
L 165.113027 127.485679 
L 164.238746 126.470893 
L 164.067426 124.42476 
L 164.553557 123.360284 
L 164.089749 122.935422 
L 163.919298 121.974979 
L 163.128504 121.144146 
z
" clip-path="url(#pc4db6a36e1)" style="fill: #eeeeee; stroke: #000000; stroke-width: 0.3"/>
    <path d="M 180.324509 86.938456 
L 180.78629 86.710045 
L 180.932968 87.451662 
L 180.452348 87.424926 
z
" clip-path="url(#pc4db6a36e1)" style="fill: #eeeeee; stroke: #000000; stroke-width: 0.3"/>
    <path d="M 186.157196 100.615677 
L 186.267933 99.991754 
L 186.862187 99.172833 
z
" clip-path="url(#pc4db6a36e1)" style="fill: #eeeeee; stroke: #000000; stroke-width: 0.3"/>
    <path d="M 253.560521 214.822272 
L 253.840544 214.741486 
L 253.790106 214.423567 
L 254.110135 214.457858 
L 253.713578 213.999287 
L 254.087815 213.915592 
L 254.51104 213.314626 
L 254.870202 213.572101 
L 254.128397 214.169581 
L 255.127906 213.737745 
L 254.843821 213.864445 
L 255.038623 213.998705 
L 254.45451 214.871093 
L 254.698012 214.943744 
L 254.831938 214.524696 
L 255.219507 214.981231 
L 256.015519 214.600253 
L 256.067119 214.865862 
L 256.555277 214.378812 
L 256.749498 214.992565 
L 255.879855 214.954207 
L 255.461556 215.20616 
L 256.13727 215.090209 
L 255.812603 215.200058 
L 256.358157 215.431375 
L 255.920437 215.529019 
L 257.311284 215.577551 
L 257.85974 215.117527 
L 258.708509 215.108517 
L 259.214061 214.740904 
L 259.876727 214.890566 
L 259.882815 215.646424 
L 259.127097 215.899827 
L 259.67903 216.116329 
L 259.044482 216.116329 
L 258.515738 215.758015 
L 257.384334 215.797245 
L 257.751325 215.945453 
L 257.655663 216.130566 
L 256.919946 215.992532 
L 257.354189 216.44965 
L 258.505305 216.754489 
L 258.192233 216.406638 
L 259.07144 216.442094 
L 259.171448 216.5996 
L 258.604444 216.754489 
L 258.887656 216.99598 
L 257.503186 216.973316 
L 257.086048 216.329338 
L 256.725148 216.349971 
L 257.002272 216.625465 
L 256.820226 216.922751 
L 256.128572 216.803022 
L 255.265308 216.292433 
L 255.281541 216.594369 
L 254.967599 216.384845 
L 254.991949 216.776868 
L 254.759757 216.477546 
L 254.825851 216.848937 
L 254.546693 217.083161 
L 253.616466 216.958493 
L 254.105205 216.087558 
L 253.766044 215.854494 
L 254.184924 215.577551 
L 253.871563 215.631601 
L 253.615889 215.222722 
L 254.209274 215.065798 
z
" clip-path="url(#pc4db6a36e1)" style="fill: #eeeeee; stroke: #000000; stroke-width: 0.3"/>
    <path d="M 255.139789 214.500285 
L 255.676939 214.134707 
L 255.5778 214.329991 
L 255.920437 214.293374 
L 255.247915 214.885045 
z
" clip-path="url(#pc4db6a36e1)" style="fill: #eeeeee; stroke: #000000; stroke-width: 0.3"/>
    <path d="M 192.676903 205.186468 
L 192.960114 205.004551 
L 193.309712 205.180366 
L 193.271737 205.446846 
z
" clip-path="url(#pc4db6a36e1)" style="fill: #eeeeee; stroke: #000000; stroke-width: 0.3"/>
    <path d="M 187.401656 204.066483 
L 187.731249 203.991508 
L 187.817344 204.249564 
L 187.492966 204.240555 
z
" clip-path="url(#pc4db6a36e1)" style="fill: #eeeeee; stroke: #000000; stroke-width: 0.3"/>
    <path d="M 284.771674 177.788147 
L 284.908496 177.878816 
L 284.791095 177.894218 
z
" clip-path="url(#pc4db6a36e1)" style="fill: #eeeeee; stroke: #000000; stroke-width: 0.3"/>
    <path d="M 284.749351 174.848121 
L 284.889364 174.626098 
L 285.036335 174.818768 
z
" clip-path="url(#pc4db6a36e1)" style="fill: #eeeeee; stroke: #000000; stroke-width: 0.3"/>
    <path d="M 257.432454 216.337766 
L 258.074831 216.562984 
L 257.475359 216.384845 
z
" clip-path="url(#pc4db6a36e1)" style="fill: #eeeeee; stroke: #000000; stroke-width: 0.3"/>
    <path d="M 256.358157 215.236674 
L 256.870668 215.090209 
L 256.678186 215.291888 
z
" clip-path="url(#pc4db6a36e1)" style="fill: #eeeeee; stroke: #000000; stroke-width: 0.3"/>
    <path d="M 255.896087 213.937678 
L 256.307137 214.037646 
L 255.981313 214.064092 
z
" clip-path="url(#pc4db6a36e1)" style="fill: #eeeeee; stroke: #000000; stroke-width: 0.3"/>
    <path d="M 254.967599 214.478781 
L 255.035143 214.214332 
L 255.324153 214.15563 
z
" clip-path="url(#pc4db6a36e1)" style="fill: #eeeeee; stroke: #000000; stroke-width: 0.3"/>
    <path d="M 253.675311 213.064708 
L 253.809237 213.000774 
L 253.844894 213.093768 
z
" clip-path="url(#pc4db6a36e1)" style="fill: #eeeeee; stroke: #000000; stroke-width: 0.3"/>
    <path d="M 253.185127 215.77487 
L 253.355574 215.675191 
L 253.647485 215.846938 
z
" clip-path="url(#pc4db6a36e1)" style="fill: #eeeeee; stroke: #000000; stroke-width: 0.3"/>
    <path d="M 253.066564 213.254181 
L 253.12309 213.226282 
L 253.272668 213.281499 
z
" clip-path="url(#pc4db6a36e1)" style="fill: #eeeeee; stroke: #000000; stroke-width: 0.3"/>
    <path d="M 202.857217 96.313303 
L 202.880117 96.297608 
L 202.881567 96.329286 
z
" clip-path="url(#pc4db6a36e1)" style="fill: #eeeeee; stroke: #000000; stroke-width: 0.3"/>
    <path d="M 177.115823 80.872415 
L 177.157275 80.819233 
L 177.181625 80.888109 
z
" clip-path="url(#pc4db6a36e1)" style="fill: #eeeeee; stroke: #000000; stroke-width: 0.3"/>
    <path d="M 160.860189 100.505538 
L 160.982809 100.495076 
L 160.957879 100.550289 
z
" clip-path="url(#pc4db6a36e1)" style="fill: #eeeeee; stroke: #000000; stroke-width: 0.3"/>
    <path d="M 152.363789 119.417385 
L 152.53076 119.345316 
L 152.469016 119.427847 
z
" clip-path="url(#pc4db6a36e1)" style="fill: #eeeeee; stroke: #000000; stroke-width: 0.3"/>
    <path d="M 150.187945 116.149847 
L 150.190844 116.140256 
L 150.19809 116.148394 
z
" clip-path="url(#pc4db6a36e1)" style="fill: #eeeeee; stroke: #000000; stroke-width: 0.3"/>
    <path d="M 162.617735 81.532083 
L 162.82703 80.208387 
L 163.248514 80.281909 
L 163.185319 81.013649 
L 163.400991 82.179546 
z
" clip-path="url(#pc4db6a36e1)" style="fill: #eeeeee; stroke: #000000; stroke-width: 0.3"/>
    <path d="M 166.139205 82.997302 
L 166.73462 83.067917 
L 167.067693 82.653811 
L 167.225966 83.781931 
z
" clip-path="url(#pc4db6a36e1)" style="fill: #eeeeee; stroke: #000000; stroke-width: 0.3"/>
    <path d="M 164.106562 83.269889 
L 164.898805 83.749964 
L 164.211497 83.682545 
z
" clip-path="url(#pc4db6a36e1)" style="fill: #eeeeee; stroke: #000000; stroke-width: 0.3"/>
    <path d="M 34.792573 33.983079 
L 34.980417 33.529592 
L 35.25638 33.593087 
L 35.037813 34.104987 
z
" clip-path="url(#pc4db6a36e1)" style="fill: #eeeeee; stroke: #000000; stroke-width: 0.3"/>
    <path d="M 31.723316 38.616156 
L 32.473238 38.118937 
L 32.740798 38.679801 
L 31.921886 39.486659 
z
" clip-path="url(#pc4db6a36e1)" style="fill: #eeeeee; stroke: #000000; stroke-width: 0.3"/>
   </g>
   <g id="PatchCollection_2">
    <path d="M 52.306288 60.386954 
L 52.340818 60.058118 
L 53.23137 60.020841 
L 53.308681 58.008328 
L 53.001276 57.624132 
L 53.836606 57.15708 
L 54.278382 56.498297 
L 55.213111 56.227403 
L 55.293738 55.925878 
L 56.379039 57.017942 
L 57.518272 56.304906 
L 57.52711 55.474141 
L 58.344765 55.635054 
L 59.921176 54.84599 
L 60.215697 55.389624 
L 59.791959 55.852802 
L 59.969773 57.021263 
L 60.394249 56.860718 
L 60.93874 57.069981 
L 61.503112 56.766977 
L 62.83102 55.067063 
L 63.739244 54.620122 
L 64.005782 54.063571 
L 65.353573 53.561642 
L 66.470166 51.404084 
L 66.359725 47.364663 
L 67.497302 46.312457 
L 68.634512 44.104339 
L 69.308958 43.490214 
L 70.325785 43.197177 
L 71.898514 41.441899 
L 71.780339 40.271963 
L 72.596523 38.225493 
L 72.315626 35.942453 
L 73.044928 34.032633 
L 73.048611 31.859484 
L 74.974396 28.402263 
L 75.093675 25.124866 
L 74.721109 24.118333 
L 75.47397 23.858512 
L 76.649469 22.041878 
L 77.809505 21.252539 
L 79.290197 21.37184 
L 81.122103 22.532645 
L 81.98173 23.807119 
L 83.019171 23.670103 
L 84.22817 24.247875 
L 86.103149 24.241419 
L 88.119132 24.829429 
L 88.857268 24.606054 
L 89.14921 23.597492 
L 89.4949 23.533365 
L 90.238928 22.34811 
L 92.077463 23.179247 
L 92.695583 22.668183 
L 95.08634 21.968528 
L 95.582972 21.589499 
L 95.574872 21.281421 
L 96.765463 22.012722 
L 98.820835 21.602876 
L 99.02037 20.609165 
L 99.661871 20.37804 
L 100.969533 21.110727 
L 101.993352 20.866868 
L 103.077181 21.548622 
L 103.920978 21.381067 
L 104.375642 21.584053 
L 105.111569 20.992072 
L 105.92444 21.246818 
L 107.500118 22.475717 
L 107.600621 23.161439 
L 108.461167 23.324937 
L 108.588364 23.792357 
L 109.770118 24.306003 
L 111.10208 23.310818 
L 112.761508 24.072479 
L 113.603278 22.898204 
L 114.176487 22.998037 
L 114.811174 23.303529 
L 114.779514 23.972093 
L 115.287189 24.186887 
L 116.209771 25.445864 
L 117.40625 25.762059 
L 117.469573 26.671345 
L 118.195929 26.450091 
L 118.525789 27.109516 
L 118.728274 27.003227 
L 118.776868 27.455146 
L 118.184886 28.661898 
L 118.575124 29.383607 
L 118.066341 30.841417 
L 118.640655 31.245174 
L 118.983399 30.983136 
L 119.294117 31.39446 
L 119.72982 31.349249 
L 120.064282 32.063116 
L 117.23893 35.149701 
L 116.386114 35.516185 
L 116.086809 36.327942 
L 115.347566 36.628179 
L 115.323269 37.793318 
L 114.47763 39.313869 
L 113.948972 42.888638 
L 114.031804 44.530611 
L 112.804399 45.495715 
L 112.438092 46.155236 
L 112.453551 47.420762 
L 111.497104 48.114236 
L 111.464707 48.565601 
L 111.586195 49.045387 
L 112.075097 49.374595 
L 111.955081 49.620024 
L 112.809001 50.451897 
L 112.739235 53.498901 
L 113.182486 54.189422 
L 113.436877 55.650184 
L 113.126526 57.142317 
L 114.154766 59.942602 
L 113.66918 61.005878 
L 113.888595 62.113812 
L 114.491622 63.209936 
L 115.858923 64.176522 
L 116.584175 65.102874 
L 118.214338 68.833389 
L 111.578465 69.865297 
L 111.592453 70.874691 
L 109.666669 72.682373 
L 110.249079 73.062141 
L 110.899232 74.539141 
L 110.441255 76.066333 
L 110.903278 77.578767 
L 110.386032 78.263749 
L 109.694649 80.758263 
L 110.22018 81.969539 
L 111.086617 82.396176 
L 112.09829 83.776853 
L 113.753116 84.041841 
L 113.662551 83.290422 
L 114.820378 82.974134 
L 114.759635 87.62196 
L 114.172437 87.499062 
L 114.35688 86.998979 
L 114.019287 86.799682 
L 112.62916 87.55479 
L 111.951765 87.408639 
L 110.9331 85.601143 
L 110.344798 85.586381 
L 109.91701 84.285425 
L 108.264025 83.737362 
L 107.90066 83.360915 
L 107.122398 83.472371 
L 106.347812 82.145215 
L 105.683304 81.742193 
L 105.490764 80.88707 
L 104.933755 80.979704 
L 104.662797 82.09945 
L 103.842563 82.470358 
L 102.763888 82.109045 
L 101.219874 82.077674 
L 99.938717 81.455797 
L 99.490312 81.625938 
L 98.953735 81.146152 
L 98.830406 79.548469 
L 96.701036 80.017182 
L 95.911728 80.501028 
L 95.210036 80.278481 
L 95.560146 79.849627 
L 95.482835 79.210774 
L 94.605537 79.007416 
L 94.569828 78.564539 
L 94.168178 78.401044 
L 93.570672 78.954642 
L 92.225089 78.713643 
L 90.65199 79.218894 
L 88.8234 79.004467 
L 87.885358 79.744074 
L 87.628388 78.325755 
L 88.17693 78.000608 
L 88.155209 76.598159 
L 87.608508 75.037381 
L 86.607515 74.057512 
L 86.297901 73.16142 
L 86.83908 69.768233 
L 86.162422 68.130688 
L 86.543455 66.246977 
L 86.272867 65.581185 
L 81.76894 65.591887 
L 82.092912 64.269155 
L 81.052893 64.278383 
L 80.963065 64.576219 
L 78.211522 64.576219 
L 78.180599 66.281301 
L 77.619541 66.619364 
L 77.619174 68.147296 
L 74.630544 67.898177 
L 74.598884 68.131427 
L 73.219433 68.220371 
L 73.140281 68.530385 
L 72.320414 68.298982 
L 71.366542 68.492005 
L 70.354132 67.260431 
L 69.8575 66.098245 
L 69.035058 65.299957 
L 69.132986 64.621984 
L 68.40258 63.527702 
L 68.18169 62.658924 
L 68.255321 61.673888 
L 67.636094 60.649732 
L 58.341452 60.432719 
L 56.200487 60.607655 
L 54.610547 60.336097 
L 54.148588 60.517365 
L 53.99231 60.924282 
L 53.019482 61.183764 
L 53.046895 60.933242 
L 52.830924 61.019626 
z
" clip-path="url(#pc4db6a36e1)" style="fill: #ff6b6b; stroke: #dd0000; stroke-width: 0.5"/>
    <path d="M 54.072531 60.784788 
L 54.368299 60.540518 
L 54.961128 60.527842 
z
" clip-path="url(#pc4db6a36e1)" style="fill: #ff6b6b; stroke: #dd0000; stroke-width: 0.5"/>
   </g>
  </g>
 </g>
 <defs>
  <clipPath id="pc4db6a36e1">
   <rect x="0" y="0" width="172.37057" height="108"/>
  </clipPath>
 </defs>
</svg>
