<?xml version="1.0" encoding="utf-8" standalone="no"?>
<!DOCTYPE svg PUBLIC "-//W3C//DTD SVG 1.1//EN"
  "http://www.w3.org/Graphics/SVG/1.1/DTD/svg11.dtd">
<svg xmlns:xlink="http://www.w3.org/1999/xlink" width="96.237585pt" height="108pt" viewBox="0 0 96.237585 108" xmlns="http://www.w3.org/2000/svg" version="1.1">
 <metadata>
  <rdf:RDF xmlns:dc="http://purl.org/dc/elements/1.1/" xmlns:cc="http://creativecommons.org/ns#" xmlns:rdf="http://www.w3.org/1999/02/22-rdf-syntax-ns#">
   <cc:Work>
    <dc:type rdf:resource="http://purl.org/dc/dcmitype/StillImage"/>
    <dc:date>2025-09-05T13:56:19.485379</dc:date>
    <dc:format>image/svg+xml</dc:format>
    <dc:creator>
     <cc:Agent>
      <dc:title>Matplotlib v3.10.3, https://matplotlib.org/</dc:title>
     </cc:Agent>
    </dc:creator>
   </cc:Work>
  </rdf:RDF>
 </metadata>
 <defs>
  <style type="text/css">*{stroke-linejoin: round; stroke-linecap: butt}</style>
 </defs>
 <g id="figure_1">
  <g id="patch_1">
   <path d="M 0 108 
L 96.237585 108 
L 96.237585 0 
L 0 0 
z
" style="fill: #ffffff"/>
  </g>
  <g id="axes_1">
   <g id="PatchCollection_1">
    <path d="M 4.435724 123.887927 
L 6.626103 122.079639 
L 5.939313 121.270773 
L 7.085011 118.876825 
L 6.975378 117.221459 
L 4.990953 113.054039 
L 6.693456 112.694782 
L 6.472613 111.950934 
L 8.124206 112.979864 
L 11.145863 111.793101 
L 11.641581 110.824264 
L 10.661897 109.723268 
L 13.286908 107.40808 
L 13.45293 105.579045 
L 12.885169 104.404934 
L 10.926589 104.266434 
L 10.60003 103.176321 
L 11.09496 101.910811 
L 13.227389 102.029271 
L 14.548506 96.967912 
L 14.561917 93.607223 
L 15.017605 92.593599 
L 15.864849 92.821117 
L 13.266381 91.81967 
L 13.477268 89.966785 
L 14.161724 89.632411 
L 13.744884 88.95648 
L 14.800551 87.873089 
L 20.902695 87.307319 
L 21.937396 89.414293 
L 21.248007 90.564119 
L 22.220432 91.352986 
L 23.052263 90.479413 
L 22.41652 89.795169 
L 22.715581 88.602733 
L 24.847882 89.544944 
L 24.377396 90.323294 
L 24.486536 92.069338 
L 24.951476 89.502876 
L 24.347799 87.411384 
L 25.116733 85.098469 
L 29.838249 85.077435 
L 32.654385 88.896128 
L 34.546203 89.544944 
L 32.66425 88.608256 
L 31.236145 85.634906 
L 30.195276 84.892541 
L 28.125259 84.736422 
L 27.605439 84.18725 
L 26.978947 82.83981 
L 28.220837 82.924502 
L 28.38054 82.003883 
L 26.823555 80.880084 
L 27.962465 79.014464 
L 25.805501 79.673239 
L 25.209841 78.736008 
L 28.329364 76.446887 
L 25.883197 73.331812 
L 25.671378 71.141193 
L 30.091037 72.42741 
L 32.635889 71.549796 
L 34.483305 73.040063 
L 35.421193 72.730056 
L 35.957047 73.795176 
L 35.284305 74.167182 
L 36.114902 74.26352 
L 36.022408 75.717257 
L 34.607252 76.869286 
L 36.905423 76.643972 
L 37.363573 77.063595 
L 36.893087 78.922017 
L 38.231169 77.304406 
L 41.359936 79.115224 
L 44.42273 78.085532 
L 43.900446 78.456993 
L 43.900446 80.833581 
L 41.521496 82.6538 
L 42.654237 83.861189 
L 44.722405 83.09058 
L 46.863957 84.612411 
L 48.621963 81.223859 
L 51.640968 80.695176 
L 51.667488 81.784649 
L 51.844459 82.003883 
L 51.798209 80.845758 
L 55.018242 76.692692 
L 57.952771 77.437832 
L 55.702699 77.581761 
L 54.966445 78.270984 
L 54.295552 78.063383 
L 53.767722 79.673239 
L 56.131867 77.745621 
L 57.44899 78.466952 
L 58.616882 77.37582 
L 59.420959 79.525991 
L 62.214287 82.093554 
L 63.944546 80.973089 
L 64.673397 81.911422 
L 64.203524 82.83981 
L 65.415197 84.110299 
L 64.752327 84.995505 
L 64.741227 85.336518 
L 68.131443 86.714964 
L 67.739266 87.307319 
L 69.473609 93.514449 
L 68.728861 96.279246 
L 67.222143 97.486064 
L 67.066304 98.972698 
L 71.013212 102.696835 
L 70.259856 105.346683 
L 71.525372 107.336367 
L 71.328026 108.899272 
L 71.896567 109.502865 
L 70.566055 113.213995 
L 71.677301 115.19417 
L 71.507361 116.937071 
L 73.366483 118.227192 
L 73.87159 120.929787 
L 73.365695 123.279777 
L 71.880125 126.733593 
L 70.773578 126.251984 
L 70.894963 125.229734 
L 70.297446 125.347147 
L 70.479131 124.484485 
L 69.780588 123.64502 
L 68.305982 123.649946 
L 67.933218 124.389562 
L 69.020967 125.227626 
L 68.753138 125.780933 
L 62.767379 128.141127 
L 61.94433 129.630224 
L 58.623126 131.053227 
L 58.190844 132.257568 
L 54.839104 132.467088 
L 53.249379 135.568313 
L 52.788902 134.265525 
L 51.550012 133.46825 
L 52.843722 137.144578 
L 54.94404 139.04919 
L 53.879788 141.254707 
L 55.849324 145.518097 
L 58.548734 147.348874 
L 59.902743 149.751243 
L 62.027337 152.109328 
L 63.162072 152.093859 
L 64.731051 154.539126 
L 63.979256 157.868836 
L 61.994445 157.164715 
L 61.623249 159.843052 
L 56.572143 163.423056 
L 58.48373 167.046664 
L 57.731943 168.727689 
L 59.096128 169.599493 
L 58.564396 172.231409 
L 56.875205 171.02319 
L 56.746781 169.498951 
L 54.73573 170.015348 
L 52.781855 169.335132 
L 52.808481 168.612386 
L 52.288494 170.339464 
L 48.097247 170.549337 
L 45.191883 173.211837 
L 43.240358 173.258244 
L 42.32489 171.351877 
L 39.07104 170.721224 
L 39.063993 173.183361 
L 37.030241 174.883025 
L 37.404565 173.503967 
L 36.446817 173.686412 
L 35.409184 171.214424 
L 34.167945 170.566207 
L 32.883631 171.471398 
L 29.631349 169.450435 
L 27.34543 169.644839 
L 24.894269 167.671685 
L 23.629534 169.517931 
L 25.266253 169.642731 
L 25.014874 170.511365 
L 22.429803 170.109918 
L 20.984952 170.945151 
L 17.707605 170.888214 
L 18.085847 170.455121 
L 17.527883 170.617839 
L 16.965994 168.948446 
L 17.793749 165.355082 
L 17.474237 163.409002 
L 18.775774 160.322184 
L 19.226855 156.599109 
L 22.182334 151.925128 
L 17.898684 150.847329 
L 16.197757 149.062945 
L 15.16639 149.932641 
L 13.409854 149.897485 
L 12.438793 148.549705 
L 11.008035 149.245037 
L 9.387373 145.582776 
L 8.12679 145.166282 
L 9.318459 140.536164 
L 7.803133 140.001836 
L 6.240814 137.094661 
L 6.622974 134.844152 
L 8.348178 133.464032 
L 8.063127 131.212108 
L 6.804658 130.709425 
L 7.397477 129.3968 
L 5.305767 127.119571 
L 5.993345 125.409009 
z
" clip-path="url(#p6cc79d1641)" style="fill: #eeeeee; stroke: #000000; stroke-width: 0.3"/>
    <path d="M 59.425278 78.736008 
L 60.572204 78.085532 
L 59.739759 77.528619 
L 60.61969 76.776282 
L 59.636786 75.949211 
L 60.80714 76.265313 
L 61.349154 75.374584 
L 61.19377 76.211056 
L 62.392494 76.692692 
L 62.496088 75.569995 
L 61.894874 75.754902 
L 61.347306 75.007544 
L 60.469231 75.653585 
L 60.773846 74.597336 
L 60.300276 74.447312 
L 61.511328 73.972873 
L 61.76723 75.374584 
L 63.631914 75.631994 
L 62.910458 76.915789 
L 64.357681 78.643003 
L 64.029637 79.548126 
L 63.224939 79.014464 
L 63.785456 78.549998 
L 62.336378 78.643003 
L 61.275164 79.587989 
L 61.635888 80.23071 
z
" clip-path="url(#p6cc79d1641)" style="fill: #eeeeee; stroke: #000000; stroke-width: 0.3"/>
    <path d="M 64.255321 81.252089 
L 64.725194 80.973089 
L 67.718922 84.172856 
L 67.648955 84.993328 
L 64.915736 85.372503 
L 65.609436 84.705416 
L 65.403482 83.397825 
L 66.493679 84.140204 
L 66.51588 83.266631 
L 65.718585 82.429588 
L 64.415646 83.025806 
L 64.725194 81.957924 
z
" clip-path="url(#p6cc79d1641)" style="fill: #eeeeee; stroke: #000000; stroke-width: 0.3"/>
    <path d="M 22.81979 73.235488 
L 22.92277 70.920354 
L 23.496237 69.254581 
L 23.815029 68.84161 
L 24.175761 69.040898 
L 23.607227 71.169478 
L 25.623597 71.177777 
L 22.991836 71.561973 
z
" clip-path="url(#p6cc79d1641)" style="fill: #eeeeee; stroke: #000000; stroke-width: 0.3"/>
    <path d="M 46.242398 83.582733 
L 46.628407 83.023602 
L 47.168572 83.025806 
L 46.863957 83.861189 
z
" clip-path="url(#p6cc79d1641)" style="fill: #eeeeee; stroke: #000000; stroke-width: 0.3"/>
    <path d="M 26.823555 76.776282 
L 27.063424 76.264755 
L 27.962465 76.211056 
L 27.392703 76.962291 
z
" clip-path="url(#p6cc79d1641)" style="fill: #eeeeee; stroke: #000000; stroke-width: 0.3"/>
    <path d="M 59.015219 76.962291 
L 59.325389 75.225662 
L 59.451177 75.357414 
z
" clip-path="url(#p6cc79d1641)" style="fill: #eeeeee; stroke: #000000; stroke-width: 0.3"/>
    <path d="M 47.441735 82.181022 
L 48.06268 81.810118 
L 47.484281 82.560796 
z
" clip-path="url(#p6cc79d1641)" style="fill: #eeeeee; stroke: #000000; stroke-width: 0.3"/>
    <path d="M 43.439204 76.962291 
L 44.314816 76.043876 
L 45.776845 77.705772 
z
" clip-path="url(#p6cc79d1641)" style="fill: #eeeeee; stroke: #000000; stroke-width: 0.3"/>
    <path d="M 25.353518 76.633455 
L 25.960279 75.736073 
L 25.975691 75.883335 
z
" clip-path="url(#p6cc79d1641)" style="fill: #eeeeee; stroke: #000000; stroke-width: 0.3"/>
    <path d="M 23.654091 73.610269 
L 23.974118 73.152442 
L 25.163598 73.517264 
z
" clip-path="url(#p6cc79d1641)" style="fill: #eeeeee; stroke: #000000; stroke-width: 0.3"/>
    <path d="M 22.873443 74.260187 
L 23.561597 74.639961 
L 23.705888 74.724108 
z
" clip-path="url(#p6cc79d1641)" style="fill: #eeeeee; stroke: #000000; stroke-width: 0.3"/>
    <path d="M 21.807911 87.222613 
L 21.819003 86.884362 
L 22.149517 87.036603 
z
" clip-path="url(#p6cc79d1641)" style="fill: #eeeeee; stroke: #000000; stroke-width: 0.3"/>
    <path d="M 20.040653 80.791501 
L 20.133147 80.678564 
L 20.160281 80.752195 
z
" clip-path="url(#p6cc79d1641)" style="fill: #eeeeee; stroke: #000000; stroke-width: 0.3"/>
    <path d="M 19.754533 80.697394 
L 19.865531 80.687421 
L 19.900681 80.911634 
z
" clip-path="url(#p6cc79d1641)" style="fill: #eeeeee; stroke: #000000; stroke-width: 0.3"/>
    <path d="M 19.56215 86.266552 
L 19.888959 86.107127 
L 20.328 86.289259 
z
" clip-path="url(#p6cc79d1641)" style="fill: #eeeeee; stroke: #000000; stroke-width: 0.3"/>
    <path d="M 18.28758 86.315272 
L 19.246434 86.285926 
L 18.756831 86.588191 
z
" clip-path="url(#p6cc79d1641)" style="fill: #eeeeee; stroke: #000000; stroke-width: 0.3"/>
    <path d="M 16.671395 86.983462 
L 17.683903 86.565498 
L 17.839909 86.724379 
z
" clip-path="url(#p6cc79d1641)" style="fill: #eeeeee; stroke: #000000; stroke-width: 0.3"/>
    <path d="M 16.144801 86.917586 
L 16.387746 87.036603 
L 16.279226 87.129608 
z
" clip-path="url(#p6cc79d1641)" style="fill: #eeeeee; stroke: #000000; stroke-width: 0.3"/>
    <path d="M 14.402828 87.398106 
L 14.852348 87.016672 
L 15.71439 87.101377 
z
" clip-path="url(#p6cc79d1641)" style="fill: #eeeeee; stroke: #000000; stroke-width: 0.3"/>
    <path d="M 12.131169 87.787839 
L 13.443966 87.496648 
L 13.735018 87.594074 
z
" clip-path="url(#p6cc79d1641)" style="fill: #eeeeee; stroke: #000000; stroke-width: 0.3"/>
    <path d="M 10.507589 88.789844 
L 11.455964 88.504735 
L 11.242608 89.282541 
z
" clip-path="url(#p6cc79d1641)" style="fill: #eeeeee; stroke: #000000; stroke-width: 0.3"/>
    <path d="M -2.621652 -9.180943 
L 1.220562 -6.849211 
L -0.2797 -8.855426 
L 2.00121 -10.210635 
L -1.073911 -9.343701 
L -2.203577 -11.232014 
L -1.303301 -10.237206 
L -1.003618 -11.790043 
L -1.970489 -11.654413 
L -1.944591 -12.533523 
L 1.330938 -11.838205 
L 1.927212 -12.926576 
L 6.256559 -13.563202 
L 8.232233 -12.819721 
L 8.207569 -12.049126 
L 10.061153 -14.284533 
L 12.752728 -13.098736 
L 13.161552 -12.021997 
L 12.131169 -11.046562 
L 13.477268 -11.418024 
L 14.073549 -10.903178 
L 13.89041 -10.01687 
L 14.309713 -11.232014 
L 13.090024 -13.164612 
L 16.387746 -13.276446 
L 15.710692 -13.842216 
L 18.353562 -15.057904 
L 16.030719 -14.596771 
L 15.451706 -15.809139 
L 17.421833 -18.503489 
L 15.085428 -17.28723 
L 15.399909 -16.636768 
L 14.904146 -15.944769 
L 15.813051 -14.500433 
L 15.399909 -14.12123 
L 12.732384 -13.419273 
L 13.114687 -14.399129 
L 9.73742 -14.956042 
L 10.777054 -16.590265 
L 10.828852 -17.380235 
L 9.307631 -15.548397 
L 9.582029 -14.678143 
L 8.801381 -13.46134 
L 5.218153 -14.12123 
L 5.791619 -14.678143 
L 1.14348 -12.984139 
L -0.597879 -13.332907 
L -0.337044 -13.842216 
L -1.732469 -14.12123 
L -0.171173 -14.399129 
L -2.410766 -15.336918 
L -0.539914 -16.563137 
L 0.362832 -15.332497 
L -0.124309 -16.636768 
L 2.730061 -16.822764 
L -0.821715 -16.745269 
L -1.623942 -16.301278 
L -2.075933 -17.028161 
L -1.591883 -16.996597 
L -1.220673 -17.760566 
L -2.461328 -17.5657 
L -0.699003 -18.326336 
L 1.864936 -17.752254 
L 4.028681 -18.13147 
L -0.716271 -18.835645 
L -1.003618 -19.440163 
L 0.647095 -19.533167 
L -0.956754 -19.998191 
L 1.168765 -19.912942 
L -2.307171 -20.555104 
L -2.156712 -22.061997 
L -0.79643 -21.77135 
L -1.578313 -22.236374 
L 0.924577 -24.295744 
L 3.562514 -23.443763 
L 2.626467 -22.987596 
L 5.062769 -23.397261 
L 4.747053 -21.949061 
L 5.450005 -23.266066 
L 6.883051 -22.329379 
L 5.947011 -23.266066 
L 9.100442 -22.847545 
L 11.713094 -23.824081 
L 9.118945 -23.129321 
L 3.458919 -24.000676 
L 5.218153 -24.372137 
L 1.168765 -24.659464 
L -0.886461 -24.091477 
L -1.319334 -24.372137 
L -1.112146 -24.744156 
L -1.003618 -25.115618 
L 0.965274 -25.777726 
L -1.23979 -26.990094 
L -1.422921 -28.105036 
L 0.013815 -27.810525 
L 1.431448 -25.597254 
L 2.41558 -26.433181 
L 0.895594 -27.182185 
L 1.375332 -28.105036 
L 3.614303 -26.71108 
L 2.989047 -27.826579 
L 4.794531 -28.102818 
L 4.338843 -25.773848 
L 5.166355 -27.409718 
L 5.895214 -26.433181 
L 8.288963 -26.340176 
L 6.181947 -26.990094 
L 4.949923 -28.57338 
L 5.998808 -28.291046 
L 5.114566 -28.847959 
L 7.865341 -30.567418 
L 9.681304 -27.826579 
L 9.530232 -26.990094 
L 9.911929 -27.687072 
L 8.543008 -30.773359 
L 9.789218 -30.342661 
L 9.633826 -31.094441 
L 10.880649 -31.651367 
L 12.171866 -31.191323 
L 12.131169 -30.342661 
L 13.00616 -29.219978 
L 12.752728 -26.897089 
L 13.248499 -26.740426 
L 14.148161 -27.091956 
L 14.510734 -26.897089 
L 14.221538 -27.285163 
L 12.930934 -27.041018 
L 13.300296 -29.124755 
L 16.232362 -28.763253 
L 12.76198 -29.931894 
L 12.436398 -30.53697 
L 12.902573 -30.629974 
L 11.501594 -32.014516 
L 7.351074 -31.643055 
L 10.621663 -32.209382 
L 7.399788 -33.323766 
L 9.582029 -33.881237 
L 10.15179 -33.13777 
L 11.239524 -34.41158 
L 12.464767 -33.323766 
L 12.234764 -34.261011 
L 13.786816 -34.361757 
L 13.373673 -33.981997 
L 14.050727 -32.766295 
L 14.28073 -34.066145 
L 17.197998 -32.357189 
L 18.983751 -33.323766 
L 16.915583 -33.210844 
L 16.256412 -34.117627 
L 17.029043 -33.459954 
L 17.051858 -34.680635 
L 19.421557 -35.466182 
L 21.782012 -34.919786 
L 21.217797 -36.118876 
L 15.813051 -35.004492 
L 18.249967 -36.313185 
L 15.455411 -35.628383 
L 12.863104 -35.377055 
L 12.700931 -35.476699 
L 13.161552 -36.591641 
L 14.722855 -36.591641 
L 12.178648 -37.900892 
L 14.888112 -39.310902 
L 16.884752 -37.897572 
L 18.315328 -38.854191 
L 19.001019 -38.737935 
L 18.348629 -37.914728 
L 21.236906 -38.442308 
L 21.833802 -36.591641 
L 24.796085 -34.446463 
L 24.786219 -35.310077 
L 22.059494 -37.038951 
L 21.782012 -38.449506 
L 19.734189 -39.252223 
L 21.321391 -40.602996 
L 23.165723 -38.748451 
L 23.159555 -37.487363 
L 25.99111 -36.692401 
L 23.814416 -38.550265 
L 25.732124 -38.829266 
L 23.4987 -38.744574 
L 23.085557 -39.10828 
L 24.22755 -39.386193 
L 22.472015 -39.457048 
L 21.9189 -40.679389 
L 25.521238 -40.602996 
L 24.951476 -41.303838 
L 27.810779 -41.995837 
L 25.390517 -41.851894 
L 24.274415 -43.110779 
L 26.456664 -43.862558 
L 25.759258 -44.841313 
L 27.340906 -44.520775 
L 28.38054 -45.45802 
L 29.367763 -44.225163 
L 28.949688 -43.110779 
L 31.534593 -44.286617 
L 29.523155 -44.841313 
L 31.893468 -45.548807 
L 31.884224 -45.737035 
L 29.367763 -45.720423 
L 32.585327 -46.4711 
L 31.958836 -47.129875 
L 33.538635 -47.878893 
L 35.520476 -44.929882 
L 34.555454 -43.584102 
L 35.920662 -44.034174 
L 37.781648 -42.747059 
L 37.833446 -43.626727 
L 36.128465 -44.639807 
L 42.699253 -45.317955 
L 41.56836 -46.151121 
L 42.809629 -47.307572 
L 40.792637 -46.658212 
L 42.679522 -48.423072 
L 46.863957 -49.858537 
L 44.126745 -51.214304 
L 47.168572 -52.999081 
L 45.322384 -53.231593 
L 46.139418 -54.30889 
L 45.668931 -54.173818 
L 40.166146 -50.11928 
L 43.820281 -50.828448 
L 42.714051 -49.056378 
L 35.668465 -45.822842 
L 34.296468 -48.523274 
L 35.817689 -48.958951 
L 36.587237 -49.55351 
L 32.364575 -48.166206 
L 32.429935 -48.988297 
L 34.137379 -49.55351 
L 32.378138 -49.646514 
L 37.311776 -51.876398 
L 35.336102 -52.163712 
L 35.922511 -54.332141 
L 37.274163 -54.096309 
L 36.634722 -54.30889 
L 37.104587 -55.422729 
L 38.656639 -55.237822 
L 37.678054 -55.896597 
L 39.540889 -56.732524 
L 39.385498 -57.567907 
L 40.057619 -57.196446 
L 39.643249 -57.753917 
L 40.735907 -57.567907 
L 39.479227 -58.480785 
L 42.145525 -57.737863 
L 40.792637 -58.868301 
L 43.067994 -59.341624 
L 42.762151 -60.642018 
L 43.177756 -60.914393 
L 44.629297 -58.783595 
L 45.984026 -58.589287 
L 45.270587 -57.145508 
L 46.501377 -58.868301 
L 48.368531 -59.248619 
L 46.712884 -59.05431 
L 47.230235 -60.176994 
L 49.30457 -60.836326 
L 47.311628 -60.51081 
L 46.397782 -62.331029 
L 49.774435 -63.530118 
L 48.269869 -63.909334 
L 49.3613 -64.087589 
L 48.316734 -64.187791 
L 49.044349 -64.745262 
L 52.676905 -65.497042 
L 50.303508 -65.632671 
L 45.373568 -62.706925 
L 46.651836 -63.81633 
L 45.31067 -64.114718 
L 47.364661 -64.450751 
L 48.678071 -65.126138 
L 45.255175 -64.383215 
L 45.421046 -64.549838 
L 50.810372 -67.25748 
L 52.443203 -66.251039 
L 52.436422 -67.007798 
L 55.793958 -68.107243 
L 58.027382 -70.571299 
L 54.782693 -68.292695 
L 53.767722 -68.3857 
L 54.755559 -69.043931 
L 53.664128 -69.407637 
L 56.368652 -69.778541 
L 52.831682 -69.49954 
L 54.755559 -71.366261 
L 56.213268 -70.808232 
L 54.600167 -72.39594 
L 56.368652 -71.366261 
L 55.742161 -72.202733 
L 56.885389 -72.574194 
L 55.583071 -72.574194 
L 55.950584 -72.860963 
L 55.251322 -73.309376 
L 55.324085 -74.347924 
L 54.865313 -73.288886 
L 55.018242 -74.25492 
L 54.294317 -73.511439 
L 53.664128 -74.541118 
L 54.726576 -76.298236 
L 55.583071 -75.182736 
L 56.937186 -75.006141 
L 55.199533 -76.57559 
L 56.40997 -77.057213 
L 55.607735 -77.676682 
L 56.142968 -78.928369 
L 57.402126 -79.473106 
L 59.88405 -77.963996 
L 59.481394 -79.152011 
L 57.97682 -79.845111 
L 58.85613 -81.061357 
L 56.052944 -80.781799 
L 62.544801 -83.193256 
L 62.918475 -82.904841 
L 62.28458 -82.453653 
L 62.962255 -82.453653 
L 62.610775 -81.430057 
L 64.775756 -81.926631 
L 63.168823 -82.453653 
L 67.217604 -84.467637 
L 58.85613 -82.370063 
L 62.599675 -84.134365 
L 60.905802 -85.02123 
L 61.108672 -84.386251 
L 60.266975 -83.971607 
L 58.832702 -84.27941 
L 58.550287 -84.784841 
L 59.618282 -85.179554 
L 59.327238 -86.101846 
L 59.791556 -86.279543 
L 58.338166 -87.030779 
L 59.327238 -87.309793 
L 60.257723 -86.101846 
L 61.29366 -86.123438 
L 60.516709 -87.030779 
L 63.634998 -86.937774 
L 62.026216 -87.596549 
L 64.053073 -88.154577 
L 60.361318 -87.387288 
L 60.444567 -88.277473 
L 61.607527 -88.432476 
L 59.843353 -88.795638 
L 59.998745 -88.994927 
L 62.697723 -88.609629 
L 60.257723 -89.640423 
L 63.802103 -89.331518 
L 65.294955 -89.927178 
L 62.910458 -89.640423 
L 64.255321 -90.290341 
L 62.392494 -90.569355 
L 66.074376 -90.670659 
L 62.669354 -92.468185 
L 65.920219 -93.457456 
L 65.294955 -92.899441 
L 65.631637 -92.47262 
L 65.816625 -92.53738 
L 66.58124 -94.359259 
L 67.275569 -93.145231 
L 67.845331 -93.307989 
L 68.189408 -94.34764 
L 70.432698 -93.777993 
L 68.153644 -94.673157 
L 68.878183 -95.703393 
L 71.812711 -95.217336 
L 70.021412 -95.98185 
L 70.702163 -96.310128 
L 73.547902 -96.446874 
L 72.875782 -95.610389 
L 73.658278 -94.879085 
L 73.186557 -95.610389 
L 74.421044 -96.434139 
L 77.504183 -94.487148 
L 76.558899 -96.260864 
L 79.314607 -95.888845 
L 74.178099 -96.901925 
L 74.95505 -97.755567 
L 71.233084 -96.47954 
L 70.80206 -96.446874 
L 71.427324 -97.282243 
L 68.614878 -96.818335 
L 70.848303 -99.254146 
L 72.376313 -98.678417 
L 74.075732 -99.612887 
L 72.359045 -99.612887 
L 71.634505 -100.179759 
L 74.150352 -101.386046 
L 74.908185 -100.82082 
L 73.767419 -101.200036 
L 73.783452 -100.157065 
L 72.410842 -99.993749 
L 73.831552 -99.908499 
L 75.165936 -100.550676 
L 74.747861 -99.250282 
L 76.955387 -100.102264 
L 78.693662 -97.282243 
L 77.710136 -99.891343 
L 80.508397 -101.107589 
L 75.517408 -100.731692 
L 75.793041 -101.606925 
L 77.235952 -101.386046 
L 75.057409 -101.944074 
L 75.986046 -103.329718 
L 77.809419 -102.695296 
L 78.693662 -102.788301 
L 76.769785 -103.531781 
L 78.227487 -103.719451 
L 79.763513 -102.769485 
L 80.043458 -102.973753 
L 78.482154 -103.903243 
L 78.952648 -104.367151 
L 76.821582 -104.367151 
L 76.983756 -105.24184 
L 75.083308 -103.252767 
L 72.462639 -102.272911 
L 71.634505 -102.502089 
L 72.772187 -103.058458 
L 72.135823 -103.447076 
L 74.592469 -103.624786 
L 71.984136 -104.632873 
L 74.483942 -105.111189 
L 72.564998 -105.026484 
L 73.694664 -105.714047 
L 75.471779 -105.397945 
L 75.212801 -104.840474 
L 77.365445 -106.016313 
L 77.73974 -105.127788 
L 79.404631 -106.484656 
L 80.221664 -105.771066 
L 81.760153 -107.356569 
L 80.353006 -108.100594 
L 79.684582 -107.603475 
L 78.268805 -107.657161 
L 77.837167 -108.152634 
L 76.721686 -107.067582 
L 75.839292 -107.635584 
L 78.582051 -109.434755 
L 79.292406 -108.534612 
L 78.382879 -108.378506 
L 78.466128 -107.858123 
L 80.103271 -108.446042 
L 81.127494 -110.538623 
L 82.069701 -109.316295 
L 81.599829 -107.542579 
L 82.743057 -106.884906 
L 83.076034 -105.552948 
L 84.954281 -104.385423 
L 83.316516 -105.630457 
L 82.850349 -107.171662 
L 84.816771 -105.769964 
L 83.80859 -107.169444 
L 84.702698 -106.630245 
L 85.390238 -106.605892 
L 84.230363 -107.942829 
L 86.502014 -108.102812 
L 83.471908 -108.378506 
L 83.109335 -108.935977 
L 85.752818 -109.4093 
L 82.585195 -109.907534 
L 83.976309 -110.388055 
L 82.064761 -110.988708 
L 83.416413 -111.319191 
L 87.365912 -108.935977 
L 85.580772 -110.895703 
L 82.949011 -111.917083 
L 89.823172 -112.209376 
L 91.36351 -110.616689 
L 91.389408 -109.4093 
L 92.040563 -110.345974 
L 90.548325 -111.756542 
L 90.737018 -112.660005 
L 95.464702 -112.48341 
L 92.401909 -113.225775 
L 93.000039 -114.348472 
L 89.212092 -113.043085 
L 89.555556 -113.677507 
L 88.767505 -114.07056 
L 85.334122 -113.09956 
L 84.801973 -114.074995 
L 85.987747 -114.394974 
L 85.805229 -115.70145 
L 88.560937 -116.721727 
L 89.985345 -115.739095 
L 89.620923 -116.532397 
L 90.754279 -116.985789 
L 94.006379 -116.122189 
L 90.634659 -117.422582 
L 92.351347 -118.229721 
L 94.791346 -117.321278 
L 92.401909 -118.445077 
L 95.11692 -119.295943 
L 92.087428 -119.374009 
L 93.850988 -122.331864 
L 97.590214 -122.836179 
L 96.348945 -123.942264 
L 97.486619 -125.537726 
L 97.636464 -126.994783 
L 98.716181 -127.36404 
L 99.199617 -126.068068 
L 100.127026 -125.939078 
L 100.242948 -123.942264 
L 100.715283 -125.702702 
L 101.676608 -124.32646 
L 102.005273 -125.15187 
L 104.111054 -124.646997 
L 99.880368 -126.922825 
L 100.029592 -127.76761 
L 102.896911 -128.255885 
L 104.122154 -126.143359 
L 106.887727 -125.12032 
L 105.357876 -124.190272 
L 107.628914 -123.745193 
L 107.267569 -125.391022 
L 104.9176 -125.993893 
L 103.957511 -127.314762 
L 106.003485 -127.860614 
L 105.750053 -128.468465 
L 104.136952 -128.01174 
L 103.59124 -129.112846 
L 105.899891 -131.313941 
L 109.954832 -131.685402 
L 109.122387 -130.014092 
L 109.524429 -129.478212 
L 108.939248 -126.994783 
L 108.030956 -126.188202 
L 109.229679 -126.792175 
L 109.644057 -129.076302 
L 112.046436 -128.620149 
L 112.442924 -128.705399 
L 110.512266 -129.275604 
L 110.260069 -130.427076 
L 111.636377 -132.208547 
L 111.643159 -131.197127 
L 112.860999 -133.560423 
L 113.160682 -132.427767 
L 113.807526 -133.952373 
L 114.812631 -132.675775 
L 114.004228 -130.014092 
L 114.488898 -128.888089 
L 110.959937 -124.40507 
L 113.689133 -126.078585 
L 115.245497 -128.603537 
L 118.053623 -127.488595 
L 115.32073 -129.275604 
L 115.695024 -130.338506 
L 115.245497 -131.127931 
L 117.539356 -131.649417 
L 117.587456 -132.707883 
L 119.868359 -133.644571 
L 118.363171 -132.344735 
L 119.322639 -131.464509 
L 120.458472 -132.654742 
L 120.127345 -131.778407 
L 120.525068 -131.890786 
L 120.752601 -133.087658 
L 121.636844 -133.087658 
L 120.752601 -133.459119 
L 121.363681 -134.633297 
L 123.396084 -134.202599 
L 123.780858 -133.148554 
L 127.488025 -130.943024 
L 126.104314 -132.150413 
L 126.881265 -132.243417 
L 126.089516 -133.601946 
L 127.140251 -133.508941 
L 127.605183 -134.759512 
L 125.216366 -134.852517 
L 127.497277 -135.984057 
L 124.618857 -135.171381 
L 120.752601 -137.183147 
L 122.495809 -138.012993 
L 122.87812 -137.183147 
L 123.357236 -138.714393 
L 125.789833 -136.34722 
L 125.271869 -137.846357 
L 126.644479 -138.747059 
L 127.538587 -138.484656 
L 127.632316 -137.523058 
L 129.061657 -138.255464 
L 128.825493 -136.189998 
L 130.982457 -136.069321 
L 129.213965 -136.626234 
L 129.780029 -137.860751 
L 134.071763 -137.169311 
L 133.083926 -135.984057 
L 130.037166 -135.556692 
L 128.903189 -134.945522 
L 133.315157 -135.789191 
L 134.462083 -136.34722 
L 134.473184 -134.864694 
L 135.294536 -134.806015 
L 135.036785 -133.738133 
L 136.820689 -133.644571 
L 138.407884 -134.674807 
L 135.651562 -135.604297 
L 137.194976 -136.023363 
L 136.587602 -136.626234 
L 137.519323 -137.005994 
L 136.169527 -137.283907 
L 138.351776 -137.664225 
L 136.69181 -137.843037 
L 138.977032 -138.491853 
L 137.834425 -138.677849 
L 138.209947 -139.320026 
L 141.277052 -141.277534 
L 144.552581 -140.553985 
L 142.676796 -141.712668 
L 144.568614 -143.747671 
L 147.380438 -142.796046 
L 146.868634 -143.997897 
L 143.755899 -145.019834 
L 144.897279 -146.140871 
L 146.713242 -144.955618 
L 146.545523 -146.038452 
L 147.390917 -146.227223 
L 146.247689 -147.071463 
L 146.945095 -147.648308 
L 148.115457 -146.700546 
L 149.729171 -147.561942 
L 148.839375 -146.227223 
L 150.639312 -146.856665 
L 151.336718 -145.112839 
L 152.44788 -146.379465 
L 152.241313 -147.627274 
L 153.536849 -146.903167 
L 152.822175 -145.795423 
L 156.490494 -146.097131 
L 150.033165 -141.194502 
L 151.339188 -141.528862 
L 149.929571 -141.008493 
L 151.651199 -140.552326 
L 151.41996 -139.603462 
L 150.089895 -139.23532 
L 151.001271 -138.524506 
L 149.32281 -137.468256 
L 149.046564 -135.739369 
L 149.507798 -135.217883 
L 149.568233 -136.169523 
L 150.19349 -136.440224 
L 150.337781 -135.468667 
L 151.390364 -135.724975 
L 153.570143 -138.398848 
L 152.817856 -139.002822 
L 161.702227 -147.259677 
L 162.548857 -146.970703 
L 162.289878 -144.360502 
L 159.641462 -143.16197 
L 162.030892 -143.061224 
L 160.885815 -139.283482 
L 163.207415 -140.876183 
L 165.403227 -140.738335 
L 164.424641 -142.038729 
L 166.650049 -142.309444 
L 165.38658 -143.068965 
L 165.817604 -143.618137 
L 165.467973 -144.260857 
L 167.12609 -144.459601 
L 167.084772 -145.552394 
L 169.400825 -145.298849 
L 165.643717 -147.271867 
L 167.274078 -147.164468 
L 166.548304 -148.309858 
L 168.829214 -147.34328 
L 168.604757 -148.964198 
L 169.556216 -149.681107 
L 170.09823 -148.764352 
L 173.657409 -149.123636 
L 174.184625 -148.710108 
L 173.761003 -147.721939 
L 176.365639 -147.579112 
L 174.959726 -145.576761 
L 173.91516 -145.669752 
L 174.221624 -145.162661 
L 170.388661 -145.112839 
L 173.196167 -144.360502 
L 169.556216 -142.5962 
L 174.489854 -143.90545 
L 171.065723 -140.916046 
L 171.324709 -140.172565 
L 173.610544 -141.194502 
L 172.516643 -140.39788 
L 173.170268 -140.358017 
L 174.747605 -141.389369 
L 173.424321 -139.554755 
L 173.47427 -136.189998 
L 172.311924 -135.317541 
L 173.600679 -135.918739 
L 173.970041 -139.776737 
L 175.165059 -141.058872 
L 176.051158 -140.451579 
L 176.412503 -141.295248 
L 175.250771 -141.951819 
L 176.907039 -143.574954 
L 176.412503 -144.555926 
L 178.228466 -146.227223 
L 182.851328 -145.019834 
L 182.018875 -144.462921 
L 182.94999 -144.360502 
L 182.105823 -143.229506 
L 185.084753 -144.465139 
L 185.705698 -143.719441 
L 184.930596 -142.782209 
L 188.154942 -144.016727 
L 188.928194 -143.618137 
L 188.095742 -143.16197 
L 189.993106 -142.45725 
L 187.366891 -141.667267 
L 191.769615 -141.723185 
L 193.321667 -140.069588 
L 194.536423 -140.469293 
L 195.52179 -138.213941 
L 191.519881 -137.730101 
L 188.565614 -135.317541 
L 181.454668 -135.984057 
L 177.15985 -136.827182 
L 176.87867 -136.753564 
L 177.917691 -136.626234 
L 176.976097 -135.804143 
L 178.647163 -135.687887 
L 177.758601 -135.511292 
L 184.981158 -133.932442 
L 182.540545 -132.43774 
L 185.400469 -133.087658 
L 185.659447 -132.150413 
L 183.476585 -129.735635 
L 187.591962 -131.298431 
L 187.836763 -131.220936 
L 186.881607 -130.343486 
L 186.901337 -130.098239 
L 187.900275 -130.80851 
L 188.772803 -130.098239 
L 188.199336 -131.027172 
L 188.928194 -131.220936 
L 188.613092 -132.707883 
L 189.552837 -132.803106 
L 190.411802 -132.050768 
L 190.466676 -130.296426 
L 189.91541 -129.91223 
L 190.721964 -129.971467 
L 191.020412 -131.873072 
L 193.733271 -131.705171 
L 194.390579 -129.886013 
L 194.167395 -128.145928 
L 193.084344 -127.836574 
L 188.263476 -129.374881 
L 189.116289 -128.337856 
L 188.296361 -126.753849 
L 182.639123 -124.845034 
L 181.458972 -122.080576 
L 180.274895 -121.213697 
L 178.472942 -122.195173 
L 178.759562 -123.688487 
L 182.394792 -127.059693 
L 180.899038 -129.774219 
L 175.272343 -131.656328 
L 171.198565 -135.371322 
L 165.390186 -133.010081 
L 161.097922 -133.329625 
L 158.555138 -130.475184 
L 157.091496 -130.12013 
L 155.061654 -123.710283 
L 155.50568 -120.650539 
L 154.232338 -119.029268 
L 151.000802 -118.19262 
L 150.479246 -115.947743 
L 148.757171 -114.713852 
L 141.360628 -118.241136 
L 135.818509 -115.544881 
L 129.844889 -116.835711 
L 129.558269 -118.328318 
L 124.007535 -124.433736 
L 119.912617 -123.99995 
L 119.421604 -123.206892 
L 120.351946 -121.933641 
L 119.709004 -121.240418 
L 117.230437 -122.161432 
L 116.311847 -121.2362 
L 112.364933 -121.042857 
L 114.174721 -119.517897 
L 114.291401 -118.082949 
L 113.382987 -116.103114 
L 111.30381 -114.499421 
L 113.45347 -113.631141 
L 111.371943 -111.915654 
L 99.741085 -114.943765 
L 97.659559 -114.349669 
L 97.864733 -109.840202 
L 95.837247 -106.767113 
L 91.294384 -108.56906 
L 87.213558 -105.735013 
L 85.731117 -102.046725 
L 82.24468 -99.282976 
L 84.599512 -96.256633 
L 84.430361 -94.248323 
L 76.93436 -86.609169 
L 77.355679 -83.66579 
L 74.108875 -82.011473 
L 70.223047 -81.632869 
L 71.043755 -77.237658 
L 70.375756 -75.858939 
L 70.02414 -70.648522 
L 63.420504 -60.661487 
L 66.861912 -59.046542 
L 67.247201 -55.01516 
L 65.85639 -52.845506 
L 58.417165 -53.516226 
L 56.139861 -52.122053 
L 52.263429 -47.248403 
L 52.638542 -45.563147 
L 50.915686 -43.041256 
L 52.66047 -39.130811 
L 51.680013 -37.851219 
L 52.156925 -35.487515 
L 51.664351 -33.482375 
L 53.354314 -29.398273 
L 52.198432 -21.761922 
L 57.70296 -16.656971 
L 56.305883 -12.528911 
L 52.892277 -11.923577 
L 55.559575 -3.997926 
L 54.698927 -2.543985 
L 54.634711 0.59943 
L 52.062173 3.086873 
L 49.833423 3.440511 
L 50.194435 5.596111 
L 48.50995 7.050052 
L 49.546015 11.913157 
L 48.430072 16.397305 
L 46.820767 16.724237 
L 46.345993 14.211203 
L 44.777907 13.731241 
L 44.732892 12.631795 
L 43.642074 13.568482 
L 41.411734 12.361638 
L 41.722517 11.052387 
L 40.926449 11.014197 
L 40.301807 9.450844 
L 41.049161 8.770477 
L 40.063786 5.429529 
L 40.785856 3.654697 
L 41.257577 5.267873 
L 41.521496 3.216258 
L 41.037439 2.905135 
L 39.421262 3.74494 
L 40.475694 7.041603 
L 39.93121 8.023677 
L 39.127747 8.257291 
L 38.831762 5.948797 
L 37.518965 5.462195 
L 38.692403 6.352924 
L 38.705974 8.026439 
L 37.617005 7.691521 
L 39.437295 9.46468 
L 39.186939 10.562466 
L 39.714777 11.188575 
L 38.553045 11.618715 
L 38.144221 14.497414 
L 37.518965 13.754492 
L 37.387623 15.086436 
L 34.653495 15.913506 
L 34.165127 14.61367 
L 32.326341 13.669786 
L 33.72732 15.528208 
L 30.506059 16.921607 
L 30.293937 17.579824 
L 31.65422 17.579824 
L 30.564016 18.864721 
L 28.779498 18.830953 
L 29.880795 19.35354 
L 27.585094 20.658369 
L 27.555377 22.100338 
L 21.595789 27.526819 
L 20.850897 26.995919 
L 21.269594 26.709721 
L 20.888518 25.856066 
L 20.333547 27.646395 
L 17.473631 28.676631 
L 14.980606 28.118616 
L 13.137502 29.008243 
L 14.204891 27.55339 
L 12.334039 28.203308 
L 11.603953 27.55339 
L 13.00616 26.995919 
L 11.402318 26.438448 
L 11.632314 27.274933 
L 11.052687 27.284348 
L 10.984243 26.337702 
L 10.725257 27.274933 
L 11.439931 28.026169 
L 10.196806 27.985748 
L 9.530232 27.274933 
L 11.920283 25.22276 
L 10.67346 25.880433 
L 10.311501 25.1757 
L 10.717854 24.461566 
L 9.771336 25.607514 
L 5.586901 23.678236 
L 5.166355 22.418807 
L 2.829958 21.45057 
L 1.554728 18.646603 
L 2.271289 16.751651 
L 2.003059 15.906867 
L 2.678264 16.322055 
L 2.104804 14.785286 
L 3.355325 15.621213 
L 3.355325 17.115915 
L 4.400505 15.785631 
L 6.211543 17.38829 
L 7.244396 17.486819 
L 5.947011 16.642592 
L 10.255385 14.591521 
L 6.72581 15.3339 
L 5.766956 16.599967 
L 5.321747 15.807223 
L 5.895214 15.3339 
L 4.566998 14.408831 
L 6.468673 13.29057 
L 5.577035 13.277849 
L 6.809053 11.753243 
L 9.008569 10.959382 
L 6.678332 11.666877 
L 6.1542 11.137093 
L 7.301126 10.959382 
L 5.475904 10.765074 
L 5.824921 10.089687 
L 7.349218 8.363588 
L 9.633826 7.691521 
L 7.301126 8.155987 
L 7.680967 6.476935 
L 6.669694 9.059451 
L 4.935738 10.469461 
L 4.648391 9.228848 
L 6.670929 8.814204 
L 4.050882 7.971638 
L 3.97627 9.009071 
L 2.829336 9.751993 
L 3.875138 9.469659 
L 4.446756 10.537555 
L 2.570358 11.323102 
L 2.377967 9.643492 
L 1.762576 11.531247 
L 1.215008 9.798496 
L 0.959727 11.27328 
L 0.573097 9.65069 
L 0.185239 10.620587 
L -0.538679 7.877531 
L 0.541652 6.498527 
L 1.06517 7.2193 
L 1.639251 5.267873 
L 1.091069 8.443301 
L 1.845819 7.969978 
L 2.207778 6.1038 
L 3.649454 7.012815 
L 4.596594 6.391672 
L 3.586556 6.11931 
L 4.102679 5.390782 
L 5.799022 5.171549 
L 7.72105 3.87725 
L 5.527701 4.988872 
L 5.010971 4.71096 
L 5.274883 3.595474 
L 4.235248 4.803965 
L 2.829336 3.688479 
L 7.715496 0.0497 
L 6.308356 0.244009 
L 6.078353 -0.994386 
L 8.176117 -3.303424 
L 10.362677 -3.961655 
L 9.530232 -1.863523 
L 9.375461 -0.136309 
L 9.479056 0.606056 
L 10.466271 -3.497746 
L 13.89041 -5.177343 
L 12.334039 -5.177343 
L 12.996916 -6.316093 
L 10.481691 -4.186412 
L 9.996406 -4.333116 
L 10.777054 -5.355611 
L 7.76236 -3.581894 
L 6.855303 -4.703475 
L 7.324554 -3.451244 
L 6.411943 -3.303424 
L 6.939781 -3.125727 
L 6.570419 -1.75558 
L 5.483306 -1.900067 
L 4.385707 -0.330631 
L 4.419009 1.381644 
L 3.534759 1.780234 
L 3.15122 0.876771 
L 3.97627 0.420604 
L 3.397871 0.563431 
L 3.29983 -0.694338 
L 3.924473 -1.167103 
L 2.053007 -0.508328 
L 3.29983 -1.453872 
L 2.263894 -1.53802 
L 3.514414 -3.628941 
L 1.038651 -0.082065 
L 0.237037 -0.888647 
L 0.598996 -1.250707 
L -0.378354 -1.167103 
L 0.284515 -1.910026 
L -0.773615 -2.087178 
L -0.337044 -2.661819 
L -0.998686 -3.075905 
L 0.190172 -3.68264 
L -0.270449 -4.741121 
L 0.2506 -5.482384 
L 1.541824 -4.214098 
L 2.885453 -4.156521 
L 3.343611 -4.883948 
L 3.614303 -8.066001 
L 2.963148 -7.87225 
L 3.052558 -8.604656 
L 1.923514 -6.849211 
L -0.378354 -6.106833 
L -1.422921 -7.314222 
L -0.337044 -6.748451 
L -1.113381 -8.151265 
z
" clip-path="url(#p6cc79d1641)" style="fill: #eeeeee; stroke: #000000; stroke-width: 0.3"/>
    <path d="M 73.604632 -110.802699 
L 75.163466 -113.053058 
L 76.407819 -113.411785 
L 75.528509 -113.597794 
L 76.257367 -113.783804 
L 75.057409 -114.256569 
L 75.350924 -114.712736 
L 78.482154 -115.464516 
L 77.028764 -116.764352 
L 79.111737 -116.679102 
L 77.156408 -117.599177 
L 78.53827 -118.359814 
L 77.861217 -118.731833 
L 78.590067 -120.125789 
L 80.579925 -120.189447 
L 80.302444 -117.887606 
L 79.47431 -117.144126 
L 81.202719 -117.523886 
L 79.572358 -115.742415 
L 79.314607 -114.348472 
L 80.20995 -115.764564 
L 81.910604 -115.826562 
L 81.533233 -116.814731 
L 82.897214 -117.144126 
L 82.017904 -118.445077 
L 83.433681 -118.569074 
L 83.211073 -119.424933 
L 85.493832 -118.359814 
L 85.028279 -117.887606 
L 85.653535 -116.764352 
L 85.051707 -114.673989 
L 82.084499 -114.463068 
L 80.833979 -112.310679 
L 80.343754 -112.157894 
L 80.302444 -113.876809 
L 78.435297 -111.224526 
L 76.14884 -111.917083 
L 78.336635 -113.597794 
L 77.900064 -114.091049 
L 77.033083 -112.828845 
L 74.354449 -110.826494 
z
" clip-path="url(#p6cc79d1641)" style="fill: #eeeeee; stroke: #000000; stroke-width: 0.3"/>
    <path d="M 87.139613 -121.941573 
L 90.164786 -123.477798 
L 88.090451 -123.393106 
L 87.939378 -123.764009 
L 89.516094 -123.856456 
L 89.96253 -124.229033 
L 88.14656 -124.794803 
L 89.857709 -124.972514 
L 87.939378 -125.630731 
L 88.301951 -126.095755 
L 91.885179 -125.723736 
L 90.997232 -126.374211 
L 92.615265 -126.56852 
L 90.699405 -126.928363 
L 90.272079 -127.5816 
L 91.829677 -127.302586 
L 91.459701 -128.054923 
L 93.748007 -127.024687 
L 92.401909 -128.898606 
L 93.843585 -127.659653 
L 93.851601 -128.898606 
L 94.56504 -128.096446 
L 95.368503 -128.724215 
L 95.153919 -126.838677 
L 96.012263 -127.860614 
L 96.818817 -127.488595 
L 95.986364 -126.56852 
L 96.972352 -126.699728 
L 97.125281 -125.616894 
L 95.853174 -125.263147 
L 96.189242 -124.32148 
L 95.516499 -124.136029 
L 96.348331 -123.291788 
L 92.436445 -123.464519 
L 89.839205 -120.898602 
L 89.17695 -120.970016 
L 89.691216 -121.893968 
z
" clip-path="url(#p6cc79d1641)" style="fill: #eeeeee; stroke: #000000; stroke-width: 0.3"/>
    <path d="M 69.137162 -116.122189 
L 70.232298 -117.144126 
L 69.447331 -117.422582 
L 69.828407 -117.95736 
L 70.279777 -118.073602 
L 70.463529 -117.290272 
L 70.853857 -117.144126 
L 70.889007 -118.42735 
L 71.329276 -117.441956 
L 73.000334 -117.479601 
L 73.345646 -118.917285 
L 73.750159 -117.93687 
L 74.0819 -118.738472 
L 74.908185 -118.259068 
L 73.774822 -120.242589 
L 74.344584 -120.89418 
L 75.528509 -119.568318 
L 75.109206 -119.188 
L 75.941651 -119.475313 
L 75.528509 -118.359814 
L 76.614394 -118.731833 
L 75.787495 -117.980611 
L 76.691468 -117.083229 
L 76.547798 -116.250621 
L 74.179327 -115.007247 
L 72.237568 -115.516556 
L 74.95505 -116.679102 
L 74.851455 -117.422582 
L 71.271932 -116.764352 
L 70.072588 -115.422449 
z
" clip-path="url(#p6cc79d1641)" style="fill: #eeeeee; stroke: #000000; stroke-width: 0.3"/>
    <path d="M 126.368233 -143.16197 
L 129.890404 -142.866357 
L 129.657938 -143.997897 
L 130.843712 -144.108072 
L 132.236675 -142.558554 
L 133.004374 -143.16197 
L 132.222491 -144.529913 
L 134.087175 -143.342442 
L 135.70336 -144.360502 
L 134.823428 -145.400152 
L 136.8139 -144.948979 
L 136.916881 -146.129239 
L 137.989809 -145.214156 
L 135.522683 -143.790854 
L 134.994853 -142.322723 
L 127.914731 -140.772661 
L 129.270081 -142.689204 
z
" clip-path="url(#p6cc79d1641)" style="fill: #eeeeee; stroke: #000000; stroke-width: 0.3"/>
    <path d="M 96.400742 -128.797288 
L 99.467233 -129.456621 
L 98.060086 -130.458082 
L 101.230785 -130.292004 
L 99.101569 -130.672322 
L 99.332807 -131.592942 
L 100.242948 -130.943024 
L 101.384942 -131.685402 
L 101.461403 -130.44147 
L 102.213076 -130.098239 
L 102.420264 -131.406388 
L 101.579795 -132.796467 
L 104.447735 -131.127931 
L 102.452945 -129.933277 
L 102.773586 -128.963366 
L 102.264873 -128.519389 
L 97.905929 -127.961918 
z
" clip-path="url(#p6cc79d1641)" style="fill: #eeeeee; stroke: #000000; stroke-width: 0.3"/>
    <path d="M 151.691896 -148.334769 
L 153.049708 -149.347849 
L 154.919939 -148.65917 
L 153.668804 -149.867117 
L 154.532081 -150.200375 
L 155.593302 -150.053126 
L 155.580353 -149.255946 
L 157.278545 -149.537178 
L 156.217945 -148.65917 
L 156.722346 -147.979362 
L 158.705423 -148.381271 
L 157.602891 -147.613982 
L 153.668804 -146.970703 
L 152.629784 -147.721939 
L 153.724921 -148.186949 
z
" clip-path="url(#p6cc79d1641)" style="fill: #eeeeee; stroke: #000000; stroke-width: 0.3"/>
    <path d="M 133.215268 -139.893551 
L 136.014135 -141.389369 
L 135.651562 -141.796802 
L 136.307036 -141.640697 
L 136.43221 -140.83134 
L 136.652349 -141.835563 
L 138.407884 -141.759714 
L 137.283773 -142.754523 
L 138.66687 -142.689204 
L 139.292127 -141.194502 
L 138.811161 -139.996515 
L 135.960489 -138.194009 
L 134.943056 -138.450888 
L 135.341393 -139.986556 
L 134.61624 -138.985652 
z
" clip-path="url(#p6cc79d1641)" style="fill: #eeeeee; stroke: #000000; stroke-width: 0.3"/>
    <path d="M 67.631361 -109.214978 
L 68.826386 -110.430679 
L 68.045731 -110.531983 
L 68.614878 -110.709694 
L 68.426193 -111.381203 
L 69.882667 -111.300375 
L 69.033575 -112.204396 
L 71.892877 -113.039766 
L 72.359045 -112.710929 
L 72.064295 -111.954728 
L 75.010544 -113.31878 
L 71.700487 -110.605057 
L 71.996464 -111.460916 
L 71.573464 -111.729971 
L 70.78664 -110.191528 
z
" clip-path="url(#p6cc79d1641)" style="fill: #eeeeee; stroke: #000000; stroke-width: 0.3"/>
    <path d="M 62.010796 -108.102254 
L 63.014052 -109.307983 
L 62.181607 -108.935977 
L 62.181607 -109.679444 
L 63.216922 -110.219759 
L 62.338848 -110.432339 
L 63.374776 -111.140936 
L 65.99915 -111.725536 
L 67.331064 -110.609492 
L 64.415646 -109.307983 
L 64.96013 -108.776538 
L 63.846498 -108.092295 
z
" clip-path="url(#p6cc79d1641)" style="fill: #eeeeee; stroke: #000000; stroke-width: 0.3"/>
    <path d="M -1.531448 4.660036 
L -0.900024 3.410009 
L 0.547198 5.648205 
L 0.136526 6.010251 
L 0.125426 5.108448 
L -0.595409 5.174882 
L -0.908654 7.260823 
L -1.182439 5.980905 
L -0.642273 4.988872 
z
" clip-path="url(#p6cc79d1641)" style="fill: #eeeeee; stroke: #000000; stroke-width: 0.3"/>
    <path d="M 76.925169 -120.226535 
L 78.020919 -122.177404 
L 82.417476 -124.698479 
L 81.858807 -122.836179 
L 80.12917 -121.139413 
L 77.710136 -120.868712 
L 77.710136 -119.568318 
L 76.973883 -119.166408 
z
" clip-path="url(#p6cc79d1641)" style="fill: #eeeeee; stroke: #000000; stroke-width: 0.3"/>
    <path d="M 53.202272 -80.131323 
L 55.324085 -82.08275 
L 54.238208 -82.184054 
L 55.151433 -82.924215 
L 55.60897 -82.059499 
L 55.118132 -81.710731 
L 55.950584 -81.339827 
L 55.014537 -80.751908 
z
" clip-path="url(#p6cc79d1641)" style="fill: #eeeeee; stroke: #000000; stroke-width: 0.3"/>
    <path d="M 141.032872 -147.899636 
L 143.600508 -147.907948 
L 142.452347 -147.442924 
L 143.755899 -147.350478 
L 142.225427 -146.783592 
L 141.211692 -147.350478 
L 142.193361 -147.628934 
z
" clip-path="url(#p6cc79d1641)" style="fill: #eeeeee; stroke: #000000; stroke-width: 0.3"/>
    <path d="M 114.544393 -135.743804 
L 114.906973 -136.886419 
L 117.150877 -137.567343 
L 117.836569 -137.201976 
L 117.432064 -135.918739 
L 116.155645 -134.945522 
L 116.077949 -135.789191 
z
" clip-path="url(#p6cc79d1641)" style="fill: #eeeeee; stroke: #000000; stroke-width: 0.3"/>
    <path d="M 101.958409 -133.636816 
L 105.590342 -135.687887 
L 106.987624 -134.236367 
L 109.188982 -134.153322 
L 108.106182 -133.688311 
L 106.852577 -131.942825 
L 104.934255 -131.460087 
z
" clip-path="url(#p6cc79d1641)" style="fill: #eeeeee; stroke: #000000; stroke-width: 0.3"/>
    <path d="M 56.937186 -104.553161 
L 58.964657 -108.471511 
L 59.739759 -108.294358 
L 58.931363 -107.470608 
L 59.488789 -106.374482 
L 58.374543 -106.721032 
L 58.653874 -105.491508 
z
" clip-path="url(#p6cc79d1641)" style="fill: #eeeeee; stroke: #000000; stroke-width: 0.3"/>
    <path d="M 51.378284 -69.31353 
L 52.57331 -71.458708 
L 52.19162 -71.706159 
L 53.461872 -72.674954 
L 52.469102 -72.767959 
L 52.932807 -74.138664 
L 54.811667 -71.737723 
z
" clip-path="url(#p6cc79d1641)" style="fill: #eeeeee; stroke: #000000; stroke-width: 0.3"/>
    <path d="M 139.136743 -143.762066 
L 140.50195 -144.566443 
L 142.668166 -142.355933 
L 140.41501 -141.330676 
L 139.184221 -142.503195 
L 139.551113 -143.432127 
z
" clip-path="url(#p6cc79d1641)" style="fill: #eeeeee; stroke: #000000; stroke-width: 0.3"/>
    <path d="M 108.082753 -137.748917 
L 109.148286 -138.298089 
L 110.192852 -136.656124 
L 110.766933 -137.25622 
L 112.757405 -135.882196 
L 109.893791 -135.262726 
z
" clip-path="url(#p6cc79d1641)" style="fill: #eeeeee; stroke: #000000; stroke-width: 0.3"/>
    <path d="M 89.49143 -119.568318 
L 90.997232 -118.815981 
L 90.422537 -119.289304 
L 91.280881 -119.631977 
L 92.195955 -118.917285 
L 90.553258 -117.925796 
z
" clip-path="url(#p6cc79d1641)" style="fill: #eeeeee; stroke: #000000; stroke-width: 0.3"/>
    <path d="M 73.410393 -106.341829 
L 74.505529 -107.146193 
L 74.764508 -106.571008 
L 75.944735 -106.391651 
L 75.626557 -106.001361 
L 74.940252 -105.921648 
z
" clip-path="url(#p6cc79d1641)" style="fill: #eeeeee; stroke: #000000; stroke-width: 0.3"/>
    <path d="M 59.858765 -107.259129 
L 60.363166 -108.389567 
L 61.038379 -107.99929 
L 60.675798 -108.893339 
L 61.866505 -108.851272 
L 61.325112 -107.310067 
z
" clip-path="url(#p6cc79d1641)" style="fill: #eeeeee; stroke: #000000; stroke-width: 0.3"/>
    <path d="M 50.814077 -67.447911 
L 52.240334 -69.193397 
L 53.031468 -68.560635 
L 52.676905 -68.004824 
L 53.315118 -67.825467 
L 52.15894 -67.075892 
z
" clip-path="url(#p6cc79d1641)" style="fill: #eeeeee; stroke: #000000; stroke-width: 0.3"/>
    <path d="M 43.679073 -61.075478 
L 44.045965 -61.587004 
L 46.816479 -59.721942 
L 44.761253 -59.620081 
L 44.370933 -60.278311 
L 44.848814 -60.81917 
z
" clip-path="url(#p6cc79d1641)" style="fill: #eeeeee; stroke: #000000; stroke-width: 0.3"/>
    <path d="M 42.084476 -64.281354 
L 44.163744 -65.683051 
L 45.414264 -64.87481 
L 43.745055 -64.281354 
L 44.086048 -64.982196 
L 43.439204 -64.940128 
z
" clip-path="url(#p6cc79d1641)" style="fill: #eeeeee; stroke: #000000; stroke-width: 0.3"/>
    <path d="M 22.769849 -45.45802 
L 26.637333 -47.81854 
L 27.977884 -48.038876 
L 28.153007 -47.175276 
L 29.29253 -46.835365 
L 24.480369 -45.018465 
z
" clip-path="url(#p6cc79d1641)" style="fill: #eeeeee; stroke: #000000; stroke-width: 0.3"/>
    <path d="M 18.983751 -44.706785 
L 21.199293 -45.549909 
L 22.04099 -44.419471 
L 21.321391 -43.584102 
L 20.018452 -43.770111 
L 20.64433 -43.770111 
z
" clip-path="url(#p6cc79d1641)" style="fill: #eeeeee; stroke: #000000; stroke-width: 0.3"/>
    <path d="M 15.864849 -39.066213 
L 16.128767 -39.944208 
L 17.370036 -39.386193 
L 17.521109 -40.696001 
L 18.439266 -39.201285 
L 17.077143 -38.376432 
z
" clip-path="url(#p6cc79d1641)" style="fill: #eeeeee; stroke: #000000; stroke-width: 0.3"/>
    <path d="M 129.575931 -138.863315 
L 131.85622 -139.773417 
L 132.157131 -138.931408 
L 132.475309 -139.720276 
L 134.444822 -137.806494 
z
" clip-path="url(#p6cc79d1641)" style="fill: #eeeeee; stroke: #000000; stroke-width: 0.3"/>
    <path d="M -0.765598 1.031774 
L -0.198299 1.004646 
L -0.510931 0.107822 
L 0.128509 0.694081 
L -0.029966 1.774697 
z
" clip-path="url(#p6cc79d1641)" style="fill: #eeeeee; stroke: #000000; stroke-width: 0.3"/>
    <path d="M -2.461328 -1.817035 
L -1.789199 -2.559957 
L -2.453925 -4.270002 
L -1.356326 -2.651846 
L -1.220673 -1.023174 
z
" clip-path="url(#p6cc79d1641)" style="fill: #eeeeee; stroke: #000000; stroke-width: 0.3"/>
    <path d="M -3.557692 -12.533523 
L -3.243211 -14.585139 
L -2.860286 -13.769143 
L -2.363901 -14.314437 
L -2.177678 -13.32737 
z
" clip-path="url(#p6cc79d1641)" style="fill: #eeeeee; stroke: #000000; stroke-width: 0.3"/>
    <path d="M 146.552918 -148.722285 
L 147.29781 -149.415385 
L 148.240017 -149.242654 
L 147.733145 -148.308185 
z
" clip-path="url(#p6cc79d1641)" style="fill: #eeeeee; stroke: #000000; stroke-width: 0.3"/>
    <path d="M 117.598549 -135.966343 
L 118.083219 -136.318431 
L 118.365634 -135.429362 
L 117.845199 -135.340779 
z
" clip-path="url(#p6cc79d1641)" style="fill: #eeeeee; stroke: #000000; stroke-width: 0.3"/>
    <path d="M 115.580943 -131.912921 
L 115.854114 -132.931538 
L 116.915941 -132.834112 
L 116.944924 -131.860895 
z
" clip-path="url(#p6cc79d1641)" style="fill: #eeeeee; stroke: #000000; stroke-width: 0.3"/>
    <path d="M 106.551053 -136.087035 
L 107.104168 -136.551501 
L 108.095089 -135.621453 
L 106.730487 -135.885529 
z
" clip-path="url(#p6cc79d1641)" style="fill: #eeeeee; stroke: #000000; stroke-width: 0.3"/>
    <path d="M 103.981561 -136.415871 
L 105.288197 -137.814249 
L 105.849328 -137.079625 
L 105.332592 -135.913202 
z
" clip-path="url(#p6cc79d1641)" style="fill: #eeeeee; stroke: #000000; stroke-width: 0.3"/>
    <path d="M 91.465869 -120.785666 
L 92.038715 -121.818677 
L 93.004358 -121.994714 
L 92.033168 -120.692661 
z
" clip-path="url(#p6cc79d1641)" style="fill: #eeeeee; stroke: #000000; stroke-width: 0.3"/>
    <path d="M 83.264719 -120.310683 
L 85.571528 -120.310683 
L 85.730617 -119.346323 
L 84.890156 -119.188 
z
" clip-path="url(#p6cc79d1641)" style="fill: #eeeeee; stroke: #000000; stroke-width: 0.3"/>
    <path d="M 82.000636 -112.544851 
L 82.961339 -114.262107 
L 84.485643 -113.829191 
L 84.301891 -112.761867 
z
" clip-path="url(#p6cc79d1641)" style="fill: #eeeeee; stroke: #000000; stroke-width: 0.3"/>
    <path d="M 77.359891 -107.172219 
L 78.054221 -107.484444 
L 80.752578 -107.248612 
L 80.402333 -106.920334 
z
" clip-path="url(#p6cc79d1641)" style="fill: #eeeeee; stroke: #000000; stroke-width: 0.3"/>
    <path d="M 66.074376 -94.588452 
L 68.201122 -95.787541 
L 67.583882 -93.579807 
L 66.885855 -94.370334 
z
" clip-path="url(#p6cc79d1641)" style="fill: #eeeeee; stroke: #000000; stroke-width: 0.3"/>
    <path d="M 57.040781 -85.16018 
L 57.165341 -85.947387 
L 58.101381 -86.187096 
L 57.78443 -84.75661 
z
" clip-path="url(#p6cc79d1641)" style="fill: #eeeeee; stroke: #000000; stroke-width: 0.3"/>
    <path d="M 56.278628 -83.235337 
L 56.987748 -84.160392 
L 57.60561 -83.812182 
L 57.22392 -82.863318 
z
" clip-path="url(#p6cc79d1641)" style="fill: #eeeeee; stroke: #000000; stroke-width: 0.3"/>
    <path d="M 49.149179 -74.727685 
L 49.643101 -75.749622 
L 51.012014 -75.70312 
L 50.342969 -74.347924 
z
" clip-path="url(#p6cc79d1641)" style="fill: #eeeeee; stroke: #000000; stroke-width: 0.3"/>
    <path d="M 47.32704 -67.063715 
L 47.793215 -67.813291 
L 49.167675 -67.945043 
L 48.46842 -66.931963 
z
" clip-path="url(#p6cc79d1641)" style="fill: #eeeeee; stroke: #000000; stroke-width: 0.3"/>
    <path d="M 46.006227 -60.520782 
L 46.172719 -61.347295 
L 46.923149 -60.713431 
L 46.675885 -60.095621 
z
" clip-path="url(#p6cc79d1641)" style="fill: #eeeeee; stroke: #000000; stroke-width: 0.3"/>
    <path d="M 28.34786 -47.636966 
L 28.680223 -48.104752 
L 29.454089 -47.923735 
L 28.820195 -47.450399 
z
" clip-path="url(#p6cc79d1641)" style="fill: #eeeeee; stroke: #000000; stroke-width: 0.3"/>
    <path d="M 21.917051 -42.014653 
L 22.446116 -42.134228 
L 23.049793 -41.577873 
L 22.254347 -41.306056 
z
" clip-path="url(#p6cc79d1641)" style="fill: #eeeeee; stroke: #000000; stroke-width: 0.3"/>
    <path d="M 1.737905 -28.577801 
L 3.510717 -29.321282 
L 3.924473 -28.430553 
L 2.077057 -28.127172 
z
" clip-path="url(#p6cc79d1641)" style="fill: #eeeeee; stroke: #000000; stroke-width: 0.3"/>
    <path d="M 0.674843 1.768058 
L 2.624618 0.699061 
L 2.781858 2.853095 
L 1.782921 3.077308 
z
" clip-path="url(#p6cc79d1641)" style="fill: #eeeeee; stroke: #000000; stroke-width: 0.3"/>
    <path d="M 0.388109 -5.734814 
L 3.143817 -7.500231 
L 3.096339 -4.84852 
L 2.546922 -4.333116 
z
" clip-path="url(#p6cc79d1641)" style="fill: #eeeeee; stroke: #000000; stroke-width: 0.3"/>
    <path d="M -0.171173 2.937243 
L 0.404756 2.024365 
L 1.639251 3.595474 
L 0.885729 4.988872 
z
" clip-path="url(#p6cc79d1641)" style="fill: #eeeeee; stroke: #000000; stroke-width: 0.3"/>
    <path d="M -2.186309 -25.634341 
L -2.120327 -25.982551 
L -1.155305 -25.856336 
L -1.345233 -24.518297 
z
" clip-path="url(#p6cc79d1641)" style="fill: #eeeeee; stroke: #000000; stroke-width: 0.3"/>
    <path d="M -2.235022 -5.428684 
L -0.929007 -5.11646 
L -0.518334 -4.170358 
L -1.119541 -3.770108 
z
" clip-path="url(#p6cc79d1641)" style="fill: #eeeeee; stroke: #000000; stroke-width: 0.3"/>
    <path d="M -3.307336 -21.077705 
L -2.97683 -21.587014 
L -2.798002 -21.099841 
L -2.802935 -20.777657 
z
" clip-path="url(#p6cc79d1641)" style="fill: #eeeeee; stroke: #000000; stroke-width: 0.3"/>
    <path d="M -3.557692 -23.350758 
L -2.423094 -24.103653 
L -0.378354 -23.443763 
L -2.701197 -22.525347 
z
" clip-path="url(#p6cc79d1641)" style="fill: #eeeeee; stroke: #000000; stroke-width: 0.3"/>
    <path d="M 185.188347 -131.127931 
L 186.167554 -133.107589 
L 188.175286 -132.014783 
z
" clip-path="url(#p6cc79d1641)" style="fill: #eeeeee; stroke: #000000; stroke-width: 0.3"/>
    <path d="M 124.439416 -133.366114 
L 124.486281 -133.73148 
L 124.745267 -133.644571 
z
" clip-path="url(#p6cc79d1641)" style="fill: #eeeeee; stroke: #000000; stroke-width: 0.3"/>
    <path d="M 124.354325 -139.296775 
L 125.181224 -138.747059 
L 124.494918 -137.908356 
z
" clip-path="url(#p6cc79d1641)" style="fill: #eeeeee; stroke: #000000; stroke-width: 0.3"/>
    <path d="M 118.828725 -134.674807 
L 119.105593 -135.046826 
L 119.520576 -134.879088 
z
" clip-path="url(#p6cc79d1641)" style="fill: #eeeeee; stroke: #000000; stroke-width: 0.3"/>
    <path d="M 117.35252 -134.342107 
L 119.920156 -134.489355 
L 118.348373 -133.502846 
z
" clip-path="url(#p6cc79d1641)" style="fill: #eeeeee; stroke: #000000; stroke-width: 0.3"/>
    <path d="M 111.195487 -134.71135 
L 111.558682 -134.574605 
L 111.210907 -134.478838 
z
" clip-path="url(#p6cc79d1641)" style="fill: #eeeeee; stroke: #000000; stroke-width: 0.3"/>
    <path d="M 107.303333 -132.176997 
L 110.502401 -133.981162 
L 109.472632 -132.50582 
z
" clip-path="url(#p6cc79d1641)" style="fill: #eeeeee; stroke: #000000; stroke-width: 0.3"/>
    <path d="M 101.752455 -134.138383 
L 101.901679 -135.925378 
L 103.828025 -135.348534 
z
" clip-path="url(#p6cc79d1641)" style="fill: #eeeeee; stroke: #000000; stroke-width: 0.3"/>
    <path d="M 87.469506 -117.144126 
L 88.866166 -118.81764 
L 89.96253 -117.616891 
z
" clip-path="url(#p6cc79d1641)" style="fill: #eeeeee; stroke: #000000; stroke-width: 0.3"/>
    <path d="M 75.104887 -106.684502 
L 75.449586 -107.635584 
L 75.876291 -106.823452 
z
" clip-path="url(#p6cc79d1641)" style="fill: #eeeeee; stroke: #000000; stroke-width: 0.3"/>
    <path d="M 72.492857 -119.267712 
L 72.944226 -119.80083 
L 73.388813 -119.045173 
z
" clip-path="url(#p6cc79d1641)" style="fill: #eeeeee; stroke: #000000; stroke-width: 0.3"/>
    <path d="M 72.155561 -110.485481 
L 73.25069 -111.247233 
L 73.349352 -110.910642 
z
" clip-path="url(#p6cc79d1641)" style="fill: #eeeeee; stroke: #000000; stroke-width: 0.3"/>
    <path d="M 70.705247 -114.737089 
L 73.704529 -114.683948 
L 72.885647 -113.869054 
z
" clip-path="url(#p6cc79d1641)" style="fill: #eeeeee; stroke: #000000; stroke-width: 0.3"/>
    <path d="M 67.845331 -98.665125 
L 68.944157 -99.532603 
L 68.904082 -98.850033 
z
" clip-path="url(#p6cc79d1641)" style="fill: #eeeeee; stroke: #000000; stroke-width: 0.3"/>
    <path d="M 66.433251 -111.388944 
L 67.015348 -111.725536 
L 68.159812 -110.981511 
z
" clip-path="url(#p6cc79d1641)" style="fill: #eeeeee; stroke: #000000; stroke-width: 0.3"/>
    <path d="M 53.767722 -78.451169 
L 54.695131 -79.798609 
L 57.821429 -80.131323 
z
" clip-path="url(#p6cc79d1641)" style="fill: #eeeeee; stroke: #000000; stroke-width: 0.3"/>
    <path d="M 44.668759 -61.691627 
L 45.699149 -62.13174 
L 45.762039 -60.87453 
z
" clip-path="url(#p6cc79d1641)" style="fill: #eeeeee; stroke: #000000; stroke-width: 0.3"/>
    <path d="M 43.331299 14.852822 
L 44.020066 14.386696 
L 43.747517 14.945269 
z
" clip-path="url(#p6cc79d1641)" style="fill: #eeeeee; stroke: #000000; stroke-width: 0.3"/>
    <path d="M 42.101123 13.9571 
L 42.300909 13.740097 
L 42.5155 14.328017 
z
" clip-path="url(#p6cc79d1641)" style="fill: #eeeeee; stroke: #000000; stroke-width: 0.3"/>
    <path d="M 41.20578 -64.466805 
L 44.267338 -65.953208 
L 42.630188 -65.072996 
z
" clip-path="url(#p6cc79d1641)" style="fill: #eeeeee; stroke: #000000; stroke-width: 0.3"/>
    <path d="M 34.634999 -53.167377 
L 34.974143 -53.383277 
L 35.002504 -52.675238 
z
" clip-path="url(#p6cc79d1641)" style="fill: #eeeeee; stroke: #000000; stroke-width: 0.3"/>
    <path d="M 22.723598 -48.430827 
L 26.767447 -50.203985 
L 26.919747 -49.097901 
z
" clip-path="url(#p6cc79d1641)" style="fill: #eeeeee; stroke: #000000; stroke-width: 0.3"/>
    <path d="M 22.666254 -42.275395 
L 23.913077 -43.026073 
L 24.951476 -41.531371 
z
" clip-path="url(#p6cc79d1641)" style="fill: #eeeeee; stroke: #000000; stroke-width: 0.3"/>
    <path d="M 20.122047 -41.531371 
L 21.254175 -42.391651 
L 22.092788 -41.252914 
z
" clip-path="url(#p6cc79d1641)" style="fill: #eeeeee; stroke: #000000; stroke-width: 0.3"/>
    <path d="M 18.249967 -39.86006 
L 19.806331 -40.467911 
L 20.018452 -40.222664 
z
" clip-path="url(#p6cc79d1641)" style="fill: #eeeeee; stroke: #000000; stroke-width: 0.3"/>
    <path d="M 11.347437 -36.62043 
L 12.514094 -37.159629 
L 12.649134 -36.742223 
z
" clip-path="url(#p6cc79d1641)" style="fill: #eeeeee; stroke: #000000; stroke-width: 0.3"/>
    <path d="M 10.410163 -34.733777 
L 10.698745 -35.439612 
L 12.436398 -35.004492 
z
" clip-path="url(#p6cc79d1641)" style="fill: #eeeeee; stroke: #000000; stroke-width: 0.3"/>
    <path d="M 5.688025 -31.457045 
L 7.038442 -31.558362 
L 8.029977 -31.094441 
z
" clip-path="url(#p6cc79d1641)" style="fill: #eeeeee; stroke: #000000; stroke-width: 0.3"/>
    <path d="M 4.978905 11.997373 
L 5.15033 11.4471 
L 6.267038 11.547301 
z
" clip-path="url(#p6cc79d1641)" style="fill: #eeeeee; stroke: #000000; stroke-width: 0.3"/>
    <path d="M 4.080478 -28.847959 
L 4.113158 -30.753428 
L 6.107335 -30.156651 
z
" clip-path="url(#p6cc79d1641)" style="fill: #eeeeee; stroke: #000000; stroke-width: 0.3"/>
    <path d="M 2.502528 -29.978397 
L 3.551413 -30.412415 
L 3.453365 -29.949608 
z
" clip-path="url(#p6cc79d1641)" style="fill: #eeeeee; stroke: #000000; stroke-width: 0.3"/>
    <path d="M 2.291641 13.622726 
L 2.539527 13.481015 
L 3.621706 14.325799 
z
" clip-path="url(#p6cc79d1641)" style="fill: #eeeeee; stroke: #000000; stroke-width: 0.3"/>
    <path d="M 1.797105 -30.457815 
L 2.340968 -30.387504 
L 1.883431 -30.061443 
z
" clip-path="url(#p6cc79d1641)" style="fill: #eeeeee; stroke: #000000; stroke-width: 0.3"/>
    <path d="M 0.777202 12.332863 
L 0.993021 12.016203 
L 1.291469 13.147743 
z
" clip-path="url(#p6cc79d1641)" style="fill: #eeeeee; stroke: #000000; stroke-width: 0.3"/>
    <path d="M -0.658306 9.667301 
L 0.18433 13.012208 
L -0.486548 13.365915 
z
" clip-path="url(#p6cc79d1641)" style="fill: #eeeeee; stroke: #000000; stroke-width: 0.3"/>
    <path d="M -3.737747 -6.438445 
L -3.648337 -7.357404 
L -3.249379 -6.318855 
z
" clip-path="url(#p6cc79d1641)" style="fill: #eeeeee; stroke: #000000; stroke-width: 0.3"/>
    <path d="M -3.757478 -10.94802 
L -2.954629 -10.94802 
L -2.98546 -10.06559 
z
" clip-path="url(#p6cc79d1641)" style="fill: #eeeeee; stroke: #000000; stroke-width: 0.3"/>
    <path d="M -4.765667 -12.684091 
L -4.339575 -13.019023 
L -4.287778 -11.744085 
z
" clip-path="url(#p6cc79d1641)" style="fill: #eeeeee; stroke: #000000; stroke-width: 0.3"/>
    <path d="M 44.215541 15.941737 
L 44.862998 14.219502 
L 45.828021 13.955998 
L 46.820767 16.724237 
L 48.430072 16.397305 
L 49.546015 11.913157 
L 48.50995 7.050052 
L 50.194435 5.596111 
L 49.833423 3.440511 
L 52.062173 3.086873 
L 54.634711 0.59943 
L 54.698927 -2.543985 
L 55.559575 -3.997926 
L 52.892277 -11.923577 
L 56.305883 -12.528911 
L 57.70296 -16.656971 
L 52.198432 -21.761922 
L 53.354314 -29.398273 
L 51.664351 -33.482375 
L 52.156925 -35.487515 
L 51.680013 -37.851219 
L 52.66047 -39.130811 
L 50.915686 -43.041256 
L 52.638542 -45.563147 
L 52.263429 -47.248403 
L 56.695878 -52.598723 
L 60.324053 -53.952122 
L 65.85639 -52.845506 
L 67.247201 -55.01516 
L 66.861912 -59.046542 
L 63.420504 -60.661487 
L 70.02414 -70.648522 
L 70.375756 -75.858939 
L 71.043755 -77.237658 
L 70.223047 -81.632869 
L 74.108875 -82.011473 
L 77.355679 -83.66579 
L 76.93436 -86.609169 
L 84.309763 -94.020532 
L 84.599512 -96.256633 
L 82.24468 -99.282976 
L 82.651116 -100.284845 
L 84.940953 -101.120786 
L 87.213558 -105.735013 
L 91.294384 -108.56906 
L 95.837247 -106.767113 
L 97.864733 -109.840202 
L 97.737869 -114.427708 
L 99.741085 -114.943765 
L 111.667959 -112.087201 
L 113.45347 -113.631141 
L 111.30381 -114.499421 
L 113.382987 -116.103114 
L 114.291401 -118.082949 
L 114.174721 -119.517897 
L 112.364933 -121.042857 
L 118.494392 -120.478992 
L 118.452884 -119.307684 
L 127.291149 -113.626216 
L 132.868509 -112.509043 
L 134.828649 -111.085332 
L 135.576526 -108.796865 
L 136.643915 -109.117456 
L 139.33862 -106.461976 
L 137.968169 -105.294886 
L 138.515563 -101.518016 
L 137.589138 -100.136848 
L 140.119389 -99.246419 
L 140.274447 -98.123273 
L 138.888327 -97.072194 
L 138.726222 -95.614729 
L 141.929169 -90.880995 
L 141.083403 -90.142425 
L 141.003525 -87.593107 
L 139.265008 -86.168702 
L 139.343318 -84.232458 
L 139.808492 -82.737389 
L 142.047425 -80.59198 
L 143.134341 -77.513924 
L 141.341185 -76.666378 
L 139.924172 -77.603609 
L 137.883138 -77.65841 
L 137.568036 -76.733356 
L 135.806333 -77.572059 
L 136.122049 -76.779314 
L 135.102145 -75.907945 
L 131.692191 -78.679803 
L 131.773592 -76.627072 
L 129.817028 -78.074714 
L 129.213965 -77.708246 
L 129.214586 -76.327569 
L 128.329722 -76.677452 
L 129.683837 -75.470608 
L 128.87729 -75.864762 
L 128.903189 -74.913137 
L 128.178036 -74.811833 
L 129.022195 -74.640775 
L 129.082623 -75.427983 
L 129.815179 -73.694129 
L 124.957388 -76.221843 
L 128.282244 -73.789896 
L 125.634442 -73.604444 
L 126.983624 -72.674954 
L 122.568572 -71.180252 
L 124.483818 -70.210354 
L 123.886301 -69.596966 
L 121.785454 -71.392832 
L 121.272422 -71.083369 
L 123.788261 -68.618212 
L 123.29249 -68.190833 
L 123.606971 -67.261901 
L 121.011587 -65.683051 
L 120.541101 -64.087589 
L 119.450283 -64.044964 
L 121.484536 -63.168629 
L 120.903674 -62.888499 
L 121.477754 -61.773013 
L 120.009566 -62.23084 
L 121.844032 -60.464307 
L 122.846667 -60.653636 
L 123.34922 -59.990984 
L 121.799017 -59.953339 
L 123.762362 -58.868301 
L 118.913816 -54.748445 
L 118.3866 -52.494208 
L 116.701978 -49.848578 
L 115.404593 -50.294228 
L 114.577695 -48.377127 
L 114.056025 -49.368616 
L 113.923448 -48.013407 
L 113.745242 -49.081302 
L 113.430147 -47.965803 
L 111.851583 -48.046631 
L 109.221049 -44.97916 
L 107.394599 -46.741244 
L 107.927362 -44.753287 
L 106.234724 -45.45802 
L 105.977586 -43.587421 
L 104.447735 -42.654612 
L 104.861492 -42.097699 
L 104.412585 -41.544105 
L 102.127363 -42.640775 
L 103.356304 -41.995837 
L 102.293855 -41.406816 
L 102.678629 -42.097699 
L 101.743203 -42.182391 
L 102.161278 -41.252914 
L 100.712821 -41.531371 
L 101.396042 -40.657798 
L 98.267275 -39.10828 
L 100.409441 -39.000337 
L 100.805315 -38.544728 
L 99.491897 -38.632195 
L 100.39834 -38.086901 
L 99.467233 -37.900892 
L 100.030827 -37.435881 
L 99.297043 -36.889471 
L 98.004591 -37.334564 
L 98.57805 -36.954803 
L 97.913946 -36.082332 
L 96.503715 -36.313185 
L 97.543349 -36.692401 
L 97.021687 -37.148554 
L 95.945668 -36.621532 
L 95.153919 -39.10828 
L 94.114285 -39.023588 
L 95.281563 -38.039841 
L 96.456237 -35.151183 
L 95.464702 -34.632473 
L 96.922412 -33.611093 
L 95.958617 -33.881237 
L 95.247034 -32.167859 
L 93.851601 -32.014516 
L 94.218493 -31.457045 
L 92.092361 -32.867055 
L 91.365359 -32.141289 
L 91.742737 -30.031538 
L 93.804123 -28.661949 
L 92.712692 -28.477055 
L 92.347649 -25.550751 
L 91.469567 -24.643955 
L 91.415307 -23.106627 
L 91.932044 -23.071744 
L 91.883331 -21.728167 
L 92.754624 -21.611925 
L 92.619584 -20.54071 
L 91.36351 -21.670046 
L 89.904565 -21.77135 
L 90.893637 -21.299143 
L 89.595025 -20.555104 
L 90.737018 -20.183643 
L 89.285477 -19.821039 
L 90.272079 -19.533167 
L 89.465532 -19.389783 
L 90.528594 -17.995282 
L 89.646822 -17.333732 
L 90.950367 -16.172846 
L 89.595025 -16.265851 
L 90.470629 -15.101644 
L 90.009395 -14.678143 
L 90.061192 -12.170361 
L 90.737018 -12.068499 
L 90.057494 -11.198804 
L 91.402358 -8.729211 
L 90.273314 -7.715029 
L 91.43134 -6.771145 
L 93.215244 -7.109954 
L 93.939784 -5.153547 
L 96.24535 -6.292842 
L 96.189242 -5.262606 
L 98.422666 -3.497746 
L 98.215478 -2.745409 
L 99.678733 -3.040477 
L 99.669482 -2.18904 
L 101.018664 -1.53802 
L 99.470931 -1.826994 
L 98.837036 -2.661819 
L 99.617684 -0.927952 
L 100.591958 -0.664447 
L 100.816415 0.699061 
L 101.371379 -0.31236 
L 102.472054 1.637408 
L 102.142161 0.586682 
L 102.625597 0.10506 
L 103.278608 2.422955 
L 104.555641 3.115498 
L 104.275697 3.949221 
L 103.149115 2.658787 
L 103.437698 3.714492 
L 101.996635 4.850467 
L 104.577228 5.110108 
L 103.356304 5.081877 
L 98.474464 8.814204 
L 98.764273 9.911432 
L 97.810352 9.076063 
L 96.503715 9.751993 
L 97.543349 10.680926 
L 97.156726 10.863616 
L 98.10695 10.959382 
L 98.846288 10.195426 
L 99.997533 10.723551 
L 99.669482 9.372233 
L 100.107909 9.402124 
L 101.33438 10.816555 
L 98.642797 10.919533 
L 99.649751 13.351466 
L 96.539479 14.69892 
L 95.623792 17.200621 
L 94.720432 15.844868 
L 94.94673 16.557887 
L 94.7266 16.857935 
L 94.684047 13.669786 
L 94.241929 14.591521 
L 93.851601 13.012113 
L 93.230043 15.899112 
L 93.607421 16.428352 
L 92.919881 16.642592 
L 93.334251 17.200621 
L 92.247752 16.735597 
L 92.558535 18.035991 
L 91.415307 17.942986 
L 91.569464 18.695323 
L 89.07212 18.695323 
L 89.96253 19.437688 
L 88.284069 20.405926 
L 83.052605 19.809707 
L 82.639463 20.282473 
L 87.262317 20.654492 
L 88.405546 22.233342 
L 86.951542 23.078126 
L 84.626237 22.303095 
L 84.407948 22.418807 
L 87.090279 23.900217 
L 86.067913 24.099519 
L 86.574163 24.810334 
L 87.336929 24.511946 
L 86.637061 25.129197 
L 87.504656 26.097435 
L 87.170445 27.139304 
L 85.96 26.151692 
L 86.99902 28.575327 
L 86.109845 28.718154 
L 87.106926 30.440946 
L 85.908202 30.347941 
L 86.166575 29.985337 
L 85.186133 28.930734 
L 85.61962 30.3579 
L 84.769293 30.247182 
L 86.637061 32.307668 
L 84.459745 30.347941 
L 86.698102 32.958143 
L 85.653535 32.865139 
L 86.059275 33.961251 
L 85.225595 33.987822 
L 86.502014 36.102007 
L 84.835888 38.77365 
L 85.701021 41.909215 
L 84.613901 41.81621 
L 84.372805 45.252924 
L 84.855619 45.548551 
L 83.148183 47.385382 
L 81.57146 52.65505 
L 80.158153 54.950252 
L 79.680885 54.677332 
L 79.966997 53.957103 
L 78.147942 53.283376 
L 76.474422 54.205669 
L 71.620328 53.844724 
L 71.29721 54.53173 
L 71.944667 55.707568 
L 69.89623 55.574701 
L 67.905758 57.993356 
L 67.611008 59.857873 
L 68.912099 62.310296 
L 67.500019 64.413393 
L 57.283112 64.525785 
L 58.44176 63.636703 
L 57.925023 62.285929 
L 58.965892 60.288013 
L 57.963871 59.534016 
L 57.98977 58.383089 
L 54.3936 51.98354 
L 57.144375 52.912473 
L 55.682968 50.420186 
L 57.717834 49.931354 
L 58.053281 48.682442 
L 57.578476 47.289043 
L 56.517876 47.322267 
L 55.506611 44.955652 
L 53.673993 43.556716 
L 52.422237 39.627849 
L 51.740865 39.29957 
L 52.064597 38.300885 
L 51.350537 37.742856 
L 51.796981 37.154937 
L 51.422065 36.278044 
L 50.814077 37.804868 
L 50.24061 37.154937 
L 50.342969 34.072527 
L 49.722646 33.514499 
L 50.394767 32.958143 
L 48.740969 33.017924 
L 49.536423 31.889146 
L 48.368531 31.099721 
L 49.149179 30.247182 
L 50.137016 25.965683 
L 49.525322 24.803694 
L 50.085218 24.386833 
L 48.902528 24.464885 
L 47.229 25.608058 
L 48.472118 23.171131 
L 47.587875 22.613116 
L 47.354795 24.34033 
L 46.397782 25.315207 
L 46.60929 23.634495 
L 46.016706 24.207462 
L 46.60929 22.89213 
L 45.069566 24.204143 
L 45.565337 21.025409 
L 44.740287 19.138756 
L 44.893216 16.364136 
z
" clip-path="url(#p6cc79d1641)" style="fill: #eeeeee; stroke: #000000; stroke-width: 0.3"/>
    <path d="M 97.188793 38.996747 
L 97.793705 37.356456 
L 97.407075 35.062356 
L 101.571165 30.086641 
L 102.523851 31.285731 
L 102.886432 30.070029 
L 104.658622 31.285731 
L 102.551606 32.528003 
L 102.229723 33.991141 
L 102.294469 36.095368 
L 103.454345 37.178188 
L 99.515325 40.574495 
L 99.880368 40.786531 
L 98.996126 42.095224 
L 99.467233 42.466128 
L 98.79634 43.226778 
L 97.486619 43.581069 
L 98.63478 41.258739 
L 97.957727 41.630758 
L 98.16368 40.701268 
z
" clip-path="url(#p6cc79d1641)" style="fill: #eeeeee; stroke: #000000; stroke-width: 0.3"/>
    <path d="M 84.459745 48.157637 
L 85.985898 44.258116 
L 86.822662 43.826316 
L 88.604718 38.376176 
L 89.802206 38.17633 
L 88.090451 42.002219 
L 85.382221 51.960289 
L 84.528189 53.159923 
z
" clip-path="url(#p6cc79d1641)" style="fill: #eeeeee; stroke: #000000; stroke-width: 0.3"/>
    <path d="M 46.476713 27.131549 
L 48.596678 24.95316 
L 49.510524 25.780231 
L 49.493256 27.204635 
L 48.761935 27.578859 
L 46.863957 27.933164 
z
" clip-path="url(#p6cc79d1641)" style="fill: #eeeeee; stroke: #000000; stroke-width: 0.3"/>
    <path d="M 104.291722 30.204557 
L 104.757897 29.234102 
L 106.578179 29.41071 
L 105.240098 29.922223 
L 104.995296 30.998417 
z
" clip-path="url(#p6cc79d1641)" style="fill: #eeeeee; stroke: #000000; stroke-width: 0.3"/>
    <path d="M 105.435572 23.54149 
L 105.698256 23.54149 
L 106.526382 23.91351 
L 105.909756 24.250645 
z
" clip-path="url(#p6cc79d1641)" style="fill: #eeeeee; stroke: #000000; stroke-width: 0.3"/>
    <path d="M 99.305674 -5.203927 
L 100.107909 -3.280173 
L 100.604294 -2.745409 
L 99.483266 -3.326675 
z
" clip-path="url(#p6cc79d1641)" style="fill: #eeeeee; stroke: #000000; stroke-width: 0.3"/>
    <path d="M 99.047923 11.238397 
L 101.075394 11.795868 
L 100.346543 11.618715 
L 100.615394 12.236525 
z
" clip-path="url(#p6cc79d1641)" style="fill: #eeeeee; stroke: #000000; stroke-width: 0.3"/>
    <path d="M 99.04546 14.960221 
L 99.275456 14.243869 
L 100.113455 13.982568 
L 99.569592 15.15121 
z
" clip-path="url(#p6cc79d1641)" style="fill: #eeeeee; stroke: #000000; stroke-width: 0.3"/>
    <path d="M 96.819431 15.841535 
L 97.220238 15.001744 
L 97.937996 15.178338 
L 97.532256 15.730816 
z
" clip-path="url(#p6cc79d1641)" style="fill: #eeeeee; stroke: #000000; stroke-width: 0.3"/>
    <path d="M 87.230872 23.744112 
L 87.795701 23.468975 
L 88.037419 24.374656 
L 87.550899 24.458804 
z
" clip-path="url(#p6cc79d1641)" style="fill: #eeeeee; stroke: #000000; stroke-width: 0.3"/>
    <path d="M 47.168572 28.53326 
L 47.372056 28.224899 
L 48.993787 28.118616 
L 47.902356 29.791028 
z
" clip-path="url(#p6cc79d1641)" style="fill: #eeeeee; stroke: #000000; stroke-width: 0.3"/>
    <path d="M 139.485131 -76.139355 
L 140.267022 -76.092295 
L 139.915542 -75.800002 
z
" clip-path="url(#p6cc79d1641)" style="fill: #eeeeee; stroke: #000000; stroke-width: 0.3"/>
    <path d="M 133.428617 -76.122743 
L 133.791197 -76.414492 
L 134.108754 -75.396432 
z
" clip-path="url(#p6cc79d1641)" style="fill: #eeeeee; stroke: #000000; stroke-width: 0.3"/>
    <path d="M 132.403167 -76.802565 
L 132.892149 -76.036378 
L 132.847141 -75.9157 
z
" clip-path="url(#p6cc79d1641)" style="fill: #eeeeee; stroke: #000000; stroke-width: 0.3"/>
    <path d="M 130.945458 -74.557172 
L 131.324685 -74.487976 
L 131.208142 -74.398848 
z
" clip-path="url(#p6cc79d1641)" style="fill: #eeeeee; stroke: #000000; stroke-width: 0.3"/>
    <path d="M 130.934357 -73.533031 
L 130.979373 -73.644293 
L 131.398676 -73.285567 
z
" clip-path="url(#p6cc79d1641)" style="fill: #eeeeee; stroke: #000000; stroke-width: 0.3"/>
    <path d="M 130.753689 -74.160799 
L 131.486237 -74.394427 
L 131.60463 -74.335734 
z
" clip-path="url(#p6cc79d1641)" style="fill: #eeeeee; stroke: #000000; stroke-width: 0.3"/>
    <path d="M 128.905038 -72.193332 
L 129.065976 -72.516631 
L 129.590729 -72.181155 
z
" clip-path="url(#p6cc79d1641)" style="fill: #eeeeee; stroke: #000000; stroke-width: 0.3"/>
    <path d="M 128.159532 -73.638212 
L 129.462471 -73.177623 
L 128.866804 -72.827195 
z
" clip-path="url(#p6cc79d1641)" style="fill: #eeeeee; stroke: #000000; stroke-width: 0.3"/>
    <path d="M 128.06272 -72.774054 
L 128.511012 -72.08815 
L 128.499912 -72.00954 
z
" clip-path="url(#p6cc79d1641)" style="fill: #eeeeee; stroke: #000000; stroke-width: 0.3"/>
    <path d="M 118.143647 -49.951542 
L 118.564192 -49.637658 
L 118.209015 -49.368616 
z
" clip-path="url(#p6cc79d1641)" style="fill: #eeeeee; stroke: #000000; stroke-width: 0.3"/>
    <path d="M 118.142419 -48.404256 
L 118.264509 -49.210837 
L 118.776927 -49.64929 
z
" clip-path="url(#p6cc79d1641)" style="fill: #eeeeee; stroke: #000000; stroke-width: 0.3"/>
    <path d="M 117.848283 -47.867261 
L 118.141184 -48.31789 
L 118.077051 -47.966905 
z
" clip-path="url(#p6cc79d1641)" style="fill: #eeeeee; stroke: #000000; stroke-width: 0.3"/>
    <path d="M 103.250861 9.85829 
L 103.41858 9.787421 
L 103.540671 10.231969 
z
" clip-path="url(#p6cc79d1641)" style="fill: #eeeeee; stroke: #000000; stroke-width: 0.3"/>
    <path d="M 103.147267 4.508352 
L 103.703465 3.55893 
L 103.800892 4.607996 
z
" clip-path="url(#p6cc79d1641)" style="fill: #eeeeee; stroke: #000000; stroke-width: 0.3"/>
    <path d="M 102.956725 9.534434 
L 103.244693 9.246018 
L 103.208929 9.770265 
z
" clip-path="url(#p6cc79d1641)" style="fill: #eeeeee; stroke: #000000; stroke-width: 0.3"/>
    <path d="M 102.941313 7.204348 
L 103.541292 6.479139 
L 103.295255 7.374861 
z
" clip-path="url(#p6cc79d1641)" style="fill: #eeeeee; stroke: #000000; stroke-width: 0.3"/>
    <path d="M 102.858684 10.012736 
L 102.99064 9.869909 
L 103.023941 9.956833 
z
" clip-path="url(#p6cc79d1641)" style="fill: #eeeeee; stroke: #000000; stroke-width: 0.3"/>
    <path d="M 102.17053 7.51879 
L 103.439546 6.372298 
L 102.678629 7.366004 
z
" clip-path="url(#p6cc79d1641)" style="fill: #eeeeee; stroke: #000000; stroke-width: 0.3"/>
    <path d="M 101.924493 -0.410344 
L 102.142161 -1.14109 
L 102.54975 -0.480098 
z
" clip-path="url(#p6cc79d1641)" style="fill: #eeeeee; stroke: #000000; stroke-width: 0.3"/>
    <path d="M 101.911544 11.73995 
L 102.17669 11.302069 
L 102.309267 11.878913 
z
" clip-path="url(#p6cc79d1641)" style="fill: #eeeeee; stroke: #000000; stroke-width: 0.3"/>
    <path d="M 101.434276 12.903054 
L 101.671062 12.469037 
L 102.118733 12.518859 
z
" clip-path="url(#p6cc79d1641)" style="fill: #eeeeee; stroke: #000000; stroke-width: 0.3"/>
    <path d="M 101.270247 10.303383 
L 102.096532 10.794964 
L 101.569316 11.234519 
z
" clip-path="url(#p6cc79d1641)" style="fill: #eeeeee; stroke: #000000; stroke-width: 0.3"/>
    <path d="M 100.303997 8.736709 
L 102.036104 7.957243 
L 100.651772 9.564324 
z
" clip-path="url(#p6cc79d1641)" style="fill: #eeeeee; stroke: #000000; stroke-width: 0.3"/>
    <path d="M 97.902846 16.516377 
L 98.151345 16.06187 
L 99.141652 15.622873 
z
" clip-path="url(#p6cc79d1641)" style="fill: #eeeeee; stroke: #000000; stroke-width: 0.3"/>
    <path d="M 97.365764 10.016056 
L 98.324618 10.321097 
L 97.69011 10.675388 
z
" clip-path="url(#p6cc79d1641)" style="fill: #eeeeee; stroke: #000000; stroke-width: 0.3"/>
    <path d="M 96.482135 -35.10468 
L 97.646943 -35.670464 
L 96.640611 -34.818482 
z
" clip-path="url(#p6cc79d1641)" style="fill: #eeeeee; stroke: #000000; stroke-width: 0.3"/>
    <path d="M 93.800426 14.336874 
L 94.061874 14.624745 
L 94.04769 16.659204 
z
" clip-path="url(#p6cc79d1641)" style="fill: #eeeeee; stroke: #000000; stroke-width: 0.3"/>
    <path d="M 87.589747 24.776566 
L 87.942462 25.097647 
L 87.702593 25.167401 
z
" clip-path="url(#p6cc79d1641)" style="fill: #eeeeee; stroke: #000000; stroke-width: 0.3"/>
    <path d="M 78.571572 54.701685 
L 78.774441 54.439283 
L 78.984093 55.11467 
z
" clip-path="url(#p6cc79d1641)" style="fill: #eeeeee; stroke: #000000; stroke-width: 0.3"/>
    <path d="M 21.38613 62.260474 
L 22.04099 59.811371 
L 21.632788 56.293828 
L 22.131635 58.685354 
L 23.64484 57.361152 
L 22.804378 55.093078 
L 21.798659 54.613116 
L 21.482329 55.794478 
L 22.018797 46.981798 
L 22.331421 46.476925 
L 22.993684 48.583356 
L 24.951476 48.250642 
L 26.16993 49.551035 
L 26.442479 48.46046 
L 25.8314 47.601282 
L 28.720306 45.070248 
L 29.575566 46.485224 
L 28.700567 48.428352 
L 29.41956 47.127959 
L 30.334634 47.513814 
L 30.138546 48.250642 
L 30.71324 48.909974 
L 31.065955 48.433332 
L 30.467211 48.492568 
L 30.557856 46.663492 
L 29.523155 46.755939 
L 30.079353 45.961535 
L 29.567549 45.158818 
L 29.758705 43.351333 
L 35.180711 41.723205 
L 34.27057 41.072729 
L 30.100933 42.488277 
L 29.109399 41.723205 
L 25.813518 43.165881 
L 24.387875 45.319358 
L 24.657961 46.665696 
L 23.757686 46.755939 
L 25.106868 46.755939 
L 24.904612 48.057435 
L 23.333443 46.697805 
L 22.952988 45.73456 
L 22.510863 45.548551 
L 22.52751 46.547236 
L 22.454133 45.633243 
L 22.542929 45.071908 
L 25.34735 40.84853 
L 31.364403 40.269468 
L 35.568568 34.474437 
L 37.316095 34.340467 
L 39.903462 32.400115 
L 40.735907 32.493119 
L 39.080269 34.757873 
L 39.960192 36.598024 
L 39.903462 39.29957 
L 38.449458 42.381436 
L 35.778227 41.258739 
L 35.265188 41.723205 
L 38.196018 42.753441 
L 37.833446 43.775936 
L 38.39951 46.365649 
L 36.928851 46.297568 
L 34.348266 47.415272 
L 38.35141 46.549454 
L 38.397661 47.685429 
L 37.443118 48.529656 
L 37.208182 49.737045 
L 38.321814 47.918486 
L 39.37933 49.038407 
L 42.049326 48.856833 
L 43.12411 50.024358 
L 42.726387 51.580515 
L 41.415431 54.022979 
L 40.581751 52.893643 
L 39.971292 54.74763 
L 38.506188 53.376381 
L 39.540889 53.182616 
L 39.643249 52.346145 
L 38.872458 52.067675 
L 37.487512 54.113208 
L 37.921621 55.883605 
L 37.198938 58.388068 
L 34.814433 58.138958 
L 36.165464 58.656566 
L 35.858386 60.191689 
L 32.457683 60.049406 
L 34.710838 61.204769 
L 32.015558 63.07149 
L 33.243885 63.227596 
L 32.687686 63.915159 
L 33.623726 66.347106 
L 31.926769 67.604875 
L 32.481733 68.568677 
L 31.532744 69.219711 
L 33.780353 69.792678 
L 33.893813 71.961665 
L 32.901657 70.646319 
L 30.643917 72.429519 
L 25.671378 71.141193 
L 25.8314 67.918215 
L 24.141224 68.322887 
L 24.369379 67.047962 
L 25.888751 67.804163 
L 25.34488 63.772332 
L 24.012966 63.418585 
L 23.037465 61.802647 
L 22.475712 62.139783 
L 23.038693 63.345512 
z
" clip-path="url(#p6cc79d1641)" style="fill: #eeeeee; stroke: #000000; stroke-width: 0.3"/>
    <path d="M 42.452603 59.625361 
L 44.855603 60.202206 
L 47.224067 57.911425 
L 47.013181 56.923256 
L 45.70346 56.56287 
L 45.461743 56.172035 
L 49.217623 56.52634 
L 48.420328 57.38828 
L 48.833463 58.696973 
L 48.001018 59.077305 
L 48.993787 58.882438 
L 49.175077 59.533458 
L 48.375926 59.787004 
L 49.30457 60.74916 
L 50.621686 58.118469 
L 50.47863 57.027894 
L 51.36657 59.708393 
L 50.292407 60.74916 
L 51.430082 60.83275 
L 51.693387 59.811371 
L 51.171103 56.923256 
L 49.954498 56.496436 
L 52.830447 54.373951 
L 55.685431 55.529858 
L 54.857918 57.100967 
L 55.536207 60.090371 
L 52.474035 63.098061 
L 54.496573 65.781336 
L 51.084156 67.452076 
L 52.314332 68.297976 
L 52.101589 69.810392 
L 50.193746 69.792678 
L 50.140713 70.687842 
L 52.262534 71.930115 
L 50.675332 73.892603 
L 50.587157 75.599885 
L 49.981624 74.361504 
L 50.292407 73.517264 
L 48.786598 70.535601 
L 50.085218 69.978688 
L 48.06268 68.475673 
L 49.665916 69.040898 
L 48.833463 68.020077 
L 49.510524 67.732206 
L 48.833463 66.896278 
L 45.373568 67.00146 
L 44.836486 65.030659 
L 44.060763 64.852404 
L 45.019004 64.236798 
L 44.008974 62.749851 
L 44.499804 61.892332 
L 42.865124 60.647298 
L 44.060763 60.74916 
z
" clip-path="url(#p6cc79d1641)" style="fill: #eeeeee; stroke: #000000; stroke-width: 0.3"/>
    <path d="M 33.365975 62.986785 
L 38.149775 61.319351 
L 39.749919 62.473054 
L 38.998254 63.488338 
L 39.391665 63.702579 
L 40.434376 63.028865 
L 40.574356 61.382466 
L 41.4438 63.098061 
L 40.14765 63.455128 
L 40.016922 63.709232 
L 41.107118 63.740782 
L 42.140592 65.781336 
L 41.675652 65.824519 
L 41.754575 68.040553 
L 40.867249 68.856004 
L 36.318393 68.475673 
L 37.000993 67.824653 
L 35.84605 67.045744 
L 36.013156 68.020077 
L 35.709162 67.99239 
L 34.945775 64.984156 
L 33.571929 63.357688 
L 34.395744 63.729707 
z
" clip-path="url(#p6cc79d1641)" style="fill: #eeeeee; stroke: #000000; stroke-width: 0.3"/>
    <path d="M 43.389877 72.631514 
L 44.215541 72.022562 
L 43.64146 70.829009 
L 45.151581 70.257702 
L 47.902356 72.30046 
L 48.316734 70.907062 
L 49.800334 73.377757 
L 49.538885 74.422945 
L 46.990366 74.817113 
z
" clip-path="url(#p6cc79d1641)" style="fill: #eeeeee; stroke: #000000; stroke-width: 0.3"/>
    <path d="M 33.003402 68.940696 
L 34.253923 68.631792 
L 36.307292 71.349393 
L 35.467444 71.599618 
L 34.158959 70.862233 
L 33.986306 69.978688 
L 34.66336 70.435399 
L 34.296468 69.505364 
z
" clip-path="url(#p6cc79d1641)" style="fill: #eeeeee; stroke: #000000; stroke-width: 0.3"/>
    <path d="M 24.564232 46.081655 
L 25.732124 44.889776 
L 25.602017 43.959728 
L 27.702865 42.838147 
L 26.922217 46.005262 
L 25.653193 46.899324 
z
" clip-path="url(#p6cc79d1641)" style="fill: #eeeeee; stroke: #000000; stroke-width: 0.3"/>
    <path d="M 42.297211 38.919796 
L 44.474527 37.998619 
L 44.884881 38.40027 
L 43.900446 38.556648 
L 43.614448 39.773125 
z
" clip-path="url(#p6cc79d1641)" style="fill: #eeeeee; stroke: #000000; stroke-width: 0.3"/>
    <path d="M 39.695046 58.502664 
L 39.724021 56.788742 
L 39.940461 56.152661 
L 40.890064 57.757524 
L 40.230278 59.393951 
z
" clip-path="url(#p6cc79d1641)" style="fill: #eeeeee; stroke: #000000; stroke-width: 0.3"/>
    <path d="M 71.311386 68.351648 
L 71.892877 65.522798 
L 74.851455 67.918215 
L 74.255045 69.844255 
z
" clip-path="url(#p6cc79d1641)" style="fill: #eeeeee; stroke: #000000; stroke-width: 0.3"/>
    <path d="M 54.914648 61.306073 
L 55.638566 60.368284 
L 56.084389 61.550204 
L 55.188432 62.2411 
z
" clip-path="url(#p6cc79d1641)" style="fill: #eeeeee; stroke: #000000; stroke-width: 0.3"/>
    <path d="M 51.844459 70.991768 
L 53.146777 69.877384 
L 52.874842 68.904167 
L 55.153896 70.313061 
z
" clip-path="url(#p6cc79d1641)" style="fill: #eeeeee; stroke: #000000; stroke-width: 0.3"/>
    <path d="M 23.50117 63.427442 
L 24.175761 63.915159 
L 24.274415 65.030659 
L 23.713284 64.560098 
z
" clip-path="url(#p6cc79d1641)" style="fill: #eeeeee; stroke: #000000; stroke-width: 0.3"/>
    <path d="M 47.34246 46.392233 
L 48.316734 46.198468 
L 47.798762 46.857243 
z
" clip-path="url(#p6cc79d1641)" style="fill: #eeeeee; stroke: #000000; stroke-width: 0.3"/>
    <path d="M 40.373335 71.930115 
L 43.067994 67.639201 
L 41.076287 73.331812 
z
" clip-path="url(#p6cc79d1641)" style="fill: #eeeeee; stroke: #000000; stroke-width: 0.3"/>
    <path d="M 37.252584 70.036822 
L 39.748071 71.744105 
L 38.72447 72.033078 
z
" clip-path="url(#p6cc79d1641)" style="fill: #eeeeee; stroke: #000000; stroke-width: 0.3"/>
    <path d="M 67.066304 98.972698 
L 67.222143 97.486064 
L 68.728861 96.279246 
L 69.473609 93.514449 
L 68.126935 87.417507 
L 68.356514 86.74929 
L 70.602274 88.799803 
L 70.853857 88.059098 
L 70.256341 87.36212 
L 70.905654 85.355892 
L 69.399845 84.612411 
L 68.54335 85.809283 
L 67.455511 84.608017 
L 82.639463 79.757387 
L 85.597427 75.754902 
L 91.415307 73.145245 
L 97.590214 71.930115 
L 99.008461 71.995991 
L 102.131682 73.94686 
L 102.764955 75.13044 
L 99.893317 72.619338 
L 99.565895 73.179026 
L 100.891641 77.435614 
L 103.148502 78.57159 
L 108.631549 77.12173 
L 132.036056 78.669928 
L 133.090912 77.881088 
L 137.723837 81.227682 
L 138.799053 88.624623 
L 141.092807 94.873467 
L 141.311293 100.442802 
L 137.293903 103.61223 
L 135.576526 106.608696 
L 139.151457 109.39669 
L 139.446692 110.626364 
L 138.438821 116.086722 
L 139.607229 118.64868 
L 139.134227 120.005603 
L 142.983245 126.104341 
L 141.577553 126.763116 
L 142.512592 128.056054 
L 142.714636 130.397962 
L 141.756888 132.249133 
L 139.490549 132.746197 
L 131.789375 143.642315 
L 132.33442 147.614637 
L 131.909972 149.167705 
L 133.210729 150.20824 
L 133.224823 151.442826 
L 127.053076 148.674859 
L 126.201832 146.860952 
L 123.722484 145.558872 
L 119.688645 145.657999 
L 118.553122 147.411444 
L 116.814605 145.91251 
L 113.996946 146.033433 
L 112.619448 147.159041 
L 111.972589 149.004593 
L 109.776732 148.719143 
L 109.841729 146.013052 
L 108.764118 145.893899 
L 107.478281 143.224691 
L 105.086646 145.998291 
L 103.727151 146.06648 
L 103.718536 144.656837 
L 102.749036 144.419196 
L 102.409944 142.265011 
L 101.116242 141.64912 
L 100.672996 139.018959 
L 98.651768 139.01051 
L 96.454342 137.11998 
L 96.681444 137.717586 
L 95.218582 138.114816 
L 93.653134 136.309344 
L 93.325007 135.535266 
L 94.523177 134.797051 
L 94.223244 133.524493 
L 92.072804 134.483479 
L 88.04758 131.865971 
L 88.970875 134.78369 
L 86.287134 136.490728 
L 83.886096 132.723 
L 82.79365 132.228753 
L 84.50867 130.034474 
L 83.794474 128.993938 
L 81.145186 129.543736 
L 81.065308 128.523595 
L 79.707382 127.651791 
L 76.402628 127.206045 
L 75.748723 124.79524 
L 74.798802 123.993748 
L 73.408771 124.251062 
L 73.568527 126.068492 
L 72.267771 126.076927 
L 73.852018 120.454858 
L 73.288166 118.039836 
L 71.507361 116.937071 
L 71.677301 115.19417 
L 70.566055 113.213995 
L 71.896567 109.502865 
L 71.328026 108.899272 
L 71.525372 107.336367 
L 70.259856 105.346683 
L 71.013212 102.696835 
z
" clip-path="url(#p6cc79d1641)" style="fill: #eeeeee; stroke: #000000; stroke-width: 0.3"/>
    <path d="M -13.803573 116.944009 
L -10.772232 115.841258 
L -8.849591 118.087195 
L -7.497939 118.060067 
L -9.733833 116.120272 
L -8.073254 116.120272 
L -8.787928 115.452082 
L -8.303258 114.819878 
L -10.687141 113.048366 
L -9.055545 112.674143 
L -9.525409 110.713301 
L -8.569025 110.469728 
L -5.793579 105.969553 
L -3.995498 97.381631 
L -3.023073 98.247462 
L -1.474718 97.566538 
L 0.806798 95.616227 
L 2.41558 92.821117 
L 5.364914 91.4161 
L 11.792639 90.810467 
L 12.334039 92.154588 
L 14.561917 93.607223 
L 14.548506 96.967912 
L 13.365217 101.738203 
L 11.09496 101.910811 
L 10.60003 103.176321 
L 10.926589 104.266434 
L 12.885169 104.404934 
L 13.45293 105.579045 
L 13.286908 107.40808 
L 10.609433 109.864938 
L 11.653326 111.0823 
L 8.124206 112.979864 
L 6.472613 111.950934 
L 6.693456 112.694782 
L 4.990953 113.054039 
L 7.06622 117.913988 
L 5.939313 121.270773 
L 6.626103 122.079639 
L 4.392656 123.569444 
L 4.560239 124.622278 
L 5.993345 125.409009 
L 5.471789 127.553357 
L 3.286896 127.495005 
L 2.665095 126.460089 
L 4.215669 122.022348 
L 1.670537 120.252727 
L -0.434478 120.630977 
L -1.858189 117.664048 
L -2.746243 118.81918 
L -3.869233 118.52705 
L -3.410324 118.522832 
L -3.74393 117.411645 
L -4.869269 118.461323 
L -5.983651 117.697789 
L -6.786341 118.125603 
L -6.67201 119.383739 
L -9.653054 117.986436 
L -10.953523 118.830662 
z
" clip-path="url(#p6cc79d1641)" style="fill: #eeeeee; stroke: #000000; stroke-width: 0.3"/>
    <path d="M -14.573447 119.046113 
L -13.119117 118.48135 
L -10.901725 119.481138 
L -9.764051 118.5666 
L -7.965621 119.14437 
L -8.742572 120.445022 
L -11.093487 121.357601 
L -12.602554 120.199653 
L -14.253366 120.793735 
z
" clip-path="url(#p6cc79d1641)" style="fill: #eeeeee; stroke: #000000; stroke-width: 0.3"/>
    <path d="M -4.28161 96.553458 
L -3.170448 94.386689 
L -2.88063 95.430217 
L -3.615035 96.936538 
z
" clip-path="url(#p6cc79d1641)" style="fill: #eeeeee; stroke: #000000; stroke-width: 0.3"/>
    <path d="M 8.958621 89.347859 
L 9.375461 89.544944 
L 9.271867 89.645703 
z
" clip-path="url(#p6cc79d1641)" style="fill: #eeeeee; stroke: #000000; stroke-width: 0.3"/>
    <path d="M 6.476076 90.683694 
L 7.865341 89.945751 
L 8.076841 90.110714 
z
" clip-path="url(#p6cc79d1641)" style="fill: #eeeeee; stroke: #000000; stroke-width: 0.3"/>
    <path d="M 2.752876 90.83648 
L 4.857429 90.493807 
L 5.166355 90.66764 
z
" clip-path="url(#p6cc79d1641)" style="fill: #eeeeee; stroke: #000000; stroke-width: 0.3"/>
    <path d="M -0.79643 91.930933 
L -0.171173 91.411107 
L 2.368102 90.769502 
z
" clip-path="url(#p6cc79d1641)" style="fill: #eeeeee; stroke: #000000; stroke-width: 0.3"/>
    <path d="M -2.74744 94.050098 
L -2.169048 92.995508 
L -1.27247 92.728113 
z
" clip-path="url(#p6cc79d1641)" style="fill: #eeeeee; stroke: #000000; stroke-width: 0.3"/>
    <path d="M -12.01782 114.726874 
L -11.051563 113.971217 
L -8.890901 115.251679 
z
" clip-path="url(#p6cc79d1641)" style="fill: #eeeeee; stroke: #000000; stroke-width: 0.3"/>
   </g>
   <g id="PatchCollection_2">
    <path d="M 21.38613 62.260474 
L 22.04099 59.811371 
L 21.632788 56.293828 
L 22.131635 58.685354 
L 23.64484 57.361152 
L 22.804378 55.093078 
L 21.798659 54.613116 
L 21.482329 55.794478 
L 22.018797 46.981798 
L 22.331421 46.476925 
L 22.993684 48.583356 
L 24.951476 48.250642 
L 26.16993 49.551035 
L 26.442479 48.46046 
L 25.8314 47.601282 
L 28.720306 45.070248 
L 29.575566 46.485224 
L 28.700567 48.428352 
L 29.41956 47.127959 
L 30.334634 47.513814 
L 30.138546 48.250642 
L 30.71324 48.909974 
L 31.065955 48.433332 
L 30.467211 48.492568 
L 30.557856 46.663492 
L 29.523155 46.755939 
L 30.079353 45.961535 
L 29.567549 45.158818 
L 29.758705 43.351333 
L 35.180711 41.723205 
L 34.27057 41.072729 
L 30.100933 42.488277 
L 29.109399 41.723205 
L 25.813518 43.165881 
L 24.387875 45.319358 
L 24.657961 46.665696 
L 23.757686 46.755939 
L 25.106868 46.755939 
L 24.904612 48.057435 
L 23.333443 46.697805 
L 22.952988 45.73456 
L 22.510863 45.548551 
L 22.52751 46.547236 
L 22.454133 45.633243 
L 22.542929 45.071908 
L 25.34735 40.84853 
L 31.364403 40.269468 
L 35.568568 34.474437 
L 37.316095 34.340467 
L 39.903462 32.400115 
L 40.735907 32.493119 
L 39.080269 34.757873 
L 39.960192 36.598024 
L 39.903462 39.29957 
L 38.449458 42.381436 
L 35.778227 41.258739 
L 35.265188 41.723205 
L 38.196018 42.753441 
L 37.833446 43.775936 
L 38.39951 46.365649 
L 36.928851 46.297568 
L 34.348266 47.415272 
L 38.35141 46.549454 
L 38.397661 47.685429 
L 37.443118 48.529656 
L 37.208182 49.737045 
L 38.321814 47.918486 
L 39.37933 49.038407 
L 42.049326 48.856833 
L 43.12411 50.024358 
L 42.726387 51.580515 
L 41.415431 54.022979 
L 40.581751 52.893643 
L 39.971292 54.74763 
L 38.506188 53.376381 
L 39.540889 53.182616 
L 39.643249 52.346145 
L 38.872458 52.067675 
L 37.487512 54.113208 
L 37.921621 55.883605 
L 37.198938 58.388068 
L 34.814433 58.138958 
L 36.165464 58.656566 
L 35.858386 60.191689 
L 32.457683 60.049406 
L 34.710838 61.204769 
L 32.015558 63.07149 
L 33.243885 63.227596 
L 32.687686 63.915159 
L 33.623726 66.347106 
L 31.926769 67.604875 
L 32.481733 68.568677 
L 31.532744 69.219711 
L 33.780353 69.792678 
L 33.893813 71.961665 
L 32.901657 70.646319 
L 30.643917 72.429519 
L 25.671378 71.141193 
L 25.8314 67.918215 
L 24.141224 68.322887 
L 24.369379 67.047962 
L 25.888751 67.804163 
L 25.34488 63.772332 
L 24.012966 63.418585 
L 23.037465 61.802647 
L 22.475712 62.139783 
L 23.038693 63.345512 
z
" clip-path="url(#p6cc79d1641)" style="fill: #ff6b6b; stroke: #dd0000; stroke-width: 0.5"/>
    <path d="M 42.452603 59.625361 
L 44.855603 60.202206 
L 47.224067 57.911425 
L 47.013181 56.923256 
L 45.70346 56.56287 
L 45.461743 56.172035 
L 49.217623 56.52634 
L 48.420328 57.38828 
L 48.833463 58.696973 
L 48.001018 59.077305 
L 48.993787 58.882438 
L 49.175077 59.533458 
L 48.375926 59.787004 
L 49.30457 60.74916 
L 50.621686 58.118469 
L 50.47863 57.027894 
L 51.36657 59.708393 
L 50.292407 60.74916 
L 51.430082 60.83275 
L 51.693387 59.811371 
L 51.171103 56.923256 
L 49.954498 56.496436 
L 52.830447 54.373951 
L 55.685431 55.529858 
L 54.857918 57.100967 
L 55.536207 60.090371 
L 52.474035 63.098061 
L 54.496573 65.781336 
L 51.084156 67.452076 
L 52.314332 68.297976 
L 52.101589 69.810392 
L 50.193746 69.792678 
L 50.140713 70.687842 
L 52.262534 71.930115 
L 50.675332 73.892603 
L 50.587157 75.599885 
L 49.981624 74.361504 
L 50.292407 73.517264 
L 48.786598 70.535601 
L 50.085218 69.978688 
L 48.06268 68.475673 
L 49.665916 69.040898 
L 48.833463 68.020077 
L 49.510524 67.732206 
L 48.833463 66.896278 
L 45.373568 67.00146 
L 44.836486 65.030659 
L 44.060763 64.852404 
L 45.019004 64.236798 
L 44.008974 62.749851 
L 44.499804 61.892332 
L 42.865124 60.647298 
L 44.060763 60.74916 
z
" clip-path="url(#p6cc79d1641)" style="fill: #ff6b6b; stroke: #dd0000; stroke-width: 0.5"/>
    <path d="M 33.365975 62.986785 
L 38.149775 61.319351 
L 39.749919 62.473054 
L 38.998254 63.488338 
L 39.391665 63.702579 
L 40.434376 63.028865 
L 40.574356 61.382466 
L 41.4438 63.098061 
L 40.14765 63.455128 
L 40.016922 63.709232 
L 41.107118 63.740782 
L 42.140592 65.781336 
L 41.675652 65.824519 
L 41.754575 68.040553 
L 40.867249 68.856004 
L 36.318393 68.475673 
L 37.000993 67.824653 
L 35.84605 67.045744 
L 36.013156 68.020077 
L 35.709162 67.99239 
L 34.945775 64.984156 
L 33.571929 63.357688 
L 34.395744 63.729707 
z
" clip-path="url(#p6cc79d1641)" style="fill: #ff6b6b; stroke: #dd0000; stroke-width: 0.5"/>
    <path d="M 43.389877 72.631514 
L 44.215541 72.022562 
L 43.64146 70.829009 
L 45.151581 70.257702 
L 47.902356 72.30046 
L 48.316734 70.907062 
L 49.800334 73.377757 
L 49.538885 74.422945 
L 46.990366 74.817113 
z
" clip-path="url(#p6cc79d1641)" style="fill: #ff6b6b; stroke: #dd0000; stroke-width: 0.5"/>
    <path d="M 33.003402 68.940696 
L 34.253923 68.631792 
L 36.307292 71.349393 
L 35.467444 71.599618 
L 34.158959 70.862233 
L 33.986306 69.978688 
L 34.66336 70.435399 
L 34.296468 69.505364 
z
" clip-path="url(#p6cc79d1641)" style="fill: #ff6b6b; stroke: #dd0000; stroke-width: 0.5"/>
    <path d="M 24.564232 46.081655 
L 25.732124 44.889776 
L 25.602017 43.959728 
L 27.702865 42.838147 
L 26.922217 46.005262 
L 25.653193 46.899324 
z
" clip-path="url(#p6cc79d1641)" style="fill: #ff6b6b; stroke: #dd0000; stroke-width: 0.5"/>
    <path d="M 42.297211 38.919796 
L 44.474527 37.998619 
L 44.884881 38.40027 
L 43.900446 38.556648 
L 43.614448 39.773125 
z
" clip-path="url(#p6cc79d1641)" style="fill: #ff6b6b; stroke: #dd0000; stroke-width: 0.5"/>
    <path d="M 39.695046 58.502664 
L 39.724021 56.788742 
L 39.940461 56.152661 
L 40.890064 57.757524 
L 40.230278 59.393951 
z
" clip-path="url(#p6cc79d1641)" style="fill: #ff6b6b; stroke: #dd0000; stroke-width: 0.5"/>
    <path d="M 71.311386 68.351648 
L 71.892877 65.522798 
L 74.851455 67.918215 
L 74.255045 69.844255 
z
" clip-path="url(#p6cc79d1641)" style="fill: #ff6b6b; stroke: #dd0000; stroke-width: 0.5"/>
    <path d="M 54.914648 61.306073 
L 55.638566 60.368284 
L 56.084389 61.550204 
L 55.188432 62.2411 
z
" clip-path="url(#p6cc79d1641)" style="fill: #ff6b6b; stroke: #dd0000; stroke-width: 0.5"/>
    <path d="M 51.844459 70.991768 
L 53.146777 69.877384 
L 52.874842 68.904167 
L 55.153896 70.313061 
z
" clip-path="url(#p6cc79d1641)" style="fill: #ff6b6b; stroke: #dd0000; stroke-width: 0.5"/>
    <path d="M 23.50117 63.427442 
L 24.175761 63.915159 
L 24.274415 65.030659 
L 23.713284 64.560098 
z
" clip-path="url(#p6cc79d1641)" style="fill: #ff6b6b; stroke: #dd0000; stroke-width: 0.5"/>
    <path d="M 47.34246 46.392233 
L 48.316734 46.198468 
L 47.798762 46.857243 
z
" clip-path="url(#p6cc79d1641)" style="fill: #ff6b6b; stroke: #dd0000; stroke-width: 0.5"/>
    <path d="M 40.373335 71.930115 
L 43.067994 67.639201 
L 41.076287 73.331812 
z
" clip-path="url(#p6cc79d1641)" style="fill: #ff6b6b; stroke: #dd0000; stroke-width: 0.5"/>
    <path d="M 37.252584 70.036822 
L 39.748071 71.744105 
L 38.72447 72.033078 
z
" clip-path="url(#p6cc79d1641)" style="fill: #ff6b6b; stroke: #dd0000; stroke-width: 0.5"/>
   </g>
  </g>
 </g>
 <defs>
  <clipPath id="p6cc79d1641">
   <rect x="0" y="0" width="96.237585" height="108"/>
  </clipPath>
 </defs>
</svg>
