<?xml version="1.0" encoding="utf-8" standalone="no"?>
<!DOCTYPE svg PUBLIC "-//W3C//DTD SVG 1.1//EN"
  "http://www.w3.org/Graphics/SVG/1.1/DTD/svg11.dtd">
<svg xmlns:xlink="http://www.w3.org/1999/xlink" width="163.622813pt" height="108pt" viewBox="0 0 163.622813 108" xmlns="http://www.w3.org/2000/svg" version="1.1">
 <metadata>
  <rdf:RDF xmlns:dc="http://purl.org/dc/elements/1.1/" xmlns:cc="http://creativecommons.org/ns#" xmlns:rdf="http://www.w3.org/1999/02/22-rdf-syntax-ns#">
   <cc:Work>
    <dc:type rdf:resource="http://purl.org/dc/dcmitype/StillImage"/>
    <dc:date>2025-09-05T15:49:27.839802</dc:date>
    <dc:format>image/svg+xml</dc:format>
    <dc:creator>
     <cc:Agent>
      <dc:title>Matplotlib v3.10.3, https://matplotlib.org/</dc:title>
     </cc:Agent>
    </dc:creator>
   </cc:Work>
  </rdf:RDF>
 </metadata>
 <defs>
  <style type="text/css">*{stroke-linejoin: round; stroke-linecap: butt}</style>
 </defs>
 <g id="figure_1">
  <g id="patch_1">
   <path d="M 0 108 
L 163.622813 108 
L 163.622813 0 
L 0 0 
z
" style="fill: #ffffff"/>
  </g>
  <g id="axes_1">
   <g id="PatchCollection_1">
    <path d="M 28.249745 58.291484 
L 29.126117 55.826798 
L 31.143392 55.134783 
L 36.758532 56.852019 
L 39.449741 56.329011 
L 37.859548 56.754458 
L 38.633442 57.348363 
L 47.914101 58.229117 
L 50.242841 58.182197 
L 51.730557 56.568929 
L 54.741817 56.971971 
L 55.032092 54.964714 
L 52.313626 53.62387 
L 49.038342 50.121699 
L 50.357949 49.26069 
L 49.164541 47.776428 
L 50.273634 46.970868 
L 49.542146 45.882729 
L 50.457896 44.973202 
L 46.697977 42.908361 
L 41.644703 42.48239 
L 40.917259 41.318546 
L 42.195465 40.058216 
L 41.510427 40.058216 
L 44.651931 38.529169 
L 49.503785 38.447607 
L 54.354113 40.196288 
L 54.989687 41.400121 
L 56.418843 40.504443 
L 61.346923 42.211013 
L 61.062206 41.497681 
L 62.141002 41.511006 
L 62.805682 45.382494 
L 61.904249 46.524051 
L 63.552591 48.817345 
L 60.80152 51.281246 
L 62.438312 52.353753 
L 62.60116 53.888355 
L 61.097081 55.820417 
L 59.009572 56.071615 
L 60.221305 58.273822 
L 62.737719 59.81318 
L 61.907772 63.403203 
L 58.241249 60.805226 
L 48.140768 62.064494 
L 42.044528 60.535461 
L 38.537019 61.161361 
L 38.706641 60.527469 
L 36.459175 62.056502 
L 36.876654 63.537554 
L 35.890746 63.574346 
L 33.015275 60.67301 
L 29.701109 60.006584 
z
" clip-path="url(#p8eb95ae466)" style="fill: #eeeeee; stroke: #000000; stroke-width: 0.3"/>
    <path d="M 43.050138 51.646998 
L 44.233943 51.225298 
L 48.634485 53.080607 
L 49.097906 54.478498 
z
" clip-path="url(#p8eb95ae466)" style="fill: #eeeeee; stroke: #000000; stroke-width: 0.3"/>
    <path d="M 47.216941 36.910568 
L 49.176663 36.569894 
L 51.34588 37.604719 
z
" clip-path="url(#p8eb95ae466)" style="fill: #eeeeee; stroke: #000000; stroke-width: 0.3"/>
    <path d="M 37.945364 62.682939 
L 38.041279 62.498471 
L 39.554242 63.040136 
z
" clip-path="url(#p8eb95ae466)" style="fill: #eeeeee; stroke: #000000; stroke-width: 0.3"/>
    <path d="M 37.178034 56.208522 
L 37.544535 55.573018 
L 37.859548 56.038991 
z
" clip-path="url(#p8eb95ae466)" style="fill: #eeeeee; stroke: #000000; stroke-width: 0.3"/>
    <path d="M 59.009572 56.071615 
L 61.097081 55.820417 
L 62.60116 53.888355 
L 62.438312 52.353753 
L 60.80152 51.281246 
L 63.552591 48.817345 
L 61.904249 46.524051 
L 62.805682 45.382494 
L 62.141002 41.511006 
L 63.331879 39.106564 
L 69.401359 39.887073 
L 71.527166 38.529169 
L 76.20688 40.771548 
L 78.563895 40.65799 
L 80.460516 42.274992 
L 84.599046 41.923128 
L 86.826822 46.887694 
L 92.187542 46.970868 
L 93.481902 46.054396 
L 93.289055 46.889292 
L 94.31284 46.792256 
L 93.204256 48.410333 
L 88.692651 47.863873 
L 88.8022 49.590699 
L 99.580164 51.281272 
L 104.61324 56.353539 
L 103.104322 59.228736 
L 101.45103 58.908855 
L 100.72964 61.102715 
L 99.539769 61.237604 
L 97.312501 58.515404 
L 85.787391 57.72689 
L 83.738827 58.527667 
L 81.813435 60.885203 
L 77.08577 61.241338 
L 76.75562 58.864608 
L 75.212373 58.281893 
L 72.375772 60.490677 
L 70.496321 59.92928 
L 70.780033 62.055965 
L 66.361824 69.0955 
L 64.942766 67.126634 
L 63.110262 66.992806 
L 63.364694 64.529181 
L 61.907772 63.403203 
L 62.737719 59.81318 
L 60.221305 58.273822 
z
" clip-path="url(#p8eb95ae466)" style="fill: #eeeeee; stroke: #000000; stroke-width: 0.3"/>
    <path d="M 98.994564 61.340497 
L 99.396399 61.327696 
L 101.663057 62.504328 
z
" clip-path="url(#p8eb95ae466)" style="fill: #eeeeee; stroke: #000000; stroke-width: 0.3"/>
    <path d="M 64.821617 69.470831 
L 65.073519 68.879586 
L 65.742912 69.41698 
z
" clip-path="url(#p8eb95ae466)" style="fill: #eeeeee; stroke: #000000; stroke-width: 0.3"/>
    <path d="M 19.861326 39.062147 
L 20.211934 38.08551 
L 20.734075 38.085078 
L 20.73338 39.059344 
z
" clip-path="url(#p8eb95ae466)" style="fill: #eeeeee; stroke: #000000; stroke-width: 0.3"/>
    <path d="M 19.023104 39.022329 
L 19.071366 38.532445 
L 19.967563 38.513315 
z
" clip-path="url(#p8eb95ae466)" style="fill: #eeeeee; stroke: #000000; stroke-width: 0.3"/>
    <path d="M -101.528004 13.122551 
L -96.214751 10.878574 
L -93.326663 11.236845 
L -95.275776 8.821725 
L -92.387688 3.868361 
L -91.540596 4.047497 
L -90.342151 2.097275 
L -82.221576 0.018571 
L -80.146251 -1.618688 
L -79.44202 -0.678763 
L -78.098692 -1.851137 
L -76.896202 -1.239086 
L -67.654922 -4.13936 
L -59.737281 -3.661661 
L -59.087576 -2.212605 
L -54.377578 -4.377129 
L -56.078834 -3.304464 
L -54.377578 -2.05159 
L -53.496157 -2.954723 
L -48.347986 -2.767595 
L -47.530669 -3.639269 
L -47.028379 -1.691196 
L -45.474028 -0.938399 
L -40.693859 -1.059426 
L -39.084485 0.380039 
L -38.422672 -0.070459 
L -37.551846 -0.254928 
L -38.348456 0.754846 
L -35.799611 1.566275 
L -31.954372 6.094742 
L -25.007516 6.390096 
L -24.42142 7.364663 
L -24.092275 6.438614 
L -16.114561 10.368355 
L -13.918583 13.21318 
L -13.571771 11.951776 
L -12.902377 11.951776 
L -13.428401 12.679507 
L -12.225403 14.067795 
L -8.553831 14.431923 
L -8.239326 15.994013 
L -7.207972 16.242998 
L -8.46902 14.103512 
L -10.522646 13.025515 
L -9.799234 12.444399 
L -4.562704 15.904459 
L -4.816628 17.343924 
L -7.419999 16.594862 
L -6.066064 17.175454 
L -6.102415 18.368608 
L -4.909019 18.319566 
L -3.996297 16.667908 
L -0.565522 19.401835 
L -1.502475 20.583262 
L -0.488788 19.499395 
L 1.174604 19.946697 
L 0.390611 20.869025 
L 2.745108 20.8413 
L 1.898512 21.654865 
L 2.837487 22.191198 
L 3.846633 21.654865 
L 2.985397 20.91487 
L 4.697248 20.88501 
L 9.044281 23.630676 
L 13.177761 23.051683 
L 14.735139 24.435175 
L 12.689093 26.06017 
L 15.074383 26.948916 
L 12.355916 26.761251 
L 12.923341 28.600038 
L 14.057172 27.485249 
L 15.074383 28.745579 
L 16.457089 28.008793 
L 18.031129 29.003093 
L 18.731824 28.924714 
L 18.260823 28.238032 
L 21.932396 28.531263 
L 25.192543 29.72975 
L 29.443153 33.958592 
L 31.391261 33.503835 
L 32.58617 34.537585 
L 31.001027 36.817804 
L 24.232366 37.224593 
L 20.73338 39.059344 
L 20.765252 36.910568 
L 18.380472 39.176937 
L 6.996213 37.813177 
L -11.66051 39.939849 
L -10.176331 36.552834 
L -4.308271 32.884853 
L -3.923607 31.61653 
L -5.877261 30.335394 
L -5.325494 29.372553 
L -7.157998 28.298814 
L -16.120616 28.388382 
L -21.36067 24.105165 
L -21.488395 21.073212 
L -24.545597 16.270185 
L -30.305621 17.423888 
L -35.804152 15.547249 
L -38.269699 15.699734 
L -38.822484 14.652645 
L -40.160775 15.164987 
L -45.680001 10.849251 
L -44.94396 10.431272 
L -46.130804 8.991807 
L -46.798176 9.353275 
L -45.961182 10.968142 
L -53.624391 10.383291 
L -54.93339 7.818896 
L -55.066661 10.718096 
L -55.493743 9.528676 
L -56.718949 10.341704 
L -59.021946 8.821725 
L -62.755613 9.032856 
L -66.967861 6.307996 
L -60.610662 5.116336 
L -60.507589 4.003814 
L -63.413766 2.601952 
L -74.36098 2.25829 
L -82.494631 9.069766 
L -84.479141 8.276339 
L -85.664968 9.260497 
L -88.82162 9.260497 
L -90.111439 12.557957 
L -92.725914 12.67631 
L -96.053715 14.563078 
L -95.902268 12.375624 
L -100.167009 13.828415 
z
" clip-path="url(#p8eb95ae466)" style="fill: #eeeeee; stroke: #000000; stroke-width: 0.3"/>
    <path d="M -79.719678 16.351761 
L -76.832594 17.246888 
L -78.402081 14.124843 
L -77.20969 12.183688 
L -73.664329 12.912494 
L -71.98074 16.270185 
L -72.310902 17.511333 
L -76.176823 18.87829 
L -78.314242 18.462447 
z
" clip-path="url(#p8eb95ae466)" style="fill: #eeeeee; stroke: #000000; stroke-width: 0.3"/>
    <path d="M -15.874768 8.902239 
L -15.40579 8.444272 
L -15.348744 7.755991 
L -15.528465 7.382259 
L -13.148734 9.439108 
L -13.613159 10.208414 
z
" clip-path="url(#p8eb95ae466)" style="fill: #eeeeee; stroke: #000000; stroke-width: 0.3"/>
    <path d="M -35.596169 0.997947 
L -34.785416 0.972358 
L -32.32895 2.642137 
L -31.768597 3.430113 
L -34.166504 2.065292 
L -34.807636 1.179756 
z
" clip-path="url(#p8eb95ae466)" style="fill: #eeeeee; stroke: #000000; stroke-width: 0.3"/>
    <path d="M -14.680356 10.16363 
L -13.715637 10.517106 
L -12.931657 10.203618 
L -10.76899 10.796999 
L -11.624159 12.67631 
z
" clip-path="url(#p8eb95ae466)" style="fill: #eeeeee; stroke: #000000; stroke-width: 0.3"/>
    <path d="M -23.944861 4.413761 
L -20.224828 4.173306 
L -18.762348 5.629307 
L -22.017446 5.500825 
L -23.912554 4.85839 
z
" clip-path="url(#p8eb95ae466)" style="fill: #eeeeee; stroke: #000000; stroke-width: 0.3"/>
    <path d="M -59.482848 16.710019 
L -59.367753 16.387478 
L -57.146031 15.368113 
L -58.689265 16.506893 
z
" clip-path="url(#p8eb95ae466)" style="fill: #eeeeee; stroke: #000000; stroke-width: 0.3"/>
    <path d="M -64.135801 16.199812 
L -63.103938 15.916185 
L -63.709736 16.544221 
L -64.0944 16.375751 
z
" clip-path="url(#p8eb95ae466)" style="fill: #eeeeee; stroke: #000000; stroke-width: 0.3"/>
    <path d="M 14.744233 27.630266 
L 15.607478 27.406884 
L 15.93006 28.046109 
z
" clip-path="url(#p8eb95ae466)" style="fill: #eeeeee; stroke: #000000; stroke-width: 0.3"/>
    <path d="M -13.827209 7.46276 
L -12.301641 9.170942 
L -12.599485 9.178397 
z
" clip-path="url(#p8eb95ae466)" style="fill: #eeeeee; stroke: #000000; stroke-width: 0.3"/>
    <path d="M -19.185894 6.21096 
L -17.096438 5.887882 
L -15.443654 7.821031 
z
" clip-path="url(#p8eb95ae466)" style="fill: #eeeeee; stroke: #000000; stroke-width: 0.3"/>
    <path d="M -21.057281 29.819318 
L -20.685731 29.726553 
L -19.513029 30.925577 
z
" clip-path="url(#p8eb95ae466)" style="fill: #eeeeee; stroke: #000000; stroke-width: 0.3"/>
    <path d="M -22.073995 28.485418 
L -21.311701 28.119679 
L -21.657508 28.657085 
z
" clip-path="url(#p8eb95ae466)" style="fill: #eeeeee; stroke: #000000; stroke-width: 0.3"/>
    <path d="M -22.917552 29.092123 
L -22.481884 29.216871 
L -22.573767 29.279788 
z
" clip-path="url(#p8eb95ae466)" style="fill: #eeeeee; stroke: #000000; stroke-width: 0.3"/>
    <path d="M -23.327972 29.16623 
L -23.120485 29.080397 
L -23.138152 29.155028 
z
" clip-path="url(#p8eb95ae466)" style="fill: #eeeeee; stroke: #000000; stroke-width: 0.3"/>
    <path d="M -24.837386 4.411088 
L -24.472907 4.638204 
L -24.810637 4.710713 
z
" clip-path="url(#p8eb95ae466)" style="fill: #eeeeee; stroke: #000000; stroke-width: 0.3"/>
    <path d="M -25.319999 27.791268 
L -24.62284 28.200717 
L -25.13776 28.280156 
z
" clip-path="url(#p8eb95ae466)" style="fill: #eeeeee; stroke: #000000; stroke-width: 0.3"/>
    <path d="M -27.271644 27.04594 
L -26.183245 27.109918 
L -25.816235 27.582809 
z
" clip-path="url(#p8eb95ae466)" style="fill: #eeeeee; stroke: #000000; stroke-width: 0.3"/>
    <path d="M -28.704324 25.956216 
L -27.356455 26.267567 
L -27.57605 26.719127 
z
" clip-path="url(#p8eb95ae466)" style="fill: #eeeeee; stroke: #000000; stroke-width: 0.3"/>
    <path d="M -28.796206 2.705592 
L -27.228233 2.858601 
L -27.769902 2.903385 
z
" clip-path="url(#p8eb95ae466)" style="fill: #eeeeee; stroke: #000000; stroke-width: 0.3"/>
    <path d="M -30.390432 3.083045 
L -29.908327 3.06119 
L -30.274828 3.326696 
z
" clip-path="url(#p8eb95ae466)" style="fill: #eeeeee; stroke: #000000; stroke-width: 0.3"/>
    <path d="M -30.498468 24.533809 
L -29.42219 24.837693 
L -29.148068 25.778678 
z
" clip-path="url(#p8eb95ae466)" style="fill: #eeeeee; stroke: #000000; stroke-width: 0.3"/>
    <path d="M -32.147219 22.938662 
L -31.344555 23.630676 
L -31.941246 23.655191 
z
" clip-path="url(#p8eb95ae466)" style="fill: #eeeeee; stroke: #000000; stroke-width: 0.3"/>
    <path d="M -36.781488 0.159854 
L -36.740087 -0.335953 
L -36.625997 -0.022478 
z
" clip-path="url(#p8eb95ae466)" style="fill: #eeeeee; stroke: #000000; stroke-width: 0.3"/>
    <path d="M -38.522123 -0.909076 
L -37.978928 -0.53482 
L -38.21619 -0.419664 
z
" clip-path="url(#p8eb95ae466)" style="fill: #eeeeee; stroke: #000000; stroke-width: 0.3"/>
    <path d="M -39.592346 -0.978925 
L -38.861863 -0.765134 
L -39.496419 -0.656371 
z
" clip-path="url(#p8eb95ae466)" style="fill: #eeeeee; stroke: #000000; stroke-width: 0.3"/>
    <path d="M -41.296617 -2.227528 
L -41.072989 -2.510094 
L -40.819053 -1.943901 
z
" clip-path="url(#p8eb95ae466)" style="fill: #eeeeee; stroke: #000000; stroke-width: 0.3"/>
    <path d="M -42.911549 -2.767595 
L -42.186115 -2.805985 
L -41.748946 -2.734013 
z
" clip-path="url(#p8eb95ae466)" style="fill: #eeeeee; stroke: #000000; stroke-width: 0.3"/>
    <path d="M -43.913623 -3.356717 
L -43.500672 -3.429212 
L -43.226054 -2.706289 
z
" clip-path="url(#p8eb95ae466)" style="fill: #eeeeee; stroke: #000000; stroke-width: 0.3"/>
    <path d="M -44.435602 -1.417697 
L -43.218982 -1.737578 
L -42.99636 -1.059426 
z
" clip-path="url(#p8eb95ae466)" style="fill: #eeeeee; stroke: #000000; stroke-width: 0.3"/>
    <path d="M -45.824884 -3.2794 
L -45.655262 -3.567835 
L -44.788977 -3.588091 
z
" clip-path="url(#p8eb95ae466)" style="fill: #eeeeee; stroke: #000000; stroke-width: 0.3"/>
    <path d="M -47.3242 -3.938357 
L -47.064221 -4.281167 
L -46.264584 -3.800284 
z
" clip-path="url(#p8eb95ae466)" style="fill: #eeeeee; stroke: #000000; stroke-width: 0.3"/>
    <path d="M -48.857856 -3.957028 
L -48.741744 -4.266244 
L -48.490847 -4.042324 
z
" clip-path="url(#p8eb95ae466)" style="fill: #eeeeee; stroke: #000000; stroke-width: 0.3"/>
    <path d="M -50.807987 -4.481634 
L -50.51569 -4.52322 
L -48.952754 -4.094576 
z
" clip-path="url(#p8eb95ae466)" style="fill: #eeeeee; stroke: #000000; stroke-width: 0.3"/>
    <path d="M -51.816116 -4.96519 
L -51.447593 -5.073939 
L -51.020511 -4.635704 
z
" clip-path="url(#p8eb95ae466)" style="fill: #eeeeee; stroke: #000000; stroke-width: 0.3"/>
    <path d="M -52.175545 -3.044291 
L -50.105778 -3.597682 
L -50.425829 -3.37164 
z
" clip-path="url(#p8eb95ae466)" style="fill: #eeeeee; stroke: #000000; stroke-width: 0.3"/>
    <path d="M -59.832699 10.555496 
L -59.753943 10.504305 
L -59.313735 10.923895 
z
" clip-path="url(#p8eb95ae466)" style="fill: #eeeeee; stroke: #000000; stroke-width: 0.3"/>
    <path d="M -66.35096 17.138125 
L -64.892028 16.400266 
L -64.807217 16.633252 
z
" clip-path="url(#p8eb95ae466)" style="fill: #eeeeee; stroke: #000000; stroke-width: 0.3"/>
    <path d="M -71.48804 3.121972 
L -71.232602 3.776658 
L -71.420387 4.179713 
z
" clip-path="url(#p8eb95ae466)" style="fill: #eeeeee; stroke: #000000; stroke-width: 0.3"/>
    <path d="M -73.095391 12.398016 
L -72.473452 12.311108 
L -72.267988 12.468913 
z
" clip-path="url(#p8eb95ae466)" style="fill: #eeeeee; stroke: #000000; stroke-width: 0.3"/>
    <path d="M -84.880975 11.94698 
L -84.105568 12.015755 
L -84.692173 12.030678 
z
" clip-path="url(#p8eb95ae466)" style="fill: #eeeeee; stroke: #000000; stroke-width: 0.3"/>
    <path d="M 41.876159 179.290346 
L 46.904508 171.197498 
L 47.780917 163.064373 
L 52.936842 154.051372 
L 55.818058 153.60449 
L 59.490424 146.961288 
L 67.101215 144.486552 
L 66.84646 145.696582 
L 59.621437 147.887245 
L 60.906715 152.791043 
L 63.766033 155.438062 
L 62.001677 155.43379 
L 64.38848 159.288376 
L 63.72766 162.787887 
L 59.515423 167.351534 
L 57.588517 171.015244 
L 59.14489 173.260283 
L 59.791059 174.748279 
L 59.282193 173.84567 
L 59.190819 175.822005 
L 60.137362 175.285136 
L 61.062206 176.082179 
L 60.363024 176.145096 
L 60.306984 176.798184 
L 62.425223 176.798184 
L 61.408 178.781987 
L 62.299012 178.725477 
L 62.747297 180.833491 
L 64.61918 181.29413 
L 68.547703 179.798141 
L 70.76388 177.558973 
L 71.096052 172.08952 
L 65.715147 163.471896 
L 64.303669 158.133599 
L 66.00593 158.304205 
L 66.420891 156.694133 
L 65.32088 156.157801 
L 81.077927 151.027451 
L 82.028279 149.476301 
L 83.491466 149.857187 
L 81.939795 148.184787 
L 86.489104 149.912099 
L 87.125174 149.038826 
L 86.227103 146.54534 
L 81.317199 147.653735 
L 81.364145 145.48866 
L 80.198007 144.390407 
L 81.391402 141.064161 
L 83.724696 139.925382 
L 85.987806 142.332497 
L 87.081763 147.349839 
L 88.614403 149.505309 
L 92.996261 148.610706 
L 98.04853 149.700443 
L 103.754027 153.010153 
L 105.303328 156.610435 
L 104.085194 156.694133 
L 105.794527 157.141435 
L 104.639493 157.867031 
L 105.195801 160.116341 
L 107.150473 162.345918 
L 110.427778 162.811341 
L 121.010886 160.727841 
L 130.148174 160.191509 
L 132.993349 161.183149 
L 132.054386 162.093213 
L 134.525988 165.038782 
L 144.935429 168.113921 
L 148.748857 167.552 
L 149.487926 165.75425 
L 152.572894 165.479153 
L 153.710261 164.795681 
L 152.634988 164.375567 
L 156.04456 162.478658 
L 162.663785 162.256875 
L 157.988624 161.005074 
L 155.482185 161.988184 
L 155.024819 159.922806 
L 159.436961 160.468205 
L 160.714671 159.386473 
L 163.925342 160.49327 
L 168.785272 159.110302 
L 181.283661 159.74367 
L 185.110215 159.028202 
L 183.662387 160.191509 
L 180.061991 160.450608 
L 179.041245 161.789317 
L 174.979437 161.306835 
L 171.74151 161.781324 
L 170.656138 162.793744 
L 172.564372 161.77172 
L 172.88544 163.406319 
L 170.84999 163.392457 
L 170.740949 165.12835 
L 171.638523 164.993999 
L 171.503739 163.42765 
L 173.712335 163.556669 
L 175.423181 167.022586 
L 175.050614 167.659688 
L 173.551298 167.603178 
L 172.989432 168.185355 
L 172.012096 167.380857 
L 170.571327 167.380857 
L 173.257996 168.788877 
L 173.457902 167.822289 
L 174.304994 168.102195 
L 175.523128 167.536002 
L 176.00171 165.795837 
L 179.242664 172.58534 
L 180.005454 169.072504 
L 180.442623 169.543796 
L 180.520871 173.480468 
L 181.282656 172.324629 
L 180.775304 169.616828 
L 182.8577 170.381889 
L 180.449694 169.367857 
L 180.759225 168.478613 
L 185.287914 171.462546 
L 185.110215 173.308801 
L 185.925001 171.89119 
L 186.381362 174.024806 
L 186.533814 172.745281 
L 185.328595 171.001081 
L 188.252228 171.593177 
L 187.703662 170.062781 
L 190.364487 172.192046 
L 189.361631 170.838493 
L 190.15478 171.115687 
L 193.047037 174.273777 
L 194.94315 174.222599 
L 197.311778 175.862531 
L 198.265889 177.73064 
L 194.543325 180.49655 
L 194.213175 181.295192 
L 196.110293 179.447339 
L 194.366644 182.358266 
L 193.004632 186.961363 
L 187.426847 186.863266 
L 188.174998 187.662982 
L 192.079292 189.736877 
L 193.357498 188.476547 
L 195.2733 188.377913 
L 194.635717 188.829486 
L 194.711434 189.656913 
L 195.906355 187.394279 
L 199.418901 187.018411 
L 202.068213 187.965804 
L 203.395897 186.615893 
L 207.749493 187.629925 
L 210.127773 191.729721 
L 203.360377 197.252356 
L 201.487018 197.38642 
L 198.945915 201.159129 
L 200.543924 203.717824 
L 200.213427 205.539185 
L 201.21101 206.39908 
L 203.394359 205.786308 
L 204.243535 207.33413 
L 203.328319 208.848764 
L 199.320976 211.095322 
L 196.75006 210.464286 
L 196.424377 211.558452 
L 193.992588 211.766662 
L 192.973516 213.789785 
L 194.095165 218.70033 
L 190.681499 221.858931 
L 199.768157 232.017551 
L 200.409288 235.550905 
L 196.895924 238.067294 
L 195.885189 240.341275 
L 191.688064 240.527132 
L 191.967596 241.480133 
L 189.376817 242.085449 
L 188.565468 244.094357 
L 181.291266 246.167584 
L 177.885615 244.950531 
L 176.237285 246.855498 
L 173.961929 246.904933 
L 173.89718 251.80058 
L 172.162302 253.104986 
L 166.426793 247.891436 
L 164.454703 249.256441 
L 162.458234 248.054954 
L 157.916505 248.890138 
L 156.563736 245.902169 
L 151.06802 245.793158 
L 148.562499 243.624113 
L 148.296752 244.59167 
L 150.407659 247.704898 
L 155.865546 252.660816 
L 155.618074 258.828376 
L 158.414019 264.188162 
L 157.788606 267.379938 
L 166.01584 268.044831 
L 166.167137 270.059162 
L 165.681807 271.598167 
L 157.929333 274.508268 
L 157.230499 278.500022 
L 154.005003 281.864448 
L 153.309382 280.008223 
L 149.316145 283.413948 
L 147.971068 283.109265 
L 144.280427 284.994945 
L 143.458185 287.655879 
L 141.917891 287.833285 
L 139.24472 291.252557 
L 138.690459 290.075781 
L 139.544437 288.144741 
L 138.582436 286.872501 
L 136.728939 286.996397 
L 131.903523 290.180731 
L 130.033997 289.987759 
L 122.714276 283.742345 
L 118.468753 270.069317 
L 118.810478 268.388113 
L 114.0232 264.500299 
L 113.390405 262.897644 
L 110.545094 263.207751 
L 110.759876 261.944984 
L 117.324984 255.422638 
L 114.96308 251.046644 
L 113.326288 250.470782 
L 110.307882 240.371751 
L 111.324708 233.418443 
L 110.809874 229.802477 
L 113.509012 227.152026 
L 113.408357 223.969395 
L 115.922848 221.431008 
L 115.070149 219.645875 
L 115.581768 218.552391 
L 110.901558 217.039448 
L 109.030755 218.291706 
L 100.875653 219.365563 
L 95.592784 218.291706 
L 93.297888 220.089024 
L 92.239711 219.097096 
L 90.847179 219.544319 
L 82.341704 208.403244 
L 79.986215 208.852145 
L 75.219135 206.734225 
L 69.254751 208.533914 
L 63.841092 207.360532 
L 59.208325 207.875114 
L 57.912613 206.906888 
L 56.573304 203.040065 
L 53.192652 201.69605 
L 53.037496 195.760062 
L 54.966003 193.579854 
L 54.249229 190.284818 
L 50.751893 186.404801 
L 49.3177 180.345912 
L 47.279557 180.476254 
L 46.604456 177.968671 
L 44.091888 179.566256 
z
" clip-path="url(#p8eb95ae466)" style="fill: #eeeeee; stroke: #000000; stroke-width: 0.3"/>
    <path d="M 153.314977 156.060228 
L 153.785978 154.815358 
L 155.65332 154.434695 
L 157.775083 155.755807 
L 158.67468 154.083893 
L 160.284053 153.859973 
L 161.018073 155.977591 
L 159.64848 157.141435 
L 157.64283 157.499706 
L 156.202061 156.060228 
z
" clip-path="url(#p8eb95ae466)" style="fill: #eeeeee; stroke: #000000; stroke-width: 0.3"/>
    <path d="M 194.543325 183.271003 
L 194.743244 182.116225 
L 197.438994 180.579187 
L 197.1462 181.26693 
L 196.310708 181.500453 
z
" clip-path="url(#p8eb95ae466)" style="fill: #eeeeee; stroke: #000000; stroke-width: 0.3"/>
    <path d="M 193.495272 187.141154 
L 194.034646 185.029524 
L 198.923744 183.251899 
L 199.498439 184.603212 
L 197.506783 186.5856 
z
" clip-path="url(#p8eb95ae466)" style="fill: #eeeeee; stroke: #000000; stroke-width: 0.3"/>
    <path d="M 192.248913 188.199314 
L 192.779478 187.45185 
L 194.035477 187.939678 
L 195.399003 186.947514 
L 195.087525 188.147062 
z
" clip-path="url(#p8eb95ae466)" style="fill: #eeeeee; stroke: #000000; stroke-width: 0.3"/>
    <path d="M 194.466591 184.165606 
L 196.592411 181.465798 
L 197.608616 181.831524 
L 197.278454 182.608835 
z
" clip-path="url(#p8eb95ae466)" style="fill: #eeeeee; stroke: #000000; stroke-width: 0.3"/>
    <path d="M 150.33451 144.755596 
L 150.850943 143.853537 
L 151.475909 144.401059 
L 151.400689 144.934732 
z
" clip-path="url(#p8eb95ae466)" style="fill: #eeeeee; stroke: #000000; stroke-width: 0.3"/>
    <path d="M 112.791369 142.667301 
L 113.112425 142.741946 
L 113.253785 142.793123 
L 112.902928 142.767534 
z
" clip-path="url(#p8eb95ae466)" style="fill: #eeeeee; stroke: #000000; stroke-width: 0.3"/>
    <path d="M 197.983715 186.648846 
L 199.622343 184.945158 
L 200.346623 186.598598 
z
" clip-path="url(#p8eb95ae466)" style="fill: #eeeeee; stroke: #000000; stroke-width: 0.3"/>
    <path d="M 197.523805 180.311021 
L 197.725225 179.379626 
L 198.971633 179.310851 
z
" clip-path="url(#p8eb95ae466)" style="fill: #eeeeee; stroke: #000000; stroke-width: 0.3"/>
    <path d="M 196.083545 180.929465 
L 197.422841 179.296465 
L 196.971529 180.547204 
z
" clip-path="url(#p8eb95ae466)" style="fill: #eeeeee; stroke: #000000; stroke-width: 0.3"/>
    <path d="M 188.902367 187.532954 
L 191.700198 187.455611 
L 192.331876 188.965344 
z
" clip-path="url(#p8eb95ae466)" style="fill: #eeeeee; stroke: #000000; stroke-width: 0.3"/>
    <path d="M 179.499616 168.949879 
L 179.644003 168.416743 
L 180.277045 168.554829 
z
" clip-path="url(#p8eb95ae466)" style="fill: #eeeeee; stroke: #000000; stroke-width: 0.3"/>
    <path d="M 178.862529 170.4096 
L 179.271435 170.234736 
L 179.155335 170.778 
z
" clip-path="url(#p8eb95ae466)" style="fill: #eeeeee; stroke: #000000; stroke-width: 0.3"/>
    <path d="M 177.785246 168.126185 
L 177.90085 168.091529 
L 178.123472 169.095957 
z
" clip-path="url(#p8eb95ae466)" style="fill: #eeeeee; stroke: #000000; stroke-width: 0.3"/>
    <path d="M 173.505866 162.278205 
L 173.926881 162.705775 
L 175.010739 164.674655 
z
" clip-path="url(#p8eb95ae466)" style="fill: #eeeeee; stroke: #000000; stroke-width: 0.3"/>
    <path d="M 162.805145 94.045239 
L 162.917213 94.045239 
L 162.906109 94.131073 
z
" clip-path="url(#p8eb95ae466)" style="fill: #eeeeee; stroke: #000000; stroke-width: 0.3"/>
    <path d="M 158.327868 158.572908 
L 159.579326 158.552114 
L 159.510668 159.099112 
z
" clip-path="url(#p8eb95ae466)" style="fill: #eeeeee; stroke: #000000; stroke-width: 0.3"/>
    <path d="M 155.642713 158.169853 
L 155.85979 157.896891 
L 156.215187 158.264753 
z
" clip-path="url(#p8eb95ae466)" style="fill: #eeeeee; stroke: #000000; stroke-width: 0.3"/>
    <path d="M 140.868585 156.620026 
L 143.4346 156.887131 
L 142.942396 157.141435 
z
" clip-path="url(#p8eb95ae466)" style="fill: #eeeeee; stroke: #000000; stroke-width: 0.3"/>
    <path d="M 131.159839 144.920345 
L 131.343083 144.848361 
L 132.156355 145.415091 
z
" clip-path="url(#p8eb95ae466)" style="fill: #eeeeee; stroke: #000000; stroke-width: 0.3"/>
    <path d="M 124.830369 145.373504 
L 125.939462 144.837171 
L 125.607798 145.657131 
z
" clip-path="url(#p8eb95ae466)" style="fill: #eeeeee; stroke: #000000; stroke-width: 0.3"/>
    <path d="M 123.423941 144.220862 
L 123.461793 144.192614 
L 124.740012 144.262449 
z
" clip-path="url(#p8eb95ae466)" style="fill: #eeeeee; stroke: #000000; stroke-width: 0.3"/>
    <path d="M 122.968076 145.789347 
L 124.53858 145.387366 
L 123.300757 145.856523 
z
" clip-path="url(#p8eb95ae466)" style="fill: #eeeeee; stroke: #000000; stroke-width: 0.3"/>
    <path d="M 112.765117 141.924646 
L 112.793887 141.897459 
L 112.776221 141.949698 
z
" clip-path="url(#p8eb95ae466)" style="fill: #eeeeee; stroke: #000000; stroke-width: 0.3"/>
    <path d="M 112.757536 142.167223 
L 112.76209 142.138437 
L 112.769149 142.17895 
z
" clip-path="url(#p8eb95ae466)" style="fill: #eeeeee; stroke: #000000; stroke-width: 0.3"/>
    <path d="M 112.708568 142.193874 
L 112.739361 142.162952 
L 112.722711 142.203478 
z
" clip-path="url(#p8eb95ae466)" style="fill: #eeeeee; stroke: #000000; stroke-width: 0.3"/>
    <path d="M 112.672725 141.700189 
L 112.71059 141.696992 
L 112.715131 141.72152 
z
" clip-path="url(#p8eb95ae466)" style="fill: #eeeeee; stroke: #000000; stroke-width: 0.3"/>
    <path d="M 112.618211 141.627694 
L 112.639923 141.646876 
L 112.636883 141.672465 
z
" clip-path="url(#p8eb95ae466)" style="fill: #eeeeee; stroke: #000000; stroke-width: 0.3"/>
    <path d="M -14.588485 -15.965925 
L -11.277347 -18.66627 
L -10.732143 -17.960393 
L -12.301641 -16.958088 
L -12.13202 -15.161426 
L -10.438331 -17.556277 
L -9.414049 -14.30841 
L -10.35352 -13.453257 
L -9.414049 -13.819521 
L -9.921898 -11.298848 
L -12.555566 -11.379349 
L -11.277347 -11.567014 
L -10.049114 -12.69353 
L -11.836186 -11.877304 
L -12.38644 -12.380055 
L -11.158716 -12.907858 
L -11.100157 -13.185615 
L -12.809986 -12.818828 
L -13.241609 -14.982291 
z
" clip-path="url(#p8eb95ae466)" style="fill: #eeeeee; stroke: #000000; stroke-width: 0.3"/>
    <path d="M -14.842906 -52.602543 
L -13.671718 -53.065843 
L -10.429758 -52.960815 
L -3.518732 -47.666763 
L -3.084082 -45.037341 
L -4.94738 -44.117148 
L -5.713197 -39.395684 
L -7.966221 -41.290994 
L -5.671301 -42.812022 
L -6.007008 -45.003222 
L -4.894876 -48.293738 
L -6.991912 -48.822615 
L -9.531167 -52.211228 
z
" clip-path="url(#p8eb95ae466)" style="fill: #eeeeee; stroke: #000000; stroke-width: 0.3"/>
    <path d="M -20.648871 -22.581625 
L -19.171255 -24.000834 
L -19.356025 -22.366772 
L -17.745646 -22.610411 
L -19.079893 -24.238078 
L -17.264038 -27.801569 
L -17.966755 -30.218274 
L -15.867697 -30.198018 
L -12.047209 -23.87074 
L -11.818011 -21.245576 
L -15.648101 -18.271745 
L -16.975276 -21.269043 
L -18.116688 -20.795615 
z
" clip-path="url(#p8eb95ae466)" style="fill: #eeeeee; stroke: #000000; stroke-width: 0.3"/>
    <path d="M -0.227296 -33.386165 
L 0.365872 -35.183902 
L 0.95904 -34.191201 
L 5.143015 -32.235659 
L 8.10481 -29.304476 
L 7.50457 -23.147817 
L 5.332822 -25.374185 
L 7.242061 -25.817765 
L 7.459138 -29.500134 
L 4.895653 -32.024541 
z
" clip-path="url(#p8eb95ae466)" style="fill: #eeeeee; stroke: #000000; stroke-width: 0.3"/>
    <path d="M 38.000735 24.351411 
L 38.439628 23.100699 
L 41.888032 21.553571 
L 43.559562 22.840787 
L 44.728144 22.384785 
L 46.667692 20.490497 
L 45.114483 24.693422 
L 43.926646 25.23324 
L 38.640874 25.740066 
z
" clip-path="url(#p8eb95ae466)" style="fill: #eeeeee; stroke: #000000; stroke-width: 0.3"/>
    <path d="M -27.687622 -50.090413 
L -24.16932 -48.37661 
L -22.424268 -49.86555 
L -23.267391 -50.269549 
L -22.674731 -51.521349 
L -19.277368 -49.896577 
L -14.257827 -51.074585 
L -14.427449 -49.276848 
L -24.821282 -47.558813 
z
" clip-path="url(#p8eb95ae466)" style="fill: #eeeeee; stroke: #000000; stroke-width: 0.3"/>
    <path d="M 17.80043 -10.582319 
L 21.168092 -3.450543 
L 23.659904 -1.336122 
L 23.897675 0.240892 
L 22.184806 -2.550069 
L 20.610779 -2.89875 
L 19.062991 -3.840797 
L 21.062587 -3.122669 
z
" clip-path="url(#p8eb95ae466)" style="fill: #eeeeee; stroke: #000000; stroke-width: 0.3"/>
    <path d="M 30.882396 9.260497 
L 35.804917 4.918634 
L 34.371729 2.89272 
L 36.158292 1.900019 
L 35.98867 5.218259 
z
" clip-path="url(#p8eb95ae466)" style="fill: #eeeeee; stroke: #000000; stroke-width: 0.3"/>
    <path d="M 45.779311 17.970165 
L 46.830243 17.246888 
L 47.836262 17.995662 
L 46.066994 19.043144 
z
" clip-path="url(#p8eb95ae466)" style="fill: #eeeeee; stroke: #000000; stroke-width: 0.3"/>
    <path d="M 44.998743 6.747292 
L 45.091134 5.486963 
L 49.874318 7.167407 
L 49.46138 7.731464 
z
" clip-path="url(#p8eb95ae466)" style="fill: #eeeeee; stroke: #000000; stroke-width: 0.3"/>
    <path d="M 30.043889 0.551183 
L 34.117296 2.071686 
L 33.193469 2.89272 
L 30.75972 1.900019 
z
" clip-path="url(#p8eb95ae466)" style="fill: #eeeeee; stroke: #000000; stroke-width: 0.3"/>
    <path d="M 29.535023 4.413761 
L 29.645081 3.851302 
L 30.798093 2.705592 
L 30.379088 3.614058 
z
" clip-path="url(#p8eb95ae466)" style="fill: #eeeeee; stroke: #000000; stroke-width: 0.3"/>
    <path d="M 27.394576 -14.088224 
L 28.551633 -16.582771 
L 29.019607 -15.787326 
L 28.419367 -14.437429 
z
" clip-path="url(#p8eb95ae466)" style="fill: #eeeeee; stroke: #000000; stroke-width: 0.3"/>
    <path d="M 12.828431 -23.850484 
L 18.308787 -16.592899 
L 15.585767 -16.558243 
L 16.824607 -18.272282 
z
" clip-path="url(#p8eb95ae466)" style="fill: #eeeeee; stroke: #000000; stroke-width: 0.3"/>
    <path d="M 4.524599 -16.234628 
L 4.831028 -16.025108 
L 5.471142 -14.35639 
L 4.853248 -15.306967 
z
" clip-path="url(#p8eb95ae466)" style="fill: #eeeeee; stroke: #000000; stroke-width: 0.3"/>
    <path d="M -13.827209 -38.143884 
L -13.549055 -37.983406 
L -13.064419 -37.070145 
L -13.82469 -37.874643 
z
" clip-path="url(#p8eb95ae466)" style="fill: #eeeeee; stroke: #000000; stroke-width: 0.3"/>
    <path d="M 39.79169 3.493005 
L 40.507137 3.503395 
L 39.821887 3.561779 
z
" clip-path="url(#p8eb95ae466)" style="fill: #eeeeee; stroke: #000000; stroke-width: 0.3"/>
    <path d="M 38.964858 3.983885 
L 39.055686 3.630226 
L 39.358194 3.620491 
z
" clip-path="url(#p8eb95ae466)" style="fill: #eeeeee; stroke: #000000; stroke-width: 0.3"/>
    <path d="M 36.589419 -2.954723 
L 38.217973 -2.937126 
L 36.832735 -2.561272 
z
" clip-path="url(#p8eb95ae466)" style="fill: #eeeeee; stroke: #000000; stroke-width: 0.3"/>
    <path d="M 22.636118 -10.224572 
L 24.239946 -11.023751 
L 24.676109 -10.761441 
z
" clip-path="url(#p8eb95ae466)" style="fill: #eeeeee; stroke: #000000; stroke-width: 0.3"/>
    <path d="M 20.378045 -12.482411 
L 20.599663 -12.488281 
L 20.455288 -12.27449 
z
" clip-path="url(#p8eb95ae466)" style="fill: #eeeeee; stroke: #000000; stroke-width: 0.3"/>
    <path d="M 14.005177 -7.30032 
L 14.753823 -7.43627 
L 15.413118 -6.898876 
z
" clip-path="url(#p8eb95ae466)" style="fill: #eeeeee; stroke: #000000; stroke-width: 0.3"/>
    <path d="M 12.737565 8.588214 
L 13.044999 9.111222 
L 12.801174 9.214652 
z
" clip-path="url(#p8eb95ae466)" style="fill: #eeeeee; stroke: #000000; stroke-width: 0.3"/>
    <path d="M 12.564916 8.397889 
L 12.584097 8.058813 
L 12.637606 8.082266 
z
" clip-path="url(#p8eb95ae466)" style="fill: #eeeeee; stroke: #000000; stroke-width: 0.3"/>
    <path d="M 11.744076 6.418882 
L 11.954081 6.880583 
L 11.918735 6.953615 
z
" clip-path="url(#p8eb95ae466)" style="fill: #eeeeee; stroke: #000000; stroke-width: 0.3"/>
    <path d="M 9.044281 -9.411544 
L 9.114949 -10.353591 
L 13.710857 -7.524776 
z
" clip-path="url(#p8eb95ae466)" style="fill: #eeeeee; stroke: #000000; stroke-width: 0.3"/>
    <path d="M 2.745108 -18.569234 
L 2.935932 -18.462607 
L 3.387244 -17.563732 
z
" clip-path="url(#p8eb95ae466)" style="fill: #eeeeee; stroke: #000000; stroke-width: 0.3"/>
    <path d="M -0.263634 -34.899266 
L 0.096055 -34.991677 
L 0.251596 -34.940342 
z
" clip-path="url(#p8eb95ae466)" style="fill: #eeeeee; stroke: #000000; stroke-width: 0.3"/>
    <path d="M -0.32522 -21.891746 
L -0.079373 -21.498282 
L -0.286859 -21.490289 
z
" clip-path="url(#p8eb95ae466)" style="fill: #eeeeee; stroke: #000000; stroke-width: 0.3"/>
    <path d="M -1.313548 -34.437276 
L -1.12884 -34.663135 
L -0.535833 -34.735001 
z
" clip-path="url(#p8eb95ae466)" style="fill: #eeeeee; stroke: #000000; stroke-width: 0.3"/>
    <path d="M -6.352803 -47.004609 
L -5.891405 -46.703386 
L -6.059004 -46.64208 
z
" clip-path="url(#p8eb95ae466)" style="fill: #eeeeee; stroke: #000000; stroke-width: 0.3"/>
    <path d="M -9.871924 -28.046269 
L -6.174099 -28.560222 
L -7.60931 -27.819152 
z
" clip-path="url(#p8eb95ae466)" style="fill: #eeeeee; stroke: #000000; stroke-width: 0.3"/>
    <path d="M -10.09152 -45.324702 
L -9.977429 -45.260723 
L -10.006709 -44.422106 
z
" clip-path="url(#p8eb95ae466)" style="fill: #eeeeee; stroke: #000000; stroke-width: 0.3"/>
    <path d="M -12.881175 -18.984016 
L -11.824077 -19.567268 
L -11.367716 -19.318821 
z
" clip-path="url(#p8eb95ae466)" style="fill: #eeeeee; stroke: #000000; stroke-width: 0.3"/>
    <path d="M -13.661123 -18.882721 
L -13.319361 -19.283641 
L -13.233532 -19.27671 
z
" clip-path="url(#p8eb95ae466)" style="fill: #eeeeee; stroke: #000000; stroke-width: 0.3"/>
    <path d="M -13.981683 -48.797026 
L -13.255752 -48.90098 
L -13.674758 -48.28948 
z
" clip-path="url(#p8eb95ae466)" style="fill: #eeeeee; stroke: #000000; stroke-width: 0.3"/>
    <path d="M -14.1503 -33.159048 
L -13.283009 -33.492268 
L -13.812569 -33.143064 
z
" clip-path="url(#p8eb95ae466)" style="fill: #eeeeee; stroke: #000000; stroke-width: 0.3"/>
    <path d="M -15.012528 -17.144692 
L -13.446577 -17.991315 
L -12.809986 -18.032365 
z
" clip-path="url(#p8eb95ae466)" style="fill: #eeeeee; stroke: #000000; stroke-width: 0.3"/>
    <path d="M -15.517349 -17.951864 
L -14.466318 -18.30906 
L -14.511751 -17.674093 
z
" clip-path="url(#p8eb95ae466)" style="fill: #eeeeee; stroke: #000000; stroke-width: 0.3"/>
    <path d="M -31.020459 -34.8459 
L -30.965933 -34.717942 
L -30.99319 -34.727546 
z
" clip-path="url(#p8eb95ae466)" style="fill: #eeeeee; stroke: #000000; stroke-width: 0.3"/>
    <path d="M -31.298614 -35.125255 
L -31.292559 -35.175372 
L -31.186545 -34.976517 
z
" clip-path="url(#p8eb95ae466)" style="fill: #eeeeee; stroke: #000000; stroke-width: 0.3"/>
    <path d="M -31.444005 -36.943785 
L -31.192091 -37.720572 
L -30.915451 -36.958185 
z
" clip-path="url(#p8eb95ae466)" style="fill: #eeeeee; stroke: #000000; stroke-width: 0.3"/>
    <path d="M -34.39368 -8.279696 
L -34.091283 -8.088833 
L -34.135215 -8.067503 
z
" clip-path="url(#p8eb95ae466)" style="fill: #eeeeee; stroke: #000000; stroke-width: 0.3"/>
    <path d="M -35.087812 -9.123645 
L -35.017641 -9.080473 
L -34.573401 -8.58785 
z
" clip-path="url(#p8eb95ae466)" style="fill: #eeeeee; stroke: #000000; stroke-width: 0.3"/>
    <path d="M 58.859156 12.757886 
L 58.915196 12.072265 
L 60.235299 12.183688 
L 60.900661 13.562922 
L 59.699176 13.25157 
L 59.781965 12.262066 
z
" clip-path="url(#p8eb95ae466)" style="fill: #eeeeee; stroke: #000000; stroke-width: 0.3"/>
    <path d="M 64.842311 17.842404 
L 65.356226 17.149865 
L 65.380456 17.962356 
L 65.074536 18.199077 
z
" clip-path="url(#p8eb95ae466)" style="fill: #eeeeee; stroke: #000000; stroke-width: 0.3"/>
    <path d="M 64.211278 14.733684 
L 65.571281 15.104743 
L 65.836309 15.904459 
L 64.426333 14.976261 
z
" clip-path="url(#p8eb95ae466)" style="fill: #eeeeee; stroke: #000000; stroke-width: 0.3"/>
    <path d="M 69.664886 18.41499 
L 69.938995 18.422996 
L 69.740603 18.955057 
z
" clip-path="url(#p8eb95ae466)" style="fill: #eeeeee; stroke: #000000; stroke-width: 0.3"/>
    <path d="M 68.81829 20.491559 
L 69.149965 20.220733 
L 68.886947 20.540614 
z
" clip-path="url(#p8eb95ae466)" style="fill: #eeeeee; stroke: #000000; stroke-width: 0.3"/>
    <path d="M 63.587317 20.640834 
L 63.736754 20.360404 
L 63.664051 20.751732 
z
" clip-path="url(#p8eb95ae466)" style="fill: #eeeeee; stroke: #000000; stroke-width: 0.3"/>
    <path d="M 62.864923 20.785314 
L 63.097644 20.621652 
L 63.175383 20.593927 
z
" clip-path="url(#p8eb95ae466)" style="fill: #eeeeee; stroke: #000000; stroke-width: 0.3"/>
    <path d="M 60.984454 13.391241 
L 63.116825 13.579981 
L 63.710501 14.46498 
z
" clip-path="url(#p8eb95ae466)" style="fill: #eeeeee; stroke: #000000; stroke-width: 0.3"/>
    <path d="M 57.871721 13.189727 
L 58.051442 13.175327 
L 57.894946 13.282492 
z
" clip-path="url(#p8eb95ae466)" style="fill: #eeeeee; stroke: #000000; stroke-width: 0.3"/>
    <path d="M 57.48099 13.504275 
L 57.581954 13.412572 
L 57.688973 13.424298 
z
" clip-path="url(#p8eb95ae466)" style="fill: #eeeeee; stroke: #000000; stroke-width: 0.3"/>
    <path d="M 55.032092 13.310203 
L 57.588517 13.928648 
L 55.510661 14.797662 
z
" clip-path="url(#p8eb95ae466)" style="fill: #eeeeee; stroke: #000000; stroke-width: 0.3"/>
    <path d="M 53.160209 16.351761 
L 53.382844 15.898052 
L 53.756405 15.699197 
z
" clip-path="url(#p8eb95ae466)" style="fill: #eeeeee; stroke: #000000; stroke-width: 0.3"/>
    <path d="M 3019.758272 46.809316 
L 3019.976353 47.09082 
L 3019.875389 47.204378 
z
" clip-path="url(#p8eb95ae466)" style="fill: #eeeeee; stroke: #000000; stroke-width: 0.3"/>
    <path d="M 21.691089 58.720128 
L 21.825377 58.478088 
L 21.872832 58.706266 
z
" clip-path="url(#p8eb95ae466)" style="fill: #eeeeee; stroke: #000000; stroke-width: 0.3"/>
    <path d="M -1033.013879 304.688616 
L -1032.752387 304.640635 
L -1032.949266 304.85389 
z
" clip-path="url(#p8eb95ae466)" style="fill: #eeeeee; stroke: #000000; stroke-width: 0.3"/>
    <path d="M -1058.740643 222.605818 
L -1058.340321 222.585038 
L -1058.361524 222.857462 
z
" clip-path="url(#p8eb95ae466)" style="fill: #eeeeee; stroke: #000000; stroke-width: 0.3"/>
    <path d="M -1062.419795 215.508711 
L -1062.235025 215.313577 
L -1062.235025 215.508711 
z
" clip-path="url(#p8eb95ae466)" style="fill: #eeeeee; stroke: #000000; stroke-width: 0.3"/>
    <path d="M -1150.673363 80.374543 
L -1150.673363 80.353212 
L -1150.662259 80.369747 
z
" clip-path="url(#p8eb95ae466)" style="fill: #eeeeee; stroke: #000000; stroke-width: 0.3"/>
    <path d="M -1150.98989 80.236994 
L -1150.762218 80.130367 
L -1150.719813 80.132503 
z
" clip-path="url(#p8eb95ae466)" style="fill: #eeeeee; stroke: #000000; stroke-width: 0.3"/>
    <path d="M -1151.118112 80.643246 
L -1151.095395 80.592068 
L -1150.781907 80.529151 
z
" clip-path="url(#p8eb95ae466)" style="fill: #eeeeee; stroke: #000000; stroke-width: 0.3"/>
    <path d="M -1236.902099 296.853112 
L -1236.847573 296.800323 
L -1236.843032 296.887768 
z
" clip-path="url(#p8eb95ae466)" style="fill: #eeeeee; stroke: #000000; stroke-width: 0.3"/>
    <path d="M -1237.092924 297.266295 
L -1237.062627 297.172993 
L -1237.042938 297.230041 
z
" clip-path="url(#p8eb95ae466)" style="fill: #eeeeee; stroke: #000000; stroke-width: 0.3"/>
    <path d="M -1239.09252 289.252179 
L -1239.074344 289.187139 
L -1239.038006 289.233522 
z
" clip-path="url(#p8eb95ae466)" style="fill: #eeeeee; stroke: #000000; stroke-width: 0.3"/>
    <path d="M -1247.71237 -69.782879 
L -1247.558393 -69.827126 
L -1247.53719 -69.803673 
z
" clip-path="url(#p8eb95ae466)" style="fill: #eeeeee; stroke: #000000; stroke-width: 0.3"/>
    <path d="M -1248.386304 -69.695984 
L -1248.242426 -69.894839 
L -1248.170245 -69.75729 
z
" clip-path="url(#p8eb95ae466)" style="fill: #eeeeee; stroke: #000000; stroke-width: 0.3"/>
    <path d="M 148.442615 59.616605 
L 149.116661 59.022583 
L 150.190631 59.505628 
L 149.649521 59.943418 
z
" clip-path="url(#p8eb95ae466)" style="fill: #eeeeee; stroke: #000000; stroke-width: 0.3"/>
    <path d="M 147.277804 68.074013 
L 147.510029 66.854196 
L 151.443603 67.171942 
L 150.064928 67.62244 
z
" clip-path="url(#p8eb95ae466)" style="fill: #eeeeee; stroke: #000000; stroke-width: 0.3"/>
    <path d="M 145.46247 59.28374 
L 146.597232 58.852134 
L 147.48044 59.928599 
z
" clip-path="url(#p8eb95ae466)" style="fill: #eeeeee; stroke: #000000; stroke-width: 0.3"/>
    <path d="M 117.804012 59.176719 
L 119.902289 57.067933 
L 128.826545 57.478456 
L 138.267732 58.819824 
L 138.489511 61.09695 
L 136.826975 61.523891 
L 134.326082 64.303676 
L 131.037163 64.92744 
L 123.967632 63.888894 
L 118.879036 64.768207 
L 119.280189 61.25258 
z
" clip-path="url(#p8eb95ae466)" style="fill: #eeeeee; stroke: #000000; stroke-width: 0.3"/>
    <path d="M 109.529199 62.682939 
L 109.753335 62.417433 
L 110.545913 62.414773 
L 110.331367 63.217136 
z
" clip-path="url(#p8eb95ae466)" style="fill: #eeeeee; stroke: #000000; stroke-width: 0.3"/>
    <path d="M 141.832794 59.454254 
L 142.79296 59.673378 
L 142.347206 59.987389 
z
" clip-path="url(#p8eb95ae466)" style="fill: #eeeeee; stroke: #000000; stroke-width: 0.3"/>
    <path d="M 138.776089 62.3172 
L 142.556206 62.120481 
L 139.969497 62.773031 
z
" clip-path="url(#p8eb95ae466)" style="fill: #eeeeee; stroke: #000000; stroke-width: 0.3"/>
    <path d="M 153.314977 54.160216 
L 154.409939 54.139946 
L 155.024819 54.737061 
L 153.662806 54.403317 
z
" clip-path="url(#p8eb95ae466)" style="fill: #eeeeee; stroke: #000000; stroke-width: 0.3"/>
    <path d="M 152.883354 58.112349 
L 153.230166 57.209753 
L 154.338763 57.209753 
L 153.319518 57.93375 
z
" clip-path="url(#p8eb95ae466)" style="fill: #eeeeee; stroke: #000000; stroke-width: 0.3"/>
    <path d="M 151.690964 57.59094 
L 151.818689 57.675712 
L 151.727315 57.859119 
z
" clip-path="url(#p8eb95ae466)" style="fill: #eeeeee; stroke: #000000; stroke-width: 0.3"/>
    <path d="M 150.90243 59.258059 
L 151.20835 59.193019 
L 151.300742 59.532632 
z
" clip-path="url(#p8eb95ae466)" style="fill: #eeeeee; stroke: #000000; stroke-width: 0.3"/>
    <path d="M 149.52393 58.857323 
L 150.422447 58.006259 
L 151.971525 58.161758 
z
" clip-path="url(#p8eb95ae466)" style="fill: #eeeeee; stroke: #000000; stroke-width: 0.3"/>
    <path d="M 148.781164 58.122477 
L 148.85033 58.025991 
L 149.322845 58.180062 
z
" clip-path="url(#p8eb95ae466)" style="fill: #eeeeee; stroke: #000000; stroke-width: 0.3"/>
    <path d="M -19.955756 60.437901 
L -18.168684 58.096888 
L -14.934788 58.112349 
L -14.095773 57.120185 
L -6.28314 57.89857 
L -1.597273 58.55534 
L -0.206589 60.277423 
L 5.149069 61.873632 
L 7.173403 65.025001 
L 5.001667 65.741006 
L 2.027242 65.651975 
L -1.039575 64.0187 
L -2.182972 66.098203 
L -4.65837 65.474923 
L -5.58649 66.903251 
L -4.647006 66.992806 
L -5.121034 67.793583 
L -8.083339 65.729279 
L -11.96643 65.819908 
L -15.931305 61.491908 
z
" clip-path="url(#p8eb95ae466)" style="fill: #eeeeee; stroke: #000000; stroke-width: 0.3"/>
   </g>
   <g id="PatchCollection_2">
    <path d="M 59.009572 56.071615 
L 61.097081 55.820417 
L 62.60116 53.888355 
L 62.438312 52.353753 
L 60.80152 51.281246 
L 63.552591 48.817345 
L 61.904249 46.524051 
L 62.805682 45.382494 
L 62.141002 41.511006 
L 63.331879 39.106564 
L 69.401359 39.887073 
L 71.527166 38.529169 
L 76.20688 40.771548 
L 78.563895 40.65799 
L 80.460516 42.274992 
L 84.599046 41.923128 
L 86.826822 46.887694 
L 92.187542 46.970868 
L 93.481902 46.054396 
L 93.289055 46.889292 
L 94.31284 46.792256 
L 93.204256 48.410333 
L 88.692651 47.863873 
L 88.8022 49.590699 
L 99.580164 51.281272 
L 104.61324 56.353539 
L 103.104322 59.228736 
L 101.45103 58.908855 
L 100.72964 61.102715 
L 99.539769 61.237604 
L 97.312501 58.515404 
L 85.787391 57.72689 
L 83.738827 58.527667 
L 81.813435 60.885203 
L 77.08577 61.241338 
L 76.75562 58.864608 
L 75.212373 58.281893 
L 72.375772 60.490677 
L 70.496321 59.92928 
L 70.780033 62.055965 
L 66.361824 69.0955 
L 64.942766 67.126634 
L 63.110262 66.992806 
L 63.364694 64.529181 
L 61.907772 63.403203 
L 62.737719 59.81318 
L 60.221305 58.273822 
z
" clip-path="url(#p8eb95ae466)" style="fill: #ff6b6b; stroke: #dd0000; stroke-width: 0.5"/>
    <path d="M 98.994564 61.340497 
L 99.396399 61.327696 
L 101.663057 62.504328 
z
" clip-path="url(#p8eb95ae466)" style="fill: #ff6b6b; stroke: #dd0000; stroke-width: 0.5"/>
    <path d="M 64.821617 69.470831 
L 65.073519 68.879586 
L 65.742912 69.41698 
z
" clip-path="url(#p8eb95ae466)" style="fill: #ff6b6b; stroke: #dd0000; stroke-width: 0.5"/>
   </g>
  </g>
 </g>
 <defs>
  <clipPath id="p8eb95ae466">
   <rect x="0" y="0" width="163.622813" height="108"/>
  </clipPath>
 </defs>
</svg>
