<?xml version="1.0" encoding="utf-8" standalone="no"?>
<!DOCTYPE svg PUBLIC "-//W3C//DTD SVG 1.1//EN"
  "http://www.w3.org/Graphics/SVG/1.1/DTD/svg11.dtd">
<svg xmlns:xlink="http://www.w3.org/1999/xlink" width="166.581395pt" height="108pt" viewBox="0 0 166.581395 108" xmlns="http://www.w3.org/2000/svg" version="1.1">
 <metadata>
  <rdf:RDF xmlns:dc="http://purl.org/dc/elements/1.1/" xmlns:cc="http://creativecommons.org/ns#" xmlns:rdf="http://www.w3.org/1999/02/22-rdf-syntax-ns#">
   <cc:Work>
    <dc:type rdf:resource="http://purl.org/dc/dcmitype/StillImage"/>
    <dc:date>2025-09-05T15:49:27.816799</dc:date>
    <dc:format>image/svg+xml</dc:format>
    <dc:creator>
     <cc:Agent>
      <dc:title>Matplotlib v3.10.3, https://matplotlib.org/</dc:title>
     </cc:Agent>
    </dc:creator>
   </cc:Work>
  </rdf:RDF>
 </metadata>
 <defs>
  <style type="text/css">*{stroke-linejoin: round; stroke-linecap: butt}</style>
 </defs>
 <g id="figure_1">
  <g id="patch_1">
   <path d="M 0 108 
L 166.581395 108 
L 166.581395 0 
L 0 0 
z
" style="fill: #ffffff"/>
  </g>
  <g id="axes_1">
   <g id="PatchCollection_1">
    <path d="M 1323.320458 -694.270745 
L 1323.404252 -698.243145 
L 1327.805949 -700.729596 
L 1340.723182 -703.074562 
L 1343.40181 -700.729596 
L 1344.312832 -703.083811 
L 1349.249365 -701.938143 
L 1350.771876 -705.554537 
L 1357.027689 -706.243415 
L 1357.229146 -704.468044 
L 1360.056653 -706.221213 
L 1359.311445 -703.691312 
L 1361.881348 -705.088498 
L 1369.018763 -697.988855 
L 1377.043102 -702.29599 
L 1376.731103 -700.729596 
L 1379.285847 -699.644035 
L 1382.820226 -701.194703 
L 1384.398906 -698.092434 
L 1383.338128 -701.039357 
L 1385.158376 -702.29599 
L 1387.390431 -702.604819 
L 1388.436028 -700.417971 
L 1398.063101 -701.039357 
L 1393.746074 -703.400049 
L 1392.665711 -705.722814 
L 1394.746214 -709.911575 
L 1392.870716 -709.805246 
L 1392.501694 -714.052274 
L 1393.860166 -714.2705 
L 1387.987658 -717.866533 
L 1386.49367 -721.211093 
L 1387.483119 -723.230573 
L 1385.386559 -725.601423 
L 1392.583692 -723.918519 
L 1400.111531 -724.951382 
L 1400.884365 -723.328585 
L 1399.164867 -721.828774 
L 1403.182381 -716.996425 
L 1407.179413 -718.060715 
L 1422.97316 -715.511408 
L 1436.791579 -719.419065 
L 1438.585079 -720.363164 
L 1433.407854 -719.691852 
L 1429.458952 -721.30356 
L 1432.947874 -725.719774 
L 1454.533927 -731.393575 
L 1461.101738 -736.749275 
L 1464.421298 -736.246263 
L 1461.551006 -738.186207 
L 1463.059234 -740.294472 
L 1461.850496 -741.069341 
L 1462.406735 -751.614305 
L 1483.026056 -756.585117 
L 1484.924293 -753.712413 
L 1484.448825 -751.083092 
L 1488.829951 -748.309309 
L 1496.333321 -749.575237 
L 1499.439726 -743.845669 
L 1506.827646 -742.699523 
L 1508.76801 -738.648064 
L 1515.481196 -739.689699 
L 1519.737803 -737.745006 
L 1518.164227 -734.783335 
L 1520.009493 -733.237915 
L 1518.293281 -731.302608 
L 1529.557394 -731.518675 
L 1533.275135 -735.537251 
L 1534.509087 -735.047555 
L 1532.582305 -730.923286 
L 1534.253236 -729.901627 
L 1534.00871 -727.19361 
L 1542.995093 -724.856688 
L 1547.308308 -720.484651 
L 1553.66601 -721.631955 
L 1558.361851 -719.175251 
L 1568.045619 -719.723667 
L 1574.859556 -712.75635 
L 1579.254264 -713.842616 
L 1582.061793 -711.591412 
L 1587.140283 -711.532691 
L 1590.122169 -712.985348 
L 1595.039883 -710.004883 
L 1607.424756 -708.204629 
L 1598.879886 -700.397655 
L 1597.575722 -694.178983 
L 1593.959893 -689.369494 
L 1594.736494 -685.772508 
L 1592.343292 -679.770493 
L 1593.967823 -676.982098 
L 1589.422548 -673.4831 
L 1580.544824 -674.811271 
L 1578.20823 -671.745089 
L 1581.930482 -671.184924 
L 1573.799939 -664.180611 
L 1568.919575 -662.42792 
L 1568.625233 -658.261383 
L 1561.816949 -654.23108 
L 1560.410917 -650.503154 
L 1562.181481 -649.3893 
L 1561.282617 -646.722392 
L 1558.232797 -645.515162 
L 1558.321104 -643.936861 
L 1562.296952 -644.385447 
L 1565.382984 -646.427629 
L 1563.913553 -648.140984 
L 1565.118063 -649.494402 
L 1569.802578 -651.166057 
L 1576.464831 -650.383962 
L 1575.661065 -648.82384 
L 1577.354647 -647.095828 
L 1575.996154 -644.417171 
L 1581.613511 -639.273583 
L 1576.765964 -637.028265 
L 1576.65954 -634.566856 
L 1584.649726 -627.585427 
L 1582.34483 -623.102994 
L 1572.426724 -620.598158 
L 1575.552385 -616.15213 
L 1581.285191 -614.203891 
L 1582.338017 -611.086056 
L 1580.250483 -611.047288 
L 1577.531239 -607.658164 
L 1579.328989 -605.437502 
L 1578.196904 -603.978982 
L 1580.753116 -601.01613 
L 1588.381026 -598.369174 
L 1595.492722 -599.523545 
L 1596.244415 -597.052752 
L 1591.59839 -592.466398 
L 1591.566428 -590.173925 
L 1584.451315 -587.677293 
L 1584.172965 -585.387752 
L 1580.299182 -585.071583 
L 1578.808217 -582.515526 
L 1575.23997 -582.066008 
L 1572.167433 -578.908427 
L 1574.412501 -579.00103 
L 1574.115158 -577.378029 
L 1567.446026 -574.862126 
L 1563.455172 -575.269627 
L 1563.167622 -573.614106 
L 1557.928729 -575.843336 
L 1556.081448 -573.816515 
L 1552.079356 -576.88572 
L 1544.917121 -577.704038 
L 1543.760281 -580.875799 
L 1538.061167 -580.421395 
L 1537.888365 -582.099686 
L 1542.274026 -583.712302 
L 1537.954327 -585.491377 
L 1538.435666 -582.552772 
L 1534.427966 -582.375223 
L 1534.156385 -580.564629 
L 1532.01049 -582.395562 
L 1531.67354 -584.716509 
L 1530.62527 -585.957416 
L 1531.675336 -582.400198 
L 1533.378711 -580.66864 
L 1514.378685 -585.067879 
L 1495.999875 -575.213633 
L 1494.418544 -564.368156 
L 1497.466458 -559.878405 
L 1492.049571 -560.758784 
L 1486.10166 -557.777161 
L 1477.67224 -559.813458 
L 1471.500177 -557.99675 
L 1465.289624 -561.292521 
L 1465.504728 -563.931841 
L 1459.092653 -563.603037 
L 1457.193036 -566.17716 
L 1445.589299 -568.971485 
L 1442.159109 -569.125923 
L 1441.880628 -565.627584 
L 1426.928218 -565.642855 
L 1420.709734 -569.218685 
L 1415.315412 -567.630998 
L 1411.139181 -571.582036 
L 1402.589777 -572.927819 
L 1399.607891 -575.278853 
L 1395.859612 -573.822083 
L 1397.034701 -578.327423 
L 1392.250553 -578.4108 
L 1388.426411 -581.305524 
L 1391.393684 -581.880528 
L 1395.427257 -585.979596 
L 1400.239008 -608.15879 
L 1401.788245 -610.645241 
L 1404.893862 -610.734936 
L 1402.10112 -613.208434 
L 1400.170374 -609.780656 
L 1404.006039 -631.178505 
L 1410.99637 -625.657301 
L 1412.096361 -621.303944 
L 1416.068419 -615.860389 
L 1414.720616 -618.807312 
L 1416.96426 -618.201652 
L 1413.410274 -620.499465 
L 1410.354562 -629.089669 
L 1400.4565 -634.379718 
L 1402.285642 -636.579519 
L 1406.155198 -634.548949 
L 1402.550388 -637.975773 
L 1404.807417 -641.853842 
L 1401.256082 -644.938567 
L 1403.448025 -647.850358 
L 1400.614274 -647.431472 
L 1388.449391 -652.210191 
L 1385.941024 -656.692989 
L 1381.365473 -659.60571 
L 1384.170702 -664.500917 
L 1378.685049 -666.934669 
L 1380.3484 -667.51165 
L 1380.450004 -669.859412 
L 1389.94695 -668.486269 
L 1383.74551 -670.96254 
L 1377.868533 -669.29627 
L 1372.09406 -670.516839 
L 1374.411705 -670.674049 
L 1371.778512 -672.405947 
L 1375.383322 -673.324141 
L 1373.128988 -674.859107 
L 1375.99481 -675.199387 
L 1370.122303 -675.51008 
L 1370.837193 -675.720897 
L 1371.331041 -676.284948 
L 1366.066451 -675.041268 
L 1364.04834 -676.386664 
L 1367.724457 -676.225773 
L 1368.881472 -677.431548 
L 1368.983098 -677.854115 
L 1368.489272 -678.302588 
L 1363.82548 -677.229957 
L 1362.614968 -678.781557 
L 1363.376213 -676.440295 
L 1359.359596 -677.303949 
L 1359.175074 -674.564139 
L 1357.665926 -678.231391 
L 1359.474586 -680.334089 
L 1357.828169 -680.658644 
L 1357.148922 -678.61328 
L 1354.211771 -679.543495 
L 1355.868878 -679.402943 
L 1354.211771 -679.854188 
L 1355.868878 -681.588882 
L 1352.280126 -679.708091 
L 1337.257416 -684.692082 
L 1336.095931 -682.180657 
L 1332.007986 -682.040104 
L 1330.631682 -685.868247 
L 1324.202037 -687.344038 
L 1333.901316 -689.043576 
L 1331.844867 -691.702008 
L 1327.940545 -690.448147 
L 1326.432318 -692.944779 
L 1328.176768 -694.303128 
L 1328.859585 -693.144507 
L 1334.252528 -692.975298 
L 1336.046027 -693.409886 
L 1330.21361 -694.043293 
L 1333.802384 -696.229209 
z
M 1470.445095 -560.327219 
L 1471.583949 -560.160464 
L 1470.644338 -561.021255 
z
" clip-path="url(#p9a58414d39)" style="fill: #eeeeee; stroke: #000000; stroke-width: 0.3"/>
    <path d="M 231.326893 351.502535 
L 236.57744 347.92316 
L 241.077434 339.531365 
L 240.179709 333.296831 
L 244.739683 325.843341 
L 244.919693 322.020879 
L 239.52537 316.277199 
L 235.899333 309.114949 
L 234.143491 292.947882 
L 237.98575 285.611243 
L 243.467416 280.823047 
L 246.251416 273.81803 
L 268.97996 281.523924 
L 280.098436 293.108251 
L 282.505198 292.305635 
L 281.160988 297.001136 
L 283.539228 293.573358 
L 288.082663 297.706649 
L 289.698782 303.150203 
L 287.605771 305.887217 
L 290.010759 304.561251 
L 290.609782 298.566599 
L 292.968416 299.543967 
L 296.30848 310.005714 
L 280.835823 332.747233 
L 279.653944 338.524954 
L 273.49095 350.440926 
L 267.130948 354.97974 
L 260.83097 354.468887 
L 261.582663 353.213527 
L 259.174739 350.97173 
L 255.063069 353.30279 
L 249.958553 350.538392 
L 242.362846 356.320113 
z
" clip-path="url(#p9a58414d39)" style="fill: #eeeeee; stroke: #000000; stroke-width: 0.3"/>
    <path d="M 1615.065417 -558.642588 
L 1617.484666 -559.841886 
L 1618.572171 -563.234509 
L 1627.525343 -566.707578 
L 1631.344096 -565.406563 
L 1632.53855 -572.882551 
L 1635.109352 -572.571858 
L 1634.645823 -564.629832 
L 1636.512404 -562.879435 
L 1637.202341 -553.403397 
L 1633.77581 -549.003795 
L 1633.741942 -543.402145 
L 1631.344096 -541.583301 
L 1632.62414 -540.556006 
L 1629.559512 -537.53416 
L 1629.832275 -535.813352 
L 1620.381707 -540.101989 
L 1623.250202 -543.133993 
L 1617.388385 -544.389694 
L 1620.681218 -547.958002 
L 1616.493421 -547.818381 
L 1615.880158 -549.368118 
L 1619.356593 -551.358942 
L 1615.43089 -554.812604 
L 1618.103297 -556.275419 
z
" clip-path="url(#p9a58414d39)" style="fill: #eeeeee; stroke: #000000; stroke-width: 0.3"/>
    <path d="M 86.649482 66.98333 
L 94.101545 68.556201 
L 92.826868 71.075921 
L 95.610693 75.721473 
L 94.292311 76.945746 
L 94.337768 75.403395 
L 89.933398 75.614212 
L 89.138264 74.480565 
L 91.545027 73.38021 
L 87.96162 71.063899 
z
" clip-path="url(#p9a58414d39)" style="fill: #eeeeee; stroke: #000000; stroke-width: 0.3"/>
    <path d="M 2637.601696 882.261403 
L 2638.96019 879.579837 
L 2645.333665 878.740249 
L 2651.382677 885.153763 
L 2650.452048 889.370272 
L 2645.260562 889.947276 
L 2640.322232 887.753952 
z
" clip-path="url(#p9a58414d39)" style="fill: #eeeeee; stroke: #000000; stroke-width: 0.3"/>
    <path d="M 2414.524519 692.934735 
L 2415.5835 691.7715 
L 2417.990263 693.491377 
L 2417.67649 699.080097 
L 2415.722566 699.387086 
L 2414.963096 697.482275 
L 2416.58364 697.604329 
z
" clip-path="url(#p9a58414d39)" style="fill: #eeeeee; stroke: #000000; stroke-width: 0.3"/>
    <path d="M 79.536143 34.285077 
L 81.325174 29.110606 
L 83.44581 32.84351 
L 87.874255 35.021109 
L 81.333192 36.172322 
z
" clip-path="url(#p9a58414d39)" style="fill: #eeeeee; stroke: #000000; stroke-width: 0.3"/>
    <path d="M 73.989874 33.675713 
L 75.293096 32.469006 
L 79.372126 34.281373 
L 79.058352 40.008782 
L 76.233518 41.925637 
z
" clip-path="url(#p9a58414d39)" style="fill: #eeeeee; stroke: #000000; stroke-width: 0.3"/>
    <path d="M 1393.697945 -646.693577 
L 1399.124755 -645.674599 
L 1399.709517 -644.521523 
L 1394.827335 -645.691234 
z
" clip-path="url(#p9a58414d39)" style="fill: #eeeeee; stroke: #000000; stroke-width: 0.3"/>
    <path d="M 84.183877 42.316775 
L 85.579809 40.559902 
L 87.207495 42.314003 
L 85.435399 43.63906 
z
" clip-path="url(#p9a58414d39)" style="fill: #eeeeee; stroke: #000000; stroke-width: 0.3"/>
    <path d="M 2419.634007 695.35367 
L 2419.783763 693.957416 
L 2419.783763 695.35367 
z
" clip-path="url(#p9a58414d39)" style="fill: #eeeeee; stroke: #000000; stroke-width: 0.3"/>
    <path d="M 1634.945335 -564.785178 
L 1635.505123 -564.164724 
L 1635.389235 -564.141613 
z
" clip-path="url(#p9a58414d39)" style="fill: #eeeeee; stroke: #000000; stroke-width: 0.3"/>
    <path d="M 1562.863488 -572.790084 
L 1563.059599 -573.001833 
L 1564.747923 -572.857599 
z
" clip-path="url(#p9a58414d39)" style="fill: #eeeeee; stroke: #000000; stroke-width: 0.3"/>
    <path d="M 1397.003243 -642.18026 
L 1400.44938 -641.01239 
L 1401.290848 -636.748727 
z
" clip-path="url(#p9a58414d39)" style="fill: #eeeeee; stroke: #000000; stroke-width: 0.3"/>
    <path d="M 1377.490573 -664.45099 
L 1379.585359 -664.250331 
L 1380.844 -661.648302 
z
" clip-path="url(#p9a58414d39)" style="fill: #eeeeee; stroke: #000000; stroke-width: 0.3"/>
    <path d="M 1375.578535 -657.393888 
L 1377.434425 -657.337485 
L 1378.075335 -656.820588 
z
" clip-path="url(#p9a58414d39)" style="fill: #eeeeee; stroke: #000000; stroke-width: 0.3"/>
    <path d="M 1356.319043 -672.405947 
L 1360.592388 -670.558448 
L 1357.16498 -670.790559 
z
" clip-path="url(#p9a58414d39)" style="fill: #eeeeee; stroke: #000000; stroke-width: 0.3"/>
    <path d="M 1315.337107 -696.83671 
L 1316.235642 -697.347131 
L 1316.319436 -696.584284 
z
" clip-path="url(#p9a58414d39)" style="fill: #eeeeee; stroke: #000000; stroke-width: 0.3"/>
    <path d="M 89.450241 33.830127 
L 90.600158 32.942453 
L 89.95478 33.902256 
z
" clip-path="url(#p9a58414d39)" style="fill: #eeeeee; stroke: #000000; stroke-width: 0.3"/>
    <path d="M 78.407629 43.886874 
L 78.752619 43.479078 
L 78.703591 43.910916 
z
" clip-path="url(#p9a58414d39)" style="fill: #eeeeee; stroke: #000000; stroke-width: 0.3"/>
    <path d="M 77.473451 44.106008 
L 77.961055 43.950662 
L 77.709673 44.247493 
z
" clip-path="url(#p9a58414d39)" style="fill: #eeeeee; stroke: #000000; stroke-width: 0.3"/>
    <path d="M 1503.382428 -766.633773 
L 1512.14663 -768.475705 
L 1517.705364 -764.724303 
L 1521.613257 -764.769617 
L 1515.148846 -768.009666 
L 1519.949906 -768.009666 
L 1517.883643 -769.125746 
L 1519.284921 -770.18172 
L 1512.392645 -773.140686 
L 1517.109912 -773.765753 
L 1515.75144 -777.040958 
L 1518.516535 -777.447799 
L 1526.540896 -784.964464 
L 1531.739501 -799.308915 
L 1534.550973 -797.862712 
L 1539.02757 -799.000063 
L 1545.623883 -802.257678 
L 1550.275187 -806.926364 
L 1558.80229 -809.273172 
L 1577.386106 -810.284764 
L 1578.951401 -808.039672 
L 1585.392634 -805.613328 
L 1585.353859 -799.999952 
L 1581.932739 -792.03211 
L 1575.36898 -791.743801 
L 1573.93804 -789.630013 
L 1574.882186 -787.809193 
L 1580.544824 -787.577855 
L 1582.186334 -785.616732 
L 1581.706331 -782.561685 
L 1573.965227 -778.457982 
L 1576.983325 -776.424617 
L 1566.779946 -773.255105 
L 1562.004867 -774.973733 
L 1562.643367 -773.73128 
L 1557.721095 -773.13121 
L 1563.721101 -765.013612 
L 1560.46299 -759.406758 
L 1562.448636 -758.055703 
L 1555.991301 -755.567275 
L 1556.475817 -753.808721 
L 1560.619209 -752.494639 
L 1559.111288 -748.912924 
L 1552.794333 -749.01039 
L 1550.996583 -750.739016 
L 1555.479598 -758.151397 
L 1548.121121 -761.107205 
L 1542.035109 -760.475412 
L 1537.918881 -765.431088 
L 1535.351343 -763.501666 
L 1532.104559 -763.989612 
L 1533.431353 -763.996657 
L 1532.466834 -765.852678 
L 1529.213258 -764.099396 
L 1525.99136 -765.374731 
L 1523.670626 -764.660151 
L 1524.00118 -762.55868 
L 1515.382396 -764.892603 
L 1511.622485 -763.482487 
z
" clip-path="url(#p9a58414d39)" style="fill: #eeeeee; stroke: #000000; stroke-width: 0.3"/>
    <path d="M 1501.156573 -763.122618 
L 1505.361326 -764.065945 
L 1511.772241 -762.395994 
L 1515.061481 -763.923551 
L 1520.261094 -762.9585 
L 1518.014778 -760.786014 
L 1511.21782 -759.261728 
L 1506.854811 -761.195855 
L 1502.081988 -760.203556 
z
" clip-path="url(#p9a58414d39)" style="fill: #eeeeee; stroke: #000000; stroke-width: 0.3"/>
    <path d="M -71.034872 125.828565 
L -70.141704 124.623698 
L -66.525306 126.485991 
L -66.388935 128.9826 
L -67.460382 131.132475 
L -68.519363 127.057451 
z
" clip-path="url(#p9a58414d39)" style="fill: #eeeeee; stroke: #000000; stroke-width: 0.3"/>
    <path d="M 1530.912295 -800.692216 
L 1534.124883 -804.311382 
L 1534.962802 -802.568371 
L 1532.839493 -800.052355 
z
" clip-path="url(#p9a58414d39)" style="fill: #eeeeee; stroke: #000000; stroke-width: 0.3"/>
    <path d="M 47.706184 6.101049 
L 48.84701 7.015425 
L 48.547805 7.488395 
L 48.0579 7.416744 
z
" clip-path="url(#p9a58414d39)" style="fill: #eeeeee; stroke: #000000; stroke-width: 0.3"/>
    <path d="M 1569.192404 -812.727765 
L 1570.397571 -812.398574 
L 1570.098059 -812.230275 
z
" clip-path="url(#p9a58414d39)" style="fill: #eeeeee; stroke: #000000; stroke-width: 0.3"/>
    <path d="M 1562.014878 -810.496513 
L 1566.031517 -811.729103 
L 1566.643005 -811.453566 
z
" clip-path="url(#p9a58414d39)" style="fill: #eeeeee; stroke: #000000; stroke-width: 0.3"/>
    <path d="M 1551.250375 -810.241314 
L 1557.335051 -810.813682 
L 1558.228219 -810.523328 
z
" clip-path="url(#p9a58414d39)" style="fill: #eeeeee; stroke: #000000; stroke-width: 0.3"/>
    <path d="M 1540.988636 -808.413244 
L 1542.796375 -809.281512 
L 1550.137918 -810.353188 
z
" clip-path="url(#p9a58414d39)" style="fill: #eeeeee; stroke: #000000; stroke-width: 0.3"/>
    <path d="M 1535.347882 -804.873592 
L 1537.020127 -806.635078 
L 1539.61231 -807.081711 
z
" clip-path="url(#p9a58414d39)" style="fill: #eeeeee; stroke: #000000; stroke-width: 0.3"/>
    <path d="M 1508.545391 -770.337066 
L 1511.339031 -771.599244 
L 1517.585928 -769.460482 
z
" clip-path="url(#p9a58414d39)" style="fill: #eeeeee; stroke: #000000; stroke-width: 0.3"/>
    <path d="M 42.137635 3.870752 
L 42.74288 3.746834 
L 42.421089 4.076956 
z
" clip-path="url(#p9a58414d39)" style="fill: #eeeeee; stroke: #000000; stroke-width: 0.3"/>
    <path d="M -179.987993 195.423582 
L -171.109129 181.387346 
L -169.561601 167.281254 
L -160.457469 151.649105 
L -155.369931 150.874032 
L -148.885409 139.352062 
L -135.446572 135.05988 
L -135.896409 137.158556 
L -148.654072 140.958043 
L -146.384578 149.463188 
L -141.335706 154.054178 
L -144.451137 154.04677 
L -140.236613 160.732164 
L -141.403465 166.801716 
L -148.841267 174.716905 
L -152.243722 181.071245 
L -149.49554 184.965039 
L -148.35456 187.545821 
L -149.253096 185.980336 
L -149.41444 189.408091 
L -147.743072 188.476944 
L -146.110019 189.859336 
L -147.344606 189.968461 
L -147.44356 191.101176 
L -143.703256 191.101176 
L -145.499428 194.541884 
L -143.926115 194.443872 
L -143.134551 198.100012 
L -139.829253 198.898946 
L -132.892419 196.304302 
L -128.979181 192.420688 
L -128.392645 182.934469 
L -137.894038 167.988062 
L -140.386369 158.729318 
L -137.380583 159.025217 
L -136.647861 156.232709 
L -138.590218 155.302494 
L -110.767039 146.404415 
L -109.088945 143.7141 
L -106.505306 144.374708 
L -109.245186 141.474099 
L -101.212194 144.469948 
L -100.089046 142.955343 
L -101.674825 138.630642 
L -110.344542 140.553042 
L -110.261646 136.797937 
L -112.320768 134.893126 
L -110.213517 129.124085 
L -106.093477 127.148986 
L -102.097366 131.323886 
L -100.165699 140.025964 
L -97.459424 143.764413 
L -89.72211 142.212812 
L -80.801011 144.102852 
L -70.726466 149.843214 
L -67.990771 156.087543 
L -70.141704 156.232709 
L -67.123431 157.008509 
L -69.162946 158.266983 
L -68.180638 162.168186 
L -64.729155 166.035165 
L -58.942216 166.842394 
L -40.254979 163.228773 
L -24.12071 162.298558 
L -19.096812 164.018458 
L -20.754796 165.596873 
L -16.390538 170.705669 
L 1.990047 176.03919 
L 8.72365 175.064594 
L 10.028669 171.946577 
L 15.475984 171.469448 
L 17.484303 170.284034 
L 15.585628 169.555388 
L 21.606117 166.26539 
L 33.294086 165.880728 
L 25.03887 163.709605 
L 20.613097 165.414711 
L 19.805498 161.832519 
L 27.596287 162.778459 
L 29.852417 160.902304 
L 35.521694 162.821931 
L 44.10317 160.423312 
L 66.172337 161.521826 
L 72.929118 160.280918 
L 70.372599 162.298558 
L 64.01516 162.74794 
L 62.212766 165.069795 
L 55.040585 164.232979 
L 49.323179 165.055933 
L 47.406672 166.811874 
L 50.776157 165.039276 
L 51.343087 167.874325 
L 47.748968 167.850282 
L 47.556428 170.861015 
L 49.141329 170.627996 
L 48.903332 167.91132 
L 52.803185 168.135091 
L 55.824131 174.146378 
L 55.166265 175.251369 
L 52.518833 175.153357 
L 51.526711 176.163085 
L 49.800969 174.767763 
L 47.256916 174.767763 
L 52.000931 177.209833 
L 52.353917 175.533383 
L 53.84968 176.018851 
L 56.000613 175.036847 
L 56.845674 172.018705 
L 62.568425 183.794419 
L 63.91533 177.701755 
L 64.687265 178.519165 
L 64.825432 185.346929 
L 66.170562 183.342242 
L 65.2747 178.645832 
L 68.951715 179.972753 
L 64.699752 178.214017 
L 65.246308 176.671711 
L 73.242891 181.847045 
L 72.929118 185.049189 
L 74.367834 182.590485 
L 75.17366 186.291028 
L 75.442852 184.07182 
L 73.314724 181.046679 
L 78.477161 182.073611 
L 77.508524 179.419292 
L 82.206906 183.112291 
L 80.436102 180.764688 
L 81.836613 181.245453 
L 86.943648 186.722844 
L 90.29173 186.634081 
L 94.474161 189.478379 
L 96.158892 192.718428 
L 89.585735 197.515622 
L 89.002769 198.900786 
L 92.352626 195.69587 
L 89.273758 200.744581 
L 86.86877 208.728194 
L 77.019736 208.558054 
L 78.34079 209.945082 
L 85.234841 213.542046 
L 87.491847 211.35613 
L 90.874696 211.185058 
L 89.748876 211.968266 
L 89.882574 213.403357 
L 91.99252 209.479043 
L 98.194836 208.827138 
L 102.872889 210.470296 
L 105.217261 208.129011 
L 112.904671 209.887747 
L 117.104145 216.998435 
L 105.154541 226.576893 
L 101.846636 226.809413 
L 97.359656 233.352799 
L 100.181358 237.790602 
L 99.597779 240.949569 
L 101.359273 242.440971 
L 105.214544 241.37818 
L 106.713987 244.062723 
L 105.097934 246.689704 
L 98.021925 250.586134 
L 93.482302 249.491665 
L 92.907222 251.389386 
L 88.613264 251.750505 
L 86.813827 255.259411 
L 88.794391 263.77626 
L 82.766673 269.254537 
L 98.811539 286.873648 
L 99.943624 293.001899 
L 93.739862 297.366323 
L 91.955147 301.310317 
L 84.544027 301.632667 
L 85.037612 303.285552 
L 80.462916 304.335412 
L 79.030268 307.819661 
L 66.185766 311.415466 
L 60.172199 309.30461 
L 57.261643 312.608584 
L 53.243909 312.694324 
L 53.129577 321.185335 
L 50.066197 323.447698 
L 39.93866 314.405316 
L 36.456419 316.77278 
L 32.931132 314.688921 
L 24.911525 316.137465 
L 22.522857 310.955131 
L 12.818737 310.766061 
L 8.394586 307.00407 
L 7.925339 308.682202 
L 11.652696 314.081784 
L 21.290022 322.677329 
L 20.853044 333.374345 
L 25.790015 342.670357 
L 24.685686 348.206174 
L 39.213014 349.359364 
L 39.480169 352.853021 
L 38.623192 355.52227 
L 24.934177 360.56955 
L 23.700202 367.492849 
L 18.004747 373.32811 
L 16.776446 370.108672 
L 9.725345 376.015561 
L 7.35026 375.48712 
L 0.833469 378.757643 
L -0.618413 383.372767 
L -3.338204 383.68046 
L -8.058384 389.610846 
L -9.037077 387.569846 
L -7.529156 384.22065 
L -9.227821 382.014077 
L -12.500653 382.228962 
L -21.021184 387.751871 
L -24.32232 387.417181 
L -37.247199 376.585134 
L -44.743777 352.870633 
L -44.140372 349.954753 
L -52.593562 343.211729 
L -53.710926 340.432083 
L -58.735064 340.969933 
L -58.355811 338.77979 
L -46.763401 327.467433 
L -50.933957 319.877708 
L -53.824141 318.878933 
L -59.153925 301.363174 
L -57.358454 289.303355 
L -58.267526 283.031825 
L -53.501495 278.434881 
L -53.679226 272.914926 
L -49.239236 268.512347 
L -50.7449 265.416214 
L -49.841502 263.519675 
L -58.105634 260.895625 
L -61.409026 263.067543 
L -75.808987 264.930041 
L -85.137271 263.067543 
L -89.189509 266.18481 
L -91.057996 264.464411 
L -93.516875 265.240074 
L -108.53551 245.916994 
L -112.694741 246.695567 
L -121.112266 243.022248 
L -131.643942 246.143628 
L -141.203169 244.108513 
L -149.38353 245.001005 
L -151.671447 243.321714 
L -154.036346 236.615096 
L -160.005769 234.284037 
L -160.279738 223.988658 
L -156.874456 220.207305 
L -158.140108 214.492395 
L -164.315567 207.762893 
L -166.848009 197.254356 
L -170.446882 197.480421 
L -171.638949 193.131268 
L -176.075544 195.902119 
z
" clip-path="url(#p9a58414d39)" style="fill: #eeeeee; stroke: #000000; stroke-width: 0.3"/>
    <path d="M 16.786326 155.133263 
L 17.618002 152.974162 
L 20.915282 152.31394 
L 24.661807 154.605276 
L 26.25028 151.705507 
L 29.092049 151.317142 
L 30.388152 154.989938 
L 27.969778 157.008509 
L 24.428279 157.629895 
L 21.884226 155.133263 
z
" clip-path="url(#p9a58414d39)" style="fill: #eeeeee; stroke: #000000; stroke-width: 0.3"/>
    <path d="M 89.585735 202.327633 
L 89.938744 200.324787 
L 94.698794 197.658947 
L 94.18179 198.851769 
L 92.706511 199.256792 
z
" clip-path="url(#p9a58414d39)" style="fill: #eeeeee; stroke: #000000; stroke-width: 0.3"/>
    <path d="M 87.735124 209.040023 
L 88.687528 205.377612 
L 97.320508 202.2945 
L 98.335282 204.638217 
L 94.818494 208.076471 
z
" clip-path="url(#p9a58414d39)" style="fill: #eeeeee; stroke: #000000; stroke-width: 0.3"/>
    <path d="M 85.534352 210.875297 
L 86.471203 209.578895 
L 88.688996 210.424983 
L 91.096657 208.704174 
L 90.546661 210.78467 
z
" clip-path="url(#p9a58414d39)" style="fill: #eeeeee; stroke: #000000; stroke-width: 0.3"/>
    <path d="M 89.450241 203.879233 
L 93.20393 199.196685 
L 94.998306 199.831001 
L 94.415318 201.179169 
z
" clip-path="url(#p9a58414d39)" style="fill: #eeeeee; stroke: #000000; stroke-width: 0.3"/>
    <path d="M 11.523533 135.52651 
L 12.435432 133.961979 
L 13.538972 134.911601 
L 13.40615 135.837202 
z
" clip-path="url(#p9a58414d39)" style="fill: #eeeeee; stroke: #000000; stroke-width: 0.3"/>
    <path d="M -54.76868 131.904571 
L -54.201773 132.034034 
L -53.952165 132.122797 
L -54.571693 132.078416 
z
" clip-path="url(#p9a58414d39)" style="fill: #eeeeee; stroke: #000000; stroke-width: 0.3"/>
    <path d="M 95.660641 208.186164 
L 98.554066 205.231287 
L 99.832972 208.099014 
z
" clip-path="url(#p9a58414d39)" style="fill: #eeeeee; stroke: #000000; stroke-width: 0.3"/>
    <path d="M 94.84855 197.19384 
L 95.204209 195.578428 
L 97.405069 195.459146 
z
" clip-path="url(#p9a58414d39)" style="fill: #eeeeee; stroke: #000000; stroke-width: 0.3"/>
    <path d="M 92.305395 198.26647 
L 94.670271 195.434194 
L 93.873363 197.603476 
z
" clip-path="url(#p9a58414d39)" style="fill: #eeeeee; stroke: #000000; stroke-width: 0.3"/>
    <path d="M 79.625151 209.719561 
L 84.565452 209.585417 
L 85.680844 212.203899 
z
" clip-path="url(#p9a58414d39)" style="fill: #eeeeee; stroke: #000000; stroke-width: 0.3"/>
    <path d="M 63.02214 177.489074 
L 63.277093 176.564404 
L 64.394895 176.803901 
z
" clip-path="url(#p9a58414d39)" style="fill: #eeeeee; stroke: #000000; stroke-width: 0.3"/>
    <path d="M 61.897196 180.020816 
L 62.619227 179.717531 
L 62.414222 180.659768 
z
" clip-path="url(#p9a58414d39)" style="fill: #eeeeee; stroke: #000000; stroke-width: 0.3"/>
    <path d="M 59.994972 176.06046 
L 60.199101 176.000353 
L 60.592199 177.742433 
z
" clip-path="url(#p9a58414d39)" style="fill: #eeeeee; stroke: #000000; stroke-width: 0.3"/>
    <path d="M 52.43861 165.917724 
L 53.182022 166.6593 
L 55.095856 170.074126 
z
" clip-path="url(#p9a58414d39)" style="fill: #eeeeee; stroke: #000000; stroke-width: 0.3"/>
    <path d="M 33.543694 47.574464 
L 33.741579 47.574464 
L 33.721972 47.723334 
z
" clip-path="url(#p9a58414d39)" style="fill: #eeeeee; stroke: #000000; stroke-width: 0.3"/>
    <path d="M 25.637893 159.491256 
L 27.847669 159.455192 
L 27.726436 160.403905 
z
" clip-path="url(#p9a58414d39)" style="fill: #eeeeee; stroke: #000000; stroke-width: 0.3"/>
    <path d="M 20.896551 158.792197 
L 21.279857 158.318773 
L 21.907403 158.956793 
z
" clip-path="url(#p9a58414d39)" style="fill: #eeeeee; stroke: #000000; stroke-width: 0.3"/>
    <path d="M -5.191028 156.104178 
L -0.660058 156.567445 
L -1.529173 157.008509 
z
" clip-path="url(#p9a58414d39)" style="fill: #eeeeee; stroke: #000000; stroke-width: 0.3"/>
    <path d="M -22.334352 135.812251 
L -22.010787 135.687401 
L -20.574743 136.670337 
z
" clip-path="url(#p9a58414d39)" style="fill: #eeeeee; stroke: #000000; stroke-width: 0.3"/>
    <path d="M -33.510684 136.598209 
L -31.552291 135.667994 
L -32.137929 137.090131 
z
" clip-path="url(#p9a58414d39)" style="fill: #eeeeee; stroke: #000000; stroke-width: 0.3"/>
    <path d="M -35.9941 134.599067 
L -35.927261 134.550073 
L -33.670233 134.671196 
z
" clip-path="url(#p9a58414d39)" style="fill: #eeeeee; stroke: #000000; stroke-width: 0.3"/>
    <path d="M -36.799048 137.319447 
L -34.025914 136.622252 
L -36.211614 137.435957 
z
" clip-path="url(#p9a58414d39)" style="fill: #eeeeee; stroke: #000000; stroke-width: 0.3"/>
    <path d="M -54.815036 130.61651 
L -54.764233 130.569356 
L -54.795429 130.659959 
z
" clip-path="url(#p9a58414d39)" style="fill: #eeeeee; stroke: #000000; stroke-width: 0.3"/>
    <path d="M -54.828421 131.037236 
L -54.820381 130.987309 
L -54.807916 131.057574 
z
" clip-path="url(#p9a58414d39)" style="fill: #eeeeee; stroke: #000000; stroke-width: 0.3"/>
    <path d="M -54.914887 131.083458 
L -54.860514 131.029827 
L -54.889914 131.100115 
z
" clip-path="url(#p9a58414d39)" style="fill: #eeeeee; stroke: #000000; stroke-width: 0.3"/>
    <path d="M -54.978177 130.227212 
L -54.911317 130.221667 
L -54.903299 130.264208 
z
" clip-path="url(#p9a58414d39)" style="fill: #eeeeee; stroke: #000000; stroke-width: 0.3"/>
    <path d="M -55.074436 130.101476 
L -55.036099 130.134745 
L -55.041466 130.179127 
z
" clip-path="url(#p9a58414d39)" style="fill: #eeeeee; stroke: #000000; stroke-width: 0.3"/>
    <path d="M 85.337343 104.038645 
L 87.358149 100.299265 
L 88.742493 101.939651 
L 87.791359 105.625377 
z
" clip-path="url(#p9a58414d39)" style="fill: #eeeeee; stroke: #000000; stroke-width: 0.3"/>
    <path d="M 87.347459 112.208123 
L 87.444616 111.592305 
L 87.624669 111.631142 
z
" clip-path="url(#p9a58414d39)" style="fill: #eeeeee; stroke: #000000; stroke-width: 0.3"/>
    <path d="M 85.384596 109.206639 
L 87.043478 107.781729 
L 86.146739 109.517331 
z
" clip-path="url(#p9a58414d39)" style="fill: #eeeeee; stroke: #000000; stroke-width: 0.3"/>
    <path d="M 83.722144 115.842083 
L 84.110795 115.143956 
L 84.2641 115.774591 
z
" clip-path="url(#p9a58414d39)" style="fill: #eeeeee; stroke: #000000; stroke-width: 0.3"/>
    <path d="M 81.469584 118.350736 
L 81.477602 117.873607 
L 82.111392 118.219433 
z
" clip-path="url(#p9a58414d39)" style="fill: #eeeeee; stroke: #000000; stroke-width: 0.3"/>
    <path d="M 121.138484 101.588258 
L 125.91904 105.299914 
L 124.123765 107.642108 
L 121.654612 106.808973 
z
" clip-path="url(#p9a58414d39)" style="fill: #eeeeee; stroke: #000000; stroke-width: 0.3"/>
    <path d="M 89.737287 88.951685 
L 92.915109 83.677362 
L 93.81899 90.010453 
L 92.441766 92.704018 
z
" clip-path="url(#p9a58414d39)" style="fill: #eeeeee; stroke: #000000; stroke-width: 0.3"/>
    <path d="M 80.746655 51.321229 
L 81.183436 49.090909 
L 84.716938 50.331839 
L 85.812461 52.755388 
L 85.83474 57.010734 
L 83.508201 58.909091 
z
" clip-path="url(#p9a58414d39)" style="fill: #eeeeee; stroke: #000000; stroke-width: 0.3"/>
    <path d="M 64.755921 25.119709 
L 65.124944 22.151516 
L 65.723967 22.292069 
z
" clip-path="url(#p9a58414d39)" style="fill: #eeeeee; stroke: #000000; stroke-width: 0.3"/>
    <path d="M 72.314058 2.33949 
L 73.242891 4.096363 
L 73.103826 1.509128 
L 75.514159 4.673367 
L 73.078874 4.562402 
z
" clip-path="url(#p9a58414d39)" style="fill: #eeeeee; stroke: #000000; stroke-width: 0.3"/>
    <path d="M 72.100115 16.931732 
L 73.378385 14.210421 
L 76.832541 16.241014 
L 75.309154 18.290081 
z
" clip-path="url(#p9a58414d39)" style="fill: #eeeeee; stroke: #000000; stroke-width: 0.3"/>
    <path d="M 61.921184 19.553282 
L 62.035122 19.521331 
L 61.947363 19.591619 
z
" clip-path="url(#p9a58414d39)" style="fill: #eeeeee; stroke: #000000; stroke-width: 0.3"/>
    <path d="M 56.139678 15.678803 
L 56.423132 13.433712 
L 57.578395 13.869232 
L 57.554319 15.667714 
z
" clip-path="url(#p9a58414d39)" style="fill: #eeeeee; stroke: #000000; stroke-width: 0.3"/>
    <path d="M 50.860828 9.075719 
L 53.778373 9.897764 
L 55.375761 13.110066 
z
" clip-path="url(#p9a58414d39)" style="fill: #eeeeee; stroke: #000000; stroke-width: 0.3"/>
    <path d="M 8.182899 -12.13856 
L 9.373104 -13.168832 
L 11.269478 -12.331039 
L 10.314007 -11.571737 
z
" clip-path="url(#p9a58414d39)" style="fill: #eeeeee; stroke: #000000; stroke-width: 0.3"/>
    <path d="M 6.126122 2.529969 
L 6.536176 0.414318 
L 13.481926 0.965415 
L 11.047517 1.74676 
z
" clip-path="url(#p9a58414d39)" style="fill: #eeeeee; stroke: #000000; stroke-width: 0.3"/>
    <path d="M 2.920676 -12.715883 
L 4.924394 -13.464458 
L 6.483928 -11.597439 
z
" clip-path="url(#p9a58414d39)" style="fill: #eeeeee; stroke: #000000; stroke-width: 0.3"/>
   </g>
   <g id="PatchCollection_2">
    <defs>
     <path id="m889e0d12e0" d="M 80.746655 -56.678771 
L 81.183436 -58.909091 
L 84.716938 -57.668161 
L 85.812461 -55.244612 
L 85.83474 -50.989266 
L 83.508201 -49.090909 
z
" style="stroke: #dd0000; stroke-width: 0.5"/>
    </defs>
    <g clip-path="url(#p9a58414d39)">
     <use xlink:href="#m889e0d12e0" x="0" y="108" style="fill: #ff6b6b; stroke: #dd0000; stroke-width: 0.5"/>
    </g>
   </g>
  </g>
 </g>
 <defs>
  <clipPath id="p9a58414d39">
   <rect x="0" y="0" width="166.581395" height="108"/>
  </clipPath>
 </defs>
</svg>
