<?xml version="1.0" encoding="utf-8" standalone="no"?>
<!DOCTYPE svg PUBLIC "-//W3C//DTD SVG 1.1//EN"
  "http://www.w3.org/Graphics/SVG/1.1/DTD/svg11.dtd">
<svg xmlns:xlink="http://www.w3.org/1999/xlink" width="172.726296pt" height="108pt" viewBox="0 0 172.726296 108" xmlns="http://www.w3.org/2000/svg" version="1.1">
 <metadata>
  <rdf:RDF xmlns:dc="http://purl.org/dc/elements/1.1/" xmlns:cc="http://creativecommons.org/ns#" xmlns:rdf="http://www.w3.org/1999/02/22-rdf-syntax-ns#">
   <cc:Work>
    <dc:type rdf:resource="http://purl.org/dc/dcmitype/StillImage"/>
    <dc:date>2025-09-05T13:56:19.637248</dc:date>
    <dc:format>image/svg+xml</dc:format>
    <dc:creator>
     <cc:Agent>
      <dc:title>Matplotlib v3.10.3, https://matplotlib.org/</dc:title>
     </cc:Agent>
    </dc:creator>
   </cc:Work>
  </rdf:RDF>
 </metadata>
 <defs>
  <style type="text/css">*{stroke-linejoin: round; stroke-linecap: butt}</style>
 </defs>
 <g id="figure_1">
  <g id="patch_1">
   <path d="M 0 108 
L 172.726296 108 
L 172.726296 0 
L 0 0 
z
" style="fill: #ffffff"/>
  </g>
  <g id="axes_1">
   <g id="PatchCollection_1">
    <path d="M 102.217261 74.90845 
L 102.277286 73.505329 
L 102.728696 71.944685 
L 105.903267 68.375481 
L 107.790697 66.746318 
L 109.574736 66.1218 
L 110.37105 69.423483 
L 109.256459 70.295829 
L 108.098563 70.292232 
L 108.254196 71.672307 
L 109.118979 71.56947 
L 108.157329 73.208444 
L 108.857491 73.50258 
L 110.545011 72.158466 
L 112.682897 73.521277 
L 113.899385 73.241524 
L 114.948018 73.887335 
L 115.34195 75.8262 
L 116.366859 76.877257 
L 118.031196 77.226057 
L 119.169866 76.059213 
L 119.180828 75.019297 
L 120.75261 74.022535 
L 120.684677 72.463387 
L 122.512194 68.734524 
L 122.991315 65.941287 
L 123.857175 66.758258 
L 124.292442 66.551136 
L 124.065106 65.76078 
L 126.350536 63.162439 
L 134.993003 60.013213 
L 138.707339 57.168922 
L 142.311689 53.052424 
L 143.427713 48.784185 
L 144.715006 49.05675 
L 144.231399 47.552977 
L 144.484074 46.136941 
L 141.86258 43.130833 
L 143.904316 43.392606 
L 144.859323 42.557661 
L 146.760157 43.812598 
L 147.516936 43.541473 
L 147.753085 44.53033 
L 148.785178 44.719464 
L 150.345644 46.131186 
L 151.397331 49.120753 
L 152.717871 49.250199 
L 154.246161 50.778424 
L 155.780564 51.089107 
L 156.750122 52.639627 
L 156.514878 54.001722 
L 157.770002 54.815096 
L 158.865543 54.80143 
L 159.435598 56.782727 
L 158.832477 57.757917 
L 160.657295 59.231485 
L 162.060145 58.829474 
L 162.208232 59.20919 
L 162.681955 58.59646 
L 164.534094 59.408401 
L 165.936582 59.127207 
L 167.520585 58.527419 
L 168.929187 57.192657 
L 170.374089 57.823361 
L 170.654084 58.464133 
L 170.943789 58.047023 
L 171.19179 58.888446 
L 174.169482 57.645728 
L 176.159636 58.556192 
L 176.569927 59.408401 
L 177.049764 59.093404 
L 178.587402 59.660105 
L 178.538158 60.152018 
L 179.168774 60.072908 
L 180.02763 60.928714 
L 180.338354 60.622346 
L 180.723306 61.242264 
L 175.968065 68.671955 
L 177.659896 69.342934 
L 178.910347 69.000611 
L 181.12461 71.447212 
L 181.147973 72.377806 
L 180.108145 72.000964 
L 179.643944 72.57486 
L 178.774661 71.184716 
L 177.0034 71.542138 
L 176.575679 70.993417 
L 175.285687 71.437143 
L 174.336613 72.869719 
L 172.276911 72.801395 
L 171.592197 73.38392 
L 167.80885 73.796 
L 164.47802 75.713293 
L 162.678721 77.56838 
L 160.778778 78.06604 
L 160.368675 81.681997 
L 158.575121 84.644956 
L 159.180044 87.418772 
L 154.92602 90.280327 
L 154.55797 91.77978 
L 155.248249 93.18359 
L 153.371676 93.543893 
L 153.639986 94.186106 
L 153.124204 94.845582 
L 155.254717 96.547843 
L 154.748464 97.607173 
L 155.561672 98.117776 
L 156.446409 100.520505 
L 157.729028 101.360488 
L 157.769641 102.185371 
L 160.37442 104.878645 
L 160.402819 105.915674 
L 158.712782 107.826497 
L 161.506623 107.83944 
L 164.988774 108.685901 
L 166.030396 111.084308 
L 165.802518 111.977515 
L 172.034294 111.892651 
L 177.422669 107.978961 
L 176.731132 108.917467 
L 177.305318 109.908481 
L 176.633548 110.907399 
L 176.613419 118.972108 
L 177.359229 118.466536 
L 179.061306 119.34751 
L 181.379441 118.335643 
L 184.011896 118.565059 
L 190.225707 129.351807 
L 189.46641 130.170929 
L 189.656187 130.799483 
L 188.162041 131.894767 
L 188.233028 136.30289 
L 187.322959 137.452115 
L 188.972377 141.102592 
L 187.958966 141.483025 
L 188.09735 142.409313 
L 186.397429 143.76781 
L 186.16811 144.995428 
L 185.452312 145.349253 
L 185.356523 146.60348 
L 186.999472 148.353927 
L 185.038607 151.088185 
L 186.743737 155.045748 
L 188.154495 155.150026 
L 189.187674 155.977783 
L 187.835682 156.848695 
L 187.771706 158.352462 
L 186.761167 158.759511 
L 185.056579 161.251418 
L 183.697757 161.93822 
L 183.393863 162.653071 
L 184.394692 163.215458 
L 184.481704 164.172007 
L 182.118644 165.459314 
L 182.582846 167.477288 
L 181.280452 169.349269 
L 178.328885 169.955487 
L 171.444973 165.502866 
L 171.334876 163.432579 
L 170.540169 162.627346 
L 166.341649 160.781298 
L 164.10243 158.660049 
L 161.729069 158.067727 
L 157.284608 155.728458 
L 155.334537 155.390624 
L 152.928445 153.411283 
L 145.95864 149.936072 
L 142.773873 146.161312 
L 139.824295 144.290354 
L 138.304504 141.329886 
L 137.321877 140.936893 
L 137.306026 139.079525 
L 136.601822 139.131949 
L 136.824005 138.391734 
L 137.575401 138.734266 
L 138.081202 136.567543 
L 137.804114 135.301633 
L 133.784069 129.399472 
L 133.841054 128.506752 
L 131.169983 126.355414 
L 130.919513 123.394947 
L 127.884676 120.930992 
L 128.250341 120.045898 
L 127.722741 118.392617 
L 124.163009 112.709922 
L 123.835502 110.503697 
L 122.858397 109.262664 
L 122.546449 107.500081 
L 121.767663 106.856435 
L 121.971539 106.299148 
L 121.584152 106.67938 
L 121.180407 106.208579 
L 121.540028 105.872247 
L 120.115227 103.415432 
L 120.149809 102.254885 
L 118.891345 101.052477 
L 118.575029 99.534828 
L 115.235046 96.045277 
L 114.213872 92.917245 
L 111.488848 89.260687 
L 103.655263 84.345747 
L 103.520294 83.291642 
L 104.0421 82.621637 
L 104.982904 83.067382 
L 105.565201 81.673056 
L 105.039291 80.374302 
L 103.184628 78.594972 
L 103.432962 77.651901 
L 104.124444 77.300303 
z
" clip-path="url(#p01867b4679)" style="fill: #eeeeee; stroke: #000000; stroke-width: 0.3"/>
    <path d="M 105.43188 87.11859 
L 105.657304 86.760646 
L 105.680855 87.412183 
L 105.512139 87.416309 
z
" clip-path="url(#p01867b4679)" style="fill: #eeeeee; stroke: #000000; stroke-width: 0.3"/>
    <path d="M 137.809525 141.683196 
L 138.12018 141.778588 
L 138.09288 141.826134 
z
" clip-path="url(#p01867b4679)" style="fill: #eeeeee; stroke: #000000; stroke-width: 0.3"/>
    <path d="M 136.071197 138.755057 
L 136.164531 138.539738 
L 136.271574 138.755405 
z
" clip-path="url(#p01867b4679)" style="fill: #eeeeee; stroke: #000000; stroke-width: 0.3"/>
    <path d="M 130.740475 126.504824 
L 131.038367 126.551417 
L 131.123904 126.661853 
z
" clip-path="url(#p01867b4679)" style="fill: #eeeeee; stroke: #000000; stroke-width: 0.3"/>
    <path d="M 70.160766 -33.480841 
L 71.801399 -33.687531 
L 71.554894 -34.346674 
L 72.100828 -34.463887 
L 72.585736 -35.647327 
L 77.220754 -33.782171 
L 78.993991 -34.676457 
L 80.651143 -33.853912 
L 81.226589 -34.149126 
L 82.366331 -32.667647 
L 83.634761 -32.721407 
L 84.274363 -32.192824 
L 86.042752 -32.843665 
L 85.809942 -33.745313 
L 86.172609 -33.671109 
L 86.616376 -32.845767 
L 86.31525 -33.195723 
L 86.220156 -32.245805 
L 86.652036 -32.57396 
L 89.237376 -28.128166 
L 92.130636 -24.951099 
L 93.69499 -24.018257 
L 93.08378 -23.664433 
L 91.715255 -24.449396 
L 91.722808 -23.697151 
L 91.059836 -23.445266 
L 91.076014 -20.684391 
L 92.606279 -19.723772 
L 91.190131 -18.573106 
L 91.709509 -16.548299 
L 90.291921 -15.591269 
L 91.046183 -15.041108 
L 91.444426 -14.022595 
L 91.366387 -13.553283 
L 90.873488 -14.850805 
L 89.605016 -15.881133 
L 90.009728 -16.41966 
L 89.462375 -17.747283 
L 87.303817 -18.269952 
L 88.655496 -17.081628 
L 88.655496 -15.932952 
L 86.650902 -16.407768 
L 85.529599 -17.435835 
L 86.652036 -18.79658 
L 86.185059 -18.75213 
L 86.652036 -19.418349 
L 86.239402 -20.576655 
L 82.249745 -23.505414 
L 79.410534 -24.292242 
L 78.596304 -26.998173 
L 77.780369 -26.998173 
L 78.216499 -27.140875 
L 74.732303 -29.192186 
L 75.448894 -27.477519 
L 77.685282 -26.039474 
L 75.924078 -24.134823 
L 74.661831 -25.892242 
L 72.126584 -26.53298 
L 70.873115 -28.835717 
L 71.115092 -30.812004 
L 72.349601 -31.550423 
L 71.874417 -31.481341 
L 72.011966 -32.769323 
z
" clip-path="url(#p01867b4679)" style="fill: #eeeeee; stroke: #000000; stroke-width: 0.3"/>
    <path d="M 84.509538 -18.272742 
L 84.609348 -18.276875 
L 84.547014 -18.174129 
z
" clip-path="url(#p01867b4679)" style="fill: #eeeeee; stroke: #000000; stroke-width: 0.3"/>
    <path d="M 75.358613 -28.04747 
L 75.975304 -27.995658 
L 76.066718 -27.810204 
z
" clip-path="url(#p01867b4679)" style="fill: #eeeeee; stroke: #000000; stroke-width: 0.3"/>
    <path d="M 62.014468 3.979409 
L 62.38352 3.681835 
L 62.37701 3.843505 
z
" clip-path="url(#p01867b4679)" style="fill: #eeeeee; stroke: #000000; stroke-width: 0.3"/>
    <path d="M 153.124204 94.845582 
L 153.639986 94.186106 
L 153.371676 93.543893 
L 155.248249 93.18359 
L 154.55797 91.77978 
L 154.92602 90.280327 
L 159.180044 87.418772 
L 158.575121 84.644956 
L 160.368675 81.681997 
L 160.778778 78.06604 
L 162.678721 77.56838 
L 164.47802 75.713293 
L 167.80885 73.796 
L 171.592197 73.38392 
L 172.276911 72.801395 
L 174.336613 72.869719 
L 175.285687 71.437143 
L 176.575679 70.993417 
L 177.0034 71.542138 
L 178.774661 71.184716 
L 179.643944 72.57486 
L 180.108145 72.000964 
L 180.816578 72.560477 
L 181.270179 72.213116 
L 185.251211 50.584969 
L 183.658939 47.458761 
L 183.718964 46.005331 
L 180.60092 43.469558 
L 180.69689 38.262807 
L 184.704338 37.255977 
L 185.963421 38.054252 
L 187.073512 37.831313 
L 186.96964 36.316754 
L 186.020747 35.129411 
L 182.10225 34.983418 
L 182.074575 30.47264 
L 184.260085 30.020111 
L 193.849108 30.377895 
L 193.035719 29.62565 
L 193.648188 28.334926 
L 195.479837 30.238735 
L 198.986784 27.477499 
L 201.12538 30.457902 
L 201.3414 34.172201 
L 202.809303 33.848582 
L 206.912903 37.165365 
L 207.961001 37.267848 
L 210.666237 35.576728 
L 211.705349 35.51093 
L 212.255094 36.351629 
L 211.780648 37.543649 
L 212.388443 37.771618 
L 213.57528 36.021178 
L 214.438803 35.926962 
L 214.89977 34.513807 
L 216.968826 33.512369 
L 217.722907 33.674179 
L 219.961604 31.865483 
L 220.351585 32.851278 
L 222.159871 31.064516 
L 222.551653 28.944595 
L 226.897863 27.399113 
L 227.16995 26.581787 
L 227.085129 25.512025 
L 222.472758 25.158917 
L 222.823378 23.463845 
L 221.255909 20.617397 
L 221.394648 17.34196 
L 218.334833 14.709996 
L 217.151412 13.056639 
L 217.300396 12.542794 
L 218.705047 13.694719 
L 221.786068 13.752612 
L 222.544461 15.339448 
L 225.090656 14.895902 
L 226.209921 15.533982 
L 227.315519 14.809062 
L 230.530973 17.577848 
L 231.503585 16.885111 
L 231.387847 14.377743 
L 232.8155 14.258901 
L 233.739591 13.247221 
L 235.648875 13.893567 
L 237.495262 13.476992 
L 238.411806 12.807628 
L 239.832086 12.747758 
L 240.181816 11.725648 
L 241.634264 11.40418 
L 241.477553 10.898065 
L 243.830555 10.799361 
L 244.397195 9.591706 
L 245.632908 9.064556 
L 246.510815 7.913355 
L 245.481948 6.156979 
L 247.505175 6.351152 
L 249.143451 5.704082 
L 250.745426 6.965497 
L 250.402171 9.474124 
L 249.515104 10.849342 
L 252.806748 11.869477 
L 252.44696 13.110935 
L 253.91325 14.942648 
L 252.810344 16.677453 
L 251.581635 17.432398 
L 251.867564 18.998915 
L 250.67156 22.4732 
L 251.229937 25.803287 
L 252.424494 26.602996 
L 252.305884 29.397847 
L 253.086924 29.552114 
L 252.847722 30.126727 
L 253.891862 30.504648 
L 255.775453 32.700971 
L 257.816291 33.238726 
L 258.737864 34.103884 
L 259.68568 33.441172 
L 260.9293 33.537183 
L 260.965962 32.343006 
L 262.30951 31.213383 
L 264.349263 31.800402 
L 264.642919 30.820355 
L 267.590954 30.463649 
L 269.272366 28.597604 
L 270.767228 28.289259 
L 271.416352 29.005188 
L 272.840054 29.318202 
L 275.098164 28.844813 
L 278.770629 29.459519 
L 279.017913 28.087891 
L 277.42852 26.655858 
L 278.65094 24.748271 
L 280.367032 25.676715 
L 282.625504 25.445142 
L 283.175431 24.832056 
L 285.689276 24.200991 
L 286.237401 25.325764 
L 287.469162 25.336188 
L 287.462694 26.178335 
L 291.421803 27.668443 
L 293.996035 25.873045 
L 295.616699 26.719506 
L 296.922139 26.005733 
L 297.686645 26.692174 
L 297.447986 27.076566 
L 299.59593 27.219324 
L 302.164409 24.926627 
L 303.79945 20.425375 
L 307.778869 14.654441 
L 308.832239 14.049977 
L 309.154947 12.894879 
L 310.187883 15.01235 
L 309.423738 12.747264 
L 309.633818 11.452387 
L 311.926086 13.973206 
L 312.001155 16.968819 
L 312.670484 15.341069 
L 312.581198 18.861578 
L 313.109549 21.232681 
L 315.45705 27.24381 
L 314.669138 27.312607 
L 314.75857 27.944849 
L 315.87239 27.706261 
L 316.936652 29.722941 
L 319.036785 29.721424 
L 320.525241 30.377651 
L 320.995223 33.255704 
L 319.140121 33.857635 
L 320.963666 34.180064 
L 317.028345 37.734544 
L 314.682437 41.175777 
L 313.366418 41.517236 
L 312.660016 42.581542 
L 310.952021 42.908563 
L 311.478994 43.241534 
L 310.071276 45.742187 
L 309.190816 46.009464 
L 309.523359 46.195203 
L 308.261961 47.874765 
L 308.249796 49.505055 
L 306.762272 50.554359 
L 306.726041 51.676141 
L 305.813322 52.131989 
L 304.614752 51.723708 
L 301.345651 53.488774 
L 304.32947 52.919673 
L 304.460795 54.151313 
L 304.852201 54.116201 
L 311.254844 50.923568 
L 313.202556 49.409357 
L 313.245005 48.774005 
L 314.341971 48.706614 
L 314.431967 49.629074 
L 313.529438 50.207799 
L 314.478665 50.92583 
L 314.483764 52.349437 
L 315.627992 54.448608 
L 315.053471 54.448608 
L 314.703804 55.557767 
L 314.062268 55.241726 
L 314.309796 55.960871 
L 315.934807 54.979063 
L 316.814954 56.116271 
L 317.100235 55.826345 
L 317.289853 56.781078 
L 318.0078 55.63712 
L 320.342169 55.061874 
L 321.090741 55.497904 
L 320.963666 56.880742 
L 321.485834 57.023437 
L 321.248662 55.588509 
L 322.434498 55.636076 
L 323.01411 56.352973 
L 322.582793 55.542076 
L 324.201642 54.734004 
L 323.999004 55.051687 
L 323.977776 55.270833 
L 324.112773 55.436748 
L 324.560504 55.611158 
L 324.486353 56.211406 
L 322.520814 60.987338 
L 323.468629 60.644181 
L 325.523323 55.911285 
L 327.376338 53.48661 
L 328.136004 53.203489 
L 326.905598 55.204269 
L 329.523065 51.98125 
L 331.113146 53.921973 
L 330.733619 52.872105 
L 331.829737 52.587273 
L 330.638532 52.523847 
L 330.734642 51.270943 
L 331.060501 50.835267 
L 331.133644 51.38236 
L 331.765212 51.496066 
L 332.542086 50.103605 
L 332.063229 49.617182 
L 332.788313 49.443335 
L 333.116606 48.626774 
L 333.020949 47.795489 
L 333.828669 46.959667 
L 334.355643 47.795489 
L 335.466444 47.158801 
L 335.42035 46.287846 
L 335.979583 47.619373 
L 336.800894 47.183913 
L 336.982228 46.378861 
L 337.593056 47.676571 
L 338.313889 48.009534 
L 337.835033 46.480606 
L 338.266913 46.480606 
L 338.167291 46.627267 
L 338.163327 46.956842 
L 338.214553 47.097839 
L 339.002749 46.480606 
L 339.268215 47.059331 
L 339.669811 46.888887 
L 339.406613 47.340204 
L 339.928774 47.097839 
L 340.075657 47.9144 
L 340.508386 46.987417 
L 340.649893 48.388938 
L 341.262619 47.197503 
L 341.588652 48.16243 
L 341.305075 48.374214 
L 341.413753 48.626774 
L 342.30525 47.307361 
L 342.557981 48.626774 
L 342.748168 48.057101 
L 343.03288 48.46255 
L 342.790902 48.9167 
L 343.149201 48.484072 
L 343.212878 48.101273 
L 343.602587 48.361758 
L 343.440993 47.934558 
L 343.840037 48.388938 
L 343.697681 48.864603 
L 343.36118 48.774005 
L 342.873824 49.204371 
L 342.790902 49.443335 
L 345.028793 48.398888 
L 344.699268 49.629074 
L 345.46511 49.371984 
L 345.743882 50.060567 
L 345.938312 49.533939 
L 346.275098 49.96544 
L 346.062709 49.217961 
L 346.609902 48.670938 
L 346.180004 50.588337 
L 347.034708 50.103605 
L 346.987161 50.540769 
L 347.295931 49.823866 
L 347.652248 50.777471 
L 348.146017 49.696855 
L 348.364311 51.062867 
L 348.924789 49.755215 
L 348.701097 51.105905 
L 349.128449 50.725374 
L 349.112034 51.2588 
L 349.318359 51.584973 
L 349.939571 50.252534 
L 350.259886 51.862513 
L 351.175784 51.194248 
L 351.274272 52.206735 
L 352.067281 51.315427 
L 351.183706 52.729974 
L 351.753413 53.113908 
L 352.689912 51.490972 
L 352.897642 52.206735 
L 352.169727 53.211304 
L 352.707461 54.496175 
L 353.823388 52.673347 
L 354.520448 52.29791 
L 355.185535 53.113908 
L 354.816768 53.340416 
L 354.80573 53.494438 
L 355.185535 53.446871 
L 355.876377 52.245242 
L 355.418741 53.874405 
L 356.139575 53.731704 
L 356.092028 53.252643 
L 356.53608 54.353473 
L 356.197033 54.596403 
L 356.990321 54.305906 
L 356.277403 54.97184 
L 357.754459 54.496175 
L 357.326544 55.157008 
L 358.226249 55.115105 
L 357.805686 55.588509 
L 358.518597 56.18479 
L 357.620311 56.543242 
L 358.4753 56.590809 
L 357.089658 58.119744 
L 356.687777 58.025737 
L 356.182316 58.214872 
L 357.284088 58.157117 
L 356.89947 59.069947 
L 357.29569 58.753962 
L 357.299091 59.198489 
L 357.374091 59.260209 
L 357.520975 58.162774 
L 358.702845 57.278265 
L 359.38491 58.595409 
L 359.163875 59.069947 
L 358.362095 58.826447 
L 358.07851 58.992932 
L 358.285961 59.751732 
L 357.351166 60.399547 
L 358.155207 60.017318 
L 357.141448 62.650479 
L 357.58607 63.585388 
L 356.47778 64.600714 
L 356.37731 65.319315 
L 358.902367 62.884349 
L 359.353778 60.096024 
L 359.90424 60.309513 
L 359.878484 59.619225 
L 361.6745 59.161115 
L 360.959606 60.935241 
L 360.4264 60.927316 
L 359.489908 61.909792 
L 360.616588 61.553608 
L 360.521494 62.318072 
L 361.176391 61.487921 
L 361.44016 61.805034 
L 362.447694 60.076777 
L 362.762125 60.690043 
L 363.832773 59.592609 
L 363.853993 60.170777 
L 364.385495 59.592609 
L 364.238612 59.834411 
L 365.097843 59.925579 
L 365.131807 59.305515 
L 365.719348 60.119244 
L 366.004059 59.449914 
L 365.481613 59.02238 
L 365.904166 58.622776 
L 370.955685 60.193427 
L 372.673871 61.506041 
L 373.986489 61.553608 
L 374.159413 62.076277 
L 376.21467 62.100624 
L 375.752235 61.331929 
L 376.947439 61.347871 
L 378.007563 62.366774 
L 380.393666 62.675961 
L 381.079125 63.33623 
L 380.587248 62.555345 
L 380.993087 62.36168 
L 382.206089 62.650479 
L 386.260278 61.743313 
L 389.834755 62.175378 
L 396.793806 65.985249 
L 399.057926 67.937182 
L 400.325549 68.083279 
L 403.440123 71.84049 
L 405.255384 72.946985 
L 406.377815 74.419856 
L 408.566656 75.184321 
L 409.329097 76.526953 
L 411.305675 76.717215 
L 413.770164 78.03493 
L 413.522811 77.710455 
L 417.576429 77.47772 
L 420.961003 78.147049 
L 422.960221 81.200953 
L 423.781532 84.074212 
L 423.866436 85.398154 
L 423.462857 85.60824 
L 424.246526 85.750942 
L 425.485278 90.469677 
L 425.105758 91.971997 
L 425.627919 90.875126 
L 425.947727 92.289673 
L 425.869896 94.640833 
L 425.006421 94.930759 
L 425.866384 95.396669 
L 425.692499 95.801449 
L 425.390184 95.36226 
L 425.157548 96.169761 
L 425.445083 96.056486 
L 425.262713 96.370154 
L 425.252774 96.664555 
L 425.822349 97.552599 
L 425.547257 98.499399 
L 425.006421 98.264966 
L 425.342637 98.644933 
L 424.939344 100.437186 
L 422.390228 106.323572 
L 419.670177 109.662872 
L 419.100462 109.852007 
L 418.948487 109.049036 
L 418.54349 110.091541 
L 418.214626 109.32764 
L 417.813878 109.230238 
L 418.435661 110.237068 
L 418.874051 110.162892 
L 414.71855 115.432609 
L 411.275669 117.316594 
L 409.639564 119.773075 
L 408.687784 119.055044 
L 409.564001 120.20118 
L 408.305711 121.824109 
L 407.802233 121.678011 
L 408.709012 120.632674 
L 408.519109 120.252143 
L 407.71223 121.725015 
L 407.331862 121.392615 
L 407.850058 121.940765 
L 407.180451 122.489479 
L 408.091757 122.061945 
L 406.048109 126.201384 
L 401.417417 132.36298 
L 399.940931 132.928686 
L 400.10649 130.885579 
L 399.290562 130.742884 
L 398.84 129.831752 
L 398.035674 131.666471 
L 397.652753 130.406518 
L 397.221443 130.980713 
L 397.706247 131.778591 
L 398.607079 131.931487 
L 397.420965 133.377172 
L 398.033128 133.814337 
L 397.055029 134.53067 
L 397.006634 135.405556 
L 396.414001 135.126951 
L 395.887027 136.98432 
L 396.608432 136.271953 
L 396.83003 138.629904 
L 396.053435 137.772567 
L 395.656088 137.941321 
L 396.729274 138.821871 
L 396.172302 139.035924 
L 396.832861 140.19734 
L 396.196646 140.303239 
L 396.172302 140.750027 
L 396.414001 140.992386 
L 396.249847 140.537109 
L 396.987951 140.231888 
L 396.760406 139.290745 
L 397.178139 139.059707 
L 397.221443 139.800388 
L 396.223813 144.468724 
L 397.652753 152.674561 
L 395.239767 161.775673 
L 395.737028 165.376022 
L 394.777611 166.679013 
L 393.55951 167.243585 
L 392.104251 169.509234 
L 391.509922 172.349086 
L 391.812181 177.181075 
L 391.222373 178.752477 
L 389.548625 179.882755 
L 388.116291 183.378346 
L 387.166772 183.141081 
L 387.189878 183.771165 
L 387.930346 183.758884 
L 387.309698 185.001845 
L 385.677411 187.102408 
L 384.45995 187.53537 
L 382.381845 191.846931 
L 382.812876 195.537885 
L 378.144264 197.39979 
L 376.059008 199.164286 
L 375.873071 200.308724 
L 376.73032 200.67227 
L 375.896844 201.188711 
L 375.73043 202.269717 
L 368.650814 202.21819 
L 367.959694 201.837652 
L 368.694397 200.556747 
L 368.343742 200.070888 
L 366.99008 200.636594 
L 367.681486 202.187044 
L 364.971617 202.866568 
L 361.887891 203.030785 
L 364.669928 202.450926 
L 362.955992 201.64739 
L 360.617436 202.738027 
L 359.461036 202.392037 
L 359.646981 201.851813 
L 359.052652 201.961671 
L 357.041548 203.146307 
L 357.383425 204.378511 
L 358.043135 203.979861 
L 358.427753 204.460056 
L 355.519775 204.824172 
L 354.658846 205.218863 
L 354.468658 205.983327 
L 352.085957 206.696257 
L 351.990863 208.177625 
L 348.946476 207.660621 
L 346.987161 208.27276 
L 346.365664 208.747861 
L 347.224611 208.415461 
L 346.845091 209.227493 
L 346.002274 209.502702 
L 345.795671 209.469288 
L 346.080946 209.227493 
L 345.920194 208.833936 
L 345.32247 208.47492 
L 344.845874 208.843559 
L 345.387565 209.525915 
L 341.488467 211.257574 
L 340.940836 212.298382 
L 336.639008 214.613296 
L 335.305726 215.577089 
L 334.366681 216.660934 
L 333.733582 216.569765 
L 334.442251 216.870456 
L 334.877811 216.712467 
L 332.638313 219.497953 
L 332.547184 218.673459 
L 333.206887 218.261783 
L 331.777948 218.807101 
L 331.829737 217.904465 
L 331.536819 218.434496 
L 330.922958 218.042637 
L 331.113146 218.569265 
L 330.638532 218.66893 
L 331.212483 219.167251 
L 330.804376 219.623662 
L 328.924312 218.764064 
L 329.14817 219.767498 
L 331.580123 220.286764 
L 330.329477 222.196801 
L 330.06854 221.860435 
L 330.03571 222.26079 
L 328.740634 222.349126 
L 330.173253 222.338368 
L 329.971178 224.551357 
L 328.988551 224.835626 
L 328.552714 223.748385 
L 328.540257 225.393399 
L 329.864198 226.310759 
L 329.339492 227.881027 
L 330.072497 228.675509 
L 329.869296 230.957016 
L 330.780603 231.301872 
L 329.780142 231.946854 
L 330.253914 232.925371 
L 329.589113 233.567521 
L 330.15882 236.21654 
L 329.669489 238.790242 
L 328.7978 240.580226 
L 328.013283 239.598314 
L 328.146305 240.495849 
L 328.83346 240.865629 
L 324.752953 243.614876 
L 321.498569 247.230513 
L 317.986071 254.31683 
L 315.163846 258.373598 
L 312.170115 261.414476 
L 307.220185 264.547086 
L 305.732661 266.185872 
L 306.186054 264.678459 
L 305.663886 263.823954 
L 307.409239 264.012525 
L 309.7577 262.063988 
L 310.112883 262.327306 
L 310.287504 261.439387 
L 311.522291 261.292726 
L 312.100492 258.604636 
L 313.128968 258.500442 
L 313.393586 258.97498 
L 313.376322 257.321462 
L 315.364223 256.160609 
L 315.134411 253.631643 
L 315.956007 254.481047 
L 316.251756 254.237554 
L 316.426656 252.966843 
L 315.905344 252.401137 
L 315.507712 253.116336 
L 313.831412 253.308866 
L 313.668677 254.108442 
L 312.989158 253.719415 
L 313.065577 252.940791 
L 311.605499 252.426618 
L 311.25428 251.157041 
L 310.952021 252.66785 
L 311.920493 253.611255 
L 312.59577 253.554628 
L 311.484086 254.322494 
L 311.350508 256.545677 
L 310.603348 255.574522 
L 310.709195 257.222932 
L 309.84798 257.834508 
L 310.144864 258.627285 
L 308.888842 259.005554 
L 308.792051 259.848731 
L 306.524537 260.37593 
L 306.215767 262.560041 
L 305.691339 261.951298 
L 305.8303 262.694247 
L 304.750319 263.217479 
L 304.542868 264.06179 
L 305.339835 264.540858 
L 304.472111 265.395356 
L 305.704645 265.244729 
L 305.095876 265.722662 
L 305.663886 265.49049 
L 305.636719 266.177947 
L 304.508342 266.987716 
L 301.785453 272.933562 
L 296.678763 277.134305 
L 295.562064 276.498222 
L 295.58147 273.169206 
L 298.544604 270.048753 
L 295.41146 268.150163 
L 294.048151 265.405112 
L 290.45278 263.793101 
L 288.155317 261.263083 
L 283.705228 259.765781 
L 281.28807 257.008504 
L 279.460734 258.582759 
L 278.370403 258.635259 
L 278.370403 256.65971 
L 272.667526 251.815419 
L 270.957722 251.843468 
L 269.789581 253.146598 
L 267.765999 253.014988 
L 267.301374 252.431093 
L 269.232463 250.973279 
L 269.466456 249.819022 
L 270.708998 249.477417 
L 272.752709 247.452254 
L 274.15592 245.26671 
L 275.47269 244.633125 
L 276.459143 242.617308 
L 279.130778 240.425299 
L 279.105975 239.819039 
L 280.576041 239.972944 
L 280.789182 239.460901 
L 280.031505 238.802864 
L 282.339214 237.737779 
L 283.219994 236.597182 
L 285.198651 236.149865 
L 284.840303 235.645733 
L 286.008444 235.358069 
L 286.76073 233.893129 
L 290.364725 233.211358 
L 291.12887 231.924059 
L 291.721927 232.214597 
L 292.609718 231.301976 
L 293.542433 231.321397 
L 294.359773 229.565919 
L 293.929896 228.242652 
L 294.71417 225.079766 
L 293.518708 223.009291 
L 292.9864 220.69215 
L 291.672321 220.469205 
L 291.550477 219.755078 
L 290.866124 220.011819 
L 291.036858 220.354859 
L 289.609922 220.357016 
L 289.248694 221.109261 
L 288.185503 220.314375 
L 288.200958 219.079778 
L 289.39283 217.353789 
L 289.144823 216.572771 
L 290.53653 211.850021 
L 290.032613 210.391553 
L 290.654062 209.707632 
L 287.914139 207.994579 
L 284.254077 209.472461 
L 282.478857 209.03881 
L 280.968533 202.402002 
L 281.06684 199.882769 
L 279.415983 197.453432 
L 276.959109 197.354902 
L 275.614128 195.966198 
L 274.893113 196.07479 
L 273.936673 197.272202 
L 273.473723 196.937791 
L 272.495179 197.4786 
L 264.634295 195.956846 
L 265.807471 188.157515 
L 265.131026 187.823821 
L 265.514893 187.308897 
L 264.953108 187.044243 
L 265.510943 186.603398 
L 264.673474 186.342342 
L 264.612371 184.535804 
L 263.434159 182.67101 
L 265.514177 181.383703 
L 263.671741 179.642609 
L 266.006235 174.975949 
L 266.515187 174.873829 
L 266.052599 173.940354 
L 267.552136 169.387324 
L 268.255178 169.120514 
L 266.415983 166.534398 
L 265.924641 164.358929 
L 264.46788 164.10362 
L 261.762456 162.299239 
L 261.198153 158.445954 
L 262.155317 156.981022 
L 262.176878 155.701627 
L 249.510249 155.531183 
L 248.914139 150.058344 
L 246.578205 147.418294 
L 248.751314 147.310419 
L 248.598915 144.156162 
L 247.398244 141.708844 
L 247.934871 139.655633 
L 247.340556 138.365453 
L 243.344069 136.046148 
L 237.855411 136.575448 
L 235.956191 134.545971 
L 235.919529 133.858808 
L 233.767266 133.694118 
L 231.94137 132.570067 
L 231.223589 132.818174 
L 229.845181 131.727204 
L 229.239903 130.396748 
L 227.55059 130.739794 
L 226.383165 129.734398 
L 224.187772 129.020987 
L 223.354254 129.643063 
L 220.806446 129.314406 
L 219.399819 128.45501 
L 219.402518 127.521535 
L 218.00775 126.581581 
L 217.662701 126.861341 
L 217.294289 126.081764 
L 215.868792 125.829336 
L 215.395062 124.137144 
L 215.062234 123.702046 
L 214.797331 124.276659 
L 214.486426 124.058752 
L 214.686449 123.179934 
L 213.628474 122.211939 
L 213.157443 120.828266 
L 213.767213 118.685877 
L 213.035953 117.499974 
L 212.721271 115.195775 
L 213.870006 113.377728 
L 213.770628 110.834044 
L 213.08286 109.758891 
L 211.789272 110.805995 
L 210.366294 110.081076 
L 204.426017 111.297901 
L 201.493076 113.726522 
L 199.690181 114.157299 
L 197.873987 115.430223 
L 196.920426 116.847692 
L 194.680463 116.579448 
L 192.944785 118.750603 
L 190.702303 119.679764 
L 189.58808 119.875377 
L 189.388232 118.859919 
L 185.275653 118.444958 
L 181.379441 118.335643 
L 179.061306 119.34751 
L 177.359229 118.466536 
L 176.613419 118.972108 
L 176.633548 110.907399 
L 177.305318 109.908481 
L 176.731132 108.917467 
L 177.422669 107.978961 
L 172.034294 111.892651 
L 165.802518 111.977515 
L 166.030396 111.084308 
L 164.988774 108.685901 
L 161.506623 107.83944 
L 158.712782 107.826497 
L 160.402819 105.915674 
L 160.37442 104.878645 
L 157.769641 102.185371 
L 157.729028 101.360488 
L 156.446409 100.520505 
L 155.561672 98.117776 
L 154.748464 97.607173 
L 155.254717 96.547843 
z
" clip-path="url(#p01867b4679)" style="fill: #eeeeee; stroke: #000000; stroke-width: 0.3"/>
    <path d="M 314.594987 52.340377 
L 314.669138 49.913343 
L 316.28855 50.588337 
L 315.892324 50.147776 
L 316.866465 49.586036 
L 315.564594 49.973929 
L 314.669138 49.443335 
L 315.053471 46.195203 
L 315.423657 46.807342 
L 316.366944 47.071793 
L 315.433276 46.695786 
L 315.338182 44.860503 
L 316.124118 43.692288 
L 317.620984 43.090336 
L 322.591856 44.033177 
L 324.443056 44.147565 
L 324.44645 43.640755 
L 325.703884 43.331568 
L 331.12079 44.163987 
L 331.520404 44.864469 
L 330.638532 47.530473 
L 330.111559 47.097839 
L 330.422304 48.427445 
L 329.468548 49.322155 
L 329.621372 49.895216 
L 328.397901 50.725374 
L 327.685553 50.298403 
L 328.554126 51.181785 
L 328.298565 52.206735 
L 327.538954 51.372054 
L 327.206126 51.348271 
L 327.206126 51.917943 
L 328.25526 52.444571 
L 326.679437 53.014807 
L 325.761621 52.015903 
L 325.540015 53.30417 
L 325.967089 53.395338 
L 325.587562 53.636006 
L 324.443056 52.682407 
L 324.644845 53.750109 
L 324.055593 53.735044 
L 323.683161 52.776971 
L 323.441462 52.776971 
L 323.250996 54.352903 
L 322.349308 54.666619 
L 321.960732 53.351737 
L 321.736582 54.9305 
L 320.165565 54.501268 
L 319.985567 53.874405 
L 319.10341 54.734004 
L 318.620026 54.45597 
L 318.528611 53.636569 
L 318.244178 53.470655 
L 318.445404 53.231691 
L 318.385971 52.682407 
L 318.149084 53.470655 
L 318.338709 54.496175 
L 318.049748 53.874405 
L 318.200881 54.567526 
L 317.631167 54.686437 
L 318.115977 54.904455 
L 317.36344 55.095852 
L 315.981478 54.686437 
L 316.092701 54.076566 
z
" clip-path="url(#p01867b4679)" style="fill: #eeeeee; stroke: #000000; stroke-width: 0.3"/>
    <path d="M 306.755761 52.589534 
L 307.075848 51.096845 
L 308.469134 49.988089 
L 308.526015 48.24737 
L 309.511758 46.771666 
L 310.80995 46.057031 
L 310.572216 46.9121 
L 311.081641 45.964729 
L 311.93238 46.627267 
L 311.309186 49.488634 
L 308.073477 52.236183 
z
" clip-path="url(#p01867b4679)" style="fill: #eeeeee; stroke: #000000; stroke-width: 0.3"/>
    <path d="M 317.553906 40.905668 
L 319.43539 40.809399 
L 322.614426 39.666708 
L 323.448173 39.893501 
L 321.106307 42.429502 
L 320.150284 42.722546 
L 319.505013 42.140133 
L 317.781166 42.025181 
z
" clip-path="url(#p01867b4679)" style="fill: #eeeeee; stroke: #000000; stroke-width: 0.3"/>
    <path d="M 318.010693 39.474699 
L 318.385971 38.283264 
L 319.344539 38.377828 
L 319.724914 37.8512 
L 319.884533 38.804235 
L 318.445599 39.84315 
z
" clip-path="url(#p01867b4679)" style="fill: #eeeeee; stroke: #000000; stroke-width: 0.3"/>
    <path d="M 312.957178 43.748915 
L 313.593038 42.438541 
L 314.853782 42.032585 
L 315.624027 42.520671 
L 315.480823 43.430668 
L 313.758958 44.654946 
z
" clip-path="url(#p01867b4679)" style="fill: #eeeeee; stroke: #000000; stroke-width: 0.3"/>
    <path d="M 396.371546 136.001844 
L 397.078803 135.559586 
L 397.411624 135.969564 
L 397.37225 137.488333 
L 396.914371 136.281013 
z
" clip-path="url(#p01867b4679)" style="fill: #eeeeee; stroke: #000000; stroke-width: 0.3"/>
    <path d="M 425.317431 96.658285 
L 425.536379 95.916199 
L 425.747954 96.2044 
L 425.587689 96.724237 
z
" clip-path="url(#p01867b4679)" style="fill: #eeeeee; stroke: #000000; stroke-width: 0.3"/>
    <path d="M 398.175484 133.745247 
L 398.991133 132.548156 
L 398.797266 131.98245 
L 399.559992 132.722566 
z
" clip-path="url(#p01867b4679)" style="fill: #eeeeee; stroke: #000000; stroke-width: 0.3"/>
    <path d="M 363.771635 59.193534 
L 363.893333 58.284525 
L 364.50606 58.025737 
L 364.453922 59.054507 
z
" clip-path="url(#p01867b4679)" style="fill: #eeeeee; stroke: #000000; stroke-width: 0.3"/>
    <path d="M 359.360566 203.546662 
L 360.278668 202.875628 
L 361.212051 203.433972 
L 359.634531 203.936823 
z
" clip-path="url(#p01867b4679)" style="fill: #eeeeee; stroke: #000000; stroke-width: 0.3"/>
    <path d="M 357.754459 63.648813 
L 357.905307 61.838441 
L 358.569824 61.173077 
L 358.454921 62.877551 
z
" clip-path="url(#p01867b4679)" style="fill: #eeeeee; stroke: #000000; stroke-width: 0.3"/>
    <path d="M 335.752066 46.361632 
L 336.453634 46.385472 
L 336.572501 47.177115 
L 336.168359 47.292637 
z
" clip-path="url(#p01867b4679)" style="fill: #eeeeee; stroke: #000000; stroke-width: 0.3"/>
    <path d="M 331.917757 48.988621 
L 332.736516 48.057101 
L 332.68812 49.393506 
L 331.956248 49.457495 
z
" clip-path="url(#p01867b4679)" style="fill: #eeeeee; stroke: #000000; stroke-width: 0.3"/>
    <path d="M 330.878528 50.45809 
L 331.160693 49.866903 
L 331.734643 49.776305 
L 331.768606 50.740098 
z
" clip-path="url(#p01867b4679)" style="fill: #eeeeee; stroke: #000000; stroke-width: 0.3"/>
    <path d="M 330.170992 235.917547 
L 330.353814 233.543744 
L 331.069842 233.046557 
L 331.26003 234.260641 
z
" clip-path="url(#p01867b4679)" style="fill: #eeeeee; stroke: #000000; stroke-width: 0.3"/>
    <path d="M 329.200815 225.442664 
L 330.283628 224.435834 
L 330.690322 224.914339 
L 330.03571 226.202035 
z
" clip-path="url(#p01867b4679)" style="fill: #eeeeee; stroke: #000000; stroke-width: 0.3"/>
    <path d="M 324.059286 55.351807 
L 324.687579 54.340447 
L 325.134176 54.591302 
L 324.581447 55.542076 
z
" clip-path="url(#p01867b4679)" style="fill: #eeeeee; stroke: #000000; stroke-width: 0.3"/>
    <path d="M 321.347721 43.072787 
L 323.683161 41.759602 
L 324.719838 42.422704 
L 323.9141 43.246064 
z
" clip-path="url(#p01867b4679)" style="fill: #eeeeee; stroke: #000000; stroke-width: 0.3"/>
    <path d="M 318.210723 37.002965 
L 318.613356 36.376617 
L 320.072266 36.144953 
L 319.462558 37.096923 
z
" clip-path="url(#p01867b4679)" style="fill: #eeeeee; stroke: #000000; stroke-width: 0.3"/>
    <path d="M 316.587409 40.903399 
L 317.631167 38.041469 
L 317.976981 40.206828 
L 317.267185 41.186611 
z
" clip-path="url(#p01867b4679)" style="fill: #eeeeee; stroke: #000000; stroke-width: 0.3"/>
    <path d="M 316.538311 28.428231 
L 317.021396 27.666578 
L 317.99745 28.659359 
L 317.266496 29.391989 
z
" clip-path="url(#p01867b4679)" style="fill: #eeeeee; stroke: #000000; stroke-width: 0.3"/>
    <path d="M 316.401234 27.421255 
L 316.958867 27.137765 
L 317.294047 27.555314 
L 316.718323 27.691231 
z
" clip-path="url(#p01867b4679)" style="fill: #eeeeee; stroke: #000000; stroke-width: 0.3"/>
    <path d="M 315.770062 41.859266 
L 315.934779 41.078944 
L 316.771935 41.246327 
L 317.137057 42.355452 
z
" clip-path="url(#p01867b4679)" style="fill: #eeeeee; stroke: #000000; stroke-width: 0.3"/>
    <path d="M 312.527843 48.104669 
L 312.765293 47.059331 
L 314.33263 46.24277 
L 314.317349 47.337372 
z
" clip-path="url(#p01867b4679)" style="fill: #eeeeee; stroke: #000000; stroke-width: 0.3"/>
    <path d="M 310.408632 45.553616 
L 311.388143 43.88255 
L 312.076718 43.331568 
L 312.066535 44.48167 
z
" clip-path="url(#p01867b4679)" style="fill: #eeeeee; stroke: #000000; stroke-width: 0.3"/>
    <path d="M 467.075716 185.076592 
L 467.099489 185.082256 
L 467.094113 185.100375 
z
" clip-path="url(#p01867b4679)" style="fill: #eeeeee; stroke: #000000; stroke-width: 0.3"/>
    <path d="M 463.822181 185.427682 
L 463.849634 185.355767 
L 464.040385 185.479779 
z
" clip-path="url(#p01867b4679)" style="fill: #eeeeee; stroke: #000000; stroke-width: 0.3"/>
    <path d="M 463.390864 36.545941 
L 463.76699 36.212692 
L 463.816804 36.422493 
z
" clip-path="url(#p01867b4679)" style="fill: #eeeeee; stroke: #000000; stroke-width: 0.3"/>
    <path d="M 442.159377 69.342106 
L 442.339375 69.143904 
L 442.598052 69.228281 
z
" clip-path="url(#p01867b4679)" style="fill: #eeeeee; stroke: #000000; stroke-width: 0.3"/>
    <path d="M 374.530726 60.978842 
L 375.189024 60.992432 
L 375.232043 61.551347 
z
" clip-path="url(#p01867b4679)" style="fill: #eeeeee; stroke: #000000; stroke-width: 0.3"/>
    <path d="M 374.087376 61.396308 
L 374.788081 61.389085 
L 375.088887 61.648951 
z
" clip-path="url(#p01867b4679)" style="fill: #eeeeee; stroke: #000000; stroke-width: 0.3"/>
    <path d="M 364.614682 58.950869 
L 365.099144 58.85451 
L 364.879236 59.218536 
z
" clip-path="url(#p01867b4679)" style="fill: #eeeeee; stroke: #000000; stroke-width: 0.3"/>
    <path d="M 363.141485 59.108886 
L 363.605165 59.386934 
L 363.241114 59.839985 
z
" clip-path="url(#p01867b4679)" style="fill: #eeeeee; stroke: #000000; stroke-width: 0.3"/>
    <path d="M 354.826957 51.94172 
L 355.136854 51.125159 
L 355.755812 51.584973 
z
" clip-path="url(#p01867b4679)" style="fill: #eeeeee; stroke: #000000; stroke-width: 0.3"/>
    <path d="M 351.808034 208.599495 
L 352.813023 207.416557 
L 353.277447 209.132358 
z
" clip-path="url(#p01867b4679)" style="fill: #eeeeee; stroke: #000000; stroke-width: 0.3"/>
    <path d="M 345.079073 208.989656 
L 345.265018 208.799958 
L 345.973117 209.292045 
z
" clip-path="url(#p01867b4679)" style="fill: #eeeeee; stroke: #000000; stroke-width: 0.3"/>
    <path d="M 334.78696 216.569765 
L 335.261858 215.710167 
L 337.929556 214.133665 
z
" clip-path="url(#p01867b4679)" style="fill: #eeeeee; stroke: #000000; stroke-width: 0.3"/>
    <path d="M 334.213009 47.059331 
L 334.877811 47.0112 
L 334.355643 47.439298 
z
" clip-path="url(#p01867b4679)" style="fill: #eeeeee; stroke: #000000; stroke-width: 0.3"/>
    <path d="M 331.730846 219.27473 
L 332.316112 218.73669 
L 332.067611 219.717155 
z
" clip-path="url(#p01867b4679)" style="fill: #eeeeee; stroke: #000000; stroke-width: 0.3"/>
    <path d="M 323.482074 53.995515 
L 324.187794 54.162432 
L 323.599432 54.496634 
z
" clip-path="url(#p01867b4679)" style="fill: #eeeeee; stroke: #000000; stroke-width: 0.3"/>
    <path d="M 319.483883 35.681736 
L 320.693679 34.910794 
L 320.431886 35.579038 
z
" clip-path="url(#p01867b4679)" style="fill: #eeeeee; stroke: #000000; stroke-width: 0.3"/>
    <path d="M 318.648237 40.641995 
L 319.393414 40.002037 
L 319.029481 40.533988 
z
" clip-path="url(#p01867b4679)" style="fill: #eeeeee; stroke: #000000; stroke-width: 0.3"/>
    <path d="M 104.474613 57.433422 
L 105.465315 57.686539 
L 106.391256 56.574568 
L 105.569597 53.407229 
L 106.343897 51.705651 
L 105.193791 49.626096 
L 105.842352 48.940205 
L 107.556726 48.702919 
L 108.397727 46.572393 
L 108.885793 46.933009 
L 109.440769 46.963236 
L 108.795797 46.707573 
L 108.067382 45.008952 
L 111.163322 41.729027 
L 111.583378 39.812193 
L 110.767444 37.5188 
L 110.993006 36.676187 
L 113.914854 35.371784 
L 113.815232 35.942298 
L 114.19928 36.473463 
L 114.075321 35.494097 
L 117.322916 34.702447 
L 118.07772 33.883339 
L 118.533652 34.563997 
L 118.970066 33.704962 
L 119.159684 33.752529 
L 119.368268 33.386152 
L 119.777502 33.467411 
L 119.296948 33.175217 
L 119.667412 32.374792 
L 124.596524 35.944942 
L 126.488552 36.724158 
L 127.495676 36.488632 
L 127.896437 37.371047 
L 129.131078 37.826275 
L 129.622058 39.657989 
L 135.40922 40.851803 
L 136.504037 40.584269 
L 136.445813 39.558742 
L 137.252011 39.143065 
L 138.970078 39.825553 
L 140.608715 41.658706 
L 144.325568 43.099911 
L 141.823582 43.251651 
L 144.484074 46.136941 
L 144.231399 47.552977 
L 144.716627 49.103489 
L 143.470669 48.723056 
L 142.311689 53.052424 
L 138.707339 57.168922 
L 134.580376 60.263483 
L 126.350536 63.162439 
L 124.065106 65.76078 
L 124.292442 66.551136 
L 123.857175 66.758258 
L 122.991315 65.941287 
L 122.512194 68.734524 
L 120.684677 72.463387 
L 120.75261 74.022535 
L 119.180828 75.019297 
L 119.169866 76.059213 
L 118.031196 77.226057 
L 116.366859 76.877257 
L 115.34195 75.8262 
L 114.948018 73.887335 
L 113.899385 73.241524 
L 112.682897 73.521277 
L 110.545011 72.158466 
L 108.857491 73.50258 
L 108.096407 73.062451 
L 109.118979 71.56947 
L 108.254196 71.672307 
L 108.098563 70.292232 
L 109.256459 70.295829 
L 110.37105 69.423483 
L 109.672682 66.197312 
L 109.148316 65.794981 
L 111.846013 64.604109 
L 113.423255 60.404077 
L 112.434117 57.391519 
L 113.150716 56.30654 
L 112.271953 57.078366 
L 112.243081 60.052994 
L 111.078196 60.288561 
L 112.009596 59.640747 
L 111.281682 59.569396 
L 111.868089 58.40967 
L 111.432245 58.543312 
L 110.302449 60.354248 
L 109.575668 60.534323 
L 109.743495 61.353152 
L 106.953257 59.165075 
L 105.165733 58.490081 
z
" clip-path="url(#p01867b4679)" style="fill: #eeeeee; stroke: #000000; stroke-width: 0.3"/>
    <path d="M 30.814632 42.454135 
L 31.552451 41.616901 
L 32.760362 41.385863 
L 33.80412 43.944841 
L 35.317115 45.292567 
L 35.079951 46.385472 
L 36.322953 47.439298 
L 35.507303 49.106969 
L 31.979803 49.296103 
L 31.77094 47.976691 
L 34.407791 46.408121 
L 32.403197 44.316882 
L 32.066974 42.554078 
z
" clip-path="url(#p01867b4679)" style="fill: #eeeeee; stroke: #000000; stroke-width: 0.3"/>
    <path d="M 109.670762 63.35888 
L 110.055095 61.315772 
L 111.103951 60.883708 
L 112.165821 61.367869 
L 110.609091 63.375816 
z
" clip-path="url(#p01867b4679)" style="fill: #eeeeee; stroke: #000000; stroke-width: 0.3"/>
    <path d="M 38.179244 47.097839 
L 38.763384 45.930758 
L 40.631569 46.100639 
L 40.584022 47.097839 
L 39.622337 47.761511 
z
" clip-path="url(#p01867b4679)" style="fill: #eeeeee; stroke: #000000; stroke-width: 0.3"/>
    <path d="M 118.507618 33.401154 
L 119.159684 32.793267 
L 119.176384 33.50818 
L 118.775629 33.752529 
z
" clip-path="url(#p01867b4679)" style="fill: #eeeeee; stroke: #000000; stroke-width: 0.3"/>
    <path d="M 112.342592 60.634363 
L 112.774945 59.653035 
L 113.102327 60.043231 
L 112.374322 60.792582 
z
" clip-path="url(#p01867b4679)" style="fill: #eeeeee; stroke: #000000; stroke-width: 0.3"/>
    <path d="M 44.540564 48.797789 
L 46.779213 47.126152 
L 47.022039 47.643157 
L 46.000643 48.752483 
z
" clip-path="url(#p01867b4679)" style="fill: #eeeeee; stroke: #000000; stroke-width: 0.3"/>
    <path d="M 38.321885 51.442271 
L 38.684426 50.821636 
L 39.318944 51.08439 
L 38.961215 51.720876 
z
" clip-path="url(#p01867b4679)" style="fill: #eeeeee; stroke: #000000; stroke-width: 0.3"/>
    <path d="M 35.886823 44.2427 
L 36.56068 43.383101 
L 38.036888 44.337834 
L 37.759536 44.928458 
z
" clip-path="url(#p01867b4679)" style="fill: #eeeeee; stroke: #000000; stroke-width: 0.3"/>
    <path d="M 30.361246 44.337834 
L 31.841975 44.147565 
L 32.221502 45.506619 
L 30.792841 45.530403 
z
" clip-path="url(#p01867b4679)" style="fill: #eeeeee; stroke: #000000; stroke-width: 0.3"/>
    <path d="M 43.657559 51.822809 
L 43.8002 51.680107 
L 44.656601 52.039123 
z
" clip-path="url(#p01867b4679)" style="fill: #eeeeee; stroke: #000000; stroke-width: 0.3"/>
    <path d="M 38.458015 39.84306 
L 39.129327 40.192167 
L 38.804991 40.494555 
z
" clip-path="url(#p01867b4679)" style="fill: #eeeeee; stroke: #000000; stroke-width: 0.3"/>
    <path d="M 36.365965 38.377828 
L 36.701624 37.967286 
L 36.676717 38.50241 
z
" clip-path="url(#p01867b4679)" style="fill: #eeeeee; stroke: #000000; stroke-width: 0.3"/>
    <path d="M 29.293993 32.651978 
L 29.325125 32.650001 
L 29.304746 32.673785 
z
" clip-path="url(#p01867b4679)" style="fill: #eeeeee; stroke: #000000; stroke-width: 0.3"/>
    <path d="M 29.271068 32.773442 
L 29.370975 32.772315 
L 29.323713 32.835733 
z
" clip-path="url(#p01867b4679)" style="fill: #eeeeee; stroke: #000000; stroke-width: 0.3"/>
    <path d="M 28.00967 30.876717 
L 28.013634 30.773943 
L 28.057217 30.865681 
z
" clip-path="url(#p01867b4679)" style="fill: #eeeeee; stroke: #000000; stroke-width: 0.3"/>
    <path d="M 118.326222 30.955305 
L 119.546611 29.680015 
L 121.4581 29.954021 
L 121.637757 29.031811 
L 121.202198 28.243842 
L 120.80168 28.557426 
L 120.540485 27.117815 
L 121.438236 25.424378 
L 121.543234 25.783679 
L 123.024533 23.929636 
L 123.659336 24.66784 
L 123.71372 23.820982 
L 123.986218 24.699549 
L 124.509797 25.00987 
L 124.838091 24.847629 
L 124.762771 23.905526 
L 125.780099 23.745018 
L 126.096944 24.402824 
L 126.546372 24.501076 
L 127.097683 24.32185 
L 127.159377 24.07382 
L 126.736274 23.119087 
L 127.595506 22.929389 
L 127.354092 22.592459 
L 127.962576 22.387466 
L 127.447774 22.049966 
L 128.076345 21.956251 
L 127.977572 21.515976 
L 127.366264 21.605446 
L 129.050208 19.897432 
L 128.618203 19.767888 
L 129.205292 19.002012 
L 130.168396 19.253722 
L 130.069337 17.919022 
L 130.548479 18.203855 
L 130.14858 17.66816 
L 131.563935 16.762129 
L 130.989985 16.306845 
L 131.512716 16.375934 
L 131.34064 15.818439 
L 132.167043 15.107485 
L 130.625746 15.62959 
L 130.298579 14.736577 
L 130.928569 14.67995 
L 131.070646 14.053373 
L 130.548479 13.768818 
L 129.978771 15.01235 
L 129.35982 14.317539 
L 129.418968 13.266823 
L 130.307072 13.107985 
L 130.742909 12.675635 
L 129.693497 12.105685 
L 130.211408 11.241835 
L 130.120849 9.28565 
L 130.591783 9.62258 
L 129.961793 8.578099 
L 129.736794 4.75916 
L 128.497194 4.06293 
L 130.676124 2.454725 
L 129.017657 -0.708467 
L 129.024446 -1.442919 
L 129.499345 -1.058422 
L 129.736794 -1.485957 
L 129.984433 -3.33398 
L 129.526234 -4.222463 
L 128.644641 -4.012662 
L 128.260308 -5.157093 
L 127.543717 -5.303761 
L 127.761072 -6.461497 
L 126.155696 -7.989047 
L 126.681925 -9.669131 
L 127.300508 -10.043462 
L 127.07119 -11.263878 
L 128.35255 -10.029796 
L 130.023536 -11.274309 
L 129.744264 -11.741763 
L 130.297063 -12.630294 
L 131.250985 -12.888831 
L 128.987304 -16.607271 
L 129.367937 -17.683141 
L 129.940566 -17.968976 
L 130.475747 -16.761405 
L 132.650712 -15.166219 
L 132.786279 -14.208091 
L 133.553248 -14.2616 
L 133.03307 -12.821008 
L 134.075131 -12.779669 
L 133.952869 -16.210986 
L 132.754013 -17.107116 
L 137.147256 -19.906192 
L 138.172617 -21.98837 
L 139.732866 -23.336611 
L 140.650412 -22.994351 
L 141.980599 -23.420939 
L 142.288486 -24.591562 
L 141.392842 -25.145279 
L 142.606325 -28.902824 
L 141.403693 -28.16357 
L 142.710475 -29.447857 
L 142.653872 -29.952406 
L 142.273782 -29.999973 
L 142.800477 -30.622021 
L 142.866414 -30.252533 
L 142.895286 -30.716877 
L 142.683307 -31.239538 
L 144.56196 -32.146141 
L 144.437431 -32.762246 
L 147.379783 -34.949635 
L 151.181186 -34.127361 
L 149.833673 -34.043715 
L 149.901884 -33.148441 
L 149.100382 -33.266795 
L 149.090199 -32.669095 
L 149.327927 -33.010269 
L 149.470282 -32.530638 
L 149.777355 -32.549328 
L 149.708017 -33.10484 
L 150.504706 -32.443436 
L 152.185813 -36.577782 
L 158.174408 -36.232356 
L 162.007277 -39.112691 
L 165.33383 -40.351408 
L 166.199009 -42.926529 
L 167.374647 -42.920016 
L 167.05824 -42.494743 
L 167.597386 -42.303062 
L 168.060113 -42.926529 
L 167.438045 -43.111983 
L 169.02378 -43.999331 
L 169.294622 -43.686749 
L 169.730466 -44.118813 
L 168.966328 -44.066716 
L 169.419714 -44.403645 
L 172.297694 -43.523659 
L 173.326734 -41.80163 
L 173.158338 -41.254899 
L 171.269426 -39.838794 
L 167.228731 -38.70288 
L 165.305786 -35.264374 
L 163.690512 -35.027046 
L 162.413102 -33.181855 
L 160.799985 -30.240467 
L 160.30865 -25.921168 
L 157.487489 -21.472062 
L 158.731833 -21.476731 
L 160.140435 -22.325168 
L 160.518911 -20.993453 
L 161.66154 -21.062675 
L 162.465581 -17.84495 
L 164.426265 -15.78437 
L 164.828105 -14.034459 
L 163.746941 -12.876606 
L 163.833925 -9.724151 
L 165.729194 -9.010378 
L 166.48004 -6.956805 
L 167.206446 -6.442605 
L 169.803679 -6.715886 
L 172.838697 -6.092732 
L 176.182464 -7.048502 
L 178.854996 -5.923728 
L 180.175536 -6.162128 
L 184.943895 -0.245382 
L 185.72458 -0.482891 
L 186.317818 0.043897 
L 187.604388 -0.910613 
L 190.566082 -0.340315 
L 195.138015 -0.910613 
L 196.186829 -1.575657 
L 198.81066 -0.77217 
L 198.523834 -0.191448 
L 199.001877 0.756591 
L 197.592197 2.104665 
L 197.648626 3.79488 
L 196.135429 5.202469 
L 196.424056 7.122818 
L 195.854001 10.815546 
L 197.546187 16.178888 
L 198.463809 16.484714 
L 199.787945 18.808695 
L 196.107399 22.272549 
L 195.986988 22.943173 
L 197.582133 22.778483 
L 197.936891 23.629614 
L 200.620747 25.694334 
L 200.429168 26.587179 
L 202.750356 32.961846 
L 202.809303 33.848582 
L 201.3414 34.172201 
L 201.12538 30.457902 
L 198.986784 27.477499 
L 195.479837 30.238735 
L 193.648188 28.334926 
L 193.035719 29.62565 
L 193.849108 30.377895 
L 184.260085 30.020111 
L 182.074575 30.47264 
L 182.10225 34.983418 
L 186.020747 35.129411 
L 186.96964 36.316754 
L 187.073512 37.831313 
L 185.963421 38.054252 
L 184.704338 37.255977 
L 180.69689 38.262807 
L 180.60092 43.469558 
L 183.718964 46.005331 
L 183.658939 47.458761 
L 185.251211 50.584969 
L 181.317977 71.834117 
L 178.910347 69.000611 
L 177.659896 69.342934 
L 175.968065 68.671955 
L 180.722047 61.248019 
L 180.338354 60.622346 
L 180.02763 60.928714 
L 177.049764 59.093404 
L 176.569927 59.408401 
L 174.782668 57.740654 
L 171.19179 58.888446 
L 170.943789 58.047023 
L 170.654084 58.464133 
L 170.374089 57.823361 
L 168.929187 57.192657 
L 167.520585 58.527419 
L 165.936582 59.127207 
L 164.534094 59.408401 
L 162.681955 58.59646 
L 162.208232 59.20919 
L 162.060145 58.829474 
L 160.657295 59.231485 
L 158.832477 57.757917 
L 159.435598 56.782727 
L 158.865543 54.80143 
L 157.770002 54.815096 
L 156.514878 54.001722 
L 156.750122 52.639627 
L 155.780564 51.089107 
L 154.246161 50.778424 
L 152.717871 49.250199 
L 151.397331 49.120753 
L 150.345644 46.131186 
L 148.785178 44.719464 
L 147.753085 44.53033 
L 147.516936 43.541473 
L 146.760157 43.812598 
L 145.31184 42.657625 
L 144.325568 43.099911 
L 141.937886 41.806133 
L 140.804606 41.768015 
L 138.970078 39.825553 
L 137.252011 39.143065 
L 136.445813 39.558742 
L 136.504037 40.584269 
L 135.40922 40.851803 
L 129.622058 39.657989 
L 129.131078 37.826275 
L 127.896437 37.371047 
L 127.495676 36.488632 
L 126.488552 36.724158 
L 124.596524 35.944942 
L 119.667412 32.374792 
L 119.44468 31.510664 
z
" clip-path="url(#p01867b4679)" style="fill: #eeeeee; stroke: #000000; stroke-width: 0.3"/>
    <path d="M 126.110527 23.59391 
L 126.471087 23.998225 
L 126.926455 24.306563 
L 126.209864 24.306563 
z
" clip-path="url(#p01867b4679)" style="fill: #eeeeee; stroke: #000000; stroke-width: 0.3"/>
    <path d="M 142.189065 -29.448191 
L 142.292221 -29.857536 
L 142.573983 -29.668088 
z
" clip-path="url(#p01867b4679)" style="fill: #eeeeee; stroke: #000000; stroke-width: 0.3"/>
    <path d="M 128.564264 13.096942 
L 129.408779 12.149 
L 130.496689 12.723202 
z
" clip-path="url(#p01867b4679)" style="fill: #eeeeee; stroke: #000000; stroke-width: 0.3"/>
    <path d="M 126.24807 23.396565 
L 126.49486 23.39996 
L 127.106738 24.242003 
z
" clip-path="url(#p01867b4679)" style="fill: #eeeeee; stroke: #000000; stroke-width: 0.3"/>
    <path d="M 123.93673 23.693554 
L 124.762243 24.680866 
L 124.496214 24.928889 
z
" clip-path="url(#p01867b4679)" style="fill: #eeeeee; stroke: #000000; stroke-width: 0.3"/>
    <path d="M 123.899025 21.942119 
L 124.009379 21.857825 
L 124.269037 21.760597 
z
" clip-path="url(#p01867b4679)" style="fill: #eeeeee; stroke: #000000; stroke-width: 0.3"/>
    <path d="M 110.888293 -52.125322 
L 110.898483 -52.117111 
L 110.891687 -52.115413 
z
" clip-path="url(#p01867b4679)" style="fill: #eeeeee; stroke: #000000; stroke-width: 0.3"/>
    <path d="M 101.879369 -50.479167 
L 102.023985 -50.705396 
L 102.156436 -50.529566 
z
" clip-path="url(#p01867b4679)" style="fill: #eeeeee; stroke: #000000; stroke-width: 0.3"/>
    <path d="M 100.381933 14.602935 
L 100.515233 14.58085 
L 100.528816 14.688725 
z
" clip-path="url(#p01867b4679)" style="fill: #eeeeee; stroke: #000000; stroke-width: 0.3"/>
    <path d="M 99.575339 -44.640911 
L 99.578455 -45.063915 
L 99.758739 -45.258999 
z
" clip-path="url(#p01867b4679)" style="fill: #eeeeee; stroke: #000000; stroke-width: 0.3"/>
   </g>
   <g id="PatchCollection_2">
    <path d="M 104.474613 57.433422 
L 105.465315 57.686539 
L 106.391256 56.574568 
L 105.569597 53.407229 
L 106.343897 51.705651 
L 105.193791 49.626096 
L 105.842352 48.940205 
L 107.556726 48.702919 
L 108.397727 46.572393 
L 108.885793 46.933009 
L 109.440769 46.963236 
L 108.795797 46.707573 
L 108.067382 45.008952 
L 111.163322 41.729027 
L 111.583378 39.812193 
L 110.767444 37.5188 
L 110.993006 36.676187 
L 113.914854 35.371784 
L 113.815232 35.942298 
L 114.19928 36.473463 
L 114.075321 35.494097 
L 117.322916 34.702447 
L 118.07772 33.883339 
L 118.533652 34.563997 
L 118.970066 33.704962 
L 119.159684 33.752529 
L 119.368268 33.386152 
L 119.777502 33.467411 
L 119.296948 33.175217 
L 119.667412 32.374792 
L 124.596524 35.944942 
L 126.488552 36.724158 
L 127.495676 36.488632 
L 127.896437 37.371047 
L 129.131078 37.826275 
L 129.622058 39.657989 
L 135.40922 40.851803 
L 136.504037 40.584269 
L 136.445813 39.558742 
L 137.252011 39.143065 
L 138.970078 39.825553 
L 140.608715 41.658706 
L 144.325568 43.099911 
L 141.823582 43.251651 
L 144.484074 46.136941 
L 144.231399 47.552977 
L 144.716627 49.103489 
L 143.470669 48.723056 
L 142.311689 53.052424 
L 138.707339 57.168922 
L 134.580376 60.263483 
L 126.350536 63.162439 
L 124.065106 65.76078 
L 124.292442 66.551136 
L 123.857175 66.758258 
L 122.991315 65.941287 
L 122.512194 68.734524 
L 120.684677 72.463387 
L 120.75261 74.022535 
L 119.180828 75.019297 
L 119.169866 76.059213 
L 118.031196 77.226057 
L 116.366859 76.877257 
L 115.34195 75.8262 
L 114.948018 73.887335 
L 113.899385 73.241524 
L 112.682897 73.521277 
L 110.545011 72.158466 
L 108.857491 73.50258 
L 108.096407 73.062451 
L 109.118979 71.56947 
L 108.254196 71.672307 
L 108.098563 70.292232 
L 109.256459 70.295829 
L 110.37105 69.423483 
L 109.672682 66.197312 
L 109.148316 65.794981 
L 111.846013 64.604109 
L 113.423255 60.404077 
L 112.434117 57.391519 
L 113.150716 56.30654 
L 112.271953 57.078366 
L 112.243081 60.052994 
L 111.078196 60.288561 
L 112.009596 59.640747 
L 111.281682 59.569396 
L 111.868089 58.40967 
L 111.432245 58.543312 
L 110.302449 60.354248 
L 109.575668 60.534323 
L 109.743495 61.353152 
L 106.953257 59.165075 
L 105.165733 58.490081 
z
" clip-path="url(#p01867b4679)" style="fill: #ff6b6b; stroke: #dd0000; stroke-width: 0.5"/>
    <path d="M 30.814632 42.454135 
L 31.552451 41.616901 
L 32.760362 41.385863 
L 33.80412 43.944841 
L 35.317115 45.292567 
L 35.079951 46.385472 
L 36.322953 47.439298 
L 35.507303 49.106969 
L 31.979803 49.296103 
L 31.77094 47.976691 
L 34.407791 46.408121 
L 32.403197 44.316882 
L 32.066974 42.554078 
z
" clip-path="url(#p01867b4679)" style="fill: #ff6b6b; stroke: #dd0000; stroke-width: 0.5"/>
    <path d="M 109.670762 63.35888 
L 110.055095 61.315772 
L 111.103951 60.883708 
L 112.165821 61.367869 
L 110.609091 63.375816 
z
" clip-path="url(#p01867b4679)" style="fill: #ff6b6b; stroke: #dd0000; stroke-width: 0.5"/>
    <path d="M 38.179244 47.097839 
L 38.763384 45.930758 
L 40.631569 46.100639 
L 40.584022 47.097839 
L 39.622337 47.761511 
z
" clip-path="url(#p01867b4679)" style="fill: #ff6b6b; stroke: #dd0000; stroke-width: 0.5"/>
    <path d="M 118.507618 33.401154 
L 119.159684 32.793267 
L 119.176384 33.50818 
L 118.775629 33.752529 
z
" clip-path="url(#p01867b4679)" style="fill: #ff6b6b; stroke: #dd0000; stroke-width: 0.5"/>
    <path d="M 112.342592 60.634363 
L 112.774945 59.653035 
L 113.102327 60.043231 
L 112.374322 60.792582 
z
" clip-path="url(#p01867b4679)" style="fill: #ff6b6b; stroke: #dd0000; stroke-width: 0.5"/>
    <path d="M 44.540564 48.797789 
L 46.779213 47.126152 
L 47.022039 47.643157 
L 46.000643 48.752483 
z
" clip-path="url(#p01867b4679)" style="fill: #ff6b6b; stroke: #dd0000; stroke-width: 0.5"/>
    <path d="M 38.321885 51.442271 
L 38.684426 50.821636 
L 39.318944 51.08439 
L 38.961215 51.720876 
z
" clip-path="url(#p01867b4679)" style="fill: #ff6b6b; stroke: #dd0000; stroke-width: 0.5"/>
    <path d="M 35.886823 44.2427 
L 36.56068 43.383101 
L 38.036888 44.337834 
L 37.759536 44.928458 
z
" clip-path="url(#p01867b4679)" style="fill: #ff6b6b; stroke: #dd0000; stroke-width: 0.5"/>
    <path d="M 30.361246 44.337834 
L 31.841975 44.147565 
L 32.221502 45.506619 
L 30.792841 45.530403 
z
" clip-path="url(#p01867b4679)" style="fill: #ff6b6b; stroke: #dd0000; stroke-width: 0.5"/>
    <path d="M 43.657559 51.822809 
L 43.8002 51.680107 
L 44.656601 52.039123 
z
" clip-path="url(#p01867b4679)" style="fill: #ff6b6b; stroke: #dd0000; stroke-width: 0.5"/>
    <path d="M 38.458015 39.84306 
L 39.129327 40.192167 
L 38.804991 40.494555 
z
" clip-path="url(#p01867b4679)" style="fill: #ff6b6b; stroke: #dd0000; stroke-width: 0.5"/>
    <path d="M 36.365965 38.377828 
L 36.701624 37.967286 
L 36.676717 38.50241 
z
" clip-path="url(#p01867b4679)" style="fill: #ff6b6b; stroke: #dd0000; stroke-width: 0.5"/>
    <path d="M 29.293993 32.651978 
L 29.325125 32.650001 
L 29.304746 32.673785 
z
" clip-path="url(#p01867b4679)" style="fill: #ff6b6b; stroke: #dd0000; stroke-width: 0.5"/>
    <path d="M 29.271068 32.773442 
L 29.370975 32.772315 
L 29.323713 32.835733 
z
" clip-path="url(#p01867b4679)" style="fill: #ff6b6b; stroke: #dd0000; stroke-width: 0.5"/>
    <path d="M 28.00967 30.876717 
L 28.013634 30.773943 
L 28.057217 30.865681 
z
" clip-path="url(#p01867b4679)" style="fill: #ff6b6b; stroke: #dd0000; stroke-width: 0.5"/>
   </g>
  </g>
 </g>
 <defs>
  <clipPath id="p01867b4679">
   <rect x="0" y="0" width="172.726296" height="108"/>
  </clipPath>
 </defs>
</svg>
