<?xml version="1.0" encoding="utf-8" standalone="no"?>
<!DOCTYPE svg PUBLIC "-//W3C//DTD SVG 1.1//EN"
  "http://www.w3.org/Graphics/SVG/1.1/DTD/svg11.dtd">
<svg xmlns:xlink="http://www.w3.org/1999/xlink" width="154.204242pt" height="108pt" viewBox="0 0 154.204242 108" xmlns="http://www.w3.org/2000/svg" version="1.1">
 <metadata>
  <rdf:RDF xmlns:dc="http://purl.org/dc/elements/1.1/" xmlns:cc="http://creativecommons.org/ns#" xmlns:rdf="http://www.w3.org/1999/02/22-rdf-syntax-ns#">
   <cc:Work>
    <dc:type rdf:resource="http://purl.org/dc/dcmitype/StillImage"/>
    <dc:date>2025-09-05T13:56:17.323499</dc:date>
    <dc:format>image/svg+xml</dc:format>
    <dc:creator>
     <cc:Agent>
      <dc:title>Matplotlib v3.10.3, https://matplotlib.org/</dc:title>
     </cc:Agent>
    </dc:creator>
   </cc:Work>
  </rdf:RDF>
 </metadata>
 <defs>
  <style type="text/css">*{stroke-linejoin: round; stroke-linecap: butt}</style>
 </defs>
 <g id="figure_1">
  <g id="patch_1">
   <path d="M 0 108 
L 154.204242 108 
L 154.204242 0 
L 0 0 
z
" style="fill: #ffffff"/>
  </g>
  <g id="axes_1">
   <g id="PatchCollection_1">
    <path d="M 98.563749 23.481333 
L 100.474252 21.19644 
L 100.009618 20.89504 
L 101.442248 18.331201 
L 102.905143 12.329453 
L 103.620679 12.021972 
L 103.849588 10.426827 
L 106.212368 10.428254 
L 106.642988 9.080931 
L 106.980547 9.365715 
L 108.329519 8.206269 
L 108.003509 9.138823 
L 108.745379 11.419416 
L 107.935162 12.815181 
L 106.711651 13.534961 
L 106.714221 15.317545 
L 104.415453 14.225162 
L 103.50865 14.973791 
L 102.991398 16.59187 
L 103.473213 18.630187 
L 103.090884 19.153934 
L 104.386989 19.325286 
L 104.609632 18.835167 
L 104.8629 19.743576 
L 103.067121 20.566413 
L 102.478635 22.427923 
L 104.255015 22.431875 
L 106.07824 21.531865 
L 105.688056 23.15965 
L 105.953742 24.230818 
L 104.100353 28.917494 
L 104.133082 31.052279 
L 102.677247 35.459899 
z
" clip-path="url(#p52efcc56eb)" style="fill: #eeeeee; stroke: #000000; stroke-width: 0.3"/>
    <path d="M 102.478635 22.427923 
L 103.067121 20.566413 
L 104.8629 19.743576 
L 104.609632 18.835167 
L 104.386989 19.325286 
L 103.090884 19.153934 
L 103.473213 18.630187 
L 102.971602 16.697091 
L 103.630583 14.771893 
L 104.526476 14.218691 
L 106.714221 15.317545 
L 106.704591 19.627208 
L 106.079525 21.532227 
L 104.255015 22.431875 
z
" clip-path="url(#p52efcc56eb)" style="fill: #eeeeee; stroke: #000000; stroke-width: 0.3"/>
    <path d="M 98.26519 22.765909 
L 100.009618 20.89504 
L 100.474252 21.19644 
L 98.563749 23.481333 
z
" clip-path="url(#p52efcc56eb)" style="fill: #eeeeee; stroke: #000000; stroke-width: 0.3"/>
    <path d="M 103.884453 10.416919 
L 106.15233 4.759446 
L 107.210468 4.082209 
L 107.361554 1.911742 
L 109.33584 0.330187 
L 109.253472 -0.443609 
L 111.064682 -0.286306 
L 111.358602 -0.705925 
L 112.173637 -0.301043 
L 111.426632 0.500801 
L 112.701159 1.135267 
L 113.191457 2.692761 
L 111.232179 4.450351 
L 111.735318 5.212284 
L 109.753575 5.355399 
L 108.953306 6.581003 
L 109.659236 7.085483 
L 106.980547 9.365715 
L 106.642988 9.080931 
L 106.212368 10.428254 
z
" clip-path="url(#p52efcc56eb)" style="fill: #eeeeee; stroke: #000000; stroke-width: 0.3"/>
    <path d="M 107.722858 -6.930355 
L 108.449006 -8.080985 
L 108.189777 -8.792206 
L 109.31782 -9.329202 
L 110.419075 -8.603584 
L 110.662942 -9.502154 
L 111.663438 -9.79629 
L 111.756492 -11.421918 
L 113.564963 -11.431625 
L 112.739018 -13.171242 
L 113.413504 -15.600155 
L 115.430541 -15.083449 
L 115.979244 -14.151793 
L 118.41984 -14.251037 
L 123.251619 -16.15893 
L 124.839323 -15.792527 
L 126.360921 -14.666704 
L 129.556222 -14.439457 
L 132.820193 -15.002184 
L 138.680062 -17.495468 
L 143.466277 -17.322154 
L 146.753986 -18.018283 
L 148.007979 -19.057088 
L 148.849317 -18.464691 
L 149.03864 -17.229381 
L 145.726535 -14.13741 
L 142.880349 -13.431212 
L 142.207148 -12.306829 
L 141.956867 -10.257978 
L 142.744302 -7.439289 
L 141.737385 -4.570975 
L 141.755355 -1.440533 
L 140.271615 1.281973 
L 138.565189 1.771535 
L 126.668322 8.450062 
L 114.528234 15.790206 
L 111.848906 15.355119 
L 107.935162 12.815181 
L 108.745379 11.419416 
L 107.973983 8.70949 
L 109.659236 7.085483 
L 108.953306 6.581003 
L 109.120164 6.101509 
L 110.299067 5.117541 
L 111.660228 5.30434 
L 111.232179 4.450351 
L 113.191457 2.692761 
L 112.701159 1.135267 
L 111.426632 0.500801 
L 112.173637 -0.301043 
L 111.358602 -0.705925 
L 111.064682 -0.286306 
L 109.253472 -0.443609 
L 108.61374 -2.352734 
L 109.206983 -4.257336 
L 108.937143 -5.786232 
z
" clip-path="url(#p52efcc56eb)" style="fill: #eeeeee; stroke: #000000; stroke-width: 0.3"/>
    <path d="M -56.433185 31.095789 
L -52.802135 29.439593 
L -50.809482 26.822622 
L -50.325599 25.539669 
L -51.343425 21.966228 
L -50.364103 20.217628 
L -48.905393 19.773552 
L -48.240538 18.317285 
L -47.204102 17.963101 
L -46.580955 17.043315 
L -42.401203 14.972712 
L -42.99996 13.55546 
L -42.65729 9.775314 
L -37.421517 12.20063 
L -34.465401 12.397685 
L -31.19093 11.702606 
L -29.826571 12.408442 
L -26.014947 13.022834 
L -24.25037 14.38298 
L -19.826298 15.242557 
L -18.692866 16.778815 
L -18.714089 18.235791 
L -17.911138 20.326412 
L -16.227922 22.251965 
L -14.469915 23.035385 
L -8.898266 23.677233 
L -3.268 25.483878 
L -1.034485 26.558351 
L 1.727588 28.972297 
L 4.233973 30.058661 
L 7.708547 28.97881 
L 10.71065 25.404882 
L 11.001211 23.444218 
L 9.576715 19.669833 
L 10.534801 16.766923 
L 13.584399 14.112879 
L 16.61632 12.620791 
L 18.875603 12.473849 
L 20.169721 11.476382 
L 23.438125 11.398528 
L 29.377648 13.542372 
L 29.643446 14.667806 
L 29.21898 15.67008 
L 30.657119 16.862055 
L 30.575764 16.434525 
L 32.876985 16.719357 
L 35.491003 17.954361 
L 39.484039 17.763812 
L 41.24861 18.349042 
L 42.107657 20.338867 
L 40.19947 22.526806 
L 41.105627 26.447945 
L 39.202184 30.90773 
L 41.020919 37.606937 
L 40.993325 101.520489 
L 34.811934 101.524267 
L 34.811934 104.998456 
L -14.839409 77.523488 
L -25.823053 83.287803 
L -30.380478 79.367735 
L -39.777704 77.01811 
L -42.635445 71.476191 
L -47.528188 69.81676 
L -49.454096 70.366546 
L -50.386563 69.647399 
L -50.802422 68.441577 
L -51.804204 67.701215 
L -51.953731 64.395483 
L -55.866518 58.567883 
L -55.215777 57.290316 
L -52.906099 56.094737 
L -52.558269 53.876893 
L -53.730112 50.63894 
L -52.401035 46.75447 
L -53.388057 43.965263 
L -53.082581 37.974599 
L -54.066393 34.636143 
z
" clip-path="url(#p52efcc56eb)" style="fill: #eeeeee; stroke: #000000; stroke-width: 0.3"/>
    <path d="M 21.326085 151.635249 
L 22.286152 149.515208 
L 24.170985 147.8716 
L 22.974751 144.769923 
L 23.842404 143.543241 
L 25.901802 142.269271 
L 25.173406 141.40019 
L 24.766531 139.459391 
L 26.71041 138.447376 
L 26.600672 137.275343 
L 28.457911 134.880232 
L 28.139601 132.516037 
L 29.306315 131.382845 
L 34.831183 131.265266 
L 34.811934 101.524267 
L 41.016423 101.478058 
L 41.020919 87.608431 
L 79.936006 87.615264 
L 81.021856 85.996824 
L 81.44734 86.370783 
L 81.097585 87.608431 
L 91.937023 87.608028 
L 94.295004 89.600087 
L 97.016171 89.194878 
L 97.544345 87.607715 
L 114.927198 87.605906 
L 114.953476 90.010514 
L 117.593262 94.132863 
L 117.214274 94.492154 
L 117.07632 93.644755 
L 116.301665 93.090384 
L 117.065709 97.560982 
L 116.737252 99.062692 
L 117.163742 104.441567 
L 118.346694 109.412735 
L 119.001589 110.427465 
L 119.839351 110.253058 
L 120.356851 111.034495 
L 121.396535 111.337898 
L 122.615762 112.532914 
L 122.331752 112.986461 
L 122.8009 113.673844 
L 123.760179 113.275739 
L 123.208371 113.893805 
L 124.28975 113.848786 
L 125.608638 115.312282 
L 123.308094 118.708978 
L 122.600878 118.570538 
L 122.333906 119.027919 
L 122.10031 118.552558 
L 118.729806 120.194733 
L 118.154794 122.158716 
L 115.48509 121.931824 
L 115.648098 123.465403 
L 114.883124 125.75157 
L 115.365728 127.388707 
L 113.606677 131.2516 
L 113.33906 133.182504 
L 112.079937 135.354688 
L 112.708859 141.407739 
L 111.870086 146.029148 
L 110.290722 149.973841 
L 110.207939 152.137753 
L 107.50101 152.570683 
L 105.201602 156.992706 
L 103.682568 158.418057 
L 103.685133 160.296107 
L 102.884864 162.353761 
L 102.972142 164.787892 
L 102.228348 166.000547 
L 101.70596 166.313741 
L 100.590591 164.922011 
L 98.757096 167.139139 
L 99.045242 169.518433 
L 97.460637 174.869058 
L 96.285372 174.558564 
L 96.855572 172.083984 
L 96.506133 169.859669 
L 93.179914 166.580544 
L 91.681737 165.931689 
L 91.329095 159.946779 
L 92.111394 155.69393 
L 89.146802 155.653656 
L 89.239216 157.138695 
L 85.113373 157.159013 
L 86.76589 159.223138 
L 86.768461 161.975668 
L 87.277374 163.543947 
L 84.248285 166.512584 
L 82.521641 169.583332 
L 79.414264 172.716112 
L 76.93612 172.992449 
L 72.264784 169.191942 
L 69.796271 170.669425 
L 69.786646 171.669215 
L 68.974505 172.732297 
L 65.439787 174.351099 
L 65.005182 175.773946 
L 60.04557 175.726199 
L 59.11393 173.889223 
L 54.055292 173.809754 
L 51.232211 174.687652 
L 46.759495 169.812743 
L 46.281709 168.154752 
L 41.615186 169.077954 
L 40.990114 171.301198 
L 39.873137 172.334429 
L 39.849069 174.411141 
L 39.151485 175.434304 
L 38.395178 178.820222 
L 35.635948 180.247369 
L 31.761671 179.892829 
L 32.242344 178.207333 
L 31.424105 177.900436 
L 31.663483 176.844549 
L 32.644084 176.100778 
L 32.722378 172.026816 
L 30.526933 168.014336 
L 27.855944 164.678399 
L 28.430956 162.369764 
L 28.18966 161.359725 
L 27.302113 161.310461 
L 25.872922 159.711441 
L 26.311881 156.651116 
L 25.353739 156.945961 
L 25.514822 156.011431 
L 24.824291 153.935262 
L 25.27673 152.905802 
L 23.781441 151.985293 
L 23.166639 152.632165 
L 22.111594 152.707675 
z
" clip-path="url(#p52efcc56eb)" style="fill: #eeeeee; stroke: #000000; stroke-width: 0.3"/>
    <path d="M 117.161215 95.897884 
L 117.410334 95.697997 
L 117.229431 96.275016 
z
" clip-path="url(#p52efcc56eb)" style="fill: #eeeeee; stroke: #000000; stroke-width: 0.3"/>
    <path d="M 126.668322 8.450062 
L 138.565189 1.771535 
L 140.271615 1.281973 
L 141.755355 -1.440533 
L 141.737385 -4.570975 
L 142.744302 -7.439289 
L 141.956867 -10.257978 
L 142.207148 -12.306829 
L 142.880349 -13.431212 
L 145.726535 -14.13741 
L 148.914776 -17.561626 
L 150.181604 -17.816566 
L 151.140386 -19.268519 
L 153.618847 -19.378729 
L 157.931765 -18.185843 
L 159.661936 -18.961441 
L 160.574514 -18.443837 
L 160.233098 -17.40593 
L 160.88384 -16.581791 
L 162.904727 -18.037341 
L 164.625273 -16.907204 
L 164.276803 -15.348457 
L 165.609724 -14.486557 
L 165.271202 -13.552027 
L 165.844612 -12.710625 
L 166.807883 -12.64231 
L 167.313586 -9.796645 
L 168.67764 -9.79629 
L 169.97559 -8.523044 
L 171.909198 -8.844859 
L 173.564931 -8.470899 
L 171.557518 -7.571612 
L 171.310441 -6.318496 
L 172.280133 -5.096309 
L 172.472021 -3.656582 
L 170.995018 -3.487582 
L 170.603865 -2.231592 
L 169.464751 -1.536535 
L 169.220245 -0.937493 
L 169.680701 0.242271 
L 168.433451 -0.038916 
L 168.450781 0.639596 
L 167.914273 0.986223 
L 168.786739 1.907449 
L 168.705874 3.107523 
L 167.686446 4.262119 
L 168.341037 4.505007 
L 169.885746 6.97887 
L 170.825918 6.646263 
L 171.08647 7.203243 
L 170.618631 7.596435 
L 171.375261 7.621248 
L 172.49833 9.225661 
L 172.572134 9.864984 
L 171.722128 10.300961 
L 172.281741 10.607141 
L 172.13638 11.354155 
L 174.510232 11.789235 
L 178.305898 14.692431 
L 179.390785 14.621952 
L 180.294378 15.244011 
L 180.794306 16.960256 
L 182.924932 19.346383 
L 181.95909 22.114736 
L 181.921871 24.989522 
L 184.028751 25.02871 
L 184.037097 28.683053 
L 185.85102 29.734083 
L 186.766478 31.900869 
L 187.425354 32.28235 
L 184.692588 31.59775 
L 183.760277 31.882576 
L 183.652644 31.296218 
L 183.548041 31.165697 
L 183.629905 31.952227 
L 181.929571 31.227388 
L 178.967226 31.672544 
L 176.833391 35.775632 
L 174.840098 38.202743 
L 163.411075 37.464545 
L 147.16471 24.396944 
L 136.911381 18.547412 
L 128.97736 17.172403 
L 129.881593 16.293065 
L 129.532477 15.539225 
L 128.24704 15.709839 
L 127.933225 14.68955 
L 128.423522 14.539073 
z
" clip-path="url(#p52efcc56eb)" style="fill: #eeeeee; stroke: #000000; stroke-width: 0.3"/>
    <path d="M 100.578153 45.042379 
L 102.012578 42.159237 
L 102.916724 36.421865 
L 109.871658 37.477125 
L 112.402744 35.427383 
L 113.965417 32.929967 
L 118.569368 31.948692 
L 119.670624 29.608593 
L 121.743489 28.439984 
L 115.398457 21.536179 
L 127.84145 18.033942 
L 129.047955 17.150109 
L 136.577031 18.422638 
L 147.16471 24.396944 
L 163.411075 37.464545 
L 180.434921 38.905712 
L 181.892029 42.1149 
L 187.024136 42.346996 
L 186.863444 43.133526 
L 187.277801 42.990828 
L 188.001924 45.506426 
L 188.870571 45.778233 
L 188.57041 46.096186 
L 189.433493 47.032769 
L 189.382961 47.42802 
L 189.163653 47.715677 
L 188.997913 47.01975 
L 188.788707 47.77853 
L 189.417833 48.001073 
L 189.117673 48.523443 
L 191.650838 48.992305 
L 192.104109 49.663601 
L 190.905994 49.715696 
L 191.800409 49.90539 
L 191.549266 50.480141 
L 192.104109 50.385009 
L 192.165253 51.353877 
L 192.722618 51.365769 
L 192.489667 51.747988 
L 193.714558 51.434286 
L 194.505388 53.075862 
L 197.355387 55.11722 
L 196.299776 54.702715 
L 196.561532 56.301826 
L 197.716182 57.489549 
L 197.249269 59.493249 
L 196.572647 58.344311 
L 196.309376 59.731079 
L 197.000652 59.816581 
L 197.970362 62.304715 
L 197.269989 61.598872 
L 197.294746 61.831887 
L 199.299352 63.659483 
L 199.862275 66.320041 
L 202.449704 69.709431 
L 204.24996 69.314402 
L 204.458657 70.061298 
L 205.035227 69.266836 
L 205.674965 69.599227 
L 204.312116 71.518274 
L 206.116109 71.877281 
L 206.266221 73.114762 
L 212.257971 81.045327 
L 228.072108 83.25544 
L 228.578457 82.680481 
L 231.377154 87.722413 
L 227.284035 101.524267 
L 208.657403 108.480919 
L 190.384699 111.374944 
L 184.958337 114.372526 
L 181.400763 119.143341 
L 180.398342 121.72795 
L 178.745179 122.732597 
L 177.559216 122.667156 
L 175.943272 120.450745 
L 173.53733 120.807803 
L 167.997057 120.195812 
L 166.351594 119.386049 
L 160.040571 119.550018 
L 158.588281 120.266646 
L 155.469672 118.74889 
L 153.930737 120.099086 
L 154.47174 120.474479 
L 153.641306 121.766784 
L 153.605366 122.99293 
L 154.219212 123.780392 
L 154.023474 124.700539 
L 153.433379 124.645166 
L 153.131114 125.593362 
L 151.598724 126.743866 
L 151.120187 124.241294 
L 148.911435 121.097443 
L 148.950343 122.194279 
L 148.568827 119.210675 
L 145.377736 116.566817 
L 143.550501 113.85049 
L 143.193245 112.138692 
L 141.792499 110.552329 
L 142.033534 109.604411 
L 141.334677 108.892341 
L 141.583294 107.981803 
L 140.913241 107.578063 
L 140.14364 104.931943 
L 138.999596 104.215065 
L 138.903084 103.044048 
L 138.354809 103.165788 
L 137.596832 101.758075 
L 134.798372 99.549395 
L 133.67606 99.347525 
L 133.909514 99.688976 
L 132.788214 99.051372 
L 129.150925 93.776689 
L 128.569809 92.342361 
L 129.130713 91.722312 
L 128.745658 89.331008 
L 127.641596 87.533826 
L 128.103815 87.562132 
L 128.954858 84.770378 
L 128.50471 85.030593 
L 128.149379 82.240627 
L 126.823928 80.627078 
L 126.816347 79.576953 
L 124.669751 75.162702 
L 121.457486 72.692527 
L 121.535904 72.219093 
L 121.024774 72.616815 
L 118.316057 71.103979 
L 118.485362 70.589478 
L 116.572517 67.738225 
L 117.243073 67.59751 
L 117.153633 65.481979 
L 115.254139 62.205617 
L 113.801347 61.274406 
L 113.762439 59.588381 
L 112.623952 58.971158 
L 109.63903 53.433734 
L 104.246769 45.76209 
L 104.574214 45.448667 
L 103.553469 44.995099 
L 102.019322 45.331735 
L 101.42557 44.852401 
L 101.040012 45.137511 
L 101.171396 45.331735 
L 100.828285 45.616845 
z
" clip-path="url(#p52efcc56eb)" style="fill: #eeeeee; stroke: #000000; stroke-width: 0.3"/>
    <path d="M 145.188208 123.087951 
L 146.107554 124.123263 
L 146.913821 124.344588 
L 147.082685 123.659752 
L 147.854217 124.415874 
L 147.805293 125.26509 
L 147.229027 124.499393 
L 146.419972 124.662283 
z
" clip-path="url(#p52efcc56eb)" style="fill: #eeeeee; stroke: #000000; stroke-width: 0.3"/>
    <path d="M 145.671837 123.120675 
L 146.252443 122.680697 
L 145.741568 122.384543 
L 145.832522 122.272141 
L 146.312581 122.555554 
L 146.708012 124.029981 
z
" clip-path="url(#p52efcc56eb)" style="fill: #eeeeee; stroke: #000000; stroke-width: 0.3"/>
    <path d="M 112.492065 62.212979 
L 112.815971 61.810936 
L 112.737646 62.216375 
L 113.586081 62.876349 
L 112.789699 62.601996 
z
" clip-path="url(#p52efcc56eb)" style="fill: #eeeeee; stroke: #000000; stroke-width: 0.3"/>
    <path d="M 115.31781 63.626919 
L 115.350658 63.448554 
L 115.645255 63.435243 
L 115.816559 63.781794 
z
" clip-path="url(#p52efcc56eb)" style="fill: #eeeeee; stroke: #000000; stroke-width: 0.3"/>
    <path d="M 113.671478 62.850583 
L 113.94587 62.76904 
L 114.899404 63.616732 
L 113.906453 62.835296 
z
" clip-path="url(#p52efcc56eb)" style="fill: #eeeeee; stroke: #000000; stroke-width: 0.3"/>
    <path d="M 112.808898 61.121522 
L 112.907944 60.881994 
L 113.109059 60.713815 
L 113.234885 61.765068 
z
" clip-path="url(#p52efcc56eb)" style="fill: #eeeeee; stroke: #000000; stroke-width: 0.3"/>
    <path d="M 192.994985 50.764966 
L 193.79541 50.389539 
L 194.43919 50.574709 
z
" clip-path="url(#p52efcc56eb)" style="fill: #eeeeee; stroke: #000000; stroke-width: 0.3"/>
    <path d="M 115.017649 62.558396 
L 115.11821 62.480534 
L 115.172784 63.087279 
z
" clip-path="url(#p52efcc56eb)" style="fill: #eeeeee; stroke: #000000; stroke-width: 0.3"/>
    <path d="M 114.575493 62.894183 
L 114.66443 62.735349 
L 114.82108 62.82227 
z
" clip-path="url(#p52efcc56eb)" style="fill: #eeeeee; stroke: #000000; stroke-width: 0.3"/>
    <path d="M 114.2622 63.247532 
L 115.055545 63.959317 
L 115.027249 64.1895 
z
" clip-path="url(#p52efcc56eb)" style="fill: #eeeeee; stroke: #000000; stroke-width: 0.3"/>
    <path d="M -30.583915 140.18645 
L -29.290138 139.423258 
L -28.196905 136.146826 
L -24.874536 131.067139 
L -18.065509 123.099724 
L -16.386038 102.163583 
L -14.931178 99.15216 
L -17.415414 96.260474 
L -17.576497 95.297541 
L -17.172832 94.87756 
L -19.810446 91.116423 
L -19.8881 87.622097 
L -21.081012 80.648092 
L -14.839409 77.523488 
L 34.811934 104.998456 
L 34.831183 131.265266 
L 29.306315 131.382845 
L 28.139601 132.516037 
L 28.457911 134.880232 
L 26.600672 137.275343 
L 26.71041 138.447376 
L 24.766531 139.459391 
L 25.173406 141.40019 
L 25.901802 142.269271 
L 23.842404 143.543241 
L 22.974751 144.769923 
L 24.170985 147.8716 
L 22.286152 149.515208 
L 21.326085 151.635249 
L 22.111594 152.707675 
L 23.166639 152.632165 
L 23.781441 151.985293 
L 25.27673 152.905802 
L 24.824291 153.935262 
L 25.514822 156.011431 
L 25.353739 156.945961 
L 26.311881 156.651116 
L 25.872922 159.711441 
L 27.302113 161.310461 
L 28.18966 161.359725 
L 28.236504 163.50997 
L 27.855944 164.678399 
L 25.285715 164.127897 
L 20.787006 166.643648 
L 20.763262 169.009994 
L 19.486809 169.678805 
L 18.624291 171.261105 
L 17.895256 171.242763 
L 15.220424 175.123093 
L 14.237891 175.930699 
L 13.454953 175.794236 
L 12.792662 177.071079 
L 4.017297 178.135059 
L 3.07263 179.080019 
L 4.651994 180.293035 
L 1.330903 184.657173 
L -4.56426 185.094417 
L -9.745154 188.165527 
L -10.933043 187.21985 
L -11.339911 185.894821 
L -12.311534 186.496027 
L -12.444377 187.269114 
L -15.210984 188.551705 
L -17.969251 188.307557 
L -17.460978 186.434545 
L -18.219532 186.107692 
L -19.815581 181.656355 
L -24.99519 176.860734 
L -27.490975 173.594552 
L -26.0374 171.225862 
L -22.36848 171.618518 
L -16.726168 171.13471 
L -20.138381 167.311736 
L -20.824416 162.845654 
L -20.113997 160.422314 
L -20.543331 159.379912 
L -20.267374 158.668322 
L -20.649219 156.569135 
L -21.589391 156.094498 
L -22.007176 152.855821 
L -23.720662 151.821512 
L -24.56906 149.634944 
L -26.762586 149.656883 
L -29.603953 145.300295 
z
" clip-path="url(#p52efcc56eb)" style="fill: #eeeeee; stroke: #000000; stroke-width: 0.3"/>
    <path d="M 102.916724 36.421865 
L 104.133082 31.052279 
L 104.100353 28.917494 
L 105.953742 24.230818 
L 105.688056 23.15965 
L 106.704591 19.627208 
L 106.477415 17.592022 
L 107.029639 13.249698 
L 108.792868 13.031378 
L 109.851763 14.394879 
L 114.448654 15.816271 
L 126.668322 8.450062 
L 128.423522 14.539073 
L 127.933225 14.68955 
L 128.24704 15.709839 
L 129.532477 15.539225 
L 129.881593 16.293065 
L 127.84145 18.033942 
L 115.398457 21.536179 
L 121.743489 28.439984 
L 119.670624 29.608593 
L 118.569368 31.948692 
L 113.965417 32.929967 
L 112.402744 35.427383 
L 109.542438 37.547243 
z
" clip-path="url(#p52efcc56eb)" style="fill: #eeeeee; stroke: #000000; stroke-width: 0.3"/>
    <path d="M 39.204109 30.639131 
L 40.563991 28.441062 
L 41.105627 26.447945 
L 40.19947 22.526806 
L 41.68642 20.68363 
L 42.074306 20.384736 
L 42.322923 21.254506 
L 43.632708 21.451561 
L 47.140632 20.662199 
L 55.547129 22.301514 
L 56.327342 23.399484 
L 57.656332 23.69847 
L 58.851914 23.280569 
L 59.311754 24.263591 
L 62.400267 24.372034 
L 66.149232 26.156023 
L 69.099791 25.253974 
L 72.616309 22.632208 
L 73.210055 23.444218 
L 73.977134 23.296991 
L 73.298488 23.01641 
L 74.126706 22.513293 
L 74.319736 21.487521 
L 74.44809 21.75111 
L 74.659314 21.867763 
L 74.432933 21.412776 
L 75.511282 21.725065 
L 78.231418 20.870019 
L 75.553729 22.152589 
L 76.744263 22.251965 
L 79.133409 21.521497 
L 78.257187 20.887004 
L 78.998491 20.722791 
L 81.851017 21.867763 
L 83.822776 21.225908 
L 84.062296 21.230723 
L 84.260381 21.327838 
L 85.84203 22.899478 
L 83.916761 21.25054 
L 83.72373 22.48951 
L 83.155753 22.971961 
L 84.146178 23.651467 
L 84.833412 23.444218 
L 84.70304 24.061435 
L 85.263944 24.581265 
L 86.363014 24.002548 
L 86.359984 23.106727 
L 85.888519 22.899478 
L 86.660647 23.063976 
L 88.338306 24.528314 
L 90.360596 23.871178 
L 88.741554 24.58862 
L 89.143784 24.682903 
L 90.359584 24.174693 
L 90.873999 24.560878 
L 91.211552 24.013876 
L 91.000328 24.251421 
L 90.529373 24.208663 
L 91.491501 23.585782 
L 91.64006 24.635623 
L 93.335912 23.871178 
L 93.913997 24.061435 
L 94.835703 24.13675 
L 98.26519 22.765909 
L 102.52767 35.45905 
L 101.595359 36.70312 
L 100.899531 40.705984 
L 99.568523 43.600405 
L 99.722137 45.997088 
L 98.351209 47.27796 
L 98.619534 47.715677 
L 95.552245 45.660167 
L 92.232297 41.865116 
L 91.916979 38.941533 
L 89.042721 35.696316 
L 88.190753 31.831329 
L 86.699555 34.746416 
L 88.211976 36.300507 
L 88.486871 39.058743 
L 89.613225 40.412662 
L 89.99828 41.79886 
L 94.254587 46.547492 
L 94.48855 47.279658 
L 93.752299 47.0574 
L 94.48855 48.285899 
L 93.894295 48.285899 
L 96.018152 51.097365 
L 96.008043 51.94505 
L 96.997456 53.505083 
L 96.700331 53.961205 
L 96.657884 55.196209 
L 100.415437 61.656632 
L 104.128611 70.179246 
L 106.297368 72.902016 
L 107.817067 73.775843 
L 108.152149 74.339635 
L 106.42217 73.818977 
L 106.235542 74.231811 
L 106.270066 77.159604 
L 106.630867 77.876489 
L 107.548412 81.0902 
L 108.732283 82.456998 
L 110.844218 83.154568 
L 112.171395 85.095895 
L 115.000133 87.115919 
L 114.927198 87.605906 
L 81.097585 87.608431 
L 81.44734 86.370783 
L 81.021856 85.996824 
L 79.936006 87.615264 
L 41.020919 87.608431 
L 41.020919 37.606937 
z
M 104.547942 82.105138 
L 107.087566 79.648698 
L 105.896113 80.768705 
z
M 101.849787 84.098637 
L 102.164404 83.353244 
L 102.373821 82.843267 
z
M 97.937379 86.241118 
L 101.25698 85.503163 
L 99.646718 85.84206 
z
" clip-path="url(#p52efcc56eb)" style="fill: #eeeeee; stroke: #000000; stroke-width: 0.3"/>
    <path d="M 100.061211 45.854675 
L 100.342669 45.769737 
L 100.874265 46.38129 
L 100.238576 46.31136 
z
" clip-path="url(#p52efcc56eb)" style="fill: #eeeeee; stroke: #000000; stroke-width: 0.3"/>
    <path d="M 96.485065 49.140945 
L 97.198577 49.292132 
L 97.340063 49.620564 
L 96.610382 49.343101 
z
" clip-path="url(#p52efcc56eb)" style="fill: #eeeeee; stroke: #000000; stroke-width: 0.3"/>
    <path d="M 90.407085 23.923274 
L 91.462696 23.280569 
L 92.324264 23.426663 
L 91.449054 23.374852 
z
" clip-path="url(#p52efcc56eb)" style="fill: #eeeeee; stroke: #000000; stroke-width: 0.3"/>
    <path d="M 101.255024 46.114465 
L 101.566169 46.125334 
L 101.397355 46.464704 
z
" clip-path="url(#p52efcc56eb)" style="fill: #eeeeee; stroke: #000000; stroke-width: 0.3"/>
    <path d="M 96.742778 54.246315 
L 96.87012 54.246315 
L 97.043945 54.815688 
z
" clip-path="url(#p52efcc56eb)" style="fill: #eeeeee; stroke: #000000; stroke-width: 0.3"/>
    <path d="M 92.487483 23.444218 
L 92.666872 23.471968 
L 93.767456 23.96631 
z
" clip-path="url(#p52efcc56eb)" style="fill: #eeeeee; stroke: #000000; stroke-width: 0.3"/>
    <path d="M 90.62437 24.350227 
L 90.7315 24.370614 
L 90.745645 24.441678 
z
" clip-path="url(#p52efcc56eb)" style="fill: #eeeeee; stroke: #000000; stroke-width: 0.3"/>
    <path d="M 89.32267 -0.57763 
L 89.941048 -0.79659 
L 91.000328 0.122089 
L 90.44549 0.122089 
L 90.275702 -0.491168 
z
" clip-path="url(#p52efcc56eb)" style="fill: #eeeeee; stroke: #000000; stroke-width: 0.3"/>
    <path d="M 91.937023 87.608028 
L 93.248583 87.607715 
L 97.544345 87.607715 
L 97.016171 89.194878 
L 94.279853 89.587291 
z
" clip-path="url(#p52efcc56eb)" style="fill: #eeeeee; stroke: #000000; stroke-width: 0.3"/>
   </g>
   <g id="PatchCollection_2">
    <path d="M 39.204109 30.639131 
L 40.563991 28.441062 
L 41.105627 26.447945 
L 40.19947 22.526806 
L 41.68642 20.68363 
L 42.074306 20.384736 
L 42.322923 21.254506 
L 43.632708 21.451561 
L 47.140632 20.662199 
L 55.547129 22.301514 
L 56.327342 23.399484 
L 57.656332 23.69847 
L 58.851914 23.280569 
L 59.311754 24.263591 
L 62.400267 24.372034 
L 66.149232 26.156023 
L 69.099791 25.253974 
L 72.616309 22.632208 
L 73.210055 23.444218 
L 73.977134 23.296991 
L 73.298488 23.01641 
L 74.126706 22.513293 
L 74.319736 21.487521 
L 74.44809 21.75111 
L 74.659314 21.867763 
L 74.432933 21.412776 
L 75.511282 21.725065 
L 78.231418 20.870019 
L 75.553729 22.152589 
L 76.744263 22.251965 
L 79.133409 21.521497 
L 78.257187 20.887004 
L 78.998491 20.722791 
L 81.851017 21.867763 
L 83.822776 21.225908 
L 84.062296 21.230723 
L 84.260381 21.327838 
L 85.84203 22.899478 
L 83.916761 21.25054 
L 83.72373 22.48951 
L 83.155753 22.971961 
L 84.146178 23.651467 
L 84.833412 23.444218 
L 84.70304 24.061435 
L 85.263944 24.581265 
L 86.363014 24.002548 
L 86.359984 23.106727 
L 85.888519 22.899478 
L 86.660647 23.063976 
L 88.338306 24.528314 
L 90.360596 23.871178 
L 88.741554 24.58862 
L 89.143784 24.682903 
L 90.359584 24.174693 
L 90.873999 24.560878 
L 91.211552 24.013876 
L 91.000328 24.251421 
L 90.529373 24.208663 
L 91.491501 23.585782 
L 91.64006 24.635623 
L 93.335912 23.871178 
L 93.913997 24.061435 
L 94.835703 24.13675 
L 98.26519 22.765909 
L 102.52767 35.45905 
L 101.595359 36.70312 
L 100.899531 40.705984 
L 99.568523 43.600405 
L 99.722137 45.997088 
L 98.351209 47.27796 
L 98.619534 47.715677 
L 95.552245 45.660167 
L 92.232297 41.865116 
L 91.916979 38.941533 
L 89.042721 35.696316 
L 88.190753 31.831329 
L 86.699555 34.746416 
L 88.211976 36.300507 
L 88.486871 39.058743 
L 89.613225 40.412662 
L 89.99828 41.79886 
L 94.254587 46.547492 
L 94.48855 47.279658 
L 93.752299 47.0574 
L 94.48855 48.285899 
L 93.894295 48.285899 
L 96.018152 51.097365 
L 96.008043 51.94505 
L 96.997456 53.505083 
L 96.700331 53.961205 
L 96.657884 55.196209 
L 100.415437 61.656632 
L 104.128611 70.179246 
L 106.297368 72.902016 
L 107.817067 73.775843 
L 108.152149 74.339635 
L 106.42217 73.818977 
L 106.235542 74.231811 
L 106.270066 77.159604 
L 106.630867 77.876489 
L 107.548412 81.0902 
L 108.732283 82.456998 
L 110.844218 83.154568 
L 112.171395 85.095895 
L 115.000133 87.115919 
L 114.927198 87.605906 
L 81.097585 87.608431 
L 81.44734 86.370783 
L 81.021856 85.996824 
L 79.936006 87.615264 
L 41.020919 87.608431 
L 41.020919 37.606937 
z
M 104.547942 82.105138 
L 107.087566 79.648698 
L 105.896113 80.768705 
z
M 101.849787 84.098637 
L 102.164404 83.353244 
L 102.373821 82.843267 
z
M 97.937379 86.241118 
L 101.25698 85.503163 
L 99.646718 85.84206 
z
" clip-path="url(#p52efcc56eb)" style="fill: #ff6b6b; stroke: #dd0000; stroke-width: 0.5"/>
    <path d="M 100.061211 45.854675 
L 100.342669 45.769737 
L 100.874265 46.38129 
L 100.238576 46.31136 
z
" clip-path="url(#p52efcc56eb)" style="fill: #ff6b6b; stroke: #dd0000; stroke-width: 0.5"/>
    <path d="M 96.485065 49.140945 
L 97.198577 49.292132 
L 97.340063 49.620564 
L 96.610382 49.343101 
z
" clip-path="url(#p52efcc56eb)" style="fill: #ff6b6b; stroke: #dd0000; stroke-width: 0.5"/>
    <path d="M 90.407085 23.923274 
L 91.462696 23.280569 
L 92.324264 23.426663 
L 91.449054 23.374852 
z
" clip-path="url(#p52efcc56eb)" style="fill: #ff6b6b; stroke: #dd0000; stroke-width: 0.5"/>
    <path d="M 101.255024 46.114465 
L 101.566169 46.125334 
L 101.397355 46.464704 
z
" clip-path="url(#p52efcc56eb)" style="fill: #ff6b6b; stroke: #dd0000; stroke-width: 0.5"/>
    <path d="M 96.742778 54.246315 
L 96.87012 54.246315 
L 97.043945 54.815688 
z
" clip-path="url(#p52efcc56eb)" style="fill: #ff6b6b; stroke: #dd0000; stroke-width: 0.5"/>
    <path d="M 92.487483 23.444218 
L 92.666872 23.471968 
L 93.767456 23.96631 
z
" clip-path="url(#p52efcc56eb)" style="fill: #ff6b6b; stroke: #dd0000; stroke-width: 0.5"/>
    <path d="M 90.62437 24.350227 
L 90.7315 24.370614 
L 90.745645 24.441678 
z
" clip-path="url(#p52efcc56eb)" style="fill: #ff6b6b; stroke: #dd0000; stroke-width: 0.5"/>
   </g>
  </g>
 </g>
 <defs>
  <clipPath id="p52efcc56eb">
   <rect x="0" y="0" width="154.204242" height="108"/>
  </clipPath>
 </defs>
</svg>
