<?xml version="1.0" encoding="utf-8" standalone="no"?>
<!DOCTYPE svg PUBLIC "-//W3C//DTD SVG 1.1//EN"
  "http://www.w3.org/Graphics/SVG/1.1/DTD/svg11.dtd">
<svg xmlns:xlink="http://www.w3.org/1999/xlink" width="167.810561pt" height="108pt" viewBox="0 0 167.810561 108" xmlns="http://www.w3.org/2000/svg" version="1.1">
 <metadata>
  <rdf:RDF xmlns:dc="http://purl.org/dc/elements/1.1/" xmlns:cc="http://creativecommons.org/ns#" xmlns:rdf="http://www.w3.org/1999/02/22-rdf-syntax-ns#">
   <cc:Work>
    <dc:type rdf:resource="http://purl.org/dc/dcmitype/StillImage"/>
    <dc:date>2025-09-05T15:49:27.901278</dc:date>
    <dc:format>image/svg+xml</dc:format>
    <dc:creator>
     <cc:Agent>
      <dc:title>Matplotlib v3.10.3, https://matplotlib.org/</dc:title>
     </cc:Agent>
    </dc:creator>
   </cc:Work>
  </rdf:RDF>
 </metadata>
 <defs>
  <style type="text/css">*{stroke-linejoin: round; stroke-linecap: butt}</style>
 </defs>
 <g id="figure_1">
  <g id="patch_1">
   <path d="M 0 108 
L 167.810561 108 
L 167.810561 0 
L 0 0 
z
" style="fill: #ffffff"/>
  </g>
  <g id="axes_1">
   <g id="PatchCollection_1">
    <path d="M 135.350398 106.15044 
L 139.464878 105.616904 
L 138.846677 103.915443 
L 140.215803 103.612878 
L 141.431884 100.558036 
L 153.055865 105.372607 
L 157.502898 103.064165 
L 161.658805 105.187421 
L 163.101943 104.425377 
L 165.960257 108.249556 
L 169.141304 108.110783 
L 170.745337 109.475229 
L 175.180212 107.795196 
L 174.596357 105.46775 
L 175.505875 105.659294 
L 176.61878 107.789771 
L 175.863598 106.886422 
L 175.625116 109.338468 
L 176.708211 108.491393 
L 183.191883 119.967432 
L 190.447779 128.168472 
L 194.37096 130.57644 
L 192.83813 131.489776 
L 189.406059 129.463531 
L 189.425002 131.40532 
L 187.76236 132.055517 
L 187.802933 139.18223 
L 191.640626 141.661902 
L 188.089122 144.632144 
L 189.391651 149.858829 
L 185.836537 152.329232 
L 187.72812 153.749376 
L 188.726859 156.378489 
L 188.531148 157.589936 
L 187.295025 154.240612 
L 184.113873 151.581 
L 185.128835 150.190887 
L 183.75615 146.76386 
L 178.342787 145.414683 
L 181.73261 148.482134 
L 181.73261 151.447239 
L 176.705368 150.221584 
L 173.893295 147.56781 
L 176.708211 144.055285 
L 175.537098 144.170024 
L 176.708211 142.450296 
L 175.673381 139.460332 
L 165.667876 131.900256 
L 158.547531 129.869197 
L 156.505553 122.88431 
L 154.459303 122.88431 
L 155.553055 122.51595 
L 146.815176 117.220849 
L 148.612286 121.646962 
L 154.220838 125.359024 
L 149.803982 130.275545 
L 146.638442 125.739076 
L 140.280395 124.085123 
L 137.136868 118.141011 
L 137.743714 113.039573 
L 140.839691 111.133474 
L 139.647995 111.311798 
L 139.99295 107.987099 
z
" clip-path="url(#pd2ea8f4df5)" style="fill: #eeeeee; stroke: #000000; stroke-width: 0.3"/>
    <path d="M 171.335124 145.40748 
L 171.585432 145.396811 
L 171.429107 145.662034 
z
" clip-path="url(#pd2ea8f4df5)" style="fill: #eeeeee; stroke: #000000; stroke-width: 0.3"/>
    <path d="M 148.385875 120.175734 
L 149.93245 120.309477 
L 150.161705 120.788193 
z
" clip-path="url(#pd2ea8f4df5)" style="fill: #eeeeee; stroke: #000000; stroke-width: 0.3"/>
    <path d="M 114.920614 202.847507 
L 115.846145 202.079373 
L 115.829818 202.496696 
z
" clip-path="url(#pd2ea8f4df5)" style="fill: #eeeeee; stroke: #000000; stroke-width: 0.3"/>
    <path d="M 105.269971 70.318325 
L 105.338122 68.724311 
L 106.897466 66.884724 
L 110.126882 69.960923 
L 111.921865 69.849847 
L 110.361806 69.526805 
L 111.495294 68.736741 
L 116.361763 68.768641 
L 118.317362 66.853758 
L 118.529174 64.10211 
L 122.135675 63.037931 
L 121.05129 55.019239 
L 128.483309 54.814565 
L 132.728891 49.651931 
L 138.908425 53.61023 
L 139.172078 51.072076 
L 148.900412 44.664245 
L 149.32182 40.308686 
L 151.342307 39.864995 
L 150.918649 38.533959 
L 153.529986 35.769325 
L 155.485132 35.696005 
L 157.104044 38.325118 
L 160.882692 39.316893 
L 162.971678 37.58998 
L 164.640163 38.270353 
L 164.735717 36.819116 
L 166.368601 37.601583 
L 167.352932 36.192593 
L 170.615526 36.730942 
L 176.007242 34.768731 
L 177.865474 32.274654 
L 184.470131 32.535602 
L 181.616927 35.997637 
L 181.125765 34.028689 
L 180.293938 34.583419 
L 179.338596 36.003492 
L 181.526084 36.591829 
L 183.490701 44.199413 
L 179.222896 51.220835 
L 176.992115 60.936211 
L 178.341374 78.883324 
L 175.625116 79.438791 
L 175.625116 76.227358 
L 177.057422 74.94543 
L 176.90694 71.769813 
L 175.478908 72.233926 
L 176.469729 75.01266 
L 173.233213 76.78428 
L 174.947294 81.340489 
L 175.982839 80.115571 
L 175.040981 86.583717 
L 174.572547 83.938726 
L 174.035962 83.285332 
L 173.179279 83.185195 
L 174.304254 84.10974 
L 172.722199 85.28424 
L 173.49158 87.32189 
L 172.161473 88.679834 
L 173.353884 89.872618 
L 174.536335 89.062814 
L 175.377406 93.203891 
L 173.470282 94.322117 
L 171.606451 99.413317 
L 175.180212 107.795196 
L 170.583082 109.449705 
L 169.141304 108.110783 
L 165.960257 108.249556 
L 163.101943 104.425377 
L 161.658805 105.187421 
L 157.502898 103.064165 
L 153.055865 105.372607 
L 141.431884 100.558036 
L 139.618813 102.876123 
L 125.757963 90.688261 
L 120.940108 82.821237 
z
" clip-path="url(#pd2ea8f4df5)" style="fill: #eeeeee; stroke: #000000; stroke-width: 0.3"/>
    <path d="M 190.090056 43.863206 
L 191.410935 43.805477 
L 191.091534 43.950913 
z
" clip-path="url(#pd2ea8f4df5)" style="fill: #eeeeee; stroke: #000000; stroke-width: 0.3"/>
    <path d="M 185.769032 83.381805 
L 186.177864 82.939623 
L 186.376593 83.101889 
z
" clip-path="url(#pd2ea8f4df5)" style="fill: #eeeeee; stroke: #000000; stroke-width: 0.3"/>
    <path d="M 174.764386 105.443035 
L 174.849351 105.430534 
L 174.961545 105.658468 
z
" clip-path="url(#pd2ea8f4df5)" style="fill: #eeeeee; stroke: #000000; stroke-width: 0.3"/>
    <path d="M 173.906081 87.412525 
L 174.415681 86.599793 
L 174.189269 88.696646 
z
" clip-path="url(#pd2ea8f4df5)" style="fill: #eeeeee; stroke: #000000; stroke-width: 0.3"/>
    <path d="M 62.92896 55.268116 
L 64.242967 51.576082 
L 67.506938 49.38229 
L 69.045612 49.767479 
L 70.053824 47.389902 
L 72.937849 46.280711 
L 71.89899 43.22648 
L 75.141315 42.443995 
L 79.400869 44.133781 
L 80.21213 43.331359 
L 84.899389 48.640183 
L 90.732329 50.736533 
L 90.863937 53.116426 
L 97.342743 50.600544 
L 99.262705 52.844001 
L 102.706498 51.954787 
L 104.699948 53.766623 
L 103.194155 58.835047 
L 104.393909 60.128041 
L 102.350728 60.485264 
L 101.731812 61.84468 
L 103.194643 63.250131 
L 100.782157 65.556005 
L 93.861971 65.413496 
L 93.385024 65.279735 
L 93.806624 64.86534 
L 93.277836 64.298199 
L 92.294115 65.323598 
L 91.687984 63.83263 
L 89.087409 63.306405 
L 86.922633 63.562935 
L 89.458616 63.684266 
L 91.476469 65.3828 
L 85.825339 63.999998 
L 77.700707 59.921768 
L 67.991979 58.942117 
z
" clip-path="url(#pd2ea8f4df5)" style="fill: #eeeeee; stroke: #000000; stroke-width: 0.3"/>
    <path d="M 104.359755 65.458275 
L 104.656707 64.602434 
L 104.881601 65.390308 
z
" clip-path="url(#pd2ea8f4df5)" style="fill: #eeeeee; stroke: #000000; stroke-width: 0.3"/>
    <path d="M 103.364487 64.065073 
L 103.866534 64.293511 
L 103.649926 64.556434 
z
" clip-path="url(#pd2ea8f4df5)" style="fill: #eeeeee; stroke: #000000; stroke-width: 0.3"/>
    <path d="M 25.462042 40.631548 
L 26.952607 38.166857 
L 27.06754 32.554983 
L 28.470105 31.158045 
L 26.07194 27.595155 
L 34.295387 13.424802 
L 57.013759 12.744448 
L 57.755161 6.990532 
L 53.600614 5.838646 
L 50.742282 0.053189 
L 46.242519 -1.78929 
L 42.325042 -6.676246 
L 39.482025 -7.715836 
L 47.340423 -7.966456 
L 47.499958 -18.000275 
L 79.287297 -18.068027 
L 77.961342 16.425669 
L 85.796244 17.051438 
L 88.902879 19.871107 
L 89.80214 17.161795 
L 91.003063 17.272888 
L 88.968883 15.065678 
L 95.676124 19.447946 
L 79.281889 31.399828 
L 78.032544 35.203135 
L 79.289093 40.002834 
L 75.779052 42.980961 
L 71.89899 43.22648 
L 72.937849 46.280711 
L 70.053824 47.389902 
L 69.045612 49.767479 
L 67.506938 49.38229 
L 64.242967 51.576082 
L 62.92896 55.268116 
L 54.519534 52.001542 
L 41.680571 51.239748 
z
" clip-path="url(#pd2ea8f4df5)" style="fill: #eeeeee; stroke: #000000; stroke-width: 0.3"/>
    <path d="M 75.779052 42.980961 
L 79.289093 40.002834 
L 78.032544 35.203135 
L 79.281889 31.399828 
L 94.006208 20.364947 
L 97.45621 19.982937 
L 100.384681 16.905984 
L 106.658983 15.678874 
L 108.610832 18.363327 
L 110.953755 17.208567 
L 118.423277 18.823776 
L 127.879446 18.634495 
L 135.58035 15.657679 
L 135.825932 14.453201 
L 134.277943 13.962073 
L 139.593346 14.942892 
L 143.336951 16.863001 
L 151.860158 14.736781 
L 157.501206 16.743807 
L 157.788982 18.570677 
L 161.403944 18.190715 
L 158.106865 16.982626 
L 164.162972 17.914787 
L 174.012536 25.269272 
L 169.232288 22.825992 
L 167.494797 22.581155 
L 167.74392 23.80681 
L 167.028491 22.581155 
L 165.589086 22.581155 
L 170.377131 27.825838 
L 172.409183 27.619745 
L 168.8398 25.141385 
L 172.545466 26.703966 
L 173.49158 28.851974 
L 175.87211 27.163679 
L 177.541468 27.374172 
L 177.450624 28.687534 
L 176.410108 28.221247 
L 175.905479 29.317542 
L 178.341374 28.610065 
L 177.507402 27.075253 
L 176.101365 27.005813 
L 174.483116 25.261244 
L 179.628169 27.696477 
L 181.786562 31.254338 
L 184.470131 32.535602 
L 177.865474 32.274654 
L 176.007242 34.768731 
L 170.615526 36.730942 
L 167.352932 36.192593 
L 166.368601 37.601583 
L 164.735717 36.819116 
L 164.640163 38.270353 
L 162.971678 37.58998 
L 160.882692 39.316893 
L 157.104044 38.325118 
L 155.485132 35.696005 
L 153.529986 35.769325 
L 150.918649 38.533959 
L 151.342307 39.864995 
L 149.32182 40.308686 
L 148.900412 44.664245 
L 139.172078 51.072076 
L 138.908425 53.61023 
L 135.647628 52.022539 
L 134.063864 49.452825 
L 128.483309 54.814565 
L 121.05129 55.019239 
L 122.135675 63.037931 
L 118.529174 64.10211 
L 118.317362 66.853758 
L 116.361763 68.768641 
L 111.495294 68.736741 
L 111.67133 66.639151 
L 109.65843 66.405272 
L 108.038053 63.255969 
L 109.98493 61.020254 
L 106.183449 61.723348 
L 106.088332 60.03067 
L 104.88884 61.822748 
L 102.719092 61.102842 
L 104.393909 60.128041 
L 103.194155 58.835047 
L 104.699948 53.766623 
L 102.706498 51.954787 
L 99.262705 52.844001 
L 97.802456 50.626535 
L 95.429513 50.57177 
L 94.551113 52.132536 
L 90.863937 53.116426 
L 90.732329 50.736533 
L 84.899389 48.640183 
L 80.21213 43.331359 
z
" clip-path="url(#pd2ea8f4df5)" style="fill: #eeeeee; stroke: #000000; stroke-width: 0.3"/>
    <path d="M 123.836186 9.400583 
L 126.734393 7.397563 
L 128.622871 6.806568 
L 131.245861 6.828535 
z
" clip-path="url(#pd2ea8f4df5)" style="fill: #eeeeee; stroke: #000000; stroke-width: 0.3"/>
    <path d="M 170.51767 -10.795249 
L 170.590774 -10.91949 
L 170.831384 -10.825946 
z
" clip-path="url(#pd2ea8f4df5)" style="fill: #eeeeee; stroke: #000000; stroke-width: 0.3"/>
    <path d="M 135.339461 7.278207 
L 137.0129 5.230066 
L 137.609123 5.569705 
z
" clip-path="url(#pd2ea8f4df5)" style="fill: #eeeeee; stroke: #000000; stroke-width: 0.3"/>
    <path d="M 117.018322 13.012149 
L 117.945493 12.427513 
L 119.08833 12.846776 
z
" clip-path="url(#pd2ea8f4df5)" style="fill: #eeeeee; stroke: #000000; stroke-width: 0.3"/>
    <path d="M 105.477946 62.447637 
L 107.016707 61.723348 
L 106.658983 62.938046 
z
" clip-path="url(#pd2ea8f4df5)" style="fill: #eeeeee; stroke: #000000; stroke-width: 0.3"/>
    <path d="M 105.219578 63.306405 
L 106.082663 63.862591 
L 105.337406 63.807053 
z
" clip-path="url(#pd2ea8f4df5)" style="fill: #eeeeee; stroke: #000000; stroke-width: 0.3"/>
    <path d="M -408.502613 -282.417243 
L -366.624577 -285.671317 
L -368.330914 -281.852724 
L -301.770831 -260.782622 
L -253.079134 -260.787256 
L -253.084541 -268.875569 
L -221.928189 -268.529356 
L -218.095904 -263.479037 
L -213.769194 -261.569723 
L -203.348142 -252.218126 
L -195.857531 -247.910363 
L -191.448333 -240.409597 
L -191.429407 -235.90783 
L -188.571529 -230.734976 
L -180.559457 -225.072036 
L -175.786098 -223.918282 
L -168.860662 -219.499606 
L -164.258142 -218.919011 
L -159.653336 -223.098221 
L -160.076994 -225.156977 
L -156.727412 -232.216855 
L -151.757104 -232.943623 
L -150.272957 -235.039038 
L -146.580827 -233.38963 
L -134.29659 -232.964512 
L -132.675428 -229.720928 
L -131.310697 -230.166451 
L -130.94338 -228.530514 
L -121.456179 -221.069641 
L -120.677362 -217.630202 
L -115.415004 -210.188387 
L -114.585724 -206.000357 
L -110.772818 -203.497928 
L -106.872923 -197.010743 
L -101.327516 -193.63117 
L -100.398182 -184.081868 
L -96.674951 -179.953238 
L -94.200629 -172.695656 
L -88.878772 -171.781386 
L -78.784918 -166.451672 
L -68.968252 -165.647849 
L -64.878611 -162.490122 
L -59.887336 -164.482958 
L -60.338746 -160.127741 
L -65.463932 -150.357545 
L -68.821102 -138.439324 
L -70.107897 -125.682811 
L -71.797838 -125.372935 
L -70.725401 -122.921607 
L -70.056091 -124.491499 
L -70.406715 -110.710322 
L -72.999476 -103.957124 
L -72.010766 -105.279987 
L -70.725401 -94.971874 
L -68.106371 -90.300188 
L -62.974086 -85.363927 
L -64.759841 -80.198904 
L -65.695315 -83.152334 
L -63.915944 -84.94294 
L -68.36118 -89.557632 
L -71.083106 -94.971874 
L -68.928272 -86.72187 
L -65.99483 -83.924114 
L -66.124014 -82.48432 
L -60.083938 -68.948698 
L -47.971131 -54.970176 
L -45.07957 -45.338843 
L -35.702191 -35.772549 
L -39.297145 -36.785537 
L -36.654689 -34.913062 
L -37.434012 -34.277935 
L -32.48556 -33.676433 
L -35.27705 -35.004416 
L -35.354411 -35.772549 
L -32.751725 -34.365642 
L -25.886903 -34.068915 
L -22.994627 -31.534262 
L -18.855291 -30.598761 
L -15.261052 -24.813233 
L -13.273724 -23.993926 
L -1.310684 -26.302746 
L 2.260129 -28.800828 
L -2.330617 -27.124962 
L 2.679584 -29.115841 
L 9.597642 -29.361413 
L 10.073175 -27.521827 
L 9.914199 -29.106339 
L 14.830922 -29.774282 
L 17.252426 -32.040029 
L 18.086399 -29.115841 
L 17.61936 -32.460998 
L 22.690629 -33.456725 
L 30.663523 -33.818869 
L 32.085014 -32.151122 
L 30.626457 -32.710954 
L 28.836445 -31.222914 
L 31.706011 -30.487668 
L 30.275833 -32.070725 
L 31.467528 -31.835391 
L 32.997062 -28.384241 
L 33.275297 -30.230402 
L 38.714912 -29.242273 
L 38.408297 -30.598761 
L 44.026059 -33.196262 
L 41.991163 -32.694878 
L 42.568914 -34.617053 
L 39.966926 -36.017385 
L 43.062903 -38.603193 
L 38.386999 -36.070013 
L 51.223747 -44.919329 
L 52.717801 -52.888681 
L 56.309023 -55.927537 
L 56.098397 -66.920549 
L 58.845878 -75.871456 
L 68.37728 -80.399896 
L 80.122403 -81.804612 
L 91.718492 -85.618265 
L 94.289972 -85.249906 
L 98.050985 -85.87334 
L 95.429129 -85.594879 
L 97.27168 -86.353511 
L 112.491103 -83.202753 
L 114.560047 -85.401934 
L 109.766316 -84.881546 
L 115.028499 -86.486535 
L 119.974108 -83.071201 
L 120.199107 -78.966658 
L 121.480931 -78.236531 
L 119.147951 -72.684882 
L 109.463957 -61.29655 
L 109.399382 -55.33708 
L 108.603733 -53.452913 
L 109.229748 -55.77267 
L 108.634956 -56.695023 
L 109.041659 -55.338535 
L 105.332435 -50.748702 
L 104.044227 -51.429864 
L 105.219578 -48.447947 
L 109.27374 -49.309625 
L 107.742078 -49.919175 
L 109.290782 -50.788164 
L 109.773415 -49.740114 
L 108.977067 -47.538024 
L 105.184099 -44.954408 
L 105.827139 -43.333343 
L 108.933058 -45.125422 
L 102.24143 -24.936019 
L 100.660788 -29.362132 
L 98.173069 -30.359044 
L 99.491803 -33.799219 
L 98.897028 -37.119535 
L 97.309287 -34.519125 
L 97.180818 -35.225129 
L 96.062244 -34.693803 
L 95.207689 -33.909576 
L 96.900473 -33.950511 
L 94.588058 -30.230402 
L 90.323096 -29.560519 
L 84.330605 -19.444543 
L 81.224389 -21.389134 
L 79.401776 -20.34491 
L 79.287297 -18.068027 
L 47.499958 -18.000275 
L 47.340423 -7.966456 
L 39.482025 -7.715836 
L 42.325042 -6.676246 
L 46.242519 -1.78929 
L 50.742282 0.053189 
L 53.600614 5.838646 
L 57.755161 6.990532 
L 57.013759 12.744448 
L 34.295387 13.424802 
L 26.07194 27.595155 
L 28.470105 31.158045 
L 27.06754 32.554983 
L 25.813695 40.57646 
L 15.094749 29.587219 
L 16.894703 30.81873 
L 16.353862 29.402321 
L 12.608444 27.711835 
L -7.613366 10.447339 
L -12.093384 9.156627 
L -12.742825 10.109677 
L -4.498935 14.565031 
L -11.969886 11.328758 
L -17.7296 10.934102 
L -15.260354 8.655998 
L -16.816139 7.985055 
L -18.963176 9.892609 
L -20.455085 6.893143 
L -23.685217 9.701856 
L -19.677908 9.391243 
L -21.356493 10.138182 
L -19.179645 10.260968 
L -18.506795 10.951633 
L -25.176062 11.162216 
L -30.150434 14.962416 
L -44.142579 20.208141 
L -48.821168 20.662142 
L -62.098302 15.67133 
L -70.936619 14.88924 
L -77.903919 10.763071 
L -76.333935 11.120473 
L -76.095453 10.885857 
L -84.544474 8.866743 
L -88.45262 4.549011 
L -103.914032 1.979962 
L -109.642295 -1.820256 
L -128.260072 -8.18769 
L -144.496952 -20.949754 
L -147.99869 -19.894268 
L -168.424759 -26.195819 
L -179.210477 -37.118673 
L -185.34506 -39.76476 
L -185.74039 -41.375155 
L -187.226822 -40.830807 
L -196.891942 -45.511329 
L -198.53278 -49.442848 
L -206.171361 -57.90022 
L -209.190012 -64.635565 
L -201.252719 -67.808559 
L -202.96012 -70.881363 
L -206.507524 -71.123074 
L -201.090236 -76.383527 
L -200.229245 -83.245879 
L -204.824631 -86.622901 
L -208.031493 -92.455165 
L -209.503692 -102.485896 
L -210.960121 -104.717947 
L -221.942981 -114.537124 
L -223.565504 -118.532029 
L -228.282573 -122.57006 
L -232.514881 -128.828449 
L -245.407708 -137.749396 
L -245.83782 -138.372812 
L -240.576352 -135.351433 
L -241.128548 -138.548226 
L -242.77591 -137.408805 
L -248.230421 -140.648007 
L -245.957061 -138.674659 
L -247.737148 -139.553167 
L -250.383842 -143.299572 
L -248.963607 -142.770437 
L -249.074336 -146.299056 
L -250.181555 -147.16147 
L -250.860807 -143.958821 
L -255.051234 -149.131872 
L -252.528751 -146.801158 
L -251.718205 -148.212447 
L -249.393719 -147.700125 
L -253.134882 -150.245716 
L -255.468578 -150.17994 
L -255.636084 -151.973491 
L -256.296166 -149.74435 
L -256.920751 -151.820008 
L -262.099173 -153.568223 
L -259.695914 -153.445437 
L -262.688977 -153.977517 
L -262.745056 -156.838121 
L -264.96661 -157.198433 
L -265.548617 -155.512329 
L -268.800744 -156.768681 
L -266.434395 -156.917781 
L -263.950235 -161.588012 
L -267.858886 -157.737806 
L -271.138696 -159.460462 
L -269.504835 -157.136304 
L -273.932314 -158.741292 
L -271.77891 -159.900435 
L -273.369478 -160.818405 
L -273.932314 -159.588368 
L -274.332633 -165.486444 
L -271.348781 -170.559377 
L -271.534044 -168.11536 
L -270.554561 -171.275619 
L -268.682916 -168.985085 
L -268.314553 -170.313804 
L -268.800744 -170.286035 
L -269.509091 -171.638859 
L -269.99244 -171.896862 
L -271.129469 -171.104605 
L -271.235942 -174.041942 
L -275.207754 -178.436262 
L -276.417608 -177.975885 
L -275.398983 -177.116649 
L -280.460711 -178.019316 
L -283.628378 -185.014424 
L -289.235395 -185.724289 
L -293.329414 -188.274137 
L -291.642648 -188.481631 
L -293.828357 -189.837401 
L -295.156963 -194.574126 
L -293.778679 -196.401301 
L -294.675813 -196.572315 
L -294.850418 -197.873247 
L -293.171833 -198.74299 
L -299.02949 -199.344493 
L -298.850645 -200.830341 
L -299.678216 -198.12613 
L -301.64852 -200.375011 
L -303.493442 -199.859779 
L -309.304002 -207.973813 
L -314.017373 -209.28554 
L -318.221615 -214.608913 
L -316.806195 -215.446163 
L -322.009002 -218.384685 
L -323.281389 -224.646343 
L -326.277609 -225.174257 
L -325.693788 -227.706879 
L -332.122149 -235.335874 
L -332.436229 -240.743344 
L -337.941308 -248.986361 
L -338.147991 -258.536812 
L -340.610191 -260.079348 
L -347.401995 -260.753865 
L -348.052763 -263.842493 
L -353.601659 -266.815735 
L -353.136067 -265.108436 
L -354.495635 -263.734705 
L -357.634452 -264.107303 
L -371.947585 -272.345452 
L -367.607391 -266.685638 
L -369.411252 -257.074063 
L -366.383286 -253.440422 
L -364.990402 -245.832873 
L -365.603248 -240.528665 
L -363.290275 -236.368422 
L -360.640998 -232.892845 
L -357.627423 -232.359794 
L -347.64728 -224.050768 
L -345.702775 -217.034681 
L -344.129599 -218.261611 
L -342.730854 -215.394919 
L -340.389762 -215.83622 
L -338.343808 -210.083795 
L -333.866756 -208.943118 
L -332.591909 -198.576054 
L -329.535702 -194.811185 
L -325.291899 -192.889746 
L -322.81585 -186.839156 
L -318.238919 -184.734275 
L -319.403927 -182.672734 
L -316.849488 -179.970715 
L -317.362263 -177.93186 
L -315.341672 -175.367589 
L -313.466852 -175.548338 
L -315.870372 -177.932184 
L -316.512871 -180.908407 
L -311.430578 -177.592276 
L -311.512857 -175.119807 
L -309.375484 -174.392806 
L -309.839976 -172.632161 
L -307.278805 -166.860679 
L -307.018537 -161.131317 
L -303.822611 -156.66091 
L -301.997364 -156.390191 
L -299.994808 -149.704169 
L -296.147156 -145.033148 
L -297.10159 -139.134749 
L -294.85675 -133.731015 
L -289.890785 -132.329712 
L -291.761279 -132.292136 
L -290.512841 -131.168917 
L -289.465452 -133.072124 
L -290.017683 -135.079402 
L -288.275867 -135.338249 
L -284.340214 -132.026464 
L -284.002987 -130.005643 
L -281.223184 -130.301671 
L -278.921269 -123.165833 
L -274.938921 -121.183181 
L -273.990173 -118.247497 
L -275.395704 -113.937292 
L -282.393442 -108.952407 
L -284.212426 -109.315935 
L -289.579722 -120.929813 
L -309.413981 -135.000299 
L -307.93662 -134.38836 
L -313.505872 -139.705249 
L -315.84112 -138.260156 
L -319.250619 -144.882629 
L -318.523817 -142.54094 
L -319.726153 -144.268697 
L -320.640329 -143.064973 
L -320.795189 -147.128385 
L -321.632632 -144.873918 
L -321.996705 -146.308 
L -319.641449 -155.642354 
L -320.577656 -155.775379 
L -320.525326 -160.080106 
L -320.920238 -156.190888 
L -322.22589 -164.292007 
L -326.128907 -169.41191 
L -331.124926 -170.894112 
L -337.606767 -175.85834 
L -338.624275 -179.360447 
L -340.312088 -178.468791 
L -339.089867 -182.522179 
L -341.266819 -178.61288 
L -344.76315 -179.548327 
L -347.661357 -178.128937 
L -350.788033 -182.142271 
L -354.081466 -182.653731 
L -357.164675 -185.566963 
L -361.581042 -186.226733 
L -362.82505 -190.354645 
L -371.829582 -196.355786 
L -372.896036 -198.345281 
L -362.695901 -196.962533 
L -359.507598 -198.770023 
L -358.916364 -196.275587 
L -355.786303 -193.869577 
L -355.29657 -195.459208 
L -353.175803 -194.835774 
L -352.57037 -195.978859 
L -355.022609 -197.44935 
L -354.893425 -195.99348 
L -356.449943 -196.186425 
L -356.667127 -200.032966 
L -358.812978 -199.245057 
L -356.334958 -202.528138 
L -356.621845 -201.102623 
L -355.846778 -199.726503 
L -356.10532 -201.43346 
L -354.683916 -201.518689 
L -356.169144 -205.613874 
L -355.180888 -210.325004 
L -370.946106 -225.767443 
L -374.697909 -226.68103 
L -383.601585 -232.558289 
L -383.642315 -235.112232 
L -385.583523 -236.369374 
L -386.039067 -243.167226 
L -388.448135 -244.151619 
L -387.722746 -245.020608 
L -388.686599 -245.879376 
L -388.956357 -243.395304 
L -389.736151 -245.5584 
L -389.887522 -251.357938 
L -394.728228 -254.121603 
L -394.834561 -258.849311 
L -400.66171 -264.832167 
L -400.181205 -266.745576 
L -401.965983 -268.419502 
L -400.103827 -268.094754 
L -399.549032 -270.045398 
L -403.972045 -273.101174 
z
" clip-path="url(#pd2ea8f4df5)" style="fill: #eeeeee; stroke: #000000; stroke-width: 0.3"/>
    <path d="M -324.417686 -143.402636 
L -321.29066 -151.910229 
L -322.832439 -144.396728 
L -321.12141 -141.554715 
L -321.484941 -140.541332 
L -320.14955 -138.883841 
L -322.180573 -140.912781 
L -321.821593 -142.526157 
z
" clip-path="url(#pd2ea8f4df5)" style="fill: #eeeeee; stroke: #000000; stroke-width: 0.3"/>
    <path d="M -346.823495 -226.339452 
L -346.510216 -228.680782 
L -343.440509 -227.232492 
L -343.006646 -224.550643 
L -339.487291 -223.941902 
L -338.55002 -218.703542 
L -345.200867 -224.105048 
z
" clip-path="url(#pd2ea8f4df5)" style="fill: #eeeeee; stroke: #000000; stroke-width: 0.3"/>
    <path d="M -329.274492 -216.743647 
L -327.580382 -218.47268 
L -327.210589 -222.248326 
L -323.715444 -223.416916 
L -322.516562 -219.365468 
L -323.895457 -214.822191 
z
" clip-path="url(#pd2ea8f4df5)" style="fill: #eeeeee; stroke: #000000; stroke-width: 0.3"/>
    <path d="M -377.679441 -202.503872 
L -375.615992 -205.216579 
L -375.770991 -207.47453 
L -374.152044 -203.549263 
L -375.413425 -201.52934 
z
" clip-path="url(#pd2ea8f4df5)" style="fill: #eeeeee; stroke: #000000; stroke-width: 0.3"/>
    <path d="M 121.480931 -80.455434 
L 121.725815 -79.651485 
L 122.195662 -78.86142 
L 121.515713 -79.65003 
z
" clip-path="url(#pd2ea8f4df5)" style="fill: #eeeeee; stroke: #000000; stroke-width: 0.3"/>
    <path d="M 117.05558 -62.011338 
L 117.528986 -66.419901 
L 121.35105 -67.964233 
L 120.512106 -65.903178 
z
" clip-path="url(#pd2ea8f4df5)" style="fill: #eeeeee; stroke: #000000; stroke-width: 0.3"/>
    <path d="M 112.278175 -34.668208 
L 112.644411 -33.549264 
L 112.386759 -32.694878 
L 112.461991 -33.203554 
z
" clip-path="url(#pd2ea8f4df5)" style="fill: #eeeeee; stroke: #000000; stroke-width: 0.3"/>
    <path d="M 69.079399 -103.618599 
L 71.4439 -101.53202 
L 70.501344 -99.915248 
L 70.658733 -101.728162 
z
" clip-path="url(#pd2ea8f4df5)" style="fill: #eeeeee; stroke: #000000; stroke-width: 0.3"/>
    <path d="M -72.165504 -105.551874 
L -71.384768 -106.946369 
L -71.213005 -107.167819 
L -71.345015 -106.250585 
z
" clip-path="url(#pd2ea8f4df5)" style="fill: #eeeeee; stroke: #000000; stroke-width: 0.3"/>
    <path d="M -225.973193 -87.737103 
L -223.382979 -86.012238 
L -223.731981 -85.017068 
L -225.455272 -86.080977 
z
" clip-path="url(#pd2ea8f4df5)" style="fill: #eeeeee; stroke: #000000; stroke-width: 0.3"/>
    <path d="M -284.993581 -184.621547 
L -283.961001 -184.308438 
L -283.137495 -183.439036 
L -284.069131 -184.211929 
z
" clip-path="url(#pd2ea8f4df5)" style="fill: #eeeeee; stroke: #000000; stroke-width: 0.3"/>
    <path d="M -296.616794 -148.842617 
L -294.246695 -147.417892 
L -293.374766 -144.980018 
L -295.422308 -145.599644 
z
" clip-path="url(#pd2ea8f4df5)" style="fill: #eeeeee; stroke: #000000; stroke-width: 0.3"/>
    <path d="M -305.237159 -161.572223 
L -304.731937 -165.875639 
L -302.64473 -166.3871 
L -304.815246 -163.346322 
z
" clip-path="url(#pd2ea8f4df5)" style="fill: #eeeeee; stroke: #000000; stroke-width: 0.3"/>
    <path d="M -367.703206 -269.329911 
L -366.376658 -268.623889 
L -365.375895 -267.295187 
L -367.292264 -267.760019 
z
" clip-path="url(#pd2ea8f4df5)" style="fill: #eeeeee; stroke: #000000; stroke-width: 0.3"/>
    <path d="M -430.136634 -221.34706 
L -428.538357 -222.387224 
L -427.701943 -217.45653 
L -428.800475 -216.612886 
z
" clip-path="url(#pd2ea8f4df5)" style="fill: #eeeeee; stroke: #000000; stroke-width: 0.3"/>
    <path d="M 110.354706 -28.632742 
L 111.563444 -31.591273 
L 111.138286 -29.564579 
z
" clip-path="url(#pd2ea8f4df5)" style="fill: #eeeeee; stroke: #000000; stroke-width: 0.3"/>
    <path d="M 32.50166 -33.099771 
L 37.800736 -35.649044 
L 38.050574 -34.913062 
z
" clip-path="url(#pd2ea8f4df5)" style="fill: #eeeeee; stroke: #000000; stroke-width: 0.3"/>
    <path d="M -69.405237 -90.779641 
L -68.106371 -88.583388 
L -69.031187 -89.271125 
z
" clip-path="url(#pd2ea8f4df5)" style="fill: #eeeeee; stroke: #000000; stroke-width: 0.3"/>
    <path d="M -219.31891 -80.940293 
L -218.981246 -81.289433 
L -218.414363 -80.518318 
z
" clip-path="url(#pd2ea8f4df5)" style="fill: #eeeeee; stroke: #000000; stroke-width: 0.3"/>
    <path d="M -223.038669 -83.712615 
L -222.462576 -84.177464 
L -221.198143 -82.843824 
z
" clip-path="url(#pd2ea8f4df5)" style="fill: #eeeeee; stroke: #000000; stroke-width: 0.3"/>
    <path d="M -226.463222 -88.702869 
L -225.919433 -88.577964 
L -226.289175 -88.347299 
z
" clip-path="url(#pd2ea8f4df5)" style="fill: #eeeeee; stroke: #000000; stroke-width: 0.3"/>
    <path d="M -267.003634 -155.162974 
L -265.048227 -155.155663 
L -263.051671 -154.058632 
z
" clip-path="url(#pd2ea8f4df5)" style="fill: #eeeeee; stroke: #000000; stroke-width: 0.3"/>
    <path d="M -283.053524 -135.898798 
L -280.779727 -131.635545 
L -282.481599 -132.752388 
z
" clip-path="url(#pd2ea8f4df5)" style="fill: #eeeeee; stroke: #000000; stroke-width: 0.3"/>
    <path d="M -291.470258 -139.404695 
L -289.239599 -137.611055 
L -290.289273 -136.402392 
z
" clip-path="url(#pd2ea8f4df5)" style="fill: #eeeeee; stroke: #000000; stroke-width: 0.3"/>
    <path d="M -294.341097 -143.923275 
L -294.147478 -144.330539 
L -294.011178 -143.812792 
z
" clip-path="url(#pd2ea8f4df5)" style="fill: #eeeeee; stroke: #000000; stroke-width: 0.3"/>
    <path d="M -294.76383 -189.929491 
L -294.563706 -190.548667 
L -293.538958 -188.166421 
z
" clip-path="url(#pd2ea8f4df5)" style="fill: #eeeeee; stroke: #000000; stroke-width: 0.3"/>
    <path d="M -296.99967 -152.307561 
L -296.245832 -152.674609 
L -296.932183 -151.805135 
z
" clip-path="url(#pd2ea8f4df5)" style="fill: #eeeeee; stroke: #000000; stroke-width: 0.3"/>
    <path d="M -298.269354 -158.710272 
L -297.709116 -159.938442 
L -297.356295 -157.878249 
z
" clip-path="url(#pd2ea8f4df5)" style="fill: #eeeeee; stroke: #000000; stroke-width: 0.3"/>
    <path d="M -298.801665 -44.635012 
L -297.95775 -45.003372 
L -298.700164 -44.2747 
z
" clip-path="url(#pd2ea8f4df5)" style="fill: #eeeeee; stroke: #000000; stroke-width: 0.3"/>
    <path d="M -302.493568 -159.181193 
L -301.996841 -159.598822 
L -302.158783 -158.84274 
z
" clip-path="url(#pd2ea8f4df5)" style="fill: #eeeeee; stroke: #000000; stroke-width: 0.3"/>
    <path d="M -302.834529 -35.211245 
L -301.67123 -36.998222 
L -300.341141 -34.467952 
z
" clip-path="url(#pd2ea8f4df5)" style="fill: #eeeeee; stroke: #000000; stroke-width: 0.3"/>
    <path d="M -306.170418 -161.170689 
L -305.979085 -161.489276 
L -305.95149 -160.888743 
z
" clip-path="url(#pd2ea8f4df5)" style="fill: #eeeeee; stroke: #000000; stroke-width: 0.3"/>
    <path d="M -306.653766 -166.949571 
L -306.261663 -167.52273 
L -306.270698 -166.983232 
z
" clip-path="url(#pd2ea8f4df5)" style="fill: #eeeeee; stroke: #000000; stroke-width: 0.3"/>
    <path d="M -308.419637 -200.806488 
L -308.038452 -200.183593 
L -308.323891 -200.25262 
z
" clip-path="url(#pd2ea8f4df5)" style="fill: #eeeeee; stroke: #000000; stroke-width: 0.3"/>
    <path d="M -313.40512 -135.611177 
L -313.135171 -135.913222 
L -309.736905 -135.096933 
z
" clip-path="url(#pd2ea8f4df5)" style="fill: #eeeeee; stroke: #000000; stroke-width: 0.3"/>
    <path d="M -317.379166 -191.12779 
L -316.599651 -190.92378 
L -316.65594 -190.784954 
z
" clip-path="url(#pd2ea8f4df5)" style="fill: #eeeeee; stroke: #000000; stroke-width: 0.3"/>
    <path d="M -319.223966 -138.41319 
L -316.739213 -138.522379 
L -314.013135 -134.559572 
z
" clip-path="url(#pd2ea8f4df5)" style="fill: #eeeeee; stroke: #000000; stroke-width: 0.3"/>
    <path d="M -320.62995 -186.344831 
L -319.893938 -186.950178 
L -320.260697 -186.273398 
z
" clip-path="url(#pd2ea8f4df5)" style="fill: #eeeeee; stroke: #000000; stroke-width: 0.3"/>
    <path d="M -321.245796 -152.20306 
L -320.816382 -155.861613 
L -320.924721 -153.284571 
z
" clip-path="url(#pd2ea8f4df5)" style="fill: #eeeeee; stroke: #000000; stroke-width: 0.3"/>
    <path d="M -329.646309 -213.044805 
L -328.662657 -214.106613 
L -328.767002 -213.096068 
z
" clip-path="url(#pd2ea8f4df5)" style="fill: #eeeeee; stroke: #000000; stroke-width: 0.3"/>
    <path d="M -334.118861 -213.08838 
L -332.228796 -211.63745 
L -332.604136 -211.362653 
z
" clip-path="url(#pd2ea8f4df5)" style="fill: #eeeeee; stroke: #000000; stroke-width: 0.3"/>
    <path d="M -341.162369 -177.830754 
L -339.590257 -178.037583 
L -338.955729 -177.043617 
z
" clip-path="url(#pd2ea8f4df5)" style="fill: #eeeeee; stroke: #000000; stroke-width: 0.3"/>
    <path d="M -345.518994 -219.939417 
L -345.351349 -220.638021 
L -345.129891 -219.628068 
z
" clip-path="url(#pd2ea8f4df5)" style="fill: #eeeeee; stroke: #000000; stroke-width: 0.3"/>
    <path d="M -361.352084 -236.337618 
L -361.000291 -236.693224 
L -360.877004 -236.228913 
z
" clip-path="url(#pd2ea8f4df5)" style="fill: #eeeeee; stroke: #000000; stroke-width: 0.3"/>
    <path d="M -367.92039 -27.346412 
L -366.620111 -27.778356 
L -366.564747 -27.612443 
z
" clip-path="url(#pd2ea8f4df5)" style="fill: #eeeeee; stroke: #000000; stroke-width: 0.3"/>
    <path d="M -375.277787 -199.020391 
L -374.266052 -198.655822 
L -374.304968 -198.349628 
z
" clip-path="url(#pd2ea8f4df5)" style="fill: #eeeeee; stroke: #000000; stroke-width: 0.3"/>
    <path d="M -381.76582 -206.364244 
L -381.695071 -206.584778 
L -381.283449 -206.541562 
z
" clip-path="url(#pd2ea8f4df5)" style="fill: #eeeeee; stroke: #000000; stroke-width: 0.3"/>
    <path d="M -384.582062 -146.316586 
L -384.556508 -146.296128 
L -384.573532 -146.291745 
z
" clip-path="url(#pd2ea8f4df5)" style="fill: #eeeeee; stroke: #000000; stroke-width: 0.3"/>
    <path d="M -391.018446 -245.658518 
L -390.788982 -245.841369 
L -390.694144 -245.612213 
z
" clip-path="url(#pd2ea8f4df5)" style="fill: #eeeeee; stroke: #000000; stroke-width: 0.3"/>
    <path d="M -410.594233 -280.314966 
L -410.494615 -279.85678 
L -410.562364 -279.850044 
z
" clip-path="url(#pd2ea8f4df5)" style="fill: #eeeeee; stroke: #000000; stroke-width: 0.3"/>
    <path d="M 77.961342 16.425669 
L 79.401776 -20.34491 
L 81.224389 -21.389134 
L 84.330605 -19.444543 
L 90.323096 -29.560519 
L 94.230352 -30.04915 
L 92.710028 -28.059745 
L 93.99187 -28.135741 
L 93.285651 -26.858194 
L 97.842331 -28.146715 
L 96.97499 -26.958331 
L 97.873554 -27.39904 
L 98.072283 -25.17721 
L 94.511413 -14.294626 
L 96.611597 -12.638482 
L 94.536252 -9.542544 
L 95.77834 -2.850738 
L 93.514906 5.098137 
L 94.100453 2.62416 
L 90.169806 9.647036 
L 86.620989 10.385946 
L 82.926243 16.681857 
z
" clip-path="url(#pd2ea8f4df5)" style="fill: #eeeeee; stroke: #000000; stroke-width: 0.3"/>
    <path d="M 99.372562 -19.651875 
L 102.019274 -24.450729 
L 101.010696 -21.093124 
L 100.671428 -20.378355 
L 100.126331 -19.854322 
z
" clip-path="url(#pd2ea8f4df5)" style="fill: #eeeeee; stroke: #000000; stroke-width: 0.3"/>
    <path d="M 102.58921 -8.691822 
L 102.770915 -10.290219 
L 102.956161 -8.691822 
z
" clip-path="url(#pd2ea8f4df5)" style="fill: #eeeeee; stroke: #000000; stroke-width: 0.3"/>
    <path d="M 101.43514 -24.949904 
L 101.714787 -24.947712 
L 101.486946 -24.55744 
z
" clip-path="url(#pd2ea8f4df5)" style="fill: #eeeeee; stroke: #000000; stroke-width: 0.3"/>
    <path d="M 100.811967 -8.446249 
L 103.206696 -12.996603 
L 103.242193 -12.366613 
z
" clip-path="url(#pd2ea8f4df5)" style="fill: #eeeeee; stroke: #000000; stroke-width: 0.3"/>
    <path d="M 100.281766 -23.15197 
L 100.63949 -23.269655 
L 100.33216 -22.989003 
z
" clip-path="url(#pd2ea8f4df5)" style="fill: #eeeeee; stroke: #000000; stroke-width: 0.3"/>
    <path d="M 99.802692 -22.796777 
L 100.183823 -22.839903 
L 99.853782 -22.683492 
z
" clip-path="url(#pd2ea8f4df5)" style="fill: #eeeeee; stroke: #000000; stroke-width: 0.3"/>
    <path d="M 98.55919 -13.547687 
L 98.594669 -14.331178 
L 98.765716 -13.373746 
z
" clip-path="url(#pd2ea8f4df5)" style="fill: #eeeeee; stroke: #000000; stroke-width: 0.3"/>
    <path d="M 97.483892 -12.65384 
L 98.349088 -12.252592 
L 98.185855 -11.72344 
z
" clip-path="url(#pd2ea8f4df5)" style="fill: #eeeeee; stroke: #000000; stroke-width: 0.3"/>
    <path d="M 97.096359 -15.871828 
L 98.289467 -16.630478 
L 97.721659 -15.688385 
z
" clip-path="url(#pd2ea8f4df5)" style="fill: #eeeeee; stroke: #000000; stroke-width: 0.3"/>
   </g>
   <g id="PatchCollection_2">
    <path d="M 62.92896 55.268116 
L 64.242967 51.576082 
L 67.506938 49.38229 
L 69.045612 49.767479 
L 70.053824 47.389902 
L 72.937849 46.280711 
L 71.89899 43.22648 
L 75.141315 42.443995 
L 79.400869 44.133781 
L 80.21213 43.331359 
L 84.899389 48.640183 
L 90.732329 50.736533 
L 90.863937 53.116426 
L 97.342743 50.600544 
L 99.262705 52.844001 
L 102.706498 51.954787 
L 104.699948 53.766623 
L 103.194155 58.835047 
L 104.393909 60.128041 
L 102.350728 60.485264 
L 101.731812 61.84468 
L 103.194643 63.250131 
L 100.782157 65.556005 
L 93.861971 65.413496 
L 93.385024 65.279735 
L 93.806624 64.86534 
L 93.277836 64.298199 
L 92.294115 65.323598 
L 91.687984 63.83263 
L 89.087409 63.306405 
L 86.922633 63.562935 
L 89.458616 63.684266 
L 91.476469 65.3828 
L 85.825339 63.999998 
L 77.700707 59.921768 
L 67.991979 58.942117 
z
" clip-path="url(#pd2ea8f4df5)" style="fill: #ff6b6b; stroke: #dd0000; stroke-width: 0.5"/>
    <path d="M 104.359755 65.458275 
L 104.656707 64.602434 
L 104.881601 65.390308 
z
" clip-path="url(#pd2ea8f4df5)" style="fill: #ff6b6b; stroke: #dd0000; stroke-width: 0.5"/>
    <path d="M 103.364487 64.065073 
L 103.866534 64.293511 
L 103.649926 64.556434 
z
" clip-path="url(#pd2ea8f4df5)" style="fill: #ff6b6b; stroke: #dd0000; stroke-width: 0.5"/>
   </g>
  </g>
 </g>
 <defs>
  <clipPath id="pd2ea8f4df5">
   <rect x="0" y="0" width="167.810561" height="108"/>
  </clipPath>
 </defs>
</svg>
