<?xml version="1.0" encoding="utf-8" standalone="no"?>
<!DOCTYPE svg PUBLIC "-//W3C//DTD SVG 1.1//EN"
  "http://www.w3.org/Graphics/SVG/1.1/DTD/svg11.dtd">
<svg xmlns:xlink="http://www.w3.org/1999/xlink" width="154.609476pt" height="108pt" viewBox="0 0 154.609476 108" xmlns="http://www.w3.org/2000/svg" version="1.1">
 <metadata>
  <rdf:RDF xmlns:dc="http://purl.org/dc/elements/1.1/" xmlns:cc="http://creativecommons.org/ns#" xmlns:rdf="http://www.w3.org/1999/02/22-rdf-syntax-ns#">
   <cc:Work>
    <dc:type rdf:resource="http://purl.org/dc/dcmitype/StillImage"/>
    <dc:date>2025-09-05T15:49:27.942119</dc:date>
    <dc:format>image/svg+xml</dc:format>
    <dc:creator>
     <cc:Agent>
      <dc:title>Matplotlib v3.10.3, https://matplotlib.org/</dc:title>
     </cc:Agent>
    </dc:creator>
   </cc:Work>
  </rdf:RDF>
 </metadata>
 <defs>
  <style type="text/css">*{stroke-linejoin: round; stroke-linecap: butt}</style>
 </defs>
 <g id="figure_1">
  <g id="patch_1">
   <path d="M 0 108 
L 154.609476 108 
L 154.609476 0 
L 0 0 
z
" style="fill: #ffffff"/>
  </g>
  <g id="axes_1">
   <g id="PatchCollection_1">
    <path d="M -151.720551 89.776151 
L -147.586557 87.39949 
L -147.153641 83.715907 
L -145.254519 80.593863 
L -142.450078 79.640291 
L -140.359776 83.147293 
L -138.332671 83.071364 
L -137.50793 85.935584 
L -138.661314 87.221132 
L -137.18878 89.320748 
L -137.447897 91.215505 
L -134.706638 90.804064 
L -134.006716 92.23795 
L -129.657067 92.531073 
L -125.786134 94.591836 
L -116.931991 93.532315 
L -111.206178 95.541871 
L -108.635569 94.270453 
L -108.978414 91.870641 
L -106.087081 91.231395 
L -104.349101 88.25769 
L -98.037133 86.398249 
L -98.040282 23.69607 
L -92.178597 28.492158 
L -87.719935 35.917587 
L -88.004321 38.524 
L -84.893358 47.254421 
L -88.503599 53.438451 
L -87.196962 60.247615 
L -83.8806 58.679537 
L -72.310483 59.756708 
L -70.815829 58.755466 
L -70.536182 56.597588 
L -66.300284 55.56279 
L -63.386815 50.938004 
L -58.849149 48.554082 
L -56.185319 44.741604 
L -54.270391 36.145391 
L -51.426448 33.041014 
L -44.874319 32.746114 
L -37.758125 38.675875 
L -33.803464 38.619355 
L -31.427186 40.770177 
L -26.442386 41.992149 
L -14.312958 40.076188 
L -12.343532 38.50987 
L -8.553177 28.204314 
L -8.046011 23.621901 
L 0.147712 21.651215 
L 2.086335 18.675733 
L 6.794652 15.377108 
L 8.751436 6.033052 
L 11.201185 2.723835 
L 17.644301 -0.082123 
L 18.548031 -2.543734 
L 20.774221 -2.474861 
L 29.15437 -13.015278 
L 38.49041 -15.581078 
L 40.419555 -19.506578 
L 49.938871 -21.171789 
L 60.235539 -17.442296 
L 72.734671 -17.926147 
L 74.81866 -16.543466 
L 78.601111 -3.564402 
L 78.467593 1.558365 
L 83.402633 9.653948 
L 85.483457 18.068283 
L 85.624068 38.806547 
L 84.036193 44.73453 
L 76.539242 40.5 
L 72.233818 43.473705 
L 67.414135 51.801501 
L 67.381742 58.831395 
L 68.570668 58.204519 
L 69.693233 62.101777 
L 72.571939 65.453367 
L 78.451006 67.408181 
L 85.203794 67.5 
L 85.537176 58.820802 
L 99.3416 59.467309 
L 98.916128 62.392798 
L 91.683095 88.328698 
L 85.946688 92.59318 
L 86.760315 92.946359 
L 85.873294 93.986403 
L 82.158504 94.940248 
L 75.98169 101.950853 
L 70.420687 111.686719 
L 71.292788 111.575491 
L 56.074074 134.517763 
L 46.120266 142.015021 
L 32.9269 157.13469 
L 10.796122 173.58638 
L 1.244151 177.66871 
L -9.314278 177.315548 
L -11.628246 179.221838 
L -10.65788 182.293325 
L -22.041127 181.44237 
L -23.856215 185.210476 
L -42.180129 181.349218 
L -45.980771 182.229373 
L -45.652342 183.576704 
L -58.259753 181.595321 
L -64.595798 183.117866 
L -64.924227 184.743284 
L -67.993349 185.519147 
L -70.411821 188.21104 
L -74.251033 187.65765 
L -77.792895 188.95075 
L -83.793051 187.855093 
L -85.44767 188.497483 
L -84.89903 189.6418 
L -90.37791 189.734969 
L -97.51763 195.688837 
L -103.058729 194.922696 
L -106.948939 191.979147 
L -108.505261 192.251664 
L -107.537387 190.246653 
L -108.604796 188.686571 
L -111.219829 188.540573 
L -110.905082 186.72605 
L -115.831592 188.135965 
L -115.21205 184.264969 
L -116.100325 183.226309 
L -121.018136 183.522473 
L -121.14502 187.63262 
L -123.496319 184.387337 
L -123.518715 182.19322 
L -120.926062 179.029966 
L -123.631916 172.799393 
L -129.019991 166.353302 
L -126.382562 167.982906 
L -127.758496 165.188123 
L -129.831126 165.240952 
L -130.730591 161.592428 
L -128.828397 159.54571 
L -126.514428 160.733152 
L -123.799876 157.92306 
L -122.989979 151.97336 
L -124.098449 145.691343 
L -139.307211 119.295222 
L -146.307589 97.993658 
z
M 9.286257 107.655662 
L 15.08317 115.790987 
L 14.850913 118.667577 
L 16.164659 118.651687 
L 20.620952 123.610226 
L 25.744803 124.60969 
L 26.457367 121.166264 
L 28.185854 119.372159 
L 27.607587 118.180206 
L 30.408863 115.81747 
L 36.703465 114.881564 
L 42.032699 111.982029 
L 41.56661 109.084253 
L 46.491377 102.117934 
L 44.59383 97.802161 
L 39.534781 94.713674 
L 34.23713 88.934012 
L 26.90924 91.181966 
L 24.747837 94.190987 
L 20.67941 94.706618 
L 14.607587 104.473597 
z
" clip-path="url(#p3c0a7df837)" style="fill: #eeeeee; stroke: #000000; stroke-width: 0.3"/>
    <path d="M 171.328493 402.934103 
L 172.251607 400.881815 
L 174.6763 401.14878 
L 175.818356 401.930213 
L 174.453597 403.226098 
z
" clip-path="url(#p3c0a7df837)" style="fill: #eeeeee; stroke: #000000; stroke-width: 0.3"/>
    <path d="M 175.288382 397.594809 
L 175.889258 396.971897 
L 177.072376 397.244414 
L 176.473976 397.906265 
z
" clip-path="url(#p3c0a7df837)" style="fill: #eeeeee; stroke: #000000; stroke-width: 0.3"/>
    <path d="M -98.087688 -23.32085 
L -82.701947 -23.947726 
L -82.850461 -86.219019 
L -47.419643 -91.693188 
L -42.57229 -83.513731 
L -31.248647 -92.42603 
L -27.979691 -90.773173 
L -22.034278 -95.29025 
L -17.349657 -95.193117 
L -17.422347 -91.656112 
L -6.940032 -75.93465 
L -6.819952 -72.824977 
L -3.656859 -65.411883 
L -1.394332 -64.726728 
L -1.261625 -63.460606 
L 4.879724 -58.744001 
L 12.337967 -55.915098 
L 13.356259 -49.033542 
L 19.925769 -48.805738 
L 19.443888 -39.201227 
L 24.393925 -30.988214 
L 33.952743 -29.361856 
L 40.419555 -26.785463 
L 40.447209 -22.974727 
L 45.179221 -20.142287 
L 40.419555 -19.506578 
L 38.763744 -15.800048 
L 37.027369 -14.910052 
L 29.15437 -13.015278 
L 20.774221 -2.474861 
L 18.548031 -2.543734 
L 17.644301 -0.082123 
L 11.201185 2.723835 
L 8.751436 6.033052 
L 6.794652 15.377108 
L 2.086335 18.675733 
L 0.147712 21.651215 
L -8.046011 23.621901 
L -8.553177 28.204314 
L -12.343532 38.50987 
L -14.312958 40.076188 
L -26.442386 41.992149 
L -31.427186 40.770177 
L -33.803464 38.619355 
L -37.758125 38.675875 
L -44.874319 32.746114 
L -51.426448 33.041014 
L -54.270391 36.145391 
L -56.321191 44.957038 
L -58.849149 48.554082 
L -63.386815 50.938004 
L -66.300284 55.56279 
L -70.536182 56.597588 
L -70.815829 58.755466 
L -72.310483 59.756708 
L -83.8806 58.679537 
L -87.196962 60.247615 
L -88.503599 53.438451 
L -84.893358 47.254421 
L -88.004321 38.524 
L -87.719935 35.917587 
L -92.178597 28.492158 
L -98.040282 23.69607 
z
" clip-path="url(#p3c0a7df837)" style="fill: #eeeeee; stroke: #000000; stroke-width: 0.3"/>
    <path d="M 58.393286 -143.249244 
L 104.074957 -159.781237 
L 110.834058 -149.737025 
L 111.989017 -151.651209 
L 117.039399 -151.55763 
L 121.523346 -153.399422 
L 124.184011 -149.639892 
L 124.962937 -138.299539 
L 119.828033 -127.729103 
L 122.447637 -124.82603 
L 122.782578 -121.16717 
L 130.105744 -113.189 
L 133.358893 -111.606792 
L 132.559437 -106.884891 
L 136.013245 -106.551138 
L 135.803108 -113.874155 
L 133.567456 -116.660686 
L 137.277232 -123.43807 
L 139.416499 -122.918903 
L 143.552862 -125.124467 
L 144.399724 -135.804388 
L 143.538645 -139.996529 
L 145.374569 -144.865008 
L 144.502423 -148.905308 
L 132.835936 -165.071752 
L 129.457952 -168.29091 
L 126.056273 -168.691759 
L 124.599546 -171.538329 
L 123.82221 -182.445166 
L 121.675025 -190.781795 
L 125.691308 -201.394621 
L 139.675616 -200.806581 
L 144.183273 -204.211171 
L 149.406644 -201.387547 
L 149.890115 -199.289709 
L 156.402757 -198.950659 
L 159.374684 -201.475846 
L 162.61993 -201.624185 
L 164.289958 -199.747077 
L 169.304781 -198.982456 
L 174.613485 -202.159242 
L 176.465216 -206.423792 
L 181.334674 -206.540334 
L 184.937012 -204.211171 
L 191.113108 -208.410385 
L 196.339643 -208.299123 
L 200.319589 -211.435296 
L 204.711905 -212.427705 
L 215.790342 -220.199086 
L 215.730615 -218.684896 
L 217.998569 -216.62427 
L 215.405916 -215.339491 
L 217.468594 -213.993544 
L 215.57013 -212.03164 
L 215.729377 -210.639801 
L 216.640031 -211.037472 
L 215.729377 -208.073044 
L 213.318365 -205.858083 
L 215.107343 -204.694288 
L 214.522625 -200.168394 
L 215.938382 -196.939787 
L 216.010538 -190.695324 
L 214.883402 -189.685864 
L 216.562908 -187.57516 
L 215.296445 -185.628547 
L 216.577828 -185.133556 
L 217.874162 -181.097101 
L 214.26759 -178.093752 
L 215.37606 -176.729729 
L 215.632334 -177.992246 
L 217.085407 -177.519501 
L 216.042885 -168.380132 
L 217.085407 -167.447148 
L 216.231987 -166.230507 
L 217.931382 -159.472959 
L 216.219543 -157.207936 
L 217.028187 -155.519933 
L 218.630555 -156.899248 
L 219.391915 -155.389227 
L 219.182909 -154.21014 
L 217.712424 -154.21014 
L 217.607921 -150.341928 
L 218.695234 -152.636168 
L 220.23789 -153.000453 
L 220.866146 -152.08276 
L 219.619587 -150.878643 
L 220.65341 -151.051055 
L 220.949491 -147.972614 
L 219.088374 -144.864991 
L 217.816927 -145.430888 
L 219.817387 -142.971208 
L 218.242399 -143.331324 
L 218.869416 -141.686428 
L 216.057806 -140.693661 
L 215.823928 -139.821861 
L 217.699981 -140.119409 
L 218.406613 -138.951445 
L 216.880147 -134.524273 
L 208.97905 -126.031463 
L 210.046459 -126.077339 
L 207.869341 -122.046453 
L 204.674559 -120.687983 
L 205.050271 -119.201609 
L 205.784282 -118.503605 
L 194.673483 -111.018871 
L 194.082543 -109.037489 
L 187.546206 -108.324193 
L 180.054407 -103.848361 
L 178.647364 -105.502979 
L 179.367678 -103.869206 
L 165.021065 -96.139753 
L 161.881026 -91.463693 
L 160.411779 -93.707871 
L 159.568296 -93.76627 
L 161.776523 -90.879719 
L 154.06702 -82.168605 
L 153.066782 -78.265623 
L 150.477875 -79.815967 
L 150.918282 -76.453886 
L 149.080783 -76.289811 
L 148.729959 -77.99449 
L 144.625775 -75.420779 
L 133.488849 -62.543905 
L 129.716824 -59.838104 
L 125.844042 -64.408489 
L 124.720636 -64.640701 
L 128.15055 -60.664029 
L 127.105521 -59.487727 
L 128.109489 -54.904818 
L 126.280703 -54.915958 
L 127.626782 -53.633964 
L 126.051794 -51.07833 
L 127.213754 -49.525201 
L 126.479757 -48.258516 
L 127.57453 -48.544941 
L 129.599878 -45.32052 
L 131.448567 -45.028525 
L 132.125343 -41.470385 
L 133.386838 -40.992069 
L 131.801883 -38.519865 
L 132.655318 -34.917234 
L 133.491341 -37.365809 
L 133.386838 -33.973127 
L 135.693346 -29.412481 
L 136.223321 -16.692727 
L 137.574383 -14.999154 
L 138.298428 -21.289526 
L 139.206591 -21.520338 
L 139.45915 -18.033104 
L 139.980411 -20.271712 
L 139.032424 -11.542521 
L 139.772643 -7.152903 
L 140.816418 -7.703525 
L 138.865718 -3.224908 
L 137.518386 6.533203 
L 137.384028 5.331871 
L 136.753296 5.30684 
L 136.631365 10.233172 
L 137.361647 8.180884 
L 138.675378 8.791289 
L 138.824672 7.121363 
L 139.612159 7.473141 
L 139.145641 12.570501 
L 133.177832 21.054973 
L 105.213619 32.996096 
L 105.855557 32.236908 
L 99.030583 37.21747 
L 96.191609 43.061494 
L 94.731075 44.481132 
L 93.586527 44.155768 
L 92.978176 44.746712 
L 98.567796 49.942794 
L 100.279634 46.358223 
L 99.3416 59.467309 
L 87.429968 59.362915 
L 86.767959 45.177769 
L 84.913078 44.294829 
L 84.249494 41.815568 
L 85.624068 38.806547 
L 85.483457 18.068283 
L 83.402633 9.653948 
L 78.467593 1.558365 
L 78.601111 -3.564402 
L 74.668555 -16.236213 
L 92.52537 -35.058516 
L 90.883792 -38.127576 
L 93.195284 -41.505667 
L 93.051508 -47.200567 
L 95.958648 -48.417242 
L 99.222865 -55.743796 
L 101.087223 -56.956952 
L 101.477489 -61.191483 
L 100.107654 -63.495939 
L 98.21879 -63.068591 
L 98.410766 -66.031703 
L 97.358506 -66.662115 
L 98.773362 -73.158712 
L 96.100849 -75.35898 
L 96.258841 -77.421502 
L 99.485926 -78.44217 
L 99.000085 -82.521306 
L 101.629947 -85.661016 
L 100.287767 -87.29619 
L 99.865918 -92.138187 
L 101.351079 -98.180969 
L 100.006529 -100.247011 
L 101.306853 -102.856961 
L 98.358622 -109.869189 
L 100.494739 -114.200851 
L 96.868707 -113.736427 
L 95.958648 -115.599405 
L 90.129356 -118.128112 
L 84.31743 -118.518367 
L 81.266515 -122.124262 
L 76.586648 -123.074297 
L 74.376265 -125.44585 
L 61.268843 -125.825512 
L 61.120313 -134.718384 
z
M 126.29012 -192.886707 
L 126.795712 -192.062047 
L 127.917482 -193.501213 
L 126.8747 -194.182849 
z
M 124.58059 -193.995657 
L 125.60599 -192.950266 
L 125.855629 -194.407099 
z
" clip-path="url(#p3c0a7df837)" style="fill: #eeeeee; stroke: #000000; stroke-width: 0.3"/>
    <path d="M 138.198893 -27.041766 
L 138.238716 -28.920258 
L 138.728868 -31.036515 
L 139.052328 -29.451402 
z
" clip-path="url(#p3c0a7df837)" style="fill: #eeeeee; stroke: #000000; stroke-width: 0.3"/>
    <path d="M 205.254874 -120.423547 
L 207.166301 -120.683592 
L 206.128365 -118.723892 
z
" clip-path="url(#p3c0a7df837)" style="fill: #eeeeee; stroke: #000000; stroke-width: 0.3"/>
    <path d="M 99.727264 45.034522 
L 100.710074 44.481132 
L 100.384137 45.76451 
z
" clip-path="url(#p3c0a7df837)" style="fill: #eeeeee; stroke: #000000; stroke-width: 0.3"/>
    <path d="M 67.125789 57.25978 
L 67.414135 51.801501 
L 72.233818 43.473705 
L 76.539242 40.5 
L 83.160102 44.704511 
L 86.767959 45.177769 
L 86.29872 49.857297 
L 87.483687 54.95886 
L 87.429968 59.362915 
L 85.537176 58.820802 
L 85.203794 67.5 
L 78.451006 67.408181 
L 72.571939 65.453367 
z
" clip-path="url(#p3c0a7df837)" style="fill: #eeeeee; stroke: #000000; stroke-width: 0.3"/>
    <path d="M 9.286257 107.655662 
L 14.607587 104.473597 
L 20.67941 94.706618 
L 24.747837 94.190987 
L 26.90924 91.181966 
L 34.23713 88.934012 
L 39.534781 94.713674 
L 44.59383 97.802161 
L 46.491377 102.117934 
L 41.56661 109.084253 
L 42.032699 111.982029 
L 36.703465 114.881564 
L 30.408863 115.81747 
L 27.607587 118.180206 
L 28.185854 119.372159 
L 26.457367 121.166264 
L 25.744803 124.60969 
L 20.620952 123.610226 
L 16.164659 118.651687 
L 14.850913 118.667577 
L 15.08317 115.790987 
z
" clip-path="url(#p3c0a7df837)" style="fill: #eeeeee; stroke: #000000; stroke-width: 0.3"/>
   </g>
   <g id="PatchCollection_2">
    <defs>
     <path id="m2ca746a7d1" d="M 67.125789 -50.74022 
L 67.414135 -56.198499 
L 72.233818 -64.526295 
L 76.539242 -67.5 
L 83.160102 -63.295489 
L 86.767959 -62.822231 
L 86.29872 -58.142703 
L 87.483687 -53.04114 
L 87.429968 -48.637085 
L 85.537176 -49.179198 
L 85.203794 -40.5 
L 78.451006 -40.591819 
L 72.571939 -42.546633 
z
" style="stroke: #dd0000; stroke-width: 0.5"/>
    </defs>
    <g clip-path="url(#p3c0a7df837)">
     <use xlink:href="#m2ca746a7d1" x="0" y="108" style="fill: #ff6b6b; stroke: #dd0000; stroke-width: 0.5"/>
    </g>
   </g>
  </g>
 </g>
 <defs>
  <clipPath id="p3c0a7df837">
   <rect x="0" y="0" width="154.609476" height="108"/>
  </clipPath>
 </defs>
</svg>
