<?xml version="1.0" encoding="utf-8" standalone="no"?>
<!DOCTYPE svg PUBLIC "-//W3C//DTD SVG 1.1//EN"
  "http://www.w3.org/Graphics/SVG/1.1/DTD/svg11.dtd">
<svg xmlns:xlink="http://www.w3.org/1999/xlink" width="119.536972pt" height="108pt" viewBox="0 0 119.536972 108" xmlns="http://www.w3.org/2000/svg" version="1.1">
 <metadata>
  <rdf:RDF xmlns:dc="http://purl.org/dc/elements/1.1/" xmlns:cc="http://creativecommons.org/ns#" xmlns:rdf="http://www.w3.org/1999/02/22-rdf-syntax-ns#">
   <cc:Work>
    <dc:type rdf:resource="http://purl.org/dc/dcmitype/StillImage"/>
    <dc:date>2025-09-05T13:56:17.908800</dc:date>
    <dc:format>image/svg+xml</dc:format>
    <dc:creator>
     <cc:Agent>
      <dc:title>Matplotlib v3.10.3, https://matplotlib.org/</dc:title>
     </cc:Agent>
    </dc:creator>
   </cc:Work>
  </rdf:RDF>
 </metadata>
 <defs>
  <style type="text/css">*{stroke-linejoin: round; stroke-linecap: butt}</style>
 </defs>
 <g id="figure_1">
  <g id="patch_1">
   <path d="M 0 108 
L 119.536972 108 
L 119.536972 0 
L 0 0 
z
" style="fill: #ffffff"/>
  </g>
  <g id="axes_1">
   <g id="PatchCollection_1">
    <path d="M 27.511339 40.231022 
L 27.528562 39.093219 
L 28.433273 38.381033 
L 31.088241 37.709371 
L 31.638797 38.381033 
L 31.826046 37.706722 
L 32.840685 38.034872 
L 33.153617 36.999039 
L 34.439418 36.801726 
L 34.480824 37.31024 
L 35.061981 36.808085 
L 34.908813 37.532717 
L 35.437023 37.132526 
L 36.904025 39.166055 
L 38.553322 37.932375 
L 38.489195 38.381033 
L 39.014289 38.691967 
L 39.740734 38.247813 
L 40.065211 39.136387 
L 39.847182 38.292309 
L 40.22131 37.932375 
L 40.68008 37.843918 
L 40.894988 38.47029 
L 42.873707 38.292309 
L 41.986399 37.616143 
L 41.764344 36.95084 
L 42.191964 35.751066 
L 41.80648 35.781521 
L 41.730633 34.565058 
L 42.009849 34.502552 
L 40.802832 33.472552 
L 40.495762 32.514579 
L 40.699131 31.936146 
L 40.26821 31.25707 
L 41.747486 31.739099 
L 43.294735 31.44326 
L 43.45358 31.908072 
L 43.10016 32.337659 
L 43.925907 33.721774 
L 44.747445 33.416932 
L 47.993642 34.147123 
L 50.833836 33.027864 
L 51.202466 32.757449 
L 50.138356 32.949731 
L 49.326711 32.488094 
L 50.043813 31.223171 
L 54.480542 29.598042 
L 55.830469 28.064024 
L 56.512761 28.208101 
L 55.922811 27.652448 
L 56.232807 27.048584 
L 55.984367 26.826641 
L 56.098694 23.806279 
L 60.336725 22.382504 
L 60.726882 23.205324 
L 60.629156 23.958432 
L 61.529639 24.752919 
L 63.071858 24.390323 
L 63.710339 26.031426 
L 65.228828 26.359713 
L 65.627645 27.52016 
L 67.007452 27.221808 
L 67.882341 27.77882 
L 67.558914 28.627123 
L 67.938184 29.069773 
L 67.585439 29.624097 
L 69.900629 29.56221 
L 70.664762 28.411181 
L 70.918384 28.551443 
L 70.52236 29.732745 
L 70.865798 30.025376 
L 70.815539 30.801025 
L 72.662571 31.470382 
L 73.549096 32.722652 
L 74.855838 32.394033 
L 75.821006 33.097699 
L 77.811378 32.940618 
L 79.211893 34.936246 
L 80.115167 34.62511 
L 80.692218 35.269916 
L 81.736035 35.286735 
L 82.348922 34.870655 
L 83.359694 35.72434 
L 85.905241 36.239982 
L 84.148956 38.476109 
L 83.880902 40.257305 
L 83.137716 41.634872 
L 83.297336 42.665146 
L 82.805445 44.384286 
L 83.139346 45.182957 
L 82.205124 46.185164 
L 80.380425 45.80474 
L 79.900168 46.682978 
L 80.665229 46.843424 
L 78.994102 48.849648 
L 77.991008 49.351666 
L 77.93051 50.545075 
L 76.531156 51.699462 
L 76.242165 52.767241 
L 76.606081 53.086279 
L 76.421331 53.850153 
L 75.794481 54.195937 
L 75.812631 54.648005 
L 76.629815 54.519518 
L 77.264108 53.934581 
L 76.962086 53.44383 
L 77.209657 53.056175 
L 78.172497 52.577368 
L 79.541836 52.801381 
L 79.376632 53.248242 
L 79.724726 53.743191 
L 79.445505 54.510431 
L 80.600079 55.983693 
L 79.60373 56.626813 
L 79.581856 57.331827 
L 81.224133 59.331497 
L 80.750392 60.615387 
L 78.711856 61.332839 
L 79.354295 62.606302 
L 80.532598 63.16433 
L 80.748992 64.057362 
L 80.319927 64.068466 
L 79.761022 65.039203 
L 80.130526 65.67526 
L 79.897841 66.09302 
L 80.423236 66.941661 
L 81.991053 67.69982 
L 83.452769 67.369177 
L 83.607269 68.076879 
L 82.65234 69.390535 
L 82.64577 70.047161 
L 81.183353 70.762263 
L 81.126141 71.41805 
L 80.329936 71.508609 
L 80.023488 72.240733 
L 79.290082 72.369487 
L 78.658562 73.273903 
L 79.120006 73.247379 
L 79.058891 73.712251 
L 77.688139 74.432873 
L 76.867872 74.316154 
L 76.808769 74.79034 
L 75.731984 74.151828 
L 75.3523 74.732364 
L 74.529722 73.853261 
L 73.057619 73.618873 
L 72.819846 72.710395 
L 71.648468 72.840548 
L 71.612951 72.359841 
L 72.514366 71.897944 
L 71.626508 71.388369 
L 71.725441 72.230065 
L 70.901711 72.280919 
L 70.845891 72.799522 
L 70.404831 72.275094 
L 70.335575 71.610312 
L 70.120117 71.254882 
L 70.335944 72.273766 
L 70.68605 72.769731 
L 66.780845 71.50967 
L 63.003322 74.332192 
L 62.678301 77.438629 
L 63.304759 78.724615 
L 62.191389 78.472451 
L 60.968875 79.326468 
L 59.236318 78.743218 
L 57.967732 79.263572 
L 56.691234 78.319574 
L 56.735446 77.563602 
L 55.417528 77.65778 
L 55.027087 76.920482 
L 52.642092 76.120112 
L 51.937061 76.075876 
L 51.879823 77.077895 
L 48.806552 77.073521 
L 47.528424 76.049307 
L 46.419692 76.504063 
L 45.561323 75.372379 
L 43.804105 74.986911 
L 43.191218 74.313511 
L 42.420809 74.73077 
L 42.662333 73.440318 
L 41.679014 73.416437 
L 40.893012 72.58731 
L 41.502896 72.422613 
L 42.331944 71.24853 
L 43.320936 64.89581 
L 43.639361 64.183623 
L 44.27768 64.157932 
L 43.703668 63.449456 
L 43.306829 64.431264 
L 44.095199 58.302342 
L 45.53197 59.883764 
L 45.758059 61.130683 
L 46.574463 62.689864 
L 46.29744 61.845786 
L 46.758591 62.019263 
L 46.028116 61.361108 
L 45.400055 58.900641 
L 43.365638 57.385428 
L 43.741595 56.755346 
L 44.536931 57.336956 
L 43.796009 56.355421 
L 44.259912 55.244638 
L 43.529982 54.361089 
L 43.980507 53.527074 
L 43.398067 53.647054 
L 40.897735 52.2783 
L 40.382173 50.994306 
L 39.441729 50.160023 
L 40.018307 48.757904 
L 38.890803 48.060812 
L 39.232683 47.895549 
L 39.253566 47.223086 
L 41.205539 47.616392 
L 39.930914 46.907121 
L 38.722979 47.384386 
L 37.536112 47.034782 
L 38.012473 46.989753 
L 37.471255 46.49369 
L 38.212176 46.230695 
L 37.748828 45.791039 
L 38.33786 45.693574 
L 37.130843 45.604583 
L 37.277779 45.544199 
L 37.379283 45.38264 
L 36.297216 45.738863 
L 35.88242 45.353505 
L 36.637997 45.399589 
L 36.875807 45.054222 
L 36.896695 44.933188 
L 36.795195 44.804733 
L 35.836614 45.111964 
L 35.587809 44.667543 
L 35.744273 45.338144 
L 34.91871 45.09077 
L 34.880784 45.875526 
L 34.570599 44.825126 
L 34.942345 44.222856 
L 34.603946 44.129895 
L 34.464335 44.715742 
L 33.860642 44.449304 
L 34.201239 44.489562 
L 33.860642 44.360313 
L 34.201239 43.86345 
L 33.463618 44.402159 
L 30.375898 42.974609 
L 30.13717 43.693949 
L 29.296947 43.734208 
L 29.014065 42.637724 
L 27.692536 42.215018 
L 29.686096 41.728224 
L 29.26342 40.966778 
L 28.460938 41.325917 
L 28.150941 40.610814 
L 28.50949 40.221747 
L 28.649834 40.553607 
L 29.758283 40.602073 
L 30.126913 40.477595 
L 28.928136 40.29617 
L 29.665761 39.670065 
z
M 57.750873 78.596063 
L 57.98495 78.643826 
L 57.791825 78.397272 
z
" clip-path="url(#p8310745ea3)" style="fill: #eeeeee; stroke: #000000; stroke-width: 0.3"/>
    <path d="M 87.475679 79.078587 
L 87.972924 78.735075 
L 88.196446 77.763336 
L 90.036652 76.768556 
L 90.821547 77.141201 
L 91.067051 74.999877 
L 91.595446 75.088868 
L 91.500173 77.363678 
L 91.883825 77.865039 
L 92.025632 80.579232 
L 91.321354 81.839397 
L 91.314393 83.443861 
L 90.821547 83.964827 
L 91.084643 84.259072 
L 90.454749 85.12461 
L 90.510812 85.617496 
L 88.568372 84.389115 
L 89.157954 83.520667 
L 87.953134 83.161 
L 88.629933 82.13894 
L 87.769186 82.178931 
L 87.643138 81.735045 
L 88.357673 81.164819 
L 87.550797 80.175597 
L 88.100075 79.756608 
z
" clip-path="url(#p8310745ea3)" style="fill: #eeeeee; stroke: #000000; stroke-width: 0.3"/>
    <path d="M 41.976506 53.858407 
L 43.091916 54.15027 
L 43.212106 54.480542 
L 42.208638 54.145505 
z
" clip-path="url(#p8310745ea3)" style="fill: #eeeeee; stroke: #000000; stroke-width: 0.3"/>
    <path d="M 91.561734 77.319183 
L 91.676791 77.496898 
L 91.652972 77.503517 
z
" clip-path="url(#p8310745ea3)" style="fill: #eeeeee; stroke: #000000; stroke-width: 0.3"/>
    <path d="M 76.746259 75.026362 
L 76.786567 74.965711 
L 77.13358 75.007024 
z
" clip-path="url(#p8310745ea3)" style="fill: #eeeeee; stroke: #000000; stroke-width: 0.3"/>
    <path d="M 42.655867 55.151143 
L 43.364175 55.485652 
L 43.537128 56.70688 
z
" clip-path="url(#p8310745ea3)" style="fill: #eeeeee; stroke: #000000; stroke-width: 0.3"/>
    <path d="M 38.645294 48.772204 
L 39.07585 48.829679 
L 39.334547 49.57497 
z
" clip-path="url(#p8310745ea3)" style="fill: #eeeeee; stroke: #000000; stroke-width: 0.3"/>
    <path d="M 38.2523 50.793549 
L 38.633754 50.809704 
L 38.765484 50.957758 
z
" clip-path="url(#p8310745ea3)" style="fill: #eeeeee; stroke: #000000; stroke-width: 0.3"/>
    <path d="M 34.293765 46.49369 
L 35.172094 47.022864 
L 34.467636 46.956381 
z
" clip-path="url(#p8310745ea3)" style="fill: #eeeeee; stroke: #000000; stroke-width: 0.3"/>
    <path d="M 103.356908 27.409833 
L 103.686387 27.432367 
L 104.366752 28.414546 
L 105.311442 26.930856 
L 107.303205 26.830618 
L 107.560087 26.254437 
L 109.533704 25.573643 
L 110.022799 24.861228 
L 113.579821 23.732063 
L 113.738977 23.467349 
L 113.092586 23.066403 
L 113.3141 22.712555 
L 114.190381 22.710199 
L 114.605488 23.111816 
L 114.497522 23.524531 
L 114.852595 23.468358 
L 114.780462 23.957424 
L 116.441354 23.869637 
L 116.346419 23.000141 
L 117.172441 22.877037 
L 117.736929 23.260487 
L 118.125511 24.413866 
L 120.089352 24.62712 
L 120.896296 25.044209 
L 120.943763 25.532265 
L 122.518096 25.269231 
L 122.942505 25.767044 
L 121.923358 26.816832 
L 122.572542 27.05329 
L 123.999353 28.855848 
L 125.594159 28.039167 
L 125.045493 26.64327 
L 127.437472 27.895539 
L 128.715365 27.436741 
L 128.8936 28.045558 
L 128.18159 28.398736 
L 128.376579 28.769071 
L 129.306843 29.632845 
L 130.176144 29.442802 
L 130.04119 29.156895 
L 131.347004 30.061364 
L 132.548114 30.065406 
L 132.811512 31.323729 
L 133.580291 31.618384 
L 133.781795 32.64899 
L 132.442008 32.834997 
L 130.753199 34.286395 
L 130.370201 35.663123 
L 128.801921 36.862585 
L 126.281502 36.883101 
L 125.280038 38.546745 
L 124.955678 37.799351 
L 123.364127 37.235608 
L 122.63816 37.745535 
L 121.409129 37.643949 
L 120.207556 36.801368 
L 116.540012 35.90665 
L 116.250089 37.514115 
L 115.623238 37.424981 
L 115.061546 38.728547 
L 114.082415 38.29279 
L 113.441143 38.847785 
L 112.203269 38.566252 
L 110.257344 36.320706 
L 109.440629 36.230902 
L 107.51588 34.050608 
L 105.911763 33.174727 
L 104.741371 31.135033 
L 105.3738 30.079869 
L 104.125692 29.168664 
L 103.372267 27.881415 
z
" clip-path="url(#p8310745ea3)" style="fill: #eeeeee; stroke: #000000; stroke-width: 0.3"/>
    <path d="M 75.359364 22.82641 
L 76.660991 21.961288 
L 76.252868 21.57431 
L 76.933696 20.428996 
L 76.868547 19.637035 
L 75.689307 17.643256 
L 76.701016 17.47138 
L 76.56978 17.115508 
L 77.551235 17.607769 
L 79.346847 17.039997 
L 79.641426 16.576486 
L 79.059252 16.049747 
L 80.619157 14.942114 
L 80.717815 14.067066 
L 80.380425 13.505347 
L 79.216544 13.439086 
L 79.022487 12.917554 
L 79.316598 12.312108 
L 80.583789 12.368782 
L 81.368859 9.947324 
L 81.376828 8.339501 
L 81.64762 7.854562 
L 82.151092 7.963412 
L 80.606959 7.484299 
L 80.732278 6.597841 
L 81.139015 6.43787 
L 80.891308 6.11449 
L 81.518636 5.596174 
L 85.144819 5.325498 
L 85.759687 6.333518 
L 85.35002 6.883618 
L 85.927881 7.261028 
L 86.422194 6.843093 
L 86.044406 6.515737 
L 86.222122 5.94525 
L 87.489236 6.396023 
L 87.209651 6.768402 
L 87.274508 7.603745 
L 87.550797 6.375898 
L 87.192063 5.375285 
L 87.649 4.268739 
L 90.454749 4.258676 
L 92.12823 6.085617 
L 93.252438 6.396023 
L 92.134093 5.947893 
L 91.285445 4.525381 
L 90.666911 4.170219 
L 89.436809 4.095528 
L 89.127907 3.832793 
L 88.755616 3.18815 
L 89.493606 3.228669 
L 89.588509 2.788225 
L 88.663275 2.250577 
L 89.340069 1.358027 
L 88.058299 1.673198 
L 87.704329 1.224807 
L 89.558098 0.129645 
L 88.104469 -1.360671 
L 87.978597 -2.408708 
L 90.604968 -1.793355 
L 92.117239 -2.213224 
L 93.215061 -1.500249 
L 93.772399 -1.648563 
L 94.090829 -1.138988 
L 93.691054 -0.961013 
L 94.184633 -0.914923 
L 94.129669 -0.219425 
L 93.288716 0.331729 
L 94.654399 0.223934 
L 94.926653 0.424691 
L 94.647068 1.313798 
L 95.44222 0.5399 
L 97.301482 1.406232 
L 99.121539 0.913606 
L 98.811173 1.091321 
L 98.811173 2.228329 
L 97.397488 3.099159 
L 98.070617 3.676799 
L 99.29962 3.308124 
L 100.572232 4.036199 
L 101.616922 2.415046 
L 103.410958 2.162113 
L 103.426718 2.68334 
L 103.531882 2.788225 
L 103.504398 2.234155 
L 105.417895 0.247243 
L 107.16173 0.603733 
L 105.824631 0.672592 
L 105.387114 1.00233 
L 104.988438 0.90301 
L 104.674776 1.673198 
L 106.079663 0.750986 
L 106.862361 1.096086 
L 107.556377 0.574065 
L 108.034198 1.602751 
L 109.694126 2.831126 
L 110.722327 2.295072 
L 111.155445 2.74399 
L 110.876225 3.18815 
L 111.596258 3.795978 
L 111.20235 4.219479 
L 111.195753 4.382626 
L 113.21038 5.042103 
L 112.97733 5.325498 
L 114.007959 8.295116 
L 113.565394 9.617852 
L 112.670031 10.195218 
L 112.577424 10.906454 
L 114.922864 12.688158 
L 114.475184 13.955899 
L 115.227214 14.907805 
L 115.109941 15.655531 
L 115.447796 15.944302 
L 114.657142 17.719782 
L 115.317497 18.667139 
L 115.216511 19.500978 
L 116.321289 20.118199 
L 116.621447 21.411175 
L 116.320821 22.535459 
L 115.438025 24.187835 
L 114.780462 23.957424 
L 114.852595 23.468358 
L 114.497522 23.524531 
L 114.605488 23.111816 
L 114.190381 22.710199 
L 113.3141 22.712555 
L 113.092586 23.066403 
L 113.738977 23.467349 
L 113.579821 23.732063 
L 110.022799 24.861228 
L 109.533704 25.573643 
L 107.560087 26.254437 
L 107.303205 26.830618 
L 105.311442 26.930856 
L 104.366752 28.414546 
L 104.093115 27.791266 
L 103.356908 27.409833 
L 104.125692 29.168664 
L 105.3738 30.079869 
L 104.741371 31.135033 
L 105.911763 33.174727 
L 107.51588 34.050608 
L 108.320496 35.199951 
L 109.583031 36.328107 
L 110.257344 36.320706 
L 111.189706 37.490572 
L 110.742954 39.083573 
L 109.563485 38.746707 
L 109.342903 40.028078 
L 106.341296 41.740826 
L 107.477252 43.474434 
L 107.030504 44.278671 
L 107.841168 44.69576 
L 107.525187 45.954922 
L 106.52139 45.376886 
L 106.445074 44.647658 
L 105.250012 44.894713 
L 104.088927 44.569284 
L 104.10475 44.223507 
L 103.795749 45.049777 
L 101.305111 45.150184 
L 99.578606 46.423979 
L 98.418917 46.446181 
L 97.874903 45.534136 
L 95.941311 45.232419 
L 95.937123 46.410356 
L 94.728571 47.22351 
L 94.951013 46.56374 
L 94.381874 46.651025 
L 93.765262 45.468376 
L 93.02766 45.158255 
L 92.264459 45.591317 
L 90.331799 44.624447 
L 88.973398 44.717454 
L 87.516802 43.773457 
L 86.765236 44.656738 
L 87.737852 44.716445 
L 87.588471 45.132018 
L 86.052299 44.939957 
L 85.1937 45.33955 
L 83.246145 45.31231 
L 83.470914 45.10511 
L 83.139346 45.182957 
L 82.805445 44.384286 
L 83.297336 42.665146 
L 83.107467 41.734102 
L 83.880902 40.257305 
L 84.148956 38.476109 
L 85.905241 36.239982 
L 83.359694 35.72434 
L 82.348922 34.870655 
L 81.736035 35.286735 
L 80.692218 35.269916 
L 80.115167 34.62511 
L 79.264943 34.957771 
L 78.301869 33.20567 
L 77.55277 33.006411 
L 78.260917 30.791268 
L 77.360438 30.535634 
L 76.432034 29.144782 
L 76.659132 28.068092 
L 77.68433 27.407815 
L 77.514939 26.330448 
L 76.767097 26.089955 
L 77.119378 25.461968 
L 75.876385 24.372495 
L 76.284977 23.554127 
z
" clip-path="url(#p8310745ea3)" style="fill: #eeeeee; stroke: #000000; stroke-width: 0.3"/>
    <path d="M 108.036764 1.224807 
L 108.718322 0.913606 
L 108.223644 0.647168 
L 108.74654 0.287234 
L 108.162452 -0.108453 
L 108.857932 0.042776 
L 109.180023 -0.383367 
L 109.087686 0.016818 
L 109.800024 0.247243 
L 109.861585 -0.289878 
L 109.504315 -0.201415 
L 109.178924 -0.558966 
L 108.657131 -0.249887 
L 108.838147 -0.755218 
L 108.55673 -0.826993 
L 109.276394 -1.053974 
L 109.428463 -0.383367 
L 110.536547 -0.260217 
L 110.107823 0.353977 
L 110.967832 1.180312 
L 110.772892 1.613341 
L 110.294703 1.358027 
L 110.627789 1.135816 
L 109.766678 1.180312 
L 109.136054 1.632413 
L 109.350413 1.939903 
z
" clip-path="url(#p8310745ea3)" style="fill: #eeeeee; stroke: #000000; stroke-width: 0.3"/>
    <path d="M 110.907005 2.428552 
L 111.186225 2.295072 
L 112.965241 3.825907 
L 112.923663 4.218437 
L 111.299454 4.399843 
L 111.711684 4.080694 
L 111.589297 3.455116 
L 112.237143 3.810285 
L 112.250336 3.39235 
L 111.776545 2.991891 
L 111.002277 3.277134 
L 111.186225 2.766238 
z
" clip-path="url(#p8310745ea3)" style="fill: #eeeeee; stroke: #000000; stroke-width: 0.3"/>
    <path d="M 86.284048 -1.406754 
L 86.345244 -2.514362 
L 86.686025 -3.311302 
L 86.875466 -3.508875 
L 87.08983 -3.413532 
L 86.75198 -2.395176 
L 87.950203 -2.391205 
L 86.386286 -2.207398 
z
" clip-path="url(#p8310745ea3)" style="fill: #eeeeee; stroke: #000000; stroke-width: 0.3"/>
    <path d="M 100.202872 3.54358 
L 100.432257 3.27608 
L 100.753249 3.277134 
L 100.572232 3.676799 
z
" clip-path="url(#p8310745ea3)" style="fill: #eeeeee; stroke: #000000; stroke-width: 0.3"/>
    <path d="M 88.663275 0.287234 
L 88.805817 0.042509 
L 89.340069 0.016818 
L 89.00149 0.376225 
z
" clip-path="url(#p8310745ea3)" style="fill: #eeeeee; stroke: #000000; stroke-width: 0.3"/>
    <path d="M 107.793088 0.376225 
L 107.977405 -0.454614 
L 108.052154 -0.391581 
z
" clip-path="url(#p8310745ea3)" style="fill: #eeeeee; stroke: #000000; stroke-width: 0.3"/>
    <path d="M 100.915575 2.872972 
L 101.28457 2.695524 
L 100.940858 3.054664 
z
" clip-path="url(#p8310745ea3)" style="fill: #eeeeee; stroke: #000000; stroke-width: 0.3"/>
    <path d="M 98.537081 0.376225 
L 99.057412 -0.063164 
L 99.926218 0.731921 
z
" clip-path="url(#p8310745ea3)" style="fill: #eeeeee; stroke: #000000; stroke-width: 0.3"/>
    <path d="M 87.789709 0.218903 
L 88.150275 -0.210423 
L 88.159434 -0.13997 
z
" clip-path="url(#p8310745ea3)" style="fill: #eeeeee; stroke: #000000; stroke-width: 0.3"/>
    <path d="M 86.779829 -1.227451 
L 86.970005 -1.446485 
L 87.676849 -1.271947 
z
" clip-path="url(#p8310745ea3)" style="fill: #eeeeee; stroke: #000000; stroke-width: 0.3"/>
    <path d="M 86.315931 -0.916517 
L 86.724865 -0.734826 
L 86.81061 -0.694568 
z
" clip-path="url(#p8310745ea3)" style="fill: #eeeeee; stroke: #000000; stroke-width: 0.3"/>
    <path d="M 85.682741 5.284973 
L 85.689333 5.123147 
L 85.88574 5.195982 
z
" clip-path="url(#p8310745ea3)" style="fill: #eeeeee; stroke: #000000; stroke-width: 0.3"/>
    <path d="M 84.632553 2.208197 
L 84.687517 2.154166 
L 84.703641 2.189393 
z
" clip-path="url(#p8310745ea3)" style="fill: #eeeeee; stroke: #000000; stroke-width: 0.3"/>
    <path d="M 84.462527 2.163174 
L 84.528487 2.158403 
L 84.549375 2.265671 
z
" clip-path="url(#p8310745ea3)" style="fill: #eeeeee; stroke: #000000; stroke-width: 0.3"/>
    <path d="M 84.348204 4.827574 
L 84.542409 4.751302 
L 84.803308 4.838437 
z
" clip-path="url(#p8310745ea3)" style="fill: #eeeeee; stroke: #000000; stroke-width: 0.3"/>
    <path d="M 83.590794 4.850882 
L 84.160591 4.836843 
L 83.869645 4.981453 
z
" clip-path="url(#p8310745ea3)" style="fill: #eeeeee; stroke: #000000; stroke-width: 0.3"/>
    <path d="M 82.63038 5.170558 
L 83.23206 4.970596 
L 83.324766 5.046608 
z
" clip-path="url(#p8310745ea3)" style="fill: #eeeeee; stroke: #000000; stroke-width: 0.3"/>
    <path d="M 82.317453 5.139042 
L 82.461822 5.195982 
L 82.397335 5.240478 
z
" clip-path="url(#p8310745ea3)" style="fill: #eeeeee; stroke: #000000; stroke-width: 0.3"/>
    <path d="M 81.28229 5.368932 
L 81.549416 5.186446 
L 82.061682 5.226971 
z
" clip-path="url(#p8310745ea3)" style="fill: #eeeeee; stroke: #000000; stroke-width: 0.3"/>
    <path d="M 79.932363 5.555389 
L 80.712489 5.416077 
L 80.885446 5.462688 
z
" clip-path="url(#p8310745ea3)" style="fill: #eeeeee; stroke: #000000; stroke-width: 0.3"/>
    <path d="M 78.967554 6.034768 
L 79.531124 5.898366 
L 79.404337 6.270485 
z
" clip-path="url(#p8310745ea3)" style="fill: #eeeeee; stroke: #000000; stroke-width: 0.3"/>
    <path d="M 74.732519 30.168332 
L 75.825194 28.383264 
L 76.526969 28.677242 
L 77.00071 30.195911 
L 77.360438 30.535634 
L 77.503768 30.501325 
L 77.78578 30.707178 
L 78.080355 30.727363 
L 78.236719 30.766716 
L 78.260917 30.791268 
L 77.55277 33.006411 
L 75.821006 33.097699 
L 75.055483 32.470045 
L 75.48222 31.781518 
z
" clip-path="url(#p8310745ea3)" style="fill: #eeeeee; stroke: #000000; stroke-width: 0.3"/>
    <path d="M 60.336725 22.382504 
L 64.063214 20.509987 
L 64.253421 21.346085 
L 65.234412 21.061864 
L 66.664014 21.609797 
L 67.989897 20.556995 
L 68.381041 21.186902 
L 68.1681 20.548026 
L 68.84425 20.630312 
L 68.926154 19.945314 
L 69.829897 20.230212 
L 70.498626 19.728024 
L 70.69687 20.259639 
L 70.424165 20.261657 
L 71.091499 20.401418 
L 71.619223 19.848779 
L 72.465259 21.268219 
L 73.716159 21.087256 
L 75.228597 21.933879 
L 74.307172 24.056985 
L 77.119378 25.461968 
L 76.767097 26.089955 
L 77.514939 26.330448 
L 77.68433 27.407815 
L 76.705667 28.011582 
L 76.526969 28.677242 
L 75.825194 28.383264 
L 74.732519 30.168332 
L 75.48222 31.781518 
L 75.265825 32.318015 
L 73.549096 32.722652 
L 72.662571 31.470382 
L 70.815539 30.801025 
L 70.865798 30.025376 
L 70.52236 29.732745 
L 70.876964 28.500653 
L 69.08531 29.880408 
L 67.585439 29.624097 
L 67.938184 29.069773 
L 67.558914 28.627123 
L 67.882341 27.77882 
L 67.007452 27.221808 
L 65.627645 27.52016 
L 65.228828 26.359713 
L 63.710339 26.031426 
L 63.071858 24.390323 
L 61.529639 24.752919 
L 60.629156 23.958432 
L 60.726882 23.205324 
z
" clip-path="url(#p8310745ea3)" style="fill: #eeeeee; stroke: #000000; stroke-width: 0.3"/>
    <path d="M 7.199059 74.666168 
L 7.972588 74.105478 
L 7.47791 74.013044 
L 8.761513 73.492612 
L 8.511609 73.181944 
L 9.223213 72.803206 
L 9.839545 73.114407 
L 11.471255 72.383683 
L 12.013941 72.985425 
L 12.17059 72.314291 
L 11.586317 72.088104 
L 12.20137 71.821665 
L 11.460449 71.955151 
L 11.552605 71.332749 
L 13.372109 70.036043 
L 13.598013 70.674861 
L 14.376311 69.85965 
L 14.349196 70.290564 
L 15.81033 70.597527 
L 16.242534 71.371686 
L 17.26359 71.38307 
L 17.262306 71.905097 
L 17.715398 71.34017 
L 21.654328 71.316067 
L 22.631231 70.709026 
L 23.417953 71.371686 
L 24.69496 71.410089 
L 24.604636 71.727116 
L 28.802268 72.527232 
L 31.751292 71.789088 
L 32.010543 71.905097 
L 31.821282 72.254701 
L 32.864874 71.650837 
L 33.530857 71.985346 
L 33.397658 72.339448 
L 35.437023 72.935365 
L 35.713862 72.220269 
L 36.51561 72.078835 
L 36.865 72.631844 
L 39.401056 73.153337 
L 40.903701 72.511591 
L 41.114062 73.130029 
L 42.662333 73.440318 
L 42.420809 74.73077 
L 43.191218 74.313511 
L 43.804105 74.986911 
L 45.561323 75.372379 
L 46.419692 76.504063 
L 47.528424 76.049307 
L 48.806552 77.073521 
L 49.743565 76.804602 
L 50.22184 77.180652 
L 51.938925 77.055022 
L 51.937061 76.075876 
L 52.642092 76.120112 
L 55.027087 76.920482 
L 55.501296 78.704034 
L 56.667964 78.260544 
L 58.028694 79.273999 
L 59.236318 78.743218 
L 60.30526 79.413415 
L 62.191389 78.472451 
L 63.304759 78.724615 
L 63.333477 79.258156 
L 63.920497 79.43084 
L 63.024944 80.112037 
L 63.535378 81.88442 
L 62.188188 83.404703 
L 59.190994 85.121961 
L 58.575022 86.065626 
L 53.563003 87.70505 
L 52.197686 89.244899 
L 52.845536 90.084213 
L 52.030595 90.872405 
L 51.649511 90.762227 
L 52.280868 90.426136 
L 51.519059 90.710585 
L 47.525894 97.700007 
L 48.270296 101.046131 
L 50.03795 102.737737 
L 46.686224 105.366649 
L 46.712421 106.220263 
L 46.173589 106.511865 
L 45.556519 108.896053 
L 45.127066 109.24513 
L 45.806057 110.045507 
L 43.021494 110.420053 
L 41.458373 111.713277 
L 40.819685 112.730305 
L 40.425228 114.460841 
L 39.406005 115.793835 
L 38.347937 115.140451 
L 37.45147 115.257515 
L 36.742428 116.147676 
L 35.774319 115.694521 
L 29.155688 115.875412 
L 28.002722 117.28283 
L 25.628438 117.91053 
L 24.943044 119.668475 
L 24.552788 119.417001 
L 24.493424 120.178181 
L 23.713847 120.545001 
L 21.80017 119.353434 
L 20.569884 117.110413 
L 20.923489 117.510338 
L 21.158187 117.244427 
L 20.188615 116.441401 
L 20.014559 115.697431 
L 20.40957 115.412454 
L 20.442913 114.834815 
L 20.960496 114.713774 
L 21.088562 114.519904 
L 20.4136 114.72066 
L 20.218661 115.32664 
L 19.716288 114.340601 
L 17.945332 112.993834 
L 18.126349 112.156376 
L 17.631671 112.556034 
L 17.785203 112.956225 
L 15.59707 112.823006 
L 15.147139 110.163534 
L 16.235163 107.718696 
L 17.355066 107.422192 
L 17.699436 106.289161 
L 16.996968 106.43918 
L 15.845654 104.663699 
L 16.245402 102.768642 
L 17.210571 102.002912 
L 17.583325 100.969273 
L 16.301015 99.684712 
L 16.051345 98.082624 
L 14.95378 96.635268 
L 17.367863 96.542769 
L 18.004714 94.491301 
L 17.268975 93.370545 
L 18.388644 92.231291 
L 18.106398 91.67327 
L 18.290684 88.973976 
L 17.722008 87.93798 
L 18.343968 87.622809 
L 19.054114 86.300243 
L 20.519783 85.366842 
L 21.038433 84.330176 
L 19.527391 83.753317 
L 19.605341 82.396097 
L 19.221415 81.778369 
L 16.808494 81.614564 
L 16.478551 82.320417 
L 15.469639 82.796198 
L 14.21199 82.188903 
L 13.425988 82.457822 
L 13.383172 82.093879 
L 12.151814 82.765254 
L 11.923789 82.153585 
L 12.53225 81.266769 
L 12.041759 81.080424 
L 11.959153 80.533162 
L 10.137713 81.201009 
L 8.992361 82.227664 
L 8.928238 80.758008 
L 9.238788 80.683584 
L 10.156507 79.271396 
L 9.054291 79.864136 
L 10.009936 78.660385 
L 9.162017 78.905376 
L 8.716076 78.478433 
L 9.238788 78.526905 
L 9.669159 77.052211 
L 8.339017 77.997992 
L 8.321979 76.926672 
L 8.963413 76.123379 
L 8.0063 76.602492 
L 7.852033 75.560834 
L 7.228187 75.718423 
z
" clip-path="url(#p8310745ea3)" style="fill: #eeeeee; stroke: #000000; stroke-width: 0.3"/>
    <path d="M 59.566581 97.307763 
L 61.649001 95.38044 
L 63.297933 94.754328 
L 62.926372 95.113995 
L 63.421055 95.247481 
L 63.104457 95.92603 
L 64.625874 96.18029 
L 64.533533 96.766137 
L 63.627354 98.546467 
L 62.763681 99.308708 
L 62.304542 98.695842 
L 61.52918 98.61321 
L 61.056483 97.423766 
L 60.205633 97.999283 
z
" clip-path="url(#p8310745ea3)" style="fill: #eeeeee; stroke: #000000; stroke-width: 0.3"/>
    <path d="M 66.106248 94.433065 
L 67.465699 94.034201 
L 68.510389 95.41566 
L 68.109885 95.745666 
L 66.230099 94.96727 
z
" clip-path="url(#p8310745ea3)" style="fill: #eeeeee; stroke: #000000; stroke-width: 0.3"/>
    <path d="M 54.460023 101.808111 
L 55.091012 100.554833 
L 56.213022 100.465842 
L 56.289968 100.870004 
L 55.299594 102.151779 
z
" clip-path="url(#p8310745ea3)" style="fill: #eeeeee; stroke: #000000; stroke-width: 0.3"/>
    <path d="M 45.584552 109.037487 
L 45.649229 109.505743 
L 45.710785 109.748346 
L 45.618813 109.627311 
z
" clip-path="url(#p8310745ea3)" style="fill: #eeeeee; stroke: #000000; stroke-width: 0.3"/>
    <path d="M 62.100939 100.070955 
L 62.402475 99.852273 
L 62.3195 100.304634 
z
" clip-path="url(#p8310745ea3)" style="fill: #eeeeee; stroke: #000000; stroke-width: 0.3"/>
    <path d="M 57.750873 78.596063 
L 57.791825 78.397272 
L 57.98495 78.643826 
z
" clip-path="url(#p8310745ea3)" style="fill: #eeeeee; stroke: #000000; stroke-width: 0.3"/>
    <path d="M 55.208842 103.389898 
L 55.426664 102.655633 
L 56.10236 103.318292 
z
" clip-path="url(#p8310745ea3)" style="fill: #eeeeee; stroke: #000000; stroke-width: 0.3"/>
    <path d="M 38.033965 125.932419 
L 38.04306 125.885086 
L 38.056082 125.910627 
z
" clip-path="url(#p8310745ea3)" style="fill: #eeeeee; stroke: #000000; stroke-width: 0.3"/>
    <path d="M 35.636942 125.23301 
L 35.824889 125.221476 
L 35.865927 125.293517 
z
" clip-path="url(#p8310745ea3)" style="fill: #eeeeee; stroke: #000000; stroke-width: 0.3"/>
    <path d="M 31.415496 125.681479 
L 31.421597 125.677951 
L 31.422205 125.6817 
z
" clip-path="url(#p8310745ea3)" style="fill: #eeeeee; stroke: #000000; stroke-width: 0.3"/>
    <path d="M 31.40998 125.697959 
L 31.410898 125.690682 
L 31.412573 125.693553 
z
" clip-path="url(#p8310745ea3)" style="fill: #eeeeee; stroke: #000000; stroke-width: 0.3"/>
    <path d="M 29.611824 125.972137 
L 29.62616 125.972476 
L 29.63427 125.974838 
z
" clip-path="url(#p8310745ea3)" style="fill: #eeeeee; stroke: #000000; stroke-width: 0.3"/>
    <path d="M 24.672496 121.078425 
L 25.193857 121.161837 
L 24.764612 121.35712 
z
" clip-path="url(#p8310745ea3)" style="fill: #eeeeee; stroke: #000000; stroke-width: 0.3"/>
    <path d="M 24.573522 121.145044 
L 24.59545 121.149848 
L 24.586814 121.167142 
z
" clip-path="url(#p8310745ea3)" style="fill: #eeeeee; stroke: #000000; stroke-width: 0.3"/>
    <path d="M 112.577424 10.906454 
L 112.670031 10.195218 
L 113.565394 9.617852 
L 114.007959 8.295116 
L 113.207701 5.378214 
L 113.344128 5.058525 
L 114.678665 6.039533 
L 114.828168 5.685165 
L 114.473095 5.351716 
L 114.858948 4.391895 
L 113.964125 4.036199 
L 113.455155 4.608807 
L 112.808709 4.034096 
L 121.831733 1.713456 
L 123.589496 -0.201415 
L 127.046756 -1.449928 
L 130.716178 -2.031272 
L 131.558968 -1.999755 
L 133.414934 -1.066419 
L 133.791255 -0.50017 
L 132.084792 -1.701533 
L 131.890222 -1.433767 
L 132.678043 0.602672 
L 134.019177 1.146146 
L 137.277463 0.452504 
L 151.185531 1.193193 
L 151.812376 0.815796 
L 154.56548 2.416875 
L 155.204424 5.955723 
L 156.567481 8.945298 
L 156.697316 11.609782 
L 154.309993 13.126102 
L 153.289446 14.559672 
L 155.41384 15.893506 
L 155.589282 16.481807 
L 154.990358 19.094154 
L 155.684681 20.319847 
L 155.403601 20.969027 
L 157.69087 23.886788 
L 156.855541 24.20196 
L 157.411186 24.820528 
L 157.53125 25.940944 
L 156.96211 26.826582 
L 155.615344 27.064388 
L 151.038941 32.277314 
L 151.362833 34.177754 
L 151.110606 34.920774 
L 151.883577 35.418587 
L 151.891952 36.009238 
L 148.224408 34.684986 
L 147.718558 33.817176 
L 146.245212 33.194234 
L 143.848114 33.241658 
L 143.173332 34.080542 
L 142.140223 33.363422 
L 140.465837 33.421274 
L 139.647262 33.959788 
L 139.262868 34.842738 
L 137.957985 34.706173 
L 137.996609 33.411523 
L 137.356242 33.354518 
L 136.592137 32.077514 
L 135.170914 33.404461 
L 134.363038 33.437084 
L 134.357918 32.762682 
L 133.781795 32.64899 
L 133.580291 31.618384 
L 132.811512 31.323729 
L 132.548114 30.065406 
L 131.347004 30.061364 
L 130.04119 29.156895 
L 130.176144 29.442802 
L 129.306843 29.632845 
L 128.376579 28.769071 
L 128.18159 28.398736 
L 128.8936 28.045558 
L 128.715365 27.436741 
L 127.437472 27.895539 
L 125.045493 26.64327 
L 125.594159 28.039167 
L 123.999353 28.855848 
L 122.572542 27.05329 
L 121.923358 26.816832 
L 122.942505 25.767044 
L 122.518096 25.269231 
L 120.943763 25.532265 
L 120.896296 25.044209 
L 120.089352 24.62712 
L 118.125511 24.413866 
L 117.736929 23.260487 
L 117.172441 22.877037 
L 116.346419 23.000141 
L 116.441354 23.869637 
L 115.668382 23.873673 
L 116.609817 21.18396 
L 116.27475 20.028564 
L 115.216511 19.500978 
L 115.317497 18.667139 
L 114.657142 17.719782 
L 115.447796 15.944302 
L 115.109941 15.655531 
L 115.227214 14.907805 
L 114.475184 13.955899 
L 114.922864 12.688158 
z
" clip-path="url(#p8310745ea3)" style="fill: #eeeeee; stroke: #000000; stroke-width: 0.3"/>
    <path d="M 1.877953 15.271716 
L 3.18116 14.576478 
L 3.501053 14.876028 
L 3.685731 14.427898 
L 4.191405 14.896688 
L 5.136244 14.827562 
L 4.543177 14.665469 
L 4.700375 14.000961 
L 4.180409 13.761007 
L 5.600142 13.360815 
L 5.538581 12.730733 
L 7.232401 12.686238 
L 9.578102 12.063042 
L 8.633992 11.928234 
L 8.716076 11.397472 
L 7.17084 12.597781 
L 5.8429 12.108598 
L 4.241605 12.819724 
L 6.212444 11.545259 
L 6.863406 10.367205 
L 6.306982 10.322709 
L 7.232036 8.979646 
L 8.129606 9.163187 
L 7.880617 8.896748 
L 8.744105 8.985739 
L 8.931169 8.496556 
L 8.252174 8.496556 
L 8.716076 8.230384 
L 8.358257 8.141394 
L 6.153634 8.44809 
L 5.960708 8.042073 
L 5.700727 8.397242 
L 5.968588 7.425764 
L 4.825329 7.97136 
L 4.395138 7.825955 
L 4.859221 7.203821 
L 3.160272 7.248316 
L 3.900644 6.800186 
L 3.143234 6.31869 
L 5.320372 6.040594 
L 4.367289 5.729126 
L 4.367289 4.973772 
L 5.907392 4.751302 
L 5.658587 4.614372 
L 5.935241 4.303171 
L 4.208259 4.21047 
L 4.367289 3.943765 
L 4.333762 3.725799 
L 4.911803 3.971578 
L 4.410163 3.260452 
L 4.702941 2.695524 
L 4.08697 2.914024 
L 4.367289 2.655 
L 3.905957 2.004264 
L 3.4263 2.801198 
L 3.685731 1.979895 
L 3.436742 1.895408 
L 3.964951 1.447017 
L 4.49041 1.713456 
L 4.057293 1.846942 
L 4.360697 2.094843 
L 5.013122 1.761922 
L 4.648342 1.33313 
L 4.920781 1.224807 
L 7.249074 1.447017 
L 7.821802 2.477025 
L 8.226891 1.54104 
L 10.658516 2.073123 
L 10.164202 1.761922 
L 10.842829 1.624999 
L 10.381862 1.382129 
L 10.622792 1.298697 
L 9.971096 1.086817 
L 10.858953 0.333584 
L 12.013941 0.158252 
L 11.740219 0.016818 
L 12.416279 -0.783031 
L 10.90439 -0.249887 
L 11.214755 -0.609287 
L 9.368317 -1.078604 
L 11.122414 -1.538652 
L 10.445989 -1.898052 
L 10.750857 -2.120262 
L 11.493976 -1.987043 
L 10.90439 -3.102331 
L 11.519628 -3.307064 
L 11.706507 -4.128628 
L 12.255781 -3.893973 
L 13.064859 -4.528026 
L 12.941737 -4.217092 
L 13.606806 -3.988255 
L 13.866791 -4.750503 
L 13.790021 -4.350578 
L 14.299909 -3.728436 
L 14.333436 -4.434003 
L 13.914241 -4.506305 
L 14.563555 -4.859092 
L 15.09561 -3.839675 
L 14.394997 -2.786893 
L 15.409092 -3.449019 
L 15.102207 -4.972973 
L 16.307026 -4.932188 
L 15.732101 -5.598551 
L 17.735183 -4.639791 
L 15.638332 -3.106848 
L 15.017768 -1.402172 
L 13.27707 -1.109535 
L 14.275743 -0.507115 
L 12.177645 0.4199 
L 13.606779 2.049228 
L 15.990847 2.685963 
L 16.772662 1.965809 
L 16.596521 1.246671 
L 17.382753 0.736074 
L 18.418425 2.104053 
L 19.082503 2.33177 
L 19.126247 3.153164 
L 20.368074 2.705132 
L 21.482659 3.336731 
L 20.345443 3.321103 
L 20.26245 3.849215 
L 20.870537 4.303171 
L 20.930635 5.660795 
L 21.617686 6.324249 
L 21.088562 6.933145 
L 21.686577 7.543095 
L 20.983397 7.674726 
L 21.52901 8.075712 
L 21.994925 10.211471 
L 20.317229 14.20145 
L 19.73021 14.071941 
L 20.286449 14.342884 
L 20.403159 15.159416 
L 18.338511 15.05798 
L 18.525575 14.742542 
L 17.768714 15.63191 
L 17.896595 15.322564 
L 17.474838 14.560857 
L 17.665013 15.275953 
L 17.385612 15.542658 
L 14.76161 15.785788 
L 15.008402 16.085338 
L 14.806862 16.500891 
L 13.636488 16.572666 
L 12.867718 17.589427 
L 11.851795 17.727417 
L 12.118007 17.138914 
L 11.119483 17.147656 
L 11.621492 17.96631 
L 10.445989 18.354584 
L 10.720077 18.443575 
L 10.566175 18.976719 
L 9.548969 18.754242 
L 9.825808 19.198929 
L 7.913959 19.28792 
L 7.450061 19.780539 
L 6.740289 19.86953 
L 7.017123 19.469605 
L 6.461803 19.310428 
L 4.764498 20.051221 
L 5.999733 18.976719 
L 4.641561 19.376377 
L 6.392727 18.500248 
L 5.935241 17.994917 
L 5.635321 18.493362 
L 4.52174 18.681146 
L 3.252244 19.158671 
L 4.041902 18.18852 
L 5.8429 17.239556 
L 3.3444 18.128136 
L 2.898639 17.413034 
L 2.419351 17.82144 
L 2.173662 17.195061 
L 2.810697 17.037745 
L 2.756282 16.518368 
L 5.043903 15.453668 
L 1.989164 15.809364 
z
" clip-path="url(#p8310745ea3)" style="fill: #eeeeee; stroke: #000000; stroke-width: 0.3"/>
    <path d="M 10.412643 -2.924349 
L 10.724476 -3.088031 
L 10.781273 -2.924349 
z
" clip-path="url(#p8310745ea3)" style="fill: #eeeeee; stroke: #000000; stroke-width: 0.3"/>
    <path d="M 5.259181 8.381347 
L 5.259181 8.141394 
L 5.493509 8.420017 
z
" clip-path="url(#p8310745ea3)" style="fill: #eeeeee; stroke: #000000; stroke-width: 0.3"/>
    <path d="M 4.804076 9.038709 
L 5.320741 9.045595 
L 5.483617 9.344345 
z
" clip-path="url(#p8310745ea3)" style="fill: #eeeeee; stroke: #000000; stroke-width: 0.3"/>
    <path d="M 4.324783 18.920833 
L 4.487844 18.779666 
L 4.858671 18.807479 
z
" clip-path="url(#p8310745ea3)" style="fill: #eeeeee; stroke: #000000; stroke-width: 0.3"/>
    <path d="M 2.757566 3.54358 
L 4.06352 3.287731 
L 4.144136 4.202529 
z
" clip-path="url(#p8310745ea3)" style="fill: #eeeeee; stroke: #000000; stroke-width: 0.3"/>
    <path d="M 2.023241 17.160368 
L 2.371532 16.891547 
L 2.502164 17.072965 
z
" clip-path="url(#p8310745ea3)" style="fill: #eeeeee; stroke: #000000; stroke-width: 0.3"/>
    <path d="M 20.909931 -14.334932 
L 23.061417 -14.701218 
L 22.63581 -14.988056 
L 23.16402 -15.091347 
L 23.494904 -15.274887 
L 22.320865 -15.412344 
L 22.723572 -16.082951 
L 23.067834 -16.274439 
L 23.503149 -15.968002 
L 23.896148 -15.996342 
L 24.112339 -16.127446 
L 22.973475 -16.595169 
L 24.665647 -16.794077 
L 23.402563 -17.129374 
L 23.864818 -17.83785 
L 24.634867 -17.598164 
L 24.208341 -17.908831 
L 24.484266 -18.179774 
L 23.184539 -18.042317 
L 24.211277 -18.516399 
L 24.450734 -18.846404 
L 22.831303 -18.411786 
L 22.68986 -19.872174 
L 23.586881 -19.428021 
L 24.159973 -19.626128 
L 22.839728 -20.28455 
L 23.433344 -20.720756 
L 22.849075 -20.943233 
L 22.815913 -21.524843 
L 23.322686 -21.758444 
L 23.494904 -21.258138 
L 23.740778 -21.116711 
L 23.709998 -22.146978 
L 25.470691 -21.613834 
L 24.819549 -22.239946 
L 26.149687 -21.524843 
L 24.455683 -23.159769 
L 25.114155 -23.067075 
L 25.378535 -23.573207 
L 24.703024 -24.311872 
L 26.767487 -24.062382 
L 25.688536 -24.914408 
L 25.824296 -25.310362 
L 26.395561 -25.136885 
L 25.992854 -25.901248 
L 26.521613 -26.700303 
L 27.207201 -26.548807 
L 27.287448 -26.025459 
L 27.474697 -26.56258 
L 27.999237 -26.228604 
L 27.544682 -25.52648 
L 28.337271 -26.347783 
L 29.050708 -26.166892 
L 28.740707 -25.536543 
L 30.84035 -26.484446 
L 33.834446 -26.521261 
L 33.785893 -27.01759 
L 35.387737 -26.778431 
L 34.891775 -25.947331 
L 35.233655 -25.642223 
L 34.889393 -25.014256 
L 30.962368 -22.191474 
L 30.591176 -22.377403 
L 30.929026 -21.750763 
L 29.204241 -22.013498 
L 30.791433 -21.427117 
L 31.964188 -21.671041 
L 31.023929 -20.631765 
L 29.643775 -20.528741 
L 29.041914 -19.860783 
L 30.929026 -20.5833 
L 30.49847 -19.872174 
L 29.788698 -19.694986 
L 29.850259 -19.339557 
L 33.631442 -20.809747 
L 39.986977 -20.676261 
L 40.744387 -20.094651 
L 41.060066 -19.18409 
L 40.065211 -18.179774 
L 39.137226 -15.545303 
L 38.056442 -14.482718 
L 37.659602 -13.442648 
L 36.700103 -12.648891 
L 35.200857 -12.532888 
L 34.017291 -11.974313 
L 35.991614 -12.573673 
L 36.361708 -11.840827 
L 37.379283 -11.400644 
L 35.634344 -10.931066 
L 33.930817 -9.769428 
L 31.702925 -10.285356 
L 32.518964 -9.658984 
L 35.121529 -9.246614 
L 37.116736 -9.970451 
L 39.35507 -9.036849 
L 40.802832 -7.203021 
L 41.638656 -6.892087 
L 42.147077 -4.10638 
L 43.238856 -1.446218 
L 43.703668 -1.138988 
L 43.561861 -0.647423 
L 46.446942 0.318223 
L 47.313732 1.813043 
L 48.641857 2.695524 
L 47.993642 3.277134 
L 49.582846 5.751374 
L 49.653935 5.966437 
L 49.572589 6.201887 
L 47.809513 5.147516 
L 46.113492 5.169764 
L 45.710785 5.373964 
L 47.723949 5.331851 
L 49.970163 7.203821 
L 50.587598 8.985739 
L 49.028075 10.673368 
L 50.713281 11.441968 
L 51.546543 10.134131 
L 54.721287 10.395278 
L 56.385241 11.393502 
L 56.849143 12.373976 
L 56.95687 13.280566 
L 56.106389 15.912922 
L 54.980718 16.833279 
L 54.675117 16.479965 
L 54.195459 16.257755 
L 54.720189 16.697937 
L 53.795684 16.746403 
L 54.754265 16.790899 
L 54.383073 17.239556 
L 54.728982 17.453559 
L 53.779195 17.905926 
L 53.393711 17.461506 
L 52.127331 18.265593 
L 53.169459 18.112241 
L 53.144542 19.122917 
L 51.035372 19.66162 
L 50.713281 20.003016 
L 52.110478 19.847282 
L 51.478751 20.269454 
L 52.25265 20.224959 
L 52.423774 20.580388 
L 53.381986 20.679442 
L 55.502881 20.460148 
L 55.184821 20.828823 
L 55.215601 21.965031 
L 53.785791 22.533135 
L 53.393711 23.485015 
L 52.414981 23.402116 
L 50.202114 24.596593 
L 47.767557 24.050469 
L 45.424973 24.709419 
L 44.752943 23.972603 
L 44.38578 23.969953 
L 44.10656 24.378093 
L 44.167751 23.969953 
L 43.737565 23.969953 
L 43.798761 24.375177 
L 42.379028 23.485015 
L 43.050509 24.252554 
L 41.952322 24.781461 
L 39.801012 24.645058 
L 39.60424 24.911764 
L 40.189062 25.057435 
L 40.133184 25.541579 
L 38.182859 25.259252 
L 37.935153 26.026791 
L 36.082488 24.685056 
L 33.816124 25.444648 
L 33.382637 25.044723 
L 33.278936 26.470945 
L 32.96912 26.648659 
L 33.278936 26.826641 
L 32.499175 28.022705 
L 30.726391 27.50625 
L 30.068099 26.470945 
L 29.665761 26.87484 
L 30.098695 27.363756 
L 27.84479 27.225772 
L 26.457486 28.523279 
L 26.229934 28.186914 
L 25.901247 28.834213 
L 26.213994 29.066752 
L 25.60774 29.72729 
L 24.330364 28.612263 
L 23.293369 29.120777 
L 23.38571 28.409918 
L 25.050766 27.810565 
L 26.242028 26.670907 
L 26.398127 25.959254 
L 27.167078 26.115248 
L 26.826297 25.626333 
L 27.402874 25.587136 
L 28.371897 24.418611 
L 28.600732 22.854932 
L 29.450484 22.974118 
L 30.034572 22.455274 
L 29.942231 21.699653 
L 32.010543 21.339987 
L 35.375463 21.699653 
L 35.587809 20.451407 
L 38.250283 17.919166 
L 36.980607 18.934606 
L 35.587809 19.28792 
L 34.641687 20.364271 
L 33.046071 20.358445 
L 31.684234 18.906799 
L 29.665761 19.336119 
L 29.665761 18.936194 
L 30.560031 18.787346 
L 30.65347 18.552424 
L 29.551434 18.542628 
L 29.327178 17.816402 
L 26.73396 19.06968 
L 25.929281 18.536536 
L 27.167078 18.306111 
L 27.259419 17.772967 
L 25.645112 18.465822 
L 25.345008 18.176602 
L 25.971966 17.885 
L 25.901612 17.380463 
L 25.068354 17.328547 
L 26.152249 16.271794 
L 27.182468 16.346745 
L 29.549052 15.035466 
L 30.477582 14.065582 
L 30.716494 12.997172 
L 31.208246 12.86819 
L 30.406129 12.512493 
L 31.023929 11.663911 
L 30.30005 11.157519 
L 30.621591 10.411694 
L 27.536257 11.304511 
L 29.358143 9.74904 
L 30.169783 8.51801 
L 31.730774 8.052403 
L 31.518612 7.736965 
L 32.762271 8.053991 
L 33.98651 7.644531 
L 35.078655 8.406771 
L 34.634726 7.377825 
L 35.211484 7.1045 
L 36.007369 8.057167 
L 36.825606 7.644531 
L 35.811696 7.656188 
L 35.014897 6.302001 
L 35.928406 5.147516 
L 35.252341 4.925573 
L 35.218814 4.036199 
L 36.113268 3.636274 
L 36.238951 3.321103 
L 35.842112 3.201917 
L 36.392488 2.610504 
L 36.130126 2.162113 
L 36.327997 2.04611 
L 36.392488 1.806417 
L 35.747573 2.41584 
L 35.252341 1.979895 
L 34.819223 3.010169 
L 34.388852 2.695524 
L 34.540003 1.713456 
L 34.092409 2.176414 
L 32.618266 0.087005 
L 33.727079 -2.324462 
L 35.375463 -2.924349 
L 32.904813 -3.053865 
L 32.854612 -2.32605 
L 31.795266 -2.342739 
L 30.918399 -1.574933 
L 29.156972 -2.480196 
L 29.249313 -1.001264 
L 27.10277 -2.213224 
L 26.67185 -1.812772 
L 27.10277 -0.694568 
L 25.760903 -2.296656 
L 25.699347 -3.140207 
L 26.488266 -2.564949 
L 26.433302 -4.002562 
L 28.189417 -6.309416 
L 26.826297 -7.695647 
L 27.093977 -8.00923 
L 26.979649 -9.069693 
L 28.802268 -9.12584 
L 27.259419 -10.103671 
L 27.463886 -9.541126 
L 27.136847 -9.514641 
L 27.074552 -10.026865 
L 27.569235 -10.936892 
L 27.136297 -10.325614 
L 26.826297 -10.685548 
L 26.9518 -9.525764 
L 26.672399 -9.57026 
L 26.544329 -8.753194 
L 25.911873 -9.657129 
L 26.078783 -8.94998 
L 25.655009 -9.392812 
L 25.378535 -8.895422 
L 25.563032 -8.495757 
L 25.132477 -8.633748 
L 24.945233 -9.57026 
L 26.826297 -11.400644 
L 24.467408 -9.772077 
L 25.037574 -8.180319 
L 24.261657 -7.2793 
L 24.419774 -6.936583 
L 23.83605 -5.86579 
L 24.10428 -5.417927 
L 22.943429 -5.12447 
L 23.402563 -7.473697 
L 24.419774 -8.588725 
L 23.494904 -8.273547 
L 23.897246 -9.166365 
L 23.332758 -9.04559 
L 23.897246 -9.836965 
L 23.282742 -9.218801 
L 24.074778 -10.154519 
L 24.173716 -10.818767 
L 23.740778 -10.503596 
L 24.249383 -11.287557 
L 23.802159 -11.218692 
L 23.890281 -11.728 
L 24.450734 -11.933794 
L 24.048212 -11.933794 
L 24.410611 -12.462168 
L 25.528587 -12.501104 
L 25.934774 -12.897586 
L 26.177716 -13.271026 
L 25.563032 -12.600425 
L 24.358398 -12.689149 
L 25.378535 -13.271026 
L 24.604636 -13.137806 
L 25.037574 -13.897131 
L 26.488266 -14.252827 
L 25.395573 -14.257065 
L 25.929281 -14.919724 
L 23.433344 -12.826872 
L 21.92897 -13.77318 
L 24.020363 -14.119341 
L 21.237515 -14.007048 
z
" clip-path="url(#p8310745ea3)" style="fill: #eeeeee; stroke: #000000; stroke-width: 0.3"/>
    <path d="M 41.37153 -37.484507 
L 42.84018 -37.491393 
L 43.306829 -37.939524 
L 42.700569 -38.166765 
L 42.471185 -38.832601 
L 41.735396 -38.7746 
L 42.106404 -39.252919 
L 42.430143 -38.940663 
L 42.748208 -38.96185 
L 42.317467 -39.139298 
L 43.121962 -39.814136 
L 42.812146 -38.24622 
L 43.499751 -38.869943 
L 43.796009 -38.432677 
L 43.485095 -38.29151 
L 44.324219 -38.561659 
L 43.916015 -38.12624 
L 44.162073 -37.968658 
L 43.703668 -37.891058 
L 44.075045 -37.402402 
L 43.491326 -37.179932 
L 43.921878 -36.602293 
L 43.519171 -36.327373 
L 43.737565 -36.020676 
L 43.242886 -34.679468 
L 42.786314 -35.033843 
L 43.296752 -36.377433 
L 43.273667 -37.224427 
L 42.628018 -37.313418 
L 42.904487 -37.002478 
L 42.428495 -36.645193 
L 42.211389 -37.212509 
L 41.666505 -37.042475 
z
" clip-path="url(#p8310745ea3)" style="fill: #eeeeee; stroke: #000000; stroke-width: 0.3"/>
    <path d="M 16.899908 -21.548946 
L 18.187541 -22.191474 
L 16.955241 -22.546903 
L 17.757354 -22.951072 
L 17.20093 -22.862081 
L 16.955241 -23.795417 
L 17.880291 -24.021597 
L 17.746363 -23.983988 
L 18.0952 -23.306234 
L 18.050681 -23.843616 
L 18.771629 -23.843616 
L 18.279882 -24.466284 
L 20.96141 -25.859929 
L 21.211683 -24.865942 
L 20.317229 -24.154817 
L 21.24521 -24.021597 
L 20.163512 -23.977102 
L 20.286449 -23.528711 
L 19.176902 -23.173015 
L 20.132732 -23.306234 
L 20.37879 -22.862081 
L 19.512185 -22.724624 
L 19.914892 -22.457919 
L 19.545712 -22.098512 
L 18.989658 -22.146978 
L 18.771629 -22.635894 
L 19.300023 -22.99159 
L 18.866536 -22.99159 
L 18.525575 -22.635894 
L 18.989658 -21.83154 
L 18.422058 -21.952047 
L 18.625057 -21.513719 
L 17.665013 -20.943233 
z
" clip-path="url(#p8310745ea3)" style="fill: #eeeeee; stroke: #000000; stroke-width: 0.3"/>
    <path d="M 12.177645 0.4199 
L 14.275743 -0.507115 
L 13.27707 -1.109535 
L 15.017768 -1.402172 
L 15.638332 -3.106848 
L 17.221269 -3.40082 
L 17.631671 -4.350578 
L 21.511058 -4.466047 
L 22.027723 -2.964874 
L 23.36226 -1.737027 
L 22.382791 -0.516593 
L 23.880757 -1.001264 
L 24.515046 0.424691 
L 24.146051 1.224807 
L 23.955876 0.093364 
L 23.30766 -0.334901 
L 23.651553 0.554206 
L 23.276695 1.135816 
L 23.858221 0.927907 
L 23.978227 1.482244 
L 22.586893 1.924809 
L 22.443987 2.74399 
L 21.607429 3.200329 
L 20.368074 2.705132 
L 19.126247 3.153164 
L 19.082503 2.33177 
L 18.418425 2.104053 
L 17.382753 0.736074 
L 16.596521 1.246671 
L 16.772662 1.965809 
L 16.202122 2.604223 
L 14.720865 2.514751 
L 13.606779 2.049228 
z
" clip-path="url(#p8310745ea3)" style="fill: #eeeeee; stroke: #000000; stroke-width: 0.3"/>
    <path d="M 18.436345 -19.072591 
L 18.742132 -19.44868 
L 19.233514 -18.991014 
L 19.126332 -19.36763 
L 19.425707 -19.379548 
L 19.081994 -20.05466 
L 20.565854 -19.112849 
L 20.094076 -20.305203 
L 20.565854 -20.676261 
L 21.272879 -19.938917 
L 21.119342 -18.668429 
L 21.518933 -18.264794 
L 21.272879 -18.090783 
L 23.553534 -17.824084 
L 21.935382 -16.286357 
L 22.662011 -17.327221 
L 21.767557 -17.598164 
L 21.566756 -16.931 
L 21.225241 -17.412235 
L 20.532323 -17.149773 
L 20.719751 -17.416212 
L 19.794702 -18.131308 
L 20.507405 -18.128659 
L 19.576493 -18.805886 
L 19.425707 -18.357488 
z
" clip-path="url(#p8310745ea3)" style="fill: #eeeeee; stroke: #000000; stroke-width: 0.3"/>
    <path d="M 33.822716 -29.22433 
L 34.015827 -29.948962 
L 34.65103 -30.077417 
L 35.498584 -29.596715 
L 34.948387 -29.1078 
L 36.700103 -28.930085 
L 36.266985 -28.348468 
L 35.558492 -28.859899 
L 34.560706 -28.572267 
L 34.447662 -29.370528 
L 34.170643 -28.796599 
z
" clip-path="url(#p8310745ea3)" style="fill: #eeeeee; stroke: #000000; stroke-width: 0.3"/>
    <path d="M 19.698515 -7.51846 
L 19.961058 -8.608584 
L 20.473693 -8.87635 
L 20.565854 -8.410743 
L 21.334804 -9.21086 
L 21.828934 -7.829127 
L 20.671933 -6.848653 
L 20.528293 -7.172826 
L 20.870537 -7.380469 
L 20.501542 -7.740136 
L 20.840126 -8.140067 
z
" clip-path="url(#p8310745ea3)" style="fill: #eeeeee; stroke: #000000; stroke-width: 0.3"/>
    <path d="M 20.317229 -11.689597 
L 20.852585 -11.621266 
L 21.871988 -12.079192 
L 21.05064 -12.068068 
L 21.890679 -12.870834 
L 20.442913 -13.186005 
L 21.284604 -13.835159 
L 23.369221 -12.42271 
L 22.827089 -11.66841 
L 20.764274 -11.307683 
z
" clip-path="url(#p8310745ea3)" style="fill: #eeeeee; stroke: #000000; stroke-width: 0.3"/>
    <path d="M 15.412387 -17.642392 
L 15.708281 -18.132102 
L 15.535324 -18.624461 
L 16.58313 -18.090783 
L 16.307026 -17.642392 
L 15.873539 -17.68265 
L 16.292734 -17.141826 
L 15.904319 -17.064486 
L 16.490974 -16.842543 
L 15.873539 -16.749581 
z
" clip-path="url(#p8310745ea3)" style="fill: #eeeeee; stroke: #000000; stroke-width: 0.3"/>
    <path d="M 28.399931 8.141394 
L 28.399931 7.377825 
L 29.509113 7.203821 
L 30.056009 7.991485 
L 30.778055 7.963412 
L 29.140298 9.084265 
L 29.237038 8.746846 
L 28.740707 8.763529 
z
" clip-path="url(#p8310745ea3)" style="fill: #eeeeee; stroke: #000000; stroke-width: 0.3"/>
    <path d="M 15.009866 -19.961165 
L 16.057856 -20.5833 
L 17.17015 -20.228137 
L 16.490974 -20.228137 
L 16.897526 -19.818937 
L 16.057856 -19.694986 
L 16.753706 -19.428021 
z
" clip-path="url(#p8310745ea3)" style="fill: #eeeeee; stroke: #000000; stroke-width: 0.3"/>
    <path d="M 43.786302 -38.937481 
L 43.966215 -40.280804 
L 44.536931 -40.169832 
L 44.508532 -39.765937 
L 44.198531 -39.943385 
L 44.372038 -38.902521 
z
" clip-path="url(#p8310745ea3)" style="fill: #eeeeee; stroke: #000000; stroke-width: 0.3"/>
    <path d="M 33.522612 -28.370716 
L 34.365767 -28.443818 
L 34.696102 -27.948277 
L 34.355325 -27.766858 
L 34.880784 -27.85982 
L 34.126121 -27.681838 
z
" clip-path="url(#p8310745ea3)" style="fill: #eeeeee; stroke: #000000; stroke-width: 0.3"/>
    <path d="M 21.627213 -9.04559 
L 22.477514 -9.437307 
L 21.985582 -9.501662 
L 23.370684 -10.400305 
L 22.136552 -8.321753 
L 21.684744 -8.352475 
z
" clip-path="url(#p8310745ea3)" style="fill: #eeeeee; stroke: #000000; stroke-width: 0.3"/>
    <path d="M 24.699359 -7.292012 
L 25.575491 -7.668101 
L 26.149687 -6.398935 
L 25.938074 -5.94604 
L 25.096568 -6.091704 
z
" clip-path="url(#p8310745ea3)" style="fill: #eeeeee; stroke: #000000; stroke-width: 0.3"/>
    <path d="M 44.631469 -40.120839 
L 44.75459 -40.836463 
L 45.506503 -41.053114 
L 45.281148 -40.087201 
z
" clip-path="url(#p8310745ea3)" style="fill: #eeeeee; stroke: #000000; stroke-width: 0.3"/>
    <path d="M 44.325683 -37.842585 
L 44.450272 -38.030103 
L 44.844914 -38.142135 
L 44.587316 -37.843646 
z
" clip-path="url(#p8310745ea3)" style="fill: #eeeeee; stroke: #000000; stroke-width: 0.3"/>
    <path d="M 41.914945 25.178209 
L 43.045011 24.4353 
L 44.10656 24.818275 
L 43.221998 25.669767 
z
" clip-path="url(#p8310745ea3)" style="fill: #eeeeee; stroke: #000000; stroke-width: 0.3"/>
    <path d="M 36.887167 -29.700006 
L 37.194786 -29.952672 
L 36.979873 -30.129859 
L 37.658684 -29.730195 
z
" clip-path="url(#p8310745ea3)" style="fill: #eeeeee; stroke: #000000; stroke-width: 0.3"/>
    <path d="M 36.238951 -30.400802 
L 36.549502 -30.760469 
L 36.669327 -30.085631 
L 36.423269 -30.065499 
z
" clip-path="url(#p8310745ea3)" style="fill: #eeeeee; stroke: #000000; stroke-width: 0.3"/>
    <path d="M 35.252341 -31.200919 
L 35.630499 -31.468679 
L 36.238951 -30.760469 
L 35.989966 -30.619302 
z
" clip-path="url(#p8310745ea3)" style="fill: #eeeeee; stroke: #000000; stroke-width: 0.3"/>
    <path d="M 25.569994 -9.013807 
L 26.104066 -8.808813 
L 26.334365 -7.962086 
L 25.947967 -8.189061 
z
" clip-path="url(#p8310745ea3)" style="fill: #eeeeee; stroke: #000000; stroke-width: 0.3"/>
    <path d="M 21.654698 -18.940166 
L 21.995844 -19.401796 
L 22.013066 -18.362259 
L 21.675581 -18.357488 
z
" clip-path="url(#p8310745ea3)" style="fill: #eeeeee; stroke: #000000; stroke-width: 0.3"/>
    <path d="M 20.778565 -12.737881 
L 20.996225 -12.870834 
L 21.24521 -12.648891 
L 20.896554 -12.652067 
z
" clip-path="url(#p8310745ea3)" style="fill: #eeeeee; stroke: #000000; stroke-width: 0.3"/>
    <path d="M 19.914892 -16.127446 
L 20.501542 -16.482876 
L 20.870537 -16.167965 
L 20.722867 -15.79638 
z
" clip-path="url(#p8310745ea3)" style="fill: #eeeeee; stroke: #000000; stroke-width: 0.3"/>
    <path d="M 19.235531 -16.43838 
L 19.545712 -16.57557 
L 19.76099 -16.482876 
L 19.49716 -16.411362 
z
" clip-path="url(#p8310745ea3)" style="fill: #eeeeee; stroke: #000000; stroke-width: 0.3"/>
    <path d="M 18.80534 -13.404512 
L 19.447693 -13.922822 
L 19.898034 -14.006514 
L 19.190644 -13.336441 
z
" clip-path="url(#p8310745ea3)" style="fill: #eeeeee; stroke: #000000; stroke-width: 0.3"/>
    <path d="M 14.956185 -15.796113 
L 15.440421 -16.482876 
L 15.689226 -16.167965 
L 15.458009 -15.757183 
z
" clip-path="url(#p8310745ea3)" style="fill: #eeeeee; stroke: #000000; stroke-width: 0.3"/>
    <path d="M 52.286361 20.269454 
L 52.435135 20.036654 
L 53.198038 20.537221 
z
" clip-path="url(#p8310745ea3)" style="fill: #eeeeee; stroke: #000000; stroke-width: 0.3"/>
    <path d="M 44.75459 -39.720915 
L 45.280049 -39.720915 
L 45.126697 -39.32125 
z
" clip-path="url(#p8310745ea3)" style="fill: #eeeeee; stroke: #000000; stroke-width: 0.3"/>
    <path d="M 44.38578 24.32962 
L 44.602706 24.060272 
L 44.75459 24.378093 
z
" clip-path="url(#p8310745ea3)" style="fill: #eeeeee; stroke: #000000; stroke-width: 0.3"/>
    <path d="M 43.871677 -36.791658 
L 44.1214 -36.854164 
L 44.101431 -36.313072 
z
" clip-path="url(#p8310745ea3)" style="fill: #eeeeee; stroke: #000000; stroke-width: 0.3"/>
    <path d="M 42.822592 -35.920301 
L 42.922624 -36.337702 
L 42.977223 -35.912354 
z
" clip-path="url(#p8310745ea3)" style="fill: #eeeeee; stroke: #000000; stroke-width: 0.3"/>
    <path d="M 41.663939 -32.737318 
L 41.853569 -32.76433 
L 41.792193 -32.582645 
z
" clip-path="url(#p8310745ea3)" style="fill: #eeeeee; stroke: #000000; stroke-width: 0.3"/>
    <path d="M 39.470861 -36.526808 
L 39.58079 -36.640429 
L 39.692916 -36.396498 
z
" clip-path="url(#p8310745ea3)" style="fill: #eeeeee; stroke: #000000; stroke-width: 0.3"/>
    <path d="M 36.857854 -30.371141 
L 37.222815 -31.026908 
L 38.209245 -30.977648 
z
" clip-path="url(#p8310745ea3)" style="fill: #eeeeee; stroke: #000000; stroke-width: 0.3"/>
    <path d="M 35.313717 -27.948277 
L 35.997662 -28.027205 
L 35.744273 -27.366667 
z
" clip-path="url(#p8310745ea3)" style="fill: #eeeeee; stroke: #000000; stroke-width: 0.3"/>
    <path d="M 34.931534 -30.268904 
L 35.685644 -30.311811 
L 35.060518 -30.049076 
z
" clip-path="url(#p8310745ea3)" style="fill: #eeeeee; stroke: #000000; stroke-width: 0.3"/>
    <path d="M 27.925402 21.695416 
L 27.983667 21.879223 
L 27.952152 21.910206 
z
" clip-path="url(#p8310745ea3)" style="fill: #eeeeee; stroke: #000000; stroke-width: 0.3"/>
    <path d="M 27.846438 7.918917 
L 28.151126 7.845821 
L 28.433273 8.359633 
z
" clip-path="url(#p8310745ea3)" style="fill: #eeeeee; stroke: #000000; stroke-width: 0.3"/>
    <path d="M 23.83605 -12.11177 
L 24.097683 -12.284453 
L 24.204681 -12.333719 
z
" clip-path="url(#p8310745ea3)" style="fill: #eeeeee; stroke: #000000; stroke-width: 0.3"/>
    <path d="M 23.669145 -11.38952 
L 23.673355 -11.702843 
L 23.83605 -11.711845 
z
" clip-path="url(#p8310745ea3)" style="fill: #eeeeee; stroke: #000000; stroke-width: 0.3"/>
    <path d="M 23.466691 -11.040717 
L 23.719161 -11.216043 
L 23.598236 -10.824593 
z
" clip-path="url(#p8310745ea3)" style="fill: #eeeeee; stroke: #000000; stroke-width: 0.3"/>
    <path d="M 23.095314 -10.641052 
L 23.143866 -10.747787 
L 23.435176 -10.757322 
z
" clip-path="url(#p8310745ea3)" style="fill: #eeeeee; stroke: #000000; stroke-width: 0.3"/>
    <path d="M 22.010865 -19.570509 
L 22.137286 -19.859195 
L 22.167513 -19.827945 
z
" clip-path="url(#p8310745ea3)" style="fill: #eeeeee; stroke: #000000; stroke-width: 0.3"/>
    <path d="M 21.903138 -18.167856 
L 22.283858 -18.101113 
L 21.930618 -18.07781 
z
" clip-path="url(#p8310745ea3)" style="fill: #eeeeee; stroke: #000000; stroke-width: 0.3"/>
    <path d="M 20.750532 -9.836965 
L 21.365216 -10.325614 
L 21.180903 -9.87749 
z
" clip-path="url(#p8310745ea3)" style="fill: #eeeeee; stroke: #000000; stroke-width: 0.3"/>
    <path d="M 20.688971 -5.017208 
L 21.180903 -5.061697 
L 21.191898 -4.992044 
z
" clip-path="url(#p8310745ea3)" style="fill: #eeeeee; stroke: #000000; stroke-width: 0.3"/>
    <path d="M 20.573729 30.02339 
L 20.686224 29.964068 
L 20.62723 30.049615 
z
" clip-path="url(#p8310745ea3)" style="fill: #eeeeee; stroke: #000000; stroke-width: 0.3"/>
    <path d="M 20.394545 29.693385 
L 20.49568 29.791912 
L 20.468565 29.840644 
z
" clip-path="url(#p8310745ea3)" style="fill: #eeeeee; stroke: #000000; stroke-width: 0.3"/>
    <path d="M 18.003228 -24.288303 
L 18.403003 -23.977102 
L 18.033643 -23.977102 
z
" clip-path="url(#p8310745ea3)" style="fill: #eeeeee; stroke: #000000; stroke-width: 0.3"/>
    <path d="M 17.508549 -12.870834 
L 18.682223 -13.044578 
L 17.996267 -12.484415 
z
" clip-path="url(#p8310745ea3)" style="fill: #eeeeee; stroke: #000000; stroke-width: 0.3"/>
    <path d="M 17.105843 -21.83154 
L 17.293087 -22.065935 
L 17.474838 -22.057994 
z
" clip-path="url(#p8310745ea3)" style="fill: #eeeeee; stroke: #000000; stroke-width: 0.3"/>
    <path d="M 16.567191 -20.709632 
L 16.651837 -20.883643 
L 16.778619 -20.829079 
z
" clip-path="url(#p8310745ea3)" style="fill: #eeeeee; stroke: #000000; stroke-width: 0.3"/>
    <path d="M 15.627665 -19.002138 
L 15.79879 -19.286587 
L 16.538059 -18.826278 
z
" clip-path="url(#p8310745ea3)" style="fill: #eeeeee; stroke: #000000; stroke-width: 0.3"/>
    <path d="M 10.234926 -21.480615 
L 10.473839 -21.431882 
L 10.299783 -21.339715 
z
" clip-path="url(#p8310745ea3)" style="fill: #eeeeee; stroke: #000000; stroke-width: 0.3"/>
    <path d="M 91.852612 47.277664 
L 92.430595 46.321391 
L 91.971154 45.508875 
L 93.02766 45.158255 
L 94.110564 45.812141 
L 94.381874 46.651025 
L 94.951013 46.56374 
L 94.728571 47.22351 
L 95.937123 46.410356 
L 95.941311 45.232419 
L 97.874903 45.534136 
L 98.418917 46.446181 
L 99.578606 46.423979 
L 101.305111 45.150184 
L 103.795749 45.049777 
L 103.809243 44.394042 
L 104.10475 44.223507 
L 104.088927 44.569284 
L 105.250012 44.894713 
L 106.445074 44.647658 
L 106.52139 45.376886 
L 107.525187 45.954922 
L 107.841168 44.69576 
L 107.030504 44.278671 
L 107.477252 43.474434 
L 106.368754 41.694072 
L 109.342903 40.028078 
L 109.563485 38.746707 
L 110.742954 39.083573 
L 111.189706 37.490572 
L 112.356374 38.627808 
L 113.484423 38.843079 
L 114.082415 38.29279 
L 115.061546 38.728547 
L 115.623238 37.424981 
L 116.250089 37.514115 
L 116.441354 35.918757 
L 120.207556 36.801368 
L 121.409129 37.643949 
L 122.63816 37.745535 
L 123.364127 37.235608 
L 124.955678 37.799351 
L 125.280038 38.546745 
L 124.827234 40.099553 
L 126.195411 42.443822 
L 125.545759 43.369151 
L 125.866864 44.376722 
L 124.615496 44.591655 
L 123.581454 44.07921 
L 122.86107 44.683647 
L 123.862534 44.939619 
L 124.127792 45.486204 
L 123.910465 46.04019 
L 122.978806 46.405142 
L 123.155644 47.186513 
L 122.883407 47.769926 
L 123.318988 48.093005 
L 122.936922 48.831482 
L 123.214746 48.997643 
L 122.262609 48.960145 
L 120.942368 50.109826 
L 121.100106 51.131697 
L 120.35275 50.781533 
L 119.385718 50.826608 
L 118.605303 51.496473 
L 116.801082 51.269258 
L 115.848476 51.584429 
L 114.452383 53.032632 
L 104.837701 51.005215 
L 104.214575 49.846453 
L 103.585401 49.581401 
L 103.827394 48.433568 
L 101.820272 49.179452 
L 99.297063 49.223511 
L 98.497561 50.49109 
L 96.198193 49.988232 
L 95.690016 49.012614 
L 94.509849 49.98335 
L 93.446486 49.460646 
L 93.369238 48.887485 
L 92.122989 48.618065 
z
" clip-path="url(#p8310745ea3)" style="fill: #eeeeee; stroke: #000000; stroke-width: 0.3"/>
    <path d="M 78.711856 61.332839 
L 80.988656 60.319052 
L 81.224133 59.331497 
L 80.423236 58.67929 
L 80.335749 57.8357 
L 79.519034 56.945688 
L 80.600079 55.983693 
L 81.19202 56.300883 
L 82.937144 55.600581 
L 84.299733 56.023047 
L 85.501305 54.670877 
L 85.3966 53.728058 
L 86.800605 52.553988 
L 86.976047 53.965193 
L 88.645778 54.913057 
L 88.461028 55.607305 
L 88.924998 55.841752 
L 89.055765 56.627152 
L 89.516944 56.664155 
L 89.790112 56.154899 
L 89.515548 55.241344 
L 90.518408 53.99244 
L 90.77715 52.25984 
L 91.463098 52.253618 
L 91.921485 53.553487 
L 93.641475 53.081404 
L 94.34976 54.065093 
L 94.724379 53.788937 
L 94.421893 53.356044 
L 94.642475 52.874711 
L 94.127319 52.592501 
L 94.156172 52.028088 
L 94.873765 51.417259 
L 96.00786 51.997144 
L 96.075801 51.438446 
L 95.670934 51.120586 
L 96.052068 49.870673 
L 98.497561 50.49109 
L 99.297063 49.223511 
L 101.820272 49.179452 
L 103.827394 48.433568 
L 103.585401 49.581401 
L 104.214575 49.846453 
L 104.837701 51.005215 
L 110.672915 52.114195 
L 109.161409 53.607642 
L 109.363377 54.143461 
L 110.386715 54.323083 
L 109.596062 55.455607 
L 110.244782 55.592172 
L 110.065152 56.601591 
L 111.023102 57.167345 
L 111.545242 57.893552 
L 111.333968 58.200646 
L 110.721593 58.14502 
L 111.155445 58.007563 
L 110.102326 56.866585 
L 109.325496 57.609754 
L 109.180023 57.159508 
L 108.053987 56.981527 
L 107.899356 57.827994 
L 104.921749 59.154895 
L 105.633353 58.407488 
L 104.80046 58.496212 
L 103.709599 59.965868 
L 104.051843 60.676734 
L 104.397753 60.504578 
L 104.674776 61.934777 
L 104.674776 61.57908 
L 105.417895 62.201215 
L 105.015922 63.174542 
L 104.846266 62.7137 
L 104.888037 63.286575 
L 104.21344 63.134551 
L 104.674776 66.883516 
L 106.128036 68.576183 
L 110.288476 71.375923 
L 112.358801 77.635415 
L 115.212918 80.390927 
L 115.354725 80.98234 
L 117.266754 82.003072 
L 121.657313 82.054454 
L 121.854819 82.967664 
L 120.574881 84.041366 
L 120.849702 85.051508 
L 125.784775 87.509325 
L 127.671152 89.147694 
L 130.061736 90.315692 
L 132.35412 93.644866 
L 131.782491 95.741695 
L 130.352316 95.126974 
L 129.413889 92.691932 
L 127.833114 92.574341 
L 126.428956 91.814749 
L 126.982998 91.306495 
L 125.41981 91.344638 
L 123.747792 94.001356 
L 123.868712 94.771017 
L 123.230029 96.014226 
L 123.482863 96.758457 
L 126.242077 98.416164 
L 126.303638 101.317074 
L 123.661683 102.375948 
L 123.589496 104.773382 
L 121.78776 106.636877 
L 121.37223 107.960335 
L 119.603841 107.871611 
L 119.371525 106.135249 
L 120.182067 105.612428 
L 120.654763 104.205278 
L 120.289064 103.344778 
L 121.711912 102.811633 
L 122.023007 101.993507 
L 120.009114 95.259933 
L 119.33305 94.044791 
L 118.368674 94.590348 
L 117.698409 94.359969 
L 117.0949 93.447026 
L 116.122028 92.978236 
L 116.51432 91.963395 
L 115.540506 90.190947 
L 113.562152 90.836918 
L 114.154305 89.801612 
L 113.344128 89.091547 
L 112.234203 89.411679 
L 112.115543 88.550931 
L 110.76703 86.399335 
L 109.966016 86.697297 
L 108.803702 86.117269 
L 107.717605 86.561162 
L 107.03751 85.442958 
L 105.874467 85.129374 
L 104.090319 83.249724 
L 103.105726 81.57825 
L 102.237289 81.310751 
L 101.475115 79.714761 
L 100.207267 78.884717 
L 98.991456 78.986419 
L 99.359907 78.407088 
L 99.224871 77.861863 
L 98.257496 76.697048 
L 97.301482 76.297123 
L 97.44659 75.556069 
L 96.25789 75.411459 
L 96.386874 73.417921 
L 95.437091 71.817695 
L 95.141747 69.513489 
L 94.416585 68.349996 
L 93.3096 67.80811 
L 93.253537 68.239818 
L 90.544524 66.212915 
L 90.454749 66.52782 
L 88.436088 65.702546 
L 87.10192 66.534706 
L 85.308248 69.187721 
L 82.762295 69.867597 
L 82.65234 69.390535 
L 83.607269 68.076879 
L 83.452769 67.369177 
L 82.034333 67.710248 
L 80.380889 66.891541 
L 79.761022 65.039203 
L 80.319927 64.068466 
L 80.748992 64.057362 
L 80.522827 63.125979 
L 79.354295 62.606302 
z
M 105.053925 82.158552 
L 105.058446 82.166122 
L 105.058211 82.158897 
z
M 104.795574 68.850979 
L 105.167645 69.055172 
L 105.185084 68.628645 
z
" clip-path="url(#p8310745ea3)" style="fill: #eeeeee; stroke: #000000; stroke-width: 0.3"/>
    <path d="M 85.666617 90.689925 
L 85.872547 88.277925 
L 86.400208 89.014214 
L 87.347059 89.168353 
L 88.706879 88.384926 
L 90.544524 86.332592 
L 91.407832 86.865736 
L 91.500173 87.443382 
L 92.025632 87.221172 
L 91.810904 87.936268 
L 92.48953 88.024992 
L 91.776458 88.517878 
L 92.76582 89.051556 
L 92.468278 89.344747 
L 93.109532 91.58618 
L 92.325371 92.838664 
L 92.803196 94.0048 
L 92.056413 100.088699 
L 91.84095 100.379501 
L 89.568724 99.342346 
L 89.865532 99.598195 
L 89.621856 101.090626 
L 88.845391 101.854195 
L 88.229788 101.498765 
L 87.889376 101.943186 
L 87.522948 100.690968 
L 86.68199 99.614611 
L 87.002618 96.132618 
L 87.33094 96.489896 
L 87.550797 96.496783 
L 87.274508 96.36383 
L 87.503158 95.50995 
L 86.779829 95.11956 
L 86.70178 94.331362 
L 87.209651 93.871053 
L 86.713869 91.500372 
L 86.315931 90.675886 
z
" clip-path="url(#p8310745ea3)" style="fill: #eeeeee; stroke: #000000; stroke-width: 0.3"/>
    <path d="M 104.936774 108.890228 
L 105.233582 107.429573 
L 106.186661 106.847696 
L 106.309048 106.314285 
L 107.071591 107.386406 
L 107.793088 107.025678 
L 107.971174 106.331768 
L 108.949175 106.132861 
L 109.27896 106.89749 
L 111.077396 107.740774 
L 112.111824 107.247621 
L 114.323592 107.280199 
L 116.103706 106.34739 
L 116.917913 106.734342 
L 117.589948 105.845502 
L 117.836186 106.221591 
L 119.456171 105.777171 
L 117.481483 109.121707 
L 116.934402 110.970107 
L 116.988268 111.931516 
L 117.656637 112.400567 
L 117.348104 112.727656 
L 118.018666 114.002388 
L 117.23524 114.571286 
L 116.945028 116.32407 
L 114.213664 115.423045 
L 113.274872 113.791562 
L 110.739915 112.962578 
L 108.300594 110.908129 
L 105.982928 110.399615 
z
" clip-path="url(#p8310745ea3)" style="fill: #eeeeee; stroke: #000000; stroke-width: 0.3"/>
    <path d="M 94.489501 76.603286 
L 94.607494 76.248391 
L 96.005055 76.030151 
L 95.879737 76.918991 
z
" clip-path="url(#p8310745ea3)" style="fill: #eeeeee; stroke: #000000; stroke-width: 0.3"/>
    <path d="M 91.473788 86.831838 
L 91.643814 86.505542 
L 91.644178 86.875272 
L 91.596909 86.918179 
z
" clip-path="url(#p8310745ea3)" style="fill: #eeeeee; stroke: #000000; stroke-width: 0.3"/>
    <path d="M 86.038908 99.935347 
L 86.380419 99.801861 
L 86.380419 100.379501 
L 86.150304 100.362818 
z
" clip-path="url(#p8310745ea3)" style="fill: #eeeeee; stroke: #000000; stroke-width: 0.3"/>
    <path d="M 117.364224 102.433423 
L 117.477084 102.293844 
L 117.501272 102.537508 
z
" clip-path="url(#p8310745ea3)" style="fill: #eeeeee; stroke: #000000; stroke-width: 0.3"/>
    <path d="M 116.289122 104.988705 
L 116.55515 105.110801 
L 116.462809 105.199264 
z
" clip-path="url(#p8310745ea3)" style="fill: #eeeeee; stroke: #000000; stroke-width: 0.3"/>
    <path d="M 116.183588 104.16899 
L 116.429097 104.395705 
L 116.370468 104.617648 
z
" clip-path="url(#p8310745ea3)" style="fill: #eeeeee; stroke: #000000; stroke-width: 0.3"/>
    <path d="M 115.593638 103.848521 
L 115.923059 103.786549 
L 115.899239 104.058813 
z
" clip-path="url(#p8310745ea3)" style="fill: #eeeeee; stroke: #000000; stroke-width: 0.3"/>
    <path d="M 114.462104 103.749207 
L 114.55884 103.764301 
L 114.503146 103.913675 
z
" clip-path="url(#p8310745ea3)" style="fill: #eeeeee; stroke: #000000; stroke-width: 0.3"/>
    <path d="M 113.562886 104.006904 
L 113.627743 103.981213 
L 113.644232 104.060401 
z
" clip-path="url(#p8310745ea3)" style="fill: #eeeeee; stroke: #000000; stroke-width: 0.3"/>
    <path d="M 111.340127 89.895374 
L 111.401688 89.588671 
L 111.865586 89.766652 
z
" clip-path="url(#p8310745ea3)" style="fill: #eeeeee; stroke: #000000; stroke-width: 0.3"/>
    <path d="M 109.384125 89.435853 
L 109.42663 89.342365 
L 109.46181 89.334417 
z
" clip-path="url(#p8310745ea3)" style="fill: #eeeeee; stroke: #000000; stroke-width: 0.3"/>
    <path d="M 108.207889 103.046816 
L 108.352992 102.898769 
L 108.405759 102.958626 
z
" clip-path="url(#p8310745ea3)" style="fill: #eeeeee; stroke: #000000; stroke-width: 0.3"/>
    <path d="M 106.822782 121.480719 
L 106.949569 121.456356 
L 106.942972 121.548523 
z
" clip-path="url(#p8310745ea3)" style="fill: #eeeeee; stroke: #000000; stroke-width: 0.3"/>
    <path d="M 105.383085 123.733015 
L 105.516098 123.703354 
L 105.765637 123.911524 
z
" clip-path="url(#p8310745ea3)" style="fill: #eeeeee; stroke: #000000; stroke-width: 0.3"/>
    <path d="M 104.461511 59.741009 
L 104.766383 59.184296 
L 104.954361 59.300566 
z
" clip-path="url(#p8310745ea3)" style="fill: #eeeeee; stroke: #000000; stroke-width: 0.3"/>
    <path d="M 104.45785 59.208399 
L 104.652056 59.079417 
L 104.644361 59.154368 
z
" clip-path="url(#p8310745ea3)" style="fill: #eeeeee; stroke: #000000; stroke-width: 0.3"/>
    <path d="M 104.363312 108.094615 
L 104.428903 107.918222 
L 104.674776 108.055685 
z
" clip-path="url(#p8310745ea3)" style="fill: #eeeeee; stroke: #000000; stroke-width: 0.3"/>
    <path d="M 103.151162 107.670855 
L 103.255228 107.618412 
L 103.371019 107.892798 
z
" clip-path="url(#p8310745ea3)" style="fill: #eeeeee; stroke: #000000; stroke-width: 0.3"/>
    <path d="M 102.676269 115.30201 
L 103.246065 115.442643 
L 103.151896 115.761525 
z
" clip-path="url(#p8310745ea3)" style="fill: #eeeeee; stroke: #000000; stroke-width: 0.3"/>
    <path d="M 97.889235 79.14904 
L 98.240161 79.380877 
L 98.166168 79.458542 
z
" clip-path="url(#p8310745ea3)" style="fill: #eeeeee; stroke: #000000; stroke-width: 0.3"/>
    <path d="M 95.334489 79.397995 
L 95.431229 79.315097 
L 95.419134 79.424747 
z
" clip-path="url(#p8310745ea3)" style="fill: #eeeeee; stroke: #000000; stroke-width: 0.3"/>
    <path d="M 94.235203 77.745326 
L 94.366384 77.537156 
L 94.394963 77.807038 
z
" clip-path="url(#p8310745ea3)" style="fill: #eeeeee; stroke: #000000; stroke-width: 0.3"/>
    <path d="M 93.114908 74.973353 
L 93.13943 74.591907 
L 93.297848 74.861717 
z
" clip-path="url(#p8310745ea3)" style="fill: #eeeeee; stroke: #000000; stroke-width: 0.3"/>
    <path d="M 91.185774 86.5458 
L 91.37119 86.33392 
L 91.28581 86.671339 
z
" clip-path="url(#p8310745ea3)" style="fill: #eeeeee; stroke: #000000; stroke-width: 0.3"/>
    <path d="M 86.561435 100.423996 
L 87.182167 100.605948 
L 86.848716 101.308599 
z
" clip-path="url(#p8310745ea3)" style="fill: #eeeeee; stroke: #000000; stroke-width: 0.3"/>
    <path d="M 85.947301 88.069488 
L 86.472026 87.221172 
L 86.112928 88.083528 
z
" clip-path="url(#p8310745ea3)" style="fill: #eeeeee; stroke: #000000; stroke-width: 0.3"/>
    <path d="M 75.811236 54.117562 
L 76.401785 53.893549 
L 76.612128 53.158262 
L 76.242165 52.767241 
L 76.531156 51.699462 
L 77.93051 50.545075 
L 77.991008 49.351666 
L 78.994102 48.849648 
L 80.665229 46.843424 
L 79.900168 46.682978 
L 80.380425 45.80474 
L 81.31488 45.810123 
L 81.572691 46.275307 
L 83.369001 45.115537 
L 83.577952 45.445673 
L 87.527973 45.151864 
L 87.737852 44.716445 
L 86.765236 44.656738 
L 87.516802 43.773457 
L 88.973398 44.717454 
L 90.736198 44.756808 
L 92.434318 46.045573 
L 91.700435 47.621254 
L 91.6539 48.57232 
L 93.369238 48.887485 
L 93.446486 49.460646 
L 94.509849 49.98335 
L 95.715145 49.017489 
L 96.052068 49.870673 
L 95.670934 51.120586 
L 96.075801 51.438446 
L 96.00786 51.997144 
L 94.873765 51.417259 
L 94.156172 52.028088 
L 94.127319 52.592501 
L 94.642475 52.874711 
L 94.53963 53.992772 
L 94.200843 54.062066 
L 93.641475 53.081404 
L 91.921485 53.553487 
L 91.463098 52.253618 
L 90.691059 52.339562 
L 90.518408 53.99244 
L 89.515548 55.241344 
L 89.790112 56.154899 
L 89.516944 56.664155 
L 89.055765 56.627152 
L 88.924998 55.841752 
L 88.461028 55.607305 
L 88.645778 54.913057 
L 86.976047 53.965193 
L 86.800605 52.553988 
L 85.3966 53.728058 
L 85.501305 54.670877 
L 84.243422 56.05399 
L 82.937144 55.600581 
L 80.802047 56.211749 
L 79.484598 54.619749 
L 79.541836 52.801381 
L 78.761187 52.529774 
L 77.355783 52.929536 
L 76.962086 53.44383 
L 77.264108 53.934581 
L 75.812631 54.648005 
z
" clip-path="url(#p8310745ea3)" style="fill: #eeeeee; stroke: #000000; stroke-width: 0.3"/>
    <path d="M 64.520709 19.504298 
L 66.322076 18.976719 
L 67.4646 20.051221 
L 68.267816 20.038242 
L 66.939142 19.110205 
L 67.925936 19.110205 
L 67.501243 18.790529 
L 67.789257 18.48807 
L 66.372641 17.640542 
L 67.342213 17.461506 
L 67.062997 16.523399 
L 67.631326 16.406869 
L 69.280628 14.253893 
L 70.349133 10.145255 
L 70.926994 10.559487 
L 71.847099 10.233719 
L 73.202885 9.30065 
L 74.158899 7.963412 
L 75.911533 7.291223 
L 79.731192 7.001476 
L 80.052918 7.644531 
L 81.376828 8.339501 
L 81.368859 9.947324 
L 80.665692 12.229528 
L 79.316598 12.312108 
L 79.022487 12.917554 
L 79.216544 13.439086 
L 80.380425 13.505347 
L 80.717815 14.067066 
L 80.619157 14.942114 
L 79.028075 16.117525 
L 79.648405 16.699936 
L 77.551235 17.607769 
L 76.56978 17.115508 
L 76.701016 17.47138 
L 75.689307 17.643256 
L 76.92253 19.968355 
L 76.252868 21.57431 
L 76.660991 21.961288 
L 75.333771 22.674041 
L 75.433357 23.177739 
L 76.284977 23.554127 
L 75.975043 24.580027 
L 74.676676 24.55211 
L 74.307172 24.056985 
L 75.228597 21.933879 
L 73.716159 21.087256 
L 72.465259 21.268219 
L 71.619223 19.848779 
L 71.091499 20.401418 
L 70.424165 20.261657 
L 70.69687 20.259639 
L 70.498626 19.728024 
L 69.829897 20.230212 
L 69.167678 19.864921 
L 68.690681 20.069596 
L 68.758622 20.671514 
L 66.987145 20.003016 
L 66.214344 20.406911 
z
" clip-path="url(#p8310745ea3)" style="fill: #eeeeee; stroke: #000000; stroke-width: 0.3"/>
    <path d="M 64.063214 20.509987 
L 64.927446 20.239793 
L 66.245125 20.718112 
L 66.921185 20.280578 
L 67.989897 20.556995 
L 67.528196 21.179254 
L 66.131171 21.61585 
L 65.234412 21.061864 
L 64.253421 21.346085 
z
" clip-path="url(#p8310745ea3)" style="fill: #eeeeee; stroke: #000000; stroke-width: 0.3"/>
    <path d="M 70.179111 9.74904 
L 70.839416 8.712414 
L 71.01164 9.211659 
L 70.575221 9.932314 
z
" clip-path="url(#p8310745ea3)" style="fill: #eeeeee; stroke: #000000; stroke-width: 0.3"/>
    <path d="M 78.047084 6.301734 
L 78.29479 6.396023 
L 78.23323 6.444229 
z
" clip-path="url(#p8310745ea3)" style="fill: #eeeeee; stroke: #000000; stroke-width: 0.3"/>
    <path d="M 76.571838 6.940825 
L 77.397405 6.587778 
L 77.523089 6.666699 
z
" clip-path="url(#p8310745ea3)" style="fill: #eeeeee; stroke: #000000; stroke-width: 0.3"/>
    <path d="M 74.359336 7.013921 
L 75.609961 6.849979 
L 75.79354 6.933145 
z
" clip-path="url(#p8310745ea3)" style="fill: #eeeeee; stroke: #000000; stroke-width: 0.3"/>
    <path d="M 72.250171 7.537529 
L 72.621728 7.288834 
L 74.130685 6.981877 
z
" clip-path="url(#p8310745ea3)" style="fill: #eeeeee; stroke: #000000; stroke-width: 0.3"/>
    <path d="M 71.090788 8.551381 
L 71.434496 8.046844 
L 71.967285 7.918917 
z
" clip-path="url(#p8310745ea3)" style="fill: #eeeeee; stroke: #000000; stroke-width: 0.3"/>
    <path d="M 65.581888 18.443575 
L 66.156084 18.082053 
L 67.440052 18.694652 
z
" clip-path="url(#p8310745ea3)" style="fill: #eeeeee; stroke: #000000; stroke-width: 0.3"/>
    <path d="M 91.6539 48.57232 
L 91.852612 47.277664 
L 92.278422 48.293306 
L 92.122989 48.618065 
z
" clip-path="url(#p8310745ea3)" style="fill: #eeeeee; stroke: #000000; stroke-width: 0.3"/>
    <path d="M 109.800024 58.674194 
L 111.519649 59.248748 
L 111.892872 58.659106 
L 113.698025 58.895909 
L 114.635268 57.659444 
L 115.608816 58.978313 
L 116.173768 58.6544 
L 117.149176 59.207038 
L 117.986364 59.058705 
L 117.731346 58.089987 
L 118.205087 57.839059 
L 117.670384 57.297186 
L 119.56628 56.52759 
L 119.664938 55.261528 
L 119.178166 54.758332 
L 119.402936 54.145479 
L 121.111295 53.55214 
L 121.285805 53.039863 
L 122.265864 53.068288 
L 122.08251 52.286078 
L 122.574402 51.936936 
L 124.796521 53.011608 
L 126.833892 55.597216 
L 128.189038 55.912387 
L 129.391074 56.983024 
L 131.850994 57.177772 
L 132.982298 56.098727 
L 134.088473 55.94501 
L 133.834846 56.696778 
L 134.390959 57.65339 
L 134.098712 58.275994 
L 135.011294 58.675925 
L 134.576177 58.760353 
L 134.43151 59.590001 
L 136.369227 60.684004 
L 135.081562 60.731767 
L 134.734865 61.112862 
L 135.12577 62.310976 
L 134.035886 62.909705 
L 133.110274 61.454271 
L 132.358244 61.642628 
L 131.101293 60.981348 
L 129.290556 61.586793 
L 128.610655 60.938961 
L 126.369922 61.039199 
L 125.186963 60.154232 
L 124.679717 60.826616 
L 123.406475 60.559546 
L 122.448754 61.998161 
L 121.116878 60.613701 
L 120.089816 60.770782 
L 119.80222 63.509097 
L 121.152247 64.44889 
L 121.052193 64.993796 
L 121.549203 65.120936 
L 122.496685 67.978997 
L 125.664896 71.454109 
L 126.745472 72.009104 
L 126.83296 73.049135 
L 128.357033 74.721013 
L 128.38449 75.346981 
L 127.849238 75.291746 
L 127.787677 74.822429 
L 124.989988 72.381828 
L 122.787379 71.699303 
L 122.978292 71.445843 
L 120.842372 71.743798 
L 120.801699 70.542435 
L 119.702409 70.055108 
L 117.17295 67.242922 
L 117.155362 66.676667 
L 117.851576 66.883516 
L 117.698409 66.350372 
L 118.433467 66.770956 
L 118.902494 66.746059 
L 116.55515 64.806819 
L 115.998911 63.805152 
L 116.169297 62.274311 
L 115.859301 61.396595 
L 114.58962 60.09485 
L 113.422178 59.767234 
L 112.701046 62.152749 
L 112.329484 62.334701 
L 112.396907 62.094741 
L 112.200869 61.752558 
L 112.019488 63.223008 
L 111.524805 63.090056 
L 111.650124 63.449456 
L 111.583434 63.487598 
L 110.322917 61.530614 
L 110.786819 61.130683 
L 110.200165 61.059703 
L 110.261356 59.922434 
z
" clip-path="url(#p8310745ea3)" style="fill: #eeeeee; stroke: #000000; stroke-width: 0.3"/>
    <path d="M 125.534867 74.688943 
L 128.866079 76.070409 
L 128.469235 75.734044 
L 129.182591 75.610855 
L 129.392934 76.215468 
L 131.999448 77.893236 
L 132.265444 78.823272 
L 129.547637 76.38558 
L 128.773738 76.155162 
L 128.958051 76.464508 
L 128.898692 76.507943 
L 126.490517 75.13734 
L 125.735304 75.05629 
z
" clip-path="url(#p8310745ea3)" style="fill: #eeeeee; stroke: #000000; stroke-width: 0.3"/>
    <path d="M 113.273409 61.268407 
L 113.431705 60.883843 
L 114.151374 62.192207 
L 114.333489 64.205077 
L 113.946173 64.241625 
L 113.344128 62.600873 
L 113.871789 62.290206 
z
" clip-path="url(#p8310745ea3)" style="fill: #eeeeee; stroke: #000000; stroke-width: 0.3"/>
    <path d="M 113.933345 61.437647 
L 114.406406 61.128568 
L 114.490687 60.387247 
L 115.68891 62.152749 
L 115.276676 62.374959 
z
" clip-path="url(#p8310745ea3)" style="fill: #eeeeee; stroke: #000000; stroke-width: 0.3"/>
    <path d="M 122.851871 72.858559 
L 122.944212 72.458901 
L 125.042755 72.992045 
L 122.924427 72.957085 
z
" clip-path="url(#p8310745ea3)" style="fill: #eeeeee; stroke: #000000; stroke-width: 0.3"/>
    <path d="M 121.244714 74.599952 
L 121.611142 74.448462 
L 122.110954 74.555723 
L 121.417302 74.949556 
z
" clip-path="url(#p8310745ea3)" style="fill: #eeeeee; stroke: #000000; stroke-width: 0.3"/>
    <path d="M 116.80359 67.461155 
L 117.538644 68.084084 
L 117.667628 68.398729 
L 117.070716 67.914844 
z
" clip-path="url(#p8310745ea3)" style="fill: #eeeeee; stroke: #000000; stroke-width: 0.3"/>
    <path d="M 114.9817 63.315969 
L 115.292066 63.315969 
L 115.107388 63.001065 
L 115.887514 63.845937 
z
" clip-path="url(#p8310745ea3)" style="fill: #eeeeee; stroke: #000000; stroke-width: 0.3"/>
    <path d="M 126.985195 76.38558 
L 127.294098 76.314867 
L 128.899422 77.012219 
z
" clip-path="url(#p8310745ea3)" style="fill: #eeeeee; stroke: #000000; stroke-width: 0.3"/>
    <path d="M 124.72066 76.742071 
L 125.172104 76.474571 
L 125.24099 76.615471 
z
" clip-path="url(#p8310745ea3)" style="fill: #eeeeee; stroke: #000000; stroke-width: 0.3"/>
    <path d="M 123.869081 75.13734 
L 126.428956 75.533288 
L 124.858438 75.670484 
z
" clip-path="url(#p8310745ea3)" style="fill: #eeeeee; stroke: #000000; stroke-width: 0.3"/>
    <path d="M 122.697973 73.751636 
L 126.398176 74.19579 
L 125.271955 74.19579 
z
" clip-path="url(#p8310745ea3)" style="fill: #eeeeee; stroke: #000000; stroke-width: 0.3"/>
    <path d="M 121.976837 71.834377 
L 122.215385 71.685797 
L 122.714462 71.833583 
z
" clip-path="url(#p8310745ea3)" style="fill: #eeeeee; stroke: #000000; stroke-width: 0.3"/>
    <path d="M 121.92737 72.374675 
L 122.272181 72.342891 
L 122.594637 72.819629 
z
" clip-path="url(#p8310745ea3)" style="fill: #eeeeee; stroke: #000000; stroke-width: 0.3"/>
    <path d="M 119.240709 70.632487 
L 119.855946 70.939711 
L 119.548143 70.87509 
z
" clip-path="url(#p8310745ea3)" style="fill: #eeeeee; stroke: #000000; stroke-width: 0.3"/>
    <path d="M 117.698409 68.443224 
L 118.530572 69.247311 
L 118.137024 69.039935 
z
" clip-path="url(#p8310745ea3)" style="fill: #eeeeee; stroke: #000000; stroke-width: 0.3"/>
    <path d="M 117.547807 69.332331 
L 117.721494 69.445952 
L 118.303749 69.996579 
z
" clip-path="url(#p8310745ea3)" style="fill: #eeeeee; stroke: #000000; stroke-width: 0.3"/>
    <path d="M 115.845009 67.372165 
L 116.55515 67.909813 
L 117.397935 69.344249 
z
" clip-path="url(#p8310745ea3)" style="fill: #eeeeee; stroke: #000000; stroke-width: 0.3"/>
    <path d="M 115.722622 67.417194 
L 115.932951 67.600467 
L 115.744973 67.48738 
z
" clip-path="url(#p8310745ea3)" style="fill: #eeeeee; stroke: #000000; stroke-width: 0.3"/>
    <path d="M 115.42435 66.145905 
L 115.456959 65.811662 
L 115.636143 65.875756 
z
" clip-path="url(#p8310745ea3)" style="fill: #eeeeee; stroke: #000000; stroke-width: 0.3"/>
    <path d="M 115.389905 66.812008 
L 115.58411 66.741295 
L 115.575316 66.777843 
z
" clip-path="url(#p8310745ea3)" style="fill: #eeeeee; stroke: #000000; stroke-width: 0.3"/>
    <path d="M 115.322846 63.938111 
L 117.667628 66.301906 
L 117.101861 66.484385 
z
" clip-path="url(#p8310745ea3)" style="fill: #eeeeee; stroke: #000000; stroke-width: 0.3"/>
    <path d="M 114.698819 66.255822 
L 114.917208 66.394867 
L 114.99746 66.506106 
z
" clip-path="url(#p8310745ea3)" style="fill: #eeeeee; stroke: #000000; stroke-width: 0.3"/>
    <path d="M 113.531372 63.849647 
L 114.425461 65.364333 
L 113.654129 64.782716 
z
" clip-path="url(#p8310745ea3)" style="fill: #eeeeee; stroke: #000000; stroke-width: 0.3"/>
    <path d="M 113.06674 64.440266 
L 113.282203 64.104962 
L 113.240427 64.528196 
z
" clip-path="url(#p8310745ea3)" style="fill: #eeeeee; stroke: #000000; stroke-width: 0.3"/>
    <path d="M 109.161409 53.607642 
L 110.672915 52.114195 
L 114.452383 53.032632 
L 115.848476 51.584429 
L 116.801082 51.269258 
L 118.605303 51.496473 
L 119.385718 50.826608 
L 120.35275 50.781533 
L 121.100106 51.131697 
L 120.898624 50.155734 
L 121.448217 49.881432 
L 122.489706 50.0333 
L 122.719595 51.402458 
L 123.279896 51.951061 
L 122.213277 52.139086 
L 122.265864 53.068288 
L 121.285805 53.039863 
L 121.111295 53.55214 
L 119.402936 54.145479 
L 119.178166 54.758332 
L 119.664938 55.261528 
L 119.56628 56.52759 
L 117.670384 57.297186 
L 118.205087 57.839059 
L 117.731346 58.089987 
L 117.986364 59.058705 
L 117.149176 59.207038 
L 116.173768 58.6544 
L 115.608816 58.978313 
L 114.635268 57.659444 
L 113.698025 58.895909 
L 110.41162 59.015772 
L 110.077043 58.496212 
L 111.545242 57.893552 
L 110.134025 56.738826 
L 110.244782 55.592172 
L 109.596062 55.455607 
L 110.386715 54.323083 
L 109.363377 54.143461 
z
" clip-path="url(#p8310745ea3)" style="fill: #eeeeee; stroke: #000000; stroke-width: 0.3"/>
    <path d="M 104.795574 68.850979 
L 105.185084 68.628645 
L 105.167645 69.055172 
z
" clip-path="url(#p8310745ea3)" style="fill: #eeeeee; stroke: #000000; stroke-width: 0.3"/>
    <path d="M 82.147503 70.319919 
L 82.3331 70.054509 
L 82.321167 70.350909 
z
" clip-path="url(#p8310745ea3)" style="fill: #eeeeee; stroke: #000000; stroke-width: 0.3"/>
    <path d="M 55.314682 78.088323 
L 55.929898 77.306451 
L 56.735446 77.563602 
L 56.667964 78.260544 
L 55.774001 78.742886 
z
" clip-path="url(#p8310745ea3)" style="fill: #eeeeee; stroke: #000000; stroke-width: 0.3"/>
    <path d="M 6.217757 102.298348 
L 6.877882 99.775799 
L 6.614786 98.617975 
L 7.47791 98.416164 
L 8.050498 97.28959 
L 9.05136 93.738628 
L 9.425848 93.778352 
L 8.869973 93.244941 
L 9.569857 90.380046 
L 10.381862 89.633166 
L 9.950577 89.685876 
L 9.881871 89.453863 
L 10.05354 89.189807 
L 10.009936 89.051556 
L 9.57975 90.299797 
L 10.041081 87.047695 
L 9.641126 86.417079 
L 9.22085 83.670777 
L 9.825808 83.342692 
L 8.996638 83.245897 
L 9.054291 82.450141 
L 10.137713 81.201009 
L 11.959153 80.533162 
L 12.041759 81.080424 
L 12.53225 81.266769 
L 11.917039 82.274841 
L 12.539463 82.791153 
L 13.383172 82.093879 
L 13.425988 82.457822 
L 14.21199 82.188903 
L 15.469639 82.796198 
L 16.478551 82.320417 
L 16.743809 81.626 
L 19.221415 81.778369 
L 19.605341 82.396097 
L 19.527391 83.753317 
L 21.038433 84.330176 
L 20.519783 85.366842 
L 19.054114 86.300243 
L 18.343968 87.622809 
L 17.722008 87.93798 
L 18.290684 88.973976 
L 18.106398 91.67327 
L 18.388644 92.231291 
L 17.268975 93.370545 
L 18.004714 94.491301 
L 17.367863 96.542769 
L 14.95378 96.635268 
L 16.051345 98.082624 
L 16.363836 99.78663 
L 17.527483 100.625514 
L 16.990916 102.184884 
L 16.245402 102.768642 
L 15.845654 104.663699 
L 16.996968 106.43918 
L 17.699436 106.289161 
L 17.355066 107.422192 
L 16.235163 107.718696 
L 15.078032 110.386375 
L 15.627665 113.004958 
L 13.772802 114.086341 
L 10.348151 113.27113 
L 8.467267 113.938294 
L 9.573518 109.321409 
L 9.319035 109.37279 
L 9.336551 108.207767 
L 8.931169 107.87797 
L 9.473518 106.352213 
L 9.380425 105.230859 
L 8.716076 104.435696 
L 9.364656 104.795629 
L 10.228145 104.843835 
L 9.645705 104.627978 
L 9.478246 103.889312 
L 9.410458 104.435696 
L 8.881703 104.233878 
L 7.41928 104.843835 
L 7.630132 103.979117 
L 7.319978 103.237438 
L 7.972588 103.280417 
L 8.716076 102.520825 
L 8.405711 101.62377 
L 9.515258 100.423996 
L 8.746487 100.795053 
L 8.0063 102.165129 
L 7.951129 102.920464 
L 6.333917 102.996762 
z
" clip-path="url(#p8310745ea3)" style="fill: #eeeeee; stroke: #000000; stroke-width: 0.3"/>
    <path d="M 13.159762 114.204733 
L 13.590318 114.075217 
L 13.621098 114.164208 
L 13.393181 114.300076 
z
" clip-path="url(#p8310745ea3)" style="fill: #eeeeee; stroke: #000000; stroke-width: 0.3"/>
    <path d="M 8.099006 102.230811 
L 8.18127 102.021847 
L 8.271229 102.041706 
z
" clip-path="url(#p8310745ea3)" style="fill: #eeeeee; stroke: #000000; stroke-width: 0.3"/>
    <path d="M 105.053925 82.158552 
L 105.058211 82.158897 
L 105.058446 82.166122 
z
" clip-path="url(#p8310745ea3)" style="fill: #eeeeee; stroke: #000000; stroke-width: 0.3"/>
    <path d="M 38.890803 34.276372 
L 39.60424 34.276372 
L 39.866053 34.855072 
L 38.924515 34.769258 
z
" clip-path="url(#p8310745ea3)" style="fill: #eeeeee; stroke: #000000; stroke-width: 0.3"/>
    <path d="M 38.957861 31.36301 
L 38.992672 31.292297 
L 39.130449 31.344733 
z
" clip-path="url(#p8310745ea3)" style="fill: #eeeeee; stroke: #000000; stroke-width: 0.3"/>
    <path d="M 38.274102 33.283713 
L 38.285827 33.13592 
L 38.380734 33.185714 
z
" clip-path="url(#p8310745ea3)" style="fill: #eeeeee; stroke: #000000; stroke-width: 0.3"/>
    <path d="M 37.927458 32.878223 
L 37.971796 32.881139 
L 37.935153 32.962182 
z
" clip-path="url(#p8310745ea3)" style="fill: #eeeeee; stroke: #000000; stroke-width: 0.3"/>
    <path d="M 36.944148 33.148639 
L 37.717498 32.672435 
L 37.536112 33.165588 
z
" clip-path="url(#p8310745ea3)" style="fill: #eeeeee; stroke: #000000; stroke-width: 0.3"/>
    <path d="M 27.413316 2.961703 
L 28.580214 1.042321 
L 29.389288 0.731921 
L 29.566639 1.556134 
L 28.214884 3.054664 
z
" clip-path="url(#p8310745ea3)" style="fill: #eeeeee; stroke: #000000; stroke-width: 0.3"/>
   </g>
   <g id="PatchCollection_2">
    <path d="M 27.511339 40.231022 
L 27.528562 39.093219 
L 28.433273 38.381033 
L 31.088241 37.709371 
L 31.638797 38.381033 
L 31.826046 37.706722 
L 32.840685 38.034872 
L 33.153617 36.999039 
L 34.439418 36.801726 
L 34.480824 37.31024 
L 35.061981 36.808085 
L 34.908813 37.532717 
L 35.437023 37.132526 
L 36.904025 39.166055 
L 38.553322 37.932375 
L 38.489195 38.381033 
L 39.014289 38.691967 
L 39.740734 38.247813 
L 40.065211 39.136387 
L 39.847182 38.292309 
L 40.22131 37.932375 
L 40.68008 37.843918 
L 40.894988 38.47029 
L 42.873707 38.292309 
L 41.986399 37.616143 
L 41.764344 36.95084 
L 42.191964 35.751066 
L 41.80648 35.781521 
L 41.730633 34.565058 
L 42.009849 34.502552 
L 40.802832 33.472552 
L 40.495762 32.514579 
L 40.699131 31.936146 
L 40.26821 31.25707 
L 41.747486 31.739099 
L 43.294735 31.44326 
L 43.45358 31.908072 
L 43.10016 32.337659 
L 43.925907 33.721774 
L 44.747445 33.416932 
L 47.993642 34.147123 
L 50.833836 33.027864 
L 51.202466 32.757449 
L 50.138356 32.949731 
L 49.326711 32.488094 
L 50.043813 31.223171 
L 54.480542 29.598042 
L 55.830469 28.064024 
L 56.512761 28.208101 
L 55.922811 27.652448 
L 56.232807 27.048584 
L 55.984367 26.826641 
L 56.098694 23.806279 
L 60.336725 22.382504 
L 60.726882 23.205324 
L 60.629156 23.958432 
L 61.529639 24.752919 
L 63.071858 24.390323 
L 63.710339 26.031426 
L 65.228828 26.359713 
L 65.627645 27.52016 
L 67.007452 27.221808 
L 67.882341 27.77882 
L 67.558914 28.627123 
L 67.938184 29.069773 
L 67.585439 29.624097 
L 69.900629 29.56221 
L 70.664762 28.411181 
L 70.918384 28.551443 
L 70.52236 29.732745 
L 70.865798 30.025376 
L 70.815539 30.801025 
L 72.662571 31.470382 
L 73.549096 32.722652 
L 74.855838 32.394033 
L 75.821006 33.097699 
L 77.811378 32.940618 
L 79.211893 34.936246 
L 80.115167 34.62511 
L 80.692218 35.269916 
L 81.736035 35.286735 
L 82.348922 34.870655 
L 83.359694 35.72434 
L 85.905241 36.239982 
L 84.148956 38.476109 
L 83.880902 40.257305 
L 83.137716 41.634872 
L 83.297336 42.665146 
L 82.805445 44.384286 
L 83.139346 45.182957 
L 82.205124 46.185164 
L 80.380425 45.80474 
L 79.900168 46.682978 
L 80.665229 46.843424 
L 78.994102 48.849648 
L 77.991008 49.351666 
L 77.93051 50.545075 
L 76.531156 51.699462 
L 76.242165 52.767241 
L 76.606081 53.086279 
L 76.421331 53.850153 
L 75.794481 54.195937 
L 75.812631 54.648005 
L 76.629815 54.519518 
L 77.264108 53.934581 
L 76.962086 53.44383 
L 77.209657 53.056175 
L 78.172497 52.577368 
L 79.541836 52.801381 
L 79.376632 53.248242 
L 79.724726 53.743191 
L 79.445505 54.510431 
L 80.600079 55.983693 
L 79.60373 56.626813 
L 79.581856 57.331827 
L 81.224133 59.331497 
L 80.750392 60.615387 
L 78.711856 61.332839 
L 79.354295 62.606302 
L 80.532598 63.16433 
L 80.748992 64.057362 
L 80.319927 64.068466 
L 79.761022 65.039203 
L 80.130526 65.67526 
L 79.897841 66.09302 
L 80.423236 66.941661 
L 81.991053 67.69982 
L 83.452769 67.369177 
L 83.607269 68.076879 
L 82.65234 69.390535 
L 82.64577 70.047161 
L 81.183353 70.762263 
L 81.126141 71.41805 
L 80.329936 71.508609 
L 80.023488 72.240733 
L 79.290082 72.369487 
L 78.658562 73.273903 
L 79.120006 73.247379 
L 79.058891 73.712251 
L 77.688139 74.432873 
L 76.867872 74.316154 
L 76.808769 74.79034 
L 75.731984 74.151828 
L 75.3523 74.732364 
L 74.529722 73.853261 
L 73.057619 73.618873 
L 72.819846 72.710395 
L 71.648468 72.840548 
L 71.612951 72.359841 
L 72.514366 71.897944 
L 71.626508 71.388369 
L 71.725441 72.230065 
L 70.901711 72.280919 
L 70.845891 72.799522 
L 70.404831 72.275094 
L 70.335575 71.610312 
L 70.120117 71.254882 
L 70.335944 72.273766 
L 70.68605 72.769731 
L 66.780845 71.50967 
L 63.003322 74.332192 
L 62.678301 77.438629 
L 63.304759 78.724615 
L 62.191389 78.472451 
L 60.968875 79.326468 
L 59.236318 78.743218 
L 57.967732 79.263572 
L 56.691234 78.319574 
L 56.735446 77.563602 
L 55.417528 77.65778 
L 55.027087 76.920482 
L 52.642092 76.120112 
L 51.937061 76.075876 
L 51.879823 77.077895 
L 48.806552 77.073521 
L 47.528424 76.049307 
L 46.419692 76.504063 
L 45.561323 75.372379 
L 43.804105 74.986911 
L 43.191218 74.313511 
L 42.420809 74.73077 
L 42.662333 73.440318 
L 41.679014 73.416437 
L 40.893012 72.58731 
L 41.502896 72.422613 
L 42.331944 71.24853 
L 43.320936 64.89581 
L 43.639361 64.183623 
L 44.27768 64.157932 
L 43.703668 63.449456 
L 43.306829 64.431264 
L 44.095199 58.302342 
L 45.53197 59.883764 
L 45.758059 61.130683 
L 46.574463 62.689864 
L 46.29744 61.845786 
L 46.758591 62.019263 
L 46.028116 61.361108 
L 45.400055 58.900641 
L 43.365638 57.385428 
L 43.741595 56.755346 
L 44.536931 57.336956 
L 43.796009 56.355421 
L 44.259912 55.244638 
L 43.529982 54.361089 
L 43.980507 53.527074 
L 43.398067 53.647054 
L 40.897735 52.2783 
L 40.382173 50.994306 
L 39.441729 50.160023 
L 40.018307 48.757904 
L 38.890803 48.060812 
L 39.232683 47.895549 
L 39.253566 47.223086 
L 41.205539 47.616392 
L 39.930914 46.907121 
L 38.722979 47.384386 
L 37.536112 47.034782 
L 38.012473 46.989753 
L 37.471255 46.49369 
L 38.212176 46.230695 
L 37.748828 45.791039 
L 38.33786 45.693574 
L 37.130843 45.604583 
L 37.277779 45.544199 
L 37.379283 45.38264 
L 36.297216 45.738863 
L 35.88242 45.353505 
L 36.637997 45.399589 
L 36.875807 45.054222 
L 36.896695 44.933188 
L 36.795195 44.804733 
L 35.836614 45.111964 
L 35.587809 44.667543 
L 35.744273 45.338144 
L 34.91871 45.09077 
L 34.880784 45.875526 
L 34.570599 44.825126 
L 34.942345 44.222856 
L 34.603946 44.129895 
L 34.464335 44.715742 
L 33.860642 44.449304 
L 34.201239 44.489562 
L 33.860642 44.360313 
L 34.201239 43.86345 
L 33.463618 44.402159 
L 30.375898 42.974609 
L 30.13717 43.693949 
L 29.296947 43.734208 
L 29.014065 42.637724 
L 27.692536 42.215018 
L 29.686096 41.728224 
L 29.26342 40.966778 
L 28.460938 41.325917 
L 28.150941 40.610814 
L 28.50949 40.221747 
L 28.649834 40.553607 
L 29.758283 40.602073 
L 30.126913 40.477595 
L 28.928136 40.29617 
L 29.665761 39.670065 
z
M 57.750873 78.596063 
L 57.98495 78.643826 
L 57.791825 78.397272 
z
" clip-path="url(#p8310745ea3)" style="fill: #ff6b6b; stroke: #dd0000; stroke-width: 0.5"/>
    <path d="M 87.475679 79.078587 
L 87.972924 78.735075 
L 88.196446 77.763336 
L 90.036652 76.768556 
L 90.821547 77.141201 
L 91.067051 74.999877 
L 91.595446 75.088868 
L 91.500173 77.363678 
L 91.883825 77.865039 
L 92.025632 80.579232 
L 91.321354 81.839397 
L 91.314393 83.443861 
L 90.821547 83.964827 
L 91.084643 84.259072 
L 90.454749 85.12461 
L 90.510812 85.617496 
L 88.568372 84.389115 
L 89.157954 83.520667 
L 87.953134 83.161 
L 88.629933 82.13894 
L 87.769186 82.178931 
L 87.643138 81.735045 
L 88.357673 81.164819 
L 87.550797 80.175597 
L 88.100075 79.756608 
z
" clip-path="url(#p8310745ea3)" style="fill: #ff6b6b; stroke: #dd0000; stroke-width: 0.5"/>
    <path d="M 41.976506 53.858407 
L 43.091916 54.15027 
L 43.212106 54.480542 
L 42.208638 54.145505 
z
" clip-path="url(#p8310745ea3)" style="fill: #ff6b6b; stroke: #dd0000; stroke-width: 0.5"/>
    <path d="M 91.561734 77.319183 
L 91.676791 77.496898 
L 91.652972 77.503517 
z
" clip-path="url(#p8310745ea3)" style="fill: #ff6b6b; stroke: #dd0000; stroke-width: 0.5"/>
    <path d="M 76.746259 75.026362 
L 76.786567 74.965711 
L 77.13358 75.007024 
z
" clip-path="url(#p8310745ea3)" style="fill: #ff6b6b; stroke: #dd0000; stroke-width: 0.5"/>
    <path d="M 42.655867 55.151143 
L 43.364175 55.485652 
L 43.537128 56.70688 
z
" clip-path="url(#p8310745ea3)" style="fill: #ff6b6b; stroke: #dd0000; stroke-width: 0.5"/>
    <path d="M 38.645294 48.772204 
L 39.07585 48.829679 
L 39.334547 49.57497 
z
" clip-path="url(#p8310745ea3)" style="fill: #ff6b6b; stroke: #dd0000; stroke-width: 0.5"/>
    <path d="M 38.2523 50.793549 
L 38.633754 50.809704 
L 38.765484 50.957758 
z
" clip-path="url(#p8310745ea3)" style="fill: #ff6b6b; stroke: #dd0000; stroke-width: 0.5"/>
    <path d="M 34.293765 46.49369 
L 35.172094 47.022864 
L 34.467636 46.956381 
z
" clip-path="url(#p8310745ea3)" style="fill: #ff6b6b; stroke: #dd0000; stroke-width: 0.5"/>
   </g>
  </g>
 </g>
 <defs>
  <clipPath id="p8310745ea3">
   <rect x="0" y="0" width="119.536972" height="108"/>
  </clipPath>
 </defs>
</svg>
