<?xml version="1.0" encoding="utf-8" standalone="no"?>
<!DOCTYPE svg PUBLIC "-//W3C//DTD SVG 1.1//EN"
  "http://www.w3.org/Graphics/SVG/1.1/DTD/svg11.dtd">
<svg xmlns:xlink="http://www.w3.org/1999/xlink" width="172.782673pt" height="108pt" viewBox="0 0 172.782673 108" xmlns="http://www.w3.org/2000/svg" version="1.1">
 <metadata>
  <rdf:RDF xmlns:dc="http://purl.org/dc/elements/1.1/" xmlns:cc="http://creativecommons.org/ns#" xmlns:rdf="http://www.w3.org/1999/02/22-rdf-syntax-ns#">
   <cc:Work>
    <dc:type rdf:resource="http://purl.org/dc/dcmitype/StillImage"/>
    <dc:date>2025-09-05T15:49:28.330361</dc:date>
    <dc:format>image/svg+xml</dc:format>
    <dc:creator>
     <cc:Agent>
      <dc:title>Matplotlib v3.10.3, https://matplotlib.org/</dc:title>
     </cc:Agent>
    </dc:creator>
   </cc:Work>
  </rdf:RDF>
 </metadata>
 <defs>
  <style type="text/css">*{stroke-linejoin: round; stroke-linecap: butt}</style>
 </defs>
 <g id="figure_1">
  <g id="patch_1">
   <path d="M 0 108 
L 172.782673 108 
L 172.782673 0 
L 0 0 
z
" style="fill: #ffffff"/>
  </g>
  <g id="axes_1">
   <g id="PatchCollection_1">
    <path d="M 82.255818 81 
L 83.106716 78.930483 
L 85.439463 77.306413 
L 87.21068 78.942983 
L 89.092583 78.466204 
L 88.397141 77.841218 
L 89.428258 75.526094 
L 87.209782 74.384159 
L 87.994504 72.955618 
L 86.771445 71.466372 
L 85.855487 71.755648 
L 86.664319 69.734266 
L 86.161699 67.116467 
L 87.801673 67.853954 
L 89.376483 67.111111 
L 90.446885 67.853064 
L 93.875922 67.118255 
L 94.225876 65.093305 
L 93.596496 63.266562 
L 94.111606 63.619229 
L 95.371272 62.757647 
L 96.858589 63.569237 
L 98.617299 66.656662 
L 98.278946 67.485211 
L 102.510569 68.07806 
L 104.966068 65.106695 
L 106.373925 67.376285 
L 105.852562 68.298589 
L 107.962124 68.575365 
L 109.209291 67.334327 
L 108.462955 66.21024 
L 109.30125 64.050474 
L 110.616259 63.462989 
L 111.060849 61.557677 
L 110.335943 60.916615 
L 111.184941 60.369309 
L 111.397414 59.165763 
L 110.56895 55.831019 
L 111.417057 52.181999 
L 109.95384 50.830247 
L 108.563837 50.922206 
L 108.008552 49.380282 
L 105.726691 48.765119 
L 106.503381 47.448181 
L 106.072179 45.293771 
L 106.711389 43.963443 
L 107.84071 42.330449 
L 110.024368 41.624208 
L 111.227793 39.101504 
L 109.627994 37.227887 
L 109.362846 35.494002 
L 108.432602 34.968785 
L 105.411548 34.598927 
L 103.240839 35.902915 
L 99.843934 36.135055 
L 100.71704 35.435068 
L 99.66628 33.233785 
L 99.947494 30.578494 
L 101.091102 28.321845 
L 110.924259 28.571841 
L 112.040192 27.909355 
L 113.790868 29.147723 
L 114.5872 28.711572 
L 114.893412 29.657978 
L 117.65914 29.370931 
L 118.736686 30.391664 
L 119.993674 29.921804 
L 121.927361 30.300819 
L 124.579708 31.688733 
L 125.063583 32.697415 
L 125.834019 32.004124 
L 125.020731 29.895024 
L 125.201063 28.424524 
L 126.254501 27.786141 
L 128.598857 22.488499 
L 128.481011 19.722494 
L 129.629983 16.740642 
L 134.801663 16.049147 
L 137.062094 14.955866 
L 139.949235 15.740002 
L 140.372404 16.408285 
L 142.444469 16.206951 
L 143.304177 16.950459 
L 143.882679 16.108072 
L 145.813688 15.614335 
L 147.146561 16.954925 
L 147.031401 19.967134 
L 142.361442 28.330777 
L 142.35251 33.588015 
L 140.583979 38.208217 
L 141.265143 43.731304 
L 139.285926 48.682083 
L 139.572495 51.512369 
L 135.758685 55.758705 
L 133.292916 56.467615 
L 131.657408 57.953293 
L 128.899713 63.29513 
L 126.141129 65.840606 
L 126.408946 75.612697 
L 123.701247 80.832219 
L 120.4329 82.046477 
L 119.786556 83.392873 
L 117.584146 84.474103 
L 114.364015 88.586504 
L 112.995434 89.319525 
L 111.675061 88.813279 
L 110.645723 89.201667 
L 110.21453 86.374949 
L 111.24208 85.254439 
L 110.527877 83.939289 
L 106.705135 85.848178 
L 104.722351 85.4589 
L 104.70092 87.468672 
L 101.93832 89.193633 
L 99.51719 86.52941 
L 98.781565 86.833864 
L 97.422805 85.104445 
L 96.488103 84.924984 
L 95.297177 86.376729 
L 93.251889 86.775829 
L 92.689462 88.267762 
L 91.569063 88.14098 
L 89.991809 90.353787 
L 88.355817 88.325149 
L 88.236606 86.531042 
z
" clip-path="url(#p61c273c2dc)" style="fill: #eeeeee; stroke: #000000; stroke-width: 0.3"/>
    <path d="M 92.062043 97.343883 
L 92.145778 96.548369 
L 94.305336 96.45819 
L 94.492812 91.589556 
L 93.747365 90.660116 
L 95.77301 89.530232 
L 96.844302 87.936519 
L 99.110987 87.281177 
L 99.306505 86.551732 
L 101.93832 89.193633 
L 104.70092 87.468672 
L 104.722351 85.4589 
L 106.705135 85.848178 
L 110.527877 83.939289 
L 111.24208 85.254439 
L 110.21453 86.374949 
L 110.645723 89.201667 
L 111.675061 88.813279 
L 112.995434 89.319525 
L 114.364015 88.586504 
L 117.584146 84.474103 
L 119.786556 83.392873 
L 120.4329 82.046477 
L 123.701247 80.832219 
L 126.408946 75.612697 
L 126.141129 65.840606 
L 128.899713 63.29513 
L 131.657408 57.953293 
L 133.292916 56.467615 
L 135.758685 55.758705 
L 139.572495 51.512369 
L 139.285926 48.682083 
L 141.265143 43.731304 
L 140.583979 38.208217 
L 142.35251 33.588015 
L 142.361442 28.330777 
L 147.031401 19.967134 
L 147.320648 12.038519 
L 146.417189 9.603532 
L 148.242851 8.974979 
L 151.093393 4.580213 
L 153.906439 2.670659 
L 157.497064 2.95927 
L 161.939373 5.767467 
L 164.023937 8.850651 
L 166.539694 8.519183 
L 169.471475 9.916919 
L 174.018233 9.9013 
L 178.90692 11.323803 
L 180.696873 10.783417 
L 181.404822 8.343524 
L 182.243108 8.18839 
L 184.047348 5.321044 
L 188.505732 7.331714 
L 190.00465 6.095358 
L 195.802151 4.402765 
L 197.006466 3.485826 
L 196.986823 2.740529 
L 199.873965 4.509678 
L 204.858169 3.518187 
L 205.342035 1.114222 
L 206.897652 0.555089 
L 210.068685 2.32759 
L 212.55141 1.737652 
L 215.179658 3.386939 
L 217.225835 2.981593 
L 218.328379 3.472652 
L 220.112977 2.040543 
L 222.08416 2.65682 
L 225.905122 5.629748 
L 226.148839 7.288633 
L 228.235632 7.684165 
L 228.544081 8.814939 
L 231.409791 10.05754 
L 234.639752 7.650007 
L 238.663807 9.492603 
L 240.705069 6.651821 
L 242.095081 6.893334 
L 243.634173 7.632376 
L 243.5574 9.249751 
L 244.788493 9.769379 
L 247.025722 12.815071 
L 249.927142 13.580003 
L 250.080697 15.779732 
L 251.842084 15.244477 
L 252.641984 16.839745 
L 253.133002 16.582614 
L 253.25084 17.675887 
L 251.815307 20.595238 
L 252.761618 22.341183 
L 251.527839 25.867887 
L 252.920528 26.84465 
L 253.751671 26.210732 
L 254.505151 27.2058 
L 255.561715 27.096425 
L 256.372775 28.8234 
L 249.521396 36.290405 
L 247.453347 37.176996 
L 246.727543 39.140784 
L 244.934904 39.86711 
L 244.875985 42.685794 
L 242.825342 46.364281 
L 241.543364 55.012294 
L 241.744229 58.984523 
L 238.767815 61.319283 
L 237.879533 62.914785 
L 237.917022 65.97632 
L 235.597672 67.653959 
L 235.519111 68.745893 
L 235.813713 69.906583 
L 236.999284 70.702994 
L 236.708249 71.296734 
L 238.778975 73.309183 
L 238.609794 80.680437 
L 239.684663 82.350931 
L 240.301552 85.88478 
L 239.548962 89.49452 
L 242.042407 96.268916 
L 240.864878 98.841171 
L 241.396953 101.521463 
L 242.859272 104.173186 
L 246.174928 106.511532 
L 247.933638 108.752545 
L 251.886724 117.777335 
L 235.794969 120.273708 
L 235.82889 122.715614 
L 231.158931 127.088723 
L 232.571254 128.007451 
L 234.147852 131.58058 
L 233.037275 135.275135 
L 234.157665 138.933985 
L 232.903362 140.591082 
L 231.226781 146.625761 
L 232.501175 149.556057 
L 234.602255 150.588168 
L 237.055525 153.928276 
L 241.068421 154.56933 
L 240.848803 152.75151 
L 243.656494 151.986353 
L 243.509192 163.230283 
L 242.08526 162.932973 
L 242.532528 161.723181 
L 241.713875 161.241045 
L 238.342868 163.067789 
L 236.700207 162.714223 
L 234.229981 158.341564 
L 232.803371 158.305851 
L 231.765999 155.158602 
L 227.75757 153.832741 
L 226.876423 152.922047 
L 224.989164 153.191679 
L 223.110821 149.981048 
L 221.499412 149.006065 
L 221.03251 146.937368 
L 219.681784 147.161465 
L 219.02472 149.870334 
L 217.035682 150.767629 
L 214.419933 149.893546 
L 210.675753 149.817655 
L 207.568994 148.313222 
L 206.481627 148.724823 
L 205.180447 147.564133 
L 204.881379 143.69905 
L 199.717732 144.832951 
L 197.803688 146.003463 
L 196.102109 145.46508 
L 196.951114 144.427605 
L 196.763638 142.882104 
L 194.636222 142.390146 
L 194.549628 141.318747 
L 193.575641 140.923223 
L 192.12671 142.262475 
L 188.863719 141.679456 
L 185.049011 142.901748 
L 180.614744 142.383011 
L 178.340026 144.172253 
L 177.716883 140.741084 
L 179.047078 139.954494 
L 178.994404 136.561716 
L 177.668675 132.785914 
L 175.241301 130.415433 
L 174.490499 128.247624 
L 175.802839 120.038891 
L 174.161967 116.077373 
L 175.085958 111.520338 
L 174.429792 109.909666 
L 163.507929 109.935556 
L 164.29355 106.735629 
L 161.77154 106.757951 
L 161.55371 107.478472 
L 154.881316 107.478472 
L 154.806331 111.603373 
L 153.445783 112.421209 
L 153.444893 116.117552 
L 146.197572 115.514889 
L 146.120798 116.079162 
L 142.775678 116.294335 
L 142.583737 117.044314 
L 140.595588 116.484508 
L 138.282484 116.951465 
L 135.827425 113.972066 
L 134.62311 111.160527 
L 132.628717 109.229324 
L 132.866189 107.589186 
L 131.09498 104.94192 
L 130.55933 102.840189 
L 130.737883 100.457208 
L 129.236279 97.979589 
L 106.697102 97.454597 
L 101.505339 97.877799 
L 97.649791 97.22085 
L 96.529556 97.659369 
L 96.150588 98.643777 
L 93.791513 99.271509 
L 93.85799 98.665451 
L 93.334268 98.87443 
z
" clip-path="url(#p61c273c2dc)" style="fill: #eeeeee; stroke: #000000; stroke-width: 0.3"/>
    <path d="M 96.345121 98.306314 
L 97.062348 97.715382 
L 98.499937 97.684715 
z
" clip-path="url(#p61c273c2dc)" style="fill: #eeeeee; stroke: #000000; stroke-width: 0.3"/>
    <path d="M 110.529665 -5.178928 
L 113.855142 -7.591592 
L 117.756454 -15.618637 
L 119.560693 -16.847183 
L 119.977599 -18.000729 
L 123.814628 -17.697613 
L 127.663257 -19.289979 
L 127.848055 -20.249784 
L 129.19968 -20.996195 
L 129.765675 -19.351141 
L 131.218173 -18.155189 
L 138.625295 -21.989915 
L 146.826062 -22.532764 
L 151.446034 -27.950941 
L 149.248979 -29.456929 
L 150.563107 -30.630119 
L 162.770524 -31.951074 
L 163.691837 -33.536304 
L 164.780984 -33.366882 
L 166.147786 -34.369543 
L 169.868748 -39.187062 
L 170.882909 -39.16429 
L 172.082758 -41.128752 
L 173.858433 -41.959097 
L 173.891464 -44.896969 
L 180.149622 -48.020332 
L 183.72507 -47.336871 
L 187.440685 -43.195228 
L 190.49477 -38.213643 
L 190.385855 -33.155725 
L 189.02174 -32.232316 
L 188.688742 -30.921408 
L 189.826995 -30.540388 
L 189.289556 -28.258972 
L 195.443265 -28.092901 
L 195.727157 -27.126402 
L 194.747814 -25.910364 
L 194.883515 -24.865295 
L 200.474788 -23.676487 
L 202.712008 -21.221631 
L 204.074336 -20.944855 
L 204.614452 -19.177486 
L 203.627966 -18.49 
L 203.845795 -17.810107 
L 205.310792 -16.379336 
L 211.064102 -13.451727 
L 211.62653 -12.014711 
L 214.1039 -10.485278 
L 213.172766 -8.864335 
L 215.235009 -6.616618 
L 214.508316 -5.467539 
L 217.544546 -4.685191 
L 217.912354 -3.931411 
L 220.545957 -2.843943 
L 221.731528 -1.192635 
L 221.760992 1.549708 
L 223.288475 3.186054 
L 220.112977 2.040543 
L 218.328379 3.472652 
L 217.225835 2.981593 
L 215.179658 3.386939 
L 212.55141 1.737652 
L 210.068685 2.32759 
L 206.897652 0.555089 
L 205.342035 1.114222 
L 204.858169 3.518187 
L 199.873965 4.509678 
L 196.986823 2.740529 
L 197.006466 3.485826 
L 195.802151 4.402765 
L 190.00465 6.095358 
L 188.505732 7.331714 
L 184.047348 5.321044 
L 182.243108 8.18839 
L 181.404822 8.343524 
L 180.696873 10.783417 
L 178.90692 11.323803 
L 174.018233 9.9013 
L 169.471475 9.916919 
L 166.539694 8.519183 
L 164.023937 8.850651 
L 161.939373 5.767467 
L 157.497064 2.95927 
L 153.906439 2.670659 
L 151.093393 4.580213 
L 148.242851 8.974979 
L 146.417189 9.603532 
L 147.320648 12.038519 
L 147.146561 16.954925 
L 145.813688 15.614335 
L 143.882679 16.108072 
L 143.304177 16.950459 
L 142.444469 16.206951 
L 140.372404 16.408285 
L 139.949235 15.740002 
L 137.062094 14.955866 
L 133.177756 16.4257 
L 129.983505 16.508062 
L 128.481011 19.722494 
L 128.598857 22.488499 
L 126.012572 27.579451 
L 124.938594 21.594772 
L 123.717322 20.228282 
L 122.608525 20.141679 
L 116.555706 13.421975 
L 116.046841 12.210395 
L 117.461842 11.890538 
L 116.610159 11.383627 
L 115.770085 8.86538 
L 113.380207 7.062298 
L 112.8758 2.375578 
L 111.675061 1.286763 
L 112.517813 -0.481721 
L 112.517813 -3.67517 
z
" clip-path="url(#p61c273c2dc)" style="fill: #eeeeee; stroke: #000000; stroke-width: 0.3"/>
    <path d="M 9.327012 -21.237259 
L 10.174229 -31.250638 
L 12.824797 -31.579876 
L 13.313129 -34.708146 
L 15.032554 -36.390476 
L 14.983457 -37.683744 
L 16.600221 -38.071458 
L 17.259962 -38.954473 
L 17.933982 -40.662693 
L 17.112652 -41.864675 
L 17.80096 -43.161295 
L 18.841009 -42.918003 
L 19.401657 -44.5789 
L 18.47409 -46.374172 
L 18.40535 -49.005802 
L 16.214549 -51.659089 
L 17.929517 -54.598084 
L 17.384943 -55.858318 
L 17.709899 -61.148824 
L 20.193523 -63.156367 
L 21.572815 -65.280195 
L 21.892425 -69.398626 
L 25.183083 -71.31376 
L 28.207713 -71.999908 
L 31.409989 -71.716878 
L 33.950752 -72.917296 
L 39.311697 -70.848591 
L 41.268593 -70.722924 
L 46.176473 -65.273051 
L 47.312938 -65.278856 
L 48.431548 -66.326828 
L 50.105443 -66.284861 
L 53.837124 -68.295531 
L 56.265397 -67.901338 
L 61.225502 -64.652532 
L 69.094169 -63.596976 
L 73.667713 -67.473229 
L 78.463543 -68.553111 
L 85.071654 -68.460928 
L 90.406711 -66.321472 
L 93.99198 -65.867015 
L 94.755281 -67.409838 
L 96.863945 -68.534806 
L 97.184444 -69.538133 
L 100.517065 -70.047048 
L 101.396424 -71.441216 
L 103.792555 -71.395232 
L 107.745184 -65.986428 
L 108.816485 -59.873853 
L 111.392059 -59.592161 
L 112.971326 -58.120323 
L 111.865215 -54.167289 
L 112.551734 -53.475785 
L 112.416931 -52.48184 
L 108.613832 -50.094168 
L 107.031888 -50.421843 
L 105.066949 -48.179707 
L 103.200664 -44.764831 
L 102.30345 -40.721842 
L 100.534919 -39.788161 
L 100.234961 -35.441832 
L 97.297824 -34.024236 
L 97.6692 -33.024927 
L 96.585409 -28.676369 
L 94.728495 -27.351397 
L 93.094767 -27.385105 
L 93.397411 -26.408567 
L 91.869919 -25.456356 
L 91.568173 -21.779208 
L 90.072823 -19.690418 
L 90.090678 -18.458304 
L 87.63384 -15.7548 
L 88.805124 -14.165993 
L 86.123313 -12.409785 
L 85.878697 -10.414518 
L 84.465484 -8.778846 
L 82.251465 -8.590902 
L 81.588156 -11.239058 
L 77.631502 -14.610628 
L 76.917307 -12.397734 
L 74.454215 -12.436574 
L 73.867688 -13.546813 
L 71.550118 -11.646416 
L 70.806459 -11.707345 
L 69.981562 -9.43151 
L 66.940865 -7.5541 
L 63.845707 -3.941233 
L 62.750307 -3.524277 
L 62.434282 -2.279887 
L 63.165442 -1.343752 
L 62.258407 2.417986 
L 59.933711 6.311853 
L 56.926486 3.870966 
L 58.411117 6.830331 
L 57.850166 7.696803 
L 51.5433 7.897515 
L 51.425203 6.293573 
L 51.055451 7.48836 
L 49.146935 7.242649 
L 49.598237 7.862719 
L 49.146935 8.074324 
L 47.339655 5.886526 
L 48.313944 7.952 
L 47.099246 8.664158 
L 47.099246 6.884107 
L 46.396998 6.122034 
L 46.626859 7.184303 
L 45.860647 6.52979 
L 46.924209 8.996334 
L 46.456046 9.199862 
L 45.585091 8.981571 
L 44.865273 5.377541 
L 44.262844 5.227089 
L 45.603369 9.319025 
L 44.262844 9.371747 
L 44.439989 7.184303 
L 44.085699 8.782267 
L 43.731409 8.01527 
L 44.021727 9.528168 
L 43.373611 9.526769 
L 43.228798 8.271174 
L 42.836553 8.074324 
L 43.001752 9.542586 
L 40.418404 9.907805 
L 40.954054 8.664158 
L 40.353732 9.017776 
L 40.123171 8.133378 
L 40.005074 9.843827 
L 39.056094 10.084614 
L 38.848017 8.884204 
L 38.615339 9.88531 
L 37.983385 8.841321 
L 37.7486 9.554179 
L 37.130708 9.249423 
L 33.550587 5.114604 
L 32.778043 2.712384 
L 33.727023 2.567565 
L 32.601606 2.384778 
L 32.382283 0.825827 
L 34.435595 0.497167 
L 34.056005 -0.318337 
L 34.747706 -0.565093 
L 34.971245 -0.869504 
L 33.102809 0.026141 
L 33.191382 0.379767 
L 31.154231 -0.534866 
L 31.368631 -1.22383 
L 33.84582 -1.305379 
L 33.30877 -1.87201 
L 32.259971 -1.432973 
L 32.35979 -2.462199 
L 31.86491 -1.537372 
L 30.559532 -1.629115 
L 30.33107 -3.055195 
L 31.952075 -4.065087 
L 29.829867 -2.833041 
L 27.265505 -6.041271 
L 24.308898 -7.941892 
L 16.000028 -8.386553 
L 15.493202 -8.681816 
L 19.458546 -10.118443 
L 16.619327 -9.395037 
L 16.324794 -10.043926 
L 15.64363 -9.611566 
L 15.362451 -8.729277 
L 15.489687 -8.27723 
L 9.609979 -8.023779 
L 10.374204 -17.606544 
z
" clip-path="url(#p61c273c2dc)" style="fill: #eeeeee; stroke: #000000; stroke-width: 0.3"/>
    <path d="M 47.911852 9.005828 
L 48.701974 7.833191 
L 49.087895 8.186455 
L 49.591905 8.186455 
L 49.296664 8.852923 
z
" clip-path="url(#p61c273c2dc)" style="fill: #eeeeee; stroke: #000000; stroke-width: 0.3"/>
    <path d="M 49.629869 8.460639 
L 51.768238 8.249379 
L 50.449506 8.679622 
z
" clip-path="url(#p61c273c2dc)" style="fill: #eeeeee; stroke: #000000; stroke-width: 0.3"/>
    <path d="M 87.624321 183.975705 
L 89.840016 181.903907 
L 90.396052 178.584946 
L 91.163672 178.028155 
L 92.770614 171.677765 
L 92.748829 168.729302 
L 93.498172 166.883873 
L 94.248922 166.682107 
L 94.359987 162.97367 
L 98.07016 159.1415 
L 98.023766 157.710151 
L 100.089033 155.853475 
L 101.9406 155.582815 
L 104.073355 152.803774 
L 105.389979 148.849281 
L 105.85885 142.998744 
L 104.864875 139.97997 
L 105.212834 139.234069 
L 103.103989 136.889495 
L 98.515131 125.54977 
L 98.480683 125.067497 
L 99.293289 123.809095 
L 99.726313 123.6249 
L 98.659227 125.462597 
L 100.482686 122.785493 
L 100.25704 123.211529 
L 101.830243 122.623102 
L 101.819696 119.09886 
L 97.25067 109.758834 
L 97.108526 106.703899 
L 94.665094 104.288107 
L 92.416333 99.657522 
L 96.969664 99.097197 
L 100.143901 97.582277 
L 128.909535 97.847442 
L 130.737883 100.457208 
L 130.55933 102.840189 
L 131.09498 104.94192 
L 132.866189 107.589186 
L 132.628717 109.229324 
L 134.62311 111.160527 
L 135.827425 113.972066 
L 138.282484 116.951465 
L 140.595588 116.484508 
L 142.583737 117.044314 
L 142.775678 116.294335 
L 146.120798 116.079162 
L 146.197572 115.514889 
L 153.444893 116.117552 
L 153.445783 112.421209 
L 154.806331 111.603373 
L 154.881316 107.478472 
L 161.55371 107.478472 
L 161.77154 106.757951 
L 164.29355 106.735629 
L 163.507929 109.935556 
L 174.429792 109.909666 
L 175.085958 111.520338 
L 174.161967 116.077373 
L 175.802839 120.038891 
L 174.490499 128.247624 
L 175.241301 130.415433 
L 177.668675 132.785914 
L 178.994404 136.561716 
L 179.047078 139.954494 
L 177.716883 140.741084 
L 178.340026 144.172253 
L 180.614744 142.383011 
L 185.049011 142.901748 
L 188.863719 141.679456 
L 192.12671 142.262475 
L 193.281928 140.913401 
L 194.096106 145.532039 
L 193.171225 147.518599 
L 193.168548 151.967607 
L 193.829179 153.981845 
L 192.402569 157.477295 
L 193.568497 159.306716 
L 176.113517 159.306716 
L 176.147437 186.643133 
L 177.597257 190.373401 
L 179.169381 191.029632 
L 182.896605 195.314358 
L 188.221832 199.38747 
L 170.990934 202.612398 
L 169.04296 201.88831 
L 165.975478 202.758825 
L 161.915273 201.233858 
L 157.03373 201.5401 
L 149.423956 200.753511 
L 147.288506 199.36069 
L 145.653888 197.216984 
L 107.016711 197.508057 
L 103.049787 194.901868 
L 102.690901 193.937597 
L 99.983203 193.426004 
L 94.807946 195.875054 
L 92.004722 195.791129 
L 90.67007 195.050964 
L 87.818335 195.915103 
L 88.370856 189.348892 
z
" clip-path="url(#p61c273c2dc)" style="fill: #eeeeee; stroke: #000000; stroke-width: 0.3"/>
    <path d="M 89.991809 90.353787 
L 91.528888 88.18026 
L 92.689462 88.267762 
L 93.251889 86.775829 
L 95.297177 86.376729 
L 96.488103 84.924984 
L 97.422805 85.104445 
L 99.183303 87.033859 
L 96.844302 87.936519 
L 95.77301 89.530232 
L 93.747365 90.660116 
L 94.492812 91.589556 
L 94.305336 96.45819 
L 91.727438 96.77936 
L 91.180541 95.522358 
L 91.889121 94.217548 
L 90.108549 90.58153 
L 90.777154 90.875488 
L 91.092668 90.313747 
z
" clip-path="url(#p61c273c2dc)" style="fill: #eeeeee; stroke: #000000; stroke-width: 0.3"/>
    <path d="M 87.334538 189.532845 
L 87.488024 189.581999 
L 87.650079 191.307488 
z
" clip-path="url(#p61c273c2dc)" style="fill: #eeeeee; stroke: #000000; stroke-width: 0.3"/>
    <path d="M 59.765005 7.882752 
L 60.559515 4.822175 
L 62.258407 2.417986 
L 63.165442 -1.343752 
L 62.434282 -2.279887 
L 62.658357 -3.382101 
L 66.940865 -7.5541 
L 69.981562 -9.43151 
L 70.806459 -11.707345 
L 71.550118 -11.646416 
L 73.867688 -13.546813 
L 74.454215 -12.436574 
L 76.917307 -12.397734 
L 77.631502 -14.610628 
L 81.588156 -11.239058 
L 82.109519 -8.721485 
L 83.4781 -8.556079 
L 85.878697 -10.414518 
L 86.123313 -12.409785 
L 88.805124 -14.165993 
L 87.63384 -15.7548 
L 90.090678 -18.458304 
L 90.072823 -19.690418 
L 91.568173 -21.779208 
L 91.869919 -25.456356 
L 93.397411 -26.408567 
L 93.094767 -27.385105 
L 94.728495 -27.351397 
L 96.771995 -28.931721 
L 97.6692 -33.024927 
L 97.297824 -34.024236 
L 100.234961 -35.441832 
L 100.534919 -39.788161 
L 102.30345 -40.721842 
L 103.200664 -44.764831 
L 105.066949 -48.179707 
L 107.031888 -50.421843 
L 108.613832 -50.094168 
L 112.507102 -52.688755 
L 111.865215 -54.167289 
L 112.957048 -58.212282 
L 111.392059 -59.592161 
L 108.816485 -59.873853 
L 107.745184 -65.986428 
L 110.7966 -66.013665 
L 111.976807 -63.298992 
L 114.260456 -62.192545 
L 114.94162 -57.993981 
L 116.249494 -57.404709 
L 116.994042 -52.620898 
L 116.005777 -49.612266 
L 117.016363 -43.903024 
L 121.706854 -39.321212 
L 113.857829 -38.720554 
L 108.75399 -39.208045 
L 106.717634 -36.395832 
L 110.20381 -32.212222 
L 116.270916 -27.680636 
L 119.629433 -20.731911 
L 120.684659 -20.326116 
L 119.560693 -16.847183 
L 117.756454 -15.618637 
L 113.855142 -7.591592 
L 110.529665 -5.178928 
L 112.517813 -3.67517 
L 112.517813 -0.481721 
L 111.675061 1.286763 
L 112.8758 2.375578 
L 113.380207 7.062298 
L 115.770085 8.86538 
L 116.610159 11.383627 
L 117.461842 11.890538 
L 116.046841 12.210395 
L 116.555706 13.421975 
L 125.258203 22.25547 
L 125.240348 25.303166 
L 126.254501 27.786141 
L 125.361762 28.041052 
L 125.01091 29.576057 
L 125.806343 32.140063 
L 125.063583 32.697415 
L 124.579708 31.688733 
L 121.927361 30.300819 
L 119.993674 29.921804 
L 118.736686 30.391664 
L 117.65914 29.370931 
L 114.893412 29.657978 
L 114.5872 28.711572 
L 113.790868 29.147723 
L 112.040192 27.909355 
L 110.924259 28.571841 
L 101.091102 28.321845 
L 101.005397 27.620519 
L 99.961781 27.266962 
L 96.386324 27.668291 
L 86.94821 26.927236 
L 84.308353 27.116519 
L 84.053027 28.281225 
L 72.555348 28.282564 
L 70.99929 27.42499 
L 72.250803 20.638362 
L 72.023748 18.728601 
L 69.541627 16.41777 
L 71.074768 15.650427 
L 69.404553 15.891214 
L 68.710744 13.993755 
L 69.387683 14.593783 
L 69.360267 13.517113 
L 70.425944 13.993755 
L 69.836869 13.221842 
L 70.598166 12.803192 
L 69.34129 12.778235 
L 70.513109 11.263574 
L 68.999654 12.323381 
L 68.128699 11.473426 
L 68.594755 12.526909 
L 67.778633 12.172583 
L 68.114646 13.162788 
L 66.962503 13.162788 
L 66.812775 12.159928 
L 65.815293 12.744492 
L 63.74651 11.565178 
L 63.440022 7.656029 
L 62.67381 6.909419 
L 62.853762 7.731255 
L 62.255557 7.242649 
L 62.167684 7.75832 
L 61.01625 6.058065 
L 61.599702 8.002968 
z
" clip-path="url(#p61c273c2dc)" style="fill: #eeeeee; stroke: #000000; stroke-width: 0.3"/>
    <path d="M 61.365616 52.058103 
L 62.651317 53.90354 
L 63.382382 52.927745 
L 64.094469 54.546097 
L 64.866313 52.171296 
L 66.642661 49.861165 
L 66.978673 43.917131 
L 67.106608 45.426159 
L 67.660536 45.192059 
L 68.210949 46.141134 
L 68.35083 45.36676 
L 69.063626 46.020564 
L 70.14898 45.82583 
L 71.010796 46.787561 
L 70.547557 45.905971 
L 72.854632 45.36676 
L 70.838575 45.426159 
L 68.297405 44.477084 
L 66.635638 42.288931 
L 66.724211 41.581343 
L 68.651695 41.103639 
L 68.826024 41.621418 
L 68.122376 41.642505 
L 68.00358 41.817206 
L 68.946937 41.817206 
L 68.946937 42.584203 
L 69.246394 42.937466 
L 69.10932 38.227931 
L 70.431568 37.836001 
L 72.150042 39.001062 
L 72.887447 38.321609 
L 84.176229 38.35911 
L 84.308353 27.116519 
L 92.686784 27 
L 96.386324 27.668291 
L 99.961781 27.266962 
L 101.005397 27.620519 
L 99.947494 30.578494 
L 99.66628 33.233785 
L 100.71704 35.435068 
L 99.843934 36.135055 
L 103.240839 35.902915 
L 105.411548 34.598927 
L 108.432602 34.968785 
L 109.362846 35.494002 
L 109.627994 37.227887 
L 111.227793 39.101504 
L 110.024368 41.624208 
L 107.84071 42.330449 
L 106.711389 43.963443 
L 106.072179 45.293771 
L 106.503381 47.448181 
L 105.726691 48.765119 
L 108.008552 49.380282 
L 108.563837 50.922206 
L 109.95384 50.830247 
L 111.417057 52.181999 
L 110.570729 55.706916 
L 111.397414 59.165763 
L 111.184941 60.369309 
L 110.335943 60.916615 
L 111.060849 61.557677 
L 110.678754 63.344241 
L 109.258397 64.114754 
L 108.462955 66.21024 
L 109.209291 67.334327 
L 107.962124 68.575365 
L 105.852562 68.298589 
L 106.373925 67.376285 
L 104.966068 65.106695 
L 102.510569 68.07806 
L 98.278946 67.485211 
L 98.617299 66.656662 
L 96.858589 63.569237 
L 95.371272 62.757647 
L 94.111606 63.619229 
L 93.596496 63.266562 
L 94.225876 65.093305 
L 93.875922 67.118255 
L 90.446885 67.853064 
L 89.376483 67.111111 
L 87.801673 67.853954 
L 86.161699 67.116467 
L 86.664319 69.734266 
L 85.855487 71.755648 
L 86.771445 71.466372 
L 87.994504 72.955618 
L 87.209782 74.384159 
L 89.428258 75.526094 
L 88.397141 77.841218 
L 89.092583 78.466204 
L 87.21068 78.942983 
L 85.439463 77.306413 
L 83.106716 78.930483 
L 82.255818 81 
L 80.958102 78.880344 
L 78.216915 76.810723 
L 78.121838 75.616325 
L 71.790388 70.318874 
L 70.071654 68.095415 
L 70.861767 68.59526 
L 71.251913 68.213523 
L 72.437087 69.699003 
L 73.985681 69.217437 
L 73.82049 68.824445 
L 72.496126 69.108469 
L 71.549254 67.804359 
L 70.490616 68.331632 
L 70.248799 67.542839 
L 70.071654 68.032145 
L 69.152198 67.310838 
L 68.882265 65.93152 
L 66.338289 63.202394 
L 68.031696 63.598194 
L 68.687551 64.880499 
L 68.467519 63.632636 
L 67.230328 62.706756 
L 66.936495 63.302922 
L 66.201215 62.844552 
L 65.896134 60.637774 
L 64.138755 58.357879 
L 63.85336 57.623925 
L 64.162656 58.262265 
L 65.370323 59.672527 
L 66.281348 60.253922 
L 66.416314 61.46101 
L 68.82884 60.878207 
L 67.938908 59.693614 
L 66.471148 60.519666 
L 66.142166 59.793443 
L 66.88167 59.072845 
L 66.892917 58.077371 
L 66.784658 58.83312 
L 65.599485 59.17619 
L 64.254744 58.213051 
L 64.280753 57.300534 
L 62.850247 55.430494 
L 63.198205 55.70327 
L 63.440022 55.313793 
L 62.609838 54.959476 
z
" clip-path="url(#p61c273c2dc)" style="fill: #eeeeee; stroke: #000000; stroke-width: 0.3"/>
    <path d="M 67.249884 39.993374 
L 67.312941 39.996458 
L 67.274563 40.01942 
z
" clip-path="url(#p61c273c2dc)" style="fill: #eeeeee; stroke: #000000; stroke-width: 0.3"/>
    <path d="M 63.558827 52.706991 
L 64.353863 52.777293 
L 64.05229 53.574526 
z
" clip-path="url(#p61c273c2dc)" style="fill: #eeeeee; stroke: #000000; stroke-width: 0.3"/>
    <path d="M 66.98992 36.782173 
L 68.014827 34.770829 
L 69.305442 33.271994 
L 69.689248 33.468136 
L 69.919818 33.4379 
L 70.425944 33.168295 
L 69.240771 32.784796 
L 70.989711 30.275015 
L 70.901838 26.760967 
L 71.109993 27.562044 
L 72.555348 28.282564 
L 84.053027 28.281225 
L 84.176229 38.35911 
L 72.887447 38.321609 
L 72.150042 39.001062 
L 70.195374 37.200468 
L 69.042541 37.98082 
L 68.527975 37.200468 
L 67.420128 37.388878 
z
" clip-path="url(#p61c273c2dc)" style="fill: #eeeeee; stroke: #000000; stroke-width: 0.3"/>
    <path d="M 59.176629 17.434694 
L 60.36391 17.071937 
L 61.120292 14.800473 
L 63.327548 14.589221 
L 63.57358 15.654297 
L 61.284783 19.369758 
L 59.246224 18.716654 
z
" clip-path="url(#p61c273c2dc)" style="fill: #eeeeee; stroke: #000000; stroke-width: 0.3"/>
    <path d="M 34.787777 59.370224 
L 34.912197 59.22118 
L 34.87635 59.738605 
z
" clip-path="url(#p61c273c2dc)" style="fill: #eeeeee; stroke: #000000; stroke-width: 0.3"/>
    <path d="M 49.591905 33.468136 
L 50.047423 32.371071 
L 50.716623 32.524676 
L 50.186604 33.763053 
z
" clip-path="url(#p61c273c2dc)" style="fill: #eeeeee; stroke: #000000; stroke-width: 0.3"/>
    <path d="M 42.149066 44.676388 
L 43.967602 43.473524 
L 44.616425 44.830356 
L 42.630592 46.782291 
z
" clip-path="url(#p61c273c2dc)" style="fill: #eeeeee; stroke: #000000; stroke-width: 0.3"/>
   </g>
   <g id="PatchCollection_2">
    <path d="M 61.365616 52.058103 
L 62.651317 53.90354 
L 63.382382 52.927745 
L 64.094469 54.546097 
L 64.866313 52.171296 
L 66.642661 49.861165 
L 66.978673 43.917131 
L 67.106608 45.426159 
L 67.660536 45.192059 
L 68.210949 46.141134 
L 68.35083 45.36676 
L 69.063626 46.020564 
L 70.14898 45.82583 
L 71.010796 46.787561 
L 70.547557 45.905971 
L 72.854632 45.36676 
L 70.838575 45.426159 
L 68.297405 44.477084 
L 66.635638 42.288931 
L 66.724211 41.581343 
L 68.651695 41.103639 
L 68.826024 41.621418 
L 68.122376 41.642505 
L 68.00358 41.817206 
L 68.946937 41.817206 
L 68.946937 42.584203 
L 69.246394 42.937466 
L 69.10932 38.227931 
L 70.431568 37.836001 
L 72.150042 39.001062 
L 72.887447 38.321609 
L 84.176229 38.35911 
L 84.308353 27.116519 
L 92.686784 27 
L 96.386324 27.668291 
L 99.961781 27.266962 
L 101.005397 27.620519 
L 99.947494 30.578494 
L 99.66628 33.233785 
L 100.71704 35.435068 
L 99.843934 36.135055 
L 103.240839 35.902915 
L 105.411548 34.598927 
L 108.432602 34.968785 
L 109.362846 35.494002 
L 109.627994 37.227887 
L 111.227793 39.101504 
L 110.024368 41.624208 
L 107.84071 42.330449 
L 106.711389 43.963443 
L 106.072179 45.293771 
L 106.503381 47.448181 
L 105.726691 48.765119 
L 108.008552 49.380282 
L 108.563837 50.922206 
L 109.95384 50.830247 
L 111.417057 52.181999 
L 110.570729 55.706916 
L 111.397414 59.165763 
L 111.184941 60.369309 
L 110.335943 60.916615 
L 111.060849 61.557677 
L 110.678754 63.344241 
L 109.258397 64.114754 
L 108.462955 66.21024 
L 109.209291 67.334327 
L 107.962124 68.575365 
L 105.852562 68.298589 
L 106.373925 67.376285 
L 104.966068 65.106695 
L 102.510569 68.07806 
L 98.278946 67.485211 
L 98.617299 66.656662 
L 96.858589 63.569237 
L 95.371272 62.757647 
L 94.111606 63.619229 
L 93.596496 63.266562 
L 94.225876 65.093305 
L 93.875922 67.118255 
L 90.446885 67.853064 
L 89.376483 67.111111 
L 87.801673 67.853954 
L 86.161699 67.116467 
L 86.664319 69.734266 
L 85.855487 71.755648 
L 86.771445 71.466372 
L 87.994504 72.955618 
L 87.209782 74.384159 
L 89.428258 75.526094 
L 88.397141 77.841218 
L 89.092583 78.466204 
L 87.21068 78.942983 
L 85.439463 77.306413 
L 83.106716 78.930483 
L 82.255818 81 
L 80.958102 78.880344 
L 78.216915 76.810723 
L 78.121838 75.616325 
L 71.790388 70.318874 
L 70.071654 68.095415 
L 70.861767 68.59526 
L 71.251913 68.213523 
L 72.437087 69.699003 
L 73.985681 69.217437 
L 73.82049 68.824445 
L 72.496126 69.108469 
L 71.549254 67.804359 
L 70.490616 68.331632 
L 70.248799 67.542839 
L 70.071654 68.032145 
L 69.152198 67.310838 
L 68.882265 65.93152 
L 66.338289 63.202394 
L 68.031696 63.598194 
L 68.687551 64.880499 
L 68.467519 63.632636 
L 67.230328 62.706756 
L 66.936495 63.302922 
L 66.201215 62.844552 
L 65.896134 60.637774 
L 64.138755 58.357879 
L 63.85336 57.623925 
L 64.162656 58.262265 
L 65.370323 59.672527 
L 66.281348 60.253922 
L 66.416314 61.46101 
L 68.82884 60.878207 
L 67.938908 59.693614 
L 66.471148 60.519666 
L 66.142166 59.793443 
L 66.88167 59.072845 
L 66.892917 58.077371 
L 66.784658 58.83312 
L 65.599485 59.17619 
L 64.254744 58.213051 
L 64.280753 57.300534 
L 62.850247 55.430494 
L 63.198205 55.70327 
L 63.440022 55.313793 
L 62.609838 54.959476 
z
" clip-path="url(#p61c273c2dc)" style="fill: #ff6b6b; stroke: #dd0000; stroke-width: 0.5"/>
    <path d="M 67.249884 39.993374 
L 67.312941 39.996458 
L 67.274563 40.01942 
z
" clip-path="url(#p61c273c2dc)" style="fill: #ff6b6b; stroke: #dd0000; stroke-width: 0.5"/>
    <path d="M 63.558827 52.706991 
L 64.353863 52.777293 
L 64.05229 53.574526 
z
" clip-path="url(#p61c273c2dc)" style="fill: #ff6b6b; stroke: #dd0000; stroke-width: 0.5"/>
   </g>
  </g>
 </g>
 <defs>
  <clipPath id="p61c273c2dc">
   <rect x="0" y="0" width="172.782673" height="108"/>
  </clipPath>
 </defs>
</svg>
