<?xml version="1.0" encoding="utf-8" standalone="no"?>
<!DOCTYPE svg PUBLIC "-//W3C//DTD SVG 1.1//EN"
  "http://www.w3.org/Graphics/SVG/1.1/DTD/svg11.dtd">
<svg xmlns:xlink="http://www.w3.org/1999/xlink" width="168.065923pt" height="108pt" viewBox="0 0 168.065923 108" xmlns="http://www.w3.org/2000/svg" version="1.1">
 <metadata>
  <rdf:RDF xmlns:dc="http://purl.org/dc/elements/1.1/" xmlns:cc="http://creativecommons.org/ns#" xmlns:rdf="http://www.w3.org/1999/02/22-rdf-syntax-ns#">
   <cc:Work>
    <dc:type rdf:resource="http://purl.org/dc/dcmitype/StillImage"/>
    <dc:date>2025-09-05T15:49:28.342689</dc:date>
    <dc:format>image/svg+xml</dc:format>
    <dc:creator>
     <cc:Agent>
      <dc:title>Matplotlib v3.10.3, https://matplotlib.org/</dc:title>
     </cc:Agent>
    </dc:creator>
   </cc:Work>
  </rdf:RDF>
 </metadata>
 <defs>
  <style type="text/css">*{stroke-linejoin: round; stroke-linecap: butt}</style>
 </defs>
 <g id="figure_1">
  <g id="patch_1">
   <path d="M 0 108 
L 168.065923 108 
L 168.065923 0 
L 0 0 
z
" style="fill: #ffffff"/>
  </g>
  <g id="axes_1">
   <g id="PatchCollection_1">
    <path d="M 112.264228 117.143221 
L 114.848343 117.107998 
L 117.035832 115.186961 
L 117.053149 113.829778 
L 119.75695 112.750276 
L 123.829077 105.094692 
L 126.558498 104.405899 
L 128.44781 105.186257 
L 131.511816 104.507106 
L 131.674789 103.498394 
L 140.923782 103.485797 
L 145.960757 109.583277 
L 146.722247 112.112273 
L 148.907936 113.341563 
L 147.914245 116.53598 
L 150.038646 116.9623 
L 149.960767 120.387323 
L 151.6049 122.437731 
L 148.068566 127.963939 
L 154.390558 125.132814 
L 153.850439 129.458656 
L 149.786979 131.628808 
L 149.744432 135.399691 
L 139.94812 143.369269 
L 137.729722 147.589514 
L 132.658657 144.295727 
L 123.351195 140.840216 
L 125.26469 140.840216 
L 123.59308 140.048007 
L 124.443084 138.777655 
L 127.855028 137.785773 
L 123.949084 138.370159 
L 122.829943 137.056607 
L 124.113188 135.327394 
L 122.021398 136.622854 
L 117.333018 133.716118 
L 118.959792 133.270673 
L 117.69699 131.645968 
L 118.197785 130.607973 
L 116.855499 128.443818 
L 114.178295 129.628358 
L 112.464097 124.908922 
L 115.997542 126.681334 
L 114.845468 125.300062 
L 118.284093 123.919966 
L 117.426708 123.723808 
L 118.197785 122.254974 
L 115.602926 123.718557 
L 116.092934 122.744781 
L 114.265175 122.459296 
L 114.965839 123.750078 
L 114.19931 124.659047 
L 113.113659 120.237363 
L 116.665287 119.788417 
L 114.646744 119.688588 
L 115.417821 118.612056 
L 112.740617 118.425826 
z
" clip-path="url(#p4efc1f6592)" style="fill: #eeeeee; stroke: #000000; stroke-width: 0.3"/>
    <path d="M 117.140532 138.177501 
L 121.748841 137.255104 
L 123.540835 138.283758 
L 122.749887 140.843128 
L 121.970283 139.565789 
z
" clip-path="url(#p4efc1f6592)" style="fill: #eeeeee; stroke: #000000; stroke-width: 0.3"/>
    <path d="M 87.448297 91.070748 
L 92.589036 81.904765 
L 95.242001 81.684933 
L 98.46898 79.447305 
L 102.300254 79.902549 
L 104.324784 78.373728 
L 106.280086 78.85936 
L 106.363729 74.656218 
L 102.894822 72.521661 
L 104.744113 70.719995 
L 106.767192 70.493118 
L 106.303153 65.034746 
L 115.398913 65.572287 
L 115.740363 67.920377 
L 117.677985 67.001006 
L 125.383804 70.311465 
L 128.969174 68.851612 
L 137.653531 68.552066 
L 138.95154 69.180054 
L 137.288652 71.94706 
L 139.704379 74.320358 
L 141.706902 74.4894 
L 143.644538 71.790616 
L 145.042781 71.547426 
L 148.402439 76.268828 
L 151.189534 73.0021 
L 154.604004 71.571157 
L 162.194435 74.331477 
L 163.517687 72.254741 
L 167.583311 70.824545 
L 167.969108 69.563375 
L 166.526169 68.16282 
L 168.573402 67.591189 
L 172.619573 69.406184 
L 172.363217 71.470323 
L 175.104528 75.770584 
L 174.41514 79.603749 
L 176.099657 79.725344 
L 177.073157 81.921078 
L 181.000339 83.768699 
L 176.459499 89.352755 
L 178.429579 89.450992 
L 179.180255 88.286209 
L 181.68035 88.70141 
L 182.268778 96.05597 
L 186.639445 99.347907 
L 183.811966 104.224992 
L 184.038389 110.121923 
L 185.483505 112.156019 
L 188.116279 111.857219 
L 187.220659 115.100216 
L 189.771241 116.641634 
L 187.188926 117.787881 
L 186.671177 120.423651 
L 190.468555 123.120957 
L 190.948098 126.70759 
L 188.696056 125.229932 
L 188.11339 126.047363 
L 186.648822 124.955981 
L 182.764899 125.578403 
L 182.526209 128.556704 
L 186.191635 129.445313 
L 186.759145 131.868282 
L 185.273659 131.665882 
L 183.443472 138.164459 
L 180.449406 137.639543 
L 179.463654 138.427678 
L 178.319967 136.559281 
L 176.657079 136.471044 
L 174.267307 142.515883 
L 170.533393 143.704397 
L 169.013286 140.962599 
L 165.435843 141.038225 
L 167.322992 135.788938 
L 164.885636 129.424552 
L 165.318305 127.158014 
L 162.832625 126.46849 
L 163.205444 125.417152 
L 162.206701 125.835681 
L 161.488469 124.008074 
L 157.468267 126.028826 
L 156.264004 124.563765 
L 153.099763 124.987115 
L 150.593179 127.611766 
L 148.068566 127.963939 
L 151.6049 122.437731 
L 149.960767 120.387323 
L 150.038646 116.9623 
L 147.914245 116.53598 
L 148.907936 113.341563 
L 146.722247 112.112273 
L 141.589365 103.647048 
L 131.674789 103.498394 
L 131.511816 104.507106 
L 128.44781 105.186257 
L 126.558498 104.405899 
L 123.829077 105.094692 
L 119.75695 112.750276 
L 117.053149 113.829778 
L 117.035832 115.186961 
L 114.848343 117.107998 
L 112.264228 117.143221 
L 114.265175 115.07716 
L 112.844521 114.921274 
L 113.217005 113.901974 
L 112.066062 115.126199 
L 112.264228 112.618781 
L 110.775435 113.620578 
L 110.931012 111.43483 
L 109.293465 111.287711 
L 109.674462 109.573679 
L 108.826161 110.562046 
L 108.25438 109.573679 
L 106.331801 110.406175 
L 108.635949 106.429334 
L 107.378826 105.645878 
L 106.29432 107.06276 
L 106.90301 104.158937 
L 104.704469 105.388427 
L 101.697369 103.028128 
L 102.512738 100.525961 
L 100.37381 102.592611 
L 100.589014 100.820199 
L 99.407985 101.868696 
L 99.108175 100.775248 
L 96.196467 100.312285 
L 95.045524 96.099601 
L 93.332456 96.510584 
L 95.530997 90.606048 
L 92.745925 94.163714 
L 93.422168 91.770143 
L 91.901587 93.356899 
L 92.178679 90.881591 
L 91.226474 91.576323 
L 91.072599 90.305971 
L 93.235933 88.530058 
L 92.950329 88.130152 
L 90.741001 89.510247 
L 89.693404 88.628137 
L 89.121051 92.368532 
z
" clip-path="url(#p4efc1f6592)" style="fill: #eeeeee; stroke: #000000; stroke-width: 0.3"/>
    <path d="M 126.734449 34.882848 
L 129.437902 35.464493 
L 132.926637 33.088972 
L 132.57401 29.084527 
L 134.228972 23.889372 
L 135.7945 23.889372 
L 137.057176 22.421714 
L 145.558368 30.177386 
L 148.207022 25.440432 
L 157.385336 26.420593 
L 166.368247 25.333285 
L 165.980287 23.212818 
L 167.309289 21.641371 
L 167.410249 24.542569 
L 220.970898 24.56333 
L 223.171016 12.830272 
L 219.402481 9.733346 
L 205.870078 -111.736542 
L 230.590184 -111.7499 
L 313.871856 -55.890198 
L 313.984342 -50.683164 
L 319.637877 -48.656113 
L 322.685291 -44.449254 
L 326.775446 -43.143234 
L 328.58399 -44.013307 
L 331.368936 -40.894874 
L 342.51013 -37.508417 
L 343.375455 -31.307506 
L 341.189041 -27.680457 
L 343.711505 -25.674898 
L 356.880466 -27.776843 
L 356.257416 11.337047 
L 354.535404 13.026014 
L 351.893239 21.398182 
L 347.083428 24.538121 
L 346.81228 26.575186 
L 340.204001 25.535326 
L 339.738175 26.788332 
L 316.453445 27.58463 
L 311.460455 31.779236 
L 307.223192 32.518445 
L 300.960326 31.712147 
L 300.921393 32.931049 
L 294.569832 30.712331 
L 291.931993 31.616493 
L 291.343565 30.50732 
L 287.829586 30.528081 
L 282.822181 34.575525 
L 274.193348 38.883204 
L 270.005122 39.247988 
L 269.46284 43.401072 
L 267.844676 43.761036 
L 263.521594 41.970875 
L 261.627956 42.81165 
L 257.861585 45.99347 
L 257.471462 50.999209 
L 255.067638 51.643137 
L 252.005432 50.337476 
L 252.540136 56.148036 
L 249.750516 56.535417 
L 249.737524 57.926703 
L 242.45141 54.799748 
L 243.199923 53.87705 
L 242.316918 53.189749 
L 237.15628 58.651077 
L 239.098591 62.942816 
L 238.460052 64.352639 
L 235.283909 64.442354 
L 236.651494 67.03511 
L 235.752985 68.450501 
L 236.387924 70.284779 
L 235.243162 70.094977 
L 234.23433 72.551318 
L 231.43208 74.601353 
L 226.854456 74.993569 
L 222.346786 77.156304 
L 224.094042 78.155001 
L 225.054564 82.986132 
L 223.460904 87.299377 
L 221.064643 88.000767 
L 222.08069 91.271928 
L 221.379775 95.710469 
L 220.80865 97.286364 
L 215.848118 97.995545 
L 213.924185 100.666896 
L 210.797441 99.776451 
L 211.626722 97.36199 
L 210.500338 96.015195 
L 211.293561 94.357734 
L 210.574617 92.96794 
L 208.187734 93.547362 
L 207.923089 95.467653 
L 204.808596 94.005562 
L 204.81221 98.211302 
L 200.73287 98.442984 
L 199.97209 101.369764 
L 195.12117 99.772735 
L 193.194363 96.810747 
L 190.920691 97.119174 
L 188.623939 100.35438 
L 186.382 101.066889 
L 186.289706 98.681353 
L 183.043972 97.316021 
L 182.113745 95.680067 
L 181.68035 88.70141 
L 179.180255 88.286209 
L 178.429579 89.450992 
L 176.522238 89.57814 
L 181.000339 83.768699 
L 177.073157 81.921078 
L 176.099657 79.725344 
L 174.41514 79.603749 
L 174.798048 74.514608 
L 173.370249 74.045289 
L 172.619573 69.406184 
L 170.227639 68.017509 
L 166.727363 67.906288 
L 167.969108 69.563375 
L 167.583311 70.824545 
L 163.517687 72.254741 
L 162.194435 74.331477 
L 154.604004 71.571157 
L 151.189534 73.0021 
L 148.402439 76.268828 
L 145.042781 71.547426 
L 143.644538 71.790616 
L 141.706902 74.4894 
L 139.704379 74.320358 
L 137.288652 71.94706 
L 138.95154 69.180054 
L 139.102973 67.8062 
L 137.846785 66.897949 
L 138.948651 60.771186 
L 136.936024 58.744494 
L 135.819018 55.17195 
L 134.031378 54.49762 
L 132.818477 55.940055 
L 129.057868 50.242209 
L 130.937816 48.44796 
L 130.453948 43.617202 
L 127.326115 40.387921 
L 128.117538 36.79202 
z
" clip-path="url(#p4efc1f6592)" style="fill: #eeeeee; stroke: #000000; stroke-width: 0.3"/>
    <path d="M 53.168182 35.134602 
L 58.234712 33.076719 
L 62.34732 28.309406 
L 67.146986 20.400101 
L 68.100042 14.809129 
L 70.484762 9.980237 
L 72.756997 9.347055 
L 79.177059 10.399885 
L 82.082418 8.963734 
L 86.811475 8.945944 
L 87.055942 7.759668 
L 88.915684 7.386734 
L 96.837113 7.825652 
L 102.820543 12.457339 
L 104.803238 15.576503 
L 106.287287 14.587447 
L 107.130997 15.789304 
L 109.698882 15.082721 
L 112.057271 18.304211 
L 113.146871 22.709022 
L 114.934874 23.096791 
L 115.295832 24.58409 
L 116.963729 24.348677 
L 118.865307 27.580928 
L 118.02376 28.054322 
L 123.653852 31.40593 
L 128.117538 36.79202 
L 127.326115 40.387921 
L 130.453948 43.617202 
L 130.937816 48.44796 
L 129.057868 50.242209 
L 132.818477 55.940055 
L 134.031378 54.49762 
L 135.819018 55.17195 
L 136.936024 58.744494 
L 138.884475 60.62401 
L 137.846785 66.897949 
L 138.954414 68.901283 
L 128.969174 68.851612 
L 125.383804 70.311465 
L 117.677985 67.001006 
L 115.740363 67.920377 
L 115.186178 65.539661 
L 85.834375 64.948001 
L 79.109269 68.393398 
L 71.499372 68.167268 
L 64.437798 69.925175 
L 63.428422 67.602021 
L 66.512745 65.617094 
L 67.160605 66.585045 
L 69.426155 66.801634 
L 74.187195 65.61477 
L 76.835444 66.703555 
L 78.375896 66.209658 
L 79.559772 66.987864 
L 81.442623 65.573894 
L 81.092857 63.46172 
L 82.880302 63.222362 
L 83.092659 62.670085 
L 80.889569 63.299422 
L 80.987236 65.378912 
L 79.612018 66.669107 
L 77.84443 65.723352 
L 75.812267 66.07013 
L 74.293946 64.236999 
L 73.530823 65.52837 
L 69.426155 66.59671 
L 67.606908 64.5394 
L 67.511516 65.723352 
L 65.746203 65.092265 
L 66.359442 63.762959 
L 66.273134 63.256795 
L 65.571326 65.625273 
L 64.072319 66.486378 
L 63.758889 64.967915 
L 64.849075 64.130742 
L 63.492026 64.433157 
L 63.397764 63.016863 
L 64.717304 58.100566 
L 76.928632 58.098342 
L 77.1327 55.56342 
L 84.690688 54.892419 
L 86.63625 51.884088 
L 97.364603 56.966931 
L 103.898966 55.83552 
L 105.041202 54.188447 
L 102.671999 52.039428 
L 97.410387 53.822917 
L 94.939861 51.154535 
L 92.172232 51.518573 
L 90.241811 49.14935 
L 87.492211 48.598838 
L 83.05808 49.279467 
L 81.325979 51.982698 
L 66.76871 51.927977 
L 67.501287 49.728427 
L 66.245881 50.962566 
L 65.814914 49.43769 
L 66.836389 48.21579 
L 67.806205 48.804265 
L 67.806205 45.963498 
L 64.83374 49.315091 
L 64.18133 46.699092 
L 66.559311 46.159657 
L 66.359442 45.375611 
L 69.513035 43.593859 
L 68.061723 43.220223 
L 65.474232 45.961748 
L 64.540753 45.76734 
L 65.500913 44.573474 
L 64.445361 45.07321 
L 63.787286 48.313869 
L 63.634542 45.144431 
L 61.254873 40.403976 
L 57.520987 36.095537 
L 54.823912 35.417161 
L 54.51104 36.621543 
z
" clip-path="url(#p4efc1f6592)" style="fill: #eeeeee; stroke: #000000; stroke-width: 0.3"/>
    <path d="M 64.437798 69.925175 
L 71.499372 68.167268 
L 79.109269 68.393398 
L 85.834375 64.948001 
L 106.303153 65.034746 
L 106.767192 70.493118 
L 104.744113 70.719995 
L 102.894822 72.521661 
L 106.363729 74.656218 
L 106.280086 78.85936 
L 104.324784 78.373728 
L 102.300254 79.902549 
L 98.46898 79.447305 
L 95.242001 81.684933 
L 92.589036 81.904765 
L 87.368241 90.081792 
L 88.544721 85.933313 
L 85.345706 89.117945 
L 85.673899 85.689292 
L 85.298582 87.285388 
L 83.558261 86.974235 
L 82.610591 84.932679 
L 84.816514 82.831007 
L 83.768917 83.615052 
L 83.625829 82.396079 
L 81.481235 83.908702 
L 81.94967 81.949471 
L 85.206595 80.76552 
L 84.634256 80.07898 
L 86.940106 80.18056 
L 86.836774 81.217378 
L 88.455008 80.266372 
L 86.158814 79.580406 
L 86.731153 78.886276 
L 85.375234 79.594423 
L 85.396807 78.209651 
L 82.435143 81.050417 
L 82.607759 79.091187 
L 81.912761 79.655142 
L 80.862889 78.524907 
L 82.435143 76.339747 
L 85.916929 76.543481 
L 87.302362 75.555114 
L 87.58798 77.513756 
L 89.451518 78.24001 
L 87.57718 76.694101 
L 88.456152 75.006927 
L 85.555803 75.992969 
L 82.607759 75.253287 
L 76.969448 78.306568 
L 78.311734 76.731476 
L 77.455493 76.339747 
L 75.17518 78.500961 
L 76.481701 75.094503 
L 78.502519 75.163386 
L 78.597911 74.469242 
L 76.502144 74.273098 
L 72.864222 76.339747 
L 69.647025 73.442925 
L 73.721607 69.659905 
L 68.216729 72.229217 
z
" clip-path="url(#p4efc1f6592)" style="fill: #eeeeee; stroke: #000000; stroke-width: 0.3"/>
    <path d="M 77.766076 86.560311 
L 78.035214 85.084475 
L 79.368988 84.70091 
L 79.368988 85.689292 
z
" clip-path="url(#p4efc1f6592)" style="fill: #eeeeee; stroke: #000000; stroke-width: 0.3"/>
    <path d="M 74.907186 88.353742 
L 75.636246 87.746601 
L 75.350628 86.170333 
L 76.311359 87.987122 
z
" clip-path="url(#p4efc1f6592)" style="fill: #eeeeee; stroke: #000000; stroke-width: 0.3"/>
    <path d="M 73.435989 82.332433 
L 75.445462 80.364451 
L 76.025755 82.53677 
L 74.111116 83.017825 
z
" clip-path="url(#p4efc1f6592)" style="fill: #eeeeee; stroke: #000000; stroke-width: 0.3"/>
    <path d="M 72.292999 76.543481 
L 74.086696 76.141839 
L 74.803839 76.311139 
L 74.024808 78.209651 
z
" clip-path="url(#p4efc1f6592)" style="fill: #eeeeee; stroke: #000000; stroke-width: 0.3"/>
    <path d="M 71.141498 87.541677 
L 73.207737 86.056501 
L 73.920332 87.346107 
L 72.760876 88.628137 
z
" clip-path="url(#p4efc1f6592)" style="fill: #eeeeee; stroke: #000000; stroke-width: 0.3"/>
    <path d="M 70.672491 85.562604 
L 71.72066 84.594079 
L 72.189095 85.876096 
L 71.093802 85.920472 
z
" clip-path="url(#p4efc1f6592)" style="fill: #eeeeee; stroke: #000000; stroke-width: 0.3"/>
    <path d="M 68.654506 81.450323 
L 71.141498 80.66744 
L 70.757654 81.934292 
L 68.749898 82.038784 
z
" clip-path="url(#p4efc1f6592)" style="fill: #eeeeee; stroke: #000000; stroke-width: 0.3"/>
    <path d="M 79.761916 81.453824 
L 81.179151 80.07898 
L 81.97522 80.920816 
z
" clip-path="url(#p4efc1f6592)" style="fill: #eeeeee; stroke: #000000; stroke-width: 0.3"/>
    <path d="M 78.299245 82.58931 
L 78.884087 81.842626 
L 79.074299 82.72475 
z
" clip-path="url(#p4efc1f6592)" style="fill: #eeeeee; stroke: #000000; stroke-width: 0.3"/>
    <path d="M 76.047329 85.475027 
L 77.033038 84.844528 
L 76.398239 86.170333 
z
" clip-path="url(#p4efc1f6592)" style="fill: #eeeeee; stroke: #000000; stroke-width: 0.3"/>
    <path d="M 73.807343 86.696928 
L 74.958845 87.376466 
L 74.36436 88.058343 
z
" clip-path="url(#p4efc1f6592)" style="fill: #eeeeee; stroke: #000000; stroke-width: 0.3"/>
    <path d="M 70.386886 82.53677 
L 72.292999 81.646482 
L 71.616742 82.72475 
z
" clip-path="url(#p4efc1f6592)" style="fill: #eeeeee; stroke: #000000; stroke-width: 0.3"/>
    <path d="M 59.854662 -51.0867 
L 61.090113 -59.087957 
L 116.253075 -59.214746 
L 114.340682 -80.543321 
L 116.253075 -83.384087 
L 121.776429 -87.01151 
L 130.150357 -89.73995 
L 130.206607 -126.094983 
L 176.641938 -126.168384 
L 176.715492 -144.610596 
L 230.590184 -111.7499 
L 205.870078 -111.736542 
L 219.402481 9.733346 
L 223.171016 12.830272 
L 220.970898 24.56333 
L 167.410249 24.542569 
L 167.309289 21.641371 
L 165.980287 23.212818 
L 166.368247 25.333285 
L 157.385336 26.420593 
L 148.207022 25.440432 
L 145.558368 30.177386 
L 137.057176 22.421714 
L 135.7945 23.889372 
L 134.228972 23.889372 
L 132.57401 29.084527 
L 132.926637 33.088972 
L 129.437902 35.464493 
L 125.082739 33.863017 
L 123.653852 31.40593 
L 118.02376 28.054322 
L 118.865307 27.580928 
L 116.963729 24.348677 
L 115.295832 24.58409 
L 114.934874 23.096791 
L 113.146871 22.709022 
L 112.057271 18.304211 
L 109.698882 15.082721 
L 107.130997 15.789304 
L 106.287287 14.587447 
L 104.803238 15.576503 
L 102.820543 12.457339 
L 96.837113 7.825652 
L 88.915684 7.386734 
L 87.055942 7.759668 
L 86.811475 8.945944 
L 82.082418 8.963734 
L 79.177059 10.399885 
L 70.781865 9.800062 
L 68.201002 14.520717 
L 67.034555 20.049234 
L 67.216827 12.53282 
L 73.500723 -4.857982 
L 74.111116 -13.417642 
L 71.747913 -25.488267 
L 67.130519 -31.199585 
L 69.590245 -31.702233 
L 70.627069 -33.329865 
L 69.139979 -32.394039 
L 69.514165 -33.472895 
L 68.112824 -31.654944 
L 71.340222 -37.122815 
L 71.141498 -38.690302 
L 70.230737 -38.50116 
L 71.498074 -40.134631 
L 70.958667 -42.030231 
L 71.780273 -43.430757 
L 68.083297 -49.403615 
L 68.899796 -49.768485 
L 67.216827 -50.685631 
L 67.034555 -48.130336 
L 65.21588 -49.804684 
L 61.798257 -56.71453 
z
" clip-path="url(#p4efc1f6592)" style="fill: #eeeeee; stroke: #000000; stroke-width: 0.3"/>
    <path d="M 69.053112 -34.343341 
L 69.599329 -35.455483 
L 70.393696 -36.1035 
z
" clip-path="url(#p4efc1f6592)" style="fill: #eeeeee; stroke: #000000; stroke-width: 0.3"/>
    <path d="M 68.128146 -35.558814 
L 69.77535 -38.19467 
L 68.567626 -34.362609 
z
" clip-path="url(#p4efc1f6592)" style="fill: #eeeeee; stroke: #000000; stroke-width: 0.3"/>
    <path d="M 67.985058 -48.608479 
L 68.373436 -48.797048 
L 68.264997 -48.277455 
z
" clip-path="url(#p4efc1f6592)" style="fill: #eeeeee; stroke: #000000; stroke-width: 0.3"/>
    <path d="M 67.668796 -35.858302 
L 68.022539 -35.774226 
L 67.845389 -35.459558 
z
" clip-path="url(#p4efc1f6592)" style="fill: #eeeeee; stroke: #000000; stroke-width: 0.3"/>
    <path d="M 63.024721 55.491683 
L 65.130145 53.230051 
L 68.749898 57.3616 
L 68.463721 56.382559 
L 71.002945 55.687253 
L 71.42653 56.675634 
L 71.676369 56.745105 
L 72.491738 56.382559 
L 71.43334 55.561153 
L 72.353185 54.197988 
L 79.893645 53.823189 
L 80.973617 53.036232 
L 83.804682 54.02401 
L 84.303788 53.816188 
L 84.44403 53.230051 
L 80.796452 52.768852 
L 72.626872 53.82669 
L 69.15304 55.515629 
L 67.320732 55.197445 
L 66.76871 51.927977 
L 81.325979 51.982698 
L 83.05808 49.279467 
L 87.193671 48.584017 
L 90.241811 49.14935 
L 92.172232 51.518573 
L 94.939861 51.154535 
L 97.410387 53.822917 
L 102.671999 52.039428 
L 105.041202 54.188447 
L 103.898966 55.83552 
L 97.364603 56.966931 
L 86.63625 51.884088 
L 84.690688 54.892419 
L 77.1327 55.56342 
L 76.928632 58.098342 
L 65.204061 57.99121 
L 64.085952 59.415983 
z
" clip-path="url(#p4efc1f6592)" style="fill: #eeeeee; stroke: #000000; stroke-width: 0.3"/>
   </g>
   <g id="PatchCollection_2">
    <defs>
     <path id="m66cc16ea71" d="M 63.024721 -52.508317 
L 65.130145 -54.769949 
L 68.749898 -50.6384 
L 68.463721 -51.617441 
L 71.002945 -52.312747 
L 71.42653 -51.324366 
L 71.676369 -51.254895 
L 72.491738 -51.617441 
L 71.43334 -52.438847 
L 72.353185 -53.802012 
L 79.893645 -54.176811 
L 80.973617 -54.963768 
L 83.804682 -53.97599 
L 84.303788 -54.183812 
L 84.44403 -54.769949 
L 80.796452 -55.231148 
L 72.626872 -54.17331 
L 69.15304 -52.484371 
L 67.320732 -52.802555 
L 66.76871 -56.072023 
L 81.325979 -56.017302 
L 83.05808 -58.720533 
L 87.193671 -59.415983 
L 90.241811 -58.85065 
L 92.172232 -56.481427 
L 94.939861 -56.845465 
L 97.410387 -54.177083 
L 102.671999 -55.960572 
L 105.041202 -53.811553 
L 103.898966 -52.16448 
L 97.364603 -51.033069 
L 86.63625 -56.115912 
L 84.690688 -53.107581 
L 77.1327 -52.43658 
L 76.928632 -49.901658 
L 65.204061 -50.00879 
L 64.085952 -48.584017 
z
" style="stroke: #dd0000; stroke-width: 0.5"/>
    </defs>
    <g clip-path="url(#p4efc1f6592)">
     <use xlink:href="#m66cc16ea71" x="0" y="108" style="fill: #ff6b6b; stroke: #dd0000; stroke-width: 0.5"/>
    </g>
   </g>
  </g>
 </g>
 <defs>
  <clipPath id="p4efc1f6592">
   <rect x="0" y="0" width="168.065923" height="108"/>
  </clipPath>
 </defs>
</svg>
