<?xml version="1.0" encoding="utf-8" standalone="no"?>
<!DOCTYPE svg PUBLIC "-//W3C//DTD SVG 1.1//EN"
  "http://www.w3.org/Graphics/SVG/1.1/DTD/svg11.dtd">
<svg xmlns:xlink="http://www.w3.org/1999/xlink" width="171.13895pt" height="108pt" viewBox="0 0 171.13895 108" xmlns="http://www.w3.org/2000/svg" version="1.1">
 <metadata>
  <rdf:RDF xmlns:dc="http://purl.org/dc/elements/1.1/" xmlns:cc="http://creativecommons.org/ns#" xmlns:rdf="http://www.w3.org/1999/02/22-rdf-syntax-ns#">
   <cc:Work>
    <dc:type rdf:resource="http://purl.org/dc/dcmitype/StillImage"/>
    <dc:date>2025-09-05T15:49:28.357245</dc:date>
    <dc:format>image/svg+xml</dc:format>
    <dc:creator>
     <cc:Agent>
      <dc:title>Matplotlib v3.10.3, https://matplotlib.org/</dc:title>
     </cc:Agent>
    </dc:creator>
   </cc:Work>
  </rdf:RDF>
 </metadata>
 <defs>
  <style type="text/css">*{stroke-linejoin: round; stroke-linecap: butt}</style>
 </defs>
 <g id="figure_1">
  <g id="patch_1">
   <path d="M 0 108 
L 171.13895 108 
L 171.13895 0 
L 0 0 
z
" style="fill: #ffffff"/>
  </g>
  <g id="axes_1">
   <g id="PatchCollection_1">
    <path d="M -16.510899 44.831542 
L -14.96933 44.810907 
L -13.66437 43.685479 
L -13.654039 42.890382 
L -12.04107 42.257962 
L -9.611819 37.772983 
L -7.983566 37.369459 
L -6.856486 37.826627 
L -5.028635 37.42875 
L -4.931412 36.837802 
L 0.58613 36.830422 
L 3.590967 40.402594 
L 4.045239 41.884192 
L 5.349124 42.604364 
L 4.756332 44.475794 
L 6.023656 44.725551 
L 5.977197 46.73208 
L 6.958014 47.9333 
L 4.848393 51.170795 
L 8.619815 49.512198 
L 8.297604 52.046466 
L 5.873522 53.317837 
L 5.848141 55.526986 
L 0.004092 60.195916 
L -1.319306 62.668321 
L -4.34448 60.738676 
L -9.896902 58.714285 
L -8.755396 58.714285 
L -9.752604 58.250174 
L -9.24553 57.505946 
L -7.210114 56.924858 
L -9.540228 57.267217 
L -10.207858 56.49768 
L -9.442331 55.484632 
L -10.690201 56.243569 
L -13.487082 54.540675 
L -12.51662 54.279714 
L -13.269952 53.32789 
L -12.9712 52.719787 
L -13.771948 51.45193 
L -15.369051 52.145885 
L -16.391666 49.381032 
L -14.283768 50.419389 
L -14.971045 49.610179 
L -12.919712 48.801658 
L -13.43119 48.68674 
L -12.9712 47.826232 
L -14.519179 48.683664 
L -14.226861 48.113183 
L -15.317222 47.945933 
L -14.899237 48.70213 
L -15.356514 49.234644 
L -16.004165 46.644227 
L -13.885421 46.381215 
L -15.089595 46.32273 
L -14.629604 45.69205 
L -16.226706 45.582949 
z
" clip-path="url(#pb042b3d18f)" style="fill: #eeeeee; stroke: #000000; stroke-width: 0.3"/>
    <path d="M -13.601911 57.15435 
L -10.852796 56.613969 
L -9.783771 57.2166 
L -10.255616 58.715991 
L -10.720694 57.96767 
z
" clip-path="url(#pb042b3d18f)" style="fill: #eeeeee; stroke: #000000; stroke-width: 0.3"/>
    <path d="M -31.314991 29.55714 
L -28.248252 24.187303 
L -26.66561 24.058516 
L -24.740536 22.747615 
L -22.454967 23.014317 
L -21.247222 22.118667 
L -20.080774 22.403172 
L -20.030877 19.940785 
L -22.100274 18.690268 
L -20.997068 17.634773 
L -19.790189 17.501859 
L -20.067014 14.304104 
L -14.640884 14.619019 
L -14.43719 15.994633 
L -13.28129 15.456026 
L -8.684337 17.395438 
L -6.545463 16.540192 
L -1.364758 16.364705 
L -0.590424 16.732608 
L -1.582429 18.353642 
L -0.141313 19.744024 
L 1.053305 19.843056 
L 2.209213 18.26199 
L 3.043343 18.119519 
L 5.047567 20.885524 
L 6.710225 18.971731 
L 8.747148 18.133421 
L 13.275265 19.750538 
L 14.064659 18.533895 
L 16.490031 17.696023 
L 16.72018 16.957174 
L 15.859386 16.136667 
L 17.080676 15.801781 
L 19.494443 16.865085 
L 19.341513 18.074348 
L 20.976858 20.59363 
L 20.565599 22.839267 
L 21.570508 22.910503 
L 22.151255 24.19686 
L 24.494039 25.279278 
L 21.785174 28.550664 
L 22.960437 28.608216 
L 23.408257 27.925834 
L 24.899704 28.169077 
L 25.250734 32.477703 
L 27.858081 34.406264 
L 26.171332 37.263475 
L 26.306406 40.718157 
L 27.168499 41.90982 
L 28.739096 41.73477 
L 28.204808 43.63466 
L 29.726373 44.537691 
L 28.185878 45.209212 
L 27.877011 46.753363 
L 30.14236 48.333563 
L 30.428434 50.434771 
L 29.084965 49.569094 
L 28.737372 50.047981 
L 27.863675 49.408601 
L 25.546698 49.773243 
L 25.404306 51.518063 
L 27.590937 52.038649 
L 27.929489 53.458131 
L 27.043314 53.339557 
L 25.951505 57.146709 
L 24.165377 56.83919 
L 23.577321 57.300914 
L 22.895047 56.206325 
L 21.903041 56.154632 
L 20.477409 59.695965 
L 18.24992 60.392249 
L 17.343091 58.785983 
L 15.208946 58.830288 
L 16.334736 55.755024 
L 14.880716 52.026487 
L 15.138828 50.698649 
L 13.655981 50.294695 
L 13.878388 49.678775 
L 13.282582 49.923968 
L 12.854116 48.853276 
L 10.455841 50.037121 
L 9.73743 49.178824 
L 7.849784 49.426841 
L 6.354466 50.964477 
L 4.848393 51.170795 
L 6.958014 47.9333 
L 5.977197 46.73208 
L 6.023656 44.725551 
L 4.756332 44.475794 
L 5.349124 42.604364 
L 4.045239 41.884192 
L 0.983187 36.92489 
L -4.931412 36.837802 
L -5.028635 37.42875 
L -6.856486 37.826627 
L -7.983566 37.369459 
L -9.611819 37.772983 
L -12.04107 42.257962 
L -13.654039 42.890382 
L -13.66437 43.685479 
L -14.96933 44.810907 
L -16.510899 44.831542 
L -15.317222 43.621153 
L -16.164721 43.529828 
L -15.942514 42.932677 
L -16.629116 43.649882 
L -16.510899 42.180926 
L -17.399047 42.767823 
L -17.306237 41.487316 
L -18.283125 41.401127 
L -18.055839 40.396971 
L -18.561898 40.976 
L -18.902997 40.396971 
L -20.049924 40.884684 
L -18.67537 38.554876 
L -19.425314 38.095892 
L -20.072283 38.925965 
L -19.709166 37.224777 
L -21.020718 37.945067 
L -22.814622 36.562299 
L -22.328209 35.09642 
L -23.604199 36.307155 
L -23.475817 35.268797 
L -24.180367 35.883053 
L -24.359221 35.242463 
L -26.096217 34.971239 
L -26.78282 32.503263 
L -27.804761 32.744035 
L -26.493208 29.284898 
L -28.154659 31.369135 
L -27.751242 29.966876 
L -28.658354 30.896468 
L -28.493053 29.446323 
L -29.061097 29.853328 
L -29.152892 29.1091 
L -27.862342 28.068692 
L -28.032721 27.834409 
L -29.350708 28.64293 
L -29.975659 28.126151 
L -30.317099 30.317439 
z
" clip-path="url(#pb042b3d18f)" style="fill: #eeeeee; stroke: #000000; stroke-width: 0.3"/>
    <path d="M -1.319306 62.668321 
L 0.004092 60.195916 
L 5.848141 55.526986 
L 5.873522 53.317837 
L 8.297604 52.046466 
L 8.619815 49.512198 
L 10.211065 49.298054 
L 10.455841 50.037121 
L 12.854116 48.853276 
L 13.282582 49.923968 
L 13.878388 49.678775 
L 13.655981 50.294695 
L 15.138828 50.698649 
L 14.880716 52.026487 
L 16.334736 55.755024 
L 15.208946 58.830288 
L 17.343091 58.785983 
L 18.24992 60.392249 
L 20.02486 59.888389 
L 21.903041 56.154632 
L 22.895047 56.206325 
L 24.075471 57.772195 
L 25.253315 61.840838 
L 24.808932 63.863212 
L 22.467872 66.253925 
L 24.136557 66.603807 
L 24.190334 67.538324 
L 28.331283 68.112335 
L 29.394697 70.748023 
L 31.827386 72.025479 
L 32.225742 71.69124 
L 32.698511 76.136041 
L 31.14985 78.195986 
L 31.368386 79.525564 
L 30.902493 79.663908 
L 31.442209 84.241328 
L 25.476422 82.33215 
L 18.420049 78.536462 
L 8.192506 69.252801 
L 4.406891 67.93399 
L 4.647721 66.998918 
L -0.295326 64.502894 
z
" clip-path="url(#pb042b3d18f)" style="fill: #eeeeee; stroke: #000000; stroke-width: 0.3"/>
    <path d="M 22.467872 66.253925 
L 24.690207 64.047382 
L 25.232237 62.043248 
L 23.577321 57.300914 
L 24.165377 56.83919 
L 25.712323 57.416017 
L 27.043314 53.339557 
L 27.929489 53.458131 
L 27.590937 52.038649 
L 25.404306 51.518063 
L 25.500671 49.832535 
L 27.863675 49.408601 
L 30.428434 50.434771 
L 30.14236 48.333563 
L 27.877011 46.753363 
L 28.185878 45.209212 
L 29.726373 44.537691 
L 28.204808 43.63466 
L 28.739096 41.73477 
L 27.168499 41.90982 
L 26.306406 40.718157 
L 26.171332 37.263475 
L 27.704501 35.413319 
L 29.041943 34.9959 
L 30.412085 33.100574 
L 31.768457 32.919884 
L 32.917905 34.655147 
L 35.811751 35.590757 
L 36.265598 33.87612 
L 38.699153 33.740391 
L 38.696997 31.276483 
L 40.554966 32.13304 
L 40.712842 31.008049 
L 42.136751 30.668598 
L 42.565642 31.482801 
L 42.09244 32.453815 
L 42.764391 33.242826 
L 42.269678 34.657324 
L 44.134956 35.178986 
L 45.28269 33.613991 
L 47.646976 32.959406 
L 49.24124 34.248588 
L 51.46271 34.217311 
L 52.008618 35.848986 
L 52.897375 36.436017 
L 52.874574 37.606835 
L 54.26988 38.098532 
L 54.286654 38.838465 
L 55.247043 39.447215 
L 56.671593 38.917736 
L 56.740213 39.674605 
L 57.826861 40.280322 
L 59.665892 38.302244 
L 62.955945 37.313865 
L 66.600892 37.604229 
L 66.729515 38.110257 
L 67.453519 37.484133 
L 70.819493 41.724784 
L 71.828489 41.072376 
L 72.062077 43.046099 
L 71.115673 44.718171 
L 72.409236 45.822308 
L 73.350912 51.826683 
L 72.482367 52.200007 
L 72.483233 53.249426 
L 70.984253 54.062326 
L 69.728117 57.139766 
L 69.467641 60.184191 
L 67.368767 63.256848 
L 67.056029 65.209079 
L 68.993573 72.882255 
L 69.534321 72.835774 
L 69.69198 73.68886 
L 71.026192 73.800273 
L 71.184076 77.448236 
L 68.08294 77.605501 
L 67.534201 76.963877 
L 68.025359 75.7015 
L 67.05965 75.936464 
L 66.642673 77.793613 
L 63.235751 76.79698 
L 62.352688 77.141045 
L 60.900559 76.561672 
L 63.173766 76.561672 
L 63.283509 76.428968 
L 62.923779 75.723732 
L 62.540682 75.641645 
L 63.048098 76.498741 
L 61.696571 75.873533 
L 61.007604 76.539784 
L 59.872183 76.217606 
L 58.910195 76.415284 
L 58.631089 76.175874 
L 57.139667 76.624939 
L 56.224764 76.280193 
L 55.196388 76.854431 
L 55.310543 76.165619 
L 54.185627 77.284693 
L 59.386452 76.446753 
L 60.952046 76.854431 
L 53.485813 77.720419 
L 52.510956 76.985764 
L 49.915622 76.866744 
L 49.270684 77.608232 
L 51.036134 77.421154 
L 50.690631 77.083586 
L 52.571925 77.720419 
L 45.505389 78.549802 
L 36.749281 81.642649 
L 32.140557 84.315153 
L 31.166624 84.051804 
L 31.14985 78.195986 
L 32.698511 76.136041 
L 32.225742 71.69124 
L 31.827386 72.025479 
L 29.394697 70.748023 
L 28.331283 68.112335 
L 24.190334 67.538324 
L 24.136557 66.603807 
z
" clip-path="url(#pb042b3d18f)" style="fill: #eeeeee; stroke: #000000; stroke-width: 0.3"/>
    <path d="M 66.940751 77.809003 
L 67.292356 77.427651 
L 68.245536 78.034048 
z
" clip-path="url(#pb042b3d18f)" style="fill: #eeeeee; stroke: #000000; stroke-width: 0.3"/>
    <path d="M -7.878602 -3.360206 
L -6.265841 -3.019452 
L -4.184615 -4.411137 
L -4.394977 -6.757117 
L -3.4077 -9.800667 
L -2.473774 -9.800667 
L -1.720517 -10.660486 
L 3.350919 -6.116872 
L 4.93099 -8.891988 
L 10.406368 -8.317767 
L 15.765177 -8.95476 
L 15.533737 -10.197022 
L 16.326561 -11.117646 
L 16.386789 -9.417996 
L 48.338715 -9.405834 
L 49.651208 -16.279575 
L 47.403066 -18.093891 
L 39.33023 -89.256299 
L 54.077158 -89.264124 
L 103.759337 -56.539051 
L 103.826441 -53.488542 
L 107.199091 -52.301006 
L 109.017044 -49.836443 
L 111.457051 -49.071319 
L 112.535948 -49.581046 
L 114.197324 -47.754131 
L 120.84367 -45.770195 
L 121.359885 -42.137429 
L 120.055566 -40.012543 
L 121.560357 -38.837599 
L 129.41638 -40.069011 
L 129.044696 -17.154372 
L 128.017419 -16.164901 
L 126.44122 -11.260117 
L 123.571898 -9.420602 
L 123.410144 -8.227199 
L 119.467935 -8.836395 
L 119.190044 -8.102329 
L 105.299399 -7.635823 
L 102.320801 -5.178438 
L 99.793037 -4.745377 
L 96.056886 -5.217741 
L 96.03366 -4.503655 
L 92.244599 -5.803478 
L 90.67098 -5.27378 
L 90.31995 -5.923582 
L 88.223665 -5.91142 
L 85.236467 -3.540248 
L 80.088886 -1.016621 
L 77.590374 -0.802914 
L 77.266873 1.630145 
L 76.301547 1.841028 
L 73.722587 0.792273 
L 72.592926 1.284836 
L 70.346074 3.148886 
L 70.113344 6.081469 
L 68.679329 6.45871 
L 66.852552 5.693796 
L 67.171533 9.097878 
L 65.507368 9.324823 
L 65.499618 10.1399 
L 61.153043 8.307992 
L 61.599573 7.767434 
L 61.072811 7.364783 
L 57.994201 10.56427 
L 59.152898 13.078559 
L 58.771974 13.904496 
L 56.877227 13.957054 
L 57.693068 15.476005 
L 57.157057 16.305203 
L 57.535834 17.379804 
L 56.852919 17.26861 
L 56.251094 18.707642 
L 54.579396 19.908643 
L 51.848587 20.138421 
L 49.159509 21.405446 
L 50.201845 21.990527 
L 50.77485 24.820816 
L 49.824143 27.347705 
L 48.394639 27.75861 
L 49.000768 29.675 
L 48.582633 32.275293 
L 48.241925 33.198522 
L 45.28269 33.613991 
L 44.134956 35.178986 
L 42.269678 34.657324 
L 42.764391 33.242826 
L 42.09244 32.453815 
L 42.565642 31.482801 
L 42.136751 30.668598 
L 40.712842 31.008049 
L 40.554966 32.13304 
L 38.696997 31.276483 
L 38.699153 33.740391 
L 36.265598 33.87612 
L 35.811751 35.590757 
L 32.917905 34.655147 
L 31.768457 32.919884 
L 30.412085 33.100574 
L 29.041943 34.9959 
L 27.704501 35.413319 
L 27.649443 34.015767 
L 25.713181 33.215896 
L 25.158248 32.257482 
L 24.899704 28.169077 
L 23.408257 27.925834 
L 22.960437 28.608216 
L 21.822601 28.682704 
L 24.494039 25.279278 
L 22.151255 24.19686 
L 21.570508 22.910503 
L 20.565599 22.839267 
L 20.794025 19.857824 
L 19.942264 19.582876 
L 19.494443 16.865085 
L 18.06752 16.051538 
L 15.97941 15.986379 
L 16.72018 16.957174 
L 16.490031 17.696023 
L 14.064659 18.533895 
L 13.275265 19.750538 
L 8.747148 18.133421 
L 6.710225 18.971731 
L 5.047567 20.885524 
L 3.043343 18.119519 
L 2.209213 18.26199 
L 1.053305 19.843056 
L -0.141313 19.744024 
L -1.582429 18.353642 
L -0.590424 16.732608 
L -0.500085 15.927743 
L -1.249471 15.39565 
L -0.592147 11.806323 
L -1.792791 10.618997 
L -2.459148 8.526044 
L -3.525576 8.130991 
L -4.249139 8.976033 
L -6.492553 5.637985 
L -5.371058 4.586834 
L -5.659713 1.756764 
L -7.52564 -0.135091 
L -7.053512 -2.241728 
z
" clip-path="url(#pb042b3d18f)" style="fill: #eeeeee; stroke: #000000; stroke-width: 0.3"/>
    <path d="M 116.450628 54.443694 
L 117.267118 44.700797 
L 119.821554 44.380452 
L 120.292176 41.336683 
L 121.94924 39.699796 
L 121.901923 38.441462 
L 123.460049 38.064221 
L 124.095863 37.205058 
L 124.745438 35.542981 
L 123.953896 34.373466 
L 124.61724 33.111871 
L 125.619568 33.348591 
L 126.159882 31.732558 
L 125.265957 29.98578 
L 125.19971 27.425236 
L 123.088366 24.84362 
L 124.741134 21.984013 
L 124.216312 20.757821 
L 124.529482 15.610222 
L 126.923029 13.656907 
L 128.252297 11.590448 
L 128.560314 7.583264 
L 131.731626 5.719861 
L 134.646558 5.052248 
L 137.732692 5.327633 
L 140.181307 4.15964 
L 145.347818 6.172465 
L 147.233742 6.294738 
L 151.963621 11.597399 
L 153.058868 11.59175 
L 154.136908 10.572087 
L 155.750094 10.61292 
L 159.346433 8.656562 
L 161.686637 9.040108 
L 166.466847 12.201156 
L 174.050131 13.2282 
L 178.4578 9.456652 
L 183.079693 8.405939 
L 189.448139 8.495633 
L 194.589702 10.577298 
L 198.04494 11.019479 
L 198.780558 9.518331 
L 200.812744 8.42375 
L 201.121618 7.447526 
L 204.333371 6.952357 
L 205.180837 5.595848 
L 207.490065 5.64059 
L 211.299339 10.903292 
L 212.331785 16.850754 
L 214.813947 17.124836 
L 216.335937 18.556917 
L 215.269942 22.403172 
L 215.931563 23.075996 
L 215.801649 24.043092 
L 212.136482 26.366269 
L 210.611912 26.047445 
L 208.718239 28.229016 
L 206.91964 31.55165 
L 206.054967 35.485429 
L 204.350578 36.39389 
L 204.061499 40.622815 
L 201.230887 42.002119 
L 201.588793 42.974435 
L 200.544309 47.205529 
L 198.754743 48.494711 
L 197.180267 48.461913 
L 197.471935 49.412073 
L 195.999843 50.338563 
L 195.709041 53.916383 
L 194.267924 55.948751 
L 194.285131 57.147583 
L 191.917399 59.77806 
L 193.046202 61.32395 
L 190.461656 63.032719 
L 190.225912 64.97409 
L 188.863954 66.565579 
L 186.730234 66.748447 
L 186.090982 64.171823 
L 182.277829 60.891326 
L 181.589536 63.044445 
L 179.215777 63.006654 
L 178.650522 61.926405 
L 176.417006 63.775468 
L 175.700319 63.716185 
L 174.905339 65.930546 
L 171.974924 67.757242 
L 168.992022 71.272518 
L 167.93635 71.678212 
L 167.631787 72.888988 
L 168.336429 73.799836 
L 167.46229 77.459962 
L 165.221907 81.248648 
L 162.323749 78.873694 
L 163.754535 81.753121 
L 163.213929 82.596188 
L 157.135802 82.791478 
L 157.021988 81.230862 
L 156.665647 82.393375 
L 154.826349 82.154301 
L 155.261283 82.757621 
L 154.826349 82.963511 
L 153.084616 80.834809 
L 154.023569 82.844491 
L 152.852927 83.537412 
L 152.852927 81.805444 
L 152.176147 81.063956 
L 152.397673 82.097531 
L 151.65925 81.460698 
L 152.684238 83.860616 
L 152.233054 84.058646 
L 151.393688 83.846251 
L 150.699976 80.339573 
L 150.119396 80.193186 
L 151.411303 84.17459 
L 150.119396 84.225888 
L 150.290116 82.097531 
L 149.948675 83.652331 
L 149.607235 82.906052 
L 149.887024 84.378084 
L 149.262414 84.376722 
L 149.122853 83.155044 
L 148.744834 82.963511 
L 148.904042 84.392112 
L 146.414387 84.747466 
L 146.930611 83.537412 
L 146.352061 83.881478 
L 146.129862 83.02097 
L 146.016048 84.685216 
L 145.101486 84.919499 
L 144.900955 83.751514 
L 144.676716 84.725578 
L 144.067682 83.70979 
L 143.841412 84.403392 
L 143.245931 84.106868 
L 139.795654 80.083739 
L 139.05113 77.746408 
L 139.965692 77.605501 
L 138.881092 77.427651 
L 138.669723 75.91081 
L 140.648565 75.591028 
L 140.282742 74.797553 
L 140.949357 74.557462 
L 141.164788 74.261274 
L 139.364117 75.132725 
L 139.449477 75.476799 
L 137.48621 74.586872 
L 137.692834 73.916519 
L 140.08018 73.837172 
L 139.562608 73.285848 
L 138.551847 73.713025 
L 138.648046 72.711601 
L 138.171114 73.611446 
L 136.91308 73.522181 
L 136.692904 72.134623 
L 138.255118 71.15201 
L 136.209879 72.350776 
L 133.738522 69.229207 
L 130.889146 67.379925 
L 122.881625 66.947276 
L 122.393181 66.659989 
L 126.214708 65.262167 
L 123.478463 65.966033 
L 123.194612 65.334672 
L 122.538153 65.755352 
L 122.267172 66.613809 
L 122.389793 67.053646 
L 116.723332 67.300251 
L 117.45984 57.976336 
z
" clip-path="url(#pb042b3d18f)" style="fill: #eeeeee; stroke: #000000; stroke-width: 0.3"/>
    <path d="M 153.636061 83.869853 
L 154.397526 82.728892 
L 154.769451 83.072612 
L 155.255181 83.072612 
L 154.970648 83.721078 
z
" clip-path="url(#pb042b3d18f)" style="fill: #eeeeee; stroke: #000000; stroke-width: 0.3"/>
    <path d="M 155.291768 83.33939 
L 157.352582 83.133837 
L 156.081678 83.552458 
z
" clip-path="url(#pb042b3d18f)" style="fill: #eeeeee; stroke: #000000; stroke-width: 0.3"/>
    <path d="M 100.614688 33.689353 
L 100.718795 30.949624 
L 101.719401 28.43056 
L 102.233901 28.586933 
L 102.384467 27.696057 
L 103.490037 28.136935 
L 103.058133 27.175479 
L 103.858274 26.974801 
L 103.668133 26.183183 
L 105.289934 25.94168 
L 106.199343 24.387326 
L 107.547541 25.102497 
L 110.725737 24.889664 
L 113.141652 22.888783 
L 114.034712 20.40208 
L 114.666223 20.140161 
L 113.871243 18.124293 
L 114.98542 17.583517 
L 117.892601 16.608385 
L 124.153503 22.521317 
L 123.088366 24.84362 
L 125.19971 27.425236 
L 125.265957 29.98578 
L 126.159882 31.732558 
L 125.619568 33.348591 
L 124.61724 33.111871 
L 123.953896 34.373466 
L 124.745438 35.542981 
L 124.095863 37.205058 
L 123.460049 38.064221 
L 121.901923 38.441462 
L 121.94924 39.699796 
L 120.292176 41.336683 
L 119.821554 44.380452 
L 117.267118 44.700797 
L 116.450628 54.443694 
L 117.45984 57.976336 
L 116.723332 67.300251 
L 107.697824 68.598527 
L 109.052323 68.065854 
L 107.251569 64.696318 
L 106.967651 62.058882 
L 107.748005 62.018057 
L 107.544094 44.763997 
L 105.256377 40.793083 
L 105.295095 36.804576 
z
" clip-path="url(#pb042b3d18f)" style="fill: #eeeeee; stroke: #000000; stroke-width: 0.3"/>
    <path d="M 165.05932 82.777113 
L 165.825014 79.799209 
L 167.46229 77.459962 
L 168.336429 73.799836 
L 167.631787 72.888988 
L 167.847735 71.816547 
L 171.974924 67.757242 
L 174.905339 65.930546 
L 175.700319 63.716185 
L 176.417006 63.775468 
L 178.650522 61.926405 
L 179.215777 63.006654 
L 181.589536 63.044445 
L 182.277829 60.891326 
L 186.090982 64.171823 
L 186.593436 66.621391 
L 187.912381 66.782329 
L 190.225912 64.97409 
L 190.461656 63.032719 
L 193.046202 61.32395 
L 191.917399 59.77806 
L 194.285131 57.147583 
L 194.267924 55.948751 
L 195.709041 53.916383 
L 195.999843 50.338563 
L 197.471935 49.412073 
L 197.180267 48.461913 
L 198.754743 48.494711 
L 200.724129 46.957075 
L 201.588793 42.974435 
L 201.230887 42.002119 
L 204.061499 40.622815 
L 204.350578 36.39389 
L 206.054967 35.485429 
L 206.91964 31.55165 
L 208.718239 28.229016 
L 210.611912 26.047445 
L 212.136482 26.366269 
L 215.88855 23.841767 
L 215.269942 22.403172 
L 216.322176 18.467442 
L 214.813947 17.124836 
L 212.331785 16.850754 
L 211.299339 10.903292 
L 214.240085 10.87679 
L 215.377488 13.518135 
L 217.578313 14.594694 
L 218.234772 18.679846 
L 219.495211 19.253201 
L 220.212756 23.907791 
L 219.260334 26.835154 
L 220.234267 32.390177 
L 224.754642 36.848225 
L 217.190288 37.432659 
L 212.271557 36.958335 
L 210.309056 39.694585 
L 213.668794 43.765187 
L 219.515856 48.174366 
L 222.752566 54.935391 
L 223.769521 55.330225 
L 222.686319 58.715184 
L 220.947516 59.910545 
L 217.187699 67.720763 
L 213.982831 70.068256 
L 215.898872 71.531395 
L 215.898872 74.638582 
L 215.086685 76.359296 
L 216.243876 77.4187 
L 216.729989 81.978822 
L 219.033189 83.733199 
L 219.842796 86.183422 
L 220.66359 86.676641 
L 219.299909 86.987858 
L 219.790318 88.166711 
L 228.177189 96.761595 
L 228.159983 99.726966 
L 229.137354 102.142871 
L 228.276993 102.390896 
L 227.938865 103.884438 
L 228.70545 106.379185 
L 227.989628 106.921482 
L 227.523303 105.940046 
L 224.967152 104.589623 
L 223.103597 104.220846 
L 221.892197 104.678014 
L 220.853731 103.684852 
L 218.188312 103.964146 
L 217.893206 103.043304 
L 217.125756 103.467674 
L 215.438573 102.262756 
L 214.363114 102.907347 
L 204.886589 102.664104 
L 204.803992 101.981723 
L 203.798226 101.637717 
L 200.352445 102.028205 
L 191.256636 101.307167 
L 188.712522 101.491337 
L 188.466456 102.624582 
L 177.385778 102.625885 
L 175.886157 101.791476 
L 177.092279 95.188168 
L 176.873459 93.329994 
L 174.48136 91.081583 
L 175.958897 90.334968 
L 174.349258 90.569251 
L 173.680612 88.723045 
L 174.333 89.306865 
L 174.306578 88.259279 
L 175.333605 88.723045 
L 174.765894 87.971984 
L 175.49958 87.564643 
L 174.288289 87.54036 
L 175.417608 86.066613 
L 173.959043 87.097792 
L 173.119677 86.270796 
L 173.568829 87.295822 
L 172.782307 86.951068 
L 173.106133 87.914525 
L 171.995777 87.914525 
L 171.851479 86.938754 
L 170.890174 87.507528 
L 168.896422 86.360069 
L 168.60105 82.556514 
L 167.862627 81.830072 
L 168.036053 82.629708 
L 167.459543 82.154301 
L 167.374857 82.656042 
L 166.265184 81.001715 
L 166.827475 82.894082 
z
" clip-path="url(#pb042b3d18f)" style="fill: #eeeeee; stroke: #000000; stroke-width: 0.3"/>
    <path d="M 95.488185 -1.441857 
L 96.056886 -5.217741 
L 102.117756 -5.080053 
L 105.299399 -7.635823 
L 119.190044 -8.102329 
L 119.467935 -8.836395 
L 123.410144 -8.227199 
L 123.571898 -9.420602 
L 126.232156 -11.012099 
L 128.017419 -16.164901 
L 129.044696 -17.154372 
L 129.41638 -40.069011 
L 142.450094 -42.654098 
L 156.505499 -54.613096 
L 193.850647 -76.843394 
L 206.449019 -74.005078 
L 212.558921 -69.269687 
L 218.916329 -72.458423 
L 220.515604 -64.033916 
L 220.619711 -59.812816 
L 224.155822 -55.269412 
L 223.61465 -54.762081 
L 223.830606 -53.598871 
L 227.161092 -50.105751 
L 225.210637 -46.467992 
L 223.012393 -21.362881 
L 213.830549 -11.552876 
L 209.376421 -5.41668 
L 207.91078 -1.458794 
L 206.176281 -0.536868 
L 207.490065 5.64059 
L 205.180837 5.595848 
L 204.333371 6.952357 
L 201.121618 7.447526 
L 200.812744 8.42375 
L 198.780558 9.518331 
L 198.04494 11.019479 
L 194.589702 10.577298 
L 189.448139 8.495633 
L 183.079693 8.405939 
L 178.4578 9.456652 
L 174.050131 13.2282 
L 166.466847 12.201156 
L 161.686637 9.040108 
L 159.346433 8.656562 
L 155.750094 10.61292 
L 154.136908 10.572087 
L 153.058868 11.59175 
L 151.963621 11.597399 
L 146.677943 5.978957 
L 145.347818 6.172465 
L 140.181307 4.15964 
L 137.732692 5.327633 
L 134.379838 5.080482 
L 131.280792 5.895559 
L 128.560314 7.583264 
L 128.252297 11.590448 
L 126.923029 13.656907 
L 124.529482 15.610222 
L 124.216312 20.757821 
L 124.741134 21.984013 
L 124.153503 22.521317 
L 117.892601 16.608385 
L 113.944374 17.978351 
L 114.671384 19.99595 
L 114.112147 20.833831 
L 111.295304 17.090088 
L 112.903328 16.399024 
L 111.771944 14.033064 
L 110.628514 13.876699 
L 109.563377 14.869642 
L 107.233505 14.650724 
L 102.402531 11.286829 
L 102.402531 8.462188 
L 104.776291 8.650048 
L 102.66667 7.644724 
L 101.681549 6.39008 
L 99.162392 5.768511 
L 97.288073 2.825069 
L 97.451543 1.03855 
z
" clip-path="url(#pb042b3d18f)" style="fill: #eeeeee; stroke: #000000; stroke-width: 0.3"/>
    <path d="M 48.241925 33.198522 
L 49.000768 29.675 
L 48.394639 27.75861 
L 49.824143 27.347705 
L 50.77485 24.820816 
L 50.201845 21.990527 
L 49.159509 21.405446 
L 51.848587 20.138421 
L 54.579396 19.908643 
L 56.251094 18.707642 
L 56.852919 17.26861 
L 57.535834 17.379804 
L 57.157057 16.305203 
L 57.693068 15.476005 
L 56.877227 13.957054 
L 58.771974 13.904496 
L 59.152898 13.078559 
L 58.194232 10.142077 
L 58.962116 10.082785 
L 61.102063 7.356748 
L 61.599573 7.767434 
L 61.153043 8.307992 
L 65.499618 10.1399 
L 65.507368 9.324823 
L 67.171533 9.097878 
L 66.852552 5.693796 
L 68.679329 6.45871 
L 70.113344 6.081469 
L 70.346074 3.148886 
L 72.592926 1.284836 
L 73.722587 0.792273 
L 76.301547 1.841028 
L 77.266873 1.630145 
L 77.590374 -0.802914 
L 80.088886 -1.016621 
L 85.236467 -3.540248 
L 88.223665 -5.91142 
L 90.31995 -5.923582 
L 90.67098 -5.27378 
L 92.244599 -5.803478 
L 96.03366 -4.503655 
L 95.537225 -1.016621 
L 97.451543 1.03855 
L 97.288073 2.825069 
L 99.162392 5.768511 
L 101.681549 6.39008 
L 102.66667 7.644724 
L 104.776291 8.650048 
L 102.402531 8.462188 
L 102.402531 11.286829 
L 107.233505 14.650724 
L 109.563377 14.869642 
L 110.628514 13.876699 
L 111.771944 14.033064 
L 112.903328 16.399024 
L 111.295304 17.090088 
L 114.112147 20.833831 
L 113.256939 22.777589 
L 110.953739 24.781285 
L 107.547541 25.102497 
L 106.199343 24.387326 
L 105.289934 25.94168 
L 103.841067 25.969477 
L 103.858274 26.974801 
L 103.058133 27.175479 
L 103.517574 28.098926 
L 102.384467 27.696057 
L 102.233901 28.586933 
L 98.274485 28.930721 
L 98.265886 28.342606 
L 91.703643 27 
L 88.930887 29.143125 
L 87.324153 28.32045 
L 70.59537 28.386255 
L 69.803179 31.443279 
L 71.176334 33.234572 
L 70.562455 33.889586 
L 71.281298 34.582827 
L 71.456381 38.264454 
L 70.945319 39.128399 
L 71.828489 41.072376 
L 71.208592 41.88636 
L 67.453519 37.484133 
L 66.729515 38.110257 
L 66.600892 37.604229 
L 62.955945 37.313865 
L 59.665892 38.302244 
L 57.826861 40.280322 
L 56.740213 39.674605 
L 56.671593 38.917736 
L 55.247043 39.447215 
L 54.286654 38.838465 
L 54.26988 38.098532 
L 52.874574 37.606835 
L 52.897375 36.436017 
L 52.008618 35.848986 
L 51.59994 34.30766 
L 49.24124 34.248588 
z
" clip-path="url(#pb042b3d18f)" style="fill: #eeeeee; stroke: #000000; stroke-width: 0.3"/>
    <path d="M 92.83223 27.234989 
L 98.265886 28.342606 
L 98.274485 28.930721 
L 101.719401 28.43056 
L 100.547584 33.562735 
L 105.401783 37.090602 
L 105.256377 40.793083 
L 107.499358 44.534656 
L 107.902009 49.437701 
L 107.748005 62.018057 
L 106.967651 62.058882 
L 107.251569 64.696318 
L 109.052323 68.065854 
L 107.697824 68.598527 
L 104.082921 69.551721 
L 102.402531 67.667985 
L 100.422824 66.690458 
L 98.537758 63.401051 
L 98.332133 62.216987 
L 99.193359 61.728769 
L 99.589992 59.271166 
L 98.34074 57.752207 
L 99.312093 56.112067 
L 98.992038 51.871416 
L 100.148371 51.081102 
L 97.26076 47.077608 
L 98.424194 46.303801 
L 97.805154 44.948377 
L 98.638427 41.808829 
L 97.641901 41.04284 
L 96.103137 41.546262 
L 96.728404 40.914918 
L 96.131308 40.340916 
L 97.35949 40.226023 
L 96.387488 39.656576 
L 97.104383 39.606194 
L 97.516508 34.394311 
L 93.48138 31.45023 
L 94.349916 27.843521 
z
" clip-path="url(#pb042b3d18f)" style="fill: #eeeeee; stroke: #000000; stroke-width: 0.3"/>
    <path d="M 67.056029 65.209079 
L 67.229388 63.580447 
L 69.467641 60.184191 
L 69.728117 57.139766 
L 70.984253 54.062326 
L 72.483233 53.249426 
L 72.482367 52.200007 
L 73.350912 51.826683 
L 72.409236 45.822308 
L 71.115673 44.718171 
L 72.073265 42.886473 
L 70.945319 39.128399 
L 71.456381 38.264454 
L 71.281298 34.582827 
L 70.562455 33.889586 
L 71.176334 33.234572 
L 69.803179 31.443279 
L 70.59537 28.386255 
L 87.324153 28.32045 
L 88.930887 29.143125 
L 91.703643 27 
L 94.349916 27.843521 
L 93.48138 31.45023 
L 97.516508 34.394311 
L 97.104383 39.606194 
L 96.387488 39.656576 
L 97.35949 40.226023 
L 96.131308 40.340916 
L 96.728404 40.914918 
L 96.103137 41.546262 
L 97.641901 41.04284 
L 98.638427 41.808829 
L 97.805154 44.948377 
L 98.424194 46.303801 
L 97.26076 47.077608 
L 100.148371 51.081102 
L 98.992038 51.871416 
L 99.312093 56.112067 
L 98.34074 57.752207 
L 99.589992 59.271166 
L 99.193359 61.728769 
L 98.332133 62.216987 
L 98.511086 63.320696 
L 100.422824 66.690458 
L 102.402531 67.667985 
L 104.082921 69.551721 
L 102.163691 72.152409 
L 96.240692 72.445857 
L 87.559106 76.996027 
L 80.741873 78.613077 
L 77.72042 80.882695 
L 76.761821 81 
L 74.597358 79.477351 
L 68.245536 78.034048 
L 71.184076 77.448236 
L 70.993068 75.886283 
L 71.487781 75.665189 
L 70.960811 73.690163 
L 69.69198 73.68886 
L 69.534321 72.835774 
L 68.993573 72.882255 
z
" clip-path="url(#pb042b3d18f)" style="fill: #eeeeee; stroke: #000000; stroke-width: 0.3"/>
    <path d="M 172.022199 110.895901 
L 173.009934 108.938888 
L 174.253742 107.48054 
L 174.623627 107.671384 
L 174.845835 107.641965 
L 175.333605 107.379642 
L 174.191416 107.006502 
L 175.876925 104.564516 
L 175.792239 101.145389 
L 175.992844 101.924827 
L 177.385778 102.625885 
L 188.466456 102.624582 
L 188.585189 112.430242 
L 177.705833 112.393755 
L 176.995173 113.054854 
L 175.111397 111.302898 
L 174.000375 112.062171 
L 173.504472 111.302898 
L 172.436804 111.486219 
z
" clip-path="url(#pb042b3d18f)" style="fill: #eeeeee; stroke: #000000; stroke-width: 0.3"/>
    <path d="M 164.492283 92.071038 
L 165.636504 91.71808 
L 166.365453 89.507972 
L 168.492656 89.302427 
L 168.729765 90.338734 
L 166.523978 93.953832 
L 164.559354 93.318369 
z
" clip-path="url(#pb042b3d18f)" style="fill: #eeeeee; stroke: #000000; stroke-width: 0.3"/>
    <path d="M 140.987974 132.873803 
L 141.107881 132.728786 
L 141.073334 133.232233 
z
" clip-path="url(#pb042b3d18f)" style="fill: #eeeeee; stroke: #000000; stroke-width: 0.3"/>
    <path d="M 155.255181 107.671384 
L 155.694178 106.603952 
L 156.339107 106.753408 
L 155.828311 107.958335 
z
" clip-path="url(#pb042b3d18f)" style="fill: #eeeeee; stroke: #000000; stroke-width: 0.3"/>
    <path d="M 148.082282 118.576878 
L 149.834862 117.406506 
L 150.460154 118.726687 
L 148.546343 120.625896 
z
" clip-path="url(#pb042b3d18f)" style="fill: #eeeeee; stroke: #000000; stroke-width: 0.3"/>
   </g>
   <g id="PatchCollection_2">
    <defs>
     <path id="m4ebb0f68e6" d="M 67.056029 -42.790921 
L 67.229388 -44.419553 
L 69.467641 -47.815809 
L 69.728117 -50.860234 
L 70.984253 -53.937674 
L 72.483233 -54.750574 
L 72.482367 -55.799993 
L 73.350912 -56.173317 
L 72.409236 -62.177692 
L 71.115673 -63.281829 
L 72.073265 -65.113527 
L 70.945319 -68.871601 
L 71.456381 -69.735546 
L 71.281298 -73.417173 
L 70.562455 -74.110414 
L 71.176334 -74.765428 
L 69.803179 -76.556721 
L 70.59537 -79.613745 
L 87.324153 -79.67955 
L 88.930887 -78.856875 
L 91.703643 -81 
L 94.349916 -80.156479 
L 93.48138 -76.54977 
L 97.516508 -73.605689 
L 97.104383 -68.393806 
L 96.387488 -68.343424 
L 97.35949 -67.773977 
L 96.131308 -67.659084 
L 96.728404 -67.085082 
L 96.103137 -66.453738 
L 97.641901 -66.95716 
L 98.638427 -66.191171 
L 97.805154 -63.051623 
L 98.424194 -61.696199 
L 97.26076 -60.922392 
L 100.148371 -56.918898 
L 98.992038 -56.128584 
L 99.312093 -51.887933 
L 98.34074 -50.247793 
L 99.589992 -48.728834 
L 99.193359 -46.271231 
L 98.332133 -45.783013 
L 98.511086 -44.679304 
L 100.422824 -41.309542 
L 102.402531 -40.332015 
L 104.082921 -38.448279 
L 102.163691 -35.847591 
L 96.240692 -35.554143 
L 87.559106 -31.003973 
L 80.741873 -29.386923 
L 77.72042 -27.117305 
L 76.761821 -27 
L 74.597358 -28.522649 
L 68.245536 -29.965952 
L 71.184076 -30.551764 
L 70.993068 -32.113717 
L 71.487781 -32.334811 
L 70.960811 -34.309837 
L 69.69198 -34.31114 
L 69.534321 -35.164226 
L 68.993573 -35.117745 
z
" style="stroke: #dd0000; stroke-width: 0.5"/>
    </defs>
    <g clip-path="url(#pb042b3d18f)">
     <use xlink:href="#m4ebb0f68e6" x="0" y="108" style="fill: #ff6b6b; stroke: #dd0000; stroke-width: 0.5"/>
    </g>
   </g>
  </g>
 </g>
 <defs>
  <clipPath id="pb042b3d18f">
   <rect x="0" y="0" width="171.13895" height="108"/>
  </clipPath>
 </defs>
</svg>
