<?xml version="1.0" encoding="utf-8" standalone="no"?>
<!DOCTYPE svg PUBLIC "-//W3C//DTD SVG 1.1//EN"
  "http://www.w3.org/Graphics/SVG/1.1/DTD/svg11.dtd">
<svg xmlns:xlink="http://www.w3.org/1999/xlink" width="168.853336pt" height="108pt" viewBox="0 0 168.853336 108" xmlns="http://www.w3.org/2000/svg" version="1.1">
 <metadata>
  <rdf:RDF xmlns:dc="http://purl.org/dc/elements/1.1/" xmlns:cc="http://creativecommons.org/ns#" xmlns:rdf="http://www.w3.org/1999/02/22-rdf-syntax-ns#">
   <cc:Work>
    <dc:type rdf:resource="http://purl.org/dc/dcmitype/StillImage"/>
    <dc:date>2025-09-05T15:49:28.371989</dc:date>
    <dc:format>image/svg+xml</dc:format>
    <dc:creator>
     <cc:Agent>
      <dc:title>Matplotlib v3.10.3, https://matplotlib.org/</dc:title>
     </cc:Agent>
    </dc:creator>
   </cc:Work>
  </rdf:RDF>
 </metadata>
 <defs>
  <style type="text/css">*{stroke-linejoin: round; stroke-linecap: butt}</style>
 </defs>
 <g id="figure_1">
  <g id="patch_1">
   <path d="M 0 108 
L 168.853336 108 
L 168.853336 0 
L 0 0 
z
" style="fill: #ffffff"/>
  </g>
  <g id="axes_1">
   <g id="PatchCollection_1">
    <path d="M 1130.33391 -625.381176 
L 1130.404296 -628.673061 
L 1134.101684 -630.733557 
L 1144.952052 -632.676806 
L 1147.202077 -630.733557 
L 1147.967328 -632.68447 
L 1152.113974 -631.735067 
L 1153.39287 -634.731934 
L 1158.647701 -635.3028 
L 1158.816922 -633.831569 
L 1161.192005 -635.284402 
L 1160.566036 -633.1879 
L 1162.724734 -634.345733 
L 1168.720102 -628.462334 
L 1175.460479 -632.031611 
L 1175.198402 -630.733557 
L 1177.344366 -629.833964 
L 1180.313215 -631.118986 
L 1181.639293 -628.548169 
L 1180.748248 -630.990252 
L 1182.277241 -632.031611 
L 1184.152149 -632.287534 
L 1185.030441 -630.475317 
L 1193.117101 -630.990252 
L 1189.490835 -632.946533 
L 1188.58334 -634.871383 
L 1190.330944 -638.342566 
L 1188.755542 -638.254452 
L 1188.445566 -641.77392 
L 1189.586671 -641.954761 
L 1184.653814 -644.934755 
L 1183.398877 -647.706356 
L 1184.230006 -649.379878 
L 1182.468913 -651.344577 
L 1188.514444 -649.949972 
L 1194.837766 -650.805894 
L 1195.486939 -649.4611 
L 1194.042576 -648.218222 
L 1197.417254 -644.213706 
L 1200.774727 -645.095672 
L 1214.041342 -642.983088 
L 1225.648698 -646.221322 
L 1227.155223 -647.003687 
L 1222.806397 -646.447378 
L 1219.489353 -647.782983 
L 1222.420018 -651.442653 
L 1240.552121 -656.144472 
L 1246.069027 -660.582684 
L 1248.857429 -660.165843 
L 1246.446408 -661.773454 
L 1247.713307 -663.520551 
L 1246.697977 -664.162676 
L 1247.165214 -672.901177 
L 1264.48527 -677.020436 
L 1266.079773 -674.639857 
L 1265.680384 -672.460966 
L 1269.360493 -670.162361 
L 1275.66326 -671.211422 
L 1278.272614 -666.46339 
L 1284.478405 -665.513591 
L 1286.108295 -662.15619 
L 1291.747315 -663.019382 
L 1295.322829 -661.407835 
L 1294.001039 -658.95353 
L 1295.551046 -657.672857 
L 1294.109443 -656.069088 
L 1303.571203 -656.24814 
L 1306.694074 -659.578292 
L 1307.730583 -659.172487 
L 1306.112103 -655.754748 
L 1307.51567 -654.90811 
L 1307.310271 -652.664005 
L 1314.858757 -650.727422 
L 1318.481821 -647.104362 
L 1323.822238 -648.055121 
L 1327.766705 -646.019276 
L 1335.900989 -646.473743 
L 1341.624638 -640.700001 
L 1345.316156 -641.600178 
L 1347.674456 -639.734628 
L 1351.940345 -639.685967 
L 1354.445104 -640.889768 
L 1358.575944 -638.419889 
L 1368.979133 -636.928037 
L 1361.801514 -630.458481 
L 1360.706027 -625.305133 
L 1357.668761 -621.319561 
L 1358.321099 -618.338776 
L 1356.310829 -613.36497 
L 1357.675422 -611.054257 
L 1353.857429 -608.154674 
L 1346.400216 -609.255315 
L 1344.437496 -606.714403 
L 1347.564157 -606.2502 
L 1340.734569 -600.4458 
L 1336.635104 -598.993363 
L 1336.38786 -595.540598 
L 1330.668958 -592.200729 
L 1329.487903 -589.111436 
L 1330.975161 -588.188397 
L 1330.220123 -585.978358 
L 1327.658301 -584.97794 
L 1327.732478 -583.670018 
L 1331.072156 -584.041757 
L 1333.664397 -585.734092 
L 1332.430088 -587.153931 
L 1333.441866 -588.275494 
L 1337.376819 -589.660777 
L 1342.973056 -589.012663 
L 1342.297899 -587.719806 
L 1343.720494 -586.287821 
L 1342.579371 -584.068046 
L 1347.297904 -579.80561 
L 1343.226005 -577.944938 
L 1343.13661 -575.905195 
L 1349.848299 -570.119758 
L 1347.912206 -566.405213 
L 1339.58108 -564.329483 
L 1342.206609 -560.645106 
L 1347.022118 -559.030621 
L 1347.906483 -556.446904 
L 1346.152971 -556.414777 
L 1343.86883 -553.606246 
L 1345.378924 -551.766007 
L 1344.427982 -550.557347 
L 1346.575179 -548.102063 
L 1352.98256 -545.908558 
L 1358.956324 -546.865174 
L 1359.58774 -544.817653 
L 1355.685118 -541.01699 
L 1355.65827 -539.117243 
L 1349.681635 -537.04831 
L 1349.447824 -535.150992 
L 1346.193878 -534.888986 
L 1344.94148 -532.770808 
L 1341.944183 -532.398297 
L 1339.363278 -529.781643 
L 1341.249115 -529.858383 
L 1340.99935 -528.513419 
L 1335.397336 -526.428517 
L 1332.045052 -526.766208 
L 1331.803512 -525.394296 
L 1327.402886 -527.241635 
L 1325.851185 -525.56203 
L 1322.489461 -528.105447 
L 1316.473244 -528.783579 
L 1315.501508 -531.411984 
L 1310.7143 -531.035424 
L 1310.569148 -532.426206 
L 1314.253067 -533.762564 
L 1310.624556 -535.236865 
L 1311.028877 -532.801674 
L 1307.662442 -532.654541 
L 1307.434317 -531.154121 
L 1305.631783 -532.671395 
L 1305.348747 -534.594739 
L 1304.46821 -535.623066 
L 1305.350256 -532.675237 
L 1306.781077 -531.240314 
L 1290.821215 -534.885916 
L 1275.383169 -526.719807 
L 1274.054864 -517.732275 
L 1276.615086 -514.011666 
L 1272.064947 -514.741227 
L 1267.068751 -512.270387 
L 1259.988109 -513.957844 
L 1254.803628 -512.452358 
L 1249.586816 -515.183528 
L 1249.767501 -517.370705 
L 1244.381412 -517.098228 
L 1242.78575 -519.231377 
L 1233.038709 -521.547005 
L 1230.157378 -521.674986 
L 1229.923456 -518.77595 
L 1217.363557 -518.788605 
L 1212.140083 -521.751857 
L 1207.608898 -520.436157 
L 1204.100899 -523.710341 
L 1196.919471 -524.825577 
L 1194.414712 -526.773854 
L 1191.26619 -525.566644 
L 1192.253254 -529.300172 
L 1188.23461 -529.369265 
L 1185.022363 -531.768092 
L 1187.514848 -532.244592 
L 1190.903015 -535.641446 
L 1194.944845 -554.02111 
L 1196.246192 -556.081606 
L 1198.854883 -556.155935 
L 1196.509004 -558.205696 
L 1194.887193 -555.365133 
L 1198.109119 -573.097304 
L 1203.980939 -568.52194 
L 1204.904922 -564.914359 
L 1208.241418 -560.403343 
L 1207.109275 -562.845427 
L 1208.993916 -562.343523 
L 1206.008598 -564.247696 
L 1203.441826 -571.366308 
L 1195.127537 -575.750115 
L 1196.664001 -577.573067 
L 1199.914395 -575.890355 
L 1196.886385 -578.730128 
L 1198.78227 -581.943843 
L 1195.799179 -584.500122 
L 1197.640393 -586.913092 
L 1195.260066 -586.565966 
L 1185.041666 -590.52604 
L 1182.934659 -594.240886 
L 1179.091235 -596.654628 
L 1181.447603 -600.711234 
L 1176.839701 -602.728058 
L 1178.236901 -603.206197 
L 1178.322248 -605.151762 
L 1186.299603 -604.013853 
L 1181.090445 -606.065912 
L 1176.153835 -604.685092 
L 1171.303325 -605.696565 
L 1173.250128 -605.826843 
L 1171.038268 -607.262049 
L 1174.066278 -608.022946 
L 1172.172656 -609.294956 
L 1174.579923 -609.576943 
L 1169.647066 -609.834411 
L 1170.247567 -610.009113 
L 1170.662396 -610.476536 
L 1166.240185 -609.445911 
L 1164.544988 -610.560827 
L 1167.632895 -610.427498 
L 1168.604778 -611.426711 
L 1168.690144 -611.776888 
L 1168.275334 -612.148532 
L 1164.357788 -611.259655 
L 1163.340968 -612.545449 
L 1163.980407 -610.60527 
L 1160.606483 -611.320971 
L 1160.451486 -609.05052 
L 1159.183814 -612.089532 
L 1160.703073 -613.832016 
L 1159.320097 -614.100971 
L 1158.749535 -612.406 
L 1156.282353 -613.176859 
L 1157.674309 -613.060385 
L 1156.282353 -613.434327 
L 1157.674309 -614.871849 
L 1154.659787 -613.313258 
L 1142.040837 -617.443439 
L 1141.0652 -615.362247 
L 1137.63136 -615.245773 
L 1136.475276 -618.418114 
L 1131.074429 -619.641086 
L 1139.221741 -621.049476 
L 1137.494341 -623.25249 
L 1134.214744 -622.213429 
L 1132.947846 -624.282361 
L 1134.413169 -625.408011 
L 1134.98673 -624.447874 
L 1139.516756 -624.307652 
L 1141.023281 -624.667791 
L 1136.124099 -625.192688 
L 1139.138639 -627.004134 
z
M 1253.917368 -514.383593 
L 1254.873996 -514.245405 
L 1254.084731 -514.958734 
z
" clip-path="url(#p3e9cbd1ff8)" style="fill: #eeeeee; stroke: #000000; stroke-width: 0.3"/>
    <path d="M 213.068491 241.240073 
L 217.478907 238.273883 
L 221.258864 231.319692 
L 220.504782 226.153199 
L 224.335123 219.976571 
L 224.486329 216.808937 
L 219.955143 212.04921 
L 216.909302 206.11393 
L 215.43441 192.716452 
L 218.661875 186.636657 
L 223.266428 182.66873 
L 225.604965 176.863746 
L 244.696751 183.249539 
L 254.036177 192.849348 
L 256.057838 192.184229 
L 254.928712 196.075341 
L 256.926414 193.234777 
L 260.742861 196.659992 
L 262.100388 201.171008 
L 260.342276 203.439142 
L 262.362446 202.340328 
L 262.86562 197.372623 
L 264.846852 198.182558 
L 267.652478 206.852097 
L 254.655577 225.697753 
L 253.662808 230.48569 
L 248.485945 240.360329 
L 243.143596 244.121596 
L 237.851668 243.698258 
L 238.483084 242.657954 
L 236.460448 240.800201 
L 233.006679 242.731925 
L 228.718929 240.441098 
L 222.338599 245.23235 
z
" clip-path="url(#p3e9cbd1ff8)" style="fill: #eeeeee; stroke: #000000; stroke-width: 0.3"/>
    <path d="M 1375.397223 -512.987557 
L 1377.429373 -513.981403 
L 1378.342867 -516.792834 
L 1385.863456 -519.670929 
L 1389.071177 -518.592792 
L 1390.074508 -524.788064 
L 1392.23396 -524.530596 
L 1391.8446 -517.949123 
L 1393.412512 -516.498588 
L 1393.992054 -508.645895 
L 1391.113797 -504.999991 
L 1391.085348 -500.357963 
L 1389.071177 -498.850707 
L 1390.146404 -497.999398 
L 1387.572142 -495.495227 
L 1387.80126 -494.069211 
L 1379.862862 -497.623159 
L 1382.272374 -500.135748 
L 1377.348498 -501.176335 
L 1380.11445 -504.133354 
L 1376.596735 -504.017652 
L 1376.081599 -505.301902 
L 1379.001775 -506.951677 
L 1375.704218 -509.81369 
L 1377.949017 -511.025909 
z
" clip-path="url(#p3e9cbd1ff8)" style="fill: #eeeeee; stroke: #000000; stroke-width: 0.3"/>
    <path d="M 91.540681 5.46202 
L 97.800352 6.765441 
L 96.729634 8.853506 
L 99.068024 12.703226 
L 97.960594 13.717768 
L 97.998777 12.439638 
L 94.299144 12.61434 
L 93.631238 11.674899 
L 95.652898 10.763046 
L 92.642867 8.843544 
z
" clip-path="url(#p3e9cbd1ff8)" style="fill: #eeeeee; stroke: #000000; stroke-width: 0.3"/>
    <path d="M 2234.319106 681.074329 
L 2235.460229 678.852144 
L 2240.813894 678.156386 
L 2245.895013 683.471198 
L 2245.113293 686.965374 
L 2240.752488 687.443531 
L 2236.604333 685.625947 
z
" clip-path="url(#p3e9cbd1ff8)" style="fill: #eeeeee; stroke: #000000; stroke-width: 0.3"/>
    <path d="M 2046.936151 524.181323 
L 2047.825687 523.217363 
L 2049.847347 524.642607 
L 2049.58378 529.27392 
L 2047.9425 529.528319 
L 2047.304552 527.949822 
L 2048.665795 528.050967 
z
" clip-path="url(#p3e9cbd1ff8)" style="fill: #eeeeee; stroke: #000000; stroke-width: 0.3"/>
    <path d="M 85.565537 -21.634677 
L 87.068308 -25.922706 
L 88.849624 -22.829288 
L 92.569481 -21.024735 
L 87.075043 -20.070737 
z
" clip-path="url(#p3e9cbd1ff8)" style="fill: #eeeeee; stroke: #000000; stroke-width: 0.3"/>
    <path d="M 80.906717 -22.13965 
L 82.001413 -23.139636 
L 85.427764 -21.637746 
L 85.164197 -16.891503 
L 82.791359 -15.303025 
z
" clip-path="url(#p3e9cbd1ff8)" style="fill: #eeeeee; stroke: #000000; stroke-width: 0.3"/>
    <path d="M 1189.450407 -585.95448 
L 1194.008882 -585.110064 
L 1194.500077 -584.154522 
L 1190.399086 -585.123849 
z
" clip-path="url(#p3e9cbd1ff8)" style="fill: #eeeeee; stroke: #000000; stroke-width: 0.3"/>
    <path d="M 89.469594 -14.978893 
L 90.642166 -16.434795 
L 92.009408 -14.981191 
L 90.520862 -13.88313 
z
" clip-path="url(#p3e9cbd1ff8)" style="fill: #eeeeee; stroke: #000000; stroke-width: 0.3"/>
    <path d="M 2051.228078 526.18587 
L 2051.353872 525.028809 
L 2051.353872 526.18587 
z
" clip-path="url(#p3e9cbd1ff8)" style="fill: #eeeeee; stroke: #000000; stroke-width: 0.3"/>
    <path d="M 1392.096187 -518.077856 
L 1392.566405 -517.563693 
L 1392.46906 -517.544541 
z
" clip-path="url(#p3e9cbd1ff8)" style="fill: #eeeeee; stroke: #000000; stroke-width: 0.3"/>
    <path d="M 1331.548042 -524.711437 
L 1331.712773 -524.886912 
L 1333.130951 -524.767386 
z
" clip-path="url(#p3e9cbd1ff8)" style="fill: #eeeeee; stroke: #000000; stroke-width: 0.3"/>
    <path d="M 1192.22683 -582.214342 
L 1195.121556 -581.24654 
L 1195.828382 -577.713288 
z
" clip-path="url(#p3e9cbd1ff8)" style="fill: #eeeeee; stroke: #000000; stroke-width: 0.3"/>
    <path d="M 1175.836351 -600.66986 
L 1177.595953 -600.503576 
L 1178.653202 -598.347302 
z
" clip-path="url(#p3e9cbd1ff8)" style="fill: #eeeeee; stroke: #000000; stroke-width: 0.3"/>
    <path d="M 1174.230255 -594.821714 
L 1175.789187 -594.774974 
L 1176.327546 -594.346627 
z
" clip-path="url(#p3e9cbd1ff8)" style="fill: #eeeeee; stroke: #000000; stroke-width: 0.3"/>
    <path d="M 1158.052444 -607.262049 
L 1161.642017 -605.731046 
L 1158.763024 -605.923393 
z
" clip-path="url(#p3e9cbd1ff8)" style="fill: #eeeeee; stroke: #000000; stroke-width: 0.3"/>
    <path d="M 1123.627962 -627.507563 
L 1124.382724 -627.930544 
L 1124.45311 -627.29838 
z
" clip-path="url(#p3e9cbd1ff8)" style="fill: #eeeeee; stroke: #000000; stroke-width: 0.3"/>
    <path d="M 93.893296 -22.011689 
L 94.859217 -22.747295 
L 94.317104 -21.951917 
z
" clip-path="url(#p3e9cbd1ff8)" style="fill: #eeeeee; stroke: #000000; stroke-width: 0.3"/>
    <path d="M 84.617594 -13.677769 
L 84.907383 -14.015705 
L 84.866201 -13.657845 
z
" clip-path="url(#p3e9cbd1ff8)" style="fill: #eeeeee; stroke: #000000; stroke-width: 0.3"/>
    <path d="M 83.832893 -13.496175 
L 84.242477 -13.624909 
L 84.031318 -13.378928 
z
" clip-path="url(#p3e9cbd1ff8)" style="fill: #eeeeee; stroke: #000000; stroke-width: 0.3"/>
    <path d="M -132.432556 111.899097 
L -124.974386 100.267417 
L -123.674475 88.577848 
L -116.02708 75.623651 
L -111.753591 74.981356 
L -106.306648 65.433222 
L -95.018137 61.876336 
L -95.395996 63.615486 
L -106.112326 66.764081 
L -104.205971 73.812205 
L -99.964961 77.61671 
L -102.581896 77.610571 
L -99.041731 83.150686 
L -100.021877 88.18046 
L -106.269568 94.739693 
L -109.127602 100.005467 
L -106.819152 103.232213 
L -105.860739 105.370879 
L -106.615501 104.073578 
L -106.751029 106.914123 
L -105.347094 106.142492 
L -103.975343 107.288065 
L -105.012386 107.378495 
L -105.095506 108.317164 
L -101.953682 108.317164 
L -103.462452 111.168443 
L -102.140882 111.087222 
L -101.475975 114.117026 
L -98.699553 114.779094 
L -92.87267 112.62894 
L -89.585583 109.41063 
L -89.092898 101.549501 
L -97.073988 89.163572 
L -99.167525 81.490949 
L -96.64269 81.736157 
L -96.02721 79.422035 
L -97.658774 78.651176 
L -74.287537 71.277432 
L -72.877952 69.047996 
L -70.707717 69.595436 
L -73.009193 67.191731 
L -66.261547 69.674359 
L -65.318113 68.419223 
L -66.650153 64.835389 
L -73.932643 66.428461 
L -73.863011 63.316645 
L -75.592656 61.738148 
L -73.822583 56.957405 
L -70.361784 55.320662 
L -67.005084 58.780357 
L -65.3825 65.991677 
L -63.109252 69.08969 
L -56.609974 67.803895 
L -49.116325 69.370151 
L -40.653792 74.127129 
L -38.355831 79.301738 
L -40.162597 79.422035 
L -37.627273 80.064933 
L -39.340448 81.107817 
L -38.515318 84.340702 
L -35.616101 87.545227 
L -30.755121 88.214169 
L -15.057999 85.219599 
L -1.505349 84.44874 
L 2.714683 85.874003 
L 1.321991 87.182019 
L 4.987931 91.415624 
L 20.427468 95.835456 
L 26.083638 95.027819 
L 27.179843 92.443951 
L 31.755542 92.048559 
L 33.442513 91.06622 
L 31.847642 90.462398 
L 36.904802 87.736012 
L 46.722598 87.417246 
L 39.788285 85.61806 
L 36.070674 87.031064 
L 35.392297 84.062538 
L 41.936494 84.846429 
L 43.831625 83.291679 
L 48.593769 84.882454 
L 55.802137 82.894743 
L 74.340052 83.80507 
L 80.015691 82.776743 
L 77.868237 84.44874 
L 72.528041 84.821138 
L 71.014046 86.745235 
L 64.989474 86.051774 
L 60.186901 86.733748 
L 58.577051 88.188878 
L 61.40739 86.719944 
L 61.883607 89.069319 
L 58.864577 89.049395 
L 58.702845 91.544358 
L 60.034149 91.351257 
L 59.834233 89.099977 
L 63.110077 89.285413 
L 65.647646 94.266903 
L 65.095044 95.182597 
L 62.871223 95.101376 
L 62.037849 95.938127 
L 60.588241 94.781838 
L 58.451257 94.781838 
L 62.43619 96.805556 
L 62.732696 95.416299 
L 63.989124 95.818602 
L 65.79589 95.004825 
L 66.505733 92.503723 
L 71.312796 102.262133 
L 72.444185 97.213207 
L 73.092604 97.890585 
L 73.208663 103.548681 
L 74.338561 101.887419 
L 73.586044 97.995553 
L 76.674706 99.095158 
L 73.103093 97.637712 
L 73.562196 96.35962 
L 80.279258 100.648364 
L 80.015691 103.301947 
L 81.224201 101.264445 
L 81.901087 104.331046 
L 82.127207 102.492012 
L 80.339597 99.98511 
L 84.676001 100.836117 
L 83.862354 98.636511 
L 87.808956 101.69686 
L 86.321495 99.751426 
L 87.497913 100.149831 
L 91.787779 104.688887 
L 94.60014 104.61533 
L 98.113346 106.97237 
L 99.528507 109.657364 
L 94.00711 113.632748 
L 93.517424 114.780619 
L 96.331275 112.124739 
L 93.745052 116.308553 
L 91.724882 122.924488 
L 83.451776 122.783495 
L 84.561451 123.93291 
L 90.352395 126.913676 
L 92.248262 125.10223 
L 95.089826 124.960465 
L 94.144147 125.609502 
L 94.256452 126.798746 
L 96.028789 123.546708 
L 101.238682 123.006482 
L 105.168208 124.36815 
L 107.13746 122.427951 
L 113.59482 123.885398 
L 117.122343 129.777949 
L 107.084776 137.715516 
L 104.306164 137.908203 
L 100.537138 143.330638 
L 102.907344 147.008198 
L 102.417142 149.626 
L 103.896782 150.86191 
L 107.135178 149.981186 
L 108.394698 152.205838 
L 107.037226 154.382789 
L 101.093438 157.61172 
L 97.280193 156.704745 
L 96.797131 158.277366 
L 93.190242 158.576622 
L 91.678731 161.484415 
L 93.342387 168.542237 
L 88.279155 173.082028 
L 101.756707 187.682799 
L 102.707649 192.761215 
L 97.496541 196.377967 
L 95.997396 199.646313 
L 89.772117 199.913442 
L 90.186725 201.283169 
L 86.344019 202.153178 
L 85.140606 205.040538 
L 74.351332 208.020344 
L 69.299987 206.2711 
L 66.855144 209.009068 
L 63.480281 209.08012 
L 63.384243 216.116531 
L 60.81103 217.991327 
L 52.303984 210.498001 
L 49.378931 212.459893 
L 46.417719 210.733021 
L 39.681317 211.933414 
L 37.674856 207.638869 
L 29.523477 207.482189 
L 25.807227 204.364667 
L 25.413063 205.755317 
L 28.544012 210.229893 
L 36.639285 217.35293 
L 36.272227 226.217434 
L 40.419241 233.920941 
L 39.491614 238.508414 
L 51.694447 239.46405 
L 51.918856 242.359207 
L 51.199001 244.571185 
L 39.700344 248.753813 
L 38.663816 254.491077 
L 33.879681 259.326696 
L 32.847919 256.658782 
L 26.925053 261.553759 
L 24.930002 261.115845 
L 19.455952 263.826093 
L 18.236383 267.650597 
L 15.951781 267.905579 
L 11.98687 272.820028 
L 11.164776 271.128672 
L 12.431417 268.353229 
L 11.004553 266.524665 
L 8.255402 266.702738 
L 1.098227 271.279514 
L -1.674699 271.00216 
L -12.531489 262.025758 
L -18.828552 242.373802 
L -18.321697 239.957442 
L -25.422305 234.36957 
L -26.360881 232.066107 
L -30.581115 232.511817 
L -30.262546 230.696869 
L -20.525018 221.322439 
L -24.028251 215.032914 
L -26.455981 214.205239 
L -30.932955 199.690116 
L -29.424774 189.696271 
L -30.188387 184.49912 
L -26.184961 180.689682 
L -26.334254 176.115354 
L -22.604699 172.466983 
L -23.869445 169.90125 
L -23.110597 168.329608 
L -30.052399 166.155086 
L -32.827221 167.954931 
L -44.923067 169.498363 
L -52.758747 167.954931 
L -56.162593 170.538178 
L -57.732106 169.112501 
L -59.797544 169.755285 
L -72.413071 153.742453 
L -75.90679 154.387648 
L -82.97744 151.343607 
L -91.82396 153.930262 
L -99.853631 152.243784 
L -106.725064 152.983383 
L -108.646896 151.591772 
L -110.633391 146.034068 
L -115.647657 144.102344 
L -115.877788 135.570673 
L -113.01738 132.437106 
L -114.080517 127.70122 
L -119.26785 122.124553 
L -121.395081 113.41624 
L -124.418104 113.603578 
L -125.41943 109.999481 
L -129.146132 112.295656 
z
" clip-path="url(#p3e9cbd1ff8)" style="fill: #eeeeee; stroke: #000000; stroke-width: 0.3"/>
    <path d="M 32.856218 78.510936 
L 33.554818 76.721712 
L 36.324506 76.174593 
L 39.471556 78.073399 
L 40.80586 75.670391 
L 43.192922 75.348556 
L 44.281637 78.392164 
L 42.250224 80.064933 
L 39.275395 80.579868 
L 37.138411 78.510936 
z
" clip-path="url(#p3e9cbd1ff8)" style="fill: #eeeeee; stroke: #000000; stroke-width: 0.3"/>
    <path d="M 94.00711 117.620411 
L 94.303634 115.960674 
L 98.302037 113.75152 
L 97.867758 114.739999 
L 96.628535 115.075638 
z
" clip-path="url(#p3e9cbd1ff8)" style="fill: #eeeeee; stroke: #000000; stroke-width: 0.3"/>
    <path d="M 92.452612 123.182898 
L 93.252624 120.147896 
L 100.504254 117.592954 
L 101.356655 119.535167 
L 98.402583 122.384412 
z
" clip-path="url(#p3e9cbd1ff8)" style="fill: #eeeeee; stroke: #000000; stroke-width: 0.3"/>
    <path d="M 90.603982 124.703769 
L 91.390929 123.629455 
L 93.253857 124.330599 
L 95.276272 122.904583 
L 94.81428 124.628668 
z
" clip-path="url(#p3e9cbd1ff8)" style="fill: #eeeeee; stroke: #000000; stroke-width: 0.3"/>
    <path d="M 93.893296 118.906205 
L 97.046363 115.025828 
L 98.553624 115.551478 
L 98.063919 116.668691 
z
" clip-path="url(#p3e9cbd1ff8)" style="fill: #eeeeee; stroke: #000000; stroke-width: 0.3"/>
    <path d="M 28.435516 62.263027 
L 29.201503 60.966517 
L 30.128468 61.753458 
L 30.016899 62.520495 
z
" clip-path="url(#p3e9cbd1ff8)" style="fill: #eeeeee; stroke: #000000; stroke-width: 0.3"/>
    <path d="M -27.249386 59.261565 
L -26.773188 59.368849 
L -26.56352 59.442406 
L -27.083919 59.405628 
z
" clip-path="url(#p3e9cbd1ff8)" style="fill: #eeeeee; stroke: #000000; stroke-width: 0.3"/>
    <path d="M 99.109979 122.475313 
L 101.540433 120.026639 
L 102.614703 122.403093 
z
" clip-path="url(#p3e9cbd1ff8)" style="fill: #eeeeee; stroke: #000000; stroke-width: 0.3"/>
    <path d="M 98.42783 113.366091 
L 98.726581 112.027416 
L 100.575284 111.928568 
z
" clip-path="url(#p3e9cbd1ff8)" style="fill: #eeeeee; stroke: #000000; stroke-width: 0.3"/>
    <path d="M 96.291601 114.254968 
L 98.278078 111.907891 
L 97.608681 113.705552 
z
" clip-path="url(#p3e9cbd1ff8)" style="fill: #eeeeee; stroke: #000000; stroke-width: 0.3"/>
    <path d="M 85.640303 123.746024 
L 89.790114 123.63486 
L 90.727034 125.804768 
z
" clip-path="url(#p3e9cbd1ff8)" style="fill: #eeeeee; stroke: #000000; stroke-width: 0.3"/>
    <path d="M 71.693913 97.03696 
L 71.908071 96.270696 
L 72.847016 96.469164 
z
" clip-path="url(#p3e9cbd1ff8)" style="fill: #eeeeee; stroke: #000000; stroke-width: 0.3"/>
    <path d="M 70.74897 99.134988 
L 71.35547 98.883659 
L 71.183267 99.66448 
z
" clip-path="url(#p3e9cbd1ff8)" style="fill: #eeeeee; stroke: #000000; stroke-width: 0.3"/>
    <path d="M 69.151118 95.853083 
L 69.322584 95.803273 
L 69.652783 97.246916 
z
" clip-path="url(#p3e9cbd1ff8)" style="fill: #eeeeee; stroke: #000000; stroke-width: 0.3"/>
    <path d="M 62.803836 87.447904 
L 63.428296 88.062441 
L 65.035901 90.892271 
z
" clip-path="url(#p3e9cbd1ff8)" style="fill: #eeeeee; stroke: #000000; stroke-width: 0.3"/>
    <path d="M 46.932266 -10.621902 
L 47.098488 -10.621902 
L 47.082019 -10.498536 
z
" clip-path="url(#p3e9cbd1ff8)" style="fill: #eeeeee; stroke: #000000; stroke-width: 0.3"/>
    <path d="M 40.29146 82.122359 
L 42.147653 82.092473 
L 42.045818 82.878661 
z
" clip-path="url(#p3e9cbd1ff8)" style="fill: #eeeeee; stroke: #000000; stroke-width: 0.3"/>
    <path d="M 36.308773 81.543056 
L 36.630746 81.150734 
L 37.15788 81.679455 
z
" clip-path="url(#p3e9cbd1ff8)" style="fill: #eeeeee; stroke: #000000; stroke-width: 0.3"/>
    <path d="M 14.395425 79.315523 
L 18.201402 79.699427 
L 17.471353 80.064933 
z
" clip-path="url(#p3e9cbd1ff8)" style="fill: #eeeeee; stroke: #000000; stroke-width: 0.3"/>
    <path d="M -0.004823 62.499818 
L 0.266969 62.396356 
L 1.473234 63.210905 
z
" clip-path="url(#p3e9cbd1ff8)" style="fill: #eeeeee; stroke: #000000; stroke-width: 0.3"/>
    <path d="M -9.392848 63.151133 
L -7.747814 62.380274 
L -8.239746 63.558784 
z
" clip-path="url(#p3e9cbd1ff8)" style="fill: #eeeeee; stroke: #000000; stroke-width: 0.3"/>
    <path d="M -11.478896 61.494465 
L -11.422753 61.453864 
L -9.526867 61.554237 
z
" clip-path="url(#p3e9cbd1ff8)" style="fill: #eeeeee; stroke: #000000; stroke-width: 0.3"/>
    <path d="M -12.155046 63.748815 
L -9.825637 63.171057 
L -11.661606 63.845365 
z
" clip-path="url(#p3e9cbd1ff8)" style="fill: #eeeeee; stroke: #000000; stroke-width: 0.3"/>
    <path d="M -27.288324 58.194162 
L -27.245651 58.155086 
L -27.271855 58.230168 
z
" clip-path="url(#p3e9cbd1ff8)" style="fill: #eeeeee; stroke: #000000; stroke-width: 0.3"/>
    <path d="M -27.299568 58.542813 
L -27.292814 58.50144 
L -27.282344 58.559668 
z
" clip-path="url(#p3e9cbd1ff8)" style="fill: #eeeeee; stroke: #000000; stroke-width: 0.3"/>
    <path d="M -27.372199 58.581117 
L -27.326526 58.536674 
L -27.351221 58.594921 
z
" clip-path="url(#p3e9cbd1ff8)" style="fill: #eeeeee; stroke: #000000; stroke-width: 0.3"/>
    <path d="M -27.425361 57.871555 
L -27.369199 57.86696 
L -27.362464 57.902213 
z
" clip-path="url(#p3e9cbd1ff8)" style="fill: #eeeeee; stroke: #000000; stroke-width: 0.3"/>
    <path d="M -27.506218 57.767359 
L -27.474015 57.794929 
L -27.478524 57.831707 
z
" clip-path="url(#p3e9cbd1ff8)" style="fill: #eeeeee; stroke: #000000; stroke-width: 0.3"/>
    <path d="M 78.489716 95.666875 
L 87.075043 91.415624 
L 86.583111 84.846429 
L 83.294534 83.420413 
L 97.285217 80.965298 
L 95.537593 83.559862 
L 95.652898 94.126682 
z
" clip-path="url(#p3e9cbd1ff8)" style="fill: #eeeeee; stroke: #000000; stroke-width: 0.3"/>
    <path d="M 98.385138 74.810646 
L 101.443861 72.315683 
L 104.218774 71.287356 
L 104.172347 72.879657 
z
" clip-path="url(#p3e9cbd1ff8)" style="fill: #eeeeee; stroke: #000000; stroke-width: 0.3"/>
    <path d="M 81.032511 58.909091 
L 83.223412 54.621062 
L 84.300129 55.028713 
L 83.957196 58.236308 
z
" clip-path="url(#p3e9cbd1ff8)" style="fill: #eeeeee; stroke: #000000; stroke-width: 0.3"/>
    <path d="M 86.447583 50.77364 
L 87.70252 49.090909 
L 87.820825 49.398959 
z
" clip-path="url(#p3e9cbd1ff8)" style="fill: #eeeeee; stroke: #000000; stroke-width: 0.3"/>
    <path d="M 90.438496 36.169367 
L 92.135956 33.070582 
L 93.298794 34.429952 
L 92.499849 37.484275 
z
" clip-path="url(#p3e9cbd1ff8)" style="fill: #eeeeee; stroke: #000000; stroke-width: 0.3"/>
    <path d="M 92.126976 42.939327 
L 92.208588 42.429005 
L 92.359831 42.461189 
z
" clip-path="url(#p3e9cbd1ff8)" style="fill: #eeeeee; stroke: #000000; stroke-width: 0.3"/>
    <path d="M 90.478189 40.452028 
L 91.871635 39.271221 
L 91.118382 40.709496 
z
" clip-path="url(#p3e9cbd1ff8)" style="fill: #eeeeee; stroke: #000000; stroke-width: 0.3"/>
    <path d="M 89.081743 45.950751 
L 89.408206 45.372221 
L 89.536981 45.894821 
z
" clip-path="url(#p3e9cbd1ff8)" style="fill: #eeeeee; stroke: #000000; stroke-width: 0.3"/>
    <path d="M 87.189611 48.029645 
L 87.196346 47.634254 
L 87.728724 47.920835 
z
" clip-path="url(#p3e9cbd1ff8)" style="fill: #eeeeee; stroke: #000000; stroke-width: 0.3"/>
    <path d="M 120.511154 34.138757 
L 124.52678 37.214567 
L 123.018765 39.155518 
L 120.944697 38.465109 
z
" clip-path="url(#p3e9cbd1ff8)" style="fill: #eeeeee; stroke: #000000; stroke-width: 0.3"/>
    <path d="M 94.134412 23.666962 
L 96.803756 19.296187 
L 97.563008 24.544353 
L 96.406151 26.776481 
z
" clip-path="url(#p3e9cbd1ff8)" style="fill: #eeeeee; stroke: #000000; stroke-width: 0.3"/>
   </g>
   <g id="PatchCollection_2">
    <path d="M 81.032511 58.909091 
L 83.223412 54.621062 
L 84.300129 55.028713 
L 83.957196 58.236308 
z
" clip-path="url(#p3e9cbd1ff8)" style="fill: #ff6b6b; stroke: #dd0000; stroke-width: 0.5"/>
    <path d="M 86.447583 50.77364 
L 87.70252 49.090909 
L 87.820825 49.398959 
z
" clip-path="url(#p3e9cbd1ff8)" style="fill: #ff6b6b; stroke: #dd0000; stroke-width: 0.5"/>
   </g>
  </g>
 </g>
 <defs>
  <clipPath id="p3e9cbd1ff8">
   <rect x="0" y="0" width="168.853336" height="108"/>
  </clipPath>
 </defs>
</svg>
