<?xml version="1.0" encoding="utf-8" standalone="no"?>
<!DOCTYPE svg PUBLIC "-//W3C//DTD SVG 1.1//EN"
  "http://www.w3.org/Graphics/SVG/1.1/DTD/svg11.dtd">
<svg xmlns:xlink="http://www.w3.org/1999/xlink" width="166.293538pt" height="108pt" viewBox="0 0 166.293538 108" xmlns="http://www.w3.org/2000/svg" version="1.1">
 <metadata>
  <rdf:RDF xmlns:dc="http://purl.org/dc/elements/1.1/" xmlns:cc="http://creativecommons.org/ns#" xmlns:rdf="http://www.w3.org/1999/02/22-rdf-syntax-ns#">
   <cc:Work>
    <dc:type rdf:resource="http://purl.org/dc/dcmitype/StillImage"/>
    <dc:date>2025-09-05T15:49:28.388954</dc:date>
    <dc:format>image/svg+xml</dc:format>
    <dc:creator>
     <cc:Agent>
      <dc:title>Matplotlib v3.10.3, https://matplotlib.org/</dc:title>
     </cc:Agent>
    </dc:creator>
   </cc:Work>
  </rdf:RDF>
 </metadata>
 <defs>
  <style type="text/css">*{stroke-linejoin: round; stroke-linecap: butt}</style>
 </defs>
 <g id="figure_1">
  <g id="patch_1">
   <path d="M 0 108 
L 166.293538 108 
L 166.293538 0 
L 0 0 
z
" style="fill: #ffffff"/>
  </g>
  <g id="axes_1">
   <g id="PatchCollection_1">
    <path d="M 125.120882 103.589582 
L 127.430304 103.287382 
L 127.083313 102.323654 
L 127.851792 102.152277 
L 128.534368 100.421978 
L 135.058809 103.149009 
L 137.55489 101.84148 
L 139.887566 103.044117 
L 140.697587 102.612486 
L 142.301934 104.778547 
L 144.087428 104.699944 
L 144.987759 105.472782 
L 147.477016 104.521192 
L 147.149303 103.202899 
L 147.659808 103.311392 
L 148.284472 104.518119 
L 147.860595 104.006451 
L 147.726737 105.395319 
L 148.334668 104.915526 
L 151.973898 111.415691 
L 156.04657 116.060857 
L 158.248618 117.424759 
L 157.388254 117.942083 
L 155.461862 116.794394 
L 155.472495 117.894246 
L 154.539268 118.262525 
L 154.562041 122.29918 
L 156.716105 123.703695 
L 154.722677 125.386076 
L 155.453775 128.346532 
L 153.45832 129.745798 
L 154.520049 130.550185 
L 155.080633 132.039345 
L 154.970782 132.725523 
L 154.276956 130.828426 
L 152.491403 129.32199 
L 153.061093 128.534614 
L 152.290616 126.593505 
L 149.252142 125.829315 
L 151.154821 127.566756 
L 151.154821 129.246227 
L 148.333072 128.552001 
L 146.75468 127.048872 
L 148.334668 125.059336 
L 147.677333 125.124326 
L 148.334668 124.150251 
L 147.753827 122.4567 
L 142.137823 118.174584 
L 138.141234 117.024168 
L 136.99509 113.067845 
L 135.846547 113.067845 
L 136.46046 112.859202 
L 131.555963 109.859994 
L 132.564666 112.366996 
L 135.712698 114.469552 
L 133.233555 117.254328 
L 131.456764 114.684818 
L 127.888047 113.748 
L 126.123612 110.381184 
L 126.46423 107.491669 
L 128.201975 106.412032 
L 127.533086 106.513037 
L 127.726707 104.629888 
z
" clip-path="url(#p64b94aa2a1)" style="fill: #eeeeee; stroke: #000000; stroke-width: 0.3"/>
    <path d="M 145.318801 125.825236 
L 145.459297 125.819192 
L 145.371553 125.969418 
z
" clip-path="url(#p64b94aa2a1)" style="fill: #eeeeee; stroke: #000000; stroke-width: 0.3"/>
    <path d="M 132.437583 111.533675 
L 133.305663 111.609429 
L 133.434342 111.88058 
z
" clip-path="url(#p64b94aa2a1)" style="fill: #eeeeee; stroke: #000000; stroke-width: 0.3"/>
    <path d="M 113.653819 158.359948 
L 114.173311 157.924868 
L 114.164147 158.161245 
z
" clip-path="url(#p64b94aa2a1)" style="fill: #eeeeee; stroke: #000000; stroke-width: 0.3"/>
    <path d="M 108.236996 83.293848 
L 108.275248 82.390979 
L 109.150494 81.349015 
L 110.963138 83.09141 
L 111.970647 83.028496 
L 111.094999 82.845521 
L 111.731216 82.398019 
L 114.462724 82.416088 
L 115.560384 81.331476 
L 115.679273 79.77291 
L 117.703571 79.170146 
L 117.094915 74.628263 
L 121.266443 74.512334 
L 123.649452 71.588157 
L 127.117972 73.830184 
L 127.265958 72.392544 
L 132.726389 68.763072 
L 132.962921 66.296032 
L 134.097003 66.04472 
L 133.859208 65.290806 
L 135.324929 63.724884 
L 136.422336 63.683355 
L 137.331017 65.172516 
L 139.45194 65.734269 
L 140.62447 64.756125 
L 141.560976 65.141496 
L 141.61461 64.319498 
L 142.531134 64.762697 
L 143.083631 63.964628 
L 144.914896 64.269555 
L 147.941221 63.158136 
L 148.98423 61.745461 
L 152.691368 61.893265 
L 151.089889 63.854202 
L 150.814203 62.738967 
L 150.347306 63.053173 
L 149.811081 63.857519 
L 151.038899 64.19076 
L 152.141622 68.499786 
L 149.74614 72.476802 
L 148.494021 77.979707 
L 149.251349 88.145165 
L 147.726737 88.459787 
L 147.726737 86.640794 
L 148.530677 85.914694 
L 148.446213 84.115987 
L 147.644671 84.378867 
L 148.20081 85.952775 
L 146.384182 86.956241 
L 147.346281 89.536932 
L 147.927523 88.843124 
L 147.398867 92.506758 
L 147.135938 91.008604 
L 146.834758 90.638514 
L 146.353909 90.581795 
L 146.985348 91.105468 
L 146.097354 91.770719 
L 146.529201 92.924869 
L 145.782624 93.694024 
L 146.451913 94.369631 
L 147.115613 93.910948 
L 147.587699 96.256504 
L 146.517247 96.88988 
L 145.471094 99.773596 
L 147.477016 104.521192 
L 144.896686 105.458325 
L 144.087428 104.699944 
L 142.301934 104.778547 
L 140.697587 102.612486 
L 139.887566 103.044117 
L 137.55489 101.84148 
L 135.058809 103.149009 
L 128.534368 100.421978 
L 127.516707 101.734971 
L 119.73673 94.831621 
L 117.032509 90.375645 
z
" clip-path="url(#p64b94aa2a1)" style="fill: #eeeeee; stroke: #000000; stroke-width: 0.3"/>
    <path d="M 155.845783 68.309354 
L 156.587182 68.276656 
L 156.407905 68.359032 
z
" clip-path="url(#p64b94aa2a1)" style="fill: #eeeeee; stroke: #000000; stroke-width: 0.3"/>
    <path d="M 153.42043 90.693157 
L 153.649903 90.4427 
L 153.761448 90.53461 
z
" clip-path="url(#p64b94aa2a1)" style="fill: #eeeeee; stroke: #000000; stroke-width: 0.3"/>
    <path d="M 147.243616 103.1889 
L 147.291306 103.181819 
L 147.35428 103.310924 
z
" clip-path="url(#p64b94aa2a1)" style="fill: #eeeeee; stroke: #000000; stroke-width: 0.3"/>
    <path d="M 146.761857 92.976205 
L 147.047891 92.515864 
L 146.920808 93.703546 
z
" clip-path="url(#p64b94aa2a1)" style="fill: #eeeeee; stroke: #000000; stroke-width: 0.3"/>
    <path d="M 84.471348 74.769231 
L 85.208889 72.678019 
L 87.040928 71.435429 
L 87.904573 71.653605 
L 88.470473 70.306917 
L 90.089252 69.678658 
L 89.506149 67.948705 
L 91.326038 67.505496 
L 93.71689 68.462611 
L 94.172244 68.00811 
L 96.803162 71.01509 
L 100.077141 72.202488 
L 100.151012 73.550488 
L 103.78751 72.125463 
L 104.865169 73.396183 
L 106.79814 72.892522 
L 107.917046 73.918767 
L 107.071857 76.789583 
L 107.745269 77.52195 
L 106.598449 77.724285 
L 106.251057 78.494274 
L 107.072132 79.290339 
L 105.718024 80.596413 
L 101.833783 80.515694 
L 101.566076 80.439931 
L 101.802717 80.205212 
L 101.505913 79.883976 
L 100.953758 80.464775 
L 100.613542 79.620273 
L 99.153862 79.322213 
L 97.938791 79.467514 
L 99.362217 79.536238 
L 100.494821 80.498307 
L 97.32289 79.715072 
L 92.762603 77.405114 
L 87.313177 76.850228 
z
" clip-path="url(#p64b94aa2a1)" style="fill: #eeeeee; stroke: #000000; stroke-width: 0.3"/>
    <path d="M 107.726099 80.541058 
L 107.892775 80.056299 
L 108.019006 80.50256 
z
" clip-path="url(#p64b94aa2a1)" style="fill: #eeeeee; stroke: #000000; stroke-width: 0.3"/>
    <path d="M 107.167463 79.751931 
L 107.449258 79.881321 
L 107.327678 80.030244 
z
" clip-path="url(#p64b94aa2a1)" style="fill: #eeeeee; stroke: #000000; stroke-width: 0.3"/>
    <path d="M 63.441487 66.478905 
L 64.278129 65.082875 
L 64.34264 61.904243 
L 65.129888 61.113 
L 63.783818 59.094937 
L 68.399569 51.068681 
L 81.151196 50.68332 
L 81.567339 47.424234 
L 79.235427 46.771792 
L 77.63107 43.494841 
L 75.105392 42.451239 
L 72.906545 39.683209 
L 71.310784 39.094373 
L 75.721636 38.952419 
L 75.811181 33.269145 
L 93.653143 33.230769 
L 92.908895 52.768408 
L 97.306559 53.122851 
L 99.050286 54.719945 
L 99.555034 53.185358 
L 100.229102 53.248283 
L 99.087334 51.998093 
L 102.852051 54.480262 
L 93.650108 61.249949 
L 92.948861 63.404187 
L 93.654151 66.122794 
L 91.683995 67.80964 
L 89.506149 67.948705 
L 90.089252 69.678658 
L 88.470473 70.306917 
L 87.904573 71.653605 
L 87.040928 71.435429 
L 85.208889 72.678019 
L 84.471348 74.769231 
L 79.751209 72.919004 
L 72.544809 72.487515 
z
" clip-path="url(#p64b94aa2a1)" style="fill: #eeeeee; stroke: #000000; stroke-width: 0.3"/>
    <path d="M 91.683995 67.80964 
L 93.654151 66.122794 
L 92.948861 63.404187 
L 93.650108 61.249949 
L 101.914742 54.999661 
L 103.851198 54.783286 
L 105.494924 53.040464 
L 109.016636 52.345414 
L 110.112192 53.86592 
L 111.427255 53.211851 
L 115.619833 54.126724 
L 120.9275 54.019513 
L 125.249952 52.333409 
L 125.387795 51.651179 
L 124.518922 51.372998 
L 127.502412 51.928545 
L 129.603665 53.016118 
L 134.387669 51.811802 
L 137.553941 52.948605 
L 137.715467 53.983366 
L 139.744514 53.768151 
L 137.893892 53.083875 
L 141.293133 53.611862 
L 146.821609 57.77753 
L 144.138497 56.393626 
L 143.163258 56.254948 
L 143.303088 56.949174 
L 142.901524 56.254948 
L 142.093598 56.254948 
L 144.781087 59.225599 
L 145.921661 59.108865 
L 143.918197 57.705093 
L 145.998155 58.590157 
L 146.529201 59.806814 
L 147.865372 58.850544 
L 148.802368 58.96977 
L 148.751379 59.713674 
L 148.167346 59.449563 
L 147.884102 60.070518 
L 149.251349 59.669794 
L 148.783247 58.800458 
L 147.994051 58.761127 
L 147.085742 57.772982 
L 149.973616 59.152327 
L 151.185103 61.167542 
L 152.691368 61.893265 
L 148.98423 61.745461 
L 147.941221 63.158136 
L 144.914896 64.269555 
L 143.083631 63.964628 
L 142.531134 64.762697 
L 141.61461 64.319498 
L 141.560976 65.141496 
L 140.62447 64.756125 
L 139.45194 65.734269 
L 137.331017 65.172516 
L 136.422336 63.683355 
L 135.324929 63.724884 
L 133.859208 65.290806 
L 134.097003 66.04472 
L 132.962921 66.296032 
L 132.726389 68.763072 
L 127.265958 72.392544 
L 127.117972 73.830184 
L 125.287715 72.930897 
L 124.398761 71.475381 
L 121.266443 74.512334 
L 117.094915 74.628263 
L 117.703571 79.170146 
L 115.679273 79.77291 
L 115.560384 81.331476 
L 114.462724 82.416088 
L 111.731216 82.398019 
L 111.830023 81.20992 
L 110.7002 81.077448 
L 109.790696 79.293645 
L 110.883462 78.02731 
L 108.749723 78.425551 
L 108.696335 77.466798 
L 108.02307 78.481852 
L 106.805209 78.074089 
L 107.745269 77.52195 
L 107.071857 76.789583 
L 107.917046 73.918767 
L 106.79814 72.892522 
L 104.865169 73.396183 
L 104.045543 72.140184 
L 102.713631 72.109164 
L 102.220592 72.993201 
L 100.151012 73.550488 
L 100.077141 72.202488 
L 96.803162 71.01509 
L 94.172244 68.00811 
z
" clip-path="url(#p64b94aa2a1)" style="fill: #eeeeee; stroke: #000000; stroke-width: 0.3"/>
    <path d="M 118.658053 48.789316 
L 120.284792 47.654781 
L 121.344778 47.320035 
L 122.81704 47.332477 
z
" clip-path="url(#p64b94aa2a1)" style="fill: #eeeeee; stroke: #000000; stroke-width: 0.3"/>
    <path d="M 144.859971 37.350157 
L 144.901003 37.279785 
L 145.036056 37.33277 
z
" clip-path="url(#p64b94aa2a1)" style="fill: #eeeeee; stroke: #000000; stroke-width: 0.3"/>
    <path d="M 125.114743 47.587177 
L 126.05403 46.427086 
L 126.388685 46.619461 
z
" clip-path="url(#p64b94aa2a1)" style="fill: #eeeeee; stroke: #000000; stroke-width: 0.3"/>
    <path d="M 114.831244 50.83495 
L 115.351657 50.503805 
L 115.993122 50.74128 
z
" clip-path="url(#p64b94aa2a1)" style="fill: #eeeeee; stroke: #000000; stroke-width: 0.3"/>
    <path d="M 108.35373 78.835796 
L 109.217423 78.425551 
L 109.016636 79.11357 
z
" clip-path="url(#p64b94aa2a1)" style="fill: #eeeeee; stroke: #000000; stroke-width: 0.3"/>
    <path d="M 108.20871 79.322213 
L 108.693153 79.637243 
L 108.274846 79.605786 
z
" clip-path="url(#p64b94aa2a1)" style="fill: #eeeeee; stroke: #000000; stroke-width: 0.3"/>
    <path d="M -180.139161 -116.499762 
L -156.633378 -118.342908 
L -157.59113 -116.180012 
L -120.231525 -104.245656 
L -92.901292 -104.248281 
L -92.904327 -108.829597 
L -75.416533 -108.633498 
L -73.265504 -105.772938 
L -70.836959 -104.69148 
L -64.987711 -99.394624 
L -60.783296 -96.954656 
L -58.308451 -92.706133 
L -58.297828 -90.156279 
L -56.693725 -87.226313 
L -52.196617 -84.018757 
L -49.517372 -83.365257 
L -45.630184 -80.862466 
L -43.046829 -80.53361 
L -40.462191 -82.900765 
L -40.699987 -84.066869 
L -38.819895 -88.065667 
L -36.030103 -88.477317 
L -35.197064 -89.664185 
L -33.124704 -88.729941 
L -26.229666 -88.489149 
L -25.319722 -86.651945 
L -24.55371 -86.904294 
L -24.347538 -85.97768 
L -19.022453 -81.751753 
L -18.58531 -79.803614 
L -15.631593 -75.588481 
L -15.166125 -73.216332 
L -13.025974 -71.798926 
L -10.836996 -68.124507 
L -7.724407 -66.210278 
L -7.20278 -60.80144 
L -5.112962 -58.462935 
L -3.724146 -54.352154 
L -0.737034 -53.8343 
L 4.928561 -50.815487 
L 10.438571 -50.360192 
L 12.734052 -48.571618 
L 15.535611 -49.700385 
L 15.282239 -47.233538 
L 12.405516 -41.699583 
L 10.521165 -34.948961 
L 9.798898 -27.723521 
L 8.850349 -27.548003 
L 9.452299 -26.159542 
L 9.827976 -27.048747 
L 9.631174 -19.242926 
L 8.17588 -15.417834 
L 8.730834 -16.167119 
L 9.452299 -10.328482 
L 10.922338 -7.682384 
L 13.803045 -4.886427 
L 12.800716 -1.960897 
L 12.275643 -3.633754 
L 13.274389 -4.647974 
L 10.779316 -7.261791 
L 9.251521 -10.328482 
L 10.461011 -5.655582 
L 12.107527 -4.0709 
L 12.035018 -3.255383 
L 15.425261 4.411354 
L 22.224076 12.328954 
L 23.847084 17.784256 
L 29.110527 23.202718 
L 27.092709 22.62895 
L 28.575897 23.689542 
L 28.13847 24.049285 
L 30.915994 24.389983 
L 29.349154 23.637798 
L 29.305733 23.202718 
L 30.766598 23.999607 
L 34.619764 24.167677 
L 36.243174 25.603334 
L 38.566548 26.133213 
L 40.583963 29.410205 
L 41.699434 29.87427 
L 48.414186 28.566527 
L 50.418452 27.151584 
L 47.841706 28.100814 
L 50.653889 26.973157 
L 54.536935 26.834061 
L 54.803848 27.876025 
L 54.714616 26.978538 
L 57.474331 26.600208 
L 58.8335 25.316862 
L 59.301602 26.973157 
L 59.039457 25.07842 
L 61.885917 24.514428 
L 66.361034 24.309305 
L 67.158905 25.253937 
L 66.340229 24.936842 
L 65.335511 25.779685 
L 66.946174 26.196137 
L 66.143427 25.299475 
L 66.812316 25.432771 
L 67.67083 27.387543 
L 67.827001 26.341856 
L 70.88021 26.901544 
L 70.70811 26.133213 
L 73.861311 24.661958 
L 72.719142 24.945947 
L 73.043428 23.857205 
L 71.582955 23.06404 
L 73.3207 21.599408 
L 70.696155 23.034231 
L 77.901312 18.021874 
L 78.739912 13.507938 
L 80.755634 11.786694 
L 80.637412 5.560121 
L 82.179549 0.490222 
L 87.529443 -2.074741 
L 94.121881 -2.870388 
L 100.630666 -5.030487 
L 102.074016 -4.821844 
L 104.18504 -5.174964 
L 102.713415 -5.017241 
L 103.747623 -5.446939 
L 112.290155 -3.662312 
L 113.451436 -4.907954 
L 110.760755 -4.613201 
L 113.714374 -5.522285 
L 116.490302 -3.5878 
L 116.616592 -1.262937 
L 117.336069 -0.849385 
L 116.026587 2.295135 
L 110.591044 8.745621 
L 110.554799 12.121135 
L 110.108207 13.18835 
L 110.459585 11.874412 
L 110.125733 11.35198 
L 110.354012 12.120311 
L 108.272056 14.720048 
L 107.548996 14.334229 
L 108.20871 16.023222 
L 110.484277 15.535157 
L 109.624568 15.189901 
L 110.493842 14.697696 
L 110.76474 15.291323 
L 110.317757 16.538614 
L 108.188796 18.002004 
L 108.549729 18.920194 
L 110.293055 17.90514 
L 106.537101 29.340657 
L 105.6499 26.833654 
L 104.253565 26.268991 
L 104.993759 24.320435 
L 104.659917 22.439769 
L 103.768731 23.912672 
L 103.696623 23.512783 
L 103.068777 23.813732 
L 102.589123 24.257928 
L 103.539268 24.234742 
L 102.241329 26.341856 
L 99.847442 26.721285 
L 96.483908 32.451095 
L 94.740416 31.349655 
L 93.717399 31.941116 
L 93.653143 33.230769 
L 75.811181 33.269145 
L 75.721636 38.952419 
L 71.310784 39.094373 
L 72.906545 39.683209 
L 75.105392 42.451239 
L 77.63107 43.494841 
L 79.235427 46.771792 
L 81.567339 47.424234 
L 81.151196 50.68332 
L 68.399569 51.068681 
L 63.783818 59.094937 
L 65.129888 61.113 
L 64.34264 61.904243 
L 63.638867 66.447702 
L 57.622415 60.223266 
L 58.632713 60.920808 
L 58.329144 60.118538 
L 56.226873 59.161026 
L 44.876544 49.382211 
L 42.361948 48.651136 
L 41.997422 49.190955 
L 46.624648 51.71452 
L 42.431266 49.881457 
L 39.198388 49.657919 
L 40.584355 48.367574 
L 39.711106 47.987544 
L 38.505992 49.068005 
L 37.668597 47.369072 
L 35.855551 48.95996 
L 38.10482 48.784026 
L 37.162644 49.207101 
L 38.38449 49.276648 
L 38.762155 49.667849 
L 35.018753 49.787126 
L 32.22668 51.939604 
L 24.373009 54.910845 
L 21.746957 55.167996 
L 14.294615 52.341141 
L 9.333743 51.898156 
L 5.423058 49.561045 
L 6.304276 49.763482 
L 6.438134 49.630593 
L 1.695771 48.486942 
L -0.497838 46.041328 
L -9.176196 44.586188 
L -12.391421 42.4337 
L -22.84142 38.827109 
L -31.955042 31.598525 
L -33.920538 32.196364 
L -45.385515 28.627091 
L -51.439447 22.440257 
L -54.882736 20.941482 
L -55.104631 20.029335 
L -55.938953 20.337661 
L -61.363902 17.686557 
L -62.28489 15.459699 
L -66.57236 10.669343 
L -68.266703 6.854363 
L -63.811569 5.057142 
L -64.769918 3.31667 
L -66.761046 3.179761 
L -63.720368 0.200178 
L -63.237101 -3.686739 
L -65.816452 -5.599524 
L -67.616437 -8.902988 
L -68.442769 -14.584513 
L -69.26025 -15.848773 
L -75.424836 -21.410471 
L -76.335544 -23.673233 
L -78.983194 -25.960422 
L -81.358753 -29.505248 
L -88.595386 -34.558178 
L -88.836805 -34.911288 
L -85.883587 -33.199943 
L -86.19353 -35.010645 
L -87.11818 -34.365263 
L -90.179751 -36.199985 
L -88.903734 -35.082258 
L -89.902881 -35.579855 
L -91.388448 -37.701863 
L -90.591282 -37.402155 
L -90.653433 -39.400806 
L -91.274906 -39.889288 
L -91.656164 -38.07527 
L -94.008215 -41.005347 
L -92.592367 -39.685203 
L -92.137414 -40.484574 
L -90.8327 -40.194389 
L -92.932583 -41.636241 
L -94.242466 -41.598985 
L -94.336486 -42.614874 
L -94.706984 -41.352262 
L -95.057559 -42.527939 
L -97.964163 -43.518149 
L -96.615234 -43.448601 
L -98.295215 -43.749978 
L -98.326692 -45.370258 
L -99.573631 -45.574343 
L -99.900306 -44.619314 
L -101.725698 -45.330926 
L -100.397486 -45.415379 
L -99.003148 -48.060652 
L -101.197041 -45.87985 
L -103.03797 -46.855583 
L -102.120898 -45.539152 
L -104.606004 -46.448237 
L -103.397317 -47.104789 
L -104.290088 -47.624738 
L -104.606004 -46.92803 
L -104.8307 -50.268771 
L -103.155889 -53.14214 
L -103.259875 -51.75782 
L -102.7101 -53.547828 
L -101.659562 -52.250442 
L -101.452802 -53.003045 
L -101.725698 -52.987316 
L -102.123287 -53.753572 
L -102.394586 -53.899707 
L -103.032791 -53.450964 
L -103.092553 -55.114706 
L -105.321897 -57.603701 
L -106.000978 -57.342938 
L -105.429232 -56.856257 
L -108.270337 -57.367538 
L -110.048322 -61.32965 
L -113.195492 -61.731726 
L -115.49343 -63.17599 
L -114.546663 -63.293517 
L -115.773482 -64.061441 
L -116.519218 -66.744379 
L -115.745598 -67.779312 
L -116.249152 -67.876177 
L -116.347156 -68.61304 
L -115.404981 -69.105673 
L -118.692834 -69.446371 
L -118.59245 -70.287973 
L -119.056958 -68.756276 
L -120.162873 -70.030069 
L -121.198412 -69.738235 
L -124.45983 -74.33412 
L -127.105405 -75.077098 
L -129.46521 -78.09232 
L -128.670746 -78.566548 
L -131.591037 -80.230962 
L -132.305218 -83.777639 
L -133.98697 -84.076656 
L -133.659277 -85.511163 
L -137.26746 -89.832316 
L -137.443751 -92.895171 
L -140.533705 -97.564114 
L -140.649714 -102.973603 
L -142.031725 -103.847314 
L -145.843907 -104.229368 
L -146.209177 -105.978804 
L -149.323725 -107.662883 
L -149.062393 -106.695849 
L -149.825507 -105.917751 
L -151.587298 -106.128795 
L -159.621137 -110.794981 
L -157.185023 -107.589195 
L -158.197515 -102.145084 
L -156.497944 -100.086947 
L -155.71613 -95.777941 
L -156.060115 -92.773575 
L -154.761863 -90.417164 
L -153.274847 -88.448556 
L -151.583352 -88.14663 
L -145.981584 -83.440299 
L -144.89015 -79.466304 
L -144.007139 -80.161252 
L -143.222035 -78.537523 
L -141.908001 -78.787481 
L -140.759624 -75.52924 
L -138.246693 -74.883146 
L -137.531132 -69.011118 
L -135.81571 -66.878652 
L -133.4337 -65.790326 
L -132.043915 -62.3632 
L -129.474922 -61.17097 
L -130.128831 -60.00329 
L -128.695047 -58.472834 
L -128.982863 -57.318002 
L -127.848722 -55.865569 
L -126.796401 -55.967947 
L -128.145477 -57.318185 
L -128.506106 -59.003954 
L -125.653459 -57.125658 
L -125.699641 -55.725222 
L -124.499952 -55.31344 
L -124.760667 -54.31619 
L -123.323104 -51.047154 
L -123.177017 -47.801975 
L -121.383172 -45.269884 
L -120.358676 -45.116545 
L -119.234659 -41.329503 
L -117.075004 -38.683782 
L -117.61072 -35.342858 
L -116.350711 -32.282119 
L -113.563357 -31.488404 
L -114.613249 -31.467121 
L -113.912512 -30.830916 
L -113.324621 -31.908916 
L -113.634584 -33.045862 
L -112.656917 -33.192475 
L -110.447869 -31.316641 
L -110.258586 -30.172024 
L -108.698306 -30.339698 
L -107.406262 -26.297875 
L -105.171004 -25.174877 
L -104.638479 -23.512071 
L -105.427392 -21.070719 
L -109.355162 -18.247222 
L -110.376143 -18.453128 
L -113.38876 -25.031366 
L -124.52156 -33.001056 
L -123.69233 -32.654447 
L -126.818303 -35.665996 
L -128.129058 -34.847478 
L -130.042781 -38.598526 
L -129.634833 -37.272165 
L -130.309694 -38.250787 
L -130.822813 -37.568984 
L -130.909734 -39.870548 
L -131.379784 -38.593591 
L -131.584135 -39.405873 
L -130.26215 -44.692962 
L -130.787635 -44.768308 
L -130.758263 -47.206557 
L -130.979924 -45.003657 
L -131.712775 -49.592227 
L -133.903505 -52.492201 
L -136.707728 -53.331738 
L -140.345929 -56.143536 
L -140.917048 -58.127171 
L -141.864403 -57.622126 
L -141.178381 -59.918013 
L -142.400285 -57.70374 
L -144.362746 -58.233588 
L -145.989485 -57.429629 
L -147.744462 -59.702828 
L -149.593037 -59.992526 
L -151.323616 -61.642615 
L -153.802485 -62.016316 
L -154.500736 -64.354415 
L -159.554903 -67.753532 
L -160.153494 -68.880406 
L -154.428246 -68.097201 
L -152.638678 -69.120984 
L -152.306824 -67.708106 
L -150.549948 -66.345314 
L -150.275065 -67.2457 
L -149.084696 -66.892579 
L -148.744872 -67.540036 
L -150.121293 -68.37294 
L -150.048783 -67.548318 
L -150.922443 -67.657604 
L -151.044347 -69.836331 
L -152.248795 -69.390049 
L -150.857903 -71.249626 
L -151.01893 -70.442197 
L -150.583892 -69.662746 
L -150.729009 -70.629587 
L -149.931187 -70.677862 
L -150.764833 -72.997423 
L -150.210133 -75.665863 
L -159.059015 -84.412643 
L -161.16487 -84.93011 
L -166.162427 -88.25906 
L -166.185289 -89.705643 
L -167.274872 -90.417703 
L -167.530565 -94.268087 
L -168.882754 -94.825659 
L -168.4756 -95.317864 
L -169.016602 -95.804281 
L -169.168015 -94.397273 
L -169.605707 -95.622476 
L -169.69067 -98.907404 
L -172.407717 -100.472776 
L -172.467401 -103.150606 
L -175.73813 -106.539366 
L -175.468426 -107.623144 
L -176.470207 -108.571276 
L -175.424995 -108.387335 
L -175.113593 -109.492203 
L -177.596192 -111.22303 
z
" clip-path="url(#p64b94aa2a1)" style="fill: #eeeeee; stroke: #000000; stroke-width: 0.3"/>
    <path d="M -132.943011 -37.76024 
L -131.187838 -42.579042 
L -132.053225 -38.323306 
L -131.092839 -36.713556 
L -131.296887 -36.139563 
L -130.547343 -35.200741 
L -131.687338 -36.349956 
L -131.485847 -37.263792 
z
" clip-path="url(#p64b94aa2a1)" style="fill: #eeeeee; stroke: #000000; stroke-width: 0.3"/>
    <path d="M -145.5192 -84.736636 
L -145.343359 -86.062793 
L -143.620359 -85.242465 
L -143.376836 -83.723434 
L -141.401451 -83.378635 
L -140.875369 -80.411566 
L -144.608433 -83.471044 
z
" clip-path="url(#p64b94aa2a1)" style="fill: #eeeeee; stroke: #000000; stroke-width: 0.3"/>
    <path d="M -135.669095 -79.301459 
L -134.718206 -80.280803 
L -134.510643 -82.419374 
L -132.548849 -83.081277 
L -131.875926 -80.786489 
L -132.649888 -78.213123 
z
" clip-path="url(#p64b94aa2a1)" style="fill: #eeeeee; stroke: #000000; stroke-width: 0.3"/>
    <path d="M -162.838379 -71.235881 
L -161.680182 -72.77239 
L -161.767182 -74.051321 
L -160.858481 -71.828003 
L -161.566483 -70.683895 
z
" clip-path="url(#p64b94aa2a1)" style="fill: #eeeeee; stroke: #000000; stroke-width: 0.3"/>
    <path d="M 117.336069 -2.106198 
L 117.47352 -1.650832 
L 117.737241 -1.20333 
L 117.355591 -1.650008 
z
" clip-path="url(#p64b94aa2a1)" style="fill: #eeeeee; stroke: #000000; stroke-width: 0.3"/>
    <path d="M 114.852157 8.340757 
L 115.117876 5.843694 
L 117.263167 4.968966 
L 116.792275 6.136372 
z
" clip-path="url(#p64b94aa2a1)" style="fill: #eeeeee; stroke: #000000; stroke-width: 0.3"/>
    <path d="M 112.17064 23.82823 
L 112.376205 24.462013 
L 112.231587 24.945947 
L 112.273815 24.657827 
z
" clip-path="url(#p64b94aa2a1)" style="fill: #eeeeee; stroke: #000000; stroke-width: 0.3"/>
    <path d="M 87.923537 -15.226089 
L 89.250711 -14.044226 
L 88.721662 -13.128468 
L 88.810004 -14.155324 
z
" clip-path="url(#p64b94aa2a1)" style="fill: #eeeeee; stroke: #000000; stroke-width: 0.3"/>
    <path d="M 8.643981 -16.321119 
L 9.082202 -17.110978 
L 9.17861 -17.23641 
L 9.104515 -16.716878 
z
" clip-path="url(#p64b94aa2a1)" style="fill: #eeeeee; stroke: #000000; stroke-width: 0.3"/>
    <path d="M -77.686959 -6.230622 
L -76.233094 -5.253638 
L -76.428986 -4.689962 
L -77.396255 -5.292572 
z
" clip-path="url(#p64b94aa2a1)" style="fill: #eeeeee; stroke: #000000; stroke-width: 0.3"/>
    <path d="M -110.814598 -61.10712 
L -110.23502 -60.929771 
L -109.772793 -60.437332 
L -110.295712 -60.875108 
z
" clip-path="url(#p64b94aa2a1)" style="fill: #eeeeee; stroke: #000000; stroke-width: 0.3"/>
    <path d="M -117.338608 -40.84151 
L -116.008292 -40.034529 
L -115.518886 -38.653688 
L -116.668153 -39.004651 
z
" clip-path="url(#p64b94aa2a1)" style="fill: #eeeeee; stroke: #000000; stroke-width: 0.3"/>
    <path d="M -122.177146 -48.05171 
L -121.893569 -50.489216 
L -120.722037 -50.778913 
L -121.940329 -49.05658 
z
" clip-path="url(#p64b94aa2a1)" style="fill: #eeeeee; stroke: #000000; stroke-width: 0.3"/>
    <path d="M -157.238803 -109.086942 
L -156.494223 -108.687043 
L -155.932503 -107.934451 
L -157.008145 -108.197737 
z
" clip-path="url(#p64b94aa2a1)" style="fill: #eeeeee; stroke: #000000; stroke-width: 0.3"/>
    <path d="M -192.282152 -81.908886 
L -191.385053 -82.498047 
L -190.915581 -79.705244 
L -191.532178 -79.227394 
z
" clip-path="url(#p64b94aa2a1)" style="fill: #eeeeee; stroke: #000000; stroke-width: 0.3"/>
    <path d="M 111.091014 27.246789 
L 111.769468 25.571042 
L 111.53083 26.718986 
z
" clip-path="url(#p64b94aa2a1)" style="fill: #eeeeee; stroke: #000000; stroke-width: 0.3"/>
    <path d="M 67.392765 24.716611 
L 70.367091 23.272673 
L 70.507323 23.689542 
z
" clip-path="url(#p64b94aa2a1)" style="fill: #eeeeee; stroke: #000000; stroke-width: 0.3"/>
    <path d="M 10.193295 -7.953951 
L 10.922338 -6.709968 
L 10.403246 -7.09951 
z
" clip-path="url(#p64b94aa2a1)" style="fill: #eeeeee; stroke: #000000; stroke-width: 0.3"/>
    <path d="M -73.951967 -2.380828 
L -73.762439 -2.578585 
L -73.444252 -2.141816 
z
" clip-path="url(#p64b94aa2a1)" style="fill: #eeeeee; stroke: #000000; stroke-width: 0.3"/>
    <path d="M -76.039836 -3.951104 
L -75.71648 -4.2144 
L -75.006764 -3.45901 
z
" clip-path="url(#p64b94aa2a1)" style="fill: #eeeeee; stroke: #000000; stroke-width: 0.3"/>
    <path d="M -77.962008 -6.777643 
L -77.656784 -6.706895 
L -77.864317 -6.576244 
z
" clip-path="url(#p64b94aa2a1)" style="fill: #eeeeee; stroke: #000000; stroke-width: 0.3"/>
    <path d="M -100.716995 -44.421435 
L -99.619441 -44.417294 
L -98.498792 -43.795923 
z
" clip-path="url(#p64b94aa2a1)" style="fill: #eeeeee; stroke: #000000; stroke-width: 0.3"/>
    <path d="M -109.725661 -33.509977 
L -108.449398 -31.09522 
L -109.404644 -31.727813 
z
" clip-path="url(#p64b94aa2a1)" style="fill: #eeeeee; stroke: #000000; stroke-width: 0.3"/>
    <path d="M -114.449902 -35.495759 
L -113.197852 -34.47982 
L -113.787025 -33.795218 
z
" clip-path="url(#p64b94aa2a1)" style="fill: #eeeeee; stroke: #000000; stroke-width: 0.3"/>
    <path d="M -116.061279 -38.055136 
L -115.952602 -38.285815 
L -115.876098 -37.992557 
z
" clip-path="url(#p64b94aa2a1)" style="fill: #eeeeee; stroke: #000000; stroke-width: 0.3"/>
    <path d="M -116.298556 -64.113602 
L -116.186227 -64.464311 
L -115.611045 -63.114979 
z
" clip-path="url(#p64b94aa2a1)" style="fill: #eeeeee; stroke: #000000; stroke-width: 0.3"/>
    <path d="M -117.553513 -42.804095 
L -117.13039 -43.011995 
L -117.515633 -42.519515 
z
" clip-path="url(#p64b94aa2a1)" style="fill: #eeeeee; stroke: #000000; stroke-width: 0.3"/>
    <path d="M -118.266176 -46.430667 
L -117.951719 -47.126317 
L -117.753684 -45.959399 
z
" clip-path="url(#p64b94aa2a1)" style="fill: #eeeeee; stroke: #000000; stroke-width: 0.3"/>
    <path d="M -118.564958 18.182914 
L -118.091276 17.974271 
L -118.507986 18.386999 
z
" clip-path="url(#p64b94aa2a1)" style="fill: #eeeeee; stroke: #000000; stroke-width: 0.3"/>
    <path d="M -120.637191 -46.697402 
L -120.358383 -46.933952 
L -120.449279 -46.505698 
z
" clip-path="url(#p64b94aa2a1)" style="fill: #eeeeee; stroke: #000000; stroke-width: 0.3"/>
    <path d="M -120.82857 23.520647 
L -120.17562 22.508482 
L -119.429053 23.941657 
z
" clip-path="url(#p64b94aa2a1)" style="fill: #eeeeee; stroke: #000000; stroke-width: 0.3"/>
    <path d="M -122.700976 -47.824276 
L -122.593582 -48.004727 
L -122.578093 -47.664579 
z
" clip-path="url(#p64b94aa2a1)" style="fill: #eeeeee; stroke: #000000; stroke-width: 0.3"/>
    <path d="M -122.972275 -51.097503 
L -122.752191 -51.422147 
L -122.757262 -51.116569 
z
" clip-path="url(#p64b94aa2a1)" style="fill: #eeeeee; stroke: #000000; stroke-width: 0.3"/>
    <path d="M -123.963443 -70.274463 
L -123.749487 -69.921648 
L -123.909702 -69.960745 
z
" clip-path="url(#p64b94aa2a1)" style="fill: #eeeeee; stroke: #000000; stroke-width: 0.3"/>
    <path d="M -126.761752 -33.347065 
L -126.610232 -33.518147 
L -124.702814 -33.055791 
z
" clip-path="url(#p64b94aa2a1)" style="fill: #eeeeee; stroke: #000000; stroke-width: 0.3"/>
    <path d="M -128.99235 -64.792333 
L -128.554815 -64.67678 
L -128.586409 -64.598147 
z
" clip-path="url(#p64b94aa2a1)" style="fill: #eeeeee; stroke: #000000; stroke-width: 0.3"/>
    <path d="M -130.027821 -34.934158 
L -128.63315 -34.996005 
L -127.103026 -32.751423 
z
" clip-path="url(#p64b94aa2a1)" style="fill: #eeeeee; stroke: #000000; stroke-width: 0.3"/>
    <path d="M -130.816987 -62.083209 
L -130.40387 -62.426084 
L -130.609729 -62.042748 
z
" clip-path="url(#p64b94aa2a1)" style="fill: #eeeeee; stroke: #000000; stroke-width: 0.3"/>
    <path d="M -131.162657 -42.744904 
L -130.92163 -44.817152 
L -130.98244 -43.357485 
z
" clip-path="url(#p64b94aa2a1)" style="fill: #eeeeee; stroke: #000000; stroke-width: 0.3"/>
    <path d="M -135.877792 -77.206391 
L -135.325677 -77.807811 
L -135.384245 -77.235427 
z
" clip-path="url(#p64b94aa2a1)" style="fill: #eeeeee; stroke: #000000; stroke-width: 0.3"/>
    <path d="M -138.388198 -77.231072 
L -137.32732 -76.409248 
L -137.537996 -76.2536 
z
" clip-path="url(#p64b94aa2a1)" style="fill: #eeeeee; stroke: #000000; stroke-width: 0.3"/>
    <path d="M -142.341659 -57.260734 
L -141.459246 -57.377885 
L -141.103091 -56.814891 
z
" clip-path="url(#p64b94aa2a1)" style="fill: #eeeeee; stroke: #000000; stroke-width: 0.3"/>
    <path d="M -144.786995 -81.11158 
L -144.692897 -81.507278 
L -144.568595 -80.935229 
z
" clip-path="url(#p64b94aa2a1)" style="fill: #eeeeee; stroke: #000000; stroke-width: 0.3"/>
    <path d="M -153.673973 -90.399716 
L -153.476515 -90.601136 
L -153.407314 -90.338145 
z
" clip-path="url(#p64b94aa2a1)" style="fill: #eeeeee; stroke: #000000; stroke-width: 0.3"/>
    <path d="M -157.360707 27.975382 
L -156.630871 27.730724 
L -156.599796 27.824699 
z
" clip-path="url(#p64b94aa2a1)" style="fill: #eeeeee; stroke: #000000; stroke-width: 0.3"/>
    <path d="M -161.490351 -69.262796 
L -160.922473 -69.0563 
L -160.944316 -68.882868 
z
" clip-path="url(#p64b94aa2a1)" style="fill: #eeeeee; stroke: #000000; stroke-width: 0.3"/>
    <path d="M -165.132028 -73.422441 
L -165.092317 -73.547355 
L -164.861277 -73.522877 
z
" clip-path="url(#p64b94aa2a1)" style="fill: #eeeeee; stroke: #000000; stroke-width: 0.3"/>
    <path d="M -166.712761 -39.410736 
L -166.698418 -39.399148 
L -166.707973 -39.396666 
z
" clip-path="url(#p64b94aa2a1)" style="fill: #eeeeee; stroke: #000000; stroke-width: 0.3"/>
    <path d="M -170.325448 -95.679185 
L -170.196652 -95.782753 
L -170.14342 -95.652957 
z
" clip-path="url(#p64b94aa2a1)" style="fill: #eeeeee; stroke: #000000; stroke-width: 0.3"/>
    <path d="M -181.31317 -115.309008 
L -181.257255 -115.049486 
L -181.295282 -115.04567 
z
" clip-path="url(#p64b94aa2a1)" style="fill: #eeeeee; stroke: #000000; stroke-width: 0.3"/>
    <path d="M 92.908895 52.768408 
L 93.717399 31.941116 
L 94.740416 31.349655 
L 96.483908 32.451095 
L 99.847442 26.721285 
L 102.040552 26.444519 
L 101.187207 27.571342 
L 101.906694 27.528297 
L 101.510299 28.251914 
L 104.067924 27.522081 
L 103.581093 28.195196 
L 104.08545 27.945573 
L 104.196995 29.204044 
L 102.198309 35.368068 
L 103.377124 36.306128 
L 102.212251 38.059704 
L 102.909424 41.850022 
L 101.638978 46.35236 
L 101.967641 44.951069 
L 99.761402 48.92891 
L 97.769481 49.347437 
L 95.695652 52.913516 
z
" clip-path="url(#p64b94aa2a1)" style="fill: #eeeeee; stroke: #000000; stroke-width: 0.3"/>
    <path d="M 104.92683 32.333659 
L 106.412407 29.615531 
L 105.846301 31.517318 
L 105.655873 31.922172 
L 105.349914 32.218991 
z
" clip-path="url(#p64b94aa2a1)" style="fill: #eeeeee; stroke: #000000; stroke-width: 0.3"/>
    <path d="M 106.732307 38.541563 
L 106.834297 37.636212 
L 106.938274 38.541563 
z
" clip-path="url(#p64b94aa2a1)" style="fill: #eeeeee; stroke: #000000; stroke-width: 0.3"/>
    <path d="M 106.084537 29.332793 
L 106.241501 29.334034 
L 106.113616 29.555089 
z
" clip-path="url(#p64b94aa2a1)" style="fill: #eeeeee; stroke: #000000; stroke-width: 0.3"/>
    <path d="M 105.734756 38.680658 
L 107.078897 36.103284 
L 107.098821 36.460118 
z
" clip-path="url(#p64b94aa2a1)" style="fill: #eeeeee; stroke: #000000; stroke-width: 0.3"/>
    <path d="M 105.437159 30.351164 
L 105.637946 30.284505 
L 105.465444 30.44347 
z
" clip-path="url(#p64b94aa2a1)" style="fill: #eeeeee; stroke: #000000; stroke-width: 0.3"/>
    <path d="M 105.168258 30.552349 
L 105.382184 30.527922 
L 105.196935 30.616515 
z
" clip-path="url(#p64b94aa2a1)" style="fill: #eeeeee; stroke: #000000; stroke-width: 0.3"/>
    <path d="M 104.470291 35.791143 
L 104.490206 35.347365 
L 104.586213 35.889666 
z
" clip-path="url(#p64b94aa2a1)" style="fill: #eeeeee; stroke: #000000; stroke-width: 0.3"/>
    <path d="M 103.866736 36.297429 
L 104.352363 36.5247 
L 104.260742 36.824419 
z
" clip-path="url(#p64b94aa2a1)" style="fill: #eeeeee; stroke: #000000; stroke-width: 0.3"/>
    <path d="M 103.649217 34.474722 
L 104.318898 34.045014 
L 104.000193 34.578627 
z
" clip-path="url(#p64b94aa2a1)" style="fill: #eeeeee; stroke: #000000; stroke-width: 0.3"/>
   </g>
   <g id="PatchCollection_2">
    <defs>
     <path id="m26ae803124" d="M 63.441487 -41.521095 
L 64.278129 -42.917125 
L 64.34264 -46.095757 
L 65.129888 -46.887 
L 63.783818 -48.905063 
L 68.399569 -56.931319 
L 81.151196 -57.31668 
L 81.567339 -60.575766 
L 79.235427 -61.228208 
L 77.63107 -64.505159 
L 75.105392 -65.548761 
L 72.906545 -68.316791 
L 71.310784 -68.905627 
L 75.721636 -69.047581 
L 75.811181 -74.730855 
L 93.653143 -74.769231 
L 92.908895 -55.231592 
L 97.306559 -54.877149 
L 99.050286 -53.280055 
L 99.555034 -54.814642 
L 100.229102 -54.751717 
L 99.087334 -56.001907 
L 102.852051 -53.519738 
L 93.650108 -46.750051 
L 92.948861 -44.595813 
L 93.654151 -41.877206 
L 91.683995 -40.19036 
L 89.506149 -40.051295 
L 90.089252 -38.321342 
L 88.470473 -37.693083 
L 87.904573 -36.346395 
L 87.040928 -36.564571 
L 85.208889 -35.321981 
L 84.471348 -33.230769 
L 79.751209 -35.080996 
L 72.544809 -35.512485 
z
" style="stroke: #dd0000; stroke-width: 0.5"/>
    </defs>
    <g clip-path="url(#p64b94aa2a1)">
     <use xlink:href="#m26ae803124" x="0" y="108" style="fill: #ff6b6b; stroke: #dd0000; stroke-width: 0.5"/>
    </g>
   </g>
  </g>
 </g>
 <defs>
  <clipPath id="p64b94aa2a1">
   <rect x="0" y="0" width="166.293538" height="108"/>
  </clipPath>
 </defs>
</svg>
