<?xml version="1.0" encoding="utf-8" standalone="no"?>
<!DOCTYPE svg PUBLIC "-//W3C//DTD SVG 1.1//EN"
  "http://www.w3.org/Graphics/SVG/1.1/DTD/svg11.dtd">
<svg xmlns:xlink="http://www.w3.org/1999/xlink" width="170.210377pt" height="108pt" viewBox="0 0 170.210377 108" xmlns="http://www.w3.org/2000/svg" version="1.1">
 <metadata>
  <rdf:RDF xmlns:dc="http://purl.org/dc/elements/1.1/" xmlns:cc="http://creativecommons.org/ns#" xmlns:rdf="http://www.w3.org/1999/02/22-rdf-syntax-ns#">
   <cc:Work>
    <dc:type rdf:resource="http://purl.org/dc/dcmitype/StillImage"/>
    <dc:date>2025-09-05T15:49:28.404875</dc:date>
    <dc:format>image/svg+xml</dc:format>
    <dc:creator>
     <cc:Agent>
      <dc:title>Matplotlib v3.10.3, https://matplotlib.org/</dc:title>
     </cc:Agent>
    </dc:creator>
   </cc:Work>
  </rdf:RDF>
 </metadata>
 <defs>
  <style type="text/css">*{stroke-linejoin: round; stroke-linecap: butt}</style>
 </defs>
 <g id="figure_1">
  <g id="patch_1">
   <path d="M 0 108 
L 170.210377 108 
L 170.210377 0 
L 0 0 
z
" style="fill: #ffffff"/>
  </g>
  <g id="axes_1">
   <g id="PatchCollection_1">
    <path d="M 69.188246 61.453632 
L 70.715358 61.433078 
L 72.008081 60.312122 
L 72.018315 59.520184 
L 73.616157 58.890277 
L 76.022628 54.423119 
L 77.635611 54.021198 
L 78.752122 54.476549 
L 80.562832 54.080254 
L 80.659143 53.491654 
L 86.124943 53.484303 
L 89.101602 57.042282 
L 89.551614 58.517992 
L 90.843272 59.235302 
L 90.256038 61.099296 
L 91.511478 61.348061 
L 91.465454 63.346618 
L 92.437074 64.543064 
L 90.347236 67.767696 
L 94.083291 66.115689 
L 93.764102 68.639888 
L 91.362752 69.906207 
L 91.337609 72.106578 
L 85.548364 76.756956 
L 84.237376 79.219537 
L 81.240571 77.297559 
L 75.740218 75.281212 
L 76.87102 75.281212 
L 75.883163 74.818945 
L 76.385482 74.077675 
L 78.401811 73.498895 
L 76.093548 73.839894 
L 75.432178 73.073415 
L 76.190527 72.064392 
L 74.954359 72.820313 
L 72.183706 71.124186 
L 73.145068 70.864261 
L 72.3988 69.91622 
L 72.694751 69.310533 
L 71.901511 68.047713 
L 70.319386 68.738911 
L 69.306361 65.985044 
L 71.394491 67.019275 
L 70.71366 66.213281 
L 72.745755 65.407972 
L 72.239073 65.293511 
L 72.694751 64.436422 
L 71.161288 65.290447 
L 71.450864 64.722233 
L 70.370729 64.555647 
L 70.784794 65.30884 
L 70.331805 65.839238 
L 69.690227 63.259114 
L 71.789103 62.997147 
L 70.596221 62.938894 
L 71.051898 62.31072 
L 69.469773 62.202052 
z
" clip-path="url(#p0b5d755bc5)" style="fill: #eeeeee; stroke: #000000; stroke-width: 0.3"/>
    <path d="M 72.069954 73.727475 
L 74.793288 73.189241 
L 75.852288 73.789478 
L 75.384868 75.282912 
L 74.924152 74.537564 
z
" clip-path="url(#p0b5d755bc5)" style="fill: #eeeeee; stroke: #000000; stroke-width: 0.3"/>
    <path d="M 54.522982 46.239921 
L 57.560962 40.891421 
L 59.128763 40.763146 
L 61.035784 39.457453 
L 63.299919 39.723096 
L 64.496339 38.831004 
L 65.651847 39.114378 
L 65.701277 36.661776 
L 63.651286 35.416228 
L 64.744146 34.364926 
L 65.939708 34.23254 
L 65.665479 31.047492 
L 71.040724 31.361156 
L 71.242508 32.731304 
L 72.387568 32.194837 
L 76.941412 34.126543 
L 79.060228 33.274695 
L 84.19235 33.099905 
L 84.959423 33.466346 
L 83.97672 35.080939 
L 85.404322 36.465797 
L 86.587737 36.564435 
L 87.732806 34.989651 
L 88.559114 34.847746 
L 90.544542 37.602761 
L 92.191609 35.696572 
L 94.209429 34.861594 
L 98.695083 36.472285 
L 99.477074 35.260476 
L 101.879702 34.425933 
L 102.107693 33.69002 
L 101.254972 32.872774 
L 102.464808 32.539217 
L 104.85594 33.598297 
L 104.704443 34.802755 
L 106.324453 37.312027 
L 105.917051 39.548741 
L 106.912536 39.619694 
L 107.487837 40.90094 
L 109.808651 41.979057 
L 107.125189 45.237444 
L 108.28943 45.294767 
L 108.733051 44.615097 
L 110.210511 44.857374 
L 110.55825 49.148879 
L 113.141146 51.069777 
L 111.470215 53.915636 
L 111.604022 57.356591 
L 112.45803 58.543518 
L 114.013899 58.369164 
L 113.484621 60.261505 
L 114.991918 61.160948 
L 113.465869 61.829801 
L 113.159899 63.367816 
L 115.404004 64.941737 
L 115.687395 67.034596 
L 114.356524 66.172358 
L 114.012192 66.649343 
L 113.146688 66.012504 
L 110.851438 66.375697 
L 110.710382 68.113584 
L 112.876508 68.632102 
L 113.211885 70.045943 
L 112.33402 69.92784 
L 111.252449 73.719865 
L 109.483071 73.413568 
L 108.900529 73.873457 
L 108.224654 72.783217 
L 107.241951 72.73173 
L 105.829687 76.258991 
L 103.623087 76.952508 
L 102.724763 75.352625 
L 100.610631 75.396754 
L 101.725863 72.33371 
L 100.285479 68.619987 
L 100.541171 67.297426 
L 99.072229 66.895077 
L 99.292551 66.281604 
L 98.702332 66.525823 
L 98.277884 65.459385 
L 95.902099 66.638526 
L 95.190426 65.783639 
L 93.320481 66.030671 
L 91.839186 67.562197 
L 90.347236 67.767696 
L 92.437074 64.543064 
L 91.465454 63.346618 
L 91.511478 61.348061 
L 90.256038 61.099296 
L 90.843272 59.235302 
L 89.551614 58.517992 
L 86.518277 53.578396 
L 80.659143 53.491654 
L 80.562832 54.080254 
L 78.752122 54.476549 
L 77.635611 54.021198 
L 76.022628 54.423119 
L 73.616157 58.890277 
L 72.018315 59.520184 
L 72.008081 60.312122 
L 70.715358 61.433078 
L 69.188246 61.453632 
L 70.370729 60.248051 
L 69.531177 60.15709 
L 69.751301 59.562312 
L 69.071137 60.276667 
L 69.188246 58.813548 
L 68.308426 59.398112 
L 68.400366 58.122693 
L 67.432639 58.036847 
L 67.657793 57.036681 
L 67.15648 57.613409 
L 66.81858 57.036681 
L 65.682409 57.522456 
L 67.044072 55.201905 
L 66.301161 54.744745 
L 65.660259 55.571519 
L 66.019971 53.877091 
L 64.720718 54.594519 
L 62.943637 53.217246 
L 63.425489 51.757191 
L 62.161465 52.963115 
L 62.288642 51.928884 
L 61.590699 52.540699 
L 61.413523 51.902654 
L 59.692815 51.632507 
L 59.012652 49.174338 
L 58.000294 49.414153 
L 59.299548 45.968761 
L 57.653677 48.044717 
L 58.053311 46.648029 
L 57.154706 47.573927 
L 57.318457 46.129545 
L 56.75574 46.534932 
L 56.664806 45.793661 
L 57.943253 44.757387 
L 57.774472 44.524035 
L 56.468844 45.329344 
L 55.849754 44.814618 
L 55.511516 46.997199 
z
" clip-path="url(#p0b5d755bc5)" style="fill: #eeeeee; stroke: #000000; stroke-width: 0.3"/>
    <path d="M 84.237376 79.219537 
L 85.548364 76.756956 
L 91.337609 72.106578 
L 91.362752 69.906207 
L 93.764102 68.639888 
L 94.083291 66.115689 
L 95.659619 65.902396 
L 95.902099 66.638526 
L 98.277884 65.459385 
L 98.702332 66.525823 
L 99.292551 66.281604 
L 99.072229 66.895077 
L 100.541171 67.297426 
L 100.285479 68.619987 
L 101.725863 72.33371 
L 100.610631 75.396754 
L 102.724763 75.352625 
L 103.623087 76.952508 
L 105.381383 76.450651 
L 107.241951 72.73173 
L 108.224654 72.783217 
L 109.394008 74.342865 
L 110.560806 78.395342 
L 110.120591 80.40968 
L 107.801485 82.790894 
L 109.454521 83.139386 
L 109.507794 84.07019 
L 113.609911 84.64192 
L 114.663352 87.267135 
L 117.073228 88.539515 
L 117.467848 88.206604 
L 117.936184 92.633744 
L 116.402045 94.685504 
L 116.618533 96.009799 
L 116.157009 96.147593 
L 116.691663 100.706826 
L 110.781821 98.805233 
L 103.791621 95.024627 
L 93.65999 85.777854 
L 89.909875 84.464283 
L 90.148446 83.532927 
L 85.251754 81.04682 
z
" clip-path="url(#p0b5d755bc5)" style="fill: #eeeeee; stroke: #000000; stroke-width: 0.3"/>
    <path d="M 107.801485 82.790894 
L 110.00298 80.593118 
L 110.539926 78.596947 
L 108.900529 73.873457 
L 109.483071 73.413568 
L 111.015511 73.988103 
L 112.33402 69.92784 
L 113.211885 70.045943 
L 112.876508 68.632102 
L 110.710382 68.113584 
L 110.805843 66.434753 
L 113.146688 66.012504 
L 115.687395 67.034596 
L 115.404004 64.941737 
L 113.159899 63.367816 
L 113.465869 61.829801 
L 114.991918 61.160948 
L 113.484621 60.261505 
L 114.013899 58.369164 
L 112.45803 58.543518 
L 111.604022 57.356591 
L 111.470215 53.915636 
L 112.989006 52.072831 
L 114.313906 51.657071 
L 115.671199 49.769275 
L 117.014851 49.589303 
L 118.153521 51.317671 
L 121.020229 52.249563 
L 121.46982 50.54174 
L 123.880554 50.40655 
L 123.878418 47.952432 
L 125.718964 48.805586 
L 125.875359 47.685065 
L 127.285915 47.346963 
L 127.710783 48.157931 
L 127.242019 49.125086 
L 127.907669 49.910963 
L 127.417595 51.319839 
L 129.265381 51.839429 
L 130.402352 50.280652 
L 132.744467 49.628668 
L 134.32378 50.912727 
L 136.524417 50.881575 
L 137.065207 52.506767 
L 137.945628 53.091465 
L 137.923041 54.257631 
L 139.305263 54.747374 
L 139.321879 55.484367 
L 140.273262 56.090699 
L 141.684454 55.563323 
L 141.752429 56.317185 
L 142.828887 56.920495 
L 144.650672 54.950277 
L 147.909872 53.965826 
L 151.520638 54.255035 
L 151.648054 54.759053 
L 152.36527 54.135417 
L 155.699678 58.359218 
L 156.699212 57.709402 
L 156.930609 59.675283 
L 155.99308 61.34071 
L 157.274513 62.440461 
L 158.207358 68.420977 
L 157.346959 68.792818 
L 157.347816 69.838067 
L 155.862893 70.647737 
L 154.618536 73.71295 
L 154.360503 76.745277 
L 152.281312 79.805726 
L 151.971507 81.7502 
L 153.890881 89.392887 
L 154.426558 89.34659 
L 154.582738 90.196286 
L 155.904439 90.307257 
L 156.060842 93.940725 
L 152.988788 94.097365 
L 152.445195 93.45829 
L 152.931747 92.200929 
L 151.975094 92.434959 
L 151.562027 94.284729 
L 148.187054 93.292057 
L 147.312273 93.634755 
L 145.873761 93.057683 
L 148.12565 93.057683 
L 148.234364 92.925507 
L 147.878008 92.223073 
L 147.498504 92.141313 
L 148.001161 92.995002 
L 146.662308 92.372279 
L 145.979803 93.035883 
L 144.855029 92.714985 
L 143.902063 92.911877 
L 143.625574 92.673418 
L 142.148138 93.120699 
L 141.241814 92.777323 
L 140.223082 93.349279 
L 140.336166 92.663204 
L 139.2218 93.777832 
L 144.373853 92.943222 
L 145.924765 93.349279 
L 138.528549 94.211826 
L 137.562834 93.480091 
L 134.991837 93.361544 
L 134.352947 94.100086 
L 136.101842 93.913751 
L 135.759579 93.577524 
L 137.623231 94.211826 
L 130.622962 95.037914 
L 121.948966 98.118472 
L 117.383462 100.780357 
L 116.418662 100.518054 
L 116.402045 94.685504 
L 117.936184 92.633744 
L 117.467848 88.206604 
L 117.073228 88.539515 
L 114.663352 87.267135 
L 113.609911 84.64192 
L 109.507794 84.07019 
L 109.454521 83.139386 
z
" clip-path="url(#p0b5d755bc5)" style="fill: #eeeeee; stroke: #000000; stroke-width: 0.3"/>
    <path d="M 151.85731 94.300059 
L 152.205617 93.920222 
L 153.149859 94.52421 
z
" clip-path="url(#p0b5d755bc5)" style="fill: #eeeeee; stroke: #000000; stroke-width: 0.3"/>
    <path d="M 77.739591 13.45337 
L 79.337228 13.79277 
L 81.398937 12.406614 
L 81.190548 10.069956 
L 82.168567 7.038499 
L 83.093734 7.038499 
L 83.839927 6.182097 
L 88.863806 10.707657 
L 90.429058 7.943568 
L 95.85309 8.515507 
L 101.161646 7.881046 
L 100.932376 6.643719 
L 101.717765 5.726754 
L 101.777429 7.41965 
L 133.429718 7.431764 
L 134.729903 0.585335 
L 132.502844 -1.221772 
L 124.505713 -72.101421 
L 139.114348 -72.109215 
L 188.330621 -39.514173 
L 188.397096 -36.475785 
L 191.738119 -35.292968 
L 193.539023 -32.838197 
L 195.956148 -32.076114 
L 197.024928 -32.583815 
L 198.670725 -30.764159 
L 205.254743 -28.788106 
L 205.766117 -25.169774 
L 204.47403 -23.053332 
L 205.964709 -21.883056 
L 213.74706 -23.109575 
L 213.378862 -0.285986 
L 212.361218 0.699553 
L 210.7998 5.584849 
L 207.957387 7.417054 
L 207.797149 8.605715 
L 203.891909 7.99894 
L 203.616624 8.730089 
L 189.856241 9.194742 
L 186.905576 11.642362 
L 184.401516 12.073703 
L 180.700402 11.603215 
L 180.677394 12.314464 
L 176.923866 11.019806 
L 175.365004 11.547399 
L 175.017265 10.900179 
L 172.940638 10.912293 
L 169.981454 13.274043 
L 164.882145 15.787643 
L 162.407064 16.0005 
L 162.086596 18.423892 
L 161.130323 18.633937 
L 158.575548 17.589349 
L 157.456481 18.079955 
L 155.230699 19.936598 
L 155.000152 22.857528 
L 153.579584 23.233271 
L 151.769938 22.471396 
L 152.085927 25.861952 
L 150.437369 26.087995 
L 150.429691 26.899834 
L 146.123877 25.075205 
L 146.56622 24.536795 
L 146.044397 24.135744 
L 142.994658 27.322518 
L 144.142489 29.826817 
L 143.765138 30.649471 
L 141.888159 30.701821 
L 142.696349 32.214737 
L 142.165365 33.04064 
L 142.540589 34.110971 
L 141.864079 34.000218 
L 141.267898 35.433533 
L 139.611876 36.629762 
L 136.906676 36.858626 
L 134.242815 38.120617 
L 135.275377 38.703373 
L 135.843009 41.522416 
L 134.901216 44.039265 
L 133.485118 44.448537 
L 134.085563 46.357313 
L 133.671349 48.947273 
L 133.333836 49.866834 
L 130.402352 50.280652 
L 129.265381 51.839429 
L 127.417595 51.319839 
L 127.907669 49.910963 
L 127.242019 49.125086 
L 127.710783 48.157931 
L 127.285915 47.346963 
L 125.875359 47.685065 
L 125.718964 48.805586 
L 123.878418 47.952432 
L 123.880554 50.40655 
L 121.46982 50.54174 
L 121.020229 52.249563 
L 118.153521 51.317671 
L 117.014851 49.589303 
L 115.671199 49.769275 
L 114.313906 51.657071 
L 112.989006 52.072831 
L 112.934464 50.680832 
L 111.01636 49.884139 
L 110.466631 48.929533 
L 110.210511 44.857374 
L 108.733051 44.615097 
L 108.28943 45.294767 
L 107.162265 45.36896 
L 109.808651 41.979057 
L 107.487837 40.90094 
L 106.912536 39.619694 
L 105.917051 39.548741 
L 106.143335 36.579145 
L 105.299561 36.305289 
L 104.85594 33.598297 
L 103.442398 32.787982 
L 101.37387 32.723083 
L 102.107693 33.69002 
L 101.879702 34.425933 
L 99.477074 35.260476 
L 98.695083 36.472285 
L 94.209429 34.861594 
L 92.191609 35.696572 
L 90.544542 37.602761 
L 88.559114 34.847746 
L 87.732806 34.989651 
L 86.587737 36.564435 
L 85.404322 36.465797 
L 83.97672 35.080939 
L 84.959423 33.466346 
L 85.048914 32.66468 
L 84.306556 32.134701 
L 84.957716 28.559635 
L 83.768331 27.377027 
L 83.108223 25.29239 
L 82.051796 24.898908 
L 81.335018 25.740592 
L 79.112643 22.415807 
L 80.22362 21.368833 
L 79.937673 18.550008 
L 78.089243 16.66567 
L 78.556944 14.567403 
z
" clip-path="url(#p0b5d755bc5)" style="fill: #eeeeee; stroke: #000000; stroke-width: 0.3"/>
    <path d="M 34.264749 13.600273 
L 37.258874 12.399465 
L 39.689267 9.61766 
L 42.525686 5.002453 
L 43.088906 1.74003 
L 44.498184 -1.077707 
L 45.840987 -1.447179 
L 49.634998 -0.832835 
L 51.351954 -1.670853 
L 54.146645 -1.681234 
L 54.291115 -2.373445 
L 55.390152 -2.591058 
L 60.071413 -2.334942 
L 63.60739 0.367722 
L 64.779087 2.187805 
L 65.656103 1.610675 
L 66.154703 2.311978 
L 67.672225 1.899675 
L 69.065942 3.779467 
L 69.709854 6.349746 
L 70.766495 6.576015 
L 70.979807 7.443878 
L 71.965471 7.306511 
L 73.08923 9.192582 
L 72.591908 9.468815 
L 75.919076 11.424532 
L 78.556944 14.567403 
L 78.089243 16.66567 
L 79.937673 18.550008 
L 80.22362 21.368833 
L 79.112643 22.415807 
L 81.335018 25.740592 
L 82.051796 24.898908 
L 83.108223 25.29239 
L 83.768331 27.377027 
L 84.919791 28.473756 
L 84.306556 32.134701 
L 84.961122 33.303679 
L 79.060228 33.274695 
L 76.941412 34.126543 
L 72.387568 32.194837 
L 71.242508 32.731304 
L 70.915006 31.342118 
L 53.569216 30.996875 
L 49.594937 33.007319 
L 45.097779 32.875369 
L 40.92466 33.901136 
L 40.328157 32.545538 
L 42.150874 31.387301 
L 42.533735 31.952116 
L 43.872588 32.0785 
L 46.68618 31.385945 
L 48.251193 32.021269 
L 49.161542 31.733072 
L 49.861167 32.187168 
L 50.97386 31.362093 
L 50.767161 30.129606 
L 51.823472 29.989936 
L 51.948968 29.667674 
L 50.647026 30.034902 
L 50.704743 31.248318 
L 49.892042 32.001168 
L 48.847465 31.449304 
L 47.646535 31.651655 
L 46.749266 30.581993 
L 46.298289 31.335529 
L 43.872588 31.958923 
L 42.797483 30.758449 
L 42.741109 31.449304 
L 41.697877 31.081055 
L 42.060278 30.305383 
L 42.009273 30.010029 
L 41.594532 31.392073 
L 40.708676 31.894542 
L 40.523451 31.008495 
L 41.167709 30.51999 
L 40.365745 30.696455 
L 40.31004 29.870024 
L 41.089837 27.001285 
L 48.306264 26.999987 
L 48.42686 25.520819 
L 52.893341 25.129279 
L 54.043093 23.37387 
L 60.383139 26.339791 
L 64.244697 25.679594 
L 64.919714 24.7185 
L 63.519606 23.464513 
L 60.410195 24.505207 
L 58.950209 22.948163 
L 57.314647 23.160585 
L 56.173842 21.778105 
L 54.548934 21.456873 
L 51.928533 21.854031 
L 50.904927 23.43141 
L 42.30214 23.39948 
L 42.735065 22.116006 
L 41.993168 22.836146 
L 41.738483 21.946357 
L 42.342135 21.233358 
L 42.915259 21.576743 
L 42.915259 19.919109 
L 41.158646 21.874818 
L 40.773097 20.34834 
L 42.178393 20.033571 
L 42.060278 19.576068 
L 43.92393 18.536387 
L 43.066261 18.318364 
L 41.537153 19.918088 
L 40.985503 19.804648 
L 41.55292 19.108008 
L 40.92913 19.399612 
L 40.540233 21.290589 
L 40.449966 19.44117 
L 39.043673 16.675038 
L 36.83709 14.160994 
L 35.243222 13.765151 
L 35.058327 14.467927 
z
" clip-path="url(#p0b5d755bc5)" style="fill: #eeeeee; stroke: #000000; stroke-width: 0.3"/>
    <path d="M 133.333836 49.866834 
L 134.085563 46.357313 
L 133.485118 44.448537 
L 134.901216 44.039265 
L 135.843009 41.522416 
L 135.275377 38.703373 
L 134.242815 38.120617 
L 136.906676 36.858626 
L 139.611876 36.629762 
L 141.267898 35.433533 
L 141.864079 34.000218 
L 142.540589 34.110971 
L 142.165365 33.04064 
L 142.696349 32.214737 
L 141.888159 30.701821 
L 143.765138 30.649471 
L 144.142489 29.826817 
L 143.192814 26.902002 
L 143.953496 26.842946 
L 146.073376 24.12774 
L 146.56622 24.536795 
L 146.123877 25.075205 
L 150.429691 26.899834 
L 150.437369 26.087995 
L 152.085927 25.861952 
L 151.769938 22.471396 
L 153.579584 23.233271 
L 155.000152 22.857528 
L 155.230699 19.936598 
L 157.456481 18.079955 
L 158.575548 17.589349 
L 161.130323 18.633937 
L 162.086596 18.423892 
L 162.407064 16.0005 
L 164.882145 15.787643 
L 169.981454 13.274043 
L 172.940638 10.912293 
L 175.017265 10.900179 
L 175.365004 11.547399 
L 176.923866 11.019806 
L 180.677394 12.314464 
L 180.185614 15.787643 
L 182.08198 17.834648 
L 181.920044 19.614068 
L 183.776786 22.545815 
L 186.272318 23.164914 
L 187.248202 24.414572 
L 189.338039 25.415902 
L 186.98654 25.228788 
L 186.98654 28.042206 
L 191.77221 31.392735 
L 194.080233 31.610783 
L 195.135382 30.621785 
L 196.268089 30.777529 
L 197.388863 33.134088 
L 195.795919 33.822406 
L 198.586347 37.551273 
L 197.739158 39.487308 
L 195.457556 41.483043 
L 192.083301 41.802978 
L 190.747746 41.090649 
L 189.846865 42.638827 
L 188.411586 42.666513 
L 188.428631 43.667842 
L 187.635993 43.867723 
L 188.091126 44.787501 
L 186.968645 44.386233 
L 186.81949 45.273569 
L 182.897205 45.615991 
L 182.888687 45.030213 
L 176.387983 43.692942 
L 173.641229 45.827551 
L 172.049562 45.008145 
L 155.477657 45.073689 
L 154.692895 48.118566 
L 156.053173 49.902741 
L 155.445051 50.555152 
L 156.157153 51.245639 
L 156.330593 54.912637 
L 155.824324 55.77315 
L 156.699212 57.709402 
L 156.085128 58.520152 
L 152.36527 54.135417 
L 151.648054 54.759053 
L 151.520638 54.255035 
L 147.909872 53.965826 
L 144.650672 54.950277 
L 142.828887 56.920495 
L 141.752429 56.317185 
L 141.684454 55.563323 
L 140.273262 56.090699 
L 139.321879 55.484367 
L 139.305263 54.747374 
L 137.923041 54.257631 
L 137.945628 53.091465 
L 137.065207 52.506767 
L 136.660361 50.971566 
L 134.32378 50.912727 
z
" clip-path="url(#p0b5d755bc5)" style="fill: #eeeeee; stroke: #000000; stroke-width: 0.3"/>
    <path d="M 151.971507 81.7502 
L 152.143241 80.128038 
L 154.360503 76.745277 
L 154.618536 73.71295 
L 155.862893 70.647737 
L 157.347816 69.838067 
L 157.346959 68.792818 
L 158.207358 68.420977 
L 157.274513 62.440461 
L 155.99308 61.34071 
L 156.941692 59.516291 
L 155.824324 55.77315 
L 156.330593 54.912637 
L 156.157153 51.245639 
L 155.445051 50.555152 
L 156.053173 49.902741 
L 154.692895 48.118566 
L 155.477657 45.073689 
L 172.049562 45.008145 
L 173.641229 45.827551 
L 176.387983 43.692942 
L 179.00944 44.533111 
L 178.149049 48.125489 
L 182.146336 51.057872 
L 181.738076 56.249046 
L 181.027904 56.299228 
L 181.990791 56.866412 
L 180.774126 56.980848 
L 181.365623 57.55257 
L 180.74622 58.181405 
L 182.270553 57.679983 
L 183.257734 58.442929 
L 182.432275 61.570002 
L 183.04551 62.920041 
L 181.892987 63.690773 
L 184.753518 67.678359 
L 183.608029 68.465533 
L 183.925083 72.689334 
L 182.962839 74.322956 
L 184.200376 75.83588 
L 183.807463 78.283719 
L 182.954312 78.769996 
L 183.131587 79.869319 
L 185.025397 83.225692 
L 186.98654 84.199336 
L 188.651171 86.075586 
L 186.749939 88.665941 
L 180.882485 88.958223 
L 172.282312 93.490313 
L 165.529009 95.100938 
L 162.535891 97.361537 
L 161.586281 97.478376 
L 159.442115 95.961777 
L 153.149859 94.52421 
L 156.060842 93.940725 
L 155.871626 92.384979 
L 156.361699 92.164763 
L 155.839671 90.197584 
L 154.582738 90.196286 
L 154.426558 89.34659 
L 153.890881 89.392887 
z
" clip-path="url(#p0b5d755bc5)" style="fill: #eeeeee; stroke: #000000; stroke-width: 0.3"/>
    <path d="M 40.92466 33.901136 
L 45.097779 32.875369 
L 49.594937 33.007319 
L 53.569216 30.996875 
L 65.665479 31.047492 
L 65.939708 34.23254 
L 64.744146 34.364926 
L 63.651286 35.416228 
L 65.701277 36.661776 
L 65.651847 39.114378 
L 64.496339 38.831004 
L 63.299919 39.723096 
L 61.035784 39.457453 
L 59.128763 40.763146 
L 57.560962 40.891421 
L 54.475672 45.662849 
L 55.170927 43.242144 
L 53.280432 45.100429 
L 53.474381 43.099754 
L 53.252583 44.031102 
L 52.224121 43.849539 
L 51.664084 42.658258 
L 52.9677 41.431899 
L 52.34861 41.889402 
L 52.26405 41.178111 
L 50.996678 42.060751 
L 51.273505 40.917508 
L 53.198222 40.226653 
L 52.859992 39.826046 
L 54.222661 39.88532 
L 54.161596 40.49032 
L 55.11791 39.935392 
L 53.760948 39.53512 
L 54.099178 39.130084 
L 53.297881 39.543299 
L 53.310631 38.735262 
L 51.560401 40.392895 
L 51.66241 39.249653 
L 51.251693 39.57873 
L 50.631259 38.919219 
L 51.560401 37.644143 
L 53.618003 37.763025 
L 54.43674 37.186297 
L 54.60553 38.329196 
L 55.706809 38.752977 
L 54.599147 37.850914 
L 55.118586 36.866421 
L 53.404591 37.441793 
L 51.66241 37.010176 
L 48.330385 38.791815 
L 49.123624 37.872723 
L 48.617619 37.644143 
L 47.270041 38.905247 
L 48.042144 36.917523 
L 49.23637 36.957717 
L 49.292744 36.552673 
L 48.054226 36.43822 
L 45.904353 37.644143 
L 44.003113 35.953801 
L 46.411035 33.746347 
L 43.157863 35.245582 
z
" clip-path="url(#p0b5d755bc5)" style="fill: #eeeeee; stroke: #000000; stroke-width: 0.3"/>
    <path d="M 48.801161 43.608008 
L 48.960211 42.746834 
L 49.748421 42.523017 
L 49.748421 43.099754 
z
" clip-path="url(#p0b5d755bc5)" style="fill: #eeeeee; stroke: #000000; stroke-width: 0.3"/>
    <path d="M 47.111667 44.654504 
L 47.542513 44.300228 
L 47.373724 43.380449 
L 47.941479 44.440575 
z
" clip-path="url(#p0b5d755bc5)" style="fill: #eeeeee; stroke: #000000; stroke-width: 0.3"/>
    <path d="M 46.242246 41.140973 
L 47.429767 39.992623 
L 47.772698 41.260206 
L 46.64122 41.54091 
z
" clip-path="url(#p0b5d755bc5)" style="fill: #eeeeee; stroke: #000000; stroke-width: 0.3"/>
    <path d="M 45.566783 37.763025 
L 46.626789 37.52866 
L 47.050593 37.62745 
L 46.590215 38.735262 
z
" clip-path="url(#p0b5d755bc5)" style="fill: #eeeeee; stroke: #000000; stroke-width: 0.3"/>
    <path d="M 44.886289 44.180651 
L 46.107358 43.314026 
L 46.528474 44.066532 
L 45.84328 44.814618 
z
" clip-path="url(#p0b5d755bc5)" style="fill: #eeeeee; stroke: #000000; stroke-width: 0.3"/>
    <path d="M 44.609124 43.02583 
L 45.228552 42.46068 
L 45.505379 43.208757 
L 44.858103 43.234652 
z
" clip-path="url(#p0b5d755bc5)" style="fill: #eeeeee; stroke: #000000; stroke-width: 0.3"/>
    <path d="M 43.416572 40.626247 
L 44.886289 40.169422 
L 44.659453 40.90865 
L 43.472946 40.969624 
z
" clip-path="url(#p0b5d755bc5)" style="fill: #eeeeee; stroke: #000000; stroke-width: 0.3"/>
    <path d="M 49.980626 40.62829 
L 50.818157 39.826046 
L 51.288604 40.317271 
z
" clip-path="url(#p0b5d755bc5)" style="fill: #eeeeee; stroke: #000000; stroke-width: 0.3"/>
    <path d="M 49.116244 41.290864 
L 49.461863 40.855162 
L 49.574271 41.369896 
z
" clip-path="url(#p0b5d755bc5)" style="fill: #eeeeee; stroke: #000000; stroke-width: 0.3"/>
    <path d="M 47.785447 42.974727 
L 48.367964 42.606821 
L 47.992822 43.380449 
z
" clip-path="url(#p0b5d755bc5)" style="fill: #eeeeee; stroke: #000000; stroke-width: 0.3"/>
    <path d="M 46.461702 43.687726 
L 47.142195 44.084247 
L 46.790877 44.482134 
z
" clip-path="url(#p0b5d755bc5)" style="fill: #eeeeee; stroke: #000000; stroke-width: 0.3"/>
    <path d="M 44.440343 41.260206 
L 45.566783 40.740709 
L 45.167141 41.369896 
z
" clip-path="url(#p0b5d755bc5)" style="fill: #eeeeee; stroke: #000000; stroke-width: 0.3"/>
    <path d="M 38.216202 -36.711255 
L 38.946307 -41.380118 
L 71.545501 -41.454101 
L 70.415351 -53.89967 
L 71.545501 -55.557304 
L 74.809592 -57.673964 
L 79.758262 -59.266053 
L 79.791503 -80.479803 
L 107.233003 -80.522634 
L 107.276471 -91.283964 
L 139.114348 -72.109215 
L 124.505713 -72.101421 
L 132.502844 -1.221772 
L 134.729903 0.585335 
L 133.429718 7.431764 
L 101.777429 7.41965 
L 101.717765 5.726754 
L 100.932376 6.643719 
L 101.161646 7.881046 
L 95.85309 8.515507 
L 90.429058 7.943568 
L 88.863806 10.707657 
L 83.839927 6.182097 
L 83.093734 7.038499 
L 82.168567 7.038499 
L 81.190548 10.069956 
L 81.398937 12.406614 
L 79.337228 13.79277 
L 76.763494 12.858282 
L 75.919076 11.424532 
L 72.591908 9.468815 
L 73.08923 9.192582 
L 71.965471 7.306511 
L 70.979807 7.443878 
L 70.766495 6.576015 
L 69.709854 6.349746 
L 69.065942 3.779467 
L 67.672225 1.899675 
L 66.154703 2.311978 
L 65.656103 1.610675 
L 64.779087 2.187805 
L 63.60739 0.367722 
L 60.071413 -2.334942 
L 55.390152 -2.591058 
L 54.291115 -2.373445 
L 54.146645 -1.681234 
L 51.351954 -1.670853 
L 49.634998 -0.832835 
L 44.67376 -1.182842 
L 43.148569 1.571737 
L 42.459244 4.797716 
L 42.56696 0.411767 
L 46.280501 -9.736048 
L 46.64122 -14.730749 
L 45.244658 -21.774154 
L 42.515955 -25.1068 
L 43.969558 -25.400104 
L 44.582282 -26.349854 
L 43.703468 -25.803784 
L 43.924598 -26.433314 
L 43.09646 -25.37251 
L 45.003728 -28.563101 
L 44.886289 -29.477756 
L 44.348065 -29.367388 
L 45.097012 -30.320545 
L 44.778244 -31.426658 
L 45.263781 -32.243888 
L 43.07901 -35.729147 
L 43.56153 -35.942055 
L 42.56696 -36.477225 
L 42.459244 -34.986168 
L 41.384477 -35.963177 
L 39.364792 -39.995185 
z
" clip-path="url(#p0b5d755bc5)" style="fill: #eeeeee; stroke: #000000; stroke-width: 0.3"/>
    <path d="M 43.652134 -26.941233 
L 43.974927 -27.590186 
L 44.444367 -27.968315 
z
" clip-path="url(#p0b5d755bc5)" style="fill: #eeeeee; stroke: #000000; stroke-width: 0.3"/>
    <path d="M 43.105514 -27.650481 
L 44.078948 -29.188546 
L 43.36523 -26.952477 
z
" clip-path="url(#p0b5d755bc5)" style="fill: #eeeeee; stroke: #000000; stroke-width: 0.3"/>
    <path d="M 43.020955 -35.265173 
L 43.250471 -35.375205 
L 43.186388 -35.072015 
z
" clip-path="url(#p0b5d755bc5)" style="fill: #eeeeee; stroke: #000000; stroke-width: 0.3"/>
    <path d="M 42.834056 -27.825238 
L 43.043105 -27.776178 
L 42.938415 -27.592564 
z
" clip-path="url(#p0b5d755bc5)" style="fill: #eeeeee; stroke: #000000; stroke-width: 0.3"/>
    <path d="M 40.089586 25.47896 
L 41.33381 24.159261 
L 43.472946 26.570087 
L 43.303826 25.9988 
L 44.80441 25.593078 
L 45.054732 26.169815 
L 45.202378 26.210352 
L 45.684229 25.9988 
L 45.058757 25.519497 
L 45.60235 24.724067 
L 50.058473 24.505367 
L 50.696695 24.046164 
L 52.369746 24.622549 
L 52.664698 24.501281 
L 52.747576 24.159261 
L 50.591997 23.890144 
L 45.764089 24.507409 
L 43.711187 25.492932 
L 42.628363 25.307267 
L 42.30214 23.39948 
L 50.904927 23.43141 
L 51.928533 21.854031 
L 54.372508 21.448225 
L 56.173842 21.778105 
L 57.314647 23.160585 
L 58.950209 22.948163 
L 60.410195 24.505207 
L 63.519606 23.464513 
L 64.919714 24.7185 
L 64.244697 25.679594 
L 60.383139 26.339791 
L 54.043093 23.37387 
L 52.893341 25.129279 
L 48.42686 25.520819 
L 48.306264 26.999987 
L 41.377492 26.937474 
L 40.716733 27.768852 
z
" clip-path="url(#p0b5d755bc5)" style="fill: #eeeeee; stroke: #000000; stroke-width: 0.3"/>
   </g>
   <g id="PatchCollection_2">
    <defs>
     <path id="m2acb13fa32" d="M 54.522982 -61.760079 
L 57.560962 -67.108579 
L 59.128763 -67.236854 
L 61.035784 -68.542547 
L 63.299919 -68.276904 
L 64.496339 -69.168996 
L 65.651847 -68.885622 
L 65.701277 -71.338224 
L 63.651286 -72.583772 
L 64.744146 -73.635074 
L 65.939708 -73.76746 
L 65.665479 -76.952508 
L 71.040724 -76.638844 
L 71.242508 -75.268696 
L 72.387568 -75.805163 
L 76.941412 -73.873457 
L 79.060228 -74.725305 
L 84.19235 -74.900095 
L 84.959423 -74.533654 
L 83.97672 -72.919061 
L 85.404322 -71.534203 
L 86.587737 -71.435565 
L 87.732806 -73.010349 
L 88.559114 -73.152254 
L 90.544542 -70.397239 
L 92.191609 -72.303428 
L 94.209429 -73.138406 
L 98.695083 -71.527715 
L 99.477074 -72.739524 
L 101.879702 -73.574067 
L 102.107693 -74.30998 
L 101.254972 -75.127226 
L 102.464808 -75.460783 
L 104.85594 -74.401703 
L 104.704443 -73.197245 
L 106.324453 -70.687973 
L 105.917051 -68.451259 
L 106.912536 -68.380306 
L 107.487837 -67.09906 
L 109.808651 -66.020943 
L 107.125189 -62.762556 
L 108.28943 -62.705233 
L 108.733051 -63.384903 
L 110.210511 -63.142626 
L 110.55825 -58.851121 
L 113.141146 -56.930223 
L 111.470215 -54.084364 
L 111.604022 -50.643409 
L 112.45803 -49.456482 
L 114.013899 -49.630836 
L 113.484621 -47.738495 
L 114.991918 -46.839052 
L 113.465869 -46.170199 
L 113.159899 -44.632184 
L 115.404004 -43.058263 
L 115.687395 -40.965404 
L 114.356524 -41.827642 
L 114.012192 -41.350657 
L 113.146688 -41.987496 
L 110.851438 -41.624303 
L 110.710382 -39.886416 
L 112.876508 -39.367898 
L 113.211885 -37.954057 
L 112.33402 -38.07216 
L 111.252449 -34.280135 
L 109.483071 -34.586432 
L 108.900529 -34.126543 
L 108.224654 -35.216783 
L 107.241951 -35.26827 
L 105.829687 -31.741009 
L 103.623087 -31.047492 
L 102.724763 -32.647375 
L 100.610631 -32.603246 
L 101.725863 -35.66629 
L 100.285479 -39.380013 
L 100.541171 -40.702574 
L 99.072229 -41.104923 
L 99.292551 -41.718396 
L 98.702332 -41.474177 
L 98.277884 -42.540615 
L 95.902099 -41.361474 
L 95.190426 -42.216361 
L 93.320481 -41.969329 
L 91.839186 -40.437803 
L 90.347236 -40.232304 
L 92.437074 -43.456936 
L 91.465454 -44.653382 
L 91.511478 -46.651939 
L 90.256038 -46.900704 
L 90.843272 -48.764698 
L 89.551614 -49.482008 
L 86.518277 -54.421604 
L 80.659143 -54.508346 
L 80.562832 -53.919746 
L 78.752122 -53.523451 
L 77.635611 -53.978802 
L 76.022628 -53.576881 
L 73.616157 -49.109723 
L 72.018315 -48.479816 
L 72.008081 -47.687878 
L 70.715358 -46.566922 
L 69.188246 -46.546368 
L 70.370729 -47.751949 
L 69.531177 -47.84291 
L 69.751301 -48.437688 
L 69.071137 -47.723333 
L 69.188246 -49.186452 
L 68.308426 -48.601888 
L 68.400366 -49.877307 
L 67.432639 -49.963153 
L 67.657793 -50.963319 
L 67.15648 -50.386591 
L 66.81858 -50.963319 
L 65.682409 -50.477544 
L 67.044072 -52.798095 
L 66.301161 -53.255255 
L 65.660259 -52.428481 
L 66.019971 -54.122909 
L 64.720718 -53.405481 
L 62.943637 -54.782754 
L 63.425489 -56.242809 
L 62.161465 -55.036885 
L 62.288642 -56.071116 
L 61.590699 -55.459301 
L 61.413523 -56.097346 
L 59.692815 -56.367493 
L 59.012652 -58.825662 
L 58.000294 -58.585847 
L 59.299548 -62.031239 
L 57.653677 -59.955283 
L 58.053311 -61.351971 
L 57.154706 -60.426073 
L 57.318457 -61.870455 
L 56.75574 -61.465068 
L 56.664806 -62.206339 
L 57.943253 -63.242613 
L 57.774472 -63.475965 
L 56.468844 -62.670656 
L 55.849754 -63.185382 
L 55.511516 -61.002801 
z
" style="stroke: #dd0000; stroke-width: 0.5"/>
    </defs>
    <g clip-path="url(#p0b5d755bc5)">
     <use xlink:href="#m2acb13fa32" x="0" y="108" style="fill: #ff6b6b; stroke: #dd0000; stroke-width: 0.5"/>
    </g>
   </g>
  </g>
 </g>
 <defs>
  <clipPath id="p0b5d755bc5">
   <rect x="0" y="0" width="170.210377" height="108"/>
  </clipPath>
 </defs>
</svg>
