<?xml version="1.0" encoding="utf-8" standalone="no"?>
<!DOCTYPE svg PUBLIC "-//W3C//DTD SVG 1.1//EN"
  "http://www.w3.org/Graphics/SVG/1.1/DTD/svg11.dtd">
<svg xmlns:xlink="http://www.w3.org/1999/xlink" width="169.146103pt" height="108pt" viewBox="0 0 169.146103 108" xmlns="http://www.w3.org/2000/svg" version="1.1">
 <metadata>
  <rdf:RDF xmlns:dc="http://purl.org/dc/elements/1.1/" xmlns:cc="http://creativecommons.org/ns#" xmlns:rdf="http://www.w3.org/1999/02/22-rdf-syntax-ns#">
   <cc:Work>
    <dc:type rdf:resource="http://purl.org/dc/dcmitype/StillImage"/>
    <dc:date>2025-09-05T15:49:28.419001</dc:date>
    <dc:format>image/svg+xml</dc:format>
    <dc:creator>
     <cc:Agent>
      <dc:title>Matplotlib v3.10.3, https://matplotlib.org/</dc:title>
     </cc:Agent>
    </dc:creator>
   </cc:Work>
  </rdf:RDF>
 </metadata>
 <defs>
  <style type="text/css">*{stroke-linejoin: round; stroke-linecap: butt}</style>
 </defs>
 <g id="figure_1">
  <g id="patch_1">
   <path d="M 0 108 
L 169.146103 108 
L 169.146103 0 
L 0 0 
z
" style="fill: #ffffff"/>
  </g>
  <g id="axes_1">
   <g id="PatchCollection_1">
    <path d="M 125.549563 114.515967 
L 129.521097 114.462178 
L 132.883057 111.528583 
L 132.909672 109.456045 
L 137.065154 107.80755 
L 143.323619 96.116793 
L 147.518477 95.064946 
L 150.422167 96.256622 
L 155.131248 95.219498 
L 155.381722 93.679106 
L 169.596532 93.659869 
L 177.337875 102.971262 
L 178.508213 106.833263 
L 181.867406 108.710497 
L 180.340198 113.588655 
L 183.605198 114.239684 
L 183.485505 119.469998 
L 186.012379 122.601154 
L 180.577375 131.040163 
L 190.293666 126.716784 
L 189.463556 133.322729 
L 183.21841 136.636744 
L 183.153019 142.395216 
L 168.097033 154.565469 
L 164.687569 161.010158 
L 156.893832 155.980253 
L 142.589161 150.70338 
L 145.530018 150.70338 
L 142.960915 149.493607 
L 144.267288 147.553667 
L 149.511118 146.038974 
L 143.508059 146.931384 
L 141.788047 144.925473 
L 143.760271 142.284813 
L 140.545391 144.263095 
L 133.339804 139.824251 
L 135.839999 139.144017 
L 133.899194 136.662948 
L 134.668868 135.077837 
L 132.605904 131.772981 
L 128.491299 133.581878 
L 125.856742 126.374881 
L 131.287306 129.081512 
L 129.516679 126.972187 
L 134.801515 124.864658 
L 133.483796 124.565107 
L 134.668868 122.322066 
L 130.680819 124.557088 
L 131.433914 123.070046 
L 128.624825 122.634084 
L 129.701677 124.605224 
L 128.523597 125.993299 
L 126.855057 119.240997 
L 132.313566 118.555416 
L 129.211259 118.402968 
L 130.396331 116.759007 
L 126.281726 116.474618 
z
" clip-path="url(#p60ba8f72c7)" style="fill: #eeeeee; stroke: #000000; stroke-width: 0.3"/>
    <path d="M 133.043971 146.637178 
L 140.126498 145.228595 
L 142.880619 146.799443 
L 141.665008 150.707827 
L 140.466833 148.757217 
z
" clip-path="url(#p60ba8f72c7)" style="fill: #eeeeee; stroke: #000000; stroke-width: 0.3"/>
    <path d="M 87.409871 74.700987 
L 95.310691 60.703718 
L 99.388043 60.368015 
L 104.347599 56.950958 
L 110.235896 57.646157 
L 113.347403 55.311511 
L 116.352514 56.053115 
L 116.481065 49.634543 
L 111.149691 46.374887 
L 113.991872 43.623582 
L 117.101148 43.277122 
L 116.387965 34.941702 
L 130.367271 35.762576 
L 130.892046 39.348317 
L 133.869984 37.944357 
L 145.713085 42.999721 
L 151.223452 40.770396 
L 164.570471 40.312963 
L 166.565385 41.271956 
L 164.009687 45.49742 
L 167.722426 49.121656 
L 170.800112 49.379798 
L 173.778071 45.258515 
L 175.927036 44.887143 
L 181.090505 52.097142 
L 185.374001 47.108559 
L 190.621713 44.923382 
L 202.287473 49.138636 
L 204.321184 45.967276 
L 210.569655 43.783239 
L 211.162587 41.857321 
L 208.944929 39.718549 
L 212.09133 38.845618 
L 218.309904 41.617277 
L 217.91591 44.7694 
L 222.12904 51.33628 
L 221.069516 57.189863 
L 223.658457 57.375549 
L 225.154632 60.728629 
L 231.190332 63.550111 
L 224.211499 72.07746 
L 227.239322 72.227477 
L 228.393038 70.448749 
L 232.235443 71.082798 
L 233.139801 82.313864 
L 239.857093 87.340943 
L 235.511531 94.788685 
L 235.859523 103.793822 
L 238.080526 106.900066 
L 242.126845 106.443772 
L 240.750363 111.396117 
L 244.670362 113.749999 
L 240.701594 115.500419 
L 239.905863 119.525474 
L 245.742067 123.6445 
L 246.479077 129.121607 
L 243.017906 126.865091 
L 242.122406 128.113382 
L 239.871505 126.446745 
L 233.90229 127.397237 
L 233.535447 131.945367 
L 239.168852 133.302352 
L 240.041062 137.002441 
L 237.758013 136.693359 
L 234.945192 146.617262 
L 230.343601 145.815669 
L 228.828596 147.01922 
L 227.070859 144.166013 
L 224.51516 144.031267 
L 220.842312 153.262273 
L 215.103646 155.077239 
L 212.767389 150.890271 
L 207.269204 151.005757 
L 210.169569 142.98963 
L 206.423588 133.270649 
L 207.088559 129.809444 
L 203.268309 128.756479 
L 203.841296 127.150993 
L 202.306324 127.790124 
L 201.202471 124.999206 
L 195.023808 128.085074 
L 193.172972 125.847796 
L 188.30984 126.494289 
L 184.457462 130.502364 
L 180.577375 131.040163 
L 186.012379 122.601154 
L 183.485505 119.469998 
L 183.605198 114.239684 
L 180.340198 113.588655 
L 181.867406 108.710497 
L 178.508213 106.833263 
L 170.619468 93.906114 
L 155.381722 93.679106 
L 155.131248 95.219498 
L 150.422167 96.256622 
L 147.518477 95.064946 
L 143.323619 96.116793 
L 137.065154 107.80755 
L 132.909672 109.456045 
L 132.883057 111.528583 
L 129.521097 114.462178 
L 125.549563 114.515967 
L 128.624825 111.360908 
L 126.441417 111.122857 
L 127.01389 109.566295 
L 125.245 111.435795 
L 125.549563 107.606746 
L 123.261431 109.136578 
L 123.500539 105.798747 
L 120.983787 105.574083 
L 121.569342 102.956604 
L 120.265586 104.465928 
L 119.386814 102.956604 
L 116.431995 104.2279 
L 119.973248 98.154911 
L 118.041172 96.958503 
L 116.37439 99.122208 
L 117.309888 94.687812 
L 113.930942 96.565353 
L 109.30932 92.960967 
L 110.562463 89.139937 
L 107.275137 92.295894 
L 107.605886 89.589264 
L 105.790758 91.190412 
L 105.329979 89.52062 
L 100.854965 88.813634 
L 99.086076 82.380492 
L 96.453256 83.008099 
L 99.832201 73.99135 
L 95.551815 79.42422 
L 96.591135 75.769026 
L 94.254149 78.192143 
L 94.680013 74.412128 
L 93.216565 75.473046 
L 92.980074 73.533106 
L 96.30491 70.821129 
L 95.865964 70.210436 
L 92.47044 72.317965 
L 90.860384 70.970904 
L 89.980733 76.682819 
z
" clip-path="url(#p60ba8f72c7)" style="fill: #eeeeee; stroke: #000000; stroke-width: 0.3"/>
    <path d="M 147.788896 -11.102921 
L 151.943842 -10.214696 
L 157.305691 -13.842329 
L 156.763737 -19.957472 
L 159.307254 -27.890933 
L 161.71332 -27.890933 
L 163.653932 -30.132177 
L 176.719443 -18.288578 
L 180.790168 -25.522327 
L 194.896351 -24.025535 
L 208.702219 -25.68595 
L 208.105962 -28.924091 
L 210.148509 -31.323831 
L 210.303675 -26.893444 
L 292.621224 -26.861741 
L 296.002593 -44.779161 
L 290.210718 -49.508441 
L 269.412721 -235.003737 
L 307.405139 -235.024135 
L 435.401032 -149.721414 
L 435.573912 -141.769811 
L 444.262849 -138.674325 
L 448.946431 -132.250078 
L 455.232605 -130.25567 
L 458.012162 -131.584348 
L 462.292356 -126.822225 
L 479.415295 -121.650804 
L 480.745216 -112.181463 
L 477.384908 -106.642637 
L 481.261692 -103.579971 
L 501.501114 -106.789827 
L 500.543547 -47.059448 
L 497.89698 -44.480245 
L 493.836228 -31.695202 
L 486.444013 -26.900236 
L 486.027285 -23.789457 
L 475.870997 -25.377416 
L 475.155068 -23.463964 
L 439.368684 -22.247947 
L 431.694941 -15.842411 
L 425.182677 -14.713573 
L 415.557255 -15.944862 
L 415.497419 -14.08349 
L 405.735683 -17.47167 
L 401.681579 -16.090935 
L 400.777222 -17.78474 
L 395.376575 -17.753036 
L 387.680677 -11.572229 
L 374.418994 -4.994022 
L 367.982094 -4.436965 
L 367.14866 1.905164 
L 364.661698 2.454859 
L 358.017538 -0.278874 
L 355.1072 1.005064 
L 349.31865 5.863985 
L 348.719069 13.508193 
L 345.024623 14.491528 
L 340.318309 12.497668 
L 341.140097 21.370908 
L 336.852719 21.962473 
L 336.832752 24.087091 
L 325.634699 19.311953 
L 326.785091 17.90291 
L 325.427997 16.853342 
L 317.496594 25.193274 
L 320.481738 31.74714 
L 319.500366 33.900065 
L 314.61894 34.037067 
L 316.720787 37.996436 
L 315.339866 40.157863 
L 316.315705 42.958969 
L 314.556316 42.669124 
L 313.005839 46.420174 
L 308.699052 49.55076 
L 301.663686 50.149709 
L 294.735831 53.452397 
L 297.421195 54.977496 
L 298.897425 62.355061 
L 296.448123 68.941769 
L 292.765302 70.012853 
L 294.326867 75.008207 
L 293.249629 81.786253 
L 292.371865 84.192785 
L 284.748006 85.275766 
L 281.791107 89.355157 
L 276.985602 87.995367 
L 278.260127 84.308272 
L 276.528984 82.251596 
L 277.748091 79.720507 
L 276.643143 77.598168 
L 272.974734 78.482996 
L 272.568001 81.415451 
L 267.781326 79.182708 
L 267.78688 85.605246 
L 261.517327 85.959046 
L 260.348083 90.428498 
L 252.892687 87.989693 
L 249.93137 83.466474 
L 246.436956 83.93747 
L 242.90707 88.877917 
L 239.461426 89.965981 
L 239.319579 86.323056 
L 234.331199 84.238073 
L 232.90153 81.739826 
L 232.235443 71.082798 
L 228.393038 70.448749 
L 227.239322 72.227477 
L 224.307923 72.421642 
L 231.190332 63.550111 
L 225.154632 60.728629 
L 223.658457 57.375549 
L 221.069516 57.189863 
L 221.658009 49.418293 
L 219.463621 48.701601 
L 218.309904 41.617277 
L 214.633731 39.496646 
L 209.254145 39.326801 
L 211.162587 41.857321 
L 210.569655 43.783239 
L 204.321184 45.967276 
L 202.287473 49.138636 
L 190.621713 44.923382 
L 185.374001 47.108559 
L 181.090505 52.097142 
L 175.927036 44.887143 
L 173.778071 45.258515 
L 170.800112 49.379798 
L 167.722426 49.121656 
L 164.009687 45.49742 
L 166.565385 41.271956 
L 166.798123 39.173958 
L 164.867484 37.786978 
L 166.560946 28.430868 
L 163.467733 25.335929 
L 161.751002 19.880338 
L 159.003571 18.850576 
L 157.139459 21.053303 
L 151.359767 12.352187 
L 154.249066 9.612209 
L 153.505407 2.235213 
L 148.698229 -2.696185 
L 149.91457 -8.187446 
z
" clip-path="url(#p60ba8f72c7)" style="fill: #eeeeee; stroke: #000000; stroke-width: 0.3"/>
    <path d="M 34.724643 -10.718469 
L 42.51141 -13.86104 
L 48.832092 -21.14115 
L 56.208715 -33.21936 
L 57.673471 -41.75727 
L 61.338556 -49.131417 
L 64.83076 -50.098341 
L 74.697778 -48.490576 
L 79.163033 -50.683706 
L 86.431137 -50.710875 
L 86.806859 -52.522423 
L 89.665104 -53.091925 
L 101.839576 -52.42166 
L 111.035531 -45.348663 
L 114.082741 -40.585422 
L 116.36358 -42.095798 
L 117.660281 -40.260456 
L 121.606874 -41.339471 
L 125.231489 -36.419969 
L 126.906099 -29.693433 
L 129.654087 -29.101276 
L 130.208845 -26.830037 
L 132.772243 -27.189534 
L 135.694784 -22.2536 
L 134.401408 -21.530685 
L 143.054315 -16.412483 
L 149.91457 -8.187446 
L 148.698229 -2.696185 
L 153.505407 2.235213 
L 154.249066 9.612209 
L 151.359767 12.352187 
L 157.139459 21.053303 
L 159.003571 18.850576 
L 161.751002 19.880338 
L 163.467733 25.335929 
L 166.462313 28.206117 
L 164.867484 37.786978 
L 166.569803 40.846248 
L 151.223452 40.770396 
L 145.713085 42.999721 
L 133.869984 37.944357 
L 130.892046 39.348317 
L 130.040318 35.712753 
L 84.929429 34.809235 
L 74.59359 40.070662 
L 62.897912 39.725341 
L 52.044955 42.409821 
L 50.493641 38.862159 
L 55.233948 35.831 
L 56.229647 37.309147 
L 59.711578 37.639898 
L 67.028838 35.827451 
L 71.098941 37.490122 
L 73.466467 36.735898 
L 75.28597 37.924287 
L 78.179731 35.76503 
L 77.642173 32.539552 
L 80.389303 32.174031 
L 80.715677 31.330656 
L 77.32974 32.291708 
L 77.479844 35.467275 
L 75.366266 37.437517 
L 72.649654 35.993265 
L 69.526416 36.522825 
L 67.192904 33.723472 
L 66.020057 35.69551 
L 59.711578 37.32696 
L 56.915571 34.185265 
L 56.768963 35.993265 
L 54.055847 35.029539 
L 54.998337 32.999571 
L 54.86569 32.226614 
L 53.787079 35.843489 
L 51.483249 37.158473 
L 51.001538 34.839646 
L 52.677049 33.561208 
L 50.591394 34.023023 
L 50.446523 31.860216 
L 52.474529 24.352594 
L 71.242161 24.349198 
L 71.555795 20.478148 
L 83.171692 19.453469 
L 86.161833 14.859482 
L 102.650276 22.621433 
L 112.692962 20.893668 
L 114.448469 18.378441 
L 110.807232 15.096699 
L 102.720642 17.820244 
L 98.923683 13.745389 
L 94.670104 14.301307 
L 91.703233 10.683293 
L 87.477364 9.842613 
L 80.662532 10.881993 
L 78.000459 15.010068 
L 55.627342 14.926504 
L 56.753243 11.567596 
L 54.823805 13.452235 
L 54.16145 11.123615 
L 55.731358 9.257664 
L 57.221871 10.156318 
L 57.221871 5.818215 
L 52.653479 10.936395 
L 51.650789 6.941532 
L 55.305515 6.117767 
L 54.998337 4.92046 
L 59.845105 2.199566 
L 57.614579 1.62899 
L 53.637854 5.815542 
L 52.203187 5.518664 
L 53.67886 3.695525 
L 52.056579 4.458667 
L 51.045181 9.40744 
L 50.810428 4.567427 
L 47.153106 -2.671668 
L 41.414484 -9.251036 
L 37.269339 -10.286977 
L 36.788486 -8.447778 
z
" clip-path="url(#p60ba8f72c7)" style="fill: #eeeeee; stroke: #000000; stroke-width: 0.3"/>
    <path d="M 52.044955 42.409821 
L 62.897912 39.725341 
L 74.59359 40.070662 
L 84.929429 34.809235 
L 116.387965 34.941702 
L 117.101148 43.277122 
L 113.991872 43.623582 
L 111.149691 46.374887 
L 116.481065 49.634543 
L 116.352514 56.053115 
L 113.347403 55.311511 
L 110.235896 57.646157 
L 104.347599 56.950958 
L 99.388043 60.368015 
L 95.310691 60.703718 
L 87.286833 73.190765 
L 89.094969 66.855669 
L 84.178392 71.718884 
L 84.682794 66.483027 
L 84.105967 68.920407 
L 81.431262 68.445249 
L 79.974785 65.327612 
L 83.365075 62.118172 
L 81.755019 63.315479 
L 81.535106 61.453998 
L 78.239073 63.763907 
L 78.959012 60.771989 
L 83.964592 58.963989 
L 83.084962 57.915582 
L 86.628831 58.070704 
L 86.47002 59.654018 
L 88.957089 58.201747 
L 85.428061 57.154216 
L 86.307691 56.094218 
L 84.223773 57.175622 
L 84.25693 55.060951 
L 79.705137 59.399053 
L 79.970431 56.407134 
L 78.902286 57.268344 
L 77.288734 55.542375 
L 79.705137 52.205443 
L 85.056307 52.516562 
L 87.185583 51.007238 
L 87.624551 53.998258 
L 90.48863 55.107312 
L 87.607952 52.746572 
L 88.958848 50.170107 
L 84.501292 51.675882 
L 79.970431 50.546321 
L 71.304892 55.208952 
L 73.367856 52.803647 
L 72.051896 52.205443 
L 68.547274 55.505808 
L 70.555271 50.303845 
L 73.661073 50.409034 
L 73.807682 49.349014 
L 70.58669 49.049485 
L 64.995556 52.205443 
L 60.051034 47.781739 
L 66.313274 42.00473 
L 57.852807 45.928298 
z
" clip-path="url(#p60ba8f72c7)" style="fill: #eeeeee; stroke: #000000; stroke-width: 0.3"/>
    <path d="M 72.529232 67.81315 
L 72.942872 65.559418 
L 74.992753 64.97368 
L 74.992753 66.483027 
z
" clip-path="url(#p60ba8f72c7)" style="fill: #eeeeee; stroke: #000000; stroke-width: 0.3"/>
    <path d="M 68.135394 70.551879 
L 69.255889 69.624721 
L 68.816922 67.217619 
L 70.293473 69.992017 
z
" clip-path="url(#p60ba8f72c7)" style="fill: #eeeeee; stroke: #000000; stroke-width: 0.3"/>
    <path d="M 65.874306 61.356806 
L 68.962672 58.351522 
L 69.854527 61.668846 
L 66.911911 62.40346 
z
" clip-path="url(#p60ba8f72c7)" style="fill: #eeeeee; stroke: #000000; stroke-width: 0.3"/>
    <path d="M 64.117642 52.516562 
L 66.87438 51.903218 
L 67.97656 52.161754 
L 66.779264 55.060951 
z
" clip-path="url(#p60ba8f72c7)" style="fill: #eeeeee; stroke: #000000; stroke-width: 0.3"/>
    <path d="M 62.347894 69.311783 
L 65.523505 67.043787 
L 66.618694 69.01313 
L 64.836723 70.970904 
z
" clip-path="url(#p60ba8f72c7)" style="fill: #eeeeee; stroke: #000000; stroke-width: 0.3"/>
    <path d="M 61.627076 66.289563 
L 63.238012 64.81054 
L 63.957951 66.768293 
L 62.27459 66.83606 
z
" clip-path="url(#p60ba8f72c7)" style="fill: #eeeeee; stroke: #000000; stroke-width: 0.3"/>
    <path d="M 58.525628 60.009746 
L 62.347894 58.814214 
L 61.757964 60.748808 
L 58.672236 60.908377 
z
" clip-path="url(#p60ba8f72c7)" style="fill: #eeeeee; stroke: #000000; stroke-width: 0.3"/>
    <path d="M 75.596645 60.015092 
L 77.774799 57.915582 
L 78.998281 59.201141 
z
" clip-path="url(#p60ba8f72c7)" style="fill: #eeeeee; stroke: #000000; stroke-width: 0.3"/>
    <path d="M 73.348662 61.749079 
L 74.247507 60.608826 
L 74.539845 61.955908 
z
" clip-path="url(#p60ba8f72c7)" style="fill: #eeeeee; stroke: #000000; stroke-width: 0.3"/>
    <path d="M 69.887683 66.155825 
L 71.402624 65.192998 
L 70.426999 67.217619 
z
" clip-path="url(#p60ba8f72c7)" style="fill: #eeeeee; stroke: #000000; stroke-width: 0.3"/>
    <path d="M 66.445042 68.021776 
L 68.214789 69.059491 
L 67.301123 70.100778 
z
" clip-path="url(#p60ba8f72c7)" style="fill: #eeeeee; stroke: #000000; stroke-width: 0.3"/>
    <path d="M 61.18813 61.668846 
L 64.117642 60.309297 
L 63.078299 61.955908 
z
" clip-path="url(#p60ba8f72c7)" style="fill: #eeeeee; stroke: #000000; stroke-width: 0.3"/>
    <path d="M 49.873192 20.368599 
L 53.109025 16.914887 
L 58.672236 23.224129 
L 58.232411 21.729046 
L 62.134952 20.667251 
L 62.785961 22.176598 
L 63.16994 22.282685 
L 64.423083 21.729046 
L 62.796427 20.474686 
L 64.21014 18.393011 
L 75.7991 17.820661 
L 77.458912 16.618907 
L 81.809987 18.127333 
L 82.577065 17.809969 
L 82.792603 16.914887 
L 77.186627 16.210595 
L 64.630771 17.826007 
L 59.291827 20.405166 
L 56.475746 19.919272 
L 55.627342 14.926504 
L 78.000459 15.010068 
L 80.662532 10.881993 
L 87.018536 9.81998 
L 91.703233 10.683293 
L 94.670104 14.301307 
L 98.923683 13.745389 
L 102.720642 17.820244 
L 110.807232 15.096699 
L 114.448469 18.378441 
L 112.692962 20.893668 
L 102.650276 22.621433 
L 86.161833 14.859482 
L 83.171692 19.453469 
L 71.555795 20.478148 
L 71.242161 24.349198 
L 53.222627 24.185598 
L 51.504202 26.361353 
z
" clip-path="url(#p60ba8f72c7)" style="fill: #eeeeee; stroke: #000000; stroke-width: 0.3"/>
   </g>
   <g id="PatchCollection_2">
    <path d="M 52.044955 42.409821 
L 62.897912 39.725341 
L 74.59359 40.070662 
L 84.929429 34.809235 
L 116.387965 34.941702 
L 117.101148 43.277122 
L 113.991872 43.623582 
L 111.149691 46.374887 
L 116.481065 49.634543 
L 116.352514 56.053115 
L 113.347403 55.311511 
L 110.235896 57.646157 
L 104.347599 56.950958 
L 99.388043 60.368015 
L 95.310691 60.703718 
L 87.286833 73.190765 
L 89.094969 66.855669 
L 84.178392 71.718884 
L 84.682794 66.483027 
L 84.105967 68.920407 
L 81.431262 68.445249 
L 79.974785 65.327612 
L 83.365075 62.118172 
L 81.755019 63.315479 
L 81.535106 61.453998 
L 78.239073 63.763907 
L 78.959012 60.771989 
L 83.964592 58.963989 
L 83.084962 57.915582 
L 86.628831 58.070704 
L 86.47002 59.654018 
L 88.957089 58.201747 
L 85.428061 57.154216 
L 86.307691 56.094218 
L 84.223773 57.175622 
L 84.25693 55.060951 
L 79.705137 59.399053 
L 79.970431 56.407134 
L 78.902286 57.268344 
L 77.288734 55.542375 
L 79.705137 52.205443 
L 85.056307 52.516562 
L 87.185583 51.007238 
L 87.624551 53.998258 
L 90.48863 55.107312 
L 87.607952 52.746572 
L 88.958848 50.170107 
L 84.501292 51.675882 
L 79.970431 50.546321 
L 71.304892 55.208952 
L 73.367856 52.803647 
L 72.051896 52.205443 
L 68.547274 55.505808 
L 70.555271 50.303845 
L 73.661073 50.409034 
L 73.807682 49.349014 
L 70.58669 49.049485 
L 64.995556 52.205443 
L 60.051034 47.781739 
L 66.313274 42.00473 
L 57.852807 45.928298 
z
" clip-path="url(#p60ba8f72c7)" style="fill: #ff6b6b; stroke: #dd0000; stroke-width: 0.5"/>
    <path d="M 72.529232 67.81315 
L 72.942872 65.559418 
L 74.992753 64.97368 
L 74.992753 66.483027 
z
" clip-path="url(#p60ba8f72c7)" style="fill: #ff6b6b; stroke: #dd0000; stroke-width: 0.5"/>
    <path d="M 68.135394 70.551879 
L 69.255889 69.624721 
L 68.816922 67.217619 
L 70.293473 69.992017 
z
" clip-path="url(#p60ba8f72c7)" style="fill: #ff6b6b; stroke: #dd0000; stroke-width: 0.5"/>
    <path d="M 65.874306 61.356806 
L 68.962672 58.351522 
L 69.854527 61.668846 
L 66.911911 62.40346 
z
" clip-path="url(#p60ba8f72c7)" style="fill: #ff6b6b; stroke: #dd0000; stroke-width: 0.5"/>
    <path d="M 64.117642 52.516562 
L 66.87438 51.903218 
L 67.97656 52.161754 
L 66.779264 55.060951 
z
" clip-path="url(#p60ba8f72c7)" style="fill: #ff6b6b; stroke: #dd0000; stroke-width: 0.5"/>
    <path d="M 62.347894 69.311783 
L 65.523505 67.043787 
L 66.618694 69.01313 
L 64.836723 70.970904 
z
" clip-path="url(#p60ba8f72c7)" style="fill: #ff6b6b; stroke: #dd0000; stroke-width: 0.5"/>
    <path d="M 61.627076 66.289563 
L 63.238012 64.81054 
L 63.957951 66.768293 
L 62.27459 66.83606 
z
" clip-path="url(#p60ba8f72c7)" style="fill: #ff6b6b; stroke: #dd0000; stroke-width: 0.5"/>
    <path d="M 58.525628 60.009746 
L 62.347894 58.814214 
L 61.757964 60.748808 
L 58.672236 60.908377 
z
" clip-path="url(#p60ba8f72c7)" style="fill: #ff6b6b; stroke: #dd0000; stroke-width: 0.5"/>
    <path d="M 75.596645 60.015092 
L 77.774799 57.915582 
L 78.998281 59.201141 
z
" clip-path="url(#p60ba8f72c7)" style="fill: #ff6b6b; stroke: #dd0000; stroke-width: 0.5"/>
    <path d="M 73.348662 61.749079 
L 74.247507 60.608826 
L 74.539845 61.955908 
z
" clip-path="url(#p60ba8f72c7)" style="fill: #ff6b6b; stroke: #dd0000; stroke-width: 0.5"/>
    <path d="M 69.887683 66.155825 
L 71.402624 65.192998 
L 70.426999 67.217619 
z
" clip-path="url(#p60ba8f72c7)" style="fill: #ff6b6b; stroke: #dd0000; stroke-width: 0.5"/>
    <path d="M 66.445042 68.021776 
L 68.214789 69.059491 
L 67.301123 70.100778 
z
" clip-path="url(#p60ba8f72c7)" style="fill: #ff6b6b; stroke: #dd0000; stroke-width: 0.5"/>
    <path d="M 61.18813 61.668846 
L 64.117642 60.309297 
L 63.078299 61.955908 
z
" clip-path="url(#p60ba8f72c7)" style="fill: #ff6b6b; stroke: #dd0000; stroke-width: 0.5"/>
   </g>
  </g>
 </g>
 <defs>
  <clipPath id="p60ba8f72c7">
   <rect x="0" y="0" width="169.146103" height="108"/>
  </clipPath>
 </defs>
</svg>
