<?xml version="1.0" encoding="utf-8" standalone="no"?>
<!DOCTYPE svg PUBLIC "-//W3C//DTD SVG 1.1//EN"
  "http://www.w3.org/Graphics/SVG/1.1/DTD/svg11.dtd">
<svg xmlns:xlink="http://www.w3.org/1999/xlink" width="163.329849pt" height="108pt" viewBox="0 0 163.329849 108" xmlns="http://www.w3.org/2000/svg" version="1.1">
 <metadata>
  <rdf:RDF xmlns:dc="http://purl.org/dc/elements/1.1/" xmlns:cc="http://creativecommons.org/ns#" xmlns:rdf="http://www.w3.org/1999/02/22-rdf-syntax-ns#">
   <cc:Work>
    <dc:type rdf:resource="http://purl.org/dc/dcmitype/StillImage"/>
    <dc:date>2025-09-05T15:49:28.459154</dc:date>
    <dc:format>image/svg+xml</dc:format>
    <dc:creator>
     <cc:Agent>
      <dc:title>Matplotlib v3.10.3, https://matplotlib.org/</dc:title>
     </cc:Agent>
    </dc:creator>
   </cc:Work>
  </rdf:RDF>
 </metadata>
 <defs>
  <style type="text/css">*{stroke-linejoin: round; stroke-linecap: butt}</style>
 </defs>
 <g id="figure_1">
  <g id="patch_1">
   <path d="M 0 108 
L 163.329849 108 
L 163.329849 0 
L 0 0 
z
" style="fill: #ffffff"/>
  </g>
  <g id="axes_1">
   <g id="PatchCollection_1">
    <path d="M 59.705491 64.243726 
L 60.79575 61.172007 
L 63.305362 60.309555 
L 70.290935 62.449732 
L 73.638961 61.797912 
L 71.660665 62.328143 
L 72.623436 63.068321 
L 84.169134 64.165998 
L 87.066228 64.107522 
L 88.917035 62.096919 
L 92.663224 62.599227 
L 93.024344 60.0976 
L 89.642408 58.426517 
L 85.567758 54.06179 
L 87.209428 52.988722 
L 85.724757 51.138898 
L 87.104536 50.134936 
L 86.19452 48.778797 
L 87.333768 47.645261 
L 82.656202 45.071867 
L 76.369625 44.540982 
L 75.464641 43.090493 
L 77.054807 41.519755 
L 76.202578 41.519755 
L 80.110798 39.614117 
L 86.146797 39.512467 
L 92.180897 41.691834 
L 92.971589 43.19216 
L 94.749546 42.075884 
L 100.880374 44.202768 
L 100.526169 43.313748 
L 101.868256 43.330355 
L 102.695157 48.155358 
L 101.573721 49.578071 
L 103.624358 52.436185 
L 100.20186 55.506923 
L 102.238128 56.843581 
L 102.44072 58.756142 
L 100.569555 61.164055 
L 97.972569 61.477122 
L 99.480037 64.221714 
L 102.610607 66.140203 
L 101.578104 70.614418 
L 97.016728 67.376581 
L 84.451121 68.945997 
L 76.867031 67.040376 
L 72.503479 67.82043 
L 72.714499 67.030415 
L 69.918517 68.936036 
L 70.437886 70.781859 
L 69.211356 70.827712 
L 65.634097 67.211801 
L 61.511075 66.38124 
z
" clip-path="url(#p4542633c9f)" style="fill: #eeeeee; stroke: #000000; stroke-width: 0.3"/>
    <path d="M 78.118071 55.962758 
L 79.590796 55.437197 
L 85.065336 57.749453 
L 85.641859 59.491633 
z
" clip-path="url(#p4542633c9f)" style="fill: #eeeeee; stroke: #000000; stroke-width: 0.3"/>
    <path d="M 83.301826 37.596868 
L 85.739837 37.172288 
L 88.438474 38.461982 
z
" clip-path="url(#p4542633c9f)" style="fill: #eeeeee; stroke: #000000; stroke-width: 0.3"/>
    <path d="M 71.767425 69.71676 
L 71.886749 69.486858 
L 73.768966 70.161931 
z
" clip-path="url(#p4542633c9f)" style="fill: #eeeeee; stroke: #000000; stroke-width: 0.3"/>
    <path d="M 70.81282 61.647747 
L 71.268769 60.855724 
L 71.660665 61.436462 
z
" clip-path="url(#p4542633c9f)" style="fill: #eeeeee; stroke: #000000; stroke-width: 0.3"/>
    <path d="M 97.972569 61.477122 
L 100.569555 61.164055 
L 102.44072 58.756142 
L 102.238128 56.843581 
L 100.20186 55.506923 
L 103.624358 52.436185 
L 101.573721 49.578071 
L 102.695157 48.155358 
L 101.868256 43.330355 
L 103.349779 40.33372 
L 110.900577 41.30646 
L 113.545209 39.614117 
L 119.367055 42.408775 
L 122.299324 42.267248 
L 124.658835 44.282505 
L 129.807415 43.843979 
L 132.578903 50.031277 
L 139.247961 50.134936 
L 140.858222 48.992745 
L 140.618309 50.033269 
L 141.89196 49.912334 
L 140.512815 51.928929 
L 134.900106 51.24788 
L 135.036392 53.40001 
L 148.444828 55.506956 
L 154.706278 61.828481 
L 152.829094 65.411815 
L 150.772298 65.013149 
L 149.874846 67.747339 
L 148.394574 67.91545 
L 145.623719 64.522795 
L 131.285788 63.540077 
L 128.737251 64.538079 
L 126.341947 67.476255 
L 120.460447 67.920104 
L 120.049721 64.958005 
L 118.129829 64.231772 
L 114.600926 66.984562 
L 112.262776 66.284897 
L 112.615731 68.935367 
L 107.119212 77.708681 
L 105.353819 75.254899 
L 103.074073 75.088111 
L 103.390603 72.017715 
L 101.578104 70.614418 
L 102.610607 66.140203 
L 99.480037 64.221714 
z
" clip-path="url(#p4542633c9f)" style="fill: #eeeeee; stroke: #000000; stroke-width: 0.3"/>
    <path d="M 147.716307 68.043685 
L 148.216213 68.027731 
L 151.036073 69.494158 
z
" clip-path="url(#p4542633c9f)" style="fill: #eeeeee; stroke: #000000; stroke-width: 0.3"/>
    <path d="M 105.203102 78.176452 
L 105.516483 77.439589 
L 106.349249 78.109339 
z
" clip-path="url(#p4542633c9f)" style="fill: #eeeeee; stroke: #000000; stroke-width: 0.3"/>
    <path d="M 49.269793 40.278363 
L 49.70597 39.061188 
L 50.355545 39.060649 
L 50.35468 40.274869 
z
" clip-path="url(#p4542633c9f)" style="fill: #eeeeee; stroke: #000000; stroke-width: 0.3"/>
    <path d="M 48.226994 40.228738 
L 48.287034 39.618199 
L 49.401958 39.594358 
z
" clip-path="url(#p4542633c9f)" style="fill: #eeeeee; stroke: #000000; stroke-width: 0.3"/>
    <path d="M -101.745844 7.950059 
L -95.135838 5.153409 
L -91.542882 5.59992 
L -93.967697 2.589976 
L -90.374741 -3.58336 
L -89.320907 -3.360105 
L -87.829969 -5.79065 
L -77.727486 -8.381321 
L -75.145656 -10.421823 
L -74.26955 -9.250403 
L -72.598369 -10.711523 
L -71.1024 -9.948729 
L -59.605691 -13.563317 
L -49.755668 -12.967965 
L -48.947396 -11.162018 
L -43.087875 -13.859646 
L -45.20434 -12.522793 
L -43.087875 -10.961346 
L -41.991334 -12.086913 
L -35.586699 -11.853697 
L -34.569908 -12.940058 
L -33.945028 -10.51219 
L -32.011323 -9.573986 
L -26.064504 -9.724821 
L -24.062346 -7.930827 
L -23.239011 -8.49228 
L -22.155651 -8.722181 
L -23.146682 -7.463709 
L -19.975766 -6.452431 
L -15.192057 -0.80864 
L -6.54975 -0.440544 
L -5.82061 0.774051 
L -5.411134 -0.380076 
L 4.513622 4.517527 
L 7.245551 8.06301 
L 7.677006 6.490932 
L 8.509772 6.490932 
L 7.855367 7.397898 
L 9.351969 9.128109 
L 13.919626 9.581919 
L 14.31089 11.528739 
L 15.593956 11.839046 
L 14.025136 9.172623 
L 11.470301 7.829124 
L 12.370269 7.104884 
L 18.884829 11.417128 
L 18.568932 13.211122 
L 15.330181 12.277572 
L 17.014559 13.001159 
L 16.969336 14.488177 
L 18.453991 14.427056 
L 19.589473 12.368608 
L 23.857563 15.775879 
L 22.691938 17.248282 
L 23.953025 15.897467 
L 26.022385 16.454935 
L 25.047051 17.604425 
L 27.976186 17.569872 
L 26.92297 18.583812 
L 28.091111 19.252239 
L 29.34655 18.583812 
L 28.275121 17.661562 
L 30.404767 17.624347 
L 35.812738 21.046249 
L 40.955035 20.324654 
L 42.892507 22.048889 
L 40.347103 24.074106 
L 43.314547 25.181744 
L 39.932611 24.947858 
L 40.638521 27.239523 
L 42.049076 25.850171 
L 43.314547 27.420909 
L 45.034717 26.50266 
L 46.992917 27.741847 
L 47.864624 27.644164 
L 47.278671 26.788358 
L 51.846328 27.15381 
L 55.902148 28.647474 
L 61.190162 33.917844 
L 63.613727 33.351084 
L 65.100265 34.639439 
L 63.128251 37.481256 
L 54.707629 37.988234 
L 50.35468 40.274869 
L 50.394332 37.596868 
L 47.42752 40.421425 
L 33.264818 38.721782 
L 10.05473 41.372235 
L 11.901139 37.151027 
L 19.201359 32.579652 
L 19.679904 30.998952 
L 17.24944 29.402283 
L 17.935872 28.202302 
L 15.656126 26.86411 
L 4.50609 26.975738 
L -2.012853 21.637601 
L -2.171751 17.858902 
L -5.975094 11.87293 
L -13.14091 13.31078 
L -19.981415 10.97194 
L -23.048704 11.161982 
L -23.736402 9.857004 
L -25.401316 10.495531 
L -32.267565 5.116864 
L -31.351886 4.595941 
L -32.828392 2.801947 
L -33.658642 3.252442 
L -32.617372 5.265037 
L -42.150865 4.536143 
L -43.779339 1.340158 
L -43.945136 4.953407 
L -44.476451 3.471043 
L -46.000681 4.484313 
L -48.865748 2.589976 
L -53.510655 2.853107 
L -58.750946 -0.542863 
L -50.842207 -2.02802 
L -50.713978 -3.414547 
L -54.329437 -5.161675 
L -67.948431 -5.589979 
L -78.067182 2.899107 
L -80.536032 1.910266 
L -82.011272 3.136814 
L -85.938338 3.136814 
L -87.54295 7.24641 
L -90.795515 7.393914 
L -94.935499 9.745376 
L -94.747091 7.019171 
L -100.052685 8.829772 
z
" clip-path="url(#p4542633c9f)" style="fill: #eeeeee; stroke: #000000; stroke-width: 0.3"/>
    <path d="M -74.614973 11.974597 
L -71.023267 13.090187 
L -72.975803 9.199207 
L -71.492398 6.779962 
L -67.081755 7.688267 
L -64.987268 11.87293 
L -65.39801 13.419762 
L -70.207448 15.123389 
L -72.866527 14.605128 
z
" clip-path="url(#p4542633c9f)" style="fill: #eeeeee; stroke: #000000; stroke-width: 0.3"/>
    <path d="M 4.811939 2.69032 
L 5.395377 2.119559 
L 5.466345 1.261761 
L 5.242761 0.795982 
L 8.20329 3.359416 
L 7.625517 4.318195 
z
" clip-path="url(#p4542633c9f)" style="fill: #eeeeee; stroke: #000000; stroke-width: 0.3"/>
    <path d="M -19.722671 -7.160734 
L -18.714045 -7.192625 
L -15.658054 -5.111593 
L -14.960941 -4.129545 
L -17.944082 -5.83051 
L -18.741688 -6.934147 
z
" clip-path="url(#p4542633c9f)" style="fill: #eeeeee; stroke: #000000; stroke-width: 0.3"/>
    <path d="M 6.29786 4.262381 
L 7.498028 4.702915 
L 8.473347 4.312218 
L 11.163835 5.051743 
L 10.099953 7.393914 
z
" clip-path="url(#p4542633c9f)" style="fill: #eeeeee; stroke: #000000; stroke-width: 0.3"/>
    <path d="M -5.227742 -2.903633 
L -0.599798 -3.20331 
L 1.219616 -1.388709 
L -2.829922 -1.548834 
L -5.187551 -2.349496 
z
" clip-path="url(#p4542633c9f)" style="fill: #eeeeee; stroke: #000000; stroke-width: 0.3"/>
    <path d="M -49.439138 12.421091 
L -49.295953 12.01911 
L -46.531997 10.748685 
L -48.451873 12.167936 
z
" clip-path="url(#p4542633c9f)" style="fill: #eeeeee; stroke: #000000; stroke-width: 0.3"/>
    <path d="M -55.227692 11.785225 
L -53.943993 11.431743 
L -54.697642 12.214459 
L -55.176187 12.004496 
z
" clip-path="url(#p4542633c9f)" style="fill: #eeeeee; stroke: #000000; stroke-width: 0.3"/>
    <path d="M 42.90382 26.030904 
L 43.97775 25.752505 
L 44.379061 26.549166 
z
" clip-path="url(#p4542633c9f)" style="fill: #eeeeee; stroke: #000000; stroke-width: 0.3"/>
    <path d="M 7.359226 0.896309 
L 9.257124 3.025202 
L 8.886589 3.034494 
z
" clip-path="url(#p4542633c9f)" style="fill: #eeeeee; stroke: #000000; stroke-width: 0.3"/>
    <path d="M 0.692699 -0.663799 
L 3.292108 -1.066448 
L 5.348271 1.34282 
z
" clip-path="url(#p4542633c9f)" style="fill: #eeeeee; stroke: #000000; stroke-width: 0.3"/>
    <path d="M -1.635419 28.759101 
L -1.173188 28.643489 
L 0.285723 30.137823 
z
" clip-path="url(#p4542633c9f)" style="fill: #eeeeee; stroke: #000000; stroke-width: 0.3"/>
    <path d="M -2.900272 27.096673 
L -1.951933 26.640855 
L -2.382138 27.310621 
z
" clip-path="url(#p4542633c9f)" style="fill: #eeeeee; stroke: #000000; stroke-width: 0.3"/>
    <path d="M -3.949707 27.852805 
L -3.407711 28.008277 
L -3.522019 28.08669 
z
" clip-path="url(#p4542633c9f)" style="fill: #eeeeee; stroke: #000000; stroke-width: 0.3"/>
    <path d="M -4.460295 27.945164 
L -4.202169 27.83819 
L -4.224147 27.931202 
z
" clip-path="url(#p4542633c9f)" style="fill: #eeeeee; stroke: #000000; stroke-width: 0.3"/>
    <path d="M -6.338097 -2.906965 
L -5.884663 -2.623911 
L -6.30482 -2.533545 
z
" clip-path="url(#p4542633c9f)" style="fill: #eeeeee; stroke: #000000; stroke-width: 0.3"/>
    <path d="M -6.938497 26.231559 
L -6.071189 26.741852 
L -6.71178 26.840857 
z
" clip-path="url(#p4542633c9f)" style="fill: #eeeeee; stroke: #000000; stroke-width: 0.3"/>
    <path d="M -9.36646 25.302663 
L -8.012427 25.382399 
L -7.555845 25.971759 
z
" clip-path="url(#p4542633c9f)" style="fill: #eeeeee; stroke: #000000; stroke-width: 0.3"/>
    <path d="M -11.148801 23.944549 
L -9.47197 24.332584 
L -9.74516 24.895359 
z
" clip-path="url(#p4542633c9f)" style="fill: #eeeeee; stroke: #000000; stroke-width: 0.3"/>
    <path d="M -11.263108 -5.03251 
L -9.312455 -4.841816 
L -9.986324 -4.786002 
z
" clip-path="url(#p4542633c9f)" style="fill: #eeeeee; stroke: #000000; stroke-width: 0.3"/>
    <path d="M -13.24642 -4.562094 
L -12.646653 -4.589331 
L -13.102602 -4.258433 
z
" clip-path="url(#p4542633c9f)" style="fill: #eeeeee; stroke: #000000; stroke-width: 0.3"/>
    <path d="M -13.380823 22.171816 
L -12.041869 22.550543 
L -11.700845 23.723286 
z
" clip-path="url(#p4542633c9f)" style="fill: #eeeeee; stroke: #000000; stroke-width: 0.3"/>
    <path d="M -15.43197 20.183797 
L -14.433407 21.046249 
L -15.175727 21.076801 
z
" clip-path="url(#p4542633c9f)" style="fill: #eeeeee; stroke: #000000; stroke-width: 0.3"/>
    <path d="M -21.197279 -8.205242 
L -21.145775 -8.823162 
L -21.003839 -8.432481 
z
" clip-path="url(#p4542633c9f)" style="fill: #eeeeee; stroke: #000000; stroke-width: 0.3"/>
    <path d="M -23.362733 -9.537441 
L -22.686967 -9.071009 
L -22.982135 -8.92749 
z
" clip-path="url(#p4542633c9f)" style="fill: #eeeeee; stroke: #000000; stroke-width: 0.3"/>
    <path d="M -24.694156 -9.624493 
L -23.785391 -9.358047 
L -24.574817 -9.222496 
z
" clip-path="url(#p4542633c9f)" style="fill: #eeeeee; stroke: #000000; stroke-width: 0.3"/>
    <path d="M -26.814372 -11.180617 
L -26.536166 -11.532776 
L -26.220253 -10.827135 
z
" clip-path="url(#p4542633c9f)" style="fill: #eeeeee; stroke: #000000; stroke-width: 0.3"/>
    <path d="M -28.823444 -11.853697 
L -27.92096 -11.901542 
L -27.377096 -11.811845 
z
" clip-path="url(#p4542633c9f)" style="fill: #eeeeee; stroke: #000000; stroke-width: 0.3"/>
    <path d="M -30.070085 -12.587915 
L -29.556349 -12.678265 
L -29.214707 -11.777292 
z
" clip-path="url(#p4542633c9f)" style="fill: #eeeeee; stroke: #000000; stroke-width: 0.3"/>
    <path d="M -30.719459 -10.171331 
L -29.20591 -10.569996 
L -28.928954 -9.724821 
z
" clip-path="url(#p4542633c9f)" style="fill: #eeeeee; stroke: #000000; stroke-width: 0.3"/>
    <path d="M -32.447809 -12.491555 
L -32.236789 -12.85103 
L -31.159078 -12.876275 
z
" clip-path="url(#p4542633c9f)" style="fill: #eeeeee; stroke: #000000; stroke-width: 0.3"/>
    <path d="M -34.313048 -13.312808 
L -33.989619 -13.74005 
L -32.994822 -13.140729 
z
" clip-path="url(#p4542633c9f)" style="fill: #eeeeee; stroke: #000000; stroke-width: 0.3"/>
    <path d="M -36.221009 -13.336078 
L -36.076558 -13.721451 
L -35.764427 -13.442382 
z
" clip-path="url(#p4542633c9f)" style="fill: #eeeeee; stroke: #000000; stroke-width: 0.3"/>
    <path d="M -38.647089 -13.989889 
L -38.283453 -14.041719 
L -36.339067 -13.507503 
z
" clip-path="url(#p4542633c9f)" style="fill: #eeeeee; stroke: #000000; stroke-width: 0.3"/>
    <path d="M -39.901262 -14.592541 
L -39.442797 -14.728075 
L -38.911481 -14.181906 
z
" clip-path="url(#p4542633c9f)" style="fill: #eeeeee; stroke: #000000; stroke-width: 0.3"/>
    <path d="M -40.348414 -12.198541 
L -37.773499 -12.888228 
L -38.171661 -12.606514 
z
" clip-path="url(#p4542633c9f)" style="fill: #eeeeee; stroke: #000000; stroke-width: 0.3"/>
    <path d="M -49.874374 4.75076 
L -49.776396 4.686961 
L -49.228751 5.209893 
z
" clip-path="url(#p4542633c9f)" style="fill: #eeeeee; stroke: #000000; stroke-width: 0.3"/>
    <path d="M -57.983483 12.954637 
L -56.168484 12.035048 
L -56.062974 12.325417 
z
" clip-path="url(#p4542633c9f)" style="fill: #eeeeee; stroke: #000000; stroke-width: 0.3"/>
    <path d="M -64.37432 -4.513579 
L -64.05654 -3.697649 
L -64.290156 -3.195325 
z
" clip-path="url(#p4542633c9f)" style="fill: #eeeeee; stroke: #000000; stroke-width: 0.3"/>
    <path d="M -66.373962 7.047078 
L -65.600232 6.938765 
L -65.344622 7.135436 
z
" clip-path="url(#p4542633c9f)" style="fill: #eeeeee; stroke: #000000; stroke-width: 0.3"/>
    <path d="M -81.035938 6.484956 
L -80.071285 6.570668 
L -80.801057 6.589268 
z
" clip-path="url(#p4542633c9f)" style="fill: #eeeeee; stroke: #000000; stroke-width: 0.3"/>
    <path d="M 6.412153 -28.302666 
L 10.531408 -31.668084 
L 11.209675 -30.788356 
L 9.257124 -29.539191 
L 9.468144 -27.300026 
L 11.575194 -30.284709 
L 12.849463 -26.236919 
L 11.680704 -25.171149 
L 12.849463 -25.627621 
L 12.217669 -22.486127 
L 8.941227 -22.586455 
L 10.531408 -22.82034 
L 12.059404 -24.224307 
L 9.836179 -23.207053 
L 9.15163 -23.833627 
L 10.678992 -24.491423 
L 10.751843 -24.837589 
L 8.624713 -24.380465 
L 8.087748 -27.076771 
z
" clip-path="url(#p4542633c9f)" style="fill: #eeeeee; stroke: #000000; stroke-width: 0.3"/>
    <path d="M 6.095638 -73.962579 
L 7.552666 -74.539986 
L 11.585859 -74.40909 
L 20.183592 -67.811158 
L 20.724323 -64.53413 
L 18.406268 -63.387302 
L 17.453545 -57.50298 
L 14.650648 -59.865089 
L 17.505668 -61.760733 
L 17.088027 -64.491609 
L 18.471587 -68.592551 
L 15.862747 -69.251686 
L 12.703761 -73.474886 
z
" clip-path="url(#p4542633c9f)" style="fill: #eeeeee; stroke: #000000; stroke-width: 0.3"/>
    <path d="M -1.127332 -36.547758 
L 0.710912 -38.316507 
L 0.481046 -36.279989 
L 2.484454 -36.583634 
L 0.824571 -38.612182 
L 3.083604 -43.053331 
L 2.209381 -46.065251 
L 4.820737 -46.040006 
L 9.573654 -38.154372 
L 9.85879 -34.882652 
L 5.093927 -31.17639 
L 3.442841 -34.911898 
L 2.022856 -34.321869 
z
" clip-path="url(#p4542633c9f)" style="fill: #eeeeee; stroke: #000000; stroke-width: 0.3"/>
    <path d="M 24.278338 -50.013367 
L 25.016274 -52.253871 
L 25.754211 -51.016676 
L 30.959327 -48.579501 
L 34.643979 -44.926392 
L 33.897245 -37.253399 
L 31.195459 -40.028102 
L 33.570667 -40.580933 
L 33.840724 -45.170238 
L 30.651595 -48.316386 
z
" clip-path="url(#p4542633c9f)" style="fill: #eeeeee; stroke: #000000; stroke-width: 0.3"/>
    <path d="M 71.836309 21.944495 
L 72.382319 20.385742 
L 76.672341 18.45757 
L 78.751825 20.061816 
L 80.205612 19.493505 
L 82.618527 17.13267 
L 80.686241 22.37074 
L 79.2085 23.043511 
L 72.632681 23.675163 
z
" clip-path="url(#p4542633c9f)" style="fill: #eeeeee; stroke: #000000; stroke-width: 0.3"/>
    <path d="M -9.883962 -70.831732 
L -5.506982 -68.695834 
L -3.336033 -70.551488 
L -4.384928 -71.054988 
L -3.647624 -72.615096 
L 0.578901 -70.590156 
L 6.823512 -72.058297 
L 6.612492 -69.817793 
L -6.318063 -67.67662 
z
" clip-path="url(#p4542633c9f)" style="fill: #eeeeee; stroke: #000000; stroke-width: 0.3"/>
    <path d="M 46.705913 -21.593123 
L 50.895488 -12.704849 
L 53.995452 -10.069664 
L 54.291254 -8.104245 
L 52.160342 -11.582597 
L 50.202157 -12.017154 
L 48.276616 -13.19122 
L 50.764234 -12.296223 
z
" clip-path="url(#p4542633c9f)" style="fill: #eeeeee; stroke: #000000; stroke-width: 0.3"/>
    <path d="M 62.980667 3.136814 
L 69.104581 -2.274414 
L 67.321608 -4.799294 
L 69.5442 -6.036489 
L 69.33318 -1.900994 
z
" clip-path="url(#p4542633c9f)" style="fill: #eeeeee; stroke: #000000; stroke-width: 0.3"/>
    <path d="M 81.513327 13.991601 
L 82.820749 13.090187 
L 84.072298 14.023378 
L 81.871221 15.328846 
z
" clip-path="url(#p4542633c9f)" style="fill: #eeeeee; stroke: #000000; stroke-width: 0.3"/>
    <path d="M 80.542253 0.004628 
L 80.657193 -1.566111 
L 86.607762 0.528213 
L 86.094042 1.231192 
z
" clip-path="url(#p4542633c9f)" style="fill: #eeeeee; stroke: #000000; stroke-width: 0.3"/>
    <path d="M 61.937514 -7.717532 
L 67.005078 -5.822541 
L 65.855782 -4.799294 
L 62.828051 -6.036489 
z
" clip-path="url(#p4542633c9f)" style="fill: #eeeeee; stroke: #000000; stroke-width: 0.3"/>
    <path d="M 61.304454 -2.903633 
L 61.441373 -3.604621 
L 62.87579 -5.03251 
L 62.354522 -3.900297 
z
" clip-path="url(#p4542633c9f)" style="fill: #eeeeee; stroke: #000000; stroke-width: 0.3"/>
    <path d="M 58.641609 -25.962504 
L 60.081058 -29.071436 
L 60.663245 -28.08008 
L 59.916511 -26.397714 
z
" clip-path="url(#p4542633c9f)" style="fill: #eeeeee; stroke: #000000; stroke-width: 0.3"/>
    <path d="M 40.520447 -38.129127 
L 47.33834 -29.084059 
L 43.95074 -29.040868 
L 45.491932 -31.17706 
z
" clip-path="url(#p4542633c9f)" style="fill: #eeeeee; stroke: #000000; stroke-width: 0.3"/>
    <path d="M 30.189981 -28.637549 
L 30.571197 -28.376426 
L 31.367537 -26.296717 
L 30.59884 -27.481413 
z
" clip-path="url(#p4542633c9f)" style="fill: #eeeeee; stroke: #000000; stroke-width: 0.3"/>
    <path d="M 7.359226 -55.942872 
L 7.705267 -55.74287 
L 8.308183 -54.60468 
L 7.362359 -55.60732 
z
" clip-path="url(#p4542633c9f)" style="fill: #eeeeee; stroke: #000000; stroke-width: 0.3"/>
    <path d="M 74.064366 -4.051164 
L 74.954424 -4.038215 
L 74.101933 -3.965451 
z
" clip-path="url(#p4542633c9f)" style="fill: #eeeeee; stroke: #000000; stroke-width: 0.3"/>
    <path d="M 73.035736 -3.439384 
L 73.148732 -3.880146 
L 73.52507 -3.892279 
z
" clip-path="url(#p4542633c9f)" style="fill: #eeeeee; stroke: #000000; stroke-width: 0.3"/>
    <path d="M 70.080547 -12.086913 
L 72.106567 -12.064983 
L 70.383248 -11.596559 
z
" clip-path="url(#p4542633c9f)" style="fill: #eeeeee; stroke: #000000; stroke-width: 0.3"/>
    <path d="M 52.721801 -21.147266 
L 54.71706 -22.143276 
L 55.259673 -21.816362 
z
" clip-path="url(#p4542633c9f)" style="fill: #eeeeee; stroke: #000000; stroke-width: 0.3"/>
    <path d="M 49.912622 -23.961192 
L 50.188328 -23.968508 
L 50.008717 -23.702061 
z
" clip-path="url(#p4542633c9f)" style="fill: #eeeeee; stroke: #000000; stroke-width: 0.3"/>
    <path d="M 41.98439 -17.502795 
L 42.915751 -17.672228 
L 43.735954 -17.002479 
z
" clip-path="url(#p4542633c9f)" style="fill: #eeeeee; stroke: #000000; stroke-width: 0.3"/>
    <path d="M 40.407405 2.298954 
L 40.789871 2.950773 
L 40.486538 3.079677 
z
" clip-path="url(#p4542633c9f)" style="fill: #eeeeee; stroke: #000000; stroke-width: 0.3"/>
    <path d="M 40.192619 2.061753 
L 40.216481 1.639165 
L 40.28305 1.668395 
z
" clip-path="url(#p4542633c9f)" style="fill: #eeeeee; stroke: #000000; stroke-width: 0.3"/>
    <path d="M 39.171445 -0.404668 
L 39.432704 0.170746 
L 39.388731 0.261766 
z
" clip-path="url(#p4542633c9f)" style="fill: #eeeeee; stroke: #000000; stroke-width: 0.3"/>
    <path d="M 35.812738 -20.133995 
L 35.900652 -21.308061 
L 41.618238 -17.782533 
z
" clip-path="url(#p4542633c9f)" style="fill: #eeeeee; stroke: #000000; stroke-width: 0.3"/>
    <path d="M 27.976186 -31.547149 
L 28.213583 -31.41426 
L 28.775043 -30.294 
z
" clip-path="url(#p4542633c9f)" style="fill: #eeeeee; stroke: #000000; stroke-width: 0.3"/>
    <path d="M 24.23313 -51.899132 
L 24.680606 -52.014303 
L 24.874107 -51.950324 
z
" clip-path="url(#p4542633c9f)" style="fill: #eeeeee; stroke: #000000; stroke-width: 0.3"/>
    <path d="M 24.156513 -35.687967 
L 24.462363 -35.197596 
L 24.204237 -35.187635 
z
" clip-path="url(#p4542633c9f)" style="fill: #eeeeee; stroke: #000000; stroke-width: 0.3"/>
    <path d="M 22.926974 -51.323358 
L 23.156762 -51.604844 
L 23.894498 -51.69441 
z
" clip-path="url(#p4542633c9f)" style="fill: #eeeeee; stroke: #000000; stroke-width: 0.3"/>
    <path d="M 16.657837 -66.98592 
L 17.231845 -66.610508 
L 17.023341 -66.534103 
z
" clip-path="url(#p4542633c9f)" style="fill: #eeeeee; stroke: #000000; stroke-width: 0.3"/>
    <path d="M 12.279839 -43.358298 
L 16.880155 -43.998834 
L 15.094667 -43.075245 
z
" clip-path="url(#p4542633c9f)" style="fill: #eeeeee; stroke: #000000; stroke-width: 0.3"/>
    <path d="M 12.006649 -64.892266 
L 12.148584 -64.81253 
L 12.112159 -63.767368 
z
" clip-path="url(#p4542633c9f)" style="fill: #eeeeee; stroke: #000000; stroke-width: 0.3"/>
    <path d="M 8.53615 -32.064088 
L 9.851243 -32.79099 
L 10.418984 -32.481352 
z
" clip-path="url(#p4542633c9f)" style="fill: #eeeeee; stroke: #000000; stroke-width: 0.3"/>
    <path d="M 7.565847 -31.937845 
L 7.99102 -32.437508 
L 8.097796 -32.42887 
z
" clip-path="url(#p4542633c9f)" style="fill: #eeeeee; stroke: #000000; stroke-width: 0.3"/>
    <path d="M 7.167052 -69.219795 
L 8.070153 -69.349352 
L 7.548885 -68.587244 
z
" clip-path="url(#p4542633c9f)" style="fill: #eeeeee; stroke: #000000; stroke-width: 0.3"/>
    <path d="M 6.957282 -49.730313 
L 8.036243 -50.145602 
L 7.377439 -49.710391 
z
" clip-path="url(#p4542633c9f)" style="fill: #eeeeee; stroke: #000000; stroke-width: 0.3"/>
    <path d="M 5.884618 -29.771754 
L 7.832755 -30.826893 
L 8.624713 -30.878053 
z
" clip-path="url(#p4542633c9f)" style="fill: #eeeeee; stroke: #000000; stroke-width: 0.3"/>
    <path d="M 5.25659 -30.777725 
L 6.564136 -31.222897 
L 6.507615 -30.431542 
z
" clip-path="url(#p4542633c9f)" style="fill: #eeeeee; stroke: #000000; stroke-width: 0.3"/>
    <path d="M -14.030213 -51.832622 
L -13.962378 -51.673149 
L -13.996288 -51.685119 
z
" clip-path="url(#p4542633c9f)" style="fill: #eeeeee; stroke: #000000; stroke-width: 0.3"/>
    <path d="M -14.376253 -52.180781 
L -14.368721 -52.24324 
L -14.236834 -51.99541 
z
" clip-path="url(#p4542633c9f)" style="fill: #eeeeee; stroke: #000000; stroke-width: 0.3"/>
    <path d="M -14.55713 -54.447199 
L -14.243733 -55.415303 
L -13.899576 -54.465145 
z
" clip-path="url(#p4542633c9f)" style="fill: #eeeeee; stroke: #000000; stroke-width: 0.3"/>
    <path d="M -18.226702 -18.723382 
L -17.850503 -18.485513 
L -17.905156 -18.458928 
z
" clip-path="url(#p4542633c9f)" style="fill: #eeeeee; stroke: #000000; stroke-width: 0.3"/>
    <path d="M -19.090245 -19.77519 
L -19.002947 -19.721385 
L -18.450286 -19.107433 
z
" clip-path="url(#p4542633c9f)" style="fill: #eeeeee; stroke: #000000; stroke-width: 0.3"/>
    <path d="M 97.785442 7.49558 
L 97.855159 6.641097 
L 99.497447 6.779962 
L 100.325197 8.49889 
L 98.830478 8.110855 
L 98.933472 6.877644 
z
" clip-path="url(#p4542633c9f)" style="fill: #eeeeee; stroke: #000000; stroke-width: 0.3"/>
    <path d="M 105.228847 13.832373 
L 105.868188 12.969268 
L 105.898332 13.981868 
L 105.517749 14.276891 
z
" clip-path="url(#p4542633c9f)" style="fill: #eeeeee; stroke: #000000; stroke-width: 0.3"/>
    <path d="M 104.443804 9.958001 
L 106.135729 10.420449 
L 106.46544 11.417128 
L 104.711345 10.260323 
z
" clip-path="url(#p4542633c9f)" style="fill: #eeeeee; stroke: #000000; stroke-width: 0.3"/>
    <path d="M 111.22842 14.545983 
L 111.569429 14.55596 
L 111.322617 15.219063 
z
" clip-path="url(#p4542633c9f)" style="fill: #eeeeee; stroke: #000000; stroke-width: 0.3"/>
    <path d="M 110.175204 17.133992 
L 110.587829 16.796464 
L 110.260618 17.19513 
z
" clip-path="url(#p4542633c9f)" style="fill: #eeeeee; stroke: #000000; stroke-width: 0.3"/>
    <path d="M 103.667559 17.320033 
L 103.853467 16.970535 
L 103.763021 17.458245 
z
" clip-path="url(#p4542633c9f)" style="fill: #eeeeee; stroke: #000000; stroke-width: 0.3"/>
    <path d="M 102.768857 17.500097 
L 103.058376 17.296127 
L 103.155089 17.261574 
z
" clip-path="url(#p4542633c9f)" style="fill: #eeeeee; stroke: #000000; stroke-width: 0.3"/>
    <path d="M 100.429441 8.284926 
L 103.082238 8.520151 
L 103.820808 9.623118 
z
" clip-path="url(#p4542633c9f)" style="fill: #eeeeee; stroke: #000000; stroke-width: 0.3"/>
    <path d="M 96.557013 8.03378 
L 96.780597 8.015834 
L 96.585907 8.149392 
z
" clip-path="url(#p4542633c9f)" style="fill: #eeeeee; stroke: #000000; stroke-width: 0.3"/>
    <path d="M 96.07092 8.425799 
L 96.196526 8.31151 
L 96.329664 8.326125 
z
" clip-path="url(#p4542633c9f)" style="fill: #eeeeee; stroke: #000000; stroke-width: 0.3"/>
    <path d="M 93.024344 8.183929 
L 96.204691 8.954691 
L 93.619713 10.037737 
z
" clip-path="url(#p4542633c9f)" style="fill: #eeeeee; stroke: #000000; stroke-width: 0.3"/>
    <path d="M 90.695609 11.974597 
L 90.97258 11.409143 
L 91.437312 11.161312 
z
" clip-path="url(#p4542633c9f)" style="fill: #eeeeee; stroke: #000000; stroke-width: 0.3"/>
    <path d="M 3781.322263 49.933594 
L 3781.593569 50.284431 
L 3781.467964 50.425958 
z
" clip-path="url(#p4542633c9f)" style="fill: #eeeeee; stroke: #000000; stroke-width: 0.3"/>
    <path d="M 51.546128 64.777941 
L 51.71319 64.476288 
L 51.772227 64.760665 
z
" clip-path="url(#p4542633c9f)" style="fill: #eeeeee; stroke: #000000; stroke-width: 0.3"/>
    <path d="M -1260.570372 371.326424 
L -1260.24506 371.266626 
L -1260.489989 371.532403 
z
" clip-path="url(#p4542633c9f)" style="fill: #eeeeee; stroke: #000000; stroke-width: 0.3"/>
    <path d="M -1292.576015 269.027315 
L -1292.077992 269.001416 
L -1292.104369 269.340937 
z
" clip-path="url(#p4542633c9f)" style="fill: #eeeeee; stroke: #000000; stroke-width: 0.3"/>
    <path d="M -1297.153103 260.182249 
L -1296.923238 259.939056 
L -1296.923238 260.182249 
z
" clip-path="url(#p4542633c9f)" style="fill: #eeeeee; stroke: #000000; stroke-width: 0.3"/>
    <path d="M -1406.945856 91.765658 
L -1406.945856 91.739074 
L -1406.932042 91.759681 
z
" clip-path="url(#p4542633c9f)" style="fill: #eeeeee; stroke: #000000; stroke-width: 0.3"/>
    <path d="M -1407.339635 91.594232 
L -1407.056397 91.461344 
L -1407.003643 91.464006 
z
" clip-path="url(#p4542633c9f)" style="fill: #eeeeee; stroke: #000000; stroke-width: 0.3"/>
    <path d="M -1407.49915 92.100541 
L -1407.47089 92.036758 
L -1407.080892 91.958345 
z
" clip-path="url(#p4542633c9f)" style="fill: #eeeeee; stroke: #000000; stroke-width: 0.3"/>
    <path d="M -1514.219598 361.5611 
L -1514.151763 361.495309 
L -1514.146114 361.604291 
z
" clip-path="url(#p4542633c9f)" style="fill: #eeeeee; stroke: #000000; stroke-width: 0.3"/>
    <path d="M -1514.456995 362.076047 
L -1514.419304 361.959765 
L -1514.394809 362.030863 
z
" clip-path="url(#p4542633c9f)" style="fill: #eeeeee; stroke: #000000; stroke-width: 0.3"/>
    <path d="M -1516.944612 352.088121 
L -1516.922001 352.007062 
L -1516.876793 352.064868 
z
" clip-path="url(#p4542633c9f)" style="fill: #eeeeee; stroke: #000000; stroke-width: 0.3"/>
    <path d="M -1527.668225 -95.374289 
L -1527.476668 -95.429434 
L -1527.450291 -95.400204 
z
" clip-path="url(#p4542633c9f)" style="fill: #eeeeee; stroke: #000000; stroke-width: 0.3"/>
    <path d="M -1528.50664 -95.265993 
L -1528.327647 -95.513824 
L -1528.237849 -95.342398 
z
" clip-path="url(#p4542633c9f)" style="fill: #eeeeee; stroke: #000000; stroke-width: 0.3"/>
    <path d="M 171.116392 65.346987 
L 173.726775 62.718823 
L 184.829088 63.230455 
L 196.574492 64.902191 
L 196.850399 67.740154 
L 194.782105 68.272247 
L 191.670842 71.73667 
L 187.57923 72.514063 
L 178.784307 71.219731 
L 172.453788 72.315612 
L 172.952845 67.934115 
z
" clip-path="url(#p4542633c9f)" style="fill: #eeeeee; stroke: #000000; stroke-width: 0.3"/>
    <path d="M 160.822027 69.71676 
L 161.100866 69.385861 
L 162.086881 69.382546 
L 161.819973 70.382524 
z
" clip-path="url(#p4542633c9f)" style="fill: #eeeeee; stroke: #000000; stroke-width: 0.3"/>
    <path d="M 201.009645 65.692876 
L 202.204148 65.965968 
L 201.649604 66.357318 
z
" clip-path="url(#p4542633c9f)" style="fill: #eeeeee; stroke: #000000; stroke-width: 0.3"/>
    <path d="M 197.206919 69.260942 
L 201.909613 69.015772 
L 198.69159 69.82904 
z
" clip-path="url(#p4542633c9f)" style="fill: #eeeeee; stroke: #000000; stroke-width: 0.3"/>
    <path d="M -0.265055 66.918787 
L 1.95817 64.001202 
L 5.981331 64.02047 
L 7.025117 62.783945 
L 16.744502 63.75404 
L 22.574003 64.572566 
L 24.304098 66.718785 
L 30.966859 68.708127 
L 33.485253 72.635651 
L 30.783482 73.528003 
L 27.083118 73.417044 
L 23.267813 71.381507 
L 21.845358 73.973174 
L 18.765814 73.196386 
L 17.611177 74.976499 
L 18.779952 75.088111 
L 18.190232 76.086113 
L 14.504947 73.513388 
L 9.674148 73.626338 
L 4.741604 68.232387 
z
" clip-path="url(#p4542633c9f)" style="fill: #eeeeee; stroke: #000000; stroke-width: 0.3"/>
   </g>
   <g id="PatchCollection_2">
    <path d="M 59.705491 64.243726 
L 60.79575 61.172007 
L 63.305362 60.309555 
L 70.290935 62.449732 
L 73.638961 61.797912 
L 71.660665 62.328143 
L 72.623436 63.068321 
L 84.169134 64.165998 
L 87.066228 64.107522 
L 88.917035 62.096919 
L 92.663224 62.599227 
L 93.024344 60.0976 
L 89.642408 58.426517 
L 85.567758 54.06179 
L 87.209428 52.988722 
L 85.724757 51.138898 
L 87.104536 50.134936 
L 86.19452 48.778797 
L 87.333768 47.645261 
L 82.656202 45.071867 
L 76.369625 44.540982 
L 75.464641 43.090493 
L 77.054807 41.519755 
L 76.202578 41.519755 
L 80.110798 39.614117 
L 86.146797 39.512467 
L 92.180897 41.691834 
L 92.971589 43.19216 
L 94.749546 42.075884 
L 100.880374 44.202768 
L 100.526169 43.313748 
L 101.868256 43.330355 
L 102.695157 48.155358 
L 101.573721 49.578071 
L 103.624358 52.436185 
L 100.20186 55.506923 
L 102.238128 56.843581 
L 102.44072 58.756142 
L 100.569555 61.164055 
L 97.972569 61.477122 
L 99.480037 64.221714 
L 102.610607 66.140203 
L 101.578104 70.614418 
L 97.016728 67.376581 
L 84.451121 68.945997 
L 76.867031 67.040376 
L 72.503479 67.82043 
L 72.714499 67.030415 
L 69.918517 68.936036 
L 70.437886 70.781859 
L 69.211356 70.827712 
L 65.634097 67.211801 
L 61.511075 66.38124 
z
" clip-path="url(#p4542633c9f)" style="fill: #ff6b6b; stroke: #dd0000; stroke-width: 0.5"/>
    <path d="M 78.118071 55.962758 
L 79.590796 55.437197 
L 85.065336 57.749453 
L 85.641859 59.491633 
z
" clip-path="url(#p4542633c9f)" style="fill: #ff6b6b; stroke: #dd0000; stroke-width: 0.5"/>
    <path d="M 83.301826 37.596868 
L 85.739837 37.172288 
L 88.438474 38.461982 
z
" clip-path="url(#p4542633c9f)" style="fill: #ff6b6b; stroke: #dd0000; stroke-width: 0.5"/>
    <path d="M 71.767425 69.71676 
L 71.886749 69.486858 
L 73.768966 70.161931 
z
" clip-path="url(#p4542633c9f)" style="fill: #ff6b6b; stroke: #dd0000; stroke-width: 0.5"/>
    <path d="M 70.81282 61.647747 
L 71.268769 60.855724 
L 71.660665 61.436462 
z
" clip-path="url(#p4542633c9f)" style="fill: #ff6b6b; stroke: #dd0000; stroke-width: 0.5"/>
   </g>
  </g>
 </g>
 <defs>
  <clipPath id="p4542633c9f">
   <rect x="0" y="0" width="163.329849" height="108"/>
  </clipPath>
 </defs>
</svg>
