<?xml version="1.0" encoding="utf-8" standalone="no"?>
<!DOCTYPE svg PUBLIC "-//W3C//DTD SVG 1.1//EN"
  "http://www.w3.org/Graphics/SVG/1.1/DTD/svg11.dtd">
<svg xmlns:xlink="http://www.w3.org/1999/xlink" width="166.756391pt" height="108pt" viewBox="0 0 166.756391 108" xmlns="http://www.w3.org/2000/svg" version="1.1">
 <metadata>
  <rdf:RDF xmlns:dc="http://purl.org/dc/elements/1.1/" xmlns:cc="http://creativecommons.org/ns#" xmlns:rdf="http://www.w3.org/1999/02/22-rdf-syntax-ns#">
   <cc:Work>
    <dc:type rdf:resource="http://purl.org/dc/dcmitype/StillImage"/>
    <dc:date>2025-09-05T15:49:28.482770</dc:date>
    <dc:format>image/svg+xml</dc:format>
    <dc:creator>
     <cc:Agent>
      <dc:title>Matplotlib v3.10.3, https://matplotlib.org/</dc:title>
     </cc:Agent>
    </dc:creator>
   </cc:Work>
  </rdf:RDF>
 </metadata>
 <defs>
  <style type="text/css">*{stroke-linejoin: round; stroke-linecap: butt}</style>
 </defs>
 <g id="figure_1">
  <g id="patch_1">
   <path d="M 0 108 
L 166.756391 108 
L 166.756391 0 
L 0 0 
z
" style="fill: #ffffff"/>
  </g>
  <g id="axes_1">
   <g id="PatchCollection_1">
    <path d="M 86.305178 97.527766 
L 88.609704 97.227043 
L 88.263449 96.268028 
L 89.030299 96.097489 
L 89.711428 94.375651 
L 96.222038 97.089347 
L 98.712828 95.788211 
L 101.040558 96.984968 
L 101.848862 96.555448 
L 103.449808 98.710917 
L 105.231518 98.632699 
L 106.129939 99.401758 
L 108.61392 98.45482 
L 108.286901 97.142974 
L 108.796324 97.250936 
L 109.419664 98.451763 
L 108.996685 97.942597 
L 108.863111 99.324674 
L 109.469754 98.847226 
L 113.101269 105.315608 
L 117.165308 109.938061 
L 119.362688 111.295294 
L 118.504147 111.810089 
L 116.581839 110.668011 
L 116.592449 111.762486 
L 115.661201 112.128964 
L 115.683925 116.145882 
L 117.833423 117.543529 
L 115.84422 119.217684 
L 116.573769 122.163664 
L 114.582544 123.556088 
L 115.642022 124.356542 
L 116.201418 125.838421 
L 116.0918 126.521244 
L 115.399445 124.633423 
L 113.617677 123.134353 
L 114.186159 122.350827 
L 113.417316 120.419209 
L 110.385283 119.658756 
L 112.283928 121.387701 
L 112.283928 123.05896 
L 109.468161 122.368129 
L 107.893115 120.872349 
L 109.469754 118.892541 
L 108.813812 118.957213 
L 109.469754 117.987902 
L 108.890144 116.302631 
L 103.286045 112.041453 
L 99.297928 110.896662 
L 98.154214 106.959684 
L 97.008105 106.959684 
L 97.620718 106.752061 
L 92.726618 103.767518 
L 93.733182 106.262262 
L 96.874541 108.354537 
L 94.400653 111.125697 
L 92.627629 108.568751 
L 89.066477 107.636513 
L 87.305783 104.28616 
L 87.645678 101.410773 
L 89.379739 100.336415 
L 88.712269 100.436926 
L 88.905478 98.562985 
z
" clip-path="url(#p5f0a730377)" style="fill: #eeeeee; stroke: #000000; stroke-width: 0.3"/>
    <path d="M 106.460279 119.654696 
L 106.600478 119.648682 
L 106.51292 119.798173 
z
" clip-path="url(#p5f0a730377)" style="fill: #eeeeee; stroke: #000000; stroke-width: 0.3"/>
    <path d="M 93.606369 105.433016 
L 94.472608 105.508399 
L 94.601014 105.778224 
z
" clip-path="url(#p5f0a730377)" style="fill: #eeeeee; stroke: #000000; stroke-width: 0.3"/>
    <path d="M 74.862423 152.030326 
L 75.380815 151.597374 
L 75.37167 151.832595 
z
" clip-path="url(#p5f0a730377)" style="fill: #eeeeee; stroke: #000000; stroke-width: 0.3"/>
    <path d="M 69.457083 77.33127 
L 69.495254 76.432816 
L 70.368645 75.395947 
L 72.177447 77.129823 
L 73.182819 77.067216 
L 72.309028 76.885136 
L 72.943896 76.439822 
L 75.669613 76.457802 
L 76.764947 75.378493 
L 76.883583 73.827548 
L 78.903591 73.227732 
L 78.296225 68.708057 
L 82.45891 68.592694 
L 84.836867 65.682815 
L 88.298034 67.91388 
L 88.445706 66.483269 
L 93.894562 62.871544 
L 94.130593 60.416567 
L 95.262271 60.166484 
L 95.02498 59.416256 
L 96.487594 57.857991 
L 97.582674 57.816665 
L 98.489429 59.298544 
L 100.605856 59.85755 
L 101.7759 58.884189 
L 102.710421 59.267676 
L 102.763941 58.449698 
L 103.678522 58.890729 
L 104.229848 58.096563 
L 106.057231 58.399999 
L 109.07714 57.294013 
L 110.117939 55.888246 
L 113.817218 56.035328 
L 112.219134 57.986677 
L 111.944033 56.876895 
L 111.478125 57.189564 
L 110.943037 57.989977 
L 112.168252 58.321589 
L 113.268637 62.609545 
L 110.878233 66.567116 
L 109.628769 72.043113 
L 110.384491 82.158866 
L 108.863111 82.47195 
L 108.863111 80.661851 
L 109.665348 79.939302 
L 109.581063 78.14939 
L 108.781219 78.410984 
L 109.33618 79.977196 
L 107.523402 80.975756 
L 108.483462 83.543828 
L 109.063472 82.853412 
L 108.535936 86.499133 
L 108.273565 85.008304 
L 107.973023 84.640024 
L 107.493193 84.583582 
L 108.123294 85.104695 
L 107.237183 85.766693 
L 107.668114 86.915199 
L 106.923119 87.680593 
L 107.59099 88.352897 
L 108.253283 87.896457 
L 108.724368 90.230544 
L 107.656185 90.860823 
L 106.61225 93.730439 
L 108.61392 98.45482 
L 106.039059 99.387372 
L 105.231518 98.632699 
L 103.449808 98.710917 
L 101.848862 96.555448 
L 101.040558 96.984968 
L 98.712828 95.788211 
L 96.222038 97.089347 
L 89.711428 94.375651 
L 88.695924 95.682223 
L 80.93244 88.812628 
L 78.233951 84.37844 
z
" clip-path="url(#p5f0a730377)" style="fill: #eeeeee; stroke: #000000; stroke-width: 0.3"/>
    <path d="M 116.964946 62.420044 
L 117.704773 62.387506 
L 117.525876 62.46948 
z
" clip-path="url(#p5f0a730377)" style="fill: #eeeeee; stroke: #000000; stroke-width: 0.3"/>
    <path d="M 114.544734 84.6944 
L 114.773721 84.445167 
L 114.88503 84.536627 
z
" clip-path="url(#p5f0a730377)" style="fill: #eeeeee; stroke: #000000; stroke-width: 0.3"/>
    <path d="M 108.381015 97.129043 
L 108.428604 97.121997 
L 108.491444 97.25047 
z
" clip-path="url(#p5f0a730377)" style="fill: #eeeeee; stroke: #000000; stroke-width: 0.3"/>
    <path d="M 107.900276 86.966285 
L 108.185704 86.508194 
L 108.058891 87.690069 
z
" clip-path="url(#p5f0a730377)" style="fill: #eeeeee; stroke: #000000; stroke-width: 0.3"/>
    <path d="M 45.741816 68.848335 
L 46.477793 66.767348 
L 48.305949 65.530834 
L 49.167762 65.747943 
L 49.732463 64.40784 
L 51.34781 63.782653 
L 50.765944 62.061159 
L 52.581975 61.620117 
L 54.967758 62.572552 
L 55.422147 62.120273 
L 58.047488 65.112551 
L 61.314527 66.294143 
L 61.388241 67.635551 
L 65.01703 66.217494 
L 66.092404 67.482001 
L 68.021278 66.980802 
L 69.137812 68.00203 
L 68.294415 70.858808 
L 68.966399 71.587594 
L 67.82201 71.78894 
L 67.475354 72.555164 
L 68.294688 73.347337 
L 66.943451 74.647024 
L 63.067444 74.566701 
L 62.800305 74.491307 
L 63.036444 74.257737 
L 62.740269 73.938072 
L 62.189285 74.51603 
L 61.849791 73.675658 
L 60.393205 73.379055 
L 59.18071 73.523646 
L 60.601118 73.592033 
L 61.731321 74.549399 
L 58.566114 73.769993 
L 54.015494 71.47133 
L 48.577621 70.919157 
z
" clip-path="url(#p5f0a730377)" style="fill: #eeeeee; stroke: #000000; stroke-width: 0.3"/>
    <path d="M 68.94727 74.59194 
L 69.113593 74.109552 
L 69.239556 74.553631 
z
" clip-path="url(#p5f0a730377)" style="fill: #eeeeee; stroke: #000000; stroke-width: 0.3"/>
    <path d="M 68.389818 73.806672 
L 68.671016 73.935429 
L 68.549693 74.083624 
z
" clip-path="url(#p5f0a730377)" style="fill: #eeeeee; stroke: #000000; stroke-width: 0.3"/>
    <path d="M 24.756536 60.598546 
L 25.591404 59.209341 
L 25.655778 56.046251 
L 26.441357 55.258878 
L 25.09814 53.250683 
L 29.704106 45.263672 
L 42.428702 44.880195 
L 42.843963 41.637045 
L 40.516995 40.987793 
L 38.916038 37.726865 
L 36.395714 36.688366 
L 34.201529 33.93387 
L 32.60915 33.347914 
L 37.010652 33.206653 
L 37.100007 27.551168 
L 54.904146 27.51298 
L 54.161476 46.955087 
L 58.549818 47.307797 
L 60.289849 48.897082 
L 60.793527 47.369999 
L 61.466165 47.432616 
L 60.326818 46.188539 
L 64.083554 48.658571 
L 54.901117 55.395157 
L 54.201357 57.538862 
L 54.905152 60.244176 
L 52.939173 61.922774 
L 50.765944 62.061159 
L 51.34781 63.782653 
L 49.732463 64.40784 
L 49.167762 65.747943 
L 48.305949 65.530834 
L 46.477793 66.767348 
L 45.741816 68.848335 
L 41.031683 67.007155 
L 33.84056 66.577776 
z
" clip-path="url(#p5f0a730377)" style="fill: #eeeeee; stroke: #000000; stroke-width: 0.3"/>
    <path d="M 96.044079 -13.615359 
L 100.22817 -15.349245 
L 102.502488 -15.072414 
L 100.967596 -16.93854 
L 103.241914 -20.765926 
L 103.908984 -20.62751 
L 104.852738 -22.134416 
L 111.247546 -23.740598 
L 112.881827 -25.005682 
L 113.436396 -24.279417 
L 114.494243 -25.185292 
L 115.441182 -24.71237 
L 122.718525 -26.953366 
L 128.953526 -26.584256 
L 129.465157 -25.464593 
L 133.174196 -27.137086 
L 131.834487 -26.308255 
L 133.174196 -25.340179 
L 133.868299 -26.038016 
L 137.922392 -25.893425 
L 138.566015 -26.566954 
L 138.961559 -25.061708 
L 140.185583 -24.480034 
L 143.94988 -24.57355 
L 145.217233 -23.461297 
L 145.738399 -23.809391 
L 146.424159 -23.951926 
L 145.796843 -23.17169 
L 147.804013 -22.544711 
L 150.83207 -19.045636 
L 156.302594 -18.817421 
L 156.764135 -18.064389 
L 157.023331 -18.779932 
L 163.305637 -15.743483 
L 165.034931 -13.545331 
L 165.308039 -14.519999 
L 165.835175 -14.519999 
L 165.42094 -13.957692 
L 166.36828 -12.884984 
L 169.259578 -12.603628 
L 169.507245 -11.396625 
L 170.319417 -11.204239 
L 169.326365 -12.857386 
L 167.709171 -13.690337 
L 168.278845 -14.139357 
L 172.402519 -11.465823 
L 172.202558 -10.35357 
L 170.15245 -10.932359 
L 171.21865 -10.483745 
L 171.190024 -9.561813 
L 172.129802 -9.599707 
L 172.848554 -10.875918 
L 175.550228 -8.763455 
L 174.812394 -7.850585 
L 175.610655 -8.688072 
L 176.920546 -8.342449 
L 176.303166 -7.629781 
L 178.15729 -7.651203 
L 177.49061 -7.022574 
L 178.230036 -6.608158 
L 179.024721 -7.022574 
L 178.346513 -7.594357 
L 179.694566 -7.617429 
L 183.117776 -5.495896 
L 186.372818 -5.943275 
L 187.599225 -4.874273 
L 185.988 -3.618665 
L 187.866373 -2.931944 
L 185.725629 -3.07695 
L 186.172466 -1.656149 
L 187.065338 -2.517528 
L 187.866373 -1.543691 
L 188.95523 -2.112994 
L 190.194758 -1.344714 
L 190.746543 -1.405276 
L 190.375638 -1.935865 
L 193.266936 -1.70929 
L 195.834244 -0.783238 
L 199.181523 2.484322 
L 200.715623 2.132938 
L 201.656593 2.931701 
L 200.408321 4.69359 
L 195.078121 5.007909 
L 192.322732 6.425592 
L 192.347831 4.765268 
L 190.469859 6.516455 
L 181.504959 5.462699 
L 166.813123 7.105945 
L 167.981888 4.488852 
L 172.60288 1.65466 
L 172.905796 0.674648 
L 171.367328 -0.315266 
L 171.801835 -1.059238 
L 170.358771 -1.888899 
L 163.30087 -1.819692 
L 159.174421 -5.129266 
L 159.07384 -7.472008 
L 156.666348 -11.183232 
L 152.130432 -10.291784 
L 147.800437 -11.741833 
L 145.858862 -11.62401 
L 145.423554 -12.433079 
L 144.369674 -12.037201 
L 140.023382 -15.371902 
L 140.603002 -15.694868 
L 139.668383 -16.80712 
L 139.14284 -16.527819 
L 139.801957 -15.280037 
L 133.767318 -15.731942 
L 132.736504 -17.71341 
L 132.631556 -15.473244 
L 132.295236 -16.39229 
L 131.330409 -15.764076 
L 129.51684 -16.93854 
L 126.576644 -16.775402 
L 123.259573 -18.880858 
L 128.265754 -19.801636 
L 128.346922 -20.661264 
L 126.05836 -21.74446 
L 117.437624 -22.010003 
L 111.03252 -16.746882 
L 109.469754 -17.359951 
L 108.535936 -16.599507 
L 106.050129 -16.599507 
L 105.034419 -14.051612 
L 102.975567 -13.960162 
L 100.354984 -12.502287 
L 100.474245 -14.192498 
L 97.115838 -13.069949 
z
" clip-path="url(#p5f0a730377)" style="fill: #eeeeee; stroke: #000000; stroke-width: 0.3"/>
    <path d="M 113.217746 -11.1202 
L 115.491273 -10.428549 
L 114.25533 -12.840904 
L 115.194316 -14.340804 
L 117.986225 -13.777667 
L 119.312021 -11.183232 
L 119.052024 -10.224216 
L 116.007681 -9.16799 
L 114.324501 -9.489305 
z
" clip-path="url(#p5f0a730377)" style="fill: #eeeeee; stroke: #000000; stroke-width: 0.3"/>
    <path d="M 163.49447 -16.876328 
L 163.863783 -17.230192 
L 163.908705 -17.762015 
L 163.767178 -18.050792 
L 165.641174 -16.461497 
L 165.275447 -15.867067 
z
" clip-path="url(#p5f0a730377)" style="fill: #eeeeee; stroke: #000000; stroke-width: 0.3"/>
    <path d="M 147.96422 -22.98385 
L 148.602674 -23.003622 
L 150.537096 -21.71341 
L 150.978364 -21.104553 
L 149.090055 -22.159129 
L 148.585176 -22.843369 
z
" clip-path="url(#p5f0a730377)" style="fill: #eeeeee; stroke: #000000; stroke-width: 0.3"/>
    <path d="M 164.435049 -15.901671 
L 165.194747 -15.628546 
L 165.812118 -15.870772 
L 167.515179 -15.412277 
L 166.841749 -13.960162 
z
" clip-path="url(#p5f0a730377)" style="fill: #eeeeee; stroke: #000000; stroke-width: 0.3"/>
    <path d="M 157.139417 -20.344504 
L 160.068876 -20.5303 
L 161.220553 -19.405271 
L 158.657221 -19.504547 
L 157.164858 -20.000947 
z
" clip-path="url(#p5f0a730377)" style="fill: #eeeeee; stroke: #000000; stroke-width: 0.3"/>
    <path d="M 129.153887 -10.843379 
L 129.244523 -11.092602 
L 130.994089 -11.880248 
L 129.77882 -11.000332 
z
" clip-path="url(#p5f0a730377)" style="fill: #eeeeee; stroke: #000000; stroke-width: 0.3"/>
    <path d="M 125.48977 -11.237608 
L 126.302343 -11.456762 
L 125.825289 -10.971488 
L 125.522372 -11.101663 
z
" clip-path="url(#p5f0a730377)" style="fill: #eeeeee; stroke: #000000; stroke-width: 0.3"/>
    <path d="M 187.606386 -2.405476 
L 188.286176 -2.57808 
L 188.540204 -2.084161 
z
" clip-path="url(#p5f0a730377)" style="fill: #eeeeee; stroke: #000000; stroke-width: 0.3"/>
    <path d="M 165.106887 -17.98859 
L 166.308244 -16.668705 
L 166.073697 -16.662944 
z
" clip-path="url(#p5f0a730377)" style="fill: #eeeeee; stroke: #000000; stroke-width: 0.3"/>
    <path d="M 160.887018 -18.955837 
L 162.532427 -19.205474 
L 163.833965 -17.71176 
z
" clip-path="url(#p5f0a730377)" style="fill: #eeeeee; stroke: #000000; stroke-width: 0.3"/>
    <path d="M 159.413334 -0.71403 
L 159.705923 -0.785708 
L 160.629405 0.140759 
z
" clip-path="url(#p5f0a730377)" style="fill: #eeeeee; stroke: #000000; stroke-width: 0.3"/>
    <path d="M 158.61269 -1.744713 
L 159.212983 -2.027315 
L 158.940666 -1.612069 
z
" clip-path="url(#p5f0a730377)" style="fill: #eeeeee; stroke: #000000; stroke-width: 0.3"/>
    <path d="M 157.948404 -1.275922 
L 158.291485 -1.179531 
L 158.219129 -1.130916 
z
" clip-path="url(#p5f0a730377)" style="fill: #eeeeee; stroke: #000000; stroke-width: 0.3"/>
    <path d="M 157.625206 -1.218661 
L 157.788598 -1.284983 
L 157.774686 -1.227317 
z
" clip-path="url(#p5f0a730377)" style="fill: #eeeeee; stroke: #000000; stroke-width: 0.3"/>
    <path d="M 156.436569 -20.34657 
L 156.72359 -20.17108 
L 156.457633 -20.115054 
z
" clip-path="url(#p5f0a730377)" style="fill: #eeeeee; stroke: #000000; stroke-width: 0.3"/>
    <path d="M 156.05652 -2.281072 
L 156.60552 -1.964698 
L 156.20003 -1.903316 
z
" clip-path="url(#p5f0a730377)" style="fill: #eeeeee; stroke: #000000; stroke-width: 0.3"/>
    <path d="M 154.519635 -2.856976 
L 155.376729 -2.80754 
L 155.665743 -2.442145 
z
" clip-path="url(#p5f0a730377)" style="fill: #eeeeee; stroke: #000000; stroke-width: 0.3"/>
    <path d="M 153.391425 -3.698988 
L 154.452847 -3.458412 
L 154.27992 -3.109499 
z
" clip-path="url(#p5f0a730377)" style="fill: #eeeeee; stroke: #000000; stroke-width: 0.3"/>
    <path d="M 153.319069 -21.664379 
L 154.553819 -21.546151 
L 154.127265 -21.511548 
z
" clip-path="url(#p5f0a730377)" style="fill: #eeeeee; stroke: #000000; stroke-width: 0.3"/>
    <path d="M 152.063645 -21.372727 
L 152.443294 -21.389614 
L 152.154681 -21.184462 
z
" clip-path="url(#p5f0a730377)" style="fill: #eeeeee; stroke: #000000; stroke-width: 0.3"/>
    <path d="M 151.978569 -4.798059 
L 152.826118 -4.563253 
L 153.041984 -3.836168 
z
" clip-path="url(#p5f0a730377)" style="fill: #eeeeee; stroke: #000000; stroke-width: 0.3"/>
    <path d="M 150.680206 -6.030605 
L 151.31229 -5.495896 
L 150.842406 -5.476954 
z
" clip-path="url(#p5f0a730377)" style="fill: #eeeeee; stroke: #000000; stroke-width: 0.3"/>
    <path d="M 147.030802 -23.631431 
L 147.063405 -24.014533 
L 147.153249 -23.772316 
z
" clip-path="url(#p5f0a730377)" style="fill: #eeeeee; stroke: #000000; stroke-width: 0.3"/>
    <path d="M 145.660084 -24.457377 
L 146.08784 -24.168195 
L 145.901 -24.079215 
z
" clip-path="url(#p5f0a730377)" style="fill: #eeeeee; stroke: #000000; stroke-width: 0.3"/>
    <path d="M 144.817302 -24.511348 
L 145.392545 -24.346155 
L 144.892843 -24.262115 
z
" clip-path="url(#p5f0a730377)" style="fill: #eeeeee; stroke: #000000; stroke-width: 0.3"/>
    <path d="M 143.475219 -25.476124 
L 143.651322 -25.694458 
L 143.851292 -25.25697 
z
" clip-path="url(#p5f0a730377)" style="fill: #eeeeee; stroke: #000000; stroke-width: 0.3"/>
    <path d="M 142.203489 -25.893425 
L 142.774756 -25.923088 
L 143.119018 -25.867477 
z
" clip-path="url(#p5f0a730377)" style="fill: #eeeeee; stroke: #000000; stroke-width: 0.3"/>
    <path d="M 141.414374 -26.34863 
L 141.739565 -26.404646 
L 141.955822 -25.846055 
z
" clip-path="url(#p5f0a730377)" style="fill: #eeeeee; stroke: #000000; stroke-width: 0.3"/>
    <path d="M 141.003324 -24.85038 
L 141.961391 -25.097547 
L 142.136702 -24.57355 
z
" clip-path="url(#p5f0a730377)" style="fill: #eeeeee; stroke: #000000; stroke-width: 0.3"/>
    <path d="M 139.909289 -26.288888 
L 140.042864 -26.511758 
L 140.725048 -26.527409 
z
" clip-path="url(#p5f0a730377)" style="fill: #eeeeee; stroke: #000000; stroke-width: 0.3"/>
    <path d="M 138.728605 -26.798054 
L 138.933334 -27.062938 
L 139.563034 -26.691368 
z
" clip-path="url(#p5f0a730377)" style="fill: #eeeeee; stroke: #000000; stroke-width: 0.3"/>
    <path d="M 137.520878 -26.812481 
L 137.612315 -27.051407 
L 137.809892 -26.878388 
z
" clip-path="url(#p5f0a730377)" style="fill: #eeeeee; stroke: #000000; stroke-width: 0.3"/>
    <path d="M 135.985185 -27.217835 
L 136.215364 -27.249969 
L 137.446148 -26.918763 
z
" clip-path="url(#p5f0a730377)" style="fill: #eeeeee; stroke: #000000; stroke-width: 0.3"/>
    <path d="M 135.191302 -27.591472 
L 135.481507 -27.675501 
L 135.817827 -27.336883 
z
" clip-path="url(#p5f0a730377)" style="fill: #eeeeee; stroke: #000000; stroke-width: 0.3"/>
    <path d="M 134.908258 -26.107223 
L 136.538162 -26.53482 
L 136.286128 -26.360161 
z
" clip-path="url(#p5f0a730377)" style="fill: #eeeeee; stroke: #000000; stroke-width: 0.3"/>
    <path d="M 128.878386 -15.598882 
L 128.940405 -15.638437 
L 129.287061 -15.314226 
z
" clip-path="url(#p5f0a730377)" style="fill: #eeeeee; stroke: #000000; stroke-width: 0.3"/>
    <path d="M 123.745372 -10.512588 
L 124.894255 -11.082721 
L 124.961042 -10.902696 
z
" clip-path="url(#p5f0a730377)" style="fill: #eeeeee; stroke: #000000; stroke-width: 0.3"/>
    <path d="M 119.700013 -21.342649 
L 119.901166 -20.836784 
L 119.753289 -20.525349 
z
" clip-path="url(#p5f0a730377)" style="fill: #eeeeee; stroke: #000000; stroke-width: 0.3"/>
    <path d="M 118.434253 -14.175196 
L 118.924019 -14.242348 
L 119.085818 -14.120415 
z
" clip-path="url(#p5f0a730377)" style="fill: #eeeeee; stroke: #000000; stroke-width: 0.3"/>
    <path d="M 109.153316 -14.523704 
L 109.763936 -14.470563 
L 109.301995 -14.459032 
z
" clip-path="url(#p5f0a730377)" style="fill: #eeeeee; stroke: #000000; stroke-width: 0.3"/>
    <path d="M 52.939173 61.922774 
L 54.905152 60.244176 
L 54.201357 57.538862 
L 54.901117 55.395157 
L 63.148231 49.175431 
L 65.080583 48.960114 
L 66.720824 47.225813 
L 70.235071 46.534162 
L 71.328304 48.047233 
L 72.640579 47.396362 
L 76.82427 48.306762 
L 82.120686 48.200075 
L 86.433974 46.522216 
L 86.571525 45.843321 
L 85.704494 45.566501 
L 88.68166 46.119332 
L 90.778458 47.201586 
L 95.55232 46.003159 
L 98.71188 47.134404 
L 98.873064 48.164105 
L 100.89781 47.949942 
L 99.051111 47.269012 
L 102.443146 47.794417 
L 107.959902 51.939717 
L 105.282478 50.56258 
L 104.309306 50.42458 
L 104.44884 51.115411 
L 104.048127 50.42458 
L 103.241914 50.42458 
L 105.923706 53.380705 
L 107.061862 53.264542 
L 105.062645 51.867634 
L 107.138194 52.748371 
L 107.668114 53.959079 
L 109.001453 53.007484 
L 109.936463 53.126127 
L 109.885581 53.866394 
L 109.302786 53.603575 
L 109.020143 54.221493 
L 110.384491 53.822729 
L 109.917382 52.957644 
L 109.129859 52.918504 
L 108.223475 51.935191 
L 111.105227 53.307792 
L 112.314146 55.313153 
L 113.817218 56.035328 
L 110.117939 55.888246 
L 109.07714 57.294013 
L 106.057231 58.399999 
L 104.229848 58.096563 
L 103.678522 58.890729 
L 102.763941 58.449698 
L 102.710421 59.267676 
L 101.7759 58.884189 
L 100.605856 59.85755 
L 98.489429 59.298544 
L 97.582674 57.816665 
L 96.487594 57.857991 
L 95.02498 59.416256 
L 95.262271 60.166484 
L 94.130593 60.416567 
L 93.894562 62.871544 
L 88.445706 66.483269 
L 88.298034 67.91388 
L 86.471657 67.01899 
L 85.584588 65.570591 
L 82.45891 68.592694 
L 78.296225 68.708057 
L 78.903591 73.227732 
L 76.883583 73.827548 
L 76.764947 75.378493 
L 75.669613 76.457802 
L 72.943896 76.439822 
L 73.042494 75.257532 
L 71.915066 75.125707 
L 71.00749 73.350627 
L 72.097939 72.090483 
L 69.968724 72.486777 
L 69.915448 71.532712 
L 69.243611 72.542803 
L 68.028331 72.137033 
L 68.966399 71.587594 
L 68.294415 70.858808 
L 69.137812 68.00203 
L 68.021278 66.980802 
L 66.092404 67.482001 
L 65.274516 66.232143 
L 63.945427 66.201275 
L 63.453434 67.080989 
L 61.388241 67.635551 
L 61.314527 66.294143 
L 58.047488 65.112551 
L 55.422147 62.120273 
z
" clip-path="url(#p5f0a730377)" style="fill: #eeeeee; stroke: #000000; stroke-width: 0.3"/>
    <path d="M 79.85605 42.995452 
L 81.47934 41.866465 
L 82.537079 41.533355 
L 84.00622 41.545736 
z
" clip-path="url(#p5f0a730377)" style="fill: #eeeeee; stroke: #000000; stroke-width: 0.3"/>
    <path d="M 106.002422 31.612226 
L 106.043368 31.542198 
L 106.178134 31.594924 
z
" clip-path="url(#p5f0a730377)" style="fill: #eeeeee; stroke: #000000; stroke-width: 0.3"/>
    <path d="M 86.299052 41.799191 
L 87.236348 40.644772 
L 87.570293 40.836206 
z
" clip-path="url(#p5f0a730377)" style="fill: #eeeeee; stroke: #000000; stroke-width: 0.3"/>
    <path d="M 76.037353 45.031083 
L 76.556663 44.701557 
L 77.196768 44.937872 
z
" clip-path="url(#p5f0a730377)" style="fill: #eeeeee; stroke: #000000; stroke-width: 0.3"/>
    <path d="M 69.57357 72.895017 
L 70.435432 72.486777 
L 70.235071 73.171432 
z
" clip-path="url(#p5f0a730377)" style="fill: #eeeeee; stroke: #000000; stroke-width: 0.3"/>
    <path d="M 69.428858 73.379055 
L 69.912273 73.692544 
L 69.494854 73.661241 
z
" clip-path="url(#p5f0a730377)" style="fill: #eeeeee; stroke: #000000; stroke-width: 0.3"/>
    <path d="M 153.961118 191.278741 
L 155.675347 189.423266 
L 158.360333 189.821929 
L 158.61269 188.480166 
L 158.000879 187.333715 
L 157.438288 187.789963 
L 157.071399 185.69541 
L 158.33243 183.231553 
L 158.479917 183.754316 
L 160.560634 181.056788 
L 161.452315 182.130832 
L 161.528706 180.898702 
L 161.911471 182.176967 
L 162.646921 182.628467 
L 163.108061 182.392416 
L 163.002262 181.021708 
L 164.431258 180.788178 
L 164.876317 181.74525 
L 165.507609 181.888201 
L 166.282012 181.627437 
L 166.368671 181.266567 
L 165.774357 179.877484 
L 166.981283 179.601484 
L 166.642179 179.11127 
L 167.49689 178.813017 
L 166.77377 178.321973 
L 167.656697 178.185623 
L 167.517954 177.545048 
L 166.659277 177.675222 
L 169.02464 175.190156 
L 168.417822 175.001678 
L 169.24248 173.887371 
L 170.59531 174.253596 
L 170.456167 172.311682 
L 171.129197 172.726098 
L 170.567476 171.946692 
L 172.555565 170.628467 
L 171.749361 169.966054 
L 172.483619 170.066575 
L 172.241911 169.255451 
L 173.402723 168.221052 
L 171.237731 168.980686 
L 170.778173 167.681403 
L 171.663093 167.599014 
L 171.862663 166.687379 
L 171.129197 166.273368 
L 170.328953 168.082637 
L 169.459538 167.071726 
L 169.542622 165.542993 
L 170.790102 165.311892 
L 171.402305 164.682848 
L 169.92824 163.853602 
L 170.655727 162.596749 
L 170.528523 159.750611 
L 171.190024 160.240824 
L 170.305105 158.721162 
L 169.989058 153.164821 
L 168.247845 152.151845 
L 171.308494 149.811997 
L 168.978917 145.209731 
L 168.988453 144.141144 
L 169.655523 144.700565 
L 169.989058 144.078527 
L 170.336906 141.389756 
L 169.693293 140.097064 
L 168.454957 140.402312 
L 167.915101 138.737229 
L 166.908536 138.523836 
L 167.213846 136.839395 
L 164.958843 134.616895 
L 165.698015 132.172467 
L 166.566912 131.627837 
L 166.244798 129.8522 
L 168.04467 131.64772 
L 170.391832 129.837024 
L 169.999551 129.156904 
L 170.776044 127.864141 
L 172.115977 127.487984 
L 168.936281 122.077864 
L 169.47094 120.512532 
L 170.275287 120.096659 
L 171.027033 121.853607 
L 174.082113 124.174512 
L 174.272538 125.568536 
L 175.349867 125.490682 
L 174.619194 127.586663 
L 176.082932 127.646809 
L 175.911197 122.654435 
L 174.227216 121.350617 
L 180.398214 117.278119 
L 181.838494 114.248666 
L 184.03011 112.287051 
L 185.318947 112.78502 
L 187.187403 112.164358 
L 187.619878 110.461168 
L 186.361807 109.655541 
L 188.066334 104.188524 
L 186.377048 105.264097 
L 188.212629 103.395532 
L 188.133121 102.661441 
L 187.599225 102.592233 
L 188.339051 101.687189 
L 188.43167 102.224773 
L 188.472225 101.549179 
L 188.174467 100.788735 
L 190.81333 99.46968 
L 190.63841 98.573281 
L 194.771404 95.390753 
L 200.111071 96.587116 
L 198.218278 96.708816 
L 198.314091 98.011389 
L 197.188256 97.83919 
L 197.173952 98.708811 
L 197.507878 98.212422 
L 197.707839 98.910258 
L 198.139171 98.883065 
L 198.041775 98.074826 
L 199.16085 99.037132 
L 201.522227 93.021891 
L 209.93415 93.524466 
L 215.318016 89.33374 
L 219.990681 87.531477 
L 221.20596 83.78482 
L 222.857329 83.794296 
L 222.412886 84.413044 
L 223.170201 84.691929 
L 223.820173 83.78482 
L 222.946382 83.514995 
L 225.173795 82.223953 
L 225.554235 82.678743 
L 226.166447 82.050114 
L 225.093095 82.125912 
L 225.729947 81.635698 
L 229.772521 82.916029 
L 231.21797 85.421485 
L 230.98143 86.216947 
L 228.328157 88.277301 
L 222.652366 89.929993 
L 219.951289 94.932825 
L 217.682383 95.278124 
L 215.888061 97.962774 
L 213.622184 102.242328 
L 212.932028 108.526665 
L 208.969264 114.999866 
L 210.71714 114.993073 
L 212.695742 113.758644 
L 213.227372 115.696214 
L 214.832373 115.595501 
L 215.961775 120.277109 
L 218.715864 123.275137 
L 219.280311 125.82116 
L 217.761646 127.505772 
L 217.883829 132.092417 
L 220.546032 133.130916 
L 221.600713 136.118749 
L 222.621063 136.866882 
L 226.269285 136.469272 
L 230.532444 137.375927 
L 235.22929 135.985335 
L 238.983281 137.621818 
L 240.838186 137.27496 
L 247.536095 145.883493 
L 248.63269 145.537931 
L 249.465985 146.304378 
L 251.273174 144.915619 
L 255.433339 145.745371 
L 261.855336 144.915619 
L 263.328561 143.948018 
L 267.014142 145.117046 
L 266.611251 145.961964 
L 267.282737 147.341308 
L 265.30262 149.30268 
L 265.381883 151.761848 
L 263.256361 153.809811 
L 263.661783 156.60381 
L 262.861051 161.976522 
L 265.237992 169.779884 
L 266.526936 170.224844 
L 268.386893 173.606106 
L 263.216988 178.64582 
L 263.047851 179.62154 
L 265.288483 179.381925 
L 265.786797 180.620272 
L 269.556693 183.624324 
L 269.287591 184.923364 
L 272.548064 194.198147 
L 272.630864 195.488298 
L 270.568963 195.959145 
L 270.26553 190.555048 
L 267.261536 186.218729 
L 262.335478 190.236173 
L 259.762641 187.466238 
L 258.902332 189.344168 
L 260.044864 190.438642 
L 246.575576 189.918087 
L 243.505685 190.576491 
L 243.544559 197.13942 
L 249.048702 197.351832 
L 250.381572 199.079349 
L 250.527476 201.282948 
L 248.968179 201.607311 
L 247.1996 200.445866 
L 241.570509 201.910747 
L 241.435704 209.486278 
L 245.815487 213.175684 
L 245.731173 215.290343 
L 247.967769 219.838801 
L 242.442923 250.755118 
L 239.06103 246.632527 
L 237.304575 247.130587 
L 234.928132 246.15435 
L 241.605847 235.35294 
L 241.06689 234.442621 
L 240.630429 234.88837 
L 236.447549 232.218096 
L 235.773542 232.676399 
L 233.263056 230.249921 
L 228.219105 231.919894 
L 227.870749 230.69567 
L 227.463813 231.302543 
L 227.070515 230.370255 
L 225.040924 229.452616 
L 223.062321 231.394621 
L 220.837341 232.267278 
L 218.867327 232.676399 
L 216.265707 231.495071 
L 215.600288 232.386559 
L 215.392277 231.834093 
L 213.421754 232.418997 
L 210.858511 230.275039 
L 211.705689 228.856191 
L 210.904957 225.973516 
L 209.366098 225.993399 
L 207.603079 224.809985 
L 207.933516 222.828214 
L 206.57162 220.572294 
L 204.416309 220.120268 
L 202.269586 217.896786 
L 200.414681 217.708449 
L 198.937421 213.358797 
L 196.745503 211.304821 
L 195.295765 211.029641 
L 194.964057 209.59091 
L 193.901042 209.985381 
L 191.866653 208.30496 
L 190.48128 208.948461 
L 187.127406 207.066087 
L 185.535536 207.010628 
L 182.958654 204.184454 
L 180.545359 203.191473 
L 179.412928 203.79626 
L 179.494712 205.288344 
L 177.95687 205.677591 
L 169.827893 203.940658 
L 169.138235 201.275618 
L 167.403988 200.613286 
L 166.841056 199.329422 
L 165.426392 199.672099 
L 162.768742 198.538384 
L 155.84503 193.344016 
L 155.532169 192.086758 
z
" clip-path="url(#p5f0a730377)" style="fill: #eeeeee; stroke: #000000; stroke-width: 0.3"/>
    <path d="M 164.895397 180.568326 
L 165.40186 181.15658 
L 166.041496 181.605195 
L 165.034931 181.605195 
z
" clip-path="url(#p5f0a730377)" style="fill: #eeeeee; stroke: #000000; stroke-width: 0.3"/>
    <path d="M 187.480227 103.395046 
L 187.625125 102.799472 
L 188.020904 103.075107 
z
" clip-path="url(#p5f0a730377)" style="fill: #eeeeee; stroke: #000000; stroke-width: 0.3"/>
    <path d="M 168.342056 165.295826 
L 169.528309 163.916624 
L 171.05645 164.752056 
z
" clip-path="url(#p5f0a730377)" style="fill: #eeeeee; stroke: #000000; stroke-width: 0.3"/>
    <path d="M 165.088597 180.281199 
L 165.435253 180.286139 
L 166.294732 181.511264 
z
" clip-path="url(#p5f0a730377)" style="fill: #eeeeee; stroke: #000000; stroke-width: 0.3"/>
    <path d="M 161.841958 180.713301 
L 163.00152 182.149784 
L 162.62784 182.510644 
z
" clip-path="url(#p5f0a730377)" style="fill: #eeeeee; stroke: #000000; stroke-width: 0.3"/>
    <path d="M 161.788995 178.165062 
L 161.944005 178.04242 
L 162.308735 177.900957 
z
" clip-path="url(#p5f0a730377)" style="fill: #eeeeee; stroke: #000000; stroke-width: 0.3"/>
    <path d="M 143.51338 70.401092 
L 143.527693 70.413039 
L 143.518148 70.415509 
z
" clip-path="url(#p5f0a730377)" style="fill: #eeeeee; stroke: #000000; stroke-width: 0.3"/>
    <path d="M 130.858932 72.796156 
L 131.062068 72.467005 
L 131.248117 72.722828 
z
" clip-path="url(#p5f0a730377)" style="fill: #eeeeee; stroke: #000000; stroke-width: 0.3"/>
    <path d="M 128.755549 167.486962 
L 128.942789 167.454828 
L 128.96187 167.61178 
z
" clip-path="url(#p5f0a730377)" style="fill: #eeeeee; stroke: #000000; stroke-width: 0.3"/>
    <path d="M 127.622561 81.29049 
L 127.626938 80.675043 
L 127.880174 80.391206 
z
" clip-path="url(#p5f0a730377)" style="fill: #eeeeee; stroke: #000000; stroke-width: 0.3"/>
    <path d="M -218.307753 -121.485428 
L -194.851799 -123.319561 
L -195.807521 -121.167241 
L -158.527113 -109.291239 
L -131.254817 -109.293851 
L -131.257846 -113.852767 
L -113.807124 -113.657627 
L -111.660655 -110.811053 
L -109.237257 -109.734883 
L -103.40041 -104.463927 
L -99.204907 -102.03589 
L -96.735308 -97.80814 
L -96.724708 -95.270754 
L -95.124005 -92.355114 
L -90.636431 -89.163242 
L -87.962866 -88.512937 
L -84.083918 -86.022384 
L -81.506039 -85.695136 
L -78.92688 -88.050716 
L -79.164172 -89.211118 
L -77.288066 -93.190364 
L -74.504188 -93.600001 
L -73.672915 -94.781066 
L -71.604947 -93.85139 
L -64.724527 -93.611775 
L -63.816511 -91.783554 
L -63.052123 -92.03467 
L -62.846388 -91.112586 
L -57.532592 -86.907322 
L -57.096375 -84.968709 
L -54.14892 -80.774187 
L -53.684439 -78.413636 
L -51.548824 -77.003161 
L -49.364487 -73.346709 
L -46.258496 -71.441839 
L -45.737974 -66.059448 
L -43.652587 -63.732377 
L -42.266715 -59.641697 
L -39.285935 -59.126375 
L -33.632351 -56.122323 
L -28.134021 -55.669254 
L -25.843407 -53.889426 
L -23.047786 -55.012673 
L -23.300621 -52.557888 
L -26.171246 -47.050992 
L -28.051602 -40.333378 
L -28.772338 -33.143267 
L -29.718877 -32.968608 
L -29.118203 -31.586936 
L -28.743322 -32.471793 
L -28.939707 -24.704139 
L -30.391916 -20.89775 
L -29.838138 -21.643372 
L -29.118203 -15.833283 
L -27.65128 -13.200124 
L -24.776679 -10.417837 
L -25.776884 -7.506612 
L -26.300844 -9.17129 
L -25.304215 -10.180551 
L -27.793999 -12.781587 
L -29.318554 -15.833283 
L -28.111628 -11.183232 
L -26.468603 -9.606298 
L -26.540959 -8.794769 
L -23.157903 -1.16552 
L -16.3735 6.713367 
L -14.753933 12.141994 
L -9.501648 17.533962 
L -11.515187 16.962999 
L -10.035144 18.018405 
L -10.471644 18.37639 
L -7.700008 18.715422 
L -9.263526 17.966915 
L -9.306855 17.533962 
L -7.849087 18.326954 
L -4.00409 18.494203 
L -2.384121 19.92284 
L -0.065672 20.450128 
L 1.947467 23.711097 
L 3.060572 24.172893 
L 9.76109 22.871544 
L 11.761108 21.463519 
L 9.189824 22.408108 
L 11.996045 21.285965 
L 15.87086 21.14755 
L 16.137207 22.184419 
L 16.048164 21.29132 
L 18.802029 20.914839 
L 20.158317 19.637769 
L 20.625426 21.285965 
L 20.363837 19.400493 
L 23.204263 18.839259 
L 27.669894 18.635139 
L 28.466073 19.575152 
L 27.649133 19.259607 
L 26.646544 20.098329 
L 28.253792 20.512745 
L 27.452748 19.620467 
L 28.120218 19.753111 
L 28.976912 21.698325 
L 29.132752 20.657751 
L 32.179489 21.214702 
L 32.007754 20.450128 
L 35.154271 18.986067 
L 34.014523 19.268668 
L 34.338122 18.185249 
L 32.880744 17.395962 
L 34.614806 15.938492 
L 31.995825 17.366299 
L 39.185707 12.37845 
L 40.02253 7.886586 
L 42.033978 6.173758 
L 41.916007 -0.022369 
L 43.454875 -5.067479 
L 48.793428 -7.6199 
L 55.37189 -8.411657 
L 61.866878 -10.561193 
L 63.307168 -10.35357 
L 65.413718 -10.704964 
L 63.945212 -10.548012 
L 64.977227 -10.975609 
L 73.50165 -9.199708 
L 74.660469 -10.43926 
L 71.975493 -10.145947 
L 74.92285 -11.050587 
L 77.692893 -9.12556 
L 77.818916 -6.812066 
L 78.536867 -6.400536 
L 77.230161 -3.271391 
L 71.806141 3.147555 
L 71.769973 6.506564 
L 71.324328 7.568561 
L 71.67496 6.261047 
L 71.341816 5.74117 
L 71.569612 6.505744 
L 69.492069 9.092769 
L 68.770542 8.708836 
L 69.428858 10.389571 
L 71.6996 9.903893 
L 70.841714 9.560325 
L 71.709145 9.070526 
L 71.979469 9.661251 
L 71.533434 10.902443 
L 69.408986 12.358678 
L 69.769154 13.272378 
L 71.508784 12.262287 
L 67.760792 23.641889 
L 66.875472 21.147145 
L 65.482097 20.585243 
L 66.220722 18.646215 
L 65.887588 16.774744 
L 64.998291 18.240445 
L 64.926336 17.842511 
L 64.299821 18.141989 
L 63.821183 18.584013 
L 64.769314 18.56094 
L 63.474126 20.657751 
L 61.085315 21.035325 
L 57.728911 26.737118 
L 55.989114 25.641064 
L 54.968266 26.229632 
L 54.904146 27.51298 
L 37.100007 27.551168 
L 37.010652 33.206653 
L 32.60915 33.347914 
L 34.201529 33.93387 
L 36.395714 36.688366 
L 38.916038 37.726865 
L 40.516995 40.987793 
L 42.843963 41.637045 
L 42.428702 44.880195 
L 29.704106 45.263672 
L 25.09814 53.250683 
L 26.441357 55.258878 
L 25.655778 56.046251 
L 24.953497 60.567495 
L 18.949799 54.373494 
L 19.957956 55.067626 
L 19.65503 54.269278 
L 17.557215 53.316448 
L 6.230947 43.585448 
L 3.721683 42.857948 
L 3.357929 43.395127 
L 7.975345 45.906353 
L 3.790853 44.082252 
L 0.564829 43.859808 
L 1.947857 42.575772 
L 1.07646 42.1976 
L -0.126099 43.272778 
L -0.96172 41.582152 
L -2.770922 43.165262 
L -0.526421 42.990187 
L -1.466599 43.411194 
L -0.247344 43.480401 
L 0.129521 43.869689 
L -3.605946 43.988383 
L -6.3921 46.130336 
L -14.229122 49.087049 
L -16.849608 49.342943 
L -24.286151 46.52991 
L -29.236507 46.089091 
L -33.138902 43.763407 
L -32.259552 43.964855 
L -32.125977 43.832615 
L -36.858288 42.694557 
L -39.047246 40.2609 
L -47.707208 38.812876 
L -50.915617 36.670912 
L -61.343463 33.081956 
L -70.437765 25.888717 
L -72.399095 26.483633 
L -83.839768 22.931812 
L -89.880865 16.77523 
L -93.316855 15.283783 
L -93.53828 14.376096 
L -94.370833 14.682914 
L -99.784282 12.044773 
L -100.703318 9.828803 
L -104.981699 5.06187 
L -106.672451 1.265545 
L -102.22676 -0.522889 
L -103.183078 -2.254851 
L -105.169985 -2.39109 
L -102.135753 -5.356104 
L -101.653511 -9.224016 
L -104.227394 -11.127448 
L -106.023562 -14.41476 
L -106.848143 -20.068504 
L -107.663891 -21.326582 
L -113.815408 -26.861086 
L -114.724186 -29.112784 
L -117.366224 -31.388789 
L -119.736746 -34.916282 
L -126.958039 -39.944505 
L -127.198946 -40.295889 
L -124.251989 -38.592912 
L -124.561275 -40.39476 
L -125.483965 -39.752534 
L -128.539045 -41.578285 
L -127.265733 -40.466023 
L -128.262762 -40.961187 
L -129.74518 -43.072819 
L -128.949704 -42.774577 
L -129.011724 -44.763455 
L -129.631878 -45.249549 
L -130.012328 -43.4444 
L -132.359393 -46.360151 
L -130.946547 -45.046462 
L -130.492559 -45.841924 
L -129.190611 -45.553157 
L -131.286042 -46.98796 
L -132.593148 -46.950886 
L -132.686969 -47.961807 
L -133.056682 -46.705369 
L -133.406513 -47.875298 
L -136.306955 -48.860666 
L -134.960886 -48.791458 
L -136.637305 -49.091361 
L -136.668715 -50.703719 
L -137.913011 -50.906806 
L -138.238994 -49.956447 
L -140.060516 -50.664579 
L -138.73512 -50.748619 
L -137.343738 -53.380958 
L -139.53298 -51.21082 
L -141.370006 -52.181781 
L -140.454878 -50.871787 
L -142.934716 -51.776427 
L -141.728591 -52.429769 
L -142.619471 -52.947176 
L -142.934716 -52.253874 
L -143.158936 -55.57828 
L -141.487675 -58.437599 
L -141.591441 -57.060048 
L -141.042832 -58.841304 
L -139.99452 -57.550262 
L -139.788199 -58.299184 
L -140.060516 -58.283533 
L -140.457262 -59.046041 
L -140.727986 -59.191462 
L -141.364838 -58.744913 
L -141.424474 -60.40052 
L -143.649092 -62.877345 
L -144.326733 -62.617857 
L -143.7562 -62.133556 
L -146.591281 -62.642337 
L -148.365497 -66.585076 
L -151.505996 -66.985186 
L -153.799063 -68.422388 
L -152.854302 -68.539341 
L -154.078521 -69.30351 
L -154.822676 -71.973328 
L -154.050696 -73.003202 
L -154.553182 -73.099592 
L -154.650979 -73.832853 
L -153.710801 -74.323077 
L -156.991684 -74.662109 
L -156.891513 -75.499596 
L -157.355037 -73.975389 
L -158.458607 -75.242953 
L -159.491951 -74.952546 
L -162.746455 -79.525959 
L -165.386421 -80.265304 
L -167.741224 -83.265783 
L -166.948444 -83.737692 
L -169.862545 -85.393968 
L -170.575211 -88.923303 
L -172.253399 -89.220857 
L -171.9264 -90.648351 
L -175.526934 -94.948375 
L -175.702851 -97.996254 
L -178.786255 -102.642367 
L -178.902019 -108.025406 
L -180.2811 -108.894845 
L -184.085201 -109.275031 
L -184.449697 -111.015912 
L -187.557642 -112.691757 
L -187.296864 -111.729451 
L -188.05836 -110.955158 
L -189.816416 -111.16517 
L -197.833224 -115.80854 
L -195.402275 -112.618429 
L -196.41262 -107.200938 
L -194.716652 -105.152865 
L -193.936495 -100.864928 
L -194.279751 -97.875252 
L -192.984251 -95.530363 
L -191.500387 -93.57138 
L -189.812479 -93.270931 
L -184.222585 -88.587612 
L -183.133465 -84.633048 
L -182.252326 -85.324598 
L -181.468887 -83.708809 
L -180.157638 -83.957545 
L -179.011696 -80.715235 
L -176.504092 -80.072301 
L -175.790048 -74.228984 
L -174.078262 -72.106945 
L -171.701301 -71.023941 
L -170.314462 -67.613572 
L -167.750916 -66.427172 
L -168.403438 -65.265201 
L -166.972693 -63.742228 
L -167.259899 -62.593043 
L -166.128163 -61.147712 
L -165.078073 -61.249589 
L -166.424289 -62.593226 
L -166.784154 -64.270751 
L -163.937553 -62.401639 
L -163.983638 -61.008051 
L -162.786492 -60.598282 
L -163.046655 -59.605908 
L -161.612139 -56.352857 
L -161.466362 -53.123546 
L -159.676319 -50.603835 
L -158.653995 -50.451247 
L -157.532361 -46.682722 
L -155.377284 -44.049937 
L -155.911864 -40.725349 
L -154.654526 -37.679576 
L -151.873081 -36.889742 
L -152.920748 -36.868563 
L -152.221495 -36.235469 
L -151.634851 -37.308197 
L -151.944157 -38.439584 
L -150.968563 -38.585481 
L -148.764198 -36.718819 
L -148.575316 -35.579799 
L -147.018344 -35.746652 
L -145.729038 -31.724592 
L -143.498518 -30.607085 
L -142.967123 -28.95241 
L -143.754363 -26.522995 
L -147.673807 -23.713304 
L -148.692623 -23.918203 
L -151.698854 -30.464276 
L -162.808054 -38.394998 
L -161.980581 -38.050083 
L -165.099928 -41.046907 
L -166.407905 -40.232391 
L -168.317571 -43.965098 
L -167.910488 -42.645222 
L -168.583918 -43.619059 
L -169.095949 -42.94059 
L -169.182686 -45.2309 
L -169.65174 -43.960187 
L -169.855657 -44.768497 
L -168.536475 -50.029734 
L -169.060846 -50.104712 
L -169.031536 -52.531039 
L -169.252727 -50.338911 
L -169.984024 -54.905045 
L -172.17011 -57.790838 
L -174.968389 -58.62627 
L -178.598878 -61.424319 
L -179.168786 -63.398255 
L -180.114132 -62.89568 
L -179.429565 -65.180341 
L -180.648879 -62.976895 
L -182.607179 -63.504152 
L -184.230469 -62.704124 
L -185.981726 -64.966209 
L -187.826383 -65.254489 
L -189.553293 -66.89651 
L -192.026907 -67.268385 
L -192.723678 -69.59505 
L -197.767131 -72.977548 
L -198.364453 -74.098911 
L -192.651341 -73.319536 
L -190.865568 -74.338313 
L -190.534417 -72.932344 
L -188.781265 -71.576215 
L -188.506965 -72.472198 
L -187.319119 -72.120805 
L -186.980016 -72.765096 
L -188.353519 -73.593927 
L -188.281163 -72.773336 
L -189.152971 -72.882088 
L -189.274616 -75.050162 
L -190.47651 -74.606063 
L -189.088568 -76.456547 
L -189.249253 -75.653066 
L -188.815137 -74.877426 
L -188.959947 -75.83954 
L -188.163816 -75.887578 
L -188.995695 -78.195798 
L -188.442171 -80.85119 
L -197.272294 -89.555202 
L -199.373685 -90.070139 
L -204.360648 -93.382811 
L -204.383461 -94.822321 
L -205.470735 -95.5309 
L -205.725886 -99.362457 
L -207.075208 -99.917302 
L -206.668917 -100.407101 
L -207.208773 -100.891139 
L -207.359864 -99.491011 
L -207.796628 -100.710223 
L -207.881412 -103.979089 
L -210.592699 -105.536807 
L -210.652256 -108.201543 
L -213.916051 -111.573734 
L -213.646919 -112.652213 
L -214.646577 -113.595708 
L -213.60358 -113.412667 
L -213.292838 -114.512132 
L -215.770175 -116.234497 
z
" clip-path="url(#p5f0a730377)" style="fill: #eeeeee; stroke: #000000; stroke-width: 0.3"/>
    <path d="M -171.211653 -43.130911 
L -169.460201 -47.926151 
L -170.323753 -43.691223 
L -169.365403 -42.089344 
L -169.569018 -41.518159 
L -168.821063 -40.583927 
L -169.958642 -41.727523 
L -169.757577 -42.63689 
z
" clip-path="url(#p5f0a730377)" style="fill: #eeeeee; stroke: #000000; stroke-width: 0.3"/>
    <path d="M -183.761182 -89.877611 
L -183.585714 -91.197284 
L -181.866366 -90.380966 
L -181.623359 -88.869363 
L -179.652162 -88.52625 
L -179.127196 -85.573689 
L -182.852345 -88.618206 
z
" clip-path="url(#p5f0a730377)" style="fill: #eeeeee; stroke: #000000; stroke-width: 0.3"/>
    <path d="M -173.931957 -84.469009 
L -172.983084 -85.443565 
L -172.775962 -87.571679 
L -170.818326 -88.230346 
L -170.14683 -85.946778 
L -170.919151 -83.385995 
z
" clip-path="url(#p5f0a730377)" style="fill: #eeeeee; stroke: #000000; stroke-width: 0.3"/>
    <path d="M -201.043646 -76.442869 
L -199.887905 -77.971865 
L -199.97472 -79.244543 
L -199.067946 -77.032096 
L -199.774447 -75.893582 
z
" clip-path="url(#p5f0a730377)" style="fill: #eeeeee; stroke: #000000; stroke-width: 0.3"/>
    <path d="M 78.536867 -7.651203 
L 78.674027 -7.198063 
L 78.937189 -6.752749 
L 78.556348 -7.197243 
z
" clip-path="url(#p5f0a730377)" style="fill: #eeeeee; stroke: #000000; stroke-width: 0.3"/>
    <path d="M 76.058221 2.74467 
L 76.323377 0.259817 
L 78.464121 -0.610634 
L 77.994227 0.551064 
z
" clip-path="url(#p5f0a730377)" style="fill: #eeeeee; stroke: #000000; stroke-width: 0.3"/>
    <path d="M 73.382389 18.156416 
L 73.587518 18.7871 
L 73.443207 19.268668 
L 73.485345 18.981957 
z
" clip-path="url(#p5f0a730377)" style="fill: #eeeeee; stroke: #000000; stroke-width: 0.3"/>
    <path d="M 49.186687 -20.706943 
L 50.511047 -19.530859 
L 49.98312 -18.619578 
L 50.071274 -19.641413 
z
" clip-path="url(#p5f0a730377)" style="fill: #eeeeee; stroke: #000000; stroke-width: 0.3"/>
    <path d="M -29.924807 -21.796619 
L -29.487515 -22.582616 
L -29.391311 -22.707434 
L -29.46525 -22.190442 
z
" clip-path="url(#p5f0a730377)" style="fill: #eeeeee; stroke: #000000; stroke-width: 0.3"/>
    <path d="M -116.072737 -11.75546 
L -114.621954 -10.783253 
L -114.81743 -10.222333 
L -115.782648 -10.821997 
z
" clip-path="url(#p5f0a730377)" style="fill: #eeeeee; stroke: #000000; stroke-width: 0.3"/>
    <path d="M -149.130149 -66.363634 
L -148.5518 -66.187152 
L -148.090552 -65.69712 
L -148.612363 -66.132756 
z
" clip-path="url(#p5f0a730377)" style="fill: #eeeeee; stroke: #000000; stroke-width: 0.3"/>
    <path d="M -155.640329 -46.197114 
L -154.312833 -45.394079 
L -153.824464 -44.01999 
L -154.971296 -44.369237 
z
" clip-path="url(#p5f0a730377)" style="fill: #eeeeee; stroke: #000000; stroke-width: 0.3"/>
    <path d="M -160.46861 -53.372059 
L -160.185634 -55.797647 
L -159.016586 -56.085927 
L -160.232295 -54.372016 
z
" clip-path="url(#p5f0a730377)" style="fill: #eeeeee; stroke: #000000; stroke-width: 0.3"/>
    <path d="M -195.455941 -114.108853 
L -194.712939 -113.710909 
L -194.15241 -112.961997 
L -195.225772 -113.223996 
z
" clip-path="url(#p5f0a730377)" style="fill: #eeeeee; stroke: #000000; stroke-width: 0.3"/>
    <path d="M -230.425003 -87.063688 
L -229.529805 -87.649968 
L -229.061328 -84.87082 
L -229.676618 -84.395307 
z
" clip-path="url(#p5f0a730377)" style="fill: #eeeeee; stroke: #000000; stroke-width: 0.3"/>
    <path d="M 72.305051 21.55826 
L 72.982067 19.890706 
L 72.743935 21.033037 
z
" clip-path="url(#p5f0a730377)" style="fill: #eeeeee; stroke: #000000; stroke-width: 0.3"/>
    <path d="M 28.699437 19.040453 
L 31.667458 17.603575 
L 31.807392 18.018405 
z
" clip-path="url(#p5f0a730377)" style="fill: #eeeeee; stroke: #000000; stroke-width: 0.3"/>
    <path d="M -28.378777 -13.470363 
L -27.65128 -12.232462 
L -28.169271 -12.6201 
z
" clip-path="url(#p5f0a730377)" style="fill: #eeeeee; stroke: #000000; stroke-width: 0.3"/>
    <path d="M -112.345662 -7.92449 
L -112.156536 -8.12128 
L -111.839024 -7.686647 
z
" clip-path="url(#p5f0a730377)" style="fill: #eeeeee; stroke: #000000; stroke-width: 0.3"/>
    <path d="M -114.429105 -9.487088 
L -114.106435 -9.749097 
L -113.398223 -8.997401 
z
" clip-path="url(#p5f0a730377)" style="fill: #eeeeee; stroke: #000000; stroke-width: 0.3"/>
    <path d="M -116.347203 -12.299807 
L -116.042626 -12.229405 
L -116.249719 -12.099392 
z
" clip-path="url(#p5f0a730377)" style="fill: #eeeeee; stroke: #000000; stroke-width: 0.3"/>
    <path d="M -139.053951 -49.759535 
L -137.958725 -49.755414 
L -136.840451 -49.137081 
z
" clip-path="url(#p5f0a730377)" style="fill: #eeeeee; stroke: #000000; stroke-width: 0.3"/>
    <path d="M -148.04352 -38.90143 
L -146.769963 -36.49848 
L -147.723184 -37.12798 
z
" clip-path="url(#p5f0a730377)" style="fill: #eeeeee; stroke: #000000; stroke-width: 0.3"/>
    <path d="M -152.757746 -40.877502 
L -151.508351 -39.86653 
L -152.096275 -39.185277 
z
" clip-path="url(#p5f0a730377)" style="fill: #eeeeee; stroke: #000000; stroke-width: 0.3"/>
    <path d="M -154.365708 -43.424365 
L -154.257262 -43.653916 
L -154.18092 -43.362092 
z
" clip-path="url(#p5f0a730377)" style="fill: #eeeeee; stroke: #000000; stroke-width: 0.3"/>
    <path d="M -154.602481 -69.355415 
L -154.490391 -69.70441 
L -153.916429 -68.361675 
z
" clip-path="url(#p5f0a730377)" style="fill: #eeeeee; stroke: #000000; stroke-width: 0.3"/>
    <path d="M -155.854779 -48.150103 
L -155.432553 -48.356987 
L -155.816979 -47.866915 
z
" clip-path="url(#p5f0a730377)" style="fill: #eeeeee; stroke: #000000; stroke-width: 0.3"/>
    <path d="M -156.565931 -51.758943 
L -156.252141 -52.451191 
L -156.054525 -51.289979 
z
" clip-path="url(#p5f0a730377)" style="fill: #eeeeee; stroke: #000000; stroke-width: 0.3"/>
    <path d="M -156.864079 12.538703 
L -156.391401 12.33108 
L -156.807228 12.74179 
z
" clip-path="url(#p5f0a730377)" style="fill: #eeeeee; stroke: #000000; stroke-width: 0.3"/>
    <path d="M -158.93192 -52.024374 
L -158.653702 -52.259766 
L -158.744406 -51.833607 
z
" clip-path="url(#p5f0a730377)" style="fill: #eeeeee; stroke: #000000; stroke-width: 0.3"/>
    <path d="M -159.122892 17.850337 
L -158.471327 16.843121 
L -157.726342 18.269288 
z
" clip-path="url(#p5f0a730377)" style="fill: #eeeeee; stroke: #000000; stroke-width: 0.3"/>
    <path d="M -160.991329 -53.145737 
L -160.884163 -53.325307 
L -160.868707 -52.986821 
z
" clip-path="url(#p5f0a730377)" style="fill: #eeeeee; stroke: #000000; stroke-width: 0.3"/>
    <path d="M -161.262053 -56.40296 
L -161.042436 -56.726017 
L -161.047496 -56.421933 
z
" clip-path="url(#p5f0a730377)" style="fill: #eeeeee; stroke: #000000; stroke-width: 0.3"/>
    <path d="M -162.25112 -75.486152 
L -162.037618 -75.135062 
L -162.197493 -75.173968 
z
" clip-path="url(#p5f0a730377)" style="fill: #eeeeee; stroke: #000000; stroke-width: 0.3"/>
    <path d="M -165.043497 -38.739315 
L -164.892298 -38.90956 
L -162.988924 -38.449465 
z
" clip-path="url(#p5f0a730377)" style="fill: #eeeeee; stroke: #000000; stroke-width: 0.3"/>
    <path d="M -167.269367 -70.030828 
L -166.832759 -69.915839 
L -166.864286 -69.837591 
z
" clip-path="url(#p5f0a730377)" style="fill: #eeeeee; stroke: #000000; stroke-width: 0.3"/>
    <path d="M -168.302642 -40.318648 
L -166.910928 -40.380191 
L -165.384047 -38.146585 
z
" clip-path="url(#p5f0a730377)" style="fill: #eeeeee; stroke: #000000; stroke-width: 0.3"/>
    <path d="M -169.090136 -67.33495 
L -168.677895 -67.676149 
L -168.883317 -67.294687 
z
" clip-path="url(#p5f0a730377)" style="fill: #eeeeee; stroke: #000000; stroke-width: 0.3"/>
    <path d="M -169.435072 -48.091202 
L -169.194557 -50.153318 
L -169.255238 -48.700788 
z
" clip-path="url(#p5f0a730377)" style="fill: #eeeeee; stroke: #000000; stroke-width: 0.3"/>
    <path d="M -174.140213 -82.384185 
L -173.589268 -82.982665 
L -173.647712 -82.413079 
z
" clip-path="url(#p5f0a730377)" style="fill: #eeeeee; stroke: #000000; stroke-width: 0.3"/>
    <path d="M -176.645296 -82.408746 
L -175.586668 -81.59094 
L -175.796897 -81.436053 
z
" clip-path="url(#p5f0a730377)" style="fill: #eeeeee; stroke: #000000; stroke-width: 0.3"/>
    <path d="M -180.590376 -62.536055 
L -179.709834 -62.652633 
L -179.354434 -62.092392 
z
" clip-path="url(#p5f0a730377)" style="fill: #eeeeee; stroke: #000000; stroke-width: 0.3"/>
    <path d="M -183.030529 -86.27028 
L -182.93663 -86.664043 
L -182.812592 -86.094791 
z
" clip-path="url(#p5f0a730377)" style="fill: #eeeeee; stroke: #000000; stroke-width: 0.3"/>
    <path d="M -191.898668 -95.513 
L -191.701628 -95.713435 
L -191.632574 -95.45173 
z
" clip-path="url(#p5f0a730377)" style="fill: #eeeeee; stroke: #000000; stroke-width: 0.3"/>
    <path d="M -195.577586 22.28329 
L -194.849298 22.039828 
L -194.818288 22.133343 
z
" clip-path="url(#p5f0a730377)" style="fill: #eeeeee; stroke: #000000; stroke-width: 0.3"/>
    <path d="M -199.698476 -74.479432 
L -199.131802 -74.273945 
L -199.153598 -74.101361 
z
" clip-path="url(#p5f0a730377)" style="fill: #eeeeee; stroke: #000000; stroke-width: 0.3"/>
    <path d="M -203.332434 -78.618738 
L -203.292807 -78.74304 
L -203.062256 -78.718682 
z
" clip-path="url(#p5f0a730377)" style="fill: #eeeeee; stroke: #000000; stroke-width: 0.3"/>
    <path d="M -204.909815 -44.773336 
L -204.895502 -44.761805 
L -204.905037 -44.759335 
z
" clip-path="url(#p5f0a730377)" style="fill: #eeeeee; stroke: #000000; stroke-width: 0.3"/>
    <path d="M -208.514844 -100.766655 
L -208.386321 -100.869717 
L -208.333202 -100.740555 
z
" clip-path="url(#p5f0a730377)" style="fill: #eeeeee; stroke: #000000; stroke-width: 0.3"/>
    <path d="M -219.479273 -120.300495 
L -219.423477 -120.042242 
L -219.461423 -120.038446 
z
" clip-path="url(#p5f0a730377)" style="fill: #eeeeee; stroke: #000000; stroke-width: 0.3"/>
    <path d="M 54.161476 46.955087 
L 54.968266 26.229632 
L 55.989114 25.641064 
L 57.728911 26.737118 
L 61.085315 21.035325 
L 63.273775 20.759912 
L 62.422239 21.881225 
L 63.140201 21.838391 
L 62.744646 22.55847 
L 65.29685 21.832205 
L 64.811051 22.502029 
L 65.314338 22.253626 
L 65.425647 23.505944 
L 63.431197 29.639829 
L 64.607514 30.573302 
L 63.44511 32.318303 
L 64.140806 36.090088 
L 62.873052 40.570411 
L 63.201018 39.175973 
L 60.999457 43.134363 
L 59.011759 43.550844 
L 56.942325 47.099486 
z
" clip-path="url(#p5f0a730377)" style="fill: #eeeeee; stroke: #000000; stroke-width: 0.3"/>
    <path d="M 66.153935 26.620257 
L 67.636363 23.915419 
L 67.071457 25.807907 
L 66.881432 26.210782 
L 66.576122 26.506149 
z
" clip-path="url(#p5f0a730377)" style="fill: #eeeeee; stroke: #000000; stroke-width: 0.3"/>
    <path d="M 67.955585 32.797806 
L 68.057358 31.896882 
L 68.161114 32.797806 
z
" clip-path="url(#p5f0a730377)" style="fill: #eeeeee; stroke: #000000; stroke-width: 0.3"/>
    <path d="M 67.309188 23.634063 
L 67.465819 23.635298 
L 67.338204 23.855272 
z
" clip-path="url(#p5f0a730377)" style="fill: #eeeeee; stroke: #000000; stroke-width: 0.3"/>
    <path d="M 66.960148 32.936221 
L 68.301439 30.371449 
L 68.321321 30.726538 
z
" clip-path="url(#p5f0a730377)" style="fill: #eeeeee; stroke: #000000; stroke-width: 0.3"/>
    <path d="M 66.663182 24.647455 
L 66.863543 24.581122 
L 66.691407 24.73931 
z
" clip-path="url(#p5f0a730377)" style="fill: #eeeeee; stroke: #000000; stroke-width: 0.3"/>
    <path d="M 66.394851 24.847657 
L 66.608324 24.823349 
L 66.423467 24.911509 
z
" clip-path="url(#p5f0a730377)" style="fill: #eeeeee; stroke: #000000; stroke-width: 0.3"/>
    <path d="M 65.698364 30.060835 
L 65.718236 29.619226 
L 65.81404 30.158876 
z
" clip-path="url(#p5f0a730377)" style="fill: #eeeeee; stroke: #000000; stroke-width: 0.3"/>
    <path d="M 65.096088 30.564645 
L 65.580685 30.790805 
L 65.489259 31.089058 
z
" clip-path="url(#p5f0a730377)" style="fill: #eeeeee; stroke: #000000; stroke-width: 0.3"/>
    <path d="M 64.87903 28.750851 
L 65.547292 28.323244 
L 65.229262 28.854247 
z
" clip-path="url(#p5f0a730377)" style="fill: #eeeeee; stroke: #000000; stroke-width: 0.3"/>
    <path d="M 160.280765 22.944467 
L 161.688053 21.135603 
L 164.234688 21.14755 
L 164.895397 20.38092 
L 171.047706 20.982367 
L 174.737743 21.489842 
L 175.832881 22.820469 
L 180.050366 24.053834 
L 181.644493 26.488847 
L 179.93429 27.042093 
L 177.591983 26.9733 
L 175.17692 25.711294 
L 174.276515 27.318093 
L 172.327183 26.836495 
L 171.596306 27.940142 
L 172.336132 28.009339 
L 171.962844 28.628088 
L 169.630082 27.033032 
L 166.572217 27.10306 
L 163.449949 23.758882 
z
" clip-path="url(#p5f0a730377)" style="fill: #eeeeee; stroke: #000000; stroke-width: 0.3"/>
    <path d="M 130.561888 11.762942 
L 131.214752 12.450503 
L 133.785529 12.371404 
L 130.845762 12.837745 
z
" clip-path="url(#p5f0a730377)" style="fill: #eeeeee; stroke: #000000; stroke-width: 0.3"/>
    <path d="M 145.439391 8.628098 
L 146.883912 7.838851 
L 147.072051 8.047082 
z
" clip-path="url(#p5f0a730377)" style="fill: #eeeeee; stroke: #000000; stroke-width: 0.3"/>
    <path d="M 143.295863 8.840833 
L 143.794783 8.415403 
L 144.750525 8.37269 
z
" clip-path="url(#p5f0a730377)" style="fill: #eeeeee; stroke: #000000; stroke-width: 0.3"/>
    <path d="M 144.517161 47.964844 
L 144.520346 47.944252 
L 144.534258 47.962374 
z
" clip-path="url(#p5f0a730377)" style="fill: #eeeeee; stroke: #000000; stroke-width: 0.3"/>
    <path d="M 157.684441 47.257947 
L 157.719026 47.224578 
L 157.717043 47.277314 
z
" clip-path="url(#p5f0a730377)" style="fill: #eeeeee; stroke: #000000; stroke-width: 0.3"/>
   </g>
   <g id="PatchCollection_2">
    <path d="M 52.939173 61.922774 
L 54.905152 60.244176 
L 54.201357 57.538862 
L 54.901117 55.395157 
L 63.148231 49.175431 
L 65.080583 48.960114 
L 66.720824 47.225813 
L 70.235071 46.534162 
L 71.328304 48.047233 
L 72.640579 47.396362 
L 76.82427 48.306762 
L 82.120686 48.200075 
L 86.433974 46.522216 
L 86.571525 45.843321 
L 85.704494 45.566501 
L 88.68166 46.119332 
L 90.778458 47.201586 
L 95.55232 46.003159 
L 98.71188 47.134404 
L 98.873064 48.164105 
L 100.89781 47.949942 
L 99.051111 47.269012 
L 102.443146 47.794417 
L 107.959902 51.939717 
L 105.282478 50.56258 
L 104.309306 50.42458 
L 104.44884 51.115411 
L 104.048127 50.42458 
L 103.241914 50.42458 
L 105.923706 53.380705 
L 107.061862 53.264542 
L 105.062645 51.867634 
L 107.138194 52.748371 
L 107.668114 53.959079 
L 109.001453 53.007484 
L 109.936463 53.126127 
L 109.885581 53.866394 
L 109.302786 53.603575 
L 109.020143 54.221493 
L 110.384491 53.822729 
L 109.917382 52.957644 
L 109.129859 52.918504 
L 108.223475 51.935191 
L 111.105227 53.307792 
L 112.314146 55.313153 
L 113.817218 56.035328 
L 110.117939 55.888246 
L 109.07714 57.294013 
L 106.057231 58.399999 
L 104.229848 58.096563 
L 103.678522 58.890729 
L 102.763941 58.449698 
L 102.710421 59.267676 
L 101.7759 58.884189 
L 100.605856 59.85755 
L 98.489429 59.298544 
L 97.582674 57.816665 
L 96.487594 57.857991 
L 95.02498 59.416256 
L 95.262271 60.166484 
L 94.130593 60.416567 
L 93.894562 62.871544 
L 88.445706 66.483269 
L 88.298034 67.91388 
L 86.471657 67.01899 
L 85.584588 65.570591 
L 82.45891 68.592694 
L 78.296225 68.708057 
L 78.903591 73.227732 
L 76.883583 73.827548 
L 76.764947 75.378493 
L 75.669613 76.457802 
L 72.943896 76.439822 
L 73.042494 75.257532 
L 71.915066 75.125707 
L 71.00749 73.350627 
L 72.097939 72.090483 
L 69.968724 72.486777 
L 69.915448 71.532712 
L 69.243611 72.542803 
L 68.028331 72.137033 
L 68.966399 71.587594 
L 68.294415 70.858808 
L 69.137812 68.00203 
L 68.021278 66.980802 
L 66.092404 67.482001 
L 65.274516 66.232143 
L 63.945427 66.201275 
L 63.453434 67.080989 
L 61.388241 67.635551 
L 61.314527 66.294143 
L 58.047488 65.112551 
L 55.422147 62.120273 
z
" clip-path="url(#p5f0a730377)" style="fill: #ff6b6b; stroke: #dd0000; stroke-width: 0.5"/>
    <path d="M 79.85605 42.995452 
L 81.47934 41.866465 
L 82.537079 41.533355 
L 84.00622 41.545736 
z
" clip-path="url(#p5f0a730377)" style="fill: #ff6b6b; stroke: #dd0000; stroke-width: 0.5"/>
    <path d="M 106.002422 31.612226 
L 106.043368 31.542198 
L 106.178134 31.594924 
z
" clip-path="url(#p5f0a730377)" style="fill: #ff6b6b; stroke: #dd0000; stroke-width: 0.5"/>
    <path d="M 86.299052 41.799191 
L 87.236348 40.644772 
L 87.570293 40.836206 
z
" clip-path="url(#p5f0a730377)" style="fill: #ff6b6b; stroke: #dd0000; stroke-width: 0.5"/>
    <path d="M 76.037353 45.031083 
L 76.556663 44.701557 
L 77.196768 44.937872 
z
" clip-path="url(#p5f0a730377)" style="fill: #ff6b6b; stroke: #dd0000; stroke-width: 0.5"/>
    <path d="M 69.57357 72.895017 
L 70.435432 72.486777 
L 70.235071 73.171432 
z
" clip-path="url(#p5f0a730377)" style="fill: #ff6b6b; stroke: #dd0000; stroke-width: 0.5"/>
    <path d="M 69.428858 73.379055 
L 69.912273 73.692544 
L 69.494854 73.661241 
z
" clip-path="url(#p5f0a730377)" style="fill: #ff6b6b; stroke: #dd0000; stroke-width: 0.5"/>
   </g>
  </g>
 </g>
 <defs>
  <clipPath id="p5f0a730377">
   <rect x="0" y="0" width="166.756391" height="108"/>
  </clipPath>
 </defs>
</svg>
