<?xml version="1.0" encoding="utf-8" standalone="no"?>
<!DOCTYPE svg PUBLIC "-//W3C//DTD SVG 1.1//EN"
  "http://www.w3.org/Graphics/SVG/1.1/DTD/svg11.dtd">
<svg xmlns:xlink="http://www.w3.org/1999/xlink" width="73.103595pt" height="108pt" viewBox="0 0 73.103595 108" xmlns="http://www.w3.org/2000/svg" version="1.1">
 <metadata>
  <rdf:RDF xmlns:dc="http://purl.org/dc/elements/1.1/" xmlns:cc="http://creativecommons.org/ns#" xmlns:rdf="http://www.w3.org/1999/02/22-rdf-syntax-ns#">
   <cc:Work>
    <dc:type rdf:resource="http://purl.org/dc/dcmitype/StillImage"/>
    <dc:date>2025-09-05T13:56:20.826324</dc:date>
    <dc:format>image/svg+xml</dc:format>
    <dc:creator>
     <cc:Agent>
      <dc:title>Matplotlib v3.10.3, https://matplotlib.org/</dc:title>
     </cc:Agent>
    </dc:creator>
   </cc:Work>
  </rdf:RDF>
 </metadata>
 <defs>
  <style type="text/css">*{stroke-linejoin: round; stroke-linecap: butt}</style>
 </defs>
 <g id="figure_1">
  <g id="patch_1">
   <path d="M -0 108 
L 73.103595 108 
L 73.103595 0 
L -0 0 
z
" style="fill: #ffffff"/>
  </g>
  <g id="axes_1">
   <g id="PatchCollection_1">
    <path d="M -162.564856 -60.869743 
L -160.36655 -62.005489 
L -161.803195 -62.23802 
L -160.89307 -63.012555 
L -161.148759 -63.314222 
L -160.843582 -64.031678 
L -157.026727 -65.096528 
L -154.253161 -64.707318 
L -154.046213 -65.548846 
L -148.933976 -66.454892 
L -148.15867 -67.162425 
L -146.803903 -66.779592 
L -148.244896 -67.553064 
L -144.074577 -68.872077 
L -143.036983 -68.536025 
L -142.105266 -69.407686 
L -136.987032 -69.097874 
L -135.766332 -69.407686 
L -136.221619 -69.520772 
L -132.24865 -72.795078 
L -132.264848 -73.537354 
L -132.913737 -73.939335 
L -132.534033 -74.361162 
L -132.989168 -74.776611 
L -132.659851 -75.020842 
L -133.34383 -75.609984 
L -132.863349 -75.733698 
L -133.041804 -76.031462 
L -132.685042 -76.567072 
L -133.030556 -77.122186 
L -128.368361 -78.23773 
L -129.770664 -78.332373 
L -130.005507 -79.14165 
L -130.928829 -77.834686 
L -132.597316 -77.54721 
L -136.051861 -77.019032 
L -138.152542 -77.93642 
L -140.425682 -77.447244 
L -140.538152 -78.178177 
L -142.105266 -78.719109 
L -141.851078 -78.962277 
L -142.152503 -79.227434 
L -142.031932 -79.72973 
L -139.457821 -80.953733 
L -139.126702 -81.465603 
L -139.350595 -81.726857 
L -134.805668 -82.693518 
L -135.478852 -83.0487 
L -133.14708 -83.826067 
L -132.810861 -84.331908 
L -132.93428 -84.708364 
L -131.802212 -85.104675 
L -132.095238 -85.542095 
L -128.924424 -86.121315 
L -127.913074 -86.924563 
L -124.687969 -83.524408 
L -126.178304 -85.210303 
L -126.874728 -87.013178 
L -124.889219 -87.594881 
L -122.537354 -87.360564 
L -120.138546 -86.202847 
L -118.408423 -86.675715 
L -117.733588 -87.073436 
L -119.275508 -88.808961 
L -117.2921 -89.908911 
L -119.802179 -92.116241 
L -116.408968 -93.577393 
L -110.16181 -93.13749 
L -109.528219 -92.328927 
L -109.855435 -92.071934 
L -109.582805 -91.584875 
L -105.76295 -90.777026 
L -104.044974 -89.766049 
L -104.275616 -89.424335 
L -101.695353 -88.552325 
L -101.368436 -88.571107 
L -106.141155 -91.296685 
L -107.579299 -91.43635 
L -108.862531 -93.286015 
L -112.481438 -94.362208 
L -102.414577 -96.299076 
L -100.664209 -95.782955 
L -99.549083 -96.71382 
L -97.016212 -96.511762 
L -97.212664 -96.113327 
L -96.429855 -95.706745 
L -96.956224 -96.735791 
L -98.236909 -96.800309 
L -93.953969 -97.58441 
L -90.697073 -95.34908 
L -90.939715 -94.564614 
L -90.523715 -93.555422 
L -91.671833 -91.728442 
L -91.621445 -90.750081 
L -91.161209 -90.210926 
L -90.383799 -90.057784 
L -91.040487 -90.355548 
L -90.356357 -90.534207 
L -90.637387 -91.481729 
L -88.386743 -93.161952 
L -88.731657 -94.407587 
L -88.512411 -94.653943 
L -82.696551 -93.508632 
L -77.298334 -90.955328 
L -76.164464 -91.253083 
L -81.517393 -93.761723 
L -76.957769 -93.215119 
L -75.507927 -93.707493 
L -79.729983 -95.679095 
L -81.668406 -98.779708 
L -73.943964 -98.297266 
L -72.926467 -97.457507 
L -68.781939 -96.360755 
L -68.609934 -95.801389 
L -62.8758 -94.65288 
L -62.654305 -94.124354 
L -63.031611 -93.940381 
L -57.917575 -92.197774 
L -56.112021 -92.923741 
L -58.154666 -93.815961 
L -57.173161 -94.059487 
L -57.367811 -94.187095 
L -58.888886 -94.296984 
L -58.939274 -94.718819 
L -56.944466 -95.25408 
L -58.400455 -96.009823 
L -57.549118 -96.893533 
L -49.217175 -96.211167 
L -54.868231 -97.316779 
L -55.050434 -97.584767 
L -54.469328 -97.882174 
L -61.995366 -101.04518 
L -48.281558 -100.926431 
L -48.736845 -100.510276 
L -47.591727 -100.095532 
L -47.371283 -99.666614 
L -47.635816 -99.172473 
L -46.683851 -98.516338 
L -46.465508 -98.985312 
L -46.901899 -99.437272 
L -46.745487 -100.02854 
L -47.728046 -100.68822 
L -46.546787 -100.847739 
L -41.571617 -99.281656 
L -40.75342 -98.596093 
L -40.934724 -97.927195 
L -39.833396 -97.786816 
L -40.281935 -98.222825 
L -39.845094 -98.714484 
L -40.767815 -99.246914 
L -40.249993 -99.731133 
L -40.408805 -100.236617 
L -41.901833 -100.703108 
L -59.392312 -102.294003 
L -58.662593 -101.883519 
L -62.751481 -101.68005 
L -66.135843 -102.716544 
L -62.777872 -102.359584 
L -65.428918 -103.073146 
L -62.737686 -103.889863 
L -59.547523 -102.483647 
L -53.12896 -102.359584 
L -61.070846 -104.1185 
L -60.658598 -104.430795 
L -51.237177 -103.916451 
L -55.478279 -104.808671 
L -51.388189 -104.862901 
L -52.978098 -105.165273 
L -50.557694 -105.498834 
L -47.01902 -104.565146 
L -47.851465 -103.851575 
L -46.885852 -104.268445 
L -43.276845 -102.931713 
L -38.660084 -102.716544 
L -37.068229 -102.180926 
L -35.628736 -100.836388 
L -35.121259 -101.580798 
L -36.101268 -101.604546 
L -37.5988 -102.894488 
L -30.679058 -103.132699 
L -36.313467 -103.554525 
L -29.237767 -104.386845 
L -35.880522 -104.864678 
L -36.537512 -105.285085 
L -35.931061 -105.819997 
L -36.562555 -106.77177 
L -32.672816 -106.181208 
L -32.396883 -106.296054 
L -33.581742 -106.836637 
L -31.833925 -107.475053 
L -27.648459 -106.200705 
L -28.556335 -106.657979 
L -27.773677 -106.836637 
L -27.964279 -106.979491 
L -29.313198 -107.371541 
L -21.208748 -108.328628 
L -20.540816 -107.772459 
L -19.957308 -108.301692 
L -17.995043 -107.073786 
L -17.671873 -107.312702 
L -18.934713 -107.972026 
L -13.057365 -108.573225 
L -12.014972 -108.393504 
L -12.367235 -108.025907 
L -6.262845 -108.291412 
L -0.73896 -107.209191 
L 1.170819 -107.596284 
L 1.598211 -107.312702 
L 0.083585 -107.193597 
L 1.419756 -106.712218 
L 2.938583 -106.836637 
L 1.852248 -107.014938 
L 2.075544 -107.154604 
L 12.155301 -105.641339 
L 10.58609 -104.865384 
L -6.592014 -104.243634 
L -11.844916 -103.580408 
L -16.555251 -104.439655 
L -13.019574 -103.434714 
L -24.591913 -102.240478 
L -23.404508 -102.116059 
L -24.337876 -101.015403 
L -24.041249 -100.837808 
L -23.371965 -101.782141 
L -22.124873 -102.220276 
L -18.709316 -102.348947 
L -17.940457 -101.913295 
L -18.378949 -101.288705 
L -18.194645 -101.258929 
L -17.470774 -101.610574 
L -17.64683 -102.240478 
L -17.155403 -102.573333 
L -10.609971 -103.001894 
L -10.016416 -102.454227 
L -9.008066 -103.229468 
L -4.235045 -104.148633 
L 2.966773 -103.466616 
L 13.733512 -104.511613 
L 15.135815 -104.030233 
L 14.623993 -103.728932 
L 15.457488 -103.034153 
L 13.999398 -101.767253 
L 11.219534 -101.164285 
L 18.481638 -102.320948 
L 18.823254 -102.116059 
L 18.141822 -101.9374 
L 18.672392 -101.288705 
L 18.141822 -100.985627 
L 20.50464 -101.76193 
L 28.100709 -99.724399 
L 24.478205 -98.060832 
L 24.883108 -97.757397 
L 23.994275 -97.299417 
L 18.652597 -96.766987 
L -3.333467 -95.551486 
L -5.333074 -96.038537 
L -9.708692 -96.255126 
L -3.528271 -95.194527 
L -13.32325 -93.320757 
L -14.24627 -92.546222 
L -13.707603 -91.523553 
L -11.794078 -91.561127 
L -10.070103 -92.898216 
L -3.098178 -93.8865 
L -2.218194 -93.379595 
L -0.334511 -94.336691 
L 4.370428 -94.881517 
L 15.950566 -94.228571 
L 15.661436 -93.684093 
L 15.961962 -92.956706 
L 15.632343 -92.431368 
L 8.19943 -90.255939 
L 9.105957 -90.085435 
L 9.000681 -89.616461 
L 9.437076 -89.352019 
L 19.096186 -92.125101 
L 20.431907 -91.887953 
L 20.786418 -92.530271 
L 20.587567 -93.237456 
L 20.939381 -93.630926 
L 20.770224 -94.032899 
L 21.200317 -94.531649 
L 27.860021 -95.064427 
L 29.08147 -93.579876 
L 29.169796 -92.114116 
L 28.345002 -90.134003 
L 24.606726 -86.935906 
L 20.937431 -84.722547 
L 21.086045 -84.085194 
L 18.733579 -81.998033 
L 21.576874 -83.256072 
L 21.544781 -83.740997 
L 22.237012 -84.09618 
L 22.024064 -84.584302 
L 22.850959 -85.028814 
L 29.471074 -87.679601 
L 33.525469 -90.355548 
L 32.79035 -90.742642 
L 34.05259 -91.684841 
L 34.330321 -91.127958 
L 36.721931 -90.942565 
L 35.6332 -90.342786 
L 34.965113 -88.890137 
L 38.417712 -90.031205 
L 40.881152 -89.143236 
L 40.895098 -89.693028 
L 42.020422 -89.017753 
L 43.492306 -89.227251 
L 43.221924 -89.816385 
L 44.723953 -90.301318 
L 43.96019 -90.719242 
L 46.018882 -91.114838 
L 45.728705 -91.589483 
L 45.930703 -92.154877 
L 50.335567 -92.933315 
L 60.359986 -91.691218 
L 64.757652 -89.772792 
L 57.46855 -85.799446 
L 53.052892 -85.544221 
L 54.602758 -84.634281 
L 54.003059 -83.747026 
L 50.222492 -83.141218 
L 49.855082 -82.562713 
L 43.801379 -82.688552 
L 43.149342 -83.206799 
L 39.160327 -81.775772 
L 34.924175 -82.711237 
L 29.861127 -81.769744 
L 31.577301 -81.575492 
L 31.677325 -80.926797 
L 34.863891 -82.44467 
L 40.144983 -81.19833 
L 44.415927 -81.999095 
L 48.621188 -80.568069 
L 46.723857 -79.444728 
L 46.335753 -79.753478 
L 46.512111 -79.192692 
L 46.070321 -78.824747 
L 40.816516 -78.317842 
L 34.914276 -79.180992 
L 32.346013 -77.822986 
L 33.100624 -77.639371 
L 32.135763 -77.123249 
L 32.693175 -76.82478 
L 31.417742 -75.516761 
L 32.603349 -75.354411 
L 33.098826 -74.121182 
L 34.872589 -74.942507 
L 35.896834 -74.37463 
L 35.242395 -73.639445 
L 35.365965 -73.005638 
L 34.576862 -71.564689 
L 34.944869 -70.944707 
L 34.437996 -69.769968 
L 35.479637 -70.73521 
L 35.642797 -71.614668 
L 35.774764 -70.581014 
L 37.109283 -70.163438 
L 36.658046 -70.001794 
L 36.827652 -69.500561 
L 33.424697 -68.481081 
L 33.840542 -67.31095 
L 33.414348 -66.78136 
L 31.349357 -66.989795 
L 30.579599 -66.726068 
L 30.884175 -66.256031 
L 29.399089 -66.276233 
L 29.873724 -65.722181 
L 28.525856 -65.004368 
L 29.85093 -64.653437 
L 28.204187 -62.104384 
L 28.407084 -61.097318 
L 27.941002 -60.747798 
L 28.103562 -60.160075 
L 26.969692 -59.474513 
L 27.237074 -58.606754 
L 26.288411 -58.187759 
L 25.726646 -56.696117 
L 27.644973 -56.551495 
L 27.21893 -55.598301 
L 28.212734 -56.655712 
L 27.784439 -56.986789 
L 27.913557 -57.546512 
L 29.52221 -59.261826 
L 36.195112 -56.73511 
L 36.739326 -56.153059 
L 35.343171 -55.364699 
L 32.637392 -56.889306 
L 29.949303 -56.472445 
L 31.954909 -55.392349 
L 31.252182 -54.91239 
L 29.563299 -55.330314 
L 32.357707 -54.299848 
L 31.125762 -53.934029 
L 33.980756 -53.751119 
L 35.650596 -52.428204 
L 36.431602 -52.405876 
L 36.35842 -53.553321 
L 38.372123 -53.226844 
L 39.15223 -52.59552 
L 39.394271 -51.6519 
L 39.367876 -50.087237 
L 38.463899 -48.522216 
L 38.040705 -48.82884 
L 38.032008 -48.179796 
L 36.431602 -49.366941 
L 31.084824 -50.3063 
L 30.059377 -49.647334 
L 26.600933 -49.828118 
L 30.112165 -49.405934 
L 28.238528 -49.10675 
L 28.573093 -48.865708 
L 26.829776 -48.027717 
L 26.993084 -47.699123 
L 24.883108 -49.530711 
L 23.874305 -49.347087 
L 24.478205 -48.628211 
L 22.863257 -48.152146 
L 23.810122 -47.765052 
L 23.729742 -47.326561 
L 24.416123 -46.554508 
L 24.354786 -47.19505 
L 25.07161 -47.6938 
L 26.324101 -47.19505 
L 25.288007 -46.902608 
L 26.804582 -46.65944 
L 25.464214 -46.124179 
L 26.711903 -46.163878 
L 23.748486 -45.999751 
L 27.133899 -45.927444 
L 26.695108 -44.29436 
L 26.888261 -44.138743 
L 28.847378 -44.547102 
L 30.919714 -43.372014 
L 30.562502 -43.148691 
L 31.425389 -43.252909 
L 28.975744 -44.631823 
L 29.201591 -44.832103 
L 31.174352 -44.015387 
L 33.206497 -44.314919 
L 34.191157 -43.252909 
L 34.026497 -42.604213 
L 31.98415 -42.000889 
L 26.877912 -41.820462 
L 25.886357 -42.487234 
L 25.665464 -42.003729 
L 26.177887 -41.700293 
L 33.216695 -41.492921 
L 35.389811 -39.738257 
L 34.405903 -39.316788 
L 35.202204 -38.234209 
L 35.402408 -36.939301 
L 35.18001 -35.555779 
L 34.493183 -34.595852 
L 32.967608 -34.974434 
L 32.789002 -35.320756 
L 33.16871 -35.79115 
L 32.460134 -36.283872 
L 30.346705 -35.964843 
L 26.825726 -38.51921 
L 24.636416 -39.188465 
L 27.78804 -37.348723 
L 23.739339 -38.056265 
L 27.709756 -37.11796 
L 31.070878 -34.595852 
L 28.620784 -34.417908 
L 26.487858 -33.227923 
L 25.875562 -34.076899 
L 23.997725 -34.83902 
L 24.094001 -34.7029 
L 26.456967 -33.009209 
L 28.864173 -34.147794 
L 30.483323 -34.004227 
L 30.668526 -33.881933 
L 30.345655 -33.183259 
L 30.462629 -32.468982 
L 30.160452 -31.968463 
L 30.72986 -31.046109 
L 28.849475 -30.454136 
L 32.406897 -30.540625 
L 34.01495 -29.762196 
L 35.177913 -30.650514 
L 35.668891 -30.2971 
L 35.238798 -29.529299 
L 36.75552 -28.863947 
L 35.314229 -26.990891 
L 34.353414 -26.722904 
L 32.237439 -27.081632 
L 31.602646 -28.550947 
L 28.351599 -28.775332 
L 26.973738 -28.536407 
L 25.304654 -29.897253 
L 26.458168 -28.262042 
L 25.415927 -27.436823 
L 23.870107 -27.376913 
L 25.351442 -27.207829 
L 25.38893 -26.664414 
L 24.354786 -26.063572 
L 24.957337 -25.625437 
L 23.807723 -25.349653 
L 25.647766 -24.633259 
L 26.296508 -23.316729 
L 26.24312 -21.609918 
L 26.701558 -22.002325 
L 26.497459 -23.480848 
L 25.919202 -24.452118 
L 26.399683 -25.106484 
L 31.95401 -23.55954 
L 31.879928 -22.820105 
L 31.058731 -22.283067 
L 31.272279 -21.467413 
L 31.058429 -20.780439 
L 31.567406 -20.444396 
L 30.97475 -19.844617 
L 27.289563 -20.205122 
L 27.005832 -19.915512 
L 27.181888 -19.37458 
L 24.448515 -18.114414 
L 20.262297 -19.731897 
L 18.351172 -21.060117 
L 18.114081 -22.002325 
L 20.016059 -22.123905 
L 22.498696 -20.818012 
L 23.165431 -20.712375 
L 24.960938 -21.402546 
L 22.659605 -20.877565 
L 18.013755 -23.078518 
L 16.979909 -22.716593 
L 16.497028 -21.645366 
L 16.851543 -20.807375 
L 16.551316 -20.649633 
L 14.765107 -21.268552 
L 14.554709 -22.180984 
L 12.004141 -24.273817 
L 11.825686 -24.030291 
L 12.519262 -22.999826 
L 15.730417 -20.503234 
L 13.472576 -20.058017 
L 12.710915 -19.439447 
L 12.987898 -19.37458 
L 12.881424 -18.944956 
L 10.99159 -18.039973 
L 7.821524 -18.918011 
L 5.953585 -20.272114 
L 5.486752 -19.796764 
L 9.401084 -18.006294 
L 8.234973 -17.106277 
L 6.849314 -17.591202 
L 4.503294 -17.103794 
L 5.6913 -16.896779 
L 5.837964 -15.963083 
L 5.398274 -15.285325 
L 5.971132 -15.656816 
L 6.219921 -17.040696 
L 8.462316 -16.831912 
L 9.225927 -17.646146 
L 14.355859 -16.663891 
L 14.607497 -16.157344 
L 14.049783 -15.407977 
L 11.822833 -15.029395 
L 10.559547 -14.037208 
L 7.979134 -14.818834 
L 5.750235 -14.594448 
L 9.401084 -13.940439 
L 7.987234 -13.464731 
L 8.211578 -13.354843 
L 9.732653 -13.583828 
L 9.135648 -12.247453 
L 10.209385 -13.544843 
L 12.622887 -14.540924 
L 13.605294 -14.287825 
L 15.593354 -13.200995 
L 15.565908 -12.334657 
L 16.018947 -12.03157 
L 14.06193 -11.020958 
L 11.196739 -10.8423 
L 13.484724 -10.623585 
L 12.722163 -9.230489 
L 12.679872 -8.299275 
L 13.882576 -10.404165 
L 16.221398 -10.90965 
L 19.301335 -9.11174 
L 18.896437 -8.213849 
L 19.634555 -8.583928 
L 23.750738 -6.356744 
L 21.466501 -4.014348 
L 24.073756 -5.448573 
L 23.192574 -4.331966 
L 23.41122 -3.51099 
L 24.815774 -5.099758 
L 25.99478 -4.986333 
L 24.807526 -4.039874 
L 25.237619 -3.850587 
L 25.059462 -3.650655 
L 23.735889 -3.320283 
L 23.849111 -0.812 
L 24.296301 -0.860211 
L 24.478205 -2.125699 
L 25.118098 -2.786085 
L 26.473463 -2.934967 
L 26.070362 -2.417783 
L 26.829776 -2.006593 
L 26.136045 -1.546479 
L 27.05622 -1.347261 
L 25.741046 -0.865525 
L 26.569739 -0.726217 
L 26.85497 -0.151963 
L 26.664515 0.289361 
L 26.171139 -0.211515 
L 26.65372 0.447817 
L 24.377433 0.972441 
L 26.723302 0.802999 
L 26.85497 1.280484 
L 25.642518 1.762221 
L 27.181888 1.875646 
L 26.500455 2.654441 
L 26.710104 2.915686 
L 26.548444 3.230464 
L 25.869113 3.124478 
L 26.259015 3.43287 
L 26.935947 3.227624 
L 26.372237 3.790187 
L 27.280264 4.02237 
L 26.475261 4.02237 
L 27.156845 4.325091 
L 26.44947 5.061695 
L 27.534301 5.455522 
L 25.826973 6.801828 
L 25.5218 5.850761 
L 24.201226 6.293147 
L 23.840115 2.750147 
L 23.215668 3.903264 
L 23.519794 5.222625 
L 23.274753 6.321512 
L 20.647405 6.364042 
L 17.990809 4.193937 
L 17.470289 2.698749 
L 17.51408 1.383639 
L 15.76791 -0.878644 
L 15.883682 -1.660976 
L 14.195547 -1.165057 
L 12.258178 -3.201892 
L 9.848723 -3.479445 
L 9.384436 -4.106518 
L 9.020026 -3.385507 
L 7.970436 -3.270662 
L 3.745981 -7.312411 
L 2.732833 -7.203237 
L 1.20711 -8.392507 
L 0.891286 -7.971029 
L 2.164774 -7.283349 
L 1.809061 -6.693144 
L 4.002417 -6.419834 
L 4.224214 -6.127393 
L 3.367474 -6.163197 
L 5.957333 -4.771512 
L 5.674804 -4.106518 
L 1.673793 -3.439389 
L 4.780126 -3.850587 
L 6.726945 -3.493976 
L 5.967531 -3.017919 
L 6.369283 -2.703141 
L 11.582595 -2.783959 
L 12.912467 -1.822612 
L 13.013092 -0.989944 
L 12.660678 -0.390174 
L 11.67482 -0.752448 
L 12.40904 -0.151963 
L 10.856472 0.948693 
L 7.811175 2.054305 
L 5.313095 1.994752 
L 4.335785 0.212437 
L 3.83416 0.268095 
L 4.900398 1.893017 
L 2.027707 1.653743 
L 3.784671 2.639901 
L 2.938583 4.557631 
L 2.2546 4.746917 
L 2.609262 4.979457 
L 2.349527 5.289975 
L -1.055231 6.298827 
L -0.599944 6.768864 
L 2.456152 5.752929 
L 2.207662 6.421469 
L 2.634755 6.961339 
L 8.1246 5.984755 
L 9.680016 6.893632 
L 8.28926 7.672069 
L 7.282558 7.338858 
L 4.161229 9.340245 
L 1.31898 9.396957 
L 3.618213 10.110877 
L 5.139288 9.681959 
L 5.433065 10.552557 
L 6.037264 10.396227 
L 6.495702 8.742591 
L 7.607526 7.964162 
L 9.66202 8.474603 
L 13.42444 6.602253 
L 13.799497 6.731996 
L 13.090771 7.071942 
L 13.543658 7.071942 
L 13.352005 7.778055 
L 14.54631 7.016997 
L 18.738676 9.037167 
L 25.307651 8.99569 
L 25.011024 9.580573 
L 24.205424 10.452591 
L 22.181523 10.800334 
L 22.636511 11.251588 
L 21.778872 10.684417 
L 21.575525 10.894977 
L 21.748283 11.303335 
L 20.893493 11.424567 
L 22.254105 11.827611 
L 21.924788 12.244123 
L 20.688343 11.408615 
L 20.485892 11.486245 
L 21.022013 12.349761 
L 18.493786 12.327781 
L 19.784068 13.457856 
L 18.919832 14.451105 
L 18.222504 13.737534 
L 16.927125 13.690744 
L 17.812206 14.171775 
L 17.963367 14.679742 
L 17.661341 14.766588 
L 17.887785 15.182744 
L 16.879136 15.009756 
L 16.582808 15.759123 
L 15.526171 15.135953 
L 15.968559 16.139831 
L 15.412496 16.318489 
L 15.968109 16.473748 
L 15.745417 16.782855 
L 13.845684 16.442561 
L 13.514266 16.843828 
L 14.579903 17.459549 
L 13.342408 17.756956 
L 13.770404 18.351064 
L 13.495673 18.708024 
L 12.130107 18.113567 
L 12.52901 18.624009 
L 12.130107 18.832443 
L 12.891773 19.193306 
L 11.964102 19.243642 
L 12.418489 19.654483 
L 11.068672 20.741304 
L 9.897162 20.765766 
L 9.664268 21.709028 
L 8.122801 21.481811 
L 7.004676 22.567935 
L 5.936639 22.39176 
L 6.301801 22.924538 
L 5.032965 22.585298 
L 4.391122 23.075545 
L 4.958581 23.309497 
L 4.299796 23.542394 
L 3.565576 22.650173 
L 3.454455 23.637037 
L 2.179169 23.24463 
L 2.558874 23.785205 
L 1.621157 23.726366 
L 0.353522 24.763209 
L -0.82669 24.142521 
L -0.549858 24.921665 
L -1.938513 25.451254 
L -1.583851 25.873081 
L -3.03924 24.940099 
L -3.33482 24.004982 
L -4.133819 24.829147 
L -3.853541 25.438492 
L -4.994458 25.397016 
L -4.330123 25.668192 
L -4.084183 26.651518 
L -5.122227 26.759987 
L -5.359318 25.694422 
L -6.88849 25.397016 
L -5.701232 26.015934 
L -5.424551 27.008121 
L -7.626907 27.267597 
L -9.23556 26.473209 
L -8.805468 26.354112 
L -9.051105 26.207712 
L -9.416566 26.456195 
L -9.084548 26.830168 
L -9.705243 26.959205 
L -10.146285 26.713903 
L -10.322043 25.758941 
L -9.573877 25.479611 
L -11.216721 25.360505 
L -11.832467 24.161312 
L -11.710849 23.488155 
L -12.409076 23.761814 
L -12.614675 22.580689 
L -13.044318 22.190059 
L -12.722048 22.888376 
L -13.353092 23.185434 
L -13.096055 23.888002 
L -12.018573 24.593419 
L -11.509448 25.932634 
L -12.86991 25.521435 
L -12.922999 25.813528 
L -11.438665 26.270802 
L -11.232616 27.186779 
L -11.788377 27.186779 
L -11.383478 28.262972 
L -11.907448 28.306574 
L -11.763183 28.922296 
L -13.248118 28.776611 
L -14.666467 30.3317 
L -15.679767 30.290938 
L -15.144398 30.825842 
L -16.282167 31.533384 
L -15.942951 32.845654 
L -17.139055 33.096628 
L -16.484917 33.394035 
L -16.685869 33.578007 
L -16.281268 34.178849 
L -17.396541 34.392598 
L -16.837029 34.589333 
L -16.91501 35.660212 
L -18.530113 36.384411 
L -18.099718 36.741719 
L -18.616641 36.733565 
L -18.429337 36.973553 
L -18.675576 37.845563 
L -18.378949 38.352824 
L -18.934713 37.996222 
L -18.805143 38.557714 
L -19.616293 40.023474 
L -19.576703 39.183009 
L -19.99225 39.848013 
L -20.15841 38.515532 
L -20.575007 39.48857 
L -20.121968 40.320881 
L -21.208748 41.397074 
L -20.918122 41.397074 
L -21.029995 41.813238 
L -21.28883 41.502005 
L -21.256586 42.05144 
L -22.206753 42.526442 
L -22.798355 42.05144 
L -22.726374 41.377229 
L -23.178064 42.229393 
L -22.446092 42.765011 
L -23.10278 42.948983 
L -23.946772 42.170546 
L -24.477342 42.527157 
L -25.37397 41.185102 
L -25.552576 41.397074 
L -24.804861 42.163454 
L -25.044801 42.710772 
L -24.337876 42.884108 
L -24.89364 43.246033 
L -24.607359 43.224411 
L -24.466094 44.079058 
L -25.051099 43.313383 
L -24.92423 43.976966 
L -25.569972 43.813553 
L -25.778869 44.143568 
L -24.946428 44.262673 
L -25.653352 44.262673 
L -25.600713 44.917397 
L -26.321285 45.636273 
L -27.268153 45.155251 
L -27.19287 45.814583 
L -27.411216 45.465063 
L -27.312091 44.252751 
L -28.031164 44.31868 
L -27.748634 44.619633 
L -27.913294 45.127957 
L -29.340938 45.636273 
L -29.036513 45.749359 
L -29.727093 46.446255 
L -30.033917 45.54447 
L -29.793679 44.589856 
L -29.970033 44.500884 
L -29.99508 45.100664 
L -30.295303 44.970564 
L -30.129294 45.876967 
L -30.55084 45.874484 
L -29.99508 46.230738 
L -30.097801 46.644053 
L -30.679058 46.528493 
L -30.35649 47.016964 
L -32.17704 45.521784 
L -32.679265 46.067674 
L -32.824577 45.993233 
L -32.369592 45.214804 
L -32.617028 44.624241 
L -30.301602 42.229393 
L -31.947895 42.184371 
L -32.817681 41.174465 
L -32.89836 41.758642 
L -33.879566 41.832377 
L -32.218579 42.710772 
L -33.355446 42.948983 
L -32.824577 43.311257 
L -33.754949 44.051407 
L -33.212983 44.387807 
L -33.357845 45.585231 
L -34.041378 45.290665 
L -33.912109 45.799695 
L -34.355551 45.874841 
L -35.148705 44.917397 
L -34.955552 45.901072 
L -33.752848 46.697586 
L -34.062374 47.009881 
L -34.011835 47.782639 
L -34.316109 47.617449 
L -34.174693 48.128962 
L -34.907564 47.966969 
L -35.162201 48.584467 
L -34.947603 47.842192 
L -36.134411 47.720603 
L -35.574298 48.726258 
L -36.424139 48.377453 
L -37.321968 48.924056 
L -37.569106 47.948535 
L -38.305573 47.242064 
L -37.774856 48.591559 
L -38.180053 48.442677 
L -38.281728 49.011617 
L -38.316372 48.290963 
L -38.60775 49.043162 
L -39.065436 48.361144 
L -38.909474 48.02085 
L -39.510526 47.795044 
L -39.389807 48.323571 
L -40.124174 48.680174 
L -39.685384 48.920162 
L -40.021449 49.334897 
L -40.906681 48.680174 
L -41.15802 48.977938 
L -40.883588 49.448689 
L -41.538024 49.334897 
L -39.954115 50.16969 
L -40.55217 50.619168 
L -39.845094 51.606032 
L -40.851045 52.122867 
L -40.520825 52.463161 
L -41.185613 52.312511 
L -40.501782 52.91973 
L -41.769716 53.750272 
L -42.954276 52.495421 
L -43.339078 53.502495 
L -44.840657 52.693219 
L -44.356129 53.962958 
L -44.957778 54.165364 
L -42.960574 56.517683 
L -42.800713 57.985926 
L -43.073494 58.402795 
L -42.053295 59.34428 
L -45.719889 59.425812 
L -46.509745 60.1532 
L -44.359428 61.772459 
L -44.115887 61.035855 
L -42.800112 61.540982 
L -43.122084 62.368336 
L -42.951574 62.65298 
L -43.834706 62.885163 
L -43.024005 63.128688 
L -42.672944 65.117304 
L -44.410564 65.059885 
L -46.217168 63.689474 
L -46.72839 64.407644 
L -43.974172 65.454061 
L -43.947928 66.12863 
L -43.432055 66.048875 
L -43.497141 66.680556 
L -44.94863 66.589101 
L -44.415812 67.119396 
L -44.689644 67.285292 
L -45.476953 66.262275 
L -45.060654 67.24311 
L -44.415812 67.600427 
L -44.895545 67.793616 
L -45.943786 66.253764 
L -45.303145 67.665294 
L -46.222715 66.559325 
L -46.565981 66.886856 
L -45.742684 67.477419 
L -44.845606 68.497962 
L -45.906743 67.511098 
L -46.375228 67.420706 
L -47.056811 66.366484 
L -47.738391 67.089977 
L -47.574633 67.69223 
L -46.938791 68.105554 
L -47.398725 68.200198 
L -47.220119 68.557514 
L -46.218668 69.112272 
L -46.229916 69.694323 
L -46.01307 70.092044 
L -46.461608 70.33983 
L -48.180782 68.978984 
L -46.387526 70.893167 
L -48.011025 70.536565 
L -48.63427 69.390182 
L -48.862664 70.228164 
L -46.718343 71.226727 
L -46.763933 71.810555 
L -47.446563 72.25613 
L -47.182777 72.543257 
L -48.141941 72.25613 
L -48.168937 72.95375 
L -49.281059 72.77828 
L -49.066162 72.196586 
L -49.44377 72.142347 
L -49.229322 71.658485 
L -50.304556 72.302929 
L -49.636023 72.675125 
L -50.240075 72.70065 
L -49.899057 73.812997 
L -50.324804 73.217477 
L -50.17559 73.688577 
L -50.502957 73.932102 
L -50.668067 73.110071 
L -50.713955 73.859438 
L -52.346605 73.278093 
L -50.605683 74.770093 
L -49.517852 74.916492 
L -49.382587 75.765468 
L -50.150396 75.181639 
L -49.873863 75.727537 
L -50.159094 75.684641 
L -48.70955 76.494981 
L -51.693514 75.323073 
L -50.344448 76.963955 
L -49.066162 77.154661 
L -49.309102 77.563725 
L -49.054766 77.913602 
L -49.254218 78.996172 
L -50.024728 79.544901 
L -49.644721 79.783112 
L -50.125202 80.318025 
L -48.535595 79.836637 
L -48.872563 80.590264 
L -49.636023 80.587066 
L -48.812276 81.031587 
L -49.368339 81.988674 
L -50.276366 82.172647 
L -50.934701 81.448448 
L -51.310208 81.899702 
L -50.29151 82.475725 
L -49.038871 82.410858 
L -49.550995 82.658286 
L -49.301757 83.166602 
L -49.773238 83.065224 
L -49.494158 83.303078 
L -49.823626 83.243525 
L -49.708904 83.719591 
L -52.094816 83.421827 
L -50.04767 83.957088 
L -49.987236 84.805001 
L -49.873863 84.854622 
L -49.672465 84.736231 
L -49.644721 85.098156 
L -50.653671 85.871271 
L -50.427379 86.049929 
L -52.703666 85.633765 
L -50.530101 86.346979 
L -50.225978 86.887911 
L -50.90786 87.007017 
L -51.458074 86.724141 
L -51.63323 86.826938 
L -52.449629 86.703939 
L -52.449629 86.768805 
L -50.427379 87.725893 
L -54.041635 87.482368 
L -50.706308 88.08321 
L -50.935302 88.256197 
L -50.530101 88.612799 
L -51.078667 88.51177 
L -50.78189 89.213284 
L -51.890415 89.638656 
L -53.565053 89.116158 
L -51.056322 90.307205 
L -53.735109 89.99207 
L -50.9476 90.916193 
L -51.541303 91.649251 
L -52.80414 91.424517 
L -52.678619 91.601756 
L -51.440527 91.905896 
L -50.857472 91.306117 
L -51.148998 91.993448 
L -52.321411 92.019331 
L -51.159346 92.262499 
L -52.321411 92.554949 
L -51.9534 92.89418 
L -52.898916 92.461717 
L -52.321411 93.154719 
L -52.627483 93.216398 
L -53.795245 92.573025 
L -54.329261 91.014033 
L -54.077026 92.441157 
L -56.185052 91.71661 
L -56.07873 92.301492 
L -54.922514 92.619816 
L -54.755156 93.460995 
L -54.462429 92.741047 
L -52.966548 93.422707 
L -53.967851 94.648845 
L -53.106014 94.409571 
L -53.139158 93.91082 
L -52.435229 93.833191 
L -53.106014 94.04694 
L -52.170398 94.587872 
L -52.449629 94.890602 
L -52.154801 95.195448 
L -53.005389 95.426211 
L -52.367299 95.445359 
L -52.195592 95.961123 
L -52.575296 96.139782 
L -52.11401 96.453139 
L -54.089922 95.658045 
L -54.223989 95.974591 
L -55.440038 95.655919 
L -56.086079 95.810116 
L -55.455333 94.647425 
L -55.846286 93.943785 
L -55.83684 94.853028 
L -56.486931 94.409571 
L -56.300976 95.29612 
L -56.642591 95.242238 
L -56.438942 95.658045 
L -57.161762 96.050452 
L -57.64989 97.413772 
L -57.937819 97.182653 
L -57.928071 96.383307 
L -58.10698 97.255316 
L -58.430149 97.174141 
L -58.587011 96.015353 
L -58.888886 96.409895 
L -58.587011 97.15075 
L -59.797211 96.555937 
L -58.25769 95.539297 
L -58.559716 95.424442 
L -57.424947 93.392931 
L -57.193704 92.37629 
L -58.712679 95.361344 
L -59.800812 96.15467 
L -59.850599 95.466267 
L -58.888886 94.469123 
L -58.587011 93.154719 
L -58.987712 93.218523 
L -57.779609 90.893508 
L -58.432699 91.35539 
L -59.16152 93.043768 
L -59.949724 93.494665 
L -60.118881 92.920411 
L -59.392312 91.543623 
L -60.986717 93.0303 
L -59.609609 91.002691 
L -60.4536 91.002691 
L -61.311538 93.214272 
L -61.33898 92.619816 
L -61.645804 92.697445 
L -61.356527 92.193024 
L -61.855903 92.197632 
L -61.4624 91.662728 
L -62.054754 91.874352 
L -62.407466 92.802725 
L -62.777872 92.262499 
L -61.288592 91.186306 
L -62.322438 91.240545 
L -60.100136 89.409314 
L -60.617509 88.514253 
L -61.789317 90.610989 
L -62.38452 90.73222 
L -61.947381 90.110819 
L -62.367276 89.93642 
L -62.904594 90.936404 
L -63.601472 90.81411 
L -62.297392 89.515657 
L -63.488549 90.083525 
L -62.42321 89.213284 
L -61.040702 88.761681 
L -59.909232 86.923002 
L -60.503985 87.785446 
L -61.050299 86.449776 
L -60.943977 87.659257 
L -61.439605 88.434141 
L -62.070948 88.97543 
L -62.966676 89.3572 
L -63.104794 89.153731 
L -63.187124 88.75743 
L -61.440655 87.344122 
L -62.375074 86.666714 
L -61.791717 85.746843 
L -62.618615 86.575259 
L -63.258206 86.406532 
L -62.242806 87.282444 
L -62.966529 88.137091 
L -63.939785 87.964104 
L -63.426463 88.620239 
L -64.36763 87.839684 
L -64.36763 88.499365 
L -64.976031 88.55856 
L -64.85096 89.023283 
L -65.252863 88.731905 
L -64.976031 89.391228 
L -66.113048 89.153731 
L -65.463562 89.593992 
L -66.023672 90.348324 
L -66.450617 90.173917 
L -65.962035 89.634762 
L -66.691755 89.99207 
L -66.213824 89.213284 
L -66.819977 89.088507 
L -66.641219 88.826905 
L -67.44892 89.515657 
L -67.638321 88.946011 
L -69.697463 89.753859 
L -67.727849 89.813063 
L -68.146697 90.110819 
L -69.966496 89.985693 
L -70.000388 89.630154 
L -71.074572 90.170371 
L -69.068519 88.55856 
L -71.699019 88.724456 
L -69.621284 88.238469 
L -69.976694 87.839684 
L -69.370394 86.94215 
L -70.532458 87.839684 
L -70.406787 87.007017 
L -70.72351 87.454368 
L -71.014137 86.98468 
L -69.898713 85.746843 
L -70.758301 85.806395 
L -71.28962 87.061247 
L -71.010687 87.363619 
L -71.717465 87.439829 
L -71.318562 86.627372 
L -71.996397 87.061247 
L -72.326012 86.768805 
L -72.046781 86.227873 
L -72.57765 86.52528 
L -71.687771 85.983991 
L -72.099421 85.985054 
L -72.008091 85.574213 
L -71.517265 85.598318 
L -71.470024 85.33317 
L -72.703322 85.157709 
L -72.628038 84.736231 
L -73.796401 85.456527 
L -73.67928 85.093896 
L -74.144613 85.098156 
L -71.063327 83.843305 
L -71.971502 83.957088 
L -71.491172 83.303078 
L -73.864033 84.617482 
L -74.320522 84.285691 
L -74.066783 83.902858 
L -75.002551 83.719591 
L -72.399195 83.065224 
L -74.117171 83.183973 
L -74.144613 82.529249 
L -73.460634 82.286438 
L -73.43784 81.697296 
L -74.44874 82.286438 
L -74.304774 81.388895 
L -73.106721 79.962834 
L -74.517272 81.144307 
L -74.713273 82.299201 
L -75.203801 81.929121 
L -74.549516 80.7402 
L -75.480334 81.45377 
L -75.105428 80.501997 
L -75.407453 80.437122 
L -73.309622 79.187593 
L -73.966007 79.123432 
L -73.84049 78.712234 
L -74.195001 79.187593 
L -74.016845 78.047587 
L -74.525369 79.709734 
L -75.507927 79.961414 
L -75.203801 79.836637 
L -75.32962 79.301376 
L -76.255344 79.989422 
L -76.458094 79.755113 
L -75.608552 79.123432 
L -76.46649 78.879549 
L -75.128071 79.187593 
L -75.480334 78.879549 
L -74.977357 78.344289 
L -76.418354 78.522947 
L -74.977357 77.571174 
L -77.173267 77.755146 
L -76.807807 77.299998 
L -77.185864 77.365927 
L -77.250648 76.721492 
L -77.638601 77.104325 
L -78.76542 75.489326 
L -78.374018 74.006543 
L -77.120627 72.082794 
L -78.312385 72.856266 
L -78.589365 73.74813 
L -78.76542 73.456751 
L -78.486189 72.469888 
L -76.491684 70.649999 
L -78.259746 71.542568 
L -78.598962 72.480516 
L -79.023957 72.993806 
L -78.790917 71.773339 
L -78.134078 71.007307 
L -79.316088 71.609212 
L -79.849654 71.363918 
L -79.396767 71.060831 
L -79.826709 70.347269 
L -77.80671 69.183167 
L -79.773173 69.177496 
L -80.469299 69.421021 
L -80.950082 69.93608 
L -80.455803 68.978984 
L -81.275353 69.748562 
L -81.45306 69.36572 
L -81.109642 68.9999 
L -81.544836 68.978984 
L -81.290647 68.67662 
L -81.645612 68.321429 
L -78.61426 67.665294 
L -81.455157 67.94675 
L -81.290647 67.064809 
L -81.771128 67.908819 
L -82.0961 67.307977 
L -80.330135 66.35089 
L -81.616367 66.554359 
L -81.805772 65.842565 
L -81.480649 65.513614 
L -80.924888 65.870216 
L -79.70089 65.572461 
L -79.670599 65.86809 
L -79.447004 65.334955 
L -81.553832 65.396634 
L -81.955583 65.705383 
L -81.753132 66.715646 
L -82.299749 66.405128 
L -82.830316 66.470701 
L -82.402622 65.691558 
L -83.260412 65.156654 
L -82.553484 64.85889 
L -83.3093 65.035423 
L -83.221571 64.52675 
L -82.048111 64.080461 
L -80.989071 63.009582 
L -82.962584 64.061322 
L -82.65426 63.420781 
L -82.881905 62.855386 
L -82.603872 62.706861 
L -83.692606 62.349545 
L -78.361723 60.679244 
L -77.854847 61.630668 
L -77.754373 60.738796 
L -78.186865 60.338244 
L -79.623362 60.916749 
L -78.928581 59.343932 
L -80.588672 60.920295 
L -82.894502 61.755445 
L -83.66516 61.338933 
L -82.58093 61.214504 
L -84.093005 60.857196 
L -81.100944 60.560495 
L -80.70984 60.203187 
L -81.441811 60.01992 
L -80.860706 58.889131 
L -78.845204 59.072041 
L -78.237703 58.56762 
L -79.889244 58.406332 
L -79.220409 57.629672 
L -79.95088 57.920702 
L -80.128885 57.694547 
L -79.900042 57.331916 
L -80.961331 57.218839 
L -79.245905 56.672584 
L -80.028109 56.499249 
L -79.357925 56.261743 
L -78.601663 56.767228 
L -78.137078 58.231934 
L -76.061591 59.484302 
L -77.819455 57.857246 
L -78.031205 56.915404 
L -77.577414 56.363835 
L -78.387964 56.148309 
L -77.578166 54.947696 
L -78.677245 55.958317 
L -79.650354 55.722231 
L -80.14958 53.715182 
L -80.686898 52.616652 
L -80.128885 51.962643 
L -80.858605 52.438351 
L -81.188224 51.846726 
L -80.858605 53.903762 
L -80.254553 53.81195 
L -80.179273 54.590379 
L -80.433008 54.888143 
L -80.039206 55.049788 
L -80.201169 55.593203 
L -79.95433 55.857993 
L -81.807869 57.100082 
L -82.073305 57.03451 
L -81.416617 55.666581 
L -82.203923 55.849491 
L -82.961084 58.014282 
L -83.888305 59.25354 
L -83.715548 59.781709 
L -85.22968 60.805772 
L -85.553752 60.238853 
L -85.36574 59.065307 
L -85.675664 58.358122 
L -85.120851 58.15501 
L -85.530725 57.791734 
L -85.038222 57.273426 
L -85.479611 57.434505 
L -85.553745 56.963266 
L -85.12475 57.024578 
L -85.446722 56.2621 
L -82.176031 53.573739 
L -83.866561 54.709485 
L -83.310649 53.81195 
L -83.826072 53.534397 
L -84.372236 54.525513 
L -84.065563 54.947696 
L -85.346845 55.515216 
L -84.751941 54.828591 
L -85.169739 54.424841 
L -85.634925 55.4826 
L -85.760891 54.528352 
L -85.003579 53.931056 
L -85.964242 52.854863 
L -85.332899 52.682233 
L -85.710356 52.206168 
L -84.976136 51.005547 
L -85.975788 52.016873 
L -85.677514 50.937491 
L -86.138201 51.249081 
L -86.165643 50.76805 
L -86.929103 52.085285 
L -86.595736 51.362863 
L -87.048476 50.951317 
L -83.914848 48.620621 
L -84.600928 48.323571 
L -83.809126 47.620646 
L -81.37028 47.078294 
L -80.316938 47.810995 
L -79.623362 47.545142 
L -80.434059 47.673456 
L -80.028109 47.366484 
L -81.063153 46.944657 
L -82.898549 47.030441 
L -84.928 47.901745 
L -84.705153 48.913419 
L -86.769392 50.346223 
L -86.972894 49.994229 
L -86.595736 49.248756 
L -87.222431 49.493345 
L -86.693961 47.901745 
L -87.528957 49.39445 
L -87.910162 48.952064 
L -86.972894 47.842192 
L -87.805788 48.199151 
L -87.325455 47.545142 
L -87.514259 46.727711 
L -87.995639 47.901745 
L -89.525861 47.782639 
L -88.193893 46.7146 
L -89.052129 47.249504 
L -89.611792 47.212288 
L -87.51636 45.57672 
L -86.06127 46.467529 
L -85.827477 45.611819 
L -84.87536 45.017363 
L -83.99988 45.653295 
L -84.447519 44.857844 
L -83.967337 44.38745 
L -85.7351 45.137523 
L -86.076413 45.874484 
L -86.927603 45.834079 
L -87.082965 44.978718 
L -89.311267 46.27008 
L -89.624389 45.749359 
L -88.183094 44.857844 
L -89.966303 45.636273 
L -90.383799 45.214804 
L -89.040881 44.857844 
L -90.356357 44.738738 
L -87.683718 42.765011 
L -86.289062 41.213458 
L -84.87731 40.796589 
L -85.051269 40.382916 
L -84.496706 39.455605 
L -82.914747 38.882414 
L -83.207924 38.585364 
L -82.317443 37.688178 
L -78.929181 37.824298 
L -81.315993 37.158232 
L -80.103691 36.259983 
L -78.074391 36.621551 
L -77.578166 36.498194 
L -79.925236 36.20611 
L -78.764521 35.652764 
L -81.916893 36.965399 
L -88.665676 43.306291 
L -90.305969 44.143568 
L -91.088325 43.841204 
L -90.596297 43.017039 
L -89.09352 42.527157 
L -90.95111 42.856814 
L -91.206647 41.922769 
L -90.482025 40.915694 
L -91.014545 41.408425 
L -90.940013 40.614742 
L -86.492711 40.256371 
L -89.478625 40.237937 
L -90.331163 39.48857 
L -87.098864 38.887728 
L -87.124054 38.585364 
L -88.587993 38.887728 
L -89.397794 38.531483 
L -87.350649 38.071012 
L -89.040881 38.320208 
L -88.65173 37.599206 
L -86.04687 37.948717 
L -85.81338 37.687821 
L -86.668767 37.395737 
L -86.037425 37.211756 
L -86.796838 37.039126 
L -86.618379 36.498194 
L -87.906262 37.276632 
L -91.028789 37.107547 
L -91.697027 36.47374 
L -89.445783 36.384411 
L -91.700923 35.780729 
L -90.813896 35.725079 
L -90.110269 35.357482 
L -92.200303 35.660212 
L -91.742466 34.803082 
L -90.054482 34.535095 
L -90.811644 34.410675 
L -90.566006 34.234499 
L -86.794737 33.632246 
L -85.661317 33.097334 
L -83.310649 33.453588 
L -81.922292 35.249014 
L -78.865898 34.708439 
L -81.944936 35.070355 
L -83.196377 33.283789 
L -81.695697 32.621626 
L -85.508955 32.799578 
L -89.063078 33.897036 
L -89.49857 33.756666 
L -89.338709 33.347602 
L -91.87518 34.291926 
L -91.671833 32.799578 
L -91.239489 32.318199 
L -88.311463 30.350491 
L -89.040881 30.592954 
L -88.565349 30.11228 
L -86.922804 29.874069 
L -87.868773 29.802111 
L -86.46632 29.635866 
L -84.457865 30.797486 
L -82.555736 30.417484 
L -80.142083 32.03284 
L -78.312385 32.264666 
L -77.854847 31.842482 
L -79.62111 31.89247 
L -80.810318 31.069367 
L -79.807363 30.687597 
L -78.625508 29.903845 
L -77.351571 30.2367 
L -78.641702 29.84323 
L -81.315993 30.890709 
L -80.91109 30.592954 
L -82.45301 30.11228 
L -81.28705 30.058041 
L -78.564171 28.976534 
L -80.478148 28.398377 
L -80.858605 28.857786 
L -79.977873 28.922296 
L -81.89485 29.695768 
L -82.629066 28.619575 
L -81.184476 28.611063 
L -81.416617 27.78655 
L -83.386231 28.198097 
L -82.472956 29.155541 
L -82.679454 29.814873 
L -83.866561 30.2367 
L -84.399531 29.933622 
L -83.59483 29.571705 
L -86.219628 29.178583 
L -83.508748 27.8259 
L -87.995639 29.398718 
L -90.769655 31.816966 
L -91.333516 31.64965 
L -91.417796 31.083907 
L -90.639487 30.067615 
L -91.178453 29.264724 
L -89.668626 29.317186 
L -90.434187 28.67877 
L -90.041885 28.500469 
L -89.802693 29.002059 
L -89.322212 29.036087 
L -89.699968 28.857786 
L -88.84203 28.619575 
L -89.802693 28.376755 
L -88.235881 27.78655 
L -89.599195 27.721683 
L -89.294918 27.223995 
L -87.130205 28.121182 
L -85.721902 28.262972 
L -85.177239 27.840789 
L -87.739354 27.741885 
L -89.244681 26.527447 
L -89.05528 26.071236 
L -90.331163 26.294559 
L -89.77915 26.000689 
L -89.067276 25.89506 
L -86.603084 27.024429 
L -86.392238 26.949274 
L -87.903863 26.094278 
L -84.706355 27.217619 
L -82.073305 27.008121 
L -79.675696 28.441631 
L -78.134078 28.079 
L -79.653951 27.888642 
L -81.441811 26.830168 
L -81.036909 26.527447 
L -82.883103 25.873081 
L -81.110541 25.976593 
L -82.679454 25.397016 
L -81.84671 25.05707 
L -81.888552 24.017039 
L -80.433008 23.309497 
L -80.712991 23.207405 
L -83.66516 24.023416 
L -82.0961 25.040056 
L -86.599185 26.044648 
L -87.030328 25.322226 
L -86.847226 25.093937 
L -87.889615 25.209855 
L -87.275067 25.516121 
L -87.591791 25.748304 
L -88.414185 25.337463 
L -87.124054 24.564348 
L -89.895372 25.257002 
L -90.079525 24.737335 
L -88.970248 24.856441 
L -86.392238 23.185434 
L -87.230528 23.043643 
L -81.821667 22.712914 
L -81.404769 22.536382 
L -81.544836 21.515133 
L -80.764728 22.225864 
L -80.556428 21.693077 
L -81.240411 21.217369 
L -80.000516 20.384344 
L -82.349835 21.103935 
L -81.139937 19.48681 
L -81.972529 19.908636 
L -81.594921 19.337928 
L -81.771128 18.529722 
L -81.56763 17.756956 
L -80.349632 17.860468 
L -81.240411 18.589275 
L -79.925236 18.286546 
L -78.981368 19.711901 
L -78.768572 19.572593 
L -79.404713 18.860094 
L -78.880894 18.948718 
L -78.689392 18.347518 
L -78.404611 19.263138 
L -78.41091 18.286546 
L -80.128885 17.810489 
L -78.102736 17.347892 
L -79.321185 17.096918 
L -79.321185 16.264251 
L -78.939081 15.961173 
L -79.799266 16.502462 
L -79.589617 16.665875 
L -79.774371 17.037374 
L -81.697349 17.065016 
L -80.785422 16.442561 
L -81.227213 16.040579 
L -80.659452 15.907291 
L -80.785422 14.890651 
L -78.335328 14.35539 
L -80.833112 14.489384 
L -80.444857 13.248715 
L -79.092493 13.636514 
L -80.521788 12.642559 
L -79.778123 12.025766 
L -78.28494 12.263263 
L -78.81446 11.160839 
L -79.774371 10.83011 
L -78.462197 9.8677 
L -82.230167 10.524201 
L -80.760228 9.992128 
L -82.087852 9.557888 
L -82.890002 10.494424 
L -83.386231 10.349088 
L -83.299401 9.93789 
L -86.140449 9.753917 
L -87.206686 8.310842 
L -92.398553 6.602253 
L -94.652343 4.503749 
L -92.902278 2.981973 
L -87.872522 3.609403 
L -83.298052 6.442386 
L -79.54778 7.071942 
L -80.103691 6.710016 
L -79.541032 5.527838 
L -80.433159 6.535966 
L -81.246558 6.500162 
L -81.620115 6.109532 
L -81.062103 6.109532 
L -82.553484 5.222625 
L -81.991723 4.727072 
L -80.852458 5.752215 
L -80.938683 5.222625 
L -80.304941 5.455522 
L -81.16153 4.635617 
L -79.993167 4.536714 
L -81.643212 4.444196 
L -81.56763 3.546662 
L -82.040162 4.169117 
L -82.913696 3.825983 
L -82.197175 3.112064 
L -80.604568 3.921698 
L -79.915337 3.763599 
L -80.95878 3.092576 
L -80.70984 2.594888 
L -81.728841 2.850462 
L -84.799782 1.280484 
L -84.339243 0.885951 
L -82.039262 1.819639 
L -80.961331 1.280484 
L -83.05976 0.87744 
L -82.0961 0.20464 
L -85.853272 0.386138 
L -83.221571 -0.89849 
L -83.816324 -1.530885 
L -83.640117 -1.709535 
L -86.522405 0.169192 
L -87.014134 -0.065473 
L -85.912807 -0.884664 
L -85.908307 -1.693941 
L -82.603422 -2.810547 
L -83.78768 -2.948792 
L -86.529603 -1.752431 
L -88.615586 -2.179929 
L -87.541852 -3.091289 
L -84.153742 -3.760195 
L -83.715548 -4.867227 
L -85.57194 -3.850587 
L -89.624389 -4.693883 
L -88.259575 -5.789224 
L -88.304413 -6.467695 
L -87.476468 -7.316314 
L -88.707963 -6.614443 
L -88.587993 -5.889181 
L -89.98685 -5.285151 
L -89.827887 -5.975322 
L -90.117316 -7.586776 
L -91.217744 -8.318066 
L -91.782803 -10.101444 
L -90.685674 -10.360921 
L -91.851339 -10.327956 
L -92.177206 -10.063871 
L -91.721919 -8.636032 
L -90.736364 -7.559839 
L -90.114316 -5.878553 
L -92.026344 -4.932094 
L -91.477781 -4.778961 
L -91.466684 -4.087727 
L -92.705676 -4.693883 
L -92.502026 -4.361743 
L -92.705676 -4.039874 
L -91.772307 -3.261445 
L -92.007449 -2.434091 
L -94.633599 -1.56987 
L -96.915285 -2.833232 
L -96.44815 -1.886425 
L -97.911189 -2.422391 
L -98.507144 -3.998755 
L -98.113338 -4.094112 
L -99.348733 -4.451072 
L -97.725234 -5.502097 
L -96.97422 -5.289054 
L -97.379123 -5.705209 
L -97.232908 -6.202896 
L -95.474591 -6.463087 
L -94.375965 -7.515175 
L -93.741921 -9.165622 
L -94.279387 -8.766838 
L -94.694185 -7.382244 
L -97.002115 -6.587864 
L -98.262103 -7.138013 
L -95.585565 -9.409147 
L -95.837353 -10.360921 
L -94.853744 -10.419768 
L -95.915184 -10.777076 
L -95.585565 -10.955734 
L -96.841052 -10.37262 
L -97.183419 -11.318008 
L -97.795417 -10.663641 
L -98.415364 -11.144672 
L -97.707242 -11.802933 
L -93.4126 -11.437113 
L -96.054049 -11.766074 
L -95.68424 -12.513306 
L -94.674088 -12.641986 
L -95.585565 -13.107772 
L -94.499234 -13.291744 
L -95.107634 -13.648347 
L -94.27039 -14.005306 
L -95.736577 -14.064859 
L -94.551719 -14.486328 
L -95.457645 -15.675956 
L -95.208259 -15.91949 
L -96.121232 -15.917355 
L -96.072945 -16.547974 
L -96.629605 -16.032567 
L -97.001666 -16.389875 
L -98.577924 -16.5384 
L -97.250904 -17.525272 
L -97.600167 -17.642243 
L -96.536929 -17.591202 
L -97.708439 -18.244505 
L -96.935231 -19.347992 
L -96.345726 -19.137789 
L -97.927984 -20.049863 
L -98.862403 -21.394043 
L -99.950234 -21.621618 
L -99.122289 -21.883577 
L -99.852008 -21.948801 
L -99.373927 -22.240528 
L -99.562432 -22.602453 
L -98.720991 -22.093423 
L -98.273049 -22.215011 
L -99.499598 -23.435478 
L -98.391372 -23.55954 
L -100.158534 -24.749882 
L -99.591975 -24.88033 
L -101.21757 -25.230904 
L -100.432967 -25.700941 
L -100.865308 -25.700941 
L -100.158534 -27.080212 
L -104.54375 -25.538948 
L -100.812671 -27.312752 
L -102.329246 -27.674677 
L -100.181329 -28.031985 
L -102.631423 -28.572212 
L -100.234116 -28.929528 
L -101.924348 -29.94014 
L -101.444018 -30.2971 
L -103.969543 -31.075886 
L -103.80848 -31.621078 
L -102.631423 -31.735218 
L -103.599284 -32.675997 
L -107.593396 -33.807492 
L -106.786746 -34.779476 
L -108.690824 -36.093871 
L -107.984198 -36.866995 
L -109.651786 -36.391635 
L -107.833185 -37.224303 
L -107.771553 -38.011243 
L -108.642087 -38.287733 
L -108.215142 -38.959828 
L -109.262035 -39.277794 
L -108.567556 -39.61916 
L -110.910425 -39.466018 
L -111.121423 -40.110819 
L -111.799556 -40.029992 
L -111.573411 -40.333428 
L -111.875138 -40.451828 
L -111.271238 -40.69003 
L -111.760265 -41.023242 
L -113.605711 -40.337679 
L -112.936725 -41.344048 
L -113.542726 -41.825776 
L -114.418509 -41.450391 
L -114.900191 -42.345443 
L -116.288397 -42.654549 
L -117.189975 -42.07675 
L -117.786375 -42.777549 
L -117.509396 -43.317776 
L -117.848162 -43.510965 
L -122.428481 -44.001561 
L -122.796639 -44.593544 
L -124.731159 -43.793841 
L -124.943208 -44.711935 
L -126.852685 -45.351065 
L -127.332267 -45.286189 
L -128.184507 -43.618728 
L -129.299179 -43.252909 
L -129.887785 -43.909044 
L -129.807556 -44.874999 
L -130.76582 -45.108245 
L -130.589462 -44.335479 
L -131.72663 -44.274863 
L -131.302235 -43.593203 
L -131.701138 -43.437944 
L -131.374217 -43.252909 
L -132.962025 -43.61554 
L -132.825558 -42.993432 
L -134.132787 -43.599589 
L -133.975324 -42.723319 
L -134.176426 -42.301135 
L -136.146037 -42.960816 
L -135.411821 -43.793841 
L -135.715944 -43.917903 
L -134.906146 -44.150443 
L -135.597772 -44.493935 
L -137.319349 -44.487906 
L -138.080259 -42.817962 
L -139.972492 -44.38936 
L -141.375244 -43.496434 
L -140.452674 -43.289062 
L -140.369592 -42.629024 
L -138.35559 -41.282361 
L -145.52052 -42.759472 
L -146.025594 -43.091264 
L -145.660734 -43.486154 
L -146.847093 -43.520888 
L -149.960624 -45.405295 
L -146.929423 -46.902608 
L -147.122425 -47.035182 
L -144.041135 -47.155708 
L -143.873328 -47.492456 
L -144.278226 -47.794829 
L -143.873328 -48.027717 
L -148.496084 -47.961787 
L -151.678449 -49.04968 
L -149.60821 -50.834121 
L -150.401814 -50.872052 
L -153.21797 -48.92526 
L -154.935794 -49.882348 
L -153.799075 -50.244622 
L -155.340992 -50.185069 
L -156.39973 -50.988317 
L -155.693107 -51.975181 
L -153.874657 -52.093581 
L -154.626571 -52.446289 
L -150.315135 -52.861382 
L -137.889358 -51.791208 
L -138.218674 -52.034734 
L -137.182282 -52.510093 
L -138.902506 -52.120874 
L -147.99101 -53.169774 
L -145.288227 -54.062351 
L -141.847628 -54.120841 
L -137.388931 -52.979067 
L -139.000732 -54.418954 
L -137.016722 -54.554368 
L -136.752189 -55.078286 
L -137.592281 -56.162276 
L -139.222826 -56.705334 
L -139.000732 -57.046699 
L -140.760099 -56.635858 
L -141.162746 -55.786525 
L -142.421536 -55.347328 
L -145.240091 -55.134642 
L -145.291076 -55.714924 
L -146.616301 -56.608565 
L -146.929423 -56.511787 
L -146.17796 -55.289552 
L -148.4322 -54.724872 
L -152.357931 -55.791848 
L -149.521682 -56.768075 
L -149.48224 -57.404007 
L -153.787529 -56.704628 
L -151.197968 -58.063339 
L -156.135797 -57.485897 
L -156.602933 -57.748562 
L -155.768689 -58.361103 
L -159.559152 -58.95556 
L -159.96345 -59.621269 
L -159.762801 -59.977523 
z
" clip-path="url(#p6652103c1b)" style="fill: #eeeeee; stroke: #000000; stroke-width: 0.3"/>
    <path d="M -95.988366 12.798523 
L -94.853744 12.327781 
L -93.764716 12.976476 
L -95.764322 11.370694 
L -95.256244 11.251588 
L -95.517483 10.695053 
L -95.155472 10.467479 
L -93.158563 10.894977 
L -95.39571 9.45651 
L -95.119181 8.050294 
L -93.544869 7.379271 
L -89.624389 8.43987 
L -87.642027 10.823733 
L -84.951842 11.900283 
L -84.621626 12.442627 
L -85.053967 13.0417 
L -84.359639 13.306848 
L -85.480462 14.755951 
L -90.679077 16.858716 
L -91.757012 16.604911 
L -93.337022 15.426269 
L -93.157664 14.961546 
L -90.129312 15.087743 
L -90.788702 14.766588 
L -89.93076 13.814458 
L -91.653837 14.919007 
L -91.344613 14.409629 
L -92.328219 14.534048 
L -91.891378 14.025724 
L -92.071934 13.652465 
L -95.047196 13.782199 
z
" clip-path="url(#p6652103c1b)" style="fill: #eeeeee; stroke: #000000; stroke-width: 0.3"/>
    <path d="M 16.44664 -14.421819 
L 21.415513 -14.539147 
L 22.96163 -12.750455 
L 25.046117 -11.824912 
L 24.860461 -11.437113 
L 25.655564 -11.580681 
L 25.793682 -10.955734 
L 22.804621 -11.063497 
L 24.489155 -9.462323 
L 25.43902 -9.587806 
L 24.883108 -9.047222 
L 25.14449 -8.609444 
L 24.864213 -8.311332 
L 23.671555 -8.395696 
L 23.393975 -8.636032 
L 23.771432 -9.047222 
L 23.082802 -8.713305 
L 21.680647 -9.921723 
L 18.000859 -11.100008 
L 18.139422 -11.763591 
L 16.86519 -12.48353 
z
" clip-path="url(#p6652103c1b)" style="fill: #eeeeee; stroke: #000000; stroke-width: 0.3"/>
    <path d="M 36.853897 -36.267216 
L 38.359224 -36.623461 
L 39.180421 -35.969452 
L 40.158782 -37.015868 
L 41.074452 -36.093871 
L 39.576924 -35.293106 
L 40.289849 -35.350533 
L 40.273953 -34.738348 
L 41.035762 -34.130066 
L 42.865313 -34.54197 
L 42.561035 -34.026563 
L 42.724048 -33.582043 
L 41.754385 -32.796165 
L 41.781381 -33.335329 
L 40.789826 -33.669246 
L 37.058147 -33.349155 
L 36.929328 -34.065905 
L 37.283691 -34.720629 
L 37.080042 -35.017678 
L 37.258796 -35.64794 
z
" clip-path="url(#p6652103c1b)" style="fill: #eeeeee; stroke: #000000; stroke-width: 0.3"/>
    <path d="M 2.98687 6.198861 
L 3.511138 5.655803 
L 3.256054 5.13543 
L 3.628112 4.702967 
L 4.778025 4.444902 
L 6.627068 2.554832 
L 9.725602 2.025948 
L 11.955854 0.742741 
L 11.875923 1.572925 
L 13.084325 2.237572 
L 13.289923 3.148226 
L 12.787846 3.483563 
L 13.380351 3.694829 
L 13.439735 4.476098 
L 10.865023 5.540591 
L 9.987139 5.068786 
z
" clip-path="url(#p6652103c1b)" style="fill: #eeeeee; stroke: #000000; stroke-width: 0.3"/>
    <path d="M -33.314957 47.657157 
L -33.193487 46.822712 
L -32.231025 45.874484 
L -30.679058 47.128978 
L -31.349394 46.856034 
L -31.207229 47.366484 
L -31.509403 47.485589 
L -30.830071 47.842192 
L -31.891511 48.561782 
L -32.297758 48.061255 
L -31.991984 48.496915 
L -32.395833 48.799994 
L -33.018629 48.639769 
z
" clip-path="url(#p6652103c1b)" style="fill: #eeeeee; stroke: #000000; stroke-width: 0.3"/>
    <path d="M 36.270241 -46.192235 
L 36.312233 -47.137274 
L 37.535329 -47.19505 
L 36.718031 -47.435386 
L 36.394412 -48.464789 
L 36.854649 -48.708314 
L 37.866146 -47.777815 
L 37.739129 -45.405295 
L 38.319936 -41.582251 
L 37.940228 -41.224942 
L 38.004562 -41.911917 
z
" clip-path="url(#p6652103c1b)" style="fill: #eeeeee; stroke: #000000; stroke-width: 0.3"/>
    <path d="M 16.072036 -15.500851 
L 21.042405 -16.588387 
L 25.7181 -15.443424 
L 26.019974 -15.021946 
L 24.91055 -14.297747 
L 26.067064 -13.405527 
L 23.195574 -13.302372 
L 22.940936 -13.464731 
L 23.343587 -13.648347 
L 22.585526 -14.354112 
L 21.318639 -14.86917 
z
" clip-path="url(#p6652103c1b)" style="fill: #eeeeee; stroke: #000000; stroke-width: 0.3"/>
    <path d="M -43.937432 54.590379 
L -43.37357 54.3504 
L -42.574118 55.245103 
L -42.351422 56.017869 
L -42.753022 56.290108 
L -42.118982 57.100082 
L -42.498536 57.396783 
L -41.261343 58.229451 
L -41.461542 58.688851 
L -42.548924 58.167772 
L -42.951574 56.20219 
z
" clip-path="url(#p6652103c1b)" style="fill: #eeeeee; stroke: #000000; stroke-width: 0.3"/>
    <path d="M -47.599827 67.064809 
L -46.929492 66.855669 
L -46.566881 67.437014 
L -45.985926 67.732644 
L -46.060307 68.141002 
L -44.960177 68.706396 
L -44.783071 69.247686 
L -45.303145 68.67662 
L -45.228462 69.230663 
L -45.6794 68.703208 
L -45.946934 69.161188 
z
" clip-path="url(#p6652103c1b)" style="fill: #eeeeee; stroke: #000000; stroke-width: 0.3"/>
    <path d="M -55.952461 96.081292 
L -52.422035 96.674685 
L -52.60049 97.393919 
L -53.12896 96.793791 
L -53.913564 96.615132 
L -53.563553 96.976701 
L -53.963952 97.989089 
L -54.260881 97.33224 
L -55.176404 97.275527 
L -54.451933 96.771454 
L -55.256633 96.895525 
z
" clip-path="url(#p6652103c1b)" style="fill: #eeeeee; stroke: #000000; stroke-width: 0.3"/>
    <path d="M 34.411903 -66.198961 
L 36.091786 -67.577875 
L 36.485587 -67.536756 
L 36.053394 -67.293588 
L 36.586065 -67.055734 
L 35.876737 -66.396044 
L 36.508382 -66.277296 
L 35.625553 -66.163513 
L 36.586065 -65.984855 
L 35.204604 -65.635335 
z
" clip-path="url(#p6652103c1b)" style="fill: #eeeeee; stroke: #000000; stroke-width: 0.3"/>
    <path d="M 11.929908 -17.630552 
L 13.398347 -18.720571 
L 13.652082 -19.514245 
L 16.539471 -19.635476 
L 21.147378 -17.947456 
L 14.658485 -18.767004 
L 14.504624 -18.661018 
L 22.316943 -17.309389 
L 16.302829 -16.350176 
z
" clip-path="url(#p6652103c1b)" style="fill: #eeeeee; stroke: #000000; stroke-width: 0.3"/>
    <path d="M -69.294812 -99.785014 
L -64.040562 -100.248666 
L -57.045242 -97.460347 
L -59.419754 -96.276391 
L -58.182112 -95.194527 
L -59.289288 -94.853875 
L -60.720684 -95.944599 
L -66.07406 -97.473815 
L -67.197282 -98.796016 
z
" clip-path="url(#p6652103c1b)" style="fill: #eeeeee; stroke: #000000; stroke-width: 0.3"/>
    <path d="M -82.692051 12.712034 
L -81.290647 11.18707 
L -82.603872 11.484119 
L -82.0961 10.949216 
L -80.550579 11.07009 
L -80.026912 11.638324 
L -81.133638 12.550747 
L -81.092847 14.040612 
L -81.89035 14.453936 
z
" clip-path="url(#p6652103c1b)" style="fill: #eeeeee; stroke: #000000; stroke-width: 0.3"/>
    <path d="M 40.477153 -67.818212 
L 40.728938 -67.936603 
L 40.496796 -68.287543 
L 40.637464 -68.749068 
L 41.801773 -69.8912 
L 42.537492 -69.276532 
L 41.519995 -68.538159 
L 40.978777 -67.857911 
z
" clip-path="url(#p6652103c1b)" style="fill: #eeeeee; stroke: #000000; stroke-width: 0.3"/>
    <path d="M 35.136072 -75.591202 
L 36.959471 -76.336309 
L 36.653848 -77.038886 
L 37.531279 -76.681569 
L 41.303148 -77.708846 
L 43.071659 -76.945654 
L 40.951335 -74.670974 
L 39.706941 -74.245602 
z
" clip-path="url(#p6652103c1b)" style="fill: #eeeeee; stroke: #000000; stroke-width: 0.3"/>
    <path d="M 30.468175 -31.796191 
L 30.953455 -32.553703 
L 30.766752 -33.347029 
L 31.727264 -33.828051 
L 33.118322 -33.347029 
L 32.326967 -32.518613 
L 33.97626 -32.211283 
L 32.467483 -30.736297 
z
" clip-path="url(#p6652103c1b)" style="fill: #eeeeee; stroke: #000000; stroke-width: 0.3"/>
    <path d="M 25.654064 -26.80691 
L 26.195732 -27.704096 
L 28.380991 -28.62645 
L 31.011343 -28.187601 
L 31.677178 -26.836687 
L 32.486976 -26.301077 
L 28.301362 -25.409205 
z
" clip-path="url(#p6652103c1b)" style="fill: #eeeeee; stroke: #000000; stroke-width: 0.3"/>
    <path d="M -30.477657 48.680174 
L -30.082057 48.619915 
L -29.768485 48.951001 
L -29.797427 49.077547 
L -30.02027 48.924056 
L -30.300102 49.119728 
L -30.399978 49.096686 
z
" clip-path="url(#p6652103c1b)" style="fill: #eeeeee; stroke: #000000; stroke-width: 0.3"/>
    <path d="M -44.646756 60.43537 
L -43.781171 59.738464 
L -43.230806 59.900109 
L -43.432055 60.43537 
L -43.027156 60.495628 
L -43.131231 60.696615 
L -44.483898 60.715754 
z
" clip-path="url(#p6652103c1b)" style="fill: #eeeeee; stroke: #000000; stroke-width: 0.3"/>
    <path d="M -55.910623 98.767518 
L -55.332215 97.508773 
L -54.165054 98.588869 
L -54.706268 98.917463 
L -54.695923 98.286496 
L -55.094074 99.125192 
L -55.166055 98.218789 
z
" clip-path="url(#p6652103c1b)" style="fill: #eeeeee; stroke: #000000; stroke-width: 0.3"/>
    <path d="M -89.895221 -96.591517 
L -89.547009 -96.94352 
L -87.858274 -97.103745 
L -86.673116 -96.07895 
L -81.972529 -94.296984 
L -85.346395 -94.297698 
L -89.656781 -95.838962 
z
" clip-path="url(#p6652103c1b)" style="fill: #eeeeee; stroke: #000000; stroke-width: 0.3"/>
    <path d="M 35.596607 -62.697777 
L 36.96532 -63.354984 
L 37.012259 -62.465952 
L 36.428901 -62.181307 
L 37.054398 -61.323829 
L 35.66334 -61.500353 
z
" clip-path="url(#p6652103c1b)" style="fill: #eeeeee; stroke: #000000; stroke-width: 0.3"/>
    <path d="M 35.481587 -60.749575 
L 37.179016 -60.749575 
L 37.051697 -59.872948 
L 36.251345 -58.900973 
L 35.918877 -58.858791 
L 36.242799 -60.025376 
z
" clip-path="url(#p6652103c1b)" style="fill: #eeeeee; stroke: #000000; stroke-width: 0.3"/>
    <path d="M -28.757584 45.874484 
L -28.304697 45.45656 
L -27.849259 45.457972 
L -28.282952 46.803572 
L -28.707196 46.77167 
L -28.509544 46.439173 
z
" clip-path="url(#p6652103c1b)" style="fill: #eeeeee; stroke: #000000; stroke-width: 0.3"/>
    <path d="M -56.944466 98.107838 
L -56.212196 97.075604 
L -55.505721 97.393919 
L -56.032241 98.164559 
L -56.037939 97.44036 
L -56.185052 98.167748 
z
" clip-path="url(#p6652103c1b)" style="fill: #eeeeee; stroke: #000000; stroke-width: 0.3"/>
    <path d="M -82.521092 60.330795 
L -81.869656 59.846228 
L -81.944936 59.007889 
L -81.390075 57.672568 
L -80.556428 57.872491 
L -81.84566 60.257417 
z
" clip-path="url(#p6652103c1b)" style="fill: #eeeeee; stroke: #000000; stroke-width: 0.3"/>
    <path d="M -89.29822 -1.363569 
L -88.540155 -1.882165 
L -86.165643 -1.10905 
L -87.396987 0.023507 
L -88.487221 0.145087 
L -89.08542 -0.363586 
z
" clip-path="url(#p6652103c1b)" style="fill: #eeeeee; stroke: #000000; stroke-width: 0.3"/>
    <path d="M -89.473376 23.845472 
L -88.540155 23.785205 
L -88.830635 23.456253 
L -88.615586 23.309497 
L -88.107814 23.931604 
L -88.982396 24.480342 
z
" clip-path="url(#p6652103c1b)" style="fill: #eeeeee; stroke: #000000; stroke-width: 0.3"/>
    <path d="M -99.145084 -12.572154 
L -98.253107 -13.833382 
L -96.418459 -14.243517 
L -96.747927 -14.599763 
L -95.887738 -14.297747 
L -97.367874 -12.360173 
z
" clip-path="url(#p6652103c1b)" style="fill: #eeeeee; stroke: #000000; stroke-width: 0.3"/>
    <path d="M -100.131092 -20.807375 
L -99.499598 -20.932152 
L -97.756579 -19.677658 
L -98.792972 -19.37458 
L -98.401717 -19.58514 
L -98.463353 -20.153009 
z
" clip-path="url(#p6652103c1b)" style="fill: #eeeeee; stroke: #000000; stroke-width: 0.3"/>
    <path d="M 39.363228 -56.500444 
L 40.752934 -58.34409 
L 41.443514 -58.447235 
L 41.758435 -57.805989 
L 41.052258 -56.489459 
z
" clip-path="url(#p6652103c1b)" style="fill: #eeeeee; stroke: #000000; stroke-width: 0.3"/>
    <path d="M 39.310589 -91.885121 
L 41.108046 -92.126164 
L 42.796777 -90.928034 
L 41.332691 -90.814957 
L 39.561327 -91.656127 
z
" clip-path="url(#p6652103c1b)" style="fill: #eeeeee; stroke: #000000; stroke-width: 0.3"/>
    <path d="M 38.169222 -30.962809 
L 39.228262 -30.843703 
L 38.951578 -30.659731 
L 39.153579 -30.187568 
L 38.569474 -30.12589 
z
" clip-path="url(#p6652103c1b)" style="fill: #eeeeee; stroke: #000000; stroke-width: 0.3"/>
    <path d="M 34.236743 -95.156954 
L 35.702933 -95.130366 
L 38.022709 -92.767062 
L 36.496537 -92.813852 
L 34.322522 -94.464657 
z
" clip-path="url(#p6652103c1b)" style="fill: #eeeeee; stroke: #000000; stroke-width: 0.3"/>
    <path d="M -43.192266 -105.68494 
L -42.219607 -105.998647 
L -42.725282 -106.176957 
L -42.529129 -106.236858 
L -35.729962 -104.084115 
z
" clip-path="url(#p6652103c1b)" style="fill: #eeeeee; stroke: #000000; stroke-width: 0.3"/>
    <path d="M -57.29793 97.221289 
L -57.107176 96.117445 
L -56.225394 96.855469 
L -57.043591 97.698774 
L -56.868884 96.615132 
z
" clip-path="url(#p6652103c1b)" style="fill: #eeeeee; stroke: #000000; stroke-width: 0.3"/>
    <path d="M -63.610469 91.424517 
L -63.497545 91.324551 
L -62.50794 91.183117 
L -62.807865 91.267838 
L -63.175275 91.718021 
z
" clip-path="url(#p6652103c1b)" style="fill: #eeeeee; stroke: #000000; stroke-width: 0.3"/>
    <path d="M -98.532036 -8.876369 
L -97.616962 -9.555546 
L -98.314588 -9.857562 
L -96.063646 -10.544893 
L -97.401317 -8.677857 
z
" clip-path="url(#p6652103c1b)" style="fill: #eeeeee; stroke: #000000; stroke-width: 0.3"/>
    <path d="M 37.94248 -64.330148 
L 38.90329 -65.035207 
L 39.482148 -64.865409 
L 38.469298 -64.069609 
z
" clip-path="url(#p6652103c1b)" style="fill: #eeeeee; stroke: #000000; stroke-width: 0.3"/>
    <path d="M 35.844946 -29.762196 
L 37.013007 -30.528925 
L 37.638353 -30.154246 
L 37.313533 -29.412328 
z
" clip-path="url(#p6652103c1b)" style="fill: #eeeeee; stroke: #000000; stroke-width: 0.3"/>
    <path d="M 31.17165 -59.139532 
L 32.992802 -59.490464 
L 33.910724 -58.571307 
L 35.794709 -57.998473 
z
" clip-path="url(#p6652103c1b)" style="fill: #eeeeee; stroke: #000000; stroke-width: 0.3"/>
    <path d="M 29.974799 -61.015428 
L 31.253531 -61.664123 
L 31.699973 -61.084555 
L 30.764503 -60.651734 
z
" clip-path="url(#p6652103c1b)" style="fill: #eeeeee; stroke: #000000; stroke-width: 0.3"/>
    <path d="M 27.885514 -58.30899 
L 28.064271 -59.020078 
L 28.973046 -59.356121 
L 28.394487 -58.407894 
z
" clip-path="url(#p6652103c1b)" style="fill: #eeeeee; stroke: #000000; stroke-width: 0.3"/>
    <path d="M 13.367754 -14.599763 
L 14.076779 -14.994296 
L 15.286979 -15.200605 
L 14.912821 -14.03402 
z
" clip-path="url(#p6652103c1b)" style="fill: #eeeeee; stroke: #000000; stroke-width: 0.3"/>
    <path d="M 12.478622 0.556991 
L 13.292171 0.805125 
L 13.415591 1.340037 
L 13.023886 1.251771 
z
" clip-path="url(#p6652103c1b)" style="fill: #eeeeee; stroke: #000000; stroke-width: 0.3"/>
    <path d="M 9.45372 5.936544 
L 10.096311 5.276864 
L 10.59059 5.638789 
L 10.165594 6.208435 
z
" clip-path="url(#p6652103c1b)" style="fill: #eeeeee; stroke: #000000; stroke-width: 0.3"/>
    <path d="M 4.51484 2.461243 
L 6.2946 2.410907 
L 5.816371 3.075911 
L 4.528488 3.757213 
z
" clip-path="url(#p6652103c1b)" style="fill: #eeeeee; stroke: #000000; stroke-width: 0.3"/>
    <path d="M -3.930922 25.758941 
L -3.413999 25.516121 
L -2.819095 25.694422 
L -3.388654 26.379985 
z
" clip-path="url(#p6652103c1b)" style="fill: #eeeeee; stroke: #000000; stroke-width: 0.3"/>
    <path d="M -18.530113 37.811892 
L -18.270227 37.373758 
L -18.052481 38.062857 
L -18.443884 38.120999 
z
" clip-path="url(#p6652103c1b)" style="fill: #eeeeee; stroke: #000000; stroke-width: 0.3"/>
    <path d="M -24.337876 43.246033 
L -24.082339 42.939409 
L -23.731727 42.884108 
L -24.090886 43.43816 
z
" clip-path="url(#p6652103c1b)" style="fill: #eeeeee; stroke: #000000; stroke-width: 0.3"/>
    <path d="M -30.477657 47.782639 
L -29.953986 47.365421 
L -29.441416 47.842192 
L -29.691104 48.640475 
z
" clip-path="url(#p6652103c1b)" style="fill: #eeeeee; stroke: #000000; stroke-width: 0.3"/>
    <path d="M -40.008103 50.845331 
L -38.859086 50.951317 
L -39.064088 50.97861 
L -38.859086 51.249081 
z
" clip-path="url(#p6652103c1b)" style="fill: #eeeeee; stroke: #000000; stroke-width: 0.3"/>
    <path d="M -46.121043 69.484825 
L -45.531236 69.443358 
L -45.200121 69.812009 
L -45.715993 70.08673 
z
" clip-path="url(#p6652103c1b)" style="fill: #eeeeee; stroke: #000000; stroke-width: 0.3"/>
    <path d="M -46.362332 70.471698 
L -45.907045 70.168611 
L -45.55493 70.525928 
L -45.83896 70.77123 
z
" clip-path="url(#p6652103c1b)" style="fill: #eeeeee; stroke: #000000; stroke-width: 0.3"/>
    <path d="M -46.577381 71.093091 
L -46.083252 71.060831 
L -46.083252 71.418148 
L -46.565082 72.268893 
z
" clip-path="url(#p6652103c1b)" style="fill: #eeeeee; stroke: #000000; stroke-width: 0.3"/>
    <path d="M -47.940842 72.591119 
L -47.613324 72.891714 
L -47.423919 72.856266 
L -47.797476 73.106883 
z
" clip-path="url(#p6652103c1b)" style="fill: #eeeeee; stroke: #000000; stroke-width: 0.3"/>
    <path d="M -49.164841 81.988674 
L -48.407377 80.972034 
L -48.736845 81.572876 
L -48.536944 81.822421 
z
" clip-path="url(#p6652103c1b)" style="fill: #eeeeee; stroke: #000000; stroke-width: 0.3"/>
    <path d="M -49.217175 74.889198 
L -48.693957 74.840631 
L -48.558537 75.543207 
L -49.078162 75.44041 
z
" clip-path="url(#p6652103c1b)" style="fill: #eeeeee; stroke: #000000; stroke-width: 0.3"/>
    <path d="M -49.745795 73.332332 
L -49.391285 72.810182 
L -47.599827 73.456751 
L -49.526549 73.908711 
z
" clip-path="url(#p6652103c1b)" style="fill: #eeeeee; stroke: #000000; stroke-width: 0.3"/>
    <path d="M -53.156402 98.053956 
L -52.953951 97.275527 
L -52.550102 97.57222 
L -52.966548 97.631773 
z
" clip-path="url(#p6652103c1b)" style="fill: #eeeeee; stroke: #000000; stroke-width: 0.3"/>
    <path d="M -56.241739 95.791682 
L -56.016795 96.483264 
L -55.505721 96.912896 
L -56.225095 96.383307 
z
" clip-path="url(#p6652103c1b)" style="fill: #eeeeee; stroke: #000000; stroke-width: 0.3"/>
    <path d="M -60.279793 96.080229 
L -60.154121 95.711212 
L -59.975666 95.836703 
L -59.975666 96.015353 
z
" clip-path="url(#p6652103c1b)" style="fill: #eeeeee; stroke: #000000; stroke-width: 0.3"/>
    <path d="M -60.676292 95.624017 
L -60.449252 93.925709 
L -59.723877 93.987387 
L -59.835901 94.944483 
z
" clip-path="url(#p6652103c1b)" style="fill: #eeeeee; stroke: #000000; stroke-width: 0.3"/>
    <path d="M -64.420266 90.348324 
L -64.162032 90.125001 
L -63.962731 90.170371 
L -64.192024 90.481255 
z
" clip-path="url(#p6652103c1b)" style="fill: #eeeeee; stroke: #000000; stroke-width: 0.3"/>
    <path d="M -64.697098 91.186306 
L -63.864207 90.586527 
L -64.395076 91.062243 
L -64.118244 91.48407 
z
" clip-path="url(#p6652103c1b)" style="fill: #eeeeee; stroke: #000000; stroke-width: 0.3"/>
    <path d="M -64.797723 88.677666 
L -64.420266 88.796772 
L -64.416669 89.14664 
L -64.749587 89.153731 
z
" clip-path="url(#p6652103c1b)" style="fill: #eeeeee; stroke: #000000; stroke-width: 0.3"/>
    <path d="M -67.172239 89.634762 
L -66.945645 89.213284 
L -66.794783 89.213284 
L -66.892559 89.485523 
z
" clip-path="url(#p6652103c1b)" style="fill: #eeeeee; stroke: #000000; stroke-width: 0.3"/>
    <path d="M -71.086269 90.348324 
L -70.103714 89.99207 
L -68.938053 90.705632 
L -69.849825 91.373476 
z
" clip-path="url(#p6652103c1b)" style="fill: #eeeeee; stroke: #000000; stroke-width: 0.3"/>
    <path d="M -80.093044 69.889995 
L -79.693692 69.329566 
L -79.42181 69.663484 
L -79.888643 70.168611 
z
" clip-path="url(#p6652103c1b)" style="fill: #eeeeee; stroke: #000000; stroke-width: 0.3"/>
    <path d="M -80.831012 69.977904 
L -80.43271 69.512476 
L -80.103691 70.109067 
L -80.599467 70.451487 
z
" clip-path="url(#p6652103c1b)" style="fill: #eeeeee; stroke: #000000; stroke-width: 0.3"/>
    <path d="M -83.171931 59.035531 
L -82.249361 57.575442 
L -81.620115 57.510575 
L -82.37623 59.154636 
z
" clip-path="url(#p6652103c1b)" style="fill: #eeeeee; stroke: #000000; stroke-width: 0.3"/>
    <path d="M -85.204681 61.035855 
L -84.573486 60.803315 
L -84.522508 61.012751 
L -85.123501 61.55837 
z
" clip-path="url(#p6652103c1b)" style="fill: #eeeeee; stroke: #000000; stroke-width: 0.3"/>
    <path d="M -89.09352 22.650173 
L -87.352901 21.396028 
L -85.431423 21.460546 
L -86.50501 21.86217 
z
" clip-path="url(#p6652103c1b)" style="fill: #eeeeee; stroke: #000000; stroke-width: 0.3"/>
    <path d="M -92.250389 0.20464 
L -90.898924 -1.312171 
L -90.05223 0.300355 
L -90.532715 1.161736 
z
" clip-path="url(#p6652103c1b)" style="fill: #eeeeee; stroke: #000000; stroke-width: 0.3"/>
    <path d="M -98.993923 -6.186588 
L -98.082749 -6.642451 
L -97.529984 -6.299665 
L -98.082148 -5.66551 
z
" clip-path="url(#p6652103c1b)" style="fill: #eeeeee; stroke: #000000; stroke-width: 0.3"/>
    <path d="M -105.436029 -28.983053 
L -102.327898 -29.529299 
L -101.421223 -29.10783 
L -104.105409 -28.767884 
z
" clip-path="url(#p6652103c1b)" style="fill: #eeeeee; stroke: #000000; stroke-width: 0.3"/>
    <path d="M -151.424563 -47.0164 
L -149.663846 -47.416247 
L -149.442352 -47.227309 
L -150.109687 -46.718279 
z
" clip-path="url(#p6652103c1b)" style="fill: #eeeeee; stroke: #000000; stroke-width: 0.3"/>
    <path d="M -160.794244 -54.365072 
L -159.531706 -54.775556 
L -156.248868 -54.062351 
L -159.154249 -53.580972 
z
" clip-path="url(#p6652103c1b)" style="fill: #eeeeee; stroke: #000000; stroke-width: 0.3"/>
    <path d="M 39.464001 -66.33082 
L 39.751782 -66.715431 
L 40.346834 -66.16245 
z
" clip-path="url(#p6652103c1b)" style="fill: #eeeeee; stroke: #000000; stroke-width: 0.3"/>
    <path d="M 34.275886 -61.79776 
L 34.280235 -62.547127 
L 35.363717 -61.362465 
z
" clip-path="url(#p6652103c1b)" style="fill: #eeeeee; stroke: #000000; stroke-width: 0.3"/>
    <path d="M 34.067586 -77.415699 
L 35.372865 -78.771571 
L 37.757125 -78.015827 
z
" clip-path="url(#p6652103c1b)" style="fill: #eeeeee; stroke: #000000; stroke-width: 0.3"/>
    <path d="M 27.586938 -16.99036 
L 28.541453 -17.20518 
L 28.671172 -17.103794 
z
" clip-path="url(#p6652103c1b)" style="fill: #eeeeee; stroke: #000000; stroke-width: 0.3"/>
    <path d="M 19.73368 12.684741 
L 20.820162 12.441921 
L 21.094893 13.068637 
z
" clip-path="url(#p6652103c1b)" style="fill: #eeeeee; stroke: #000000; stroke-width: 0.3"/>
    <path d="M -16.155298 33.394035 
L -15.913257 33.061886 
L -15.878168 33.743197 
z
" clip-path="url(#p6652103c1b)" style="fill: #eeeeee; stroke: #000000; stroke-width: 0.3"/>
    <path d="M -16.59229 35.104392 
L -16.578495 34.618753 
L -16.180492 34.535095 
z
" clip-path="url(#p6652103c1b)" style="fill: #eeeeee; stroke: #000000; stroke-width: 0.3"/>
    <path d="M -27.393972 46.468941 
L -27.369228 46.082919 
L -26.6644 46.052785 
z
" clip-path="url(#p6652103c1b)" style="fill: #eeeeee; stroke: #000000; stroke-width: 0.3"/>
    <path d="M -29.66786 46.652922 
L -28.986129 46.131486 
L -29.042812 47.293106 
z
" clip-path="url(#p6652103c1b)" style="fill: #eeeeee; stroke: #000000; stroke-width: 0.3"/>
    <path d="M -42.747325 -104.464117 
L -38.111971 -103.854415 
L -39.503626 -103.010048 
z
" clip-path="url(#p6652103c1b)" style="fill: #eeeeee; stroke: #000000; stroke-width: 0.3"/>
    <path d="M -43.821659 65.65753 
L -43.243701 65.482069 
L -43.178018 65.572461 
z
" clip-path="url(#p6652103c1b)" style="fill: #eeeeee; stroke: #000000; stroke-width: 0.3"/>
    <path d="M -46.211471 -104.511613 
L -43.895141 -104.552732 
L -40.224799 -102.894488 
z
" clip-path="url(#p6652103c1b)" style="fill: #eeeeee; stroke: #000000; stroke-width: 0.3"/>
    <path d="M -49.828874 84.783727 
L -49.623426 84.263354 
L -49.542146 84.378914 
z
" clip-path="url(#p6652103c1b)" style="fill: #eeeeee; stroke: #000000; stroke-width: 0.3"/>
    <path d="M -51.614633 89.688992 
L -51.237177 89.456104 
L -50.404433 89.515657 
z
" clip-path="url(#p6652103c1b)" style="fill: #eeeeee; stroke: #000000; stroke-width: 0.3"/>
    <path d="M -53.68712 98.107838 
L -53.519014 97.085169 
L -53.243531 97.851907 
z
" clip-path="url(#p6652103c1b)" style="fill: #eeeeee; stroke: #000000; stroke-width: 0.3"/>
    <path d="M -57.532769 97.435038 
L -57.37231 97.513024 
L -57.474885 97.798731 
z
" clip-path="url(#p6652103c1b)" style="fill: #eeeeee; stroke: #000000; stroke-width: 0.3"/>
    <path d="M -59.595961 94.587872 
L -58.888886 93.512036 
L -59.191062 94.290465 
z
" clip-path="url(#p6652103c1b)" style="fill: #eeeeee; stroke: #000000; stroke-width: 0.3"/>
    <path d="M -59.647249 93.539687 
L -59.167965 93.392931 
L -59.587864 93.937408 
z
" clip-path="url(#p6652103c1b)" style="fill: #eeeeee; stroke: #000000; stroke-width: 0.3"/>
    <path d="M -60.782917 93.56556 
L -60.569671 93.153657 
L -60.617207 93.597114 
z
" clip-path="url(#p6652103c1b)" style="fill: #eeeeee; stroke: #000000; stroke-width: 0.3"/>
    <path d="M -62.766477 91.888883 
L -62.68055 91.377727 
L -62.045754 91.543623 
z
" clip-path="url(#p6652103c1b)" style="fill: #eeeeee; stroke: #000000; stroke-width: 0.3"/>
    <path d="M -65.194525 90.911236 
L -64.94034 90.57271 
L -64.722145 90.764479 
z
" clip-path="url(#p6652103c1b)" style="fill: #eeeeee; stroke: #000000; stroke-width: 0.3"/>
    <path d="M -65.962035 90.586527 
L -63.450607 89.378474 
L -64.288901 89.819797 
z
" clip-path="url(#p6652103c1b)" style="fill: #eeeeee; stroke: #000000; stroke-width: 0.3"/>
    <path d="M -66.574936 89.248732 
L -66.38988 89.213284 
L -66.490207 89.381663 
z
" clip-path="url(#p6652103c1b)" style="fill: #eeeeee; stroke: #000000; stroke-width: 0.3"/>
    <path d="M -66.719201 90.348324 
L -66.643018 90.22603 
L -66.482559 90.555687 
z
" clip-path="url(#p6652103c1b)" style="fill: #eeeeee; stroke: #000000; stroke-width: 0.3"/>
    <path d="M -67.164139 89.894238 
L -66.842768 89.753859 
L -66.963641 90.115427 
z
" clip-path="url(#p6652103c1b)" style="fill: #eeeeee; stroke: #000000; stroke-width: 0.3"/>
    <path d="M -67.25007 90.113659 
L -67.071463 90.23489 
L -67.206279 90.355415 
z
" clip-path="url(#p6652103c1b)" style="fill: #eeeeee; stroke: #000000; stroke-width: 0.3"/>
    <path d="M -67.474114 89.902741 
L -67.37109 89.659216 
L -67.342144 89.895301 
z
" clip-path="url(#p6652103c1b)" style="fill: #eeeeee; stroke: #000000; stroke-width: 0.3"/>
    <path d="M -67.853819 90.413191 
L -67.68286 90.334142 
L -67.350543 90.46743 
z
" clip-path="url(#p6652103c1b)" style="fill: #eeeeee; stroke: #000000; stroke-width: 0.3"/>
    <path d="M -71.591797 87.899237 
L -70.379193 88.018343 
L -71.438233 88.088175 
z
" clip-path="url(#p6652103c1b)" style="fill: #eeeeee; stroke: #000000; stroke-width: 0.3"/>
    <path d="M -71.73786 -101.766539 
L -68.160345 -101.402497 
L -71.436284 -101.236244 
z
" clip-path="url(#p6652103c1b)" style="fill: #eeeeee; stroke: #000000; stroke-width: 0.3"/>
    <path d="M -73.286676 85.633765 
L -72.276675 85.358695 
L -72.116666 85.674884 
z
" clip-path="url(#p6652103c1b)" style="fill: #eeeeee; stroke: #000000; stroke-width: 0.3"/>
    <path d="M -73.739714 86.346979 
L -73.338413 85.953509 
L -72.881777 86.049929 
z
" clip-path="url(#p6652103c1b)" style="fill: #eeeeee; stroke: #000000; stroke-width: 0.3"/>
    <path d="M -74.700529 82.886209 
L -74.217947 82.707907 
L -74.220947 83.006377 
z
" clip-path="url(#p6652103c1b)" style="fill: #eeeeee; stroke: #000000; stroke-width: 0.3"/>
    <path d="M -80.382771 70.590795 
L -79.91219 70.36748 
L -80.091094 70.977531 
z
" clip-path="url(#p6652103c1b)" style="fill: #eeeeee; stroke: #000000; stroke-width: 0.3"/>
    <path d="M -82.73209 67.119396 
L -82.439215 66.567827 
L -82.025316 66.827312 
z
" clip-path="url(#p6652103c1b)" style="fill: #eeeeee; stroke: #000000; stroke-width: 0.3"/>
    <path d="M -84.447519 3.903264 
L -84.296805 3.665053 
L -83.134741 4.325091 
z
" clip-path="url(#p6652103c1b)" style="fill: #eeeeee; stroke: #000000; stroke-width: 0.3"/>
    <path d="M -84.539745 22.356661 
L -84.457116 22.292856 
L -84.438969 22.341067 
z
" clip-path="url(#p6652103c1b)" style="fill: #eeeeee; stroke: #000000; stroke-width: 0.3"/>
    <path d="M -85.553343 2.434307 
L -85.196433 1.677143 
L -83.358487 2.538524 
z
" clip-path="url(#p6652103c1b)" style="fill: #eeeeee; stroke: #000000; stroke-width: 0.3"/>
    <path d="M -86.520305 22.480732 
L -84.246417 22.174465 
L -85.382086 22.709726 
z
" clip-path="url(#p6652103c1b)" style="fill: #eeeeee; stroke: #000000; stroke-width: 0.3"/>
    <path d="M -89.494671 48.513929 
L -88.102714 48.322508 
L -88.780847 49.027568 
z
" clip-path="url(#p6652103c1b)" style="fill: #eeeeee; stroke: #000000; stroke-width: 0.3"/>
    <path d="M -90.406745 -4.218532 
L -87.7578 -4.272413 
L -90.255581 -3.37487 
z
" clip-path="url(#p6652103c1b)" style="fill: #eeeeee; stroke: #000000; stroke-width: 0.3"/>
    <path d="M -96.116282 5.965964 
L -94.740674 6.866695 
L -95.744225 6.937591 
z
" clip-path="url(#p6652103c1b)" style="fill: #eeeeee; stroke: #000000; stroke-width: 0.3"/>
    <path d="M -98.566377 -15.91949 
L -97.934883 -16.389875 
L -96.267446 -15.556859 
z
" clip-path="url(#p6652103c1b)" style="fill: #eeeeee; stroke: #000000; stroke-width: 0.3"/>
    <path d="M -100.53344 -13.405527 
L -98.374724 -13.980844 
L -99.929691 -12.929113 
z
" clip-path="url(#p6652103c1b)" style="fill: #eeeeee; stroke: #000000; stroke-width: 0.3"/>
    <path d="M -102.555992 -23.619093 
L -99.533188 -23.18947 
L -100.868908 -22.785363 
z
" clip-path="url(#p6652103c1b)" style="fill: #eeeeee; stroke: #000000; stroke-width: 0.3"/>
    <path d="M -137.948292 -84.151124 
L -137.653615 -84.114614 
L -137.930598 -84.10044 
z
" clip-path="url(#p6652103c1b)" style="fill: #eeeeee; stroke: #000000; stroke-width: 0.3"/>
    <path d="M -140.177342 -82.764762 
L -138.7224 -82.313865 
L -139.920007 -82.30713 
z
" clip-path="url(#p6652103c1b)" style="fill: #eeeeee; stroke: #000000; stroke-width: 0.3"/>
    <path d="M -156.098157 -54.721675 
L -151.500141 -54.299848 
L -155.277557 -54.070148 
z
" clip-path="url(#p6652103c1b)" style="fill: #eeeeee; stroke: #000000; stroke-width: 0.3"/>
    <path d="M 16.245243 49.334897 
L 17.116976 48.199151 
L 18.630101 49.21154 
L 18.947123 49.096686 
L 17.91523 48.086074 
L 18.947123 48.442677 
L 17.938173 47.610009 
L 17.892885 46.749691 
L 19.605761 47.610009 
L 19.850201 48.41432 
L 20.86845 47.842192 
L 19.93343 47.464316 
L 21.019311 47.310477 
L 21.220863 46.944657 
L 19.233253 47.01449 
L 18.726679 46.132898 
L 18.969019 45.691574 
L 19.706238 46.112338 
L 21.147378 46.414711 
L 18.923879 44.949656 
L 19.151373 44.381779 
L 20.538982 45.155251 
L 19.452499 44.025176 
L 20.463551 44.198163 
L 19.706238 43.786965 
L 20.22001 43.270138 
L 21.818465 44.101743 
L 22.005769 44.755404 
L 21.703294 45.338866 
L 22.181523 44.619633 
L 22.508595 44.857844 
L 22.131139 45.511853 
L 22.572476 45.008852 
L 22.586426 45.814583 
L 22.790226 44.619633 
L 23.089849 44.562206 
L 23.478104 45.283216 
L 23.217167 46.497654 
L 23.62057 45.273642 
L 24.050361 45.695826 
L 23.874305 46.468941 
L 24.276657 45.814583 
L 23.821518 44.792263 
L 24.201226 44.198163 
L 22.003068 43.008536 
L 24.251614 42.651219 
L 22.989076 42.473275 
L 23.366533 41.813238 
L 22.142833 42.422582 
L 21.22146 41.953608 
L 21.748283 41.906818 
L 21.534583 41.19113 
L 22.419967 41.290731 
L 22.103693 40.98057 
L 24.017519 41.000067 
L 24.860461 42.110993 
L 24.807526 42.710772 
L 26.527901 43.430363 
L 26.829776 44.857844 
L 27.268865 44.198163 
L 27.320606 44.824879 
L 28.072969 44.970215 
L 27.05622 45.392748 
L 28.179443 45.606496 
L 28.083465 46.712475 
L 27.534301 47.063754 
L 28.067418 47.306931 
L 27.156845 47.723086 
L 26.763492 47.057377 
L 26.424877 47.063754 
L 26.978238 48.113011 
L 27.813532 48.323571 
L 27.511356 48.858832 
L 28.10881 48.517118 
L 28.112857 49.209763 
L 27.534301 49.870515 
L 28.509659 49.943179 
L 28.960147 52.312868 
L 28.927158 49.879732 
L 29.604389 50.76805 
L 29.338356 49.345534 
L 29.593443 48.521369 
L 30.48797 47.715289 
L 30.594444 48.919805 
L 31.223988 49.448689 
L 31.400195 48.977938 
L 31.02049 48.734769 
L 31.463331 48.561782 
L 31.548809 49.156239 
L 31.981452 47.966969 
L 31.322663 44.792263 
L 31.474428 44.258065 
L 32.637841 43.906071 
L 33.420046 45.874484 
L 34.981311 47.410086 
L 35.191107 46.472138 
L 34.779759 45.395945 
L 35.138022 44.982264 
L 35.048792 44.468277 
L 36.448998 44.43566 
L 36.409408 43.614692 
L 37.300036 43.276515 
L 38.34108 44.327897 
L 38.357727 45.273642 
L 39.543932 46.200962 
L 40.113642 48.139599 
L 40.098797 46.524956 
L 39.253456 44.917397 
L 39.253456 43.483887 
L 40.669554 43.722098 
L 42.007674 45.814583 
L 41.904649 45.273642 
L 42.208772 45.155251 
L 41.781079 45.100664 
L 42.367584 45.090732 
L 42.510651 45.392748 
L 42.735594 44.202772 
L 43.496806 43.12197 
L 44.318151 44.081541 
L 45.519056 44.198163 
L 45.189736 43.602993 
L 45.760648 43.31374 
L 45.41828 43.602993 
L 46.148 43.786965 
L 45.716558 40.632113 
L 47.634431 40.374057 
L 48.119862 40.737045 
L 47.948755 41.356669 
L 48.799945 41.599837 
L 48.899969 42.05144 
L 48.547706 42.527157 
L 48.826639 43.008536 
L 50.002649 43.7423 
L 50.183503 42.771031 
L 51.679233 41.692006 
L 53.012702 41.699089 
L 51.439142 42.558702 
L 51.580856 43.364781 
L 50.743465 44.079058 
L 51.124368 44.616444 
L 52.438794 44.43566 
L 52.816251 45.068404 
L 52.692684 46.023009 
L 51.805203 47.128978 
L 52.185059 46.825552 
L 51.979007 47.355847 
L 53.875589 46.944657 
L 53.6337 47.474952 
L 54.07894 47.901745 
L 53.771216 48.044955 
L 53.135974 49.00842 
L 53.017353 49.39445 
L 53.90978 48.076857 
L 54.380966 48.258704 
L 54.177317 47.966969 
L 56.528732 49.280658 
L 56.302591 50.470643 
L 55.69614 50.589391 
L 56.085593 50.910903 
L 55.065096 51.303311 
L 56.682144 51.486935 
L 54.96432 52.016873 
L 56.466049 52.016873 
L 56.023511 52.497903 
L 56.466049 52.854863 
L 56.858351 52.260398 
L 56.61826 53.693202 
L 55.894839 53.853427 
L 54.96432 53.038836 
L 54.229802 53.454991 
L 56.201815 54.412078 
L 54.888738 54.347568 
L 55.872498 54.828591 
L 55.213709 55.190516 
L 55.682492 55.515216 
L 54.092587 56.380143 
L 53.539974 55.593203 
L 53.195959 55.4826 
L 54.07894 56.797004 
L 53.271239 56.737451 
L 53.581664 57.155741 
L 52.936221 57.329434 
L 53.814104 57.196145 
L 53.081687 58.943013 
L 52.338022 59.126985 
L 52.994706 58.829579 
L 52.46174 58.711187 
L 51.592256 59.662961 
L 51.855588 60.01992 
L 51.664535 60.164899 
L 50.569805 60.138312 
L 50.642988 59.846228 
L 50.213496 59.824605 
L 50.053936 59.254602 
L 49.899172 59.095083 
L 49.659383 59.007889 
L 50.064281 59.537827 
L 49.938311 60.084082 
L 47.748254 61.213442 
L 45.986041 63.301675 
L 44.834926 63.663949 
L 44.784538 64.199567 
L 44.291309 63.635949 
L 44.305705 64.214098 
L 44.155444 64.323281 
L 44.253518 63.362639 
L 44.147793 63.166261 
L 44.010578 64.233237 
L 42.007674 64.323281 
L 41.856661 64.68024 
L 41.37618 65.037548 
L 41.730691 64.68024 
L 41.399273 64.377868 
L 40.468304 65.290291 
L 41.0971 65.334955 
L 40.463656 65.756433 
L 40.870505 65.870216 
L 40.477153 66.63164 
L 39.627913 67.064809 
L 39.909842 66.529548 
L 39.180421 66.405128 
L 39.671099 67.142796 
L 37.650051 67.727678 
L 32.292625 66.440925 
L 30.947459 64.977996 
L 31.830288 64.799337 
L 31.347559 64.323281 
L 31.461831 63.898614 
L 30.848632 64.962045 
L 30.137657 64.437421 
L 30.743809 64.496974 
L 30.338907 64.377868 
L 30.450179 63.661823 
L 29.96145 64.377868 
L 28.595741 63.420781 
L 29.126458 62.944715 
L 28.420131 62.878428 
L 28.190691 63.182927 
L 28.520159 63.48529 
L 27.9392 63.782697 
L 23.058507 64.108112 
L 22.913494 63.420781 
L 23.265757 62.914939 
L 22.915742 62.692679 
L 23.018317 61.723535 
L 23.695249 62.651203 
L 25.456117 62.02697 
L 25.741046 61.80897 
L 25.477412 61.489941 
L 25.919202 61.392457 
L 25.43902 61.095408 
L 26.344345 61.276192 
L 26.701558 60.803315 
L 25.869113 60.43537 
L 26.510804 59.464806 
L 27.66252 59.30033 
L 26.965343 58.964287 
L 25.237619 59.727828 
L 26.122999 59.06779 
L 25.43902 58.943013 
L 25.697855 58.083757 
L 26.701558 57.153615 
L 27.154294 57.490364 
L 27.461119 57.510575 
L 26.77714 57.100082 
L 27.408634 56.797004 
L 25.463012 57.536091 
L 24.998729 58.467662 
L 23.975081 56.672584 
L 24.260459 56.873571 
L 24.91055 56.023541 
L 24.124144 56.580067 
L 24.427969 55.904784 
L 23.997725 55.785678 
L 24.100749 55.304656 
L 23.180276 55.793126 
L 19.874193 55.330181 
L 18.848448 56.148309 
L 18.013755 54.709485 
L 20.950927 54.402861 
L 21.299294 53.585439 
L 21.600568 53.633292 
L 21.321337 54.16891 
L 21.525137 54.471631 
L 21.84171 53.647117 
L 22.96163 53.098388 
L 22.837912 53.520215 
L 23.469406 53.931056 
L 23.290951 53.633292 
L 23.595973 53.30576 
L 26.246418 53.454991 
L 26.585937 52.072174 
L 25.481307 52.759148 
L 23.550686 52.288763 
L 23.922294 52.206168 
L 23.56988 52.141301 
L 24.025469 51.42773 
L 26.729 49.810962 
L 25.692906 49.929354 
L 25.184983 49.156239 
L 24.67061 49.98253 
L 24.179032 49.477045 
L 24.998729 49.043162 
L 25.212425 48.561782 
L 23.842064 49.334897 
L 23.594175 48.237082 
L 23.591775 48.875497 
L 23.187776 49.160142 
L 23.0921 48.323571 
L 22.807319 48.273592 
L 22.910045 49.389136 
L 22.334788 49.043162 
L 22.65031 48.524915 
L 22.092146 48.442677 
L 21.975025 48.958441 
L 21.246057 48.739378 
L 21.067599 49.513556 
L 18.612706 50.235629 
L 18.285939 49.629464 
z
" clip-path="url(#p6652103c1b)" style="fill: #eeeeee; stroke: #000000; stroke-width: 0.3"/>
    <path d="M 40.999173 65.160557 
L 41.294601 65.057759 
L 41.214221 65.242795 
z
" clip-path="url(#p6652103c1b)" style="fill: #eeeeee; stroke: #000000; stroke-width: 0.3"/>
    <path d="M 40.284601 40.301036 
L 40.435311 40.272322 
L 40.420017 40.352783 
z
" clip-path="url(#p6652103c1b)" style="fill: #eeeeee; stroke: #000000; stroke-width: 0.3"/>
    <path d="M 38.820662 44.842599 
L 39.03316 45.107746 
L 39.03316 45.208775 
z
" clip-path="url(#p6652103c1b)" style="fill: #eeeeee; stroke: #000000; stroke-width: 0.3"/>
    <path d="M 31.86178 67.29876 
L 32.046235 67.441971 
L 31.920118 67.642609 
z
" clip-path="url(#p6652103c1b)" style="fill: #eeeeee; stroke: #000000; stroke-width: 0.3"/>
   </g>
   <g id="PatchCollection_2">
    <path d="M 16.245243 49.334897 
L 17.116976 48.199151 
L 18.630101 49.21154 
L 18.947123 49.096686 
L 17.91523 48.086074 
L 18.947123 48.442677 
L 17.938173 47.610009 
L 17.892885 46.749691 
L 19.605761 47.610009 
L 19.850201 48.41432 
L 20.86845 47.842192 
L 19.93343 47.464316 
L 21.019311 47.310477 
L 21.220863 46.944657 
L 19.233253 47.01449 
L 18.726679 46.132898 
L 18.969019 45.691574 
L 19.706238 46.112338 
L 21.147378 46.414711 
L 18.923879 44.949656 
L 19.151373 44.381779 
L 20.538982 45.155251 
L 19.452499 44.025176 
L 20.463551 44.198163 
L 19.706238 43.786965 
L 20.22001 43.270138 
L 21.818465 44.101743 
L 22.005769 44.755404 
L 21.703294 45.338866 
L 22.181523 44.619633 
L 22.508595 44.857844 
L 22.131139 45.511853 
L 22.572476 45.008852 
L 22.586426 45.814583 
L 22.790226 44.619633 
L 23.089849 44.562206 
L 23.478104 45.283216 
L 23.217167 46.497654 
L 23.62057 45.273642 
L 24.050361 45.695826 
L 23.874305 46.468941 
L 24.276657 45.814583 
L 23.821518 44.792263 
L 24.201226 44.198163 
L 22.003068 43.008536 
L 24.251614 42.651219 
L 22.989076 42.473275 
L 23.366533 41.813238 
L 22.142833 42.422582 
L 21.22146 41.953608 
L 21.748283 41.906818 
L 21.534583 41.19113 
L 22.419967 41.290731 
L 22.103693 40.98057 
L 24.017519 41.000067 
L 24.860461 42.110993 
L 24.807526 42.710772 
L 26.527901 43.430363 
L 26.829776 44.857844 
L 27.268865 44.198163 
L 27.320606 44.824879 
L 28.072969 44.970215 
L 27.05622 45.392748 
L 28.179443 45.606496 
L 28.083465 46.712475 
L 27.534301 47.063754 
L 28.067418 47.306931 
L 27.156845 47.723086 
L 26.763492 47.057377 
L 26.424877 47.063754 
L 26.978238 48.113011 
L 27.813532 48.323571 
L 27.511356 48.858832 
L 28.10881 48.517118 
L 28.112857 49.209763 
L 27.534301 49.870515 
L 28.509659 49.943179 
L 28.960147 52.312868 
L 28.927158 49.879732 
L 29.604389 50.76805 
L 29.338356 49.345534 
L 29.593443 48.521369 
L 30.48797 47.715289 
L 30.594444 48.919805 
L 31.223988 49.448689 
L 31.400195 48.977938 
L 31.02049 48.734769 
L 31.463331 48.561782 
L 31.548809 49.156239 
L 31.981452 47.966969 
L 31.322663 44.792263 
L 31.474428 44.258065 
L 32.637841 43.906071 
L 33.420046 45.874484 
L 34.981311 47.410086 
L 35.191107 46.472138 
L 34.779759 45.395945 
L 35.138022 44.982264 
L 35.048792 44.468277 
L 36.448998 44.43566 
L 36.409408 43.614692 
L 37.300036 43.276515 
L 38.34108 44.327897 
L 38.357727 45.273642 
L 39.543932 46.200962 
L 40.113642 48.139599 
L 40.098797 46.524956 
L 39.253456 44.917397 
L 39.253456 43.483887 
L 40.669554 43.722098 
L 42.007674 45.814583 
L 41.904649 45.273642 
L 42.208772 45.155251 
L 41.781079 45.100664 
L 42.367584 45.090732 
L 42.510651 45.392748 
L 42.735594 44.202772 
L 43.496806 43.12197 
L 44.318151 44.081541 
L 45.519056 44.198163 
L 45.189736 43.602993 
L 45.760648 43.31374 
L 45.41828 43.602993 
L 46.148 43.786965 
L 45.716558 40.632113 
L 47.634431 40.374057 
L 48.119862 40.737045 
L 47.948755 41.356669 
L 48.799945 41.599837 
L 48.899969 42.05144 
L 48.547706 42.527157 
L 48.826639 43.008536 
L 50.002649 43.7423 
L 50.183503 42.771031 
L 51.679233 41.692006 
L 53.012702 41.699089 
L 51.439142 42.558702 
L 51.580856 43.364781 
L 50.743465 44.079058 
L 51.124368 44.616444 
L 52.438794 44.43566 
L 52.816251 45.068404 
L 52.692684 46.023009 
L 51.805203 47.128978 
L 52.185059 46.825552 
L 51.979007 47.355847 
L 53.875589 46.944657 
L 53.6337 47.474952 
L 54.07894 47.901745 
L 53.771216 48.044955 
L 53.135974 49.00842 
L 53.017353 49.39445 
L 53.90978 48.076857 
L 54.380966 48.258704 
L 54.177317 47.966969 
L 56.528732 49.280658 
L 56.302591 50.470643 
L 55.69614 50.589391 
L 56.085593 50.910903 
L 55.065096 51.303311 
L 56.682144 51.486935 
L 54.96432 52.016873 
L 56.466049 52.016873 
L 56.023511 52.497903 
L 56.466049 52.854863 
L 56.858351 52.260398 
L 56.61826 53.693202 
L 55.894839 53.853427 
L 54.96432 53.038836 
L 54.229802 53.454991 
L 56.201815 54.412078 
L 54.888738 54.347568 
L 55.872498 54.828591 
L 55.213709 55.190516 
L 55.682492 55.515216 
L 54.092587 56.380143 
L 53.539974 55.593203 
L 53.195959 55.4826 
L 54.07894 56.797004 
L 53.271239 56.737451 
L 53.581664 57.155741 
L 52.936221 57.329434 
L 53.814104 57.196145 
L 53.081687 58.943013 
L 52.338022 59.126985 
L 52.994706 58.829579 
L 52.46174 58.711187 
L 51.592256 59.662961 
L 51.855588 60.01992 
L 51.664535 60.164899 
L 50.569805 60.138312 
L 50.642988 59.846228 
L 50.213496 59.824605 
L 50.053936 59.254602 
L 49.899172 59.095083 
L 49.659383 59.007889 
L 50.064281 59.537827 
L 49.938311 60.084082 
L 47.748254 61.213442 
L 45.986041 63.301675 
L 44.834926 63.663949 
L 44.784538 64.199567 
L 44.291309 63.635949 
L 44.305705 64.214098 
L 44.155444 64.323281 
L 44.253518 63.362639 
L 44.147793 63.166261 
L 44.010578 64.233237 
L 42.007674 64.323281 
L 41.856661 64.68024 
L 41.37618 65.037548 
L 41.730691 64.68024 
L 41.399273 64.377868 
L 40.468304 65.290291 
L 41.0971 65.334955 
L 40.463656 65.756433 
L 40.870505 65.870216 
L 40.477153 66.63164 
L 39.627913 67.064809 
L 39.909842 66.529548 
L 39.180421 66.405128 
L 39.671099 67.142796 
L 37.650051 67.727678 
L 32.292625 66.440925 
L 30.947459 64.977996 
L 31.830288 64.799337 
L 31.347559 64.323281 
L 31.461831 63.898614 
L 30.848632 64.962045 
L 30.137657 64.437421 
L 30.743809 64.496974 
L 30.338907 64.377868 
L 30.450179 63.661823 
L 29.96145 64.377868 
L 28.595741 63.420781 
L 29.126458 62.944715 
L 28.420131 62.878428 
L 28.190691 63.182927 
L 28.520159 63.48529 
L 27.9392 63.782697 
L 23.058507 64.108112 
L 22.913494 63.420781 
L 23.265757 62.914939 
L 22.915742 62.692679 
L 23.018317 61.723535 
L 23.695249 62.651203 
L 25.456117 62.02697 
L 25.741046 61.80897 
L 25.477412 61.489941 
L 25.919202 61.392457 
L 25.43902 61.095408 
L 26.344345 61.276192 
L 26.701558 60.803315 
L 25.869113 60.43537 
L 26.510804 59.464806 
L 27.66252 59.30033 
L 26.965343 58.964287 
L 25.237619 59.727828 
L 26.122999 59.06779 
L 25.43902 58.943013 
L 25.697855 58.083757 
L 26.701558 57.153615 
L 27.154294 57.490364 
L 27.461119 57.510575 
L 26.77714 57.100082 
L 27.408634 56.797004 
L 25.463012 57.536091 
L 24.998729 58.467662 
L 23.975081 56.672584 
L 24.260459 56.873571 
L 24.91055 56.023541 
L 24.124144 56.580067 
L 24.427969 55.904784 
L 23.997725 55.785678 
L 24.100749 55.304656 
L 23.180276 55.793126 
L 19.874193 55.330181 
L 18.848448 56.148309 
L 18.013755 54.709485 
L 20.950927 54.402861 
L 21.299294 53.585439 
L 21.600568 53.633292 
L 21.321337 54.16891 
L 21.525137 54.471631 
L 21.84171 53.647117 
L 22.96163 53.098388 
L 22.837912 53.520215 
L 23.469406 53.931056 
L 23.290951 53.633292 
L 23.595973 53.30576 
L 26.246418 53.454991 
L 26.585937 52.072174 
L 25.481307 52.759148 
L 23.550686 52.288763 
L 23.922294 52.206168 
L 23.56988 52.141301 
L 24.025469 51.42773 
L 26.729 49.810962 
L 25.692906 49.929354 
L 25.184983 49.156239 
L 24.67061 49.98253 
L 24.179032 49.477045 
L 24.998729 49.043162 
L 25.212425 48.561782 
L 23.842064 49.334897 
L 23.594175 48.237082 
L 23.591775 48.875497 
L 23.187776 49.160142 
L 23.0921 48.323571 
L 22.807319 48.273592 
L 22.910045 49.389136 
L 22.334788 49.043162 
L 22.65031 48.524915 
L 22.092146 48.442677 
L 21.975025 48.958441 
L 21.246057 48.739378 
L 21.067599 49.513556 
L 18.612706 50.235629 
L 18.285939 49.629464 
z
" clip-path="url(#p6652103c1b)" style="fill: #ff6b6b; stroke: #dd0000; stroke-width: 0.5"/>
    <path d="M 40.999173 65.160557 
L 41.294601 65.057759 
L 41.214221 65.242795 
z
" clip-path="url(#p6652103c1b)" style="fill: #ff6b6b; stroke: #dd0000; stroke-width: 0.5"/>
    <path d="M 40.284601 40.301036 
L 40.435311 40.272322 
L 40.420017 40.352783 
z
" clip-path="url(#p6652103c1b)" style="fill: #ff6b6b; stroke: #dd0000; stroke-width: 0.5"/>
    <path d="M 38.820662 44.842599 
L 39.03316 45.107746 
L 39.03316 45.208775 
z
" clip-path="url(#p6652103c1b)" style="fill: #ff6b6b; stroke: #dd0000; stroke-width: 0.5"/>
    <path d="M 31.86178 67.29876 
L 32.046235 67.441971 
L 31.920118 67.642609 
z
" clip-path="url(#p6652103c1b)" style="fill: #ff6b6b; stroke: #dd0000; stroke-width: 0.5"/>
   </g>
  </g>
 </g>
 <defs>
  <clipPath id="p6652103c1b">
   <rect x="0" y="0" width="73.103595" height="108"/>
  </clipPath>
 </defs>
</svg>
