<?xml version="1.0" encoding="utf-8" standalone="no"?>
<!DOCTYPE svg PUBLIC "-//W3C//DTD SVG 1.1//EN"
  "http://www.w3.org/Graphics/SVG/1.1/DTD/svg11.dtd">
<svg xmlns:xlink="http://www.w3.org/1999/xlink" width="171.307755pt" height="108pt" viewBox="0 0 171.307755 108" xmlns="http://www.w3.org/2000/svg" version="1.1">
 <metadata>
  <rdf:RDF xmlns:dc="http://purl.org/dc/elements/1.1/" xmlns:cc="http://creativecommons.org/ns#" xmlns:rdf="http://www.w3.org/1999/02/22-rdf-syntax-ns#">
   <cc:Work>
    <dc:type rdf:resource="http://purl.org/dc/dcmitype/StillImage"/>
    <dc:date>2025-09-05T15:49:28.521384</dc:date>
    <dc:format>image/svg+xml</dc:format>
    <dc:creator>
     <cc:Agent>
      <dc:title>Matplotlib v3.10.3, https://matplotlib.org/</dc:title>
     </cc:Agent>
    </dc:creator>
   </cc:Work>
  </rdf:RDF>
 </metadata>
 <defs>
  <style type="text/css">*{stroke-linejoin: round; stroke-linecap: butt}</style>
 </defs>
 <g id="figure_1">
  <g id="patch_1">
   <path d="M 0 108 
L 171.307755 108 
L 171.307755 0 
L 0 0 
z
" style="fill: #ffffff"/>
  </g>
  <g id="axes_1">
   <g id="PatchCollection_1">
    <path d="M 20.745199 41.256255 
L 22.298455 41.235484 
L 23.613308 40.102641 
L 23.623717 39.302305 
L 25.248915 38.665719 
L 27.696583 34.151192 
L 29.33718 33.745008 
L 30.472805 34.205188 
L 32.314513 33.80469 
L 32.412473 33.209849 
L 37.971845 33.202421 
L 40.999463 36.798128 
L 41.457178 38.289486 
L 42.770949 39.014403 
L 42.173663 40.898163 
L 43.450595 41.149565 
L 43.403783 43.169315 
L 44.392037 44.378448 
L 42.266422 47.637274 
L 46.066436 45.967749 
L 45.741782 48.518714 
L 43.299323 49.798461 
L 43.273749 52.022165 
L 37.385395 56.721856 
L 36.051963 59.21055 
L 33.003855 57.268192 
L 27.409338 55.230463 
L 28.559499 55.230463 
L 27.55473 54.763295 
L 28.065649 54.014163 
L 30.116496 53.429247 
L 27.768717 53.773861 
L 27.096025 52.999255 
L 27.867356 51.979532 
L 26.610026 52.743469 
L 23.791941 51.029356 
L 24.76976 50.766675 
L 24.010717 49.80858 
L 24.311734 49.196471 
L 23.504914 47.92026 
L 21.895704 48.618788 
L 20.865336 45.835719 
L 22.989215 46.880917 
L 22.296728 46.066375 
L 24.363612 45.252528 
L 23.848256 45.136853 
L 24.311734 44.270675 
L 22.752019 45.133756 
L 23.046553 44.559517 
L 21.947926 44.391165 
L 22.36908 45.152344 
L 21.908336 45.688366 
L 21.255774 43.080883 
L 23.390582 42.816138 
L 22.177279 42.757268 
L 22.640757 42.122433 
L 21.031546 42.012612 
z
" clip-path="url(#pf6e8bb0a54)" style="fill: #eeeeee; stroke: #000000; stroke-width: 0.3"/>
    <path d="M 23.676241 53.66025 
L 26.446198 53.116309 
L 27.523327 53.722911 
L 27.047905 55.232181 
L 26.579302 54.478929 
z
" clip-path="url(#pf6e8bb0a54)" style="fill: #eeeeee; stroke: #000000; stroke-width: 0.3"/>
    <path d="M 5.828873 25.881219 
L 8.918862 20.476003 
L 10.513503 20.346368 
L 12.453171 19.02683 
L 14.756068 19.295289 
L 15.972969 18.393738 
L 17.148259 18.680117 
L 17.198535 16.201508 
L 15.11345 14.942752 
L 16.225019 13.880302 
L 17.441048 13.746512 
L 17.162124 10.527689 
L 22.629391 10.84468 
L 22.83463 12.229357 
L 23.999293 11.687201 
L 28.631096 13.639391 
L 30.786185 12.77851 
L 36.006167 12.601866 
L 36.786372 12.972193 
L 35.786846 14.603907 
L 37.238887 16.00345 
L 38.442562 16.103135 
L 39.607233 14.511651 
L 40.447687 14.368242 
L 42.467106 17.15247 
L 44.142369 15.226068 
L 46.194734 14.382236 
L 50.75718 16.010007 
L 51.552558 14.785348 
L 53.996318 13.941956 
L 54.228212 13.198239 
L 53.360892 12.372326 
L 54.591441 12.035233 
L 57.023508 13.105543 
L 56.869418 14.322774 
L 58.517161 16.858654 
L 58.102784 19.119086 
L 59.115312 19.190791 
L 59.700461 20.485623 
L 62.061007 21.575173 
L 59.331605 24.868112 
L 60.515778 24.926043 
L 60.966993 24.239166 
L 62.469747 24.484011 
L 62.823439 28.821023 
L 65.450553 30.762291 
L 63.751016 33.638327 
L 63.887114 37.115769 
L 64.755742 38.315283 
L 66.338246 38.13908 
L 65.799908 40.051487 
L 67.333009 40.960468 
L 65.780834 41.636414 
L 65.469626 43.190737 
L 67.752149 44.781349 
L 68.040392 46.8964 
L 66.686738 46.025019 
L 66.33651 46.507062 
L 65.456189 45.86347 
L 63.121646 46.230514 
L 62.978175 47.986829 
L 65.181384 48.510846 
L 65.522502 49.93968 
L 64.629608 49.820324 
L 63.529522 53.652559 
L 61.729853 53.343015 
L 61.137338 53.80778 
L 60.449892 52.70598 
L 59.450366 52.653946 
L 58.013925 56.218611 
L 55.769549 56.919482 
L 54.855846 55.302633 
L 52.705521 55.34723 
L 53.839846 52.251705 
L 52.374803 48.498603 
L 52.634871 47.162017 
L 51.140782 46.755402 
L 51.364876 46.135424 
L 50.764553 46.382232 
L 50.332839 45.304485 
L 47.916381 46.496131 
L 47.192524 45.632178 
L 45.290567 45.88183 
L 43.783913 47.429596 
L 42.266422 47.637274 
L 44.392037 44.378448 
L 43.403783 43.169315 
L 43.450595 41.149565 
L 42.173663 40.898163 
L 42.770949 39.014403 
L 41.457178 38.289486 
L 38.371912 33.297511 
L 32.412473 33.209849 
L 32.314513 33.80469 
L 30.472805 34.205188 
L 29.33718 33.745008 
L 27.696583 34.151192 
L 25.248915 38.665719 
L 23.623717 39.302305 
L 23.613308 40.102641 
L 22.298455 41.235484 
L 20.745199 41.256255 
L 21.947926 40.037891 
L 21.094001 39.945965 
L 21.317893 39.34488 
L 20.626086 40.06681 
L 20.745199 38.588176 
L 19.850318 39.178939 
L 19.943832 37.889995 
L 18.959537 37.803239 
L 19.188546 36.792467 
L 18.678651 37.375311 
L 18.334965 36.792467 
L 17.179344 37.283394 
L 18.564318 34.938236 
L 17.808689 34.476228 
L 17.156815 35.311769 
L 17.522686 33.599373 
L 16.20119 34.324408 
L 14.393686 32.932531 
L 14.883787 31.456994 
L 13.598123 32.675705 
L 13.727478 31.630507 
L 13.017586 32.24881 
L 12.837377 31.603999 
L 11.087212 31.330988 
L 10.395404 28.846752 
L 9.365716 29.08911 
L 10.687212 25.607184 
L 9.013164 27.705152 
L 9.41964 26.293655 
L 8.505651 27.229371 
L 8.672205 25.769672 
L 8.099855 26.179358 
L 8.007364 25.430227 
L 9.307698 24.382964 
L 9.136027 24.147138 
L 7.808048 24.960986 
L 7.178359 24.440802 
L 6.83433 26.646527 
z
" clip-path="url(#pf6e8bb0a54)" style="fill: #eeeeee; stroke: #000000; stroke-width: 0.3"/>
    <path d="M 36.051963 59.21055 
L 37.385395 56.721856 
L 43.273749 52.022165 
L 43.299323 49.798461 
L 45.741782 48.518714 
L 46.066436 45.967749 
L 47.66975 45.752194 
L 47.916381 46.496131 
L 50.332839 45.304485 
L 50.764553 46.382232 
L 51.364876 46.135424 
L 51.140782 46.755402 
L 52.634871 47.162017 
L 52.374803 48.498603 
L 53.839846 52.251705 
L 52.705521 55.34723 
L 54.855846 55.302633 
L 55.769549 56.919482 
L 57.557946 56.412302 
L 59.450366 52.653946 
L 60.449892 52.70598 
L 61.639266 54.282166 
L 62.826039 58.377615 
L 62.378288 60.413313 
L 60.019479 62.819778 
L 61.700814 63.171965 
L 61.754999 64.112639 
L 65.927342 64.690432 
L 66.998818 67.343485 
L 69.44995 68.629357 
L 69.851326 68.292916 
L 70.327679 72.767 
L 68.767277 74.840518 
L 68.98747 76.178855 
L 68.518045 76.318111 
L 69.061852 80.925689 
L 63.050837 79.003932 
L 55.940968 75.183237 
L 45.635888 65.838411 
L 41.821573 64.510912 
L 42.064228 63.569679 
L 37.083707 61.05721 
z
" clip-path="url(#pf6e8bb0a54)" style="fill: #eeeeee; stroke: #000000; stroke-width: 0.3"/>
    <path d="M 60.019479 62.819778 
L 62.258662 60.598696 
L 62.804801 58.581359 
L 61.137338 53.80778 
L 61.729853 53.343015 
L 63.288527 53.923642 
L 64.629608 49.820324 
L 65.522502 49.93968 
L 65.181384 48.510846 
L 62.978175 47.986829 
L 63.07527 46.290196 
L 65.456189 45.86347 
L 68.040392 46.8964 
L 67.752149 44.781349 
L 65.469626 43.190737 
L 65.780834 41.636414 
L 67.333009 40.960468 
L 65.799908 40.051487 
L 66.338246 38.13908 
L 64.755742 38.315283 
L 63.887114 37.115769 
L 63.751016 33.638327 
L 65.295808 31.775981 
L 66.64339 31.355812 
L 68.023919 29.447998 
L 69.390574 29.266118 
L 70.548737 31.012813 
L 73.464521 31.954587 
L 73.921809 30.228654 
L 76.373814 30.09203 
L 76.371641 27.61189 
L 78.243696 28.47409 
L 78.402769 27.341687 
L 79.837473 27 
L 80.269615 27.819567 
L 79.792826 28.796978 
L 80.469871 29.591188 
L 79.971408 31.015005 
L 81.850827 31.540104 
L 83.007262 29.964798 
L 85.389473 29.3059 
L 86.995823 30.603576 
L 89.234134 30.572093 
L 89.784182 32.214518 
L 90.679676 32.805417 
L 90.656702 33.983948 
L 92.062586 34.478885 
L 92.079488 35.223693 
L 93.047158 35.836454 
L 94.482508 35.303486 
L 94.551648 36.065342 
L 95.646534 36.675049 
L 97.499507 34.683939 
L 100.814503 33.689049 
L 104.487083 33.981325 
L 104.616681 34.490688 
L 105.346175 33.860438 
L 108.737667 38.129028 
L 109.754312 37.472322 
L 109.989671 39.459049 
L 109.036092 41.142137 
L 110.339462 42.253549 
L 111.288277 48.297483 
L 110.413148 48.673267 
L 110.41402 49.729599 
L 108.903676 50.547855 
L 107.638016 53.645571 
L 107.375566 56.710053 
L 105.26078 59.802955 
L 104.945671 61.768048 
L 106.897904 69.491778 
L 107.442751 69.44499 
L 107.601605 70.303697 
L 108.945933 70.415844 
L 109.105014 74.087841 
L 105.980367 74.246142 
L 105.427468 73.600291 
L 105.92235 72.329597 
L 104.94932 72.566109 
L 104.529181 74.435493 
L 101.09643 73.432294 
L 100.206673 73.778626 
L 98.743534 73.195436 
L 101.033975 73.195436 
L 101.14455 73.061857 
L 100.782093 72.351975 
L 100.396092 72.269348 
L 100.907355 73.13209 
L 99.545581 72.502763 
L 98.851391 73.173404 
L 97.707362 72.849104 
L 96.738082 73.048083 
L 96.456859 72.807096 
L 94.954131 73.25912 
L 94.032291 72.912102 
L 92.996119 73.490123 
L 93.111139 72.796774 
L 91.977695 73.923221 
L 97.217949 73.07976 
L 98.795412 73.490123 
L 91.272576 74.361817 
L 90.290328 73.622323 
L 87.675317 73.502518 
L 87.02549 74.248892 
L 88.804324 74.060581 
L 88.456202 73.720789 
L 90.351759 74.361817 
L 83.231649 75.196664 
L 74.409159 78.309889 
L 69.765495 81 
L 68.784178 80.734916 
L 68.767277 74.840518 
L 70.327679 72.767 
L 69.851326 68.292916 
L 69.44995 68.629357 
L 66.998818 67.343485 
L 65.927342 64.690432 
L 61.754999 64.112639 
L 61.700814 63.171965 
z
" clip-path="url(#pf6e8bb0a54)" style="fill: #eeeeee; stroke: #000000; stroke-width: 0.3"/>
    <path d="M 104.829519 74.450985 
L 105.183789 74.067121 
L 106.144195 74.677513 
z
" clip-path="url(#pf6e8bb0a54)" style="fill: #eeeeee; stroke: #000000; stroke-width: 0.3"/>
    <path d="M 29.44294 -7.253 
L 31.067928 -6.910001 
L 33.164932 -8.310855 
L 32.952975 -10.672292 
L 33.947737 -13.735894 
L 34.888743 -13.735894 
L 35.647711 -14.601378 
L 40.757595 -10.027828 
L 42.349645 -12.821228 
L 47.866533 -12.243224 
L 53.265969 -12.884413 
L 53.032775 -14.134861 
L 53.831609 -15.061549 
L 53.892294 -13.350702 
L 86.086456 -13.338459 
L 87.408899 -20.257488 
L 85.143714 -22.083757 
L 77.009676 -93.715012 
L 91.868403 -93.722889 
L 141.927236 -60.78221 
L 141.994849 -57.711602 
L 145.393068 -56.516243 
L 147.224804 -54.035442 
L 149.683309 -53.265277 
L 150.770386 -53.778362 
L 152.444357 -51.939411 
L 159.141091 -49.942404 
L 159.661219 -46.285703 
L 158.347012 -44.146818 
L 159.863212 -42.964133 
L 167.778793 -44.203658 
L 167.404291 -21.138048 
L 166.369226 -20.142058 
L 164.781077 -15.204959 
L 161.890003 -13.353325 
L 161.727022 -12.152059 
L 157.754926 -12.765269 
L 157.474928 -12.026367 
L 143.478974 -11.556787 
L 140.477795 -9.083211 
L 137.930867 -8.647297 
L 134.166391 -9.122774 
L 134.14299 -8.403983 
L 130.325202 -9.712369 
L 128.739654 -9.179182 
L 128.385962 -9.833265 
L 126.273784 -9.821022 
L 123.26394 -7.434229 
L 118.077333 -4.893975 
L 115.55988 -4.67886 
L 115.233926 -2.22977 
L 114.261282 -2.017499 
L 111.66277 -3.073163 
L 110.524545 -2.577355 
L 108.260659 -0.701024 
L 108.026165 2.25088 
L 106.581278 2.630607 
L 104.740651 1.860653 
L 105.06205 5.287162 
L 103.385269 5.515603 
L 103.37746 6.33605 
L 98.997933 4.492072 
L 99.447848 3.947953 
L 98.917092 3.54265 
L 95.815143 6.763216 
L 96.982624 9.29407 
L 96.598812 10.125448 
L 94.689701 10.178353 
L 95.511727 11.707312 
L 94.971653 12.541973 
L 95.3533 13.623654 
L 94.665209 13.511727 
L 94.058821 14.96024 
L 92.374449 16.169154 
L 89.622937 16.400445 
L 86.913473 17.675818 
L 87.963711 18.264754 
L 88.54106 21.11369 
L 87.583145 23.657227 
L 86.142804 24.070839 
L 86.753528 25.999855 
L 86.332223 28.61728 
L 85.988932 29.546591 
L 83.007262 29.964798 
L 81.850827 31.540104 
L 79.971408 31.015005 
L 80.469871 29.591188 
L 79.792826 28.796978 
L 80.269615 27.819567 
L 79.837473 27 
L 78.402769 27.341687 
L 78.243696 28.47409 
L 76.371641 27.61189 
L 76.373814 30.09203 
L 73.921809 30.228654 
L 73.464521 31.954587 
L 70.548737 31.012813 
L 69.390574 29.266118 
L 68.023919 29.447998 
L 66.64339 31.355812 
L 65.295808 31.775981 
L 65.240332 30.369221 
L 63.289391 29.56408 
L 62.730251 28.599352 
L 62.469747 24.484011 
L 60.966993 24.239166 
L 60.515778 24.926043 
L 59.369316 25.001022 
L 62.061007 21.575173 
L 59.700461 20.485623 
L 59.115312 19.190791 
L 58.102784 19.119086 
L 58.332942 16.118 
L 57.474723 15.841241 
L 57.023508 13.105543 
L 55.585767 12.286636 
L 53.481826 12.221048 
L 54.228212 13.198239 
L 53.996318 13.941956 
L 51.552558 14.785348 
L 50.75718 16.010007 
L 46.194734 14.382236 
L 44.142369 15.226068 
L 42.467106 17.15247 
L 40.447687 14.368242 
L 39.607233 14.511651 
L 38.442562 16.103135 
L 37.238887 16.00345 
L 35.786846 14.603907 
L 36.786372 12.972193 
L 36.877395 12.162026 
L 36.122328 11.626427 
L 36.784636 8.013452 
L 35.574889 6.818304 
L 34.90348 4.711561 
L 33.828968 4.313906 
L 33.099919 5.164515 
L 30.839497 1.804474 
L 31.969494 0.746399 
L 31.678651 -2.102318 
L 29.798578 -4.006637 
L 30.274285 -6.127154 
z
" clip-path="url(#pf6e8bb0a54)" style="fill: #eeeeee; stroke: #000000; stroke-width: 0.3"/>
    <path d="M -14.776171 -7.104539 
L -11.730788 -8.318081 
L -9.258788 -11.129384 
L -6.373811 -15.793531 
L -5.800949 -19.090548 
L -4.367545 -21.938164 
L -3.001753 -22.311554 
L 0.857209 -21.690696 
L 2.603558 -22.5376 
L 5.446093 -22.548091 
L 5.593037 -23.247642 
L 6.710888 -23.467562 
L 11.47229 -23.208731 
L 15.068802 -20.477408 
L 16.260558 -18.638025 
L 17.152588 -19.221275 
L 17.659724 -18.512535 
L 19.203225 -18.92921 
L 20.620802 -17.029485 
L 21.275737 -14.431951 
L 22.350467 -14.203283 
L 22.567432 -13.326216 
L 23.569969 -13.46504 
L 24.712967 -11.55897 
L 24.207131 -11.279807 
L 27.591259 -9.303352 
L 30.274285 -6.127154 
L 29.798578 -4.006637 
L 31.678651 -2.102318 
L 31.969494 0.746399 
L 30.839497 1.804474 
L 33.099919 5.164515 
L 33.828968 4.313906 
L 34.90348 4.711561 
L 35.574889 6.818304 
L 36.746061 7.926661 
L 36.122328 11.626427 
L 36.7881 12.807801 
L 30.786185 12.77851 
L 28.631096 13.639391 
L 23.999293 11.687201 
L 22.83463 12.229357 
L 22.501521 10.82544 
L 4.858779 10.476536 
L 0.816462 12.508299 
L -3.757685 12.374949 
L -8.002246 13.411594 
L -8.60896 12.041621 
L -6.75504 10.871102 
L -6.365625 11.441907 
L -5.003851 11.56963 
L -2.142091 10.869732 
L -0.550286 11.511792 
L 0.375647 11.22054 
L 1.08725 11.679451 
L 2.218991 10.845627 
L 2.008754 9.60007 
L 3.083149 9.458919 
L 3.210793 9.13324 
L 1.886562 9.504362 
L 1.945268 10.730646 
L 1.118653 11.491478 
L 0.056194 10.933763 
L -1.165296 11.138259 
L -2.077926 10.057255 
L -2.536623 10.818781 
L -5.003851 11.448785 
L -6.097361 10.235582 
L -6.1547 10.933763 
L -7.215792 10.561608 
L -6.847187 9.777712 
L -6.899064 9.479225 
L -7.320906 10.875925 
L -8.221928 11.383722 
L -8.410323 10.488279 
L -7.755036 9.994595 
L -8.570729 10.17293 
L -8.627388 9.337736 
L -7.834241 6.438577 
L -0.494273 6.437265 
L -0.371611 4.942412 
L 4.171333 4.54672 
L 5.340769 2.772696 
L 11.789353 5.770068 
L 15.717019 5.10287 
L 16.403593 4.131585 
L 14.979515 2.864301 
L 11.816873 3.916031 
L 10.331893 2.342476 
L 8.66833 2.55715 
L 7.507995 1.160011 
L 5.855269 0.835372 
L 3.190008 1.236741 
L 2.148879 2.830847 
L -6.601184 2.798578 
L -6.160848 1.501495 
L -6.915446 2.229271 
L -7.174491 1.330046 
L -6.560504 0.609487 
L -5.977569 0.956513 
L -5.977569 -0.718698 
L -7.764254 1.257749 
L -8.156403 -0.284916 
L -6.72705 -0.603023 
L -6.847187 -1.065377 
L -4.951629 -2.116083 
L -5.823982 -2.336418 
L -7.379268 -0.71973 
L -7.940362 -0.834373 
L -7.36323 -1.538401 
L -7.9977 -1.243704 
L -8.393254 0.667324 
L -8.485066 -1.201705 
L -9.915434 -3.997169 
L -12.159793 -6.537872 
L -13.780948 -6.937913 
L -13.969008 -6.227684 
z
" clip-path="url(#pf6e8bb0a54)" style="fill: #eeeeee; stroke: #000000; stroke-width: 0.3"/>
    <path d="M 154.714744 50.931736 
L 155.537424 41.124648 
L 158.111226 40.802192 
L 158.585415 37.73837 
L 160.255042 36.090699 
L 160.207367 34.824075 
L 161.777306 34.444348 
L 162.41794 33.579524 
L 163.072439 31.906497 
L 162.274897 30.729277 
L 162.943269 29.45937 
L 163.953196 29.69765 
L 164.497607 28.07097 
L 163.596904 26.312683 
L 163.530155 23.735269 
L 161.402804 21.136644 
L 163.068103 18.258197 
L 162.539301 17.023926 
L 162.854846 11.842413 
L 165.266539 9.876229 
L 166.605884 7.796154 
L 166.916237 3.76257 
L 170.111591 1.88689 
L 173.048622 1.214879 
L 176.158154 1.492078 
L 178.625331 0.31639 
L 183.831012 2.342476 
L 185.731233 2.465554 
L 190.496971 7.803151 
L 191.600521 7.797466 
L 192.686735 6.771084 
L 194.31215 6.812186 
L 197.935754 4.842939 
L 200.293699 5.229012 
L 205.110149 8.410887 
L 212.750925 9.444697 
L 217.192009 5.648301 
L 221.848942 4.590665 
L 228.26567 4.68095 
L 233.446212 6.77633 
L 236.927645 7.221424 
L 237.66884 5.710386 
L 239.716432 4.608594 
L 240.027649 3.625937 
L 243.26375 3.127506 
L 244.117641 1.76206 
L 246.444376 1.807097 
L 250.282529 7.104471 
L 251.322803 13.091118 
L 253.823783 13.367006 
L 255.357311 14.808522 
L 254.283235 18.680117 
L 254.949871 19.357374 
L 254.818973 20.330842 
L 251.126019 22.669325 
L 249.589891 22.3484 
L 247.681861 24.544345 
L 245.869627 27.888869 
L 244.998398 31.848566 
L 243.281088 32.763012 
L 242.989817 37.019799 
L 240.137745 38.408191 
L 240.498365 39.386913 
L 239.445963 43.645883 
L 237.642829 44.943558 
L 236.056417 44.910545 
L 236.350296 45.866964 
L 234.867043 46.799558 
L 234.574037 50.400951 
L 233.121995 52.446709 
L 233.139332 53.653439 
L 230.753649 56.301247 
L 231.89101 57.857322 
L 229.28687 59.577349 
L 229.049339 61.531511 
L 227.677056 63.133485 
L 225.527159 63.317557 
L 224.88306 60.723958 
L 221.040999 57.421847 
L 220.347488 59.589152 
L 217.955733 59.551112 
L 217.386192 58.463746 
L 215.135744 60.324991 
L 214.413623 60.265318 
L 213.612616 62.494267 
L 210.659985 64.332999 
L 207.654469 67.871435 
L 206.590793 68.279802 
L 206.283921 69.498555 
L 206.993905 70.415404 
L 206.11314 74.099644 
L 203.855771 77.913291 
L 200.935642 75.522691 
L 202.377275 78.421089 
L 201.83257 79.26971 
L 195.708363 79.466287 
L 195.593687 77.895389 
L 195.234644 79.06556 
L 193.381402 78.824911 
L 193.819634 79.432207 
L 193.381402 79.639453 
L 191.626464 77.496727 
L 192.572536 79.519649 
L 191.393019 80.217136 
L 191.393019 78.473757 
L 190.711108 77.727383 
L 190.934313 78.767768 
L 190.190292 78.126739 
L 191.223051 80.542468 
L 190.768447 80.741803 
L 189.922717 80.528009 
L 189.223746 76.998228 
L 188.638764 76.850876 
L 189.940465 80.858511 
L 188.638764 80.910147 
L 188.810778 78.767768 
L 188.466749 80.332811 
L 188.12272 79.581615 
L 188.40463 81.063346 
L 187.775286 81.061975 
L 187.634666 79.832248 
L 187.253782 79.639453 
L 187.414196 81.077467 
L 184.905667 81.435162 
L 185.425804 80.217136 
L 184.842868 80.563468 
L 184.618984 79.69729 
L 184.504308 81.372501 
L 183.582812 81.608328 
L 183.380761 80.432648 
L 183.154822 81.41313 
L 182.541171 80.390649 
L 182.313185 81.088821 
L 181.713189 80.790343 
L 178.236755 76.740708 
L 177.486586 74.387978 
L 178.408082 74.246142 
L 177.315259 74.067121 
L 177.102288 72.540286 
L 179.096132 72.218397 
L 178.727535 71.419694 
L 179.399204 71.178022 
L 179.616269 70.879882 
L 177.801946 71.757075 
L 177.887954 72.103416 
L 175.909803 71.207626 
L 176.117993 70.532856 
L 178.523438 70.452986 
L 178.001942 69.898029 
L 176.983518 70.328021 
L 177.080446 69.32 
L 176.599899 70.225773 
L 175.332328 70.13592 
L 175.110482 68.73922 
L 176.684539 67.750133 
L 174.623795 68.956797 
L 172.133702 65.814662 
L 169.262724 63.953196 
L 161.194496 63.517696 
L 160.702349 63.228516 
L 164.552848 61.821486 
L 161.795859 62.529989 
L 161.509856 61.894468 
L 160.84842 62.31792 
L 160.575384 63.182033 
L 160.698935 63.624767 
L 154.989516 63.872997 
L 155.731607 54.487652 
z
" clip-path="url(#pf6e8bb0a54)" style="fill: #eeeeee; stroke: #000000; stroke-width: 0.3"/>
    <path d="M 192.18209 80.551767 
L 192.949328 79.403288 
L 193.324073 79.749273 
L 193.813485 79.749273 
L 193.526794 80.402011 
z
" clip-path="url(#pf6e8bb0a54)" style="fill: #eeeeee; stroke: #000000; stroke-width: 0.3"/>
    <path d="M 193.850349 80.017809 
L 195.926787 79.810901 
L 194.646248 80.23228 
z
" clip-path="url(#pf6e8bb0a54)" style="fill: #eeeeee; stroke: #000000; stroke-width: 0.3"/>
    <path d="M 138.758748 30.040657 
L 138.863644 27.282877 
L 139.871835 24.747216 
L 140.390236 24.90462 
L 140.541944 24.007874 
L 141.655895 24.451657 
L 141.220717 23.483866 
L 142.026924 23.281866 
L 141.835341 22.485033 
L 143.469437 22.241939 
L 144.385741 20.677344 
L 145.74416 21.397226 
L 148.946451 21.182992 
L 151.380682 19.168928 
L 152.280513 16.665842 
L 152.91681 16.402197 
L 152.115804 14.373047 
L 153.238428 13.828708 
L 156.167649 12.847152 
L 162.476016 18.799041 
L 161.402804 21.136644 
L 163.530155 23.735269 
L 163.596904 26.312683 
L 164.497607 28.07097 
L 163.953196 29.69765 
L 162.943269 29.45937 
L 162.274897 30.729277 
L 163.072439 31.906497 
L 162.41794 33.579524 
L 161.777306 34.444348 
L 160.207367 34.824075 
L 160.255042 36.090699 
L 158.585415 37.73837 
L 158.111226 40.802192 
L 155.537424 41.124648 
L 154.714744 50.931736 
L 155.731607 54.487652 
L 154.989516 63.872997 
L 145.895583 65.179827 
L 147.260351 64.643644 
L 145.445944 61.251908 
L 145.159874 58.597096 
L 145.946144 58.556002 
L 145.740687 41.188265 
L 143.435627 37.191188 
L 143.474638 33.176404 
z
" clip-path="url(#pf6e8bb0a54)" style="fill: #eeeeee; stroke: #000000; stroke-width: 0.3"/>
    <path d="M 133.593379 -5.322012 
L 134.166391 -9.122774 
L 140.273211 -8.984178 
L 143.478974 -11.556787 
L 157.474928 -12.026367 
L 157.754926 -12.765269 
L 161.727022 -12.152059 
L 161.890003 -13.353325 
L 164.570429 -14.955308 
L 166.369226 -20.142058 
L 167.404291 -21.138048 
L 167.778793 -44.203658 
L 180.911319 -46.805777 
L 195.073282 -58.843566 
L 232.701554 -81.220326 
L 245.395438 -78.36331 
L 251.55166 -73.59672 
L 257.957266 -76.806465 
L 259.568665 -68.326454 
L 259.673562 -64.077544 
L 263.236481 -59.504206 
L 262.691206 -58.993532 
L 262.908799 -57.822658 
L 266.264535 -54.306524 
L 264.299293 -50.644798 
L 262.084383 -25.374285 
L 252.832929 -15.499647 
L 248.345033 -9.323023 
L 246.868281 -5.339061 
L 245.120632 -4.411061 
L 246.444376 1.807097 
L 244.117641 1.76206 
L 243.26375 3.127506 
L 240.027649 3.625937 
L 239.716432 4.608594 
L 237.66884 5.710386 
L 236.927645 7.221424 
L 233.446212 6.77633 
L 228.26567 4.68095 
L 221.848942 4.590665 
L 217.192009 5.648301 
L 212.750925 9.444697 
L 205.110149 8.410887 
L 200.293699 5.229012 
L 197.935754 4.842939 
L 194.31215 6.812186 
L 192.686735 6.771084 
L 191.600521 7.797466 
L 190.496971 7.803151 
L 185.171221 2.147693 
L 183.831012 2.342476 
L 178.625331 0.31639 
L 176.158154 1.492078 
L 172.779881 1.243298 
L 169.65734 2.063745 
L 166.916237 3.76257 
L 166.605884 7.796154 
L 165.266539 9.876229 
L 162.854846 11.842413 
L 162.539301 17.023926 
L 163.068103 18.258197 
L 162.476016 18.799041 
L 156.167649 12.847152 
L 152.189489 14.226144 
L 152.922011 16.257036 
L 152.358535 17.100437 
L 149.520336 13.332029 
L 151.140551 12.636412 
L 150.00059 10.254864 
L 148.848491 10.097469 
L 147.775279 11.096954 
L 145.427743 10.876593 
L 140.560145 7.490535 
L 140.560145 4.647285 
L 142.951901 4.836382 
L 140.826286 3.824435 
L 139.833696 2.561525 
L 137.295441 1.935861 
L 135.406913 -1.026974 
L 135.571622 -2.825263 
z
" clip-path="url(#pf6e8bb0a54)" style="fill: #eeeeee; stroke: #000000; stroke-width: 0.3"/>
    <path d="M 85.988932 29.546591 
L 86.753528 25.999855 
L 86.142804 24.070839 
L 87.583145 23.657227 
L 88.54106 21.11369 
L 87.963711 18.264754 
L 86.913473 17.675818 
L 89.622937 16.400445 
L 92.374449 16.169154 
L 94.058821 14.96024 
L 94.665209 13.511727 
L 95.3533 13.623654 
L 94.971653 12.541973 
L 95.511727 11.707312 
L 94.689701 10.178353 
L 96.598812 10.125448 
L 96.982624 9.29407 
L 96.016691 6.338241 
L 96.790395 6.278559 
L 98.946566 3.534561 
L 99.447848 3.947953 
L 98.997933 4.492072 
L 103.37746 6.33605 
L 103.385269 5.515603 
L 105.06205 5.287162 
L 104.740651 1.860653 
L 106.581278 2.630607 
L 108.026165 2.25088 
L 108.260659 -0.701024 
L 110.524545 -2.577355 
L 111.66277 -3.073163 
L 114.261282 -2.017499 
L 115.233926 -2.22977 
L 115.55988 -4.67886 
L 118.077333 -4.893975 
L 123.26394 -7.434229 
L 126.273784 -9.821022 
L 128.385962 -9.833265 
L 128.739654 -9.179182 
L 130.325202 -9.712369 
L 134.14299 -8.403983 
L 133.64279 -4.893975 
L 135.571622 -2.825263 
L 135.406913 -1.026974 
L 137.295441 1.935861 
L 139.833696 2.561525 
L 140.826286 3.824435 
L 142.951901 4.836382 
L 140.560145 4.647285 
L 140.560145 7.490535 
L 145.427743 10.876593 
L 147.775279 11.096954 
L 148.848491 10.097469 
L 150.00059 10.254864 
L 151.140551 12.636412 
L 149.520336 13.332029 
L 152.358535 17.100437 
L 151.496843 19.057001 
L 149.176181 21.073899 
L 145.74416 21.397226 
L 144.385741 20.677344 
L 143.469437 22.241939 
L 142.009587 22.269918 
L 142.026924 23.281866 
L 141.220717 23.483866 
L 141.683641 24.413398 
L 140.541944 24.007874 
L 140.390236 24.90462 
L 136.400803 25.250673 
L 136.392138 24.658683 
L 129.780146 23.307231 
L 126.986368 25.464476 
L 125.367453 24.636381 
L 108.511845 24.70262 
L 107.713648 27.779785 
L 109.097213 29.58288 
L 108.47868 30.242209 
L 109.202973 30.940017 
L 109.379383 34.6459 
L 108.864446 35.515538 
L 109.754312 37.472322 
L 109.129715 38.291669 
L 105.346175 33.860438 
L 104.616681 34.490688 
L 104.487083 33.981325 
L 100.814503 33.689049 
L 97.499507 34.683939 
L 95.646534 36.675049 
L 94.551648 36.065342 
L 94.482508 35.303486 
L 93.047158 35.836454 
L 92.079488 35.223693 
L 92.062586 34.478885 
L 90.656702 33.983948 
L 90.679676 32.805417 
L 89.784182 32.214518 
L 89.372405 30.663038 
L 86.995823 30.603576 
z
" clip-path="url(#pf6e8bb0a54)" style="fill: #eeeeee; stroke: #000000; stroke-width: 0.3"/>
    <path d="M 130.917289 23.543768 
L 136.392138 24.658683 
L 136.400803 25.250673 
L 139.871835 24.747216 
L 138.691135 29.913204 
L 143.582134 33.464314 
L 143.435627 37.191188 
L 145.695612 40.957413 
L 146.101316 45.892761 
L 145.946144 58.556002 
L 145.159874 58.597096 
L 145.445944 61.251908 
L 147.260351 64.643644 
L 145.895583 65.179827 
L 142.253274 66.139301 
L 140.560145 64.243154 
L 138.565428 63.259186 
L 136.666071 59.948107 
L 136.458887 58.756242 
L 137.326643 58.264808 
L 137.726283 55.791013 
L 136.46756 54.262046 
L 137.446277 52.611101 
L 137.123796 48.342511 
L 138.288895 47.546989 
L 135.379393 43.517119 
L 136.551647 42.738214 
L 135.927914 41.37386 
L 136.767504 38.213627 
L 135.763423 37.442591 
L 134.212993 37.94933 
L 134.843 37.313827 
L 134.241377 36.736043 
L 135.478871 36.620393 
L 134.4995 36.047194 
L 135.22183 35.99648 
L 135.637079 30.750259 
L 131.57136 27.786782 
L 132.44648 24.156309 
z
" clip-path="url(#pf6e8bb0a54)" style="fill: #eeeeee; stroke: #000000; stroke-width: 0.3"/>
    <path d="M 104.945671 61.768048 
L 105.120345 60.128685 
L 107.375566 56.710053 
L 107.638016 53.645571 
L 108.903676 50.547855 
L 110.41402 49.729599 
L 110.413148 48.673267 
L 111.288277 48.297483 
L 110.339462 42.253549 
L 109.036092 41.142137 
L 110.000944 39.298371 
L 108.864446 35.515538 
L 109.379383 34.6459 
L 109.202973 30.940017 
L 108.47868 30.242209 
L 109.097213 29.58288 
L 107.713648 27.779785 
L 108.511845 24.70262 
L 125.367453 24.636381 
L 126.986368 25.464476 
L 129.780146 23.307231 
L 132.44648 24.156309 
L 131.57136 27.786782 
L 135.637079 30.750259 
L 135.22183 35.99648 
L 134.4995 36.047194 
L 135.478871 36.620393 
L 134.241377 36.736043 
L 134.843 37.313827 
L 134.212993 37.94933 
L 135.763423 37.442591 
L 136.767504 38.213627 
L 135.927914 41.37386 
L 136.551647 42.738214 
L 135.379393 43.517119 
L 138.288895 47.546989 
L 137.123796 48.342511 
L 137.446277 52.611101 
L 136.46756 54.262046 
L 137.726283 55.791013 
L 137.326643 58.264808 
L 136.458887 58.756242 
L 136.639197 59.867223 
L 138.565428 63.259186 
L 140.560145 64.243154 
L 142.253274 66.139301 
L 140.319494 68.757123 
L 134.351591 69.052505 
L 125.604187 73.632653 
L 118.735271 75.260357 
L 115.690912 77.544928 
L 114.725045 77.663006 
L 112.544173 76.130325 
L 106.144195 74.677513 
L 109.105014 74.087841 
L 108.912558 72.515598 
L 109.411021 72.293046 
L 108.880056 70.305008 
L 107.601605 70.303697 
L 107.442751 69.44499 
L 106.897904 69.491778 
z
" clip-path="url(#pf6e8bb0a54)" style="fill: #eeeeee; stroke: #000000; stroke-width: 0.3"/>
    <path d="M -8.002246 13.411594 
L -3.757685 12.374949 
L 0.816462 12.508299 
L 4.858779 10.476536 
L 17.162124 10.527689 
L 17.441048 13.746512 
L 16.225019 13.880302 
L 15.11345 14.942752 
L 17.198535 16.201508 
L 17.148259 18.680117 
L 15.972969 18.393738 
L 14.756068 19.295289 
L 12.453171 19.02683 
L 10.513503 20.346368 
L 8.918862 20.476003 
L 5.780753 25.298028 
L 6.48791 22.851654 
L 4.565051 24.729643 
L 4.762321 22.707754 
L 4.536726 23.648978 
L 3.490656 23.46549 
L 2.921032 22.261576 
L 4.246965 21.022212 
L 3.617277 21.484567 
L 3.531269 20.765733 
L 2.2422 21.657733 
L 2.523766 20.502367 
L 4.481434 19.804186 
L 4.137414 19.399331 
L 5.523411 19.459233 
L 5.4613 20.070649 
L 6.433986 19.509837 
L 5.053793 19.10532 
L 5.397814 18.695989 
L 4.582799 19.113586 
L 4.595767 18.296981 
L 2.815574 19.972191 
L 2.919329 18.816826 
L 2.501581 19.149392 
L 1.870525 18.482889 
L 2.815574 17.194292 
L 4.908401 17.314434 
L 5.741155 16.73159 
L 5.912834 17.886609 
L 7.032967 18.314884 
L 5.906342 17.403255 
L 6.434674 16.408322 
L 4.691336 16.989795 
L 2.919329 16.553602 
L -0.469739 18.354133 
L 0.337081 17.425295 
L -0.177587 17.194292 
L -1.548235 18.468768 
L -0.762913 16.459967 
L 0.451757 16.500587 
L 0.509095 16.091247 
L -0.750625 15.97558 
L -2.937302 17.194292 
L -4.871091 15.486025 
L -2.421946 13.255163 
L -5.730811 14.770296 
z
" clip-path="url(#pf6e8bb0a54)" style="fill: #eeeeee; stroke: #000000; stroke-width: 0.3"/>
    <path d="M 0.009097 23.221397 
L 0.17087 22.351091 
L 0.972573 22.124901 
L 0.972573 22.707754 
z
" clip-path="url(#pf6e8bb0a54)" style="fill: #eeeeee; stroke: #000000; stroke-width: 0.3"/>
    <path d="M -1.709321 24.27899 
L -1.271098 23.920957 
L -1.442777 22.991426 
L -0.865302 24.062793 
z
" clip-path="url(#pf6e8bb0a54)" style="fill: #eeeeee; stroke: #000000; stroke-width: 0.3"/>
    <path d="M -2.593625 20.728201 
L -1.385774 19.567675 
L -1.036972 20.848699 
L -2.187821 21.13238 
z
" clip-path="url(#pf6e8bb0a54)" style="fill: #eeeeee; stroke: #000000; stroke-width: 0.3"/>
    <path d="M -3.280652 17.314434 
L -2.2025 17.077584 
L -1.77144 17.177421 
L -2.239699 18.296981 
z
" clip-path="url(#pf6e8bb0a54)" style="fill: #eeeeee; stroke: #000000; stroke-width: 0.3"/>
    <path d="M -3.972795 23.800112 
L -2.730823 22.924298 
L -2.302497 23.684784 
L -2.999422 24.440802 
z
" clip-path="url(#pf6e8bb0a54)" style="fill: #eeeeee; stroke: #000000; stroke-width: 0.3"/>
    <path d="M -4.254705 22.633045 
L -3.624673 22.061903 
L -3.343107 22.817913 
L -4.001464 22.844082 
z
" clip-path="url(#pf6e8bb0a54)" style="fill: #eeeeee; stroke: #000000; stroke-width: 0.3"/>
    <path d="M -5.467673 20.208018 
L -3.972795 19.746349 
L -4.203515 20.493416 
L -5.410335 20.555035 
z
" clip-path="url(#pf6e8bb0a54)" style="fill: #eeeeee; stroke: #000000; stroke-width: 0.3"/>
    <path d="M 1.208754 20.210082 
L 2.060624 19.399331 
L 2.539124 19.895765 
z
" clip-path="url(#pf6e8bb0a54)" style="fill: #eeeeee; stroke: #000000; stroke-width: 0.3"/>
    <path d="M 0.329574 20.879683 
L 0.68111 20.43936 
L 0.795442 20.959552 
z
" clip-path="url(#pf6e8bb0a54)" style="fill: #eeeeee; stroke: #000000; stroke-width: 0.3"/>
    <path d="M -1.024005 22.581401 
L -0.431516 22.209593 
L -0.81308 22.991426 
z
" clip-path="url(#pf6e8bb0a54)" style="fill: #eeeeee; stroke: #000000; stroke-width: 0.3"/>
    <path d="M -2.370413 23.30196 
L -1.678269 23.702687 
L -2.035601 24.104792 
z
" clip-path="url(#pf6e8bb0a54)" style="fill: #eeeeee; stroke: #000000; stroke-width: 0.3"/>
    <path d="M -4.426376 20.848699 
L -3.280652 20.323693 
L -3.687136 20.959552 
z
" clip-path="url(#pf6e8bb0a54)" style="fill: #eeeeee; stroke: #000000; stroke-width: 0.3"/>
    <path d="M -8.851616 4.900109 
L -7.586091 3.566416 
L -5.410335 6.002806 
L -5.582349 5.425462 
L -4.056077 5.015437 
L -3.801468 5.598289 
L -3.651295 5.639256 
L -3.161195 5.425462 
L -3.797375 4.941076 
L -3.244476 4.137212 
L 1.287934 3.916192 
L 1.937081 3.45212 
L 3.638774 4.034617 
L 3.938776 3.912063 
L 4.023073 3.566416 
L 1.830591 3.294445 
L -3.079968 3.918256 
L -5.168015 4.91423 
L -6.269376 4.726596 
L -6.601184 2.798578 
L 2.148879 2.830847 
L 3.190008 1.236741 
L 5.675823 0.826632 
L 7.507995 1.160011 
L 8.66833 2.55715 
L 10.331893 2.342476 
L 11.816873 3.916031 
L 14.979515 2.864301 
L 16.403593 4.131585 
L 15.717019 5.10287 
L 11.789353 5.770068 
L 5.340769 2.772696 
L 4.171333 4.54672 
L -0.371611 4.942412 
L -0.494273 6.437265 
L -7.541661 6.374089 
L -8.213733 7.214283 
z
" clip-path="url(#pf6e8bb0a54)" style="fill: #eeeeee; stroke: #000000; stroke-width: 0.3"/>
   </g>
   <g id="PatchCollection_2">
    <path d="M 60.019479 62.819778 
L 62.258662 60.598696 
L 62.804801 58.581359 
L 61.137338 53.80778 
L 61.729853 53.343015 
L 63.288527 53.923642 
L 64.629608 49.820324 
L 65.522502 49.93968 
L 65.181384 48.510846 
L 62.978175 47.986829 
L 63.07527 46.290196 
L 65.456189 45.86347 
L 68.040392 46.8964 
L 67.752149 44.781349 
L 65.469626 43.190737 
L 65.780834 41.636414 
L 67.333009 40.960468 
L 65.799908 40.051487 
L 66.338246 38.13908 
L 64.755742 38.315283 
L 63.887114 37.115769 
L 63.751016 33.638327 
L 65.295808 31.775981 
L 66.64339 31.355812 
L 68.023919 29.447998 
L 69.390574 29.266118 
L 70.548737 31.012813 
L 73.464521 31.954587 
L 73.921809 30.228654 
L 76.373814 30.09203 
L 76.371641 27.61189 
L 78.243696 28.47409 
L 78.402769 27.341687 
L 79.837473 27 
L 80.269615 27.819567 
L 79.792826 28.796978 
L 80.469871 29.591188 
L 79.971408 31.015005 
L 81.850827 31.540104 
L 83.007262 29.964798 
L 85.389473 29.3059 
L 86.995823 30.603576 
L 89.234134 30.572093 
L 89.784182 32.214518 
L 90.679676 32.805417 
L 90.656702 33.983948 
L 92.062586 34.478885 
L 92.079488 35.223693 
L 93.047158 35.836454 
L 94.482508 35.303486 
L 94.551648 36.065342 
L 95.646534 36.675049 
L 97.499507 34.683939 
L 100.814503 33.689049 
L 104.487083 33.981325 
L 104.616681 34.490688 
L 105.346175 33.860438 
L 108.737667 38.129028 
L 109.754312 37.472322 
L 109.989671 39.459049 
L 109.036092 41.142137 
L 110.339462 42.253549 
L 111.288277 48.297483 
L 110.413148 48.673267 
L 110.41402 49.729599 
L 108.903676 50.547855 
L 107.638016 53.645571 
L 107.375566 56.710053 
L 105.26078 59.802955 
L 104.945671 61.768048 
L 106.897904 69.491778 
L 107.442751 69.44499 
L 107.601605 70.303697 
L 108.945933 70.415844 
L 109.105014 74.087841 
L 105.980367 74.246142 
L 105.427468 73.600291 
L 105.92235 72.329597 
L 104.94932 72.566109 
L 104.529181 74.435493 
L 101.09643 73.432294 
L 100.206673 73.778626 
L 98.743534 73.195436 
L 101.033975 73.195436 
L 101.14455 73.061857 
L 100.782093 72.351975 
L 100.396092 72.269348 
L 100.907355 73.13209 
L 99.545581 72.502763 
L 98.851391 73.173404 
L 97.707362 72.849104 
L 96.738082 73.048083 
L 96.456859 72.807096 
L 94.954131 73.25912 
L 94.032291 72.912102 
L 92.996119 73.490123 
L 93.111139 72.796774 
L 91.977695 73.923221 
L 97.217949 73.07976 
L 98.795412 73.490123 
L 91.272576 74.361817 
L 90.290328 73.622323 
L 87.675317 73.502518 
L 87.02549 74.248892 
L 88.804324 74.060581 
L 88.456202 73.720789 
L 90.351759 74.361817 
L 83.231649 75.196664 
L 74.409159 78.309889 
L 69.765495 81 
L 68.784178 80.734916 
L 68.767277 74.840518 
L 70.327679 72.767 
L 69.851326 68.292916 
L 69.44995 68.629357 
L 66.998818 67.343485 
L 65.927342 64.690432 
L 61.754999 64.112639 
L 61.700814 63.171965 
z
" clip-path="url(#pf6e8bb0a54)" style="fill: #ff6b6b; stroke: #dd0000; stroke-width: 0.5"/>
    <path d="M 104.829519 74.450985 
L 105.183789 74.067121 
L 106.144195 74.677513 
z
" clip-path="url(#pf6e8bb0a54)" style="fill: #ff6b6b; stroke: #dd0000; stroke-width: 0.5"/>
   </g>
  </g>
 </g>
 <defs>
  <clipPath id="pf6e8bb0a54">
   <rect x="0" y="0" width="171.307755" height="108"/>
  </clipPath>
 </defs>
</svg>
