<?xml version="1.0" encoding="utf-8" standalone="no"?>
<!DOCTYPE svg PUBLIC "-//W3C//DTD SVG 1.1//EN"
  "http://www.w3.org/Graphics/SVG/1.1/DTD/svg11.dtd">
<svg xmlns:xlink="http://www.w3.org/1999/xlink" width="147.680533pt" height="108pt" viewBox="0 0 147.680533 108" xmlns="http://www.w3.org/2000/svg" version="1.1">
 <metadata>
  <rdf:RDF xmlns:dc="http://purl.org/dc/elements/1.1/" xmlns:cc="http://creativecommons.org/ns#" xmlns:rdf="http://www.w3.org/1999/02/22-rdf-syntax-ns#">
   <cc:Work>
    <dc:type rdf:resource="http://purl.org/dc/dcmitype/StillImage"/>
    <dc:date>2025-09-05T13:56:19.846813</dc:date>
    <dc:format>image/svg+xml</dc:format>
    <dc:creator>
     <cc:Agent>
      <dc:title>Matplotlib v3.10.3, https://matplotlib.org/</dc:title>
     </cc:Agent>
    </dc:creator>
   </cc:Work>
  </rdf:RDF>
 </metadata>
 <defs>
  <style type="text/css">*{stroke-linejoin: round; stroke-linecap: butt}</style>
 </defs>
 <g id="figure_1">
  <g id="patch_1">
   <path d="M 0 108 
L 147.680533 108 
L 147.680533 0 
L 0 0 
z
" style="fill: #ffffff"/>
  </g>
  <g id="axes_1">
   <g id="PatchCollection_1">
    <path d="M 40.018563 10.595016 
L 42.087876 9.868337 
L 42.33365 10.396559 
L 41.199214 10.793473 
L 42.111519 11.717861 
L 40.241186 11.548299 
z
M 40.632345 11.078683 
L 40.737972 11.186834 
L 40.737972 11.070967 
z
" clip-path="url(#pef78efdc7f)" style="fill: #eeeeee; stroke: #000000; stroke-width: 0.3"/>
    <path d="M 26.191365 10.399238 
L 27.587632 10.741708 
L 30.004827 9.085456 
L 31.637749 10.558774 
L 37.434856 9.392983 
L 37.85633 11.492223 
L 38.453514 10.729302 
L 40.255208 11.375172 
L 39.299145 13.285924 
L 32.97937 15.548102 
L 33.225144 14.99194 
L 31.968946 14.679319 
L 30.472123 15.31361 
L 28.031462 14.434513 
z
" clip-path="url(#pef78efdc7f)" style="fill: #eeeeee; stroke: #000000; stroke-width: 0.3"/>
    <path d="M 41.252023 10.666913 
L 43.390161 10.581046 
L 44.148493 11.637191 
L 41.583111 11.65384 
z
" clip-path="url(#pef78efdc7f)" style="fill: #eeeeee; stroke: #000000; stroke-width: 0.3"/>
    <path d="M 40.808202 11.366859 
L 41.153511 11.492223 
L 41.014375 11.474401 
z
" clip-path="url(#pef78efdc7f)" style="fill: #eeeeee; stroke: #000000; stroke-width: 0.3"/>
    <path d="M 40.632345 11.078683 
L 40.737972 11.070967 
L 40.737972 11.186834 
z
" clip-path="url(#pef78efdc7f)" style="fill: #eeeeee; stroke: #000000; stroke-width: 0.3"/>
    <path d="M 45.614814 54.79761 
L 48.638283 51.021916 
L 47.902976 50.523865 
L 50.170187 46.287224 
L 52.485294 36.369577 
L 53.617666 35.861476 
L 53.979925 33.225564 
L 57.719147 33.227921 
L 58.400625 31.001525 
L 58.93483 31.472118 
L 61.069647 29.556181 
L 60.553719 31.097189 
L 61.727767 34.865777 
L 60.445558 37.172223 
L 58.509288 38.361631 
L 58.513356 41.307279 
L 54.875436 39.50216 
L 53.440374 40.739239 
L 52.621795 43.413049 
L 53.384293 46.781286 
L 52.779238 47.646758 
L 54.830391 47.929909 
L 55.182735 47.120008 
L 55.583544 48.621117 
L 52.741631 49.980822 
L 51.810322 53.056893 
L 54.621536 53.063424 
L 57.506882 51.576193 
L 56.889396 54.266043 
L 57.309858 56.036103 
L 54.376774 63.780648 
L 54.42857 67.308294 
L 52.124636 74.591708 
z
" clip-path="url(#pef78efdc7f)" style="fill: #eeeeee; stroke: #000000; stroke-width: 0.3"/>
    <path d="M 51.810322 53.056893 
L 52.741631 49.980822 
L 55.583544 48.621117 
L 55.182735 47.120008 
L 54.830391 47.929909 
L 52.779238 47.646758 
L 53.384293 46.781286 
L 52.590468 43.586923 
L 53.63334 40.405611 
L 55.051137 39.491467 
L 58.513356 41.307279 
L 58.498115 48.428823 
L 57.508916 51.576791 
L 54.621536 53.063424 
z
" clip-path="url(#pef78efdc7f)" style="fill: #eeeeee; stroke: #000000; stroke-width: 0.3"/>
    <path d="M 45.142329 53.615401 
L 47.902976 50.523865 
L 48.638283 51.021916 
L 45.614814 54.79761 
z
" clip-path="url(#pef78efdc7f)" style="fill: #eeeeee; stroke: #000000; stroke-width: 0.3"/>
    <path d="M 54.035102 33.209191 
L 57.624134 23.860445 
L 59.298691 22.741337 
L 59.537792 19.154729 
L 62.662201 16.541272 
L 62.531851 15.262605 
L 65.398183 15.522542 
L 65.863327 14.829139 
L 67.153161 15.498189 
L 65.970987 16.823205 
L 67.987993 17.871635 
L 68.763914 20.445331 
L 65.663256 23.349677 
L 66.459499 24.60874 
L 63.323288 24.845233 
L 62.056821 26.870494 
L 63.173992 27.704128 
L 58.93483 31.472118 
L 58.400625 31.001525 
L 57.719147 33.227921 
z
" clip-path="url(#pef78efdc7f)" style="fill: #eeeeee; stroke: #000000; stroke-width: 0.3"/>
    <path d="M 60.109575 4.543518 
L 61.258741 2.642149 
L 60.848499 1.466884 
L 62.633684 0.579519 
L 64.376478 1.778574 
L 64.762409 0.293723 
L 66.345746 -0.192324 
L 66.493008 -2.878609 
L 69.355006 -2.894649 
L 68.047906 -5.769296 
L 69.115315 -9.782978 
L 72.30738 -8.929142 
L 73.17573 -7.389617 
L 77.0381 -7.553614 
L 84.684638 -10.706331 
L 87.19726 -10.100865 
L 89.605268 -8.240487 
L 94.661996 -7.864971 
L 99.827398 -8.794855 
L 109.100943 -12.914906 
L 116.675373 -12.628511 
L 121.878342 -13.778837 
L 123.862851 -15.49542 
L 125.194311 -14.516508 
L 125.493925 -12.475208 
L 120.252348 -7.365851 
L 115.748112 -6.198887 
L 114.682738 -4.340889 
L 114.286656 -0.955245 
L 115.532811 3.702525 
L 113.939313 8.442299 
L 113.967752 13.615229 
L 111.619657 18.11406 
L 108.91915 18.923042 
L 90.091745 29.959039 
L 70.879432 42.088332 
L 66.639257 41.369368 
L 60.445558 37.172223 
L 61.727767 34.865777 
L 60.506994 30.387734 
L 63.173992 27.704128 
L 62.056821 26.870494 
L 62.320883 26.078149 
L 64.186558 24.452183 
L 66.340665 24.76086 
L 65.663256 23.349677 
L 68.763914 20.445331 
L 67.987993 17.871635 
L 65.970987 16.823205 
L 67.153161 15.498189 
L 65.863327 14.829139 
L 65.398183 15.522542 
L 62.531851 15.262605 
L 61.519442 12.107853 
L 62.458279 8.960575 
L 62.031243 6.434136 
z
" clip-path="url(#pef78efdc7f)" style="fill: #eeeeee; stroke: #000000; stroke-width: 0.3"/>
    <path d="M -34.750894 -40.462091 
L -33.898423 -42.220769 
L -33.791263 -45.950069 
L -28.210205 -50.893933 
L -22.792279 -51.637353 
L -21.167297 -49.956345 
L -18.117266 -49.880078 
L -16.929717 -50.695557 
L -18.888176 -51.958771 
L -18.143661 -52.428973 
L -15.447094 -51.70894 
L -16.728998 -50.851816 
L -16.329152 -50.46256 
L -5.451714 -50.47753 
L -4.469689 -51.24482 
L -7.996341 -52.615645 
L -1.138164 -54.615736 
L 3.271343 -54.705571 
L -3.45728 -55.576251 
L -3.365312 -56.25465 
L -5.884351 -58.10269 
L -5.346156 -58.629498 
L -5.068662 -59.372458 
L -5.279787 -59.508595 
L -4.291365 -60.432156 
L 5.212998 -59.405205 
L 6.643648 -60.230043 
L 12.055983 -58.670661 
L 15.966484 -58.809616 
L 17.553869 -59.918445 
L 17.660232 -61.390797 
L 25.111781 -64.788848 
L 26.108998 -66.032412 
L 36.53621 -69.468832 
L 49.995853 -68.628564 
L 53.236206 -70.31378 
L 55.126684 -69.5217 
L 53.906353 -68.422702 
L 55.931181 -65.974864 
L 58.667732 -64.992364 
L 63.269163 -65.817662 
L 64.148834 -63.062917 
L 66.709449 -60.700234 
L 70.276882 -61.963448 
L 72.505632 -61.13815 
L 73.985868 -59.437951 
L 77.810798 -58.179417 
L 80.357027 -59.161917 
L 81.456608 -57.546402 
L 85.732571 -56.80765 
L 96.534826 -59.045418 
L 103.536943 -56.864267 
L 115.797049 -62.113635 
L 117.078167 -63.664589 
L 119.949697 -62.602005 
L 121.276087 -63.565165 
L 126.337896 -62.717273 
L 128.282784 -64.515861 
L 129.844797 -64.332846 
L 129.31973 -63.550907 
L 133.422292 -61.189638 
L 132.627573 -60.612687 
L 135.380387 -59.904428 
L 138.695344 -55.02562 
L 138.563313 -53.290019 
L 137.112008 -51.748712 
L 138.70296 -48.201462 
L 138.153002 -47.520534 
L 141.759437 -46.352961 
L 144.640725 -46.652429 
L 149.370757 -42.113434 
L 146.999992 -43.562101 
L 145.955942 -42.786705 
L 145.253141 -39.521686 
L 141.586783 -39.057037 
L 142.204279 -37.05613 
L 143.274734 -36.424517 
L 142.933995 -34.349044 
L 144.143074 -32.957178 
L 144.285777 -27.65294 
L 145.948837 -27.147887 
L 143.426565 -22.07537 
L 147.298585 -19.996632 
L 147.002026 -16.901256 
L 149.317615 -15.124952 
L 148.96926 -13.391432 
L 147.43772 -13.81033 
L 144.239562 -11.405093 
L 143.209731 -12.766948 
L 143.750038 -14.482048 
L 142.305837 -15.337368 
L 139.567753 -14.055722 
L 132.742338 -16.026919 
L 130.995486 -15.440758 
L 129.456831 -16.077131 
L 127.145302 -13.379555 
L 125.297904 -13.024229 
L 125.194311 -14.516508 
L 123.862851 -15.49542 
L 121.878342 -13.778837 
L 116.675373 -12.628511 
L 109.100943 -12.914906 
L 99.827398 -8.794855 
L 94.661996 -7.864971 
L 89.605268 -8.240487 
L 87.19726 -10.100865 
L 84.684638 -10.706331 
L 77.0381 -7.553614 
L 73.17573 -7.389617 
L 72.30738 -8.929142 
L 69.115315 -9.782978 
L 68.047906 -5.769296 
L 69.411873 -2.990313 
L 66.493008 -2.878609 
L 66.345746 -0.192324 
L 64.762409 0.293723 
L 64.188592 1.810654 
L 61.956059 0.684175 
L 62.586232 -0.474257 
L 60.738136 -3.760029 
L 64.90294 -7.647922 
L 64.684621 -9.480061 
L 63.026858 -10.912641 
L 58.962816 -8.774527 
L 58.694923 -8.139177 
L 59.969634 -8.538724 
L 59.128356 -7.189424 
L 56.401395 -6.482959 
L 49.983058 -9.619486 
L 45.888623 -7.01071 
L 42.771417 -2.717165 
L 41.907744 -3.882139 
L 40.110836 -1.837124 
L 39.707786 -2.475751 
L 38.77455 -1.727651 
L 34.889639 -1.837124 
L 31.418969 -0.573911 
L 27.112612 -2.307798 
L 23.705913 -6.545658 
L 17.04367 -9.558662 
L 10.61413 -10.508415 
L 9.467372 -9.245189 
L 9.467372 -6.332783 
L 8.067901 -2.864547 
L 5.425715 -3.695456 
L 0.648348 -1.679923 
L -5.011883 -4.756568 
L -4.82956 -6.616302 
L -5.817176 -6.56156 
L -5.011883 -7.9104 
L -6.558498 -8.899913 
L -7.640479 -7.189424 
L -11.343864 -10.421386 
L -11.894047 -9.339232 
L -13.258328 -9.990955 
L -12.885673 -8.538724 
L -15.432698 -6.755257 
L -16.186008 -7.189424 
L -14.904899 -7.667572 
L -16.118833 -8.181283 
L -14.641801 -8.526559 
L -14.621804 -9.466964 
L -16.594649 -8.774527 
L -18.542701 -8.95699 
L -19.016924 -7.824774 
L -21.639123 -7.9104 
L -22.115735 -8.452638 
L -19.270422 -9.534332 
L -15.515065 -9.245189 
L -15.374318 -11.057207 
L -14.16118 -10.743274 
L -12.549002 -12.182409 
L -20.089315 -11.450211 
L -21.912618 -12.078547 
L -23.025789 -11.338392 
L -23.126552 -13.18503 
L -20.058921 -13.204209 
L -20.42518 -13.976639 
L -19.619091 -14.05524 
L -19.559119 -14.918447 
L -21.056138 -14.657383 
L -20.783449 -15.523384 
L -21.712685 -15.475195 
L -21.610331 -16.505412 
L -23.737513 -15.8682 
L -23.563179 -18.622473 
L -25.499242 -19.414093 
L -23.160139 -20.317992 
L -23.262493 -23.119063 
L -26.859524 -23.661312 
L -27.96789 -25.749824 
L -29.189823 -25.598705 
L -29.592076 -24.452921 
L -31.604906 -26.266341 
L -33.148307 -26.480159 
L -30.397369 -28.23556 
L -31.627291 -28.48071 
L -32.009547 -30.564554 
L -31.369793 -31.069377 
L -29.244203 -29.227879 
L -29.659251 -28.071804 
L -28.82437 -26.789871 
L -28.536479 -28.203745 
L -27.625628 -27.381252 
L -23.998214 -28.392762 
L -26.246951 -28.258016 
L -27.432899 -29.498774 
L -26.694781 -29.099227 
L -27.097024 -30.126638 
L -28.372541 -30.761987 
L -28.372541 -31.547053 
L -26.560431 -31.703795 
L -26.622014 -32.646523 
L -24.996237 -33.454988 
L -27.513674 -34.182506 
L -26.837925 -35.800826 
L -28.375735 -37.778462 
L -29.452125 -37.920222 
L -26.301332 -40.36384 
L -26.224566 -41.364587 
z
" clip-path="url(#pef78efdc7f)" style="fill: #eeeeee; stroke: #000000; stroke-width: 0.3"/>
    <path d="M -35.112357 -54.705571 
L -31.910062 -57.345887 
L -32.288879 -60.582976 
L -29.230878 -61.862839 
L -29.587359 -64.79393 
L -32.162941 -65.950499 
L -32.154824 -66.830183 
L -30.268827 -67.229178 
L -29.486813 -68.875359 
L -26.212479 -69.206607 
L -25.154721 -70.20364 
L -22.925961 -70.30495 
L -20.242719 -68.113611 
L -17.633609 -69.189084 
L -15.620622 -68.934539 
L -15.343934 -67.987592 
L -16.060453 -67.206274 
L -13.498236 -63.71932 
L -4.885532 -60.457417 
L -6.033893 -57.846295 
L -9.64131 -57.38874 
L -10.361839 -58.677687 
L -10.465795 -57.632016 
L -14.16118 -58.731015 
L -16.36274 -57.419612 
L -20.461165 -57.627808 
L -22.782678 -54.34345 
L -28.723608 -51.490914 
L -32.043134 -48.550889 
L -31.745652 -48.018941 
L -33.89123 -46.890002 
L -32.76606 -48.90319 
L -33.28586 -50.064887 
L -27.292957 -53.17567 
L -27.67201 -53.849389 
L -30.470135 -53.13637 
L -34.910832 -53.849389 
z
" clip-path="url(#pef78efdc7f)" style="fill: #eeeeee; stroke: #000000; stroke-width: 0.3"/>
    <path d="M -38.74777 -47.704538 
L -36.166352 -49.045893 
L -35.534597 -47.82805 
L -37.738555 -47.370956 
z
" clip-path="url(#pef78efdc7f)" style="fill: #eeeeee; stroke: #000000; stroke-width: 0.3"/>
    <path d="M -19.913379 -51.73327 
L -19.644679 -52.06545 
L -19.160069 -51.421672 
z
" clip-path="url(#pef78efdc7f)" style="fill: #eeeeee; stroke: #000000; stroke-width: 0.3"/>
    <path d="M -20.439576 -53.602364 
L -18.41235 -53.442357 
L -19.669472 -52.886068 
z
" clip-path="url(#pef78efdc7f)" style="fill: #eeeeee; stroke: #000000; stroke-width: 0.3"/>
    <path d="M -35.654551 -44.34719 
L -35.397054 -44.473979 
L -34.702114 -43.78061 
z
" clip-path="url(#pef78efdc7f)" style="fill: #eeeeee; stroke: #000000; stroke-width: 0.3"/>
    <path d="M 90.091745 29.959039 
L 108.91915 18.923042 
L 111.619657 18.11406 
L 113.967752 13.615229 
L 113.939313 8.442299 
L 115.532811 3.702525 
L 114.286656 -0.955245 
L 114.682738 -4.340889 
L 115.748112 -6.198887 
L 120.252348 -7.365851 
L 125.297904 -13.024229 
L 127.302724 -13.445508 
L 128.820045 -15.844801 
L 132.742338 -16.026919 
L 139.567753 -14.055722 
L 142.305837 -15.337368 
L 143.750038 -14.482048 
L 143.209731 -12.766948 
L 144.239562 -11.405093 
L 147.43772 -13.81033 
L 150.160573 -11.942823 
L 149.609102 -9.367057 
L 151.718517 -7.942802 
L 151.182789 -6.398529 
L 152.09024 -5.008146 
L 153.614665 -4.895258 
L 154.414966 -0.19291 
L 156.573653 -0.192324 
L 158.627724 1.911664 
L 161.687759 1.379878 
L 164.308041 1.997831 
L 161.131208 3.483866 
L 160.740196 5.55459 
L 162.274782 7.574205 
L 162.578455 9.953296 
L 160.241022 10.232562 
L 159.622003 12.308035 
L 157.819297 13.45659 
L 157.432353 14.446482 
L 158.161047 16.395994 
L 156.18721 15.931345 
L 156.214636 17.052557 
L 155.365585 17.625346 
L 156.746307 19.147634 
L 156.618334 21.130709 
L 155.005036 23.038631 
L 156.04096 23.439995 
L 158.485543 27.527954 
L 159.973413 26.978334 
L 160.385749 27.898721 
L 159.645371 28.548455 
L 160.842776 28.589457 
L 162.62009 31.240685 
L 162.73689 32.29714 
L 161.391712 33.017575 
L 162.277327 33.523525 
L 162.047286 34.757937 
L 165.804029 35.476889 
L 171.810866 40.274302 
L 173.527756 40.157838 
L 174.957738 41.185767 
L 175.7489 44.021792 
L 179.120724 47.964772 
L 177.59223 52.539364 
L 177.533329 57.289831 
L 180.867576 57.354588 
L 180.880783 63.393243 
L 183.751409 65.130029 
L 185.20017 68.710554 
L 186.242874 69.340937 
L 181.918132 68.209663 
L 180.442701 68.680326 
L 180.272367 67.711394 
L 180.106827 67.495713 
L 180.236381 68.795422 
L 177.545514 67.597655 
L 172.857451 68.333256 
L 169.480547 75.113445 
L 166.326059 79.124149 
L 148.239043 77.904306 
L 122.528335 56.31062 
L 106.301913 46.644504 
L 93.745918 44.372357 
L 95.176912 42.919287 
L 94.624419 41.673596 
L 92.590148 41.955529 
L 92.09352 40.269542 
L 92.869441 40.020885 
z
" clip-path="url(#pef78efdc7f)" style="fill: #eeeeee; stroke: #000000; stroke-width: 0.3"/>
    <path d="M 48.802712 90.426373 
L 51.072764 85.662096 
L 52.50362 76.181318 
L 63.510161 77.925094 
L 67.515735 74.537978 
L 69.988745 70.411098 
L 77.274735 68.789581 
L 79.017528 64.922661 
L 82.297945 62.991581 
L 72.256605 51.583322 
L 91.948282 45.796015 
L 93.857637 44.335517 
L 105.772788 46.438321 
L 122.528335 56.31062 
L 148.239043 77.904306 
L 175.180154 80.285777 
L 177.486102 85.588831 
L 185.607926 85.972361 
L 185.353622 87.272069 
L 186.009364 87.036267 
L 187.155326 91.193191 
L 188.530004 91.642341 
L 188.054985 92.167746 
L 189.420858 93.715411 
L 189.340888 94.368548 
L 188.993821 94.84389 
L 188.731529 93.693898 
L 188.40045 94.947752 
L 189.396075 95.315495 
L 188.921055 96.178691 
L 192.92992 96.953466 
L 193.647245 98.062755 
L 191.751166 98.148841 
L 193.166624 98.462302 
L 192.769176 99.412055 
L 193.647245 99.254853 
L 193.744008 100.855869 
L 194.626067 100.875519 
L 194.25741 101.50712 
L 196.195862 100.988741 
L 197.447392 103.70138 
L 201.957662 107.074641 
L 200.287104 106.389689 
L 200.701346 109.032155 
L 202.528638 110.99482 
L 201.789724 114.305854 
L 200.718935 112.407279 
L 200.302296 114.698859 
L 201.396276 114.840147 
L 202.930892 118.951689 
L 201.822516 117.785312 
L 201.861695 118.17036 
L 205.034087 121.190388 
L 205.92494 125.586852 
L 210.01968 131.187683 
L 212.868678 130.534914 
L 213.198951 131.76913 
L 214.111404 130.456313 
L 215.123822 131.005577 
L 212.967043 134.176725 
L 215.821956 134.769968 
L 216.059515 136.814856 
L 225.541768 149.919795 
L 250.568453 153.57192 
L 251.369776 152.621822 
L 255.798858 160.953412 
L 249.321286 183.760422 
L 219.843684 195.256009 
L 190.92619 200.038268 
L 182.338692 204.991653 
L 176.708648 212.875233 
L 175.122265 217.146196 
L 172.506051 218.806335 
L 170.629203 218.698195 
L 168.071889 215.035665 
L 164.264362 215.625689 
L 155.496594 214.614398 
L 152.892565 213.276298 
L 142.905046 213.54725 
L 140.606723 214.731449 
L 135.671364 212.223418 
L 133.23592 214.454563 
L 134.092085 215.074885 
L 132.777881 217.210366 
L 132.721004 219.236524 
L 133.692446 220.537773 
L 133.382681 222.05828 
L 132.448826 221.966778 
L 131.970475 223.533633 
L 129.545389 225.434795 
L 128.788079 221.299395 
L 125.292617 216.104308 
L 125.354191 217.916785 
L 124.750422 212.9865 
L 119.700356 208.617631 
L 116.808662 204.12901 
L 116.243286 201.300332 
L 114.026535 198.67893 
L 114.407985 197.112535 
L 113.302007 195.935867 
L 113.695456 194.43124 
L 112.635063 193.764075 
L 111.41713 189.391469 
L 109.606621 188.206857 
L 109.453886 186.271798 
L 108.586214 186.472969 
L 107.386676 184.14678 
L 102.957968 180.497025 
L 101.181852 180.163442 
L 101.551304 180.727676 
L 99.776791 179.674061 
L 94.020592 170.957859 
L 93.100947 168.58769 
L 93.988606 167.563085 
L 93.379237 163.61155 
L 91.632002 160.64178 
L 92.363487 160.688554 
L 93.710306 156.075294 
L 92.997924 156.505287 
L 92.435595 151.894982 
L 90.338001 149.228657 
L 90.326003 147.493366 
L 86.928905 140.198995 
L 81.84533 136.11713 
L 81.96943 135.3348 
L 81.160541 135.992019 
L 76.873857 133.492117 
L 77.14179 132.641926 
L 74.114616 127.930346 
L 75.175805 127.69782 
L 75.034262 124.201989 
L 72.028215 118.787933 
L 69.729096 117.249145 
L 69.667522 114.463056 
L 67.865808 113.443118 
L 63.142016 104.292749 
L 54.608486 91.615665 
L 55.126684 91.097746 
L 53.511303 90.348243 
L 51.083435 90.90452 
L 50.143793 90.112441 
L 49.533627 90.583574 
L 49.741549 90.90452 
L 49.198559 91.375654 
z
" clip-path="url(#pef78efdc7f)" style="fill: #eeeeee; stroke: #000000; stroke-width: 0.3"/>
    <path d="M 119.400418 219.393542 
L 120.85533 221.104353 
L 122.131289 221.470084 
L 122.398525 220.33842 
L 123.619514 221.587882 
L 123.54209 222.991177 
L 122.630119 221.725893 
L 121.349747 221.995063 
z
" clip-path="url(#pef78efdc7f)" style="fill: #eeeeee; stroke: #000000; stroke-width: 0.3"/>
    <path d="M 120.165785 219.447617 
L 121.084625 218.72057 
L 120.276138 218.231189 
L 120.420079 218.045449 
L 121.179796 218.513777 
L 121.805586 220.95021 
z
" clip-path="url(#pef78efdc7f)" style="fill: #eeeeee; stroke: #000000; stroke-width: 0.3"/>
    <path d="M 67.657091 118.800098 
L 68.169687 118.135739 
L 68.045734 118.805709 
L 69.388426 119.896291 
L 68.128111 119.442933 
z
" clip-path="url(#pef78efdc7f)" style="fill: #eeeeee; stroke: #000000; stroke-width: 0.3"/>
    <path d="M 72.128977 121.136577 
L 72.18096 120.841835 
L 72.647175 120.81984 
L 72.918272 121.392502 
z
" clip-path="url(#pef78efdc7f)" style="fill: #eeeeee; stroke: #000000; stroke-width: 0.3"/>
    <path d="M 69.523572 119.853713 
L 69.957811 119.718967 
L 71.466829 121.119744 
L 69.895432 119.828452 
z
" clip-path="url(#pef78efdc7f)" style="fill: #eeeeee; stroke: #000000; stroke-width: 0.3"/>
    <path d="M 68.158495 116.996509 
L 68.31524 116.600699 
L 68.633515 116.32279 
L 68.832641 118.059943 
z
" clip-path="url(#pef78efdc7f)" style="fill: #eeeeee; stroke: #000000; stroke-width: 0.3"/>
    <path d="M 195.057102 99.882717 
L 196.323815 99.262338 
L 197.342631 99.568325 
z
" clip-path="url(#pef78efdc7f)" style="fill: #eeeeee; stroke: #000000; stroke-width: 0.3"/>
    <path d="M 71.653957 119.370886 
L 71.8131 119.242222 
L 71.899466 120.244843 
z
" clip-path="url(#pef78efdc7f)" style="fill: #eeeeee; stroke: #000000; stroke-width: 0.3"/>
    <path d="M 70.954222 119.92576 
L 71.094969 119.663293 
L 71.342876 119.806928 
z
" clip-path="url(#pef78efdc7f)" style="fill: #eeeeee; stroke: #000000; stroke-width: 0.3"/>
    <path d="M 70.458419 120.509656 
L 71.713929 121.685852 
L 71.669149 122.06622 
z
" clip-path="url(#pef78efdc7f)" style="fill: #eeeeee; stroke: #000000; stroke-width: 0.3"/>
    <path d="M 52.50362 76.181318 
L 54.42857 67.308294 
L 54.376774 63.780648 
L 57.309858 56.036103 
L 56.889396 54.266043 
L 58.498115 48.428823 
L 58.138597 45.06576 
L 59.012519 37.890244 
L 61.802921 37.52948 
L 63.478677 39.78261 
L 70.753494 42.131404 
L 90.091745 29.959039 
L 92.869441 40.020885 
L 92.09352 40.269542 
L 92.590148 41.955529 
L 94.624419 41.673596 
L 95.176912 42.919287 
L 91.948282 45.796015 
L 72.256605 51.583322 
L 82.297945 62.991581 
L 79.017528 64.922661 
L 77.274735 68.789581 
L 69.988745 70.411098 
L 67.515735 74.537978 
L 62.989153 78.040961 
z
" clip-path="url(#pef78efdc7f)" style="fill: #eeeeee; stroke: #000000; stroke-width: 0.3"/>
    <path d="M -48.32487 66.625584 
L -46.172787 62.993363 
L -45.315619 59.699818 
L -46.74966 53.220292 
L -44.396485 50.174519 
L -43.782634 49.680607 
L -43.389186 51.117868 
L -41.316384 51.443493 
L -35.764914 50.139105 
L -22.4612 52.848007 
L -21.226473 54.662359 
L -19.123278 55.15642 
L -17.231208 54.465856 
L -16.503487 56.090259 
L -11.615757 56.269457 
L -5.682826 59.217427 
L -1.013415 57.726827 
L 4.551655 53.394465 
L 5.491288 54.73628 
L 6.705232 54.492992 
L 5.631239 54.029343 
L 6.941936 53.197963 
L 7.247416 51.502916 
L 7.450543 51.938486 
L 7.784816 52.131251 
L 7.426556 51.379403 
L 9.133099 51.895449 
L 13.437854 50.482518 
L 9.200274 52.601914 
L 11.084355 52.766129 
L 14.865301 51.559061 
L 13.478634 50.510585 
L 14.651788 50.23923 
L 19.166056 52.131251 
L 22.286466 51.070611 
L 22.665518 51.078567 
L 22.978998 51.239046 
L 25.482039 53.836118 
L 22.435201 51.111314 
L 22.129721 53.158662 
L 21.230869 53.955893 
L 22.798266 55.07875 
L 23.885849 54.73628 
L 23.679529 55.756206 
L 24.567189 56.615204 
L 26.306523 55.658897 
L 26.301728 54.178588 
L 25.555611 53.836118 
L 26.777543 54.107944 
L 29.432524 56.527704 
L 32.632902 55.441814 
L 30.070685 56.627358 
L 30.707235 56.783157 
L 32.631301 55.94336 
L 33.445388 56.581515 
L 33.979584 55.677616 
L 33.645311 56.070149 
L 32.9 55.999493 
L 34.422618 54.970208 
L 34.65772 56.705027 
L 37.341493 55.441814 
L 38.256343 55.756206 
L 39.714989 55.880661 
L 45.142329 53.615401 
L 51.887923 74.590306 
L 50.412492 76.646082 
L 49.31131 83.260653 
L 47.204921 88.043568 
L 47.448022 92.00399 
L 45.278458 94.12058 
L 45.703096 94.84389 
L 40.848954 91.447241 
L 35.594965 85.176072 
L 35.095959 80.344969 
L 30.547297 74.982379 
L 29.199013 68.595642 
L 26.839117 73.412706 
L 29.232601 75.98078 
L 29.667636 80.538654 
L 31.450149 82.775951 
L 32.059518 85.066588 
L 38.795344 92.913511 
L 39.165601 94.123385 
L 38.000447 93.756114 
L 39.165601 95.786158 
L 38.225163 95.786158 
L 41.586276 100.431992 
L 41.570278 101.832758 
L 43.136074 104.410651 
L 42.665859 105.164373 
L 42.598685 107.205167 
L 48.545205 117.880757 
L 54.421495 131.964034 
L 57.853664 136.463302 
L 60.258665 137.907266 
L 60.788949 138.83891 
L 58.05117 137.978543 
L 57.75582 138.660735 
L 57.810456 143.498795 
L 58.381443 144.683419 
L 59.833505 149.993946 
L 61.707042 152.252526 
L 65.049288 153.405232 
L 67.149614 156.613197 
L 71.626236 159.951205 
L 71.510813 160.760888 
L 17.973712 160.765062 
L 18.527217 158.719898 
L 17.853866 158.101945 
L 16.135453 160.776353 
L -45.449674 160.765062 
L -45.449674 78.139603 
z
M 55.085107 151.671091 
L 59.104192 147.611923 
L 57.218657 149.462689 
z
M 50.815139 154.965269 
L 51.313035 153.733537 
L 51.644448 152.890819 
z
M 44.623552 158.505632 
L 49.87699 157.286191 
L 47.328668 157.846205 
z
" clip-path="url(#pef78efdc7f)" style="fill: #eeeeee; stroke: #000000; stroke-width: 0.3"/>
    <path d="M 47.984625 91.768659 
L 48.430047 91.628302 
L 49.271325 92.638868 
L 48.265313 92.523312 
z
" clip-path="url(#pef78efdc7f)" style="fill: #eeeeee; stroke: #000000; stroke-width: 0.3"/>
    <path d="M 42.32519 97.199088 
L 43.454359 97.448918 
L 43.678268 97.991639 
L 42.523511 97.533142 
z
" clip-path="url(#pef78efdc7f)" style="fill: #eeeeee; stroke: #000000; stroke-width: 0.3"/>
    <path d="M 32.706474 55.5279 
L 34.377032 54.465856 
L 35.740507 54.70727 
L 34.355443 54.621655 
z
" clip-path="url(#pef78efdc7f)" style="fill: #eeeeee; stroke: #000000; stroke-width: 0.3"/>
    <path d="M 49.873894 92.197951 
L 50.366297 92.215911 
L 50.09914 92.776707 
z
" clip-path="url(#pef78efdc7f)" style="fill: #eeeeee; stroke: #000000; stroke-width: 0.3"/>
    <path d="M 42.733034 105.635507 
L 42.934559 105.635507 
L 43.209646 106.576372 
z
" clip-path="url(#pef78efdc7f)" style="fill: #eeeeee; stroke: #000000; stroke-width: 0.3"/>
    <path d="M 35.99881 54.73628 
L 36.282702 54.782134 
L 38.024434 55.599015 
z
" clip-path="url(#pef78efdc7f)" style="fill: #eeeeee; stroke: #000000; stroke-width: 0.3"/>
    <path d="M 33.050338 56.233422 
L 33.219877 56.267111 
L 33.242262 56.384541 
z
" clip-path="url(#pef78efdc7f)" style="fill: #eeeeee; stroke: #000000; stroke-width: 0.3"/>
    <path d="M 30.503814 9.220673 
L 32.292232 9.223973 
L 32.565727 6.662913 
L 39.836545 7.105049 
L 48.997034 3.280304 
L 42.699447 7.654772 
L 42.19084 9.345623 
L 43.295118 10.50302 
L 41.95788 9.868337 
L 40.876252 10.873085 
L 38.660699 10.396559 
L 38.033052 11.205242 
L 37.411498 8.943788 
L 31.922112 10.326444 
z
" clip-path="url(#pef78efdc7f)" style="fill: #eeeeee; stroke: #000000; stroke-width: 0.3"/>
    <path d="M 29.444021 9.231964 
L 29.607654 9.110751 
L 29.674564 9.338321 
z
" clip-path="url(#pef78efdc7f)" style="fill: #eeeeee; stroke: #000000; stroke-width: 0.3"/>
    <path d="M 30.316685 9.124285 
L 31.922112 10.326444 
L 37.411498 8.943788 
L 37.932506 11.1779 
L 38.660699 10.396559 
L 40.33899 11.402503 
L 38.453514 10.729302 
L 37.85633 11.492223 
L 37.434856 9.392983 
L 31.637749 10.558774 
L 30.524637 9.698395 
z
" clip-path="url(#pef78efdc7f)" style="fill: #eeeeee; stroke: #000000; stroke-width: 0.3"/>
    <path d="M 42.494119 10.64908 
L 43.295118 10.50302 
L 43.390161 10.581046 
z
" clip-path="url(#pef78efdc7f)" style="fill: #eeeeee; stroke: #000000; stroke-width: 0.3"/>
    <path d="M 29.26779 9.252983 
L 29.674564 9.338321 
L 29.75074 9.464881 
z
" clip-path="url(#pef78efdc7f)" style="fill: #eeeeee; stroke: #000000; stroke-width: 0.3"/>
    <path d="M 30.990331 15.04114 
L 31.968946 14.679319 
L 33.645311 16.197399 
L 32.767252 16.197399 
L 32.498552 15.184015 
z
" clip-path="url(#pef78efdc7f)" style="fill: #eeeeee; stroke: #000000; stroke-width: 0.3"/>
   </g>
   <g id="PatchCollection_2">
    <defs>
     <path id="m59825e08f9" d="M 52.50362 -31.818682 
L 54.42857 -40.691706 
L 54.376774 -44.219352 
L 57.309858 -51.963897 
L 56.889396 -53.733957 
L 58.498115 -59.571177 
L 58.138597 -62.93424 
L 59.012519 -70.109756 
L 61.802921 -70.47052 
L 63.478677 -68.21739 
L 70.753494 -65.868596 
L 90.091745 -78.040961 
L 92.869441 -67.979115 
L 92.09352 -67.730458 
L 92.590148 -66.044471 
L 94.624419 -66.326404 
L 95.176912 -65.080713 
L 91.948282 -62.203985 
L 72.256605 -56.416678 
L 82.297945 -45.008419 
L 79.017528 -43.077339 
L 77.274735 -39.210419 
L 69.988745 -37.588902 
L 67.515735 -33.462022 
L 62.989153 -29.959039 
z
" style="stroke: #dd0000; stroke-width: 0.5"/>
    </defs>
    <g clip-path="url(#pef78efdc7f)">
     <use xlink:href="#m59825e08f9" x="0" y="108" style="fill: #ff6b6b; stroke: #dd0000; stroke-width: 0.5"/>
    </g>
   </g>
  </g>
 </g>
 <defs>
  <clipPath id="pef78efdc7f">
   <rect x="0" y="0" width="147.680533" height="108"/>
  </clipPath>
 </defs>
</svg>
