<?xml version="1.0" encoding="utf-8" standalone="no"?>
<!DOCTYPE svg PUBLIC "-//W3C//DTD SVG 1.1//EN"
  "http://www.w3.org/Graphics/SVG/1.1/DTD/svg11.dtd">
<svg xmlns:xlink="http://www.w3.org/1999/xlink" width="172.799181pt" height="108pt" viewBox="0 0 172.799181 108" xmlns="http://www.w3.org/2000/svg" version="1.1">
 <metadata>
  <rdf:RDF xmlns:dc="http://purl.org/dc/elements/1.1/" xmlns:cc="http://creativecommons.org/ns#" xmlns:rdf="http://www.w3.org/1999/02/22-rdf-syntax-ns#">
   <cc:Work>
    <dc:type rdf:resource="http://purl.org/dc/dcmitype/StillImage"/>
    <dc:date>2025-09-05T13:56:18.828651</dc:date>
    <dc:format>image/svg+xml</dc:format>
    <dc:creator>
     <cc:Agent>
      <dc:title>Matplotlib v3.10.3, https://matplotlib.org/</dc:title>
     </cc:Agent>
    </dc:creator>
   </cc:Work>
  </rdf:RDF>
 </metadata>
 <defs>
  <style type="text/css">*{stroke-linejoin: round; stroke-linecap: butt}</style>
 </defs>
 <g id="figure_1">
  <g id="patch_1">
   <path d="M 0 108 
L 172.799181 108 
L 172.799181 0 
L 0 0 
z
" style="fill: #ffffff"/>
  </g>
  <g id="axes_1">
   <g id="PatchCollection_1">
    <path d="M 56.118185 6.157579 
L 57.325469 4.77415 
L 57.181741 3.411797 
L 57.634637 2.830029 
L 60.015662 2.798731 
L 60.761113 3.377304 
L 62.919529 2.206585 
L 62.798694 -3.344071 
L 64.375937 -8.096732 
L 64.08913 -10.210126 
L 65.914107 -12.179477 
L 67.024294 -10.943281 
L 67.544255 -11.221474 
L 68.284594 -12.298607 
L 68.197721 -14.46071 
L 68.994272 -16.288409 
L 68.99172 -17.956575 
L 70.503697 -19.222636 
L 72.792422 -23.150472 
L 75.433753 -23.413652 
L 75.569174 -25.457101 
L 77.141201 -28.960951 
L 77.976077 -33.065891 
L 79.346249 -33.489561 
L 81.275342 -33.148135 
L 81.651581 -34.038109 
L 82.718975 -34.264398 
L 84.325489 -32.089204 
L 86.413002 -36.873163 
L 87.125239 -35.914362 
L 88.501158 -35.638246 
L 89.721853 -34.015594 
L 92.436645 -34.488288 
L 93.324538 -35.462107 
L 94.052102 -35.159168 
L 94.550987 -34.157721 
L 96.44751 -34.946612 
L 98.779036 -34.073561 
L 100.091073 -34.317099 
L 104.594432 -32.092078 
L 106.812255 -29.062998 
L 110.024653 -26.788947 
L 111.475943 -24.491267 
L 112.948958 -23.606719 
L 114.151131 -21.955642 
L 110.522895 -17.249453 
L 110.330626 -12.872069 
L 111.419732 -12.461817 
L 115.610734 -13.449684 
L 117.514914 -12.888039 
L 115.806199 -10.622455 
L 116.974514 -8.001075 
L 118.404729 -6.236134 
L 119.143474 -5.993881 
L 120.576241 -3.087121 
L 121.827598 -2.616664 
L 124.072893 -0.585829 
L 142.580093 5.66732 
L 148.760232 5.66732 
L 139.147959 14.937094 
L 129.986023 24.734817 
L 123.975161 24.47228 
L 121.252705 25.166949 
L 118.723477 26.365134 
L 116.945769 28.499771 
L 112.441773 29.182301 
L 110.791822 30.680713 
L 106.632761 30.722555 
L 104.165177 28.607245 
L 98.508193 31.188544 
L 96.381712 34.056014 
L 90.229681 32.526459 
L 87.71355 32.762327 
L 81.000031 28.077856 
L 74.97831 27.626083 
L 74.354863 27.228285 
L 73.187827 25.0879 
L 73.512323 22.222184 
L 71.442696 21.525439 
L 70.319091 21.875647 
L 70.161315 21.023999 
L 69.152049 20.340511 
L 68.384243 18.853274 
L 66.710015 13.774039 
L 65.604939 13.35404 
L 65.474629 12.506385 
L 64.096794 11.94969 
L 63.482932 10.793187 
L 62.569483 10.279929 
L 62.402127 9.29302 
L 60.606847 7.765065 
L 56.541693 6.894727 
z
" clip-path="url(#p7114080d59)" style="fill: #eeeeee; stroke: #000000; stroke-width: 0.3"/>
    <path d="M 1.404307 2.93367 
L 2.105042 2.06366 
L 1.650236 1.258798 
L 4.007634 0.165527 
L 4.760427 -2.841994 
L 5.454771 -3.750813 
L 5.478727 -5.59544 
L 6.590515 -6.513202 
L 7.212683 -8.487985 
L 11.857527 -9.308014 
L 12.333093 -7.835313 
L 16.78503 -3.505204 
L 19.594996 -4.284991 
L 24.630133 -4.214403 
L 25.557446 -2.58272 
L 30.494016 -2.54031 
L 30.926603 -3.804145 
L 34.444899 -5.242036 
L 35.253267 -6.186313 
L 35.262847 -7.074371 
L 37.719893 -8.386735 
L 42.369527 -5.010958 
L 44.836159 -5.256412 
L 47.929099 -8.039086 
L 49.647722 -10.76666 
L 52.662739 -13.403534 
L 52.15619 -14.796549 
L 52.153631 -17.241468 
L 50.508792 -19.074914 
L 54.615467 -19.092962 
L 54.523482 -20.412038 
L 57.474302 -20.376265 
L 56.695637 -16.598697 
L 57.046641 -11.282636 
L 58.537858 -10.706294 
L 61.848625 -7.793632 
L 62.196439 -5.817896 
L 61.628889 -3.619866 
L 62.798694 -3.344071 
L 63.053034 1.77365 
L 62.181112 2.893429 
L 60.828184 3.36676 
L 60.015662 2.798731 
L 57.634637 2.830029 
L 57.181741 3.411797 
L 57.325469 4.77415 
L 56.118185 6.157579 
L 56.541693 6.894727 
L 60.606847 7.765065 
L 62.402127 9.29302 
L 62.569483 10.279929 
L 63.482932 10.793187 
L 64.096794 11.94969 
L 65.474629 12.506385 
L 65.604939 13.35404 
L 66.710015 13.774039 
L 68.384243 18.853274 
L 69.152049 20.340511 
L 70.161315 21.023999 
L 70.319091 21.875647 
L 71.442696 21.525439 
L 73.512323 22.222184 
L 73.187827 25.0879 
L 74.233496 26.540476 
L 73.112147 26.15855 
L 72.870878 26.727259 
L 72.316337 26.536261 
L 71.769602 25.544611 
L 72.070322 24.779138 
L 70.990468 24.642449 
L 71.086149 24 
L 70.060974 24.300721 
L 64.717682 26.535371 
L 59.213685 31.914993 
L 57.197711 31.832748 
L 56.164175 31.075798 
L 54.675832 31.795857 
L 52.298632 32.030452 
L 51.1613 32.722086 
L 51.038975 33.382897 
L 49.568197 32.850641 
L 48.627918 31.502818 
L 47.057171 32.493881 
L 44.694668 31.696368 
L 43.476847 32.350474 
L 42.828486 33.519116 
L 42.256145 32.377786 
L 41.060364 32.812631 
L 40.885974 31.186943 
L 38.809963 30.639674 
L 37.209191 28.460642 
L 36.328325 28.088876 
L 36.383257 26.93173 
L 34.765884 26.284806 
L 34.287438 26.230194 
L 32.826883 28.262624 
L 29.947609 26.944344 
L 27.487689 28.62002 
L 25.586061 27.777791 
L 25.365361 26.968782 
L 23.872229 26.6858 
L 23.749583 25.561873 
L 22.278484 24.667103 
L 20.732656 22.579902 
L 20.711574 20.6179 
L 19.86328 19.436476 
L 17.978896 18.658451 
L 17.715723 18.119161 
L 15.543253 17.559432 
L 16.063214 16.737327 
L 14.587646 15.129204 
L 15.253888 13.969505 
L 13.481291 12.875277 
L 13.078865 11.847167 
L 8.962282 9.752617 
L 7.914054 8.728977 
L 7.758194 8.242549 
L 8.46404 7.750689 
L 8.077578 6.48623 
L 7.102812 6.288211 
L 5.502046 4.531892 
L 1.501403 3.681362 
z
" clip-path="url(#p7114080d59)" style="fill: #eeeeee; stroke: #000000; stroke-width: 0.3"/>
    <path d="M 105.500212 60.472478 
L 105.500212 37.526008 
L 107.743591 35.305622 
L 111.332858 29.932224 
L 112.228421 29.289454 
L 116.945769 28.499771 
L 118.723477 26.365134 
L 123.748392 24.526416 
L 129.986023 24.734817 
L 139.414018 14.680256 
L 148.760232 5.66732 
L 154.69317 -3.323311 
L 154.693176 -14.435296 
L 162.908375 -16.537738 
L 165.21249 -18.79433 
L 166.181224 -19.008832 
L 169.239554 -18.044599 
L 167.933061 -15.006181 
L 167.961732 -14.057318 
L 168.601762 -13.750343 
L 168.141795 -12.854461 
L 168.42346 -10.413775 
L 167.492965 -9.397514 
L 168.792641 -9.447057 
L 168.519023 -10.193476 
L 169.872903 -9.675614 
L 169.88734 -9.161207 
L 167.987388 -9.232407 
L 166.981756 -8.741245 
L 166.381899 -3.127943 
L 163.967635 0.156726 
L 161.812903 4.650799 
L 160.163657 6.054605 
L 159.668733 8.185954 
L 156.598092 12.997157 
L 155.292878 17.115762 
L 148.570664 27.543165 
L 136.822249 39.916835 
L 127.56656 45.454579 
L 122.059022 50.115638 
L 111.632415 61.269595 
L 111.514219 60.618747 
L 111.097758 62.566762 
L 110.749702 62.314775 
L 110.795975 62.892187 
L 108.932463 65.57455 
L 108.856974 64.811055 
z
" clip-path="url(#p7114080d59)" style="fill: #eeeeee; stroke: #000000; stroke-width: 0.3"/>
    <path d="M 61.703945 54.41176 
L 62.888231 52.945772 
L 63.286188 51.359683 
L 64.75984 50.048276 
L 65.371785 48.400234 
L 67.293221 47.476557 
L 67.176323 46.508492 
L 68.373384 44.866358 
L 68.582267 43.243223 
L 67.711617 40.581602 
L 68.06997 39.779293 
L 67.773577 39.075366 
L 65.044094 35.423794 
L 64.718319 33.601522 
L 65.07923 32.421859 
L 63.304074 31.754978 
L 63.62857 31.143667 
L 62.885678 31.126417 
L 62.220074 29.01047 
L 64.717682 26.535371 
L 71.086149 24 
L 70.990468 24.642449 
L 72.070322 24.779138 
L 71.769602 25.544611 
L 72.316337 26.536261 
L 73.112147 26.15855 
L 74.233496 26.540476 
L 74.97831 27.626083 
L 81.000031 28.077856 
L 87.71355 32.762327 
L 90.229681 32.526459 
L 96.381712 34.056014 
L 98.508193 31.188544 
L 104.165177 28.607245 
L 106.632761 30.722555 
L 111.095236 30.509042 
L 107.743591 35.305622 
L 105.411422 37.697518 
L 105.500212 60.472478 
L 108.856974 64.811055 
L 108.932463 65.57455 
L 107.372748 67.256999 
L 106.978925 66.972317 
L 105.705399 67.713699 
L 105.663149 66.844559 
L 105.287429 67.903825 
L 104.76635 67.225812 
L 105.497171 68.947997 
L 105.284413 69.363453 
L 104.778927 68.881605 
L 104.228169 69.177351 
L 104.493739 69.910691 
L 103.465666 70.784861 
L 102.478835 70.717963 
L 100.879385 71.586602 
L 100.449846 73.225794 
L 100.884416 73.520031 
L 100.204399 75.284466 
L 99.377514 75.938837 
L 99.23517 75.617437 
L 98.616513 77.442224 
L 98.090909 77.133902 
L 98.623052 77.927094 
L 98.124612 79.300714 
L 97.490361 79.300714 
L 97.870611 79.619099 
L 97.587438 80.11201 
L 97.346509 79.632171 
L 96.728859 80.058697 
L 97.379705 80.505334 
L 95.712857 83.700231 
L 95.121363 83.489988 
L 94.442352 84 
L 85.668194 77.683055 
L 85.281096 76.890332 
L 84.605912 76.805375 
L 84.520318 76.184483 
L 85.229996 75.575087 
L 84.888893 73.916186 
L 61.769736 61.286919 
L 62.074436 56.044475 
z
" clip-path="url(#p7114080d59)" style="fill: #eeeeee; stroke: #000000; stroke-width: 0.3"/>
    <path d="M 105.435304 68.19203 
L 105.958899 67.757957 
L 106.585096 68.144242 
L 105.586195 68.670354 
z
" clip-path="url(#p7114080d59)" style="fill: #eeeeee; stroke: #000000; stroke-width: 0.3"/>
    <path d="M 33.460225 85.499771 
L 33.957194 82.592696 
L 35.988495 82.676374 
L 37.658249 81.493362 
L 39.566267 78.514104 
L 39.998081 78.504518 
L 40.311402 77.042998 
L 42.582563 75.329157 
L 42.783133 74.699965 
L 42.741619 73.499703 
L 40.658574 73.283156 
L 40.209517 72.715281 
L 40.869367 71.465197 
L 40.18684 71.593592 
L 40.779941 70.316036 
L 42.796551 69.585916 
L 43.126795 67.961501 
L 42.565313 67.014833 
L 42.775791 64.943281 
L 42.198017 63.78454 
L 41.071859 63.239026 
L 40.612579 61.63633 
L 41.586715 61.724484 
L 42.442667 61.183439 
L 62.361879 61.286919 
L 84.888893 73.916186 
L 85.229996 75.575087 
L 84.520318 76.184483 
L 84.605912 76.805375 
L 85.281096 76.890332 
L 85.668194 77.683055 
L 94.59375 84.068907 
L 94.584189 85.105539 
L 93.935859 85.477738 
L 93.786476 86.288533 
L 94.146602 86.585792 
L 91.898823 92.512837 
L 92.739293 94.872792 
L 93.516882 95.079513 
L 94.995119 96.667907 
L 94.996627 97.306685 
L 96.135357 97.474678 
L 96.686616 98.358904 
L 96.648389 99.085199 
L 95.290363 100.265683 
L 94.825619 103.442966 
L 95.290363 102.843422 
L 96.005591 103.500309 
L 96.072482 104.599309 
L 94.995119 106.446229 
L 95.454332 108.947515 
L 96.686616 110.235133 
L 96.041802 109.841809 
L 95.666583 110.090273 
L 96.304357 110.33472 
L 96.345599 111.48301 
L 96.782179 111.290374 
L 97.2434 111.88388 
L 96.771109 113.481329 
L 97.286157 113.464227 
L 97.843448 114.836339 
L 97.571845 115.319194 
L 98.212628 115.80708 
L 97.533618 117.164106 
L 98.37509 116.836166 
L 99.352866 118.261592 
L 99.567132 117.717376 
L 100.264752 117.944721 
L 100.190313 118.571929 
L 100.879385 118.72936 
L 100.879385 118.134841 
L 101.600646 119.109105 
L 102.084005 118.750485 
L 102.144865 119.830369 
L 99.495098 121.909109 
L 96.345303 123.018665 
L 94.891454 124.10714 
L 92.623167 124.112888 
L 90.126201 125.631899 
L 88.669793 124.789355 
L 86.701095 124.831512 
L 85.952449 126.374158 
L 83.806165 127.523319 
L 81.778696 127.246727 
L 81.103512 126.567708 
L 79.791474 126.621367 
L 78.589939 127.534821 
L 75.956909 127.412174 
L 75.761444 126.653308 
L 73.64966 125.631899 
L 72.103826 126.816833 
L 68.323563 126.621367 
L 67.841285 125.396834 
L 67.093281 125.209669 
L 66.153645 123.707907 
L 66.533716 121.546286 
L 65.953069 120.231678 
L 65.677121 117.161714 
L 64.326752 115.160428 
L 62.440452 113.666331 
L 61.817005 115.152765 
L 60.721508 114.325548 
L 58.894294 114.556781 
L 58.037063 113.757673 
L 53.202502 112.311481 
L 52.617701 111.604359 
L 49.618018 111.097164 
L 49.609075 110.298693 
L 47.977647 110.177969 
L 47.151714 108.883163 
L 46.003838 108.163902 
L 44.301186 108.344034 
L 43.570105 107.937138 
L 40.369209 102.039945 
L 39.459591 99.277871 
L 38.201207 97.674545 
L 35.828803 96.001582 
L 34.707114 93.861679 
L 34.401784 92.186807 
L 35.244324 90.346494 
z
" clip-path="url(#p7114080d59)" style="fill: #eeeeee; stroke: #000000; stroke-width: 0.3"/>
    <path d="M 94.441345 91.643698 
L 94.995119 91.197061 
L 95.201839 90.433541 
L 95.838605 93.360851 
L 96.360686 93.386507 
L 96.345599 92.938856 
L 96.623241 94.159075 
L 96.40696 95.034246 
L 95.838605 94.036348 
L 95.75863 94.483492 
L 94.491642 93.5384 
z
" clip-path="url(#p7114080d59)" style="fill: #eeeeee; stroke: #000000; stroke-width: 0.3"/>
    <path d="M 97.238876 88.551917 
L 97.365626 87.768285 
L 98.090909 87.472534 
L 97.815283 87.476557 
L 97.281126 87.172765 
L 97.875636 87.261283 
L 97.492376 85.315276 
L 98.341894 85.955061 
L 98.554652 85.358033 
L 98.184464 88.507658 
z
" clip-path="url(#p7114080d59)" style="fill: #eeeeee; stroke: #000000; stroke-width: 0.3"/>
    <path d="M 96.893335 104.197932 
L 98.800099 102.295183 
L 98.78602 103.014938 
L 98.352456 104.003282 
L 97.15639 104.446903 
z
" clip-path="url(#p7114080d59)" style="fill: #eeeeee; stroke: #000000; stroke-width: 0.3"/>
    <path d="M 96.820955 88.431724 
L 97.295143 88.780275 
L 97.3423 88.934956 
L 97.067391 88.859733 
z
" clip-path="url(#p7114080d59)" style="fill: #eeeeee; stroke: #000000; stroke-width: 0.3"/>
    <path d="M 97.60797 105.099698 
L 97.607995 104.837711 
L 98.217962 104.575551 
z
" clip-path="url(#p7114080d59)" style="fill: #eeeeee; stroke: #000000; stroke-width: 0.3"/>
    <path d="M 94.589504 90.797834 
L 94.734438 91.284039 
L 94.589863 91.296765 
z
" clip-path="url(#p7114080d59)" style="fill: #eeeeee; stroke: #000000; stroke-width: 0.3"/>
    <path d="M 115.814499 -10.491508 
L 119.733781 -15.979184 
L 121.011331 -15.249873 
L 121.003284 -14.37218 
L 123.113751 -11.677753 
L 126.314975 -9.276895 
L 127.789615 -9.085755 
L 130.112624 -9.284855 
L 135.102088 -12.142245 
L 139.295364 -10.998733 
L 145.21735 -14.0367 
L 147.099472 -13.521403 
L 149.694807 -13.740195 
L 152.115103 -14.868867 
L 154.693176 -14.435296 
L 154.69317 -3.323311 
L 148.760232 5.66732 
L 142.580093 5.66732 
L 124.314348 -0.444981 
L 121.827598 -2.616664 
L 120.576241 -3.087121 
L 119.143474 -5.993881 
L 118.404729 -6.236134 
L 116.974514 -8.001075 
z
" clip-path="url(#p7114080d59)" style="fill: #eeeeee; stroke: #000000; stroke-width: 0.3"/>
    <path d="M -72.06896 91.115576 
L -72.009046 90.546428 
L -70.463848 90.48191 
L -70.329706 86.998659 
L -70.863085 86.333694 
L -69.413704 85.525322 
L -68.647178 84.385104 
L -67.02533 83.916241 
L -66.885434 83.394362 
L -65.00233 85.284503 
L -63.025646 84.050384 
L -63.010312 82.612498 
L -61.591599 82.891006 
L -58.856368 81.525297 
L -58.345344 82.466217 
L -59.080573 83.267883 
L -58.772047 85.290251 
L -58.03554 85.01238 
L -57.090792 85.374572 
L -56.111551 84.850134 
L -53.807498 81.907928 
L -52.231639 81.134365 
L -51.769169 80.17109 
L -49.430616 79.302352 
L -47.493216 75.56806 
L -47.684843 68.576645 
L -45.711033 66.755491 
L -43.73786 62.933689 
L -42.567628 61.870765 
L -40.803332 61.363577 
L -38.074492 58.325548 
L -38.279536 56.300628 
L -36.863376 52.758606 
L -37.350759 48.80713 
L -36.085348 45.501619 
L -36.078957 41.740343 
L -32.737529 35.756598 
L -32.530568 30.084093 
L -33.177007 28.341988 
L -31.870718 27.892292 
L -29.83111 24.748069 
L -27.818332 23.381884 
L -25.249184 23.588369 
L -22.070643 25.597486 
L -20.579105 27.803341 
L -18.779042 27.566194 
L -16.681306 28.5662 
L -13.428031 28.555025 
L -9.930099 29.572751 
L -8.64936 29.186133 
L -8.142811 27.440518 
L -7.543004 27.329528 
L -6.252043 25.278094 
L -3.062 26.716622 
L -1.989501 25.832075 
L 2.158701 24.621114 
L 3.020407 23.965092 
L 3.006353 23.431872 
L 5.072147 24.697604 
L 8.638423 23.988245 
L 8.984637 22.268335 
L 10.097705 21.868305 
L 12.366628 23.136436 
L 14.143057 22.714366 
L 16.023609 23.894344 
L 17.487681 23.60434 
L 18.276568 23.955667 
L 19.553475 22.931068 
L 20.963888 23.371982 
L 23.697846 25.498955 
L 23.872229 26.6858 
L 25.365361 26.968782 
L 25.586061 27.777791 
L 27.636522 28.666807 
L 29.947609 26.944344 
L 32.826883 28.262624 
L 34.287438 26.230194 
L 35.282013 26.402984 
L 36.383257 26.93173 
L 36.328325 28.088876 
L 37.209191 28.460642 
L 38.809963 30.639674 
L 40.885974 31.186943 
L 40.995845 32.760733 
L 42.256145 32.377786 
L 42.828486 33.519116 
L 43.179817 33.335152 
L 43.264132 34.117331 
L 42.236986 36.205973 
L 42.914086 37.455105 
L 42.031298 39.978275 
L 43.027789 40.677097 
L 43.622484 40.223563 
L 44.161611 40.935481 
L 44.917599 40.857229 
L 45.497925 42.092789 
L 40.595657 47.435036 
L 39.115936 48.069346 
L 38.596612 49.474332 
L 37.313951 49.99398 
L 37.271793 52.0106 
L 35.804526 54.642363 
L 34.887251 60.829559 
L 35.030973 63.671479 
L 32.901303 65.341877 
L 32.265723 66.483374 
L 32.292546 68.673741 
L 30.633016 69.874003 
L 30.576804 70.655224 
L 30.787597 71.485636 
L 31.635891 72.055427 
L 31.427651 72.480216 
L 32.909288 73.920018 
L 32.788236 79.19376 
L 33.557321 80.388911 
L 33.998715 82.917193 
L 33.460225 85.499771 
L 35.244324 90.346494 
L 34.401784 92.186807 
L 34.782491 94.104414 
L 35.828803 96.001582 
L 38.201207 97.674545 
L 39.459591 99.277871 
L 42.288086 105.734632 
L 30.774185 107.520655 
L 30.798456 109.26771 
L 27.457028 112.396439 
L 28.467567 113.05374 
L 29.595647 115.610125 
L 28.801012 118.253384 
L 29.602668 120.871099 
L 28.705195 122.056663 
L 27.505575 126.374158 
L 28.417424 128.47063 
L 29.920779 129.209051 
L 31.676133 131.598722 
L 34.547421 132.057362 
L 34.390282 130.756808 
L 36.399228 130.209378 
L 36.293832 138.253816 
L 35.274986 138.041107 
L 35.595013 137.175565 
L 35.009254 136.830622 
L 32.597246 138.13756 
L 31.421897 137.884603 
L 29.654411 134.756196 
L 28.63365 134.730646 
L 27.891394 132.478955 
L 25.023301 131.530371 
L 24.392826 130.878818 
L 23.042464 131.071725 
L 21.698479 128.774688 
L 20.545492 128.077139 
L 20.211416 126.597096 
L 19.24495 126.757426 
L 18.774811 128.695478 
L 17.351623 129.337445 
L 15.480014 128.712085 
L 12.800995 128.657789 
L 10.578061 127.581447 
L 9.800033 127.875926 
L 8.869018 127.045514 
L 8.65503 124.280251 
L 4.96036 125.091497 
L 3.590832 125.928936 
L 2.373326 125.543752 
L 2.980803 124.801493 
L 2.846661 123.695769 
L 1.324461 123.343799 
L 1.262502 122.577269 
L 0.565599 122.294293 
L -0.471133 123.252457 
L -2.805855 122.835338 
L -5.535338 123.709823 
L -8.708124 123.338694 
L -10.33572 124.618802 
L -10.781589 122.163982 
L -9.829814 121.601219 
L -9.867503 119.173865 
L -10.816082 116.472478 
L -12.552907 114.776524 
L -13.090117 113.225571 
L -12.151117 107.352656 
L -13.325187 104.518399 
L -12.664057 101.258081 
L -13.133554 100.105731 
L -20.948317 100.124254 
L -20.386192 97.834874 
L -22.19073 97.850845 
L -22.346591 98.36634 
L -27.120793 98.36634 
L -27.174446 101.317488 
L -28.147939 101.902607 
L -28.148575 104.547145 
L -33.334146 104.115972 
L -33.389079 104.519679 
L -35.782564 104.673624 
L -35.919902 105.210194 
L -37.342453 104.809682 
L -38.997515 105.143766 
L -40.754147 103.012163 
L -41.615854 101.000655 
L -43.042873 99.618982 
L -42.872958 98.445549 
L -44.140286 96.55157 
L -44.523552 95.047893 
L -44.395794 93.342996 
L -45.470215 91.57039 
L -61.597347 91.194786 
L -65.312134 91.497565 
L -68.070839 91.027553 
L -68.872384 91.34129 
L -69.143542 92.045582 
L -70.831496 92.494691 
L -70.783931 92.061089 
L -71.158662 92.210602 
z
" clip-path="url(#p7114080d59)" style="fill: #eeeeee; stroke: #000000; stroke-width: 0.3"/>
    <path d="M -69.00435 91.804145 
L -68.491163 91.381364 
L -67.462546 91.359423 
z
" clip-path="url(#p7114080d59)" style="fill: #eeeeee; stroke: #000000; stroke-width: 0.3"/>
    <path d="M -11.928823 135.446711 
L 0.560488 135.446711 
L -0.273752 134.137857 
L 0.747009 131.637047 
L 0.274317 130.195967 
L 0.276233 127.012936 
L 0.938 125.591657 
L 0.355443 122.287266 
L 1.262502 122.577269 
L 1.324461 123.343799 
L 2.846661 123.695769 
L 2.980803 124.801493 
L 2.320946 125.432601 
L 3.316158 125.941711 
L 4.96036 125.091497 
L 8.65503 124.280251 
L 8.869018 127.045514 
L 9.800033 127.875926 
L 10.578061 127.581447 
L 12.800995 128.657789 
L 15.480014 128.712085 
L 17.351623 129.337445 
L 18.774811 128.695478 
L 19.24495 126.757426 
L 20.211416 126.597096 
L 20.545492 128.077139 
L 21.698479 128.774688 
L 23.042464 131.071725 
L 24.392826 130.878818 
L 25.023301 131.530371 
L 27.891394 132.478955 
L 28.63365 134.730646 
L 29.654411 134.756196 
L 31.421897 137.884603 
L 32.597246 138.13756 
L 35.009254 136.830622 
L 35.595013 137.175565 
L 35.274986 138.041107 
L 36.200568 138.27043 
L 36.399228 130.209378 
L 34.390282 130.756808 
L 34.547421 132.057362 
L 31.676133 131.598722 
L 29.920779 129.209051 
L 28.417424 128.47063 
L 27.47683 126.278984 
L 28.705195 122.056663 
L 29.602668 120.871099 
L 28.801012 118.253384 
L 29.595647 115.610125 
L 28.467567 113.05374 
L 27.457028 112.396439 
L 30.798456 109.26771 
L 30.774185 107.520655 
L 42.288086 105.734632 
L 44.028106 108.245028 
L 46.003838 108.163902 
L 47.151714 108.883163 
L 47.977647 110.177969 
L 49.609075 110.298693 
L 49.618018 111.097164 
L 52.617701 111.604359 
L 53.202502 112.311481 
L 55.692119 113.236431 
L 56.100299 114.599581 
L 57.265425 114.437972 
L 58.304067 115.854139 
L 58.060697 117.290109 
L 59.477179 118.32493 
L 60.34815 120.46228 
L 59.27756 121.649767 
L 57.618666 122.354973 
L 58.597265 124.095001 
L 57.604612 125.651065 
L 57.495384 126.561323 
L 58.015344 126.745287 
L 58.12202 127.849096 
L 57.743229 130.119309 
L 58.341119 131.283804 
L 59.439169 131.454993 
L 58.346867 132.549222 
L 56.334726 133.043635 
L 55.817324 134.01521 
L 56.265102 134.926112 
L 56.169922 136.688816 
L 55.025878 138.70224 
L 54.100296 139.123197 
L 54.758873 139.435555 
L 54.716716 140.241054 
L 55.403396 140.509339 
L 56.180145 141.929981 
L 57.048242 141.154507 
L 57.434061 141.703853 
L 38.965181 147.684088 
L 40.175981 151.694965 
L 35.088464 151.851469 
L 31.04119 153.755022 
L 30.576804 154.352922 
L 30.576804 156.378484 
L 29.982739 157.268934 
L 24.146903 159.910283 
L 22.666225 162.404066 
L 19.811543 165.612004 
L 17.243989 166.768192 
L 14.227378 165.615836 
L 12.450949 166.333824 
L 10.948552 165.175083 
L 8.81089 165.359046 
L 6.965475 163.751888 
L 4.786614 163.203179 
L 1.919157 163.123327 
L -3.265135 164.122375 
L -11.13611 157.341117 
L -11.918606 154.870969 
z
" clip-path="url(#p7114080d59)" style="fill: #eeeeee; stroke: #000000; stroke-width: 0.3"/>
    <path d="M -58.855089 17.765918 
L -56.475658 16.039784 
L -53.684209 10.296858 
L -52.393247 9.417898 
L -52.094945 8.592597 
L -49.349491 8.80946 
L -46.595737 7.670206 
L -46.463511 6.983516 
L -45.496402 6.449499 
L -45.091424 7.626448 
L -44.052139 8.482089 
L -38.752229 5.738544 
L -32.884452 5.350165 
L -29.57879 1.473745 
L -31.150817 0.39629 
L -30.210538 -0.443065 
L -21.475941 -1.388138 
L -20.816727 -2.522287 
L -20.037426 -2.401074 
L -19.059458 -3.118425 
L -16.397052 -6.565106 
L -15.671404 -6.548814 
L -14.812893 -7.954283 
L -13.54237 -8.54835 
L -13.518736 -10.650243 
L -9.040927 -12.884844 
L -6.482638 -12.395864 
L -3.824058 -9.432737 
L -1.638812 -5.868676 
L -1.716742 -2.250003 
L -2.692788 -1.589352 
L -2.931053 -0.651467 
L -2.116616 -0.378867 
L -2.501161 1.253365 
L 1.901913 1.37218 
L 2.105042 2.06366 
L 1.404307 2.93367 
L 1.501403 3.681362 
L 5.502046 4.531892 
L 7.102812 6.288211 
L 8.077578 6.48623 
L 8.46404 7.750689 
L 7.758194 8.242549 
L 7.914054 8.728977 
L 8.962282 9.752617 
L 13.078865 11.847167 
L 13.481291 12.875277 
L 15.253888 13.969505 
L 14.587646 15.129204 
L 16.063214 16.737327 
L 15.543253 17.559432 
L 17.715723 18.119161 
L 17.978896 18.658451 
L 19.86328 19.436476 
L 20.711574 20.6179 
L 20.732656 22.579902 
L 21.825594 23.750621 
L 19.553475 22.931068 
L 18.276568 23.955667 
L 17.487681 23.60434 
L 16.023609 23.894344 
L 14.143057 22.714366 
L 12.366628 23.136436 
L 10.097705 21.868305 
L 8.984637 22.268335 
L 8.638423 23.988245 
L 5.072147 24.697604 
L 3.006353 23.431872 
L 3.020407 23.965092 
L 2.158701 24.621114 
L -1.989501 25.832075 
L -3.062 26.716622 
L -6.252043 25.278094 
L -7.543004 27.329528 
L -8.142811 27.440518 
L -8.64936 29.186133 
L -9.930099 29.572751 
L -13.428031 28.555025 
L -16.681306 28.5662 
L -18.779042 27.566194 
L -20.579105 27.803341 
L -22.070643 25.597486 
L -25.249184 23.588369 
L -27.818332 23.381884 
L -29.83111 24.748069 
L -31.870718 27.892292 
L -33.177007 28.341988 
L -32.530568 30.084093 
L -32.65513 33.601522 
L -33.608821 32.6424 
L -34.990488 32.995643 
L -35.404416 33.598326 
L -36.01955 33.066385 
L -37.502145 33.210429 
L -37.804928 32.732308 
L -39.870723 32.1713 
L -42.650027 33.222889 
L -44.935564 33.281814 
L -46.010621 35.581571 
L -45.9263 37.560501 
L -47.776828 41.202808 
L -48.545276 36.921087 
L -49.419115 35.943436 
L -50.212477 35.881476 
L -54.543362 31.073882 
L -54.907463 30.207061 
L -53.895008 29.97822 
L -54.5044 29.615551 
L -55.105487 27.813879 
L -56.815481 26.523869 
L -57.176392 23.170768 
L -58.03554 22.391779 
L -57.432538 21.126522 
L -57.432538 18.841778 
z
" clip-path="url(#p7114080d59)" style="fill: #eeeeee; stroke: #000000; stroke-width: 0.3"/>
    <path d="M -12.982162 -23.981366 
L -12.026555 -25.864479 
L -10.150478 -27.324405 
L -11.341154 -30.079451 
L -10.477532 -31.169044 
L -8.427702 -32.30064 
L -9.152714 -33.072597 
L -9.557698 -34.796499 
L -7.62285 -35.695417 
L -7.732079 -36.736468 
L -5.883468 -38.863911 
L -6.200299 -40.963893 
L -5.039005 -41.970445 
L 0.460196 -42.074883 
L 0.441037 -68.492151 
L 6.616702 -68.533196 
L 6.621177 -80.85281 
L 45.355477 -80.846741 
L 46.436282 -82.284311 
L 46.85979 -81.952144 
L 46.51166 -80.85281 
L 57.300741 -80.853169 
L 59.647767 -79.083734 
L 62.356292 -79.443658 
L 62.882013 -80.853447 
L 80.18411 -80.855054 
L 80.210266 -78.719175 
L 82.837789 -75.057522 
L 82.460562 -74.738384 
L 82.323249 -75.491081 
L 81.552192 -75.983498 
L 82.312687 -72.012516 
L 81.985756 -70.67863 
L 82.410265 -65.900876 
L 83.587721 -61.485266 
L 84.239574 -60.583938 
L 85.073443 -60.738853 
L 85.58854 -60.044747 
L 86.623393 -59.775251 
L 87.836956 -58.713785 
L 87.554265 -58.310925 
L 88.021234 -57.700361 
L 88.976056 -58.053975 
L 88.426812 -57.504982 
L 89.503168 -57.54497 
L 90.815928 -56.245028 
L 88.526071 -53.227932 
L 87.822141 -53.350901 
L 87.55641 -52.944635 
L 87.323899 -53.366871 
L 83.969053 -51.908219 
L 83.396712 -50.163723 
L 80.739411 -50.365258 
L 80.901662 -49.003066 
L 80.140241 -46.972392 
L 80.620603 -45.518214 
L 78.869725 -42.087022 
L 78.60335 -40.371908 
L 77.350078 -38.442478 
L 77.976077 -33.065891 
L 77.141201 -28.960951 
L 75.569174 -25.457101 
L 75.486775 -23.535019 
L 72.792422 -23.150472 
L 70.503697 -19.222636 
L 68.99172 -17.956575 
L 68.994272 -16.288409 
L 68.197721 -14.46071 
L 68.284594 -12.298607 
L 67.544255 -11.221474 
L 67.024294 -10.943281 
L 65.914107 -12.179477 
L 64.08913 -10.210126 
L 64.375937 -8.096732 
L 62.798694 -3.344071 
L 61.628889 -3.619866 
L 62.196439 -5.817896 
L 61.848625 -7.793632 
L 58.537858 -10.706294 
L 57.046641 -11.282636 
L 56.695637 -16.598697 
L 57.474302 -20.376265 
L 54.523482 -20.412038 
L 54.615467 -19.092962 
L 50.508792 -19.074914 
L 52.153631 -17.241468 
L 52.15619 -14.796549 
L 52.662739 -13.403534 
L 49.647722 -10.76666 
L 47.929099 -8.039086 
L 44.836159 -5.256412 
L 42.369527 -5.010958 
L 37.719893 -8.386735 
L 35.262847 -7.074371 
L 35.253267 -6.186313 
L 34.444899 -5.242036 
L 30.926603 -3.804145 
L 30.494016 -2.54031 
L 25.557446 -2.58272 
L 24.630133 -4.214403 
L 19.594996 -4.284991 
L 16.78503 -3.505204 
L 12.333093 -7.835313 
L 11.857527 -9.308014 
L 7.212683 -8.487985 
L 6.590515 -6.513202 
L 5.478727 -5.59544 
L 5.454771 -3.750813 
L 4.760427 -2.841994 
L 4.007634 0.165527 
L 1.261222 1.433182 
L -2.595056 1.118265 
L -2.116616 -0.378867 
L -2.931053 -0.651467 
L -2.692788 -1.589352 
L -1.716742 -2.250003 
L -1.638812 -5.868676 
L -3.824058 -9.432737 
L -6.482638 -12.395864 
L -5.910297 -14.446495 
L -6.150472 -15.343657 
L -7.033897 -15.387415 
L -8.456448 -16.807736 
L -8.019528 -19.526051 
L -8.973219 -19.264157 
L -8.812884 -20.094247 
L -9.500207 -21.938392 
L -9.04987 -22.852804 
L -10.538213 -23.670441 
L -11.150158 -23.09586 
L -12.200302 -23.028789 
z
" clip-path="url(#p7114080d59)" style="fill: #eeeeee; stroke: #000000; stroke-width: 0.3"/>
    <path d="M 82.407749 -73.489753 
L 82.655711 -73.667301 
L 82.475648 -73.154767 
z
" clip-path="url(#p7114080d59)" style="fill: #eeeeee; stroke: #000000; stroke-width: 0.3"/>
    <path d="M 31.378145 72.376092 
L 31.660484 71.287618 
L 33.278815 71.47542 
L 33.558601 72.55942 
L 35.908649 72.429752 
L 37.008621 71.59934 
L 37.217497 69.410252 
L 38.361542 70.118654 
L 39.979558 69.324652 
L 41.067391 69.927663 
L 40.21079 71.441563 
L 40.869367 71.465197 
L 40.209517 72.715281 
L 40.658574 73.283156 
L 42.741619 73.499703 
L 42.675821 75.16308 
L 40.311402 77.042998 
L 39.998081 78.504518 
L 39.566267 78.514104 
L 37.658249 81.493362 
L 35.988495 82.676374 
L 33.957194 82.592696 
L 33.557321 80.388911 
L 32.788236 79.19376 
L 32.909288 73.920018 
z
" clip-path="url(#p7114080d59)" style="fill: #eeeeee; stroke: #000000; stroke-width: 0.3"/>
    <path d="M 30.586705 70.036255 
L 32.292546 68.673741 
L 32.265723 66.483374 
L 33.57776 64.46356 
L 36.503345 63.264577 
L 37.395076 64.143531 
L 38.549343 63.403831 
L 39.725322 61.68041 
L 40.555557 61.684106 
L 41.071859 63.239026 
L 42.198017 63.78454 
L 42.820822 65.074228 
L 42.565313 67.014833 
L 43.126795 67.961501 
L 42.796551 69.585916 
L 40.864256 69.919993 
L 39.979558 69.324652 
L 38.361542 70.118654 
L 37.217497 69.410252 
L 37.008621 71.59934 
L 35.908649 72.429752 
L 33.558601 72.55942 
L 33.354192 71.531632 
L 32.16032 71.126646 
L 31.554123 71.905951 
L 30.787597 71.485636 
z
" clip-path="url(#p7114080d59)" style="fill: #eeeeee; stroke: #000000; stroke-width: 0.3"/>
    <path d="M 34.887251 60.829559 
L 35.804526 54.642363 
L 37.271793 52.0106 
L 37.313951 49.99398 
L 38.596612 49.474332 
L 39.115936 48.069346 
L 40.595657 47.435036 
L 45.497925 42.092789 
L 44.917599 40.857229 
L 44.161611 40.935481 
L 43.622484 40.223563 
L 43.027789 40.677097 
L 42.031298 39.978275 
L 42.914086 37.455105 
L 42.236986 36.205973 
L 43.264132 34.117331 
L 43.179817 33.335152 
L 42.828486 33.519116 
L 43.476847 32.350474 
L 45.147879 31.651652 
L 47.057171 32.493881 
L 48.627918 31.502818 
L 49.568197 32.850641 
L 51.038975 33.382897 
L 51.1613 32.722086 
L 52.298632 32.030452 
L 54.675832 31.795857 
L 56.164175 31.075798 
L 57.197711 31.832748 
L 59.213685 31.914993 
L 62.398932 29.096868 
L 62.885678 31.126417 
L 63.62857 31.143667 
L 63.304074 31.754978 
L 65.07923 32.421859 
L 64.718319 33.601522 
L 65.044094 35.423794 
L 67.773577 39.075366 
L 68.06997 39.779293 
L 67.711617 40.581602 
L 68.582267 43.243223 
L 68.373384 44.866358 
L 67.176323 46.508492 
L 67.293221 47.476557 
L 65.371785 48.400234 
L 64.75984 50.048276 
L 63.286188 51.359683 
L 62.888231 52.945772 
L 61.703945 54.41176 
L 62.074436 56.044475 
L 61.769736 61.286919 
L 42.442667 61.183439 
L 39.725322 61.68041 
L 38.549343 63.403831 
L 37.25934 64.193995 
L 36.55892 63.272877 
L 35.030973 63.671479 
z
" clip-path="url(#p7114080d59)" style="fill: #eeeeee; stroke: #000000; stroke-width: 0.3"/>
   </g>
   <g id="PatchCollection_2">
    <path d="M 61.703945 54.41176 
L 62.888231 52.945772 
L 63.286188 51.359683 
L 64.75984 50.048276 
L 65.371785 48.400234 
L 67.293221 47.476557 
L 67.176323 46.508492 
L 68.373384 44.866358 
L 68.582267 43.243223 
L 67.711617 40.581602 
L 68.06997 39.779293 
L 67.773577 39.075366 
L 65.044094 35.423794 
L 64.718319 33.601522 
L 65.07923 32.421859 
L 63.304074 31.754978 
L 63.62857 31.143667 
L 62.885678 31.126417 
L 62.220074 29.01047 
L 64.717682 26.535371 
L 71.086149 24 
L 70.990468 24.642449 
L 72.070322 24.779138 
L 71.769602 25.544611 
L 72.316337 26.536261 
L 73.112147 26.15855 
L 74.233496 26.540476 
L 74.97831 27.626083 
L 81.000031 28.077856 
L 87.71355 32.762327 
L 90.229681 32.526459 
L 96.381712 34.056014 
L 98.508193 31.188544 
L 104.165177 28.607245 
L 106.632761 30.722555 
L 111.095236 30.509042 
L 107.743591 35.305622 
L 105.411422 37.697518 
L 105.500212 60.472478 
L 108.856974 64.811055 
L 108.932463 65.57455 
L 107.372748 67.256999 
L 106.978925 66.972317 
L 105.705399 67.713699 
L 105.663149 66.844559 
L 105.287429 67.903825 
L 104.76635 67.225812 
L 105.497171 68.947997 
L 105.284413 69.363453 
L 104.778927 68.881605 
L 104.228169 69.177351 
L 104.493739 69.910691 
L 103.465666 70.784861 
L 102.478835 70.717963 
L 100.879385 71.586602 
L 100.449846 73.225794 
L 100.884416 73.520031 
L 100.204399 75.284466 
L 99.377514 75.938837 
L 99.23517 75.617437 
L 98.616513 77.442224 
L 98.090909 77.133902 
L 98.623052 77.927094 
L 98.124612 79.300714 
L 97.490361 79.300714 
L 97.870611 79.619099 
L 97.587438 80.11201 
L 97.346509 79.632171 
L 96.728859 80.058697 
L 97.379705 80.505334 
L 95.712857 83.700231 
L 95.121363 83.489988 
L 94.442352 84 
L 85.668194 77.683055 
L 85.281096 76.890332 
L 84.605912 76.805375 
L 84.520318 76.184483 
L 85.229996 75.575087 
L 84.888893 73.916186 
L 61.769736 61.286919 
L 62.074436 56.044475 
z
" clip-path="url(#p7114080d59)" style="fill: #ff6b6b; stroke: #dd0000; stroke-width: 0.5"/>
    <path d="M 105.435304 68.19203 
L 105.958899 67.757957 
L 106.585096 68.144242 
L 105.586195 68.670354 
z
" clip-path="url(#p7114080d59)" style="fill: #ff6b6b; stroke: #dd0000; stroke-width: 0.5"/>
   </g>
  </g>
 </g>
 <defs>
  <clipPath id="p7114080d59">
   <rect x="0" y="0" width="172.799181" height="108"/>
  </clipPath>
 </defs>
</svg>
