<?xml version="1.0" encoding="utf-8" standalone="no"?>
<!DOCTYPE svg PUBLIC "-//W3C//DTD SVG 1.1//EN"
  "http://www.w3.org/Graphics/SVG/1.1/DTD/svg11.dtd">
<svg xmlns:xlink="http://www.w3.org/1999/xlink" width="172.50136pt" height="108pt" viewBox="0 0 172.50136 108" xmlns="http://www.w3.org/2000/svg" version="1.1">
 <metadata>
  <rdf:RDF xmlns:dc="http://purl.org/dc/elements/1.1/" xmlns:cc="http://creativecommons.org/ns#" xmlns:rdf="http://www.w3.org/1999/02/22-rdf-syntax-ns#">
   <cc:Work>
    <dc:type rdf:resource="http://purl.org/dc/dcmitype/StillImage"/>
    <dc:date>2025-09-05T15:57:05.693849</dc:date>
    <dc:format>image/svg+xml</dc:format>
    <dc:creator>
     <cc:Agent>
      <dc:title>Matplotlib v3.10.3, https://matplotlib.org/</dc:title>
     </cc:Agent>
    </dc:creator>
   </cc:Work>
  </rdf:RDF>
 </metadata>
 <defs>
  <style type="text/css">*{stroke-linejoin: round; stroke-linecap: butt}</style>
 </defs>
 <g id="figure_1">
  <g id="patch_1">
   <path d="M 0 108 
L 172.50136 108 
L 172.50136 0 
L 0 0 
z
" style="fill: #ffffff"/>
  </g>
  <g id="axes_1">
   <g id="PatchCollection_1">
    <path d="M -3715.462695 32.33876 
L -3715.428999 32.020474 
L -3714.773425 31.793126 
L -3715.050911 32.085158 
L -3714.958255 32.499533 
L -3713.707459 32.819697 
L -3714.244179 32.335476 
L -3713.973249 32.383757 
L -3713.923637 32.099224 
L -3713.517006 32.590472 
L -3713.60919 31.777655 
L -3713.474892 31.86485 
L -3713.451961 31.620165 
L -3713.318595 31.700321 
L -3713.173061 32.087036 
L -3712.862352 31.562968 
L -3714.270848 30.751096 
L -3714.516525 30.934852 
L -3714.637253 30.676562 
L -3714.486578 30.563597 
L -3713.653178 30.724381 
L -3713.216589 31.069843 
L -3712.345744 31.270003 
L -3712.694358 31.763601 
L -3712.778125 32.563757 
L -3710.975624 33.679849 
L -3710.835242 34.202972 
L -3711.612959 34.262508 
L -3712.078091 33.83735 
L -3713.50109 33.472189 
L -3714.854374 32.544069 
L -3715.288618 32.529531 
z
" clip-path="url(#pc5ec3466f9)" style="fill: #eeeeee; stroke: #000000; stroke-width: 0.3"/>
    <path d="M -3736.494727 9.509219 
L -3736.452142 9.042348 
L -3736.112878 8.688442 
L -3735.715608 8.775164 
L -3735.458236 9.312814 
L -3735.051592 9.362039 
L -3734.65431 9.99625 
L -3734.808734 10.233907 
L -3735.32955 10.400786 
L -3735.837267 10.233907 
L -3735.92852 10.000477 
L -3735.169514 10.155156 
L -3735.08201 9.788129 
L -3735.636993 9.40047 
L -3735.837267 8.968285 
L -3736.308012 9.203593 
L -3736.001511 9.761414 
z
" clip-path="url(#pc5ec3466f9)" style="fill: #eeeeee; stroke: #000000; stroke-width: 0.3"/>
    <path d="M 89.21193 31.252666 
L 89.257781 31.037967 
L 89.285864 31.21329 
L 89.791236 31.267665 
L 89.582532 30.570163 
L 89.31113 30.454848 
L 89.339202 30.828442 
L 89.215668 30.994376 
L 89.236253 30.460009 
L 89.447763 30.284225 
L 89.911964 31.225006 
L 89.751928 31.402656 
z
" clip-path="url(#pc5ec3466f9)" style="fill: #eeeeee; stroke: #000000; stroke-width: 0.3"/>
    <path d="M -3878.082567 86.098291 
L -3878.003952 85.784221 
L -3877.253847 86.22485 
L -3877.021281 86.569851 
L -3876.961848 86.902664 
L -3876.976362 87.049843 
L -3877.976812 86.511721 
L -3877.416689 86.663601 
L -3877.062923 86.971092 
L -3876.990403 86.897975 
L -3877.447578 86.17703 
L -3877.99834 85.943601 
z
" clip-path="url(#pc5ec3466f9)" style="fill: #eeeeee; stroke: #000000; stroke-width: 0.3"/>
    <path d="M 109.395107 71.847348 
L 109.490569 71.279228 
L 109.769458 71.09735 
L 109.46436 71.506103 
L 109.572921 71.754532 
L 109.921075 71.357967 
L 109.690843 70.546095 
L 109.926687 70.546095 
L 109.947272 71.64485 
L 109.690843 71.883913 
z
" clip-path="url(#pc5ec3466f9)" style="fill: #eeeeee; stroke: #000000; stroke-width: 0.3"/>
    <path d="M 86.13569 42.202656 
L 87.123974 42.87297 
L 86.954589 43.468289 
L 86.146915 44.387505 
L 86.787056 43.614536 
L 87.076248 42.91094 
L 86.544668 42.50266 
L 86.363105 42.438447 
L 86.29292 42.595937 
z
" clip-path="url(#pc5ec3466f9)" style="fill: #eeeeee; stroke: #000000; stroke-width: 0.3"/>
    <path d="M 103.074174 61.466412 
L 103.48222 63.0911 
L 103.470053 63.274844 
L 103.310018 63.439845 
L 103.182735 63.237347 
L 103.310018 63.361094 
L 103.474734 63.155785 
L 103.231403 62.528602 
z
" clip-path="url(#pc5ec3466f9)" style="fill: #eeeeee; stroke: #000000; stroke-width: 0.3"/>
    <path d="M 86.379952 38.593751 
L 87.225048 38.255789 
L 88.098227 38.160634 
L 87.898884 38.09876 
L 88.012126 38.027036 
L 88.22551 38.169539 
L 88.124436 38.37297 
L 87.154863 38.332662 
z
" clip-path="url(#pc5ec3466f9)" style="fill: #eeeeee; stroke: #000000; stroke-width: 0.3"/>
    <path d="M 120.08566 68.801414 
L 120.489969 68.801414 
L 121.020606 69.70047 
L 120.961645 69.988285 
L 120.562028 69.752978 
L 120.961645 69.831729 
L 120.824069 69.467973 
z
" clip-path="url(#pc5ec3466f9)" style="fill: #eeeeee; stroke: #000000; stroke-width: 0.3"/>
    <path d="M 83.379521 19.071729 
L 83.622852 19.165006 
L 84.285452 18.69954 
L 84.950871 18.599697 
L 84.872256 18.835476 
L 84.461404 18.751092 
L 83.60881 19.307969 
z
" clip-path="url(#pc5ec3466f9)" style="fill: #eeeeee; stroke: #000000; stroke-width: 0.3"/>
    <path d="M -3883.921059 105.809219 
L -3883.586016 105.764221 
L -3883.842445 105.912346 
L -3883.603795 106.078291 
L -3883.286059 105.991096 
L -3883.620171 106.210472 
L -3883.892976 106.055781 
z
" clip-path="url(#pc5ec3466f9)" style="fill: #eeeeee; stroke: #000000; stroke-width: 0.3"/>
    <path d="M 93.222173 51.512037 
L 93.480476 51.475473 
L 93.619915 51.78672 
L 93.38782 52.463601 
L 93.264286 52.352041 
L 93.591843 51.7511 
z
" clip-path="url(#pc5ec3466f9)" style="fill: #eeeeee; stroke: #000000; stroke-width: 0.3"/>
    <path d="M 86.172192 34.277034 
L 86.524083 34.172974 
L 86.658841 33.914223 
L 86.565253 33.143593 
L 86.691605 33.927817 
L 86.587713 34.228282 
z
" clip-path="url(#pc5ec3466f9)" style="fill: #eeeeee; stroke: #000000; stroke-width: 0.3"/>
    <path d="M 115.601867 74.957967 
L 116.052958 75.590784 
L 116.150295 75.831725 
L 115.993065 76.146728 
L 115.993065 75.551409 
z
" clip-path="url(#pc5ec3466f9)" style="fill: #eeeeee; stroke: #000000; stroke-width: 0.3"/>
    <path d="M 105.992253 67.071721 
L 106.3067 67.229222 
L 106.70726 68.566095 
L 106.443344 68.486412 
L 106.338521 67.662351 
z
" clip-path="url(#pc5ec3466f9)" style="fill: #eeeeee; stroke: #000000; stroke-width: 0.3"/>
    <path d="M 95.507586 48.995781 
L 95.822044 48.831252 
L 96.799103 49.397967 
L 96.849635 49.624842 
L 95.819238 48.973283 
z
" clip-path="url(#pc5ec3466f9)" style="fill: #eeeeee; stroke: #000000; stroke-width: 0.3"/>
    <path d="M 129.632575 84.046095 
L 130.102388 84.118291 
L 130.536632 84.574852 
L 130.26523 84.599228 
z
" clip-path="url(#pc5ec3466f9)" style="fill: #eeeeee; stroke: #000000; stroke-width: 0.3"/>
    <path d="M 85.664003 35.252974 
L 85.824038 35.33078 
L 86.057076 36.360634 
L 85.898915 36.282344 
z
" clip-path="url(#pc5ec3466f9)" style="fill: #eeeeee; stroke: #000000; stroke-width: 0.3"/>
    <path d="M 84.950871 18.285166 
L 85.608791 17.972502 
L 85.814677 17.806095 
L 85.898915 17.963597 
z
" clip-path="url(#pc5ec3466f9)" style="fill: #eeeeee; stroke: #000000; stroke-width: 0.3"/>
    <path d="M 46.260656 63.913283 
L 46.519902 63.767969 
L 46.636881 63.977967 
L 46.447831 64.075473 
z
" clip-path="url(#pc5ec3466f9)" style="fill: #eeeeee; stroke: #000000; stroke-width: 0.3"/>
    <path d="M -3649.203347 185.569851 
L -3649.067646 185.165787 
L -3648.759742 185.957971 
L -3648.989031 186.032033 
z
" clip-path="url(#pc5ec3466f9)" style="fill: #eeeeee; stroke: #000000; stroke-width: 0.3"/>
    <path d="M -3685.913695 100.622039 
L -3685.092462 100.448594 
L -3685.242676 101.172349 
L -3685.903402 100.778596 
z
" clip-path="url(#pc5ec3466f9)" style="fill: #eeeeee; stroke: #000000; stroke-width: 0.3"/>
    <path d="M -3696.513938 118.61735 
L -3695.894853 118.621094 
L -3695.666968 118.801094 
L -3696.203228 118.91922 
z
" clip-path="url(#pc5ec3466f9)" style="fill: #eeeeee; stroke: #000000; stroke-width: 0.3"/>
    <path d="M -3747.999027 -0.249684 
L -3747.893272 -0.409997 
L -3747.636843 -0.297032 
L -3747.826353 -0.199054 
z
" clip-path="url(#pc5ec3466f9)" style="fill: #eeeeee; stroke: #000000; stroke-width: 0.3"/>
    <path d="M -3872.770042 105.196101 
L -3872.597852 105.164225 
L -3872.426109 105.385478 
L -3872.766305 105.439853 
z
" clip-path="url(#pc5ec3466f9)" style="fill: #eeeeee; stroke: #000000; stroke-width: 0.3"/>
    <path d="M -3910.529992 107.686103 
L -3910.311456 107.734844 
L -3910.048483 108.002039 
L -3910.191671 107.869847 
z
" clip-path="url(#pc5ec3466f9)" style="fill: #eeeeee; stroke: #000000; stroke-width: 0.3"/>
    <path d="M 125.301319 69.201723 
L 125.866595 69.826095 
L 126.087465 70.546095 
z
" clip-path="url(#pc5ec3466f9)" style="fill: #eeeeee; stroke: #000000; stroke-width: 0.3"/>
    <path d="M 120.442232 82.681102 
L 120.672464 82.91922 
L 120.484345 82.774852 
z
" clip-path="url(#pc5ec3466f9)" style="fill: #eeeeee; stroke: #000000; stroke-width: 0.3"/>
    <path d="M 102.13081 60.829851 
L 103.082604 61.427969 
L 102.778438 61.382039 
z
" clip-path="url(#pc5ec3466f9)" style="fill: #eeeeee; stroke: #000000; stroke-width: 0.3"/>
    <path d="M 86.059882 44.423597 
L 86.138496 44.392666 
L 86.13569 44.491092 
z
" clip-path="url(#pc5ec3466f9)" style="fill: #eeeeee; stroke: #000000; stroke-width: 0.3"/>
    <path d="M 85.898915 44.327036 
L 85.971906 44.327036 
L 86.048646 44.425002 
z
" clip-path="url(#pc5ec3466f9)" style="fill: #eeeeee; stroke: #000000; stroke-width: 0.3"/>
    <path d="M 85.50023 31.620165 
L 86.520334 33.017034 
L 85.543275 31.845162 
z
" clip-path="url(#pc5ec3466f9)" style="fill: #eeeeee; stroke: #000000; stroke-width: 0.3"/>
    <path d="M -3870.844007 90.235469 
L -3870.815936 89.952353 
L -3870.763058 89.841727 
z
" clip-path="url(#pc5ec3466f9)" style="fill: #eeeeee; stroke: #000000; stroke-width: 0.3"/>
    <path d="M -3910.278704 107.957975 
L -3910.22302 107.962664 
L -3910.048483 108.113599 
z
" clip-path="url(#pc5ec3466f9)" style="fill: #eeeeee; stroke: #000000; stroke-width: 0.3"/>
    <path d="M -3910.510798 107.830472 
L -3910.3489 107.957975 
L -3910.420488 107.922344 
z
" clip-path="url(#pc5ec3466f9)" style="fill: #eeeeee; stroke: #000000; stroke-width: 0.3"/>
    <path d="M 63.660534 -28.426717 
L 63.828999 -28.606717 
L 63.907614 -28.292648 
L 65.854234 -27.512652 
L 67.776532 -27.906405 
L 65.955308 -27.419835 
L 65.575345 -27.474682 
L 63.950659 -28.199843 
z
" clip-path="url(#pc5ec3466f9)" style="fill: #eeeeee; stroke: #000000; stroke-width: 0.3"/>
    <path d="M 69.889754 -27.183594 
L 70.279078 -26.869524 
L 71.179397 -26.869524 
L 71.952433 -26.318742 
L 71.170967 -26.715779 
L 70.310899 -26.710157 
L 70.065694 -26.816095 
z
" clip-path="url(#pc5ec3466f9)" style="fill: #eeeeee; stroke: #000000; stroke-width: 0.3"/>
    <path d="M 47.039315 -12.826714 
L 47.491338 -13.278586 
L 47.788949 -14.461713 
L 48.697686 -15.271246 
L 48.547012 -14.850778 
L 47.900316 -14.414838 
L 47.325691 -12.801876 
z
" clip-path="url(#pc5ec3466f9)" style="fill: #eeeeee; stroke: #000000; stroke-width: 0.3"/>
    <path d="M 73.509729 -27.686085 
L 73.71189 -27.777969 
L 73.777394 -28.081716 
L 73.932749 -28.002966 
L 73.70346 -27.702962 
z
" clip-path="url(#pc5ec3466f9)" style="fill: #eeeeee; stroke: #000000; stroke-width: 0.3"/>
    <path d="M 36.513466 -30.336399 
L 36.561203 -30.5014 
L 37.46526 -30.187342 
L 38.296325 -30.187342 
L 37.852721 -30.019991 
z
" clip-path="url(#pc5ec3466f9)" style="fill: #eeeeee; stroke: #000000; stroke-width: 0.3"/>
    <path d="M 29.912713 -10.504063 
L 30.142934 -10.481553 
L 30.182241 -10.869684 
L 30.221548 -10.530778 
L 30.08679 -10.412652 
z
" clip-path="url(#pc5ec3466f9)" style="fill: #eeeeee; stroke: #000000; stroke-width: 0.3"/>
    <path d="M 74.157369 -15.90078 
L 74.365129 -15.834217 
L 75.093246 -15.74375 
L 74.318335 -15.717024 
z
" clip-path="url(#pc5ec3466f9)" style="fill: #eeeeee; stroke: #000000; stroke-width: 0.3"/>
    <path d="M 71.563109 -16.08124 
L 71.583694 -16.291711 
L 71.797078 -16.078429 
L 71.819538 -16.031555 
z
" clip-path="url(#pc5ec3466f9)" style="fill: #eeeeee; stroke: #000000; stroke-width: 0.3"/>
    <path d="M 54.4964 -55.056407 
L 54.555361 -55.052652 
L 54.591862 -54.95328 
L 54.513247 -54.861396 
z
" clip-path="url(#pc5ec3466f9)" style="fill: #eeeeee; stroke: #000000; stroke-width: 0.3"/>
    <path d="M 39.542912 -33.510309 
L 39.854565 -33.498593 
L 39.854565 -33.259991 
L 39.814314 -33.456407 
z
" clip-path="url(#pc5ec3466f9)" style="fill: #eeeeee; stroke: #000000; stroke-width: 0.3"/>
    <path d="M 36.632331 1.309847 
L 37.203219 1.117187 
L 37.583182 0.673286 
L 37.27621 1.1711 
z
" clip-path="url(#pc5ec3466f9)" style="fill: #eeeeee; stroke: #000000; stroke-width: 0.3"/>
    <path d="M 35.134916 -31.597344 
L 35.219154 -31.98922 
L 35.334259 -31.452964 
L 35.38387 -31.295462 
z
" clip-path="url(#pc5ec3466f9)" style="fill: #eeeeee; stroke: #000000; stroke-width: 0.3"/>
    <path d="M 25.648848 -46.630149 
L 25.763021 -46.72906 
L 25.760215 -46.606717 
L 25.663821 -46.507334 
z
" clip-path="url(#pc5ec3466f9)" style="fill: #eeeeee; stroke: #000000; stroke-width: 0.3"/>
    <path d="M 15.361649 -74.554525 
L 15.77625 -74.589684 
L 16.147795 -74.712027 
L 15.815557 -74.389997 
z
" clip-path="url(#pc5ec3466f9)" style="fill: #eeeeee; stroke: #000000; stroke-width: 0.3"/>
    <path d="M -2.504294 -80.735466 
L -2.504294 -80.88124 
L -2.451888 -80.909372 
L -2.427554 -80.852648 
z
" clip-path="url(#pc5ec3466f9)" style="fill: #eeeeee; stroke: #000000; stroke-width: 0.3"/>
    <path d="M 72.038534 -26.864836 
L 72.107788 -26.972652 
L 72.461554 -27.362189 
z
" clip-path="url(#pc5ec3466f9)" style="fill: #eeeeee; stroke: #000000; stroke-width: 0.3"/>
    <path d="M 61.80749 -64.501713 
L 61.854284 -64.508279 
L 61.856159 -64.36906 
z
" clip-path="url(#pc5ec3466f9)" style="fill: #eeeeee; stroke: #000000; stroke-width: 0.3"/>
    <path d="M 61.380733 -48.402029 
L 61.463085 -48.537032 
L 61.46496 -48.372492 
z
" clip-path="url(#pc5ec3466f9)" style="fill: #eeeeee; stroke: #000000; stroke-width: 0.3"/>
    <path d="M 41.567227 -10.951246 
L 41.589687 -11.07921 
L 41.637412 -11.058117 
z
" clip-path="url(#pc5ec3466f9)" style="fill: #eeeeee; stroke: #000000; stroke-width: 0.3"/>
    <path d="M 40.104439 -114.040616 
L 40.23079 -114.18078 
L 40.407661 -114.31296 
z
" clip-path="url(#pc5ec3466f9)" style="fill: #eeeeee; stroke: #000000; stroke-width: 0.3"/>
    <path d="M 21.846366 -41.740151 
L 21.869757 -41.82124 
L 21.93901 -41.699843 
z
" clip-path="url(#pc5ec3466f9)" style="fill: #eeeeee; stroke: #000000; stroke-width: 0.3"/>
    <path d="M 0.462442 -80.021088 
L 0.539193 -79.989212 
L 0.617808 -79.860303 
z
" clip-path="url(#pc5ec3466f9)" style="fill: #eeeeee; stroke: #000000; stroke-width: 0.3"/>
    <path d="M 16.180547 60.046099 
L 16.254481 59.762039 
L 16.54648 59.649535 
L 16.770157 59.963593 
L 16.54648 60.357347 
L 16.288176 60.307661 
z
" clip-path="url(#pc5ec3466f9)" style="fill: #eeeeee; stroke: #000000; stroke-width: 0.3"/>
   </g>
   <g id="PatchCollection_2">
    <path d="M -3715.462695 32.33876 
L -3715.428999 32.020474 
L -3714.773425 31.793126 
L -3715.050911 32.085158 
L -3714.958255 32.499533 
L -3713.707459 32.819697 
L -3714.244179 32.335476 
L -3713.973249 32.383757 
L -3713.923637 32.099224 
L -3713.517006 32.590472 
L -3713.60919 31.777655 
L -3713.474892 31.86485 
L -3713.451961 31.620165 
L -3713.318595 31.700321 
L -3713.173061 32.087036 
L -3712.862352 31.562968 
L -3714.270848 30.751096 
L -3714.516525 30.934852 
L -3714.637253 30.676562 
L -3714.486578 30.563597 
L -3713.653178 30.724381 
L -3713.216589 31.069843 
L -3712.345744 31.270003 
L -3712.694358 31.763601 
L -3712.778125 32.563757 
L -3710.975624 33.679849 
L -3710.835242 34.202972 
L -3711.612959 34.262508 
L -3712.078091 33.83735 
L -3713.50109 33.472189 
L -3714.854374 32.544069 
L -3715.288618 32.529531 
z
" clip-path="url(#pc5ec3466f9)" style="fill: #ff6b6b; stroke: #dd0000; stroke-width: 0.8"/>
    <path d="M -3736.494727 9.509219 
L -3736.452142 9.042348 
L -3736.112878 8.688442 
L -3735.715608 8.775164 
L -3735.458236 9.312814 
L -3735.051592 9.362039 
L -3734.65431 9.99625 
L -3734.808734 10.233907 
L -3735.32955 10.400786 
L -3735.837267 10.233907 
L -3735.92852 10.000477 
L -3735.169514 10.155156 
L -3735.08201 9.788129 
L -3735.636993 9.40047 
L -3735.837267 8.968285 
L -3736.308012 9.203593 
L -3736.001511 9.761414 
z
" clip-path="url(#pc5ec3466f9)" style="fill: #ff6b6b; stroke: #dd0000; stroke-width: 0.8"/>
    <path d="M 89.21193 31.252666 
L 89.257781 31.037967 
L 89.285864 31.21329 
L 89.791236 31.267665 
L 89.582532 30.570163 
L 89.31113 30.454848 
L 89.339202 30.828442 
L 89.215668 30.994376 
L 89.236253 30.460009 
L 89.447763 30.284225 
L 89.911964 31.225006 
L 89.751928 31.402656 
z
" clip-path="url(#pc5ec3466f9)" style="fill: #ff6b6b; stroke: #dd0000; stroke-width: 0.8"/>
    <path d="M -3878.082567 86.098291 
L -3878.003952 85.784221 
L -3877.253847 86.22485 
L -3877.021281 86.569851 
L -3876.961848 86.902664 
L -3876.976362 87.049843 
L -3877.976812 86.511721 
L -3877.416689 86.663601 
L -3877.062923 86.971092 
L -3876.990403 86.897975 
L -3877.447578 86.17703 
L -3877.99834 85.943601 
z
" clip-path="url(#pc5ec3466f9)" style="fill: #ff6b6b; stroke: #dd0000; stroke-width: 0.8"/>
    <path d="M 109.395107 71.847348 
L 109.490569 71.279228 
L 109.769458 71.09735 
L 109.46436 71.506103 
L 109.572921 71.754532 
L 109.921075 71.357967 
L 109.690843 70.546095 
L 109.926687 70.546095 
L 109.947272 71.64485 
L 109.690843 71.883913 
z
" clip-path="url(#pc5ec3466f9)" style="fill: #ff6b6b; stroke: #dd0000; stroke-width: 0.8"/>
    <path d="M 86.13569 42.202656 
L 87.123974 42.87297 
L 86.954589 43.468289 
L 86.146915 44.387505 
L 86.787056 43.614536 
L 87.076248 42.91094 
L 86.544668 42.50266 
L 86.363105 42.438447 
L 86.29292 42.595937 
z
" clip-path="url(#pc5ec3466f9)" style="fill: #ff6b6b; stroke: #dd0000; stroke-width: 0.8"/>
    <path d="M 103.074174 61.466412 
L 103.48222 63.0911 
L 103.470053 63.274844 
L 103.310018 63.439845 
L 103.182735 63.237347 
L 103.310018 63.361094 
L 103.474734 63.155785 
L 103.231403 62.528602 
z
" clip-path="url(#pc5ec3466f9)" style="fill: #ff6b6b; stroke: #dd0000; stroke-width: 0.8"/>
    <path d="M 86.379952 38.593751 
L 87.225048 38.255789 
L 88.098227 38.160634 
L 87.898884 38.09876 
L 88.012126 38.027036 
L 88.22551 38.169539 
L 88.124436 38.37297 
L 87.154863 38.332662 
z
" clip-path="url(#pc5ec3466f9)" style="fill: #ff6b6b; stroke: #dd0000; stroke-width: 0.8"/>
    <path d="M 120.08566 68.801414 
L 120.489969 68.801414 
L 121.020606 69.70047 
L 120.961645 69.988285 
L 120.562028 69.752978 
L 120.961645 69.831729 
L 120.824069 69.467973 
z
" clip-path="url(#pc5ec3466f9)" style="fill: #ff6b6b; stroke: #dd0000; stroke-width: 0.8"/>
    <path d="M 83.379521 19.071729 
L 83.622852 19.165006 
L 84.285452 18.69954 
L 84.950871 18.599697 
L 84.872256 18.835476 
L 84.461404 18.751092 
L 83.60881 19.307969 
z
" clip-path="url(#pc5ec3466f9)" style="fill: #ff6b6b; stroke: #dd0000; stroke-width: 0.8"/>
    <path d="M -3883.921059 105.809219 
L -3883.586016 105.764221 
L -3883.842445 105.912346 
L -3883.603795 106.078291 
L -3883.286059 105.991096 
L -3883.620171 106.210472 
L -3883.892976 106.055781 
z
" clip-path="url(#pc5ec3466f9)" style="fill: #ff6b6b; stroke: #dd0000; stroke-width: 0.8"/>
    <path d="M 93.222173 51.512037 
L 93.480476 51.475473 
L 93.619915 51.78672 
L 93.38782 52.463601 
L 93.264286 52.352041 
L 93.591843 51.7511 
z
" clip-path="url(#pc5ec3466f9)" style="fill: #ff6b6b; stroke: #dd0000; stroke-width: 0.8"/>
    <path d="M 86.172192 34.277034 
L 86.524083 34.172974 
L 86.658841 33.914223 
L 86.565253 33.143593 
L 86.691605 33.927817 
L 86.587713 34.228282 
z
" clip-path="url(#pc5ec3466f9)" style="fill: #ff6b6b; stroke: #dd0000; stroke-width: 0.8"/>
    <path d="M 115.601867 74.957967 
L 116.052958 75.590784 
L 116.150295 75.831725 
L 115.993065 76.146728 
L 115.993065 75.551409 
z
" clip-path="url(#pc5ec3466f9)" style="fill: #ff6b6b; stroke: #dd0000; stroke-width: 0.8"/>
    <path d="M 105.992253 67.071721 
L 106.3067 67.229222 
L 106.70726 68.566095 
L 106.443344 68.486412 
L 106.338521 67.662351 
z
" clip-path="url(#pc5ec3466f9)" style="fill: #ff6b6b; stroke: #dd0000; stroke-width: 0.8"/>
    <path d="M 95.507586 48.995781 
L 95.822044 48.831252 
L 96.799103 49.397967 
L 96.849635 49.624842 
L 95.819238 48.973283 
z
" clip-path="url(#pc5ec3466f9)" style="fill: #ff6b6b; stroke: #dd0000; stroke-width: 0.8"/>
    <path d="M 129.632575 84.046095 
L 130.102388 84.118291 
L 130.536632 84.574852 
L 130.26523 84.599228 
z
" clip-path="url(#pc5ec3466f9)" style="fill: #ff6b6b; stroke: #dd0000; stroke-width: 0.8"/>
    <path d="M 85.664003 35.252974 
L 85.824038 35.33078 
L 86.057076 36.360634 
L 85.898915 36.282344 
z
" clip-path="url(#pc5ec3466f9)" style="fill: #ff6b6b; stroke: #dd0000; stroke-width: 0.8"/>
    <path d="M 84.950871 18.285166 
L 85.608791 17.972502 
L 85.814677 17.806095 
L 85.898915 17.963597 
z
" clip-path="url(#pc5ec3466f9)" style="fill: #ff6b6b; stroke: #dd0000; stroke-width: 0.8"/>
    <path d="M 46.260656 63.913283 
L 46.519902 63.767969 
L 46.636881 63.977967 
L 46.447831 64.075473 
z
" clip-path="url(#pc5ec3466f9)" style="fill: #ff6b6b; stroke: #dd0000; stroke-width: 0.8"/>
    <path d="M -3649.203347 185.569851 
L -3649.067646 185.165787 
L -3648.759742 185.957971 
L -3648.989031 186.032033 
z
" clip-path="url(#pc5ec3466f9)" style="fill: #ff6b6b; stroke: #dd0000; stroke-width: 0.8"/>
    <path d="M -3685.913695 100.622039 
L -3685.092462 100.448594 
L -3685.242676 101.172349 
L -3685.903402 100.778596 
z
" clip-path="url(#pc5ec3466f9)" style="fill: #ff6b6b; stroke: #dd0000; stroke-width: 0.8"/>
    <path d="M -3696.513938 118.61735 
L -3695.894853 118.621094 
L -3695.666968 118.801094 
L -3696.203228 118.91922 
z
" clip-path="url(#pc5ec3466f9)" style="fill: #ff6b6b; stroke: #dd0000; stroke-width: 0.8"/>
    <path d="M -3747.999027 -0.249684 
L -3747.893272 -0.409997 
L -3747.636843 -0.297032 
L -3747.826353 -0.199054 
z
" clip-path="url(#pc5ec3466f9)" style="fill: #ff6b6b; stroke: #dd0000; stroke-width: 0.8"/>
    <path d="M -3872.770042 105.196101 
L -3872.597852 105.164225 
L -3872.426109 105.385478 
L -3872.766305 105.439853 
z
" clip-path="url(#pc5ec3466f9)" style="fill: #ff6b6b; stroke: #dd0000; stroke-width: 0.8"/>
    <path d="M -3910.529992 107.686103 
L -3910.311456 107.734844 
L -3910.048483 108.002039 
L -3910.191671 107.869847 
z
" clip-path="url(#pc5ec3466f9)" style="fill: #ff6b6b; stroke: #dd0000; stroke-width: 0.8"/>
    <path d="M 125.301319 69.201723 
L 125.866595 69.826095 
L 126.087465 70.546095 
z
" clip-path="url(#pc5ec3466f9)" style="fill: #ff6b6b; stroke: #dd0000; stroke-width: 0.8"/>
    <path d="M 120.442232 82.681102 
L 120.672464 82.91922 
L 120.484345 82.774852 
z
" clip-path="url(#pc5ec3466f9)" style="fill: #ff6b6b; stroke: #dd0000; stroke-width: 0.8"/>
    <path d="M 102.13081 60.829851 
L 103.082604 61.427969 
L 102.778438 61.382039 
z
" clip-path="url(#pc5ec3466f9)" style="fill: #ff6b6b; stroke: #dd0000; stroke-width: 0.8"/>
    <path d="M 86.059882 44.423597 
L 86.138496 44.392666 
L 86.13569 44.491092 
z
" clip-path="url(#pc5ec3466f9)" style="fill: #ff6b6b; stroke: #dd0000; stroke-width: 0.8"/>
    <path d="M 85.898915 44.327036 
L 85.971906 44.327036 
L 86.048646 44.425002 
z
" clip-path="url(#pc5ec3466f9)" style="fill: #ff6b6b; stroke: #dd0000; stroke-width: 0.8"/>
    <path d="M 85.50023 31.620165 
L 86.520334 33.017034 
L 85.543275 31.845162 
z
" clip-path="url(#pc5ec3466f9)" style="fill: #ff6b6b; stroke: #dd0000; stroke-width: 0.8"/>
    <path d="M -3870.844007 90.235469 
L -3870.815936 89.952353 
L -3870.763058 89.841727 
z
" clip-path="url(#pc5ec3466f9)" style="fill: #ff6b6b; stroke: #dd0000; stroke-width: 0.8"/>
    <path d="M -3910.278704 107.957975 
L -3910.22302 107.962664 
L -3910.048483 108.113599 
z
" clip-path="url(#pc5ec3466f9)" style="fill: #ff6b6b; stroke: #dd0000; stroke-width: 0.8"/>
    <path d="M -3910.510798 107.830472 
L -3910.3489 107.957975 
L -3910.420488 107.922344 
z
" clip-path="url(#pc5ec3466f9)" style="fill: #ff6b6b; stroke: #dd0000; stroke-width: 0.8"/>
   </g>
  </g>
 </g>
 <defs>
  <clipPath id="pc5ec3466f9">
   <rect x="0" y="0" width="172.50136" height="108"/>
  </clipPath>
 </defs>
</svg>
