<?xml version="1.0" encoding="utf-8" standalone="no"?>
<!DOCTYPE svg PUBLIC "-//W3C//DTD SVG 1.1//EN"
  "http://www.w3.org/Graphics/SVG/1.1/DTD/svg11.dtd">
<svg xmlns:xlink="http://www.w3.org/1999/xlink" width="127.292378pt" height="108pt" viewBox="0 0 127.292378 108" xmlns="http://www.w3.org/2000/svg" version="1.1">
 <metadata>
  <rdf:RDF xmlns:dc="http://purl.org/dc/elements/1.1/" xmlns:cc="http://creativecommons.org/ns#" xmlns:rdf="http://www.w3.org/1999/02/22-rdf-syntax-ns#">
   <cc:Work>
    <dc:type rdf:resource="http://purl.org/dc/dcmitype/StillImage"/>
    <dc:date>2025-09-05T13:56:21.236867</dc:date>
    <dc:format>image/svg+xml</dc:format>
    <dc:creator>
     <cc:Agent>
      <dc:title>Matplotlib v3.10.3, https://matplotlib.org/</dc:title>
     </cc:Agent>
    </dc:creator>
   </cc:Work>
  </rdf:RDF>
 </metadata>
 <defs>
  <style type="text/css">*{stroke-linejoin: round; stroke-linecap: butt}</style>
 </defs>
 <g id="figure_1">
  <g id="patch_1">
   <path d="M 0 108 
L 127.292378 108 
L 127.292378 0 
L 0 0 
z
" style="fill: #ffffff"/>
  </g>
  <g id="axes_1">
   <g id="PatchCollection_1">
    <path d="M 54.941079 79.814063 
L 56.656061 78.898505 
L 56.006093 75.071471 
L 57.270797 71.494945 
L 59.843279 72.101572 
L 61.395774 66.124513 
L 67.335558 63.195114 
L 70.941724 65.927181 
L 73.735433 61.885561 
L 89.505057 58.711002 
L 94.47185 64.913961 
L 100.290271 67.733046 
L 103.53621 75.527257 
L 102.085531 78.202187 
L 102.234304 84.952604 
L 98.643804 85.842936 
L 97.764785 90.356927 
L 85.32528 90.043341 
L 76.486068 97.386421 
L 64.812023 97.820941 
L 60.113453 96.179854 
L 56.000221 87.89198 
L 56.759827 83.645057 
z
" clip-path="url(#p8fb049020d)" style="fill: #eeeeee; stroke: #000000; stroke-width: 0.3"/>
    <path d="M 32.738318 63.587797 
L 40.831618 51.395822 
L 42.444804 56.030774 
L 47.270647 53.89137 
L 51.031477 60.007286 
L 55.651739 62.30149 
L 57.87966 69.247901 
L 56.006093 75.071471 
L 56.656061 78.898505 
L 54.941079 79.814063 
L 56.759827 83.645057 
L 56.000221 87.89198 
L 60.113453 96.179854 
L 64.649536 96.654232 
L 64.402869 99.98426 
L 66.164828 103.211971 
L 64.273644 107.512045 
L 61.125599 108.811646 
L 58.793931 117.244344 
L 52.170877 119.999014 
L 54.048346 124.340283 
L 51.832188 124.703035 
L 52.143467 126.930151 
L 50.01541 128.996475 
L 46.319799 127.718474 
L 46.71289 123.116771 
L 44.755144 122.068347 
L 43.941229 118.496219 
L 36.606626 114.167627 
L 33.070339 108.852326 
L 36.581963 110.704296 
L 34.904771 105.69245 
L 36.196562 105.420392 
L 33.350913 102.867373 
L 34.80612 96.30696 
L 37.500704 95.9889 
L 36.970414 93.880558 
L 36.671371 95.132999 
L 36.067092 95.637334 
L 37.371214 87.35468 
L 35.034261 83.314834 
L 37.371214 80.746129 
L 35.937602 78.895188 
L 39.196384 78.38355 
L 38.792514 72.893521 
L 34.500883 72.030317 
L 34.641227 65.553115 
z
" clip-path="url(#p8fb049020d)" style="fill: #eeeeee; stroke: #000000; stroke-width: 0.3"/>
    <path d="M 47.184498 48.911589 
L 55.549943 46.234679 
L 55.23084 43.804934 
L 59.122826 40.323423 
L 57.969712 37.429227 
L 61.575877 35.754917 
L 62.41184 38.136164 
L 67.223969 40.187883 
L 70.405315 45.436738 
L 73.206848 46.453945 
L 72.64301 49.098969 
L 80.10788 51.583871 
L 75.244853 59.441185 
L 76.154767 61.900759 
L 72.417862 62.477556 
L 71.139463 65.883338 
L 67.335558 63.195114 
L 61.395774 66.124513 
L 59.436076 72.245083 
L 57.270797 71.494945 
L 56.013935 62.802456 
L 51.031477 60.007286 
L 47.758128 54.174407 
L 48.496197 51.439691 
z
" clip-path="url(#p8fb049020d)" style="fill: #eeeeee; stroke: #000000; stroke-width: 0.3"/>
    <path d="M 51.127401 -37.402792 
L 55.403121 -39.101042 
L 59.10521 -38.16553 
L 61.656155 -41.504867 
L 68.206754 -41.919459 
L 70.78706 -45.330564 
L 71.170793 -50.152844 
L 74.974679 -52.713501 
L 77.457109 -60.920966 
L 84.44234 -70.464599 
L 84.561753 -73.642475 
L 89.585335 -78.948468 
L 96.492258 -80.177612 
L 105.989261 -88.575132 
L 112.083729 -85.314867 
L 126.672829 -83.404011 
L 132.565637 -84.60726 
L 139.280712 -78.596336 
L 142.753751 -79.441462 
L 146.19741 -83.443868 
L 163.459822 -85.875618 
L 165.930508 -91.504505 
L 173.224083 -93.119029 
L 177.952032 -91.318488 
L 182.32074 -85.616495 
L 184.448797 -78.157804 
L 190.032295 -72.176786 
L 189.965732 -69.985541 
L 199.374653 -60.041974 
L 202.501161 -51.65708 
L 202.727276 -45.625558 
L 200.130339 -40.643798 
L 199.633065 -35.001616 
L 201.248201 -25.172298 
L 199.243478 -24.17304 
L 204.32186 -17.212641 
L 211.516574 -14.745019 
L 213.27071 -15.187537 
L 213.025994 -17.174121 
L 215.680705 -16.085814 
L 223.110342 -20.322092 
L 227.800122 -19.065022 
L 230.259898 -13.069861 
L 228.712196 -5.346981 
L 219.965555 -3.365257 
L 217.022769 -0.909541 
L 216.534114 -2.350313 
L 219.635655 -3.869591 
L 217.844412 -5.451612 
L 219.10383 -8.138552 
L 216.691335 -9.224621 
L 214.534732 -7.45216 
L 215.988404 -2.871388 
L 212.917682 0.110623 
L 215.071197 -1.626275 
L 216.392293 -1.220298 
L 216.773033 -0.559029 
L 212.421298 0.688192 
L 212.433629 4.841026 
L 215.587603 0.848263 
L 210.096676 8.6695 
L 210.790363 16.872621 
L 209.022229 23.458157 
L 202.25743 22.925794 
L 197.706648 20.679418 
L 196.40084 16.976661 
L 192.794674 18.123416 
L 191.122749 16.039837 
L 186.394799 16.41722 
L 179.644491 12.252686 
L 163.036953 16.486315 
L 156.036057 23.696503 
L 148.875609 25.804021 
L 112.535959 19.875486 
L 101.247617 20.931881 
L 101.192798 16.946086 
L 103.941463 14.412019 
L 97.496581 10.919862 
L 93.44796 4.875046 
L 95.407658 2.263913 
L 98.906155 1.818747 
L 92.482792 -2.060076 
L 86.811211 3.879774 
L 84.305292 -0.129292 
L 72.969955 -3.515145 
L 72.204476 -5.221341 
L 75.628568 -6.062481 
L 72.126169 -8.863643 
L 74.814142 -12.640175 
L 61.059036 -21.235001 
L 61.411439 -28.260483 
L 59.56136 -28.017303 
z
" clip-path="url(#p8fb049020d)" style="fill: #eeeeee; stroke: #000000; stroke-width: 0.3"/>
    <path d="M 46.524831 127.543745 
L 51.188092 128.330732 
L 51.832188 124.703035 
L 54.048346 124.340283 
L 52.170877 119.999014 
L 58.793931 117.244344 
L 61.125599 108.811646 
L 65.826139 105.288941 
L 64.812023 97.820941 
L 76.486068 97.386421 
L 85.32528 90.043341 
L 97.764785 90.356927 
L 99.20569 85.336647 
L 114.955728 84.407795 
L 126.715904 79.501788 
L 131.960695 79.505774 
L 133.291962 82.620522 
L 136.96666 84.997784 
L 139.086894 83.646368 
L 146.651609 87.792311 
L 162.471165 84.747969 
L 163.271876 80.341592 
L 161.092921 76.228897 
L 164.466114 74.670842 
L 171.46112 78.199539 
L 172.236391 83.672957 
L 171.731294 85.444287 
L 166.253532 87.616914 
L 166.983759 94.856339 
L 161.727224 100.748335 
L 160.292891 98.989734 
L 161.203942 98.294984 
L 151.426005 97.280041 
L 143.861707 93.68909 
L 137.489033 97.716361 
L 134.205569 97.584524 
L 131.865528 94.935256 
L 124.382928 100.946335 
L 117.214809 100.329012 
L 116.618239 102.34005 
L 120.684798 105.805438 
L 118.944414 106.62575 
L 119.799964 109.029138 
L 122.343483 109.72705 
L 122.513055 108.112577 
L 129.756697 115.741266 
L 127.979319 116.369055 
L 125.497457 112.583498 
L 121.094843 110.272167 
L 117.191681 110.432265 
L 116.923457 113.097244 
L 122.130761 116.609715 
L 122.130761 120.855686 
L 119.013781 119.434765 
L 116.149606 114.058804 
L 111.660671 112.483032 
L 109.796973 113.80035 
L 110.242459 115.793594 
L 117.52158 121.449995 
L 110.185424 120.663163 
L 109.020034 113.608881 
L 101.236839 109.729133 
L 99.975867 106.750259 
L 103.035811 105.450735 
L 101.659215 103.087102 
L 95.382105 107.6229 
L 96.935963 110.172782 
L 95.234127 118.267079 
L 109.86634 140.757683 
L 107.211818 142.688133 
L 104.339953 142.863916 
L 107.46771 140.757683 
L 105.904589 137.741164 
L 102.14018 136.104706 
L 100.062187 139.6873 
L 103.3179 143.582734 
L 102.67047 145.145932 
L 104.7392 144.443855 
L 99.414757 148.514043 
L 96.186794 147.575497 
L 94.358537 149.024652 
L 104.15034 151.889457 
L 105.334236 154.674753 
L 109.149524 154.308556 
L 108.761055 156.782041 
L 110.583137 157.325075 
L 109.699856 158.141222 
L 114.099383 158.205044 
L 114.218075 159.431308 
L 116.10028 161.92575 
L 121.369241 163.61032 
L 123.823353 166.822499 
L 122.089126 167.937883 
L 123.952843 176.61394 
L 122.916925 180.052149 
L 113.977603 171.790426 
L 114.238116 169.88821 
L 103.262418 174.121607 
L 106.809483 175.998726 
L 105.645629 177.753393 
L 106.54895 181.012655 
L 109.732228 183.036242 
L 109.268217 180.930009 
L 110.906861 180.40266 
L 110.842116 183.563591 
L 113.311647 185.511835 
L 108.330969 186.493273 
L 106.54895 189.103841 
L 104.7392 187.671425 
L 105.855263 185.269092 
L 98.172273 182.242082 
L 105.516139 202.42871 
L 104.030094 205.829221 
L 107.068463 211.397731 
L 102.832332 209.142921 
L 99.31764 202.116899 
L 97.398421 201.704647 
L 95.349733 202.384765 
L 93.581598 206.920536 
L 93.712623 212.46706 
L 91.127487 209.356375 
L 91.761051 204.360189 
L 87.023934 198.936091 
L 87.313732 196.260646 
L 83.335047 196.977381 
L 83.848366 202.077144 
L 82.188146 203.837031 
L 78.869222 201.484918 
L 78.918567 198.279013 
L 76.260958 193.817504 
L 78.252611 186.623028 
L 67.481945 174.226239 
L 71.644067 170.540068 
L 72.55974 165.41729 
L 77.258328 167.111297 
L 81.560738 162.314962 
L 100.839126 172.6463 
L 102.887814 171.631383 
L 100.996366 169.823358 
L 106.629114 169.046966 
L 107.586403 166.996199 
L 99.673736 165.255135 
L 96.658496 161.063575 
L 95.067643 163.54336 
L 92.020031 159.431308 
L 91.65469 162.279399 
L 87.996641 162.783733 
L 83.614068 160.504829 
L 75.277453 163.484757 
L 71.579323 158.329553 
L 71.846012 160.916052 
L 68.417658 163.276548 
L 65.245177 154.016621 
L 62.815729 150.428807 
L 60.34311 150.26871 
L 61.77981 148.777718 
L 61.109252 146.431879 
L 67.084232 148.865609 
L 68.830771 148.564263 
L 68.499356 145.43473 
L 67.084232 143.758517 
L 66.575516 145.145932 
L 62.532086 144.427115 
L 62.106622 142.432842 
L 60.605177 144.618609 
L 62.283904 146.310507 
L 61.044507 145.952641 
L 60.452559 146.659965 
L 55.666097 138.108416 
L 50.998347 135.107582 
L 51.527103 132.298217 
L 49.057572 131.755157 
L 49.971691 129.319344 
z
" clip-path="url(#p8fb049020d)" style="fill: #eeeeee; stroke: #000000; stroke-width: 0.3"/>
    <path d="M 113.171379 240.67056 
L 114.347565 233.42481 
L 116.963539 235.046611 
L 117.401334 230.569416 
L 118.833412 234.48159 
L 125.762593 233.175792 
L 125.762593 235.036145 
L 123.659956 235.419108 
L 127.079066 235.91506 
L 128.739305 239.276871 
L 135.953662 237.248064 
L 149.832065 240.67056 
L 155.756165 239.602285 
L 154.740288 243.532254 
L 156.303409 245.273318 
L 161.328791 242.234813 
L 163.580977 242.906548 
L 166.264784 240.127526 
L 165.438519 245.661501 
L 162.970523 248.175794 
L 141.600296 249.992201 
L 136.286631 249.992201 
L 136.368329 246.248482 
L 129.913938 243.319854 
z
" clip-path="url(#p8fb049020d)" style="fill: #eeeeee; stroke: #000000; stroke-width: 0.3"/>
    <path d="M 100.205561 149.35215 
L 109.020034 144.284812 
L 114.606545 151.285737 
L 125.244653 154.308556 
L 127.079066 165.228958 
L 133.42863 166.996199 
L 133.030917 171.401188 
L 129.338943 171.81344 
L 126.160306 168.768661 
L 123.097293 160.766421 
L 115.651707 160.659706 
L 114.987305 156.744369 
L 107.187155 149.750798 
z
" clip-path="url(#p8fb049020d)" style="fill: #eeeeee; stroke: #000000; stroke-width: 0.3"/>
    <path d="M 157.189797 139.513625 
L 163.280381 135.634905 
L 167.041722 135.634905 
L 171.780374 144.110083 
L 170.399175 144.879121 
L 169.449577 142.453773 
L 168.459916 142.715339 
L 170.545618 145.688993 
L 163.320463 144.800666 
L 161.84675 143.231194 
L 165.486311 140.325555 
L 161.393536 143.039699 
z
" clip-path="url(#p8fb049020d)" style="fill: #eeeeee; stroke: #000000; stroke-width: 0.3"/>
    <path d="M 53.070164 166.408165 
L 54.102995 161.729036 
L 56.563282 162.413319 
L 56.714347 158.903985 
L 58.471684 164.457837 
L 59.439769 163.836323 
L 61.637989 167.715017 
L 60.423274 169.486424 
L 56.184056 168.242366 
L 54.963166 163.989091 
L 54.58396 166.583948 
z
" clip-path="url(#p8fb049020d)" style="fill: #eeeeee; stroke: #000000; stroke-width: 0.3"/>
    <path d="M 39.452276 126.136453 
L 45.542879 125.053495 
L 43.591289 128.594252 
L 45.15441 129.297358 
L 45.325516 133.214778 
L 48.27139 134.228667 
L 48.530369 136.000074 
L 44.856883 134.311313 
z
" clip-path="url(#p8fb049020d)" style="fill: #eeeeee; stroke: #000000; stroke-width: 0.3"/>
    <path d="M 141.871588 119.784248 
L 146.641096 120.861961 
L 149.761145 118.731659 
L 147.849655 125.122564 
L 145.987491 121.757616 
L 145.303048 124.717641 
L 142.130567 123.838726 
z
" clip-path="url(#p8fb049020d)" style="fill: #eeeeee; stroke: #000000; stroke-width: 0.3"/>
    <path d="M 192.085417 218.453042 
L 196.16586 213.772884 
L 202.60792 211.397731 
L 199.763786 221.102335 
L 193.002642 224.702698 
L 193.4651 220.350037 
z
" clip-path="url(#p8fb049020d)" style="fill: #eeeeee; stroke: #000000; stroke-width: 0.3"/>
    <path d="M 171.173007 177.75653 
L 175.456929 175.860588 
L 180.409875 176.892272 
L 175.285823 180.227932 
L 173.597853 178.456525 
L 171.516772 179.391934 
z
" clip-path="url(#p8fb049020d)" style="fill: #eeeeee; stroke: #000000; stroke-width: 0.3"/>
    <path d="M 157.319286 156.1668 
L 163.280381 157.133607 
L 162.304586 165.36707 
L 160.36688 167.061076 
L 158.094672 165.41729 
L 159.973789 161.337715 
z
" clip-path="url(#p8fb049020d)" style="fill: #eeeeee; stroke: #000000; stroke-width: 0.3"/>
    <path d="M 128.491103 205.78111 
L 129.007528 203.131817 
L 130.376396 204.535972 
L 130.041893 202.956034 
L 132.400422 202.770839 
L 132.640914 204.808029 
z
" clip-path="url(#p8fb049020d)" style="fill: #eeeeee; stroke: #000000; stroke-width: 0.3"/>
    <path d="M 58.262049 174.577805 
L 59.957729 173.013578 
L 65.220514 178.036944 
L 65.400883 178.823776 
L 63.46009 177.944861 
L 61.967889 180.052149 
z
" clip-path="url(#p8fb049020d)" style="fill: #eeeeee; stroke: #000000; stroke-width: 0.3"/>
    <path d="M 180.409875 233.089984 
L 183.309491 226.910451 
L 182.093223 231.931709 
L 183.138385 234.844676 
L 181.704754 237.84551 
z
" clip-path="url(#p8fb049020d)" style="fill: #eeeeee; stroke: #000000; stroke-width: 0.3"/>
    <path d="M 177.565741 204.104897 
L 184.445596 199.173614 
L 185.863808 200.322452 
L 178.973156 203.141254 
L 178.610903 205.062292 
z
" clip-path="url(#p8fb049020d)" style="fill: #eeeeee; stroke: #000000; stroke-width: 0.3"/>
    <path d="M 177.037003 194.496567 
L 179.962817 196.902038 
L 177.450136 198.199479 
L 178.250184 196.088026 
L 177.554963 195.734351 
z
" clip-path="url(#p8fb049020d)" style="fill: #eeeeee; stroke: #000000; stroke-width: 0.3"/>
    <path d="M 170.342139 187.221528 
L 171.524482 187.666205 
L 170.57799 188.408037 
L 170.935622 189.74315 
L 170.531733 189.678273 
z
" clip-path="url(#p8fb049020d)" style="fill: #eeeeee; stroke: #000000; stroke-width: 0.3"/>
    <path d="M 165.134836 207.40916 
L 167.830973 207.361048 
L 167.041722 206.116964 
L 169.008713 207.535777 
L 165.882489 209.321841 
z
" clip-path="url(#p8fb049020d)" style="fill: #eeeeee; stroke: #000000; stroke-width: 0.3"/>
    <path d="M 155.238206 202.077144 
L 160.292891 198.376316 
L 161.597033 199.549223 
L 157.901971 202.077144 
L 155.551133 202.720619 
z
" clip-path="url(#p8fb049020d)" style="fill: #eeeeee; stroke: #000000; stroke-width: 0.3"/>
    <path d="M 148.090128 213.345975 
L 149.512962 212.46706 
L 148.477063 210.186099 
L 150.316098 211.606994 
L 150.049428 213.714281 
z
" clip-path="url(#p8fb049020d)" style="fill: #eeeeee; stroke: #000000; stroke-width: 0.3"/>
    <path d="M 132.08596 103.228351 
L 134.462995 98.989734 
L 137.193059 100.761141 
L 137.074347 103.919989 
L 134.462995 104.989318 
z
" clip-path="url(#p8fb049020d)" style="fill: #eeeeee; stroke: #000000; stroke-width: 0.3"/>
    <path d="M 130.559852 148.514043 
L 131.031554 146.207959 
L 135.111979 150.26871 
L 133.030917 151.48348 
L 132.84748 149.344821 
z
" clip-path="url(#p8fb049020d)" style="fill: #eeeeee; stroke: #000000; stroke-width: 0.3"/>
    <path d="M 60.488019 154.321105 
L 61.699665 153.984196 
L 60.916552 154.958305 
L 61.682693 155.779671 
L 60.76704 154.992839 
z
" clip-path="url(#p8fb049020d)" style="fill: #eeeeee; stroke: #000000; stroke-width: 0.3"/>
    <path d="M 159.733316 183.536385 
L 161.58777 180.40266 
L 167.041722 179.158602 
L 164.550597 182.113382 
z
" clip-path="url(#p8fb049020d)" style="fill: #eeeeee; stroke: #000000; stroke-width: 0.3"/>
    <path d="M 149.640918 107.271334 
L 152.147443 106.426953 
L 154.322534 108.150249 
L 151.982493 109.379675 
z
" clip-path="url(#p8fb049020d)" style="fill: #eeeeee; stroke: #000000; stroke-width: 0.3"/>
    <path d="M 147.71399 194.67235 
L 151.205573 191.759408 
L 152.241472 196.348537 
L 149.761145 198.902611 
z
" clip-path="url(#p8fb049020d)" style="fill: #eeeeee; stroke: #000000; stroke-width: 0.3"/>
    <path d="M 146.409867 204.008649 
L 147.054228 202.077144 
L 148.995003 204.201172 
L 148.309025 205.709958 
z
" clip-path="url(#p8fb049020d)" style="fill: #eeeeee; stroke: #000000; stroke-width: 0.3"/>
    <path d="M 143.197305 196.4741 
L 145.762418 192.900918 
L 146.795249 192.900918 
L 144.809752 197.183507 
z
" clip-path="url(#p8fb049020d)" style="fill: #eeeeee; stroke: #000000; stroke-width: 0.3"/>
    <path d="M 135.435703 171.971429 
L 137.054306 171.085211 
L 140.365521 173.508475 
L 140.434888 179.158602 
z
" clip-path="url(#p8fb049020d)" style="fill: #eeeeee; stroke: #000000; stroke-width: 0.3"/>
    <path d="M 127.513774 183.133545 
L 127.777375 180.211192 
L 129.395979 179.158602 
L 129.793711 180.742706 
z
" clip-path="url(#p8fb049020d)" style="fill: #eeeeee; stroke: #000000; stroke-width: 0.3"/>
    <path d="M 111.395535 177.216632 
L 111.417111 177.051315 
L 113.700116 176.892272 
L 112.525464 179.349017 
z
" clip-path="url(#p8fb049020d)" style="fill: #eeeeee; stroke: #000000; stroke-width: 0.3"/>
    <path d="M 111.090299 173.698915 
L 112.78291 171.943194 
L 111.489565 171.401188 
L 114.218075 172.3115 
z
" clip-path="url(#p8fb049020d)" style="fill: #eeeeee; stroke: #000000; stroke-width: 0.3"/>
    <path d="M 110.444403 189.022224 
L 112.137014 187.617014 
L 114.477055 187.267557 
L 112.765956 188.576492 
z
" clip-path="url(#p8fb049020d)" style="fill: #eeeeee; stroke: #000000; stroke-width: 0.3"/>
    <path d="M 101.491196 213.819967 
L 102.305129 212.50684 
L 105.321904 216.420069 
L 103.179166 218.996102 
z
" clip-path="url(#p8fb049020d)" style="fill: #eeeeee; stroke: #000000; stroke-width: 0.3"/>
    <path d="M 58.262049 158.712491 
L 60.876488 161.537567 
L 60.993628 162.783733 
L 59.556928 162.432167 
z
" clip-path="url(#p8fb049020d)" style="fill: #eeeeee; stroke: #000000; stroke-width: 0.3"/>
    <path d="M 193.520583 207.71156 
L 195.072907 205.941181 
L 195.092948 208.945178 
z
" clip-path="url(#p8fb049020d)" style="fill: #eeeeee; stroke: #000000; stroke-width: 0.3"/>
    <path d="M 188.953037 216.943226 
L 190.801335 216.280903 
L 190.842951 216.654429 
z
" clip-path="url(#p8fb049020d)" style="fill: #eeeeee; stroke: #000000; stroke-width: 0.3"/>
    <path d="M 184.750813 210.558596 
L 185.863808 210.186099 
L 187.235763 212.614609 
z
" clip-path="url(#p8fb049020d)" style="fill: #eeeeee; stroke: #000000; stroke-width: 0.3"/>
    <path d="M 181.581439 207.874794 
L 181.72326 207.088991 
L 182.874784 207.906166 
z
" clip-path="url(#p8fb049020d)" style="fill: #eeeeee; stroke: #000000; stroke-width: 0.3"/>
    <path d="M 176.252355 238.658493 
L 177.234307 237.318161 
L 179.258352 238.005581 
z
" clip-path="url(#p8fb049020d)" style="fill: #eeeeee; stroke: #000000; stroke-width: 0.3"/>
    <path d="M 174.818743 192.107812 
L 176.278571 191.988549 
L 176.281659 194.273702 
z
" clip-path="url(#p8fb049020d)" style="fill: #eeeeee; stroke: #000000; stroke-width: 0.3"/>
    <path d="M 156.024389 193.617653 
L 157.04951 193.267141 
L 157.089592 194.173262 
z
" clip-path="url(#p8fb049020d)" style="fill: #eeeeee; stroke: #000000; stroke-width: 0.3"/>
    <path d="M 155.378493 213.314578 
L 155.783916 212.192946 
L 157.437979 213.170192 
z
" clip-path="url(#p8fb049020d)" style="fill: #eeeeee; stroke: #000000; stroke-width: 0.3"/>
    <path d="M 153.545614 199.078394 
L 154.203841 199.603634 
L 154.006519 199.90498 
z
" clip-path="url(#p8fb049020d)" style="fill: #eeeeee; stroke: #000000; stroke-width: 0.3"/>
    <path d="M 151.150072 155.729451 
L 153.036899 156.20028 
L 151.862266 157.325075 
z
" clip-path="url(#p8fb049020d)" style="fill: #eeeeee; stroke: #000000; stroke-width: 0.3"/>
    <path d="M 149.705662 200.472083 
L 150.300679 200.130983 
L 150.289901 201.044432 
z
" clip-path="url(#p8fb049020d)" style="fill: #eeeeee; stroke: #000000; stroke-width: 0.3"/>
    <path d="M 147.054228 186.212859 
L 147.162124 184.251012 
L 150.007793 184.718729 
z
" clip-path="url(#p8fb049020d)" style="fill: #eeeeee; stroke: #000000; stroke-width: 0.3"/>
    <path d="M 142.515949 206.116964 
L 143.221986 204.535972 
L 144.714188 204.360189 
z
" clip-path="url(#p8fb049020d)" style="fill: #eeeeee; stroke: #000000; stroke-width: 0.3"/>
    <path d="M 141.729785 196.6028 
L 142.617707 195.720748 
L 142.130567 197.596813 
z
" clip-path="url(#p8fb049020d)" style="fill: #eeeeee; stroke: #000000; stroke-width: 0.3"/>
    <path d="M 140.952847 179.349017 
L 146.150888 181.633141 
L 145.330798 183.102174 
z
" clip-path="url(#p8fb049020d)" style="fill: #eeeeee; stroke: #000000; stroke-width: 0.3"/>
    <path d="M 140.795606 131.55114 
L 142.136742 131.353371 
L 140.952847 133.368601 
z
" clip-path="url(#p8fb049020d)" style="fill: #eeeeee; stroke: #000000; stroke-width: 0.3"/>
    <path d="M 139.001275 187.457997 
L 139.257167 183.679743 
L 140.558221 186.47445 
z
" clip-path="url(#p8fb049020d)" style="fill: #eeeeee; stroke: #000000; stroke-width: 0.3"/>
    <path d="M 138.224336 205.413832 
L 140.252984 206.465393 
L 140.552046 207.185265 
z
" clip-path="url(#p8fb049020d)" style="fill: #eeeeee; stroke: #000000; stroke-width: 0.3"/>
    <path d="M 134.792895 181.199958 
L 135.861167 180.578443 
L 135.899714 181.542113 
z
" clip-path="url(#p8fb049020d)" style="fill: #eeeeee; stroke: #000000; stroke-width: 0.3"/>
    <path d="M 134.462995 195.550211 
L 136.803036 198.111587 
L 135.757893 199.268808 
z
" clip-path="url(#p8fb049020d)" style="fill: #eeeeee; stroke: #000000; stroke-width: 0.3"/>
    <path d="M 133.8171 202.42871 
L 134.9085 202.600302 
L 134.78672 203.219708 
z
" clip-path="url(#p8fb049020d)" style="fill: #eeeeee; stroke: #000000; stroke-width: 0.3"/>
    <path d="M 132.169193 201.501658 
L 132.938422 200.774458 
L 133.146541 202.412999 
z
" clip-path="url(#p8fb049020d)" style="fill: #eeeeee; stroke: #000000; stroke-width: 0.3"/>
    <path d="M 130.300873 193.617653 
L 132.156861 191.56164 
L 132.381934 193.459664 
z
" clip-path="url(#p8fb049020d)" style="fill: #eeeeee; stroke: #000000; stroke-width: 0.3"/>
    <path d="M 129.266508 188.846441 
L 130.559852 184.282409 
L 131.440065 186.20031 
z
" clip-path="url(#p8fb049020d)" style="fill: #eeeeee; stroke: #000000; stroke-width: 0.3"/>
    <path d="M 123.175904 252.1152 
L 123.823353 251.603537 
L 124.859271 252.990952 
z
" clip-path="url(#p8fb049020d)" style="fill: #eeeeee; stroke: #000000; stroke-width: 0.3"/>
    <path d="M 123.148154 136.595438 
L 124.077711 136.890483 
L 123.493472 137.739056 
z
" clip-path="url(#p8fb049020d)" style="fill: #eeeeee; stroke: #000000; stroke-width: 0.3"/>
    <path d="M 119.961826 200.824703 
L 120.194589 201.066392 
L 120.105182 201.116612 
z
" clip-path="url(#p8fb049020d)" style="fill: #eeeeee; stroke: #000000; stroke-width: 0.3"/>
    <path d="M 119.143271 141.618804 
L 121.483312 137.932633 
L 120.324079 141.217018 
z
" clip-path="url(#p8fb049020d)" style="fill: #eeeeee; stroke: #000000; stroke-width: 0.3"/>
    <path d="M 114.477055 140.038866 
L 118.36942 142.17755 
L 116.932701 143.391265 
z
" clip-path="url(#p8fb049020d)" style="fill: #eeeeee; stroke: #000000; stroke-width: 0.3"/>
    <path d="M 112.076891 141.98711 
L 112.266504 139.878768 
L 113.06964 140.785943 
z
" clip-path="url(#p8fb049020d)" style="fill: #eeeeee; stroke: #000000; stroke-width: 0.3"/>
    <path d="M 111.873413 198.627416 
L 112.206381 199.212314 
L 112.141636 199.274054 
z
" clip-path="url(#p8fb049020d)" style="fill: #eeeeee; stroke: #000000; stroke-width: 0.3"/>
    <path d="M 111.619055 183.387808 
L 112.841479 183.109477 
L 113.311647 183.387808 
z
" clip-path="url(#p8fb049020d)" style="fill: #eeeeee; stroke: #000000; stroke-width: 0.3"/>
    <path d="M 108.95529 226.130922 
L 109.619692 225.99281 
L 109.667483 226.912534 
z
" clip-path="url(#p8fb049020d)" style="fill: #eeeeee; stroke: #000000; stroke-width: 0.3"/>
    <path d="M 105.143088 189.741041 
L 106.356269 189.82685 
L 106.430258 190.52579 
z
" clip-path="url(#p8fb049020d)" style="fill: #eeeeee; stroke: #000000; stroke-width: 0.3"/>
    <path d="M 79.686243 204.201172 
L 80.245818 203.298188 
L 80.204202 204.535972 
z
" clip-path="url(#p8fb049020d)" style="fill: #eeeeee; stroke: #000000; stroke-width: 0.3"/>
    <path d="M 78.745908 202.177584 
L 79.285442 202.077144 
L 79.038794 202.42871 
z
" clip-path="url(#p8fb049020d)" style="fill: #eeeeee; stroke: #000000; stroke-width: 0.3"/>
    <path d="M 63.46009 156.973509 
L 64.184615 155.585065 
L 63.719069 156.973509 
z
" clip-path="url(#p8fb049020d)" style="fill: #eeeeee; stroke: #000000; stroke-width: 0.3"/>
    <path d="M 63.019207 156.112389 
L 63.355263 154.917496 
L 64.364965 154.958305 
z
" clip-path="url(#p8fb049020d)" style="fill: #eeeeee; stroke: #000000; stroke-width: 0.3"/>
    <path d="M 56.843837 156.446186 
L 59.527643 149.231807 
L 60.090306 154.967716 
z
" clip-path="url(#p8fb049020d)" style="fill: #eeeeee; stroke: #000000; stroke-width: 0.3"/>
    <path d="M 49.150049 139.99492 
L 50.128932 140.166512 
L 50.352451 140.757683 
z
" clip-path="url(#p8fb049020d)" style="fill: #eeeeee; stroke: #000000; stroke-width: 0.3"/>
    <path d="M -207.247859 -11.569148 
L -197.669593 -15.574203 
L -196.678966 -19.475628 
L -200.048258 -22.052227 
L -200.416307 -25.384904 
L -203.852143 -28.900975 
L -199.304298 -32.701421 
L -196.814063 -31.448337 
L -189.472508 -34.214939 
L -183.740236 -32.545952 
L -178.685342 -37.887816 
L -179.125827 -41.612507 
L -173.219324 -46.250776 
L -172.481255 -40.675683 
L -165.45687 -36.931064 
L -166.234093 -34.188376 
L -164.282219 -33.262172 
L -163.732095 -30.159382 
L -161.791965 -30.013196 
L -160.642771 -32.025057 
L -161.797837 -35.634137 
L -157.578906 -40.568043 
L -156.490404 -47.412831 
L -153.604691 -47.437414 
L -151.676305 -42.302165 
L -144.440486 -44.167172 
L -141.4608 -40.28102 
L -139.884817 -41.372001 
L -141.157344 -43.082182 
L -140.229378 -44.983729 
L -142.396589 -46.098624 
L -142.275207 -48.328389 
L -139.256368 -50.741522 
L -134.485344 -48.450635 
L -134.199523 -50.657822 
L -135.90276 -51.913554 
L -134.299368 -56.851446 
L -124.011428 -54.400436 
L -120.648008 -59.408117 
L -110.033123 -59.582177 
L -101.589371 -62.528856 
L -102.607407 -57.994241 
L -99.960539 -56.947129 
L -97.339109 -52.36934 
L -72.790965 -47.988214 
L -79.149716 -42.088221 
L -78.300058 -39.97142 
L -73.994978 -39.261808 
L -77.321175 -34.787673 
L -74.592078 -34.248162 
L -75.347763 -30.260362 
L -71.317763 -28.0253 
L -69.121172 -25.156355 
L -70.009985 -23.943154 
L -72.586179 -24.162909 
L -70.76101 -24.705943 
L -75.191375 -29.213481 
L -78.45942 -26.277524 
L -79.071409 -28.05626 
L -83.808526 -28.759392 
L -84.459044 -25.41535 
L -96.985532 -20.173309 
L -93.991886 -23.126005 
L -97.495781 -22.775493 
L -102.084921 -16.969486 
L -100.645133 -14.16115 
L -99.189927 -14.841268 
L -98.024519 -9.191141 
L -98.024519 -10.59635 
L -94.898295 -8.138552 
L -96.589353 -4.293337 
L -97.303081 -6.113936 
L -97.127353 -3.850743 
L -99.965312 -4.451326 
L -98.024519 10.35929 
L -91.910805 17.046321 
L -74.408261 28.106943 
L -65.698615 52.835618 
L -53.691639 63.721511 
L -53.09507 66.057939 
L -45.05136 70.09043 
L -26.58073 70.293419 
L -25.749844 73.901136 
L -31.13441 78.14289 
L -29.978265 82.133544 
L -9.21692 91.843368 
L -1.281125 98.31589 
L 8.775814 102.930168 
L 18.419639 116.082366 
L 16.014853 124.366075 
L 9.998257 121.937564 
L 6.050391 112.317715 
L -0.599769 111.85316 
L -6.506916 108.852326 
L -4.176119 106.844425 
L -10.752291 106.995111 
L -17.786298 117.490712 
L -17.277602 120.531326 
L -19.964477 125.442732 
L -18.900827 128.38288 
L -7.293099 134.931799 
L -7.034119 146.392099 
L -18.148551 150.575276 
L -18.452235 160.046549 
L -26.031952 167.408451 
L -27.780045 172.636889 
L -35.219475 172.286377 
L -36.196805 165.426727 
L -32.786939 163.361277 
L -30.798354 157.802204 
L -32.336812 154.402722 
L -26.351036 152.296489 
L -25.042291 149.064406 
L -33.514533 122.46283 
L -36.358667 117.662304 
L -40.415698 119.817574 
L -43.235434 118.907442 
L -45.774332 115.30078 
L -49.867107 113.448784 
L -48.216775 109.439564 
L -52.313509 102.437353 
L -60.636239 104.989318 
L -58.145114 100.899252 
L -61.553446 98.094079 
L -66.222787 99.358785 
L -66.721975 95.958326 
L -72.395032 87.458257 
L -75.764816 88.63538 
L -80.654552 86.343927 
L -85.223651 88.097566 
L -88.084738 83.680003 
L -92.977543 82.441165 
L -100.483271 75.015439 
L -104.625353 68.412135 
L -108.278779 67.355354 
L -111.485167 61.050258 
L -116.818873 57.771093 
L -121.933662 58.172879 
L -120.38363 55.884177 
L -120.951711 53.730218 
L -125.021357 49.128515 
L -129.043212 47.548577 
L -128.432757 44.620978 
L -133.433495 44.049683 
L -132.890873 36.174034 
L -136.886511 29.852198 
L -138.128996 20.749232 
L -141.179677 16.152749 
L -145.83665 14.011981 
L -146.0725 15.717483 
L -157.469041 7.710023 
L -157.846713 8.954081 
L -166.339015 5.693764 
L -171.951722 8.981286 
L -179.497514 19.462257 
L -190.208076 22.148167 
L -190.670648 20.263489 
L -186.653358 15.073776 
L -187.303327 12.277937 
L -193.27054 13.625367 
L -200.22641 10.390996 
L -202.834125 3.073168 
L -200.482871 -0.761812 
L -198.677837 -0.805681 
L -199.629291 -4.485192 
L -204.545186 -6.538222 
z
M -96.42948 70.704668 
L -96.410461 70.734573 
L -96.411446 70.706031 
z
M -97.516334 18.131927 
L -95.951072 18.938611 
L -95.877708 17.253578 
z
" clip-path="url(#p8fb049020d)" style="fill: #eeeeee; stroke: #000000; stroke-width: 0.3"/>
    <path d="M -177.989894 104.408612 
L -177.123566 94.879791 
L -174.903752 97.788567 
L -170.920445 98.397507 
L -165.199823 95.302508 
L -157.469041 87.194582 
L -153.83719 89.300815 
L -153.44872 91.582857 
L -151.238169 90.704996 
L -152.14151 93.530047 
L -149.286597 93.880558 
L -152.286419 95.827748 
L -148.124277 97.93609 
L -149.376005 99.094365 
L -146.678314 107.949343 
L -149.977197 112.897392 
L -147.967037 117.504315 
L -151.108679 141.539295 
L -152.015108 142.688133 
L -161.574128 138.590765 
L -160.325487 139.601517 
L -161.350609 145.497498 
L -164.617119 148.514043 
L -167.206896 147.109888 
L -168.638974 148.865609 
L -170.180501 143.918614 
L -173.718322 139.666368 
L -172.369477 125.91045 
L -170.988259 127.321908 
L -170.063342 127.349114 
L -171.225663 126.823873 
L -170.263752 123.450542 
L -173.306724 121.908276 
L -173.635071 118.794428 
L -171.498508 116.975938 
L -173.58421 107.610351 
L -175.258296 104.353146 
z
" clip-path="url(#p8fb049020d)" style="fill: #eeeeee; stroke: #000000; stroke-width: 0.3"/>
    <path d="M -96.922321 176.310512 
L -95.673681 170.540068 
L -91.664176 168.241312 
L -91.149305 166.134024 
L -87.941364 170.36953 
L -84.906102 168.944444 
L -84.156913 166.203093 
L -80.042563 165.41729 
L -78.655189 168.438026 
L -71.089356 171.769494 
L -66.737621 169.82125 
L -57.432939 169.94995 
L -49.944183 166.264807 
L -46.518898 167.793497 
L -43.691717 164.282054 
L -42.655818 165.767827 
L -35.840708 164.012106 
L -44.148019 177.224989 
L -46.449531 184.52726 
L -46.222924 188.325392 
L -43.411162 190.178416 
L -44.709129 191.470611 
L -41.888142 196.506552 
L -45.183937 198.754033 
L -46.404827 205.678561 
L -57.895397 202.118982 
L -61.844798 195.673665 
L -72.509103 192.398692 
L -82.771073 184.282409 
L -92.52126 182.273479 
z
" clip-path="url(#p8fb049020d)" style="fill: #eeeeee; stroke: #000000; stroke-width: 0.3"/>
    <path d="M -140.872925 48.758101 
L -140.376541 47.356054 
L -134.497145 46.493879 
L -135.024348 50.005321 
z
" clip-path="url(#p8fb049020d)" style="fill: #eeeeee; stroke: #000000; stroke-width: 0.3"/>
    <path d="M -153.559722 89.166895 
L -152.844441 87.877837 
L -152.842907 89.338487 
L -153.041763 89.507995 
z
" clip-path="url(#p8fb049020d)" style="fill: #eeeeee; stroke: #000000; stroke-width: 0.3"/>
    <path d="M -176.423704 140.933466 
L -174.987004 140.406117 
L -174.987004 142.688133 
L -175.95507 142.622228 
z
" clip-path="url(#p8fb049020d)" style="fill: #eeeeee; stroke: #000000; stroke-width: 0.3"/>
    <path d="M -44.641315 150.802333 
L -44.166526 150.250916 
L -44.064768 151.213531 
z
" clip-path="url(#p8fb049020d)" style="fill: #eeeeee; stroke: #000000; stroke-width: 0.3"/>
    <path d="M -49.164157 160.897203 
L -48.045006 161.379552 
L -48.433475 161.729036 
z
" clip-path="url(#p8fb049020d)" style="fill: #eeeeee; stroke: #000000; stroke-width: 0.3"/>
    <path d="M -49.608127 157.658847 
L -48.575297 158.554502 
L -48.821945 159.431308 
z
" clip-path="url(#p8fb049020d)" style="fill: #eeeeee; stroke: #000000; stroke-width: 0.3"/>
    <path d="M -52.089989 156.392803 
L -50.70415 156.147977 
L -50.804354 157.223581 
z
" clip-path="url(#p8fb049020d)" style="fill: #eeeeee; stroke: #000000; stroke-width: 0.3"/>
    <path d="M -56.850235 156.000454 
L -56.443278 156.060086 
L -56.677576 156.650203 
z
" clip-path="url(#p8fb049020d)" style="fill: #eeeeee; stroke: #000000; stroke-width: 0.3"/>
    <path d="M -60.633151 157.018509 
L -60.360306 156.917015 
L -60.290939 157.229855 
z
" clip-path="url(#p8fb049020d)" style="fill: #eeeeee; stroke: #000000; stroke-width: 0.3"/>
    <path d="M -69.984071 101.269667 
L -69.725092 100.058009 
L -67.77352 100.761141 
z
" clip-path="url(#p8fb049020d)" style="fill: #eeeeee; stroke: #000000; stroke-width: 0.3"/>
    <path d="M -78.212772 99.454288 
L -78.033956 99.084954 
L -77.88596 99.053556 
z
" clip-path="url(#p8fb049020d)" style="fill: #eeeeee; stroke: #000000; stroke-width: 0.3"/>
    <path d="M -83.161077 153.225598 
L -82.550642 152.640726 
L -82.328656 152.877195 
z
" clip-path="url(#p8fb049020d)" style="fill: #eeeeee; stroke: #000000; stroke-width: 0.3"/>
    <path d="M -88.988079 226.050359 
L -88.454701 225.95411 
L -88.482452 226.318225 
z
" clip-path="url(#p8fb049020d)" style="fill: #eeeeee; stroke: #000000; stroke-width: 0.3"/>
    <path d="M -95.044738 234.948254 
L -94.485163 234.831073 
L -93.435379 235.653468 
z
" clip-path="url(#p8fb049020d)" style="fill: #eeeeee; stroke: #000000; stroke-width: 0.3"/>
    <path d="M -98.921703 -17.857813 
L -97.639137 -20.057157 
L -96.848332 -19.597823 
z
" clip-path="url(#p8fb049020d)" style="fill: #eeeeee; stroke: #000000; stroke-width: 0.3"/>
    <path d="M -98.937103 -19.961937 
L -98.120102 -20.471492 
L -98.152474 -20.175392 
z
" clip-path="url(#p8fb049020d)" style="fill: #eeeeee; stroke: #000000; stroke-width: 0.3"/>
    <path d="M -99.334816 173.167375 
L -99.058884 172.470517 
L -98.024519 173.013578 
z
" clip-path="url(#p8fb049020d)" style="fill: #eeeeee; stroke: #000000; stroke-width: 0.3"/>
    <path d="M -104.434206 171.493271 
L -103.996411 171.286091 
L -103.50929 172.370077 
z
" clip-path="url(#p8fb049020d)" style="fill: #eeeeee; stroke: #000000; stroke-width: 0.3"/>
    <path d="M -106.432035 201.640824 
L -104.034958 202.196407 
L -104.431118 203.456177 
z
" clip-path="url(#p8fb049020d)" style="fill: #eeeeee; stroke: #000000; stroke-width: 0.3"/>
    <path d="M -126.570593 58.815325 
L -125.094285 59.731217 
L -125.405564 60.03804 
z
" clip-path="url(#p8fb049020d)" style="fill: #eeeeee; stroke: #000000; stroke-width: 0.3"/>
    <path d="M -137.31815 59.798846 
L -136.911174 59.471348 
L -136.962053 59.904531 
z
" clip-path="url(#p8fb049020d)" style="fill: #eeeeee; stroke: #000000; stroke-width: 0.3"/>
    <path d="M -141.942731 53.269829 
L -141.390865 52.447435 
L -141.270638 53.513627 
z
" clip-path="url(#p8fb049020d)" style="fill: #eeeeee; stroke: #000000; stroke-width: 0.3"/>
    <path d="M -146.655697 42.318905 
L -146.552537 40.811969 
L -145.886089 41.877878 
z
" clip-path="url(#p8fb049020d)" style="fill: #eeeeee; stroke: #000000; stroke-width: 0.3"/>
    <path d="M -154.771368 88.03688 
L -153.991342 87.199828 
L -154.350527 88.532832 
z
" clip-path="url(#p8fb049020d)" style="fill: #eeeeee; stroke: #000000; stroke-width: 0.3"/>
    <path d="M -174.225484 142.863916 
L -171.614132 143.582734 
L -173.016925 146.358619 
z
" clip-path="url(#p8fb049020d)" style="fill: #eeeeee; stroke: #000000; stroke-width: 0.3"/>
    <path d="M -176.809085 94.056341 
L -174.601622 90.704996 
L -176.112311 94.111807 
z
" clip-path="url(#p8fb049020d)" style="fill: #eeeeee; stroke: #000000; stroke-width: 0.3"/>
    <path d="M 24.844688 -30.955342 
L 28.824775 -34.932522 
L 32.575812 -34.145844 
L 38.002676 -38.844568 
L 51.127401 -37.402792 
L 59.56136 -28.017303 
L 61.411439 -28.260483 
L 61.059036 -21.235001 
L 74.814142 -12.640175 
L 72.126169 -8.863643 
L 75.628568 -6.062481 
L 72.204476 -5.221341 
L 72.969955 -3.515145 
L 84.305292 -0.129292 
L 86.811211 3.879774 
L 92.482792 -2.060076 
L 98.906155 1.818747 
L 93.583038 3.954166 
L 97.513648 10.931254 
L 95.644551 15.161488 
L 91.981615 16.976661 
L 91.032093 21.744478 
L 94.240848 30.324673 
L 103.062444 38.029193 
L 98.183733 45.428098 
L 92.508231 47.312365 
L 93.55955 49.365395 
L 92.469077 53.503341 
L 94.575616 55.932443 
L 92.443638 59.853797 
L 89.505057 58.711002 
L 76.362716 62.010481 
L 75.244853 59.441185 
L 77.165397 58.291756 
L 79.949314 51.015122 
L 72.64301 49.098969 
L 73.206848 46.453945 
L 70.405315 45.436738 
L 67.223969 40.187883 
L 62.41184 38.136164 
L 62.049663 35.900434 
L 57.969712 37.429227 
L 58.723446 41.175852 
L 55.23084 43.804934 
L 55.549943 46.234679 
L 53.069482 46.956891 
L 52.912867 44.911832 
L 45.185646 39.590565 
L 38.914995 37.988667 
L 30.9176 30.15393 
L 32.372219 27.383317 
L 36.859355 28.005217 
L 37.196092 25.87777 
L 32.197969 16.753409 
L 37.597424 17.391252 
L 39.308503 15.887017 
L 29.795816 7.967217 
L 30.046404 3.47714 
L 34.719553 -5.386118 
L 31.125132 -7.045822 
L 27.885065 -5.453901 
L 27.423024 -6.721591 
L 30.079686 -7.704931 
L 28.435188 -12.438189 
L 35.310781 -14.132427 
L 27.159006 -18.454385 
L 27.767604 -21.731981 
L 29.598096 -22.065521 
L 25.758959 -23.645485 
L 26.988411 -26.105136 
z
" clip-path="url(#p8fb049020d)" style="fill: #eeeeee; stroke: #000000; stroke-width: 0.3"/>
    <path d="M -76.463125 -22.072361 
L -69.228841 -19.802534 
L -67.65873 -22.131967 
L -60.064635 -21.196455 
L -56.121751 -26.081221 
L -52.026135 -20.870912 
L -49.64944 -22.150559 
L -45.546001 -19.967311 
L -42.024034 -20.553315 
L -43.096871 -24.380323 
L -41.103892 -25.371635 
L -43.353331 -27.512351 
L -35.377492 -30.552708 
L -34.962447 -35.554397 
L -37.010245 -37.542318 
L -36.064663 -39.963449 
L -28.877772 -42.307487 
L -28.143624 -44.33128 
L -24.020617 -44.218986 
L -24.791968 -47.309177 
L -22.722632 -48.688492 
L -13.374402 -44.442906 
L -4.803395 -34.228233 
L 0.897565 -32.983121 
L 5.95441 -28.753478 
L 16.303042 -27.984106 
L 21.062321 -32.246972 
L 25.715884 -32.854241 
L 24.6489 -29.884316 
L 26.988411 -26.105136 
L 25.758959 -23.645485 
L 29.598096 -22.065521 
L 27.767604 -21.731981 
L 27.159006 -18.454385 
L 35.310781 -14.132427 
L 29.89371 -13.943736 
L 28.435188 -12.438189 
L 30.079686 -7.704931 
L 25.494657 -5.339601 
L 21.6007 -11.089422 
L 18.43699 -10.345302 
L 13.149124 -12.957746 
L 5.531542 -10.565879 
L 2.671268 -13.125198 
L -6.755269 -12.729198 
L -11.731855 -16.22534 
L -13.865785 -13.569027 
L -19.222184 -14.62411 
L -23.251218 -8.940735 
L -28.854284 -14.410167 
L -33.175029 -13.789604 
L -34.384914 -2.971648 
L -28.705492 0.741086 
L -29.126409 2.893785 
L -27.035536 3.396062 
L -23.049577 14.687085 
L -9.721241 28.415823 
L -5.175365 30.608379 
L -4.807316 34.717113 
L 1.604304 41.322012 
L 1.719814 43.794957 
L -0.531937 43.576745 
L -0.790916 41.722667 
L -12.560507 32.080857 
L -21.82666 29.384481 
L -21.023505 28.383166 
L -30.009103 29.560264 
L -30.180209 24.814175 
L -34.804809 22.888945 
L -45.445986 11.779157 
L -45.519974 9.542115 
L -42.591073 10.35929 
L -43.235434 8.253057 
L -40.143118 9.914613 
L -38.169971 9.816256 
L -48.045006 2.155116 
L -50.385047 -1.802058 
L -49.66825 -7.84978 
L -50.972373 -11.317277 
L -56.313788 -16.459932 
L -61.225099 -17.75421 
L -64.258827 -8.33002 
L -65.821949 -7.611203 
L -65.538306 -8.559186 
L -66.363017 -9.911013 
L -67.126071 -4.101869 
L -69.207152 -4.627109 
L -68.679949 -3.207268 
L -68.960504 -3.056582 
L -74.263371 -10.787819 
L -72.311781 -12.367783 
L -74.779777 -12.648198 
L -74.522351 -17.141078 
z
" clip-path="url(#p8fb049020d)" style="fill: #eeeeee; stroke: #000000; stroke-width: 0.3"/>
    <path d="M -10.268257 41.195318 
L 3.74581 46.652922 
L 2.076328 45.324084 
L 5.077342 44.837415 
L 5.962233 47.225991 
L 16.92757 53.854161 
L 18.046589 57.52835 
L 6.613054 47.898034 
L 3.357341 46.987748 
L 4.132726 48.209846 
L 3.883009 48.381437 
L -6.247937 42.966751 
L -9.425039 42.646556 
z
" clip-path="url(#p8fb049020d)" style="fill: #eeeeee; stroke: #000000; stroke-width: 0.3"/>
    <path d="M -61.850954 -11.823694 
L -61.185017 -13.342947 
L -58.157446 -8.17414 
L -57.391304 -0.22212 
L -59.020704 -0.077734 
L -61.553446 -6.559668 
L -59.333632 -7.786986 
z
" clip-path="url(#p8fb049020d)" style="fill: #eeeeee; stroke: #000000; stroke-width: 0.3"/>
    <path d="M -59.074671 -11.155097 
L -57.084552 -12.37614 
L -56.729989 -15.304794 
L -51.689189 -8.33002 
L -53.423416 -7.45216 
z
" clip-path="url(#p8fb049020d)" style="fill: #eeeeee; stroke: #000000; stroke-width: 0.3"/>
    <path d="M -21.555349 33.964224 
L -21.166879 32.38534 
L -12.338521 34.491573 
L -21.250112 34.353462 
z
" clip-path="url(#p8fb049020d)" style="fill: #eeeeee; stroke: #000000; stroke-width: 0.3"/>
    <path d="M -28.316492 40.843752 
L -26.774965 40.245277 
L -24.672309 40.669023 
L -27.590432 42.224893 
z
" clip-path="url(#p8fb049020d)" style="fill: #eeeeee; stroke: #000000; stroke-width: 0.3"/>
    <path d="M -46.999844 12.641306 
L -43.907546 15.102242 
L -43.364924 16.345272 
L -45.876071 14.433645 
z
" clip-path="url(#p8fb049020d)" style="fill: #eeeeee; stroke: #000000; stroke-width: 0.3"/>
    <path d="M -54.664347 -3.734617 
L -53.358671 -3.734617 
L -54.135591 -4.978675 
L -50.85368 -1.640933 
z
" clip-path="url(#p8fb049020d)" style="fill: #eeeeee; stroke: #000000; stroke-width: 0.3"/>
    <path d="M -4.166875 47.898034 
L -2.867356 47.618674 
L 3.886078 50.373627 
z
" clip-path="url(#p8fb049020d)" style="fill: #eeeeee; stroke: #000000; stroke-width: 0.3"/>
    <path d="M -13.693542 49.306381 
L -11.794365 48.2496 
L -11.504566 48.806238 
z
" clip-path="url(#p8fb049020d)" style="fill: #eeeeee; stroke: #000000; stroke-width: 0.3"/>
    <path d="M -17.276049 42.966751 
L -6.506916 44.530978 
L -13.113926 45.072984 
z
" clip-path="url(#p8fb049020d)" style="fill: #eeeeee; stroke: #000000; stroke-width: 0.3"/>
    <path d="M -22.202779 37.492407 
L -6.636406 39.247074 
L -11.3743 39.247074 
z
" clip-path="url(#p8fb049020d)" style="fill: #eeeeee; stroke: #000000; stroke-width: 0.3"/>
    <path d="M -25.236526 29.918104 
L -24.23298 29.331124 
L -22.133412 29.914967 
z
" clip-path="url(#p8fb049020d)" style="fill: #eeeeee; stroke: #000000; stroke-width: 0.3"/>
    <path d="M -25.444626 32.052597 
L -23.994041 31.927034 
L -22.637505 33.810427 
z
" clip-path="url(#p8fb049020d)" style="fill: #eeeeee; stroke: #000000; stroke-width: 0.3"/>
    <path d="M -36.747136 25.169932 
L -34.158894 26.383647 
L -35.453792 26.128356 
z
" clip-path="url(#p8fb049020d)" style="fill: #eeeeee; stroke: #000000; stroke-width: 0.3"/>
    <path d="M -43.235434 16.521055 
L -39.734607 19.697671 
L -41.390224 18.878413 
z
" clip-path="url(#p8fb049020d)" style="fill: #eeeeee; stroke: #000000; stroke-width: 0.3"/>
    <path d="M -43.868999 20.033551 
L -43.138317 20.48242 
L -40.688827 22.657722 
z
" clip-path="url(#p8fb049020d)" style="fill: #eeeeee; stroke: #000000; stroke-width: 0.3"/>
    <path d="M -51.032496 12.28974 
L -48.045006 14.413767 
L -44.499494 20.080634 
z
" clip-path="url(#p8fb049020d)" style="fill: #eeeeee; stroke: #000000; stroke-width: 0.3"/>
    <path d="M -51.547367 12.467632 
L -50.662533 13.191669 
L -51.453338 12.744909 
z
" clip-path="url(#p8fb049020d)" style="fill: #eeeeee; stroke: #000000; stroke-width: 0.3"/>
    <path d="M -52.802164 7.445294 
L -52.664984 6.124839 
L -51.911174 6.378047 
z
" clip-path="url(#p8fb049020d)" style="fill: #eeeeee; stroke: #000000; stroke-width: 0.3"/>
    <path d="M -52.947073 10.076793 
L -52.130071 9.797433 
L -52.167066 9.941819 
z
" clip-path="url(#p8fb049020d)" style="fill: #eeeeee; stroke: #000000; stroke-width: 0.3"/>
    <path d="M -53.229181 -1.276792 
L -43.364924 8.061589 
L -45.745047 8.782489 
z
" clip-path="url(#p8fb049020d)" style="fill: #eeeeee; stroke: #000000; stroke-width: 0.3"/>
    <path d="M -55.854399 7.879531 
L -54.935658 8.42884 
L -54.598049 8.868298 
z
" clip-path="url(#p8fb049020d)" style="fill: #eeeeee; stroke: #000000; stroke-width: 0.3"/>
    <path d="M -60.765729 -1.626275 
L -57.004388 4.357623 
L -60.249304 2.059896 
z
" clip-path="url(#p8fb049020d)" style="fill: #eeeeee; stroke: #000000; stroke-width: 0.3"/>
    <path d="M -62.720388 0.707015 
L -61.81396 -0.617632 
L -61.989707 1.054389 
z
" clip-path="url(#p8fb049020d)" style="fill: #eeeeee; stroke: #000000; stroke-width: 0.3"/>
    <path d="M 90.947914 60.174043 
L 94.511004 56.4673 
L 92.469077 53.503341 
L 93.55955 49.365395 
L 92.508231 47.312365 
L 98.183733 45.428098 
L 103.001753 37.402664 
L 94.240848 30.324673 
L 91.032093 21.744478 
L 91.981615 16.976661 
L 95.644551 15.161488 
L 97.513648 10.931254 
L 103.941463 14.412019 
L 101.192798 16.946086 
L 101.247617 20.931881 
L 112.535959 19.875486 
L 148.875609 25.804021 
L 156.036057 23.696503 
L 163.036953 16.486315 
L 179.644491 12.252686 
L 186.394799 16.41722 
L 191.122749 16.039837 
L 192.794674 18.123416 
L 196.40084 16.976661 
L 197.706648 20.679418 
L 202.25743 22.925794 
L 209.022229 23.458157 
L 208.679998 30.849348 
L 207.029022 33.086364 
L 204.158691 31.506425 
L 200.317205 32.451246 
L 198.39954 36.535038 
L 196.247558 37.316624 
L 196.025573 49.963459 
L 193.002642 49.860936 
L 191.027942 52.06028 
L 191.439521 53.884016 
L 187.702843 55.887726 
L 192.743663 57.570187 
L 193.441972 61.587018 
L 198.384121 68.939484 
L 194.503784 68.37022 
L 189.47433 70.775408 
L 184.301975 65.874698 
L 180.005702 66.101267 
L 177.966712 68.331032 
L 171.654938 69.071835 
L 170.147488 72.753352 
L 166.511943 73.645664 
L 166.496297 75.612988 
L 161.198638 75.909294 
L 163.508769 82.842436 
L 157.946827 86.129959 
L 145.768669 87.753766 
L 139.086894 83.646368 
L 136.96666 84.997784 
L 133.291962 82.620522 
L 131.960695 79.505774 
L 123.747962 80.164857 
L 122.955074 82.342807 
L 114.955728 84.407795 
L 101.782075 85.314044 
L 103.522515 74.921325 
L 100.290271 67.733046 
L 94.47185 64.913961 
z
" clip-path="url(#p8fb049020d)" style="fill: #eeeeee; stroke: #000000; stroke-width: 0.3"/>
    <path d="M 16.855135 43.697294 
L 20.747121 41.99907 
L 21.226779 36.523646 
L 24.198622 33.741076 
L 27.44261 35.651263 
L 28.905053 34.578256 
L 25.798113 29.903447 
L 27.15874 28.473629 
L 31.285668 28.819126 
L 31.226928 30.831631 
L 38.914995 37.988667 
L 45.185646 39.590565 
L 53.226097 45.323107 
L 50.001696 49.140832 
L 47.029833 49.122884 
L 48.496197 51.439691 
L 46.182145 55.099942 
L 42.765877 56.19622 
L 41.26428 51.620411 
L 39.363323 52.676832 
L 32.793118 63.31538 
L 34.641227 65.553115 
L 34.500883 72.030317 
L 30.810462 69.828864 
L 25.425896 60.921558 
L 23.391073 61.253247 
L 18.96997 57.342101 
L 21.911203 58.128933 
L 21.663021 55.816574 
L 18.046589 57.52835 
L 16.92757 53.854161 
L 19.0615 51.054979 
z
" clip-path="url(#p8fb049020d)" style="fill: #eeeeee; stroke: #000000; stroke-width: 0.3"/>
    <path d="M -34.384914 -2.971648 
L -33.175029 -13.789604 
L -28.854284 -14.410167 
L -23.251218 -8.940735 
L -19.222184 -14.62411 
L -13.865785 -13.569027 
L -11.731855 -16.22534 
L -6.755269 -12.729198 
L 2.671268 -13.125198 
L 5.531542 -10.565879 
L 13.149124 -12.957746 
L 18.43699 -10.345302 
L 21.489111 -11.155868 
L 25.494657 -5.339601 
L 31.125132 -7.045822 
L 34.568791 -6.006681 
L 29.615712 6.963974 
L 39.167535 15.403331 
L 37.597424 17.391252 
L 32.752013 16.486315 
L 31.929764 17.89353 
L 36.330769 22.921808 
L 36.859355 28.005217 
L 34.149844 26.863759 
L 25.899909 29.475561 
L 28.905053 34.578256 
L 27.44261 35.651263 
L 24.198622 33.741076 
L 21.226779 36.523646 
L 20.747121 41.99907 
L 17.219263 42.68937 
L 17.064599 47.223317 
L 19.0615 51.054979 
L 17.965174 53.711318 
L 8.554302 49.193984 
L 5.077342 44.837415 
L 0.241895 44.197206 
L 2.254272 43.401631 
L 1.604304 41.322012 
L -4.807316 34.717113 
L -5.175365 30.608379 
L -9.721241 28.415823 
L -23.049577 14.687085 
L -27.035536 3.396062 
L -29.126409 2.893785 
L -28.705492 0.741086 
z
" clip-path="url(#p8fb049020d)" style="fill: #eeeeee; stroke: #000000; stroke-width: 0.3"/>
   </g>
   <g id="PatchCollection_2">
    <defs>
     <path id="m10b6c9b223" d="M 47.184498 -59.088411 
L 55.549943 -61.765321 
L 55.23084 -64.195066 
L 59.122826 -67.676577 
L 57.969712 -70.570773 
L 61.575877 -72.245083 
L 62.41184 -69.863836 
L 67.223969 -67.812117 
L 70.405315 -62.563262 
L 73.206848 -61.546055 
L 72.64301 -58.901031 
L 80.10788 -56.416129 
L 75.244853 -48.558815 
L 76.154767 -46.099241 
L 72.417862 -45.522444 
L 71.139463 -42.116662 
L 67.335558 -44.804886 
L 61.395774 -41.875487 
L 59.436076 -35.754917 
L 57.270797 -36.505055 
L 56.013935 -45.197544 
L 51.031477 -47.992714 
L 47.758128 -53.825593 
L 48.496197 -56.560309 
z
" style="stroke: #dd0000; stroke-width: 0.5"/>
    </defs>
    <g clip-path="url(#p8fb049020d)">
     <use xlink:href="#m10b6c9b223" x="0" y="108" style="fill: #ff6b6b; stroke: #dd0000; stroke-width: 0.5"/>
    </g>
   </g>
  </g>
 </g>
 <defs>
  <clipPath id="p8fb049020d">
   <rect x="0" y="0" width="127.292378" height="108"/>
  </clipPath>
 </defs>
</svg>
