<?xml version="1.0" encoding="utf-8" standalone="no"?>
<!DOCTYPE svg PUBLIC "-//W3C//DTD SVG 1.1//EN"
  "http://www.w3.org/Graphics/SVG/1.1/DTD/svg11.dtd">
<svg xmlns:xlink="http://www.w3.org/1999/xlink" width="150.670155pt" height="108pt" viewBox="0 0 150.670155 108" xmlns="http://www.w3.org/2000/svg" version="1.1">
 <metadata>
  <rdf:RDF xmlns:dc="http://purl.org/dc/elements/1.1/" xmlns:cc="http://creativecommons.org/ns#" xmlns:rdf="http://www.w3.org/1999/02/22-rdf-syntax-ns#">
   <cc:Work>
    <dc:type rdf:resource="http://purl.org/dc/dcmitype/StillImage"/>
    <dc:date>2025-09-05T13:56:20.259956</dc:date>
    <dc:format>image/svg+xml</dc:format>
    <dc:creator>
     <cc:Agent>
      <dc:title>Matplotlib v3.10.3, https://matplotlib.org/</dc:title>
     </cc:Agent>
    </dc:creator>
   </cc:Work>
  </rdf:RDF>
 </metadata>
 <defs>
  <style type="text/css">*{stroke-linejoin: round; stroke-linecap: butt}</style>
 </defs>
 <g id="figure_1">
  <g id="patch_1">
   <path d="M 0 108 
L 150.670155 108 
L 150.670155 0 
L 0 0 
z
" style="fill: #ffffff"/>
  </g>
  <g id="axes_1">
   <g id="PatchCollection_1">
    <path d="M -9.575673 24.313747 
L -7.070103 17.916713 
L -5.901063 17.150945 
L -5.734141 14.696749 
L -3.552933 12.908448 
L -3.643933 12.033499 
L -1.642894 12.211365 
L -1.318168 11.736893 
L -0.41771 12.194702 
L -1.243008 13.101366 
L 0.165101 13.818771 
L 0.706786 15.579865 
L -1.457841 17.567212 
L -0.901969 18.428747 
L -3.091416 18.590571 
L -3.97556 19.976389 
L -3.195642 20.546816 
L -6.155081 23.125126 
L -6.52802 22.803115 
L -7.003772 24.326563 
z
" clip-path="url(#p063b1c88c4)" style="fill: #eeeeee; stroke: #000000; stroke-width: 0.3"/>
    <path d="M -5.334969 4.698787 
L -4.532715 3.397744 
L -4.819113 2.59355 
L -3.572841 1.986356 
L -2.356165 2.806829 
L -2.086739 1.790795 
L -0.981382 1.458209 
L -0.878576 -0.379926 
L 1.119439 -0.390901 
L 0.206928 -2.357926 
L 0.952106 -5.104354 
L 3.180546 -4.520102 
L 3.786758 -3.466658 
L 6.48315 -3.578875 
L 11.821342 -5.736174 
L 13.57545 -5.321874 
L 15.256525 -4.048879 
L 18.786722 -3.791926 
L 22.392785 -4.428215 
L 28.86682 -7.247427 
L 34.154672 -7.051457 
L 37.786961 -7.838587 
L 39.172384 -9.013187 
L 40.101901 -8.34335 
L 40.311067 -6.946557 
L 36.651824 -3.450395 
L 33.507333 -2.651881 
L 32.763575 -1.380515 
L 32.487063 0.936168 
L 33.357027 4.123324 
L 32.244577 7.366592 
L 32.26443 10.906255 
L 30.625182 13.984655 
L 28.739907 14.538214 
L 15.596144 22.089777 
L 2.183669 30.389445 
L -0.776476 29.897483 
L -5.100414 27.025517 
L -4.20528 25.447293 
L -5.057524 22.383118 
L -3.195642 20.546816 
L -3.97556 19.976389 
L -3.791214 19.434214 
L -2.488751 18.321619 
L -0.984929 18.532837 
L -1.457841 17.567212 
L 0.706786 15.579865 
L 0.165101 13.818771 
L -1.243008 13.101366 
L -0.41771 12.194702 
L -1.318168 11.736893 
L -1.642894 12.211365 
L -3.643933 12.033499 
L -4.350715 9.874808 
L -3.695295 7.721231 
L -3.993417 5.992474 
z
" clip-path="url(#p063b1c88c4)" style="fill: #eeeeee; stroke: #000000; stroke-width: 0.3"/>
    <path d="M 106.178397 135.196955 
L 126.757262 127.33091 
L 131.279376 111.724838 
L 128.187351 106.023809 
L 128.455357 102.737654 
L 130.598718 97.633072 
L 130.039306 96.113691 
L 133.751009 95.184462 
L 133.307164 94.087312 
L 132.08978 94.011687 
L 132.595312 88.57636 
L 133.804182 88.300902 
L 133.966548 89.048394 
L 133.475203 88.989441 
L 134.445847 90.076426 
L 136.395312 88.127505 
L 137.958502 91.91892 
L 141.665492 96.189261 
L 149.662311 98.806405 
L 151.493472 98.601513 
L 152.713874 99.426833 
L 157.884671 107.141557 
L 160.005023 107.555818 
L 159.915141 109.691795 
L 156.707818 115.928114 
L 154.719222 117.247087 
L 152.153358 120.777592 
L 152.480512 121.261002 
L 151.545946 122.22846 
L 151.043494 124.015487 
L 150.54439 124.47328 
L 148.87792 124.110561 
L 149.298311 122.671533 
L 148.897465 122.469206 
L 146.499085 125.244178 
L 145.354056 129.433528 
L 146.221619 135.227411 
L 142.049586 135.870891 
L 139.307312 137.164255 
L 138.16395 138.630175 
L 137.616276 141.856229 
L 136.209964 143.502383 
L 129.959447 144.281283 
L 128.471074 146.659279 
L 128.96906 147.618744 
L 128.691038 149.054884 
L 127.089884 150.810534 
L 125.477568 151.280498 
L 124.106991 150.595398 
L 120.628341 150.810534 
L 117.407057 152.803081 
L 113.805028 153.711641 
L 111.823944 148.794123 
L 111.274459 148.552213 
z
" clip-path="url(#p063b1c88c4)" style="fill: #eeeeee; stroke: #000000; stroke-width: 0.3"/>
    <path d="M 134.296693 79.608059 
L 135.194455 78.018458 
L 135.222925 78.453207 
L 136.538237 78.398785 
L 135.881699 78.345639 
L 136.261326 77.051637 
L 137.202588 77.266128 
L 136.500273 77.974273 
L 137.108796 78.238071 
L 136.729169 78.345639 
L 137.057434 78.941102 
L 136.021269 78.728523 
L 136.070394 79.210014 
L 137.010538 79.31246 
L 136.373545 79.787546 
L 136.875434 80.504023 
L 136.397549 80.669851 
L 135.680099 83.019532 
L 134.761359 82.678142 
L 135.024405 79.973996 
z
" clip-path="url(#p063b1c88c4)" style="fill: #eeeeee; stroke: #000000; stroke-width: 0.3"/>
    <path d="M 151.932838 124.392926 
L 153.70315 121.803319 
L 154.003502 123.290686 
L 151.960197 125.953605 
z
" clip-path="url(#p063b1c88c4)" style="fill: #eeeeee; stroke: #000000; stroke-width: 0.3"/>
    <path d="M 135.195223 85.946902 
L 135.553667 85.351306 
L 136.128205 85.859146 
L 135.274685 86.262525 
z
M 135.584194 85.743907 
L 135.707019 85.9461 
L 135.743714 85.816675 
z
" clip-path="url(#p063b1c88c4)" style="fill: #eeeeee; stroke: #000000; stroke-width: 0.3"/>
    <path d="M 133.520165 146.807508 
L 134.421233 146.815832 
L 133.579347 146.977184 
z
" clip-path="url(#p063b1c88c4)" style="fill: #eeeeee; stroke: #000000; stroke-width: 0.3"/>
    <path d="M 132.825663 146.815832 
L 133.017157 146.928199 
L 132.913871 146.996389 
z
" clip-path="url(#p063b1c88c4)" style="fill: #eeeeee; stroke: #000000; stroke-width: 0.3"/>
    <path d="M 103.433792 95.022646 
L 103.538238 92.795466 
L 103.817377 94.038886 
L 104.812231 93.762287 
L 105.017679 95.81854 
L 105.836123 96.101228 
L 108.66493 95.764756 
L 110.443056 94.175265 
L 110.999106 94.715977 
L 114.319204 94.483878 
L 117.230079 95.453578 
L 119.214771 95.313682 
L 122.976471 93.525381 
L 123.376754 92.307249 
L 123.98584 92.307249 
L 122.908356 91.613824 
L 124.036646 91.823516 
L 124.458704 89.933414 
L 127.470074 87.823692 
L 128.842888 85.905093 
L 129.161665 86.370903 
L 128.98916 85.729343 
L 130.685773 83.403848 
L 131.202185 83.736473 
L 133.489459 81.475643 
L 133.334817 81.845404 
L 133.438659 81.881265 
L 134.296693 79.608059 
L 135.024405 79.973996 
L 134.761359 82.678142 
L 136.303756 83.820029 
L 136.395312 88.127505 
L 134.445847 90.076426 
L 133.524123 89.105923 
L 133.966548 89.048394 
L 133.617709 88.178315 
L 132.387566 88.852219 
L 132.08978 94.011687 
L 133.307164 94.087312 
L 133.751009 95.184462 
L 130.039306 96.113691 
L 130.598718 97.633072 
L 128.455357 102.737654 
L 127.731453 106.654418 
L 110.156336 104.174903 
z
M 135.195223 85.946902 
L 135.274685 86.262525 
L 136.128205 85.859146 
L 135.553667 85.351306 
z
" clip-path="url(#p063b1c88c4)" style="fill: #eeeeee; stroke: #000000; stroke-width: 0.3"/>
    <path d="M 114.451516 93.565719 
L 115.70095 93.312165 
L 116.044294 92.575846 
L 116.206749 93.138972 
L 115.399439 93.757086 
z
" clip-path="url(#p063b1c88c4)" style="fill: #eeeeee; stroke: #000000; stroke-width: 0.3"/>
    <path d="M 120.817592 93.68641 
L 120.836019 93.317932 
L 121.337352 93.640628 
L 121.354105 94.036006 
z
" clip-path="url(#p063b1c88c4)" style="fill: #eeeeee; stroke: #000000; stroke-width: 0.3"/>
    <path d="M 117.692337 94.577677 
L 119.003739 93.659841 
L 119.804313 94.465955 
L 118.499613 94.800177 
z
" clip-path="url(#p063b1c88c4)" style="fill: #eeeeee; stroke: #000000; stroke-width: 0.3"/>
    <path d="M 135.584194 85.743907 
L 135.743714 85.816675 
L 135.707019 85.9461 
z
" clip-path="url(#p063b1c88c4)" style="fill: #eeeeee; stroke: #000000; stroke-width: 0.3"/>
    <path d="M 122.342263 92.13437 
L 122.763765 91.711471 
L 123.273474 92.479804 
z
" clip-path="url(#p063b1c88c4)" style="fill: #eeeeee; stroke: #000000; stroke-width: 0.3"/>
    <path d="M 121.959836 92.956495 
L 122.351195 93.06758 
L 122.164729 93.354423 
z
" clip-path="url(#p063b1c88c4)" style="fill: #eeeeee; stroke: #000000; stroke-width: 0.3"/>
    <path d="M 121.311675 93.171946 
L 121.63994 93.010594 
L 121.569603 93.585569 
z
" clip-path="url(#p063b1c88c4)" style="fill: #eeeeee; stroke: #000000; stroke-width: 0.3"/>
    <path d="M 110.140064 93.408899 
L 110.79007 93.267649 
L 110.387372 93.830438 
z
" clip-path="url(#p063b1c88c4)" style="fill: #eeeeee; stroke: #000000; stroke-width: 0.3"/>
    <path d="M 108.267995 91.913475 
L 108.652328 91.877787 
L 108.480756 92.08157 
z
" clip-path="url(#p063b1c88c4)" style="fill: #eeeeee; stroke: #000000; stroke-width: 0.3"/>
    <path d="M 15.596144 22.089777 
L 28.739907 14.538214 
L 30.625182 13.984655 
L 32.26443 10.906255 
L 32.244577 7.366592 
L 33.357027 4.123324 
L 32.487063 0.936168 
L 32.763575 -1.380515 
L 33.507333 -2.651881 
L 36.651824 -3.450395 
L 40.174221 -7.322234 
L 41.573824 -7.610501 
L 42.633094 -9.252257 
L 45.37132 -9.376874 
L 50.13627 -8.02805 
L 52.047777 -8.905037 
L 53.056001 -8.319771 
L 52.678802 -7.146185 
L 53.397747 -6.214313 
L 55.630441 -7.860136 
L 57.531315 -6.582264 
L 57.146323 -4.819754 
L 58.618945 -3.845183 
L 58.244943 -2.788489 
L 58.878451 -1.837097 
L 59.942682 -1.759851 
L 60.501387 1.457808 
L 62.008406 1.458209 
L 63.442392 2.897898 
L 65.578659 2.534014 
L 67.407927 2.956859 
L 65.19012 3.973703 
L 64.917148 5.39063 
L 65.988471 6.772585 
L 66.200471 8.400517 
L 64.568665 8.591609 
L 64.136516 10.011786 
L 62.878013 10.797703 
L 62.607881 11.475054 
L 63.116596 12.809039 
L 61.738623 12.491095 
L 61.75777 13.258304 
L 61.165032 13.650244 
L 62.128939 14.691895 
L 62.039599 16.048846 
L 60.913326 17.354374 
L 61.636523 17.629013 
L 63.343132 20.426267 
L 64.381843 20.05018 
L 64.669702 20.67997 
L 64.15283 21.124561 
L 64.988761 21.152618 
L 66.229537 22.966764 
L 66.311077 23.689661 
L 65.371983 24.182631 
L 65.990248 24.528835 
L 65.829652 25.373502 
L 68.452304 25.865456 
L 72.645789 29.148166 
L 73.844382 29.068473 
L 74.842679 29.77185 
L 75.395005 31.712447 
L 77.748938 34.410496 
L 76.681868 37.540737 
L 76.640748 40.791322 
L 78.968448 40.835633 
L 78.977668 44.967683 
L 80.981705 46.156107 
L 81.993112 48.60614 
L 82.721044 49.03749 
L 79.70186 48.263397 
L 78.671835 48.585456 
L 78.552921 47.922448 
L 78.437355 47.774865 
L 78.527799 48.664212 
L 76.649254 47.844621 
L 73.37643 48.347968 
L 71.01895 52.987424 
L 68.816743 55.731814 
L 56.189859 54.897117 
L 38.240733 40.121281 
L 26.912765 33.507082 
L 18.14719 31.952327 
L 19.146194 30.95804 
L 18.760489 30.105656 
L 17.340326 30.298573 
L 16.99362 29.144909 
L 17.535305 28.974761 
z
" clip-path="url(#p063b1c88c4)" style="fill: #eeeeee; stroke: #000000; stroke-width: 0.3"/>
    <path d="M 51.545792 -25.135612 
L 54.105345 -25.453556 
L 54.595983 -27.687699 
L 55.324855 -28.218276 
L 56.97993 -27.227002 
L 59.35172 -23.872374 
L 60.438287 -23.770117 
L 61.312861 -22.225732 
L 66.028884 -21.111918 
L 68.962796 -21.325574 
L 72.725552 -24.61885 
L 78.688389 -27.735668 
L 81.209648 -25.173826 
L 79.612946 -24.310253 
L 80.899102 -22.22858 
L 79.286087 -21.786223 
L 78.837281 -21.012918 
L 81.013255 -19.046499 
L 81.733263 -19.187788 
L 83.054516 -17.440116 
L 84.882152 -17.739799 
L 85.363948 -13.56454 
L 86.653582 -11.361333 
L 88.775045 -10.350335 
L 93.946967 -9.520216 
L 94.815648 -7.662766 
L 99.497398 -4.628803 
L 105.701019 -3.173765 
L 120.090155 -6.084157 
L 117.364065 -5.488379 
L 120.143753 -5.049461 
L 120.182829 -6.675135 
L 119.453717 -9.153658 
L 121.461617 -9.010748 
L 124.531662 -9.910103 
L 125.453379 -10.584613 
L 125.716425 -12.241821 
L 127.799519 -13.949446 
L 131.767181 -15.258215 
L 135.82205 -14.955929 
L 135.846863 -15.736355 
L 136.760074 -16.331581 
L 140.889389 -15.798156 
L 141.826006 -16.508441 
L 143.043382 -14.069186 
L 148.560953 -12.658159 
L 148.904833 -11.797026 
L 149.940703 -11.439641 
L 152.981681 -11.922249 
L 156.488478 -10.629538 
L 157.513715 -8.09026 
L 161.338151 -6.659919 
L 163.554538 -3.602054 
L 169.203988 -3.595547 
L 169.072822 -1.400027 
L 169.608127 0.437699 
L 168.957249 1.642795 
L 169.720154 2.245748 
L 170.056226 4.966566 
L 169.350048 6.91529 
L 168.809776 7.091748 
L 169.077075 8.475332 
L 168.51553 10.736303 
L 167.706546 12.126803 
L 166.006324 13.083474 
L 167.315167 14.637214 
L 165.622032 14.733775 
L 164.586868 16.052512 
L 164.717328 19.991432 
L 167.52362 20.969252 
L 165.1002 23.82383 
L 165.068293 24.555664 
L 166.902522 30.923689 
L 166.522489 32.667899 
L 166.843668 36.857682 
L 172.778851 37.813543 
L 173.736029 40.631937 
L 173.570116 41.952909 
L 166.998948 49.733172 
L 170.380958 53.539552 
L 171.952847 57.500225 
L 174.191214 60.083822 
L 177.415468 61.057165 
L 178.875694 62.550937 
L 180.150861 62.41392 
L 180.51565 68.326363 
L 180.019338 70.121406 
L 181.048828 70.540994 
L 183.001819 70.187267 
L 183.97955 71.297635 
L 183.374051 71.702581 
L 183.603771 73.085763 
L 183.037266 73.556168 
L 182.910353 75.012937 
L 177.797634 75.664277 
L 176.929796 76.144847 
L 176.74545 77.2483 
L 175.77622 77.145838 
L 173.780695 78.315159 
L 173.24255 81.504762 
L 172.596639 81.90442 
L 172.320119 85.709989 
L 170.890977 87.488714 
L 165.552106 85.792726 
L 164.977081 84.439819 
L 163.918016 84.983095 
L 164.411756 85.672302 
L 163.191697 84.988539 
L 160.546468 85.360841 
L 157.460055 84.324312 
L 154.64776 84.812137 
L 153.1471 83.547269 
L 150.360161 83.14101 
L 147.987465 83.52166 
L 147.233787 82.50233 
L 145.920149 82.955654 
L 145.809611 82.112404 
L 142.763069 81.78682 
L 141.76989 79.435393 
L 142.086431 78.780387 
L 141.176994 76.820491 
L 140.796804 73.393077 
L 140.115144 72.573517 
L 140.442854 72.197037 
L 139.70313 72.127243 
L 139.31457 71.122649 
L 134.614401 70.956812 
L 133.349333 72.010713 
L 131.473505 72.256581 
L 130.484791 73.915543 
L 128.763612 73.852798 
L 125.471984 76.187255 
L 122.716869 75.327364 
L 122.159144 74.462982 
L 118.097649 74.513563 
L 116.557351 73.366831 
L 116.231871 72.412173 
L 113.381845 71.401812 
L 110.450314 69.443835 
L 110.92206 68.690868 
L 109.478346 67.243194 
L 106.402217 65.669069 
L 104.15347 65.685811 
L 102.208156 64.89013 
L 100.018832 60.152099 
L 99.868656 58.562931 
L 98.126258 57.007688 
L 98.25243 56.511477 
L 98.773864 56.882835 
L 98.984334 56.055273 
L 98.36967 55.37882 
L 97.021416 55.356412 
L 97.100136 52.951524 
L 93.598594 49.10472 
L 93.108429 47.077279 
L 92.018659 47.012928 
L 89.395855 48.436913 
L 89.036321 47.389416 
L 87.426242 47.386214 
L 87.262106 46.535922 
L 86.851772 46.856698 
L 85.203722 45.621603 
L 87.136489 45.8902 
L 87.554643 45.079609 
L 87.193435 44.633649 
L 85.61741 44.56066 
L 86.000392 45.214384 
L 85.297514 45.323549 
L 84.800084 45.898202 
L 85.163528 48.285482 
L 82.069685 48.702906 
L 81.60812 46.878594 
L 78.977668 44.967683 
L 78.968448 40.835633 
L 76.640748 40.791322 
L 76.681868 37.540737 
L 77.748938 34.410496 
L 75.395005 31.712447 
L 74.842679 29.77185 
L 73.844382 29.068473 
L 72.645789 29.148166 
L 68.452304 25.865456 
L 65.829652 25.373502 
L 65.990248 24.528835 
L 65.371983 24.182631 
L 66.311077 23.689661 
L 66.229537 22.966764 
L 64.988761 21.152618 
L 64.15283 21.124561 
L 64.669702 20.67997 
L 64.381843 20.05018 
L 63.343132 20.426267 
L 61.636523 17.629013 
L 60.913326 17.354374 
L 62.039599 16.048846 
L 62.128939 14.691895 
L 61.165032 13.650244 
L 61.75777 13.258304 
L 61.738623 12.491095 
L 63.116596 12.809039 
L 62.607881 11.475054 
L 62.878013 10.797703 
L 64.136516 10.011786 
L 64.568665 8.591609 
L 66.200471 8.400517 
L 65.988471 6.772585 
L 64.917148 5.39063 
L 65.19012 3.973703 
L 67.407927 2.956859 
L 65.578659 2.534014 
L 63.442392 2.897898 
L 62.008406 1.458209 
L 60.501387 1.457808 
L 59.942682 -1.759851 
L 58.799745 -1.920448 
L 58.244943 -2.788489 
L 58.545919 -4.014725 
L 57.092436 -4.956771 
L 57.531315 -6.582264 
L 56.607464 -7.269787 
L 56.94283 -8.759688 
L 55.368815 -9.846264 
L 55.533308 -12.093215 
L 52.830179 -13.515626 
L 54.591024 -16.98658 
L 53.43001 -17.332171 
L 53.330387 -20.961683 
L 52.486306 -21.91409 
L 52.724182 -23.334267 
L 51.976878 -23.766458 
z
" clip-path="url(#p063b1c88c4)" style="fill: #eeeeee; stroke: #000000; stroke-width: 0.3"/>
    <path d="M 128.858522 74.89389 
L 132.216583 73.818227 
L 132.105483 72.582164 
L 133.064053 72.953844 
L 135.222925 72.197037 
L 135.737663 72.573517 
L 133.402369 74.61025 
L 132.919455 74.243369 
L 128.898716 75.772994 
z
" clip-path="url(#p063b1c88c4)" style="fill: #eeeeee; stroke: #000000; stroke-width: 0.3"/>
    <path d="M 119.378907 75.869681 
L 120.174452 75.71729 
L 120.298395 76.245523 
L 119.739553 76.212872 
z
" clip-path="url(#p063b1c88c4)" style="fill: #eeeeee; stroke: #000000; stroke-width: 0.3"/>
    <path d="M 136.747032 71.789181 
L 136.762667 71.591008 
L 137.228273 71.735397 
z
" clip-path="url(#p063b1c88c4)" style="fill: #eeeeee; stroke: #000000; stroke-width: 0.3"/>
    <path d="M 136.106122 73.16994 
L 136.538237 73.062057 
L 136.366842 73.489764 
z
" clip-path="url(#p063b1c88c4)" style="fill: #eeeeee; stroke: #000000; stroke-width: 0.3"/>
    <path d="M 132.758673 75.202188 
L 132.862509 74.844914 
L 133.008781 75.180741 
z
" clip-path="url(#p063b1c88c4)" style="fill: #eeeeee; stroke: #000000; stroke-width: 0.3"/>
    <path d="M 126.988278 81.019762 
L 127.278586 81.153584 
L 127.031826 81.192963 
z
" clip-path="url(#p063b1c88c4)" style="fill: #eeeeee; stroke: #000000; stroke-width: 0.3"/>
    <path d="M 123.542564 80.766853 
L 123.840686 80.876341 
L 123.56936 80.854256 
z
" clip-path="url(#p063b1c88c4)" style="fill: #eeeeee; stroke: #000000; stroke-width: 0.3"/>
    <path d="M 123.394062 77.743457 
L 123.800492 77.803322 
L 123.619611 78.113855 
z
" clip-path="url(#p063b1c88c4)" style="fill: #eeeeee; stroke: #000000; stroke-width: 0.3"/>
    <path d="M 117.309918 74.741508 
L 117.364627 74.65571 
L 117.618645 74.917903 
z
" clip-path="url(#p063b1c88c4)" style="fill: #eeeeee; stroke: #000000; stroke-width: 0.3"/>
    <path d="M 114.21034 73.417412 
L 115.805903 73.769565 
L 114.71391 73.797732 
z
" clip-path="url(#p063b1c88c4)" style="fill: #eeeeee; stroke: #000000; stroke-width: 0.3"/>
    <path d="M 94.54804 54.369167 
L 94.900543 54.450032 
L 94.844125 54.841303 
z
" clip-path="url(#p063b1c88c4)" style="fill: #eeeeee; stroke: #000000; stroke-width: 0.3"/>
    <path d="M 97.756674 84.063976 
L 98.416566 84.279104 
L 97.990036 83.199593 
L 98.48523 82.8356 
L 98.769954 83.768802 
L 99.310932 82.872413 
L 98.69347 82.599016 
L 99.35671 80.235103 
L 101.188427 78.828727 
L 102.129689 80.347793 
L 103.426582 81.025851 
L 103.513116 82.355069 
L 102.93027 82.549709 
L 103.234531 82.990225 
L 102.702485 83.853962 
L 103.024055 85.618888 
L 103.633141 85.948956 
L 103.656589 87.780152 
L 101.801424 91.340105 
L 101.372664 90.607625 
L 99.320077 91.357147 
L 98.146914 89.949425 
L 98.501982 89.56429 
z
" clip-path="url(#p063b1c88c4)" style="fill: #eeeeee; stroke: #000000; stroke-width: 0.3"/>
    <path d="M -13.228502 63.465547 
L -11.643736 60.205513 
L -10.644828 53.718134 
L -2.960956 54.911341 
L -0.164591 52.593651 
L 1.561864 49.769765 
L 6.64835 48.660215 
L 7.865026 46.014212 
L 10.155146 44.692838 
L 3.1451 36.886549 
L 16.892227 32.926489 
L 18.225183 31.927119 
L 26.543373 33.365997 
L 38.240733 40.121281 
L 56.189859 54.897117 
L 74.997952 56.526678 
L 76.607778 60.155379 
L 82.277775 60.417816 
L 82.100241 61.307163 
L 82.558026 61.145811 
L 83.358044 63.990256 
L 84.317732 64.297594 
L 83.986112 64.657111 
L 84.939654 65.716126 
L 84.883826 66.163046 
L 84.641532 66.488306 
L 84.45842 65.701405 
L 84.227288 66.559376 
L 84.922352 66.81101 
L 84.590732 67.401666 
L 87.389396 67.931819 
L 87.890174 68.690868 
L 86.566485 68.749774 
L 87.554643 68.964264 
L 87.277177 69.614149 
L 87.890174 69.506581 
L 87.957726 70.602102 
L 88.573507 70.615548 
L 88.316142 71.047732 
L 89.669411 70.693022 
L 90.543127 72.54919 
L 93.691831 74.8574 
L 92.525583 74.38871 
L 92.814773 76.196861 
L 94.09044 77.539847 
L 93.574591 79.805477 
L 92.827053 78.506345 
L 92.536189 80.074396 
L 93.299917 80.171075 
L 94.371261 82.984465 
L 93.597483 82.186353 
L 93.624834 82.449828 
L 95.839541 84.516333 
L 96.461462 87.524686 
L 99.320077 91.357147 
L 101.309015 90.910479 
L 101.539585 91.755011 
L 102.176585 90.856695 
L 102.883374 91.232537 
L 101.377685 93.402448 
L 103.370754 93.808384 
L 103.536598 95.207633 
L 110.156336 104.174903 
L 127.627933 106.67393 
L 128.187351 106.023809 
L 131.279376 111.724838 
L 126.757262 127.33091 
L 106.178397 135.196955 
L 85.990554 138.469295 
L 79.995462 141.858731 
L 76.065023 147.2532 
L 74.957539 150.175677 
L 73.131111 151.311654 
L 71.820848 151.237658 
L 70.03554 148.731512 
L 67.377434 149.135245 
L 61.256491 148.443253 
L 59.43857 147.527635 
L 52.466096 147.713039 
L 50.861594 148.523347 
L 47.416127 146.807185 
L 45.715899 148.333883 
L 46.313604 148.758348 
L 45.396133 150.219587 
L 45.356426 151.606019 
L 46.034608 152.49642 
L 45.818355 153.536851 
L 45.166414 153.47424 
L 44.832468 154.546386 
L 43.13947 155.847288 
L 42.610778 153.017572 
L 40.17053 149.462748 
L 40.213516 150.702966 
L 39.792014 147.329336 
L 36.266469 144.339866 
L 34.247723 141.268453 
L 33.853024 139.332883 
L 32.305468 137.539146 
L 32.571765 136.467314 
L 31.799661 135.66216 
L 32.074335 134.632594 
L 31.334055 134.176075 
L 30.483794 131.184048 
L 29.219844 130.373457 
L 29.113216 129.049361 
L 28.507478 129.187015 
L 27.670058 127.595283 
L 24.578294 125.097877 
L 23.338355 124.869618 
L 23.596276 125.255704 
L 22.357455 124.53475 
L 18.338945 118.570546 
L 17.696924 116.948719 
L 18.316616 116.247615 
L 17.891203 113.543713 
L 16.671426 111.511598 
L 17.182089 111.543604 
L 18.122329 108.386905 
L 17.625002 108.681135 
L 17.232429 105.526457 
L 15.76806 103.701981 
L 15.759683 102.514579 
L 13.388106 97.523285 
L 9.839167 94.730202 
L 9.925804 94.19488 
L 9.361103 94.644593 
L 6.368489 92.933994 
L 6.555538 92.352236 
L 4.442212 89.12826 
L 5.183047 88.96915 
L 5.084233 86.57707 
L 2.985656 82.872413 
L 1.380598 81.819472 
L 1.337612 79.913044 
L 0.079802 79.215135 
L -3.217965 72.953844 
L -9.175382 64.27934 
L -8.813619 63.924945 
L -9.941347 63.412086 
L -11.636286 63.792728 
L -12.292268 63.250734 
L -12.718236 63.573115 
L -12.573082 63.792728 
L -12.952154 64.115109 
z
" clip-path="url(#p063b1c88c4)" style="fill: #eeeeee; stroke: #000000; stroke-width: 0.3"/>
    <path d="M 36.057076 151.713461 
L 37.072777 152.884111 
L 37.963549 153.134369 
L 38.150111 152.360009 
L 39.002506 153.214974 
L 38.948455 154.175202 
L 38.311791 153.309411 
L 37.417939 153.493595 
z
" clip-path="url(#p063b1c88c4)" style="fill: #eeeeee; stroke: #000000; stroke-width: 0.3"/>
    <path d="M 36.591393 151.750463 
L 37.232852 151.252969 
L 36.668433 150.918102 
L 36.76892 150.791006 
L 37.299293 151.111467 
L 37.736169 152.778636 
z
" clip-path="url(#p063b1c88c4)" style="fill: #eeeeee; stroke: #000000; stroke-width: 0.3"/>
    <path d="M -0.065908 82.880737 
L 0.291946 82.426138 
L 0.205412 82.884577 
L 1.14277 83.630825 
L 0.26292 83.320607 
z
" clip-path="url(#p063b1c88c4)" style="fill: #eeeeee; stroke: #000000; stroke-width: 0.3"/>
    <path d="M 3.056 84.479512 
L 3.09229 84.27783 
L 3.417763 84.262779 
L 3.607022 84.654632 
z
" clip-path="url(#p063b1c88c4)" style="fill: #eeeeee; stroke: #000000; stroke-width: 0.3"/>
    <path d="M 1.237118 83.601691 
L 1.540268 83.509488 
L 2.593742 84.467993 
L 1.49672 83.584405 
z
" clip-path="url(#p063b1c88c4)" style="fill: #eeeeee; stroke: #000000; stroke-width: 0.3"/>
    <path d="M 0.284132 81.646601 
L 0.393558 81.375762 
L 0.615752 81.185598 
L 0.754766 82.374274 
z
" clip-path="url(#p063b1c88c4)" style="fill: #eeeeee; stroke: #000000; stroke-width: 0.3"/>
    <path d="M 88.874421 69.936207 
L 89.758737 69.511703 
L 90.469991 69.721079 
z
" clip-path="url(#p063b1c88c4)" style="fill: #eeeeee; stroke: #000000; stroke-width: 0.3"/>
    <path d="M 2.72438 83.271308 
L 2.83548 83.183268 
L 2.895774 83.869328 
z
" clip-path="url(#p063b1c88c4)" style="fill: #eeeeee; stroke: #000000; stroke-width: 0.3"/>
    <path d="M 2.235882 83.65099 
L 2.33414 83.471393 
L 2.507208 83.569677 
z
" clip-path="url(#p063b1c88c4)" style="fill: #eeeeee; stroke: #000000; stroke-width: 0.3"/>
    <path d="M 1.889752 84.05053 
L 2.766247 84.855362 
L 2.734986 85.115635 
z
" clip-path="url(#p063b1c88c4)" style="fill: #eeeeee; stroke: #000000; stroke-width: 0.3"/>
    <path d="M 68.816743 55.731814 
L 71.01895 52.987424 
L 73.016958 48.591097 
L 76.649254 47.844621 
L 78.527799 48.664212 
L 80.097054 52.221451 
L 78.648003 51.950942 
L 76.858777 53.624138 
L 79.572306 53.731761 
L 79.971513 56.349165 
L 81.584384 58.504025 
L 81.297986 59.313333 
L 81.853412 60.100502 
L 76.607778 60.155379 
L 75.002206 56.527692 
z
" clip-path="url(#p063b1c88c4)" style="fill: #eeeeee; stroke: #000000; stroke-width: 0.3"/>
    <path d="M 79.200527 50.187118 
L 80.238929 49.204609 
L 79.713584 48.763771 
L 80.17919 48.746808 
L 81.304126 50.900707 
L 80.455545 51.765082 
L 79.993287 51.530741 
z
" clip-path="url(#p063b1c88c4)" style="fill: #eeeeee; stroke: #000000; stroke-width: 0.3"/>
    <path d="M 80.731509 53.104457 
L 81.553122 53.142325 
L 81.610391 53.436382 
z
" clip-path="url(#p063b1c88c4)" style="fill: #eeeeee; stroke: #000000; stroke-width: 0.3"/>
    <path d="M 78.958233 48.771135 
L 79.633753 48.397212 
L 79.097803 48.845407 
z
" clip-path="url(#p063b1c88c4)" style="fill: #eeeeee; stroke: #000000; stroke-width: 0.3"/>
    <path d="M -10.644828 53.718134 
L -9.300985 47.646621 
L -9.337145 45.232771 
L -7.289504 39.933438 
L -7.583037 38.722245 
L -6.45996 34.728031 
L -6.710946 32.4268 
L -6.100844 27.516835 
L -4.152813 27.269976 
L -2.982936 28.811717 
L 2.095749 30.418918 
L 15.596144 22.089777 
L 17.535305 28.974761 
L 16.99362 29.144909 
L 17.340326 30.298573 
L 18.760489 30.105656 
L 19.146194 30.95804 
L 16.892227 32.926489 
L 3.1451 36.886549 
L 10.155146 44.692838 
L 7.865026 46.014212 
L 6.64835 48.660215 
L 1.561864 49.769765 
L -0.164591 52.593651 
L -3.324682 54.990625 
z
" clip-path="url(#p063b1c88c4)" style="fill: #eeeeee; stroke: #000000; stroke-width: 0.3"/>
    <path d="M 95.684336 78.816886 
L 95.907648 78.17981 
L 96.674724 78.211179 
L 96.388889 78.560129 
L 97.034114 78.941645 
L 96.482681 81.74424 
z
" clip-path="url(#p063b1c88c4)" style="fill: #eeeeee; stroke: #000000; stroke-width: 0.3"/>
    <path d="M 98.151112 82.73147 
L 98.229257 82.616955 
L 98.207551 82.691636 
z
" clip-path="url(#p063b1c88c4)" style="fill: #eeeeee; stroke: #000000; stroke-width: 0.3"/>
    <path d="M 98.02955 82.995362 
L 98.207551 82.88582 
L 98.172818 82.985402 
z
" clip-path="url(#p063b1c88c4)" style="fill: #eeeeee; stroke: #000000; stroke-width: 0.3"/>
    <path d="M 97.960091 82.094151 
L 98.025215 82.01449 
L 98.033893 82.064277 
z
" clip-path="url(#p063b1c88c4)" style="fill: #eeeeee; stroke: #000000; stroke-width: 0.3"/>
    <path d="M 97.690926 82.651801 
L 98.099016 82.203693 
L 97.795118 83.393683 
z
" clip-path="url(#p063b1c88c4)" style="fill: #eeeeee; stroke: #000000; stroke-width: 0.3"/>
    <path d="M 96.805835 78.190015 
L 97.100383 77.911323 
L 97.262386 78.451822 
z
" clip-path="url(#p063b1c88c4)" style="fill: #eeeeee; stroke: #000000; stroke-width: 0.3"/>
    <path d="M 95.252098 79.118999 
L 95.48037 78.78119 
L 95.509828 79.144334 
z
" clip-path="url(#p063b1c88c4)" style="fill: #eeeeee; stroke: #000000; stroke-width: 0.3"/>
   </g>
   <g id="PatchCollection_2">
    <path d="M 68.816743 55.731814 
L 71.01895 52.987424 
L 73.016958 48.591097 
L 76.649254 47.844621 
L 78.527799 48.664212 
L 80.097054 52.221451 
L 78.648003 51.950942 
L 76.858777 53.624138 
L 79.572306 53.731761 
L 79.971513 56.349165 
L 81.584384 58.504025 
L 81.297986 59.313333 
L 81.853412 60.100502 
L 76.607778 60.155379 
L 75.002206 56.527692 
z
" clip-path="url(#p063b1c88c4)" style="fill: #ff6b6b; stroke: #dd0000"/>
    <path d="M 79.200527 50.187118 
L 80.238929 49.204609 
L 79.713584 48.763771 
L 80.17919 48.746808 
L 81.304126 50.900707 
L 80.455545 51.765082 
L 79.993287 51.530741 
z
" clip-path="url(#p063b1c88c4)" style="fill: #ff6b6b; stroke: #dd0000"/>
    <path d="M 80.731509 53.104457 
L 81.553122 53.142325 
L 81.610391 53.436382 
z
" clip-path="url(#p063b1c88c4)" style="fill: #ff6b6b; stroke: #dd0000"/>
    <path d="M 78.958233 48.771135 
L 79.633753 48.397212 
L 79.097803 48.845407 
z
" clip-path="url(#p063b1c88c4)" style="fill: #ff6b6b; stroke: #dd0000"/>
   </g>
  </g>
 </g>
 <defs>
  <clipPath id="p063b1c88c4">
   <rect x="0" y="0" width="150.670155" height="108"/>
  </clipPath>
 </defs>
</svg>
