<?xml version="1.0" encoding="utf-8" standalone="no"?>
<!DOCTYPE svg PUBLIC "-//W3C//DTD SVG 1.1//EN"
  "http://www.w3.org/Graphics/SVG/1.1/DTD/svg11.dtd">
<svg xmlns:xlink="http://www.w3.org/1999/xlink" width="150.226701pt" height="108pt" viewBox="0 0 150.226701 108" xmlns="http://www.w3.org/2000/svg" version="1.1">
 <metadata>
  <rdf:RDF xmlns:dc="http://purl.org/dc/elements/1.1/" xmlns:cc="http://creativecommons.org/ns#" xmlns:rdf="http://www.w3.org/1999/02/22-rdf-syntax-ns#">
   <cc:Work>
    <dc:type rdf:resource="http://purl.org/dc/dcmitype/StillImage"/>
    <dc:date>2025-09-05T15:49:28.934743</dc:date>
    <dc:format>image/svg+xml</dc:format>
    <dc:creator>
     <cc:Agent>
      <dc:title>Matplotlib v3.10.3, https://matplotlib.org/</dc:title>
     </cc:Agent>
    </dc:creator>
   </cc:Work>
  </rdf:RDF>
 </metadata>
 <defs>
  <style type="text/css">*{stroke-linejoin: round; stroke-linecap: butt}</style>
 </defs>
 <g id="figure_1">
  <g id="patch_1">
   <path d="M 0 108 
L 150.226701 108 
L 150.226701 0 
L 0 0 
z
" style="fill: #ffffff"/>
  </g>
  <g id="axes_1">
   <g id="PatchCollection_1">
    <path d="M -109.294923 36.041111 
L -105.050475 33.529759 
L -104.605991 29.637418 
L -102.656128 26.338441 
L -99.776757 25.330827 
L -97.630605 29.03658 
L -95.549338 28.956348 
L -94.702561 31.98289 
L -95.886762 33.341293 
L -94.374884 35.559899 
L -94.640924 37.562037 
L -91.826423 37.127278 
L -91.1078 38.642427 
L -86.641934 38.952162 
L -82.667575 41.129713 
L -73.576863 40.010146 
L -67.698064 42.133589 
L -65.058772 40.790117 
L -65.410777 38.254301 
L -62.442192 37.578828 
L -60.657776 34.436595 
L -54.177161 32.471775 
L -54.180394 -33.783891 
L -48.162093 -28.715998 
L -43.584302 -20.869751 
L -43.876287 -18.115626 
L -40.682203 -8.890431 
L -44.388905 -2.355936 
L -43.047356 4.83912 
L -39.642386 3.182175 
L -27.763132 4.320392 
L -26.228543 3.262407 
L -25.941423 0.982237 
L -21.592348 -0.111206 
L -18.601036 -4.998089 
L -13.942129 -7.517115 
L -11.207126 -11.545655 
L -9.241034 -20.629037 
L -6.321105 -23.909346 
L 0.406088 -24.220959 
L 7.712416 -17.955144 
L 11.77274 -18.014867 
L 14.212509 -15.742153 
L 19.330496 -14.450929 
L 31.784004 -16.475472 
L 33.806051 -18.130557 
L 37.697678 -29.020154 
L 38.218395 -33.862264 
L 46.631043 -35.944634 
L 48.621463 -39.088744 
L 53.455579 -42.57431 
L 55.464646 -52.447916 
L 57.979849 -55.944676 
L 64.595116 -58.909654 
L 65.522992 -61.51077 
L 67.808662 -61.437995 
L 76.412718 -72.575762 
L 85.998203 -75.286973 
L 87.978892 -79.434941 
L 97.752551 -81.194523 
L 108.324331 -77.253671 
L 121.157422 -77.764943 
L 123.297092 -76.303902 
L 127.180604 -62.589282 
L 127.043519 -57.176196 
L 132.110416 -48.621815 
L 134.246837 -39.730619 
L 134.391205 -17.817067 
L 132.760904 -11.55313 
L 125.063646 -16.027641 
L 120.643187 -12.885409 
L 115.694729 -4.085657 
L 115.66147 3.342639 
L 116.882163 2.680237 
L 118.034722 6.798362 
L 120.990342 10.339895 
L 127.026489 12.405493 
L 133.959702 12.502516 
L 134.301992 3.331446 
L 148.47525 4.014592 
L 148.03841 7.105876 
L 140.612121 34.511628 
L 134.722445 39.017788 
L 135.557811 39.390983 
L 134.64709 40.489968 
L 130.833046 41.497871 
L 124.491196 48.905784 
L 118.781612 59.193405 
L 119.677014 59.075873 
L 104.051678 83.318342 
L 93.831918 91.240488 
L 80.286044 107.217025 
L 57.563963 124.601074 
L 47.756778 128.91476 
L 36.916242 128.541583 
L 34.540448 130.555908 
L 35.536741 133.801463 
L 23.84935 132.902282 
L 21.985766 136.883937 
L 3.172263 132.803851 
L -0.729927 133.733887 
L -0.392723 135.157574 
L -13.336986 133.063902 
L -19.842321 134.672733 
L -20.179525 136.390267 
L -23.33065 137.210101 
L -25.81374 140.05455 
L -29.75553 139.469798 
L -33.392025 140.836181 
L -39.552497 139.67843 
L -41.251325 140.357226 
L -40.688026 141.566395 
L -46.313294 141.664843 
L -53.643778 147.956132 
L -59.332927 147.146571 
L -63.327078 144.036204 
L -64.924983 144.324166 
L -63.931248 142.205525 
L -65.027177 140.55703 
L -67.71208 140.402758 
L -67.388923 138.485402 
L -72.447063 139.97522 
L -71.810967 135.884844 
L -72.722975 134.787322 
L -77.772184 135.10027 
L -77.902457 139.443349 
L -80.31658 136.014147 
L -80.339574 133.695685 
L -77.677649 130.353161 
L -80.4558 123.769487 
L -85.987836 116.958079 
L -83.279939 118.680037 
L -84.692636 115.726866 
L -86.820644 115.782689 
L -87.744141 111.927395 
L -85.791123 109.764684 
L -83.415329 111.019422 
L -80.628247 108.050075 
L -79.796711 101.763191 
L -80.934798 95.125156 
L -96.549916 67.233101 
L -103.737335 44.724325 
z
M 56.013757 54.933899 
L 61.965555 63.530273 
L 61.727092 66.569886 
L 63.07594 66.553096 
L 67.651298 71.792647 
L 72.912052 72.848754 
L 73.643655 69.21018 
L 75.418324 67.314398 
L 74.824607 66.054895 
L 77.700729 63.558257 
L 84.163514 62.569311 
L 89.635138 59.505451 
L 89.156595 56.443451 
L 94.212945 49.082334 
L 92.264698 44.521976 
L 87.070478 41.258456 
L 81.631282 35.151246 
L 74.107601 37.526597 
L 71.888448 40.706147 
L 67.711318 41.251 
L 61.477266 51.571498 
z
" clip-path="url(#p3f07a55e64)" style="fill: #eeeeee; stroke: #000000; stroke-width: 0.3"/>
    <path d="M 222.38553 366.946501 
L 223.333308 364.777905 
L 225.822786 365.059999 
L 226.995356 365.885718 
L 225.594132 367.255045 
z
" clip-path="url(#p3f07a55e64)" style="fill: #eeeeee; stroke: #000000; stroke-width: 0.3"/>
    <path d="M 226.451221 361.304616 
L 227.068152 360.646402 
L 228.282881 360.934364 
L 227.668493 361.633723 
z
" clip-path="url(#p3f07a55e64)" style="fill: #eeeeee; stroke: #000000; stroke-width: 0.3"/>
    <path d="M 106.432856 -210.190411 
L 153.335075 -227.659313 
L 160.274771 -217.04587 
L 161.460588 -219.068536 
L 166.645909 -218.969654 
L 171.24966 -220.915824 
L 173.981415 -216.943233 
L 174.781152 -204.960193 
L 169.509051 -193.790705 
L 172.198647 -190.723108 
L 172.542537 -186.856891 
L 180.061368 -178.426578 
L 183.401437 -176.754702 
L 182.58062 -171.765199 
L 186.126709 -171.412532 
L 185.910958 -179.150563 
L 183.615572 -182.095013 
L 187.424468 -189.256488 
L 189.620893 -188.707898 
L 193.867774 -191.038457 
L 194.737262 -202.323636 
L 193.853177 -206.753356 
L 195.738155 -211.897744 
L 194.842705 -216.167018 
L 182.864506 -233.249654 
L 179.396268 -236.65125 
L 175.903701 -237.074816 
L 174.408052 -240.082708 
L 173.609947 -251.607663 
L 171.405392 -260.416749 
L 175.528984 -271.63103 
L 189.886933 -271.009665 
L 194.515029 -274.607202 
L 199.87796 -271.623556 
L 200.374349 -269.406828 
L 207.061 -269.048563 
L 210.112332 -271.716859 
L 213.444286 -271.873604 
L 215.158935 -269.890116 
L 220.307748 -269.082162 
L 225.758292 -272.438984 
L 227.659499 -276.945217 
L 232.659062 -277.068363 
L 236.35765 -274.607202 
L 242.698762 -279.044395 
L 248.064943 -278.926828 
L 252.151227 -282.240736 
L 256.660899 -283.289386 
L 268.035336 -291.501191 
L 267.974013 -289.901188 
L 270.302564 -287.723782 
L 267.640639 -286.366191 
L 269.758429 -284.943966 
L 267.809241 -282.870876 
L 267.972742 -281.400158 
L 268.907728 -281.820366 
L 267.972742 -278.687937 
L 265.497312 -276.347448 
L 267.334088 -275.117697 
L 266.733748 -270.33531 
L 268.187332 -266.92373 
L 268.261415 -260.325378 
L 267.104164 -259.25871 
L 268.828544 -257.028386 
L 267.528243 -254.971454 
L 268.843863 -254.448411 
L 270.174833 -250.1832 
L 266.471898 -247.009644 
L 267.609985 -245.568318 
L 267.873106 -246.902385 
L 269.365003 -246.402848 
L 268.294627 -236.745529 
L 269.365003 -235.75967 
L 268.488781 -234.474078 
L 270.233582 -227.333564 
L 268.476005 -224.940177 
L 269.306255 -223.15651 
L 270.951435 -224.613995 
L 271.733138 -223.018397 
L 271.518548 -221.772488 
L 270.008774 -221.772488 
L 269.901479 -217.685055 
L 271.017843 -220.109315 
L 272.601717 -220.494245 
L 273.246758 -219.524544 
L 271.966893 -218.252186 
L 273.028338 -218.43437 
L 273.332331 -215.181466 
L 271.421487 -211.897726 
L 270.116069 -212.495694 
L 272.169978 -209.896617 
L 270.552908 -210.277142 
L 271.196679 -208.539026 
L 268.309946 -207.489997 
L 268.069819 -206.56879 
L 269.995998 -206.883201 
L 270.72151 -205.649045 
L 269.154259 -200.970974 
L 261.042056 -191.996856 
L 262.137985 -192.045331 
L 259.902698 -187.786005 
L 256.622555 -186.350547 
L 257.008305 -184.779937 
L 257.761929 -184.042375 
L 246.354265 -176.133463 
L 245.747536 -174.039791 
L 239.036557 -173.286071 
L 231.344588 -168.556582 
L 229.89995 -170.304971 
L 230.639511 -168.578608 
L 215.909577 -160.411108 
L 212.68564 -155.470044 
L 211.177137 -157.841405 
L 210.311117 -157.903114 
L 212.578345 -154.852975 
L 204.662855 -145.64818 
L 203.635893 -141.524007 
L 200.977813 -143.162212 
L 201.429987 -139.609594 
L 199.543393 -139.436221 
L 199.183195 -141.237508 
L 194.969353 -138.517939 
L 183.534865 -124.9113 
L 179.662057 -122.052155 
L 175.685799 -126.881554 
L 174.532377 -127.126927 
L 178.053934 -122.924887 
L 176.980983 -121.681921 
L 178.011775 -116.839287 
L 176.134128 -116.851058 
L 177.516172 -115.49641 
L 175.899102 -112.795942 
L 177.092108 -111.154794 
L 176.3385 -109.816322 
L 177.462524 -110.11898 
L 179.541986 -106.711823 
L 181.440069 -106.40328 
L 182.134928 -102.643491 
L 183.430128 -102.138068 
L 181.802825 -99.525758 
L 182.679063 -95.718957 
L 183.537423 -98.306298 
L 183.430128 -94.721345 
L 185.798263 -89.902236 
L 186.342398 -76.461622 
L 187.729558 -74.67207 
L 188.472949 -81.318934 
L 189.405377 -81.562825 
L 189.664683 -77.877961 
L 190.199872 -80.243437 
L 189.226557 -71.019541 
L 189.986553 -66.381153 
L 191.058216 -66.96298 
L 189.055396 -62.230549 
L 187.672066 -51.919421 
L 187.534117 -53.188836 
L 186.886533 -53.215285 
L 186.761345 -48.009766 
L 187.511139 -50.178362 
L 188.859971 -49.533364 
L 189.013254 -51.297929 
L 189.821781 -50.926214 
L 189.342798 -45.539974 
L 183.215538 -36.574666 
L 154.504161 -23.95681 
L 155.163251 -24.759023 
L 148.155923 -19.4962 
L 145.241095 -13.320981 
L 143.741539 -11.820889 
L 142.56641 -12.164692 
L 141.941804 -11.540257 
L 147.680771 -6.049701 
L 149.438347 -9.837419 
L 148.47525 4.014592 
L 136.245357 3.904282 
L 135.565659 -11.084772 
L 133.661219 -12.01775 
L 132.979905 -14.637517 
L 134.391205 -17.817067 
L 134.246837 -39.730619 
L 132.110416 -48.621815 
L 127.043519 -57.176196 
L 127.180604 -62.589282 
L 123.142977 -75.979237 
L 141.476901 -95.868246 
L 139.791461 -99.111238 
L 142.164713 -102.680773 
L 142.017096 -108.698417 
L 145.00191 -109.984044 
L 148.353342 -117.725812 
L 150.267514 -119.007721 
L 150.668206 -123.482233 
L 149.261772 -125.917288 
L 147.32244 -125.465721 
L 147.519546 -128.59676 
L 146.439171 -129.262899 
L 147.891829 -136.127675 
L 145.147911 -138.452637 
L 145.310125 -140.632048 
L 148.623432 -141.71056 
L 148.124611 -146.02087 
L 150.824739 -149.338515 
L 149.446697 -151.066358 
L 149.013577 -156.182763 
L 150.53842 -162.568005 
L 149.157945 -164.751135 
L 150.493012 -167.508997 
L 147.466008 -174.918625 
L 149.6592 -179.495774 
L 145.936284 -179.005029 
L 145.00191 -180.973587 
L 139.016868 -183.645602 
L 133.049656 -184.057974 
L 129.917225 -187.868223 
L 125.112318 -188.8721 
L 122.842877 -191.378054 
L 109.385243 -191.779232 
L 109.232745 -201.176086 
z
M 176.143796 -262.640952 
L 176.662897 -261.769556 
L 177.814639 -263.290284 
L 176.743996 -264.010549 
z
M 174.38859 -263.812749 
L 175.441387 -262.708113 
L 175.697696 -264.247508 
z
" clip-path="url(#p3f07a55e64)" style="fill: #eeeeee; stroke: #000000; stroke-width: 0.3"/>
    <path d="M 188.370755 -87.397167 
L 188.411642 -89.382118 
L 188.914889 -91.618308 
L 189.246992 -89.943363 
z
" clip-path="url(#p3f07a55e64)" style="fill: #eeeeee; stroke: #000000; stroke-width: 0.3"/>
    <path d="M 257.218375 -186.071125 
L 259.180873 -186.345907 
L 258.115205 -184.275146 
z
" clip-path="url(#p3f07a55e64)" style="fill: #eeeeee; stroke: #000000; stroke-width: 0.3"/>
    <path d="M 148.871218 -11.236137 
L 149.880288 -11.820889 
L 149.545642 -10.464778 
z
" clip-path="url(#p3f07a55e64)" style="fill: #eeeeee; stroke: #000000; stroke-width: 0.3"/>
    <path d="M 115.398679 1.681957 
L 115.694729 -4.085657 
L 120.643187 -12.885409 
L 125.063646 -16.027641 
L 131.861406 -11.584851 
L 135.565659 -11.084772 
L 135.083883 -6.140043 
L 136.300511 -0.749362 
L 136.245357 3.904282 
L 134.301992 3.331446 
L 133.959702 12.502516 
L 127.026489 12.405493 
L 120.990342 10.339895 
z
" clip-path="url(#p3f07a55e64)" style="fill: #eeeeee; stroke: #000000; stroke-width: 0.3"/>
    <path d="M 56.013757 54.933899 
L 61.477266 51.571498 
L 67.711318 41.251 
L 71.888448 40.706147 
L 74.107601 37.526597 
L 81.631282 35.151246 
L 87.070478 41.258456 
L 92.264698 44.521976 
L 94.212945 49.082334 
L 89.156595 56.443451 
L 89.635138 59.505451 
L 84.163514 62.569311 
L 77.700729 63.558257 
L 74.824607 66.054895 
L 75.418324 67.314398 
L 73.643655 69.21018 
L 72.912052 72.848754 
L 67.651298 71.792647 
L 63.07594 66.553096 
L 61.727092 66.569886 
L 61.965555 63.530273 
z
" clip-path="url(#p3f07a55e64)" style="fill: #eeeeee; stroke: #000000; stroke-width: 0.3"/>
   </g>
   <g id="PatchCollection_2">
    <defs>
     <path id="mfa75b49c75" d="M 56.013757 -53.066101 
L 61.477266 -56.428502 
L 67.711318 -66.749 
L 71.888448 -67.293853 
L 74.107601 -70.473403 
L 81.631282 -72.848754 
L 87.070478 -66.741544 
L 92.264698 -63.478024 
L 94.212945 -58.917666 
L 89.156595 -51.556549 
L 89.635138 -48.494549 
L 84.163514 -45.430689 
L 77.700729 -44.441743 
L 74.824607 -41.945105 
L 75.418324 -40.685602 
L 73.643655 -38.78982 
L 72.912052 -35.151246 
L 67.651298 -36.207353 
L 63.07594 -41.446904 
L 61.727092 -41.430114 
L 61.965555 -44.469727 
z
" style="stroke: #dd0000; stroke-width: 0.5"/>
    </defs>
    <g clip-path="url(#p3f07a55e64)">
     <use xlink:href="#mfa75b49c75" x="0" y="108" style="fill: #ff6b6b; stroke: #dd0000; stroke-width: 0.5"/>
    </g>
   </g>
  </g>
 </g>
 <defs>
  <clipPath id="p3f07a55e64">
   <rect x="0" y="0" width="150.226701" height="108"/>
  </clipPath>
 </defs>
</svg>
