<?xml version="1.0" encoding="utf-8" standalone="no"?>
<!DOCTYPE svg PUBLIC "-//W3C//DTD SVG 1.1//EN"
  "http://www.w3.org/Graphics/SVG/1.1/DTD/svg11.dtd">
<svg xmlns:xlink="http://www.w3.org/1999/xlink" width="117.496308pt" height="108pt" viewBox="0 0 117.496308 108" xmlns="http://www.w3.org/2000/svg" version="1.1">
 <metadata>
  <rdf:RDF xmlns:dc="http://purl.org/dc/elements/1.1/" xmlns:cc="http://creativecommons.org/ns#" xmlns:rdf="http://www.w3.org/1999/02/22-rdf-syntax-ns#">
   <cc:Work>
    <dc:type rdf:resource="http://purl.org/dc/dcmitype/StillImage"/>
    <dc:date>2025-09-05T15:49:28.962420</dc:date>
    <dc:format>image/svg+xml</dc:format>
    <dc:creator>
     <cc:Agent>
      <dc:title>Matplotlib v3.10.3, https://matplotlib.org/</dc:title>
     </cc:Agent>
    </dc:creator>
   </cc:Work>
  </rdf:RDF>
 </metadata>
 <defs>
  <style type="text/css">*{stroke-linejoin: round; stroke-linecap: butt}</style>
 </defs>
 <g id="figure_1">
  <g id="patch_1">
   <path d="M 0 108 
L 117.496308 108 
L 117.496308 0 
L 0 0 
z
" style="fill: #ffffff"/>
  </g>
  <g id="axes_1">
   <g id="PatchCollection_1">
    <path d="M -60.816874 -130.00987 
L -51.445465 -136.346722 
L -54.383857 -139.181265 
L -49.482053 -147.57047 
L -49.951113 -153.371432 
L -58.44136 -167.975483 
L -51.157299 -169.234443 
L -52.102162 -171.841138 
L -45.03592 -168.235419 
L -32.107935 -172.39424 
L -29.987035 -175.78937 
L -34.178555 -179.647635 
L -22.947602 -187.760838 
L -22.237286 -194.170397 
L -24.666419 -198.284878 
L -33.046088 -198.770231 
L -34.44325 -202.590354 
L -32.325721 -207.02513 
L -23.202248 -206.610006 
L -17.549928 -224.346725 
L -17.492548 -236.123718 
L -15.542913 -239.675801 
L -11.918032 -238.878498 
L -23.035424 -242.38791 
L -22.133158 -248.881047 
L -19.204751 -250.052806 
L -20.988177 -252.421497 
L -16.471567 -256.218068 
L 9.636097 -258.200718 
L 14.063006 -250.817164 
L 11.113495 -246.787786 
L 15.273958 -244.023328 
L 18.832901 -247.084624 
L 16.112911 -249.482445 
L 17.392427 -253.661148 
L 26.51535 -250.359322 
L 24.502402 -247.631718 
L 24.969355 -241.512989 
L 26.958572 -250.506739 
L 24.375776 -257.836036 
L 27.665615 -265.941277 
L 47.866346 -266.014986 
L 59.915017 -252.632992 
L 68.009048 -250.359322 
L 59.957226 -253.641791 
L 53.84716 -264.061419 
L 49.393862 -266.662917 
L 40.537418 -267.210011 
L 38.313395 -269.134495 
L 35.632988 -273.856382 
L 40.946342 -273.559592 
L 41.629622 -276.785755 
L 34.968154 -280.723927 
L 39.840912 -287.261689 
L 30.612468 -284.953119 
L 28.06397 -288.237495 
L 41.410669 -296.259349 
L 30.944885 -307.175629 
L 30.038632 -314.8523 
L 48.947884 -310.34496 
L 59.835884 -313.420416 
L 67.739944 -308.198015 
L 71.752645 -309.284384 
L 74.045265 -305.551844 
L 71.166977 -304.24821 
L 74.720635 -303.910609 
L 74.324905 -298.816221 
L 68.270242 -294.77912 
L 78.102833 -295.568699 
L 80.063004 -294.098196 
L 78.050056 -287.585655 
L 83.77496 -293.254312 
L 97.161209 -286.908593 
L 110.265192 -290.516983 
L 108.030633 -289.215256 
L 108.030633 -280.886887 
L 97.852432 -274.508222 
L 102.698801 -270.277123 
L 111.547335 -272.977598 
L 120.70984 -267.644587 
L 128.231365 -279.519223 
L 141.148002 -281.371905 
L 141.261466 -277.554023 
L 142.018627 -276.785755 
L 141.820746 -280.844216 
L 155.597473 -295.397968 
L 168.15268 -292.786744 
L 158.52588 -292.282368 
L 155.375862 -289.867097 
L 152.505484 -290.594601 
L 150.247195 -284.953119 
L 160.362051 -291.708146 
L 165.997286 -289.180357 
L 170.994044 -293.004056 
L 174.434238 -285.469128 
L 186.38533 -276.471515 
L 193.788139 -280.398006 
L 196.906485 -277.109768 
L 194.896163 -273.856382 
L 200.080234 -269.404156 
L 197.244186 -266.302097 
L 197.196693 -265.107072 
L 211.701535 -260.276529 
L 210.02363 -258.200718 
L 217.443912 -236.448828 
L 214.257553 -226.760042 
L 207.811148 -222.530945 
L 207.144401 -217.321274 
L 224.031013 -204.270636 
L 220.807827 -194.984673 
L 226.222261 -188.012144 
L 225.377927 -182.535195 
L 227.8104 -180.420003 
L 222.117881 -167.414944 
L 226.87228 -160.475741 
L 226.145203 -154.368025 
L 234.099349 -149.847002 
L 236.260416 -140.376195 
L 234.095978 -132.141034 
L 227.740052 -120.037691 
L 223.005753 -121.725411 
L 223.525093 -125.307721 
L 220.968654 -124.896268 
L 221.745979 -127.919327 
L 218.757306 -130.861096 
L 212.44829 -130.843837 
L 210.85344 -128.25197 
L 215.50731 -125.315111 
L 214.361421 -123.376133 
L 188.751702 -115.105215 
L 185.230332 -109.886914 
L 171.020757 -104.900229 
L 169.171262 -100.679809 
L 154.831041 -99.945583 
L 148.029493 -89.077839 
L 146.05937 -93.643249 
L 140.758854 -96.437172 
L 146.293916 -83.554071 
L 155.280001 -76.879666 
L 150.726661 -69.150788 
L 159.153206 -54.210423 
L 170.702474 -47.794761 
L 176.495521 -39.376043 
L 185.585474 -31.112515 
L 190.44037 -31.166724 
L 197.153156 -22.59768 
L 193.936648 -10.929248 
L 185.444747 -13.396726 
L 183.856608 -4.010927 
L 162.245747 8.53462 
L 170.424358 21.232973 
L 167.207882 27.123853 
L 173.044467 30.17895 
L 170.769483 39.402075 
L 163.542381 35.168067 
L 162.992923 29.826617 
L 154.388758 31.636247 
L 146.029221 29.252538 
L 146.143139 26.71979 
L 143.918403 32.772057 
L 125.986399 33.507523 
L 113.555971 42.837826 
L 105.206483 43.000452 
L 101.289708 36.319897 
L 87.368298 34.109875 
L 87.338149 42.738038 
L 78.636859 48.694236 
L 80.238386 43.861548 
L 76.140717 44.500897 
L 71.701262 35.838216 
L 66.390696 33.566643 
L 60.895832 36.73874 
L 46.981133 29.656601 
L 37.200962 30.337858 
L 26.713814 23.423256 
L 21.302719 29.893127 
L 28.305324 30.330468 
L 27.229816 33.374457 
L 16.16974 31.96765 
L 9.98803 34.894592 
L -4.033909 34.695063 
L -2.415621 33.17736 
L -4.802838 33.747577 
L -7.206847 27.897461 
L -3.665346 15.305095 
L -5.032359 8.48537 
L 0.536192 -2.331884 
L 2.466116 -15.378803 
L 15.110959 -31.758014 
L -3.216385 -35.53499 
L -10.493703 -41.788073 
L -14.906348 -38.740365 
L -22.421584 -38.863563 
L -26.576212 -43.586642 
L -32.697624 -41.149963 
L -39.631535 -53.983766 
L -45.024865 -55.443303 
L -39.926379 -71.668803 
L -46.409611 -73.541272 
L -53.093902 -83.728998 
L -51.458854 -91.615545 
L -44.077668 -96.451952 
L -45.297243 -104.343457 
L -50.681529 -106.105028 
L -48.145188 -110.70491 
L -57.094446 -118.685094 
L -54.152683 -124.679481 
z
" clip-path="url(#p3447bb8ed6)" style="fill: #eeeeee; stroke: #000000; stroke-width: 0.3"/>
    <path d="M 174.452717 -288.237495 
L 179.359773 -290.516983 
L 175.798205 -292.468595 
L 179.562938 -295.10504 
L 175.35764 -298.003375 
L 180.364934 -296.895647 
L 182.68391 -300.017063 
L 182.019108 -297.085783 
L 187.147776 -295.397968 
L 187.590998 -299.332278 
L 185.018738 -298.684299 
L 182.676 -301.303294 
L 178.919209 -299.03935 
L 180.222488 -302.740805 
L 178.196346 -303.26654 
L 183.377758 -304.929134 
L 184.47262 -300.017063 
L 192.450562 -299.115013 
L 189.363856 -294.61616 
L 195.555713 -288.563416 
L 194.152197 -285.391557 
L 190.709344 -287.261689 
L 193.107485 -288.889336 
L 186.907686 -288.563416 
L 182.367345 -285.251863 
L 183.910682 -282.999552 
z
" clip-path="url(#p3447bb8ed6)" style="fill: #eeeeee; stroke: #000000; stroke-width: 0.3"/>
    <path d="M 195.117775 -279.420293 
L 197.128096 -280.398006 
L 209.936587 -269.184937 
L 209.637237 -266.309725 
L 197.943319 -264.980966 
L 200.911276 -267.318667 
L 200.030115 -271.900908 
L 204.694456 -269.299362 
L 204.789441 -272.360657 
L 201.378261 -275.29394 
L 195.803713 -273.204589 
L 197.128096 -276.946808 
z
" clip-path="url(#p3447bb8ed6)" style="fill: #eeeeee; stroke: #000000; stroke-width: 0.3"/>
    <path d="M 17.838276 -307.513182 
L 18.278872 -315.626194 
L 20.732417 -321.463629 
L 22.096351 -322.910818 
L 23.63972 -322.212445 
L 21.20728 -314.75318 
L 29.834202 -314.724097 
L 18.574365 -313.377745 
z
" clip-path="url(#p3447bb8ed6)" style="fill: #eeeeee; stroke: #000000; stroke-width: 0.3"/>
    <path d="M 118.050537 -271.252929 
L 119.702053 -273.212313 
L 122.013119 -273.204589 
L 120.70984 -270.277123 
z
" clip-path="url(#p3447bb8ed6)" style="fill: #eeeeee; stroke: #000000; stroke-width: 0.3"/>
    <path d="M 34.968154 -295.10504 
L 35.994419 -296.897602 
L 39.840912 -297.085783 
L 37.40322 -294.453199 
z
" clip-path="url(#p3447bb8ed6)" style="fill: #eeeeee; stroke: #000000; stroke-width: 0.3"/>
    <path d="M 172.698305 -294.453199 
L 174.025347 -300.538936 
L 174.563522 -300.077232 
z
" clip-path="url(#p3447bb8ed6)" style="fill: #eeeeee; stroke: #000000; stroke-width: 0.3"/>
    <path d="M 123.18183 -276.165 
L 125.838507 -277.464771 
L 123.363859 -274.834143 
z
" clip-path="url(#p3447bb8ed6)" style="fill: #eeeeee; stroke: #000000; stroke-width: 0.3"/>
    <path d="M 106.057236 -294.453199 
L 109.803491 -297.671638 
L 116.058694 -291.847792 
z
" clip-path="url(#p3447bb8ed6)" style="fill: #eeeeee; stroke: #000000; stroke-width: 0.3"/>
    <path d="M 28.678686 -295.605554 
L 31.274676 -298.750284 
L 31.340614 -298.234228 
z
" clip-path="url(#p3447bb8ed6)" style="fill: #eeeeee; stroke: #000000; stroke-width: 0.3"/>
    <path d="M 21.407787 -306.199822 
L 22.777005 -307.804203 
L 27.866122 -306.525743 
z
" clip-path="url(#p3447bb8ed6)" style="fill: #eeeeee; stroke: #000000; stroke-width: 0.3"/>
    <path d="M 18.06783 -303.92229 
L 21.012057 -302.591433 
L 21.629398 -302.29655 
z
" clip-path="url(#p3447bb8ed6)" style="fill: #eeeeee; stroke: #000000; stroke-width: 0.3"/>
    <path d="M 13.50901 -258.497555 
L 13.556471 -259.682902 
L 14.970556 -259.149396 
z
" clip-path="url(#p3447bb8ed6)" style="fill: #eeeeee; stroke: #000000; stroke-width: 0.3"/>
    <path d="M 5.947903 -281.034352 
L 6.343633 -281.430119 
L 6.459723 -281.172091 
z
" clip-path="url(#p3447bb8ed6)" style="fill: #eeeeee; stroke: #000000; stroke-width: 0.3"/>
    <path d="M 4.723757 -281.364134 
L 5.198652 -281.399081 
L 5.34904 -280.613363 
z
" clip-path="url(#p3447bb8ed6)" style="fill: #eeeeee; stroke: #000000; stroke-width: 0.3"/>
    <path d="M 3.900657 -261.847916 
L 5.298889 -262.406596 
L 7.177301 -261.768343 
z
" clip-path="url(#p3447bb8ed6)" style="fill: #eeeeee; stroke: #000000; stroke-width: 0.3"/>
    <path d="M -1.552517 -261.677185 
L 2.549885 -261.780024 
L 0.455146 -260.720783 
z
" clip-path="url(#p3447bb8ed6)" style="fill: #eeeeee; stroke: #000000; stroke-width: 0.3"/>
    <path d="M -8.467269 -259.335622 
L -4.135313 -260.800309 
L -3.467854 -260.243536 
z
" clip-path="url(#p3447bb8ed6)" style="fill: #eeeeee; stroke: #000000; stroke-width: 0.3"/>
    <path d="M -10.720274 -259.566474 
L -9.680847 -259.149396 
L -10.145142 -258.823475 
z
" clip-path="url(#p3447bb8ed6)" style="fill: #eeeeee; stroke: #000000; stroke-width: 0.3"/>
    <path d="M -18.173202 -257.882569 
L -16.249956 -259.219242 
L -12.561762 -258.922405 
z
" clip-path="url(#p3447bb8ed6)" style="fill: #eeeeee; stroke: #000000; stroke-width: 0.3"/>
    <path d="M -27.892361 -256.516812 
L -22.275637 -257.537244 
L -21.030386 -257.195829 
z
" clip-path="url(#p3447bb8ed6)" style="fill: #eeeeee; stroke: #000000; stroke-width: 0.3"/>
    <path d="M -34.838753 -253.005445 
L -30.781185 -254.004566 
L -31.694019 -251.278869 
z
" clip-path="url(#p3447bb8ed6)" style="fill: #eeeeee; stroke: #000000; stroke-width: 0.3"/>
    <path d="M 57.93063 49.090909 
L 62.091969 42.086388 
L 58.784106 36.134862 
L 66.390696 33.566643 
L 74.187354 38.356231 
L 76.140717 44.500897 
L 80.238386 43.861548 
L 78.636859 48.694236 
L 87.338149 42.738038 
L 87.368298 34.109875 
L 101.289708 36.319897 
L 105.206483 43.000452 
L 113.555971 42.837826 
L 125.986399 33.507523 
L 143.918403 32.772057 
L 144.01556 27.968929 
L 146.143139 26.71979 
L 146.029221 29.252538 
L 154.388758 31.636247 
L 162.992923 29.826617 
L 163.542381 35.168067 
L 170.769483 39.402075 
L 173.044467 30.17895 
L 167.207882 27.123853 
L 170.424358 21.232973 
L 162.443434 8.192156 
L 183.856608 -4.010927 
L 185.444747 -13.396726 
L 193.936648 -10.929248 
L 197.153156 -22.59768 
L 205.552891 -14.267642 
L 213.674575 -12.690819 
L 217.979981 -16.72158 
L 225.029496 -13.529745 
L 229.073545 -23.078122 
L 233.586719 -22.425232 
L 234.963782 -34.110924 
L 262.079557 -27.645964 
L 270.730599 -21.474218 
L 279.579328 -20.730123 
L 284.806126 -24.465238 
L 296.264914 -20.335929 
L 298.600229 -14.861412 
L 295.34015 -3.487385 
L 305.190701 13.683932 
L 300.51336 20.461796 
L 302.825237 27.84206 
L 293.815681 29.416404 
L 286.370826 25.662838 
L 281.184227 30.090224 
L 288.394536 31.965171 
L 290.304329 35.968803 
L 288.739629 40.026644 
L 282.0319 42.699849 
L 283.305095 48.42324 
L 281.345054 52.696629 
L 284.481132 55.063127 
L 281.730345 60.472326 
L 283.730617 61.689426 
L 276.87545 61.414758 
L 267.370024 69.835955 
L 268.505701 77.320965 
L 263.124917 74.756083 
L 256.16251 75.086246 
L 250.543711 79.992882 
L 237.553743 78.328572 
L 230.695204 80.637142 
L 220.64366 91.244951 
L 151.420217 76.394505 
L 146.933853 67.906798 
L 142.403951 65.965341 
L 144.146238 57.557685 
L 129.695438 63.021141 
L 111.528921 63.343867 
L 105.772701 72.628638 
L 89.217793 68.9453 
L 85.559035 61.799083 
L 77.062109 68.909542 
L 69.406146 65.080837 
L 68.849978 60.882539 
L 59.877282 58.909091 
z
" clip-path="url(#p3447bb8ed6)" style="fill: #eeeeee; stroke: #000000; stroke-width: 0.3"/>
    <path d="M -36.679722 152.042387 
L -20.287294 144.616591 
L -18.591916 137.382935 
L -24.358186 132.605647 
L -24.988073 126.426511 
L -30.868228 119.907342 
L -23.084959 112.860913 
L -18.823123 115.184263 
L -6.258645 110.05469 
L 3.551674 113.149169 
L 12.202716 103.244787 
L 11.448862 96.338814 
L 21.557364 87.738972 
L 22.82051 98.075784 
L 34.842177 105.018707 
L 33.512023 110.10394 
L 36.852498 111.82122 
L 37.79399 117.574123 
L 41.114366 117.845167 
L 43.081118 114.114963 
L 41.104316 107.423346 
L 48.324675 98.275361 
L 50.187559 85.584398 
L 55.126223 85.538819 
L 58.4265 95.060116 
L 70.810019 91.602195 
L 75.90951 98.807532 
L 78.606678 96.784738 
L 76.428851 93.61388 
L 78.016989 90.08821 
L 74.307983 88.021077 
L 74.515719 83.886857 
L 79.682219 79.412652 
L 87.847441 83.6602 
L 88.3366 79.567841 
L 85.421646 77.23958 
L 88.165723 68.084205 
L 105.772701 72.628638 
L 111.528921 63.343867 
L 129.695438 63.021141 
L 144.146238 57.557685 
L 142.403951 65.965341 
L 146.933853 67.906798 
L 151.420217 76.394505 
L 193.432381 84.517577 
L 182.549893 95.456789 
L 184.004014 99.381563 
L 191.371811 100.697259 
L 185.679293 108.992779 
L 190.349923 109.993091 
L 189.056628 117.386895 
L 195.953647 121.530936 
L 199.712935 126.850264 
L 198.191805 129.099668 
L 193.782855 128.69222 
L 196.906485 127.685376 
L 189.324273 119.327923 
L 183.731279 124.771498 
L 182.68391 121.473533 
L 174.576717 120.169852 
L 173.463408 126.370061 
L 152.025337 136.089361 
L 157.14872 130.614749 
L 151.152086 131.264635 
L 143.298144 142.029587 
L 145.762224 147.23654 
L 148.252693 145.97553 
L 150.247195 156.451465 
L 150.247195 153.846057 
L 155.597473 158.403077 
L 152.703365 165.532512 
L 151.481877 162.156929 
L 151.782621 166.353129 
L 146.925684 165.239584 
L 150.247195 192.700037 
L 160.710321 205.0985 
L 190.66451 225.606067 
L 205.570365 271.455652 
L 226.119333 291.639253 
L 227.140314 295.971237 
L 240.906473 303.447903 
L 272.517462 303.824266 
L 273.939457 310.513356 
L 264.724207 318.378018 
L 266.702856 325.777114 
L 302.234219 343.780158 
L 315.815691 355.780899 
L 333.027328 364.336259 
L 349.531955 388.721829 
L 345.416359 404.080703 
L 335.119441 399.577988 
L 328.362988 381.741766 
L 316.981776 380.880433 
L 306.872171 375.316569 
L 310.861142 371.593707 
L 299.606557 371.873094 
L 287.568421 391.333053 
L 288.439014 396.970673 
L 283.840645 406.076941 
L 285.660995 411.528287 
L 305.526684 423.670677 
L 305.969906 444.919288 
L 286.948454 452.675342 
L 286.428725 470.236085 
L 273.456652 483.885833 
L 270.464932 493.579911 
L 257.732948 492.930026 
L 256.060328 480.211506 
L 261.896038 476.381943 
L 265.29934 466.074833 
L 262.666393 459.771832 
L 272.910566 455.866653 
L 275.150377 449.874029 
L 260.650819 400.551887 
L 255.783314 391.651202 
L 248.840034 395.647301 
L 244.014282 393.95982 
L 239.669165 387.272685 
L 232.664711 383.838889 
L 235.48912 376.40537 
L 228.477892 363.422529 
L 214.234212 368.154142 
L 218.497571 360.570726 
L 212.664487 355.369637 
L 204.673286 357.714537 
L 203.818968 351.409725 
L 194.109988 335.649696 
L 188.342875 337.832208 
L 179.974488 333.583611 
L 172.154845 336.835042 
L 167.258325 328.644412 
L 158.884686 326.347475 
L 146.039238 312.579393 
L 138.9504 300.336166 
L 132.697856 298.376782 
L 127.210384 286.686466 
L 118.082177 280.606546 
L 109.328628 281.351499 
L 111.981383 277.108004 
L 111.009159 273.114336 
L 104.044289 264.58229 
L 97.161209 261.652917 
L 98.205953 256.224838 
L 89.647595 255.165597 
L 90.576248 240.56331 
L 83.738036 228.841955 
L 81.611624 211.96409 
L 76.39063 203.441723 
L 68.420598 199.472514 
L 68.016958 202.634694 
L 48.512701 187.788014 
L 47.866346 190.094629 
L 33.332458 184.049657 
L 23.726763 190.145072 
L 10.812751 209.577902 
L -7.517511 214.557865 
L -8.309165 211.063471 
L -1.433899 201.441194 
L -2.546267 196.257412 
L -12.75867 198.755689 
L -24.66308 192.758823 
L -29.125973 179.190793 
L -25.101991 172.080334 
L -22.012822 171.998997 
L -23.641159 165.176793 
L -32.054316 161.370258 
z
M 152.976975 304.586765 
L 153.009523 304.642213 
L 153.007837 304.589292 
z
M 151.116912 207.11133 
L 153.795731 208.607006 
L 153.921287 205.482777 
z
" clip-path="url(#p3447bb8ed6)" style="fill: #eeeeee; stroke: #000000; stroke-width: 0.3"/>
    <path d="M 13.392921 367.077451 
L 14.87557 349.410006 
L 18.674602 354.803186 
L 25.49171 355.932226 
L 35.282092 350.193769 
L 48.512701 335.160815 
L 54.728321 339.065994 
L 55.393155 343.297141 
L 59.176334 341.669495 
L 57.630339 346.907438 
L 62.516291 347.557324 
L 57.38234 351.167621 
L 64.505509 355.076709 
L 62.363277 357.224274 
L 66.980157 373.642342 
L 61.334386 382.81655 
L 64.774613 391.358274 
L 59.397946 435.921675 
L 57.846667 438.051743 
L 41.487176 430.454787 
L 43.624124 432.328829 
L 41.869712 443.260603 
L 36.279343 448.853597 
L 31.84715 446.250145 
L 29.396264 449.505438 
L 26.758065 440.333185 
L 20.70337 432.44907 
L 23.01181 406.944139 
L 25.375653 409.561132 
L 26.958572 409.611574 
L 24.969355 408.637723 
L 26.615587 402.38321 
L 21.407787 399.523683 
L 20.845848 393.750279 
L 24.502402 390.378606 
L 20.932891 373.013815 
L 18.06783 366.974612 
z
" clip-path="url(#p3447bb8ed6)" style="fill: #eeeeee; stroke: #000000; stroke-width: 0.3"/>
    <path d="M 152.133516 500.391197 
L 154.270464 489.692182 
L 161.132407 485.430045 
L 162.013567 481.522911 
L 167.503699 489.375988 
L 172.698305 486.733726 
L 173.98048 481.650971 
L 181.021857 480.194008 
L 183.396236 485.794774 
L 196.344547 491.971669 
L 203.79219 488.359418 
L 219.716401 488.598041 
L 232.532801 481.765396 
L 238.3949 484.599749 
L 243.233391 478.089162 
L 245.006249 480.843942 
L 256.669759 477.588649 
L 242.452467 502.086736 
L 238.513615 515.625921 
L 238.901435 522.668059 
L 243.713538 526.103762 
L 241.492173 528.499629 
L 246.320064 537.836797 
L 240.679577 542.003866 
L 238.590122 554.842675 
L 218.924941 548.242837 
L 212.165862 536.292538 
L 193.914765 530.220389 
L 176.352233 515.17194 
L 159.665577 511.447171 
z
" clip-path="url(#p3447bb8ed6)" style="fill: #eeeeee; stroke: #000000; stroke-width: 0.3"/>
    <path d="M 76.915611 263.895503 
L 77.765132 261.295959 
L 87.827244 259.697396 
L 86.924979 266.207982 
z
" clip-path="url(#p3447bb8ed6)" style="fill: #eeeeee; stroke: #000000; stroke-width: 0.3"/>
    <path d="M 55.203184 338.817692 
L 56.42733 336.427642 
L 56.429956 339.135841 
L 56.089629 339.450128 
z
" clip-path="url(#p3447bb8ed6)" style="fill: #eeeeee; stroke: #000000; stroke-width: 0.3"/>
    <path d="M 16.073328 434.798404 
L 18.532124 433.820643 
L 18.532124 438.051743 
L 16.875356 437.929547 
z
" clip-path="url(#p3447bb8ed6)" style="fill: #eeeeee; stroke: #000000; stroke-width: 0.3"/>
    <path d="M 241.608231 453.09633 
L 242.420795 452.073944 
L 242.594946 453.858734 
z
" clip-path="url(#p3447bb8ed6)" style="fill: #eeeeee; stroke: #000000; stroke-width: 0.3"/>
    <path d="M 233.867753 471.81329 
L 235.783089 472.707616 
L 235.118255 473.355594 
z
" clip-path="url(#p3447bb8ed6)" style="fill: #eeeeee; stroke: #000000; stroke-width: 0.3"/>
    <path d="M 233.107934 465.809033 
L 234.87554 467.469672 
L 234.453422 469.095364 
z
" clip-path="url(#p3447bb8ed6)" style="fill: #eeeeee; stroke: #000000; stroke-width: 0.3"/>
    <path d="M 228.860427 463.461654 
L 231.23218 463.007721 
L 231.060688 465.002004 
z
" clip-path="url(#p3447bb8ed6)" style="fill: #eeeeee; stroke: #000000; stroke-width: 0.3"/>
    <path d="M 220.713651 462.734197 
L 221.410126 462.84476 
L 221.009144 463.938901 
z
" clip-path="url(#p3447bb8ed6)" style="fill: #eeeeee; stroke: #000000; stroke-width: 0.3"/>
    <path d="M 214.239496 464.621779 
L 214.706449 464.433598 
L 214.825165 465.013637 
z
" clip-path="url(#p3447bb8ed6)" style="fill: #eeeeee; stroke: #000000; stroke-width: 0.3"/>
    <path d="M 198.236153 361.257514 
L 198.679375 359.010971 
L 202.019332 360.314653 
z
" clip-path="url(#p3447bb8ed6)" style="fill: #eeeeee; stroke: #000000; stroke-width: 0.3"/>
    <path d="M 184.153397 357.89161 
L 184.459426 357.206824 
L 184.71271 357.148611 
z
" clip-path="url(#p3447bb8ed6)" style="fill: #eeeeee; stroke: #000000; stroke-width: 0.3"/>
    <path d="M 175.684773 457.58932 
L 176.729484 456.504905 
L 177.109394 456.943343 
z
" clip-path="url(#p3447bb8ed6)" style="fill: #eeeeee; stroke: #000000; stroke-width: 0.3"/>
    <path d="M 165.71233 592.614147 
L 166.625164 592.435692 
L 166.577671 593.110799 
z
" clip-path="url(#p3447bb8ed6)" style="fill: #eeeeee; stroke: #000000; stroke-width: 0.3"/>
    <path d="M 155.346848 609.111788 
L 156.304516 608.894524 
L 158.101136 610.419331 
z
" clip-path="url(#p3447bb8ed6)" style="fill: #eeeeee; stroke: #000000; stroke-width: 0.3"/>
    <path d="M 148.711736 140.382536 
L 150.906744 136.304718 
L 152.260142 137.156373 
z
" clip-path="url(#p3447bb8ed6)" style="fill: #eeeeee; stroke: #000000; stroke-width: 0.3"/>
    <path d="M 148.68538 136.481266 
L 150.083612 135.536498 
L 150.028209 136.085499 
z
" clip-path="url(#p3447bb8ed6)" style="fill: #eeeeee; stroke: #000000; stroke-width: 0.3"/>
    <path d="M 148.004726 494.563489 
L 148.476963 493.271441 
L 150.247195 494.278332 
z
" clip-path="url(#p3447bb8ed6)" style="fill: #eeeeee; stroke: #000000; stroke-width: 0.3"/>
    <path d="M 139.277533 491.459522 
L 140.026784 491.075388 
L 140.860452 493.085214 
z
" clip-path="url(#p3447bb8ed6)" style="fill: #eeeeee; stroke: #000000; stroke-width: 0.3"/>
    <path d="M 135.858411 547.356282 
L 139.960813 548.386392 
L 139.282817 550.722139 
z
" clip-path="url(#p3447bb8ed6)" style="fill: #eeeeee; stroke: #000000; stroke-width: 0.3"/>
    <path d="M 101.392896 282.542663 
L 103.919478 284.240824 
L 103.386749 284.809706 
z
" clip-path="url(#p3447bb8ed6)" style="fill: #eeeeee; stroke: #000000; stroke-width: 0.3"/>
    <path d="M 82.999321 284.366214 
L 83.695827 283.759 
L 83.608752 284.562167 
z
" clip-path="url(#p3447bb8ed6)" style="fill: #eeeeee; stroke: #000000; stroke-width: 0.3"/>
    <path d="M 75.084725 272.260726 
L 76.029198 270.735919 
L 76.234957 272.712752 
z
" clip-path="url(#p3447bb8ed6)" style="fill: #eeeeee; stroke: #000000; stroke-width: 0.3"/>
    <path d="M 67.018865 251.95655 
L 67.195415 249.162532 
L 68.335987 251.138841 
z
" clip-path="url(#p3447bb8ed6)" style="fill: #eeeeee; stroke: #000000; stroke-width: 0.3"/>
    <path d="M 53.129549 336.722524 
L 54.464501 335.170541 
L 53.849786 337.642072 
z
" clip-path="url(#p3447bb8ed6)" style="fill: #eeeeee; stroke: #000000; stroke-width: 0.3"/>
    <path d="M 19.835403 438.377663 
L 24.304521 439.710427 
L 21.903754 444.857212 
z
" clip-path="url(#p3447bb8ed6)" style="fill: #eeeeee; stroke: #000000; stroke-width: 0.3"/>
    <path d="M 15.413778 347.883244 
L 19.191674 341.669495 
L 16.606252 347.986084 
z
" clip-path="url(#p3447bb8ed6)" style="fill: #eeeeee; stroke: #000000; stroke-width: 0.3"/>
    <path d="M -57.563506 99.191856 
L -53.311688 97.551003 
L -51.797268 92.165166 
L -54.460916 89.301015 
L -52.380246 81.479738 
L -42.305232 73.024071 
L -41.86966 64.28258 
L -34.647615 60.605393 
L -22.615899 45.910183 
L -28.124152 44.734943 
L -24.666419 38.302023 
L -17.938558 38.341452 
L -16.082386 41.748835 
L -3.149376 33.253739 
L -1.644974 35.671918 
L 26.794244 33.519824 
L 28.305324 30.330468 
L 21.302719 29.893127 
L 26.713814 23.423256 
L 37.200962 30.337858 
L 49.892715 30.626114 
L 62.118779 40.066073 
L 56.83499 51.607637 
L 56.499947 58.574017 
L 68.849978 60.882539 
L 69.406146 65.080837 
L 77.062109 68.909542 
L 85.739961 61.834793 
L 88.165723 68.084205 
L 85.421646 77.23958 
L 88.3366 79.567841 
L 87.847441 83.6602 
L 79.682219 79.412652 
L 74.515719 83.886857 
L 74.307983 88.021077 
L 78.016989 90.08821 
L 77.276524 98.277792 
L 74.837341 98.785362 
L 70.810019 91.602195 
L 58.4265 95.060116 
L 55.126223 85.538819 
L 49.567721 86.168347 
L 48.324675 98.275361 
L 41.104316 107.423346 
L 43.081118 114.114963 
L 41.114366 117.845167 
L 37.79399 117.574123 
L 36.852498 111.82122 
L 33.512023 110.10394 
L 34.842177 105.018707 
L 22.82051 98.075784 
L 21.557364 87.738972 
L 11.448862 96.338814 
L 12.202716 103.244787 
L 3.146251 113.375825 
L -6.258645 110.05469 
L -21.630837 114.531374 
L -31.116163 102.870284 
L -30.704062 89.551081 
L -36.324547 87.561613 
L -46.443132 90.489794 
L -49.277656 94.256901 
L -47.103168 97.851559 
L -57.553456 103.07725 
z
" clip-path="url(#p3447bb8ed6)" style="fill: #eeeeee; stroke: #000000; stroke-width: 0.3"/>
    <path d="M 56.499947 58.574017 
L 57.93063 49.090909 
L 60.996361 56.530292 
L 59.877282 58.909091 
z
" clip-path="url(#p3447bb8ed6)" style="fill: #eeeeee; stroke: #000000; stroke-width: 0.3"/>
   </g>
   <g id="PatchCollection_2">
    <defs>
     <path id="mf49cc70c3d" d="M 56.499947 -49.425983 
L 57.93063 -58.909091 
L 60.996361 -51.469708 
L 59.877282 -49.090909 
z
" style="stroke: #dd0000; stroke-width: 1.5"/>
    </defs>
    <g clip-path="url(#p3447bb8ed6)">
     <use xlink:href="#mf49cc70c3d" x="0" y="108" style="fill: #ff6b6b; stroke: #dd0000; stroke-width: 1.5"/>
    </g>
   </g>
  </g>
 </g>
 <defs>
  <clipPath id="p3447bb8ed6">
   <rect x="0" y="0" width="117.496308" height="108"/>
  </clipPath>
 </defs>
</svg>
