<?xml version="1.0" encoding="utf-8" standalone="no"?>
<!DOCTYPE svg PUBLIC "-//W3C//DTD SVG 1.1//EN"
  "http://www.w3.org/Graphics/SVG/1.1/DTD/svg11.dtd">
<svg xmlns:xlink="http://www.w3.org/1999/xlink" width="168.190596pt" height="108pt" viewBox="0 0 168.190596 108" xmlns="http://www.w3.org/2000/svg" version="1.1">
 <metadata>
  <rdf:RDF xmlns:dc="http://purl.org/dc/elements/1.1/" xmlns:cc="http://creativecommons.org/ns#" xmlns:rdf="http://www.w3.org/1999/02/22-rdf-syntax-ns#">
   <cc:Work>
    <dc:type rdf:resource="http://purl.org/dc/dcmitype/StillImage"/>
    <dc:date>2025-09-05T15:49:29.016154</dc:date>
    <dc:format>image/svg+xml</dc:format>
    <dc:creator>
     <cc:Agent>
      <dc:title>Matplotlib v3.10.3, https://matplotlib.org/</dc:title>
     </cc:Agent>
    </dc:creator>
   </cc:Work>
  </rdf:RDF>
 </metadata>
 <defs>
  <style type="text/css">*{stroke-linejoin: round; stroke-linecap: butt}</style>
 </defs>
 <g id="figure_1">
  <g id="patch_1">
   <path d="M 0 108 
L 168.190596 108 
L 168.190596 0 
L 0 0 
z
" style="fill: #ffffff"/>
  </g>
  <g id="axes_1">
   <g id="PatchCollection_1">
    <path d="M 73.096297 56.32092 
L 74.112769 55.845958 
L 75.369157 53.574233 
L 75.473683 51.585392 
L 74.981934 50.557632 
L 75.550144 49.461413 
L 77.759873 48.903572 
L 78.959436 47.668965 
L 77.753561 47.475815 
L 77.096958 46.161927 
L 77.512946 43.600469 
L 77.395795 42.355053 
L 76.824776 42.147489 
L 76.94473 41.120454 
L 78.034859 39.364763 
L 76.960164 37.401508 
L 78.781958 36.605831 
L 79.957677 35.266002 
L 79.001179 32.854452 
L 77.445601 31.686874 
L 77.71287 30.066684 
L 76.572236 28.468838 
L 75.292696 28.651179 
L 74.948961 27 
L 76.555396 27.832434 
L 77.419646 27.701264 
L 78.361056 28.602888 
L 80.367699 28.341991 
L 81.570771 29.275331 
L 82.255439 27.598203 
L 84.32697 29.283978 
L 85.809942 31.542007 
L 86.112987 35.005816 
L 86.750653 36.489074 
L 86.33326 38.928009 
L 87.365167 40.622431 
L 88.186622 40.833608 
L 88.716259 42.215236 
L 86.355007 42.248388 
L 85.995836 44.009845 
L 84.60406 46.265713 
L 85.525135 49.982497 
L 85.870269 54.434059 
L 86.51705 55.59587 
L 88.027382 55.759474 
L 89.527194 57.073354 
L 94.707069 63.671594 
L 95.094299 65.320619 
L 94.279156 67.30766 
L 94.661471 69.018658 
L 94.285468 73.377605 
L 92.448938 74.277794 
L 91.499112 74.065898 
L 89.851986 76.832048 
L 91.062076 79.014402 
L 91.0263 80.783063 
L 90.549978 81 
L 89.40443 80.821982 
L 89.759385 78.894766 
L 88.315 78.248997 
L 85.063542 74.992753 
L 84.914829 73.499411 
L 83.751735 72.314538 
L 86.004959 68.182618 
L 85.574941 63.15051 
L 84.504448 61.837348 
L 82.513593 62.589064 
L 80.271243 62.550871 
L 79.758446 63.332134 
L 77.283552 59.559855 
L 76.333725 58.612826 
L 75.380383 59.487785 
L 74.527359 57.884889 
L 73.773249 57.582186 
L 73.819546 56.673351 
z
" clip-path="url(#p85176487ff)" style="fill: #eeeeee; stroke: #000000; stroke-width: 0.3"/>
    <path d="M 86.620877 45.720843 
L 86.880429 45.19183 
L 87.34342 45.470036 
L 86.845358 46.057423 
z
" clip-path="url(#p85176487ff)" style="fill: #eeeeee; stroke: #000000; stroke-width: 0.3"/>
    <path d="M 85.861852 45.268231 
L 86.427965 45.100304 
L 86.317126 45.694902 
z
" clip-path="url(#p85176487ff)" style="fill: #eeeeee; stroke: #000000; stroke-width: 0.3"/>
    <path d="M 50.429415 -4.181832 
L 50.975186 -7.461855 
L 53.205956 -7.367442 
L 55.039676 -8.702222 
L 57.135057 -12.063688 
L 57.609275 -12.074504 
L 57.953363 -13.723522 
L 60.447547 -15.65723 
L 60.667813 -16.367141 
L 60.622222 -17.721384 
L 58.334627 -17.965713 
L 57.841473 -18.60644 
L 58.566119 -20.016896 
L 57.816569 -19.87203 
L 58.467912 -21.313483 
L 60.682548 -22.13727 
L 61.045221 -23.97008 
L 60.428604 -25.038195 
L 60.659749 -27.375506 
L 60.02524 -28.682902 
L 58.788496 -29.298399 
L 58.284115 -31.106704 
L 59.353909 -31.007242 
L 60.293914 -31.617697 
L 82.169151 -31.500941 
L 106.90827 -17.251471 
L 107.282868 -15.37975 
L 106.503501 -14.692175 
L 106.5975 -13.99163 
L 107.338986 -13.895773 
L 107.764097 -13.001352 
L 117.566124 -5.796262 
L 117.555624 -4.626641 
L 116.843629 -4.206693 
L 116.679577 -3.291881 
L 117.075067 -2.956486 
L 114.60656 3.730936 
L 115.529562 6.393649 
L 116.383509 6.62689 
L 118.006906 8.419059 
L 118.008563 9.139785 
L 119.259113 9.32933 
L 119.864504 10.326993 
L 119.822524 11.146464 
L 118.331142 12.478392 
L 117.820761 16.063287 
L 118.331142 15.386828 
L 119.116604 16.127987 
L 119.190064 17.367977 
L 118.006906 19.451838 
L 118.511212 22.274012 
L 119.864504 23.726818 
L 119.156371 23.283035 
L 118.744306 23.563374 
L 119.444708 23.839181 
L 119.490001 25.134785 
L 119.969451 24.917436 
L 120.475963 25.587082 
L 119.957295 27.389467 
L 120.522919 27.370171 
L 121.134934 28.918311 
L 120.836661 29.463112 
L 121.540368 30.013589 
L 120.794681 31.544706 
L 121.718782 31.174695 
L 122.792574 32.782988 
L 123.027881 32.168955 
L 123.794005 32.425466 
L 123.712258 33.133139 
L 124.468995 33.310766 
L 124.468995 32.639976 
L 125.261081 33.739229 
L 125.791906 33.334601 
L 125.858742 34.553023 
L 122.948773 36.898444 
L 119.489675 38.150345 
L 117.893061 39.378459 
L 115.402033 39.384944 
L 112.65987 41.098829 
L 111.060446 40.148195 
L 108.898426 40.195761 
L 108.076264 41.936312 
L 105.71922 43.232899 
L 103.492658 42.920823 
L 102.751172 42.154692 
L 101.310296 42.215236 
L 99.990772 43.245876 
L 97.099184 43.107495 
L 96.884524 42.251275 
L 94.565368 41.098829 
L 92.867736 42.435778 
L 88.716259 42.215236 
L 88.186622 40.833608 
L 87.365167 40.622431 
L 86.33326 38.928009 
L 86.750653 36.489074 
L 86.112987 35.005816 
L 85.809942 31.542007 
L 84.32697 29.283978 
L 82.255439 27.598203 
L 81.570771 29.275331 
L 80.367699 28.341991 
L 78.361056 28.602888 
L 77.419646 27.701264 
L 72.110342 26.06954 
L 71.468115 25.271701 
L 68.17387 24.699439 
L 68.164048 23.798533 
L 66.372418 23.662321 
L 65.465379 22.201405 
L 64.204784 21.38987 
L 62.334935 21.593111 
L 61.532063 21.134014 
L 58.016846 14.480273 
L 57.017906 11.363854 
L 55.635951 9.554838 
L 53.030583 7.667251 
L 51.798745 5.252821 
L 51.463433 3.36308 
L 52.388709 1.286674 
z
" clip-path="url(#p85176487ff)" style="fill: #eeeeee; stroke: #000000; stroke-width: 0.3"/>
    <path d="M 117.398753 2.750296 
L 118.006906 2.24636 
L 118.233926 1.384888 
L 118.933221 4.687742 
L 119.506569 4.716689 
L 119.490001 4.211609 
L 119.794906 5.58837 
L 119.557386 6.575816 
L 118.933221 5.449898 
L 118.845392 5.954406 
L 117.453989 4.888068 
z
" clip-path="url(#p85176487ff)" style="fill: #eeeeee; stroke: #000000; stroke-width: 0.3"/>
    <path d="M 120.470995 -0.738129 
L 120.610191 -1.622292 
L 121.406696 -1.955985 
L 121.104004 -1.951446 
L 120.517394 -2.294211 
L 121.170283 -2.194338 
L 120.749388 -4.389997 
L 121.682327 -3.668134 
L 121.915978 -4.341755 
L 121.509438 -0.788066 
z
" clip-path="url(#p85176487ff)" style="fill: #eeeeee; stroke: #000000; stroke-width: 0.3"/>
    <path d="M 120.091523 16.915107 
L 122.185527 14.768255 
L 122.170065 15.580348 
L 121.693927 16.695486 
L 120.38041 17.196019 
z
" clip-path="url(#p85176487ff)" style="fill: #eeeeee; stroke: #000000; stroke-width: 0.3"/>
    <path d="M 120.012036 -0.873741 
L 120.532788 -0.480474 
L 120.584576 -0.305949 
L 120.282671 -0.390823 
z
" clip-path="url(#p85176487ff)" style="fill: #eeeeee; stroke: #000000; stroke-width: 0.3"/>
    <path d="M 120.876333 17.932561 
L 120.876361 17.636964 
L 121.546226 17.341171 
z
" clip-path="url(#p85176487ff)" style="fill: #eeeeee; stroke: #000000; stroke-width: 0.3"/>
    <path d="M 117.561461 1.795917 
L 117.720626 2.344497 
L 117.561855 2.358855 
z
" clip-path="url(#p85176487ff)" style="fill: #eeeeee; stroke: #000000; stroke-width: 0.3"/>
    <path d="M -180.968692 -375.626382 
L -180.94273 -376.845375 
L -179.578952 -377.608382 
L -175.576805 -378.327972 
L -174.746886 -377.608382 
L -174.464623 -378.33081 
L -172.935137 -377.979244 
L -172.463417 -379.088991 
L -170.525178 -379.300384 
L -170.462761 -378.755583 
L -169.586714 -379.293571 
L -169.817602 -378.517231 
L -169.021369 -378.945979 
L -166.809983 -376.767342 
L -164.323802 -378.089054 
L -164.420468 -377.608382 
L -163.628932 -377.27526 
L -162.533875 -377.751107 
L -162.044752 -376.799127 
L -162.373413 -377.703437 
L -161.809446 -378.089054 
L -161.117888 -378.183824 
L -160.793931 -377.512755 
L -157.811174 -377.703437 
L -159.148719 -378.427852 
L -159.483447 -379.140629 
L -158.838845 -380.426016 
L -159.419931 -380.393388 
L -159.534265 -381.696655 
L -159.11337 -381.763621 
L -160.932849 -382.86712 
L -161.395731 -383.893451 
L -161.08917 -384.51316 
L -161.738748 -385.240693 
L -159.50886 -384.724267 
L -157.176508 -385.041217 
L -156.937061 -384.543236 
L -157.469814 -384.082996 
L -156.225067 -382.600114 
L -154.986666 -382.926708 
L -150.093288 -382.144413 
L -145.811927 -383.343539 
L -145.256246 -383.633251 
L -146.860306 -383.427248 
L -148.083795 -383.921826 
L -147.002822 -385.27701 
L -140.314814 -387.018105 
L -138.279908 -388.661586 
L -137.251409 -388.507229 
L -138.140711 -389.102531 
L -137.673417 -389.749486 
L -138.04792 -389.987266 
L -137.875581 -393.223154 
L -131.487095 -394.748526 
L -130.898964 -393.866991 
L -131.046279 -393.060143 
L -129.688874 -392.208964 
L -127.364104 -392.597434 
L -126.401647 -390.839226 
L -124.112647 -390.487513 
L -123.511464 -389.244259 
L -121.431517 -389.563901 
L -120.112692 -388.967142 
L -120.600233 -388.058306 
L -120.028514 -387.58407 
L -120.560248 -386.990191 
L -117.070287 -387.056494 
L -115.918419 -388.289657 
L -115.536104 -388.139387 
L -116.133079 -386.87379 
L -115.615374 -386.560278 
L -115.691136 -385.72928 
L -112.906884 -385.012159 
L -111.57052 -383.670531 
L -109.600713 -384.022599 
L -108.1458 -383.268721 
L -105.145478 -383.437011 
L -103.034315 -381.29898 
L -101.672702 -381.632318 
L -100.802846 -380.941501 
L -99.229377 -380.923481 
L -98.305499 -381.369252 
L -96.781843 -380.454649 
L -92.944637 -379.902213 
L -95.592094 -377.506521 
L -95.996164 -375.598223 
L -97.116456 -374.122356 
L -96.875842 -373.018564 
L -97.617328 -371.176752 
L -97.113999 -370.321089 
L -98.522262 -369.247367 
L -101.272848 -369.654937 
L -101.996795 -368.714031 
L -100.843529 -368.542135 
L -103.362616 -366.392752 
L -104.8747 -365.854911 
L -104.965896 -364.576344 
L -107.075307 -363.339582 
L -107.510938 -362.195609 
L -106.962364 -361.853806 
L -107.240859 -361.035423 
L -108.185785 -360.664966 
L -108.158425 -360.180639 
L -106.926588 -360.318295 
L -105.970442 -360.94497 
L -106.425716 -361.47074 
L -106.052523 -361.886058 
L -104.601119 -362.399032 
L -102.536953 -362.159033 
L -102.785983 -361.680285 
L -102.261261 -361.150018 
L -102.682163 -360.32803 
L -100.941737 -358.749639 
L -102.443653 -358.060628 
L -102.476626 -357.305306 
L -100.001026 -355.162945 
L -100.715152 -353.78744 
L -103.78808 -353.018792 
L -102.819656 -351.654458 
L -101.04346 -351.05661 
L -100.717263 -350.099854 
L -101.364044 -350.087957 
L -102.206547 -349.047951 
L -101.64955 -348.366506 
L -102.000304 -347.918936 
L -101.208313 -347.009739 
L -98.844957 -346.197479 
L -96.64154 -346.551716 
L -96.408643 -345.793514 
L -97.848121 -344.386119 
L -97.858024 -343.682638 
L -100.0625 -342.916507 
L -100.148741 -342.213926 
L -101.348955 -342.116904 
L -101.810901 -341.332538 
L -102.916451 -341.194596 
L -103.868416 -340.225643 
L -103.172826 -340.25406 
L -103.264952 -339.756016 
L -105.331249 -338.983972 
L -106.567736 -339.10902 
L -106.656828 -338.600997 
L -108.279994 -339.285071 
L -108.852338 -338.66311 
L -110.092306 -339.604943 
L -112.311382 -339.856057 
L -112.669806 -340.829362 
L -114.435563 -340.689921 
L -114.489102 -341.204931 
L -113.130292 -341.699787 
L -114.468665 -342.245724 
L -114.319532 -341.343967 
L -115.561238 -341.289484 
L -115.645381 -340.733874 
L -116.310244 -341.295725 
L -116.414642 -342.007944 
L -116.739427 -342.388736 
L -116.414085 -341.297148 
L -115.886328 -340.765792 
L -121.773108 -342.115767 
L -127.467416 -339.091837 
L -127.95736 -335.763732 
L -127.013024 -334.385982 
L -128.691339 -334.65614 
L -130.534181 -333.741182 
L -133.145868 -334.366052 
L -135.058159 -333.808566 
L -136.982375 -334.819925 
L -136.91573 -335.629842 
L -138.902383 -335.528943 
L -139.490942 -336.318853 
L -143.086128 -337.176336 
L -144.148904 -337.223728 
L -144.235186 -336.150208 
L -148.867892 -336.154894 
L -150.794566 -337.252193 
L -152.465889 -336.764987 
L -153.759811 -337.977425 
L -156.408674 -338.390399 
L -157.332551 -339.111851 
L -158.493881 -338.664818 
L -158.129803 -340.047353 
L -159.612076 -340.072938 
L -160.79691 -340.96123 
L -159.87756 -341.137679 
L -158.627838 -342.395542 
L -157.137012 -349.201576 
L -156.657012 -349.964583 
L -155.694799 -349.992107 
L -156.560074 -350.751139 
L -157.158277 -349.699271 
L -155.969873 -356.265537 
L -153.804058 -354.571269 
L -153.463248 -353.235373 
L -152.232585 -351.564933 
L -152.650175 -352.469242 
L -151.955026 -352.283386 
L -153.056158 -352.988506 
L -154.002909 -355.624545 
L -157.069627 -357.24788 
L -156.502903 -357.922923 
L -155.303999 -357.299811 
L -156.420877 -358.351386 
L -155.721582 -359.541432 
L -156.821892 -360.488028 
L -156.142762 -361.381557 
L -157.020744 -361.253015 
L -160.78979 -362.71944 
L -161.566958 -364.095057 
L -162.984601 -364.988872 
L -162.115457 -366.491043 
L -163.815077 -367.237878 
L -163.299721 -367.414933 
L -163.268241 -368.135381 
L -160.325802 -367.714011 
L -162.247194 -368.473893 
L -164.068058 -367.962572 
L -165.857164 -368.337123 
L -165.139088 -368.385365 
L -165.95493 -368.916825 
L -164.838051 -369.198587 
L -165.536512 -369.669616 
L -164.648594 -369.774036 
L -166.468073 -369.869377 
L -166.246579 -369.93407 
L -166.09357 -370.107158 
L -167.724698 -369.725515 
L -168.34997 -370.138371 
L -167.210998 -370.088999 
L -166.85252 -370.45901 
L -166.821033 -370.588681 
L -166.974035 -370.726302 
L -168.419018 -370.397148 
L -168.794071 -370.873281 
L -168.558215 -370.154828 
L -169.802684 -370.419854 
L -169.859854 -369.579101 
L -170.327433 -370.704454 
L -169.767056 -371.3497 
L -170.277166 -371.449295 
L -170.487617 -370.821643 
L -171.397635 -371.107094 
L -170.884213 -371.063963 
L -171.397635 -371.202435 
L -170.884213 -371.734753 
L -171.996116 -371.157603 
L -176.650604 -372.687019 
L -177.010466 -371.916348 
L -178.277035 -371.873218 
L -178.703455 -373.047943 
L -180.695553 -373.500813 
L -177.690424 -374.022343 
L -178.327574 -374.838125 
L -179.53725 -374.453358 
L -180.004545 -375.219488 
L -179.464062 -375.636319 
L -179.252504 -375.280778 
L -177.581608 -375.228854 
L -177.025928 -375.362214 
L -178.832987 -375.556585 
L -177.721077 -376.227368 
z
M -135.385055 -334.523707 
L -135.032204 -334.472536 
L -135.323324 -334.736683 
z
" clip-path="url(#p85176487ff)" style="fill: #eeeeee; stroke: #000000; stroke-width: 0.3"/>
    <path d="M -519.301139 -54.714426 
L -517.674362 -55.812813 
L -516.280129 -58.387968 
L -516.558271 -60.301132 
L -515.145454 -62.588353 
L -515.089681 -63.761335 
L -516.761005 -65.523874 
L -517.88446 -67.721722 
L -518.428473 -72.682841 
L -517.238025 -74.934204 
L -515.53964 -76.403537 
L -514.677073 -78.553136 
L -507.635087 -76.188462 
L -504.190249 -72.633629 
L -503.444561 -72.879924 
L -503.861038 -71.439036 
L -503.124188 -72.490904 
L -501.716495 -71.222539 
L -501.215773 -69.552099 
L -501.864251 -68.712203 
L -501.119113 -69.119096 
L -500.933517 -70.95865 
L -500.202742 -70.658729 
L -499.167889 -67.448377 
L -503.961784 -60.469785 
L -504.327966 -58.696801 
L -506.237446 -55.040198 
L -508.207966 -53.647391 
L -510.159889 -53.804154 
L -509.926992 -54.189381 
L -510.673039 -54.877312 
L -511.946958 -54.16199 
L -513.528491 -55.010288 
L -515.881869 -53.236076 
z
" clip-path="url(#p85176487ff)" style="fill: #eeeeee; stroke: #000000; stroke-width: 0.3"/>
    <path d="M -90.57733 -334.006752 
L -89.827774 -334.374775 
L -89.490832 -335.415855 
L -86.716871 -336.481621 
L -85.533706 -336.082384 
L -85.163628 -338.376508 
L -84.367116 -338.281167 
L -84.510732 -335.844032 
L -83.932409 -335.306895 
L -83.718645 -332.399024 
L -84.780288 -331.048937 
L -84.790781 -329.329982 
L -85.533706 -328.771842 
L -85.13711 -328.4566 
L -86.086624 -327.529299 
L -86.002113 -327.001242 
L -88.930184 -328.317278 
L -88.041438 -329.247696 
L -89.857605 -329.633027 
L -88.837386 -330.728019 
L -90.134892 -330.685174 
L -90.324899 -331.160735 
L -89.247795 -331.771651 
L -90.464096 -332.831461 
L -89.636104 -333.280349 
z
" clip-path="url(#p85176487ff)" style="fill: #eeeeee; stroke: #000000; stroke-width: 0.3"/>
    <path d="M -564.126552 -142.023613 
L -561.817679 -141.540953 
L -562.212612 -140.767737 
L -561.3501 -139.342176 
L -561.758574 -138.966489 
L -561.74449 -139.439784 
L -563.109096 -139.375091 
L -563.355453 -139.722968 
L -562.609765 -140.06063 
L -563.720013 -140.771426 
z
" clip-path="url(#p85176487ff)" style="fill: #eeeeee; stroke: #000000; stroke-width: 0.3"/>
    <path d="M 226.235161 108.157269 
L 226.656063 107.334388 
L 228.630757 107.076747 
L 230.504923 109.044835 
L 230.216586 110.338737 
L 228.608108 110.5158 
L 227.078065 109.842744 
z
" clip-path="url(#p85176487ff)" style="fill: #eeeeee; stroke: #000000; stroke-width: 0.3"/>
    <path d="M 157.119142 50.059407 
L 157.447247 49.70245 
L 158.192934 50.230221 
L 158.095718 51.945208 
L 157.490333 52.039412 
L 157.255027 51.454891 
L 157.75712 51.492345 
z
" clip-path="url(#p85176487ff)" style="fill: #eeeeee; stroke: #000000; stroke-width: 0.3"/>
    <path d="M -566.330479 -152.057585 
L -565.776183 -153.645453 
L -565.119146 -152.499953 
L -563.747081 -151.831722 
L -565.773699 -151.478455 
z
" clip-path="url(#p85176487ff)" style="fill: #eeeeee; stroke: #000000; stroke-width: 0.3"/>
    <path d="M -568.04888 -152.244578 
L -567.645102 -152.614875 
L -566.381296 -152.058722 
L -566.478513 -150.301177 
L -567.353731 -149.712959 
z
" clip-path="url(#p85176487ff)" style="fill: #eeeeee; stroke: #000000; stroke-width: 0.3"/>
    <path d="M -159.163631 -361.026581 
L -157.482241 -360.713891 
L -157.301065 -360.360052 
L -158.813711 -360.718996 
z
" clip-path="url(#p85176487ff)" style="fill: #eeeeee; stroke: #000000; stroke-width: 0.3"/>
    <path d="M -564.890471 -149.592932 
L -564.457969 -150.132057 
L -563.953663 -149.593783 
L -564.502712 -149.187169 
z
" clip-path="url(#p85176487ff)" style="fill: #eeeeee; stroke: #000000; stroke-width: 0.3"/>
    <path d="M 158.702216 50.801695 
L 158.748614 50.373233 
L 158.748614 50.801695 
z
" clip-path="url(#p85176487ff)" style="fill: #eeeeee; stroke: #000000; stroke-width: 0.3"/>
    <path d="M -84.417934 -335.891702 
L -84.244495 -335.701306 
L -84.2804 -335.694214 
z
" clip-path="url(#p85176487ff)" style="fill: #eeeeee; stroke: #000000; stroke-width: 0.3"/>
    <path d="M -106.751058 -338.348133 
L -106.690297 -338.413112 
L -106.167203 -338.368851 
z
" clip-path="url(#p85176487ff)" style="fill: #eeeeee; stroke: #000000; stroke-width: 0.3"/>
    <path d="M -158.13955 -359.641599 
L -157.071833 -359.283219 
L -156.811121 -357.974847 
z
" clip-path="url(#p85176487ff)" style="fill: #eeeeee; stroke: #000000; stroke-width: 0.3"/>
    <path d="M -164.185162 -366.475722 
L -163.536134 -366.414146 
L -163.146169 -365.615673 
z
" clip-path="url(#p85176487ff)" style="fill: #eeeeee; stroke: #000000; stroke-width: 0.3"/>
    <path d="M -164.777569 -364.310139 
L -164.202558 -364.292831 
L -164.003985 -364.134213 
z
" clip-path="url(#p85176487ff)" style="fill: #eeeeee; stroke: #000000; stroke-width: 0.3"/>
    <path d="M -170.744738 -368.916825 
L -169.420728 -368.349891 
L -170.482642 -368.421118 
z
" clip-path="url(#p85176487ff)" style="fill: #eeeeee; stroke: #000000; stroke-width: 0.3"/>
    <path d="M -183.442175 -376.413789 
L -183.163781 -376.570419 
L -183.137819 -376.336328 
z
" clip-path="url(#p85176487ff)" style="fill: #eeeeee; stroke: #000000; stroke-width: 0.3"/>
    <path d="M -563.258793 -152.197194 
L -562.902514 -152.46959 
L -563.102472 -152.17506 
z
" clip-path="url(#p85176487ff)" style="fill: #eeeeee; stroke: #000000; stroke-width: 0.3"/>
    <path d="M -566.680126 -149.111123 
L -566.573238 -149.236262 
L -566.588428 -149.103745 
z
" clip-path="url(#p85176487ff)" style="fill: #eeeeee; stroke: #000000; stroke-width: 0.3"/>
    <path d="M -566.969563 -149.043878 
L -566.818488 -149.091549 
L -566.896374 -149.000462 
z
" clip-path="url(#p85176487ff)" style="fill: #eeeeee; stroke: #000000; stroke-width: 0.3"/>
    <path d="M -65.462514 2.154422 
L -65.396716 1.512258 
L -63.699784 1.439462 
L -63.55247 -2.490653 
L -64.138225 -3.240926 
L -62.546518 -4.153004 
L -61.704721 -5.4395 
L -59.923611 -5.968513 
L -59.769977 -6.557344 
L -57.701956 -4.424718 
L -55.531166 -5.817161 
L -55.514326 -7.439513 
L -53.956298 -7.125275 
L -50.952474 -8.66619 
L -50.391268 -7.60456 
L -51.198694 -6.700048 
L -50.859873 -4.418232 
L -50.051042 -4.731751 
L -49.013522 -4.323094 
L -47.938121 -4.914811 
L -45.407815 -8.234471 
L -43.67721 -9.107275 
L -43.169327 -10.194128 
L -40.601133 -11.174316 
L -38.473484 -15.387679 
L -38.683928 -23.27602 
L -36.516294 -25.330808 
L -34.34936 -29.642908 
L -33.064214 -30.842194 
L -31.126667 -31.414449 
L -28.12986 -34.842226 
L -28.35504 -37.126922 
L -26.799816 -41.123348 
L -27.335059 -45.581757 
L -25.945387 -49.311331 
L -25.938369 -53.555139 
L -22.268819 -60.306537 
L -22.041535 -66.706765 
L -22.751453 -68.672363 
L -21.316889 -69.179751 
L -19.076996 -72.727346 
L -16.866567 -74.268798 
L -14.045134 -74.035822 
L -10.554467 -71.768957 
L -8.916464 -69.280113 
L -6.939638 -69.547684 
L -4.635909 -68.419388 
L -1.063169 -68.431996 
L 2.778252 -67.283706 
L 4.184757 -67.719923 
L 4.741048 -69.689482 
L 5.399755 -69.814712 
L 6.817486 -72.129324 
L 10.320784 -70.506247 
L 11.4986 -71.504273 
L 16.054147 -72.870587 
L 17.000471 -73.61077 
L 16.985037 -74.212397 
L 19.253688 -72.784284 
L 23.170164 -73.584647 
L 23.550376 -75.525204 
L 24.772744 -75.976553 
L 27.264471 -74.545734 
L 29.215342 -75.021951 
L 31.28056 -73.690595 
L 32.8884 -74.017803 
L 33.754755 -73.621404 
L 35.157052 -74.777448 
L 36.705964 -74.279969 
L 39.70839 -71.880128 
L 39.899898 -70.541024 
L 41.539653 -70.221738 
L 41.782025 -69.308941 
L 44.033837 -68.305874 
L 46.571867 -70.249311 
L 49.73388 -68.76191 
L 51.337858 -71.055078 
L 52.430099 -70.860122 
L 53.639483 -70.263543 
L 53.579156 -68.957947 
L 54.546521 -68.538487 
L 56.304486 -66.079908 
L 58.584357 -65.462431 
L 58.705017 -63.68674 
L 60.089076 -64.118815 
L 60.717619 -62.831064 
L 61.103451 -63.038628 
L 61.196045 -62.156104 
L 60.068035 -59.799511 
L 60.811625 -58.390129 
L 59.842149 -55.543262 
L 60.936493 -54.754788 
L 61.589587 -55.266507 
L 62.181654 -54.463256 
L 63.011879 -54.551547 
L 63.649192 -53.157479 
L 58.265531 -47.129876 
L 56.640505 -46.414192 
L 56.070184 -44.82896 
L 54.661568 -44.242647 
L 54.615271 -41.967316 
L 53.003921 -38.997925 
L 51.996572 -32.016976 
L 52.154407 -28.810467 
L 49.815607 -26.925775 
L 49.117615 -25.637835 
L 49.147073 -23.166467 
L 47.32458 -21.812224 
L 47.262848 -20.93078 
L 47.49434 -19.993835 
L 48.425935 -19.350946 
L 48.197246 -18.871661 
L 49.824377 -17.247148 
L 49.691438 -11.296839 
L 50.536046 -9.948363 
L 51.020784 -7.095729 
L 50.429415 -4.181832 
L 52.388709 1.286674 
L 51.463433 3.36308 
L 51.881525 5.526696 
L 53.030583 7.667251 
L 55.635951 9.554838 
L 57.017906 11.363854 
L 60.124153 18.64895 
L 47.479611 20.664102 
L 47.506266 22.635285 
L 43.836716 26.165397 
L 44.946488 26.907023 
L 46.185343 29.791366 
L 45.312677 32.773727 
L 46.193054 35.727267 
L 45.207451 37.064928 
L 43.890031 41.936312 
L 44.891422 44.30174 
L 46.542403 45.134892 
L 48.470128 47.831133 
L 51.623372 48.348611 
L 51.450801 46.88121 
L 53.657022 46.263551 
L 53.541276 55.340007 
L 52.422381 55.100009 
L 52.773834 54.123427 
L 52.130556 53.734232 
L 49.481693 55.208836 
L 48.190927 54.923427 
L 46.249878 51.393678 
L 45.12888 51.36485 
L 44.313737 48.824291 
L 41.164002 47.754014 
L 40.471616 47.018873 
L 38.988651 47.236528 
L 37.51269 44.644805 
L 36.246482 43.857768 
L 35.879601 42.187851 
L 34.81823 42.368749 
L 34.301924 44.555434 
L 32.738982 45.279758 
L 30.683585 44.574171 
L 27.741492 44.512909 
L 25.30027 43.298484 
L 24.445841 43.630741 
L 23.423403 42.693795 
L 23.188402 39.573778 
L 19.130923 40.489099 
L 17.62691 41.433973 
L 16.289848 40.999374 
L 16.956977 40.161891 
L 16.809663 38.914313 
L 15.137987 38.51719 
L 15.069943 37.652322 
L 14.304606 37.333043 
L 13.166068 38.414129 
L 10.602083 37.943498 
L 7.60457 38.930171 
L 4.120222 38.51143 
L 2.3328 39.955763 
L 1.843148 37.186015 
L 2.888385 36.551054 
L 2.846995 33.812296 
L 1.805267 30.76435 
L -0.102109 28.850822 
L -0.692073 27.100899 
L 0.339135 20.474549 
L -0.950226 17.276687 
L -0.224175 13.598104 
L -0.739775 12.297919 
L -9.321931 12.318819 
L -8.704608 9.735736 
L -10.686347 9.753755 
L -10.857513 10.335382 
L -16.100531 10.335382 
L -16.159453 13.665133 
L -17.228541 14.325316 
L -17.22924 17.309121 
L -22.924023 16.822632 
L -22.98435 17.278131 
L -25.612871 17.451826 
L -25.763694 18.057232 
L -27.325937 17.605339 
L -29.143522 17.982282 
L -31.072653 15.577217 
L -32.018977 13.307653 
L -33.586127 11.748725 
L -33.399527 10.424754 
L -34.791303 8.287797 
L -35.212205 6.591214 
L -35.071902 4.667596 
L -36.251829 2.667584 
L -53.962611 2.243793 
L -58.042182 2.585415 
L -61.071786 2.055106 
L -61.952041 2.409092 
L -62.249826 3.203737 
L -64.103534 3.710462 
L -64.051298 3.221233 
L -64.462827 3.389928 
z
" clip-path="url(#p85176487ff)" style="fill: #eeeeee; stroke: #000000; stroke-width: 0.3"/>
    <path d="M -62.096966 2.931326 
L -61.533385 2.454308 
L -60.40376 2.429552 
z
" clip-path="url(#p85176487ff)" style="fill: #eeeeee; stroke: #000000; stroke-width: 0.3"/>
    <path d="M -69.071099 83.865975 
L -68.816455 81.916046 
L -66.556294 81.026666 
L -65.507555 81.624151 
L -63.304844 81.691898 
L -59.238243 79.714947 
L -57.110594 80.127922 
L -56.82859 80.906312 
L -53.711469 83.01011 
L -23.351238 82.775146 
L -22.066791 84.505614 
L -20.388803 85.629943 
L -14.409212 86.264903 
L -10.573404 86.017694 
L -7.382986 87.248696 
L -4.972627 86.545988 
L -3.441953 87.130496 
L 15.79108 83.400016 
L 21.332936 84.109215 
L 22.845372 85.593911 
L 20.765418 85.554267 
L 18.125678 87.397885 
L 16.674274 86.723281 
L 11.646621 90.360784 
L 9.494415 87.022386 
L -6.236732 89.256636 
L -6.170792 114.672301 
L -13.002001 114.928157 
L -12.979555 159.709366 
L -15.782045 160.468286 
L -16.553701 161.681986 
L -17.837441 161.942891 
L -17.68522 162.92236 
L -18.82656 163.441282 
L -21.368799 162.621093 
L -25.300004 163.053531 
L -27.018683 162.212443 
L -28.949911 162.092806 
L -29.260674 161.507574 
L -30.477782 161.675501 
L -30.362735 160.902167 
L -31.016534 160.045221 
L -30.504436 159.520532 
L -30.870618 158.351518 
L -31.770645 158.382508 
L -32.698731 156.951145 
L -33.943892 157.34034 
L -34.787095 158.614584 
L -34.979308 160.118017 
L -37.650508 160.641981 
L -41.71645 156.935636 
L -44.788136 152.039238 
L -45.241075 149.411149 
L -46.2287 147.665514 
L -45.647058 146.947061 
L -46.075141 145.750201 
L -47.020787 145.154892 
L -46.934613 143.22709 
L -47.87584 141.085914 
L -47.788017 136.29167 
L -50.462557 129.556005 
L -50.091366 128.119099 
L -50.631577 124.79241 
L -50.240506 124.052952 
L -50.79563 121.693285 
L -50.626609 121.05882 
L -50.462557 121.864106 
L -49.986975 121.200694 
L -50.127821 118.745121 
L -57.668127 106.89912 
L -59.160608 102.296122 
L -60.113564 101.391262 
L -64.099835 93.33756 
L -66.938026 90.553725 
L -68.532923 86.723484 
z
" clip-path="url(#p85176487ff)" style="fill: #eeeeee; stroke: #000000; stroke-width: 0.3"/>
    <path d="M 0.583258 52.172779 
L 14.298992 52.172779 
L 13.382832 50.696013 
L 14.50383 47.874375 
L 13.984721 46.248419 
L 13.986825 42.657038 
L 14.713575 41.053425 
L 14.073813 37.325114 
L 15.069943 37.652322 
L 15.137987 38.51719 
L 16.809663 38.914313 
L 16.956977 40.161891 
L 16.232324 40.873963 
L 17.325263 41.448387 
L 19.130923 40.489099 
L 23.188402 39.573778 
L 23.423403 42.693795 
L 24.445841 43.630741 
L 25.30027 43.298484 
L 27.741492 44.512909 
L 30.683585 44.574171 
L 32.738982 45.279758 
L 34.301924 44.555434 
L 34.81823 42.368749 
L 35.879601 42.187851 
L 36.246482 43.857768 
L 37.51269 44.644805 
L 38.988651 47.236528 
L 40.471616 47.018873 
L 41.164002 47.754014 
L 44.313737 48.824291 
L 45.12888 51.36485 
L 46.249878 51.393678 
L 48.190927 54.923427 
L 49.481693 55.208836 
L 52.130556 53.734232 
L 52.773834 54.123427 
L 52.422381 55.100009 
L 53.438853 55.358752 
L 53.657022 46.263551 
L 51.450801 46.88121 
L 51.623372 48.348611 
L 48.470128 47.831133 
L 46.542403 45.134892 
L 44.891422 44.30174 
L 43.858463 41.828928 
L 45.207451 37.064928 
L 46.193054 35.727267 
L 45.312677 32.773727 
L 46.185343 29.791366 
L 44.946488 26.907023 
L 43.836716 26.165397 
L 47.506266 22.635285 
L 47.479611 20.664102 
L 60.124153 18.64895 
L 62.035039 21.481403 
L 64.204784 21.38987 
L 65.465379 22.201405 
L 66.372418 23.662321 
L 68.164048 23.798533 
L 68.17387 24.699439 
L 71.468115 25.271701 
L 72.110342 26.06954 
L 74.844434 27.113151 
L 75.292696 28.651179 
L 76.572236 28.468838 
L 77.71287 30.066684 
L 77.445601 31.686874 
L 79.001179 32.854452 
L 79.957677 35.266002 
L 78.781958 36.605831 
L 76.960164 37.401508 
L 78.034859 39.364763 
L 76.94473 41.120454 
L 76.824776 42.147489 
L 77.395795 42.355053 
L 77.512946 43.600469 
L 77.096958 46.161927 
L 77.753561 47.475815 
L 78.959436 47.668965 
L 77.759873 48.903572 
L 75.550144 49.461413 
L 74.981934 50.557632 
L 75.473683 51.585392 
L 75.369157 53.574233 
L 74.112769 55.845958 
L 73.096297 56.32092 
L 73.819546 56.673351 
L 73.773249 57.582186 
L 74.527359 57.884889 
L 75.380383 59.487785 
L 76.333725 58.612826 
L 76.757431 59.232647 
L 56.474946 65.980083 
L 57.804644 70.505515 
L 52.217543 70.682097 
L 47.772835 72.829855 
L 47.262848 73.504459 
L 47.262848 75.789881 
L 46.610447 76.794566 
L 40.201545 79.774773 
L 38.575466 82.588481 
L 35.440461 86.207965 
L 32.620779 87.51248 
L 29.307943 86.212288 
L 27.357072 87.022386 
L 25.707143 85.714991 
L 23.359567 85.922555 
L 21.332936 84.109215 
L 18.940115 83.490113 
L 15.79108 83.400016 
L 10.097702 84.527232 
L 1.453814 76.876009 
L 0.594478 74.088967 
z
" clip-path="url(#p85176487ff)" style="fill: #eeeeee; stroke: #000000; stroke-width: 0.3"/>
    <path d="M -68.949576 72.086367 
L -67.208533 70.413947 
L -66.771612 67.734777 
L -66.168434 67.285317 
L -64.905734 62.159081 
L -64.922852 59.778989 
L -64.334035 58.2893 
L -63.744113 58.126428 
L -63.65684 55.132861 
L -60.741469 52.039412 
L -60.777924 50.883982 
L -59.155083 49.385214 
L -57.700164 49.166729 
L -56.024293 46.9234 
L -54.989719 43.731207 
L -54.62129 39.008469 
L -55.402333 36.571619 
L -55.128915 35.969504 
L -56.785999 34.07689 
L -60.391821 24.923106 
L -60.418889 24.533799 
L -59.780362 23.517977 
L -59.440101 23.369289 
L -60.278593 24.852737 
L -58.84576 22.691694 
L -59.023068 23.035603 
L -57.78688 22.560607 
L -57.795167 19.715727 
L -61.385406 12.176163 
L -61.4971 9.710122 
L -63.417094 7.760019 
L -65.18412 4.022064 
L -61.606215 3.569752 
L -59.11197 2.346861 
L -36.508577 2.560911 
L -35.071902 4.667596 
L -35.212205 6.591214 
L -34.791303 8.287797 
L -33.399527 10.424754 
L -33.586127 11.748725 
L -32.018977 13.307653 
L -31.072653 15.577217 
L -29.143522 17.982282 
L -27.325937 17.605339 
L -25.763694 18.057232 
L -25.612871 17.451826 
L -22.98435 17.278131 
L -22.924023 16.822632 
L -17.22924 17.309121 
L -17.228541 14.325316 
L -16.159453 13.665133 
L -16.100531 10.335382 
L -10.857513 10.335382 
L -10.686347 9.753755 
L -8.704608 9.735736 
L -9.321931 12.318819 
L -0.739775 12.297919 
L -0.224175 13.598104 
L -0.950226 17.276687 
L 0.339135 20.474549 
L -0.692073 27.100899 
L -0.102109 28.850822 
L 1.805267 30.76435 
L 2.846995 33.812296 
L 2.888385 36.551054 
L 1.843148 37.186015 
L 2.3328 39.955763 
L 4.120222 38.51143 
L 7.60457 38.930171 
L 10.602083 37.943498 
L 13.166068 38.414129 
L 14.073813 37.325114 
L 14.713575 41.053425 
L 13.986825 42.657038 
L 13.984721 46.248419 
L 14.50383 47.874375 
L 13.382832 50.696013 
L 14.298992 52.172779 
L 0.583258 52.172779 
L 0.609912 74.2396 
L 1.749149 77.25079 
L 2.984488 77.78052 
L 5.913258 81.239287 
L 10.097702 84.527232 
L -3.441953 87.130496 
L -4.972627 86.545988 
L -7.382986 87.248696 
L -10.573404 86.017694 
L -14.409212 86.264903 
L -20.388803 85.629943 
L -22.066791 84.505614 
L -23.351238 82.775146 
L -53.711469 83.01011 
L -56.82859 80.906312 
L -57.110594 80.127922 
L -59.238243 79.714947 
L -63.304844 81.691898 
L -65.507555 81.624151 
L -66.556294 81.026666 
L -68.797124 81.724227 
L -68.362966 76.423774 
z
" clip-path="url(#p85176487ff)" style="fill: #eeeeee; stroke: #000000; stroke-width: 0.3"/>
    <path d="M -67.089257 -3.488205 
L -65.881454 -5.242745 
L -64.969502 -5.172111 
L -64.527559 -6.376446 
L -62.920417 -6.698612 
L -61.984614 -7.870506 
L -61.250146 -7.72564 
L -59.866786 -6.168156 
L -61.704721 -5.4395 
L -62.546518 -4.153004 
L -64.138225 -3.240926 
L -63.55247 -2.490653 
L -63.699784 1.439462 
L -65.725438 1.698721 
L -66.155178 0.684029 
L -65.598391 -0.369254 
L -66.997525 -3.304364 
L -66.472151 -3.067071 
L -66.224226 -3.520527 
z
" clip-path="url(#p85176487ff)" style="fill: #eeeeee; stroke: #000000; stroke-width: 0.3"/>
    <path d="M -69.177281 76.572266 
L -69.056675 76.611945 
L -68.929336 78.004814 
z
" clip-path="url(#p85176487ff)" style="fill: #eeeeee; stroke: #000000; stroke-width: 0.3"/>
    <path d="M -13.002001 114.928157 
L -6.170792 114.672301 
L -6.236732 89.256636 
L 9.494415 87.022386 
L 11.646621 90.360784 
L 16.674274 86.723281 
L 18.125678 87.397885 
L 20.765418 85.554267 
L 22.845372 85.593911 
L 22.813098 87.037519 
L 27.467205 93.454142 
L 27.52052 94.723337 
L 28.924921 97.748948 
L 29.929474 98.02859 
L 29.988396 98.54535 
L 32.715131 100.470405 
L 36.026562 101.625005 
L 36.47868 104.433672 
L 39.395517 104.526649 
L 39.181564 108.446674 
L 41.379361 111.798767 
L 45.623439 112.462556 
L 48.494678 113.514095 
L 48.506957 115.069425 
L 50.607952 116.225469 
L 48.494678 116.48493 
L 47.759505 117.997728 
L 46.988561 118.360975 
L 43.49298 119.134316 
L 39.772226 123.436325 
L 38.783806 123.408215 
L 38.382554 124.412908 
L 35.521835 125.558143 
L 34.434156 126.908781 
L 33.565352 130.722502 
L 31.474877 132.068817 
L 30.614136 133.283242 
L 26.976155 134.087566 
L 26.750975 135.957852 
L 25.068072 140.164004 
L 24.193654 140.803288 
L 18.808235 141.585276 
L 16.595004 141.086535 
L 15.539945 140.20869 
L 13.784091 140.231758 
L 10.624529 137.811561 
L 7.715409 137.931923 
L 6.452709 139.198956 
L 5.542162 142.795378 
L 4.419758 144.26349 
L 2.405052 145.236474 
L 1.111483 147.124054 
L -0.769239 147.5464 
L -0.893402 148.427126 
L -1.557022 148.835777 
L -6.694109 148.396136 
L -8.166561 149.036138 
L -8.746703 146.257017 
L -7.14377 143.733041 
L -8.525026 140.169771 
L -8.398759 139.105979 
L -10.378388 136.075333 
L -12.980953 134.117838 
z
" clip-path="url(#p85176487ff)" style="fill: #eeeeee; stroke: #000000; stroke-width: 0.3"/>
    <path d="M 22.813098 87.037519 
L 22.845372 85.593911 
L 24.587549 86.069583 
L 25.707143 85.714991 
L 27.357072 87.022386 
L 29.307943 86.212288 
L 32.620779 87.51248 
L 34.80139 86.740582 
L 38.575466 82.588481 
L 40.201545 79.774773 
L 46.93454 76.473843 
L 47.262848 73.504459 
L 47.772835 72.829855 
L 52.217543 70.682097 
L 57.708887 70.544434 
L 57.751682 73.091478 
L 63.571326 73.246435 
L 64.552728 74.21437 
L 66.630571 74.602122 
L 67.985165 76.073846 
L 70.565638 76.233127 
L 73.153821 77.265204 
L 73.557883 78.025567 
L 75.167828 77.836015 
L 74.2194 79.603958 
L 75.528403 82.465958 
L 74.951065 83.531193 
L 75.54804 84.374436 
L 74.888634 86.840763 
L 75.075933 88.816996 
L 75.671856 89.484382 
L 74.504207 90.765837 
L 74.719919 92.430712 
L 73.287106 92.847292 
L 73.216958 93.689098 
L 74.403543 94.587124 
L 73.775353 97.238673 
L 74.242552 97.495972 
L 74.157315 98.705349 
L 74.995963 98.530929 
L 75.604165 99.471479 
L 75.430888 101.199778 
L 74.603121 101.694921 
L 73.153821 104.685211 
L 71.863062 105.18179 
L 71.926898 107.50613 
L 70.900604 108.884878 
L 71.629459 110.137497 
L 63.767748 117.694306 
L 60.706399 116.892137 
L 57.292899 117.327454 
L 53.382735 115.836274 
L 50.654602 116.255015 
L 48.506957 115.069425 
L 48.494678 113.514095 
L 45.623439 112.462556 
L 41.379361 111.798767 
L 39.181564 108.446674 
L 39.395517 104.526649 
L 36.47868 104.433672 
L 36.026562 101.625005 
L 32.715131 100.470405 
L 29.988396 98.54535 
L 29.929474 98.02859 
L 28.924921 97.748948 
L 27.52052 94.723337 
L 27.467205 93.454142 
z
" clip-path="url(#p85176487ff)" style="fill: #eeeeee; stroke: #000000; stroke-width: 0.3"/>
    <path d="M 56.474946 65.980083 
L 76.757431 59.232647 
L 79.758446 63.332134 
L 80.271243 62.550871 
L 82.513593 62.589064 
L 84.504448 61.837348 
L 85.685773 63.371778 
L 86.031613 68.000277 
L 83.751735 72.314538 
L 84.914829 73.499411 
L 85.063542 74.992753 
L 88.315 78.248997 
L 89.759385 78.894766 
L 89.40443 80.821982 
L 90.937907 80.958201 
L 90.844607 77.969354 
L 89.851986 76.832048 
L 91.499112 74.065898 
L 92.448938 74.277794 
L 94.285468 73.377605 
L 94.661471 69.018658 
L 94.279156 67.30766 
L 95.094299 65.320619 
L 94.707069 63.671594 
L 89.527194 57.073354 
L 88.027382 55.759474 
L 86.51705 55.59587 
L 85.870269 54.434059 
L 85.525135 49.982497 
L 84.571793 46.57995 
L 86.355007 42.248388 
L 92.563985 42.488393 
L 94.565368 41.098829 
L 96.884524 42.251275 
L 97.099184 43.107495 
L 99.990772 43.245876 
L 101.310296 42.215236 
L 102.751172 42.154692 
L 103.492658 42.920823 
L 105.71922 43.232899 
L 108.076264 41.936312 
L 108.898426 40.195761 
L 111.060446 40.148195 
L 112.65987 41.098829 
L 115.402033 39.384944 
L 117.722594 39.430355 
L 119.489675 38.150345 
L 121.439846 37.745299 
L 126.358629 34.573455 
L 126.332111 35.191463 
L 127.339074 36.032495 
L 126.187946 36.55687 
L 127.103767 37.10621 
L 126.260856 37.90695 
L 126.331561 38.475021 
L 126.735888 38.312714 
L 126.331561 39.522628 
L 125.261081 40.426652 
L 126.05538 40.901648 
L 125.795768 42.748865 
L 126.424359 44.066602 
L 126.456395 46.615243 
L 125.955951 47.027248 
L 126.701646 47.88872 
L 126.139341 48.683218 
L 126.70827 48.885246 
L 127.283838 50.532702 
L 125.682533 51.758501 
L 126.17469 52.315219 
L 126.288474 51.79993 
L 126.933633 51.992878 
L 126.470758 55.723058 
L 126.933633 56.10385 
L 126.554718 56.600415 
L 127.309243 59.358469 
L 126.549193 60.282925 
L 126.908228 60.971873 
L 127.619673 60.408914 
L 127.957714 61.02522 
L 127.864916 61.506458 
L 127.212026 61.506458 
L 127.165628 63.085246 
L 127.64839 62.148865 
L 128.333324 62.000185 
L 128.612267 62.374735 
L 128.058799 62.866189 
L 128.517813 62.79582 
L 128.649272 64.052267 
L 127.822943 65.320626 
L 127.258425 65.089658 
L 128.146622 66.093562 
L 127.447333 65.946583 
L 127.725726 66.617938 
L 126.477382 67.02313 
L 126.373541 67.37895 
L 127.206502 67.257507 
L 127.520244 67.734205 
L 126.842498 69.541129 
L 123.334442 73.00742 
L 123.808368 72.988696 
L 122.841736 74.633879 
L 121.423265 75.18833 
L 121.590079 75.794985 
L 121.915978 76.079871 
L 116.982826 79.134722 
L 116.720451 79.943411 
L 113.818342 80.234539 
L 110.492013 82.061324 
L 109.867291 81.386001 
L 110.187108 82.052816 
L 103.817267 85.207547 
L 102.423102 87.116054 
L 101.770762 86.200105 
L 101.396258 86.17627 
L 102.376703 87.354399 
L 98.953713 90.909789 
L 98.509612 92.502769 
L 97.360147 91.870005 
L 97.555686 93.242219 
L 96.739843 93.309185 
L 96.584079 92.61343 
L 94.761837 93.663875 
L 89.817085 98.919496 
L 88.142321 100.023853 
L 86.42282 98.158477 
L 85.924032 98.063701 
L 87.446901 99.686757 
L 86.982912 100.166857 
L 87.42867 102.037345 
L 86.616696 102.032798 
L 87.21435 102.556037 
L 86.515061 103.599104 
L 87.030967 104.233004 
L 86.705075 104.749994 
L 87.19115 104.633091 
L 88.090397 105.94912 
L 88.911207 106.068296 
L 89.211694 107.52053 
L 89.771793 107.715752 
L 89.068079 108.724768 
L 89.447 110.195161 
L 89.818191 109.195789 
L 89.771793 110.580492 
L 90.795873 112.441893 
L 91.03118 117.633386 
L 91.631046 118.324608 
L 91.952519 115.75723 
L 92.35574 115.663025 
L 92.467875 117.08632 
L 92.699313 116.172645 
L 92.278411 119.735413 
L 92.607065 121.52701 
L 93.070497 121.302277 
L 92.204394 123.130198 
L 91.606184 127.112914 
L 91.546529 126.622597 
L 91.266487 126.612381 
L 91.21235 128.623035 
L 91.536592 127.785406 
L 92.119884 128.034539 
L 92.18617 127.352968 
L 92.535811 127.496544 
L 92.328679 129.577002 
L 89.678995 133.03989 
L 77.262992 137.913589 
L 77.54801 137.603731 
L 74.517748 139.636519 
L 73.257255 142.021723 
L 72.608783 142.60114 
L 72.100608 142.468344 
L 71.830503 142.709535 
L 74.312272 144.830285 
L 75.072322 143.367263 
L 74.655839 148.71766 
L 69.36712 148.675053 
L 69.07319 142.885468 
L 68.249631 142.525101 
L 67.955002 141.513205 
L 68.565307 140.285091 
L 68.502877 131.82089 
L 67.578999 128.386628 
L 65.38786 125.082463 
L 65.447141 122.991636 
L 63.701102 117.81971 
L 71.629459 110.137497 
L 70.900604 108.884878 
L 71.926898 107.50613 
L 71.863062 105.18179 
L 73.153821 104.685211 
L 74.603121 101.694921 
L 75.430888 101.199778 
L 75.604165 99.471479 
L 74.995963 98.530929 
L 74.157315 98.705349 
L 74.242552 97.495972 
L 73.775353 97.238673 
L 74.403543 94.587124 
L 73.216958 93.689098 
L 73.287106 92.847292 
L 74.719919 92.430712 
L 74.504207 90.765837 
L 75.671856 89.484382 
L 75.075933 88.816996 
L 74.888634 86.840763 
L 75.54804 84.374436 
L 74.951065 83.531193 
L 75.528403 82.465958 
L 74.2194 79.603958 
L 75.167828 77.836015 
L 73.557883 78.025567 
L 73.153821 77.265204 
L 70.565638 76.233127 
L 67.985165 76.073846 
L 66.630571 74.602122 
L 64.552728 74.21437 
L 63.571326 73.246435 
L 57.751682 73.091478 
L 57.685735 69.461904 
z
M 86.620877 45.720843 
L 86.845358 46.057423 
L 87.34342 45.470036 
L 86.880429 45.19183 
z
M 85.861852 45.268231 
L 86.317126 45.694902 
L 86.427965 45.100304 
z
" clip-path="url(#p85176487ff)" style="fill: #eeeeee; stroke: #000000; stroke-width: 0.3"/>
    <path d="M 91.908326 113.409487 
L 91.926008 112.642791 
L 92.143633 111.779053 
L 92.287248 112.426008 
z
" clip-path="url(#p85176487ff)" style="fill: #eeeeee; stroke: #000000; stroke-width: 0.3"/>
    <path d="M 121.680922 75.296258 
L 122.529589 75.190122 
L 122.068749 75.989963 
z
" clip-path="url(#p85176487ff)" style="fill: #eeeeee; stroke: #000000; stroke-width: 0.3"/>
    <path d="M 74.827072 142.827002 
L 75.263436 142.60114 
L 75.118721 143.124943 
z
" clip-path="url(#p85176487ff)" style="fill: #eeeeee; stroke: #000000; stroke-width: 0.3"/>
    <path d="M 144.768869 116.700416 
L 145.304106 116.449581 
L 144.931266 115.168169 
L 145.537756 113.311308 
L 146.464071 112.63655 
L 146.700484 110.108334 
L 148.772395 109.514162 
L 149.375023 107.133497 
L 153.259789 100.880778 
L 152.560494 99.400734 
L 153.299557 97.378162 
L 151.634186 94.622382 
L 151.789951 92.635564 
L 150.326743 89.79749 
L 150.285313 85.422064 
L 149.527469 83.867111 
L 152.966484 77.966809 
L 153.061487 74.447736 
L 155.937084 74.623098 
L 158.638692 72.552284 
L 158.852455 73.86378 
L 159.588206 73.465394 
L 159.405923 72.900168 
L 160.700109 72.685651 
L 160.935416 73.444397 
L 161.316544 71.714655 
L 163.269145 71.508087 
L 164.066756 72.119854 
L 164.099899 71.538729 
L 163.725396 71.63407 
L 164.597024 71.016634 
L 165.216778 71.11254 
L 165.025657 71.824187 
L 165.865249 72.923997 
L 166.235334 72.4002 
L 166.799851 72.780992 
L 165.647617 71.797513 
L 165.876299 70.503611 
L 170.062657 67.493021 
L 170.912742 68.368677 
L 170.122312 69.941782 
L 171.981009 69.130826 
L 170.785145 67.459535 
L 172.929417 65.346169 
L 172.331206 65.041988 
L 173.424885 63.81902 
L 173.915379 64.851306 
L 173.308888 66.859693 
L 175.816063 63.085246 
L 176.654549 64.085182 
L 176.97989 63.474552 
L 177.19476 64.451783 
L 177.281476 63.529601 
L 175.861906 62.940533 
L 175.516127 63.323591 
L 175.167036 62.248746 
L 175.773526 60.692663 
L 176.809764 60.757356 
L 176.65068 59.735858 
L 177.285895 60.116085 
L 177.076 61.404875 
L 177.423435 60.965632 
L 177.520102 59.722239 
L 176.793189 59.164384 
L 177.309094 58.806855 
L 176.350193 57.631565 
L 176.54352 56.368876 
L 177.657086 55.770164 
L 178.498883 57.510122 
L 179.220272 57.729172 
L 179.455579 55.972192 
L 180.818807 55.793999 
L 180.466403 54.676023 
L 181.299364 55.269059 
L 182.488046 54.83946 
L 183.677286 50.849366 
L 183.213304 49.126437 
L 182.147793 48.222406 
L 183.612656 48.535667 
L 183.876137 47.514169 
L 185.348181 46.211752 
L 184.611881 45.876358 
L 185.07587 45.542671 
L 185.496765 45.928568 
L 185.21506 45.495001 
L 185.867956 44.824211 
L 186.512558 46.570983 
L 185.77129 46.16692 
L 185.539302 46.737829 
L 186.351825 47.270712 
L 186.568901 46.742934 
L 187.077076 47.793379 
L 187.641593 47.826293 
L 187.30907 48.027184 
L 187.960854 48.550423 
L 187.798464 49.567382 
L 188.424842 50.801695 
L 189.031333 50.373233 
L 190.375231 52.398642 
L 191.737909 57.623622 
L 192.191398 64.370633 
L 194.093738 67.640001 
L 194.048995 69.201767 
L 193.053639 71.766865 
L 191.909143 72.975642 
L 190.565795 71.116514 
L 190.096844 69.054215 
L 188.852369 69.224465 
L 188.313814 69.907165 
L 188.960635 72.425165 
L 188.662355 73.688426 
L 189.748853 74.762134 
L 189.777027 76.845995 
L 188.900981 78.340795 
L 189.68423 78.85381 
L 188.109994 79.335055 
L 186.908055 82.035787 
L 187.439423 85.130937 
L 186.418661 89.98647 
L 182.286989 100.737766 
L 182.499096 101.236033 
L 178.562964 113.501989 
L 176.518664 118.278639 
L 175.415048 123.678402 
L 174.308113 126.072121 
L 174.265583 127.84272 
L 172.6096 130.750598 
L 171.261833 135.385938 
L 171.122637 135.001172 
L 170.165948 136.301887 
L 168.054813 137.125897 
L 165.23114 137.225777 
L 160.639905 139.748882 
L 157.934428 140.017875 
L 155.708959 138.242736 
L 152.551107 137.634373 
L 152.055081 136.914218 
L 152.649979 137.38411 
L 152.791938 137.155973 
L 150.238914 135.836535 
L 149.488808 133.187441 
L 147.822881 131.205727 
L 147.496432 127.209957 
L 148.422747 125.131207 
L 147.538969 124.301521 
L 147.214177 122.425929 
L 145.707334 120.803445 
z
" clip-path="url(#p85176487ff)" style="fill: #eeeeee; stroke: #000000; stroke-width: 0.3"/>
    <path d="M 178.474028 54.005234 
L 179.353944 53.559184 
L 179.633436 55.007443 
L 178.717622 54.955233 
z
" clip-path="url(#p85176487ff)" style="fill: #eeeeee; stroke: #000000; stroke-width: 0.3"/>
    <path d="M 189.588113 80.714647 
L 189.799121 79.496225 
L 190.931461 77.897005 
z
" clip-path="url(#p85176487ff)" style="fill: #eeeeee; stroke: #000000; stroke-width: 0.3"/>
    <path d="M 318.024001 303.74176 
L 318.557581 303.584 
L 318.461471 302.963154 
L 319.071281 303.03012 
L 318.31565 302.134604 
L 319.028751 301.97116 
L 319.835199 300.797571 
L 320.519576 301.300378 
L 319.10608 302.467161 
L 321.010626 301.623855 
L 320.469308 301.87128 
L 320.840499 302.133467 
L 319.727483 303.837101 
L 320.191472 303.978976 
L 320.446665 303.160642 
L 321.185172 304.052183 
L 322.701959 303.308193 
L 322.800282 303.826885 
L 323.730458 302.875756 
L 324.100543 304.074317 
L 322.443453 303.999408 
L 321.646391 304.491433 
L 322.933953 304.264999 
L 322.315306 304.479516 
L 323.354849 304.931242 
L 322.520782 305.121923 
L 325.171016 305.2167 
L 326.21609 304.318345 
L 327.833406 304.300751 
L 328.796725 303.582863 
L 330.059425 303.875127 
L 330.071025 305.351196 
L 328.631017 305.846053 
L 329.682716 306.268846 
L 328.473596 306.268846 
L 327.466084 305.569117 
L 325.310212 305.645727 
L 326.009508 305.935153 
L 325.827224 306.296649 
L 324.425328 306.027091 
L 325.25277 306.919768 
L 327.446203 307.515071 
L 326.849649 306.835773 
L 328.524963 306.905013 
L 328.715527 307.212597 
L 327.635111 307.515071 
L 328.174766 307.986664 
L 325.536682 307.942403 
L 324.741833 306.684819 
L 324.054144 306.725112 
L 324.582199 307.263106 
L 324.235314 307.843659 
L 322.917378 307.609847 
L 321.272445 306.612749 
L 321.303375 307.202381 
L 320.705165 306.793214 
L 320.751564 307.558773 
L 320.309125 306.974245 
L 320.435066 307.699511 
L 319.903135 308.156914 
L 318.130604 307.913457 
L 319.061887 306.212661 
L 318.415622 305.757525 
L 319.21379 305.2167 
L 318.616686 305.32225 
L 318.129504 304.523776 
L 319.260189 304.217328 
z
" clip-path="url(#p85176487ff)" style="fill: #eeeeee; stroke: #000000; stroke-width: 0.3"/>
    <path d="M 321.033269 303.112971 
L 322.0568 302.399058 
L 321.867892 302.780415 
L 322.520782 302.708909 
L 321.239302 303.864346 
z
" clip-path="url(#p85176487ff)" style="fill: #eeeeee; stroke: #000000; stroke-width: 0.3"/>
    <path d="M 202.011303 284.924586 
L 202.550958 284.569331 
L 203.217111 284.912668 
L 203.14475 285.433062 
z
" clip-path="url(#p85176487ff)" style="fill: #eeeeee; stroke: #000000; stroke-width: 0.3"/>
    <path d="M 191.95941 282.737435 
L 192.587444 282.59102 
L 192.751497 283.094963 
L 192.133399 283.077369 
z
" clip-path="url(#p85176487ff)" style="fill: #eeeeee; stroke: #000000; stroke-width: 0.3"/>
    <path d="M 377.496322 231.42007 
L 377.757034 231.597133 
L 377.533327 231.62721 
z
" clip-path="url(#p85176487ff)" style="fill: #eeeeee; stroke: #000000; stroke-width: 0.3"/>
    <path d="M 377.453786 225.678672 
L 377.720579 225.245098 
L 378.000629 225.62135 
z
" clip-path="url(#p85176487ff)" style="fill: #eeeeee; stroke: #000000; stroke-width: 0.3"/>
    <path d="M 325.401904 306.701276 
L 326.625942 307.141092 
L 325.483658 306.793214 
z
" clip-path="url(#p85176487ff)" style="fill: #eeeeee; stroke: #000000; stroke-width: 0.3"/>
    <path d="M 323.354849 304.551021 
L 324.331431 304.264999 
L 323.964659 304.658845 
z
" clip-path="url(#p85176487ff)" style="fill: #eeeeee; stroke: #000000; stroke-width: 0.3"/>
    <path d="M 322.474383 302.014291 
L 323.257632 302.209513 
L 322.636779 302.261158 
z
" clip-path="url(#p85176487ff)" style="fill: #eeeeee; stroke: #000000; stroke-width: 0.3"/>
    <path d="M 320.705165 303.070977 
L 320.833868 302.554552 
L 321.384573 302.439915 
z
" clip-path="url(#p85176487ff)" style="fill: #eeeeee; stroke: #000000; stroke-width: 0.3"/>
    <path d="M 318.242732 300.309521 
L 318.497926 300.184668 
L 318.565868 300.366271 
z
" clip-path="url(#p85176487ff)" style="fill: #eeeeee; stroke: #000000; stroke-width: 0.3"/>
    <path d="M 317.308694 305.602031 
L 317.633479 305.407374 
L 318.189709 305.742769 
z
" clip-path="url(#p85176487ff)" style="fill: #eeeeee; stroke: #000000; stroke-width: 0.3"/>
    <path d="M 317.082774 300.679532 
L 317.190484 300.625048 
L 317.475502 300.732879 
z
" clip-path="url(#p85176487ff)" style="fill: #eeeeee; stroke: #000000; stroke-width: 0.3"/>
    <path d="M 221.409719 72.312802 
L 221.453355 72.282154 
L 221.456117 72.344015 
z
" clip-path="url(#p85176487ff)" style="fill: #eeeeee; stroke: #000000; stroke-width: 0.3"/>
    <path d="M 172.359931 42.159232 
L 172.438916 42.055377 
L 172.485315 42.18988 
z
" clip-path="url(#p85176487ff)" style="fill: #eeeeee; stroke: #000000; stroke-width: 0.3"/>
    <path d="M 141.385098 80.499565 
L 141.618748 80.479132 
L 141.571243 80.586956 
z
" clip-path="url(#p85176487ff)" style="fill: #eeeeee; stroke: #000000; stroke-width: 0.3"/>
    <path d="M 125.195352 117.431359 
L 125.513513 117.290621 
L 125.395859 117.451791 
z
" clip-path="url(#p85176487ff)" style="fill: #eeeeee; stroke: #000000; stroke-width: 0.3"/>
    <path d="M 121.049318 111.050384 
L 121.054843 111.031653 
L 121.068648 111.047546 
z
" clip-path="url(#p85176487ff)" style="fill: #eeeeee; stroke: #000000; stroke-width: 0.3"/>
    <path d="M 165.025657 26.95703 
L 166.981021 26.76238 
L 166.703734 27.242481 
L 165.653142 27.401949 
L 165.209047 27.422946 
z
" clip-path="url(#p85176487ff)" style="fill: #eeeeee; stroke: #000000; stroke-width: 0.3"/>
    <path d="M 227.431568 -5.992348 
L 227.792625 -6.677838 
L 228.356111 -4.993507 
L 227.949442 -5.672462 
z
" clip-path="url(#p85176487ff)" style="fill: #eeeeee; stroke: #000000; stroke-width: 0.3"/>
    <path d="M 233.249061 11.299691 
L 233.443494 11.089149 
L 233.341859 11.392759 
z
" clip-path="url(#p85176487ff)" style="fill: #eeeeee; stroke: #000000; stroke-width: 0.3"/>
    <path d="M 231.037886 -6.510643 
L 231.11478 -6.554533 
L 231.15408 -6.477289 
z
" clip-path="url(#p85176487ff)" style="fill: #eeeeee; stroke: #000000; stroke-width: 0.3"/>
    <path d="M 230.941579 -8.172729 
L 230.981964 -8.24793 
L 230.966821 -8.159765 
z
" clip-path="url(#p85176487ff)" style="fill: #eeeeee; stroke: #000000; stroke-width: 0.3"/>
    <path d="M 230.633667 -8.279046 
L 230.699288 -8.30498 
L 230.709381 -8.250524 
z
" clip-path="url(#p85176487ff)" style="fill: #eeeeee; stroke: #000000; stroke-width: 0.3"/>
    <path d="M 230.608425 -8.62133 
L 230.636185 -8.533165 
L 230.610949 -8.530578 
z
" clip-path="url(#p85176487ff)" style="fill: #eeeeee; stroke: #000000; stroke-width: 0.3"/>
    <path d="M 230.308081 -8.00418 
L 230.522611 -8.053448 
L 230.416605 -7.928979 
z
" clip-path="url(#p85176487ff)" style="fill: #eeeeee; stroke: #000000; stroke-width: 0.3"/>
    <path d="M 229.558484 -8.668011 
L 229.747772 -8.657634 
L 229.679626 -8.559099 
z
" clip-path="url(#p85176487ff)" style="fill: #eeeeee; stroke: #000000; stroke-width: 0.3"/>
    <path d="M 229.301322 -8.531526 
L 230.047009 -8.293181 
L 229.857551 -8.099089 
z
" clip-path="url(#p85176487ff)" style="fill: #eeeeee; stroke: #000000; stroke-width: 0.3"/>
    <path d="M 229.184944 -8.294603 
L 229.222805 -8.268676 
L 229.187469 -8.263488 
z
" clip-path="url(#p85176487ff)" style="fill: #eeeeee; stroke: #000000; stroke-width: 0.3"/>
    <path d="M 229.179894 -9.114018 
L 229.255615 -9.129576 
L 229.288425 -9.119199 
z
" clip-path="url(#p85176487ff)" style="fill: #eeeeee; stroke: #000000; stroke-width: 0.3"/>
    <path d="M 229.129538 -11.984853 
L 229.182569 -12.055222 
L 229.224542 -11.911074 
z
" clip-path="url(#p85176487ff)" style="fill: #eeeeee; stroke: #000000; stroke-width: 0.3"/>
    <path d="M 229.073895 -8.162359 
L 229.109224 -8.167547 
L 229.124373 -8.133838 
z
" clip-path="url(#p85176487ff)" style="fill: #eeeeee; stroke: #000000; stroke-width: 0.3"/>
    <path d="M 228.133307 -6.231579 
L 228.176875 -6.241753 
L 228.173902 -6.208183 
z
" clip-path="url(#p85176487ff)" style="fill: #eeeeee; stroke: #000000; stroke-width: 0.3"/>
    <path d="M 228.076876 -6.311941 
L 228.124401 -6.425873 
L 228.196674 -6.410615 
z
" clip-path="url(#p85176487ff)" style="fill: #eeeeee; stroke: #000000; stroke-width: 0.3"/>
    <path d="M 228.044201 -6.175631 
L 228.126377 -6.207165 
L 228.138261 -6.137996 
z
" clip-path="url(#p85176487ff)" style="fill: #eeeeee; stroke: #000000; stroke-width: 0.3"/>
    <path d="M 227.40323 -5.902886 
L 227.466346 -5.891442 
L 227.45645 -5.857112 
z
" clip-path="url(#p85176487ff)" style="fill: #eeeeee; stroke: #000000; stroke-width: 0.3"/>
    <path d="M 227.283541 2.406393 
L 227.296803 2.410361 
L 227.284647 2.435333 
z
" clip-path="url(#p85176487ff)" style="fill: #eeeeee; stroke: #000000; stroke-width: 0.3"/>
    <path d="M 227.16189 -5.970277 
L 227.242334 -5.951205 
L 227.236151 -5.941031 
z
" clip-path="url(#p85176487ff)" style="fill: #eeeeee; stroke: #000000; stroke-width: 0.3"/>
    <path d="M 226.235161 -7.495921 
L 226.469361 -7.369938 
L 226.252835 -7.199124 
z
" clip-path="url(#p85176487ff)" style="fill: #eeeeee; stroke: #000000; stroke-width: 0.3"/>
    <path d="M 213.423662 -0.617816 
L 213.449074 -0.626895 
L 213.470061 -0.54972 
z
" clip-path="url(#p85176487ff)" style="fill: #eeeeee; stroke: #000000; stroke-width: 0.3"/>
    <path d="M 209.378163 10.282161 
L 209.414618 10.357077 
L 209.380369 10.333806 
z
" clip-path="url(#p85176487ff)" style="fill: #eeeeee; stroke: #000000; stroke-width: 0.3"/>
    <path d="M 173.8491 29.137368 
L 173.887211 29.11126 
L 173.906542 29.150987 
z
" clip-path="url(#p85176487ff)" style="fill: #eeeeee; stroke: #000000; stroke-width: 0.3"/>
    <path d="M 166.873868 29.506242 
L 166.923579 29.360393 
L 167.016377 29.474464 
z
" clip-path="url(#p85176487ff)" style="fill: #eeeeee; stroke: #000000; stroke-width: 0.3"/>
    <path d="M 165.757539 26.545025 
L 166.517039 26.623336 
L 166.193353 26.758405 
z
" clip-path="url(#p85176487ff)" style="fill: #eeeeee; stroke: #000000; stroke-width: 0.3"/>
    <path d="M 144.73407 43.447458 
L 145.132879 40.862492 
L 145.936009 41.006068 
L 145.815593 42.435039 
L 146.226552 44.711848 
z
" clip-path="url(#p85176487ff)" style="fill: #eeeeee; stroke: #000000; stroke-width: 0.3"/>
    <path d="M 151.444172 46.308795 
L 152.578725 46.446695 
L 153.21339 45.638012 
L 153.514976 47.841049 
z
" clip-path="url(#p85176487ff)" style="fill: #eeeeee; stroke: #000000; stroke-width: 0.3"/>
    <path d="M 147.571006 46.841113 
L 149.080612 47.778623 
L 147.770957 47.646964 
z
" clip-path="url(#p85176487ff)" style="fill: #eeeeee; stroke: #000000; stroke-width: 0.3"/>
   </g>
   <g id="PatchCollection_2">
    <path d="M 73.096297 56.32092 
L 74.112769 55.845958 
L 75.369157 53.574233 
L 75.473683 51.585392 
L 74.981934 50.557632 
L 75.550144 49.461413 
L 77.759873 48.903572 
L 78.959436 47.668965 
L 77.753561 47.475815 
L 77.096958 46.161927 
L 77.512946 43.600469 
L 77.395795 42.355053 
L 76.824776 42.147489 
L 76.94473 41.120454 
L 78.034859 39.364763 
L 76.960164 37.401508 
L 78.781958 36.605831 
L 79.957677 35.266002 
L 79.001179 32.854452 
L 77.445601 31.686874 
L 77.71287 30.066684 
L 76.572236 28.468838 
L 75.292696 28.651179 
L 74.948961 27 
L 76.555396 27.832434 
L 77.419646 27.701264 
L 78.361056 28.602888 
L 80.367699 28.341991 
L 81.570771 29.275331 
L 82.255439 27.598203 
L 84.32697 29.283978 
L 85.809942 31.542007 
L 86.112987 35.005816 
L 86.750653 36.489074 
L 86.33326 38.928009 
L 87.365167 40.622431 
L 88.186622 40.833608 
L 88.716259 42.215236 
L 86.355007 42.248388 
L 85.995836 44.009845 
L 84.60406 46.265713 
L 85.525135 49.982497 
L 85.870269 54.434059 
L 86.51705 55.59587 
L 88.027382 55.759474 
L 89.527194 57.073354 
L 94.707069 63.671594 
L 95.094299 65.320619 
L 94.279156 67.30766 
L 94.661471 69.018658 
L 94.285468 73.377605 
L 92.448938 74.277794 
L 91.499112 74.065898 
L 89.851986 76.832048 
L 91.062076 79.014402 
L 91.0263 80.783063 
L 90.549978 81 
L 89.40443 80.821982 
L 89.759385 78.894766 
L 88.315 78.248997 
L 85.063542 74.992753 
L 84.914829 73.499411 
L 83.751735 72.314538 
L 86.004959 68.182618 
L 85.574941 63.15051 
L 84.504448 61.837348 
L 82.513593 62.589064 
L 80.271243 62.550871 
L 79.758446 63.332134 
L 77.283552 59.559855 
L 76.333725 58.612826 
L 75.380383 59.487785 
L 74.527359 57.884889 
L 73.773249 57.582186 
L 73.819546 56.673351 
z
" clip-path="url(#p85176487ff)" style="fill: #ff6b6b; stroke: #dd0000; stroke-width: 0.5"/>
    <path d="M 86.620877 45.720843 
L 86.880429 45.19183 
L 87.34342 45.470036 
L 86.845358 46.057423 
z
" clip-path="url(#p85176487ff)" style="fill: #ff6b6b; stroke: #dd0000; stroke-width: 0.5"/>
    <path d="M 85.861852 45.268231 
L 86.427965 45.100304 
L 86.317126 45.694902 
z
" clip-path="url(#p85176487ff)" style="fill: #ff6b6b; stroke: #dd0000; stroke-width: 0.5"/>
   </g>
  </g>
 </g>
 <defs>
  <clipPath id="p85176487ff">
   <rect x="0" y="0" width="168.190596" height="108"/>
  </clipPath>
 </defs>
</svg>
