<?xml version="1.0" encoding="utf-8" standalone="no"?>
<!DOCTYPE svg PUBLIC "-//W3C//DTD SVG 1.1//EN"
  "http://www.w3.org/Graphics/SVG/1.1/DTD/svg11.dtd">
<svg xmlns:xlink="http://www.w3.org/1999/xlink" width="164.740528pt" height="108pt" viewBox="0 0 164.740528 108" xmlns="http://www.w3.org/2000/svg" version="1.1">
 <metadata>
  <rdf:RDF xmlns:dc="http://purl.org/dc/elements/1.1/" xmlns:cc="http://creativecommons.org/ns#" xmlns:rdf="http://www.w3.org/1999/02/22-rdf-syntax-ns#">
   <cc:Work>
    <dc:type rdf:resource="http://purl.org/dc/dcmitype/StillImage"/>
    <dc:date>2025-09-05T15:49:29.237219</dc:date>
    <dc:format>image/svg+xml</dc:format>
    <dc:creator>
     <cc:Agent>
      <dc:title>Matplotlib v3.10.3, https://matplotlib.org/</dc:title>
     </cc:Agent>
    </dc:creator>
   </cc:Work>
  </rdf:RDF>
 </metadata>
 <defs>
  <style type="text/css">*{stroke-linejoin: round; stroke-linecap: butt}</style>
 </defs>
 <g id="figure_1">
  <g id="patch_1">
   <path d="M 0 108 
L 164.740528 108 
L 164.740528 0 
L 0 0 
z
" style="fill: #ffffff"/>
  </g>
  <g id="axes_1">
   <g id="PatchCollection_1">
    <path d="M 28.305113 37.191165 
L 28.690896 34.959891 
L 29.58214 33.458105 
L 30.581206 33.01332 
L 31.31756 30.733654 
L 31.843336 30.325978 
L 31.635803 29.884392 
L 33.468392 26.858626 
L 33.457896 26.317073 
L 32.543804 27.481854 
L 32.773681 26.915445 
L 37.116812 22.853273 
L 37.434543 20.128111 
L 38.704797 17.480543 
L 38.903527 16.357842 
L 42.668577 13.936661 
L 44.290418 9.852649 
L 45.200957 8.789607 
L 48.90744 8.089675 
L 51.303042 7.057175 
L 53.06064 5.194945 
L 55.096194 4.156231 
L 56.449901 2.808033 
L 58.917951 -0.802967 
L 59.098909 -2.013732 
L 57.946982 -3.078017 
L 58.261668 -3.858564 
L 58.117611 -6.368876 
L 60.487994 -9.834457 
L 60.562136 -11.493911 
L 63.602177 -14.512757 
L 67.762487 -16.100835 
L 70.703841 -17.876769 
L 72.908667 -21.547428 
L 74.426574 -25.47448 
L 76.624694 -26.101783 
L 77.246382 -24.618647 
L 78.008296 -23.889242 
L 79.23877 -23.119348 
L 80.879739 -22.730143 
L 82.779697 -23.231921 
L 83.328324 -22.9805 
L 83.693963 -23.33668 
L 85.276191 -22.948183 
L 86.283727 -23.323894 
L 86.735016 -24.015662 
L 87.203069 -22.640474 
L 87.652157 -22.573536 
L 87.110136 -23.142431 
L 87.990713 -22.5398 
L 89.619322 -22.545661 
L 91.723239 -20.938863 
L 91.30059 -20.307466 
L 92.000139 -19.797048 
L 91.556418 -19.329141 
L 92.1388 -18.049548 
L 91.817833 -16.405209 
L 92.356363 -15.759609 
L 92.119668 -14.378653 
L 92.84652 -13.602937 
L 92.599936 -13.050693 
L 93.163402 -12.21612 
L 94.791457 -11.133952 
L 93.908958 -10.534014 
L 93.636789 -9.707221 
L 94.110825 -9.613865 
L 94.049554 -9.367845 
L 88.617189 -9.553432 
L 87.098562 -9.309442 
L 86.859179 -9.1888 
L 87.320518 -8.080197 
L 83.860648 -7.439764 
L 83.802501 -6.311376 
L 83.212988 -6.084134 
L 83.097973 -5.35555 
L 83.561475 -5.382382 
L 84.296768 -4.420569 
L 83.860648 -3.902117 
L 83.918798 -3.353172 
L 80.895044 -2.468762 
L 77.551474 -0.150996 
L 76.039595 1.831304 
L 75.28366 1.831304 
L 75.138288 1.434843 
L 72.98677 1.587327 
L 70.864327 2.16677 
L 69.352452 1.8923 
L 68.509291 2.441245 
L 67.244603 2.472864 
L 63.026238 5.372555 
L 62.964756 9.955479 
L 62.404592 9.95537 
L 62.500825 12.317353 
L 59.92922 12.45795 
L 58.245161 13.497724 
L 57.351375 13.233552 
L 56.44136 13.450819 
L 54.334971 12.756285 
L 51.694141 13.352728 
L 51.921593 14.443693 
L 50.339328 16.753474 
L 48.913356 17.247768 
L 47.373554 22.310215 
L 45.043695 23.882727 
L 43.713173 26.017638 
L 41.299795 27.283363 
L 40.426431 29.861492 
L 39.926706 33.308915 
L 38.222441 35.269175 
L 38.305748 35.750727 
L 37.722716 36.841578 
L 36.806682 37.101579 
L 32.355924 36.841578 
z
" clip-path="url(#p8021666c7b)" style="fill: #eeeeee; stroke: #000000; stroke-width: 0.3"/>
    <path d="M 27.926952 39.623808 
L 28.305113 37.191165 
L 32.355924 36.841578 
L 36.806682 37.101579 
L 37.722716 36.841578 
L 38.305748 35.750727 
L 38.222441 35.269175 
L 39.926706 33.308915 
L 40.426431 29.861492 
L 41.299795 27.283363 
L 43.713173 26.017638 
L 45.043695 23.882727 
L 47.373554 22.310215 
L 48.913356 17.247768 
L 50.339328 16.753474 
L 51.921593 14.443693 
L 51.694141 13.352728 
L 54.334971 12.756285 
L 56.44136 13.450819 
L 57.351375 13.233552 
L 58.245161 13.497724 
L 59.92922 12.45795 
L 62.500825 12.317353 
L 62.404592 9.95537 
L 62.964756 9.955479 
L 62.942828 17.205375 
L 49.099319 17.227699 
L 49.082549 28.284803 
L 46.586076 29.114637 
L 44.939429 30.21789 
L 44.369298 31.081887 
L 44.939429 37.568809 
L 28.533555 37.571292 
L 28.125682 40.040892 
z
" clip-path="url(#p8021666c7b)" style="fill: #eeeeee; stroke: #000000; stroke-width: 0.3"/>
    <path d="M 60.480547 -57.216886 
L 61.19523 -57.592777 
L 60.738185 -57.654745 
L 61.924138 -58.003647 
L 61.693245 -58.21192 
L 62.350714 -58.465829 
L 62.920159 -58.257198 
L 64.427737 -58.74708 
L 64.929138 -58.343668 
L 65.073869 -58.793601 
L 64.534045 -58.945239 
L 65.102308 -59.123861 
L 64.417752 -59.034371 
L 64.502898 -59.451634 
L 66.183983 -60.320954 
L 66.392701 -59.892687 
L 67.11179 -60.43921 
L 67.086738 -60.150322 
L 68.436717 -59.944531 
L 68.836041 -59.42553 
L 69.77942 -59.417898 
L 69.778234 -59.067928 
L 70.196857 -59.446659 
L 73.836134 -59.462818 
L 74.738718 -59.869782 
L 75.465591 -59.42553 
L 76.645449 -59.399784 
L 76.561997 -59.187248 
L 80.440294 -58.650844 
L 83.164972 -59.145701 
L 83.404501 -59.067928 
L 83.229637 -58.833551 
L 84.193838 -59.238385 
L 84.809156 -59.014128 
L 84.686091 -58.776736 
L 86.570311 -58.377229 
L 86.826089 -58.856634 
L 87.566845 -58.951453 
L 87.889655 -58.580711 
L 90.232781 -58.231098 
L 91.621112 -58.66133 
L 91.81547 -58.246725 
L 93.245956 -58.038704 
L 93.022806 -57.173577 
L 93.734606 -57.45331 
L 94.300868 -57.001858 
L 95.924406 -56.743437 
L 96.717475 -55.984748 
L 97.74186 -56.28962 
L 98.922754 -55.60298 
L 99.788484 -55.783265 
L 100.230375 -55.531158 
L 101.816833 -55.615381 
L 101.81511 -56.271808 
L 102.466506 -56.242152 
L 104.670063 -55.705578 
L 105.108197 -54.509873 
L 106.186111 -54.807191 
L 107.443323 -54.127764 
L 108.559077 -54.483603 
L 109.546699 -54.034298 
L 111.289342 -54.665128 
L 112.318012 -54.496075 
L 112.344545 -54.138385 
L 112.886907 -54.022617 
L 112.059484 -53.565937 
L 112.531086 -52.37772 
L 111.286384 -51.358511 
L 108.517201 -50.207249 
L 107.948089 -49.574609 
L 103.317359 -48.475528 
L 102.055908 -47.443202 
L 102.654473 -46.880521 
L 101.901529 -46.352111 
L 101.549435 -46.425975 
L 102.132762 -46.651293 
L 101.428908 -46.460596 
L 97.739522 -41.774839 
L 98.427294 -39.531574 
L 100.060474 -38.397509 
L 96.96373 -36.635068 
L 96.987934 -36.062799 
L 96.490094 -35.867307 
L 95.919967 -34.268931 
L 95.523185 -34.034907 
L 96.150522 -33.498329 
L 93.577794 -33.24723 
L 92.133588 -32.380244 
L 91.543488 -31.698421 
L 91.179039 -30.538257 
L 90.237353 -29.644609 
L 89.259777 -30.082643 
L 88.431509 -30.004162 
L 87.776408 -29.407391 
L 86.881948 -29.71119 
L 80.766828 -29.589919 
L 79.701574 -28.646377 
L 77.507913 -28.225562 
L 76.874661 -27.047023 
L 76.514093 -27.215613 
L 76.459245 -26.705313 
L 75.738975 -26.459394 
L 73.970881 -27.258229 
L 72.834188 -28.761966 
L 73.160892 -28.493853 
L 73.377736 -28.672122 
L 72.481924 -29.210476 
L 72.321109 -29.709239 
L 72.68607 -29.900289 
L 72.716876 -30.287543 
L 73.195085 -30.36869 
L 73.313407 -30.498661 
L 72.689794 -30.364073 
L 72.509684 -29.95782 
L 72.045529 -30.618867 
L 70.409299 -31.521749 
L 70.576545 -32.083187 
L 70.119499 -31.815254 
L 70.261352 -31.546963 
L 68.23968 -31.636274 
L 67.823978 -33.419202 
L 68.829231 -35.058239 
L 69.863937 -35.257017 
L 70.182109 -36.01661 
L 69.533081 -35.916036 
L 68.469353 -37.106331 
L 68.838691 -38.37679 
L 69.730434 -38.890141 
L 70.074832 -39.5831 
L 68.890073 -40.444278 
L 68.659397 -41.518329 
L 67.645329 -42.488647 
L 69.87576 -42.550659 
L 70.464163 -43.925978 
L 69.784395 -44.67734 
L 70.818886 -45.441104 
L 70.558111 -45.815206 
L 70.728378 -47.624831 
L 70.202964 -48.31937 
L 70.777609 -48.530663 
L 71.43373 -49.417321 
L 72.787898 -50.043079 
L 73.267093 -50.738068 
L 71.871003 -51.124797 
L 71.943023 -52.034687 
L 71.588304 -52.448817 
L 69.358946 -52.558633 
L 69.054103 -52.085424 
L 68.121944 -51.766457 
L 66.95997 -52.173592 
L 66.233763 -51.993307 
L 66.194204 -52.237297 
L 65.056522 -51.787202 
L 64.845844 -52.197269 
L 65.408016 -52.791797 
L 64.954839 -52.916724 
L 64.878517 -53.283612 
L 63.195644 -52.835883 
L 62.137424 -52.147606 
L 62.078179 -53.132874 
L 62.365104 -53.182768 
L 63.213008 -54.129509 
L 62.194643 -53.732132 
L 63.077587 -54.539135 
L 62.294174 -54.374891 
L 61.882158 -54.661117 
L 62.365104 -54.628621 
L 62.762735 -55.617267 
L 61.533783 -54.983208 
L 61.518041 -55.701429 
L 62.110678 -56.239962 
L 61.226377 -55.918761 
L 61.083847 -56.617096 
L 60.507459 -56.511447 
z
" clip-path="url(#p8021666c7b)" style="fill: #eeeeee; stroke: #000000; stroke-width: 0.3"/>
    <path d="M 108.864215 -42.037802 
L 110.788215 -43.329892 
L 112.311705 -43.749642 
L 111.96841 -43.508519 
L 112.42546 -43.419029 
L 112.132948 -42.964125 
L 113.538623 -42.793668 
L 113.453307 -42.400911 
L 112.616065 -41.207366 
L 111.818096 -40.696354 
L 111.393886 -41.107224 
L 110.677509 -41.162621 
L 110.240773 -41.960033 
L 109.454652 -41.574202 
z
" clip-path="url(#p8021666c7b)" style="fill: #eeeeee; stroke: #000000; stroke-width: 0.3"/>
    <path d="M 41.394771 4.703998 
L 41.681018 3.904631 
L 42.767943 3.511163 
L 42.993589 3.067444 
L 43.264772 3.202744 
L 42.997483 4.116814 
L 41.780212 4.814438 
z
" clip-path="url(#p8021666c7b)" style="fill: #eeeeee; stroke: #000000; stroke-width: 0.3"/>
    <path d="M 28.711497 6.929141 
L 30.412675 6.627332 
L 31.206176 5.981706 
L 32.032585 5.981706 
L 31.04344 6.8149 
L 30.251964 8.373414 
L 29.640769 8.478779 
z
" clip-path="url(#p8021666c7b)" style="fill: #eeeeee; stroke: #000000; stroke-width: 0.3"/>
    <path d="M 38.733236 8.167444 
L 39.90903 7.524332 
L 40.956512 5.266858 
L 41.573357 5.503011 
L 41.118512 7.412469 
L 39.415079 8.256934 
z
" clip-path="url(#p8021666c7b)" style="fill: #eeeeee; stroke: #000000; stroke-width: 0.3"/>
    <path d="M 114.906378 -43.96502 
L 116.162409 -44.232421 
L 117.127624 -43.306281 
L 116.757588 -43.085043 
L 115.020807 -43.606885 
z
" clip-path="url(#p8021666c7b)" style="fill: #eeeeee; stroke: #000000; stroke-width: 0.3"/>
    <path d="M 104.146139 -39.020737 
L 104.729124 -39.860943 
L 105.765778 -39.920603 
L 105.836871 -39.64965 
L 104.921839 -38.790339 
z
" clip-path="url(#p8021666c7b)" style="fill: #eeeeee; stroke: #000000; stroke-width: 0.3"/>
    <path d="M 33.266275 8.819437 
L 33.74465 7.747699 
L 34.979863 7.69372 
L 35.110712 9.122708 
L 34.278209 9.637271 
z
" clip-path="url(#p8021666c7b)" style="fill: #eeeeee; stroke: #000000; stroke-width: 0.3"/>
    <path d="M 26.934437 8.051956 
L 27.074002 7.574322 
L 27.477336 7.5816 
L 27.952845 8.038411 
L 27.289435 8.370896 
z
" clip-path="url(#p8021666c7b)" style="fill: #eeeeee; stroke: #000000; stroke-width: 0.3"/>
    <path d="M 24.215388 5.074028 
L 24.571792 4.744475 
L 25.218187 4.906415 
L 25.362639 5.289824 
L 24.879971 6.490941 
z
" clip-path="url(#p8021666c7b)" style="fill: #eeeeee; stroke: #000000; stroke-width: 0.3"/>
    <path d="M 95.945868 -34.174112 
L 96.005624 -33.86019 
L 96.062498 -33.697548 
L 95.977523 -33.77869 
z
" clip-path="url(#p8021666c7b)" style="fill: #eeeeee; stroke: #000000; stroke-width: 0.3"/>
    <path d="M 23.534897 9.689653 
L 24.476924 9.123772 
L 24.70443 9.28748 
L 24.2875 10.038017 
z
" clip-path="url(#p8021666c7b)" style="fill: #eeeeee; stroke: #000000; stroke-width: 0.3"/>
    <path d="M 111.205773 -40.185338 
L 111.484369 -40.331944 
L 111.407706 -40.028678 
z
" clip-path="url(#p8021666c7b)" style="fill: #eeeeee; stroke: #000000; stroke-width: 0.3"/>
    <path d="M 107.186638 -54.582257 
L 107.224474 -54.715528 
L 107.402907 -54.550237 
z
" clip-path="url(#p8021666c7b)" style="fill: #eeeeee; stroke: #000000; stroke-width: 0.3"/>
    <path d="M 104.837991 -37.960296 
L 105.039242 -38.452552 
L 105.663534 -38.008301 
z
" clip-path="url(#p8021666c7b)" style="fill: #eeeeee; stroke: #000000; stroke-width: 0.3"/>
    <path d="M 88.969691 -22.847631 
L 88.978094 -22.879363 
L 88.990125 -22.86224 
z
" clip-path="url(#p8021666c7b)" style="fill: #eeeeee; stroke: #000000; stroke-width: 0.3"/>
    <path d="M 86.755022 -23.31652 
L 86.92867 -23.324252 
L 86.966586 -23.275955 
z
" clip-path="url(#p8021666c7b)" style="fill: #eeeeee; stroke: #000000; stroke-width: 0.3"/>
    <path d="M 82.854721 -23.015863 
L 82.860358 -23.018228 
L 82.86092 -23.015715 
z
" clip-path="url(#p8021666c7b)" style="fill: #eeeeee; stroke: #000000; stroke-width: 0.3"/>
    <path d="M 82.849625 -23.004814 
L 82.850473 -23.009693 
L 82.852021 -23.007769 
z
" clip-path="url(#p8021666c7b)" style="fill: #eeeeee; stroke: #000000; stroke-width: 0.3"/>
    <path d="M 81.188263 -22.821004 
L 81.201509 -22.820777 
L 81.209002 -22.819193 
z
" clip-path="url(#p8021666c7b)" style="fill: #eeeeee; stroke: #000000; stroke-width: 0.3"/>
    <path d="M 76.624694 -26.101783 
L 77.106393 -26.045862 
L 76.709802 -25.914944 
z
" clip-path="url(#p8021666c7b)" style="fill: #eeeeee; stroke: #000000; stroke-width: 0.3"/>
    <path d="M 76.53325 -26.057121 
L 76.55351 -26.0539 
L 76.545531 -26.042306 
z
" clip-path="url(#p8021666c7b)" style="fill: #eeeeee; stroke: #000000; stroke-width: 0.3"/>
    <path d="M 42.751185 3.113433 
L 42.888807 2.851359 
L 42.95601 3.055549 
z
" clip-path="url(#p8021666c7b)" style="fill: #eeeeee; stroke: #000000; stroke-width: 0.3"/>
    <path d="M 137.718074 -0.760334 
L 140.150801 -1.798983 
L 141.485837 -3.440162 
L 141.810029 -4.244739 
L 141.128106 -6.485748 
L 141.784232 -7.582347 
L 142.761537 -7.86084 
L 143.206976 -8.774108 
L 143.901366 -8.996227 
L 144.318861 -9.573051 
L 147.119208 -10.871587 
L 146.718054 -11.760387 
L 146.947635 -14.131028 
L 150.455493 -12.610041 
L 152.436029 -12.486462 
L 154.629856 -12.922366 
L 155.543947 -12.479716 
L 158.097655 -12.094413 
L 159.279885 -11.241425 
L 162.24392 -10.702359 
L 163.003296 -9.738927 
L 162.989077 -8.825215 
L 163.527037 -7.514125 
L 164.654757 -6.306554 
L 165.832585 -5.815249 
L 169.565473 -5.412727 
L 173.337633 -4.279727 
L 174.834041 -3.605894 
L 176.684572 -2.092038 
L 178.363797 -1.410747 
L 180.691689 -2.087953 
L 182.703035 -4.329268 
L 182.897704 -5.558858 
L 181.943322 -7.925885 
L 182.585219 -9.746385 
L 184.628386 -11.410814 
L 186.65971 -12.346545 
L 188.173382 -12.438697 
L 189.040414 -13.064238 
L 191.230176 -13.113063 
L 195.209532 -11.768595 
L 195.387611 -11.062803 
L 195.103228 -10.434247 
L 196.06675 -9.686725 
L 196.012244 -9.954842 
L 197.554014 -9.776215 
L 199.305351 -9.001708 
L 201.980602 -9.121207 
L 203.162827 -8.754192 
L 203.738371 -7.506314 
L 202.459925 -6.134194 
L 203.067032 -3.675132 
L 201.791765 -0.878271 
L 203.010279 3.322998 
L 202.991791 43.405057 
L 198.850389 43.407426 
L 198.850389 45.586192 
L 165.585031 28.355835 
L 158.22622 31.970805 
L 155.172842 29.512416 
L 148.876897 28.038897 
L 146.962271 24.563398 
L 143.684236 23.522721 
L 142.393917 23.867507 
L 141.769185 23.416509 
L 141.490567 22.660303 
L 140.819395 22.196 
L 140.719214 20.122879 
L 138.097729 16.468221 
L 138.533712 15.667021 
L 140.081148 14.917238 
L 140.314187 13.526363 
L 139.529076 11.495748 
L 140.41953 9.059683 
L 139.758246 7.31049 
L 139.962909 3.553569 
L 139.303775 1.459926 
z
" clip-path="url(#p8021666c7b)" style="fill: #eeeeee; stroke: #000000; stroke-width: 0.3"/>
    <path d="M 43.750256 91.20673 
L 44.520644 91.196017 
L 45.172788 90.611748 
L 45.177951 90.198972 
L 45.98402 89.870649 
L 47.198021 87.542262 
L 48.011728 87.332771 
L 48.574978 87.570111 
L 49.488433 87.363553 
L 49.53702 87.056761 
L 52.294371 87.052929 
L 53.796016 88.907431 
L 54.023035 89.676606 
L 54.674643 90.050485 
L 54.378399 91.022042 
L 55.011735 91.151704 
L 54.988517 92.193399 
L 55.478674 92.817014 
L 54.424406 94.497768 
L 56.309146 93.636703 
L 56.148124 94.952375 
L 54.936707 95.61241 
L 54.924023 96.759295 
L 52.003502 99.183181 
L 51.342143 100.466736 
L 49.830335 99.464956 
L 47.055553 98.413989 
L 47.626012 98.413989 
L 47.127664 98.173044 
L 47.381071 97.786677 
L 48.398255 97.485003 
L 47.233798 97.66274 
L 46.900155 97.263233 
L 47.282721 96.737306 
L 46.659108 97.131311 
L 45.261387 96.247249 
L 45.746368 96.11177 
L 45.369896 95.617629 
L 45.519195 95.301931 
L 45.119027 94.64372 
L 44.320887 95.003988 
L 43.809842 93.568608 
L 44.863249 94.107674 
L 44.519787 93.68757 
L 45.544925 93.267825 
L 45.289318 93.208165 
L 45.519195 92.76143 
L 44.745604 93.206568 
L 44.891687 92.910401 
L 44.346788 92.823573 
L 44.555673 93.216155 
L 44.327152 93.49261 
L 44.003493 92.147789 
L 45.06232 92.011246 
L 44.460543 91.980884 
L 44.69042 91.653465 
L 43.892279 91.596824 
z
" clip-path="url(#p8021666c7b)" style="fill: #eeeeee; stroke: #000000; stroke-width: 0.3"/>
    <path d="M 45.204002 97.604144 
L 46.577852 97.323604 
L 47.112089 97.636462 
L 46.876288 98.414874 
L 46.643869 98.026382 
z
" clip-path="url(#p8021666c7b)" style="fill: #eeeeee; stroke: #000000; stroke-width: 0.3"/>
    <path d="M 36.35202 83.276987 
L 37.8846 80.489224 
L 38.675514 80.422364 
L 39.637555 79.741807 
L 40.779752 79.880266 
L 41.383314 79.415286 
L 41.966237 79.562988 
L 41.991173 78.284634 
L 40.957007 77.635425 
L 41.508326 77.087462 
L 42.111455 77.01846 
L 41.973114 75.358338 
L 44.684783 75.521827 
L 44.786577 76.23598 
L 45.36423 75.956361 
L 47.661523 76.963211 
L 48.73041 76.519208 
L 51.319429 76.428104 
L 51.706397 76.619101 
L 51.21065 77.460665 
L 51.930837 78.182485 
L 52.527838 78.233898 
L 53.105495 77.413083 
L 53.522345 77.339119 
L 54.523942 78.775097 
L 55.354843 77.781547 
L 56.37278 77.346337 
L 58.635673 78.185867 
L 59.030167 77.554244 
L 60.242229 77.11926 
L 60.357245 76.735685 
L 59.927069 76.309717 
L 60.5374 76.13586 
L 61.743662 76.687877 
L 61.667236 77.315669 
L 62.484488 78.62356 
L 62.278964 79.789388 
L 62.78116 79.82637 
L 63.071384 80.494186 
L 64.242173 81.056125 
L 62.888438 82.754473 
L 63.475767 82.784351 
L 63.699562 82.430091 
L 64.444901 82.556372 
L 64.620326 84.793205 
L 65.923329 85.794422 
L 65.080388 87.27775 
L 65.147891 89.071256 
L 65.578715 89.689911 
L 66.363609 89.599033 
L 66.096603 90.585366 
L 66.856994 91.054176 
L 66.087143 91.402798 
L 65.932789 92.204447 
L 67.064881 93.024812 
L 67.207844 94.115659 
L 66.536455 93.666241 
L 66.362748 93.914856 
L 65.926125 93.582921 
L 64.768232 93.772225 
L 64.697073 94.678053 
L 65.789826 94.948317 
L 65.959015 95.685244 
L 65.516155 95.623686 
L 64.970531 97.600178 
L 64.077927 97.440529 
L 63.78405 97.680234 
L 63.443089 97.111975 
L 62.947341 97.085139 
L 62.234892 98.92363 
L 61.121721 99.285107 
L 60.66854 98.451211 
L 59.602016 98.474212 
L 60.164622 96.877681 
L 59.437986 94.942002 
L 59.566975 94.252652 
L 58.825933 94.042939 
L 58.93708 93.723182 
L 58.63933 93.850475 
L 58.425207 93.294622 
L 57.226687 93.909218 
L 56.867666 93.463631 
L 55.924329 93.59239 
L 55.177055 94.390657 
L 54.424406 94.497768 
L 55.478674 92.817014 
L 54.988517 92.193399 
L 55.011735 91.151704 
L 54.378399 91.022042 
L 54.674643 90.050485 
L 54.023035 89.676606 
L 52.492797 87.101973 
L 49.53702 87.056761 
L 49.488433 87.363553 
L 48.574978 87.570111 
L 48.011728 87.332771 
L 47.198021 87.542262 
L 45.98402 89.870649 
L 45.177951 90.198972 
L 45.172788 90.611748 
L 44.520644 91.196017 
L 43.750256 91.20673 
L 44.346788 90.578353 
L 43.923256 90.530942 
L 44.034303 90.22093 
L 43.691178 90.593268 
L 43.750256 89.830656 
L 43.306411 90.135345 
L 43.352792 89.470567 
L 42.864599 89.425821 
L 42.978184 88.904512 
L 42.725284 89.205116 
L 42.554823 88.904512 
L 41.981655 89.157709 
L 42.668577 87.948184 
L 42.293799 87.709901 
L 41.97048 88.140835 
L 42.151946 87.257659 
L 41.496507 87.6316 
L 40.600017 86.913733 
L 40.843098 86.152718 
L 40.205432 86.781274 
L 40.269589 86.242208 
L 39.917496 86.5611 
L 39.828115 86.228537 
L 38.960064 86.08773 
L 38.616939 84.806474 
L 38.106232 84.931472 
L 38.76167 83.135653 
L 37.931372 84.217689 
L 38.132977 83.489703 
L 37.679655 83.972303 
L 37.762263 83.219457 
L 37.478387 83.430754 
L 37.432513 83.044387 
L 38.077456 82.504256 
L 37.99231 82.382628 
L 37.333656 82.802373 
L 37.021341 82.534086 
L 36.850709 83.671699 
z
" clip-path="url(#p8021666c7b)" style="fill: #eeeeee; stroke: #000000; stroke-width: 0.3"/>
    <path d="M 51.342143 100.466736 
L 52.003502 99.183181 
L 54.924023 96.759295 
L 54.936707 95.61241 
L 56.148124 94.952375 
L 56.309146 93.636703 
L 57.104362 93.52553 
L 57.226687 93.909218 
L 58.425207 93.294622 
L 58.63933 93.850475 
L 58.93708 93.723182 
L 58.825933 94.042939 
L 59.566975 94.252652 
L 59.437986 94.942002 
L 60.164622 96.877681 
L 59.602016 98.474212 
L 60.66854 98.451211 
L 61.121721 99.285107 
L 62.008734 99.023527 
L 62.947341 97.085139 
L 63.443089 97.111975 
L 64.032997 97.9249 
L 64.621616 100.037146 
L 64.399539 101.087066 
L 63.229611 102.328211 
L 64.063524 102.509853 
L 64.090399 102.99501 
L 66.159808 103.293009 
L 66.691242 104.661332 
L 67.90696 105.324527 
L 68.106035 105.151006 
L 68.342298 107.458534 
L 67.568366 108.52796 
L 67.677578 109.218214 
L 67.444752 109.290035 
L 67.71447 111.666414 
L 64.733112 110.675259 
L 61.206742 108.704719 
L 56.095602 103.885084 
L 54.203769 103.20042 
L 54.324122 102.714976 
L 51.85387 101.419159 
z
" clip-path="url(#p8021666c7b)" style="fill: #eeeeee; stroke: #000000; stroke-width: 0.3"/>
    <path d="M 158.937809 104.30843 
L 160.539418 103.089723 
L 162.418359 99.03503 
L 163.287313 98.414456 
L 163.488103 97.831766 
L 165.336084 97.984879 
L 167.189653 97.180528 
L 167.278655 96.695703 
L 167.929621 96.318669 
L 168.202215 97.149634 
L 168.901764 97.753744 
L 172.469166 95.816712 
L 176.418801 95.542504 
L 178.643862 92.805625 
L 177.585722 92.044907 
L 178.218629 91.452295 
L 184.097939 90.785043 
L 184.54166 89.984297 
L 185.066212 90.069877 
L 185.724489 89.563404 
L 187.51657 87.129935 
L 188.005008 87.141438 
L 188.582877 86.149131 
L 189.438074 85.7297 
L 189.453982 84.245695 
L 192.468022 82.667994 
L 194.190022 83.01323 
L 195.979529 85.105294 
L 197.450431 87.621637 
L 197.397975 90.176538 
L 196.740993 90.642979 
L 196.580615 91.305157 
L 197.128818 91.497621 
L 196.869978 92.65003 
L 199.833714 92.733917 
L 199.970441 93.222124 
L 199.498773 93.83638 
L 199.564129 94.364275 
L 202.256985 94.964776 
L 203.334471 96.204795 
L 203.990592 96.344603 
L 204.250721 97.237352 
L 203.775612 97.584621 
L 203.880523 97.928055 
L 204.586091 98.650779 
L 207.356988 100.129599 
L 207.627863 100.855478 
L 208.821009 101.628039 
L 208.372558 102.446824 
L 209.365771 103.582211 
L 209.015783 104.162644 
L 210.478086 104.557831 
L 210.655229 104.938587 
L 211.923619 105.487898 
L 212.494611 106.322022 
L 212.508801 107.707259 
L 213.244464 108.533825 
L 211.715087 107.955194 
L 210.855594 108.678594 
L 210.324589 108.430546 
L 209.339113 108.635298 
L 208.073302 107.802195 
L 206.877577 108.10019 
L 205.350351 107.204848 
L 204.601139 107.487282 
L 204.3681 108.701595 
L 201.967618 109.202426 
L 200.577119 108.308777 
L 200.586579 108.685248 
L 200.00656 109.148421 
L 197.21438 110.003399 
L 196.492474 110.627918 
L 194.345237 109.61227 
L 193.476283 111.06065 
L 193.07255 111.139012 
L 192.731588 112.371473 
L 191.869515 112.644438 
L 189.515036 111.925891 
L 187.325237 111.93378 
L 185.913238 111.227743 
L 184.701605 111.395177 
L 183.697642 109.837771 
L 181.558147 108.41927 
L 179.828837 108.273484 
L 178.474024 109.238055 
L 177.101152 111.457979 
L 176.221881 111.775479 
L 176.657003 113.005462 
L 176.573159 115.488881 
L 175.931224 114.81171 
L 175.001216 115.061111 
L 174.722599 115.486625 
L 174.308548 115.111057 
L 173.310604 115.212757 
L 173.106799 114.875188 
L 171.7163 114.479098 
L 169.845534 115.221554 
L 168.307125 115.263157 
L 167.583497 116.88686 
L 167.640254 118.28405 
L 166.394653 120.855637 
L 165.877406 117.832602 
L 165.28922 117.142349 
L 164.755203 117.098603 
L 161.840058 113.704285 
L 161.59498 113.092281 
L 162.276469 112.930712 
L 161.866283 112.674656 
L 161.461689 111.402617 
L 160.310681 110.491828 
L 160.067749 108.12443 
L 159.489452 107.574438 
L 159.895336 106.681125 
L 159.895336 105.068022 
z
" clip-path="url(#p8021666c7b)" style="fill: #eeeeee; stroke: #000000; stroke-width: 0.3"/>
    <path d="M 63.229611 102.328211 
L 64.340207 101.182678 
L 64.611083 100.142228 
L 63.78405 97.680234 
L 64.077927 97.440529 
L 64.851002 97.73999 
L 65.516155 95.623686 
L 65.959015 95.685244 
L 65.789826 94.948317 
L 64.697073 94.678053 
L 64.74523 93.803007 
L 65.926125 93.582921 
L 67.207844 94.115659 
L 67.064881 93.024812 
L 65.932789 92.204447 
L 66.087143 91.402798 
L 66.856994 91.054176 
L 66.096603 90.585366 
L 66.363609 89.599033 
L 65.578715 89.689911 
L 65.147891 89.071256 
L 65.080388 87.27775 
L 65.846578 86.317237 
L 66.514955 86.100533 
L 67.199673 85.11657 
L 67.877511 85.022764 
L 68.451939 85.92363 
L 69.898117 86.409354 
L 70.124924 85.519196 
L 71.341075 85.448732 
L 71.339998 84.169589 
L 72.268504 84.614272 
L 72.347401 84.030231 
L 73.05899 83.854004 
L 73.273324 84.276699 
L 73.036845 84.780803 
L 73.372648 85.19042 
L 73.125419 85.92476 
L 74.057578 86.195582 
L 74.631149 85.383111 
L 75.812684 85.043282 
L 76.609406 85.712564 
L 77.719569 85.696326 
L 77.992383 86.543415 
L 78.436532 86.848173 
L 78.425138 87.456006 
L 79.122432 87.711271 
L 79.130814 88.095409 
L 79.610762 88.411444 
L 80.322671 88.136563 
L 80.356963 88.529494 
L 80.900007 88.843953 
L 81.819049 87.817029 
L 83.463229 87.30391 
L 85.284765 87.454653 
L 85.349043 87.717359 
L 85.710859 87.392305 
L 87.39298 89.593849 
L 87.897218 89.25515 
L 88.013952 90.279813 
L 87.540993 91.147873 
L 88.187442 91.721088 
L 88.658038 94.838274 
L 88.223989 95.032086 
L 88.224422 95.576894 
L 87.475317 95.998913 
L 86.847572 97.596574 
L 86.717401 99.177094 
L 85.668505 100.772271 
L 85.512216 101.785776 
L 86.48049 105.769324 
L 86.750724 105.745193 
L 86.829513 106.188075 
L 87.496276 106.245915 
L 87.575177 108.139764 
L 86.025407 108.221408 
L 85.751179 107.888308 
L 85.996632 107.232942 
L 85.514026 107.354924 
L 85.305644 108.319067 
L 83.60306 107.801663 
L 83.161756 107.980285 
L 82.436065 107.679502 
L 83.572084 107.679502 
L 83.626927 107.610608 
L 83.447154 107.244483 
L 83.255705 107.201868 
L 83.509282 107.646831 
L 82.833866 107.322253 
L 82.48956 107.668139 
L 81.922142 107.500879 
L 81.441395 107.603504 
L 81.301914 107.479214 
L 80.556587 107.712347 
L 80.099371 107.533371 
L 79.585447 107.831488 
L 79.642495 107.47389 
L 79.080327 108.05486 
L 81.679401 107.619842 
L 82.461795 107.831488 
L 78.7306 108.281068 
L 78.243423 107.899671 
L 76.946423 107.837881 
L 76.62412 108.222826 
L 77.506391 108.125704 
L 77.333728 107.950455 
L 78.273892 108.281068 
L 74.742442 108.711644 
L 70.366641 110.317303 
L 68.063465 111.70474 
L 67.576749 111.568022 
L 67.568366 108.52796 
L 68.342298 107.458534 
L 68.106035 105.151006 
L 67.90696 105.324527 
L 66.691242 104.661332 
L 66.159808 103.293009 
L 64.090399 102.99501 
L 64.063524 102.509853 
z
" clip-path="url(#p8021666c7b)" style="fill: #eeeeee; stroke: #000000; stroke-width: 0.3"/>
    <path d="M 85.454607 108.327057 
L 85.630319 108.129077 
L 86.106663 108.44389 
z
" clip-path="url(#p8021666c7b)" style="fill: #eeeeee; stroke: #000000; stroke-width: 0.3"/>
    <path d="M 48.064183 66.187869 
L 48.870149 66.364772 
L 49.910226 65.642276 
L 49.805099 64.424355 
L 50.298484 62.844288 
L 50.765206 62.844288 
L 51.141641 62.397911 
L 53.676054 64.756739 
L 54.465683 63.316031 
L 57.201963 63.61414 
L 59.879989 63.283443 
L 59.764328 62.63852 
L 60.160536 62.160576 
L 60.190635 63.042953 
L 76.158375 63.049267 
L 76.814284 59.480748 
L 75.690792 58.538842 
L 71.656452 21.594709 
L 79.02612 21.590646 
L 103.854425 38.579945 
L 103.88796 40.163625 
L 105.573417 40.780136 
L 106.481926 42.05962 
L 107.701301 42.456836 
L 108.240473 42.19221 
L 109.070733 43.140658 
L 112.392196 44.170623 
L 112.65017 46.056582 
L 111.998347 47.159721 
L 112.750355 47.769696 
L 116.676344 47.130406 
L 116.490598 59.026595 
L 115.977224 59.540281 
L 115.18953 62.086612 
L 113.755608 63.0416 
L 113.674772 63.661158 
L 111.704682 63.344893 
L 111.565808 63.725985 
L 104.62406 63.968173 
L 103.135527 65.24393 
L 101.872296 65.468755 
L 100.005182 65.223525 
L 99.993575 65.594245 
L 98.100019 64.919439 
L 97.313615 65.194433 
L 97.13819 64.857086 
L 96.090587 64.863401 
L 94.597757 66.0944 
L 92.025291 67.404547 
L 90.776678 67.515493 
L 90.615011 68.778622 
L 90.132596 68.888102 
L 88.84378 68.343639 
L 88.27924 68.599354 
L 87.156392 69.56708 
L 87.040087 71.089537 
L 86.323448 71.285383 
L 85.41053 70.888276 
L 85.569938 72.655513 
L 84.738284 72.773332 
L 84.734411 73.196481 
L 82.562242 72.245442 
L 82.785392 71.96481 
L 82.522147 71.755773 
L 80.983634 73.416794 
L 81.562684 74.722093 
L 81.37232 75.15088 
L 80.425434 75.178166 
L 80.833145 75.966733 
L 80.565278 76.397213 
L 80.754568 76.955095 
L 80.413287 76.897368 
L 80.112529 77.644445 
L 79.27711 78.267948 
L 77.912408 78.387237 
L 76.568561 79.045016 
L 77.089461 79.348762 
L 77.375816 80.818114 
L 76.900707 82.129954 
L 76.186323 82.343276 
L 76.489232 83.338175 
L 76.280272 84.688123 
L 76.110006 85.16742 
L 74.631149 85.383111 
L 74.057578 86.195582 
L 73.125419 85.92476 
L 73.372648 85.19042 
L 73.036845 84.780803 
L 73.273324 84.276699 
L 73.05899 83.854004 
L 72.347401 84.030231 
L 72.268504 84.614272 
L 71.339998 84.169589 
L 71.341075 85.448732 
L 70.124924 85.519196 
L 69.898117 86.409354 
L 68.451939 85.92363 
L 67.877511 85.022764 
L 67.199673 85.11657 
L 66.514955 86.100533 
L 65.846578 86.317237 
L 65.819063 85.591694 
L 64.851431 85.176439 
L 64.574107 84.678876 
L 64.444901 82.556372 
L 63.699562 82.430091 
L 63.475767 82.784351 
L 62.907142 82.823022 
L 64.242173 81.056125 
L 63.071384 80.494186 
L 62.78116 79.82637 
L 62.278964 79.789388 
L 62.393119 78.241565 
L 61.967457 78.098825 
L 61.743662 76.687877 
L 61.030568 76.265522 
L 59.98705 76.231695 
L 60.357245 76.735685 
L 60.242229 77.11926 
L 59.030167 77.554244 
L 58.635673 78.185867 
L 56.37278 77.346337 
L 55.354843 77.781547 
L 54.523942 78.775097 
L 53.522345 77.339119 
L 53.105495 77.413083 
L 52.527838 78.233898 
L 51.930837 78.182485 
L 51.21065 77.460665 
L 51.706397 76.619101 
L 51.751543 76.201254 
L 51.377043 75.925016 
L 51.705536 74.061609 
L 51.105523 73.445206 
L 50.772516 72.358644 
L 50.239576 72.153552 
L 49.877981 72.592257 
L 48.756851 70.859301 
L 49.31731 70.313594 
L 49.173057 68.844356 
L 48.240574 67.862195 
L 48.476516 66.768529 
z
" clip-path="url(#p8021666c7b)" style="fill: #eeeeee; stroke: #000000; stroke-width: 0.3"/>
    <path d="M 26.132278 66.264439 
L 27.642735 65.638549 
L 28.868804 64.188608 
L 30.299702 61.783053 
L 30.583831 60.082602 
L 31.294775 58.613932 
L 31.972184 58.421354 
L 33.886161 58.741565 
L 34.75232 58.30477 
L 36.162168 58.299359 
L 36.235049 57.938563 
L 36.789484 57.825138 
L 39.151056 57.958631 
L 40.934863 59.367323 
L 41.525953 60.315993 
L 41.968384 60.015179 
L 42.219914 60.380715 
L 42.985464 60.165813 
L 43.688557 61.145605 
L 44.013394 62.485294 
L 44.546441 62.603231 
L 44.654052 63.055581 
L 45.151293 62.983982 
L 45.7182 63.967047 
L 45.467314 64.111026 
L 47.145782 65.130392 
L 48.476516 66.768529 
L 48.240574 67.862195 
L 49.173057 68.844356 
L 49.31731 70.313594 
L 48.756851 70.859301 
L 49.877981 72.592257 
L 50.239576 72.153552 
L 50.772516 72.358644 
L 51.105523 73.445206 
L 51.686404 74.016846 
L 51.377043 75.925016 
L 51.707254 76.534315 
L 48.73041 76.519208 
L 47.661523 76.963211 
L 45.36423 75.956361 
L 44.786577 76.23598 
L 44.621361 75.511904 
L 35.87087 75.331955 
L 33.865951 76.379846 
L 31.597255 76.31107 
L 29.492027 76.845724 
L 29.191107 76.139155 
L 30.110619 75.535454 
L 30.303762 75.829849 
L 30.979178 75.895723 
L 32.398561 75.534747 
L 33.188069 75.865893 
L 33.647315 75.715678 
L 34.000258 75.952363 
L 34.561582 75.522315 
L 34.457308 74.879914 
L 34.990189 74.807115 
L 35.053498 74.639144 
L 34.396703 74.830552 
L 34.425819 75.463013 
L 34.015833 75.855416 
L 33.488872 75.567772 
L 32.883034 75.673242 
L 32.430386 75.115709 
L 32.20288 75.508469 
L 30.979178 75.833397 
L 30.436816 75.207682 
L 30.408377 75.567772 
L 29.882094 75.375831 
L 30.064916 74.971533 
L 30.039185 74.817588 
L 29.829959 75.537942 
L 29.383068 75.79984 
L 29.289628 75.338012 
L 29.614639 75.083392 
L 29.210069 75.175369 
L 29.181967 74.744614 
L 29.575354 73.24936 
L 33.21585 73.248684 
L 33.276688 72.477707 
L 35.529909 72.273627 
L 36.109929 71.358666 
L 39.308313 72.904574 
L 41.256367 72.560464 
L 41.596895 72.059519 
L 40.890578 71.405912 
L 39.321963 71.948346 
L 38.585438 71.136778 
L 37.760341 71.247497 
L 37.184835 70.526916 
L 36.365112 70.359482 
L 35.043189 70.56649 
L 34.526807 71.388658 
L 30.186929 71.372015 
L 30.405328 70.703038 
L 30.031061 71.078392 
L 29.902579 70.614613 
L 30.207106 70.242981 
L 30.496231 70.421961 
L 30.496231 69.557964 
L 29.610067 70.577325 
L 29.415568 69.781689 
L 30.124502 69.617624 
L 30.064916 69.379163 
L 31.005079 68.837257 
L 30.572408 68.723618 
L 29.801013 69.557432 
L 29.52272 69.498304 
L 29.808967 69.135199 
L 29.494282 69.28719 
L 29.298093 70.272811 
L 29.252556 69.308851 
L 28.543119 67.867078 
L 27.429956 66.5567 
L 26.625892 66.350377 
L 26.532617 66.71668 
z
" clip-path="url(#p8021666c7b)" style="fill: #eeeeee; stroke: #000000; stroke-width: 0.3"/>
    <path d="M 110.196805 96.196901 
L 110.60484 91.138853 
L 111.881401 90.972545 
L 112.11659 89.392365 
L 112.944696 88.542572 
L 112.92105 87.889305 
L 113.699712 87.693459 
L 114.017455 87.247422 
L 114.342076 86.384551 
L 113.946508 85.777395 
L 114.278009 85.122434 
L 114.778916 85.245328 
L 115.048934 84.406361 
L 114.602201 83.499517 
L 114.569095 82.170204 
L 113.513966 80.829952 
L 114.339925 79.345381 
L 114.077649 78.7088 
L 114.234153 76.036412 
L 115.430311 75.022344 
L 116.094603 73.949536 
L 116.248532 71.869198 
L 117.833372 70.901808 
L 119.290088 70.555215 
L 120.832361 70.698181 
L 122.056038 70.091815 
L 124.637964 71.136778 
L 125.580441 71.200256 
L 127.944163 73.953145 
L 128.491505 73.950213 
L 129.030248 73.420852 
L 129.836425 73.442051 
L 131.633669 72.426403 
L 132.803169 72.625521 
L 135.192044 74.266587 
L 138.981735 74.799779 
L 141.184435 72.841772 
L 143.494192 72.296292 
L 146.676777 72.342856 
L 149.246235 73.423558 
L 150.972965 73.653117 
L 151.340584 72.873792 
L 152.356154 72.305538 
L 152.510512 71.798729 
L 154.115562 71.541661 
L 154.539077 70.837426 
L 155.693097 70.860654 
L 157.596753 73.592798 
L 158.112711 76.680437 
L 159.353153 76.822727 
L 160.113756 77.566196 
L 159.581033 79.562988 
L 159.911673 79.912286 
L 159.84675 80.414357 
L 158.01511 81.620439 
L 157.253217 81.454921 
L 156.306868 82.587489 
L 155.408031 84.312442 
L 154.975917 86.354673 
L 154.124161 86.826302 
L 153.979696 89.021759 
L 152.565118 89.737828 
L 152.743979 90.242608 
L 152.222006 92.439191 
L 151.327684 93.108473 
L 150.540851 93.091445 
L 150.68661 93.584723 
L 149.950942 94.065713 
L 149.805616 95.923147 
L 149.085429 96.978255 
L 149.094028 97.600632 
L 147.910771 98.96625 
L 148.474882 99.768802 
L 147.183274 100.655914 
L 147.065463 101.663781 
L 146.384834 102.490007 
L 145.318523 102.584943 
L 144.999062 101.247283 
L 143.093466 99.544205 
L 142.749497 100.662001 
L 141.563228 100.642382 
L 141.280746 100.081568 
L 140.164563 101.041514 
L 139.806404 101.010737 
L 139.409119 102.160327 
L 137.944665 103.108661 
L 136.453982 104.933625 
L 135.926417 105.144242 
L 135.774214 105.772819 
L 136.126354 106.245688 
L 135.68951 108.145851 
L 134.569894 110.112757 
L 133.121561 108.879794 
L 133.836586 110.374655 
L 133.566422 110.812335 
L 130.528923 110.913721 
L 130.472045 110.103523 
L 130.293966 110.707044 
L 129.374791 110.582928 
L 129.592146 110.896144 
L 129.374791 111.003032 
L 128.504372 109.897911 
L 128.973607 110.941242 
L 128.388587 111.300974 
L 128.388587 110.401819 
L 128.050372 110.016874 
L 128.161077 110.553456 
L 127.792056 110.222843 
L 128.304286 111.468766 
L 128.07881 111.571574 
L 127.659343 111.461308 
L 127.312666 109.640808 
L 127.022525 109.564811 
L 127.668146 111.631766 
L 127.022525 111.658398 
L 127.107841 110.553456 
L 126.937209 111.360634 
L 126.766576 110.973202 
L 126.906399 111.737411 
L 126.594255 111.736704 
L 126.52451 111.102467 
L 126.335598 111.003032 
L 126.415161 111.744694 
L 125.170974 111.929176 
L 125.428953 111.300974 
L 125.139827 111.479597 
L 125.028785 111.032862 
L 124.971907 111.896859 
L 124.514861 112.018488 
L 124.414648 111.412126 
L 124.302586 111.917813 
L 123.998226 111.390464 
L 123.885149 111.75055 
L 123.587561 111.596608 
L 121.863311 109.507992 
L 121.49124 108.294561 
L 121.948286 108.221408 
L 121.406265 108.129077 
L 121.300635 107.341606 
L 122.289547 107.17559 
L 122.106729 106.763655 
L 122.439865 106.639012 
L 122.547526 106.485245 
L 121.647653 106.937661 
L 121.690311 107.116288 
L 120.709183 106.65428 
L 120.812442 106.306265 
L 122.0055 106.265072 
L 121.746848 105.97885 
L 121.241727 106.20062 
L 121.289802 105.680729 
L 121.051459 106.147885 
L 120.422766 106.101543 
L 120.312734 105.381189 
L 121.093439 104.871063 
L 120.071346 105.493405 
L 118.836303 103.872835 
L 117.412349 102.912776 
L 113.410649 102.688165 
L 113.166552 102.53902 
L 115.076333 101.813337 
L 113.708914 102.178751 
L 113.567062 101.850978 
L 113.239001 102.069376 
L 113.10358 102.515046 
L 113.164859 102.743387 
L 110.333087 102.871413 
L 110.701152 98.030881 
z
" clip-path="url(#p8021666c7b)" style="fill: #eeeeee; stroke: #000000; stroke-width: 0.3"/>
    <path d="M 128.779953 111.473562 
L 129.160489 110.881229 
L 129.346356 111.059672 
L 129.589096 111.059672 
L 129.446903 111.396325 
z
" clip-path="url(#p8021666c7b)" style="fill: #eeeeee; stroke: #000000; stroke-width: 0.3"/>
    <path d="M 129.60738 111.198171 
L 130.637257 111.091457 
L 130.002132 111.308785 
z
" clip-path="url(#p8021666c7b)" style="fill: #eeeeee; stroke: #000000; stroke-width: 0.3"/>
    <path d="M 102.28291 85.422236 
L 102.334937 83.999899 
L 102.834982 82.692121 
L 103.0921 82.773303 
L 103.167344 82.310802 
L 103.719845 82.539685 
L 103.504004 82.040543 
L 103.903868 81.93636 
L 103.808847 81.52539 
L 104.61933 81.400013 
L 105.073801 80.593066 
L 105.747552 80.964349 
L 107.335833 80.853856 
L 108.543169 79.815094 
L 108.989469 78.524117 
L 109.305062 78.38814 
L 108.907776 77.341598 
L 109.464578 77.060853 
L 110.917421 76.554611 
L 114.04626 79.624324 
L 113.513966 80.829952 
L 114.569095 82.170204 
L 114.602201 83.499517 
L 115.048934 84.406361 
L 114.778916 85.245328 
L 114.278009 85.122434 
L 113.946508 85.777395 
L 114.342076 86.384551 
L 114.017455 87.247422 
L 113.699712 87.693459 
L 112.92105 87.889305 
L 112.944696 88.542572 
L 112.11659 89.392365 
L 111.881401 90.972545 
L 110.60484 91.138853 
L 110.196805 96.196901 
L 110.701152 98.030881 
L 110.333087 102.871413 
L 105.822656 103.545416 
L 106.499557 103.268878 
L 105.599643 101.519575 
L 105.457757 100.150344 
L 105.847733 100.12915 
L 105.74583 91.171663 
L 104.60256 89.110154 
L 104.621909 87.039511 
z
" clip-path="url(#p8021666c7b)" style="fill: #eeeeee; stroke: #000000; stroke-width: 0.3"/>
    <path d="M 155.036543 67.653612 
L 155.903346 67.174992 
L 156.635789 65.120246 
L 158.861707 61.934625 
L 163.423612 56.938026 
L 164.548823 43.80836 
L 165.523548 41.919808 
L 163.859162 40.106347 
L 163.75124 39.502464 
L 164.021687 39.239081 
L 162.254541 36.880362 
L 162.202514 34.688968 
L 161.403288 30.315366 
L 165.585031 28.355835 
L 198.850389 45.586192 
L 198.863286 62.058876 
L 195.16174 62.132614 
L 194.380066 62.843272 
L 194.593327 64.325928 
L 193.349016 65.827972 
L 193.422538 66.562988 
L 192.12018 67.197652 
L 192.392778 68.414784 
L 192.880788 68.95981 
L 191.501035 69.758754 
L 190.919725 70.528042 
L 191.721177 72.473195 
L 190.458378 73.503949 
L 189.815153 74.833489 
L 190.341428 75.506039 
L 191.048286 75.458684 
L 191.46019 75.053012 
L 192.462003 75.63029 
L 192.158878 76.275894 
L 192.621519 77.577921 
L 192.513597 78.163992 
L 193.155532 77.979086 
L 192.861439 79.898305 
L 193.818967 80.901097 
L 194.413605 80.931992 
L 194.444989 82.280474 
L 194.190022 83.01323 
L 192.468022 82.667994 
L 189.453982 84.245695 
L 189.438074 85.7297 
L 188.582877 86.149131 
L 188.005008 87.141438 
L 187.51657 87.129935 
L 185.724489 89.563404 
L 185.066212 90.069877 
L 184.54166 89.984297 
L 184.097939 90.785043 
L 178.218629 91.452295 
L 177.585722 92.044907 
L 178.643862 92.805625 
L 176.418801 95.542504 
L 172.469166 95.816712 
L 168.998075 97.742695 
L 168.202215 97.149634 
L 167.929621 96.318669 
L 167.278655 96.695703 
L 167.189653 97.180528 
L 165.336084 97.984879 
L 163.488103 97.831766 
L 163.828635 96.657146 
L 163.32042 96.452167 
L 162.251101 93.660603 
L 158.780871 90.653129 
L 157.108748 88.604811 
L 158.082612 87.119336 
L 160.540712 87.365582 
L 164.320943 87.062172 
L 162.034831 84.664673 
L 161.575202 81.863862 
L 162.051168 80.344115 
L 161.763524 79.690394 
L 161.948409 79.244135 
L 161.692581 77.927673 
L 161.062685 77.630014 
L 160.782778 75.598946 
L 159.634778 74.9503 
L 159.06637 73.579039 
L 157.596753 73.592798 
L 155.693097 70.860654 
z
" clip-path="url(#p8021666c7b)" style="fill: #eeeeee; stroke: #000000; stroke-width: 0.3"/>
    <path d="M 62.964756 11.596318 
L 62.979803 5.454863 
L 67.386705 2.415137 
L 68.509291 2.441245 
L 69.352452 1.8923 
L 70.864327 2.16677 
L 72.405277 1.648323 
L 75.138288 1.434843 
L 75.28366 1.831304 
L 76.039595 1.831304 
L 77.551474 -0.150996 
L 80.895044 -2.468762 
L 83.918798 -3.353172 
L 83.860648 -3.902117 
L 84.296768 -4.420569 
L 83.561475 -5.382382 
L 83.097973 -5.35555 
L 83.212988 -6.084134 
L 83.802501 -6.311376 
L 83.860648 -7.439764 
L 87.320518 -8.080197 
L 86.859179 -9.1888 
L 87.098562 -9.309442 
L 88.617189 -9.553432 
L 94.049554 -9.367845 
L 94.110825 -9.613865 
L 93.636789 -9.707221 
L 93.908958 -10.534014 
L 94.791457 -11.133952 
L 93.163402 -12.21612 
L 92.599936 -13.050693 
L 92.84652 -13.602937 
L 92.119668 -14.378653 
L 92.356363 -15.759609 
L 91.817833 -16.405209 
L 92.1388 -18.049548 
L 91.556418 -19.329141 
L 92.000139 -19.797048 
L 91.30059 -20.307466 
L 91.723239 -20.938863 
L 89.958245 -22.083269 
L 89.838536 -22.457235 
L 91.758135 -22.633196 
L 93.698043 -23.658413 
L 94.787509 -25.046208 
L 95.749676 -25.44465 
L 96.478583 -25.222347 
L 97.090007 -25.951398 
L 98.739101 -25.533961 
L 100.508722 -27.329959 
L 104.687144 -28.809373 
L 108.867602 -29.21669 
L 109.904251 -29.033451 
L 111.286904 -29.959596 
L 112.148182 -29.667514 
L 112.510776 -29.975929 
L 113.564012 -29.822873 
L 115.200579 -30.433673 
L 118.999826 -30.338506 
L 121.151673 -29.237112 
L 122.93788 -30.06329 
L 124.865262 -30.36869 
L 125.775293 -31.200548 
L 127.991801 -30.315064 
L 129.174709 -30.650294 
L 129.13205 -31.186698 
L 131.527993 -30.766953 
L 131.423378 -30.314711 
L 131.985039 -30.138397 
L 133.335867 -30.611942 
L 134.872395 -30.530935 
L 135.035535 -30.080805 
L 134.08446 -29.851927 
L 134.156264 -29.322679 
L 133.072755 -28.725787 
L 133.854 -28.309288 
L 133.370292 -25.679524 
L 133.768006 -24.414925 
L 133.59043 -23.486096 
L 134.160133 -23.122367 
L 133.615799 -22.362889 
L 133.349654 -20.530035 
L 131.665058 -19.512131 
L 131.389452 -18.771709 
L 130.358402 -18.118551 
L 130.201894 -17.240908 
L 131.221765 -14.350014 
L 132.727067 -13.751655 
L 133.542705 -12.626191 
L 133.743927 -11.278948 
L 136.71325 -9.29005 
L 138.68807 -1.248087 
L 137.718074 -0.760334 
L 139.303775 1.459926 
L 139.962909 3.553569 
L 139.758246 7.31049 
L 140.412649 9.231289 
L 139.526926 11.568133 
L 140.29785 13.463675 
L 140.254855 14.356874 
L 140.002896 15.005184 
L 138.533712 15.667021 
L 138.097729 16.468221 
L 140.719214 20.122879 
L 140.819395 22.196 
L 141.490567 22.660303 
L 141.69394 23.335895 
L 142.393917 23.867507 
L 143.594372 23.506034 
L 147.098569 24.634544 
L 148.876897 28.038897 
L 130.213933 39.57981 
L 123.189847 45.788352 
L 112.950716 47.857755 
L 111.998347 47.159721 
L 112.65017 46.056582 
L 112.392196 44.170623 
L 109.070733 43.140658 
L 108.240473 42.19221 
L 107.701301 42.456836 
L 106.481926 42.05962 
L 105.573417 40.780136 
L 103.88796 40.163625 
L 103.854425 38.579945 
L 79.02612 21.590646 
z
" clip-path="url(#p8021666c7b)" style="fill: #eeeeee; stroke: #000000; stroke-width: 0.3"/>
    <path d="M 134.488643 110.906263 
L 134.871293 109.360277 
L 135.68951 108.145851 
L 136.126354 106.245688 
L 135.774214 105.772819 
L 135.882133 105.216059 
L 137.944665 103.108661 
L 139.409119 102.160327 
L 139.806404 101.010737 
L 140.164563 101.041514 
L 141.280746 100.081568 
L 141.563228 100.642382 
L 142.749497 100.662001 
L 143.093466 99.544205 
L 144.999062 101.247283 
L 145.250159 102.518982 
L 145.909293 102.602533 
L 147.065463 101.663781 
L 147.183274 100.655914 
L 148.474882 99.768802 
L 147.910771 98.96625 
L 149.094028 97.600632 
L 149.085429 96.978255 
L 149.805616 95.923147 
L 149.950942 94.065713 
L 150.68661 93.584723 
L 150.540851 93.091445 
L 151.327684 93.108473 
L 152.311869 92.310205 
L 152.743979 90.242608 
L 152.565118 89.737828 
L 153.979696 89.021759 
L 154.124161 86.826302 
L 154.975917 86.354673 
L 155.408031 84.312442 
L 156.306868 82.587489 
L 157.253217 81.454921 
L 158.01511 81.620439 
L 159.890178 80.309838 
L 159.581033 79.562988 
L 160.10688 77.519745 
L 159.353153 76.822727 
L 158.112711 76.680437 
L 157.596753 73.592798 
L 159.06637 73.579039 
L 159.634778 74.9503 
L 160.734624 75.509198 
L 161.062685 77.630014 
L 161.692581 77.927673 
L 162.051168 80.344115 
L 161.575202 81.863862 
L 162.061918 84.747766 
L 164.320943 87.062172 
L 160.540712 87.365582 
L 158.082612 87.119336 
L 157.101867 88.539866 
L 158.780871 90.653129 
L 161.702898 92.942164 
L 163.32042 96.452167 
L 163.828635 96.657146 
L 163.287313 98.414456 
L 162.418359 99.03503 
L 160.539418 103.089723 
L 158.937809 104.30843 
L 159.895336 105.068022 
L 159.895336 106.681125 
L 159.489452 107.574438 
L 160.067749 108.12443 
L 160.310681 110.491828 
L 161.461689 111.402617 
L 161.866283 112.674656 
L 162.276469 112.930712 
L 161.59498 113.092281 
L 161.840058 113.704285 
L 166.031336 118.16634 
L 166.022736 119.70582 
L 166.511171 120.960042 
L 166.081211 121.088805 
L 165.912235 121.864181 
L 166.29533 123.159334 
L 165.937603 123.440869 
L 165.70456 122.931355 
L 164.427143 122.230279 
L 163.495845 122.038828 
L 162.890456 122.276168 
L 162.371491 121.760565 
L 161.039467 121.905561 
L 160.89199 121.427504 
L 160.508462 121.647817 
L 159.665305 121.022281 
L 159.127852 121.356922 
L 154.392028 121.230642 
L 154.350752 120.876382 
L 153.848127 120.69779 
L 152.126123 120.900513 
L 147.580559 120.526185 
L 146.309157 120.621797 
L 146.186188 121.210124 
L 140.6487 121.2108 
L 139.899275 120.777615 
L 140.502026 117.349492 
L 140.392672 116.384816 
L 139.197238 115.217548 
L 139.935626 114.829941 
L 139.131221 114.95157 
L 138.79707 113.993108 
L 139.123096 114.296199 
L 139.109892 113.752343 
L 139.623141 113.993108 
L 139.339432 113.603192 
L 139.706086 113.39172 
L 139.100752 113.379114 
L 139.665121 112.614015 
L 138.936214 113.149354 
L 138.516747 112.720017 
L 138.741208 113.252162 
L 138.348149 113.073181 
L 138.509979 113.573362 
L 137.955086 113.573362 
L 137.882974 113.066789 
L 137.402569 113.362069 
L 136.406207 112.766363 
L 136.258596 110.791739 
L 135.889575 110.414604 
L 135.976243 110.829737 
L 135.688137 110.582928 
L 135.645816 110.843409 
L 135.091264 109.984561 
L 135.372265 110.966988 
z
" clip-path="url(#p8021666c7b)" style="fill: #eeeeee; stroke: #000000; stroke-width: 0.3"/>
    <path d="M 99.720978 67.183785 
L 100.005182 65.223525 
L 103.034057 65.295006 
L 104.62406 63.968173 
L 111.565808 63.725985 
L 111.704682 63.344893 
L 113.674772 63.661158 
L 113.755608 63.0416 
L 115.085052 62.215371 
L 115.977224 59.540281 
L 116.490598 59.026595 
L 116.676344 47.130406 
L 123.189847 45.788352 
L 130.213933 39.57981 
L 148.876897 28.038897 
L 155.172842 29.512416 
L 158.22622 31.970805 
L 161.403288 30.315366 
L 162.202514 34.688968 
L 162.254541 36.880362 
L 164.021687 39.239081 
L 163.75124 39.502464 
L 163.859162 40.106347 
L 165.523548 41.919808 
L 164.548823 43.80836 
L 163.450266 56.841738 
L 158.861707 61.934625 
L 156.635789 65.120246 
L 155.903346 67.174992 
L 155.036543 67.653612 
L 155.693097 70.860654 
L 154.539077 70.837426 
L 154.115562 71.541661 
L 152.510512 71.798729 
L 152.356154 72.305538 
L 151.340584 72.873792 
L 150.972965 73.653117 
L 149.246235 73.423558 
L 146.676777 72.342856 
L 143.494192 72.296292 
L 141.184435 72.841772 
L 138.981735 74.799779 
L 135.192044 74.266587 
L 132.803169 72.625521 
L 131.633669 72.426403 
L 129.836425 73.442051 
L 129.030248 73.420852 
L 128.491505 73.950213 
L 127.944163 73.953145 
L 125.302684 71.036318 
L 124.637964 71.136778 
L 122.056038 70.091815 
L 120.832361 70.698181 
L 119.156797 70.569872 
L 117.608071 70.993021 
L 116.248532 71.869198 
L 116.094603 73.949536 
L 115.430311 75.022344 
L 114.234153 76.036412 
L 114.077649 78.7088 
L 114.339925 79.345381 
L 114.04626 79.624324 
L 110.917421 76.554611 
L 108.944323 77.265832 
L 109.307641 78.313273 
L 109.028167 78.748261 
L 107.62047 76.804688 
L 108.424068 76.44592 
L 107.858667 75.217627 
L 107.287246 75.136449 
L 106.754952 75.651938 
L 105.590615 75.538286 
L 103.176372 73.791912 
L 103.176372 72.325493 
L 104.362641 72.423021 
L 103.308373 71.901105 
L 102.816066 71.249753 
L 101.557136 70.927065 
L 100.620459 69.39897 
L 100.702152 68.471494 
z
" clip-path="url(#p8021666c7b)" style="fill: #eeeeee; stroke: #000000; stroke-width: 0.3"/>
    <path d="M 76.110006 85.16742 
L 76.489232 83.338175 
L 76.186323 82.343276 
L 76.900707 82.129954 
L 77.375816 80.818114 
L 77.089461 79.348762 
L 76.568561 79.045016 
L 77.912408 78.387237 
L 79.27711 78.267948 
L 80.112529 77.644445 
L 80.413287 76.897368 
L 80.754568 76.955095 
L 80.565278 76.397213 
L 80.833145 75.966733 
L 80.425434 75.178166 
L 81.37232 75.15088 
L 81.562684 74.722093 
L 81.083598 73.197611 
L 81.467342 73.16683 
L 82.536765 71.751601 
L 82.785392 71.96481 
L 82.562242 72.245442 
L 84.734411 73.196481 
L 84.738284 72.773332 
L 85.569938 72.655513 
L 85.41053 70.888276 
L 86.323448 71.285383 
L 87.040087 71.089537 
L 87.156392 69.56708 
L 88.27924 68.599354 
L 88.84378 68.343639 
L 90.132596 68.888102 
L 90.615011 68.778622 
L 90.776678 67.515493 
L 92.025291 67.404547 
L 94.597757 66.0944 
L 96.090587 64.863401 
L 97.13819 64.857086 
L 97.313615 65.194433 
L 98.100019 64.919439 
L 99.993575 65.594245 
L 99.745485 67.404547 
L 100.702152 68.471494 
L 100.620459 69.39897 
L 101.557136 70.927065 
L 102.816066 71.249753 
L 103.308373 71.901105 
L 104.362641 72.423021 
L 103.176372 72.325493 
L 103.176372 73.791912 
L 105.590615 75.538286 
L 106.754952 75.651938 
L 107.287246 75.136449 
L 107.858667 75.217627 
L 108.424068 76.44592 
L 107.62047 76.804688 
L 109.028167 78.748261 
L 108.600783 79.757367 
L 107.449775 80.797591 
L 105.747552 80.964349 
L 105.073801 80.593066 
L 104.61933 81.400013 
L 103.895269 81.414444 
L 103.903868 81.93636 
L 103.504004 82.040543 
L 103.733606 82.519952 
L 103.167344 82.310802 
L 103.0921 82.773303 
L 101.113411 82.951781 
L 101.109113 82.646459 
L 97.829681 81.949442 
L 96.444016 83.062051 
L 95.641063 82.634957 
L 87.280976 82.66912 
L 86.885084 84.256181 
L 87.571308 85.186135 
L 87.264527 85.526187 
L 87.623764 85.886085 
L 87.71126 87.79741 
L 87.45586 88.24593 
L 87.897218 89.25515 
L 87.587429 89.677732 
L 85.710859 87.392305 
L 85.349043 87.717359 
L 85.284765 87.454653 
L 83.463229 87.30391 
L 81.819049 87.817029 
L 80.900007 88.843953 
L 80.356963 88.529494 
L 80.322671 88.136563 
L 79.610762 88.411444 
L 79.130814 88.095409 
L 79.122432 87.711271 
L 78.425138 87.456006 
L 78.436532 86.848173 
L 77.992383 86.543415 
L 77.788149 85.743232 
L 76.609406 85.712564 
z
" clip-path="url(#p8021666c7b)" style="fill: #eeeeee; stroke: #000000; stroke-width: 0.3"/>
    <path d="M 98.393684 82.071437 
L 101.109113 82.646459 
L 101.113411 82.951781 
L 102.834982 82.692121 
L 102.249375 85.356502 
L 104.675226 87.188002 
L 104.60256 89.110154 
L 105.723474 91.052601 
L 105.924696 93.598028 
L 105.847733 100.12915 
L 105.457757 100.150344 
L 105.599643 101.519575 
L 106.499557 103.268878 
L 105.822656 103.545416 
L 104.016134 104.040269 
L 103.176372 103.062324 
L 102.187027 102.554838 
L 101.244979 100.847134 
L 101.14222 100.232425 
L 101.572612 99.978965 
L 101.770826 98.703095 
L 101.146521 97.914523 
L 101.631948 97.063041 
L 101.472003 94.861497 
L 102.049872 94.451203 
L 100.606809 92.37278 
L 101.188227 91.971057 
L 100.878866 91.267385 
L 101.295288 89.637481 
L 100.797282 89.239816 
L 100.028296 89.501169 
L 100.340768 89.173405 
L 100.042374 88.87541 
L 100.656149 88.815763 
L 100.170398 88.520134 
L 100.528661 88.493978 
L 100.734617 85.788217 
L 98.718092 84.25979 
L 99.152136 82.387358 
z
" clip-path="url(#p8021666c7b)" style="fill: #eeeeee; stroke: #000000; stroke-width: 0.3"/>
    <path d="M 85.512216 101.785776 
L 85.598851 100.940268 
L 86.717401 99.177094 
L 86.847572 97.596574 
L 87.475317 95.998913 
L 88.224422 95.576894 
L 88.223989 95.032086 
L 88.658038 94.838274 
L 88.187442 91.721088 
L 87.540993 91.147873 
L 88.019543 90.196942 
L 87.45586 88.24593 
L 87.71126 87.79741 
L 87.623764 85.886085 
L 87.264527 85.526187 
L 87.571308 85.186135 
L 86.885084 84.256181 
L 87.280976 82.66912 
L 95.641063 82.634957 
L 96.444016 83.062051 
L 97.829681 81.949442 
L 99.152136 82.387358 
L 98.718092 84.25979 
L 100.734617 85.788217 
L 100.528661 88.493978 
L 100.170398 88.520134 
L 100.656149 88.815763 
L 100.042374 88.87541 
L 100.340768 89.173405 
L 100.028296 89.501169 
L 100.797282 89.239816 
L 101.295288 89.637481 
L 100.878866 91.267385 
L 101.188227 91.971057 
L 100.606809 92.37278 
L 102.049872 94.451203 
L 101.472003 94.861497 
L 101.631948 97.063041 
L 101.146521 97.914523 
L 101.770826 98.703095 
L 101.572612 99.978965 
L 101.14222 100.232425 
L 101.23165 100.805418 
L 102.187027 102.554838 
L 103.176372 103.062324 
L 104.016134 104.040269 
L 103.057013 105.390423 
L 100.097038 105.542767 
L 95.758479 107.904999 
L 92.351617 108.744494 
L 90.841668 109.922771 
L 90.362615 109.983671 
L 89.28094 109.193184 
L 86.106663 108.44389 
L 87.575177 108.139764 
L 87.479723 107.328872 
L 87.726952 107.214091 
L 87.463602 106.188751 
L 86.829513 106.188075 
L 86.750724 105.745193 
L 86.48049 105.769324 
z
" clip-path="url(#p8021666c7b)" style="fill: #eeeeee; stroke: #000000; stroke-width: 0.3"/>
    <path d="M 29.492027 76.845724 
L 31.597255 76.31107 
L 33.865951 76.379846 
L 35.87087 75.331955 
L 41.973114 75.358338 
L 42.111455 77.01846 
L 41.508326 77.087462 
L 40.957007 77.635425 
L 41.991173 78.284634 
L 41.966237 79.562988 
L 41.383314 79.415286 
L 40.779752 79.880266 
L 39.637555 79.741807 
L 38.675514 80.422364 
L 37.8846 80.489224 
L 36.328153 82.976204 
L 36.678891 81.714476 
L 35.725186 82.683058 
L 35.823028 81.640259 
L 35.711137 82.125699 
L 35.192305 82.031065 
L 34.909781 81.410141 
L 35.567421 80.770934 
L 35.255107 81.009395 
L 35.212448 80.638653 
L 34.573093 81.098706 
L 34.712744 80.502821 
L 35.683714 80.142731 
L 35.513085 79.933926 
L 36.200516 79.96482 
L 36.16971 80.280161 
L 36.652145 79.99092 
L 35.967593 79.782288 
L 36.138222 79.571174 
L 35.733989 79.786552 
L 35.740421 79.365384 
L 34.857476 80.229381 
L 34.908937 79.633496 
L 34.701741 79.805019 
L 34.388748 79.461266 
L 34.857476 78.796667 
L 35.895482 78.858631 
L 36.308513 78.558027 
L 36.393663 79.153733 
L 36.949229 79.374617 
L 36.390443 78.904441 
L 36.652486 78.3913 
L 35.787821 78.691197 
L 34.908937 78.466228 
L 33.228018 79.39486 
L 33.628187 78.915808 
L 33.37292 78.796667 
L 32.693103 79.453983 
L 33.082609 78.417936 
L 33.685064 78.438885 
L 33.713503 78.227767 
L 33.088704 78.168111 
L 32.00415 78.796667 
L 31.045025 77.915621 
L 32.259758 76.765044 
L 30.618619 77.546481 
z
" clip-path="url(#p8021666c7b)" style="fill: #eeeeee; stroke: #000000; stroke-width: 0.3"/>
    <path d="M 33.465513 81.905173 
L 33.545749 81.456309 
L 33.94338 81.33965 
L 33.94338 81.640259 
z
" clip-path="url(#p8021666c7b)" style="fill: #eeeeee; stroke: #000000; stroke-width: 0.3"/>
    <path d="M 32.613208 82.450631 
L 32.830558 82.265974 
L 32.745409 81.786564 
L 33.031826 82.339126 
z
" clip-path="url(#p8021666c7b)" style="fill: #eeeeee; stroke: #000000; stroke-width: 0.3"/>
    <path d="M 32.174608 80.619296 
L 32.773681 80.02075 
L 32.94668 80.681444 
L 32.37588 80.827753 
z
" clip-path="url(#p8021666c7b)" style="fill: #eeeeee; stroke: #000000; stroke-width: 0.3"/>
    <path d="M 31.833855 78.858631 
L 32.368599 78.736474 
L 32.582398 78.787966 
L 32.350149 79.365384 
z
" clip-path="url(#p8021666c7b)" style="fill: #eeeeee; stroke: #000000; stroke-width: 0.3"/>
    <path d="M 31.490564 82.203648 
L 32.10656 81.751943 
L 32.319002 82.144166 
L 31.97334 82.534086 
z
" clip-path="url(#p8021666c7b)" style="fill: #eeeeee; stroke: #000000; stroke-width: 0.3"/>
    <path d="M 31.350741 81.601728 
L 31.663226 81.307158 
L 31.802878 81.697074 
L 31.476344 81.710571 
z
" clip-path="url(#p8021666c7b)" style="fill: #eeeeee; stroke: #000000; stroke-width: 0.3"/>
    <path d="M 30.749131 80.351009 
L 31.490564 80.112901 
L 31.376131 80.498205 
L 30.777569 80.529985 
z
" clip-path="url(#p8021666c7b)" style="fill: #eeeeee; stroke: #000000; stroke-width: 0.3"/>
    <path d="M 34.060521 80.352074 
L 34.483034 79.933926 
L 34.720362 80.189964 
z
" clip-path="url(#p8021666c7b)" style="fill: #eeeeee; stroke: #000000; stroke-width: 0.3"/>
    <path d="M 33.624464 80.697423 
L 33.798819 80.470325 
L 33.855526 80.738616 
z
" clip-path="url(#p8021666c7b)" style="fill: #eeeeee; stroke: #000000; stroke-width: 0.3"/>
    <path d="M 32.953112 81.575092 
L 33.246976 81.383331 
L 33.057727 81.786564 
z
" clip-path="url(#p8021666c7b)" style="fill: #eeeeee; stroke: #000000; stroke-width: 0.3"/>
    <path d="M 32.285318 81.946724 
L 32.628608 82.1534 
L 32.451378 82.360788 
z
" clip-path="url(#p8021666c7b)" style="fill: #eeeeee; stroke: #000000; stroke-width: 0.3"/>
    <path d="M 31.265596 80.681444 
L 31.833855 80.410669 
L 31.632246 80.738616 
z
" clip-path="url(#p8021666c7b)" style="fill: #eeeeee; stroke: #000000; stroke-width: 0.3"/>
    <path d="M 28.125682 40.040892 
L 28.494 37.607371 
L 44.939429 37.568809 
L 44.369298 31.081887 
L 44.939429 30.21789 
L 46.586076 29.114637 
L 49.082549 28.284803 
L 49.099319 17.227699 
L 62.942828 17.205375 
L 62.964756 11.596318 
L 79.02612 21.590646 
L 71.656452 21.594709 
L 75.690792 58.538842 
L 76.814284 59.480748 
L 76.158375 63.049267 
L 60.190635 63.042953 
L 60.160536 62.160576 
L 59.764328 62.63852 
L 59.879989 63.283443 
L 57.201963 63.61414 
L 54.465683 63.316031 
L 53.676054 64.756739 
L 51.141641 62.397911 
L 50.765206 62.844288 
L 50.298484 62.844288 
L 49.805099 64.424355 
L 49.910226 65.642276 
L 48.870149 66.364772 
L 47.571768 65.877696 
L 47.145782 65.130392 
L 45.467314 64.111026 
L 45.7182 63.967047 
L 45.151293 62.983982 
L 44.654052 63.055581 
L 44.546441 62.603231 
L 44.013394 62.485294 
L 43.688557 61.145605 
L 42.985464 60.165813 
L 42.219914 60.380715 
L 41.968384 60.015179 
L 41.525953 60.315993 
L 40.934863 59.367323 
L 39.151056 57.958631 
L 36.789484 57.825138 
L 36.235049 57.938563 
L 36.162168 58.299359 
L 34.75232 58.30477 
L 33.886161 58.741565 
L 31.383349 58.559133 
L 30.61393 59.994884 
L 30.266184 61.67634 
L 30.320523 59.39028 
L 32.193907 54.101001 
L 32.37588 51.497647 
L 31.671351 47.826459 
L 30.294793 46.089405 
L 31.028097 45.936529 
L 31.3372 45.441497 
L 30.893862 45.726121 
L 31.005416 45.397995 
L 30.587642 45.950911 
L 31.549808 44.287901 
L 31.490564 43.811161 
L 31.219044 43.868687 
L 31.596868 43.37188 
L 31.436058 42.795348 
L 31.680999 42.369388 
L 30.578839 40.552789 
L 30.822258 40.441817 
L 30.320523 40.162874 
L 30.266184 40.940047 
L 29.723992 40.430808 
L 28.705115 38.329231 
z
" clip-path="url(#p8021666c7b)" style="fill: #eeeeee; stroke: #000000; stroke-width: 0.3"/>
    <path d="M 30.867965 45.133256 
L 31.030806 44.795007 
L 31.267626 44.597917 
z
" clip-path="url(#p8021666c7b)" style="fill: #eeeeee; stroke: #000000; stroke-width: 0.3"/>
    <path d="M 30.59221 44.763579 
L 31.083282 43.961904 
L 30.72323 45.127396 
z
" clip-path="url(#p8021666c7b)" style="fill: #eeeeee; stroke: #000000; stroke-width: 0.3"/>
    <path d="M 30.549552 40.794624 
L 30.665337 40.737272 
L 30.633008 40.895302 
z
" clip-path="url(#p8021666c7b)" style="fill: #eeeeee; stroke: #000000; stroke-width: 0.3"/>
    <path d="M 30.455266 44.672492 
L 30.560726 44.698063 
L 30.507913 44.793767 
z
" clip-path="url(#p8021666c7b)" style="fill: #eeeeee; stroke: #000000; stroke-width: 0.3"/>
    <path d="M 29.070754 72.455888 
L 29.698432 71.76803 
L 30.777569 73.024609 
L 30.692253 72.726841 
L 31.449258 72.515369 
L 31.575539 72.815978 
L 31.650022 72.837107 
L 31.893103 72.726841 
L 31.577569 72.477017 
L 31.851797 72.062421 
L 34.099793 71.948429 
L 34.421759 71.709082 
L 35.265769 72.009507 
L 35.414565 71.946299 
L 35.456374 71.76803 
L 34.368942 71.62776 
L 31.93339 71.949493 
L 30.897756 72.463171 
L 30.3515 72.366398 
L 30.186929 71.372015 
L 34.526807 71.388658 
L 35.043189 70.56649 
L 36.27611 70.354975 
L 37.184835 70.526916 
L 37.760341 71.247497 
L 38.585438 71.136778 
L 39.321963 71.948346 
L 40.890578 71.405912 
L 41.596895 72.059519 
L 41.256367 72.560464 
L 39.308313 72.904574 
L 36.109929 71.358666 
L 35.529909 72.273627 
L 33.276688 72.477707 
L 33.21585 73.248684 
L 29.720469 73.2161 
L 29.387133 73.649434 
z
" clip-path="url(#p8021666c7b)" style="fill: #eeeeee; stroke: #000000; stroke-width: 0.3"/>
    <path d="M 0.10413 64.831546 
L 0.15847 63.845746 
L 0.475864 63.83793 
L 1.501173 65.102499 
L 1.188854 65.604456 
L 0.426604 65.343448 
z
" clip-path="url(#p8021666c7b)" style="fill: #eeeeee; stroke: #000000; stroke-width: 0.3"/>
    <path d="M 3.551279 60.614367 
L 3.752551 59.777534 
L 4.550183 59.914252 
L 4.723861 60.34643 
L 4.207903 60.903609 
z
" clip-path="url(#p8021666c7b)" style="fill: #eeeeee; stroke: #000000; stroke-width: 0.3"/>
    <path d="M 3.439729 57.282843 
L 3.724112 57.088062 
L 3.895081 57.819426 
L 3.69601 58.252664 
z
" clip-path="url(#p8021666c7b)" style="fill: #eeeeee; stroke: #000000; stroke-width: 0.3"/>
    <path d="M 2.355849 64.086869 
L 2.869772 63.845746 
L 2.93579 64.455481 
L 2.586234 64.673167 
z
" clip-path="url(#p8021666c7b)" style="fill: #eeeeee; stroke: #000000; stroke-width: 0.3"/>
    <path d="M -2.550295 58.051669 
L -0.895278 58.387964 
L -1.89164 58.279653 
L -2.109499 58.735979 
z
" clip-path="url(#p8021666c7b)" style="fill: #eeeeee; stroke: #000000; stroke-width: 0.3"/>
    <path d="M -2.94793 65.534323 
L -2.276578 65.007685 
L -1.992362 65.565571 
L -2.325161 66.008758 
z
" clip-path="url(#p8021666c7b)" style="fill: #eeeeee; stroke: #000000; stroke-width: 0.3"/>
    <path d="M -3.976588 57.341321 
L -3.603435 57.543337 
L -3.609455 57.600152 
L -3.838159 57.638033 
z
" clip-path="url(#p8021666c7b)" style="fill: #eeeeee; stroke: #000000; stroke-width: 0.3"/>
    <path d="M -6.418267 56.237383 
L -5.345732 55.620544 
L -4.799306 56.010106 
L -6.161474 56.838949 
z
" clip-path="url(#p8021666c7b)" style="fill: #eeeeee; stroke: #000000; stroke-width: 0.3"/>
    <path d="M -3.260377 58.180951 
L -3.127968 58.13676 
L -3.152043 58.19989 
z
" clip-path="url(#p8021666c7b)" style="fill: #eeeeee; stroke: #000000; stroke-width: 0.3"/>
    <path d="M -3.91602 65.787695 
L -3.601168 65.893165 
L -3.745729 66.061314 
z
" clip-path="url(#p8021666c7b)" style="fill: #eeeeee; stroke: #000000; stroke-width: 0.3"/>
    <path d="M -5.310521 57.237033 
L -4.827745 56.814447 
L -4.465833 57.290301 
z
" clip-path="url(#p8021666c7b)" style="fill: #eeeeee; stroke: #000000; stroke-width: 0.3"/>
   </g>
   <g id="PatchCollection_2">
    <defs>
     <path id="mb85c829f33" d="M 48.064183 -41.812131 
L 48.870149 -41.635228 
L 49.910226 -42.357724 
L 49.805099 -43.575645 
L 50.298484 -45.155712 
L 50.765206 -45.155712 
L 51.141641 -45.602089 
L 53.676054 -43.243261 
L 54.465683 -44.683969 
L 57.201963 -44.38586 
L 59.879989 -44.716557 
L 59.764328 -45.36148 
L 60.160536 -45.839424 
L 60.190635 -44.957047 
L 76.158375 -44.950733 
L 76.814284 -48.519252 
L 75.690792 -49.461158 
L 71.656452 -86.405291 
L 79.02612 -86.409354 
L 103.854425 -69.420055 
L 103.88796 -67.836375 
L 105.573417 -67.219864 
L 106.481926 -65.94038 
L 107.701301 -65.543164 
L 108.240473 -65.80779 
L 109.070733 -64.859342 
L 112.392196 -63.829377 
L 112.65017 -61.943418 
L 111.998347 -60.840279 
L 112.750355 -60.230304 
L 116.676344 -60.869594 
L 116.490598 -48.973405 
L 115.977224 -48.459719 
L 115.18953 -45.913388 
L 113.755608 -44.9584 
L 113.674772 -44.338842 
L 111.704682 -44.655107 
L 111.565808 -44.274015 
L 104.62406 -44.031827 
L 103.135527 -42.75607 
L 101.872296 -42.531245 
L 100.005182 -42.776475 
L 99.993575 -42.405755 
L 98.100019 -43.080561 
L 97.313615 -42.805567 
L 97.13819 -43.142914 
L 96.090587 -43.136599 
L 94.597757 -41.9056 
L 92.025291 -40.595453 
L 90.776678 -40.484507 
L 90.615011 -39.221378 
L 90.132596 -39.111898 
L 88.84378 -39.656361 
L 88.27924 -39.400646 
L 87.156392 -38.43292 
L 87.040087 -36.910463 
L 86.323448 -36.714617 
L 85.41053 -37.111724 
L 85.569938 -35.344487 
L 84.738284 -35.226668 
L 84.734411 -34.803519 
L 82.562242 -35.754558 
L 82.785392 -36.03519 
L 82.522147 -36.244227 
L 80.983634 -34.583206 
L 81.562684 -33.277907 
L 81.37232 -32.84912 
L 80.425434 -32.821834 
L 80.833145 -32.033267 
L 80.565278 -31.602787 
L 80.754568 -31.044905 
L 80.413287 -31.102632 
L 80.112529 -30.355555 
L 79.27711 -29.732052 
L 77.912408 -29.612763 
L 76.568561 -28.954984 
L 77.089461 -28.651238 
L 77.375816 -27.181886 
L 76.900707 -25.870046 
L 76.186323 -25.656724 
L 76.489232 -24.661825 
L 76.280272 -23.311877 
L 76.110006 -22.83258 
L 74.631149 -22.616889 
L 74.057578 -21.804418 
L 73.125419 -22.07524 
L 73.372648 -22.80958 
L 73.036845 -23.219197 
L 73.273324 -23.723301 
L 73.05899 -24.145996 
L 72.347401 -23.969769 
L 72.268504 -23.385728 
L 71.339998 -23.830411 
L 71.341075 -22.551268 
L 70.124924 -22.480804 
L 69.898117 -21.590646 
L 68.451939 -22.07637 
L 67.877511 -22.977236 
L 67.199673 -22.88343 
L 66.514955 -21.899467 
L 65.846578 -21.682763 
L 65.819063 -22.408306 
L 64.851431 -22.823561 
L 64.574107 -23.321124 
L 64.444901 -25.443628 
L 63.699562 -25.569909 
L 63.475767 -25.215649 
L 62.907142 -25.176978 
L 64.242173 -26.943875 
L 63.071384 -27.505814 
L 62.78116 -28.17363 
L 62.278964 -28.210612 
L 62.393119 -29.758435 
L 61.967457 -29.901175 
L 61.743662 -31.312123 
L 61.030568 -31.734478 
L 59.98705 -31.768305 
L 60.357245 -31.264315 
L 60.242229 -30.88074 
L 59.030167 -30.445756 
L 58.635673 -29.814133 
L 56.37278 -30.653663 
L 55.354843 -30.218453 
L 54.523942 -29.224903 
L 53.522345 -30.660881 
L 53.105495 -30.586917 
L 52.527838 -29.766102 
L 51.930837 -29.817515 
L 51.21065 -30.539335 
L 51.706397 -31.380899 
L 51.751543 -31.798746 
L 51.377043 -32.074984 
L 51.705536 -33.938391 
L 51.105523 -34.554794 
L 50.772516 -35.641356 
L 50.239576 -35.846448 
L 49.877981 -35.407743 
L 48.756851 -37.140699 
L 49.31731 -37.686406 
L 49.173057 -39.155644 
L 48.240574 -40.137805 
L 48.476516 -41.231471 
z
" style="stroke: #dd0000; stroke-width: 0.5"/>
    </defs>
    <g clip-path="url(#p8021666c7b)">
     <use xlink:href="#mb85c829f33" x="0" y="108" style="fill: #ff6b6b; stroke: #dd0000; stroke-width: 0.5"/>
    </g>
   </g>
  </g>
 </g>
 <defs>
  <clipPath id="p8021666c7b">
   <rect x="0" y="0" width="164.740528" height="108"/>
  </clipPath>
 </defs>
</svg>
