<?xml version="1.0" encoding="utf-8" standalone="no"?>
<!DOCTYPE svg PUBLIC "-//W3C//DTD SVG 1.1//EN"
  "http://www.w3.org/Graphics/SVG/1.1/DTD/svg11.dtd">
<svg xmlns:xlink="http://www.w3.org/1999/xlink" width="170.384062pt" height="108pt" viewBox="0 0 170.384062 108" xmlns="http://www.w3.org/2000/svg" version="1.1">
 <metadata>
  <rdf:RDF xmlns:dc="http://purl.org/dc/elements/1.1/" xmlns:cc="http://creativecommons.org/ns#" xmlns:rdf="http://www.w3.org/1999/02/22-rdf-syntax-ns#">
   <cc:Work>
    <dc:type rdf:resource="http://purl.org/dc/dcmitype/StillImage"/>
    <dc:date>2025-09-05T15:49:29.270385</dc:date>
    <dc:format>image/svg+xml</dc:format>
    <dc:creator>
     <cc:Agent>
      <dc:title>Matplotlib v3.10.3, https://matplotlib.org/</dc:title>
     </cc:Agent>
    </dc:creator>
   </cc:Work>
  </rdf:RDF>
 </metadata>
 <defs>
  <style type="text/css">*{stroke-linejoin: round; stroke-linecap: butt}</style>
 </defs>
 <g id="figure_1">
  <g id="patch_1">
   <path d="M 0 108 
L 170.384062 108 
L 170.384062 0 
L 0 0 
z
" style="fill: #ffffff"/>
  </g>
  <g id="axes_1">
   <g id="PatchCollection_1">
    <path d="M -1645.490929 95.342965 
L -1644.696777 95.71623 
L -1644.944368 95.490082 
L -1644.60892 95.609174 
L -1644.306926 95.129293 
L -1645.125694 94.71531 
L -1644.671737 94.737643 
L -1644.068613 94.992468 
L -1644.268072 95.596697 
L -1643.436572 96.117952 
L -1643.730577 96.390075 
L -1645.426171 95.580713 
z
" clip-path="url(#p1060ee1706)" style="fill: #eeeeee; stroke: #000000; stroke-width: 0.3"/>
    <path d="M -1720.487315 120.452564 
L -1720.141289 120.658354 
L -1720.034006 120.819481 
L -1720.006589 120.974917 
L -1720.013284 121.043655 
L -1720.474795 120.792333 
L -1720.216408 120.863266 
L -1720.053215 121.006876 
L -1720.019762 120.972727 
z
" clip-path="url(#p1060ee1706)" style="fill: #eeeeee; stroke: #000000; stroke-width: 0.3"/>
    <path d="M 108.296634 98.412921 
L 108.68648 98.255081 
L 109.08928 98.21064 
L 109.049561 98.148245 
L 109.147996 98.214799 
z
" clip-path="url(#p1060ee1706)" style="fill: #eeeeee; stroke: #000000; stroke-width: 0.3"/>
    <path d="M 108.183955 100.098409 
L 108.639854 100.41147 
L 108.561716 100.689505 
L 108.189133 101.118812 
L 108.617838 100.429203 
z
" clip-path="url(#p1060ee1706)" style="fill: #eeeeee; stroke: #000000; stroke-width: 0.3"/>
    <path d="M -1655.208622 84.829401 
L -1655.032474 84.446068 
L -1654.359632 85.056862 
L -1654.671122 85.245795 
L -1654.905334 84.576766 
z
" clip-path="url(#p1060ee1706)" style="fill: #eeeeee; stroke: #000000; stroke-width: 0.3"/>
    <path d="M 118.913604 113.943544 
L 119.156235 113.714986 
L 119.158824 113.335813 
L 119.16832 113.84897 
z
" clip-path="url(#p1060ee1706)" style="fill: #eeeeee; stroke: #000000; stroke-width: 0.3"/>
    <path d="M 115.997736 109.095274 
L 116.185969 109.854062 
L 116.180356 109.939877 
L 116.106532 110.016939 
z
" clip-path="url(#p1060ee1706)" style="fill: #eeeeee; stroke: #000000; stroke-width: 0.3"/>
    <path d="M 111.452974 104.446224 
L 111.57213 104.429147 
L 111.636454 104.574511 
L 111.529388 104.890639 
z
" clip-path="url(#p1060ee1706)" style="fill: #eeeeee; stroke: #000000; stroke-width: 0.3"/>
    <path d="M 109.604759 94.86374 
L 109.711825 94.532074 
L 109.925963 94.971453 
L 109.852138 95.054422 
z
" clip-path="url(#p1060ee1706)" style="fill: #eeeeee; stroke: #000000; stroke-width: 0.3"/>
    <path d="M 107.018297 89.405769 
L 107.024774 89.339 
L 107.330434 89.121611 
L 107.637394 89.07498 
z
" clip-path="url(#p1060ee1706)" style="fill: #eeeeee; stroke: #000000; stroke-width: 0.3"/>
    <path d="M -1636.765346 135.786814 
L -1636.479761 135.788562 
L -1636.374636 135.872629 
L -1636.622015 135.927798 
z
" clip-path="url(#p1060ee1706)" style="fill: #eeeeee; stroke: #000000; stroke-width: 0.3"/>
    <path d="M -1735.491689 130.681529 
L -1735.390878 130.704293 
L -1735.269568 130.829082 
L -1735.335621 130.767344 
z
" clip-path="url(#p1060ee1706)" style="fill: #eeeeee; stroke: #000000; stroke-width: 0.3"/>
    <path d="M 128.465944 119.674515 
L 128.666262 119.887745 
L 128.541064 119.89913 
z
" clip-path="url(#p1060ee1706)" style="fill: #eeeeee; stroke: #000000; stroke-width: 0.3"/>
    <path d="M 126.251195 112.707942 
L 126.511958 112.999547 
L 126.613847 113.335813 
z
" clip-path="url(#p1060ee1706)" style="fill: #eeeeee; stroke: #000000; stroke-width: 0.3"/>
    <path d="M 124.009681 119.003296 
L 124.115888 119.114506 
L 124.029108 119.047081 
z
" clip-path="url(#p1060ee1706)" style="fill: #eeeeee; stroke: #000000; stroke-width: 0.3"/>
    <path d="M 123.845193 112.520984 
L 124.276487 112.940875 
L 124.249288 113.075295 
z
" clip-path="url(#p1060ee1706)" style="fill: #eeeeee; stroke: #000000; stroke-width: 0.3"/>
    <path d="M 121.776804 115.396315 
L 121.815658 115.433094 
L 121.957265 115.951509 
z
" clip-path="url(#p1060ee1706)" style="fill: #eeeeee; stroke: #000000; stroke-width: 0.3"/>
    <path d="M 117.343856 111.713155 
L 117.488911 111.786714 
L 117.673691 112.411081 
z
" clip-path="url(#p1060ee1706)" style="fill: #eeeeee; stroke: #000000; stroke-width: 0.3"/>
    <path d="M 115.562559 108.797978 
L 115.631636 108.797978 
L 116.001625 109.07732 
z
" clip-path="url(#p1060ee1706)" style="fill: #eeeeee; stroke: #000000; stroke-width: 0.3"/>
    <path d="M 112.507243 103.271042 
L 113.103024 103.458878 
L 113.126335 103.564837 
z
" clip-path="url(#p1060ee1706)" style="fill: #eeeeee; stroke: #000000; stroke-width: 0.3"/>
    <path d="M 108.200793 96.396859 
L 108.4404 96.233762 
L 108.392475 96.37409 
z
" clip-path="url(#p1060ee1706)" style="fill: #eeeeee; stroke: #000000; stroke-width: 0.3"/>
    <path d="M 108.148984 101.135668 
L 108.18525 101.121222 
L 108.183955 101.167191 
z
" clip-path="url(#p1060ee1706)" style="fill: #eeeeee; stroke: #000000; stroke-width: 0.3"/>
    <path d="M 108.07473 101.090571 
L 108.108401 101.090571 
L 108.143801 101.136325 
z
" clip-path="url(#p1060ee1706)" style="fill: #eeeeee; stroke: #000000; stroke-width: 0.3"/>
    <path d="M 107.966364 96.852658 
L 108.040189 96.888997 
L 108.07473 97.333411 
z
" clip-path="url(#p1060ee1706)" style="fill: #eeeeee; stroke: #000000; stroke-width: 0.3"/>
    <path d="M 107.890815 95.156006 
L 108.361393 95.808394 
L 107.910672 95.261088 
z
" clip-path="url(#p1060ee1706)" style="fill: #eeeeee; stroke: #000000; stroke-width: 0.3"/>
    <path d="M 107.637394 88.928083 
L 107.940895 88.782058 
L 108.07473 88.777899 
z
" clip-path="url(#p1060ee1706)" style="fill: #eeeeee; stroke: #000000; stroke-width: 0.3"/>
    <path d="M 89.789464 110.238051 
L 89.909056 110.170184 
L 89.963018 110.268261 
z
" clip-path="url(#p1060ee1706)" style="fill: #eeeeee; stroke: #000000; stroke-width: 0.3"/>
    <path d="M -1614.940808 167.056034 
L -1614.736172 167.2373 
L -1614.841943 167.27189 
z
" clip-path="url(#p1060ee1706)" style="fill: #eeeeee; stroke: #000000; stroke-width: 0.3"/>
    <path d="M -1631.87067 127.455475 
L -1631.49658 127.301352 
L -1631.565874 127.639372 
z
" clip-path="url(#p1060ee1706)" style="fill: #eeeeee; stroke: #000000; stroke-width: 0.3"/>
    <path d="M -1660.46681 80.196771 
L -1660.348519 80.24953 
L -1660.43594 80.295289 
z
" clip-path="url(#p1060ee1706)" style="fill: #eeeeee; stroke: #000000; stroke-width: 0.3"/>
    <path d="M -1717.184408 122.531456 
L -1717.171458 122.399231 
L -1717.147066 122.347565 
z
" clip-path="url(#p1060ee1706)" style="fill: #eeeeee; stroke: #000000; stroke-width: 0.3"/>
    <path d="M -1718.07117 129.632449 
L -1717.993462 129.503721 
L -1717.914237 129.607055 
z
" clip-path="url(#p1060ee1706)" style="fill: #eeeeee; stroke: #000000; stroke-width: 0.3"/>
    <path d="M -1723.078096 129.992356 
L -1723.070542 129.930623 
L -1722.923969 129.8899 
z
" clip-path="url(#p1060ee1706)" style="fill: #eeeeee; stroke: #000000; stroke-width: 0.3"/>
    <path d="M -1735.375769 130.808503 
L -1735.350082 130.810693 
L -1735.269568 130.881185 
z
" clip-path="url(#p1060ee1706)" style="fill: #eeeeee; stroke: #000000; stroke-width: 0.3"/>
    <path d="M -1735.482835 130.748954 
L -1735.408151 130.808503 
L -1735.441175 130.791862 
z
" clip-path="url(#p1060ee1706)" style="fill: #eeeeee; stroke: #000000; stroke-width: 0.3"/>
    <path d="M 97.816088 67.111957 
L 98.828049 67.538859 
L 99.714812 67.354962 
L 98.874675 67.582208 
L 98.699397 67.556592 
L 97.949924 67.217916 
z
" clip-path="url(#p1060ee1706)" style="fill: #eeeeee; stroke: #000000; stroke-width: 0.3"/>
    <path d="M 102.658314 72.96202 
L 102.754155 72.993107 
L 103.090037 73.035358 
L 102.732569 73.04784 
z
" clip-path="url(#p1060ee1706)" style="fill: #eeeeee; stroke: #000000; stroke-width: 0.3"/>
    <path d="M 102.359556 67.457859 
L 102.48303 67.273085 
L 102.554696 67.309865 
L 102.448924 67.449977 
z
" clip-path="url(#p1060ee1706)" style="fill: #eeeeee; stroke: #000000; stroke-width: 0.3"/>
    <path d="M 100.689649 67.69254 
L 101.64117 68.096458 
L 100.883924 67.913653 
L 100.77081 67.864176 
z
" clip-path="url(#p1060ee1706)" style="fill: #eeeeee; stroke: #000000; stroke-width: 0.3"/>
    <path d="M 85.347885 81 
L 85.611237 80.910021 
L 85.786516 80.702703 
L 85.644908 80.9352 
z
" clip-path="url(#p1060ee1706)" style="fill: #eeeeee; stroke: #000000; stroke-width: 0.3"/>
    <path d="M 82.328404 75.525173 
L 82.354304 75.492993 
L 82.372436 75.311722 
L 82.390569 75.470003 
z
" clip-path="url(#p1060ee1706)" style="fill: #eeeeee; stroke: #000000; stroke-width: 0.3"/>
    <path d="M 101.680888 67.841412 
L 101.712835 67.791058 
L 101.876029 67.60913 
z
" clip-path="url(#p1060ee1706)" style="fill: #eeeeee; stroke: #000000; stroke-width: 0.3"/>
    <path d="M 101.461573 72.877738 
L 101.569504 72.879051 
L 101.579865 72.900943 
z
" clip-path="url(#p1060ee1706)" style="fill: #eeeeee; stroke: #000000; stroke-width: 0.3"/>
    <path d="M 96.961273 50.26364 
L 96.982859 50.260573 
L 96.983723 50.325594 
z
" clip-path="url(#p1060ee1706)" style="fill: #eeeeee; stroke: #000000; stroke-width: 0.3"/>
    <path d="M 96.764408 57.78277 
L 96.802397 57.719719 
L 96.803262 57.796565 
z
" clip-path="url(#p1060ee1706)" style="fill: #eeeeee; stroke: #000000; stroke-width: 0.3"/>
    <path d="M 93.588641 54.674937 
L 93.61584 54.676691 
L 93.632678 54.723101 
z
" clip-path="url(#p1060ee1706)" style="fill: #eeeeee; stroke: #000000; stroke-width: 0.3"/>
    <path d="M 90.280769 74.409319 
L 90.494471 73.634116 
L 90.913675 73.256035 
z
" clip-path="url(#p1060ee1706)" style="fill: #eeeeee; stroke: #000000; stroke-width: 0.3"/>
    <path d="M 87.62437 75.27363 
L 87.63473 75.213866 
L 87.656746 75.223717 
z
" clip-path="url(#p1060ee1706)" style="fill: #eeeeee; stroke: #000000; stroke-width: 0.3"/>
    <path d="M 86.94958 27.127195 
L 87.007867 27.061733 
L 87.089458 27 
z
" clip-path="url(#p1060ee1706)" style="fill: #eeeeee; stroke: #000000; stroke-width: 0.3"/>
    <path d="M 86.690546 64.737738 
L 86.834312 64.743209 
L 86.815745 64.762912 
z
" clip-path="url(#p1060ee1706)" style="fill: #eeeeee; stroke: #000000; stroke-width: 0.3"/>
    <path d="M 85.293052 66.220067 
L 86.115491 66.289682 
L 85.910855 66.367841 
z
" clip-path="url(#p1060ee1706)" style="fill: #eeeeee; stroke: #000000; stroke-width: 0.3"/>
    <path d="M 84.657122 65.631161 
L 84.695982 65.448141 
L 84.74908 65.698592 
z
" clip-path="url(#p1060ee1706)" style="fill: #eeeeee; stroke: #000000; stroke-width: 0.3"/>
    <path d="M 80.281166 58.610301 
L 80.333835 58.564107 
L 80.33254 58.621245 
z
" clip-path="url(#p1060ee1706)" style="fill: #eeeeee; stroke: #000000; stroke-width: 0.3"/>
    <path d="M 78.527068 60.894106 
L 78.537859 60.856234 
L 78.569806 60.912932 
z
" clip-path="url(#p1060ee1706)" style="fill: #eeeeee; stroke: #000000; stroke-width: 0.3"/>
    <path d="M 75.535646 45.568616 
L 75.726903 45.552195 
L 75.745035 45.645456 
z
" clip-path="url(#p1060ee1706)" style="fill: #eeeeee; stroke: #000000; stroke-width: 0.3"/>
    <path d="M 68.66259 43.015535 
L 68.697996 43.030422 
L 68.734261 43.090627 
z
" clip-path="url(#p1060ee1706)" style="fill: #eeeeee; stroke: #000000; stroke-width: 0.3"/>
    <path d="M 67.294025 42.613813 
L 67.3182 42.600674 
L 67.329425 42.627167 
z
" clip-path="url(#p1060ee1706)" style="fill: #eeeeee; stroke: #000000; stroke-width: 0.3"/>
    <path d="M 74.469287 1.738462 
L 74.562539 1.854057 
L 74.519366 1.900687 
z
" clip-path="url(#p1060ee1706)" style="fill: #eeeeee; stroke: #000000; stroke-width: 0.3"/>
    <path d="M -1207.505286 6.629424 
L -1207.447864 6.530035 
L -1207.427572 6.623732 
z
" clip-path="url(#p1060ee1706)" style="fill: #eeeeee; stroke: #000000; stroke-width: 0.3"/>
    <path d="M -1658.497498 107.631991 
L -1658.385684 107.612288 
L -1658.469869 107.699857 
z
" clip-path="url(#p1060ee1706)" style="fill: #eeeeee; stroke: #000000; stroke-width: 0.3"/>
    <path d="M -1669.498271 73.926156 
L -1669.327093 73.917623 
L -1669.33616 74.029489 
z
" clip-path="url(#p1060ee1706)" style="fill: #eeeeee; stroke: #000000; stroke-width: 0.3"/>
    <path d="M -1671.071478 71.011855 
L -1670.99247 70.931727 
L -1670.99247 71.011855 
z
" clip-path="url(#p1060ee1706)" style="fill: #eeeeee; stroke: #000000; stroke-width: 0.3"/>
    <path d="M -1708.808734 15.521423 
L -1708.808734 15.512664 
L -1708.803986 15.519454 
z
" clip-path="url(#p1060ee1706)" style="fill: #eeeeee; stroke: #000000; stroke-width: 0.3"/>
    <path d="M -1708.944081 15.464941 
L -1708.846729 15.421157 
L -1708.828596 15.422034 
z
" clip-path="url(#p1060ee1706)" style="fill: #eeeeee; stroke: #000000; stroke-width: 0.3"/>
    <path d="M -1708.998909 15.631761 
L -1708.989195 15.610746 
L -1708.855148 15.58491 
z
" clip-path="url(#p1060ee1706)" style="fill: #eeeeee; stroke: #000000; stroke-width: 0.3"/>
    <path d="M -1745.680172 104.414481 
L -1745.656856 104.392804 
L -1745.654915 104.428712 
z
" clip-path="url(#p1060ee1706)" style="fill: #eeeeee; stroke: #000000; stroke-width: 0.3"/>
    <path d="M -1745.761769 104.584147 
L -1745.748814 104.545834 
L -1745.740395 104.56926 
z
" clip-path="url(#p1060ee1706)" style="fill: #eeeeee; stroke: #000000; stroke-width: 0.3"/>
    <path d="M -1746.616797 101.293294 
L -1746.609025 101.266586 
L -1746.593486 101.285632 
z
" clip-path="url(#p1060ee1706)" style="fill: #eeeeee; stroke: #000000; stroke-width: 0.3"/>
    <path d="M -1750.302647 -46.13804 
L -1750.236807 -46.156209 
L -1750.22774 -46.146579 
z
" clip-path="url(#p1060ee1706)" style="fill: #eeeeee; stroke: #000000; stroke-width: 0.3"/>
    <path d="M -1750.590822 -46.102358 
L -1750.5293 -46.184014 
L -1750.498435 -46.127533 
z
" clip-path="url(#p1060ee1706)" style="fill: #eeeeee; stroke: #000000; stroke-width: 0.3"/>
    <path d="M 29.364435 68.26196 
L 30.204136 68.280134 
L 30.326317 68.975871 
L 29.617421 69.009148 
z
" clip-path="url(#p1060ee1706)" style="fill: #eeeeee; stroke: #000000; stroke-width: 0.3"/>
    <path d="M 54.742066 77.163153 
L 55.137524 76.690283 
L 55.288627 77.239779 
z
" clip-path="url(#p1060ee1706)" style="fill: #eeeeee; stroke: #000000; stroke-width: 0.3"/>
    <path d="M 28.339089 69.41328 
L 28.390463 69.39007 
L 28.374054 69.43889 
z
" clip-path="url(#p1060ee1706)" style="fill: #eeeeee; stroke: #000000; stroke-width: 0.3"/>
    <path d="M 24.197122 74.514621 
L 24.226045 74.517252 
L 24.199711 74.521632 
z
" clip-path="url(#p1060ee1706)" style="fill: #eeeeee; stroke: #000000; stroke-width: 0.3"/>
    <path d="M 12.09243 85.335553 
L 12.172727 85.277318 
L 12.185682 85.363138 
z
" clip-path="url(#p1060ee1706)" style="fill: #eeeeee; stroke: #000000; stroke-width: 0.3"/>
    <path d="M 11.677975 100.634336 
L 11.778998 100.646592 
L 11.694808 100.668049 
z
" clip-path="url(#p1060ee1706)" style="fill: #eeeeee; stroke: #000000; stroke-width: 0.3"/>
    <path d="M 11.569609 100.395711 
L 11.60242 100.359803 
L 11.644728 100.42767 
z
" clip-path="url(#p1060ee1706)" style="fill: #eeeeee; stroke: #000000; stroke-width: 0.3"/>
    <path d="M 11.532914 85.262872 
L 11.641709 85.289359 
L 11.545863 85.344748 
z
" clip-path="url(#p1060ee1706)" style="fill: #eeeeee; stroke: #000000; stroke-width: 0.3"/>
    <path d="M 11.271286 100.393737 
L 11.329572 100.405342 
L 11.29719 100.439711 
z
" clip-path="url(#p1060ee1706)" style="fill: #eeeeee; stroke: #000000; stroke-width: 0.3"/>
    <path d="M 5.771979 77.040559 
L 5.906679 77.014287 
L 5.890705 77.063984 
z
" clip-path="url(#p1060ee1706)" style="fill: #eeeeee; stroke: #000000; stroke-width: 0.3"/>
    <path d="M -3.93146 65.661812 
L -3.785104 65.452305 
L -3.605508 65.478356 
z
" clip-path="url(#p1060ee1706)" style="fill: #eeeeee; stroke: #000000; stroke-width: 0.3"/>
    <path d="M -3.947433 66.04274 
L -3.940526 65.955386 
L -3.88181 66.059816 
z
" clip-path="url(#p1060ee1706)" style="fill: #eeeeee; stroke: #000000; stroke-width: 0.3"/>
    <path d="M -5.459765 66.102724 
L -5.097548 65.863658 
L -5.054376 66.138191 
z
" clip-path="url(#p1060ee1706)" style="fill: #eeeeee; stroke: #000000; stroke-width: 0.3"/>
    <path d="M -11.632132 59.41331 
L -11.607092 59.420535 
L -11.617023 59.469792 
z
" clip-path="url(#p1060ee1706)" style="fill: #eeeeee; stroke: #000000; stroke-width: 0.3"/>
    <path d="M -13.119424 57.263925 
L -13.073228 57.260859 
L -13.086183 57.288443 
z
" clip-path="url(#p1060ee1706)" style="fill: #eeeeee; stroke: #000000; stroke-width: 0.3"/>
    <path d="M -15.540964 59.315233 
L -15.437786 59.251746 
L -15.429579 59.298592 
z
" clip-path="url(#p1060ee1706)" style="fill: #eeeeee; stroke: #000000; stroke-width: 0.3"/>
    <path d="M -17.402563 69.507198 
L -17.367592 69.455752 
L -17.361115 69.5223 
z
" clip-path="url(#p1060ee1706)" style="fill: #eeeeee; stroke: #000000; stroke-width: 0.3"/>
    <path d="M -18.124408 65.895622 
L -18.085119 65.903063 
L -18.098504 65.946853 
z
" clip-path="url(#p1060ee1706)" style="fill: #eeeeee; stroke: #000000; stroke-width: 0.3"/>
    <path d="M -64.094871 53.090592 
L -64.061195 53.017689 
L -64.002049 53.032797 
z
" clip-path="url(#p1060ee1706)" style="fill: #eeeeee; stroke: #000000; stroke-width: 0.3"/>
    <path d="M -77.077689 54.968951 
L -76.76944 54.140769 
L -76.365345 54.381799 
z
" clip-path="url(#p1060ee1706)" style="fill: #eeeeee; stroke: #000000; stroke-width: 0.3"/>
   </g>
   <g id="PatchCollection_2">
    <path d="M 97.816088 67.111957 
L 98.828049 67.538859 
L 99.714812 67.354962 
L 98.874675 67.582208 
L 98.699397 67.556592 
L 97.949924 67.217916 
z
" clip-path="url(#p1060ee1706)" style="fill: #ff6b6b; stroke: #dd0000; stroke-width: 0.5"/>
    <path d="M 102.658314 72.96202 
L 102.754155 72.993107 
L 103.090037 73.035358 
L 102.732569 73.04784 
z
" clip-path="url(#p1060ee1706)" style="fill: #ff6b6b; stroke: #dd0000; stroke-width: 0.5"/>
    <path d="M 102.359556 67.457859 
L 102.48303 67.273085 
L 102.554696 67.309865 
L 102.448924 67.449977 
z
" clip-path="url(#p1060ee1706)" style="fill: #ff6b6b; stroke: #dd0000; stroke-width: 0.5"/>
    <path d="M 100.689649 67.69254 
L 101.64117 68.096458 
L 100.883924 67.913653 
L 100.77081 67.864176 
z
" clip-path="url(#p1060ee1706)" style="fill: #ff6b6b; stroke: #dd0000; stroke-width: 0.5"/>
    <path d="M 85.347885 81 
L 85.611237 80.910021 
L 85.786516 80.702703 
L 85.644908 80.9352 
z
" clip-path="url(#p1060ee1706)" style="fill: #ff6b6b; stroke: #dd0000; stroke-width: 0.5"/>
    <path d="M 82.328404 75.525173 
L 82.354304 75.492993 
L 82.372436 75.311722 
L 82.390569 75.470003 
z
" clip-path="url(#p1060ee1706)" style="fill: #ff6b6b; stroke: #dd0000; stroke-width: 0.5"/>
    <path d="M 101.680888 67.841412 
L 101.712835 67.791058 
L 101.876029 67.60913 
z
" clip-path="url(#p1060ee1706)" style="fill: #ff6b6b; stroke: #dd0000; stroke-width: 0.5"/>
    <path d="M 101.461573 72.877738 
L 101.569504 72.879051 
L 101.579865 72.900943 
z
" clip-path="url(#p1060ee1706)" style="fill: #ff6b6b; stroke: #dd0000; stroke-width: 0.5"/>
    <path d="M 96.961273 50.26364 
L 96.982859 50.260573 
L 96.983723 50.325594 
z
" clip-path="url(#p1060ee1706)" style="fill: #ff6b6b; stroke: #dd0000; stroke-width: 0.5"/>
    <path d="M 96.764408 57.78277 
L 96.802397 57.719719 
L 96.803262 57.796565 
z
" clip-path="url(#p1060ee1706)" style="fill: #ff6b6b; stroke: #dd0000; stroke-width: 0.5"/>
    <path d="M 93.588641 54.674937 
L 93.61584 54.676691 
L 93.632678 54.723101 
z
" clip-path="url(#p1060ee1706)" style="fill: #ff6b6b; stroke: #dd0000; stroke-width: 0.5"/>
    <path d="M 90.280769 74.409319 
L 90.494471 73.634116 
L 90.913675 73.256035 
z
" clip-path="url(#p1060ee1706)" style="fill: #ff6b6b; stroke: #dd0000; stroke-width: 0.5"/>
    <path d="M 87.62437 75.27363 
L 87.63473 75.213866 
L 87.656746 75.223717 
z
" clip-path="url(#p1060ee1706)" style="fill: #ff6b6b; stroke: #dd0000; stroke-width: 0.5"/>
    <path d="M 86.94958 27.127195 
L 87.007867 27.061733 
L 87.089458 27 
z
" clip-path="url(#p1060ee1706)" style="fill: #ff6b6b; stroke: #dd0000; stroke-width: 0.5"/>
    <path d="M 86.690546 64.737738 
L 86.834312 64.743209 
L 86.815745 64.762912 
z
" clip-path="url(#p1060ee1706)" style="fill: #ff6b6b; stroke: #dd0000; stroke-width: 0.5"/>
    <path d="M 85.293052 66.220067 
L 86.115491 66.289682 
L 85.910855 66.367841 
z
" clip-path="url(#p1060ee1706)" style="fill: #ff6b6b; stroke: #dd0000; stroke-width: 0.5"/>
    <path d="M 84.657122 65.631161 
L 84.695982 65.448141 
L 84.74908 65.698592 
z
" clip-path="url(#p1060ee1706)" style="fill: #ff6b6b; stroke: #dd0000; stroke-width: 0.5"/>
    <path d="M 80.281166 58.610301 
L 80.333835 58.564107 
L 80.33254 58.621245 
z
" clip-path="url(#p1060ee1706)" style="fill: #ff6b6b; stroke: #dd0000; stroke-width: 0.5"/>
    <path d="M 78.527068 60.894106 
L 78.537859 60.856234 
L 78.569806 60.912932 
z
" clip-path="url(#p1060ee1706)" style="fill: #ff6b6b; stroke: #dd0000; stroke-width: 0.5"/>
    <path d="M 75.535646 45.568616 
L 75.726903 45.552195 
L 75.745035 45.645456 
z
" clip-path="url(#p1060ee1706)" style="fill: #ff6b6b; stroke: #dd0000; stroke-width: 0.5"/>
    <path d="M 68.66259 43.015535 
L 68.697996 43.030422 
L 68.734261 43.090627 
z
" clip-path="url(#p1060ee1706)" style="fill: #ff6b6b; stroke: #dd0000; stroke-width: 0.5"/>
    <path d="M 67.294025 42.613813 
L 67.3182 42.600674 
L 67.329425 42.627167 
z
" clip-path="url(#p1060ee1706)" style="fill: #ff6b6b; stroke: #dd0000; stroke-width: 0.5"/>
   </g>
  </g>
 </g>
 <defs>
  <clipPath id="p1060ee1706">
   <rect x="0" y="0" width="170.384062" height="108"/>
  </clipPath>
 </defs>
</svg>
