<?xml version="1.0" encoding="utf-8" standalone="no"?>
<!DOCTYPE svg PUBLIC "-//W3C//DTD SVG 1.1//EN"
  "http://www.w3.org/Graphics/SVG/1.1/DTD/svg11.dtd">
<svg xmlns:xlink="http://www.w3.org/1999/xlink" width="161.311987pt" height="108pt" viewBox="0 0 161.311987 108" xmlns="http://www.w3.org/2000/svg" version="1.1">
 <metadata>
  <rdf:RDF xmlns:dc="http://purl.org/dc/elements/1.1/" xmlns:cc="http://creativecommons.org/ns#" xmlns:rdf="http://www.w3.org/1999/02/22-rdf-syntax-ns#">
   <cc:Work>
    <dc:type rdf:resource="http://purl.org/dc/dcmitype/StillImage"/>
    <dc:date>2025-09-05T15:49:29.289783</dc:date>
    <dc:format>image/svg+xml</dc:format>
    <dc:creator>
     <cc:Agent>
      <dc:title>Matplotlib v3.10.3, https://matplotlib.org/</dc:title>
     </cc:Agent>
    </dc:creator>
   </cc:Work>
  </rdf:RDF>
 </metadata>
 <defs>
  <style type="text/css">*{stroke-linejoin: round; stroke-linecap: butt}</style>
 </defs>
 <g id="figure_1">
  <g id="patch_1">
   <path d="M 0 108 
L 161.311987 108 
L 161.311987 0 
L 0 0 
z
" style="fill: #ffffff"/>
  </g>
  <g id="axes_1">
   <g id="PatchCollection_1">
    <path d="M 50.158914 51.794658 
L 50.62448 49.044699 
L 51.700044 47.193806 
L 52.90573 46.645627 
L 53.79437 43.836026 
L 54.428882 43.333581 
L 54.178429 42.789344 
L 56.390018 39.060204 
L 56.377351 38.392761 
L 55.274215 39.828308 
L 55.551633 39.130232 
L 60.792974 34.123762 
L 61.176416 30.765105 
L 62.709373 27.50208 
L 62.949203 26.118394 
L 67.492909 23.134383 
L 69.450165 18.100996 
L 70.549013 16.790838 
L 75.022041 15.928199 
L 77.913081 14.655682 
L 80.034171 12.360556 
L 82.490701 11.080381 
L 84.12437 9.418779 
L 87.102842 4.968362 
L 87.321224 3.476141 
L 85.931065 2.164451 
L 86.310831 1.202457 
L 86.136981 -1.891406 
L 88.997587 -6.1626 
L 89.087063 -8.207813 
L 92.75582 -11.928423 
L 97.77653 -13.885668 
L 101.32619 -16.074438 
L 103.987 -20.598384 
L 105.818828 -25.438322 
L 108.471544 -26.211449 
L 109.221804 -24.383541 
L 110.14129 -23.484579 
L 111.626241 -22.535713 
L 113.606581 -22.056034 
L 115.899473 -22.674456 
L 116.561563 -22.364589 
L 117.00282 -22.803567 
L 118.91227 -22.324759 
L 120.128177 -22.787809 
L 120.672797 -23.640386 
L 121.23765 -21.945521 
L 121.779614 -21.863021 
L 121.125497 -22.564163 
L 122.188188 -21.821444 
L 124.153612 -21.828666 
L 126.692644 -19.84835 
L 126.182585 -19.070178 
L 127.026809 -18.441108 
L 126.491321 -17.86443 
L 127.194147 -16.287382 
L 126.8068 -14.260798 
L 127.456705 -13.465121 
L 127.171058 -11.763145 
L 128.048231 -10.807105 
L 127.750651 -10.126486 
L 128.430649 -9.097907 
L 130.395405 -7.764178 
L 129.330394 -7.024776 
L 129.001937 -6.005786 
L 129.574009 -5.890728 
L 129.500067 -5.587519 
L 122.944226 -5.816248 
L 121.111529 -5.51554 
L 120.822639 -5.366853 
L 121.379389 -4.000543 
L 117.203977 -3.211233 
L 117.133805 -1.820539 
L 116.422374 -1.540472 
L 116.283572 -0.642521 
L 116.842932 -0.67559 
L 117.730292 0.509807 
L 117.203977 1.148779 
L 117.274154 1.825332 
L 113.625052 2.915334 
L 109.589993 5.771891 
L 107.76544 8.214999 
L 106.853168 8.214999 
L 106.677731 7.726376 
L 104.081255 7.914307 
L 101.519866 8.628448 
L 99.695318 8.290174 
L 98.677781 8.966727 
L 97.151541 9.005696 
L 92.06077 12.579454 
L 91.986572 18.227729 
L 91.310561 18.227595 
L 91.426695 21.138648 
L 88.323252 21.311928 
L 86.29091 22.59341 
L 85.212279 22.267828 
L 84.114062 22.535601 
L 81.572048 21.679615 
L 78.385064 22.414708 
L 78.659555 23.75928 
L 76.75006 26.605995 
L 75.02918 27.215194 
L 73.170929 33.454463 
L 70.359228 35.392524 
L 68.753539 38.023719 
L 65.841046 39.583677 
L 64.78706 42.76112 
L 64.183987 47.009936 
L 62.12726 49.42588 
L 62.227796 50.019374 
L 61.524186 51.363806 
L 60.418705 51.684247 
L 55.047479 51.363806 
z
" clip-path="url(#p27af038e09)" style="fill: #eeeeee; stroke: #000000; stroke-width: 0.3"/>
    <path d="M 49.702544 54.792797 
L 50.158914 51.794658 
L 55.047479 51.363806 
L 60.418705 51.684247 
L 61.524186 51.363806 
L 62.227796 50.019374 
L 62.12726 49.42588 
L 64.183987 47.009936 
L 64.78706 42.76112 
L 65.841046 39.583677 
L 68.753539 38.023719 
L 70.359228 35.392524 
L 73.170929 33.454463 
L 75.02918 27.215194 
L 76.75006 26.605995 
L 78.659555 23.75928 
L 78.385064 22.414708 
L 81.572048 21.679615 
L 84.114062 22.535601 
L 85.212279 22.267828 
L 86.29091 22.59341 
L 88.323252 21.311928 
L 91.426695 21.138648 
L 91.310561 18.227595 
L 91.986572 18.227729 
L 91.960109 27.162946 
L 75.253602 27.19046 
L 75.233364 40.817912 
L 72.220592 41.840651 
L 70.233399 43.200367 
L 69.545358 44.26521 
L 70.233399 52.26009 
L 50.4346 52.263151 
L 49.942374 55.306837 
z
" clip-path="url(#p27af038e09)" style="fill: #eeeeee; stroke: #000000; stroke-width: 0.3"/>
    <path d="M 88.9886 -64.55961 
L 89.851089 -65.02288 
L 89.29952 -65.099254 
L 90.730742 -65.529261 
L 90.452099 -65.78595 
L 91.24554 -66.098883 
L 91.932752 -65.841753 
L 93.752115 -66.445514 
L 94.357211 -65.948324 
L 94.531875 -66.50285 
L 93.880409 -66.689737 
L 94.566195 -66.909882 
L 93.740065 -66.799589 
L 93.84282 -67.313849 
L 95.871573 -68.385253 
L 96.123457 -67.85743 
L 96.991262 -68.530999 
L 96.961028 -68.174956 
L 98.590198 -67.921327 
L 99.072107 -67.281678 
L 100.210588 -67.272271 
L 100.209157 -66.840946 
L 100.714356 -67.307718 
L 105.106277 -67.327633 
L 106.195527 -67.829201 
L 107.072725 -67.281678 
L 108.496592 -67.249947 
L 108.39588 -66.988004 
L 113.076255 -66.326907 
L 116.364427 -66.936799 
L 116.653493 -66.840946 
L 116.442466 -66.552086 
L 117.606074 -67.051029 
L 118.348648 -66.77464 
L 118.200131 -66.482064 
L 120.47403 -65.989687 
L 120.782706 -66.580536 
L 121.676658 -66.697395 
L 122.066229 -66.240471 
L 124.893941 -65.809587 
L 126.569395 -66.33983 
L 126.803948 -65.828846 
L 128.530276 -65.572469 
L 128.260975 -64.506233 
L 129.119984 -64.850992 
L 129.803356 -64.294595 
L 131.76266 -63.976102 
L 132.719745 -63.041047 
L 133.955985 -63.41679 
L 135.381102 -62.570532 
L 136.425875 -62.792727 
L 136.959153 -62.482015 
L 138.873709 -62.585817 
L 138.871631 -63.394837 
L 139.657742 -63.358288 
L 142.31702 -62.696981 
L 142.845765 -61.22332 
L 144.146604 -61.589754 
L 145.663822 -60.752386 
L 147.010328 -61.190944 
L 148.202202 -60.637193 
L 150.305243 -61.414666 
L 151.546654 -61.206315 
L 151.578675 -60.765476 
L 152.233203 -60.622796 
L 151.234659 -60.059956 
L 151.803794 -58.595524 
L 150.301673 -57.339389 
L 146.959791 -55.920503 
L 146.272981 -55.140799 
L 140.684562 -53.786224 
L 139.162228 -52.513923 
L 139.884584 -51.820439 
L 138.975922 -51.169195 
L 138.551011 -51.260229 
L 139.254977 -51.537925 
L 138.405557 -51.302899 
L 133.953163 -45.527884 
L 134.783174 -42.763146 
L 136.754115 -41.365456 
L 133.016929 -39.193315 
L 133.046138 -38.488016 
L 132.445339 -38.247079 
L 131.757303 -36.277143 
L 131.278462 -35.988718 
L 132.03554 -35.327406 
L 128.930741 -35.017937 
L 127.187857 -33.949409 
L 126.475718 -33.109089 
L 126.035896 -31.679232 
L 124.899458 -30.577845 
L 123.719709 -31.117705 
L 122.720146 -31.02098 
L 121.929561 -30.285484 
L 120.850117 -30.659904 
L 113.47032 -30.510442 
L 112.184758 -29.347562 
L 109.537424 -28.828925 
L 108.773207 -27.376421 
L 108.338069 -27.584202 
L 108.271879 -26.955277 
L 107.402648 -26.652191 
L 105.268891 -27.636724 
L 103.897118 -29.490022 
L 104.291388 -29.159584 
L 104.553077 -29.379293 
L 103.472001 -30.042794 
L 103.277928 -30.6575 
L 103.718367 -30.892961 
L 103.755544 -31.370236 
L 104.332652 -31.470247 
L 104.475445 -31.630432 
L 103.722861 -31.464557 
L 103.505503 -30.963866 
L 102.945355 -31.778581 
L 100.970733 -32.891348 
L 101.172568 -33.583299 
L 100.620999 -33.253081 
L 100.792189 -32.922422 
L 98.352412 -33.032495 
L 97.850738 -35.229886 
L 99.063888 -37.249935 
L 100.312584 -37.494921 
L 100.696558 -38.431089 
L 99.913303 -38.307136 
L 98.629584 -39.774128 
L 99.075305 -41.339921 
L 100.151471 -41.972605 
L 100.567094 -42.82665 
L 99.137313 -43.888019 
L 98.858931 -45.211746 
L 97.635142 -46.407625 
L 100.326853 -46.484053 
L 101.036944 -48.17908 
L 100.216592 -49.105105 
L 101.465027 -50.046414 
L 101.150322 -50.50748 
L 101.355801 -52.737773 
L 100.721726 -53.593765 
L 101.415214 -53.854176 
L 102.207028 -54.946947 
L 103.841254 -55.71817 
L 104.419552 -56.574716 
L 102.734734 -57.051346 
L 102.821649 -58.17275 
L 102.39357 -58.683149 
L 99.703155 -58.818493 
L 99.335267 -58.235281 
L 98.210327 -57.842167 
L 96.808043 -58.343944 
L 95.931648 -58.12175 
L 95.883908 -58.422458 
L 94.510939 -57.867734 
L 94.256691 -58.373126 
L 94.935127 -59.105858 
L 94.388228 -59.259826 
L 94.296122 -59.712002 
L 92.26521 -59.160192 
L 90.988139 -58.311918 
L 90.916641 -59.526223 
L 91.262906 -59.587715 
L 92.286166 -60.754537 
L 91.057191 -60.264785 
L 92.122738 -61.259385 
L 91.177306 -61.056961 
L 90.68008 -61.409723 
L 91.262906 -61.369673 
L 91.742771 -62.58814 
L 90.259658 -61.806688 
L 90.24066 -62.691867 
L 90.955862 -63.355588 
L 89.888677 -62.95972 
L 89.716669 -63.820391 
L 89.021078 -63.690183 
z
" clip-path="url(#p27af038e09)" style="fill: #eeeeee; stroke: #000000; stroke-width: 0.3"/>
    <path d="M 147.378572 -45.851976 
L 149.700477 -47.444427 
L 151.539043 -47.961753 
L 151.12475 -47.664578 
L 151.676324 -47.554285 
L 151.323316 -46.993634 
L 153.019701 -46.783551 
L 152.916741 -46.299494 
L 151.906348 -44.828495 
L 150.943349 -44.198693 
L 150.431408 -44.705074 
L 149.566876 -44.773349 
L 149.039818 -45.756128 
L 148.091118 -45.280606 
z
" clip-path="url(#p27af038e09)" style="fill: #eeeeee; stroke: #000000; stroke-width: 0.3"/>
    <path d="M 65.955664 11.755483 
L 66.30111 10.770294 
L 67.612824 10.28536 
L 67.885136 9.738493 
L 68.212403 9.905245 
L 67.889836 11.031801 
L 66.420819 11.891596 
z
" clip-path="url(#p27af038e09)" style="fill: #eeeeee; stroke: #000000; stroke-width: 0.3"/>
    <path d="M 50.649342 14.497885 
L 52.702344 14.125917 
L 53.659951 13.330208 
L 54.65727 13.330208 
L 53.463558 14.357087 
L 52.508396 16.277896 
L 51.770798 16.407754 
z
" clip-path="url(#p27af038e09)" style="fill: #eeeeee; stroke: #000000; stroke-width: 0.3"/>
    <path d="M 62.743693 16.024046 
L 64.162655 15.231435 
L 65.426769 12.449187 
L 66.171185 12.740236 
L 65.622272 15.093568 
L 63.56655 16.134339 
z
" clip-path="url(#p27af038e09)" style="fill: #eeeeee; stroke: #000000; stroke-width: 0.3"/>
    <path d="M 154.670324 -48.227197 
L 156.186116 -48.556759 
L 157.35095 -47.415327 
L 156.904386 -47.142659 
L 154.808418 -47.78581 
z
" clip-path="url(#p27af038e09)" style="fill: #eeeeee; stroke: #000000; stroke-width: 0.3"/>
    <path d="M 141.684742 -42.13356 
L 142.388296 -43.169082 
L 143.639342 -43.24261 
L 143.725137 -42.908671 
L 142.620866 -41.849604 
z
" clip-path="url(#p27af038e09)" style="fill: #eeeeee; stroke: #000000; stroke-width: 0.3"/>
    <path d="M 56.146102 16.827602 
L 56.72341 15.506726 
L 58.214079 15.4402 
L 58.37199 17.201372 
L 57.367315 17.835551 
z
" clip-path="url(#p27af038e09)" style="fill: #eeeeee; stroke: #000000; stroke-width: 0.3"/>
    <path d="M 48.504766 15.881711 
L 48.673194 15.293046 
L 49.159943 15.302016 
L 49.733792 15.865017 
L 48.933181 16.274793 
z
" clip-path="url(#p27af038e09)" style="fill: #eeeeee; stroke: #000000; stroke-width: 0.3"/>
    <path d="M 45.223387 12.21153 
L 45.653499 11.805369 
L 46.433575 12.004954 
L 46.607902 12.477491 
L 46.025413 13.957821 
z
" clip-path="url(#p27af038e09)" style="fill: #eeeeee; stroke: #000000; stroke-width: 0.3"/>
    <path d="M 131.788561 -36.160283 
L 131.860675 -35.773386 
L 131.929311 -35.572935 
L 131.826762 -35.67294 
z
" clip-path="url(#p27af038e09)" style="fill: #eeeeee; stroke: #000000; stroke-width: 0.3"/>
    <path d="M 44.402162 17.900109 
L 45.539011 17.202684 
L 45.813568 17.404447 
L 45.310412 18.329455 
z
" clip-path="url(#p27af038e09)" style="fill: #eeeeee; stroke: #000000; stroke-width: 0.3"/>
    <path d="M 150.204391 -43.568886 
L 150.540604 -43.749572 
L 150.448086 -43.375809 
z
" clip-path="url(#p27af038e09)" style="fill: #eeeeee; stroke: #000000; stroke-width: 0.3"/>
    <path d="M 145.354052 -61.312531 
L 145.399713 -61.476782 
L 145.615048 -61.273067 
z
" clip-path="url(#p27af038e09)" style="fill: #eeeeee; stroke: #000000; stroke-width: 0.3"/>
    <path d="M 142.519678 -40.826607 
L 142.76255 -41.433294 
L 143.515953 -40.885771 
z
" clip-path="url(#p27af038e09)" style="fill: #eeeeee; stroke: #000000; stroke-width: 0.3"/>
    <path d="M 123.369629 -22.200833 
L 123.37977 -22.239942 
L 123.39429 -22.218839 
z
" clip-path="url(#p27af038e09)" style="fill: #eeeeee; stroke: #000000; stroke-width: 0.3"/>
    <path d="M 120.696941 -22.778721 
L 120.906502 -22.78825 
L 120.952259 -22.728726 
z
" clip-path="url(#p27af038e09)" style="fill: #eeeeee; stroke: #000000; stroke-width: 0.3"/>
    <path d="M 115.990013 -22.408173 
L 115.996816 -22.411088 
L 115.997493 -22.40799 
z
" clip-path="url(#p27af038e09)" style="fill: #eeeeee; stroke: #000000; stroke-width: 0.3"/>
    <path d="M 115.983863 -22.394556 
L 115.984887 -22.400568 
L 115.986754 -22.398197 
z
" clip-path="url(#p27af038e09)" style="fill: #eeeeee; stroke: #000000; stroke-width: 0.3"/>
    <path d="M 113.978912 -22.168016 
L 113.994898 -22.167736 
L 114.00394 -22.165784 
z
" clip-path="url(#p27af038e09)" style="fill: #eeeeee; stroke: #000000; stroke-width: 0.3"/>
    <path d="M 108.471544 -26.211449 
L 109.052864 -26.14253 
L 108.574254 -25.981177 
z
" clip-path="url(#p27af038e09)" style="fill: #eeeeee; stroke: #000000; stroke-width: 0.3"/>
    <path d="M 108.361189 -26.156405 
L 108.385638 -26.152436 
L 108.376009 -26.138146 
z
" clip-path="url(#p27af038e09)" style="fill: #eeeeee; stroke: #000000; stroke-width: 0.3"/>
    <path d="M 67.592601 9.795173 
L 67.758685 9.472178 
L 67.839786 9.723833 
z
" clip-path="url(#p27af038e09)" style="fill: #eeeeee; stroke: #000000; stroke-width: 0.3"/>
    <path d="M 59.870014 108.59365 
L 61.71955 105.15784 
L 62.674034 105.075437 
L 63.835036 104.236677 
L 65.213452 104.407322 
L 65.941838 103.834253 
L 66.645317 104.016289 
L 66.67541 102.440768 
L 65.427366 101.640643 
L 66.092704 100.9653 
L 66.820567 100.880257 
L 66.653615 98.834221 
L 69.926089 99.035715 
L 70.048936 99.915881 
L 70.746053 99.571261 
L 73.518454 100.812165 
L 74.808398 100.264949 
L 77.932857 100.152666 
L 78.399855 100.388063 
L 77.801581 101.425258 
L 78.670711 102.314873 
L 79.391179 102.378237 
L 80.088302 101.366615 
L 80.591362 101.275458 
L 81.8001 103.045245 
L 82.802841 101.820733 
L 84.031299 101.284353 
L 86.762185 102.319041 
L 87.238265 101.54059 
L 88.700995 101.00449 
L 88.839797 100.531748 
L 88.320657 100.006759 
L 89.057211 99.792487 
L 90.512942 100.472827 
L 90.420711 101.246556 
L 91.40698 102.858481 
L 91.158951 104.295319 
L 91.765007 104.340898 
L 92.115253 105.163955 
L 93.528175 105.856524 
L 91.894471 107.949672 
L 92.603266 107.986495 
L 92.873345 107.549884 
L 93.772829 107.705519 
L 93.984534 110.462329 
L 95.557013 111.69629 
L 94.539742 113.524435 
L 94.621205 115.734862 
L 95.141129 116.49733 
L 96.088348 116.385326 
L 95.766122 117.600943 
L 96.683771 118.178734 
L 95.754705 118.608397 
L 95.568429 119.596399 
L 96.93465 120.607467 
L 97.10718 121.951893 
L 96.29694 121.398003 
L 96.087309 121.704412 
L 95.560386 121.295314 
L 94.163028 121.528625 
L 94.077152 122.645022 
L 95.3959 122.978111 
L 95.600079 123.886346 
L 95.06563 123.810478 
L 94.407165 126.246428 
L 93.32996 126.049666 
L 92.975306 126.345094 
L 92.56383 125.644737 
L 91.965556 125.611662 
L 91.105764 127.877531 
L 89.762376 128.323038 
L 89.215472 127.295293 
L 87.928379 127.323641 
L 88.607338 125.355979 
L 87.730426 122.970329 
L 87.886091 122.120732 
L 86.991793 121.862268 
L 87.125926 121.468181 
L 86.766598 121.625064 
L 86.508193 120.939997 
L 85.061804 121.697463 
L 84.628534 121.148294 
L 83.490104 121.306984 
L 82.588285 122.290818 
L 81.679979 122.422828 
L 82.952282 120.351364 
L 82.360755 119.582782 
L 82.388775 118.298933 
L 81.624457 118.13913 
L 81.981968 116.941723 
L 81.1956 116.480932 
L 79.348891 113.307796 
L 75.781825 113.252074 
L 75.72319 113.630183 
L 74.620822 113.884759 
L 73.941085 113.592247 
L 72.959094 113.850436 
L 71.494024 116.720083 
L 70.52125 117.124728 
L 70.51502 117.633459 
L 69.728005 118.353548 
L 68.798292 118.366751 
L 69.518192 117.592301 
L 69.007069 117.533868 
L 69.141082 117.15179 
L 68.726995 117.610683 
L 68.798292 116.670793 
L 68.262654 117.04631 
L 68.318627 116.226997 
L 67.72947 116.17185 
L 67.866545 115.529356 
L 67.561344 115.899839 
L 67.355628 115.529356 
L 66.663923 115.841412 
L 67.492909 114.350718 
L 67.040621 114.057045 
L 66.650437 114.588154 
L 66.869432 113.499674 
L 66.078441 113.960541 
L 64.996546 113.075798 
L 65.2899 112.137877 
L 64.520356 112.912547 
L 64.597782 112.24817 
L 64.172871 112.641192 
L 64.065006 112.23132 
L 63.017431 112.057781 
L 62.603345 110.478684 
L 61.987017 110.632738 
L 62.778008 108.41946 
L 61.775995 109.753029 
L 62.019294 108.855814 
L 61.472219 109.450599 
L 61.571911 108.522746 
L 61.229327 108.783162 
L 61.173966 108.306979 
L 61.95229 107.641289 
L 61.849536 107.491386 
L 61.054663 108.008707 
L 60.677759 107.678053 
L 60.471838 109.080116 
z
" clip-path="url(#p27af038e09)" style="fill: #eeeeee; stroke: #000000; stroke-width: 0.3"/>
    <path d="M 74.004389 87.531974 
L 74.977037 87.75 
L 76.232215 86.859551 
L 76.105346 85.35851 
L 76.700769 83.41114 
L 77.264015 83.41114 
L 77.7183 82.860997 
L 80.77686 85.768162 
L 81.729793 83.992545 
L 85.031967 84.359951 
L 88.26384 83.952381 
L 88.124259 83.157538 
L 88.602408 82.568491 
L 88.638731 83.655986 
L 107.908785 83.663768 
L 108.700344 79.265706 
L 107.3445 78.104843 
L 102.475811 32.57263 
L 111.369613 32.567623 
L 141.332699 53.506276 
L 141.37317 55.4581 
L 143.407199 56.217927 
L 144.503598 57.794841 
L 145.975154 58.284394 
L 146.625832 57.958253 
L 147.6278 59.127178 
L 151.63618 60.39657 
L 151.947506 62.720941 
L 151.160878 64.080518 
L 152.06841 64.832289 
L 156.80634 64.044388 
L 156.582179 78.70598 
L 155.962633 79.339079 
L 155.012035 82.477333 
L 153.281561 83.654319 
L 153.184008 84.4179 
L 150.80648 84.028115 
L 150.638886 84.497796 
L 142.261503 84.796283 
L 140.465125 86.368605 
L 138.940642 86.645693 
L 136.687388 86.343457 
L 136.673381 86.800355 
L 134.388216 85.968682 
L 133.439174 86.307602 
L 133.227469 85.891835 
L 131.963209 85.899617 
L 130.161645 87.416776 
L 127.057163 89.031482 
L 125.550322 89.168219 
L 125.35522 90.724976 
L 124.773037 90.859906 
L 123.217678 90.188876 
L 122.536385 90.504035 
L 121.18132 91.69672 
L 121.040961 93.573089 
L 120.176113 93.814462 
L 119.074393 93.325043 
L 119.266768 95.503094 
L 118.263119 95.648301 
L 118.258444 96.169816 
L 115.637046 94.997697 
L 115.906346 94.651829 
L 115.588658 94.394199 
L 113.731963 96.441343 
L 114.430768 98.050074 
L 114.201035 98.578537 
L 113.058322 98.612166 
L 113.550352 99.584045 
L 113.227086 100.114595 
L 113.455524 100.802162 
L 113.043662 100.731016 
L 112.680704 101.65176 
L 111.67251 102.420202 
L 110.025573 102.567222 
L 108.403803 103.377909 
L 109.032431 103.752265 
L 109.378007 105.563183 
L 108.80464 107.179976 
L 107.942513 107.442887 
L 108.308067 108.669061 
L 108.055891 110.33282 
L 107.850412 110.923534 
L 106.065711 111.189366 
L 105.373519 112.190705 
L 104.248578 111.856927 
L 104.546937 110.951882 
L 104.141687 110.447045 
L 104.427072 109.825756 
L 104.168411 109.3048 
L 103.309658 109.521993 
L 103.214444 110.241802 
L 102.093911 109.693746 
L 102.095212 111.270241 
L 100.627546 111.357086 
L 100.353833 112.454171 
L 98.608568 111.855534 
L 97.915342 110.745252 
L 97.09732 110.860864 
L 96.270994 112.073561 
L 95.464389 112.34064 
L 95.431184 111.446437 
L 94.263433 110.934651 
L 93.928756 110.321424 
L 93.772829 107.705519 
L 92.873345 107.549884 
L 92.603266 107.986495 
L 91.917043 108.034155 
L 93.528175 105.856524 
L 92.115253 105.163955 
L 91.765007 104.340898 
L 91.158951 104.295319 
L 91.296714 102.387687 
L 90.783021 102.211765 
L 90.512942 100.472827 
L 89.652372 99.95229 
L 88.393042 99.9106 
L 88.839797 100.531748 
L 88.700995 101.00449 
L 87.238265 101.54059 
L 86.762185 102.319041 
L 84.031299 101.284353 
L 82.802841 101.820733 
L 81.8001 103.045245 
L 80.591362 101.275458 
L 80.088302 101.366615 
L 79.391179 102.378237 
L 78.670711 102.314873 
L 77.801581 101.425258 
L 78.399855 100.388063 
L 78.454337 99.873083 
L 78.002386 99.53263 
L 78.398815 97.236052 
L 77.674712 96.47636 
L 77.272836 95.137215 
L 76.629678 94.884446 
L 76.193301 95.425134 
L 74.840309 93.289333 
L 75.516677 92.61677 
L 75.34259 90.805991 
L 74.217258 89.595516 
L 74.501997 88.247615 
z
" clip-path="url(#p27af038e09)" style="fill: #eeeeee; stroke: #000000; stroke-width: 0.3"/>
    <path d="M 47.536712 87.626342 
L 49.359548 86.854958 
L 50.839183 85.067961 
L 52.566007 82.103209 
L 52.908897 80.007468 
L 53.766872 78.197389 
L 54.584377 77.960045 
L 56.894188 78.354691 
L 57.939478 77.816359 
L 59.640898 77.809691 
L 59.728852 77.365023 
L 60.397951 77.225231 
L 63.247923 77.389756 
L 65.400642 79.125915 
L 66.113976 80.295113 
L 66.647907 79.924372 
L 66.951457 80.374881 
L 67.875331 80.110022 
L 68.723832 81.317578 
L 69.115849 82.968693 
L 69.759137 83.114045 
L 69.889002 83.67155 
L 70.489079 83.583307 
L 71.173228 84.794896 
L 70.870457 84.972345 
L 72.896051 86.228673 
L 74.501997 88.247615 
L 74.217258 89.595516 
L 75.34259 90.805991 
L 75.516677 92.61677 
L 74.840309 93.289333 
L 76.193301 95.425134 
L 76.629678 94.884446 
L 77.272836 95.137215 
L 77.674712 96.47636 
L 78.375726 97.180884 
L 78.002386 99.53263 
L 78.400889 100.283568 
L 74.808398 100.264949 
L 73.518454 100.812165 
L 70.746053 99.571261 
L 70.048936 99.915881 
L 69.849551 99.023485 
L 59.289357 98.801705 
L 56.869798 100.09319 
L 54.131909 100.008427 
L 51.591295 100.667367 
L 51.228141 99.796548 
L 52.33782 99.05251 
L 52.570907 99.415341 
L 53.386006 99.496528 
L 55.098934 99.051639 
L 56.051721 99.459763 
L 56.605945 99.274629 
L 57.03188 99.566335 
L 57.709292 99.036317 
L 57.583453 98.244582 
L 58.22654 98.15486 
L 58.302942 97.947843 
L 57.510315 98.183746 
L 57.545453 98.963229 
L 57.050677 99.446851 
L 56.414734 99.09234 
L 55.683602 99.222328 
L 55.137341 98.53519 
L 54.862784 99.019253 
L 53.386006 99.419713 
L 52.731478 98.648544 
L 52.697157 99.09234 
L 52.062033 98.855781 
L 52.282664 98.3575 
L 52.251612 98.167767 
L 51.999116 99.055576 
L 51.459803 99.378356 
L 51.347037 98.80917 
L 51.739264 98.495361 
L 51.251025 98.608719 
L 51.217111 98.07783 
L 51.691856 96.234988 
L 56.085248 96.234154 
L 56.158668 95.283955 
L 58.877881 95.032434 
L 59.577856 93.904781 
L 63.437703 95.810052 
L 65.788637 95.385949 
L 66.199591 94.768555 
L 65.347199 93.963009 
L 63.454176 94.631538 
L 62.56533 93.631312 
L 61.569592 93.767769 
L 60.875065 92.879681 
L 59.885814 92.673325 
L 58.290502 92.928455 
L 57.667326 93.941744 
L 52.429911 93.921232 
L 52.693477 93.096745 
L 52.241807 93.559354 
L 52.086754 92.987764 
L 52.45426 92.529742 
L 52.803181 92.750328 
L 52.803181 91.685485 
L 51.733747 92.941808 
L 51.499023 91.961218 
L 52.354573 91.759014 
L 52.282664 91.465119 
L 53.417264 90.797241 
L 52.895111 90.657186 
L 51.964183 91.684829 
L 51.628336 91.611956 
L 51.973782 91.164443 
L 51.594016 91.351766 
L 51.357254 92.566507 
L 51.302299 91.378463 
L 50.446142 89.601534 
L 49.102764 87.986543 
L 48.13241 87.732258 
L 48.019845 88.183713 
z
" clip-path="url(#p27af038e09)" style="fill: #eeeeee; stroke: #000000; stroke-width: 0.3"/>
    <path d="M 148.986757 124.516944 
L 149.479178 118.283095 
L 151.019746 118.078127 
L 151.303576 116.130616 
L 152.302943 115.083279 
L 152.274407 114.278152 
L 153.214105 114.03678 
L 153.597562 113.487057 
L 153.989317 112.423602 
L 153.511942 111.675305 
L 153.912001 110.868092 
L 154.516501 111.019554 
L 154.842362 109.985559 
L 154.30324 108.867909 
L 154.263286 107.229583 
L 152.989945 105.577774 
L 153.986722 103.748097 
L 153.670204 102.963536 
L 153.859075 99.669921 
L 155.302612 98.420122 
L 156.104287 97.097928 
L 156.290051 94.533991 
L 158.202654 93.34172 
L 159.960635 92.914558 
L 161.821869 93.090759 
L 163.298616 92.343436 
L 166.414515 93.631312 
L 167.551906 93.709547 
L 170.404474 97.102376 
L 171.065013 97.098762 
L 171.715174 96.446345 
L 172.688078 96.472471 
L 174.857013 95.220725 
L 176.268379 95.466131 
L 179.151301 97.488681 
L 183.724743 98.14582 
L 186.382987 95.732651 
L 189.170429 95.060368 
L 193.011209 95.117757 
L 196.112061 96.449679 
L 198.195899 96.732602 
L 198.639546 95.772115 
L 199.865148 95.071764 
L 200.051429 94.447141 
L 201.988422 94.130314 
L 202.499525 93.262372 
L 203.892209 93.291 
L 206.189564 96.658262 
L 206.812227 100.463657 
L 208.309207 100.639024 
L 209.227112 101.555321 
L 208.584216 104.016289 
L 208.983236 104.446786 
L 208.904886 105.065569 
L 206.694441 106.552019 
L 205.77498 106.348024 
L 204.632915 107.74387 
L 203.548188 109.869808 
L 203.026708 112.386778 
L 201.998799 112.968043 
L 201.824457 115.673859 
L 200.117328 116.556386 
L 200.33318 117.178508 
L 199.703257 119.885711 
L 198.623978 120.710575 
L 197.674419 120.68959 
L 197.850322 121.297535 
L 196.96251 121.890336 
L 196.787129 124.179552 
L 195.917999 125.479932 
L 195.928376 126.246987 
L 194.500408 127.930059 
L 195.181184 128.919174 
L 193.622456 130.012504 
L 193.48028 131.254662 
L 192.65889 132.272953 
L 191.372053 132.389957 
L 190.986523 130.741343 
L 188.686829 128.642365 
L 188.271723 130.020007 
L 186.84012 129.995827 
L 186.499217 129.304645 
L 185.152195 130.487741 
L 184.719964 130.44981 
L 184.240515 131.866636 
L 182.473196 133.03542 
L 180.674222 135.284618 
L 180.037551 135.544195 
L 179.853871 136.318892 
L 180.278837 136.901684 
L 179.751648 139.243562 
L 178.400483 141.667696 
L 176.652618 140.148118 
L 177.515518 141.990476 
L 177.189481 142.5299 
L 173.523792 142.654854 
L 173.455151 141.656317 
L 173.240244 142.400133 
L 172.130972 142.247165 
L 172.393279 142.633191 
L 172.130972 142.764926 
L 171.080541 141.402908 
L 171.646819 142.688773 
L 170.94081 143.132129 
L 170.94081 142.023955 
L 170.532648 141.549525 
L 170.666249 142.210842 
L 170.220909 141.803374 
L 170.839075 143.338926 
L 170.566968 143.465632 
L 170.06075 143.329734 
L 169.642376 141.086039 
L 169.292231 140.992375 
L 170.071373 143.539817 
L 169.292231 143.57264 
L 169.395191 142.210842 
L 169.18927 143.205657 
L 168.983349 142.728162 
L 169.152088 143.67002 
L 168.775389 143.669149 
L 168.69122 142.887476 
L 168.463239 142.764926 
L 168.559256 143.678996 
L 167.057758 143.906364 
L 167.369089 143.132129 
L 167.020169 143.352274 
L 166.886162 142.801691 
L 166.817521 143.866534 
L 166.265953 144.016436 
L 166.145014 143.269118 
L 166.009777 143.892359 
L 165.642471 143.242422 
L 165.506009 143.686213 
L 165.146877 143.496486 
L 163.066031 140.922347 
L 162.617012 139.42684 
L 163.16858 139.336683 
L 162.514463 139.222889 
L 162.386987 138.25236 
L 163.580418 138.047752 
L 163.359791 137.540059 
L 163.761824 137.38644 
L 163.891749 137.196929 
L 162.805773 137.754514 
L 162.857253 137.974665 
L 161.673216 137.405258 
L 161.797831 136.976343 
L 163.237627 136.925574 
L 162.925482 136.572817 
L 162.315897 136.84614 
L 162.373914 136.205394 
L 162.086279 136.781146 
L 161.327564 136.724031 
L 161.194777 135.836223 
L 162.136941 135.207513 
L 160.903467 135.974525 
L 159.413003 133.977235 
L 157.694558 132.794 
L 152.86526 132.517175 
L 152.570682 132.333359 
L 154.875427 131.438984 
L 153.225211 131.889342 
L 153.054022 131.485375 
L 152.658114 131.754541 
L 152.494687 132.303812 
L 152.568639 132.585234 
L 149.151223 132.743021 
L 149.595408 126.777252 
z
" clip-path="url(#p27af038e09)" style="fill: #eeeeee; stroke: #000000; stroke-width: 0.3"/>
    <path d="M 171.413115 143.344836 
L 171.872351 142.614809 
L 172.096657 142.834733 
L 172.389599 142.834733 
L 172.217998 143.249645 
z
" clip-path="url(#p27af038e09)" style="fill: #eeeeee; stroke: #000000; stroke-width: 0.3"/>
    <path d="M 172.411664 143.005427 
L 173.654531 142.873907 
L 172.888055 143.141756 
z
" clip-path="url(#p27af038e09)" style="fill: #eeeeee; stroke: #000000; stroke-width: 0.3"/>
    <path d="M 139.436177 111.237586 
L 139.498963 109.48461 
L 140.102423 107.872825 
L 140.412716 107.972878 
L 140.503522 107.402864 
L 141.170286 107.684953 
L 140.909807 107.06978 
L 141.392368 106.941379 
L 141.277695 106.434874 
L 142.255795 106.280352 
L 142.804256 105.285821 
L 143.617347 105.743413 
L 145.534102 105.607235 
L 146.991129 104.327001 
L 147.529729 102.735921 
L 147.91059 102.568335 
L 147.431142 101.278512 
L 148.103097 100.932505 
L 149.856404 100.308581 
L 153.632324 104.091883 
L 152.989945 105.577774 
L 154.263286 107.229583 
L 154.30324 108.867909 
L 154.842362 109.985559 
L 154.516501 111.019554 
L 153.912001 110.868092 
L 153.511942 111.675305 
L 153.989317 112.423602 
L 153.597562 113.487057 
L 153.214105 114.03678 
L 152.274407 114.278152 
L 152.302943 115.083279 
L 151.303576 116.130616 
L 151.019746 118.078127 
L 149.479178 118.283095 
L 148.986757 124.516944 
L 149.595408 126.777252 
L 149.151223 132.743021 
L 143.707982 133.573704 
L 144.524874 133.232881 
L 143.438848 131.076933 
L 143.267618 129.389409 
L 143.738246 129.363288 
L 143.615269 118.323533 
L 142.235557 115.782802 
L 142.258908 113.230815 
z
" clip-path="url(#p27af038e09)" style="fill: #eeeeee; stroke: #000000; stroke-width: 0.3"/>
    <path d="M 91.986572 20.25 
L 92.004731 12.680894 
L 97.323032 8.93455 
L 98.677781 8.966727 
L 99.695318 8.290174 
L 101.519866 8.628448 
L 103.379503 7.989481 
L 106.677731 7.726376 
L 106.853168 8.214999 
L 107.76544 8.214999 
L 109.589993 5.771891 
L 113.625052 2.915334 
L 117.274154 1.825332 
L 117.203977 1.148779 
L 117.730292 0.509807 
L 116.842932 -0.67559 
L 116.283572 -0.642521 
L 116.422374 -1.540472 
L 117.133805 -1.820539 
L 117.203977 -3.211233 
L 121.379389 -4.000543 
L 120.822639 -5.366853 
L 121.111529 -5.51554 
L 122.944226 -5.816248 
L 129.500067 -5.587519 
L 129.574009 -5.890728 
L 129.001937 -6.005786 
L 129.330394 -7.024776 
L 130.395405 -7.764178 
L 128.430649 -9.097907 
L 127.750651 -10.126486 
L 128.048231 -10.807105 
L 127.171058 -11.763145 
L 127.456705 -13.465121 
L 126.8068 -14.260798 
L 127.194147 -16.287382 
L 126.491321 -17.86443 
L 127.026809 -18.441108 
L 126.182585 -19.070178 
L 126.692644 -19.84835 
L 124.562627 -21.258787 
L 124.418162 -21.719686 
L 126.734756 -21.93655 
L 129.075859 -23.200091 
L 130.39064 -24.910494 
L 131.551794 -25.401558 
L 132.431447 -25.127579 
L 133.169321 -26.026106 
L 135.159466 -25.511631 
L 137.295065 -27.725128 
L 142.337634 -29.548449 
L 147.382659 -30.050452 
L 148.633699 -29.824617 
L 150.302301 -30.966054 
L 151.341702 -30.606075 
L 151.779284 -30.986184 
L 153.050342 -30.797549 
L 155.02537 -31.550337 
L 159.610345 -31.433047 
L 162.207218 -30.075621 
L 164.362834 -31.093853 
L 166.688821 -31.470247 
L 167.787057 -32.495481 
L 170.461964 -31.404156 
L 171.889511 -31.817314 
L 171.83803 -32.478411 
L 174.729482 -31.961091 
L 174.603231 -31.40372 
L 175.28105 -31.18642 
L 176.911245 -31.770046 
L 178.765545 -31.670208 
L 178.962424 -31.115441 
L 177.814655 -30.833356 
L 177.901309 -30.18108 
L 176.593718 -29.445432 
L 177.536534 -28.932113 
L 176.952789 -25.691032 
L 177.432755 -24.132462 
L 177.218455 -22.987717 
L 177.905978 -22.539435 
L 177.24907 -21.603407 
L 176.927883 -19.344486 
L 174.894893 -18.089959 
L 174.562289 -17.177417 
L 173.318006 -16.372425 
L 173.12913 -15.290764 
L 174.359922 -11.727849 
L 176.176538 -10.990395 
L 177.160859 -9.603304 
L 177.403696 -7.94288 
L 180.98711 -5.49164 
L 183.370346 4.419768 
L 182.199744 5.020905 
L 184.113386 7.757289 
L 184.908835 10.337624 
L 184.661846 14.967883 
L 185.451588 17.335194 
L 184.382686 20.215263 
L 185.313047 22.551445 
L 185.26116 23.652278 
L 184.957093 24.451295 
L 183.184065 25.266984 
L 182.657915 26.254432 
L 185.821554 30.758656 
L 185.942453 33.313698 
L 186.752432 33.885933 
L 186.997864 34.718574 
L 187.842605 35.373766 
L 189.291328 34.928264 
L 193.520234 36.319109 
L 195.666341 40.514843 
L 173.143659 54.73857 
L 164.666911 62.390358 
L 152.310208 64.940818 
L 151.160878 64.080518 
L 151.947506 62.720941 
L 151.63618 60.39657 
L 147.6278 59.127178 
L 146.625832 57.958253 
L 145.975154 58.284394 
L 144.503598 57.794841 
L 143.407199 56.217927 
L 141.37317 55.4581 
L 141.332699 53.506276 
L 111.369613 32.567623 
z
" clip-path="url(#p27af038e09)" style="fill: #eeeeee; stroke: #000000; stroke-width: 0.3"/>
    <path d="M 87.894446 -41.728501 
L 88.630487 -43.812759 
L 88.337134 -44.769412 
L 89.29952 -44.936158 
L 89.937958 -45.866991 
L 91.053922 -48.800976 
L 91.471478 -48.768154 
L 90.851676 -49.208885 
L 91.632049 -51.576007 
L 92.537438 -52.193117 
L 92.056553 -52.149565 
L 91.979945 -52.341266 
L 92.171357 -52.559442 
L 92.122738 -52.673672 
L 91.643079 -51.642313 
L 92.157465 -54.329364 
L 91.711514 -54.850411 
L 91.242904 -57.119545 
L 91.917435 -57.390626 
L 90.992908 -57.470603 
L 91.057191 -58.128096 
L 92.26521 -59.160192 
L 94.296122 -59.712002 
L 94.388228 -59.259826 
L 94.935127 -59.105858 
L 94.249165 -58.272938 
L 94.94317 -57.846335 
L 95.883908 -58.422458 
L 95.931648 -58.12175 
L 96.808043 -58.343944 
L 98.210327 -57.842167 
L 99.335267 -58.235281 
L 99.63103 -58.809043 
L 102.39357 -58.683149 
L 102.821649 -58.17275 
L 102.734734 -57.051346 
L 104.419552 -56.574716 
L 103.841254 -55.71817 
L 102.207028 -54.946947 
L 101.415214 -53.854176 
L 100.721726 -53.593765 
L 101.355801 -52.737773 
L 101.150322 -50.50748 
L 101.465027 -50.046414 
L 100.216592 -49.105105 
L 101.036944 -48.17908 
L 100.326853 -46.484053 
L 97.635142 -46.407625 
L 98.858931 -45.211746 
L 99.20736 -43.80381 
L 100.50483 -43.110681 
L 99.906556 -41.822251 
L 99.075305 -41.339921 
L 98.629584 -39.774128 
L 99.913303 -38.307136 
L 100.696558 -38.431089 
L 100.312584 -37.494921 
L 99.063888 -37.249935 
L 97.773683 -35.045763 
L 98.386526 -32.882157 
L 96.318348 -31.988664 
L 92.499849 -32.662232 
L 90.402657 -32.110988 
L 91.636131 -35.925692 
L 91.352381 -35.883238 
L 91.371911 -36.845839 
L 90.91991 -37.118334 
L 91.52463 -38.378992 
L 91.420831 -39.305512 
L 90.68008 -39.962516 
L 91.403249 -39.665121 
L 92.366042 -39.625291 
L 91.716619 -39.803643 
L 91.529902 -40.413966 
L 91.454318 -39.962516 
L 90.864754 -40.129268 
L 89.234148 -39.625291 
L 89.469249 -40.339765 
L 89.123426 -40.952577 
L 89.851089 -40.917066 
L 90.68008 -41.544679 
L 90.334021 -42.285871 
L 91.57117 -43.277186 
L 90.713989 -42.970599 
L 89.888677 -41.838574 
L 89.827161 -41.214478 
L 88.023965 -41.151436 
z
" clip-path="url(#p27af038e09)" style="fill: #eeeeee; stroke: #000000; stroke-width: 0.3"/>
    <path d="M 5.74878 -36.587886 
L 6.225377 -36.897969 
L 7.28357 -36.457458 
L 9.070655 -36.644345 
L 9.276371 -36.053491 
L 7.525037 -35.796361 
z
" clip-path="url(#p27af038e09)" style="fill: #eeeeee; stroke: #000000; stroke-width: 0.3"/>
    <path d="M 95.634805 -31.890842 
L 96.114877 -31.997855 
L 96.149197 -31.924326 
L 95.895069 -31.812065 
z
" clip-path="url(#p27af038e09)" style="fill: #eeeeee; stroke: #000000; stroke-width: 0.3"/>
    <path d="M 52.525556 -8.227292 
L 52.704713 -8.031875 
L 52.803181 -7.749576 
L 52.553546 -8.106275 
z
" clip-path="url(#p27af038e09)" style="fill: #eeeeee; stroke: #000000; stroke-width: 0.3"/>
    <path d="M 48.962215 -9.485804 
L 49.299694 -9.806611 
L 51.871234 -9.185123 
L 50.344406 -8.58596 
z
" clip-path="url(#p27af038e09)" style="fill: #eeeeee; stroke: #000000; stroke-width: 0.3"/>
    <path d="M 9.051452 -31.944021 
L 9.208755 -32.079042 
L 9.728453 -32.110988 
L 9.927837 -31.642247 
z
" clip-path="url(#p27af038e09)" style="fill: #eeeeee; stroke: #000000; stroke-width: 0.3"/>
    <path d="M -1.943779 -41.454742 
L -0.701519 -41.654972 
L -0.078248 -41.104169 
L -1.123779 -40.821434 
z
" clip-path="url(#p27af038e09)" style="fill: #eeeeee; stroke: #000000; stroke-width: 0.3"/>
    <path d="M -7.753442 -40.216145 
L -6.877875 -40.334091 
L -5.201512 -39.573645 
L -7.304829 -39.555263 
z
" clip-path="url(#p27af038e09)" style="fill: #eeeeee; stroke: #000000; stroke-width: 0.3"/>
    <path d="M -9.226951 -40.597352 
L -8.05885 -40.586408 
L -8.127485 -40.182882 
L -8.647801 -40.142616 
z
" clip-path="url(#p27af038e09)" style="fill: #eeeeee; stroke: #000000; stroke-width: 0.3"/>
    <path d="M -21.469548 -45.134641 
L -21.103061 -45.486962 
L -20.71982 -45.026537 
L -21.338192 -44.677501 
z
" clip-path="url(#p27af038e09)" style="fill: #eeeeee; stroke: #000000; stroke-width: 0.3"/>
    <path d="M 89.992044 -41.784304 
L 90.083769 -41.956961 
L 90.184074 -41.940552 
z
" clip-path="url(#p27af038e09)" style="fill: #eeeeee; stroke: #000000; stroke-width: 0.3"/>
    <path d="M 55.877263 4.909058 
L 55.974094 4.860698 
L 55.952441 4.934007 
z
" clip-path="url(#p27af038e09)" style="fill: #eeeeee; stroke: #000000; stroke-width: 0.3"/>
    <path d="M 55.111601 5.491598 
L 55.132441 5.477152 
L 55.132847 5.493566 
z
" clip-path="url(#p27af038e09)" style="fill: #eeeeee; stroke: #000000; stroke-width: 0.3"/>
    <path d="M 53.24852 -10.697264 
L 53.796825 -11.067968 
L 53.865872 -10.807337 
z
" clip-path="url(#p27af038e09)" style="fill: #eeeeee; stroke: #000000; stroke-width: 0.3"/>
    <path d="M -5.307129 -42.946748 
L -5.273014 -43.277186 
L -4.707549 -43.036905 
z
" clip-path="url(#p27af038e09)" style="fill: #eeeeee; stroke: #000000; stroke-width: 0.3"/>
    <path d="M -6.581866 -41.434386 
L -3.79583 -40.326217 
L -5.171073 -40.547019 
z
" clip-path="url(#p27af038e09)" style="fill: #eeeeee; stroke: #000000; stroke-width: 0.3"/>
    <path d="M -20.825844 -46.522049 
L -20.462012 -46.48025 
L -20.71982 -46.294896 
z
" clip-path="url(#p27af038e09)" style="fill: #eeeeee; stroke: #000000; stroke-width: 0.3"/>
    <path d="M 136.344407 88.759401 
L 136.687388 86.343457 
L 140.34267 86.431555 
L 142.261503 84.796283 
L 150.638886 84.497796 
L 150.80648 84.028115 
L 153.184008 84.4179 
L 153.281561 83.654319 
L 154.88595 82.636023 
L 155.962633 79.339079 
L 156.582179 78.70598 
L 156.80634 64.044388 
L 164.666911 62.390358 
L 173.143659 54.73857 
L 195.666341 40.514843 
L 203.264359 42.330898 
L 206.949212 45.360767 
L 210.783334 43.320502 
L 211.747849 48.710798 
L 211.810636 51.411606 
L 213.943248 54.318636 
L 213.61687 54.643244 
L 213.747112 55.387507 
L 215.755712 57.622528 
L 214.579402 59.950095 
L 213.253651 76.013228 
L 207.716125 82.290015 
L 205.029861 86.216169 
L 204.14594 88.748564 
L 203.099872 89.338445 
L 203.892209 93.291 
L 202.499525 93.262372 
L 201.988422 94.130314 
L 200.051429 94.447141 
L 199.865148 95.071764 
L 198.639546 95.772115 
L 198.195899 96.732602 
L 196.112061 96.449679 
L 193.011209 95.117757 
L 189.170429 95.060368 
L 186.382987 95.732651 
L 183.724743 98.14582 
L 179.151301 97.488681 
L 176.268379 95.466131 
L 174.857013 95.220725 
L 172.688078 96.472471 
L 171.715174 96.446345 
L 171.065013 97.098762 
L 170.404474 97.102376 
L 167.216707 93.507499 
L 166.414515 93.631312 
L 163.298616 92.343436 
L 161.821869 93.090759 
L 159.799778 92.932623 
L 157.930758 93.454138 
L 156.290051 94.533991 
L 156.104287 97.097928 
L 155.302612 98.420122 
L 153.859075 99.669921 
L 153.670204 102.963536 
L 153.986722 103.748097 
L 153.632324 104.091883 
L 149.856404 100.308581 
L 147.475247 101.185133 
L 147.913703 102.476064 
L 147.57643 103.01217 
L 145.877605 100.616792 
L 146.847397 100.174624 
L 146.165065 98.6608 
L 145.475468 98.560752 
L 144.833089 99.196072 
L 143.427953 99.056001 
L 140.514416 96.903662 
L 140.514416 95.096357 
L 141.94602 95.216557 
L 140.673717 94.573315 
L 140.079595 93.77055 
L 138.560304 93.372848 
L 137.429911 91.48953 
L 137.528499 90.346453 
z
" clip-path="url(#p27af038e09)" style="fill: #eeeeee; stroke: #000000; stroke-width: 0.3"/>
    <path d="M 107.850412 110.923534 
L 108.308067 108.669061 
L 107.942513 107.442887 
L 108.80464 107.179976 
L 109.378007 105.563183 
L 109.032431 103.752265 
L 108.403803 103.377909 
L 110.025573 102.567222 
L 111.67251 102.420202 
L 112.680704 101.65176 
L 113.043662 100.731016 
L 113.455524 100.802162 
L 113.227086 100.114595 
L 113.550352 99.584045 
L 113.058322 98.612166 
L 114.201035 98.578537 
L 114.430768 98.050074 
L 113.852601 96.171209 
L 114.315708 96.133272 
L 115.6063 94.389058 
L 115.906346 94.651829 
L 115.637046 94.997697 
L 118.258444 96.169816 
L 118.263119 95.648301 
L 119.266768 95.503094 
L 119.074393 93.325043 
L 120.176113 93.814462 
L 121.040961 93.573089 
L 121.18132 91.69672 
L 122.536385 90.504035 
L 123.217678 90.188876 
L 124.773037 90.859906 
L 125.35522 90.724976 
L 125.550322 89.168219 
L 127.057163 89.031482 
L 130.161645 87.416776 
L 131.963209 85.899617 
L 133.227469 85.891835 
L 133.439174 86.307602 
L 134.388216 85.968682 
L 136.673381 86.800355 
L 136.373983 89.031482 
L 137.528499 90.346453 
L 137.429911 91.48953 
L 138.560304 93.372848 
L 140.079595 93.77055 
L 140.673717 94.573315 
L 141.94602 95.216557 
L 140.514416 95.096357 
L 140.514416 96.903662 
L 143.427953 99.056001 
L 144.833089 99.196072 
L 145.475468 98.560752 
L 146.165065 98.6608 
L 146.847397 100.174624 
L 145.877605 100.616792 
L 147.57643 103.01217 
L 147.060658 104.255855 
L 145.671609 105.53789 
L 143.617347 105.743413 
L 142.804256 105.285821 
L 142.255795 106.280352 
L 141.381991 106.298137 
L 141.392368 106.941379 
L 140.909807 107.06978 
L 141.186894 107.660634 
L 140.503522 107.402864 
L 140.412716 107.972878 
L 138.024811 108.192846 
L 138.019625 107.816549 
L 134.061968 106.957502 
L 132.389732 108.328749 
L 131.420718 107.802372 
L 121.331669 107.844477 
L 120.853902 109.800468 
L 121.682045 110.946601 
L 121.311818 111.365702 
L 121.745349 111.809262 
L 121.85094 114.164896 
L 121.542721 114.717679 
L 122.075357 115.961504 
L 121.7015 116.482319 
L 119.436833 113.665619 
L 119.00019 114.066236 
L 118.922618 113.742461 
L 116.724368 113.556676 
L 114.740152 114.189076 
L 113.631041 115.454719 
L 112.975689 115.067161 
L 112.934305 114.582889 
L 112.075165 114.921668 
L 111.495959 114.532169 
L 111.485843 114.058733 
L 110.64434 113.744128 
L 110.658092 112.994998 
L 110.122087 112.619395 
L 109.875615 111.6332 
L 108.453094 111.595404 
z
" clip-path="url(#p27af038e09)" style="fill: #eeeeee; stroke: #000000; stroke-width: 0.3"/>
    <path d="M 134.742613 107.107856 
L 138.019625 107.816549 
L 138.024811 108.192846 
L 140.102423 107.872825 
L 139.395706 111.156571 
L 142.323251 113.413824 
L 142.235557 115.782802 
L 143.588288 118.176793 
L 143.831125 121.313933 
L 143.738246 129.363288 
L 143.267618 129.389409 
L 143.438848 131.076933 
L 144.524874 133.232881 
L 143.707982 133.573704 
L 141.527851 134.183591 
L 140.514416 132.978311 
L 139.320464 132.352854 
L 138.18359 130.248176 
L 138.059578 129.49057 
L 138.57898 129.178191 
L 138.818187 127.60573 
L 138.06477 126.633846 
L 138.650588 125.584427 
L 138.457564 122.87111 
L 139.154943 122.365439 
L 137.413439 119.803862 
L 138.1151 119.308754 
L 137.74176 118.441506 
L 138.244303 116.432712 
L 137.643303 115.942605 
L 136.715282 116.264713 
L 137.092377 115.860757 
L 136.732271 115.49349 
L 137.472982 115.419977 
L 136.886772 115.055625 
L 137.319129 115.023389 
L 137.567679 111.688643 
L 135.134113 109.804916 
L 135.657922 107.497216 
z
" clip-path="url(#p27af038e09)" style="fill: #eeeeee; stroke: #000000; stroke-width: 0.3"/>
    <path d="M 119.197109 131.405016 
L 119.301661 130.36296 
L 120.65154 128.189915 
L 120.808632 126.241986 
L 121.566202 124.272931 
L 122.47023 123.752809 
L 122.469708 123.081354 
L 122.993523 122.842488 
L 122.425603 119.000678 
L 121.645461 118.294211 
L 122.22298 117.122227 
L 121.542721 114.717679 
L 121.85094 114.164896 
L 121.745349 111.809262 
L 121.311818 111.365702 
L 121.682045 110.946601 
L 120.853902 109.800468 
L 121.331669 107.844477 
L 131.420718 107.802372 
L 132.389732 108.328749 
L 134.061968 106.957502 
L 135.657922 107.497216 
L 135.134113 109.804916 
L 137.567679 111.688643 
L 137.319129 115.023389 
L 136.886772 115.055625 
L 137.472982 115.419977 
L 136.732271 115.49349 
L 137.092377 115.860757 
L 136.715282 116.264713 
L 137.643303 115.942605 
L 138.244303 116.432712 
L 137.74176 118.441506 
L 138.1151 119.308754 
L 137.413439 119.803862 
L 139.154943 122.365439 
L 138.457564 122.87111 
L 138.650588 125.584427 
L 138.06477 126.633846 
L 138.818187 127.60573 
L 138.57898 129.178191 
L 138.059578 129.49057 
L 138.167504 130.196762 
L 139.320464 132.352854 
L 140.514416 132.978311 
L 141.527851 134.183591 
L 140.370373 135.847603 
L 136.798241 136.035361 
L 131.562417 138.94672 
L 127.450976 139.981366 
L 125.628753 141.433547 
L 125.050626 141.508603 
L 123.745248 140.534358 
L 119.914494 139.610883 
L 121.686714 139.236059 
L 121.571519 138.236667 
L 121.869877 138.095203 
L 121.552064 136.831512 
L 120.786838 136.830678 
L 120.691755 136.284844 
L 120.365632 136.314584 
z
" clip-path="url(#p27af038e09)" style="fill: #eeeeee; stroke: #000000; stroke-width: 0.3"/>
    <path d="M 51.591295 100.667367 
L 54.131909 100.008427 
L 56.869798 100.09319 
L 59.289357 98.801705 
L 66.653615 98.834221 
L 66.820567 100.880257 
L 66.092704 100.9653 
L 65.427366 101.640643 
L 66.67541 102.440768 
L 66.645317 104.016289 
L 65.941838 103.834253 
L 65.213452 104.407322 
L 63.835036 104.236677 
L 62.674034 105.075437 
L 61.71955 105.15784 
L 59.841211 108.222947 
L 60.264485 106.667916 
L 59.113544 107.861654 
L 59.231621 106.576446 
L 59.09659 107.174732 
L 58.470457 107.058098 
L 58.129504 106.292834 
L 58.923151 105.505036 
L 58.546246 105.79893 
L 58.494766 105.342006 
L 57.723184 105.909003 
L 57.891718 105.174598 
L 59.063494 104.730801 
L 58.857578 104.473456 
L 59.687177 104.511533 
L 59.65 104.900177 
L 60.232209 104.543699 
L 59.406084 104.286569 
L 59.612 104.026379 
L 59.124167 104.291823 
L 59.131929 103.77275 
L 58.066381 104.837593 
L 58.128485 104.103188 
L 57.878438 104.314583 
L 57.500715 103.890922 
L 58.066381 103.071829 
L 59.319058 103.148197 
L 59.81751 102.777714 
L 59.920269 103.511898 
L 60.590733 103.78413 
L 59.916383 103.204656 
L 60.23262 102.572229 
L 59.189133 102.941841 
L 58.128485 102.664576 
L 56.099933 103.809079 
L 56.582861 103.218665 
L 56.274802 103.071829 
L 55.454391 103.881946 
L 55.924451 102.605057 
L 56.651501 102.630877 
L 56.685821 102.370681 
L 55.931806 102.297158 
L 54.622954 103.071829 
L 53.465471 101.985973 
L 54.931425 100.567932 
L 52.950879 101.531022 
z
" clip-path="url(#p27af038e09)" style="fill: #eeeeee; stroke: #000000; stroke-width: 0.3"/>
    <path d="M 56.386544 106.902942 
L 56.483374 106.349734 
L 56.96324 106.205957 
L 56.96324 106.576446 
z
" clip-path="url(#p27af038e09)" style="fill: #eeeeee; stroke: #000000; stroke-width: 0.3"/>
    <path d="M 55.357972 107.575198 
L 55.620274 107.347615 
L 55.517514 106.756761 
L 55.863166 107.437773 
z
" clip-path="url(#p27af038e09)" style="fill: #eeeeee; stroke: #000000; stroke-width: 0.3"/>
    <path d="M 54.828665 105.318149 
L 55.551633 104.580463 
L 55.760411 105.394743 
L 55.071562 105.575063 
z
" clip-path="url(#p27af038e09)" style="fill: #eeeeee; stroke: #000000; stroke-width: 0.3"/>
    <path d="M 54.41744 103.148197 
L 55.062776 102.997644 
L 55.32079 103.061105 
L 55.04051 103.77275 
z
" clip-path="url(#p27af038e09)" style="fill: #eeeeee; stroke: #000000; stroke-width: 0.3"/>
    <path d="M 54.003153 107.2708 
L 54.746544 106.714092 
L 55.002922 107.197492 
L 54.585773 107.678053 
z
" clip-path="url(#p27af038e09)" style="fill: #eeeeee; stroke: #000000; stroke-width: 0.3"/>
    <path d="M 53.834413 106.528958 
L 54.211524 106.165912 
L 54.380057 106.646468 
L 53.985992 106.663102 
z
" clip-path="url(#p27af038e09)" style="fill: #eeeeee; stroke: #000000; stroke-width: 0.3"/>
    <path d="M 53.108382 104.987495 
L 54.003153 104.694037 
L 53.865053 105.168908 
L 53.142703 105.208076 
z
" clip-path="url(#p27af038e09)" style="fill: #eeeeee; stroke: #000000; stroke-width: 0.3"/>
    <path d="M 57.104607 104.988808 
L 57.6145 104.473456 
L 57.90091 104.789013 
z
" clip-path="url(#p27af038e09)" style="fill: #eeeeee; stroke: #000000; stroke-width: 0.3"/>
    <path d="M 56.578367 105.414437 
L 56.788782 105.134547 
L 56.857217 105.465206 
z
" clip-path="url(#p27af038e09)" style="fill: #eeeeee; stroke: #000000; stroke-width: 0.3"/>
    <path d="M 55.768173 106.49613 
L 56.122811 106.259791 
L 55.894424 106.756761 
z
" clip-path="url(#p27af038e09)" style="fill: #eeeeee; stroke: #000000; stroke-width: 0.3"/>
    <path d="M 54.962271 106.954152 
L 55.376558 107.208872 
L 55.162674 107.464469 
z
" clip-path="url(#p27af038e09)" style="fill: #eeeeee; stroke: #000000; stroke-width: 0.3"/>
    <path d="M 53.731658 105.394743 
L 54.41744 105.061024 
L 54.174136 105.465206 
z
" clip-path="url(#p27af038e09)" style="fill: #eeeeee; stroke: #000000; stroke-width: 0.3"/>
    <path d="M 49.942374 55.306837 
L 50.386865 52.307616 
L 70.233399 52.26009 
L 69.545358 44.26521 
L 70.233399 43.200367 
L 72.220592 41.840651 
L 75.233364 40.817912 
L 75.253602 27.19046 
L 91.960109 27.162946 
L 91.986572 20.25 
L 111.369613 32.567623 
L 102.475811 32.57263 
L 107.3445 78.104843 
L 108.700344 79.265706 
L 107.908785 83.663768 
L 88.638731 83.655986 
L 88.602408 82.568491 
L 88.124259 83.157538 
L 88.26384 83.952381 
L 85.031967 84.359951 
L 81.729793 83.992545 
L 80.77686 85.768162 
L 77.7183 82.860997 
L 77.264015 83.41114 
L 76.700769 83.41114 
L 76.105346 85.35851 
L 76.232215 86.859551 
L 74.977037 87.75 
L 73.410136 87.149697 
L 72.896051 86.228673 
L 70.870457 84.972345 
L 71.173228 84.794896 
L 70.489079 83.583307 
L 69.889002 83.67155 
L 69.759137 83.114045 
L 69.115849 82.968693 
L 68.723832 81.317578 
L 67.875331 80.110022 
L 66.951457 80.374881 
L 66.647907 79.924372 
L 66.113976 80.295113 
L 65.400642 79.125915 
L 63.247923 77.389756 
L 60.397951 77.225231 
L 59.728852 77.365023 
L 59.640898 77.809691 
L 57.939478 77.816359 
L 56.894188 78.354691 
L 53.873764 78.129851 
L 52.945221 79.899359 
L 52.525556 81.971688 
L 52.591134 79.154209 
L 54.851955 72.635377 
L 55.071562 69.426843 
L 54.221329 64.902246 
L 52.560083 62.761395 
L 53.445043 62.57298 
L 53.818071 61.962873 
L 53.283046 62.313662 
L 53.417671 61.909259 
L 52.913496 62.590707 
L 54.07465 60.54111 
L 54.003153 59.953547 
L 53.675479 60.024446 
L 54.131442 59.41215 
L 53.937374 58.701596 
L 54.232971 58.176618 
L 52.902873 55.93773 
L 53.196633 55.800961 
L 52.591134 55.457175 
L 52.525556 56.415011 
L 51.871234 55.787392 
L 50.641641 53.19728 
z
" clip-path="url(#p27af038e09)" style="fill: #eeeeee; stroke: #000000; stroke-width: 0.3"/>
    <path d="M 53.251793 61.582978 
L 53.448311 61.166099 
L 53.734108 60.923194 
z
" clip-path="url(#p27af038e09)" style="fill: #eeeeee; stroke: #000000; stroke-width: 0.3"/>
    <path d="M 52.919009 61.127366 
L 53.51164 60.139332 
L 53.077125 61.575756 
z
" clip-path="url(#p27af038e09)" style="fill: #eeeeee; stroke: #000000; stroke-width: 0.3"/>
    <path d="M 52.867528 56.235782 
L 53.007259 56.165098 
L 52.968245 56.359864 
z
" clip-path="url(#p27af038e09)" style="fill: #eeeeee; stroke: #000000; stroke-width: 0.3"/>
    <path d="M 52.753744 61.015105 
L 52.881014 61.04662 
L 52.817278 61.164571 
z
" clip-path="url(#p27af038e09)" style="fill: #eeeeee; stroke: #000000; stroke-width: 0.3"/>
    <path d="M 51.082898 95.257064 
L 51.840388 94.409306 
L 53.142703 95.957991 
L 53.039742 95.591004 
L 53.953304 95.330373 
L 54.105701 95.700861 
L 54.195589 95.726902 
L 54.488942 95.591004 
L 54.108151 95.283105 
L 54.439093 94.772131 
L 57.152001 94.63164 
L 57.540553 94.336654 
L 58.559114 94.706917 
L 58.738682 94.629016 
L 58.789139 94.409306 
L 57.476813 94.236429 
L 54.537561 94.632952 
L 53.287745 95.26604 
L 52.628517 95.146771 
L 52.429911 93.921232 
L 57.667326 93.941744 
L 58.290502 92.928455 
L 59.778405 92.66777 
L 60.875065 92.879681 
L 61.569592 93.767769 
L 62.56533 93.631312 
L 63.454176 94.631538 
L 65.347199 93.963009 
L 66.199591 94.768555 
L 65.788637 95.385949 
L 63.437703 95.810052 
L 59.577856 93.904781 
L 58.877881 95.032434 
L 56.158668 95.283955 
L 56.085248 96.234154 
L 51.866981 96.193996 
L 51.464708 96.728063 
z
" clip-path="url(#p27af038e09)" style="fill: #eeeeee; stroke: #000000; stroke-width: 0.3"/>
    <path d="M 16.125641 85.860358 
L 16.191218 84.645397 
L 16.574253 84.635765 
L 17.811608 86.194297 
L 17.434698 86.812939 
L 16.514805 86.491257 
z
" clip-path="url(#p27af038e09)" style="fill: #eeeeee; stroke: #000000; stroke-width: 0.3"/>
    <path d="M 20.2857 80.662848 
L 20.528597 79.631484 
L 21.491189 79.799983 
L 21.700785 80.332625 
L 21.078122 81.019327 
z
" clip-path="url(#p27af038e09)" style="fill: #eeeeee; stroke: #000000; stroke-width: 0.3"/>
    <path d="M 20.15108 76.556874 
L 20.494277 76.316814 
L 20.700605 77.218191 
L 20.460363 77.75214 
z
" clip-path="url(#p27af038e09)" style="fill: #eeeeee; stroke: #000000; stroke-width: 0.3"/>
    <path d="M 18.843041 84.942572 
L 19.46325 84.645397 
L 19.54292 85.396872 
L 19.121072 85.665161 
z
" clip-path="url(#p27af038e09)" style="fill: #eeeeee; stroke: #000000; stroke-width: 0.3"/>
    <path d="M 12.922249 77.504422 
L 14.919544 77.918892 
L 13.717122 77.785403 
L 13.454208 78.347808 
z
" clip-path="url(#p27af038e09)" style="fill: #eeeeee; stroke: #000000; stroke-width: 0.3"/>
    <path d="M 12.442379 86.726503 
L 13.252574 86.077443 
L 13.59557 86.765015 
L 13.193944 87.311226 
z
" clip-path="url(#p27af038e09)" style="fill: #eeeeee; stroke: #000000; stroke-width: 0.3"/>
    <path d="M 11.200983 76.628945 
L 11.651308 76.877922 
L 11.644043 76.947944 
L 11.36804 76.994631 
z
" clip-path="url(#p27af038e09)" style="fill: #eeeeee; stroke: #000000; stroke-width: 0.3"/>
    <path d="M 8.254336 75.268384 
L 9.548683 74.508154 
L 10.208117 74.988274 
L 8.564237 76.009792 
z
" clip-path="url(#p27af038e09)" style="fill: #eeeeee; stroke: #000000; stroke-width: 0.3"/>
    <path d="M 12.065314 77.663757 
L 12.225107 77.609294 
L 12.196053 77.687098 
z
" clip-path="url(#p27af038e09)" style="fill: #eeeeee; stroke: #000000; stroke-width: 0.3"/>
    <path d="M 11.274077 87.038774 
L 11.654044 87.168762 
L 11.479586 87.376 
z
" clip-path="url(#p27af038e09)" style="fill: #eeeeee; stroke: #000000; stroke-width: 0.3"/>
    <path d="M 9.591177 76.500415 
L 10.173797 75.979594 
L 10.610556 76.566065 
z
" clip-path="url(#p27af038e09)" style="fill: #eeeeee; stroke: #000000; stroke-width: 0.3"/>
   </g>
   <g id="PatchCollection_2">
    <path d="M 49.942374 55.306837 
L 50.386865 52.307616 
L 70.233399 52.26009 
L 69.545358 44.26521 
L 70.233399 43.200367 
L 72.220592 41.840651 
L 75.233364 40.817912 
L 75.253602 27.19046 
L 91.960109 27.162946 
L 91.986572 20.25 
L 111.369613 32.567623 
L 102.475811 32.57263 
L 107.3445 78.104843 
L 108.700344 79.265706 
L 107.908785 83.663768 
L 88.638731 83.655986 
L 88.602408 82.568491 
L 88.124259 83.157538 
L 88.26384 83.952381 
L 85.031967 84.359951 
L 81.729793 83.992545 
L 80.77686 85.768162 
L 77.7183 82.860997 
L 77.264015 83.41114 
L 76.700769 83.41114 
L 76.105346 85.35851 
L 76.232215 86.859551 
L 74.977037 87.75 
L 73.410136 87.149697 
L 72.896051 86.228673 
L 70.870457 84.972345 
L 71.173228 84.794896 
L 70.489079 83.583307 
L 69.889002 83.67155 
L 69.759137 83.114045 
L 69.115849 82.968693 
L 68.723832 81.317578 
L 67.875331 80.110022 
L 66.951457 80.374881 
L 66.647907 79.924372 
L 66.113976 80.295113 
L 65.400642 79.125915 
L 63.247923 77.389756 
L 60.397951 77.225231 
L 59.728852 77.365023 
L 59.640898 77.809691 
L 57.939478 77.816359 
L 56.894188 78.354691 
L 53.873764 78.129851 
L 52.945221 79.899359 
L 52.525556 81.971688 
L 52.591134 79.154209 
L 54.851955 72.635377 
L 55.071562 69.426843 
L 54.221329 64.902246 
L 52.560083 62.761395 
L 53.445043 62.57298 
L 53.818071 61.962873 
L 53.283046 62.313662 
L 53.417671 61.909259 
L 52.913496 62.590707 
L 54.07465 60.54111 
L 54.003153 59.953547 
L 53.675479 60.024446 
L 54.131442 59.41215 
L 53.937374 58.701596 
L 54.232971 58.176618 
L 52.902873 55.93773 
L 53.196633 55.800961 
L 52.591134 55.457175 
L 52.525556 56.415011 
L 51.871234 55.787392 
L 50.641641 53.19728 
z
" clip-path="url(#p27af038e09)" style="fill: #ff6b6b; stroke: #dd0000; stroke-width: 0.5"/>
    <path d="M 53.251793 61.582978 
L 53.448311 61.166099 
L 53.734108 60.923194 
z
" clip-path="url(#p27af038e09)" style="fill: #ff6b6b; stroke: #dd0000; stroke-width: 0.5"/>
    <path d="M 52.919009 61.127366 
L 53.51164 60.139332 
L 53.077125 61.575756 
z
" clip-path="url(#p27af038e09)" style="fill: #ff6b6b; stroke: #dd0000; stroke-width: 0.5"/>
    <path d="M 52.867528 56.235782 
L 53.007259 56.165098 
L 52.968245 56.359864 
z
" clip-path="url(#p27af038e09)" style="fill: #ff6b6b; stroke: #dd0000; stroke-width: 0.5"/>
    <path d="M 52.753744 61.015105 
L 52.881014 61.04662 
L 52.817278 61.164571 
z
" clip-path="url(#p27af038e09)" style="fill: #ff6b6b; stroke: #dd0000; stroke-width: 0.5"/>
   </g>
  </g>
 </g>
 <defs>
  <clipPath id="p27af038e09">
   <rect x="0" y="0" width="161.311987" height="108"/>
  </clipPath>
 </defs>
</svg>
