<?xml version="1.0" encoding="utf-8" standalone="no"?>
<!DOCTYPE svg PUBLIC "-//W3C//DTD SVG 1.1//EN"
  "http://www.w3.org/Graphics/SVG/1.1/DTD/svg11.dtd">
<svg xmlns:xlink="http://www.w3.org/1999/xlink" width="126.99468pt" height="108pt" viewBox="0 0 126.99468 108" xmlns="http://www.w3.org/2000/svg" version="1.1">
 <metadata>
  <rdf:RDF xmlns:dc="http://purl.org/dc/elements/1.1/" xmlns:cc="http://creativecommons.org/ns#" xmlns:rdf="http://www.w3.org/1999/02/22-rdf-syntax-ns#">
   <cc:Work>
    <dc:type rdf:resource="http://purl.org/dc/dcmitype/StillImage"/>
    <dc:date>2025-09-05T13:56:21.213109</dc:date>
    <dc:format>image/svg+xml</dc:format>
    <dc:creator>
     <cc:Agent>
      <dc:title>Matplotlib v3.10.3, https://matplotlib.org/</dc:title>
     </cc:Agent>
    </dc:creator>
   </cc:Work>
  </rdf:RDF>
 </metadata>
 <defs>
  <style type="text/css">*{stroke-linejoin: round; stroke-linecap: butt}</style>
 </defs>
 <g id="figure_1">
  <g id="patch_1">
   <path d="M 0 108 
L 126.99468 108 
L 126.99468 0 
L 0 0 
z
" style="fill: #ffffff"/>
  </g>
  <g id="axes_1">
   <g id="PatchCollection_1">
    <path d="M 80.993395 80.051273 
L 82.501169 79.244447 
L 81.929731 75.871915 
L 83.041631 72.72014 
L 85.303302 73.254723 
L 86.668221 67.987505 
L 91.890351 65.406003 
L 95.060813 67.813608 
L 97.516982 64.251974 
L 111.381292 61.454428 
L 115.747989 66.920718 
L 120.863418 69.405006 
L 123.717177 76.273571 
L 122.441772 78.630825 
L 122.57257 84.579556 
L 119.41588 85.364152 
L 118.643066 89.342058 
L 107.706523 89.065714 
L 99.935281 95.536724 
L 89.671714 95.91964 
L 85.540833 94.47345 
L 81.924569 87.16985 
L 82.592398 83.427295 
z
" clip-path="url(#p2ebe882cf6)" style="fill: #eeeeee; stroke: #000000; stroke-width: 0.3"/>
    <path d="M 61.473209 65.752051 
L 68.588663 55.008005 
L 70.006941 59.092506 
L 74.249717 57.207179 
L 77.556157 62.596764 
L 81.618191 64.618507 
L 83.576931 70.739956 
L 81.929731 75.871915 
L 82.501169 79.244447 
L 80.993395 80.051273 
L 82.592398 83.427295 
L 81.924569 87.16985 
L 85.540833 94.47345 
L 89.528858 94.89149 
L 89.311994 97.826041 
L 90.86107 100.670427 
L 89.198383 104.459821 
L 86.43069 105.60508 
L 84.380738 113.036304 
L 78.557893 115.463827 
L 80.208523 119.289524 
L 78.260125 119.609195 
L 78.533795 121.571817 
L 76.662853 123.392743 
L 73.413752 122.266518 
L 73.75935 118.211317 
L 72.038141 117.287405 
L 71.322566 114.139505 
L 64.874142 110.324981 
L 61.765115 105.640929 
L 64.852459 107.272957 
L 63.377908 102.856322 
L 64.513623 102.616574 
L 62.011789 100.366754 
L 63.291176 94.58546 
L 65.660196 94.305173 
L 65.193976 92.44722 
L 64.931064 93.55092 
L 64.399795 93.99536 
L 65.546351 86.69636 
L 63.491753 83.136289 
L 65.546351 80.872646 
L 64.28595 79.241524 
L 67.151 78.790649 
L 66.795927 73.95262 
L 63.022818 73.191931 
L 63.146205 67.483967 
z
" clip-path="url(#p2ebe882cf6)" style="fill: #eeeeee; stroke: #000000; stroke-width: 0.3"/>
    <path d="M 74.173977 52.818801 
L 81.528694 50.459803 
L 81.248146 48.318617 
L 84.669896 45.250572 
L 83.656102 42.700093 
L 86.826565 41.224626 
L 87.561525 43.323074 
L 91.792244 45.131129 
L 94.589214 49.756626 
L 97.052261 50.653028 
L 96.556547 52.983928 
L 103.119499 55.173721 
L 98.844031 62.097894 
L 99.644008 64.265366 
L 96.358602 64.773663 
L 95.234661 67.774972 
L 91.890351 65.406003 
L 86.668221 67.987505 
L 84.945298 73.381191 
L 83.041631 72.72014 
L 81.936626 65.059978 
L 77.556157 62.596764 
L 74.6783 57.456603 
L 75.327194 55.046664 
z
" clip-path="url(#p2ebe882cf6)" style="fill: #eeeeee; stroke: #000000; stroke-width: 0.3"/>
    <path d="M 77.640491 -23.244816 
L 81.399611 -24.741381 
L 84.654408 -23.916971 
L 86.897143 -26.859725 
L 92.656287 -27.225079 
L 94.924836 -30.231079 
L 95.262206 -34.480662 
L 98.6065 -36.737213 
L 100.788998 -43.969953 
L 106.930262 -52.380176 
L 107.035247 -55.180646 
L 111.451871 -59.856494 
L 117.524288 -60.939664 
L 125.873846 -68.339888 
L 131.23197 -65.466815 
L 144.058389 -63.782894 
L 149.239218 -64.843244 
L 155.142966 -59.546182 
L 158.196386 -60.290941 
L 161.223977 -63.818017 
L 176.400714 -65.960971 
L 178.572888 -70.921367 
L 184.98524 -72.344149 
L 189.14195 -70.757441 
L 192.982823 -65.732622 
L 194.853764 -59.159731 
L 199.762655 -53.889023 
L 199.704134 -51.958012 
L 207.976253 -43.195351 
L 210.72501 -35.806253 
L 210.923806 -30.49104 
L 208.640635 -26.100917 
L 208.203443 -21.128806 
L 209.623436 -12.466825 
L 207.860926 -11.58624 
L 212.32573 -5.452463 
L 218.651166 -3.277898 
L 220.193364 -3.667862 
L 219.978215 -5.418518 
L 222.312179 -4.459459 
L 228.844154 -8.192633 
L 232.967307 -7.084854 
L 235.129888 -1.801683 
L 233.769182 5.004022 
L 226.079326 6.750395 
L 223.492093 8.914468 
L 223.062478 7.644803 
L 225.789286 6.305955 
L 224.214463 4.911816 
L 225.321717 2.54398 
L 223.200703 1.586893 
L 221.304664 3.148856 
L 222.582702 7.185612 
L 219.882989 9.813476 
L 221.776313 8.282853 
L 222.937791 8.640617 
L 223.272531 9.223353 
L 219.446579 10.322453 
L 219.457421 13.982093 
L 222.230326 10.463514 
L 217.402822 17.355895 
L 218.012697 24.584806 
L 216.458192 30.388239 
L 210.510728 29.919099 
L 206.509779 27.939505 
L 205.361741 24.67649 
L 202.191279 25.687056 
L 200.721358 23.850924 
L 196.564648 24.183489 
L 190.629923 20.513538 
L 176.028937 24.244378 
L 169.873901 30.598278 
L 163.578591 32.455506 
L 131.62956 27.231048 
L 121.705096 28.161985 
L 121.6569 24.649547 
L 124.073466 22.416427 
L 118.407266 19.339002 
L 114.847807 14.012073 
L 116.570731 11.71104 
L 119.646534 11.318742 
L 113.999252 7.900571 
L 109.012922 13.135 
L 106.809772 9.602054 
L 96.84399 6.618307 
L 96.170998 5.114741 
L 99.181385 4.373495 
L 96.102152 1.905001 
L 98.46536 -1.423027 
L 86.372169 -8.997124 
L 86.681994 -15.188255 
L 85.055445 -14.973955 
z
" clip-path="url(#p2ebe882cf6)" style="fill: #eeeeee; stroke: #000000; stroke-width: 0.3"/>
    <path d="M 73.594012 122.11254 
L 77.69385 122.806064 
L 78.260125 119.609195 
L 80.208523 119.289524 
L 78.557893 115.463827 
L 84.380738 113.036304 
L 86.43069 105.60508 
L 90.563302 102.500734 
L 89.671714 95.91964 
L 99.935281 95.536724 
L 107.706523 89.065714 
L 118.643066 89.342058 
L 119.909878 84.91799 
L 133.756969 84.099449 
L 144.09626 79.776084 
L 148.707366 79.779596 
L 149.877787 82.524434 
L 153.108502 84.619371 
L 154.972566 83.428451 
L 161.623299 87.082018 
L 175.531508 84.399224 
L 176.235476 80.516152 
L 174.319786 76.891884 
L 177.285424 75.518865 
L 183.435281 78.628491 
L 184.116883 83.451881 
L 183.672813 85.012847 
L 178.856883 86.927451 
L 179.498883 93.307116 
L 174.877451 98.499374 
L 173.616418 96.949626 
L 174.417393 96.337385 
L 165.820844 95.442977 
L 159.170477 92.27849 
L 153.567761 95.82748 
L 150.681011 95.7113 
L 148.623698 93.376661 
L 142.045159 98.673859 
L 135.743104 98.12985 
L 135.218613 99.902056 
L 138.793843 102.955892 
L 137.263735 103.678783 
L 138.015916 105.796742 
L 140.252123 106.41177 
L 140.401207 104.989033 
L 146.76966 111.711732 
L 145.207028 112.264965 
L 143.025028 108.928983 
L 139.154345 106.892149 
L 135.72277 107.033233 
L 135.486954 109.381717 
L 140.065102 112.477044 
L 140.065102 116.21876 
L 137.324721 114.966589 
L 134.806601 110.229082 
L 130.860027 108.840449 
L 129.221504 110.001321 
L 129.613165 111.757846 
L 136.01281 116.742489 
L 129.563021 116.049102 
L 128.538436 109.832592 
L 121.69562 106.413605 
L 120.587001 103.788505 
L 123.277237 102.643314 
L 122.066964 100.560387 
L 116.548265 104.55751 
L 117.914384 106.804566 
L 116.418167 113.937578 
L 129.28249 133.757181 
L 126.948692 135.458369 
L 124.42381 135.613276 
L 127.173667 133.757181 
L 125.799405 131.098906 
L 122.489817 129.656794 
L 120.662891 132.813917 
L 123.525244 136.246726 
L 122.956037 137.624278 
L 124.77482 137.005579 
L 120.093685 140.592389 
L 117.25573 139.765305 
L 115.648367 141.042358 
L 124.257107 143.566936 
L 125.297962 146.021448 
L 128.652281 145.698741 
L 128.310747 147.878472 
L 129.912682 148.357016 
L 129.13612 149.076236 
L 133.004089 149.132479 
L 133.108441 150.213111 
L 134.763234 152.411311 
L 139.39559 153.89582 
L 141.553192 156.726518 
L 140.028497 157.709438 
L 141.667037 165.35512 
L 140.75628 168.385004 
L 132.897022 161.10445 
L 133.126061 159.428143 
L 123.476465 163.158779 
L 126.594968 164.812969 
L 125.571732 166.35925 
L 126.365913 169.23144 
L 129.164582 171.014704 
L 128.756633 169.158609 
L 130.197293 168.693889 
L 130.140371 171.479425 
L 132.311529 173.196294 
L 127.932625 174.061176 
L 126.365913 176.36171 
L 124.77482 175.09941 
L 125.756038 172.982379 
L 119.00132 170.314859 
L 125.457887 188.104108 
L 124.151389 191.100771 
L 126.822657 196.00796 
L 123.098343 194.020933 
L 120.008302 187.829327 
L 118.320967 187.466035 
L 116.519804 188.065381 
L 114.965299 192.062481 
L 115.080493 196.950295 
L 112.807697 194.209038 
L 113.364713 189.806202 
L 109.199943 185.026274 
L 109.454727 182.668567 
L 105.956754 183.300182 
L 106.408052 187.794294 
L 104.948423 189.345175 
L 102.030497 187.272401 
L 102.07388 184.447232 
L 99.737368 180.515575 
L 101.488387 174.17552 
L 92.019051 163.250984 
L 95.678299 160.002585 
L 96.483338 155.488193 
L 100.614235 156.981018 
L 104.39682 152.7543 
L 121.345959 161.85868 
L 123.147122 160.964295 
L 121.484201 159.370993 
L 126.436391 158.686806 
L 127.278019 156.87959 
L 120.321374 155.345296 
L 117.670441 151.651529 
L 116.271797 153.836812 
L 113.592402 150.213111 
L 113.271203 152.72296 
L 110.055126 153.1674 
L 106.202063 151.15914 
L 98.872692 153.785169 
L 95.621376 149.242201 
L 95.855844 151.521526 
L 92.84171 153.601687 
L 90.052534 145.441477 
L 87.916615 142.279754 
L 85.742743 142.13867 
L 87.005858 140.824749 
L 86.416318 138.757504 
L 91.66939 140.902203 
L 93.20491 140.636645 
L 92.913537 137.878777 
L 91.66939 136.401633 
L 91.222139 137.624278 
L 87.667243 136.990827 
L 87.293184 135.233396 
L 85.973146 137.15958 
L 87.449046 138.650547 
L 86.359395 138.335181 
L 85.838968 138.958502 
L 81.630814 131.422542 
L 77.52703 128.77809 
L 77.991901 126.302367 
L 75.820743 125.823801 
L 76.624417 123.677267 
z
" clip-path="url(#p2ebe882cf6)" style="fill: #eeeeee; stroke: #000000; stroke-width: 0.3"/>
    <path d="M 132.188208 221.804325 
L 133.222286 215.419086 
L 135.522193 216.84828 
L 135.907093 212.902801 
L 137.166145 216.350362 
L 143.25813 215.199642 
L 143.25813 216.839058 
L 141.409537 217.17654 
L 144.415544 217.613592 
L 145.87519 220.576152 
L 152.217896 218.788287 
L 164.419486 221.804325 
L 169.627826 220.86292 
L 168.734689 224.326162 
L 170.108951 225.860456 
L 174.527158 223.182806 
L 176.507231 223.774765 
L 178.866775 221.325782 
L 178.140341 226.202538 
L 175.970533 228.418232 
L 157.182294 230.018921 
L 152.510635 230.018921 
L 152.582462 226.719808 
L 146.907902 224.138987 
z
" clip-path="url(#p2ebe882cf6)" style="fill: #eeeeee; stroke: #000000; stroke-width: 0.3"/>
    <path d="M 120.788943 141.330961 
L 128.538436 136.865424 
L 133.449975 143.034914 
L 142.802768 145.698741 
L 144.415544 155.322227 
L 149.997943 156.87959 
L 149.648283 160.761439 
L 146.402379 161.124731 
L 143.607791 158.441552 
L 140.914856 151.389664 
L 134.368859 151.295623 
L 133.78473 147.845275 
L 126.927009 141.682266 
z
" clip-path="url(#p2ebe882cf6)" style="fill: #eeeeee; stroke: #000000; stroke-width: 0.3"/>
    <path d="M 170.888244 132.660868 
L 176.242954 129.242788 
L 179.549843 129.242788 
L 183.715962 136.711447 
L 182.501642 137.389153 
L 181.666776 135.251841 
L 180.796688 135.482344 
L 182.630392 138.102844 
L 176.278193 137.320016 
L 174.982536 135.936935 
L 178.182359 133.376372 
L 174.58408 135.768183 
z
" clip-path="url(#p2ebe882cf6)" style="fill: #eeeeee; stroke: #000000; stroke-width: 0.3"/>
    <path d="M 79.348527 156.36139 
L 80.256569 152.237958 
L 82.4196 152.840976 
L 82.552413 149.748413 
L 84.097425 154.642686 
L 84.948545 154.094983 
L 86.881172 157.51304 
L 85.813221 159.074073 
L 82.086193 157.977761 
L 81.012813 154.229608 
L 80.679423 156.516297 
z
" clip-path="url(#p2ebe882cf6)" style="fill: #eeeeee; stroke: #000000; stroke-width: 0.3"/>
    <path d="M 67.375975 120.872379 
L 72.730701 119.918034 
L 71.014905 123.038288 
L 72.389168 123.657893 
L 72.5396 127.110077 
L 75.129548 128.003556 
L 75.357238 129.564589 
L 72.127588 128.076386 
z
" clip-path="url(#p2ebe882cf6)" style="fill: #eeeeee; stroke: #000000; stroke-width: 0.3"/>
    <path d="M 157.420808 115.274567 
L 161.614056 116.22429 
L 164.357135 114.346984 
L 162.676594 119.9789 
L 161.039421 117.013576 
L 160.437673 119.622066 
L 157.648497 118.847532 
z
" clip-path="url(#p2ebe882cf6)" style="fill: #eeeeee; stroke: #000000; stroke-width: 0.3"/>
    <path d="M 201.567715 202.225377 
L 205.155152 198.101038 
L 210.818871 196.00796 
L 208.31837 204.560038 
L 202.374119 207.732819 
L 202.780703 203.897084 
z
" clip-path="url(#p2ebe882cf6)" style="fill: #eeeeee; stroke: #000000; stroke-width: 0.3"/>
    <path d="M 183.181979 166.362015 
L 186.94831 164.691237 
L 191.302832 165.600397 
L 186.797877 168.539911 
L 185.31385 166.978878 
L 183.48421 167.803197 
z
" clip-path="url(#p2ebe882cf6)" style="fill: #eeeeee; stroke: #000000; stroke-width: 0.3"/>
    <path d="M 171.002089 147.336298 
L 176.242954 148.188286 
L 175.385056 155.443937 
L 173.681467 156.936762 
L 171.683791 155.488193 
L 173.33587 151.893112 
z
" clip-path="url(#p2ebe882cf6)" style="fill: #eeeeee; stroke: #000000; stroke-width: 0.3"/>
    <path d="M 145.656977 191.058374 
L 146.111006 188.723712 
L 147.314485 189.961109 
L 147.020397 188.568806 
L 149.093965 188.405605 
L 149.3054 190.200857 
z
" clip-path="url(#p2ebe882cf6)" style="fill: #eeeeee; stroke: #000000; stroke-width: 0.3"/>
    <path d="M 83.913119 163.560798 
L 85.403924 162.18234 
L 90.03085 166.609127 
L 90.189427 167.302514 
L 88.483123 166.52798 
L 87.171213 168.385004 
z
" clip-path="url(#p2ebe882cf6)" style="fill: #eeeeee; stroke: #000000; stroke-width: 0.3"/>
    <path d="M 191.302832 215.124024 
L 193.852112 209.678377 
L 192.782795 214.103306 
L 193.701679 216.670328 
L 192.441261 219.31478 
z
" clip-path="url(#p2ebe882cf6)" style="fill: #eeeeee; stroke: #000000; stroke-width: 0.3"/>
    <path d="M 188.802331 189.581229 
L 194.85095 185.235589 
L 196.097811 186.24799 
L 190.0397 188.732029 
L 189.721215 190.424923 
z
" clip-path="url(#p2ebe882cf6)" style="fill: #eeeeee; stroke: #000000; stroke-width: 0.3"/>
    <path d="M 188.337477 181.113992 
L 190.909789 183.233787 
L 188.700694 184.377143 
L 189.404079 182.516448 
L 188.792855 182.204776 
z
" clip-path="url(#p2ebe882cf6)" style="fill: #eeeeee; stroke: #000000; stroke-width: 0.3"/>
    <path d="M 182.451498 174.702942 
L 183.490988 175.09481 
L 182.658853 175.748541 
L 182.973275 176.925094 
L 182.618185 176.867922 
z
" clip-path="url(#p2ebe882cf6)" style="fill: #eeeeee; stroke: #000000; stroke-width: 0.3"/>
    <path d="M 177.87335 192.493075 
L 180.243735 192.450677 
L 179.549843 191.354342 
L 181.279178 192.604655 
L 178.530671 194.178605 
z
" clip-path="url(#p2ebe882cf6)" style="fill: #eeeeee; stroke: #000000; stroke-width: 0.3"/>
    <path d="M 169.172448 187.794294 
L 173.616418 184.532979 
L 174.762991 185.56659 
L 171.514373 187.794294 
L 169.447567 188.361349 
z
" clip-path="url(#p2ebe882cf6)" style="fill: #eeeeee; stroke: #000000; stroke-width: 0.3"/>
    <path d="M 162.888013 197.72483 
L 164.138938 196.950295 
L 163.228198 194.940222 
L 164.845038 196.192371 
L 164.610587 198.049395 
z
" clip-path="url(#p2ebe882cf6)" style="fill: #eeeeee; stroke: #000000; stroke-width: 0.3"/>
    <path d="M 148.817497 100.684861 
L 150.907334 96.949626 
L 153.307547 98.510659 
L 153.203178 101.29436 
L 150.907334 102.236694 
z
" clip-path="url(#p2ebe882cf6)" style="fill: #eeeeee; stroke: #000000; stroke-width: 0.3"/>
    <path d="M 147.475776 140.592389 
L 147.890486 138.560177 
L 151.477906 142.13867 
L 149.648283 143.209173 
L 149.487008 141.324503 
z
" clip-path="url(#p2ebe882cf6)" style="fill: #eeeeee; stroke: #000000; stroke-width: 0.3"/>
    <path d="M 85.870143 145.709799 
L 86.935396 145.412902 
L 86.2469 146.271325 
L 86.920475 146.995145 
L 86.115452 146.301758 
z
" clip-path="url(#p2ebe882cf6)" style="fill: #eeeeee; stroke: #000000; stroke-width: 0.3"/>
    <path d="M 173.124451 171.45545 
L 174.754847 168.693889 
L 179.549843 167.597576 
L 177.3597 170.201443 
z
" clip-path="url(#p2ebe882cf6)" style="fill: #eeeeee; stroke: #000000; stroke-width: 0.3"/>
    <path d="M 164.251434 104.247696 
L 166.455116 103.503595 
L 168.367409 105.022231 
L 166.310096 106.10565 
z
" clip-path="url(#p2ebe882cf6)" style="fill: #eeeeee; stroke: #000000; stroke-width: 0.3"/>
    <path d="M 162.557321 181.268899 
L 165.627045 178.7019 
L 166.537785 182.746021 
L 164.357135 184.99677 
z
" clip-path="url(#p2ebe882cf6)" style="fill: #eeeeee; stroke: #000000; stroke-width: 0.3"/>
    <path d="M 161.410764 189.496411 
L 161.977273 187.794294 
L 163.68356 189.66607 
L 163.080463 190.995672 
z
" clip-path="url(#p2ebe882cf6)" style="fill: #eeeeee; stroke: #000000; stroke-width: 0.3"/>
    <path d="M 158.586349 182.856672 
L 160.841541 179.707843 
L 161.749584 179.707843 
L 160.003978 183.481828 
z
" clip-path="url(#p2ebe882cf6)" style="fill: #eeeeee; stroke: #000000; stroke-width: 0.3"/>
    <path d="M 151.762518 161.263957 
L 153.185559 160.482987 
L 156.096706 162.618463 
L 156.157692 167.597576 
z
" clip-path="url(#p2ebe882cf6)" style="fill: #eeeeee; stroke: #000000; stroke-width: 0.3"/>
    <path d="M 144.79773 171.100452 
L 145.029483 168.525159 
L 146.452523 167.597576 
L 146.802201 168.993551 
z
" clip-path="url(#p2ebe882cf6)" style="fill: #eeeeee; stroke: #000000; stroke-width: 0.3"/>
    <path d="M 130.626925 165.886236 
L 130.645894 165.740552 
L 132.653063 165.600397 
L 131.620334 167.765377 
z
" clip-path="url(#p2ebe882cf6)" style="fill: #eeeeee; stroke: #000000; stroke-width: 0.3"/>
    <path d="M 130.358568 162.786286 
L 131.846674 161.239076 
L 130.709594 160.761439 
L 133.108441 161.563641 
z
" clip-path="url(#p2ebe882cf6)" style="fill: #eeeeee; stroke: #000000; stroke-width: 0.3"/>
    <path d="M 129.79071 176.289786 
L 131.278817 175.05146 
L 133.33613 174.743505 
L 131.831769 175.89699 
z
" clip-path="url(#p2ebe882cf6)" style="fill: #eeeeee; stroke: #000000; stroke-width: 0.3"/>
    <path d="M 121.919246 198.14253 
L 122.634838 196.985351 
L 125.28712 200.433841 
L 123.403272 202.703943 
z
" clip-path="url(#p2ebe882cf6)" style="fill: #eeeeee; stroke: #000000; stroke-width: 0.3"/>
    <path d="M 83.913119 149.579661 
L 86.211677 152.069229 
L 86.314664 153.1674 
L 85.051548 152.857586 
z
" clip-path="url(#p2ebe882cf6)" style="fill: #eeeeee; stroke: #000000; stroke-width: 0.3"/>
    <path d="M 202.829481 192.759562 
L 204.194251 191.199435 
L 204.21187 193.846674 
z
" clip-path="url(#p2ebe882cf6)" style="fill: #eeeeee; stroke: #000000; stroke-width: 0.3"/>
    <path d="M 198.813795 200.894868 
L 200.438778 200.311203 
L 200.475366 200.640369 
z
" clip-path="url(#p2ebe882cf6)" style="fill: #eeeeee; stroke: #000000; stroke-width: 0.3"/>
    <path d="M 195.119291 195.268482 
L 196.097811 194.940222 
L 197.304005 197.080321 
z
" clip-path="url(#p2ebe882cf6)" style="fill: #eeeeee; stroke: #000000; stroke-width: 0.3"/>
    <path d="M 192.332846 192.90341 
L 192.457532 192.21093 
L 193.469926 192.931056 
z
" clip-path="url(#p2ebe882cf6)" style="fill: #eeeeee; stroke: #000000; stroke-width: 0.3"/>
    <path d="M 187.647631 220.031213 
L 188.510942 218.85006 
L 190.290438 219.455841 
z
" clip-path="url(#p2ebe882cf6)" style="fill: #eeeeee; stroke: #000000; stroke-width: 0.3"/>
    <path d="M 186.38723 179.008927 
L 187.67068 178.903828 
L 187.673394 180.917594 
z
" clip-path="url(#p2ebe882cf6)" style="fill: #eeeeee; stroke: #000000; stroke-width: 0.3"/>
    <path d="M 169.863643 180.339458 
L 170.764907 180.030573 
L 170.800146 180.829083 
z
" clip-path="url(#p2ebe882cf6)" style="fill: #eeeeee; stroke: #000000; stroke-width: 0.3"/>
    <path d="M 169.295785 197.697161 
L 169.652224 196.708735 
L 171.106441 197.569923 
z
" clip-path="url(#p2ebe882cf6)" style="fill: #eeeeee; stroke: #000000; stroke-width: 0.3"/>
    <path d="M 167.684358 185.151677 
L 168.263057 185.61454 
L 168.089575 185.880098 
z
" clip-path="url(#p2ebe882cf6)" style="fill: #eeeeee; stroke: #000000; stroke-width: 0.3"/>
    <path d="M 165.578249 146.95089 
L 167.237106 147.365802 
L 166.204395 148.357016 
z
" clip-path="url(#p2ebe882cf6)" style="fill: #eeeeee; stroke: #000000; stroke-width: 0.3"/>
    <path d="M 164.308356 186.379851 
L 164.831482 186.07926 
L 164.822006 186.884227 
z
" clip-path="url(#p2ebe882cf6)" style="fill: #eeeeee; stroke: #000000; stroke-width: 0.3"/>
    <path d="M 161.977273 173.814063 
L 162.072132 172.085207 
L 164.573982 172.497378 
z
" clip-path="url(#p2ebe882cf6)" style="fill: #eeeeee; stroke: #000000; stroke-width: 0.3"/>
    <path d="M 157.987316 191.354342 
L 158.608049 189.961109 
L 159.91996 189.806202 
z
" clip-path="url(#p2ebe882cf6)" style="fill: #eeeeee; stroke: #000000; stroke-width: 0.3"/>
    <path d="M 157.296138 182.970087 
L 158.07678 182.192789 
L 157.648497 183.84605 
z
" clip-path="url(#p2ebe882cf6)" style="fill: #eeeeee; stroke: #000000; stroke-width: 0.3"/>
    <path d="M 156.613071 167.765377 
L 161.183075 169.778237 
L 160.462071 171.072806 
z
" clip-path="url(#p2ebe882cf6)" style="fill: #eeeeee; stroke: #000000; stroke-width: 0.3"/>
    <path d="M 156.474828 125.644013 
L 157.653926 125.469732 
L 156.613071 127.245632 
z
" clip-path="url(#p2ebe882cf6)" style="fill: #eeeeee; stroke: #000000; stroke-width: 0.3"/>
    <path d="M 154.897291 174.911328 
L 155.122266 171.581782 
L 156.266124 174.044588 
z
" clip-path="url(#p2ebe882cf6)" style="fill: #eeeeee; stroke: #000000; stroke-width: 0.3"/>
    <path d="M 154.214224 190.734714 
L 155.997767 191.661391 
L 156.260695 192.29577 
z
" clip-path="url(#p2ebe882cf6)" style="fill: #eeeeee; stroke: #000000; stroke-width: 0.3"/>
    <path d="M 151.197375 169.396499 
L 152.136576 168.848796 
L 152.170467 169.698019 
z
" clip-path="url(#p2ebe882cf6)" style="fill: #eeeeee; stroke: #000000; stroke-width: 0.3"/>
    <path d="M 150.907334 182.042504 
L 152.964648 184.29969 
L 152.04578 185.319478 
z
" clip-path="url(#p2ebe882cf6)" style="fill: #eeeeee; stroke: #000000; stroke-width: 0.3"/>
    <path d="M 150.339477 188.104108 
L 151.299013 188.255321 
L 151.191946 188.801166 
z
" clip-path="url(#p2ebe882cf6)" style="fill: #eeeeee; stroke: #000000; stroke-width: 0.3"/>
    <path d="M 148.890673 187.287153 
L 149.566963 186.646315 
L 149.749937 188.090262 
z
" clip-path="url(#p2ebe882cf6)" style="fill: #eeeeee; stroke: #000000; stroke-width: 0.3"/>
    <path d="M 147.248087 180.339458 
L 148.879831 178.527619 
L 149.077711 180.200232 
z
" clip-path="url(#p2ebe882cf6)" style="fill: #eeeeee; stroke: #000000; stroke-width: 0.3"/>
    <path d="M 146.338695 176.134879 
L 147.475776 172.112875 
L 148.249639 173.803005 
z
" clip-path="url(#p2ebe882cf6)" style="fill: #eeeeee; stroke: #000000; stroke-width: 0.3"/>
    <path d="M 140.983969 231.889791 
L 141.553192 231.438893 
L 142.463949 232.661538 
z
" clip-path="url(#p2ebe882cf6)" style="fill: #eeeeee; stroke: #000000; stroke-width: 0.3"/>
    <path d="M 140.959571 130.089246 
L 141.776818 130.349252 
L 141.263168 131.097047 
z
" clip-path="url(#p2ebe882cf6)" style="fill: #eeeeee; stroke: #000000; stroke-width: 0.3"/>
    <path d="M 138.158222 186.690594 
L 138.362862 186.90358 
L 138.284257 186.947835 
z
" clip-path="url(#p2ebe882cf6)" style="fill: #eeeeee; stroke: #000000; stroke-width: 0.3"/>
    <path d="M 137.438566 134.516034 
L 139.495879 131.267635 
L 138.476707 134.161964 
z
" clip-path="url(#p2ebe882cf6)" style="fill: #eeeeee; stroke: #000000; stroke-width: 0.3"/>
    <path d="M 133.33613 133.12373 
L 136.758213 135.008423 
L 135.495081 136.077996 
z
" clip-path="url(#p2ebe882cf6)" style="fill: #eeeeee; stroke: #000000; stroke-width: 0.3"/>
    <path d="M 131.225958 134.8406 
L 131.392662 132.982646 
L 132.098761 133.782084 
z
" clip-path="url(#p2ebe882cf6)" style="fill: #eeeeee; stroke: #000000; stroke-width: 0.3"/>
    <path d="M 131.047064 184.754258 
L 131.339803 185.269693 
L 131.28288 185.324101 
z
" clip-path="url(#p2ebe882cf6)" style="fill: #eeeeee; stroke: #000000; stroke-width: 0.3"/>
    <path d="M 130.823439 171.324518 
L 131.898168 171.079241 
L 132.311529 171.324518 
z
" clip-path="url(#p2ebe882cf6)" style="fill: #eeeeee; stroke: #000000; stroke-width: 0.3"/>
    <path d="M 128.481514 208.991426 
L 129.065642 208.869716 
L 129.107659 209.680213 
z
" clip-path="url(#p2ebe882cf6)" style="fill: #eeeeee; stroke: #000000; stroke-width: 0.3"/>
    <path d="M 125.12991 176.923236 
L 126.196512 176.998854 
L 126.261561 177.614788 
z
" clip-path="url(#p2ebe882cf6)" style="fill: #eeeeee; stroke: #000000; stroke-width: 0.3"/>
    <path d="M 102.748804 189.66607 
L 103.240771 188.870326 
L 103.204183 189.961109 
z
" clip-path="url(#p2ebe882cf6)" style="fill: #eeeeee; stroke: #000000; stroke-width: 0.3"/>
    <path d="M 101.922082 187.882806 
L 102.396429 187.794294 
L 102.179581 188.104108 
z
" clip-path="url(#p2ebe882cf6)" style="fill: #eeeeee; stroke: #000000; stroke-width: 0.3"/>
    <path d="M 88.483123 148.047202 
L 89.12011 146.823651 
L 88.710813 148.047202 
z
" clip-path="url(#p2ebe882cf6)" style="fill: #eeeeee; stroke: #000000; stroke-width: 0.3"/>
    <path d="M 88.095509 147.288349 
L 88.390962 146.235363 
L 89.27867 146.271325 
z
" clip-path="url(#p2ebe882cf6)" style="fill: #eeeeee; stroke: #000000; stroke-width: 0.3"/>
    <path d="M 82.666257 147.582504 
L 85.025802 141.22491 
L 85.520483 146.279619 
z
" clip-path="url(#p2ebe882cf6)" style="fill: #eeeeee; stroke: #000000; stroke-width: 0.3"/>
    <path d="M 75.902046 133.085004 
L 76.762659 133.236217 
L 76.959172 133.757181 
z
" clip-path="url(#p2ebe882cf6)" style="fill: #eeeeee; stroke: #000000; stroke-width: 0.3"/>
    <path d="M -149.517421 -0.479196 
L -141.096417 -4.008607 
L -140.22548 -7.446696 
L -143.187687 -9.717296 
L -143.511269 -12.654182 
L -146.531981 -15.752681 
L -142.533614 -19.101783 
L -140.344254 -17.997516 
L -133.889718 -20.435555 
L -128.850029 -18.964778 
L -124.405877 -23.672238 
L -124.793141 -26.954582 
L -119.600272 -31.042006 
L -118.951378 -26.129016 
L -112.775692 -22.82911 
L -113.459009 -20.412146 
L -111.742963 -19.595939 
L -111.259307 -16.861639 
L -109.553586 -16.732814 
L -108.543241 -18.505745 
L -109.558749 -21.686208 
L -105.849557 -26.034159 
L -104.892569 -32.066055 
L -102.355514 -32.087718 
L -100.660118 -27.562335 
L -94.298543 -29.205852 
L -91.678869 -25.781223 
L -90.293299 -26.742638 
L -91.412077 -28.249717 
L -90.596229 -29.925435 
L -92.501594 -30.907924 
L -92.394877 -32.87288 
L -89.740779 -34.999428 
L -85.546199 -32.980608 
L -85.294911 -34.925668 
L -86.792361 -36.032268 
L -85.382693 -40.383733 
L -76.337759 -38.223806 
L -73.380714 -42.636771 
L -64.048338 -42.790159 
L -56.624774 -45.386889 
L -57.51981 -41.390808 
L -55.19274 -40.468052 
L -52.888037 -36.433925 
L -31.305842 -32.573105 
L -36.896318 -27.3738 
L -36.149317 -25.508392 
L -32.364384 -24.883054 
L -35.288704 -20.940271 
L -32.889341 -20.464832 
L -33.553723 -16.950626 
L -30.010635 -14.981002 
L -28.07944 -12.452775 
L -28.860864 -11.383655 
L -31.125799 -11.577312 
L -29.52115 -12.055855 
L -33.416231 -16.028074 
L -36.289424 -13.440794 
L -36.827472 -15.008285 
L -40.992242 -15.627913 
L -41.564163 -12.681012 
L -52.577179 -8.06152 
L -49.945231 -10.663551 
L -53.02578 -10.354667 
L -57.060451 -5.238186 
L -55.794621 -2.76337 
L -54.515235 -3.362716 
L -53.490634 1.616397 
L -53.490634 0.378072 
L -50.742126 2.54398 
L -52.228867 5.932534 
L -52.856362 4.328151 
L -52.701865 6.322566 
L -55.196937 5.793308 
L -53.490634 18.845004 
L -48.11559 24.737877 
L -32.727734 34.484931 
L -25.070402 56.276809 
L -14.51413 65.869885 
L -13.989639 67.928837 
L -6.917784 71.482426 
L 9.321192 71.661308 
L 10.051689 74.840569 
L 5.317696 78.57857 
L 6.334153 82.095291 
L 24.587076 90.651968 
L 31.564055 96.355808 
L 40.405897 100.422091 
L 48.884538 112.012323 
L 46.770303 119.312252 
L 41.480642 117.172154 
L 38.009764 108.694765 
L 32.163088 108.285381 
L 26.969653 105.640929 
L 29.018839 103.871488 
L 23.237212 104.004278 
L 17.053065 113.253414 
L 17.5003 115.932922 
L 15.138058 120.261045 
L 16.073196 122.852019 
L 26.278458 128.623183 
L 26.506147 138.722448 
L 16.73458 142.408828 
L 16.467588 150.755285 
L 9.803666 157.242882 
L 8.26678 161.850387 
L 1.726195 161.541502 
L 0.866948 155.496509 
L 3.864828 153.676353 
L 5.613149 148.777481 
L 4.260569 145.781723 
L 9.523134 143.925628 
L 10.673754 141.077391 
L 3.225143 117.635039 
L 0.724642 113.404627 
L -2.842211 115.303935 
L -5.321262 114.501891 
L -7.553406 111.323559 
L -11.151684 109.691508 
L -9.700749 106.158426 
L -13.302508 99.987803 
L -20.619671 102.236694 
L -18.429528 98.632368 
L -21.426059 96.160339 
L -25.531243 97.274848 
L -25.970118 94.27823 
L -30.957747 86.787636 
L -33.920388 87.824964 
L -38.219337 85.805645 
L -42.236389 87.35102 
L -44.751795 83.45809 
L -49.053442 82.366378 
L -55.652316 75.822537 
L -59.293944 70.003446 
L -62.505957 69.07217 
L -65.324943 63.515872 
L -70.014221 60.626143 
L -74.511033 60.980213 
L -73.148279 58.963319 
L -73.647723 57.065166 
L -77.225667 53.009965 
L -80.761595 51.617661 
L -80.224896 49.037746 
L -84.621436 48.534299 
L -84.144375 41.593968 
L -87.657253 36.022919 
L -88.749618 28.001028 
L -91.431711 23.950426 
L -95.52602 22.063898 
L -95.733375 23.566853 
L -105.752965 16.510365 
L -106.085007 17.606678 
L -113.551254 14.733559 
L -118.485824 17.630653 
L -125.11992 26.866895 
L -134.536414 29.233824 
L -134.943097 27.572972 
L -131.411183 22.999594 
L -131.982621 20.535791 
L -137.228865 21.723199 
L -143.344315 18.872944 
L -145.636962 12.424187 
L -143.56979 9.044652 
L -141.982843 9.005994 
L -142.819341 5.763464 
L -147.141289 3.954254 
z
M -52.08831 72.023716 
L -52.07159 72.050071 
L -52.072456 72.024917 
z
M -53.043849 25.694556 
L -51.667705 26.405437 
L -51.603205 24.92052 
z
" clip-path="url(#p2ebe882cf6)" style="fill: #eeeeee; stroke: #000000; stroke-width: 0.3"/>
    <path d="M -123.794453 101.724953 
L -123.032797 93.327783 
L -121.081185 95.89111 
L -117.579148 96.427733 
L -112.549701 93.700298 
L -105.752965 86.555276 
L -102.559921 88.411371 
L -102.218387 90.422395 
L -100.274919 89.64879 
L -101.069116 92.138336 
L -98.559139 92.44722 
L -101.196517 94.16316 
L -97.537252 96.021113 
L -98.637745 97.041831 
L -96.265993 104.845185 
L -99.166299 109.2056 
L -97.39901 113.265401 
L -100.161074 134.445968 
L -100.957986 135.458369 
L -109.362069 131.847607 
L -108.264291 132.738321 
L -109.165556 137.934091 
L -112.0374 140.592389 
L -114.314276 139.354992 
L -115.573328 140.902203 
L -116.928605 136.542717 
L -120.03898 132.795471 
L -118.853105 120.673216 
L -117.638768 121.917049 
L -116.825602 121.941023 
L -117.847489 121.478161 
L -117.001798 118.505449 
L -119.677112 117.146343 
L -119.965787 114.402299 
L -118.087368 112.799774 
L -119.921072 104.546452 
L -121.392892 101.676075 
z
" clip-path="url(#p2ebe882cf6)" style="fill: #eeeeee; stroke: #000000; stroke-width: 0.3"/>
    <path d="M -52.521606 165.087727 
L -51.423828 160.002585 
L -47.898759 157.976831 
L -47.446095 156.119807 
L -44.625743 159.852301 
L -41.957207 158.596459 
L -41.298537 156.180673 
L -37.68129 155.488193 
L -36.46154 158.150184 
L -29.809825 161.086004 
L -25.983874 159.369135 
L -17.8034 159.482551 
L -11.219448 156.235058 
L -8.208012 157.5822 
L -5.722416 154.487779 
L -4.811676 155.7971 
L 1.180021 154.249889 
L -6.123587 165.893601 
L -8.147026 172.328648 
L -7.947798 175.67571 
L -5.475758 177.308668 
L -6.616902 178.447401 
L -4.136752 182.885269 
L -7.034344 184.865838 
L -8.107724 190.968004 
L -18.209983 187.831163 
L -21.68221 182.151297 
L -31.058035 179.265262 
L -40.080136 172.112875 
L -48.652288 170.342527 
z
" clip-path="url(#p2ebe882cf6)" style="fill: #eeeeee; stroke: #000000; stroke-width: 0.3"/>
    <path d="M -91.162021 52.683541 
L -90.725612 51.448002 
L -85.556574 50.68822 
L -86.020079 53.782641 
z
" clip-path="url(#p2ebe882cf6)" style="fill: #eeeeee; stroke: #000000; stroke-width: 0.3"/>
    <path d="M -102.315978 88.293355 
L -101.687118 87.157387 
L -101.685769 88.444568 
L -101.860599 88.593946 
z
" clip-path="url(#p2ebe882cf6)" style="fill: #eeeeee; stroke: #000000; stroke-width: 0.3"/>
    <path d="M -122.417493 133.912088 
L -121.154378 133.447367 
L -121.154378 135.458369 
L -122.005481 135.40029 
z
" clip-path="url(#p2ebe882cf6)" style="fill: #eeeeee; stroke: #000000; stroke-width: 0.3"/>
    <path d="M -6.557282 142.60892 
L -6.139857 142.122989 
L -6.050394 142.971283 
z
" clip-path="url(#p2ebe882cf6)" style="fill: #eeeeee; stroke: #000000; stroke-width: 0.3"/>
    <path d="M -10.533666 151.504915 
L -9.549733 151.92998 
L -9.891267 152.237958 
z
" clip-path="url(#p2ebe882cf6)" style="fill: #eeeeee; stroke: #000000; stroke-width: 0.3"/>
    <path d="M -10.923995 148.651149 
L -10.015953 149.440435 
L -10.232801 150.213111 
z
" clip-path="url(#p2ebe882cf6)" style="fill: #eeeeee; stroke: #000000; stroke-width: 0.3"/>
    <path d="M -13.105994 147.535461 
L -11.887594 147.319711 
L -11.975692 148.267575 
z
" clip-path="url(#p2ebe882cf6)" style="fill: #eeeeee; stroke: #000000; stroke-width: 0.3"/>
    <path d="M -17.291099 147.189708 
L -16.933311 147.242258 
L -17.139301 147.762292 
z
" clip-path="url(#p2ebe882cf6)" style="fill: #eeeeee; stroke: #000000; stroke-width: 0.3"/>
    <path d="M -20.616957 148.086858 
L -20.377077 147.997417 
L -20.316091 148.273104 
z
" clip-path="url(#p2ebe882cf6)" style="fill: #eeeeee; stroke: #000000; stroke-width: 0.3"/>
    <path d="M -28.838082 98.958792 
L -28.610393 97.891031 
L -26.894614 98.510659 
z
" clip-path="url(#p2ebe882cf6)" style="fill: #eeeeee; stroke: #000000; stroke-width: 0.3"/>
    <path d="M -36.072577 97.359009 
L -35.915366 97.033537 
L -35.785251 97.005869 
z
" clip-path="url(#p2ebe882cf6)" style="fill: #eeeeee; stroke: #000000; stroke-width: 0.3"/>
    <path d="M -40.423019 144.744396 
L -39.886338 144.228984 
L -39.691173 144.437369 
z
" clip-path="url(#p2ebe882cf6)" style="fill: #eeeeee; stroke: #000000; stroke-width: 0.3"/>
    <path d="M -45.545993 208.92043 
L -45.077058 208.835612 
L -45.101456 209.156484 
z
" clip-path="url(#p2ebe882cf6)" style="fill: #eeeeee; stroke: #000000; stroke-width: 0.3"/>
    <path d="M -50.870876 216.761604 
L -50.378909 216.658341 
L -49.455962 217.383067 
z
" clip-path="url(#p2ebe882cf6)" style="fill: #eeeeee; stroke: #000000; stroke-width: 0.3"/>
    <path d="M -54.279419 -6.021014 
L -53.151815 -7.959162 
L -52.456557 -7.554379 
z
" clip-path="url(#p2ebe882cf6)" style="fill: #eeeeee; stroke: #000000; stroke-width: 0.3"/>
    <path d="M -54.292958 -7.875251 
L -53.574668 -8.32429 
L -53.603129 -8.063355 
z
" clip-path="url(#p2ebe882cf6)" style="fill: #eeeeee; stroke: #000000; stroke-width: 0.3"/>
    <path d="M -54.642619 162.317872 
L -54.400025 161.703773 
L -53.490634 162.18234 
z
" clip-path="url(#p2ebe882cf6)" style="fill: #eeeeee; stroke: #000000; stroke-width: 0.3"/>
    <path d="M -59.125892 160.842586 
L -58.740992 160.66001 
L -58.312725 161.615262 
z
" clip-path="url(#p2ebe882cf6)" style="fill: #eeeeee; stroke: #000000; stroke-width: 0.3"/>
    <path d="M -60.882339 187.409791 
L -58.774882 187.899393 
L -59.123177 189.009551 
z
" clip-path="url(#p2ebe882cf6)" style="fill: #eeeeee; stroke: #000000; stroke-width: 0.3"/>
    <path d="M -78.587722 61.546361 
L -77.289784 62.353481 
L -77.563454 62.623866 
z
" clip-path="url(#p2ebe882cf6)" style="fill: #eeeeee; stroke: #000000; stroke-width: 0.3"/>
    <path d="M -88.036741 62.413078 
L -87.678936 62.124475 
L -87.723668 62.506213 
z
" clip-path="url(#p2ebe882cf6)" style="fill: #eeeeee; stroke: #000000; stroke-width: 0.3"/>
    <path d="M -92.102572 56.659453 
L -91.617383 55.934727 
L -91.511682 56.874297 
z
" clip-path="url(#p2ebe882cf6)" style="fill: #eeeeee; stroke: #000000; stroke-width: 0.3"/>
    <path d="M -96.246109 47.009069 
L -96.155413 45.681098 
L -95.569486 46.62042 
z
" clip-path="url(#p2ebe882cf6)" style="fill: #eeeeee; stroke: #000000; stroke-width: 0.3"/>
    <path d="M -103.381231 87.297542 
L -102.695449 86.559899 
L -103.011236 87.734594 
z
" clip-path="url(#p2ebe882cf6)" style="fill: #eeeeee; stroke: #000000; stroke-width: 0.3"/>
    <path d="M -120.484866 135.613276 
L -118.189022 136.246726 
L -119.422328 138.692945 
z
" clip-path="url(#p2ebe882cf6)" style="fill: #eeeeee; stroke: #000000; stroke-width: 0.3"/>
    <path d="M -122.756312 92.602127 
L -120.815558 89.64879 
L -122.143723 92.651006 
z
" clip-path="url(#p2ebe882cf6)" style="fill: #eeeeee; stroke: #000000; stroke-width: 0.3"/>
    <path d="M 54.533302 -17.56307 
L 58.032508 -21.067917 
L 61.330337 -20.374666 
L 66.101518 -24.515365 
L 77.640491 -23.244816 
L 85.055445 -14.973955 
L 86.681994 -15.188255 
L 86.372169 -8.997124 
L 98.46536 -1.423027 
L 96.102152 1.905001 
L 99.181385 4.373495 
L 96.170998 5.114741 
L 96.84399 6.618307 
L 106.809772 9.602054 
L 109.012922 13.135 
L 113.999252 7.900571 
L 119.646534 11.318742 
L 114.966565 13.200557 
L 118.422271 19.34904 
L 116.779002 23.076889 
L 113.558629 24.67649 
L 112.723829 28.878078 
L 115.544897 36.439282 
L 123.300652 43.228807 
L 119.011395 49.749012 
L 114.021618 51.409502 
L 114.945914 53.218713 
L 113.987195 56.865233 
L 115.839218 59.005853 
L 113.964829 62.461504 
L 111.381292 61.454428 
L 99.826832 64.362059 
L 98.844031 62.097894 
L 100.532532 61.084972 
L 102.980091 54.672517 
L 96.556547 52.983928 
L 97.052261 50.653028 
L 94.589214 49.756626 
L 91.792244 45.131129 
L 87.561525 43.323074 
L 87.243107 41.352861 
L 83.656102 42.700093 
L 84.318769 46.001767 
L 81.248146 48.318617 
L 81.528694 50.459803 
L 79.347927 51.096244 
L 79.210234 49.294058 
L 72.41663 44.60475 
L 66.90361 43.193094 
L 59.872474 36.288817 
L 61.151343 33.847243 
L 65.096335 34.395286 
L 65.392388 32.520497 
L 60.998146 24.479752 
L 65.74523 25.041845 
L 67.249574 23.716253 
L 58.886226 16.737015 
L 59.106537 12.780183 
L 63.215068 4.969533 
L 60.054931 3.506936 
L 57.206335 4.9098 
L 56.800118 3.792662 
L 59.135798 2.926104 
L 57.689991 -1.245029 
L 63.734863 -2.738058 
L 56.567999 -6.546736 
L 57.103066 -9.435083 
L 58.712394 -9.729012 
L 55.337109 -11.121338 
L 56.418016 -13.288878 
z
" clip-path="url(#p2ebe882cf6)" style="fill: #eeeeee; stroke: #000000; stroke-width: 0.3"/>
    <path d="M -34.534326 -9.735039 
L -28.1741 -7.734779 
L -26.793692 -9.787566 
L -20.11713 -8.963156 
L -16.650632 -13.267804 
L -13.049855 -8.676275 
L -10.960317 -9.80395 
L -7.352662 -7.879987 
L -4.256226 -8.396396 
L -5.19944 -11.768906 
L -3.447256 -12.642489 
L -5.424915 -14.528972 
L 1.58727 -17.208253 
L 1.952169 -21.615938 
L 0.151789 -23.367772 
L 0.983124 -25.501367 
L 7.301682 -27.567026 
L 7.947129 -29.350471 
L 11.571987 -29.251513 
L 10.893833 -31.97471 
L 12.713148 -33.190217 
L 20.931909 -29.44884 
L 28.467352 -20.44727 
L 33.479512 -19.350028 
L 37.92538 -15.622701 
L 47.023672 -14.9447 
L 51.207927 -18.701305 
L 55.299238 -19.236454 
L 54.361169 -16.61924 
L 56.418016 -13.288878 
L 55.337109 -11.121338 
L 58.712394 -9.729012 
L 57.103066 -9.435083 
L 56.567999 -6.546736 
L 63.734863 -2.738058 
L 58.972292 -2.571776 
L 57.689991 -1.245029 
L 59.135798 2.926104 
L 55.10474 5.010525 
L 51.681258 -0.056443 
L 48.899793 0.599306 
L 44.250816 -1.702883 
L 37.553603 0.404924 
L 35.038913 -1.850448 
L 26.751306 -1.501477 
L 22.376 -4.582415 
L 20.499895 -2.241567 
L 15.790666 -3.171349 
L 12.248427 1.837065 
L 7.322333 -2.982814 
L 3.523627 -2.435949 
L 2.459923 7.097258 
L 7.453148 10.369065 
L 7.083086 12.266108 
L 8.921337 12.708734 
L 12.425705 22.658826 
L 24.143689 34.757129 
L 28.140323 36.689295 
L 28.463905 40.310073 
L 34.100861 46.130569 
L 34.202415 48.309824 
L 32.222725 48.117528 
L 31.995036 46.483641 
L 21.647468 37.9869 
L 13.500867 35.610748 
L 14.206984 34.72835 
L 6.307041 35.765655 
L 6.156608 31.583215 
L 2.090761 29.886627 
L -7.264731 20.096246 
L -7.32978 18.124877 
L -4.754754 18.845004 
L -5.321262 16.988909 
L -2.602564 18.453137 
L -0.867817 18.36646 
L -9.549733 11.615164 
L -11.607046 8.127946 
L -10.976854 2.798457 
L -12.12341 -0.257237 
L -16.819467 -4.789146 
L -21.137384 -5.929715 
L -23.804572 2.375251 
L -25.178834 3.008701 
L -24.929462 2.173301 
L -25.65453 0.982018 
L -26.325391 6.101264 
L -28.155031 5.638401 
L -27.691526 6.889621 
L -27.938184 7.022411 
L -32.60035 0.209342 
L -30.884554 -1.182984 
L -33.054363 -1.430097 
L -32.828039 -5.389399 
z
" clip-path="url(#p2ebe882cf6)" style="fill: #eeeeee; stroke: #000000; stroke-width: 0.3"/>
    <path d="M 23.662763 46.01892 
L 35.983627 50.828375 
L 34.515854 49.657351 
L 37.154281 49.228479 
L 37.932258 51.333386 
L 47.572744 57.17439 
L 48.55656 60.412228 
L 38.504445 51.925617 
L 35.642093 51.123437 
L 36.323795 52.200397 
L 36.104249 52.351611 
L 27.197342 47.579976 
L 24.404102 47.297808 
z
" clip-path="url(#p2ebe882cf6)" style="fill: #eeeeee; stroke: #000000; stroke-width: 0.3"/>
    <path d="M -21.687622 -0.703512 
L -21.102145 -2.042337 
L -18.44037 2.512618 
L -17.766795 9.52025 
L -19.199328 9.647488 
L -21.426059 3.935355 
L -19.474447 2.853794 
z
" clip-path="url(#p2ebe882cf6)" style="fill: #eeeeee; stroke: #000000; stroke-width: 0.3"/>
    <path d="M -19.246775 -0.114317 
L -17.497105 -1.190349 
L -17.185381 -3.771193 
L -12.753619 2.375251 
L -14.278314 3.148856 
z
" clip-path="url(#p2ebe882cf6)" style="fill: #eeeeee; stroke: #000000; stroke-width: 0.3"/>
    <path d="M 13.739398 39.646597 
L 14.080932 38.255223 
L 21.842632 40.111318 
L 14.007756 39.989608 
z
" clip-path="url(#p2ebe882cf6)" style="fill: #eeeeee; stroke: #000000; stroke-width: 0.3"/>
    <path d="M 7.795148 45.709107 
L 9.150425 45.181707 
L 10.999034 45.555129 
L 8.433484 46.926222 
z
" clip-path="url(#p2ebe882cf6)" style="fill: #eeeeee; stroke: #000000; stroke-width: 0.3"/>
    <path d="M -8.630849 20.856006 
L -5.912168 23.024679 
L -5.435107 24.120085 
L -7.642853 22.435485 
z
" clip-path="url(#p2ebe882cf6)" style="fill: #eeeeee; stroke: #000000; stroke-width: 0.3"/>
    <path d="M -15.369314 6.4249 
L -14.221392 6.4249 
L -14.904443 5.328587 
L -12.019058 8.269937 
z
" clip-path="url(#p2ebe882cf6)" style="fill: #eeeeee; stroke: #000000; stroke-width: 0.3"/>
    <path d="M 29.026966 51.925617 
L 30.169475 51.679434 
L 36.106947 54.107207 
z
" clip-path="url(#p2ebe882cf6)" style="fill: #eeeeee; stroke: #000000; stroke-width: 0.3"/>
    <path d="M 20.651327 53.166707 
L 22.321043 52.235431 
L 22.575827 52.725961 
z
" clip-path="url(#p2ebe882cf6)" style="fill: #eeeeee; stroke: #000000; stroke-width: 0.3"/>
    <path d="M 17.501666 47.579976 
L 26.969653 48.958434 
L 21.160913 49.436071 
z
" clip-path="url(#p2ebe882cf6)" style="fill: #eeeeee; stroke: #000000; stroke-width: 0.3"/>
    <path d="M 13.170192 42.75577 
L 26.855808 44.302051 
L 22.690355 44.302051 
z
" clip-path="url(#p2ebe882cf6)" style="fill: #eeeeee; stroke: #000000; stroke-width: 0.3"/>
    <path d="M 10.502987 36.080998 
L 11.385283 35.563727 
L 13.231177 36.078233 
z
" clip-path="url(#p2ebe882cf6)" style="fill: #eeeeee; stroke: #000000; stroke-width: 0.3"/>
    <path d="M 10.32003 37.961996 
L 11.595353 37.851345 
L 12.78799 39.511065 
z
" clip-path="url(#p2ebe882cf6)" style="fill: #eeeeee; stroke: #000000; stroke-width: 0.3"/>
    <path d="M 0.383108 31.896722 
L 2.658635 32.966296 
L 1.520189 32.741323 
z
" clip-path="url(#p2ebe882cf6)" style="fill: #eeeeee; stroke: #000000; stroke-width: 0.3"/>
    <path d="M -5.321262 24.274992 
L -2.243411 27.074351 
L -3.698993 26.352389 
z
" clip-path="url(#p2ebe882cf6)" style="fill: #eeeeee; stroke: #000000; stroke-width: 0.3"/>
    <path d="M -5.878278 27.370342 
L -5.235879 27.765903 
L -3.082341 29.682864 
z
" clip-path="url(#p2ebe882cf6)" style="fill: #eeeeee; stroke: #000000; stroke-width: 0.3"/>
    <path d="M -12.176269 20.546192 
L -9.549733 22.417968 
L -6.432596 27.411833 
z
" clip-path="url(#p2ebe882cf6)" style="fill: #eeeeee; stroke: #000000; stroke-width: 0.3"/>
    <path d="M -12.628933 20.702957 
L -11.851006 21.341007 
L -12.546264 20.947305 
z
" clip-path="url(#p2ebe882cf6)" style="fill: #eeeeee; stroke: #000000; stroke-width: 0.3"/>
    <path d="M -13.732123 16.277076 
L -13.611517 15.113439 
L -12.948784 15.336576 
z
" clip-path="url(#p2ebe882cf6)" style="fill: #eeeeee; stroke: #000000; stroke-width: 0.3"/>
    <path d="M -13.859524 18.596056 
L -13.141234 18.349873 
L -13.173758 18.477111 
z
" clip-path="url(#p2ebe882cf6)" style="fill: #eeeeee; stroke: #000000; stroke-width: 0.3"/>
    <path d="M -14.107547 8.590832 
L -5.435107 16.820179 
L -7.527659 17.455465 
z
" clip-path="url(#p2ebe882cf6)" style="fill: #eeeeee; stroke: #000000; stroke-width: 0.3"/>
    <path d="M -16.415581 16.659743 
L -15.607844 17.143816 
L -15.311026 17.531083 
z
" clip-path="url(#p2ebe882cf6)" style="fill: #eeeeee; stroke: #000000; stroke-width: 0.3"/>
    <path d="M -20.733516 8.282853 
L -17.426627 13.556099 
L -20.279486 11.531252 
z
" clip-path="url(#p2ebe882cf6)" style="fill: #eeeeee; stroke: #000000; stroke-width: 0.3"/>
    <path d="M -22.45201 10.33904 
L -21.655098 9.17171 
L -21.80961 10.64516 
z
" clip-path="url(#p2ebe882cf6)" style="fill: #eeeeee; stroke: #000000; stroke-width: 0.3"/>
    <path d="M 112.64982 62.743717 
L 115.782412 59.47719 
L 113.987195 56.865233 
L 114.945914 53.218713 
L 114.021618 51.409502 
L 119.011395 49.749012 
L 123.247294 42.676685 
L 115.544897 36.439282 
L 112.723829 28.878078 
L 113.558629 24.67649 
L 116.779002 23.076889 
L 118.422271 19.34904 
L 124.073466 22.416427 
L 121.6569 24.649547 
L 121.705096 28.161985 
L 131.62956 27.231048 
L 163.578591 32.455506 
L 169.873901 30.598278 
L 176.028937 24.244378 
L 190.629923 20.513538 
L 196.564648 24.183489 
L 200.721358 23.850924 
L 202.191279 25.687056 
L 205.361741 24.67649 
L 206.509779 27.939505 
L 210.510728 29.919099 
L 216.458192 30.388239 
L 216.15731 36.901646 
L 214.705808 38.872992 
L 212.182275 37.480688 
L 208.804924 38.313301 
L 207.118955 41.912099 
L 205.226979 42.600863 
L 205.031815 53.74575 
L 202.374119 53.655402 
L 200.638006 55.593551 
L 200.999857 57.200698 
L 197.714651 58.966446 
L 202.14643 60.449097 
L 202.760368 63.988886 
L 207.105398 70.468167 
L 203.693891 69.96651 
L 199.272104 72.086055 
L 194.724682 67.767358 
L 190.947492 67.967019 
L 189.154856 69.931975 
L 183.605682 70.5848 
L 182.280365 73.829097 
L 179.084073 74.615438 
L 179.070317 76.349121 
L 174.41273 76.610237 
L 176.443747 82.719994 
L 171.553809 85.617088 
L 160.847037 87.04805 
L 154.972566 83.428451 
L 153.108502 84.619371 
L 149.877787 82.524434 
L 148.707366 79.779596 
L 141.48691 80.360406 
L 140.78982 82.279701 
L 133.756969 84.099449 
L 122.17498 84.898072 
L 123.705137 75.7396 
L 120.863418 69.405006 
L 115.747989 66.920718 
z
" clip-path="url(#p2ebe882cf6)" style="fill: #eeeeee; stroke: #000000; stroke-width: 0.3"/>
    <path d="M 47.50906 48.22376 
L 50.93081 46.727218 
L 51.352514 41.90206 
L 53.965295 39.44995 
L 56.817338 41.133281 
L 58.103086 40.187706 
L 55.371532 36.068081 
L 56.567766 34.808069 
L 60.196071 35.112535 
L 60.144428 36.886033 
L 66.90361 43.193094 
L 72.41663 44.60475 
L 79.48562 49.65649 
L 76.650796 53.020819 
L 74.037999 53.005002 
L 75.327194 55.046664 
L 73.29273 58.272221 
L 70.289221 59.238304 
L 68.96905 55.205921 
L 67.297769 56.136881 
L 61.521388 65.511986 
L 63.146205 67.483967 
L 63.022818 73.191931 
L 59.77828 71.251924 
L 55.044287 63.402456 
L 53.255315 63.694754 
L 49.368378 60.248099 
L 51.954245 60.941486 
L 51.736049 58.903745 
L 48.55656 60.412228 
L 47.572744 57.17439 
L 49.448848 54.707641 
z
" clip-path="url(#p2ebe882cf6)" style="fill: #eeeeee; stroke: #000000; stroke-width: 0.3"/>
    <path d="M 2.459923 7.097258 
L 3.523627 -2.435949 
L 7.322333 -2.982814 
L 12.248427 1.837065 
L 15.790666 -3.171349 
L 20.499895 -2.241567 
L 22.376 -4.582415 
L 26.751306 -1.501477 
L 35.038913 -1.850448 
L 37.553603 0.404924 
L 44.250816 -1.702883 
L 48.899793 0.599306 
L 51.583151 -0.114997 
L 55.10474 5.010525 
L 60.054931 3.506936 
L 63.082522 4.422668 
L 58.727882 15.852918 
L 67.125637 23.29001 
L 65.74523 25.041845 
L 61.48525 24.244378 
L 60.762347 25.484471 
L 64.631614 29.915587 
L 65.096335 34.395286 
L 62.714192 33.389389 
L 55.461029 35.691011 
L 58.103086 40.187706 
L 56.817338 41.133281 
L 53.965295 39.44995 
L 51.352514 41.90206 
L 50.93081 46.727218 
L 47.829194 47.335538 
L 47.693217 51.331029 
L 49.448848 54.707641 
L 48.484983 57.048511 
L 40.211148 53.067658 
L 37.154281 49.228479 
L 32.903061 48.664302 
L 34.672299 47.96321 
L 34.100861 46.130569 
L 28.463905 40.310073 
L 28.140323 36.689295 
L 24.143689 34.757129 
L 12.425705 22.658826 
L 8.921337 12.708734 
L 7.083086 12.266108 
L 7.453148 10.369065 
z
" clip-path="url(#p2ebe882cf6)" style="fill: #eeeeee; stroke: #000000; stroke-width: 0.3"/>
   </g>
   <g id="PatchCollection_2">
    <defs>
     <path id="mfce64d94b7" d="M 47.50906 -59.77624 
L 50.93081 -61.272782 
L 51.352514 -66.09794 
L 53.965295 -68.55005 
L 56.817338 -66.866719 
L 58.103086 -67.812294 
L 55.371532 -71.931919 
L 56.567766 -73.191931 
L 60.196071 -72.887465 
L 60.144428 -71.113967 
L 66.90361 -64.806906 
L 72.41663 -63.39525 
L 79.48562 -58.34351 
L 76.650796 -54.979181 
L 74.037999 -54.994998 
L 75.327194 -52.953336 
L 73.29273 -49.727779 
L 70.289221 -48.761696 
L 68.96905 -52.794079 
L 67.297769 -51.863119 
L 61.521388 -42.488014 
L 63.146205 -40.516033 
L 63.022818 -34.808069 
L 59.77828 -36.748076 
L 55.044287 -44.597544 
L 53.255315 -44.305246 
L 49.368378 -47.751901 
L 51.954245 -47.058514 
L 51.736049 -49.096255 
L 48.55656 -47.587772 
L 47.572744 -50.82561 
L 49.448848 -53.292359 
z
" style="stroke: #dd0000; stroke-width: 0.5"/>
    </defs>
    <g clip-path="url(#p2ebe882cf6)">
     <use xlink:href="#mfce64d94b7" x="0" y="108" style="fill: #ff6b6b; stroke: #dd0000; stroke-width: 0.5"/>
    </g>
   </g>
  </g>
 </g>
 <defs>
  <clipPath id="p2ebe882cf6">
   <rect x="0" y="0" width="126.99468" height="108"/>
  </clipPath>
 </defs>
</svg>
