<?xml version="1.0" encoding="utf-8" standalone="no"?>
<!DOCTYPE svg PUBLIC "-//W3C//DTD SVG 1.1//EN"
  "http://www.w3.org/Graphics/SVG/1.1/DTD/svg11.dtd">
<svg xmlns:xlink="http://www.w3.org/1999/xlink" width="159.117062pt" height="108pt" viewBox="0 0 159.117062 108" xmlns="http://www.w3.org/2000/svg" version="1.1">
 <metadata>
  <rdf:RDF xmlns:dc="http://purl.org/dc/elements/1.1/" xmlns:cc="http://creativecommons.org/ns#" xmlns:rdf="http://www.w3.org/1999/02/22-rdf-syntax-ns#">
   <cc:Work>
    <dc:type rdf:resource="http://purl.org/dc/dcmitype/StillImage"/>
    <dc:date>2025-09-05T15:49:29.559657</dc:date>
    <dc:format>image/svg+xml</dc:format>
    <dc:creator>
     <cc:Agent>
      <dc:title>Matplotlib v3.10.3, https://matplotlib.org/</dc:title>
     </cc:Agent>
    </dc:creator>
   </cc:Work>
  </rdf:RDF>
 </metadata>
 <defs>
  <style type="text/css">*{stroke-linejoin: round; stroke-linecap: butt}</style>
 </defs>
 <g id="figure_1">
  <g id="patch_1">
   <path d="M 0 108 
L 159.117062 108 
L 159.117062 0 
L 0 0 
z
" style="fill: #ffffff"/>
  </g>
  <g id="axes_1">
   <g id="PatchCollection_1">
    <path d="M 149.579212 3.79774 
L 150.318997 3.432353 
L 151.233391 1.684718 
L 151.309465 0.154706 
L 150.951572 -0.635948 
L 151.365113 -1.479268 
L 152.973346 -1.908414 
L 153.846384 -2.858195 
L 152.968752 -3.006785 
L 152.490879 -4.017557 
L 152.793634 -5.988083 
L 152.708372 -6.946179 
L 152.292785 -7.105858 
L 152.380088 -7.895955 
L 153.17348 -9.246605 
L 152.391321 -10.756934 
L 153.717216 -11.369047 
L 154.5729 -12.399776 
L 153.876764 -14.254977 
L 152.74462 -15.153193 
L 152.939137 -16.399603 
L 152.108988 -17.628824 
L 151.177744 -17.488548 
L 150.927574 -18.758798 
L 152.096732 -18.118408 
L 152.72573 -18.219317 
L 153.410885 -17.525699 
L 154.871312 -17.726407 
L 155.746904 -17.00839 
L 156.245203 -18.298602 
L 157.752856 -17.001738 
L 158.832157 -15.264639 
L 159.052713 -12.599937 
L 159.516803 -11.458868 
L 159.213026 -9.582599 
L 159.964044 -8.279083 
L 160.561897 -8.116625 
L 160.947364 -7.053741 
L 159.228854 -7.028237 
L 158.967451 -5.673151 
L 157.954521 -3.937715 
L 158.624876 -1.078399 
L 158.876063 2.346181 
L 159.346788 3.23996 
L 160.446002 3.365821 
L 161.53756 4.376587 
L 165.307454 9.452603 
L 165.589279 10.721195 
L 164.99602 12.249823 
L 165.274268 13.566091 
L 165.000615 16.919422 
L 163.663995 17.611936 
L 162.972715 17.448925 
L 161.773942 19.57692 
L 162.654642 21.255801 
L 162.628604 22.616429 
L 162.281939 22.783319 
L 161.448213 22.64637 
L 161.706548 21.163765 
L 160.655329 20.666976 
L 158.28893 18.161953 
L 158.180698 17.013127 
L 157.334202 16.101606 
L 158.97409 12.922927 
L 158.661124 9.051734 
L 157.882023 8.04152 
L 156.433086 8.619814 
L 154.801112 8.590432 
L 154.4279 9.191456 
L 152.626681 6.289448 
L 151.935401 5.5609 
L 151.241562 6.234004 
L 150.620734 5.0009 
L 150.071895 4.76803 
L 150.10559 4.068865 
z
" clip-path="url(#p3c2df06633)" style="fill: #eeeeee; stroke: #000000; stroke-width: 0.3"/>
    <path d="M 159.422353 -4.356883 
L 159.611254 -4.763851 
L 159.948217 -4.549828 
L 159.585729 -4.097952 
z
" clip-path="url(#p3c2df06633)" style="fill: #eeeeee; stroke: #000000; stroke-width: 0.3"/>
    <path d="M 158.869938 -4.705076 
L 159.281952 -4.834262 
L 159.201284 -4.376839 
z
" clip-path="url(#p3c2df06633)" style="fill: #eeeeee; stroke: #000000; stroke-width: 0.3"/>
    <path d="M 48.736608 -37.872463 
L 48.784495 -38.366479 
L 50.019516 -38.422481 
L 50.126731 -41.445912 
L 49.700421 -42.023096 
L 50.858859 -42.724756 
L 51.471516 -43.714456 
L 52.767802 -44.121425 
L 52.879616 -44.574411 
L 54.384714 -42.933785 
L 55.964607 -44.00499 
L 55.976863 -45.253062 
L 57.11079 -45.01132 
L 59.296963 -46.196744 
L 59.705406 -45.380033 
L 59.117764 -44.684194 
L 59.364358 -42.928796 
L 59.953022 -43.169986 
L 60.708125 -42.855606 
L 61.490798 -43.310814 
L 63.332346 -45.864623 
L 64.591874 -46.536069 
L 64.961509 -47.372184 
L 66.830631 -48.126241 
L 68.379127 -51.367574 
L 68.225966 -57.436063 
L 69.803562 -59.016808 
L 71.38065 -62.3341 
L 72.315974 -63.256709 
L 73.726114 -63.696944 
L 75.907179 -66.333927 
L 75.743294 -68.09154 
L 76.87518 -71.165985 
L 76.485632 -74.595833 
L 77.497031 -77.464987 
L 77.502138 -80.729743 
L 80.172823 -85.923583 
L 80.33824 -90.847269 
L 79.821564 -92.3594 
L 80.865635 -92.749733 
L 82.495821 -95.478892 
L 84.104563 -96.664729 
L 86.157992 -96.485501 
L 88.698487 -94.741605 
L 89.89062 -92.826941 
L 91.329346 -93.032783 
L 93.005992 -92.164786 
L 95.60622 -92.174486 
L 98.401992 -91.291109 
L 99.425641 -91.62669 
L 99.830508 -93.141868 
L 100.309912 -93.238207 
L 101.341732 -95.018834 
L 103.89142 -93.770204 
L 104.74863 -94.537984 
L 108.064141 -95.589087 
L 108.752872 -96.158508 
L 108.741639 -96.621339 
L 110.392755 -95.522694 
L 113.243152 -96.138412 
L 113.519869 -97.63128 
L 114.409504 -97.978502 
L 116.222974 -96.877775 
L 117.642811 -97.244128 
L 119.145869 -96.219918 
L 120.31605 -96.471638 
L 120.946579 -96.16669 
L 121.967166 -97.056032 
L 123.094458 -96.673323 
L 125.279614 -94.827128 
L 125.418992 -93.796958 
L 126.6124 -93.551331 
L 126.788798 -92.849119 
L 128.427658 -92.077461 
L 130.274828 -93.572543 
L 132.576129 -92.428288 
L 133.743499 -94.192419 
L 134.538427 -94.042439 
L 135.418613 -93.583493 
L 135.374707 -92.579099 
L 136.078752 -92.25641 
L 137.358193 -90.365029 
L 139.017474 -89.890004 
L 139.10529 -88.523968 
L 140.112603 -88.856362 
L 140.570055 -87.865697 
L 140.850862 -88.025376 
L 140.918251 -87.346452 
L 140.09729 -85.533529 
L 140.638472 -84.449293 
L 139.932891 -82.259203 
L 140.729351 -81.652631 
L 141.20467 -82.046295 
L 141.635574 -81.428356 
L 142.239809 -81.496278 
L 142.703643 -80.423823 
L 138.785434 -75.786798 
L 137.602746 -75.236223 
L 137.187668 -74.016707 
L 136.162483 -73.565657 
L 136.128788 -71.815248 
L 134.956054 -69.5309 
L 134.222908 -64.160467 
L 134.33778 -61.693705 
L 132.63561 -60.243814 
L 132.127614 -59.253004 
L 132.149053 -57.351784 
L 130.822649 -56.309967 
L 130.777721 -55.631874 
L 130.9462 -54.911083 
L 131.624212 -54.41651 
L 131.457773 -54.047796 
L 132.641992 -52.798061 
L 132.54524 -48.220498 
L 133.159942 -47.183117 
L 133.512733 -44.98859 
L 133.082337 -42.746934 
L 134.508304 -38.54002 
L 133.834891 -36.942644 
L 134.139177 -35.278178 
L 134.975457 -33.631452 
L 136.871635 -32.179335 
L 137.877417 -30.787661 
L 140.138133 -25.183248 
L 130.93548 -23.632995 
L 130.954879 -22.116566 
L 128.284194 -19.400857 
L 129.091882 -18.830325 
L 129.993517 -16.611405 
L 129.358393 -14.317079 
L 129.999129 -12.044925 
L 129.28181 -11.015865 
L 128.322997 -7.268316 
L 129.051805 -5.448597 
L 130.253384 -4.807654 
L 131.656375 -2.73344 
L 133.951294 -2.335344 
L 133.825698 -3.464214 
L 135.431377 -3.939378 
L 135.347138 3.043125 
L 134.532811 2.858495 
L 134.788597 2.107212 
L 134.320421 1.807805 
L 132.392588 2.942216 
L 131.453174 2.722651 
L 130.040485 0.007221 
L 129.224627 -0.014957 
L 128.631368 -1.969405 
L 126.339003 -2.792767 
L 125.835087 -3.35831 
L 124.75579 -3.190868 
L 123.681591 -5.184677 
L 122.760049 -5.790143 
L 122.493034 -7.074808 
L 121.720572 -6.935643 
L 121.344807 -5.25343 
L 120.207303 -4.696208 
L 118.711393 -5.239015 
L 116.570148 -5.286144 
L 114.793436 -6.2204 
L 114.171585 -5.964795 
L 113.427459 -6.685586 
L 113.256426 -9.08581 
L 110.303407 -8.381655 
L 109.208792 -7.654765 
L 108.235683 -7.989102 
L 108.721217 -8.633376 
L 108.614002 -9.593135 
L 107.397362 -9.898642 
L 107.34784 -10.563983 
L 106.790831 -10.809604 
L 105.962207 -9.977926 
L 104.096148 -10.339982 
L 101.914569 -9.580936 
L 99.378673 -9.903073 
L 98.077793 -8.79195 
L 97.721426 -10.922713 
L 98.482146 -11.411187 
L 98.452023 -13.518109 
L 97.693857 -15.86289 
L 96.305675 -17.334964 
L 95.876302 -18.681177 
L 96.626811 -23.778817 
L 95.688419 -26.238928 
L 96.216837 -29.068856 
L 95.841584 -30.069086 
L 89.595522 -30.053009 
L 90.044808 -32.04017 
L 88.602505 -32.026308 
L 88.477931 -31.578863 
L 84.662081 -31.578863 
L 84.619198 -29.017291 
L 83.84112 -28.509413 
L 83.840611 -26.213977 
L 79.695968 -26.588231 
L 79.652063 -26.237817 
L 77.739035 -26.104194 
L 77.629266 -25.638456 
L 76.492271 -25.986096 
L 75.169439 -25.696115 
L 73.765425 -27.546328 
L 73.076694 -29.2923 
L 71.936128 -30.49158 
L 72.071935 -31.510109 
L 71.059005 -33.154067 
L 70.752674 -34.459246 
L 70.854786 -35.939082 
L 69.996039 -37.477689 
L 57.106196 -37.80371 
L 54.137098 -37.540901 
L 51.932164 -37.948867 
L 51.291517 -37.676546 
L 51.07479 -37.065227 
L 49.725668 -36.675404 
L 49.763685 -37.051767 
L 49.464176 -36.92199 
z
" clip-path="url(#p3c2df06633)" style="fill: #eeeeee; stroke: #000000; stroke-width: 0.3"/>
    <path d="M 51.186041 -37.274792 
L 51.596213 -37.641762 
L 52.41835 -37.660806 
z
" clip-path="url(#p3c2df06633)" style="fill: #eeeeee; stroke: #000000; stroke-width: 0.3"/>
    <path d="M 46.110293 24.988109 
L 46.295622 23.488031 
L 47.940558 22.803833 
L 48.703827 23.263477 
L 50.306952 23.315595 
L 53.26661 21.79473 
L 54.815105 22.11243 
L 55.020347 22.711244 
L 57.288976 24.329693 
L 79.385043 24.148936 
L 80.319859 25.480182 
L 81.541093 26.345126 
L 85.893017 26.8336 
L 88.684704 26.643423 
L 91.006679 27.590431 
L 92.76093 27.049839 
L 93.874949 27.4995 
L 107.872681 24.629647 
L 111.906024 25.175233 
L 113.00677 26.317407 
L 111.492987 26.286909 
L 109.571793 27.705202 
L 108.515467 27.18623 
L 104.856359 29.984555 
L 103.289991 27.416331 
L 91.840919 29.135136 
L 91.88891 48.687368 
L 86.91718 48.884197 
L 86.933516 83.334313 
L 84.893875 83.918149 
L 84.332266 84.851847 
L 83.397964 85.05256 
L 83.508751 85.806064 
L 82.678087 86.20527 
L 80.827855 85.5743 
L 77.966738 85.906974 
L 76.715889 85.259926 
L 75.310349 85.16789 
L 75.084177 84.717671 
L 74.19837 84.846858 
L 74.282101 84.251933 
L 73.806268 83.592686 
L 74.178971 83.189043 
L 73.912465 82.289722 
L 73.257429 82.313563 
L 72.581971 81.212418 
L 71.675747 81.511825 
L 71.062068 82.492099 
L 70.922176 83.648687 
L 68.978086 84.051772 
L 66.018907 81.200487 
L 63.783346 77.433695 
L 63.453698 75.41191 
L 62.734908 74.068996 
L 63.158225 73.516291 
L 62.846668 72.595549 
L 62.158431 72.137579 
L 62.221147 70.654523 
L 61.536126 69.00732 
L 61.600043 65.319116 
L 59.653523 60.137379 
L 59.923674 59.031969 
L 59.53051 56.472752 
L 59.81513 55.903889 
L 59.411113 54.0886 
L 59.534126 53.600507 
L 59.653523 54.220013 
L 59.999649 53.709651 
L 59.897142 51.820582 
L 54.409334 42.707472 
L 53.323112 39.166393 
L 52.629554 38.470285 
L 49.72836 32.274584 
L 47.662735 30.132985 
L 46.501975 27.186386 
z
" clip-path="url(#p3c2df06633)" style="fill: #eeeeee; stroke: #000000; stroke-width: 0.3"/>
    <path d="M 69.586322 84.394923 
L 70.922176 83.648687 
L 71.062068 82.492099 
L 71.675747 81.511825 
L 72.581971 81.212418 
L 73.257429 82.313563 
L 73.912465 82.289722 
L 74.178971 83.189043 
L 73.806268 83.592686 
L 74.282101 84.251933 
L 74.19837 84.846858 
L 75.084177 84.717671 
L 75.310349 85.16789 
L 76.715889 85.259926 
L 77.966738 85.906974 
L 80.827855 85.5743 
L 82.678087 86.20527 
L 83.508751 85.806064 
L 83.397964 85.05256 
L 84.332266 84.851847 
L 84.893875 83.918149 
L 86.933516 83.334313 
L 86.932499 63.64679 
L 88.826637 65.152688 
L 90.267403 67.484159 
L 90.175507 68.302533 
L 91.18078 71.043751 
L 90.014171 72.985442 
L 90.436396 75.123415 
L 91.508041 74.631062 
L 95.246795 74.969277 
L 95.729775 74.654903 
L 95.82014 73.977362 
L 97.188923 73.652452 
L 98.130378 72.20034 
L 99.596674 71.451825 
L 100.457461 70.254765 
L 101.076248 67.555686 
L 101.995237 66.580959 
L 104.112484 66.488365 
L 106.412002 68.350219 
L 107.689906 68.332473 
L 108.457774 69.007798 
L 110.068556 69.391478 
L 113.988045 68.789896 
L 114.624443 68.298096 
L 115.849253 65.062309 
L 116.013138 63.623502 
L 118.660848 63.004737 
L 119.287293 62.070481 
L 120.808732 61.034763 
L 121.441045 58.100873 
L 122.232654 57.061829 
L 124.314675 56.180802 
L 124.606705 55.407894 
L 125.326073 55.429519 
L 128.034025 52.119989 
L 131.050861 51.314368 
L 131.674243 50.081821 
L 134.750303 49.55897 
L 138.077556 50.729974 
L 142.11651 50.578052 
L 142.789928 51.012192 
L 144.012184 55.087419 
L 143.969039 56.69589 
L 145.563742 59.237779 
L 146.236137 61.879751 
L 146.281574 68.391248 
L 145.76847 70.252544 
L 143.345915 68.922966 
L 141.954665 69.856664 
L 140.397239 72.471464 
L 140.386771 74.678743 
L 140.770959 74.481914 
L 141.133704 75.705593 
L 142.063925 76.757941 
L 143.96368 77.371723 
L 146.145767 77.400552 
L 146.253496 74.675417 
L 150.714241 74.878411 
L 150.576755 75.796969 
L 148.239481 83.940445 
L 146.385825 85.279426 
L 146.64874 85.390319 
L 146.362109 85.716877 
L 145.161716 86.01637 
L 143.165748 88.217592 
L 141.368772 91.274505 
L 141.650582 91.239581 
L 136.732825 98.443103 
L 133.516364 100.797127 
L 129.253075 105.544471 
L 122.101762 110.71005 
L 119.01515 111.991839 
L 115.603312 111.880951 
L 114.855579 112.479497 
L 115.169142 113.443897 
L 111.490774 113.17671 
L 110.904248 114.359838 
L 104.983081 113.147462 
L 103.754946 113.423817 
L 103.861074 113.846858 
L 99.787131 113.224735 
L 97.739709 113.70279 
L 97.633581 114.213147 
L 96.641828 114.456756 
L 95.860326 115.301969 
L 94.619728 115.128213 
L 93.475215 115.534227 
L 91.536332 115.190207 
L 91.00166 115.391908 
L 91.178947 115.751206 
L 89.408509 115.780459 
L 87.101388 117.649883 
L 85.310844 117.409326 
L 84.053766 116.485097 
L 83.550858 116.570663 
L 83.863616 115.94112 
L 83.518695 115.451278 
L 82.673676 115.405437 
L 82.775383 114.835705 
L 81.183436 115.278397 
L 81.383634 114.062963 
L 81.096598 113.73684 
L 79.507463 113.829831 
L 79.466462 115.120354 
L 78.706666 114.101385 
L 78.699429 113.412466 
L 79.537216 112.419252 
L 78.662849 110.462948 
L 76.921753 108.438974 
L 77.774009 108.950645 
L 77.329391 108.073126 
L 76.659644 108.089713 
L 76.368992 106.944133 
L 76.983665 106.301495 
L 77.731398 106.674333 
L 78.608575 105.792007 
L 78.870284 103.923893 
L 78.512094 101.951436 
L 73.597553 93.663458 
L 71.33546 86.975094 
z
M 121.613866 90.008815 
L 123.487074 92.563182 
L 123.412023 93.466387 
L 123.836545 93.461398 
L 125.276546 95.018303 
L 126.932261 95.33212 
L 127.162518 94.250937 
L 127.721059 93.687615 
L 127.534199 93.31336 
L 128.4394 92.571498 
L 130.47343 92.277638 
L 132.195512 91.367228 
L 132.044901 90.45737 
L 133.636284 88.270053 
L 133.023113 86.914967 
L 131.388338 85.945229 
L 129.676461 84.130504 
L 127.308536 84.836327 
L 126.610103 85.781113 
L 125.295436 85.943013 
L 123.333395 89.009695 
z
" clip-path="url(#p3c2df06633)" style="fill: #eeeeee; stroke: #000000; stroke-width: 0.3"/>
    <path d="M 173.975998 182.72172 
L 174.274292 182.077333 
L 175.057805 182.161156 
L 175.426847 182.406514 
L 174.985841 182.813402 
z
" clip-path="url(#p3c2df06633)" style="fill: #eeeeee; stroke: #000000; stroke-width: 0.3"/>
    <path d="M 175.255592 181.045263 
L 175.449758 180.849678 
L 175.832069 180.935245 
L 175.638703 181.143055 
z
" clip-path="url(#p3c2df06633)" style="fill: #eeeeee; stroke: #000000; stroke-width: 0.3"/>
    <path d="M 96.804483 0.606582 
L 106.786745 0.606582 
L 106.119967 -0.529492 
L 106.935826 -2.700173 
L 106.55802 -3.951019 
L 106.559551 -6.713863 
L 107.088477 -7.94752 
L 106.62286 -10.815704 
L 107.34784 -10.563983 
L 107.397362 -9.898642 
L 108.614002 -9.593135 
L 108.721217 -8.633376 
L 108.193817 -8.08558 
L 108.989254 -7.643676 
L 110.303407 -8.381655 
L 113.256426 -9.08581 
L 113.427459 -6.685586 
L 114.171585 -5.964795 
L 114.793436 -6.2204 
L 116.570148 -5.286144 
L 118.711393 -5.239015 
L 120.207303 -4.696208 
L 121.344807 -5.25343 
L 121.720572 -6.935643 
L 122.493034 -7.074808 
L 122.760049 -5.790143 
L 123.681591 -5.184677 
L 124.75579 -3.190868 
L 125.835087 -3.35831 
L 126.339003 -2.792767 
L 128.631368 -1.969405 
L 129.224627 -0.014957 
L 130.040485 0.007221 
L 131.453174 2.722651 
L 132.392588 2.942216 
L 134.320421 1.807805 
L 134.788597 2.107212 
L 134.532811 2.858495 
L 135.272595 3.057546 
L 135.431377 -3.939378 
L 133.825698 -3.464214 
L 133.951294 -2.335344 
L 131.656375 -2.73344 
L 130.253384 -4.807654 
L 129.051805 -5.448597 
L 128.300022 -7.350927 
L 129.28181 -11.015865 
L 129.999129 -12.044925 
L 129.358393 -14.317079 
L 129.993517 -16.611405 
L 129.091882 -18.830325 
L 128.284194 -19.400857 
L 130.954879 -22.116566 
L 130.93548 -23.632995 
L 140.138133 -25.183248 
L 141.528868 -23.004246 
L 143.108001 -23.074663 
L 144.025458 -22.45035 
L 144.685597 -21.32647 
L 145.989539 -21.221682 
L 145.996687 -20.528616 
L 148.394227 -20.088376 
L 148.861637 -19.4746 
L 150.8515 -18.671751 
L 151.177744 -17.488548 
L 152.108988 -17.628824 
L 152.939137 -16.399603 
L 152.74462 -15.153193 
L 153.876764 -14.254977 
L 154.5729 -12.399776 
L 153.717216 -11.369047 
L 152.391321 -10.756934 
L 153.17348 -9.246605 
L 152.380088 -7.895955 
L 152.292785 -7.105858 
L 152.708372 -6.946179 
L 152.793634 -5.988083 
L 152.490879 -4.017557 
L 152.968752 -3.006785 
L 153.846384 -2.858195 
L 152.973346 -1.908414 
L 151.365113 -1.479268 
L 150.951572 -0.635948 
L 151.309465 0.154706 
L 151.233391 1.684718 
L 150.318997 3.432353 
L 149.579212 3.79774 
L 150.10559 4.068865 
L 150.071895 4.76803 
L 150.620734 5.0009 
L 151.241562 6.234004 
L 151.935401 5.5609 
L 152.243772 6.037728 
L 137.482252 11.22852 
L 138.450002 14.709928 
L 134.38373 14.845772 
L 131.148888 16.498039 
L 130.777721 17.017011 
L 130.777721 18.775182 
L 130.302906 19.548085 
L 125.63853 21.840753 
L 124.455076 24.005335 
L 122.17343 26.789798 
L 120.121276 27.79336 
L 117.710205 26.793124 
L 116.290369 27.416331 
L 115.089556 26.410554 
L 113.380999 26.570233 
L 111.906024 25.175233 
L 110.164538 24.698959 
L 107.872681 24.629647 
L 103.729061 25.496813 
L 97.438071 19.610739 
L 96.812649 17.466671 
z
" clip-path="url(#p3c2df06633)" style="fill: #eeeeee; stroke: #000000; stroke-width: 0.3"/>
    <path d="M 46.198736 15.926075 
L 47.465862 14.639484 
L 47.783851 12.578403 
L 48.222842 12.232634 
L 49.14183 8.289029 
L 49.129372 6.458027 
L 49.55791 5.312012 
L 49.987254 5.186715 
L 50.050771 2.883768 
L 52.172567 0.503983 
L 52.146035 -0.384888 
L 53.327133 -1.537887 
L 54.386018 -1.705968 
L 55.605711 -3.431758 
L 56.35867 -5.887506 
L 56.626811 -9.520702 
L 56.058371 -11.395366 
L 56.257364 -11.858573 
L 55.051344 -13.314558 
L 52.42704 -20.35655 
L 52.407339 -20.656043 
L 52.872058 -21.437513 
L 53.119698 -21.551898 
L 52.509447 -20.410685 
L 53.552258 -22.073172 
L 53.423213 -21.808603 
L 54.322907 -22.174017 
L 54.316875 -24.362578 
L 51.703912 -30.162753 
L 51.622622 -32.059875 
L 50.225257 -33.560086 
L 48.939221 -36.435689 
L 51.543208 -36.783652 
L 53.358511 -37.72442 
L 69.809179 -37.559752 
L 70.854786 -35.939082 
L 70.752674 -34.459246 
L 71.059005 -33.154067 
L 72.071935 -31.510109 
L 71.936128 -30.49158 
L 73.076694 -29.2923 
L 73.765425 -27.546328 
L 75.169439 -25.696115 
L 76.492271 -25.986096 
L 77.629266 -25.638456 
L 77.739035 -26.104194 
L 79.652063 -26.237817 
L 79.695968 -26.588231 
L 83.840611 -26.213977 
L 83.84112 -28.509413 
L 84.619198 -29.017291 
L 84.662081 -31.578863 
L 88.477931 -31.578863 
L 88.602505 -32.026308 
L 90.044808 -32.04017 
L 89.595522 -30.053009 
L 95.841584 -30.069086 
L 96.216837 -29.068856 
L 95.688419 -26.238928 
L 96.626811 -23.778817 
L 95.876302 -18.681177 
L 96.305675 -17.334964 
L 97.693857 -15.86289 
L 98.452023 -13.518109 
L 98.482146 -11.411187 
L 97.721426 -10.922713 
L 98.077793 -8.79195 
L 99.378673 -9.903073 
L 101.914569 -9.580936 
L 104.096148 -10.339982 
L 105.962207 -9.977926 
L 106.62286 -10.815704 
L 107.088477 -7.94752 
L 106.559551 -6.713863 
L 106.55802 -3.951019 
L 106.935826 -2.700173 
L 106.119967 -0.529492 
L 106.786745 0.606582 
L 96.804483 0.606582 
L 96.823882 17.582553 
L 97.653014 19.899057 
L 98.55209 20.306578 
L 100.683638 22.967402 
L 103.729061 25.496813 
L 93.874949 27.4995 
L 92.76093 27.049839 
L 91.006679 27.590431 
L 88.684704 26.643423 
L 85.893017 26.8336 
L 81.541093 26.345126 
L 80.319859 25.480182 
L 79.385043 24.148936 
L 57.288976 24.329693 
L 55.020347 22.711244 
L 54.815105 22.11243 
L 53.26661 21.79473 
L 50.306952 23.315595 
L 48.703827 23.263477 
L 47.940558 22.803833 
L 46.30969 23.340466 
L 46.625669 19.262835 
z
" clip-path="url(#p3c2df06633)" style="fill: #eeeeee; stroke: #000000; stroke-width: 0.3"/>
    <path d="M 47.55267 -42.213327 
L 48.431704 -43.563092 
L 49.09542 -43.508753 
L 49.417065 -44.435246 
L 50.586736 -44.683088 
L 51.267811 -45.584625 
L 51.802354 -45.47318 
L 52.809158 -44.275009 
L 51.471516 -43.714456 
L 50.858859 -42.724756 
L 49.700421 -42.023096 
L 50.126731 -41.445912 
L 50.019516 -38.422481 
L 48.545252 -38.223033 
L 48.232489 -39.003634 
L 48.637717 -39.813924 
L 47.619432 -42.071899 
L 48.001798 -41.88935 
L 48.182236 -42.238192 
z
" clip-path="url(#p3c2df06633)" style="fill: #eeeeee; stroke: #000000; stroke-width: 0.3"/>
    <path d="M 46.033013 19.37707 
L 46.12079 19.407595 
L 46.213467 20.479127 
z
" clip-path="url(#p3c2df06633)" style="fill: #eeeeee; stroke: #000000; stroke-width: 0.3"/>
    <path d="M 86.91718 48.884197 
L 91.88891 48.687368 
L 91.840919 29.135136 
L 103.289991 27.416331 
L 104.856359 29.984555 
L 108.515467 27.18623 
L 109.571793 27.705202 
L 111.492987 26.286909 
L 113.00677 26.317407 
L 112.983281 27.427973 
L 116.370523 32.364271 
L 116.409326 33.340661 
L 117.431444 35.668258 
L 118.162554 35.883387 
L 118.205437 36.280929 
L 120.189945 37.761871 
L 122.599992 38.650103 
L 122.929042 40.810806 
L 125.051906 40.882333 
L 124.896191 43.898002 
L 126.49574 46.476763 
L 129.584565 46.987414 
L 131.674243 47.796362 
L 131.683179 48.992875 
L 133.212275 49.882218 
L 131.674243 50.081821 
L 131.139186 51.245614 
L 130.578096 51.525059 
L 128.034025 52.119989 
L 125.326073 55.429519 
L 124.606705 55.407894 
L 124.314675 56.180802 
L 122.232654 57.061829 
L 121.441045 58.100873 
L 120.808732 61.034763 
L 119.287293 62.070481 
L 118.660848 63.004737 
L 116.013138 63.623502 
L 115.849253 65.062309 
L 114.624443 68.298096 
L 113.988045 68.789896 
L 110.068556 69.391478 
L 108.457774 69.007798 
L 107.689906 68.332473 
L 106.412002 68.350219 
L 104.112484 66.488365 
L 101.995237 66.580959 
L 101.076248 67.555686 
L 100.413555 70.322408 
L 99.596674 71.451825 
L 98.130378 72.20034 
L 97.188923 73.652452 
L 95.82014 73.977362 
L 95.729775 74.654903 
L 95.246795 74.969277 
L 91.508041 74.631062 
L 90.436396 75.123415 
L 90.014171 72.985442 
L 91.18078 71.043751 
L 90.175507 68.302533 
L 90.267403 67.484159 
L 88.826637 65.152688 
L 86.932499 63.64679 
z
" clip-path="url(#p3c2df06633)" style="fill: #eeeeee; stroke: #000000; stroke-width: 0.3"/>
    <path d="M 112.983281 27.427973 
L 113.00677 26.317407 
L 114.27472 26.683341 
L 115.089556 26.410554 
L 116.290369 27.416331 
L 117.710205 26.793124 
L 120.121276 27.79336 
L 121.708317 27.19954 
L 124.455076 24.005335 
L 125.63853 21.840753 
L 130.538779 19.301353 
L 130.777721 17.017011 
L 131.148888 16.498039 
L 134.38373 14.845772 
L 138.38031 14.739868 
L 138.411456 16.699305 
L 142.646973 16.818513 
L 143.361233 17.563144 
L 144.87348 17.861441 
L 145.859349 18.993636 
L 147.737408 19.11617 
L 149.621078 19.910146 
L 149.915153 20.495092 
L 151.086865 20.34927 
L 150.396602 21.709346 
L 151.349291 23.911078 
L 150.929105 24.730562 
L 151.363582 25.379267 
L 150.883668 27.276609 
L 151.019984 28.796921 
L 151.453695 29.310341 
L 150.603884 30.296162 
L 150.760878 31.576948 
L 149.718082 31.897422 
L 149.667029 32.545022 
L 150.530621 33.235873 
L 150.073426 35.275705 
L 150.413452 35.473644 
L 150.351418 36.404016 
L 150.961783 36.269835 
L 151.404429 36.993399 
L 151.278319 38.322977 
L 150.675873 38.703889 
L 149.621078 41.004315 
L 148.681668 41.386333 
L 148.728128 43.174444 
L 147.981195 44.235112 
L 148.511653 45.19875 
L 142.789928 51.012192 
L 140.561889 50.395085 
L 138.077556 50.729974 
L 135.231752 49.58281 
L 133.246227 49.904948 
L 131.683179 48.992875 
L 131.674243 47.796362 
L 129.584565 46.987414 
L 126.49574 46.476763 
L 124.896191 43.898002 
L 125.051906 40.882333 
L 122.929042 40.810806 
L 122.599992 38.650103 
L 120.189945 37.761871 
L 118.205437 36.280929 
L 118.162554 35.883387 
L 117.431444 35.668258 
L 116.409326 33.340661 
L 116.370523 32.364271 
z
" clip-path="url(#p3c2df06633)" style="fill: #eeeeee; stroke: #000000; stroke-width: 0.3"/>
    <path d="M 137.482252 11.22852 
L 152.243772 6.037728 
L 154.4279 9.191456 
L 154.801112 8.590432 
L 156.433086 8.619814 
L 157.882023 8.04152 
L 158.741788 9.221954 
L 158.993489 12.782652 
L 157.334202 16.101606 
L 158.180698 17.013127 
L 158.28893 18.161953 
L 160.655329 20.666976 
L 161.706548 21.163765 
L 161.448213 22.64637 
L 162.564272 22.751163 
L 162.496368 20.451848 
L 161.773942 19.57692 
L 162.972715 17.448925 
L 163.663995 17.611936 
L 165.000615 16.919422 
L 165.274268 13.566091 
L 164.99602 12.249823 
L 165.589279 10.721195 
L 165.307454 9.452603 
L 161.53756 4.376587 
L 160.446002 3.365821 
L 159.346788 3.23996 
L 158.876063 2.346181 
L 158.624876 -1.078399 
L 157.931037 -3.695973 
L 159.228854 -7.028237 
L 163.747726 -6.843602 
L 165.204325 -7.912591 
L 166.892198 -7.026016 
L 167.048427 -6.367327 
L 169.152914 -6.260871 
L 170.113259 -7.053741 
L 171.161924 -7.100317 
L 171.701575 -6.510934 
L 173.322059 -6.270854 
L 175.037507 -7.268316 
L 175.635873 -8.60732 
L 177.209384 -8.643912 
L 178.373439 -7.912591 
L 180.369175 -9.23108 
L 182.058071 -9.196145 
L 183.344146 -10.180855 
L 184.763474 -10.492456 
L 188.343346 -12.932551 
L 188.324046 -12.457119 
L 189.05691 -11.810114 
L 188.219123 -11.406713 
L 188.885655 -10.984106 
L 188.272187 -10.368098 
L 188.323646 -9.931082 
L 188.617914 -10.055945 
L 188.323646 -9.12516 
L 187.544555 -8.429696 
L 188.122643 -8.064282 
L 187.933698 -6.643221 
L 188.391184 -5.629488 
L 188.4145 -3.668822 
L 188.050279 -3.351867 
L 188.592992 -2.689138 
L 188.183749 -2.077932 
L 188.597814 -1.922512 
L 189.016709 -0.655127 
L 187.851286 0.287878 
L 188.209476 0.716161 
L 188.292288 0.31975 
L 188.761832 0.468185 
L 188.424953 3.337806 
L 188.761832 3.630749 
L 188.486059 4.012756 
L 189.035199 6.134522 
L 188.482038 6.845705 
L 188.743342 7.375712 
L 189.261129 6.942628 
L 189.507154 7.416751 
L 189.439616 7.786967 
L 188.964446 7.786967 
L 188.930677 9.001526 
L 189.28203 8.28117 
L 189.780522 8.16679 
L 189.983535 8.454931 
L 189.580724 8.833006 
L 189.914792 8.778871 
L 190.010467 9.745454 
L 189.409068 10.7212 
L 188.998215 10.543517 
L 189.644641 11.315819 
L 189.135701 11.202748 
L 189.338315 11.71922 
L 188.429774 12.030934 
L 188.354199 12.304666 
L 188.960425 12.21124 
L 189.188765 12.577963 
L 188.695504 13.968027 
L 186.142354 16.634639 
L 186.487275 16.620235 
L 185.783764 17.885871 
L 184.751405 18.31241 
L 184.872813 18.779109 
L 185.11 18.998271 
L 181.51967 21.348363 
L 181.328714 21.970487 
L 179.21657 22.194451 
L 176.79568 23.599793 
L 176.341009 23.080269 
L 176.573771 23.593248 
L 171.937824 26.020178 
L 170.923155 27.488389 
L 170.448384 26.783752 
L 170.175822 26.765415 
L 170.889386 27.671748 
L 168.398147 30.406904 
L 168.074931 31.632381 
L 167.238355 31.145597 
L 167.380667 32.201239 
L 166.7869 32.252756 
L 166.673535 31.717513 
L 165.347314 32.525618 
L 161.748542 36.56876 
L 160.529654 37.41834 
L 159.278208 35.983309 
L 158.915192 35.910398 
L 160.02353 37.159012 
L 159.685841 37.528353 
L 160.010262 38.967316 
L 159.41931 38.963818 
L 159.85428 39.366345 
L 159.345341 40.168774 
L 159.720815 40.656433 
L 159.483632 41.054153 
L 159.837396 40.96422 
L 160.491864 41.976638 
L 161.089247 42.06832 
L 161.30794 43.185522 
L 161.715578 43.335706 
L 161.203417 44.11194 
L 161.479195 45.243111 
L 161.749347 44.474296 
L 161.715578 45.539546 
L 162.4609 46.971519 
L 162.632156 50.965327 
L 163.068736 51.497082 
L 163.302703 49.522002 
L 163.596166 49.449531 
L 163.677777 50.544469 
L 163.846217 49.84158 
L 163.539886 52.582412 
L 163.779079 53.960685 
L 164.116363 53.787798 
L 163.486017 55.194015 
L 163.050641 58.257913 
L 163.007225 57.880713 
L 162.803411 57.872853 
L 162.76401 59.419646 
L 162.999993 58.775259 
L 163.42451 58.966917 
L 163.472753 58.442586 
L 163.72722 58.553039 
L 163.57647 60.153532 
L 161.64804 62.817526 
L 152.611718 66.566855 
L 152.819153 66.328482 
L 150.613739 67.892302 
L 149.696356 69.727236 
L 149.224402 70.172981 
L 148.854554 70.070821 
L 148.657972 70.256369 
L 150.464195 71.887859 
L 151.017356 70.762358 
L 150.714241 74.878411 
L 146.865131 74.845633 
L 146.65121 70.391714 
L 146.051826 70.114484 
L 145.837396 69.336034 
L 146.281574 68.391248 
L 146.236137 61.879751 
L 145.563742 59.237779 
L 143.969039 56.69589 
L 144.012184 55.087419 
L 142.741423 51.108665 
L 148.511653 45.19875 
L 147.981195 44.235112 
L 148.728128 43.174444 
L 148.681668 41.386333 
L 149.621078 41.004315 
L 150.675873 38.703889 
L 151.278319 38.322977 
L 151.404429 36.993399 
L 150.961783 36.269835 
L 150.351418 36.404016 
L 150.413452 35.473644 
L 150.073426 35.275705 
L 150.530621 33.235873 
L 149.667029 32.545022 
L 149.718082 31.897422 
L 150.760878 31.576948 
L 150.603884 30.296162 
L 151.453695 29.310341 
L 151.019984 28.796921 
L 150.883668 27.276609 
L 151.363582 25.379267 
L 150.929105 24.730562 
L 151.349291 23.911078 
L 150.396602 21.709346 
L 151.086865 20.34927 
L 149.915153 20.495092 
L 149.621078 19.910146 
L 147.737408 19.11617 
L 145.859349 18.993636 
L 144.87348 17.861441 
L 143.361233 17.563144 
L 142.646973 16.818513 
L 138.411456 16.699305 
L 138.363461 13.907079 
z
M 159.422353 -4.356883 
L 159.585729 -4.097952 
L 159.948217 -4.549828 
L 159.611254 -4.763851 
z
M 158.869938 -4.705076 
L 159.201284 -4.376839 
L 159.281952 -4.834262 
z
" clip-path="url(#p3c2df06633)" style="fill: #eeeeee; stroke: #000000; stroke-width: 0.3"/>
    <path d="M 163.27054 47.715887 
L 163.283408 47.126069 
L 163.441795 46.461597 
L 163.546318 46.959298 
z
" clip-path="url(#p3c2df06633)" style="fill: #eeeeee; stroke: #000000; stroke-width: 0.3"/>
    <path d="M 184.938928 18.395439 
L 185.556584 18.313789 
L 185.221187 18.929105 
z
" clip-path="url(#p3c2df06633)" style="fill: #eeeeee; stroke: #000000; stroke-width: 0.3"/>
    <path d="M 150.838864 70.346737 
L 151.156448 70.172981 
L 151.051125 70.575942 
z
" clip-path="url(#p3c2df06633)" style="fill: #eeeeee; stroke: #000000; stroke-width: 0.3"/>
    <path d="M 140.304063 74.18528 
L 140.397239 72.471464 
L 141.954665 69.856664 
L 143.345915 68.922966 
L 145.485371 70.243118 
L 146.65121 70.391714 
L 146.49958 71.861014 
L 146.882489 73.462827 
L 146.865131 74.845633 
L 146.253496 74.675417 
L 146.145767 77.400552 
L 143.96368 77.371723 
L 142.063925 76.757941 
z
" clip-path="url(#p3c2df06633)" style="fill: #eeeeee; stroke: #000000; stroke-width: 0.3"/>
    <path d="M 121.613866 90.008815 
L 123.333395 89.009695 
L 125.295436 85.943013 
L 126.610103 85.781113 
L 127.308536 84.836327 
L 129.676461 84.130504 
L 131.388338 85.945229 
L 133.023113 86.914967 
L 133.636284 88.270053 
L 132.044901 90.45737 
L 132.195512 91.367228 
L 130.47343 92.277638 
L 128.4394 92.571498 
L 127.534199 93.31336 
L 127.721059 93.687615 
L 127.162518 94.250937 
L 126.932261 95.33212 
L 125.276546 95.018303 
L 123.836545 93.461398 
L 123.412023 93.466387 
L 123.487074 92.563182 
z
" clip-path="url(#p3c2df06633)" style="fill: #eeeeee; stroke: #000000; stroke-width: 0.3"/>
   </g>
   <g id="PatchCollection_2">
    <defs>
     <path id="m7030c0e3b3" d="M 46.110293 -83.011891 
L 46.295622 -84.511969 
L 47.940558 -85.196167 
L 48.703827 -84.736523 
L 50.306952 -84.684405 
L 53.26661 -86.20527 
L 54.815105 -85.88757 
L 55.020347 -85.288756 
L 57.288976 -83.670307 
L 79.385043 -83.851064 
L 80.319859 -82.519818 
L 81.541093 -81.654874 
L 85.893017 -81.1664 
L 88.684704 -81.356577 
L 91.006679 -80.409569 
L 92.76093 -80.950161 
L 93.874949 -80.5005 
L 107.872681 -83.370353 
L 111.906024 -82.824767 
L 113.00677 -81.682593 
L 111.492987 -81.713091 
L 109.571793 -80.294798 
L 108.515467 -80.81377 
L 104.856359 -78.015445 
L 103.289991 -80.583669 
L 91.840919 -78.864864 
L 91.88891 -59.312632 
L 86.91718 -59.115803 
L 86.933516 -24.665687 
L 84.893875 -24.081851 
L 84.332266 -23.148153 
L 83.397964 -22.94744 
L 83.508751 -22.193936 
L 82.678087 -21.79473 
L 80.827855 -22.4257 
L 77.966738 -22.093026 
L 76.715889 -22.740074 
L 75.310349 -22.83211 
L 75.084177 -23.282329 
L 74.19837 -23.153142 
L 74.282101 -23.748067 
L 73.806268 -24.407314 
L 74.178971 -24.810957 
L 73.912465 -25.710278 
L 73.257429 -25.686437 
L 72.581971 -26.787582 
L 71.675747 -26.488175 
L 71.062068 -25.507901 
L 70.922176 -24.351313 
L 68.978086 -23.948228 
L 66.018907 -26.799513 
L 63.783346 -30.566305 
L 63.453698 -32.58809 
L 62.734908 -33.931004 
L 63.158225 -34.483709 
L 62.846668 -35.404451 
L 62.158431 -35.862421 
L 62.221147 -37.345477 
L 61.536126 -38.99268 
L 61.600043 -42.680884 
L 59.653523 -47.862621 
L 59.923674 -48.968031 
L 59.53051 -51.527248 
L 59.81513 -52.096111 
L 59.411113 -53.9114 
L 59.534126 -54.399493 
L 59.653523 -53.779987 
L 59.999649 -54.290349 
L 59.897142 -56.179418 
L 54.409334 -65.292528 
L 53.323112 -68.833607 
L 52.629554 -69.529715 
L 49.72836 -75.725416 
L 47.662735 -77.867015 
L 46.501975 -80.813614 
z
" style="stroke: #dd0000; stroke-width: 0.5"/>
    </defs>
    <g clip-path="url(#p3c2df06633)">
     <use xlink:href="#m7030c0e3b3" x="0" y="108" style="fill: #ff6b6b; stroke: #dd0000; stroke-width: 0.5"/>
    </g>
   </g>
  </g>
 </g>
 <defs>
  <clipPath id="p3c2df06633">
   <rect x="0" y="0" width="159.117062" height="108"/>
  </clipPath>
 </defs>
</svg>
