<?xml version="1.0" encoding="utf-8" standalone="no"?>
<!DOCTYPE svg PUBLIC "-//W3C//DTD SVG 1.1//EN"
  "http://www.w3.org/Graphics/SVG/1.1/DTD/svg11.dtd">
<svg xmlns:xlink="http://www.w3.org/1999/xlink" width="152.029879pt" height="108pt" viewBox="0 0 152.029879 108" xmlns="http://www.w3.org/2000/svg" version="1.1">
 <metadata>
  <rdf:RDF xmlns:dc="http://purl.org/dc/elements/1.1/" xmlns:cc="http://creativecommons.org/ns#" xmlns:rdf="http://www.w3.org/1999/02/22-rdf-syntax-ns#">
   <cc:Work>
    <dc:type rdf:resource="http://purl.org/dc/dcmitype/StillImage"/>
    <dc:date>2025-09-05T13:56:20.323807</dc:date>
    <dc:format>image/svg+xml</dc:format>
    <dc:creator>
     <cc:Agent>
      <dc:title>Matplotlib v3.10.3, https://matplotlib.org/</dc:title>
     </cc:Agent>
    </dc:creator>
   </cc:Work>
  </rdf:RDF>
 </metadata>
 <defs>
  <style type="text/css">*{stroke-linejoin: round; stroke-linecap: butt}</style>
 </defs>
 <g id="figure_1">
  <g id="patch_1">
   <path d="M 0 108 
L 152.029879 108 
L 152.029879 0 
L 0 0 
z
" style="fill: #ffffff"/>
  </g>
  <g id="axes_1">
   <g id="PatchCollection_1">
    <path d="M -89.612916 110.263501 
L -88.237669 109.636523 
L -89.40173 108.552512 
L -88.361858 106.449888 
L -83.581341 106.104797 
L -83.344246 101.786615 
L -82.394796 102.90418 
L -81.71569 101.911595 
L -81.109006 102.659093 
L -74.876418 102.428623 
L -73.303645 103.705019 
L -70.631231 103.74465 
L -69.325064 102.16828 
L -66.019144 100.951632 
L -64.497878 100.690368 
L -64.44853 102.475262 
L -62.499203 102.963326 
L -59.101553 100.838839 
L -60.197987 100.208405 
L -60.429715 98.797566 
L -59.297885 97.640665 
L -61.532585 91.968642 
L -63.547348 89.21647 
L -63.553795 85.938114 
L -67.753911 85.546077 
L -69.669979 82.32932 
L -68.700142 75.842737 
L -72.2555 75.250718 
L -75.487928 73.423457 
L -75.173583 68.817181 
L -66.791579 58.365128 
L -64.788618 58.312095 
L -62.966958 61.554466 
L -61.709059 62.022708 
L -50.884231 58.976048 
L -50.532341 56.900938 
L -48.024069 54.326497 
L -45.899867 49.448906 
L -39.923152 46.139473 
L -36.782983 40.371116 
L -35.356125 35.761183 
L -29.397638 32.682208 
L -30.35889 30.506811 
L -25.50649 24.362877 
L -21.981172 22.116749 
L -23.563599 21.035758 
L -22.41353 17.690953 
L -23.739544 14.714411 
L -23.106578 13.348077 
L -20.218524 11.00683 
L -15.381144 9.550262 
L -14.712771 8.219605 
L -18.194097 5.805811 
L -21.664689 5.745757 
L -22.284784 4.36845 
L -21.706532 1.499816 
L -22.864116 2.428077 
L -25.226483 2.258888 
L -25.589096 -0.424087 
L -28.795781 -2.587909 
L -27.182245 -6.322615 
L -29.171265 -9.157706 
L -25.993551 -11.843123 
L -29.923324 -12.93052 
L -28.918081 -14.867838 
L -31.157068 -16.666441 
L -29.657258 -19.870715 
L -25.198591 -21.415076 
L -10.178992 -18.282453 
L -7.816626 -20.279211 
L -1.285253 -21.102914 
L -0.195265 -23.08687 
L 2.456773 -23.927646 
L 2.761101 -25.350779 
L 10.628494 -29.933174 
L 11.487833 -29.17409 
L 13.16037 -29.888659 
L 12.713003 -27.260865 
L 15.773783 -19.65976 
L 19.599484 -18.500723 
L 22.57443 -16.409461 
L 22.834061 -14.851981 
L 20.27966 -13.225008 
L 21.014539 -6.322615 
L 23.86021 -3.980719 
L 27.815581 -3.445734 
L 26.543897 -0.424087 
L 29.45376 2.280774 
L 27.6848 4.997492 
L 26.407709 4.319156 
L 24.253414 5.733557 
L 23.862899 6.932225 
L 22.493973 7.220306 
L 20.708789 5.860071 
L 20.349394 3.875808 
L 16.695341 4.846756 
L 17.454905 8.597307 
L 20.429851 11.729328 
L 19.664921 14.014473 
L 21.201218 15.939295 
L 19.962097 17.087962 
L 20.435218 19.470054 
L 22.261238 19.923478 
L 23.809991 17.661776 
L 24.445126 17.932525 
L 27.249816 22.826445 
L 29.078991 23.832445 
L 31.908033 23.64222 
L 35.792745 26.242583 
L 35.328209 28.302756 
L 39.651704 29.478854 
L 43.875965 32.39382 
L 42.470563 32.541984 
L 37.291486 37.759781 
L 37.459916 39.566007 
L 35.680099 41.783476 
L 36.141418 44.313426 
L 34.837929 45.401732 
L 33.839132 48.624907 
L 36.883813 51.097222 
L 38.531676 51.864529 
L 39.231159 50.489971 
L 42.85839 53.299153 
L 45.603216 54.237478 
L 46.916358 56.986606 
L 47.952712 56.605235 
L 52.723575 60.259157 
L 54.504471 59.533923 
L 58.394011 62.309267 
L 61.277237 62.105934 
L 62.029286 64.459061 
L 65.980515 65.057793 
L 67.53397 66.394243 
L 68.619671 64.748062 
L 73.47314 66.227803 
L 73.260189 65.177901 
L 76.198659 64.242927 
L 77.986531 65.861369 
L 81.278501 66.635685 
L 81.628242 69.964031 
L 83.46814 70.17377 
L 88.344685 73.402113 
L 91.688151 72.056508 
L 93.963074 75.417783 
L 95.860915 74.375798 
L 98.695323 74.876368 
L 103.150243 77.206016 
L 106.55218 75.251946 
L 107.22645 77.321865 
L 109.242293 78.01509 
L 110.446007 77.059693 
L 112.21617 77.637082 
L 115.151962 76.615224 
L 116.248936 77.772433 
L 118.258333 73.319194 
L 116.183488 68.991561 
L 116.745651 64.459675 
L 118.160707 61.165473 
L 117.540612 59.34614 
L 122.84039 57.251822 
L 124.837995 58.370615 
L 125.379231 60.161915 
L 124.2018 64.025872 
L 125.765988 66.575938 
L 124.081649 68.517821 
L 125.094397 69.143984 
L 125.344364 70.942588 
L 125.914571 70.521905 
L 127.885354 72.40587 
L 130.430101 72.017491 
L 135.329711 73.883782 
L 138.584135 73.232004 
L 140.884812 71.518148 
L 144.707294 73.047277 
L 150.722645 72.958258 
L 152.005747 71.814465 
L 153.048536 72.686943 
L 156.209081 71.968717 
L 156.764808 72.622925 
L 156.91501 71.698616 
L 158.779582 71.623012 
L 157.898787 68.85621 
L 158.945863 66.849696 
L 157.765754 64.72489 
L 155.191495 64.872264 
L 153.918597 64.020386 
L 154.243551 61.066308 
L 153.502246 60.254025 
L 157.528659 61.747133 
L 160.51112 60.089969 
L 161.178425 61.023421 
L 163.992747 60.296098 
L 165.668274 58.666707 
L 164.656532 57.822202 
L 165.068493 56.930516 
L 170.561863 54.482648 
L 170.338283 53.403616 
L 171.69689 51.380571 
L 173.036388 50.573197 
L 178.035232 50.44509 
L 178.701987 48.534968 
L 182.390004 46.414799 
L 181.769203 44.95665 
L 185.012364 42.966299 
L 186.845827 44.735336 
L 192.978837 46.271485 
L 194.226241 45.888061 
L 195.023994 43.804326 
L 196.60942 44.126681 
L 196.896081 42.685533 
L 200.319018 42.345103 
L 201.987715 43.856144 
L 203.346987 43.667146 
L 201.357966 45.417884 
L 201.572816 47.396932 
L 203.350381 46.271001 
L 204.295367 46.765931 
L 205.696482 49.558654 
L 202.678613 53.536749 
L 211.124996 54.175595 
L 213.283526 55.934568 
L 212.965963 57.378642 
L 213.685833 58.560852 
L 213.387588 59.749149 
L 212.239657 59.683609 
L 208.494424 63.228089 
L 208.693964 65.059009 
L 211.162541 69.268976 
L 208.527672 68.273948 
L 206.865868 66.042451 
L 201.025394 67.260633 
L 193.427627 73.819151 
L 190.439799 74.88124 
L 189.598708 78.704045 
L 190.734826 81.508047 
L 189.171717 83.017059 
L 189.256472 85.198556 
L 185.09605 89.23963 
L 184.528521 91.486985 
L 185.93822 92.261301 
L 186.139908 93.590128 
L 181.85074 101.769837 
L 180.153529 107.3815 
L 175.786042 105.629535 
L 173.144747 106.166373 
L 171.619184 104.939058 
L 172.871176 109.465447 
L 172.296142 115.961787 
L 171.236184 117.422615 
L 169.858674 117.11594 
L 170.226654 118.888032 
L 169.139873 121.115861 
L 170.207346 126.230009 
L 169.875832 127.081156 
L 168.659247 126.908605 
L 168.186137 129.345572 
L 167.132615 129.797969 
L 165.122138 127.470137 
L 164.00211 129.555311 
L 163.171732 121.083557 
L 161.759895 118.358203 
L 160.716037 109.156943 
L 160.041227 109.845296 
L 159.589562 108.860025 
L 158.221706 109.940709 
L 157.221829 108.962447 
L 157.409576 111.649999 
L 155.363693 114.279327 
L 155.902251 116.436436 
L 153.727632 118.147554 
L 151.737542 114.393334 
L 151.494001 116.751653 
L 150.89859 116.300164 
L 150.626088 113.297407 
L 149.058682 110.065088 
L 151.412474 104.515921 
L 153.683651 104.56013 
L 154.17393 103.153551 
L 154.948514 104.007435 
L 155.252126 102.929795 
L 156.748718 103.829397 
L 156.984734 101.705524 
L 159.141125 100.904072 
L 160.339473 95.177175 
L 161.976603 95.82224 
L 163.046214 94.742464 
L 158.377264 91.752201 
L 154.273705 92.432011 
L 150.090748 91.513201 
L 141.048954 92.125938 
L 135.385494 90.533416 
L 135.485269 82.340293 
L 133.662 79.46983 
L 132.725422 80.414868 
L 133.229653 81.245274 
L 132.506565 82.572579 
L 130.364124 82.114094 
L 128.12084 80.367309 
L 127.337682 77.601109 
L 126.271288 76.912756 
L 125.754726 77.545621 
L 127.085566 79.330822 
L 123.389671 78.977201 
L 123.896579 78.224216 
L 123.315649 77.199315 
L 120.370203 74.88124 
L 119.774243 76.610352 
L 121.290152 76.742045 
L 121.668855 77.935829 
L 118.203618 80.439857 
L 117.412416 84.091337 
L 119.201357 84.586421 
L 122.007874 87.994016 
L 124.520432 87.973287 
L 125.24352 89.968829 
L 126.72724 90.533416 
L 126.096412 91.914983 
L 121.084167 91.657082 
L 119.853631 95.374114 
L 117.69618 94.881779 
L 116.729562 98.076898 
L 117.644684 99.783144 
L 121.438195 101.971955 
L 124.158888 102.306687 
L 123.542011 103.873606 
L 123.916426 106.577004 
L 122.499222 107.402843 
L 122.109787 109.823952 
L 124.497907 111.72499 
L 123.734046 114.514976 
L 126.46815 115.100895 
L 125.210261 117.77777 
L 126.307764 119.285555 
L 126.136117 122.823629 
L 127.694928 127.510995 
L 127.515599 130.016758 
L 125.897911 129.651421 
L 127.741992 133.805535 
L 125.758525 133.378741 
L 125.416403 132.041725 
L 125.416403 133.578936 
L 124.920538 132.927948 
L 124.709352 134.384505 
L 123.847709 134.26592 
L 124.423823 127.750313 
L 123.05196 129.934193 
L 123.594286 127.108458 
L 123.35607 126.87177 
L 122.38968 131.05085 
L 122.364331 132.041725 
L 123.072232 132.239525 
L 122.44374 134.506441 
L 121.568582 134.52277 
L 122.034883 131.705672 
L 121.647991 129.859296 
L 121.239974 133.726793 
L 120.583611 134.007169 
L 119.941603 132.605333 
L 119.718594 133.890023 
L 119.59864 132.073887 
L 119.218505 131.666312 
L 119.678039 134.344178 
L 119.144162 134.544845 
L 118.026563 129.771918 
L 118.558758 127.311048 
L 116.597255 126.454108 
L 115.885129 124.417625 
L 115.533716 124.27936 
L 116.143628 126.402266 
L 117.879578 127.177101 
L 118.209027 128.231356 
L 114.780204 132.484365 
L 108.208919 134.576536 
L 105.268362 137.226557 
L 104.503868 140.119024 
L 105.766759 143.378267 
L 104.864571 143.677839 
L 106.571809 144.652397 
L 103.543384 147.116146 
L 103.221545 148.540057 
L 104.149071 147.989887 
L 102.943624 149.419567 
L 103.576331 149.177606 
L 100.88244 150.715772 
L 100.167781 152.897245 
L 97.326055 151.198727 
L 99.608556 153.300502 
L 90.350137 156.824276 
L 89.795147 156.378757 
L 91.346942 155.886199 
L 91.28274 154.354758 
L 89.931149 154.111841 
L 88.145353 155.482942 
L 86.650152 159.042229 
L 87.932475 156.940455 
L 89.425984 156.53767 
L 88.794118 157.885245 
L 91.346942 156.53767 
L 87.235566 159.081601 
L 83.193448 163.263064 
L 82.651122 162.943823 
L 82.674778 164.3538 
L 76.156713 172.964952 
L 69.293151 177.393662 
L 68.145138 179.818051 
L 67.165232 179.831973 
L 67.706718 180.445029 
L 67.08245 181.286607 
L 58.246404 186.784934 
L 56.844967 189.118111 
L 57.483601 190.092185 
L 57.843463 188.79598 
L 58.026768 189.360544 
L 57.412642 193.240535 
L 51.761285 196.275101 
L 48.111986 195.567941 
L 46.536525 196.15556 
L 43.971878 202.702373 
L 42.907498 201.819029 
L 42.767272 199.714375 
L 41.839745 203.427289 
L 41.517895 201.446495 
L 40.418036 201.169964 
L 36.364095 203.612594 
L 34.011475 210.786869 
L 34.933936 216.938107 
L 35.505835 217.011552 
L 35.27775 219.61261 
L 33.945581 221.240078 
L 34.868893 220.973636 
L 36.71804 230.274167 
L 34.933936 226.875703 
L 34.868893 228.171908 
L 34.437231 227.27896 
L 34.011475 228.171908 
L 34.700785 229.568931 
L 36.855734 230.39851 
L 36.915711 233.138305 
L 35.326745 240.990444 
L 32.878669 244.704326 
L 33.51477 244.422038 
L 31.239016 249.997656 
L 30.886762 252.26554 
L 31.586214 254.57184 
L 30.864798 254.664009 
L 30.101144 255.575197 
L 31.728123 255.037994 
L 31.973948 267.411023 
L 28.859366 267.347654 
L 29.173618 266.816208 
L 26.051427 267.88822 
L 25.977935 270.448468 
L 22.180801 277.074012 
L 23.856785 279.131626 
L 26.621635 278.942958 
L 27.789921 280.793651 
L 22.966419 279.386541 
L 16.978857 281.491679 
L 14.598366 284.119626 
L 14.386329 285.578106 
L 14.934572 285.436962 
L 13.890465 286.705806 
L 13.281404 290.176759 
L 7.624141 293.571389 
L 5.524093 292.92328 
L 2.277735 290.124917 
L -2.413139 283.701963 
L -1.120674 282.582415 
L -2.577863 283.295332 
L -4.291859 278.833021 
L -4.823203 276.853182 
L -5.606278 271.429267 
L -5.449162 271.306364 
L -3.969158 274.659226 
L -4.349303 276.526249 
L -2.835511 276.357733 
L -3.834848 275.955432 
L -3.969158 272.725472 
L -6.166344 269.624658 
L -5.565732 268.051923 
L -6.469613 268.27372 
L -10.804848 254.689458 
L -15.070817 248.464775 
L -14.356158 247.571343 
L -16.429165 247.011581 
L -20.228842 237.544941 
L -19.052948 236.908359 
L -20.333589 237.107103 
L -21.663215 230.974117 
L -21.89975 228.010601 
L -21.18425 227.762398 
L -21.680955 227.077809 
L -21.963952 227.68847 
L -23.677937 223.316888 
L -24.366407 220.841128 
L -23.53687 220.724466 
L -24.508326 220.125332 
L -25.167222 217.422017 
L -24.379922 218.058599 
L -25.096262 216.938107 
L -25.700258 217.455147 
L -25.300691 216.447943 
L -25.956214 216.478666 
L -26.19444 215.195416 
L -27.818886 214.317357 
L -26.378596 213.336086 
L -27.659227 213.694225 
L -29.722093 210.948177 
L -29.212714 210.085479 
L -29.948486 207.830078 
L -31.073694 207.066758 
L -29.154429 207.469543 
L -30.933467 206.58332 
L -30.21121 205.536745 
L -31.246016 206.012502 
L -31.551818 205.13396 
L -30.500113 204.079232 
L -31.744424 204.480094 
L -34.559961 199.267901 
L -34.135056 197.846869 
L -34.559961 198.740773 
L -36.055162 193.792144 
L -35.269544 193.965922 
L -35.934367 193.008649 
L -35.34642 192.881911 
L -37.258928 184.672588 
L -36.615228 184.921758 
L -37.892486 181.71628 
L -37.117009 181.362943 
L -37.940629 180.891987 
L -38.749053 175.694188 
L -39.958735 173.842055 
L -39.823574 173.109447 
L -38.603761 174.294287 
L -38.457617 173.263073 
L -40.327047 171.418137 
L -39.982381 170.164654 
L -39.044713 170.939501 
L -40.739278 167.993269 
L -39.958735 166.731149 
L -39.250834 167.859334 
L -39.39022 166.202098 
L -40.271284 165.930854 
L -38.610518 164.505032 
L -39.321793 164.702336 
L -39.46202 162.761868 
L -41.055211 165.826686 
L -41.584022 165.297151 
L -41.427747 160.982225 
L -38.684851 162.117122 
L -41.655832 160.200181 
L -41.749597 159.001902 
L -40.454599 158.404692 
L -42.080737 158.358596 
L -41.974298 155.486293 
L -42.543654 155.877562 
L -42.841848 154.633683 
L -39.752615 143.926998 
L -40.234123 142.645198 
L -40.893019 143.025896 
L -40.358302 141.29426 
L -41.567133 140.807459 
L -40.758709 140.522776 
L -41.176857 139.554932 
L -43.196644 139.840099 
L -41.955717 138.742165 
L -43.719549 136.537166 
L -41.825622 135.746003 
L -43.521878 136.164149 
L -41.03663 133.491557 
L -40.345628 133.531884 
L -37.829976 132.1483 
L -43.868215 133.223203 
L -43.695892 131.068135 
L -41.955717 129.36098 
L -43.946783 130.342735 
L -44.372529 129.573646 
L -43.607193 126.995641 
L -41.813799 127.355209 
L -40.056725 126.088287 
L -44.741691 126.54676 
L -45.512943 126.300009 
L -45.457191 124.963465 
L -46.172691 126.214553 
L -47.08501 125.728708 
L -48.036194 126.011964 
L -46.399084 126.582285 
L -46.387251 128.358578 
L -47.783622 129.577976 
L -48.573454 129.207837 
L -49.283048 130.012923 
L -47.955944 130.165582 
L -47.821634 131.162227 
L -48.978938 130.485318 
L -48.495737 131.228475 
L -49.537312 130.969241 
L -49.620945 131.656225 
L -47.857114 131.722001 
L -46.478482 133.699916 
L -48.493205 138.669676 
L -58.500911 143.853553 
L -62.657066 144.410436 
L -69.775836 139.282118 
L -81.29639 125.809362 
L -79.957474 123.605331 
L -79.976054 124.577481 
L -78.622772 124.396022 
L -78.519717 126.059004 
L -75.742182 125.25295 
L -75.365431 124.003313 
L -74.326389 125.091655 
L -73.108268 123.626933 
L -72.469644 124.351849 
L -70.621338 122.902501 
L -68.488354 122.66054 
L -66.445751 118.640856 
L -65.101759 117.733502 
L -65.12035 116.260628 
L -66.201618 116.677819 
L -66.267512 118.190064 
L -68.985059 117.563558 
L -68.935224 118.318242 
L -72.07261 119.162215 
L -73.290732 120.478583 
L -74.641482 120.310079 
L -82.109879 117.256789 
L -85.368912 114.428175 
L -84.801248 113.650933 
L -85.533636 112.521309 
L -86.703614 112.23278 
L -86.058233 111.426727 
L -86.828634 111.655733 
L -86.857356 110.161728 
L -82.572807 107.128601 
L -86.661377 109.06475 
L -87.703792 110.567876 
z
" clip-path="url(#p8277f2e7b9)" style="fill: #eeeeee; stroke: #000000; stroke-width: 0.3"/>
    <path d="M 163.473071 248.955895 
L 163.94697 248.069671 
L 164.436077 248.850759 
L 165.101741 244.683207 
L 166.252287 244.824351 
L 165.475118 242.997655 
L 166.154298 239.428764 
L 165.679547 237.750893 
L 166.689015 235.452274 
L 166.820803 231.406669 
L 168.526339 228.655347 
L 169.218192 230.790735 
L 168.166476 231.401384 
L 168.952095 232.126783 
L 168.786519 234.74272 
L 167.750862 234.684636 
L 167.913053 235.820973 
L 167.120688 236.459478 
L 168.031326 237.069655 
L 168.306714 241.148401 
L 167.740731 242.320263 
L 166.813194 242.159439 
L 167.522787 243.282338 
L 167.306525 244.855546 
L 165.887359 246.360594 
L 165.679547 248.706253 
L 165.933821 247.980853 
L 166.323246 248.464775 
L 165.123706 251.40525 
L 165.928745 251.242975 
L 165.466669 253.239142 
z
" clip-path="url(#p8277f2e7b9)" style="fill: #eeeeee; stroke: #000000; stroke-width: 0.3"/>
    <path d="M 175.143245 306.111967 
L 175.426231 304.120601 
L 177.028712 303.483064 
L 177.95709 305.979459 
L 177.778851 308.528192 
L 177.064192 309.268469 
z
" clip-path="url(#p8277f2e7b9)" style="fill: #eeeeee; stroke: #000000; stroke-width: 0.3"/>
    <path d="M 162.011512 264.62604 
L 162.477117 260.833003 
L 163.500879 260.306205 
L 164.097743 261.771528 
L 163.582167 264.678743 
z
" clip-path="url(#p8277f2e7b9)" style="fill: #eeeeee; stroke: #000000; stroke-width: 0.3"/>
    <path d="M 169.020521 245.462843 
L 169.476681 245.026941 
L 169.476681 246.070625 
L 169.382916 246.20121 
z
" clip-path="url(#p8277f2e7b9)" style="fill: #eeeeee; stroke: #000000; stroke-width: 0.3"/>
    <path d="M 165.111882 237.867544 
L 165.111882 235.92756 
L 165.633936 235.80081 
L 165.543545 236.981804 
z
" clip-path="url(#p8277f2e7b9)" style="fill: #eeeeee; stroke: #000000; stroke-width: 0.3"/>
    <path d="M 117.305997 130.416192 
L 117.73766 129.939466 
L 117.801021 130.604376 
L 117.343169 131.068135 
z
" clip-path="url(#p8277f2e7b9)" style="fill: #eeeeee; stroke: #000000; stroke-width: 0.3"/>
    <path d="M 117.028077 132.766641 
L 117.741885 130.94811 
L 118.026563 130.826174 
L 117.950538 133.652392 
z
" clip-path="url(#p8277f2e7b9)" style="fill: #eeeeee; stroke: #000000; stroke-width: 0.3"/>
    <path d="M 181.503334 230.411464 
L 181.803219 230.486361 
L 181.638495 230.517084 
z
" clip-path="url(#p8277f2e7b9)" style="fill: #eeeeee; stroke: #000000; stroke-width: 0.3"/>
    <path d="M 177.247507 244.070623 
L 177.337888 243.956851 
L 177.266928 244.200252 
z
" clip-path="url(#p8277f2e7b9)" style="fill: #eeeeee; stroke: #000000; stroke-width: 0.3"/>
    <path d="M 174.818862 303.199337 
L 175.639109 301.015469 
L 175.966865 302.289104 
z
" clip-path="url(#p8277f2e7b9)" style="fill: #eeeeee; stroke: #000000; stroke-width: 0.3"/>
    <path d="M 174.64737 289.298217 
L 174.712423 287.752853 
L 174.925291 288.727411 
z
" clip-path="url(#p8277f2e7b9)" style="fill: #eeeeee; stroke: #000000; stroke-width: 0.3"/>
    <path d="M 173.706329 294.701968 
L 174.365225 294.835915 
L 174.362692 295.354395 
z
" clip-path="url(#p8277f2e7b9)" style="fill: #eeeeee; stroke: #000000; stroke-width: 0.3"/>
    <path d="M 173.040665 292.646761 
L 173.642968 291.789822 
L 173.432633 294.563703 
z
" clip-path="url(#p8277f2e7b9)" style="fill: #eeeeee; stroke: #000000; stroke-width: 0.3"/>
    <path d="M 171.570812 295.058668 
L 172.248299 294.263658 
L 173.121765 296.010184 
z
" clip-path="url(#p8277f2e7b9)" style="fill: #eeeeee; stroke: #000000; stroke-width: 0.3"/>
    <path d="M 169.087256 291.30446 
L 169.273945 290.26894 
L 169.48429 291.216609 
z
" clip-path="url(#p8277f2e7b9)" style="fill: #eeeeee; stroke: #000000; stroke-width: 0.3"/>
    <path d="M 168.306714 227.601091 
L 168.749358 227.450355 
L 168.952095 227.92275 
z
" clip-path="url(#p8277f2e7b9)" style="fill: #eeeeee; stroke: #000000; stroke-width: 0.3"/>
    <path d="M 167.854768 247.396126 
L 168.556753 246.835868 
L 169.094013 248.464775 
z
" clip-path="url(#p8277f2e7b9)" style="fill: #eeeeee; stroke: #000000; stroke-width: 0.3"/>
    <path d="M 165.614504 281.12587 
L 165.819773 279.587692 
L 166.660511 280.958569 
z
" clip-path="url(#p8277f2e7b9)" style="fill: #eeeeee; stroke: #000000; stroke-width: 0.3"/>
    <path d="M 164.185186 254.608804 
L 164.621925 253.078791 
L 165.252109 253.711538 
z
" clip-path="url(#p8277f2e7b9)" style="fill: #eeeeee; stroke: #000000; stroke-width: 0.3"/>
    <path d="M 160.279931 252.016382 
L 160.982757 252.654403 
L 160.641475 252.828677 
z
" clip-path="url(#p8277f2e7b9)" style="fill: #eeeeee; stroke: #000000; stroke-width: 0.3"/>
    <path d="M 125.209441 134.813211 
L 125.962954 134.400822 
L 125.928325 134.827617 
z
" clip-path="url(#p8277f2e7b9)" style="fill: #eeeeee; stroke: #000000; stroke-width: 0.3"/>
    <path d="M 122.575528 131.336489 
L 123.464201 130.383062 
L 123.212459 131.793051 
z
" clip-path="url(#p8277f2e7b9)" style="fill: #eeeeee; stroke: #000000; stroke-width: 0.3"/>
    <path d="M 42.476677 202.299588 
L 42.682797 201.889123 
L 43.246247 203.136365 
z
" clip-path="url(#p8277f2e7b9)" style="fill: #eeeeee; stroke: #000000; stroke-width: 0.3"/>
    <path d="M -32.215791 261.141212 
L -32.128783 261.101369 
L -32.095836 261.10761 
z
" clip-path="url(#p8277f2e7b9)" style="fill: #eeeeee; stroke: #000000; stroke-width: 0.3"/>
    <path d="M -32.405012 269.20171 
L -32.39487 269.163306 
L -32.371224 269.23051 
z
" clip-path="url(#p8277f2e7b9)" style="fill: #eeeeee; stroke: #000000; stroke-width: 0.3"/>
    <path d="M -32.633938 270.195464 
L -32.516517 269.755715 
L -32.546931 270.053364 
z
" clip-path="url(#p8277f2e7b9)" style="fill: #eeeeee; stroke: #000000; stroke-width: 0.3"/>
    <path d="M -38.950108 291.45424 
L -38.328373 290.82823 
L -38.514221 291.2771 
z
" clip-path="url(#p8277f2e7b9)" style="fill: #eeeeee; stroke: #000000; stroke-width: 0.3"/>
    <path d="M -39.154536 253.215133 
L -39.086951 253.290029 
L -39.141862 253.413888 
z
" clip-path="url(#p8277f2e7b9)" style="fill: #eeeeee; stroke: #000000; stroke-width: 0.3"/>
    <path d="M -41.584022 256.670252 
L -41.322149 256.037989 
L -41.531653 256.871403 
z
" clip-path="url(#p8277f2e7b9)" style="fill: #eeeeee; stroke: #000000; stroke-width: 0.3"/>
    <path d="M -41.90418 257.788833 
L -41.90418 257.728342 
L -41.847586 257.780668 
z
" clip-path="url(#p8277f2e7b9)" style="fill: #eeeeee; stroke: #000000; stroke-width: 0.3"/>
    <path d="M -42.304597 250.974137 
L -42.261509 250.904527 
L -42.259827 250.963577 
z
" clip-path="url(#p8277f2e7b9)" style="fill: #eeeeee; stroke: #000000; stroke-width: 0.3"/>
    <path d="M -43.0674 264.326042 
L -42.847764 264.099443 
L -42.952511 264.27131 
z
" clip-path="url(#p8277f2e7b9)" style="fill: #eeeeee; stroke: #000000; stroke-width: 0.3"/>
    <path d="M -43.966215 261.709622 
L -43.884273 261.676492 
L -43.962831 261.752344 
z
" clip-path="url(#p8277f2e7b9)" style="fill: #eeeeee; stroke: #000000; stroke-width: 0.3"/>
    <path d="M -47.721953 260.857968 
L -47.504009 260.511344 
L -47.504009 260.672179 
z
" clip-path="url(#p8277f2e7b9)" style="fill: #eeeeee; stroke: #000000; stroke-width: 0.3"/>
    <path d="M -32.890766 -73.727784 
L -32.633284 -76.571417 
L -30.498359 -76.893938 
L -29.633653 -78.149922 
L -30.703265 -80.555788 
L -29.061837 -83.594519 
L -25.355218 -84.185937 
L -21.494111 -86.988712 
L -19.870921 -86.928351 
L -20.646574 -88.0441 
L -20.14879 -89.116561 
L -16.427151 -88.286156 
L -12.628263 -90.546914 
L -11.36233 -86.521685 
L -5.525073 -88.285542 
L -4.805203 -87.130776 
L -1.7337 -90.125004 
L -1.3346 -92.104075 
L 0.877564 -95.034285 
L 13.479002 -95.34463 
L 16.328431 -98.068757 
L 16.43679 -99.332658 
L 19.534037 -101.160534 
L 30.84057 -105.258016 
L 31.830794 -106.698421 
L 35.861411 -107.074305 
L 36.247628 -109.484442 
L 34.953793 -114.283975 
L 36.038425 -116.306654 
L 39.156058 -117.041339 
L 37.282902 -118.810989 
L 41.697588 -120.238593 
L 40.134479 -122.324074 
L 40.859715 -123.889164 
L 36.97929 -131.707017 
L 37.155235 -137.976545 
L 38.57137 -138.862438 
L 36.001949 -139.900754 
L 33.375664 -139.637355 
L 31.98957 -140.936014 
L 34.534317 -142.451728 
L 42.324658 -143.564422 
L 50.746896 -146.177585 
L 53.704144 -143.776604 
L 56.768143 -144.806991 
L 59.824626 -143.530891 
L 60.78212 -146.978129 
L 57.247689 -148.362751 
L 64.451733 -164.990429 
L 64.825079 -168.098062 
L 73.999896 -165.36144 
L 81.870164 -165.478197 
L 82.784217 -164.701132 
L 82.659769 -163.483257 
L 87.706881 -166.159223 
L 90.538611 -166.280251 
L 92.410698 -168.912009 
L 90.712408 -176.526528 
L 92.822659 -181.70073 
L 101.60859 -183.688651 
L 103.548792 -185.907961 
L 103.937698 -187.367574 
L 103.106791 -188.725366 
L 104.664533 -190.508125 
L 110.279715 -190.103287 
L 114.596775 -191.22208 
L 115.180933 -188.88816 
L 113.782497 -187.72425 
L 117.120066 -185.821373 
L 115.909917 -184.540092 
L 116.327244 -183.983752 
L 121.72142 -182.09856 
L 122.692336 -179.799386 
L 127.356449 -177.384376 
L 132.507634 -177.833116 
L 134.682253 -175.39432 
L 137.726945 -176.048529 
L 138.123885 -174.589518 
L 140.842969 -173.439624 
L 142.129289 -169.313496 
L 144.655798 -165.842177 
L 146.451715 -165.016656 
L 148.137124 -160.553047 
L 146.56651 -157.433839 
L 147.66938 -154.128052 
L 144.641857 -150.946655 
L 144.022832 -147.890238 
L 146.328335 -144.268631 
L 148.233681 -144.638711 
L 153.186925 -142.910827 
L 160.296561 -142.191385 
L 166.822567 -142.53342 
L 173.857102 -141.496945 
L 178.031475 -138.213102 
L 180.672779 -138.070436 
L 186.032628 -134.32628 
L 189.547212 -133.281864 
L 193.293525 -133.583053 
L 192.476029 -130.475431 
L 194.721452 -129.774277 
L 198.241402 -121.390622 
L 202.853489 -117.414167 
L 203.259025 -115.224742 
L 211.931759 -115.96522 
L 235.61122 -113.333462 
L 241.242491 -114.658644 
L 256.895585 -113.017938 
L 259.079858 -112.117722 
L 262.181402 -108.854928 
L 272.969764 -106.730123 
L 279.384194 -103.836193 
L 287.785516 -105.150096 
L 287.828428 -102.624724 
L 292.695848 -101.794012 
L 295.052848 -103.650239 
L 311.317993 -110.058469 
L 325.949214 -112.036939 
L 332.379743 -111.376938 
L 339.524246 -111.977793 
L 349.090647 -115.745122 
L 354.972964 -122.198775 
L 364.937384 -126.694382 
L 363.955746 -129.55143 
L 360.893896 -132.122827 
L 359.370481 -134.84391 
L 362.915106 -141.674357 
L 365.195935 -143.06935 
L 369.914233 -142.85108 
L 373.398777 -140.482402 
L 382.28716 -139.000833 
L 387.316575 -141.62071 
L 390.73782 -144.449099 
L 391.929731 -146.620237 
L 403.697584 -147.431741 
L 408.913676 -150.438156 
L 409.762282 -151.549033 
L 409.363182 -152.786718 
L 413.049424 -157.302146 
L 415.605974 -158.433126 
L 421.033409 -158.085605 
L 421.618097 -160.611579 
L 423.427954 -160.991121 
L 425.809638 -160.008587 
L 430.702802 -162.399823 
L 435.385163 -161.854762 
L 436.697765 -162.901915 
L 441.580746 -161.087148 
L 445.350663 -160.85059 
L 447.159981 -161.653257 
L 447.596086 -164.472197 
L 445.556638 -167.550865 
L 441.217053 -170.56338 
L 441.509932 -171.285866 
L 439.680767 -171.892822 
L 439.157229 -173.474076 
L 435.876512 -174.590131 
L 433.539359 -177.068852 
L 425.491007 -177.386205 
L 421.27587 -173.347868 
L 415.683214 -176.007683 
L 409.681814 -175.849466 
L 406.262718 -173.737769 
L 402.745985 -176.40215 
L 402.107652 -179.020198 
L 405.074024 -180.326172 
L 405.078312 -183.724624 
L 407.442827 -186.521925 
L 414.253138 -198.978664 
L 426.217312 -195.271082 
L 434.599316 -200.527909 
L 439.242513 -200.905303 
L 441.57323 -202.157017 
L 441.992706 -205.084182 
L 439.718852 -205.695091 
L 443.446387 -209.75995 
L 443.667392 -211.739034 
L 445.980941 -213.706224 
L 446.202486 -215.39935 
L 447.795636 -216.76447 
L 449.713853 -220.648555 
L 455.393402 -223.610773 
L 456.75911 -226.048035 
L 455.170788 -228.752353 
L 456.186224 -231.057319 
L 453.383995 -232.200193 
L 449.494996 -231.621282 
L 449.01329 -233.635123 
L 457.746115 -239.764416 
L 461.163603 -239.724172 
L 472.719574 -242.311119 
L 478.355132 -242.050776 
L 486.188385 -243.105563 
L 499.224319 -237.733207 
L 499.510222 -238.647747 
L 501.337248 -238.962657 
L 507.022165 -237.192098 
L 508.186724 -236.242494 
L 507.282864 -235.100836 
L 509.26438 -235.35843 
L 510.713233 -233.686328 
L 511.86652 -233.809185 
L 510.857529 -231.579527 
L 513.156597 -230.949706 
L 513.032148 -230.171426 
L 514.593109 -229.107496 
L 514.229956 -228.391405 
L 515.512528 -227.908533 
L 514.240149 -227.017461 
L 516.723747 -226.20198 
L 515.512528 -224.635368 
L 518.484257 -221.224103 
L 517.978957 -219.665113 
L 520.39282 -217.476596 
L 519.350031 -216.272749 
L 521.044024 -216.684902 
L 520.624549 -213.614763 
L 524.315617 -209.924573 
L 525.143296 -207.880858 
L 524.332236 -206.562083 
L 525.054255 -205.961533 
L 524.765123 -204.936018 
L 527.463831 -203.526395 
L 526.384566 -201.366242 
L 526.924193 -198.585412 
L 530.20436 -196.166119 
L 533.77152 -195.624715 
L 538.687208 -196.479508 
L 540.034689 -195.933219 
L 539.60341 -194.821128 
L 543.290721 -193.380416 
L 545.632701 -193.290784 
L 546.024286 -194.280326 
L 547.082095 -194.235822 
L 547.821272 -192.692677 
L 549.475571 -192.500009 
L 551.710271 -189.568584 
L 554.568284 -187.880331 
L 559.47325 -187.741323 
L 557.97237 -184.737939 
L 558.975465 -183.156992 
L 560.351896 -183.19785 
L 561.038507 -181.216324 
L 559.477547 -178.221495 
L 561.888192 -176.101574 
L 562.249726 -174.139563 
L 563.096193 -173.718562 
L 567.196545 -174.430393 
L 569.115831 -173.473769 
L 578.680093 -174.0164 
L 580.236766 -176.88442 
L 581.599256 -176.714323 
L 584.568835 -178.726926 
L 589.057553 -178.593108 
L 591.274015 -180.429514 
L 598.004938 -181.966253 
L 601.455154 -180.574929 
L 599.800845 -177.579474 
L 602.014089 -174.054202 
L 599.775102 -171.227948 
L 595.900043 -169.532686 
L 596.353857 -167.057917 
L 594.712429 -165.447403 
L 594.148118 -161.716662 
L 592.394043 -159.423282 
L 593.308096 -158.480686 
L 592.576424 -157.873423 
L 592.98196 -156.925954 
L 590.749398 -155.543774 
L 590.445786 -153.097664 
L 588.568343 -151.747788 
L 588.568343 -149.477886 
L 585.48074 -147.898154 
L 584.639649 -143.343709 
L 582.796533 -142.401125 
L 572.910422 -144.832594 
L 571.708857 -146.055047 
L 567.35639 -141.615223 
L 562.162833 -140.204373 
L 563.537125 -138.320409 
L 565.599098 -130.913187 
L 564.521982 -124.761029 
L 565.769676 -122.961198 
L 563.66694 -118.85062 
L 563.923343 -117.418438 
L 556.699991 -115.353085 
L 558.410084 -114.013273 
L 557.983093 -112.935633 
L 557.678412 -113.883102 
L 557.170964 -113.158174 
L 555.200181 -115.037266 
L 554.954502 -117.321798 
L 551.225348 -118.428403 
L 549.394034 -111.896102 
L 547.648545 -111.037038 
L 545.624117 -111.932676 
L 544.106069 -110.431604 
L 544.285232 -109.271954 
L 541.4712 -107.094115 
L 532.07216 -106.603007 
L 532.20948 -105.07205 
L 534.85829 -101.761696 
L 533.229734 -99.318642 
L 531.727775 -100.433777 
L 527.958937 -99.95028 
L 522.730513 -101.03737 
L 523.198267 -101.782426 
L 520.604162 -104.329436 
L 519.138679 -103.089014 
L 518.005779 -103.561834 
L 518.508931 -103.152112 
L 516.838542 -102.124473 
L 516.372396 -99.030856 
L 512.237178 -95.769584 
L 511.034004 -93.690509 
L 508.471018 -93.529555 
L 504.862026 -90.534113 
L 500.833018 -89.384821 
L 501.000918 -88.520271 
L 499.487697 -88.7861 
L 491.616463 -81.220096 
L 487.836217 -80.93684 
L 486.629078 -82.130317 
L 485.95075 -80.535507 
L 484.251961 -79.854752 
L 484.141297 -81.009813 
L 482.428152 -80.921963 
L 482.128267 -79.301703 
L 479.906584 -79.31034 
L 472.442411 -75.42268 
L 469.870996 -71.986284 
L 467.634957 -71.709766 
L 468.096193 -70.699199 
L 466.573951 -71.637749 
L 465.148868 -70.574856 
L 466.279142 -69.664635 
L 461.508009 -68.904194 
L 460.914996 -67.989159 
L 460.240052 -68.546054 
L 460.275531 -70.614227 
L 466.048524 -72.320414 
L 465.175089 -74.397106 
L 468.839564 -75.993485 
L 464.510245 -75.583987 
L 463.577642 -77.282493 
L 461.370315 -77.518697 
L 464.58711 -78.623839 
L 463.937504 -80.841309 
L 468.121531 -82.978609 
L 467.634957 -83.345868 
L 472.564898 -89.006942 
L 470.993163 -90.20469 
L 471.086585 -91.357887 
L 467.885848 -92.899404 
L 468.060713 -94.82884 
L 466.728108 -93.097829 
L 462.802165 -94.166337 
L 458.863953 -92.835079 
L 458.423841 -91.817316 
L 459.266644 -91.567002 
L 457.238169 -91.03257 
L 454.335271 -87.827872 
L 454.807448 -87.413595 
L 453.570777 -85.608479 
L 443.850469 -81.791999 
L 443.799678 -80.893859 
L 440.456088 -78.001652 
L 441.211873 -78.065929 
L 441.191435 -75.812345 
L 437.52313 -72.822577 
L 437.979289 -73.562382 
L 436.980804 -73.804344 
L 431.295607 -71.646644 
L 428.201506 -73.874957 
L 424.956684 -72.595989 
L 425.577837 -71.058212 
L 424.816457 -71.226327 
L 423.172579 -66.813935 
L 424.963514 -63.949135 
L 428.587589 -61.171455 
L 437.772266 -60.630853 
L 440.985574 -56.130775 
L 439.01203 -56.423186 
L 437.979289 -54.686701 
L 437.888057 -51.173014 
L 439.801406 -49.7952 
L 446.289909 -49.476431 
L 447.605179 -50.627646 
L 447.206453 -51.934423 
L 452.018972 -55.146142 
L 450.909823 -55.755835 
L 456.332254 -57.524435 
L 460.483333 -55.957469 
L 460.833054 -54.493715 
L 463.136679 -55.028995 
L 464.97147 -52.742387 
L 466.069637 -52.86673 
L 465.148868 -53.036202 
L 465.643041 -53.363135 
L 469.307557 -52.70639 
L 470.696319 -54.324243 
L 471.333251 -52.618528 
L 476.575751 -52.520118 
L 475.137153 -51.457709 
L 475.959932 -49.959858 
L 474.143722 -49.505231 
L 473.608154 -47.938253 
L 475.037471 -48.012194 
L 474.698723 -46.481708 
L 473.643633 -46.766875 
L 473.961258 -46.159093 
L 472.751586 -45.595957 
L 471.355215 -45.914253 
L 472.19152 -46.481708 
L 471.155863 -47.85137 
L 469.774699 -46.481708 
L 469.941956 -47.448101 
L 468.66639 -47.609409 
L 468.910523 -46.964179 
L 465.668389 -45.695334 
L 465.541677 -44.621883 
L 464.204443 -45.024196 
L 465.354138 -45.855686 
L 463.820924 -45.663656 
L 463.221153 -44.291587 
L 459.295616 -42.775991 
L 456.462339 -43.16437 
L 456.458965 -42.266632 
L 457.497996 -43.019392 
L 458.673891 -42.35112 
L 458.531972 -41.304073 
L 457.675395 -40.336712 
L 457.046902 -41.360245 
L 456.083896 -40.944494 
L 456.16753 -39.786542 
L 455.352348 -39.691494 
L 455.987598 -37.729896 
L 455.187624 -37.261347 
L 452.340822 -36.368398 
L 451.702198 -36.617557 
L 452.424456 -38.147558 
L 451.851715 -39.122116 
L 451.624482 -37.962737 
L 449.679878 -38.557552 
L 450.490834 -35.811503 
L 451.773158 -35.569554 
L 449.679878 -34.716449 
L 448.701654 -32.67468 
L 447.718376 -32.876315 
L 447.680363 -31.457206 
L 445.016876 -30.977614 
L 444.015847 -28.571948 
L 442.691286 -27.786542 
L 442.007042 -25.233963 
L 440.293056 -24.093307 
L 440.286298 -20.763487 
L 442.881359 -21.091859 
L 445.014343 -18.588255 
L 451.339803 -15.968957 
L 453.692423 -8.160023 
L 457.969374 -0.651618 
L 457.290194 3.075701 
L 463.093539 6.765184 
L 463.403617 8.35367 
L 462.797089 8.574028 
L 463.653667 9.958096 
L 467.341497 11.655293 
L 468.622554 14.204887 
L 467.535213 14.953246 
L 462.024467 12.597818 
L 460.24601 13.709874 
L 458.821114 13.497137 
L 457.087458 11.040184 
L 455.256113 10.398353 
L 450.034664 11.977294 
L 448.588458 11.119882 
L 447.032439 7.778546 
L 444.652789 7.123713 
L 445.40546 7.856793 
L 444.58183 8.983538 
L 446.476597 8.963375 
L 446.309341 9.811194 
L 448.737528 11.893266 
L 451.058499 12.382002 
L 453.544588 11.010417 
L 456.459993 11.562546 
L 457.23275 13.327984 
L 456.263827 13.502978 
L 460.550307 15.02747 
L 466.578757 19.783289 
L 468.921121 23.316738 
L 469.01719 24.588887 
L 464.687197 25.270384 
L 459.032134 28.321103 
L 457.305329 31.302246 
L 455.918082 30.255718 
L 453.644778 30.142772 
L 453.13791 30.304221 
L 452.604906 31.676561 
L 451.348243 31.386817 
L 450.198008 32.55711 
L 451.51934 31.628259 
L 452.664623 31.958967 
L 453.347373 30.551751 
L 455.123557 30.508062 
L 456.294397 32.163964 
L 455.229259 33.459721 
L 455.755289 33.901948 
L 456.894852 34.124217 
L 455.379379 33.406026 
L 456.47111 32.24168 
L 457.938742 32.900383 
L 461.689019 30.793229 
L 463.510648 31.447059 
L 466.545229 35.369536 
L 468.762687 36.232717 
L 470.772157 36.038976 
L 466.186218 40.063733 
L 463.653667 40.516932 
L 464.084385 42.09434 
L 466.431192 40.346977 
L 467.480011 40.919481 
L 467.820805 40.375788 
L 466.784296 40.275927 
L 467.315298 39.616079 
L 469.132691 39.701759 
L 468.501666 40.513086 
L 469.130158 41.403155 
L 468.398611 43.178481 
L 469.343036 43.666238 
L 468.839564 44.391154 
L 467.203471 44.718948 
L 467.776876 42.940838 
L 467.21681 42.283609 
L 466.570079 44.554361 
L 465.824051 44.542739 
L 465.698793 43.084377 
L 465.57969 44.479004 
L 465.012866 43.102145 
L 463.292113 44.801135 
L 463.788828 45.12375 
L 463.221153 45.445398 
L 465.501973 45.365711 
L 465.432706 46.017171 
L 464.624282 45.980206 
L 464.574436 46.460282 
L 466.211556 46.500609 
L 466.153271 47.70848 
L 465.148868 47.137191 
L 464.976536 47.527021 
L 464.41647 47.216889 
L 464.156289 47.547184 
L 466.005436 48.762736 
L 465.501973 49.817947 
L 462.696567 50.101674 
L 460.528955 48.520774 
L 462.158466 49.971574 
L 461.733561 50.535182 
L 464.346631 50.748226 
L 465.088725 52.545933 
L 464.361568 52.725291 
L 465.359899 52.870235 
L 465.864368 54.497254 
L 465.129437 55.470373 
L 464.672187 54.703891 
L 463.296338 54.902918 
L 462.640815 56.787709 
L 461.767837 55.836488 
L 461.388646 55.68226 
L 461.798604 54.181848 
L 460.805183 53.960051 
L 460.403406 54.895414 
L 459.310823 54.906764 
L 460.346345 55.721702 
L 458.690437 58.652124 
L 454.962072 58.002305 
L 454.660495 57.136245 
L 454.479723 57.169846 
L 454.784674 58.185687 
L 457.341722 59.020068 
L 457.684965 59.886069 
L 456.172045 61.852257 
L 455.265341 61.292754 
L 455.684329 62.515986 
L 454.863719 63.570419 
L 455.750223 64.616805 
L 455.265341 65.818919 
L 453.912048 66.2289 
L 454.046369 67.92021 
L 453.12644 68.250033 
L 452.576505 67.511183 
L 452.275779 67.356129 
L 451.817087 67.440617 
L 451.908319 66.550559 
L 450.703702 66.785312 
L 450.564327 67.74019 
L 452.275779 67.436783 
L 453.048723 68.564955 
L 451.200417 68.732988 
L 451.320372 70.333568 
L 450.214595 70.512632 
L 450.945302 71.296598 
L 449.003232 71.479992 
L 450.001717 72.694588 
L 450.065919 74.474704 
L 447.084817 75.919262 
L 449.498255 72.694588 
L 447.894082 72.750748 
L 447.421864 74.36525 
L 446.509544 73.983585 
L 447.075517 72.042633 
L 446.140392 73.393099 
L 445.409685 72.516952 
L 445.816009 73.864055 
L 444.58183 72.694588 
L 444.021764 73.259152 
L 444.517628 75.367652 
L 446.438585 75.279801 
L 446.509544 77.220753 
L 445.076002 76.221229 
L 444.17044 76.730117 
L 445.021941 76.93607 
L 445.369129 78.35565 
L 446.862649 77.059929 
L 448.15173 77.791558 
L 445.082759 78.883262 
L 443.050308 82.303812 
L 442.812081 82.317251 
L 442.599214 81.987922 
L 441.167363 81.472793 
L 440.531272 80.916382 
L 439.261613 80.376783 
L 440.853122 82.483832 
L 441.714765 82.754605 
L 442.867844 82.524159 
L 443.6788 81.572171 
L 445.509356 82.066169 
L 444.17044 83.606742 
L 444.414573 85.788203 
L 442.952318 85.788203 
L 443.402561 87.232278 
L 444.305601 86.997525 
L 445.085302 89.670117 
L 444.305601 89.831425 
L 444.270121 88.381581 
L 443.307105 89.516491 
L 443.557154 88.298049 
L 442.931195 88.718602 
L 442.244417 86.924069 
L 441.458799 86.762761 
L 439.355388 88.936553 
L 440.402028 89.670117 
L 440.380063 90.83142 
L 441.174972 89.999445 
L 441.864282 91.035933 
L 440.944354 91.820289 
L 439.495999 91.373308 
L 439.319908 92.584187 
L 438.592575 92.237562 
L 439.005657 91.338384 
L 437.972532 91.224601 
L 438.574254 90.612831 
L 436.999384 91.018648 
L 438.027443 91.741641 
L 436.724848 93.024892 
L 437.810341 93.860229 
L 438.334086 93.302861 
L 438.474313 94.364302 
L 437.373613 94.444956 
L 437.792601 95.420481 
L 435.343684 95.741173 
L 434.841903 94.444956 
L 434.877382 95.374385 
L 433.848482 95.250054 
L 434.532727 96.584191 
L 435.830257 96.695567 
L 434.575805 97.686442 
L 434.351104 99.25821 
L 433.660953 99.581793 
L 432.387069 97.438724 
L 432.112532 98.536657 
L 430.183976 99.305746 
L 429.576597 97.512652 
L 429.056236 98.8031 
L 427.649734 99.172767 
L 428.51391 99.607714 
L 428.136308 100.434886 
L 425.743983 100.178519 
L 426.9486 101.152605 
L 428.356784 100.895754 
L 428.07549 101.837666 
L 428.850966 101.665327 
L 429.223493 102.602437 
L 426.9486 103.496341 
L 426.806682 105.363352 
L 425.295422 106.784867 
L 425.814943 105.436808 
L 424.454903 104.953854 
L 424.745498 106.241894 
L 423.672077 108.796184 
L 423.458109 106.83527 
L 421.854776 106.321109 
L 422.617486 107.669262 
L 420.409411 108.263499 
L 420.199097 110.229073 
L 419.912706 109.318239 
L 418.404716 110.996086 
L 418.240552 109.808379 
L 416.663814 109.673016 
L 415.176419 113.369613 
L 412.581151 112.554439 
L 413.098139 113.673492 
L 414.921179 113.642674 
L 415.504414 114.706487 
L 414.076352 114.173259 
L 414.573067 114.615887 
L 413.86364 115.569314 
L 413.497789 114.675717 
L 412.432475 114.730143 
L 413.425065 115.019911 
L 412.285148 118.207891 
L 409.367739 117.695098 
L 410.071769 117.989562 
L 408.654367 119.287785 
L 407.587227 118.283802 
L 407.940913 119.051251 
L 405.178232 120.488058 
L 403.872771 118.934353 
L 404.350791 118.268311 
L 402.588642 119.270229 
L 402.454332 118.7263 
L 400.984468 118.376809 
L 401.628168 119.270229 
L 402.576818 119.426263 
L 403.123369 119.101725 
L 402.240488 120.24087 
L 402.740837 121.40544 
L 400.647028 121.100559 
L 401.038363 119.990437 
L 399.192579 119.991134 
L 399.923473 118.636526 
L 396.61777 121.157993 
L 395.34289 120.28601 
L 396.423525 121.309272 
L 395.690026 122.830826 
L 394.110257 122.100742 
L 394.43684 119.665333 
L 391.808843 120.96155 
L 391.648385 121.662798 
L 392.517585 121.694147 
L 391.531763 122.66054 
L 392.801412 123.224632 
L 391.743977 123.950268 
L 390.497797 122.052286 
L 386.013875 122.941861 
L 385.251436 123.949454 
L 383.878358 120.401776 
L 382.988844 120.478583 
L 382.295309 119.294722 
L 382.634047 117.080604 
L 382.203226 118.457462 
L 382.416104 117.080604 
L 381.990348 118.215501 
L 382.061307 117.241911 
L 381.498708 117.364803 
L 382.052017 116.330722 
L 384.625964 116.106046 
L 380.343097 116.348007 
L 381.223559 117.251373 
L 381.033258 118.385929 
L 378.220254 118.61877 
L 381.139697 120.148772 
L 379.928323 120.236634 
L 382.228969 122.50453 
L 382.10944 126.484099 
L 381.030829 127.460297 
L 377.725231 122.499716 
L 380.181995 127.172039 
L 379.152005 127.128137 
L 377.643985 128.999301 
L 376.89231 126.841531 
L 376.275381 129.887424 
L 375.09168 130.986254 
L 374.203484 129.690308 
L 371.347392 131.970675 
L 370.051553 131.117582 
L 370.753538 129.690308 
L 369.684093 129.815607 
L 369.755052 128.482438 
L 369.330137 129.529968 
L 369.803196 131.633666 
L 368.600281 132.726314 
L 367.522387 132.204956 
L 367.628826 131.141108 
L 365.921587 131.681674 
L 366.057589 130.657185 
L 365.309994 131.36674 
L 364.491428 130.174231 
L 364.633347 131.470436 
L 365.631843 131.953391 
L 364.258288 133.105101 
L 363.917007 132.041725 
L 362.287495 131.872737 
L 363.4279 133.820897 
L 361.793313 134.837693 
L 361.288999 134.224153 
L 360.190832 135.029251 
L 359.735513 133.974995 
L 359.79549 134.787774 
L 358.02406 135.905387 
L 358.376313 135.197756 
L 356.166464 135.51269 
L 355.535438 134.70712 
L 355.038723 135.842018 
L 355.687488 135.372018 
L 355.961184 135.51269 
L 355.175576 136.076298 
L 352.842378 136.398913 
L 351.625107 138.016765 
L 351.47558 136.72056 
L 352.70976 136.211673 
L 352.757903 135.842018 
L 351.46629 136.593338 
L 351.47558 138.373466 
L 350.839489 138.178073 
L 350.979716 138.427715 
L 349.866341 138.526609 
L 349.344288 138.830016 
L 349.917028 137.130542 
L 349.37301 137.44596 
L 348.589925 135.948121 
L 349.01484 139.005729 
L 346.898744 140.248169 
L 346.495804 142.87227 
L 348.698896 142.87227 
L 349.118736 144.027331 
L 348.568811 144.247206 
L 348.416751 143.194885 
L 347.991005 145.135352 
L 350.413733 147.244807 
L 347.778127 149.902522 
L 345.261624 149.32787 
L 344.009715 150.063829 
L 343.444584 148.093595 
L 344.686351 148.739768 
L 344.970189 147.764255 
L 343.022201 146.793059 
L 343.293375 145.859784 
L 342.289813 144.93852 
L 343.420086 144.445961 
L 342.656433 144.733051 
L 342.372595 142.799297 
L 341.940082 143.356192 
L 341.352145 141.943796 
L 342.436797 136.889549 
L 344.080675 136.808895 
L 344.291861 135.271212 
L 342.94027 135.68071 
L 342.514514 134.224153 
L 342.514514 135.359063 
L 341.232191 134.948597 
L 341.516028 133.733518 
L 340.799677 134.303851 
L 340.65945 132.28273 
L 339.312085 133.249607 
L 340.433908 134.225605 
L 339.998011 135.288485 
L 337.031265 135.9966 
L 336.967063 135.359063 
L 335.928022 136.350905 
L 334.901665 135.776726 
L 335.968577 135.069578 
L 335.897618 133.974995 
L 333.740977 133.832412 
L 332.985773 133.007646 
L 333.700432 132.041725 
L 332.426558 131.433955 
L 332.864127 132.299048 
L 332.200165 132.525647 
L 333.049975 133.491557 
L 331.845369 133.974995 
L 331.63249 132.28273 
L 331.199977 132.766641 
L 330.846883 132.436829 
L 331.135786 131.470436 
L 330.279208 132.356175 
L 330.704964 130.584696 
L 330.059572 129.859296 
L 329.209763 130.986513 
L 328.862564 130.262081 
L 329.067844 132.847295 
L 329.977631 133.083498 
L 328.996885 134.458434 
L 328.152981 134.303851 
L 328.996885 133.168954 
L 327.6512 132.525647 
L 327.053963 134.661991 
L 326.298759 135.182394 
L 326.732123 134.145423 
L 326.247231 133.507886 
L 324.017109 134.618786 
L 324.944635 135.359063 
L 323.804231 135.9966 
L 322.153014 133.445791 
L 317.341917 134.017682 
L 316.558219 132.614159 
L 313.758138 131.525853 
L 313.825184 130.146717 
L 310.12715 129.657733 
L 310.229074 126.65619 
L 308.817226 124.119846 
L 309.338626 122.266982 
L 310.408237 122.454151 
L 311.546503 119.885196 
L 308.411161 118.372231 
L 305.998907 119.207202 
L 304.719023 117.78722 
L 301.83097 118.617319 
L 298.69295 116.788228 
L 296.207743 113.176379 
L 295.052848 114.495461 
L 291.618732 115.562742 
L 290.869891 116.482768 
L 291.136486 118.387463 
L 289.86144 119.636734 
L 288.333188 119.426699 
L 286.118335 121.192692 
L 285.045516 120.535428 
L 285.090566 119.564186 
L 283.488843 119.951644 
L 282.167116 123.307728 
L 278.922346 119.863239 
L 277.434867 122.430991 
L 275.421173 119.994331 
L 272.508446 124.215566 
L 266.682452 120.222653 
L 264.089965 124.445422 
L 261.774808 124.011938 
L 260.455759 124.821 
L 258.599772 123.640631 
L 256.800097 126.395847 
L 259.790604 133.704305 
L 259.088443 134.353629 
L 258.869586 137.300297 
L 259.997129 138.322768 
L 259.293888 139.398886 
L 256.819415 138.226434 
L 253.982858 138.813569 
L 252.306023 132.042869 
L 247.52014 135.554739 
L 244.615997 134.831628 
L 242.753034 135.940676 
L 241.959672 134.588971 
L 242.548658 133.362258 
L 240.549973 132.580628 
L 240.468447 128.753553 
L 232.185677 127.479281 
L 234.399991 123.444908 
L 233.882889 120.498853 
L 234.977174 118.309428 
L 236.271009 118.360338 
L 235.804323 116.815364 
L 234.151093 115.963002 
L 232.934508 116.815364 
L 229.222523 115.375868 
L 229.540086 112.692893 
L 228.411463 111.205531 
L 229.191413 110.29525 
L 228.539129 108.543593 
L 227.194878 108.089662 
L 227.144461 106.152651 
L 229.292258 103.975119 
L 226.3806 104.800652 
L 221.396246 104.496112 
L 216.409743 107.502527 
L 215.286497 106.368491 
L 217.399967 103.954389 
L 216.64469 100.593126 
L 215.253239 100.519351 
L 215.455996 97.159916 
L 217.86879 95.84632 
L 217.187545 93.128588 
L 218.239988 91.091893 
L 219.370749 91.446741 
L 220.771864 90.215155 
L 221.759938 86.681341 
L 223.545122 87.318477 
L 225.476211 84.094393 
L 227.470598 83.683455 
L 225.968639 80.850795 
L 227.629374 80.033191 
L 226.971734 79.094252 
L 228.148625 74.722717 
L 227.356882 63.487205 
L 224.564306 62.225746 
L 224.284299 63.741448 
L 223.36489 63.967647 
L 221.417702 58.818139 
L 221.537863 56.839362 
L 219.242013 54.308197 
L 217.869859 54.342342 
L 216.885003 52.468134 
L 215.403431 52.252908 
L 214.574132 54.989235 
L 213.283526 55.934568 
L 210.739847 54.074377 
L 209.570461 54.601469 
L 206.987161 53.350004 
L 202.678613 53.536749 
L 205.696482 49.558654 
L 204.295367 46.765931 
L 203.350381 46.271001 
L 201.572816 47.396932 
L 201.357966 45.417884 
L 203.346987 43.667146 
L 201.987715 43.856144 
L 201.018958 42.354765 
L 196.896081 42.685533 
L 196.60942 44.126681 
L 195.023994 43.804326 
L 194.226241 45.888061 
L 192.978837 46.271485 
L 186.845827 44.735336 
L 185.012364 42.966299 
L 181.769203 44.95665 
L 182.390004 46.414799 
L 178.701987 48.534968 
L 178.035232 50.44509 
L 173.036388 50.573197 
L 171.69689 51.380571 
L 170.338283 53.403616 
L 170.561863 54.482648 
L 165.068493 56.930516 
L 164.656532 57.822202 
L 165.668274 58.666707 
L 165.121048 59.557 
L 161.178425 61.023421 
L 160.51112 60.089969 
L 157.528659 61.747133 
L 150.656128 57.421931 
L 148.183264 58.939473 
L 144.192341 57.434732 
L 142.196885 57.646914 
L 143.3646 55.747918 
L 140.289391 55.416938 
L 139.605551 54.271929 
L 136.39327 54.776876 
L 132.712011 56.911922 
L 126.659053 64.042354 
L 126.592277 66.613197 
L 124.390087 65.165701 
L 125.366899 60.344825 
L 124.991404 58.560852 
L 122.84039 57.251822 
L 117.704754 59.122679 
L 117.730508 60.141787 
L 114.808127 59.582096 
L 113.667712 60.768564 
L 109.954647 60.813681 
L 109.899933 60.208247 
L 107.740334 60.55578 
L 102.80211 57.253049 
L 101.488968 57.271643 
L 100.157588 59.563195 
L 97.850475 58.470004 
L 97.361794 56.653715 
L 96.456336 57.594777 
L 96.914426 59.364121 
L 95.537985 59.85524 
L 92.555524 54.54538 
L 91.713354 55.537352 
L 86.26983 54.912416 
L 87.033681 51.480421 
L 85.93296 50.964926 
L 83.410748 52.105971 
L 79.662287 49.841862 
L 77.128262 47.402147 
L 77.384675 46.395545 
L 75.913825 43.674461 
L 74.093774 43.287604 
L 71.2379 44.876173 
L 70.038484 44.535967 
L 66.403738 39.372124 
L 65.276205 39.873295 
L 64.351958 38.867602 
L 62.905783 38.917591 
L 59.846082 35.809356 
L 55.818683 34.217436 
L 55.143344 31.009198 
L 50.215303 29.98491 
L 49.129073 31.029326 
L 47.86421 30.492181 
L 47.475303 33.048642 
L 46.092427 34.807013 
L 44.856534 34.703966 
L 43.59274 31.892649 
L 39.651704 29.478854 
L 35.328209 28.302756 
L 35.863549 26.350502 
L 35.092193 25.5457 
L 34.110554 25.644464 
L 31.733167 23.559301 
L 29.078991 23.832445 
L 27.249816 22.826445 
L 24.445126 17.932525 
L 23.809991 17.661776 
L 22.261238 19.923478 
L 20.435218 19.470054 
L 19.962097 17.087962 
L 21.201218 15.939295 
L 19.664921 14.014473 
L 20.429851 11.729328 
L 17.454905 8.597307 
L 16.695341 4.846756 
L 20.349394 3.875808 
L 20.708789 5.860071 
L 22.493973 7.220306 
L 23.862899 6.932225 
L 24.253414 5.733557 
L 26.407709 4.319156 
L 27.6848 4.997492 
L 29.52393 2.709173 
L 26.543897 -0.424087 
L 27.815581 -3.445734 
L 24.098748 -3.885294 
L 20.811782 -7.013398 
L 20.186321 -12.223573 
L 20.27966 -13.225008 
L 22.834061 -14.851981 
L 22.834061 -15.937549 
L 19.599484 -18.500723 
L 15.773783 -19.65976 
L 12.713003 -27.260865 
L 13.16037 -29.888659 
L 11.487833 -29.17409 
L 10.628494 -29.933174 
L 6.30393 -29.656974 
L 1.438658 -30.968434 
L -2.134938 -32.951789 
L -2.4836 -34.736376 
L -6.336133 -33.600499 
L -7.125727 -35.628357 
L -9.097589 -36.635584 
L -7.909965 -38.604899 
L -8.302618 -41.344883 
L -9.618978 -43.493462 
L -11.694902 -44.782978 
L -13.956425 -44.415942 
L -15.185882 -46.844367 
L -17.400205 -47.615627 
L -19.76471 -46.588896 
L -20.59294 -47.863782 
L -23.190253 -47.940601 
L -24.848849 -49.178286 
L -21.331047 -51.198216 
L -20.577919 -50.208981 
L -19.557656 -50.411712 
L -16.736119 -52.41182 
L -19.561953 -54.754589 
L -18.80131 -56.73976 
L -20.612247 -60.444286 
L -20.144492 -64.853622 
L -25.350931 -67.352778 
L -27.539502 -67.382038 
L -28.520061 -65.703849 
L -30.7258 -66.404083 
L -32.133351 -69.783032 
L -30.624946 -71.009131 
z
" clip-path="url(#p8277f2e7b9)" style="fill: #eeeeee; stroke: #000000; stroke-width: 0.3"/>
    <path d="M 330.616265 161.441654 
L 334.576431 157.641361 
L 337.679189 156.295709 
L 337.324393 155.322107 
L 336.183988 156.134401 
L 337.136863 154.086875 
L 340.526822 154.589994 
L 339.959158 153.461337 
L 341.951915 152.761859 
L 343.160746 153.703287 
L 344.27328 152.9947 
L 344.76576 153.997102 
L 346.498337 152.092631 
L 348.447165 152.202568 
L 349.204902 153.791149 
L 348.844199 151.931324 
L 351.157114 153.794028 
L 350.745724 152.067194 
L 351.905561 150.957733 
L 353.051882 152.764737 
L 354.569889 152.945725 
L 355.35804 156.618323 
L 353.966734 158.317313 
L 353.115233 157.591914 
L 353.133824 158.968301 
L 350.892709 162.855005 
L 349.842685 162.688895 
L 350.629144 163.655289 
L 350.912981 162.915495 
L 350.197482 165.790193 
L 349.347661 166.792112 
L 349.984604 167.126725 
L 350.094426 166.079206 
L 350.416266 167.21506 
L 345.223612 170.444063 
L 345.286973 171.974065 
L 344.542751 171.884775 
L 345.010734 171.659615 
L 345.081693 171.168979 
L 342.233209 171.813242 
L 342.084533 173.263073 
L 341.447601 173.263073 
L 342.16225 173.43159 
L 341.845476 174.039359 
L 340.313954 174.486317 
L 340.313954 173.43159 
L 339.457377 174.210754 
L 339.055277 173.074889 
L 336.176379 173.088328 
L 335.900151 172.223235 
L 331.217717 170.40566 
z
" clip-path="url(#p8277f2e7b9)" style="fill: #eeeeee; stroke: #000000; stroke-width: 0.3"/>
    <path d="M 461.744543 -75.900833 
L 462.586755 -76.960846 
L 463.437415 -76.880192 
L 463.428966 -75.690562 
L 462.548742 -75.734251 
L 462.832569 -76.537414 
z
" clip-path="url(#p8277f2e7b9)" style="fill: #eeeeee; stroke: #000000; stroke-width: 0.3"/>
    <path d="M 460.881291 13.851584 
L 462.399671 13.320563 
L 467.813082 15.932535 
L 469.201709 17.468401 
L 467.888848 17.923723 
L 464.984144 16.859687 
z
" clip-path="url(#p8277f2e7b9)" style="fill: #eeeeee; stroke: #000000; stroke-width: 0.3"/>
    <path d="M 445.229754 88.139632 
L 446.370158 87.736363 
L 445.481485 86.884709 
L 446.216417 86.114664 
L 447.07806 87.567859 
L 446.152215 89.118024 
z
" clip-path="url(#p8277f2e7b9)" style="fill: #eeeeee; stroke: #000000; stroke-width: 0.3"/>
    <path d="M 445.724767 8.090118 
L 446.743536 8.055549 
L 447.652482 10.441051 
L 446.512077 9.870234 
L 446.795914 8.902885 
z
" clip-path="url(#p8277f2e7b9)" style="fill: #eeeeee; stroke: #000000; stroke-width: 0.3"/>
    <path d="M 440.462845 80.93415 
L 440.964626 81.536163 
L 442.455603 82.143944 
L 442.494467 82.357577 
L 440.964626 82.080091 
z
" clip-path="url(#p8277f2e7b9)" style="fill: #eeeeee; stroke: #000000; stroke-width: 0.3"/>
    <path d="M 432.877421 -71.787352 
L 433.72066 -71.318567 
L 434.644688 -71.808506 
L 434.079848 -70.953667 
L 432.896033 -70.512679 
z
" clip-path="url(#p8277f2e7b9)" style="fill: #eeeeee; stroke: #000000; stroke-width: 0.3"/>
    <path d="M 373.016618 132.800254 
L 374.390173 131.953391 
L 374.042975 134.136303 
L 373.569075 134.224153 
L 373.667916 132.927948 
z
" clip-path="url(#p8277f2e7b9)" style="fill: #eeeeee; stroke: #000000; stroke-width: 0.3"/>
    <path d="M 347.420798 141.253934 
L 348.915158 139.957717 
L 350.552278 140.649514 
L 350.234653 141.824739 
L 349.450727 141.020137 
z
" clip-path="url(#p8277f2e7b9)" style="fill: #eeeeee; stroke: #000000; stroke-width: 0.3"/>
    <path d="M 476.033425 -74.045821 
L 476.890843 -74.135595 
L 477.133284 -74.06694 
L 476.601089 -73.562382 
z
" clip-path="url(#p8277f2e7b9)" style="fill: #eeeeee; stroke: #000000; stroke-width: 0.3"/>
    <path d="M 472.313166 32.124699 
L 472.794664 31.692631 
L 473.663906 31.766076 
L 472.601218 32.07045 
z
" clip-path="url(#p8277f2e7b9)" style="fill: #eeeeee; stroke: #000000; stroke-width: 0.3"/>
    <path d="M 469.773007 38.078137 
L 470.546792 37.385867 
L 471.371274 38.756968 
L 471.122916 38.979722 
z
" clip-path="url(#p8277f2e7b9)" style="fill: #eeeeee; stroke: #000000; stroke-width: 0.3"/>
    <path d="M 469.049058 33.2236 
L 472.830995 34.614853 
L 472.479572 35.684954 
L 469.629407 34.936512 
z
" clip-path="url(#p8277f2e7b9)" style="fill: #eeeeee; stroke: #000000; stroke-width: 0.3"/>
    <path d="M 460.300869 56.899557 
L 461.444938 55.907963 
L 461.948972 57.492461 
L 460.624743 58.013985 
z
" clip-path="url(#p8277f2e7b9)" style="fill: #eeeeee; stroke: #000000; stroke-width: 0.3"/>
    <path d="M 441.212984 88.198199 
L 441.887939 87.209235 
L 441.767985 88.728206 
L 441.372643 88.90583 
z
" clip-path="url(#p8277f2e7b9)" style="fill: #eeeeee; stroke: #000000; stroke-width: 0.3"/>
    <path d="M 428.637248 100.263491 
L 428.871239 99.131472 
L 429.7937 99.38063 
L 429.327399 100.629312 
z
" clip-path="url(#p8277f2e7b9)" style="fill: #eeeeee; stroke: #000000; stroke-width: 0.3"/>
    <path d="M 420.8571 110.719886 
L 421.399457 108.445937 
L 422.997278 108.760282 
L 422.010096 110.618255 
z
" clip-path="url(#p8277f2e7b9)" style="fill: #eeeeee; stroke: #000000; stroke-width: 0.3"/>
    <path d="M 378.830156 127.874656 
L 379.795705 127.42771 
L 379.265202 128.389301 
L 378.907032 128.409465 
z
" clip-path="url(#p8277f2e7b9)" style="fill: #eeeeee; stroke: #000000; stroke-width: 0.3"/>
    <path d="M 371.082986 134.023487 
L 371.39977 133.0883 
L 372.328148 132.67879 
L 372.380517 133.532851 
z
" clip-path="url(#p8277f2e7b9)" style="fill: #eeeeee; stroke: #000000; stroke-width: 0.3"/>
    <path d="M 349.204902 138.983643 
L 350.629144 139.240009 
L 351.272844 138.830016 
L 350.507508 139.850658 
z
" clip-path="url(#p8277f2e7b9)" style="fill: #eeeeee; stroke: #000000; stroke-width: 0.3"/>
    <path d="M 481.302103 -72.235926 
L 481.841897 -71.896027 
L 481.479502 -71.626705 
z
" clip-path="url(#p8277f2e7b9)" style="fill: #eeeeee; stroke: #000000; stroke-width: 0.3"/>
    <path d="M 479.705539 -77.764976 
L 480.227593 -77.531663 
L 479.871104 -77.149042 
z
" clip-path="url(#p8277f2e7b9)" style="fill: #eeeeee; stroke: #000000; stroke-width: 0.3"/>
    <path d="M 474.674225 -74.785131 
L 476.115366 -74.567663 
L 475.516437 -74.325702 
z
" clip-path="url(#p8277f2e7b9)" style="fill: #eeeeee; stroke: #000000; stroke-width: 0.3"/>
    <path d="M 473.866653 26.598528 
L 473.894524 26.136692 
L 474.878654 26.623493 
z
" clip-path="url(#p8277f2e7b9)" style="fill: #eeeeee; stroke: #000000; stroke-width: 0.3"/>
    <path d="M 473.114822 -73.589743 
L 473.610697 -73.804344 
L 473.610697 -73.159114 
z
" clip-path="url(#p8277f2e7b9)" style="fill: #eeeeee; stroke: #000000; stroke-width: 0.3"/>
    <path d="M 472.809871 35.447311 
L 473.653775 35.461717 
L 473.533821 36.870266 
z
" clip-path="url(#p8277f2e7b9)" style="fill: #eeeeee; stroke: #000000; stroke-width: 0.3"/>
    <path d="M 472.26332 29.759832 
L 472.338505 29.209674 
L 473.823564 30.008035 
z
" clip-path="url(#p8277f2e7b9)" style="fill: #eeeeee; stroke: #000000; stroke-width: 0.3"/>
    <path d="M 471.836724 36.835697 
L 472.246421 36.71087 
L 472.632473 37.543328 
z
" clip-path="url(#p8277f2e7b9)" style="fill: #eeeeee; stroke: #000000; stroke-width: 0.3"/>
    <path d="M 470.195379 31.465547 
L 471.626378 30.814088 
L 471.531773 32.049331 
z
" clip-path="url(#p8277f2e7b9)" style="fill: #eeeeee; stroke: #000000; stroke-width: 0.3"/>
    <path d="M 468.81845 35.638858 
L 469.353168 35.985954 
L 468.87251 36.036852 
z
" clip-path="url(#p8277f2e7b9)" style="fill: #eeeeee; stroke: #000000; stroke-width: 0.3"/>
    <path d="M 468.063246 44.962927 
L 468.669774 44.734888 
L 468.276114 45.848666 
z
" clip-path="url(#p8277f2e7b9)" style="fill: #eeeeee; stroke: #000000; stroke-width: 0.3"/>
    <path d="M 467.716048 34.372903 
L 468.502507 34.619183 
L 467.979612 35.162144 
z
" clip-path="url(#p8277f2e7b9)" style="fill: #eeeeee; stroke: #000000; stroke-width: 0.3"/>
    <path d="M 467.295368 18.75407 
L 468.205165 19.133812 
L 467.716048 19.653731 
z
" clip-path="url(#p8277f2e7b9)" style="fill: #eeeeee; stroke: #000000; stroke-width: 0.3"/>
    <path d="M 467.176254 45.231281 
L 467.249757 44.934115 
L 467.792083 45.580784 
z
" clip-path="url(#p8277f2e7b9)" style="fill: #eeeeee; stroke: #000000; stroke-width: 0.3"/>
    <path d="M 465.118454 17.897614 
L 466.226763 18.159726 
L 467.006465 19.32248 
z
" clip-path="url(#p8277f2e7b9)" style="fill: #eeeeee; stroke: #000000; stroke-width: 0.3"/>
    <path d="M 460.06856 60.649931 
L 460.234976 60.339315 
L 460.82884 60.638404 
z
" clip-path="url(#p8277f2e7b9)" style="fill: #eeeeee; stroke: #000000; stroke-width: 0.3"/>
    <path d="M 459.779657 58.702255 
L 460.501073 58.904361 
L 460.123471 59.135279 
z
" clip-path="url(#p8277f2e7b9)" style="fill: #eeeeee; stroke: #000000; stroke-width: 0.3"/>
    <path d="M 459.530002 64.81024 
L 460.124333 64.967382 
L 459.749596 65.145656 
z
" clip-path="url(#p8277f2e7b9)" style="fill: #eeeeee; stroke: #000000; stroke-width: 0.3"/>
    <path d="M 458.085103 -64.114938 
L 458.198299 -64.149023 
L 458.268408 -64.047734 
z
" clip-path="url(#p8277f2e7b9)" style="fill: #eeeeee; stroke: #000000; stroke-width: 0.3"/>
    <path d="M 457.051978 -63.080373 
L 457.325674 -63.171103 
L 457.351012 -63.073176 
z
" clip-path="url(#p8277f2e7b9)" style="fill: #eeeeee; stroke: #000000; stroke-width: 0.3"/>
    <path d="M 456.380397 -61.696306 
L 456.698022 -61.367933 
L 456.564553 -61.494683 
z
" clip-path="url(#p8277f2e7b9)" style="fill: #eeeeee; stroke: #000000; stroke-width: 0.3"/>
    <path d="M 456.170062 -58.52876 
L 456.532457 -58.57101 
L 456.503735 -58.26424 
z
" clip-path="url(#p8277f2e7b9)" style="fill: #eeeeee; stroke: #000000; stroke-width: 0.3"/>
    <path d="M 455.815266 -59.309364 
L 455.97999 -59.361218 
L 456.14979 -59.058767 
z
" clip-path="url(#p8277f2e7b9)" style="fill: #eeeeee; stroke: #000000; stroke-width: 0.3"/>
    <path d="M 454.918994 -59.12118 
L 455.167341 -59.159584 
L 455.136938 -58.879219 
z
" clip-path="url(#p8277f2e7b9)" style="fill: #eeeeee; stroke: #000000; stroke-width: 0.3"/>
    <path d="M 452.251282 70.629766 
L 452.674495 71.063757 
L 452.330691 71.198176 
z
" clip-path="url(#p8277f2e7b9)" style="fill: #eeeeee; stroke: #000000; stroke-width: 0.3"/>
    <path d="M 444.041195 80.968708 
L 444.512562 80.585614 
L 444.730506 81.339814 
z
" clip-path="url(#p8277f2e7b9)" style="fill: #eeeeee; stroke: #000000; stroke-width: 0.3"/>
    <path d="M 442.906697 91.192922 
L 443.173635 90.920238 
L 443.781855 91.944715 
z
" clip-path="url(#p8277f2e7b9)" style="fill: #eeeeee; stroke: #000000; stroke-width: 0.3"/>
    <path d="M 416.938621 112.41831 
L 417.345516 112.071473 
L 418.867187 112.780437 
z
" clip-path="url(#p8277f2e7b9)" style="fill: #eeeeee; stroke: #000000; stroke-width: 0.3"/>
    <path d="M 416.866551 111.173734 
L 417.403811 111.308637 
L 416.879215 111.283188 
z
" clip-path="url(#p8277f2e7b9)" style="fill: #eeeeee; stroke: #000000; stroke-width: 0.3"/>
    <path d="M 388.535444 128.986512 
L 389.547455 128.473317 
L 389.529715 128.761363 
z
" clip-path="url(#p8277f2e7b9)" style="fill: #eeeeee; stroke: #000000; stroke-width: 0.3"/>
    <path d="M 383.652193 129.324205 
L 383.944896 129.682215 
L 383.775999 129.611778 
z
" clip-path="url(#p8277f2e7b9)" style="fill: #eeeeee; stroke: #000000; stroke-width: 0.3"/>
    <path d="M 382.345965 124.414015 
L 382.837822 124.291147 
L 382.457511 124.672612 
z
" clip-path="url(#p8277f2e7b9)" style="fill: #eeeeee; stroke: #000000; stroke-width: 0.3"/>
    <path d="M 381.302947 118.421867 
L 381.755931 118.539084 
L 381.666816 118.908609 
z
" clip-path="url(#p8277f2e7b9)" style="fill: #eeeeee; stroke: #000000; stroke-width: 0.3"/>
    <path d="M 381.040857 128.448824 
L 381.395653 127.7892 
L 381.693847 128.198227 
z
" clip-path="url(#p8277f2e7b9)" style="fill: #eeeeee; stroke: #000000; stroke-width: 0.3"/>
    <path d="M 380.955739 120.801623 
L 382.608024 121.545381 
L 382.671811 122.192534 
z
" clip-path="url(#p8277f2e7b9)" style="fill: #eeeeee; stroke: #000000; stroke-width: 0.3"/>
    <path d="M 380.121769 118.694622 
L 380.946251 118.663899 
L 381.80451 120.348967 
z
" clip-path="url(#p8277f2e7b9)" style="fill: #eeeeee; stroke: #000000; stroke-width: 0.3"/>
    <path d="M 379.221273 129.006203 
L 379.981543 128.233751 
L 380.221451 129.207837 
z
" clip-path="url(#p8277f2e7b9)" style="fill: #eeeeee; stroke: #000000; stroke-width: 0.3"/>
    <path d="M 378.353723 130.460837 
L 378.580957 129.961069 
L 378.692462 130.701347 
z
" clip-path="url(#p8277f2e7b9)" style="fill: #eeeeee; stroke: #000000; stroke-width: 0.3"/>
    <path d="M 373.157685 192.220848 
L 373.167827 192.187718 
L 373.24216 192.222287 
z
" clip-path="url(#p8277f2e7b9)" style="fill: #eeeeee; stroke: #000000; stroke-width: 0.3"/>
    <path d="M 369.111353 189.18148 
L 369.169638 189.144032 
L 369.163721 189.184358 
z
" clip-path="url(#p8277f2e7b9)" style="fill: #eeeeee; stroke: #000000; stroke-width: 0.3"/>
    <path d="M 369.025186 190.291412 
L 369.032784 190.204517 
L 369.111353 190.25781 
z
" clip-path="url(#p8277f2e7b9)" style="fill: #eeeeee; stroke: #000000; stroke-width: 0.3"/>
    <path d="M 363.650068 134.417151 
L 363.919539 133.491557 
L 365.627619 133.760406 
z
" clip-path="url(#p8277f2e7b9)" style="fill: #eeeeee; stroke: #000000; stroke-width: 0.3"/>
    <path d="M 363.066346 199.554023 
L 363.06973 199.521377 
L 363.152512 199.506983 
z
" clip-path="url(#p8277f2e7b9)" style="fill: #eeeeee; stroke: #000000; stroke-width: 0.3"/>
    <path d="M 362.295934 193.224689 
L 362.324657 193.235733 
L 362.310301 193.25973 
z
" clip-path="url(#p8277f2e7b9)" style="fill: #eeeeee; stroke: #000000; stroke-width: 0.3"/>
    <path d="M 361.506943 193.788298 
L 361.577061 193.848304 
L 361.542422 193.89584 
z
" clip-path="url(#p8277f2e7b9)" style="fill: #eeeeee; stroke: #000000; stroke-width: 0.3"/>
    <path d="M 357.286596 202.609237 
L 357.403166 202.566987 
L 357.403166 202.651003 
z
" clip-path="url(#p8277f2e7b9)" style="fill: #eeeeee; stroke: #000000; stroke-width: 0.3"/>
    <path d="M 350.552278 142.059975 
L 351.434194 141.836266 
L 350.984781 142.463727 
z
" clip-path="url(#p8277f2e7b9)" style="fill: #eeeeee; stroke: #000000; stroke-width: 0.3"/>
    <path d="M 349.204061 145.16224 
L 349.808056 145.856433 
L 349.615451 145.963492 
z
" clip-path="url(#p8277f2e7b9)" style="fill: #eeeeee; stroke: #000000; stroke-width: 0.3"/>
    <path d="M 335.427933 140.594298 
L 335.762457 140.317296 
L 335.813984 140.709521 
z
" clip-path="url(#p8277f2e7b9)" style="fill: #eeeeee; stroke: #000000; stroke-width: 0.3"/>
    <path d="M 124.333764 67.790451 
L 126.852675 66.395116 
L 126.659053 64.042354 
L 132.712011 56.911922 
L 136.39327 54.776876 
L 139.605551 54.271929 
L 140.289391 55.416938 
L 143.3646 55.747918 
L 142.196885 57.646914 
L 144.192341 57.434732 
L 148.183264 58.939473 
L 150.656128 57.421931 
L 154.26619 59.211391 
L 153.502246 60.254025 
L 154.243551 61.066308 
L 153.820971 63.852412 
L 155.191495 64.872264 
L 158.269299 65.027554 
L 158.945863 66.849696 
L 157.896638 69.071436 
L 158.779582 71.623012 
L 156.91501 71.698616 
L 156.764808 72.622925 
L 156.209081 71.968717 
L 153.048536 72.686943 
L 152.005747 71.814465 
L 150.722645 72.958258 
L 144.707294 73.047277 
L 140.884812 71.518148 
L 138.584135 73.232004 
L 135.329711 73.883782 
L 130.430101 72.017491 
L 127.885354 72.40587 
L 125.914571 70.521905 
L 125.344364 70.942588 
z
" clip-path="url(#p8277f2e7b9)" style="fill: #eeeeee; stroke: #000000; stroke-width: 0.3"/>
    <path d="M 116.729562 98.076898 
L 117.69618 94.881779 
L 119.853631 95.374114 
L 121.084167 91.657082 
L 126.096412 91.914983 
L 126.72724 90.533416 
L 125.24352 89.968829 
L 124.520432 87.973287 
L 122.007874 87.994016 
L 119.201357 84.586421 
L 117.412416 84.091337 
L 118.203618 80.439857 
L 121.668855 77.935829 
L 121.290152 76.742045 
L 119.774243 76.610352 
L 120.502697 74.740403 
L 123.315649 77.199315 
L 123.896579 78.224216 
L 123.389671 78.977201 
L 127.085566 79.330822 
L 125.754726 77.545621 
L 126.271288 76.912756 
L 127.337682 77.601109 
L 128.12084 80.367309 
L 130.364124 82.114094 
L 132.506565 82.572579 
L 133.229653 81.245274 
L 132.725422 80.414868 
L 133.662 79.46983 
L 135.485269 82.340293 
L 135.385494 90.533416 
L 141.048954 92.125938 
L 150.090748 91.513201 
L 154.273705 92.432011 
L 158.377264 91.752201 
L 163.046214 94.742464 
L 161.976603 95.82224 
L 160.339473 95.177175 
L 159.141125 100.904072 
L 156.984734 101.705524 
L 156.748718 103.829397 
L 155.252126 102.929795 
L 154.948514 104.007435 
L 154.17393 103.153551 
L 153.683651 104.56013 
L 151.412474 104.515921 
L 149.017919 108.98989 
L 150.89859 116.300164 
L 151.494001 116.751653 
L 151.737542 114.393334 
L 153.727632 118.147554 
L 155.902251 116.436436 
L 155.363693 114.279327 
L 157.409576 111.649999 
L 157.221829 108.962447 
L 158.221706 109.940709 
L 159.589562 108.860025 
L 160.041227 109.845296 
L 160.716037 109.156943 
L 161.759895 118.358203 
L 163.171732 121.083557 
L 164.602887 137.759407 
L 163.947396 138.17156 
L 163.468908 136.828398 
L 161.373677 135.639487 
L 159.874936 137.552712 
L 161.403437 144.171837 
L 157.536195 135.876103 
L 158.32856 132.77241 
L 157.857193 133.418584 
L 157.920554 131.711429 
L 156.978661 131.774327 
L 157.502407 130.657185 
L 156.083231 127.163178 
L 157.069893 124.27936 
L 155.8146 126.483391 
L 154.661521 122.983155 
L 152.444063 120.301443 
L 152.735499 118.61877 
L 150.93872 121.064762 
L 149.532218 120.719589 
L 150.389636 121.730144 
L 149.748625 122.881606 
L 148.570032 122.86733 
L 147.83428 121.231344 
L 148.037868 122.34609 
L 147.039372 122.378252 
L 143.797238 116.73254 
L 144.190888 114.334555 
L 143.49482 112.183817 
L 144.685911 111.612528 
L 144.694361 111.178536 
L 143.572537 111.697971 
L 143.616466 110.341276 
L 142.208272 110.614444 
L 143.251538 111.127166 
L 142.993039 112.950499 
L 139.852279 112.11948 
L 143.604632 114.769514 
L 143.200851 116.528038 
L 143.063998 116.186699 
L 141.972588 116.638931 
L 141.923594 116.834796 
L 142.124638 117.538593 
L 142.562217 118.457462 
L 142.869711 118.712862 
L 142.208272 118.859764 
L 141.131218 120.3072 
L 142.380605 120.914982 
L 141.852634 123.466593 
L 142.704136 122.411382 
L 143.560714 123.795438 
L 143.348676 123.707587 
L 143.631673 125.575565 
L 143.055549 126.891462 
L 141.503754 128.276957 
L 141.640597 126.944271 
L 141.35677 125.890016 
L 140.09472 130.973075 
L 138.228674 131.293283 
L 138.57417 130.093577 
L 137.517399 130.913541 
L 139.74584 127.258238 
L 137.659317 129.449315 
L 137.809675 127.45651 
L 136.583104 129.317775 
L 135.985026 126.0494 
L 137.368723 123.50692 
L 135.944481 124.351849 
L 135.928433 128.206875 
L 135.158862 128.394103 
L 136.022197 130.657185 
L 134.244851 131.29569 
L 133.599459 130.174231 
L 134.156992 131.829059 
L 132.976043 132.820418 
L 132.357681 131.499236 
L 133.386581 125.326407 
L 132.415125 129.471389 
L 132.459055 128.240476 
L 131.822113 125.809362 
L 132.300247 129.735437 
L 131.719058 131.870825 
L 130.720572 132.319211 
L 130.900503 130.456519 
L 130.539789 129.617335 
L 129.972125 133.0883 
L 129.068245 133.371544 
L 128.83171 131.514597 
L 127.970077 131.463239 
L 127.674552 127.225651 
L 126.136117 122.823629 
L 126.307764 119.285555 
L 125.210261 117.77777 
L 126.46815 115.100895 
L 123.734046 114.514976 
L 124.497907 111.72499 
L 122.124807 109.955953 
L 122.499222 107.402843 
L 123.916426 106.577004 
L 123.542011 103.873606 
L 124.158888 102.306687 
L 121.438195 101.971955 
L 117.644684 99.783144 
z
" clip-path="url(#p8277f2e7b9)" style="fill: #eeeeee; stroke: #000000; stroke-width: 0.3"/>
    <path d="M 143.063998 122.177102 
L 143.341078 120.228953 
L 144.016873 120.000431 
L 146.139218 124.162379 
L 145.943737 127.188628 
L 143.984778 129.36098 
L 144.405458 124.835288 
L 143.984778 122.821847 
z
" clip-path="url(#p8277f2e7b9)" style="fill: #eeeeee; stroke: #000000; stroke-width: 0.3"/>
    <path d="M 156.503911 132.525647 
L 156.858707 133.007646 
L 157.355412 132.122379 
L 157.715275 134.911633 
L 156.748884 135.413796 
z
" clip-path="url(#p8277f2e7b9)" style="fill: #eeeeee; stroke: #000000; stroke-width: 0.3"/>
    <path d="M 141.994553 120.236634 
L 142.177858 119.083484 
L 144.304084 119.753668 
L 143.398128 119.687797 
L 142.671895 120.893049 
z
" clip-path="url(#p8277f2e7b9)" style="fill: #eeeeee; stroke: #000000; stroke-width: 0.3"/>
    <path d="M 152.279059 123.943201 
L 152.497459 122.373214 
L 153.419266 123.648619 
L 153.406996 124.547407 
z
" clip-path="url(#p8277f2e7b9)" style="fill: #eeeeee; stroke: #000000; stroke-width: 0.3"/>
    <path d="M 147.399234 127.098854 
L 147.405991 126.468514 
L 147.46682 126.232794 
L 147.621402 126.517005 
z
" clip-path="url(#p8277f2e7b9)" style="fill: #eeeeee; stroke: #000000; stroke-width: 0.3"/>
    <path d="M 143.695875 124.27936 
L 144.101348 124.812729 
L 143.908742 125.648054 
L 143.908742 125.1651 
z
" clip-path="url(#p8277f2e7b9)" style="fill: #eeeeee; stroke: #000000; stroke-width: 0.3"/>
    <path d="M 142.284297 128.878014 
L 143.631673 127.355209 
L 142.547861 129.297611 
L 142.915322 128.563091 
z
" clip-path="url(#p8277f2e7b9)" style="fill: #eeeeee; stroke: #000000; stroke-width: 0.3"/>
    <path d="M 141.724231 112.948092 
L 142.862954 113.362888 
L 143.348676 113.932254 
L 142.319776 113.728224 
z
" clip-path="url(#p8277f2e7b9)" style="fill: #eeeeee; stroke: #000000; stroke-width: 0.3"/>
    <path d="M 141.35677 130.012923 
L 141.781675 128.804569 
L 142.310486 129.564526 
L 141.577247 130.464199 
z
" clip-path="url(#p8277f2e7b9)" style="fill: #eeeeee; stroke: #000000; stroke-width: 0.3"/>
    <path d="M 156.285967 132.525647 
L 156.645829 130.093577 
L 156.600219 131.768569 
z
" clip-path="url(#p8277f2e7b9)" style="fill: #eeeeee; stroke: #000000; stroke-width: 0.3"/>
    <path d="M 148.824441 123.846773 
L 148.926707 123.519592 
L 149.83257 123.444377 
z
" clip-path="url(#p8277f2e7b9)" style="fill: #eeeeee; stroke: #000000; stroke-width: 0.3"/>
    <path d="M 147.877369 128.17135 
L 148.420556 124.705989 
L 149.582977 126.603558 
z
" clip-path="url(#p8277f2e7b9)" style="fill: #eeeeee; stroke: #000000; stroke-width: 0.3"/>
    <path d="M 146.992069 126.544849 
L 147.399234 125.003792 
L 147.585923 125.726797 
z
" clip-path="url(#p8277f2e7b9)" style="fill: #eeeeee; stroke: #000000; stroke-width: 0.3"/>
    <path d="M 146.816363 127.402261 
L 147.194805 127.581808 
L 146.910978 127.91162 
z
" clip-path="url(#p8277f2e7b9)" style="fill: #eeeeee; stroke: #000000; stroke-width: 0.3"/>
    <path d="M 143.984778 124.27936 
L 144.047287 123.586606 
L 144.190888 124.110856 
z
" clip-path="url(#p8277f2e7b9)" style="fill: #eeeeee; stroke: #000000; stroke-width: 0.3"/>
    <path d="M 142.53772 117.778159 
L 143.348676 117.080604 
L 143.868197 118.420498 
z
" clip-path="url(#p8277f2e7b9)" style="fill: #eeeeee; stroke: #000000; stroke-width: 0.3"/>
    <path d="M 142.491258 130.913541 
L 143.560714 130.012923 
L 142.87731 130.75464 
z
" clip-path="url(#p8277f2e7b9)" style="fill: #eeeeee; stroke: #000000; stroke-width: 0.3"/>
    <path d="M 141.994553 116.751264 
L 142.616288 116.879453 
L 142.137312 117.402251 
z
" clip-path="url(#p8277f2e7b9)" style="fill: #eeeeee; stroke: #000000; stroke-width: 0.3"/>
    <path d="M 140.789095 129.617335 
L 140.986766 129.023004 
L 141.219917 129.018202 
z
" clip-path="url(#p8277f2e7b9)" style="fill: #eeeeee; stroke: #000000; stroke-width: 0.3"/>
    <path d="M 140.571152 130.555413 
L 141.35677 129.288007 
L 140.615922 131.132459 
z
" clip-path="url(#p8277f2e7b9)" style="fill: #eeeeee; stroke: #000000; stroke-width: 0.3"/>
    <path d="M 127.357633 130.269278 
L 128.25898 132.575094 
L 127.41845 131.730637 
z
" clip-path="url(#p8277f2e7b9)" style="fill: #eeeeee; stroke: #000000; stroke-width: 0.3"/>
    <path d="M 33.784418 47.907896 
L 36.141418 44.313426 
L 35.680099 41.783476 
L 37.459916 39.566007 
L 37.291486 37.759781 
L 42.636315 32.421263 
L 43.909223 32.674893 
L 44.856534 34.703966 
L 46.092427 34.807013 
L 47.475303 33.048642 
L 47.86421 30.492181 
L 49.129073 31.029326 
L 50.215303 29.98491 
L 55.143344 31.009198 
L 55.818683 34.217436 
L 59.846082 35.809356 
L 62.905783 38.917591 
L 64.351958 38.867602 
L 65.276205 39.873295 
L 66.403738 39.372124 
L 70.038484 44.535967 
L 71.2379 44.876173 
L 74.093774 43.287604 
L 75.913825 43.674461 
L 77.384675 46.395545 
L 77.128262 47.402147 
L 79.662287 49.841862 
L 83.410748 52.105971 
L 85.93296 50.964926 
L 87.033681 51.480421 
L 86.167917 53.360127 
L 86.498341 55.052333 
L 91.713354 55.537352 
L 92.555524 54.54538 
L 95.355604 59.782066 
L 96.914426 59.364121 
L 96.456336 57.594777 
L 97.361794 56.653715 
L 97.850475 58.470004 
L 100.157588 59.563195 
L 101.488968 57.271643 
L 102.614363 57.239941 
L 107.740334 60.55578 
L 113.667712 60.768564 
L 114.808127 59.582096 
L 117.730508 60.141787 
L 118.160707 61.165473 
L 116.745651 64.459675 
L 116.183488 68.991561 
L 118.245461 73.096052 
L 116.963439 77.310892 
L 116.248936 77.772433 
L 115.151962 76.615224 
L 112.21617 77.637082 
L 110.446007 77.059693 
L 109.242293 78.01509 
L 107.22645 77.321865 
L 106.55218 75.251946 
L 103.150243 77.206016 
L 98.695323 74.876368 
L 95.860915 74.375798 
L 93.963074 75.417783 
L 91.576034 72.016878 
L 87.386111 73.143599 
L 87.044414 72.056508 
L 85.555327 72.118096 
L 83.46814 70.17377 
L 81.4936 69.86831 
L 81.278501 66.635685 
L 77.986531 65.861369 
L 76.198659 64.242927 
L 73.260189 65.177901 
L 73.47314 66.227803 
L 68.619671 64.748062 
L 67.53397 66.394243 
L 65.980515 65.057793 
L 62.029286 64.459061 
L 61.277237 62.105934 
L 58.394011 62.309267 
L 54.504471 59.533923 
L 52.723575 60.259157 
L 47.952712 56.605235 
L 46.916358 56.986606 
L 45.603216 54.237478 
L 42.85839 53.299153 
L 39.231159 50.489971 
L 38.531676 51.864529 
L 36.883813 51.097222 
z
" clip-path="url(#p8277f2e7b9)" style="fill: #eeeeee; stroke: #000000; stroke-width: 0.3"/>
   </g>
   <g id="PatchCollection_2">
    <defs>
     <path id="mb7454c75f6" d="M 33.784418 -60.092104 
L 36.141418 -63.686574 
L 35.680099 -66.216524 
L 37.459916 -68.433993 
L 37.291486 -70.240219 
L 42.636315 -75.578737 
L 43.909223 -75.325107 
L 44.856534 -73.296034 
L 46.092427 -73.192987 
L 47.475303 -74.951358 
L 47.86421 -77.507819 
L 49.129073 -76.970674 
L 50.215303 -78.01509 
L 55.143344 -76.990802 
L 55.818683 -73.782564 
L 59.846082 -72.190644 
L 62.905783 -69.082409 
L 64.351958 -69.132398 
L 65.276205 -68.126705 
L 66.403738 -68.627876 
L 70.038484 -63.464033 
L 71.2379 -63.123827 
L 74.093774 -64.712396 
L 75.913825 -64.325539 
L 77.384675 -61.604455 
L 77.128262 -60.597853 
L 79.662287 -58.158138 
L 83.410748 -55.894029 
L 85.93296 -57.035074 
L 87.033681 -56.519579 
L 86.167917 -54.639873 
L 86.498341 -52.947667 
L 91.713354 -52.462648 
L 92.555524 -53.45462 
L 95.355604 -48.217934 
L 96.914426 -48.635879 
L 96.456336 -50.405223 
L 97.361794 -51.346285 
L 97.850475 -49.529996 
L 100.157588 -48.436805 
L 101.488968 -50.728357 
L 102.614363 -50.760059 
L 107.740334 -47.44422 
L 113.667712 -47.231436 
L 114.808127 -48.417904 
L 117.730508 -47.858213 
L 118.160707 -46.834527 
L 116.745651 -43.540325 
L 116.183488 -39.008439 
L 118.245461 -34.903948 
L 116.963439 -30.689108 
L 116.248936 -30.227567 
L 115.151962 -31.384776 
L 112.21617 -30.362918 
L 110.446007 -30.940307 
L 109.242293 -29.98491 
L 107.22645 -30.678135 
L 106.55218 -32.748054 
L 103.150243 -30.793984 
L 98.695323 -33.123632 
L 95.860915 -33.624202 
L 93.963074 -32.582217 
L 91.576034 -35.983122 
L 87.386111 -34.856401 
L 87.044414 -35.943492 
L 85.555327 -35.881904 
L 83.46814 -37.82623 
L 81.4936 -38.13169 
L 81.278501 -41.364315 
L 77.986531 -42.138631 
L 76.198659 -43.757073 
L 73.260189 -42.822099 
L 73.47314 -41.772197 
L 68.619671 -43.251938 
L 67.53397 -41.605757 
L 65.980515 -42.942207 
L 62.029286 -43.540939 
L 61.277237 -45.894066 
L 58.394011 -45.690733 
L 54.504471 -48.466077 
L 52.723575 -47.740843 
L 47.952712 -51.394765 
L 46.916358 -51.013394 
L 45.603216 -53.762522 
L 42.85839 -54.700847 
L 39.231159 -57.510029 
L 38.531676 -56.135471 
L 36.883813 -56.902778 
z
" style="stroke: #dd0000; stroke-width: 0.5"/>
    </defs>
    <g clip-path="url(#p8277f2e7b9)">
     <use xlink:href="#mb7454c75f6" x="0" y="108" style="fill: #ff6b6b; stroke: #dd0000; stroke-width: 0.5"/>
    </g>
   </g>
  </g>
 </g>
 <defs>
  <clipPath id="p8277f2e7b9">
   <rect x="0" y="0" width="152.029879" height="108"/>
  </clipPath>
 </defs>
</svg>
