<?xml version="1.0" encoding="utf-8" standalone="no"?>
<!DOCTYPE svg PUBLIC "-//W3C//DTD SVG 1.1//EN"
  "http://www.w3.org/Graphics/SVG/1.1/DTD/svg11.dtd">
<svg xmlns:xlink="http://www.w3.org/1999/xlink" width="106.019902pt" height="108pt" viewBox="0 0 106.019902 108" xmlns="http://www.w3.org/2000/svg" version="1.1">
 <metadata>
  <rdf:RDF xmlns:dc="http://purl.org/dc/elements/1.1/" xmlns:cc="http://creativecommons.org/ns#" xmlns:rdf="http://www.w3.org/1999/02/22-rdf-syntax-ns#">
   <cc:Work>
    <dc:type rdf:resource="http://purl.org/dc/dcmitype/StillImage"/>
    <dc:date>2025-09-05T13:56:19.319025</dc:date>
    <dc:format>image/svg+xml</dc:format>
    <dc:creator>
     <cc:Agent>
      <dc:title>Matplotlib v3.10.3, https://matplotlib.org/</dc:title>
     </cc:Agent>
    </dc:creator>
   </cc:Work>
  </rdf:RDF>
 </metadata>
 <defs>
  <style type="text/css">*{stroke-linejoin: round; stroke-linecap: butt}</style>
 </defs>
 <g id="figure_1">
  <g id="patch_1">
   <path d="M 0 108 
L 106.019902 108 
L 106.019902 0 
L 0 0 
z
" style="fill: #ffffff"/>
  </g>
  <g id="axes_1">
   <g id="PatchCollection_1">
    <path d="M -36.624462 109.417481 
L -36.590314 106.873964 
L -34.796561 105.281896 
L -29.532606 103.78042 
L -28.441028 105.281896 
L -28.069773 103.774498 
L -26.058067 104.508066 
L -25.437622 102.192499 
L -22.88829 101.751412 
L -22.806194 102.888178 
L -21.653945 101.765628 
L -21.957628 103.385517 
L -20.910356 102.490903 
L -18.001759 107.036785 
L -14.731728 104.278938 
L -14.858871 105.281896 
L -13.817777 105.976978 
L -12.377468 104.984089 
L -11.734134 106.970464 
L -12.166416 105.083557 
L -11.424639 104.278938 
L -10.515045 104.081196 
L -10.08895 105.481429 
L -6.165782 105.083557 
L -7.925031 103.572012 
L -8.365294 102.084752 
L -7.51746 99.402699 
L -8.281752 99.470781 
L -8.432133 96.75142 
L -7.878537 96.611691 
L -10.271667 94.309161 
L -10.880488 92.167647 
L -10.477273 90.87458 
L -11.331651 89.35653 
L -8.398718 90.434089 
L -5.331017 89.77275 
L -5.016077 90.811823 
L -5.716797 91.772148 
L -4.079603 94.866288 
L -2.450756 94.184826 
L 3.985418 95.817141 
L 9.616619 93.315078 
L 10.347495 92.710574 
L 8.237703 93.140413 
L 6.62847 92.108441 
L 8.050255 89.280751 
L 16.846875 85.647831 
L 19.523351 82.21859 
L 20.876118 82.540667 
L 19.706434 81.298527 
L 20.321058 79.94861 
L 19.82848 79.452463 
L 20.055156 72.70055 
L 28.457819 69.517753 
L 29.231378 71.357137 
L 29.037618 73.040685 
L 30.822988 74.816731 
L 33.880717 74.006161 
L 35.146621 77.674788 
L 38.157303 78.408662 
L 38.948028 81.0028 
L 41.683746 80.335845 
L 43.418374 81.581026 
L 42.777119 83.477377 
L 43.529091 84.466904 
L 42.82971 85.706077 
L 47.419995 85.56773 
L 48.935027 82.994646 
L 49.43788 83.308197 
L 48.652689 85.948955 
L 49.333617 86.603121 
L 49.233969 88.337057 
L 52.896047 89.833383 
L 54.653742 92.632786 
L 57.244596 91.89817 
L 59.158217 93.471192 
L 63.104489 93.120042 
L 65.881264 97.581197 
L 67.67217 96.885664 
L 68.816277 98.327104 
L 70.885833 98.364703 
L 72.100994 97.43457 
L 74.105032 99.342954 
L 79.152042 100.495652 
L 75.669887 105.494437 
L 75.138422 109.476237 
L 73.664921 112.555739 
L 73.981397 114.85888 
L 73.006133 118.701955 
L 73.668152 120.487357 
L 71.815889 122.727756 
L 68.198091 121.877332 
L 67.245896 123.8406 
L 68.762766 124.199272 
L 65.449455 128.684115 
L 63.460638 129.806359 
L 63.34069 132.474182 
L 60.566218 135.054774 
L 59.993241 137.441755 
L 60.71477 138.154953 
L 60.34847 139.862567 
L 59.105626 140.635553 
L 59.141612 141.646135 
L 60.761826 141.358907 
L 62.019427 140.051303 
L 61.420614 138.954246 
L 61.911469 138.087656 
L 63.820475 137.0173 
L 66.535436 137.518073 
L 66.207891 138.517015 
L 66.898049 139.623457 
L 66.344444 141.338594 
L 68.633596 144.63202 
L 66.658152 146.069691 
L 66.614783 147.645725 
L 69.870896 152.115915 
L 68.931619 154.986006 
L 64.889851 156.589845 
L 66.163602 159.436626 
L 68.499801 160.684078 
L 68.928843 162.680419 
L 68.078143 162.705243 
L 66.970013 164.87529 
L 67.702621 166.297174 
L 67.24128 167.23106 
L 68.282973 169.128167 
L 71.391454 170.823006 
L 74.28957 170.083865 
L 74.595896 171.665907 
L 72.702575 174.602538 
L 72.68955 176.070402 
L 69.790041 177.668989 
L 69.67661 179.134976 
L 68.097988 179.337418 
L 67.490399 180.974055 
L 66.036288 181.26188 
L 64.784186 183.283671 
L 65.699083 183.224377 
L 65.577911 184.263581 
L 62.860146 185.874506 
L 61.233817 185.613585 
L 61.116636 186.673611 
L 58.981714 185.246241 
L 58.228921 186.544008 
L 56.598012 184.578805 
L 53.6793 184.054838 
L 53.207871 182.023968 
L 50.885402 182.314921 
L 50.814983 181.240316 
L 52.602202 180.207762 
L 50.841863 179.068625 
L 51.038016 180.950206 
L 49.404822 181.06389 
L 49.294149 182.223209 
L 48.419666 181.050867 
L 48.282354 179.564771 
L 47.85517 178.770221 
L 48.283086 181.047899 
L 48.977235 182.156611 
L 41.234457 179.33979 
L 33.744833 185.649438 
L 33.100419 192.593768 
L 34.342486 195.468544 
L 32.135029 194.904839 
L 29.711171 196.813965 
L 26.276064 195.51013 
L 23.760861 196.673362 
L 21.229973 194.563089 
L 21.317631 192.87314 
L 18.70462 193.083672 
L 17.9305 191.435468 
L 13.201813 189.646268 
L 11.803963 189.547383 
L 11.690478 191.78736 
L 5.59716 191.777582 
L 3.06304 189.487987 
L 0.864778 190.504579 
L -0.837095 187.97474 
L -4.321098 187.113039 
L -5.536258 185.607678 
L -7.063734 186.540444 
L -6.584869 183.655686 
L -8.534477 183.6023 
L -10.092869 181.748816 
L -8.883663 181.380642 
L -7.239925 178.75602 
L -5.279069 164.55474 
L -4.647733 162.962672 
L -3.382151 162.905241 
L -4.520232 161.321466 
L -5.307038 163.516264 
L -3.743951 149.815277 
L -0.895292 153.35049 
L -0.44703 156.137933 
L 1.171639 159.623426 
L 0.62239 157.73652 
L 1.536707 158.124322 
L 0.088408 156.653039 
L -1.156838 151.152753 
L -5.190438 147.765549 
L -4.445037 146.357022 
L -2.868138 147.657191 
L -4.337149 145.463004 
L -3.417378 142.979887 
L -4.864597 141.004745 
L -3.971349 139.140334 
L -5.126143 139.408545 
L -10.083504 136.348744 
L -11.105699 133.47842 
L -12.9703 131.613412 
L -11.82713 128.479024 
L -14.062611 126.920699 
L -13.384772 126.55126 
L -13.343367 125.047994 
L -9.473228 125.927214 
L -12.000402 124.341664 
L -14.395352 125.408572 
L -16.748532 124.627045 
L -15.804059 124.526384 
L -16.877122 123.417454 
L -15.408111 122.829537 
L -16.326784 121.846703 
L -15.158921 121.628822 
L -17.55205 121.429886 
L -17.260723 121.2949 
L -17.059473 120.93374 
L -19.204867 121.730065 
L -20.027276 120.868611 
L -18.529207 120.97163 
L -18.057707 120.199575 
L -18.016293 119.929007 
L -18.217534 119.641851 
L -20.118094 120.328653 
L -20.611395 119.335168 
L -20.301177 120.834272 
L -21.938005 120.281277 
L -22.013201 122.035569 
L -22.628199 119.687438 
L -21.891145 118.341086 
L -22.562083 118.133274 
L -22.838886 119.442915 
L -24.035817 118.847301 
L -23.360522 118.937296 
L -24.035817 118.648365 
L -23.360522 117.537645 
L -24.822989 118.741911 
L -30.944955 115.550674 
L -31.418276 117.158733 
L -33.084172 117.248729 
L -33.645035 114.797579 
L -36.265206 113.852634 
L -32.312613 112.764424 
L -33.150645 111.062237 
L -34.741711 111.865081 
L -35.356335 110.266494 
L -34.645447 109.396747 
L -34.367189 110.138609 
L -32.169489 110.246953 
L -31.438613 109.968687 
L -33.815405 109.563118 
L -32.352929 108.163482 
z
M 23.3309 195.18117 
L 23.795 195.287942 
L 23.412095 194.73678 
z
" clip-path="url(#p9cc2227126)" style="fill: #eeeeee; stroke: #000000; stroke-width: 0.3"/>
    <path d="M 82.265719 196.259835 
L 83.251597 195.491927 
L 83.694771 193.319639 
L 87.343314 191.095842 
L 88.89951 191.928879 
L 89.386267 187.142023 
L 90.433905 187.340959 
L 90.24501 192.426218 
L 91.005668 193.546992 
L 91.286828 199.614475 
L 89.890468 202.431528 
L 89.876666 206.01825 
L 88.89951 207.182851 
L 89.421146 207.840625 
L 88.172267 209.775505 
L 88.283422 210.877335 
L 84.432182 208.131331 
L 85.601134 206.189947 
L 83.212361 205.385925 
L 84.554237 203.101147 
L 82.847651 203.190545 
L 82.597737 202.198253 
L 84.014434 200.923533 
L 82.414655 198.712163 
L 83.503698 197.775526 
z
" clip-path="url(#p9cc2227126)" style="fill: #eeeeee; stroke: #000000; stroke-width: 0.3"/>
    <path d="M -7.944644 139.881017 
L -5.733143 140.533466 
L -5.494844 141.271778 
L -7.484402 140.522815 
z
" clip-path="url(#p9cc2227126)" style="fill: #eeeeee; stroke: #000000; stroke-width: 0.3"/>
    <path d="M 90.367065 192.32675 
L 90.595187 192.724025 
L 90.547961 192.738823 
z
" clip-path="url(#p9cc2227126)" style="fill: #eeeeee; stroke: #000000; stroke-width: 0.3"/>
    <path d="M 60.992697 187.20123 
L 61.072615 187.065647 
L 61.760631 187.158 
z
" clip-path="url(#p9cc2227126)" style="fill: #eeeeee; stroke: #000000; stroke-width: 0.3"/>
    <path d="M -6.597689 142.770882 
L -5.193339 143.518666 
L -4.850429 146.248678 
z
" clip-path="url(#p9cc2227126)" style="fill: #eeeeee; stroke: #000000; stroke-width: 0.3"/>
    <path d="M -14.549377 128.510992 
L -13.695722 128.639474 
L -13.182808 130.305546 
z
" clip-path="url(#p9cc2227126)" style="fill: #eeeeee; stroke: #000000; stroke-width: 0.3"/>
    <path d="M -15.328559 133.029636 
L -14.572258 133.065751 
L -14.311078 133.396719 
z
" clip-path="url(#p9cc2227126)" style="fill: #eeeeee; stroke: #000000; stroke-width: 0.3"/>
    <path d="M -23.177073 123.417454 
L -21.435625 124.600403 
L -22.832342 124.451783 
z
" clip-path="url(#p9cc2227126)" style="fill: #eeeeee; stroke: #000000; stroke-width: 0.3"/>
    <path d="M 58.242928 70.510089 
L 60.823639 68.57614 
L 60.014461 67.711063 
L 61.364327 65.150755 
L 61.235156 63.380355 
L 58.8971 58.923333 
L 60.902995 58.539109 
L 60.642797 57.74357 
L 62.588709 58.844003 
L 66.148836 57.574769 
L 66.732892 56.538606 
L 65.578626 55.361099 
L 68.671421 52.885024 
L 68.867029 50.928886 
L 68.198091 49.673184 
L 65.890486 49.525059 
L 65.505734 48.359192 
L 66.088862 47.005739 
L 68.601297 47.132431 
L 70.157841 41.719348 
L 70.173642 38.125118 
L 70.710535 37.041054 
L 71.70876 37.284384 
L 68.647237 36.213344 
L 68.895704 34.231698 
L 69.702133 33.874088 
L 69.211011 33.151185 
L 70.454801 31.992507 
L 77.644367 31.38742 
L 78.863455 33.640813 
L 78.051215 34.870542 
L 79.196929 35.714229 
L 80.176996 34.77995 
L 79.427961 34.048157 
L 79.780316 32.772855 
L 82.292599 33.780542 
L 81.738271 34.612982 
L 81.866861 36.480362 
L 82.414655 33.735552 
L 81.703401 31.498718 
L 82.609361 29.025073 
L 88.172267 29.002577 
L 91.490247 33.086639 
L 93.719193 33.780542 
L 91.501871 32.778763 
L 89.819272 29.598788 
L 88.592917 28.804835 
L 86.154016 28.637867 
L 85.541562 28.050532 
L 84.803427 26.609455 
L 86.266626 26.700033 
L 86.454789 25.715438 
L 84.620345 24.513544 
L 85.962211 22.518279 
L 83.420869 23.222833 
L 82.719061 22.220472 
L 86.394493 19.772276 
L 83.512411 16.440728 
L 83.262846 14.097878 
L 88.470102 15.473477 
L 91.468455 14.534876 
L 93.645087 16.128705 
L 94.75011 15.797155 
L 95.381455 16.936292 
L 94.588828 17.334149 
L 95.567439 17.437181 
L 95.458462 18.991942 
L 93.791121 20.224028 
L 96.498834 19.983056 
L 97.038628 20.43184 
L 96.4843 22.419408 
L 98.060832 20.689385 
L 101.747156 22.626041 
L 105.35575 21.524793 
L 104.740394 21.922068 
L 104.740394 24.46381 
L 101.937506 26.41052 
L 103.272106 27.701812 
L 105.708828 26.877652 
L 108.232012 28.505238 
L 110.3033 24.881208 
L 113.860302 24.315787 
L 113.891548 25.480969 
L 114.100056 25.715438 
L 114.045563 24.476833 
L 117.839418 20.035161 
L 121.296888 20.832083 
L 118.645846 20.986014 
L 117.77839 21.723132 
L 116.987941 21.501105 
L 116.36605 23.222833 
L 119.151494 21.161261 
L 120.703333 21.932719 
L 122.079347 20.765761 
L 123.026713 23.065352 
L 126.317821 25.811341 
L 128.356417 24.613012 
L 129.215152 25.616552 
L 128.661547 26.609455 
L 130.089143 27.968234 
L 129.308148 28.914954 
L 129.29507 29.279664 
L 133.289434 30.753902 
L 132.82737 31.38742 
L 134.870778 38.025897 
L 133.993314 40.982826 
L 132.218093 42.273507 
L 132.034484 43.863451 
L 136.684743 47.846385 
L 135.797137 50.680376 
L 137.288172 52.808328 
L 137.055658 54.479842 
L 137.725516 55.125379 
L 136.157902 59.094404 
L 137.467175 61.212185 
L 137.266951 63.076204 
L 139.457376 64.455979 
L 140.052493 67.346382 
L 139.456447 69.859677 
L 137.706143 73.553506 
L 136.402405 73.038429 
L 136.545422 71.945141 
L 135.841426 72.070713 
L 136.055487 71.148103 
L 135.232462 70.250302 
L 133.495076 70.25557 
L 133.055884 71.046584 
L 134.337473 71.942886 
L 134.021917 72.534644 
L 126.969476 75.058853 
L 125.999756 76.65143 
L 122.086703 78.17332 
L 121.577387 79.461354 
L 117.628356 79.685433 
L 115.755336 83.002169 
L 115.212801 81.608847 
L 113.753137 80.756168 
L 115.277391 84.687972 
L 117.751992 86.724939 
L 116.498086 89.083721 
L 118.8186 93.643383 
L 121.999054 95.601384 
L 123.594352 98.1707 
L 126.097556 100.692653 
L 127.434504 100.676109 
L 129.28308 103.291302 
L 128.397314 106.8524 
L 126.058802 106.099349 
L 125.621458 108.963808 
L 119.670229 112.792594 
L 121.922466 116.668014 
L 121.036708 118.465857 
L 122.643995 119.398245 
L 122.017507 122.213057 
L 120.027297 120.920877 
L 119.875987 119.290716 
L 117.50656 119.842998 
L 115.204499 119.115512 
L 115.23587 118.342541 
L 114.623219 120.189637 
L 109.685078 120.414094 
L 106.261969 123.261617 
L 103.962675 123.311249 
L 102.884068 121.272405 
L 99.050371 120.597927 
L 99.042068 123.231163 
L 96.645894 125.04894 
L 97.086925 123.574047 
L 95.958503 123.769171 
L 94.73596 121.1254 
L 93.273529 120.432137 
L 91.760345 121.400232 
L 87.928496 119.238828 
L 85.235218 119.446742 
L 82.347253 117.336469 
L 80.857138 119.311014 
L 82.785525 119.444486 
L 82.48935 120.373484 
L 79.443611 119.944139 
L 77.741282 120.837415 
L 73.879901 120.776521 
L 74.325547 120.313332 
L 73.668152 120.487357 
L 73.006133 118.701955 
L 73.981397 114.85888 
L 73.604946 112.777563 
L 75.138422 109.476237 
L 75.669887 105.494437 
L 79.152042 100.495652 
L 74.105032 99.342954 
L 72.100994 97.43457 
L 70.885833 98.364703 
L 68.816277 98.327104 
L 67.67217 96.885664 
L 65.986447 97.629316 
L 64.076976 93.712557 
L 62.591753 93.26712 
L 63.995782 88.315246 
L 62.21042 87.743786 
L 60.369691 84.634585 
L 60.819952 82.227684 
L 62.852594 80.751657 
L 62.516746 78.343242 
L 61.034013 77.805627 
L 61.732474 76.401785 
L 59.268015 73.966306 
L 60.078122 72.136875 
z
" clip-path="url(#p9cc2227126)" style="fill: #eeeeee; stroke: #000000; stroke-width: 0.3"/>
    <path d="M 123.031801 22.220472 
L 124.383113 21.524793 
L 123.402324 20.929179 
L 124.439061 20.12456 
L 123.281 19.240015 
L 124.659916 19.578083 
L 125.298519 18.625456 
L 125.115445 19.520056 
L 126.527785 20.035161 
L 126.64984 18.834446 
L 125.941487 19.032203 
L 125.296341 18.23291 
L 124.26179 18.923845 
L 124.620689 17.794195 
L 124.062727 17.633745 
L 125.489592 17.126337 
L 125.791096 18.625456 
L 127.988073 18.900753 
L 127.138052 20.273762 
L 128.843174 22.121004 
L 128.456672 23.089026 
L 127.508574 22.518279 
L 128.168978 22.021536 
L 126.461668 22.121004 
L 125.211343 23.131659 
L 125.636349 23.819044 
z
" clip-path="url(#p9cc2227126)" style="fill: #eeeeee; stroke: #000000; stroke-width: 0.3"/>
    <path d="M 128.722574 24.911401 
L 129.276179 24.613012 
L 132.8034 28.035137 
L 132.720964 28.912626 
L 129.500677 29.318151 
L 130.317997 28.604706 
L 130.075341 27.206248 
L 131.359814 28.000216 
L 131.385971 27.065937 
L 130.446596 26.170726 
L 128.911469 26.808377 
L 129.276179 25.666286 
z
" clip-path="url(#p9cc2227126)" style="fill: #eeeeee; stroke: #000000; stroke-width: 0.3"/>
    <path d="M 79.903094 16.337709 
L 80.024427 13.861693 
L 80.700087 12.080161 
L 81.075689 11.638492 
L 81.500704 11.85163 
L 80.830855 14.128129 
L 83.20655 14.137004 
L 80.1058 14.547899 
z
" clip-path="url(#p9cc2227126)" style="fill: #eeeeee; stroke: #000000; stroke-width: 0.3"/>
    <path d="M 107.499689 27.404005 
L 107.954486 26.806019 
L 108.59091 26.808377 
L 108.232012 27.701812 
z
" clip-path="url(#p9cc2227126)" style="fill: #eeeeee; stroke: #000000; stroke-width: 0.3"/>
    <path d="M 84.620345 20.12456 
L 84.902959 19.577487 
L 85.962211 19.520056 
L 85.290916 20.323496 
z
" clip-path="url(#p9cc2227126)" style="fill: #eeeeee; stroke: #000000; stroke-width: 0.3"/>
    <path d="M 122.548669 20.323496 
L 122.914111 18.466185 
L 123.062315 18.607093 
z
" clip-path="url(#p9cc2227126)" style="fill: #eeeeee; stroke: #000000; stroke-width: 0.3"/>
    <path d="M 108.912752 25.904886 
L 109.644351 25.508208 
L 108.962879 26.311052 
z
" clip-path="url(#p9cc2227126)" style="fill: #eeeeee; stroke: #000000; stroke-width: 0.3"/>
    <path d="M 104.196957 20.323496 
L 105.228606 19.341258 
L 106.951172 21.118642 
z
" clip-path="url(#p9cc2227126)" style="fill: #eeeeee; stroke: #000000; stroke-width: 0.3"/>
    <path d="M 82.888342 19.971808 
L 83.603229 19.012065 
L 83.621388 19.169561 
z
" clip-path="url(#p9cc2227126)" style="fill: #eeeeee; stroke: #000000; stroke-width: 0.3"/>
    <path d="M 80.886071 16.738535 
L 81.263128 16.248892 
L 82.664577 16.639067 
z
" clip-path="url(#p9cc2227126)" style="fill: #eeeeee; stroke: #000000; stroke-width: 0.3"/>
    <path d="M 79.966309 17.433617 
L 80.777095 17.839782 
L 80.947099 17.929777 
z
" clip-path="url(#p9cc2227126)" style="fill: #eeeeee; stroke: #000000; stroke-width: 0.3"/>
    <path d="M 78.710895 31.296828 
L 78.723965 30.935071 
L 79.113378 31.097892 
z
" clip-path="url(#p9cc2227126)" style="fill: #eeeeee; stroke: #000000; stroke-width: 0.3"/>
    <path d="M 76.628707 24.418805 
L 76.737683 24.29802 
L 76.769652 24.376768 
z
" clip-path="url(#p9cc2227126)" style="fill: #eeeeee; stroke: #000000; stroke-width: 0.3"/>
    <path d="M 76.2916 24.318158 
L 76.422377 24.307493 
L 76.463791 24.547287 
z
" clip-path="url(#p9cc2227126)" style="fill: #eeeeee; stroke: #000000; stroke-width: 0.3"/>
    <path d="M 76.064933 30.274329 
L 76.44998 30.103825 
L 76.96726 30.298614 
z
" clip-path="url(#p9cc2227126)" style="fill: #eeeeee; stroke: #000000; stroke-width: 0.3"/>
    <path d="M 74.56323 30.326434 
L 75.692956 30.295049 
L 75.116103 30.618319 
z
" clip-path="url(#p9cc2227126)" style="fill: #eeeeee; stroke: #000000; stroke-width: 0.3"/>
    <path d="M 72.659036 31.041058 
L 73.851976 30.594049 
L 74.035782 30.763971 
z
" clip-path="url(#p9cc2227126)" style="fill: #eeeeee; stroke: #000000; stroke-width: 0.3"/>
    <path d="M 72.0386 30.970604 
L 72.324839 31.097892 
L 72.196981 31.19736 
z
" clip-path="url(#p9cc2227126)" style="fill: #eeeeee; stroke: #000000; stroke-width: 0.3"/>
    <path d="M 69.986203 31.484516 
L 70.515829 31.076576 
L 71.531489 31.167168 
z
" clip-path="url(#p9cc2227126)" style="fill: #eeeeee; stroke: #000000; stroke-width: 0.3"/>
    <path d="M 67.309727 31.901333 
L 68.856468 31.589906 
L 69.199387 31.694103 
z
" clip-path="url(#p9cc2227126)" style="fill: #eeeeee; stroke: #000000; stroke-width: 0.3"/>
    <path d="M 65.396819 32.97297 
L 66.514198 32.668047 
L 66.262821 33.499905 
z
" clip-path="url(#p9cc2227126)" style="fill: #eeeeee; stroke: #000000; stroke-width: 0.3"/>
    <path d="M 57.000092 86.922696 
L 59.16652 82.932238 
L 60.557916 83.589416 
L 61.497193 86.984347 
L 62.21042 87.743786 
L 62.494597 87.66709 
L 63.053737 88.127267 
L 63.637785 88.172388 
L 63.947806 88.260361 
L 63.995782 88.315246 
L 62.591753 93.26712 
L 59.158217 93.471192 
L 57.640427 92.068092 
L 58.486512 90.528916 
z
" clip-path="url(#p9cc2227126)" style="fill: #eeeeee; stroke: #000000; stroke-width: 0.3"/>
    <path d="M 28.457819 69.517753 
L 35.84626 65.331808 
L 36.22338 67.200876 
L 38.168372 66.565509 
L 41.002818 67.790393 
L 43.631622 65.436892 
L 44.407135 66.845026 
L 43.984941 65.416842 
L 45.325532 65.60079 
L 45.487921 64.0695 
L 47.279755 64.70638 
L 48.605633 63.583758 
L 48.998688 64.772163 
L 48.458001 64.776674 
L 49.781111 65.089104 
L 50.827419 63.8537 
L 52.50484 67.026807 
L 54.984975 66.622271 
L 57.983658 68.514867 
L 56.156767 73.260995 
L 61.732474 76.401785 
L 61.034013 77.805627 
L 62.516746 78.343242 
L 62.852594 80.751657 
L 60.912217 82.101356 
L 60.557916 83.589416 
L 59.16652 82.932238 
L 57.000092 86.922696 
L 58.486512 90.528916 
L 58.05747 91.728234 
L 54.653742 92.632786 
L 52.896047 89.833383 
L 49.233969 88.337057 
L 49.333617 86.603121 
L 48.652689 85.948955 
L 49.355757 83.194658 
L 45.803477 86.27905 
L 42.82971 85.706077 
L 43.529091 84.466904 
L 42.777119 83.477377 
L 43.418374 81.581026 
L 41.683746 80.335845 
L 38.948028 81.0028 
L 38.157303 78.408662 
L 35.146621 77.674788 
L 33.880717 74.006161 
L 30.822988 74.816731 
L 29.037618 73.040685 
L 29.231378 71.357137 
z
" clip-path="url(#p9cc2227126)" style="fill: #eeeeee; stroke: #000000; stroke-width: 0.3"/>
    <path d="M 78.213952 4.60002 
L 78.985511 1.980723 
L 78.504565 -1.781261 
L 79.092309 0.776458 
L 80.875171 -0.639766 
L 79.884936 -3.065453 
L 78.699995 -3.578769 
L 78.327294 -2.315311 
L 78.959362 -11.740402 
L 79.327697 -12.28036 
L 80.107978 -10.027549 
L 82.414655 -10.383384 
L 83.850241 -8.992624 
L 84.171359 -10.158985 
L 83.451383 -11.07787 
L 86.855102 -13.78479 
L 87.862772 -12.271484 
L 86.831846 -10.193324 
L 87.678966 -11.584085 
L 88.757109 -11.171415 
L 88.526077 -10.383384 
L 89.203184 -9.678233 
L 89.618754 -10.187999 
L 88.913312 -10.124645 
L 89.02011 -12.080828 
L 87.801021 -11.981956 
L 88.456336 -12.831566 
L 87.853327 -13.690065 
L 88.078547 -15.623156 
L 94.466772 -17.364426 
L 93.394441 -18.060104 
L 88.481762 -16.546187 
L 87.313532 -17.364426 
L 83.430315 -15.821495 
L 81.750617 -13.518368 
L 82.068834 -12.07847 
L 81.008127 -11.981956 
L 82.597737 -11.981956 
L 82.359439 -10.590017 
L 80.508282 -12.044131 
L 80.060029 -13.074313 
L 79.539116 -13.273249 
L 79.558729 -12.205162 
L 79.472276 -13.182672 
L 79.576896 -13.783015 
L 82.881075 -18.299883 
L 89.970386 -18.919186 
L 94.923748 -25.116925 
L 96.982689 -25.260205 
L 100.031134 -27.335396 
L 101.011923 -27.235928 
L 99.061244 -24.813793 
L 100.097973 -22.845766 
L 100.031134 -19.956483 
L 98.318021 -16.660453 
L 95.170768 -17.861168 
L 94.566304 -17.364426 
L 98.019418 -16.262596 
L 97.592233 -15.169046 
L 98.259172 -12.399369 
L 96.526437 -12.47218 
L 93.485983 -11.276805 
L 98.202501 -12.202791 
L 98.256994 -10.987874 
L 97.132348 -10.08498 
L 96.855545 -8.793688 
L 98.16763 -10.738622 
L 99.413599 -9.540875 
L 102.559397 -9.735068 
L 103.825711 -8.486408 
L 103.357113 -6.822111 
L 101.81254 -4.209915 
L 100.830296 -5.417731 
L 100.111052 -3.434907 
L 98.384861 -4.901447 
L 99.603949 -5.108677 
L 99.724549 -6.003276 
L 98.816402 -6.301098 
L 97.184653 -4.113416 
L 97.696121 -2.21999 
L 96.844654 0.458513 
L 94.035222 0.192091 
L 95.627012 0.745669 
L 95.265211 2.387471 
L 91.258492 2.2353 
L 93.913167 3.470952 
L 90.737579 5.467395 
L 92.184798 5.634349 
L 91.529483 6.369692 
L 92.632328 8.970641 
L 90.632968 10.315814 
L 91.286828 11.346593 
L 90.168726 12.042868 
L 92.816866 12.655652 
L 92.950545 14.975366 
L 91.781583 13.568614 
L 89.121507 15.475732 
L 83.262846 14.097878 
L 83.451383 10.650929 
L 81.460013 11.083722 
L 81.728826 9.7202 
L 83.518955 10.528951 
L 82.878165 6.21694 
L 81.308899 5.83861 
L 80.15956 4.110378 
L 79.497702 4.470941 
L 80.161007 5.760459 
z
" clip-path="url(#p9cc2227126)" style="fill: #eeeeee; stroke: #000000; stroke-width: 0.3"/>
    <path d="M 103.034539 1.781787 
L 105.865763 2.398718 
L 108.656295 -0.051253 
L 108.407828 -1.108092 
L 106.864711 -1.493523 
L 106.579918 -1.911518 
L 111.005109 -1.532591 
L 110.065733 -0.610753 
L 110.55249 0.788884 
L 109.5717 1.195646 
L 110.741385 0.987238 
L 110.954981 1.683498 
L 110.013418 1.954663 
L 111.10755 2.983681 
L 112.659381 0.170178 
L 112.490831 -0.996183 
L 113.537005 1.87059 
L 112.271423 2.983681 
L 113.611835 3.07308 
L 113.922061 1.980723 
L 113.306705 -1.108092 
L 111.873297 -1.564573 
L 115.26175 -3.834554 
L 118.625501 -2.59832 
L 117.650523 -0.918032 
L 118.449685 2.279112 
L 114.841824 5.495813 
L 117.224785 8.365554 
L 113.204264 10.152396 
L 114.653661 11.05708 
L 114.403007 12.674597 
L 112.155179 12.655652 
L 112.092697 13.613023 
L 114.592633 14.941623 
L 112.722586 17.040489 
L 112.618698 18.866414 
L 111.905257 17.541975 
L 112.271423 16.639067 
L 110.497274 13.450202 
L 112.027312 12.854588 
L 109.644351 11.247125 
L 111.533289 11.85163 
L 110.55249 10.759869 
L 111.350206 10.451993 
L 110.55249 9.557975 
L 106.47603 9.670466 
L 105.843239 7.56271 
L 104.929279 7.372068 
L 106.058282 6.713683 
L 104.868261 5.123405 
L 105.446559 4.206295 
L 103.520573 2.874741 
L 104.929279 2.983681 
z
" clip-path="url(#p9cc2227126)" style="fill: #eeeeee; stroke: #000000; stroke-width: 0.3"/>
    <path d="M 92.328645 5.376803 
L 97.964934 3.593497 
L 99.850229 4.827373 
L 98.964614 5.913211 
L 99.428133 6.142339 
L 100.656658 5.421808 
L 100.821582 3.660997 
L 101.845965 5.495813 
L 100.318837 5.877693 
L 100.164812 6.149455 
L 101.449285 6.183197 
L 102.666927 8.365554 
L 102.119134 8.411738 
L 102.212121 10.781768 
L 101.166671 11.653887 
L 95.807193 11.247125 
L 96.611435 10.550864 
L 95.250678 9.717828 
L 95.447562 10.759869 
L 95.089395 10.730259 
L 94.18997 7.512976 
L 92.5713 5.773482 
L 93.541922 6.171353 
z
" clip-path="url(#p9cc2227126)" style="fill: #eeeeee; stroke: #000000; stroke-width: 0.3"/>
    <path d="M 104.138839 15.691765 
L 105.111639 15.040495 
L 104.435256 13.764 
L 106.214484 13.152991 
L 109.455457 15.337705 
L 109.943678 13.847477 
L 111.69166 16.489865 
L 111.383621 17.607685 
L 108.380947 18.029245 
z
" clip-path="url(#p9cc2227126)" style="fill: #eeeeee; stroke: #000000; stroke-width: 0.3"/>
    <path d="M 91.90146 11.744464 
L 93.374828 11.414093 
L 95.794114 14.320546 
L 94.804603 14.58816 
L 93.262941 13.799532 
L 93.059521 12.854588 
L 93.857228 13.343037 
L 93.424955 12.348372 
z
" clip-path="url(#p9cc2227126)" style="fill: #eeeeee; stroke: #000000; stroke-width: 0.3"/>
    <path d="M 81.958402 -12.703098 
L 83.334417 -13.977803 
L 83.181124 -14.972482 
L 85.65635 -16.172004 
L 84.736588 -12.7848 
L 83.24142 -11.828608 
z
" clip-path="url(#p9cc2227126)" style="fill: #eeeeee; stroke: #000000; stroke-width: 0.3"/>
    <path d="M 102.851456 -20.362649 
L 105.416777 -21.34784 
L 105.900258 -20.918278 
L 104.740394 -20.751033 
L 104.403429 -19.450021 
z
" clip-path="url(#p9cc2227126)" style="fill: #eeeeee; stroke: #000000; stroke-width: 0.3"/>
    <path d="M 99.785577 0.581072 
L 99.819715 -1.251954 
L 100.074726 -1.932238 
L 101.193551 -0.215849 
L 100.41619 1.534296 
z
" clip-path="url(#p9cc2227126)" style="fill: #eeeeee; stroke: #000000; stroke-width: 0.3"/>
    <path d="M 137.036053 11.114482 
L 137.721168 8.089049 
L 141.206974 10.650929 
L 140.504281 12.710813 
z
" clip-path="url(#p9cc2227126)" style="fill: #eeeeee; stroke: #000000; stroke-width: 0.3"/>
    <path d="M 117.717362 3.579295 
L 118.570285 2.576337 
L 119.095555 3.840391 
L 118.039936 4.5793 
z
" clip-path="url(#p9cc2227126)" style="fill: #eeeeee; stroke: #000000; stroke-width: 0.3"/>
    <path d="M 114.100056 13.938069 
L 115.634451 12.746244 
L 115.314056 11.705396 
L 117.999245 13.212198 
z
" clip-path="url(#p9cc2227126)" style="fill: #eeeeee; stroke: #000000; stroke-width: 0.3"/>
    <path d="M 80.705899 5.848083 
L 81.500704 6.369692 
L 81.616939 7.56271 
L 80.955812 7.059449 
z
" clip-path="url(#p9cc2227126)" style="fill: #eeeeee; stroke: #000000; stroke-width: 0.3"/>
    <path d="M 108.795785 -12.370937 
L 109.943678 -12.578167 
L 109.333401 -11.873613 
z
" clip-path="url(#p9cc2227126)" style="fill: #eeeeee; stroke: #000000; stroke-width: 0.3"/>
    <path d="M 100.584739 14.941623 
L 103.759595 10.352525 
L 101.412959 16.440728 
z
" clip-path="url(#p9cc2227126)" style="fill: #eeeeee; stroke: #000000; stroke-width: 0.3"/>
    <path d="M 96.90786 12.916762 
L 99.848051 14.742687 
L 98.642041 15.051742 
z
" clip-path="url(#p9cc2227126)" style="fill: #eeeeee; stroke: #000000; stroke-width: 0.3"/>
    <path d="M -49.712951 -12.562772 
L -45.447239 -13.381593 
L -46.291083 -14.022808 
L -45.243811 -14.253712 
L -44.587773 -14.66401 
L -46.915518 -14.971289 
L -46.117079 -16.470408 
L -45.434518 -16.898472 
L -44.571427 -16.213444 
L -43.792235 -16.276798 
L -43.363596 -16.569876 
L -45.6216 -17.615452 
L -42.266563 -18.060104 
L -44.770856 -18.809649 
L -43.854352 -20.393423 
L -42.32759 -19.857612 
L -43.173255 -20.552097 
L -42.626185 -21.157781 
L -45.203129 -20.850501 
L -43.167434 -21.910294 
L -42.692667 -22.648009 
L -45.903483 -21.676437 
L -46.183919 -24.941081 
L -44.405413 -23.948192 
L -43.269153 -24.391054 
L -45.886779 -25.862934 
L -44.709828 -26.838057 
L -45.868246 -27.335396 
L -45.933996 -28.635565 
L -44.929228 -29.157771 
L -44.587773 -28.039354 
L -44.100284 -27.723199 
L -44.161312 -30.026325 
L -40.670417 -28.834501 
L -41.961424 -30.234152 
L -39.324184 -28.635565 
L -42.682856 -32.290384 
L -41.377314 -32.083169 
L -40.853134 -33.214608 
L -42.192456 -34.865868 
L -38.099284 -34.308144 
L -40.238501 -36.212817 
L -39.969331 -37.097959 
L -38.836695 -36.710156 
L -39.635134 -38.418862 
L -38.586773 -40.205122 
L -37.227471 -39.866457 
L -37.068367 -38.696531 
L -36.697113 -39.897246 
L -35.657117 -39.150655 
L -36.558354 -37.581082 
L -34.986902 -39.417077 
L -33.572384 -39.012701 
L -34.187017 -37.603578 
L -30.024095 -39.722581 
L -24.087756 -39.804879 
L -24.18402 -40.914406 
L -21.008075 -40.379773 
L -21.991409 -38.52188 
L -21.31357 -37.839821 
L -21.996131 -36.436023 
L -29.782172 -30.125793 
L -30.518128 -30.541431 
L -29.848279 -29.140602 
L -33.267978 -29.727936 
L -30.121082 -28.417102 
L -27.795881 -28.962386 
L -29.660116 -26.639121 
L -32.396522 -26.408814 
L -33.589819 -24.915618 
L -29.848279 -26.530777 
L -30.701934 -24.941081 
L -32.109185 -24.544985 
L -31.987129 -23.750435 
L -24.490247 -27.036993 
L -11.889247 -26.738589 
L -10.387544 -25.438421 
L -9.761654 -23.402894 
L -11.734134 -21.157781 
L -13.574033 -15.268514 
L -15.716883 -12.893144 
L -16.503689 -10.568104 
L -18.406071 -8.793688 
L -21.378597 -8.534367 
L -23.725233 -7.285693 
L -19.810778 -8.625541 
L -19.077 -6.987289 
L -17.059473 -6.003276 
L -20.519131 -4.953553 
L -23.896683 -2.356751 
L -28.313884 -3.51009 
L -26.695937 -2.109857 
L -21.53588 -1.188018 
L -17.58002 -2.806132 
L -13.142117 -0.719096 
L -10.271667 3.38036 
L -8.614493 4.075442 
L -7.606457 10.302791 
L -5.441806 16.249489 
L -4.520232 16.936292 
L -4.801391 18.035167 
L 0.918807 20.193836 
L 2.637374 23.535453 
L 5.270623 25.508208 
L 3.985418 26.808377 
L 7.136304 32.339451 
L 7.27725 32.820217 
L 7.115968 33.346556 
L 3.62035 30.989549 
L 0.25768 31.039283 
L -0.540759 31.495764 
L 3.450703 31.401622 
L 7.904229 35.586344 
L 9.128407 39.569759 
L 6.03637 43.342394 
L 9.377597 45.060572 
L 11.02969 42.13695 
L 17.324196 42.720734 
L 20.623286 44.952228 
L 21.543057 47.144043 
L 21.756645 49.170693 
L 20.070413 55.055231 
L 17.838565 57.112656 
L 17.232655 56.322835 
L 16.281647 55.826093 
L 17.322018 56.810106 
L 15.489019 56.918449 
L 17.38958 57.017917 
L 16.653624 58.020875 
L 17.339453 58.49927 
L 15.456327 59.510522 
L 14.692036 58.517036 
L 12.181208 60.314544 
L 14.247416 59.971732 
L 14.198012 62.231061 
L 10.0162 63.435312 
L 9.377597 64.198491 
L 12.147792 63.850354 
L 10.89528 64.794105 
L 12.429675 64.694637 
L 12.76896 65.489187 
L 14.668789 65.710618 
L 18.873848 65.220394 
L 18.243235 66.044554 
L 18.304263 68.584507 
L 15.469406 69.854483 
L 14.692036 71.982376 
L 12.751525 71.79706 
L 8.364115 74.467269 
L 3.537165 73.24643 
L -1.107434 74.719489 
L -2.439856 73.072361 
L -3.167822 73.066439 
L -3.721427 73.97882 
L -3.600104 73.066439 
L -4.453027 73.066439 
L -4.331694 73.972301 
L -7.146572 71.982376 
L -5.815239 73.698183 
L -7.992593 74.880535 
L -12.257957 74.575613 
L -12.648093 75.171823 
L -11.488577 75.497466 
L -11.599366 76.579754 
L -15.466237 75.948622 
L -15.95736 77.664428 
L -19.630605 74.665026 
L -24.124082 76.363066 
L -24.983548 75.469048 
L -25.189155 78.657317 
L -25.803422 79.054592 
L -25.189155 79.452463 
L -26.735173 82.126223 
L -30.250038 80.971706 
L -31.555222 78.657317 
L -32.352929 79.56021 
L -31.494561 80.653164 
L -35.963335 80.344706 
L -38.713917 83.245236 
L -39.16508 82.493305 
L -39.816762 83.940318 
L -39.196683 84.460153 
L -40.398694 85.936762 
L -42.931323 83.444158 
L -44.987354 84.580923 
L -44.804271 82.991823 
L -41.502994 81.65199 
L -39.141101 79.104326 
L -38.831607 77.513451 
L -37.307023 77.86217 
L -37.982684 76.769217 
L -36.839514 76.681593 
L -34.91825 74.069397 
L -34.464542 70.573849 
L -32.779757 70.840285 
L -31.621696 69.680428 
L -31.804779 67.991264 
L -27.703974 67.187242 
L -21.032411 67.991264 
L -20.611395 65.200853 
L -15.332559 59.540118 
L -17.849922 61.810098 
L -20.611395 62.599919 
L -22.487254 65.006064 
L -25.650853 64.993041 
L -28.350941 61.747938 
L -32.352929 62.707666 
L -32.352929 61.813648 
L -30.579878 61.480905 
L -30.394617 60.955745 
L -32.579605 60.933847 
L -33.024233 59.310393 
L -38.165757 62.112052 
L -39.76118 60.920227 
L -37.307023 60.405122 
L -37.12394 59.213297 
L -40.324597 60.76215 
L -40.919607 60.115608 
L -39.676548 59.463742 
L -39.816039 58.335867 
L -41.468124 58.219811 
L -39.319105 55.857478 
L -37.276509 56.025028 
L -32.584327 53.093709 
L -30.743348 50.925568 
L -30.269661 48.537175 
L -29.294674 48.24884 
L -30.885017 47.453694 
L -29.660116 45.556718 
L -31.095337 44.424696 
L -30.457823 42.757431 
L -36.575057 44.753292 
L -32.96284 41.276093 
L -31.353615 38.524168 
L -28.258668 37.48332 
L -28.679318 36.778169 
L -26.213537 37.48687 
L -23.78626 36.571536 
L -21.620886 38.275498 
L -22.501056 35.975325 
L -21.357529 35.364316 
L -19.779541 37.493971 
L -18.157238 36.571536 
L -20.167499 36.597596 
L -21.747298 33.570359 
L -19.936101 30.989549 
L -21.276521 30.493402 
L -21.342995 28.505238 
L -19.569578 27.61122 
L -19.320388 26.906666 
L -20.107194 26.64023 
L -19.015973 25.318148 
L -19.536154 24.315787 
L -19.14384 24.056466 
L -19.015973 23.52064 
L -20.294634 24.882984 
L -21.276521 23.908443 
L -22.135256 26.211584 
L -22.988545 25.508208 
L -22.688861 23.312829 
L -23.576297 24.347754 
L -26.499053 19.676955 
L -24.30063 14.286206 
L -21.032411 12.94518 
L -25.930923 12.655652 
L -26.030454 14.282656 
L -28.130801 14.245348 
L -29.869347 15.961751 
L -33.361697 13.938069 
L -33.178614 17.244168 
L -37.434524 14.534876 
L -38.288902 15.430072 
L -37.434524 17.929777 
L -40.09502 14.348366 
L -40.217066 12.462638 
L -38.652889 13.748605 
L -38.761866 10.534873 
L -35.28005 5.377982 
L -37.982684 2.279112 
L -37.451959 1.578108 
L -37.678634 -0.792519 
L -34.064961 -0.918032 
L -37.12394 -3.103939 
L -36.718547 -1.846389 
L -37.366961 -1.787183 
L -37.490472 -2.932242 
L -36.509673 -4.966575 
L -37.368051 -3.600085 
L -37.982684 -4.404704 
L -37.73385 -1.81205 
L -38.287813 -1.911518 
L -38.541734 -0.084996 
L -39.795693 -2.10571 
L -39.464764 -0.524904 
L -40.304974 -1.514839 
L -40.853134 -0.402941 
L -40.487334 0.490495 
L -41.340989 0.182022 
L -41.712234 -1.911518 
L -37.982684 -6.003276 
L -42.659609 -2.362673 
L -41.529151 1.195646 
L -43.067546 3.209841 
L -42.754052 3.975974 
L -43.911389 6.369692 
L -43.379576 7.370875 
L -45.681173 8.026889 
L -44.770856 2.775273 
L -42.754052 0.282669 
L -44.587773 0.987238 
L -43.790057 -1.008624 
L -44.909257 -0.738638 
L -43.790057 -2.507728 
L -45.008423 -1.125844 
L -43.438068 -3.217608 
L -43.241907 -4.702511 
L -44.100284 -3.997957 
L -43.091882 -5.750474 
L -43.978586 -5.596529 
L -43.803868 -6.735069 
L -42.692667 -7.195116 
L -43.49074 -7.195116 
L -42.772219 -8.376275 
L -40.555628 -8.463317 
L -39.750289 -9.349637 
L -39.268611 -10.184448 
L -40.487334 -8.685344 
L -42.875741 -8.883683 
L -40.853134 -10.184448 
L -42.387529 -9.886641 
L -41.529151 -11.584085 
L -38.652889 -12.379231 
L -40.819352 -12.388704 
L -39.76118 -13.870056 
L -44.709828 -9.191559 
L -47.692522 -11.306998 
L -43.545956 -12.080828 
L -49.063457 -11.829801 
z
" clip-path="url(#p9cc2227126)" style="fill: #eeeeee; stroke: #000000; stroke-width: 0.3"/>
    <path d="M -9.144119 -64.312827 
L -6.232255 -64.328221 
L -5.307038 -65.330001 
L -6.509058 -65.837991 
L -6.963855 -67.326444 
L -8.422688 -67.196784 
L -7.687098 -68.266049 
L -7.045228 -67.568013 
L -6.414606 -67.615376 
L -7.268627 -68.012054 
L -5.67357 -69.520631 
L -6.287837 -66.01561 
L -4.924536 -67.409921 
L -4.337149 -66.432427 
L -4.953594 -66.116853 
L -3.289877 -66.720761 
L -4.099216 -65.747399 
L -3.611361 -65.395129 
L -4.520232 -65.221657 
L -3.78391 -64.129286 
L -4.941239 -63.631961 
L -4.087593 -62.340668 
L -4.886032 -61.726095 
L -4.453027 -61.040485 
L -5.433816 -58.042262 
L -6.339054 -58.834455 
L -5.327018 -61.838003 
L -5.372789 -63.731429 
L -6.652905 -63.930364 
L -6.104754 -63.235268 
L -7.048495 -62.436571 
L -7.478947 -63.704787 
L -8.559277 -63.324681 
z
" clip-path="url(#p9cc2227126)" style="fill: #eeeeee; stroke: #000000; stroke-width: 0.3"/>
    <path d="M -57.66355 -28.689446 
L -55.110584 -30.125793 
L -57.553841 -30.920343 
L -55.963507 -31.823848 
L -57.066718 -31.624912 
L -57.553841 -33.711351 
L -55.719763 -34.21697 
L -55.985299 -34.132897 
L -55.293667 -32.617801 
L -55.381932 -33.819098 
L -53.952524 -33.819098 
L -54.927502 -35.211052 
L -49.610884 -38.326495 
L -49.114673 -36.104473 
L -50.88809 -34.514777 
L -49.0482 -34.21697 
L -51.192862 -34.117502 
L -50.949118 -33.115141 
L -53.148996 -32.319994 
L -51.25389 -32.617801 
L -50.766035 -31.624912 
L -52.484236 -31.317633 
L -51.685797 -30.721422 
L -52.417763 -29.917982 
L -53.520241 -30.026325 
L -53.952524 -31.119279 
L -52.904886 -31.914425 
L -53.764352 -31.914425 
L -54.44037 -31.119279 
L -53.520241 -29.321174 
L -54.64561 -29.590564 
L -54.243128 -28.610698 
L -56.14659 -27.335396 
z
" clip-path="url(#p9cc2227126)" style="fill: #eeeeee; stroke: #000000; stroke-width: 0.3"/>
    <path d="M -67.026292 20.42113 
L -62.866432 18.34882 
L -64.846482 17.002133 
L -61.395234 16.347953 
L -60.164852 12.53721 
L -57.026393 11.880047 
L -56.212697 9.756897 
L -48.521109 9.498769 
L -47.496727 12.854588 
L -44.850765 15.599398 
L -46.79274 18.327634 
L -43.822749 17.244168 
L -42.565157 20.43184 
L -43.296756 22.220472 
L -43.673814 19.691171 
L -44.959018 18.7338 
L -44.277189 20.721367 
L -45.020412 22.021536 
L -43.867431 21.556761 
L -43.629498 22.795962 
L -46.38807 23.785301 
L -46.671408 25.616552 
L -48.330036 26.63668 
L -50.787282 25.529685 
L -53.249429 26.531246 
L -53.336159 24.695048 
L -54.652815 24.185995 
L -56.706221 21.127926 
L -58.265068 22.269347 
L -57.915838 23.876955 
L -59.047036 25.304107 
L -61.983897 25.104094 
L -64.192774 24.063436 
z
" clip-path="url(#p9cc2227126)" style="fill: #eeeeee; stroke: #000000; stroke-width: 0.3"/>
    <path d="M -54.617284 -23.153642 
L -54.011007 -23.994376 
L -53.036752 -22.97128 
L -53.24926 -23.813192 
L -52.655695 -23.839834 
L -53.337168 -25.349022 
L -50.395147 -23.243638 
L -51.330532 -25.909103 
L -50.395147 -26.738589 
L -48.993341 -25.090283 
L -49.297756 -22.250152 
L -48.505495 -21.34784 
L -48.993341 -20.958845 
L -44.471529 -20.362649 
L -47.67981 -16.925114 
L -46.239135 -19.251929 
L -48.012551 -19.857612 
L -48.410677 -18.36619 
L -49.087793 -19.441974 
L -50.461629 -18.855251 
L -50.090017 -19.450865 
L -51.924096 -21.049437 
L -50.511033 -21.043515 
L -52.356735 -22.557432 
L -52.655695 -21.555056 
z
" clip-path="url(#p9cc2227126)" style="fill: #eeeeee; stroke: #000000; stroke-width: 0.3"/>
    <path d="M -24.111012 -45.847494 
L -23.728134 -47.467383 
L -22.46873 -47.754539 
L -20.7883 -46.679949 
L -21.879165 -45.586995 
L -18.406071 -45.18972 
L -19.264806 -43.889537 
L -20.669521 -45.032821 
L -22.647813 -44.38983 
L -22.871944 -46.174315 
L -23.421184 -44.891317 
z
" clip-path="url(#p9cc2227126)" style="fill: #eeeeee; stroke: #000000; stroke-width: 0.3"/>
    <path d="M -52.114803 2.675209 
L -51.594264 0.238275 
L -50.577872 -0.360308 
L -50.395147 0.68054 
L -48.870563 -1.108092 
L -47.890862 1.980723 
L -50.184826 4.172538 
L -50.469619 3.44786 
L -49.791057 2.983681 
L -50.522656 2.179659 
L -49.851352 1.285627 
z
" clip-path="url(#p9cc2227126)" style="fill: #eeeeee; stroke: #000000; stroke-width: 0.3"/>
    <path d="M -50.88809 -6.649221 
L -49.82665 -6.496469 
L -47.805498 -7.520147 
L -49.43397 -7.49528 
L -47.768441 -9.289834 
L -50.6389 -9.994388 
L -48.970094 -11.445549 
L -44.836963 -8.288069 
L -45.911839 -6.601859 
L -50.001743 -5.795465 
z
" clip-path="url(#p9cc2227126)" style="fill: #eeeeee; stroke: #000000; stroke-width: 0.3"/>
    <path d="M -60.612829 -19.956483 
L -60.026165 -21.051212 
L -60.369084 -22.151863 
L -58.291618 -20.958845 
L -58.839046 -19.956483 
L -59.698512 -20.046479 
L -58.867381 -18.837484 
L -59.637485 -18.664594 
L -58.474335 -18.168448 
L -59.698512 -17.960636 
z
" clip-path="url(#p9cc2227126)" style="fill: #eeeeee; stroke: #000000; stroke-width: 0.3"/>
    <path d="M -34.862668 37.682256 
L -34.862668 35.975325 
L -32.663513 35.586344 
L -31.579192 37.347141 
L -30.147605 37.284384 
L -33.394756 39.790011 
L -33.202951 39.035723 
L -34.187017 39.073016 
z
" clip-path="url(#p9cc2227126)" style="fill: #eeeeee; stroke: #000000; stroke-width: 0.3"/>
    <path d="M -61.410902 -25.140017 
L -59.33307 -26.530777 
L -57.127746 -25.736824 
L -58.474335 -25.736824 
L -57.668272 -24.822072 
L -59.33307 -24.544985 
L -57.953422 -23.948192 
z
" clip-path="url(#p9cc2227126)" style="fill: #eeeeee; stroke: #000000; stroke-width: 0.3"/>
    <path d="M -4.356397 -67.560898 
L -3.999685 -70.56385 
L -2.868138 -70.315777 
L -2.924443 -69.412884 
L -3.539076 -69.809562 
L -3.195068 -67.482747 
z
" clip-path="url(#p9cc2227126)" style="fill: #eeeeee; stroke: #000000; stroke-width: 0.3"/>
    <path d="M -24.706022 -43.939271 
L -23.034315 -44.102689 
L -22.379366 -42.994923 
L -23.055018 -42.589369 
L -22.013201 -42.79718 
L -23.509458 -42.399309 
z
" clip-path="url(#p9cc2227126)" style="fill: #eeeeee; stroke: #000000; stroke-width: 0.3"/>
    <path d="M -48.290809 -0.738638 
L -46.604934 -1.614307 
L -47.580278 -1.758169 
L -44.834062 -3.767053 
L -47.280952 0.879476 
L -48.176744 0.810797 
z
" clip-path="url(#p9cc2227126)" style="fill: #eeeeee; stroke: #000000; stroke-width: 0.3"/>
    <path d="M -42.199723 3.181424 
L -40.462632 2.34069 
L -39.324184 5.177868 
L -39.743745 6.190298 
L -41.412185 5.86467 
z
" clip-path="url(#p9cc2227126)" style="fill: #eeeeee; stroke: #000000; stroke-width: 0.3"/>
    <path d="M -2.680699 -70.206255 
L -2.436588 -71.806006 
L -0.945786 -72.290322 
L -1.392593 -70.131057 
z
" clip-path="url(#p9cc2227126)" style="fill: #eeeeee; stroke: #000000; stroke-width: 0.3"/>
    <path d="M -3.286976 -65.113299 
L -3.039955 -65.532487 
L -2.257505 -65.782932 
L -2.768241 -65.115671 
z
" clip-path="url(#p9cc2227126)" style="fill: #eeeeee; stroke: #000000; stroke-width: 0.3"/>
    <path d="M -8.0667 75.767452 
L -5.826139 74.106705 
L -3.721427 74.962833 
L -5.47523 76.866313 
z
" clip-path="url(#p9cc2227126)" style="fill: #eeeeee; stroke: #000000; stroke-width: 0.3"/>
    <path d="M -18.035183 -46.910852 
L -17.425273 -47.475677 
L -17.851377 -47.871773 
L -16.50551 -46.978338 
z
" clip-path="url(#p9cc2227126)" style="fill: #eeeeee; stroke: #000000; stroke-width: 0.3"/>
    <path d="M -19.320388 -48.477456 
L -18.704666 -49.281479 
L -18.46709 -47.772902 
L -18.954945 -47.727897 
z
" clip-path="url(#p9cc2227126)" style="fill: #eeeeee; stroke: #000000; stroke-width: 0.3"/>
    <path d="M -21.276521 -50.266089 
L -20.526755 -50.864656 
L -19.320388 -49.281479 
L -19.814045 -48.965905 
z
" clip-path="url(#p9cc2227126)" style="fill: #eeeeee; stroke: #000000; stroke-width: 0.3"/>
    <path d="M -40.473532 -0.667587 
L -39.414637 -0.209331 
L -38.958028 1.683498 
L -39.724131 1.176104 
z
" clip-path="url(#p9cc2227126)" style="fill: #eeeeee; stroke: #000000; stroke-width: 0.3"/>
    <path d="M -48.236316 -22.85761 
L -47.559933 -23.889568 
L -47.525786 -21.565721 
L -48.194911 -21.555056 
z
" clip-path="url(#p9cc2227126)" style="fill: #eeeeee; stroke: #000000; stroke-width: 0.3"/>
    <path d="M -49.973408 -8.992624 
L -49.541858 -9.289834 
L -49.0482 -8.793688 
L -49.739474 -8.800789 
z
" clip-path="url(#p9cc2227126)" style="fill: #eeeeee; stroke: #000000; stroke-width: 0.3"/>
    <path d="M -51.685797 -16.569876 
L -50.522656 -17.364426 
L -49.791057 -16.660453 
L -50.08384 -15.829789 
z
" clip-path="url(#p9cc2227126)" style="fill: #eeeeee; stroke: #000000; stroke-width: 0.3"/>
    <path d="M -53.032752 -17.264958 
L -52.417763 -17.571641 
L -51.990935 -17.364426 
L -52.514027 -17.204558 
z
" clip-path="url(#p9cc2227126)" style="fill: #eeeeee; stroke: #000000; stroke-width: 0.3"/>
    <path d="M -53.885684 -10.482852 
L -52.612103 -11.641516 
L -51.719221 -11.828608 
L -53.12175 -10.330682 
z
" clip-path="url(#p9cc2227126)" style="fill: #eeeeee; stroke: #000000; stroke-width: 0.3"/>
    <path d="M -61.517334 -15.829192 
L -60.557247 -17.364426 
L -60.063946 -16.660453 
L -60.522377 -15.742165 
z
" clip-path="url(#p9cc2227126)" style="fill: #eeeeee; stroke: #000000; stroke-width: 0.3"/>
    <path d="M 12.496514 64.794105 
L 12.791484 64.273689 
L 14.304078 65.392688 
z
" clip-path="url(#p9cc2227126)" style="fill: #eeeeee; stroke: #000000; stroke-width: 0.3"/>
    <path d="M -2.436588 -69.312237 
L -1.394771 -69.312237 
L -1.69882 -68.418801 
z
" clip-path="url(#p9cc2227126)" style="fill: #eeeeee; stroke: #000000; stroke-width: 0.3"/>
    <path d="M -3.167822 73.870462 
L -2.737727 73.268343 
L -2.436588 73.97882 
z
" clip-path="url(#p9cc2227126)" style="fill: #eeeeee; stroke: #000000; stroke-width: 0.3"/>
    <path d="M -4.187124 -62.763989 
L -3.692002 -62.903718 
L -3.731595 -61.694127 
z
" clip-path="url(#p9cc2227126)" style="fill: #eeeeee; stroke: #000000; stroke-width: 0.3"/>
    <path d="M -6.267126 -60.8161 
L -6.068795 -61.749186 
L -5.960541 -60.798334 
z
" clip-path="url(#p9cc2227126)" style="fill: #eeeeee; stroke: #000000; stroke-width: 0.3"/>
    <path d="M -8.564366 -53.700655 
L -8.188389 -53.76104 
L -8.310078 -53.354889 
z
" clip-path="url(#p9cc2227126)" style="fill: #eeeeee; stroke: #000000; stroke-width: 0.3"/>
    <path d="M -12.91254 -62.171925 
L -12.694587 -62.42592 
L -12.472277 -61.880622 
z
" clip-path="url(#p9cc2227126)" style="fill: #eeeeee; stroke: #000000; stroke-width: 0.3"/>
    <path d="M -18.0933 -48.411149 
L -17.3697 -49.877093 
L -15.413923 -49.766974 
z
" clip-path="url(#p9cc2227126)" style="fill: #eeeeee; stroke: #000000; stroke-width: 0.3"/>
    <path d="M -21.154832 -42.994923 
L -19.798789 -43.171363 
L -20.301177 -41.694754 
z
" clip-path="url(#p9cc2227126)" style="fill: #eeeeee; stroke: #000000; stroke-width: 0.3"/>
    <path d="M -21.91258 -48.182603 
L -20.417421 -48.278521 
L -21.656846 -47.691186 
z
" clip-path="url(#p9cc2227126)" style="fill: #eeeeee; stroke: #000000; stroke-width: 0.3"/>
    <path d="M -35.803508 67.981792 
L -35.687987 68.392686 
L -35.75047 68.461947 
z
" clip-path="url(#p9cc2227126)" style="fill: #eeeeee; stroke: #000000; stroke-width: 0.3"/>
    <path d="M -35.960067 37.184916 
L -35.355969 37.021513 
L -34.796561 38.170123 
z
" clip-path="url(#p9cc2227126)" style="fill: #eeeeee; stroke: #000000; stroke-width: 0.3"/>
    <path d="M -43.911389 -7.592973 
L -43.392654 -7.979 
L -43.180513 -8.089133 
z
" clip-path="url(#p9cc2227126)" style="fill: #eeeeee; stroke: #000000; stroke-width: 0.3"/>
    <path d="M -44.24231 -5.978409 
L -44.233963 -6.678831 
L -43.911389 -6.698955 
z
" clip-path="url(#p9cc2227126)" style="fill: #eeeeee; stroke: #000000; stroke-width: 0.3"/>
    <path d="M -44.643712 -5.198672 
L -44.143144 -5.590607 
L -44.382898 -4.715534 
z
" clip-path="url(#p9cc2227126)" style="fill: #eeeeee; stroke: #000000; stroke-width: 0.3"/>
    <path d="M -45.380034 -4.305236 
L -45.28377 -4.543837 
L -44.706195 -4.565154 
z
" clip-path="url(#p9cc2227126)" style="fill: #eeeeee; stroke: #000000; stroke-width: 0.3"/>
    <path d="M -47.530151 -24.266719 
L -47.279497 -24.912067 
L -47.219567 -24.84221 
z
" clip-path="url(#p9cc2227126)" style="fill: #eeeeee; stroke: #000000; stroke-width: 0.3"/>
    <path d="M -47.743739 -21.131138 
L -46.988892 -20.981937 
L -47.689255 -20.929846 
z
" clip-path="url(#p9cc2227126)" style="fill: #eeeeee; stroke: #000000; stroke-width: 0.3"/>
    <path d="M -50.02899 -2.507728 
L -48.810267 -3.600085 
L -49.175701 -2.59832 
z
" clip-path="url(#p9cc2227126)" style="fill: #eeeeee; stroke: #000000; stroke-width: 0.3"/>
    <path d="M -50.151045 8.266668 
L -49.175701 8.167215 
L -49.1539 8.322921 
z
" clip-path="url(#p9cc2227126)" style="fill: #eeeeee; stroke: #000000; stroke-width: 0.3"/>
    <path d="M -50.379533 86.598683 
L -50.156491 86.466069 
L -50.273457 86.657308 
z
" clip-path="url(#p9cc2227126)" style="fill: #eeeeee; stroke: #000000; stroke-width: 0.3"/>
    <path d="M -50.734798 85.860968 
L -50.53428 86.08122 
L -50.588041 86.190161 
z
" clip-path="url(#p9cc2227126)" style="fill: #eeeeee; stroke: #000000; stroke-width: 0.3"/>
    <path d="M -55.476018 -34.813181 
L -54.683391 -34.117502 
L -55.415714 -34.117502 
z
" clip-path="url(#p9cc2227126)" style="fill: #eeeeee; stroke: #000000; stroke-width: 0.3"/>
    <path d="M -56.456808 -9.289834 
L -54.129786 -9.678233 
L -55.48982 -8.426009 
z
" clip-path="url(#p9cc2227126)" style="fill: #eeeeee; stroke: #000000; stroke-width: 0.3"/>
    <path d="M -57.255247 -29.321174 
L -56.884001 -29.845156 
L -56.523647 -29.827404 
z
" clip-path="url(#p9cc2227126)" style="fill: #eeeeee; stroke: #000000; stroke-width: 0.3"/>
    <path d="M -58.323221 -26.81319 
L -58.155395 -27.202186 
L -57.904027 -27.080208 
z
" clip-path="url(#p9cc2227126)" style="fill: #eeeeee; stroke: #000000; stroke-width: 0.3"/>
    <path d="M -60.186001 -22.996147 
L -59.846716 -23.632022 
L -58.380982 -22.603019 
z
" clip-path="url(#p9cc2227126)" style="fill: #eeeeee; stroke: #000000; stroke-width: 0.3"/>
    <path d="M -70.878085 -28.536694 
L -70.404398 -28.427753 
L -70.749495 -28.221717 
z
" clip-path="url(#p9cc2227126)" style="fill: #eeeeee; stroke: #000000; stroke-width: 0.3"/>
    <path d="M 36.753328 63.083624 
L 40.324864 61.90424 
L 42.590126 64.306253 
L 44.182647 64.277239 
L 41.548309 62.202644 
L 43.504808 62.202644 
L 42.662777 61.488021 
L 43.233818 60.811884 
L 40.425118 58.917265 
L 42.347471 58.517036 
L 41.793874 56.419932 
L 42.920689 56.159432 
L 46.190729 51.346531 
L 48.309235 42.161817 
L 49.454949 43.087817 
L 51.279225 42.359574 
L 53.967315 40.273731 
L 55.862788 37.284384 
L 59.337702 35.781729 
L 66.910869 35.13401 
L 67.548749 36.571536 
L 70.173642 38.125118 
L 70.157841 41.719348 
L 68.763686 46.821136 
L 66.088862 47.005739 
L 65.505734 48.359192 
L 65.890486 49.525059 
L 68.198091 49.673184 
L 68.867029 50.928886 
L 68.671421 52.885024 
L 65.516812 55.512615 
L 66.74673 56.814573 
L 62.588709 58.844003 
L 60.642797 57.74357 
L 60.902995 58.539109 
L 58.8971 58.923333 
L 61.342187 64.121009 
L 60.014461 67.711063 
L 60.823639 68.57614 
L 58.192184 70.169474 
L 58.389632 71.295472 
L 60.078122 72.136875 
L 59.463623 74.430238 
L 56.889375 74.36783 
L 56.156767 73.260995 
L 57.983658 68.514867 
L 54.984975 66.622271 
L 52.50484 67.026807 
L 50.827419 63.8537 
L 49.781111 65.089104 
L 48.458001 64.776674 
L 48.998688 64.772163 
L 48.605633 63.583758 
L 47.279755 64.70638 
L 45.966786 63.889786 
L 45.021054 64.347329 
L 45.155759 65.692896 
L 41.643484 64.198491 
L 40.111267 65.101385 
z
" clip-path="url(#p9cc2227126)" style="fill: #eeeeee; stroke: #000000; stroke-width: 0.3"/>
    <path d="M 35.84626 65.331808 
L 37.559757 64.727798 
L 40.172295 65.797063 
L 41.512706 64.818972 
L 43.631622 65.436892 
L 42.716217 66.827929 
L 39.94636 67.803925 
L 38.168372 66.565509 
L 36.22338 67.200876 
z
" clip-path="url(#p9cc2227126)" style="fill: #eeeeee; stroke: #000000; stroke-width: 0.3"/>
    <path d="M 47.972136 41.276093 
L 49.281311 38.95875 
L 49.622775 40.074796 
L 48.757497 41.685794 
z
" clip-path="url(#p9cc2227126)" style="fill: #eeeeee; stroke: #000000; stroke-width: 0.3"/>
    <path d="M 63.57182 33.569762 
L 64.062943 33.780542 
L 63.940887 33.888304 
z
" clip-path="url(#p9cc2227126)" style="fill: #eeeeee; stroke: #000000; stroke-width: 0.3"/>
    <path d="M 60.646877 34.998427 
L 62.283714 34.209203 
L 62.532904 34.385629 
z
" clip-path="url(#p9cc2227126)" style="fill: #eeeeee; stroke: #000000; stroke-width: 0.3"/>
    <path d="M 56.26019 35.16183 
L 58.739782 34.795344 
L 59.10376 34.981257 
z
" clip-path="url(#p9cc2227126)" style="fill: #eeeeee; stroke: #000000; stroke-width: 0.3"/>
    <path d="M 52.078387 36.332339 
L 52.815066 35.776389 
L 55.806849 35.090198 
z
" clip-path="url(#p9cc2227126)" style="fill: #eeeeee; stroke: #000000; stroke-width: 0.3"/>
    <path d="M 49.779701 38.598769 
L 50.461164 37.470894 
L 51.517515 37.184916 
z
" clip-path="url(#p9cc2227126)" style="fill: #eeeeee; stroke: #000000; stroke-width: 0.3"/>
    <path d="M 38.857308 60.712416 
L 39.995755 59.904246 
L 42.541454 61.27369 
z
" clip-path="url(#p9cc2227126)" style="fill: #eeeeee; stroke: #000000; stroke-width: 0.3"/>
   </g>
   <g id="PatchCollection_2">
    <path d="M 36.753328 63.083624 
L 40.324864 61.90424 
L 42.590126 64.306253 
L 44.182647 64.277239 
L 41.548309 62.202644 
L 43.504808 62.202644 
L 42.662777 61.488021 
L 43.233818 60.811884 
L 40.425118 58.917265 
L 42.347471 58.517036 
L 41.793874 56.419932 
L 42.920689 56.159432 
L 46.190729 51.346531 
L 48.309235 42.161817 
L 49.454949 43.087817 
L 51.279225 42.359574 
L 53.967315 40.273731 
L 55.862788 37.284384 
L 59.337702 35.781729 
L 66.910869 35.13401 
L 67.548749 36.571536 
L 70.173642 38.125118 
L 70.157841 41.719348 
L 68.763686 46.821136 
L 66.088862 47.005739 
L 65.505734 48.359192 
L 65.890486 49.525059 
L 68.198091 49.673184 
L 68.867029 50.928886 
L 68.671421 52.885024 
L 65.516812 55.512615 
L 66.74673 56.814573 
L 62.588709 58.844003 
L 60.642797 57.74357 
L 60.902995 58.539109 
L 58.8971 58.923333 
L 61.342187 64.121009 
L 60.014461 67.711063 
L 60.823639 68.57614 
L 58.192184 70.169474 
L 58.389632 71.295472 
L 60.078122 72.136875 
L 59.463623 74.430238 
L 56.889375 74.36783 
L 56.156767 73.260995 
L 57.983658 68.514867 
L 54.984975 66.622271 
L 52.50484 67.026807 
L 50.827419 63.8537 
L 49.781111 65.089104 
L 48.458001 64.776674 
L 48.998688 64.772163 
L 48.605633 63.583758 
L 47.279755 64.70638 
L 45.966786 63.889786 
L 45.021054 64.347329 
L 45.155759 65.692896 
L 41.643484 64.198491 
L 40.111267 65.101385 
z
" clip-path="url(#p9cc2227126)" style="fill: #ff6b6b; stroke: #dd0000; stroke-width: 0.5"/>
    <path d="M 35.84626 65.331808 
L 37.559757 64.727798 
L 40.172295 65.797063 
L 41.512706 64.818972 
L 43.631622 65.436892 
L 42.716217 66.827929 
L 39.94636 67.803925 
L 38.168372 66.565509 
L 36.22338 67.200876 
z
" clip-path="url(#p9cc2227126)" style="fill: #ff6b6b; stroke: #dd0000; stroke-width: 0.5"/>
    <path d="M 47.972136 41.276093 
L 49.281311 38.95875 
L 49.622775 40.074796 
L 48.757497 41.685794 
z
" clip-path="url(#p9cc2227126)" style="fill: #ff6b6b; stroke: #dd0000; stroke-width: 0.5"/>
    <path d="M 63.57182 33.569762 
L 64.062943 33.780542 
L 63.940887 33.888304 
z
" clip-path="url(#p9cc2227126)" style="fill: #ff6b6b; stroke: #dd0000; stroke-width: 0.5"/>
    <path d="M 60.646877 34.998427 
L 62.283714 34.209203 
L 62.532904 34.385629 
z
" clip-path="url(#p9cc2227126)" style="fill: #ff6b6b; stroke: #dd0000; stroke-width: 0.5"/>
    <path d="M 56.26019 35.16183 
L 58.739782 34.795344 
L 59.10376 34.981257 
z
" clip-path="url(#p9cc2227126)" style="fill: #ff6b6b; stroke: #dd0000; stroke-width: 0.5"/>
    <path d="M 52.078387 36.332339 
L 52.815066 35.776389 
L 55.806849 35.090198 
z
" clip-path="url(#p9cc2227126)" style="fill: #ff6b6b; stroke: #dd0000; stroke-width: 0.5"/>
    <path d="M 49.779701 38.598769 
L 50.461164 37.470894 
L 51.517515 37.184916 
z
" clip-path="url(#p9cc2227126)" style="fill: #ff6b6b; stroke: #dd0000; stroke-width: 0.5"/>
    <path d="M 38.857308 60.712416 
L 39.995755 59.904246 
L 42.541454 61.27369 
z
" clip-path="url(#p9cc2227126)" style="fill: #ff6b6b; stroke: #dd0000; stroke-width: 0.5"/>
   </g>
  </g>
 </g>
 <defs>
  <clipPath id="p9cc2227126">
   <rect x="0" y="0" width="106.019902" height="108"/>
  </clipPath>
 </defs>
</svg>
