<?xml version="1.0" encoding="utf-8" standalone="no"?>
<!DOCTYPE svg PUBLIC "-//W3C//DTD SVG 1.1//EN"
  "http://www.w3.org/Graphics/SVG/1.1/DTD/svg11.dtd">
<svg xmlns:xlink="http://www.w3.org/1999/xlink" width="168.463463pt" height="108pt" viewBox="0 0 168.463463 108" xmlns="http://www.w3.org/2000/svg" version="1.1">
 <metadata>
  <rdf:RDF xmlns:dc="http://purl.org/dc/elements/1.1/" xmlns:cc="http://creativecommons.org/ns#" xmlns:rdf="http://www.w3.org/1999/02/22-rdf-syntax-ns#">
   <cc:Work>
    <dc:type rdf:resource="http://purl.org/dc/dcmitype/StillImage"/>
    <dc:date>2025-09-05T15:49:29.587744</dc:date>
    <dc:format>image/svg+xml</dc:format>
    <dc:creator>
     <cc:Agent>
      <dc:title>Matplotlib v3.10.3, https://matplotlib.org/</dc:title>
     </cc:Agent>
    </dc:creator>
   </cc:Work>
  </rdf:RDF>
 </metadata>
 <defs>
  <style type="text/css">*{stroke-linejoin: round; stroke-linecap: butt}</style>
 </defs>
 <g id="figure_1">
  <g id="patch_1">
   <path d="M 0 108 
L 168.463463 108 
L 168.463463 0 
L 0 0 
z
" style="fill: #ffffff"/>
  </g>
  <g id="axes_1">
   <g id="PatchCollection_1">
    <path d="M 75.741208 76.975623 
L 78.430503 76.628246 
L 78.026436 75.520452 
L 78.921321 75.323457 
L 79.716172 73.334498 
L 87.313806 76.469188 
L 90.220463 74.966198 
L 92.936835 76.348617 
L 93.880095 75.852462 
L 95.748339 78.342324 
L 97.827526 78.251971 
L 98.875949 79.14034 
L 101.77466 78.046497 
L 101.393042 76.531134 
L 101.987519 76.655846 
L 102.714932 78.042965 
L 102.221333 77.454809 
L 102.065457 79.051297 
L 102.773386 78.49978 
L 107.011226 85.971646 
L 111.753804 91.311212 
L 114.318063 92.879002 
L 113.316179 93.47366 
L 111.072918 92.154404 
L 111.0853 93.418672 
L 109.998568 93.842005 
L 110.025087 98.482094 
L 112.533469 100.096568 
L 110.212145 102.030446 
L 111.063501 105.433457 
L 108.739817 107.041897 
L 109.976188 107.96653 
L 110.628982 109.678303 
L 110.501061 110.467057 
L 109.69311 108.286366 
L 107.613854 106.554735 
L 108.277251 105.649655 
L 107.38004 103.418372 
L 103.841773 102.539944 
L 106.05742 104.537113 
L 106.05742 106.467645 
L 102.771528 105.669641 
L 100.933508 103.941811 
L 102.773386 101.654862 
L 102.007927 101.729567 
L 102.773386 100.609879 
L 102.097003 98.663161 
L 95.557233 93.740917 
L 90.903253 92.418527 
L 89.568582 87.870778 
L 88.231117 87.870778 
L 88.946012 87.630945 
L 83.234784 84.183389 
L 84.409406 87.065161 
L 88.075252 89.482025 
L 85.188319 92.683094 
L 83.119268 89.729471 
L 78.963539 88.652609 
L 76.908876 84.782492 
L 77.30552 81.461027 
L 79.329104 80.219997 
L 78.550191 80.336101 
L 78.77566 78.171442 
z
" clip-path="url(#p73ce75e5b5)" style="fill: #eeeeee; stroke: #000000; stroke-width: 0.3"/>
    <path d="M 99.261444 102.535255 
L 99.42505 102.528308 
L 99.322873 102.70099 
z
" clip-path="url(#p73ce75e5b5)" style="fill: #eeeeee; stroke: #000000; stroke-width: 0.3"/>
    <path d="M 84.26142 86.107268 
L 85.272288 86.194346 
L 85.422133 86.50603 
z
" clip-path="url(#p73ce75e5b5)" style="fill: #eeeeee; stroke: #000000; stroke-width: 0.3"/>
    <path d="M 62.387949 139.933539 
L 62.992893 139.433419 
L 62.982221 139.705132 
z
" clip-path="url(#p73ce75e5b5)" style="fill: #eeeeee; stroke: #000000; stroke-width: 0.3"/>
    <path d="M 56.080123 53.645905 
L 56.124668 52.608068 
L 57.143882 51.410342 
L 59.254684 53.413206 
L 60.427916 53.340887 
L 59.408234 53.130559 
L 60.149101 52.616161 
L 63.329909 52.63693 
L 64.608123 51.390181 
L 64.746566 49.598627 
L 67.103838 48.905757 
L 66.395065 43.684914 
L 71.25276 43.551654 
L 74.027746 40.190346 
L 78.066796 42.767531 
L 78.239123 41.114979 
L 84.59773 36.942943 
L 84.87317 34.107108 
L 86.193795 33.818228 
L 85.916884 32.951612 
L 87.6237 31.151603 
L 88.901616 31.103865 
L 89.959765 32.815639 
L 92.429554 33.461368 
L 93.794952 32.337002 
L 94.885502 32.779982 
L 94.947958 31.835105 
L 96.015239 32.344557 
L 96.658615 31.427186 
L 98.791102 31.777697 
L 102.315221 30.500132 
L 103.529793 28.876278 
L 107.846711 29.046178 
L 105.981808 31.300253 
L 105.660775 30.018303 
L 105.117079 30.379479 
L 104.492651 31.304065 
L 105.922431 31.687122 
L 107.206538 36.640299 
L 104.417028 41.211834 
L 102.958951 47.53736 
L 103.840849 59.222439 
L 102.065457 59.584095 
L 102.065457 57.493182 
L 103.001636 56.658539 
L 102.903279 54.590946 
L 101.969892 54.893122 
L 102.61751 56.702312 
L 100.502067 57.855785 
L 101.622421 60.82226 
L 102.299271 60.024735 
L 101.683656 64.236042 
L 101.377479 62.513931 
L 101.026758 62.088516 
L 100.466815 62.023319 
L 101.202119 62.625275 
L 100.16806 63.389973 
L 100.670941 64.716655 
L 99.80156 65.60079 
L 100.58094 66.377393 
L 101.35381 65.850142 
L 101.903549 68.546332 
L 100.65702 69.274391 
L 99.438788 72.589189 
L 101.77466 78.046497 
L 98.769896 79.123722 
L 97.827526 78.251971 
L 95.748339 78.342324 
L 93.880095 75.852462 
L 92.936835 76.348617 
L 90.220463 74.966198 
L 87.313806 76.469188 
L 79.716172 73.334498 
L 78.531117 74.843768 
L 69.471427 66.908445 
L 66.322394 61.786351 
z
" clip-path="url(#p73ce75e5b5)" style="fill: #eeeeee; stroke: #000000; stroke-width: 0.3"/>
    <path d="M 111.51999 36.421399 
L 112.383339 36.383813 
L 112.174574 36.478504 
z
" clip-path="url(#p73ce75e5b5)" style="fill: #eeeeee; stroke: #000000; stroke-width: 0.3"/>
    <path d="M 108.695695 62.151328 
L 108.962914 61.86343 
L 109.092807 61.969079 
z
" clip-path="url(#p73ce75e5b5)" style="fill: #eeeeee; stroke: #000000; stroke-width: 0.3"/>
    <path d="M 101.502869 76.515043 
L 101.558403 76.506903 
L 101.631735 76.655308 
z
" clip-path="url(#p73ce75e5b5)" style="fill: #eeeeee; stroke: #000000; stroke-width: 0.3"/>
    <path d="M 100.941865 64.775666 
L 101.274949 64.246509 
L 101.126962 65.611736 
z
" clip-path="url(#p73ce75e5b5)" style="fill: #eeeeee; stroke: #000000; stroke-width: 0.3"/>
    <path d="M 28.40531 43.846955 
L 29.264167 41.44313 
L 31.397555 40.014787 
L 32.403259 40.265577 
L 33.062243 38.717575 
L 34.947292 37.995399 
L 34.268276 36.006837 
L 36.387515 35.497374 
L 39.171633 36.597567 
L 39.701887 36.075122 
L 42.76556 39.531613 
L 46.57807 40.896513 
L 46.664092 42.446024 
L 50.89875 40.807973 
L 52.153671 42.268652 
L 54.404593 41.689699 
L 55.707546 42.869356 
L 54.723334 46.169326 
L 55.507514 47.011174 
L 54.172056 47.243756 
L 53.767522 48.12885 
L 54.723653 49.043917 
L 53.146811 50.545234 
L 48.623658 50.452449 
L 48.311917 50.36536 
L 48.587482 50.095554 
L 48.241858 49.726297 
L 47.59888 50.393918 
L 47.202703 49.423173 
L 45.502922 49.080556 
L 44.087987 49.247578 
L 45.745549 49.326575 
L 47.064453 50.432463 
L 43.370777 49.532143 
L 38.060378 46.876873 
L 31.714586 46.239038 
z
" clip-path="url(#p73ce75e5b5)" style="fill: #eeeeee; stroke: #000000; stroke-width: 0.3"/>
    <path d="M 55.485191 50.481604 
L 55.679283 49.92438 
L 55.826278 50.437352 
z
" clip-path="url(#p73ce75e5b5)" style="fill: #eeeeee; stroke: #000000; stroke-width: 0.3"/>
    <path d="M 54.834666 49.574513 
L 55.162813 49.723245 
L 55.021234 49.89443 
z
" clip-path="url(#p73ce75e5b5)" style="fill: #eeeeee; stroke: #000000; stroke-width: 0.3"/>
    <path d="M 3.916287 34.317319 
L 4.890547 32.712598 
L 4.965669 29.058796 
L 5.882409 28.149272 
L 4.314927 25.829532 
L 9.689914 16.603441 
L 24.539033 16.160473 
L 25.023626 12.41419 
L 22.308143 11.664216 
L 20.439888 7.897397 
L 17.498765 6.697789 
L 14.938234 3.515969 
L 13.07999 2.839109 
L 18.216374 2.675935 
L 18.320649 -3.856925 
L 39.0974 -3.901037 
L 38.230733 18.557257 
L 43.35176 18.964685 
L 45.38231 20.800527 
L 45.970083 19.036537 
L 46.755027 19.108868 
L 45.425452 17.671789 
L 49.80942 20.525014 
L 39.093866 28.306693 
L 38.277273 30.782966 
L 39.098575 33.907973 
L 36.804351 35.846984 
L 34.268276 36.006837 
L 34.947292 37.995399 
L 33.062243 38.717575 
L 32.403259 40.265577 
L 31.397555 40.014787 
L 29.264167 41.44313 
L 28.40531 43.846955 
L 22.908765 41.72014 
L 14.516997 41.224149 
z
" clip-path="url(#p73ce75e5b5)" style="fill: #eeeeee; stroke: #000000; stroke-width: 0.3"/>
    <path d="M 36.804351 35.846984 
L 39.098575 33.907973 
L 38.277273 30.782966 
L 39.093866 28.306693 
L 48.717934 21.122058 
L 50.972915 20.873337 
L 52.887013 18.869983 
L 56.988006 18.071031 
L 58.263767 19.818836 
L 59.795142 19.06699 
L 64.67735 20.118627 
L 70.858065 19.995389 
L 75.891509 18.057231 
L 76.052025 17.273015 
L 75.040233 16.95325 
L 78.514472 17.591845 
L 80.961356 18.841997 
L 86.532271 17.457649 
L 90.219357 18.764392 
L 90.407453 19.953838 
L 92.770254 19.70645 
L 90.615227 18.919883 
L 94.573602 19.526798 
L 101.011446 24.315186 
L 97.886994 22.724405 
L 96.75134 22.564996 
L 96.914171 23.363 
L 96.446554 22.564996 
L 95.505734 22.564996 
L 98.635283 25.979725 
L 99.963467 25.845541 
L 97.630457 24.231921 
L 100.052544 25.249292 
L 100.670941 26.647826 
L 102.226896 25.548604 
L 103.318017 25.685653 
L 103.25864 26.540762 
L 102.578541 26.23717 
L 102.248707 26.95095 
L 103.840849 26.490323 
L 103.295751 25.491031 
L 102.376741 25.44582 
L 101.319026 24.309959 
L 104.681921 25.895501 
L 106.092684 28.211967 
L 107.846711 29.046178 
L 103.529793 28.876278 
L 102.315221 30.500132 
L 98.791102 31.777697 
L 96.658615 31.427186 
L 96.015239 32.344557 
L 94.947958 31.835105 
L 94.885502 32.779982 
L 93.794952 32.337002 
L 92.429554 33.461368 
L 89.959765 32.815639 
L 88.901616 31.103865 
L 87.6237 31.151603 
L 85.916884 32.951612 
L 86.193795 33.818228 
L 84.87317 34.107108 
L 84.59773 36.942943 
L 78.239123 41.114979 
L 78.066796 42.767531 
L 75.935483 41.733811 
L 74.900307 40.060711 
L 71.25276 43.551654 
L 66.395065 43.684914 
L 67.103838 48.905757 
L 64.746566 49.598627 
L 64.608123 51.390181 
L 63.329909 52.63693 
L 60.149101 52.616161 
L 60.264161 51.250454 
L 58.948496 51.098178 
L 57.889389 49.047718 
L 59.161902 47.592079 
L 56.677188 48.049853 
L 56.615018 46.947777 
L 55.831009 48.114571 
L 54.412825 47.645851 
L 55.507514 47.011174 
L 54.723334 46.169326 
L 55.707546 42.869356 
L 54.404593 41.689699 
L 52.153671 42.268652 
L 51.199227 40.824895 
L 49.648231 40.789238 
L 49.074093 41.805429 
L 46.664092 42.446024 
L 46.57807 40.896513 
L 42.76556 39.531613 
L 39.701887 36.075122 
z
" clip-path="url(#p73ce75e5b5)" style="fill: #eeeeee; stroke: #000000; stroke-width: 0.3"/>
    <path d="M 68.215321 13.983336 
L 70.109639 12.679201 
L 71.343981 12.294414 
L 73.058412 12.308717 
z
" clip-path="url(#p73ce75e5b5)" style="fill: #eeeeee; stroke: #000000; stroke-width: 0.3"/>
    <path d="M 98.727142 0.834152 
L 98.774924 0.753261 
L 98.932191 0.814166 
z
" clip-path="url(#p73ce75e5b5)" style="fill: #eeeeee; stroke: #000000; stroke-width: 0.3"/>
    <path d="M 75.734059 12.601491 
L 76.827848 11.267979 
L 77.217549 11.489112 
z
" clip-path="url(#p73ce75e5b5)" style="fill: #eeeeee; stroke: #000000; stroke-width: 0.3"/>
    <path d="M 63.759047 16.334769 
L 64.365062 15.954122 
L 65.11204 16.227097 
z
" clip-path="url(#p73ce75e5b5)" style="fill: #eeeeee; stroke: #000000; stroke-width: 0.3"/>
    <path d="M 56.216059 48.521426 
L 57.22182 48.049853 
L 56.988006 48.840723 
z
" clip-path="url(#p73ce75e5b5)" style="fill: #eeeeee; stroke: #000000; stroke-width: 0.3"/>
    <path d="M 56.047186 49.080556 
L 56.611313 49.442679 
L 56.1242 49.40652 
z
" clip-path="url(#p73ce75e5b5)" style="fill: #eeeeee; stroke: #000000; stroke-width: 0.3"/>
    <path d="M 154.693113 185.270829 
L 156.693552 183.127502 
L 159.826829 183.588012 
L 160.12132 182.038092 
L 159.40736 180.713784 
L 158.750838 181.240812 
L 158.322692 178.821317 
L 159.794268 175.975226 
L 159.966379 176.579088 
L 162.394497 173.463074 
L 163.435054 174.703743 
L 163.524199 173.280463 
L 163.970872 174.757035 
L 164.829114 175.278579 
L 165.367246 175.005908 
L 165.243784 173.422553 
L 166.911368 173.152793 
L 167.430734 174.258342 
L 168.167428 174.42347 
L 169.071126 174.122252 
L 169.172254 173.705398 
L 168.478713 172.100817 
L 169.88715 171.781999 
L 169.491428 171.215735 
L 170.488843 170.871212 
L 169.64499 170.303989 
L 170.675331 170.146486 
L 170.513424 169.406534 
L 169.51138 169.556903 
L 172.27167 166.686312 
L 171.563535 166.468594 
L 172.52588 165.181416 
L 174.104581 165.604456 
L 173.942207 163.36128 
L 174.727607 163.839987 
L 174.0721 162.939667 
L 176.392124 161.416937 
L 175.451315 160.651759 
L 176.308166 160.767875 
L 176.026102 159.830915 
L 177.380726 158.636043 
L 174.854262 159.513524 
L 174.317976 158.012674 
L 175.350643 157.917503 
L 175.583534 156.86444 
L 174.727607 156.386201 
L 173.793753 158.476154 
L 172.779179 157.308414 
L 172.876134 155.542518 
L 174.331897 155.275565 
L 175.046313 154.548933 
L 173.326136 153.59104 
L 174.175086 152.139203 
L 174.026643 148.851524 
L 174.79859 149.417788 
L 173.765923 147.66237 
L 173.397108 141.244035 
L 171.365179 140.073909 
L 174.93684 137.371065 
L 172.218313 132.054818 
L 172.22944 130.820453 
L 173.007885 131.466661 
L 173.397108 130.748122 
L 173.803033 127.642224 
L 173.051962 126.148987 
L 171.606871 126.501591 
L 170.976879 124.578192 
L 169.802257 124.331693 
L 170.158542 122.385935 
L 167.527039 119.818643 
L 168.389625 116.994994 
L 169.403594 116.365871 
L 169.027699 114.314767 
L 171.128081 116.388839 
L 173.86713 114.297237 
L 173.409353 113.511606 
L 174.315491 112.018287 
L 175.879142 111.583775 
L 172.168558 105.334345 
L 172.792484 103.526173 
L 173.731126 103.045782 
L 174.608385 105.075298 
L 178.173548 107.756261 
L 178.395767 109.366549 
L 179.652968 109.276617 
L 178.800301 111.697762 
L 180.508427 111.767239 
L 180.308019 106.000364 
L 178.342877 104.494275 
L 185.544197 99.789983 
L 187.224949 96.29055 
L 189.782481 94.024616 
L 191.286505 94.599838 
L 193.466922 93.882889 
L 193.971604 91.915472 
L 192.503482 90.984863 
L 194.492601 84.669709 
L 192.521268 85.912143 
L 194.663321 83.753695 
L 194.570539 82.90572 
L 193.947502 82.825775 
L 194.810851 81.780325 
L 194.918934 82.401308 
L 194.96626 81.620904 
L 194.618788 80.742488 
L 197.69824 79.218799 
L 197.494115 78.183336 
L 202.317162 74.50708 
L 208.54835 75.889043 
L 206.339532 76.029623 
L 206.451343 77.534274 
L 205.137536 77.33536 
L 205.120845 78.339891 
L 205.510523 77.766493 
L 205.74387 78.57259 
L 206.247218 78.541179 
L 206.13356 77.607552 
L 207.439478 78.719147 
L 210.195116 71.77072 
L 220.011509 72.351263 
L 226.294275 67.510401 
L 231.747097 65.42854 
L 233.165282 61.100638 
L 235.092367 61.111585 
L 234.573719 61.826323 
L 235.457476 62.148474 
L 236.215969 61.100638 
L 235.196288 60.788954 
L 237.795594 59.297624 
L 238.239553 59.822968 
L 238.953981 59.096816 
L 237.70142 59.184373 
L 238.444602 58.618109 
L 243.162132 60.097066 
L 244.848916 62.991211 
L 244.572883 63.910079 
L 241.476614 66.29007 
L 234.853183 68.199154 
L 231.701128 73.97811 
L 229.053402 74.376978 
L 226.959496 77.478116 
L 224.315304 82.421587 
L 223.509918 89.680856 
L 218.885524 97.158289 
L 220.925228 97.150442 
L 223.234182 95.724508 
L 223.854574 97.962667 
L 225.727549 97.846329 
L 227.045517 103.254227 
L 230.259435 106.71736 
L 230.918122 109.658364 
L 229.145899 111.604322 
L 229.288481 116.902525 
L 232.395171 118.102133 
L 233.625944 121.55349 
L 234.816654 122.417685 
L 239.073989 121.958392 
L 244.048934 123.005701 
L 249.529974 121.399378 
L 253.910738 123.28974 
L 256.075342 122.889071 
L 263.891547 132.833105 
L 265.17123 132.433933 
L 266.143654 133.319285 
L 268.252575 131.715078 
L 273.107329 132.673556 
L 280.601555 131.715078 
L 282.320752 130.597367 
L 286.621685 131.947754 
L 286.151526 132.92375 
L 286.935125 134.51708 
L 284.624404 136.782733 
L 284.716901 139.62341 
L 282.236498 141.989087 
L 282.70961 145.216538 
L 281.775186 151.422756 
L 284.548986 160.436707 
L 286.053135 160.950696 
L 288.223633 164.856517 
L 282.190551 170.678076 
L 281.993175 171.805166 
L 284.607907 171.528379 
L 285.18942 172.958838 
L 289.588746 176.42893 
L 289.274713 177.929499 
L 293.079561 188.643142 
L 293.176186 190.133443 
L 290.770026 190.677336 
L 290.415931 184.434864 
L 286.910384 179.425823 
L 281.161863 184.06652 
L 278.159459 180.866866 
L 277.155511 183.036132 
L 278.488803 184.3004 
L 262.770657 183.699087 
L 259.188211 184.459634 
L 259.233576 192.040715 
L 265.656701 192.28608 
L 267.21211 194.281599 
L 267.382374 196.827057 
L 265.562733 197.20174 
L 263.498869 195.860113 
L 256.929935 197.552251 
L 256.772623 206.303026 
L 261.883662 210.564795 
L 261.785271 213.007516 
L 264.395293 218.261607 
L 257.948009 253.974185 
L 254.001468 249.212027 
L 251.951753 249.787355 
L 249.178534 248.659668 
L 256.971173 236.182561 
L 256.342231 235.131018 
L 255.832897 235.645919 
L 250.951636 232.561387 
L 250.165096 233.09079 
L 247.235454 230.287875 
L 241.349355 232.216923 
L 240.942837 230.802777 
L 240.467958 231.503798 
L 240.008995 230.426877 
L 237.640539 229.366879 
L 235.331585 231.61016 
L 232.735118 232.618199 
L 230.436186 233.09079 
L 227.400195 231.726194 
L 226.623676 232.755985 
L 226.380935 232.117811 
L 224.08141 232.793455 
L 221.090203 230.31689 
L 222.078827 228.677927 
L 221.144403 225.348042 
L 219.348614 225.37101 
L 217.291237 224.004005 
L 217.676846 221.714788 
L 216.087565 219.108892 
L 213.572399 218.58674 
L 211.067255 216.018314 
L 208.902651 215.800759 
L 207.178746 210.776315 
L 204.62086 208.403692 
L 202.929072 208.085821 
L 202.541981 206.42389 
L 201.301483 206.879558 
L 198.927429 204.938442 
L 197.310751 205.681774 
L 193.396908 203.507374 
L 191.539256 203.443311 
L 188.532132 200.178694 
L 185.715909 199.031664 
L 184.394406 199.730276 
L 184.489845 201.453838 
L 182.695241 201.903472 
L 173.209035 199.897076 
L 172.404231 196.81859 
L 170.38043 196.053506 
L 169.723509 194.570467 
L 168.072651 194.966306 
L 164.971274 193.65671 
L 156.891567 187.656504 
L 156.526469 186.204199 
z
" clip-path="url(#p73ce75e5b5)" style="fill: #eeeeee; stroke: #000000; stroke-width: 0.3"/>
    <path d="M 167.453 172.898833 
L 168.044023 173.578348 
L 168.790454 174.096559 
L 167.615831 174.096559 
z
" clip-path="url(#p73ce75e5b5)" style="fill: #eeeeee; stroke: #000000; stroke-width: 0.3"/>
    <path d="M 193.808636 83.753134 
L 193.977726 83.065164 
L 194.439585 83.383561 
z
" clip-path="url(#p73ce75e5b5)" style="fill: #eeeeee; stroke: #000000; stroke-width: 0.3"/>
    <path d="M 171.47512 155.257006 
L 172.859431 153.663839 
L 174.642714 154.628877 
z
" clip-path="url(#p73ce75e5b5)" style="fill: #eeeeee; stroke: #000000; stroke-width: 0.3"/>
    <path d="M 167.678457 172.567163 
L 168.082992 172.57287 
L 169.085971 173.988057 
z
" clip-path="url(#p73ce75e5b5)" style="fill: #eeeeee; stroke: #000000; stroke-width: 0.3"/>
    <path d="M 163.889753 173.0663 
L 165.242917 174.725635 
L 164.806847 175.142477 
z
" clip-path="url(#p73ce75e5b5)" style="fill: #eeeeee; stroke: #000000; stroke-width: 0.3"/>
    <path d="M 163.827948 170.122735 
L 164.008838 169.981066 
L 164.434464 169.817658 
z
" clip-path="url(#p73ce75e5b5)" style="fill: #eeeeee; stroke: #000000; stroke-width: 0.3"/>
    <path d="M 142.501001 45.640602 
L 142.517704 45.654401 
L 142.506565 45.657255 
z
" clip-path="url(#p73ce75e5b5)" style="fill: #eeeeee; stroke: #000000; stroke-width: 0.3"/>
    <path d="M 127.733742 48.407228 
L 127.970794 48.027013 
L 128.187906 48.322524 
z
" clip-path="url(#p73ce75e5b5)" style="fill: #eeeeee; stroke: #000000; stroke-width: 0.3"/>
    <path d="M 125.279174 157.788068 
L 125.497676 157.750949 
L 125.519942 157.93225 
z
" clip-path="url(#p73ce75e5b5)" style="fill: #eeeeee; stroke: #000000; stroke-width: 0.3"/>
    <path d="M 123.957021 58.219347 
L 123.962128 57.50842 
L 124.257645 57.180551 
z
" clip-path="url(#p73ce75e5b5)" style="fill: #eeeeee; stroke: #000000; stroke-width: 0.3"/>
    <path d="M -279.730478 -176.01459 
L -252.358273 -178.133265 
L -253.473564 -175.647041 
L -209.968749 -161.928634 
L -178.143018 -161.931651 
L -178.146552 -167.197822 
L -157.782224 -166.972409 
L -155.277377 -163.684227 
L -152.449365 -162.441103 
L -145.637986 -156.352427 
L -140.741994 -153.547712 
L -137.860066 -148.664083 
L -137.847696 -145.733054 
L -135.979737 -142.365091 
L -130.742909 -138.678042 
L -127.62296 -137.926851 
L -123.096376 -135.049921 
L -120.088089 -134.671905 
L -117.078309 -137.392922 
L -117.355219 -138.733346 
L -115.165875 -143.329919 
L -111.917196 -143.803106 
L -110.947132 -145.167398 
L -108.533892 -144.093494 
L -100.504703 -143.816707 
L -99.445084 -141.704861 
L -98.553072 -141.994934 
L -98.312987 -140.929802 
L -92.11199 -136.072146 
L -91.602942 -133.832783 
L -88.163374 -128.987535 
L -87.621342 -126.260776 
L -85.129161 -124.631484 
L -82.580123 -120.407782 
L -78.955549 -118.207396 
L -78.34812 -111.989998 
L -75.914553 -109.301913 
L -74.297293 -104.576617 
L -70.818836 -103.98135 
L -64.221319 -100.511259 
L -57.804977 -99.987902 
L -55.131918 -97.931957 
L -51.869535 -99.229461 
L -52.164584 -96.393848 
L -55.514494 -90.03263 
L -57.708798 -82.272866 
L -58.549869 -73.967304 
L -59.654443 -73.765549 
L -58.95348 -72.169529 
L -58.516008 -73.19166 
L -58.745182 -64.218956 
L -60.439855 -59.822056 
L -59.793617 -60.683352 
L -58.95348 -53.971904 
L -57.241637 -50.930244 
L -53.887087 -47.716323 
L -55.054288 -44.353459 
L -55.665729 -46.27639 
L -54.502702 -47.442225 
L -57.408185 -50.446778 
L -59.187283 -53.971904 
L -57.778846 -48.600458 
L -55.861498 -46.778884 
L -55.945935 -45.841457 
L -51.998037 -37.02863 
L -44.080898 -27.927437 
L -42.190924 -21.65663 
L -36.061708 -15.428169 
L -38.411432 -16.087709 
L -36.684277 -14.868571 
L -37.193656 -14.45505 
L -33.959262 -14.063421 
L -35.783828 -14.928049 
L -35.834392 -15.428169 
L -34.133232 -14.512154 
L -29.646267 -14.31896 
L -27.755825 -12.668688 
L -25.050284 -12.059598 
L -22.701027 -8.292733 
L -21.402075 -7.759296 
L -13.582827 -9.262531 
L -11.248882 -10.888992 
L -14.249473 -9.797863 
L -10.974719 -11.094092 
L -6.452958 -11.253981 
L -6.14214 -10.056255 
L -6.24605 -11.087906 
L -3.032395 -11.522793 
L -1.449658 -12.997985 
L -0.90456 -11.094092 
L -1.209825 -13.272071 
L 2.104844 -13.920373 
L 7.316065 -14.156159 
L 8.245176 -13.070316 
L 7.291838 -13.434813 
L 6.121856 -12.465974 
L 7.997453 -11.987267 
L 7.062664 -13.017971 
L 7.841577 -12.864748 
L 8.841306 -10.61776 
L 9.023165 -11.819765 
L 12.578591 -11.176411 
L 12.378183 -12.059598 
L 16.050048 -13.750789 
L 14.720006 -13.424346 
L 15.097633 -14.675844 
L 13.396929 -15.587578 
L 15.420513 -17.271156 
L 12.364262 -15.621843 
L 20.754581 -21.383491 
L 21.731121 -26.572209 
L 24.078405 -28.550759 
L 23.940736 -35.708134 
L 25.736537 -41.535927 
L 31.966425 -44.484322 
L 39.64324 -45.39891 
L 47.222644 -47.881918 
L 48.903407 -47.642086 
L 51.36167 -48.047993 
L 49.64798 -47.866692 
L 50.852302 -48.360625 
L 60.799979 -46.309217 
L 62.152277 -47.741069 
L 59.019011 -47.402253 
L 62.458465 -48.447235 
L 65.691 -46.223566 
L 65.838063 -43.551163 
L 66.675886 -43.075789 
L 65.151009 -39.4612 
L 58.821385 -32.046438 
L 58.779178 -28.166323 
L 58.259127 -26.939571 
L 58.668302 -28.449928 
L 58.279535 -29.050458 
L 58.545364 -28.16727 
L 56.120951 -25.178903 
L 55.278956 -25.622397 
L 56.047186 -23.680918 
L 58.697055 -24.241943 
L 57.695935 -24.638811 
L 58.708194 -25.204596 
L 59.023652 -24.522227 
L 58.503145 -23.088481 
L 56.023996 -21.40633 
L 56.444298 -20.350881 
L 58.47438 -21.517675 
L 54.100616 -8.372677 
L 53.067482 -11.254449 
L 51.441466 -11.903522 
L 52.303413 -14.143365 
L 51.914658 -16.30517 
L 50.876883 -14.612085 
L 50.792914 -15.071753 
L 50.061795 -14.725815 
L 49.503243 -14.215217 
L 50.609675 -14.241869 
L 49.098241 -11.819765 
L 46.310589 -11.383615 
L 42.393793 -4.797265 
L 40.363517 -6.063357 
L 39.172226 -5.38348 
L 39.0974 -3.901037 
L 18.320649 -3.856925 
L 18.216374 2.675935 
L 13.07999 2.839109 
L 14.938234 3.515969 
L 17.498765 6.697789 
L 20.439888 7.897397 
L 22.308143 11.664216 
L 25.023626 12.41419 
L 24.539033 16.160473 
L 9.689914 16.603441 
L 4.314927 25.829532 
L 5.882409 28.149272 
L 4.965669 29.058796 
L 4.146134 34.281452 
L -2.859953 27.126533 
L -1.683473 27.928349 
L -2.036975 27.006148 
L -4.485045 25.9055 
L -17.702368 14.664862 
L -20.630585 13.8245 
L -21.055071 14.445016 
L -15.666722 17.345826 
L -20.549865 15.23874 
L -24.314513 14.981786 
L -22.700571 13.498548 
L -23.717459 13.061708 
L -25.1208 14.303686 
L -26.095937 12.350782 
L -28.207207 14.17949 
L -25.58796 13.977255 
L -26.685112 14.463575 
L -25.262287 14.543519 
L -24.822501 14.9932 
L -29.181648 15.130307 
L -32.432984 17.604557 
L -41.57849 21.019964 
L -44.636497 21.315557 
L -53.31466 18.066119 
L -59.091536 17.556913 
L -63.645483 14.87043 
L -62.619315 15.103129 
L -62.463438 14.950374 
L -67.985864 13.635761 
L -70.540295 10.824555 
L -80.64614 9.151888 
L -84.390232 6.677627 
L -96.559131 2.531892 
L -107.171835 -5.777284 
L -109.460632 -5.090074 
L -122.811462 -9.192913 
L -129.861192 -16.304609 
L -133.870862 -18.027434 
L -134.129257 -19.075936 
L -135.100814 -18.72152 
L -141.418103 -21.768933 
L -142.490583 -24.328682 
L -147.48329 -29.835142 
L -149.456333 -34.220417 
L -144.268381 -36.286303 
L -145.384368 -38.286957 
L -147.703012 -38.444331 
L -144.16218 -41.869328 
L -143.599421 -46.337296 
L -146.603044 -48.536021 
L -148.699105 -52.333315 
L -149.661359 -58.864163 
L -150.613306 -60.317416 
L -157.791892 -66.710525 
L -158.852401 -69.311544 
L -161.935559 -71.940642 
L -164.701868 -76.015379 
L -173.128842 -81.823665 
L -173.409971 -82.229561 
L -169.970984 -80.26239 
L -170.331909 -82.343771 
L -171.408653 -81.601912 
L -174.973816 -83.710904 
L -173.487909 -82.426089 
L -174.651404 -82.998072 
L -176.381329 -85.437296 
L -175.453039 -85.092785 
L -175.525413 -87.390212 
L -176.24911 -87.951716 
L -176.693081 -85.866523 
L -179.432016 -89.234614 
L -177.783278 -87.717123 
L -177.253491 -88.635991 
L -175.734168 -88.302426 
L -178.179456 -89.959819 
L -179.704799 -89.916994 
L -179.814284 -91.084746 
L -180.245725 -89.633388 
L -180.653965 -90.984816 
L -184.038671 -92.123051 
L -182.467859 -92.043107 
L -184.424177 -92.389536 
L -184.460831 -94.252029 
L -185.912877 -94.486623 
L -186.293287 -93.388828 
L -188.418933 -94.206818 
L -186.872247 -94.303895 
L -185.248557 -97.344607 
L -187.803319 -94.8378 
L -189.947059 -95.959394 
L -188.879139 -94.446171 
L -191.773015 -95.491154 
L -190.365514 -96.245853 
L -191.405136 -96.843529 
L -191.773015 -96.042671 
L -192.034671 -99.882814 
L -190.084374 -103.18572 
L -190.205465 -101.594459 
L -189.565258 -103.652054 
L -188.341919 -102.160723 
L -188.10115 -103.025831 
L -188.418933 -103.007751 
L -188.881921 -103.888554 
L -189.197846 -104.056535 
L -189.941027 -103.540709 
L -190.01062 -105.453162 
L -192.606665 -108.314234 
L -193.397446 -108.01449 
L -192.731655 -107.455055 
L -196.040088 -108.042767 
L -198.11053 -112.59717 
L -201.775372 -113.059352 
L -204.451294 -114.719517 
L -203.348794 -114.854613 
L -204.777411 -115.737333 
L -205.645811 -118.821339 
L -204.744941 -120.010984 
L -205.331323 -120.122328 
L -205.445448 -120.969344 
L -204.348296 -121.53562 
L -208.176961 -121.927249 
L -208.060065 -122.894661 
L -208.60098 -121.133993 
L -209.888804 -122.598203 
L -211.094677 -122.262744 
L -214.892559 -127.545661 
L -217.9733 -128.399706 
L -220.721265 -131.865669 
L -219.796121 -132.41079 
L -223.196766 -134.324014 
L -224.02842 -138.40088 
L -225.986801 -138.744596 
L -225.605206 -140.393546 
L -229.806892 -145.360663 
L -230.012181 -148.88138 
L -233.610395 -154.248277 
L -233.745487 -160.466423 
L -235.354823 -161.470743 
L -239.794063 -161.909911 
L -240.219416 -163.920867 
L -243.84627 -165.856697 
L -243.541951 -164.745102 
L -244.430588 -163.850688 
L -246.482173 -164.09328 
L -255.837483 -169.457008 
L -253.000657 -165.771993 
L -254.179692 -159.51405 
L -252.200562 -157.148245 
L -251.290148 -152.195091 
L -251.690715 -148.741606 
L -250.178916 -146.032938 
L -248.447303 -143.770045 
L -246.477579 -143.422985 
L -239.954386 -138.01311 
L -238.683424 -133.445048 
L -237.655168 -134.243883 
L -236.740925 -132.377425 
L -235.210747 -132.66475 
L -233.873476 -128.919438 
L -230.947198 -128.17676 
L -230.113936 -121.426931 
L -228.116347 -118.975684 
L -225.342524 -117.724666 
L -223.724136 -113.785224 
L -220.732575 -112.414769 
L -221.494044 -111.072533 
L -219.824419 -109.313292 
L -220.159578 -107.985826 
L -218.838884 -106.31627 
L -217.613469 -106.433953 
L -219.184452 -107.986037 
L -219.6044 -109.923808 
L -216.282526 -107.764728 
L -216.336305 -106.154943 
L -214.939281 -105.681604 
L -215.242881 -104.535276 
L -213.568856 -100.777557 
L -213.39874 -97.04726 
L -211.309828 -94.13665 
L -210.116815 -93.960389 
L -208.80791 -89.607227 
L -206.293018 -86.566 
L -206.916853 -82.725646 
L -205.449587 -79.207361 
L -202.203746 -78.294996 
L -203.426333 -78.27053 
L -202.610333 -77.53922 
L -201.925742 -78.778368 
L -202.28669 -80.085275 
L -201.148208 -80.253806 
L -198.575798 -78.097556 
L -198.35538 -76.781832 
L -196.538453 -76.97457 
L -195.033882 -72.32854 
L -192.430951 -71.037667 
L -191.810833 -69.12629 
L -192.729512 -66.319984 
L -197.303354 -63.074406 
L -198.492273 -63.311093 
L -202.00043 -70.872703 
L -214.964443 -80.033772 
L -213.998815 -79.635349 
L -217.638974 -83.09709 
L -219.165332 -82.156213 
L -221.393839 -86.467999 
L -220.918789 -84.943363 
L -221.704656 -86.068278 
L -222.302177 -85.284553 
L -222.403397 -87.930175 
L -222.950764 -86.462328 
L -223.188728 -87.396036 
L -221.649293 -93.473485 
L -222.261213 -93.560095 
L -222.22701 -96.362834 
L -222.485131 -93.830626 
L -223.338527 -99.105135 
L -225.889606 -102.438622 
L -229.155091 -103.40366 
L -233.391733 -106.63579 
L -234.056794 -108.915956 
L -235.159978 -108.335413 
L -234.361113 -110.974509 
L -235.784006 -108.429227 
L -238.069268 -109.038282 
L -239.963586 -108.114139 
L -242.007236 -110.727157 
L -244.15988 -111.060161 
L -246.175118 -112.956919 
L -249.061732 -113.386485 
L -249.874837 -116.074103 
L -255.760354 -119.98135 
L -256.457407 -121.276678 
L -249.790423 -120.376393 
L -247.706493 -121.553221 
L -247.320052 -119.929133 
L -245.274191 -118.362619 
L -244.954093 -119.397602 
L -243.567923 -118.991694 
L -243.172202 -119.735939 
L -244.775027 -120.693352 
L -244.690591 -119.745458 
L -245.707958 -119.871081 
L -245.849913 -122.375503 
L -247.252478 -121.862508 
L -245.632802 -124.00007 
L -245.820316 -123.07194 
L -245.313719 -122.17597 
L -245.482706 -123.287342 
L -244.553652 -123.342833 
L -245.524423 -126.009143 
L -244.878481 -129.076484 
L -255.182899 -139.13081 
L -257.635142 -139.725632 
L -263.454738 -143.552222 
L -263.48136 -145.215053 
L -264.750167 -146.033558 
L -265.047918 -150.459531 
L -266.622526 -151.100453 
L -266.148399 -151.666238 
L -266.778391 -152.225368 
L -266.954709 -150.608029 
L -267.464396 -152.016386 
L -267.563335 -155.792373 
L -270.727303 -157.59175 
L -270.796805 -160.669886 
L -274.605529 -164.565228 
L -274.291463 -165.811018 
L -275.458025 -166.900884 
L -274.240887 -166.689446 
L -273.878263 -167.95948 
L -276.769221 -169.949046 
z
" clip-path="url(#p73ce75e5b5)" style="fill: #eeeeee; stroke: #000000; stroke-width: 0.3"/>
    <path d="M -224.771123 -85.5044 
L -222.727245 -91.043558 
L -223.734978 -86.151637 
L -222.61662 -84.301248 
L -222.854231 -83.64145 
L -221.981396 -82.562284 
L -223.308907 -83.883294 
L -223.074272 -84.933738 
z
" clip-path="url(#p73ce75e5b5)" style="fill: #eeeeee; stroke: #000000; stroke-width: 0.3"/>
    <path d="M -239.415945 -139.503236 
L -239.211181 -141.027639 
L -237.204767 -140.08468 
L -236.921188 -138.338571 
L -234.620876 -137.942229 
L -234.00826 -134.531617 
L -238.355368 -138.048451 
z
" clip-path="url(#p73ce75e5b5)" style="fill: #eeeeee; stroke: #000000; stroke-width: 0.3"/>
    <path d="M -227.945615 -133.255561 
L -226.838316 -134.381306 
L -226.596612 -136.839569 
L -224.312125 -137.60042 
L -223.528516 -134.962586 
L -224.429785 -132.004531 
z
" clip-path="url(#p73ce75e5b5)" style="fill: #eeeeee; stroke: #000000; stroke-width: 0.3"/>
    <path d="M -259.583923 -123.98427 
L -258.235217 -125.75047 
L -258.336527 -127.220587 
L -257.278355 -124.664908 
L -258.102816 -123.349768 
z
" clip-path="url(#p73ce75e5b5)" style="fill: #eeeeee; stroke: #000000; stroke-width: 0.3"/>
    <path d="M 66.675886 -44.520482 
L 66.835946 -43.997043 
L 67.143046 -43.482644 
L 66.698619 -43.996096 
z
" clip-path="url(#p73ce75e5b5)" style="fill: #eeeeee; stroke: #000000; stroke-width: 0.3"/>
    <path d="M 63.7834 -32.511825 
L 64.092826 -35.38217 
L 66.590993 -36.38766 
L 66.042645 -35.04574 
z
" clip-path="url(#p73ce75e5b5)" style="fill: #eeeeee; stroke: #000000; stroke-width: 0.3"/>
    <path d="M 60.660806 -14.70915 
L 60.900184 -13.980623 
L 60.731778 -13.424346 
L 60.780951 -13.755537 
z
" clip-path="url(#p73ce75e5b5)" style="fill: #eeeeee; stroke: #000000; stroke-width: 0.3"/>
    <path d="M 32.425343 -59.601648 
L 33.970821 -58.24311 
L 33.35475 -57.190456 
L 33.457623 -58.370815 
z
" clip-path="url(#p73ce75e5b5)" style="fill: #eeeeee; stroke: #000000; stroke-width: 0.3"/>
    <path d="M -59.894756 -60.860373 
L -59.384454 -61.768306 
L -59.272187 -61.912489 
L -59.35847 -61.315293 
z
" clip-path="url(#p73ce75e5b5)" style="fill: #eeeeee; stroke: #000000; stroke-width: 0.3"/>
    <path d="M -160.426108 -49.26146 
L -158.7331 -48.138428 
L -158.961213 -47.490488 
L -160.087587 -48.183183 
z
" clip-path="url(#p73ce75e5b5)" style="fill: #eeeeee; stroke: #000000; stroke-width: 0.3"/>
    <path d="M -199.002849 -112.341374 
L -198.327938 -112.137514 
L -197.78968 -111.57146 
L -198.398613 -112.074679 
z
" clip-path="url(#p73ce75e5b5)" style="fill: #eeeeee; stroke: #000000; stroke-width: 0.3"/>
    <path d="M -206.599982 -89.046284 
L -205.050844 -88.118669 
L -204.480937 -86.531408 
L -205.819245 -86.934836 
z
" clip-path="url(#p73ce75e5b5)" style="fill: #eeeeee; stroke: #000000; stroke-width: 0.3"/>
    <path d="M -212.234401 -97.334328 
L -211.904179 -100.136213 
L -210.539945 -100.469217 
L -211.958631 -98.489415 
z
" clip-path="url(#p73ce75e5b5)" style="fill: #eeeeee; stroke: #000000; stroke-width: 0.3"/>
    <path d="M -253.063284 -167.493637 
L -252.196229 -167.033957 
L -251.542113 -166.168861 
L -252.794685 -166.471506 
z
" clip-path="url(#p73ce75e5b5)" style="fill: #eeeeee; stroke: #000000; stroke-width: 0.3"/>
    <path d="M -293.870847 -136.252769 
L -292.826185 -136.930003 
L -292.279491 -133.719708 
L -292.99751 -133.170424 
z
" clip-path="url(#p73ce75e5b5)" style="fill: #eeeeee; stroke: #000000; stroke-width: 0.3"/>
    <path d="M 59.403594 -10.779554 
L 60.193645 -12.705807 
L 59.915755 -11.386258 
z
" clip-path="url(#p73ce75e5b5)" style="fill: #eeeeee; stroke: #000000; stroke-width: 0.3"/>
    <path d="M 8.517503 -13.687966 
L 11.98107 -15.347757 
L 12.144369 -14.868571 
z
" clip-path="url(#p73ce75e5b5)" style="fill: #eeeeee; stroke: #000000; stroke-width: 0.3"/>
    <path d="M -58.090598 -51.242408 
L -57.241637 -49.812463 
L -57.846113 -50.260237 
z
" clip-path="url(#p73ce75e5b5)" style="fill: #eeeeee; stroke: #000000; stroke-width: 0.3"/>
    <path d="M -156.076754 -44.836166 
L -155.856052 -45.063485 
L -155.485527 -44.561424 
z
" clip-path="url(#p73ce75e5b5)" style="fill: #eeeeee; stroke: #000000; stroke-width: 0.3"/>
    <path d="M -158.508053 -46.64118 
L -158.131509 -46.943836 
L -157.305053 -46.075524 
z
" clip-path="url(#p73ce75e5b5)" style="fill: #eeeeee; stroke: #000000; stroke-width: 0.3"/>
    <path d="M -160.7464 -49.890255 
L -160.39097 -49.808931 
L -160.63264 -49.658749 
z
" clip-path="url(#p73ce75e5b5)" style="fill: #eeeeee; stroke: #000000; stroke-width: 0.3"/>
    <path d="M -187.24431 -93.161368 
L -185.966223 -93.156608 
L -184.66124 -92.442349 
z
" clip-path="url(#p73ce75e5b5)" style="fill: #eeeeee; stroke: #000000; stroke-width: 0.3"/>
    <path d="M -197.734795 -80.618771 
L -196.248603 -77.843034 
L -197.360975 -78.570193 
z
" clip-path="url(#p73ce75e5b5)" style="fill: #eeeeee; stroke: #000000; stroke-width: 0.3"/>
    <path d="M -203.236117 -82.901404 
L -201.77812 -81.733593 
L -202.464205 -80.946652 
z
" clip-path="url(#p73ce75e5b5)" style="fill: #eeeeee; stroke: #000000; stroke-width: 0.3"/>
    <path d="M -205.112547 -85.843379 
L -204.985994 -86.108543 
L -204.896906 -85.771446 
z
" clip-path="url(#p73ce75e5b5)" style="fill: #eeeeee; stroke: #000000; stroke-width: 0.3"/>
    <path d="M -205.388853 -115.797291 
L -205.258048 -116.200428 
L -204.588255 -114.649385 
z
" clip-path="url(#p73ce75e5b5)" style="fill: #eeeeee; stroke: #000000; stroke-width: 0.3"/>
    <path d="M -206.850236 -91.302254 
L -206.357514 -91.541233 
L -206.806125 -90.975133 
z
" clip-path="url(#p73ce75e5b5)" style="fill: #eeeeee; stroke: #000000; stroke-width: 0.3"/>
    <path d="M -207.680123 -95.470957 
L -207.313942 -96.270599 
L -207.083332 -94.92924 
z
" clip-path="url(#p73ce75e5b5)" style="fill: #eeeeee; stroke: #000000; stroke-width: 0.3"/>
    <path d="M -208.028051 -21.198377 
L -207.476454 -21.43821 
L -207.961708 -20.963783 
z
" clip-path="url(#p73ce75e5b5)" style="fill: #eeeeee; stroke: #000000; stroke-width: 0.3"/>
    <path d="M -210.441143 -95.777566 
L -210.116473 -96.049477 
L -210.222321 -95.557205 
z
" clip-path="url(#p73ce75e5b5)" style="fill: #eeeeee; stroke: #000000; stroke-width: 0.3"/>
    <path d="M -210.664 -15.062713 
L -209.903648 -16.226185 
L -209.034279 -14.578767 
z
" clip-path="url(#p73ce75e5b5)" style="fill: #eeeeee; stroke: #000000; stroke-width: 0.3"/>
    <path d="M -212.844395 -97.072895 
L -212.719336 -97.280322 
L -212.701299 -96.889325 
z
" clip-path="url(#p73ce75e5b5)" style="fill: #eeeeee; stroke: #000000; stroke-width: 0.3"/>
    <path d="M -213.16032 -100.835433 
L -212.904034 -101.208608 
L -212.90994 -100.857349 
z
" clip-path="url(#p73ce75e5b5)" style="fill: #eeeeee; stroke: #000000; stroke-width: 0.3"/>
    <path d="M -214.314523 -122.879131 
L -214.065374 -122.473574 
L -214.251942 -122.518516 
z
" clip-path="url(#p73ce75e5b5)" style="fill: #eeeeee; stroke: #000000; stroke-width: 0.3"/>
    <path d="M -217.573121 -80.431505 
L -217.396677 -80.628161 
L -215.175512 -80.096689 
z
" clip-path="url(#p73ce75e5b5)" style="fill: #eeeeee; stroke: #000000; stroke-width: 0.3"/>
    <path d="M -220.170625 -116.577485 
L -219.661121 -116.444658 
L -219.697912 -116.35427 
z
" clip-path="url(#p73ce75e5b5)" style="fill: #eeeeee; stroke: #000000; stroke-width: 0.3"/>
    <path d="M -221.376418 -82.255851 
L -219.752341 -82.326942 
L -217.970529 -79.746821 
z
" clip-path="url(#p73ce75e5b5)" style="fill: #eeeeee; stroke: #000000; stroke-width: 0.3"/>
    <path d="M -222.295394 -113.463377 
L -221.814324 -113.857508 
L -222.054044 -113.416868 
z
" clip-path="url(#p73ce75e5b5)" style="fill: #eeeeee; stroke: #000000; stroke-width: 0.3"/>
    <path d="M -222.697922 -91.234215 
L -222.417249 -93.616241 
L -222.488061 -91.93837 
z
" clip-path="url(#p73ce75e5b5)" style="fill: #eeeeee; stroke: #000000; stroke-width: 0.3"/>
    <path d="M -228.188641 -130.847304 
L -227.545709 -131.53863 
L -227.613911 -130.88068 
z
" clip-path="url(#p73ce75e5b5)" style="fill: #eeeeee; stroke: #000000; stroke-width: 0.3"/>
    <path d="M -231.111978 -130.875675 
L -229.876599 -129.930997 
L -230.121928 -129.752081 
z
" clip-path="url(#p73ce75e5b5)" style="fill: #eeeeee; stroke: #000000; stroke-width: 0.3"/>
    <path d="M -235.715736 -107.919997 
L -234.688177 -108.054661 
L -234.273438 -107.407505 
z
" clip-path="url(#p73ce75e5b5)" style="fill: #eeeeee; stroke: #000000; stroke-width: 0.3"/>
    <path d="M -238.563301 -135.336275 
L -238.453725 -135.791125 
L -238.308977 -135.133561 
z
" clip-path="url(#p73ce75e5b5)" style="fill: #eeeeee; stroke: #000000; stroke-width: 0.3"/>
    <path d="M -248.912081 -146.012882 
L -248.682144 -146.244412 
L -248.60156 -145.942106 
z
" clip-path="url(#p73ce75e5b5)" style="fill: #eeeeee; stroke: #000000; stroke-width: 0.3"/>
    <path d="M -253.205239 -9.942046 
L -252.355354 -10.223277 
L -252.319167 -10.115254 
z
" clip-path="url(#p73ce75e5b5)" style="fill: #eeeeee; stroke: #000000; stroke-width: 0.3"/>
    <path d="M -258.014161 -121.716232 
L -257.352873 -121.478866 
L -257.378309 -121.279509 
z
" clip-path="url(#p73ce75e5b5)" style="fill: #eeeeee; stroke: #000000; stroke-width: 0.3"/>
    <path d="M -262.254851 -126.497697 
L -262.208608 -126.641283 
L -261.939564 -126.613146 
z
" clip-path="url(#p73ce75e5b5)" style="fill: #eeeeee; stroke: #000000; stroke-width: 0.3"/>
    <path d="M -264.095595 -87.401626 
L -264.078892 -87.388306 
L -264.090019 -87.385452 
z
" clip-path="url(#p73ce75e5b5)" style="fill: #eeeeee; stroke: #000000; stroke-width: 0.3"/>
    <path d="M -268.302526 -152.081572 
L -268.152544 -152.200623 
L -268.090556 -152.051423 
z
" clip-path="url(#p73ce75e5b5)" style="fill: #eeeeee; stroke: #000000; stroke-width: 0.3"/>
    <path d="M -281.097597 -174.645831 
L -281.032485 -174.347513 
L -281.076767 -174.343128 
z
" clip-path="url(#p73ce75e5b5)" style="fill: #eeeeee; stroke: #000000; stroke-width: 0.3"/>
    <path d="M 38.230733 18.557257 
L 39.172226 -5.38348 
L 40.363517 -6.063357 
L 42.393793 -4.797265 
L 46.310589 -11.383615 
L 48.864438 -11.701755 
L 47.870729 -10.406485 
L 48.708562 -10.455965 
L 48.246965 -9.624175 
L 51.22529 -10.46311 
L 50.658381 -9.689372 
L 51.245698 -9.976311 
L 51.375591 -8.529712 
L 49.048144 -1.444236 
L 50.420861 -0.365947 
L 49.06438 1.649769 
L 49.87623 6.006696 
L 48.39681 11.182082 
L 48.779534 9.571315 
L 46.210396 14.143798 
L 43.890828 14.62489 
L 41.475878 18.724057 
z
" clip-path="url(#p73ce75e5b5)" style="fill: #eeeeee; stroke: #000000; stroke-width: 0.3"/>
    <path d="M 52.225475 -4.932255 
L 53.955412 -8.056713 
L 53.296188 -5.87063 
L 53.074436 -5.405255 
L 52.718152 -5.064065 
z
" clip-path="url(#p73ce75e5b5)" style="fill: #eeeeee; stroke: #000000; stroke-width: 0.3"/>
    <path d="M 54.327932 2.20366 
L 54.446697 1.162969 
L 54.567777 2.20366 
z
" clip-path="url(#p73ce75e5b5)" style="fill: #eeeeee; stroke: #000000; stroke-width: 0.3"/>
    <path d="M 53.573611 -8.381717 
L 53.756394 -8.380291 
L 53.607473 -8.12619 
z
" clip-path="url(#p73ce75e5b5)" style="fill: #eeeeee; stroke: #000000; stroke-width: 0.3"/>
    <path d="M 53.166295 2.363548 
L 54.731531 -0.599114 
L 54.754733 -0.188938 
z
" clip-path="url(#p73ce75e5b5)" style="fill: #eeeeee; stroke: #000000; stroke-width: 0.3"/>
    <path d="M 52.819747 -7.211111 
L 53.053561 -7.287734 
L 52.852685 -7.105006 
z
" clip-path="url(#p73ce75e5b5)" style="fill: #eeeeee; stroke: #000000; stroke-width: 0.3"/>
    <path d="M 52.506615 -6.979851 
L 52.75573 -7.007929 
L 52.540009 -6.906093 
z
" clip-path="url(#p73ce75e5b5)" style="fill: #eeeeee; stroke: #000000; stroke-width: 0.3"/>
    <path d="M 51.693841 -0.957916 
L 51.717031 -1.468035 
L 51.82883 -0.844666 
z
" clip-path="url(#p73ce75e5b5)" style="fill: #eeeeee; stroke: #000000; stroke-width: 0.3"/>
    <path d="M 50.991008 -0.375946 
L 51.556515 -0.114701 
L 51.449823 0.229822 
z
" clip-path="url(#p73ce75e5b5)" style="fill: #eeeeee; stroke: #000000; stroke-width: 0.3"/>
    <path d="M 50.73771 -2.471127 
L 51.517546 -2.965072 
L 51.146417 -2.35169 
z
" clip-path="url(#p73ce75e5b5)" style="fill: #eeeeee; stroke: #000000; stroke-width: 0.3"/>
    <path d="M 108.739817 107.041897 
L 111.063501 105.433457 
L 110.212145 102.030446 
L 112.533469 100.096568 
L 110.025087 98.482094 
L 109.998568 93.842005 
L 111.0853 93.418672 
L 111.072918 92.154404 
L 113.527988 93.510826 
L 114.195375 92.440407 
L 116.827152 94.120652 
L 116.738086 96.754989 
L 118.787653 96.842546 
L 117.762396 97.260336 
L 117.964208 99.126642 
L 119.619911 99.990323 
L 123.294091 99.87754 
L 121.494118 97.66767 
L 122.071219 97.079514 
L 125.990352 101.366485 
L 128.664928 101.729625 
L 134.160778 100.457136 
L 136.932173 98.235221 
L 142.058433 96.76735 
L 144.064778 94.811663 
L 144.341802 95.62197 
L 145.005586 94.451808 
L 145.897769 95.093304 
L 147.751853 92.062964 
L 155.27376 92.474158 
L 154.276425 93.823504 
L 161.179264 94.397685 
L 165.918775 96.414314 
L 167.984167 98.543912 
L 167.934538 97.887517 
L 171.529845 102.516415 
L 173.482001 103.099554 
L 172.168558 105.334345 
L 175.879142 111.583775 
L 174.315491 112.018287 
L 173.409353 113.511606 
L 173.86713 114.297237 
L 171.128081 116.388839 
L 169.027699 114.314767 
L 169.403594 116.365871 
L 167.26511 119.742078 
L 163.008721 114.481509 
L 161.366926 110.191685 
L 163.464275 109.499318 
L 162.853301 107.904724 
L 164.062731 107.664903 
L 164.829114 106.133121 
L 166.310381 108.101731 
L 167.639488 108.128851 
L 168.868859 109.519304 
L 169.335552 109.349428 
L 167.6998 108.027973 
L 166.075176 107.476456 
L 165.334776 104.876864 
L 164.806847 104.304413 
L 165.266118 106.068403 
L 164.551223 105.421248 
L 163.596494 106.38818 
L 164.027935 105.908994 
L 163.794121 104.537113 
L 163.794121 105.749106 
L 163.404898 105.023432 
L 162.152337 105.908994 
L 161.685633 104.464302 
L 162.223777 106.264463 
L 161.60074 106.706998 
L 159.336388 101.814739 
L 158.911445 102.594195 
L 153.992115 99.30937 
L 154.01624 98.444262 
L 153.710052 98.207294 
L 154.141493 98.087378 
L 154.340043 97.728576 
L 154.622574 97.880384 
L 155.196427 97.481142 
L 154.340043 97.648643 
L 153.581083 98.205868 
L 153.614955 99.247505 
L 150.064626 99.022431 
L 149.102942 100.370047 
L 148.480828 99.651987 
L 148.509593 100.432858 
L 146.364462 101.335553 
L 146.423839 102.711258 
L 145.517508 103.406186 
L 146.992972 103.284937 
L 146.109397 104.095817 
L 138.175943 108.29302 
L 138.014503 109.908079 
L 142.939864 115.117251 
L 143.333727 117.225763 
L 141.99209 117.602166 
L 140.583653 117.442757 
L 140.038554 117.602166 
L 138.55218 119.685453 
L 133.711711 120.162265 
L 131.154624 113.456524 
L 131.893644 112.946885 
L 131.525297 111.911902 
L 131.13653 112.717519 
L 129.942423 112.4715 
L 129.856596 112.117469 
L 129.650156 112.07179 
L 130.258348 113.340888 
L 129.331916 113.748222 
L 129.650156 115.446547 
L 127.30091 114.720394 
L 125.581178 113.675412 
L 125.191499 111.032994 
L 124.060018 110.507182 
L 123.62811 108.630409 
L 123.238887 109.429361 
L 121.519634 108.144557 
L 119.417177 108.144557 
L 118.950484 109.029651 
L 118.235588 108.311579 
L 118.632233 106.859753 
L 111.514894 107.415551 
L 110.501061 110.467057 
L 109.976188 107.96653 
z
" clip-path="url(#p73ce75e5b5)" style="fill: #eeeeee; stroke: #000000; stroke-width: 0.3"/>
    <path d="M 155.226685 105.676716 
L 156.166912 105.516746 
L 156.825532 106.864384 
L 156.033052 108.309708 
z
" clip-path="url(#p73ce75e5b5)" style="fill: #eeeeee; stroke: #000000; stroke-width: 0.3"/>
    <path d="M 122.158905 116.832708 
L 123.472234 115.033506 
L 125.432268 118.648095 
L 123.62811 118.488207 
z
" clip-path="url(#p73ce75e5b5)" style="fill: #eeeeee; stroke: #000000; stroke-width: 0.3"/>
    <path d="M 116.989982 94.360005 
L 117.697456 94.040708 
L 117.930802 95.318857 
L 117.534157 94.796845 
z
" clip-path="url(#p73ce75e5b5)" style="fill: #eeeeee; stroke: #000000; stroke-width: 0.3"/>
    <path d="M 153.462944 107.51423 
L 154.188853 107.823938 
L 153.539354 108.429461 
z
" clip-path="url(#p73ce75e5b5)" style="fill: #eeeeee; stroke: #000000; stroke-width: 0.3"/>
    <path d="M 153.455112 106.138629 
L 153.590329 105.855152 
L 153.998489 106.008503 
z
" clip-path="url(#p73ce75e5b5)" style="fill: #eeeeee; stroke: #000000; stroke-width: 0.3"/>
    <path d="M 148.449384 101.715183 
L 148.624129 101.477677 
L 148.743225 101.803734 
z
" clip-path="url(#p73ce75e5b5)" style="fill: #eeeeee; stroke: #000000; stroke-width: 0.3"/>
    <path d="M 129.263715 116.832708 
L 130.14794 116.353042 
L 131.759111 115.838644 
z
" clip-path="url(#p73ce75e5b5)" style="fill: #eeeeee; stroke: #000000; stroke-width: 0.3"/>
    <path d="M 125.618459 98.130999 
L 125.897217 97.977308 
L 126.042341 98.174058 
z
" clip-path="url(#p73ce75e5b5)" style="fill: #eeeeee; stroke: #000000; stroke-width: 0.3"/>
    <path d="M 122.83018 119.395181 
L 123.394763 119.206746 
L 123.089977 119.925286 
z
" clip-path="url(#p73ce75e5b5)" style="fill: #eeeeee; stroke: #000000; stroke-width: 0.3"/>
    <path d="M 120.143998 97.048149 
L 120.615582 97.524517 
L 120.164018 97.472102 
z
" clip-path="url(#p73ce75e5b5)" style="fill: #eeeeee; stroke: #000000; stroke-width: 0.3"/>
    <path d="M 118.320492 95.093304 
L 119.884338 95.804698 
L 119.152283 96.310056 
z
" clip-path="url(#p73ce75e5b5)" style="fill: #eeeeee; stroke: #000000; stroke-width: 0.3"/>
    <path d="M 117.136122 108.360123 
L 117.613019 108.144557 
L 117.930802 108.870242 
z
" clip-path="url(#p73ce75e5b5)" style="fill: #eeeeee; stroke: #000000; stroke-width: 0.3"/>
    <path d="M 116.822979 109.430799 
L 117.078592 109.349428 
L 117.106889 109.704885 
z
" clip-path="url(#p73ce75e5b5)" style="fill: #eeeeee; stroke: #000000; stroke-width: 0.3"/>
    <path d="M 115.822314 107.832872 
L 116.744573 107.439338 
L 116.328912 108.38391 
z
" clip-path="url(#p73ce75e5b5)" style="fill: #eeeeee; stroke: #000000; stroke-width: 0.3"/>
    <path d="M 143.672374 19.723665 
L 143.676091 19.699878 
L 143.692326 19.720811 
z
" clip-path="url(#p73ce75e5b5)" style="fill: #eeeeee; stroke: #000000; stroke-width: 0.3"/>
    <path d="M 159.038089 18.907101 
L 159.078449 18.868556 
L 159.076134 18.929473 
z
" clip-path="url(#p73ce75e5b5)" style="fill: #eeeeee; stroke: #000000; stroke-width: 0.3"/>
   </g>
   <g id="PatchCollection_2">
    <path d="M 56.080123 53.645905 
L 56.124668 52.608068 
L 57.143882 51.410342 
L 59.254684 53.413206 
L 60.427916 53.340887 
L 59.408234 53.130559 
L 60.149101 52.616161 
L 63.329909 52.63693 
L 64.608123 51.390181 
L 64.746566 49.598627 
L 67.103838 48.905757 
L 66.395065 43.684914 
L 71.25276 43.551654 
L 74.027746 40.190346 
L 78.066796 42.767531 
L 78.239123 41.114979 
L 84.59773 36.942943 
L 84.87317 34.107108 
L 86.193795 33.818228 
L 85.916884 32.951612 
L 87.6237 31.151603 
L 88.901616 31.103865 
L 89.959765 32.815639 
L 92.429554 33.461368 
L 93.794952 32.337002 
L 94.885502 32.779982 
L 94.947958 31.835105 
L 96.015239 32.344557 
L 96.658615 31.427186 
L 98.791102 31.777697 
L 102.315221 30.500132 
L 103.529793 28.876278 
L 107.846711 29.046178 
L 105.981808 31.300253 
L 105.660775 30.018303 
L 105.117079 30.379479 
L 104.492651 31.304065 
L 105.922431 31.687122 
L 107.206538 36.640299 
L 104.417028 41.211834 
L 102.958951 47.53736 
L 103.840849 59.222439 
L 102.065457 59.584095 
L 102.065457 57.493182 
L 103.001636 56.658539 
L 102.903279 54.590946 
L 101.969892 54.893122 
L 102.61751 56.702312 
L 100.502067 57.855785 
L 101.622421 60.82226 
L 102.299271 60.024735 
L 101.683656 64.236042 
L 101.377479 62.513931 
L 101.026758 62.088516 
L 100.466815 62.023319 
L 101.202119 62.625275 
L 100.16806 63.389973 
L 100.670941 64.716655 
L 99.80156 65.60079 
L 100.58094 66.377393 
L 101.35381 65.850142 
L 101.903549 68.546332 
L 100.65702 69.274391 
L 99.438788 72.589189 
L 101.77466 78.046497 
L 98.769896 79.123722 
L 97.827526 78.251971 
L 95.748339 78.342324 
L 93.880095 75.852462 
L 92.936835 76.348617 
L 90.220463 74.966198 
L 87.313806 76.469188 
L 79.716172 73.334498 
L 78.531117 74.843768 
L 69.471427 66.908445 
L 66.322394 61.786351 
z
" clip-path="url(#p73ce75e5b5)" style="fill: #ff6b6b; stroke: #dd0000; stroke-width: 0.5"/>
    <path d="M 111.51999 36.421399 
L 112.383339 36.383813 
L 112.174574 36.478504 
z
" clip-path="url(#p73ce75e5b5)" style="fill: #ff6b6b; stroke: #dd0000; stroke-width: 0.5"/>
    <path d="M 108.695695 62.151328 
L 108.962914 61.86343 
L 109.092807 61.969079 
z
" clip-path="url(#p73ce75e5b5)" style="fill: #ff6b6b; stroke: #dd0000; stroke-width: 0.5"/>
    <path d="M 101.502869 76.515043 
L 101.558403 76.506903 
L 101.631735 76.655308 
z
" clip-path="url(#p73ce75e5b5)" style="fill: #ff6b6b; stroke: #dd0000; stroke-width: 0.5"/>
    <path d="M 100.941865 64.775666 
L 101.274949 64.246509 
L 101.126962 65.611736 
z
" clip-path="url(#p73ce75e5b5)" style="fill: #ff6b6b; stroke: #dd0000; stroke-width: 0.5"/>
   </g>
  </g>
 </g>
 <defs>
  <clipPath id="p73ce75e5b5">
   <rect x="0" y="0" width="168.463463" height="108"/>
  </clipPath>
 </defs>
</svg>
