<?xml version="1.0" encoding="utf-8" standalone="no"?>
<!DOCTYPE svg PUBLIC "-//W3C//DTD SVG 1.1//EN"
  "http://www.w3.org/Graphics/SVG/1.1/DTD/svg11.dtd">
<svg xmlns:xlink="http://www.w3.org/1999/xlink" width="164.705362pt" height="108pt" viewBox="0 0 164.705362 108" xmlns="http://www.w3.org/2000/svg" version="1.1">
 <metadata>
  <rdf:RDF xmlns:dc="http://purl.org/dc/elements/1.1/" xmlns:cc="http://creativecommons.org/ns#" xmlns:rdf="http://www.w3.org/1999/02/22-rdf-syntax-ns#">
   <cc:Work>
    <dc:type rdf:resource="http://purl.org/dc/dcmitype/StillImage"/>
    <dc:date>2025-09-05T15:49:29.606040</dc:date>
    <dc:format>image/svg+xml</dc:format>
    <dc:creator>
     <cc:Agent>
      <dc:title>Matplotlib v3.10.3, https://matplotlib.org/</dc:title>
     </cc:Agent>
    </dc:creator>
   </cc:Work>
  </rdf:RDF>
 </metadata>
 <defs>
  <style type="text/css">*{stroke-linejoin: round; stroke-linecap: butt}</style>
 </defs>
 <g id="figure_1">
  <g id="patch_1">
   <path d="M 0 108 
L 164.705362 108 
L 164.705362 0 
L 0 0 
z
" style="fill: #ffffff"/>
  </g>
  <g id="axes_1">
   <g id="PatchCollection_1">
    <path d="M 160.000405 100.457905 
L 160.548041 99.744564 
L 160.192602 99.08464 
L 162.034949 98.188243 
L 162.62327 95.72231 
L 163.165912 94.977149 
L 163.184634 93.464699 
L 164.053516 92.712206 
L 164.539751 91.093037 
L 168.169777 90.420678 
L 168.54144 91.628178 
L 172.020706 95.178529 
L 174.216743 94.539165 
L 178.151791 94.597041 
L 178.876501 95.934894 
L 182.734517 95.969668 
L 183.072591 94.933421 
L 185.8222 93.754462 
L 186.453954 92.980229 
L 186.461441 92.252091 
L 188.381665 91.176054 
L 192.015434 93.943929 
L 193.94315 93.742675 
L 196.360337 91.4611 
L 197.70347 89.224702 
L 200.059758 87.062671 
L 199.663881 85.920507 
L 199.661881 83.915864 
L 198.376411 82.412581 
L 201.585849 82.397783 
L 201.513961 81.316243 
L 203.820078 81.345574 
L 203.211538 84.442886 
L 203.485854 88.801641 
L 204.651265 89.274197 
L 207.238687 91.662353 
L 207.51051 93.282302 
L 207.06696 95.084516 
L 207.981182 95.310646 
L 208.179954 99.506778 
L 207.498531 100.42491 
L 206.441195 100.813004 
L 205.806195 100.347264 
L 203.945383 100.372927 
L 203.591437 100.849931 
L 203.703762 101.966955 
L 202.760249 103.101258 
L 203.091228 103.705662 
L 206.268217 104.419272 
L 207.671259 105.672075 
L 207.80205 106.481264 
L 208.515927 106.902095 
L 208.99567 107.850338 
L 210.072472 108.306784 
L 210.174312 109.001795 
L 211.037948 109.346162 
L 212.346386 113.510738 
L 212.94644 114.730157 
L 213.735198 115.290564 
L 213.858503 115.988849 
L 214.736621 115.701706 
L 216.35407 116.272982 
L 216.100471 118.622646 
L 216.917679 119.813645 
L 216.041325 119.500495 
L 215.852769 119.966792 
L 215.419386 119.810189 
L 214.992103 118.997113 
L 215.227121 118.369485 
L 214.383196 118.257411 
L 214.457972 117.730653 
L 213.656781 117.97722 
L 209.480905 119.809459 
L 205.179436 124.22033 
L 203.603918 124.152896 
L 202.796191 123.532255 
L 201.633025 124.122647 
L 199.775202 124.314997 
L 198.886357 124.882083 
L 198.790758 125.423897 
L 197.64132 124.987488 
L 196.906476 123.882379 
L 195.678909 124.694973 
L 193.832573 124.041075 
L 192.880824 124.57739 
L 192.374119 125.535586 
L 191.926825 124.599784 
L 190.9923 124.956323 
L 190.856012 123.623386 
L 189.233574 123.174668 
L 187.982542 121.388031 
L 187.29413 121.083212 
L 187.337061 120.134442 
L 186.073056 119.604015 
L 185.699142 119.559238 
L 184.557693 121.225672 
L 182.30749 120.144785 
L 180.38502 121.518709 
L 178.898865 120.828147 
L 178.726384 120.164822 
L 177.559475 119.932799 
L 177.463625 119.011267 
L 176.313936 118.277625 
L 175.105845 116.566283 
L 175.089369 114.957594 
L 174.426412 113.988919 
L 172.953733 113.350999 
L 172.748059 112.908823 
L 171.050236 112.449889 
L 171.456594 111.775827 
L 170.303413 110.457292 
L 170.824092 109.506429 
L 169.438777 108.609247 
L 169.124274 107.766277 
L 165.907093 106.04891 
L 165.087885 105.209604 
L 164.966077 104.810771 
L 165.517708 104.407484 
L 165.215682 103.370726 
L 164.453885 103.208367 
L 163.202858 101.768321 
L 160.076287 101.070953 
z
" clip-path="url(#pe6eb4c6e4d)" style="fill: #eeeeee; stroke: #000000; stroke-width: 0.3"/>
    <path d="M -38.765919 34.675298 
L -38.318002 32.0841 
L -37.283213 30.340061 
L -36.123235 29.823529 
L -35.268283 27.176132 
L -34.657826 26.702694 
L -34.898784 26.189877 
L -32.771036 22.676027 
L -32.783223 22.047116 
L -33.844539 23.399787 
L -33.577638 22.742011 
L -28.534996 18.024574 
L -28.166091 14.859818 
L -26.691249 11.785174 
L -26.460511 10.48137 
L -22.089057 7.669631 
L -20.206001 2.92683 
L -19.14881 1.69231 
L -14.845355 0.879473 
L -12.063915 -0.319579 
L -10.023235 -2.482204 
L -7.659833 -3.688472 
L -6.088097 -5.254147 
L -3.222538 -9.447634 
L -3.012435 -10.853706 
L -4.349893 -12.08967 
L -3.984524 -12.996126 
L -4.151783 -15.911375 
L -1.399623 -19.935986 
L -1.31354 -21.863125 
L 2.216134 -25.368938 
L 7.046509 -27.213188 
L 10.461601 -29.275596 
L 13.021539 -33.538366 
L 14.783923 -38.098887 
L 17.336074 -38.82738 
L 18.057892 -37.105001 
L 18.94252 -36.257937 
L 20.371177 -35.363851 
L 22.276442 -34.911864 
L 24.482409 -35.494584 
L 25.119399 -35.202606 
L 25.543929 -35.616241 
L 27.380991 -35.165075 
L 28.550803 -35.601393 
L 29.074777 -36.404749 
L 29.618215 -34.807731 
L 30.139633 -34.729994 
L 29.510314 -35.390658 
L 30.532718 -34.690817 
L 32.423633 -34.697623 
L 34.86641 -32.831634 
L 34.375688 -32.098387 
L 35.187907 -31.505634 
L 34.67272 -30.962249 
L 35.348902 -29.476246 
L 34.976239 -27.566661 
L 35.601506 -26.816919 
L 35.326688 -25.213202 
L 36.170607 -24.312356 
L 35.884308 -23.67103 
L 36.538527 -22.701833 
L 38.428799 -21.445102 
L 37.404163 -20.748387 
L 37.088158 -19.788225 
L 37.638543 -19.67981 
L 37.567404 -19.394106 
L 31.260095 -19.609629 
L 29.496876 -19.326281 
L 29.218938 -19.186178 
L 29.754581 -17.898748 
L 25.73746 -17.155007 
L 25.669948 -15.8446 
L 24.985487 -15.580701 
L 24.851947 -14.73459 
L 25.390102 -14.765751 
L 26.243822 -13.648788 
L 25.73746 -13.046706 
L 25.804976 -12.409211 
L 22.294212 -11.382137 
L 18.412123 -8.690494 
L 16.656738 -6.388431 
L 15.779051 -6.388431 
L 15.610265 -6.848844 
L 13.112221 -6.671763 
L 10.647935 -5.998851 
L 8.892556 -6.317596 
L 7.913594 -5.680101 
L 6.445214 -5.643382 
L 1.547434 -2.275944 
L 1.476049 3.046247 
L 0.825665 3.046121 
L 0.937397 5.789113 
L -2.048394 5.95239 
L -4.00369 7.15989 
L -5.04143 6.853104 
L -6.098013 7.105418 
L -8.543659 6.298849 
L -11.609824 6.991504 
L -11.345739 8.258452 
L -13.182845 10.940821 
L -14.838486 11.514849 
L -16.626291 17.393915 
L -19.3314 19.220088 
L -20.876218 21.69938 
L -23.678297 23.169278 
L -24.692326 26.163282 
L -25.272537 30.166806 
L -27.251294 32.443274 
L -27.154569 33.002505 
L -27.831505 34.26932 
L -28.895077 34.571261 
L -34.06268 34.26932 
z
" clip-path="url(#pe6eb4c6e4d)" style="fill: #eeeeee; stroke: #000000; stroke-width: 0.3"/>
    <path d="M -39.204987 37.50035 
L -38.765919 34.675298 
L -34.06268 34.26932 
L -28.895077 34.571261 
L -27.831505 34.26932 
L -27.154569 33.002505 
L -27.251294 32.443274 
L -25.272537 30.166806 
L -24.692326 26.163282 
L -23.678297 23.169278 
L -20.876218 21.69938 
L -19.3314 19.220088 
L -16.626291 17.393915 
L -14.838486 11.514849 
L -13.182845 10.940821 
L -11.345739 8.258452 
L -11.609824 6.991504 
L -8.543659 6.298849 
L -6.098013 7.105418 
L -5.04143 6.853104 
L -4.00369 7.15989 
L -2.048394 5.95239 
L 0.937397 5.789113 
L 0.825665 3.046121 
L 1.476049 3.046247 
L 1.450589 11.465618 
L -14.622573 11.491544 
L -14.642043 24.332259 
L -17.540601 25.295953 
L -19.452459 26.577171 
L -20.114416 27.580539 
L -19.452459 35.113861 
L -38.500684 35.116744 
L -38.974249 37.984713 
z
" clip-path="url(#pe6eb4c6e4d)" style="fill: #eeeeee; stroke: #000000; stroke-width: 0.3"/>
    <path d="M 88.26923 -9.398124 
L 91.093775 -10.604316 
L 92.643834 -12.510233 
L 93.02024 -13.444596 
L 92.228486 -16.0471 
L 92.990288 -17.320589 
L 94.124999 -17.644007 
L 94.642181 -18.704592 
L 95.448411 -18.962542 
L 95.933148 -19.632413 
L 99.184522 -21.140414 
L 98.718757 -22.172586 
L 98.985316 -24.925633 
L 103.058153 -23.159297 
L 105.357677 -23.015784 
L 107.904844 -23.522003 
L 108.96616 -23.007949 
L 111.931172 -22.560493 
L 113.303813 -21.569911 
L 116.745239 -20.943889 
L 117.626921 -19.825046 
L 117.610412 -18.763944 
L 118.235017 -17.241363 
L 119.544368 -15.839 
L 120.911898 -15.268443 
L 125.24601 -14.800991 
L 129.625719 -13.485227 
L 131.36314 -12.702699 
L 133.511721 -10.944644 
L 135.461404 -10.153455 
L 138.164228 -10.9399 
L 140.499524 -13.542759 
L 140.725548 -14.970693 
L 139.617451 -17.719544 
L 140.362733 -19.833707 
L 142.734975 -21.766623 
L 145.093466 -22.853297 
L 146.850932 -22.960314 
L 147.85761 -23.68676 
L 150.400057 -23.743461 
L 155.020333 -22.182118 
L 155.227094 -21.362475 
L 154.896908 -20.632528 
L 156.015616 -19.764423 
L 155.952331 -20.07579 
L 157.742421 -19.868349 
L 159.77583 -18.968906 
L 162.88196 -19.107682 
L 164.254596 -18.681464 
L 164.922837 -17.232292 
L 163.438484 -15.638837 
L 164.143372 -12.783106 
L 162.662709 -9.535085 
L 164.077478 -4.656114 
L 164.056013 41.891548 
L 159.247592 41.894299 
L 159.247592 44.42452 
L 120.624474 24.414749 
L 112.080444 28.612847 
L 108.535284 25.757897 
L 101.225307 24.046687 
L 99.002308 20.010558 
L 95.196309 18.802009 
L 93.69817 19.202413 
L 92.972817 18.678665 
L 92.649325 17.800476 
L 91.870053 17.261277 
L 91.753737 14.853742 
L 88.710033 10.609554 
L 89.216236 9.679113 
L 91.012904 8.808384 
L 91.283476 7.193148 
L 90.371914 4.834976 
L 91.405786 2.005952 
L 90.637995 -0.025402 
L 90.87562 -4.388348 
L 90.110326 -6.819716 
z
" clip-path="url(#pe6eb4c6e4d)" style="fill: #eeeeee; stroke: #000000; stroke-width: 0.3"/>
    <path d="M -29.422967 88.195185 
L -27.643548 84.95773 
L -26.725248 84.880085 
L -25.608259 84.089747 
L -24.282099 84.250541 
L -23.581327 83.710557 
L -22.904517 83.882084 
L -22.875565 82.39752 
L -24.076295 81.643588 
L -23.43618 81.007233 
L -22.73591 80.9271 
L -22.896533 78.999185 
L -19.748119 79.189046 
L -19.629929 80.018399 
L -18.95924 79.693674 
L -16.291941 80.862939 
L -15.050898 80.347314 
L -12.044888 80.241514 
L -11.595595 80.463321 
L -12.171188 81.440637 
L -11.335006 82.278893 
L -10.641851 82.338599 
L -9.971156 81.38538 
L -9.487167 81.299485 
L -8.324253 82.967099 
L -7.359526 81.81328 
L -6.177638 81.307867 
L -3.550281 82.282821 
L -3.092249 81.549311 
L -1.684971 81.044161 
L -1.551431 80.598711 
L -2.050891 80.104031 
L -1.34226 79.902129 
L 0.058285 80.543191 
L -0.030451 81.272252 
L 0.918429 82.791118 
L 0.679803 84.145004 
L 1.262884 84.187952 
L 1.599852 84.963492 
L 2.959209 85.616078 
L 1.387439 87.588385 
L 2.069364 87.623082 
L 2.329204 87.211677 
L 3.194589 87.358328 
L 3.398268 89.955982 
L 4.911134 91.118705 
L 3.932428 92.841307 
L 4.010803 94.924122 
L 4.511016 95.642572 
L 5.422326 95.537034 
L 5.112316 96.682472 
L 5.995176 97.226906 
L 5.101332 97.631764 
L 4.922118 98.562726 
L 6.236545 99.515423 
L 6.402534 100.782234 
L 5.623011 100.26032 
L 5.421327 100.54904 
L 4.91438 100.16356 
L 3.569995 100.383401 
L 3.487375 101.435347 
L 4.756129 101.749206 
L 4.952567 102.605007 
L 4.43838 102.533519 
L 3.804877 104.828837 
L 2.768509 104.643435 
L 2.4273 104.921807 
L 2.031423 104.261883 
L 1.45583 104.230718 
L 0.628633 106.365774 
L -0.663827 106.785561 
L -1.189998 105.817149 
L -2.428297 105.843861 
L -1.775078 103.989795 
L -2.618747 101.741874 
L -2.468982 100.941325 
L -3.329377 100.697783 
L -3.200329 100.326447 
L -3.546035 100.474273 
L -3.794644 99.828756 
L -5.1862 100.542492 
L -5.603045 100.025028 
L -6.698317 100.174557 
L -7.565948 101.101592 
L -8.43982 101.22598 
L -7.215751 99.274106 
L -7.784852 98.549895 
L -7.757895 97.340166 
L -8.493237 97.189588 
L -8.14928 96.06131 
L -8.905836 95.627121 
L -10.682536 92.637176 
L -14.114375 92.58467 
L -14.170786 92.940951 
L -15.231364 93.180829 
L -15.885332 92.905204 
L -16.830096 93.148488 
L -18.239625 95.852465 
L -19.175521 96.233749 
L -19.181515 96.71311 
L -19.938694 97.391627 
L -20.833161 97.404068 
L -20.140552 96.674328 
L -20.632298 96.619269 
L -20.503366 96.259249 
L -20.901755 96.691649 
L -20.833161 95.806021 
L -21.348493 96.159859 
L -21.294642 95.387845 
L -21.861463 95.335882 
L -21.729585 94.730481 
L -22.023217 95.079575 
L -22.221133 94.730481 
L -22.886616 95.024521 
L -22.089057 93.619888 
L -22.524198 93.343169 
L -22.89959 93.843616 
L -22.688898 92.817976 
L -23.449902 93.252236 
L -24.490782 92.418571 
L -24.20855 91.534797 
L -24.94892 92.264745 
L -24.874429 91.638723 
L -25.283231 92.009056 
L -25.387008 91.622846 
L -26.394869 91.459326 
L -26.793257 89.971393 
L -27.38622 90.116553 
L -26.625215 88.031052 
L -27.589242 89.287631 
L -27.355167 88.442214 
L -27.881502 89.002661 
L -27.785589 88.128375 
L -28.115186 88.373756 
L -28.168448 87.925064 
L -27.41963 87.297806 
L -27.518489 87.156557 
L -28.283228 87.644012 
L -28.645844 87.332447 
L -28.843959 88.653567 
z
" clip-path="url(#pe6eb4c6e4d)" style="fill: #eeeeee; stroke: #000000; stroke-width: 0.3"/>
    <path d="M -12.018516 108.157797 
L -11.250638 106.667193 
L -7.859735 103.852312 
L -7.845007 102.520424 
L -6.438478 101.753919 
L -6.251521 100.226018 
L -5.328227 100.096911 
L -5.1862 100.542492 
L -3.794644 99.828756 
L -3.546035 100.474273 
L -3.200329 100.326447 
L -3.329377 100.697783 
L -2.468982 100.941325 
L -2.618747 101.741874 
L -1.775078 103.989795 
L -2.428297 105.843861 
L -1.189998 105.817149 
L -0.663827 106.785561 
L 0.366049 106.481786 
L 1.45583 104.230718 
L 2.031423 104.261883 
L 2.716343 105.20594 
L 3.399765 107.658911 
L 3.141921 108.878192 
L 1.783563 110.319545 
L 2.751787 110.530488 
L 2.78299 111.093905 
L 5.185701 111.439974 
L 5.802727 113.029021 
L 7.214251 113.799194 
L 7.44539 113.597683 
L 7.719705 116.277437 
L 6.821123 117.519371 
L 6.947925 118.320968 
L 6.677599 118.404375 
L 6.990759 121.164086 
L 3.529219 120.013049 
L -0.565113 117.724642 
L -6.499459 112.127556 
L -8.695993 111.33245 
L -8.556256 110.768699 
L -11.42437 109.263855 
z
" clip-path="url(#pe6eb4c6e4d)" style="fill: #eeeeee; stroke: #000000; stroke-width: 0.3"/>
    <path d="M 112.906641 112.619191 
L 114.766208 111.203896 
L 116.947774 106.495144 
L 117.956683 105.774465 
L 118.189811 105.097783 
L 120.335431 105.275594 
L 122.487537 104.341495 
L 122.590874 103.778463 
L 123.346687 103.34061 
L 123.663184 104.305616 
L 124.475403 105.007175 
L 128.617375 102.757683 
L 133.203144 102.439242 
L 135.786576 99.26088 
L 134.55801 98.377451 
L 135.292855 97.689245 
L 142.119094 96.914358 
L 142.634281 95.984445 
L 143.243318 96.08383 
L 144.007617 95.495658 
L 146.088334 92.669648 
L 146.65544 92.683007 
L 147.326381 91.530632 
L 148.319317 91.043543 
L 148.337788 89.320155 
L 151.837273 87.487956 
L 153.83662 87.888881 
L 155.914347 90.318414 
L 157.622154 93.240667 
L 157.56125 96.207696 
L 156.798453 96.749379 
L 156.612245 97.518372 
L 157.248742 97.741882 
L 156.948213 99.080185 
L 160.389292 99.177604 
L 160.548041 99.744564 
L 160.000405 100.457905 
L 160.076287 101.070953 
L 163.202858 101.768321 
L 164.453885 103.208367 
L 165.215682 103.370726 
L 165.517708 104.407484 
L 164.966077 104.810771 
L 165.087885 105.209604 
L 165.907093 106.04891 
L 169.124274 107.766277 
L 169.438777 108.609247 
L 170.824092 109.506429 
L 170.303413 110.457292 
L 171.456594 111.775827 
L 171.050236 112.449889 
L 172.748059 112.908823 
L 172.953733 113.350999 
L 174.426412 113.988919 
L 175.089369 114.957594 
L 175.105845 116.566283 
L 175.959994 117.526181 
L 174.184294 116.854212 
L 173.186369 117.694303 
L 172.56984 117.406242 
L 171.425643 117.644023 
L 169.955959 116.676533 
L 168.567649 117.022597 
L 166.794446 115.982829 
L 165.924564 116.310822 
L 165.653992 117.721014 
L 162.866885 118.302634 
L 161.252431 117.264832 
L 161.263415 117.702031 
L 160.589977 118.239918 
L 157.348085 119.232811 
L 156.509908 119.958071 
L 154.016834 118.77859 
L 153.007925 120.460606 
L 152.539166 120.551609 
L 152.143289 121.982878 
L 151.142369 122.299874 
L 148.408675 121.465418 
L 145.866184 121.47458 
L 144.226767 120.654653 
L 142.819987 120.849096 
L 141.654324 119.040466 
L 139.170239 117.393148 
L 137.162405 117.223845 
L 135.589384 118.34401 
L 133.995396 120.922028 
L 132.974508 121.290744 
L 133.479711 122.719134 
L 133.382363 125.603152 
L 132.637038 124.816747 
L 131.557241 125.106378 
L 131.233749 125.600532 
L 130.753011 125.164382 
L 129.594337 125.282486 
L 129.357707 124.890465 
L 127.743253 124.430482 
L 125.571178 125.292703 
L 123.784992 125.341017 
L 122.944815 127.226638 
L 123.010714 128.849207 
L 121.564495 131.835614 
L 120.963939 128.324936 
L 120.281019 127.523339 
L 119.660993 127.472536 
L 116.27633 123.530685 
L 115.991779 122.819958 
L 116.783031 122.632327 
L 116.30678 122.334967 
L 115.83702 120.857736 
L 114.50063 119.800029 
L 114.218572 117.050747 
L 113.547133 116.412036 
L 114.01839 115.374625 
L 114.01839 113.501313 
z
" clip-path="url(#pe6eb4c6e4d)" style="fill: #eeeeee; stroke: #000000; stroke-width: 0.3"/>
    <path d="M 148.757129 78.389673 
L 149.503953 76.845667 
L 150.97014 75.648642 
L 150.039605 73.389719 
L 150.714541 72.496337 
L 152.316519 71.568517 
L 151.74991 70.935572 
L 151.433407 69.522107 
L 152.945524 68.785065 
L 152.86016 67.931484 
L 154.304882 66.187147 
L 154.057273 64.465324 
L 154.964844 63.640031 
L 159.262566 63.554399 
L 159.247592 41.894299 
L 164.073981 41.860646 
L 164.077478 31.759522 
L 194.349006 31.764498 
L 195.193674 30.585803 
L 195.524653 30.858154 
L 195.252583 31.759522 
L 203.684437 31.759228 
L 205.518679 33.210027 
L 207.635438 32.914917 
L 208.046298 31.759 
L 221.568187 31.757683 
L 221.588629 33.508937 
L 223.642083 36.511206 
L 223.347273 36.772875 
L 223.239961 36.155722 
L 222.637367 35.751979 
L 223.231706 39.007875 
L 222.976204 40.101557 
L 223.307965 44.018942 
L 224.228168 47.639399 
L 224.737602 48.378417 
L 225.389286 48.251399 
L 225.791843 48.820512 
L 226.600598 49.041478 
L 227.549019 49.911797 
L 227.328091 50.242111 
L 227.693036 50.742726 
L 228.439245 50.45279 
L 228.010002 50.902922 
L 228.851192 50.870134 
L 229.877137 51.935985 
L 228.087574 54.409768 
L 227.537441 54.308944 
L 227.329767 54.64205 
L 227.148056 54.29585 
L 224.526185 55.491831 
L 224.078891 56.922182 
L 222.002165 56.756938 
L 222.128966 57.87383 
L 221.533903 59.538824 
L 221.909314 60.731136 
L 220.540972 63.544446 
L 220.332796 64.950706 
L 219.353342 66.532689 
L 219.842571 70.941071 
L 219.190101 74.306801 
L 217.961535 77.179685 
L 217.897139 78.755643 
L 215.791455 79.070942 
L 214.002776 82.291461 
L 212.82114 83.329531 
L 212.823135 84.697298 
L 212.200616 86.195868 
L 212.268509 87.968625 
L 211.689921 88.85179 
L 211.283563 89.079886 
L 210.415932 88.066302 
L 208.989681 89.681016 
L 209.213825 91.413835 
L 207.981182 95.310646 
L 207.06696 95.084516 
L 207.51051 93.282302 
L 207.238687 91.662353 
L 204.651265 89.274197 
L 203.485854 88.801641 
L 203.211538 84.442886 
L 203.820078 81.345574 
L 201.513961 81.316243 
L 201.585849 82.397783 
L 198.376411 82.412581 
L 199.661881 83.915864 
L 199.663881 85.920507 
L 200.059758 87.062671 
L 197.70347 89.224702 
L 196.360337 91.4611 
L 193.94315 93.742675 
L 192.015434 93.943929 
L 188.381665 91.176054 
L 186.461441 92.252091 
L 186.453954 92.980229 
L 185.8222 93.754462 
L 183.072591 94.933421 
L 182.734517 95.969668 
L 178.876501 95.934894 
L 178.151791 94.597041 
L 174.216743 94.539165 
L 172.020706 95.178529 
L 168.54144 91.628178 
L 168.169777 90.420678 
L 164.539751 91.093037 
L 164.053516 92.712206 
L 163.184634 93.464699 
L 163.165912 94.977149 
L 162.62327 95.72231 
L 162.034949 98.188243 
L 159.888581 99.227621 
L 156.874833 98.969413 
L 157.248742 97.741882 
L 156.612245 97.518372 
L 156.798453 96.749379 
L 157.56125 96.207696 
L 157.622154 93.240667 
L 155.914347 90.318414 
L 153.83662 87.888881 
L 154.283914 86.207524 
L 154.096213 85.471921 
L 153.405802 85.436043 
L 152.294054 84.271491 
L 152.635514 82.042684 
L 151.890188 82.257417 
L 152.015492 81.576807 
L 151.478337 80.064752 
L 151.830284 79.315006 
L 150.667118 78.644607 
L 150.188872 79.115719 
L 149.368167 79.170712 
z
" clip-path="url(#pe6eb4c6e4d)" style="fill: #eeeeee; stroke: #000000; stroke-width: 0.3"/>
    <path d="M 223.305999 37.796655 
L 223.499786 37.651079 
L 223.359064 38.071317 
z
" clip-path="url(#pe6eb4c6e4d)" style="fill: #eeeeee; stroke: #000000; stroke-width: 0.3"/>
    <path d="M 1.783563 110.319545 
L 3.073033 108.989228 
L 3.387535 107.780943 
L 2.4273 104.921807 
L 2.768509 104.643435 
L 3.666097 104.991202 
L 4.43838 102.533519 
L 4.952567 102.605007 
L 4.756129 101.749206 
L 3.487375 101.435347 
L 3.543289 100.419148 
L 4.91438 100.16356 
L 6.402534 100.782234 
L 6.236545 99.515423 
L 4.922118 98.562726 
L 5.101332 97.631764 
L 5.995176 97.226906 
L 5.112316 96.682472 
L 5.422326 95.537034 
L 4.511016 95.642572 
L 4.010803 94.924122 
L 3.932428 92.841307 
L 4.822022 91.725855 
L 5.598048 91.474194 
L 6.393048 90.331509 
L 7.180058 90.222572 
L 7.847005 91.268755 
L 9.526106 91.832831 
L 9.789443 90.799083 
L 11.201469 90.717252 
L 11.200218 89.231771 
L 12.278271 89.748187 
L 12.369875 89.069933 
L 13.196073 88.86528 
L 13.444929 89.35616 
L 13.170362 89.94158 
L 13.560249 90.417273 
L 13.273201 91.270068 
L 14.355495 91.584576 
L 15.021447 90.641046 
L 16.393281 90.246399 
L 17.318323 91.023642 
L 18.607291 91.004786 
L 18.924045 91.988517 
L 19.439729 92.342436 
L 19.426499 93.048317 
L 20.236101 93.34476 
L 20.245833 93.790863 
L 20.803082 94.157876 
L 21.629651 93.838655 
L 21.669467 94.294969 
L 22.299974 94.660153 
L 23.367038 93.467577 
L 25.276032 92.871687 
L 27.390946 93.046746 
L 27.465578 93.351829 
L 27.885668 92.974341 
L 29.838713 95.531014 
L 30.424165 95.13768 
L 30.5597 96.32763 
L 30.010566 97.335716 
L 30.761133 98.001397 
L 31.307523 101.621413 
L 30.803566 101.846489 
L 30.804068 102.479179 
L 29.934312 102.969274 
L 29.205462 104.824651 
L 29.054326 106.660124 
L 27.836492 108.512618 
L 27.655032 109.689611 
L 28.779256 114.315741 
L 29.093015 114.287718 
L 29.184494 114.80204 
L 29.958647 114.869211 
L 30.050256 117.068555 
L 28.250878 117.163369 
L 27.932482 116.776536 
L 28.217468 116.015454 
L 27.657133 116.157113 
L 27.415189 117.276781 
L 25.438384 116.675915 
L 24.926004 116.88335 
L 24.083432 116.534048 
L 25.402419 116.534048 
L 25.466095 116.454041 
L 25.257368 116.028857 
L 25.035084 115.979368 
L 25.329502 116.496107 
L 24.545303 116.119172 
L 24.145543 116.520852 
L 23.486735 116.326612 
L 22.928559 116.445791 
L 22.766613 116.301452 
L 21.901243 116.572192 
L 21.370387 116.364346 
L 20.77369 116.710552 
L 20.839926 116.29527 
L 20.187214 116.969955 
L 23.204899 116.464764 
L 24.113306 116.710552 
L 19.78116 117.232653 
L 19.215517 116.789732 
L 17.709621 116.717976 
L 17.335408 117.165016 
L 18.359778 117.052227 
L 18.159306 116.848709 
L 19.250893 117.232653 
L 15.150664 117.732685 
L 10.070091 119.597351 
L 7.395963 121.208594 
L 6.830856 121.049822 
L 6.821123 117.519371 
L 7.719705 116.277437 
L 7.44539 113.597683 
L 7.214251 113.799194 
L 5.802727 113.029021 
L 5.185701 111.439974 
L 2.78299 111.093905 
L 2.751787 110.530488 
z
" clip-path="url(#pe6eb4c6e4d)" style="fill: #eeeeee; stroke: #000000; stroke-width: 0.3"/>
    <path d="M 27.588143 117.28606 
L 27.792156 117.056144 
L 28.345221 117.421739 
z
" clip-path="url(#pe6eb4c6e4d)" style="fill: #eeeeee; stroke: #000000; stroke-width: 0.3"/>
    <path d="M -15.824428 68.349436 
L -14.888653 68.554876 
L -13.681059 67.715834 
L -13.803118 66.301451 
L -13.230268 64.466505 
L -12.688375 64.466505 
L -12.251311 63.948124 
L -9.308702 66.687452 
L -8.391895 65.014345 
L -5.214906 65.36054 
L -2.105554 64.9765 
L -2.239843 64.227544 
L -1.779821 63.672504 
L -1.744875 64.697216 
L 16.79465 64.704549 
L 17.5562 60.560395 
L 16.251757 59.466551 
L 11.56764 16.562991 
L 20.124277 16.558273 
L 48.95146 36.288102 
L 48.990396 38.127243 
L 50.947315 38.843204 
L 52.002149 40.32908 
L 53.417918 40.790371 
L 54.043929 40.483058 
L 55.007913 41.584499 
L 58.864334 42.780607 
L 59.163858 44.970788 
L 58.407051 46.251874 
L 59.280179 46.960244 
L 63.838493 46.21783 
L 63.62283 60.032983 
L 63.026772 60.629532 
L 62.112211 63.586609 
L 60.447339 64.695645 
L 60.353484 65.415143 
L 58.066089 65.047861 
L 57.904848 65.490427 
L 49.845053 65.771682 
L 48.116775 67.253231 
L 46.650086 67.514322 
L 44.482252 67.229535 
L 44.468776 67.660055 
L 42.270242 66.876396 
L 41.357178 67.195749 
L 41.153499 66.803986 
L 39.937168 66.811319 
L 38.203901 68.240889 
L 35.21711 69.762375 
L 33.767394 69.891218 
L 33.579688 71.358101 
L 33.019576 71.485241 
L 31.523181 70.852951 
L 30.867716 71.149915 
L 29.564021 72.273744 
L 29.428983 74.041788 
L 28.596922 74.269225 
L 27.536968 73.808061 
L 27.722051 75.86037 
L 26.756449 75.997194 
L 26.751952 76.488601 
L 24.229931 75.38415 
L 24.489022 75.05825 
L 24.183378 74.815494 
L 22.39707 76.744452 
L 23.069383 78.260308 
L 22.848359 78.758263 
L 21.748966 78.78995 
L 22.222344 79.70572 
L 21.911333 80.205641 
L 22.131111 80.853514 
L 21.734862 80.786475 
L 21.385664 81.654062 
L 20.415692 82.378142 
L 18.831189 82.516674 
L 17.270901 83.280558 
L 17.875697 83.633302 
L 18.208173 85.339673 
L 17.656542 86.863125 
L 16.827099 87.110858 
L 17.178794 88.266243 
L 16.936179 89.83395 
L 16.738489 90.390561 
L 15.021447 90.641046 
L 14.355495 91.584576 
L 13.273201 91.270068 
L 13.560249 90.417273 
L 13.170362 89.94158 
L 13.444929 89.35616 
L 13.196073 88.86528 
L 12.369875 89.069933 
L 12.278271 89.748187 
L 11.200218 89.231771 
L 11.201469 90.717252 
L 9.789443 90.799083 
L 9.526106 91.832831 
L 7.847005 91.268755 
L 7.180058 90.222572 
L 6.393048 90.331509 
L 5.598048 91.474194 
L 4.822022 91.725855 
L 4.790075 90.883276 
L 3.666594 90.401036 
L 3.344605 89.823212 
L 3.194589 87.358328 
L 2.329204 87.211677 
L 2.069364 87.623082 
L 1.409156 87.667991 
L 2.959209 85.616078 
L 1.599852 84.963492 
L 1.262884 84.187952 
L 0.679803 84.145004 
L 0.812344 82.347503 
L 0.318124 82.181738 
L 0.058285 80.543191 
L -0.769661 80.052706 
L -1.98125 80.013423 
L -1.551431 80.598711 
L -1.684971 81.044161 
L -3.092249 81.549311 
L -3.550281 82.282821 
L -6.177638 81.307867 
L -7.359526 81.81328 
L -8.324253 82.967099 
L -9.487167 81.299485 
L -9.971156 81.38538 
L -10.641851 82.338599 
L -11.335006 82.278893 
L -12.171188 81.440637 
L -11.595595 80.463321 
L -11.543178 79.978071 
L -11.977995 79.657274 
L -11.596594 77.493282 
L -12.293247 76.777447 
L -12.679888 75.515613 
L -13.298663 75.277438 
L -13.718498 75.78691 
L -15.020198 73.774413 
L -14.369471 73.140678 
L -14.536958 71.434439 
L -15.619628 70.293846 
L -15.345684 69.023762 
z
" clip-path="url(#pe6eb4c6e4d)" style="fill: #eeeeee; stroke: #000000; stroke-width: 0.3"/>
    <path d="M 56.315351 103.199199 
L 56.789105 97.325242 
L 58.27127 97.132107 
L 58.544339 95.297029 
L 59.505821 94.310156 
L 59.478366 93.551511 
L 60.382441 93.324074 
L 60.75136 92.806088 
L 61.128264 91.804027 
L 60.668986 91.098931 
L 61.053879 90.33832 
L 61.635462 90.481038 
L 61.94897 89.506737 
L 61.430286 88.453611 
L 61.391847 86.909868 
L 60.166778 85.353421 
L 61.125767 83.629374 
L 60.821248 82.890108 
L 61.002959 79.786639 
L 62.391772 78.608992 
L 63.163055 77.363131 
L 63.341777 74.947215 
L 65.181873 73.823776 
L 66.873209 73.421274 
L 68.663883 73.587303 
L 70.084647 72.883124 
L 73.082421 74.096649 
L 74.176694 74.170367 
L 76.921121 77.367322 
L 77.556618 77.363917 
L 78.182131 76.749165 
L 79.118153 76.773783 
L 81.204863 75.594302 
L 82.562724 75.825541 
L 85.336354 77.731325 
L 89.736417 78.350526 
L 92.293887 76.076674 
L 94.975657 75.443203 
L 98.670832 75.497279 
L 101.654131 76.752307 
L 103.65897 77.018897 
L 104.085798 76.11386 
L 105.264937 75.453941 
L 105.444156 74.865379 
L 107.307718 74.566843 
L 107.799445 73.749009 
L 109.139332 73.775984 
L 111.349594 76.948848 
L 111.948652 80.534551 
L 113.388882 80.699794 
L 114.271989 81.563191 
L 113.653465 83.882084 
L 114.037358 84.287727 
L 113.961978 84.870786 
L 111.835331 86.271421 
L 110.950727 86.079203 
L 109.851958 87.394464 
L 108.808353 89.397668 
L 108.306642 91.76933 
L 107.317702 92.317037 
L 107.149969 94.866641 
L 105.507557 95.698219 
L 105.715226 96.284424 
L 105.109183 98.835336 
L 104.07082 99.612579 
L 103.157259 99.592805 
L 103.326494 100.165653 
L 102.472339 100.72423 
L 102.303606 102.881286 
L 101.467425 104.106593 
L 101.477409 104.829364 
L 100.103575 106.415269 
L 100.758543 107.347281 
L 99.258907 108.377492 
L 99.122121 109.547937 
L 98.331869 110.50744 
L 97.093817 110.61769 
L 96.722902 109.064253 
L 94.510389 107.086453 
L 94.11102 108.384561 
L 92.733689 108.361777 
L 92.40571 107.710499 
L 91.109754 108.825292 
L 90.693909 108.789551 
L 90.232636 110.124581 
L 88.532316 111.225889 
L 86.801541 113.345237 
L 86.189007 113.589828 
L 86.01229 114.319801 
L 86.421145 114.868947 
L 85.913942 117.075624 
L 84.614 119.359809 
L 82.932397 117.927958 
L 83.762584 119.663954 
L 83.448908 120.172236 
L 79.922185 120.289976 
L 79.856146 119.349086 
L 79.649386 120.049961 
L 78.582167 119.905824 
L 78.834529 120.269564 
L 78.582167 120.393694 
L 77.571558 119.110308 
L 78.116368 120.321937 
L 77.437124 120.739697 
L 77.437124 119.6955 
L 77.044435 119.24846 
L 77.172971 119.871598 
L 76.744515 119.487654 
L 77.339245 120.934555 
L 77.077454 121.053947 
L 76.590427 120.925895 
L 76.187914 118.811732 
L 75.851042 118.723475 
L 76.600648 121.123849 
L 75.851042 121.154777 
L 75.9501 119.871598 
L 75.751985 120.808981 
L 75.55387 120.359052 
L 75.716213 121.246535 
L 75.353795 121.245714 
L 75.272817 120.509169 
L 75.053478 120.393694 
L 75.145855 121.254993 
L 73.701279 121.469234 
L 74.000808 120.739697 
L 73.665115 120.947133 
L 73.536188 120.428336 
L 73.47015 121.431704 
L 72.939491 121.572952 
L 72.823137 120.868778 
L 72.693027 121.456038 
L 72.339646 120.843623 
L 72.208357 121.261793 
L 71.862839 121.08302 
L 69.860879 118.65749 
L 69.428882 117.248322 
L 69.95954 117.163369 
L 69.330221 117.056144 
L 69.207578 116.141646 
L 70.355765 115.948851 
L 70.143502 115.470467 
L 70.530294 115.325717 
L 70.655294 115.147147 
L 69.610487 115.672542 
L 69.660016 115.879983 
L 68.520866 115.343449 
L 68.640756 114.939295 
L 70.02597 114.891457 
L 69.725658 114.559066 
L 69.139182 114.81661 
L 69.195 114.212855 
L 68.918269 114.755368 
L 68.188318 114.70155 
L 68.060564 113.864997 
L 68.96701 113.272583 
L 67.780298 113.995314 
L 66.346338 112.113332 
L 64.693039 110.998406 
L 60.04682 110.737564 
L 59.763409 110.564359 
L 61.980781 109.721618 
L 60.393125 110.145976 
L 60.228425 109.765331 
L 59.847527 110.018957 
L 59.690295 110.536518 
L 59.761444 110.801694 
L 56.473583 110.950371 
L 56.900928 105.329016 
z
" clip-path="url(#pe6eb4c6e4d)" style="fill: #eeeeee; stroke: #000000; stroke-width: 0.3"/>
    <path d="M 77.891523 120.940125 
L 78.33335 120.252243 
L 78.549153 120.459471 
L 78.830989 120.459471 
L 78.665893 120.850429 
z
" clip-path="url(#pe6eb4c6e4d)" style="fill: #eeeeee; stroke: #000000; stroke-width: 0.3"/>
    <path d="M 78.852217 120.62031 
L 80.047967 120.496383 
L 79.310549 120.748768 
z
" clip-path="url(#pe6eb4c6e4d)" style="fill: #eeeeee; stroke: #000000; stroke-width: 0.3"/>
    <path d="M 47.126835 90.686482 
L 47.187241 89.034709 
L 47.767824 87.515974 
L 48.066353 87.610251 
L 48.153717 87.073145 
L 48.795203 87.338949 
L 48.544599 86.759291 
L 49.008866 86.638302 
L 48.89854 86.161039 
L 49.839561 86.015438 
L 50.367229 85.078323 
L 51.149496 85.509497 
L 52.993587 85.381181 
L 54.395378 84.174857 
L 54.91356 82.675633 
L 55.279982 82.517723 
L 54.81871 81.302363 
L 55.465191 80.976331 
L 57.15203 80.388428 
L 60.784804 83.953313 
L 60.166778 85.353421 
L 61.391847 86.909868 
L 61.430286 88.453611 
L 61.94897 89.506737 
L 61.635462 90.481038 
L 61.053879 90.33832 
L 60.668986 91.098931 
L 61.128264 91.804027 
L 60.75136 92.806088 
L 60.382441 93.324074 
L 59.478366 93.551511 
L 59.505821 94.310156 
L 58.544339 95.297029 
L 58.27127 97.132107 
L 56.789105 97.325242 
L 56.315351 103.199199 
L 56.900928 105.329016 
L 56.473583 110.950371 
L 51.236696 111.733097 
L 52.022619 111.41195 
L 50.977764 109.380469 
L 50.813026 107.790368 
L 51.265812 107.765755 
L 51.147497 97.363345 
L 49.82009 94.969295 
L 49.842556 92.564638 
z
" clip-path="url(#pe6eb4c6e4d)" style="fill: #eeeeee; stroke: #000000; stroke-width: 0.3"/>
    <path d="M 108.377033 70.051617 
L 109.383444 69.495791 
L 110.233856 67.109596 
L 112.818283 63.410105 
L 118.114934 57.607509 
L 119.421372 42.359907 
L 120.553088 40.166715 
L 118.620634 38.060726 
L 118.49533 37.359431 
L 118.809335 37.053563 
L 116.757571 34.314361 
L 116.697165 31.769475 
L 115.769214 26.69037 
L 120.624474 24.414749 
L 159.247592 44.42452 
L 159.262566 63.554399 
L 154.964844 63.640031 
L 154.057273 64.465324 
L 154.304882 66.187147 
L 152.86016 67.931484 
L 152.945524 68.785065 
L 151.433407 69.522107 
L 151.74991 70.935572 
L 152.316519 71.568517 
L 150.714541 72.496337 
L 150.039605 73.389719 
L 150.97014 75.648642 
L 149.503953 76.845667 
L 148.757129 78.389673 
L 149.368167 79.170712 
L 150.188872 79.115719 
L 150.667118 78.644607 
L 151.830284 79.315006 
L 151.478337 80.064752 
L 152.015492 81.576807 
L 151.890188 82.257417 
L 152.635514 82.042684 
L 152.294054 84.271491 
L 153.405802 85.436043 
L 154.096213 85.471921 
L 154.132652 87.037926 
L 153.83662 87.888881 
L 151.837273 87.487956 
L 148.337788 89.320155 
L 148.319317 91.043543 
L 147.326381 91.530632 
L 146.65544 92.683007 
L 146.088334 92.669648 
L 144.007617 95.495658 
L 143.243318 96.08383 
L 142.634281 95.984445 
L 142.119094 96.914358 
L 135.292855 97.689245 
L 134.55801 98.377451 
L 135.786576 99.26088 
L 133.203144 102.439242 
L 128.617375 102.757683 
L 124.587227 104.994344 
L 123.663184 104.305616 
L 123.346687 103.34061 
L 122.590874 103.778463 
L 122.487537 104.341495 
L 120.335431 105.275594 
L 118.189811 105.097783 
L 118.585191 103.733686 
L 117.995121 103.495642 
L 116.753576 100.253773 
L 112.724428 96.761166 
L 110.782989 94.382435 
L 111.913706 92.657339 
L 114.76771 92.943307 
L 119.156789 92.590954 
L 116.502474 89.806717 
L 115.968817 86.55411 
L 116.521443 84.789213 
L 116.187469 84.030041 
L 116.402132 83.511797 
L 116.1051 81.982978 
L 115.373753 81.637304 
L 115.048764 79.278605 
L 113.715866 78.525327 
L 113.055908 76.93287 
L 111.349594 76.948848 
L 109.139332 73.775984 
z
" clip-path="url(#pe6eb4c6e4d)" style="fill: #eeeeee; stroke: #000000; stroke-width: 0.3"/>
    <path d="M 1.476049 4.951769 
L 1.49352 -2.180359 
L 6.610203 -5.710421 
L 7.913594 -5.680101 
L 8.892556 -6.317596 
L 10.647935 -5.998851 
L 12.437073 -6.600929 
L 15.610265 -6.848844 
L 15.779051 -6.388431 
L 16.656738 -6.388431 
L 18.412123 -8.690494 
L 22.294212 -11.382137 
L 25.804976 -12.409211 
L 25.73746 -13.046706 
L 26.243822 -13.648788 
L 25.390102 -14.765751 
L 24.851947 -14.73459 
L 24.985487 -15.580701 
L 25.669948 -15.8446 
L 25.73746 -17.155007 
L 29.754581 -17.898748 
L 29.218938 -19.186178 
L 29.496876 -19.326281 
L 31.260095 -19.609629 
L 37.567404 -19.394106 
L 37.638543 -19.67981 
L 37.088158 -19.788225 
L 37.404163 -20.748387 
L 38.428799 -21.445102 
L 36.538527 -22.701833 
L 35.884308 -23.67103 
L 36.170607 -24.312356 
L 35.326688 -25.213202 
L 35.601506 -26.816919 
L 34.976239 -27.566661 
L 35.348902 -29.476246 
L 34.67272 -30.962249 
L 35.187907 -31.505634 
L 34.375688 -32.098387 
L 34.86641 -32.831634 
L 32.817143 -34.160643 
L 32.678154 -34.594934 
L 34.906926 -34.799278 
L 37.159278 -35.989872 
L 38.424215 -37.601531 
L 39.541349 -38.064245 
L 40.387655 -37.806083 
L 41.097556 -38.652737 
L 43.012254 -38.167963 
L 45.066893 -40.253672 
L 49.918298 -41.971729 
L 54.772065 -42.444751 
L 55.975678 -42.231953 
L 57.581023 -43.307494 
L 58.58102 -42.968296 
L 59.002013 -43.326461 
L 60.224885 -43.148717 
L 62.12504 -43.858044 
L 66.536198 -43.747525 
L 69.034623 -42.468467 
L 71.108519 -43.427914 
L 73.346328 -43.782578 
L 74.40293 -44.748623 
L 76.976431 -43.720303 
L 78.349859 -44.109608 
L 78.300331 -44.732539 
L 81.082167 -44.245084 
L 80.960703 -43.719892 
L 81.612825 -43.515137 
L 83.181219 -44.065069 
L 84.965222 -43.970995 
L 85.154638 -43.448255 
L 84.050381 -43.182456 
L 84.13375 -42.567837 
L 82.875729 -41.874659 
L 83.782804 -41.390976 
L 83.221189 -38.337007 
L 83.682959 -36.868416 
L 83.476783 -35.789759 
L 84.138242 -35.367357 
L 83.506237 -34.485368 
L 83.197226 -32.356858 
L 81.241307 -31.174757 
L 80.921313 -30.314898 
L 79.7242 -29.55638 
L 79.542484 -28.537165 
L 80.726618 -25.179943 
L 82.474365 -24.485064 
L 83.421371 -23.178052 
L 83.655002 -21.613487 
L 87.102568 -19.303761 
L 89.395455 -9.964556 
L 88.26923 -9.398124 
L 90.110326 -6.819716 
L 90.87562 -4.388348 
L 90.637995 -0.025402 
L 91.397797 2.205239 
L 90.369417 4.919037 
L 91.264508 7.120347 
L 91.214588 8.157627 
L 90.922048 8.910516 
L 89.216236 9.679113 
L 88.710033 10.609554 
L 91.753737 14.853742 
L 91.870053 17.261277 
L 92.649325 17.800476 
L 92.885454 18.585046 
L 93.69817 19.202413 
L 95.091972 18.782631 
L 99.160559 20.093179 
L 101.225307 24.046687 
L 79.556463 37.449253 
L 71.401069 44.65929 
L 59.51281 47.062507 
L 58.407051 46.251874 
L 59.163858 44.970788 
L 58.864334 42.780607 
L 55.007913 41.584499 
L 54.043929 40.483058 
L 53.417918 40.790371 
L 52.002149 40.32908 
L 50.947315 38.843204 
L 48.990396 38.127243 
L 48.95146 36.288102 
L 20.124277 16.558273 
z
" clip-path="url(#pe6eb4c6e4d)" style="fill: #eeeeee; stroke: #000000; stroke-width: 0.3"/>
    <path d="M 84.519662 120.281316 
L 84.963942 118.485948 
L 85.913942 117.075624 
L 86.421145 114.868947 
L 86.01229 114.319801 
L 86.137589 113.67323 
L 88.532316 111.225889 
L 90.232636 110.124581 
L 90.693909 108.789551 
L 91.109754 108.825292 
L 92.40571 107.710499 
L 92.733689 108.361777 
L 94.11102 108.384561 
L 94.510389 107.086453 
L 96.722902 109.064253 
L 97.014442 110.541089 
L 97.779736 110.638118 
L 99.122121 109.547937 
L 99.258907 108.377492 
L 100.758543 107.347281 
L 100.103575 106.415269 
L 101.477409 104.829364 
L 101.467425 104.106593 
L 102.303606 102.881286 
L 102.472339 100.72423 
L 103.326494 100.165653 
L 103.157259 99.592805 
L 104.07082 99.612579 
L 105.21352 98.685544 
L 105.715226 96.284424 
L 105.507557 95.698219 
L 107.149969 94.866641 
L 107.317702 92.317037 
L 108.306642 91.76933 
L 108.808353 89.397668 
L 109.851958 87.394464 
L 110.950727 86.079203 
L 111.835331 86.271421 
L 114.0124 84.749408 
L 113.653465 83.882084 
L 114.264004 81.509247 
L 113.388882 80.699794 
L 111.948652 80.534551 
L 111.349594 76.948848 
L 113.055908 76.93287 
L 113.715866 78.525327 
L 114.992854 79.174381 
L 115.373753 81.637304 
L 116.1051 81.982978 
L 116.521443 84.789213 
L 115.968817 86.55411 
L 116.533924 89.903214 
L 119.156789 92.590954 
L 114.76771 92.943307 
L 111.913706 92.657339 
L 110.775 94.307015 
L 112.724428 96.761166 
L 116.117079 99.419444 
L 117.995121 103.495642 
L 118.585191 103.733686 
L 117.956683 105.774465 
L 116.947774 106.495144 
L 114.766208 111.203896 
L 112.906641 112.619191 
L 114.01839 113.501313 
L 114.01839 115.374625 
L 113.547133 116.412036 
L 114.218572 117.050747 
L 114.50063 119.800029 
L 115.83702 120.857736 
L 116.30678 122.334967 
L 116.783031 122.632327 
L 115.991779 122.819958 
L 116.27633 123.530685 
L 121.14266 128.712509 
L 121.132676 130.500321 
L 121.699778 131.956861 
L 121.200569 132.106395 
L 121.004377 133.006845 
L 121.449174 134.510919 
L 121.033832 134.837869 
L 120.763254 134.246164 
L 119.280094 133.431999 
L 118.1988 133.209665 
L 117.495907 133.48529 
L 116.893357 132.886516 
L 115.346796 133.054901 
L 115.175566 132.499729 
L 114.730267 132.75558 
L 113.75131 132.02914 
L 113.127294 132.417761 
L 107.628712 132.271111 
L 107.580787 131.859706 
L 106.997209 131.652305 
L 104.997857 131.887729 
L 99.720179 131.453018 
L 98.244004 131.564054 
L 98.101228 132.247283 
L 91.671866 132.248069 
L 90.801738 131.745006 
L 91.501568 127.763896 
L 91.374602 126.643609 
L 89.98663 125.288051 
L 90.843944 124.837919 
L 89.90998 124.979167 
L 89.52201 123.866097 
L 89.900547 124.21808 
L 89.885216 123.586494 
L 90.48113 123.866097 
L 90.151726 123.413284 
L 90.577434 123.1677 
L 89.874604 123.15306 
L 90.529871 122.264543 
L 89.683565 122.886237 
L 89.196538 122.387644 
L 89.457151 123.005629 
L 89.000785 122.797778 
L 89.188679 123.378642 
L 88.544415 123.378642 
L 88.460689 122.790354 
L 87.902909 123.133266 
L 86.746071 122.441467 
L 86.574687 120.148317 
L 86.14623 119.710348 
L 86.246858 120.192446 
L 85.912348 119.905824 
L 85.863211 120.208322 
L 85.219343 119.210934 
L 85.545602 120.351836 
z
" clip-path="url(#pe6eb4c6e4d)" style="fill: #eeeeee; stroke: #000000; stroke-width: 0.3"/>
    <path d="M 44.152274 69.506002 
L 44.482252 67.229535 
L 47.998962 67.312547 
L 49.845053 65.771682 
L 57.904848 65.490427 
L 58.066089 65.047861 
L 60.353484 65.415143 
L 60.447339 64.695645 
L 61.990905 63.736137 
L 63.026772 60.629532 
L 63.62283 60.032983 
L 63.838493 46.21783 
L 71.401069 44.65929 
L 79.556463 37.449253 
L 101.225307 24.046687 
L 108.535284 25.757897 
L 112.080444 28.612847 
L 115.769214 26.69037 
L 116.697165 31.769475 
L 116.757571 34.314361 
L 118.809335 37.053563 
L 118.49533 37.359431 
L 118.620634 38.060726 
L 120.553088 40.166715 
L 119.421372 42.359907 
L 118.145881 57.495688 
L 112.818283 63.410105 
L 110.233856 67.109596 
L 109.383444 69.495791 
L 108.377033 70.051617 
L 109.139332 73.775984 
L 107.799445 73.749009 
L 107.307718 74.566843 
L 105.444156 74.865379 
L 105.264937 75.453941 
L 104.085798 76.11386 
L 103.65897 77.018897 
L 101.654131 76.752307 
L 98.670832 75.497279 
L 94.975657 75.443203 
L 92.293887 76.076674 
L 89.736417 78.350526 
L 85.336354 77.731325 
L 82.562724 75.825541 
L 81.204863 75.594302 
L 79.118153 76.773783 
L 78.182131 76.749165 
L 77.556618 77.363917 
L 76.921121 77.367322 
L 73.854202 73.979984 
L 73.082421 74.096649 
L 70.084647 72.883124 
L 68.663883 73.587303 
L 66.71845 73.438296 
L 64.920285 73.929703 
L 63.341777 74.947215 
L 63.163055 77.363131 
L 62.391772 78.608992 
L 61.002959 79.786639 
L 60.821248 82.890108 
L 61.125767 83.629374 
L 60.784804 83.953313 
L 57.15203 80.388428 
L 54.861143 81.214375 
L 55.282977 82.430778 
L 54.95849 82.935934 
L 53.324068 80.678845 
L 54.257095 80.262205 
L 53.60063 78.835776 
L 52.937175 78.741504 
L 52.319149 79.340146 
L 50.967283 79.208161 
L 48.164198 77.180081 
L 48.164198 75.477115 
L 49.541529 75.590375 
L 48.31746 74.984269 
L 47.745861 74.227848 
L 46.284166 73.853107 
L 45.196627 72.078516 
L 45.291477 71.001431 
z
" clip-path="url(#pe6eb4c6e4d)" style="fill: #eeeeee; stroke: #000000; stroke-width: 0.3"/>
    <path d="M 16.738489 90.390561 
L 17.178794 88.266243 
L 16.827099 87.110858 
L 17.656542 86.863125 
L 18.208173 85.339673 
L 17.875697 83.633302 
L 17.270901 83.280558 
L 18.831189 82.516674 
L 20.415692 82.378142 
L 21.385664 81.654062 
L 21.734862 80.786475 
L 22.131111 80.853514 
L 21.911333 80.205641 
L 22.222344 79.70572 
L 21.748966 78.78995 
L 22.848359 78.758263 
L 23.069383 78.260308 
L 22.513135 76.489914 
L 22.958685 76.454167 
L 24.200351 74.810649 
L 24.489022 75.05825 
L 24.229931 75.38415 
L 26.751952 76.488601 
L 26.756449 75.997194 
L 27.722051 75.86037 
L 27.536968 73.808061 
L 28.596922 74.269225 
L 29.428983 74.041788 
L 29.564021 72.273744 
L 30.867716 71.149915 
L 31.523181 70.852951 
L 33.019576 71.485241 
L 33.579688 71.358101 
L 33.767394 69.891218 
L 35.21711 69.762375 
L 38.203901 68.240889 
L 39.937168 66.811319 
L 41.153499 66.803986 
L 41.357178 67.195749 
L 42.270242 66.876396 
L 44.468776 67.660055 
L 44.180728 69.762375 
L 45.291477 71.001431 
L 45.196627 72.078516 
L 46.284166 73.853107 
L 47.745861 74.227848 
L 48.31746 74.984269 
L 49.541529 75.590375 
L 48.164198 75.477115 
L 48.164198 77.180081 
L 50.967283 79.208161 
L 52.319149 79.340146 
L 52.937175 78.741504 
L 53.60063 78.835776 
L 54.257095 80.262205 
L 53.324068 80.678845 
L 54.95849 82.935934 
L 54.462271 84.107818 
L 53.125881 85.31584 
L 51.149496 85.509497 
L 50.367229 85.078323 
L 49.839561 86.015438 
L 48.998882 86.032196 
L 49.008866 86.638302 
L 48.544599 86.759291 
L 48.811181 87.316034 
L 48.153717 87.073145 
L 48.066353 87.610251 
L 45.768974 87.81752 
L 45.763984 87.462947 
L 41.956362 86.653495 
L 40.347521 87.945577 
L 39.415243 87.449589 
L 29.70867 87.489263 
L 29.249016 89.332332 
L 30.045764 90.412296 
L 29.689572 90.807201 
L 30.106667 91.225154 
L 30.208256 93.444794 
L 29.911721 93.965663 
L 30.424165 95.13768 
L 30.064481 95.628428 
L 27.885668 92.974341 
L 27.465578 93.351829 
L 27.390946 93.046746 
L 25.276032 92.871687 
L 23.367038 93.467577 
L 22.299974 94.660153 
L 21.669467 94.294969 
L 21.629651 93.838655 
L 20.803082 94.157876 
L 20.245833 93.790863 
L 20.236101 93.34476 
L 19.426499 93.048317 
L 19.439729 92.342436 
L 18.924045 91.988517 
L 18.686917 91.059257 
L 17.318323 91.023642 
z
" clip-path="url(#pe6eb4c6e4d)" style="fill: #eeeeee; stroke: #000000; stroke-width: 0.3"/>
    <path d="M 42.611204 86.795169 
L 45.763984 87.462947 
L 45.768974 87.81752 
L 47.767824 87.515974 
L 47.087898 90.610144 
L 49.904459 92.737083 
L 49.82009 94.969295 
L 51.121539 97.225076 
L 51.35517 100.181104 
L 51.265812 107.765755 
L 50.813026 107.790368 
L 50.977764 109.380469 
L 52.022619 111.41195 
L 51.236696 111.733097 
L 49.139214 112.307774 
L 48.164198 111.172077 
L 47.015509 110.582729 
L 45.921733 108.599557 
L 45.802423 107.885689 
L 46.302134 107.591345 
L 46.532273 106.109665 
L 45.807417 105.19389 
L 46.371027 104.205055 
L 46.185321 101.648382 
L 46.856262 101.171904 
L 45.180779 98.758212 
L 45.85584 98.291687 
L 45.496653 97.474507 
L 45.980145 95.581685 
L 45.401929 95.119872 
L 44.509089 95.423384 
L 44.871889 95.042749 
L 44.525434 94.696685 
L 45.238065 94.627416 
L 44.674078 94.284099 
L 45.090044 94.253724 
L 45.329172 91.111499 
L 42.987862 89.336523 
L 43.491814 87.162051 
z
" clip-path="url(#pe6eb4c6e4d)" style="fill: #eeeeee; stroke: #000000; stroke-width: 0.3"/>
    <path d="M 27.655032 109.689611 
L 27.75562 108.707714 
L 29.054326 106.660124 
L 29.205462 104.824651 
L 29.934312 102.969274 
L 30.804068 102.479179 
L 30.803566 101.846489 
L 31.307523 101.621413 
L 30.761133 98.001397 
L 30.010566 97.335716 
L 30.566192 96.231392 
L 29.911721 93.965663 
L 30.208256 93.444794 
L 30.106667 91.225154 
L 29.689572 90.807201 
L 30.045764 90.412296 
L 29.249016 89.332332 
L 29.70867 87.489263 
L 39.415243 87.449589 
L 40.347521 87.945577 
L 41.956362 86.653495 
L 43.491814 87.162051 
L 42.987862 89.336523 
L 45.329172 91.111499 
L 45.090044 94.253724 
L 44.674078 94.284099 
L 45.238065 94.627416 
L 44.525434 94.696685 
L 44.871889 95.042749 
L 44.509089 95.423384 
L 45.401929 95.119872 
L 45.980145 95.581685 
L 45.496653 97.474507 
L 45.85584 98.291687 
L 45.180779 98.758212 
L 46.856262 101.171904 
L 46.185321 101.648382 
L 46.371027 104.205055 
L 45.807417 105.19389 
L 46.532273 106.109665 
L 46.302134 107.591345 
L 45.802423 107.885689 
L 45.906257 108.551111 
L 47.015509 110.582729 
L 48.164198 111.172077 
L 49.139214 112.307774 
L 48.025615 113.87572 
L 44.588903 114.052638 
L 39.55157 116.79592 
L 35.595994 117.770833 
L 33.842851 119.139177 
L 33.286641 119.2099 
L 32.030751 118.291901 
L 28.345221 117.421739 
L 30.050256 117.068555 
L 29.939427 116.126859 
L 30.226475 115.993562 
L 29.92071 114.802826 
L 29.184494 114.80204 
L 29.093015 114.287718 
L 28.779256 114.315741 
z
" clip-path="url(#pe6eb4c6e4d)" style="fill: #eeeeee; stroke: #000000; stroke-width: 0.3"/>
    <path d="M 162.664206 -9.730703 
L 163.72204 -11.331537 
L 164.143372 -12.783106 
L 163.438484 -15.638837 
L 164.595163 -16.981204 
L 164.896894 -17.198887 
L 165.09029 -16.565441 
L 166.109154 -16.421928 
L 168.837921 -16.996812 
L 175.377223 -15.802914 
L 175.98414 -15.003273 
L 177.017944 -14.785524 
L 177.947971 -15.089877 
L 178.305675 -14.373952 
L 180.708188 -14.294974 
L 183.624458 -12.995711 
L 185.919659 -13.652665 
L 188.655111 -15.562073 
L 189.116978 -14.970693 
L 189.713679 -15.077918 
L 189.185769 -15.282262 
L 189.830028 -15.648678 
L 189.980184 -16.395738 
L 190.080029 -16.203769 
L 190.244337 -16.118811 
L 190.068239 -16.450174 
L 190.907072 -16.222737 
L 193.023029 -16.845459 
L 190.940091 -15.911375 
L 191.866191 -15.839 
L 193.724676 -16.370993 
L 193.043075 -16.83309 
L 193.619726 -16.952684 
L 195.838667 -16.118811 
L 197.372472 -16.586269 
L 197.558792 -16.582762 
L 197.712879 -16.512034 
L 198.943223 -15.367423 
L 197.445582 -16.568329 
L 197.295426 -15.665999 
L 196.853604 -15.314634 
L 197.624043 -14.819756 
L 198.158632 -14.970693 
L 198.057218 -14.52118 
L 198.493538 -14.142592 
L 199.34849 -14.564067 
L 199.346132 -15.216485 
L 198.979386 -15.367423 
L 199.580015 -15.24762 
L 200.885043 -14.181156 
L 202.458155 -14.659742 
L 201.198724 -14.137236 
L 201.511614 -14.06857 
L 202.457368 -14.438695 
L 202.857524 -14.15744 
L 203.120103 -14.555817 
L 202.955794 -14.382815 
L 202.589445 -14.413955 
L 203.337871 -14.867594 
L 203.453434 -14.103004 
L 204.772614 -14.659742 
L 205.222299 -14.52118 
L 205.939281 -14.466328 
L 208.607034 -15.4647 
L 211.92276 -6.2204 
L 211.197528 -5.314355 
L 210.656253 -2.399106 
L 209.620879 -0.291125 
L 209.740373 1.454357 
L 208.673946 2.387205 
L 208.882673 2.705991 
L 206.49667 1.208981 
L 203.914127 -1.55492 
L 203.668845 -3.684139 
L 201.432998 -6.047601 
L 200.770263 -8.862437 
L 199.610281 -6.739405 
L 200.786773 -5.607574 
L 201.00061 -3.598776 
L 201.876785 -2.612729 
L 202.176314 -1.603174 
L 205.487239 1.855212 
L 205.669236 2.388442 
L 205.096516 2.226573 
L 205.669236 3.121278 
L 205.206973 3.121278 
L 206.859093 5.168843 
L 206.851229 5.786204 
L 207.62088 6.922363 
L 207.389751 7.254552 
L 207.356732 8.153994 
L 210.279682 12.859062 
L 213.168111 19.066004 
L 214.855158 21.048973 
L 216.037311 21.685373 
L 216.297967 22.095978 
L 214.95224 21.716787 
L 214.807064 22.017451 
L 214.83392 24.149736 
L 215.114582 24.671837 
L 215.828328 27.012353 
L 216.749246 28.00778 
L 218.392092 28.515814 
L 219.424485 29.929665 
L 221.624923 31.40083 
L 221.568187 31.757683 
L 195.252583 31.759522 
L 195.524653 30.858154 
L 195.193674 30.585803 
L 194.349006 31.764498 
L 164.077478 31.759522 
L 164.077478 -4.656114 
z
M 213.494303 27.751523 
L 215.469842 25.962521 
L 214.543027 26.778211 
z
M 211.395444 29.203371 
L 211.64018 28.660508 
L 211.803083 28.289096 
z
M 208.352034 30.76372 
L 210.934307 30.226274 
L 209.681706 30.47309 
z
" clip-path="url(#pe6eb4c6e4d)" style="fill: #eeeeee; stroke: #000000; stroke-width: 0.3"/>
    <path d="M 210.004135 1.35064 
L 210.223077 1.28878 
L 210.636599 1.734168 
L 210.142104 1.683239 
z
" clip-path="url(#pe6eb4c6e4d)" style="fill: #eeeeee; stroke: #000000; stroke-width: 0.3"/>
    <path d="M 207.222298 3.744 
L 207.77733 3.854108 
L 207.88739 4.093303 
L 207.319781 3.891228 
z
" clip-path="url(#pe6eb4c6e4d)" style="fill: #eeeeee; stroke: #000000; stroke-width: 0.3"/>
    <path d="M 202.494319 -14.621801 
L 203.315464 -15.089877 
L 203.985666 -14.983479 
L 203.304852 -15.021212 
z
" clip-path="url(#pe6eb4c6e4d)" style="fill: #eeeeee; stroke: #000000; stroke-width: 0.3"/>
    <path d="M 210.932785 1.539842 
L 211.174821 1.547758 
L 211.043503 1.794918 
z
" clip-path="url(#pe6eb4c6e4d)" style="fill: #eeeeee; stroke: #000000; stroke-width: 0.3"/>
    <path d="M 207.42277 7.462195 
L 207.521827 7.462195 
L 207.657044 7.876864 
z
" clip-path="url(#pe6eb4c6e4d)" style="fill: #eeeeee; stroke: #000000; stroke-width: 0.3"/>
    <path d="M 204.112632 -14.970693 
L 204.252176 -14.950484 
L 205.108307 -14.590458 
z
" clip-path="url(#pe6eb4c6e4d)" style="fill: #eeeeee; stroke: #000000; stroke-width: 0.3"/>
    <path d="M 202.663341 -14.310856 
L 202.746677 -14.296008 
L 202.75768 -14.244253 
z
" clip-path="url(#pe6eb4c6e4d)" style="fill: #eeeeee; stroke: #000000; stroke-width: 0.3"/>
    <path d="M -38.974249 37.984713 
L -38.546609 35.158643 
L -19.452459 35.113861 
L -20.114416 27.580539 
L -19.452459 26.577171 
L -17.540601 25.295953 
L -14.642043 24.332259 
L -14.622573 11.491544 
L 1.450589 11.465618 
L 1.476049 4.951769 
L 20.124277 16.558273 
L 11.56764 16.562991 
L 16.251757 59.466551 
L 17.5562 60.560395 
L 16.79465 64.704549 
L -1.744875 64.697216 
L -1.779821 63.672504 
L -2.239843 64.227544 
L -2.105554 64.9765 
L -5.214906 65.36054 
L -8.391895 65.014345 
L -9.308702 66.687452 
L -12.251311 63.948124 
L -12.688375 64.466505 
L -13.230268 64.466505 
L -13.803118 66.301451 
L -13.681059 67.715834 
L -14.888653 68.554876 
L -16.396152 67.989229 
L -16.890748 67.121378 
L -18.839552 65.937579 
L -18.548259 65.770375 
L -19.206472 64.628733 
L -19.7838 64.711882 
L -19.908742 64.186563 
L -20.527643 64.049602 
L -20.904798 62.493808 
L -21.721132 61.355967 
L -22.609982 61.605535 
L -22.902025 61.181035 
L -23.415714 61.530373 
L -24.102006 60.428674 
L -26.173115 58.792747 
L -28.915045 58.63772 
L -29.558777 58.769441 
L -29.643397 59.188438 
L -31.280317 59.194721 
L -32.28598 59.701975 
L -35.191899 59.490115 
L -36.085241 61.157466 
L -36.488996 63.110156 
L -36.425904 60.455334 
L -34.250791 54.312846 
L -34.039509 51.289546 
L -34.85751 47.026163 
L -36.455778 45.008907 
L -35.604367 44.831369 
L -35.24548 44.256484 
L -35.760223 44.587021 
L -35.630701 44.205966 
L -36.115763 44.848072 
L -34.998629 42.916802 
L -35.067415 42.363161 
L -35.382667 42.429966 
L -34.94399 41.853019 
L -35.1307 41.183487 
L -34.846309 40.688817 
L -36.125983 38.579184 
L -35.84336 38.450311 
L -36.425904 38.126371 
L -36.488996 39.02891 
L -37.118513 38.437525 
L -38.301492 35.996945 
z
" clip-path="url(#pe6eb4c6e4d)" style="fill: #eeeeee; stroke: #000000; stroke-width: 0.3"/>
    <path d="M -35.790291 43.898522 
L -35.601223 43.505709 
L -35.32626 43.276828 
z
" clip-path="url(#pe6eb4c6e4d)" style="fill: #eeeeee; stroke: #000000; stroke-width: 0.3"/>
    <path d="M -36.110459 43.469213 
L -35.540295 42.53822 
L -35.958337 43.891716 
z
" clip-path="url(#pe6eb4c6e4d)" style="fill: #eeeeee; stroke: #000000; stroke-width: 0.3"/>
    <path d="M -36.159988 38.860028 
L -36.025554 38.793425 
L -36.06309 38.976947 
z
" clip-path="url(#pe6eb4c6e4d)" style="fill: #eeeeee; stroke: #000000; stroke-width: 0.3"/>
    <path d="M -36.269459 43.363432 
L -36.147014 43.393128 
L -36.208333 43.50427 
z
" clip-path="url(#pe6eb4c6e4d)" style="fill: #eeeeee; stroke: #000000; stroke-width: 0.3"/>
   </g>
   <g id="PatchCollection_2">
    <defs>
     <path id="mab8b0bf60b" d="M 44.152274 -38.493998 
L 44.482252 -40.770465 
L 47.998962 -40.687453 
L 49.845053 -42.228318 
L 57.904848 -42.509573 
L 58.066089 -42.952139 
L 60.353484 -42.584857 
L 60.447339 -43.304355 
L 61.990905 -44.263863 
L 63.026772 -47.370468 
L 63.62283 -47.967017 
L 63.838493 -61.78217 
L 71.401069 -63.34071 
L 79.556463 -70.550747 
L 101.225307 -83.953313 
L 108.535284 -82.242103 
L 112.080444 -79.387153 
L 115.769214 -81.30963 
L 116.697165 -76.230525 
L 116.757571 -73.685639 
L 118.809335 -70.946437 
L 118.49533 -70.640569 
L 118.620634 -69.939274 
L 120.553088 -67.833285 
L 119.421372 -65.640093 
L 118.145881 -50.504312 
L 112.818283 -44.589895 
L 110.233856 -40.890404 
L 109.383444 -38.504209 
L 108.377033 -37.948383 
L 109.139332 -34.224016 
L 107.799445 -34.250991 
L 107.307718 -33.433157 
L 105.444156 -33.134621 
L 105.264937 -32.546059 
L 104.085798 -31.88614 
L 103.65897 -30.981103 
L 101.654131 -31.247693 
L 98.670832 -32.502721 
L 94.975657 -32.556797 
L 92.293887 -31.923326 
L 89.736417 -29.649474 
L 85.336354 -30.268675 
L 82.562724 -32.174459 
L 81.204863 -32.405698 
L 79.118153 -31.226217 
L 78.182131 -31.250835 
L 77.556618 -30.636083 
L 76.921121 -30.632678 
L 73.854202 -34.020016 
L 73.082421 -33.903351 
L 70.084647 -35.116876 
L 68.663883 -34.412697 
L 66.71845 -34.561704 
L 64.920285 -34.070297 
L 63.341777 -33.052785 
L 63.163055 -30.636869 
L 62.391772 -29.391008 
L 61.002959 -28.213361 
L 60.821248 -25.109892 
L 61.125767 -24.370626 
L 60.784804 -24.046687 
L 57.15203 -27.611572 
L 54.861143 -26.785625 
L 55.282977 -25.569222 
L 54.95849 -25.064066 
L 53.324068 -27.321155 
L 54.257095 -27.737795 
L 53.60063 -29.164224 
L 52.937175 -29.258496 
L 52.319149 -28.659854 
L 50.967283 -28.791839 
L 48.164198 -30.819919 
L 48.164198 -32.522885 
L 49.541529 -32.409625 
L 48.31746 -33.015731 
L 47.745861 -33.772152 
L 46.284166 -34.146893 
L 45.196627 -35.921484 
L 45.291477 -36.998569 
z
" style="stroke: #dd0000; stroke-width: 0.5"/>
    </defs>
    <g clip-path="url(#pe6eb4c6e4d)">
     <use xlink:href="#mab8b0bf60b" x="0" y="108" style="fill: #ff6b6b; stroke: #dd0000; stroke-width: 0.5"/>
    </g>
   </g>
  </g>
 </g>
 <defs>
  <clipPath id="pe6eb4c6e4d">
   <rect x="0" y="0" width="164.705362" height="108"/>
  </clipPath>
 </defs>
</svg>
