<?xml version="1.0" encoding="utf-8" standalone="no"?>
<!DOCTYPE svg PUBLIC "-//W3C//DTD SVG 1.1//EN"
  "http://www.w3.org/Graphics/SVG/1.1/DTD/svg11.dtd">
<svg xmlns:xlink="http://www.w3.org/1999/xlink" width="170.636431pt" height="108pt" viewBox="0 0 170.636431 108" xmlns="http://www.w3.org/2000/svg" version="1.1">
 <metadata>
  <rdf:RDF xmlns:dc="http://purl.org/dc/elements/1.1/" xmlns:cc="http://creativecommons.org/ns#" xmlns:rdf="http://www.w3.org/1999/02/22-rdf-syntax-ns#">
   <cc:Work>
    <dc:type rdf:resource="http://purl.org/dc/dcmitype/StillImage"/>
    <dc:date>2025-09-05T13:56:18.542978</dc:date>
    <dc:format>image/svg+xml</dc:format>
    <dc:creator>
     <cc:Agent>
      <dc:title>Matplotlib v3.10.3, https://matplotlib.org/</dc:title>
     </cc:Agent>
    </dc:creator>
   </cc:Work>
  </rdf:RDF>
 </metadata>
 <defs>
  <style type="text/css">*{stroke-linejoin: round; stroke-linecap: butt}</style>
 </defs>
 <g id="figure_1">
  <g id="patch_1">
   <path d="M 0 108 
L 170.636431 108 
L 170.636431 0 
L 0 0 
z
" style="fill: #ffffff"/>
  </g>
  <g id="axes_1">
   <g id="PatchCollection_1">
    <path d="M 102.275641 145.453112 
L 102.959266 143.769515 
L 104.833432 142.448299 
L 106.256457 143.779684 
L 107.768408 143.391814 
L 107.209679 142.883375 
L 108.038095 140.999971 
L 106.255735 140.070983 
L 106.886194 138.908834 
L 105.903569 137.6973 
L 105.167673 137.932633 
L 105.817501 136.288195 
L 105.413689 134.158559 
L 106.73127 134.758521 
L 107.996498 134.154202 
L 108.856477 134.757797 
L 111.611421 134.160014 
L 111.89258 132.512673 
L 111.386926 131.026578 
L 111.800773 131.313481 
L 112.81281 130.612565 
L 114.007744 131.272811 
L 115.42072 133.784498 
L 115.148882 134.45854 
L 118.548636 134.940835 
L 120.521424 132.523566 
L 121.65252 134.369926 
L 121.233648 135.120241 
L 122.928504 135.345404 
L 123.930499 134.335792 
L 123.33088 133.421323 
L 124.00438 131.664307 
L 125.060879 131.186376 
L 125.41807 129.636364 
L 124.835669 129.114846 
L 125.517767 128.669601 
L 125.688472 127.69049 
L 125.02287 124.977604 
L 125.704254 122.009048 
L 124.528681 120.909369 
L 123.41193 120.98418 
L 122.965805 119.729791 
L 121.132521 119.229342 
L 121.756526 118.157985 
L 121.410092 116.405326 
L 121.923643 115.323076 
L 122.830958 113.9946 
L 124.585344 113.420058 
L 125.552196 111.367784 
L 124.266891 109.843556 
L 124.053867 108.433003 
L 123.306494 108.005728 
L 120.87933 107.70484 
L 119.135347 108.765663 
L 116.406219 108.954514 
L 117.107686 108.38506 
L 116.263488 106.594268 
L 116.48942 104.434132 
L 117.408214 102.598299 
L 125.308332 102.801676 
L 126.20489 102.26273 
L 127.611412 103.270169 
L 128.251198 102.915351 
L 128.497214 103.685272 
L 130.719244 103.451753 
L 131.584962 104.282142 
L 132.594847 103.899901 
L 134.148403 104.208238 
L 136.279341 105.337335 
L 136.668095 106.15792 
L 137.287075 105.593912 
L 136.633666 103.878115 
L 136.778548 102.681831 
L 137.624897 102.162492 
L 139.508391 97.852747 
L 139.413711 95.602542 
L 140.336814 93.176742 
L 144.491826 92.614196 
L 146.307893 91.724788 
L 148.627469 92.3627 
L 148.967449 92.906362 
L 150.63218 92.742572 
L 151.322884 93.347432 
L 151.787662 92.662132 
L 153.339066 92.260466 
L 154.409917 93.351066 
L 154.317396 95.801562 
L 150.565475 102.605566 
L 150.558299 106.882442 
L 149.137433 110.641076 
L 149.684691 115.134225 
L 148.094556 119.161791 
L 148.32479 121.46429 
L 145.260713 124.918775 
L 143.279674 125.495489 
L 141.96568 126.70412 
L 139.750104 131.049819 
L 137.533812 133.120619 
L 137.748981 141.070425 
L 135.573572 145.316618 
L 132.947729 146.304443 
L 132.428445 147.399765 
L 130.658993 148.279369 
L 128.071888 151.624896 
L 126.972347 152.221224 
L 125.911538 151.809382 
L 125.084551 152.125344 
L 124.738124 149.825749 
L 125.563674 148.914189 
L 124.989872 147.844286 
L 121.918619 149.397208 
L 120.325618 149.080523 
L 120.3084 150.715515 
L 118.088882 152.118809 
L 116.143707 149.951405 
L 115.552694 150.199085 
L 114.461044 148.792166 
L 113.71009 148.64617 
L 112.75328 149.827196 
L 111.110063 150.151873 
L 110.658199 151.365592 
L 109.758053 151.262452 
L 108.490861 153.062619 
L 107.176479 151.412277 
L 107.080703 149.952734 
z
" clip-path="url(#p3324eb5ea2)" style="fill: #eeeeee; stroke: #000000; stroke-width: 0.3"/>
    <path d="M 110.154121 158.749212 
L 110.221395 158.102045 
L 111.956419 158.028682 
L 112.10704 154.067943 
L 111.508136 153.311824 
L 113.135572 152.392639 
L 113.996266 151.096119 
L 115.817357 150.562984 
L 115.974439 149.969565 
L 118.088882 152.118809 
L 120.3084 150.715515 
L 120.325618 149.080523 
L 121.918619 149.397208 
L 124.989872 147.844286 
L 125.563674 148.914189 
L 124.738124 149.825749 
L 125.084551 152.125344 
L 125.911538 151.809382 
L 126.972347 152.221224 
L 128.071888 151.624896 
L 130.658993 148.279369 
L 132.428445 147.399765 
L 132.947729 146.304443 
L 135.573572 145.316618 
L 137.748981 141.070425 
L 137.533812 133.120619 
L 139.750104 131.049819 
L 141.96568 126.70412 
L 143.279674 125.495489 
L 145.260713 124.918775 
L 148.32479 121.46429 
L 148.094556 119.161791 
L 149.684691 115.134225 
L 149.137433 110.641076 
L 150.558299 106.882442 
L 150.565475 102.605566 
L 154.317396 95.801562 
L 154.549782 89.351464 
L 153.823928 87.37055 
L 155.290695 86.859208 
L 157.580867 83.283971 
L 159.840914 81.730508 
L 162.72568 81.965299 
L 166.294703 84.249828 
L 167.969476 86.758064 
L 169.990676 86.488408 
L 172.346117 87.625496 
L 175.999055 87.61279 
L 179.926706 88.770027 
L 181.364783 88.330411 
L 181.933561 86.345505 
L 182.607054 86.2193 
L 184.05661 83.886653 
L 187.638547 85.522376 
L 188.842802 84.516574 
L 193.500609 83.139614 
L 194.468175 82.393664 
L 194.452394 81.787349 
L 196.77197 83.22659 
L 200.776361 82.41999 
L 201.165107 80.464313 
L 202.414915 80.009447 
L 204.962574 81.451414 
L 206.957236 80.971487 
L 209.068813 82.313217 
L 210.712745 81.983459 
L 211.598547 82.382946 
L 213.032321 81.217895 
L 214.616002 81.71925 
L 217.685825 84.137791 
L 217.881631 85.487329 
L 219.558195 85.809103 
L 219.806007 86.729011 
L 222.108366 87.739895 
L 224.703369 85.781315 
L 227.93636 87.280306 
L 229.576343 84.969269 
L 230.693101 85.165744 
L 231.929633 85.766971 
L 231.867952 87.082741 
L 232.857032 87.505469 
L 234.654458 89.983205 
L 236.985506 90.605494 
L 237.108875 92.39502 
L 238.524002 91.959579 
L 239.166654 93.257364 
L 239.561147 93.048182 
L 239.655819 93.937583 
L 238.502489 96.312538 
L 239.26277 97.732902 
L 238.271532 100.601952 
L 239.390442 101.396569 
L 240.058195 100.880864 
L 240.663553 101.690373 
L 241.512414 101.601394 
L 242.164033 103.006325 
L 236.659523 109.080894 
L 234.99802 109.802156 
L 234.414897 111.399739 
L 232.974661 111.990621 
L 232.927325 114.283681 
L 231.279805 117.276209 
L 230.249843 124.311553 
L 230.411221 127.543047 
L 228.019922 129.442425 
L 227.306262 130.7404 
L 227.33638 133.231025 
L 225.472977 134.59582 
L 225.40986 135.484132 
L 225.646549 136.428378 
L 226.599056 137.076276 
L 226.365233 137.559296 
L 228.028888 139.196467 
L 227.892965 145.19314 
L 228.756532 146.552123 
L 229.252151 149.426985 
L 228.647508 152.363586 
L 230.650782 157.874703 
L 229.704736 159.967288 
L 230.132214 162.147763 
L 231.307065 164.304997 
L 233.970917 166.207291 
L 235.383893 168.030404 
L 238.559867 175.372265 
L 225.631489 177.403118 
L 225.658742 179.389661 
L 221.906821 182.947279 
L 223.041504 183.694684 
L 224.308168 186.601501 
L 223.415913 189.607101 
L 224.316052 192.583655 
L 223.308325 193.931738 
L 221.961333 198.84108 
L 222.985202 201.224939 
L 224.673243 202.064583 
L 226.644241 204.781833 
L 229.868266 205.303344 
L 229.691821 203.824508 
L 231.947566 203.202037 
L 231.829221 212.349215 
L 230.685211 212.107347 
L 231.044553 211.123156 
L 230.386835 210.730928 
L 227.678512 212.217023 
L 226.358772 211.92939 
L 224.374152 208.372137 
L 223.22799 208.343084 
L 222.394549 205.78273 
L 219.174112 204.704113 
L 218.466184 203.963244 
L 216.94993 204.182595 
L 215.440838 201.570678 
L 214.146206 200.777508 
L 213.77109 199.094579 
L 212.685894 199.276887 
L 212.157998 201.48061 
L 210.559973 202.210578 
L 208.458438 201.499493 
L 205.450303 201.437754 
L 202.954282 200.213866 
L 202.080674 200.548712 
L 201.035285 199.604466 
L 200.795008 196.460138 
L 196.64645 197.38259 
L 195.108676 198.334827 
L 193.7416 197.896841 
L 194.423705 197.052833 
L 194.273084 195.795534 
L 192.563883 195.395316 
L 192.494312 194.523709 
L 191.711795 194.201942 
L 190.5477 195.291452 
L 187.92616 194.817154 
L 184.861362 195.811515 
L 181.2988 195.389511 
L 179.471254 196.845098 
L 178.970611 194.053769 
L 180.039311 193.413861 
L 179.996992 190.653763 
L 178.93188 187.582067 
L 176.981688 185.653629 
L 176.378482 183.89007 
L 177.432837 177.212089 
L 176.114534 173.989309 
L 176.856883 170.282063 
L 176.329709 168.971747 
L 167.554906 168.992809 
L 168.186087 166.389599 
L 166.159863 166.407759 
L 165.984855 166.993918 
L 160.624145 166.993918 
L 160.563901 170.349614 
L 159.470815 171.014941 
L 159.4701 174.021996 
L 153.647484 173.531716 
L 153.585803 173.990764 
L 150.898279 174.165812 
L 150.74407 174.775936 
L 149.14676 174.320522 
L 147.288374 174.700402 
L 145.31594 172.276597 
L 144.348374 169.989349 
L 142.746046 168.418274 
L 142.936835 167.083986 
L 141.513817 164.930378 
L 141.083466 163.220575 
L 141.226919 161.281969 
L 140.020506 159.266372 
L 121.912165 158.83928 
L 117.741018 159.183564 
L 114.643408 158.649122 
L 113.743394 159.005867 
L 113.438924 159.806703 
L 111.543605 160.317377 
L 111.597014 159.824336 
L 111.176247 159.994345 
z
" clip-path="url(#p3324eb5ea2)" style="fill: #eeeeee; stroke: #000000; stroke-width: 0.3"/>
    <path d="M 113.595215 159.53217 
L 114.171447 159.051435 
L 115.326429 159.026486 
z
" clip-path="url(#p3324eb5ea2)" style="fill: #eeeeee; stroke: #000000; stroke-width: 0.3"/>
    <path d="M 124.991308 75.3447 
L 127.663051 73.381946 
L 130.797428 66.851772 
L 132.246983 65.852323 
L 132.581932 64.913889 
L 135.664663 65.16048 
L 138.756715 63.865056 
L 138.905184 63.084234 
L 139.991102 62.477013 
L 140.445832 63.8153 
L 141.612792 64.788233 
L 147.563794 61.6686 
L 154.152423 61.226981 
L 157.864184 56.819177 
L 156.099034 55.594024 
L 157.154826 54.639609 
L 166.962464 53.564984 
L 167.702662 52.275365 
L 168.5777 52.413194 
L 169.67581 51.597507 
L 172.665291 47.678352 
L 173.480085 47.696877 
L 174.444064 46.098745 
L 175.870669 45.423242 
L 175.897207 43.033219 
L 180.925113 40.492297 
L 183.797686 41.048307 
L 186.782871 44.417622 
L 189.236573 48.470249 
L 189.149069 52.584974 
L 188.053117 53.336187 
L 187.785581 54.402639 
L 188.700072 54.712607 
L 188.268285 56.568588 
L 193.212274 56.70369 
L 193.440358 57.489958 
L 192.653538 58.479231 
L 192.762562 59.329417 
L 197.254681 60.296538 
L 199.052101 62.293616 
L 200.146617 62.518779 
L 200.580555 63.956572 
L 199.787996 64.515857 
L 199.963004 65.068965 
L 201.140006 66.232927 
L 205.762309 68.6146 
L 206.214172 69.783644 
L 208.204532 71.02787 
L 207.456443 72.346542 
L 209.113283 74.175108 
L 208.529446 75.109909 
L 210.968803 75.746366 
L 211.264306 76.359582 
L 213.380185 77.24426 
L 214.332692 78.587635 
L 214.356364 80.81859 
L 215.583569 82.149793 
L 213.032321 81.217895 
L 211.598547 82.382946 
L 210.712745 81.983459 
L 209.068813 82.313217 
L 206.957236 80.971487 
L 204.962574 81.451414 
L 202.414915 80.009447 
L 201.165107 80.464313 
L 200.776361 82.41999 
L 196.77197 83.22659 
L 194.452394 81.787349 
L 194.468175 82.393664 
L 193.500609 83.139614 
L 188.842802 84.516574 
L 187.638547 85.522376 
L 184.05661 83.886653 
L 182.607054 86.2193 
L 181.933561 86.345505 
L 181.364783 88.330411 
L 179.926706 88.770027 
L 175.999055 87.61279 
L 172.346117 87.625496 
L 169.990676 86.488408 
L 167.969476 86.758064 
L 166.294703 84.249828 
L 162.72568 81.965299 
L 159.840914 81.730508 
L 157.580867 83.283971 
L 155.290695 86.859208 
L 153.823928 87.37055 
L 154.549782 89.351464 
L 154.409917 93.351066 
L 153.339066 92.260466 
L 151.787662 92.662132 
L 151.322884 93.347432 
L 150.63218 92.742572 
L 148.967449 92.906362 
L 148.627469 92.3627 
L 146.307893 91.724788 
L 143.187153 92.92053 
L 140.620839 92.987533 
L 139.413711 95.602542 
L 139.508391 97.852747 
L 137.430528 101.994346 
L 136.567676 97.125681 
L 135.586487 96.014012 
L 134.69566 95.943559 
L 129.832728 90.476935 
L 129.423898 89.491288 
L 130.560732 89.231078 
L 129.876476 88.818694 
L 129.201547 86.770047 
L 127.28148 85.303201 
L 126.876231 81.490453 
L 125.911538 80.604679 
L 126.588619 79.165979 
L 126.588619 76.56804 
z
" clip-path="url(#p3324eb5ea2)" style="fill: #eeeeee; stroke: #000000; stroke-width: 0.3"/>
    <path d="M -34.665402 72.155513 
L -32.812748 70.310608 
L -32.360885 68.634939 
L -33.740508 64.669843 
L -33.250274 64.283793 
L -31.96066 64.766081 
L -30.851078 61.357726 
L -30.112317 61.456867 
L -30.394551 60.270029 
L -32.217439 59.834764 
L -32.137104 58.425482 
L -30.167183 58.071029 
L -28.029068 58.929016 
L -28.267554 57.172183 
L -30.156065 55.850967 
L -29.898578 54.559893 
L -28.614342 53.998429 
L -29.882797 53.243399 
L -29.437387 51.654889 
L -30.746717 51.801249 
L -31.465402 50.804893 
L -31.578007 47.916411 
L -30.299878 46.369483 
L -29.184918 46.020477 
L -28.042698 44.435782 
L -26.911956 44.284706 
L -25.953717 45.73557 
L -23.541259 46.51784 
L -23.162908 45.084221 
L -21.134172 44.970737 
L -21.135969 42.910648 
L -19.58707 43.626821 
L -19.455457 42.686209 
L -18.268413 42.402392 
L -17.910868 43.083152 
L -18.305354 43.895022 
L -17.745181 44.55472 
L -18.157599 45.737391 
L -16.602607 46.173556 
L -15.645797 44.865053 
L -13.674807 44.31775 
L -12.345747 45.395644 
L -10.493815 45.369493 
L -10.038717 46.733747 
L -9.297805 47.224568 
L -9.316813 48.203496 
L -8.153614 48.614607 
L -8.13963 49.23327 
L -7.339 49.74225 
L -6.151422 49.299549 
L -6.094217 49.932372 
L -5.188332 50.438815 
L -3.655221 48.784932 
L -0.912463 47.958542 
L 2.126151 48.201317 
L 2.233378 48.624411 
L 2.836945 48.100904 
L 5.642994 51.64654 
L 6.484145 51.101057 
L 6.678876 52.7513 
L 5.889905 54.14933 
L 6.968286 55.072506 
L 7.753315 60.092803 
L 7.029252 60.404942 
L 7.029973 61.282367 
L 5.780346 61.962038 
L 4.733167 64.535106 
L 4.516021 67.080569 
L 2.766291 69.649638 
L 2.505577 71.281911 
L 4.120814 77.697503 
L 4.571608 77.658639 
L 4.703041 78.37191 
L 5.815309 78.465063 
L 5.946929 81.515149 
L 3.361663 81.646639 
L 2.904206 81.110173 
L 3.31366 80.054691 
L 2.508596 80.251146 
L 2.160982 81.80392 
L -0.679203 80.970629 
L -1.415369 81.258305 
L -2.625939 80.773887 
L -0.730877 80.773887 
L -0.63939 80.662932 
L -0.939279 80.07328 
L -1.258648 80.004647 
L -0.83564 80.72127 
L -1.962343 80.198529 
L -2.5367 80.755586 
L -3.483246 80.486211 
L -4.285208 80.651491 
L -4.517886 80.451318 
L -5.761211 80.826785 
L -6.523922 80.53854 
L -7.381229 81.018664 
L -7.286064 80.442744 
L -8.223851 81.378409 
L -3.888176 80.677803 
L -2.583017 81.018664 
L -8.807252 81.742723 
L -9.619943 81.128473 
L -11.783547 81.02896 
L -12.3212 81.648923 
L -10.849431 81.492505 
L -11.13746 81.210263 
L -9.569116 81.742723 
L -15.460144 82.436175 
L -22.759686 85.022125 
L -26.601754 87.256622 
L -27.413675 87.036435 
L -27.427659 82.140347 
L -26.136615 80.418014 
L -26.53074 76.701687 
L -26.862829 76.981147 
L -28.890844 75.913058 
L -29.777361 73.709342 
L -33.229469 73.229408 
L -33.2743 72.448052 
z
" clip-path="url(#p3324eb5ea2)" style="fill: #eeeeee; stroke: #000000; stroke-width: 0.3"/>
    <path d="M 2.409475 81.816788 
L 2.702591 81.497938 
L 3.497211 82.00495 
z
" clip-path="url(#p3324eb5ea2)" style="fill: #eeeeee; stroke: #000000; stroke-width: 0.3"/>
    <path d="M -59.963781 13.950689 
L -58.619301 14.235595 
L -56.884284 13.071998 
L -57.059653 11.110509 
L -56.236608 8.565777 
L -55.458039 8.565777 
L -54.830086 7.846877 
L -50.602275 11.645822 
L -49.285048 9.32553 
L -44.720491 9.80564 
L -40.253112 9.273046 
L -40.446052 8.234382 
L -39.785114 7.464643 
L -39.734904 8.885731 
L -13.098138 8.8959 
L -12.003976 3.14872 
L -13.878142 1.631759 
L -20.608073 -57.867589 
L -8.314277 -57.874132 
L 33.10334 -30.512488 
L 33.159282 -27.961937 
L 35.970896 -26.969031 
L 37.486435 -24.908394 
L 39.52055 -24.268669 
L 40.419975 -24.694854 
L 41.804983 -23.167359 
L 47.345718 -21.508577 
L 47.776062 -18.471198 
L 46.688715 -16.694568 
L 47.943186 -15.712189 
L 54.49237 -16.74178 
L 54.182515 2.417297 
L 53.326124 3.2446 
L 52.012123 7.345522 
L 49.62011 8.883552 
L 49.485263 9.881364 
L 46.198835 9.372011 
L 45.967171 9.985769 
L 34.387215 10.375818 
L 31.904103 12.430453 
L 29.796829 12.792538 
L 26.682182 12.397591 
L 26.66282 12.994643 
L 23.504063 11.907853 
L 22.192214 12.350737 
L 21.899577 11.807433 
L 20.152006 11.817602 
L 17.661725 13.800154 
L 13.370436 15.910175 
L 11.287548 16.088856 
L 11.017861 18.123153 
L 10.213116 18.299474 
L 8.063162 17.422603 
L 7.121419 17.834438 
L 5.248328 19.392982 
L 5.054312 21.844934 
L 3.858843 22.160347 
L 2.335948 21.520798 
L 2.601867 24.366973 
L 1.214534 24.556723 
L 1.208073 25.238214 
L -2.415455 23.706544 
L -2.043205 23.25458 
L -2.482341 22.917921 
L -5.048828 25.593033 
L -4.082879 27.695246 
L -4.400437 28.385817 
L -5.979995 28.429762 
L -5.299868 29.699766 
L -5.746714 30.393064 
L -5.430947 31.291545 
L -6.000259 31.198574 
L -6.501972 32.401759 
L -7.895585 33.405924 
L -10.172128 33.598042 
L -12.413881 34.65741 
L -11.544936 35.1466 
L -11.06725 37.513023 
L -11.859809 39.625771 
L -13.051516 39.969331 
L -12.546216 41.571637 
L -12.894795 43.745759 
L -13.178827 44.517677 
L -15.645797 44.865053 
L -16.602607 46.173556 
L -18.157599 45.737391 
L -17.745181 44.55472 
L -18.305354 43.895022 
L -17.910868 43.083152 
L -18.268413 42.402392 
L -19.455457 42.686209 
L -19.58707 43.626821 
L -21.135969 42.910648 
L -21.134172 44.970737 
L -23.162908 45.084221 
L -23.541259 46.51784 
L -25.953717 45.73557 
L -26.911956 44.284706 
L -28.042698 44.435782 
L -29.184918 46.020477 
L -30.299878 46.369483 
L -30.345778 45.200981 
L -31.959945 44.532203 
L -32.422566 43.730867 
L -32.638102 40.312526 
L -33.881448 40.109149 
L -34.254774 40.679692 
L -35.203333 40.741973 
L -32.976285 37.896346 
L -34.92935 36.99133 
L -35.41349 35.915798 
L -36.251234 35.856237 
L -36.060806 33.363434 
L -36.770878 33.133548 
L -37.144204 30.861185 
L -38.333761 30.180973 
L -40.074517 30.126493 
L -39.456973 30.938181 
L -39.648837 31.555937 
L -41.670752 32.256488 
L -42.328831 33.273731 
L -46.103702 31.921649 
L -47.801786 32.622565 
L -49.187863 34.2227 
L -50.858687 31.910025 
L -51.554061 32.029146 
L -52.517685 33.351086 
L -53.51358 33.268285 
L -54.714968 32.105777 
L -53.887981 30.75042 
L -53.812671 30.077468 
L -54.437398 29.632581 
L -53.889418 26.631521 
L -54.890337 25.63879 
L -55.445846 23.888859 
L -56.334875 23.558553 
L -56.938075 24.265098 
L -58.808299 21.474134 
L -57.873364 20.59526 
L -58.114001 18.22902 
L -59.669534 16.647228 
L -59.275944 14.885855 
z
" clip-path="url(#p3324eb5ea2)" style="fill: #eeeeee; stroke: #000000; stroke-width: 0.3"/>
    <path d="M 43.683452 62.280903 
L 44.364121 54.134803 
L 46.49363 53.866961 
L 46.885964 51.322046 
L 48.267378 49.953435 
L 48.227932 48.901333 
L 49.526867 48.585919 
L 50.056914 47.867568 
L 50.598433 46.477894 
L 49.938563 45.500055 
L 50.49156 44.445227 
L 51.327152 44.643151 
L 51.777586 43.291975 
L 51.032364 41.831483 
L 50.977137 39.690595 
L 49.217012 37.532089 
L 50.594845 35.141153 
L 50.157326 34.115926 
L 50.418401 29.811986 
L 52.413784 28.178807 
L 53.52193 26.451026 
L 53.778709 23.100594 
L 56.422478 21.542591 
L 58.852515 20.984396 
L 61.425275 21.214647 
L 63.466566 20.23808 
L 67.773635 21.921016 
L 69.345838 22.023249 
L 73.288909 26.456838 
L 74.201963 26.452116 
L 75.100673 25.599568 
L 76.445507 25.633709 
L 79.4436 23.997986 
L 81.394514 24.318671 
L 85.379542 26.961644 
L 91.701358 27.820362 
L 95.375817 24.666947 
L 99.228865 23.788439 
L 104.537929 23.863432 
L 108.8242 25.603926 
L 111.704664 25.973636 
L 112.317912 24.718516 
L 114.012047 23.80333 
L 114.269541 22.987103 
L 116.947023 22.573089 
L 117.653514 21.438903 
L 119.578605 21.476312 
L 122.754211 25.876491 
L 123.614912 30.849202 
L 125.68417 31.078364 
L 126.952978 32.275737 
L 126.064311 35.491615 
L 126.615871 36.054168 
L 126.507569 36.862763 
L 123.452097 38.805186 
L 122.181137 38.538615 
L 120.602474 40.362641 
L 119.10307 43.140716 
L 118.382234 46.429775 
L 116.961367 47.189344 
L 116.720376 50.725176 
L 114.360633 51.878421 
L 114.659002 52.691381 
L 113.788266 56.229026 
L 112.296392 57.306919 
L 110.983828 57.279497 
L 111.226977 58.073932 
L 109.999766 58.848576 
L 109.757338 61.840015 
L 108.555949 63.53929 
L 108.570294 64.541642 
L 106.59643 66.741 
L 107.537459 68.033529 
L 105.382848 69.462242 
L 105.18632 71.085435 
L 104.050922 72.416089 
L 102.272143 72.568986 
L 101.73923 70.414654 
L 98.560389 67.671809 
L 97.986594 69.472046 
L 96.007706 69.440449 
L 95.53648 68.537245 
L 93.674507 70.083259 
L 93.077039 70.033692 
L 92.414303 71.885133 
L 89.971358 73.412446 
L 87.484658 76.351591 
L 86.604596 76.690794 
L 86.350697 77.703132 
L 86.938122 78.464698 
L 86.209396 81.524953 
L 84.341697 84.692697 
L 81.925644 82.706983 
L 83.11842 85.114491 
L 82.667743 85.819384 
L 77.600704 85.982668 
L 77.505823 84.677827 
L 77.208759 85.649811 
L 75.675426 85.44992 
L 76.038009 85.95436 
L 75.675426 86.126506 
L 74.223428 84.346685 
L 75.006187 86.026992 
L 74.030279 86.606349 
L 74.030279 85.158239 
L 73.466081 84.538276 
L 73.650756 85.402454 
L 73.035169 84.869994 
L 73.889651 86.876581 
L 73.513522 87.042155 
L 72.813783 86.86457 
L 72.235469 83.932615 
L 71.751467 83.810219 
L 72.828467 87.139097 
L 71.751467 87.181987 
L 71.893789 85.402454 
L 71.609146 86.702432 
L 71.324504 86.078464 
L 71.55775 87.309239 
L 71.037044 87.308101 
L 70.920698 86.286648 
L 70.605562 86.126506 
L 70.738286 87.320969 
L 68.662782 87.618082 
L 69.093132 86.606349 
L 68.610824 86.894024 
L 68.425587 86.174548 
L 68.330706 87.566034 
L 67.56828 87.76192 
L 67.401107 86.78536 
L 67.21417 87.599782 
L 66.706448 86.750474 
L 66.517818 87.3304 
L 66.021394 87.082474 
L 63.145066 83.71871 
L 62.524392 81.764452 
L 63.286818 81.646639 
L 62.38264 81.497938 
L 62.206432 80.229697 
L 63.856096 79.962325 
L 63.551127 79.298896 
L 64.106852 79.098154 
L 64.286446 78.850509 
L 62.785314 79.579135 
L 62.856475 79.866818 
L 61.219795 79.122744 
L 61.392047 78.562257 
L 63.382261 78.495915 
L 62.950787 78.034949 
L 62.108164 78.392115 
L 62.188361 77.554818 
L 61.790766 78.307184 
L 60.742004 78.232549 
L 60.558454 77.072403 
L 61.860796 76.250834 
L 60.155779 77.253129 
L 58.095529 74.643165 
L 55.720143 73.096969 
L 49.044662 72.735228 
L 48.63747 72.495025 
L 51.823292 71.326298 
L 49.542217 71.914805 
L 49.305584 71.38692 
L 48.758326 71.738653 
L 48.532422 72.456415 
L 48.634646 72.824165 
L 43.910793 73.030353 
L 44.524784 65.234567 
z
" clip-path="url(#p3324eb5ea2)" style="fill: #eeeeee; stroke: #000000; stroke-width: 0.3"/>
    <path d="M 74.68314 86.884304 
L 75.317937 85.930339 
L 75.627992 86.217726 
L 76.032922 86.217726 
L 75.79572 86.759913 
z
" clip-path="url(#p3324eb5ea2)" style="fill: #eeeeee; stroke: #000000; stroke-width: 0.3"/>
    <path d="M 76.063423 86.440781 
L 77.781423 86.268917 
L 76.721932 86.618928 
z
" clip-path="url(#p3324eb5ea2)" style="fill: #eeeeee; stroke: #000000; stroke-width: 0.3"/>
    <path d="M 30.4818 44.928064 
L 30.568589 42.637358 
L 31.402745 40.531153 
L 31.831658 40.661898 
L 31.957178 39.91703 
L 32.878838 40.285652 
L 32.518781 39.481772 
L 33.18582 39.313983 
L 33.027308 38.652107 
L 34.379325 38.450185 
L 35.137455 37.150579 
L 36.261382 37.748538 
L 38.910889 37.570587 
L 40.924921 35.897638 
L 41.669421 33.81849 
L 42.195881 33.599497 
L 41.533145 31.914017 
L 42.46198 31.46187 
L 44.885556 30.646556 
L 50.104965 35.590397 
L 49.217012 37.532089 
L 50.977137 39.690595 
L 51.032364 41.831483 
L 51.777586 43.291975 
L 51.327152 44.643151 
L 50.49156 44.445227 
L 49.938563 45.500055 
L 50.598433 46.477894 
L 50.056914 47.867568 
L 49.526867 48.585919 
L 48.227932 48.901333 
L 48.267378 49.953435 
L 46.885964 51.322046 
L 46.49363 53.866961 
L 44.364121 54.134803 
L 43.683452 62.280903 
L 44.524784 65.234567 
L 43.910793 73.030353 
L 36.386666 74.11585 
L 37.515846 73.670478 
L 36.014645 70.853188 
L 35.777956 68.64801 
L 36.428499 68.613876 
L 36.258509 54.187645 
L 34.35135 50.867538 
L 34.383627 47.532722 
z
" clip-path="url(#p3324eb5ea2)" style="fill: #eeeeee; stroke: #000000; stroke-width: 0.3"/>
    <path d="M 118.483367 16.3113 
L 119.929335 15.540472 
L 121.151168 12.231258 
L 124.864359 7.100745 
L 132.474352 -0.94639 
L 134.351384 -22.09201 
L 135.977384 -25.133564 
L 133.20092 -28.054184 
L 133.020888 -29.026751 
L 133.472037 -29.450934 
L 130.524153 -33.249704 
L 130.437364 -36.778993 
L 129.104126 -43.822777 
L 136.079947 -46.978645 
L 191.57193 -19.228772 
L 191.593444 7.300854 
L 185.418668 7.419609 
L 184.11471 8.56414 
L 184.470464 10.95199 
L 182.394752 13.371065 
L 182.517399 14.554825 
L 180.344856 15.576967 
L 180.799593 17.537184 
L 181.613672 18.414961 
L 179.312021 19.701678 
L 178.342303 20.940634 
L 179.679254 24.073345 
L 177.572701 25.733398 
L 176.499699 27.874651 
L 177.37761 28.957808 
L 178.556764 28.881543 
L 179.243886 28.228198 
L 180.915071 29.157917 
L 180.40941 30.197678 
L 181.18117 32.29462 
L 181.001138 33.238501 
L 182.071989 32.940706 
L 181.581395 36.031651 
L 183.178705 37.64667 
L 184.170658 37.696427 
L 184.223012 39.868187 
L 183.797686 41.048307 
L 180.925113 40.492297 
L 175.897207 43.033219 
L 175.870669 45.423242 
L 174.444064 46.098745 
L 173.480085 47.696877 
L 172.665291 47.678352 
L 169.67581 51.597507 
L 168.5777 52.413194 
L 167.702662 52.275365 
L 166.962464 53.564984 
L 157.154826 54.639609 
L 156.099034 55.594024 
L 157.864184 56.819177 
L 154.152423 61.226981 
L 147.563794 61.6686 
L 141.773455 64.770438 
L 140.445832 63.8153 
L 139.991102 62.477013 
L 138.905184 63.084234 
L 138.756715 63.865056 
L 135.664663 65.16048 
L 132.581932 64.913889 
L 133.149996 63.022137 
L 132.30221 62.692014 
L 130.518414 58.196138 
L 124.729511 53.352534 
L 121.940139 50.053672 
L 123.564702 47.661281 
L 127.665209 48.057866 
L 133.971244 47.569217 
L 130.157642 43.707992 
L 129.390906 39.197224 
L 130.184894 36.749637 
L 129.705056 35.696805 
L 130.013474 34.978095 
L 129.586712 32.857904 
L 128.535945 32.378518 
L 128.069015 29.107437 
L 126.153966 28.062778 
L 125.205768 25.854333 
L 122.754211 25.876491 
L 119.578605 21.476312 
z
" clip-path="url(#p3324eb5ea2)" style="fill: #eeeeee; stroke: #000000; stroke-width: 0.3"/>
    <path d="M 84.206156 85.970657 
L 84.844478 83.480813 
L 86.209396 81.524953 
L 86.938122 78.464698 
L 86.350697 77.703132 
L 86.530722 76.806457 
L 89.971358 73.412446 
L 92.414303 71.885133 
L 93.077039 70.033692 
L 93.674507 70.083259 
L 95.53648 68.537245 
L 96.007706 69.440449 
L 97.986594 69.472046 
L 98.560389 67.671809 
L 101.73923 70.414654 
L 102.158101 72.462754 
L 103.257642 72.597315 
L 105.18632 71.085435 
L 105.382848 69.462242 
L 107.537459 68.033529 
L 106.59643 66.741 
L 108.570294 64.541642 
L 108.555949 63.53929 
L 109.757338 61.840015 
L 109.999766 58.848576 
L 111.226977 58.073932 
L 110.983828 57.279497 
L 112.296392 57.306919 
L 113.938173 56.021292 
L 114.659002 52.691381 
L 114.360633 51.878421 
L 116.720376 50.725176 
L 116.961367 47.189344 
L 118.382234 46.429775 
L 119.10307 43.140716 
L 120.602474 40.362641 
L 122.181137 38.538615 
L 123.452097 38.805186 
L 126.580013 36.694434 
L 126.064311 35.491615 
L 126.941507 32.200926 
L 125.68417 31.078364 
L 123.614912 30.849202 
L 122.754211 25.876491 
L 125.205768 25.854333 
L 126.153966 28.062778 
L 127.988687 28.962896 
L 128.535945 32.378518 
L 129.586712 32.857904 
L 130.184894 36.749637 
L 129.390906 39.197224 
L 130.202827 43.841815 
L 133.971244 47.569217 
L 127.665209 48.057866 
L 123.564702 47.661281 
L 121.928661 49.949077 
L 124.729511 53.352534 
L 129.603923 57.039077 
L 132.30221 62.692014 
L 133.149996 63.022137 
L 132.246983 65.852323 
L 130.797428 66.851772 
L 127.663051 73.381946 
L 124.991308 75.3447 
L 126.588619 76.56804 
L 126.588619 79.165979 
L 125.911538 80.604679 
L 126.876231 81.490453 
L 127.28148 85.303201 
L 129.201547 86.770047 
L 129.876476 88.818694 
L 130.560732 89.231078 
L 129.423898 89.491288 
L 129.832728 90.476935 
L 136.824455 97.663173 
L 136.81011 100.142539 
L 137.624897 102.162492 
L 136.907656 102.369868 
L 136.625776 103.618628 
L 137.26484 105.704502 
L 136.668095 106.15792 
L 136.279341 105.337335 
L 134.148403 104.208238 
L 132.594847 103.899901 
L 131.584962 104.282142 
L 130.719244 103.451753 
L 128.497214 103.685272 
L 128.251198 102.915351 
L 127.611412 103.270169 
L 126.20489 102.26273 
L 125.308332 102.801676 
L 117.408214 102.598299 
L 117.339357 102.027756 
L 116.500898 101.74013 
L 113.628318 102.066619 
L 106.045584 101.463755 
L 103.924681 101.617741 
L 103.719547 102.565255 
L 94.482125 102.566344 
L 93.231963 101.868689 
L 94.237449 96.347621 
L 94.055029 94.793989 
L 92.060853 92.914078 
L 93.292603 92.289829 
L 91.950725 92.485714 
L 91.393308 90.94209 
L 91.937172 91.430225 
L 91.915145 90.554332 
L 92.771328 90.94209 
L 92.298055 90.314122 
L 92.909693 89.973542 
L 91.899898 89.953238 
L 92.841357 88.721029 
L 91.625423 89.583205 
L 90.925684 88.891748 
L 91.30012 89.748779 
L 90.644435 89.460528 
L 90.914393 90.26608 
L 89.988743 90.26608 
L 89.868448 89.450232 
L 89.067055 89.925788 
L 87.404962 88.96639 
L 87.158724 85.786213 
L 86.543137 85.17883 
L 86.687714 85.847411 
L 86.207105 85.44992 
L 86.136507 85.869429 
L 85.211426 84.486235 
L 85.680181 86.068456 
z
" clip-path="url(#p3324eb5ea2)" style="fill: #eeeeee; stroke: #000000; stroke-width: 0.3"/>
    <path d="M 85.492113 121.908256 
L 86.525066 123.409559 
L 87.112415 122.615728 
L 87.684517 123.932292 
L 88.304629 122.000341 
L 89.731776 120.120999 
L 90.001734 115.2854 
L 90.104519 116.513027 
L 90.549554 116.322581 
L 90.991764 117.094675 
L 91.104147 116.464704 
L 91.676819 116.996588 
L 92.54881 116.838167 
L 93.241207 117.620556 
L 92.869033 116.903364 
L 94.722575 116.464704 
L 93.102842 116.513027 
L 91.061225 115.740934 
L 89.726134 113.960825 
L 89.797295 113.385186 
L 91.345867 112.996564 
L 91.485926 113.417788 
L 90.920604 113.434943 
L 90.825161 113.577066 
L 91.583069 113.577066 
L 91.583069 114.201034 
L 91.823658 114.488421 
L 91.71353 110.657113 
L 92.775846 110.33827 
L 94.156496 111.286072 
L 94.748939 110.733323 
L 103.81853 110.76383 
L 103.924681 101.617741 
L 110.656048 101.52295 
L 113.628318 102.066619 
L 116.500898 101.74013 
L 117.339357 102.027756 
L 116.48942 104.434132 
L 116.263488 106.594268 
L 117.107686 108.38506 
L 116.406219 108.954514 
L 119.135347 108.765663 
L 120.87933 107.70484 
L 123.306494 108.005728 
L 124.053867 108.433003 
L 124.266891 109.843556 
L 125.552196 111.367784 
L 124.585344 113.420058 
L 122.830958 113.9946 
L 121.923643 115.323076 
L 121.410092 116.405326 
L 121.756526 118.157985 
L 121.132521 119.229342 
L 122.965805 119.729791 
L 123.41193 120.98418 
L 124.528681 120.909369 
L 125.704254 122.009048 
L 125.0243 124.876643 
L 125.688472 127.69049 
L 125.517767 128.669601 
L 124.835669 129.114846 
L 125.41807 129.636364 
L 125.111089 131.089772 
L 123.969951 131.716601 
L 123.33088 133.421323 
L 123.930499 134.335792 
L 122.928504 135.345404 
L 121.233648 135.120241 
L 121.65252 134.369926 
L 120.521424 132.523566 
L 118.548636 134.940835 
L 115.148882 134.45854 
L 115.42072 133.784498 
L 114.007744 131.272811 
L 112.81281 130.612565 
L 111.800773 131.313481 
L 111.386926 131.026578 
L 111.89258 132.512673 
L 111.611421 134.160014 
L 108.856477 134.757797 
L 107.996498 134.154202 
L 106.73127 134.758521 
L 105.413689 134.158559 
L 105.817501 136.288195 
L 105.167673 137.932633 
L 105.903569 137.6973 
L 106.886194 138.908834 
L 106.255735 140.070983 
L 108.038095 140.999971 
L 107.209679 142.883375 
L 107.768408 143.391814 
L 106.256457 143.779684 
L 104.833432 142.448299 
L 102.959266 143.769515 
L 102.275641 145.453112 
L 101.233034 143.728726 
L 99.03072 142.045045 
L 98.954334 141.073377 
L 93.867544 136.763786 
L 92.486685 134.954954 
L 93.121475 135.361589 
L 93.434924 135.051038 
L 94.387112 136.259507 
L 95.631278 135.867744 
L 95.498561 135.548036 
L 94.434546 135.779095 
L 93.673813 134.718174 
L 92.823286 135.147122 
L 92.629007 134.505422 
L 92.486685 134.903483 
L 91.747979 134.316684 
L 91.531111 133.194579 
L 89.487239 130.974376 
L 90.84775 131.296368 
L 91.374674 132.339551 
L 91.197897 131.324388 
L 90.203918 130.571164 
L 89.967847 131.056158 
L 89.377111 130.683264 
L 89.132005 128.888003 
L 87.720098 127.033259 
L 87.490807 126.436171 
L 87.7393 126.955475 
L 88.709559 128.102754 
L 89.441492 128.575731 
L 89.549926 129.557723 
L 91.488188 129.0836 
L 90.773203 128.119909 
L 89.59398 128.791919 
L 89.329671 128.201122 
L 89.9238 127.614899 
L 89.932836 126.80506 
L 89.845859 127.419878 
L 88.893672 127.698973 
L 87.813285 126.915438 
L 87.834181 126.173086 
L 86.684889 124.651768 
L 86.964445 124.873678 
L 87.158724 124.55683 
L 86.491741 124.268586 
z
" clip-path="url(#p3324eb5ea2)" style="fill: #eeeeee; stroke: #000000; stroke-width: 0.3"/>
    <path d="M 90.219629 112.093339 
L 90.27029 112.095848 
L 90.239456 112.114528 
z
" clip-path="url(#p3324eb5ea2)" style="fill: #eeeeee; stroke: #000000; stroke-width: 0.3"/>
    <path d="M 87.254174 122.43614 
L 87.892919 122.493333 
L 87.65063 123.141899 
z
" clip-path="url(#p3324eb5ea2)" style="fill: #eeeeee; stroke: #000000; stroke-width: 0.3"/>
    <path d="M 26.208083 15.554633 
L 26.682182 12.397591 
L 31.734834 12.512713 
L 34.387215 10.375818 
L 45.967171 9.985769 
L 46.198835 9.372011 
L 49.485263 9.881364 
L 49.62011 8.883552 
L 51.837837 7.552891 
L 53.326124 3.2446 
L 54.182515 2.417297 
L 54.49237 -16.74178 
L 65.357943 -18.903189 
L 77.075251 -28.902184 
L 108.208085 -47.48908 
L 118.710736 -45.115945 
L 123.804264 -41.156655 
L 129.104126 -43.822777 
L 130.437364 -36.778993 
L 130.524153 -33.249704 
L 133.472037 -29.450934 
L 133.020888 -29.026751 
L 133.20092 -28.054184 
L 135.977384 -25.133564 
L 134.351384 -22.09201 
L 132.518815 -1.101465 
L 124.864359 7.100745 
L 121.151168 12.231258 
L 119.929335 15.540472 
L 118.483367 16.3113 
L 119.578605 21.476312 
L 117.653514 21.438903 
L 116.947023 22.573089 
L 114.269541 22.987103 
L 114.012047 23.80333 
L 112.317912 24.718516 
L 111.704664 25.973636 
L 108.8242 25.603926 
L 104.537929 23.863432 
L 99.228865 23.788439 
L 95.375817 24.666947 
L 91.701358 27.820362 
L 85.379542 26.961644 
L 81.394514 24.318671 
L 79.4436 23.997986 
L 76.445507 25.633709 
L 75.100673 25.599568 
L 74.201963 26.452116 
L 73.288909 26.456838 
L 68.882496 21.759223 
L 67.773635 21.921016 
L 63.466566 20.23808 
L 61.425275 21.214647 
L 58.630164 21.008002 
L 56.04664 21.689493 
L 53.778709 23.100594 
L 53.52193 26.451026 
L 52.413784 28.178807 
L 50.418401 29.811986 
L 50.157326 34.115926 
L 50.594845 35.141153 
L 50.104965 35.590397 
L 44.885556 30.646556 
L 41.594111 31.791993 
L 42.200183 33.478921 
L 41.733975 34.179479 
L 39.38571 31.049311 
L 40.726241 30.471508 
L 39.783061 28.493314 
L 38.82984 28.362576 
L 37.941887 29.192782 
L 35.999585 29.009744 
L 31.972238 26.197169 
L 31.972238 23.835469 
L 33.951126 23.992539 
L 32.192437 23.151982 
L 31.371189 22.102966 
L 29.271091 21.583268 
L 27.708563 19.122237 
L 27.844839 17.628517 
z
" clip-path="url(#p3324eb5ea2)" style="fill: #eeeeee; stroke: #000000; stroke-width: 0.3"/>
    <path d="M -13.178827 44.517677 
L -12.546216 41.571637 
L -13.051516 39.969331 
L -11.859809 39.625771 
L -11.06725 37.513023 
L -11.544936 35.1466 
L -12.413881 34.65741 
L -10.172128 33.598042 
L -7.895585 33.405924 
L -6.501972 32.401759 
L -6.000259 31.198574 
L -5.430947 31.291545 
L -5.746714 30.393064 
L -5.299868 29.699766 
L -5.979995 28.429762 
L -4.400437 28.385817 
L -4.082879 27.695246 
L -4.882072 25.240034 
L -4.241925 25.19046 
L -2.457955 22.911203 
L -2.043205 23.25458 
L -2.415455 23.706544 
L 1.208073 25.238214 
L 1.214534 24.556723 
L 2.601867 24.366973 
L 2.335948 21.520798 
L 3.858843 22.160347 
L 5.054312 21.844934 
L 5.248328 19.392982 
L 7.121419 17.834438 
L 8.063162 17.422603 
L 10.213116 18.299474 
L 11.017861 18.123153 
L 11.287548 16.088856 
L 13.370436 15.910175 
L 17.661725 13.800154 
L 20.152006 11.817602 
L 21.899577 11.807433 
L 22.192214 12.350737 
L 23.504063 11.907853 
L 26.66282 12.994643 
L 26.248965 15.910175 
L 27.844839 17.628517 
L 27.708563 19.122237 
L 29.271091 21.583268 
L 31.371189 22.102966 
L 32.192437 23.151982 
L 33.951126 23.992539 
L 31.972238 23.835469 
L 31.972238 26.197169 
L 35.999585 29.009744 
L 37.941887 29.192782 
L 38.82984 28.362576 
L 39.783061 28.493314 
L 40.726241 30.471508 
L 39.38571 31.049311 
L 41.733975 34.179479 
L 41.02103 35.804667 
L 39.100963 37.479971 
L 36.261382 37.748538 
L 35.137455 37.150579 
L 34.379325 38.450185 
L 33.171475 38.473426 
L 33.18582 39.313983 
L 32.518781 39.481772 
L 32.901795 40.253872 
L 31.957178 39.91703 
L 31.831658 40.661898 
L 28.530886 40.949341 
L 28.523717 40.457614 
L 23.053095 39.335053 
L 20.741583 41.126933 
L 19.402127 40.439089 
L 5.456154 40.49411 
L 4.795743 43.050107 
L 5.940475 44.547819 
L 5.428714 45.09548 
L 6.027979 45.675103 
L 6.173936 48.753335 
L 5.747889 49.475686 
L 6.484145 51.101057 
L 5.967367 51.781635 
L 2.836945 48.100904 
L 2.233378 48.624411 
L 2.126151 48.201317 
L -0.912463 47.958542 
L -3.655221 48.784932 
L -5.188332 50.438815 
L -6.094217 49.932372 
L -6.151422 49.299549 
L -7.339 49.74225 
L -8.13963 49.23327 
L -8.153614 48.614607 
L -9.316813 48.203496 
L -9.297805 47.224568 
L -10.038717 46.733747 
L -10.379413 45.445035 
L -12.345747 45.395644 
z
" clip-path="url(#p3324eb5ea2)" style="fill: #eeeeee; stroke: #000000; stroke-width: 0.3"/>
    <path d="M 23.993943 39.531528 
L 28.523717 40.457614 
L 28.530886 40.949341 
L 31.402745 40.531153 
L 30.425858 44.822198 
L 34.472568 47.77187 
L 34.35135 50.867538 
L 36.221214 53.995892 
L 36.556885 58.095359 
L 36.428499 68.613876 
L 35.777956 68.64801 
L 36.014645 70.853188 
L 37.515846 73.670478 
L 36.386666 74.11585 
L 33.373097 74.912821 
L 31.972238 73.337818 
L 30.321852 72.520501 
L 28.750364 69.770207 
L 28.578944 68.780203 
L 29.296907 68.372001 
L 29.62756 66.317183 
L 28.58612 65.047171 
L 29.395889 63.67584 
L 29.129075 60.130205 
L 30.093054 59.469417 
L 27.685793 56.122071 
L 28.655691 55.475086 
L 28.139628 54.341807 
L 28.834287 51.716811 
L 28.003531 51.076362 
L 26.720739 51.497277 
L 27.241994 50.969406 
L 26.744223 50.489479 
L 27.768099 50.393416 
L 26.957788 49.917298 
L 27.555429 49.875173 
L 27.898997 45.517484 
L 24.535108 43.055919 
L 25.259164 40.040326 
z
" clip-path="url(#p3324eb5ea2)" style="fill: #eeeeee; stroke: #000000; stroke-width: 0.3"/>
    <path d="M 2.505577 71.281911 
L 2.650099 69.920201 
L 4.516021 67.080569 
L 4.733167 64.535106 
L 5.780346 61.962038 
L 7.029973 61.282367 
L 7.029252 60.404942 
L 7.753315 60.092803 
L 6.968286 55.072506 
L 5.889905 54.14933 
L 6.688203 52.617836 
L 5.747889 49.475686 
L 6.173936 48.753335 
L 6.027979 45.675103 
L 5.428714 45.09548 
L 5.940475 44.547819 
L 4.795743 43.050107 
L 5.456154 40.49411 
L 19.402127 40.439089 
L 20.741583 41.126933 
L 23.053095 39.335053 
L 25.259164 40.040326 
L 24.535108 43.055919 
L 27.898997 45.517484 
L 27.555429 49.875173 
L 26.957788 49.917298 
L 27.768099 50.393416 
L 26.744223 50.489479 
L 27.241994 50.969406 
L 26.720739 51.497277 
L 28.003531 51.076362 
L 28.834287 51.716811 
L 28.139628 54.341807 
L 28.655691 55.475086 
L 27.685793 56.122071 
L 30.093054 59.469417 
L 29.129075 60.130205 
L 29.395889 63.67584 
L 28.58612 65.047171 
L 29.62756 66.317183 
L 29.296907 68.372001 
L 28.578944 68.780203 
L 28.728129 69.703021 
L 30.321852 72.520501 
L 31.972238 73.337818 
L 33.373097 74.912821 
L 31.773128 77.087274 
L 26.835412 77.332627 
L 19.597995 81.137054 
L 13.9148 82.48908 
L 11.395962 84.386722 
L 10.596824 84.484802 
L 8.792416 83.211705 
L 3.497211 82.00495 
L 5.946929 81.515149 
L 5.787696 80.20919 
L 6.200113 80.024331 
L 5.760804 78.372999 
L 4.703041 78.37191 
L 4.571608 77.658639 
L 4.120814 77.697503 
z
" clip-path="url(#p3324eb5ea2)" style="fill: #eeeeee; stroke: #000000; stroke-width: 0.3"/>
    <path d="M 90.01077 109.480958 
L 90.834196 107.844686 
L 91.871098 106.625352 
L 92.179454 106.784918 
L 92.364698 106.760321 
L 92.771328 106.54099 
L 91.81914 106.229006 
L 93.224267 104.187246 
L 93.153669 101.328491 
L 93.320904 101.980185 
L 94.482125 102.566344 
L 103.719547 102.565255 
L 103.81853 110.76383 
L 94.748939 110.733323 
L 94.156496 111.286072 
L 92.586084 109.82125 
L 91.659879 110.456084 
L 91.246469 109.82125 
L 90.356406 109.974526 
z
" clip-path="url(#p3324eb5ea2)" style="fill: #eeeeee; stroke: #000000; stroke-width: 0.3"/>
    <path d="M 83.733445 93.741368 
L 84.687326 93.446257 
L 85.295016 91.598372 
L 87.068361 91.426515 
L 87.266027 92.292977 
L 85.42717 95.315584 
L 83.789359 94.78427 
z
" clip-path="url(#p3324eb5ea2)" style="fill: #eeeeee; stroke: #000000; stroke-width: 0.3"/>
    <path d="M 64.139045 127.856824 
L 64.239006 127.735573 
L 64.210206 128.156509 
z
" clip-path="url(#p3324eb5ea2)" style="fill: #eeeeee; stroke: #000000; stroke-width: 0.3"/>
    <path d="M 76.032922 106.784918 
L 76.398892 105.892432 
L 76.936538 106.017393 
L 76.510713 107.024839 
z
" clip-path="url(#p3324eb5ea2)" style="fill: #eeeeee; stroke: #000000; stroke-width: 0.3"/>
    <path d="M 70.053225 115.903072 
L 71.514265 114.924516 
L 72.035541 116.028328 
L 70.44009 117.616269 
z
" clip-path="url(#p3324eb5ea2)" style="fill: #eeeeee; stroke: #000000; stroke-width: 0.3"/>
   </g>
   <g id="PatchCollection_2">
    <path d="M 43.683452 62.280903 
L 44.364121 54.134803 
L 46.49363 53.866961 
L 46.885964 51.322046 
L 48.267378 49.953435 
L 48.227932 48.901333 
L 49.526867 48.585919 
L 50.056914 47.867568 
L 50.598433 46.477894 
L 49.938563 45.500055 
L 50.49156 44.445227 
L 51.327152 44.643151 
L 51.777586 43.291975 
L 51.032364 41.831483 
L 50.977137 39.690595 
L 49.217012 37.532089 
L 50.594845 35.141153 
L 50.157326 34.115926 
L 50.418401 29.811986 
L 52.413784 28.178807 
L 53.52193 26.451026 
L 53.778709 23.100594 
L 56.422478 21.542591 
L 58.852515 20.984396 
L 61.425275 21.214647 
L 63.466566 20.23808 
L 67.773635 21.921016 
L 69.345838 22.023249 
L 73.288909 26.456838 
L 74.201963 26.452116 
L 75.100673 25.599568 
L 76.445507 25.633709 
L 79.4436 23.997986 
L 81.394514 24.318671 
L 85.379542 26.961644 
L 91.701358 27.820362 
L 95.375817 24.666947 
L 99.228865 23.788439 
L 104.537929 23.863432 
L 108.8242 25.603926 
L 111.704664 25.973636 
L 112.317912 24.718516 
L 114.012047 23.80333 
L 114.269541 22.987103 
L 116.947023 22.573089 
L 117.653514 21.438903 
L 119.578605 21.476312 
L 122.754211 25.876491 
L 123.614912 30.849202 
L 125.68417 31.078364 
L 126.952978 32.275737 
L 126.064311 35.491615 
L 126.615871 36.054168 
L 126.507569 36.862763 
L 123.452097 38.805186 
L 122.181137 38.538615 
L 120.602474 40.362641 
L 119.10307 43.140716 
L 118.382234 46.429775 
L 116.961367 47.189344 
L 116.720376 50.725176 
L 114.360633 51.878421 
L 114.659002 52.691381 
L 113.788266 56.229026 
L 112.296392 57.306919 
L 110.983828 57.279497 
L 111.226977 58.073932 
L 109.999766 58.848576 
L 109.757338 61.840015 
L 108.555949 63.53929 
L 108.570294 64.541642 
L 106.59643 66.741 
L 107.537459 68.033529 
L 105.382848 69.462242 
L 105.18632 71.085435 
L 104.050922 72.416089 
L 102.272143 72.568986 
L 101.73923 70.414654 
L 98.560389 67.671809 
L 97.986594 69.472046 
L 96.007706 69.440449 
L 95.53648 68.537245 
L 93.674507 70.083259 
L 93.077039 70.033692 
L 92.414303 71.885133 
L 89.971358 73.412446 
L 87.484658 76.351591 
L 86.604596 76.690794 
L 86.350697 77.703132 
L 86.938122 78.464698 
L 86.209396 81.524953 
L 84.341697 84.692697 
L 81.925644 82.706983 
L 83.11842 85.114491 
L 82.667743 85.819384 
L 77.600704 85.982668 
L 77.505823 84.677827 
L 77.208759 85.649811 
L 75.675426 85.44992 
L 76.038009 85.95436 
L 75.675426 86.126506 
L 74.223428 84.346685 
L 75.006187 86.026992 
L 74.030279 86.606349 
L 74.030279 85.158239 
L 73.466081 84.538276 
L 73.650756 85.402454 
L 73.035169 84.869994 
L 73.889651 86.876581 
L 73.513522 87.042155 
L 72.813783 86.86457 
L 72.235469 83.932615 
L 71.751467 83.810219 
L 72.828467 87.139097 
L 71.751467 87.181987 
L 71.893789 85.402454 
L 71.609146 86.702432 
L 71.324504 86.078464 
L 71.55775 87.309239 
L 71.037044 87.308101 
L 70.920698 86.286648 
L 70.605562 86.126506 
L 70.738286 87.320969 
L 68.662782 87.618082 
L 69.093132 86.606349 
L 68.610824 86.894024 
L 68.425587 86.174548 
L 68.330706 87.566034 
L 67.56828 87.76192 
L 67.401107 86.78536 
L 67.21417 87.599782 
L 66.706448 86.750474 
L 66.517818 87.3304 
L 66.021394 87.082474 
L 63.145066 83.71871 
L 62.524392 81.764452 
L 63.286818 81.646639 
L 62.38264 81.497938 
L 62.206432 80.229697 
L 63.856096 79.962325 
L 63.551127 79.298896 
L 64.106852 79.098154 
L 64.286446 78.850509 
L 62.785314 79.579135 
L 62.856475 79.866818 
L 61.219795 79.122744 
L 61.392047 78.562257 
L 63.382261 78.495915 
L 62.950787 78.034949 
L 62.108164 78.392115 
L 62.188361 77.554818 
L 61.790766 78.307184 
L 60.742004 78.232549 
L 60.558454 77.072403 
L 61.860796 76.250834 
L 60.155779 77.253129 
L 58.095529 74.643165 
L 55.720143 73.096969 
L 49.044662 72.735228 
L 48.63747 72.495025 
L 51.823292 71.326298 
L 49.542217 71.914805 
L 49.305584 71.38692 
L 48.758326 71.738653 
L 48.532422 72.456415 
L 48.634646 72.824165 
L 43.910793 73.030353 
L 44.524784 65.234567 
z
" clip-path="url(#p3324eb5ea2)" style="fill: #ff6b6b; stroke: #dd0000; stroke-width: 0.5"/>
    <path d="M 74.68314 86.884304 
L 75.317937 85.930339 
L 75.627992 86.217726 
L 76.032922 86.217726 
L 75.79572 86.759913 
z
" clip-path="url(#p3324eb5ea2)" style="fill: #ff6b6b; stroke: #dd0000; stroke-width: 0.5"/>
    <path d="M 76.063423 86.440781 
L 77.781423 86.268917 
L 76.721932 86.618928 
z
" clip-path="url(#p3324eb5ea2)" style="fill: #ff6b6b; stroke: #dd0000; stroke-width: 0.5"/>
   </g>
  </g>
 </g>
 <defs>
  <clipPath id="p3324eb5ea2">
   <rect x="0" y="0" width="170.636431" height="108"/>
  </clipPath>
 </defs>
</svg>
