<?xml version="1.0" encoding="utf-8" standalone="no"?>
<!DOCTYPE svg PUBLIC "-//W3C//DTD SVG 1.1//EN"
  "http://www.w3.org/Graphics/SVG/1.1/DTD/svg11.dtd">
<svg xmlns:xlink="http://www.w3.org/1999/xlink" width="160.76047pt" height="108pt" viewBox="0 0 160.76047 108" xmlns="http://www.w3.org/2000/svg" version="1.1">
 <metadata>
  <rdf:RDF xmlns:dc="http://purl.org/dc/elements/1.1/" xmlns:cc="http://creativecommons.org/ns#" xmlns:rdf="http://www.w3.org/1999/02/22-rdf-syntax-ns#">
   <cc:Work>
    <dc:type rdf:resource="http://purl.org/dc/dcmitype/StillImage"/>
    <dc:date>2025-09-05T13:56:20.205894</dc:date>
    <dc:format>image/svg+xml</dc:format>
    <dc:creator>
     <cc:Agent>
      <dc:title>Matplotlib v3.10.3, https://matplotlib.org/</dc:title>
     </cc:Agent>
    </dc:creator>
   </cc:Work>
  </rdf:RDF>
 </metadata>
 <defs>
  <style type="text/css">*{stroke-linejoin: round; stroke-linecap: butt}</style>
 </defs>
 <g id="figure_1">
  <g id="patch_1">
   <path d="M 0 108 
L 160.76047 108 
L 160.76047 0 
L 0 0 
z
" style="fill: #ffffff"/>
  </g>
  <g id="axes_1">
   <g id="PatchCollection_1">
    <path d="M 150.511033 41.077562 
L 151.270033 40.750325 
L 150.627586 40.184549 
L 151.201493 39.08713 
L 153.839864 38.907017 
L 153.970717 36.653236 
L 154.49472 37.236525 
L 154.869519 36.718466 
L 155.204348 37.108607 
L 158.64412 36.988318 
L 159.512134 37.654505 
L 160.987042 37.67519 
L 161.707917 36.852438 
L 163.532457 36.217434 
L 164.372046 36.081074 
L 164.399281 37.01266 
L 165.475116 37.267394 
L 167.350282 36.158565 
L 166.745159 35.829523 
L 166.617268 35.093167 
L 167.241926 34.489347 
L 166.008593 31.528958 
L 164.896644 30.092522 
L 164.893086 28.381455 
L 162.575038 28.17684 
L 161.517558 26.497924 
L 162.052812 23.112393 
L 160.090607 22.803402 
L 158.306626 21.849702 
L 158.480114 19.445557 
L 163.10615 13.990335 
L 164.211586 13.962655 
L 165.216962 15.65494 
L 165.911197 15.899329 
L 171.88543 14.309192 
L 172.079638 13.226133 
L 173.463956 11.882459 
L 174.636305 9.336707 
L 177.93486 7.60942 
L 179.667922 4.598752 
L 180.455406 2.192698 
L 183.743901 0.585693 
L 183.213385 -0.549708 
L 185.891429 -3.756401 
L 187.837055 -4.928718 
L 186.963712 -5.492918 
L 187.598436 -7.238666 
L 186.866608 -8.792207 
L 187.215943 -9.505336 
L 188.809862 -10.727299 
L 191.479616 -11.487523 
L 191.848492 -12.18203 
L 189.927145 -13.441858 
L 188.011722 -13.473202 
L 187.669491 -14.192057 
L 187.988629 -15.689278 
L 187.349757 -15.204793 
L 186.045965 -15.293097 
L 185.845839 -16.693417 
L 184.076066 -17.822777 
L 184.966578 -19.772026 
L 183.868836 -21.25174 
L 185.622619 -22.653335 
L 183.453774 -23.220878 
L 184.008568 -24.232019 
L 182.772869 -25.170761 
L 183.600616 -26.843162 
L 186.061358 -27.649207 
L 194.350689 -26.014203 
L 195.654481 -27.056367 
L 199.259152 -27.486282 
L 199.860717 -28.521764 
L 201.324379 -28.960589 
L 201.492338 -29.703362 
L 205.83436 -32.095044 
L 206.30863 -31.698856 
L 207.231705 -32.07181 
L 206.984802 -30.70029 
L 208.67405 -26.733059 
L 210.785458 -26.128124 
L 212.427333 -25.036636 
L 212.570624 -24.223743 
L 211.160847 -23.37458 
L 211.566428 -19.772026 
L 213.136956 -18.549724 
L 215.319929 -18.2705 
L 214.618086 -16.693417 
L 216.224041 -15.281674 
L 215.247751 -13.863742 
L 214.542923 -14.217785 
L 213.353966 -13.479569 
L 213.13844 -12.85395 
L 212.382929 -12.703593 
L 211.397684 -13.413538 
L 211.199334 -14.44918 
L 209.182659 -13.942416 
L 209.601863 -11.984897 
L 211.243738 -10.350207 
L 210.821572 -9.157525 
L 211.669456 -8.152906 
L 210.985584 -7.553384 
L 211.2467 -6.310103 
L 212.254482 -6.073448 
L 213.10924 -7.253894 
L 213.459772 -7.112583 
L 215.007683 -4.558308 
L 216.017206 -4.033248 
L 217.578557 -4.132532 
L 219.722534 -2.775329 
L 219.466155 -1.700066 
L 221.852297 -1.086228 
L 224.18367 0.435176 
L 223.408027 0.512507 
L 220.54969 3.235822 
L 220.642647 4.178542 
L 219.660364 5.335902 
L 219.914966 6.656355 
L 219.19557 7.224372 
L 218.644332 8.906638 
L 220.324695 10.197009 
L 221.234152 10.597489 
L 221.620197 9.880068 
L 223.622069 11.346259 
L 225.136942 11.835998 
L 225.861666 13.270845 
L 226.43363 13.071797 
L 229.066674 14.978882 
L 230.049553 14.600362 
L 232.196193 16.048893 
L 233.787448 15.942767 
L 234.202505 17.170931 
L 236.383192 17.483426 
L 237.240545 18.180957 
L 237.839744 17.321769 
L 240.518378 18.094087 
L 240.400851 17.546114 
L 242.022595 17.058124 
L 243.009323 17.902835 
L 244.826164 18.306972 
L 245.019187 20.04413 
L 246.034628 20.153599 
L 248.725998 21.838562 
L 250.57126 21.136253 
L 251.826792 22.890598 
L 252.874212 22.346756 
L 254.438525 22.608018 
L 256.897199 23.823927 
L 258.774732 22.804042 
L 259.146861 23.884391 
L 260.259407 24.246205 
L 260.923738 23.747557 
L 261.900693 24.048912 
L 263.520959 23.515576 
L 264.12638 24.119556 
L 265.235368 21.795285 
L 264.090259 19.536571 
L 264.400518 17.171251 
L 265.181488 15.451914 
L 264.839257 14.502353 
L 267.764209 13.409269 
L 268.86669 13.993199 
L 269.165398 14.928129 
L 268.515573 16.944837 
L 269.37885 18.275789 
L 268.449261 19.289312 
L 269.008198 19.616125 
L 269.146155 20.554867 
L 269.460853 20.3353 
L 270.54853 21.318595 
L 271.952978 21.115889 
L 274.657077 22.089959 
L 276.453197 21.749778 
L 277.722943 20.855268 
L 279.832574 21.653363 
L 283.152452 21.606902 
L 283.860597 21.009924 
L 284.436113 21.465295 
L 286.180421 21.090432 
L 286.487127 21.431882 
L 286.570024 20.949459 
L 287.599083 20.909999 
L 287.112971 19.465927 
L 287.690854 18.418671 
L 287.03955 17.309675 
L 285.618815 17.386593 
L 284.916301 16.941974 
L 285.095643 15.400157 
L 284.686516 14.976204 
L 286.908697 15.755499 
L 288.554721 14.890578 
L 288.923006 15.377773 
L 290.476234 14.998163 
L 291.400958 14.147737 
L 290.842577 13.706967 
L 291.069939 13.241571 
L 294.101735 11.963959 
L 293.978341 11.400781 
L 294.728158 10.344898 
L 295.467427 9.923506 
L 298.226294 9.856643 
L 298.594277 8.859697 
L 300.629697 7.753121 
L 300.287076 6.992071 
L 302.07698 5.953251 
L 303.08887 6.876561 
L 306.473684 7.678321 
L 307.162127 7.478201 
L 307.602408 6.390641 
L 308.477406 6.558887 
L 308.635614 5.806711 
L 310.524736 5.629031 
L 311.445692 6.417686 
L 312.195875 6.319043 
L 311.098133 7.232802 
L 311.216709 8.265724 
L 312.197748 7.678068 
L 312.719287 7.936386 
L 313.492564 9.393987 
L 311.826999 11.470267 
L 316.488566 11.803699 
L 317.67986 12.721757 
L 317.504597 13.47546 
L 317.901894 14.092489 
L 317.737292 14.712695 
L 317.103748 14.678487 
L 315.036751 16.528452 
L 315.146877 17.48406 
L 316.509287 19.681362 
L 315.0551 19.162028 
L 314.137949 17.997347 
L 310.914586 18.63315 
L 306.721371 22.056226 
L 305.072386 22.610561 
L 304.608188 24.60579 
L 305.235212 26.069278 
L 304.372531 26.856875 
L 304.419307 27.995459 
L 302.123166 30.10461 
L 301.809946 31.277568 
L 302.58796 31.681705 
L 302.699272 32.375258 
L 300.332076 36.644479 
L 299.395384 39.573364 
L 296.984964 38.658964 
L 295.527231 38.939155 
L 294.685271 38.298585 
L 295.376247 40.661035 
L 295.058885 44.051659 
L 294.473893 44.814106 
L 293.713644 44.654044 
L 293.916732 45.578949 
L 293.316937 46.741716 
L 293.906077 49.410934 
L 293.723114 49.855172 
L 293.051679 49.765112 
L 292.790569 51.037034 
L 292.20913 51.273153 
L 291.099546 50.058192 
L 290.481401 51.146503 
L 290.023115 46.724855 
L 289.24392 45.302416 
L 288.667814 40.500018 
L 288.295386 40.859289 
L 288.046112 40.345048 
L 287.291191 40.909088 
L 286.739358 40.398505 
L 286.842976 41.801215 
L 285.713851 43.173535 
L 286.011081 44.299391 
L 284.810907 45.192472 
L 283.712575 43.233039 
L 283.578164 44.463912 
L 283.249556 44.228267 
L 283.099162 42.661043 
L 282.234109 40.974005 
L 283.533169 38.077738 
L 284.786634 38.100812 
L 285.05722 37.366678 
L 285.484713 37.812345 
L 285.652277 37.249894 
L 286.478247 37.719422 
L 286.608505 36.610912 
L 287.798619 36.192612 
L 288.459988 33.203583 
L 289.363522 33.54026 
L 289.953841 32.976694 
L 287.377043 31.415992 
L 285.112285 31.770804 
L 282.803707 31.291251 
L 277.813533 31.611056 
L 274.687864 30.779874 
L 274.74293 26.503651 
L 273.736666 25.005475 
L 273.219768 25.498717 
L 273.498053 25.932129 
L 273.098981 26.624888 
L 271.916566 26.385591 
L 270.678495 25.473895 
L 270.246269 24.030137 
L 269.657726 23.670866 
L 269.372634 24.001176 
L 270.107126 24.932923 
L 268.067358 24.748358 
L 268.347122 24.355354 
L 268.026506 23.820429 
L 266.400911 22.610561 
L 266.072 23.513033 
L 266.908632 23.581767 
L 267.117638 24.204837 
L 265.205171 25.51176 
L 264.768505 27.41757 
L 265.755824 27.675968 
L 267.304743 29.454489 
L 268.691426 29.443669 
L 269.090499 30.485199 
L 269.909366 30.779874 
L 269.561211 31.500952 
L 266.794948 31.366346 
L 266.115814 33.30637 
L 264.925115 33.049407 
L 264.391638 34.71703 
L 264.896695 35.607568 
L 266.990337 36.74997 
L 268.49189 36.924676 
L 268.151435 37.742495 
L 268.358075 39.153475 
L 267.575919 39.584504 
L 267.360989 40.848149 
L 268.678995 41.840354 
L 268.257419 43.296527 
L 269.766373 43.602335 
L 269.072144 44.999471 
L 269.677857 45.786427 
L 269.583124 47.633048 
L 270.443434 50.079516 
L 270.344462 51.387345 
L 269.451658 51.196665 
L 270.469408 53.364815 
L 269.374731 53.142059 
L 269.185913 52.444233 
L 269.185913 53.246546 
L 268.912245 52.906778 
L 268.795692 53.666996 
L 268.32015 53.605103 
L 268.638108 50.204423 
L 267.880975 51.344252 
L 268.180285 49.869421 
L 268.048814 49.745887 
L 267.515462 51.927067 
L 267.501472 52.444233 
L 267.892164 52.54747 
L 267.545298 53.730638 
L 267.062297 53.73916 
L 267.319649 52.268837 
L 267.106123 51.305162 
L 266.880939 53.323717 
L 266.518691 53.470054 
L 266.164366 52.738396 
L 266.041288 53.408912 
L 265.975085 52.461019 
L 265.765288 52.248294 
L 266.018905 53.645948 
L 265.724258 53.750682 
L 265.107454 51.259556 
L 265.401173 49.975158 
L 264.318618 49.527897 
L 263.925595 48.465 
L 263.73165 48.392835 
L 264.068261 49.500839 
L 265.026333 49.905248 
L 265.208156 50.455494 
L 263.315785 52.675259 
L 259.689087 53.767222 
L 258.066191 55.150343 
L 257.644266 56.660003 
L 258.341257 58.361094 
L 257.843338 58.51745 
L 258.785565 59.026099 
L 257.114174 60.311999 
L 256.936551 61.055178 
L 257.448453 60.768029 
L 256.783166 61.514219 
L 257.132357 61.387933 
L 255.645597 62.190745 
L 255.251176 63.329318 
L 253.682824 62.442813 
L 254.942539 63.539789 
L 249.832809 65.378946 
L 249.526509 65.146417 
L 250.382946 64.889337 
L 250.347513 64.090035 
L 249.601569 63.96325 
L 248.615986 64.678866 
L 247.790783 66.536559 
L 248.498499 65.439583 
L 249.322768 65.229358 
L 248.974041 65.932696 
L 250.382946 65.229358 
L 248.113874 66.557108 
L 245.883025 68.739531 
L 245.583715 68.572911 
L 245.596771 69.308817 
L 241.999445 73.803221 
L 238.211439 76.11469 
L 237.577849 77.380047 
L 237.037038 77.387314 
L 237.335885 77.707285 
L 236.991351 78.146528 
L 232.114728 81.01626 
L 231.341274 82.234011 
L 231.693737 82.742408 
L 231.892345 82.065882 
L 231.993511 82.360544 
L 231.654574 84.38562 
L 228.535585 85.969446 
L 226.521534 85.60036 
L 225.652035 85.907054 
L 224.236605 89.324021 
L 223.649172 88.862979 
L 223.571781 87.764501 
L 223.059878 89.702375 
L 222.882249 88.668543 
L 222.275236 88.524214 
L 220.037862 89.799092 
L 218.739449 93.543548 
L 219.248556 96.754053 
L 219.564188 96.792386 
L 219.438307 98.149952 
L 218.703082 98.999373 
L 219.212659 98.860309 
L 220.233205 103.714519 
L 219.248556 101.940765 
L 219.212659 102.617291 
L 218.974424 102.151236 
L 218.739449 102.617291 
L 219.11988 103.346437 
L 220.309198 103.779418 
L 220.342299 105.209394 
L 219.465348 109.307647 
L 218.114252 111.246027 
L 218.465317 111.098693 
L 217.209326 114.008766 
L 217.014917 115.192439 
L 217.400945 116.396162 
L 217.002795 116.444267 
L 216.581334 116.919842 
L 217.479265 116.63946 
L 217.614936 123.097294 
L 215.895995 123.06422 
L 216.069431 122.786843 
L 214.346291 123.346357 
L 214.305731 124.682622 
L 212.210089 128.140681 
L 213.135066 129.214608 
L 214.660989 129.116137 
L 215.305767 130.082066 
L 212.643672 129.347655 
L 209.339131 130.446386 
L 208.025336 131.817986 
L 207.908312 132.579208 
L 208.210888 132.505541 
L 207.634645 133.167787 
L 207.298503 134.979375 
L 204.176255 136.751128 
L 203.017236 136.412862 
L 201.225568 134.952317 
L 198.636671 131.599996 
L 199.349983 131.015672 
L 198.545759 131.387764 
L 197.599803 129.058757 
L 197.306554 128.025424 
L 196.874374 125.194529 
L 196.961086 125.130382 
L 197.777902 126.880336 
L 197.5681 127.854788 
L 198.403563 127.766835 
L 197.852028 127.556862 
L 197.777902 125.871055 
L 196.565273 124.252653 
L 196.896751 123.431798 
L 196.397899 123.54756 
L 194.005278 116.45755 
L 191.650886 113.208712 
L 192.045307 112.742405 
L 190.901213 112.450249 
L 188.804167 107.509342 
L 189.453145 107.177092 
L 188.746357 107.280822 
L 188.012536 104.079843 
L 187.881992 102.5331 
L 188.276877 102.403557 
L 188.002745 102.04625 
L 187.846559 102.364971 
L 186.900609 100.083319 
L 186.520642 98.79115 
L 186.978464 98.730261 
L 186.442317 98.417556 
L 186.078671 97.006619 
L 186.513183 97.338869 
L 186.117834 96.754053 
L 185.784488 97.023911 
L 186.005009 96.498223 
L 185.643226 96.514258 
L 185.511748 95.844493 
L 184.615215 95.386209 
L 185.410112 94.874056 
L 184.703331 95.06098 
L 183.564833 93.627739 
L 183.84596 93.177473 
L 183.439887 92.000315 
L 182.818884 91.601917 
L 183.878128 91.812142 
L 182.896275 91.349597 
L 183.294889 90.80336 
L 182.723779 91.051671 
L 182.555006 90.593135 
L 183.135444 90.042643 
L 182.448707 90.251864 
L 180.89481 87.531473 
L 181.129315 86.789796 
L 180.89481 87.25635 
L 180.069607 84.673521 
L 180.50319 84.764221 
L 180.136274 84.264593 
L 180.460762 84.198445 
L 179.405247 79.913767 
L 179.760506 80.043816 
L 179.055586 78.370787 
L 179.483572 78.18637 
L 179.029016 77.940565 
L 178.582846 75.227686 
L 177.915221 74.261006 
L 177.989817 73.878637 
L 178.663033 74.497039 
L 178.743689 73.958819 
L 177.711949 72.995895 
L 177.902171 72.341667 
L 178.419671 72.746081 
L 177.484439 71.208359 
L 177.915221 70.549623 
L 178.305913 71.138455 
L 178.228985 70.273497 
L 177.742725 70.131926 
L 178.659303 69.38775 
L 178.26675 69.490728 
L 178.189359 68.477943 
L 177.310075 70.077558 
L 177.018224 69.801179 
L 177.104472 67.549097 
L 178.618279 68.141432 
L 176.978592 67.140926 
L 176.926843 66.515511 
L 177.641553 66.20381 
L 176.744086 66.179751 
L 176.80283 64.680615 
L 176.488602 64.88483 
L 176.324029 64.235614 
L 178.028979 58.647492 
L 177.763234 57.978485 
L 177.399589 58.177182 
L 177.6947 57.273392 
L 177.027545 57.019317 
L 177.473715 56.870733 
L 177.242939 56.365588 
L 176.128216 56.514424 
L 176.813085 55.941382 
L 175.839624 54.79053 
L 176.884885 54.3776 
L 175.948719 54.595842 
L 177.32033 53.200941 
L 177.701695 53.221989 
L 179.090085 52.499857 
L 175.757576 53.060879 
L 175.852681 51.936088 
L 176.813085 51.045076 
L 175.714214 51.557482 
L 175.479244 51.156072 
L 175.901634 49.810539 
L 176.89141 49.998207 
L 177.861141 49.336965 
L 175.275503 49.576255 
L 174.849848 49.447469 
L 174.880618 48.749889 
L 174.485733 49.402867 
L 173.982223 49.149291 
L 173.457264 49.29713 
L 174.360787 49.594797 
L 174.367317 50.521894 
L 173.596659 51.158332 
L 173.16075 50.965147 
L 172.769124 51.385344 
L 173.501554 51.465021 
L 173.57568 51.985198 
L 172.936963 51.6319 
L 173.203642 52.019774 
L 172.628796 51.884473 
L 172.582638 52.243029 
L 173.556099 52.27736 
L 174.316966 53.309689 
L 173.20504 55.903547 
L 167.681777 58.609159 
L 165.387991 58.899812 
L 161.459135 56.223198 
L 155.100931 49.191386 
L 155.83988 48.04104 
L 155.829625 48.548433 
L 156.576503 48.453724 
L 156.633379 49.321681 
L 158.166304 48.900979 
L 158.374233 48.248758 
L 158.947681 48.816795 
L 159.619963 48.052315 
L 159.97242 48.430669 
L 160.992502 47.674213 
L 162.169698 47.547927 
L 163.297013 45.449941 
L 164.038763 44.976367 
L 164.028503 44.207632 
L 163.43175 44.425376 
L 163.395383 45.214659 
L 161.895566 44.887668 
L 161.92307 45.281559 
L 160.191543 45.722052 
L 159.519261 46.409102 
L 158.773781 46.321155 
L 154.651965 44.727557 
L 152.853302 43.251223 
L 153.166597 42.845559 
L 152.762391 42.255976 
L 152.116679 42.105385 
L 152.472865 41.684683 
L 152.04768 41.804208 
L 152.031829 41.024444 
L 154.396475 39.441369 
L 152.13999 40.4519 
L 151.56468 41.236424 
z
" clip-path="url(#p2f208fc4e6)" style="fill: #eeeeee; stroke: #000000; stroke-width: 0.3"/>
    <path d="M 290.189424 113.465041 
L 290.450969 113.002496 
L 290.720908 113.410168 
L 291.088288 111.235004 
L 291.723276 111.308672 
L 291.294356 110.355267 
L 291.669195 108.492562 
L 291.40718 107.616834 
L 291.964306 106.41712 
L 292.03704 104.305605 
L 292.978327 102.869612 
L 293.360162 103.984131 
L 292.779719 104.302846 
L 293.213302 104.681452 
L 293.121921 106.046783 
L 292.550341 106.016468 
L 292.639854 106.609555 
L 292.202547 106.942808 
L 292.705129 107.261277 
L 292.857116 109.39009 
L 292.544749 110.001717 
L 292.032841 109.917779 
L 292.424466 110.503852 
L 292.305111 111.324953 
L 291.521872 112.11048 
L 291.40718 113.334746 
L 291.547514 112.956139 
L 291.762438 113.208712 
L 291.100411 114.743429 
L 291.544713 114.658733 
L 291.289692 115.700589 
z
" clip-path="url(#p2f208fc4e6)" style="fill: #eeeeee; stroke: #000000; stroke-width: 0.3"/>
    <path d="M 296.630204 143.29641 
L 296.786384 142.25706 
L 297.670795 141.924311 
L 298.183168 143.22725 
L 298.084797 144.557506 
L 297.690376 144.943878 
z
" clip-path="url(#p2f208fc4e6)" style="fill: #eeeeee; stroke: #000000; stroke-width: 0.3"/>
    <path d="M 289.382788 121.643732 
L 289.639756 119.664039 
L 290.204771 119.389089 
L 290.534181 120.153882 
L 290.249634 121.67124 
z
" clip-path="url(#p2f208fc4e6)" style="fill: #eeeeee; stroke: #000000; stroke-width: 0.3"/>
    <path d="M 293.251067 111.641919 
L 293.502822 111.414409 
L 293.502822 111.959137 
L 293.451073 112.027293 
z
" clip-path="url(#p2f208fc4e6)" style="fill: #eeeeee; stroke: #000000; stroke-width: 0.3"/>
    <path d="M 291.093886 107.677717 
L 291.093886 106.665185 
L 291.382007 106.599031 
L 291.33212 107.215425 
z
" clip-path="url(#p2f208fc4e6)" style="fill: #eeeeee; stroke: #000000; stroke-width: 0.3"/>
    <path d="M 264.709773 51.595821 
L 264.948008 51.347005 
L 264.982977 51.694039 
L 264.730288 51.936088 
z
" clip-path="url(#p2f208fc4e6)" style="fill: #eeeeee; stroke: #000000; stroke-width: 0.3"/>
    <path d="M 264.556389 52.822587 
L 264.95034 51.873444 
L 265.107454 51.809802 
L 265.065496 53.284885 
z
" clip-path="url(#p2f208fc4e6)" style="fill: #eeeeee; stroke: #000000; stroke-width: 0.3"/>
    <path d="M 300.140343 103.786179 
L 300.30585 103.825269 
L 300.214938 103.841305 
z
" clip-path="url(#p2f208fc4e6)" style="fill: #eeeeee; stroke: #000000; stroke-width: 0.3"/>
    <path d="M 297.791548 110.91528 
L 297.841429 110.855899 
L 297.802267 110.982937 
z
" clip-path="url(#p2f208fc4e6)" style="fill: #eeeeee; stroke: #000000; stroke-width: 0.3"/>
    <path d="M 296.451177 141.776226 
L 296.903872 140.636404 
L 297.084761 141.30115 
z
" clip-path="url(#p2f208fc4e6)" style="fill: #eeeeee; stroke: #000000; stroke-width: 0.3"/>
    <path d="M 296.35653 134.520839 
L 296.392433 133.71427 
L 296.509915 134.222919 
z
" clip-path="url(#p2f208fc4e6)" style="fill: #eeeeee; stroke: #000000; stroke-width: 0.3"/>
    <path d="M 295.837168 137.341209 
L 296.200814 137.41112 
L 296.199416 137.681729 
z
" clip-path="url(#p2f208fc4e6)" style="fill: #eeeeee; stroke: #000000; stroke-width: 0.3"/>
    <path d="M 295.469788 136.268539 
L 295.802199 135.821278 
L 295.686115 137.269045 
z
" clip-path="url(#p2f208fc4e6)" style="fill: #eeeeee; stroke: #000000; stroke-width: 0.3"/>
    <path d="M 294.658575 137.527381 
L 295.032481 137.112443 
L 295.514547 138.024004 
z
" clip-path="url(#p2f208fc4e6)" style="fill: #eeeeee; stroke: #000000; stroke-width: 0.3"/>
    <path d="M 293.287898 135.567954 
L 293.390931 135.027487 
L 293.507021 135.522102 
z
" clip-path="url(#p2f208fc4e6)" style="fill: #eeeeee; stroke: #000000; stroke-width: 0.3"/>
    <path d="M 292.857116 102.319366 
L 293.101412 102.240692 
L 293.213302 102.487249 
z
" clip-path="url(#p2f208fc4e6)" style="fill: #eeeeee; stroke: #000000; stroke-width: 0.3"/>
    <path d="M 292.607687 112.650954 
L 292.995113 112.358539 
L 293.291627 113.208712 
z
" clip-path="url(#p2f208fc4e6)" style="fill: #eeeeee; stroke: #000000; stroke-width: 0.3"/>
    <path d="M 291.371283 130.25546 
L 291.484571 129.452642 
L 291.948575 130.168141 
z
" clip-path="url(#p2f208fc4e6)" style="fill: #eeeeee; stroke: #000000; stroke-width: 0.3"/>
    <path d="M 290.582441 116.415454 
L 290.823477 115.616897 
L 291.171277 115.947145 
z
" clip-path="url(#p2f208fc4e6)" style="fill: #eeeeee; stroke: #000000; stroke-width: 0.3"/>
    <path d="M 288.427127 115.062396 
L 288.815017 115.395397 
L 288.626664 115.486355 
z
" clip-path="url(#p2f208fc4e6)" style="fill: #eeeeee; stroke: #000000; stroke-width: 0.3"/>
    <path d="M 269.071691 53.89075 
L 269.487555 53.675512 
L 269.468444 53.898268 
z
" clip-path="url(#p2f208fc4e6)" style="fill: #eeeeee; stroke: #000000; stroke-width: 0.3"/>
    <path d="M 267.618032 52.07615 
L 268.108491 51.578529 
L 267.969555 52.314442 
z
" clip-path="url(#p2f208fc4e6)" style="fill: #eeeeee; stroke: #000000; stroke-width: 0.3"/>
    <path d="M 223.411402 89.113797 
L 223.52516 88.899563 
L 223.836128 89.550534 
z
" clip-path="url(#p2f208fc4e6)" style="fill: #eeeeee; stroke: #000000; stroke-width: 0.3"/>
    <path d="M 182.188559 119.824902 
L 182.236579 119.804107 
L 182.254762 119.807365 
z
" clip-path="url(#p2f208fc4e6)" style="fill: #eeeeee; stroke: #000000; stroke-width: 0.3"/>
    <path d="M 182.084128 124.031904 
L 182.089725 124.01186 
L 182.102775 124.046936 
z
" clip-path="url(#p2f208fc4e6)" style="fill: #eeeeee; stroke: #000000; stroke-width: 0.3"/>
    <path d="M 181.957784 124.550572 
L 182.022588 124.321055 
L 182.005803 124.476406 
z
" clip-path="url(#p2f208fc4e6)" style="fill: #eeeeee; stroke: #000000; stroke-width: 0.3"/>
    <path d="M 178.471883 135.646129 
L 178.81502 135.319396 
L 178.71245 135.553674 
z
" clip-path="url(#p2f208fc4e6)" style="fill: #eeeeee; stroke: #000000; stroke-width: 0.3"/>
    <path d="M 178.359059 115.688058 
L 178.39636 115.727148 
L 178.366054 115.791794 
z
" clip-path="url(#p2f208fc4e6)" style="fill: #eeeeee; stroke: #000000; stroke-width: 0.3"/>
    <path d="M 177.018224 117.491382 
L 177.162752 117.161386 
L 177.047126 117.596368 
z
" clip-path="url(#p2f208fc4e6)" style="fill: #eeeeee; stroke: #000000; stroke-width: 0.3"/>
    <path d="M 176.841529 118.075201 
L 176.841529 118.043629 
L 176.872762 118.07094 
z
" clip-path="url(#p2f208fc4e6)" style="fill: #eeeeee; stroke: #000000; stroke-width: 0.3"/>
    <path d="M 176.620538 114.518419 
L 176.644318 114.482087 
L 176.645246 114.512907 
z
" clip-path="url(#p2f208fc4e6)" style="fill: #eeeeee; stroke: #000000; stroke-width: 0.3"/>
    <path d="M 176.199546 121.487155 
L 176.320763 121.368887 
L 176.262953 121.458589 
z
" clip-path="url(#p2f208fc4e6)" style="fill: #eeeeee; stroke: #000000; stroke-width: 0.3"/>
    <path d="M 175.703489 120.121572 
L 175.748713 120.10428 
L 175.705357 120.14387 
z
" clip-path="url(#p2f208fc4e6)" style="fill: #eeeeee; stroke: #000000; stroke-width: 0.3"/>
    <path d="M 173.630694 119.67707 
L 173.750977 119.496156 
L 173.750977 119.580101 
z
" clip-path="url(#p2f208fc4e6)" style="fill: #eeeeee; stroke: #000000; stroke-width: 0.3"/>
    <path d="M -50.87923 137.728702 
L -49.760171 136.350341 
L -49.893396 134.992978 
L -49.473596 134.41334 
L -47.266568 134.382157 
L -46.575592 134.958611 
L -44.574906 133.79218 
L -44.686911 128.261856 
L -43.224927 123.526605 
L -43.490775 121.420952 
L -41.799162 119.458815 
L -40.770103 120.690482 
L -40.288139 120.413309 
L -39.601901 119.340121 
L -39.682426 117.185938 
L -38.944084 115.364934 
L -38.94645 113.702878 
L -37.544964 112.441455 
L -35.42349 108.528007 
L -32.975179 108.265791 
L -32.849654 106.229827 
L -31.392506 102.738811 
L -30.618639 98.648908 
L -29.348596 98.22679 
L -27.560473 98.566965 
L -27.211729 97.680251 
L -26.222336 97.454792 
L -24.733221 99.622018 
L -22.798257 94.855583 
L -22.138068 95.810871 
L -20.862696 96.085975 
L -19.731205 97.702685 
L -17.214801 97.231722 
L -16.391792 96.26147 
L -15.717396 96.563299 
L -15.254968 97.561077 
L -13.497037 96.775076 
L -11.335891 97.64493 
L -10.119733 97.402283 
L -5.945464 99.619154 
L -3.889712 102.637138 
L -0.912066 104.90286 
L 0.433169 107.192123 
L 1.798541 108.073431 
L 2.912863 109.71846 
L -0.450233 114.40741 
L -0.628452 118.76876 
L 0.381065 119.177509 
L 4.265803 118.19326 
L 6.030832 118.752848 
L 4.446985 121.010133 
L 5.529923 123.621911 
L 6.855623 125.380387 
L 7.540383 125.621752 
L 8.868448 128.517865 
L 10.02836 128.986599 
L 12.109577 131.009995 
L 29.264332 137.240238 
L 34.992848 137.240238 
L 26.083007 146.476057 
L 17.590595 156.237891 
L 12.018986 155.976315 
L 9.495478 156.66844 
L 7.151078 157.862236 
L 5.503278 159.989054 
L 1.328419 160.669084 
L -0.200959 162.162007 
L -4.05609 162.203696 
L -6.343351 160.096134 
L -11.586941 162.667977 
L -13.558026 165.524944 
L -19.260487 164.000991 
L -21.592749 164.235996 
L -27.815666 159.568684 
L -33.397339 159.118566 
L -33.975227 158.722225 
L -35.05698 156.58968 
L -34.756198 153.734462 
L -36.674583 153.040269 
L -37.716079 153.389194 
L -37.862326 152.540665 
L -38.797838 151.859681 
L -39.509535 150.377892 
L -41.061416 145.317262 
L -42.085737 144.898802 
L -42.206524 144.054251 
L -43.483672 143.499596 
L -44.052674 142.347329 
L -44.899372 141.835952 
L -45.054498 140.852657 
L -46.718584 139.330299 
L -50.486671 138.463149 
z
" clip-path="url(#p2f208fc4e6)" style="fill: #eeeeee; stroke: #000000; stroke-width: 0.3"/>
    <path d="M 57.905137 69.508986 
L 75.090387 63.352416 
L 78.866769 51.137907 
L 76.284643 46.675844 
L 76.508453 44.103847 
L 78.298357 40.108609 
L 77.831196 38.919425 
L 80.93081 38.19214 
L 80.560159 37.333426 
L 79.543531 37.274236 
L 79.965697 33.020132 
L 80.975215 32.804538 
L 81.110806 33.389582 
L 80.700487 33.343441 
L 81.511064 34.194199 
L 83.139047 32.668824 
L 84.444455 35.636276 
L 87.540134 38.978572 
L 94.218215 41.02695 
L 95.747404 40.866586 
L 96.766552 41.512544 
L 101.084644 47.55068 
L 102.855333 47.874912 
L 102.780274 49.546691 
L 100.101863 54.427713 
L 98.441202 55.460043 
L 96.298469 58.223286 
L 96.571673 58.60164 
L 95.791224 59.358847 
L 95.37163 60.757511 
L 94.954833 61.115815 
L 93.563177 60.831923 
L 93.914241 59.70563 
L 93.579498 59.547273 
L 91.576629 61.719179 
L 90.620424 64.998086 
L 91.34492 69.532824 
L 87.860887 70.03646 
L 85.570836 71.048746 
L 84.616023 72.196087 
L 84.158665 74.721045 
L 82.984265 76.009451 
L 77.764507 76.619078 
L 76.521578 78.48028 
L 76.937442 79.231231 
L 76.705268 80.355264 
L 75.368157 81.72937 
L 74.021724 82.097201 
L 72.877166 81.560989 
L 69.972172 81.72937 
L 67.282103 83.288891 
L 64.274077 84 
L 62.619689 80.151173 
L 62.160819 79.961836 
z
" clip-path="url(#p2f208fc4e6)" style="fill: #eeeeee; stroke: #000000; stroke-width: 0.3"/>
    <path d="M 81.386507 26.000852 
L 82.136221 24.756708 
L 82.159996 25.096976 
L 83.258403 25.054381 
L 82.710133 25.012785 
L 83.027157 24 
L 83.813197 24.167877 
L 83.226699 24.722125 
L 83.734872 24.928594 
L 83.417848 25.012785 
L 83.69198 25.47884 
L 82.826687 25.312459 
L 82.867711 25.689311 
L 83.652818 25.769493 
L 83.12087 26.141332 
L 83.539994 26.702102 
L 83.140915 26.831892 
L 82.541779 28.670932 
L 81.774546 28.403735 
L 81.994214 26.287262 
z
" clip-path="url(#p2f208fc4e6)" style="fill: #eeeeee; stroke: #000000; stroke-width: 0.3"/>
    <path d="M 96.114315 61.052924 
L 97.592689 59.026099 
L 97.84351 60.190226 
L 96.137162 62.274431 
z
" clip-path="url(#p2f208fc4e6)" style="fill: #eeeeee; stroke: #000000; stroke-width: 0.3"/>
    <path d="M 82.136863 30.962117 
L 82.436196 30.495957 
L 82.915988 30.893432 
L 82.20322 31.209147 
z
M 82.461689 30.803237 
L 82.564259 30.961489 
L 82.594903 30.860191 
z
" clip-path="url(#p2f208fc4e6)" style="fill: #eeeeee; stroke: #000000; stroke-width: 0.3"/>
    <path d="M 80.738034 78.596295 
L 81.490509 78.60281 
L 80.787457 78.729097 
z
" clip-path="url(#p2f208fc4e6)" style="fill: #eeeeee; stroke: #000000; stroke-width: 0.3"/>
    <path d="M 80.158061 78.60281 
L 80.317976 78.690758 
L 80.231723 78.744128 
z
" clip-path="url(#p2f208fc4e6)" style="fill: #eeeeee; stroke: #000000; stroke-width: 0.3"/>
    <path d="M 55.613138 38.06549 
L 55.70036 36.322328 
L 55.933467 37.295524 
L 56.764262 37.079036 
L 56.93583 38.688418 
L 57.619306 38.909671 
L 59.981621 38.646322 
L 61.46652 37.402265 
L 61.930873 37.825467 
L 64.703461 37.643809 
L 67.13431 38.402771 
L 68.791711 38.293277 
L 71.933077 36.893616 
L 72.267351 35.940212 
L 72.775994 35.940212 
L 71.876195 35.397485 
L 72.818422 35.561605 
L 73.170879 34.082267 
L 75.68565 32.431036 
L 76.832076 30.929394 
L 77.098285 31.293973 
L 76.954227 30.791838 
L 78.371056 28.971728 
L 78.802308 29.232065 
L 80.712392 27.462566 
L 80.583252 27.751969 
L 80.669969 27.780037 
L 81.386507 26.000852 
L 81.994214 26.287262 
L 81.774546 28.403735 
L 83.06259 29.297462 
L 83.139047 32.668824 
L 81.511064 34.194199 
L 80.74134 33.434609 
L 81.110806 33.389582 
L 80.819493 32.708592 
L 79.79221 33.236041 
L 79.543531 37.274236 
L 80.560159 37.333426 
L 80.93081 38.19214 
L 77.831196 38.919425 
L 78.298357 40.108609 
L 76.508453 44.103847 
L 75.903926 47.169407 
L 61.227082 45.228749 
z
M 82.136863 30.962117 
L 82.20322 31.209147 
L 82.915988 30.893432 
L 82.436196 30.495957 
z
" clip-path="url(#p2f208fc4e6)" style="fill: #eeeeee; stroke: #000000; stroke-width: 0.3"/>
    <path d="M 64.813954 36.925187 
L 65.857346 36.726736 
L 66.14407 36.150436 
L 66.279735 36.591182 
L 65.605557 37.074966 
z
" clip-path="url(#p2f208fc4e6)" style="fill: #eeeeee; stroke: #000000; stroke-width: 0.3"/>
    <path d="M 70.130215 37.01965 
L 70.145602 36.73125 
L 70.564262 36.983817 
L 70.578252 37.29327 
z
" clip-path="url(#p2f208fc4e6)" style="fill: #eeeeee; stroke: #000000; stroke-width: 0.3"/>
    <path d="M 67.520338 37.717223 
L 68.61548 36.998854 
L 69.284033 37.629781 
L 68.194488 37.891369 
z
" clip-path="url(#p2f208fc4e6)" style="fill: #eeeeee; stroke: #000000; stroke-width: 0.3"/>
    <path d="M 82.461689 30.803237 
L 82.594903 30.860191 
L 82.564259 30.961489 
z
" clip-path="url(#p2f208fc4e6)" style="fill: #eeeeee; stroke: #000000; stroke-width: 0.3"/>
    <path d="M 71.403455 35.804904 
L 71.755448 35.47391 
L 72.181103 36.075267 
z
" clip-path="url(#p2f208fc4e6)" style="fill: #eeeeee; stroke: #000000; stroke-width: 0.3"/>
    <path d="M 71.084094 36.448362 
L 71.410914 36.535306 
L 71.255198 36.759811 
z
" clip-path="url(#p2f208fc4e6)" style="fill: #eeeeee; stroke: #000000; stroke-width: 0.3"/>
    <path d="M 70.542819 36.61699 
L 70.816951 36.490704 
L 70.758213 36.940724 
z
" clip-path="url(#p2f208fc4e6)" style="fill: #eeeeee; stroke: #000000; stroke-width: 0.3"/>
    <path d="M 61.213493 36.802448 
L 61.756309 36.691895 
L 61.420019 37.132376 
z
" clip-path="url(#p2f208fc4e6)" style="fill: #eeeeee; stroke: #000000; stroke-width: 0.3"/>
    <path d="M 59.650143 35.632015 
L 59.971097 35.604082 
L 59.827818 35.763578 
z
" clip-path="url(#p2f208fc4e6)" style="fill: #eeeeee; stroke: #000000; stroke-width: 0.3"/>
    <path d="M -31.198893 93.292016 
L -30.037205 91.369653 
L -29.790297 89.660822 
L -28.167366 86.242198 
L -28.612625 84.793348 
L -27.906846 82.770112 
L -28.057241 81.412909 
L -25.594126 81.613707 
L -25.06361 79.8756 
L -21.953925 78.422291 
L -21.738405 78.842981 
L -21.492092 78.438203 
L -20.839603 78.560721 
L -18.730138 75.610302 
L -16.37621 80.779723 
L -14.762635 88.394424 
L -13.943963 89.113797 
L -13.826475 90.88329 
L -12.945324 91.034885 
L -12.348101 93.534527 
L -11.799832 93.627739 
L -11.551336 93.045423 
L -12.016623 91.708905 
L -11.433385 91.009576 
L -10.260852 92.015599 
L -10.566224 92.653041 
L -9.805362 94.223086 
L -9.075733 94.64654 
L -7.781514 94.006093 
L -6.739989 94.752783 
L -6.327854 95.990072 
L -4.030339 96.349386 
L -1.114157 100.639575 
L 0.565621 101.222138 
L 1.349799 102.4667 
L 2.021618 103.018448 
L 1.797831 102.319366 
L 2.391324 102.891158 
L 2.912554 105.058556 
L 3.797898 104.997415 
L 4.919616 106.225437 
L 5.214733 107.341711 
L 6.055318 107.724327 
L 6.473513 107.043539 
L 7.142066 108.22821 
L 5.716432 108.731668 
L 5.277693 109.944714 
L 4.624608 110.37049 
L 3.464106 109.40788 
L 2.912863 109.71846 
L 1.798541 108.073431 
L 0.433169 107.192123 
L -0.912066 104.90286 
L -3.889712 102.637138 
L -5.945464 99.619154 
L -10.119733 97.402283 
L -11.335891 97.64493 
L -13.497037 96.775076 
L -15.254968 97.561077 
L -15.717396 96.563299 
L -16.391792 96.26147 
L -17.214801 97.231722 
L -19.731205 97.702685 
L -20.862696 96.085975 
L -22.138068 95.810871 
L -22.798257 94.855583 
L -24.733221 99.622018 
L -26.222336 97.454792 
L -27.211729 97.680251 
L -27.560473 98.566965 
L -29.348596 98.22679 
L -30.618639 98.648908 
z
" clip-path="url(#p2f208fc4e6)" style="fill: #eeeeee; stroke: #000000; stroke-width: 0.3"/>
    <path d="M -11.117289 89.559555 
L -10.504214 88.950926 
L -10.999807 88.608904 
L -9.936833 89.149124 
L -9.780183 90.145874 
L -9.189486 89.781554 
L -8.462189 90.589379 
L -10.839892 90.378902 
L -11.077662 89.790323 
L -10.252929 90.042643 
z
" clip-path="url(#p2f208fc4e6)" style="fill: #eeeeee; stroke: #000000; stroke-width: 0.3"/>
    <path d="M -10.77602 87.846684 
L -10.429625 87.295441 
L -10.062708 88.042629 
z
" clip-path="url(#p2f208fc4e6)" style="fill: #eeeeee; stroke: #000000; stroke-width: 0.3"/>
    <path d="M -17.739399 -19.017368 
L -6.763145 -24.927801 
L -5.188767 -25.361059 
L -3.819843 -27.77045 
L -3.836422 -30.540862 
L -2.907424 -33.079293 
L -3.633924 -35.573805 
L -3.403011 -37.387019 
L -2.781904 -38.382088 
L -0.155964 -39.007066 
L 2.785562 -42.037464 
L 3.954359 -42.263084 
L 4.838948 -43.548048 
L 7.125619 -43.645583 
L 11.104791 -42.58989 
L 12.701077 -43.276287 
L 13.543037 -42.818213 
L 13.228041 -41.899675 
L 13.828426 -41.17032 
L 15.692931 -42.458468 
L 17.280336 -41.458307 
L 16.958832 -40.078831 
L 18.188608 -39.316057 
L 17.876282 -38.489007 
L 18.405319 -37.744375 
L 19.29405 -37.683917 
L 19.76062 -35.16553 
L 21.01912 -35.165216 
L 22.216631 -34.038405 
L 24.000611 -34.323208 
L 25.528218 -33.992258 
L 23.676145 -33.196398 
L 23.448188 -32.087402 
L 24.342842 -31.005778 
L 24.519881 -29.731633 
L 23.157173 -29.58207 
L 22.796289 -28.470531 
L 21.745322 -27.855411 
L 21.519737 -27.325265 
L 21.944561 -26.281185 
L 20.793827 -26.530033 
L 20.809816 -25.929557 
L 20.314825 -25.622794 
L 21.119776 -24.807518 
L 21.045169 -23.745464 
L 20.104627 -22.723658 
L 20.708564 -22.508704 
L 22.13374 -20.319359 
L 23.001159 -20.613713 
L 23.241547 -20.120791 
L 22.809912 -19.77282 
L 23.507991 -19.750861 
L 24.544154 -18.330971 
L 24.612247 -17.765176 
L 23.828017 -17.37934 
L 24.344325 -17.108374 
L 24.210213 -16.447273 
L 26.400369 -16.062232 
L 29.902316 -13.492931 
L 30.903252 -13.555305 
L 31.736922 -13.004788 
L 32.198165 -11.485928 
L 34.163916 -9.374228 
L 33.272814 -6.924262 
L 33.238475 -4.380104 
L 35.182319 -4.345423 
L 35.190019 -1.111364 
L 36.863575 -0.181212 
L 37.708193 1.736372 
L 38.316083 2.073979 
L 35.794786 1.468115 
L 34.93462 1.720183 
L 34.835316 1.201262 
L 34.738808 1.085752 
L 34.814337 1.781824 
L 33.245579 1.140348 
L 30.512469 1.534306 
L 28.543756 5.165501 
L 26.70471 7.313471 
L 16.160097 6.660173 
L 1.170921 -4.90453 
L -8.288977 -10.08131 
L -15.60904 -11.29818 
L -14.77478 -12.076385 
L -15.09688 -12.743527 
L -16.282846 -12.592535 
L -16.572378 -13.495481 
L -16.120021 -13.628652 
z
" clip-path="url(#p2f208fc4e6)" style="fill: #eeeeee; stroke: #000000; stroke-width: 0.3"/>
    <path d="M 12.281873 -55.97958 
L 14.419335 -56.228428 
L 14.829064 -57.977039 
L 15.437738 -58.39231 
L 16.819879 -57.616463 
L 18.800542 -54.990873 
L 19.707926 -54.910839 
L 20.438276 -53.702085 
L 24.37659 -52.830328 
L 26.826677 -52.997553 
L 29.968926 -55.575123 
L 34.948444 -58.014584 
L 37.053928 -56.009489 
L 35.720535 -55.333591 
L 36.794594 -53.704314 
L 35.447577 -53.358092 
L 35.072783 -52.752843 
L 36.889922 -51.213773 
L 37.491195 -51.324357 
L 38.594563 -49.956495 
L 40.120807 -50.19105 
L 40.523151 -46.923172 
L 41.600115 -45.198773 
L 43.371732 -44.407488 
L 47.690764 -43.757774 
L 48.416193 -42.303991 
L 52.325886 -39.929379 
L 57.506482 -38.790554 
L 69.522737 -41.06845 
L 67.246201 -40.602148 
L 69.567497 -40.258617 
L 69.600129 -41.530995 
L 68.991253 -43.470877 
L 70.668035 -43.359025 
L 73.231805 -44.062929 
L 74.001524 -44.590852 
L 74.221192 -45.887911 
L 75.960768 -47.224429 
L 79.274131 -48.248772 
L 82.660321 -48.012179 
L 82.681042 -48.623 
L 83.443657 -49.088871 
L 86.892016 -48.671371 
L 87.674178 -49.227294 
L 88.690799 -47.318146 
L 93.29848 -46.213769 
L 93.585651 -45.53978 
L 94.450698 -45.260063 
L 96.990195 -45.637789 
L 99.918694 -44.626014 
L 100.774861 -42.63858 
L 103.968618 -41.519085 
L 105.819506 -39.125766 
L 110.537318 -39.120673 
L 110.427782 -37.402291 
L 110.874811 -35.963945 
L 110.331268 -35.020745 
L 110.968364 -34.548828 
L 111.249015 -32.419307 
L 110.659291 -30.894086 
L 110.208114 -30.755976 
L 110.431334 -29.673077 
L 109.962392 -27.903467 
L 109.286816 -26.815156 
L 107.866973 -26.066391 
L 108.959978 -24.850316 
L 107.546054 -24.77474 
L 106.681597 -23.742595 
L 106.790543 -20.659694 
L 109.134055 -19.894377 
L 107.110276 -17.660165 
L 107.083631 -17.087375 
L 108.615381 -12.103271 
L 108.298019 -10.738118 
L 108.566233 -7.458873 
L 113.522658 -6.710742 
L 114.32199 -4.504851 
L 114.183437 -3.470957 
L 108.695906 2.618474 
L 111.520197 5.597638 
L 112.832869 8.697565 
L 114.702112 10.719686 
L 117.394661 11.481499 
L 118.614085 12.650639 
L 119.678966 12.5434 
L 119.983598 17.170931 
L 119.569132 18.57587 
L 120.428852 18.904271 
L 122.059779 18.627417 
L 122.876275 19.496477 
L 122.370628 19.813418 
L 122.562464 20.896003 
L 122.08938 21.264178 
L 121.983396 22.404357 
L 117.713805 22.914146 
L 116.98908 23.290277 
L 116.835134 24.153923 
L 116.025737 24.073729 
L 114.359291 24.988929 
L 113.90989 27.485357 
L 113.370494 27.79816 
L 113.139575 30.77669 
L 111.946109 32.168857 
L 107.48766 30.841447 
L 107.00746 29.782558 
L 106.123044 30.207767 
L 106.535362 30.747194 
L 105.5165 30.212028 
L 103.30749 30.503421 
L 100.73005 29.692153 
L 98.381525 30.073962 
L 97.128335 29.08398 
L 94.800984 28.76601 
L 92.819564 29.063936 
L 92.190174 28.26613 
L 91.093165 28.620936 
L 91.000855 27.960944 
L 88.456712 27.706118 
L 87.627316 25.86571 
L 87.891657 25.353052 
L 87.132193 23.819087 
L 86.814699 21.13653 
L 86.24545 20.49508 
L 86.519118 20.200418 
L 85.90138 20.145791 
L 85.576897 19.359519 
L 81.651823 19.229722 
L 80.595374 20.054586 
L 79.028884 20.247021 
L 78.203217 21.545452 
L 76.765874 21.496343 
L 74.017061 23.323468 
L 71.716285 22.650452 
L 71.250534 21.973919 
L 67.858811 22.013509 
L 66.57252 21.115988 
L 66.300714 20.368799 
L 63.92068 19.578013 
L 61.472581 18.045551 
L 61.866532 17.456221 
L 60.660898 16.32316 
L 58.092047 15.091129 
L 56.214136 15.104233 
L 54.589619 14.481471 
L 52.761331 10.773125 
L 52.635921 9.52932 
L 51.180858 8.312068 
L 51.286223 7.923695 
L 51.721668 8.214348 
L 51.89743 7.566635 
L 51.384129 7.03719 
L 50.258213 7.019653 
L 50.323951 5.137402 
L 47.399841 2.126599 
L 46.990508 0.539768 
L 46.080449 0.489402 
L 43.890166 1.603922 
L 43.589922 0.78407 
L 42.245357 0.781564 
L 42.108288 0.116061 
L 41.765622 0.367125 
L 40.389348 -0.599556 
L 42.003387 -0.389331 
L 42.352584 -1.023762 
L 42.050942 -1.372804 
L 40.734816 -1.429931 
L 41.054641 -0.918277 
L 40.467673 -0.832836 
L 40.052273 -0.383069 
L 40.355783 1.4854 
L 37.772139 1.812108 
L 37.386689 0.384262 
L 35.190019 -1.111364 
L 35.182319 -4.345423 
L 33.238475 -4.380104 
L 33.272814 -6.924262 
L 34.163916 -9.374228 
L 32.198165 -11.485928 
L 31.736922 -13.004788 
L 30.903252 -13.555305 
L 29.902316 -13.492931 
L 26.400369 -16.062232 
L 24.210213 -16.447273 
L 24.344325 -17.108374 
L 23.828017 -17.37934 
L 24.612247 -17.765176 
L 24.544154 -18.330971 
L 23.507991 -19.750861 
L 22.809912 -19.77282 
L 23.241547 -20.120791 
L 23.001159 -20.613713 
L 22.13374 -20.319359 
L 20.708564 -22.508704 
L 20.104627 -22.723658 
L 21.045169 -23.745464 
L 21.119776 -24.807518 
L 20.314825 -25.622794 
L 20.809816 -25.929557 
L 20.793827 -26.530033 
L 21.944561 -26.281185 
L 21.519737 -27.325265 
L 21.745322 -27.855411 
L 22.796289 -28.470531 
L 23.157173 -29.58207 
L 24.519881 -29.731633 
L 24.342842 -31.005778 
L 23.448188 -32.087402 
L 23.676145 -33.196398 
L 25.528218 -33.992258 
L 24.000611 -34.323208 
L 22.216631 -34.038405 
L 21.01912 -35.165216 
L 19.76062 -35.16553 
L 19.29405 -37.683917 
L 18.339592 -37.809612 
L 17.876282 -38.489007 
L 18.127624 -39.448754 
L 16.913832 -40.186071 
L 17.280336 -41.458307 
L 16.508836 -41.996415 
L 16.788897 -43.162526 
L 15.474449 -44.012964 
L 15.611816 -45.7716 
L 13.354454 -46.884888 
L 14.824922 -49.601522 
L 13.855369 -49.872009 
L 13.772174 -52.712743 
L 13.067289 -53.45817 
L 13.265937 -54.569709 
L 12.641869 -54.907975 
z
" clip-path="url(#p2f208fc4e6)" style="fill: #eeeeee; stroke: #000000; stroke-width: 0.3"/>
    <path d="M 76.845133 22.311182 
L 79.649424 21.469285 
L 79.556645 20.501847 
L 80.357139 20.792753 
L 82.159996 20.200418 
L 82.58985 20.49508 
L 80.639664 22.089183 
L 80.236386 21.802034 
L 76.878698 22.999235 
z
" clip-path="url(#p2f208fc4e6)" style="fill: #eeeeee; stroke: #000000; stroke-width: 0.3"/>
    <path d="M 68.92878 23.07491 
L 69.593134 22.955638 
L 69.696637 23.369073 
L 69.229952 23.343518 
z
" clip-path="url(#p2f208fc4e6)" style="fill: #eeeeee; stroke: #000000; stroke-width: 0.3"/>
    <path d="M 83.432766 19.881198 
L 83.445822 19.726093 
L 83.834646 19.839103 
z
" clip-path="url(#p2f208fc4e6)" style="fill: #eeeeee; stroke: #000000; stroke-width: 0.3"/>
    <path d="M 82.897547 20.961886 
L 83.258403 20.877449 
L 83.115273 21.212205 
z
" clip-path="url(#p2f208fc4e6)" style="fill: #eeeeee; stroke: #000000; stroke-width: 0.3"/>
    <path d="M 80.102119 22.552479 
L 80.188831 22.272849 
L 80.310982 22.535693 
z
" clip-path="url(#p2f208fc4e6)" style="fill: #eeeeee; stroke: #000000; stroke-width: 0.3"/>
    <path d="M 75.283306 27.105759 
L 75.52574 27.210498 
L 75.319673 27.241319 
z
" clip-path="url(#p2f208fc4e6)" style="fill: #eeeeee; stroke: #000000; stroke-width: 0.3"/>
    <path d="M 72.405817 26.907813 
L 72.654777 26.993506 
L 72.428194 26.976221 
z
" clip-path="url(#p2f208fc4e6)" style="fill: #eeeeee; stroke: #000000; stroke-width: 0.3"/>
    <path d="M 72.281805 24.541471 
L 72.621211 24.588326 
L 72.470158 24.831373 
z
" clip-path="url(#p2f208fc4e6)" style="fill: #eeeeee; stroke: #000000; stroke-width: 0.3"/>
    <path d="M 67.200983 22.191915 
L 67.24667 22.124763 
L 67.458799 22.329976 
z
" clip-path="url(#p2f208fc4e6)" style="fill: #eeeeee; stroke: #000000; stroke-width: 0.3"/>
    <path d="M 64.61255 21.155577 
L 65.944992 21.431198 
L 65.033077 21.453244 
z
" clip-path="url(#p2f208fc4e6)" style="fill: #eeeeee; stroke: #000000; stroke-width: 0.3"/>
    <path d="M 48.192716 6.246959 
L 48.487088 6.310249 
L 48.439974 6.616488 
z
" clip-path="url(#p2f208fc4e6)" style="fill: #eeeeee; stroke: #000000; stroke-width: 0.3"/>
    <path d="M 50.872221 29.488394 
L 51.423292 29.65677 
L 51.0671 28.811862 
L 51.480632 28.526973 
L 51.718403 29.257368 
L 52.17017 28.555786 
L 51.654532 28.341804 
L 52.208399 26.491624 
L 53.738051 25.390886 
L 54.524092 26.579824 
L 55.607117 27.110525 
L 55.679381 28.150872 
L 55.192651 28.303213 
L 55.446737 28.647994 
L 55.002429 29.324021 
L 55.27097 30.705388 
L 55.779613 30.963724 
L 55.799194 32.396958 
L 54.24996 35.183251 
L 53.891906 34.609956 
L 52.177806 35.196589 
L 51.198107 34.094798 
L 51.494622 33.793362 
z
" clip-path="url(#p2f208fc4e6)" style="fill: #eeeeee; stroke: #000000; stroke-width: 0.3"/>
    <path d="M -41.810637 13.366484 
L -40.487212 10.814931 
L -39.653031 5.73741 
L -33.23629 6.671306 
L -30.901067 4.857304 
L -29.459317 2.647114 
L -25.211633 1.778695 
L -24.195596 -0.29227 
L -22.283134 -1.326478 
L -28.13717 -7.436279 
L -16.65705 -10.535726 
L -15.543909 -11.31791 
L -8.597453 -10.191733 
L 1.170921 -4.90453 
L 16.160097 6.660173 
L 31.866589 7.935592 
L 33.210942 10.775692 
L 37.945912 10.981096 
L 37.797655 11.677167 
L 38.179948 11.55088 
L 38.848037 13.777161 
L 39.649465 14.017707 
L 39.372532 14.299093 
L 40.168827 15.127959 
L 40.122205 15.477753 
L 39.919868 15.732327 
L 39.766953 15.116438 
L 39.573936 15.787951 
L 40.154379 15.9849 
L 39.877445 16.447192 
L 42.214588 16.86213 
L 42.632783 17.456221 
L 41.527381 17.502325 
L 42.352584 17.670202 
L 42.120875 18.178851 
L 42.632783 18.09466 
L 42.689195 18.952099 
L 43.20343 18.962623 
L 42.988506 19.300883 
L 44.11861 19.02326 
L 44.848244 20.476039 
L 47.477702 22.282621 
L 46.503778 21.915789 
L 46.745278 23.330987 
L 47.810578 24.38211 
L 47.379796 26.155366 
L 46.755533 25.138566 
L 46.512634 26.365843 
L 47.150418 26.441511 
L 48.045089 28.643486 
L 47.398913 28.018822 
L 47.421754 28.225038 
L 49.271238 29.842443 
L 49.7906 32.197011 
L 52.177806 35.196589 
L 53.838753 34.846992 
L 54.031301 35.507988 
L 54.563254 34.804897 
L 55.153488 35.09906 
L 53.896099 36.797398 
L 55.560495 37.115116 
L 55.698991 38.210275 
L 61.227082 45.228749 
L 75.817477 47.184678 
L 76.284643 46.675844 
L 78.866769 51.137907 
L 75.090387 63.352416 
L 57.905137 69.508986 
L 41.046426 72.070171 
L 36.03997 74.723003 
L 32.757691 78.945128 
L 31.832841 81.232483 
L 30.307605 82.121586 
L 29.213414 82.063671 
L 27.722517 80.102168 
L 25.502754 80.418161 
L 20.391202 79.876555 
L 18.87307 79.159922 
L 13.050411 79.305033 
L 11.710504 79.939242 
L 8.833222 78.596043 
L 7.413374 79.790954 
L 7.912513 80.123173 
L 7.14634 81.26685 
L 7.113181 82.351978 
L 7.679526 83.048874 
L 7.498934 83.863196 
L 6.954503 83.814191 
L 6.675628 84.653335 
L 5.261818 85.671521 
L 4.820312 83.456768 
L 2.78248 80.67449 
L 2.818377 81.64518 
L 2.466384 79.004718 
L -0.477772 76.66493 
L -2.163611 74.261006 
L -2.493221 72.746081 
L -3.785573 71.342164 
L -3.56319 70.503267 
L -4.207968 69.873091 
L -3.97859 69.067274 
L -4.596792 68.709967 
L -5.306839 66.368177 
L -6.362353 65.733746 
L -6.451397 64.697408 
L -6.957245 64.805146 
L -7.656567 63.559334 
L -10.238475 61.604673 
L -11.273939 61.42602 
L -11.058551 61.7282 
L -12.093081 61.163927 
L -15.448907 56.495883 
L -15.985054 55.226516 
L -15.467554 54.677779 
L -15.822813 52.561498 
L -16.84144 50.971009 
L -16.414989 50.996059 
L -15.629802 48.525384 
L -16.045116 48.755671 
L -16.37295 46.286579 
L -17.595834 44.858603 
L -17.602829 43.929252 
L -19.583315 40.022682 
L -22.547006 37.836601 
L -22.474656 37.417617 
L -22.946233 37.769596 
L -25.445342 36.43075 
L -25.289139 35.975423 
L -27.053961 33.452091 
L -26.435296 33.32756 
L -26.517814 31.455334 
L -28.27032 28.555786 
L -29.610691 27.731673 
L -29.646588 26.239557 
L -30.696976 25.69332 
L -33.450916 20.792753 
L -38.425908 14.003421 
L -38.123802 13.726044 
L -39.065559 13.324641 
L -40.48099 13.62256 
L -41.028796 13.198354 
L -41.384518 13.450675 
L -41.263301 13.62256 
L -41.579861 13.874881 
z
" clip-path="url(#p2f208fc4e6)" style="fill: #eeeeee; stroke: #000000; stroke-width: 0.3"/>
    <path d="M -0.652634 82.43607 
L 0.195571 83.352311 
L 0.939447 83.548182 
L 1.095243 82.942109 
L 1.807072 83.61127 
L 1.761934 84.362818 
L 1.230261 83.685183 
L 0.483813 83.82934 
z
" clip-path="url(#p2f208fc4e6)" style="fill: #eeeeee; stroke: #000000; stroke-width: 0.3"/>
    <path d="M -0.20643 82.465031 
L 0.329248 82.075654 
L -0.142095 81.813561 
L -0.058178 81.714087 
L 0.384732 81.964904 
L 0.749563 83.269758 
z
" clip-path="url(#p2f208fc4e6)" style="fill: #eeeeee; stroke: #000000; stroke-width: 0.3"/>
    <path d="M -30.818657 28.562301 
L -30.519816 28.206497 
L -30.59208 28.565306 
L -29.809299 29.149377 
L -30.544055 28.906577 
z
" clip-path="url(#p2f208fc4e6)" style="fill: #eeeeee; stroke: #000000; stroke-width: 0.3"/>
    <path d="M -28.211576 29.813624 
L -28.18127 29.655772 
L -27.90947 29.643992 
L -27.751422 29.950687 
z
" clip-path="url(#p2f208fc4e6)" style="fill: #eeeeee; stroke: #000000; stroke-width: 0.3"/>
    <path d="M -29.73051 29.126574 
L -29.477352 29.05441 
L -28.597604 29.804609 
L -29.513719 29.113045 
z
" clip-path="url(#p2f208fc4e6)" style="fill: #eeeeee; stroke: #000000; stroke-width: 0.3"/>
    <path d="M -30.526341 27.596371 
L -30.43496 27.384392 
L -30.249408 27.235555 
L -30.133318 28.165904 
z
" clip-path="url(#p2f208fc4e6)" style="fill: #eeeeee; stroke: #000000; stroke-width: 0.3"/>
    <path d="M 43.454721 18.430919 
L 44.193206 18.098669 
L 44.787169 18.262543 
z
" clip-path="url(#p2f208fc4e6)" style="fill: #eeeeee; stroke: #000000; stroke-width: 0.3"/>
    <path d="M -28.48851 28.867991 
L -28.395731 28.799084 
L -28.34538 29.336048 
z
" clip-path="url(#p2f208fc4e6)" style="fill: #eeeeee; stroke: #000000; stroke-width: 0.3"/>
    <path d="M -28.896451 29.16516 
L -28.814396 29.024593 
L -28.669868 29.101518 
z
" clip-path="url(#p2f208fc4e6)" style="fill: #eeeeee; stroke: #000000; stroke-width: 0.3"/>
    <path d="M -29.1855 29.47787 
L -28.453546 30.107794 
L -28.479653 30.311503 
z
" clip-path="url(#p2f208fc4e6)" style="fill: #eeeeee; stroke: #000000; stroke-width: 0.3"/>
    <path d="M 108.695906 2.618474 
L 118.051888 5.391748 
L 124.30263 4.839643 
L 127.267249 5.522382 
L 127.762831 4.920786 
L 129.510696 4.390793 
L 132.711264 4.576793 
L 139.352492 2.759126 
L 140.18261 2.012585 
L 139.488082 1.388881 
L 139.980708 0.237882 
L 139.766958 -1.958144 
L 140.330042 -3.937782 
L 141.382784 -4.270955 
L 142.224744 -5.618613 
L 143.635707 -6.350837 
L 144.162671 -5.865551 
L 145.943987 -5.69212 
L 148.341672 -6.469851 
L 148.373942 -6.843119 
L 147.463597 -6.942403 
L 147.220246 -7.675582 
L 149.495076 -8.342883 
L 150.483282 -9.491019 
L 152.542586 -8.878763 
L 152.839226 -9.052828 
L 152.088447 -9.23453 
L 153.560989 -9.183296 
L 154.294593 -8.123311 
L 155.648123 -8.557683 
L 157.130433 -10.186961 
L 156.752379 -13.419745 
L 157.859002 -14.604631 
L 157.574208 -15.323806 
L 158.15268 -15.846958 
L 158.212484 -16.903285 
L 161.117007 -17.512671 
L 162.83408 -18.692625 
L 162.035047 -19.848236 
L 161.823967 -21.140842 
L 160.903853 -21.363592 
L 160.271788 -22.436626 
L 160.417444 -22.992555 
L 164.137575 -22.509024 
L 167.234823 -23.220558 
L 167.575278 -25.083731 
L 166.6297 -26.162492 
L 167.253178 -26.325418 
L 167.337845 -27.03027 
L 169.566196 -28.734649 
L 170.530719 -30.212461 
L 169.911389 -30.897263 
L 170.441905 -31.689946 
L 169.536589 -33.93816 
L 167.82662 -35.483752 
L 170.074805 -37.221224 
L 170.373221 -38.022183 
L 171.359652 -37.644136 
L 171.305772 -38.158377 
L 173.588295 -39.227273 
L 173.577043 -39.582725 
L 175.842993 -40.25544 
L 182.000773 -40.723699 
L 184.264947 -40.22457 
L 187.857776 -41.6957 
L 189.060322 -40.788136 
L 190.365295 -41.324015 
L 191.804088 -40.841599 
L 192.26592 -39.654009 
L 193.966414 -39.655598 
L 195.412047 -37.945289 
L 195.602967 -36.621062 
L 194.955806 -35.901892 
L 195.075407 -35.397196 
L 196.035789 -35.067521 
L 196.471566 -34.009124 
L 198.702581 -34.57333 
L 198.79021 -33.670544 
L 199.973759 -33.023077 
L 201.529834 -29.724471 
L 201.324379 -28.960589 
L 199.860717 -28.521764 
L 199.184545 -27.450319 
L 195.654481 -27.056367 
L 194.243519 -25.9889 
L 185.700182 -27.621207 
L 183.600616 -26.843162 
L 182.80129 -25.325417 
L 184.008568 -24.232019 
L 183.451408 -23.593031 
L 183.582851 -23.058587 
L 185.622619 -22.653335 
L 183.868836 -21.25174 
L 184.966578 -19.772026 
L 184.076066 -17.822777 
L 185.845839 -16.693417 
L 186.045965 -15.293097 
L 187.349757 -15.204793 
L 187.988629 -15.689278 
L 187.669491 -14.192057 
L 188.011722 -13.473202 
L 189.927145 -13.441858 
L 191.848492 -12.18203 
L 191.479616 -11.487523 
L 188.809862 -10.727299 
L 187.160882 -9.406052 
L 186.866608 -8.792207 
L 187.598436 -7.238666 
L 186.963712 -5.492918 
L 187.837055 -4.928718 
L 185.891429 -3.756401 
L 183.213385 -0.549708 
L 183.743901 0.585693 
L 180.455406 2.192698 
L 179.667922 4.598752 
L 177.93486 7.60942 
L 174.636305 9.336707 
L 173.463956 11.882459 
L 172.079638 13.226133 
L 171.88543 14.309192 
L 165.911197 15.899329 
L 165.216962 15.65494 
L 164.211586 13.962655 
L 163.10615 13.990335 
L 158.480114 19.445557 
L 158.306626 21.849702 
L 160.090607 22.803402 
L 162.052812 23.112393 
L 161.517558 26.497924 
L 162.575038 28.17684 
L 164.893086 28.381455 
L 164.896644 30.092522 
L 166.008593 31.528958 
L 167.241926 34.489347 
L 166.617268 35.093167 
L 167.294626 36.21648 
L 165.475116 37.267394 
L 164.496975 37.104469 
L 164.131657 36.075981 
L 161.775712 36.815047 
L 160.987042 37.67519 
L 159.512134 37.654505 
L 158.64412 36.988318 
L 155.204348 37.108607 
L 154.869519 36.718466 
L 154.49472 37.236525 
L 153.970717 36.653236 
L 153.839864 38.907017 
L 151.582502 38.898427 
L 150.738079 39.664877 
L 150.591684 39.276996 
L 150.543664 40.573679 
L 150.049011 40.397526 
L 150.275124 39.827242 
L 149.76695 39.066525 
L 149.76695 40.117896 
L 148.860157 39.234901 
L 148.72542 39.865575 
L 147.613963 39.913435 
L 147.68669 39.104858 
L 147.481093 39.615761 
L 146.702042 39.360689 
L 147.0573 39.066525 
L 146.545392 38.768347 
L 147.014408 38.25995 
L 145.988735 38.256194 
L 145.681032 37.54559 
L 145.598977 36.663094 
L 146.037218 36.574642 
L 145.516923 36.419796 
L 145.012473 35.05747 
L 145.407828 35.05747 
L 144.817594 34.781848 
L 145.424608 34.086528 
L 143.760687 33.497949 
L 141.979274 33.525007 
L 142.454816 31.419502 
L 141.370393 30.283189 
L 141.273884 29.344065 
L 140.382948 28.681819 
L 139.400162 28.881773 
L 138.772639 29.610666 
L 140.159162 29.127079 
L 141.051501 29.572585 
L 141.086934 30.08073 
L 139.674299 29.622698 
L 136.23875 30.413484 
L 134.767841 30.119069 
L 133.392501 30.711404 
L 131.038573 30.539266 
L 130.52667 31.514216 
L 130.013364 30.870512 
L 129.290731 31.09001 
L 127.315372 30.46635 
L 127.253832 29.906836 
L 127.663635 29.782558 
L 127.034245 29.76151 
L 126.639824 29.992782 
L 127.1163 30.412979 
L 124.325059 30.287198 
L 123.734831 30.753499 
L 123.91246 31.342078 
L 118.338159 30.907841 
L 117.281934 31.577359 
L 117.499299 31.995426 
L 116.783208 31.92735 
L 117.02052 31.394654 
L 116.148094 31.189732 
L 115.654243 31.539347 
L 115.873029 31.875033 
L 113.766937 32.400548 
L 114.073432 31.37716 
L 112.957311 31.29021 
L 113.370494 27.79816 
L 113.90989 27.485357 
L 114.359291 24.988929 
L 116.025737 24.073729 
L 116.835134 24.153923 
L 116.98908 23.290277 
L 117.713805 22.914146 
L 119.63337 22.410084 
L 121.854909 22.5256 
L 122.131127 21.167123 
L 122.544109 21.008649 
L 122.370628 19.813418 
L 122.876275 19.496477 
L 122.059779 18.627417 
L 120.428852 18.904271 
L 119.569132 18.57587 
L 119.983598 17.170931 
L 119.678966 12.5434 
L 118.614085 12.650639 
L 117.394661 11.481499 
L 114.702112 10.719686 
L 112.832869 8.697565 
L 111.520197 5.597638 
z
" clip-path="url(#p2f208fc4e6)" style="fill: #eeeeee; stroke: #000000; stroke-width: 0.3"/>
    <path d="M 146.197128 38.389242 
L 146.741204 38.393756 
L 146.406461 38.646322 
z
" clip-path="url(#p2f208fc4e6)" style="fill: #eeeeee; stroke: #000000; stroke-width: 0.3"/>
    <path d="M 26.70471 7.313471 
L 28.543756 5.165501 
L 30.212276 1.724598 
L 33.245579 1.140348 
L 34.814337 1.781824 
L 36.124809 4.565992 
L 34.914718 4.354271 
L 33.42055 5.663842 
L 35.686597 5.748076 
L 36.019971 7.796657 
L 37.366867 9.483216 
L 37.127699 10.116642 
L 37.591531 10.732741 
L 33.210942 10.775692 
L 31.870141 7.936386 
z
" clip-path="url(#p2f208fc4e6)" style="fill: #eeeeee; stroke: #000000; stroke-width: 0.3"/>
    <path d="M 35.376127 2.973766 
L 36.243288 2.204779 
L 35.804577 1.859746 
L 36.193401 1.846469 
L 37.132826 3.532276 
L 36.424183 4.208802 
L 36.038154 4.025389 
z
" clip-path="url(#p2f208fc4e6)" style="fill: #eeeeee; stroke: #000000; stroke-width: 0.3"/>
    <path d="M 36.654638 5.2571 
L 37.340761 5.286738 
L 37.388585 5.516889 
z
" clip-path="url(#p2f208fc4e6)" style="fill: #eeeeee; stroke: #000000; stroke-width: 0.3"/>
    <path d="M 35.173789 1.865509 
L 35.73791 1.572849 
L 35.290343 1.92364 
z
" clip-path="url(#p2f208fc4e6)" style="fill: #eeeeee; stroke: #000000; stroke-width: 0.3"/>
    <path d="M 106.681597 -23.742595 
L 107.546054 -24.77474 
L 108.959978 -24.850316 
L 107.866973 -26.066391 
L 109.286816 -26.815156 
L 109.962392 -27.903467 
L 110.431334 -29.673077 
L 110.174366 -30.624868 
L 110.659291 -30.894086 
L 111.132375 -32.853039 
L 113.051946 -31.695993 
L 115.359041 -31.747227 
L 116.655139 -30.853351 
L 116.955922 -29.910471 
L 117.79048 -30.772522 
L 119.289959 -30.573954 
L 121.504687 -31.735773 
L 121.484263 -32.891224 
L 122.273523 -33.350413 
L 121.641463 -34.318436 
L 123.509818 -34.408175 
L 126.142862 -35.384788 
L 127.032486 -35.19449 
L 127.102058 -35.850338 
L 129.510696 -36.875002 
L 131.235468 -40.981297 
L 131.235468 -42.087109 
L 132.864322 -42.796414 
L 135.578481 -42.943434 
L 136.865104 -44.921797 
L 139.918538 -43.399759 
L 143.994517 -43.727206 
L 145.445146 -42.500311 
L 146.843081 -43.096495 
L 148.237762 -42.772866 
L 148.389336 -42.037464 
L 149.805334 -40.902537 
L 153.521317 -43.073901 
L 154.389331 -42.905249 
L 154.477848 -43.387031 
L 154.936129 -43.078674 
L 154.775967 -43.442397 
L 157.20622 -42.083605 
L 157.951368 -42.73723 
L 157.58605 -44.053698 
L 158.332383 -44.925455 
L 160.682112 -45.160465 
L 162.051626 -44.694274 
L 162.768949 -45.700476 
L 162.133337 -47.186084 
L 162.645497 -47.144234 
L 163.84153 -48.260232 
L 164.956149 -50.01457 
L 166.593883 -50.431116 
L 168.92792 -49.065323 
L 168.355658 -47.065321 
L 170.30039 -46.89221 
L 169.345938 -41.772705 
L 170.617162 -39.432842 
L 171.668724 -39.507624 
L 174.093352 -41.15886 
L 176.372913 -41.537701 
L 177.134944 -42.716546 
L 180.03147 -44.223305 
L 182.650306 -43.998166 
L 182.568005 -43.443671 
L 181.755646 -42.972388 
L 182.39689 -42.696496 
L 185.870708 -43.989102 
L 187.845934 -43.786236 
L 189.174596 -42.783371 
L 188.611511 -42.67756 
L 188.195859 -43.19387 
L 186.172676 -42.388939 
L 187.141341 -41.127676 
L 186.320108 -41.323381 
L 184.264947 -40.22457 
L 182.761618 -40.695219 
L 179.432861 -40.602937 
L 173.828684 -39.675648 
L 171.305772 -38.158377 
L 171.359652 -37.644136 
L 170.373221 -38.022183 
L 170.074805 -37.221224 
L 168.154048 -35.974445 
L 167.855339 -35.368556 
L 168.917855 -34.790033 
L 169.828492 -33.364096 
L 169.698825 -32.797987 
L 170.276117 -32.427263 
L 170.433025 -31.569977 
L 169.911389 -30.897263 
L 170.530719 -30.212461 
L 169.566196 -28.734649 
L 167.337845 -27.03027 
L 167.253178 -26.325418 
L 166.6297 -26.162492 
L 167.575278 -25.083731 
L 167.234823 -23.220558 
L 164.137575 -22.509024 
L 160.417444 -22.992555 
L 160.271788 -22.436626 
L 160.903853 -21.363592 
L 161.823967 -21.140842 
L 162.035047 -19.848236 
L 162.83408 -18.692625 
L 161.117007 -17.512671 
L 158.212484 -16.903285 
L 158.15268 -15.846958 
L 157.574208 -15.323806 
L 157.859002 -14.604631 
L 156.752379 -13.419745 
L 157.130433 -10.186961 
L 155.648123 -8.557683 
L 154.294593 -8.123311 
L 153.560989 -9.183296 
L 152.088447 -9.23453 
L 152.839226 -9.052828 
L 152.542586 -8.878763 
L 150.483282 -9.491019 
L 149.495076 -8.342883 
L 147.220246 -7.675582 
L 147.463597 -6.942403 
L 148.373942 -6.843119 
L 148.341672 -6.469851 
L 145.943987 -5.69212 
L 144.162671 -5.865551 
L 143.635707 -6.350837 
L 142.224744 -5.618613 
L 141.382784 -4.270955 
L 140.330042 -3.937782 
L 139.766958 -1.958144 
L 139.980708 0.237882 
L 139.488082 1.388881 
L 140.18261 2.012585 
L 139.352492 2.759126 
L 132.711264 4.576793 
L 129.510696 4.390793 
L 127.762831 4.920786 
L 127.267249 5.522382 
L 124.30263 4.839643 
L 118.051888 5.391748 
L 108.695906 2.618474 
L 114.183437 -3.470957 
L 114.32199 -4.504851 
L 113.522658 -6.710742 
L 108.566233 -7.458873 
L 108.298019 -10.738118 
L 108.615381 -12.103271 
L 107.083631 -17.087375 
L 107.110276 -17.660165 
L 109.134055 -19.894377 
L 106.790543 -20.659694 
z
" clip-path="url(#p2f208fc4e6)" style="fill: #eeeeee; stroke: #000000; stroke-width: 0.3"/>
    <path d="M 4.234277 92.613698 
L 4.649678 92.595908 
L 4.820312 91.858246 
L 5.293052 92.824927 
L 4.702824 89.790323 
L 5.521502 88.477106 
L 5.261818 85.671521 
L 6.675628 84.653335 
L 6.954503 83.814191 
L 7.498934 83.863196 
L 7.679526 83.048874 
L 7.113181 82.351978 
L 7.14634 81.26685 
L 7.892084 80.246639 
L 7.413374 79.790954 
L 8.204118 78.971219 
L 9.351598 78.636137 
L 11.710504 79.939242 
L 13.050411 79.305033 
L 18.87307 79.159922 
L 20.391202 79.876555 
L 25.502754 80.418161 
L 27.722517 80.102168 
L 29.213414 82.063671 
L 30.307605 82.121586 
L 31.832841 81.232483 
L 32.757691 78.945128 
L 36.03997 74.723003 
L 41.046426 72.070171 
L 57.905137 69.508986 
L 62.160819 79.961836 
L 62.619689 80.151173 
L 64.274077 84 
L 61.07863 85.201709 
L 59.704688 86.33126 
L 58.918647 88.055154 
L 59.335909 90.319767 
L 54.40614 92.699145 
L 49.743978 93.814662 
L 47.598449 95.078517 
L 46.238497 95.106579 
L 42.974516 96.270208 
L 41.372599 97.072016 
L 40.862094 98.271731 
L 39.098394 100.003137 
L 36.193401 100.461673 
L 35.208752 99.918946 
L 31.664578 102.397041 
L 27.668637 103.779664 
L 21.739765 104.323647 
L 20.234351 105.997674 
L 18.602599 106.665185 
L 18.261324 107.894962 
L 17.807232 107.770178 
L 18.012365 107.299616 
L 17.189964 107.639384 
L 17.245906 108.092908 
L 15.694804 107.540661 
L 14.577286 108.460738 
L 11.889084 108.904742 
L 9.908598 107.93029 
L 9.149128 108.376049 
L 9.1785 107.374034 
L 7.764467 104.681452 
L 8.077298 101.982861 
L 6.234814 97.109604 
L 6.591001 97.549347 
L 5.801231 94.829953 
L 6.156489 95.274961 
L 6.108464 94.431057 
L 5.688871 93.27369 
z
" clip-path="url(#p2f208fc4e6)" style="fill: #eeeeee; stroke: #000000; stroke-width: 0.3"/>
    <path d="M 65.514674 109.241253 
L 66.729486 108.188565 
L 68.60373 108.901318 
L 70.169377 108.270059 
L 72.580651 109.199157 
L 70.290273 110.423928 
L 67.94526 110.73755 
z
" clip-path="url(#p2f208fc4e6)" style="fill: #eeeeee; stroke: #000000; stroke-width: 0.3"/>
    <path d="M 3.941028 91.693873 
L 4.382535 91.37014 
L 4.070638 91.70239 
L 3.995109 92.4581 
z
" clip-path="url(#p2f208fc4e6)" style="fill: #eeeeee; stroke: #000000; stroke-width: 0.3"/>
    <path d="M 65.263641 111.880119 
L 65.400034 111.803342 
L 65.533992 111.90121 
z
" clip-path="url(#p2f208fc4e6)" style="fill: #eeeeee; stroke: #000000; stroke-width: 0.3"/>
    <path d="M 63.672099 111.585414 
L 63.77916 111.497879 
L 64.251362 111.760194 
z
" clip-path="url(#p2f208fc4e6)" style="fill: #eeeeee; stroke: #000000; stroke-width: 0.3"/>
    <path d="M 58.394972 111.137451 
L 58.706147 111.100036 
L 60.253106 111.670756 
z
" clip-path="url(#p2f208fc4e6)" style="fill: #eeeeee; stroke: #000000; stroke-width: 0.3"/>
    <path d="M 8.702959 108.484292 
L 9.040034 108.566476 
L 8.96451 108.694763 
z
" clip-path="url(#p2f208fc4e6)" style="fill: #eeeeee; stroke: #000000; stroke-width: 0.3"/>
    <path d="M 4.702824 100.190559 
L 5.332215 100.129171 
L 5.217528 100.764359 
z
" clip-path="url(#p2f208fc4e6)" style="fill: #eeeeee; stroke: #000000; stroke-width: 0.3"/>
    <path d="M 4.683243 102.342168 
L 4.712151 102.123926 
L 5.293052 101.688445 
z
" clip-path="url(#p2f208fc4e6)" style="fill: #eeeeee; stroke: #000000; stroke-width: 0.3"/>
    <path d="M 49.141628 25.381619 
L 49.328114 24.882995 
L 49.968693 24.907546 
L 49.729994 25.180662 
L 50.268817 25.479265 
L 49.808319 27.672791 
z
" clip-path="url(#p2f208fc4e6)" style="fill: #eeeeee; stroke: #000000; stroke-width: 0.3"/>
    <path d="M 51.201613 28.445473 
L 51.266871 28.355844 
L 51.248745 28.414295 
z
" clip-path="url(#p2f208fc4e6)" style="fill: #eeeeee; stroke: #000000; stroke-width: 0.3"/>
    <path d="M 51.100098 28.652015 
L 51.248745 28.566279 
L 51.21974 28.644219 
z
" clip-path="url(#p2f208fc4e6)" style="fill: #eeeeee; stroke: #000000; stroke-width: 0.3"/>
    <path d="M 51.042093 27.946658 
L 51.096477 27.884309 
L 51.103724 27.923276 
z
" clip-path="url(#p2f208fc4e6)" style="fill: #eeeeee; stroke: #000000; stroke-width: 0.3"/>
    <path d="M 50.817315 28.383118 
L 51.158108 28.032394 
L 50.904325 28.963771 
z
" clip-path="url(#p2f208fc4e6)" style="fill: #eeeeee; stroke: #000000; stroke-width: 0.3"/>
    <path d="M 50.078183 24.890981 
L 50.324158 24.672856 
L 50.459445 25.095892 
z
" clip-path="url(#p2f208fc4e6)" style="fill: #eeeeee; stroke: #000000; stroke-width: 0.3"/>
    <path d="M 48.780669 25.618076 
L 48.971297 25.35368 
L 48.995897 25.637905 
z
" clip-path="url(#p2f208fc4e6)" style="fill: #eeeeee; stroke: #000000; stroke-width: 0.3"/>
   </g>
   <g id="PatchCollection_2">
    <path d="M 57.905137 69.508986 
L 75.090387 63.352416 
L 78.866769 51.137907 
L 76.284643 46.675844 
L 76.508453 44.103847 
L 78.298357 40.108609 
L 77.831196 38.919425 
L 80.93081 38.19214 
L 80.560159 37.333426 
L 79.543531 37.274236 
L 79.965697 33.020132 
L 80.975215 32.804538 
L 81.110806 33.389582 
L 80.700487 33.343441 
L 81.511064 34.194199 
L 83.139047 32.668824 
L 84.444455 35.636276 
L 87.540134 38.978572 
L 94.218215 41.02695 
L 95.747404 40.866586 
L 96.766552 41.512544 
L 101.084644 47.55068 
L 102.855333 47.874912 
L 102.780274 49.546691 
L 100.101863 54.427713 
L 98.441202 55.460043 
L 96.298469 58.223286 
L 96.571673 58.60164 
L 95.791224 59.358847 
L 95.37163 60.757511 
L 94.954833 61.115815 
L 93.563177 60.831923 
L 93.914241 59.70563 
L 93.579498 59.547273 
L 91.576629 61.719179 
L 90.620424 64.998086 
L 91.34492 69.532824 
L 87.860887 70.03646 
L 85.570836 71.048746 
L 84.616023 72.196087 
L 84.158665 74.721045 
L 82.984265 76.009451 
L 77.764507 76.619078 
L 76.521578 78.48028 
L 76.937442 79.231231 
L 76.705268 80.355264 
L 75.368157 81.72937 
L 74.021724 82.097201 
L 72.877166 81.560989 
L 69.972172 81.72937 
L 67.282103 83.288891 
L 64.274077 84 
L 62.619689 80.151173 
L 62.160819 79.961836 
z
" clip-path="url(#p2f208fc4e6)" style="fill: #ff6b6b; stroke: #dd0000; stroke-width: 0.5"/>
    <path d="M 81.386507 26.000852 
L 82.136221 24.756708 
L 82.159996 25.096976 
L 83.258403 25.054381 
L 82.710133 25.012785 
L 83.027157 24 
L 83.813197 24.167877 
L 83.226699 24.722125 
L 83.734872 24.928594 
L 83.417848 25.012785 
L 83.69198 25.47884 
L 82.826687 25.312459 
L 82.867711 25.689311 
L 83.652818 25.769493 
L 83.12087 26.141332 
L 83.539994 26.702102 
L 83.140915 26.831892 
L 82.541779 28.670932 
L 81.774546 28.403735 
L 81.994214 26.287262 
z
" clip-path="url(#p2f208fc4e6)" style="fill: #ff6b6b; stroke: #dd0000; stroke-width: 0.5"/>
    <path d="M 96.114315 61.052924 
L 97.592689 59.026099 
L 97.84351 60.190226 
L 96.137162 62.274431 
z
" clip-path="url(#p2f208fc4e6)" style="fill: #ff6b6b; stroke: #dd0000; stroke-width: 0.5"/>
    <path d="M 82.136863 30.962117 
L 82.436196 30.495957 
L 82.915988 30.893432 
L 82.20322 31.209147 
z
M 82.461689 30.803237 
L 82.564259 30.961489 
L 82.594903 30.860191 
z
" clip-path="url(#p2f208fc4e6)" style="fill: #ff6b6b; stroke: #dd0000; stroke-width: 0.5"/>
    <path d="M 80.738034 78.596295 
L 81.490509 78.60281 
L 80.787457 78.729097 
z
" clip-path="url(#p2f208fc4e6)" style="fill: #ff6b6b; stroke: #dd0000; stroke-width: 0.5"/>
    <path d="M 80.158061 78.60281 
L 80.317976 78.690758 
L 80.231723 78.744128 
z
" clip-path="url(#p2f208fc4e6)" style="fill: #ff6b6b; stroke: #dd0000; stroke-width: 0.5"/>
   </g>
  </g>
 </g>
 <defs>
  <clipPath id="p2f208fc4e6">
   <rect x="0" y="0" width="160.76047" height="108"/>
  </clipPath>
 </defs>
</svg>
