<?xml version="1.0" encoding="utf-8" standalone="no"?>
<!DOCTYPE svg PUBLIC "-//W3C//DTD SVG 1.1//EN"
  "http://www.w3.org/Graphics/SVG/1.1/DTD/svg11.dtd">
<svg xmlns:xlink="http://www.w3.org/1999/xlink" width="146.738881pt" height="108pt" viewBox="0 0 146.738881 108" xmlns="http://www.w3.org/2000/svg" version="1.1">
 <metadata>
  <rdf:RDF xmlns:dc="http://purl.org/dc/elements/1.1/" xmlns:cc="http://creativecommons.org/ns#" xmlns:rdf="http://www.w3.org/1999/02/22-rdf-syntax-ns#">
   <cc:Work>
    <dc:type rdf:resource="http://purl.org/dc/dcmitype/StillImage"/>
    <dc:date>2025-09-05T15:49:29.704416</dc:date>
    <dc:format>image/svg+xml</dc:format>
    <dc:creator>
     <cc:Agent>
      <dc:title>Matplotlib v3.10.3, https://matplotlib.org/</dc:title>
     </cc:Agent>
    </dc:creator>
   </cc:Work>
  </rdf:RDF>
 </metadata>
 <defs>
  <style type="text/css">*{stroke-linejoin: round; stroke-linecap: butt}</style>
 </defs>
 <g id="figure_1">
  <g id="patch_1">
   <path d="M 0 108 
L 146.738881 108 
L 146.738881 0 
L 0 0 
z
" style="fill: #ffffff"/>
  </g>
  <g id="axes_1">
   <g id="PatchCollection_1">
    <path d="M 62.657597 67.279285 
L 67.870341 60.727861 
L 66.602602 59.863664 
L 70.511487 52.512425 
L 74.502948 35.303744 
L 76.455264 34.42211 
L 77.079832 29.848387 
L 83.526602 29.852477 
L 84.701532 25.989328 
L 85.622552 26.805882 
L 89.303177 23.48143 
L 88.413669 26.15532 
L 90.437837 32.694415 
L 88.227188 36.696462 
L 84.888877 38.760272 
L 84.895891 43.871434 
L 78.623778 40.73927 
L 76.149596 42.885796 
L 74.73829 47.525277 
L 76.052907 53.369699 
L 75.009735 54.871429 
L 78.546115 55.362742 
L 79.153589 53.957435 
L 79.844621 56.562095 
L 74.944898 58.921399 
L 73.339233 64.258865 
L 78.186029 64.270198 
L 83.160637 61.689618 
L 82.096032 66.356931 
L 82.820949 69.428265 
L 77.764037 82.86627 
L 77.853338 88.987291 
L 73.881141 101.625162 
z
" clip-path="url(#pd179e79107)" style="fill: #eeeeee; stroke: #000000; stroke-width: 0.3"/>
    <path d="M 73.339233 64.258865 
L 74.944898 58.921399 
L 79.844621 56.562095 
L 79.153589 53.957435 
L 78.546115 55.362742 
L 75.009735 54.871429 
L 76.052907 53.369699 
L 74.684278 47.826976 
L 76.482287 42.306898 
L 78.926701 40.720715 
L 84.895891 43.871434 
L 84.869614 56.228435 
L 83.164144 61.690655 
L 78.186029 64.270198 
z
" clip-path="url(#pd179e79107)" style="fill: #eeeeee; stroke: #000000; stroke-width: 0.3"/>
    <path d="M 61.842989 65.227965 
L 66.602602 59.863664 
L 67.870341 60.727861 
L 62.657597 67.279285 
z
" clip-path="url(#pd179e79107)" style="fill: #eeeeee; stroke: #000000; stroke-width: 0.3"/>
    <path d="M 77.174962 29.819977 
L 83.362789 13.598431 
L 86.249882 11.656601 
L 86.662116 5.433271 
L 92.04889 0.898512 
L 91.824153 -1.320177 
L 96.765978 -0.869145 
L 97.567929 -2.072309 
L 99.791725 -0.911401 
L 97.753546 1.387711 
L 101.231053 3.206901 
L 102.568814 7.672669 
L 97.222989 12.712168 
L 98.595786 14.896841 
L 93.188665 15.307192 
L 91.005158 18.821339 
L 92.931265 20.267825 
L 85.622552 26.805882 
L 84.701532 25.989328 
L 83.526602 29.852477 
z
" clip-path="url(#pd179e79107)" style="fill: #eeeeee; stroke: #000000; stroke-width: 0.3"/>
    <path d="M 87.647923 -19.919481 
L 89.629193 -23.218655 
L 88.921897 -25.257925 
L 91.999724 -26.797642 
L 95.004463 -24.717094 
L 95.669845 -27.293544 
L 98.399665 -28.136912 
L 98.653559 -32.79804 
L 103.587911 -32.825872 
L 101.334349 -37.813837 
L 103.174661 -44.778207 
L 108.67808 -43.296667 
L 110.175198 -40.62535 
L 116.834285 -40.90991 
L 130.017634 -46.38037 
L 134.349629 -45.329791 
L 138.50126 -42.101742 
L 147.219533 -41.450163 
L 156.125169 -43.063659 
L 172.113629 -50.212595 
L 185.172657 -49.715656 
L 194.143062 -51.711652 
L 197.564541 -54.690194 
L 199.860103 -52.991627 
L 200.376666 -49.44965 
L 191.339696 -40.584111 
L 183.573972 -38.559246 
L 181.737166 -35.335326 
L 181.054283 -29.460699 
L 183.202772 -21.378736 
L 180.455433 -13.154481 
L 180.504463 -4.178634 
L 176.456128 3.627548 
L 171.800201 5.031259 
L 139.339993 24.180452 
L 106.216164 45.226685 
L 98.905707 43.97917 
L 88.227188 36.696462 
L 90.437837 32.694415 
L 88.33311 24.924305 
L 92.931265 20.267825 
L 91.005158 18.821339 
L 91.460425 17.446497 
L 94.677024 14.625188 
L 98.390906 15.160792 
L 97.222989 12.712168 
L 102.568814 7.672669 
L 101.231053 3.206901 
L 97.753546 1.387711 
L 99.791725 -0.911401 
L 97.567929 -2.072309 
L 96.765978 -0.869145 
L 91.824153 -1.320177 
L 90.078666 -6.794168 
L 91.697308 -12.255191 
L 90.961058 -16.638961 
z
" clip-path="url(#pd179e79107)" style="fill: #eeeeee; stroke: #000000; stroke-width: 0.3"/>
    <path d="M 139.339993 24.180452 
L 171.800201 5.031259 
L 176.456128 3.627548 
L 180.504463 -4.178634 
L 180.455433 -13.154481 
L 183.202772 -21.378736 
L 181.054283 -29.460699 
L 181.737166 -35.335326 
L 183.573972 -38.559246 
L 191.339696 -40.584111 
L 200.038706 -50.402289 
L 203.495205 -51.133273 
L 206.111209 -55.296425 
L 212.873608 -55.612429 
L 224.641263 -52.192092 
L 229.361977 -54.415948 
L 231.851915 -52.931834 
L 230.920374 -49.955866 
L 232.6959 -47.592831 
L 238.209823 -51.766298 
L 242.904277 -48.525879 
L 241.953489 -44.05652 
L 245.590319 -41.585211 
L 244.666673 -38.905655 
L 246.231203 -36.493122 
L 248.859455 -36.297243 
L 250.239249 -28.137929 
L 253.961026 -28.136912 
L 257.502439 -24.486161 
L 262.778225 -25.408894 
L 267.295837 -24.336648 
L 261.818678 -21.758143 
L 261.144537 -18.165111 
L 263.790308 -14.660761 
L 264.313868 -10.532663 
L 260.283915 -10.048093 
L 259.216668 -6.446821 
L 256.108634 -4.453897 
L 255.441507 -2.736277 
L 256.697844 0.646432 
L 253.294764 -0.159807 
L 253.342049 1.785673 
L 251.878206 2.779551 
L 254.258698 5.420962 
L 254.038062 8.861908 
L 251.256585 12.172454 
L 253.042615 12.868883 
L 257.257304 19.962136 
L 259.822533 19.008459 
L 260.533438 20.605475 
L 259.256957 21.732866 
L 261.321395 21.804011 
L 264.385652 26.404309 
L 264.587025 28.237425 
L 262.267812 29.487494 
L 263.794696 30.365397 
L 263.398083 32.507294 
L 269.87506 33.754789 
L 280.231409 42.079058 
L 283.191488 41.876974 
L 285.656911 43.660592 
L 287.020949 48.581542 
L 292.834289 55.423233 
L 290.199022 63.360872 
L 290.097472 71.60368 
L 295.846025 71.716044 
L 295.868795 82.194061 
L 300.818024 85.207657 
L 303.315823 91.420434 
L 305.113543 92.514246 
L 297.657282 90.551309 
L 295.113502 91.367982 
L 294.819829 89.686733 
L 294.534423 89.312492 
L 294.757787 91.567692 
L 290.11848 89.489378 
L 282.035821 90.765762 
L 276.213722 102.530458 
L 270.775089 109.48966 
L 239.591379 107.37304 
L 195.26371 69.904595 
L 167.28784 53.132362 
L 145.640128 49.189828 
L 148.107296 46.668522 
L 147.154747 44.507053 
L 143.647473 44.996251 
L 142.791239 42.070798 
L 144.129 41.639338 
z
" clip-path="url(#pd179e79107)" style="fill: #eeeeee; stroke: #000000; stroke-width: 0.3"/>
    <path d="M 68.153833 129.100798 
L 72.067614 120.834029 
L 74.534545 104.383385 
L 93.510852 107.409112 
L 100.416835 101.531931 
L 104.680538 94.371144 
L 117.242266 91.557557 
L 120.247005 84.847841 
L 125.90275 81.497114 
L 108.590541 61.701987 
L 142.540836 51.660099 
L 145.832742 49.125905 
L 166.375579 52.774601 
L 195.26371 69.904595 
L 239.591379 107.37304 
L 286.040378 111.505268 
L 290.016048 120.706901 
L 304.018833 121.372386 
L 303.58039 123.627585 
L 304.710949 123.218431 
L 306.686696 130.431349 
L 309.056769 131.210695 
L 308.237791 132.122355 
L 310.592684 134.807797 
L 310.45481 135.941093 
L 309.856434 136.765886 
L 309.404217 134.770469 
L 308.833406 136.946104 
L 310.549956 137.584196 
L 309.730978 139.081976 
L 316.642637 140.426333 
L 317.879372 142.351124 
L 314.610354 142.500497 
L 317.050737 143.044401 
L 316.365499 144.692372 
L 317.879372 144.419602 
L 318.0462 147.197617 
L 319.566952 147.231713 
L 318.931354 148.327641 
L 322.273426 147.428171 
L 324.431182 152.135027 
L 332.207308 157.988166 
L 329.32711 156.799666 
L 330.041302 161.384762 
L 333.191726 164.790295 
L 331.917769 170.53546 
L 330.071628 167.241133 
L 329.353303 171.217384 
L 331.239426 171.462542 
L 333.885248 178.596714 
L 331.974304 176.572867 
L 332.041852 177.240985 
L 337.511354 182.481211 
L 339.047268 190.109768 
L 346.106984 199.828092 
L 351.018922 198.695435 
L 351.588344 200.836993 
L 353.161498 198.55905 
L 354.907003 199.512108 
L 351.188512 205.01455 
L 356.11065 206.043921 
L 356.520224 209.592123 
L 372.868516 232.331257 
L 416.016866 238.668267 
L 417.398422 237.019698 
L 425.034573 251.47632 
L 413.866633 291.050073 
L 363.044486 310.996727 
L 313.188019 319.2947 
L 298.382368 327.889604 
L 288.675645 341.568856 
L 285.940572 348.979649 
L 281.429973 351.860251 
L 278.194111 351.672612 
L 273.785063 345.317546 
L 267.22053 346.341331 
L 252.104077 344.586582 
L 247.614486 342.264766 
L 230.395069 342.734911 
L 226.432545 344.789683 
L 217.923523 340.437855 
L 213.72459 344.309243 
L 215.200699 345.385599 
L 212.934887 349.090995 
L 212.836827 352.606698 
L 214.511683 354.86457 
L 213.977619 357.502888 
L 212.367566 357.344118 
L 211.542845 360.062859 
L 207.361769 363.361674 
L 206.056096 356.186104 
L 200.029591 347.17181 
L 200.13575 350.316744 
L 199.094797 341.761922 
L 190.38801 334.181246 
L 185.402459 326.392781 
L 184.427698 321.48458 
L 180.605811 316.936035 
L 181.263467 314.218093 
L 179.356657 312.176389 
L 180.034999 309.565623 
L 178.206783 308.407987 
L 176.106953 300.820828 
L 172.985466 298.765338 
L 172.722136 295.407707 
L 171.226188 295.756769 
L 169.158072 291.720466 
L 161.522565 285.387565 
L 158.460375 284.808747 
L 159.097345 285.787782 
L 156.037917 283.959593 
L 146.113692 268.835611 
L 144.528137 264.722995 
L 146.058546 262.945143 
L 145.007936 256.088608 
L 141.995539 250.935588 
L 143.256688 251.016749 
L 145.57873 243.012015 
L 144.350517 243.758122 
L 143.381009 235.758516 
L 139.76456 231.132023 
L 139.743874 228.12102 
L 133.886959 215.464137 
L 125.1224 208.381458 
L 125.336361 207.023993 
L 123.94176 208.164371 
L 116.551115 203.826648 
L 117.013057 202.351433 
L 111.793925 194.176098 
L 113.623514 193.772629 
L 113.37948 187.706812 
L 108.196774 178.312572 
L 104.232878 175.642532 
L 104.126719 170.808229 
L 101.020396 169.038478 
L 92.876136 153.161146 
L 78.16353 131.164408 
L 79.056952 130.265736 
L 76.271883 128.965232 
L 72.086013 129.93046 
L 70.465981 128.556077 
L 69.413999 129.373568 
L 69.772475 129.93046 
L 68.836309 130.747952 
z
" clip-path="url(#pd179e79107)" style="fill: #eeeeee; stroke: #000000; stroke-width: 0.3"/>
    <path d="M 189.870889 352.879148 
L 192.379293 355.847675 
L 194.579167 356.482276 
L 195.039906 354.51866 
L 197.145005 356.686674 
L 197.011519 359.121611 
L 195.439196 356.926145 
L 193.231715 357.393198 
z
" clip-path="url(#pd179e79107)" style="fill: #eeeeee; stroke: #000000; stroke-width: 0.3"/>
    <path d="M 191.190453 352.972978 
L 192.774619 351.711437 
L 191.380713 350.862283 
L 191.62888 350.539995 
L 192.938703 351.352619 
L 194.017623 355.580212 
z
" clip-path="url(#pd179e79107)" style="fill: #eeeeee; stroke: #000000; stroke-width: 0.3"/>
    <path d="M 100.660547 178.333681 
L 101.544311 177.180913 
L 101.330605 178.343417 
L 103.645531 180.235747 
L 101.47263 179.4491 
z
" clip-path="url(#pd179e79107)" style="fill: #eeeeee; stroke: #000000; stroke-width: 0.3"/>
    <path d="M 108.370498 182.38784 
L 108.460121 181.876417 
L 109.263919 181.83825 
L 109.731316 182.831909 
z
" clip-path="url(#pd179e79107)" style="fill: #eeeeee; stroke: #000000; stroke-width: 0.3"/>
    <path d="M 103.878535 180.161869 
L 104.627204 179.928063 
L 107.228892 182.358632 
L 104.519656 180.118037 
z
" clip-path="url(#pd179e79107)" style="fill: #eeeeee; stroke: #000000; stroke-width: 0.3"/>
    <path d="M 101.525014 175.204169 
L 101.795257 174.517377 
L 102.343993 174.035161 
L 102.687306 177.049396 
z
" clip-path="url(#pd179e79107)" style="fill: #eeeeee; stroke: #000000; stroke-width: 0.3"/>
    <path d="M 320.310098 145.509046 
L 322.494029 144.432591 
L 324.250563 144.963526 
z
" clip-path="url(#pd179e79107)" style="fill: #eeeeee; stroke: #000000; stroke-width: 0.3"/>
    <path d="M 107.551519 179.324087 
L 107.825896 179.100836 
L 107.974799 180.840542 
z
" clip-path="url(#pd179e79107)" style="fill: #eeeeee; stroke: #000000; stroke-width: 0.3"/>
    <path d="M 106.34511 180.286882 
L 106.587771 179.831461 
L 107.015185 180.080688 
z
" clip-path="url(#pd179e79107)" style="fill: #eeeeee; stroke: #000000; stroke-width: 0.3"/>
    <path d="M 105.4903 181.300033 
L 107.654917 183.340919 
L 107.577712 184.000917 
z
" clip-path="url(#pd179e79107)" style="fill: #eeeeee; stroke: #000000; stroke-width: 0.3"/>
    <path d="M 74.534545 104.383385 
L 77.853338 88.987291 
L 77.764037 82.86627 
L 82.820949 69.428265 
L 82.096032 66.356931 
L 84.869614 56.228435 
L 84.249773 50.392992 
L 85.756496 37.942341 
L 90.56741 37.316359 
L 93.45657 41.225894 
L 105.999035 45.301421 
L 139.339993 24.180452 
L 144.129 41.639338 
L 142.791239 42.070798 
L 143.647473 44.996251 
L 147.154747 44.507053 
L 148.107296 46.668522 
L 142.540836 51.660099 
L 108.590541 61.701987 
L 125.90275 81.497114 
L 120.247005 84.847841 
L 117.242266 91.557557 
L 104.680538 94.371144 
L 100.416835 101.531931 
L 92.612585 107.610158 
z
" clip-path="url(#pd179e79107)" style="fill: #eeeeee; stroke: #000000; stroke-width: 0.3"/>
    <path d="M -99.303215 87.802682 
L -95.592823 81.500206 
L -94.114985 75.785387 
L -96.587405 64.542389 
L -92.530311 59.257493 
L -91.471976 58.400479 
L -90.793633 60.894352 
L -87.21993 61.459363 
L -77.648675 59.196044 
L -54.711826 63.896416 
L -52.583042 67.044601 
L -48.956936 67.901875 
L -45.694831 66.703639 
L -44.440171 69.522234 
L -36.013266 69.83317 
L -25.784339 74.948363 
L -17.733836 72.361937 
L -8.139133 64.844606 
L -6.519118 67.172866 
L -4.426166 66.750723 
L -6.27783 65.94622 
L -4.018066 64.503644 
L -3.491389 61.56247 
L -3.14118 62.318253 
L -2.564863 62.652732 
L -3.182536 61.348157 
L -0.240296 62.243577 
L 7.181505 59.79192 
L -0.12448 63.469405 
L 3.123852 63.754345 
L 9.642557 61.659891 
L 7.251814 59.84062 
L 9.27444 59.369777 
L 17.057462 62.652732 
L 22.43734 60.812353 
L 23.090862 60.826159 
L 23.63133 61.104615 
L 27.946807 65.610944 
L 22.693775 60.88298 
L 22.167097 64.435452 
L 20.617392 65.818773 
L 23.319732 67.767106 
L 25.194827 67.172866 
L 24.839112 68.942598 
L 26.36952 70.433096 
L 29.368296 68.773753 
L 29.360028 66.205184 
L 28.073653 65.610944 
L 30.180379 66.082605 
L 34.757814 70.281269 
L 40.275566 68.397079 
L 35.858064 70.454185 
L 36.955535 70.72452 
L 40.272804 69.26734 
L 41.676368 70.37464 
L 42.597371 68.806233 
L 42.021054 69.48734 
L 40.736067 69.364741 
L 43.361203 67.578769 
L 43.766541 70.588953 
L 48.393617 68.397079 
L 49.970904 68.942598 
L 52.485747 69.158548 
L 61.842989 65.227965 
L 73.473024 101.622728 
L 70.929244 105.189824 
L 69.030702 116.667146 
L 65.39909 124.966256 
L 65.818219 131.838213 
L 62.077688 135.51083 
L 62.809804 136.765886 
L 54.440808 130.872166 
L 45.38244 119.990701 
L 44.522106 111.607976 
L 36.679787 102.303037 
L 34.35522 91.221043 
L 30.286537 99.579408 
L 34.413128 104.03542 
L 35.163169 111.94405 
L 38.236388 115.826112 
L 39.286998 119.800727 
L 50.900192 133.416376 
L 51.538551 135.515698 
L 49.529716 134.878424 
L 51.538551 138.40087 
L 49.917147 138.40087 
L 55.71202 146.462124 
L 55.684438 148.892673 
L 58.384017 153.365723 
L 57.573324 154.67355 
L 57.457508 158.21465 
L 67.709866 176.73848 
L 77.84114 201.175182 
L 83.758521 208.982122 
L 87.904968 211.487626 
L 88.819228 213.104175 
L 84.099039 211.611302 
L 83.589829 212.795014 
L 83.684027 221.189809 
L 84.668461 223.245319 
L 87.171953 232.45992 
L 90.402106 236.378912 
L 96.164451 238.379038 
L 99.785609 243.945362 
L 107.503726 249.737332 
L 107.304725 251.142261 
L 15.001748 251.149503 
L 15.956043 247.600821 
L 14.795123 246.528576 
L 11.832417 251.169095 
L -94.346109 251.149503 
L -94.346109 107.781317 
z
M 78.98527 235.370031 
L 85.914549 228.326735 
L 82.663709 231.538105 
z
M 71.623444 241.085948 
L 72.481864 238.948698 
L 73.053251 237.486451 
z
M 60.948568 247.229035 
L 70.005987 245.113113 
L 65.612441 246.084826 
z
" clip-path="url(#pd179e79107)" style="fill: #eeeeee; stroke: #000000; stroke-width: 0.3"/>
    <path d="M 66.743374 131.429876 
L 67.511323 131.186335 
L 68.961765 132.939827 
L 67.227306 132.739319 
z
" clip-path="url(#pd179e79107)" style="fill: #eeeeee; stroke: #000000; stroke-width: 0.3"/>
    <path d="M 56.985977 140.852526 
L 58.93277 141.286021 
L 59.318811 142.227728 
L 57.327901 141.432162 
z
" clip-path="url(#pd179e79107)" style="fill: #eeeeee; stroke: #000000; stroke-width: 0.3"/>
    <path d="M 40.402411 68.546452 
L 43.282609 66.703639 
L 45.633368 67.12253 
L 43.245387 66.973975 
z
" clip-path="url(#pd179e79107)" style="fill: #eeeeee; stroke: #000000; stroke-width: 0.3"/>
    <path d="M 70.000651 132.174766 
L 70.8496 132.20593 
L 70.388996 133.178999 
z
" clip-path="url(#pd179e79107)" style="fill: #eeeeee; stroke: #000000; stroke-width: 0.3"/>
    <path d="M 57.689139 155.491042 
L 58.036587 155.491042 
L 58.510862 157.123591 
z
" clip-path="url(#pd179e79107)" style="fill: #eeeeee; stroke: #000000; stroke-width: 0.3"/>
    <path d="M 46.078707 67.172866 
L 46.568162 67.252431 
L 49.571072 68.669848 
z
" clip-path="url(#pd179e79107)" style="fill: #eeeeee; stroke: #000000; stroke-width: 0.3"/>
    <path d="M 40.995264 69.770644 
L 41.287565 69.8291 
L 41.326159 70.03286 
z
" clip-path="url(#pd179e79107)" style="fill: #eeeeee; stroke: #000000; stroke-width: 0.3"/>
    <path d="M 37.443619 -1.704452 
L 39.130843 -2.33227 
L 42.021054 0.301838 
L 40.507197 0.301838 
L 40.043934 -1.456541 
z
" clip-path="url(#pd179e79107)" style="fill: #eeeeee; stroke: #000000; stroke-width: 0.3"/>
   </g>
   <g id="PatchCollection_2">
    <path d="M 73.339233 64.258865 
L 74.944898 58.921399 
L 79.844621 56.562095 
L 79.153589 53.957435 
L 78.546115 55.362742 
L 75.009735 54.871429 
L 76.052907 53.369699 
L 74.684278 47.826976 
L 76.482287 42.306898 
L 78.926701 40.720715 
L 84.895891 43.871434 
L 84.869614 56.228435 
L 83.164144 61.690655 
L 78.186029 64.270198 
z
" clip-path="url(#pd179e79107)" style="fill: #ff6b6b; stroke: #dd0000; stroke-width: 0.5"/>
    <path d="M 61.842989 65.227965 
L 66.602602 59.863664 
L 67.870341 60.727861 
L 62.657597 67.279285 
z
" clip-path="url(#pd179e79107)" style="fill: #ff6b6b; stroke: #dd0000; stroke-width: 0.5"/>
   </g>
  </g>
 </g>
 <defs>
  <clipPath id="pd179e79107">
   <rect x="0" y="0" width="146.738881" height="108"/>
  </clipPath>
 </defs>
</svg>
