<?xml version="1.0" encoding="utf-8" standalone="no"?>
<!DOCTYPE svg PUBLIC "-//W3C//DTD SVG 1.1//EN"
  "http://www.w3.org/Graphics/SVG/1.1/DTD/svg11.dtd">
<svg xmlns:xlink="http://www.w3.org/1999/xlink" width="170.943132pt" height="108pt" viewBox="0 0 170.943132 108" xmlns="http://www.w3.org/2000/svg" version="1.1">
 <metadata>
  <rdf:RDF xmlns:dc="http://purl.org/dc/elements/1.1/" xmlns:cc="http://creativecommons.org/ns#" xmlns:rdf="http://www.w3.org/1999/02/22-rdf-syntax-ns#">
   <cc:Work>
    <dc:type rdf:resource="http://purl.org/dc/dcmitype/StillImage"/>
    <dc:date>2025-09-05T13:56:17.237345</dc:date>
    <dc:format>image/svg+xml</dc:format>
    <dc:creator>
     <cc:Agent>
      <dc:title>Matplotlib v3.10.3, https://matplotlib.org/</dc:title>
     </cc:Agent>
    </dc:creator>
   </cc:Work>
  </rdf:RDF>
 </metadata>
 <defs>
  <style type="text/css">*{stroke-linejoin: round; stroke-linecap: butt}</style>
 </defs>
 <g id="figure_1">
  <g id="patch_1">
   <path d="M 0 108 
L 170.943132 108 
L 170.943132 0 
L 0 0 
z
" style="fill: #ffffff"/>
  </g>
  <g id="axes_1">
   <g id="PatchCollection_1">
    <path d="M 8.431032 20.768436 
L 11.543396 20.372243 
L 11.075763 19.108772 
L 12.111427 18.884093 
L 13.031322 16.61563 
L 21.824186 20.190833 
L 25.188107 18.47663 
L 28.331809 20.053318 
L 29.423459 19.487439 
L 31.585607 22.327197 
L 33.991884 22.224147 
L 35.205241 23.237357 
L 38.559965 21.989798 
L 38.118313 20.261484 
L 38.80631 20.403721 
L 39.648158 21.98577 
L 39.076907 21.314961 
L 38.896509 23.135801 
L 39.715807 22.50678 
L 44.620328 31.028654 
L 50.10899 37.118581 
L 53.076648 38.906689 
L 51.917151 39.584914 
L 49.32099 38.080266 
L 49.335319 39.522199 
L 48.077628 40.005022 
L 48.108318 45.297175 
L 51.011309 47.138529 
L 48.324804 49.344171 
L 49.310091 53.225401 
L 46.620854 55.059872 
L 48.051726 56.114443 
L 48.807215 58.066769 
L 48.65917 58.966365 
L 47.724115 56.479225 
L 45.31776 54.504251 
L 46.085519 53.471981 
L 45.047163 50.92714 
L 40.952269 49.925268 
L 43.516473 52.203095 
L 43.516473 54.404922 
L 39.713657 53.494776 
L 37.586487 51.524137 
L 39.715807 48.915807 
L 38.829929 49.00101 
L 39.715807 47.723975 
L 38.933019 45.503688 
L 31.364437 39.889728 
L 25.978311 38.381505 
L 24.433674 33.194669 
L 22.885805 33.194669 
L 23.713165 32.921133 
L 17.103468 28.989098 
L 18.462878 32.275839 
L 22.70542 35.032341 
L 19.364326 38.683251 
L 16.969779 35.314561 
L 12.160287 34.086369 
L 9.782392 29.672391 
L 10.241436 25.884167 
L 12.583362 24.468736 
L 11.681914 24.601156 
L 11.942852 22.132302 
z
" clip-path="url(#pbf4509fd0f)" style="fill: #eeeeee; stroke: #000000; stroke-width: 0.3"/>
    <path d="M 35.65138 49.91992 
L 35.840724 49.911997 
L 35.722473 50.108946 
z
" clip-path="url(#pbf4509fd0f)" style="fill: #eeeeee; stroke: #000000; stroke-width: 0.3"/>
    <path d="M 18.29161 31.183335 
L 19.461505 31.28265 
L 19.634923 31.638135 
z
" clip-path="url(#pbf4509fd0f)" style="fill: #eeeeee; stroke: #000000; stroke-width: 0.3"/>
    <path d="M -7.02291 92.573722 
L -6.322799 92.003321 
L -6.33515 92.313217 
z
" clip-path="url(#pbf4509fd0f)" style="fill: #eeeeee; stroke: #000000; stroke-width: 0.3"/>
    <path d="M -14.323058 -5.839768 
L -14.271507 -7.023451 
L -13.091954 -8.389491 
L -10.649089 -6.105168 
L -9.291289 -6.18765 
L -10.471382 -6.427534 
L -9.613965 -7.014221 
L -5.932764 -6.990532 
L -4.453468 -8.412485 
L -4.293244 -10.455803 
L -1.565136 -11.246041 
L -2.385411 -17.20056 
L 3.236479 -17.352547 
L 6.448014 -21.186214 
L 11.122472 -18.246861 
L 11.32191 -20.131644 
L 18.680828 -24.889969 
L 18.999598 -28.124319 
L 20.527979 -28.453795 
L 20.207506 -29.442195 
L 22.182831 -31.495157 
L 23.661785 -31.549602 
L 24.886397 -29.597276 
L 27.744724 -28.860804 
L 29.324921 -30.143175 
L 30.587033 -29.637944 
L 30.659313 -30.715603 
L 31.894495 -30.134559 
L 32.639084 -31.180846 
L 35.107046 -30.781079 
L 39.185565 -32.238178 
L 40.591209 -34.090229 
L 45.587248 -33.896454 
L 43.428966 -31.325617 
L 43.057429 -32.787718 
L 42.428201 -32.375786 
L 41.705541 -31.321269 
L 43.360248 -30.884382 
L 44.846366 -25.235144 
L 41.61802 -20.021178 
L 39.930564 -12.806736 
L 40.9512 0.520427 
L 38.896509 0.932905 
L 38.896509 -1.451839 
L 39.979965 -2.403774 
L 39.866135 -4.761923 
L 38.785911 -4.417281 
L 39.53541 -2.35385 
L 37.087174 -1.038281 
L 38.383777 2.345068 
L 39.167106 1.435469 
L 38.454645 6.238583 
L 38.100302 4.274466 
L 37.694407 3.789269 
L 37.046376 3.71491 
L 37.897354 4.401458 
L 36.700622 5.273617 
L 37.282614 6.786736 
L 36.276465 7.795117 
L 37.178455 8.680855 
L 38.07291 8.07951 
L 38.709131 11.154591 
L 37.266503 11.984962 
L 35.856624 15.765584 
L 38.559965 21.989798 
L 35.082504 23.218403 
L 33.991884 22.224147 
L 31.585607 22.327197 
L 29.423459 19.487439 
L 28.331809 20.053318 
L 25.188107 18.47663 
L 21.824186 20.190833 
L 13.031322 16.61563 
L 11.659839 18.336995 
L 1.174914 9.286534 
L -2.469513 3.444641 
z
" clip-path="url(#pbf4509fd0f)" style="fill: #eeeeee; stroke: #000000; stroke-width: 0.3"/>
    <path d="M 49.838393 -25.484805 
L 50.837561 -25.527673 
L 50.595953 -25.419675 
z
" clip-path="url(#pbf4509fd0f)" style="fill: #eeeeee; stroke: #000000; stroke-width: 0.3"/>
    <path d="M 46.569791 3.860908 
L 46.879048 3.532552 
L 47.029375 3.653048 
z
" clip-path="url(#pbf4509fd0f)" style="fill: #eeeeee; stroke: #000000; stroke-width: 0.3"/>
    <path d="M 38.245417 20.243131 
L 38.309689 20.233848 
L 38.394557 20.403107 
z
" clip-path="url(#pbf4509fd0f)" style="fill: #eeeeee; stroke: #000000; stroke-width: 0.3"/>
    <path d="M 37.596159 6.854039 
L 37.981642 6.250521 
L 37.810375 7.807601 
z
" clip-path="url(#pbf4509fd0f)" style="fill: #eeeeee; stroke: #000000; stroke-width: 0.3"/>
    <path d="M 99.803345 144.282186 
L 102.118486 141.83766 
L 105.744678 142.362884 
L 106.085497 140.595157 
L 105.259219 139.084746 
L 104.499415 139.685837 
L 104.003915 136.926334 
L 105.706994 133.680287 
L 105.906181 134.369009 
L 108.716281 130.815106 
L 109.920534 132.230124 
L 110.023704 130.606833 
L 110.540645 132.290905 
L 111.533902 132.885741 
L 112.156692 132.574752 
L 112.013806 130.76889 
L 113.943728 130.461222 
L 114.544799 131.722132 
L 115.397387 131.910465 
L 116.443252 131.566917 
L 116.560289 131.091484 
L 115.757642 129.261414 
L 117.387649 128.897793 
L 116.929674 128.251952 
L 118.083999 127.859014 
L 117.107393 127.21208 
L 118.299824 127.032444 
L 118.112446 126.188507 
L 116.952765 126.360008 
L 120.147292 123.086017 
L 119.327757 122.837703 
L 120.441494 121.369641 
L 122.26855 121.85213 
L 122.080632 119.293724 
L 122.989588 119.839703 
L 122.230959 118.812862 
L 124.91596 117.076145 
L 123.827147 116.203439 
L 124.818794 116.335872 
L 124.492358 115.267243 
L 126.060085 113.904457 
L 123.136167 114.905249 
L 122.515515 113.193488 
L 123.710638 113.084943 
L 123.980166 111.883894 
L 122.989588 111.338449 
L 121.908823 113.7221 
L 120.734641 112.390259 
L 120.846849 110.376204 
L 122.531626 110.071737 
L 123.358432 109.242993 
L 121.367643 108.150489 
L 122.350146 106.494627 
L 122.178351 102.744936 
L 123.071738 103.390776 
L 121.876615 101.388673 
L 121.44978 94.06838 
L 119.098195 92.733818 
L 123.231737 89.651148 
L 120.085541 83.587817 
L 120.098419 82.179989 
L 120.999326 82.917008 
L 121.44978 82.097494 
L 121.919564 78.555129 
L 121.050337 76.85205 
L 119.37791 77.254205 
L 118.648811 75.060514 
L 117.289401 74.779375 
L 117.701735 72.560182 
L 114.656255 69.632113 
L 115.654539 66.411662 
L 116.828022 65.694129 
L 116.392993 63.354787 
L 118.823799 65.720325 
L 121.993744 63.334794 
L 121.463951 62.438759 
L 122.512639 60.735587 
L 124.322278 60.240013 
L 120.027959 53.112361 
L 120.750039 51.05009 
L 121.836345 50.502191 
L 122.851611 52.816911 
L 126.977631 55.874625 
L 127.234809 57.711204 
L 128.689787 57.608635 
L 127.702983 60.370018 
L 129.679825 60.44926 
L 129.447888 53.871975 
L 127.173598 52.154238 
L 135.507802 46.788859 
L 137.452964 42.797657 
L 140.412837 40.213295 
L 142.153468 40.869353 
L 144.6769 40.051652 
L 145.260976 37.807757 
L 143.561895 36.74637 
L 145.863934 29.543759 
L 143.582479 30.960791 
L 146.061511 28.499019 
L 145.954133 27.531879 
L 145.233083 27.4407 
L 146.232251 26.248335 
L 146.357336 26.956583 
L 146.412108 26.066511 
L 146.009973 25.064652 
L 149.573873 23.326841 
L 149.337635 22.145866 
L 154.919426 17.952993 
L 162.13088 19.52916 
L 159.574579 19.689496 
L 159.70398 21.405593 
L 158.183489 21.178726 
L 158.164172 22.324422 
L 158.615154 21.670446 
L 158.885209 22.589822 
L 159.467742 22.553996 
L 159.336204 21.489169 
L 160.847564 22.756974 
L 164.036708 14.832096 
L 175.397378 15.494222 
L 182.668525 9.973082 
L 188.979164 7.598661 
L 190.620452 2.662566 
L 192.850698 2.675051 
L 192.250458 3.490231 
L 193.273245 3.857653 
L 194.151062 2.662566 
L 192.970968 2.307082 
L 195.979186 0.606177 
L 196.492988 1.205348 
L 197.319807 0.37715 
L 195.870198 0.477012 
L 196.730294 -0.168828 
L 202.189968 1.517964 
L 204.14211 4.818818 
L 203.822653 5.866812 
L 200.239291 8.58126 
L 192.573887 10.758625 
L 188.925963 17.349688 
L 185.861707 17.804607 
L 183.438396 21.341544 
L 180.37823 26.979712 
L 179.446143 35.259114 
L 174.094257 43.787338 
L 176.45484 43.778388 
L 179.12703 42.15207 
L 179.845019 44.704754 
L 182.012643 44.572067 
L 183.53795 50.739928 
L 187.257468 54.689729 
L 188.019778 58.044028 
L 185.968755 60.263448 
L 186.133768 66.306198 
L 189.72919 67.674385 
L 191.153584 71.610755 
L 192.531611 72.596395 
L 197.458694 72.072557 
L 203.216278 73.267044 
L 209.559574 71.434987 
L 214.629502 73.590998 
L 217.134634 73.134024 
L 226.180454 84.475476 
L 227.661452 84.020209 
L 228.786854 85.029977 
L 231.227542 83.200334 
L 236.846027 84.293505 
L 245.519216 83.200334 
L 247.50887 81.925553 
L 252.48641 83.465708 
L 251.942287 84.578859 
L 252.849158 86.396097 
L 250.174924 88.980139 
L 250.281972 92.220011 
L 247.411361 94.918132 
L 247.958902 98.599132 
L 246.877478 105.6775 
L 250.087641 115.958166 
L 251.828417 116.544385 
L 254.34037 120.999084 
L 247.358187 127.638737 
L 247.12976 128.924215 
L 250.155831 128.608531 
L 250.828826 130.240011 
L 255.920236 134.197749 
L 255.556802 135.90919 
L 259.960214 148.128404 
L 260.072039 149.828134 
L 257.287352 150.448459 
L 256.877551 143.328744 
L 252.820526 137.61579 
L 246.167669 142.908636 
L 242.692939 139.259341 
L 241.531054 141.73345 
L 243.074094 143.175383 
L 224.88323 142.489569 
L 220.737207 143.356994 
L 220.789709 152.003432 
L 228.223296 152.283277 
L 230.023395 154.559224 
L 230.220444 157.46239 
L 228.114545 157.889727 
L 225.726002 156.359563 
L 218.123668 158.289494 
L 217.941608 168.270002 
L 223.856697 173.13067 
L 223.742826 175.916662 
L 226.763448 181.909101 
L 219.301902 222.640308 
L 214.734506 217.208932 
L 212.362337 217.86511 
L 209.152847 216.578951 
L 218.171394 202.348457 
L 217.443508 201.149142 
L 216.854049 201.736402 
L 211.204886 198.218406 
L 210.29461 198.822204 
L 206.904089 195.625401 
L 200.092012 197.825534 
L 199.621542 196.212661 
L 199.071956 197.012195 
L 198.540791 195.783937 
L 195.799738 194.574979 
L 193.127549 197.133504 
L 190.122616 198.283202 
L 187.462025 198.822204 
L 183.948423 197.265844 
L 183.049746 198.44035 
L 182.768818 197.712495 
L 180.107541 198.483085 
L 176.645768 195.658493 
L 177.789919 193.789209 
L 176.708495 189.991381 
L 174.630199 190.017577 
L 172.249164 188.458469 
L 172.695435 185.847552 
L 170.856134 182.875454 
L 167.945293 182.279925 
L 165.046049 179.350562 
L 162.540918 179.102435 
L 160.545814 173.371914 
L 157.585532 170.66587 
L 155.627598 170.303329 
L 155.179612 168.40785 
L 153.743963 168.927553 
L 150.996432 166.713655 
L 149.125425 167.561446 
L 144.595871 165.081481 
L 142.445981 165.008416 
L 138.965788 161.285027 
L 135.706527 159.976807 
L 134.17713 160.773594 
L 134.287583 162.739365 
L 132.210659 163.252185 
L 121.23212 160.963834 
L 120.300707 157.452734 
L 117.95853 156.580134 
L 117.198265 154.888686 
L 115.2877 155.340151 
L 111.698427 153.84652 
L 102.347651 147.003115 
L 101.925118 145.34672 
z
" clip-path="url(#pbf4509fd0f)" style="fill: #eeeeee; stroke: #000000; stroke-width: 0.3"/>
    <path d="M 114.570568 130.171574 
L 115.254568 130.946579 
L 116.118425 131.537614 
L 114.759015 131.537614 
z
" clip-path="url(#pbf4509fd0f)" style="fill: #eeeeee; stroke: #000000; stroke-width: 0.3"/>
    <path d="M 145.072371 28.498379 
L 145.268062 27.71373 
L 145.802579 28.076871 
z
" clip-path="url(#pbf4509fd0f)" style="fill: #eeeeee; stroke: #000000; stroke-width: 0.3"/>
    <path d="M 119.225432 110.05057 
L 120.827518 108.233518 
L 122.89134 109.334171 
z
" clip-path="url(#pbf4509fd0f)" style="fill: #eeeeee; stroke: #000000; stroke-width: 0.3"/>
    <path d="M 114.831493 129.793294 
L 115.299668 129.799803 
L 116.460431 131.413864 
z
" clip-path="url(#pbf4509fd0f)" style="fill: #eeeeee; stroke: #000000; stroke-width: 0.3"/>
    <path d="M 110.446765 130.362574 
L 112.012804 132.255093 
L 111.508133 132.730513 
z
" clip-path="url(#pbf4509fd0f)" style="fill: #eeeeee; stroke: #000000; stroke-width: 0.3"/>
    <path d="M 110.375237 127.005354 
L 110.584584 126.843778 
L 111.077168 126.657405 
z
" clip-path="url(#pbf4509fd0f)" style="fill: #eeeeee; stroke: #000000; stroke-width: 0.3"/>
    <path d="M 85.693217 -14.970043 
L 85.712547 -14.954304 
L 85.699656 -14.95105 
z
" clip-path="url(#pbf4509fd0f)" style="fill: #eeeeee; stroke: #000000; stroke-width: 0.3"/>
    <path d="M 68.60283 -11.814628 
L 68.877174 -12.248273 
L 69.128441 -11.911235 
z
" clip-path="url(#pbf4509fd0f)" style="fill: #eeeeee; stroke: #000000; stroke-width: 0.3"/>
    <path d="M 65.762119 112.937317 
L 66.014995 112.894983 
L 66.040764 113.101762 
z
" clip-path="url(#pbf4509fd0f)" style="fill: #eeeeee; stroke: #000000; stroke-width: 0.3"/>
    <path d="M 64.23197 -0.623628 
L 64.237881 -1.43446 
L 64.579887 -1.808405 
z
" clip-path="url(#pbf4509fd0f)" style="fill: #eeeeee; stroke: #000000; stroke-width: 0.3"/>
    <path d="M 46.620854 55.059872 
L 49.310091 53.225401 
L 48.324804 49.344171 
L 51.011309 47.138529 
L 48.108318 45.297175 
L 48.077628 40.005022 
L 49.335319 39.522199 
L 49.32099 38.080266 
L 52.162282 39.627303 
L 52.93466 38.40646 
L 55.980457 40.322827 
L 55.87738 43.327363 
L 58.249377 43.427225 
L 57.062831 43.903725 
L 57.29639 46.0323 
L 59.212563 47.017353 
L 63.464751 46.888721 
L 61.381612 44.368302 
L 62.049501 43.697493 
L 66.585177 48.586904 
L 69.680507 49.001077 
L 76.040943 47.549767 
L 79.248322 45.01561 
L 85.181026 43.341461 
L 87.503001 41.110944 
L 87.823606 42.035122 
L 88.591814 40.70052 
L 89.624352 41.432164 
L 91.770112 37.975976 
L 100.475337 38.444954 
L 99.321105 39.983921 
L 107.309872 40.638791 
L 112.794985 42.938813 
L 115.185296 45.36768 
L 115.127859 44.619043 
L 119.288766 49.898432 
L 121.548028 50.563519 
L 120.027959 53.112361 
L 124.322278 60.240013 
L 122.512639 60.735587 
L 121.463951 62.438759 
L 121.993744 63.334794 
L 118.823799 65.720325 
L 116.392993 63.354787 
L 116.828022 65.694129 
L 114.35312 69.544789 
L 109.427132 63.544961 
L 107.527056 58.652295 
L 109.954352 57.862631 
L 109.247262 56.043952 
L 110.646955 55.770429 
L 111.533902 54.023388 
L 113.248196 56.268644 
L 114.786394 56.299575 
L 116.209165 57.885425 
L 116.749276 57.691677 
L 114.856194 56.184521 
L 112.97599 55.5555 
L 112.119113 52.590591 
L 111.508133 51.937695 
L 112.039655 53.949576 
L 111.212295 53.211476 
L 110.107371 54.31429 
L 110.606685 53.767765 
L 110.336088 52.203095 
L 110.336088 53.585408 
L 109.885634 52.757757 
L 108.436026 53.767765 
L 107.895901 52.120053 
L 108.518704 54.173188 
L 107.797653 54.677912 
L 105.177082 49.098151 
L 104.685289 49.987143 
L 98.992069 46.240707 
L 99.019989 45.254027 
L 98.665632 44.983758 
L 99.164946 44.84699 
L 99.394732 44.437766 
L 99.721709 44.610907 
L 100.385838 44.155561 
L 99.394732 44.346601 
L 98.516374 44.982131 
L 98.555576 46.170149 
L 94.446722 45.913445 
L 93.333749 47.450438 
L 92.613768 46.631471 
L 92.647058 47.522077 
L 90.164463 48.551625 
L 90.233181 50.120657 
L 89.184269 50.913242 
L 90.891847 50.774953 
L 89.869272 51.699785 
L 80.687758 56.486814 
L 80.500921 58.328835 
L 86.20112 64.270042 
L 86.656944 66.674861 
L 85.104246 67.104158 
L 83.474239 66.922348 
L 82.843388 67.104158 
L 81.123182 69.480206 
L 75.52123 70.024024 
L 72.561872 62.375937 
L 73.417152 61.794679 
L 72.990858 60.614251 
L 72.540932 61.53308 
L 71.158972 61.252489 
L 71.059643 60.848707 
L 70.820726 60.796608 
L 71.524597 62.24405 
L 70.452423 62.708627 
L 70.820726 64.645614 
L 68.101907 63.817417 
L 66.111633 62.625584 
L 65.660651 59.611832 
L 64.35117 59.012128 
L 63.851316 56.871616 
L 63.400862 57.782843 
L 61.411142 56.317488 
L 58.977935 56.317488 
L 58.437824 57.326962 
L 57.610463 56.507981 
L 58.069507 54.852133 
L 49.832495 55.486036 
L 48.65917 58.966365 
L 48.051726 56.114443 
z
" clip-path="url(#pbf4509fd0f)" style="fill: #eeeeee; stroke: #000000; stroke-width: 0.3"/>
    <path d="M 100.420857 53.502845 
L 101.508997 53.320395 
L 102.271228 54.857415 
L 101.354078 56.505847 
z
" clip-path="url(#pbf4509fd0f)" style="fill: #eeeeee; stroke: #000000; stroke-width: 0.3"/>
    <path d="M 62.150982 66.22657 
L 63.670918 64.174529 
L 65.939297 68.297071 
L 63.851316 68.114713 
z
" clip-path="url(#pbf4509fd0f)" style="fill: #eeeeee; stroke: #000000; stroke-width: 0.3"/>
    <path d="M 56.168904 40.595816 
L 56.987674 40.231648 
L 57.25773 41.689414 
L 56.798686 41.094045 
z
" clip-path="url(#pbf4509fd0f)" style="fill: #eeeeee; stroke: #000000; stroke-width: 0.3"/>
    <path d="M 98.379651 55.598582 
L 99.219757 55.951813 
L 98.468082 56.642429 
z
" clip-path="url(#pbf4509fd0f)" style="fill: #eeeeee; stroke: #000000; stroke-width: 0.3"/>
    <path d="M 98.370586 54.02967 
L 98.527075 53.706357 
L 98.999445 53.881258 
z
" clip-path="url(#pbf4509fd0f)" style="fill: #eeeeee; stroke: #000000; stroke-width: 0.3"/>
    <path d="M 92.577377 48.984604 
L 92.779612 48.713722 
L 92.917444 49.0856 
z
" clip-path="url(#pbf4509fd0f)" style="fill: #eeeeee; stroke: #000000; stroke-width: 0.3"/>
    <path d="M 70.373492 66.22657 
L 71.39682 65.679498 
L 73.261454 65.092811 
z
" clip-path="url(#pbf4509fd0f)" style="fill: #eeeeee; stroke: #000000; stroke-width: 0.3"/>
    <path d="M 66.154779 44.896741 
L 66.47739 44.721453 
L 66.645345 44.945852 
z
" clip-path="url(#pbf4509fd0f)" style="fill: #eeeeee; stroke: #000000; stroke-width: 0.3"/>
    <path d="M 62.927859 69.149143 
L 63.58126 68.934228 
L 63.228526 69.753743 
z
" clip-path="url(#pbf4509fd0f)" style="fill: #eeeeee; stroke: #000000; stroke-width: 0.3"/>
    <path d="M 59.819097 43.66172 
L 60.364869 44.205031 
L 59.842267 44.14525 
z
" clip-path="url(#pbf4509fd0f)" style="fill: #eeeeee; stroke: #000000; stroke-width: 0.3"/>
    <path d="M 57.708724 41.432164 
L 59.518588 42.243529 
L 58.67137 42.819905 
z
" clip-path="url(#pbf4509fd0f)" style="fill: #eeeeee; stroke: #000000; stroke-width: 0.3"/>
    <path d="M 56.338033 56.563347 
L 56.889954 56.317488 
L 57.25773 57.145152 
z
" clip-path="url(#pbf4509fd0f)" style="fill: #eeeeee; stroke: #000000; stroke-width: 0.3"/>
    <path d="M 55.975628 57.784483 
L 56.271453 57.691677 
L 56.304202 58.097086 
z
" clip-path="url(#pbf4509fd0f)" style="fill: #eeeeee; stroke: #000000; stroke-width: 0.3"/>
    <path d="M 54.817543 55.962003 
L 55.884888 55.513165 
L 55.403836 56.590477 
z
" clip-path="url(#pbf4509fd0f)" style="fill: #eeeeee; stroke: #000000; stroke-width: 0.3"/>
   </g>
   <g id="PatchCollection_2">
    <path d="M 46.620854 55.059872 
L 49.310091 53.225401 
L 48.324804 49.344171 
L 51.011309 47.138529 
L 48.108318 45.297175 
L 48.077628 40.005022 
L 49.335319 39.522199 
L 49.32099 38.080266 
L 52.162282 39.627303 
L 52.93466 38.40646 
L 55.980457 40.322827 
L 55.87738 43.327363 
L 58.249377 43.427225 
L 57.062831 43.903725 
L 57.29639 46.0323 
L 59.212563 47.017353 
L 63.464751 46.888721 
L 61.381612 44.368302 
L 62.049501 43.697493 
L 66.585177 48.586904 
L 69.680507 49.001077 
L 76.040943 47.549767 
L 79.248322 45.01561 
L 85.181026 43.341461 
L 87.503001 41.110944 
L 87.823606 42.035122 
L 88.591814 40.70052 
L 89.624352 41.432164 
L 91.770112 37.975976 
L 100.475337 38.444954 
L 99.321105 39.983921 
L 107.309872 40.638791 
L 112.794985 42.938813 
L 115.185296 45.36768 
L 115.127859 44.619043 
L 119.288766 49.898432 
L 121.548028 50.563519 
L 120.027959 53.112361 
L 124.322278 60.240013 
L 122.512639 60.735587 
L 121.463951 62.438759 
L 121.993744 63.334794 
L 118.823799 65.720325 
L 116.392993 63.354787 
L 116.828022 65.694129 
L 114.35312 69.544789 
L 109.427132 63.544961 
L 107.527056 58.652295 
L 109.954352 57.862631 
L 109.247262 56.043952 
L 110.646955 55.770429 
L 111.533902 54.023388 
L 113.248196 56.268644 
L 114.786394 56.299575 
L 116.209165 57.885425 
L 116.749276 57.691677 
L 114.856194 56.184521 
L 112.97599 55.5555 
L 112.119113 52.590591 
L 111.508133 51.937695 
L 112.039655 53.949576 
L 111.212295 53.211476 
L 110.107371 54.31429 
L 110.606685 53.767765 
L 110.336088 52.203095 
L 110.336088 53.585408 
L 109.885634 52.757757 
L 108.436026 53.767765 
L 107.895901 52.120053 
L 108.518704 54.173188 
L 107.797653 54.677912 
L 105.177082 49.098151 
L 104.685289 49.987143 
L 98.992069 46.240707 
L 99.019989 45.254027 
L 98.665632 44.983758 
L 99.164946 44.84699 
L 99.394732 44.437766 
L 99.721709 44.610907 
L 100.385838 44.155561 
L 99.394732 44.346601 
L 98.516374 44.982131 
L 98.555576 46.170149 
L 94.446722 45.913445 
L 93.333749 47.450438 
L 92.613768 46.631471 
L 92.647058 47.522077 
L 90.164463 48.551625 
L 90.233181 50.120657 
L 89.184269 50.913242 
L 90.891847 50.774953 
L 89.869272 51.699785 
L 80.687758 56.486814 
L 80.500921 58.328835 
L 86.20112 64.270042 
L 86.656944 66.674861 
L 85.104246 67.104158 
L 83.474239 66.922348 
L 82.843388 67.104158 
L 81.123182 69.480206 
L 75.52123 70.024024 
L 72.561872 62.375937 
L 73.417152 61.794679 
L 72.990858 60.614251 
L 72.540932 61.53308 
L 71.158972 61.252489 
L 71.059643 60.848707 
L 70.820726 60.796608 
L 71.524597 62.24405 
L 70.452423 62.708627 
L 70.820726 64.645614 
L 68.101907 63.817417 
L 66.111633 62.625584 
L 65.660651 59.611832 
L 64.35117 59.012128 
L 63.851316 56.871616 
L 63.400862 57.782843 
L 61.411142 56.317488 
L 58.977935 56.317488 
L 58.437824 57.326962 
L 57.610463 56.507981 
L 58.069507 54.852133 
L 49.832495 55.486036 
L 48.65917 58.966365 
L 48.051726 56.114443 
z
" clip-path="url(#pbf4509fd0f)" style="fill: #ff6b6b; stroke: #dd0000; stroke-width: 0.5"/>
    <path d="M 100.420857 53.502845 
L 101.508997 53.320395 
L 102.271228 54.857415 
L 101.354078 56.505847 
z
" clip-path="url(#pbf4509fd0f)" style="fill: #ff6b6b; stroke: #dd0000; stroke-width: 0.5"/>
    <path d="M 62.150982 66.22657 
L 63.670918 64.174529 
L 65.939297 68.297071 
L 63.851316 68.114713 
z
" clip-path="url(#pbf4509fd0f)" style="fill: #ff6b6b; stroke: #dd0000; stroke-width: 0.5"/>
    <path d="M 56.168904 40.595816 
L 56.987674 40.231648 
L 57.25773 41.689414 
L 56.798686 41.094045 
z
" clip-path="url(#pbf4509fd0f)" style="fill: #ff6b6b; stroke: #dd0000; stroke-width: 0.5"/>
    <path d="M 98.379651 55.598582 
L 99.219757 55.951813 
L 98.468082 56.642429 
z
" clip-path="url(#pbf4509fd0f)" style="fill: #ff6b6b; stroke: #dd0000; stroke-width: 0.5"/>
    <path d="M 98.370586 54.02967 
L 98.527075 53.706357 
L 98.999445 53.881258 
z
" clip-path="url(#pbf4509fd0f)" style="fill: #ff6b6b; stroke: #dd0000; stroke-width: 0.5"/>
    <path d="M 92.577377 48.984604 
L 92.779612 48.713722 
L 92.917444 49.0856 
z
" clip-path="url(#pbf4509fd0f)" style="fill: #ff6b6b; stroke: #dd0000; stroke-width: 0.5"/>
    <path d="M 70.373492 66.22657 
L 71.39682 65.679498 
L 73.261454 65.092811 
z
" clip-path="url(#pbf4509fd0f)" style="fill: #ff6b6b; stroke: #dd0000; stroke-width: 0.5"/>
    <path d="M 66.154779 44.896741 
L 66.47739 44.721453 
L 66.645345 44.945852 
z
" clip-path="url(#pbf4509fd0f)" style="fill: #ff6b6b; stroke: #dd0000; stroke-width: 0.5"/>
    <path d="M 62.927859 69.149143 
L 63.58126 68.934228 
L 63.228526 69.753743 
z
" clip-path="url(#pbf4509fd0f)" style="fill: #ff6b6b; stroke: #dd0000; stroke-width: 0.5"/>
    <path d="M 59.819097 43.66172 
L 60.364869 44.205031 
L 59.842267 44.14525 
z
" clip-path="url(#pbf4509fd0f)" style="fill: #ff6b6b; stroke: #dd0000; stroke-width: 0.5"/>
    <path d="M 57.708724 41.432164 
L 59.518588 42.243529 
L 58.67137 42.819905 
z
" clip-path="url(#pbf4509fd0f)" style="fill: #ff6b6b; stroke: #dd0000; stroke-width: 0.5"/>
    <path d="M 56.338033 56.563347 
L 56.889954 56.317488 
L 57.25773 57.145152 
z
" clip-path="url(#pbf4509fd0f)" style="fill: #ff6b6b; stroke: #dd0000; stroke-width: 0.5"/>
    <path d="M 55.975628 57.784483 
L 56.271453 57.691677 
L 56.304202 58.097086 
z
" clip-path="url(#pbf4509fd0f)" style="fill: #ff6b6b; stroke: #dd0000; stroke-width: 0.5"/>
    <path d="M 54.817543 55.962003 
L 55.884888 55.513165 
L 55.403836 56.590477 
z
" clip-path="url(#pbf4509fd0f)" style="fill: #ff6b6b; stroke: #dd0000; stroke-width: 0.5"/>
   </g>
  </g>
 </g>
 <defs>
  <clipPath id="pbf4509fd0f">
   <rect x="0" y="0" width="170.943132" height="108"/>
  </clipPath>
 </defs>
</svg>
