<?xml version="1.0" encoding="utf-8" standalone="no"?>
<!DOCTYPE svg PUBLIC "-//W3C//DTD SVG 1.1//EN"
  "http://www.w3.org/Graphics/SVG/1.1/DTD/svg11.dtd">
<svg xmlns:xlink="http://www.w3.org/1999/xlink" width="172.700307pt" height="108pt" viewBox="0 0 172.700307 108" xmlns="http://www.w3.org/2000/svg" version="1.1">
 <metadata>
  <rdf:RDF xmlns:dc="http://purl.org/dc/elements/1.1/" xmlns:cc="http://creativecommons.org/ns#" xmlns:rdf="http://www.w3.org/1999/02/22-rdf-syntax-ns#">
   <cc:Work>
    <dc:type rdf:resource="http://purl.org/dc/dcmitype/StillImage"/>
    <dc:date>2025-09-05T15:49:29.801441</dc:date>
    <dc:format>image/svg+xml</dc:format>
    <dc:creator>
     <cc:Agent>
      <dc:title>Matplotlib v3.10.3, https://matplotlib.org/</dc:title>
     </cc:Agent>
    </dc:creator>
   </cc:Work>
  </rdf:RDF>
 </metadata>
 <defs>
  <style type="text/css">*{stroke-linejoin: round; stroke-linecap: butt}</style>
 </defs>
 <g id="figure_1">
  <g id="patch_1">
   <path d="M 0 108 
L 172.700307 108 
L 172.700307 0 
L 0 0 
z
" style="fill: #ffffff"/>
  </g>
  <g id="axes_1">
   <g id="PatchCollection_1">
    <path d="M 141.648951 25.701112 
L 144.284644 22.436606 
L 145.17032 18.904657 
L 148.450012 15.984378 
L 149.81193 12.314469 
L 154.088192 10.257599 
L 153.828028 8.101884 
L 156.492153 4.445132 
L 156.957034 0.830688 
L 155.019356 -5.096288 
L 155.816889 -6.882893 
L 155.15725 -8.450419 
L 149.082636 -16.581845 
L 148.357606 -20.639733 
L 149.160834 -23.26664 
L 145.210127 -24.75167 
L 145.93231 -26.112956 
L 144.278963 -26.151369 
L 142.797624 -30.863221 
L 148.356189 -36.374843 
L 162.529561 -42.020681 
L 162.316618 -40.590057 
L 164.719892 -40.285674 
L 164.050625 -38.581096 
L 165.267413 -36.372861 
L 167.038531 -37.21396 
L 169.534156 -36.363474 
L 171.191781 -33.946014 
L 184.593451 -32.939992 
L 199.534755 -22.508476 
L 205.134544 -23.033714 
L 218.826227 -19.627656 
L 223.558827 -26.013023 
L 236.148755 -31.761134 
L 241.640498 -27.0507 
L 251.571982 -27.526157 
L 244.112712 -16.844994 
L 238.922343 -11.51865 
L 239.119949 39.197294 
L 246.590607 48.858562 
L 246.758612 50.558736 
L 243.28738 54.305264 
L 242.410906 53.671325 
L 239.576603 55.322255 
L 239.482574 53.38683 
L 238.646389 55.745633 
L 237.486698 54.235816 
L 239.113181 58.070826 
L 238.639676 58.995976 
L 237.51469 57.922984 
L 236.288947 58.581558 
L 236.879989 60.214582 
L 234.591955 62.161209 
L 232.395709 62.012238 
L 228.836046 63.946548 
L 227.880082 67.596749 
L 228.847242 68.251965 
L 227.333826 72.181059 
L 225.493548 73.638233 
L 225.176754 72.922528 
L 223.799899 76.986019 
L 222.630139 76.299437 
L 223.814451 78.065741 
L 222.705145 81.124559 
L 221.293585 81.124559 
L 222.139853 81.833547 
L 221.509636 82.931175 
L 220.973436 81.862656 
L 219.598822 82.812456 
L 221.047314 83.80704 
L 217.337652 90.921531 
L 216.02125 90.453354 
L 214.510075 91.589065 
L 194.982704 77.522309 
L 194.121196 75.75705 
L 192.618536 75.567863 
L 192.428042 74.185244 
L 194.007469 72.828224 
L 193.248326 69.134133 
L 141.795374 41.010916 
L 142.473499 29.336889 
z
" clip-path="url(#pf5a8012d5c)" style="fill: #eeeeee; stroke: #000000; stroke-width: 0.3"/>
    <path d="M 238.975493 56.387416 
L 240.140782 55.420812 
L 241.534419 56.281 
L 239.311309 57.452564 
z
" clip-path="url(#pf5a8012d5c)" style="fill: #eeeeee; stroke: #000000; stroke-width: 0.3"/>
    <path d="M 78.791001 94.928799 
L 79.897034 88.455239 
L 84.417806 88.641576 
L 88.133933 86.00721 
L 92.380332 79.372912 
L 93.341358 79.351565 
L 94.038672 76.09701 
L 99.093265 72.28058 
L 99.539645 70.879477 
L 99.447252 68.206698 
L 94.811323 67.724483 
L 93.81192 66.459923 
L 95.280453 63.676201 
L 93.761452 63.962114 
L 95.081431 61.117215 
L 99.569507 59.491362 
L 100.304482 55.874069 
L 99.054875 53.766001 
L 99.523304 49.153008 
L 98.237438 46.57269 
L 95.731111 45.357925 
L 94.708957 41.788995 
L 96.87695 41.985297 
L 98.781919 40.780482 
L 143.11322 41.010916 
L 193.248326 69.134133 
L 194.007469 72.828224 
L 192.428042 74.185244 
L 192.618536 75.567863 
L 194.121196 75.75705 
L 194.982704 77.522309 
L 214.84702 91.742508 
L 214.825741 94.050911 
L 213.382847 94.879734 
L 213.050386 96.685236 
L 213.851867 97.347182 
L 208.84931 110.545698 
L 210.719822 115.800914 
L 212.45039 116.261246 
L 215.740288 119.798328 
L 215.743645 121.220778 
L 218.277949 121.59487 
L 219.504806 123.56389 
L 219.419731 125.181224 
L 216.397369 127.809961 
L 215.363055 134.885227 
L 216.397369 133.550145 
L 217.989148 135.01292 
L 218.138019 137.460205 
L 215.740288 141.572981 
L 216.762291 147.142916 
L 219.504806 150.010221 
L 218.069739 149.134357 
L 217.234668 149.687644 
L 218.654068 150.231985 
L 218.745856 152.78903 
L 219.717487 152.360064 
L 220.74396 153.6817 
L 219.692852 157.238945 
L 220.839118 157.200862 
L 222.079399 160.256322 
L 221.474932 161.331558 
L 222.901032 162.417997 
L 221.389857 165.43986 
L 223.262598 164.709595 
L 225.438692 167.883774 
L 225.915554 166.671898 
L 227.468144 167.178157 
L 227.302478 168.574842 
L 228.836046 168.925414 
L 228.836046 167.601522 
L 230.44125 169.771041 
L 231.516993 168.972456 
L 231.65244 171.377172 
L 225.755238 176.006171 
L 218.745196 178.476964 
L 215.509574 180.90081 
L 210.461378 180.91361 
L 204.904243 184.296189 
L 201.662927 182.419986 
L 197.28148 182.513864 
L 195.615328 185.949072 
L 190.838656 188.508058 
L 186.326412 187.892135 
L 184.823752 186.380075 
L 181.903742 186.499566 
L 179.229658 188.533671 
L 173.369705 188.260558 
L 172.934687 186.570693 
L 168.234796 184.296189 
L 164.794458 186.934835 
L 156.381274 186.499566 
L 155.307937 183.77274 
L 153.643215 183.355954 
L 151.552003 180.011788 
L 152.397871 175.198227 
L 151.105609 172.270819 
L 150.491472 165.434534 
L 147.486153 160.978013 
L 143.288089 157.650913 
L 141.900572 160.960947 
L 139.462484 159.118877 
L 135.395919 159.633793 
L 133.488103 157.854317 
L 122.728522 154.633894 
L 121.427017 153.059253 
L 114.751057 151.929819 
L 114.731154 150.15176 
L 111.100322 149.882927 
L 109.262162 146.999616 
L 106.7075 145.397944 
L 102.918154 145.799068 
L 101.291093 144.892979 
L 94.167324 131.760939 
L 92.14292 125.610273 
L 89.342317 122.039939 
L 84.062402 118.314537 
L 81.56602 113.549339 
L 80.886491 109.819685 
L 82.761611 105.721622 
z
" clip-path="url(#pf5a8012d5c)" style="fill: #eeeeee; stroke: #000000; stroke-width: 0.3"/>
    <path d="M 214.507833 108.610273 
L 215.740288 107.615688 
L 216.200355 105.91546 
L 217.617513 112.43408 
L 218.779432 112.491211 
L 218.745856 111.494369 
L 219.363762 114.211588 
L 218.882416 116.160445 
L 217.617513 113.938296 
L 217.439522 114.934009 
L 214.619772 112.829451 
z
" clip-path="url(#pf5a8012d5c)" style="fill: #eeeeee; stroke: #000000; stroke-width: 0.3"/>
    <path d="M 220.733891 101.725405 
L 221.01598 99.980392 
L 222.630139 99.321803 
L 222.016717 99.330763 
L 220.827921 98.654269 
L 222.151036 98.851383 
L 221.29807 94.517959 
L 223.188719 95.942652 
L 223.662224 94.613172 
L 222.83835 101.626848 
z
" clip-path="url(#pf5a8012d5c)" style="fill: #eeeeee; stroke: #000000; stroke-width: 0.3"/>
    <path d="M 219.964872 136.566407 
L 224.208479 132.32931 
L 224.177145 133.932083 
L 223.212226 136.132955 
L 220.550316 137.120823 
z
" clip-path="url(#pf5a8012d5c)" style="fill: #eeeeee; stroke: #000000; stroke-width: 0.3"/>
    <path d="M 219.803787 101.457755 
L 220.859117 102.233921 
L 220.964069 102.578368 
L 220.352243 102.410858 
z
" clip-path="url(#pf5a8012d5c)" style="fill: #eeeeee; stroke: #000000; stroke-width: 0.3"/>
    <path d="M 221.555331 138.574487 
L 221.555386 137.991086 
L 222.912902 137.4073 
z
" clip-path="url(#pf5a8012d5c)" style="fill: #eeeeee; stroke: #000000; stroke-width: 0.3"/>
    <path d="M 214.83757 106.72668 
L 215.160127 107.809375 
L 214.838368 107.837713 
z
" clip-path="url(#pf5a8012d5c)" style="fill: #eeeeee; stroke: #000000; stroke-width: 0.3"/>
    <path d="M -156.069996 107.434237 
L -155.936655 106.166841 
L -152.497733 106.023169 
L -152.199193 98.266565 
L -153.386256 96.785802 
L -150.16058 94.985695 
L -148.454634 92.446625 
L -144.845122 91.402548 
L -144.533776 90.240412 
L -140.342823 94.449433 
L -135.943605 91.701261 
L -135.909479 88.499335 
L -132.752055 89.119525 
L -126.664648 86.078324 
L -125.527337 88.173592 
L -127.163628 89.958766 
L -126.476988 94.462233 
L -124.83785 93.843461 
L -122.735262 94.650001 
L -120.555907 93.482168 
L -115.42811 86.930379 
L -111.92095 85.207785 
L -110.891698 83.062736 
L -105.68712 81.128206 
L -101.375329 72.812576 
L -101.801805 57.243889 
L -97.408983 53.188491 
L -93.017578 44.67799 
L -90.413163 42.31104 
L -86.486625 41.181619 
L -80.413441 34.416448 
L -80.869779 29.907297 
L -77.718036 22.01982 
L -78.802734 13.220557 
L -75.986492 5.85975 
L -75.972269 -2.515969 
L -68.535737 -15.840747 
L -68.075134 -28.472447 
L -69.513819 -32.351816 
L -66.606601 -33.353213 
L -62.067342 -40.35486 
L -57.587794 -43.397121 
L -51.870013 -42.937312 
L -44.795996 -38.463353 
L -41.476496 -33.55129 
L -37.470357 -34.079377 
L -32.801732 -31.852535 
L -25.561388 -31.877418 
L -17.776549 -29.611117 
L -14.926194 -30.472049 
L -13.798841 -34.359235 
L -12.463938 -34.606391 
L -9.590832 -39.174585 
L -2.491217 -35.971228 
L -0.104312 -37.940964 
L 9.12774 -40.637567 
L 11.045515 -42.098415 
L 11.014236 -43.285806 
L 15.611775 -40.467235 
L 23.548717 -42.046858 
L 24.319235 -45.876804 
L 26.796429 -46.767602 
L 31.846042 -43.943692 
L 35.799582 -44.883568 
L 39.984854 -42.25596 
L 43.243226 -42.901748 
L 44.998938 -42.119403 
L 47.840765 -44.401009 
L 50.979716 -43.419169 
L 57.064289 -38.682764 
L 57.452389 -36.039865 
L 60.775437 -35.409711 
L 61.266617 -33.608187 
L 65.83003 -31.6285 
L 70.973481 -35.46413 
L 77.381463 -32.528547 
L 80.632009 -37.054419 
L 82.84549 -36.669647 
L 85.29637 -35.49222 
L 85.174115 -32.915453 
L 87.13453 -32.087593 
L 90.697137 -27.235262 
L 95.317413 -26.016587 
L 95.561937 -22.512027 
L 98.366804 -23.364784 
L 99.64058 -20.823236 
L 100.422487 -21.232892 
L 100.610134 -19.491113 
L 98.324164 -14.840066 
L 99.831088 -12.058463 
L 97.866395 -6.439793 
L 100.08414 -4.883636 
L 101.407667 -5.89358 
L 102.607523 -4.308259 
L 104.290017 -4.482512 
L 105.581564 -1.731133 
L 94.671296 10.165139 
L 91.378096 11.577638 
L 90.222312 14.706303 
L 87.367679 15.86347 
L 87.273855 20.354137 
L 84.008372 26.214624 
L 81.966925 39.992453 
L 82.286786 46.320923 
L 77.547088 50.040613 
L 76.132571 52.582533 
L 76.192268 57.460106 
L 72.498892 60.132884 
L 72.373789 61.87253 
L 72.84292 63.721716 
L 74.730846 64.990542 
L 74.267396 65.936474 
L 77.56486 69.142666 
L 77.295453 80.88639 
L 79.007094 83.547786 
L 79.98944 89.177838 
L 78.791001 94.928799 
L 82.761611 105.721622 
L 80.886491 109.819685 
L 81.733777 114.089868 
L 84.062402 118.314537 
L 89.342317 122.039939 
L 92.14292 125.610273 
L 98.437891 139.988376 
L 72.813071 143.965544 
L 72.867087 147.855937 
L 65.430555 154.823081 
L 67.679566 156.286778 
L 70.19017 161.979411 
L 68.421666 167.865496 
L 70.205796 173.6947 
L 68.208421 176.33475 
L 65.538601 185.949072 
L 67.567971 190.617557 
L 70.91377 192.261894 
L 74.820405 197.583283 
L 81.210616 198.604596 
L 80.860893 195.708485 
L 85.331913 194.489453 
L 85.097348 212.403042 
L 82.82985 211.929374 
L 83.542088 210.001959 
L 82.238451 209.233831 
L 76.870393 212.144159 
L 74.25459 211.580866 
L 70.320953 204.614439 
L 68.049192 204.557542 
L 66.397262 199.543413 
L 60.014162 197.431078 
L 58.611007 195.98018 
L 55.6057 196.409752 
L 52.61459 191.294643 
L 50.048552 189.741321 
L 49.305049 186.445518 
L 47.154126 186.802545 
L 46.107804 191.118256 
L 42.940422 192.547807 
L 38.775054 191.155237 
L 32.812749 191.034329 
L 27.865487 188.637499 
L 26.133943 189.293252 
L 24.061919 187.444067 
L 23.585677 181.286299 
L 15.362987 183.092805 
L 12.315026 184.957639 
L 9.605399 184.0999 
L 10.957372 182.447017 
L 10.658832 179.984757 
L 7.271093 179.200981 
L 7.133199 177.49405 
L 5.582203 176.86391 
L 3.274899 178.997577 
L -1.921151 178.068725 
L -7.995766 180.016055 
L -15.056977 179.189613 
L -18.679281 182.040196 
L -19.671586 176.573731 
L -17.553359 175.320553 
L -17.637238 169.91525 
L -19.748354 163.899723 
L -23.613751 160.123123 
L -24.809343 156.669417 
L -22.719547 143.591438 
L -25.332503 137.280033 
L -23.861122 130.019862 
L -24.906013 127.453774 
L -42.298197 127.495022 
L -41.047159 122.396965 
L -45.063257 122.432529 
L -45.410133 123.580447 
L -56.035382 123.580447 
L -56.154789 130.152152 
L -58.321352 131.455111 
L -58.322769 137.344045 
L -69.863542 136.383896 
L -69.985797 137.282882 
L -75.312631 137.625692 
L -75.618282 138.820542 
L -78.784248 137.928671 
L -82.467679 138.672617 
L -86.377162 133.925903 
L -88.294936 129.446618 
L -91.470846 126.369867 
L -91.092692 123.756834 
L -93.913198 119.539267 
L -94.766178 116.190834 
L -94.481847 112.394319 
L -96.87303 108.44703 
L -132.764847 107.610624 
L -141.03231 108.28486 
L -147.171959 107.238224 
L -148.955842 107.936862 
L -149.559318 109.5052 
L -153.315954 110.505289 
L -153.210095 109.539731 
L -154.044079 109.872672 
z
" clip-path="url(#pf5a8012d5c)" style="fill: #eeeeee; stroke: #000000; stroke-width: 0.3"/>
    <path d="M -149.24954 108.967561 
L -148.107414 108.026102 
L -145.81817 107.977243 
z
" clip-path="url(#pf5a8012d5c)" style="fill: #eeeeee; stroke: #000000; stroke-width: 0.3"/>
    <path d="M 74.157218 65.704609 
L 74.785577 63.280762 
L 78.387262 63.698965 
L 79.009941 66.112848 
L 84.240104 65.824099 
L 86.68815 63.974914 
L 87.153017 59.10019 
L 89.699151 60.67768 
L 93.300135 58.909572 
L 95.721166 60.252375 
L 93.814753 63.623571 
L 95.280453 63.676201 
L 93.81192 66.459923 
L 94.811323 67.724483 
L 99.447252 68.206698 
L 99.300816 71.910754 
L 94.038672 76.09701 
L 93.341358 79.351565 
L 92.380332 79.372912 
L 88.133933 86.00721 
L 84.417806 88.641576 
L 79.897034 88.455239 
L 79.007094 83.547786 
L 77.295453 80.88639 
L 77.56486 69.142666 
z
" clip-path="url(#pf5a8012d5c)" style="fill: #eeeeee; stroke: #000000; stroke-width: 0.3"/>
    <path d="M 72.395825 60.494191 
L 76.192268 57.460106 
L 76.132571 52.582533 
L 79.052582 48.08475 
L 85.563631 45.414821 
L 87.548228 47.372101 
L 90.117113 45.724915 
L 92.734319 41.887152 
L 94.582053 41.895383 
L 95.731111 45.357925 
L 98.237438 46.57269 
L 99.623523 49.444606 
L 99.054875 53.766001 
L 100.304482 55.874069 
L 99.569507 59.491362 
L 95.269078 60.235295 
L 93.300135 58.909572 
L 89.699151 60.67768 
L 87.153017 59.10019 
L 86.68815 63.974914 
L 84.240104 65.824099 
L 79.009941 66.112848 
L 78.555019 63.82414 
L 75.897992 62.922304 
L 74.548866 64.657683 
L 72.84292 63.721716 
z
" clip-path="url(#pf5a8012d5c)" style="fill: #eeeeee; stroke: #000000; stroke-width: 0.3"/>
    <path d="M 81.966925 39.992453 
L 84.008372 26.214624 
L 87.273855 20.354137 
L 87.367679 15.86347 
L 90.222312 14.706303 
L 91.378096 11.577638 
L 94.671296 10.165139 
L 105.581564 -1.731133 
L 104.290017 -4.482512 
L 102.607523 -4.308259 
L 101.407667 -5.89358 
L 100.08414 -4.883636 
L 97.866395 -6.439793 
L 99.831088 -12.058463 
L 98.324164 -14.840066 
L 100.610134 -19.491113 
L 100.422487 -21.232892 
L 99.64058 -20.823236 
L 101.083543 -23.425603 
L 104.802517 -24.98176 
L 109.05175 -23.106259 
L 112.547535 -25.313187 
L 114.640178 -22.311817 
L 117.913474 -21.126573 
L 118.185715 -22.598087 
L 120.716911 -24.138238 
L 126.007499 -24.660641 
L 129.319888 -26.264088 
L 131.620081 -24.57849 
L 136.10674 -24.395345 
L 143.195682 -30.670828 
L 144.278963 -26.151369 
L 145.93231 -26.112956 
L 145.210127 -24.75167 
L 149.160834 -23.26664 
L 148.357606 -20.639733 
L 149.082636 -16.581845 
L 155.15725 -8.450419 
L 155.816889 -6.882893 
L 155.019356 -5.096288 
L 156.957034 0.830688 
L 156.492153 4.445132 
L 153.828028 8.101884 
L 154.088192 10.257599 
L 149.81193 12.314469 
L 148.450012 15.984378 
L 145.17032 18.904657 
L 144.284644 22.436606 
L 141.648951 25.701112 
L 142.473499 29.336889 
L 141.795374 41.010916 
L 98.781919 40.780482 
L 92.734319 41.887152 
L 90.117113 45.724915 
L 87.246139 47.484476 
L 85.687317 45.433305 
L 82.286786 46.320923 
z
" clip-path="url(#pf5a8012d5c)" style="fill: #eeeeee; stroke: #000000; stroke-width: 0.3"/>
   </g>
   <g id="PatchCollection_2">
    <defs>
     <path id="m0d00d85484" d="M 72.395825 -47.505809 
L 76.192268 -50.539894 
L 76.132571 -55.417467 
L 79.052582 -59.91525 
L 85.563631 -62.585179 
L 87.548228 -60.627899 
L 90.117113 -62.275085 
L 92.734319 -66.112848 
L 94.582053 -66.104617 
L 95.731111 -62.642075 
L 98.237438 -61.42731 
L 99.623523 -58.555394 
L 99.054875 -54.233999 
L 100.304482 -52.125931 
L 99.569507 -48.508638 
L 95.269078 -47.764705 
L 93.300135 -49.090428 
L 89.699151 -47.32232 
L 87.153017 -48.89981 
L 86.68815 -44.025086 
L 84.240104 -42.175901 
L 79.009941 -41.887152 
L 78.555019 -44.17586 
L 75.897992 -45.077696 
L 74.548866 -43.342317 
L 72.84292 -44.278284 
z
" style="stroke: #dd0000; stroke-width: 0.5"/>
    </defs>
    <g clip-path="url(#pf5a8012d5c)">
     <use xlink:href="#m0d00d85484" x="0" y="108" style="fill: #ff6b6b; stroke: #dd0000; stroke-width: 0.5"/>
    </g>
   </g>
  </g>
 </g>
 <defs>
  <clipPath id="pf5a8012d5c">
   <rect x="0" y="0" width="172.700307" height="108"/>
  </clipPath>
 </defs>
</svg>
