<?xml version="1.0" encoding="utf-8" standalone="no"?>
<!DOCTYPE svg PUBLIC "-//W3C//DTD SVG 1.1//EN"
  "http://www.w3.org/Graphics/SVG/1.1/DTD/svg11.dtd">
<svg xmlns:xlink="http://www.w3.org/1999/xlink" width="164.26994pt" height="108pt" viewBox="0 0 164.26994 108" xmlns="http://www.w3.org/2000/svg" version="1.1">
 <metadata>
  <rdf:RDF xmlns:dc="http://purl.org/dc/elements/1.1/" xmlns:cc="http://creativecommons.org/ns#" xmlns:rdf="http://www.w3.org/1999/02/22-rdf-syntax-ns#">
   <cc:Work>
    <dc:type rdf:resource="http://purl.org/dc/dcmitype/StillImage"/>
    <dc:date>2025-09-05T15:49:29.852202</dc:date>
    <dc:format>image/svg+xml</dc:format>
    <dc:creator>
     <cc:Agent>
      <dc:title>Matplotlib v3.10.3, https://matplotlib.org/</dc:title>
     </cc:Agent>
    </dc:creator>
   </cc:Work>
  </rdf:RDF>
 </metadata>
 <defs>
  <style type="text/css">*{stroke-linejoin: round; stroke-linecap: butt}</style>
 </defs>
 <g id="figure_1">
  <g id="patch_1">
   <path d="M 0 108 
L 164.26994 108 
L 164.26994 0 
L 0 0 
z
" style="fill: #ffffff"/>
  </g>
  <g id="axes_1">
   <g id="PatchCollection_1">
    <path d="M 77.331315 54.58364 
L 86.93268 50.530954 
L 86.938626 57.469046 
L 80.291892 54.844521 
z
" clip-path="url(#pd6b42055ae)" style="fill: #eeeeee; stroke: #000000; stroke-width: 0.3"/>
    <path d="M 80.987371 57.268519 
L 81.861364 55.505206 
L 86.938626 57.469046 
z
" clip-path="url(#pd6b42055ae)" style="fill: #eeeeee; stroke: #000000; stroke-width: 0.3"/>
    <path d="M 5026.827789 -2561.218846 
L 5056.560281 -2567.555513 
L 5075.418245 -2554.649834 
L 5088.675741 -2554.805722 
L 5066.745274 -2565.952232 
L 5083.032837 -2565.952232 
L 5076.023054 -2569.791804 
L 5080.776879 -2573.424594 
L 5057.394885 -2583.604117 
L 5073.398176 -2585.75449 
L 5068.789571 -2597.021941 
L 5078.170135 -2598.421568 
L 5105.39272 -2624.280614 
L 5123.028952 -2673.628808 
L 5132.566849 -2668.653539 
L 5147.75367 -2672.566286 
L 5170.131613 -2683.773228 
L 5185.911129 -2699.834575 
L 5214.839265 -2707.908129 
L 5277.884722 -2711.388237 
L 5283.194974 -2703.664609 
L 5305.046811 -2695.317431 
L 5304.915266 -2676.006133 
L 5293.309141 -2648.594934 
L 5271.041637 -2647.603086 
L 5266.187184 -2640.331172 
L 5269.390191 -2634.067133 
L 5288.600651 -2633.271278 
L 5294.16946 -2626.524566 
L 5292.541053 -2616.014506 
L 5266.279414 -2601.896829 
L 5276.51829 -2594.901589 
L 5241.903401 -2583.997744 
L 5225.703982 -2589.910215 
L 5227.870088 -2585.635893 
L 5211.171317 -2583.571516 
L 5231.526293 -2555.645123 
L 5220.473177 -2536.356262 
L 5227.209465 -2531.708325 
L 5205.303003 -2523.147564 
L 5206.946719 -2517.097734 
L 5221.003147 -2512.576994 
L 5215.887536 -2500.255073 
L 5194.457312 -2500.59038 
L 5188.358459 -2506.537249 
L 5203.567056 -2532.037534 
L 5178.603476 -2542.20619 
L 5157.956724 -2540.032676 
L 5143.992452 -2557.081337 
L 5135.282099 -2550.443684 
L 5124.267406 -2552.122329 
L 5128.768546 -2552.146564 
L 5125.496422 -2558.531701 
L 5114.45869 -2552.500008 
L 5103.528424 -2556.887454 
L 5095.65535 -2554.429137 
L 5096.776752 -2547.199596 
L 5067.537591 -2555.228823 
L 5054.78212 -2550.377701 
z
" clip-path="url(#pd6b42055ae)" style="fill: #eeeeee; stroke: #000000; stroke-width: 0.3"/>
    <path d="M 5019.276592 -2549.139669 
L 5033.541187 -2552.38493 
L 5055.290166 -2546.639917 
L 5066.44889 -2551.895064 
L 5084.08854 -2548.575065 
L 5076.467929 -2541.101217 
L 5053.409297 -2535.857327 
L 5038.60782 -2542.511163 
L 5022.416056 -2539.097428 
z
" clip-path="url(#pd6b42055ae)" style="fill: #eeeeee; stroke: #000000; stroke-width: 0.3"/>
    <path d="M -314.371343 509.055688 
L -311.341277 504.910673 
L -299.072671 511.317387 
L -298.610034 519.906293 
L -302.24491 527.302354 
L -305.837498 513.283338 
z
" clip-path="url(#pd6b42055ae)" style="fill: #eeeeee; stroke: #000000; stroke-width: 0.3"/>
    <path d="M 5120.222661 -2678.387679 
L 5131.121341 -2690.838438 
L 5133.963975 -2684.842082 
L 5126.760665 -2676.186412 
z
" clip-path="url(#pd6b42055ae)" style="fill: #eeeeee; stroke: #000000; stroke-width: 0.3"/>
    <path d="M 88.456817 97.165656 
L 92.327061 100.311318 
L 91.31201 101.938443 
L 89.650011 101.691947 
z
" clip-path="url(#pd6b42055ae)" style="fill: #eeeeee; stroke: #000000; stroke-width: 0.3"/>
    <path d="M 5250.087649 -2719.79272 
L 5254.176169 -2718.660229 
L 5253.160077 -2718.08124 
z
" clip-path="url(#pd6b42055ae)" style="fill: #eeeeee; stroke: #000000; stroke-width: 0.3"/>
    <path d="M 5225.737945 -2712.116703 
L 5239.364362 -2716.357095 
L 5241.438832 -2715.409183 
z
" clip-path="url(#pd6b42055ae)" style="fill: #eeeeee; stroke: #000000; stroke-width: 0.3"/>
    <path d="M 5189.219446 -2711.23876 
L 5209.861665 -2713.207838 
L 5212.891731 -2712.208953 
z
" clip-path="url(#pd6b42055ae)" style="fill: #eeeeee; stroke: #000000; stroke-width: 0.3"/>
    <path d="M 5154.406572 -2704.949783 
L 5160.539314 -2707.93682 
L 5185.445446 -2711.623632 
z
" clip-path="url(#pd6b42055ae)" style="fill: #eeeeee; stroke: #000000; stroke-width: 0.3"/>
    <path d="M 5135.270357 -2692.77257 
L 5140.943435 -2698.832485 
L 5149.737397 -2700.369002 
z
" clip-path="url(#pd6b42055ae)" style="fill: #eeeeee; stroke: #000000; stroke-width: 0.3"/>
    <path d="M 5044.343104 -2573.959022 
L 5053.820505 -2578.301202 
L 5075.013057 -2570.943371 
z
" clip-path="url(#pd6b42055ae)" style="fill: #eeeeee; stroke: #000000; stroke-width: 0.3"/>
    <path d="M 69.565558 89.492922 
L 71.618847 89.066616 
L 70.527173 90.202312 
z
" clip-path="url(#pd6b42055ae)" style="fill: #eeeeee; stroke: #000000; stroke-width: 0.3"/>
    <path d="M 117.067387 130.11532 
L 118.029002 122.391692 
L 121.948223 123.88998 
L 121.866546 130.077169 
z
" clip-path="url(#pd6b42055ae)" style="fill: #eeeeee; stroke: #000000; stroke-width: 0.3"/>
    <path d="M 99.158924 107.3992 
L 109.056674 110.227222 
L 114.475804 121.278276 
z
" clip-path="url(#pd6b42055ae)" style="fill: #eeeeee; stroke: #000000; stroke-width: 0.3"/>
    <path d="M 98.194261 65.618824 
L 103.728288 66.687678 
L 102.355391 68.500946 
z
" clip-path="url(#pd6b42055ae)" style="fill: #eeeeee; stroke: #000000; stroke-width: 0.3"/>
    <path d="M 91.462432 38.630101 
L 92.133832 36.840912 
L 93.76759 37.429439 
z
" clip-path="url(#pd6b42055ae)" style="fill: #eeeeee; stroke: #000000; stroke-width: 0.3"/>
    <path d="M 75.77091 46.840937 
L 85.40557 39.149049 
L 88.202794 42.304717 
z
" clip-path="url(#pd6b42055ae)" style="fill: #eeeeee; stroke: #000000; stroke-width: 0.3"/>
    <path d="M 75.305597 39.591069 
L 75.678011 39.334957 
L 75.735236 39.606158 
z
" clip-path="url(#pd6b42055ae)" style="fill: #eeeeee; stroke: #000000; stroke-width: 0.3"/>
    <path d="M 73.959232 39.063757 
L 74.116788 39.03358 
L 74.904497 39.244505 
z
" clip-path="url(#pd6b42055ae)" style="fill: #eeeeee; stroke: #000000; stroke-width: 0.3"/>
    <path d="M 68.725826 38.031021 
L 70.702418 37.955657 
L 69.513609 38.73916 
z
" clip-path="url(#pd6b42055ae)" style="fill: #eeeeee; stroke: #000000; stroke-width: 0.3"/>
    <path d="M 56.374651 13.073684 
L 56.764753 13.16914 
L 56.43812 13.73218 
z
" clip-path="url(#pd6b42055ae)" style="fill: #eeeeee; stroke: #000000; stroke-width: 0.3"/>
   </g>
   <g id="PatchCollection_2">
    <defs>
     <path id="md35aa8e21a" d="M 77.331315 -53.41636 
L 86.93268 -57.469046 
L 86.938626 -50.530954 
L 80.291892 -53.155479 
z
" style="stroke: #dd0000; stroke-width: 0.5"/>
    </defs>
    <g clip-path="url(#pd6b42055ae)">
     <use xlink:href="#md35aa8e21a" x="0" y="108" style="fill: #ff6b6b; stroke: #dd0000; stroke-width: 0.5"/>
    </g>
   </g>
  </g>
 </g>
 <defs>
  <clipPath id="pd6b42055ae">
   <rect x="0" y="0" width="164.26994" height="108"/>
  </clipPath>
 </defs>
</svg>
