<?xml version="1.0" encoding="utf-8" standalone="no"?>
<!DOCTYPE svg PUBLIC "-//W3C//DTD SVG 1.1//EN"
  "http://www.w3.org/Graphics/SVG/1.1/DTD/svg11.dtd">
<svg xmlns:xlink="http://www.w3.org/1999/xlink" width="165.02795pt" height="108pt" viewBox="0 0 165.02795 108" xmlns="http://www.w3.org/2000/svg" version="1.1">
 <metadata>
  <rdf:RDF xmlns:dc="http://purl.org/dc/elements/1.1/" xmlns:cc="http://creativecommons.org/ns#" xmlns:rdf="http://www.w3.org/1999/02/22-rdf-syntax-ns#">
   <cc:Work>
    <dc:type rdf:resource="http://purl.org/dc/dcmitype/StillImage"/>
    <dc:date>2025-09-05T15:49:29.819013</dc:date>
    <dc:format>image/svg+xml</dc:format>
    <dc:creator>
     <cc:Agent>
      <dc:title>Matplotlib v3.10.3, https://matplotlib.org/</dc:title>
     </cc:Agent>
    </dc:creator>
   </cc:Work>
  </rdf:RDF>
 </metadata>
 <defs>
  <style type="text/css">*{stroke-linejoin: round; stroke-linecap: butt}</style>
 </defs>
 <g id="figure_1">
  <g id="patch_1">
   <path d="M 0 108 
L 165.02795 108 
L 165.02795 0 
L 0 0 
z
" style="fill: #ffffff"/>
  </g>
  <g id="axes_1">
   <g id="PatchCollection_1">
    <path d="M 1862.445651 -946.413001 
L 1862.563174 -952.036791 
L 1868.736615 -955.5569 
L 1886.853215 -958.876708 
L 1890.610028 -955.5569 
L 1891.88775 -958.889801 
L 1898.811306 -957.267861 
L 1900.946649 -962.387647 
L 1909.720514 -963.362903 
L 1910.00306 -960.849482 
L 1913.968678 -963.331471 
L 1912.923513 -959.74985 
L 1916.527839 -961.727868 
L 1926.538162 -951.676789 
L 1937.79241 -957.77447 
L 1937.354827 -955.5569 
L 1940.937892 -954.020054 
L 1945.894907 -956.21536 
L 1948.109029 -951.823428 
L 1946.621272 -955.995434 
L 1949.174196 -957.77447 
L 1952.304684 -958.211684 
L 1953.771148 -955.115728 
L 1967.273252 -955.995434 
L 1961.218562 -959.337504 
L 1959.703338 -962.62588 
L 1962.621272 -968.555977 
L 1959.990861 -968.405446 
L 1959.473302 -974.418032 
L 1961.378577 -974.726978 
L 1953.142303 -979.817939 
L 1951.046964 -984.552887 
L 1952.434681 -987.411897 
L 1949.494225 -990.768348 
L 1959.588304 -988.385834 
L 1970.146205 -989.848074 
L 1971.230114 -987.550654 
L 1968.818494 -985.427348 
L 1974.453115 -978.586113 
L 1980.059008 -980.092847 
L 2002.209958 -976.483751 
L 2021.590485 -982.015883 
L 2024.105893 -983.35246 
L 2016.844763 -982.402074 
L 2011.306373 -984.683794 
L 2016.199635 -990.935899 
L 2046.474375 -998.968391 
L 2055.685823 -1006.550543 
L 2060.341551 -1005.83842 
L 2056.315927 -1008.58483 
L 2058.431237 -1011.569535 
L 2056.735966 -1012.666529 
L 2057.516099 -1027.595206 
L 2086.434985 -1034.632464 
L 2089.097289 -1030.565531 
L 2088.430438 -1026.843158 
L 2094.575028 -1022.916269 
L 2105.098609 -1024.708463 
L 2109.455386 -1016.597021 
L 2119.817047 -1014.974405 
L 2122.538435 -1009.238689 
L 2131.953772 -1010.713348 
L 2137.923723 -1007.960214 
L 2135.716761 -1003.767329 
L 2138.304772 -1001.579454 
L 2135.897761 -998.839608 
L 2151.695837 -999.145497 
L 2156.91002 -1004.83466 
L 2158.640655 -1004.14139 
L 2155.938317 -998.302596 
L 2158.28182 -996.856217 
L 2157.93887 -993.022433 
L 2170.542397 -989.714014 
L 2176.591741 -983.524451 
L 2185.508507 -985.148708 
L 2192.094491 -981.670712 
L 2205.676111 -982.447114 
L 2215.232752 -972.583371 
L 2221.396392 -974.121215 
L 2225.33399 -970.934149 
L 2232.456643 -970.851017 
L 2236.638779 -972.907566 
L 2243.535943 -968.688075 
L 2260.9059 -966.139425 
L 2248.921601 -955.086967 
L 2247.092492 -946.283092 
L 2242.021242 -939.474221 
L 2243.110436 -934.381909 
L 2239.753936 -925.884759 
L 2242.032364 -921.937184 
L 2235.657552 -916.983597 
L 2223.20642 -918.863909 
L 2219.929313 -914.523066 
L 2225.149825 -913.730031 
L 2213.746624 -903.813912 
L 2206.901846 -901.332599 
L 2206.489027 -895.433965 
L 2196.940313 -889.728201 
L 2194.968334 -884.450515 
L 2197.451574 -882.873614 
L 2196.190905 -879.098029 
L 2191.913491 -877.388935 
L 2192.037342 -875.154507 
L 2197.613524 -875.789579 
L 2201.941727 -878.680729 
L 2199.88083 -881.106353 
L 2201.570172 -883.022409 
L 2208.14027 -885.388998 
L 2217.484173 -884.281774 
L 2216.35688 -882.073084 
L 2218.732152 -879.626708 
L 2216.826846 -875.83449 
L 2224.705268 -868.55263 
L 2217.906516 -865.373896 
L 2217.757255 -861.889241 
L 2228.963602 -852.005519 
L 2225.730954 -845.659665 
L 2211.820671 -842.113529 
L 2216.204454 -835.819215 
L 2224.244796 -833.061063 
L 2225.721399 -828.647093 
L 2222.793602 -828.592208 
L 2218.979825 -823.794171 
L 2221.501194 -820.650343 
L 2219.913429 -818.585493 
L 2223.498552 -814.390935 
L 2234.196803 -810.643597 
L 2244.171056 -812.277859 
L 2245.225316 -808.779917 
L 2238.709201 -802.286941 
L 2238.664373 -799.041451 
L 2228.685328 -795.506929 
L 2228.294938 -792.265589 
L 2222.861903 -791.817983 
L 2220.770804 -788.199332 
L 2215.766288 -787.562941 
L 2211.457012 -783.092703 
L 2214.605751 -783.223803 
L 2214.188723 -780.926094 
L 2204.835173 -777.36429 
L 2199.237944 -777.941195 
L 2198.834651 -775.597447 
L 2191.487031 -778.753404 
L 2188.896193 -775.884002 
L 2183.283202 -780.229124 
L 2173.238068 -781.38763 
L 2171.615584 -785.877944 
L 2163.622497 -785.234637 
L 2163.38014 -787.61062 
L 2169.53109 -789.893627 
L 2163.472652 -792.412292 
L 2164.147737 -788.252061 
L 2158.526881 -788.000703 
L 2158.145986 -785.437415 
L 2155.136338 -788.029497 
L 2154.66376 -791.315298 
L 2153.193548 -793.072071 
L 2154.66628 -788.03606 
L 2157.055286 -785.584666 
L 2130.407485 -791.812739 
L 2104.630947 -777.861923 
L 2102.413109 -762.507807 
L 2106.68785 -756.151593 
L 2099.09059 -757.397961 
L 2090.748562 -753.176829 
L 2078.926182 -756.059647 
L 2070.269778 -753.487705 
L 2061.55939 -758.15358 
L 2061.861077 -761.890108 
L 2052.868052 -761.424615 
L 2050.203812 -765.068842 
L 2033.92941 -769.024815 
L 2029.118521 -769.243454 
L 2028.727947 -764.2908 
L 2007.756983 -764.312419 
L 1999.035472 -769.374779 
L 1991.46986 -767.127065 
L 1985.612638 -772.720614 
L 1973.621978 -774.625859 
L 1969.439842 -777.954256 
L 1964.182829 -775.891884 
L 1965.830907 -782.270167 
L 1959.121072 -782.388205 
L 1953.75766 -786.486312 
L 1957.919303 -787.300355 
L 1963.576445 -793.103471 
L 1970.324993 -824.502915 
L 1972.49782 -828.023024 
L 1976.85349 -828.150006 
L 1972.936631 -831.651777 
L 1970.228732 -826.799016 
L 1975.608306 -857.092298 
L 1985.412343 -849.275839 
L 1986.955096 -843.112721 
L 1992.525963 -835.406193 
L 1990.635651 -839.578199 
L 1993.782392 -838.720757 
L 1988.797878 -841.973807 
L 1984.512199 -854.135099 
L 1970.630028 -861.624306 
L 1973.195426 -864.7386 
L 1978.622531 -861.863889 
L 1973.566735 -866.715299 
L 1976.73225 -872.205544 
L 1971.751453 -876.57264 
L 1974.825684 -880.694908 
L 1970.851308 -880.101886 
L 1953.78989 -886.867195 
L 1950.27187 -893.213564 
L 1943.854597 -897.337151 
L 1947.788968 -904.267374 
L 1940.095264 -907.712876 
L 1942.428136 -908.529718 
L 1942.570638 -911.853483 
L 1955.890237 -909.909502 
L 1947.192631 -913.415198 
L 1938.950089 -911.056233 
L 1930.851309 -912.784212 
L 1934.101839 -913.006777 
L 1930.408749 -915.458654 
L 1935.464545 -916.758555 
L 1932.30281 -918.931631 
L 1936.322167 -919.413371 
L 1928.085893 -919.853224 
L 1929.088536 -920.151682 
L 1929.781165 -920.950218 
L 1922.397504 -919.18952 
L 1919.567074 -921.094219 
L 1924.72288 -920.866442 
L 1926.34561 -922.573478 
L 1926.488142 -923.171712 
L 1925.795544 -923.806623 
L 1919.254511 -922.288082 
L 1917.556751 -924.484707 
L 1918.624407 -921.170144 
L 1912.991046 -922.392833 
L 1912.732251 -918.514041 
L 1910.615651 -923.705828 
L 1913.152321 -926.682652 
L 1910.843198 -927.14213 
L 1909.890545 -924.246475 
L 1905.771149 -925.563395 
L 1908.095265 -925.364413 
L 1905.771149 -926.003248 
L 1908.095265 -928.459082 
L 1903.06199 -925.796416 
L 1881.992429 -932.852333 
L 1880.363431 -929.296868 
L 1874.630031 -929.097885 
L 1872.699745 -934.517449 
L 1863.682079 -936.606749 
L 1877.285452 -939.012813 
L 1874.401254 -942.776398 
L 1868.925388 -941.001287 
L 1866.810078 -944.535809 
L 1869.256694 -946.458846 
L 1870.214355 -944.818567 
L 1877.778032 -944.579016 
L 1880.29344 -945.194269 
L 1872.113393 -946.090994 
L 1877.146699 -949.185631 
z
M 2068.79001 -756.786986 
L 2070.38727 -756.55091 
L 2069.069452 -757.769545 
z
" clip-path="url(#pe4bf33159d)" style="fill: #eeeeee; stroke: #000000; stroke-width: 0.3"/>
    <path d="M 330.909413 534.10513 
L 338.273379 529.037751 
L 344.584683 517.157352 
L 343.325611 508.33102 
L 349.721039 497.778994 
L 349.973505 492.367473 
L 342.407892 484.236053 
L 337.322324 474.09634 
L 334.859731 451.208362 
L 340.248553 440.821763 
L 347.936666 434.043038 
L 351.841265 424.125922 
L 383.718365 435.03528 
L 399.312183 451.435398 
L 402.687702 450.299123 
L 400.802428 456.946619 
L 404.137943 452.093858 
L 410.510173 457.945425 
L 412.776803 465.651952 
L 409.841325 469.526787 
L 413.214355 467.649596 
L 414.054494 459.16287 
L 417.36251 460.546546 
L 422.046997 475.35741 
L 400.34638 507.552946 
L 398.688777 515.732559 
L 390.045093 532.602193 
L 381.1251 539.027865 
L 372.289294 538.304643 
L 373.343554 536.527409 
L 369.966407 533.353662 
L 364.199731 536.65378 
L 357.040577 532.740178 
L 346.387491 540.925454 
z
" clip-path="url(#pe4bf33159d)" style="fill: #eeeeee; stroke: #000000; stroke-width: 0.3"/>
    <path d="M 2271.622034 -754.402027 
L 2275.015065 -756.099893 
L 2276.540306 -760.902885 
L 2289.097254 -765.819764 
L 2294.453108 -763.977897 
L 2296.128347 -774.561773 
L 2299.733933 -774.12192 
L 2299.083827 -762.878265 
L 2301.701733 -760.4002 
L 2302.66938 -746.98482 
L 2297.863622 -740.756233 
L 2297.816122 -732.825886 
L 2294.453108 -730.25092 
L 2296.248389 -728.796562 
L 2291.950205 -724.518485 
L 2292.332759 -722.082309 
L 2279.078205 -728.153801 
L 2283.101309 -732.446259 
L 2274.88003 -734.223975 
L 2279.498274 -739.275687 
L 2273.62483 -739.078023 
L 2272.76472 -741.272011 
L 2277.640468 -744.090453 
L 2272.134615 -748.979857 
L 2275.882703 -751.050788 
z
" clip-path="url(#pe4bf33159d)" style="fill: #eeeeee; stroke: #000000; stroke-width: 0.3"/>
    <path d="M 127.997321 131.306694 
L 138.448945 133.533433 
L 136.661192 137.100641 
L 140.565545 143.677424 
L 138.716496 145.410647 
L 138.78025 143.227116 
L 132.60306 143.525573 
L 131.487873 141.920651 
L 134.863392 140.362861 
L 129.837614 137.083622 
z
" clip-path="url(#pe4bf33159d)" style="fill: #eeeeee; stroke: #000000; stroke-width: 0.3"/>
    <path d="M 3705.743458 1285.509036 
L 3707.648764 1281.7127 
L 3716.587653 1280.524081 
L 3725.071476 1289.603797 
L 3723.766256 1295.573177 
L 3716.485124 1296.390051 
L 3709.559048 1293.284926 
z
" clip-path="url(#pe4bf33159d)" style="fill: #eeeeee; stroke: #000000; stroke-width: 0.3"/>
    <path d="M 3392.874598 1017.476212 
L 3394.359835 1015.829403 
L 3397.735353 1018.26426 
L 3397.295282 1026.176301 
L 3394.554876 1026.61091 
L 3393.489709 1023.914238 
L 3395.762545 1024.087033 
z
" clip-path="url(#pe4bf33159d)" style="fill: #eeeeee; stroke: #000000; stroke-width: 0.3"/>
    <path d="M 118.020764 85.015249 
L 120.529905 77.689667 
L 123.504127 82.974399 
L 129.715083 86.057261 
L 120.54115 87.687052 
z
" clip-path="url(#pe4bf33159d)" style="fill: #eeeeee; stroke: #000000; stroke-width: 0.3"/>
    <path d="M 110.242045 84.152562 
L 112.069832 82.444208 
L 117.790728 85.010005 
L 117.350657 93.11839 
L 113.388786 95.832113 
z
" clip-path="url(#pe4bf33159d)" style="fill: #eeeeee; stroke: #000000; stroke-width: 0.3"/>
    <path d="M 1961.15106 -879.057235 
L 1968.762237 -877.614652 
L 1969.582374 -875.982223 
L 1962.735046 -877.638202 
z
" clip-path="url(#pe4bf33159d)" style="fill: #eeeeee; stroke: #000000; stroke-width: 0.3"/>
    <path d="M 124.539276 96.385854 
L 126.497091 93.898621 
L 128.779943 96.381929 
L 126.294553 98.257834 
z
" clip-path="url(#pe4bf33159d)" style="fill: #eeeeee; stroke: #000000; stroke-width: 0.3"/>
    <path d="M 3400.040727 1020.900739 
L 3400.250762 1018.924039 
L 3400.250762 1020.900739 
z
" clip-path="url(#pe4bf33159d)" style="fill: #eeeeee; stroke: #000000; stroke-width: 0.3"/>
    <path d="M 2299.503896 -763.098191 
L 2300.289007 -762.219805 
L 2300.126473 -762.187086 
z
" clip-path="url(#pe4bf33159d)" style="fill: #eeeeee; stroke: #000000; stroke-width: 0.3"/>
    <path d="M 2198.408098 -774.430866 
L 2198.683147 -774.730643 
L 2201.051045 -774.526448 
z
" clip-path="url(#pe4bf33159d)" style="fill: #eeeeee; stroke: #000000; stroke-width: 0.3"/>
    <path d="M 1965.786786 -872.66766 
L 1970.620043 -871.014287 
L 1971.800213 -864.978151 
z
" clip-path="url(#pe4bf33159d)" style="fill: #eeeeee; stroke: #000000; stroke-width: 0.3"/>
    <path d="M 1938.419994 -904.196692 
L 1941.357961 -903.912615 
L 1943.123224 -900.228881 
z
" clip-path="url(#pe4bf33159d)" style="fill: #eeeeee; stroke: #000000; stroke-width: 0.3"/>
    <path d="M 1935.738334 -894.205839 
L 1938.341247 -894.125988 
L 1939.240131 -893.394209 
z
" clip-path="url(#pe4bf33159d)" style="fill: #eeeeee; stroke: #000000; stroke-width: 0.3"/>
    <path d="M 1908.726629 -915.458654 
L 1914.720053 -912.843119 
L 1909.913067 -913.171722 
z
" clip-path="url(#pe4bf33159d)" style="fill: #eeeeee; stroke: #000000; stroke-width: 0.3"/>
    <path d="M 1851.24889 -950.045679 
L 1852.509098 -950.76829 
L 1852.626621 -949.688315 
z
" clip-path="url(#pe4bf33159d)" style="fill: #eeeeee; stroke: #000000; stroke-width: 0.3"/>
    <path d="M 131.925425 84.37117 
L 133.5382 83.114475 
L 132.633048 84.473283 
z
" clip-path="url(#pe4bf33159d)" style="fill: #eeeeee; stroke: #000000; stroke-width: 0.3"/>
    <path d="M 116.438007 98.608668 
L 116.921861 98.031345 
L 116.853099 98.642705 
z
" clip-path="url(#pe4bf33159d)" style="fill: #eeeeee; stroke: #000000; stroke-width: 0.3"/>
    <path d="M 115.12781 98.9189 
L 115.811682 98.698974 
L 115.459115 99.119202 
z
" clip-path="url(#pe4bf33159d)" style="fill: #eeeeee; stroke: #000000; stroke-width: 0.3"/>
    <path d="M 68.77933 27.591398 
L 72.748697 25.923644 
L 72.751155 28.778794 
L 70.003283 27.698755 
z
" clip-path="url(#pe4bf33159d)" style="fill: #eeeeee; stroke: #000000; stroke-width: 0.3"/>
    <path d="M 70.290806 28.696274 
L 70.652129 27.970639 
L 72.751155 28.778794 
z
" clip-path="url(#pe4bf33159d)" style="fill: #eeeeee; stroke: #000000; stroke-width: 0.3"/>
    <path d="M 2114.985081 -1048.858509 
L 2127.276997 -1051.466162 
L 2135.073199 -1046.155242 
L 2140.554073 -1046.219393 
L 2131.487646 -1050.806382 
L 2138.221201 -1050.806382 
L 2135.323238 -1052.386436 
L 2137.28855 -1053.881395 
L 2127.622037 -1058.070451 
L 2134.238069 -1058.955369 
L 2132.332793 -1063.592128 
L 2136.210877 -1064.1681 
L 2147.465155 -1074.809564 
L 2154.756273 -1095.117236 
L 2158.699401 -1093.069823 
L 2164.97789 -1094.679989 
L 2174.229311 -1099.291848 
L 2180.752831 -1105.901382 
L 2192.712213 -1109.223795 
L 2218.776273 -1110.655922 
L 2220.971621 -1107.47751 
L 2230.005541 -1104.042495 
L 2229.951159 -1096.095548 
L 2225.15299 -1084.815345 
L 2215.947226 -1084.407182 
L 2213.940313 -1081.414658 
L 2215.26449 -1078.836893 
L 2223.20642 -1078.509384 
L 2225.50866 -1075.732991 
L 2224.835449 -1071.407912 
L 2213.978442 -1065.598233 
L 2218.211367 -1062.719565 
L 2203.900985 -1058.232436 
L 2197.203871 -1060.665525 
L 2198.099376 -1058.906564 
L 2191.195821 -1058.057036 
L 2199.610913 -1046.564821 
L 2195.041367 -1038.627107 
L 2197.826263 -1036.714397 
L 2188.76976 -1033.191489 
L 2189.449301 -1030.701875 
L 2195.260466 -1028.841509 
L 2193.145586 -1023.770816 
L 2184.285968 -1023.908801 
L 2181.764599 -1026.356045 
L 2188.05209 -1036.849873 
L 2177.731723 -1041.034458 
L 2169.196006 -1040.140018 
L 2163.422939 -1047.155849 
L 2159.821932 -1044.424335 
L 2155.268271 -1045.115128 
L 2157.129118 -1045.125101 
L 2155.776367 -1047.7527 
L 2151.213181 -1045.27055 
L 2146.694424 -1047.076063 
L 2143.439562 -1046.064421 
L 2143.903168 -1043.089335 
L 2131.815203 -1046.393506 
L 2126.541876 -1044.397182 
z
" clip-path="url(#pe4bf33159d)" style="fill: #eeeeee; stroke: #000000; stroke-width: 0.3"/>
    <path d="M 2111.863288 -1043.88771 
L 2117.760514 -1045.223193 
L 2126.75191 -1042.859017 
L 2131.365116 -1045.021605 
L 2138.657646 -1043.655365 
L 2135.507156 -1040.579742 
L 2125.974327 -1038.421786 
L 2119.855146 -1041.15996 
L 2113.161196 -1039.755146 
z
" clip-path="url(#pe4bf33159d)" style="fill: #eeeeee; stroke: #000000; stroke-width: 0.3"/>
    <path d="M -93.157189 214.614843 
L -91.904508 212.909095 
L -86.832459 215.545573 
L -86.641197 219.080063 
L -88.143916 222.123676 
L -89.629153 216.354597 
z
" clip-path="url(#pe4bf33159d)" style="fill: #eeeeee; stroke: #000000; stroke-width: 0.3"/>
    <path d="M 2153.596104 -1097.075597 
L 2158.101804 -1102.199309 
L 2159.276997 -1099.7317 
L 2156.299026 -1096.169736 
z
" clip-path="url(#pe4bf33159d)" style="fill: #eeeeee; stroke: #000000; stroke-width: 0.3"/>
    <path d="M 73.378801 45.114666 
L 74.978826 46.409162 
L 74.559187 47.078754 
L 73.872088 46.977316 
z
" clip-path="url(#pe4bf33159d)" style="fill: #eeeeee; stroke: #000000; stroke-width: 0.3"/>
    <path d="M 2207.284492 -1114.114518 
L 2208.974756 -1113.648478 
L 2208.554686 -1113.410214 
z
" clip-path="url(#pe4bf33159d)" style="fill: #eeeeee; stroke: #000000; stroke-width: 0.3"/>
    <path d="M 2197.217912 -1110.955699 
L 2202.851304 -1112.700697 
L 2203.708925 -1112.310614 
z
" clip-path="url(#pe4bf33159d)" style="fill: #eeeeee; stroke: #000000; stroke-width: 0.3"/>
    <path d="M 2182.120545 -1110.59441 
L 2190.654389 -1111.404721 
L 2191.907069 -1110.993662 
z
" clip-path="url(#pe4bf33159d)" style="fill: #eeeeee; stroke: #000000; stroke-width: 0.3"/>
    <path d="M 2167.728313 -1108.006382 
L 2170.263692 -1109.235602 
L 2180.560309 -1110.752791 
z
" clip-path="url(#pe4bf33159d)" style="fill: #eeeeee; stroke: #000000; stroke-width: 0.3"/>
    <path d="M 2159.817077 -1102.995239 
L 2162.162424 -1105.489004 
L 2165.797997 -1106.121308 
z
" clip-path="url(#pe4bf33159d)" style="fill: #eeeeee; stroke: #000000; stroke-width: 0.3"/>
    <path d="M 2122.226209 -1054.101321 
L 2126.144328 -1055.888207 
L 2134.905688 -1052.860326 
z
" clip-path="url(#pe4bf33159d)" style="fill: #eeeeee; stroke: #000000; stroke-width: 0.3"/>
    <path d="M 65.568834 41.957197 
L 66.417699 41.781764 
L 65.966383 42.249124 
z
" clip-path="url(#pe4bf33159d)" style="fill: #eeeeee; stroke: #000000; stroke-width: 0.3"/>
    <path d="M -245.965463 313.141634 
L -233.512734 293.270308 
L -231.342303 273.300086 
L -218.57363 251.169399 
L -211.438288 250.072116 
L -202.343656 233.760277 
L -183.495498 227.683766 
L -184.126401 230.654895 
L -202.019202 236.03389 
L -198.836205 248.074762 
L -191.755092 254.574301 
L -196.124527 254.563813 
L -190.213598 264.028433 
L -191.850123 272.621197 
L -202.281745 283.826857 
L -207.053736 292.822798 
L -203.199372 298.335306 
L -201.599132 301.98896 
L -202.859341 299.772678 
L -203.085629 304.625407 
L -200.741511 303.307167 
L -198.451131 305.264242 
L -200.182658 305.418731 
L -200.321442 307.022334 
L -195.075613 307.022334 
L -197.59477 311.893401 
L -195.388176 311.754644 
L -194.277997 316.930699 
L -189.64227 318.061763 
L -179.913263 314.388484 
L -174.424893 308.890389 
L -173.602267 295.460596 
L -186.928103 274.300725 
L -190.423633 261.192972 
L -186.207975 261.611881 
L -185.180323 257.658482 
L -187.904506 256.341562 
L -148.882109 243.744407 
L -146.528559 239.935685 
L -142.904968 240.870919 
L -146.747688 236.764479 
L -135.481304 241.005751 
L -133.906075 238.861501 
L -136.13015 232.738952 
L -148.28955 235.460524 
L -148.173288 230.144361 
L -151.061234 227.447689 
L -148.105785 219.280365 
L -142.327373 216.484185 
L -136.72277 222.394659 
L -134.013581 234.714332 
L -130.217993 240.006913 
L -119.366302 237.810288 
L -106.854335 240.486048 
L -92.724645 248.612771 
L -88.887794 257.452969 
L -91.904508 257.658482 
L -87.671338 258.756795 
L -90.531786 260.538437 
L -89.154086 266.061433 
L -84.313333 271.535978 
L -76.19707 272.678784 
L -49.987958 267.562922 
L -27.359421 266.246002 
L -20.313334 268.680892 
L -22.638679 270.915481 
L -16.517746 278.148086 
L 9.26128 285.698837 
L 18.705254 284.319086 
L 20.53556 279.904858 
L 28.175496 279.22938 
L 30.992192 277.55117 
L 28.329274 276.519614 
L 36.773094 271.86191 
L 53.165633 271.317338 
L 41.587577 268.243645 
L 35.380369 270.657591 
L 34.2477 265.586223 
L 45.17439 266.925406 
L 48.338645 264.269303 
L 56.289884 266.986951 
L 68.325525 263.591186 
L 99.277839 265.14637 
L 108.754319 263.389597 
L 105.168766 266.246002 
L 96.252368 266.882199 
L 93.724486 270.169288 
L 83.665402 268.984594 
L 75.64666 270.149663 
L 72.958732 272.635578 
L 77.684482 270.126081 
L 78.479609 274.139705 
L 73.438807 274.105668 
L 73.168767 278.368012 
L 75.391614 278.038122 
L 75.057819 274.192081 
L 80.527417 274.508877 
L 84.764336 283.019152 
L 83.84167 284.583506 
L 80.128609 284.444749 
L 78.737145 285.874238 
L 76.316768 283.898858 
L 72.748697 283.898858 
L 79.402244 287.356135 
L 79.897313 284.982758 
L 81.995141 285.670044 
L 85.011855 284.279804 
L 86.197064 280.006972 
L 94.223303 296.678041 
L 96.112355 288.052558 
L 97.195005 289.209777 
L 97.388786 298.875953 
L 99.27535 296.037886 
L 98.018891 289.389103 
L 103.175956 291.267646 
L 97.212518 288.777775 
L 97.979071 286.594307 
L 109.19439 293.921111 
L 108.754319 298.454438 
L 110.772139 294.973611 
L 111.90232 300.21253 
L 112.279867 297.070762 
L 109.295137 292.788021 
L 116.535528 294.241864 
L 115.177 290.484102 
L 121.766547 295.71234 
L 119.28297 292.388801 
L 121.247206 293.069427 
L 128.409894 300.823859 
L 133.105626 300.698196 
L 138.971543 304.724914 
L 141.334403 309.311904 
L 132.115458 316.103369 
L 131.29784 318.064369 
L 135.996061 313.527116 
L 131.677906 320.674659 
L 128.304876 331.977189 
L 114.491468 331.736319 
L 116.344266 333.699956 
L 126.013267 338.792236 
L 129.178751 335.697599 
L 133.923244 335.45541 
L 132.344265 336.564211 
L 132.531779 338.595892 
L 135.491007 333.040177 
L 144.189842 332.117265 
L 150.750877 334.443511 
L 154.038891 331.128915 
L 164.820591 333.618787 
L 170.710412 343.685502 
L 153.950926 357.24588 
L 149.311543 357.575062 
L 143.01849 366.83864 
L 146.975967 373.121309 
L 146.157489 377.593509 
L 148.628009 379.704912 
L 154.035081 378.200302 
L 156.138071 382.000852 
L 153.871533 385.719911 
L 143.947332 391.236151 
L 137.580447 389.686693 
L 136.77389 392.373327 
L 130.751553 392.884569 
L 128.227819 397.852184 
L 131.005586 409.909625 
L 122.551627 417.665311 
L 145.054776 442.60897 
L 146.642542 451.284834 
L 137.941678 457.46362 
L 135.438591 463.047195 
L 125.044392 463.503552 
L 125.736652 465.843568 
L 119.320577 467.329872 
L 117.311267 472.26258 
L 99.296673 477.353219 
L 90.862563 474.364846 
L 86.780466 479.042335 
L 81.145539 479.163719 
L 80.985186 491.184581 
L 76.688753 494.387444 
L 62.484741 481.585998 
L 57.60085 484.937655 
L 52.656585 481.987502 
L 41.408974 484.038228 
L 38.058834 476.701515 
L 24.448671 476.433846 
L 18.243736 471.107935 
L 17.585611 473.483693 
L 22.813282 481.127968 
L 36.329765 493.29682 
L 35.716898 508.440758 
L 42.641069 521.601274 
L 41.092232 529.438419 
L 61.467013 531.071009 
L 61.841701 536.017036 
L 60.639778 539.795934 
L 41.440743 546.94145 
L 39.710077 556.742876 
L 31.722121 565.003949 
L 29.999413 560.446139 
L 20.110145 568.808618 
L 16.779055 568.060495 
L 7.639165 572.690627 
L 5.602879 579.224332 
L 1.788334 579.659938 
L -4.831785 588.055682 
L -6.204415 585.166205 
L -4.089535 580.424694 
L -6.471936 577.300813 
L -11.062128 577.605029 
L -23.012293 585.423901 
L -27.642181 584.950075 
L -45.769505 569.614972 
L -56.283561 536.041969 
L -55.437277 531.913909 
L -67.292993 522.367702 
L -68.860112 518.432513 
L -75.906537 519.193955 
L -75.374629 516.093334 
L -59.116111 500.078248 
L -64.965375 489.333352 
L -69.018897 487.919369 
L -76.493995 463.122027 
L -73.975821 446.048746 
L -75.250808 437.170039 
L -68.566383 430.662072 
L -68.815653 422.847382 
L -62.588505 416.61458 
L -64.70022 412.231334 
L -63.433191 409.546373 
L -75.023752 405.831464 
L -79.656805 408.906283 
L -99.852952 411.543051 
L -112.936001 408.906283 
L -118.61932 413.319449 
L -121.2399 410.883851 
L -124.688512 411.981971 
L -145.752358 384.625974 
L -151.585737 385.728212 
L -163.391434 380.527834 
L -178.162257 384.946823 
L -191.569207 382.065678 
L -203.042276 383.329193 
L -206.251112 380.951794 
L -209.567916 371.457126 
L -217.940116 368.157008 
L -218.32436 353.581674 
L -213.548405 348.228352 
L -215.3235 340.137661 
L -223.984667 330.610596 
L -227.536453 315.73349 
L -232.583923 316.053535 
L -234.255813 309.896369 
L -240.478199 313.819108 
z
" clip-path="url(#pe4bf33159d)" style="fill: #eeeeee; stroke: #000000; stroke-width: 0.3"/>
    <path d="M 30.013269 256.101979 
L 31.179706 253.045304 
L 35.804187 252.110617 
L 41.058742 255.354499 
L 43.286597 251.24925 
L 47.272218 250.699434 
L 49.09002 255.899071 
L 45.698217 258.756795 
L 40.731216 259.6365 
L 37.163145 256.101979 
z
" clip-path="url(#pe4bf33159d)" style="fill: #eeeeee; stroke: #000000; stroke-width: 0.3"/>
    <path d="M 132.115458 322.915811 
L 132.610557 320.08035 
L 139.286595 316.306277 
L 138.56149 317.994974 
L 136.49239 318.568372 
z
" clip-path="url(#pe4bf33159d)" style="fill: #eeeeee; stroke: #000000; stroke-width: 0.3"/>
    <path d="M 129.51995 332.41865 
L 130.85571 327.233716 
L 142.963585 322.868904 
L 144.386819 326.186942 
L 139.454475 331.054534 
z
" clip-path="url(#pe4bf33159d)" style="fill: #eeeeee; stroke: #000000; stroke-width: 0.3"/>
    <path d="M 126.433337 335.016876 
L 127.747283 333.18154 
L 130.857769 334.37936 
L 134.234547 331.943183 
L 133.46317 334.888575 
z
" clip-path="url(#pe4bf33159d)" style="fill: #eeeeee; stroke: #000000; stroke-width: 0.3"/>
    <path d="M 131.925425 325.112436 
L 137.190027 318.483278 
L 139.706664 319.381289 
L 138.889016 321.289913 
z
" clip-path="url(#pe4bf33159d)" style="fill: #eeeeee; stroke: #000000; stroke-width: 0.3"/>
    <path d="M 22.632128 228.344381 
L 23.911079 226.12945 
L 25.45881 227.473845 
L 25.272525 228.784234 
z
" clip-path="url(#pe4bf33159d)" style="fill: #eeeeee; stroke: #000000; stroke-width: 0.3"/>
    <path d="M -70.343628 223.216744 
L -69.548531 223.400027 
L -69.198453 223.52569 
L -70.06735 223.462859 
z
" clip-path="url(#pe4bf33159d)" style="fill: #eeeeee; stroke: #000000; stroke-width: 0.3"/>
    <path d="M 140.635598 331.209827 
L 144.693668 327.026561 
L 146.487351 331.086449 
z
" clip-path="url(#pe4bf33159d)" style="fill: #eeeeee; stroke: #000000; stroke-width: 0.3"/>
    <path d="M 139.49663 315.647817 
L 139.995447 313.360853 
L 143.082183 313.191983 
z
" clip-path="url(#pe4bf33159d)" style="fill: #eeeeee; stroke: #000000; stroke-width: 0.3"/>
    <path d="M 135.929819 317.166357 
L 139.246591 313.156658 
L 138.128915 316.227745 
z
" clip-path="url(#pe4bf33159d)" style="fill: #eeeeee; stroke: #000000; stroke-width: 0.3"/>
    <path d="M 118.145599 333.380683 
L 125.07444 333.190773 
L 126.638794 336.8978 
z
" clip-path="url(#pe4bf33159d)" style="fill: #eeeeee; stroke: #000000; stroke-width: 0.3"/>
    <path d="M 94.859644 287.751462 
L 95.217219 286.442392 
L 96.784952 286.78145 
z
" clip-path="url(#pe4bf33159d)" style="fill: #eeeeee; stroke: #000000; stroke-width: 0.3"/>
    <path d="M 93.281895 291.335689 
L 94.294554 290.906325 
L 94.007031 292.240264 
z
" clip-path="url(#pe4bf33159d)" style="fill: #eeeeee; stroke: #000000; stroke-width: 0.3"/>
    <path d="M 90.613999 285.72895 
L 90.900293 285.643856 
L 91.451619 288.110145 
z
" clip-path="url(#pe4bf33159d)" style="fill: #eeeeee; stroke: #000000; stroke-width: 0.3"/>
    <path d="M 80.016095 271.369714 
L 81.058741 272.419576 
L 83.742921 277.253999 
z
" clip-path="url(#pe4bf33159d)" style="fill: #eeeeee; stroke: #000000; stroke-width: 0.3"/>
    <path d="M 53.515712 103.829249 
L 53.793249 103.829249 
L 53.76575 104.040006 
z
" clip-path="url(#pe4bf33159d)" style="fill: #eeeeee; stroke: #000000; stroke-width: 0.3"/>
    <path d="M 42.427716 262.27166 
L 45.526957 262.220603 
L 45.356926 263.563711 
z
" clip-path="url(#pe4bf33159d)" style="fill: #eeeeee; stroke: #000000; stroke-width: 0.3"/>
    <path d="M 35.777917 261.281991 
L 36.315509 260.611756 
L 37.195652 261.515011 
z
" clip-path="url(#pe4bf33159d)" style="fill: #eeeeee; stroke: #000000; stroke-width: 0.3"/>
    <path d="M -0.810277 257.476518 
L 5.544471 258.132373 
L 4.325526 258.756795 
z
" clip-path="url(#pe4bf33159d)" style="fill: #eeeeee; stroke: #000000; stroke-width: 0.3"/>
    <path d="M -24.854029 228.748909 
L -24.400224 228.572157 
L -22.386152 229.963716 
z
" clip-path="url(#pe4bf33159d)" style="fill: #eeeeee; stroke: #000000; stroke-width: 0.3"/>
    <path d="M -40.528991 229.861603 
L -37.782317 228.544683 
L -38.603683 230.558026 
z
" clip-path="url(#pe4bf33159d)" style="fill: #eeeeee; stroke: #000000; stroke-width: 0.3"/>
    <path d="M -44.012016 227.031386 
L -43.918274 226.962024 
L -40.75276 227.133499 
z
" clip-path="url(#pe4bf33159d)" style="fill: #eeeeee; stroke: #000000; stroke-width: 0.3"/>
    <path d="M -45.140967 230.882671 
L -41.251608 229.895641 
L -44.317082 231.047616 
z
" clip-path="url(#pe4bf33159d)" style="fill: #eeeeee; stroke: #000000; stroke-width: 0.3"/>
    <path d="M -70.408641 221.393215 
L -70.337391 221.326458 
L -70.381143 221.454727 
z
" clip-path="url(#pe4bf33159d)" style="fill: #eeeeee; stroke: #000000; stroke-width: 0.3"/>
    <path d="M -70.427414 221.988844 
L -70.416138 221.918162 
L -70.398656 222.017637 
z
" clip-path="url(#pe4bf33159d)" style="fill: #eeeeee; stroke: #000000; stroke-width: 0.3"/>
    <path d="M -70.548685 222.054281 
L -70.472426 221.978356 
L -70.513659 222.077863 
z
" clip-path="url(#pe4bf33159d)" style="fill: #eeeeee; stroke: #000000; stroke-width: 0.3"/>
    <path d="M -70.637449 220.84208 
L -70.543677 220.83423 
L -70.532432 220.894456 
z
" clip-path="url(#pe4bf33159d)" style="fill: #eeeeee; stroke: #000000; stroke-width: 0.3"/>
    <path d="M -70.772454 220.664073 
L -70.718685 220.711173 
L -70.726213 220.774004 
z
" clip-path="url(#pe4bf33159d)" style="fill: #eeeeee; stroke: #000000; stroke-width: 0.3"/>
    <path d="M 119.718525 109.133605 
L 120.331116 105.976105 
L 125.286902 107.73291 
L 126.823388 111.163967 
L 126.854635 117.188328 
L 123.591631 119.875863 
z
" clip-path="url(#pe4bf33159d)" style="fill: #eeeeee; stroke: #000000; stroke-width: 0.3"/>
    <path d="M 97.291297 72.039689 
L 97.808856 67.837571 
L 98.648995 68.036553 
z
" clip-path="url(#pe4bf33159d)" style="fill: #eeeeee; stroke: #000000; stroke-width: 0.3"/>
    <path d="M 107.89169 39.789365 
L 109.19439 42.276599 
L 108.999349 38.613808 
L 112.379876 43.093473 
L 108.964354 42.936378 
z
" clip-path="url(#pe4bf33159d)" style="fill: #eeeeee; stroke: #000000; stroke-width: 0.3"/>
    <path d="M 107.591631 60.447839 
L 109.384423 56.595234 
L 114.228925 59.469977 
L 112.092353 62.370875 
z
" clip-path="url(#pe4bf33159d)" style="fill: #eeeeee; stroke: #000000; stroke-width: 0.3"/>
    <path d="M 93.315539 64.159209 
L 93.475338 64.113975 
L 93.352255 64.213482 
z
" clip-path="url(#pe4bf33159d)" style="fill: #eeeeee; stroke: #000000; stroke-width: 0.3"/>
    <path d="M 85.206896 58.674047 
L 85.604444 55.495634 
L 87.224716 56.112207 
L 87.19095 58.658347 
z
" clip-path="url(#pe4bf33159d)" style="fill: #eeeeee; stroke: #000000; stroke-width: 0.3"/>
    <path d="M 77.803234 49.325953 
L 81.895131 50.489736 
L 84.135491 55.037444 
z
" clip-path="url(#pe4bf33159d)" style="fill: #eeeeee; stroke: #000000; stroke-width: 0.3"/>
    <path d="M 17.946843 19.292555 
L 19.616121 17.833983 
L 22.275813 19.02006 
L 20.935751 20.095016 
z
" clip-path="url(#pe4bf33159d)" style="fill: #eeeeee; stroke: #000000; stroke-width: 0.3"/>
    <path d="M 15.062184 40.059029 
L 15.63729 37.063868 
L 25.378802 37.844066 
L 21.964509 38.950228 
z
" clip-path="url(#pe4bf33159d)" style="fill: #eeeeee; stroke: #000000; stroke-width: 0.3"/>
    <path d="M 10.566501 18.475231 
L 13.376744 17.41546 
L 15.564012 20.05863 
z
" clip-path="url(#pe4bf33159d)" style="fill: #eeeeee; stroke: #000000; stroke-width: 0.3"/>
    <path d="M 77.404426 32.132575 
L 79.692286 32.572428 
L 79.124707 33.31862 
z
" clip-path="url(#pe4bf33159d)" style="fill: #eeeeee; stroke: #000000; stroke-width: 0.3"/>
    <path d="M -57.929796 18.212452 
L -52.733403 13.034498 
L -30.632442 14.042505 
L -7.251301 17.336124 
L -6.702065 22.927421 
L -10.819341 23.975739 
L -17.012815 30.801274 
L -25.157836 32.332877 
L -42.665563 29.782812 
L -55.267492 31.941893 
L -54.274036 23.309558 
z
" clip-path="url(#pe4bf33159d)" style="fill: #eeeeee; stroke: #000000; stroke-width: 0.3"/>
    <path d="M -78.422406 26.821688 
L -77.867332 26.169759 
L -75.904509 26.163228 
L -76.435833 28.133364 
z
" clip-path="url(#pe4bf33159d)" style="fill: #eeeeee; stroke: #000000; stroke-width: 0.3"/>
    <path d="M 1.577592 18.893915 
L 3.955446 19.431956 
L 2.851535 20.202985 
z
" clip-path="url(#pe4bf33159d)" style="fill: #eeeeee; stroke: #000000; stroke-width: 0.3"/>
    <path d="M -5.992352 25.923644 
L 3.369125 25.440617 
L -3.036873 27.042901 
z
" clip-path="url(#pe4bf33159d)" style="fill: #eeeeee; stroke: #000000; stroke-width: 0.3"/>
    <path d="M 74.621374 21.026229 
L 74.898941 20.289945 
L 75.574365 20.532135 
z
" clip-path="url(#pe4bf33159d)" style="fill: #eeeeee; stroke: #000000; stroke-width: 0.3"/>
    <path d="M 68.134232 24.405136 
L 72.117364 21.239785 
L 73.273784 22.5384 
z
" clip-path="url(#pe4bf33159d)" style="fill: #eeeeee; stroke: #000000; stroke-width: 0.3"/>
    <path d="M 67.941864 21.421685 
L 68.095826 21.31629 
L 68.119484 21.427894 
z
" clip-path="url(#pe4bf33159d)" style="fill: #eeeeee; stroke: #000000; stroke-width: 0.3"/>
    <path d="M 67.385254 21.204686 
L 67.45039 21.192268 
L 67.776042 21.279067 
z
" clip-path="url(#pe4bf33159d)" style="fill: #eeeeee; stroke: #000000; stroke-width: 0.3"/>
    <path d="M 65.221675 20.779697 
L 66.038832 20.748683 
L 65.547358 21.071109 
z
" clip-path="url(#pe4bf33159d)" style="fill: #eeeeee; stroke: #000000; stroke-width: 0.3"/>
    <path d="M 60.11549 10.509302 
L 60.276765 10.548584 
L 60.141729 10.780285 
z
" clip-path="url(#pe4bf33159d)" style="fill: #eeeeee; stroke: #000000; stroke-width: 0.3"/>
    <path d="M 30.013269 5.894838 
L 32.724948 5.845068 
L 34.2477 7.311233 
L 30.87467 6.491753 
z
" clip-path="url(#pe4bf33159d)" style="fill: #eeeeee; stroke: #000000; stroke-width: 0.3"/>
    <path d="M 28.944354 15.598976 
L 29.803235 13.382726 
L 32.54868 13.382726 
L 30.024515 15.160443 
z
" clip-path="url(#pe4bf33159d)" style="fill: #eeeeee; stroke: #000000; stroke-width: 0.3"/>
    <path d="M 25.991393 14.3187 
L 26.307705 14.526851 
L 26.081417 14.977192 
z
" clip-path="url(#pe4bf33159d)" style="fill: #eeeeee; stroke: #000000; stroke-width: 0.3"/>
    <path d="M 24.038587 18.412174 
L 24.796199 18.252474 
L 25.025006 19.086366 
z
" clip-path="url(#pe4bf33159d)" style="fill: #eeeeee; stroke: #000000; stroke-width: 0.3"/>
    <path d="M 20.624724 17.4282 
L 22.849906 15.338481 
L 26.686204 15.720296 
z
" clip-path="url(#pe4bf33159d)" style="fill: #eeeeee; stroke: #000000; stroke-width: 0.3"/>
    <path d="M 18.785261 15.623845 
L 18.956552 15.386932 
L 20.126736 15.76524 
z
" clip-path="url(#pe4bf33159d)" style="fill: #eeeeee; stroke: #000000; stroke-width: 0.3"/>
   </g>
   <g id="PatchCollection_2">
    <path d="M 85.206896 58.674047 
L 85.604444 55.495634 
L 87.224716 56.112207 
L 87.19095 58.658347 
z
" clip-path="url(#pe4bf33159d)" style="fill: #ff6b6b; stroke: #dd0000; stroke-width: 0.5"/>
    <path d="M 77.803234 49.325953 
L 81.895131 50.489736 
L 84.135491 55.037444 
z
" clip-path="url(#pe4bf33159d)" style="fill: #ff6b6b; stroke: #dd0000; stroke-width: 0.5"/>
   </g>
  </g>
 </g>
 <defs>
  <clipPath id="pe4bf33159d">
   <rect x="0" y="0" width="165.02795" height="108"/>
  </clipPath>
 </defs>
</svg>
