<?xml version="1.0" encoding="utf-8" standalone="no"?>
<!DOCTYPE svg PUBLIC "-//W3C//DTD SVG 1.1//EN"
  "http://www.w3.org/Graphics/SVG/1.1/DTD/svg11.dtd">
<svg xmlns:xlink="http://www.w3.org/1999/xlink" width="171.738642pt" height="108pt" viewBox="0 0 171.738642 108" xmlns="http://www.w3.org/2000/svg" version="1.1">
 <metadata>
  <rdf:RDF xmlns:dc="http://purl.org/dc/elements/1.1/" xmlns:cc="http://creativecommons.org/ns#" xmlns:rdf="http://www.w3.org/1999/02/22-rdf-syntax-ns#">
   <cc:Work>
    <dc:type rdf:resource="http://purl.org/dc/dcmitype/StillImage"/>
    <dc:date>2025-09-05T13:56:20.936378</dc:date>
    <dc:format>image/svg+xml</dc:format>
    <dc:creator>
     <cc:Agent>
      <dc:title>Matplotlib v3.10.3, https://matplotlib.org/</dc:title>
     </cc:Agent>
    </dc:creator>
   </cc:Work>
  </rdf:RDF>
 </metadata>
 <defs>
  <style type="text/css">*{stroke-linejoin: round; stroke-linecap: butt}</style>
 </defs>
 <g id="figure_1">
  <g id="patch_1">
   <path d="M 0 108 
L 171.738642 108 
L 171.738642 0 
L 0 0 
z
" style="fill: #ffffff"/>
  </g>
  <g id="axes_1">
   <g id="PatchCollection_1">
    <path d="M 126.609894 17.15191 
L 126.609894 -7.799909 
L 129.034356 -10.21434 
L 132.913344 -16.057332 
L 133.881196 -16.756276 
L 138.979322 -17.61497 
L 140.900524 -19.936158 
L 146.331043 -21.935567 
L 153.072168 -21.708953 
L 163.261179 -32.642208 
L 173.361807 -42.442806 
L 179.773644 -52.21915 
L 179.773651 -64.302239 
L 188.651969 -66.588419 
L 191.14207 -69.04222 
L 192.188999 -69.275468 
L 195.494193 -68.226968 
L 194.082242 -64.923015 
L 194.113227 -63.891229 
L 194.804919 -63.557426 
L 194.307825 -62.58325 
L 194.612225 -59.929268 
L 193.606622 -58.824193 
L 195.011206 -58.878066 
L 194.715502 -59.689716 
L 196.178665 -59.126597 
L 196.194268 -58.567235 
L 194.140954 -58.644657 
L 193.054148 -58.110571 
L 192.405872 -52.006709 
L 189.796732 -48.434984 
L 187.468073 -43.548163 
L 185.685701 -42.021675 
L 185.150828 -39.704062 
L 181.832329 -34.472396 
L 180.42176 -29.993857 
L 173.156937 -18.655177 
L 160.460206 -5.200142 
L 150.45741 0.82156 
L 144.50531 5.88996 
L 133.237082 18.01869 
L 133.109345 17.310962 
L 132.659267 19.429219 
L 132.283116 19.15521 
L 132.333125 19.783083 
L 130.319192 22.699864 
L 130.23761 21.869645 
z
" clip-path="url(#p542c1064ea)" style="fill: #eeeeee; stroke: #000000; stroke-width: 0.3"/>
    <path d="M 79.27845 10.561531 
L 80.55833 8.967427 
L 80.98841 7.242726 
L 82.581012 5.816712 
L 83.242353 4.024642 
L 85.318885 3.020244 
L 85.192551 1.967577 
L 86.486237 0.181933 
L 86.711981 -1.583052 
L 85.771054 -4.477279 
L 86.158332 -5.349704 
L 85.838015 -6.115149 
L 82.888211 -10.08584 
L 82.53614 -12.067365 
L 82.926184 -13.350121 
L 81.00774 -14.075283 
L 81.358428 -14.740018 
L 80.555571 -14.758776 
L 79.83624 -17.059641 
L 82.535452 -19.751044 
L 89.417973 -22.507988 
L 89.314569 -21.809393 
L 90.481587 -21.660759 
L 90.156594 -20.828389 
L 90.747461 -19.750076 
L 91.607507 -20.160797 
L 92.81937 -19.745493 
L 93.624305 -18.565012 
L 100.132091 -18.073757 
L 107.387516 -12.979899 
L 110.106747 -13.236381 
L 116.755361 -11.573154 
L 119.053489 -14.691219 
L 125.167097 -17.498104 
L 127.833861 -15.197932 
L 132.656541 -15.430104 
L 129.034356 -10.21434 
L 126.513938 -7.61341 
L 126.609894 17.15191 
L 130.23761 21.869645 
L 130.319192 22.699864 
L 128.633579 24.529348 
L 128.207968 24.219786 
L 126.831644 25.025959 
L 126.785983 24.080863 
L 126.379936 25.2327 
L 125.816796 24.495435 
L 126.606608 26.368125 
L 126.376676 26.819889 
L 125.830388 26.295932 
L 125.235174 26.617523 
L 125.522181 27.414952 
L 124.411123 28.365518 
L 123.344636 28.292773 
L 121.616081 29.237325 
L 121.151869 31.01977 
L 121.621518 31.339721 
L 120.88661 33.258354 
L 119.99298 33.969913 
L 119.839147 33.620424 
L 119.170552 35.604684 
L 118.602523 35.269416 
L 119.177619 36.131928 
L 118.638945 37.625593 
L 117.953499 37.625593 
L 118.364442 37.971802 
L 118.058412 38.507789 
L 117.798036 37.986016 
L 117.13053 38.449817 
L 117.833911 38.935487 
L 116.032517 42.409594 
L 115.393278 42.180976 
L 114.659459 42.73556 
L 105.177062 35.866562 
L 104.758718 35.004561 
L 104.029034 34.912179 
L 103.936531 34.237026 
L 104.703493 33.574374 
L 104.334857 31.770496 
L 79.349552 18.037528 
L 79.678846 12.336933 
z
" clip-path="url(#p542c1064ea)" style="fill: #eeeeee; stroke: #000000; stroke-width: 0.3"/>
    <path d="M 126.539747 25.546092 
L 127.105606 25.074086 
L 127.782349 25.494128 
L 126.702818 26.066219 
z
" clip-path="url(#p542c1064ea)" style="fill: #eeeeee; stroke: #000000; stroke-width: 0.3"/>
    <path d="M 71.061044 102.676109 
L 72.061338 102.218364 
L 73.297728 100.028981 
L 73.400591 98.11223 
L 72.916669 97.121723 
L 73.475835 96.065239 
L 75.650393 95.527618 
L 76.830864 94.337762 
L 75.644182 94.151613 
L 74.99803 92.88535 
L 75.407397 90.416737 
L 75.29211 89.216464 
L 74.730179 89.016423 
L 74.848224 88.026614 
L 75.921003 86.334562 
L 74.863413 84.442469 
L 76.656211 83.675633 
L 77.813216 82.384369 
L 76.871942 80.06023 
L 75.341124 78.934974 
L 75.604139 77.373511 
L 74.481659 75.833582 
L 73.222485 76.009314 
L 72.88422 74.417985 
L 74.465087 75.220246 
L 75.315582 75.09383 
L 76.242008 75.962773 
L 78.216712 75.711332 
L 79.400636 76.610842 
L 80.074407 74.994505 
L 82.112967 76.619175 
L 83.572336 78.795358 
L 83.870557 82.133614 
L 84.498074 83.563109 
L 84.087324 85.913639 
L 85.102806 87.546644 
L 85.911188 87.750166 
L 86.432395 89.081714 
L 84.108725 89.113664 
L 83.755271 90.811274 
L 82.385647 92.985373 
L 83.292061 96.567435 
L 83.631702 100.857641 
L 84.268189 101.97734 
L 85.754482 102.135014 
L 87.230423 103.40127 
L 92.327853 109.760343 
L 92.70892 111.349596 
L 91.906751 113.264613 
L 92.282981 114.913592 
L 91.912962 119.114541 
L 90.105664 119.9821 
L 89.170955 119.777886 
L 87.550045 122.443771 
L 88.740875 124.547021 
L 88.705668 126.251573 
L 88.236928 126.460647 
L 87.109612 126.289081 
L 87.458918 124.431721 
L 86.037522 123.809359 
L 82.837815 120.671145 
L 82.69147 119.231931 
L 81.546888 118.090007 
L 83.764248 114.107857 
L 83.341075 109.258147 
L 82.28762 107.992583 
L 80.328451 108.717052 
L 78.121791 108.680243 
L 77.617156 109.433188 
L 75.181653 105.797643 
L 74.246945 104.884941 
L 73.308776 105.728185 
L 72.469329 104.183389 
L 71.727221 103.891658 
L 71.772781 103.015765 
z
" clip-path="url(#p542c1064ea)" style="fill: #eeeeee; stroke: #000000; stroke-width: 0.3"/>
    <path d="M 84.370364 92.460253 
L 84.625784 91.950416 
L 85.081406 92.218537 
L 84.591271 92.784633 
z
" clip-path="url(#p542c1064ea)" style="fill: #eeeeee; stroke: #000000; stroke-width: 0.3"/>
    <path d="M 83.62342 92.024047 
L 84.180522 91.862207 
L 84.071447 92.435252 
z
" clip-path="url(#p542c1064ea)" style="fill: #eeeeee; stroke: #000000; stroke-width: 0.3"/>
    <path d="M 48.754934 44.3664 
L 49.292018 41.205268 
L 51.487283 41.29626 
L 53.291816 40.009861 
L 55.353847 36.770238 
L 55.820517 36.759814 
L 56.159129 35.170569 
L 58.613615 33.306951 
L 58.830375 32.622773 
L 58.785509 31.317617 
L 56.534324 31.082144 
L 56.049019 30.464642 
L 56.762132 29.10531 
L 56.024513 29.244926 
L 56.665488 27.855721 
L 58.844876 27.061794 
L 59.201776 25.295418 
L 58.594973 24.266018 
L 58.82244 22.013428 
L 58.198029 20.753421 
L 56.980969 20.160234 
L 56.484616 18.417474 
L 57.537383 18.513332 
L 58.462427 17.925003 
L 79.989492 18.037528 
L 104.334857 31.770496 
L 104.703493 33.574374 
L 103.936531 34.237026 
L 104.029034 34.912179 
L 104.758718 35.004561 
L 105.177062 35.866562 
L 114.823078 42.810489 
L 114.812745 43.937715 
L 114.112082 44.342441 
L 113.950641 45.224093 
L 114.339836 45.547331 
L 111.910619 51.992355 
L 112.81893 54.558552 
L 113.659286 54.783339 
L 115.256845 56.510547 
L 115.258474 57.205149 
L 116.48912 57.387824 
L 117.084876 58.349325 
L 117.043564 59.139092 
L 115.57592 60.422741 
L 115.073662 63.877695 
L 115.57592 63.225755 
L 116.34888 63.940049 
L 116.421171 65.135094 
L 115.256845 67.143421 
L 115.753124 69.8633 
L 117.084876 71.263446 
L 116.388014 70.835749 
L 115.982508 71.105927 
L 116.671762 71.371736 
L 116.716334 72.620378 
L 117.188153 72.410908 
L 117.686603 73.056281 
L 117.17619 74.793335 
L 117.732811 74.774739 
L 118.335086 76.266763 
L 118.04156 76.791816 
L 118.734067 77.32234 
L 118.000248 78.797959 
L 118.909641 78.44136 
L 119.966343 79.991357 
L 120.197904 79.399581 
L 120.951835 79.646794 
L 120.871388 80.328816 
L 121.616081 80.500005 
L 121.616081 79.853529 
L 122.39556 80.912937 
L 122.917936 80.522976 
L 122.983708 81.697233 
L 120.120056 83.95764 
L 116.716013 85.164163 
L 115.144811 86.347762 
L 112.693431 86.354012 
L 109.994913 88.005774 
L 108.420946 87.089597 
L 106.293337 87.135439 
L 105.484261 88.8129 
L 103.164733 90.06249 
L 100.973609 89.761726 
L 100.243924 89.023365 
L 98.825981 89.081714 
L 97.527459 90.074997 
L 94.681894 89.941632 
L 94.470652 89.116446 
L 92.188408 88.005774 
L 90.517796 89.294262 
L 86.432395 89.081714 
L 85.911188 87.750166 
L 85.102806 87.546644 
L 84.087324 85.913639 
L 84.498074 83.563109 
L 83.870557 82.133614 
L 83.572336 78.795358 
L 82.112967 76.619175 
L 80.074407 74.994505 
L 79.400636 76.610842 
L 78.216712 75.711332 
L 76.242008 75.962773 
L 75.315582 75.09383 
L 70.090781 73.521251 
L 69.458777 72.752332 
L 66.216963 72.200813 
L 66.207298 71.332561 
L 64.444184 71.201286 
L 63.551582 69.793324 
L 62.31105 69.011205 
L 60.470962 69.207079 
L 59.68087 68.764623 
L 56.221602 62.35206 
L 55.238561 59.348602 
L 53.878602 57.605157 
L 51.314701 55.78599 
L 50.10247 53.459076 
L 49.772494 51.637832 
L 50.683043 49.63669 
z
" clip-path="url(#p542c1064ea)" style="fill: #eeeeee; stroke: #000000; stroke-width: 0.3"/>
    <path d="M 114.65837 51.047259 
L 115.256845 50.56159 
L 115.48025 49.731344 
L 116.168416 52.914479 
L 116.732638 52.942377 
L 116.716334 52.455605 
L 117.016386 53.782462 
L 116.782647 54.734117 
L 116.168416 53.649009 
L 116.081984 54.13523 
L 114.712727 53.107544 
z
" clip-path="url(#p542c1064ea)" style="fill: #eeeeee; stroke: #000000; stroke-width: 0.3"/>
    <path d="M 117.681714 47.68528 
L 117.818695 46.833165 
L 118.602523 46.511567 
L 118.304648 46.515942 
L 117.727374 46.185601 
L 118.369872 46.281854 
L 117.955676 44.165781 
L 118.873766 44.861479 
L 119.103698 44.212275 
L 118.703629 47.637153 
z
" clip-path="url(#p542c1064ea)" style="fill: #eeeeee; stroke: #000000; stroke-width: 0.3"/>
    <path d="M 117.308282 64.698639 
L 119.368957 62.629604 
L 119.353741 63.412261 
L 118.885182 64.486978 
L 117.592571 64.969368 
z
" clip-path="url(#p542c1064ea)" style="fill: #eeeeee; stroke: #000000; stroke-width: 0.3"/>
    <path d="M 117.23006 47.554583 
L 117.742523 47.933596 
L 117.793487 48.101794 
L 117.496387 48.019997 
z
" clip-path="url(#p542c1064ea)" style="fill: #eeeeee; stroke: #000000; stroke-width: 0.3"/>
    <path d="M 118.080601 65.679213 
L 118.080628 65.39433 
L 118.739831 65.109259 
z
" clip-path="url(#p542c1064ea)" style="fill: #eeeeee; stroke: #000000; stroke-width: 0.3"/>
    <path d="M 114.818489 50.127474 
L 114.975121 50.65617 
L 114.818876 50.670008 
z
" clip-path="url(#p542c1064ea)" style="fill: #eeeeee; stroke: #000000; stroke-width: 0.3"/>
    <path d="M -65.292429 50.472984 
L -65.227679 49.854097 
L -63.557756 49.78394 
L -63.412786 45.996279 
L -63.989218 45.273201 
L -62.422845 44.394184 
L -61.594446 43.154319 
L -59.841685 42.644482 
L -59.690496 42.076994 
L -57.65539 44.132319 
L -55.519151 42.790347 
L -55.502579 41.226801 
L -53.96935 41.529649 
L -51.013335 40.044587 
L -50.461062 41.067736 
L -51.255636 41.939462 
L -50.922207 44.138569 
L -50.12625 43.836414 
L -49.105244 44.230259 
L -48.04696 43.65999 
L -45.556926 40.460657 
L -43.853866 39.61949 
L -43.354066 38.572032 
L -40.826748 37.627374 
L -38.732964 33.566732 
L -38.940058 25.96432 
L -36.806925 23.984012 
L -34.67448 19.828212 
L -33.409789 18.672397 
L -31.503081 18.120884 
L -28.553972 14.817354 
L -28.775568 12.615472 
L -27.245097 8.763904 
L -27.771821 4.467098 
L -26.404267 0.872711 
L -26.397361 -3.217273 
L -22.786217 -9.723952 
L -22.56255 -15.892191 
L -23.261169 -17.786542 
L -21.849437 -18.275539 
L -19.645195 -21.694544 
L -17.469948 -23.180123 
L -14.693422 -22.955592 
L -11.258313 -20.770894 
L -9.646381 -18.372263 
L -7.701019 -18.630136 
L -5.433957 -17.542736 
L -1.918081 -17.554887 
L 1.862199 -16.44822 
L 3.246318 -16.868625 
L 3.793755 -18.766794 
L 4.441977 -18.887484 
L 5.837143 -21.118198 
L 9.284682 -19.553953 
L 10.443752 -20.515804 
L 14.926792 -21.832593 
L 15.858054 -22.545946 
L 15.842865 -23.125766 
L 18.075407 -21.749418 
L 21.929548 -22.52077 
L 22.303708 -24.390988 
L 23.506621 -24.825977 
L 25.958689 -23.447021 
L 27.878509 -23.905976 
L 29.910857 -22.622878 
L 31.493107 -22.938225 
L 32.345672 -22.556195 
L 33.725649 -23.670336 
L 35.249908 -23.190889 
L 38.204548 -20.878035 
L 38.393007 -19.587469 
L 40.006663 -19.279756 
L 40.245178 -18.400046 
L 42.461149 -17.433337 
L 44.958784 -19.30633 
L 48.070469 -17.872843 
L 49.648918 -20.082891 
L 50.723774 -19.895001 
L 51.91391 -19.320047 
L 51.854543 -18.061774 
L 52.806511 -17.657519 
L 54.536496 -15.288056 
L 56.78008 -14.69296 
L 56.898819 -12.981633 
L 58.260849 -13.398046 
L 58.879388 -12.156972 
L 59.259079 -12.357013 
L 59.350199 -11.506478 
L 58.240143 -9.235305 
L 58.971898 -7.877008 
L 58.017853 -5.133331 
L 59.094779 -4.373438 
L 59.737477 -4.866608 
L 60.320122 -4.092473 
L 61.137132 -4.177563 
L 61.764301 -2.834026 
L 56.466328 2.975094 
L 54.867166 3.664837 
L 54.305923 5.192609 
L 52.919727 5.75767 
L 52.874167 7.950527 
L 51.288464 10.812287 
L 50.297147 17.540197 
L 50.45247 20.63048 
L 48.150896 22.446858 
L 47.464013 23.688113 
L 47.493002 26.069902 
L 45.699516 27.375058 
L 45.638767 28.224552 
L 45.866574 29.127536 
L 46.783342 29.747122 
L 46.558293 30.209034 
L 48.159526 31.774663 
L 48.028703 37.509291 
L 48.859867 38.808889 
L 49.33689 41.558124 
L 48.754934 44.3664 
L 50.683043 49.63669 
L 49.772494 51.637832 
L 50.183932 53.723024 
L 51.314701 55.78599 
L 53.878602 57.605157 
L 55.238561 59.348602 
L 58.295368 66.369635 
L 45.85208 68.311744 
L 45.87831 70.211478 
L 42.267166 73.613634 
L 43.359275 74.328378 
L 44.578412 77.108172 
L 43.719635 79.982432 
L 44.586 82.828915 
L 43.616084 84.118089 
L 42.319633 88.8129 
L 43.305085 91.092588 
L 44.929789 91.895541 
L 46.826832 94.494052 
L 49.929887 94.992773 
L 49.760063 93.578561 
L 51.931169 92.98329 
L 51.817265 101.730751 
L 50.71618 101.499453 
L 51.062039 100.558268 
L 50.428999 100.183181 
L 47.822296 101.604335 
L 46.552075 101.329272 
L 44.64192 97.927465 
L 43.538763 97.899682 
L 42.736594 95.451211 
L 39.636992 94.419728 
L 38.955626 93.711234 
L 37.496264 93.921 
L 36.043795 91.423219 
L 34.79774 90.664709 
L 34.436698 89.055322 
L 33.39222 89.229663 
L 32.884132 91.337087 
L 31.346066 92.035157 
L 29.323384 91.355145 
L 26.428117 91.296104 
L 24.025751 90.125698 
L 23.184921 90.445911 
L 22.178757 89.542927 
L 21.947496 86.536001 
L 17.954597 87.418144 
L 16.474522 88.328769 
L 15.158741 87.909923 
L 15.815252 87.102796 
L 15.670282 85.90044 
L 14.025213 85.517711 
L 13.958252 84.684192 
L 13.205096 84.376486 
L 12.08468 85.418386 
L 9.561503 84.964814 
L 6.6117 85.915723 
L 3.18281 85.51216 
L 1.423837 86.90414 
L 0.941978 84.234787 
L 1.970579 83.622842 
L 1.929848 80.983356 
L 0.9047 78.045888 
L -0.972318 76.20172 
L -1.552891 74.515226 
L -0.538097 68.129062 
L -1.806936 65.047113 
L -1.09244 61.501868 
L -1.599834 60.24881 
L -10.045395 60.268952 
L -9.437896 57.779498 
L -11.388094 57.796865 
L -11.556535 58.35741 
L -16.716105 58.35741 
L -16.774089 61.566467 
L -17.826161 62.20272 
L -17.826849 65.078371 
L -23.430992 64.609516 
L -23.490359 65.048504 
L -26.077043 65.215903 
L -26.225466 65.799366 
L -27.762844 65.363852 
L -29.5515 65.727132 
L -31.449926 63.409243 
L -32.381188 61.221944 
L -33.923395 59.719523 
L -33.739765 58.443542 
L -35.109389 56.384043 
L -35.523592 54.748956 
L -35.385522 52.895063 
L -36.546669 50.967546 
L -53.975562 50.559116 
L -57.990202 50.888356 
L -60.971585 50.377268 
L -61.83783 50.718423 
L -62.130875 51.484265 
L -63.95508 51.972623 
L -63.903675 51.501127 
L -64.308654 51.663707 
z
" clip-path="url(#p542c1064ea)" style="fill: #eeeeee; stroke: #000000; stroke-width: 0.3"/>
    <path d="M -61.980449 51.221728 
L -61.425838 50.762 
L -60.314192 50.738142 
z
" clip-path="url(#p542c1064ea)" style="fill: #eeeeee; stroke: #000000; stroke-width: 0.3"/>
    <path d="M -0.297859 98.678326 
L 13.199572 98.678326 
L 12.297994 97.255088 
L 13.40115 94.535727 
L 12.890303 92.968706 
L 12.892373 89.507503 
L 13.607557 87.962015 
L 12.977977 84.368844 
L 13.958252 84.684192 
L 14.025213 85.517711 
L 15.670282 85.90044 
L 15.815252 87.102796 
L 15.102133 87.789058 
L 16.177676 88.342661 
L 17.954597 87.418144 
L 21.947496 86.536001 
L 22.178757 89.542927 
L 23.184921 90.445911 
L 24.025751 90.125698 
L 26.428117 91.296104 
L 29.323384 91.355145 
L 31.346066 92.035157 
L 32.884132 91.337087 
L 33.39222 89.229663 
L 34.436698 89.055322 
L 34.79774 90.664709 
L 36.043795 91.423219 
L 37.496264 93.921 
L 38.955626 93.711234 
L 39.636992 94.419728 
L 42.736594 95.451211 
L 43.538763 97.899682 
L 44.64192 97.927465 
L 46.552075 101.329272 
L 47.822296 101.604335 
L 50.428999 100.183181 
L 51.062039 100.558268 
L 50.71618 101.499453 
L 51.716473 101.748817 
L 51.931169 92.98329 
L 49.760063 93.578561 
L 49.929887 94.992773 
L 46.826832 94.494052 
L 44.929789 91.895541 
L 43.305085 91.092588 
L 42.288567 88.709408 
L 43.616084 84.118089 
L 44.586 82.828915 
L 43.719635 79.982432 
L 44.578412 77.108172 
L 43.359275 74.328378 
L 42.267166 73.613634 
L 45.87831 70.211478 
L 45.85208 68.311744 
L 58.295368 66.369635 
L 60.17584 69.099421 
L 62.31105 69.011205 
L 63.551582 69.793324 
L 64.444184 71.201286 
L 66.207298 71.332561 
L 66.216963 72.200813 
L 69.458777 72.752332 
L 70.090781 73.521251 
L 72.781357 74.527035 
L 73.222485 76.009314 
L 74.481659 75.833582 
L 75.604139 77.373511 
L 75.341124 78.934974 
L 76.871942 80.06023 
L 77.813216 82.384369 
L 76.656211 83.675633 
L 74.863413 84.442469 
L 75.921003 86.334562 
L 74.848224 88.026614 
L 74.730179 89.016423 
L 75.29211 89.216464 
L 75.407397 90.416737 
L 74.99803 92.88535 
L 75.644182 94.151613 
L 76.830864 94.337762 
L 75.650393 95.527618 
L 73.475835 96.065239 
L 72.916669 97.121723 
L 73.400591 98.11223 
L 73.297728 100.028981 
L 72.061338 102.218364 
L 71.061044 102.676109 
L 71.772781 103.015765 
L 71.727221 103.891658 
L 72.469329 104.183389 
L 73.308776 105.728185 
L 74.246945 104.884941 
L 74.663906 105.482295 
L 54.704242 111.985157 
L 56.012777 116.346555 
L 50.514602 116.516736 
L 46.140637 118.586645 
L 45.638767 119.236797 
L 45.638767 121.439379 
L 44.99675 122.407647 
L 38.689853 125.27983 
L 37.089656 127.99155 
L 34.004548 131.479838 
L 31.229745 132.737069 
L 27.969636 131.484005 
L 26.049816 132.26474 
L 24.426148 131.004733 
L 22.115937 131.204774 
L 20.121562 129.457162 
L 17.766826 128.860501 
L 14.667912 128.773669 
L 9.065151 129.860027 
L 0.558841 122.486138 
L -0.286818 119.800118 
z
" clip-path="url(#p542c1064ea)" style="fill: #eeeeee; stroke: #000000; stroke-width: 0.3"/>
    <path d="M -68.723991 117.870107 
L -67.010658 116.258306 
L -66.580692 113.676248 
L -65.987113 113.24308 
L -64.744511 108.302655 
L -64.761357 106.008833 
L -64.181912 104.573142 
L -63.601379 104.416174 
L -63.515495 101.531114 
L -60.646526 98.549793 
L -60.682401 97.436244 
L -59.08539 95.991802 
L -57.653627 95.781237 
L -56.004429 93.619221 
L -54.986322 90.542736 
L -54.623757 85.991183 
L -55.392369 83.642661 
L -55.123303 83.062371 
L -56.754012 81.238359 
L -60.302443 72.416372 
L -60.32908 72.041176 
L -59.700716 71.062175 
L -59.365871 70.918877 
L -60.191017 72.348553 
L -58.780989 70.265842 
L -58.955475 70.597285 
L -57.738963 70.139506 
L -57.747118 67.397745 
L -61.280214 60.131467 
L -61.39013 57.754813 
L -63.279565 55.875395 
L -65.018467 52.27293 
L -61.497508 51.837013 
L -59.042962 50.658448 
L -36.799331 50.864739 
L -35.385522 52.895063 
L -35.523592 54.748956 
L -35.109389 56.384043 
L -33.739765 58.443542 
L -33.923395 59.719523 
L -32.381188 61.221944 
L -31.449926 63.409243 
L -29.5515 65.727132 
L -27.762844 65.363852 
L -26.225466 65.799366 
L -26.077043 65.215903 
L -23.490359 65.048504 
L -23.430992 64.609516 
L -17.826849 65.078371 
L -17.826161 62.20272 
L -16.774089 61.566467 
L -16.716105 58.35741 
L -11.556535 58.35741 
L -11.388094 57.796865 
L -9.437896 57.779498 
L -10.045395 60.268952 
L -1.599834 60.24881 
L -1.09244 61.501868 
L -1.806936 65.047113 
L -0.538097 68.129062 
L -1.552891 74.515226 
L -0.972318 76.20172 
L 0.9047 78.045888 
L 1.929848 80.983356 
L 1.970579 83.622842 
L 0.941978 84.234787 
L 1.423837 86.90414 
L 3.18281 85.51216 
L 6.6117 85.915723 
L 9.561503 84.964814 
L 12.08468 85.418386 
L 12.977977 84.368844 
L 13.607557 87.962015 
L 12.892373 89.507503 
L 12.890303 92.968706 
L 13.40115 94.535727 
L 12.297994 97.255088 
L 13.199572 98.678326 
L -0.297859 98.678326 
L -0.271629 119.945291 
L 0.849475 122.847334 
L 2.065153 123.357864 
L 4.947307 126.69126 
L 9.065151 129.860027 
L -4.259004 132.36893 
L -5.765315 131.80561 
L -8.13731 132.482846 
L -11.276949 131.296465 
L -15.051705 131.534713 
L -20.936123 130.922768 
L -22.587404 129.839193 
L -23.851407 128.171449 
L -53.728417 128.397896 
L -56.795925 126.370354 
L -57.073441 125.620179 
L -59.167226 125.222173 
L -63.169101 127.127466 
L -65.336754 127.062174 
L -66.368801 126.486347 
L -68.573965 127.158623 
L -68.146717 122.050295 
z
" clip-path="url(#p542c1064ea)" style="fill: #eeeeee; stroke: #000000; stroke-width: 0.3"/>
    <path d="M -66.893281 45.034886 
L -65.704702 43.343943 
L -64.807264 43.412017 
L -64.372355 42.251335 
L -62.790793 41.940847 
L -61.869884 40.81143 
L -61.147107 40.951045 
L -59.785765 42.452075 
L -61.594446 43.154319 
L -62.422845 44.394184 
L -63.989218 45.273201 
L -63.412786 45.996279 
L -63.557756 49.78394 
L -65.551169 50.033801 
L -65.974069 49.055889 
L -65.426144 48.040784 
L -66.803009 45.212063 
L -66.285997 45.440755 
L -66.042018 45.003736 
z
" clip-path="url(#p542c1064ea)" style="fill: #eeeeee; stroke: #000000; stroke-width: 0.3"/>
    <path d="M -68.948071 122.193405 
L -68.829385 122.231646 
L -68.704073 123.574028 
z
" clip-path="url(#p542c1064ea)" style="fill: #eeeeee; stroke: #000000; stroke-width: 0.3"/>
    <path d="M 54.704242 111.985157 
L 74.663906 105.482295 
L 77.617156 109.433188 
L 78.121791 108.680243 
L 80.328451 108.717052 
L 82.28762 107.992583 
L 83.450143 109.471395 
L 83.790478 113.932124 
L 81.546888 118.090007 
L 82.69147 119.231931 
L 82.837815 120.671145 
L 86.037522 123.809359 
L 87.458918 124.431721 
L 87.109612 126.289081 
L 88.618682 126.420363 
L 88.526867 123.539853 
L 87.550045 122.443771 
L 89.170955 119.777886 
L 90.105664 119.9821 
L 91.912962 119.114541 
L 92.282981 114.913592 
L 91.906751 113.264613 
L 92.70892 111.349596 
L 92.327853 109.760343 
L 87.230423 103.40127 
L 85.754482 102.135014 
L 84.268189 101.97734 
L 83.631702 100.857641 
L 83.292061 96.567435 
L 82.353893 93.288221 
L 84.108725 89.113664 
L 90.21888 89.34497 
L 92.188408 88.005774 
L 94.470652 89.116446 
L 94.681894 89.941632 
L 97.527459 90.074997 
L 98.825981 89.081714 
L 100.243924 89.023365 
L 100.973609 89.761726 
L 103.164733 90.06249 
L 105.484261 88.8129 
L 106.293337 87.135439 
L 108.420946 87.089597 
L 109.994913 88.005774 
L 112.693431 86.354012 
L 114.977058 86.397777 
L 116.716013 85.164163 
L 118.635145 84.773799 
L 123.475639 81.716925 
L 123.449543 82.312532 
L 124.440479 83.123079 
L 123.307672 83.628447 
L 124.208917 84.157875 
L 123.379423 84.929591 
L 123.449002 85.477071 
L 123.846894 85.320647 
L 123.449002 86.486705 
L 122.39556 87.357961 
L 123.177217 87.81574 
L 122.921737 89.596 
L 123.540323 90.865974 
L 123.571849 93.322234 
L 123.079371 93.719305 
L 123.813196 94.549551 
L 123.259841 95.315251 
L 123.819715 95.509956 
L 124.386122 97.097697 
L 122.810304 98.279064 
L 123.294628 98.815603 
L 123.406601 98.318992 
L 124.041491 98.504946 
L 123.585983 102.099918 
L 124.041491 102.466908 
L 123.668607 102.945474 
L 124.411123 105.603556 
L 123.66317 106.494503 
L 124.01649 107.15848 
L 124.716612 106.615926 
L 125.049273 107.209893 
L 124.957952 107.673687 
L 124.315454 107.673687 
L 124.269793 109.195249 
L 124.744872 108.292809 
L 125.418904 108.149518 
L 125.693407 108.510492 
L 125.148749 108.984132 
L 125.600457 108.916314 
L 125.729823 110.127219 
L 124.916646 111.349603 
L 124.361114 111.127007 
L 125.235174 112.094523 
L 124.547015 111.952871 
L 124.820977 112.599891 
L 123.592502 112.990396 
L 123.490314 113.333319 
L 124.310017 113.216278 
L 124.618765 113.675697 
L 123.951807 115.417126 
L 120.499586 118.757774 
L 120.965968 118.739729 
L 120.014722 120.325278 
L 118.618827 120.859633 
L 118.782987 121.444298 
L 119.103698 121.718858 
L 114.249063 124.662979 
L 113.990864 125.442356 
L 111.134947 125.722931 
L 107.86156 127.483501 
L 107.246781 126.832657 
L 107.561508 127.475301 
L 101.293051 130.515683 
L 99.921076 132.355012 
L 99.279118 131.472264 
L 98.910576 131.449293 
L 99.875415 132.584718 
L 96.506907 136.011236 
L 96.069874 137.546474 
L 94.938704 136.936647 
L 95.131131 138.259122 
L 94.328274 138.323661 
L 94.174988 137.653125 
L 92.38175 138.665494 
L 87.5157 143.730615 
L 85.867591 144.794942 
L 84.175459 142.997181 
L 83.68461 142.90584 
L 85.18324 144.470064 
L 84.726636 144.932763 
L 85.165299 146.735451 
L 84.366249 146.731069 
L 84.95439 147.235342 
L 84.266232 148.240601 
L 84.773926 148.851524 
L 84.453221 149.349775 
L 84.93156 149.237109 
L 85.816494 150.505436 
L 86.62424 150.620292 
L 86.919944 152.019887 
L 87.471128 152.208033 
L 86.778615 153.180475 
L 87.151505 154.59757 
L 87.516788 153.634423 
L 87.471128 154.968935 
L 88.478909 156.762866 
L 88.710471 161.766183 
L 89.300789 162.43235 
L 89.617146 159.958031 
L 90.013949 159.867241 
L 90.124299 161.238946 
L 90.352053 160.358389 
L 89.937851 163.792017 
L 90.261274 165.518674 
L 90.71733 165.302087 
L 89.865012 167.063752 
L 89.276323 170.902106 
L 89.217618 170.429562 
L 88.942032 170.419716 
L 88.888757 172.35749 
L 89.207839 171.550222 
L 89.781846 171.790325 
L 89.847077 171.133459 
L 90.191153 171.271831 
L 89.987318 173.276878 
L 87.379807 176.614247 
L 75.161421 181.311289 
L 75.441903 181.012663 
L 72.459871 182.971767 
L 71.21944 185.270515 
L 70.58129 185.82893 
L 70.081203 185.700948 
L 69.815396 185.933396 
L 72.257666 187.977276 
L 73.005618 186.567284 
L 72.595763 191.723745 
L 67.391222 191.682682 
L 67.10197 186.102952 
L 66.291519 185.755648 
L 66.001579 184.78043 
L 66.602171 183.596831 
L 66.540734 175.439432 
L 65.63156 172.129652 
L 63.475296 168.945253 
L 63.533634 166.930212 
L 61.815385 161.945753 
L 69.617553 154.541997 
L 68.900299 153.334782 
L 69.910257 152.006009 
L 69.847437 149.765919 
L 71.117652 149.28734 
L 72.543885 146.405439 
L 73.358477 145.928244 
L 73.528996 144.26259 
L 72.930475 143.356132 
L 72.105175 143.52423 
L 72.189055 142.358689 
L 71.729292 142.110716 
L 72.347483 139.555279 
L 71.179784 138.689803 
L 71.248816 137.87851 
L 72.658824 137.47703 
L 72.446546 135.872501 
L 73.59561 134.637496 
L 73.009172 133.9943 
L 72.824853 132.0897 
L 73.473764 129.71277 
L 72.886291 128.900092 
L 73.45444 127.873468 
L 72.166271 125.115207 
L 73.099604 123.411347 
L 71.515284 123.594028 
L 71.117652 122.861226 
L 68.570663 121.866558 
L 66.031262 121.713051 
L 64.698228 120.294672 
L 62.653456 119.920976 
L 61.687675 118.988125 
L 55.960657 118.838785 
L 55.89576 115.340772 
z
M 84.370364 92.460253 
L 84.591271 92.784633 
L 85.081406 92.218537 
L 84.625784 91.950416 
z
M 83.62342 92.024047 
L 84.071447 92.435252 
L 84.180522 91.862207 
z
" clip-path="url(#p542c1064ea)" style="fill: #eeeeee; stroke: #000000; stroke-width: 0.3"/>
    <path d="M 89.573656 157.695387 
L 89.591056 156.956482 
L 89.805218 156.124052 
L 89.946547 156.747556 
z
" clip-path="url(#p542c1064ea)" style="fill: #eeeeee; stroke: #000000; stroke-width: 0.3"/>
    <path d="M 118.872384 120.963649 
L 119.707543 120.86136 
L 119.254038 121.632208 
z
" clip-path="url(#p542c1064ea)" style="fill: #eeeeee; stroke: #000000; stroke-width: 0.3"/>
    <path d="M 72.764271 186.046606 
L 73.19369 185.82893 
L 73.051278 186.333747 
z
" clip-path="url(#p542c1064ea)" style="fill: #eeeeee; stroke: #000000; stroke-width: 0.3"/>
    <path d="M 46.504791 30.095811 
L 46.809919 28.912212 
L 48.55888 29.116426 
L 48.86125 30.295159 
L 51.400992 30.15416 
L 52.589751 29.251176 
L 52.815488 26.870778 
L 54.051879 27.641089 
L 55.800499 26.777697 
L 56.97614 27.433407 
L 56.050395 29.07961 
L 56.762132 29.10531 
L 56.049019 30.464642 
L 56.534324 31.082144 
L 58.785509 31.317617 
L 58.7144 33.12636 
L 56.159129 35.170569 
L 55.820517 36.759814 
L 55.353847 36.770238 
L 53.291816 40.009861 
L 51.487283 41.29626 
L 49.292018 41.205268 
L 48.859867 38.808889 
L 48.028703 37.509291 
L 48.159526 31.774663 
z
" clip-path="url(#p542c1064ea)" style="fill: #eeeeee; stroke: #000000; stroke-width: 0.3"/>
    <path d="M 45.649467 27.551489 
L 47.493002 26.069902 
L 47.464013 23.688113 
L 48.881956 21.491782 
L 52.04369 20.188017 
L 53.007401 21.143785 
L 54.254839 20.339441 
L 55.525742 18.465406 
L 56.422992 18.469425 
L 56.980969 20.160234 
L 58.198029 20.753421 
L 58.871106 22.155819 
L 58.594973 24.266018 
L 59.201776 25.295418 
L 58.844876 27.061794 
L 56.756608 27.425066 
L 55.800499 26.777697 
L 54.051879 27.641089 
L 52.815488 26.870778 
L 52.589751 29.251176 
L 51.400992 30.15416 
L 48.86125 30.295159 
L 48.640342 29.177551 
L 47.350103 28.737172 
L 46.694974 29.584582 
L 45.866574 29.127536 
z
" clip-path="url(#p542c1064ea)" style="fill: #eeeeee; stroke: #000000; stroke-width: 0.3"/>
    <path d="M 50.297147 17.540197 
L 51.288464 10.812287 
L 52.874167 7.950527 
L 52.919727 5.75767 
L 54.305923 5.192609 
L 54.867166 3.664837 
L 56.466328 2.975094 
L 61.764301 -2.834026 
L 61.137132 -4.177563 
L 60.320122 -4.092473 
L 59.737477 -4.866608 
L 59.094779 -4.373438 
L 58.017853 -5.133331 
L 58.971898 -7.877008 
L 58.240143 -9.235305 
L 59.350199 -11.506478 
L 59.259079 -12.357013 
L 58.879388 -12.156972 
L 59.580084 -13.427745 
L 61.386 -14.187639 
L 63.449407 -13.271805 
L 65.146943 -14.34948 
L 66.16312 -12.883867 
L 67.752617 -12.305096 
L 67.884816 -13.023658 
L 69.113952 -13.775735 
L 71.683037 -14.030832 
L 73.291516 -14.813818 
L 74.408479 -13.990716 
L 76.587179 -13.901284 
L 80.029535 -16.965692 
L 80.555571 -14.758776 
L 81.358428 -14.740018 
L 81.00774 -14.075283 
L 82.926184 -13.350121 
L 82.53614 -12.067365 
L 82.888211 -10.08584 
L 85.838015 -6.115149 
L 86.158332 -5.349704 
L 85.771054 -4.477279 
L 86.711981 -1.583052 
L 86.486237 0.181933 
L 85.192551 1.967577 
L 85.318885 3.020244 
L 83.242353 4.024642 
L 82.581012 5.816712 
L 80.98841 7.242726 
L 80.55833 8.967427 
L 79.27845 10.561531 
L 79.678846 12.336933 
L 79.349552 18.037528 
L 58.462427 17.925003 
L 55.525742 18.465406 
L 54.254839 20.339441 
L 52.860708 21.19866 
L 52.103751 20.197043 
L 50.45247 20.63048 
z
" clip-path="url(#p542c1064ea)" style="fill: #eeeeee; stroke: #000000; stroke-width: 0.3"/>
    <path d="M 141.592857 160.86703 
L 142.119575 160.625287 
L 141.752669 159.390322 
L 142.349507 157.600766 
L 143.261078 156.950467 
L 143.493728 154.513891 
L 145.532661 153.941256 
L 146.125699 151.646883 
L 149.948633 145.620806 
L 149.260468 144.194409 
L 149.987768 142.24515 
L 148.348904 139.589259 
L 148.502189 137.674456 
L 147.062271 134.939254 
L 147.0215 130.722424 
L 146.275718 129.223834 
L 149.659996 123.5374 
L 149.753488 120.145883 
L 152.583316 120.314888 
L 155.241924 118.319135 
L 155.452285 119.583093 
L 156.176326 119.199148 
L 155.996944 118.65441 
L 157.270532 118.447668 
L 157.502093 119.178912 
L 157.877155 117.511867 
L 159.798678 117.312787 
L 160.583594 117.902379 
L 160.61621 117.342318 
L 160.247667 117.434203 
L 161.105422 116.839148 
L 161.715312 116.931577 
L 161.527233 117.617429 
L 162.353461 118.677374 
L 162.717656 118.172564 
L 163.273188 118.539553 
L 162.139293 117.591723 
L 162.364336 116.344721 
L 166.484063 113.443256 
L 167.320617 114.287171 
L 166.542768 115.803256 
L 168.371881 115.021694 
L 167.195051 113.410983 
L 169.305194 111.374221 
L 168.716505 111.081064 
L 169.792777 109.902425 
L 170.275464 110.897294 
L 169.678626 112.832883 
L 172.145896 109.195249 
L 172.971036 110.15894 
L 173.2912 109.570444 
L 173.502649 110.512253 
L 173.587985 109.623497 
L 172.191009 109.055781 
L 171.850733 109.424955 
L 171.507199 108.38907 
L 172.104036 106.88939 
L 173.12378 106.951738 
L 172.967229 105.967266 
L 173.592334 106.333711 
L 173.38578 107.575787 
L 173.727685 107.152465 
L 173.822813 105.954141 
L 173.107469 105.416506 
L 173.615164 105.071937 
L 172.671525 103.939247 
L 172.861774 102.722327 
L 173.957617 102.145317 
L 174.786016 103.822207 
L 175.495923 104.033317 
L 175.727484 102.340021 
L 177.069015 102.168288 
L 176.72222 101.090835 
L 177.541923 101.662375 
L 178.711686 101.248348 
L 179.881997 97.402883 
L 179.4254 95.742404 
L 178.376848 94.871142 
L 179.818396 95.173049 
L 180.077684 94.188577 
L 181.526299 92.933369 
L 180.801717 92.610131 
L 181.258321 92.28854 
L 181.672517 92.660449 
L 181.395296 92.242597 
L 182.0378 91.596122 
L 182.672143 93.279578 
L 181.942672 92.890162 
L 181.714377 93.440377 
L 182.513968 93.953944 
L 182.727589 93.445296 
L 183.227675 94.457666 
L 183.783208 94.489388 
L 183.455977 94.682997 
L 184.097387 95.18727 
L 183.937582 96.167366 
L 184.553991 97.35694 
L 185.150828 96.944008 
L 186.473336 98.896003 
L 187.814326 103.931592 
L 188.260597 110.434045 
L 190.132659 113.584907 
L 190.088628 115.090064 
L 189.109114 117.562185 
L 187.982834 118.727148 
L 186.660867 116.935408 
L 186.199381 114.947861 
L 184.974713 115.11194 
L 184.444729 115.769894 
L 185.081256 118.196624 
L 184.787723 119.414095 
L 185.856928 120.448885 
L 185.884654 122.457212 
L 185.02255 123.89783 
L 185.793333 124.39225 
L 184.244153 124.856051 
L 183.061345 127.458889 
L 183.584255 130.441849 
L 182.57974 135.121385 
L 178.513829 145.482978 
L 178.72256 145.963184 
L 174.849076 157.784537 
L 172.837314 162.388047 
L 171.751264 167.592084 
L 170.661947 169.899038 
L 170.620094 171.605459 
L 168.990467 174.407935 
L 167.664152 178.875258 
L 167.527171 178.504438 
L 166.58571 179.758006 
L 164.508176 180.552148 
L 161.729445 180.648408 
L 157.211285 183.080058 
L 154.54887 183.339301 
L 152.358821 181.628505 
L 149.25123 181.042193 
L 148.7631 180.348142 
L 149.348529 180.801001 
L 149.488229 180.581134 
L 146.975839 179.309521 
L 146.237672 176.75645 
L 144.59826 174.846567 
L 144.277008 170.995631 
L 145.188579 168.99223 
L 144.318868 168.192617 
L 143.999245 166.38501 
L 142.516385 164.821336 
z
" clip-path="url(#p542c1064ea)" style="fill: #eeeeee; stroke: #000000; stroke-width: 0.3"/>
    <path d="M 174.761556 100.44436 
L 175.627467 100.014478 
L 175.902511 101.410242 
L 175.001273 101.359925 
z
" clip-path="url(#p542c1064ea)" style="fill: #eeeeee; stroke: #000000; stroke-width: 0.3"/>
    <path d="M 185.698746 126.185637 
L 185.906395 125.011379 
L 187.020713 123.470126 
z
" clip-path="url(#p542c1064ea)" style="fill: #eeeeee; stroke: #000000; stroke-width: 0.3"/>
    <path d="M 312.090415 341.128686 
L 312.615503 340.976644 
L 312.520923 340.378302 
L 313.121027 340.442841 
L 312.377423 339.579785 
L 313.079174 339.422265 
L 313.872787 338.291215 
L 314.546271 338.775796 
L 313.155272 339.900287 
L 315.029505 339.087549 
L 314.496803 339.326005 
L 314.862086 339.578689 
L 313.766785 341.220571 
L 314.223388 341.357303 
L 314.47452 340.568632 
L 315.201273 341.427857 
L 316.693918 340.710835 
L 316.790676 341.210725 
L 317.706048 340.294072 
L 318.070242 341.449189 
L 316.439526 341.376995 
L 315.655151 341.851186 
L 316.92222 341.632959 
L 316.313419 341.8397 
L 317.336416 342.275053 
L 316.515625 342.458823 
L 319.123677 342.550164 
L 320.152117 341.684372 
L 321.743692 341.667416 
L 322.691679 340.975549 
L 323.934281 341.257219 
L 323.945696 342.679785 
L 322.528608 343.156705 
L 323.563568 343.564173 
L 322.373693 343.564173 
L 321.382216 342.889807 
L 319.260658 342.96364 
L 319.948823 343.242575 
L 319.769441 343.590968 
L 318.389858 343.33118 
L 319.20413 344.191501 
L 321.362652 344.765226 
L 320.775593 344.110551 
L 322.424242 344.17728 
L 322.611773 344.473716 
L 321.548553 344.765226 
L 322.079619 345.219725 
L 319.483523 345.177069 
L 318.701325 343.965068 
L 318.024582 344.0039 
L 318.544232 344.522394 
L 318.202868 345.081904 
L 316.905909 344.856566 
L 315.287156 343.89561 
L 315.317594 344.46387 
L 314.728905 344.069534 
L 314.774566 344.807344 
L 314.339169 344.244003 
L 314.463105 344.942981 
L 313.939641 345.383804 
L 312.195322 345.149171 
L 313.111783 343.510024 
L 312.475803 343.071386 
L 313.261268 342.550164 
L 312.673667 342.651888 
L 312.19424 341.882357 
L 313.306928 341.587016 
z
" clip-path="url(#p542c1064ea)" style="fill: #eeeeee; stroke: #000000; stroke-width: 0.3"/>
    <path d="M 315.051788 340.522689 
L 316.059028 339.834653 
L 315.873127 340.202187 
L 316.515625 340.133273 
L 315.254541 341.246829 
z
" clip-path="url(#p542c1064ea)" style="fill: #eeeeee; stroke: #000000; stroke-width: 0.3"/>
    <path d="M 197.924206 322.993578 
L 198.455272 322.6512 
L 199.110821 322.982093 
L 199.039612 323.483623 
z
" clip-path="url(#p542c1064ea)" style="fill: #eeeeee; stroke: #000000; stroke-width: 0.3"/>
    <path d="M 188.032301 320.885704 
L 188.65034 320.744597 
L 188.811781 321.230274 
L 188.203521 321.213317 
z
" clip-path="url(#p542c1064ea)" style="fill: #eeeeee; stroke: #000000; stroke-width: 0.3"/>
    <path d="M 370.616161 271.428441 
L 370.872723 271.599085 
L 370.652577 271.628072 
z
" clip-path="url(#p542c1064ea)" style="fill: #eeeeee; stroke: #000000; stroke-width: 0.3"/>
    <path d="M 370.574301 265.895151 
L 370.836848 265.477293 
L 371.11244 265.839907 
z
" clip-path="url(#p542c1064ea)" style="fill: #eeeeee; stroke: #000000; stroke-width: 0.3"/>
    <path d="M 319.35089 343.980929 
L 320.555446 344.404802 
L 319.431343 344.069534 
z
" clip-path="url(#p542c1064ea)" style="fill: #eeeeee; stroke: #000000; stroke-width: 0.3"/>
    <path d="M 317.336416 341.908614 
L 318.297455 341.632959 
L 317.93652 342.012529 
z
" clip-path="url(#p542c1064ea)" style="fill: #eeeeee; stroke: #000000; stroke-width: 0.3"/>
    <path d="M 316.469964 339.463833 
L 317.240747 339.651978 
L 316.629776 339.701751 
z
" clip-path="url(#p542c1064ea)" style="fill: #eeeeee; stroke: #000000; stroke-width: 0.3"/>
    <path d="M 314.728905 340.482217 
L 314.85556 339.984511 
L 315.3975 339.874029 
z
" clip-path="url(#p542c1064ea)" style="fill: #eeeeee; stroke: #000000; stroke-width: 0.3"/>
    <path d="M 312.305666 337.820855 
L 312.556798 337.700528 
L 312.623659 337.875548 
z
" clip-path="url(#p542c1064ea)" style="fill: #eeeeee; stroke: #000000; stroke-width: 0.3"/>
    <path d="M 311.386494 342.921528 
L 311.706109 342.733927 
L 312.253486 343.057165 
z
" clip-path="url(#p542c1064ea)" style="fill: #eeeeee; stroke: #000000; stroke-width: 0.3"/>
    <path d="M 311.16417 338.177454 
L 311.270165 338.124946 
L 311.550646 338.228868 
z
" clip-path="url(#p542c1064ea)" style="fill: #eeeeee; stroke: #000000; stroke-width: 0.3"/>
    <path d="M 217.013871 118.088334 
L 217.056813 118.058796 
L 217.059531 118.118415 
z
" clip-path="url(#p542c1064ea)" style="fill: #eeeeee; stroke: #000000; stroke-width: 0.3"/>
    <path d="M 168.744772 89.02774 
L 168.822501 88.927649 
L 168.868161 89.057278 
z
" clip-path="url(#p542c1064ea)" style="fill: #eeeeee; stroke: #000000; stroke-width: 0.3"/>
    <path d="M 138.262943 125.978351 
L 138.492874 125.958659 
L 138.446125 126.062574 
z
" clip-path="url(#p542c1064ea)" style="fill: #eeeeee; stroke: #000000; stroke-width: 0.3"/>
    <path d="M 122.330877 161.571478 
L 122.643974 161.435841 
L 122.528193 161.59117 
z
" clip-path="url(#p542c1064ea)" style="fill: #eeeeee; stroke: #000000; stroke-width: 0.3"/>
    <path d="M 118.250832 155.421794 
L 118.256269 155.403743 
L 118.269855 155.419059 
z
" clip-path="url(#p542c1064ea)" style="fill: #eeeeee; stroke: #000000; stroke-width: 0.3"/>
    <path d="M 161.527233 74.376572 
L 163.451475 74.188978 
L 163.178601 74.651676 
L 162.14473 74.805365 
L 161.707704 74.825601 
z
" clip-path="url(#p542c1064ea)" style="fill: #eeeeee; stroke: #000000; stroke-width: 0.3"/>
    <path d="M 222.939875 42.62151 
L 223.295186 41.960868 
L 223.849703 43.584147 
L 223.449506 42.929801 
z
" clip-path="url(#p542c1064ea)" style="fill: #eeeeee; stroke: #000000; stroke-width: 0.3"/>
    <path d="M 228.664775 59.286765 
L 228.856113 59.083854 
L 228.756096 59.376459 
z
" clip-path="url(#p542c1064ea)" style="fill: #eeeeee; stroke: #000000; stroke-width: 0.3"/>
    <path d="M 226.488794 42.122003 
L 226.564465 42.079703 
L 226.603138 42.154148 
z
" clip-path="url(#p542c1064ea)" style="fill: #eeeeee; stroke: #000000; stroke-width: 0.3"/>
    <path d="M 226.39402 40.520162 
L 226.433762 40.447686 
L 226.41886 40.532656 
z
" clip-path="url(#p542c1064ea)" style="fill: #eeeeee; stroke: #000000; stroke-width: 0.3"/>
    <path d="M 226.091009 40.417699 
L 226.155585 40.392705 
L 226.165518 40.445186 
z
" clip-path="url(#p542c1064ea)" style="fill: #eeeeee; stroke: #000000; stroke-width: 0.3"/>
    <path d="M 226.066168 40.087821 
L 226.093487 40.17279 
L 226.068653 40.175284 
z
" clip-path="url(#p542c1064ea)" style="fill: #eeeeee; stroke: #000000; stroke-width: 0.3"/>
    <path d="M 225.770605 40.682601 
L 225.98172 40.635119 
L 225.877402 40.755077 
z
" clip-path="url(#p542c1064ea)" style="fill: #eeeeee; stroke: #000000; stroke-width: 0.3"/>
    <path d="M 225.032938 40.042833 
L 225.219213 40.052833 
L 225.152152 40.147796 
z
" clip-path="url(#p542c1064ea)" style="fill: #eeeeee; stroke: #000000; stroke-width: 0.3"/>
    <path d="M 224.779869 40.17437 
L 225.513688 40.404076 
L 225.327246 40.591133 
z
" clip-path="url(#p542c1064ea)" style="fill: #eeeeee; stroke: #000000; stroke-width: 0.3"/>
    <path d="M 224.665344 40.402705 
L 224.702602 40.427692 
L 224.667829 40.432693 
z
" clip-path="url(#p542c1064ea)" style="fill: #eeeeee; stroke: #000000; stroke-width: 0.3"/>
    <path d="M 224.660375 39.612991 
L 224.73489 39.597998 
L 224.767178 39.607998 
z
" clip-path="url(#p542c1064ea)" style="fill: #eeeeee; stroke: #000000; stroke-width: 0.3"/>
    <path d="M 224.61082 36.846216 
L 224.663006 36.778397 
L 224.704312 36.91732 
z
" clip-path="url(#p542c1064ea)" style="fill: #eeeeee; stroke: #000000; stroke-width: 0.3"/>
    <path d="M 224.556063 40.530156 
L 224.590829 40.525156 
L 224.605737 40.557643 
z
" clip-path="url(#p542c1064ea)" style="fill: #eeeeee; stroke: #000000; stroke-width: 0.3"/>
    <path d="M 223.630445 42.390951 
L 223.67332 42.381145 
L 223.670394 42.413499 
z
" clip-path="url(#p542c1064ea)" style="fill: #eeeeee; stroke: #000000; stroke-width: 0.3"/>
    <path d="M 223.574912 42.313502 
L 223.621681 42.203699 
L 223.692804 42.218404 
z
" clip-path="url(#p542c1064ea)" style="fill: #eeeeee; stroke: #000000; stroke-width: 0.3"/>
    <path d="M 223.542758 42.444871 
L 223.623625 42.41448 
L 223.635321 42.481142 
z
" clip-path="url(#p542c1064ea)" style="fill: #eeeeee; stroke: #000000; stroke-width: 0.3"/>
    <path d="M 222.911988 42.70773 
L 222.9741 42.718759 
L 222.964362 42.751844 
z
" clip-path="url(#p542c1064ea)" style="fill: #eeeeee; stroke: #000000; stroke-width: 0.3"/>
    <path d="M 222.794204 50.715822 
L 222.807255 50.719647 
L 222.795293 50.743713 
z
" clip-path="url(#p542c1064ea)" style="fill: #eeeeee; stroke: #000000; stroke-width: 0.3"/>
    <path d="M 222.674489 42.642781 
L 222.753653 42.661162 
L 222.747568 42.670968 
z
" clip-path="url(#p542c1064ea)" style="fill: #eeeeee; stroke: #000000; stroke-width: 0.3"/>
    <path d="M 221.76251 41.172438 
L 221.992983 41.293854 
L 221.779904 41.458477 
z
" clip-path="url(#p542c1064ea)" style="fill: #eeeeee; stroke: #000000; stroke-width: 0.3"/>
    <path d="M 209.154922 47.801232 
L 209.17993 47.792482 
L 209.200583 47.866859 
z
" clip-path="url(#p542c1064ea)" style="fill: #eeeeee; stroke: #000000; stroke-width: 0.3"/>
    <path d="M 205.173813 58.306117 
L 205.209688 58.378318 
L 205.175984 58.355891 
z
" clip-path="url(#p542c1064ea)" style="fill: #eeeeee; stroke: #000000; stroke-width: 0.3"/>
    <path d="M 170.210239 76.47788 
L 170.247744 76.452718 
L 170.266767 76.491005 
z
" clip-path="url(#p542c1064ea)" style="fill: #eeeeee; stroke: #000000; stroke-width: 0.3"/>
    <path d="M 163.346027 76.833383 
L 163.394947 76.69282 
L 163.486268 76.802757 
z
" clip-path="url(#p542c1064ea)" style="fill: #eeeeee; stroke: #000000; stroke-width: 0.3"/>
    <path d="M 162.247466 73.979501 
L 162.994878 74.054974 
L 162.676344 74.185147 
z
" clip-path="url(#p542c1064ea)" style="fill: #eeeeee; stroke: #000000; stroke-width: 0.3"/>
    <path d="M 141.558612 90.269271 
L 141.951074 87.778003 
L 142.74142 87.916375 
L 142.622921 89.29355 
L 143.027339 91.487831 
z
" clip-path="url(#p542c1064ea)" style="fill: #eeeeee; stroke: #000000; stroke-width: 0.3"/>
    <path d="M 148.161914 93.026894 
L 149.278409 93.159795 
L 149.902973 92.380425 
L 150.199759 94.503609 
z
" clip-path="url(#p542c1064ea)" style="fill: #eeeeee; stroke: #000000; stroke-width: 0.3"/>
    <path d="M 144.350394 93.539917 
L 145.835973 94.443445 
L 144.547163 94.316559 
z
" clip-path="url(#p542c1064ea)" style="fill: #eeeeee; stroke: #000000; stroke-width: 0.3"/>
   </g>
   <g id="PatchCollection_2">
    <path d="M 48.754934 44.3664 
L 49.292018 41.205268 
L 51.487283 41.29626 
L 53.291816 40.009861 
L 55.353847 36.770238 
L 55.820517 36.759814 
L 56.159129 35.170569 
L 58.613615 33.306951 
L 58.830375 32.622773 
L 58.785509 31.317617 
L 56.534324 31.082144 
L 56.049019 30.464642 
L 56.762132 29.10531 
L 56.024513 29.244926 
L 56.665488 27.855721 
L 58.844876 27.061794 
L 59.201776 25.295418 
L 58.594973 24.266018 
L 58.82244 22.013428 
L 58.198029 20.753421 
L 56.980969 20.160234 
L 56.484616 18.417474 
L 57.537383 18.513332 
L 58.462427 17.925003 
L 79.989492 18.037528 
L 104.334857 31.770496 
L 104.703493 33.574374 
L 103.936531 34.237026 
L 104.029034 34.912179 
L 104.758718 35.004561 
L 105.177062 35.866562 
L 114.823078 42.810489 
L 114.812745 43.937715 
L 114.112082 44.342441 
L 113.950641 45.224093 
L 114.339836 45.547331 
L 111.910619 51.992355 
L 112.81893 54.558552 
L 113.659286 54.783339 
L 115.256845 56.510547 
L 115.258474 57.205149 
L 116.48912 57.387824 
L 117.084876 58.349325 
L 117.043564 59.139092 
L 115.57592 60.422741 
L 115.073662 63.877695 
L 115.57592 63.225755 
L 116.34888 63.940049 
L 116.421171 65.135094 
L 115.256845 67.143421 
L 115.753124 69.8633 
L 117.084876 71.263446 
L 116.388014 70.835749 
L 115.982508 71.105927 
L 116.671762 71.371736 
L 116.716334 72.620378 
L 117.188153 72.410908 
L 117.686603 73.056281 
L 117.17619 74.793335 
L 117.732811 74.774739 
L 118.335086 76.266763 
L 118.04156 76.791816 
L 118.734067 77.32234 
L 118.000248 78.797959 
L 118.909641 78.44136 
L 119.966343 79.991357 
L 120.197904 79.399581 
L 120.951835 79.646794 
L 120.871388 80.328816 
L 121.616081 80.500005 
L 121.616081 79.853529 
L 122.39556 80.912937 
L 122.917936 80.522976 
L 122.983708 81.697233 
L 120.120056 83.95764 
L 116.716013 85.164163 
L 115.144811 86.347762 
L 112.693431 86.354012 
L 109.994913 88.005774 
L 108.420946 87.089597 
L 106.293337 87.135439 
L 105.484261 88.8129 
L 103.164733 90.06249 
L 100.973609 89.761726 
L 100.243924 89.023365 
L 98.825981 89.081714 
L 97.527459 90.074997 
L 94.681894 89.941632 
L 94.470652 89.116446 
L 92.188408 88.005774 
L 90.517796 89.294262 
L 86.432395 89.081714 
L 85.911188 87.750166 
L 85.102806 87.546644 
L 84.087324 85.913639 
L 84.498074 83.563109 
L 83.870557 82.133614 
L 83.572336 78.795358 
L 82.112967 76.619175 
L 80.074407 74.994505 
L 79.400636 76.610842 
L 78.216712 75.711332 
L 76.242008 75.962773 
L 75.315582 75.09383 
L 70.090781 73.521251 
L 69.458777 72.752332 
L 66.216963 72.200813 
L 66.207298 71.332561 
L 64.444184 71.201286 
L 63.551582 69.793324 
L 62.31105 69.011205 
L 60.470962 69.207079 
L 59.68087 68.764623 
L 56.221602 62.35206 
L 55.238561 59.348602 
L 53.878602 57.605157 
L 51.314701 55.78599 
L 50.10247 53.459076 
L 49.772494 51.637832 
L 50.683043 49.63669 
z
" clip-path="url(#p542c1064ea)" style="fill: #ff6b6b; stroke: #dd0000; stroke-width: 0.5"/>
    <path d="M 114.65837 51.047259 
L 115.256845 50.56159 
L 115.48025 49.731344 
L 116.168416 52.914479 
L 116.732638 52.942377 
L 116.716334 52.455605 
L 117.016386 53.782462 
L 116.782647 54.734117 
L 116.168416 53.649009 
L 116.081984 54.13523 
L 114.712727 53.107544 
z
" clip-path="url(#p542c1064ea)" style="fill: #ff6b6b; stroke: #dd0000; stroke-width: 0.5"/>
    <path d="M 117.681714 47.68528 
L 117.818695 46.833165 
L 118.602523 46.511567 
L 118.304648 46.515942 
L 117.727374 46.185601 
L 118.369872 46.281854 
L 117.955676 44.165781 
L 118.873766 44.861479 
L 119.103698 44.212275 
L 118.703629 47.637153 
z
" clip-path="url(#p542c1064ea)" style="fill: #ff6b6b; stroke: #dd0000; stroke-width: 0.5"/>
    <path d="M 117.308282 64.698639 
L 119.368957 62.629604 
L 119.353741 63.412261 
L 118.885182 64.486978 
L 117.592571 64.969368 
z
" clip-path="url(#p542c1064ea)" style="fill: #ff6b6b; stroke: #dd0000; stroke-width: 0.5"/>
    <path d="M 117.23006 47.554583 
L 117.742523 47.933596 
L 117.793487 48.101794 
L 117.496387 48.019997 
z
" clip-path="url(#p542c1064ea)" style="fill: #ff6b6b; stroke: #dd0000; stroke-width: 0.5"/>
    <path d="M 118.080601 65.679213 
L 118.080628 65.39433 
L 118.739831 65.109259 
z
" clip-path="url(#p542c1064ea)" style="fill: #ff6b6b; stroke: #dd0000; stroke-width: 0.5"/>
    <path d="M 114.818489 50.127474 
L 114.975121 50.65617 
L 114.818876 50.670008 
z
" clip-path="url(#p542c1064ea)" style="fill: #ff6b6b; stroke: #dd0000; stroke-width: 0.5"/>
   </g>
  </g>
 </g>
 <defs>
  <clipPath id="p542c1064ea">
   <rect x="0" y="0" width="171.738642" height="108"/>
  </clipPath>
 </defs>
</svg>
