<?xml version="1.0" encoding="utf-8" standalone="no"?>
<!DOCTYPE svg PUBLIC "-//W3C//DTD SVG 1.1//EN"
  "http://www.w3.org/Graphics/SVG/1.1/DTD/svg11.dtd">
<svg xmlns:xlink="http://www.w3.org/1999/xlink" width="171.594741pt" height="108pt" viewBox="0 0 171.594741 108" xmlns="http://www.w3.org/2000/svg" version="1.1">
 <metadata>
  <rdf:RDF xmlns:dc="http://purl.org/dc/elements/1.1/" xmlns:cc="http://creativecommons.org/ns#" xmlns:rdf="http://www.w3.org/1999/02/22-rdf-syntax-ns#">
   <cc:Work>
    <dc:type rdf:resource="http://purl.org/dc/dcmitype/StillImage"/>
    <dc:date>2025-09-05T15:57:05.771147</dc:date>
    <dc:format>image/svg+xml</dc:format>
    <dc:creator>
     <cc:Agent>
      <dc:title>Matplotlib v3.10.3, https://matplotlib.org/</dc:title>
     </cc:Agent>
    </dc:creator>
   </cc:Work>
  </rdf:RDF>
 </metadata>
 <defs>
  <style type="text/css">*{stroke-linejoin: round; stroke-linecap: butt}</style>
 </defs>
 <g id="figure_1">
  <g id="patch_1">
   <path d="M 0 108 
L 171.594741 108 
L 171.594741 0 
L 0 0 
z
" style="fill: #ffffff"/>
  </g>
  <g id="axes_1">
   <g id="PatchCollection_1">
    <path d="M 82.001066 55.130832 
L 83.441318 54.327859 
L 83.901191 52.921296 
L 84.507464 52.912339 
L 84.85992 53.522698 
L 84.558514 54.743098 
L 86.614019 56.309558 
L 86.279323 58.331722 
L 86.881735 59.868547 
L 85.917887 59.639357 
L 85.422579 58.668739 
L 84.753217 58.601318 
L 84.887089 58.075574 
L 85.556452 57.927283 
L 85.168218 57.064493 
z
" clip-path="url(#pfee7ee35c1)" style="fill: #eeeeee; stroke: #000000; stroke-width: 0.3"/>
    <path d="M -179.963788 191.822746 
L -179.302805 192.633696 
L -176.728684 192.924317 
L -173.465667 191.609453 
L -172.488149 191.822746 
L -173.088616 190.444608 
L -170.875273 191.700864 
L -172.893141 193.001645 
L -175.006416 192.947731 
L -177.319857 193.660243 
L -179.191069 193.74696 
z
" clip-path="url(#pfee7ee35c1)" style="fill: #eeeeee; stroke: #000000; stroke-width: 0.3"/>
    <path d="M 90.86442 45.256694 
L 91.64409 45.078566 
L 94.006406 46.24105 
L 93.545588 46.26216 
L 93.208118 47.04264 
L 91.288631 46.117354 
z
" clip-path="url(#pfee7ee35c1)" style="fill: #eeeeee; stroke: #000000; stroke-width: 0.3"/>
    <path d="M -177.997113 190.491494 
L -176.879974 190.121184 
L -173.679789 190.444608 
L -175.043652 191.002435 
L -176.426134 190.625098 
L -177.776013 190.838362 
z
" clip-path="url(#pfee7ee35c1)" style="fill: #eeeeee; stroke: #000000; stroke-width: 0.3"/>
    <path d="M 77.945024 49.533696 
L 78.931836 50.053997 
L 78.94116 51.122736 
L 78.417481 51.235258 
L 78.019496 50.759453 
z
" clip-path="url(#pfee7ee35c1)" style="fill: #eeeeee; stroke: #000000; stroke-width: 0.3"/>
    <path d="M 107.163232 128.668061 
L 107.498385 127.158682 
L 108.317636 126.289152 
L 107.889393 127.543046 
z
" clip-path="url(#pfee7ee35c1)" style="fill: #eeeeee; stroke: #000000; stroke-width: 0.3"/>
    <path d="M 96.340037 45.860342 
L 96.75481 46.19232 
L 96.797337 46.417219 
L 96.478314 46.299427 
z
" clip-path="url(#pfee7ee35c1)" style="fill: #eeeeee; stroke: #000000; stroke-width: 0.3"/>
    <path d="M 95.106442 47.434608 
L 95.287218 46.438646 
L 96.010375 47.231136 
L 95.563714 47.745187 
z
" clip-path="url(#pfee7ee35c1)" style="fill: #eeeeee; stroke: #000000; stroke-width: 0.3"/>
    <path d="M 82.362416 90.429782 
L 82.446211 90.113357 
L 82.418298 90.44617 
L 82.367077 90.549302 
z
" clip-path="url(#pfee7ee35c1)" style="fill: #eeeeee; stroke: #000000; stroke-width: 0.3"/>
    <path d="M 23.851526 77.621184 
L 24.070309 77.902445 
L 24.158738 78.221174 
L 23.963234 77.939942 
z
" clip-path="url(#pfee7ee35c1)" style="fill: #eeeeee; stroke: #000000; stroke-width: 0.3"/>
    <path d="M -142.785843 201.25633 
L -142.785843 200.82744 
L -142.625259 200.719613 
L -142.543809 200.883686 
z
" clip-path="url(#pfee7ee35c1)" style="fill: #eeeeee; stroke: #000000; stroke-width: 0.3"/>
    <path d="M -172.176276 202.350874 
L -171.966816 201.748522 
L -171.315156 201.455568 
L -171.575809 202.219632 
z
" clip-path="url(#pfee7ee35c1)" style="fill: #eeeeee; stroke: #000000; stroke-width: 0.3"/>
    <path d="M 98.181506 53.602848 
L 98.505505 53.421581 
L 98.671094 53.740598 
z
" clip-path="url(#pfee7ee35c1)" style="fill: #eeeeee; stroke: #000000; stroke-width: 0.3"/>
    <path d="M 97.775713 46.738512 
L 97.945878 46.427933 
L 97.882073 46.792051 
z
" clip-path="url(#pfee7ee35c1)" style="fill: #eeeeee; stroke: #000000; stroke-width: 0.3"/>
    <path d="M 96.371954 44.885808 
L 96.488924 45.249926 
L 96.382593 45.260611 
z
" clip-path="url(#pfee7ee35c1)" style="fill: #eeeeee; stroke: #000000; stroke-width: 0.3"/>
    <path d="M 91.947984 44.693021 
L 92.745556 44.735875 
L 92.458421 45.142819 
z
" clip-path="url(#pfee7ee35c1)" style="fill: #eeeeee; stroke: #000000; stroke-width: 0.3"/>
    <path d="M 90.37406 46.235174 
L 90.533586 46.342253 
L 90.384699 46.36368 
z
" clip-path="url(#pfee7ee35c1)" style="fill: #eeeeee; stroke: #000000; stroke-width: 0.3"/>
    <path d="M 90.352782 42.85103 
L 90.671834 42.786778 
L 90.810082 42.829632 
z
" clip-path="url(#pfee7ee35c1)" style="fill: #eeeeee; stroke: #000000; stroke-width: 0.3"/>
    <path d="M 90.140605 30.994618 
L 90.36405 30.703997 
L 90.540907 31.299322 
z
" clip-path="url(#pfee7ee35c1)" style="fill: #eeeeee; stroke: #000000; stroke-width: 0.3"/>
    <path d="M 89.906149 46.781338 
L 90.055008 46.75991 
L 90.118841 46.89913 
z
" clip-path="url(#pfee7ee35c1)" style="fill: #eeeeee; stroke: #000000; stroke-width: 0.3"/>
    <path d="M 85.94294 54.755366 
L 86.126518 54.713347 
L 86.113991 54.85199 
z
" clip-path="url(#pfee7ee35c1)" style="fill: #eeeeee; stroke: #000000; stroke-width: 0.3"/>
    <path d="M 85.705167 54.423475 
L 85.905418 53.952941 
L 86.209942 54.015955 
z
" clip-path="url(#pfee7ee35c1)" style="fill: #eeeeee; stroke: #000000; stroke-width: 0.3"/>
    <path d="M 85.567491 54.986429 
L 85.91374 54.856195 
L 85.963817 55.141862 
z
" clip-path="url(#pfee7ee35c1)" style="fill: #eeeeee; stroke: #000000; stroke-width: 0.3"/>
    <path d="M 82.866733 56.112854 
L 83.132676 56.160115 
L 83.090978 56.301898 
z
" clip-path="url(#pfee7ee35c1)" style="fill: #eeeeee; stroke: #000000; stroke-width: 0.3"/>
    <path d="M 81.849834 55.834531 
L 82.18879 55.913299 
L 82.162737 55.955318 
z
" clip-path="url(#pfee7ee35c1)" style="fill: #eeeeee; stroke: #000000; stroke-width: 0.3"/>
    <path d="M 6.917356 122.95633 
L 7.070962 123.265728 
L 6.926651 123.169622 
z
" clip-path="url(#pfee7ee35c1)" style="fill: #eeeeee; stroke: #000000; stroke-width: 0.3"/>
   </g>
   <g id="PatchCollection_2">
    <path d="M 82.001066 55.130832 
L 83.441318 54.327859 
L 83.901191 52.921296 
L 84.507464 52.912339 
L 84.85992 53.522698 
L 84.558514 54.743098 
L 86.614019 56.309558 
L 86.279323 58.331722 
L 86.881735 59.868547 
L 85.917887 59.639357 
L 85.422579 58.668739 
L 84.753217 58.601318 
L 84.887089 58.075574 
L 85.556452 57.927283 
L 85.168218 57.064493 
z
" clip-path="url(#pfee7ee35c1)" style="fill: #ff6b6b; stroke: #dd0000; stroke-width: 0.8"/>
    <path d="M -179.963788 191.822746 
L -179.302805 192.633696 
L -176.728684 192.924317 
L -173.465667 191.609453 
L -172.488149 191.822746 
L -173.088616 190.444608 
L -170.875273 191.700864 
L -172.893141 193.001645 
L -175.006416 192.947731 
L -177.319857 193.660243 
L -179.191069 193.74696 
z
" clip-path="url(#pfee7ee35c1)" style="fill: #ff6b6b; stroke: #dd0000; stroke-width: 0.8"/>
    <path d="M 90.86442 45.256694 
L 91.64409 45.078566 
L 94.006406 46.24105 
L 93.545588 46.26216 
L 93.208118 47.04264 
L 91.288631 46.117354 
z
" clip-path="url(#pfee7ee35c1)" style="fill: #ff6b6b; stroke: #dd0000; stroke-width: 0.8"/>
    <path d="M -177.997113 190.491494 
L -176.879974 190.121184 
L -173.679789 190.444608 
L -175.043652 191.002435 
L -176.426134 190.625098 
L -177.776013 190.838362 
z
" clip-path="url(#pfee7ee35c1)" style="fill: #ff6b6b; stroke: #dd0000; stroke-width: 0.8"/>
    <path d="M 77.945024 49.533696 
L 78.931836 50.053997 
L 78.94116 51.122736 
L 78.417481 51.235258 
L 78.019496 50.759453 
z
" clip-path="url(#pfee7ee35c1)" style="fill: #ff6b6b; stroke: #dd0000; stroke-width: 0.8"/>
    <path d="M 107.163232 128.668061 
L 107.498385 127.158682 
L 108.317636 126.289152 
L 107.889393 127.543046 
z
" clip-path="url(#pfee7ee35c1)" style="fill: #ff6b6b; stroke: #dd0000; stroke-width: 0.8"/>
    <path d="M 96.340037 45.860342 
L 96.75481 46.19232 
L 96.797337 46.417219 
L 96.478314 46.299427 
z
" clip-path="url(#pfee7ee35c1)" style="fill: #ff6b6b; stroke: #dd0000; stroke-width: 0.8"/>
    <path d="M 95.106442 47.434608 
L 95.287218 46.438646 
L 96.010375 47.231136 
L 95.563714 47.745187 
z
" clip-path="url(#pfee7ee35c1)" style="fill: #ff6b6b; stroke: #dd0000; stroke-width: 0.8"/>
    <path d="M 82.362416 90.429782 
L 82.446211 90.113357 
L 82.418298 90.44617 
L 82.367077 90.549302 
z
" clip-path="url(#pfee7ee35c1)" style="fill: #ff6b6b; stroke: #dd0000; stroke-width: 0.8"/>
    <path d="M 23.851526 77.621184 
L 24.070309 77.902445 
L 24.158738 78.221174 
L 23.963234 77.939942 
z
" clip-path="url(#pfee7ee35c1)" style="fill: #ff6b6b; stroke: #dd0000; stroke-width: 0.8"/>
    <path d="M -142.785843 201.25633 
L -142.785843 200.82744 
L -142.625259 200.719613 
L -142.543809 200.883686 
z
" clip-path="url(#pfee7ee35c1)" style="fill: #ff6b6b; stroke: #dd0000; stroke-width: 0.8"/>
    <path d="M -172.176276 202.350874 
L -171.966816 201.748522 
L -171.315156 201.455568 
L -171.575809 202.219632 
z
" clip-path="url(#pfee7ee35c1)" style="fill: #ff6b6b; stroke: #dd0000; stroke-width: 0.8"/>
    <path d="M 98.181506 53.602848 
L 98.505505 53.421581 
L 98.671094 53.740598 
z
" clip-path="url(#pfee7ee35c1)" style="fill: #ff6b6b; stroke: #dd0000; stroke-width: 0.8"/>
    <path d="M 97.775713 46.738512 
L 97.945878 46.427933 
L 97.882073 46.792051 
z
" clip-path="url(#pfee7ee35c1)" style="fill: #ff6b6b; stroke: #dd0000; stroke-width: 0.8"/>
    <path d="M 96.371954 44.885808 
L 96.488924 45.249926 
L 96.382593 45.260611 
z
" clip-path="url(#pfee7ee35c1)" style="fill: #ff6b6b; stroke: #dd0000; stroke-width: 0.8"/>
    <path d="M 91.947984 44.693021 
L 92.745556 44.735875 
L 92.458421 45.142819 
z
" clip-path="url(#pfee7ee35c1)" style="fill: #ff6b6b; stroke: #dd0000; stroke-width: 0.8"/>
    <path d="M 90.37406 46.235174 
L 90.533586 46.342253 
L 90.384699 46.36368 
z
" clip-path="url(#pfee7ee35c1)" style="fill: #ff6b6b; stroke: #dd0000; stroke-width: 0.8"/>
    <path d="M 90.352782 42.85103 
L 90.671834 42.786778 
L 90.810082 42.829632 
z
" clip-path="url(#pfee7ee35c1)" style="fill: #ff6b6b; stroke: #dd0000; stroke-width: 0.8"/>
    <path d="M 90.140605 30.994618 
L 90.36405 30.703997 
L 90.540907 31.299322 
z
" clip-path="url(#pfee7ee35c1)" style="fill: #ff6b6b; stroke: #dd0000; stroke-width: 0.8"/>
    <path d="M 89.906149 46.781338 
L 90.055008 46.75991 
L 90.118841 46.89913 
z
" clip-path="url(#pfee7ee35c1)" style="fill: #ff6b6b; stroke: #dd0000; stroke-width: 0.8"/>
    <path d="M 85.94294 54.755366 
L 86.126518 54.713347 
L 86.113991 54.85199 
z
" clip-path="url(#pfee7ee35c1)" style="fill: #ff6b6b; stroke: #dd0000; stroke-width: 0.8"/>
    <path d="M 85.705167 54.423475 
L 85.905418 53.952941 
L 86.209942 54.015955 
z
" clip-path="url(#pfee7ee35c1)" style="fill: #ff6b6b; stroke: #dd0000; stroke-width: 0.8"/>
    <path d="M 85.567491 54.986429 
L 85.91374 54.856195 
L 85.963817 55.141862 
z
" clip-path="url(#pfee7ee35c1)" style="fill: #ff6b6b; stroke: #dd0000; stroke-width: 0.8"/>
    <path d="M 82.866733 56.112854 
L 83.132676 56.160115 
L 83.090978 56.301898 
z
" clip-path="url(#pfee7ee35c1)" style="fill: #ff6b6b; stroke: #dd0000; stroke-width: 0.8"/>
    <path d="M 81.849834 55.834531 
L 82.18879 55.913299 
L 82.162737 55.955318 
z
" clip-path="url(#pfee7ee35c1)" style="fill: #ff6b6b; stroke: #dd0000; stroke-width: 0.8"/>
    <path d="M 6.917356 122.95633 
L 7.070962 123.265728 
L 6.926651 123.169622 
z
" clip-path="url(#pfee7ee35c1)" style="fill: #ff6b6b; stroke: #dd0000; stroke-width: 0.8"/>
   </g>
  </g>
 </g>
 <defs>
  <clipPath id="pfee7ee35c1">
   <rect x="0" y="0" width="171.594741" height="108"/>
  </clipPath>
 </defs>
</svg>
