<?xml version="1.0" encoding="utf-8" standalone="no"?>
<!DOCTYPE svg PUBLIC "-//W3C//DTD SVG 1.1//EN"
  "http://www.w3.org/Graphics/SVG/1.1/DTD/svg11.dtd">
<svg xmlns:xlink="http://www.w3.org/1999/xlink" width="172.75219pt" height="108pt" viewBox="0 0 172.75219 108" xmlns="http://www.w3.org/2000/svg" version="1.1">
 <metadata>
  <rdf:RDF xmlns:dc="http://purl.org/dc/elements/1.1/" xmlns:cc="http://creativecommons.org/ns#" xmlns:rdf="http://www.w3.org/1999/02/22-rdf-syntax-ns#">
   <cc:Work>
    <dc:type rdf:resource="http://purl.org/dc/dcmitype/StillImage"/>
    <dc:date>2025-09-05T13:56:20.473834</dc:date>
    <dc:format>image/svg+xml</dc:format>
    <dc:creator>
     <cc:Agent>
      <dc:title>Matplotlib v3.10.3, https://matplotlib.org/</dc:title>
     </cc:Agent>
    </dc:creator>
   </cc:Work>
  </rdf:RDF>
 </metadata>
 <defs>
  <style type="text/css">*{stroke-linejoin: round; stroke-linecap: butt}</style>
 </defs>
 <g id="figure_1">
  <g id="patch_1">
   <path d="M 0 108 
L 172.75219 108 
L 172.75219 0 
L 0 0 
z
" style="fill: #ffffff"/>
  </g>
  <g id="axes_1">
   <g id="PatchCollection_1">
    <path d="M 288.497358 74.622299 
L 293.508554 69.669951 
L 291.250265 61.352029 
L 299.98729 57.887185 
L 304.926872 52.129231 
L 293.71028 59.280298 
L 297.195357 46.556819 
L 305.161146 40.162562 
L 307.910814 30.493844 
L 320.077537 24.586183 
L 315.405736 32.315438 
L 319.939188 36.67444 
L 320.587989 44.02633 
L 341.073251 60.934348 
L 344.796721 68.13945 
L 356.409328 73.856409 
L 382.147097 64.902706 
L 394.3672 69.57384 
L 399.144482 66.700902 
L 407.157573 67.573102 
L 410.637213 63.350487 
L 417.947763 62.186873 
L 420.691793 50.531776 
L 433.044128 45.207542 
L 453.145051 45.11967 
L 455.190698 47.338468 
L 452.545831 51.287227 
L 475.188339 55.370335 
L 479.201063 58.809581 
L 490.590512 50.214525 
L 501.136871 51.092925 
L 509.191307 47.63608 
L 516.018355 50.515258 
L 521.374184 34.285178 
L 527.469781 31.814203 
L 525.341484 18.028221 
L 542.429756 7.522299 
L 536.445758 3.572539 
L 536.949932 -5.387364 
L 543.867906 -13.745761 
L 546.583027 -11.517685 
L 552.74472 -13.313801 
L 554.885412 -26.36609 
L 558.228662 -29.288624 
L 555.73258 -48.902195 
L 567.940248 -67.644526 
L 574.998731 -62.910397 
L 579.201584 -67.232203 
L 586.594784 -67.410987 
L 590.619943 -63.622412 
L 595.054231 -67.947338 
L 597.77347 -65.321377 
L 622.263218 -66.318646 
L 636.835976 -58.462883 
L 629.075152 -58.866486 
L 641.687711 -48.437757 
L 640.184384 -47.886048 
L 636.953133 -49.404469 
L 635.088579 -49.258002 
L 642.91122 -46.501094 
L 645.462362 -43.239671 
L 642.234389 -43.226633 
L 647.193485 -40.222347 
L 639.296031 -37.361288 
L 632.901904 -43.770223 
L 634.5419 -36.373418 
L 617.777229 -37.911357 
L 615.379032 -35.854265 
L 622.124589 -36.729825 
L 622.153899 -34.278889 
L 623.868748 -31.705883 
L 632.01355 -29.469767 
L 628.534991 -21.851622 
L 624.955588 -21.452898 
L 638.837199 -15.51596 
L 636.748128 -11.422893 
L 641.551041 -10.604288 
L 635.90208 -8.965437 
L 643.601086 -8.145192 
L 638.934844 -5.10187 
L 645.507945 -2.411675 
L 647.193485 3.621295 
L 657.430637 14.41783 
L 656.454437 19.117921 
L 650.733862 24.17606 
L 647.193485 23.655268 
L 650.161152 25.915821 
L 644.147765 26.657914 
L 649.08083 28.296764 
L 651.108084 35.148379 
L 671.139753 48.483723 
L 672.389293 52.129231 
L 678.666303 53.864112 
L 694.597921 68.861105 
L 686.059423 75.71432 
L 669.496477 75.71432 
L 658.009824 71.565938 
L 649.900848 63.373325 
L 655.461962 75.901503 
L 650.245761 74.412358 
L 643.874426 78.288965 
L 632.950686 103.55686 
L 635.361918 109.200865 
L 631.554719 117.494389 
L 634.034287 121.917786 
L 631.808546 128.912588 
L 639.354609 124.655176 
L 636.201449 135.490788 
L 633.468095 135.891151 
L 639.234173 138.742451 
L 627.715012 143.956816 
L 625.414419 140.272232 
L 612.466703 157.5005 
L 606.954412 158.359782 
L 603.88914 148.897765 
L 604.657057 162.516323 
L 596.870243 165.764707 
L 595.773606 172.811584 
L 583.066722 179.487415 
L 591.159424 178.5565 
L 592.82873 184.200545 
L 592.480578 189.597173 
L 585.497468 194.67483 
L 598.295478 196.86863 
L 594.882014 210.054307 
L 586.336999 208.92485 
L 586.044146 212.225309 
L 589.890371 210.858274 
L 585.673163 227.380167 
L 583.320509 227.962834 
L 579.679289 220.834564 
L 578.400479 227.816327 
L 584.765297 233.372461 
L 578.592448 237.743822 
L 572.891426 252.247699 
L 520.765408 275.25992 
L 518.458337 273.18331 
L 518.637311 255.248745 
L 515.087177 248.667306 
L 516.206565 241.81897 
L 513.268167 247.921934 
L 504.739425 243.79795 
L 508.787415 236.357228 
L 501.661118 243.186046 
L 498.53075 241.789693 
L 498.908211 235.510946 
L 495.882004 242.118423 
L 479.50783 246.167534 
L 478.668259 234.866484 
L 468.841155 238.010718 
L 466.322562 234.397767 
L 468.25545 238.791886 
L 455.623379 224.815321 
L 451.861723 232.151892 
L 455.0767 234.397767 
L 439.743782 244.56612 
L 422.344585 241.076838 
L 410.444684 250.776473 
L 406.585424 249.214136 
L 407.535594 230.361695 
L 404.398749 217.439674 
L 402.374733 225.642046 
L 397.03166 228.525903 
L 388.763222 224.815321 
L 373.693887 231.396761 
L 364.41994 228.939305 
L 372.48989 223.057681 
L 360.749451 231.126585 
L 356.232873 222.601963 
L 344.785245 228.011629 
L 340.538768 212.749341 
L 345.47835 208.628637 
L 340.655925 205.357456 
L 337.961596 185.886591 
L 330.415533 180.945602 
L 335.618698 173.749018 
L 336.715295 161.757912 
L 331.45683 156.833241 
L 331.64556 152.406565 
L 323.884736 146.606294 
L 324.805637 142.739487 
L 321.356387 147.257275 
L 315.294137 142.400958 
L 309.902242 144.379937 
L 305.200212 142.04943 
L 304.773929 134.602189 
L 313.013097 137.388375 
L 314.529459 136.56165 
L 308.477006 133.830779 
L 310.295977 131.799724 
L 299.85062 129.049295 
L 296.124791 117.741767 
L 303.264084 117.396718 
L 300.533969 107.104697 
L 306.290291 107.488782 
L 291.113595 94.298265 
z
" clip-path="url(#pa9caff7bf5)" style="fill: #eeeeee; stroke: #000000; stroke-width: 0.3"/>
    <path d="M 1171.883248 164.391152 
L 1183.395932 152.595348 
L 1185.608677 144.503646 
L 1183.669271 140.682354 
L 1208.99847 135.490788 
L 1219.971033 125.335474 
L 1229.798137 122.044734 
L 1252.927625 125.696761 
L 1269.581657 136.835065 
L 1292.99752 136.835065 
L 1300.790893 142.459552 
L 1295.353413 146.21573 
L 1305.183796 161.910898 
L 1297.390424 175.213725 
L 1301.64018 203.062745 
L 1312.45652 222.380623 
L 1315.209387 221.264205 
L 1313.276538 209.47168 
L 1315.756066 206.418559 
L 1319.436351 208.345463 
L 1321.951706 226.244231 
L 1327.948859 223.890925 
L 1326.637501 233.349703 
L 1329.852438 238.407841 
L 1347.521736 243.485498 
L 1354.101355 241.81897 
L 1370.277043 227.328092 
L 1372.463718 218.930418 
L 1384.529598 210.311444 
L 1389.107993 197.262474 
L 1395.173481 195.495075 
L 1403.838893 197.981808 
L 1421.000538 192.145781 
L 1423.206766 190.339305 
L 1417.932027 183.432375 
L 1418.804106 179.799907 
L 1447.416617 166.747697 
L 1480.448062 179.467897 
L 1487.548329 185.886591 
L 1525.054048 202.086274 
L 1540.136418 200.735477 
L 1547.106493 206.128865 
L 1548.899433 203.710486 
L 1563.594586 207.863747 
L 1562.761532 213.257135 
L 1572.783884 211.919337 
L 1572.881728 361.289634 
L 1567.775887 375.997493 
L 1572.892044 383.748226 
L 1572.884767 472.120246 
L 1533.345277 435.577339 
L 1536.153483 431.157182 
L 1536.241331 425.812589 
L 1538.964969 425.324354 
L 1539.88583 423.267261 
L 1536.260884 424.855677 
L 1532.76605 431.756087 
L 1509.636561 435.915868 
L 1504.016869 433.722028 
L 1503.636169 428.481626 
L 1502.588355 427.065755 
L 1505.344501 426.815138 
L 1502.516781 425.933058 
L 1502.809633 430.854449 
L 1490.411875 439.561335 
L 1487.548329 432.576332 
L 1490.847915 430.698224 
L 1490.450901 424.009394 
L 1493.594264 422.499092 
L 1497.554407 410.280166 
L 1480.539188 395.795807 
L 1500.115305 397.605562 
L 1503.431165 393.924258 
L 1496.256045 396.381714 
L 1487.538573 393.706158 
L 1476.302467 384.628225 
L 1491.095184 381.584863 
L 1496.744185 385.835795 
L 1501.521067 386.799227 
L 1481.176994 376.46489 
L 1481.137928 373.688463 
L 1487.00165 376.123121 
L 1472.485512 363.96931 
L 1464.343988 344.475608 
L 1470.002706 341.315096 
L 1460.149571 338.834882 
L 1468.362669 335.039628 
L 1456.690564 337.031646 
L 1456.303307 324.038032 
L 1453.8205 327.045557 
L 1450.843076 321.037025 
L 1446.411107 322.215278 
L 1446.176833 318.009941 
L 1428.969645 311.187644 
L 1424.583219 308.443774 
L 1425.012741 305.354856 
L 1422.621061 308.424216 
L 1417.466718 306.29553 
L 1417.932027 303.460468 
L 1406.751221 305.022846 
L 1371.897527 288.142865 
L 1341.313061 285.848155 
L 1319.826848 272.642999 
L 1321.437575 265.791384 
L 1330.545543 267.04127 
L 1332.605345 265.365023 
L 1320.929962 264.229046 
L 1314.910017 268.951896 
L 1307.243598 262.647151 
L 1306.514706 268.704558 
L 1299.551109 264.014226 
L 1301.610911 261.315912 
L 1299.00443 257.706201 
L 1298.321081 260.596578 
L 1292.750211 261.905018 
L 1287.436407 251.512086 
L 1287.081737 256.768767 
L 1282.038033 254.799546 
L 1279.571461 247.241676 
L 1281.549933 236.539492 
L 1287.768325 231.380482 
L 1291.087423 232.483902 
L 1288.331277 224.815321 
L 1280.642067 232.783354 
L 1279.021543 244.546601 
L 1274.475696 243.02982 
L 1277.586511 249.708891 
L 1270.271523 256.791565 
L 1272.051468 262.510443 
L 1263.958726 270.566348 
L 1250.233297 271.419151 
L 1243.165618 255.186911 
L 1251.196502 250.060419 
L 1246.771051 245.392884 
L 1246.39359 239.162972 
L 1240.773898 241.037801 
L 1236.052355 232.17793 
L 1226.960621 225.759235 
L 1212.981405 225.088736 
L 1215.714759 220.033837 
L 1212.258991 219.425173 
L 1226.404185 214.95618 
L 1243.058217 220.424441 
L 1255.264006 207.076059 
L 1263.503174 204.569767 
L 1269.529596 208.963887 
L 1269.145617 214.95618 
L 1271.739063 207.687963 
L 1271.931072 213.592385 
L 1272.855212 208.765345 
L 1274.664427 211.483217 
L 1279.272091 209.47168 
L 1281.208259 216.596671 
L 1282.438246 208.37802 
L 1286.587119 213.85928 
L 1286.69452 206.988147 
L 1283.801704 205.41605 
L 1290.244613 206.988147 
L 1288.56883 204.354947 
L 1294.11367 203.437071 
L 1288.604617 201.549203 
L 1291.907441 199.615779 
L 1291.907441 196.041905 
L 1291.06791 198.867168 
L 1285.591406 198.307299 
L 1291.526702 192.204375 
L 1279.743957 197.340627 
L 1265.764702 196.067943 
L 1241.476759 200.188647 
L 1236.345207 195.325811 
L 1226.160155 198.522159 
L 1215.870942 191.227904 
L 1219.014345 187.826495 
L 1215.03141 188.64022 
L 1211.614708 183.70579 
L 1214.894741 174.94031 
L 1209.40848 173.983357 
L 1213.225435 169.45253 
L 1206.134964 172.206199 
L 1205.588285 167.81204 
L 1203.948249 170.842364 
L 1196.867534 167.108984 
L 1191.407304 167.971545 
L 1188.859401 163.691336 
L 1185.032689 162.87437 
L 1187.424409 166.025123 
L 1182.17894 168.847106 
z
" clip-path="url(#pa9caff7bf5)" style="fill: #eeeeee; stroke: #000000; stroke-width: 0.3"/>
    <path d="M 684.425904 218.930418 
L 686.378305 213.09111 
L 690.706153 213.833243 
L 699.557056 206.070271 
L 702.768754 188.298451 
L 708.004467 186.277156 
L 706.670318 157.734839 
L 712.247706 151.762064 
L 715.127486 142.322845 
L 723.464258 133.261151 
L 727.977597 142.889193 
L 724.430703 126.702509 
L 726.116282 112.859372 
L 721.131157 111.882901 
L 719.497638 107.488782 
L 727.424401 111.283995 
L 729.643624 105.057363 
L 725.52406 98.329457 
L 728.89522 96.422071 
L 730.587277 88.961831 
L 735.403225 87.257867 
L 735.943386 78.536342 
L 743.193318 75.315596 
L 745.249882 68.14341 
L 747.774992 68.597449 
L 747.966962 73.686505 
L 756.8309 76.625716 
L 760.595795 69.158957 
L 766.173142 65.806383 
L 767.442235 54.886139 
L 777.314882 54.635522 
L 784.691728 58.730189 
L 792.149943 56.010717 
L 792.110878 61.215322 
L 795.960381 65.013815 
L 832.24259 67.085547 
L 848.027821 75.190287 
L 852.791668 69.407935 
L 861.092654 71.009349 
L 861.535211 68.966895 
L 891.224805 74.649977 
L 905.666091 67.219014 
L 909.626234 60.46831 
L 917.797067 60.077746 
L 915.981295 53.519104 
L 927.471227 49.147743 
L 927.080731 44.997721 
L 933.396767 38.65066 
L 941.050231 40.787505 
L 944.004863 48.526039 
L 938.655272 52.505196 
L 929.989821 68.989693 
L 920.598756 75.686682 
L 914.614638 87.777019 
L 906.922149 91.954718 
L 879.100347 97.245556 
L 863.617764 94.928087 
L 857.038145 87.257867 
L 806.106367 90.851299 
L 798.166609 85.840356 
L 778.414757 91.624349 
L 754.214663 86.754993 
L 740.440451 98.798174 
L 733.938924 116.27702 
L 737.036744 132.463704 
L 744.335498 143.878703 
L 754.120297 146.915506 
L 761.142473 163.691336 
L 767.305565 161.507295 
L 778.317113 164.137255 
L 782.358626 155.557318 
L 798.895501 139.920704 
L 802.657117 145.323851 
L 818.295922 144.952805 
L 822.389456 138.495074 
L 851.233002 138.260695 
L 843.459182 133.840538 
L 857.103242 130.162474 
L 870.203901 133.612679 
L 872.237632 138.234657 
L 866.513859 149.962108 
L 857.916742 141.307297 
L 847.621051 143.872183 
L 828.832405 167.613498 
L 821.439285 172.469815 
L 808.540392 174.689693 
L 801.775281 184.226583 
L 796.210929 185.066346 
L 791.730178 180.444368 
L 785.938029 180.568037 
L 787.717974 187.553079 
L 790.17475 184.275378 
L 797.073251 194.401415 
L 807.004477 199.3912 
L 814.710001 215.639718 
L 825.565367 223.448246 
L 825.265997 229.482855 
L 832.994273 233.942089 
L 831.246876 237.730823 
L 826.932064 238.179982 
L 829.216383 245.44496 
L 824.149888 242.938668 
L 825.702037 246.75016 
L 822.298329 251.648794 
L 836.023758 263.040995 
L 840.332053 263.467396 
L 836.12788 266.725539 
L 840.332053 268.157728 
L 841.601146 273.427407 
L 847.754482 273.046602 
L 845.079666 269.824216 
L 847.871599 270.201782 
L 850.077827 283.442774 
L 847.754482 285.415274 
L 840.882011 280.474285 
L 844.399596 287.283584 
L 838.041256 283.761745 
L 818.393526 288.689695 
L 815.666649 294.424852 
L 819.239575 299.909392 
L 817.179773 301.57264 
L 802.263382 301.299225 
L 796.259751 297.640719 
L 793.311596 291.124353 
L 799.19811 271.376834 
L 784.320784 264.014226 
L 784.301271 260.521704 
L 769.082232 247.85358 
L 776.768203 235.647653 
L 777.366943 222.790746 
L 773.475175 220.854082 
L 777.314882 218.259919 
L 774.334219 214.331237 
L 766.075538 212.498724 
L 757.484939 215.18076 
L 742.249666 226.205154 
L 744.68369 233.577522 
L 751.139634 238.140906 
L 751.969409 257.042182 
L 748.185001 271.904106 
L 752.106079 293.754354 
L 746.486387 302.741134 
L 744.68369 313.889237 
L 752.652757 332.696082 
L 747.039583 328.269406 
L 738.130102 331.713132 
L 730.710952 330.645509 
L 723.064006 336.038897 
L 714.824877 330.209349 
L 711.453718 331.40064 
L 708.235502 322.114367 
L 719.19175 280.474285 
L 719.998734 267.011993 
L 717.857601 268.951896 
L 712.293249 255.899726 
L 714.024372 247.707113 
L 706.029274 245.012039 
L 691.200731 250.538895 
L 684.699243 231.533468 
L 688.067124 230.609073 
L 689.550978 222.680076 
L 684.998613 222.380623 
z
" clip-path="url(#pa9caff7bf5)" style="fill: #eeeeee; stroke: #000000; stroke-width: 0.3"/>
    <path d="M -257.561462 -103.787509 
L -257.011544 -114.997447 
L -248.248489 -118.258869 
L -241.063613 -117.137532 
L -230.029273 -112.557869 
L -222.011384 -103.8917 
L -209.275191 -100.762105 
L -186.611011 -103.00962 
L -176.488575 -97.921964 
L -164.506505 -101.762974 
L -149.19314 -87.65782 
L -145.688549 -73.933472 
L -134.54357 -69.090154 
L -134.911275 -60.539534 
L -138.406069 -56.405791 
L -135.044706 -59.169219 
L -133.339573 -55.289332 
L -118.507231 -48.659497 
L -113.710517 -41.096027 
L -75.558116 -19.299775 
L -66.411082 -10.020021 
L -67.452379 0.068579 
L -65.272181 3.813317 
L -66.63236 -0.204836 
L -63.394632 -1.173188 
L -60.560395 6.713453 
L -60.749125 1.37542 
L -57.169683 -0.331785 
L -48.224414 16.982716 
L -33.093262 26.325944 
L -27.714402 34.899362 
L -33.604154 19.558961 
L -30.167899 15.985087 
L -23.594798 16.256862 
L -12.924924 26.931329 
L -8.53198 39.542499 
L 4.350639 41.453124 
L 19.10433 52.451481 
L 22.716281 66.948839 
L 31.375175 75.740357 
L 52.516515 80.876609 
L 57.351976 90.216597 
L 37.645667 100.664844 
L 34.479512 98.453126 
L 31.589975 98.056042 
L 36.200879 101.14332 
L 50.472987 97.19836 
L 68.845146 86.45878 
L 84.090176 96.815915 
L 86.423278 108.198357 
L 77.435705 108.466892 
L 77.390162 112.084722 
L 65.181095 118.210444 
L 73.927876 116.368172 
L 68.181311 122.581805 
L 78.29151 125.37779 
L 71.077365 128.616415 
L 69.274668 125.882264 
L 71.00903 130.920885 
L 68.181311 135.741405 
L 87.506879 150.840948 
L 92.583131 146.98386 
L 102.843036 150.837668 
L 109.432411 149.17118 
L 115.846051 178.328681 
L 114.225567 185.339761 
L 116.919896 182.208527 
L 119.819229 184.763614 
L 117.896096 188.679297 
L 126.922695 188.236617 
L 129.649571 192.926949 
L 124.618863 201.119562 
L 118.589201 203.983901 
L 122.725039 202.734015 
L 122.864948 210.210533 
L 117.121621 214.155493 
L 115.585747 218.803509 
L 123.597119 211.528773 
L 129.669084 199.296808 
L 131.494612 202.890241 
L 133.544618 200.956817 
L 159.277349 203.970862 
L 159.062588 211.694758 
L 165.446959 215.50301 
L 166.706255 223.858368 
L 175.459554 227.210943 
L 177.239499 238.118148 
L 170.331201 244.182035 
L 167.106508 254.796307 
L 172.420312 261.244279 
L 166.833168 277.440721 
L 170.572033 286.66516 
L 170.708702 305.615232 
L 167.506721 334.076196 
L 163.51407 343.753033 
L 145.516133 325.658964 
L 141.533238 331.107707 
L 140.862885 339.329597 
L 121.592656 328.165255 
L 116.399247 328.227089 
L 122.982105 344.729504 
L 116.792982 345.019198 
L 90.406212 316.629867 
L 89.996203 312.056724 
L 82.570536 306.090468 
L 70.940695 302.663021 
L 26.874911 267.552303 
L 23.26296 253.608255 
L -1.161653 236.878021 
L -12.531189 217.465711 
L -21.41464 211.382306 
L -28.680846 201.236751 
L -32.243975 194.264707 
L -31.300322 183.575602 
L -39.422333 172.606523 
L -42.832518 161.136209 
L -49.356838 158.480211 
L -48.94355 149.815641 
L -53.538219 140.558686 
L -72.629514 120.44332 
L -75.698024 109.101595 
L -91.938808 98.358734 
L -100.060819 97.385543 
L -101.567425 83.840218 
L -117.186677 45.349249 
L -112.670099 42.696491 
L -114.616023 37.970362 
L -117.944878 38.463477 
L -124.16327 30.456407 
L -147.325307 17.04779 
L -155.782515 16.673504 
L -159.228487 11.45426 
L -161.44775 -6.729321 
L -169.351722 -9.81496 
L -190.203409 -39.376064 
L -206.359583 -43.226633 
L -217.624958 -56.928183 
L -242.908654 -77.57574 
z
" clip-path="url(#pa9caff7bf5)" style="fill: #eeeeee; stroke: #000000; stroke-width: 0.3"/>
    <path d="M 143.004017 378.76612 
L 148.880775 374.482671 
L 153.930996 380.243865 
L 160.079814 367.177777 
L 165.612777 368.368628 
L 169.010087 352.290655 
L 176.429237 343.12809 
L 180.685471 348.267582 
L 186.269376 345.686457 
L 193.115817 349.260331 
L 201.725929 348.384771 
L 206.037502 352.049797 
L 214.510944 350.780393 
L 216.082606 344.459369 
L 228.465729 346.926104 
L 233.1093 353.702966 
L 241.42448 357.406268 
L 249.706832 355.362415 
L 258.036727 360.958904 
L 261.750321 357.133093 
L 268.696245 357.741358 
L 275.865287 367.36092 
L 278.501037 378.349478 
L 292.070283 381.858278 
L 295.109525 379.43014 
L 308.346854 382.909622 
L 313.986059 379.944413 
L 331.889591 384.820248 
L 341.358786 382.131693 
L 349.497071 386.909897 
L 357.114708 381.331006 
L 361.094364 367.881713 
L 374.676606 364.724441 
L 380.01968 375.556773 
L 388.896613 376.363979 
L 393.976144 372.822662 
L 403.85207 379.150205 
L 413.2822 379.277154 
L 417.590494 384.123711 
L 437.534315 382.704561 
L 441.575828 394.877931 
L 438.373846 395.587506 
L 447.149937 398.386731 
L 444.680126 409.127951 
L 459.521664 416.991794 
L 467.136062 419.302783 
L 475.352439 415.894894 
L 485.641613 416.933199 
L 496.025192 412.360056 
L 509.75386 418.202643 
L 512.887467 421.119017 
L 509.265759 448.655586 
L 510.420934 445.75869 
L 512.00887 451.988602 
L 519.18395 457.502419 
L 508.875263 457.534976 
L 509.607434 454.465576 
L 506.30133 452.353169 
L 493.402437 452.685138 
L 463.842994 439.115416 
L 441.129992 445.75869 
L 405.915111 438.138945 
L 402.068846 442.728367 
L 391.24275 438.63046 
L 380.722541 439.154492 
L 378.366648 436.150206 
L 374.940189 438.064112 
L 353.323783 432.354993 
L 330.503381 421.385913 
L 309.023685 416.418926 
L 294.85246 417.183856 
L 289.206737 412.304741 
L 281.185609 416.70538 
L 275.865287 415.572643 
L 272.43255 420.619623 
L 248.874139 417.685051 
L 230.754966 407.71532 
L 190.224761 403.019788 
L 189.757653 397.107527 
L 195.93242 390.066849 
L 194.744857 386.434661 
L 187.636033 387.912406 
L 173.468767 380.591714 
L 145.317646 381.858278 
z
" clip-path="url(#pa9caff7bf5)" style="fill: #eeeeee; stroke: #000000; stroke-width: 0.3"/>
    <path d="M 603.300436 466.399248 
L 607.139904 459.836206 
L 604.102741 454.538249 
L 607.686542 448.193388 
L 621.95865 442.181576 
L 631.509176 447.122526 
L 631.860607 444.307023 
L 636.474789 444.095442 
L 637.841486 448.466803 
L 639.08127 445.413682 
L 646.353953 456.675694 
L 652.904303 457.801872 
L 656.867685 454.114048 
L 665.409461 453.537941 
L 642.637881 437.514002 
L 643.786538 433.793661 
L 650.857536 431.313408 
L 660.128205 433.25659 
L 666.629692 442.728367 
L 672.672429 437.855771 
L 680.033 439.427908 
L 680.826948 449.768764 
L 684.289234 440.93493 
L 693.029498 439.958459 
L 696.218444 453.703966 
L 700.819591 450.266759 
L 700.191582 457.570773 
L 690.068347 455.41277 
L 682.213158 457.801872 
L 691.207248 459.738535 
L 690.452326 461.896538 
L 682.694781 459.875243 
L 670.706992 462.020247 
L 670.726505 451.194394 
L 660.450326 462.589835 
L 643.152012 464.357274 
L 629.707359 470.024637 
L 621.85177 468.824266 
L 614.547658 472.166602 
z
" clip-path="url(#pa9caff7bf5)" style="fill: #eeeeee; stroke: #000000; stroke-width: 0.3"/>
    <path d="M 1029.949797 59.550434 
L 1039.191196 34.498999 
L 1051.390467 20.410124 
L 1055.890771 19.762423 
L 1047.856608 33.856177 
L 1054.592409 39.145415 
L 1054.592409 55.703145 
L 1039.106588 70.415323 
L 1048.06813 75.440905 
L 1053.752878 64.592294 
L 1061.172028 61.734475 
L 1057.677234 57.62189 
L 1062.177498 52.314774 
L 1071.480715 46.341998 
L 1082.765642 45.088873 
L 1082.033471 65.07729 
L 1066.010727 72.161604 
L 1062.535446 76.954446 
L 1068.574904 82.165571 
L 1081.219971 85.729686 
L 1081.590954 94.029729 
L 1086.953541 95.474917 
L 1089.966752 99.597261 
L 1072.434164 92.115824 
L 1050.417505 90.4021 
L 1049.428309 106.967989 
L 1053.225752 118.461101 
L 1063.104917 136.288235 
L 1071.617384 144.256268 
L 1055.285514 135.878112 
L 1049.421792 124.147422 
L 1040.642462 116.27702 
L 1042.624173 95.406564 
L 1035.07811 85.485588 
L 1038.982913 74.622299 
L 1033.789544 71.710805 
L 1033.682144 65.715232 
L 1030.171076 66.200227 
z
" clip-path="url(#pa9caff7bf5)" style="fill: #eeeeee; stroke: #000000; stroke-width: 0.3"/>
    <path d="M 726.344079 457.502419 
L 728.804093 444.391655 
L 733.737198 445.75869 
L 750.989929 436.970452 
L 773.143257 441.37761 
L 794.160923 451.949566 
L 799.110262 446.575696 
L 809.79641 447.591203 
L 814.846671 444.915687 
L 815.666649 448.466803 
L 825.617428 453.231969 
L 833.173247 451.67615 
L 833.482374 447.236435 
L 838.00219 443.685319 
L 849.306631 439.307479 
L 851.688554 435.603376 
L 843.690217 436.775149 
L 848.57446 430.668946 
L 855.12481 439.427908 
L 850.237288 442.412675 
L 849.963949 446.302281 
L 846.215328 445.394163 
L 846.368272 452.314092 
L 832.057138 457.248562 
L 818.663627 457.170409 
L 805.305902 463.393802 
L 789.933959 459.640904 
L 787.717974 464.598132 
L 773.894941 465.49649 
L 767.4292 460.555541 
L 764.015736 462.716784 
L 757.221356 459.484678 
L 745.272633 461.050296 
L 740.723547 458.622117 
L 730.411582 462.742821 
z
" clip-path="url(#pa9caff7bf5)" style="fill: #eeeeee; stroke: #000000; stroke-width: 0.3"/>
    <path d="M 1047.690669 234.827408 
L 1058.142543 230.576516 
L 1056.795398 226.722707 
L 1061.012567 222.178841 
L 1096.097336 220.076153 
L 1101.062949 226.205154 
L 1109.985425 219.56188 
L 1115.614874 219.099682 
L 1132.561758 226.839856 
L 1149.534712 227.650342 
L 1157.47447 233.076288 
L 1160.624351 244.038808 
L 1166.618266 245.265936 
L 1168.883032 250.854626 
L 1166.670326 262.647151 
L 1134.035855 246.818514 
L 1129.587612 241.220065 
L 1114.358816 239.996216 
L 1116.503227 245.480756 
L 1113.398889 246.434429 
L 1092.413772 242.118423 
L 1093.25982 237.971681 
L 1089.081678 235.999181 
L 1081.089819 245.187823 
L 1073.355025 246.395393 
L 1061.142759 235.667171 
L 1060.625349 230.576516 
L 1051.039037 250.034381 
L 1051.204976 240.82946 
z
" clip-path="url(#pa9caff7bf5)" style="fill: #eeeeee; stroke: #000000; stroke-width: 0.3"/>
    <path d="M 139.769567 186.521294 
L 150.423167 179.233518 
L 148.324339 173.849929 
L 156.957243 169.179115 
L 162.440225 174.120065 
L 160.84905 177.488917 
L 166.833168 179.607844 
L 162.147373 169.179115 
L 170.871402 167.672093 
L 175.980202 171.245967 
L 181.495733 183.432375 
L 182.34502 195.026358 
L 187.069842 205.152394 
L 207.638473 211.108891 
L 203.186951 213.071592 
L 198.46213 224.307567 
L 204.387709 230.843411 
L 195.601862 232.122575 
L 191.755637 226.722707 
L 173.780452 220.746692 
L 170.624093 214.881307 
L 172.094912 207.850708 
L 167.474213 203.703966 
L 165.541324 193.932698 
L 156.957243 190.580163 
L 146.586699 193.301275 
L 140.231637 191.100956 
z
" clip-path="url(#pa9caff7bf5)" style="fill: #eeeeee; stroke: #000000; stroke-width: 0.3"/>
    <path d="M 872.943773 522.467214 
L 874.678134 516.393528 
L 884.645187 510.869952 
L 877.157702 509.24574 
L 881.612463 492.329963 
L 894.459295 481.631098 
L 898.896982 484.950396 
L 902.479944 483.028211 
L 906.453442 487.42237 
L 912.069975 475.082216 
L 930.822114 466.356052 
L 931.362635 470.854361 
L 937.511933 467.324123 
L 940.532861 470.300412 
L 940.063794 475.289837 
L 932.358589 476.35222 
L 936.504343 487.304381 
L 933.230828 493.833746 
L 914.022416 512.350937 
L 898.949803 514.772596 
L 886.031397 522.857778 
z
" clip-path="url(#pa9caff7bf5)" style="fill: #eeeeee; stroke: #000000; stroke-width: 0.3"/>
    <path d="M 1301.985093 336.387185 
L 1307.975729 336.465298 
L 1314.090039 329.799226 
L 1314.233186 325.063338 
L 1319.029621 325.678522 
L 1321.759736 329.252396 
L 1319.30296 331.439716 
L 1324.219751 334.740175 
L 1323.341194 346.666168 
L 1320.070878 345.21774 
L 1317.942781 345.959872 
L 1324.785943 351.47045 
L 1321.541697 355.40889 
L 1324.219751 354.201321 
L 1318.209603 362.667308 
L 1304.969035 352.658461 
L 1308.610255 349.260331 
L 1305.427866 344.843414 
L 1309.033299 339.635569 
z
" clip-path="url(#pa9caff7bf5)" style="fill: #eeeeee; stroke: #000000; stroke-width: 0.3"/>
    <path d="M 1142.645967 115.941771 
L 1150.924161 115.879936 
L 1150.211543 113.002599 
L 1145.847909 114.516141 
L 1147.487905 111.088693 
L 1148.307923 113.002599 
L 1166.943666 108.061649 
L 1180.096346 111.336071 
L 1185.842951 114.278522 
L 1187.766084 119.434292 
L 1184.066245 123.281621 
L 1173.113276 122.30839 
L 1158.968081 111.306793 
L 1163.995511 119.408255 
L 1171.883248 122.581805 
L 1164.197277 125.745557 
L 1161.486674 119.554721 
L 1155.853987 125.351712 
L 1154.907055 118.210444 
z
" clip-path="url(#pa9caff7bf5)" style="fill: #eeeeee; stroke: #000000; stroke-width: 0.3"/>
    <path d="M 836.762407 328.165255 
L 846.661124 316.343413 
L 844.376805 316.15791 
L 846.251115 309.635065 
L 844.181556 309.244461 
L 847.412807 305.055403 
L 848.271851 292.273369 
L 855.723549 283.26703 
L 862.085128 291.453123 
L 862.856325 300.557093 
L 860.064392 296.608893 
L 856.153071 297.504012 
L 852.066015 315.49713 
L 855.944828 313.387963 
L 862.592742 319.956364 
L 849.121139 326.225352 
L 850.800241 328.9855 
L 847.178494 334.935478 
L 839.609679 334.375649 
z
" clip-path="url(#pa9caff7bf5)" style="fill: #eeeeee; stroke: #000000; stroke-width: 0.3"/>
    <path d="M 691.545684 490.009214 
L 700.874931 483.294347 
L 726.09677 483.222753 
L 732.464866 479.492613 
L 737.882793 486.321431 
L 743.281206 487.564797 
L 744.956989 493.573369 
L 753.238462 493.514775 
L 767.696022 509.926038 
L 763.088357 515.745827 
L 752.106079 520.283173 
L 740.33633 516.709259 
L 732.80654 507.214685 
L 719.497638 498.637987 
L 698.001628 496.574376 
z
" clip-path="url(#pa9caff7bf5)" style="fill: #eeeeee; stroke: #000000; stroke-width: 0.3"/>
    <path d="M 846.553724 165.647517 
L 850.624506 154.958412 
L 861.64585 153.715046 
L 863.344425 163.691336 
L 868.153855 157.07086 
L 874.186795 158.480211 
L 875.2053 165.224396 
L 870.399109 168.563931 
L 865.609231 164.765438 
L 863.799977 173.198949 
L 858.495969 170.979071 
L 861.460358 167.327084 
L 860.161996 159.925399 
L 849.90537 171.483585 
z
" clip-path="url(#pa9caff7bf5)" style="fill: #eeeeee; stroke: #000000; stroke-width: 0.3"/>
    <path d="M 825.265997 322.677476 
L 830.182828 310.360919 
L 827.179373 301.57264 
L 829.385561 297.725351 
L 842.518768 292.510947 
L 845.274914 304.554129 
L 838.246261 314.286321 
L 840.416662 319.748063 
L 838.011947 324.692292 
L 835.815515 325.04054 
L 834.536666 319.357458 
L 832.821817 323.745098 
L 830.36828 322.016736 
L 832.118955 320.490195 
z
" clip-path="url(#pa9caff7bf5)" style="fill: #eeeeee; stroke: #000000; stroke-width: 0.3"/>
    <path d="M 1178.540958 416.15855 
L 1183.942611 416.145511 
L 1181.202739 413.863839 
L 1183.610693 407.38983 
L 1192.071139 401.257549 
L 1196.68856 393.120291 
L 1202.106487 393.143049 
L 1199.652949 398.074239 
L 1202.311491 404.597084 
L 1199.265732 412.682307 
L 1186.617386 428.598815 
L 1185.286516 425.324354 
L 1178.599537 427.908758 
z
" clip-path="url(#pa9caff7bf5)" style="fill: #eeeeee; stroke: #000000; stroke-width: 0.3"/>
    <path d="M 1025.817198 127.67898 
L 1026.673003 121.491425 
L 1031.856655 124.518468 
L 1034.677857 119.984402 
L 1037.147668 120.905518 
L 1041.521059 127.13215 
L 1038.162935 132.590652 
L 1040.108819 136.193844 
L 1049.555223 138.495074 
L 1044.195835 143.409985 
L 1039.031735 138.000319 
L 1032.312208 140.529368 
L 1032.813303 133.557364 
z
" clip-path="url(#pa9caff7bf5)" style="fill: #eeeeee; stroke: #000000; stroke-width: 0.3"/>
    <path d="M 236.182649 224.564704 
L 241.105957 210.357 
L 247.666063 208.902052 
L 255.586309 213.592385 
L 258.205785 212.225309 
L 266.034944 221.833833 
L 262.712607 233.330144 
L 257.249097 236.936616 
L 253.529786 237.489925 
L 249.110812 229.964571 
L 246.901345 234.58655 
L 238.40839 237.050645 
L 238.737029 224.613499 
z
" clip-path="url(#pa9caff7bf5)" style="fill: #eeeeee; stroke: #000000; stroke-width: 0.3"/>
    <path d="M 907.215001 182.732559 
L 909.44726 174.618059 
L 914.770821 172.951571 
L 935.960943 178.514184 
L 938.85052 175.213725 
L 941.909274 179.451618 
L 944.785816 177.029959 
L 946.770766 183.204516 
L 934.581251 185.671731 
L 927.175096 183.70579 
L 915.776331 188.161744 
L 910.29003 188.064113 
z
" clip-path="url(#pa9caff7bf5)" style="fill: #eeeeee; stroke: #000000; stroke-width: 0.3"/>
    <path d="M 567.74592 460.550221 
L 568.118983 456.867997 
L 577.674826 457.365712 
L 575.290144 445.677618 
L 585.624381 437.328499 
L 599.496196 438.881077 
L 603.88914 443.548612 
L 594.183231 459.983513 
L 596.779516 463.698974 
L 592.030943 464.678765 
L 591.091489 461.33211 
L 590.290624 466.04332 
z
" clip-path="url(#pa9caff7bf5)" style="fill: #eeeeee; stroke: #000000; stroke-width: 0.3"/>
    <path d="M 512.112992 432.752076 
L 528.493684 435.603376 
L 541.909987 430.08304 
L 558.944718 439.427908 
L 562.214995 444.642272 
L 547.087122 452.828365 
L 542.31024 457.756316 
L 543.345019 461.086092 
L 539.567089 461.906337 
L 540.429412 454.358186 
L 531.269382 446.575696 
L 518.373728 443.337071 
z
" clip-path="url(#pa9caff7bf5)" style="fill: #eeeeee; stroke: #000000; stroke-width: 0.3"/>
    <path d="M 441.927259 390.223395 
L 450.830223 383.550844 
L 496.028431 384.46872 
L 499.192706 387.147036 
L 490.602987 389.804913 
L 489.116894 393.035659 
L 478.61032 393.049577 
L 474.746662 397.792945 
L 460.836301 396.677887 
L 459.108416 393.45878 
L 459.332934 397.123806 
L 443.277642 394.233469 
z
" clip-path="url(#pa9caff7bf5)" style="fill: #eeeeee; stroke: #000000; stroke-width: 0.3"/>
    <path d="M -237.546027 -5.352487 
L -234.327812 -5.936754 
L -233.86898 -9.782443 
L -229.056311 -8.330735 
L -230.208248 -5.936754 
L -220.481987 -1.430325 
L -221.422401 1.733467 
L -219.216172 0.701641 
L -206.359583 11.317553 
L -212.138697 13.698496 
L -222.906255 4.740993 
L -233.908046 1.733467 
z
" clip-path="url(#pa9caff7bf5)" style="fill: #eeeeee; stroke: #000000; stroke-width: 0.3"/>
    <path d="M 973.695738 237.823895 
L 977.661438 232.380671 
L 982.103004 235.170177 
L 990.875616 230.716463 
L 1007.614256 230.843411 
L 1017.750486 235.927588 
L 1016.19182 240.816462 
L 1024.39844 242.743366 
L 1022.237795 254.278794 
L 1001.878607 262.445689 
L 982.143789 253.134618 
z
" clip-path="url(#pa9caff7bf5)" style="fill: #eeeeee; stroke: #000000; stroke-width: 0.3"/>
    <path d="M 863.158973 448.919242 
L 873.490451 441.908161 
L 868.850239 440.544326 
L 870.633423 438.565346 
L 876.767246 437.787417 
L 874.779017 441.996033 
L 877.626289 442.822758 
L 879.725117 436.801187 
L 891.175983 436.970452 
L 876.94618 446.741681 
L 877.382219 450.497858 
z
" clip-path="url(#pa9caff7bf5)" style="fill: #eeeeee; stroke: #000000; stroke-width: 0.3"/>
    <path d="M 30.633288 72.981849 
L 34.398182 69.780621 
L 33.077028 63.654899 
L 36.627162 62.88509 
L 38.58932 67.464752 
L 40.919222 68.068537 
L 44.92163 67.464752 
L 56.310679 76.030051 
L 54.657647 80.157274 
L 50.154104 76.311625 
L 35.026191 76.25791 
z
" clip-path="url(#pa9caff7bf5)" style="fill: #eeeeee; stroke: #000000; stroke-width: 0.3"/>
    <path d="M 1439.382453 444.912447 
L 1444.214675 430.815413 
L 1457.393426 410.273647 
L 1469.644757 404.076292 
L 1482.520899 402.263337 
L 1496.854785 410.931147 
L 1489.481218 423.801093 
L 1490.001866 430.913044 
L 1480.275605 434.639944 
L 1468.883318 444.261467 
z
" clip-path="url(#pa9caff7bf5)" style="fill: #eeeeee; stroke: #000000; stroke-width: 0.3"/>
    <path d="M 1348.702942 133.342544 
L 1364.982751 137.853852 
L 1368.65328 136.057136 
L 1381.727909 150.567533 
L 1388.89975 151.651434 
L 1380.302634 156.73885 
L 1369.281289 155.225308 
L 1364.49789 141.476562 
L 1360.316508 143.390467 
L 1352.233523 139.614772 
z
" clip-path="url(#pa9caff7bf5)" style="fill: #eeeeee; stroke: #000000; stroke-width: 0.3"/>
    <path d="M 253.676212 -52.558461 
L 263.282037 -61.869132 
L 270.131716 -47.070682 
L 266.991632 -39.429779 
L 261.64204 -38.012268 
L 258.069115 -39.926174 
L 261.768914 -43.770223 
L 265.488265 -41.338805 
L 264.782125 -43.770223 
L 256.783788 -46.315551 
z
" clip-path="url(#pa9caff7bf5)" style="fill: #eeeeee; stroke: #000000; stroke-width: 0.3"/>
    <path d="M -121.820372 155.840492 
L -119.243201 146.443549 
L -109.647132 144.532923 
L -94.603828 173.299819 
L -94.603828 177.420564 
L -95.414089 174.081028 
L -97.578013 173.026404 
L -95.38482 178.784359 
L -100.838533 179.995169 
L -110.184054 175.077017 
z
" clip-path="url(#pa9caff7bf5)" style="fill: #eeeeee; stroke: #000000; stroke-width: 0.3"/>
    <path d="M 1296.843785 380.953401 
L 1298.330838 366.250982 
L 1302.304016 368.181166 
L 1298.721334 364.678845 
L 1298.015194 355.089879 
L 1312.18318 365.694392 
L 1313.276538 370.908757 
L 1306.332453 382.261881 
L 1301.308262 384.628225 
z
" clip-path="url(#pa9caff7bf5)" style="fill: #eeeeee; stroke: #000000; stroke-width: 0.3"/>
    <path d="M 907.390737 444.398134 
L 915.952026 437.107159 
L 909.74663 438.487233 
L 913.059211 433.181717 
L 918.168011 436.150206 
L 932.134231 433.871774 
L 939.400438 436.560329 
L 938.970916 441.969996 
L 911.165388 446.575696 
z
" clip-path="url(#pa9caff7bf5)" style="fill: #eeeeee; stroke: #000000; stroke-width: 0.3"/>
    <path d="M 1298.945851 349.257091 
L 1304.76403 350.353991 
L 1303.27042 353.088142 
L 1308.141708 358.068128 
L 1310.816483 359.119472 
L 1307.409537 361.163566 
L 1302.017641 355.656228 
L 1300.397157 355.74738 
z
" clip-path="url(#pa9caff7bf5)" style="fill: #eeeeee; stroke: #000000; stroke-width: 0.3"/>
    <path d="M 1122.565436 183.15896 
L 1147.679915 174.969587 
L 1151.558687 181.329687 
L 1147.731975 185.040309 
L 1151.435053 186.954174 
L 1148.903424 188.412401 
L 1147.487905 185.886591 
L 1139.02422 190.580163 
z
" clip-path="url(#pa9caff7bf5)" style="fill: #eeeeee; stroke: #000000; stroke-width: 0.3"/>
    <path d="M 1051.335168 258.432055 
L 1053.362382 252.716416 
L 1067.224481 248.371093 
L 1067.39046 252.983312 
L 1064.071361 252.491837 
L 1063.453069 256.785045 
L 1057.891995 258.822619 
L 1062.109163 253.468308 
z
" clip-path="url(#pa9caff7bf5)" style="fill: #eeeeee; stroke: #000000; stroke-width: 0.3"/>
    <path d="M 1029.152571 173.192429 
L 1031.140759 164.508301 
L 1033.516205 165.901414 
L 1039.373409 161.051616 
L 1059.802092 171.662609 
L 1060.039645 174.689693 
L 1056.05671 176.483129 
L 1035.312384 177.156908 
z
" clip-path="url(#pa9caff7bf5)" style="fill: #eeeeee; stroke: #000000; stroke-width: 0.3"/>
    <path d="M 964.996499 428.182173 
L 972.783313 414.283721 
L 987.156304 415.709351 
L 999.095271 410.280166 
L 1007.484104 416.933199 
L 996.391186 420.676378 
L 992.665317 426.541723 
L 976.183782 423.267261 
z
" clip-path="url(#pa9caff7bf5)" style="fill: #eeeeee; stroke: #000000; stroke-width: 0.3"/>
    <path d="M 890.346209 446.071182 
L 894.986421 440.414138 
L 898.429194 443.275197 
L 904.377525 435.160697 
L 906.37547 436.697037 
L 900.036643 449.449794 
L 896.427971 449.938029 
L 894.807447 445.075192 
z
" clip-path="url(#pa9caff7bf5)" style="fill: #eeeeee; stroke: #000000; stroke-width: 0.3"/>
    <path d="M 111.765512 115.593522 
L 116.926373 106.694574 
L 124.989846 115.437257 
L 128.292671 113.490834 
L 134.794158 119.167396 
L 131.74516 121.191972 
L 123.759819 116.485361 
L 115.995756 118.757274 
z
" clip-path="url(#pa9caff7bf5)" style="fill: #eeeeee; stroke: #000000; stroke-width: 0.3"/>
    <path d="M -183.002298 51.304106 
L -168.883134 47.144365 
L -148.421943 68.068537 
L -150.589106 83.029732 
L -157.393242 85.000593 
L -161.005193 74.968948 
L -169.738939 70.11587 
L -175.66124 57.231325 
z
" clip-path="url(#pa9caff7bf5)" style="fill: #eeeeee; stroke: #000000; stroke-width: 0.3"/>
    <path d="M 1001.072783 -52.256609 
L 1006.142398 -60.995212 
L 1002.443479 -62.641822 
L 1003.790783 -73.899315 
L 1009.013501 -71.848702 
L 1010.897568 -63.358276 
L 1005.951708 -52.783001 
z
" clip-path="url(#pa9caff7bf5)" style="fill: #eeeeee; stroke: #000000; stroke-width: 0.3"/>
    <path d="M 103.623988 64.178932 
L 117.36893 58.896213 
L 120.688029 70.796168 
L 117.024017 74.729729 
L 111.186325 69.647193 
L 113.750462 66.564794 
L 105.185933 67.767484 
z
" clip-path="url(#pa9caff7bf5)" style="fill: #eeeeee; stroke: #000000; stroke-width: 0.3"/>
    <path d="M 1325.898813 149.014954 
L 1329.00643 145.349889 
L 1332.078179 147.53069 
L 1331.014131 150.785593 
L 1333.822338 148.650388 
L 1330.926283 153.324441 
z
" clip-path="url(#pa9caff7bf5)" style="fill: #eeeeee; stroke: #000000; stroke-width: 0.3"/>
    <path d="M 1152.427528 128.912588 
L 1154.161889 125.560053 
L 1161.060391 125.338714 
L 1159.602607 129.006979 
L 1156.820431 129.186003 
L 1157.832419 126.487689 
z
" clip-path="url(#pa9caff7bf5)" style="fill: #eeeeee; stroke: #000000; stroke-width: 0.3"/>
    <path d="M 1061.878128 17.26913 
L 1066.837263 9.571272 
L 1076.644854 2.57323 
L 1081.441249 8.559004 
L 1076.654611 23.51856 
L 1064.75471 28.101502 
z
" clip-path="url(#pa9caff7bf5)" style="fill: #eeeeee; stroke: #000000; stroke-width: 0.3"/>
    <path d="M 852.098563 269.77542 
L 855.196383 266.846008 
L 862.24459 267.610898 
L 864.203509 271.484225 
L 861.919189 275.399908 
L 855.860219 276.278707 
z
" clip-path="url(#pa9caff7bf5)" style="fill: #eeeeee; stroke: #000000; stroke-width: 0.3"/>
    <path d="M 846.573276 539.005426 
L 856.035914 536.32335 
L 869.523791 525.191566 
L 870.431657 535.034428 
L 862.43332 540.392019 
L 846.911672 543.598087 
z
" clip-path="url(#pa9caff7bf5)" style="fill: #eeeeee; stroke: #000000; stroke-width: 0.3"/>
    <path d="M 806.360194 318.283356 
L 808.241022 311.975332 
L 813.177365 310.709167 
L 816.77952 316.48988 
L 815.959542 325.951937 
L 812.816138 326.606157 
z
" clip-path="url(#pa9caff7bf5)" style="fill: #eeeeee; stroke: #000000; stroke-width: 0.3"/>
    <path d="M 542.759274 385.009031 
L 545.212812 381.298449 
L 557.005352 384.065117 
L 549.475563 384.315734 
L 550.207694 386.799227 
L 545.915673 388.185821 
z
" clip-path="url(#pa9caff7bf5)" style="fill: #eeeeee; stroke: #000000; stroke-width: 0.3"/>
    <path d="M 105.706582 123.94888 
L 113.125692 121.191972 
L 118.315862 126.458412 
L 114.791759 132.463704 
L 111.160295 130.904606 
L 108.596119 134.37433 
z
" clip-path="url(#pa9caff7bf5)" style="fill: #eeeeee; stroke: #000000; stroke-width: 0.3"/>
    <path d="M 22.80089 51.982764 
L 33.308063 58.232194 
L 32.195193 64.865709 
L 33.093302 69.009211 
L 29.146195 70.503235 
L 23.692482 63.931554 
z
" clip-path="url(#pa9caff7bf5)" style="fill: #eeeeee; stroke: #000000; stroke-width: 0.3"/>
    <path d="M -9.726221 31.540308 
L -8.88669 26.138761 
L 0.354709 22.776468 
L 5.404931 29.995849 
L 2.987221 36.78559 
L -5.984118 38.443959 
z
" clip-path="url(#pa9caff7bf5)" style="fill: #eeeeee; stroke: #000000; stroke-width: 0.3"/>
    <path d="M 1307.790277 362.270225 
L 1311.747141 359.301735 
L 1318.209603 364.743959 
L 1315.570614 369.063245 
L 1312.45652 364.880667 
z
" clip-path="url(#pa9caff7bf5)" style="fill: #eeeeee; stroke: #000000; stroke-width: 0.3"/>
    <path d="M 1238.720613 332.006065 
L 1241.82819 331.784725 
L 1246.006372 339.381672 
L 1244.948801 344.843414 
L 1241.603672 345.038716 
z
" clip-path="url(#pa9caff7bf5)" style="fill: #eeeeee; stroke: #000000; stroke-width: 0.3"/>
    <path d="M 1159.94752 146.856951 
L 1169.628198 143.501137 
L 1175.345494 144.497126 
L 1172.429927 162.054125 
L 1164.278607 157.432147 
z
" clip-path="url(#pa9caff7bf5)" style="fill: #eeeeee; stroke: #000000; stroke-width: 0.3"/>
    <path d="M 1076.430093 247.645279 
L 1082.807946 248.917923 
L 1083.107316 252.491837 
L 1080.738388 250.665803 
L 1079.436787 252.807568 
z
" clip-path="url(#pa9caff7bf5)" style="fill: #eeeeee; stroke: #000000; stroke-width: 0.3"/>
    <path d="M 1018.352505 127.949156 
L 1018.424078 119.414774 
L 1021.00125 118.129091 
L 1025.89205 119.183675 
L 1023.39297 127.522754 
z
" clip-path="url(#pa9caff7bf5)" style="fill: #eeeeee; stroke: #000000; stroke-width: 0.3"/>
    <path d="M 968.569384 190.033333 
L 971.361317 186.482217 
L 977.0591 206.418559 
L 974.563258 206.281851 
L 970.209421 197.155084 
z
" clip-path="url(#pa9caff7bf5)" style="fill: #eeeeee; stroke: #000000; stroke-width: 0.3"/>
    <path d="M 947.447596 181.928592 
L 950.119133 178.88851 
L 987.185574 180.672187 
L 971.130282 185.157458 
L 951.319892 185.886591 
z
" clip-path="url(#pa9caff7bf5)" style="fill: #eeeeee; stroke: #000000; stroke-width: 0.3"/>
    <path d="M 941.0242 51.294347 
L 944.037411 49.967988 
L 945.840108 45.847244 
L 944.72072 51.361101 
L 941.450443 52.285496 
z
" clip-path="url(#pa9caff7bf5)" style="fill: #eeeeee; stroke: #000000; stroke-width: 0.3"/>
    <path d="M 799.780575 129.729593 
L 804.173479 123.94888 
L 808.241022 123.94888 
L 809.87778 128.222571 
L 803.503165 127.102873 
z
" clip-path="url(#pa9caff7bf5)" style="fill: #eeeeee; stroke: #000000; stroke-width: 0.3"/>
    <path d="M 718.729681 458.976885 
L 719.497638 451.741225 
L 721.93814 454.559967 
L 725.777887 452.844644 
L 722.048779 459.937117 
z
" clip-path="url(#pa9caff7bf5)" style="fill: #eeeeee; stroke: #000000; stroke-width: 0.3"/>
    <path d="M 709.367885 457.502419 
L 710.734583 445.608984 
L 716.913949 451.493847 
L 712.394132 451.741225 
L 712.918019 457.502419 
z
" clip-path="url(#pa9caff7bf5)" style="fill: #eeeeee; stroke: #000000; stroke-width: 0.3"/>
    <path d="M 574.827554 253.061425 
L 578.947118 240.862017 
L 584.882454 236.650162 
L 586.428085 264.072821 
L 577.831009 270.566348 
z
" clip-path="url(#pa9caff7bf5)" style="fill: #eeeeee; stroke: #000000; stroke-width: 0.3"/>
    <path d="M 310.959812 158.083127 
L 313.286436 146.98386 
L 323.204667 147.387463 
L 324.655933 152.061516 
L 314.366759 159.59015 
z
" clip-path="url(#pa9caff7bf5)" style="fill: #eeeeee; stroke: #000000; stroke-width: 0.3"/>
    <path d="M 139.13828 373.122115 
L 141.871634 369.789059 
L 144.89788 369.001371 
L 142.486647 374.814641 
L 141.350985 371.208209 
z
" clip-path="url(#pa9caff7bf5)" style="fill: #eeeeee; stroke: #000000; stroke-width: 0.3"/>
    <path d="M 39.360516 67.033471 
L 46.437992 61.381347 
L 59.421494 70.796168 
L 59.447524 74.534427 
L 45.995474 66.652666 
z
" clip-path="url(#pa9caff7bf5)" style="fill: #eeeeee; stroke: #000000; stroke-width: 0.3"/>
    <path d="M 14.691874 43.298676 
L 32.878541 47.295711 
L 33.522824 57.083219 
L 27.584249 51.382259 
L 18.199703 48.903645 
z
" clip-path="url(#pa9caff7bf5)" style="fill: #eeeeee; stroke: #000000; stroke-width: 0.3"/>
    <path d="M -58.015731 226.559962 
L -56.502608 218.803509 
L -46.896783 228.509624 
L -49.652929 235.23753 
L -47.170122 241.27214 
z
" clip-path="url(#pa9caff7bf5)" style="fill: #eeeeee; stroke: #000000; stroke-width: 0.3"/>
    <path d="M -84.477354 193.717877 
L -82.987022 189.134975 
L -77.813126 190.61272 
L -71.741161 203.101821 
L -81.44463 198.522159 
z
" clip-path="url(#pa9caff7bf5)" style="fill: #eeeeee; stroke: #000000; stroke-width: 0.3"/>
    <path d="M -264.93179 -121.855541 
L -260.441242 -120.153217 
L -260.187456 -119.723576 
L -260.63649 -118.841496 
L -263.090028 -118.320704 
z
" clip-path="url(#pa9caff7bf5)" style="fill: #eeeeee; stroke: #000000; stroke-width: 0.3"/>
    <path d="M 1325.661301 363.96279 
L 1327.519337 359.392887 
L 1329.422916 360.447471 
L 1326.949867 366.81409 
z
" clip-path="url(#pa9caff7bf5)" style="fill: #eeeeee; stroke: #000000; stroke-width: 0.3"/>
    <path d="M 1319.029621 376.259829 
L 1322.192497 371.445828 
L 1323.399733 373.122115 
L 1320.676135 378.798677 
z
" clip-path="url(#pa9caff7bf5)" style="fill: #eeeeee; stroke: #000000; stroke-width: 0.3"/>
    <path d="M 1314.760352 204.166164 
L 1316.576084 199.615779 
L 1317.152032 200.214685 
L 1317.148793 204.556729 
z
" clip-path="url(#pa9caff7bf5)" style="fill: #eeeeee; stroke: #000000; stroke-width: 0.3"/>
    <path d="M 1307.233842 191.231144 
L 1309.30336 188.044595 
L 1310.953153 189.489743 
L 1308.29789 194.030369 
z
" clip-path="url(#pa9caff7bf5)" style="fill: #eeeeee; stroke: #000000; stroke-width: 0.3"/>
    <path d="M 1300.663979 181.095348 
L 1303.338755 177.443322 
L 1303.696703 179.744552 
L 1300.911288 185.639214 
z
" clip-path="url(#pa9caff7bf5)" style="fill: #eeeeee; stroke: #000000; stroke-width: 0.3"/>
    <path d="M 1273.515769 205.149155 
L 1274.150296 204.878979 
L 1277.586511 206.359964 
L 1276.434615 208.413817 
z
" clip-path="url(#pa9caff7bf5)" style="fill: #eeeeee; stroke: #000000; stroke-width: 0.3"/>
    <path d="M 1247.6171 347.759828 
L 1258.326039 320.32745 
L 1261.293707 320.301412 
L 1258.452952 331.713132 
z
" clip-path="url(#pa9caff7bf5)" style="fill: #eeeeee; stroke: #000000; stroke-width: 0.3"/>
    <path d="M 1226.677525 328.432151 
L 1229.160331 329.252396 
L 1228.789388 330.053123 
L 1227.305574 330.805014 
z
" clip-path="url(#pa9caff7bf5)" style="fill: #eeeeee; stroke: #000000; stroke-width: 0.3"/>
    <path d="M 1173.523245 406.810442 
L 1174.681698 404.489694 
L 1180.942395 404.050254 
L 1177.164505 408.027771 
z
" clip-path="url(#pa9caff7bf5)" style="fill: #eeeeee; stroke: #000000; stroke-width: 0.3"/>
    <path d="M 1172.800871 415.93397 
L 1173.933254 414.17957 
L 1178.150462 413.040354 
L 1177.642849 415.572643 
z
" clip-path="url(#pa9caff7bf5)" style="fill: #eeeeee; stroke: #000000; stroke-width: 0.3"/>
    <path d="M 1149.967473 145.076513 
L 1153.10108 139.901185 
L 1170.643464 139.041904 
L 1166.728905 142.716689 
z
" clip-path="url(#pa9caff7bf5)" style="fill: #eeeeee; stroke: #000000; stroke-width: 0.3"/>
    <path d="M 1123.727129 155.899086 
L 1128.31528 153.584817 
L 1132.145271 154.411582 
L 1128.338072 157.230325 
z
" clip-path="url(#pa9caff7bf5)" style="fill: #eeeeee; stroke: #000000; stroke-width: 0.3"/>
    <path d="M 1117.381824 423.960558 
L 1119.272408 419.719425 
L 1127.615658 422.993846 
L 1125.025491 430.092799 
z
" clip-path="url(#pa9caff7bf5)" style="fill: #eeeeee; stroke: #000000; stroke-width: 0.3"/>
    <path d="M 1105.716196 106.001277 
L 1106.347444 105.986639 
L 1115.448935 113.276014 
L 1115.585605 116.576473 
z
" clip-path="url(#pa9caff7bf5)" style="fill: #eeeeee; stroke: #000000; stroke-width: 0.3"/>
    <path d="M 1087.36355 435.870272 
L 1089.56326 434.991472 
L 1095.166679 436.150206 
L 1094.229543 438.422119 
z
" clip-path="url(#pa9caff7bf5)" style="fill: #eeeeee; stroke: #000000; stroke-width: 0.3"/>
    <path d="M 1059.141535 13.584586 
L 1061.73822 13.226539 
L 1060.791288 16.019244 
L 1060.179553 16.461924 
z
" clip-path="url(#pa9caff7bf5)" style="fill: #eeeeee; stroke: #000000; stroke-width: 0.3"/>
    <path d="M 1044.462697 432.576332 
L 1047.300173 431.821161 
L 1057.618656 433.119883 
L 1055.021931 438.334247 
z
" clip-path="url(#pa9caff7bf5)" style="fill: #eeeeee; stroke: #000000; stroke-width: 0.3"/>
    <path d="M 1032.432604 157.334476 
L 1035.891611 154.746832 
L 1041.59915 156.455676 
L 1040.642462 158.779664 
z
" clip-path="url(#pa9caff7bf5)" style="fill: #eeeeee; stroke: #000000; stroke-width: 0.3"/>
    <path d="M 1029.949797 107.784955 
L 1030.359806 102.02704 
L 1032.103964 102.300455 
L 1032.403334 108.061649 
z
" clip-path="url(#pa9caff7bf5)" style="fill: #eeeeee; stroke: #000000; stroke-width: 0.3"/>
    <path d="M 1029.152571 82.989056 
L 1029.403118 77.624945 
L 1030.743785 77.624945 
L 1031.856655 81.223257 
z
" clip-path="url(#pa9caff7bf5)" style="fill: #eeeeee; stroke: #000000; stroke-width: 0.3"/>
    <path d="M 1027.489742 93.958096 
L 1029.953036 92.726128 
L 1030.691724 95.391885 
L 1028.332552 96.568538 
z
" clip-path="url(#pa9caff7bf5)" style="fill: #eeeeee; stroke: #000000; stroke-width: 0.3"/>
    <path d="M 1019.812527 263.293252 
L 1020.617271 260.45987 
L 1023.39297 260.736525 
L 1023.662391 264.326517 
z
" clip-path="url(#pa9caff7bf5)" style="fill: #eeeeee; stroke: #000000; stroke-width: 0.3"/>
    <path d="M 1003.774709 -46.21324 
L 1006.477515 -45.032588 
L 1008.25562 -42.405987 
L 1006.475195 -41.352763 
z
" clip-path="url(#pa9caff7bf5)" style="fill: #eeeeee; stroke: #000000; stroke-width: 0.3"/>
    <path d="M 951.716865 -41.540586 
L 960.131729 -30.86448 
L 958.719489 -27.882992 
L 954.326585 -30.612223 
z
" clip-path="url(#pa9caff7bf5)" style="fill: #eeeeee; stroke: #000000; stroke-width: 0.3"/>
    <path d="M 948.440071 -2.214773 
L 951.778683 -3.803148 
L 950.877334 2.560192 
L 949.738433 2.762013 
z
" clip-path="url(#pa9caff7bf5)" style="fill: #eeeeee; stroke: #000000; stroke-width: 0.3"/>
    <path d="M 875.651096 317.710489 
L 879.012499 318.550252 
L 879.412752 322.563566 
L 876.432049 321.941863 
z
" clip-path="url(#pa9caff7bf5)" style="fill: #eeeeee; stroke: #000000; stroke-width: 0.3"/>
    <path d="M 866.936863 521.428869 
L 869.640948 514.880026 
L 872.696464 513.864479 
L 870.600875 521.175012 
z
" clip-path="url(#pa9caff7bf5)" style="fill: #eeeeee; stroke: #000000; stroke-width: 0.3"/>
    <path d="M 854.85147 443.548612 
L 860.327975 437.621432 
L 868.010668 438.63046 
L 865.638501 444.056405 
z
" clip-path="url(#pa9caff7bf5)" style="fill: #eeeeee; stroke: #000000; stroke-width: 0.3"/>
    <path d="M 816.906433 123.828451 
L 817.150503 118.672642 
L 817.872878 118.461101 
L 819.65934 123.275102 
z
" clip-path="url(#pa9caff7bf5)" style="fill: #eeeeee; stroke: #000000; stroke-width: 0.3"/>
    <path d="M 808.520839 123.021205 
L 811.146833 120.397764 
L 815.266437 121.191972 
L 815.14928 124.183219 
z
" clip-path="url(#pa9caff7bf5)" style="fill: #eeeeee; stroke: #000000; stroke-width: 0.3"/>
    <path d="M 801.693951 530.438487 
L 811.693512 525.074376 
L 814.000623 528.228409 
L 809.36041 531.802283 
z
" clip-path="url(#pa9caff7bf5)" style="fill: #eeeeee; stroke: #000000; stroke-width: 0.3"/>
    <path d="M 756.356155 390.797863 
L 758.955318 387.812375 
L 764.962668 393.104012 
L 760.918316 393.920418 
z
" clip-path="url(#pa9caff7bf5)" style="fill: #eeeeee; stroke: #000000; stroke-width: 0.3"/>
    <path d="M 694.939595 435.466669 
L 697.585101 433.139401 
L 699.625391 435.502466 
L 696.189135 438.334247 
z
" clip-path="url(#pa9caff7bf5)" style="fill: #eeeeee; stroke: #000000; stroke-width: 0.3"/>
    <path d="M 676.39174 15.428498 
L 680.3063 20.328771 
L 680.3063 20.624944 
L 677.273576 18.440903 
z
" clip-path="url(#pa9caff7bf5)" style="fill: #eeeeee; stroke: #000000; stroke-width: 0.3"/>
    <path d="M 645.543732 -35.35791 
L 648.062325 -35.095894 
L 649.900848 -31.979298 
L 647.193485 -31.842591 
z
" clip-path="url(#pa9caff7bf5)" style="fill: #eeeeee; stroke: #000000; stroke-width: 0.3"/>
    <path d="M 643.327747 -46.800547 
L 646.441841 -46.32371 
L 647.99399 -44.043638 
L 645.507945 -44.863883 
z
" clip-path="url(#pa9caff7bf5)" style="fill: #eeeeee; stroke: #000000; stroke-width: 0.3"/>
    <path d="M 642.292328 -58.613309 
L 650.426575 -58.344054 
L 651.537606 -54.472367 
L 647.688103 -53.684679 
z
" clip-path="url(#pa9caff7bf5)" style="fill: #eeeeee; stroke: #000000; stroke-width: 0.3"/>
    <path d="M 637.929334 -54.631872 
L 640.594353 -58.046241 
L 644.274639 -54.150116 
L 640.760332 -51.399727 
z
" clip-path="url(#pa9caff7bf5)" style="fill: #eeeeee; stroke: #000000; stroke-width: 0.3"/>
    <path d="M 633.624278 435.193254 
L 640.721266 433.803421 
L 636.813224 442.435433 
L 633.852074 442.318284 
z
" clip-path="url(#pa9caff7bf5)" style="fill: #eeeeee; stroke: #000000; stroke-width: 0.3"/>
    <path d="M 622.876273 -34.490469 
L 629.901688 -34.734567 
L 634.84127 -31.160693 
L 624.984897 -32.086729 
z
" clip-path="url(#pa9caff7bf5)" style="fill: #eeeeee; stroke: #000000; stroke-width: 0.3"/>
    <path d="M 563.897336 393.89494 
L 569.80988 392.166578 
L 569.94655 394.461289 
L 567.684982 395.769769 
z
" clip-path="url(#pa9caff7bf5)" style="fill: #eeeeee; stroke: #000000; stroke-width: 0.3"/>
    <path d="M 552.911778 457.150891 
L 556.185334 454.524171 
L 559.146764 458.632476 
L 557.734244 460.168216 
z
" clip-path="url(#pa9caff7bf5)" style="fill: #eeeeee; stroke: #000000; stroke-width: 0.3"/>
    <path d="M 437.534315 339.655087 
L 442.24938 336.927496 
L 443.479408 341.022163 
L 438.393399 341.783813 
z
" clip-path="url(#pa9caff7bf5)" style="fill: #eeeeee; stroke: #000000; stroke-width: 0.3"/>
    <path d="M 298.304949 159.925399 
L 298.864663 159.111673 
L 301.080648 158.206796 
L 300.04259 160.361559 
z
" clip-path="url(#pa9caff7bf5)" style="fill: #eeeeee; stroke: #000000; stroke-width: 0.3"/>
    <path d="M 293.000941 6.171502 
L 294.133324 5.447288 
L 298.620593 6.649978 
L 295.343799 8.484131 
z
" clip-path="url(#pa9caff7bf5)" style="fill: #eeeeee; stroke: #000000; stroke-width: 0.3"/>
    <path d="M 286.011313 171.115779 
L 290.300095 169.218192 
L 292.844718 170.839124 
L 288.604759 174.461833 
z
" clip-path="url(#pa9caff7bf5)" style="fill: #eeeeee; stroke: #000000; stroke-width: 0.3"/>
    <path d="M 281.371101 176.453852 
L 283.206345 175.646605 
L 285.402817 176.011172 
L 284.631621 176.600318 
z
" clip-path="url(#pa9caff7bf5)" style="fill: #eeeeee; stroke: #000000; stroke-width: 0.3"/>
    <path d="M 251.785627 -79.730463 
L 251.91578 -80.42052 
L 254.49623 -82.969128 
L 254.027642 -79.727224 
z
" clip-path="url(#pa9caff7bf5)" style="fill: #eeeeee; stroke: #000000; stroke-width: 0.3"/>
    <path d="M 227.952158 223.371893 
L 233.673812 220.717375 
L 234.487313 222.08445 
L 230.705345 225.799951 
z
" clip-path="url(#pa9caff7bf5)" style="fill: #eeeeee; stroke: #000000; stroke-width: 0.3"/>
    <path d="M 203.21626 226.540404 
L 206.808698 223.584953 
L 210.664679 225.088736 
L 208.754582 229.056454 
z
" clip-path="url(#pa9caff7bf5)" style="fill: #eeeeee; stroke: #000000; stroke-width: 0.3"/>
    <path d="M 102.979705 79.584407 
L 105.166381 80.909166 
L 105.43972 82.863748 
L 105.003681 82.590332 
z
" clip-path="url(#pa9caff7bf5)" style="fill: #eeeeee; stroke: #000000; stroke-width: 0.3"/>
    <path d="M 102.1792 76.711949 
L 105.264025 76.049569 
L 105.706582 79.584407 
L 102.569696 78.868352 
z
" clip-path="url(#pa9caff7bf5)" style="fill: #eeeeee; stroke: #000000; stroke-width: 0.3"/>
    <path d="M 98.313462 69.954765 
L 101.232308 72.571726 
L 103.389714 72.708434 
L 101.404765 75.971456 
z
" clip-path="url(#pa9caff7bf5)" style="fill: #eeeeee; stroke: #000000; stroke-width: 0.3"/>
    <path d="M 90.620973 65.044733 
L 95.586586 60.396717 
L 100.200768 61.493617 
L 98.040123 68.314274 
z
" clip-path="url(#pa9caff7bf5)" style="fill: #eeeeee; stroke: #000000; stroke-width: 0.3"/>
    <path d="M 87.09687 72.462656 
L 90.279299 73.777656 
L 92.007183 76.882853 
L 90.806465 76.681031 
z
" clip-path="url(#pa9caff7bf5)" style="fill: #eeeeee; stroke: #000000; stroke-width: 0.3"/>
    <path d="M 81.06393 74.324486 
L 83.078189 75.987735 
L 83.348249 77.250659 
L 82.391561 77.283216 
z
" clip-path="url(#pa9caff7bf5)" style="fill: #eeeeee; stroke: #000000; stroke-width: 0.3"/>
    <path d="M 68.656376 73.012766 
L 70.394056 72.708434 
L 73.918119 76.829138 
L 71.731444 82.019105 
z
" clip-path="url(#pa9caff7bf5)" style="fill: #eeeeee; stroke: #000000; stroke-width: 0.3"/>
    <path d="M 67.712723 63.456318 
L 69.951499 62.701186 
L 72.082875 67.401278 
L 67.99258 67.131142 
z
" clip-path="url(#pa9caff7bf5)" style="fill: #eeeeee; stroke: #000000; stroke-width: 0.3"/>
    <path d="M 59.981208 86.335111 
L 61.530118 80.09056 
L 66.105234 82.893025 
L 65.591104 86.388826 
z
" clip-path="url(#pa9caff7bf5)" style="fill: #eeeeee; stroke: #000000; stroke-width: 0.3"/>
    <path d="M 18.323337 321.284363 
L 21.258457 319.103602 
L 30.633288 324.038032 
L 25.716457 327.859323 
z
" clip-path="url(#pa9caff7bf5)" style="fill: #eeeeee; stroke: #000000; stroke-width: 0.3"/>
    <path d="M -66.60633 207.655406 
L -57.322626 215.639718 
L -60.052742 220.717375 
L -64.966294 221.264205 
z
" clip-path="url(#pa9caff7bf5)" style="fill: #eeeeee; stroke: #000000; stroke-width: 0.3"/>
    <path d="M -124.020403 104.295033 
L -123.666253 101.535605 
L -113.344171 101.47205 
L -111.507207 103.523663 
z
" clip-path="url(#pa9caff7bf5)" style="fill: #eeeeee; stroke: #000000; stroke-width: 0.3"/>
    <path d="M -256.978996 -128.171685 
L -254.167511 -126.36685 
L -251.850684 -127.927588 
L -251.987313 -123.238895 
z
" clip-path="url(#pa9caff7bf5)" style="fill: #eeeeee; stroke: #000000; stroke-width: 0.3"/>
    <path d="M 1478.580269 377.047517 
L 1485.335623 381.064071 
L 1482.49159 382.470222 
z
" clip-path="url(#pa9caff7bf5)" style="fill: #eeeeee; stroke: #000000; stroke-width: 0.3"/>
    <path d="M 1475.762306 441.761695 
L 1485.251015 434.236301 
L 1489.598375 444.095442 
z
" clip-path="url(#pa9caff7bf5)" style="fill: #eeeeee; stroke: #000000; stroke-width: 0.3"/>
    <path d="M 1350.775739 172.333108 
L 1409.842563 179.881259 
L 1384.529598 184.275378 
z
" clip-path="url(#pa9caff7bf5)" style="fill: #eeeeee; stroke: #000000; stroke-width: 0.3"/>
    <path d="M 1337.766206 168.24496 
L 1338.254307 166.855127 
L 1347.248397 167.268489 
z
" clip-path="url(#pa9caff7bf5)" style="fill: #eeeeee; stroke: #000000; stroke-width: 0.3"/>
    <path d="M 1318.850647 367.328363 
L 1321.271636 366.195667 
L 1320.890896 370.407522 
z
" clip-path="url(#pa9caff7bf5)" style="fill: #eeeeee; stroke: #000000; stroke-width: 0.3"/>
    <path d="M 1306.80428 78.689328 
L 1307.621059 77.302735 
L 1307.78048 77.830007 
z
" clip-path="url(#pa9caff7bf5)" style="fill: #eeeeee; stroke: #000000; stroke-width: 0.3"/>
    <path d="M 1300.693248 338.620022 
L 1302.720502 340.511129 
L 1301.126049 340.979846 
z
" clip-path="url(#pa9caff7bf5)" style="fill: #eeeeee; stroke: #000000; stroke-width: 0.3"/>
    <path d="M 1266.887328 272.226357 
L 1279.021543 279.901457 
L 1269.444987 276.080165 
z
" clip-path="url(#pa9caff7bf5)" style="fill: #eeeeee; stroke: #000000; stroke-width: 0.3"/>
    <path d="M 1244.473696 335.039628 
L 1245.323024 328.978981 
L 1246.367559 330.111718 
z
" clip-path="url(#pa9caff7bf5)" style="fill: #eeeeee; stroke: #000000; stroke-width: 0.3"/>
    <path d="M 1238.740166 244.846054 
L 1240.588446 244.305743 
L 1242.042951 248.667306 
z
" clip-path="url(#pa9caff7bf5)" style="fill: #eeeeee; stroke: #000000; stroke-width: 0.3"/>
    <path d="M 1212.434726 321.629411 
L 1214.588893 321.121618 
L 1212.561639 323.439126 
z
" clip-path="url(#pa9caff7bf5)" style="fill: #eeeeee; stroke: #000000; stroke-width: 0.3"/>
    <path d="M 1203.229113 393.530414 
L 1210.677573 392.026631 
L 1212.561639 398.06776 
z
" clip-path="url(#pa9caff7bf5)" style="fill: #eeeeee; stroke: #000000; stroke-width: 0.3"/>
    <path d="M 1202.946018 297.158963 
L 1204.117467 297.351025 
L 1203.40157 298.542317 
z
" clip-path="url(#pa9caff7bf5)" style="fill: #eeeeee; stroke: #000000; stroke-width: 0.3"/>
    <path d="M 1199.282006 285.109302 
L 1201.159595 288.852441 
L 1200.378602 289.262563 
z
" clip-path="url(#pa9caff7bf5)" style="fill: #eeeeee; stroke: #000000; stroke-width: 0.3"/>
    <path d="M 1196.844743 213.940673 
L 1199.539071 212.446649 
L 1200.128055 212.427131 
z
" clip-path="url(#pa9caff7bf5)" style="fill: #eeeeee; stroke: #000000; stroke-width: 0.3"/>
    <path d="M 1195.43902 377.405564 
L 1198.924058 376.272868 
L 1195.985699 379.944413 
z
" clip-path="url(#pa9caff7bf5)" style="fill: #eeeeee; stroke: #000000; stroke-width: 0.3"/>
    <path d="M 1188.732528 266.38053 
L 1190.587285 266.237303 
L 1189.972272 269.77542 
z
" clip-path="url(#pa9caff7bf5)" style="fill: #eeeeee; stroke: #000000; stroke-width: 0.3"/>
    <path d="M 1185.208425 270.693297 
L 1185.732312 270.419882 
L 1189.620841 274.032832 
z
" clip-path="url(#pa9caff7bf5)" style="fill: #eeeeee; stroke: #000000; stroke-width: 0.3"/>
    <path d="M 1184.092276 65.806383 
L 1184.795137 65.031694 
L 1184.144336 66.141633 
z
" clip-path="url(#pa9caff7bf5)" style="fill: #eeeeee; stroke: #000000; stroke-width: 0.3"/>
    <path d="M 1183.431719 66.913042 
L 1183.744124 66.49804 
L 1183.714814 66.72262 
z
" clip-path="url(#pa9caff7bf5)" style="fill: #eeeeee; stroke: #000000; stroke-width: 0.3"/>
    <path d="M 1182.582431 402.165666 
L 1184.547868 399.766805 
L 1185.032689 402.712496 
z
" clip-path="url(#pa9caff7bf5)" style="fill: #eeeeee; stroke: #000000; stroke-width: 0.3"/>
    <path d="M 1182.315609 267.051029 
L 1183.942611 268.281397 
L 1183.532601 269.77542 
z
" clip-path="url(#pa9caff7bf5)" style="fill: #eeeeee; stroke: #000000; stroke-width: 0.3"/>
    <path d="M 1167.594466 409.03028 
L 1168.300567 407.357273 
L 1173.386575 409.957955 
z
" clip-path="url(#pa9caff7bf5)" style="fill: #eeeeee; stroke: #000000; stroke-width: 0.3"/>
    <path d="M 1164.490129 441.908161 
L 1171.011169 433.178478 
L 1181.215734 432.875785 
z
" clip-path="url(#pa9caff7bf5)" style="fill: #eeeeee; stroke: #000000; stroke-width: 0.3"/>
    <path d="M 1134.992503 418.781991 
L 1135.204025 418.384907 
L 1137.179219 419.374377 
z
" clip-path="url(#pa9caff7bf5)" style="fill: #eeeeee; stroke: #000000; stroke-width: 0.3"/>
    <path d="M 1133.879633 360.274967 
L 1135.008777 360.623255 
L 1133.91546 360.57118 
z
" clip-path="url(#pa9caff7bf5)" style="fill: #eeeeee; stroke: #000000; stroke-width: 0.3"/>
    <path d="M 1133.271137 416.073918 
L 1134.006546 416.148791 
L 1133.856881 417.808799 
z
" clip-path="url(#pa9caff7bf5)" style="fill: #eeeeee; stroke: #000000; stroke-width: 0.3"/>
    <path d="M 1128.331554 290.082808 
L 1128.930294 289.724761 
L 1131.302461 290.408299 
z
" clip-path="url(#pa9caff7bf5)" style="fill: #eeeeee; stroke: #000000; stroke-width: 0.3"/>
    <path d="M 1127.924824 125.202006 
L 1130.521509 125.608889 
L 1128.546315 127.851484 
z
" clip-path="url(#pa9caff7bf5)" style="fill: #eeeeee; stroke: #000000; stroke-width: 0.3"/>
    <path d="M 1124.283564 288.793846 
L 1125.103582 288.871959 
L 1124.781421 289.464385 
z
" clip-path="url(#pa9caff7bf5)" style="fill: #eeeeee; stroke: #000000; stroke-width: 0.3"/>
    <path d="M 1120.313665 409.284177 
L 1122.526411 410.208572 
L 1121.755214 410.983222 
z
" clip-path="url(#pa9caff7bf5)" style="fill: #eeeeee; stroke: #000000; stroke-width: 0.3"/>
    <path d="M 1113.428199 377.047517 
L 1115.13653 376.806659 
L 1114.436947 378.671729 
z
" clip-path="url(#pa9caff7bf5)" style="fill: #eeeeee; stroke: #000000; stroke-width: 0.3"/>
    <path d="M 1098.677747 386.792748 
L 1099.771104 386.366347 
L 1099.995622 387.54136 
z
" clip-path="url(#pa9caff7bf5)" style="fill: #eeeeee; stroke: #000000; stroke-width: 0.3"/>
    <path d="M 1083.839487 254.285273 
L 1086.406862 254.952532 
L 1084.45446 255.880208 
z
" clip-path="url(#pa9caff7bf5)" style="fill: #eeeeee; stroke: #000000; stroke-width: 0.3"/>
    <path d="M 1075.141487 393.104012 
L 1078.772991 390.408938 
L 1079.534391 396.677887 
z
" clip-path="url(#pa9caff7bf5)" style="fill: #eeeeee; stroke: #000000; stroke-width: 0.3"/>
    <path d="M 1069.707287 253.608255 
L 1071.073984 248.804013 
L 1076.540733 251.570681 
z
" clip-path="url(#pa9caff7bf5)" style="fill: #eeeeee; stroke: #000000; stroke-width: 0.3"/>
    <path d="M 1066.238524 145.636342 
L 1066.931629 145.55823 
L 1070.260484 148.943321 
z
" clip-path="url(#pa9caff7bf5)" style="fill: #eeeeee; stroke: #000000; stroke-width: 0.3"/>
    <path d="M 1057.325803 438.060832 
L 1062.535446 435.853994 
L 1061.272911 439.281441 
z
" clip-path="url(#pa9caff7bf5)" style="fill: #eeeeee; stroke: #000000; stroke-width: 0.3"/>
    <path d="M 1047.078894 229.056454 
L 1051.039037 224.564704 
L 1051.888324 228.636572 
z
" clip-path="url(#pa9caff7bf5)" style="fill: #eeeeee; stroke: #000000; stroke-width: 0.3"/>
    <path d="M 1045.601598 324.27241 
L 1045.939993 323.894805 
L 1046.135241 324.194257 
z
" clip-path="url(#pa9caff7bf5)" style="fill: #eeeeee; stroke: #000000; stroke-width: 0.3"/>
    <path d="M 1045.074432 321.840992 
L 1045.162279 321.603374 
L 1045.406349 322.006977 
z
" clip-path="url(#pa9caff7bf5)" style="fill: #eeeeee; stroke: #000000; stroke-width: 0.3"/>
    <path d="M 1043.929013 18.021021 
L 1046.646133 18.564612 
L 1045.250167 19.558961 
z
" clip-path="url(#pa9caff7bf5)" style="fill: #eeeeee; stroke: #000000; stroke-width: 0.3"/>
    <path d="M 1039.734597 236.871501 
L 1042.25319 234.15039 
L 1045.139528 237.665709 
z
" clip-path="url(#pa9caff7bf5)" style="fill: #eeeeee; stroke: #000000; stroke-width: 0.3"/>
    <path d="M 1038.162935 436.150206 
L 1041.319293 434.086595 
L 1044.75227 436.381305 
z
" clip-path="url(#pa9caff7bf5)" style="fill: #eeeeee; stroke: #000000; stroke-width: 0.3"/>
    <path d="M 1036.054311 328.383355 
L 1036.210493 328.152256 
L 1036.457802 328.578657 
z
" clip-path="url(#pa9caff7bf5)" style="fill: #eeeeee; stroke: #000000; stroke-width: 0.3"/>
    <path d="M 1035.83955 327.699818 
L 1036.197498 327.507755 
L 1036.282107 327.878841 
z
" clip-path="url(#pa9caff7bf5)" style="fill: #eeeeee; stroke: #000000; stroke-width: 0.3"/>
    <path d="M 1033.223313 239.63169 
L 1036.561924 238.127907 
L 1039.744353 242.137941 
z
" clip-path="url(#pa9caff7bf5)" style="fill: #eeeeee; stroke: #000000; stroke-width: 0.3"/>
    <path d="M 1028.313039 414.107937 
L 1028.915018 408.125402 
L 1033.272135 411.484496 
z
" clip-path="url(#pa9caff7bf5)" style="fill: #eeeeee; stroke: #000000; stroke-width: 0.3"/>
    <path d="M 1025.560132 74.435156 
L 1028.544074 74.272411 
L 1026.520059 77.624945 
z
" clip-path="url(#pa9caff7bf5)" style="fill: #eeeeee; stroke: #000000; stroke-width: 0.3"/>
    <path d="M 1025.374641 164.918424 
L 1027.216403 162.054125 
L 1029.155809 164.120977 
z
" clip-path="url(#pa9caff7bf5)" style="fill: #eeeeee; stroke: #000000; stroke-width: 0.3"/>
    <path d="M 1020.230054 138.801006 
L 1022.042547 132.818511 
L 1025.15988 140.129045 
z
" clip-path="url(#pa9caff7bf5)" style="fill: #eeeeee; stroke: #000000; stroke-width: 0.3"/>
    <path d="M 1020.093384 431.756087 
L 1020.366724 429.275833 
L 1023.005752 432.221525 
z
" clip-path="url(#pa9caff7bf5)" style="fill: #eeeeee; stroke: #000000; stroke-width: 0.3"/>
    <path d="M 1018.931692 -82.17492 
L 1019.839598 -82.161882 
L 1019.449101 -81.689925 
z
" clip-path="url(#pa9caff7bf5)" style="fill: #eeeeee; stroke: #000000; stroke-width: 0.3"/>
    <path d="M 998.621205 -53.833745 
L 1002.520611 -48.906155 
L 1001.859254 -44.56823 
z
" clip-path="url(#pa9caff7bf5)" style="fill: #eeeeee; stroke: #000000; stroke-width: 0.3"/>
    <path d="M 997.835974 -114.007937 
L 997.962848 -114.686595 
L 998.132065 -114.63288 
z
" clip-path="url(#pa9caff7bf5)" style="fill: #eeeeee; stroke: #000000; stroke-width: 0.3"/>
    <path d="M 987.907988 54.980531 
L 990.084907 54.632282 
L 989.255132 56.577065 
z
" clip-path="url(#pa9caff7bf5)" style="fill: #eeeeee; stroke: #000000; stroke-width: 0.3"/>
    <path d="M 948.814294 12.953124 
L 952.13987 14.593614 
L 949.728677 14.889787 
z
" clip-path="url(#pa9caff7bf5)" style="fill: #eeeeee; stroke: #000000; stroke-width: 0.3"/>
    <path d="M 947.405292 24.641498 
L 948.205797 22.721113 
L 950.161438 23.805014 
z
" clip-path="url(#pa9caff7bf5)" style="fill: #eeeeee; stroke: #000000; stroke-width: 0.3"/>
    <path d="M 939.214946 34.777293 
L 941.118565 36.764432 
L 939.826721 38.240537 
z
" clip-path="url(#pa9caff7bf5)" style="fill: #eeeeee; stroke: #000000; stroke-width: 0.3"/>
    <path d="M 906.0761 187.400093 
L 908.933129 187.605155 
L 908.861555 189.460466 
z
" clip-path="url(#pa9caff7bf5)" style="fill: #eeeeee; stroke: #000000; stroke-width: 0.3"/>
    <path d="M 893.22275 342.682171 
L 895.552653 344.459369 
L 896.427971 348.983676 
z
" clip-path="url(#pa9caff7bf5)" style="fill: #eeeeee; stroke: #000000; stroke-width: 0.3"/>
    <path d="M 887.632367 189.864069 
L 889.571774 189.935702 
L 889.535987 190.856818 
z
" clip-path="url(#pa9caff7bf5)" style="fill: #eeeeee; stroke: #000000; stroke-width: 0.3"/>
    <path d="M 885.553053 182.859508 
L 887.847128 185.046788 
L 885.826392 187.585636 
z
" clip-path="url(#pa9caff7bf5)" style="fill: #eeeeee; stroke: #000000; stroke-width: 0.3"/>
    <path d="M 882.526846 186.186044 
L 882.575628 184.36977 
L 883.890264 185.339761 
z
" clip-path="url(#pa9caff7bf5)" style="fill: #eeeeee; stroke: #000000; stroke-width: 0.3"/>
    <path d="M 881.706828 326.79822 
L 883.389129 326.899091 
L 886.64641 331.713132 
z
" clip-path="url(#pa9caff7bf5)" style="fill: #eeeeee; stroke: #000000; stroke-width: 0.3"/>
    <path d="M 880.044 183.972686 
L 880.636262 185.857274 
L 880.61347 186.433382 
z
" clip-path="url(#pa9caff7bf5)" style="fill: #eeeeee; stroke: #000000; stroke-width: 0.3"/>
    <path d="M 873.802816 176.287827 
L 874.993778 167.209895 
L 878.11439 176.014412 
z
" clip-path="url(#pa9caff7bf5)" style="fill: #eeeeee; stroke: #000000; stroke-width: 0.3"/>
    <path d="M 865.257801 177.830686 
L 869.191873 176.414775 
L 865.277314 179.334429 
z
" clip-path="url(#pa9caff7bf5)" style="fill: #eeeeee; stroke: #000000; stroke-width: 0.3"/>
    <path d="M 856.979607 183.966167 
L 857.851646 178.104101 
L 860.181549 180.85449 
z
" clip-path="url(#pa9caff7bf5)" style="fill: #eeeeee; stroke: #000000; stroke-width: 0.3"/>
    <path d="M 856.511019 250.730917 
L 859.693448 249.461513 
L 858.863674 253.061425 
z
" clip-path="url(#pa9caff7bf5)" style="fill: #eeeeee; stroke: #000000; stroke-width: 0.3"/>
    <path d="M 849.391239 451.194394 
L 854.064 445.823804 
L 860.611071 446.826313 
z
" clip-path="url(#pa9caff7bf5)" style="fill: #eeeeee; stroke: #000000; stroke-width: 0.3"/>
    <path d="M 830.570045 243.407385 
L 832.665634 245.529592 
L 831.422572 247.30675 
z
" clip-path="url(#pa9caff7bf5)" style="fill: #eeeeee; stroke: #000000; stroke-width: 0.3"/>
    <path d="M 828.168569 447.083449 
L 830.485436 445.635021 
L 830.446371 447.347105 
z
" clip-path="url(#pa9caff7bf5)" style="fill: #eeeeee; stroke: #000000; stroke-width: 0.3"/>
    <path d="M 825.695519 249.542866 
L 828.298721 250.15805 
L 825.812676 251.128001 
z
" clip-path="url(#pa9caff7bf5)" style="fill: #eeeeee; stroke: #000000; stroke-width: 0.3"/>
    <path d="M 823.115109 115.883176 
L 827.192368 117.129822 
L 829.118739 121.7648 
z
" clip-path="url(#pa9caff7bf5)" style="fill: #eeeeee; stroke: #000000; stroke-width: 0.3"/>
    <path d="M 819.857827 117.227453 
L 821.165946 115.762747 
L 823.541352 118.841906 
z
" clip-path="url(#pa9caff7bf5)" style="fill: #eeeeee; stroke: #000000; stroke-width: 0.3"/>
    <path d="M 804.25161 403.044506 
L 807.479582 403.412312 
L 804.450097 404.512452 
z
" clip-path="url(#pa9caff7bf5)" style="fill: #eeeeee; stroke: #000000; stroke-width: 0.3"/>
    <path d="M 801.134237 440.248153 
L 803.900179 440.345784 
L 802.448873 442.067627 
z
" clip-path="url(#pa9caff7bf5)" style="fill: #eeeeee; stroke: #000000; stroke-width: 0.3"/>
    <path d="M 797.987635 112.895169 
L 800.076706 113.803286 
L 799.071196 115.84414 
z
" clip-path="url(#pa9caff7bf5)" style="fill: #eeeeee; stroke: #000000; stroke-width: 0.3"/>
    <path d="M 795.179428 533.052169 
L 796.689273 532.017103 
L 797.899747 533.250711 
z
" clip-path="url(#pa9caff7bf5)" style="fill: #eeeeee; stroke: #000000; stroke-width: 0.3"/>
    <path d="M 765.795681 399.060509 
L 766.729577 398.181669 
L 776.774721 399.981625 
z
" clip-path="url(#pa9caff7bf5)" style="fill: #eeeeee; stroke: #000000; stroke-width: 0.3"/>
    <path d="M 758.409079 65.013815 
L 760.85286 65.471134 
L 761.438564 66.128634 
z
" clip-path="url(#pa9caff7bf5)" style="fill: #eeeeee; stroke: #000000; stroke-width: 0.3"/>
    <path d="M 752.926097 338.561467 
L 756.45016 350.539534 
L 753.358858 366.976835 
z
" clip-path="url(#pa9caff7bf5)" style="fill: #eeeeee; stroke: #000000; stroke-width: 0.3"/>
    <path d="M 748.816249 65.943091 
L 750.368438 65.472734 
L 749.226258 66.948839 
z
" clip-path="url(#pa9caff7bf5)" style="fill: #eeeeee; stroke: #000000; stroke-width: 0.3"/>
    <path d="M 635.400984 -28.205243 
L 641.505498 -28.063655 
L 640.08674 -21.921616 
z
" clip-path="url(#pa9caff7bf5)" style="fill: #eeeeee; stroke: #000000; stroke-width: 0.3"/>
    <path d="M 630.832345 -23.62882 
L 631.486384 -25.536206 
L 635.251279 -23.713452 
z
" clip-path="url(#pa9caff7bf5)" style="fill: #eeeeee; stroke: #000000; stroke-width: 0.3"/>
    <path d="M 587.157017 249.214136 
L 591.543403 244.286185 
L 589.607275 253.478067 
z
" clip-path="url(#pa9caff7bf5)" style="fill: #eeeeee; stroke: #000000; stroke-width: 0.3"/>
    <path d="M 565.114328 300.495259 
L 568.247935 297.451936 
L 566.448477 300.765434 
z
" clip-path="url(#pa9caff7bf5)" style="fill: #eeeeee; stroke: #000000; stroke-width: 0.3"/>
    <path d="M 514.010094 394.070724 
L 515.835582 392.625536 
L 518.946437 394.571959 
z
" clip-path="url(#pa9caff7bf5)" style="fill: #eeeeee; stroke: #000000; stroke-width: 0.3"/>
    <path d="M 504.989013 391.115674 
L 507.087961 389.883626 
L 509.870977 395.037436 
z
" clip-path="url(#pa9caff7bf5)" style="fill: #eeeeee; stroke: #000000; stroke-width: 0.3"/>
    <path d="M 465.492787 447.4057 
L 465.775883 445.189102 
L 470.578796 447.347105 
z
" clip-path="url(#pa9caff7bf5)" style="fill: #eeeeee; stroke: #000000; stroke-width: 0.3"/>
    <path d="M 351.120794 341.940039 
L 352.877987 341.468082 
L 351.774873 343.12809 
z
" clip-path="url(#pa9caff7bf5)" style="fill: #eeeeee; stroke: #000000; stroke-width: 0.3"/>
    <path d="M 303.072075 155.824213 
L 304.663289 155.993478 
L 303.208745 156.989467 
z
" clip-path="url(#pa9caff7bf5)" style="fill: #eeeeee; stroke: #000000; stroke-width: 0.3"/>
    <path d="M 286.160978 415.943729 
L 287.140458 415.025813 
L 296.001117 419.035887 
z
" clip-path="url(#pa9caff7bf5)" style="fill: #eeeeee; stroke: #000000; stroke-width: 0.3"/>
    <path d="M 285.28566 -7.884816 
L 290.222004 -11.395256 
L 287.97675 -5.936754 
z
" clip-path="url(#pa9caff7bf5)" style="fill: #eeeeee; stroke: #000000; stroke-width: 0.3"/>
    <path d="M 244.099656 -11.422893 
L 245.212526 -13.092661 
L 246.741923 -11.553081 
z
" clip-path="url(#pa9caff7bf5)" style="fill: #eeeeee; stroke: #000000; stroke-width: 0.3"/>
    <path d="M 235.479788 67.189737 
L 238.359568 67.518467 
L 236.680506 69.105242 
z
" clip-path="url(#pa9caff7bf5)" style="fill: #eeeeee; stroke: #000000; stroke-width: 0.3"/>
    <path d="M 214.988288 223.105837 
L 216.889589 220.798767 
L 217.654307 224.291289 
z
" clip-path="url(#pa9caff7bf5)" style="fill: #eeeeee; stroke: #000000; stroke-width: 0.3"/>
    <path d="M 183.535982 -22.398452 
L 186.210798 -26.411766 
L 185.478627 -21.304832 
z
" clip-path="url(#pa9caff7bf5)" style="fill: #eeeeee; stroke: #000000; stroke-width: 0.3"/>
    <path d="M 182.628116 -21.093251 
L 185.722697 -15.569675 
L 185.478627 -15.569675 
z
" clip-path="url(#pa9caff7bf5)" style="fill: #eeeeee; stroke: #000000; stroke-width: 0.3"/>
    <path d="M 182.449142 -4.844733 
L 183.366804 -4.763341 
L 183.828874 -1.396168 
z
" clip-path="url(#pa9caff7bf5)" style="fill: #eeeeee; stroke: #000000; stroke-width: 0.3"/>
    <path d="M 161.874033 -14.479254 
L 166.797382 -8.260742 
L 162.830721 -5.808165 
z
" clip-path="url(#pa9caff7bf5)" style="fill: #eeeeee; stroke: #000000; stroke-width: 0.3"/>
    <path d="M 125.98556 66.948839 
L 128.07787 67.183218 
L 127.648348 69.705748 
z
" clip-path="url(#pa9caff7bf5)" style="fill: #eeeeee; stroke: #000000; stroke-width: 0.3"/>
    <path d="M 125.152546 337.969041 
L 125.809824 337.571957 
L 127.872905 340.703192 
z
" clip-path="url(#pa9caff7bf5)" style="fill: #eeeeee; stroke: #000000; stroke-width: 0.3"/>
    <path d="M 123.167597 78.396395 
L 124.504984 78.420793 
L 123.909484 79.260556 
z
" clip-path="url(#pa9caff7bf5)" style="fill: #eeeeee; stroke: #000000; stroke-width: 0.3"/>
    <path d="M 119.555646 75.649246 
L 119.907076 73.992477 
L 120.795429 75.105655 
z
" clip-path="url(#pa9caff7bf5)" style="fill: #eeeeee; stroke: #000000; stroke-width: 0.3"/>
    <path d="M 114.791759 77.89836 
L 115.279859 76.375059 
L 119.158632 76.829138 
z
" clip-path="url(#pa9caff7bf5)" style="fill: #eeeeee; stroke: #000000; stroke-width: 0.3"/>
    <path d="M 113.952228 98.204148 
L 116.265816 98.936482 
L 122.454939 106.596943 
z
" clip-path="url(#pa9caff7bf5)" style="fill: #eeeeee; stroke: #000000; stroke-width: 0.3"/>
    <path d="M 110.799108 104.240358 
L 110.899951 100.874785 
L 113.405549 106.967989 
z
" clip-path="url(#pa9caff7bf5)" style="fill: #eeeeee; stroke: #000000; stroke-width: 0.3"/>
    <path d="M 110.542043 119.24227 
L 114.043354 120.257777 
L 110.60386 120.378246 
z
" clip-path="url(#pa9caff7bf5)" style="fill: #eeeeee; stroke: #000000; stroke-width: 0.3"/>
    <path d="M 107.919288 93.290837 
L 108.670971 93.154129 
L 110.54852 96.223529 
z
" clip-path="url(#pa9caff7bf5)" style="fill: #eeeeee; stroke: #000000; stroke-width: 0.3"/>
    <path d="M 87.907132 67.791882 
L 89.553646 66.652666 
L 91.216434 70.525993 
z
" clip-path="url(#pa9caff7bf5)" style="fill: #eeeeee; stroke: #000000; stroke-width: 0.3"/>
    <path d="M 83.403589 72.981849 
L 87.594727 75.257001 
L 87.643549 77.296215 
z
" clip-path="url(#pa9caff7bf5)" style="fill: #eeeeee; stroke: #000000; stroke-width: 0.3"/>
    <path d="M 73.23805 82.990696 
L 73.312902 81.771727 
L 75.073294 81.205379 
z
" clip-path="url(#pa9caff7bf5)" style="fill: #eeeeee; stroke: #000000; stroke-width: 0.3"/>
    <path d="M 72.824802 122.581805 
L 76.671026 116.843408 
L 84.614064 121.7648 
z
" clip-path="url(#pa9caff7bf5)" style="fill: #eeeeee; stroke: #000000; stroke-width: 0.3"/>
    <path d="M 71.207557 72.981849 
L 73.898607 74.093387 
L 75.294573 76.798221 
z
" clip-path="url(#pa9caff7bf5)" style="fill: #eeeeee; stroke: #000000; stroke-width: 0.3"/>
    <path d="M 70.641325 71.453668 
L 72.496123 71.089101 
L 73.117654 73.126676 
z
" clip-path="url(#pa9caff7bf5)" style="fill: #eeeeee; stroke: #000000; stroke-width: 0.3"/>
    <path d="M 57.44958 77.475239 
L 59.011525 77.600548 
L 58.054837 79.016458 
z
" clip-path="url(#pa9caff7bf5)" style="fill: #eeeeee; stroke: #000000; stroke-width: 0.3"/>
    <path d="M 55.829096 81.608982 
L 56.580779 81.563426 
L 57.443062 84.91924 
z
" clip-path="url(#pa9caff7bf5)" style="fill: #eeeeee; stroke: #000000; stroke-width: 0.3"/>
    <path d="M 49.379629 96.54578 
L 49.747334 95.299133 
L 51.455705 95.474917 
z
" clip-path="url(#pa9caff7bf5)" style="fill: #eeeeee; stroke: #000000; stroke-width: 0.3"/>
    <path d="M -45.852247 234.306655 
L -44.143876 234.970635 
L -44.446524 235.23753 
z
" clip-path="url(#pa9caff7bf5)" style="fill: #eeeeee; stroke: #000000; stroke-width: 0.3"/>
    <path d="M -128.302387 41.453124 
L -127.062603 39.542499 
L -121.605611 42.634657 
z
" clip-path="url(#pa9caff7bf5)" style="fill: #eeeeee; stroke: #000000; stroke-width: 0.3"/>
    <path d="M -133.739826 108.198357 
L -129.324131 108.203236 
L -123.610114 123.151393 
z
" clip-path="url(#pa9caff7bf5)" style="fill: #eeeeee; stroke: #000000; stroke-width: 0.3"/>
    <path d="M -134.559844 128.912588 
L -128.399991 117.660374 
L -125.54948 130.53028 
z
" clip-path="url(#pa9caff7bf5)" style="fill: #eeeeee; stroke: #000000; stroke-width: 0.3"/>
    <path d="M -181.437114 19.407615 
L -174.30106 18.753395 
L -172.680577 26.657914 
z
" clip-path="url(#pa9caff7bf5)" style="fill: #eeeeee; stroke: #000000; stroke-width: 0.3"/>
    <path d="M -182.787537 24.429957 
L -180.744009 23.381852 
L -181.456627 27.273098 
z
" clip-path="url(#pa9caff7bf5)" style="fill: #eeeeee; stroke: #000000; stroke-width: 0.3"/>
    <path d="M -201.009992 23.150754 
L -198.673612 23.835931 
L -200.626013 25.090697 
z
" clip-path="url(#pa9caff7bf5)" style="fill: #eeeeee; stroke: #000000; stroke-width: 0.3"/>
    <path d="M -261.1539 -116.952029 
L -259.84902 -118.636435 
L -259.269793 -115.863248 
z
" clip-path="url(#pa9caff7bf5)" style="fill: #eeeeee; stroke: #000000; stroke-width: 0.3"/>
    <path d="M -60.095046 -147.289422 
L -58.920518 -159.872354 
L -54.637055 -159.91783 
L -50.101564 -152.951465 
L -40.373423 -149.859427 
L -36.404084 -151.796091 
L -32.28388 -141.536146 
L -22.340859 -141.927791 
L -22.456576 -129.596875 
L -26.994147 -123.767247 
L -20.720855 -117.26696 
L -15.650161 -123.550227 
L -3.297866 -128.524173 
L 1.020704 -122.694545 
L 6.401324 -121.667318 
L 16.778266 -135.861544 
L 17.301593 -142.36963 
L 27.899893 -139.148884 
L 35.201926 -126.939718 
L 55.467909 -111.491887 
L 72.278123 -84.336163 
L 74.214251 -64.324988 
L 67.907971 -42.406387 
L 73.64478 -32.550526 
L 72.004784 -8.965437 
L 79.892481 1.033651 
L 84.958977 1.961286 
L 92.309792 14.320199 
L 104.554646 42.403558 
L 105.43972 53.219651 
L 98.596558 52.90552 
L 96.725487 48.500002 
L 100.252829 46.097901 
L 96.484695 47.661878 
L 92.989901 41.999954 
L 94.740537 49.967988 
L 82.25817 49.888235 
L 76.270774 52.630505 
L 75.011477 57.094618 
L 69.05339 46.377795 
L 42.344458 33.537206 
L 36.158574 25.608209 
L 20.549078 18.489739 
L 13.930434 12.136158 
L 8.990852 12.136158 
L 5.359388 4.454539 
L -14.154911 -6.068582 
L -10.699183 -12.174785 
L -13.705876 -23.064111 
L -23.985294 -36.957684 
L -33.112815 -43.540724 
L -31.788422 -46.128408 
L -37.222623 -47.399452 
L -37.349536 -51.420885 
L -30.747126 -52.831877 
L -40.297651 -58.295258 
L -42.982223 -64.842501 
L -39.780282 -74.477062 
L -41.82377 -76.511357 
L -38.953746 -78.871182 
L -41.433313 -78.708436 
L -40.906147 -83.790973 
L -51.016347 -95.44519 
L -48.266719 -100.519607 
L -50.567312 -124.508299 
L -51.631361 -132.577203 
z
" clip-path="url(#pa9caff7bf5)" style="fill: #eeeeee; stroke: #000000; stroke-width: 0.3"/>
    <path d="M -58.415984 -110.399866 
L -53.203062 -110.102053 
L -54.045832 -102.579939 
L -58.220736 -102.814318 
z
" clip-path="url(#pa9caff7bf5)" style="fill: #eeeeee; stroke: #000000; stroke-width: 0.3"/>
    <path d="M -79.777163 -149.50206 
L -71.908019 -150.853857 
L -69.565361 -146.640841 
L -76.438112 -142.528096 
z
" clip-path="url(#pa9caff7bf5)" style="fill: #eeeeee; stroke: #000000; stroke-width: 0.3"/>
    <path d="M 99.572759 -1.91368 
L 101.17373 -7.72531 
L 102.77794 -0.684953 
z
" clip-path="url(#pa9caff7bf5)" style="fill: #eeeeee; stroke: #000000; stroke-width: 0.3"/>
    <path d="M -14.887082 -10.68728 
L -13.373959 -14.63876 
L -12.199271 -12.44168 
z
" clip-path="url(#pa9caff7bf5)" style="fill: #eeeeee; stroke: #000000; stroke-width: 0.3"/>
    <path d="M -16.130104 -13.483265 
L -15.095325 -14.334428 
L -15.225517 -13.289603 
z
" clip-path="url(#pa9caff7bf5)" style="fill: #eeeeee; stroke: #000000; stroke-width: 0.3"/>
    <path d="M -73.570887 -142.981455 
L -72.109985 -143.838016 
L -73.364803 -138.941103 
z
" clip-path="url(#pa9caff7bf5)" style="fill: #eeeeee; stroke: #000000; stroke-width: 0.3"/>
    <path d="M 79.970572 55.022847 
L 82.687692 50.737758 
L 92.781618 52.269218 
L 87.907132 57.262242 
z
" clip-path="url(#pa9caff7bf5)" style="fill: #eeeeee; stroke: #000000; stroke-width: 0.3"/>
   </g>
   <g id="PatchCollection_2">
    <defs>
     <path id="m729e9d74f2" d="M 79.970572 -52.977153 
L 82.687692 -57.262242 
L 92.781618 -55.730782 
L 87.907132 -50.737758 
z
" style="stroke: #dd0000"/>
    </defs>
    <g clip-path="url(#pa9caff7bf5)">
     <use xlink:href="#m729e9d74f2" x="0" y="108" style="fill: #ff6b6b; stroke: #dd0000"/>
    </g>
   </g>
  </g>
 </g>
 <defs>
  <clipPath id="pa9caff7bf5">
   <rect x="0" y="0" width="172.75219" height="108"/>
  </clipPath>
 </defs>
</svg>
