<?xml version="1.0" encoding="utf-8" standalone="no"?>
<!DOCTYPE svg PUBLIC "-//W3C//DTD SVG 1.1//EN"
  "http://www.w3.org/Graphics/SVG/1.1/DTD/svg11.dtd">
<svg xmlns:xlink="http://www.w3.org/1999/xlink" width="119.718943pt" height="108pt" viewBox="0 0 119.718943 108" xmlns="http://www.w3.org/2000/svg" version="1.1">
 <metadata>
  <rdf:RDF xmlns:dc="http://purl.org/dc/elements/1.1/" xmlns:cc="http://creativecommons.org/ns#" xmlns:rdf="http://www.w3.org/1999/02/22-rdf-syntax-ns#">
   <cc:Work>
    <dc:type rdf:resource="http://purl.org/dc/dcmitype/StillImage"/>
    <dc:date>2025-09-05T13:56:20.983312</dc:date>
    <dc:format>image/svg+xml</dc:format>
    <dc:creator>
     <cc:Agent>
      <dc:title>Matplotlib v3.10.3, https://matplotlib.org/</dc:title>
     </cc:Agent>
    </dc:creator>
   </cc:Work>
  </rdf:RDF>
 </metadata>
 <defs>
  <style type="text/css">*{stroke-linejoin: round; stroke-linecap: butt}</style>
 </defs>
 <g id="figure_1">
  <g id="patch_1">
   <path d="M 0 108 
L 119.718943 108 
L 119.718943 0 
L 0 0 
z
" style="fill: #ffffff"/>
  </g>
  <g id="axes_1">
   <g id="PatchCollection_1">
    <path d="M 17.905917 -34.361079 
L 18.980475 -34.287698 
L 21.199402 -31.089308 
L 24.280396 -35.920828 
L 30.776289 -36.247246 
L 31.614081 -38.123537 
L 38.050795 -40.340489 
L 39.645919 -42.660412 
L 51.246718 -46.33745 
L 51.765787 -47.19947 
L 49.657658 -48.505122 
L 50.380099 -49.6574 
L 53.237984 -49.665073 
L 54.591806 -48.357237 
L 54.23969 -47.013263 
L 55.397717 -47.196185 
L 55.162464 -45.603581 
L 60.579262 -45.889452 
L 60.269644 -48.720897 
L 62.963616 -49.121777 
L 64.804626 -47.8731 
L 66.071938 -44.117212 
L 72.47677 -43.422768 
L 75.108522 -42.06455 
L 75.26333 -40.475232 
L 80.397825 -41.331783 
L 81.781986 -39.710693 
L 78.458162 -36.29214 
L 80.575396 -35.522131 
L 85.228767 -29.652241 
L 90.430035 -32.311702 
L 88.640628 -36.857331 
L 96.44178 -32.779412 
L 100.609475 -34.273454 
L 101.190765 -32.290887 
L 98.868632 -31.140793 
L 99.504564 -29.934826 
L 102.538507 -27.122011 
L 105.37363 -27.740871 
L 104.933492 -28.671905 
L 109.192249 -25.726573 
L 113.109522 -25.713411 
L 113.968563 -21.61578 
L 116.475845 -20.656259 
L 117.133026 -17.30017 
L 112.763471 -16.694452 
L 107.255626 -11.968085 
L 106.006523 -7.484878 
L 100.891765 -3.578923 
L 92.671724 -3.512114 
L 89.405567 1.905412 
L 88.347707 -0.528417 
L 83.157057 -2.364202 
L 80.7894 -0.703666 
L 76.781065 -1.034472 
L 72.86228 -3.778272 
L 60.901024 -6.691852 
L 59.955474 -1.457268 
L 57.911078 -1.747526 
L 56.079187 2.497438 
L 52.885868 1.07843 
L 50.794436 2.885727 
L 46.75726 1.968937 
L 40.410859 -5.343511 
L 37.747242 -5.635952 
L 31.469904 -12.73591 
L 26.238268 -15.588149 
L 22.421176 -22.230252 
L 24.483768 -25.666313 
L 20.413213 -28.633582 
L 17.956007 -32.825408 
z
" clip-path="url(#pafed3ca475)" style="fill: #eeeeee; stroke: #000000; stroke-width: 0.3"/>
    <path d="M -73.404704 -49.286639 
L -69.159604 -52.103841 
L -70.49065 -53.364006 
L -68.27021 -57.093632 
L -68.482686 -59.672591 
L -72.328634 -66.165177 
L -69.02907 -66.724879 
L -69.457078 -67.883748 
L -66.256181 -66.280738 
L -60.400009 -68.129643 
L -59.439274 -69.639031 
L -61.337967 -71.354317 
L -56.250523 -74.961239 
L -55.92876 -77.810764 
L -57.029119 -79.639957 
L -60.824977 -79.855732 
L -61.457869 -81.554061 
L -60.498662 -83.525649 
L -56.365873 -83.341095 
L -53.805461 -91.226386 
L -53.779469 -96.462135 
L -52.896315 -98.0413 
L -51.254301 -97.68684 
L -56.290304 -99.247034 
L -55.881592 -102.133716 
L -54.55507 -102.65465 
L -55.362934 -103.70771 
L -53.316981 -105.395568 
L -41.490621 -106.277003 
L -39.485301 -102.994464 
L -40.821383 -101.203106 
L -38.936759 -99.974099 
L -37.324614 -101.335073 
L -38.556727 -102.401083 
L -37.977126 -104.258827 
L -33.844586 -102.790919 
L -34.75642 -101.578297 
L -34.544898 -98.858067 
L -33.643813 -102.856457 
L -34.813779 -106.114875 
L -33.323534 -109.718257 
L -24.172922 -109.751026 
L -18.715064 -103.801735 
L -15.048596 -102.790919 
L -18.695945 -104.250221 
L -21.463708 -108.88252 
L -23.480981 -110.03908 
L -27.492811 -110.282304 
L -28.500258 -111.13788 
L -29.71444 -113.23711 
L -27.307575 -113.105165 
L -26.99806 -114.539434 
L -30.015599 -116.290244 
L -27.808317 -119.196766 
L -31.988656 -118.170435 
L -33.143086 -119.630584 
L -27.097242 -123.196895 
L -31.838077 -128.049992 
L -32.248595 -131.462844 
L -23.683002 -129.458996 
L -18.75091 -130.826265 
L -15.170496 -128.504519 
L -13.352806 -128.987491 
L -12.314285 -127.328099 
L -13.618104 -126.748537 
L -12.008353 -126.598449 
L -12.187613 -124.333614 
L -14.930279 -122.538823 
L -10.476271 -122.889849 
L -9.588345 -122.236101 
L -10.500178 -119.340792 
L -7.906887 -121.860932 
L -1.843127 -119.039788 
L 4.09277 -120.643986 
L 3.08055 -120.065271 
L 3.08055 -116.362692 
L -1.530015 -113.526901 
L 0.665314 -111.645863 
L 4.67356 -112.846425 
L 8.82403 -110.475505 
L 12.231162 -115.754664 
L 18.082195 -116.578319 
L 18.133593 -114.880986 
L 18.476575 -114.539434 
L 18.386938 -116.343722 
L 24.627577 -122.813947 
L 30.314888 -121.653063 
L 25.9541 -121.428831 
L 24.527191 -120.355063 
L 23.226955 -120.678493 
L 22.203986 -118.170435 
L 26.785856 -121.173546 
L 29.338529 -120.049756 
L 31.601981 -121.749675 
L 33.160335 -118.399839 
L 38.573991 -114.399731 
L 41.927346 -116.145348 
L 43.339907 -114.683482 
L 42.429263 -113.23711 
L 44.777565 -111.257764 
L 43.492881 -109.878668 
L 43.471367 -109.347391 
L 50.041831 -107.199855 
L 49.281767 -106.277003 
L 52.643038 -96.606671 
L 51.199667 -92.299285 
L 48.279548 -90.419137 
L 47.977522 -88.103051 
L 55.62689 -82.301072 
L 54.166838 -78.172771 
L 56.619491 -75.072963 
L 56.237021 -72.638052 
L 57.338893 -71.697692 
L 54.760272 -65.915976 
L 56.913939 -62.830984 
L 56.584585 -60.11565 
L 60.187688 -58.105719 
L 61.166617 -53.895241 
L 60.18616 -50.2341 
L 57.307026 -44.853264 
L 55.162464 -45.603581 
L 55.397717 -47.196185 
L 54.23969 -47.013263 
L 54.591806 -48.357237 
L 53.237984 -49.665073 
L 50.380099 -49.6574 
L 49.657658 -48.505122 
L 51.765787 -47.19947 
L 51.246718 -46.33745 
L 39.645919 -42.660412 
L 38.050795 -40.340489 
L 31.614081 -38.123537 
L 30.776289 -36.247246 
L 24.280396 -35.920828 
L 21.199402 -31.089308 
L 20.306967 -33.118972 
L 17.905917 -34.361079 
L 20.413213 -28.633582 
L 24.483768 -25.666313 
L 22.421176 -22.230252 
L 26.238268 -15.588149 
L 31.469904 -12.73591 
L 34.094063 -8.993164 
L 38.211668 -5.319411 
L 40.410859 -5.343511 
L 43.451645 -1.533934 
L 41.994618 3.653552 
L 38.147921 2.556574 
L 37.428519 6.72926 
L 27.63914 12.306688 
L 31.343922 17.95205 
L 29.886909 20.570985 
L 32.53079 21.929203 
L 31.500258 26.029567 
L 28.226495 24.147236 
L 27.9776 21.772564 
L 24.080049 22.577079 
L 20.29331 21.517343 
L 20.344913 20.391349 
L 19.337143 23.082031 
L 11.214229 23.409001 
L 5.583441 27.557014 
L 1.801255 27.629314 
L 0.027017 24.65931 
L -6.279161 23.676791 
L -6.292818 27.512651 
L -10.234366 30.160624 
L -9.508899 28.012134 
L -11.365078 28.296373 
L -13.376081 24.445167 
L -15.781684 23.435284 
L -18.270771 24.845517 
L -24.57391 21.696979 
L -29.004173 21.999849 
L -33.754685 18.925794 
L -36.205826 21.802133 
L -33.033756 21.996564 
L -33.520944 23.349843 
L -38.530984 22.724413 
L -41.331201 24.025656 
L -47.682918 23.936951 
L -46.949859 23.262219 
L -48.031231 23.515723 
L -49.120209 20.914911 
L -47.515965 15.316668 
L -48.1352 12.284793 
L -45.612735 7.475719 
L -44.738509 1.675393 
L -39.010595 -5.606384 
L -47.312593 -7.28553 
L -50.609103 -10.065491 
L -52.607961 -8.710558 
L -56.012244 -8.765328 
L -57.894225 -10.865088 
L -60.667128 -9.781803 
L -63.80808 -15.487383 
L -66.251174 -16.136256 
L -63.94164 -23.349697 
L -66.878442 -24.182148 
L -69.90632 -28.711351 
L -69.165669 -32.217507 
L -65.822109 -34.367649 
L -66.374557 -37.87601 
L -68.813553 -38.65916 
L -67.664631 -40.704149 
L -71.718503 -44.251934 
L -70.385931 -46.916885 
z
" clip-path="url(#pafed3ca475)" style="fill: #eeeeee; stroke: #000000; stroke-width: 0.3"/>
    <path d="M 33.168705 -119.630584 
L 35.391524 -120.643986 
L 33.77819 -121.511622 
L 35.483555 -122.683718 
L 33.578621 -123.972244 
L 35.846846 -123.479776 
L 36.897305 -124.867478 
L 36.596161 -123.564306 
L 38.919366 -122.813947 
L 39.120139 -124.56304 
L 37.954946 -124.274965 
L 36.893722 -125.439303 
L 35.191955 -124.432812 
L 35.78232 -126.078384 
L 34.86451 -126.312112 
L 37.211608 -127.051259 
L 37.707563 -124.867478 
L 41.321444 -124.46645 
L 39.923216 -122.466375 
L 42.728029 -119.77548 
L 42.092258 -118.365353 
L 40.5327 -119.196766 
L 41.619021 -119.920376 
L 38.810609 -119.77548 
L 36.753907 -118.303249 
L 37.453014 -117.301929 
z
" clip-path="url(#pafed3ca475)" style="fill: #eeeeee; stroke: #000000; stroke-width: 0.3"/>
    <path d="M 42.52965 -115.710682 
L 43.440294 -116.145348 
L 49.242338 -111.160305 
L 49.106737 -109.88206 
L 43.809577 -109.291327 
L 45.154015 -110.330609 
L 44.754863 -112.367756 
L 46.867735 -111.211176 
L 46.910762 -112.572149 
L 45.365551 -113.876211 
L 42.840369 -112.947339 
L 43.440294 -114.611034 
z
" clip-path="url(#pafed3ca475)" style="fill: #eeeeee; stroke: #000000; stroke-width: 0.3"/>
    <path d="M -37.775164 -128.20006 
L -37.57558 -131.806897 
L -36.464164 -134.402071 
L -35.846323 -135.045454 
L -35.147201 -134.734975 
L -36.249058 -131.418777 
L -32.341198 -131.405848 
L -37.441727 -130.807294 
z
" clip-path="url(#pafed3ca475)" style="fill: #eeeeee; stroke: #000000; stroke-width: 0.3"/>
    <path d="M 7.619408 -112.079681 
L 8.367519 -112.950773 
L 9.414395 -112.947339 
L 8.82403 -111.645863 
z
" clip-path="url(#pafed3ca475)" style="fill: #eeeeee; stroke: #000000; stroke-width: 0.3"/>
    <path d="M -30.015599 -122.683718 
L -29.550717 -123.480645 
L -27.808317 -123.564306 
L -28.912553 -122.393927 
z
" clip-path="url(#pafed3ca475)" style="fill: #eeeeee; stroke: #000000; stroke-width: 0.3"/>
    <path d="M 32.373984 -122.393927 
L 32.975113 -125.099489 
L 33.218898 -124.894227 
z
" clip-path="url(#pafed3ca475)" style="fill: #eeeeee; stroke: #000000; stroke-width: 0.3"/>
    <path d="M 9.943803 -114.263462 
L 11.147236 -114.841307 
L 10.026259 -113.671797 
z
" clip-path="url(#pafed3ca475)" style="fill: #eeeeee; stroke: #000000; stroke-width: 0.3"/>
    <path d="M 2.186632 -122.393927 
L 3.883627 -123.824762 
L 6.717135 -121.235629 
z
" clip-path="url(#pafed3ca475)" style="fill: #eeeeee; stroke: #000000; stroke-width: 0.3"/>
    <path d="M -32.864629 -122.906234 
L -31.688687 -124.3043 
L -31.658817 -124.074875 
z
" clip-path="url(#pafed3ca475)" style="fill: #eeeeee; stroke: #000000; stroke-width: 0.3"/>
    <path d="M -36.158232 -127.616174 
L -35.537998 -128.32944 
L -33.232708 -127.76107 
z
" clip-path="url(#pafed3ca475)" style="fill: #eeeeee; stroke: #000000; stroke-width: 0.3"/>
    <path d="M -37.67118 -126.603642 
L -36.337491 -126.011977 
L -36.057845 -125.880879 
z
" clip-path="url(#pafed3ca475)" style="fill: #eeeeee; stroke: #000000; stroke-width: 0.3"/>
    <path d="M -39.736253 -106.408969 
L -39.714754 -106.935944 
L -39.074196 -106.698761 
z
" clip-path="url(#pafed3ca475)" style="fill: #eeeeee; stroke: #000000; stroke-width: 0.3"/>
    <path d="M -43.161315 -116.428251 
L -42.982055 -116.604199 
L -42.929469 -116.489486 
z
" clip-path="url(#pafed3ca475)" style="fill: #eeeeee; stroke: #000000; stroke-width: 0.3"/>
    <path d="M -43.715834 -116.574864 
L -43.500714 -116.5904 
L -43.43259 -116.241091 
z
" clip-path="url(#pafed3ca475)" style="fill: #eeeeee; stroke: #000000; stroke-width: 0.3"/>
    <path d="M -44.088685 -107.898454 
L -43.455308 -108.146829 
L -42.604417 -107.863078 
z
" clip-path="url(#pafed3ca475)" style="fill: #eeeeee; stroke: #000000; stroke-width: 0.3"/>
    <path d="M -46.558887 -107.822551 
L -44.700563 -107.868271 
L -45.649447 -107.39736 
z
" clip-path="url(#pafed3ca475)" style="fill: #eeeeee; stroke: #000000; stroke-width: 0.3"/>
    <path d="M -49.69116 -106.781552 
L -47.728853 -107.432714 
L -47.426504 -107.185188 
z
" clip-path="url(#pafed3ca475)" style="fill: #eeeeee; stroke: #000000; stroke-width: 0.3"/>
    <path d="M -50.711736 -106.884183 
L -50.240892 -106.698761 
L -50.45121 -106.553865 
z
" clip-path="url(#pafed3ca475)" style="fill: #eeeeee; stroke: #000000; stroke-width: 0.3"/>
    <path d="M -54.087794 -106.135562 
L -53.216594 -106.729813 
L -51.545901 -106.597847 
z
" clip-path="url(#pafed3ca475)" style="fill: #eeeeee; stroke: #000000; stroke-width: 0.3"/>
    <path d="M -58.49042 -105.528382 
L -55.946133 -105.98204 
L -55.382054 -105.830255 
z
" clip-path="url(#pafed3ca475)" style="fill: #eeeeee; stroke: #000000; stroke-width: 0.3"/>
    <path d="M -61.637026 -103.967318 
L -59.799012 -104.411501 
L -60.212511 -103.199726 
z
" clip-path="url(#pafed3ca475)" style="fill: #eeeeee; stroke: #000000; stroke-width: 0.3"/>
    <path d="M 76.908546 38.815944 
L 79.564586 35.815842 
L 82.669868 35.937952 
L 81.763777 35.396861 
L 83.00984 32.992069 
L 81.589246 31.939985 
L 82.477113 30.040146 
L 81.900376 27.495673 
L 84.938871 26.307235 
L 85.647656 24.503223 
L 84.78255 22.72331 
L 81.516394 21.889757 
L 83.865841 19.921455 
L 87.238243 21.590194 
L 91.319429 20.890281 
L 90.272186 17.609205 
L 92.926699 14.281583 
L 102.338175 20.010181 
L 115.071948 19.417605 
L 116.887156 18.260367 
L 115.811086 15.324892 
L 117.210431 13.863153 
L 125.870624 12.891592 
L 128.734588 9.899693 
L 133.219479 11.953987 
L 139.029365 8.777535 
L 141.340866 3.560459 
L 146.020039 2.645852 
L 150.55806 4.34416 
L 155.187157 2.81453 
L 160.098529 7.636745 
L 167.629522 6.159681 
L 168.881665 9.558501 
L 170.70749 9.569459 
L 172.528763 12.654472 
L 175.406385 12.783153 
L 176.524968 15.84023 
L 173.00231 19.553429 
L 167.647746 20.566597 
L 163.753235 24.940263 
L 163.660661 27.559748 
L 158.245389 35.42645 
L 156.320895 42.191766 
L 153.371949 44.302484 
L 153.074461 48.277432 
L 149.708139 52.099048 
L 146.303856 51.344365 
L 144.018156 54.183483 
L 141.148126 53.412352 
L 137.833392 54.812199 
L 127.658504 53.623761 
L 123.45135 57.496862 
L 120.881833 56.703835 
L 119.315535 58.759783 
L 114.525564 59.06208 
L 110.835952 62.575909 
L 102.813219 61.941725 
L 98.892921 58.455281 
L 95.283738 58.042341 
L 87.828637 49.009117 
L 83.094836 46.469032 
L 80.938129 43.474399 
L 80.305237 39.310489 
z
" clip-path="url(#pafed3ca475)" style="fill: #eeeeee; stroke: #000000; stroke-width: 0.3"/>
    <path d="M 87.928803 6.962013 
L 90.584844 -1.107852 
L 92.671724 -3.512114 
L 100.891765 -3.578923 
L 106.006523 -7.484878 
L 107.255626 -11.968085 
L 112.763471 -16.694452 
L 118.587014 -17.174202 
L 119.028679 -14.733802 
L 121.66347 -14.840036 
L 126.093733 -19.240006 
L 128.790656 -15.002673 
L 130.879136 -14.817038 
L 131.123494 -10.472962 
L 135.008886 -10.1564 
L 136.262541 -13.031658 
L 138.932224 -14.785287 
L 144.393033 -14.973677 
L 147.762395 -12.63843 
L 150.017756 -14.055784 
L 149.738492 -15.269425 
L 152.778515 -16.010966 
L 160.987924 -14.480785 
L 164.235871 -10.670106 
L 171.561979 -8.015033 
L 168.194129 0.262405 
L 165.674689 2.638179 
L 165.053941 6.669021 
L 159.638669 7.485575 
L 155.187157 2.81453 
L 150.55806 4.34416 
L 146.020039 2.645852 
L 141.764322 3.39725 
L 139.029365 8.777535 
L 133.219479 11.953987 
L 128.734588 9.899693 
L 125.870624 12.891592 
L 117.210431 13.863153 
L 115.811086 15.324892 
L 116.887156 18.260367 
L 115.071948 19.417605 
L 101.108808 19.684314 
L 95.174467 14.738335 
L 91.235945 13.955164 
z
" clip-path="url(#pafed3ca475)" style="fill: #eeeeee; stroke: #000000; stroke-width: 0.3"/>
    <path d="M -19.61396 30.336974 
L -17.72894 27.222944 
L -19.227349 24.577048 
L -15.781684 23.435284 
L -12.249921 25.564612 
L -11.365078 28.296373 
L -9.508899 28.012134 
L -10.234366 30.160624 
L -6.292818 27.512651 
L -6.279161 23.676791 
L 0.027017 24.65931 
L 1.801255 27.629314 
L 5.583441 27.557014 
L 11.214229 23.409001 
L 19.337143 23.082031 
L 19.381154 20.946684 
L 20.344913 20.391349 
L 20.29331 21.517343 
L 24.080049 22.577079 
L 27.9776 21.772564 
L 28.226495 24.147236 
L 31.500258 26.029567 
L 32.53079 21.929203 
L 29.886909 20.570985 
L 31.343922 17.95205 
L 27.728689 12.154438 
L 37.428519 6.72926 
L 38.147921 2.556574 
L 41.994618 3.653552 
L 43.451645 -1.533934 
L 47.256593 2.169387 
L 50.935588 2.870402 
L 52.885868 1.07843 
L 56.079187 2.497438 
L 57.911078 -1.747526 
L 59.955474 -1.457268 
L 60.579262 -6.652427 
L 72.86228 -3.778272 
L 76.781065 -1.034472 
L 80.7894 -0.703666 
L 83.157057 -2.364202 
L 88.347707 -0.528417 
L 89.405567 1.905412 
L 87.928803 6.962013 
L 92.390947 14.59594 
L 90.272186 17.609205 
L 91.319429 20.890281 
L 87.238243 21.590194 
L 83.865841 19.921455 
L 81.516394 21.889757 
L 84.78255 22.72331 
L 85.647656 24.503223 
L 84.938871 26.307235 
L 81.900376 27.495673 
L 82.477113 30.040146 
L 81.589246 31.939985 
L 83.00984 32.992069 
L 81.763777 35.396861 
L 82.669868 35.937952 
L 79.564586 35.815842 
L 75.258778 39.55969 
L 75.773222 42.887333 
L 73.335811 41.747053 
L 70.181951 41.893835 
L 67.636724 44.075199 
L 61.752473 43.33529 
L 58.645664 44.361621 
L 54.092473 49.077581 
L 22.735346 42.475453 
L 20.703094 38.702036 
L 18.65112 37.838914 
L 19.440349 34.101086 
L 12.894365 36.529998 
L 4.665219 36.673474 
L 2.057742 40.801245 
L -5.441369 39.163727 
L -7.098729 35.986703 
L -10.947702 39.14783 
L -14.415733 37.445686 
L -14.667668 35.579231 
L -18.732158 34.701886 
z
" clip-path="url(#pafed3ca475)" style="fill: #eeeeee; stroke: #000000; stroke-width: 0.3"/>
    <path d="M -62.470956 76.106561 
L -55.045445 72.805243 
L -54.277465 69.589345 
L -56.889495 67.465485 
L -57.174824 64.7184 
L -59.838441 61.820145 
L -56.312743 58.687483 
L -54.382199 59.720385 
L -48.690688 57.439908 
L -44.246769 58.815634 
L -40.327983 54.4124 
L -40.669467 51.342182 
L -36.090475 47.518912 
L -35.51829 52.114394 
L -30.072665 55.201039 
L -30.675204 57.461804 
L -29.162021 58.225262 
L -28.73554 60.782855 
L -27.231462 60.903354 
L -26.340555 59.245001 
L -27.236015 56.27008 
L -23.965306 52.20312 
L -23.121449 46.561044 
L -20.884313 46.540781 
L -19.389339 50.773705 
L -13.7798 49.236402 
L -11.469812 52.43971 
L -10.248037 51.540428 
L -11.234558 50.130746 
L -10.515157 48.563323 
L -12.195278 47.644329 
L -12.101177 45.806361 
L -9.760834 43.817244 
L -6.062118 45.705595 
L -5.840536 43.886237 
L -7.160964 42.851152 
L -5.917941 38.780907 
L 2.057742 40.801245 
L 4.665219 36.673474 
L 12.894365 36.529998 
L 19.440349 34.101086 
L 18.65112 37.838914 
L 20.703094 38.702036 
L 22.735346 42.475453 
L 41.766193 46.086762 
L 36.836598 50.950056 
L 37.495292 52.69491 
L 40.832788 53.279834 
L 38.254167 56.96781 
L 40.369888 57.412523 
L 39.784046 60.699619 
L 42.908287 62.541953 
L 44.611185 64.90679 
L 43.922137 65.906817 
L 41.924952 65.725676 
L 43.339907 65.278059 
L 39.905285 61.56255 
L 37.371747 63.982623 
L 36.897305 62.516433 
L 33.224875 61.93685 
L 32.720564 64.693304 
L 23.009456 69.014255 
L 25.330268 66.580383 
L 22.613887 66.869306 
L 19.056176 71.655128 
L 20.172365 73.970005 
L 21.300508 73.409393 
L 22.203986 78.066724 
L 22.203986 76.908427 
L 24.627577 78.934361 
L 23.316592 82.103925 
L 22.763277 80.603228 
L 22.89951 82.46875 
L 20.699394 81.973697 
L 22.203986 94.18191 
L 26.943617 99.693949 
L 40.512391 108.811087 
L 47.264508 129.194637 
L 56.572866 138.167748 
L 57.035355 140.093637 
L 63.271207 143.417572 
L 77.590486 143.584893 
L 78.234627 146.558691 
L 74.060265 150.055118 
L 74.956562 153.344566 
L 91.051708 161.348258 
L 97.2039 166.68348 
L 105.0005 170.486973 
L 112.476835 181.328172 
L 110.612535 188.156334 
L 105.948194 186.154542 
L 102.887627 178.225015 
L 97.732118 177.842089 
L 93.152627 175.368537 
L 94.959568 173.713448 
L 89.861418 173.837657 
L 84.408333 182.489056 
L 84.802698 184.995397 
L 82.719709 189.04381 
L 83.544299 191.467339 
L 92.543142 196.865534 
L 92.743915 206.312121 
L 84.127498 209.760264 
L 83.892068 217.56732 
L 78.015924 223.635648 
L 76.660722 227.945387 
L 70.893335 227.656464 
L 70.135664 222.002137 
L 72.779148 220.299611 
L 74.320791 215.717334 
L 73.128107 212.915182 
L 77.768556 211.179039 
L 78.783155 208.514872 
L 72.215084 186.587513 
L 70.010181 182.630496 
L 66.864985 184.40706 
L 64.678996 183.656849 
L 62.710726 180.68392 
L 59.537819 179.157342 
L 60.817232 175.85259 
L 57.641256 170.080752 
L 51.189094 172.184306 
L 53.120328 168.812914 
L 50.478034 166.500643 
L 46.858146 167.543126 
L 46.471153 164.740168 
L 42.073138 157.733663 
L 39.460727 158.703952 
L 35.66998 156.815134 
L 32.127805 158.260637 
L 29.909759 154.619293 
L 26.116633 153.598134 
L 20.297848 147.477198 
L 17.086716 142.034173 
L 14.254413 141.163081 
L 11.768674 135.965866 
L 7.633741 133.26289 
L 3.668521 133.594077 
L 4.870177 131.707528 
L 4.429775 129.932046 
L 1.274799 126.138917 
L -1.843127 124.836593 
L -1.369875 122.423408 
L -5.246676 121.952496 
L -4.826011 115.460694 
L -7.923613 110.24968 
L -8.886844 102.746214 
L -11.251872 98.957388 
L -14.86217 97.19278 
L -15.045013 98.598604 
L -23.880133 91.998151 
L -24.172922 93.023613 
L -30.756544 90.336173 
L -35.107772 93.046038 
L -40.957616 101.685376 
L -49.260935 103.89934 
L -49.619542 102.345822 
L -46.505155 98.068004 
L -47.00904 95.763428 
L -51.635097 96.874098 
L -57.027607 94.208045 
L -59.049227 88.176047 
L -57.226426 85.014919 
L -55.827082 84.978759 
L -56.564693 81.945782 
L -60.37572 80.253494 
z
M 23.440533 143.92388 
L 23.455277 143.948531 
L 23.454513 143.925004 
z
M 22.597954 100.588801 
L 23.811417 101.253741 
L 23.868291 99.864789 
z
" clip-path="url(#pafed3ca475)" style="fill: #eeeeee; stroke: #000000; stroke-width: 0.3"/>
    <path d="M -39.788839 171.705637 
L -39.117223 163.851144 
L -37.396321 166.248813 
L -34.308279 166.750756 
L -29.87339 164.199585 
L -23.880133 157.516319 
L -21.064556 159.252462 
L -20.763397 161.133521 
L -19.049676 160.409911 
L -19.749987 162.738566 
L -17.536728 163.027489 
L -19.862327 164.632534 
L -16.635644 166.370415 
L -17.606041 167.325167 
L -15.514667 174.624219 
L -18.072113 178.702837 
L -16.513744 182.500268 
L -18.94929 202.312014 
L -19.651994 203.258987 
L -27.062585 199.881575 
L -26.094582 200.714726 
L -26.889303 205.574713 
L -29.421651 208.061215 
L -31.429365 206.903786 
L -32.539578 208.351006 
L -33.73464 204.273258 
L -36.477321 200.768182 
L -35.431634 189.429344 
L -34.360851 190.592792 
L -33.643813 190.615217 
L -34.544898 190.182268 
L -33.79918 187.401672 
L -36.158232 186.1304 
L -36.412781 183.563692 
L -34.75642 182.064733 
L -36.373352 174.344792 
L -37.67118 171.659917 
z
" clip-path="url(#pafed3ca475)" style="fill: #eeeeee; stroke: #000000; stroke-width: 0.3"/>
    <path d="M 23.05846 230.97351 
L 24.026463 226.217002 
L 27.134815 224.322165 
L 27.533967 222.585154 
L 30.020909 226.07643 
L 32.373984 224.901748 
L 32.954789 222.642086 
L 36.144422 221.994358 
L 37.219978 224.484315 
L 43.085358 227.230404 
L 46.459023 225.624489 
L 53.672439 225.730575 
L 59.478066 222.692956 
L 62.133504 223.953037 
L 64.325264 221.058597 
L 65.128341 222.283302 
L 70.411727 220.836082 
L 63.971518 231.727303 
L 62.18728 237.746477 
L 62.362957 240.877231 
L 64.542763 242.404657 
L 63.53652 243.469798 
L 65.723479 247.620863 
L 63.168427 249.473436 
L 62.221937 255.181241 
L 53.31392 252.247122 
L 50.252164 246.934325 
L 41.984706 244.234804 
L 34.029156 237.544649 
L 26.470364 235.888712 
z
" clip-path="url(#pafed3ca475)" style="fill: #eeeeee; stroke: #000000; stroke-width: 0.3"/>
    <path d="M -11.014064 125.833588 
L -10.629244 124.677898 
L -6.071266 123.967218 
L -6.479978 126.861658 
z
" clip-path="url(#pafed3ca475)" style="fill: #eeeeee; stroke: #000000; stroke-width: 0.3"/>
    <path d="M -20.84945 159.142073 
L -20.294932 158.079518 
L -20.293742 159.283514 
L -20.447905 159.423238 
z
" clip-path="url(#pafed3ca475)" style="fill: #eeeeee; stroke: #000000; stroke-width: 0.3"/>
    <path d="M -38.574657 201.812636 
L -37.460861 201.377949 
L -37.460861 203.258987 
L -38.211351 203.204662 
z
" clip-path="url(#pafed3ca475)" style="fill: #eeeeee; stroke: #000000; stroke-width: 0.3"/>
    <path d="M 63.589092 209.947425 
L 63.957171 209.492898 
L 64.036059 210.28637 
z
" clip-path="url(#pafed3ca475)" style="fill: #eeeeee; stroke: #000000; stroke-width: 0.3"/>
    <path d="M 60.082778 218.268505 
L 60.950395 218.666099 
L 60.649236 218.954174 
z
" clip-path="url(#pafed3ca475)" style="fill: #eeeeee; stroke: #000000; stroke-width: 0.3"/>
    <path d="M 59.738592 215.599167 
L 60.53929 216.337444 
L 60.348077 217.060185 
z
" clip-path="url(#pafed3ca475)" style="fill: #eeeeee; stroke: #000000; stroke-width: 0.3"/>
    <path d="M 57.814539 214.555582 
L 58.888905 214.353775 
L 58.811222 215.240382 
z
" clip-path="url(#pafed3ca475)" style="fill: #eeeeee; stroke: #000000; stroke-width: 0.3"/>
    <path d="M 54.124178 214.232173 
L 54.43967 214.281327 
L 54.258031 214.767754 
z
" clip-path="url(#pafed3ca475)" style="fill: #eeeeee; stroke: #000000; stroke-width: 0.3"/>
    <path d="M 51.191488 215.071344 
L 51.40301 214.987683 
L 51.456786 215.245554 
z
" clip-path="url(#pafed3ca475)" style="fill: #eeeeee; stroke: #000000; stroke-width: 0.3"/>
    <path d="M 43.942226 169.118242 
L 44.142999 168.119487 
L 45.655947 168.69907 
z
" clip-path="url(#pafed3ca475)" style="fill: #eeeeee; stroke: #000000; stroke-width: 0.3"/>
    <path d="M 37.56296 167.621847 
L 37.701586 167.317409 
L 37.81632 167.291529 
z
" clip-path="url(#pafed3ca475)" style="fill: #eeeeee; stroke: #000000; stroke-width: 0.3"/>
    <path d="M 33.726807 211.944893 
L 34.200045 211.46279 
L 34.372138 211.657708 
z
" clip-path="url(#pafed3ca475)" style="fill: #eeeeee; stroke: #000000; stroke-width: 0.3"/>
    <path d="M 29.209448 271.973469 
L 29.622947 271.894132 
L 29.601433 272.194267 
z
" clip-path="url(#pafed3ca475)" style="fill: #eeeeee; stroke: #000000; stroke-width: 0.3"/>
    <path d="M 24.514048 279.307897 
L 24.947857 279.211307 
L 25.761697 279.889197 
z
" clip-path="url(#pafed3ca475)" style="fill: #eeeeee; stroke: #000000; stroke-width: 0.3"/>
    <path d="M 21.508447 70.922891 
L 22.502751 69.109998 
L 23.115819 69.488622 
z
" clip-path="url(#pafed3ca475)" style="fill: #eeeeee; stroke: #000000; stroke-width: 0.3"/>
    <path d="M 21.496508 69.188486 
L 22.129885 68.768467 
L 22.104789 69.012538 
z
" clip-path="url(#pafed3ca475)" style="fill: #eeeeee; stroke: #000000; stroke-width: 0.3"/>
    <path d="M 21.188183 228.38266 
L 21.402099 227.808249 
L 22.203986 228.255887 
z
" clip-path="url(#pafed3ca475)" style="fill: #eeeeee; stroke: #000000; stroke-width: 0.3"/>
    <path d="M 17.234902 227.002716 
L 17.574301 226.83194 
L 17.95194 227.725457 
z
" clip-path="url(#pafed3ca475)" style="fill: #eeeeee; stroke: #000000; stroke-width: 0.3"/>
    <path d="M 15.686094 251.852982 
L 17.544417 252.310943 
L 17.237296 253.349356 
z
" clip-path="url(#pafed3ca475)" style="fill: #eeeeee; stroke: #000000; stroke-width: 0.3"/>
    <path d="M 0.07376 134.123638 
L 1.218262 134.878597 
L 0.976944 135.131507 
z
" clip-path="url(#pafed3ca475)" style="fill: #eeeeee; stroke: #000000; stroke-width: 0.3"/>
    <path d="M -8.258239 134.934342 
L -7.942733 134.66439 
L -7.982177 135.021458 
z
" clip-path="url(#pafed3ca475)" style="fill: #eeeeee; stroke: #000000; stroke-width: 0.3"/>
    <path d="M -11.843426 129.552553 
L -11.415595 128.874662 
L -11.322389 129.753512 
z
" clip-path="url(#pafed3ca475)" style="fill: #eeeeee; stroke: #000000; stroke-width: 0.3"/>
    <path d="M -15.497134 120.525837 
L -15.417159 119.283688 
L -14.900498 120.162304 
z
" clip-path="url(#pafed3ca475)" style="fill: #eeeeee; stroke: #000000; stroke-width: 0.3"/>
    <path d="M -21.788774 158.210615 
L -21.184062 157.520643 
L -21.462518 158.619422 
z
" clip-path="url(#pafed3ca475)" style="fill: #eeeeee; stroke: #000000; stroke-width: 0.3"/>
    <path d="M -36.870497 203.403883 
L -34.846057 203.996396 
L -35.933566 206.284524 
z
" clip-path="url(#pafed3ca475)" style="fill: #eeeeee; stroke: #000000; stroke-width: 0.3"/>
    <path d="M -38.873423 163.172385 
L -37.162096 160.409911 
L -38.333251 163.218105 
z
" clip-path="url(#pafed3ca475)" style="fill: #eeeeee; stroke: #000000; stroke-width: 0.3"/>
    <path d="M 117.457828 60.126755 
L 120.543374 56.848413 
L 123.45135 57.496862 
L 127.658504 53.623761 
L 137.833392 54.812199 
L 144.371784 62.548545 
L 145.80605 62.348095 
L 145.532851 68.139115 
L 156.19644 75.223727 
L 154.1126 78.336677 
L 156.82782 80.645641 
L 154.173307 81.338983 
L 154.766742 82.745379 
L 163.554415 85.536298 
L 165.497118 88.840923 
L 169.893987 83.944776 
L 174.873673 87.142043 
L 170.746949 88.902243 
L 173.794137 94.653373 
L 172.345128 98.140304 
L 169.505452 99.636529 
L 168.769339 103.566584 
L 171.256913 110.639136 
L 178.095819 116.989879 
L 174.313618 123.088708 
L 169.913709 124.641886 
L 170.728739 126.334174 
L 169.883355 129.745033 
L 171.516441 131.747313 
L 169.863633 134.979638 
L 167.585511 134.037646 
L 157.396965 136.757367 
L 156.530347 134.639527 
L 158.019241 133.692066 
L 160.177461 127.694024 
L 154.513279 126.114563 
L 154.950392 123.9343 
L 152.778515 123.095829 
L 150.31219 118.769261 
L 146.581607 117.078054 
L 146.30083 115.235168 
L 143.137865 116.495334 
L 143.722195 119.583632 
L 141.014566 121.750753 
L 141.261949 123.753562 
L 139.338983 124.348873 
L 139.217567 122.663156 
L 133.227071 118.276899 
L 128.365776 116.956474 
L 122.165828 110.498394 
L 123.293516 108.214611 
L 126.772149 108.727236 
L 127.033203 106.973607 
L 123.158429 99.452506 
L 127.344333 99.978272 
L 128.670841 98.738349 
L 121.29617 92.210153 
L 121.490437 88.509036 
L 125.113276 81.203159 
L 122.326716 79.835085 
L 119.814868 81.147286 
L 119.456672 80.102345 
L 121.516238 79.291789 
L 120.241349 75.390222 
L 125.571623 73.993681 
L 119.251993 70.431144 
L 119.723806 67.72946 
L 121.142888 67.454527 
L 118.166613 66.152182 
L 119.11974 64.124721 
z
" clip-path="url(#pafed3ca475)" style="fill: #eeeeee; stroke: #000000; stroke-width: 0.3"/>
    <path d="M 38.919366 67.448889 
L 44.527715 69.31988 
L 45.744937 67.399757 
L 51.632228 68.170888 
L 54.688932 64.144434 
L 57.864042 68.439229 
L 59.706564 67.384432 
L 62.887739 69.184056 
L 65.618129 68.701021 
L 64.786416 65.546464 
L 66.331465 64.729337 
L 64.587597 62.964771 
L 70.770833 60.458641 
L 71.092595 56.335809 
L 69.505048 54.697189 
L 70.238106 52.701481 
L 75.809714 50.769317 
L 76.378859 49.101129 
L 79.575203 49.193692 
L 78.977217 46.646485 
L 80.581461 45.509532 
L 87.828637 49.009117 
L 94.473275 57.42895 
L 98.892921 58.455281 
L 102.813219 61.941725 
L 110.835952 62.575909 
L 114.525564 59.06208 
L 118.133219 58.561515 
L 117.306045 61.009589 
L 119.11974 64.124721 
L 118.166613 66.152182 
L 121.142888 67.454527 
L 119.723806 67.72946 
L 119.251993 70.431144 
L 125.571623 73.993681 
L 121.372061 74.149218 
L 120.241349 75.390222 
L 121.516238 79.291789 
L 117.961713 81.241502 
L 114.94294 76.501994 
L 112.490287 77.115363 
L 108.390891 74.961957 
L 102.485391 76.933544 
L 100.267977 74.823928 
L 92.960092 75.150347 
L 89.102015 72.268518 
L 87.447695 74.458086 
L 83.295169 73.588393 
L 80.171677 78.273131 
L 75.827923 73.764743 
L 72.478283 74.276266 
L 71.540325 83.193378 
L 75.943274 86.25374 
L 75.616959 88.028184 
L 77.2379 88.442205 
L 80.327998 97.749259 
L 90.660735 109.065693 
L 94.184906 110.872991 
L 94.470235 114.259771 
L 99.440817 119.70411 
L 99.530366 121.742529 
L 97.784705 121.56266 
L 97.583932 120.034365 
L 88.459606 112.086737 
L 81.27606 109.864146 
L 81.898702 109.038775 
L 74.932654 110.009042 
L 74.800005 106.096898 
L 71.214803 104.509954 
L 62.965275 95.352289 
L 62.907916 93.508323 
L 65.178534 94.18191 
L 64.678996 92.445768 
L 67.076301 93.815368 
L 68.605975 93.734293 
L 60.950395 87.419308 
L 59.136288 84.157456 
L 59.691982 79.172392 
L 58.680966 76.314176 
L 54.540056 72.075147 
L 50.732583 71.008289 
L 48.380698 78.776536 
L 47.168894 79.369049 
L 47.388787 78.587637 
L 46.749433 77.473343 
L 46.157879 82.26175 
L 44.54453 81.828801 
L 44.953242 82.999159 
L 44.735743 83.123367 
L 40.624716 76.750602 
L 42.137679 75.448256 
L 40.224375 75.217114 
L 40.423944 71.513687 
z
" clip-path="url(#pafed3ca475)" style="fill: #eeeeee; stroke: #000000; stroke-width: 0.3"/>
    <path d="M 90.236663 119.599678 
L 101.101011 124.098315 
L 99.806751 123.00297 
L 102.133275 122.601814 
L 102.819284 124.570689 
L 111.320115 130.03421 
L 112.18763 133.0628 
L 103.323829 125.124646 
L 100.799851 124.374308 
L 101.400966 125.381669 
L 101.207374 125.52311 
L 93.3534 121.059848 
L 90.890364 120.795916 
z
" clip-path="url(#pafed3ca475)" style="fill: #eeeeee; stroke: #000000; stroke-width: 0.3"/>
    <path d="M 50.247391 75.896742 
L 50.763656 74.644441 
L 53.110769 78.905026 
L 53.704717 85.45978 
L 52.441531 85.578796 
L 50.478034 80.235816 
L 52.198935 79.224153 
z
" clip-path="url(#pafed3ca475)" style="fill: #eeeeee; stroke: #000000; stroke-width: 0.3"/>
    <path d="M 52.399693 76.447859 
L 53.942525 75.441368 
L 54.217398 73.027314 
L 58.125258 78.776536 
L 56.780805 79.500146 
z
" clip-path="url(#pafed3ca475)" style="fill: #eeeeee; stroke: #000000; stroke-width: 0.3"/>
    <path d="M 81.486392 113.639174 
L 81.787552 112.337719 
L 88.631699 114.073861 
L 81.723026 113.960018 
z
" clip-path="url(#pafed3ca475)" style="fill: #eeeeee; stroke: #000000; stroke-width: 0.3"/>
    <path d="M 76.244844 119.309886 
L 77.439906 118.81657 
L 79.069981 119.165859 
L 76.807719 120.448344 
z
" clip-path="url(#pafed3ca475)" style="fill: #eeeeee; stroke: #000000; stroke-width: 0.3"/>
    <path d="M 61.760653 96.062948 
L 64.157944 98.091468 
L 64.578609 99.116083 
L 62.631853 97.540351 
z
" clip-path="url(#pafed3ca475)" style="fill: #eeeeee; stroke: #000000; stroke-width: 0.3"/>
    <path d="M 55.818779 82.564472 
L 56.830999 82.564472 
L 56.228695 81.539009 
L 58.772982 84.29027 
z
" clip-path="url(#pafed3ca475)" style="fill: #eeeeee; stroke: #000000; stroke-width: 0.3"/>
    <path d="M 94.966734 125.124646 
L 95.974181 124.894373 
L 101.209753 127.165248 
z
" clip-path="url(#pafed3ca475)" style="fill: #eeeeee; stroke: #000000; stroke-width: 0.3"/>
    <path d="M 87.581225 126.285529 
L 89.053554 125.414438 
L 89.278219 125.873267 
z
" clip-path="url(#pafed3ca475)" style="fill: #eeeeee; stroke: #000000; stroke-width: 0.3"/>
    <path d="M 84.803902 121.059848 
L 93.152627 122.349222 
L 88.03057 122.795991 
z
" clip-path="url(#pafed3ca475)" style="fill: #eeeeee; stroke: #000000; stroke-width: 0.3"/>
    <path d="M 80.984475 116.547412 
L 93.052241 117.993763 
L 89.379208 117.993763 
z
" clip-path="url(#pafed3ca475)" style="fill: #eeeeee; stroke: #000000; stroke-width: 0.3"/>
    <path d="M 78.632575 110.304006 
L 79.41057 109.820165 
L 81.038251 110.30142 
z
" clip-path="url(#pafed3ca475)" style="fill: #eeeeee; stroke: #000000; stroke-width: 0.3"/>
    <path d="M 78.471246 112.063443 
L 79.595806 111.959943 
L 80.647455 113.512401 
z
" clip-path="url(#pafed3ca475)" style="fill: #eeeeee; stroke: #000000; stroke-width: 0.3"/>
    <path d="M 69.709022 106.390145 
L 71.715546 107.390595 
L 70.711682 107.180162 
z
" clip-path="url(#pafed3ca475)" style="fill: #eeeeee; stroke: #000000; stroke-width: 0.3"/>
    <path d="M 64.678996 99.260979 
L 67.392997 101.879425 
L 66.109487 101.204121 
z
" clip-path="url(#pafed3ca475)" style="fill: #eeeeee; stroke: #000000; stroke-width: 0.3"/>
    <path d="M 64.187828 102.156287 
L 64.754286 102.526285 
L 66.653242 104.31936 
z
" clip-path="url(#pafed3ca475)" style="fill: #eeeeee; stroke: #000000; stroke-width: 0.3"/>
    <path d="M 58.634356 95.773157 
L 60.950395 97.523967 
L 63.699039 102.195097 
z
" clip-path="url(#pafed3ca475)" style="fill: #eeeeee; stroke: #000000; stroke-width: 0.3"/>
    <path d="M 58.235204 95.919791 
L 58.921168 96.516606 
L 58.3081 96.148347 
z
" clip-path="url(#pafed3ca475)" style="fill: #eeeeee; stroke: #000000; stroke-width: 0.3"/>
    <path d="M 57.262428 91.779938 
L 57.368777 90.691502 
L 57.953165 90.900219 
z
" clip-path="url(#pafed3ca475)" style="fill: #eeeeee; stroke: #000000; stroke-width: 0.3"/>
    <path d="M 57.150088 93.949051 
L 57.783465 93.718778 
L 57.754786 93.837793 
z
" clip-path="url(#pafed3ca475)" style="fill: #eeeeee; stroke: #000000; stroke-width: 0.3"/>
    <path d="M 56.931385 84.590427 
L 64.578609 92.287942 
L 62.733429 92.882172 
z
" clip-path="url(#pafed3ca475)" style="fill: #eeeeee; stroke: #000000; stroke-width: 0.3"/>
    <path d="M 54.896196 92.137875 
L 55.608446 92.590663 
L 55.870176 92.952903 
z
" clip-path="url(#pafed3ca475)" style="fill: #eeeeee; stroke: #000000; stroke-width: 0.3"/>
    <path d="M 51.088708 84.302352 
L 54.004672 89.234808 
L 51.489064 87.340819 
z
" clip-path="url(#pafed3ca475)" style="fill: #eeeeee; stroke: #000000; stroke-width: 0.3"/>
    <path d="M 49.573366 86.225655 
L 50.276071 85.133765 
L 50.139824 86.511992 
z
" clip-path="url(#pafed3ca475)" style="fill: #eeeeee; stroke: #000000; stroke-width: 0.3"/>
    <path d="M 36.836598 50.950056 
L 41.766193 46.086762 
L 54.092473 49.077581 
L 58.645664 44.361621 
L 61.752473 43.33529 
L 67.636724 44.075199 
L 70.181951 41.893835 
L 73.335811 41.747053 
L 75.773222 42.887333 
L 75.116114 39.709185 
L 76.908546 38.815944 
L 80.305237 39.310489 
L 81.054992 43.769044 
L 82.882345 45.555527 
L 79.403697 46.167816 
L 79.575203 49.193692 
L 76.378859 49.101129 
L 75.809714 50.769317 
L 70.238106 52.701481 
L 69.505048 54.697189 
L 71.092595 56.335809 
L 70.770833 60.458641 
L 64.587597 62.964771 
L 66.331465 64.729337 
L 64.786416 65.546464 
L 65.618129 68.701021 
L 62.887739 69.184056 
L 59.706564 67.384432 
L 57.864042 68.439229 
L 54.688932 64.144434 
L 51.632228 68.170888 
L 40.91401 68.561212 
L 39.822829 66.869306 
L 44.611185 64.90679 
L 40.008667 61.146515 
L 40.369888 57.412523 
L 38.254167 56.96781 
L 40.832788 53.279834 
L 37.495292 52.69491 
z
" clip-path="url(#pafed3ca475)" style="fill: #eeeeee; stroke: #000000; stroke-width: 0.3"/>
    <path d="M 22.597954 100.588801 
L 23.868291 99.864789 
L 23.811417 101.253741 
z
" clip-path="url(#pafed3ca475)" style="fill: #eeeeee; stroke: #000000; stroke-width: 0.3"/>
    <path d="M 71.540325 83.193378 
L 72.478283 74.276266 
L 75.827923 73.764743 
L 80.171677 78.273131 
L 83.295169 73.588393 
L 87.447695 74.458086 
L 89.102015 72.268518 
L 92.960092 75.150347 
L 100.267977 74.823928 
L 102.485391 76.933544 
L 108.390891 74.961957 
L 112.490287 77.115363 
L 114.856431 76.447223 
L 117.961713 81.241502 
L 122.326716 79.835085 
L 124.996399 80.691636 
L 121.156545 91.383191 
L 128.561555 98.339652 
L 127.344333 99.978272 
L 123.587949 99.232343 
L 122.950504 100.392293 
L 126.362365 104.537043 
L 126.772149 108.727236 
L 124.671611 107.786346 
L 118.275884 109.939223 
L 120.605609 114.145313 
L 119.471856 115.029779 
L 116.956968 113.455235 
L 114.653059 115.748875 
L 114.281206 120.262201 
L 111.546249 120.831207 
L 111.426346 124.568485 
L 112.974435 127.726878 
L 112.124514 129.916466 
L 104.828774 126.192882 
L 102.133275 122.601814 
L 98.384615 122.074098 
L 99.944702 121.418315 
L 99.440817 119.70411 
L 94.470235 114.259771 
L 94.184906 110.872991 
L 90.660735 109.065693 
L 80.327998 97.749259 
L 77.2379 88.442205 
L 75.616959 88.028184 
L 75.943274 86.25374 
z
" clip-path="url(#pafed3ca475)" style="fill: #eeeeee; stroke: #000000; stroke-width: 0.3"/>
   </g>
   <g id="PatchCollection_2">
    <defs>
     <path id="mb1980e9c8f" d="M 36.836598 -57.049944 
L 41.766193 -61.913238 
L 54.092473 -58.922419 
L 58.645664 -63.638379 
L 61.752473 -64.66471 
L 67.636724 -63.924801 
L 70.181951 -66.106165 
L 73.335811 -66.252947 
L 75.773222 -65.112667 
L 75.116114 -68.290815 
L 76.908546 -69.184056 
L 80.305237 -68.689511 
L 81.054992 -64.230956 
L 82.882345 -62.444473 
L 79.403697 -61.832184 
L 79.575203 -58.806308 
L 76.378859 -58.898871 
L 75.809714 -57.230683 
L 70.238106 -55.298519 
L 69.505048 -53.302811 
L 71.092595 -51.664191 
L 70.770833 -47.541359 
L 64.587597 -45.035229 
L 66.331465 -43.270663 
L 64.786416 -42.453536 
L 65.618129 -39.298979 
L 62.887739 -38.815944 
L 59.706564 -40.615568 
L 57.864042 -39.560771 
L 54.688932 -43.855566 
L 51.632228 -39.829112 
L 40.91401 -39.438788 
L 39.822829 -41.130694 
L 44.611185 -43.09321 
L 40.008667 -46.853485 
L 40.369888 -50.587477 
L 38.254167 -51.03219 
L 40.832788 -54.720166 
L 37.495292 -55.30509 
z
" style="stroke: #dd0000; stroke-width: 0.5"/>
    </defs>
    <g clip-path="url(#pafed3ca475)">
     <use xlink:href="#mb1980e9c8f" x="0" y="108" style="fill: #ff6b6b; stroke: #dd0000; stroke-width: 0.5"/>
    </g>
   </g>
  </g>
 </g>
 <defs>
  <clipPath id="pafed3ca475">
   <rect x="0" y="0" width="119.718943" height="108"/>
  </clipPath>
 </defs>
</svg>
