<?xml version="1.0" encoding="utf-8" standalone="no"?>
<!DOCTYPE svg PUBLIC "-//W3C//DTD SVG 1.1//EN"
  "http://www.w3.org/Graphics/SVG/1.1/DTD/svg11.dtd">
<svg xmlns:xlink="http://www.w3.org/1999/xlink" width="170.454691pt" height="108pt" viewBox="0 0 170.454691 108" xmlns="http://www.w3.org/2000/svg" version="1.1">
 <metadata>
  <rdf:RDF xmlns:dc="http://purl.org/dc/elements/1.1/" xmlns:cc="http://creativecommons.org/ns#" xmlns:rdf="http://www.w3.org/1999/02/22-rdf-syntax-ns#">
   <cc:Work>
    <dc:type rdf:resource="http://purl.org/dc/dcmitype/StillImage"/>
    <dc:date>2025-09-05T15:49:30.026088</dc:date>
    <dc:format>image/svg+xml</dc:format>
    <dc:creator>
     <cc:Agent>
      <dc:title>Matplotlib v3.10.3, https://matplotlib.org/</dc:title>
     </cc:Agent>
    </dc:creator>
   </cc:Work>
  </rdf:RDF>
 </metadata>
 <defs>
  <style type="text/css">*{stroke-linejoin: round; stroke-linecap: butt}</style>
 </defs>
 <g id="figure_1">
  <g id="patch_1">
   <path d="M 0 108 
L 170.454691 108 
L 170.454691 0 
L 0 0 
z
" style="fill: #ffffff"/>
  </g>
  <g id="axes_1">
   <g id="PatchCollection_1">
    <path d="M -51.194751 36.174041 
L -50.377583 33.788384 
L -50.393242 9.560092 
L -48.46423 9.831465 
L -44.563515 11.916892 
L -43.763581 11.894718 
L -43.428191 12.541991 
L -34.084168 14.980093 
L -30.893807 17.36117 
L -29.503298 17.788289 
L -29.048129 17.331606 
L -27.745632 17.45568 
L -27.461796 18.505783 
L -25.477588 19.28293 
L -24.133949 20.952857 
L -22.419505 21.170903 
L -19.503079 24.104756 
L -19.770769 28.221226 
L -15.282596 29.014747 
L -11.087626 31.413249 
L -9.634101 31.165108 
L -8.560232 31.615984 
L -6.542689 33.790109 
L -6.367702 36.097274 
L -12.071923 36.46051 
L -12.113065 37.807852 
L -11.368858 38.195371 
L -10.62673 41.102826 
L -8.714388 42.100134 
L -7.181702 44.148602 
L -4.497028 44.88563 
L -3.964777 48.187468 
L -2.583643 48.96673 
L -1.685797 51.492472 
L -0.580685 51.749585 
L 1.873801 50.911722 
L 2.945591 51.187312 
L 3.10495 52.019375 
L 2.136281 53.464919 
L 2.415945 54.234676 
L 3.790833 54.907822 
L 7.678013 55.51761 
L 5.643807 56.327493 
L 6.434365 57.661114 
L 11.216262 58.905505 
L 11.37927 59.367462 
L 12.958826 59.022183 
L 11.544881 59.760262 
L 9.710658 59.685292 
L 9.678885 60.157286 
L 11.507905 60.658843 
L 11.764134 61.246463 
L 8.717511 62.114422 
L 6.434365 61.135591 
L 7.887372 60.555892 
L 7.075976 60.330983 
L 6.87495 60.733287 
L 5.755253 59.759205 
L 4.222049 59.931851 
L 3.323684 59.35585 
L -0.647867 59.086591 
L -1.022312 58.24503 
L -1.346247 58.783546 
L -2.860702 58.864848 
L -4.441301 58.023286 
L -5.578186 58.643111 
L -6.281252 57.845898 
L -7.245761 58.200681 
L -9.848669 54.572566 
L -11.05065 53.874612 
L -11.384997 54.148094 
L -12.505743 52.817114 
L -12.548447 51.930678 
L -11.981306 51.570607 
L -11.990681 51.29396 
L -12.646877 51.768068 
L -14.381108 51.11604 
L -14.723269 50.376371 
L -14.351421 49.792455 
L -15.909104 48.228651 
L -17.593343 45.129548 
L -19.524435 44.634854 
L -19.568181 44.01767 
L -21.803933 44.226744 
L -23.453794 43.328163 
L -25.402593 43.172943 
L -25.577055 41.796031 
L -25.752043 42.529893 
L -26.848829 41.743236 
L -27.165987 42.363586 
L -27.688862 41.320872 
L -27.742502 42.461255 
L -28.425262 41.437024 
L -27.781565 43.279059 
L -28.681491 42.925859 
L -29.040834 42.061066 
L -28.895015 42.569487 
L -29.568918 42.371507 
L -29.263734 43.084246 
L -29.656412 43.265864 
L -31.982261 42.330324 
L -32.530133 41.384754 
L -33.295171 40.946023 
L -31.307834 44.409413 
L -32.285878 44.151774 
L -31.582813 44.638546 
L -32.520233 44.85026 
L -35.101275 43.91736 
L -33.848252 44.880349 
L -33.5113 46.141108 
L -37.700535 46.776769 
L -39.348316 46.285242 
L -40.665917 46.751428 
L -41.526262 45.673338 
L -42.391816 45.713464 
L -42.894904 45.999615 
L -41.564799 45.81378 
L -40.936729 47.011182 
L -39.169688 46.643723 
L -36.7777 47.620445 
L -34.901291 49.576518 
L -35.046591 51.075389 
L -39.654019 53.219418 
L -42.481914 52.108066 
L -46.254 52.59537 
L -48.016357 51.995086 
L -49.253227 52.583232 
L -50.377096 51.765428 
L -50.375932 37.431232 
z
" clip-path="url(#p5fa54e2d57)" style="fill: #eeeeee; stroke: #000000; stroke-width: 0.3"/>
    <path d="M -3.328375 29.562761 
L -2.682073 28.012159 
L -1.872764 28.629868 
L -1.261877 28.246572 
L -0.008854 28.6362 
L 0.825452 28.145205 
L 2.401885 29.014747 
L 4.15799 28.946641 
L 5.254251 28.233896 
L 5.563602 28.817818 
L 6.798918 28.468309 
L 7.271794 27.856938 
L 6.831209 27.392334 
L 7.534275 26.586675 
L 7.449904 25.681762 
L 8.085788 25.177033 
L 8.660742 25.529708 
L 7.570726 27.041774 
L 8.397743 28.673159 
L 9.329435 28.769246 
L 10.399664 28.03275 
L 11.422492 28.738625 
L 12.54636 28.002654 
L 13.233805 28.282468 
L 13.84521 27.790415 
L 14.295176 26.189651 
L 16.125752 24.500722 
L 17.684477 24.903552 
L 18.109966 24.479073 
L 17.222538 19.785544 
L 18.994264 20.027347 
L 19.938461 20.788133 
L 20.219686 19.882688 
L 21.348758 19.563807 
L 21.73727 20.164617 
L 21.300845 20.007288 
L 21.352924 20.640833 
L 22.839259 20.879471 
L 22.473663 21.92535 
L 22.798641 23.075238 
L 22.032036 24.708206 
L 20.000434 25.023928 
L 20.020746 26.090924 
L 21.108157 27.37016 
L 20.797245 28.083431 
L 19.103631 28.973564 
L 16.735077 28.592909 
L 17.173064 29.439219 
L 14.934707 31.382628 
L 12.622393 31.704682 
L 12.45991 32.394721 
L 10.341857 33.392028 
L 5.032395 33.613772 
L 4.089765 32.393138 
L 3.017457 31.970242 
L 1.30458 32.663447 
L 1.305624 31.656635 
L 0.122387 31.567938 
L -0.541623 30.723742 
L -2.961737 30.15513 
z
" clip-path="url(#p5fa54e2d57)" style="fill: #eeeeee; stroke: #000000; stroke-width: 0.3"/>
    <path d="M 12.227635 10.651909 
L 12.229196 10.27706 
L 13.076525 10.18942 
L 12.566148 9.270248 
L 15.149269 11.303406 
L 16.563738 11.560519 
L 18.972915 13.367716 
L 20.500392 13.752063 
L 22.881969 16.410851 
L 23.403801 16.416132 
L 23.843867 17.47838 
L 25.43436 17.804657 
L 25.73902 18.580221 
L 26.218673 18.545376 
L 27.442009 20.387418 
L 26.826431 21.790721 
L 27.045165 22.543592 
L 25.909322 24.142766 
L 24.578699 22.193025 
L 24.566201 19.702128 
L 22.011205 15.848052 
L 18.94271 14.494372 
L 14.344651 11.066352 
z
" clip-path="url(#p5fa54e2d57)" style="fill: #eeeeee; stroke: #000000; stroke-width: 0.3"/>
    <path d="M 37.444307 30.101809 
L 37.89323 28.751821 
L 37.444307 27.923461 
L 38.671291 28.724897 
L 39.778489 28.680549 
L 40.728414 30.7702 
L 41.733016 31.337222 
L 42.580344 32.841899 
L 43.449021 32.771678 
L 44.567675 33.981225 
L 45.336367 35.771529 
L 45.31553 36.76303 
L 45.223352 36.331687 
L 43.823467 37.301546 
L 41.475226 36.283115 
L 40.470617 35.039249 
L 40.737783 33.671316 
L 39.30457 32.968607 
L 37.800527 31.27598 
z
" clip-path="url(#p5fa54e2d57)" style="fill: #eeeeee; stroke: #000000; stroke-width: 0.3"/>
    <path d="M 22.651396 51.019499 
L 23.058921 50.720002 
L 25.246689 51.099568 
L 26.53489 51.993561 
L 26.112384 52.322135 
L 26.355366 52.741229 
L 24.927119 52.252861 
L 24.87376 52.766232 
L 24.287056 52.26123 
L 24.672912 52.014789 
L 23.182533 51.369663 
L 23.054838 50.851569 
L 22.861305 51.620023 
z
" clip-path="url(#p5fa54e2d57)" style="fill: #eeeeee; stroke: #000000; stroke-width: 0.3"/>
    <path d="M -14.903459 6.634692 
L -14.282678 6.357513 
L -14.517033 5.633155 
L -14.022284 5.426196 
L -9.172162 5.961547 
L -9.39558 5.414584 
L -9.073732 6.058691 
L -9.965844 6.080865 
L -10.51632 6.87174 
L -13.737411 6.406085 
L -13.575447 6.810497 
L -14.57484 7.14417 
z
" clip-path="url(#p5fa54e2d57)" style="fill: #eeeeee; stroke: #000000; stroke-width: 0.3"/>
    <path d="M 27.87947 66.108933 
L 31.437513 67.852773 
L 30.117826 68.175884 
L 28.949692 67.678551 
L 29.01896 67.264627 
L 28.407555 67.44572 
L 28.626282 67.091462 
z
" clip-path="url(#p5fa54e2d57)" style="fill: #eeeeee; stroke: #000000; stroke-width: 0.3"/>
    <path d="M 12.254199 55.636397 
L 14.338923 57.745581 
L 15.688808 57.354896 
L 15.251347 58.864848 
L 13.496279 58.24503 
L 13.717099 57.52437 
L 13.171307 57.54707 
z
" clip-path="url(#p5fa54e2d57)" style="fill: #eeeeee; stroke: #000000; stroke-width: 0.3"/>
    <path d="M 10.130937 53.446968 
L 12.474488 53.83871 
L 13.32286 55.309594 
L 12.749467 55.708726 
L 12.491159 55.309594 
L 10.140306 55.172325 
L 10.652763 54.625362 
z
" clip-path="url(#p5fa54e2d57)" style="fill: #eeeeee; stroke: #000000; stroke-width: 0.3"/>
    <path d="M 13.75876 47.950946 
L 14.592022 47.308421 
L 14.650353 48.420824 
L 14.679516 49.978297 
L 14.044151 49.305677 
L 14.548275 48.371194 
z
" clip-path="url(#p5fa54e2d57)" style="fill: #eeeeee; stroke: #000000; stroke-width: 0.3"/>
    <path d="M 36.391267 26.018595 
L 36.958933 25.213461 
L 37.618251 26.497977 
L 37.370873 27.899172 
L 37.006845 28.105079 
z
" clip-path="url(#p5fa54e2d57)" style="fill: #eeeeee; stroke: #000000; stroke-width: 0.3"/>
    <path d="M 34.149264 22.181938 
L 34.511736 22.064203 
L 34.19301 21.653458 
L 34.589336 22.05523 
L 34.449764 22.406322 
z
" clip-path="url(#p5fa54e2d57)" style="fill: #eeeeee; stroke: #000000; stroke-width: 0.3"/>
    <path d="M 33.011341 66.555586 
L 33.880537 66.441549 
L 33.539419 66.068282 
L 34.766403 66.311143 
L 34.678909 66.781021 
z
" clip-path="url(#p5fa54e2d57)" style="fill: #eeeeee; stroke: #000000; stroke-width: 0.3"/>
    <path d="M 12.423452 61.067485 
L 12.968201 61.043728 
L 13.073402 61.762799 
L 12.443246 61.715816 
L 12.905704 61.609168 
z
" clip-path="url(#p5fa54e2d57)" style="fill: #eeeeee; stroke: #000000; stroke-width: 0.3"/>
    <path d="M 7.101498 8.667849 
L 8.695638 8.095546 
L 10.341857 9.118726 
L 10.253839 9.935473 
L 8.56075 10.07221 
z
" clip-path="url(#p5fa54e2d57)" style="fill: #eeeeee; stroke: #000000; stroke-width: 0.3"/>
    <path d="M 13.281717 61.977678 
L 13.343172 61.456056 
L 14.243097 61.494072 
L 14.061858 61.909047 
z
" clip-path="url(#p5fa54e2d57)" style="fill: #eeeeee; stroke: #000000; stroke-width: 0.3"/>
    <path d="M 8.087355 53.019323 
L 8.738342 52.412169 
L 9.726279 53.489202 
L 9.363807 54.446916 
z
" clip-path="url(#p5fa54e2d57)" style="fill: #eeeeee; stroke: #000000; stroke-width: 0.3"/>
    <path d="M 6.803084 3.417854 
L 7.135869 3.265806 
L 7.392616 3.540338 
L 6.899953 3.620589 
z
" clip-path="url(#p5fa54e2d57)" style="fill: #eeeeee; stroke: #000000; stroke-width: 0.3"/>
    <path d="M 4.420471 1.93694 
L 4.925114 1.471811 
L 6.040644 2.941637 
L 5.234464 2.912599 
z
" clip-path="url(#p5fa54e2d57)" style="fill: #eeeeee; stroke: #000000; stroke-width: 0.3"/>
    <path d="M -6.911408 29.095523 
L -6.89683 28.415514 
L -5.118851 29.059096 
L -5.490693 30.681502 
z
" clip-path="url(#p5fa54e2d57)" style="fill: #eeeeee; stroke: #000000; stroke-width: 0.3"/>
    <path d="M -7.158267 7.781939 
L -6.795795 7.686378 
L -6.542689 7.205412 
L -6.341144 7.769269 
z
" clip-path="url(#p5fa54e2d57)" style="fill: #eeeeee; stroke: #000000; stroke-width: 0.3"/>
    <path d="M -11.800067 27.199103 
L -11.112629 26.371269 
L -10.27259 27.43246 
L -10.797026 28.012159 
z
" clip-path="url(#p5fa54e2d57)" style="fill: #eeeeee; stroke: #000000; stroke-width: 0.3"/>
    <path d="M -18.995832 22.853501 
L -18.252661 22.105385 
L -17.879258 22.920549 
L -18.621379 23.575744 
z
" clip-path="url(#p5fa54e2d57)" style="fill: #eeeeee; stroke: #000000; stroke-width: 0.3"/>
    <path d="M 36.503418 13.490214 
L 37.549009 14.704179 
L 37.646358 15.141282 
z
" clip-path="url(#p5fa54e2d57)" style="fill: #eeeeee; stroke: #000000; stroke-width: 0.3"/>
    <path d="M 33.824292 21.086429 
L 33.889394 21.033634 
L 33.958655 21.218418 
z
" clip-path="url(#p5fa54e2d57)" style="fill: #eeeeee; stroke: #000000; stroke-width: 0.3"/>
    <path d="M 30.908385 18.810937 
L 30.957341 18.745471 
L 31.254194 18.903332 
z
" clip-path="url(#p5fa54e2d57)" style="fill: #eeeeee; stroke: #000000; stroke-width: 0.3"/>
    <path d="M 30.33864 19.210601 
L 30.85527 19.22486 
L 30.593307 19.482499 
z
" clip-path="url(#p5fa54e2d57)" style="fill: #eeeeee; stroke: #000000; stroke-width: 0.3"/>
    <path d="M 28.276314 14.767854 
L 28.757523 14.60841 
L 28.760646 14.852328 
z
" clip-path="url(#p5fa54e2d57)" style="fill: #eeeeee; stroke: #000000; stroke-width: 0.3"/>
    <path d="M 28.05758 15.033939 
L 28.228401 15.388729 
L 28.145074 15.388729 
z
" clip-path="url(#p5fa54e2d57)" style="fill: #eeeeee; stroke: #000000; stroke-width: 0.3"/>
    <path d="M 27.23265 65.255227 
L 28.188821 65.625853 
L 27.838846 65.758899 
z
" clip-path="url(#p5fa54e2d57)" style="fill: #eeeeee; stroke: #000000; stroke-width: 0.3"/>
    <path d="M 23.625133 61.623421 
L 25.73902 61.939668 
L 24.987523 62.158771 
z
" clip-path="url(#p5fa54e2d57)" style="fill: #eeeeee; stroke: #000000; stroke-width: 0.3"/>
    <path d="M 23.566098 12.640069 
L 24.328198 12.453293 
L 24.284452 13.608462 
z
" clip-path="url(#p5fa54e2d57)" style="fill: #eeeeee; stroke: #000000; stroke-width: 0.3"/>
    <path d="M 22.924673 19.696847 
L 23.403801 19.754923 
L 23.317344 20.007288 
z
" clip-path="url(#p5fa54e2d57)" style="fill: #eeeeee; stroke: #000000; stroke-width: 0.3"/>
    <path d="M 20.798806 60.100267 
L 20.869111 60.102907 
L 20.85349 60.163092 
z
" clip-path="url(#p5fa54e2d57)" style="fill: #eeeeee; stroke: #000000; stroke-width: 0.3"/>
    <path d="M 19.984806 11.164553 
L 20.316555 11.481852 
L 20.326679 12.126257 
z
" clip-path="url(#p5fa54e2d57)" style="fill: #eeeeee; stroke: #000000; stroke-width: 0.3"/>
    <path d="M 19.910336 9.730097 
L 20.161355 9.521024 
L 20.403524 9.831465 
z
" clip-path="url(#p5fa54e2d57)" style="fill: #eeeeee; stroke: #000000; stroke-width: 0.3"/>
    <path d="M 19.607903 10.240445 
L 20.081675 11.056848 
L 19.625834 11.141568 
z
" clip-path="url(#p5fa54e2d57)" style="fill: #eeeeee; stroke: #000000; stroke-width: 0.3"/>
    <path d="M 19.322365 59.756039 
L 19.380171 59.732282 
L 19.330179 59.801445 
z
" clip-path="url(#p5fa54e2d57)" style="fill: #eeeeee; stroke: #000000; stroke-width: 0.3"/>
    <path d="M 19.221848 59.248144 
L 19.283302 59.187959 
L 19.246851 59.282995 
z
" clip-path="url(#p5fa54e2d57)" style="fill: #eeeeee; stroke: #000000; stroke-width: 0.3"/>
    <path d="M 14.529531 24.644855 
L 14.685243 24.452675 
L 15.08834 24.786348 
z
" clip-path="url(#p5fa54e2d57)" style="fill: #eeeeee; stroke: #000000; stroke-width: 0.3"/>
    <path d="M 13.50774 54.91996 
L 13.907183 54.913628 
L 13.879582 55.416243 
z
" clip-path="url(#p5fa54e2d57)" style="fill: #eeeeee; stroke: #000000; stroke-width: 0.3"/>
    <path d="M 12.291693 12.019311 
L 13.011948 11.522509 
L 13.932704 11.961241 
z
" clip-path="url(#p5fa54e2d57)" style="fill: #eeeeee; stroke: #000000; stroke-width: 0.3"/>
    <path d="M 3.875197 23.131731 
L 4.56108 23.003966 
L 4.551186 23.296981 
z
" clip-path="url(#p5fa54e2d57)" style="fill: #eeeeee; stroke: #000000; stroke-width: 0.3"/>
    <path d="M 1.964942 24.633768 
L 2.048788 24.234629 
L 2.12066 24.342861 
z
" clip-path="url(#p5fa54e2d57)" style="fill: #eeeeee; stroke: #000000; stroke-width: 0.3"/>
    <path d="M -4.944907 27.907619 
L -4.495984 27.849017 
L -4.660035 28.145205 
z
" clip-path="url(#p5fa54e2d57)" style="fill: #eeeeee; stroke: #000000; stroke-width: 0.3"/>
    <path d="M -8.236303 27.123608 
L -7.687388 27.210722 
L -7.992573 27.481032 
z
" clip-path="url(#p5fa54e2d57)" style="fill: #eeeeee; stroke: #000000; stroke-width: 0.3"/>
    <path d="M -16.746014 24.17497 
L -16.675191 23.747326 
L -16.543951 24.057767 
z
" clip-path="url(#p5fa54e2d57)" style="fill: #eeeeee; stroke: #000000; stroke-width: 0.3"/>
    <path d="M -24.458402 19.016844 
L -23.991253 19.393802 
L -24.38653 19.436042 
z
" clip-path="url(#p5fa54e2d57)" style="fill: #eeeeee; stroke: #000000; stroke-width: 0.3"/>
    <path d="M -27.218072 15.508048 
L -27.072247 15.452086 
L -27.064958 15.501184 
z
" clip-path="url(#p5fa54e2d57)" style="fill: #eeeeee; stroke: #000000; stroke-width: 0.3"/>
    <path d="M -30.418301 13.374892 
L -30.170641 13.644442 
L -30.294433 13.760224 
z
" clip-path="url(#p5fa54e2d57)" style="fill: #eeeeee; stroke: #000000; stroke-width: 0.3"/>
    <path d="M -32.43743 47.919267 
L -32.224949 48.033305 
L -32.336395 48.081351 
z
" clip-path="url(#p5fa54e2d57)" style="fill: #eeeeee; stroke: #000000; stroke-width: 0.3"/>
    <path d="M -33.595146 45.307993 
L -33.506091 45.205043 
L -33.164455 45.675453 
z
" clip-path="url(#p5fa54e2d57)" style="fill: #eeeeee; stroke: #000000; stroke-width: 0.3"/>
    <path d="M -33.820126 44.783737 
L -33.510782 44.719854 
L -33.012385 45.239362 
z
" clip-path="url(#p5fa54e2d57)" style="fill: #eeeeee; stroke: #000000; stroke-width: 0.3"/>
    <path d="M -33.969598 46.860185 
L -33.348293 46.798943 
L -33.282154 47.352244 
z
" clip-path="url(#p5fa54e2d57)" style="fill: #eeeeee; stroke: #000000; stroke-width: 0.3"/>
    <path d="M -34.129476 14.230395 
L -33.630042 14.414121 
L -34.083125 14.493847 
z
" clip-path="url(#p5fa54e2d57)" style="fill: #eeeeee; stroke: #000000; stroke-width: 0.3"/>
    <path d="M -35.404373 47.004319 
L -33.759197 47.013823 
L -33.52328 47.671126 
z
" clip-path="url(#p5fa54e2d57)" style="fill: #eeeeee; stroke: #000000; stroke-width: 0.3"/>
    <path d="M -36.286073 47.308421 
L -34.391957 47.997403 
L -33.406099 49.327851 
z
" clip-path="url(#p5fa54e2d57)" style="fill: #eeeeee; stroke: #000000; stroke-width: 0.3"/>
    <path d="M -38.496303 3.698724 
L -38.291636 3.739382 
L -38.423394 3.800092 
z
" clip-path="url(#p5fa54e2d57)" style="fill: #eeeeee; stroke: #000000; stroke-width: 0.3"/>
    <path d="M -1960.972904 -19.688668 
L -1960.014915 -19.238583 
L -1960.313585 -19.511273 
L -1959.908934 -19.367672 
L -1959.544637 -19.946313 
L -1960.532319 -20.445496 
L -1959.98471 -20.418566 
L -1959.25716 -20.111297 
L -1959.497768 -19.382716 
L -1958.494727 -18.754185 
L -1958.849386 -18.426059 
L -1960.894785 -19.401991 
z
" clip-path="url(#p5fa54e2d57)" style="fill: #eeeeee; stroke: #000000; stroke-width: 0.3"/>
    <path d="M -2051.441225 10.588552 
L -2051.023813 10.836693 
L -2050.894396 11.030982 
L -2050.861324 11.218406 
L -2050.8694 11.301291 
L -2051.426122 10.998246 
L -2051.114429 11.083777 
L -2050.917569 11.256942 
L -2050.877214 11.215766 
z
" clip-path="url(#p5fa54e2d57)" style="fill: #eeeeee; stroke: #000000; stroke-width: 0.3"/>
    <path d="M 154.625267 -15.986906 
L 155.095538 -16.177231 
L 155.581437 -16.230818 
L 155.533524 -16.306054 
L 155.652267 -16.225803 
z
" clip-path="url(#p5fa54e2d57)" style="fill: #eeeeee; stroke: #000000; stroke-width: 0.3"/>
    <path d="M 154.489342 -13.95454 
L 155.039293 -13.577051 
L 154.945035 -13.241795 
L 154.495588 -12.724136 
L 155.012735 -13.555668 
z
" clip-path="url(#p5fa54e2d57)" style="fill: #eeeeee; stroke: #000000; stroke-width: 0.3"/>
    <path d="M -1972.69538 -32.36595 
L -1972.482892 -32.828173 
L -1971.67124 -32.091677 
L -1972.046992 -31.863861 
L -1972.329522 -32.670578 
z
" clip-path="url(#p5fa54e2d57)" style="fill: #eeeeee; stroke: #000000; stroke-width: 0.3"/>
    <path d="M 167.432543 2.739959 
L 167.725229 2.464363 
L 167.728352 2.007155 
L 167.739807 2.625922 
z
" clip-path="url(#p5fa54e2d57)" style="fill: #eeeeee; stroke: #000000; stroke-width: 0.3"/>
    <path d="M 163.915124 -3.106097 
L 164.14219 -2.191149 
L 164.13542 -2.087673 
L 164.046365 -1.994752 
z
" clip-path="url(#p5fa54e2d57)" style="fill: #eeeeee; stroke: #000000; stroke-width: 0.3"/>
    <path d="M 158.432767 -8.711934 
L 158.576506 -8.732525 
L 158.654099 -8.557245 
L 158.524945 -8.176058 
z
" clip-path="url(#p5fa54e2d57)" style="fill: #eeeeee; stroke: #000000; stroke-width: 0.3"/>
    <path d="M 156.203261 -20.266518 
L 156.332415 -20.666441 
L 156.59073 -20.136638 
L 156.501675 -20.036594 
z
" clip-path="url(#p5fa54e2d57)" style="fill: #eeeeee; stroke: #000000; stroke-width: 0.3"/>
    <path d="M 153.083205 -26.847754 
L 153.091019 -26.928264 
L 153.459737 -27.190392 
L 153.830023 -27.24662 
z
" clip-path="url(#p5fa54e2d57)" style="fill: #eeeeee; stroke: #000000; stroke-width: 0.3"/>
    <path d="M -1950.447212 29.07863 
L -1950.102709 29.080738 
L -1949.975897 29.182106 
L -1950.274311 29.248629 
z
" clip-path="url(#p5fa54e2d57)" style="fill: #eeeeee; stroke: #000000; stroke-width: 0.3"/>
    <path d="M -2069.541038 22.922664 
L -2069.419428 22.950113 
L -2069.273092 23.100584 
L -2069.352771 23.02614 
z
" clip-path="url(#p5fa54e2d57)" style="fill: #eeeeee; stroke: #000000; stroke-width: 0.3"/>
    <path d="M 178.955554 9.650378 
L 179.197198 9.907492 
L 179.046171 9.92122 
z
" clip-path="url(#p5fa54e2d57)" style="fill: #eeeeee; stroke: #000000; stroke-width: 0.3"/>
    <path d="M 176.283896 1.250067 
L 176.598456 1.601684 
L 176.721364 2.007155 
z
" clip-path="url(#p5fa54e2d57)" style="fill: #eeeeee; stroke: #000000; stroke-width: 0.3"/>
    <path d="M 173.579953 8.841021 
L 173.70807 8.975118 
L 173.603388 8.893816 
z
" clip-path="url(#p5fa54e2d57)" style="fill: #eeeeee; stroke: #000000; stroke-width: 0.3"/>
    <path d="M 173.381531 1.024632 
L 173.901802 1.530938 
L 173.868991 1.693022 
z
" clip-path="url(#p5fa54e2d57)" style="fill: #eeeeee; stroke: #000000; stroke-width: 0.3"/>
    <path d="M 170.886428 4.491714 
L 170.933298 4.536063 
L 171.104119 5.161168 
z
" clip-path="url(#p5fa54e2d57)" style="fill: #eeeeee; stroke: #000000; stroke-width: 0.3"/>
    <path d="M 165.538952 0.05055 
L 165.713933 0.139247 
L 165.936833 0.892112 
z
" clip-path="url(#p5fa54e2d57)" style="fill: #eeeeee; stroke: #000000; stroke-width: 0.3"/>
    <path d="M 163.390169 -3.464578 
L 163.473497 -3.464578 
L 163.919815 -3.127746 
z
" clip-path="url(#p5fa54e2d57)" style="fill: #eeeeee; stroke: #000000; stroke-width: 0.3"/>
    <path d="M 159.704534 -10.128971 
L 160.423227 -9.902479 
L 160.451346 -9.774713 
z
" clip-path="url(#p5fa54e2d57)" style="fill: #eeeeee; stroke: #000000; stroke-width: 0.3"/>
    <path d="M 154.509654 -18.417879 
L 154.798692 -18.614541 
L 154.740879 -18.445334 
z
" clip-path="url(#p5fa54e2d57)" style="fill: #eeeeee; stroke: #000000; stroke-width: 0.3"/>
    <path d="M 154.447156 -12.703811 
L 154.490903 -12.72123 
L 154.489342 -12.6658 
z
" clip-path="url(#p5fa54e2d57)" style="fill: #eeeeee; stroke: #000000; stroke-width: 0.3"/>
    <path d="M 154.357583 -12.758189 
L 154.398201 -12.758189 
L 154.440904 -12.703019 
z
" clip-path="url(#p5fa54e2d57)" style="fill: #eeeeee; stroke: #000000; stroke-width: 0.3"/>
    <path d="M 154.226861 -17.868275 
L 154.315916 -17.824458 
L 154.357583 -17.288583 
z
" clip-path="url(#p5fa54e2d57)" style="fill: #eeeeee; stroke: #000000; stroke-width: 0.3"/>
    <path d="M 154.135726 -19.914103 
L 154.703385 -19.127452 
L 154.159679 -19.787395 
z
" clip-path="url(#p5fa54e2d57)" style="fill: #eeeeee; stroke: #000000; stroke-width: 0.3"/>
    <path d="M 153.830023 -27.423748 
L 154.196137 -27.599826 
L 154.357583 -27.604841 
z
" clip-path="url(#p5fa54e2d57)" style="fill: #eeeeee; stroke: #000000; stroke-width: 0.3"/>
    <path d="M 132.300023 -1.728134 
L 132.444286 -1.809968 
L 132.509382 -1.691707 
z
" clip-path="url(#p5fa54e2d57)" style="fill: #eeeeee; stroke: #000000; stroke-width: 0.3"/>
    <path d="M -1924.120218 66.783136 
L -1923.873365 67.001707 
L -1924.000958 67.043416 
z
" clip-path="url(#p5fa54e2d57)" style="fill: #eeeeee; stroke: #000000; stroke-width: 0.3"/>
    <path d="M -1944.542751 19.03268 
L -1944.091486 18.846839 
L -1944.175076 19.254424 
z
" clip-path="url(#p5fa54e2d57)" style="fill: #eeeeee; stroke: #000000; stroke-width: 0.3"/>
    <path d="M -1979.038345 -37.951987 
L -1978.895649 -37.88837 
L -1979.001106 -37.833194 
z
" clip-path="url(#p5fa54e2d57)" style="fill: #eeeeee; stroke: #000000; stroke-width: 0.3"/>
    <path d="M -2047.45692 13.095286 
L -2047.441299 12.935848 
L -2047.411874 12.873549 
z
" clip-path="url(#p5fa54e2d57)" style="fill: #eeeeee; stroke: #000000; stroke-width: 0.3"/>
    <path d="M -2048.526623 21.657681 
L -2048.432884 21.502461 
L -2048.337314 21.62706 
z
" clip-path="url(#p5fa54e2d57)" style="fill: #eeeeee; stroke: #000000; stroke-width: 0.3"/>
    <path d="M -2054.56649 22.091658 
L -2054.557377 22.01722 
L -2054.380566 21.968116 
z
" clip-path="url(#p5fa54e2d57)" style="fill: #eeeeee; stroke: #000000; stroke-width: 0.3"/>
    <path d="M -2069.401203 23.07577 
L -2069.370216 23.07841 
L -2069.273092 23.16341 
z
" clip-path="url(#p5fa54e2d57)" style="fill: #eeeeee; stroke: #000000; stroke-width: 0.3"/>
    <path d="M -2069.530357 23.003966 
L -2069.440265 23.07577 
L -2069.480102 23.055704 
z
" clip-path="url(#p5fa54e2d57)" style="fill: #eeeeee; stroke: #000000; stroke-width: 0.3"/>
    <path d="M 53.600786 46.00173 
L 54.984524 44.45746 
L 56.037564 44.638546 
L 56.255255 46.152195 
L 56.934885 46.073002 
L 57.527028 46.776769 
L 57.965533 47.774076 
L 57.832206 48.371194 
L 57.264548 48.238155 
L 57.395788 48.597161 
L 55.858411 47.419293 
L 55.775083 46.688071 
L 56.208385 47.108852 
L 55.679264 46.285242 
L 53.622141 46.643723 
z
" clip-path="url(#p5fa54e2d57)" style="fill: #eeeeee; stroke: #000000; stroke-width: 0.3"/>
    <path d="M 79.58302 59.665759 
L 79.679883 58.908146 
L 83.107728 60.464029 
L 84.886225 60.525803 
L 86.000718 62.053706 
L 85.898122 62.847753 
L 86.557965 62.907937 
L 84.868517 62.907937 
L 82.829108 62.332468 
L 81.117268 61.224814 
L 81.029775 59.931851 
z
" clip-path="url(#p5fa54e2d57)" style="fill: #eeeeee; stroke: #000000; stroke-width: 0.3"/>
    <path d="M 75.20838 46.700741 
L 76.217148 46.643723 
L 77.739422 48.506355 
L 77.418092 49.868482 
L 78.726841 50.750169 
L 79.58302 52.284936 
L 79.265856 52.901062 
L 80.198592 54.379335 
L 80.067876 55.083627 
L 76.914492 52.063724 
z
" clip-path="url(#p5fa54e2d57)" style="fill: #eeeeee; stroke: #000000; stroke-width: 0.3"/>
    <path d="M 68.81203 54.462752 
L 68.861505 53.086897 
L 69.71977 52.76062 
L 70.974354 53.885168 
L 73.704856 53.754762 
L 75.381805 54.854494 
L 76.648363 56.509111 
L 75.486482 57.156385 
L 73.41009 56.364978 
L 70.308265 56.227183 
z
" clip-path="url(#p5fa54e2d57)" style="fill: #eeeeee; stroke: #000000; stroke-width: 0.3"/>
    <path d="M 61.453783 41.553171 
L 63.371858 41.951777 
L 65.50918 43.963817 
L 67.53714 44.474879 
L 70.349408 46.701799 
L 69.804141 47.131026 
L 70.638446 48.238155 
L 68.974519 46.909289 
L 64.628523 44.907804 
L 62.304759 42.995548 
z
" clip-path="url(#p5fa54e2d57)" style="fill: #eeeeee; stroke: #000000; stroke-width: 0.3"/>
    <path d="M 48.670466 35.706589 
L 49.269373 35.575125 
L 52.434738 37.434586 
L 53.360178 39.262374 
L 55.55219 40.26338 
L 55.028271 40.905897 
L 52.255585 39.935513 
L 48.71317 36.371813 
z
" clip-path="url(#p5fa54e2d57)" style="fill: #eeeeee; stroke: #000000; stroke-width: 0.3"/>
    <path d="M 71.163401 67.316372 
L 71.918027 67.261993 
L 75.085996 69.208562 
L 74.452192 69.533788 
L 73.092932 68.158459 
L 71.511808 67.94886 
z
" clip-path="url(#p5fa54e2d57)" style="fill: #eeeeee; stroke: #000000; stroke-width: 0.3"/>
    <path d="M 57.78846 49.017417 
L 57.9197 48.238155 
L 59.409164 48.128334 
L 58.976906 48.552813 
L 59.237825 49.072852 
L 58.286338 49.493633 
z
" clip-path="url(#p5fa54e2d57)" style="fill: #eeeeee; stroke: #000000; stroke-width: 0.3"/>
    <path d="M 80.027253 53.273271 
L 81.248509 54.999685 
L 81.334434 56.195504 
L 80.324105 55.423632 
L 80.286086 53.754762 
z
" clip-path="url(#p5fa54e2d57)" style="fill: #eeeeee; stroke: #000000; stroke-width: 0.3"/>
    <path d="M 53.447672 48.260329 
L 54.385617 47.265656 
L 54.810062 47.820008 
L 54.269479 48.800422 
L 54.810062 49.305677 
z
" clip-path="url(#p5fa54e2d57)" style="fill: #eeeeee; stroke: #000000; stroke-width: 0.3"/>
    <path d="M 46.035784 37.974685 
L 46.320138 37.463624 
L 46.062348 37.139462 
L 46.254 36.902933 
L 46.738856 37.656329 
z
" clip-path="url(#p5fa54e2d57)" style="fill: #eeeeee; stroke: #000000; stroke-width: 0.3"/>
    <path d="M 108.198587 62.833318 
L 108.976686 61.825715 
L 110.703539 62.067044 
L 108.873674 63.199078 
z
" clip-path="url(#p5fa54e2d57)" style="fill: #eeeeee; stroke: #000000; stroke-width: 0.3"/>
    <path d="M 83.701426 55.748851 
L 84.017029 55.531338 
L 83.925888 55.752024 
L 84.017029 56.597809 
z
" clip-path="url(#p5fa54e2d57)" style="fill: #eeeeee; stroke: #000000; stroke-width: 0.3"/>
    <path d="M 72.986169 52.108066 
L 73.375718 51.477161 
L 74.011083 51.930678 
L 73.704856 52.284936 
z
" clip-path="url(#p5fa54e2d57)" style="fill: #eeeeee; stroke: #000000; stroke-width: 0.3"/>
    <path d="M 71.978956 51.4439 
L 72.305496 51.009923 
L 73.289268 51.476636 
L 73.052826 51.930678 
z
" clip-path="url(#p5fa54e2d57)" style="fill: #eeeeee; stroke: #000000; stroke-width: 0.3"/>
    <path d="M 68.479245 47.643671 
L 68.53341 47.115716 
L 69.030246 47.081929 
L 69.367716 47.884423 
z
" clip-path="url(#p5fa54e2d57)" style="fill: #eeeeee; stroke: #000000; stroke-width: 0.3"/>
    <path d="M 65.212327 51.52151 
L 65.550322 51.040544 
L 66.030493 51.19365 
L 65.903419 51.749585 
z
" clip-path="url(#p5fa54e2d57)" style="fill: #eeeeee; stroke: #000000; stroke-width: 0.3"/>
    <path d="M 51.822808 44.45746 
L 52.744607 43.619589 
L 53.447672 44.594197 
L 53.232067 45.468495 
z
" clip-path="url(#p5fa54e2d57)" style="fill: #eeeeee; stroke: #000000; stroke-width: 0.3"/>
    <path d="M 48.988667 42.189363 
L 49.673506 41.796031 
L 50.927573 42.773805 
L 49.9839 44.195065 
z
" clip-path="url(#p5fa54e2d57)" style="fill: #eeeeee; stroke: #000000; stroke-width: 0.3"/>
    <path d="M 127.661865 72.368381 
L 127.841018 72.365741 
L 127.691027 72.424875 
z
" clip-path="url(#p5fa54e2d57)" style="fill: #eeeeee; stroke: #000000; stroke-width: 0.3"/>
    <path d="M 117.217414 56.710263 
L 117.24554 56.650604 
L 117.410627 56.824301 
z
" clip-path="url(#p5fa54e2d57)" style="fill: #eeeeee; stroke: #000000; stroke-width: 0.3"/>
    <path d="M 116.822138 56.309542 
L 116.825261 56.278921 
L 116.849214 56.296872 
z
" clip-path="url(#p5fa54e2d57)" style="fill: #eeeeee; stroke: #000000; stroke-width: 0.3"/>
    <path d="M 115.800347 68.109361 
L 116.02637 68.194886 
L 115.808679 68.289922 
z
" clip-path="url(#p5fa54e2d57)" style="fill: #eeeeee; stroke: #000000; stroke-width: 0.3"/>
    <path d="M 114.666719 68.055508 
L 116.055059 68.657181 
L 115.151914 68.679582 
z
" clip-path="url(#p5fa54e2d57)" style="fill: #eeeeee; stroke: #000000; stroke-width: 0.3"/>
    <path d="M 112.827235 65.657084 
L 113.215453 65.443917 
L 113.013249 66.058642 
z
" clip-path="url(#p5fa54e2d57)" style="fill: #eeeeee; stroke: #000000; stroke-width: 0.3"/>
    <path d="M 111.275715 59.582867 
L 111.283529 58.959352 
L 111.308526 59.309392 
z
" clip-path="url(#p5fa54e2d57)" style="fill: #eeeeee; stroke: #000000; stroke-width: 0.3"/>
    <path d="M 107.983801 60.242817 
L 108.043169 60.093935 
L 108.189512 60.204275 
z
" clip-path="url(#p5fa54e2d57)" style="fill: #eeeeee; stroke: #000000; stroke-width: 0.3"/>
    <path d="M 88.861942 47.014348 
L 89.007242 47.044969 
L 88.957767 47.088261 
z
" clip-path="url(#p5fa54e2d57)" style="fill: #eeeeee; stroke: #000000; stroke-width: 0.3"/>
    <path d="M 82.349979 59.065475 
L 82.435387 58.905505 
L 82.679635 59.200629 
z
" clip-path="url(#p5fa54e2d57)" style="fill: #eeeeee; stroke: #000000; stroke-width: 0.3"/>
    <path d="M 75.248479 43.868263 
L 75.428675 43.882516 
L 75.506793 44.114815 
z
" clip-path="url(#p5fa54e2d57)" style="fill: #eeeeee; stroke: #000000; stroke-width: 0.3"/>
    <path d="M 71.836261 50.761256 
L 71.952917 50.691035 
L 72.084157 51.040544 
z
" clip-path="url(#p5fa54e2d57)" style="fill: #eeeeee; stroke: #000000; stroke-width: 0.3"/>
    <path d="M 70.1088 51.921174 
L 70.289515 51.749585 
L 70.36659 52.020426 
z
" clip-path="url(#p5fa54e2d57)" style="fill: #eeeeee; stroke: #000000; stroke-width: 0.3"/>
    <path d="M 69.935375 65.891945 
L 70.332219 65.982751 
L 70.420755 66.15698 
z
" clip-path="url(#p5fa54e2d57)" style="fill: #eeeeee; stroke: #000000; stroke-width: 0.3"/>
    <path d="M 66.074759 51.975027 
L 66.102359 51.678313 
L 66.471603 51.226386 
z
" clip-path="url(#p5fa54e2d57)" style="fill: #eeeeee; stroke: #000000; stroke-width: 0.3"/>
    <path d="M 60.589272 41.860446 
L 60.985073 41.752214 
L 61.912081 42.371507 
z
" clip-path="url(#p5fa54e2d57)" style="fill: #eeeeee; stroke: #000000; stroke-width: 0.3"/>
    <path d="M 60.262214 41.269134 
L 60.279921 41.131339 
L 61.343898 41.525722 
z
" clip-path="url(#p5fa54e2d57)" style="fill: #eeeeee; stroke: #000000; stroke-width: 0.3"/>
    <path d="M 59.804965 40.946023 
L 60.162747 40.664094 
L 60.154933 41.17199 
z
" clip-path="url(#p5fa54e2d57)" style="fill: #eeeeee; stroke: #000000; stroke-width: 0.3"/>
    <path d="M 59.544564 49.757079 
L 59.89402 48.995242 
L 60.034629 49.376955 
z
" clip-path="url(#p5fa54e2d57)" style="fill: #eeeeee; stroke: #000000; stroke-width: 0.3"/>
    <path d="M 56.504194 41.00938 
L 56.78021 40.59229 
L 57.264548 41.17199 
z
" clip-path="url(#p5fa54e2d57)" style="fill: #eeeeee; stroke: #000000; stroke-width: 0.3"/>
    <path d="M 55.205345 40.773383 
L 55.419906 40.635588 
L 56.122971 41.03472 
z
" clip-path="url(#p5fa54e2d57)" style="fill: #eeeeee; stroke: #000000; stroke-width: 0.3"/>
    <path d="M 55.056915 49.272415 
L 55.679264 49.079716 
L 56.144326 49.75233 
z
" clip-path="url(#p5fa54e2d57)" style="fill: #eeeeee; stroke: #000000; stroke-width: 0.3"/>
    <path d="M 52.787835 45.620543 
L 53.360178 45.794246 
L 53.269043 46.333288 
z
" clip-path="url(#p5fa54e2d57)" style="fill: #eeeeee; stroke: #000000; stroke-width: 0.3"/>
    <path d="M 52.30662 45.840178 
L 52.807104 45.909867 
L 53.137803 46.776769 
z
" clip-path="url(#p5fa54e2d57)" style="fill: #eeeeee; stroke: #000000; stroke-width: 0.3"/>
    <path d="M 50.79008 45.148556 
L 51.040063 45.04085 
L 51.1463 45.322253 
z
" clip-path="url(#p5fa54e2d57)" style="fill: #eeeeee; stroke: #000000; stroke-width: 0.3"/>
    <path d="M 49.280828 44.195065 
L 49.455816 44.37246 
L 49.521436 45.882937 
z
" clip-path="url(#p5fa54e2d57)" style="fill: #eeeeee; stroke: #000000; stroke-width: 0.3"/>
    <path d="M 49.069908 43.409465 
L 49.127721 43.288038 
L 49.316768 43.404184 
z
" clip-path="url(#p5fa54e2d57)" style="fill: #eeeeee; stroke: #000000; stroke-width: 0.3"/>
    <path d="M 43.668792 38.682675 
L 44.065636 37.881764 
L 44.808282 38.746032 
z
" clip-path="url(#p5fa54e2d57)" style="fill: #eeeeee; stroke: #000000; stroke-width: 0.3"/>
    <path d="M 42.613673 40.539495 
L 42.833443 40.196856 
L 43.186022 40.585959 
z
" clip-path="url(#p5fa54e2d57)" style="fill: #eeeeee; stroke: #000000; stroke-width: 0.3"/>
    <path d="M 117.10024 97.02762 
L 117.342402 95.780588 
L 118.30743 95.898849 
L 118.701145 97.05455 
L 121.09991 98.669567 
L 121.207191 99.542807 
L 121.356138 99.211249 
L 121.023871 100.033802 
L 120.136444 99.695912 
L 119.092261 100.174238 
L 118.555326 97.741416 
z
" clip-path="url(#p5fa54e2d57)" style="fill: #eeeeee; stroke: #000000; stroke-width: 0.3"/>
    <path d="M 113.316174 87.704977 
L 114.537949 88.831633 
L 114.960832 91.042711 
L 115.643067 91.013673 
L 115.929501 89.686397 
L 116.686732 89.540681 
L 116.420603 90.164722 
L 117.079403 90.833112 
L 117.738728 93.234261 
L 114.581696 94.074233 
L 113.699477 92.499874 
z
" clip-path="url(#p5fa54e2d57)" style="fill: #eeeeee; stroke: #000000; stroke-width: 0.3"/>
    <path d="M 123.523147 107.636369 
L 124.623056 106.432628 
L 125.457362 106.521326 
L 126.072933 107.460031 
L 125.654216 108.301593 
L 124.138719 108.079856 
L 124.535563 107.720843 
L 124.166844 107.489601 
z
" clip-path="url(#p5fa54e2d57)" style="fill: #eeeeee; stroke: #000000; stroke-width: 0.3"/>
    <path d="M 130.353828 119.132085 
L 130.513194 118.170679 
L 131.109497 117.993285 
L 132.166184 119.374413 
L 131.746949 120.216507 
z
" clip-path="url(#p5fa54e2d57)" style="fill: #eeeeee; stroke: #000000; stroke-width: 0.3"/>
    <path d="M 128.874264 115.151295 
L 129.007591 113.681469 
L 129.930426 113.592771 
L 131.109497 115.52931 
L 130.715782 115.947457 
z
" clip-path="url(#p5fa54e2d57)" style="fill: #eeeeee; stroke: #000000; stroke-width: 0.3"/>
    <path d="M 118.724061 85.493893 
L 118.76416 84.779046 
L 119.451604 84.426371 
L 120.015622 84.741029 
L 119.753141 85.453768 
z
" clip-path="url(#p5fa54e2d57)" style="fill: #eeeeee; stroke: #000000; stroke-width: 0.3"/>
    <path d="M 133.678034 123.794992 
L 133.790524 123.372629 
L 134.333193 123.353095 
L 134.533176 123.992979 
z
" clip-path="url(#p5fa54e2d57)" style="fill: #eeeeee; stroke: #000000; stroke-width: 0.3"/>
    <path d="M 123.87051 106.747292 
L 124.085078 106.362939 
L 124.446508 106.392503 
L 124.137157 106.521326 
z
" clip-path="url(#p5fa54e2d57)" style="fill: #eeeeee; stroke: #000000; stroke-width: 0.3"/>
    <path d="M 123.478875 100.206974 
L 125.632349 101.68103 
L 125.588602 101.991464 
L 123.785103 101.769721 
z
" clip-path="url(#p5fa54e2d57)" style="fill: #eeeeee; stroke: #000000; stroke-width: 0.3"/>
    <path d="M 123.321602 94.301783 
L 123.54502 93.007762 
L 124.286105 95.933168 
L 123.863221 96.440538 
z
" clip-path="url(#p5fa54e2d57)" style="fill: #eeeeee; stroke: #000000; stroke-width: 0.3"/>
    <path d="M 121.998268 98.001702 
L 123.654381 97.010201 
L 124.666803 98.476336 
L 122.696649 98.608325 
z
" clip-path="url(#p5fa54e2d57)" style="fill: #eeeeee; stroke: #000000; stroke-width: 0.3"/>
    <path d="M 120.462459 92.920122 
L 121.304578 92.078035 
L 122.571661 91.830426 
L 121.522787 93.147147 
z
" clip-path="url(#p5fa54e2d57)" style="fill: #eeeeee; stroke: #000000; stroke-width: 0.3"/>
    <path d="M 118.657398 82.071154 
L 119.285474 81.621341 
L 119.932294 82.58433 
L 119.054242 82.986634 
z
" clip-path="url(#p5fa54e2d57)" style="fill: #eeeeee; stroke: #000000; stroke-width: 0.3"/>
    <path d="M 116.640899 94.216258 
L 117.651234 94.163988 
L 117.473124 94.875676 
L 116.726831 94.566293 
z
" clip-path="url(#p5fa54e2d57)" style="fill: #eeeeee; stroke: #000000; stroke-width: 0.3"/>
    <path d="M 125.972942 102.292401 
L 126.257296 102.178363 
L 126.376556 102.29715 
z
" clip-path="url(#p5fa54e2d57)" style="fill: #eeeeee; stroke: #000000; stroke-width: 0.3"/>
    <path d="M 124.694404 106.026107 
L 124.722523 105.666036 
L 124.937091 106.085234 
z
" clip-path="url(#p5fa54e2d57)" style="fill: #eeeeee; stroke: #000000; stroke-width: 0.3"/>
    <path d="M 124.621495 103.557384 
L 125.276647 103.279679 
L 124.96521 103.530986 
z
" clip-path="url(#p5fa54e2d57)" style="fill: #eeeeee; stroke: #000000; stroke-width: 0.3"/>
    <path d="M 124.446508 99.720195 
L 124.791791 99.720195 
L 124.577748 99.965696 
z
" clip-path="url(#p5fa54e2d57)" style="fill: #eeeeee; stroke: #000000; stroke-width: 0.3"/>
    <path d="M 123.98092 99.347987 
L 124.226212 99.277772 
L 124.116327 99.698021 
z
" clip-path="url(#p5fa54e2d57)" style="fill: #eeeeee; stroke: #000000; stroke-width: 0.3"/>
    <path d="M 123.264314 89.455675 
L 123.701257 92.565339 
L 123.395029 92.565339 
z
" clip-path="url(#p5fa54e2d57)" style="fill: #eeeeee; stroke: #000000; stroke-width: 0.3"/>
    <path d="M 120.22029 81.526306 
L 120.443708 81.156212 
L 120.718687 81.362113 
z
" clip-path="url(#p5fa54e2d57)" style="fill: #eeeeee; stroke: #000000; stroke-width: 0.3"/>
    <path d="M 118.176189 80.605025 
L 118.529805 80.383282 
L 118.515745 80.55223 
z
" clip-path="url(#p5fa54e2d57)" style="fill: #eeeeee; stroke: #000000; stroke-width: 0.3"/>
    <path d="M 116.857546 93.813428 
L 117.389797 93.475532 
L 117.403338 93.943302 
z
" clip-path="url(#p5fa54e2d57)" style="fill: #eeeeee; stroke: #000000; stroke-width: 0.3"/>
    <path d="M 116.7737 89.540681 
L 117.163774 89.718069 
L 116.803388 89.61037 
z
" clip-path="url(#p5fa54e2d57)" style="fill: #eeeeee; stroke: #000000; stroke-width: 0.3"/>
    <path d="M 113.970808 79.722281 
L 114.069239 79.671594 
L 114.16454 79.774019 
z
" clip-path="url(#p5fa54e2d57)" style="fill: #eeeeee; stroke: #000000; stroke-width: 0.3"/>
    <path d="M 113.670833 78.423511 
L 113.87863 78.519598 
L 113.680208 78.767207 
z
" clip-path="url(#p5fa54e2d57)" style="fill: #eeeeee; stroke: #000000; stroke-width: 0.3"/>
    <path d="M 113.088065 77.447846 
L 113.349503 77.537601 
L 113.146396 78.128906 
z
" clip-path="url(#p5fa54e2d57)" style="fill: #eeeeee; stroke: #000000; stroke-width: 0.3"/>
   </g>
   <g id="PatchCollection_2">
    <path d="M 53.600786 46.00173 
L 54.984524 44.45746 
L 56.037564 44.638546 
L 56.255255 46.152195 
L 56.934885 46.073002 
L 57.527028 46.776769 
L 57.965533 47.774076 
L 57.832206 48.371194 
L 57.264548 48.238155 
L 57.395788 48.597161 
L 55.858411 47.419293 
L 55.775083 46.688071 
L 56.208385 47.108852 
L 55.679264 46.285242 
L 53.622141 46.643723 
z
" clip-path="url(#p5fa54e2d57)" style="fill: #ff6b6b; stroke: #dd0000; stroke-width: 0.5"/>
    <path d="M 79.58302 59.665759 
L 79.679883 58.908146 
L 83.107728 60.464029 
L 84.886225 60.525803 
L 86.000718 62.053706 
L 85.898122 62.847753 
L 86.557965 62.907937 
L 84.868517 62.907937 
L 82.829108 62.332468 
L 81.117268 61.224814 
L 81.029775 59.931851 
z
" clip-path="url(#p5fa54e2d57)" style="fill: #ff6b6b; stroke: #dd0000; stroke-width: 0.5"/>
    <path d="M 75.20838 46.700741 
L 76.217148 46.643723 
L 77.739422 48.506355 
L 77.418092 49.868482 
L 78.726841 50.750169 
L 79.58302 52.284936 
L 79.265856 52.901062 
L 80.198592 54.379335 
L 80.067876 55.083627 
L 76.914492 52.063724 
z
" clip-path="url(#p5fa54e2d57)" style="fill: #ff6b6b; stroke: #dd0000; stroke-width: 0.5"/>
    <path d="M 68.81203 54.462752 
L 68.861505 53.086897 
L 69.71977 52.76062 
L 70.974354 53.885168 
L 73.704856 53.754762 
L 75.381805 54.854494 
L 76.648363 56.509111 
L 75.486482 57.156385 
L 73.41009 56.364978 
L 70.308265 56.227183 
z
" clip-path="url(#p5fa54e2d57)" style="fill: #ff6b6b; stroke: #dd0000; stroke-width: 0.5"/>
    <path d="M 61.453783 41.553171 
L 63.371858 41.951777 
L 65.50918 43.963817 
L 67.53714 44.474879 
L 70.349408 46.701799 
L 69.804141 47.131026 
L 70.638446 48.238155 
L 68.974519 46.909289 
L 64.628523 44.907804 
L 62.304759 42.995548 
z
" clip-path="url(#p5fa54e2d57)" style="fill: #ff6b6b; stroke: #dd0000; stroke-width: 0.5"/>
    <path d="M 48.670466 35.706589 
L 49.269373 35.575125 
L 52.434738 37.434586 
L 53.360178 39.262374 
L 55.55219 40.26338 
L 55.028271 40.905897 
L 52.255585 39.935513 
L 48.71317 36.371813 
z
" clip-path="url(#p5fa54e2d57)" style="fill: #ff6b6b; stroke: #dd0000; stroke-width: 0.5"/>
    <path d="M 71.163401 67.316372 
L 71.918027 67.261993 
L 75.085996 69.208562 
L 74.452192 69.533788 
L 73.092932 68.158459 
L 71.511808 67.94886 
z
" clip-path="url(#p5fa54e2d57)" style="fill: #ff6b6b; stroke: #dd0000; stroke-width: 0.5"/>
    <path d="M 57.78846 49.017417 
L 57.9197 48.238155 
L 59.409164 48.128334 
L 58.976906 48.552813 
L 59.237825 49.072852 
L 58.286338 49.493633 
z
" clip-path="url(#p5fa54e2d57)" style="fill: #ff6b6b; stroke: #dd0000; stroke-width: 0.5"/>
    <path d="M 80.027253 53.273271 
L 81.248509 54.999685 
L 81.334434 56.195504 
L 80.324105 55.423632 
L 80.286086 53.754762 
z
" clip-path="url(#p5fa54e2d57)" style="fill: #ff6b6b; stroke: #dd0000; stroke-width: 0.5"/>
    <path d="M 53.447672 48.260329 
L 54.385617 47.265656 
L 54.810062 47.820008 
L 54.269479 48.800422 
L 54.810062 49.305677 
z
" clip-path="url(#p5fa54e2d57)" style="fill: #ff6b6b; stroke: #dd0000; stroke-width: 0.5"/>
    <path d="M 46.035784 37.974685 
L 46.320138 37.463624 
L 46.062348 37.139462 
L 46.254 36.902933 
L 46.738856 37.656329 
z
" clip-path="url(#p5fa54e2d57)" style="fill: #ff6b6b; stroke: #dd0000; stroke-width: 0.5"/>
    <path d="M 108.198587 62.833318 
L 108.976686 61.825715 
L 110.703539 62.067044 
L 108.873674 63.199078 
z
" clip-path="url(#p5fa54e2d57)" style="fill: #ff6b6b; stroke: #dd0000; stroke-width: 0.5"/>
    <path d="M 83.701426 55.748851 
L 84.017029 55.531338 
L 83.925888 55.752024 
L 84.017029 56.597809 
z
" clip-path="url(#p5fa54e2d57)" style="fill: #ff6b6b; stroke: #dd0000; stroke-width: 0.5"/>
    <path d="M 72.986169 52.108066 
L 73.375718 51.477161 
L 74.011083 51.930678 
L 73.704856 52.284936 
z
" clip-path="url(#p5fa54e2d57)" style="fill: #ff6b6b; stroke: #dd0000; stroke-width: 0.5"/>
    <path d="M 71.978956 51.4439 
L 72.305496 51.009923 
L 73.289268 51.476636 
L 73.052826 51.930678 
z
" clip-path="url(#p5fa54e2d57)" style="fill: #ff6b6b; stroke: #dd0000; stroke-width: 0.5"/>
    <path d="M 68.479245 47.643671 
L 68.53341 47.115716 
L 69.030246 47.081929 
L 69.367716 47.884423 
z
" clip-path="url(#p5fa54e2d57)" style="fill: #ff6b6b; stroke: #dd0000; stroke-width: 0.5"/>
    <path d="M 65.212327 51.52151 
L 65.550322 51.040544 
L 66.030493 51.19365 
L 65.903419 51.749585 
z
" clip-path="url(#p5fa54e2d57)" style="fill: #ff6b6b; stroke: #dd0000; stroke-width: 0.5"/>
    <path d="M 51.822808 44.45746 
L 52.744607 43.619589 
L 53.447672 44.594197 
L 53.232067 45.468495 
z
" clip-path="url(#p5fa54e2d57)" style="fill: #ff6b6b; stroke: #dd0000; stroke-width: 0.5"/>
    <path d="M 48.988667 42.189363 
L 49.673506 41.796031 
L 50.927573 42.773805 
L 49.9839 44.195065 
z
" clip-path="url(#p5fa54e2d57)" style="fill: #ff6b6b; stroke: #dd0000; stroke-width: 0.5"/>
    <path d="M 127.661865 72.368381 
L 127.841018 72.365741 
L 127.691027 72.424875 
z
" clip-path="url(#p5fa54e2d57)" style="fill: #ff6b6b; stroke: #dd0000; stroke-width: 0.5"/>
    <path d="M 117.217414 56.710263 
L 117.24554 56.650604 
L 117.410627 56.824301 
z
" clip-path="url(#p5fa54e2d57)" style="fill: #ff6b6b; stroke: #dd0000; stroke-width: 0.5"/>
    <path d="M 116.822138 56.309542 
L 116.825261 56.278921 
L 116.849214 56.296872 
z
" clip-path="url(#p5fa54e2d57)" style="fill: #ff6b6b; stroke: #dd0000; stroke-width: 0.5"/>
    <path d="M 115.800347 68.109361 
L 116.02637 68.194886 
L 115.808679 68.289922 
z
" clip-path="url(#p5fa54e2d57)" style="fill: #ff6b6b; stroke: #dd0000; stroke-width: 0.5"/>
    <path d="M 114.666719 68.055508 
L 116.055059 68.657181 
L 115.151914 68.679582 
z
" clip-path="url(#p5fa54e2d57)" style="fill: #ff6b6b; stroke: #dd0000; stroke-width: 0.5"/>
    <path d="M 112.827235 65.657084 
L 113.215453 65.443917 
L 113.013249 66.058642 
z
" clip-path="url(#p5fa54e2d57)" style="fill: #ff6b6b; stroke: #dd0000; stroke-width: 0.5"/>
    <path d="M 111.275715 59.582867 
L 111.283529 58.959352 
L 111.308526 59.309392 
z
" clip-path="url(#p5fa54e2d57)" style="fill: #ff6b6b; stroke: #dd0000; stroke-width: 0.5"/>
    <path d="M 107.983801 60.242817 
L 108.043169 60.093935 
L 108.189512 60.204275 
z
" clip-path="url(#p5fa54e2d57)" style="fill: #ff6b6b; stroke: #dd0000; stroke-width: 0.5"/>
    <path d="M 88.861942 47.014348 
L 89.007242 47.044969 
L 88.957767 47.088261 
z
" clip-path="url(#p5fa54e2d57)" style="fill: #ff6b6b; stroke: #dd0000; stroke-width: 0.5"/>
    <path d="M 82.349979 59.065475 
L 82.435387 58.905505 
L 82.679635 59.200629 
z
" clip-path="url(#p5fa54e2d57)" style="fill: #ff6b6b; stroke: #dd0000; stroke-width: 0.5"/>
    <path d="M 75.248479 43.868263 
L 75.428675 43.882516 
L 75.506793 44.114815 
z
" clip-path="url(#p5fa54e2d57)" style="fill: #ff6b6b; stroke: #dd0000; stroke-width: 0.5"/>
    <path d="M 71.836261 50.761256 
L 71.952917 50.691035 
L 72.084157 51.040544 
z
" clip-path="url(#p5fa54e2d57)" style="fill: #ff6b6b; stroke: #dd0000; stroke-width: 0.5"/>
    <path d="M 70.1088 51.921174 
L 70.289515 51.749585 
L 70.36659 52.020426 
z
" clip-path="url(#p5fa54e2d57)" style="fill: #ff6b6b; stroke: #dd0000; stroke-width: 0.5"/>
    <path d="M 69.935375 65.891945 
L 70.332219 65.982751 
L 70.420755 66.15698 
z
" clip-path="url(#p5fa54e2d57)" style="fill: #ff6b6b; stroke: #dd0000; stroke-width: 0.5"/>
    <path d="M 66.074759 51.975027 
L 66.102359 51.678313 
L 66.471603 51.226386 
z
" clip-path="url(#p5fa54e2d57)" style="fill: #ff6b6b; stroke: #dd0000; stroke-width: 0.5"/>
    <path d="M 60.589272 41.860446 
L 60.985073 41.752214 
L 61.912081 42.371507 
z
" clip-path="url(#p5fa54e2d57)" style="fill: #ff6b6b; stroke: #dd0000; stroke-width: 0.5"/>
    <path d="M 60.262214 41.269134 
L 60.279921 41.131339 
L 61.343898 41.525722 
z
" clip-path="url(#p5fa54e2d57)" style="fill: #ff6b6b; stroke: #dd0000; stroke-width: 0.5"/>
    <path d="M 59.804965 40.946023 
L 60.162747 40.664094 
L 60.154933 41.17199 
z
" clip-path="url(#p5fa54e2d57)" style="fill: #ff6b6b; stroke: #dd0000; stroke-width: 0.5"/>
    <path d="M 59.544564 49.757079 
L 59.89402 48.995242 
L 60.034629 49.376955 
z
" clip-path="url(#p5fa54e2d57)" style="fill: #ff6b6b; stroke: #dd0000; stroke-width: 0.5"/>
    <path d="M 56.504194 41.00938 
L 56.78021 40.59229 
L 57.264548 41.17199 
z
" clip-path="url(#p5fa54e2d57)" style="fill: #ff6b6b; stroke: #dd0000; stroke-width: 0.5"/>
    <path d="M 55.205345 40.773383 
L 55.419906 40.635588 
L 56.122971 41.03472 
z
" clip-path="url(#p5fa54e2d57)" style="fill: #ff6b6b; stroke: #dd0000; stroke-width: 0.5"/>
    <path d="M 55.056915 49.272415 
L 55.679264 49.079716 
L 56.144326 49.75233 
z
" clip-path="url(#p5fa54e2d57)" style="fill: #ff6b6b; stroke: #dd0000; stroke-width: 0.5"/>
    <path d="M 52.787835 45.620543 
L 53.360178 45.794246 
L 53.269043 46.333288 
z
" clip-path="url(#p5fa54e2d57)" style="fill: #ff6b6b; stroke: #dd0000; stroke-width: 0.5"/>
    <path d="M 52.30662 45.840178 
L 52.807104 45.909867 
L 53.137803 46.776769 
z
" clip-path="url(#p5fa54e2d57)" style="fill: #ff6b6b; stroke: #dd0000; stroke-width: 0.5"/>
    <path d="M 50.79008 45.148556 
L 51.040063 45.04085 
L 51.1463 45.322253 
z
" clip-path="url(#p5fa54e2d57)" style="fill: #ff6b6b; stroke: #dd0000; stroke-width: 0.5"/>
    <path d="M 49.280828 44.195065 
L 49.455816 44.37246 
L 49.521436 45.882937 
z
" clip-path="url(#p5fa54e2d57)" style="fill: #ff6b6b; stroke: #dd0000; stroke-width: 0.5"/>
    <path d="M 49.069908 43.409465 
L 49.127721 43.288038 
L 49.316768 43.404184 
z
" clip-path="url(#p5fa54e2d57)" style="fill: #ff6b6b; stroke: #dd0000; stroke-width: 0.5"/>
    <path d="M 43.668792 38.682675 
L 44.065636 37.881764 
L 44.808282 38.746032 
z
" clip-path="url(#p5fa54e2d57)" style="fill: #ff6b6b; stroke: #dd0000; stroke-width: 0.5"/>
    <path d="M 42.613673 40.539495 
L 42.833443 40.196856 
L 43.186022 40.585959 
z
" clip-path="url(#p5fa54e2d57)" style="fill: #ff6b6b; stroke: #dd0000; stroke-width: 0.5"/>
   </g>
  </g>
 </g>
 <defs>
  <clipPath id="p5fa54e2d57">
   <rect x="0" y="0" width="170.454691" height="108"/>
  </clipPath>
 </defs>
</svg>
