<?xml version="1.0" encoding="utf-8" standalone="no"?>
<!DOCTYPE svg PUBLIC "-//W3C//DTD SVG 1.1//EN"
  "http://www.w3.org/Graphics/SVG/1.1/DTD/svg11.dtd">
<svg xmlns:xlink="http://www.w3.org/1999/xlink" width="172.103398pt" height="108pt" viewBox="0 0 172.103398 108" xmlns="http://www.w3.org/2000/svg" version="1.1">
 <metadata>
  <rdf:RDF xmlns:dc="http://purl.org/dc/elements/1.1/" xmlns:cc="http://creativecommons.org/ns#" xmlns:rdf="http://www.w3.org/1999/02/22-rdf-syntax-ns#">
   <cc:Work>
    <dc:type rdf:resource="http://purl.org/dc/dcmitype/StillImage"/>
    <dc:date>2025-09-05T15:49:30.047053</dc:date>
    <dc:format>image/svg+xml</dc:format>
    <dc:creator>
     <cc:Agent>
      <dc:title>Matplotlib v3.10.3, https://matplotlib.org/</dc:title>
     </cc:Agent>
    </dc:creator>
   </cc:Work>
  </rdf:RDF>
 </metadata>
 <defs>
  <style type="text/css">*{stroke-linejoin: round; stroke-linecap: butt}</style>
 </defs>
 <g id="figure_1">
  <g id="patch_1">
   <path d="M 0 108 
L 172.103398 108 
L 172.103398 0 
L 0 0 
z
" style="fill: #ffffff"/>
  </g>
  <g id="axes_1">
   <g id="PatchCollection_1">
    <path d="M 21.21413 40.333528 
L 22.173698 39.229512 
L 22.059461 38.142315 
L 22.41943 37.678046 
L 24.311907 37.653069 
L 24.904403 38.114788 
L 26.619946 37.18052 
L 26.523904 32.750935 
L 27.777522 28.958174 
L 27.549563 27.271623 
L 29.000083 25.700024 
L 29.882478 26.686544 
L 30.295751 26.464539 
L 30.884185 25.604955 
L 30.815136 23.879533 
L 31.448248 22.420977 
L 31.446219 21.089731 
L 32.647962 20.079378 
L 34.467077 16.944851 
L 36.566449 16.734826 
L 36.674083 15.104094 
L 37.923555 12.307919 
L 38.587128 9.032058 
L 39.676162 8.693957 
L 41.209436 8.966424 
L 41.508477 8.256199 
L 42.356858 8.075615 
L 43.633741 9.811483 
L 45.292929 5.993744 
L 45.859026 6.758895 
L 46.952628 6.979243 
L 47.922856 8.274168 
L 50.080616 7.896944 
L 50.786327 7.119808 
L 51.364607 7.361562 
L 51.761129 8.160745 
L 53.268515 7.531187 
L 55.121648 8.227908 
L 56.164476 8.033557 
L 59.743817 9.809189 
L 61.506578 12.226483 
L 64.059843 14.041242 
L 65.213351 15.874857 
L 66.384127 16.580752 
L 67.339632 17.89836 
L 64.455853 21.654036 
L 64.303034 25.147316 
L 65.168673 25.474709 
L 68.499748 24.686362 
L 70.01322 25.134571 
L 68.655107 26.942573 
L 69.583702 29.03451 
L 70.72046 30.442985 
L 71.307626 30.636309 
L 72.446412 32.955989 
L 73.44101 33.331427 
L 75.225606 34.952092 
L 89.93542 39.942287 
L 94.847493 39.942287 
L 87.207506 47.339837 
L 79.925455 55.158705 
L 75.147927 54.949193 
L 72.984076 55.503559 
L 70.973805 56.459745 
L 69.560855 58.163248 
L 65.981008 58.707927 
L 64.669601 59.903703 
L 61.363913 59.937094 
L 59.402638 58.249015 
L 54.906378 60.308967 
L 53.216218 62.597292 
L 48.326486 61.376662 
L 46.326625 61.564891 
L 40.990615 57.826548 
L 36.204456 57.466019 
L 35.70893 57.148565 
L 34.781351 55.440475 
L 35.039266 53.153551 
L 33.394294 52.597528 
L 32.501234 52.877004 
L 32.375831 52.197364 
L 31.573651 51.651921 
L 30.963387 50.465062 
L 29.632684 46.411685 
L 28.754352 46.076514 
L 28.650779 45.40006 
L 27.555654 44.955802 
L 27.067748 44.032878 
L 26.341724 43.623284 
L 26.208706 42.835701 
L 24.78179 41.616349 
L 21.550741 40.921794 
z
" clip-path="url(#p21290a3b7a)" style="fill: #eeeeee; stroke: #000000; stroke-width: 0.3"/>
    <path d="M -22.273325 37.760755 
L -21.71637 37.066462 
L -22.077856 36.424159 
L -20.20416 35.551697 
L -19.605828 33.151607 
L -19.053952 32.426343 
L -19.034912 30.954277 
L -18.151245 30.221877 
L -17.656736 28.645942 
L -13.964941 27.991535 
L -13.586953 29.166793 
L -10.048483 32.622346 
L -7.815078 32.000053 
L -3.813071 32.056385 
L -3.076029 33.358515 
L 0.847636 33.39236 
L 1.191462 32.383783 
L 3.98786 31.236304 
L 4.630364 30.482744 
L 4.637978 29.774048 
L 6.590877 28.726742 
L 10.286479 31.420711 
L 12.246997 31.224831 
L 14.705315 29.004177 
L 16.071304 26.827493 
L 18.467687 24.723191 
L 18.065074 23.611525 
L 18.06304 21.660408 
L 16.755695 20.197264 
L 20.019746 20.182862 
L 19.946635 19.1302 
L 22.291993 19.158748 
L 21.673098 22.173358 
L 21.952082 26.415729 
L 23.137324 26.875667 
L 25.768774 29.200056 
L 26.045223 30.77675 
L 25.594124 32.530843 
L 26.523904 32.750935 
L 26.726058 36.835025 
L 26.03304 37.728642 
L 24.957712 38.106373 
L 24.311907 37.653069 
L 22.41943 37.678046 
L 22.059461 38.142315 
L 22.173698 39.229512 
L 21.21413 40.333528 
L 21.550741 40.921794 
L 24.78179 41.616349 
L 26.208706 42.835701 
L 26.341724 43.623284 
L 27.067748 44.032878 
L 27.555654 44.955802 
L 28.650779 45.40006 
L 28.754352 46.076514 
L 29.632684 46.411685 
L 30.963387 50.465062 
L 31.573651 51.651921 
L 32.375831 52.197364 
L 32.501234 52.877004 
L 33.394294 52.597528 
L 35.039266 53.153551 
L 34.781351 55.440475 
L 35.612466 56.599674 
L 34.721199 56.294885 
L 34.529435 56.748731 
L 34.088677 56.59631 
L 33.654124 55.804944 
L 33.89314 55.194074 
L 33.034856 55.084993 
L 33.110904 54.572299 
L 32.296079 54.812283 
L 28.049146 56.5956 
L 23.674482 60.888694 
L 22.072155 60.823061 
L 21.250683 60.218992 
L 20.067725 60.79362 
L 18.178289 60.980834 
L 17.274319 61.532778 
L 17.177093 62.060124 
L 16.008096 61.635368 
L 15.260748 60.559767 
L 14.012293 61.350664 
L 12.134538 60.714225 
L 11.166595 61.236221 
L 10.651267 62.168831 
L 10.196362 61.258016 
L 9.245936 61.605035 
L 9.107328 60.307689 
L 7.457282 59.870953 
L 6.184963 58.132022 
L 5.484837 57.835342 
L 5.528498 56.911905 
L 4.242984 56.395641 
L 3.862707 56.35206 
L 2.701835 57.973997 
L 0.413343 56.921972 
L -1.541841 58.25921 
L -3.053284 57.587086 
L -3.2287 56.941474 
L -4.415466 56.715646 
L -4.512947 55.81872 
L -5.682199 55.104667 
L -6.910848 53.43902 
L -6.927604 51.873285 
L -7.601842 50.930475 
L -9.09958 50.309588 
L -9.308753 49.879219 
L -11.035467 49.432539 
L -10.622194 48.776475 
L -11.794998 47.493146 
L -11.265459 46.567673 
L -12.674347 45.694446 
L -12.994202 44.873985 
L -16.266127 43.202474 
L -17.099275 42.385579 
L -17.223155 41.997395 
L -16.662138 41.604877 
L -16.969303 40.595801 
L -17.744063 40.437777 
L -19.016377 39.036182 
L -22.196151 38.357435 
z
" clip-path="url(#p21290a3b7a)" style="fill: #eeeeee; stroke: #000000; stroke-width: 0.3"/>
    <path d="M 60.463745 83.678398 
L 60.463745 65.366447 
L 62.246819 63.594515 
L 65.099625 59.306387 
L 65.811432 58.793437 
L 69.560855 58.163248 
L 70.973805 56.459745 
L 74.967687 54.992394 
L 79.925455 55.158705 
L 87.418974 47.134872 
L 94.847493 39.942287 
L 99.563086 32.767503 
L 99.563091 23.899815 
L 106.09266 22.222005 
L 107.924008 20.421179 
L 108.693973 20.25 
L 111.124782 21.019486 
L 110.08636 23.444232 
L 110.109149 24.201452 
L 110.617854 24.446427 
L 110.252266 25.161368 
L 110.476137 27.109105 
L 109.736565 27.920111 
L 110.769568 27.880574 
L 110.552092 27.284911 
L 111.628177 27.69818 
L 111.639652 28.108691 
L 110.12954 28.051872 
L 109.330248 28.443833 
L 108.853473 32.923411 
L 106.934577 35.544673 
L 105.221962 39.131074 
L 103.911115 40.251352 
L 103.517742 41.952231 
L 101.077148 45.791711 
L 100.039743 49.078477 
L 94.696821 57.399848 
L 85.358995 67.274397 
L 78.002428 71.693678 
L 73.624949 75.413339 
L 65.337718 84.314521 
L 65.243773 83.795125 
L 64.912763 85.349698 
L 64.636123 85.148605 
L 64.672902 85.609396 
L 63.191753 87.75 
L 63.131753 87.140709 
z
" clip-path="url(#p21290a3b7a)" style="fill: #eeeeee; stroke: #000000; stroke-width: 0.3"/>
    <path d="M 25.65378 78.841769 
L 26.595069 77.671868 
L 26.911372 76.406123 
L 28.082654 75.359582 
L 28.569037 74.044396 
L 30.096225 73.307275 
L 30.003313 72.534731 
L 30.954756 71.22426 
L 31.120779 69.928951 
L 30.428773 67.8049 
L 30.713597 67.164634 
L 30.47802 66.60288 
L 28.308583 63.688819 
L 28.049652 62.234593 
L 28.33651 61.293188 
L 26.925588 60.760998 
L 27.183503 60.273153 
L 26.593041 60.259388 
L 26.064007 58.5708 
L 28.049146 56.5956 
L 33.110904 54.572299 
L 33.034856 55.084993 
L 33.89314 55.194074 
L 33.654124 55.804944 
L 34.088677 56.59631 
L 34.721199 56.294885 
L 35.612466 56.599674 
L 36.204456 57.466019 
L 40.990615 57.826548 
L 46.326625 61.564891 
L 48.326486 61.376662 
L 53.216218 62.597292 
L 54.906378 60.308967 
L 59.402638 58.249015 
L 61.363913 59.937094 
L 64.910759 59.766705 
L 62.246819 63.594515 
L 60.393174 65.503317 
L 60.463745 83.678398 
L 63.131753 87.140709 
L 63.191753 87.75 
L 61.952066 89.092644 
L 61.63905 88.865459 
L 60.626831 89.457103 
L 60.59325 88.763505 
L 60.294622 89.608829 
L 59.88046 89.067756 
L 60.461328 90.442109 
L 60.292225 90.773655 
L 59.890457 90.389127 
L 59.452705 90.62514 
L 59.663785 91.210367 
L 58.846656 91.90798 
L 58.062307 91.854594 
L 56.791039 92.547792 
L 56.449635 93.855915 
L 56.795038 94.090725 
L 56.254549 95.498796 
L 55.597328 96.021003 
L 55.484191 95.764516 
L 54.992473 97.22075 
L 54.574715 96.974699 
L 54.99767 97.60769 
L 54.601502 98.703879 
L 54.097389 98.703879 
L 54.399618 98.957959 
L 54.174548 99.351316 
L 53.983054 98.968391 
L 53.492136 99.308771 
L 54.009438 99.6652 
L 52.684601 102.214821 
L 52.214472 102.047041 
L 51.674784 102.454045 
L 44.700944 97.41294 
L 44.393273 96.780324 
L 43.856625 96.712525 
L 43.788594 96.217036 
L 44.352657 95.73072 
L 44.081543 94.406868 
L 25.706072 84.328346 
L 25.948252 80.144723 
z
" clip-path="url(#p21290a3b7a)" style="fill: #eeeeee; stroke: #000000; stroke-width: 0.3"/>
    <path d="M 60.412156 89.838825 
L 60.828317 89.492423 
L 61.326029 89.800689 
L 60.532086 90.220542 
z
" clip-path="url(#p21290a3b7a)" style="fill: #eeeeee; stroke: #000000; stroke-width: 0.3"/>
    <path d="M 3.205226 103.650907 
L 3.600225 101.330976 
L 5.214735 101.397754 
L 6.541881 100.453675 
L 8.058404 98.076141 
L 8.401617 98.068491 
L 8.650649 96.902155 
L 10.455804 95.534461 
L 10.61522 95.032347 
L 10.582224 94.074503 
L 8.926587 93.901692 
L 8.569669 93.448511 
L 9.094128 92.450908 
L 8.551645 92.553371 
L 9.023051 91.533844 
L 10.625885 90.951187 
L 10.888368 89.654857 
L 10.442093 88.899388 
L 10.609384 87.246229 
L 10.150161 86.32152 
L 9.255073 85.886184 
L 8.890029 84.607186 
L 9.664288 84.677535 
L 10.344612 84.245766 
L 26.176717 84.328346 
L 44.081543 94.406868 
L 44.352657 95.73072 
L 43.788594 96.217036 
L 43.856625 96.712525 
L 44.393273 96.780324 
L 44.700944 97.41294 
L 51.795117 102.509035 
L 51.787518 103.336298 
L 51.272215 103.633323 
L 51.153483 104.280361 
L 51.439717 104.517583 
L 49.653146 109.247537 
L 50.321165 111.13085 
L 50.939205 111.295819 
L 52.114132 112.563404 
L 52.11533 113.073167 
L 53.02041 113.207231 
L 53.45856 113.912869 
L 53.428177 114.492473 
L 52.348796 115.434534 
L 51.97941 117.970098 
L 52.348796 117.491645 
L 52.91727 118.01586 
L 52.970437 118.892894 
L 52.114132 120.36679 
L 52.479121 122.362888 
L 53.45856 123.390445 
L 52.946052 123.076561 
L 52.647822 123.274843 
L 53.154734 123.469918 
L 53.187515 124.386287 
L 53.534515 124.232558 
L 53.901101 124.706193 
L 53.525717 125.981004 
L 53.935084 125.967356 
L 54.378028 127.062341 
L 54.162154 127.447674 
L 54.671459 127.837021 
L 54.131771 128.919967 
L 54.800585 128.658262 
L 55.577738 129.795793 
L 55.74804 129.361493 
L 56.302519 129.542921 
L 56.243354 130.043451 
L 56.791039 130.169085 
L 56.791039 129.694642 
L 57.364308 130.472133 
L 57.74849 130.185944 
L 57.796862 131.047722 
L 55.690786 132.706618 
L 53.187279 133.592076 
L 52.031737 134.46071 
L 50.228866 134.465297 
L 48.244238 135.677512 
L 47.086662 135.005137 
L 45.52191 135.03878 
L 44.926874 136.269857 
L 43.220974 137.186921 
L 41.60951 136.966192 
L 41.072862 136.424315 
L 40.030035 136.467137 
L 39.075035 137.1961 
L 36.982261 137.098224 
L 36.826902 136.492627 
L 35.148423 135.677512 
L 33.91977 136.623124 
L 30.915157 136.467137 
L 30.531835 135.489924 
L 29.93731 135.34056 
L 29.190472 134.142111 
L 29.492559 132.417074 
L 29.031051 131.367979 
L 28.811723 128.918058 
L 27.738429 127.320974 
L 26.239168 126.128641 
L 25.743642 127.314858 
L 24.872924 126.654715 
L 23.420625 126.839246 
L 22.739284 126.201535 
L 18.896699 125.047431 
L 18.43189 124.483127 
L 16.047695 124.078371 
L 16.040587 123.441168 
L 14.743902 123.344826 
L 14.087437 122.311534 
L 13.175087 121.737542 
L 11.821792 121.881293 
L 11.240717 121.556578 
L 8.696595 116.850446 
L 7.973616 114.646231 
L 6.973433 113.36673 
L 5.087809 112.031657 
L 4.196272 110.323953 
L 3.953591 108.987356 
L 4.623256 107.518732 
z
" clip-path="url(#p21290a3b7a)" style="fill: #eeeeee; stroke: #000000; stroke-width: 0.3"/>
    <path d="M 51.673983 108.553939 
L 52.114132 108.197509 
L 52.278436 107.588198 
L 52.784548 109.924277 
L 53.199506 109.944751 
L 53.187515 109.587513 
L 53.408188 110.561283 
L 53.236285 111.259695 
L 52.784548 110.463343 
L 52.720982 110.820177 
L 51.71396 110.065966 
z
" clip-path="url(#p21290a3b7a)" style="fill: #eeeeee; stroke: #000000; stroke-width: 0.3"/>
    <path d="M 53.897505 106.086607 
L 53.998248 105.461247 
L 54.574715 105.225228 
L 54.355642 105.228439 
L 53.931086 104.986004 
L 54.403612 105.056644 
L 54.098991 103.503674 
L 54.774201 104.014241 
L 54.943305 103.537795 
L 54.649073 106.051287 
z
" clip-path="url(#p21290a3b7a)" style="fill: #eeeeee; stroke: #000000; stroke-width: 0.3"/>
    <path d="M 53.622864 118.572583 
L 55.13839 117.054134 
L 55.127199 117.62852 
L 54.782596 118.417247 
L 53.831944 118.771269 
z
" clip-path="url(#p21290a3b7a)" style="fill: #eeeeee; stroke: #000000; stroke-width: 0.3"/>
    <path d="M 53.565335 105.99069 
L 53.942227 106.268844 
L 53.979708 106.392284 
L 53.761206 106.332253 
z
" clip-path="url(#p21290a3b7a)" style="fill: #eeeeee; stroke: #000000; stroke-width: 0.3"/>
    <path d="M 54.190867 119.292219 
L 54.190886 119.083145 
L 54.675698 118.873934 
z
" clip-path="url(#p21290a3b7a)" style="fill: #eeeeee; stroke: #000000; stroke-width: 0.3"/>
    <path d="M 51.791743 107.878915 
L 51.906938 108.266921 
L 51.792028 108.277076 
z
" clip-path="url(#p21290a3b7a)" style="fill: #eeeeee; stroke: #000000; stroke-width: 0.3"/>
    <path d="M 68.661704 27.047072 
L 71.776811 22.667747 
L 72.792228 23.249758 
L 72.785832 23.950183 
L 74.463265 26.100415 
L 77.007648 28.016369 
L 78.179715 28.168904 
L 80.02608 28.010016 
L 83.991784 25.729736 
L 87.324666 26.642292 
L 92.031554 24.217906 
L 93.527495 24.629128 
L 95.590308 24.454526 
L 97.513998 23.553812 
L 99.563091 23.899815 
L 99.563086 32.767503 
L 94.847493 39.942287 
L 89.93542 39.942287 
L 75.417518 35.064493 
L 73.44101 33.331427 
L 72.446412 32.955989 
L 71.307626 30.636309 
L 70.72046 30.442985 
L 69.583702 29.03451 
z
" clip-path="url(#p21290a3b7a)" style="fill: #eeeeee; stroke: #000000; stroke-width: 0.3"/>
    <path d="M -80.671038 108.132482 
L -80.623418 107.678286 
L -79.395271 107.626798 
L -79.288652 104.847062 
L -79.71259 104.316401 
L -78.5606 103.671297 
L -77.951352 102.761369 
L -76.662282 102.387204 
L -76.55109 101.970729 
L -75.054369 103.479116 
L -73.48327 102.494253 
L -73.471082 101.346779 
L -72.343467 101.569036 
L -70.169462 100.47916 
L -69.763292 101.230042 
L -70.347663 101.869795 
L -70.102442 103.483703 
L -69.517054 103.261954 
L -68.766154 103.550994 
L -67.987838 103.132477 
L -66.15654 100.784511 
L -64.904022 100.167185 
L -64.536444 99.398464 
L -62.677725 98.705186 
L -61.137849 95.725112 
L -61.290157 90.145759 
L -59.721342 88.692426 
L -58.153032 85.642516 
L -57.222914 84.794272 
L -55.820623 84.389521 
L -53.651698 81.965086 
L -53.814671 80.349141 
L -52.689084 77.522504 
L -53.076464 74.369111 
L -52.070695 71.731217 
L -52.065616 68.729609 
L -49.409796 63.954407 
L -49.2453 59.427582 
L -49.7591 58.037332 
L -48.72084 57.678461 
L -47.099728 55.16928 
L -45.49994 54.079025 
L -43.457941 54.243806 
L -40.931586 55.84714 
L -39.746088 57.607476 
L -38.315369 57.418226 
L -36.648056 58.21626 
L -34.062301 58.207342 
L -31.28209 59.019517 
L -30.264138 58.710985 
L -29.861525 57.317933 
L -29.384789 57.22936 
L -28.358713 55.592255 
L -25.823216 56.740243 
L -24.970777 56.034348 
L -21.67372 55.067967 
L -20.988823 54.544442 
L -20.999993 54.118917 
L -19.358067 55.129008 
L -16.523535 54.562918 
L -16.248359 53.19038 
L -15.363675 52.871145 
L -13.560299 53.88315 
L -12.148365 53.546326 
L -10.653673 54.487983 
L -9.490005 54.256551 
L -8.862985 54.53692 
L -7.848079 53.719261 
L -6.727061 54.071123 
L -4.554068 55.76851 
L -4.415466 56.715646 
L -3.2287 56.941474 
L -3.053284 57.587086 
L -1.423546 58.296547 
L 0.413343 56.921972 
L 2.701835 57.973997 
L 3.862707 56.35206 
L 4.653211 56.489951 
L 5.528498 56.911905 
L 5.484837 57.835342 
L 6.184963 58.132022 
L 7.457282 59.870953 
L 9.107328 60.307689 
L 9.194655 61.563619 
L 10.196362 61.258016 
L 10.651267 62.168831 
L 10.930511 62.022023 
L 10.997525 62.646224 
L 10.181133 64.313021 
L 10.719303 65.309864 
L 10.01765 67.323428 
L 10.809676 67.881108 
L 11.28235 67.519175 
L 11.710856 68.087306 
L 12.311728 68.024859 
L 12.77298 69.010871 
L 8.876579 73.27414 
L 7.700474 73.780338 
L 7.287707 74.901558 
L 6.268227 75.316252 
L 6.23472 76.925573 
L 5.068513 79.025797 
L 4.339448 83.963359 
L 4.45368 86.231294 
L 2.760985 87.56432 
L 2.255816 88.475268 
L 2.277136 90.223245 
L 0.958115 91.181089 
L 0.913437 91.804526 
L 1.080978 92.467219 
L 1.755216 92.921929 
L 1.589703 93.260923 
L 2.767332 94.409926 
L 2.671118 98.618526 
L 3.282399 99.572291 
L 3.633226 101.589934 
L 3.205226 103.650907 
L 4.623256 107.518732 
L 3.953591 108.987356 
L 4.256183 110.517662 
L 5.087809 112.031657 
L 6.973433 113.36673 
L 7.973616 114.646231 
L 10.221749 119.798914 
L 1.070318 121.224213 
L 1.089609 122.618414 
L -1.566211 125.11523 
L -0.763018 125.639775 
L 0.133598 127.679845 
L -0.497991 129.789243 
L 0.139178 131.878255 
L -0.574147 132.82437 
L -1.527624 136.269857 
L -0.802872 137.942902 
L 0.392018 138.532184 
L 1.7872 140.439211 
L 4.069346 140.805219 
L 3.944449 139.767339 
L 5.541191 139.330474 
L 5.457421 145.75017 
L 4.647626 145.580421 
L 4.901988 144.889693 
L 4.436418 144.614419 
L 2.519316 145.657394 
L 1.58513 145.455527 
L 0.180305 142.958967 
L -0.631013 142.938577 
L -1.220969 141.141662 
L -3.500575 140.384665 
L -4.001687 139.864706 
L -5.074976 140.018652 
L -6.143196 138.18555 
L -7.059609 137.628885 
L -7.325137 136.447768 
L -8.0933 136.575716 
L -8.466974 138.122338 
L -9.598146 138.634646 
L -11.08573 138.135591 
L -13.215057 138.092261 
L -14.98188 137.233309 
L -15.600269 137.468311 
L -16.340255 136.805618 
L -16.510336 134.598858 
L -19.446917 135.246256 
L -20.53544 135.914557 
L -21.503133 135.607169 
L -21.020301 135.014824 
L -21.126919 134.132424 
L -22.336788 133.851542 
L -22.386034 133.239829 
L -22.939943 133.014006 
L -23.763955 133.778648 
L -25.619628 133.445775 
L -27.789064 134.14364 
L -30.310845 133.847468 
L -31.604484 134.869032 
L -31.958868 132.910014 
L -31.202382 132.460912 
L -31.232338 130.523813 
L -31.986284 128.368028 
L -33.366739 127.014607 
L -33.793722 125.776902 
L -33.04739 121.090144 
L -33.980559 118.828325 
L -33.455083 116.226496 
L -33.828246 115.306887 
L -40.039543 115.321669 
L -39.592758 113.494678 
L -41.027033 113.507423 
L -41.150914 113.918802 
L -44.945525 113.918802 
L -44.988169 116.273905 
L -45.761917 116.740847 
L -45.762423 118.851265 
L -49.883997 118.507176 
L -49.927658 118.829346 
L -51.830038 118.952199 
L -51.939196 119.380398 
L -53.069862 119.060778 
L -54.385331 119.327386 
L -55.781531 117.626305 
L -56.466428 116.021063 
L -57.600646 114.918447 
L -57.465595 113.982014 
L -58.472887 112.470564 
L -58.777513 111.270586 
L -58.675969 109.910028 
L -59.529936 108.495437 
L -72.348035 108.195694 
L -75.300607 108.43732 
L -77.493269 108.062237 
L -78.130349 108.312608 
L -78.34587 108.874654 
L -79.687483 109.233056 
L -79.649677 108.887029 
L -79.947519 109.006345 
z
" clip-path="url(#p21290a3b7a)" style="fill: #eeeeee; stroke: #000000; stroke-width: 0.3"/>
    <path d="M -78.235238 108.68198 
L -77.827349 108.344589 
L -77.009788 108.32708 
z
" clip-path="url(#p21290a3b7a)" style="fill: #eeeeee; stroke: #000000; stroke-width: 0.3"/>
    <path d="M -33.707918 16.281773 
L -32.948386 14.778994 
L -31.45725 13.613931 
L -32.403619 11.415324 
L -31.717198 10.545797 
L -30.087961 9.64275 
L -30.664212 9.026707 
L -30.9861 7.650982 
L -29.448252 6.93362 
L -29.535069 6.102831 
L -28.065763 4.40507 
L -28.317586 2.729222 
L -27.394571 1.925965 
L -23.023719 1.84262 
L -23.038947 -19.239128 
L -18.130431 -19.271883 
L -18.126875 -29.103294 
L 12.659759 -29.098451 
L 13.518801 -30.245674 
L 13.855411 -29.980595 
L 13.578712 -29.103294 
L 22.154044 -29.10358 
L 24.019498 -27.69152 
L 26.172276 -27.97875 
L 26.590127 -29.103802 
L 40.342108 -29.105085 
L 40.362897 -27.400591 
L 42.451294 -24.478486 
L 42.151467 -24.223804 
L 42.042329 -24.824479 
L 41.429481 -25.217441 
L 42.033934 -22.048482 
L 41.774084 -20.984003 
L 42.11149 -17.171216 
L 43.047351 -13.64743 
L 43.565454 -12.928144 
L 44.228227 -13.051771 
L 44.637634 -12.497854 
L 45.460151 -12.282788 
L 46.42471 -11.435708 
L 46.200023 -11.114214 
L 46.571178 -10.626966 
L 47.330085 -10.90916 
L 46.893537 -10.471048 
L 47.749042 -10.502959 
L 48.792445 -9.465568 
L 46.97243 -7.057838 
L 46.412936 -7.15597 
L 46.201728 -6.831758 
L 46.016925 -7.168715 
L 43.35044 -6.004668 
L 42.895534 -4.612509 
L 40.78347 -4.77334 
L 40.912429 -3.686271 
L 40.30724 -2.065734 
L 40.689039 -0.905258 
L 39.297413 1.832933 
L 39.085695 3.201644 
L 38.089574 4.741385 
L 38.587128 9.032058 
L 37.923555 12.307919 
L 36.674083 15.104094 
L 36.608592 16.637971 
L 34.467077 16.944851 
L 32.647962 20.079378 
L 31.446219 21.089731 
L 31.448248 22.420977 
L 30.815136 23.879533 
L 30.884185 25.604955 
L 30.295751 26.464539 
L 29.882478 26.686544 
L 29.000083 25.700024 
L 27.549563 27.271623 
L 27.777522 28.958174 
L 26.523904 32.750935 
L 25.594124 32.530843 
L 26.045223 30.77675 
L 25.768774 29.200056 
L 23.137324 26.875667 
L 21.952082 26.415729 
L 21.673098 22.173358 
L 22.291993 19.158748 
L 19.946635 19.1302 
L 20.019746 20.182862 
L 16.755695 20.197264 
L 18.06304 21.660408 
L 18.065074 23.611525 
L 18.467687 24.723191 
L 16.071304 26.827493 
L 14.705315 29.004177 
L 12.246997 31.224831 
L 10.286479 31.420711 
L 6.590877 28.726742 
L 4.637978 29.774048 
L 4.630364 30.482744 
L 3.98786 31.236304 
L 1.191462 32.383783 
L 0.847636 33.39236 
L -3.076029 33.358515 
L -3.813071 32.056385 
L -7.815078 32.000053 
L -10.048483 32.622346 
L -13.586953 29.166793 
L -13.964941 27.991535 
L -17.656736 28.645942 
L -18.151245 30.221877 
L -19.034912 30.954277 
L -19.053952 32.426343 
L -19.605828 33.151607 
L -20.20416 35.551697 
L -22.387051 36.563322 
L -25.452081 36.312009 
L -25.07181 35.117254 
L -25.719138 34.899712 
L -25.529761 34.151252 
L -24.753984 33.624033 
L -24.692044 30.736227 
L -26.428912 27.892002 
L -28.541993 25.527341 
L -28.087088 23.890878 
L -28.277983 23.174916 
L -28.980142 23.139996 
L -30.110808 22.006539 
L -29.763538 19.837244 
L -30.521547 20.046244 
L -30.39411 19.383807 
L -30.940405 17.912126 
L -30.58247 17.182398 
L -31.765428 16.5299 
L -32.251812 16.988433 
L -33.086483 17.041957 
z
" clip-path="url(#p21290a3b7a)" style="fill: #eeeeee; stroke: #000000; stroke-width: 0.3"/>
    <path d="M 42.109491 -23.22736 
L 42.306575 -23.369049 
L 42.163458 -22.960032 
z
" clip-path="url(#p21290a3b7a)" style="fill: #eeeeee; stroke: #000000; stroke-width: 0.3"/>
    <path d="M 64.303034 25.147316 
L 64.455853 21.654036 
L 67.592472 17.629971 
L 68.807415 18.420612 
L 69.36742 18.079581 
L 69.743629 17.107976 
L 70.966078 16.704724 
L 72.00588 17.785663 
L 72.42324 19.086964 
L 72.240544 20.172519 
L 71.402631 20.40432 
L 70.660656 21.164948 
L 69.293445 21.516968 
L 68.75695 22.324359 
L 68.006182 22.296866 
L 68.441531 22.821476 
L 69.679621 22.190093 
L 71.133983 22.111221 
L 71.570531 22.722338 
L 69.76546 25.235884 
L 68.499748 24.686362 
L 65.168673 25.474709 
z
" clip-path="url(#p21290a3b7a)" style="fill: #eeeeee; stroke: #000000; stroke-width: 0.3"/>
    <path d="M 38.089574 4.741385 
L 39.085695 3.201644 
L 39.297413 1.832933 
L 40.689039 -0.905258 
L 40.30724 -2.065734 
L 40.912429 -3.686271 
L 40.78347 -4.77334 
L 42.895534 -4.612509 
L 43.35044 -6.004668 
L 46.016925 -7.168715 
L 46.201728 -6.831758 
L 46.412936 -7.15597 
L 46.97243 -7.057838 
L 48.781249 -9.421015 
L 50.799689 -5.2805 
L 52.183293 0.818595 
L 52.885286 1.394786 
L 52.986029 2.812084 
L 53.741596 2.933506 
L 54.253701 4.935627 
L 54.72383 5.010287 
L 54.936909 4.543873 
L 54.537936 3.473371 
L 55.03805 2.913235 
L 56.04347 3.719022 
L 55.781621 4.22959 
L 56.434043 5.487137 
L 57.059682 5.826309 
L 58.169446 5.313335 
L 59.06253 5.911405 
L 59.415926 6.902428 
L 61.385994 7.190226 
L 63.886554 10.626508 
L 65.326925 11.093119 
L 65.999341 12.089968 
L 66.57541 12.531898 
L 66.383518 11.971959 
L 66.892425 12.429943 
L 67.339367 14.165949 
L 68.09853 14.116977 
L 69.060377 15.100577 
L 69.313433 15.994672 
L 70.034216 16.301133 
L 70.392809 15.755847 
L 70.966078 16.704724 
L 69.743629 17.107976 
L 69.36742 18.079581 
L 68.807415 18.420612 
L 67.812311 17.649596 
L 67.339632 17.89836 
L 66.384127 16.580752 
L 65.213351 15.874857 
L 64.059843 14.041242 
L 61.506578 12.226483 
L 59.743817 9.809189 
L 56.164476 8.033557 
L 55.121648 8.227908 
L 53.268515 7.531187 
L 51.761129 8.160745 
L 51.364607 7.361562 
L 50.786327 7.119808 
L 50.080616 7.896944 
L 47.922856 8.274168 
L 46.952628 6.979243 
L 45.859026 6.758895 
L 45.292929 5.993744 
L 43.633741 9.811483 
L 42.356858 8.075615 
L 41.508477 8.256199 
L 41.209436 8.966424 
L 39.676162 8.693957 
L 38.587128 9.032058 
z
" clip-path="url(#p21290a3b7a)" style="fill: #eeeeee; stroke: #000000; stroke-width: 0.3"/>
    <path d="M 55.309095 1.751822 
L 55.834792 1.264332 
L 55.409833 0.990385 
L 56.321309 1.423082 
L 56.455633 2.221442 
L 56.962142 1.929635 
L 57.585783 2.576672 
L 55.546957 2.408088 
L 55.343074 1.936658 
L 56.050264 2.138757 
z
" clip-path="url(#p21290a3b7a)" style="fill: #eeeeee; stroke: #000000; stroke-width: 0.3"/>
    <path d="M 55.601725 0.379875 
L 55.898751 -0.06165 
L 56.213374 0.53682 
z
" clip-path="url(#p21290a3b7a)" style="fill: #eeeeee; stroke: #000000; stroke-width: 0.3"/>
    <path d="M 1.550355 93.177829 
L 1.774762 92.309195 
L 3.061038 92.459066 
L 3.283416 93.32413 
L 5.151272 93.220651 
L 6.025546 92.557958 
L 6.191565 90.811002 
L 7.10087 91.376328 
L 8.386894 90.742691 
L 9.251521 91.223911 
L 8.570681 92.432047 
L 9.094128 92.450908 
L 8.569669 93.448511 
L 8.926587 93.901692 
L 10.582224 94.074503 
L 10.529927 95.401926 
L 8.650649 96.902155 
L 8.401617 98.068491 
L 8.058404 98.076141 
L 6.541881 100.453675 
L 5.214735 101.397754 
L 3.600225 101.330976 
L 3.282399 99.572291 
L 2.671118 98.618526 
L 2.767332 94.409926 
z
" clip-path="url(#p21290a3b7a)" style="fill: #eeeeee; stroke: #000000; stroke-width: 0.3"/>
    <path d="M 0.921306 91.310571 
L 2.277136 90.223245 
L 2.255816 88.475268 
L 3.298644 86.863397 
L 5.623945 85.906574 
L 6.332707 86.608005 
L 7.250137 86.017703 
L 8.184824 84.642363 
L 8.844708 84.645313 
L 9.255073 85.886184 
L 10.150161 86.32152 
L 10.645176 87.350729 
L 10.442093 88.899388 
L 10.888368 89.654857 
L 10.625885 90.951187 
L 9.090066 91.21779 
L 8.386894 90.742691 
L 7.10087 91.376328 
L 6.191565 90.811002 
L 6.025546 92.557958 
L 5.151272 93.220651 
L 3.283416 93.32413 
L 3.120949 92.503925 
L 2.172041 92.180734 
L 1.690225 92.802642 
L 1.080978 92.467219 
z
" clip-path="url(#p21290a3b7a)" style="fill: #eeeeee; stroke: #000000; stroke-width: 0.3"/>
    <path d="M 4.339448 83.963359 
L 5.068513 79.025797 
L 6.23472 76.925573 
L 6.268227 75.316252 
L 7.287707 74.901558 
L 7.700474 73.780338 
L 8.876579 73.27414 
L 12.77298 69.010871 
L 12.311728 68.024859 
L 11.710856 68.087306 
L 11.28235 67.519175 
L 10.809676 67.881108 
L 10.01765 67.323428 
L 10.719303 65.309864 
L 10.181133 64.313021 
L 10.997525 62.646224 
L 10.930511 62.022023 
L 10.651267 62.168831 
L 11.166595 61.236221 
L 12.494758 60.67854 
L 14.012293 61.350664 
L 15.260748 60.559767 
L 16.008096 61.635368 
L 17.177093 62.060124 
L 17.274319 61.532778 
L 18.178289 60.980834 
L 20.067725 60.79362 
L 21.250683 60.218992 
L 22.072155 60.823061 
L 23.674482 60.888694 
L 26.206167 58.639748 
L 26.593041 60.259388 
L 27.183503 60.273153 
L 26.925588 60.760998 
L 28.33651 61.293188 
L 28.049652 62.234593 
L 28.308583 63.688819 
L 30.47802 66.60288 
L 30.713597 67.164634 
L 30.428773 67.8049 
L 31.120779 69.928951 
L 30.954756 71.22426 
L 30.003313 72.534731 
L 30.096225 73.307275 
L 28.569037 74.044396 
L 28.082654 75.359582 
L 26.911372 76.406123 
L 26.595069 77.671868 
L 25.65378 78.841769 
L 25.948252 80.144723 
L 25.706072 84.328346 
L 10.344612 84.245766 
L 8.184824 84.642363 
L 7.250137 86.017703 
L 6.224822 86.648277 
L 5.668117 85.913198 
L 4.45368 86.231294 
z
" clip-path="url(#p21290a3b7a)" style="fill: #eeeeee; stroke: #000000; stroke-width: 0.3"/>
    <path d="M 68.472715 4.198078 
L 68.828911 4.183828 
L 68.975226 3.592988 
L 69.38059 4.367264 
L 68.874483 1.936658 
L 69.576481 0.88482 
L 69.353808 -1.36235 
L 70.566118 -2.177879 
L 70.805247 -2.850002 
L 71.272085 -2.810751 
L 71.426937 -3.462993 
L 70.94131 -4.021181 
L 70.969743 -4.890329 
L 71.609201 -5.70748 
L 71.198718 -6.072467 
L 71.876763 -6.729044 
L 72.860702 -6.997433 
L 74.88341 -5.953693 
L 76.03235 -6.461671 
L 81.025148 -6.5779 
L 82.326912 -6.003904 
L 86.709952 -5.570097 
L 88.613349 -5.823196 
L 89.891759 -4.252105 
L 90.830003 -4.205717 
L 92.137858 -4.917855 
L 92.930897 -6.749942 
L 95.745377 -10.131708 
L 100.038299 -12.256529 
L 114.494262 -14.307943 
L 118.143412 -5.935597 
L 118.536884 -5.783945 
L 119.955484 -2.701176 
L 117.21546 -1.738652 
L 116.037336 -0.833923 
L 115.363324 0.546852 
L 115.721117 2.360724 
L 111.493951 4.266518 
L 107.496253 5.160006 
L 105.656511 6.172307 
L 104.490382 6.194783 
L 101.691592 7.126807 
L 100.317985 7.769026 
L 99.880238 8.729952 
L 98.367906 10.116745 
L 95.87694 10.484015 
L 95.032626 10.049311 
L 91.993577 12.034174 
L 88.567148 13.141604 
L 83.483275 13.577314 
L 82.192416 14.918148 
L 80.793225 15.452799 
L 80.50059 16.437805 
L 80.111216 16.337858 
L 80.287113 15.960955 
L 79.581923 16.233097 
L 79.629892 16.596353 
L 78.299857 16.154023 
L 77.341611 16.890971 
L 75.036539 17.246602 
L 73.338317 16.466102 
L 72.687089 16.823138 
L 72.712274 16.020561 
L 71.499773 13.863903 
L 71.768018 11.702431 
L 70.18813 7.799132 
L 70.493552 8.15135 
L 69.816342 5.973216 
L 70.120968 6.32965 
L 70.079788 5.653714 
L 69.719996 4.726707 
z
" clip-path="url(#p21290a3b7a)" style="fill: #eeeeee; stroke: #000000; stroke-width: 0.3"/>
    <path d="M 121.019268 17.516135 
L 122.060941 16.67297 
L 123.668063 17.243859 
L 125.01057 16.738244 
L 127.078183 17.482418 
L 125.114236 18.463414 
L 123.10344 18.714613 
z
" clip-path="url(#p21290a3b7a)" style="fill: #eeeeee; stroke: #000000; stroke-width: 0.3"/>
    <path d="M 68.221261 3.461332 
L 68.599842 3.202033 
L 68.332398 3.468153 
L 68.267633 4.073449 
z
" clip-path="url(#p21290a3b7a)" style="fill: #eeeeee; stroke: #000000; stroke-width: 0.3"/>
    <path d="M 120.804012 19.629769 
L 120.920966 19.568273 
L 121.035832 19.646662 
z
" clip-path="url(#p21290a3b7a)" style="fill: #eeeeee; stroke: #000000; stroke-width: 0.3"/>
    <path d="M 119.439301 19.393721 
L 119.531104 19.323609 
L 119.936006 19.533713 
z
" clip-path="url(#p21290a3b7a)" style="fill: #eeeeee; stroke: #000000; stroke-width: 0.3"/>
    <path d="M 114.914284 19.034919 
L 115.181109 19.004951 
L 116.507592 19.462077 
z
" clip-path="url(#p21290a3b7a)" style="fill: #eeeeee; stroke: #000000; stroke-width: 0.3"/>
    <path d="M 72.304508 16.909837 
L 72.593542 16.975663 
L 72.528782 17.078417 
z
" clip-path="url(#p21290a3b7a)" style="fill: #eeeeee; stroke: #000000; stroke-width: 0.3"/>
    <path d="M 68.874483 10.266863 
L 69.414171 10.217693 
L 69.315831 10.726456 
z
" clip-path="url(#p21290a3b7a)" style="fill: #eeeeee; stroke: #000000; stroke-width: 0.3"/>
    <path d="M 68.857693 11.990223 
L 68.882481 11.815419 
L 69.38059 11.466614 
z
" clip-path="url(#p21290a3b7a)" style="fill: #eeeeee; stroke: #000000; stroke-width: 0.3"/>
    <path d="M 86.143742 125.675145 
L 87.558928 125.53747 
L 87.358243 125.877041 
L 86.597881 125.989832 
L 86.276469 126.004683 
z
" clip-path="url(#p21290a3b7a)" style="fill: #eeeeee; stroke: #000000; stroke-width: 0.3"/>
    <path d="M 131.30974 102.370345 
L 131.571053 101.885504 
L 131.978874 103.076817 
L 131.684549 102.596598 
z
" clip-path="url(#p21290a3b7a)" style="fill: #eeeeee; stroke: #000000; stroke-width: 0.3"/>
    <path d="M 135.520124 114.60085 
L 135.660844 114.451935 
L 135.587286 114.666675 
z
" clip-path="url(#p21290a3b7a)" style="fill: #eeeeee; stroke: #000000; stroke-width: 0.3"/>
    <path d="M 133.919796 102.00376 
L 133.975448 101.972717 
L 134.003891 102.027351 
z
" clip-path="url(#p21290a3b7a)" style="fill: #eeeeee; stroke: #000000; stroke-width: 0.3"/>
    <path d="M 133.850095 100.828182 
L 133.879323 100.774992 
L 133.868364 100.837351 
z
" clip-path="url(#p21290a3b7a)" style="fill: #eeeeee; stroke: #000000; stroke-width: 0.3"/>
    <path d="M 133.627245 100.752984 
L 133.674738 100.734641 
L 133.682042 100.773157 
z
" clip-path="url(#p21290a3b7a)" style="fill: #eeeeee; stroke: #000000; stroke-width: 0.3"/>
    <path d="M 133.608976 100.51089 
L 133.629067 100.573248 
L 133.610803 100.575078 
z
" clip-path="url(#p21290a3b7a)" style="fill: #eeeeee; stroke: #000000; stroke-width: 0.3"/>
    <path d="M 133.391603 100.947394 
L 133.546869 100.912548 
L 133.470147 101.000584 
z
" clip-path="url(#p21290a3b7a)" style="fill: #eeeeee; stroke: #000000; stroke-width: 0.3"/>
    <path d="M 132.849086 100.477873 
L 132.986082 100.485212 
L 132.936762 100.554905 
z
" clip-path="url(#p21290a3b7a)" style="fill: #eeeeee; stroke: #000000; stroke-width: 0.3"/>
    <path d="M 132.662966 100.574407 
L 133.202654 100.742987 
L 133.065535 100.880266 
z
" clip-path="url(#p21290a3b7a)" style="fill: #eeeeee; stroke: #000000; stroke-width: 0.3"/>
    <path d="M 132.578738 100.741981 
L 132.606139 100.760319 
L 132.580566 100.763988 
z
" clip-path="url(#p21290a3b7a)" style="fill: #eeeeee; stroke: #000000; stroke-width: 0.3"/>
    <path d="M 132.575083 100.162416 
L 132.629886 100.151412 
L 132.653632 100.158751 
z
" clip-path="url(#p21290a3b7a)" style="fill: #eeeeee; stroke: #000000; stroke-width: 0.3"/>
    <path d="M 132.538638 98.1319 
L 132.577019 98.082129 
L 132.607397 98.184083 
z
" clip-path="url(#p21290a3b7a)" style="fill: #eeeeee; stroke: #000000; stroke-width: 0.3"/>
    <path d="M 132.498367 100.835516 
L 132.523936 100.831846 
L 132.5349 100.855689 
z
" clip-path="url(#p21290a3b7a)" style="fill: #eeeeee; stroke: #000000; stroke-width: 0.3"/>
    <path d="M 131.81762 102.201139 
L 131.849153 102.193943 
L 131.847001 102.217687 
z
" clip-path="url(#p21290a3b7a)" style="fill: #eeeeee; stroke: #000000; stroke-width: 0.3"/>
    <path d="M 131.776779 102.1443 
L 131.811175 102.063717 
L 131.863482 102.074508 
z
" clip-path="url(#p21290a3b7a)" style="fill: #eeeeee; stroke: #000000; stroke-width: 0.3"/>
    <path d="M 131.75313 102.240711 
L 131.812605 102.218407 
L 131.821206 102.26733 
z
" clip-path="url(#p21290a3b7a)" style="fill: #eeeeee; stroke: #000000; stroke-width: 0.3"/>
    <path d="M 131.289231 102.433621 
L 131.334911 102.441715 
L 131.327749 102.465996 
z
" clip-path="url(#p21290a3b7a)" style="fill: #eeeeee; stroke: #000000; stroke-width: 0.3"/>
    <path d="M 131.202606 108.3107 
L 131.212205 108.313506 
L 131.203407 108.331168 
z
" clip-path="url(#p21290a3b7a)" style="fill: #eeeeee; stroke: #000000; stroke-width: 0.3"/>
    <path d="M 131.114561 102.385956 
L 131.172783 102.399445 
L 131.168308 102.406642 
z
" clip-path="url(#p21290a3b7a)" style="fill: #eeeeee; stroke: #000000; stroke-width: 0.3"/>
    <path d="M 130.443846 101.306882 
L 130.613347 101.395988 
L 130.456638 101.516803 
z
" clip-path="url(#p21290a3b7a)" style="fill: #eeeeee; stroke: #000000; stroke-width: 0.3"/>
    <path d="M 121.171581 106.171704 
L 121.189973 106.165282 
L 121.205162 106.219867 
z
" clip-path="url(#p21290a3b7a)" style="fill: #eeeeee; stroke: #000000; stroke-width: 0.3"/>
    <path d="M 118.243669 113.881159 
L 118.270053 113.934147 
L 118.245266 113.917688 
z
" clip-path="url(#p21290a3b7a)" style="fill: #eeeeee; stroke: #000000; stroke-width: 0.3"/>
    <path d="M 92.529669 127.217278 
L 92.557252 127.198812 
L 92.571242 127.226911 
z
" clip-path="url(#p21290a3b7a)" style="fill: #eeeeee; stroke: #000000; stroke-width: 0.3"/>
    <path d="M 87.481376 127.47818 
L 87.517354 127.375022 
L 87.584516 127.455704 
z
" clip-path="url(#p21290a3b7a)" style="fill: #eeeeee; stroke: #000000; stroke-width: 0.3"/>
    <path d="M 86.673438 125.383737 
L 87.223123 125.439126 
L 86.988857 125.534659 
z
" clip-path="url(#p21290a3b7a)" style="fill: #eeeeee; stroke: #000000; stroke-width: 0.3"/>
   </g>
   <g id="PatchCollection_2">
    <defs>
     <path id="m17ccb50be0" d="M 60.463745 -24.321602 
L 60.463745 -42.633553 
L 62.246819 -44.405485 
L 65.099625 -48.693613 
L 65.811432 -49.206563 
L 69.560855 -49.836752 
L 70.973805 -51.540255 
L 74.967687 -53.007606 
L 79.925455 -52.841295 
L 87.418974 -60.865128 
L 94.847493 -68.057713 
L 99.563086 -75.232497 
L 99.563091 -84.100185 
L 106.09266 -85.777995 
L 107.924008 -87.578821 
L 108.693973 -87.75 
L 111.124782 -86.980514 
L 110.08636 -84.555768 
L 110.109149 -83.798548 
L 110.617854 -83.553573 
L 110.252266 -82.838632 
L 110.476137 -80.890895 
L 109.736565 -80.079889 
L 110.769568 -80.119426 
L 110.552092 -80.715089 
L 111.628177 -80.30182 
L 111.639652 -79.891309 
L 110.12954 -79.948128 
L 109.330248 -79.556167 
L 108.853473 -75.076589 
L 106.934577 -72.455327 
L 105.221962 -68.868926 
L 103.911115 -67.748648 
L 103.517742 -66.047769 
L 101.077148 -62.208289 
L 100.039743 -58.921523 
L 94.696821 -50.600152 
L 85.358995 -40.725603 
L 78.002428 -36.306322 
L 73.624949 -32.586661 
L 65.337718 -23.685479 
L 65.243773 -24.204875 
L 64.912763 -22.650302 
L 64.636123 -22.851395 
L 64.672902 -22.390604 
L 63.191753 -20.25 
L 63.131753 -20.859291 
z
" style="stroke: #dd0000; stroke-width: 0.5"/>
    </defs>
    <g clip-path="url(#p21290a3b7a)">
     <use xlink:href="#m17ccb50be0" x="0" y="108" style="fill: #ff6b6b; stroke: #dd0000; stroke-width: 0.5"/>
    </g>
   </g>
  </g>
 </g>
 <defs>
  <clipPath id="p21290a3b7a">
   <rect x="0" y="0" width="172.103398" height="108"/>
  </clipPath>
 </defs>
</svg>
