<?xml version="1.0" encoding="utf-8" standalone="no"?>
<!DOCTYPE svg PUBLIC "-//W3C//DTD SVG 1.1//EN"
  "http://www.w3.org/Graphics/SVG/1.1/DTD/svg11.dtd">
<svg xmlns:xlink="http://www.w3.org/1999/xlink" width="171.179387pt" height="108pt" viewBox="0 0 171.179387 108" xmlns="http://www.w3.org/2000/svg" version="1.1">
 <metadata>
  <rdf:RDF xmlns:dc="http://purl.org/dc/elements/1.1/" xmlns:cc="http://creativecommons.org/ns#" xmlns:rdf="http://www.w3.org/1999/02/22-rdf-syntax-ns#">
   <cc:Work>
    <dc:type rdf:resource="http://purl.org/dc/dcmitype/StillImage"/>
    <dc:date>2025-09-05T15:49:30.061382</dc:date>
    <dc:format>image/svg+xml</dc:format>
    <dc:creator>
     <cc:Agent>
      <dc:title>Matplotlib v3.10.3, https://matplotlib.org/</dc:title>
     </cc:Agent>
    </dc:creator>
   </cc:Work>
  </rdf:RDF>
 </metadata>
 <defs>
  <style type="text/css">*{stroke-linejoin: round; stroke-linecap: butt}</style>
 </defs>
 <g id="figure_1">
  <g id="patch_1">
   <path d="M 0 108 
L 171.179387 108 
L 171.179387 0 
L 0 0 
z
" style="fill: #ffffff"/>
  </g>
  <g id="axes_1">
   <g id="PatchCollection_1">
    <path d="M 105.643154 53.561977 
L 106.966169 52.031587 
L 106.808663 50.524511 
L 107.304974 49.880941 
L 109.914246 49.846318 
L 110.731155 50.486353 
L 113.096478 49.191268 
L 112.964059 43.050966 
L 114.692498 37.79343 
L 114.378197 35.455529 
L 116.378117 33.276974 
L 117.594728 34.644491 
L 118.164532 34.336746 
L 118.975841 33.145189 
L 118.88064 30.753405 
L 119.753549 28.73155 
L 119.750752 26.886174 
L 121.407667 25.48562 
L 123.915791 21.14053 
L 126.810321 20.849392 
L 126.958724 18.588867 
L 128.681446 14.712802 
L 129.596354 10.171795 
L 131.09787 9.703118 
L 133.211888 10.080813 
L 133.624193 9.096297 
L 134.793908 8.84597 
L 136.554423 11.252235 
L 138.842046 5.960076 
L 139.622558 7.02073 
L 141.130373 7.326177 
L 142.468085 9.121205 
L 145.443118 8.598296 
L 146.416125 7.521028 
L 147.213434 7.856149 
L 147.760142 8.963979 
L 149.838466 8.091284 
L 152.393493 9.05708 
L 153.831303 8.78767 
L 158.766357 11.249056 
L 161.196781 14.599915 
L 164.717121 17.115539 
L 166.307532 19.657302 
L 167.921751 20.635814 
L 169.239164 22.462286 
L 165.263125 27.668414 
L 165.052424 32.510808 
L 166.245932 32.964641 
L 170.838686 31.871833 
L 172.925401 32.493141 
L 171.052888 34.999398 
L 172.333199 37.899248 
L 173.900515 39.851679 
L 174.710076 40.119666 
L 176.280189 43.335212 
L 177.651502 43.855646 
L 180.112032 46.102216 
L 200.393339 53.019638 
L 207.16591 53.019638 
L 196.6322 63.274141 
L 186.591996 74.112677 
L 180.004931 73.822251 
L 177.021499 74.590714 
L 174.249818 75.916183 
L 172.301698 78.277583 
L 167.365947 79.032618 
L 165.557831 80.690206 
L 161.00008 80.736493 
L 158.295952 78.396473 
L 152.096688 81.251984 
L 149.766361 84.424066 
L 143.024594 82.732026 
L 140.267265 82.99295 
L 132.910185 77.810848 
L 126.31122 77.311082 
L 125.628009 76.871026 
L 124.3491 74.503268 
L 124.704702 71.333127 
L 122.43668 70.562366 
L 121.205365 70.949777 
L 121.032464 70.007658 
L 119.92645 69.251563 
L 119.085042 67.606337 
L 117.250322 61.987535 
L 116.039312 61.522919 
L 115.896511 60.585217 
L 114.386596 59.969385 
L 113.71389 58.690026 
L 112.712876 58.122245 
L 112.529477 57.030496 
L 110.562102 55.340227 
L 106.10726 54.377432 
z
" clip-path="url(#pce26901f42)" style="fill: #eeeeee; stroke: #000000; stroke-width: 0.3"/>
    <path d="M 45.684379 49.995592 
L 46.452287 49.03316 
L 45.953883 48.142798 
L 48.537262 46.933389 
L 49.362218 43.606378 
L 50.123122 42.601016 
L 50.149374 40.560434 
L 51.367739 39.545178 
L 52.049548 37.360614 
L 57.139649 36.453473 
L 57.660803 38.082619 
L 62.539505 42.872716 
L 65.618836 42.010092 
L 71.136643 42.088178 
L 72.152848 43.893195 
L 77.562641 43.940111 
L 78.036695 42.542019 
L 81.892257 40.95138 
L 82.778116 39.906793 
L 82.788614 38.924396 
L 85.481194 37.472619 
L 90.576543 41.207005 
L 93.279628 40.935476 
L 96.669059 37.857199 
L 98.552429 34.839875 
L 101.856467 31.922885 
L 101.30136 30.38189 
L 101.298556 27.677247 
L 99.496042 25.649034 
L 103.996385 25.629069 
L 103.895582 24.169867 
L 107.129269 24.20944 
L 106.275961 28.3883 
L 106.660612 34.269086 
L 108.294778 34.906653 
L 111.922916 38.128728 
L 112.304073 40.314346 
L 111.682116 42.745874 
L 112.964059 43.050966 
L 113.242781 48.712343 
L 112.287276 49.951076 
L 110.804656 50.474689 
L 109.914246 49.846318 
L 107.304974 49.880941 
L 106.808663 50.524511 
L 106.966169 52.031587 
L 105.643154 53.561977 
L 106.10726 54.377432 
L 110.562102 55.340227 
L 112.529477 57.030496 
L 112.712876 58.122245 
L 113.71389 58.690026 
L 114.386596 59.969385 
L 115.896511 60.585217 
L 116.039312 61.522919 
L 117.250322 61.987535 
L 119.085042 67.606337 
L 119.92645 69.251563 
L 121.032464 70.007658 
L 121.205365 70.949777 
L 122.43668 70.562366 
L 124.704702 71.333127 
L 124.3491 74.503268 
L 125.495007 76.110152 
L 124.266165 75.687653 
L 124.001768 76.316776 
L 123.394068 76.105489 
L 122.794924 75.008496 
L 123.12447 74.161706 
L 121.941101 74.010497 
L 122.045953 73.2998 
L 120.922505 73.632466 
L 115.067003 76.104504 
L 109.03539 82.055603 
L 106.826164 81.964622 
L 105.693552 81.127261 
L 104.062536 81.923811 
L 101.457457 82.183327 
L 100.211099 82.948434 
L 100.077048 83.679443 
L 98.465281 83.090646 
L 97.434867 81.599644 
L 95.713547 82.695987 
L 93.124574 81.813754 
L 91.790011 82.537346 
L 91.079498 83.830133 
L 90.452293 82.567559 
L 89.141883 83.048597 
L 88.950776 81.250213 
L 86.675758 80.644808 
L 84.921535 78.234297 
L 83.956229 77.823038 
L 84.016427 76.542968 
L 82.244012 75.827321 
L 81.719702 75.766908 
L 80.119137 78.015243 
L 76.963855 76.556922 
L 74.268126 78.410605 
L 72.184207 77.478906 
L 71.942351 76.583956 
L 70.306086 76.270913 
L 70.171683 75.027592 
L 68.559564 74.03777 
L 66.865552 71.728845 
L 66.84245 69.55842 
L 65.912837 68.251493 
L 63.847815 67.390818 
L 63.559415 66.794239 
L 61.178691 66.17505 
L 61.748495 65.265613 
L 60.131479 63.486659 
L 60.861586 62.203765 
L 58.919068 60.993296 
L 58.478065 59.855971 
L 53.966865 57.538917 
L 52.818153 56.406535 
L 52.647352 55.868434 
L 53.420861 55.324324 
L 52.997353 53.92554 
L 51.929145 53.706486 
L 50.174929 51.763593 
L 45.790783 50.822711 
z
" clip-path="url(#pce26901f42)" style="fill: #eeeeee; stroke: #000000; stroke-width: 0.3"/>
    <path d="M 159.758964 113.646753 
L 159.758964 88.262677 
L 162.217395 85.806419 
L 166.150731 79.862205 
L 167.132143 79.151153 
L 172.301698 78.277583 
L 174.249818 75.916183 
L 179.756423 73.882137 
L 186.591996 74.112677 
L 196.923763 62.990019 
L 207.16591 53.019638 
L 213.667582 43.073932 
L 213.667589 30.781519 
L 222.6703 28.455734 
L 225.195289 25.959425 
L 226.256886 25.722136 
L 229.608389 26.7888 
L 228.176655 30.149989 
L 228.208075 31.199649 
L 228.909458 31.539235 
L 228.405399 32.530287 
L 228.714064 35.230246 
L 227.694371 36.354465 
L 229.118635 36.299659 
L 228.818788 35.473948 
L 230.302451 36.046823 
L 230.318272 36.615875 
L 228.236189 36.537111 
L 227.134157 37.080449 
L 226.476798 43.290053 
L 223.831101 46.923653 
L 221.469816 51.895132 
L 219.662472 53.448064 
L 219.120105 55.805827 
L 215.755111 61.128124 
L 214.324778 65.684249 
L 206.958169 77.219356 
L 194.083546 90.907482 
L 183.940603 97.033501 
L 177.905109 102.189705 
L 166.479004 114.528548 
L 166.349477 113.80856 
L 165.893093 115.963513 
L 165.511673 115.684758 
L 165.562382 116.323507 
L 163.520233 119.290818 
L 163.437507 118.446217 
z
" clip-path="url(#pce26901f42)" style="fill: #eeeeee; stroke: #000000; stroke-width: 0.3"/>
    <path d="M 111.764367 106.942205 
L 113.062179 105.320484 
L 113.498285 103.565905 
L 115.113202 102.115187 
L 115.783808 100.292073 
L 117.889434 99.270274 
L 117.76133 98.199371 
L 119.073142 96.382793 
L 119.302048 94.587233 
L 118.347938 91.642867 
L 118.740642 90.755329 
L 118.415837 89.976623 
L 115.424705 85.937145 
L 115.067701 83.921292 
L 115.463209 82.616314 
L 113.517886 81.878591 
L 113.873488 81.202339 
L 113.059382 81.183257 
L 112.329972 78.842533 
L 115.067003 76.104504 
L 122.045953 73.2998 
L 121.941101 74.010497 
L 123.12447 74.161706 
L 122.794924 75.008496 
L 123.394068 76.105489 
L 124.266165 75.687653 
L 125.495007 76.110152 
L 126.31122 77.311082 
L 132.910185 77.810848 
L 140.267265 82.99295 
L 143.024594 82.732026 
L 149.766361 84.424066 
L 152.096688 81.251984 
L 158.295952 78.396473 
L 161.00008 80.736493 
L 165.89033 80.500298 
L 162.217395 85.806419 
L 159.661664 88.452407 
L 159.758964 113.646753 
L 163.437507 118.446217 
L 163.520233 119.290818 
L 161.811002 121.151995 
L 161.379428 120.837071 
L 159.983821 121.657209 
L 159.937521 120.695741 
L 159.525784 121.867532 
L 158.954754 121.117495 
L 159.755632 123.022627 
L 159.522479 123.482217 
L 158.968537 122.949183 
L 158.364983 123.276345 
L 158.656011 124.087588 
L 157.529386 125.054622 
L 156.447957 124.980617 
L 154.695184 125.941531 
L 154.224468 127.754855 
L 154.700697 128.080349 
L 153.955492 130.03222 
L 153.049342 130.756105 
L 152.893353 130.400562 
L 152.215391 132.419197 
L 151.639403 132.078121 
L 152.222557 132.955575 
L 151.676336 134.475115 
L 150.981286 134.475115 
L 151.397987 134.827321 
L 151.087669 135.372594 
L 150.823644 134.841782 
L 150.146786 135.313617 
L 150.860022 135.807701 
L 149.033389 139.341992 
L 148.385194 139.109415 
L 147.641094 139.673606 
L 138.025841 132.685612 
L 137.601635 131.808677 
L 136.861727 131.714695 
L 136.767928 131.027846 
L 137.545636 130.353714 
L 137.171835 128.518587 
L 111.836466 114.547713 
L 112.170374 108.748363 
z
" clip-path="url(#pce26901f42)" style="fill: #eeeeee; stroke: #000000; stroke-width: 0.3"/>
    <path d="M 159.687835 122.186353 
L 160.261621 121.70617 
L 160.947847 122.133489 
L 159.85319 122.71549 
z
" clip-path="url(#pce26901f42)" style="fill: #eeeeee; stroke: #000000; stroke-width: 0.3"/>
    <path d="M 171.061984 35.144256 
L 175.35697 29.073624 
L 176.756987 29.880409 
L 176.748168 30.85134 
L 179.060946 33.831997 
L 182.56904 36.487898 
L 184.18504 36.699342 
L 186.730734 36.479092 
L 192.198489 33.318161 
L 196.793736 34.583149 
L 203.283406 31.222458 
L 205.345949 31.792495 
L 208.190073 31.550461 
L 210.842381 30.301889 
L 213.667589 30.781519 
L 213.667582 43.073932 
L 207.16591 53.019638 
L 200.393339 53.019638 
L 180.376632 46.258027 
L 177.651502 43.855646 
L 176.280189 43.335212 
L 174.710076 40.119666 
L 173.900515 39.851679 
L 172.333199 37.899248 
z
" clip-path="url(#pce26901f42)" style="fill: #eeeeee; stroke: #000000; stroke-width: 0.3"/>
    <path d="M -42.52118 134.609717 
L -41.853987 132.971799 
L -40.024868 131.68643 
L -38.636047 132.981692 
L -37.160437 132.604346 
L -37.705737 132.109702 
L -36.897233 130.277398 
L -38.636752 129.373615 
L -38.021446 128.242997 
L -38.980453 127.064334 
L -39.698661 127.293282 
L -39.064452 125.69346 
L -39.458558 123.621605 
L -38.172646 124.205289 
L -36.93783 123.617366 
L -36.098522 124.204585 
L -33.409796 123.623021 
L -33.135395 122.020376 
L -33.628895 120.574601 
L -33.224995 120.853719 
L -32.237284 120.17182 
L -31.071071 120.814153 
L -29.692058 123.257693 
L -29.957362 123.913447 
L -26.639325 124.382657 
L -24.713955 122.030973 
L -23.610047 123.827238 
L -24.018851 124.557195 
L -22.364732 124.776249 
L -21.386822 123.79403 
L -21.972028 122.904372 
L -21.314716 121.195027 
L -20.283611 120.730063 
L -19.935005 119.222105 
L -20.503408 118.714737 
L -19.837705 118.281572 
L -19.671103 117.329027 
L -20.320706 114.689747 
L -19.655701 111.801733 
L -20.803017 110.731889 
L -21.892926 110.80467 
L -22.328327 109.584315 
L -24.117546 109.097445 
L -23.50854 108.055156 
L -23.846647 106.35005 
L -23.34544 105.297163 
L -22.459933 104.004731 
L -20.747716 103.445777 
L -19.804104 101.449185 
L -21.058515 99.966312 
L -21.266418 98.59403 
L -21.995828 98.178347 
L -24.364652 97.885623 
L -26.066716 98.917664 
L -28.730247 99.101391 
L -28.04564 98.547387 
L -28.869547 96.805183 
L -28.649045 94.703655 
L -27.752336 92.917632 
L -20.042107 93.115491 
L -19.167098 92.591167 
L -17.794383 93.571273 
L -17.169975 93.226081 
L -16.929873 93.975113 
L -14.761252 93.74793 
L -13.916342 94.555789 
L -12.930731 94.183919 
L -11.414517 94.48389 
L -9.334798 95.582353 
L -8.955389 96.380674 
L -8.351286 95.831969 
L -8.98899 94.162724 
L -8.84759 92.998898 
L -8.021584 92.493649 
L -6.183362 88.300835 
L -6.275766 86.111682 
L -5.374851 83.751698 
L -1.31971 83.204415 
L 0.452706 82.339138 
L 2.716528 82.959742 
L 3.048337 83.488654 
L 4.673054 83.329308 
L 5.347155 83.917758 
L 5.800762 83.251051 
L 7.314876 82.860283 
L 8.359989 83.921292 
L 8.269691 86.305302 
L 4.607952 92.924701 
L 4.600949 97.085539 
L 3.214234 100.742194 
L 3.748338 105.113436 
L 2.196424 109.031727 
L 2.421125 111.271754 
L -0.569304 114.632513 
L -2.502726 115.19358 
L -3.785137 116.369418 
L -5.947459 120.597211 
L -8.110479 122.611826 
L -7.900483 130.34594 
L -10.023604 134.476927 
L -12.586331 135.43795 
L -13.093133 136.503554 
L -14.820055 137.359293 
L -17.344976 140.61405 
L -18.418087 141.194199 
L -19.453399 140.793531 
L -20.260508 141.10092 
L -20.598609 138.863716 
L -19.792901 137.976889 
L -20.352912 136.936015 
L -23.350343 138.446803 
L -24.905055 138.13871 
L -24.921859 139.729342 
L -27.088028 141.094562 
L -28.986448 138.985964 
L -29.563256 139.226924 
L -30.628667 137.858176 
L -31.361571 137.716142 
L -32.295383 138.865125 
L -33.899103 139.180992 
L -34.340106 140.361781 
L -35.218616 140.26144 
L -36.45535 142.012764 
L -37.738139 140.4072 
L -37.831613 138.987256 
z
" clip-path="url(#pce26901f42)" style="fill: #eeeeee; stroke: #000000; stroke-width: 0.3"/>
    <path d="M -34.832068 147.54507 
L -34.766411 146.915462 
L -33.073091 146.844089 
L -32.92609 142.990812 
L -33.510598 142.255208 
L -31.922279 141.360963 
L -31.082274 140.099619 
L -29.304955 139.580949 
L -29.151648 139.003631 
L -27.088028 141.094562 
L -24.921859 139.729342 
L -24.905055 138.13871 
L -23.350343 138.446803 
L -20.352912 136.936015 
L -19.792901 137.976889 
L -20.598609 138.863716 
L -20.260508 141.10092 
L -19.453399 140.793531 
L -18.418087 141.194199 
L -17.344976 140.61405 
L -14.820055 137.359293 
L -13.093133 136.503554 
L -12.586331 135.43795 
L -10.023604 134.476927 
L -7.900483 130.34594 
L -8.110479 122.611826 
L -5.947459 120.597211 
L -3.785137 116.369418 
L -2.502726 115.19358 
L -0.569304 114.632513 
L 2.421125 111.271754 
L 2.196424 109.031727 
L 3.748338 105.113436 
L 3.214234 100.742194 
L 4.600949 97.085539 
L 4.607952 92.924701 
L 8.269691 86.305302 
L 8.496491 80.030206 
L 7.788085 78.103038 
L 9.219595 77.60557 
L 11.454721 74.127336 
L 13.660444 72.616021 
L 16.475872 72.844442 
L 19.95911 75.066987 
L 21.593627 77.507171 
L 23.566245 77.244831 
L 25.86507 78.351068 
L 29.430207 78.338706 
L 33.263451 79.464545 
L 34.666963 79.036857 
L 35.22207 77.105805 
L 35.879374 76.983024 
L 37.294088 74.713666 
L 40.78993 76.305009 
L 41.965239 75.326496 
L 46.51109 73.986895 
L 47.455399 73.261184 
L 47.439998 72.67132 
L 49.70382 74.071511 
L 53.611961 73.286796 
L 53.991363 71.38418 
L 55.21113 70.941655 
L 57.697553 72.344499 
L 59.644271 71.877593 
L 61.705094 73.18292 
L 63.309512 72.862109 
L 64.174023 73.250758 
L 65.573335 72.117316 
L 67.11895 72.605068 
L 70.114986 74.95799 
L 70.306086 76.270913 
L 71.942351 76.583956 
L 72.184207 77.478906 
L 74.431226 78.462362 
L 76.963855 76.556922 
L 80.119137 78.015243 
L 81.719702 75.766908 
L 82.809617 75.958053 
L 84.016427 76.542968 
L 83.956229 77.823038 
L 84.921535 78.234297 
L 86.675758 80.644808 
L 88.950776 81.250213 
L 89.07118 82.991186 
L 90.452293 82.567559 
L 91.079498 83.830133 
L 91.464509 83.626627 
L 91.556906 84.491897 
L 90.431297 86.802415 
L 91.173304 88.184242 
L 90.205892 90.975449 
L 91.297907 91.748507 
L 91.94961 91.246793 
L 92.540417 92.034339 
L 93.368875 91.947775 
L 94.004831 93.314587 
L 88.632629 99.224343 
L 87.011062 99.926035 
L 86.441955 101.480273 
L 85.036337 102.055123 
L 84.990139 104.285968 
L 83.382219 107.197304 
L 82.377013 114.041767 
L 82.534512 117.185584 
L 80.200691 119.033429 
L 79.504184 120.296187 
L 79.533579 122.719237 
L 77.714965 124.047003 
L 77.653365 124.911213 
L 77.884364 125.82984 
L 78.813976 126.46016 
L 78.585774 126.930074 
L 80.209441 128.522826 
L 80.076786 134.356799 
L 80.919596 135.67891 
L 81.403302 138.475772 
L 80.813192 141.332698 
L 82.768315 146.694288 
L 81.845009 148.730098 
L 82.262211 150.851413 
L 83.408823 152.950117 
L 86.008646 154.800799 
L 87.38766 156.574447 
L 90.487296 163.71711 
L 77.869667 165.692863 
L 77.896264 167.625507 
L 74.234525 171.086601 
L 75.341935 171.813727 
L 76.578154 174.641677 
L 75.707344 177.56573 
L 76.585848 180.461524 
L 75.602343 181.773032 
L 74.287727 186.549174 
L 75.286986 188.868355 
L 76.934453 189.685218 
L 78.858075 192.328744 
L 82.004607 192.836105 
L 81.832404 191.397394 
L 84.033929 190.791811 
L 83.918429 199.69081 
L 82.801916 199.455504 
L 83.152621 198.498015 
L 82.510712 198.11643 
L 79.867487 199.562204 
L 78.579469 199.282375 
L 76.642551 195.821637 
L 75.523939 195.793373 
L 74.71053 193.302485 
L 71.5675 192.253133 
L 70.876588 191.532365 
L 69.396779 191.745765 
L 67.92396 189.204713 
L 66.660446 188.433064 
L 66.294346 186.795796 
L 65.235234 186.973157 
L 64.720027 189.117089 
L 63.160412 189.827252 
L 61.10939 189.13546 
L 58.173558 189.075396 
L 55.737533 187.884714 
L 54.884923 188.210475 
L 53.864661 187.291848 
L 53.63016 184.232831 
L 49.581317 185.130256 
L 48.080505 186.056657 
L 46.746288 185.630554 
L 47.411998 184.809445 
L 47.264997 183.58626 
L 45.596879 183.1969 
L 45.52898 182.348942 
L 44.765272 182.035905 
L 43.629158 183.095855 
L 41.070629 182.634425 
L 38.079497 183.601807 
L 34.602565 183.191253 
L 32.818947 184.607347 
L 32.330337 181.891751 
L 33.37335 181.269206 
L 33.332048 178.583994 
L 32.292537 175.595638 
L 30.38922 173.719523 
L 29.800513 172.003812 
L 30.829525 165.507016 
L 29.542909 162.371677 
L 30.267415 158.765014 
L 29.752912 157.49025 
L 21.189023 157.51074 
L 21.805032 154.97816 
L 19.827511 154.995827 
L 19.656709 155.566083 
L 14.42485 155.566083 
L 14.366054 158.830733 
L 13.299241 159.478008 
L 13.298544 162.403476 
L 7.615881 161.926499 
L 7.555683 162.373092 
L 4.932757 162.543391 
L 4.782255 163.136961 
L 3.223337 162.693903 
L 1.40962 163.063476 
L -0.515404 160.705433 
L -1.459714 158.480242 
L -3.023528 156.951793 
L -2.837325 155.653707 
L -4.226139 153.558531 
L -4.646145 151.895118 
L -4.506141 150.009109 
L -5.683557 148.048199 
L -23.356642 147.632695 
L -27.427531 147.967638 
L -30.450686 147.447696 
L -31.329068 147.794761 
L -31.626219 148.57387 
L -33.475982 149.070688 
L -33.423857 148.591024 
L -33.83451 148.756421 
z
" clip-path="url(#pce26901f42)" style="fill: #eeeeee; stroke: #000000; stroke-width: 0.3"/>
    <path d="M -31.473684 148.306785 
L -30.911303 147.839093 
L -29.784082 147.814821 
z
" clip-path="url(#pce26901f42)" style="fill: #eeeeee; stroke: #000000; stroke-width: 0.3"/>
    <path d="M -20.35151 66.403471 
L -17.743986 64.49397 
L -14.684947 58.140972 
L -13.270233 57.16864 
L -12.943335 56.255667 
L -9.934701 56.495568 
L -6.916971 55.235291 
L -6.77207 54.475654 
L -5.712254 53.884908 
L -5.268454 55.186884 
L -4.129543 56.13342 
L 1.67842 53.098428 
L 8.108684 52.668792 
L 11.731228 48.380579 
L 10.008506 47.188666 
L 11.03892 46.260146 
L 20.61082 45.214678 
L 21.333226 43.960048 
L 22.187232 44.094137 
L 23.258948 43.300582 
L 26.176573 39.48776 
L 26.971783 39.505783 
L 27.912591 37.951011 
L 29.304906 37.293835 
L 29.330806 34.968659 
L 34.23786 32.496676 
L 37.041388 33.0376 
L 39.954821 36.3155 
L 42.349545 40.258172 
L 42.264144 44.261257 
L 41.194534 44.992089 
L 40.933429 46.029606 
L 41.825939 46.331163 
L 41.404531 48.136788 
L 46.229686 48.268225 
L 46.452287 49.03316 
L 45.684379 49.995592 
L 45.790783 50.822711 
L 50.174929 51.763593 
L 51.929145 53.706486 
L 52.997353 53.92554 
L 53.420861 55.324324 
L 52.647352 55.868434 
L 52.818153 56.406535 
L 53.966865 57.538917 
L 58.478065 59.855971 
L 58.919068 60.993296 
L 60.861586 62.203765 
L 60.131479 63.486659 
L 61.748495 65.265613 
L 61.178691 66.17505 
L 63.559415 66.794239 
L 63.847815 67.390818 
L 65.912837 68.251493 
L 66.84245 69.55842 
L 66.865552 71.728845 
L 68.06326 73.02393 
L 65.573335 72.117316 
L 64.174023 73.250758 
L 63.309512 72.862109 
L 61.705094 73.18292 
L 59.644271 71.877593 
L 57.697553 72.344499 
L 55.21113 70.941655 
L 53.991363 71.38418 
L 53.611961 73.286796 
L 49.70382 74.071511 
L 47.439998 72.67132 
L 47.455399 73.261184 
L 46.51109 73.986895 
L 41.965239 75.326496 
L 40.78993 76.305009 
L 37.294088 74.713666 
L 35.879374 76.983024 
L 35.22207 77.105805 
L 34.666963 79.036857 
L 33.263451 79.464545 
L 29.430207 78.338706 
L 25.86507 78.351068 
L 23.566245 77.244831 
L 21.593627 77.507171 
L 19.95911 75.066987 
L 16.475872 72.844442 
L 13.660444 72.616021 
L 11.454721 74.127336 
L 9.219595 77.60557 
L 7.788085 78.103038 
L 8.496491 80.030206 
L 8.359989 83.921292 
L 7.314876 82.860283 
L 5.800762 83.251051 
L 5.347155 83.917758 
L 4.673054 83.329308 
L 3.048337 83.488654 
L 2.716528 82.959742 
L 0.452706 82.339138 
L -2.593024 83.502438 
L -5.097653 83.567623 
L -6.275766 86.111682 
L -6.183362 88.300835 
L -8.211282 92.330065 
L -9.053394 87.593495 
L -10.010999 86.511988 
L -10.880413 86.443446 
L -15.62646 81.125142 
L -16.025463 80.166237 
L -14.915953 79.913087 
L -15.583763 79.511892 
L -16.242469 77.518828 
L -18.116385 76.09178 
L -18.511893 72.382479 
L -19.453399 71.520737 
L -18.792593 70.121072 
L -18.792593 67.59362 
z
" clip-path="url(#pce26901f42)" style="fill: #eeeeee; stroke: #000000; stroke-width: 0.3"/>
    <path d="M 29.918816 20.22137 
L 30.966028 18.138213 
L 33.021947 16.523199 
L 31.717132 13.475484 
L 32.663541 12.270143 
L 34.909869 11.018338 
L 34.115357 10.164376 
L 33.671551 8.257343 
L 35.791874 7.262934 
L 35.672175 6.111292 
L 37.697995 3.757851 
L 37.350791 1.434787 
L 38.623408 0.321309 
L 44.649765 0.205776 
L 44.628769 -29.0178 
L 51.396436 -29.063205 
L 51.40134 -42.691534 
L 93.848728 -42.68482 
L 95.03314 -44.275103 
L 95.497245 -43.90765 
L 95.115743 -42.691534 
L 106.93907 -42.69193 
L 109.511084 -40.734528 
L 112.479249 -41.132687 
L 113.055366 -42.692238 
L 132.01605 -42.694016 
L 132.044713 -40.331242 
L 134.924112 -36.280612 
L 134.510723 -35.927571 
L 134.360247 -36.760228 
L 133.515277 -37.304954 
L 134.348672 -32.912134 
L 133.990402 -31.43655 
L 134.455604 -26.151255 
L 135.745932 -21.266573 
L 136.460272 -20.269497 
L 137.374076 -20.440869 
L 137.93855 -19.673028 
L 139.072605 -19.374903 
L 140.402501 -18.200678 
L 140.092711 -17.755022 
L 140.604444 -17.079598 
L 141.650796 -17.470776 
L 141.048901 -16.863463 
L 142.228436 -16.907699 
L 143.667039 -15.469664 
L 141.157675 -12.132063 
L 140.386266 -12.268094 
L 140.095062 -11.81867 
L 139.840262 -12.285761 
L 136.163819 -10.672156 
L 135.536613 -8.742342 
L 132.624582 -8.965286 
L 132.802387 -7.458388 
L 131.967975 -5.211995 
L 132.494385 -3.60334 
L 130.575667 0.192348 
L 130.283758 2.089658 
L 128.910346 4.224052 
L 129.596354 10.171795 
L 128.681446 14.712802 
L 126.958724 18.588867 
L 126.868426 20.715132 
L 123.915791 21.14053 
L 121.407667 25.48562 
L 119.750752 26.886174 
L 119.753549 28.73155 
L 118.88064 30.753405 
L 118.975841 33.145189 
L 118.164532 34.336746 
L 117.594728 34.644491 
L 116.378117 33.276974 
L 114.378197 35.455529 
L 114.692498 37.79343 
L 112.964059 43.050966 
L 111.682116 42.745874 
L 112.304073 40.314346 
L 111.922916 38.128728 
L 108.294778 34.906653 
L 106.660612 34.269086 
L 106.275961 28.3883 
L 107.129269 24.20944 
L 103.895582 24.169867 
L 103.996385 25.629069 
L 99.496042 25.649034 
L 101.298556 27.677247 
L 101.30136 30.38189 
L 101.856467 31.922885 
L 98.552429 34.839875 
L 96.669059 37.857199 
L 93.279628 40.935476 
L 90.576543 41.207005 
L 85.481194 37.472619 
L 82.788614 38.924396 
L 82.778116 39.906793 
L 81.892257 40.95138 
L 78.036695 42.542019 
L 77.562641 43.940111 
L 72.152848 43.893195 
L 71.136643 42.088178 
L 65.618836 42.010092 
L 62.539505 42.872716 
L 57.660803 38.082619 
L 57.139649 36.453473 
L 52.049548 37.360614 
L 51.367739 39.545178 
L 50.149374 40.560434 
L 50.123122 42.601016 
L 49.362218 43.606378 
L 48.537262 46.933389 
L 45.527578 48.335707 
L 41.301635 47.987336 
L 41.825939 46.331163 
L 40.933429 46.029606 
L 41.194534 44.992089 
L 42.264144 44.261257 
L 42.349545 40.258172 
L 39.954821 36.3155 
L 37.041388 33.0376 
L 37.668593 30.76913 
L 37.405395 29.776663 
L 36.437285 29.728256 
L 34.878368 28.157055 
L 35.35717 25.149973 
L 34.312058 25.439688 
L 34.487763 24.521417 
L 33.734553 22.481368 
L 34.22806 21.469818 
L 32.597044 20.565324 
L 31.926437 21.200942 
L 30.775626 21.275139 
z
" clip-path="url(#pce26901f42)" style="fill: #eeeeee; stroke: #000000; stroke-width: 0.3"/>
    <path d="M 134.452848 -34.546298 
L 134.72458 -34.742707 
L 134.527256 -34.175727 
z
" clip-path="url(#pce26901f42)" style="fill: #eeeeee; stroke: #000000; stroke-width: 0.3"/>
    <path d="M 165.052424 32.510808 
L 165.263125 27.668414 
L 169.58777 22.090245 
L 171.262884 23.186233 
L 172.034998 22.713495 
L 172.5537 21.366653 
L 174.239164 20.807665 
L 175.672801 22.306065 
L 176.248241 24.109933 
L 175.996347 25.614732 
L 174.841065 25.936055 
L 173.81806 26.99044 
L 171.933003 27.478411 
L 171.193306 28.597618 
L 170.158177 28.559508 
L 170.758419 29.286723 
L 172.465448 28.411498 
L 174.470664 28.302166 
L 175.072559 29.149297 
L 172.583799 32.633582 
L 170.838686 31.871833 
L 166.245932 32.964641 
z
" clip-path="url(#pce26901f42)" style="fill: #eeeeee; stroke: #000000; stroke-width: 0.3"/>
    <path d="M 128.910346 4.224052 
L 130.283758 2.089658 
L 130.575667 0.192348 
L 132.494385 -3.60334 
L 131.967975 -5.211995 
L 132.802387 -7.458388 
L 132.624582 -8.965286 
L 135.536613 -8.742342 
L 136.163819 -10.672156 
L 139.840262 -12.285761 
L 140.095062 -11.81867 
L 140.386266 -12.268094 
L 141.157675 -12.132063 
L 143.651603 -15.407905 
L 146.434548 -9.668311 
L 148.342206 -1.213731 
L 149.310086 -0.415013 
L 149.448986 1.54965 
L 150.490732 1.717966 
L 151.196802 4.493311 
L 151.844997 4.596805 
L 152.138782 3.95026 
L 151.588694 2.466328 
L 152.278231 1.689865 
L 153.664464 2.80685 
L 153.303437 3.5146 
L 154.202971 5.257816 
L 155.065578 5.727976 
L 156.595676 5.01689 
L 157.827025 5.845937 
L 158.314273 7.219696 
L 161.030524 7.618641 
L 164.478197 12.382026 
L 166.464124 13.028843 
L 167.391223 14.410677 
L 168.185484 15.023282 
L 167.920911 14.247093 
L 168.622572 14.881952 
L 169.238798 17.288408 
L 170.285502 17.220523 
L 171.611659 18.583992 
L 171.960563 19.823389 
L 172.954349 20.248205 
L 173.448763 19.492329 
L 174.239164 20.807665 
L 172.5537 21.366653 
L 172.034998 22.713495 
L 171.262884 23.186233 
L 169.890874 22.11745 
L 169.239164 22.462286 
L 167.921751 20.635814 
L 166.307532 19.657302 
L 164.717121 17.115539 
L 161.196781 14.599915 
L 158.766357 11.249056 
L 153.831303 8.78767 
L 152.393493 9.05708 
L 149.838466 8.091284 
L 147.760142 8.963979 
L 147.213434 7.856149 
L 146.416125 7.521028 
L 145.443118 8.598296 
L 142.468085 9.121205 
L 141.130373 7.326177 
L 139.622558 7.02073 
L 138.842046 5.960076 
L 136.554423 11.252235 
L 134.793908 8.84597 
L 133.624193 9.096297 
L 133.211888 10.080813 
L 131.09787 9.703118 
L 129.596354 10.171795 
z
" clip-path="url(#pce26901f42)" style="fill: #eeeeee; stroke: #000000; stroke-width: 0.3"/>
    <path d="M 152.651937 0.079911 
L 153.376748 -0.595848 
L 152.79083 -0.975594 
L 154.047537 -0.375789 
L 154.232738 0.7309 
L 154.931093 0.326396 
L 155.790944 1.223322 
L 152.979892 0.989629 
L 152.698786 0.336132 
L 153.673831 0.616282 
z
" clip-path="url(#pce26901f42)" style="fill: #eeeeee; stroke: #000000; stroke-width: 0.3"/>
    <path d="M 153.055404 -1.821884 
L 153.464932 -2.433928 
L 153.898721 -1.604328 
z
" clip-path="url(#pce26901f42)" style="fill: #eeeeee; stroke: #000000; stroke-width: 0.3"/>
    <path d="M -26.703025 8.971752 
L -25.291813 8.221838 
L -24.099347 5.002409 
L -20.475408 0.011096 
L -13.04833 -7.817705 
L -11.216414 -28.389607 
L -9.629497 -31.348638 
L -12.339226 -34.190016 
L -12.514931 -35.136197 
L -12.074626 -35.548871 
L -14.951654 -39.244573 
L -15.036357 -42.678106 
L -16.337548 -49.53078 
L -9.529399 -52.601023 
L 44.628769 -25.604054 
L 44.649765 0.205776 
L 38.623408 0.321309 
L 37.350791 1.434787 
L 37.697995 3.757851 
L 35.672175 6.111292 
L 35.791874 7.262934 
L 33.671551 8.257343 
L 34.115357 10.164376 
L 34.909869 11.018338 
L 32.663541 12.270143 
L 31.717132 13.475484 
L 33.021947 16.523199 
L 30.966028 18.138213 
L 29.918816 20.22137 
L 30.775626 21.275139 
L 31.926437 21.200942 
L 32.597044 20.565324 
L 34.22806 21.469818 
L 33.734553 22.481368 
L 34.487763 24.521417 
L 34.312058 25.439688 
L 35.35717 25.149973 
L 34.878368 28.157055 
L 36.437285 29.728256 
L 37.405395 29.776663 
L 37.456491 31.8895 
L 37.041388 33.0376 
L 34.23786 32.496676 
L 29.330806 34.968659 
L 29.304906 37.293835 
L 27.912591 37.951011 
L 26.971783 39.505783 
L 26.176573 39.48776 
L 23.258948 43.300582 
L 22.187232 44.094137 
L 21.333226 43.960048 
L 20.61082 45.214678 
L 11.03892 46.260146 
L 10.008506 47.188666 
L 11.731228 48.380579 
L 8.108684 52.668792 
L 1.67842 53.098428 
L -3.972742 56.116108 
L -5.268454 55.186884 
L -5.712254 53.884908 
L -6.77207 54.475654 
L -6.916971 55.235291 
L -9.934701 56.495568 
L -12.943335 56.255667 
L -12.388926 54.415241 
L -13.216334 54.094075 
L -14.957255 49.72018 
L -20.607014 45.007992 
L -23.32934 41.798634 
L -21.743826 39.471153 
L -17.741879 39.856978 
L -11.587418 39.381587 
L -15.309355 35.625124 
L -16.057662 31.236741 
L -15.282758 28.855561 
L -15.751062 27.831294 
L -15.450057 27.132084 
L -15.866562 25.069418 
L -16.892073 24.603038 
L -17.34778 21.420707 
L -19.216798 20.404392 
L -20.142205 18.255866 
L -22.534836 18.277423 
L -25.634112 13.996629 
z
" clip-path="url(#pce26901f42)" style="fill: #eeeeee; stroke: #000000; stroke-width: 0.3"/>
    <path d="M 82.377013 114.041767 
L 83.382219 107.197304 
L 84.990139 104.285968 
L 85.036337 102.055123 
L 86.441955 101.480273 
L 87.011062 99.926035 
L 88.632629 99.224343 
L 94.004831 93.314587 
L 93.368875 91.947775 
L 92.540417 92.034339 
L 91.94961 91.246793 
L 91.297907 91.748507 
L 90.205892 90.975449 
L 91.173304 88.184242 
L 90.431297 86.802415 
L 91.556906 84.491897 
L 91.464509 83.626627 
L 91.079498 83.830133 
L 91.790011 82.537346 
L 93.62123 81.764288 
L 95.713547 82.695987 
L 97.434867 81.599644 
L 98.465281 83.090646 
L 100.077048 83.679443 
L 100.211099 82.948434 
L 101.457457 82.183327 
L 104.062536 81.923811 
L 105.693552 81.127261 
L 106.826164 81.964622 
L 109.03539 82.055603 
L 112.525976 78.938109 
L 113.059382 81.183257 
L 113.873488 81.202339 
L 113.517886 81.878591 
L 115.463209 82.616314 
L 115.067701 83.921292 
L 115.424705 85.937145 
L 118.415837 89.976623 
L 118.740642 90.755329 
L 118.347938 91.642867 
L 119.302048 94.587233 
L 119.073142 96.382793 
L 117.76133 98.199371 
L 117.889434 99.270274 
L 115.783808 100.292073 
L 115.113202 102.115187 
L 113.498285 103.565905 
L 113.062179 105.320484 
L 111.764367 106.942205 
L 112.170374 108.748363 
L 111.836466 114.547713 
L 90.656695 114.433239 
L 87.678864 114.983004 
L 86.390155 116.889503 
L 84.976491 117.763607 
L 84.208929 116.744639 
L 82.534512 117.185584 
z
" clip-path="url(#pce26901f42)" style="fill: #eeeeee; stroke: #000000; stroke-width: 0.3"/>
    <path d="M 170.801414 3.470918 
L 171.292523 3.451165 
L 171.494256 2.632142 
L 172.053156 3.705444 
L 171.355356 0.336132 
L 172.323242 -1.121929 
L 172.01623 -4.236962 
L 173.687714 -5.36745 
L 174.017416 -6.29915 
L 174.661073 -6.24474 
L 174.874578 -7.148879 
L 174.205014 -7.922641 
L 174.244217 -9.127455 
L 175.125876 -10.260193 
L 174.559919 -10.766139 
L 175.49478 -11.676287 
L 176.851395 -12.048329 
L 179.640226 -10.601494 
L 181.224339 -11.305655 
L 188.10821 -11.466771 
L 189.90303 -10.671096 
L 195.946191 -10.069752 
L 198.57052 -10.420598 
L 200.333141 -8.242747 
L 201.626754 -8.178444 
L 203.429973 -9.165613 
L 204.523383 -11.705256 
L 208.403876 -16.39307 
L 214.322787 -19.338502 
L 234.254094 -22.182178 
L 239.285398 -10.576409 
L 239.827901 -10.366188 
L 241.78381 -6.092847 
L 238.005975 -4.758592 
L 236.381624 -3.504455 
L 235.452323 -1.590421 
L 235.945633 0.923973 
L 230.117386 3.565789 
L 224.605518 4.804345 
L 222.068954 6.207599 
L 220.461142 6.238756 
L 216.602282 7.53073 
L 214.708407 8.420976 
L 214.104859 9.753015 
L 212.019715 11.67539 
L 208.58527 12.184502 
L 207.421164 11.581913 
L 203.231044 14.333336 
L 198.50682 15.868458 
L 191.497377 16.472441 
L 189.717593 18.331108 
L 187.788444 19.072244 
L 187.38497 20.437661 
L 186.848117 20.299114 
L 187.090637 19.77665 
L 186.118348 20.153894 
L 186.184486 20.65744 
L 184.350687 20.044282 
L 183.029495 21.065841 
L 179.851353 21.558817 
L 177.509912 20.476886 
L 176.612025 20.97181 
L 176.64675 19.859276 
L 174.975001 16.869711 
L 175.344847 13.873472 
L 173.16656 8.462709 
L 173.587664 8.950954 
L 172.653954 5.93162 
L 173.07396 6.42571 
L 173.017182 5.488726 
L 172.521115 4.203705 
z
" clip-path="url(#pce26901f42)" style="fill: #eeeeee; stroke: #000000; stroke-width: 0.3"/>
    <path d="M 243.250513 21.932444 
L 244.686731 20.763648 
L 246.902567 21.555016 
L 248.753562 20.85413 
L 251.604305 21.885706 
L 248.896493 23.245565 
L 246.124087 23.593779 
z
" clip-path="url(#pce26901f42)" style="fill: #eeeeee; stroke: #000000; stroke-width: 0.3"/>
    <path d="M 170.454718 2.449639 
L 170.976692 2.090198 
L 170.60795 2.459094 
L 170.518655 3.298158 
z
" clip-path="url(#pce26901f42)" style="fill: #eeeeee; stroke: #000000; stroke-width: 0.3"/>
    <path d="M 242.953728 24.86237 
L 243.114979 24.777125 
L 243.273352 24.885787 
z
" clip-path="url(#pce26901f42)" style="fill: #eeeeee; stroke: #000000; stroke-width: 0.3"/>
    <path d="M 241.072118 24.53516 
L 241.198692 24.43797 
L 241.756955 24.729217 
z
" clip-path="url(#pce26901f42)" style="fill: #eeeeee; stroke: #000000; stroke-width: 0.3"/>
    <path d="M 234.833204 24.037788 
L 235.201092 23.996245 
L 237.029995 24.629915 
z
" clip-path="url(#pce26901f42)" style="fill: #eeeeee; stroke: #000000; stroke-width: 0.3"/>
    <path d="M 176.084538 21.091993 
L 176.483047 21.183241 
L 176.393758 21.325678 
z
" clip-path="url(#pce26901f42)" style="fill: #eeeeee; stroke: #000000; stroke-width: 0.3"/>
    <path d="M 171.355356 11.883485 
L 172.099456 11.815325 
L 171.963868 12.520573 
z
" clip-path="url(#pce26901f42)" style="fill: #eeeeee; stroke: #000000; stroke-width: 0.3"/>
    <path d="M 171.332206 14.27241 
L 171.366382 14.030097 
L 172.053156 13.546583 
z
" clip-path="url(#pce26901f42)" style="fill: #eeeeee; stroke: #000000; stroke-width: 0.3"/>
   </g>
   <g id="PatchCollection_2">
    <defs>
     <path id="m86cd42f8fb" d="M 45.684379 -58.004408 
L 46.452287 -58.96684 
L 45.953883 -59.857202 
L 48.537262 -61.066611 
L 49.362218 -64.393622 
L 50.123122 -65.398984 
L 50.149374 -67.439566 
L 51.367739 -68.454822 
L 52.049548 -70.639386 
L 57.139649 -71.546527 
L 57.660803 -69.917381 
L 62.539505 -65.127284 
L 65.618836 -65.989908 
L 71.136643 -65.911822 
L 72.152848 -64.106805 
L 77.562641 -64.059889 
L 78.036695 -65.457981 
L 81.892257 -67.04862 
L 82.778116 -68.093207 
L 82.788614 -69.075604 
L 85.481194 -70.527381 
L 90.576543 -66.792995 
L 93.279628 -67.064524 
L 96.669059 -70.142801 
L 98.552429 -73.160125 
L 101.856467 -76.077115 
L 101.30136 -77.61811 
L 101.298556 -80.322753 
L 99.496042 -82.350966 
L 103.996385 -82.370931 
L 103.895582 -83.830133 
L 107.129269 -83.79056 
L 106.275961 -79.6117 
L 106.660612 -73.730914 
L 108.294778 -73.093347 
L 111.922916 -69.871272 
L 112.304073 -67.685654 
L 111.682116 -65.254126 
L 112.964059 -64.949034 
L 113.242781 -59.287657 
L 112.287276 -58.048924 
L 110.804656 -57.525311 
L 109.914246 -58.153682 
L 107.304974 -58.119059 
L 106.808663 -57.475489 
L 106.966169 -55.968413 
L 105.643154 -54.438023 
L 106.10726 -53.622568 
L 110.562102 -52.659773 
L 112.529477 -50.969504 
L 112.712876 -49.877755 
L 113.71389 -49.309974 
L 114.386596 -48.030615 
L 115.896511 -47.414783 
L 116.039312 -46.477081 
L 117.250322 -46.012465 
L 119.085042 -40.393663 
L 119.92645 -38.748437 
L 121.032464 -37.992342 
L 121.205365 -37.050223 
L 122.43668 -37.437634 
L 124.704702 -36.666873 
L 124.3491 -33.496732 
L 125.495007 -31.889848 
L 124.266165 -32.312347 
L 124.001768 -31.683224 
L 123.394068 -31.894511 
L 122.794924 -32.991504 
L 123.12447 -33.838294 
L 121.941101 -33.989503 
L 122.045953 -34.7002 
L 120.922505 -34.367534 
L 115.067003 -31.895496 
L 109.03539 -25.944397 
L 106.826164 -26.035378 
L 105.693552 -26.872739 
L 104.062536 -26.076189 
L 101.457457 -25.816673 
L 100.211099 -25.051566 
L 100.077048 -24.320557 
L 98.465281 -24.909354 
L 97.434867 -26.400356 
L 95.713547 -25.304013 
L 93.124574 -26.186246 
L 91.790011 -25.462654 
L 91.079498 -24.169867 
L 90.452293 -25.432441 
L 89.141883 -24.951403 
L 88.950776 -26.749787 
L 86.675758 -27.355192 
L 84.921535 -29.765703 
L 83.956229 -30.176962 
L 84.016427 -31.457032 
L 82.244012 -32.172679 
L 81.719702 -32.233092 
L 80.119137 -29.984757 
L 76.963855 -31.443078 
L 74.268126 -29.589395 
L 72.184207 -30.521094 
L 71.942351 -31.416044 
L 70.306086 -31.729087 
L 70.171683 -32.972408 
L 68.559564 -33.96223 
L 66.865552 -36.271155 
L 66.84245 -38.44158 
L 65.912837 -39.748507 
L 63.847815 -40.609182 
L 63.559415 -41.205761 
L 61.178691 -41.82495 
L 61.748495 -42.734387 
L 60.131479 -44.513341 
L 60.861586 -45.796235 
L 58.919068 -47.006704 
L 58.478065 -48.144029 
L 53.966865 -50.461083 
L 52.818153 -51.593465 
L 52.647352 -52.131566 
L 53.420861 -52.675676 
L 52.997353 -54.07446 
L 51.929145 -54.293514 
L 50.174929 -56.236407 
L 45.790783 -57.177289 
z
" style="stroke: #dd0000; stroke-width: 0.5"/>
    </defs>
    <g clip-path="url(#pce26901f42)">
     <use xlink:href="#m86cd42f8fb" x="0" y="108" style="fill: #ff6b6b; stroke: #dd0000; stroke-width: 0.5"/>
    </g>
   </g>
  </g>
 </g>
 <defs>
  <clipPath id="pce26901f42">
   <rect x="0" y="0" width="171.179387" height="108"/>
  </clipPath>
 </defs>
</svg>
