<?xml version="1.0" encoding="utf-8" standalone="no"?>
<!DOCTYPE svg PUBLIC "-//W3C//DTD SVG 1.1//EN"
  "http://www.w3.org/Graphics/SVG/1.1/DTD/svg11.dtd">
<svg xmlns:xlink="http://www.w3.org/1999/xlink" width="171.170463pt" height="108pt" viewBox="0 0 171.170463 108" xmlns="http://www.w3.org/2000/svg" version="1.1">
 <metadata>
  <rdf:RDF xmlns:dc="http://purl.org/dc/elements/1.1/" xmlns:cc="http://creativecommons.org/ns#" xmlns:rdf="http://www.w3.org/1999/02/22-rdf-syntax-ns#">
   <cc:Work>
    <dc:type rdf:resource="http://purl.org/dc/dcmitype/StillImage"/>
    <dc:date>2025-09-05T13:56:20.027270</dc:date>
    <dc:format>image/svg+xml</dc:format>
    <dc:creator>
     <cc:Agent>
      <dc:title>Matplotlib v3.10.3, https://matplotlib.org/</dc:title>
     </cc:Agent>
    </dc:creator>
   </cc:Work>
  </rdf:RDF>
 </metadata>
 <defs>
  <style type="text/css">*{stroke-linejoin: round; stroke-linecap: butt}</style>
 </defs>
 <g id="figure_1">
  <g id="patch_1">
   <path d="M 0 108 
L 171.170463 108 
L 171.170463 0 
L 0 0 
z
" style="fill: #ffffff"/>
  </g>
  <g id="axes_1">
   <g id="PatchCollection_1">
    <path d="M -71.732722 -143.990737 
L -70.081686 -144.659277 
L -71.479185 -145.815149 
L -70.23078 -148.05716 
L -64.491589 -148.425127 
L -64.206947 -153.029568 
L -63.067097 -151.837917 
L -62.251804 -152.896303 
L -61.523458 -152.099252 
L -54.041 -152.345 
L -52.152827 -150.98399 
L -48.944493 -150.941732 
L -47.376391 -152.622601 
L -43.407508 -153.919904 
L -41.581171 -154.198486 
L -41.521927 -152.295269 
L -39.181687 -151.774851 
L -35.102679 -154.040173 
L -36.41899 -154.7124 
L -36.697189 -156.216765 
L -35.338383 -157.450359 
L -38.021225 -163.498389 
L -40.440025 -166.433007 
L -40.447764 -169.92869 
L -45.490161 -170.346715 
L -47.790474 -173.776716 
L -46.626148 -180.693303 
L -50.894489 -181.324568 
L -54.775142 -183.272962 
L -54.397759 -188.184594 
L -44.334846 -199.329529 
L -41.930216 -199.386079 
L -39.743244 -195.928766 
L -38.233089 -195.429483 
L -25.237475 -198.67811 
L -24.815017 -200.890783 
L -21.803743 -203.635888 
L -19.253557 -208.836821 
L -12.078285 -212.365642 
L -8.308394 -218.516391 
L -6.595398 -223.431923 
L 0.557992 -226.715009 
L -0.596028 -229.034616 
L 5.229462 -235.58584 
L 9.461738 -237.980867 
L 7.561975 -239.133519 
L 8.942676 -242.700055 
L 7.350747 -245.873917 
L 8.110647 -247.330828 
L 11.577864 -249.827279 
L 17.385321 -251.380406 
L 18.187728 -252.799273 
L 14.008265 -255.373082 
L 9.841688 -255.437117 
L 9.097241 -256.905728 
L 9.791454 -259.964528 
L 8.401731 -258.974731 
L 5.565621 -259.155135 
L 5.13029 -262.015968 
L 1.280543 -264.323234 
L 3.217654 -268.305519 
L 0.82976 -271.328552 
L 4.644726 -274.191989 
L -0.073115 -275.351472 
L 1.133718 -277.417217 
L -1.554271 -279.335053 
L 0.246308 -282.751743 
L 5.599106 -284.398481 
L 23.630701 -281.058192 
L 26.466811 -283.187318 
L 34.307971 -284.065626 
L 35.616542 -286.181102 
L 38.800414 -287.077614 
L 39.165771 -288.595087 
L 48.610874 -293.481257 
L 49.642542 -292.671852 
L 51.650486 -293.43379 
L 51.113405 -290.631796 
L 54.787987 -282.526803 
L 59.380885 -281.290932 
L 62.952421 -279.061036 
L 63.264117 -277.400309 
L 60.197462 -275.665481 
L 61.079713 -268.305519 
L 64.496048 -265.808376 
L 69.24462 -265.237925 
L 67.717916 -262.015968 
L 71.211315 -259.131799 
L 69.087612 -256.234985 
L 67.554416 -256.958289 
L 64.968104 -255.450125 
L 64.499276 -254.171996 
L 62.855829 -253.864817 
L 60.712648 -255.315224 
L 60.281181 -257.431027 
L 55.894352 -256.395714 
L 56.806237 -252.396533 
L 60.377773 -249.056886 
L 59.459445 -246.620255 
L 61.303827 -244.567833 
L 59.816216 -243.34302 
L 60.384216 -240.803015 
L 62.576421 -240.319534 
L 64.435757 -242.731167 
L 65.198262 -242.44247 
L 68.565398 -237.224125 
L 70.761392 -236.151435 
L 74.157763 -236.35427 
L 78.821507 -233.581526 
L 78.263813 -231.38478 
L 83.454332 -230.130718 
L 88.525717 -227.022514 
L 86.838479 -226.864528 
L 80.620802 -221.300835 
L 80.823008 -219.374873 
L 78.68627 -217.010404 
L 79.240101 -214.31274 
L 77.675214 -213.152288 
L 76.47612 -209.715444 
L 80.131374 -207.079236 
L 82.109696 -206.261063 
L 82.949452 -207.726742 
L 87.304079 -204.731336 
L 90.599347 -203.730808 
L 92.175824 -200.799436 
L 93.420005 -201.206088 
L 99.147606 -197.309942 
L 101.28564 -198.083254 
L 105.955179 -195.123928 
L 109.416601 -195.34074 
L 110.319464 -192.831621 
L 115.063063 -192.193197 
L 116.928045 -190.768153 
L 118.231469 -192.523461 
L 124.058242 -190.945626 
L 123.802587 -192.065128 
L 127.330331 -193.062083 
L 129.476739 -191.336352 
L 133.428873 -190.510705 
L 133.848751 -186.961718 
L 136.057618 -186.738075 
L 141.912093 -183.29572 
L 145.92605 -184.730527 
L 148.657182 -181.146428 
L 150.935611 -182.257489 
L 154.338425 -181.723735 
L 159.686724 -179.239651 
L 163.770879 -181.32326 
L 164.580365 -179.116123 
L 167.00046 -178.376942 
L 168.445564 -179.395674 
L 170.570712 -178.780009 
L 174.095241 -179.869607 
L 175.4122 -178.635686 
L 177.824556 -183.384136 
L 175.333627 -187.998654 
L 176.008525 -192.830966 
L 177.707353 -196.343545 
L 176.962905 -198.283485 
L 183.325489 -200.516639 
L 185.723689 -199.323679 
L 186.373464 -197.413631 
L 184.959913 -193.293527 
L 186.83778 -190.574413 
L 184.815667 -188.5038 
L 186.03151 -187.836127 
L 186.331604 -185.918291 
L 187.01616 -186.366862 
L 189.382158 -184.358006 
L 192.437224 -184.772131 
L 198.31939 -182.782121 
L 202.226449 -183.477106 
L 204.988498 -185.304576 
L 209.577533 -183.674079 
L 216.799188 -183.768999 
L 218.339601 -184.988617 
L 219.591508 -184.0583 
L 223.385862 -184.824139 
L 224.053033 -184.126562 
L 224.233356 -185.112145 
L 226.471845 -185.19276 
L 225.414418 -188.142978 
L 226.671472 -190.282507 
L 225.254706 -192.548169 
L 222.164212 -192.391026 
L 220.63605 -193.299377 
L 221.026168 -196.449284 
L 220.136204 -197.315415 
L 224.970065 -195.723326 
L 228.550622 -197.490347 
L 229.351746 -196.495015 
L 232.730447 -197.270553 
L 234.74198 -199.007959 
L 233.527346 -199.908447 
L 234.02192 -200.859244 
L 240.616918 -203.469385 
L 240.348502 -204.619948 
L 241.979562 -206.777103 
L 243.587679 -207.638 
L 249.58898 -207.774599 
L 250.389444 -209.811345 
L 254.817048 -212.072063 
L 254.071753 -213.626876 
L 257.965291 -215.74917 
L 260.166431 -213.862861 
L 267.529342 -212.224878 
L 269.026898 -212.63372 
L 269.98463 -214.855589 
L 271.887994 -214.511864 
L 272.232141 -216.048548 
L 276.341506 -216.411546 
L 278.344839 -214.800335 
L 279.976697 -215.001862 
L 277.588802 -213.135066 
L 277.846738 -211.024824 
L 279.980772 -212.225394 
L 281.115263 -211.697654 
L 282.797354 -208.719798 
L 279.174289 -204.477989 
L 289.31449 -203.796793 
L 291.905887 -201.921215 
L 291.524641 -200.381411 
L 292.388872 -199.120831 
L 292.030817 -197.85376 
L 290.652683 -197.923645 
L 286.15639 -194.144195 
L 286.395944 -192.191902 
L 289.359565 -187.702849 
L 286.196305 -188.763839 
L 284.201247 -191.143266 
L 277.189536 -189.844328 
L 268.068131 -182.851037 
L 264.48113 -181.71854 
L 263.47137 -177.642316 
L 264.835322 -174.652432 
L 262.958751 -173.043385 
L 263.060502 -170.717274 
L 258.065758 -166.408311 
L 257.384418 -164.011976 
L 259.076815 -163.186329 
L 259.318949 -161.769412 
L 254.169641 -153.047458 
L 252.132075 -147.06379 
L 246.888742 -148.931895 
L 243.717768 -148.359469 
L 241.886272 -149.668144 
L 243.389336 -144.841695 
L 242.698985 -137.914703 
L 241.426466 -136.357034 
L 239.772713 -136.68404 
L 240.214487 -134.794472 
L 238.909766 -132.418958 
L 240.191308 -126.965785 
L 239.793313 -126.058214 
L 238.332756 -126.242204 
L 237.764769 -123.643687 
L 236.499976 -123.1613 
L 234.086323 -125.643447 
L 232.741687 -123.420044 
L 231.744787 -132.453403 
L 230.049823 -135.359425 
L 228.796632 -145.17065 
L 227.986498 -144.436665 
L 227.444257 -145.487251 
L 225.802094 -144.334927 
L 224.601704 -145.37804 
L 224.827102 -142.512325 
L 222.370942 -139.708696 
L 223.017501 -137.408589 
L 220.406788 -135.584038 
L 218.017611 -139.587131 
L 217.72523 -137.072475 
L 217.010417 -137.553894 
L 216.683268 -140.755709 
L 214.801538 -144.202303 
L 217.627355 -150.119332 
L 220.353988 -150.072193 
L 220.942587 -151.572016 
L 221.872504 -150.661527 
L 222.237001 -151.810605 
L 224.033717 -150.851366 
L 224.317062 -153.116034 
L 226.905892 -153.970616 
L 228.344553 -160.077157 
L 230.30999 -159.38933 
L 231.594098 -160.540686 
L 225.988848 -163.729178 
L 221.06237 -163.004302 
L 216.040572 -163.984022 
L 205.185558 -163.330666 
L 198.38636 -165.028758 
L 198.506144 -173.765016 
L 196.317241 -176.825766 
L 195.192843 -175.818079 
L 195.798191 -174.932625 
L 194.930097 -173.517331 
L 192.358016 -174.006209 
L 189.664868 -175.868791 
L 188.724658 -178.818367 
L 187.444412 -179.552352 
L 186.824259 -178.877533 
L 188.421984 -176.973989 
L 183.984921 -177.351052 
L 184.593484 -178.153953 
L 183.896056 -179.246797 
L 180.359937 -181.71854 
L 179.644463 -179.874803 
L 181.46437 -179.734379 
L 181.919017 -178.461458 
L 177.75887 -175.791434 
L 176.809001 -171.897892 
L 178.956693 -171.369989 
L 182.326022 -167.736498 
L 185.342443 -167.758602 
L 186.210537 -165.630773 
L 187.9918 -165.028758 
L 187.234467 -163.555605 
L 181.217077 -163.830603 
L 179.739772 -159.867163 
L 177.149671 -160.392135 
L 175.989209 -156.985208 
L 177.087848 -155.165852 
L 181.642102 -152.831941 
L 184.908396 -152.47502 
L 184.167812 -150.804227 
L 184.617312 -147.921617 
L 182.915904 -147.041032 
L 182.448372 -144.459423 
L 185.315401 -142.432364 
L 184.398356 -139.457425 
L 187.680751 -138.832665 
L 186.170609 -135.978336 
L 187.488203 -134.370597 
L 187.282133 -130.597979 
L 189.153545 -125.599881 
L 188.938254 -122.928007 
L 186.996158 -123.317563 
L 189.210048 -118.888066 
L 186.82882 -119.343153 
L 186.41809 -120.768802 
L 186.41809 -119.129687 
L 185.822786 -119.82383 
L 185.569249 -118.270715 
L 184.534814 -118.397162 
L 185.22646 -125.344698 
L 183.579487 -123.016046 
L 184.23057 -126.029103 
L 183.944582 -126.281481 
L 182.784394 -121.825363 
L 182.753962 -120.768802 
L 183.603825 -120.55789 
L 182.849296 -118.140696 
L 181.798635 -118.123284 
L 182.358448 -121.127133 
L 181.893969 -123.095907 
L 181.40413 -118.972028 
L 180.616141 -118.673065 
L 179.845386 -120.167831 
L 179.577655 -118.797977 
L 179.433646 -120.734507 
L 178.97728 -121.169101 
L 179.528967 -118.313716 
L 178.888028 -118.099746 
L 177.546308 -123.189078 
L 178.185228 -125.813083 
L 175.83037 -126.726831 
L 174.975436 -128.898315 
L 174.553552 -129.045746 
L 175.285774 -126.782109 
L 177.369848 -125.95591 
L 177.765363 -124.831766 
L 173.648932 -120.296819 
L 165.759856 -118.065955 
L 162.229607 -115.240259 
L 161.311802 -112.156047 
L 162.827951 -108.680744 
L 161.74484 -108.361312 
L 163.794444 -107.32215 
L 160.158705 -104.695075 
L 159.772325 -103.176771 
L 160.885855 -103.763413 
L 159.438671 -102.238957 
L 160.198259 -102.496958 
L 156.964141 -100.856824 
L 156.106166 -98.530739 
L 152.694567 -100.341854 
L 155.434796 -98.100749 
L 144.319715 -94.343379 
L 143.653428 -94.818432 
L 145.516416 -95.343643 
L 145.439339 -96.976605 
L 143.816704 -97.235625 
L 141.672788 -95.773632 
L 139.877742 -91.978394 
L 141.41722 -94.219499 
L 143.210234 -94.648985 
L 142.451655 -93.212077 
L 145.516416 -94.648985 
L 140.580555 -91.936413 
L 135.727839 -87.477755 
L 135.076756 -87.818158 
L 135.105157 -86.314712 
L 127.279973 -77.132714 
L 119.040008 -72.410418 
L 117.661775 -69.825312 
L 116.485361 -69.810467 
L 117.135435 -69.156771 
L 116.385978 -68.259404 
L 105.777971 -62.396584 
L 104.095493 -59.908738 
L 104.862198 -58.870091 
L 105.294226 -60.252224 
L 105.51429 -59.650234 
L 104.777008 -55.513033 
L 97.992341 -52.277301 
L 93.61122 -53.031339 
L 91.719819 -52.404766 
L 88.640864 -45.423955 
L 87.363036 -46.365858 
L 87.194689 -48.610032 
L 86.081158 -44.650983 
L 85.694765 -46.763087 
L 84.374343 -47.057949 
L 79.507433 -44.453394 
L 76.683024 -36.803526 
L 77.790474 -30.244513 
L 78.47706 -30.1662 
L 78.203236 -27.392713 
L 76.603916 -25.657358 
L 77.712387 -25.941463 
L 79.932358 -16.024386 
L 77.790474 -19.648139 
L 77.712387 -18.266006 
L 77.19416 -19.21815 
L 76.683024 -18.266006 
L 77.510567 -16.776374 
L 80.097665 -15.8918 
L 80.169669 -12.970379 
L 78.262056 -4.597711 
L 75.323048 -0.637631 
L 76.086711 -0.938632 
L 73.354583 5.006602 
L 72.931689 7.424828 
L 73.771407 9.884016 
L 72.90532 9.982295 
L 71.988525 10.953887 
L 73.941774 10.381072 
L 74.236896 23.574327 
L 70.497723 23.506757 
L 70.874994 22.940081 
L 67.126687 24.083159 
L 67.038457 26.813129 
L 62.479854 33.87789 
L 64.491935 36.071906 
L 67.811243 35.870731 
L 69.213814 37.84411 
L 63.423018 36.34372 
L 56.234723 38.58841 
L 53.376855 41.390568 
L 53.122296 42.945733 
L 53.780482 42.795232 
L 52.526992 44.14819 
L 51.795792 47.849238 
L 45.004034 51.468902 
L 42.482847 50.77783 
L 38.585471 47.793959 
L 32.953901 40.945218 
L 34.505554 39.751453 
L 32.756144 40.511631 
L 30.698427 35.753506 
L 30.060528 33.642421 
L 29.120417 27.858947 
L 29.30904 27.727896 
L 31.085842 31.303025 
L 30.629463 33.293815 
L 32.446828 33.114128 
L 31.247086 32.685157 
L 31.085842 29.241079 
L 28.448037 25.934708 
L 29.169093 24.257713 
L 28.083951 24.494214 
L 22.879337 10.009431 
L 17.757881 3.372105 
L 18.615856 2.419446 
L 16.127133 1.822576 
L 11.565477 -8.271622 
L 12.977183 -8.950403 
L 11.439724 -8.738485 
L 9.843458 -15.278035 
L 9.559489 -18.438007 
L 10.418473 -18.702663 
L 9.82216 -19.432635 
L 9.482412 -18.781493 
L 7.424708 -23.442874 
L 6.598174 -26.082755 
L 7.594065 -26.207151 
L 6.427795 -26.846002 
L 5.636766 -29.728524 
L 6.581949 -29.049742 
L 5.721955 -30.244513 
L 4.996836 -29.693198 
L 5.476531 -30.767171 
L 4.689551 -30.734411 
L 4.403551 -32.10273 
L 2.453343 -33.038997 
L 4.182465 -34.085318 
L 2.645019 -33.703436 
L 0.168471 -36.631525 
L 0.78 -37.551412 
L -0.103323 -39.956327 
L -1.454177 -40.770248 
L 0.849973 -40.340762 
L -1.28583 -41.285735 
L -0.418733 -42.401689 
L -1.661057 -41.894392 
L -2.028184 -42.831175 
L -0.765571 -43.955822 
L -2.259414 -43.528387 
L -5.639572 -49.086103 
L -5.129458 -50.601338 
L -5.639572 -49.648175 
L -7.434618 -54.924856 
L -6.491453 -54.739558 
L -7.289599 -55.76029 
L -6.583746 -55.89543 
L -8.879784 -64.648961 
L -8.106998 -64.383273 
L -9.640394 -67.801247 
L -8.709405 -68.178008 
L -9.698192 -68.680184 
L -10.668735 -74.222552 
L -12.121004 -76.197466 
L -11.958738 -76.97864 
L -10.494306 -75.715255 
L -10.318856 -76.814829 
L -12.563177 -78.782069 
L -12.149393 -80.118647 
L -11.023687 -79.292435 
L -13.058075 -82.433977 
L -12.121004 -83.779764 
L -11.271142 -82.576791 
L -11.43848 -84.343887 
L -12.496231 -84.633113 
L -10.502419 -86.153455 
L -11.356332 -85.943071 
L -11.524679 -88.012175 
L -13.437365 -84.744186 
L -14.072222 -85.308824 
L -13.884609 -89.909794 
L -10.591659 -88.699662 
L -14.158433 -90.74368 
L -14.271002 -92.021394 
L -12.716308 -92.658195 
L -14.668548 -92.707347 
L -14.540764 -95.770059 
L -15.224297 -95.352852 
L -15.58229 -96.67919 
L -11.873549 -108.095637 
L -12.451618 -109.462409 
L -13.242648 -109.056473 
L -12.600699 -110.902902 
L -14.051947 -111.421974 
L -13.081404 -111.725529 
L -13.583405 -112.757534 
L -16.008237 -112.453463 
L -14.518457 -113.62418 
L -16.636003 -115.975351 
L -14.362272 -116.818962 
L -16.398692 -116.373096 
L -13.415058 -119.222859 
L -12.585483 -119.179858 
L -9.565349 -120.655162 
L -16.814482 -119.509002 
L -16.607603 -121.806933 
L -14.518457 -123.627257 
L -16.908806 -122.58042 
L -17.41993 -123.400494 
L -16.501116 -126.149398 
L -14.348078 -125.765994 
L -12.238645 -127.116902 
L -17.863124 -126.628036 
L -18.789041 -126.891145 
L -18.722108 -128.31629 
L -19.581093 -126.982265 
L -20.676367 -127.500318 
L -21.818298 -127.198285 
L -19.852886 -126.590156 
L -19.83868 -124.69611 
L -21.515076 -123.395876 
L -22.4633 -123.790552 
L -23.315193 -122.932096 
L -21.721955 -122.769317 
L -21.560711 -121.706603 
L -22.950098 -122.428385 
L -22.369998 -121.635964 
L -23.620447 -121.912383 
L -23.720852 -121.179857 
L -21.603306 -121.109721 
L -19.948207 -119.000687 
L -22.366957 -113.701474 
L -34.381586 -108.173951 
L -39.371207 -107.580151 
L -47.91756 -113.048433 
L -61.748419 -127.414318 
L -60.141 -129.764457 
L -60.163306 -128.727861 
L -58.53864 -128.921349 
L -58.414918 -127.148127 
L -55.080383 -128.007614 
L -54.628079 -129.340092 
L -53.38067 -128.179603 
L -51.91827 -129.741423 
L -51.151578 -128.968451 
L -48.932617 -130.513878 
L -46.371889 -130.771879 
L -43.919666 -135.058034 
L -42.306153 -136.025538 
L -42.328472 -137.596051 
L -43.626576 -137.151204 
L -43.705684 -135.53871 
L -46.968202 -136.206748 
L -46.908372 -135.402035 
L -50.674924 -134.502114 
L -52.137324 -133.098481 
L -53.758951 -133.278156 
L -62.725044 -136.533853 
L -66.637636 -139.54998 
L -65.956133 -140.378746 
L -66.835393 -141.583255 
L -68.239996 -141.890911 
L -67.465191 -142.750399 
L -68.390087 -142.506211 
L -68.424569 -144.099256 
L -63.280806 -147.333453 
L -68.189288 -145.268954 
L -69.440747 -143.666185 
z
" clip-path="url(#p7f80caac87)" style="fill: #eeeeee; stroke: #000000; stroke-width: 0.3"/>
    <path d="M 232.106556 3.895781 
L 232.67549 2.950809 
L 233.262681 3.783676 
L 234.061836 -0.66015 
L 235.44311 -0.509649 
L 234.510089 -2.457439 
L 235.32547 -6.262917 
L 234.755514 -8.052017 
L 235.967418 -10.503014 
L 236.125634 -14.816808 
L 238.173195 -17.75052 
L 239.003791 -15.473574 
L 237.741166 -14.822444 
L 238.684331 -14.048957 
L 238.485551 -11.259606 
L 237.242205 -11.32154 
L 237.436922 -10.109874 
L 236.485658 -9.429042 
L 237.578913 -8.778415 
L 237.909526 -4.429283 
L 237.230043 -3.179736 
L 236.1165 -3.351221 
L 236.968393 -2.153884 
L 236.708763 -0.476386 
L 235.005 1.128434 
L 234.755514 3.62959 
L 235.06078 2.856103 
L 235.528299 3.372105 
L 234.088205 6.507508 
L 235.054686 6.334475 
L 234.499945 8.462972 
z
" clip-path="url(#p7f80caac87)" style="fill: #eeeeee; stroke: #000000; stroke-width: 0.3"/>
    <path d="M 246.11704 64.840814 
L 246.456776 62.717438 
L 248.380615 62.037637 
L 249.495168 64.699522 
L 249.281185 67.417214 
L 248.42321 68.206565 
z
" clip-path="url(#p7f80caac87)" style="fill: #eeeeee; stroke: #000000; stroke-width: 0.3"/>
    <path d="M 230.351899 20.604723 
L 230.910876 16.56024 
L 232.139941 15.998521 
L 232.856499 17.560982 
L 232.23753 20.66092 
z
" clip-path="url(#p7f80caac87)" style="fill: #eeeeee; stroke: #000000; stroke-width: 0.3"/>
    <path d="M 238.766479 0.17117 
L 239.314116 -0.293629 
L 239.314116 0.819243 
L 239.201548 0.958484 
z
" clip-path="url(#p7f80caac87)" style="fill: #eeeeee; stroke: #000000; stroke-width: 0.3"/>
    <path d="M 234.074011 -7.927633 
L 234.074011 -9.996221 
L 234.700756 -10.131374 
L 234.592238 -8.87209 
z
" clip-path="url(#p7f80caac87)" style="fill: #eeeeee; stroke: #000000; stroke-width: 0.3"/>
    <path d="M 176.681242 -122.502094 
L 177.199469 -123.010422 
L 177.275536 -122.301435 
L 176.725868 -121.806933 
z
" clip-path="url(#p7f80caac87)" style="fill: #eeeeee; stroke: #000000; stroke-width: 0.3"/>
    <path d="M 176.347588 -119.99583 
L 177.204541 -121.934915 
L 177.546308 -122.064934 
L 177.455037 -119.051361 
z
" clip-path="url(#p7f80caac87)" style="fill: #eeeeee; stroke: #000000; stroke-width: 0.3"/>
    <path d="M 253.752567 -15.877987 
L 254.11259 -15.798126 
L 253.914833 -15.765366 
z
" clip-path="url(#p7f80caac87)" style="fill: #eeeeee; stroke: #000000; stroke-width: 0.3"/>
    <path d="M 248.643286 -1.313342 
L 248.751792 -1.434656 
L 248.666603 -1.17512 
z
" clip-path="url(#p7f80caac87)" style="fill: #eeeeee; stroke: #000000; stroke-width: 0.3"/>
    <path d="M 245.727607 61.735101 
L 246.712344 59.406461 
L 247.105828 60.764527 
z
" clip-path="url(#p7f80caac87)" style="fill: #eeeeee; stroke: #000000; stroke-width: 0.3"/>
    <path d="M 245.521724 46.912455 
L 245.599823 45.264648 
L 245.855378 46.30381 
z
" clip-path="url(#p7f80caac87)" style="fill: #eeeeee; stroke: #000000; stroke-width: 0.3"/>
    <path d="M 244.391968 52.674429 
L 245.182998 52.817256 
L 245.179957 53.370106 
z
" clip-path="url(#p7f80caac87)" style="fill: #eeeeee; stroke: #000000; stroke-width: 0.3"/>
    <path d="M 243.592813 50.48298 
L 244.315901 49.569233 
L 244.063386 52.526998 
z
" clip-path="url(#p7f80caac87)" style="fill: #eeeeee; stroke: #000000; stroke-width: 0.3"/>
    <path d="M 241.8282 53.054776 
L 242.641549 52.207064 
L 243.690178 54.069369 
z
" clip-path="url(#p7f80caac87)" style="fill: #eeeeee; stroke: #000000; stroke-width: 0.3"/>
    <path d="M 238.846597 49.051696 
L 239.070724 47.947529 
L 239.323251 48.958021 
z
" clip-path="url(#p7f80caac87)" style="fill: #eeeeee; stroke: #000000; stroke-width: 0.3"/>
    <path d="M 237.909526 -18.874664 
L 238.440938 -19.035393 
L 238.684331 -18.531682 
z
" clip-path="url(#p7f80caac87)" style="fill: #eeeeee; stroke: #000000; stroke-width: 0.3"/>
    <path d="M 237.366949 2.232613 
L 238.209708 1.635215 
L 238.85471 3.372105 
z
" clip-path="url(#p7f80caac87)" style="fill: #eeeeee; stroke: #000000; stroke-width: 0.3"/>
    <path d="M 234.677427 38.198352 
L 234.923861 36.558206 
L 235.933198 38.01996 
z
" clip-path="url(#p7f80caac87)" style="fill: #eeeeee; stroke: #000000; stroke-width: 0.3"/>
    <path d="M 232.961477 9.92343 
L 233.485798 8.29199 
L 234.242359 8.966683 
z
" clip-path="url(#p7f80caac87)" style="fill: #eeeeee; stroke: #000000; stroke-width: 0.3"/>
    <path d="M 228.273072 7.159153 
L 229.11684 7.839469 
L 228.707119 8.025296 
z
" clip-path="url(#p7f80caac87)" style="fill: #eeeeee; stroke: #000000; stroke-width: 0.3"/>
    <path d="M 186.169625 -117.81359 
L 187.074245 -118.253316 
L 187.032672 -117.798229 
z
" clip-path="url(#p7f80caac87)" style="fill: #eeeeee; stroke: #000000; stroke-width: 0.3"/>
    <path d="M 183.007512 -121.520789 
L 184.074398 -122.53742 
L 183.772172 -121.033961 
z
" clip-path="url(#p7f80caac87)" style="fill: #eeeeee; stroke: #000000; stroke-width: 0.3"/>
    <path d="M 86.845819 -45.853441 
L 87.093274 -46.291117 
L 87.769717 -44.961193 
z
" clip-path="url(#p7f80caac87)" style="fill: #eeeeee; stroke: #000000; stroke-width: 0.3"/>
    <path d="M -2.825307 16.888881 
L -2.720852 16.846397 
L -2.681298 16.853052 
z
" clip-path="url(#p7f80caac87)" style="fill: #eeeeee; stroke: #000000; stroke-width: 0.3"/>
    <path d="M -3.052475 25.483722 
L -3.040299 25.442772 
L -3.011911 25.514431 
z
" clip-path="url(#p7f80caac87)" style="fill: #eeeeee; stroke: #000000; stroke-width: 0.3"/>
    <path d="M -3.327309 26.543353 
L -3.18634 26.074452 
L -3.222853 26.391833 
z
" clip-path="url(#p7f80caac87)" style="fill: #eeeeee; stroke: #000000; stroke-width: 0.3"/>
    <path d="M -10.910109 49.211405 
L -10.163693 48.543896 
L -10.38681 49.022521 
z
" clip-path="url(#p7f80caac87)" style="fill: #eeeeee; stroke: #000000; stroke-width: 0.3"/>
    <path d="M -11.155533 8.43737 
L -11.074394 8.517231 
L -11.140317 8.649302 
z
" clip-path="url(#p7f80caac87)" style="fill: #eeeeee; stroke: #000000; stroke-width: 0.3"/>
    <path d="M -14.072222 12.121535 
L -13.757834 11.447358 
L -14.009352 12.33602 
z
" clip-path="url(#p7f80caac87)" style="fill: #eeeeee; stroke: #000000; stroke-width: 0.3"/>
    <path d="M -14.456584 13.314268 
L -14.456584 13.249767 
L -14.388642 13.305562 
z
" clip-path="url(#p7f80caac87)" style="fill: #eeeeee; stroke: #000000; stroke-width: 0.3"/>
    <path d="M -14.937301 6.047816 
L -14.885571 5.973591 
L -14.883552 6.036556 
z
" clip-path="url(#p7f80caac87)" style="fill: #eeeeee; stroke: #000000; stroke-width: 0.3"/>
    <path d="M -15.853074 20.284839 
L -15.589393 20.043217 
L -15.715146 20.226478 
z
" clip-path="url(#p7f80caac87)" style="fill: #eeeeee; stroke: #000000; stroke-width: 0.3"/>
    <path d="M -16.932135 17.494972 
L -16.833761 17.459646 
L -16.928072 17.540526 
z
" clip-path="url(#p7f80caac87)" style="fill: #eeeeee; stroke: #000000; stroke-width: 0.3"/>
    <path d="M -21.44104 16.586861 
L -21.17939 16.217258 
L -21.17939 16.388755 
z
" clip-path="url(#p7f80caac87)" style="fill: #eeeeee; stroke: #000000; stroke-width: 0.3"/>
    <path d="M 72.244093 49.669046 
L 73.263312 48.021239 
L 72.682202 52.259788 
L 73.657817 52.594568 
L 73.613191 49.403371 
L 75.295669 44.342195 
L 74.970127 40.617596 
L 76.621164 39.513933 
L 77.339179 37.418209 
L 76.683024 34.918588 
L 78.47807 33.888131 
L 76.683024 32.341672 
L 79.597694 34.149202 
L 81.338992 33.551804 
L 83.683706 34.231101 
L 75.499508 31.21754 
L 74.897113 30.178881 
L 75.657724 29.589685 
L 77.547081 29.542081 
L 77.644445 30.065241 
L 81.556015 32.599157 
L 77.75092 29.79598 
L 79.097712 29.454545 
L 86.290069 36.441496 
L 86.421903 38.061161 
L 87.965443 39.619383 
L 86.931008 39.322483 
L 87.423888 40.550026 
L 88.216949 40.096474 
L 91.371971 44.234191 
L 91.597107 45.558478 
L 91.129587 45.220113 
L 90.153972 46.1185 
L 93.042273 46.359089 
L 94.073668 50.81469 
L 93.513855 50.012029 
L 93.422585 50.70719 
L 95.472176 52.433324 
L 97.371677 56.050422 
L 96.293638 55.441777 
L 95.905226 55.868696 
L 97.818921 57.173534 
L 98.092746 59.256464 
L 99.148479 59.820071 
L 99.400994 63.84874 
L 98.150544 69.906595 
L 92.53419 75.002066 
L 83.385543 78.545455 
L 78.563259 77.256493 
L 77.19416 75.874348 
L 74.316004 67.43104 
z
" clip-path="url(#p7f80caac87)" style="fill: #eeeeee; stroke: #000000; stroke-width: 0.3"/>
    <path d="M 72.460107 38.892997 
L 74.049282 38.873032 
L 74.897113 40.181455 
L 73.528002 39.228293 
z
" clip-path="url(#p7f80caac87)" style="fill: #eeeeee; stroke: #000000; stroke-width: 0.3"/>
    <path d="M 97.520759 55.696696 
L 98.532887 57.475051 
L 98.551144 58.976975 
z
" clip-path="url(#p7f80caac87)" style="fill: #eeeeee; stroke: #000000; stroke-width: 0.3"/>
    <path d="M 74.037107 31.04554 
L 74.556356 30.272052 
L 75.746963 31.989996 
z
" clip-path="url(#p7f80caac87)" style="fill: #eeeeee; stroke: #000000; stroke-width: 0.3"/>
    <path d="M 71.76947 32.857674 
L 72.523999 33.247745 
L 71.860741 33.663921 
z
" clip-path="url(#p7f80caac87)" style="fill: #eeeeee; stroke: #000000; stroke-width: 0.3"/>
   </g>
   <g id="PatchCollection_2">
    <path d="M 72.244093 49.669046 
L 73.263312 48.021239 
L 72.682202 52.259788 
L 73.657817 52.594568 
L 73.613191 49.403371 
L 75.295669 44.342195 
L 74.970127 40.617596 
L 76.621164 39.513933 
L 77.339179 37.418209 
L 76.683024 34.918588 
L 78.47807 33.888131 
L 76.683024 32.341672 
L 79.597694 34.149202 
L 81.338992 33.551804 
L 83.683706 34.231101 
L 75.499508 31.21754 
L 74.897113 30.178881 
L 75.657724 29.589685 
L 77.547081 29.542081 
L 77.644445 30.065241 
L 81.556015 32.599157 
L 77.75092 29.79598 
L 79.097712 29.454545 
L 86.290069 36.441496 
L 86.421903 38.061161 
L 87.965443 39.619383 
L 86.931008 39.322483 
L 87.423888 40.550026 
L 88.216949 40.096474 
L 91.371971 44.234191 
L 91.597107 45.558478 
L 91.129587 45.220113 
L 90.153972 46.1185 
L 93.042273 46.359089 
L 94.073668 50.81469 
L 93.513855 50.012029 
L 93.422585 50.70719 
L 95.472176 52.433324 
L 97.371677 56.050422 
L 96.293638 55.441777 
L 95.905226 55.868696 
L 97.818921 57.173534 
L 98.092746 59.256464 
L 99.148479 59.820071 
L 99.400994 63.84874 
L 98.150544 69.906595 
L 92.53419 75.002066 
L 83.385543 78.545455 
L 78.563259 77.256493 
L 77.19416 75.874348 
L 74.316004 67.43104 
z
" clip-path="url(#p7f80caac87)" style="fill: #ff6b6b; stroke: #dd0000; stroke-width: 0.5"/>
    <path d="M 72.460107 38.892997 
L 74.049282 38.873032 
L 74.897113 40.181455 
L 73.528002 39.228293 
z
" clip-path="url(#p7f80caac87)" style="fill: #ff6b6b; stroke: #dd0000; stroke-width: 0.5"/>
    <path d="M 97.520759 55.696696 
L 98.532887 57.475051 
L 98.551144 58.976975 
z
" clip-path="url(#p7f80caac87)" style="fill: #ff6b6b; stroke: #dd0000; stroke-width: 0.5"/>
    <path d="M 74.037107 31.04554 
L 74.556356 30.272052 
L 75.746963 31.989996 
z
" clip-path="url(#p7f80caac87)" style="fill: #ff6b6b; stroke: #dd0000; stroke-width: 0.5"/>
    <path d="M 71.76947 32.857674 
L 72.523999 33.247745 
L 71.860741 33.663921 
z
" clip-path="url(#p7f80caac87)" style="fill: #ff6b6b; stroke: #dd0000; stroke-width: 0.5"/>
   </g>
  </g>
 </g>
 <defs>
  <clipPath id="p7f80caac87">
   <rect x="0" y="0" width="171.170463" height="108"/>
  </clipPath>
 </defs>
</svg>
