<?xml version="1.0" encoding="utf-8" standalone="no"?>
<!DOCTYPE svg PUBLIC "-//W3C//DTD SVG 1.1//EN"
  "http://www.w3.org/Graphics/SVG/1.1/DTD/svg11.dtd">
<svg xmlns:xlink="http://www.w3.org/1999/xlink" width="172.393165pt" height="108pt" viewBox="0 0 172.393165 108" xmlns="http://www.w3.org/2000/svg" version="1.1">
 <metadata>
  <rdf:RDF xmlns:dc="http://purl.org/dc/elements/1.1/" xmlns:cc="http://creativecommons.org/ns#" xmlns:rdf="http://www.w3.org/1999/02/22-rdf-syntax-ns#">
   <cc:Work>
    <dc:type rdf:resource="http://purl.org/dc/dcmitype/StillImage"/>
    <dc:date>2025-09-05T15:49:30.096584</dc:date>
    <dc:format>image/svg+xml</dc:format>
    <dc:creator>
     <cc:Agent>
      <dc:title>Matplotlib v3.10.3, https://matplotlib.org/</dc:title>
     </cc:Agent>
    </dc:creator>
   </cc:Work>
  </rdf:RDF>
 </metadata>
 <defs>
  <style type="text/css">*{stroke-linejoin: round; stroke-linecap: butt}</style>
 </defs>
 <g id="figure_1">
  <g id="patch_1">
   <path d="M 0 108 
L 172.393165 108 
L 172.393165 0 
L 0 0 
z
" style="fill: #ffffff"/>
  </g>
  <g id="axes_1">
   <g id="PatchCollection_1">
    <path d="M 597.019591 -389.654003 
L 597.05771 -391.40018 
L 599.060102 -392.493168 
L 604.936328 -393.523962 
L 606.154872 -392.493168 
L 606.569308 -393.528028 
L 608.815005 -393.024418 
L 609.507616 -394.614103 
L 612.35347 -394.916918 
L 612.445115 -394.136505 
L 613.731387 -394.907159 
L 613.392382 -393.795071 
L 614.561466 -394.409243 
L 617.808373 -391.2884 
L 621.458754 -393.181719 
L 621.316822 -392.493168 
L 622.47901 -392.015979 
L 624.086847 -392.697618 
L 624.80501 -391.333931 
L 624.322448 -392.629332 
L 625.150503 -393.181719 
L 626.165896 -393.317474 
L 626.641552 -392.356185 
L 631.021039 -392.629332 
L 629.057164 -393.667039 
L 628.565693 -394.688074 
L 629.512142 -396.529359 
L 628.658952 -396.482619 
L 628.491079 -398.349517 
L 629.109066 -398.445444 
L 626.437582 -400.026179 
L 625.757947 -401.496372 
L 626.208061 -402.38409 
L 625.254307 -403.426262 
L 628.528381 -402.686496 
L 631.952898 -403.140519 
L 632.30447 -402.427174 
L 631.522247 -401.767891 
L 633.349869 -399.643699 
L 635.168174 -400.111537 
L 642.352964 -398.990919 
L 648.639152 -400.708637 
L 649.455039 -401.123642 
L 647.099849 -400.828548 
L 645.30344 -401.537018 
L 646.890598 -403.478286 
L 656.710388 -405.972362 
L 659.698175 -408.326607 
L 661.208288 -408.105494 
L 659.902553 -408.958249 
L 660.588666 -409.884996 
L 660.038795 -410.22561 
L 660.291836 -414.860939 
L 669.671846 -417.045996 
L 670.53538 -415.78322 
L 670.319083 -414.627429 
L 672.312117 -413.408137 
L 675.725502 -413.96461 
L 677.138648 -411.446021 
L 680.499514 -410.942202 
L 681.382212 -409.161272 
L 684.436132 -409.619151 
L 686.372521 -408.764307 
L 685.65668 -407.462424 
L 686.496116 -406.783092 
L 685.715388 -405.932375 
L 690.839587 -406.027353 
L 692.530837 -407.793828 
L 693.092179 -407.578569 
L 692.21566 -405.765633 
L 692.975789 -405.316535 
L 692.864551 -404.126152 
L 696.952579 -403.098893 
L 698.914719 -401.177044 
L 701.806925 -401.681374 
L 703.943127 -400.601462 
L 708.348405 -400.842533 
L 711.448158 -397.779858 
L 713.447371 -398.257356 
L 714.724554 -397.267777 
L 717.034828 -397.241965 
L 718.391329 -397.88052 
L 720.628464 -396.570375 
L 726.262512 -395.779024 
L 722.375334 -392.347254 
L 721.782052 -389.613666 
L 720.137162 -387.499523 
L 720.490448 -385.918369 
L 719.401748 -383.280018 
L 720.140769 -382.054303 
L 718.073062 -380.516222 
L 714.034464 -381.100056 
L 712.971515 -379.752232 
L 714.664819 -379.505996 
L 710.966124 -376.427058 
L 708.74598 -375.656614 
L 708.61208 -373.825098 
L 705.514898 -372.053468 
L 704.875275 -370.414756 
L 705.680729 -369.925131 
L 705.271823 -368.752818 
L 703.884419 -368.222147 
L 703.924591 -367.528361 
L 705.733258 -367.72555 
L 707.137136 -368.623247 
L 706.468672 -369.376399 
L 707.01662 -369.971331 
L 709.14767 -370.706153 
L 712.178419 -370.362362 
L 711.812775 -369.676568 
L 712.583209 -368.916972 
L 711.965212 -367.739495 
L 714.520624 -365.47849 
L 712.315409 -364.491498 
L 712.266995 -363.409519 
L 715.90184 -360.34064 
L 714.853311 -358.370263 
L 710.341429 -357.269194 
L 711.763335 -355.31482 
L 714.371267 -354.458418 
L 714.850212 -353.087888 
L 713.900564 -353.070847 
L 712.663543 -351.581064 
L 713.481364 -350.604911 
L 712.966363 -349.963779 
L 714.129219 -348.661376 
L 717.599259 -347.497833 
L 720.834467 -348.005269 
L 721.176422 -346.919164 
L 719.062882 -344.903106 
L 719.048342 -343.895387 
L 715.81158 -342.797924 
L 715.684955 -341.791493 
L 713.922718 -341.652512 
L 713.244458 -340.528927 
L 711.621213 -340.331329 
L 710.223475 -338.943328 
L 711.244786 -338.984034 
L 711.109521 -338.270599 
L 708.075642 -337.164665 
L 706.260148 -337.343793 
L 706.129338 -336.616064 
L 703.746094 -337.595983 
L 702.90574 -336.705038 
L 701.085134 -338.054191 
L 697.826936 -338.413906 
L 697.300673 -339.80814 
L 694.708069 -339.608395 
L 694.629459 -340.346133 
L 696.624556 -341.055003 
L 694.659466 -341.837044 
L 694.878434 -340.5453 
L 693.055276 -340.467253 
L 692.93173 -339.671357 
L 691.955533 -340.476194 
L 691.80225 -341.49643 
L 691.325378 -342.041905 
L 691.803067 -340.478232 
L 692.577956 -339.717078 
L 683.934585 -341.650884 
L 675.573813 -337.31918 
L 674.854444 -332.551753 
L 676.240982 -330.578159 
L 673.776766 -330.965154 
L 671.07098 -329.6545 
L 667.236322 -330.54961 
L 664.428566 -329.751026 
L 661.603301 -331.199773 
L 661.701155 -332.359958 
L 658.784214 -332.215423 
L 657.920053 -333.34695 
L 652.641355 -334.575272 
L 651.080915 -334.64316 
L 650.95423 -333.105369 
L 644.152174 -333.112082 
L 641.323301 -334.683936 
L 638.86935 -333.986024 
L 636.969526 -335.722812 
L 633.080285 -336.314387 
L 631.723785 -337.347849 
L 630.018642 -336.707486 
L 630.553206 -338.687932 
L 628.376831 -338.724582 
L 626.637177 -339.997038 
L 627.98703 -340.249797 
L 629.821957 -342.051654 
L 632.010889 -351.801128 
L 632.715658 -352.894116 
L 634.128445 -352.933544 
L 632.857989 -354.020838 
L 631.979666 -352.514064 
L 633.724562 -361.920076 
L 636.904559 -359.493079 
L 637.40496 -357.579441 
L 639.211904 -355.186578 
L 638.59877 -356.481978 
L 639.619434 -356.215744 
L 638.002677 -357.225811 
L 636.612592 -361.001871 
L 632.109829 -363.327257 
L 632.941931 -364.29424 
L 634.702244 -363.401647 
L 633.062367 -364.908002 
L 634.08912 -366.612713 
L 632.473569 -367.968689 
L 633.470714 -369.248647 
L 632.181602 -369.064514 
L 626.647631 -371.165131 
L 625.506541 -373.135668 
L 623.42506 -374.416035 
L 624.701197 -376.567857 
L 622.205699 -377.63768 
L 622.962379 -377.891308 
L 623.008601 -378.923331 
L 627.328891 -378.319728 
L 624.507771 -379.408241 
L 621.834255 -378.675786 
L 619.207368 -379.212321 
L 620.261696 -379.281427 
L 619.063821 -380.04273 
L 620.703698 -380.446347 
L 619.67817 -381.121084 
L 620.981872 -381.270663 
L 618.310389 -381.407237 
L 618.635602 -381.499907 
L 618.86026 -381.747852 
L 616.465326 -381.201158 
L 615.54726 -381.792564 
L 617.219576 -381.721839 
L 617.745918 -382.251871 
L 617.792149 -382.437622 
L 617.5675 -382.63476 
L 615.445878 -382.163256 
L 614.8952 -382.845305 
L 615.2415 -381.816138 
L 613.414286 -382.195781 
L 613.330345 -380.991423 
L 612.643813 -382.603464 
L 613.466597 -383.527763 
L 612.717619 -383.67043 
L 612.408621 -382.771334 
L 611.07247 -383.180235 
L 611.826311 -383.118452 
L 611.07247 -383.316809 
L 611.826311 -384.079341 
L 610.193739 -383.252588 
L 603.359703 -385.443438 
L 602.831328 -384.339472 
L 600.971666 -384.277688 
L 600.345566 -385.960454 
L 597.420633 -386.609178 
L 601.832967 -387.356257 
L 600.897461 -388.524843 
L 599.121332 -387.973675 
L 598.435218 -389.071138 
L 599.228792 -389.668237 
L 599.539416 -389.158933 
L 601.992739 -389.084553 
L 602.808626 -389.275588 
L 600.15538 -389.55402 
L 601.787962 -390.514899 
z
M 663.948595 -330.775448 
L 664.466676 -330.702146 
L 664.039234 -331.08053 
z
" clip-path="url(#pb2d3f80562)" style="fill: #eeeeee; stroke: #000000; stroke-width: 0.3"/>
    <path d="M 100.256822 70.044358 
L 102.645367 68.470945 
L 104.692475 64.782102 
L 104.284088 62.041541 
L 106.358483 58.765155 
L 106.440372 57.084887 
L 103.986421 54.560094 
L 102.336887 51.411731 
L 101.53813 44.305052 
L 103.286027 41.080031 
L 105.779711 38.975248 
L 107.046191 35.896001 
L 117.385715 39.283338 
L 122.443662 44.375547 
L 123.538531 44.022735 
L 122.927031 46.086772 
L 124.008925 44.579998 
L 126.075795 46.396899 
L 126.81099 48.789763 
L 125.858851 49.992892 
L 126.952913 49.410028 
L 127.225417 46.774914 
L 128.298391 47.204543 
L 129.817832 51.803291 
L 122.779109 61.79995 
L 122.241456 64.339706 
L 119.437826 69.577698 
L 116.544574 71.572859 
L 113.678629 71.3483 
L 114.020584 70.796471 
L 112.925187 69.811028 
L 111.054732 70.835709 
L 108.732618 69.620543 
L 105.277227 72.162057 
z
" clip-path="url(#pb2d3f80562)" style="fill: #eeeeee; stroke: #000000; stroke-width: 0.3"/>
    <path d="M 729.738353 -330.034922 
L 730.838902 -330.562106 
L 731.333623 -332.053427 
L 735.406543 -333.58011 
L 737.143746 -333.008213 
L 737.687119 -336.294489 
L 738.856612 -336.157915 
L 738.645746 -332.666779 
L 739.49488 -331.897344 
L 739.808742 -327.731892 
L 738.249966 -325.797926 
L 738.234559 -323.335567 
L 737.143746 -322.536044 
L 737.726055 -322.084468 
L 736.331914 -320.756133 
L 736.455998 -319.999704 
L 732.156805 -321.884892 
L 733.461723 -323.217693 
L 730.795103 -323.769671 
L 732.293057 -325.338219 
L 730.387971 -325.276845 
L 730.108989 -325.958074 
L 731.690467 -326.833196 
L 729.904611 -328.351347 
L 731.120326 -328.994368 
z
" clip-path="url(#pb2d3f80562)" style="fill: #eeeeee; stroke: #000000; stroke-width: 0.3"/>
    <path d="M 34.441093 -55.023871 
L 37.831139 -54.332472 
L 37.251271 -53.22486 
L 38.517671 -51.18278 
L 37.917921 -50.644618 
L 37.9386 -51.3226 
L 35.934992 -51.22993 
L 35.573274 -51.728255 
L 36.668144 -52.211947 
L 35.038003 -53.230145 
z
" clip-path="url(#pb2d3f80562)" style="fill: #eeeeee; stroke: #000000; stroke-width: 0.3"/>
    <path d="M 1194.904055 303.353992 
L 1195.522052 302.175236 
L 1198.421433 301.806172 
L 1201.173211 304.625409 
L 1200.749855 306.478891 
L 1198.388178 306.732529 
L 1196.141664 305.768393 
z
" clip-path="url(#pb2d3f80562)" style="fill: #eeeeee; stroke: #000000; stroke-width: 0.3"/>
    <path d="M 1093.423204 220.130256 
L 1093.904949 219.618925 
L 1094.999818 220.374944 
L 1094.857079 222.831619 
L 1093.968212 222.966565 
L 1093.622719 222.129253 
L 1094.359926 222.182905 
z
" clip-path="url(#pb2d3f80562)" style="fill: #eeeeee; stroke: #000000; stroke-width: 0.3"/>
    <path d="M 31.205139 -69.397286 
L 32.018993 -71.671867 
L 32.983699 -70.030966 
L 34.99826 -69.073743 
L 32.022641 -68.567696 
z
" clip-path="url(#pb2d3f80562)" style="fill: #eeeeee; stroke: #000000; stroke-width: 0.3"/>
    <path d="M 28.682065 -69.665149 
L 29.274919 -70.19559 
L 31.130525 -69.398914 
L 30.987785 -66.881274 
L 29.702729 -66.038668 
z
" clip-path="url(#pb2d3f80562)" style="fill: #eeeeee; stroke: #000000; stroke-width: 0.3"/>
    <path d="M 629.03527 -368.740152 
L 631.504 -368.292232 
L 631.770016 -367.785366 
L 629.549045 -368.299544 
z
" clip-path="url(#pb2d3f80562)" style="fill: #eeeeee; stroke: #000000; stroke-width: 0.3"/>
    <path d="M 33.319456 -65.866732 
L 33.954485 -66.639014 
L 34.694941 -65.867951 
L 33.88879 -65.285486 
z
" clip-path="url(#pb2d3f80562)" style="fill: #eeeeee; stroke: #000000; stroke-width: 0.3"/>
    <path d="M 1095.74758 221.193566 
L 1095.815706 220.579804 
L 1095.815706 221.193566 
z
" clip-path="url(#pb2d3f80562)" style="fill: #eeeeee; stroke: #000000; stroke-width: 0.3"/>
    <path d="M 738.781998 -332.735066 
L 739.036654 -332.462328 
L 738.983935 -332.452169 
z
" clip-path="url(#pb2d3f80562)" style="fill: #eeeeee; stroke: #000000; stroke-width: 0.3"/>
    <path d="M 705.990983 -336.253842 
L 706.080196 -336.346922 
L 706.848238 -336.28352 
z
" clip-path="url(#pb2d3f80562)" style="fill: #eeeeee; stroke: #000000; stroke-width: 0.3"/>
    <path d="M 630.538895 -366.7562 
L 632.10659 -366.24283 
L 632.489385 -364.36862 
z
" clip-path="url(#pb2d3f80562)" style="fill: #eeeeee; stroke: #000000; stroke-width: 0.3"/>
    <path d="M 621.662315 -376.54591 
L 622.615262 -376.457705 
L 623.187835 -375.313912 
z
" clip-path="url(#pb2d3f80562)" style="fill: #eeeeee; stroke: #000000; stroke-width: 0.3"/>
    <path d="M 620.792503 -373.443767 
L 621.636773 -373.418974 
L 621.928331 -373.191758 
z
" clip-path="url(#pb2d3f80562)" style="fill: #eeeeee; stroke: #000000; stroke-width: 0.3"/>
    <path d="M 612.031098 -380.04273 
L 613.9751 -379.230611 
L 612.415926 -379.332642 
z
" clip-path="url(#pb2d3f80562)" style="fill: #eeeeee; stroke: #000000; stroke-width: 0.3"/>
    <path d="M 593.387856 -390.781943 
L 593.796612 -391.006312 
L 593.834731 -390.670982 
z
" clip-path="url(#pb2d3f80562)" style="fill: #eeeeee; stroke: #000000; stroke-width: 0.3"/>
    <path d="M 35.715197 -69.597272 
L 36.23831 -69.987473 
L 35.944719 -69.565566 
z
" clip-path="url(#pb2d3f80562)" style="fill: #eeeeee; stroke: #000000; stroke-width: 0.3"/>
    <path d="M 30.691762 -65.176553 
L 30.848703 -65.35581 
L 30.8264 -65.165984 
z
" clip-path="url(#pb2d3f80562)" style="fill: #eeeeee; stroke: #000000; stroke-width: 0.3"/>
    <path d="M 30.266792 -65.080226 
L 30.48861 -65.148513 
L 30.374253 -65.018033 
z
" clip-path="url(#pb2d3f80562)" style="fill: #eeeeee; stroke: #000000; stroke-width: 0.3"/>
    <path d="M 65.868523 51.60841 
L 68.14583 46.823132 
L 67.337806 45.036268 
L 69.645499 43.273149 
L 73.696454 43.074922 
L 73.611476 41.627214 
L 74.648674 41.506164 
L 73.179909 40.060515 
L 74.860117 37.7709 
L 75.472045 34.481008 
L 76.924516 33.230769 
L 87.094892 35.297683 
L 87.4767 36.575892 
L 86.943781 34.530006 
L 88.007995 33.586508 
L 93.074741 33.718906 
L 94.949572 34.263632 
L 95.128636 35.137005 
L 95.570638 34.51714 
L 96.322047 34.789478 
L 97.787962 34.789478 
L 94.828727 33.764797 
L 95.976454 33.415261 
L 106.022626 34.921186 
L 106.524642 35.887011 
L 105.779711 38.212317 
L 101.53813 44.305052 
L 102.862182 52.908226 
L 106.500106 57.210841 
L 104.284088 62.041541 
L 104.692475 64.782102 
L 101.091116 69.905497 
L 99.371542 70.058813 
L 99.380811 68.849839 
L 97.615923 68.834875 
L 96.830561 67.220167 
L 93.228683 68.126115 
L 92.440739 69.006251 
L 89.204765 69.338695 
L 86.74592 68.005834 
L 84.994417 70.744337 
L 87.271724 72.800143 
L 86.917411 74.769231 
L 79.702325 73.11968 
L 75.59575 65.572933 
L 74.475638 64.850239 
L 73.417841 59.369377 
L 71.745137 59.928427 
L 70.014232 59.45894 
L 70.072941 58.153181 
L 68.222048 56.696953 
L 66.205326 53.447667 
z
" clip-path="url(#pb2d3f80562)" style="fill: #eeeeee; stroke: #000000; stroke-width: 0.3"/>
    <path d="M 32.674751 33.889992 
L 35.416842 31.481865 
L 34.515857 27.73805 
L 35.334445 26.195614 
L 37.287825 26.036874 
L 37.549436 25.202679 
L 39.614573 25.683783 
L 42.833546 23.971 
L 43.568711 22.816238 
L 42.886594 21.636174 
L 41.132778 22.103353 
L 40.33145 21.447766 
L 40.596929 20.059155 
L 39.313298 18.108397 
L 41.354486 15.232072 
L 42.859298 15.129862 
L 48.295335 10.919387 
L 46.384937 7.79369 
L 48.210526 9.678878 
L 52.237225 12.066048 
L 48.972888 9.81707 
L 49.191457 9.335816 
L 55.515355 13.231787 
L 61.64502 19.599878 
L 61.692058 23.249114 
L 59.752909 29.588346 
L 60.643411 29.178635 
L 61.926035 25.13674 
L 63.414652 24.434373 
L 66.46905 25.437287 
L 70.526084 29.078502 
L 71.22035 30.692142 
L 71.601839 29.960806 
L 72.417358 30.222086 
L 74.824031 32.496197 
L 74.881723 36.953457 
L 73.145915 40.170207 
L 74.599752 41.645285 
L 73.611476 41.627214 
L 73.596538 43.132999 
L 69.645499 43.273149 
L 68.017083 44.106835 
L 67.269311 45.372068 
L 68.14583 46.823132 
L 65.851013 51.815148 
L 68.222048 56.696953 
L 70.072941 58.153181 
L 69.965311 59.417125 
L 71.745137 59.928427 
L 73.417841 59.369377 
L 74.475638 64.850239 
L 75.59575 65.572933 
L 79.429382 73.0074 
L 81.655446 73.886767 
L 78.419989 74.566358 
L 76.380086 74.117 
L 75.450011 73.089223 
L 73.308148 73.531878 
L 70.898993 76.210745 
L 66.675002 76.722826 
L 66.254248 78.129767 
L 63.331657 77.287051 
L 61.406599 78.908721 
L 61.354069 80.623063 
L 59.57219 80.485231 
L 58.214145 81.43661 
L 56.8937 80.194602 
L 53.969555 79.42261 
L 51.270715 76.269602 
L 49.774654 75.727064 
L 50.117387 74.902158 
L 48.998301 74.680696 
L 49.168247 70.668449 
L 47.559403 69.711395 
L 46.593272 66.370478 
L 46.900726 62.887613 
L 48.370268 59.752146 
L 47.960585 57.503278 
L 49.721098 56.41949 
L 51.30136 53.929031 
L 49.200436 51.299451 
L 49.715945 49.517233 
L 44.999626 48.052743 
L 46.27063 46.078501 
L 46.778416 42.762097 
L 45.281328 40.90426 
L 39.220855 41.316458 
z
" clip-path="url(#pb2d3f80562)" style="fill: #eeeeee; stroke: #000000; stroke-width: 0.3"/>
    <path d="M 61.93617 24.522169 
L 62.070798 23.925878 
L 63.200946 23.703956 
z
" clip-path="url(#pb2d3f80562)" style="fill: #eeeeee; stroke: #000000; stroke-width: 0.3"/>
    <path d="M -93.110806 168.636472 
L -92.371784 167.689737 
L -92.756224 166.767786 
L -90.06744 166.25054 
L -91.056482 164.235252 
L -90.529134 162.08266 
L -84.4339 157.974656 
L -85.300643 153.992607 
L -82.73081 149.739028 
L -82.143209 144.548016 
L -79.42094 143.833582 
L -76.842875 141.170448 
L -72.070408 138.41801 
L -66.649568 137.826434 
L -65.668498 136.990171 
L -62.717325 137.088256 
L -61.357476 135.031672 
L -59.509155 134.394665 
L -58.89631 135.1824 
L -56.358418 134.66929 
L -55.112896 136.66496 
L -54.44778 135.841083 
L -53.432727 136.644312 
L -52.782799 136.145647 
L -47.078713 105.096606 
L -49.360146 100.608669 
L -49.274141 98.522147 
L -53.741726 94.881831 
L -53.604218 87.407097 
L -47.862281 85.961707 
L -46.058248 87.107698 
L -44.467691 86.787651 
L -44.61652 84.613373 
L -45.97611 82.908841 
L -51.590595 82.699256 
L -51.630248 76.223651 
L -48.498815 75.574008 
L -34.759508 76.087637 
L -35.924945 75.007725 
L -35.047389 73.154782 
L -32.422974 75.887861 
L -27.398164 71.923872 
L -24.333949 76.202494 
L -24.024432 81.534685 
L -21.921197 81.070103 
L -16.041493 85.831627 
L -14.539761 85.978749 
L -10.663655 83.551003 
L -9.174799 83.456544 
L -8.387115 84.66344 
L -9.06691 86.374684 
L -8.196051 86.701953 
L -6.495533 84.189048 
L -5.258262 84.053793 
L -4.597781 82.025089 
L -1.633204 80.587441 
L -0.552746 80.819732 
L 2.654896 78.223197 
L 3.213667 79.638389 
L 5.804607 77.07334 
L 6.365959 74.030014 
L 12.593279 71.811343 
L 12.98313 70.638001 
L 12.861597 69.102268 
L 6.252918 68.595352 
L 6.755292 66.161932 
L 4.509396 62.075614 
L 4.708184 57.373447 
L 0.324033 53.595039 
L -1.371593 51.221505 
L -1.158126 50.483836 
L 0.854481 52.137522 
L 5.269017 52.220633 
L 6.355655 54.49867 
L 10.003883 53.861923 
L 11.607585 54.777941 
L 13.191703 53.737257 
L 17.798858 57.712084 
L 19.192431 56.7176 
L 19.026601 53.118061 
L 21.072165 52.947454 
L 22.396217 51.495101 
L 25.13187 52.422986 
L 27.777403 51.824958 
L 29.090642 50.864028 
L 31.125642 50.77808 
L 31.62674 49.310754 
L 33.707832 48.849259 
L 33.483293 48.122688 
L 36.854713 47.98099 
L 37.666604 46.247299 
L 39.437152 45.490531 
L 40.695032 43.837883 
L 39.220855 41.316458 
L 42.119768 41.595209 
L 44.467115 40.666285 
L 46.76245 42.477153 
L 46.27063 46.078501 
L 44.999626 48.052743 
L 49.715945 49.517233 
L 49.200436 51.299451 
L 51.30136 53.929031 
L 49.721098 56.41949 
L 47.960585 57.503278 
L 48.370268 59.752146 
L 46.656614 64.739777 
L 47.456666 69.5204 
L 49.168247 70.668449 
L 48.998301 74.680696 
L 50.117387 74.902158 
L 49.774654 75.727064 
L 51.270715 76.269602 
L 53.969555 79.42261 
L 56.8937 80.194602 
L 58.214145 81.43661 
L 59.57219 80.485231 
L 61.354069 80.623063 
L 61.406599 78.908721 
L 63.331657 77.287051 
L 66.254248 78.129767 
L 66.675002 76.722826 
L 70.898993 76.210745 
L 73.308148 73.531878 
L 75.450011 73.089223 
L 76.380086 74.117 
L 78.419989 74.566358 
L 81.655446 73.886767 
L 86.917411 74.769231 
L 87.271724 72.800143 
L 84.994417 70.744337 
L 86.74592 68.005834 
L 89.204765 69.338695 
L 92.440739 69.006251 
L 93.228683 68.126115 
L 96.830561 67.220167 
L 97.615923 68.834875 
L 99.380811 68.849839 
L 99.371542 70.058813 
L 105.044217 72.197988 
L 108.732618 69.620543 
L 111.054732 70.835709 
L 112.925187 69.811028 
L 114.020584 70.796471 
L 113.678629 71.3483 
L 116.756237 71.55324 
L 120.436396 68.26188 
L 122.779109 61.79995 
L 128.480884 53.515285 
L 129.99017 52.647525 
L 130.452552 50.989284 
L 131.932558 54.029094 
L 130.837679 50.777371 
L 131.138685 48.918465 
L 134.423083 52.537314 
L 134.530644 56.837772 
L 135.48967 54.500998 
L 135.361739 59.554987 
L 136.118769 62.958907 
L 139.482305 71.588392 
L 138.353373 71.687156 
L 138.481513 72.594793 
L 140.077411 72.25228 
L 141.602303 75.147395 
L 144.611407 75.145218 
L 146.744091 76.087287 
L 147.417488 80.218976 
L 144.759469 81.083099 
L 147.372274 81.545973 
L 141.733682 86.64873 
L 138.372428 91.588912 
L 136.486814 92.079107 
L 135.474671 93.607008 
L 133.027427 94.076474 
L 133.782484 94.554482 
L 131.765482 98.144382 
L 130.503945 98.52808 
L 130.980418 98.794724 
L 129.173067 101.205878 
L 129.155636 103.546298 
L 127.024287 105.052663 
L 126.972376 106.663076 
L 125.664618 107.317484 
L 123.947287 106.731363 
L 119.263266 109.265265 
L 123.538531 108.448271 
L 123.726694 110.216395 
L 124.287508 110.165989 
L 133.461317 105.582694 
L 136.252031 103.408916 
L 136.312852 102.496814 
L 137.884603 102.400068 
L 138.01355 103.724337 
L 136.720392 104.555146 
L 138.08046 105.585941 
L 138.087765 107.629649 
L 139.727234 110.643187 
L 138.904051 110.643187 
L 138.403042 112.23548 
L 137.48384 111.781776 
L 137.838501 112.814169 
L 140.166844 111.404701 
L 141.427932 113.03726 
L 141.836688 112.621046 
L 142.108375 113.991646 
L 143.137061 112.349397 
L 146.481783 111.523583 
L 147.554348 112.149542 
L 147.372274 114.134723 
L 148.120444 114.339573 
L 147.780621 112.279612 
L 149.479705 112.347899 
L 150.310182 113.377065 
L 149.692185 112.212954 
L 152.011698 111.052898 
L 151.721355 111.508959 
L 151.690939 111.823561 
L 151.884365 112.061746 
L 152.525882 112.312127 
L 152.419636 113.173833 
L 149.60338 120.03009 
L 150.961425 119.537459 
L 153.905423 112.742985 
L 156.560453 109.262158 
L 157.648914 108.855714 
L 155.88597 111.728004 
L 159.636318 107.101086 
L 161.914612 109.887158 
L 161.37082 108.379984 
L 162.941355 107.971083 
L 161.234578 107.880031 
L 161.372285 106.08138 
L 161.839181 105.45593 
L 161.943981 106.241328 
L 162.848903 106.404563 
L 163.962019 104.405567 
L 163.275906 103.707266 
L 164.314817 103.457693 
L 164.785202 102.285451 
L 164.648143 101.09207 
L 165.805457 99.892177 
L 166.560514 101.09207 
L 168.152087 100.178051 
L 168.086044 98.927722 
L 168.887321 100.839242 
L 170.064109 100.214102 
L 170.323927 99.058382 
L 171.19913 100.921354 
L 172.231953 101.399351 
L 171.545839 99.204445 
L 172.164644 99.204445 
L 172.021904 99.414989 
L 172.016224 99.888122 
L 172.089622 100.090535 
L 173.218962 99.204445 
L 173.599326 100.035254 
L 174.174739 99.790566 
L 173.797625 100.438471 
L 174.545785 100.090535 
L 174.756242 101.262777 
L 175.376262 99.932015 
L 175.579016 101.944017 
L 176.45694 100.233611 
L 176.924086 101.618846 
L 176.517771 101.922879 
L 176.673486 102.285451 
L 177.950839 100.391322 
L 178.312955 102.285451 
L 178.585459 101.467638 
L 178.993398 102.049693 
L 178.646689 102.701664 
L 179.160065 102.08059 
L 179.251302 101.53105 
L 179.809684 101.904999 
L 179.578149 101.291716 
L 180.149905 101.944017 
L 179.945936 102.626874 
L 179.463792 102.496814 
L 178.765501 103.114641 
L 178.646689 103.457693 
L 181.853175 101.958301 
L 181.381026 103.724337 
L 182.478337 103.355263 
L 182.877765 104.343783 
L 183.156348 103.587764 
L 183.638901 104.20722 
L 183.334586 103.13415 
L 184.118613 102.348853 
L 183.502649 105.101441 
L 184.727282 104.405567 
L 184.659156 105.033154 
L 185.101567 104.003978 
L 185.612103 105.372959 
L 186.319583 103.821643 
L 186.632358 105.78267 
L 187.43542 103.905423 
L 187.114911 105.844454 
L 187.727228 105.29817 
L 187.703708 106.063948 
L 187.999333 106.532196 
L 188.889416 104.619368 
L 189.348369 106.930629 
L 190.660681 105.971278 
L 190.801797 107.424789 
L 191.938034 106.145241 
L 190.672033 108.175943 
L 191.488319 108.727112 
L 192.83015 106.397251 
L 193.127787 107.424789 
L 192.08482 108.866932 
L 192.855293 110.711474 
L 194.454211 108.09465 
L 195.45297 107.555679 
L 196.405917 108.727112 
L 195.877542 109.052283 
L 195.861726 109.273396 
L 196.405917 109.20511 
L 197.395767 107.48007 
L 196.740059 109.818871 
L 197.772882 109.614011 
L 197.704756 108.926279 
L 198.341 110.506614 
L 197.855209 110.85536 
L 198.991845 110.438327 
L 197.970363 111.394332 
L 200.086714 110.711474 
L 199.47359 111.660157 
L 200.762702 111.600001 
L 200.160112 112.279612 
L 201.181583 113.135624 
L 199.894504 113.650212 
L 201.119546 113.718499 
L 199.134176 115.913415 
L 198.558354 115.77846 
L 197.834121 116.049979 
L 199.412759 115.967068 
L 198.861672 117.277512 
L 199.429382 116.823889 
L 199.434255 117.462044 
L 199.541716 117.550649 
L 199.752173 115.975189 
L 201.445576 114.705401 
L 202.422849 116.596273 
L 202.106147 117.277512 
L 200.957343 116.927947 
L 200.551019 117.166951 
L 200.848258 118.256273 
L 199.508869 119.186265 
L 200.660912 118.637544 
L 199.208381 122.41767 
L 199.845443 123.75981 
L 198.257467 125.217397 
L 198.113512 126.249011 
L 201.731454 122.75341 
L 202.378243 118.750532 
L 203.166953 119.057014 
L 203.13005 118.066047 
L 205.703411 117.408392 
L 204.679099 119.9553 
L 203.915114 119.943923 
L 202.573293 121.35435 
L 204.187618 120.843018 
L 204.051366 121.940471 
L 204.989712 120.748719 
L 205.367644 121.203961 
L 206.811256 118.722902 
L 207.261778 119.603298 
L 208.795819 118.027838 
L 208.826224 118.857847 
L 209.587768 118.027838 
L 209.377311 118.374965 
L 210.608433 118.505845 
L 210.657095 117.61569 
L 211.498934 118.783867 
L 211.906873 117.822987 
L 211.158304 117.209225 
L 211.763744 116.635561 
L 219.001643 118.890362 
L 221.463486 120.774732 
L 223.344226 120.843018 
L 223.591995 121.593354 
L 226.5368 121.628306 
L 225.874216 120.52478 
L 227.586723 120.547665 
L 229.105686 122.010386 
L 232.524532 122.45425 
L 233.506669 123.402124 
L 232.8019 122.281096 
L 233.383392 122.003074 
L 235.121402 122.41767 
L 240.930309 121.115356 
L 246.051877 121.735621 
L 256.022917 127.205015 
L 259.266984 130.00718 
L 261.083256 130.216915 
L 265.545867 135.610711 
L 268.146803 137.199177 
L 269.755039 139.313609 
L 272.891246 140.411062 
L 273.983684 142.338525 
L 276.815756 142.611662 
L 280.346916 144.503354 
L 279.992504 144.037543 
L 285.800593 143.703431 
L 290.650066 144.664311 
L 293.514577 149.048449 
L 294.691364 153.173255 
L 294.813017 155.073887 
L 294.234763 155.375484 
L 295.357616 155.580344 
L 297.132519 162.354489 
L 296.588737 164.511196 
L 297.336897 162.936545 
L 297.795123 164.967247 
L 297.683606 168.342537 
L 296.446406 168.75875 
L 297.678574 169.427603 
L 297.429429 170.0087 
L 296.996267 169.378206 
L 296.662942 170.537443 
L 297.074927 170.374827 
L 296.813625 170.825124 
L 296.799383 171.247761 
L 297.61548 172.522624 
L 297.221324 173.881836 
L 296.446406 173.545287 
L 296.928141 174.090762 
L 296.350296 176.663693 
L 292.697882 185.1141 
L 288.800549 189.907949 
L 287.984253 190.179468 
L 287.766501 189.026734 
L 287.186214 190.523339 
L 286.715013 189.426695 
L 286.140815 189.286865 
L 287.031715 190.732255 
L 287.659847 190.625769 
L 281.705779 198.190896 
L 276.772763 200.895515 
L 274.428526 204.422003 
L 273.0648 203.391208 
L 274.320257 205.036584 
L 272.51736 207.366435 
L 271.795968 207.1567 
L 273.095215 205.65603 
L 272.82312 205.109745 
L 271.667011 207.224178 
L 271.122013 206.74699 
L 271.864493 207.533906 
L 270.905068 208.321631 
L 272.210803 207.707869 
L 269.282631 213.650386 
L 262.647702 222.495879 
L 260.532168 223.307998 
L 260.769384 220.374944 
L 259.600309 220.170094 
L 258.954737 218.862087 
L 257.802285 221.495982 
L 257.25363 219.687212 
L 256.635643 220.511518 
L 257.330277 221.656939 
L 258.621003 221.876434 
L 256.921521 223.951838 
L 257.798638 224.579425 
L 256.397202 225.607782 
L 256.32786 226.863755 
L 255.478727 226.463794 
L 254.72367 229.130204 
L 255.75731 228.107541 
L 256.074819 231.492581 
L 254.962101 230.261801 
L 254.392777 230.504061 
L 255.930455 231.768165 
L 255.132416 232.075456 
L 256.078875 233.742768 
L 255.167296 233.894794 
L 255.132416 234.536197 
L 255.478727 234.884123 
L 255.243525 234.230534 
L 256.301092 233.792364 
L 255.975062 232.441273 
L 256.573596 232.109599 
L 256.635643 233.172909 
L 255.206223 239.874701 
L 257.25363 251.654877 
L 253.796266 264.720295 
L 254.508748 269.888902 
L 253.13408 271.759456 
L 251.388765 272.569947 
L 249.303648 275.822479 
L 248.452083 279.899326 
L 248.885165 286.836057 
L 248.040078 289.091938 
L 245.641905 290.714547 
L 243.589635 295.732766 
L 242.229148 295.392151 
L 242.262254 296.296691 
L 243.32321 296.27906 
L 242.433934 298.063436 
L 240.095168 301.078972 
L 238.35077 301.700525 
L 235.373227 307.890137 
L 235.990816 313.188815 
L 229.301553 315.861738 
L 226.313766 318.394821 
L 226.047351 320.037759 
L 227.275632 320.55966 
L 226.081414 321.301055 
L 225.842973 322.85293 
L 215.699186 322.77896 
L 214.708938 322.232665 
L 215.761632 320.393817 
L 215.259208 319.696326 
L 213.31966 320.508445 
L 214.310317 322.734247 
L 210.427574 323.709761 
L 206.009161 323.945508 
L 209.995309 323.113071 
L 207.539554 321.959528 
L 204.188833 323.525229 
L 202.531925 323.028532 
L 202.79835 322.252994 
L 201.946785 322.410704 
L 199.065243 324.111351 
L 199.55509 325.880283 
L 200.500333 325.307987 
L 201.05142 325.997348 
L 196.884822 326.520067 
L 195.651269 327.08668 
L 195.378765 328.184133 
L 191.964792 329.207605 
L 191.82854 331.334234 
L 187.466493 330.59203 
L 184.659156 331.470808 
L 183.768665 332.152856 
L 184.999378 331.675668 
L 184.455595 332.841408 
L 183.247993 333.236494 
L 182.95197 333.188526 
L 183.360716 332.841408 
L 183.130387 332.276424 
L 182.273959 331.761027 
L 181.591085 332.290239 
L 182.367229 333.269818 
L 176.780539 335.755762 
L 175.995884 337.24993 
L 169.832156 340.573186 
L 167.921808 341.956792 
L 166.576329 343.512743 
L 165.669215 343.381864 
L 166.684607 343.813531 
L 167.308684 343.586724 
L 164.099896 347.585525 
L 163.969324 346.401895 
L 164.914557 345.810899 
L 162.86715 346.593749 
L 162.941355 345.297939 
L 162.521657 346.058843 
L 161.642108 345.496296 
L 161.914612 346.252315 
L 161.234578 346.395392 
L 162.056943 347.110775 
L 161.472202 347.765992 
L 158.778415 346.531965 
L 159.099163 347.97248 
L 162.583704 348.717931 
L 160.791759 351.45995 
L 160.417883 350.977068 
L 160.370845 351.551812 
L 158.515239 351.678626 
L 160.567918 351.663182 
L 160.278382 354.840115 
L 158.870458 355.248207 
L 158.245983 353.687381 
L 158.228135 356.048939 
L 160.125099 357.365886 
L 159.373291 359.620139 
L 160.423554 360.760686 
L 160.132404 364.035983 
L 161.438139 364.531052 
L 160.004662 365.456979 
L 160.683491 366.861722 
L 159.730953 367.783584 
L 160.547239 371.586475 
L 159.846117 375.281243 
L 158.597147 377.850917 
L 157.473078 376.441299 
L 157.663674 377.729787 
L 158.648242 378.260637 
L 152.801624 382.207415 
L 148.138691 387.397968 
L 143.105928 397.570978 
L 139.062198 403.394812 
L 134.772732 407.76025 
L 127.680394 412.257377 
L 125.549045 414.609994 
L 126.198673 412.445975 
L 125.450503 411.219261 
L 127.951273 411.48997 
L 131.316185 408.69268 
L 131.825097 409.070695 
L 132.075298 407.796012 
L 133.844521 407.585468 
L 134.672975 403.726486 
L 136.146593 403.576907 
L 136.525741 404.258146 
L 136.501006 401.884382 
L 139.349302 400.217879 
L 139.020023 396.587333 
L 140.197219 397.806725 
L 140.620974 397.45717 
L 140.871573 395.632956 
L 140.124629 394.820837 
L 139.554896 395.847566 
L 137.153066 396.12396 
L 136.919897 397.271819 
L 135.946271 396.713338 
L 136.055765 395.595556 
L 133.963741 394.857418 
L 133.46051 393.034833 
L 133.027427 395.203727 
L 134.415071 396.558064 
L 135.382617 396.476771 
L 133.789779 397.579109 
L 133.598386 400.770676 
L 132.527843 399.376501 
L 132.679502 401.742934 
L 131.445541 402.620902 
L 131.87092 403.759001 
L 130.071271 404.302039 
L 129.932588 405.512491 
L 126.683657 406.269329 
L 126.241247 409.404807 
L 125.489838 408.530904 
L 125.688944 409.59747 
L 124.14153 410.348614 
L 123.84429 411.560694 
L 124.986198 412.248437 
L 123.742909 413.475141 
L 125.508903 413.258903 
L 124.636649 413.945017 
L 125.450503 413.611715 
L 125.411577 414.598616 
L 123.79482 415.76111 
L 119.893421 424.296875 
L 112.576475 430.327398 
L 110.976451 429.414247 
L 111.004255 424.635163 
L 115.249882 420.155487 
L 110.760662 417.4299 
L 108.807291 413.489146 
L 103.655786 411.174968 
L 100.363944 407.542913 
L 93.987785 405.393409 
L 90.524442 401.435104 
L 87.906205 403.69508 
L 86.343961 403.770449 
L 86.343961 400.934381 
L 78.172788 393.979989 
L 75.722953 394.020256 
L 74.049223 395.89101 
L 71.149802 395.702072 
L 70.484079 394.863841 
L 73.250975 392.771026 
L 73.586243 391.113993 
L 75.366578 390.623589 
L 78.294839 387.716297 
L 80.305383 384.578762 
L 82.192073 383.669197 
L 83.605478 380.775321 
L 87.433439 377.628505 
L 87.397901 376.758169 
L 89.504236 376.979112 
L 89.809627 376.24403 
L 88.724016 375.299363 
L 92.030538 373.770343 
L 93.292533 372.132919 
L 96.127585 371.490758 
L 95.614139 370.767034 
L 97.28787 370.354067 
L 98.365757 368.251022 
L 103.52962 367.272282 
L 104.624499 365.424254 
L 105.47424 365.841347 
L 106.746281 364.531202 
L 108.08269 364.559082 
L 109.253788 362.038945 
L 108.637853 360.139282 
L 109.761574 355.598692 
L 108.048697 352.626349 
L 107.285997 349.299897 
L 105.403164 348.97984 
L 105.228584 347.95465 
L 104.248032 348.323224 
L 104.492662 348.815686 
L 102.448125 348.818783 
L 101.930552 349.898695 
L 100.407195 348.757568 
L 100.429339 346.985199 
L 102.137073 344.507397 
L 101.781724 343.386179 
L 103.775784 336.60627 
L 103.053764 334.512516 
L 103.944186 333.530689 
L 100.018381 331.071456 
L 94.774184 333.193081 
L 92.230621 332.570538 
L 90.066604 323.042837 
L 90.20746 319.426265 
L 87.842085 315.938745 
L 84.321837 315.797297 
L 82.394726 313.803695 
L 81.361645 313.959588 
L 79.991242 315.678574 
L 79.327921 315.198499 
L 77.925847 315.974877 
L 66.662645 313.79027 
L 68.343591 302.593667 
L 67.37437 302.114621 
L 67.924381 301.375404 
L 67.119446 300.995472 
L 67.91872 300.3626 
L 66.718782 299.987832 
L 66.631233 297.394394 
L 64.943072 294.717325 
L 67.923354 292.869287 
L 65.283482 290.369797 
L 68.628383 283.670412 
L 69.357618 283.523809 
L 68.694815 282.183726 
L 70.843374 275.647466 
L 71.850704 275.264437 
L 69.215476 271.551849 
L 68.511474 268.428778 
L 66.424204 268.062261 
L 62.547829 265.471919 
L 61.739286 259.940202 
L 63.110725 257.837167 
L 63.141619 256.000487 
L 44.99267 255.755799 
L 44.138553 247.899075 
L 40.79159 244.10906 
L 43.905255 243.954196 
L 43.686895 239.425992 
L 41.966554 235.91266 
L 42.735443 232.965102 
L 41.883898 231.112938 
L 36.157667 227.783379 
L 28.29343 228.543234 
L 25.572197 225.629748 
L 25.519668 224.643266 
L 22.43587 224.40684 
L 19.819697 222.793171 
L 18.791249 223.149349 
L 16.816243 221.583168 
L 15.948992 219.673187 
L 13.528516 220.165658 
L 11.855812 218.722326 
L 8.710217 217.698165 
L 7.515939 218.591207 
L 3.865398 218.119393 
L 1.849961 216.885656 
L 1.853828 215.545573 
L -0.144617 214.196191 
L -0.639009 214.59781 
L -1.166876 213.47866 
L -3.20935 213.116279 
L -3.888119 210.686994 
L -4.365001 210.062374 
L -4.744557 210.887279 
L -5.190027 210.574455 
L -4.903431 209.312838 
L -6.419314 207.923198 
L -7.094216 205.936818 
L -6.220527 202.861237 
L -7.268288 201.158773 
L -7.719169 197.8509 
L -6.073243 195.240939 
L -6.215634 191.589266 
L -7.201079 190.045791 
L -9.054553 191.548999 
L -11.093419 190.508315 
L -19.604743 192.255171 
L -23.807109 195.741662 
L -26.390326 196.360079 
L -28.992597 198.187469 
L -30.358874 200.222367 
L -33.56833 199.83728 
L -36.055237 202.954157 
L -39.268301 204.288047 
L -40.864777 204.568865 
L -41.151123 203.111089 
L -47.043693 202.515378 
L -52.626247 202.358446 
L -55.947708 203.811068 
L -58.386471 202.546355 
L -59.455081 203.272146 
L -59.42624 191.694573 
L -58.463716 190.260541 
L -59.28642 188.837856 
L -58.295574 187.490551 
L -66.016124 193.108986 
L -74.945114 193.230815 
L -74.618605 191.94854 
L -76.111059 188.505423 
L -81.100341 187.290256 
L -85.103401 187.271676 
L -82.681888 184.528528 
L -82.722579 183.039785 
L -86.454749 179.173361 
L -86.512939 177.989171 
L -88.350697 176.783304 
L -89.618362 173.333984 
L -90.78354 172.60097 
L -90.058172 171.080211 
z
" clip-path="url(#pb2d3f80562)" style="fill: #eeeeee; stroke: #000000; stroke-width: 0.3"/>
    <path d="M 138.247128 107.616643 
L 138.353373 104.13243 
L 140.673693 105.101441 
L 140.105973 104.468979 
L 141.501739 103.662554 
L 139.636396 104.219407 
L 138.353373 103.457693 
L 138.904051 98.794724 
L 139.43446 99.673502 
L 140.786017 100.053145 
L 139.448242 99.513354 
L 139.31199 96.878649 
L 140.438092 95.201578 
L 142.582825 94.337425 
L 149.70517 95.690953 
L 152.3576 95.855167 
L 152.362463 95.127597 
L 154.164134 94.683733 
L 161.925564 95.878742 
L 162.498138 96.884343 
L 161.234578 100.711619 
L 160.479521 100.090535 
L 160.924762 101.999298 
L 159.558206 103.28373 
L 159.777174 104.106408 
L 158.024165 105.29817 
L 157.003501 104.685217 
L 158.248006 105.953387 
L 157.881834 107.424789 
L 156.793453 106.226534 
L 156.316571 106.192391 
L 156.316571 107.010204 
L 157.819787 107.766223 
L 155.561923 108.584845 
L 154.24686 107.150833 
L 153.929341 109.000249 
L 154.541259 109.131129 
L 153.997467 109.476628 
L 152.3576 108.107657 
L 152.646726 109.640433 
L 151.802436 109.618806 
L 151.268809 108.243411 
L 150.922499 108.243411 
L 150.649596 110.505795 
L 149.357644 110.956162 
L 148.800887 109.068536 
L 148.47972 111.334985 
L 146.228742 110.718786 
L 145.970838 109.818871 
L 144.706869 111.052898 
L 144.014268 110.653756 
L 143.883288 109.477438 
L 143.475748 109.239253 
L 143.764068 108.896201 
L 143.67891 108.107657 
L 143.339496 109.239253 
L 143.611193 110.711474 
L 143.197165 109.818871 
L 143.413711 110.813904 
L 142.597415 110.984611 
L 143.292059 111.297595 
L 142.213813 111.572361 
L 140.233714 110.984611 
L 140.393077 110.10909 
z
" clip-path="url(#pb2d3f80562)" style="fill: #eeeeee; stroke: #000000; stroke-width: 0.3"/>
    <path d="M 127.01496 107.97433 
L 127.473584 105.831448 
L 129.469907 104.239735 
L 129.551407 101.740785 
L 130.963796 99.622287 
L 132.823866 98.596367 
L 132.483236 99.823891 
L 133.213149 98.463859 
L 134.432102 99.414989 
L 133.539179 103.522724 
L 128.903004 107.467064 
z
" clip-path="url(#pb2d3f80562)" style="fill: #eeeeee; stroke: #000000; stroke-width: 0.3"/>
    <path d="M 142.486715 91.201148 
L 145.182535 91.062946 
L 149.737509 89.422516 
L 150.932116 89.748096 
L 147.576652 93.388742 
L 146.206847 93.809431 
L 145.282293 92.973328 
L 142.812337 92.808305 
z
" clip-path="url(#pb2d3f80562)" style="fill: #eeeeee; stroke: #000000; stroke-width: 0.3"/>
    <path d="M 143.141207 89.146871 
L 143.67891 87.436466 
L 145.052362 87.57222 
L 145.59737 86.816201 
L 145.826075 88.184364 
L 143.764347 89.675814 
z
" clip-path="url(#pb2d3f80562)" style="fill: #eeeeee; stroke: #000000; stroke-width: 0.3"/>
    <path d="M 135.900449 95.282871 
L 136.811519 93.401718 
L 138.617934 92.818933 
L 139.721553 93.519622 
L 139.516368 94.826001 
L 137.049253 96.583556 
z
" clip-path="url(#pb2d3f80562)" style="fill: #eeeeee; stroke: #000000; stroke-width: 0.3"/>
    <path d="M 255.417896 227.719777 
L 256.431265 227.084878 
L 256.908137 227.673437 
L 256.851721 229.853758 
L 256.195664 228.120547 
z
" clip-path="url(#pb2d3f80562)" style="fill: #eeeeee; stroke: #000000; stroke-width: 0.3"/>
    <path d="M 296.892025 171.238761 
L 297.205738 170.173433 
L 297.508886 170.58717 
L 297.279255 171.333439 
z
" clip-path="url(#pb2d3f80562)" style="fill: #eeeeee; stroke: #000000; stroke-width: 0.3"/>
    <path d="M 258.002607 224.480241 
L 259.171283 222.761714 
L 258.893507 221.949595 
L 259.986353 223.012096 
z
" clip-path="url(#pb2d3f80562)" style="fill: #eeeeee; stroke: #000000; stroke-width: 0.3"/>
    <path d="M 208.70822 117.454932 
L 208.882591 116.149971 
L 209.760515 115.77846 
L 209.685812 117.255346 
z
" clip-path="url(#pb2d3f80562)" style="fill: #eeeeee; stroke: #000000; stroke-width: 0.3"/>
    <path d="M 202.387969 324.686094 
L 203.703441 323.722767 
L 205.040807 324.524318 
L 202.780511 325.246203 
z
" clip-path="url(#pb2d3f80562)" style="fill: #eeeeee; stroke: #000000; stroke-width: 0.3"/>
    <path d="M 200.086714 123.850863 
L 200.302851 121.25192 
L 201.254981 120.296734 
L 201.090346 122.74365 
z
" clip-path="url(#pb2d3f80562)" style="fill: #eeeeee; stroke: #000000; stroke-width: 0.3"/>
    <path d="M 168.561331 99.033648 
L 169.566548 99.067871 
L 169.736863 100.204343 
L 169.157802 100.370185 
z
" clip-path="url(#pb2d3f80562)" style="fill: #eeeeee; stroke: #000000; stroke-width: 0.3"/>
    <path d="M 163.067472 102.804914 
L 164.240602 101.467638 
L 164.171261 103.38616 
L 163.122623 103.478022 
z
" clip-path="url(#pb2d3f80562)" style="fill: #eeeeee; stroke: #000000; stroke-width: 0.3"/>
    <path d="M 161.578447 104.914461 
L 161.982738 104.065761 
L 162.805103 103.935701 
L 162.853766 105.319307 
z
" clip-path="url(#pb2d3f80562)" style="fill: #eeeeee; stroke: #000000; stroke-width: 0.3"/>
    <path d="M 160.564679 371.157246 
L 160.826629 367.74945 
L 161.852565 367.035696 
L 162.125069 368.778617 
z
" clip-path="url(#pb2d3f80562)" style="fill: #eeeeee; stroke: #000000; stroke-width: 0.3"/>
    <path d="M 159.174594 356.119663 
L 160.726065 354.674273 
L 161.308783 355.361206 
L 160.370845 357.209804 
z
" clip-path="url(#pb2d3f80562)" style="fill: #eeeeee; stroke: #000000; stroke-width: 0.3"/>
    <path d="M 151.807728 111.939807 
L 152.707956 110.487914 
L 153.347848 110.848038 
L 152.555888 112.212954 
z
" clip-path="url(#pb2d3f80562)" style="fill: #eeeeee; stroke: #000000; stroke-width: 0.3"/>
    <path d="M 147.922554 94.312232 
L 151.268809 92.427043 
L 152.754177 93.378982 
L 151.599703 94.560985 
z
" clip-path="url(#pb2d3f80562)" style="fill: #eeeeee; stroke: #000000; stroke-width: 0.3"/>
    <path d="M 143.427813 85.598487 
L 144.004711 84.699311 
L 146.095061 84.366738 
L 145.221462 85.733372 
z
" clip-path="url(#pb2d3f80562)" style="fill: #eeeeee; stroke: #000000; stroke-width: 0.3"/>
    <path d="M 141.101902 91.197892 
L 142.597415 87.089348 
L 143.092903 90.197904 
L 142.075896 91.604466 
z
" clip-path="url(#pb2d3f80562)" style="fill: #eeeeee; stroke: #000000; stroke-width: 0.3"/>
    <path d="M 141.031554 73.288729 
L 141.723726 72.195311 
L 143.122232 73.620533 
L 142.07491 74.672285 
z
" clip-path="url(#pb2d3f80562)" style="fill: #eeeeee; stroke: #000000; stroke-width: 0.3"/>
    <path d="M 140.835148 71.843129 
L 141.634134 71.436155 
L 142.114384 72.035583 
L 141.289478 72.230703 
z
" clip-path="url(#pb2d3f80562)" style="fill: #eeeeee; stroke: #000000; stroke-width: 0.3"/>
    <path d="M 139.930795 92.57012 
L 140.166804 91.449901 
L 141.366294 91.690194 
L 141.889447 93.282436 
z
" clip-path="url(#pb2d3f80562)" style="fill: #eeeeee; stroke: #000000; stroke-width: 0.3"/>
    <path d="M 135.285292 101.535924 
L 135.625513 100.035254 
L 137.871219 98.863011 
L 137.849324 100.434406 
z
" clip-path="url(#pb2d3f80562)" style="fill: #eeeeee; stroke: #000000; stroke-width: 0.3"/>
    <path d="M 132.248851 97.873672 
L 133.652311 95.474715 
L 134.638912 94.683733 
L 134.624322 96.334802 
z
" clip-path="url(#pb2d3f80562)" style="fill: #eeeeee; stroke: #000000; stroke-width: 0.3"/>
    <path d="M 356.723967 298.170741 
L 356.75803 298.178872 
L 356.750327 298.204884 
z
" clip-path="url(#pb2d3f80562)" style="fill: #eeeeee; stroke: #000000; stroke-width: 0.3"/>
    <path d="M 352.06225 298.67476 
L 352.101585 298.571521 
L 352.374896 298.74955 
z
" clip-path="url(#pb2d3f80562)" style="fill: #eeeeee; stroke: #000000; stroke-width: 0.3"/>
    <path d="M 351.444253 84.94239 
L 351.983172 84.463984 
L 352.054546 84.76517 
z
" clip-path="url(#pb2d3f80562)" style="fill: #eeeeee; stroke: #000000; stroke-width: 0.3"/>
    <path d="M 321.023436 132.024067 
L 321.28134 131.739532 
L 321.651977 131.860662 
z
" clip-path="url(#pb2d3f80562)" style="fill: #eeeeee; stroke: #000000; stroke-width: 0.3"/>
    <path d="M 224.124018 120.017893 
L 225.067238 120.037402 
L 225.128876 120.839772 
z
" clip-path="url(#pb2d3f80562)" style="fill: #eeeeee; stroke: #000000; stroke-width: 0.3"/>
    <path d="M 223.48878 120.617201 
L 224.492761 120.606832 
L 224.923761 120.979892 
z
" clip-path="url(#pb2d3f80562)" style="fill: #eeeeee; stroke: #000000; stroke-width: 0.3"/>
    <path d="M 209.91615 117.106566 
L 210.610296 116.968234 
L 210.295208 117.490823 
z
" clip-path="url(#pb2d3f80562)" style="fill: #eeeeee; stroke: #000000; stroke-width: 0.3"/>
    <path d="M 207.805331 117.333412 
L 208.469699 117.732574 
L 207.948081 118.382967 
z
" clip-path="url(#pb2d3f80562)" style="fill: #eeeeee; stroke: #000000; stroke-width: 0.3"/>
    <path d="M 195.892142 107.044337 
L 196.336167 105.872094 
L 197.22302 106.532196 
z
" clip-path="url(#pb2d3f80562)" style="fill: #eeeeee; stroke: #000000; stroke-width: 0.3"/>
    <path d="M 191.56658 331.939865 
L 193.006544 330.241656 
L 193.671978 332.704834 
z
" clip-path="url(#pb2d3f80562)" style="fill: #eeeeee; stroke: #000000; stroke-width: 0.3"/>
    <path d="M 181.925217 332.499974 
L 182.191642 332.227646 
L 183.206217 332.934079 
z
" clip-path="url(#pb2d3f80562)" style="fill: #eeeeee; stroke: #000000; stroke-width: 0.3"/>
    <path d="M 167.178511 343.381864 
L 167.858954 342.147837 
L 171.681274 339.884634 
z
" clip-path="url(#pb2d3f80562)" style="fill: #eeeeee; stroke: #000000; stroke-width: 0.3"/>
    <path d="M 166.356146 100.035254 
L 167.308684 99.966158 
L 166.560514 100.580729 
z
" clip-path="url(#pb2d3f80562)" style="fill: #eeeeee; stroke: #000000; stroke-width: 0.3"/>
    <path d="M 162.799662 347.265069 
L 163.638241 346.492667 
L 163.282184 347.900208 
z
" clip-path="url(#pb2d3f80562)" style="fill: #eeeeee; stroke: #000000; stroke-width: 0.3"/>
    <path d="M 150.980689 109.992735 
L 151.991856 110.232358 
L 151.148842 110.712133 
z
" clip-path="url(#pb2d3f80562)" style="fill: #eeeeee; stroke: #000000; stroke-width: 0.3"/>
    <path d="M 145.252017 83.701751 
L 146.985433 82.594998 
L 146.610331 83.554319 
z
" clip-path="url(#pb2d3f80562)" style="fill: #eeeeee; stroke: #000000; stroke-width: 0.3"/>
    <path d="M 144.054689 90.822624 
L 145.122392 89.903909 
L 144.600943 90.66757 
z
" clip-path="url(#pb2d3f80562)" style="fill: #eeeeee; stroke: #000000; stroke-width: 0.3"/>
    <path d="M -86.855931 1.435568 
L -82.816815 -4.734444 
L -82.112823 -10.935164 
L -77.971229 -17.806705 
L -75.656839 -18.14741 
L -72.706942 -23.212208 
L -66.593431 -25.098954 
L -66.798068 -24.176424 
L -72.601703 -22.506255 
L -71.569279 -18.767584 
L -69.272479 -16.749489 
L -70.689731 -16.752745 
L -68.772486 -13.813997 
L -69.303303 -11.145958 
L -72.686861 -7.66662 
L -74.234684 -4.873395 
L -72.984498 -3.161771 
L -72.465451 -2.027318 
L -72.874207 -2.71547 
L -72.947605 -1.208706 
L -72.187277 -1.618017 
L -71.444378 -1.010348 
L -72.006009 -0.96238 
L -72.051025 -0.464464 
L -70.349509 -0.464464 
L -71.166613 1.047994 
L -70.450891 1.00491 
L -70.090798 2.612067 
L -68.587173 2.96326 
L -65.431512 1.822713 
L -63.651327 0.115564 
L -63.384503 -4.054364 
L -67.706817 -10.624468 
L -68.840612 -14.694403 
L -67.473239 -14.564332 
L -67.139914 -15.791856 
L -68.023519 -16.200757 
L -55.366375 -20.112152 
L -54.602987 -21.294754 
L -53.427654 -21.004366 
L -54.674063 -22.279408 
L -51.019745 -20.9625 
L -50.50881 -21.628286 
L -51.230203 -23.529328 
L -55.174175 -22.684284 
L -55.136465 -24.334944 
L -56.073187 -25.172256 
L -55.11457 -27.708196 
L -53.240308 -28.576405 
L -51.422422 -26.741213 
L -50.543681 -22.915975 
L -49.312559 -21.272638 
L -45.79275 -21.954686 
L -41.73442 -21.123867 
L -37.151372 -18.600534 
L -35.906867 -15.855667 
L -36.885356 -15.791856 
L -35.512302 -15.450832 
L -36.440105 -14.897635 
L -35.99324 -13.182754 
L -34.423114 -11.482917 
L -31.790556 -11.128078 
L -23.289477 -12.716544 
L -15.949778 -13.125445 
L -13.664338 -12.369416 
L -14.418578 -11.67558 
L -12.433217 -9.429869 
L -4.071638 -7.085373 
L -1.00843 -7.513784 
L -0.41476 -8.884394 
L 2.063299 -9.094129 
L 2.97691 -9.61521 
L 2.113177 -9.935507 
L 4.85198 -11.381716 
L 10.168996 -11.550804 
L 6.413586 -12.505181 
L 4.400241 -11.755654 
L 4.032853 -13.330306 
L 7.576989 -12.914492 
L 8.603334 -13.739207 
L 11.182365 -12.895382 
L 15.086196 -13.949761 
L 25.125761 -13.466879 
L 28.199513 -14.012354 
L 27.036518 -13.125445 
L 24.144432 -12.927907 
L 23.324498 -11.907272 
L 20.061775 -12.275117 
L 17.460849 -11.913365 
L 16.589004 -11.141493 
L 18.121829 -11.920688 
L 18.379733 -10.674464 
L 16.744719 -10.685033 
L 16.65713 -9.361582 
L 17.378123 -9.464012 
L 17.269855 -10.658201 
L 19.043951 -10.559837 
L 20.418221 -7.917411 
L 20.118949 -7.431682 
L 18.914596 -7.474766 
L 18.463266 -7.030912 
L 17.678203 -7.644264 
L 16.520878 -7.644264 
L 18.678995 -6.570785 
L 18.839573 -7.307715 
L 19.520016 -7.094314 
L 20.498505 -7.525981 
L 20.882935 -8.852688 
L 23.486292 -3.676349 
L 24.099018 -6.354547 
L 24.450181 -5.995232 
L 24.513035 -2.993901 
L 25.124954 -3.875116 
L 24.717413 -5.939552 
L 26.390138 -5.356268 
L 24.455862 -6.129368 
L 24.704498 -6.807331 
L 28.342252 -4.532371 
L 28.199513 -3.124781 
L 28.854005 -4.205572 
L 29.220585 -2.578896 
L 29.343045 -3.55441 
L 28.37493 -4.884194 
L 30.723393 -4.432778 
L 30.282747 -5.599557 
L 32.420105 -3.976198 
L 31.614542 -5.008151 
L 32.251654 -4.796818 
L 34.574914 -2.38908 
L 36.098002 -2.428098 
L 38.000647 -1.177809 
L 38.767054 0.246444 
L 35.776835 2.355182 
L 35.511636 2.964069 
L 37.035532 1.55526 
L 35.634913 3.77456 
L 34.540851 7.283976 
L 30.060391 7.209186 
L 30.661356 7.818893 
L 33.797554 9.400037 
L 34.824297 8.439157 
L 36.363201 8.363958 
L 35.85105 8.708239 
L 35.911871 9.339072 
L 36.871714 7.614032 
L 39.693233 7.32747 
L 41.821343 8.049765 
L 42.88783 7.020589 
L 46.384937 7.79369 
L 48.295335 10.919387 
L 42.859298 15.129862 
L 41.354486 15.232072 
L 39.313298 18.108397 
L 40.596929 20.059155 
L 40.33145 21.447766 
L 41.132778 22.103353 
L 42.886594 21.636174 
L 43.568711 22.816238 
L 42.833546 23.971 
L 39.614573 25.683783 
L 37.549436 25.202679 
L 37.287825 26.036874 
L 35.334445 26.195614 
L 34.515857 27.73805 
L 35.416842 31.481865 
L 32.674751 33.889992 
L 39.973779 41.634956 
L 40.48878 44.328797 
L 37.666604 46.247299 
L 36.854713 47.98099 
L 33.483293 48.122688 
L 33.707832 48.849259 
L 31.62674 49.310754 
L 30.975009 50.842351 
L 25.13187 52.422986 
L 22.396217 51.495101 
L 21.072165 52.947454 
L 19.244443 52.985143 
L 19.192431 56.7176 
L 17.798858 57.712084 
L 13.191703 53.737257 
L 11.607585 54.777941 
L 10.003883 53.861923 
L 6.355655 54.49867 
L 5.269017 52.220633 
L 0.854481 52.137522 
L -1.158126 50.483836 
L -1.371593 51.221505 
L 0.324033 53.595039 
L 4.708184 57.373447 
L 4.509396 62.075614 
L 6.755292 66.161932 
L 6.252918 68.595352 
L 12.861597 69.102268 
L 12.98313 70.638001 
L 12.593279 71.811343 
L 6.365959 74.030014 
L 5.804607 77.07334 
L 3.213667 79.638389 
L 2.654896 78.223197 
L -0.552746 80.819732 
L -1.633204 80.587441 
L -4.597781 82.025089 
L -5.258262 84.053793 
L -6.495533 84.189048 
L -8.642807 86.795913 
L -9.088028 85.898735 
L -8.402054 84.426504 
L -9.174799 83.456544 
L -10.663655 83.551003 
L -14.539761 85.978749 
L -16.041493 85.831627 
L -21.921197 81.070103 
L -25.331493 70.645743 
L -25.056995 69.363988 
L -28.902467 66.399907 
L -29.410771 65.178037 
L -31.69632 65.414463 
L -31.523792 64.451726 
L -26.250247 59.479069 
L -28.14749 56.142797 
L -29.462274 55.703758 
L -31.886865 48.004225 
L -31.070081 42.703001 
L -31.48363 39.946177 
L -29.315498 37.925464 
L -29.39635 35.499017 
L -27.376538 33.563742 
L -28.061485 32.202752 
L -27.650517 31.369076 
L -31.409983 30.215603 
L -32.912742 31.170329 
L -39.46348 31.989041 
L -43.707044 31.170329 
L -45.550462 32.540609 
L -46.400462 31.78436 
L -47.51904 32.125325 
L -54.351222 23.631334 
L -56.243313 23.973577 
L -60.07256 22.358869 
L -64.863563 23.730957 
L -69.212186 22.836367 
L -72.933543 23.228686 
L -73.974348 22.490508 
L -75.050173 19.542429 
L -77.765745 18.517748 
L -77.890377 13.992132 
L -76.341268 12.329935 
L -76.91703 9.817789 
L -79.726331 6.859651 
L -80.878373 2.240335 
L -82.51555 2.339709 
L -83.057837 0.427919 
L -85.076105 1.645923 
z
" clip-path="url(#pb2d3f80562)" style="fill: #eeeeee; stroke: #000000; stroke-width: 0.3"/>
    <path d="M 2.659391 -16.275148 
L 3.037731 -17.22424 
L 4.537709 -17.514458 
L 6.242055 -16.507239 
L 6.964673 -17.781912 
L 8.257432 -17.952628 
L 8.847047 -16.33815 
L 7.746896 -15.450832 
L 6.13582 -15.177684 
L 4.978495 -16.275148 
z
" clip-path="url(#pb2d3f80562)" style="fill: #eeeeee; stroke: #000000; stroke-width: 0.3"/>
    <path d="M 35.776835 4.470434 
L 35.937424 3.590028 
L 38.102836 2.418185 
L 37.867643 2.942522 
L 37.196519 3.120561 
z
" clip-path="url(#pb2d3f80562)" style="fill: #eeeeee; stroke: #000000; stroke-width: 0.3"/>
    <path d="M 34.934967 7.421049 
L 35.368229 5.811136 
L 39.295489 4.455869 
L 39.757123 5.486114 
L 38.157289 6.997493 
z
" clip-path="url(#pb2d3f80562)" style="fill: #eeeeee; stroke: #000000; stroke-width: 0.3"/>
    <path d="M 33.933806 8.227794 
L 34.359992 7.657925 
L 35.368896 8.029846 
L 36.464174 7.273418 
L 36.213974 8.187957 
z
" clip-path="url(#pb2d3f80562)" style="fill: #eeeeee; stroke: #000000; stroke-width: 0.3"/>
    <path d="M 35.715197 5.152482 
L 37.422801 3.09414 
L 38.239088 3.372971 
L 37.973879 3.965595 
z
" clip-path="url(#pb2d3f80562)" style="fill: #eeeeee; stroke: #000000; stroke-width: 0.3"/>
    <path d="M 0.265275 -24.893834 
L 0.68011 -25.581567 
L 1.182125 -25.164134 
L 1.121703 -24.757261 
z
" clip-path="url(#pb2d3f80562)" style="fill: #eeeeee; stroke: #000000; stroke-width: 0.3"/>
    <path d="M -29.891958 -26.485957 
L -29.634064 -26.429048 
L -29.520514 -26.39003 
L -29.802346 -26.409539 
z
" clip-path="url(#pb2d3f80562)" style="fill: #eeeeee; stroke: #000000; stroke-width: 0.3"/>
    <path d="M 38.540393 7.045712 
L 39.856651 5.746815 
L 40.438443 7.007403 
z
" clip-path="url(#pb2d3f80562)" style="fill: #eeeeee; stroke: #000000; stroke-width: 0.3"/>
    <path d="M 38.170962 2.213734 
L 38.332756 1.503635 
L 39.333957 1.451202 
z
" clip-path="url(#pb2d3f80562)" style="fill: #eeeeee; stroke: #000000; stroke-width: 0.3"/>
    <path d="M 37.014045 2.685238 
L 38.08986 1.440233 
L 37.727335 2.393801 
z
" clip-path="url(#pb2d3f80562)" style="fill: #eeeeee; stroke: #000000; stroke-width: 0.3"/>
    <path d="M 31.24563 7.719759 
L 33.49304 7.660792 
L 34.000447 8.811818 
z
" clip-path="url(#pb2d3f80562)" style="fill: #eeeeee; stroke: #000000; stroke-width: 0.3"/>
    <path d="M 23.692693 -6.448037 
L 23.808675 -6.854501 
L 24.317178 -6.749224 
z
" clip-path="url(#pb2d3f80562)" style="fill: #eeeeee; stroke: #000000; stroke-width: 0.3"/>
    <path d="M 23.180941 -5.33514 
L 23.509403 -5.468457 
L 23.416143 -5.054271 
z
" clip-path="url(#pb2d3f80562)" style="fill: #eeeeee; stroke: #000000; stroke-width: 0.3"/>
    <path d="M 22.315594 -7.076023 
L 22.408455 -7.102445 
L 22.58728 -6.336666 
z
" clip-path="url(#pb2d3f80562)" style="fill: #eeeeee; stroke: #000000; stroke-width: 0.3"/>
    <path d="M 18.878101 -11.534542 
L 19.216289 -11.208561 
L 20.086919 -9.707481 
z
" clip-path="url(#pb2d3f80562)" style="fill: #eeeeee; stroke: #000000; stroke-width: 0.3"/>
    <path d="M 10.282546 -63.555571 
L 10.372567 -63.555571 
L 10.363647 -63.490131 
z
" clip-path="url(#pb2d3f80562)" style="fill: #eeeeee; stroke: #000000; stroke-width: 0.3"/>
    <path d="M 6.68609 -14.359472 
L 7.691347 -14.375325 
L 7.636196 -13.958292 
z
" clip-path="url(#pb2d3f80562)" style="fill: #eeeeee; stroke: #000000; stroke-width: 0.3"/>
    <path d="M 4.529188 -14.666762 
L 4.703559 -14.874869 
L 4.989039 -14.59441 
z
" clip-path="url(#pb2d3f80562)" style="fill: #eeeeee; stroke: #000000; stroke-width: 0.3"/>
    <path d="M -7.338407 -15.848355 
L -5.277207 -15.644714 
L -5.672579 -15.450832 
z
" clip-path="url(#pb2d3f80562)" style="fill: #eeeeee; stroke: #000000; stroke-width: 0.3"/>
    <path d="M -15.137139 -24.768229 
L -14.989945 -24.82311 
L -14.336669 -24.391034 
z
" clip-path="url(#pb2d3f80562)" style="fill: #eeeeee; stroke: #000000; stroke-width: 0.3"/>
    <path d="M -20.221405 -24.42274 
L -19.330505 -24.831641 
L -19.59692 -24.206501 
z
" clip-path="url(#pb2d3f80562)" style="fill: #eeeeee; stroke: #000000; stroke-width: 0.3"/>
    <path d="M -21.351145 -25.301517 
L -21.320739 -25.323054 
L -20.293986 -25.269811 
z
" clip-path="url(#pb2d3f80562)" style="fill: #eeeeee; stroke: #000000; stroke-width: 0.3"/>
    <path d="M -21.717327 -24.1057 
L -20.45579 -24.412171 
L -21.450095 -24.054484 
z
" clip-path="url(#pb2d3f80562)" style="fill: #eeeeee; stroke: #000000; stroke-width: 0.3"/>
    <path d="M -29.913045 -27.05216 
L -29.889935 -27.072887 
L -29.904126 -27.03306 
z
" clip-path="url(#pb2d3f80562)" style="fill: #eeeeee; stroke: #000000; stroke-width: 0.3"/>
    <path d="M -29.919134 -26.867218 
L -29.915477 -26.889164 
L -29.909806 -26.858277 
z
" clip-path="url(#pb2d3f80562)" style="fill: #eeeeee; stroke: #000000; stroke-width: 0.3"/>
    <path d="M -29.958469 -26.8469 
L -29.933734 -26.870474 
L -29.947108 -26.839578 
z
" clip-path="url(#pb2d3f80562)" style="fill: #eeeeee; stroke: #000000; stroke-width: 0.3"/>
    <path d="M -29.98726 -27.223286 
L -29.956845 -27.225723 
L -29.953197 -27.207023 
z
" clip-path="url(#pb2d3f80562)" style="fill: #eeeeee; stroke: #000000; stroke-width: 0.3"/>
    <path d="M -30.03105 -27.278557 
L -30.01361 -27.263932 
L -30.016051 -27.244423 
z
" clip-path="url(#pb2d3f80562)" style="fill: #eeeeee; stroke: #000000; stroke-width: 0.3"/>
   </g>
   <g id="PatchCollection_2">
    <defs>
     <path id="m5c71102ebb" d="M 65.868523 -56.39159 
L 68.14583 -61.176868 
L 67.337806 -62.963732 
L 69.645499 -64.726851 
L 73.696454 -64.925078 
L 73.611476 -66.372786 
L 74.648674 -66.493836 
L 73.179909 -67.939485 
L 74.860117 -70.2291 
L 75.472045 -73.518992 
L 76.924516 -74.769231 
L 87.094892 -72.702317 
L 87.4767 -71.424108 
L 86.943781 -73.469994 
L 88.007995 -74.413492 
L 93.074741 -74.281094 
L 94.949572 -73.736368 
L 95.128636 -72.862995 
L 95.570638 -73.48286 
L 96.322047 -73.210522 
L 97.787962 -73.210522 
L 94.828727 -74.235203 
L 95.976454 -74.584739 
L 106.022626 -73.078814 
L 106.524642 -72.112989 
L 105.779711 -69.787683 
L 101.53813 -63.694948 
L 102.862182 -55.091774 
L 106.500106 -50.789159 
L 104.284088 -45.958459 
L 104.692475 -43.217898 
L 101.091116 -38.094503 
L 99.371542 -37.941187 
L 99.380811 -39.150161 
L 97.615923 -39.165125 
L 96.830561 -40.779833 
L 93.228683 -39.873885 
L 92.440739 -38.993749 
L 89.204765 -38.661305 
L 86.74592 -39.994166 
L 84.994417 -37.255663 
L 87.271724 -35.199857 
L 86.917411 -33.230769 
L 79.702325 -34.88032 
L 75.59575 -42.427067 
L 74.475638 -43.149761 
L 73.417841 -48.630623 
L 71.745137 -48.071573 
L 70.014232 -48.54106 
L 70.072941 -49.846819 
L 68.222048 -51.303047 
L 66.205326 -54.552333 
z
" style="stroke: #dd0000; stroke-width: 0.5"/>
    </defs>
    <g clip-path="url(#pb2d3f80562)">
     <use xlink:href="#m5c71102ebb" x="0" y="108" style="fill: #ff6b6b; stroke: #dd0000; stroke-width: 0.5"/>
    </g>
   </g>
  </g>
 </g>
 <defs>
  <clipPath id="pb2d3f80562">
   <rect x="0" y="0" width="172.393165" height="108"/>
  </clipPath>
 </defs>
</svg>
