<?xml version="1.0" encoding="utf-8" standalone="no"?>
<!DOCTYPE svg PUBLIC "-//W3C//DTD SVG 1.1//EN"
  "http://www.w3.org/Graphics/SVG/1.1/DTD/svg11.dtd">
<svg xmlns:xlink="http://www.w3.org/1999/xlink" width="141.858691pt" height="108pt" viewBox="0 0 141.858691 108" xmlns="http://www.w3.org/2000/svg" version="1.1">
 <metadata>
  <rdf:RDF xmlns:dc="http://purl.org/dc/elements/1.1/" xmlns:cc="http://creativecommons.org/ns#" xmlns:rdf="http://www.w3.org/1999/02/22-rdf-syntax-ns#">
   <cc:Work>
    <dc:type rdf:resource="http://purl.org/dc/dcmitype/StillImage"/>
    <dc:date>2025-09-05T13:56:20.168356</dc:date>
    <dc:format>image/svg+xml</dc:format>
    <dc:creator>
     <cc:Agent>
      <dc:title>Matplotlib v3.10.3, https://matplotlib.org/</dc:title>
     </cc:Agent>
    </dc:creator>
   </cc:Work>
  </rdf:RDF>
 </metadata>
 <defs>
  <style type="text/css">*{stroke-linejoin: round; stroke-linecap: butt}</style>
 </defs>
 <g id="figure_1">
  <g id="patch_1">
   <path d="M 0 108 
L 141.858691 108 
L 141.858691 0 
L 0 0 
z
" style="fill: #ffffff"/>
  </g>
  <g id="axes_1">
   <g id="PatchCollection_1">
    <path d="M 24.83177 51.543905 
L 26.63898 50.883224 
L 26.853624 51.363472 
L 25.862877 51.724338 
L 26.659628 52.564774 
L 25.026194 52.410611 
z
M 25.367809 51.983645 
L 25.460056 52.081974 
L 25.460056 51.976631 
z
" clip-path="url(#p6a85c3f42a)" style="fill: #eeeeee; stroke: #000000; stroke-width: 0.3"/>
    <path d="M 12.755948 51.365908 
L 13.975361 51.677275 
L 16.086391 50.171444 
L 17.512484 51.510955 
L 22.575319 50.451042 
L 22.943408 52.359628 
L 23.464952 51.665996 
L 25.038441 52.253208 
L 24.203475 53.990424 
L 18.684173 56.047151 
L 18.898817 55.5415 
L 17.801731 55.257271 
L 16.494498 55.833956 
L 14.362975 55.034699 
z
" clip-path="url(#p6a85c3f42a)" style="fill: #eeeeee; stroke: #000000; stroke-width: 0.3"/>
    <path d="M 25.908997 51.609273 
L 27.776315 51.531204 
L 28.438595 52.49143 
L 26.198149 52.506567 
z
" clip-path="url(#p6a85c3f42a)" style="fill: #eeeeee; stroke: #000000; stroke-width: 0.3"/>
    <path d="M 25.521392 52.24565 
L 25.822962 52.359628 
L 25.70145 52.343424 
z
" clip-path="url(#p6a85c3f42a)" style="fill: #eeeeee; stroke: #000000; stroke-width: 0.3"/>
    <path d="M 25.367809 51.983645 
L 25.460056 51.976631 
L 25.460056 52.081974 
z
" clip-path="url(#p6a85c3f42a)" style="fill: #eeeeee; stroke: #000000; stroke-width: 0.3"/>
    <path d="M 29.719189 91.732012 
L 32.359701 88.299227 
L 31.717528 87.846409 
L 33.697571 83.994541 
L 35.719442 74.977616 
L 36.708386 74.515661 
L 37.024761 72.119143 
L 40.290367 72.121286 
L 40.885527 70.097091 
L 41.352069 70.524945 
L 43.216486 68.783014 
L 42.765907 70.184067 
L 43.791247 73.610391 
L 42.671445 75.707366 
L 40.980426 76.788751 
L 40.983979 79.466875 
L 37.806845 77.825697 
L 36.55355 78.950424 
L 35.838654 81.381398 
L 36.504573 84.443731 
L 35.976155 85.230601 
L 37.767505 85.488037 
L 38.075221 84.75169 
L 38.425263 86.116468 
L 35.943312 87.352685 
L 35.129963 90.149387 
L 37.585104 90.155324 
L 40.104987 88.803164 
L 39.565713 91.248721 
L 39.932919 92.858025 
L 37.371344 99.899208 
L 37.41658 103.106473 
L 35.404466 109.728406 
z
" clip-path="url(#p6a85c3f42a)" style="fill: #eeeeee; stroke: #000000; stroke-width: 0.3"/>
    <path d="M 35.129963 90.149387 
L 35.943312 87.352685 
L 38.425263 86.116468 
L 38.075221 84.75169 
L 37.767505 85.488037 
L 35.976155 85.230601 
L 36.504573 84.443731 
L 35.811295 81.539481 
L 36.722075 78.647096 
L 37.960291 77.815975 
L 40.983979 79.466875 
L 40.970669 85.941639 
L 40.106764 88.803708 
L 37.585104 90.155324 
z
" clip-path="url(#p6a85c3f42a)" style="fill: #eeeeee; stroke: #000000; stroke-width: 0.3"/>
    <path d="M 29.30655 90.657171 
L 31.717528 87.846409 
L 32.359701 88.299227 
L 29.719189 91.732012 
z
" clip-path="url(#p6a85c3f42a)" style="fill: #eeeeee; stroke: #000000; stroke-width: 0.3"/>
    <path d="M 37.072949 72.104257 
L 40.207388 63.604566 
L 41.669842 62.587095 
L 41.878659 59.326223 
L 44.607325 56.950121 
L 44.493485 55.787583 
L 46.996762 56.023913 
L 47.40299 55.393484 
L 48.529452 56.001771 
L 47.497014 57.206449 
L 49.258542 58.15966 
L 49.936184 60.499613 
L 47.228261 63.140186 
L 47.92365 64.284901 
L 45.184677 64.499915 
L 44.078623 66.341241 
L 45.054291 67.099164 
L 41.352069 70.524945 
L 40.885527 70.097091 
L 40.290367 72.121286 
z
" clip-path="url(#p6a85c3f42a)" style="fill: #eeeeee; stroke: #000000; stroke-width: 0.3"/>
    <path d="M 42.378019 46.042005 
L 43.38163 44.313319 
L 43.023349 43.244792 
L 44.58242 42.438018 
L 46.104468 43.528174 
L 46.441517 42.178178 
L 47.824305 41.736274 
L 47.952915 39.293957 
L 50.452407 39.279374 
L 49.310867 36.665803 
L 50.243075 33.016645 
L 53.030828 33.792936 
L 53.789192 35.19264 
L 57.162347 35.043537 
L 63.840361 32.177151 
L 66.03473 32.727628 
L 68.137736 34.419047 
L 72.55397 34.760458 
L 77.065112 33.915026 
L 85.164054 30.169159 
L 91.779094 30.429543 
L 96.323046 29.38369 
L 98.056193 27.823008 
L 99.219008 28.713015 
L 99.480673 30.568924 
L 94.903003 35.214248 
L 90.969281 36.275228 
L 90.038849 37.964482 
L 89.692935 41.042642 
L 90.78125 45.277392 
L 89.389588 49.586699 
L 89.414424 54.289822 
L 87.363744 58.380069 
L 85.005287 59.115579 
L 68.562595 69.149285 
L 51.783746 80.176992 
L 48.08064 79.523325 
L 42.671445 75.707366 
L 43.791247 73.610391 
L 42.7251 69.539045 
L 45.054291 67.099164 
L 44.078623 66.341241 
L 44.309238 65.620858 
L 45.938604 64.142562 
L 47.819868 64.423205 
L 47.228261 63.140186 
L 49.936184 60.499613 
L 49.258542 58.15966 
L 47.497014 57.206449 
L 48.529452 56.001771 
L 47.40299 55.393484 
L 46.996762 56.023913 
L 44.493485 55.787583 
L 43.609309 52.919346 
L 44.429232 50.057905 
L 44.056285 47.760917 
z
" clip-path="url(#p6a85c3f42a)" style="fill: #eeeeee; stroke: #000000; stroke-width: 0.3"/>
    <path d="M 122.010202 -13.632113 
L 124.131838 -15.242504 
L 125.978517 -15.092857 
L 128.375112 -14.101563 
L 127.875743 -13.69262 
L 129.033246 -12.778579 
L 132.378905 -12.688362 
L 134.83493 -11.064465 
L 135.901961 -11.793756 
L 136.480266 -13.568376 
L 133.265878 -15.757323 
L 132.116356 -17.444696 
L 132.193525 -18.333083 
L 133.264101 -18.505675 
L 134.269489 -19.904303 
L 135.236283 -19.735484 
L 135.442508 -18.819541 
L 136.92907 -19.494544 
L 139.385541 -16.418015 
L 140.366976 -16.370471 
L 141.457058 -13.761228 
L 146.265781 -12.669995 
L 148.19495 -15.418075 
L 151.108651 -16.856396 
L 152.704067 -19.432208 
L 156.682174 -14.927572 
L 157.995174 -11.194553 
L 160.941736 -8.380321 
L 160.942431 -6.978735 
L 166.938221 -5.328734 
L 168.256113 -2.598729 
L 166.873273 -3.725107 
L 163.984682 -3.999886 
L 160.544347 -1.751823 
L 159.9528 2.894463 
L 158.76272 4.852851 
L 159.811017 7.285529 
L 158.661453 6.793374 
L 158.062216 9.955133 
L 156.997854 10.695274 
L 157.585213 9.439592 
L 156.039641 8.390206 
L 155.645746 10.986643 
L 154.874011 11.65873 
L 155.238574 16.228023 
L 152.952223 16.626209 
L 151.299352 14.304091 
L 150.39863 14.491821 
L 147.676512 11.879055 
L 148.237963 10.851569 
L 150.255826 10.263813 
L 148.646859 7.497909 
L 150.644315 6.350487 
L 147.490249 2.946586 
L 140.030811 7.087879 
L 134.983055 11.543581 
L 134.793238 9.455649 
L 133.963919 8.271492 
L 135.743186 8.059185 
L 133.668562 6.023115 
L 135.070865 4.51375 
L 132.152727 4.110212 
L 128.364024 0.479954 
L 126.962166 0.169873 
L 129.488263 -0.243932 
L 130.393421 -2.479346 
L 126.505373 -4.752582 
L 125.196201 -7.20138 
L 127.131574 -9.160207 
L 125.586475 -10.777069 
L 122.590721 -11.244898 
L 123.703872 -12.0871 
L 122.288713 -12.662427 
z
M 126.10269 -6.939376 
L 126.685432 -6.63956 
L 126.801623 -6.912363 
z
" clip-path="url(#p6a85c3f42a)" style="fill: #eeeeee; stroke: #000000; stroke-width: 0.3"/>
    <path d="M 120.054875 2.964953 
L 122.277179 2.258348 
L 123.262604 4.298203 
L 124.220533 4.04268 
L 125.721289 5.201444 
L 128.752959 4.57317 
L 128.500177 6.449349 
L 130.449736 7.704268 
L 130.212033 8.727979 
L 131.737625 11.736715 
L 125.753669 10.267598 
L 124.659587 8.215585 
L 123.300305 8.079717 
z
" clip-path="url(#p6a85c3f42a)" style="fill: #eeeeee; stroke: #000000; stroke-width: 0.3"/>
    <path d="M 169.750699 -3.673633 
L 170.108275 -3.673633 
L 169.814952 -3.38311 
z
" clip-path="url(#p6a85c3f42a)" style="fill: #eeeeee; stroke: #000000; stroke-width: 0.3"/>
    <path d="M 167.700885 -5.179433 
L 167.993513 -5.101594 
L 167.934847 -4.322313 
z
" clip-path="url(#p6a85c3f42a)" style="fill: #eeeeee; stroke: #000000; stroke-width: 0.3"/>
    <path d="M 123.510074 -10.531279 
L 123.881708 -10.376771 
L 123.592555 -10.290882 
z
" clip-path="url(#p6a85c3f42a)" style="fill: #eeeeee; stroke: #000000; stroke-width: 0.3"/>
    <path d="M 121.705971 -11.064465 
L 122.151676 -11.378875 
L 122.124617 -10.838663 
z
" clip-path="url(#p6a85c3f42a)" style="fill: #eeeeee; stroke: #000000; stroke-width: 0.3"/>
    <path d="M -40.467257 5.123814 
L -39.722762 3.52486 
L -39.629175 0.134256 
L -34.755024 -4.360606 
L -30.023342 -5.036508 
L -28.604183 -3.50817 
L -25.940474 -3.438829 
L -24.903342 -4.180246 
L -26.613739 -5.328734 
L -25.963525 -5.756233 
L -23.60851 -5.101594 
L -24.728047 -4.322313 
L -24.378846 -3.96841 
L -14.879163 -3.982021 
L -14.021523 -4.679625 
L -17.101483 -5.925951 
L -11.111975 -7.744394 
L -7.260984 -7.826069 
L -13.137347 -8.617675 
L -13.057028 -9.234461 
L -15.257001 -10.914662 
L -14.786975 -11.393625 
L -14.544628 -12.069109 
L -14.729012 -12.192883 
L -13.865785 -13.032565 
L -5.565262 -12.098882 
L -4.31582 -12.848808 
L 0.410979 -11.43105 
L 3.826168 -11.557384 
L 5.212492 -12.565509 
L 5.305384 -13.904142 
L 11.813106 -16.993582 
L 12.684014 -18.124205 
L 21.790497 -21.248529 
L 33.545318 -20.484574 
L 36.375243 -22.016738 
L 38.026269 -21.296595 
L 36.960508 -20.297408 
L 38.728867 -18.071883 
L 41.118802 -17.178614 
L 45.137408 -17.928959 
L 45.905658 -15.4244 
L 48.141941 -13.276296 
L 51.257517 -14.424784 
L 53.203969 -13.67444 
L 54.496716 -12.128654 
L 57.837173 -10.984421 
L 60.060893 -11.877689 
L 61.021199 -10.408896 
L 64.755561 -9.737237 
L 74.189583 -11.771771 
L 80.304801 -9.788712 
L 91.01202 -14.561332 
L 92.130869 -15.971428 
L 94.638686 -15.005348 
L 95.797073 -15.881034 
L 100.217745 -15.110148 
L 101.91629 -16.745387 
L 103.280455 -16.578994 
L 102.821894 -15.868071 
L 106.404819 -13.721253 
L 105.71076 -13.196701 
L 108.114898 -12.552766 
L 111.009977 -8.117052 
L 110.894669 -6.539078 
L 109.627188 -5.137753 
L 111.016628 -1.912665 
L 110.536329 -1.293579 
L 113.685966 -0.232046 
L 116.202305 -0.504315 
L 120.333223 3.622447 
L 118.262744 2.305348 
L 117.350934 3.010323 
L 116.737151 5.978812 
L 113.535181 6.401261 
L 114.074464 8.220446 
L 115.009333 8.794696 
L 114.711753 10.681674 
L 115.767688 11.94713 
L 115.892316 16.769636 
L 117.34473 17.22882 
L 115.141933 21.84065 
L 118.523516 23.730597 
L 118.26452 26.54485 
L 120.286812 28.15983 
L 119.982581 29.735911 
L 118.645028 29.355057 
L 115.851955 31.541851 
L 114.952563 30.303679 
L 115.424435 28.744345 
L 114.163159 27.966706 
L 111.771885 29.131952 
L 105.810989 27.33978 
L 104.285396 27.872705 
L 102.94163 27.294128 
L 100.922883 29.74671 
L 99.309479 30.069764 
L 99.219008 28.713015 
L 98.056193 27.823008 
L 96.323046 29.38369 
L 91.779094 30.429543 
L 85.164054 30.169159 
L 77.065112 33.915026 
L 72.55397 34.760458 
L 68.137736 34.419047 
L 66.03473 32.727628 
L 63.840361 32.177151 
L 57.162347 35.043537 
L 53.789192 35.19264 
L 53.030828 33.792936 
L 50.243075 33.016645 
L 49.310867 36.665803 
L 50.502071 39.192399 
L 47.952915 39.293957 
L 47.824305 41.736274 
L 46.441517 42.178178 
L 45.940381 43.557341 
L 43.990624 42.533169 
L 44.540977 41.479946 
L 42.926965 38.492588 
L 46.564247 34.957795 
L 46.373582 33.292051 
L 44.925793 31.989578 
L 41.37651 33.933508 
L 41.142549 34.511155 
L 42.255803 34.147895 
L 41.521082 35.374652 
L 39.139523 36.016955 
L 33.534144 33.165288 
L 29.958317 35.537135 
L 27.235942 39.44074 
L 26.481664 38.381569 
L 24.912354 40.240854 
L 24.560356 39.660228 
L 23.745326 40.340385 
L 20.352484 40.240854 
L 17.321415 41.389343 
L 13.560509 39.812927 
L 10.585309 35.959951 
L 4.766916 33.220589 
L -0.848246 32.357092 
L -1.849755 33.505591 
L -1.849755 36.153493 
L -3.071966 39.306742 
L -5.379488 38.551297 
L -9.551745 40.383779 
L -14.495042 37.586555 
L -14.335812 35.895722 
L -15.198335 35.945493 
L -14.495042 34.719155 
L -15.845759 33.819509 
L -16.790695 35.374652 
L -20.025002 32.436217 
L -20.505499 33.42009 
L -21.696978 32.827556 
L -21.371523 34.147895 
L -23.595938 35.769388 
L -24.253832 35.374652 
L -23.134991 34.939929 
L -24.195166 34.472873 
L -22.905217 34.158955 
L -22.887753 33.303958 
L -24.610714 33.933508 
L -26.312022 33.767617 
L -26.72618 34.797005 
L -29.016246 34.719155 
L -29.43249 34.226163 
L -26.947569 33.242709 
L -23.667872 33.505591 
L -23.544952 31.858142 
L -22.485473 32.143563 
L -21.077496 30.835131 
L -27.66274 31.50083 
L -29.2551 30.92956 
L -30.227275 31.602494 
L -30.315275 29.923568 
L -27.636196 29.906131 
L -27.956063 29.203853 
L -27.252075 29.132391 
L -27.199699 28.347581 
L -28.507103 28.584935 
L -28.268954 27.797584 
L -29.080491 27.841396 
L -28.991101 26.904744 
L -30.848851 27.484084 
L -30.696598 24.979954 
L -32.387436 24.260229 
L -30.344608 23.438423 
L -30.433998 20.891746 
L -33.575422 20.398744 
L -34.543401 18.499911 
L -35.610561 18.637306 
L -35.961864 19.679029 
L -37.719745 18.030304 
L -39.067657 17.835905 
L -36.665158 16.23993 
L -37.739295 16.017044 
L -38.073134 14.122456 
L -37.514413 13.663481 
L -35.658054 15.337734 
L -36.020531 16.388813 
L -35.291397 17.554321 
L -35.039971 16.268856 
L -34.24449 17.016649 
L -31.076531 16.097005 
L -33.040439 16.219514 
L -34.076172 15.091442 
L -33.431545 15.454702 
L -33.78284 14.5206 
L -34.896798 13.942953 
L -34.896798 13.229187 
L -33.314213 13.08668 
L -33.367996 12.229571 
L -31.948142 11.494532 
L -34.146716 10.833087 
L -33.556559 9.361742 
L -34.899587 7.563716 
L -35.83964 7.434831 
L -33.087932 5.213142 
L -33.020889 4.303283 
z
" clip-path="url(#p6a85c3f42a)" style="fill: #eeeeee; stroke: #000000; stroke-width: 0.3"/>
    <path d="M -40.782937 -7.826069 
L -37.98625 -10.226591 
L -38.317085 -13.169688 
L -35.646417 -14.333314 
L -35.957745 -16.998202 
L -38.207099 -18.049732 
L -38.20001 -18.849522 
L -36.552897 -19.212281 
L -35.869934 -20.708955 
L -33.010333 -21.010119 
L -32.086552 -21.916601 
L -30.140091 -22.00871 
L -27.796713 -20.016389 
L -25.518078 -20.994187 
L -23.76006 -20.76276 
L -23.518417 -19.901815 
L -24.14418 -19.191456 
L -21.906498 -16.021188 
L -14.384695 -13.055532 
L -15.387602 -10.681552 
L -18.538097 -10.265553 
L -19.167362 -11.437437 
L -19.258151 -10.486735 
L -22.485473 -11.485922 
L -24.408179 -10.293621 
L -27.98749 -10.482909 
L -30.014957 -7.496837 
L -35.203398 -4.903368 
L -38.102467 -2.230357 
L -37.842665 -1.746721 
L -39.71648 -0.720312 
L -38.733826 -2.550662 
L -39.187787 -3.606854 
L -33.953956 -6.435115 
L -34.284997 -7.047646 
L -36.728707 -6.399384 
L -40.606937 -7.047646 
z
" clip-path="url(#p6a85c3f42a)" style="fill: #eeeeee; stroke: #000000; stroke-width: 0.3"/>
    <path d="M -43.957882 -1.460872 
L -41.703431 -2.680404 
L -41.151696 -1.573167 
L -43.076496 -1.157585 
z
" clip-path="url(#p6a85c3f42a)" style="fill: #eeeeee; stroke: #000000; stroke-width: 0.3"/>
    <path d="M -27.509088 -5.123714 
L -27.274422 -5.425725 
L -26.851194 -4.840415 
z
" clip-path="url(#p6a85c3f42a)" style="fill: #eeeeee; stroke: #000000; stroke-width: 0.3"/>
    <path d="M -27.968636 -6.823056 
L -26.198182 -6.677581 
L -27.296075 -6.171814 
z
" clip-path="url(#p6a85c3f42a)" style="fill: #eeeeee; stroke: #000000; stroke-width: 0.3"/>
    <path d="M -41.256456 1.591561 
L -41.031574 1.476287 
L -40.424656 2.106684 
z
" clip-path="url(#p6a85c3f42a)" style="fill: #eeeeee; stroke: #000000; stroke-width: 0.3"/>
    <path d="M 108.605392 -11.710031 
L 114.955224 -12.999521 
L 120.683291 -12.779656 
L 120.450908 -13.4533 
L 122.010202 -13.632113 
L 122.288713 -12.662427 
L 123.703872 -12.0871 
L 122.590721 -11.244898 
L 125.586475 -10.777069 
L 127.131574 -9.160207 
L 125.196201 -7.20138 
L 126.505373 -4.752582 
L 130.393421 -2.479346 
L 129.488263 -0.243932 
L 126.962166 0.169873 
L 128.364024 0.479954 
L 132.152727 4.110212 
L 135.070865 4.51375 
L 133.668562 6.023115 
L 135.743186 8.059185 
L 133.963919 8.271492 
L 134.793238 9.455649 
L 134.983055 11.543581 
L 131.737625 11.736715 
L 130.212033 8.727979 
L 130.449736 7.704268 
L 128.500177 6.449349 
L 128.558714 4.441357 
L 125.721289 5.201444 
L 124.220533 4.04268 
L 123.262604 4.298203 
L 122.277179 2.258348 
L 120.054875 2.964953 
L 116.202305 -0.504315 
L 113.685966 -0.232046 
L 110.536329 -1.293579 
L 111.016628 -1.912665 
L 109.627188 -5.137753 
L 110.894669 -6.539078 
L 111.009977 -8.117052 
z
M 123.510074 -10.531279 
L 123.592555 -10.290882 
L 123.881708 -10.376771 
z
M 121.705971 -11.064465 
L 122.124617 -10.838663 
L 122.151676 -11.378875 
z
" clip-path="url(#p6a85c3f42a)" style="fill: #eeeeee; stroke: #000000; stroke-width: 0.3"/>
    <path d="M 126.10269 -6.939376 
L 126.801623 -6.912363 
L 126.685432 -6.63956 
z
" clip-path="url(#p6a85c3f42a)" style="fill: #eeeeee; stroke: #000000; stroke-width: 0.3"/>
    <path d="M 68.562595 69.149285 
L 85.005287 59.115579 
L 87.363744 58.380069 
L 89.414424 54.289822 
L 89.389588 49.586699 
L 90.78125 45.277392 
L 89.692935 41.042642 
L 90.038849 37.964482 
L 90.969281 36.275228 
L 94.903003 35.214248 
L 99.309479 30.069764 
L 101.060366 29.686747 
L 102.385501 27.505358 
L 105.810989 27.33978 
L 111.771885 29.131952 
L 114.163159 27.966706 
L 115.424435 28.744345 
L 114.952563 30.303679 
L 115.851955 31.541851 
L 118.645028 29.355057 
L 121.023 31.052957 
L 120.541379 33.394791 
L 122.383612 34.689696 
L 121.91574 36.093718 
L 122.708251 37.357826 
L 124.039591 37.460461 
L 124.738524 41.735741 
L 126.623787 41.736274 
L 128.417687 43.649177 
L 131.090132 43.165688 
L 133.378525 43.727518 
L 130.604074 45.078592 
L 130.262589 46.961252 
L 131.602802 48.797445 
L 131.868011 50.960467 
L 129.826642 51.214369 
L 129.286029 53.101347 
L 127.711656 54.14559 
L 127.373723 55.045581 
L 128.01012 56.818037 
L 126.286292 56.395588 
L 126.310245 57.414972 
L 125.568736 57.935739 
L 126.774573 59.319773 
L 126.66281 61.122744 
L 125.253855 62.857389 
L 126.158567 63.222301 
L 128.293514 66.938991 
L 129.592929 66.439288 
L 129.953037 67.276085 
L 129.306436 67.86681 
L 130.352176 67.904088 
L 131.904373 70.314531 
L 132.006378 71.275038 
L 130.831583 71.930044 
L 131.605025 72.390043 
L 131.404121 73.512345 
L 134.685028 74.166002 
L 139.931028 78.527713 
L 141.430454 78.421827 
L 142.679312 79.356399 
L 143.370265 81.934855 
L 146.315007 85.519733 
L 144.980115 89.67886 
L 144.928675 93.997889 
L 147.8406 94.056765 
L 147.852134 99.546988 
L 150.359161 101.126038 
L 151.62442 104.38138 
L 152.535053 104.95451 
L 148.75809 103.92598 
L 147.469541 104.353896 
L 147.320781 103.472963 
L 147.176209 103.27687 
L 147.289354 104.458539 
L 144.939316 103.369554 
L 140.845052 104.038348 
L 137.895872 110.202759 
L 135.140937 113.849209 
L 119.344854 112.740153 
L 96.890709 93.10761 
L 82.719555 84.319372 
L 71.753924 82.253582 
L 73.003666 80.93248 
L 72.521152 79.799923 
L 70.744546 80.056251 
L 70.310821 78.523386 
L 70.988463 78.297311 
z
" clip-path="url(#p6a85c3f42a)" style="fill: #eeeeee; stroke: #000000; stroke-width: 0.3"/>
    <path d="M 113.535181 6.401261 
L 116.737151 5.978812 
L 117.350934 3.010323 
L 118.262744 2.305348 
L 120.333223 3.622447 
L 123.300305 8.079717 
L 124.659587 8.215585 
L 125.753669 10.267598 
L 131.653359 11.747514 
L 135.323647 11.46363 
L 140.030811 7.087879 
L 147.490249 2.946586 
L 150.644315 6.350487 
L 148.646859 7.497909 
L 150.255826 10.263813 
L 148.237963 10.851569 
L 147.676512 11.879055 
L 150.39863 14.491821 
L 151.299352 14.304091 
L 152.952223 16.626209 
L 155.238574 16.228023 
L 155.841295 21.775659 
L 157.454612 24.703043 
L 160.108537 26.046349 
L 166.578551 27.149321 
L 167.665261 29.617302 
L 173.522075 33.648506 
L 181.282732 35.581805 
L 199.283371 31.714789 
L 195.873064 32.506394 
L 199.350422 33.089581 
L 199.399305 30.92956 
L 198.487195 27.636365 
L 200.999054 27.826248 
L 204.839644 26.631282 
L 205.992701 25.735065 
L 206.321768 23.533145 
L 208.927695 21.264237 
L 213.891193 19.525285 
L 218.963786 19.926931 
L 218.994827 18.889985 
L 220.137243 18.099111 
L 225.302967 18.80787 
L 226.474665 17.86412 
L 227.997588 21.10514 
L 234.900004 22.97996 
L 235.330193 24.124141 
L 236.626055 24.598996 
L 240.430282 23.957758 
L 244.817244 25.675374 
L 246.099803 29.049293 
L 250.884127 30.949778 
L 253.656801 35.01274 
L 260.724198 35.021385 
L 260.56011 37.938556 
L 261.22977 40.380329 
L 260.41553 41.981531 
L 261.369914 42.78267 
L 261.790337 46.397801 
L 260.906916 48.987057 
L 260.231043 49.221515 
L 260.565431 51.059872 
L 259.862945 54.064009 
L 258.850915 55.911555 
L 256.723957 57.182677 
L 258.361304 59.247119 
L 256.243212 59.375419 
L 254.948235 61.127616 
L 255.111438 66.361229 
L 258.622076 67.660451 
L 255.590407 71.453308 
L 255.550492 72.425691 
L 257.84509 80.886838 
L 257.369674 83.204357 
L 257.771465 88.77129 
L 265.196309 90.041336 
L 266.393727 93.786115 
L 266.186172 95.541281 
L 257.965718 105.878858 
L 262.196573 110.936366 
L 264.162988 116.198884 
L 266.963158 119.63169 
L 270.996662 120.924964 
L 272.823388 122.909727 
L 274.418606 122.727674 
L 274.874953 130.583492 
L 274.254072 132.968553 
L 275.541952 133.526056 
L 277.985121 133.056062 
L 279.208251 134.5314 
L 278.45078 135.069448 
L 278.738156 136.907272 
L 278.029465 137.532296 
L 277.870698 139.467894 
L 271.474747 140.333325 
L 270.389093 140.971855 
L 270.158478 142.438004 
L 268.945981 142.301863 
L 266.449604 143.855532 
L 265.776391 148.093533 
L 264.968363 148.624556 
L 264.622441 153.680987 
L 262.8346 156.044366 
L 256.155736 153.790919 
L 255.436386 151.993321 
L 254.111509 152.715168 
L 254.729171 153.630913 
L 253.202892 152.722403 
L 249.893741 153.217077 
L 246.032675 151.839849 
L 242.514527 152.488017 
L 240.63722 150.807398 
L 237.150791 150.267604 
L 234.182577 150.773371 
L 233.239735 149.418994 
L 231.596389 150.021323 
L 231.458108 148.900903 
L 227.64692 148.468302 
L 226.404464 145.343978 
L 226.800454 144.473677 
L 225.662758 141.869577 
L 225.187145 137.315598 
L 224.334396 136.226655 
L 224.744358 135.726429 
L 223.818971 135.633693 
L 223.332888 134.298897 
L 217.453032 134.078551 
L 215.870446 135.478861 
L 213.523807 135.805543 
L 212.286938 138.009795 
L 210.133763 137.926426 
L 206.015975 141.028201 
L 202.569359 139.885671 
L 201.871652 138.737172 
L 196.79077 138.80438 
L 194.863875 137.280724 
L 194.456703 136.012278 
L 190.891355 134.669819 
L 187.224044 132.06827 
L 187.814192 131.067808 
L 186.008123 129.144294 
L 182.159922 127.052766 
L 179.346766 127.075011 
L 176.9132 126.017795 
L 174.174382 119.722408 
L 173.986514 117.610893 
L 171.806795 115.544454 
L 171.964635 114.885142 
L 172.616942 115.378562 
L 172.880237 114.278987 
L 172.111301 113.380188 
L 170.42465 113.350416 
L 170.523128 110.155058 
L 166.142741 105.043838 
L 165.52955 102.349992 
L 164.16626 102.264491 
L 160.885164 104.156528 
L 160.435391 102.764727 
L 158.4212 102.760472 
L 158.215868 101.630696 
L 157.702546 102.056909 
L 155.640854 100.415847 
L 158.058723 100.77273 
L 158.581829 99.695704 
L 158.129962 99.10316 
L 156.158373 99.00618 
L 156.637479 99.874778 
L 155.758187 100.019825 
L 155.135908 100.783361 
L 155.590572 103.955323 
L 151.720212 104.509951 
L 151.142799 102.086002 
L 147.852134 99.546988 
L 147.8406 94.056765 
L 144.928675 93.997889 
L 144.980115 89.67886 
L 146.315007 85.519733 
L 143.370265 81.934855 
L 142.679312 79.356399 
L 141.430454 78.421827 
L 139.931028 78.527713 
L 134.685028 74.166002 
L 131.404121 73.512345 
L 131.605025 72.390043 
L 130.831583 71.930044 
L 132.006378 71.275038 
L 131.904373 70.314531 
L 130.352176 67.904088 
L 129.306436 67.86681 
L 129.953037 67.276085 
L 129.592929 66.439288 
L 128.293514 66.938991 
L 126.158567 63.222301 
L 125.253855 62.857389 
L 126.66281 61.122744 
L 126.774573 59.319773 
L 125.568736 57.935739 
L 126.310245 57.414972 
L 126.286292 56.395588 
L 128.01012 56.818037 
L 127.373723 55.045581 
L 127.711656 54.14559 
L 129.286029 53.101347 
L 129.826642 51.214369 
L 131.868011 50.960467 
L 131.602802 48.797445 
L 130.262589 46.961252 
L 130.604074 45.078592 
L 133.378525 43.727518 
L 131.090132 43.165688 
L 128.417687 43.649177 
L 126.623787 41.736274 
L 124.738524 41.735741 
L 124.039591 37.460461 
L 122.60979 37.247078 
L 121.91574 36.093718 
L 122.292257 34.464427 
L 120.473968 33.212738 
L 121.023 31.052957 
L 119.867273 30.13945 
L 120.286812 28.15983 
L 118.317737 26.716104 
L 118.523516 23.730597 
L 115.141933 21.84065 
L 117.34473 17.22882 
L 115.892316 16.769636 
L 115.767688 11.94713 
L 114.711753 10.681674 
L 115.009333 8.794696 
L 114.074464 8.220446 
z
" clip-path="url(#p6a85c3f42a)" style="fill: #eeeeee; stroke: #000000; stroke-width: 0.3"/>
    <path d="M 210.252495 139.309718 
L 214.45339 137.880492 
L 214.314405 136.238144 
L 215.513565 136.731993 
L 218.214287 135.726429 
L 218.858219 136.226655 
L 215.936794 138.932847 
L 215.332674 138.445374 
L 210.302776 140.477776 
z
" clip-path="url(#p6a85c3f42a)" style="fill: #eeeeee; stroke: #000000; stroke-width: 0.3"/>
    <path d="M 198.393608 140.606243 
L 199.388826 140.403763 
L 199.543877 141.105622 
L 198.844772 141.062238 
z
" clip-path="url(#p6a85c3f42a)" style="fill: #eeeeee; stroke: #000000; stroke-width: 0.3"/>
    <path d="M 220.120928 135.184513 
L 220.140487 134.921202 
L 220.722954 135.113051 
z
" clip-path="url(#p6a85c3f42a)" style="fill: #eeeeee; stroke: #000000; stroke-width: 0.3"/>
    <path d="M 219.319157 137.019117 
L 219.859727 136.875775 
L 219.645315 137.444065 
z
" clip-path="url(#p6a85c3f42a)" style="fill: #eeeeee; stroke: #000000; stroke-width: 0.3"/>
    <path d="M 215.131538 139.719351 
L 215.261435 139.244643 
L 215.44442 139.690854 
z
" clip-path="url(#p6a85c3f42a)" style="fill: #eeeeee; stroke: #000000; stroke-width: 0.3"/>
    <path d="M 207.912841 147.449117 
L 208.276014 147.626926 
L 207.96732 147.679248 
z
" clip-path="url(#p6a85c3f42a)" style="fill: #eeeeee; stroke: #000000; stroke-width: 0.3"/>
    <path d="M 203.602294 147.113079 
L 203.975241 147.258555 
L 203.635815 147.229211 
z
" clip-path="url(#p6a85c3f42a)" style="fill: #eeeeee; stroke: #000000; stroke-width: 0.3"/>
    <path d="M 203.41652 143.095915 
L 203.924959 143.175458 
L 203.698678 143.58806 
z
" clip-path="url(#p6a85c3f42a)" style="fill: #eeeeee; stroke: #000000; stroke-width: 0.3"/>
    <path d="M 195.805327 139.107248 
L 195.873768 138.993249 
L 196.191541 139.341623 
z
" clip-path="url(#p6a85c3f42a)" style="fill: #eeeeee; stroke: #000000; stroke-width: 0.3"/>
    <path d="M 191.927792 137.347932 
L 193.923822 137.815835 
L 192.557752 137.853259 
z
" clip-path="url(#p6a85c3f42a)" style="fill: #eeeeee; stroke: #000000; stroke-width: 0.3"/>
    <path d="M 167.330487 112.03867 
L 167.771463 112.146114 
L 167.700885 112.665993 
z
" clip-path="url(#p6a85c3f42a)" style="fill: #eeeeee; stroke: #000000; stroke-width: 0.3"/>
    <path d="M 32.503303 124.124963 
L 34.485826 119.793379 
L 35.735447 111.173647 
L 45.347881 112.759053 
L 48.846101 109.679555 
L 51.005876 105.927479 
L 57.369009 104.453229 
L 58.891058 100.937503 
L 61.755971 99.181804 
L 52.986485 88.809645 
L 70.183979 83.547943 
L 71.851492 82.220088 
L 82.257449 84.131914 
L 96.890709 93.10761 
L 119.344854 112.740153 
L 142.873557 114.905338 
L 144.88743 119.726767 
L 151.980529 120.075465 
L 151.758436 121.257134 
L 152.33112 121.042747 
L 153.331933 124.822139 
L 154.532492 125.230497 
L 154.117639 125.708184 
L 155.310508 127.11529 
L 155.240668 127.709109 
L 154.937561 128.14128 
L 154.708491 127.095731 
L 154.419347 128.23571 
L 155.288864 128.570055 
L 154.874011 129.354854 
L 158.375107 130.059265 
L 159.001574 131.067808 
L 157.345655 131.146075 
L 158.581829 131.431068 
L 158.234723 132.294564 
L 159.001574 132.151639 
L 159.086081 133.607251 
L 159.856416 133.625116 
L 159.534455 134.199355 
L 161.227379 133.728055 
L 162.320388 136.194332 
L 166.259378 139.261233 
L 164.800416 138.638488 
L 165.16219 141.040965 
L 166.758034 142.82538 
L 166.112712 145.835705 
L 165.177551 144.10956 
L 164.813684 146.193017 
L 165.769099 146.321474 
L 167.109338 150.059604 
L 166.14135 148.999158 
L 166.175567 149.349236 
L 168.946138 152.094985 
L 169.724155 156.092161 
L 173.300248 161.184324 
L 175.788386 160.590839 
L 176.076827 161.712963 
L 176.873706 160.519377 
L 177.75789 161.018756 
L 175.874292 163.9019 
L 178.367597 164.441265 
L 178.575066 166.300436 
L 186.85628 178.215182 
L 208.713042 181.535619 
L 209.412868 180.671809 
L 213.280955 188.246724 
L 207.623843 208.982396 
L 181.879926 219.433952 
L 156.625173 223.781885 
L 149.125382 228.285403 
L 144.208449 235.452994 
L 142.823 239.336067 
L 140.53816 240.845432 
L 138.899037 240.747114 
L 136.665637 237.417216 
L 133.340378 237.953654 
L 125.683151 237.034209 
L 123.408953 235.817634 
L 114.68647 236.063979 
L 112.679257 237.140628 
L 108.369019 234.860378 
L 106.242053 236.88889 
L 106.989775 237.452874 
L 105.84203 239.39441 
L 105.792357 241.236552 
L 106.640754 242.419621 
L 106.370225 243.802035 
L 105.554654 243.718844 
L 105.136891 245.143397 
L 103.018971 246.871895 
L 102.357584 243.112072 
L 99.304862 238.388805 
L 99.358637 240.036672 
L 98.831343 235.554156 
L 94.420927 231.582069 
L 91.8955 227.501105 
L 91.401736 224.929328 
L 89.465762 222.546003 
L 89.798897 221.121868 
L 88.833004 220.052065 
L 89.176618 218.684088 
L 88.250537 218.077516 
L 87.186869 214.102031 
L 85.605682 213.025005 
L 85.472293 211.265689 
L 84.714521 211.448589 
L 83.666919 209.333665 
L 79.799159 206.015381 
L 78.248009 205.712095 
L 78.570666 206.225085 
L 77.020915 205.267159 
L 71.993807 197.342565 
L 71.190645 195.187655 
L 71.965873 194.256104 
L 71.433687 190.663449 
L 69.90776 187.963394 
L 70.546594 188.00592 
L 71.722823 183.811636 
L 71.100672 184.202578 
L 70.609568 180.010981 
L 68.777659 177.586813 
L 68.767181 176.009122 
L 65.800365 169.377226 
L 61.360685 165.666077 
L 61.469067 164.954798 
L 60.762632 165.552329 
L 57.018908 163.279469 
L 57.252904 162.506492 
L 54.609157 158.222818 
L 55.535933 158.01141 
L 55.412318 154.833071 
L 52.787023 149.910721 
L 50.779114 148.511686 
L 50.72534 145.97863 
L 49.151834 145.051324 
L 45.026366 136.731993 
L 37.573707 125.206244 
L 38.026269 124.735362 
L 36.615495 124.053929 
L 34.495146 124.559685 
L 33.67452 123.839542 
L 33.141639 124.267888 
L 33.323225 124.559685 
L 32.849011 124.988031 
z
" clip-path="url(#p6a85c3f42a)" style="fill: #eeeeee; stroke: #000000; stroke-width: 0.3"/>
    <path d="M 94.15898 241.379309 
L 95.42961 242.934744 
L 96.543954 243.267259 
L 96.777341 242.238373 
L 97.843678 243.374359 
L 97.77606 244.650206 
L 96.979601 243.499836 
L 95.861404 243.74456 
z
" clip-path="url(#p6a85c3f42a)" style="fill: #eeeeee; stroke: #000000; stroke-width: 0.3"/>
    <path d="M 94.827404 241.428473 
L 95.629862 240.767457 
L 94.92378 240.322522 
L 95.049489 240.153651 
L 95.712978 240.579445 
L 96.259505 242.7946 
z
" clip-path="url(#p6a85c3f42a)" style="fill: #eeeeee; stroke: #000000; stroke-width: 0.3"/>
    <path d="M 48.969553 149.921781 
L 49.417223 149.317759 
L 49.30897 149.926883 
L 50.481594 150.918417 
L 49.380913 150.506234 
z
" clip-path="url(#p6a85c3f42a)" style="fill: #eeeeee; stroke: #000000; stroke-width: 0.3"/>
    <path d="M 52.875022 152.046061 
L 52.920421 151.778088 
L 53.327584 151.75809 
L 53.564344 152.278742 
z
" clip-path="url(#p6a85c3f42a)" style="fill: #eeeeee; stroke: #000000; stroke-width: 0.3"/>
    <path d="M 50.599622 150.879707 
L 50.97886 150.757199 
L 52.296743 152.030757 
L 50.924382 150.85674 
z
" clip-path="url(#p6a85c3f42a)" style="fill: #eeeeee; stroke: #000000; stroke-width: 0.3"/>
    <path d="M 49.407448 148.281994 
L 49.544339 147.922132 
L 49.822301 147.669463 
L 49.996206 149.248848 
z
" clip-path="url(#p6a85c3f42a)" style="fill: #eeeeee; stroke: #000000; stroke-width: 0.3"/>
    <path d="M 160.232856 132.722481 
L 161.339124 132.158445 
L 162.228895 132.436642 
z
" clip-path="url(#p6a85c3f42a)" style="fill: #eeeeee; stroke: #000000; stroke-width: 0.3"/>
    <path d="M 52.460169 150.44073 
L 52.599155 150.323752 
L 52.674582 151.235315 
z
" clip-path="url(#p6a85c3f42a)" style="fill: #eeeeee; stroke: #000000; stroke-width: 0.3"/>
    <path d="M 51.849064 150.945211 
L 51.971984 150.706581 
L 52.18849 150.83717 
z
" clip-path="url(#p6a85c3f42a)" style="fill: #eeeeee; stroke: #000000; stroke-width: 0.3"/>
    <path d="M 51.41606 151.476077 
L 52.512545 152.545451 
L 52.473437 152.891274 
z
" clip-path="url(#p6a85c3f42a)" style="fill: #eeeeee; stroke: #000000; stroke-width: 0.3"/>
    <path d="M 135.140937 113.849209 
L 137.895872 110.202759 
L 140.395356 104.361392 
L 144.939316 103.369554 
L 147.289354 104.458539 
L 149.252472 109.185016 
L 147.439727 108.825593 
L 145.201427 111.048755 
L 148.59602 111.191753 
L 149.095422 114.669479 
L 151.113105 117.532625 
L 150.754825 118.607947 
L 151.449656 119.653852 
L 144.88743 119.726767 
L 142.878878 114.906687 
z
" clip-path="url(#p6a85c3f42a)" style="fill: #eeeeee; stroke: #000000; stroke-width: 0.3"/>
    <path d="M 148.130928 106.482013 
L 149.429956 105.17656 
L 148.772757 104.590822 
L 149.355225 104.568283 
L 150.762506 107.430154 
L 149.700941 108.578642 
L 149.122661 108.267275 
z
" clip-path="url(#p6a85c3f42a)" style="fill: #eeeeee; stroke: #000000; stroke-width: 0.3"/>
    <path d="M 150.046168 110.358259 
L 151.073997 110.408574 
L 151.14564 110.799285 
z
" clip-path="url(#p6a85c3f42a)" style="fill: #eeeeee; stroke: #000000; stroke-width: 0.3"/>
    <path d="M 147.827821 104.600607 
L 148.672889 104.103778 
L 148.002422 104.699291 
z
" clip-path="url(#p6a85c3f42a)" style="fill: #eeeeee; stroke: #000000; stroke-width: 0.3"/>
    <path d="M 35.735447 111.173647 
L 37.41658 103.106473 
L 37.371344 99.899208 
L 39.932919 92.858025 
L 39.565713 91.248721 
L 40.970669 85.941639 
L 40.656688 82.88401 
L 41.419918 76.360176 
L 43.856882 76.032177 
L 45.320384 78.080677 
L 51.67376 80.216152 
L 68.562595 69.149285 
L 70.988463 78.297311 
L 70.310821 78.523386 
L 70.744546 80.056251 
L 72.521152 79.799923 
L 73.003666 80.93248 
L 70.183979 83.547943 
L 52.986485 88.809645 
L 61.755971 99.181804 
L 58.891058 100.937503 
L 57.369009 104.453229 
L 51.005876 105.927479 
L 48.846101 109.679555 
L 44.892864 112.864396 
z
" clip-path="url(#p6a85c3f42a)" style="fill: #eeeeee; stroke: #000000; stroke-width: 0.3"/>
    <path d="M -52.32193 102.485767 
L -50.442433 99.183425 
L -49.693836 96.189 
L -50.946238 90.297946 
L -48.891121 87.528791 
L -48.355022 87.079736 
L -48.011408 88.386464 
L -46.201151 88.682516 
L -41.35284 87.496593 
L -29.734198 89.959472 
L -28.655863 91.609044 
L -26.819063 92.058234 
L -25.166646 91.430388 
L -24.531099 92.907262 
L -20.262457 93.070185 
L -15.081002 95.75042 
L -11.003026 94.395197 
L -6.142838 90.4563 
L -5.32222 91.676251 
L -4.262037 91.455059 
L -5.199996 91.033519 
L -4.055314 90.277645 
L -3.788526 88.736542 
L -3.611128 89.132554 
L -3.319195 89.307812 
L -3.632077 88.624247 
L -2.141688 89.093425 
L 1.617819 87.808817 
L -2.083021 89.735729 
L -0.437582 89.88503 
L 2.864463 88.787588 
L 1.653435 87.834335 
L 2.677994 87.587625 
L 6.620478 89.307812 
L 9.34565 88.343499 
L 9.676692 88.350733 
L 9.950465 88.496637 
L 12.136467 90.857842 
L 9.475547 88.380505 
L 9.208759 90.241913 
L 8.423757 90.96674 
L 9.792626 91.987618 
L 10.742453 91.676251 
L 10.562266 92.603547 
L 11.337493 93.384531 
L 12.85652 92.515076 
L 12.852332 91.169209 
L 12.20072 90.857842 
L 13.26788 91.104981 
L 15.586576 93.304978 
L 18.381589 92.317708 
L 16.143907 93.395581 
L 16.699831 93.537231 
L 18.38019 92.773704 
L 19.091164 93.353902 
L 19.557698 92.532095 
L 19.265765 92.888978 
L 18.614856 92.82474 
L 19.944616 91.888934 
L 20.14994 93.466197 
L 22.493781 92.317708 
L 23.292755 92.603547 
L 24.566647 92.716699 
L 29.30655 90.657171 
L 35.197735 109.727131 
L 33.909185 111.596201 
L 32.94748 117.610035 
L 31.10789 121.958565 
L 31.3202 125.559301 
L 29.425437 127.483662 
L 29.79629 128.14128 
L 25.556981 125.053116 
L 20.968472 119.351496 
L 20.532671 114.959155 
L 16.56015 110.083596 
L 15.382643 104.276904 
L 13.321655 108.656481 
L 15.411976 110.991322 
L 15.791909 115.135249 
L 17.348645 117.169354 
L 17.880831 119.251955 
L 23.763485 126.386219 
L 24.086845 127.486213 
L 23.069272 127.152296 
L 24.086845 128.997971 
L 23.265524 128.997971 
L 26.200913 133.22187 
L 26.186941 134.495418 
L 27.554411 136.839186 
L 27.143755 137.524455 
L 27.085088 139.379905 
L 32.278412 149.085935 
L 37.410401 161.890166 
L 40.407845 165.98081 
L 42.508224 167.293633 
L 42.971342 168.140664 
L 40.580335 167.358436 
L 40.322395 167.978672 
L 40.37011 172.377338 
L 40.868775 173.454374 
L 42.136917 178.282598 
L 43.773148 180.336054 
L 46.692059 181.38407 
L 48.526354 184.300687 
L 52.43596 187.335537 
L 52.335156 188.071685 
L 5.579158 188.075479 
L 6.062555 186.216058 
L 5.474492 185.654227 
L 3.973735 188.085745 
L -49.810911 188.075479 
L -49.810911 112.95408 
z
M 37.989959 179.807425 
L 41.499979 176.116911 
L 39.853269 177.79959 
z
M 34.260832 182.802424 
L 34.695664 181.682558 
L 34.985099 180.916377 
z
M 28.853482 186.021251 
L 33.44151 184.91256 
L 31.215963 185.421713 
z
" clip-path="url(#p6a85c3f42a)" style="fill: #eeeeee; stroke: #000000; stroke-width: 0.3"/>
    <path d="M 31.788836 125.345343 
L 32.17784 125.217733 
L 32.91256 126.136519 
L 32.033972 126.031458 
z
" clip-path="url(#p6a85c3f42a)" style="fill: #eeeeee; stroke: #000000; stroke-width: 0.3"/>
    <path d="M 26.846235 130.282579 
L 27.832381 130.50972 
L 28.02793 131.003151 
L 27.019436 130.586294 
z
" clip-path="url(#p6a85c3f42a)" style="fill: #eeeeee; stroke: #000000; stroke-width: 0.3"/>
    <path d="M 18.445843 92.395976 
L 19.904805 91.430388 
L 21.09558 91.649876 
L 19.88595 91.572037 
z
" clip-path="url(#p6a85c3f42a)" style="fill: #eeeeee; stroke: #000000; stroke-width: 0.3"/>
    <path d="M 33.438807 125.735646 
L 33.868842 125.751975 
L 33.635523 126.26184 
z
" clip-path="url(#p6a85c3f42a)" style="fill: #eeeeee; stroke: #000000; stroke-width: 0.3"/>
    <path d="M 27.202421 137.952801 
L 27.37842 137.952801 
L 27.618664 138.808216 
z
" clip-path="url(#p6a85c3f42a)" style="fill: #eeeeee; stroke: #000000; stroke-width: 0.3"/>
    <path d="M 21.321166 91.676251 
L 21.569099 91.717941 
L 23.09022 92.460633 
z
" clip-path="url(#p6a85c3f42a)" style="fill: #eeeeee; stroke: #000000; stroke-width: 0.3"/>
    <path d="M 18.746152 93.037423 
L 18.894217 93.068052 
L 18.913766 93.174817 
z
" clip-path="url(#p6a85c3f42a)" style="fill: #eeeeee; stroke: #000000; stroke-width: 0.3"/>
    <path d="M 16.522175 50.294381 
L 18.084069 50.297381 
L 18.322923 47.968917 
L 24.672806 48.370898 
L 32.673012 44.893517 
L 27.173088 48.870695 
L 26.728902 50.407982 
L 27.69331 51.460264 
L 26.525449 50.883224 
L 25.580822 51.796721 
L 23.645895 51.363472 
L 23.097747 52.098711 
L 22.554919 50.042642 
L 17.760829 51.299725 
z
" clip-path="url(#p6a85c3f42a)" style="fill: #eeeeee; stroke: #000000; stroke-width: 0.3"/>
    <path d="M 15.596617 50.304646 
L 15.739524 50.194442 
L 15.797959 50.401344 
z
" clip-path="url(#p6a85c3f42a)" style="fill: #eeeeee; stroke: #000000; stroke-width: 0.3"/>
    <path d="M 16.358748 50.206746 
L 17.760829 51.299725 
L 22.554919 50.042642 
L 23.009936 52.073852 
L 23.645895 51.363472 
L 25.111611 52.278057 
L 23.464952 51.665996 
L 22.943408 52.359628 
L 22.575319 50.451042 
L 17.512484 51.510955 
L 16.54036 50.728716 
z
" clip-path="url(#p6a85c3f42a)" style="fill: #eeeeee; stroke: #000000; stroke-width: 0.3"/>
    <path d="M 26.993767 51.593059 
L 27.69331 51.460264 
L 27.776315 51.531204 
z
" clip-path="url(#p6a85c3f42a)" style="fill: #eeeeee; stroke: #000000; stroke-width: 0.3"/>
    <path d="M 15.442708 50.323756 
L 15.797959 50.401344 
L 15.864487 50.516409 
z
" clip-path="url(#p6a85c3f42a)" style="fill: #eeeeee; stroke: #000000; stroke-width: 0.3"/>
    <path d="M 16.947069 55.586232 
L 17.801731 55.257271 
L 19.265765 56.637479 
L 18.498922 56.637479 
L 18.264257 55.716131 
z
" clip-path="url(#p6a85c3f42a)" style="fill: #eeeeee; stroke: #000000; stroke-width: 0.3"/>
   </g>
   <g id="PatchCollection_2">
    <defs>
     <path id="m477e18d801" d="M 42.378019 -61.957995 
L 43.38163 -63.686681 
L 43.023349 -64.755208 
L 44.58242 -65.561982 
L 46.104468 -64.471826 
L 46.441517 -65.821822 
L 47.824305 -66.263726 
L 47.952915 -68.706043 
L 50.452407 -68.720626 
L 49.310867 -71.334197 
L 50.243075 -74.983355 
L 53.030828 -74.207064 
L 53.789192 -72.80736 
L 57.162347 -72.956463 
L 63.840361 -75.822849 
L 66.03473 -75.272372 
L 68.137736 -73.580953 
L 72.55397 -73.239542 
L 77.065112 -74.084974 
L 85.164054 -77.830841 
L 91.779094 -77.570457 
L 96.323046 -78.61631 
L 98.056193 -80.176992 
L 99.219008 -79.286985 
L 99.480673 -77.431076 
L 94.903003 -72.785752 
L 90.969281 -71.724772 
L 90.038849 -70.035518 
L 89.692935 -66.957358 
L 90.78125 -62.722608 
L 89.389588 -58.413301 
L 89.414424 -53.710178 
L 87.363744 -49.619931 
L 85.005287 -48.884421 
L 68.562595 -38.850715 
L 51.783746 -27.823008 
L 48.08064 -28.476675 
L 42.671445 -32.292634 
L 43.791247 -34.389609 
L 42.7251 -38.460955 
L 45.054291 -40.900836 
L 44.078623 -41.658759 
L 44.309238 -42.379142 
L 45.938604 -43.857438 
L 47.819868 -43.576795 
L 47.228261 -44.859814 
L 49.936184 -47.500387 
L 49.258542 -49.84034 
L 47.497014 -50.793551 
L 48.529452 -51.998229 
L 47.40299 -52.606516 
L 46.996762 -51.976087 
L 44.493485 -52.212417 
L 43.609309 -55.080654 
L 44.429232 -57.942095 
L 44.056285 -60.239083 
z
" style="stroke: #dd0000; stroke-width: 0.5"/>
    </defs>
    <g clip-path="url(#p6a85c3f42a)">
     <use xlink:href="#m477e18d801" x="0" y="108" style="fill: #ff6b6b; stroke: #dd0000; stroke-width: 0.5"/>
    </g>
   </g>
  </g>
 </g>
 <defs>
  <clipPath id="p6a85c3f42a">
   <rect x="0" y="0" width="141.858691" height="108"/>
  </clipPath>
 </defs>
</svg>
