<?xml version="1.0" encoding="utf-8" standalone="no"?>
<!DOCTYPE svg PUBLIC "-//W3C//DTD SVG 1.1//EN"
  "http://www.w3.org/Graphics/SVG/1.1/DTD/svg11.dtd">
<svg xmlns:xlink="http://www.w3.org/1999/xlink" width="170.849096pt" height="108pt" viewBox="0 0 170.849096 108" xmlns="http://www.w3.org/2000/svg" version="1.1">
 <metadata>
  <rdf:RDF xmlns:dc="http://purl.org/dc/elements/1.1/" xmlns:cc="http://creativecommons.org/ns#" xmlns:rdf="http://www.w3.org/1999/02/22-rdf-syntax-ns#">
   <cc:Work>
    <dc:type rdf:resource="http://purl.org/dc/dcmitype/StillImage"/>
    <dc:date>2025-09-05T15:49:30.131866</dc:date>
    <dc:format>image/svg+xml</dc:format>
    <dc:creator>
     <cc:Agent>
      <dc:title>Matplotlib v3.10.3, https://matplotlib.org/</dc:title>
     </cc:Agent>
    </dc:creator>
   </cc:Work>
  </rdf:RDF>
 </metadata>
 <defs>
  <style type="text/css">*{stroke-linejoin: round; stroke-linecap: butt}</style>
 </defs>
 <g id="figure_1">
  <g id="patch_1">
   <path d="M 0 108 
L 170.849096 108 
L 170.849096 0 
L 0 0 
z
" style="fill: #ffffff"/>
  </g>
  <g id="axes_1">
   <g id="PatchCollection_1">
    <path d="M -44.180421 35.510212 
L -41.175183 30.239135 
L -39.62428 30.112717 
L -37.737811 28.825925 
L -35.498077 29.087723 
L -34.314552 28.208544 
L -33.171497 28.487817 
L -33.1226 26.070718 
L -35.150497 24.843199 
L -34.069415 23.807116 
L -32.886739 23.676646 
L -33.158012 20.537703 
L -27.840698 20.846827 
L -27.641089 22.197141 
L -26.50837 21.66844 
L -22.003605 23.572183 
L -19.907624 22.732666 
L -14.830814 22.560407 
L -14.072007 22.921543 
L -15.044119 24.512764 
L -13.631903 25.877575 
L -12.461243 25.974786 
L -11.328515 24.422797 
L -10.511112 24.282947 
L -8.547082 26.99808 
L -6.917766 25.119485 
L -4.921692 24.296594 
L -0.484383 25.883969 
L 0.289181 24.689702 
L 2.665914 23.867239 
L 2.891448 23.141979 
L 2.047917 22.336563 
L 3.244714 22.007835 
L 5.610076 23.051584 
L 5.460212 24.238607 
L 7.062762 26.711556 
L 6.659751 28.915892 
L 7.644507 28.985817 
L 8.213608 30.248517 
L 10.509409 31.311027 
L 7.854868 34.522247 
L 9.006562 34.57874 
L 9.445402 33.908909 
L 10.906939 34.147678 
L 11.25093 38.377061 
L 13.805989 40.270153 
L 12.153066 43.074816 
L 12.285431 46.465961 
L 13.130235 47.635707 
L 14.669335 47.463876 
L 14.145762 49.328825 
L 15.636814 50.215248 
L 14.127212 50.874419 
L 13.824539 52.39017 
L 16.044459 53.941308 
L 16.324796 56.003871 
L 15.008268 55.154115 
L 14.667647 55.624195 
L 13.811471 54.996575 
L 11.540958 55.35451 
L 11.401422 57.06724 
L 13.544202 57.578252 
L 13.875965 58.971627 
L 13.007561 58.855233 
L 11.937647 62.592366 
L 10.187338 62.290503 
L 9.611075 62.743735 
L 8.942484 61.669277 
L 7.970372 61.618535 
L 6.573329 65.094737 
L 4.39051 65.778215 
L 3.501867 64.201491 
L 1.41052 64.244981 
L 2.513734 61.226277 
L 1.088873 57.566313 
L 1.341809 56.262896 
L -0.111302 55.866372 
L 0.106646 55.261779 
L -0.477212 55.502463 
L -0.897085 54.451462 
L -3.247266 55.613535 
L -3.951269 54.771023 
L -5.80106 55.014479 
L -7.266391 56.523835 
L -8.742261 56.726359 
L -6.674946 53.548406 
L -7.636095 52.369279 
L -7.590567 50.399652 
L -8.832476 50.154489 
L -8.251571 48.317477 
L -9.529309 47.610551 
L -12.529954 42.742458 
L -18.325942 42.656972 
L -18.421215 43.237051 
L -20.21241 43.62761 
L -21.316887 43.17885 
L -22.912487 43.574954 
L -25.293022 47.977446 
L -26.873644 48.598235 
L -26.883768 49.378709 
L -28.162558 50.483439 
L -29.673212 50.503695 
L -28.503473 49.315566 
L -29.333977 49.225921 
L -29.116225 48.639753 
L -29.789058 49.343767 
L -29.673212 47.901828 
L -30.543549 48.47793 
L -30.4526 47.220973 
L -31.409898 47.13637 
L -31.18717 46.150682 
L -31.68308 46.719062 
L -32.017339 46.150682 
L -33.141265 46.629426 
L -31.794277 44.342466 
L -32.529182 43.891924 
L -33.163176 44.70673 
L -32.80734 43.03683 
L -34.092591 43.743872 
L -35.850519 42.386536 
L -35.373861 40.947617 
L -36.624262 42.136084 
L -36.498455 41.116824 
L -37.188876 41.719782 
L -37.364143 41.090974 
L -39.066306 40.824738 
L -39.739139 38.402152 
L -40.740586 38.638496 
L -39.455335 35.242978 
L -41.083467 37.288882 
L -40.68814 35.912413 
L -41.577061 36.824908 
L -41.415075 35.401434 
L -41.971727 35.800953 
L -42.061681 35.070413 
L -40.797012 34.049139 
L -40.963974 33.819165 
L -42.255531 34.612816 
L -42.867949 34.105542 
L -43.202542 36.256528 
z
" clip-path="url(#p56c7ea22e8)" style="fill: #eeeeee; stroke: #000000; stroke-width: 0.3"/>
    <path d="M -14.786273 68.012428 
L -13.489414 65.585494 
L -7.762562 61.002433 
L -7.73769 58.833913 
L -5.362221 57.585925 
L -5.046472 55.098265 
L -3.487133 54.88806 
L -3.247266 55.613535 
L -0.897085 54.451462 
L -0.477212 55.502463 
L 0.106646 55.261779 
L -0.111302 55.866372 
L 1.341809 56.262896 
L 1.088873 57.566313 
L 2.513734 61.226277 
L 1.41052 64.244981 
L 3.501867 64.201491 
L 4.39051 65.778215 
L 6.129856 65.283622 
L 7.970372 61.618535 
L 8.942484 61.669277 
L 10.099236 63.206348 
L 11.253459 67.200163 
L 10.817988 69.185342 
L 8.523875 71.532087 
L 10.159096 71.875534 
L 10.211795 72.792864 
L 14.269701 73.356318 
L 15.311789 75.943531 
L 17.695693 77.197493 
L 18.08606 76.869401 
L 18.549348 81.232455 
L 17.031744 83.254515 
L 17.245898 84.559639 
L 16.789348 84.695439 
L 17.31824 89.188674 
L 11.472091 87.314608 
L 4.557228 83.588729 
L -5.465211 74.475808 
L -9.174909 73.181253 
L -8.938909 72.263378 
L -13.782827 69.813259 
z
" clip-path="url(#p56c7ea22e8)" style="fill: #eeeeee; stroke: #000000; stroke-width: 0.3"/>
    <path d="M 8.523875 71.532087 
L 10.701644 69.366125 
L 11.232803 67.39885 
L 9.611075 62.743735 
L 10.187338 62.290503 
L 11.703262 62.856721 
L 13.007561 58.855233 
L 13.875965 58.971627 
L 13.544202 57.578252 
L 11.401422 57.06724 
L 11.495854 55.412711 
L 13.811471 54.996575 
L 16.324796 56.003871 
L 16.044459 53.941308 
L 13.824539 52.39017 
L 14.127212 50.874419 
L 15.636814 50.215248 
L 14.145762 49.328825 
L 14.669335 47.463876 
L 13.130235 47.635707 
L 12.285431 46.465961 
L 12.153066 43.074816 
L 13.655489 41.258687 
L 14.96611 40.848945 
L 16.308774 38.988477 
L 17.637945 38.81111 
L 18.764343 40.514459 
L 21.600155 41.432861 
L 22.044901 39.74976 
L 24.429653 39.616526 
L 24.42754 37.197934 
L 26.24825 38.038738 
L 26.402959 36.934437 
L 27.798313 36.601229 
L 28.218603 37.400458 
L 27.75489 38.353613 
L 28.413366 39.128113 
L 27.928574 40.516596 
L 29.756446 41.028664 
L 30.881163 39.492451 
L 33.198036 38.849905 
L 34.760328 40.115377 
L 36.937248 40.084676 
L 37.472209 41.686342 
L 38.343142 42.262576 
L 38.320798 43.411861 
L 39.688123 43.894515 
L 39.704561 44.620839 
L 40.64569 45.218394 
L 42.041672 44.698652 
L 42.108916 45.441602 
L 43.173772 46.036178 
L 44.975923 44.094481 
L 48.199997 43.12428 
L 51.771848 43.409303 
L 51.897891 43.906025 
L 52.607377 43.291416 
L 55.905849 47.454074 
L 56.894611 46.813665 
L 57.123514 48.751089 
L 56.196089 50.392408 
L 57.463711 51.476239 
L 58.386502 57.370184 
L 57.535376 57.736642 
L 57.536224 58.76676 
L 56.067305 59.56471 
L 54.836359 62.585551 
L 54.581107 65.573984 
L 52.524324 68.590131 
L 52.217858 70.506457 
L 54.116546 78.038512 
L 54.646449 77.992885 
L 54.800947 78.830281 
L 56.108403 78.939645 
L 56.26312 82.520517 
L 53.224175 82.674889 
L 52.68644 82.045066 
L 53.167749 80.805906 
L 52.221407 81.036548 
L 51.812791 82.859541 
L 48.474191 81.881238 
L 47.608838 82.218976 
L 46.18583 81.650258 
L 48.41345 81.650258 
L 48.520992 81.519994 
L 48.168476 80.827729 
L 47.793062 80.747152 
L 48.290302 81.588484 
L 46.965878 80.974774 
L 46.290729 81.628773 
L 45.178077 81.31252 
L 44.235381 81.506562 
L 43.961872 81.271555 
L 42.50036 81.712361 
L 41.603804 81.373955 
L 40.596051 81.937632 
L 40.707916 81.261489 
L 39.60556 82.359981 
L 44.702087 81.537453 
L 46.236285 81.937632 
L 38.91978 82.787694 
L 37.964473 82.066551 
L 35.421185 81.94972 
L 34.789181 82.67757 
L 36.519227 82.493933 
L 36.180653 82.162573 
L 38.02422 82.787694 
L 31.099396 83.601823 
L 22.518883 86.637788 
L 18.002583 89.26114 
L 17.048181 89.002635 
L 17.031744 83.254515 
L 18.549348 81.232455 
L 18.08606 76.869401 
L 17.695693 77.197493 
L 15.311789 75.943531 
L 14.269701 73.356318 
L 10.211795 72.792864 
L 10.159096 71.875534 
z
" clip-path="url(#p56c7ea22e8)" style="fill: #eeeeee; stroke: #000000; stroke-width: 0.3"/>
    <path d="M 52.104891 82.874649 
L 52.449445 82.500311 
L 53.38351 83.095555 
z
" clip-path="url(#p56c7ea22e8)" style="fill: #eeeeee; stroke: #000000; stroke-width: 0.3"/>
    <path d="M -21.214028 3.198268 
L -19.63361 3.532755 
L -17.594121 2.166665 
L -17.800264 -0.136169 
L -16.832785 -3.123744 
L -15.917589 -3.123744 
L -15.179438 -3.967749 
L -10.209704 0.492301 
L -8.661321 -2.231777 
L -3.295746 -1.668116 
L 1.955597 -2.293393 
L 1.728798 -3.512809 
L 2.505723 -4.416501 
L 2.564743 -2.74811 
L 33.875902 -2.736172 
L 35.162075 -9.483494 
L 32.959017 -11.264442 
L 25.048075 -81.118062 
L 39.499266 -81.125744 
L 88.185114 -49.002536 
L 88.250873 -46.00813 
L 91.555887 -44.842435 
L 93.337383 -42.423199 
L 95.728458 -41.672147 
L 96.785719 -42.172499 
L 98.413778 -40.379184 
L 104.926837 -38.431736 
L 105.4327 -34.865782 
L 104.154538 -32.779976 
L 105.629152 -31.626641 
L 113.327629 -32.835405 
L 112.963399 -10.342203 
L 111.956723 -9.370929 
L 110.412133 -4.556351 
L 107.600353 -2.750668 
L 107.441842 -1.579214 
L 103.578691 -2.177206 
L 103.306373 -1.456641 
L 89.694292 -0.998714 
L 86.775427 1.413476 
L 84.298355 1.838572 
L 80.637129 1.374895 
L 80.614369 2.075848 
L 76.901294 0.799931 
L 75.359233 1.319887 
L 75.015242 0.682036 
L 72.960996 0.693975 
L 70.033704 3.021536 
L 64.989352 5.498751 
L 62.540946 5.708527 
L 62.223933 8.096839 
L 61.277966 8.303842 
L 58.750724 7.274376 
L 57.643717 7.75788 
L 55.441924 9.587647 
L 55.213862 12.466295 
L 53.808604 12.836598 
L 52.018461 12.085753 
L 52.331045 15.427228 
L 50.700253 15.649999 
L 50.692659 16.450085 
L 46.433251 14.651869 
L 46.870826 14.121253 
L 46.354627 13.726008 
L 43.337757 16.866651 
L 44.473217 19.334698 
L 44.099932 20.145445 
L 42.243182 20.197037 
L 43.042663 21.688052 
L 42.517401 22.501999 
L 42.888581 23.556837 
L 42.219362 23.447687 
L 41.629606 24.860254 
L 39.991432 26.039167 
L 37.315387 26.264718 
L 34.680236 27.508441 
L 35.701669 28.082761 
L 36.263183 30.860997 
L 35.331541 33.341412 
L 33.930705 33.74476 
L 34.524678 35.625905 
L 34.114929 38.178374 
L 33.781053 39.084623 
L 30.881163 39.492451 
L 29.756446 41.028664 
L 27.928574 40.516596 
L 28.413366 39.128113 
L 27.75489 38.353613 
L 28.218603 37.400458 
L 27.798313 36.601229 
L 26.402959 36.934437 
L 26.24825 38.038738 
L 24.42754 37.197934 
L 24.429653 39.616526 
L 22.044901 39.74976 
L 21.600155 41.432861 
L 18.764343 40.514459 
L 17.637945 38.81111 
L 16.308774 38.988477 
L 14.96611 40.848945 
L 13.655489 41.258687 
L 13.601534 39.886839 
L 11.704102 39.101678 
L 11.160298 38.160891 
L 10.906939 34.147678 
L 9.445402 33.908909 
L 9.006562 34.57874 
L 7.891545 34.651859 
L 10.509409 31.311027 
L 8.213608 30.248517 
L 7.644507 28.985817 
L 6.659751 28.915892 
L 6.883596 25.989282 
L 6.048916 25.719391 
L 5.610076 23.051584 
L 4.211769 22.252999 
L 2.165533 22.189039 
L 2.891448 23.141979 
L 2.665914 23.867239 
L 0.289181 24.689702 
L -0.484383 25.883969 
L -4.921692 24.296594 
L -6.917766 25.119485 
L -8.547082 26.99808 
L -10.511112 24.282947 
L -11.328515 24.422797 
L -12.461243 25.974786 
L -13.631903 25.877575 
L -15.044119 24.512764 
L -14.072007 22.921543 
L -13.983481 22.131482 
L -14.717839 21.609174 
L -14.073696 18.08586 
L -15.250263 16.920371 
L -15.903256 14.865911 
L -16.948298 14.478124 
L -17.65735 15.307624 
L -19.855774 12.030967 
L -18.75677 10.99915 
L -19.039636 8.221128 
L -20.868144 6.364068 
L -20.405484 4.296175 
z
" clip-path="url(#p56c7ea22e8)" style="fill: #eeeeee; stroke: #000000; stroke-width: 0.3"/>
    <path d="M 100.621893 59.939064 
L 101.42201 50.375354 
L 103.925219 50.0609 
L 104.386402 47.073111 
L 106.010235 45.46633 
L 105.963867 44.231138 
L 107.490747 43.860835 
L 108.113811 43.017473 
L 108.750359 41.385964 
L 107.97469 40.237959 
L 108.624731 38.999566 
L 109.606959 39.231933 
L 110.136438 37.645621 
L 109.260439 35.930969 
L 109.19552 33.417517 
L 107.126517 30.883381 
L 108.746141 28.076367 
L 108.231843 26.872726 
L 108.538733 21.8198 
L 110.88428 19.90241 
L 112.18689 17.873955 
L 112.488731 13.94047 
L 115.596445 12.111338 
L 118.45292 11.456004 
L 121.477166 11.726324 
L 123.876675 10.579812 
L 128.939577 12.555618 
L 130.78768 12.675642 
L 135.422706 17.880779 
L 136.495989 17.875234 
L 137.55241 16.874324 
L 139.133244 16.914406 
L 142.657463 14.994029 
L 144.950735 15.37052 
L 149.635082 18.473432 
L 157.066291 19.481587 
L 161.385568 15.779404 
L 165.914774 14.748015 
L 172.155507 14.836059 
L 177.19396 16.879439 
L 180.579907 17.313488 
L 181.300772 15.839948 
L 183.292204 14.765499 
L 183.594885 13.807228 
L 186.742229 13.321167 
L 187.5727 11.989606 
L 189.835618 12.033525 
L 193.5685 17.199438 
L 194.580242 23.037516 
L 197.012627 23.306558 
L 198.504094 24.712301 
L 197.459477 28.487817 
L 198.107829 29.148267 
L 197.980521 30.097577 
L 194.388856 32.378026 
L 192.894859 32.065066 
L 191.039162 34.206515 
L 189.276633 37.46804 
L 188.4293 41.329471 
L 186.75909 42.221223 
L 186.475809 46.372372 
L 183.701962 47.726309 
L 184.052691 48.680743 
L 183.029153 52.83402 
L 181.275475 54.099492 
L 179.732574 54.067297 
L 180.018393 54.999982 
L 178.575822 55.909433 
L 178.290851 59.421451 
L 176.878635 61.416441 
L 176.895497 62.593225 
L 174.575247 65.175323 
L 175.681413 66.692781 
L 173.148698 68.370124 
L 172.917682 70.27579 
L 171.583037 71.838009 
L 169.492106 72.017513 
L 168.865674 69.488278 
L 165.12899 66.268114 
L 164.454501 68.381634 
L 162.128345 68.344538 
L 161.574425 67.284156 
L 159.385701 69.099212 
L 158.683386 69.041019 
L 157.904349 71.214654 
L 155.0327 73.007755 
L 152.109618 76.45838 
L 151.075116 76.856612 
L 150.776661 78.04512 
L 151.467172 78.939216 
L 150.610564 82.532027 
L 148.415109 86.251033 
L 145.575071 83.919758 
L 146.977164 86.746228 
L 146.447399 87.57379 
L 140.491163 87.765488 
L 140.379632 86.233574 
L 140.030437 87.374707 
L 138.228025 87.14003 
L 138.654237 87.732254 
L 138.228025 87.934357 
L 136.52122 85.844806 
L 137.441344 87.817526 
L 136.294177 88.497704 
L 136.294177 86.797589 
L 135.63097 86.069738 
L 135.848053 87.084304 
L 135.124439 86.459184 
L 136.128871 88.814963 
L 135.686736 89.009351 
L 134.864202 88.800862 
L 134.184402 85.358678 
L 133.615465 85.214982 
L 134.881464 89.123162 
L 133.615465 89.173517 
L 133.782761 87.084304 
L 133.448168 88.610508 
L 133.113575 87.877955 
L 133.387753 89.322914 
L 132.77567 89.321577 
L 132.638907 88.122368 
L 132.268469 87.934357 
L 132.424484 89.336684 
L 129.984757 89.685503 
L 130.490628 88.497704 
L 129.923681 88.835441 
L 129.705937 87.990759 
L 129.594406 89.624397 
L 128.698185 89.854371 
L 128.501676 88.707868 
L 128.281933 89.664018 
L 127.685113 88.666911 
L 127.463381 89.347757 
L 126.879841 89.056686 
L 123.498757 85.107549 
L 122.769163 82.813205 
L 123.665384 82.674889 
L 122.602535 82.500311 
L 122.395405 81.011367 
L 124.334563 80.697466 
L 123.976076 79.918584 
L 124.629322 79.682909 
L 124.840434 79.392168 
L 123.075873 80.247592 
L 123.159522 80.585338 
L 121.235626 79.711778 
L 121.438107 79.053754 
L 123.777576 78.975866 
L 123.270384 78.434681 
L 122.279893 78.854002 
L 122.374162 77.870996 
L 121.906795 78.754292 
L 120.67399 78.666668 
L 120.458229 77.304629 
L 121.989114 76.340089 
L 119.98489 77.516807 
L 117.563094 74.452648 
L 114.77086 72.637378 
L 106.923923 72.212685 
L 106.445274 71.930682 
L 110.190164 70.558569 
L 107.508792 71.249489 
L 107.230633 70.62974 
L 106.587339 71.042683 
L 106.321792 71.885352 
L 106.441953 72.317099 
L 100.889129 72.559169 
L 101.610867 63.406735 
z
" clip-path="url(#p56c7ea22e8)" style="fill: #eeeeee; stroke: #000000; stroke-width: 0.3"/>
    <path d="M 137.061606 88.82403 
L 137.807801 87.704053 
L 138.172268 88.041452 
L 138.648257 88.041452 
L 138.369429 88.677992 
z
" clip-path="url(#p56c7ea22e8)" style="fill: #eeeeee; stroke: #000000; stroke-width: 0.3"/>
    <path d="M 138.68411 88.303324 
L 140.703596 88.101551 
L 139.458179 88.512473 
z
" clip-path="url(#p56c7ea22e8)" style="fill: #eeeeee; stroke: #000000; stroke-width: 0.3"/>
    <path d="M 85.103529 39.566428 
L 85.205548 36.877086 
L 86.186087 34.404352 
L 86.690269 34.557849 
L 86.837816 33.683358 
L 87.921215 34.116127 
L 87.497973 33.172354 
L 88.282068 32.975366 
L 88.095739 32.198308 
L 89.685017 31.961246 
L 90.576189 30.435479 
L 91.897349 31.137497 
L 95.01181 30.928579 
L 97.379276 28.964497 
L 98.254427 26.523529 
L 98.873273 26.266426 
L 98.094235 24.287633 
L 99.186069 23.756803 
L 102.034949 22.799605 
L 108.170294 28.60379 
L 107.126517 30.883381 
L 109.19552 33.417517 
L 109.260439 35.930969 
L 110.136438 37.645621 
L 109.606959 39.231933 
L 108.624731 38.999566 
L 107.97469 40.237959 
L 108.750359 41.385964 
L 108.113811 43.017473 
L 107.490747 43.860835 
L 105.963867 44.231138 
L 106.010235 45.46633 
L 104.386402 47.073111 
L 103.925219 50.0609 
L 101.42201 50.375354 
L 100.621893 59.939064 
L 101.610867 63.406735 
L 100.889129 72.559169 
L 92.044619 73.833568 
L 93.371955 73.310691 
L 91.607313 70.003126 
L 91.329089 67.414197 
L 92.093793 67.374123 
L 91.893972 50.437392 
L 89.652133 46.539509 
L 89.690074 42.624357 
z
" clip-path="url(#p56c7ea22e8)" style="fill: #eeeeee; stroke: #000000; stroke-width: 0.3"/>
    <path d="M 148.255782 87.751388 
L 149.006121 84.828252 
L 150.610564 82.532027 
L 151.467172 78.939216 
L 150.776661 78.04512 
L 150.988278 76.992403 
L 155.0327 73.007755 
L 157.904349 71.214654 
L 158.683386 69.041019 
L 159.385701 69.099212 
L 161.574425 67.284156 
L 162.128345 68.344538 
L 164.454501 68.381634 
L 165.12899 66.268114 
L 168.865674 69.488278 
L 169.358052 71.892794 
L 170.650546 72.050772 
L 172.917682 70.27579 
L 173.148698 68.370124 
L 175.681413 66.692781 
L 174.575247 65.175323 
L 176.895497 62.593225 
L 176.878635 61.416441 
L 178.290851 59.421451 
L 178.575822 55.909433 
L 180.018393 54.999982 
L 179.732574 54.067297 
L 181.275475 54.099492 
L 183.205366 52.590136 
L 184.052691 48.680743 
L 183.701962 47.726309 
L 186.475809 46.372372 
L 186.75909 42.221223 
L 188.4293 41.329471 
L 189.276633 37.46804 
L 191.039162 34.206515 
L 192.894859 32.065066 
L 194.388856 32.378026 
L 198.065679 29.899954 
L 197.459477 28.487817 
L 198.49061 24.624471 
L 197.012627 23.306558 
L 194.580242 23.037516 
L 193.5685 17.199438 
L 196.450272 17.173423 
L 197.564865 19.766189 
L 199.721555 20.822949 
L 200.364849 24.832969 
L 201.600012 25.395779 
L 202.303167 29.964764 
L 201.369845 32.838288 
L 202.324247 38.291146 
L 206.75397 42.667203 
L 199.341312 43.240888 
L 194.521221 42.775288 
L 192.598077 45.461214 
L 195.890439 49.456951 
L 201.620243 53.785038 
L 204.792044 60.421718 
L 205.788604 60.80929 
L 204.727125 64.131995 
L 203.023192 65.305372 
L 199.338775 72.971947 
L 196.198177 75.276266 
L 198.075794 76.712496 
L 198.075794 79.762537 
L 197.279895 81.451604 
L 198.413879 82.491524 
L 198.890244 86.967778 
L 201.147256 88.689889 
L 201.940626 91.095049 
L 202.74496 91.579197 
L 201.408626 91.88469 
L 201.8892 93.041862 
L 210.107881 101.478673 
L 210.091019 104.389506 
L 211.04879 106.760979 
L 210.205683 107.004443 
L 209.874336 108.470516 
L 210.625548 110.91938 
L 209.924082 111.451704 
L 209.467107 110.488318 
L 206.962218 109.162731 
L 205.136034 108.800737 
L 203.948928 109.249496 
L 202.931288 108.274601 
L 200.319322 108.548758 
L 200.030134 107.644852 
L 199.278074 108.061417 
L 197.624726 106.87866 
L 196.570834 107.511395 
L 187.284352 107.272626 
L 187.203412 106.602795 
L 186.217815 106.265115 
L 182.841136 106.648422 
L 173.927735 105.940645 
L 171.434641 106.121428 
L 171.19351 107.233831 
L 160.335045 107.23511 
L 158.865497 106.416047 
L 160.047431 99.934184 
L 159.833 98.110184 
L 157.488873 95.903125 
L 158.936778 95.170242 
L 157.359419 95.400216 
L 156.704182 93.587965 
L 157.343487 94.161047 
L 157.317595 93.132728 
L 158.324026 93.587965 
L 157.7677 92.850716 
L 158.486673 92.450867 
L 157.299673 92.42703 
L 158.406345 90.980388 
L 156.97703 91.992602 
L 156.154497 91.180816 
L 156.594641 92.186991 
L 155.823892 91.848577 
L 156.141224 92.794314 
L 155.053135 92.794314 
L 154.911731 91.836489 
L 153.969704 92.394803 
L 152.015936 91.268448 
L 151.726487 87.534846 
L 151.002872 86.821764 
L 151.17282 87.606694 
L 150.607872 87.14003 
L 150.524884 87.632543 
L 149.437464 86.008641 
L 149.988479 87.866206 
z
" clip-path="url(#p56c7ea22e8)" style="fill: #eeeeee; stroke: #000000; stroke-width: 0.3"/>
    <path d="M 80.079833 5.081335 
L 80.637129 1.374895 
L 86.576454 1.510051 
L 89.694292 -0.998714 
L 103.306373 -1.456641 
L 103.578691 -2.177206 
L 107.441842 -1.579214 
L 107.600353 -2.750668 
L 110.207262 -4.312896 
L 111.956723 -9.370929 
L 112.963399 -10.342203 
L 113.327629 -32.835405 
L 126.099963 -35.372949 
L 139.8735 -47.112002 
L 176.469726 -68.933451 
L 188.815449 -66.147336 
L 194.802823 -61.499036 
L 201.032739 -64.629126 
L 202.599942 -56.359559 
L 202.701961 -52.216091 
L 206.167159 -47.756248 
L 205.63684 -47.258247 
L 205.848465 -46.11643 
L 209.112161 -42.687554 
L 207.20082 -39.116699 
L 205.04666 -14.47331 
L 196.04895 -4.843726 
L 191.684145 1.179616 
L 190.247896 5.06471 
L 188.548181 5.96968 
L 189.835618 12.033525 
L 187.5727 11.989606 
L 186.742229 13.321167 
L 183.594885 13.807228 
L 183.292204 14.765499 
L 181.300772 15.839948 
L 180.579907 17.313488 
L 177.19396 16.879439 
L 172.155507 14.836059 
L 165.914774 14.748015 
L 161.385568 15.779404 
L 157.066291 19.481587 
L 149.635082 18.473432 
L 144.950735 15.37052 
L 142.657463 14.994029 
L 139.133244 16.914406 
L 137.55241 16.874324 
L 136.495989 17.875234 
L 135.422706 17.880779 
L 130.243028 12.365669 
L 128.939577 12.555618 
L 123.876675 10.579812 
L 121.477166 11.726324 
L 118.19155 11.483718 
L 115.154652 12.283804 
L 112.488731 13.94047 
L 112.18689 17.873955 
L 110.88428 19.90241 
L 108.538733 21.8198 
L 108.231843 26.872726 
L 108.746141 28.076367 
L 108.170294 28.60379 
L 102.034949 22.799605 
L 98.1659 24.144375 
L 98.87833 26.124867 
L 98.330309 26.947338 
L 95.569955 23.272449 
L 97.145731 22.594095 
L 96.037036 20.271648 
L 94.916537 20.118159 
L 93.87276 21.09284 
L 91.589611 20.877949 
L 86.855518 17.575921 
L 86.855518 14.803229 
L 89.181675 14.987634 
L 87.11436 14.0008 
L 86.148994 12.769231 
L 83.680357 12.159094 
L 81.843626 9.269786 
L 82.003818 7.516124 
z
" clip-path="url(#p56c7ea22e8)" style="fill: #eeeeee; stroke: #000000; stroke-width: 0.3"/>
    <path d="M 33.781053 39.084623 
L 34.524678 35.625905 
L 33.930705 33.74476 
L 35.331541 33.341412 
L 36.263183 30.860997 
L 35.701669 28.082761 
L 34.680236 27.508441 
L 37.315387 26.264718 
L 39.991432 26.039167 
L 41.629606 24.860254 
L 42.219362 23.447687 
L 42.888581 23.556837 
L 42.517401 22.501999 
L 43.042663 21.688052 
L 42.243182 20.197037 
L 44.099932 20.145445 
L 44.473217 19.334698 
L 43.533776 16.452222 
L 44.28626 16.394021 
L 46.383293 13.71812 
L 46.870826 14.121253 
L 46.433251 14.651869 
L 50.692659 16.450085 
L 50.700253 15.649999 
L 52.331045 15.427228 
L 52.018461 12.085753 
L 53.808604 12.836598 
L 55.213862 12.466295 
L 55.441924 9.587647 
L 57.643717 7.75788 
L 58.750724 7.274376 
L 61.277966 8.303842 
L 62.223933 8.096839 
L 62.540946 5.708527 
L 64.989352 5.498751 
L 70.033704 3.021536 
L 72.960996 0.693975 
L 75.015242 0.682036 
L 75.359233 1.319887 
L 76.901294 0.799931 
L 80.614369 2.075848 
L 80.127889 5.498751 
L 82.003818 7.516124 
L 81.843626 9.269786 
L 83.680357 12.159094 
L 86.148994 12.769231 
L 87.11436 14.0008 
L 89.181675 14.987634 
L 86.855518 14.803229 
L 86.855518 17.575921 
L 91.589611 20.877949 
L 93.87276 21.09284 
L 94.916537 20.118159 
L 96.037036 20.271648 
L 97.145731 22.594095 
L 95.569955 23.272449 
L 98.330309 26.947338 
L 97.492251 28.855348 
L 95.235239 30.822193 
L 91.897349 31.137497 
L 90.576189 30.435479 
L 89.685017 31.961246 
L 88.265206 31.988532 
L 88.282068 32.975366 
L 87.497973 33.172354 
L 87.9482 34.078817 
L 86.837816 33.683358 
L 86.690269 34.557849 
L 82.810256 34.895315 
L 82.801829 34.318016 
L 76.371187 33.000102 
L 73.654035 35.103812 
L 72.079523 34.296267 
L 55.686221 34.360862 
L 54.909916 37.361663 
L 56.255534 39.120011 
L 55.653966 39.762978 
L 56.358393 40.443469 
L 56.529964 44.057385 
L 56.029151 44.905442 
L 56.894611 46.813665 
L 56.287144 47.612679 
L 52.607377 43.291416 
L 51.897891 43.906025 
L 51.771848 43.409303 
L 48.199997 43.12428 
L 44.975923 44.094481 
L 43.173772 46.036178 
L 42.108916 45.441602 
L 42.041672 44.698652 
L 40.64569 45.218394 
L 39.704561 44.620839 
L 39.688123 43.894515 
L 38.320798 43.411861 
L 38.343142 42.262576 
L 37.472209 41.686342 
L 37.071727 40.173363 
L 34.760328 40.115377 
z
" clip-path="url(#p56c7ea22e8)" style="fill: #eeeeee; stroke: #000000; stroke-width: 0.3"/>
    <path d="M 77.477141 33.230769 
L 82.801829 34.318016 
L 82.810256 34.895315 
L 86.186087 34.404352 
L 85.03777 39.442138 
L 89.794623 42.905122 
L 89.652133 46.539509 
L 91.850133 50.212269 
L 92.244709 55.025139 
L 92.093793 67.374123 
L 91.329089 67.414197 
L 91.607313 70.003126 
L 93.371955 73.310691 
L 92.044619 73.833568 
L 88.502209 74.769231 
L 86.855518 72.92014 
L 84.915512 71.960591 
L 83.068249 68.731681 
L 82.866748 67.569394 
L 83.710704 67.090155 
L 84.099382 64.677751 
L 82.875183 63.186728 
L 83.827056 61.576753 
L 83.513419 57.414094 
L 84.646563 56.638315 
L 81.816861 52.708452 
L 82.956963 51.948877 
L 82.350337 50.618381 
L 83.1669 47.536574 
L 82.190358 46.784672 
L 80.682453 47.278836 
L 81.295181 46.659104 
L 80.710058 46.095658 
L 81.91361 45.982878 
L 80.961101 45.423904 
L 81.66362 45.374449 
L 82.06748 40.258421 
L 78.113273 37.368486 
L 78.964391 33.828109 
z
" clip-path="url(#p56c7ea22e8)" style="fill: #eeeeee; stroke: #000000; stroke-width: 0.3"/>
    <path d="M 52.217858 70.506457 
L 52.387741 68.907778 
L 54.581107 65.573984 
L 54.836359 62.585551 
L 56.067305 59.56471 
L 57.536224 58.76676 
L 57.535376 57.736642 
L 58.386502 57.370184 
L 57.463711 51.476239 
L 56.196089 50.392408 
L 57.134477 48.594398 
L 56.029151 44.905442 
L 56.529964 44.057385 
L 56.358393 40.443469 
L 55.653966 39.762978 
L 56.255534 39.120011 
L 54.909916 37.361663 
L 55.686221 34.360862 
L 72.079523 34.296267 
L 73.654035 35.103812 
L 76.371187 33.000102 
L 78.964391 33.828109 
L 78.113273 37.368486 
L 82.06748 40.258421 
L 81.66362 45.374449 
L 80.961101 45.423904 
L 81.91361 45.982878 
L 80.710058 46.095658 
L 81.295181 46.659104 
L 80.682453 47.278836 
L 82.190358 46.784672 
L 83.1669 47.536574 
L 82.350337 50.618381 
L 82.956963 51.948877 
L 81.816861 52.708452 
L 84.646563 56.638315 
L 83.513419 57.414094 
L 83.827056 61.576753 
L 82.875183 63.186728 
L 84.099382 64.677751 
L 83.710704 67.090155 
L 82.866748 67.569394 
L 83.042112 68.652804 
L 84.915512 71.960591 
L 86.855518 72.92014 
L 88.502209 74.769231 
L 86.621468 77.322088 
L 80.81725 77.610139 
L 72.309764 82.076625 
L 65.629245 83.663935 
L 62.668385 85.89181 
L 61.729009 86.006958 
L 59.607952 84.512313 
L 53.38351 83.095555 
L 56.26312 82.520517 
L 56.075943 80.987291 
L 56.560735 80.770262 
L 56.044333 78.83156 
L 54.800947 78.830281 
L 54.646449 77.992885 
L 54.116546 78.038512 
z
" clip-path="url(#p56c7ea22e8)" style="fill: #eeeeee; stroke: #000000; stroke-width: 0.3"/>
    <path d="M 155.079027 115.353028 
L 156.046955 113.432007 
L 157.265819 112.00048 
L 157.628286 112.187814 
L 157.846038 112.158936 
L 158.324026 111.901437 
L 157.204742 111.535161 
L 158.85645 109.138086 
L 158.773463 105.781842 
L 158.970045 106.546945 
L 160.335045 107.23511 
L 171.19351 107.233831 
L 171.309862 116.85915 
L 160.648681 116.823333 
L 159.952273 117.472273 
L 158.106275 115.752539 
L 157.017533 116.497848 
L 156.531575 115.752539 
L 155.485318 115.932488 
z
" clip-path="url(#p56c7ea22e8)" style="fill: #eeeeee; stroke: #000000; stroke-width: 0.3"/>
    <path d="M 147.700117 96.874382 
L 148.821392 96.527916 
L 149.535723 94.358456 
L 151.620266 94.156691 
L 151.85262 95.173938 
L 149.691068 98.722549 
L 147.765843 98.098773 
z
" clip-path="url(#p56c7ea22e8)" style="fill: #eeeeee; stroke: #000000; stroke-width: 0.3"/>
    <path d="M 124.667166 136.926722 
L 124.784668 136.784371 
L 124.750814 137.27856 
z
" clip-path="url(#p56c7ea22e8)" style="fill: #eeeeee; stroke: #000000; stroke-width: 0.3"/>
   </g>
   <g id="PatchCollection_2">
    <defs>
     <path id="mcc90896ab6" d="M 77.477141 -74.769231 
L 82.801829 -73.681984 
L 82.810256 -73.104685 
L 86.186087 -73.595648 
L 85.03777 -68.557862 
L 89.794623 -65.094878 
L 89.652133 -61.460491 
L 91.850133 -57.787731 
L 92.244709 -52.974861 
L 92.093793 -40.625877 
L 91.329089 -40.585803 
L 91.607313 -37.996874 
L 93.371955 -34.689309 
L 92.044619 -34.166432 
L 88.502209 -33.230769 
L 86.855518 -35.07986 
L 84.915512 -36.039409 
L 83.068249 -39.268319 
L 82.866748 -40.430606 
L 83.710704 -40.909845 
L 84.099382 -43.322249 
L 82.875183 -44.813272 
L 83.827056 -46.423247 
L 83.513419 -50.585906 
L 84.646563 -51.361685 
L 81.816861 -55.291548 
L 82.956963 -56.051123 
L 82.350337 -57.381619 
L 83.1669 -60.463426 
L 82.190358 -61.215328 
L 80.682453 -60.721164 
L 81.295181 -61.340896 
L 80.710058 -61.904342 
L 81.91361 -62.017122 
L 80.961101 -62.576096 
L 81.66362 -62.625551 
L 82.06748 -67.741579 
L 78.113273 -70.631514 
L 78.964391 -74.171891 
z
" style="stroke: #dd0000; stroke-width: 0.5"/>
    </defs>
    <g clip-path="url(#p56c7ea22e8)">
     <use xlink:href="#mcc90896ab6" x="0" y="108" style="fill: #ff6b6b; stroke: #dd0000; stroke-width: 0.5"/>
    </g>
   </g>
  </g>
 </g>
 <defs>
  <clipPath id="p56c7ea22e8">
   <rect x="0" y="0" width="170.849096" height="108"/>
  </clipPath>
 </defs>
</svg>
