<?xml version="1.0" encoding="utf-8" standalone="no"?>
<!DOCTYPE svg PUBLIC "-//W3C//DTD SVG 1.1//EN"
  "http://www.w3.org/Graphics/SVG/1.1/DTD/svg11.dtd">
<svg xmlns:xlink="http://www.w3.org/1999/xlink" width="169.793384pt" height="108pt" viewBox="0 0 169.793384 108" xmlns="http://www.w3.org/2000/svg" version="1.1">
 <metadata>
  <rdf:RDF xmlns:dc="http://purl.org/dc/elements/1.1/" xmlns:cc="http://creativecommons.org/ns#" xmlns:rdf="http://www.w3.org/1999/02/22-rdf-syntax-ns#">
   <cc:Work>
    <dc:type rdf:resource="http://purl.org/dc/dcmitype/StillImage"/>
    <dc:date>2025-09-05T15:49:30.211970</dc:date>
    <dc:format>image/svg+xml</dc:format>
    <dc:creator>
     <cc:Agent>
      <dc:title>Matplotlib v3.10.3, https://matplotlib.org/</dc:title>
     </cc:Agent>
    </dc:creator>
   </cc:Work>
  </rdf:RDF>
 </metadata>
 <defs>
  <style type="text/css">*{stroke-linejoin: round; stroke-linecap: butt}</style>
 </defs>
 <g id="figure_1">
  <g id="patch_1">
   <path d="M 0 108 
L 169.793384 108 
L 169.793384 0 
L 0 0 
z
" style="fill: #ffffff"/>
  </g>
  <g id="axes_1">
   <g id="PatchCollection_1">
    <path d="M 81.666005 147.617629 
L 86.985432 142.874536 
L 85.237596 135.500647 
L 86.825589 132.462637 
L 90.614982 132.14998 
L 91.122486 130.506933 
L 95.128677 131.454525 
L 101.373215 128.080995 
L 102.799373 125.806555 
L 101.476123 123.482277 
L 98.073868 124.402442 
L 96.51936 123.111186 
L 97.034365 120.376152 
L 94.544229 116.533902 
L 98.503963 110.868638 
L 101.423171 110.667322 
L 111.968627 102.374292 
L 108.262615 96.217859 
L 111.804105 99.930961 
L 119.615562 104.632776 
L 113.283022 100.203146 
L 113.707028 99.25526 
L 125.974858 106.928839 
L 137.865893 119.47155 
L 137.957144 126.659155 
L 134.195358 139.145025 
L 135.922855 138.338051 
L 138.411038 130.377058 
L 141.29883 128.993663 
L 147.224106 130.969022 
L 155.094412 138.140828 
L 156.441228 141.319082 
L 157.181286 139.87863 
L 158.763324 140.393251 
L 163.432068 144.872384 
L 163.543985 153.651486 
L 160.176664 159.987258 
L 162.996984 162.8926 
L 161.079813 162.857007 
L 161.050833 165.82283 
L 153.38615 166.098872 
L 150.227159 167.740915 
L 148.776545 170.232942 
L 150.476919 173.090985 
L 146.025166 182.923354 
L 150.624776 192.538648 
L 154.215351 195.406863 
L 154.006558 197.896352 
L 157.459271 198.903421 
L 160.704177 197.802305 
L 162.756214 208.597514 
L 164.929138 210.020947 
L 172.366061 224.664013 
L 176.684438 226.396031 
L 170.407924 227.734567 
L 166.450684 226.849503 
L 164.646416 224.825172 
L 160.491382 225.697034 
L 155.817824 230.973381 
L 147.623637 231.981985 
L 146.807408 234.753123 
L 141.137827 233.093293 
L 137.403377 236.287367 
L 137.301474 239.663966 
L 133.844778 239.392489 
L 131.210284 241.266344 
L 128.648733 238.820062 
L 122.976136 237.299532 
L 117.740613 231.089307 
L 114.838381 230.020713 
L 115.503253 228.395964 
L 113.33232 227.959768 
L 113.662002 220.05717 
L 110.54098 218.17214 
L 108.666766 211.591806 
L 109.263201 204.73189 
L 112.11399 198.556215 
L 111.31924 194.126802 
L 114.734486 191.992153 
L 117.800062 187.086898 
L 113.724447 181.907628 
L 114.724491 178.397336 
L 105.575227 175.51285 
L 108.040869 171.624345 
L 109.02593 165.092294 
L 106.121706 161.433062 
L 94.364898 162.244935 
z
" clip-path="url(#p52d3bfabb3)" style="fill: #eeeeee; stroke: #000000; stroke-width: 0.3"/>
    <path d="M 138.4307 129.166587 
L 138.691866 127.992122 
L 140.884258 127.555021 
z
" clip-path="url(#p52d3bfabb3)" style="fill: #eeeeee; stroke: #000000; stroke-width: 0.3"/>
    <path d="M -150.213472 83.694784 
L -142.377926 71.54221 
L -141.012241 59.329155 
L -132.977897 45.794839 
L -128.488174 45.123781 
L -122.765621 35.148059 
L -110.905925 31.431887 
L -111.302903 33.248921 
L -122.561467 36.538517 
L -120.558652 43.902273 
L -116.103052 47.877152 
L -118.852401 47.870738 
L -115.133108 53.658952 
L -116.162848 58.913971 
L -122.726666 65.766942 
L -125.729313 71.268529 
L -123.304058 74.639777 
L -122.29715 76.874218 
L -123.090102 75.518821 
L -123.232488 78.486571 
L -121.757515 77.680385 
L -120.316355 78.87726 
L -121.405871 78.971739 
L -121.493198 79.952444 
L -118.192401 79.952444 
L -119.777512 82.93141 
L -118.389073 82.846551 
L -117.690522 86.012037 
L -114.773616 86.703754 
L -108.6519 84.457311 
L -105.19849 81.094878 
L -104.680875 72.88171 
L -113.065799 59.941109 
L -115.265267 51.924888 
L -112.612678 52.181077 
L -111.966055 49.763324 
L -113.680175 48.957944 
L -89.12638 41.253986 
L -87.645471 38.924712 
L -85.365424 39.496666 
L -87.783353 36.985319 
L -80.694283 39.579125 
L -79.703112 38.26778 
L -81.102552 34.523454 
L -88.753528 36.187868 
L -88.680373 32.936697 
L -90.497536 31.287512 
L -88.637899 26.292676 
L -85.001988 24.582635 
L -81.475443 28.197264 
L -79.770758 35.731524 
L -77.382486 38.968272 
L -70.554351 37.624897 
L -62.681532 39.261293 
L -53.790805 44.231299 
L -51.376569 49.63764 
L -53.274756 49.763324 
L -50.611147 50.435012 
L -52.411007 51.524599 
L -51.544126 54.90226 
L -48.498212 58.250291 
L -43.391272 58.94919 
L -26.899892 55.820516 
L -12.661494 55.015136 
L -8.227933 56.504225 
L -9.691093 57.870818 
L -5.839661 62.294014 
L 10.381099 66.911776 
L 16.323465 66.067971 
L 17.475137 63.368391 
L 22.282361 62.955293 
L 24.054691 61.928962 
L 22.379121 61.2981 
L 27.692168 58.449619 
L 38.006733 58.116579 
L 30.721552 56.236821 
L 26.815834 57.713102 
L 26.103132 54.611639 
L 32.978458 55.430635 
L 34.96948 53.806259 
L 39.972584 55.468273 
L 47.545687 53.391548 
L 67.0216 54.342642 
L 72.98442 53.268264 
L 70.728307 55.015136 
L 65.117903 55.404211 
L 63.527301 57.414474 
L 57.197893 56.689958 
L 52.152315 57.402472 
L 50.461009 58.922766 
L 53.43456 57.38805 
L 53.934872 59.842635 
L 50.763083 59.821819 
L 50.593167 62.428512 
L 51.991834 62.226764 
L 51.781803 59.874666 
L 55.2234 60.068407 
L 57.889368 65.272979 
L 57.308805 66.22968 
L 54.972461 66.144822 
L 54.096919 67.019045 
L 52.573963 65.810975 
L 50.32885 65.810975 
L 54.515416 67.925319 
L 54.826924 66.473848 
L 56.146926 66.894167 
L 58.045112 66.043948 
L 58.790873 63.43084 
L 63.841168 73.626254 
L 65.029804 68.351225 
L 65.711032 69.058938 
L 65.832964 74.970417 
L 67.020034 73.234759 
L 66.22944 69.168607 
L 69.474385 70.317455 
L 65.722052 68.794741 
L 66.204385 67.459413 
L 73.261323 71.940217 
L 72.98442 74.712634 
L 74.254079 72.583888 
L 74.965215 75.787818 
L 75.202776 73.866428 
L 73.324715 71.247261 
L 77.880536 72.136378 
L 77.025719 69.838269 
L 81.172015 73.035667 
L 79.609291 71.003112 
L 80.845233 71.419359 
L 85.352162 76.161684 
L 88.306825 76.084834 
L 91.997796 78.547427 
L 93.484562 81.352661 
L 87.683789 85.506072 
L 87.169325 86.705348 
L 90.125554 83.930531 
L 87.408471 88.301705 
L 85.286083 95.213918 
L 76.594367 95.066611 
L 77.76019 96.267499 
L 83.844149 99.381751 
L 85.835945 97.489184 
L 88.821289 97.34107 
L 87.82776 98.019172 
L 87.945748 99.261674 
L 89.807762 95.864003 
L 95.281271 95.299583 
L 99.409626 96.72223 
L 101.47852 94.695145 
L 108.262615 96.217859 
L 111.968627 102.374292 
L 101.423171 110.667322 
L 98.503963 110.868638 
L 94.544229 116.533902 
L 97.034365 120.376152 
L 96.51936 123.111186 
L 98.073868 124.402442 
L 101.476123 123.482277 
L 102.799373 125.806555 
L 101.373215 128.080995 
L 95.128677 131.454525 
L 91.122486 130.506933 
L 90.614982 132.14998 
L 86.825589 132.462637 
L 85.237596 135.500647 
L 86.985432 142.874536 
L 81.666005 147.617629 
L 95.825507 162.872256 
L 96.824566 168.178096 
L 91.349781 171.956814 
L 89.774781 175.371524 
L 83.23451 175.650615 
L 83.670097 177.081683 
L 79.632954 177.990652 
L 78.36865 181.007315 
L 67.033451 184.120563 
L 61.726513 182.292984 
L 59.157964 185.153565 
L 55.612337 185.227799 
L 55.511439 192.579317 
L 52.808024 194.53807 
L 43.870531 186.709175 
L 40.797474 188.758926 
L 37.686428 186.954721 
L 30.609171 188.20887 
L 28.501186 183.722005 
L 19.937356 183.558308 
L 16.033068 180.301176 
L 15.61896 181.754103 
L 18.908332 186.429061 
L 27.413216 193.871084 
L 27.027585 203.132561 
L 31.384434 211.18105 
L 30.40987 215.97396 
L 43.230153 216.972392 
L 43.465916 219.997201 
L 42.709638 222.308236 
L 30.629161 226.678172 
L 29.540186 232.672364 
L 24.513979 237.724533 
L 23.430011 234.937144 
L 17.207455 240.051329 
L 15.111456 239.593805 
L 9.360426 242.425423 
L 8.079148 246.421198 
L 5.678948 246.687598 
L 1.513416 251.822127 
L 0.649726 250.055029 
L 1.980457 247.155295 
L 0.481395 245.244844 
L -2.40686 245.430892 
L -9.92618 250.212626 
L -12.839413 249.922852 
L -24.245544 240.544465 
L -30.861231 220.012449 
L -30.32873 217.487879 
L -37.788621 211.649769 
L -38.774688 209.243152 
L -43.208462 209.708822 
L -42.873773 207.812596 
L -32.643537 198.018357 
L -36.32403 191.447173 
L -38.8746 190.582433 
L -43.578104 175.417288 
L -41.993611 164.975896 
L -42.795862 159.546005 
L -38.589867 155.565971 
L -38.746714 150.786794 
L -34.828448 146.975041 
L -36.157188 144.294408 
L -35.359944 142.652384 
L -42.652993 140.380482 
L -45.568217 142.260929 
L -58.2761 143.873479 
L -66.508257 142.260929 
L -70.084333 144.959859 
L -71.733262 143.470337 
L -73.903209 144.141907 
L -87.157068 127.411983 
L -90.827565 128.086071 
L -98.255982 124.905711 
L -107.550126 127.608202 
L -115.986089 125.8462 
L -123.205209 126.618919 
L -125.224284 125.164989 
L -127.311293 119.358399 
L -132.579275 117.340168 
L -132.82105 108.426428 
L -129.815909 105.152533 
L -130.93284 100.204563 
L -136.382646 94.37816 
L -138.617512 85.279868 
L -141.793497 85.475596 
L -142.845489 81.710099 
L -146.760758 84.109102 
z
" clip-path="url(#p52d3bfabb3)" style="fill: #eeeeee; stroke: #000000; stroke-width: 0.3"/>
    <path d="M 23.43873 48.811424 
L 24.172679 46.942074 
L 27.08251 46.370453 
L 30.388797 48.354293 
L 31.790615 45.843673 
L 34.29846 45.507425 
L 35.442263 48.687333 
L 33.308062 50.435012 
L 30.18271 50.973007 
L 27.937597 48.811424 
z
" clip-path="url(#p52d3bfabb3)" style="fill: #eeeeee; stroke: #000000; stroke-width: 0.3"/>
    <path d="M 87.683789 89.672311 
L 87.995317 87.938248 
L 92.196034 85.630163 
L 91.739781 86.662908 
L 90.437856 87.013577 
z
" clip-path="url(#p52d3bfabb3)" style="fill: #eeeeee; stroke: #000000; stroke-width: 0.3"/>
    <path d="M 86.050635 95.483899 
L 86.891127 92.312984 
L 94.509681 89.643625 
L 95.405213 91.672815 
L 92.301668 94.649656 
z
" clip-path="url(#p52d3bfabb3)" style="fill: #eeeeee; stroke: #000000; stroke-width: 0.3"/>
    <path d="M 84.108467 97.072879 
L 84.935232 95.950455 
L 86.892422 96.682998 
L 89.017169 95.193121 
L 88.531801 96.994415 
z
" clip-path="url(#p52d3bfabb3)" style="fill: #eeeeee; stroke: #000000; stroke-width: 0.3"/>
    <path d="M 87.564216 91.015687 
L 90.876825 86.961537 
L 92.460351 87.510728 
L 91.945868 88.677972 
z
" clip-path="url(#p52d3bfabb3)" style="fill: #eeeeee; stroke: #000000; stroke-width: 0.3"/>
    <path d="M 18.794346 31.835896 
L 19.599091 30.481325 
L 20.572959 31.303507 
L 20.455744 32.104893 
z
" clip-path="url(#p52d3bfabb3)" style="fill: #eeeeee; stroke: #000000; stroke-width: 0.3"/>
    <path d="M -39.708151 28.700021 
L -39.207858 28.81211 
L -38.98758 28.888961 
L -39.534311 28.850535 
z
" clip-path="url(#p52d3bfabb3)" style="fill: #eeeeee; stroke: #000000; stroke-width: 0.3"/>
    <path d="M 93.044858 94.744628 
L 95.598289 92.186296 
L 96.726916 94.669174 
z
" clip-path="url(#p52d3bfabb3)" style="fill: #eeeeee; stroke: #000000; stroke-width: 0.3"/>
    <path d="M 92.328193 85.227473 
L 92.64206 83.82885 
L 94.584306 83.725575 
z
" clip-path="url(#p52d3bfabb3)" style="fill: #eeeeee; stroke: #000000; stroke-width: 0.3"/>
    <path d="M 90.083873 86.156157 
L 92.170863 83.703972 
L 91.467595 85.582136 
z
" clip-path="url(#p52d3bfabb3)" style="fill: #eeeeee; stroke: #000000; stroke-width: 0.3"/>
    <path d="M 78.893631 96.072244 
L 83.253418 95.956102 
L 84.237745 98.223183 
z
" clip-path="url(#p52d3bfabb3)" style="fill: #eeeeee; stroke: #000000; stroke-width: 0.3"/>
    <path d="M 64.241569 68.167086 
L 64.466564 67.366507 
L 65.453017 67.573863 
z
" clip-path="url(#p52d3bfabb3)" style="fill: #eeeeee; stroke: #000000; stroke-width: 0.3"/>
    <path d="M 63.248813 70.359068 
L 63.886001 70.096484 
L 63.705085 70.912273 
z
" clip-path="url(#p52d3bfabb3)" style="fill: #eeeeee; stroke: #000000; stroke-width: 0.3"/>
    <path d="M 61.570111 66.930192 
L 61.750254 66.878152 
L 62.097161 68.386444 
z
" clip-path="url(#p52d3bfabb3)" style="fill: #eeeeee; stroke: #000000; stroke-width: 0.3"/>
    <path d="M 54.901665 58.14861 
L 55.557722 58.790667 
L 57.24667 61.747223 
z
" clip-path="url(#p52d3bfabb3)" style="fill: #eeeeee; stroke: #000000; stroke-width: 0.3"/>
    <path d="M 38.22701 -44.31299 
L 38.401643 -44.31299 
L 38.38434 -44.184099 
z
" clip-path="url(#p52d3bfabb3)" style="fill: #eeeeee; stroke: #000000; stroke-width: 0.3"/>
    <path d="M 31.250187 52.584574 
L 33.200301 52.55335 
L 33.093314 53.374745 
z
" clip-path="url(#p52d3bfabb3)" style="fill: #eeeeee; stroke: #000000; stroke-width: 0.3"/>
    <path d="M 27.06598 51.979329 
L 27.404245 51.569438 
L 27.958051 52.121836 
z
" clip-path="url(#p52d3bfabb3)" style="fill: #eeeeee; stroke: #000000; stroke-width: 0.3"/>
    <path d="M 4.043842 49.652042 
L 8.042396 50.053138 
L 7.275408 50.435012 
z
" clip-path="url(#p52d3bfabb3)" style="fill: #eeeeee; stroke: #000000; stroke-width: 0.3"/>
    <path d="M -11.085043 32.08329 
L -10.799498 31.975195 
L -9.532198 32.826221 
z
" clip-path="url(#p52d3bfabb3)" style="fill: #eeeeee; stroke: #000000; stroke-width: 0.3"/>
    <path d="M -20.948092 32.763773 
L -19.219821 31.958393 
L -19.736643 33.189679 
z
" clip-path="url(#p52d3bfabb3)" style="fill: #eeeeee; stroke: #000000; stroke-width: 0.3"/>
    <path d="M -23.139691 31.032916 
L -23.080707 30.990496 
L -21.088892 31.095365 
z
" clip-path="url(#p52d3bfabb3)" style="fill: #eeeeee; stroke: #000000; stroke-width: 0.3"/>
    <path d="M -23.850054 33.388221 
L -21.402779 32.784589 
L -23.331646 33.489095 
z
" clip-path="url(#p52d3bfabb3)" style="fill: #eeeeee; stroke: #000000; stroke-width: 0.3"/>
    <path d="M -39.749059 27.584817 
L -39.704226 27.543992 
L -39.731756 27.622436 
z
" clip-path="url(#p52d3bfabb3)" style="fill: #eeeeee; stroke: #000000; stroke-width: 0.3"/>
    <path d="M -39.760871 27.949082 
L -39.753776 27.905856 
L -39.742776 27.966691 
z
" clip-path="url(#p52d3bfabb3)" style="fill: #eeeeee; stroke: #000000; stroke-width: 0.3"/>
    <path d="M -39.837177 27.989101 
L -39.789194 27.942668 
L -39.815138 28.003523 
z
" clip-path="url(#p52d3bfabb3)" style="fill: #eeeeee; stroke: #000000; stroke-width: 0.3"/>
    <path d="M -39.89303 27.247763 
L -39.834026 27.242963 
L -39.82695 27.279795 
z
" clip-path="url(#p52d3bfabb3)" style="fill: #eeeeee; stroke: #000000; stroke-width: 0.3"/>
    <path d="M -39.977978 27.138901 
L -39.944146 27.167706 
L -39.948882 27.206131 
z
" clip-path="url(#p52d3bfabb3)" style="fill: #eeeeee; stroke: #000000; stroke-width: 0.3"/>
    <path d="M 71.381232 66.735645 
L 80.400967 62.294014 
L 79.884144 55.430635 
L 76.429169 53.940758 
L 91.127764 51.375697 
L 89.291713 54.086452 
L 89.412852 65.126479 
z
" clip-path="url(#p52d3bfabb3)" style="fill: #eeeeee; stroke: #000000; stroke-width: 0.3"/>
    <path d="M 92.283341 44.945426 
L 95.496831 42.338733 
L 98.412152 41.264355 
L 98.363376 42.927962 
z
" clip-path="url(#p52d3bfabb3)" style="fill: #eeeeee; stroke: #000000; stroke-width: 0.3"/>
    <path d="M 74.05269 28.331762 
L 76.354448 23.851706 
L 77.485646 24.277612 
L 77.12536 27.62885 
z
" clip-path="url(#p52d3bfabb3)" style="fill: #eeeeee; stroke: #000000; stroke-width: 0.3"/>
    <path d="M 79.741759 19.831987 
L 81.060194 18.0739 
L 81.184485 18.395745 
z
" clip-path="url(#p52d3bfabb3)" style="fill: #eeeeee; stroke: #000000; stroke-width: 0.3"/>
    <path d="M 83.934607 4.5737 
L 85.717957 1.336145 
L 86.939633 2.756391 
L 86.100262 5.947494 
z
" clip-path="url(#p52d3bfabb3)" style="fill: #eeeeee; stroke: #000000; stroke-width: 0.3"/>
    <path d="M 85.708523 11.646835 
L 85.794264 11.11366 
L 85.953159 11.147285 
z
" clip-path="url(#p52d3bfabb3)" style="fill: #eeeeee; stroke: #000000; stroke-width: 0.3"/>
    <path d="M 83.976308 9.04815 
L 85.440262 7.814463 
L 84.648895 9.317148 
z
" clip-path="url(#p52d3bfabb3)" style="fill: #eeeeee; stroke: #000000; stroke-width: 0.3"/>
    <path d="M 82.509203 14.793118 
L 82.852186 14.18868 
L 82.987476 14.734683 
z
" clip-path="url(#p52d3bfabb3)" style="fill: #eeeeee; stroke: #000000; stroke-width: 0.3"/>
    <path d="M 80.521332 16.96511 
L 80.528408 16.552012 
L 81.087724 16.851427 
z
" clip-path="url(#p52d3bfabb3)" style="fill: #eeeeee; stroke: #000000; stroke-width: 0.3"/>
    <path d="M 115.528908 2.452155 
L 119.747721 5.665707 
L 118.163401 7.693579 
L 115.984388 6.972251 
z
" clip-path="url(#p52d3bfabb3)" style="fill: #eeeeee; stroke: #000000; stroke-width: 0.3"/>
   </g>
   <g id="PatchCollection_2">
    <path d="M 71.381232 66.735645 
L 80.400967 62.294014 
L 79.884144 55.430635 
L 76.429169 53.940758 
L 91.127764 51.375697 
L 89.291713 54.086452 
L 89.412852 65.126479 
z
" clip-path="url(#p52d3bfabb3)" style="fill: #ff6b6b; stroke: #dd0000; stroke-width: 0.5"/>
    <path d="M 92.283341 44.945426 
L 95.496831 42.338733 
L 98.412152 41.264355 
L 98.363376 42.927962 
z
" clip-path="url(#p52d3bfabb3)" style="fill: #ff6b6b; stroke: #dd0000; stroke-width: 0.5"/>
   </g>
  </g>
 </g>
 <defs>
  <clipPath id="p52d3bfabb3">
   <rect x="0" y="0" width="169.793384" height="108"/>
  </clipPath>
 </defs>
</svg>
