<?xml version="1.0" encoding="utf-8" standalone="no"?>
<!DOCTYPE svg PUBLIC "-//W3C//DTD SVG 1.1//EN"
  "http://www.w3.org/Graphics/SVG/1.1/DTD/svg11.dtd">
<svg xmlns:xlink="http://www.w3.org/1999/xlink" width="165.553135pt" height="108pt" viewBox="0 0 165.553135 108" xmlns="http://www.w3.org/2000/svg" version="1.1">
 <metadata>
  <rdf:RDF xmlns:dc="http://purl.org/dc/elements/1.1/" xmlns:cc="http://creativecommons.org/ns#" xmlns:rdf="http://www.w3.org/1999/02/22-rdf-syntax-ns#">
   <cc:Work>
    <dc:type rdf:resource="http://purl.org/dc/dcmitype/StillImage"/>
    <dc:date>2025-09-05T15:49:30.296885</dc:date>
    <dc:format>image/svg+xml</dc:format>
    <dc:creator>
     <cc:Agent>
      <dc:title>Matplotlib v3.10.3, https://matplotlib.org/</dc:title>
     </cc:Agent>
    </dc:creator>
   </cc:Work>
  </rdf:RDF>
 </metadata>
 <defs>
  <style type="text/css">*{stroke-linejoin: round; stroke-linecap: butt}</style>
 </defs>
 <g id="figure_1">
  <g id="patch_1">
   <path d="M 0 108 
L 165.553135 108 
L 165.553135 0 
L 0 0 
z
" style="fill: #ffffff"/>
  </g>
  <g id="axes_1">
   <g id="PatchCollection_1">
    <path d="M 156.973936 55.063022 
L 157.695153 54.097691 
L 157.322513 53.825741 
L 159.2479 53.877185 
L 160.084715 52.633784 
L 163.593359 52.162145 
L 164.434868 50.934054 
L 166.195355 50.456898 
L 166.855539 50.83115 
L 167.894146 50.213804 
L 164.135001 54.339024 
L 164.635563 54.857215 
L 167.457624 52.578652 
L 166.802719 54.076865 
L 167.531565 54.586483 
L 167.249884 54.857215 
L 165.920719 54.493379 
L 164.882034 55.165918 
L 162.82403 55.164082 
L 163.2172 54.596283 
L 162.603967 54.283899 
L 161.155086 55.104667 
L 160.876931 56.039372 
L 160.034246 55.474629 
L 158.764348 56.670875 
L 158.061332 55.165918 
z
" clip-path="url(#pdcf7ae941e)" style="fill: #eeeeee; stroke: #000000; stroke-width: 0.3"/>
    <path d="M 148.075862 63.785244 
L 148.176801 63.087589 
L 149.393294 62.264368 
L 149.065845 61.439311 
L 149.976011 60.419472 
L 154.843167 58.880217 
L 155.53797 59.506211 
L 155.241622 60.165277 
L 155.98396 59.93068 
L 157.732707 61.367033 
L 157.762049 63.58801 
L 158.602383 64.084148 
L 157.716865 65.168301 
L 156.283827 64.91105 
L 154.685896 66.014802 
L 152.708288 66.200393 
L 148.683817 64.939222 
z
" clip-path="url(#pdcf7ae941e)" style="fill: #eeeeee; stroke: #000000; stroke-width: 0.3"/>
    <path d="M -2417.952616 72.783098 
L -2417.92944 72.638542 
L -2417.817937 72.51053 
L -2417.617242 72.492767 
L -2417.469368 72.852922 
L -2417.495774 73.004832 
z
" clip-path="url(#pdcf7ae941e)" style="fill: #eeeeee; stroke: #000000; stroke-width: 0.3"/>
    <path d="M 153.120235 72.647123 
L 155.102545 71.401261 
L 157.053163 71.771223 
L 155.502175 71.727125 
L 154.762772 72.856603 
z
" clip-path="url(#pdcf7ae941e)" style="fill: #eeeeee; stroke: #000000; stroke-width: 0.3"/>
    <path d="M 167.138972 56.160038 
L 167.894146 55.002501 
L 167.894146 56.337967 
L 167.299178 56.609007 
z
" clip-path="url(#pdcf7ae941e)" style="fill: #eeeeee; stroke: #000000; stroke-width: 0.3"/>
    <path d="M 166.673088 68.580121 
L 167.486201 68.332074 
L 167.114145 68.733227 
L 167.048691 69.131233 
z
" clip-path="url(#pdcf7ae941e)" style="fill: #eeeeee; stroke: #000000; stroke-width: 0.3"/>
    <path d="M 163.360979 58.573959 
L 163.941936 58.803039 
L 163.804618 59.315103 
L 163.501816 59.600534 
z
" clip-path="url(#pdcf7ae941e)" style="fill: #eeeeee; stroke: #000000; stroke-width: 0.3"/>
    <path d="M 158.803706 61.685972 
L 159.070676 61.351107 
L 159.497319 61.835217 
L 159.010818 62.241706 
z
" clip-path="url(#pdcf7ae941e)" style="fill: #eeeeee; stroke: #000000; stroke-width: 0.3"/>
    <path d="M 157.513235 53.51213 
L 157.83599 53.457005 
L 157.961568 53.404327 
L 157.744447 53.574608 
z
" clip-path="url(#pdcf7ae941e)" style="fill: #eeeeee; stroke: #000000; stroke-width: 0.3"/>
    <path d="M 147.530116 57.847515 
L 148.322332 56.969169 
L 148.336999 57.2595 
L 147.977866 57.740322 
z
" clip-path="url(#pdcf7ae941e)" style="fill: #eeeeee; stroke: #000000; stroke-width: 0.3"/>
    <path d="M -2428.04555 53.164251 
L -2427.983565 52.672373 
L -2427.307539 52.3263 
L -2427.482996 52.835911 
z
" clip-path="url(#pdcf7ae941e)" style="fill: #eeeeee; stroke: #000000; stroke-width: 0.3"/>
    <path d="M -2428.04555 56.348218 
L -2428.04555 55.012918 
L -2427.065468 54.219585 
L -2426.716307 54.903767 
z
" clip-path="url(#pdcf7ae941e)" style="fill: #eeeeee; stroke: #000000; stroke-width: 0.3"/>
    <path d="M 167.801507 52.992712 
L 167.894146 53.165455 
L 167.80385 53.17402 
z
" clip-path="url(#pdcf7ae941e)" style="fill: #eeeeee; stroke: #000000; stroke-width: 0.3"/>
    <path d="M 167.052708 54.025421 
L 167.545648 53.666485 
L 167.515131 53.942117 
z
" clip-path="url(#pdcf7ae941e)" style="fill: #eeeeee; stroke: #000000; stroke-width: 0.3"/>
    <path d="M 166.062148 73.102218 
L 166.265186 72.955826 
L 166.466473 73.05812 
z
" clip-path="url(#pdcf7ae941e)" style="fill: #eeeeee; stroke: #000000; stroke-width: 0.3"/>
    <path d="M 163.508269 62.587161 
L 163.800507 62.886072 
L 163.730677 63.019594 
z
" clip-path="url(#pdcf7ae941e)" style="fill: #eeeeee; stroke: #000000; stroke-width: 0.3"/>
    <path d="M 163.049372 51.602302 
L 163.049372 51.549631 
L 163.493011 51.602302 
z
" clip-path="url(#pdcf7ae941e)" style="fill: #eeeeee; stroke: #000000; stroke-width: 0.3"/>
    <path d="M 162.361607 63.728893 
L 162.827549 63.677441 
L 163.208986 65.039062 
z
" clip-path="url(#pdcf7ae941e)" style="fill: #eeeeee; stroke: #000000; stroke-width: 0.3"/>
    <path d="M 160.732575 61.082821 
L 160.977279 61.556914 
L 160.923874 61.556914 
z
" clip-path="url(#pdcf7ae941e)" style="fill: #eeeeee; stroke: #000000; stroke-width: 0.3"/>
    <path d="M 158.770031 62.395248 
L 159.093564 62.383808 
L 159.04427 62.491611 
z
" clip-path="url(#pdcf7ae941e)" style="fill: #eeeeee; stroke: #000000; stroke-width: 0.3"/>
    <path d="M 156.875348 70.972501 
L 157.047877 70.639908 
L 157.13766 71.117666 
z
" clip-path="url(#pdcf7ae941e)" style="fill: #eeeeee; stroke: #000000; stroke-width: 0.3"/>
    <path d="M 155.491611 55.01279 
L 155.878327 55.330073 
L 155.564961 55.371725 
z
" clip-path="url(#pdcf7ae941e)" style="fill: #eeeeee; stroke: #000000; stroke-width: 0.3"/>
    <path d="M 154.25634 67.181642 
L 154.554448 66.838023 
L 154.4987 67.24473 
z
" clip-path="url(#pdcf7ae941e)" style="fill: #eeeeee; stroke: #000000; stroke-width: 0.3"/>
    <path d="M 150.724802 67.99751 
L 150.977726 67.938712 
L 151.04287 68.573889 
z
" clip-path="url(#pdcf7ae941e)" style="fill: #eeeeee; stroke: #000000; stroke-width: 0.3"/>
    <path d="M 149.359843 55.371725 
L 150.524107 54.256337 
L 150.446063 54.57423 
z
" clip-path="url(#pdcf7ae941e)" style="fill: #eeeeee; stroke: #000000; stroke-width: 0.3"/>
    <path d="M 149.112205 56.142275 
L 149.115139 55.610604 
L 149.172055 55.885016 
z
" clip-path="url(#pdcf7ae941e)" style="fill: #eeeeee; stroke: #000000; stroke-width: 0.3"/>
    <path d="M 147.067693 58.953721 
L 147.337051 58.46432 
L 147.435631 58.618675 
z
" clip-path="url(#pdcf7ae941e)" style="fill: #eeeeee; stroke: #000000; stroke-width: 0.3"/>
    <path d="M 146.303643 22.669515 
L 146.692125 22.562321 
L 146.918051 22.871641 
z
" clip-path="url(#pdcf7ae941e)" style="fill: #eeeeee; stroke: #000000; stroke-width: 0.3"/>
    <path d="M 128.911821 91.757609 
L 129.147135 91.816414 
L 128.932357 91.981179 
z
" clip-path="url(#pdcf7ae941e)" style="fill: #eeeeee; stroke: #000000; stroke-width: 0.3"/>
    <path d="M -2415.27463 77.911079 
L -2415.182201 77.806948 
L -2415.210366 77.902506 
z
" clip-path="url(#pdcf7ae941e)" style="fill: #eeeeee; stroke: #000000; stroke-width: 0.3"/>
    <path d="M -2416.163963 63.736239 
L -2416.060097 63.286653 
L -2415.416643 63.787691 
z
" clip-path="url(#pdcf7ae941e)" style="fill: #eeeeee; stroke: #000000; stroke-width: 0.3"/>
    <path d="M -2416.516059 72.675904 
L -2416.457088 72.631196 
L -2416.450043 72.919074 
z
" clip-path="url(#pdcf7ae941e)" style="fill: #eeeeee; stroke: #000000; stroke-width: 0.3"/>
    <path d="M -2417.346717 69.036955 
L -2417.223482 68.914452 
L -2417.128708 69.050427 
z
" clip-path="url(#pdcf7ae941e)" style="fill: #eeeeee; stroke: #000000; stroke-width: 0.3"/>
    <path d="M -2418.895065 84.147711 
L -2418.851345 84.032562 
L -2418.729869 84.250615 
z
" clip-path="url(#pdcf7ae941e)" style="fill: #eeeeee; stroke: #000000; stroke-width: 0.3"/>
    <path d="M -2419.719853 65.780815 
L -2419.318751 65.440259 
L -2419.12774 65.995203 
z
" clip-path="url(#pdcf7ae941e)" style="fill: #eeeeee; stroke: #000000; stroke-width: 0.3"/>
    <path d="M -2420.334261 70.783847 
L -2419.968371 70.574367 
L -2420.22071 70.798546 
z
" clip-path="url(#pdcf7ae941e)" style="fill: #eeeeee; stroke: #000000; stroke-width: 0.3"/>
    <path d="M -2420.611536 71.239559 
L -2420.427859 71.117057 
L -2420.3369 71.455776 
z
" clip-path="url(#pdcf7ae941e)" style="fill: #eeeeee; stroke: #000000; stroke-width: 0.3"/>
    <path d="M -2420.978595 57.740322 
L -2420.190778 58.232787 
L -2420.732421 58.97822 
z
" clip-path="url(#pdcf7ae941e)" style="fill: #eeeeee; stroke: #000000; stroke-width: 0.3"/>
    <path d="M -2421.334585 64.064293 
L -2421.064138 63.891256 
L -2421.03554 64.16737 
z
" clip-path="url(#pdcf7ae941e)" style="fill: #eeeeee; stroke: #000000; stroke-width: 0.3"/>
    <path d="M -2421.964468 58.530471 
L -2421.803678 58.515771 
L -2421.777856 58.703199 
z
" clip-path="url(#pdcf7ae941e)" style="fill: #eeeeee; stroke: #000000; stroke-width: 0.3"/>
    <path d="M -2422.100026 59.927617 
L -2421.884369 59.811241 
L -2421.777856 60.032974 
z
" clip-path="url(#pdcf7ae941e)" style="fill: #eeeeee; stroke: #000000; stroke-width: 0.3"/>
    <path d="M -2423.244634 62.1878 
L -2422.984081 62.061625 
L -2422.859086 62.339702 
z
" clip-path="url(#pdcf7ae941e)" style="fill: #eeeeee; stroke: #000000; stroke-width: 0.3"/>
    <path d="M -2427.023515 71.716098 
L -2426.961601 71.095004 
L -2426.510917 71.33511 
z
" clip-path="url(#pdcf7ae941e)" style="fill: #eeeeee; stroke: #000000; stroke-width: 0.3"/>
    <path d="M -2427.955688 50.131041 
L -2427.602712 50.004248 
L -2427.769955 50.255998 
z
" clip-path="url(#pdcf7ae941e)" style="fill: #eeeeee; stroke: #000000; stroke-width: 0.3"/>
    <path d="M 52.461029 79.823353 
L 54.801889 81.599651 
L 54.729116 80.966921 
L 56.092907 81.457549 
L 59.354496 84.343719 
L 61.29866 84.951333 
L 64.22282 88.741583 
L 69.611667 91.684104 
L 71.880929 94.104769 
L 73.710663 94.852039 
L 74.40018 96.038479 
L 73.544003 97.228599 
L 73.000601 96.493582 
L 72.548742 97.201646 
L 70.875111 96.039096 
L 70.089933 96.569533 
L 70.054722 95.547858 
L 69.421536 95.963145 
L 69.307105 95.342051 
L 67.726185 94.931663 
L 68.118778 94.436143 
L 67.38231 93.43223 
L 66.963895 93.979813 
L 65.577223 93.186608 
L 65.015044 92.14227 
L 64.617173 92.455264 
L 61.826804 91.065463 
L 59.625613 88.997615 
L 59.379734 89.387176 
L 58.223092 87.20907 
L 57.651524 87.400171 
L 57.253653 86.317244 
L 55.22675 85.023611 
L 55.434483 84.65733 
L 53.408756 82.289953 
L 53.719778 81.697655 
L 52.481566 81.18681 
L 52.925796 80.911179 
z
" clip-path="url(#pdcf7ae941e)" style="fill: #eeeeee; stroke: #000000; stroke-width: 0.3"/>
    <path d="M 74.302184 86.059985 
L 75.528657 85.294343 
L 74.472362 84.980123 
L 74.576236 84.586888 
L 76.324392 84.564835 
L 76.181795 85.92891 
L 77.269184 86.933439 
L 76.969901 88.069036 
L 75.018115 87.115357 
z
" clip-path="url(#pdcf7ae941e)" style="fill: #eeeeee; stroke: #000000; stroke-width: 0.3"/>
    <path d="M 79.981508 89.614419 
L 81.274878 89.250583 
L 81.418058 90.133219 
L 82.354053 89.974574 
L 82.277177 91.407863 
L 81.311848 91.654095 
L 80.36177 91.245545 
z
" clip-path="url(#pdcf7ae941e)" style="fill: #eeeeee; stroke: #000000; stroke-width: 0.3"/>
    <path d="M 70.502471 84.564835 
L 71.294687 82.649498 
L 71.005968 82.223192 
L 71.535878 82.397146 
L 71.118055 83.33429 
L 71.48189 83.686489 
z
" clip-path="url(#pdcf7ae941e)" style="fill: #eeeeee; stroke: #000000; stroke-width: 0.3"/>
    <path d="M 53.699826 79.664097 
L 53.74912 79.664097 
L 54.13877 80.23374 
L 53.73914 80.125937 
z
" clip-path="url(#pdcf7ae941e)" style="fill: #eeeeee; stroke: #000000; stroke-width: 0.3"/>
    <path d="M 105.440343 96.867736 
L 105.474523 96.857831 
L 105.461233 96.879636 
z
" clip-path="url(#pdcf7ae941e)" style="fill: #eeeeee; stroke: #000000; stroke-width: 0.3"/>
    <path d="M 77.171187 99.107801 
L 77.269184 98.332351 
L 78.155294 99.056349 
z
" clip-path="url(#pdcf7ae941e)" style="fill: #eeeeee; stroke: #000000; stroke-width: 0.3"/>
    <path d="M 72.498864 97.642659 
L 73.022897 97.445432 
L 72.722439 97.736373 
z
" clip-path="url(#pdcf7ae941e)" style="fill: #eeeeee; stroke: #000000; stroke-width: 0.3"/>
    <path d="M 69.759549 84.667739 
L 69.871629 84.614451 
L 70.247203 84.616287 
z
" clip-path="url(#pdcf7ae941e)" style="fill: #eeeeee; stroke: #000000; stroke-width: 0.3"/>
    <path d="M 52.137683 79.694723 
L 52.156467 79.214512 
L 52.282046 79.258617 
z
" clip-path="url(#pdcf7ae941e)" style="fill: #eeeeee; stroke: #000000; stroke-width: 0.3"/>
    <path d="M 49.792136 76.365704 
L 49.992831 76.535368 
L 50.137187 77.599922 
z
" clip-path="url(#pdcf7ae941e)" style="fill: #eeeeee; stroke: #000000; stroke-width: 0.3"/>
    <path d="M 3.663924 -9.48266 
L 5.223125 -11.274268 
L 6.409693 -11.064178 
L 6.654988 -9.308096 
L 7.420797 -9.399973 
L 8.088026 -8.583488 
L 8.582134 -7.426448 
L 8.431901 -6.733693 
L 7.792262 -6.888041 
L 7.940144 -6.471534 
L 6.207823 -7.838055 
L 6.113929 -8.686392 
L 6.602175 -8.198217 
L 6.00596 -9.153741 
L 3.687987 -8.737844 
z
" clip-path="url(#pdcf7ae941e)" style="fill: #eeeeee; stroke: #000000; stroke-width: 0.3"/>
    <path d="M 32.940781 6.369857 
L 33.049926 5.490902 
L 36.912432 7.295982 
L 38.916447 7.36765 
L 40.172261 9.140268 
L 40.056655 10.061493 
L 40.800169 10.131317 
L 38.896494 10.131317 
L 36.598482 9.463678 
L 34.669576 8.178618 
L 34.570988 6.678568 
z
" clip-path="url(#pdcf7ae941e)" style="fill: #eeeeee; stroke: #000000; stroke-width: 0.3"/>
    <path d="M 28.011423 -8.671693 
L 29.148106 -8.737844 
L 30.863409 -6.576884 
L 30.501333 -4.996593 
L 31.976036 -3.973691 
L 32.940781 -2.19311 
L 32.583399 -1.478302 
L 33.634409 0.236738 
L 33.487118 1.053832 
L 29.933875 -2.449752 
z
" clip-path="url(#pdcf7ae941e)" style="fill: #eeeeee; stroke: #000000; stroke-width: 0.3"/>
    <path d="M 20.803998 0.333515 
L 20.859746 -1.262703 
L 21.826842 -1.641238 
L 23.240511 -0.336578 
L 26.317248 -0.48787 
L 28.20684 0.788 
L 29.634001 2.707628 
L 28.324789 3.458571 
L 25.985105 2.54041 
L 22.48996 2.380545 
z
" clip-path="url(#pdcf7ae941e)" style="fill: #eeeeee; stroke: #000000; stroke-width: 0.3"/>
    <path d="M 12.512704 -14.64372 
L 14.673997 -14.181271 
L 17.082337 -11.846974 
L 19.367449 -11.254059 
L 22.536319 -8.670466 
L 21.921911 -8.172491 
L 22.862009 -6.888041 
L 20.987092 -8.429743 
L 16.09001 -10.751794 
L 13.471587 -12.970325 
z
" clip-path="url(#pdcf7ae941e)" style="fill: #eeeeee; stroke: #000000; stroke-width: 0.3"/>
    <path d="M -1.891574 -21.426716 
L -1.216723 -21.579235 
L 2.350018 -19.421955 
L 3.392807 -17.301421 
L 5.862772 -16.14009 
L 5.272419 -15.394664 
L 2.148148 -16.520469 
L -1.843455 -20.654947 
z
" clip-path="url(#pdcf7ae941e)" style="fill: #eeeeee; stroke: #000000; stroke-width: 0.3"/>
    <path d="M 23.45353 15.245825 
L 24.303844 15.182737 
L 27.873521 17.441076 
L 27.159349 17.818392 
L 25.62773 16.222785 
L 23.846115 15.979615 
z
" clip-path="url(#pdcf7ae941e)" style="fill: #eeeeee; stroke: #000000; stroke-width: 0.3"/>
    <path d="M 8.382607 -5.983969 
L 8.530489 -6.888041 
L 10.208822 -7.015451 
L 9.721752 -6.522986 
L 10.015756 -5.919654 
L 8.943619 -5.431479 
z
" clip-path="url(#pdcf7ae941e)" style="fill: #eeeeee; stroke: #000000; stroke-width: 0.3"/>
    <path d="M 33.441343 -1.046479 
L 34.817458 0.956446 
L 34.914279 2.343792 
L 33.775837 1.448293 
L 33.732997 -0.48787 
z
" clip-path="url(#pdcf7ae941e)" style="fill: #eeeeee; stroke: #000000; stroke-width: 0.3"/>
    <path d="M 3.491395 -6.862315 
L 4.548275 -8.016299 
L 5.02654 -7.37316 
L 4.41741 -6.235718 
L 5.02654 -5.64954 
z
" clip-path="url(#pdcf7ae941e)" style="fill: #eeeeee; stroke: #000000; stroke-width: 0.3"/>
    <path d="M -4.860341 -18.795351 
L -4.53993 -19.388266 
L -4.830408 -19.764348 
L -4.614455 -20.03876 
L -4.068118 -19.164696 
z
" clip-path="url(#pdcf7ae941e)" style="fill: #eeeeee; stroke: #000000; stroke-width: 0.3"/>
    <path d="M 65.184883 10.044746 
L 66.061647 8.875761 
L 68.00747 9.155743 
L 65.945573 10.469088 
z
" clip-path="url(#pdcf7ae941e)" style="fill: #eeeeee; stroke: #000000; stroke-width: 0.3"/>
    <path d="M 37.581412 1.825601 
L 37.937035 1.57325 
L 37.834336 1.829282 
L 37.937035 2.810531 
z
" clip-path="url(#pdcf7ae941e)" style="fill: #eeeeee; stroke: #000000; stroke-width: 0.3"/>
    <path d="M 25.50743 -2.398307 
L 25.946375 -3.130261 
L 26.662306 -2.604107 
L 26.317248 -2.19311 
z
" clip-path="url(#pdcf7ae941e)" style="fill: #eeeeee; stroke: #000000; stroke-width: 0.3"/>
    <path d="M 24.3725 -3.16885 
L 24.740445 -3.672334 
L 25.848962 -3.130871 
L 25.582539 -2.604107 
z
" clip-path="url(#pdcf7ae941e)" style="fill: #eeeeee; stroke: #000000; stroke-width: 0.3"/>
    <path d="M 20.429015 -7.57774 
L 20.490048 -8.190254 
L 21.049884 -8.229453 
L 21.430146 -7.298428 
z
" clip-path="url(#pdcf7ae941e)" style="fill: #eeeeee; stroke: #000000; stroke-width: 0.3"/>
    <path d="M 16.747843 -3.078809 
L 17.128696 -3.636808 
L 17.669755 -3.459181 
L 17.526567 -2.814204 
z
" clip-path="url(#pdcf7ae941e)" style="fill: #eeeeee; stroke: #000000; stroke-width: 0.3"/>
    <path d="M 1.660494 -11.274268 
L 2.699179 -12.246335 
L 3.491395 -11.11563 
L 3.248451 -10.101301 
z
" clip-path="url(#pdcf7ae941e)" style="fill: #eeeeee; stroke: #000000; stroke-width: 0.3"/>
    <path d="M -1.533024 -13.905633 
L -0.761345 -14.361962 
L 0.65174 -13.227584 
L -0.411593 -11.578689 
z
" clip-path="url(#pdcf7ae941e)" style="fill: #eeeeee; stroke: #000000; stroke-width: 0.3"/>
    <path d="M 87.11616 21.106986 
L 87.318031 21.103923 
L 87.149021 21.172528 
z
" clip-path="url(#pdcf7ae941e)" style="fill: #eeeeee; stroke: #000000; stroke-width: 0.3"/>
    <path d="M 75.347323 2.940997 
L 75.379016 2.871783 
L 75.565036 3.0733 
z
" clip-path="url(#pdcf7ae941e)" style="fill: #eeeeee; stroke: #000000; stroke-width: 0.3"/>
    <path d="M 74.901925 2.476095 
L 74.905444 2.440569 
L 74.932435 2.461395 
z
" clip-path="url(#pdcf7ae941e)" style="fill: #eeeeee; stroke: #000000; stroke-width: 0.3"/>
    <path d="M 73.750568 16.165823 
L 74.005251 16.265046 
L 73.759957 16.375303 
z
" clip-path="url(#pdcf7ae941e)" style="fill: #eeeeee; stroke: #000000; stroke-width: 0.3"/>
    <path d="M 72.473193 16.103345 
L 74.037578 16.801384 
L 73.019912 16.827373 
z
" clip-path="url(#pdcf7ae941e)" style="fill: #eeeeee; stroke: #000000; stroke-width: 0.3"/>
    <path d="M 70.400458 13.320779 
L 70.837902 13.07347 
L 70.610058 13.786652 
z
" clip-path="url(#pdcf7ae941e)" style="fill: #eeeeee; stroke: #000000; stroke-width: 0.3"/>
    <path d="M 68.6522 6.27369 
L 68.661005 5.550309 
L 68.689171 5.956414 
z
" clip-path="url(#pdcf7ae941e)" style="fill: #eeeeee; stroke: #000000; stroke-width: 0.3"/>
    <path d="M 64.942862 7.03934 
L 65.009758 6.866612 
L 65.174658 6.994625 
z
" clip-path="url(#pdcf7ae941e)" style="fill: #eeeeee; stroke: #000000; stroke-width: 0.3"/>
    <path d="M 43.396296 -8.307857 
L 43.56002 -8.272332 
L 43.504272 -8.222107 
z
" clip-path="url(#pdcf7ae941e)" style="fill: #eeeeee; stroke: #000000; stroke-width: 0.3"/>
    <path d="M 36.058598 5.673429 
L 36.154835 5.487838 
L 36.430056 5.830231 
z
" clip-path="url(#pdcf7ae941e)" style="fill: #eeeeee; stroke: #000000; stroke-width: 0.3"/>
    <path d="M 28.056607 -11.957833 
L 28.259653 -11.941297 
L 28.347677 -11.671792 
z
" clip-path="url(#pdcf7ae941e)" style="fill: #eeeeee; stroke: #000000; stroke-width: 0.3"/>
    <path d="M 24.21171 -3.960828 
L 24.343158 -4.042296 
L 24.49104 -3.636808 
z
" clip-path="url(#pdcf7ae941e)" style="fill: #eeeeee; stroke: #000000; stroke-width: 0.3"/>
    <path d="M 22.265202 -2.615134 
L 22.468832 -2.814204 
L 22.555681 -2.499984 
z
" clip-path="url(#pdcf7ae941e)" style="fill: #eeeeee; stroke: #000000; stroke-width: 0.3"/>
    <path d="M 22.069786 13.593256 
L 22.516951 13.698606 
L 22.616714 13.90074 
z
" clip-path="url(#pdcf7ae941e)" style="fill: #eeeeee; stroke: #000000; stroke-width: 0.3"/>
    <path d="M 17.719633 -2.552655 
L 17.750734 -2.896892 
L 18.166798 -3.421202 
z
" clip-path="url(#pdcf7ae941e)" style="fill: #eeeeee; stroke: #000000; stroke-width: 0.3"/>
    <path d="M 11.53857 -14.287231 
L 11.98456 -14.412797 
L 13.029116 -13.694316 
z
" clip-path="url(#pdcf7ae941e)" style="fill: #eeeeee; stroke: #000000; stroke-width: 0.3"/>
    <path d="M 11.170041 -14.97325 
L 11.189993 -15.133114 
L 12.388885 -14.675565 
z
" clip-path="url(#pdcf7ae941e)" style="fill: #eeeeee; stroke: #000000; stroke-width: 0.3"/>
    <path d="M 10.654812 -15.348112 
L 11.057961 -15.675195 
L 11.049157 -15.085953 
z
" clip-path="url(#pdcf7ae941e)" style="fill: #eeeeee; stroke: #000000; stroke-width: 0.3"/>
    <path d="M 10.361391 -5.125839 
L 10.755159 -6.009695 
L 10.913598 -5.566845 
z
" clip-path="url(#pdcf7ae941e)" style="fill: #eeeeee; stroke: #000000; stroke-width: 0.3"/>
    <path d="M 6.935493 -15.274607 
L 7.246509 -15.758499 
L 7.792262 -15.085953 
z
" clip-path="url(#pdcf7ae941e)" style="fill: #eeeeee; stroke: #000000; stroke-width: 0.3"/>
    <path d="M 5.471946 -15.548402 
L 5.713714 -15.708267 
L 6.50593 -15.245208 
z
" clip-path="url(#pdcf7ae941e)" style="fill: #eeeeee; stroke: #000000; stroke-width: 0.3"/>
    <path d="M 5.304695 -5.688129 
L 6.00596 -5.911691 
L 6.529993 -5.131349 
z
" clip-path="url(#pdcf7ae941e)" style="fill: #eeeeee; stroke: #000000; stroke-width: 0.3"/>
    <path d="M 2.747889 -9.9249 
L 3.392807 -9.723376 
L 3.290116 -9.097999 
z
" clip-path="url(#pdcf7ae941e)" style="fill: #eeeeee; stroke: #000000; stroke-width: 0.3"/>
    <path d="M 2.205655 -9.670088 
L 2.769602 -9.589237 
L 3.142234 -8.583488 
z
" clip-path="url(#pdcf7ae941e)" style="fill: #eeeeee; stroke: #000000; stroke-width: 0.3"/>
    <path d="M 0.496813 -10.472483 
L 0.778494 -10.597439 
L 0.898203 -10.270966 
z
" clip-path="url(#pdcf7ae941e)" style="fill: #eeeeee; stroke: #000000; stroke-width: 0.3"/>
    <path d="M -1.203816 -11.578689 
L -1.00664 -11.372881 
L -0.932699 -9.62048 
z
" clip-path="url(#pdcf7ae941e)" style="fill: #eeeeee; stroke: #000000; stroke-width: 0.3"/>
    <path d="M -1.441481 -12.490114 
L -1.376338 -12.630989 
L -1.163319 -12.49624 
z
" clip-path="url(#pdcf7ae941e)" style="fill: #eeeeee; stroke: #000000; stroke-width: 0.3"/>
    <path d="M -7.527474 -17.973967 
L -7.080309 -18.903155 
L -6.243494 -17.900462 
z
" clip-path="url(#pdcf7ae941e)" style="fill: #eeeeee; stroke: #000000; stroke-width: 0.3"/>
    <path d="M -8.716386 -15.819751 
L -8.468748 -16.217268 
L -8.071461 -15.765845 
z
" clip-path="url(#pdcf7ae941e)" style="fill: #eeeeee; stroke: #000000; stroke-width: 0.3"/>
    <path d="M 75.215291 49.715754 
L 75.48816 48.268992 
L 76.575556 48.406195 
L 77.019195 49.746997 
L 79.722131 51.620682 
L 79.843015 52.633784 
L 80.01085 52.249123 
L 79.63645 53.203419 
L 78.636494 52.811412 
L 77.459906 53.366347 
L 76.854887 50.543875 
z
" clip-path="url(#pdcf7ae941e)" style="fill: #eeeeee; stroke: #000000; stroke-width: 0.3"/>
    <path d="M 70.951395 38.899957 
L 72.328094 40.207063 
L 72.804601 42.772277 
L 73.573345 42.738587 
L 73.896099 41.198729 
L 74.749349 41.029675 
L 74.449474 41.753665 
L 75.191812 42.529107 
L 75.934741 45.314835 
L 72.377388 46.28934 
L 71.383302 44.462825 
z
" clip-path="url(#pdcf7ae941e)" style="fill: #eeeeee; stroke: #000000; stroke-width: 0.3"/>
    <path d="M 82.452641 62.023645 
L 83.692022 60.627109 
L 84.63212 60.730012 
L 85.325748 61.819065 
L 84.853936 62.795415 
L 83.146269 62.538163 
L 83.593434 62.121649 
L 83.177961 61.853371 
z
" clip-path="url(#pdcf7ae941e)" style="fill: #eeeeee; stroke: #000000; stroke-width: 0.3"/>
    <path d="M 90.149473 75.360565 
L 90.329047 74.245176 
L 91.000962 74.039369 
L 92.191641 75.641706 
L 91.719245 76.618672 
z
" clip-path="url(#pdcf7ae941e)" style="fill: #eeeeee; stroke: #000000; stroke-width: 0.3"/>
    <path d="M 88.482295 70.742195 
L 88.632528 69.036955 
L 89.672382 68.934051 
L 91.000962 71.180754 
L 90.557324 71.665873 
z
" clip-path="url(#pdcf7ae941e)" style="fill: #eeeeee; stroke: #000000; stroke-width: 0.3"/>
    <path d="M 77.045018 36.334736 
L 77.090201 35.505396 
L 77.864815 35.096236 
L 78.500352 35.46129 
L 78.204588 36.288184 
z
" clip-path="url(#pdcf7ae941e)" style="fill: #eeeeee; stroke: #000000; stroke-width: 0.3"/>
    <path d="M 93.895197 80.770303 
L 94.021951 80.280292 
L 94.633432 80.25763 
L 94.858774 81 
z
" clip-path="url(#pdcf7ae941e)" style="fill: #eeeeee; stroke: #000000; stroke-width: 0.3"/>
    <path d="M 82.844051 60.992171 
L 83.085827 60.546258 
L 83.493087 60.580557 
L 83.14451 60.730012 
z
" clip-path="url(#pdcf7ae941e)" style="fill: #eeeeee; stroke: #000000; stroke-width: 0.3"/>
    <path d="M 82.402756 53.404327 
L 84.829296 55.114474 
L 84.780002 55.474629 
L 82.747814 55.21737 
z
" clip-path="url(#pdcf7ae941e)" style="fill: #eeeeee; stroke: #000000; stroke-width: 0.3"/>
    <path d="M 82.22554 46.553336 
L 82.477288 45.052059 
L 83.312344 48.44601 
L 82.835838 49.034643 
z
" clip-path="url(#pdcf7ae941e)" style="fill: #eeeeee; stroke: #000000; stroke-width: 0.3"/>
    <path d="M 80.734403 50.84585 
L 82.600516 49.695545 
L 83.741316 51.396503 
L 81.521341 51.549631 
z
" clip-path="url(#pdcf7ae941e)" style="fill: #eeeeee; stroke: #000000; stroke-width: 0.3"/>
    <path d="M 79.003849 44.950382 
L 79.952751 43.973423 
L 81.380504 43.686155 
L 80.19863 45.213768 
z
" clip-path="url(#pdcf7ae941e)" style="fill: #eeeeee; stroke: #000000; stroke-width: 0.3"/>
    <path d="M 76.969901 32.363796 
L 77.677619 31.84194 
L 78.406458 32.959165 
L 77.417066 33.425904 
z
" clip-path="url(#pdcf7ae941e)" style="fill: #eeeeee; stroke: #000000; stroke-width: 0.3"/>
    <path d="M 74.697704 46.454113 
L 75.836153 46.393471 
L 75.635458 47.219146 
L 74.794533 46.86021 
z
" clip-path="url(#pdcf7ae941e)" style="fill: #eeeeee; stroke: #000000; stroke-width: 0.3"/>
    <path d="M 85.213077 55.823765 
L 85.533488 55.691463 
L 85.667871 55.829274 
z
" clip-path="url(#pdcf7ae941e)" style="fill: #eeeeee; stroke: #000000; stroke-width: 0.3"/>
    <path d="M 83.772417 60.155477 
L 83.804102 59.737736 
L 84.045878 60.224075 
z
" clip-path="url(#pdcf7ae941e)" style="fill: #eeeeee; stroke: #000000; stroke-width: 0.3"/>
    <path d="M 83.690263 57.291353 
L 84.42849 56.969169 
L 84.077562 57.260727 
z
" clip-path="url(#pdcf7ae941e)" style="fill: #eeeeee; stroke: #000000; stroke-width: 0.3"/>
    <path d="M 83.493087 52.839584 
L 83.882153 52.839584 
L 83.640969 53.124405 
z
" clip-path="url(#pdcf7ae941e)" style="fill: #eeeeee; stroke: #000000; stroke-width: 0.3"/>
    <path d="M 82.968462 52.407761 
L 83.244857 52.3263 
L 83.121038 52.813858 
z
" clip-path="url(#pdcf7ae941e)" style="fill: #eeeeee; stroke: #000000; stroke-width: 0.3"/>
    <path d="M 82.160987 40.931054 
L 82.653336 44.538775 
L 82.308278 44.538775 
z
" clip-path="url(#pdcf7ae941e)" style="fill: #eeeeee; stroke: #000000; stroke-width: 0.3"/>
    <path d="M 78.730972 31.731683 
L 78.982721 31.302313 
L 79.292568 31.541192 
z
" clip-path="url(#pdcf7ae941e)" style="fill: #eeeeee; stroke: #000000; stroke-width: 0.3"/>
    <path d="M 76.427674 30.662847 
L 76.826129 30.405588 
L 76.810287 30.601595 
z
" clip-path="url(#pdcf7ae941e)" style="fill: #eeeeee; stroke: #000000; stroke-width: 0.3"/>
    <path d="M 74.941823 45.986764 
L 75.541565 45.594749 
L 75.556823 46.137439 
z
" clip-path="url(#pdcf7ae941e)" style="fill: #eeeeee; stroke: #000000; stroke-width: 0.3"/>
    <path d="M 74.847345 41.029675 
L 75.286881 41.235474 
L 74.880797 41.110525 
z
" clip-path="url(#pdcf7ae941e)" style="fill: #eeeeee; stroke: #000000; stroke-width: 0.3"/>
    <path d="M 71.689039 29.638718 
L 71.79995 29.579913 
L 71.907336 29.698743 
z
" clip-path="url(#pdcf7ae941e)" style="fill: #eeeeee; stroke: #000000; stroke-width: 0.3"/>
    <path d="M 71.351026 28.131932 
L 71.585172 28.243408 
L 71.36159 28.530676 
z
" clip-path="url(#pdcf7ae941e)" style="fill: #eeeeee; stroke: #000000; stroke-width: 0.3"/>
    <path d="M 70.694361 27 
L 70.98895 27.10413 
L 70.760089 27.790142 
z
" clip-path="url(#pdcf7ae941e)" style="fill: #eeeeee; stroke: #000000; stroke-width: 0.3"/>
   </g>
   <g id="PatchCollection_2">
    <path d="M 75.215291 49.715754 
L 75.48816 48.268992 
L 76.575556 48.406195 
L 77.019195 49.746997 
L 79.722131 51.620682 
L 79.843015 52.633784 
L 80.01085 52.249123 
L 79.63645 53.203419 
L 78.636494 52.811412 
L 77.459906 53.366347 
L 76.854887 50.543875 
z
" clip-path="url(#pdcf7ae941e)" style="fill: #ff6b6b; stroke: #dd0000; stroke-width: 0.5"/>
    <path d="M 70.951395 38.899957 
L 72.328094 40.207063 
L 72.804601 42.772277 
L 73.573345 42.738587 
L 73.896099 41.198729 
L 74.749349 41.029675 
L 74.449474 41.753665 
L 75.191812 42.529107 
L 75.934741 45.314835 
L 72.377388 46.28934 
L 71.383302 44.462825 
z
" clip-path="url(#pdcf7ae941e)" style="fill: #ff6b6b; stroke: #dd0000; stroke-width: 0.5"/>
    <path d="M 82.452641 62.023645 
L 83.692022 60.627109 
L 84.63212 60.730012 
L 85.325748 61.819065 
L 84.853936 62.795415 
L 83.146269 62.538163 
L 83.593434 62.121649 
L 83.177961 61.853371 
z
" clip-path="url(#pdcf7ae941e)" style="fill: #ff6b6b; stroke: #dd0000; stroke-width: 0.5"/>
    <path d="M 90.149473 75.360565 
L 90.329047 74.245176 
L 91.000962 74.039369 
L 92.191641 75.641706 
L 91.719245 76.618672 
z
" clip-path="url(#pdcf7ae941e)" style="fill: #ff6b6b; stroke: #dd0000; stroke-width: 0.5"/>
    <path d="M 88.482295 70.742195 
L 88.632528 69.036955 
L 89.672382 68.934051 
L 91.000962 71.180754 
L 90.557324 71.665873 
z
" clip-path="url(#pdcf7ae941e)" style="fill: #ff6b6b; stroke: #dd0000; stroke-width: 0.5"/>
    <path d="M 77.045018 36.334736 
L 77.090201 35.505396 
L 77.864815 35.096236 
L 78.500352 35.46129 
L 78.204588 36.288184 
z
" clip-path="url(#pdcf7ae941e)" style="fill: #ff6b6b; stroke: #dd0000; stroke-width: 0.5"/>
    <path d="M 93.895197 80.770303 
L 94.021951 80.280292 
L 94.633432 80.25763 
L 94.858774 81 
z
" clip-path="url(#pdcf7ae941e)" style="fill: #ff6b6b; stroke: #dd0000; stroke-width: 0.5"/>
    <path d="M 82.844051 60.992171 
L 83.085827 60.546258 
L 83.493087 60.580557 
L 83.14451 60.730012 
z
" clip-path="url(#pdcf7ae941e)" style="fill: #ff6b6b; stroke: #dd0000; stroke-width: 0.5"/>
    <path d="M 82.402756 53.404327 
L 84.829296 55.114474 
L 84.780002 55.474629 
L 82.747814 55.21737 
z
" clip-path="url(#pdcf7ae941e)" style="fill: #ff6b6b; stroke: #dd0000; stroke-width: 0.5"/>
    <path d="M 82.22554 46.553336 
L 82.477288 45.052059 
L 83.312344 48.44601 
L 82.835838 49.034643 
z
" clip-path="url(#pdcf7ae941e)" style="fill: #ff6b6b; stroke: #dd0000; stroke-width: 0.5"/>
    <path d="M 80.734403 50.84585 
L 82.600516 49.695545 
L 83.741316 51.396503 
L 81.521341 51.549631 
z
" clip-path="url(#pdcf7ae941e)" style="fill: #ff6b6b; stroke: #dd0000; stroke-width: 0.5"/>
    <path d="M 79.003849 44.950382 
L 79.952751 43.973423 
L 81.380504 43.686155 
L 80.19863 45.213768 
z
" clip-path="url(#pdcf7ae941e)" style="fill: #ff6b6b; stroke: #dd0000; stroke-width: 0.5"/>
    <path d="M 76.969901 32.363796 
L 77.677619 31.84194 
L 78.406458 32.959165 
L 77.417066 33.425904 
z
" clip-path="url(#pdcf7ae941e)" style="fill: #ff6b6b; stroke: #dd0000; stroke-width: 0.5"/>
    <path d="M 74.697704 46.454113 
L 75.836153 46.393471 
L 75.635458 47.219146 
L 74.794533 46.86021 
z
" clip-path="url(#pdcf7ae941e)" style="fill: #ff6b6b; stroke: #dd0000; stroke-width: 0.5"/>
    <path d="M 85.213077 55.823765 
L 85.533488 55.691463 
L 85.667871 55.829274 
z
" clip-path="url(#pdcf7ae941e)" style="fill: #ff6b6b; stroke: #dd0000; stroke-width: 0.5"/>
    <path d="M 83.772417 60.155477 
L 83.804102 59.737736 
L 84.045878 60.224075 
z
" clip-path="url(#pdcf7ae941e)" style="fill: #ff6b6b; stroke: #dd0000; stroke-width: 0.5"/>
    <path d="M 83.690263 57.291353 
L 84.42849 56.969169 
L 84.077562 57.260727 
z
" clip-path="url(#pdcf7ae941e)" style="fill: #ff6b6b; stroke: #dd0000; stroke-width: 0.5"/>
    <path d="M 83.493087 52.839584 
L 83.882153 52.839584 
L 83.640969 53.124405 
z
" clip-path="url(#pdcf7ae941e)" style="fill: #ff6b6b; stroke: #dd0000; stroke-width: 0.5"/>
    <path d="M 82.968462 52.407761 
L 83.244857 52.3263 
L 83.121038 52.813858 
z
" clip-path="url(#pdcf7ae941e)" style="fill: #ff6b6b; stroke: #dd0000; stroke-width: 0.5"/>
    <path d="M 82.160987 40.931054 
L 82.653336 44.538775 
L 82.308278 44.538775 
z
" clip-path="url(#pdcf7ae941e)" style="fill: #ff6b6b; stroke: #dd0000; stroke-width: 0.5"/>
    <path d="M 78.730972 31.731683 
L 78.982721 31.302313 
L 79.292568 31.541192 
z
" clip-path="url(#pdcf7ae941e)" style="fill: #ff6b6b; stroke: #dd0000; stroke-width: 0.5"/>
    <path d="M 76.427674 30.662847 
L 76.826129 30.405588 
L 76.810287 30.601595 
z
" clip-path="url(#pdcf7ae941e)" style="fill: #ff6b6b; stroke: #dd0000; stroke-width: 0.5"/>
    <path d="M 74.941823 45.986764 
L 75.541565 45.594749 
L 75.556823 46.137439 
z
" clip-path="url(#pdcf7ae941e)" style="fill: #ff6b6b; stroke: #dd0000; stroke-width: 0.5"/>
    <path d="M 74.847345 41.029675 
L 75.286881 41.235474 
L 74.880797 41.110525 
z
" clip-path="url(#pdcf7ae941e)" style="fill: #ff6b6b; stroke: #dd0000; stroke-width: 0.5"/>
    <path d="M 71.689039 29.638718 
L 71.79995 29.579913 
L 71.907336 29.698743 
z
" clip-path="url(#pdcf7ae941e)" style="fill: #ff6b6b; stroke: #dd0000; stroke-width: 0.5"/>
    <path d="M 71.351026 28.131932 
L 71.585172 28.243408 
L 71.36159 28.530676 
z
" clip-path="url(#pdcf7ae941e)" style="fill: #ff6b6b; stroke: #dd0000; stroke-width: 0.5"/>
    <path d="M 70.694361 27 
L 70.98895 27.10413 
L 70.760089 27.790142 
z
" clip-path="url(#pdcf7ae941e)" style="fill: #ff6b6b; stroke: #dd0000; stroke-width: 0.5"/>
   </g>
  </g>
 </g>
 <defs>
  <clipPath id="pdcf7ae941e">
   <rect x="0" y="0" width="165.553135" height="108"/>
  </clipPath>
 </defs>
</svg>
