<?xml version="1.0" encoding="utf-8" standalone="no"?>
<!DOCTYPE svg PUBLIC "-//W3C//DTD SVG 1.1//EN"
  "http://www.w3.org/Graphics/SVG/1.1/DTD/svg11.dtd">
<svg xmlns:xlink="http://www.w3.org/1999/xlink" width="128.610321pt" height="108pt" viewBox="0 0 128.610321 108" xmlns="http://www.w3.org/2000/svg" version="1.1">
 <metadata>
  <rdf:RDF xmlns:dc="http://purl.org/dc/elements/1.1/" xmlns:cc="http://creativecommons.org/ns#" xmlns:rdf="http://www.w3.org/1999/02/22-rdf-syntax-ns#">
   <cc:Work>
    <dc:type rdf:resource="http://purl.org/dc/dcmitype/StillImage"/>
    <dc:date>2025-09-05T15:57:05.785483</dc:date>
    <dc:format>image/svg+xml</dc:format>
    <dc:creator>
     <cc:Agent>
      <dc:title>Matplotlib v3.10.3, https://matplotlib.org/</dc:title>
     </cc:Agent>
    </dc:creator>
   </cc:Work>
  </rdf:RDF>
 </metadata>
 <defs>
  <style type="text/css">*{stroke-linejoin: round; stroke-linecap: butt}</style>
 </defs>
 <g id="figure_1">
  <g id="patch_1">
   <path d="M 0 108 
L 128.610321 108 
L 128.610321 0 
L 0 0 
z
" style="fill: #ffffff"/>
  </g>
  <g id="axes_1">
   <g id="PatchCollection_1">
    <path d="M -311.704604 -222.77808 
L -303.10784 -227.434867 
L -296.18256 -225.081936 
L -294.089041 -226.04184 
L -294.295075 -228.176006 
L -291.703062 -228.54217 
L -288.812031 -231.96672 
L -284.246107 -233.556221 
L -282.591214 -232.30152 
L -279.188442 -236.235053 
L -280.205299 -241.829539 
L -275.825475 -249.343834 
L -279.932774 -251.460202 
L -281.527864 -254.451629 
L -287.263498 -258.0012 
L -289.184229 -265.185101 
L -288.512947 -269.198986 
L -297.983683 -274.04784 
L -299.279689 -275.887382 
L -300.176875 -281.012976 
L -298.967295 -285.245712 
L -296.230981 -286.298755 
L -294.875107 -285.283382 
L -294.295075 -286.83072 
L -289.436755 -287.955821 
L -284.737913 -293.782464 
L -280.358153 -289.915891 
L -276.284099 -289.572106 
L -267.723861 -292.760006 
L -260.831827 -292.95648 
L -251.361091 -298.867882 
L -244.808009 -297.332035 
L -240.740579 -293.82264 
L -231.901256 -293.26009 
L -229.326221 -297.982282 
L -221.95865 -301.158346 
L -220.224018 -308.114582 
L -214.740974 -311.208739 
L -213.345295 -314.008186 
L -213.524706 -317.178202 
L -217.153511 -322.152077 
L -216.236326 -323.723693 
L -209.470588 -326.95177 
L -203.748264 -332.218022 
L -202.724783 -333.720518 
L -203.422623 -335.263104 
L -201.515203 -337.707619 
L -196.185013 -339.308266 
L -194.337397 -339.006816 
L -193.187621 -335.868077 
L -194.63648 -324.071971 
L -193.679427 -320.575968 
L -189.040452 -318.200659 
L -183.151964 -310.851562 
L -178.287022 -308.516429 
L -175.302877 -309.704083 
L -169.833144 -307.994054 
L -168.198185 -305.975923 
L -172.471649 -298.77863 
L -165.845452 -295.666589 
L -163.200324 -290.165933 
L -163.977902 -285.241219 
L -161.432446 -285.968966 
L -157.391574 -284.750035 
L -153.490309 -291.509885 
L -156.853276 -293.902992 
L -158.800565 -297.162346 
L -156.547505 -299.64479 
L -157.411509 -303.636384 
L -153.742835 -305.57857 
L -151.722431 -312.177629 
L -147.050211 -315.124387 
L -145.887124 -317.870266 
L -143.089142 -320.214298 
L -139.852471 -328.871664 
L -140.769655 -336.238646 
L -142.245073 -337.957661 
L -139.39391 -343.212768 
L -134.987528 -343.25519 
L -132.814206 -340.538342 
L -129.597534 -343.295366 
L -128.972745 -332.664538 
L -126.513715 -331.068384 
L -123.051075 -326.040941 
L -114.18513 -325.451606 
L -111.991938 -327.175027 
L -111.240918 -330.557155 
L -108.1571 -329.496768 
L -98.487019 -332.30736 
L -95.556054 -331.00583 
L -94.685426 -325.996272 
L -91.202852 -322.710221 
L -90.498389 -319.290077 
L -88.371624 -319.249901 
L -83.865504 -321.263539 
L -83.021499 -322.915594 
L -87.341455 -328.661798 
L -84.19121 -335.050992 
L -91.548427 -338.797037 
L -90.411962 -340.587418 
L -91.435443 -342.051898 
L -91.13636 -346.28904 
L -88.664019 -349.003642 
L -87.593982 -352.459469 
L -80.888047 -354.397162 
L -78.209672 -353.633645 
L -78.149869 -349.945747 
L -74.248603 -347.853917 
L -64.691442 -346.699786 
L -63.282515 -350.220326 
L -63.721141 -354.11593 
L -67.801882 -355.433011 
L -69.503268 -358.335187 
L -67.881621 -360.790848 
L -67.542668 -363.791174 
L -65.675118 -365.527987 
L -66.412826 -369.26064 
L -64.631638 -371.368022 
L -64.060093 -374.926493 
L -59.308135 -373.09369 
L -51.631835 -374.868518 
L -45.723413 -371.912774 
L -45.098688 -371.039875 
L -47.139091 -368.945885 
L -46.753581 -368.189107 
L -39.602333 -367.653254 
L -37.269599 -366.255821 
L -29.134739 -366.691104 
L -25.53918 -370.649174 
L -23.026906 -379.074384 
L -17.71665 -383.516899 
L -8.75772 -385.539437 
L -2.497034 -384.090595 
L 1.404232 -387.251712 
L 4.787069 -385.633181 
L 9.41942 -386.678016 
L 15.035447 -385.941283 
L 18.318611 -384.101741 
L 28.905877 -389.03544 
L 36.329586 -390.13825 
L 46.983344 -394.002576 
L 48.49863 -393.52487 
L 48.458761 -391.247798 
L 42.517157 -386.035027 
L 44.477757 -380.41825 
L 43.527327 -378.766282 
L 52.51288 -375.247987 
L 52.672421 -368.372102 
L 57.404445 -366.347318 
L 59.185634 -361.683792 
L 61.412071 -359.866627 
L 70.563789 -356.589389 
L 82.94549 -355.794682 
L 88.767487 -352.912637 
L 109.091325 -350.78063 
L 114.5345 -347.947747 
L 130.412087 -348.932189 
L 132.259703 -347.494493 
L 144.747765 -345.146054 
L 143.239102 -339.29928 
L 138.267798 -338.484442 
L 133.75512 -333.791885 
L 127.587483 -330.81385 
L 123.161166 -325.322093 
L 126.045574 -318.209645 
L 127.800204 -318.464093 
L 126.863085 -319.991126 
L 129.787363 -319.544611 
L 135.62267 -316.146845 
L 140.660401 -315.82535 
L 141.152206 -314.213558 
L 139.311278 -311.043542 
L 132.153407 -305.944733 
L 130.684612 -304.11409 
L 131.183042 -302.44873 
L 129.368672 -300.792269 
L 132.432555 -297.425779 
L 138.633373 -298.97951 
L 139.723346 -297.336442 
L 136.28064 -288.536256 
L 136.067983 -285.580512 
L 137.051595 -283.758854 
L 149.74897 -278.07071 
L 154.873127 -269.944618 
L 157.205925 -268.431062 
L 154.188599 -264.35471 
L 145.442968 -265.093085 
L 146.625669 -266.812272 
L 151.639028 -266.91768 
L 147.211746 -269.923536 
L 148.394447 -270.42984 
L 148.138062 -271.927498 
L 146.374493 -274.645037 
L 140.115607 -280.593504 
L 136.598887 -282.062995 
L 135.123147 -282.305606 
L 133.380542 -279.510653 
L 133.647408 -277.823174 
L 135.358633 -277.534858 
L 125.504575 -272.198189 
L 123.898039 -272.866147 
L 127.414695 -274.912272 
L 126.849517 -276.399302 
L 123.427003 -278.174736 
L 116.063934 -279.162634 
L 113.531082 -281.127888 
L 109.297488 -278.772365 
L 107.345505 -280.537258 
L 106.628566 -279.348912 
L 107.575781 -277.534858 
L 104.854516 -276.705245 
L 104.498651 -274.047408 
L 109.297488 -274.645037 
L 105.137137 -269.301283 
L 96.062778 -268.148189 
L 85.575507 -261.665338 
L 62.612391 -251.688038 
L 61.754175 -251.52984 
L 63.078154 -255.66071 
L 64.396924 -256.88759 
L 65.71563 -255.822365 
L 65.270831 -257.425517 
L 68.494449 -256.412995 
L 68.902658 -258.680563 
L 72.775179 -261.609091 
L 69.917908 -260.136058 
L 67.944961 -263.373984 
L 63.78461 -259.661462 
L 64.396924 -258.068851 
L 61.319793 -258.606778 
L 60.880203 -260.431373 
L 60.069058 -259.028669 
L 62.633291 -256.88759 
L 57.902553 -257.460682 
L 55.275494 -256.082515 
L 51.617495 -251.52984 
L 51.193595 -249.378221 
L 52.020431 -247.986058 
L 51.141315 -245.036448 
L 49.759719 -244.421194 
L 50.298725 -243.264557 
L 49.278266 -241.162272 
L 45.301056 -240.923203 
L 44.955673 -239.084525 
L 46.986173 -236.134915 
L 48.189773 -237.565786 
L 48.064185 -239.727859 
L 49.341092 -239.22864 
L 49.827754 -235.540742 
L 48.943365 -234.834077 
L 50.188827 -231.4872 
L 52.496675 -230.826326 
L 55.128943 -233.772394 
L 54.532384 -232.450474 
L 56.013396 -228.730954 
L 56.489576 -222.568128 
L 55.128943 -223.158758 
L 55.128943 -224.930563 
L 54.448658 -221.492275 
L 57.28503 -220.877107 
L 59.561433 -217.206749 
L 58.206073 -215.969242 
L 59.085253 -214.787981 
L 60.226091 -217.18921 
L 59.085253 -219.509482 
L 66.631464 -211.810291 
L 67.468781 -212.432544 
L 66.626255 -213.075878 
L 67.688576 -213.100502 
L 69.698113 -211.251283 
L 68.33748 -207.127498 
L 67.4583 -207.053626 
L 66.704707 -201.9384 
L 63.957334 -198.331373 
L 62.633291 -201.280982 
L 63.554333 -205.295818 
L 61.53438 -204.448579 
L 60.550511 -201.643085 
L 62.151902 -200.978669 
L 60.880203 -199.452845 
L 62.633291 -198.331373 
L 62.130939 -196.844256 
L 59.524843 -195.887981 
L 54.851594 -200.268461 
L 52.496675 -198.862214 
L 53.375855 -198.331373 
L 51.225041 -188.923536 
L 53.747411 -179.512243 
L 53.611341 -169.570022 
L 55.83019 -158.643446 
L 59.085253 -149.098579 
L 66.15522 -139.47984 
L 72.293726 -134.835667 
L 79.840001 -126.630173 
L 87.067001 -124.57705 
L 95.099873 -120.16849 
L 115.959309 -101.795789 
L 130.114997 -93.917318 
L 132.862435 -95.622422 
L 136.897198 -90.538819 
L 139.257391 -89.466509 
L 139.346325 -86.945789 
L 153.355525 -52.035696 
L 160.420283 -23.611824 
L 168.824775 -6.378221 
L 178.160727 4.738176 
L 188.888692 13.136947 
L 191.568095 17.563133 
L 200.003968 25.863581 
L 209.585887 30.198355 
L 211.611113 38.048746 
L 219.994642 42.611962 
L 227.875818 44.440099 
L 231.188434 48.040128 
L 238.917785 51.597907 
L 256.967022 53.401421 
L 267.595572 51.576826 
L 278.082843 52.167456 
L 294.331793 50.191661 
L 301.621619 52.279949 
L 302.935116 54.635386 
L 304.112608 54.579139 
L 304.4423 64.401869 
L 286.162851 78.654154 
L 285.922093 85.411238 
L 290.087717 92.062742 
L 326.070955 110.147126 
L 330.780794 113.877187 
L 360.568037 124.687728 
L 374.666172 133.46977 
L 379.266113 139.354992 
L 387.508363 146.435386 
L 405.018529 153.565114 
L 411.162244 158.184662 
L 418.357863 160.230701 
L 418.30031 162.266285 
L 421.649516 161.939347 
L 423.978327 166.147546 
L 423.606772 170.039347 
L 428.913169 174.563942 
L 436.522206 178.617485 
L 449.317261 195.014304 
L 454.388237 206.130701 
L 454.388237 209.133101 
L 452.294976 213.394003 
L 449.113221 216.213581 
L 447.653172 219.989347 
L 446.444299 225.410429 
L 446.224504 233.963942 
L 444.884771 235.732291 
L 442.959024 235.429978 
L 439.337615 232.571779 
L 434.784809 232.040851 
L 425.799449 225.804154 
L 420.901197 218.569018 
L 422.502524 217.278806 
L 422.214694 215.03232 
L 419.106247 213.207725 
L 421.387858 211.727606 
L 421.905965 209.864304 
L 416.442534 202.931482 
L 414.747 196.638538 
L 415.589526 196.100698 
L 412.397289 193.481482 
L 389.821419 191.920579 
L 382.578729 189.5616 
L 369.767919 181.837786 
L 372.520566 180.023731 
L 372.834568 178.645565 
L 371.52628 177.168989 
L 375.911634 177.274483 
L 377.680476 175.091242 
L 373.724166 175.935024 
L 374.163756 175.29169 
L 372.803123 174.715142 
L 369.108534 176.525654 
L 366.926274 173.888899 
L 360.081311 173.308896 
L 355.355782 175.597546 
L 351.242503 179.693251 
L 342.921737 192.103402 
L 339.577804 200.822112 
L 331.476833 210.862742 
L 331.13145 215.2116 
L 333.203748 221.079197 
L 327.45776 228.061181 
L 324.20797 234.965923 
L 324.082382 237.58151 
L 326.57858 242.222141 
L 325.746536 244.978387 
L 327.693246 247.4604 
L 332.769431 250.533043 
L 342.906046 251.714304 
L 347.003635 256.808448 
L 357.632185 262.556554 
L 362.587991 268.047965 
L 367.098998 269.464752 
L 364.75456 275.328806 
L 364.257417 281.287728 
L 366.26168 286.357334 
L 364.901048 296.707277 
L 367.083307 301.063133 
L 370.165647 302.01241 
L 367.978178 304.111238 
L 367.978178 307.971331 
L 363.582342 313.27992 
L 363.001409 311.546736 
L 358.307261 312.685834 
L 354.14691 309.736224 
L 346.511701 311.627606 
L 339.38939 315.027187 
L 330.247061 322.026797 
L 326.981516 330.488899 
L 327.89735 331.350307 
L 329.6923 345.293194 
L 329.216121 353.85025 
L 325.265083 358.860067 
L 312.286823 367.01977 
L 303.484604 378.586224 
L 300.658713 390.542861 
L 297.550202 396.153763 
L 292.651949 397.957277 
L 288.868362 396.740851 
L 277.250735 397.419437 
L 272.294929 394.976045 
L 269.123656 390.173674 
L 270.625567 387.283853 
L 268.411926 383.001869 
L 269.94001 378.593222 
L 268.977104 371.927635 
L 270.117942 370.134662 
L 278.857335 366.938899 
L 280.552869 364.987728 
L 287.303689 346.309258 
L 286.162851 340.997126 
L 282.557196 337.572922 
L 282.080952 334.887005 
L 292.756638 328.284662 
L 302.401383 327.810067 
L 305.50983 323.876016 
L 306.844291 316.950278 
L 306.394283 311.557277 
L 302.511216 308.445926 
L 297.926966 298.057277 
L 294.776592 274.731091 
L 292.292419 266.650445 
L 288.287494 260.179949 
L 284.629495 256.913942 
L 280.139451 244.468627 
L 277.779323 232.835386 
L 278.082843 227.569046 
L 268.427616 211.43929 
L 262.681629 211.43929 
L 254.654866 218.680992 
L 250.350278 217.801526 
L 248.494496 215.243222 
L 245.082464 215.62295 
L 246.233784 214.04088 
L 245.223742 211.790851 
L 236.46345 203.504573 
L 231.31923 203.564362 
L 228.48408 199.993622 
L 222.569356 197.281872 
L 222.297281 195.815923 
L 224.369579 191.628806 
L 223.935262 189.326074 
L 227.928998 187.191302 
L 228.171879 183.810902 
L 221.135479 168.647184 
L 214.264344 160.283491 
L 212.349015 159.692861 
L 208.377014 162.076464 
L 204.216663 162.07992 
L 198.973027 165.145565 
L 195.267957 163.50025 
L 186.010457 168.858086 
L 185.188895 167.662742 
L 185.696455 164.210458 
L 188.888692 163.127606 
L 194.611208 158.103187 
L 194.467293 155.115475 
L 192.442067 152.921779 
L 189.342236 152.360698 
L 182.896737 145.690099 
L 178.359558 146.329978 
L 177.061751 148.935024 
L 169.285264 146.336976 
L 169.285264 150.464304 
L 167.045322 149.93951 
L 167.338554 145.792051 
L 165.350688 138.513974 
L 161.749535 132.070608 
L 158.703786 129.715085 
L 158.232815 126.174845 
L 154.443311 119.031898 
L 146.091872 109.953763 
L 137.896758 109.890518 
L 135.918602 111.198355 
L 136.677403 113.78232 
L 134.652177 113.908896 
L 132.752538 111.915475 
L 131.805323 112.601059 
L 120.533078 106.286947 
L 118.052571 106.209619 
L 111.699478 107.738899 
L 107.036775 110.083882 
L 105.492937 112.186166 
L 102.541459 112.10184 
L 98.354936 103.1616 
L 92.828679 97.258838 
L 89.484682 95.610067 
L 83.503209 95.149469 
L 77.422256 91.528358 
L 76.218656 93.096346 
L 64.177129 77.26199 
L 56.40585 70.297546 
L 50.738315 68.145926 
L 46.311098 55.763942 
L 37.864743 48.370608 
L 36.676834 45.958838 
L 30.020221 42.084662 
L 24.274233 42.408058 
L 19.302673 34.308058 
L 13.389235 21.22295 
L 5.727854 15.218237 
L -4.717555 10.204963 
L -15.351314 9.167818 
L -17.114883 13.713581 
L -22.08117 11.554963 
L -23.358078 9.213523 
L -22.562623 7.097155 
L -18.378994 7.358861 
L -16.819143 3.864931 
L -16.92126 0.361238 
L -18.747655 -3.372365 
L -20.662984 -2.855606 
L -23.933738 -9.264586 
L -28.570333 -12.34777 
L -29.580309 -16.007587 
L -32.563233 -18.834077 
L -46.216569 -24.142666 
L -44.055272 -26.807587 
L -43.233645 -31.943894 
L -44.144207 -33.979392 
L -52.569597 -37.452845 
L -58.577307 -36.644227 
L -58.095854 -35.403264 
L -59.896077 -34.584106 
L -61.12064 -35.898941 
L -62.533553 -40.181011 
L -59.990284 -43.105997 
L -58.095854 -53.751254 
L -59.278555 -62.361101 
L -65.139713 -74.613053 
L -72.842892 -83.602454 
L -77.060861 -114.1884 
L -81.624148 -123.575155 
L -87.417271 -129.632573 
L -93.979677 -132.603264 
L -95.638622 -131.29897 
L -103.226695 -136.825546 
L -104.843712 -135.475546 
L -103.048762 -133.703654 
L -103.964532 -131.938762 
L -103.122006 -131.439542 
L -104.027358 -131.095066 
L -104.828022 -132.916118 
L -113.65114 -139.237229 
L -117.607451 -140.24975 
L -126.399124 -148.507949 
L -129.460564 -148.131763 
L -133.463946 -150.923174 
L -133.903536 -152.877888 
L -142.716172 -158.000112 
L -143.998289 -153.82008 
L -148.116777 -155.827498 
L -149.184371 -158.833354 
L -150.984594 -159.750922 
L -172.827835 -164.774736 
L -191.881776 -153.728669 
L -193.268581 -151.967318 
L -193.854658 -148.212634 
L -195.367051 -147.055997 
L -195.602537 -144.159091 
L -205.357179 -138.530563 
L -206.859091 -136.389571 
L -207.942375 -131.348131 
L -212.034692 -125.990381 
L -211.050887 -123.680563 
L -217.498122 -118.512634 
L -224.442565 -114.726326 
L -235.625811 -112.057949 
L -238.791876 -110.008368 
L -253.858189 -109.487981 
L -255.428521 -115.820496 
L -245.585652 -126.882115 
L -244.143416 -130.869216 
L -241.790683 -133.257917 
L -241.664452 -134.753674 
L -244.881124 -139.843584 
L -243.997186 -142.65193 
L -264.254597 -138.12457 
L -276.835709 -145.34424 
L -287.868288 -148.992048 
L -294.527666 -158.796806 
L -294.055795 -163.243814 
L -291.443848 -165.136925 
L -295.079276 -168.472138 
L -296.720922 -173.579933 
L -289.6561 -181.478275 
L -290.380498 -183.313325 
L -288.738916 -186.465456 
L -282.611213 -186.612854 
L -286.259888 -196.020259 
L -285.841197 -198.976003 
L -290.486859 -201.887078 
L -295.989837 -201.663821 
L -302.529608 -205.874179 
L -303.652826 -207.682445 
L -303.938598 -214.995859 
L -308.557638 -216.92016 
L -309.528003 -220.273258 
z
M 60.165773 -120.919738 
L 62.983689 -118.113638 
L 64.977535 -118.390378 
L 66.12416 -120.272083 
L 67.031185 -123.674602 
L 66.373214 -125.933789 
L 60.810432 -122.982538 
z
M 64.500069 53.661744 
L 64.564632 53.762227 
L 64.561288 53.666323 
z
" clip-path="url(#p9eccf63e0f)" style="fill: #eeeeee; stroke: #000000; stroke-width: 0.3"/>
    <path d="M -213.248773 155.182262 
L -208.005137 142.005744 
L -208.366275 139.151088 
L -210.349639 137.966285 
L -209.439078 134.890099 
L -208.371484 133.895203 
L -207.125957 134.995594 
L -206.859091 139.527187 
L -201.903285 144.663581 
L -188.38081 146.709619 
L -183.37266 144.463133 
L -180.635704 140.704992 
L -176.250285 138.616704 
L -172.696974 139.207334 
L -168.960523 136.310429 
L -165.192626 129.715085 
L -162.518496 128.583072 
L -157.191135 121.228358 
L -148.42557 118.560067 
L -147.038765 115.849526 
L -146.546831 110.772922 
L -142.716172 109.067818 
L -140.308909 111.314304 
L -140.350771 114.309619 
L -139.649523 114.91079 
L -139.199452 112.601059 
L -139.199452 114.91079 
L -137.451573 114.37295 
L -136.132867 115.554211 
L -135.991524 113.472922 
L -132.584766 116.144755 
L -130.386815 116.144755 
L -131.265995 117.909648 
L -129.068045 120.27217 
L -129.068045 123.81241 
L -127.382993 119.12953 
L -123.855855 118.823674 
L -123.80351 120.27217 
L -121.563697 120.8628 
L -121.391038 123.369437 
L -122.442877 125.046374 
L -122.882467 123.81241 
L -124.630346 130.354963 
L -123.322057 130.354963 
L -123.80351 129.124454 
L -122.62081 128.568989 
L -122.003287 130.942051 
L -117.952834 130.066646 
L -114.938529 131.532682 
L -115.671158 132.527578 
L -119.763474 132.123312 
L -120.820587 137.386195 
L -125.12228 138.075235 
L -120.684517 139.847126 
L -116.2573 138.616704 
L -118.057458 140.972141 
L -115.378119 142.469798 
L -114.896667 144.009619 
L -113.619759 143.387366 
L -110.9927 145.159258 
L -113.755829 146.467094 
L -113.190651 148.108867 
L -115.24205 149.051059 
L -112.28009 152.545594 
L -109.67393 159.365923 
L -108.899439 166.738176 
L -104.404122 172.401869 
L -106.083966 178.803763 
L -108.564537 184.404211 
L -111.735811 186.50304 
L -117.282967 195.429197 
L -116.963756 201.208838 
L -115.451363 205.666646 
L -110.458903 210.908448 
L -113.352893 221.515085 
L -112.751061 223.881149 
L -111.390428 223.881149 
L -113.541242 227.298355 
L -112.751061 230.958086 
L -114.446595 235.978358 
L -114.059349 242.517456 
L -115.676367 248.184605 
L -115.556052 255.585024 
L -117.136415 261.206554 
L -116.079367 262.746374 
L -118.832014 273.831149 
L -118.737807 276.37295 
L -116.738752 278.904211 
L -118.497048 279.589709 
L -121.050863 283.987728 
L -120.255409 288.396374 
L -121.124107 291.665923 
L -123.934307 293.768208 
L -124.201238 295.526016 
L -125.629841 293.015923 
L -129.068045 293.810458 
L -138.759862 285.443222 
L -143.637215 284.859677 
L -146.871314 288.396374 
L -148.744781 287.770579 
L -152.852788 283.087786 
L -156.652065 281.758867 
L -155.113564 284.937005 
L -152.413198 285.154992 
L -156.369508 291.933072 
L -156.343336 295.578806 
L -154.658284 300.131482 
L -155.893264 304.965475 
L -157.248688 304.965475 
L -166.982368 315.101059 
L -170.059434 312.685834 
L -170.059434 314.457725 
L -172.555696 311.437786 
L -175.774105 310.383101 
L -178.845962 312.285024 
L -180.635704 316.28232 
L -180.515324 314.067456 
L -183.278453 313.27992 
L -182.273685 309.089347 
L -183.058658 307.59169 
L -184.550087 307.971331 
L -185.868857 299.660429 
L -189.416959 299.122502 
L -188.537779 297.350698 
L -189.416959 296.707277 
L -190.808973 297.614304 
L -191.944538 294.239347 
L -193.415068 294.35184 
L -193.854658 290.22097 
L -195.518811 289.929197 
L -197.879004 285.372893 
L -194.063971 278.48232 
L -195.021668 275.269018 
L -197.800487 271.827187 
L -195.806641 267.650698 
L -196.973651 263.969798 
L -192.054435 254.72016 
L -193.299962 239.15304 
L -191.719534 239.33232 
L -188.611022 243.895536 
L -185.47113 243.986947 
L -189.416959 242.222141 
L -186.7899 236.913552 
L -188.537779 238.678358 
L -186.559624 234.818266 
L -186.151479 230.887757 
L -188.192396 226.897546 
L -192.075399 225.579168 
L -193.854658 226.887005 
L -192.054435 226.887005 
L -193.854658 230.423702 
L -193.718588 228.806554 
L -196.481717 225.705744 
L -195.675845 216.241661 
L -197.596383 215.243222 
L -191.719534 212.78929 
L -190.343211 209.133101 
L -192.054435 204.063581 
L -191.238081 192.919018 
L -193.477894 189.522893 
L -197.031204 187.765085 
L -196.481717 181.54247 
L -197.423723 177.664752 
L -200.521753 174.036557 
L -201.788179 168.214752 
L -203.106885 166.72055 
L -207.942375 168.858086 
L -209.250664 168.214752 
L -207.942375 165.265142 
L -209.418115 164.808086 
L -211.448614 169.448717 
L -212.380075 166.906915 
L -212.809183 164.143584 
L -210.674059 162.726797 
L -209.156457 158.437728 
z
" clip-path="url(#p9eccf63e0f)" style="fill: #eeeeee; stroke: #000000; stroke-width: 0.3"/>
    <path d="M 62.826978 408.497126 
L 65.270831 406.268266 
L 66.150011 401.226826 
L 65.213278 398.484662 
L 67.709476 391.214362 
L 67.065845 389.108448 
L 72.429796 384.763133 
L 74.491677 385.568208 
L 77.966535 380.913581 
L 80.677254 381.384634 
L 82.011715 380.080339 
L 81.661123 375.798355 
L 82.425133 374.304154 
L 84.298664 375.323674 
L 87.993252 384.225293 
L 93.315405 388.535443 
L 103.619471 383.747155 
L 104.257957 382.706554 
L 103.190362 378.705715 
L 106.162804 374.536224 
L 112.997349 375.745565 
L 115.043475 373.073731 
L 120.130142 371.895926 
L 123.589245 376.030339 
L 124.839981 382.045594 
L 132.694985 381.409258 
L 134.479453 382.833043 
L 134.871972 386.102592 
L 141.544275 390.876797 
L 150.524362 393.239318 
L 165.297572 386.693222 
L 169.3324 388.901088 
L 181.546586 389.653373 
L 191.751236 386.693222 
L 193.823599 387.747907 
L 196.884975 387.125654 
L 204.78705 383.919437 
L 211.161106 377.341632 
L 222.307698 374.743584 
L 224.746407 375.25343 
L 226.337252 377.201059 
L 231.434337 377.844394 
L 233.935807 379.879978 
L 239.692277 377.454211 
L 243.763694 370.124122 
L 243.533481 368.081539 
L 244.062005 372.191242 
L 247.050138 373.073731 
L 253.984099 370.865866 
L 262.278628 364.81199 
L 270.185977 367.174512 
L 264.916169 371.351088 
L 264.288165 373.699526 
L 265.319105 373.664362 
L 260.457506 383.620579 
L 241.984434 411.56977 
L 242.444923 416.298355 
L 238.81837 428.311238 
L 234.171293 436.105382 
L 234.940576 448.867094 
L 244.485905 455.093251 
L 245.082464 457.156915 
L 244.030624 456.09169 
L 242.444923 458.338176 
L 242.539131 456.843974 
L 241.4925 456.218266 
L 240.079587 459.435024 
L 242.204229 463.949078 
L 244.203284 463.650307 
L 243.020583 464.430758 
L 244.140522 467.144755 
L 247.782766 468.614333 
L 247.751385 471.96121 
L 246.798962 471.398746 
L 246.526822 473.177635 
L 248.928877 473.884214 
L 249.656233 476.355773 
L 248.149113 475.824845 
L 245.522054 477.322502 
L 245.522054 479.685024 
L 239.514409 482.191661 
L 238.467714 483.907306 
L 234.328326 494.679139 
L 236.918731 505.422893 
L 234.323053 507.173702 
L 228.744516 503.03929 
L 227.153606 504.241632 
L 220.706371 500.631149 
L 214.185828 503.334605 
L 208.00025 501.031872 
L 206.351787 498.63073 
L 201.416945 496.254211 
L 195.315028 495.213523 
L 189.349246 482.11079 
L 181.90766 473.557277 
L 172.100737 467.6616 
L 157.186184 468.649498 
L 153.219456 465.302621 
L 145.704626 462.553373 
L 136.274467 453.729168 
L 128.780537 451.54247 
L 117.550155 443.343974 
L 115.959309 440.05343 
L 110.867434 435.282682 
L 101.36924 434.744755 
L 99.673706 431.095565 
L 95.984326 428.240909 
L 77.767639 428.532682 
L 72.524003 421.026854 
L 67.918853 419.859677 
z
" clip-path="url(#p9eccf63e0f)" style="fill: #eeeeee; stroke: #000000; stroke-width: 0.3"/>
    <path d="M -86.721296 -22.377859 
L -84.690797 -24.789542 
L -76.145027 -24.142666 
L -75.74209 -26.122003 
L -72.22537 -26.02705 
L -72.528954 -24.772003 
L -70.906664 -24.265786 
L -66.725349 -30.098131 
L -64.731504 -27.686448 
L -65.58972 -22.687258 
L -68.237743 -20.605968 
L -65.903722 -18.644256 
L -65.547858 -17.030563 
L -66.521245 -15.88801 
L -71.513705 -20.722003 
L -73.06796 -18.834077 
L -73.659311 -20.282573 
L -76.176472 -18.971194 
L -77.463797 -20.068128 
L -78.473774 -18.180202 
L -83.775027 -18.341942 
L -86.375913 -20.078669 
z
" clip-path="url(#p9eccf63e0f)" style="fill: #eeeeee; stroke: #000000; stroke-width: 0.3"/>
    <path d="M 30.365604 492.190128 
L 31.904169 491.036947 
L 34.552127 492.55223 
L 35.3371 491.536166 
L 38.681097 495.473674 
L 38.806685 497.435386 
L 37.336219 499.706496 
L 32.872284 497.646374 
L 30.543536 493.606915 
z
" clip-path="url(#p9eccf63e0f)" style="fill: #eeeeee; stroke: #000000; stroke-width: 0.3"/>
    <path d="M -199.60071 296.116646 
L -198.679667 294.35184 
L -193.263308 295.684214 
L -192.535888 298.204934 
L -190.735729 298.531872 
L -192.316093 300.258058 
L -193.750034 307.394784 
L -195.497912 307.858838 
L -199.391397 299.18929 
z
" clip-path="url(#p9eccf63e0f)" style="fill: #eeeeee; stroke: #000000; stroke-width: 0.3"/>
    <path d="M -208.371484 132.123312 
L -207.136439 128.154182 
L -204.127408 125.731872 
L -203.986065 122.631149 
L -202.4266 122.683853 
L -200.877618 120.8628 
L -199.90423 125.355773 
L -205.702562 127.978358 
L -206.006083 132.309677 
z
" clip-path="url(#p9eccf63e0f)" style="fill: #eeeeee; stroke: #000000; stroke-width: 0.3"/>
    <path d="M 221.89428 347.873702 
L 223.448536 345.827578 
L 225.573243 345.855744 
L 226.954775 348.836976 
L 225.238277 349.367818 
L 226.117457 351.783043 
L 222.349561 350.011238 
z
" clip-path="url(#p9eccf63e0f)" style="fill: #eeeeee; stroke: #000000; stroke-width: 0.3"/>
    <path d="M 154.276568 156.360067 
L 155.626719 153.47016 
L 155.155748 152.288899 
L 161.780916 154.651421 
L 161.780916 156.360067 
L 156.914044 158.184662 
z
" clip-path="url(#p9eccf63e0f)" style="fill: #eeeeee; stroke: #000000; stroke-width: 0.3"/>
    <path d="M -107.094136 -43.497389 
L -105.65698 -46.777651 
L -103.524942 -46.670861 
L -102.578885 -44.86536 
L -103.394531 -43.196198 
L -106.007186 -41.714352 
z
" clip-path="url(#p9eccf63e0f)" style="fill: #eeeeee; stroke: #000000; stroke-width: 0.3"/>
    <path d="M -207.408578 290.99088 
L -207.063195 289.630339 
L -202.185906 287.858448 
L -202.185906 295.526016 
L -205.472286 295.304573 
L -205.304835 293.810458 
z
" clip-path="url(#p9eccf63e0f)" style="fill: #eeeeee; stroke: #000000; stroke-width: 0.3"/>
    <path d="M 56.039504 -243.907978 
L 58.007177 -248.872003 
L 60.393542 -251.29777 
L 63.078154 -249.754406 
L 59.561433 -250.348579 
z
" clip-path="url(#p9eccf63e0f)" style="fill: #eeeeee; stroke: #000000; stroke-width: 0.3"/>
    <path d="M 52.936265 396.185386 
L 55.573806 395.594755 
L 59.085253 397.419437 
L 58.368315 398.386166 
L 54.637072 397.936195 
z
" clip-path="url(#p9eccf63e0f)" style="fill: #eeeeee; stroke: #000000; stroke-width: 0.3"/>
    <path d="M -129.444873 115.694784 
L -127.96907 110.818627 
L -127.016646 111.363552 
L -127.011437 116.271331 
L -127.686513 116.84088 
z
" clip-path="url(#p9eccf63e0f)" style="fill: #eeeeee; stroke: #000000; stroke-width: 0.3"/>
    <path d="M 240.309799 322.789709 
L 242.931649 320.95103 
L 243.55438 322.188538 
L 242.267055 324.171331 
z
" clip-path="url(#p9eccf63e0f)" style="fill: #eeeeee; stroke: #000000; stroke-width: 0.3"/>
    <path d="M 224.95572 356.708448 
L 226.117457 353.554934 
L 228.754998 358.329139 
L 227.436228 359.503402 
z
" clip-path="url(#p9eccf63e0f)" style="fill: #eeeeee; stroke: #000000; stroke-width: 0.3"/>
    <path d="M 215.023145 341.573674 
L 219.727775 340.751059 
L 220.37147 341.75304 
L 219.387601 344.365085 
z
" clip-path="url(#p9eccf63e0f)" style="fill: #eeeeee; stroke: #000000; stroke-width: 0.3"/>
    <path d="M 198.86313 340.255382 
L 201.019218 341.137786 
L 201.626258 342.797184 
L 199.449271 342.438538 
z
" clip-path="url(#p9eccf63e0f)" style="fill: #eeeeee; stroke: #000000; stroke-width: 0.3"/>
    <path d="M 69.20097 605.519798 
L 71.100608 605.126074 
L 75.349893 606.117427 
L 74.6644 607.889318 
z
" clip-path="url(#p9eccf63e0f)" style="fill: #eeeeee; stroke: #000000; stroke-width: 0.3"/>
    <path d="M 55.987224 -250.97783 
L 56.578574 -253.481011 
L 58.760769 -252.689933 
L 58.650872 -251.695037 
z
" clip-path="url(#p9eccf63e0f)" style="fill: #eeeeee; stroke: #000000; stroke-width: 0.3"/>
    <path d="M -37.822559 13.713581 
L -36.461926 11.477635 
L -32.810808 16.790976 
L -33.867535 17.821901 
z
" clip-path="url(#p9eccf63e0f)" style="fill: #eeeeee; stroke: #000000; stroke-width: 0.3"/>
    <path d="M -74.308214 17.018208 
L -74.140763 15.5628 
L -72.926618 15.917818 
L -73.099341 17.373312 
z
" clip-path="url(#p9eccf63e0f)" style="fill: #eeeeee; stroke: #000000; stroke-width: 0.3"/>
    <path d="M -133.558153 111.897936 
L -130.910131 109.085443 
L -129.837328 112.337366 
L -132.129485 113.564333 
z
" clip-path="url(#p9eccf63e0f)" style="fill: #eeeeee; stroke: #000000; stroke-width: 0.3"/>
    <path d="M 186.020939 343.676045 
L 186.947191 343.335024 
L 187.182676 344.386166 
z
" clip-path="url(#p9eccf63e0f)" style="fill: #eeeeee; stroke: #000000; stroke-width: 0.3"/>
    <path d="M 126.341892 150.2604 
L 126.948933 149.019437 
L 127.451349 148.913942 
z
" clip-path="url(#p9eccf63e0f)" style="fill: #eeeeee; stroke: #000000; stroke-width: 0.3"/>
    <path d="M 109.543455 330.931872 
L 111.615753 328.966704 
L 112.369345 329.761238 
z
" clip-path="url(#p9eccf63e0f)" style="fill: #eeeeee; stroke: #000000; stroke-width: 0.3"/>
    <path d="M 89.76203 575.622893 
L 91.572735 575.299498 
L 91.478528 576.522922 
z
" clip-path="url(#p9eccf63e0f)" style="fill: #eeeeee; stroke: #000000; stroke-width: 0.3"/>
    <path d="M 37.325737 392.31121 
L 38.811958 391.615085 
L 40.46563 395.257277 
z
" clip-path="url(#p9eccf63e0f)" style="fill: #eeeeee; stroke: #000000; stroke-width: 0.3"/>
    <path d="M -90.007676 -4.91927 
L -88.134209 -7.682515 
L -87.726064 -4.100112 
z
" clip-path="url(#p9eccf63e0f)" style="fill: #eeeeee; stroke: #000000; stroke-width: 0.3"/>
    <path d="M 64.500069 53.661744 
L 64.561288 53.666323 
L 64.564632 53.762227 
z
" clip-path="url(#p9eccf63e0f)" style="fill: #eeeeee; stroke: #000000; stroke-width: 0.3"/>
   </g>
   <g id="PatchCollection_2">
    <defs>
     <path id="m96d6dcdfd2" d="M 64.500069 -54.338256 
L 64.561288 -54.333677 
L 64.564632 -54.237773 
z
" style="stroke: #dd0000; stroke-width: 2"/>
    </defs>
    <g clip-path="url(#p9eccf63e0f)">
     <use xlink:href="#m96d6dcdfd2" x="0" y="108" style="fill: #ff6b6b; stroke: #dd0000; stroke-width: 2"/>
    </g>
   </g>
  </g>
 </g>
 <defs>
  <clipPath id="p9eccf63e0f">
   <rect x="0" y="0" width="128.610321" height="108"/>
  </clipPath>
 </defs>
</svg>
