<?xml version="1.0" encoding="utf-8" standalone="no"?>
<!DOCTYPE svg PUBLIC "-//W3C//DTD SVG 1.1//EN"
  "http://www.w3.org/Graphics/SVG/1.1/DTD/svg11.dtd">
<svg xmlns:xlink="http://www.w3.org/1999/xlink" width="166.472117pt" height="108pt" viewBox="0 0 166.472117 108" xmlns="http://www.w3.org/2000/svg" version="1.1">
 <metadata>
  <rdf:RDF xmlns:dc="http://purl.org/dc/elements/1.1/" xmlns:cc="http://creativecommons.org/ns#" xmlns:rdf="http://www.w3.org/1999/02/22-rdf-syntax-ns#">
   <cc:Work>
    <dc:type rdf:resource="http://purl.org/dc/dcmitype/StillImage"/>
    <dc:date>2025-09-05T13:56:20.185823</dc:date>
    <dc:format>image/svg+xml</dc:format>
    <dc:creator>
     <cc:Agent>
      <dc:title>Matplotlib v3.10.3, https://matplotlib.org/</dc:title>
     </cc:Agent>
    </dc:creator>
   </cc:Work>
  </rdf:RDF>
 </metadata>
 <defs>
  <style type="text/css">*{stroke-linejoin: round; stroke-linecap: butt}</style>
 </defs>
 <g id="figure_1">
  <g id="patch_1">
   <path d="M 0 108 
L 166.472117 108 
L 166.472117 0 
L 0 0 
z
" style="fill: #ffffff"/>
  </g>
  <g id="axes_1">
   <g id="PatchCollection_1">
    <path d="M -36.870599 115.185397 
L -35.362787 113.391924 
L -35.542293 111.625773 
L -34.976658 110.87157 
L -32.002924 110.830995 
L -31.071909 111.581055 
L -28.3762 110.063338 
L -28.527115 102.867483 
L -26.557249 96.706147 
L -26.915451 93.966348 
L -24.636183 91.413287 
L -23.249637 93.015888 
L -22.600243 92.65524 
L -21.675611 91.258847 
L -21.78411 88.455902 
L -20.789273 86.086478 
L -20.792461 83.923872 
L -18.904109 82.282555 
L -16.045651 77.190519 
L -12.746816 76.849333 
L -12.577684 74.200211 
L -10.614333 69.657829 
L -9.571631 64.336196 
L -7.860384 63.786951 
L -5.451082 64.229575 
L -4.981186 63.075815 
L -3.648086 62.782455 
L -1.641663 65.60237 
L 0.965493 59.400459 
L 1.855027 60.643445 
L 3.573452 61.001401 
L 5.098015 63.105004 
L 8.488599 62.492204 
L 9.597515 61.229748 
L 10.506191 61.622478 
L 11.129264 62.92075 
L 13.497887 61.898034 
L 16.409798 63.029855 
L 18.04844 62.714133 
L 23.672819 65.598645 
L 26.442723 69.525535 
L 30.454782 72.47361 
L 32.267341 75.452315 
L 34.107033 76.59904 
L 35.608462 78.739492 
L 31.077051 84.840583 
L 30.83692 90.515412 
L 32.197137 91.047262 
L 37.431403 89.766594 
L 39.80959 90.494708 
L 37.675525 93.431806 
L 39.134669 96.830155 
L 40.920907 99.118221 
L 41.843547 99.432276 
L 43.632972 103.200593 
L 45.195829 103.810492 
L 48.000045 106.44326 
L 71.114233 114.549826 
L 78.832792 114.549826 
L 66.827739 126.567137 
L 55.385126 139.268879 
L 47.877984 138.928526 
L 44.477828 139.829093 
L 41.319 141.382417 
L 39.098768 144.149755 
L 33.473594 145.034585 
L 31.412922 146.977121 
L 26.218547 147.031366 
L 23.136709 144.289083 
L 16.071535 147.635472 
L 13.41571 151.352853 
L 5.732257 149.369942 
L 2.589786 149.67572 
L -5.794926 143.602785 
L -13.315631 143.017108 
L -14.094273 142.501403 
L -15.551819 139.726613 
L -15.146546 136.011508 
L -17.731364 135.108249 
L -19.134668 135.562258 
L -19.33172 134.458184 
L -20.592222 133.572111 
L -21.551157 131.644061 
L -23.64215 125.059355 
L -25.022312 124.51487 
L -25.18506 123.415971 
L -26.905879 122.694274 
L -27.672548 121.194986 
L -28.813383 120.5296 
L -29.022398 119.250174 
L -31.264576 117.269337 
L -36.341668 116.141033 
z
" clip-path="url(#p67f6ae0dfa)" style="fill: #eeeeee; stroke: #000000; stroke-width: 0.3"/>
    <path d="M 24.804074 185.599085 
L 24.804074 155.851343 
L 27.605896 152.972841 
L 32.088638 146.006783 
L 33.207133 145.173496 
L 39.098768 144.149755 
L 41.319 141.382417 
L 47.594765 138.998707 
L 55.385126 139.268879 
L 67.160028 126.234172 
L 78.832792 114.549826 
L 86.242613 102.894397 
L 86.242621 88.488849 
L 96.502825 85.763248 
L 99.380503 82.837809 
L 100.590383 82.559729 
L 104.410022 83.809759 
L 102.778304 87.748756 
L 102.814112 88.978858 
L 103.613464 89.37682 
L 103.038999 90.53824 
L 103.390778 93.702338 
L 102.228655 95.019816 
L 103.851859 94.955588 
L 103.51013 93.987933 
L 105.20103 94.659288 
L 105.219061 95.326164 
L 102.846154 95.23386 
L 101.590191 95.870601 
L 100.841013 103.14767 
L 97.825766 107.405907 
L 95.134658 113.232011 
L 93.074866 115.051902 
L 92.456741 117.814977 
L 88.621726 124.052207 
L 86.991606 129.391555 
L 78.596034 142.909613 
L 63.923092 158.950805 
L 52.363388 166.129922 
L 45.48486 172.172506 
L 32.462764 186.632466 
L 32.315145 185.788708 
L 31.795014 188.31411 
L 31.360317 187.987434 
L 31.418109 188.735989 
L 29.090713 192.213397 
L 28.996433 191.223604 
z
" clip-path="url(#p67f6ae0dfa)" style="fill: #eeeeee; stroke: #000000; stroke-width: 0.3"/>
    <path d="M 37.685892 93.601565 
L 42.580799 86.487357 
L 44.176369 87.432833 
L 44.166319 88.570672 
L 46.802144 92.063721 
L 50.800246 95.176187 
L 52.641968 95.423979 
L 55.543243 95.165867 
L 61.774731 91.461554 
L 67.011838 92.944 
L 74.407981 89.005588 
L 76.758619 89.673617 
L 80.00001 89.389977 
L 83.022789 87.926768 
L 86.242621 88.488849 
L 86.242613 102.894397 
L 78.832792 114.549826 
L 71.114233 114.549826 
L 48.301604 106.625856 
L 45.195829 103.810492 
L 43.632972 103.200593 
L 41.843547 99.432276 
L 40.920907 99.118221 
L 39.134669 96.830155 
z
" clip-path="url(#p67f6ae0dfa)" style="fill: #eeeeee; stroke: #000000; stroke-width: 0.3"/>
    <path d="M 109.704636 26.420393 
L 132.859912 18.409688 
L 137.948181 2.516614 
L 134.469044 -3.289258 
L 134.770604 -6.635847 
L 137.182307 -11.834305 
L 136.552858 -13.381628 
L 140.729255 -14.327945 
L 140.229842 -15.445273 
L 138.860046 -15.522288 
L 139.428869 -21.057572 
L 140.789085 -21.338096 
L 140.971779 -20.576858 
L 140.418919 -20.636895 
L 141.511085 -19.52992 
L 143.704617 -21.514682 
L 145.463514 -17.653542 
L 149.634607 -13.304668 
L 158.632604 -10.639393 
L 160.693021 -10.848053 
L 162.066214 -10.007556 
L 167.884378 -2.150954 
L 170.270192 -1.729075 
L 170.169057 0.446183 
L 166.560187 6.79719 
L 164.322625 8.14042 
L 161.435522 11.735852 
L 161.803635 12.228152 
L 160.752064 13.213402 
L 160.186707 15.033293 
L 159.625117 15.499505 
L 157.75001 15.130115 
L 158.223032 13.664623 
L 157.772001 13.458575 
L 155.073351 16.28458 
L 153.784968 20.550974 
L 154.761147 26.451409 
L 150.066788 27.106723 
L 146.981191 28.423872 
L 145.694683 29.916751 
L 145.078442 33.202133 
L 143.496064 34.87856 
L 136.463001 35.671784 
L 134.788288 38.093513 
L 135.34862 39.070623 
L 135.035791 40.533174 
L 133.234177 42.321111 
L 131.420004 42.799718 
L 129.877835 42.102018 
L 125.963669 42.321111 
L 122.33909 44.350302 
L 118.286098 45.275571 
L 116.056989 40.267618 
L 115.43871 40.021259 
z
" clip-path="url(#p67f6ae0dfa)" style="fill: #eeeeee; stroke: #000000; stroke-width: 0.3"/>
    <path d="M 141.343258 -30.190804 
L 142.353416 -31.809638 
L 142.38545 -31.366895 
L 143.865435 -31.422317 
L 143.126701 -31.476441 
L 143.553857 -32.794239 
L 144.612962 -32.575804 
L 143.822718 -31.854636 
L 144.507427 -31.585987 
L 144.080271 -31.476441 
L 144.449635 -30.870027 
L 143.283745 -31.086515 
L 143.339021 -30.59617 
L 144.396867 -30.49184 
L 143.680125 -30.008016 
L 144.244849 -29.278363 
L 143.707133 -29.109485 
L 142.899862 -26.716593 
L 141.866098 -27.064261 
L 142.162077 -29.818138 
z
" clip-path="url(#p67f6ae0dfa)" style="fill: #eeeeee; stroke: #000000; stroke-width: 0.3"/>
    <path d="M 161.187394 15.417674 
L 163.179344 12.780442 
L 163.517299 14.295162 
L 161.218178 17.007054 
z
" clip-path="url(#p67f6ae0dfa)" style="fill: #eeeeee; stroke: #000000; stroke-width: 0.3"/>
    <path d="M 142.354281 -23.735387 
L 142.7576 -24.341937 
L 143.404069 -23.824758 
L 142.44369 -23.41396 
z
M 142.79195 -23.942116 
L 142.930151 -23.736204 
L 142.97144 -23.868009 
z
" clip-path="url(#p67f6ae0dfa)" style="fill: #eeeeee; stroke: #000000; stroke-width: 0.3"/>
    <path d="M 140.46951 38.244468 
L 141.483389 38.252945 
L 140.536102 38.417264 
z
" clip-path="url(#p67f6ae0dfa)" style="fill: #eeeeee; stroke: #000000; stroke-width: 0.3"/>
    <path d="M 139.688058 38.252945 
L 139.903527 38.367379 
L 139.78731 38.436822 
z
" clip-path="url(#p67f6ae0dfa)" style="fill: #eeeeee; stroke: #000000; stroke-width: 0.3"/>
    <path d="M -123.172065 76.11335 
L -121.978579 73.672087 
L -119.635491 71.779443 
L -121.122562 68.207809 
L -120.043959 66.795263 
L -117.483865 65.328265 
L -118.389354 64.327503 
L -118.895151 62.09264 
L -116.478662 60.927286 
L -116.615081 59.57767 
L -114.306296 56.819659 
L -114.701996 54.097247 
L -113.251621 52.792357 
L -106.383506 52.656962 
L -106.407435 18.409688 
L -98.694465 18.356478 
L -98.688876 2.385362 
L -50.312464 2.393231 
L -48.962614 0.529568 
L -48.433683 0.960189 
L -48.868473 2.385362 
L -35.39367 2.384898 
L -32.4624 4.678788 
L -29.079643 4.212184 
L -28.423054 2.384537 
L -6.813954 2.382454 
L -6.781287 5.151402 
L -3.499696 9.898358 
L -3.970827 10.312089 
L -4.14232 9.336293 
L -5.105316 8.697926 
L -4.155512 13.845897 
L -4.563826 15.575142 
L -4.033644 21.769009 
L -2.563084 27.493395 
L -1.748965 28.661874 
L -0.707522 28.461042 
L -0.064202 29.360879 
L 1.228257 29.710254 
L 2.743911 31.086335 
L 2.390851 31.608602 
L 2.974062 32.400135 
L 4.166567 31.941711 
L 3.4806 32.653425 
L 4.824892 32.601584 
L 6.464438 34.286825 
L 3.604568 38.19818 
L 2.725409 38.038764 
L 2.393529 38.565446 
L 2.103139 38.01806 
L -2.086827 39.909053 
L -2.801641 42.170613 
L -6.120422 41.909343 
L -5.917782 43.675286 
L -6.868743 46.307846 
L -6.268805 48.193038 
L -8.455529 52.641226 
L -8.788211 54.864695 
L -10.353461 57.366003 
L -9.571631 64.336196 
L -10.614333 69.657829 
L -12.577684 74.200211 
L -12.680594 76.691993 
L -16.045651 77.190519 
L -18.904109 82.282555 
L -20.792461 83.923872 
L -20.789273 86.086478 
L -21.78411 88.455902 
L -21.675611 91.258847 
L -22.600243 92.65524 
L -23.249637 93.015888 
L -24.636183 91.413287 
L -26.915451 93.966348 
L -26.557249 96.706147 
L -28.527115 102.867483 
L -29.988119 102.509944 
L -29.279288 99.660423 
L -29.713684 97.099085 
L -33.848599 93.323117 
L -35.711023 92.575948 
L -36.149402 85.684222 
L -35.176905 80.786992 
L -38.862271 80.740616 
L -38.747388 82.450664 
L -43.876337 82.47406 
L -41.822048 84.850936 
L -41.818852 88.020522 
L -41.186208 89.826422 
L -44.951752 93.244859 
L -47.09819 96.780879 
L -50.961055 100.388329 
L -54.041705 100.706535 
L -59.84877 96.330187 
L -62.917447 98.031533 
L -62.929412 99.182809 
L -63.939007 100.406966 
L -68.333111 102.271045 
L -68.873381 103.909477 
L -75.03881 103.854496 
L -76.196958 101.739187 
L -82.485489 101.647677 
L -85.994939 102.658591 
L -91.555095 97.045049 
L -92.149044 95.135844 
L -97.950126 96.198927 
L -98.72717 98.759031 
L -100.115716 99.948815 
L -100.145635 102.340184 
L -101.012821 103.518374 
L -101.953007 107.417317 
L -105.383081 109.060701 
L -110.199301 108.652443 
L -109.601763 106.711565 
L -110.618938 106.358168 
L -110.321362 105.142296 
L -109.102349 104.28583 
L -109.00502 99.594592 
L -111.734238 94.974153 
L -115.054617 91.132763 
L -114.339804 88.474331 
L -114.639765 87.311252 
L -115.7431 87.254524 
L -117.519766 85.413225 
L -116.974085 81.889208 
L -118.165178 82.228727 
L -117.964931 81.1526 
L -118.823349 78.761855 
L -118.260909 77.576414 
L -120.119744 76.516432 
L -120.884021 77.261317 
L -122.195577 77.348268 
z
" clip-path="url(#p67f6ae0dfa)" style="fill: #eeeeee; stroke: #000000; stroke-width: 0.3"/>
    <path d="M -4.036786 11.930811 
L -3.727098 11.700637 
L -3.951984 12.365085 
z
" clip-path="url(#p67f6ae0dfa)" style="fill: #eeeeee; stroke: #000000; stroke-width: 0.3"/>
    <path d="M 30.83692 90.515412 
L 31.077051 84.840583 
L 36.00576 78.303495 
L 37.914854 79.58789 
L 38.794816 79.033886 
L 39.38597 77.455514 
L 41.306858 76.800433 
L 42.940745 78.556416 
L 43.596562 80.670379 
L 43.309483 82.433862 
L 41.992833 82.810423 
L 40.826935 84.046062 
L 38.678575 84.617918 
L 37.835556 85.929523 
L 36.655841 85.884861 
L 37.339925 86.737089 
L 39.285391 85.711408 
L 41.570695 85.583281 
L 42.256662 86.576039 
L 39.420273 90.659292 
L 37.431403 89.766594 
L 32.197137 91.047262 
z
" clip-path="url(#p67f6ae0dfa)" style="fill: #eeeeee; stroke: #000000; stroke-width: 0.3"/>
    <path d="M -10.353461 57.366003 
L -8.788211 54.864695 
L -8.455529 52.641226 
L -6.268805 48.193038 
L -6.868743 46.307846 
L -5.917782 43.675286 
L -6.120422 41.909343 
L -2.801641 42.170613 
L -2.086827 39.909053 
L 2.103139 38.01806 
L 2.393529 38.565446 
L 2.725409 38.038764 
L 3.604568 38.19818 
L 6.446846 34.359202 
L 9.618511 41.085464 
L 11.792629 50.993435 
L 12.895702 51.929456 
L 13.054004 54.231856 
L 14.24126 54.429106 
L 15.045954 57.681549 
L 15.784688 57.802834 
L 16.119509 57.045145 
L 15.492584 55.306116 
L 16.278436 54.396175 
L 17.858297 55.705176 
L 17.446842 56.534592 
L 18.472022 58.577477 
L 19.455118 59.12846 
L 21.198939 58.295134 
L 22.602282 59.266699 
L 23.157589 60.876615 
L 26.253244 61.344141 
L 30.182485 66.926379 
L 32.445805 67.684388 
L 33.502402 69.303767 
L 34.407605 70.021682 
L 34.106076 69.112061 
L 34.905744 69.856056 
L 35.608045 72.676196 
L 36.800952 72.596641 
L 38.312345 74.194498 
L 38.709983 75.646954 
L 39.842581 76.144799 
L 40.406055 75.258983 
L 41.306858 76.800433 
L 39.38597 77.455514 
L 38.794816 79.033886 
L 37.914854 79.58789 
L 36.351202 78.335377 
L 35.608462 78.739492 
L 34.107033 76.59904 
L 32.267341 75.452315 
L 30.454782 72.47361 
L 26.442723 69.525535 
L 23.672819 65.598645 
L 18.04844 62.714133 
L 16.409798 63.029855 
L 13.497887 61.898034 
L 11.129264 62.92075 
L 10.506191 61.622478 
L 9.597515 61.229748 
L 8.488599 62.492204 
L 5.098015 63.105004 
L 3.573452 61.001401 
L 1.855027 60.643445 
L 0.965493 59.400459 
L -1.641663 65.60237 
L -3.648086 62.782455 
L -4.981186 63.075815 
L -5.451082 64.229575 
L -7.860384 63.786951 
L -9.571631 64.336196 
z
" clip-path="url(#p67f6ae0dfa)" style="fill: #eeeeee; stroke: #000000; stroke-width: 0.3"/>
    <path d="M 16.704341 52.509461 
L 17.530393 51.717535 
L 16.862635 51.272508 
L 18.294878 51.975424 
L 18.505947 53.272358 
L 19.301849 52.798318 
L 20.281803 53.84943 
L 17.078104 53.575565 
L 16.757733 52.809728 
L 17.868973 53.138037 
z
" clip-path="url(#p67f6ae0dfa)" style="fill: #eeeeee; stroke: #000000; stroke-width: 0.3"/>
    <path d="M 17.164163 50.280736 
L 17.630895 49.563478 
L 18.125275 50.535692 
z
" clip-path="url(#p67f6ae0dfa)" style="fill: #eeeeee; stroke: #000000; stroke-width: 0.3"/>
    <path d="M -24.651644 -46.630183 
L -22.868471 -49.950171 
L -21.744503 -56.556855 
L -13.098634 -55.341704 
L -9.952172 -57.702017 
L -8.00957 -60.577835 
L -2.286272 -61.70779 
L -0.917271 -64.402455 
L 1.659565 -65.748129 
L -6.228118 -73.697979 
L 9.240108 -77.730866 
L 10.739947 -78.748615 
L 20.099549 -77.283275 
L 33.261383 -70.403759 
L 53.457685 -55.35619 
L 74.620494 -53.696661 
L 76.431865 -50.001226 
L 82.811728 -49.733963 
L 82.611967 -48.82826 
L 83.127066 -48.992579 
L 84.027244 -46.095825 
L 85.107082 -45.782835 
L 84.733944 -45.416706 
L 85.806866 -44.338215 
L 85.744049 -43.883076 
L 85.47142 -43.551834 
L 85.265384 -44.353207 
L 85.005314 -43.479458 
L 85.787399 -43.223196 
L 85.414261 -42.621677 
L 88.563309 -42.081775 
L 89.126782 -41.308767 
L 87.637372 -41.248777 
L 88.749245 -41.030342 
L 88.437041 -40.368506 
L 89.126782 -40.478052 
L 89.202792 -39.362384 
L 89.895667 -39.348691 
L 89.60608 -38.908559 
L 91.128775 -39.269792 
L 92.111878 -37.379488 
L 95.654789 -35.02883 
L 94.342531 -35.506139 
L 94.667927 -33.664735 
L 96.103303 -32.297051 
L 95.522871 -29.989756 
L 94.681744 -31.312779 
L 94.354465 -29.715891 
L 95.213809 -29.617434 
L 96.419282 -26.752304 
L 95.548629 -27.565095 
L 95.579405 -27.296774 
L 98.071386 -25.192266 
L 98.77117 -22.128588 
L 101.987675 -18.225646 
L 104.225622 -18.680529 
L 104.485059 -17.820465 
L 105.201809 -18.735302 
L 105.997085 -18.352548 
L 104.30289 -16.142732 
L 106.545484 -15.72933 
L 106.732091 -14.304349 
L 114.1806 -5.172166 
L 133.839588 -2.627182 
L 134.469044 -3.289258 
L 137.948181 2.516614 
L 132.859912 18.409688 
L 109.704636 26.420393 
L 86.989337 29.752912 
L 80.243676 33.204681 
L 75.821158 38.698357 
L 74.575021 41.674579 
L 72.51993 42.831447 
L 71.045626 42.75609 
L 69.036802 40.203855 
L 66.04591 40.615013 
L 59.158644 39.910295 
L 57.113124 38.977839 
L 49.267718 39.166652 
L 47.462337 39.991861 
L 43.585508 38.244139 
L 41.672416 39.798914 
L 42.344952 40.231185 
L 41.312617 41.719296 
L 41.267939 43.131225 
L 42.031027 44.038001 
L 41.7877 45.097567 
L 41.054137 45.033803 
L 40.678382 46.125667 
L 38.773426 47.450493 
L 38.178544 44.568737 
L 35.432784 40.948539 
L 35.481152 42.211565 
L 35.006879 38.775893 
L 31.039946 35.731445 
L 28.768459 32.603547 
L 28.324345 30.632382 
L 26.58304 28.805657 
L 26.882677 27.714114 
L 26.013908 26.894153 
L 26.32297 25.845652 
L 25.49001 25.380738 
L 24.533298 22.333686 
L 23.111105 21.508188 
L 22.991128 20.159742 
L 22.309553 20.299928 
L 21.367291 18.678922 
L 17.888448 16.135589 
L 16.493272 15.903132 
L 16.783484 16.296318 
L 15.389566 15.562106 
L 10.867951 9.488217 
L 10.14555 7.836564 
L 10.842826 7.122567 
L 10.364153 4.368939 
L 8.991664 2.299453 
L 9.56626 2.332048 
L 10.624215 -0.882705 
L 10.064624 -0.583063 
L 9.622903 -3.795757 
L 7.975198 -5.653786 
L 7.965774 -6.863024 
L 5.297282 -11.94611 
L 1.304027 -14.79056 
L 1.40151 -15.335726 
L 0.766111 -14.877743 
L -2.60117 -16.619801 
L -2.390702 -17.212257 
L -4.768611 -20.495524 
L -3.935026 -20.657559 
L -4.046211 -23.09363 
L -6.407524 -26.866418 
L -8.21353 -27.938723 
L -8.261897 -29.88021 
L -9.677181 -30.590954 
L -13.387819 -36.967392 
L -20.091087 -45.801424 
L -19.684032 -46.162336 
L -20.952948 -46.684627 
L -22.860088 -46.296985 
L -23.598197 -46.848946 
L -24.077495 -46.520637 
L -23.914168 -46.296985 
L -24.340699 -45.968675 
z
" clip-path="url(#p67f6ae0dfa)" style="fill: #eeeeee; stroke: #000000; stroke-width: 0.3"/>
    <path d="M 30.804338 43.240643 
L 31.947202 44.432822 
L 32.949495 44.687682 
L 33.159414 43.899081 
L 34.118527 44.769769 
L 34.057709 45.747656 
L 33.341336 44.865943 
L 32.335578 45.053514 
z
" clip-path="url(#p67f6ae0dfa)" style="fill: #eeeeee; stroke: #000000; stroke-width: 0.3"/>
    <path d="M 31.40555 43.278325 
L 32.127318 42.771682 
L 31.492235 42.430657 
L 31.605303 42.301224 
L 32.202077 42.627579 
L 32.693648 44.325407 
z
" clip-path="url(#p67f6ae0dfa)" style="fill: #eeeeee; stroke: #000000; stroke-width: 0.3"/>
    <path d="M -9.841134 -26.85794 
L -9.438478 -27.320899 
L -9.535846 -26.85403 
L -8.481133 -26.094058 
L -9.471137 -26.409981 
z
" clip-path="url(#p67f6ae0dfa)" style="fill: #eeeeee; stroke: #000000; stroke-width: 0.3"/>
    <path d="M -6.328373 -25.229764 
L -6.287539 -25.435155 
L -5.921317 -25.450483 
L -5.708365 -25.051423 
z
" clip-path="url(#p67f6ae0dfa)" style="fill: #eeeeee; stroke: #000000; stroke-width: 0.3"/>
    <path d="M -8.374973 -26.123728 
L -8.033869 -26.217626 
L -6.848504 -25.241494 
L -8.08287 -26.141331 
z
" clip-path="url(#p67f6ae0dfa)" style="fill: #eeeeee; stroke: #000000; stroke-width: 0.3"/>
    <path d="M -9.44727 -28.114772 
L -9.324144 -28.390593 
L -9.074132 -28.584253 
L -8.917714 -27.373717 
z
" clip-path="url(#p67f6ae0dfa)" style="fill: #eeeeee; stroke: #000000; stroke-width: 0.3"/>
    <path d="M 90.234255 -40.040525 
L 91.229284 -40.472836 
L 92.029585 -40.259609 
z
" clip-path="url(#p67f6ae0dfa)" style="fill: #eeeeee; stroke: #000000; stroke-width: 0.3"/>
    <path d="M -6.701511 -26.460187 
L -6.576501 -26.549846 
L -6.508658 -25.851169 
z
" clip-path="url(#p67f6ae0dfa)" style="fill: #eeeeee; stroke: #000000; stroke-width: 0.3"/>
    <path d="M -7.251167 -26.073522 
L -7.140608 -26.256422 
L -6.945872 -26.156331 
z
" clip-path="url(#p67f6ae0dfa)" style="fill: #eeeeee; stroke: #000000; stroke-width: 0.3"/>
    <path d="M -7.640631 -25.666634 
L -6.654401 -24.847001 
L -6.689577 -24.581942 
z
" clip-path="url(#p67f6ae0dfa)" style="fill: #eeeeee; stroke: #000000; stroke-width: 0.3"/>
    <path d="M 37.388926 56.483401 
L 37.948632 56.460253 
L 38.178544 55.500434 
L 38.81551 56.758244 
L 38.020242 52.809728 
L 39.123322 51.101018 
L 38.773426 47.450493 
L 40.678382 46.125667 
L 41.054137 45.033803 
L 41.7877 45.097567 
L 42.031027 44.038001 
L 41.267939 43.131225 
L 41.312617 41.719296 
L 42.317426 40.391835 
L 41.672416 39.798914 
L 42.737858 38.732305 
L 44.283965 38.296308 
L 47.462337 39.991861 
L 49.267718 39.166652 
L 57.113124 38.977839 
L 59.158644 39.910295 
L 66.04591 40.615013 
L 69.036802 40.203855 
L 71.045626 42.75609 
L 72.51993 42.831447 
L 74.575021 41.674579 
L 75.821158 38.698357 
L 80.243676 33.204681 
L 86.989337 29.752912 
L 109.704636 26.420393 
L 115.43871 40.021259 
L 116.056989 40.267618 
L 118.286098 45.275571 
L 113.980577 46.839191 
L 112.129338 48.308922 
L 111.070233 50.551989 
L 111.632448 53.498621 
L 104.990115 56.594581 
L 98.708353 58.046052 
L 95.817483 59.690533 
L 93.985094 59.727046 
L 89.58723 61.241117 
L 87.42882 62.284402 
L 86.740969 63.845426 
L 84.364573 66.098269 
L 80.450407 66.694899 
L 79.123699 65.988722 
L 74.348306 69.21313 
L 68.964205 71.012148 
L 60.975688 71.719959 
L 58.947304 73.898142 
L 56.748693 74.766683 
L 56.288863 76.366824 
L 55.677021 76.20446 
L 55.953417 75.592181 
L 54.845319 76.034275 
L 54.920695 76.624384 
L 52.830753 75.90582 
L 51.325017 77.102991 
L 47.702955 77.680712 
L 45.034463 76.412791 
L 44.011159 76.992796 
L 44.050734 75.689011 
L 42.145477 72.185522 
L 42.566982 68.674213 
L 40.084434 62.33331 
L 40.564357 62.905486 
L 39.500227 59.367111 
L 39.978899 59.946138 
L 39.914191 58.848081 
L 39.348834 57.342158 
z
" clip-path="url(#p67f6ae0dfa)" style="fill: #eeeeee; stroke: #000000; stroke-width: 0.3"/>
    <path d="M 119.957669 78.118568 
L 121.594497 76.748849 
L 124.11984 77.676257 
L 126.229381 76.854886 
L 129.478313 78.063795 
L 126.392276 79.657422 
L 123.232622 80.065496 
z
" clip-path="url(#p67f6ae0dfa)" style="fill: #eeeeee; stroke: #000000; stroke-width: 0.3"/>
    <path d="M 36.993804 55.286558 
L 37.588686 54.865328 
L 37.168439 55.297639 
L 37.066671 56.280942 
z
" clip-path="url(#p67f6ae0dfa)" style="fill: #eeeeee; stroke: #000000; stroke-width: 0.3"/>
    <path d="M 119.619429 81.552165 
L 119.803204 81.452265 
L 119.983698 81.579607 
z
" clip-path="url(#p67f6ae0dfa)" style="fill: #eeeeee; stroke: #000000; stroke-width: 0.3"/>
    <path d="M 117.474998 81.168705 
L 117.619251 81.054808 
L 118.255492 81.396122 
z
" clip-path="url(#p67f6ae0dfa)" style="fill: #eeeeee; stroke: #000000; stroke-width: 0.3"/>
    <path d="M 110.364636 80.585832 
L 110.783911 80.537148 
L 112.868273 81.279749 
z
" clip-path="url(#p67f6ae0dfa)" style="fill: #eeeeee; stroke: #000000; stroke-width: 0.3"/>
    <path d="M 43.409993 77.133639 
L 43.864165 77.240573 
L 43.762405 77.407496 
z
" clip-path="url(#p67f6ae0dfa)" style="fill: #eeeeee; stroke: #000000; stroke-width: 0.3"/>
    <path d="M 38.020242 66.342135 
L 38.868278 66.262259 
L 38.71375 67.088743 
z
" clip-path="url(#p67f6ae0dfa)" style="fill: #eeeeee; stroke: #000000; stroke-width: 0.3"/>
    <path d="M 37.993858 69.141731 
L 38.032808 68.857762 
L 38.81551 68.29113 
z
" clip-path="url(#p67f6ae0dfa)" style="fill: #eeeeee; stroke: #000000; stroke-width: 0.3"/>
   </g>
   <g id="PatchCollection_2">
    <path d="M 37.388926 56.483401 
L 37.948632 56.460253 
L 38.178544 55.500434 
L 38.81551 56.758244 
L 38.020242 52.809728 
L 39.123322 51.101018 
L 38.773426 47.450493 
L 40.678382 46.125667 
L 41.054137 45.033803 
L 41.7877 45.097567 
L 42.031027 44.038001 
L 41.267939 43.131225 
L 41.312617 41.719296 
L 42.317426 40.391835 
L 41.672416 39.798914 
L 42.737858 38.732305 
L 44.283965 38.296308 
L 47.462337 39.991861 
L 49.267718 39.166652 
L 57.113124 38.977839 
L 59.158644 39.910295 
L 66.04591 40.615013 
L 69.036802 40.203855 
L 71.045626 42.75609 
L 72.51993 42.831447 
L 74.575021 41.674579 
L 75.821158 38.698357 
L 80.243676 33.204681 
L 86.989337 29.752912 
L 109.704636 26.420393 
L 115.43871 40.021259 
L 116.056989 40.267618 
L 118.286098 45.275571 
L 113.980577 46.839191 
L 112.129338 48.308922 
L 111.070233 50.551989 
L 111.632448 53.498621 
L 104.990115 56.594581 
L 98.708353 58.046052 
L 95.817483 59.690533 
L 93.985094 59.727046 
L 89.58723 61.241117 
L 87.42882 62.284402 
L 86.740969 63.845426 
L 84.364573 66.098269 
L 80.450407 66.694899 
L 79.123699 65.988722 
L 74.348306 69.21313 
L 68.964205 71.012148 
L 60.975688 71.719959 
L 58.947304 73.898142 
L 56.748693 74.766683 
L 56.288863 76.366824 
L 55.677021 76.20446 
L 55.953417 75.592181 
L 54.845319 76.034275 
L 54.920695 76.624384 
L 52.830753 75.90582 
L 51.325017 77.102991 
L 47.702955 77.680712 
L 45.034463 76.412791 
L 44.011159 76.992796 
L 44.050734 75.689011 
L 42.145477 72.185522 
L 42.566982 68.674213 
L 40.084434 62.33331 
L 40.564357 62.905486 
L 39.500227 59.367111 
L 39.978899 59.946138 
L 39.914191 58.848081 
L 39.348834 57.342158 
z
" clip-path="url(#p67f6ae0dfa)" style="fill: #ff6b6b; stroke: #dd0000; stroke-width: 0.5"/>
    <path d="M 119.957669 78.118568 
L 121.594497 76.748849 
L 124.11984 77.676257 
L 126.229381 76.854886 
L 129.478313 78.063795 
L 126.392276 79.657422 
L 123.232622 80.065496 
z
" clip-path="url(#p67f6ae0dfa)" style="fill: #ff6b6b; stroke: #dd0000; stroke-width: 0.5"/>
    <path d="M 36.993804 55.286558 
L 37.588686 54.865328 
L 37.168439 55.297639 
L 37.066671 56.280942 
z
" clip-path="url(#p67f6ae0dfa)" style="fill: #ff6b6b; stroke: #dd0000; stroke-width: 0.5"/>
    <path d="M 119.619429 81.552165 
L 119.803204 81.452265 
L 119.983698 81.579607 
z
" clip-path="url(#p67f6ae0dfa)" style="fill: #ff6b6b; stroke: #dd0000; stroke-width: 0.5"/>
    <path d="M 117.474998 81.168705 
L 117.619251 81.054808 
L 118.255492 81.396122 
z
" clip-path="url(#p67f6ae0dfa)" style="fill: #ff6b6b; stroke: #dd0000; stroke-width: 0.5"/>
    <path d="M 110.364636 80.585832 
L 110.783911 80.537148 
L 112.868273 81.279749 
z
" clip-path="url(#p67f6ae0dfa)" style="fill: #ff6b6b; stroke: #dd0000; stroke-width: 0.5"/>
    <path d="M 43.409993 77.133639 
L 43.864165 77.240573 
L 43.762405 77.407496 
z
" clip-path="url(#p67f6ae0dfa)" style="fill: #ff6b6b; stroke: #dd0000; stroke-width: 0.5"/>
    <path d="M 38.020242 66.342135 
L 38.868278 66.262259 
L 38.71375 67.088743 
z
" clip-path="url(#p67f6ae0dfa)" style="fill: #ff6b6b; stroke: #dd0000; stroke-width: 0.5"/>
    <path d="M 37.993858 69.141731 
L 38.032808 68.857762 
L 38.81551 68.29113 
z
" clip-path="url(#p67f6ae0dfa)" style="fill: #ff6b6b; stroke: #dd0000; stroke-width: 0.5"/>
   </g>
  </g>
 </g>
 <defs>
  <clipPath id="p67f6ae0dfa">
   <rect x="0" y="0" width="166.472117" height="108"/>
  </clipPath>
 </defs>
</svg>
