<?xml version="1.0" encoding="utf-8" standalone="no"?>
<!DOCTYPE svg PUBLIC "-//W3C//DTD SVG 1.1//EN"
  "http://www.w3.org/Graphics/SVG/1.1/DTD/svg11.dtd">
<svg xmlns:xlink="http://www.w3.org/1999/xlink" width="130.124684pt" height="108pt" viewBox="0 0 130.124684 108" xmlns="http://www.w3.org/2000/svg" version="1.1">
 <metadata>
  <rdf:RDF xmlns:dc="http://purl.org/dc/elements/1.1/" xmlns:cc="http://creativecommons.org/ns#" xmlns:rdf="http://www.w3.org/1999/02/22-rdf-syntax-ns#">
   <cc:Work>
    <dc:type rdf:resource="http://purl.org/dc/dcmitype/StillImage"/>
    <dc:date>2025-09-05T13:56:21.140700</dc:date>
    <dc:format>image/svg+xml</dc:format>
    <dc:creator>
     <cc:Agent>
      <dc:title>Matplotlib v3.10.3, https://matplotlib.org/</dc:title>
     </cc:Agent>
    </dc:creator>
   </cc:Work>
  </rdf:RDF>
 </metadata>
 <defs>
  <style type="text/css">*{stroke-linejoin: round; stroke-linecap: butt}</style>
 </defs>
 <g id="figure_1">
  <g id="patch_1">
   <path d="M 0 108 
L 130.124684 108 
L 130.124684 0 
L 0 0 
z
" style="fill: #ffffff"/>
  </g>
  <g id="axes_1">
   <g id="PatchCollection_1">
    <path d="M 68.612325 47.432194 
L 69.721379 46.853003 
L 69.301054 44.431985 
L 70.118919 42.169441 
L 71.782506 42.553199 
L 72.786481 38.772055 
L 76.627653 36.918889 
L 78.959707 38.647221 
L 80.766358 36.090454 
L 90.964342 34.082197 
L 94.176294 38.006248 
L 97.938982 39.789628 
L 100.038083 44.72032 
L 99.09995 46.412506 
L 99.196159 50.682884 
L 96.874235 51.246116 
L 96.305787 54.10171 
L 88.261342 53.903333 
L 82.545153 58.548634 
L 74.99572 58.823516 
L 71.957224 57.785349 
L 69.297257 52.542361 
L 69.788483 49.855717 
z
" clip-path="url(#p856c83e4c5)" style="fill: #eeeeee; stroke: #000000; stroke-width: 0.3"/>
    <path d="M 54.254126 37.167304 
L 59.487944 29.454545 
L 60.531168 32.38666 
L 63.65197 31.033252 
L 66.084043 34.902239 
L 69.071899 36.353574 
L 70.512662 40.74794 
L 69.301054 44.431985 
L 69.721379 46.853003 
L 68.612325 47.432194 
L 69.788483 49.855717 
L 69.297257 52.542361 
L 71.957224 57.785349 
L 74.890642 58.085445 
L 74.731126 60.192052 
L 75.870559 62.233933 
L 74.647558 64.954201 
L 72.611764 65.77634 
L 71.103908 71.110945 
L 66.820876 72.853576 
L 68.035008 75.599903 
L 66.601851 75.829384 
L 66.803151 77.238278 
L 65.426968 78.545455 
L 63.03707 77.736979 
L 63.291277 74.825898 
L 62.025231 74.162655 
L 61.498884 71.902893 
L 56.755704 69.164585 
L 54.468839 65.802075 
L 56.739755 66.973649 
L 55.655139 63.803107 
L 56.490522 63.631001 
L 54.650282 62.015937 
L 55.591343 57.865757 
L 57.333891 57.664549 
L 56.99096 56.330793 
L 56.797574 57.123099 
L 56.406795 57.442145 
L 57.250152 52.20246 
L 55.738879 49.646815 
L 57.250152 48.021828 
L 56.323056 46.850905 
L 58.430462 46.527238 
L 58.169286 43.054193 
L 55.393951 42.508123 
L 55.484709 38.410583 
z
" clip-path="url(#p856c83e4c5)" style="fill: #eeeeee; stroke: #000000; stroke-width: 0.3"/>
    <path d="M 63.596258 27.882996 
L 69.006068 26.189557 
L 68.79971 24.652478 
L 71.3166 22.450041 
L 70.570898 20.619145 
L 72.902952 19.55996 
L 73.443557 21.06636 
L 76.55549 22.364297 
L 78.612819 25.684772 
L 80.424529 26.328267 
L 80.059904 28.001534 
L 84.887326 29.573507 
L 81.742478 34.544118 
L 82.330906 36.100068 
L 79.914304 36.464955 
L 79.087582 38.619486 
L 76.627653 36.918889 
L 72.786481 38.772055 
L 71.519174 42.643986 
L 70.118919 42.169441 
L 69.306126 36.67049 
L 66.084043 34.902239 
L 63.967217 31.212305 
L 64.444515 29.482297 
z
" clip-path="url(#p856c83e4c5)" style="fill: #eeeeee; stroke: #000000; stroke-width: 0.3"/>
    <path d="M 66.146076 -26.720301 
L 68.911121 -27.79463 
L 71.305208 -27.202816 
L 72.954866 -29.315312 
L 77.191042 -29.577587 
L 78.859688 -31.735484 
L 79.107843 -34.786105 
L 81.56776 -36.406 
L 83.173111 -41.598121 
L 87.690357 -47.635513 
L 87.76758 -49.645868 
L 91.016256 -53.002489 
L 95.482862 -53.780057 
L 101.624435 -59.092408 
L 105.565637 -57.029934 
L 115.000194 -55.821108 
L 118.810986 -56.582295 
L 123.153527 -52.779727 
L 125.39949 -53.314362 
L 127.626453 -55.846322 
L 138.789802 -57.38467 
L 140.387558 -60.945558 
L 145.104205 -61.966921 
L 148.161701 -60.827881 
L 150.98688 -57.220747 
L 152.363063 -52.502308 
L 155.97383 -48.718659 
L 155.930784 -47.332457 
L 162.015395 -41.042062 
L 164.037262 -35.737698 
L 164.183487 -31.922101 
L 162.504086 -28.770591 
L 162.182506 -25.201294 
L 163.226991 -18.983174 
L 161.930566 -18.351034 
L 165.214681 -13.947819 
L 169.867397 -12.386778 
L 171.001771 -12.666719 
L 170.843517 -13.923451 
L 172.560279 -13.234978 
L 177.364916 -15.914887 
L 180.397728 -15.119653 
L 181.988429 -11.327057 
L 180.987553 -6.44149 
L 175.331229 -5.187833 
L 173.428172 -3.634323 
L 173.112166 -4.54577 
L 175.117887 -5.50688 
L 173.959516 -6.507681 
L 174.773964 -8.207464 
L 173.213839 -8.894522 
L 171.819195 -7.773246 
L 172.759264 -4.875407 
L 170.773473 -2.988958 
L 172.16612 -4.087737 
L 173.020452 -3.830912 
L 173.266672 -3.412586 
L 170.452468 -2.623583 
L 170.460443 0.00354 
L 172.500072 -2.52232 
L 168.94917 2.425469 
L 169.397767 7.61484 
L 168.254341 11.780913 
L 163.879644 11.444135 
L 160.936721 10.023056 
L 160.092274 7.680657 
L 157.76022 8.406105 
L 156.67901 7.088014 
L 153.621514 7.32675 
L 149.256189 4.692226 
L 138.516339 7.37046 
L 133.988962 11.931693 
L 129.358406 13.264929 
L 105.858087 9.514481 
L 98.558083 10.182767 
L 98.522632 7.661316 
L 100.300153 6.05824 
L 96.132343 3.849069 
L 93.51416 0.025061 
L 94.781467 -1.626767 
L 97.043894 -1.908383 
L 92.889999 -4.362163 
L 89.222272 -0.604557 
L 87.601731 -3.14073 
L 80.271334 -5.282654 
L 79.776311 -6.362009 
L 81.99062 -6.894123 
L 79.72567 -8.666164 
L 81.463943 -11.055234 
L 72.568718 -16.492402 
L 72.796612 -20.936789 
L 71.600193 -20.782951 
z
" clip-path="url(#p856c83e4c5)" style="fill: #eeeeee; stroke: #000000; stroke-width: 0.3"/>
    <path d="M 63.169661 77.626444 
L 66.185324 78.124299 
L 66.601851 75.829384 
L 68.035008 75.599903 
L 66.820876 72.853576 
L 71.103908 71.110945 
L 72.611764 65.77634 
L 75.651533 63.547844 
L 74.99572 58.823516 
L 82.545153 58.548634 
L 88.261342 53.903333 
L 96.305787 54.10171 
L 97.237599 50.925833 
L 107.422917 50.338232 
L 115.02805 47.234646 
L 118.419779 47.237167 
L 119.28069 49.207587 
L 121.657063 50.711465 
L 123.028187 49.856547 
L 127.920177 52.47931 
L 138.150452 50.55343 
L 138.66826 47.765914 
L 137.259161 45.164184 
L 139.440556 44.178544 
L 143.964123 46.410831 
L 144.46548 49.873367 
L 144.138841 50.993927 
L 140.596453 52.368352 
L 141.06868 56.948081 
L 137.669356 60.675413 
L 136.741794 59.562905 
L 137.330957 59.1234 
L 131.007709 58.481337 
L 126.115989 56.209668 
L 121.994874 58.757358 
L 119.871506 58.673956 
L 118.358236 56.998004 
L 113.519349 60.80067 
L 108.883831 60.410145 
L 108.498038 61.682347 
L 111.127822 63.874585 
L 110.002342 64.393522 
L 110.555613 65.913928 
L 112.20047 66.355433 
L 112.310129 65.334103 
L 116.994486 70.160083 
L 115.845082 70.557229 
L 114.240098 68.162449 
L 111.392992 66.70028 
L 108.868874 66.801559 
L 108.695418 68.48745 
L 112.062905 70.709472 
L 112.062905 73.395514 
L 110.0472 72.496626 
L 108.19498 69.095742 
L 105.292052 68.098894 
L 104.086826 68.932242 
L 104.374915 70.193187 
L 109.082216 73.77148 
L 104.338031 73.273723 
L 103.584391 68.811117 
L 98.551113 66.356751 
L 97.735661 64.472287 
L 99.714482 63.650196 
L 98.824257 62.154939 
L 94.764942 65.024328 
L 95.7698 66.637407 
L 94.669248 71.757937 
L 104.131684 85.985707 
L 102.415044 87.206928 
L 100.557851 87.31813 
L 102.580526 85.985707 
L 101.569678 84.077428 
L 99.13529 83.042189 
L 97.791483 85.308572 
L 99.896905 87.77286 
L 99.478221 88.761754 
L 100.816038 88.317613 
L 97.372799 90.892453 
L 95.285323 90.29872 
L 94.103016 91.215469 
L 100.435231 93.027772 
L 101.200839 94.789777 
L 103.66813 94.558117 
L 103.416913 96.122867 
L 104.595226 96.466396 
L 104.024021 96.982698 
L 106.869131 97.023073 
L 106.945888 97.798819 
L 108.163082 99.376826 
L 111.570442 100.442501 
L 113.15748 102.474556 
L 112.03598 103.180159 
L 113.241219 108.668715 
L 112.571306 110.843758 
L 106.790377 105.617314 
L 106.958848 104.413954 
L 99.861025 107.092041 
L 102.15486 108.279524 
L 101.402212 109.389543 
L 101.986377 111.451384 
L 104.044956 112.731524 
L 103.744887 111.399101 
L 104.804574 111.065495 
L 104.762705 113.06513 
L 106.359714 114.297608 
L 103.138783 114.918475 
L 101.986377 116.569944 
L 100.816038 115.663785 
L 101.53778 114.144046 
L 96.569303 112.22913 
L 101.318473 124.999383 
L 100.35747 127.150579 
L 102.322338 130.673271 
L 99.582895 129.246857 
L 97.309995 124.802128 
L 96.068865 124.541334 
L 94.744008 124.971583 
L 93.600581 127.840955 
L 93.685313 131.349739 
L 92.013543 129.38189 
L 92.42326 126.221255 
L 89.359836 122.789919 
L 89.547245 121.097407 
L 86.974287 121.55082 
L 87.306243 124.776979 
L 86.232603 125.890301 
L 84.086304 124.402331 
L 84.118214 122.374245 
L 82.399578 119.551853 
L 83.687551 115.000558 
L 76.722319 107.158232 
L 79.413902 104.826325 
L 80.006054 101.585607 
L 83.044562 102.657252 
L 85.826868 99.623045 
L 98.293917 106.158748 
L 99.618774 105.516702 
L 98.395602 104.372928 
L 102.038218 103.881775 
L 102.657283 102.584441 
L 97.540277 101.483027 
L 95.590366 98.831406 
L 94.561585 100.400142 
L 92.590738 97.798819 
L 92.354478 99.600548 
L 89.988872 99.919595 
L 87.154726 98.477938 
L 81.763559 100.363069 
L 79.372033 97.101838 
L 79.544497 98.738082 
L 77.327431 100.231354 
L 75.275834 94.373437 
L 73.704745 92.103751 
L 72.10574 92.002472 
L 73.034832 91.059256 
L 72.601192 89.575256 
L 76.465124 91.114857 
L 77.594585 90.924223 
L 77.380264 88.94445 
L 76.465124 87.884062 
L 76.136145 88.761754 
L 73.521318 88.307024 
L 73.246177 87.045428 
L 72.275215 88.428165 
L 73.360822 89.498476 
L 72.559322 89.272086 
L 72.176518 89.719546 
L 69.081184 84.309755 
L 66.062618 82.411399 
L 66.404557 80.634168 
L 64.807548 80.290623 
L 65.398695 78.749704 
z
" clip-path="url(#p856c83e4c5)" style="fill: #eeeeee; stroke: #000000; stroke-width: 0.3"/>
    <path d="M 106.269005 149.191541 
L 107.029627 144.60781 
L 108.721339 145.633777 
L 109.004454 142.801461 
L 109.930558 145.276339 
L 114.411558 144.450279 
L 114.411558 145.627156 
L 113.051813 145.869422 
L 115.262901 146.183166 
L 116.336553 148.309879 
L 121.001972 147.026437 
L 129.976931 149.191541 
L 133.80796 148.51574 
L 133.151007 151.001875 
L 134.161855 152.103289 
L 137.411695 150.181102 
L 138.868151 150.606047 
L 140.603729 148.848012 
L 140.069396 152.348857 
L 138.473379 153.939423 
L 124.653567 155.088499 
L 121.217298 155.088499 
L 121.270131 152.720186 
L 117.096171 150.867509 
z
" clip-path="url(#p856c83e4c5)" style="fill: #eeeeee; stroke: #000000; stroke-width: 0.3"/>
    <path d="M 97.884201 91.422647 
L 103.584391 88.217001 
L 107.197105 92.645853 
L 114.076613 94.558117 
L 115.262901 101.466467 
L 119.369071 102.584441 
L 119.111876 105.371078 
L 116.724331 105.631873 
L 114.668753 103.705716 
L 112.687948 98.643424 
L 107.872996 98.575915 
L 107.443337 96.099036 
L 102.399095 91.674836 
z
" clip-path="url(#p856c83e4c5)" style="fill: #eeeeee; stroke: #000000; stroke-width: 0.3"/>
    <path d="M 134.735068 85.198704 
L 138.67376 82.744989 
L 141.106164 82.744989 
L 144.17058 88.106466 
L 143.277379 88.592967 
L 142.663288 87.058669 
L 142.023289 87.224138 
L 143.372082 89.1053 
L 138.69968 88.543336 
L 137.746652 87.550473 
L 140.100302 85.712338 
L 137.453565 87.429331 
z
" clip-path="url(#p856c83e4c5)" style="fill: #eeeeee; stroke: #000000; stroke-width: 0.3"/>
    <path d="M 67.402432 102.212444 
L 68.070349 99.252383 
L 69.66138 99.685267 
L 69.759071 97.465229 
L 70.895515 100.978649 
L 71.521562 100.585473 
L 72.943119 103.039172 
L 72.15758 104.15978 
L 69.41614 103.372777 
L 68.626609 100.682116 
L 68.381381 102.323646 
z
" clip-path="url(#p856c83e4c5)" style="fill: #eeeeee; stroke: #000000; stroke-width: 0.3"/>
    <path d="M 58.595944 76.736177 
L 62.534648 76.051088 
L 61.272583 78.291004 
L 62.28343 78.735796 
L 62.394082 81.213993 
L 64.299135 81.855389 
L 64.466613 82.975998 
L 62.091024 81.907672 
z
" clip-path="url(#p856c83e4c5)" style="fill: #eeeeee; stroke: #000000; stroke-width: 0.3"/>
    <path d="M 124.829008 72.717713 
L 127.913379 73.399484 
L 129.931068 72.051835 
L 128.694936 76.094781 
L 127.490702 73.966083 
L 127.048083 75.838623 
L 124.996486 75.282613 
z
" clip-path="url(#p856c83e4c5)" style="fill: #eeeeee; stroke: #000000; stroke-width: 0.3"/>
    <path d="M 157.301553 135.136527 
L 159.940316 132.175815 
L 164.106301 130.673271 
L 162.267041 136.812496 
L 157.894709 139.090119 
L 158.193774 136.336585 
z
" clip-path="url(#p856c83e4c5)" style="fill: #eeeeee; stroke: #000000; stroke-width: 0.3"/>
    <path d="M 143.777805 109.391528 
L 146.548154 108.192137 
L 149.751152 108.84479 
L 146.437502 110.95496 
L 145.345917 109.834351 
L 144.000113 110.4261 
z
" clip-path="url(#p856c83e4c5)" style="fill: #eeeeee; stroke: #000000; stroke-width: 0.3"/>
    <path d="M 134.818807 95.73366 
L 138.67376 96.345271 
L 138.042727 101.553838 
L 136.789642 102.625483 
L 135.320238 101.585607 
L 136.535435 99.00483 
z
" clip-path="url(#p856c83e4c5)" style="fill: #eeeeee; stroke: #000000; stroke-width: 0.3"/>
    <path d="M 116.176045 127.120143 
L 116.510009 125.444175 
L 117.395236 126.332457 
L 117.178918 125.332973 
L 118.704144 125.215817 
L 118.859666 126.504563 
z
" clip-path="url(#p856c83e4c5)" style="fill: #eeeeee; stroke: #000000; stroke-width: 0.3"/>
    <path d="M 70.759948 107.380636 
L 71.856519 106.391091 
L 75.259885 109.568921 
L 75.376527 110.066678 
L 74.121444 109.510668 
L 73.15646 110.843758 
z
" clip-path="url(#p856c83e4c5)" style="fill: #eeeeee; stroke: #000000; stroke-width: 0.3"/>
    <path d="M 149.751152 144.395996 
L 151.626291 140.486765 
L 150.839748 143.66326 
L 151.515639 145.506031 
L 150.588531 147.404387 
z
" clip-path="url(#p856c83e4c5)" style="fill: #eeeeee; stroke: #000000; stroke-width: 0.3"/>
    <path d="M 147.911892 126.059755 
L 152.360993 122.940178 
L 153.27813 123.666944 
L 148.822047 125.450145 
L 148.587783 126.665412 
z
" clip-path="url(#p856c83e4c5)" style="fill: #eeeeee; stroke: #000000; stroke-width: 0.3"/>
    <path d="M 147.569965 119.981435 
L 149.462046 121.503158 
L 147.837132 122.323931 
L 148.354511 120.988206 
L 147.904922 120.764468 
z
" clip-path="url(#p856c83e4c5)" style="fill: #eeeeee; stroke: #000000; stroke-width: 0.3"/>
    <path d="M 143.240495 115.379176 
L 144.005099 115.660483 
L 143.393016 116.129773 
L 143.624291 116.974377 
L 143.363103 116.933335 
z
" clip-path="url(#p856c83e4c5)" style="fill: #eeeeee; stroke: #000000; stroke-width: 0.3"/>
    <path d="M 139.873008 128.150063 
L 141.616561 128.119627 
L 141.106164 127.332608 
L 142.378188 128.230162 
L 140.356505 129.360043 
z
" clip-path="url(#p856c83e4c5)" style="fill: #eeeeee; stroke: #000000; stroke-width: 0.3"/>
    <path d="M 133.473003 124.776979 
L 136.741794 122.4358 
L 137.585163 123.177792 
L 135.195621 124.776979 
L 133.675369 125.184048 
z
" clip-path="url(#p856c83e4c5)" style="fill: #eeeeee; stroke: #000000; stroke-width: 0.3"/>
    <path d="M 128.850446 131.905749 
L 129.770572 131.349739 
L 129.100671 129.906781 
L 130.289948 130.805653 
L 130.117497 132.138743 
z
" clip-path="url(#p856c83e4c5)" style="fill: #eeeeee; stroke: #000000; stroke-width: 0.3"/>
    <path d="M 118.500786 62.244295 
L 120.03798 59.562905 
L 121.803472 60.683514 
L 121.726703 62.681831 
L 120.03798 63.358299 
z
" clip-path="url(#p856c83e4c5)" style="fill: #eeeeee; stroke: #000000; stroke-width: 0.3"/>
    <path d="M 117.513875 90.892453 
L 117.818917 89.433602 
L 120.457668 92.002472 
L 119.111876 92.770947 
L 118.99325 91.418011 
z
" clip-path="url(#p856c83e4c5)" style="fill: #eeeeee; stroke: #000000; stroke-width: 0.3"/>
    <path d="M 72.19945 94.566055 
L 72.983004 94.352924 
L 72.476576 94.969155 
L 72.972028 95.488759 
L 72.379888 94.991001 
z
" clip-path="url(#p856c83e4c5)" style="fill: #eeeeee; stroke: #000000; stroke-width: 0.3"/>
    <path d="M 136.379925 113.047919 
L 137.579173 111.065495 
L 141.106164 110.278492 
L 139.49519 112.147714 
z
" clip-path="url(#p856c83e4c5)" style="fill: #eeeeee; stroke: #000000; stroke-width: 0.3"/>
    <path d="M 129.853319 64.801924 
L 131.474252 64.267761 
L 132.880852 65.357934 
L 131.367581 66.135681 
z
" clip-path="url(#p856c83e4c5)" style="fill: #eeeeee; stroke: #000000; stroke-width: 0.3"/>
    <path d="M 128.607203 120.092637 
L 130.865159 118.249882 
L 131.53506 121.153008 
L 129.931068 122.768739 
z
" clip-path="url(#p856c83e4c5)" style="fill: #eeeeee; stroke: #000000; stroke-width: 0.3"/>
    <path d="M 127.763846 125.998867 
L 128.180545 124.776979 
L 129.435616 126.120659 
L 128.992004 127.075132 
z
" clip-path="url(#p856c83e4c5)" style="fill: #eeeeee; stroke: #000000; stroke-width: 0.3"/>
    <path d="M 125.686329 121.232441 
L 127.345151 118.972011 
L 128.013067 118.972011 
L 126.729075 121.681218 
z
" clip-path="url(#p856c83e4c5)" style="fill: #eeeeee; stroke: #000000; stroke-width: 0.3"/>
    <path d="M 120.667016 105.731818 
L 121.713743 105.171188 
L 123.855056 106.704168 
L 123.899915 110.278492 
z
" clip-path="url(#p856c83e4c5)" style="fill: #eeeeee; stroke: #000000; stroke-width: 0.3"/>
    <path d="M 115.54402 112.793079 
L 115.714488 110.94437 
L 116.761215 110.278492 
L 117.018422 111.280611 
z
" clip-path="url(#p856c83e4c5)" style="fill: #eeeeee; stroke: #000000; stroke-width: 0.3"/>
    <path d="M 105.120593 109.049984 
L 105.134545 108.945402 
L 106.610931 108.84479 
L 105.851301 110.39895 
z
" clip-path="url(#p856c83e4c5)" style="fill: #eeeeee; stroke: #000000; stroke-width: 0.3"/>
    <path d="M 104.9232 106.824643 
L 106.017787 105.713957 
L 105.1814 105.371078 
L 106.945888 105.94695 
z
" clip-path="url(#p856c83e4c5)" style="fill: #eeeeee; stroke: #000000; stroke-width: 0.3"/>
    <path d="M 104.505509 116.518313 
L 105.600096 115.629364 
L 107.113366 115.408294 
L 106.006824 116.236338 
z
" clip-path="url(#p856c83e4c5)" style="fill: #eeeeee; stroke: #000000; stroke-width: 0.3"/>
    <path d="M 98.715602 132.2056 
L 99.241961 131.374904 
L 101.192864 133.85045 
L 99.807188 135.480073 
z
" clip-path="url(#p856c83e4c5)" style="fill: #eeeeee; stroke: #000000; stroke-width: 0.3"/>
    <path d="M 70.759948 97.344088 
L 72.450667 99.131258 
L 72.52642 99.919595 
L 71.597327 99.697191 
z
" clip-path="url(#p856c83e4c5)" style="fill: #eeeeee; stroke: #000000; stroke-width: 0.3"/>
    <path d="M 158.229654 128.341364 
L 159.233519 127.221406 
L 159.246479 129.121763 
z
" clip-path="url(#p856c83e4c5)" style="fill: #eeeeee; stroke: #000000; stroke-width: 0.3"/>
    <path d="M 155.275889 134.181404 
L 156.471156 133.762412 
L 156.498069 133.998708 
z
" clip-path="url(#p856c83e4c5)" style="fill: #eeeeee; stroke: #000000; stroke-width: 0.3"/>
    <path d="M 152.558373 130.142426 
L 153.27813 129.906781 
L 154.165353 131.443079 
z
" clip-path="url(#p856c83e4c5)" style="fill: #eeeeee; stroke: #000000; stroke-width: 0.3"/>
    <path d="M 150.508785 128.444628 
L 150.600499 127.947521 
L 151.345172 128.464474 
z
" clip-path="url(#p856c83e4c5)" style="fill: #eeeeee; stroke: #000000; stroke-width: 0.3"/>
    <path d="M 147.062545 147.918688 
L 147.697558 147.070781 
L 149.006479 147.50565 
z
" clip-path="url(#p856c83e4c5)" style="fill: #eeeeee; stroke: #000000; stroke-width: 0.3"/>
    <path d="M 146.135449 118.470285 
L 147.079498 118.394838 
L 147.081495 119.840447 
z
" clip-path="url(#p856c83e4c5)" style="fill: #eeeeee; stroke: #000000; stroke-width: 0.3"/>
    <path d="M 133.981416 119.425425 
L 134.644347 119.203688 
L 134.670267 119.776908 
z
" clip-path="url(#p856c83e4c5)" style="fill: #eeeeee; stroke: #000000; stroke-width: 0.3"/>
    <path d="M 133.563725 131.885887 
L 133.825906 131.176331 
L 134.895564 131.794547 
z
" clip-path="url(#p856c83e4c5)" style="fill: #eeeeee; stroke: #000000; stroke-width: 0.3"/>
    <path d="M 132.378429 122.879941 
L 132.804095 123.212213 
L 132.676489 123.402848 
z
" clip-path="url(#p856c83e4c5)" style="fill: #eeeeee; stroke: #000000; stroke-width: 0.3"/>
    <path d="M 130.829267 95.456989 
L 132.04945 95.75484 
L 131.289832 96.466396 
z
" clip-path="url(#p856c83e4c5)" style="fill: #eeeeee; stroke: #000000; stroke-width: 0.3"/>
    <path d="M 129.895189 123.761602 
L 130.279977 123.545819 
L 130.273007 124.123676 
z
" clip-path="url(#p856c83e4c5)" style="fill: #eeeeee; stroke: #000000; stroke-width: 0.3"/>
    <path d="M 128.180545 114.741082 
L 128.25032 113.499999 
L 130.090572 113.795881 
z
" clip-path="url(#p856c83e4c5)" style="fill: #eeeeee; stroke: #000000; stroke-width: 0.3"/>
    <path d="M 125.245707 127.332608 
L 125.702291 126.332457 
L 126.667275 126.221255 
z
" clip-path="url(#p856c83e4c5)" style="fill: #eeeeee; stroke: #000000; stroke-width: 0.3"/>
    <path d="M 124.737306 121.313857 
L 125.311512 120.755863 
L 124.996486 121.942679 
z
" clip-path="url(#p856c83e4c5)" style="fill: #eeeeee; stroke: #000000; stroke-width: 0.3"/>
    <path d="M 124.234871 110.39895 
L 127.596368 111.843909 
L 127.066028 112.773233 
z
" clip-path="url(#p856c83e4c5)" style="fill: #eeeeee; stroke: #000000; stroke-width: 0.3"/>
    <path d="M 124.133186 80.16156 
L 125.000479 80.036449 
L 124.234871 81.311303 
z
" clip-path="url(#p856c83e4c5)" style="fill: #eeeeee; stroke: #000000; stroke-width: 0.3"/>
    <path d="M 122.972819 115.528768 
L 123.1383 113.138608 
L 123.979673 114.906567 
z
" clip-path="url(#p856c83e4c5)" style="fill: #eeeeee; stroke: #000000; stroke-width: 0.3"/>
    <path d="M 122.470384 126.8878 
L 123.782281 127.553027 
L 123.975679 128.008425 
z
" clip-path="url(#p856c83e4c5)" style="fill: #eeeeee; stroke: #000000; stroke-width: 0.3"/>
    <path d="M 120.251321 111.569873 
L 120.942157 111.176697 
L 120.967085 111.786323 
z
" clip-path="url(#p856c83e4c5)" style="fill: #eeeeee; stroke: #000000; stroke-width: 0.3"/>
    <path d="M 120.03798 120.647979 
L 121.55125 122.26833 
L 120.875371 123.000399 
z
" clip-path="url(#p856c83e4c5)" style="fill: #eeeeee; stroke: #000000; stroke-width: 0.3"/>
    <path d="M 119.620289 124.999383 
L 120.326081 125.107934 
L 120.247328 125.499776 
z
" clip-path="url(#p856c83e4c5)" style="fill: #eeeeee; stroke: #000000; stroke-width: 0.3"/>
    <path d="M 118.554611 124.412921 
L 119.052061 123.952887 
L 119.186648 124.989444 
z
" clip-path="url(#p856c83e4c5)" style="fill: #eeeeee; stroke: #000000; stroke-width: 0.3"/>
    <path d="M 117.346396 119.425425 
L 118.546637 118.124771 
L 118.692188 119.325479 
z
" clip-path="url(#p856c83e4c5)" style="fill: #eeeeee; stroke: #000000; stroke-width: 0.3"/>
    <path d="M 116.677488 116.407111 
L 117.513875 113.519861 
L 118.083095 114.733143 
z
" clip-path="url(#p856c83e4c5)" style="fill: #eeeeee; stroke: #000000; stroke-width: 0.3"/>
    <path d="M 112.738784 156.431528 
L 113.15748 156.107845 
L 113.827393 156.985537 
z
" clip-path="url(#p856c83e4c5)" style="fill: #eeeeee; stroke: #000000; stroke-width: 0.3"/>
    <path d="M 112.720838 83.35263 
L 113.321969 83.539279 
L 112.944151 84.076094 
z
" clip-path="url(#p856c83e4c5)" style="fill: #eeeeee; stroke: #000000; stroke-width: 0.3"/>
    <path d="M 110.660287 123.984673 
L 110.810812 124.137568 
L 110.752993 124.169338 
z
" clip-path="url(#p856c83e4c5)" style="fill: #eeeeee; stroke: #000000; stroke-width: 0.3"/>
    <path d="M 110.130939 86.53046 
L 111.644209 84.198553 
L 110.894551 86.276286 
z
" clip-path="url(#p856c83e4c5)" style="fill: #eeeeee; stroke: #000000; stroke-width: 0.3"/>
    <path d="M 107.113366 85.530976 
L 109.630501 86.883928 
L 108.701396 87.651735 
z
" clip-path="url(#p856c83e4c5)" style="fill: #eeeeee; stroke: #000000; stroke-width: 0.3"/>
    <path d="M 105.561215 86.763453 
L 105.683835 85.429697 
L 106.203211 86.003584 
z
" clip-path="url(#p856c83e4c5)" style="fill: #eeeeee; stroke: #000000; stroke-width: 0.3"/>
    <path d="M 105.429629 122.594649 
L 105.644954 122.96466 
L 105.603085 123.003718 
z
" clip-path="url(#p856c83e4c5)" style="fill: #eeeeee; stroke: #000000; stroke-width: 0.3"/>
    <path d="M 105.265139 112.953928 
L 106.055663 112.777853 
L 106.359714 112.953928 
z
" clip-path="url(#p856c83e4c5)" style="fill: #eeeeee; stroke: #000000; stroke-width: 0.3"/>
    <path d="M 103.542521 139.993627 
L 103.972181 139.906256 
L 104.003087 140.488082 
z
" clip-path="url(#p856c83e4c5)" style="fill: #eeeeee; stroke: #000000; stroke-width: 0.3"/>
    <path d="M 101.077227 116.973043 
L 101.861773 117.027327 
L 101.909621 117.469483 
z
" clip-path="url(#p856c83e4c5)" style="fill: #eeeeee; stroke: #000000; stroke-width: 0.3"/>
    <path d="M 84.614659 126.120659 
L 84.976528 125.549423 
L 84.949616 126.332457 
z
" clip-path="url(#p856c83e4c5)" style="fill: #eeeeee; stroke: #000000; stroke-width: 0.3"/>
    <path d="M 84.006558 124.840519 
L 84.355467 124.776979 
L 84.195963 124.999383 
z
" clip-path="url(#p856c83e4c5)" style="fill: #eeeeee; stroke: #000000; stroke-width: 0.3"/>
    <path d="M 74.121444 96.243992 
L 74.589984 95.365649 
L 74.288923 96.243992 
z
" clip-path="url(#p856c83e4c5)" style="fill: #eeeeee; stroke: #000000; stroke-width: 0.3"/>
    <path d="M 73.836332 95.699239 
L 74.053654 94.943339 
L 74.706614 94.969155 
z
" clip-path="url(#p856c83e4c5)" style="fill: #eeeeee; stroke: #000000; stroke-width: 0.3"/>
    <path d="M 69.842811 95.910402 
L 71.578389 91.346517 
L 71.942255 94.975108 
z
" clip-path="url(#p856c83e4c5)" style="fill: #eeeeee; stroke: #000000; stroke-width: 0.3"/>
    <path d="M 64.867351 85.503175 
L 65.50038 85.611726 
L 65.644927 85.985707 
z
" clip-path="url(#p856c83e4c5)" style="fill: #eeeeee; stroke: #000000; stroke-width: 0.3"/>
    <path d="M -100.941408 -10.377692 
L -94.747284 -12.911328 
L -94.10666 -15.379407 
L -96.285532 -17.009388 
L -96.523544 -19.11767 
L -98.745448 -21.34197 
L -95.804423 -23.746168 
L -94.194025 -22.953456 
L -89.446349 -24.703634 
L -85.739374 -23.647817 
L -82.470448 -27.027131 
L -82.755303 -29.383406 
L -78.935654 -32.317619 
L -78.458356 -28.790763 
L -73.91579 -26.421881 
L -74.418408 -24.68683 
L -73.15616 -24.100905 
L -72.800403 -22.13805 
L -71.545749 -22.045572 
L -70.802583 -23.318294 
L -71.549547 -25.601433 
L -68.821226 -28.722669 
L -68.117308 -33.052746 
L -66.25116 -33.068298 
L -65.004101 -29.81969 
L -60.324803 -30.999511 
L -58.397884 -28.541095 
L -57.378719 -29.23126 
L -58.201643 -30.313137 
L -57.601541 -31.516073 
L -59.003045 -32.221367 
L -58.924549 -33.631937 
L -56.97231 -35.158508 
L -53.886958 -33.709271 
L -53.702122 -35.105558 
L -54.803581 -35.899946 
L -53.766691 -39.023704 
L -47.113631 -37.473171 
L -44.938557 -40.641078 
L -38.074067 -40.75119 
L -32.613616 -42.615287 
L -33.271966 -39.746647 
L -31.560274 -39.084234 
L -29.865035 -36.188281 
L -13.99011 -33.416739 
L -18.102221 -29.684348 
L -17.55276 -28.345239 
L -14.768728 -27.896332 
L -16.919731 -25.065952 
L -15.154864 -24.724651 
L -15.643554 -22.201931 
L -13.037412 -20.78801 
L -11.61691 -18.973088 
L -12.191691 -18.205606 
L -13.857679 -18.344625 
L -12.677368 -18.688154 
L -15.54242 -21.539665 
L -17.655817 -19.682351 
L -18.051581 -20.807596 
L -21.115005 -21.252404 
L -21.535685 -19.136931 
L -29.636381 -15.820766 
L -27.700434 -17.68867 
L -29.966352 -17.466933 
L -32.934081 -13.793998 
L -32.002992 -12.017417 
L -31.061931 -12.447666 
L -30.308279 -8.873342 
L -30.308279 -9.762291 
L -28.286596 -8.207464 
L -29.380178 -5.774945 
L -29.841736 -6.926673 
L -29.728095 -5.494956 
L -31.563361 -5.874891 
L -30.308279 3.494446 
L -26.35463 7.724725 
L -15.035992 14.721779 
L -9.403592 30.365374 
L -1.638857 37.251893 
L -1.253064 38.729939 
L 3.948684 41.280932 
L 15.893369 41.409344 
L 16.430691 43.69162 
L 12.948572 46.374994 
L 13.696234 48.89952 
L 27.12229 55.042047 
L 32.254252 59.136626 
L 38.757927 62.055661 
L 44.994447 70.375867 
L 43.439307 75.616219 
L 39.548463 74.079921 
L 36.995436 67.994312 
L 32.694875 67.700431 
L 28.87481 65.802075 
L 30.382102 64.531857 
L 26.129389 64.627183 
L 21.580599 71.2668 
L 21.909566 73.190321 
L 20.172003 76.297323 
L 20.85985 78.157289 
L 28.366397 82.300197 
L 28.533875 89.550091 
L 21.346335 92.196409 
L 21.149948 98.188026 
L 16.248256 102.845235 
L 15.11779 106.152795 
L 10.30682 105.931058 
L 9.674795 101.591577 
L 11.879905 100.284954 
L 13.165894 96.768232 
L 12.170996 94.617687 
L 16.041909 93.285264 
L 16.888255 91.240618 
L 11.409381 74.412209 
L 9.570121 71.37535 
L 6.946499 72.738795 
L 5.123017 72.163037 
L 3.481149 69.881428 
L 0.834412 68.709838 
L 1.901657 66.173567 
L -0.747641 61.743902 
L -6.129828 63.358299 
L -4.518854 60.770885 
L -6.722972 58.996305 
L -9.742566 59.796371 
L -10.065384 57.645208 
L -13.734067 52.267984 
L -15.913256 53.012643 
L -19.075377 51.563048 
L -22.030146 52.672417 
L -23.880369 49.877824 
L -27.044474 49.094123 
L -31.898318 44.396539 
L -34.576941 40.219226 
L -36.939558 39.550696 
L -39.013082 35.562033 
L -42.462311 33.487602 
L -45.769971 33.741776 
L -44.767588 32.293921 
L -45.134957 30.931306 
L -47.766737 28.020225 
L -50.367612 27.020741 
L -49.97284 25.168714 
L -53.206743 24.807308 
L -52.855838 19.825098 
L -55.439758 15.825845 
L -56.243255 10.067222 
L -58.216086 7.159443 
L -61.227681 5.805173 
L -61.380203 6.884089 
L -68.750178 1.818494 
L -68.994413 2.605497 
L -74.486259 0.54299 
L -78.115915 2.622708 
L -82.995667 9.253069 
L -89.922031 10.952201 
L -90.221169 9.759936 
L -87.623247 6.476875 
L -88.043572 4.7082 
L -91.902481 5.560597 
L -96.40074 3.514503 
L -98.087111 -1.114824 
L -96.566589 -3.540869 
L -95.3993 -3.568621 
L -96.014592 -5.896314 
L -99.193629 -7.195081 
z
M -29.27679 41.669504 
L -29.264492 41.688423 
L -29.265129 41.670366 
z
M -29.979643 8.41149 
L -28.967411 8.921805 
L -28.919968 7.855838 
z
" clip-path="url(#p856c83e4c5)" style="fill: #eeeeee; stroke: #000000; stroke-width: 0.3"/>
    <path d="M -82.020712 62.990939 
L -81.46047 56.962916 
L -80.024949 58.803036 
L -77.449003 59.188257 
L -73.749561 57.230331 
L -68.750178 52.101181 
L -66.401513 53.433604 
L -66.150295 54.877245 
L -64.720764 54.321902 
L -65.304942 56.109056 
L -63.458712 56.330793 
L -65.398652 57.562603 
L -62.707056 58.89636 
L -63.51653 59.629096 
L -61.771973 65.230839 
L -63.905312 68.361022 
L -62.605371 71.275405 
L -64.637025 86.480162 
L -65.223199 87.206928 
L -71.404877 84.614893 
L -70.5974 85.254305 
L -71.26033 88.984158 
L -73.372735 90.892453 
L -75.047505 90.004171 
L -75.973609 91.114857 
L -76.970492 87.985341 
L -79.258349 85.29533 
L -78.38607 76.593206 
L -77.492857 77.486108 
L -76.894727 77.503318 
L -77.646383 77.171046 
L -77.024329 75.037045 
L -78.992175 74.061392 
L -79.204511 72.091543 
L -77.822828 70.941149 
L -79.171621 65.01639 
L -80.254227 62.955851 
z
" clip-path="url(#p856c83e4c5)" style="fill: #eeeeee; stroke: #000000; stroke-width: 0.3"/>
    <path d="M -29.595504 108.476763 
L -28.788026 104.826325 
L -26.195139 103.372111 
L -25.862179 102.039021 
L -23.787651 104.718442 
L -21.824791 103.816918 
L -21.340302 102.082714 
L -18.679612 101.585607 
L -17.782418 103.496554 
L -12.889705 105.604072 
L -10.075502 104.371594 
L -4.058301 104.453011 
L 0.784568 102.121755 
L 2.999649 103.088819 
L 4.827945 100.867447 
L 5.497846 101.807361 
L 9.905078 100.696675 
L 4.532862 109.05527 
L 3.044508 113.674756 
L 3.191051 116.07749 
L 5.009376 117.249731 
L 4.17 118.067186 
L 5.994291 121.25297 
L 3.862949 122.674748 
L 3.073417 127.05527 
L -4.357366 124.803446 
L -6.911385 120.726078 
L -13.807835 118.654298 
L -20.4441 113.519861 
L -26.749402 112.248993 
z
" clip-path="url(#p856c83e4c5)" style="fill: #eeeeee; stroke: #000000; stroke-width: 0.3"/>
    <path d="M -58.017714 27.785898 
L -57.696709 26.89895 
L -53.89459 26.353529 
L -54.235524 28.574901 
z
" clip-path="url(#p856c83e4c5)" style="fill: #eeeeee; stroke: #000000; stroke-width: 0.3"/>
    <path d="M -66.222079 53.348884 
L -65.759517 52.533414 
L -65.758525 53.457435 
L -65.887122 53.564668 
z
" clip-path="url(#p856c83e4c5)" style="fill: #eeeeee; stroke: #000000; stroke-width: 0.3"/>
    <path d="M -81.00788 86.096909 
L -80.078787 85.763303 
L -80.078787 87.206928 
L -80.704821 87.165235 
z
" clip-path="url(#p856c83e4c5)" style="fill: #eeeeee; stroke: #000000; stroke-width: 0.3"/>
    <path d="M 4.213854 92.340047 
L 4.520894 91.991216 
L 4.586699 92.600175 
z
" clip-path="url(#p856c83e4c5)" style="fill: #eeeeee; stroke: #000000; stroke-width: 0.3"/>
    <path d="M 1.288999 98.726158 
L 2.012738 99.031297 
L 1.76152 99.252383 
z
" clip-path="url(#p856c83e4c5)" style="fill: #eeeeee; stroke: #000000; stroke-width: 0.3"/>
    <path d="M 1.00189 96.677543 
L 1.669806 97.244143 
L 1.510303 97.798819 
z
" clip-path="url(#p856c83e4c5)" style="fill: #eeeeee; stroke: #000000; stroke-width: 0.3"/>
    <path d="M -0.603094 95.876632 
L 0.293109 95.721752 
L 0.228307 96.40219 
z
" clip-path="url(#p856c83e4c5)" style="fill: #eeeeee; stroke: #000000; stroke-width: 0.3"/>
    <path d="M -3.681475 95.628428 
L -3.418302 95.666151 
L -3.569819 96.039465 
z
" clip-path="url(#p856c83e4c5)" style="fill: #eeeeee; stroke: #000000; stroke-width: 0.3"/>
    <path d="M -6.127831 96.272459 
L -5.951386 96.208253 
L -5.906528 96.406159 
z
" clip-path="url(#p856c83e4c5)" style="fill: #eeeeee; stroke: #000000; stroke-width: 0.3"/>
    <path d="M -12.174934 61.005212 
L -12.007455 60.238706 
L -10.745403 60.683514 
z
" clip-path="url(#p856c83e4c5)" style="fill: #eeeeee; stroke: #000000; stroke-width: 0.3"/>
    <path d="M -17.496313 59.856787 
L -17.380676 59.623142 
L -17.284969 59.60328 
z
" clip-path="url(#p856c83e4c5)" style="fill: #eeeeee; stroke: #000000; stroke-width: 0.3"/>
    <path d="M -20.69631 93.873028 
L -20.30155 93.503032 
L -20.157995 93.652625 
z
" clip-path="url(#p856c83e4c5)" style="fill: #eeeeee; stroke: #000000; stroke-width: 0.3"/>
    <path d="M -24.464546 139.942662 
L -24.119618 139.881774 
L -24.137564 140.112117 
z
" clip-path="url(#p856c83e4c5)" style="fill: #eeeeee; stroke: #000000; stroke-width: 0.3"/>
    <path d="M -28.381299 145.571555 
L -28.019429 145.497426 
L -27.340549 146.01768 
z
" clip-path="url(#p856c83e4c5)" style="fill: #eeeeee; stroke: #000000; stroke-width: 0.3"/>
    <path d="M -30.888475 -14.355961 
L -30.059058 -15.747287 
L -29.547656 -15.456708 
z
" clip-path="url(#p856c83e4c5)" style="fill: #eeeeee; stroke: #000000; stroke-width: 0.3"/>
    <path d="M -30.898434 -15.68705 
L -30.370091 -16.009399 
L -30.391026 -15.822084 
z
" clip-path="url(#p856c83e4c5)" style="fill: #eeeeee; stroke: #000000; stroke-width: 0.3"/>
    <path d="M -31.155629 106.488385 
L -30.977187 106.047546 
L -30.308279 106.391091 
z
" clip-path="url(#p856c83e4c5)" style="fill: #eeeeee; stroke: #000000; stroke-width: 0.3"/>
    <path d="M -34.453329 105.429331 
L -34.170214 105.298267 
L -33.8552 105.984007 
z
" clip-path="url(#p856c83e4c5)" style="fill: #eeeeee; stroke: #000000; stroke-width: 0.3"/>
    <path d="M -35.745296 124.500959 
L -34.195142 124.852426 
L -34.451333 125.649368 
z
" clip-path="url(#p856c83e4c5)" style="fill: #eeeeee; stroke: #000000; stroke-width: 0.3"/>
    <path d="M -48.768606 34.148193 
L -47.813899 34.727595 
L -48.015199 34.921694 
z
" clip-path="url(#p856c83e4c5)" style="fill: #eeeeee; stroke: #000000; stroke-width: 0.3"/>
    <path d="M -55.718893 34.770378 
L -55.455708 34.5632 
L -55.48861 34.837235 
z
" clip-path="url(#p856c83e4c5)" style="fill: #eeeeee; stroke: #000000; stroke-width: 0.3"/>
    <path d="M -58.709541 30.64006 
L -58.352658 30.119805 
L -58.274909 30.794289 
z
" clip-path="url(#p856c83e4c5)" style="fill: #eeeeee; stroke: #000000; stroke-width: 0.3"/>
    <path d="M -61.757347 23.712401 
L -61.690635 22.759099 
L -61.259653 23.433404 
z
" clip-path="url(#p856c83e4c5)" style="fill: #eeeeee; stroke: #000000; stroke-width: 0.3"/>
    <path d="M -67.005633 52.634026 
L -66.501201 52.104499 
L -66.73348 52.94777 
z
" clip-path="url(#p856c83e4c5)" style="fill: #eeeeee; stroke: #000000; stroke-width: 0.3"/>
    <path d="M -79.586323 87.31813 
L -77.8976 87.77286 
L -78.804766 89.528911 
z
" clip-path="url(#p856c83e4c5)" style="fill: #eeeeee; stroke: #000000; stroke-width: 0.3"/>
    <path d="M -81.2571 56.441995 
L -79.829566 54.321902 
L -80.806506 56.477083 
z
" clip-path="url(#p856c83e4c5)" style="fill: #eeeeee; stroke: #000000; stroke-width: 0.3"/>
    <path d="M 49.149432 -22.641583 
L 51.723295 -25.157584 
L 54.149035 -24.659925 
L 57.658509 -27.632382 
L 66.146076 -26.720301 
L 71.600193 -20.782951 
L 72.796612 -20.936789 
L 72.568718 -16.492402 
L 81.463943 -11.055234 
L 79.72567 -8.666164 
L 81.99062 -6.894123 
L 79.776311 -6.362009 
L 80.271334 -5.282654 
L 87.601731 -3.14073 
L 89.222272 -0.604557 
L 92.889999 -4.362163 
L 97.043894 -1.908383 
L 93.601512 -0.557497 
L 96.14338 3.856275 
L 94.934662 6.532362 
L 92.565896 7.680657 
L 91.951854 10.696824 
L 94.026909 16.124736 
L 99.731705 20.998689 
L 96.576714 25.679306 
L 92.906451 26.871312 
L 93.586323 28.170078 
L 92.88113 30.787782 
L 94.243398 32.324455 
L 92.864679 34.80514 
L 90.964342 34.082197 
L 82.465383 36.169479 
L 81.742478 34.544118 
L 82.984465 33.816978 
L 84.784783 29.213711 
L 80.059904 28.001534 
L 80.424529 26.328267 
L 78.612819 25.684772 
L 76.55549 22.364297 
L 73.443557 21.06636 
L 73.209342 19.652016 
L 70.570898 20.619145 
L 71.058327 22.989295 
L 68.79971 24.652478 
L 69.006068 26.189557 
L 67.401991 26.646435 
L 67.30071 25.352712 
L 62.30363 21.986428 
L 58.248493 20.973052 
L 53.076694 16.016723 
L 54.017375 14.264007 
L 56.91914 14.657427 
L 57.136903 13.311583 
L 53.90469 7.539426 
L 57.396438 7.942932 
L 58.502968 6.991338 
L 52.351253 1.981198 
L 52.513305 -0.859268 
L 55.535362 -6.466249 
L 53.210902 -7.516193 
L 51.115599 -6.509129 
L 50.816803 -7.311081 
L 52.534828 -7.933152 
L 51.471355 -10.927456 
L 55.9177 -11.999247 
L 50.646067 -14.733358 
L 51.039638 -16.806797 
L 52.223391 -17.017798 
L 49.740677 -18.017298 
L 50.535746 -19.573296 
z
" clip-path="url(#p856c83e4c5)" style="fill: #eeeeee; stroke: #000000; stroke-width: 0.3"/>
    <path d="M -16.364843 -17.022125 
L -11.686537 -15.58621 
L -10.671169 -17.059832 
L -5.76018 -16.468018 
L -3.210375 -19.558168 
L -0.5618 -16.262076 
L 0.975173 -17.071593 
L 3.628807 -15.69045 
L 5.906411 -16.061161 
L 5.212624 -18.482163 
L 6.501454 -19.109277 
L 5.046775 -20.463514 
L 10.204633 -22.386872 
L 10.473036 -25.550988 
L 9.148755 -26.808566 
L 9.760249 -28.340196 
L 14.407906 -29.823057 
L 14.882669 -31.103328 
L 17.548957 -31.032289 
L 17.050136 -32.987173 
L 18.388345 -33.859741 
L 24.433708 -31.173943 
L 29.976452 -24.712044 
L 33.663179 -23.924375 
L 36.933366 -21.248662 
L 43.625674 -20.76195 
L 46.703431 -23.45868 
L 49.712821 -23.842844 
L 49.022819 -21.964041 
L 50.535746 -19.573296 
L 49.740677 -18.017298 
L 52.223391 -17.017798 
L 51.039638 -16.806797 
L 50.646067 -14.733358 
L 55.9177 -11.999247 
L 52.41456 -11.879879 
L 51.471355 -10.927456 
L 52.534828 -7.933152 
L 49.569757 -6.436822 
L 47.051592 -10.074213 
L 45.005667 -9.603475 
L 41.586082 -11.256133 
L 36.659904 -9.743015 
L 34.810207 -11.362064 
L 28.714204 -11.111551 
L 25.495918 -13.323244 
L 24.115938 -11.642835 
L 20.652033 -12.31029 
L 18.046516 -8.714933 
L 14.423096 -12.174948 
L 11.628933 -11.782374 
L 10.846518 -4.938832 
L 14.519317 -2.590121 
L 14.247116 -1.228304 
L 15.599253 -0.910558 
L 18.176914 6.23225 
L 26.796153 14.91718 
L 29.735904 16.304212 
L 29.973917 18.903436 
L 34.120217 23.081758 
L 34.194915 24.646166 
L 32.738741 24.508123 
L 32.571263 23.335216 
L 24.960042 17.235715 
L 18.967757 15.529962 
L 19.487145 14.896521 
L 13.676291 15.641164 
L 13.565639 12.638743 
L 10.574979 11.420824 
L 3.693486 4.392667 
L 3.645638 2.977493 
L 5.539716 3.494446 
L 5.123017 2.162023 
L 7.122773 3.213139 
L 8.398778 3.150917 
L 2.012738 -1.695593 
L 0.499467 -4.198939 
L 0.963009 -8.024785 
L 0.119652 -10.218356 
L -3.334563 -13.471648 
L -6.510635 -14.290421 
L -8.472502 -8.328589 
L -9.48335 -7.873858 
L -9.299923 -8.473562 
L -9.833251 -9.32874 
L -10.326707 -5.65382 
L -11.672511 -5.986093 
L -11.331577 -5.087888 
L -11.513007 -4.992562 
L -14.942294 -9.883416 
L -13.680229 -10.882916 
L -15.276246 -11.060309 
L -15.109772 -13.902548 
z
" clip-path="url(#p856c83e4c5)" style="fill: #eeeeee; stroke: #000000; stroke-width: 0.3"/>
    <path d="M 26.442406 23.00161 
L 35.505097 26.454142 
L 34.425467 25.613506 
L 36.36618 25.305635 
L 36.938426 26.81667 
L 44.029548 31.009714 
L 44.7532 33.33404 
L 37.359302 27.241811 
L 35.25388 26.665956 
L 35.75531 27.439066 
L 35.593822 27.547617 
L 29.042288 24.122235 
L 26.987702 23.919677 
z
" clip-path="url(#p856c83e4c5)" style="fill: #eeeeee; stroke: #000000; stroke-width: 0.3"/>
    <path d="M -6.915366 -10.538721 
L -6.484715 -11.499814 
L -4.526828 -8.229978 
L -4.031376 -3.199455 
L -5.085085 -3.108115 
L -6.722972 -7.208647 
L -5.287451 -7.98506 
z
" clip-path="url(#p856c83e4c5)" style="fill: #eeeeee; stroke: #000000; stroke-width: 0.3"/>
    <path d="M -5.119985 -10.115759 
L -3.833004 -10.888203 
L -3.603714 -12.740897 
L -0.343902 -8.328589 
L -1.465401 -7.773246 
z
" clip-path="url(#p856c83e4c5)" style="fill: #eeeeee; stroke: #000000; stroke-width: 0.3"/>
    <path d="M 19.14321 18.427151 
L 19.394427 17.428334 
L 25.103596 18.760757 
L 19.340602 18.673386 
z
" clip-path="url(#p856c83e4c5)" style="fill: #eeeeee; stroke: #000000; stroke-width: 0.3"/>
    <path d="M 14.770878 22.779206 
L 15.767761 22.400605 
L 17.127517 22.668671 
L 15.24041 23.652928 
z
" clip-path="url(#p856c83e4c5)" style="fill: #eeeeee; stroke: #000000; stroke-width: 0.3"/>
    <path d="M 2.688628 4.938071 
L 4.688372 6.494882 
L 5.039278 7.281234 
L 3.415356 6.071921 
z
" clip-path="url(#p856c83e4c5)" style="fill: #eeeeee; stroke: #000000; stroke-width: 0.3"/>
    <path d="M -2.267893 -5.421494 
L -1.423532 -5.421494 
L -1.925954 -6.208496 
L 0.196409 -4.097009 
z
" clip-path="url(#p856c83e4c5)" style="fill: #eeeeee; stroke: #000000; stroke-width: 0.3"/>
    <path d="M 30.38808 27.241811 
L 31.22846 27.065086 
L 35.595806 28.807895 
z
" clip-path="url(#p856c83e4c5)" style="fill: #eeeeee; stroke: #000000; stroke-width: 0.3"/>
    <path d="M 24.227324 28.132745 
L 25.455494 27.464215 
L 25.642903 27.81635 
z
" clip-path="url(#p856c83e4c5)" style="fill: #eeeeee; stroke: #000000; stroke-width: 0.3"/>
    <path d="M 21.91057 24.122235 
L 28.87481 25.111779 
L 24.602154 25.454658 
z
" clip-path="url(#p856c83e4c5)" style="fill: #eeeeee; stroke: #000000; stroke-width: 0.3"/>
    <path d="M 18.724526 20.659113 
L 28.791071 21.769132 
L 25.727144 21.769132 
z
" clip-path="url(#p856c83e4c5)" style="fill: #eeeeee; stroke: #000000; stroke-width: 0.3"/>
    <path d="M 16.762647 15.867537 
L 17.411625 15.496208 
L 18.769385 15.865553 
z
" clip-path="url(#p856c83e4c5)" style="fill: #eeeeee; stroke: #000000; stroke-width: 0.3"/>
    <path d="M 16.628071 17.217838 
L 17.566143 17.138405 
L 18.443395 18.329857 
z
" clip-path="url(#p856c83e4c5)" style="fill: #eeeeee; stroke: #000000; stroke-width: 0.3"/>
    <path d="M 9.318904 12.863799 
L 10.992682 13.631606 
L 10.155291 13.470106 
z
" clip-path="url(#p856c83e4c5)" style="fill: #eeeeee; stroke: #000000; stroke-width: 0.3"/>
    <path d="M 5.123017 7.392436 
L 7.38695 9.401994 
L 6.316287 8.883724 
z
" clip-path="url(#p856c83e4c5)" style="fill: #eeeeee; stroke: #000000; stroke-width: 0.3"/>
    <path d="M 4.7133 9.614475 
L 5.185821 9.898434 
L 6.76987 11.27455 
z
" clip-path="url(#p856c83e4c5)" style="fill: #eeeeee; stroke: #000000; stroke-width: 0.3"/>
    <path d="M 0.080772 4.715667 
L 2.012738 6.059347 
L 4.305568 9.64426 
z
" clip-path="url(#p856c83e4c5)" style="fill: #eeeeee; stroke: #000000; stroke-width: 0.3"/>
    <path d="M -0.252188 4.828203 
L 0.320021 5.286236 
L -0.19138 5.003611 
z
" clip-path="url(#p856c83e4c5)" style="fill: #eeeeee; stroke: #000000; stroke-width: 0.3"/>
    <path d="M -1.063647 1.651024 
L -0.974934 0.815692 
L -0.487456 0.975874 
z
" clip-path="url(#p856c83e4c5)" style="fill: #eeeeee; stroke: #000000; stroke-width: 0.3"/>
    <path d="M -1.157357 3.315735 
L -0.629014 3.139009 
L -0.652938 3.230349 
z
" clip-path="url(#p856c83e4c5)" style="fill: #eeeeee; stroke: #000000; stroke-width: 0.3"/>
    <path d="M -1.339792 -3.86665 
L 5.039278 2.040898 
L 3.500087 2.496946 
z
" clip-path="url(#p856c83e4c5)" style="fill: #eeeeee; stroke: #000000; stroke-width: 0.3"/>
    <path d="M -3.037482 1.925727 
L -2.443346 2.273225 
L -2.225019 2.55123 
z
" clip-path="url(#p856c83e4c5)" style="fill: #eeeeee; stroke: #000000; stroke-width: 0.3"/>
    <path d="M -6.213567 -4.087737 
L -3.781163 -0.302266 
L -5.879603 -1.75583 
z
" clip-path="url(#p856c83e4c5)" style="fill: #eeeeee; stroke: #000000; stroke-width: 0.3"/>
    <path d="M -7.477616 -2.611675 
L -6.891442 -3.449659 
L -7.005095 -2.391923 
z
" clip-path="url(#p856c83e4c5)" style="fill: #eeeeee; stroke: #000000; stroke-width: 0.3"/>
    <path d="M 91.897416 35.007731 
L 94.201614 32.66281 
L 92.88113 30.787782 
L 93.586323 28.170078 
L 92.906451 26.871312 
L 96.576714 25.679306 
L 99.692457 20.602341 
L 94.026909 16.124736 
L 91.951854 10.696824 
L 92.565896 7.680657 
L 94.934662 6.532362 
L 96.14338 3.856275 
L 100.300153 6.05824 
L 98.522632 7.661316 
L 98.558083 10.182767 
L 105.858087 9.514481 
L 129.358406 13.264929 
L 133.988962 11.931693 
L 138.516339 7.37046 
L 149.256189 4.692226 
L 153.621514 7.32675 
L 156.67901 7.088014 
L 157.76022 8.406105 
L 160.092274 7.680657 
L 160.936721 10.023056 
L 163.879644 11.444135 
L 168.254341 11.780913 
L 168.033025 16.456651 
L 166.965363 17.871808 
L 165.109162 16.872324 
L 162.624929 17.470027 
L 161.384804 20.053472 
L 159.993149 20.547911 
L 159.849594 28.548418 
L 157.894709 28.483561 
L 156.6177 29.874888 
L 156.883862 31.0286 
L 154.467407 32.296166 
L 157.727231 33.360507 
L 158.178817 35.901593 
L 161.374832 40.552832 
L 158.865476 40.192711 
L 155.613002 41.714255 
L 152.268116 38.61402 
L 149.489779 38.757349 
L 148.171194 40.16792 
L 144.089462 40.636559 
L 143.114617 42.965521 
L 140.763563 43.530006 
L 140.753445 44.774554 
L 137.327527 44.962 
L 138.821455 49.347972 
L 135.224629 51.42769 
L 127.349193 52.454925 
L 123.028187 49.856547 
L 121.657063 50.711465 
L 119.28069 49.207587 
L 118.419779 47.237167 
L 113.108726 47.65411 
L 112.595977 49.031902 
L 107.422917 50.338232 
L 98.903709 50.911534 
L 100.029226 44.337002 
L 97.938982 39.789628 
L 94.176294 38.006248 
z
" clip-path="url(#p856c83e4c5)" style="fill: #eeeeee; stroke: #000000; stroke-width: 0.3"/>
    <path d="M 43.982705 24.584383 
L 46.499595 23.510071 
L 46.809783 20.046266 
L 48.73163 18.285985 
L 50.82947 19.494388 
L 51.77521 18.815593 
L 49.765997 15.858265 
L 50.645895 14.953748 
L 53.314719 15.172313 
L 53.276732 16.445443 
L 58.248493 20.973052 
L 62.30363 21.986428 
L 67.503272 25.612888 
L 65.418099 28.028017 
L 63.496239 28.016663 
L 64.444515 29.482297 
L 62.948051 31.797807 
L 60.738801 32.491323 
L 59.76774 29.596622 
L 58.538419 30.264924 
L 54.289564 36.99497 
L 55.484709 38.410583 
L 55.393951 42.508123 
L 53.00741 41.115463 
L 49.52529 35.480616 
L 48.2094 35.690446 
L 45.350338 33.216218 
L 47.25239 33.713975 
L 47.091894 32.251155 
L 44.7532 33.33404 
L 44.029548 31.009714 
L 45.409529 29.238925 
z
" clip-path="url(#p856c83e4c5)" style="fill: #eeeeee; stroke: #000000; stroke-width: 0.3"/>
    <path d="M 10.846518 -4.938832 
L 11.628933 -11.782374 
L 14.423096 -12.174948 
L 18.046516 -8.714933 
L 20.652033 -12.31029 
L 24.115938 -11.642835 
L 25.495918 -13.323244 
L 28.714204 -11.111551 
L 34.810207 -11.362064 
L 36.659904 -9.743015 
L 41.586082 -11.256133 
L 45.005667 -9.603475 
L 46.979429 -10.116247 
L 49.569757 -6.436822 
L 53.210902 -7.516193 
L 55.437866 -6.858823 
L 52.234783 1.346536 
L 58.411806 6.685354 
L 57.396438 7.942932 
L 54.262982 7.37046 
L 53.731246 8.260677 
L 56.577311 11.441614 
L 56.91914 14.657427 
L 55.166939 13.935329 
L 49.831827 15.58758 
L 51.77521 18.815593 
L 50.82947 19.494388 
L 48.73163 18.285985 
L 46.809783 20.046266 
L 46.499595 23.510071 
L 44.218181 23.946761 
L 44.118162 26.814979 
L 45.409529 29.238925 
L 44.700551 30.91935 
L 38.614678 28.061641 
L 36.36618 25.305635 
L 33.239167 24.900632 
L 34.540541 24.397344 
L 34.120217 23.081758 
L 29.973917 18.903436 
L 29.735904 16.304212 
L 26.796153 14.91718 
L 18.176914 6.23225 
L 15.599253 -0.910558 
L 14.247116 -1.228304 
L 14.519317 -2.590121 
z
" clip-path="url(#p856c83e4c5)" style="fill: #eeeeee; stroke: #000000; stroke-width: 0.3"/>
   </g>
   <g id="PatchCollection_2">
    <defs>
     <path id="m3135e06c9a" d="M 54.254126 -70.832696 
L 59.487944 -78.545455 
L 60.531168 -75.61334 
L 63.65197 -76.966748 
L 66.084043 -73.097761 
L 69.071899 -71.646426 
L 70.512662 -67.25206 
L 69.301054 -63.568015 
L 69.721379 -61.146997 
L 68.612325 -60.567806 
L 69.788483 -58.144283 
L 69.297257 -55.457639 
L 71.957224 -50.214651 
L 74.890642 -49.914555 
L 74.731126 -47.807948 
L 75.870559 -45.766067 
L 74.647558 -43.045799 
L 72.611764 -42.22366 
L 71.103908 -36.889055 
L 66.820876 -35.146424 
L 68.035008 -32.400097 
L 66.601851 -32.170616 
L 66.803151 -30.761722 
L 65.426968 -29.454545 
L 63.03707 -30.263021 
L 63.291277 -33.174102 
L 62.025231 -33.837345 
L 61.498884 -36.097107 
L 56.755704 -38.835415 
L 54.468839 -42.197925 
L 56.739755 -41.026351 
L 55.655139 -44.196893 
L 56.490522 -44.368999 
L 54.650282 -45.984063 
L 55.591343 -50.134243 
L 57.333891 -50.335451 
L 56.99096 -51.669207 
L 56.797574 -50.876901 
L 56.406795 -50.557855 
L 57.250152 -55.79754 
L 55.738879 -58.353185 
L 57.250152 -59.978172 
L 56.323056 -61.149095 
L 58.430462 -61.472762 
L 58.169286 -64.945807 
L 55.393951 -65.491877 
L 55.484709 -69.589417 
z
" style="stroke: #dd0000; stroke-width: 0.5"/>
    </defs>
    <g clip-path="url(#p856c83e4c5)">
     <use xlink:href="#m3135e06c9a" x="0" y="108" style="fill: #ff6b6b; stroke: #dd0000; stroke-width: 0.5"/>
    </g>
   </g>
  </g>
 </g>
 <defs>
  <clipPath id="p856c83e4c5">
   <rect x="0" y="0" width="130.124684" height="108"/>
  </clipPath>
 </defs>
</svg>
