<?xml version="1.0" encoding="utf-8" standalone="no"?>
<!DOCTYPE svg PUBLIC "-//W3C//DTD SVG 1.1//EN"
  "http://www.w3.org/Graphics/SVG/1.1/DTD/svg11.dtd">
<svg xmlns:xlink="http://www.w3.org/1999/xlink" width="127.321991pt" height="108pt" viewBox="0 0 127.321991 108" xmlns="http://www.w3.org/2000/svg" version="1.1">
 <metadata>
  <rdf:RDF xmlns:dc="http://purl.org/dc/elements/1.1/" xmlns:cc="http://creativecommons.org/ns#" xmlns:rdf="http://www.w3.org/1999/02/22-rdf-syntax-ns#">
   <cc:Work>
    <dc:type rdf:resource="http://purl.org/dc/dcmitype/StillImage"/>
    <dc:date>2025-09-05T15:49:27.422598</dc:date>
    <dc:format>image/svg+xml</dc:format>
    <dc:creator>
     <cc:Agent>
      <dc:title>Matplotlib v3.10.3, https://matplotlib.org/</dc:title>
     </cc:Agent>
    </dc:creator>
   </cc:Work>
  </rdf:RDF>
 </metadata>
 <defs>
  <style type="text/css">*{stroke-linejoin: round; stroke-linecap: butt}</style>
 </defs>
 <g id="figure_1">
  <g id="patch_1">
   <path d="M 0 108 
L 127.321991 108 
L 127.321991 0 
L 0 0 
z
" style="fill: #ffffff"/>
  </g>
  <g id="axes_1">
   <g id="PatchCollection_1">
    <path d="M -174.724592 -242.649534 
L -174.580603 -251.580362 
L -167.016876 -257.170451 
L -144.820338 -262.442452 
L -140.217474 -257.170451 
L -138.652005 -262.463246 
L -130.169233 -259.887531 
L -127.553002 -268.01798 
L -116.803224 -269.566729 
L -116.457048 -265.575305 
L -111.598354 -269.516814 
L -112.878896 -263.829041 
L -108.46286 -266.970221 
L -96.198168 -251.008662 
L -82.409415 -260.692049 
L -82.945543 -257.170451 
L -78.555557 -254.72987 
L -72.482199 -258.216115 
L -69.769449 -251.241531 
L -71.592254 -257.866862 
L -68.464401 -260.692049 
L -64.628913 -261.386366 
L -62.832195 -256.46985 
L -46.289358 -257.866862 
L -53.707591 -263.174217 
L -55.56405 -268.396303 
L -51.988984 -277.813561 
L -55.211776 -277.57451 
L -55.845892 -287.122764 
L -53.51154 -287.613383 
L -63.602658 -295.698055 
L -66.169877 -303.217362 
L -64.469641 -307.757598 
L -68.072299 -313.087791 
L -55.70499 -309.304252 
L -42.769404 -311.626354 
L -41.441393 -307.97795 
L -44.396121 -304.606046 
L -37.492559 -293.741861 
L -30.624194 -296.134621 
L -3.484753 -290.403216 
L 20.260352 -299.188488 
L 23.342241 -301.311032 
L 14.445873 -299.801776 
L 7.660213 -303.425248 
L 13.655459 -313.353868 
L 50.748203 -326.109822 
L 62.034109 -338.150615 
L 67.738328 -337.019733 
L 62.806115 -341.381153 
L 65.397803 -346.120998 
L 63.320749 -347.863073 
L 64.276571 -371.570473 
L 99.708117 -382.745951 
L 102.969983 -376.287481 
L 102.152954 -370.376188 
L 109.681333 -364.140114 
L 122.574871 -366.986198 
L 127.912812 -354.104868 
L 140.607965 -351.528081 
L 143.942221 -342.41951 
L 155.477933 -344.761333 
L 162.792343 -340.389236 
L 160.088364 -333.730748 
L 163.259206 -330.256306 
L 160.310125 -325.905308 
L 179.665997 -326.391074 
L 186.054436 -335.425717 
L 188.174819 -334.324774 
L 184.863902 -325.05251 
L 187.735173 -322.755595 
L 187.314989 -316.667377 
L 202.756885 -311.413461 
L 210.168567 -301.584161 
L 221.093428 -304.163553 
L 229.162604 -298.640341 
L 245.802864 -299.873302 
L 257.511702 -284.209241 
L 265.063421 -286.651405 
L 269.887783 -281.590202 
L 278.614489 -281.458185 
L 283.738461 -284.724077 
L 292.188896 -278.023338 
L 313.470643 -273.97597 
L 298.787427 -256.424176 
L 296.546395 -242.443231 
L 290.333077 -231.630444 
L 291.667562 -223.543626 
L 287.555164 -210.049776 
L 290.346704 -203.780851 
L 282.536257 -195.914335 
L 267.281076 -198.900355 
L 263.26595 -192.006903 
L 269.662144 -190.747529 
L 255.690892 -175.000293 
L 247.30464 -171.059856 
L 246.798853 -161.692565 
L 235.099727 -152.631559 
L 232.68365 -144.250359 
L 235.726126 -141.746171 
L 234.181548 -135.750375 
L 228.940842 -133.036258 
L 229.092586 -129.487888 
L 235.924548 -130.496409 
L 241.22748 -135.087684 
L 238.702461 -138.939683 
L 240.772249 -141.982464 
L 248.821963 -145.740712 
L 260.270153 -143.982391 
L 258.888989 -140.474893 
L 261.799183 -136.589941 
L 259.464794 -130.567731 
L 269.117471 -119.003814 
L 260.787609 -113.955844 
L 260.604734 -108.422056 
L 274.3348 -92.726268 
L 270.374145 -82.648771 
L 253.331206 -77.01735 
L 258.702236 -67.0217 
L 268.553298 -62.641632 
L 270.362438 -55.632052 
L 266.775289 -55.544892 
L 262.102633 -47.925397 
L 265.191825 -42.932859 
L 263.246488 -39.653786 
L 267.638996 -32.992642 
L 280.746541 -27.041702 
L 292.967038 -29.636984 
L 294.258722 -24.082096 
L 286.27515 -13.770963 
L 286.220227 -8.616981 
L 273.993857 -3.004003 
L 273.51555 2.143389 
L 266.858972 2.854207 
L 264.296948 8.600785 
L 258.165393 9.611401 
L 252.885649 16.710338 
L 256.743498 16.502145 
L 256.232554 20.151009 
L 244.772543 25.807311 
L 237.914795 24.891161 
L 237.420677 28.613136 
L 228.418341 23.601337 
L 225.244035 28.158075 
L 218.366975 21.257828 
L 206.059632 19.418069 
L 204.071757 12.287252 
L 194.278593 13.308852 
L 193.981656 9.535685 
L 201.517827 5.910169 
L 194.095002 1.910417 
L 194.92212 8.517048 
L 188.035422 8.916216 
L 187.568748 12.986831 
L 183.881315 8.870491 
L 183.30231 3.652492 
L 181.500999 0.862659 
L 183.305397 8.860068 
L 186.232418 12.752991 
L 153.583416 2.862535 
L 122.001889 25.017048 
L 119.284583 49.400065 
L 124.522015 59.494014 
L 115.21382 57.514727 
L 104.99313 64.218072 
L 90.508299 59.64003 
L 79.902435 63.724387 
L 69.230429 56.314771 
L 69.600057 50.380998 
L 58.581764 51.120222 
L 55.317526 45.333027 
L 35.378057 39.050768 
L 29.483735 38.703559 
L 29.005202 46.568594 
L 3.311485 46.534261 
L -7.374148 38.495009 
L -16.643569 42.064479 
L -23.819863 33.181675 
L -38.510871 30.156061 
L -43.634843 24.870419 
L -50.075758 28.145558 
L -48.056525 18.016562 
L -56.277444 17.829112 
L -62.848721 11.321136 
L -57.749858 10.0284 
L -50.818703 0.812795 
L -42.550352 -49.050915 
L -39.888195 -54.641004 
L -34.551609 -54.842657 
L -39.350562 -60.403624 
L -42.668292 -52.697225 
L -36.077214 -100.804298 
L -24.065265 -88.391416 
L -22.175077 -78.604111 
L -15.349627 -66.365803 
L -17.665646 -72.991133 
L -13.810244 -71.629477 
L -19.917293 -76.795465 
L -25.168126 -96.108135 
L -42.176621 -108.001328 
L -39.033485 -112.946965 
L -32.384172 -108.381797 
L -38.578555 -116.086051 
L -34.700153 -124.804804 
L -40.802647 -131.739945 
L -37.036086 -138.28629 
L -41.905508 -137.344544 
L -62.809232 -148.088155 
L -67.119526 -158.16647 
L -74.981997 -164.714909 
L -70.161588 -175.72041 
L -79.587948 -181.19202 
L -76.729702 -182.489201 
L -76.555109 -187.767486 
L -60.235878 -184.680359 
L -70.892223 -190.24756 
L -80.991021 -186.501419 
L -90.913681 -189.245527 
L -86.931118 -189.598969 
L -91.455908 -193.492658 
L -85.261524 -195.556959 
L -89.135296 -199.0079 
L -84.210763 -199.772925 
L -94.301881 -200.47143 
L -93.07344 -200.945394 
L -92.224827 -202.213505 
L -101.27132 -199.417439 
L -104.739175 -202.442185 
L -98.42226 -202.080466 
L -96.434084 -204.791314 
L -96.259453 -205.741337 
L -97.108027 -206.749603 
L -105.122129 -204.338092 
L -107.202232 -207.826431 
L -105.894136 -202.562758 
L -112.796154 -204.504442 
L -113.113231 -198.344748 
L -115.706499 -206.589537 
L -112.59856 -211.316865 
L -115.427706 -212.046536 
L -116.594901 -207.448108 
L -121.642003 -209.539436 
L -118.794487 -209.223443 
L -121.642003 -210.237941 
L -118.794487 -214.137914 
L -124.961277 -209.909482 
L -150.775794 -221.114592 
L -152.77165 -215.468355 
L -159.796237 -215.152362 
L -162.161232 -223.758869 
L -173.209716 -227.076771 
L -156.542804 -230.897707 
L -160.076536 -236.874447 
L -166.78559 -234.055493 
L -169.377277 -239.66847 
L -166.379673 -242.722337 
L -165.206343 -240.117502 
L -155.939293 -239.737084 
L -152.857403 -240.714134 
L -162.879633 -242.138172 
L -156.712805 -247.052592 
z
M 78.089417 58.484982 
L 80.046386 58.859882 
L 78.43179 56.924635 
z
" clip-path="url(#pea2210405d)" style="fill: #eeeeee; stroke: #000000; stroke-width: 0.3"/>
    <path d="M -2051.169471 2108.478873 
L -2042.147108 2100.43165 
L -2034.414471 2081.565049 
L -2035.957091 2067.548444 
L -2028.121385 2050.791358 
L -2027.812063 2042.197624 
L -2037.081484 2029.284567 
L -2043.312345 2013.182254 
L -2046.329524 1976.83513 
L -2039.727116 1960.340751 
L -2030.307607 1949.575835 
L -2025.523674 1933.827015 
L -1986.467712 1951.15156 
L -1967.362099 1977.195674 
L -1963.226399 1975.391218 
L -1965.536244 1985.947738 
L -1961.449557 1978.241338 
L -1953.642272 1987.533885 
L -1950.865187 1999.772192 
L -1954.461748 2005.925602 
L -1950.329097 2002.944538 
L -1949.299755 1989.467241 
L -1945.24676 1991.664581 
L -1939.507306 2015.184889 
L -1966.094996 2066.312826 
L -1968.125899 2079.302416 
L -1978.716178 2106.092141 
L -1989.644992 2116.296393 
L -2000.470661 2115.147885 
L -1999.178977 2112.325558 
L -2003.316672 2107.285507 
L -2010.382028 2112.526241 
L -2019.153455 2106.311267 
L -2032.205663 2119.309849 
z
" clip-path="url(#pea2210405d)" style="fill: #eeeeee; stroke: #000000; stroke-width: 0.3"/>
    <path d="M 326.600096 62.272403 
L 330.757253 59.576116 
L 332.625985 51.948753 
L 348.010812 44.14053 
L 354.572828 47.065497 
L 356.625338 30.257833 
L 361.042918 30.956338 
L 360.246405 48.811761 
L 363.453875 52.747038 
L 364.63944 74.051256 
L 358.751405 83.942529 
L 358.693207 96.536271 
L 354.572828 100.625431 
L 356.772414 102.935017 
L 351.50626 109.728791 
L 351.974968 113.597548 
L 335.735429 103.955748 
L 340.664555 97.139136 
L 330.591807 94.316043 
L 336.2501 86.293702 
L 329.053931 86.6076 
L 328.00012 83.123451 
L 333.973909 78.64764 
L 327.228114 70.883048 
L 331.820287 67.594319 
z
" clip-path="url(#pea2210405d)" style="fill: #eeeeee; stroke: #000000; stroke-width: 0.3"/>
    <path d="M -2299.778251 1468.817105 
L -2286.972876 1472.353264 
L -2289.163239 1478.018149 
L -2284.379608 1488.462372 
L -2286.645071 1491.214807 
L -2286.566959 1487.747262 
L -2294.135279 1488.221226 
L -2295.501611 1485.672539 
L -2291.365911 1483.198699 
L -2297.523517 1477.991123 
z
" clip-path="url(#pea2210405d)" style="fill: #eeeeee; stroke: #000000; stroke-width: 0.3"/>
    <path d="M 2083.691921 3301.741575 
L 2086.02631 3295.712826 
L 2096.978275 3293.825246 
L 2107.372692 3308.244238 
L 2105.773531 3317.723877 
L 2096.852656 3319.021109 
L 2088.366798 3314.090033 
z
" clip-path="url(#pea2210405d)" style="fill: #eeeeee; stroke: #000000; stroke-width: 0.3"/>
    <path d="M 1700.363629 2876.093573 
L 1702.183347 2873.478366 
L 1706.319047 2877.345028 
L 1705.77987 2889.9097 
L 1702.422313 2890.599878 
L 1701.117265 2886.317443 
L 1703.901954 2886.591849 
z
" clip-path="url(#pea2210405d)" style="fill: #eeeeee; stroke: #000000; stroke-width: 0.3"/>
    <path d="M -2312.001572 1395.304238 
L -2308.927362 1383.67089 
L -2305.283332 1392.063278 
L -2297.673641 1396.959 
L -2308.913584 1399.54718 
z
" clip-path="url(#pea2210405d)" style="fill: #eeeeee; stroke: #000000; stroke-width: 0.3"/>
    <path d="M -2321.532093 1393.934253 
L -2319.29268 1391.221311 
L -2312.283414 1395.29591 
L -2312.822591 1408.172386 
L -2317.676692 1412.481898 
z
" clip-path="url(#pea2210405d)" style="fill: #eeeeee; stroke: #000000; stroke-width: 0.3"/>
    <path d="M -53.790295 -135.685593 
L -44.465047 -133.394707 
L -43.460212 -130.802337 
L -51.849588 -133.432105 
z
" clip-path="url(#pea2210405d)" style="fill: #eeeeee; stroke: #000000; stroke-width: 0.3"/>
    <path d="M -2304.015063 1413.361263 
L -2301.61634 1409.411426 
L -2298.819379 1413.35503 
L -2301.86449 1416.334051 
z
" clip-path="url(#pea2210405d)" style="fill: #eeeeee; stroke: #000000; stroke-width: 0.3"/>
    <path d="M 1709.143601 2881.531872 
L 1709.400937 2878.392786 
L 1709.400937 2881.531872 
z
" clip-path="url(#pea2210405d)" style="fill: #eeeeee; stroke: #000000; stroke-width: 0.3"/>
    <path d="M 360.761076 48.462509 
L 361.722997 49.857425 
L 361.523859 49.909384 
z
" clip-path="url(#pea2210405d)" style="fill: #eeeeee; stroke: #000000; stroke-width: 0.3"/>
    <path d="M 236.898064 30.465719 
L 237.235054 29.98966 
L 240.136214 30.31393 
z
" clip-path="url(#pea2210405d)" style="fill: #eeeeee; stroke: #000000; stroke-width: 0.3"/>
    <path d="M -48.110582 -125.538664 
L -42.188856 -122.913034 
L -40.742906 -113.327383 
z
" clip-path="url(#pea2210405d)" style="fill: #eeeeee; stroke: #000000; stroke-width: 0.3"/>
    <path d="M -81.640495 -175.608164 
L -78.040886 -175.157038 
L -75.878079 -169.307104 
z
" clip-path="url(#pea2210405d)" style="fill: #eeeeee; stroke: #000000; stroke-width: 0.3"/>
    <path d="M -84.926077 -159.742246 
L -81.736977 -159.61544 
L -80.63566 -158.453342 
z
" clip-path="url(#pea2210405d)" style="fill: #eeeeee; stroke: #000000; stroke-width: 0.3"/>
    <path d="M -118.020937 -193.492658 
L -110.677767 -189.339073 
L -116.567308 -189.860909 
z
" clip-path="url(#pea2210405d)" style="fill: #eeeeee; stroke: #000000; stroke-width: 0.3"/>
    <path d="M -188.442913 -248.418387 
L -186.8989 -249.565925 
L -186.754911 -247.850877 
z
" clip-path="url(#pea2210405d)" style="fill: #eeeeee; stroke: #000000; stroke-width: 0.3"/>
    <path d="M -2294.965521 1394.281412 
L -2292.989542 1392.285725 
L -2294.098538 1394.443572 
z
" clip-path="url(#pea2210405d)" style="fill: #eeeeee; stroke: #000000; stroke-width: 0.3"/>
    <path d="M -2313.940773 1416.89119 
L -2313.347953 1415.974375 
L -2313.4322 1416.945243 
z
" clip-path="url(#pea2210405d)" style="fill: #eeeeee; stroke: #000000; stroke-width: 0.3"/>
    <path d="M -2315.546033 1417.383853 
L -2314.708149 1417.0346 
L -2315.140116 1417.701941 
z
" clip-path="url(#pea2210405d)" style="fill: #eeeeee; stroke: #000000; stroke-width: 0.3"/>
    <path d="M -344.542987 27.638487 
L -338.075985 23.237524 
L -342.211685 22.511991 
L -331.480277 18.427021 
L -333.569565 15.988535 
L -327.620283 13.015748 
L -322.467513 15.458423 
L -308.825798 9.722829 
L -304.288736 14.446019 
L -302.979096 9.178156 
L -307.86384 7.40277 
L -302.721761 5.311443 
L -308.916144 6.359201 
L -308.145681 1.473851 
L -292.933942 -8.704243 
L -291.045297 -3.690043 
L -284.538429 -10.088788 
L -284.765122 -6.706462 
L -272.549481 -4.297046 
L -268.936093 1.779473 
L -260.399679 1.86883 
L -260.410407 5.966317 
L -256.622389 1.532094 
L -223.691432 1.342907 
L -215.524156 -3.42187 
L -208.946856 1.779473 
L -198.270597 2.080905 
L -199.025739 4.569306 
L -163.931937 10.849573 
L -139.276973 5.055736 
L -137.109535 5.966317 
L -138.691832 8.710425 
L -129.967008 3.97058 
L -124.399137 6.596209 
L -125.512726 9.37562 
L -108.46286 14.053084 
L -106.148384 8.440157 
L -99.445466 7.330018 
L -96.52443 11.670695 
L -75.322037 15.763993 
L -62.759354 10.726803 
L -61.000657 15.581039 
L -48.056525 18.016562 
L -50.075758 28.145558 
L -43.634843 24.870419 
L -38.510871 30.156061 
L -23.819863 33.181675 
L -16.643569 42.064479 
L -7.374148 38.495009 
L 3.311485 46.534261 
L 11.145271 44.423468 
L 15.143834 47.375155 
L 29.499319 46.389063 
L 29.483735 38.703559 
L 35.378057 39.050768 
L 55.317526 45.333027 
L 59.282095 59.332466 
L 69.035884 55.851433 
L 80.412099 63.806234 
L 90.508299 59.64003 
L 99.445059 64.900535 
L 115.21382 57.514727 
L 124.522015 59.494014 
L 124.762109 63.68188 
L 129.669815 65.037304 
L 122.182656 70.384152 
L 126.450073 84.29592 
L 115.187055 96.228913 
L 90.129373 109.707998 
L 84.979615 117.115008 
L 43.077228 129.983156 
L 31.662654 142.069726 
L 37.078932 148.657658 
L 30.265717 154.844328 
L 27.079704 153.979523 
L 32.358092 151.341479 
L 25.989077 153.574173 
L -7.395304 208.435478 
L -1.171821 234.699843 
L 13.606446 247.977581 
L -14.415261 268.612415 
L -14.196247 275.312592 
L -18.701086 277.601435 
L -23.860029 296.315378 
L -27.450416 299.055347 
L -21.77379 305.337658 
L -45.053802 308.277543 
L -58.122083 318.428304 
L -63.461756 326.411152 
L -66.759572 339.994461 
L -75.280666 350.457383 
L -84.126515 345.328844 
L -91.621316 346.247702 
L -97.549179 353.234751 
L -105.642936 349.677849 
L -160.97721 351.097697 
L -170.616448 362.144785 
L -190.466362 367.071723 
L -196.196517 380.870173 
L -199.459212 378.896301 
L -199.955512 384.870947 
L -206.473071 387.750188 
L -222.472138 378.397354 
L -232.757801 360.791456 
L -229.80153 363.930542 
L -227.839366 361.843353 
L -235.945358 355.540248 
L -237.40053 349.700686 
L -234.098084 347.463853 
L -233.819329 342.929851 
L -229.492133 341.979777 
L -228.421458 340.458054 
L -234.064392 342.03383 
L -235.694158 346.79028 
L -239.894192 339.050672 
L -254.700053 328.479643 
L -253.186682 321.906271 
L -257.322382 325.043263 
L -256.038792 328.184443 
L -274.332421 327.13878 
L -278.094013 306.264077 
L -268.997717 287.074075 
L -259.6349 284.746761 
L -256.755838 275.853382 
L -262.62874 277.03091 
L -272.254162 263.094823 
L -268.912114 248.220157 
L -260.842939 242.2098 
L -257.726567 234.096569 
L -268.447171 224.01381 
L -270.534502 211.438715 
L -279.710566 200.078138 
L -259.527916 199.352094 
L -254.203601 183.24973 
L -260.354656 174.452708 
L -250.993797 165.510487 
L -253.353483 161.13047 
L -251.812783 139.943197 
L -256.567127 131.811471 
L -251.367302 129.337631 
L -245.430217 118.956556 
L -233.176668 111.630114 
L -228.84055 103.493126 
L -241.47344 98.965254 
L -240.821744 88.312175 
L -244.031511 83.463507 
L -264.204449 82.17777 
L -266.9629 87.718148 
L -275.397788 91.45264 
L -285.912215 86.68587 
L -292.483492 88.796663 
L -292.84145 85.940004 
L -303.136072 91.209757 
L -305.042448 86.408655 
L -299.95548 79.447866 
L -304.056171 77.985204 
L -304.746791 73.689639 
L -319.974717 78.931701 
L -329.550299 86.990113 
L -330.086389 75.4545 
L -327.490072 74.870334 
L -319.817591 63.785798 
L -329.032541 68.43833 
L -321.042983 58.989855 
L -328.131905 60.912841 
L -331.860144 57.561679 
L -327.490072 57.942148 
L -323.892006 46.366992 
L -335.012504 53.790607 
L -335.154949 45.381614 
L -329.792313 39.076415 
L -337.794143 42.837065 
L -339.08387 34.660891 
L -344.299467 35.897837 
z
" clip-path="url(#pea2210405d)" style="fill: #eeeeee; stroke: #000000; stroke-width: 0.3"/>
    <path d="M 93.269423 205.356678 
L 110.679242 190.228758 
L 124.464946 185.314287 
L 121.35855 188.13738 
L 125.494288 189.185138 
L 122.847414 194.511193 
L 135.567036 196.506931 
L 134.79503 201.105358 
L 127.21903 215.079507 
L 119.998392 221.06248 
L 116.159817 216.251977 
L 109.677494 215.603387 
L 105.725573 206.267209 
L 98.612145 210.784556 
z
" clip-path="url(#pea2210405d)" style="fill: #eeeeee; stroke: #000000; stroke-width: 0.3"/>
    <path d="M -517.245678 752.614199 
L -514.655496 743.255133 
L -504.82017 738.648378 
L -502.778351 733.453267 
L -500.324479 735.037371 
L -502.743116 745.739395 
L -513.757909 753.907242 
z
" clip-path="url(#pea2210405d)" style="fill: #eeeeee; stroke: #000000; stroke-width: 0.3"/>
    <path d="M -632.013636 778.666386 
L -616.620075 775.132781 
L -609.439867 767.573726 
L -601.961893 767.573726 
L -610.912431 777.328844 
L -618.074307 795.576078 
L -623.604873 796.809703 
z
" clip-path="url(#pea2210405d)" style="fill: #eeeeee; stroke: #000000; stroke-width: 0.3"/>
    <path d="M -541.329279 793.164568 
L -530.689799 785.63494 
L -521.211377 759.204226 
L -515.62969 761.969127 
L -519.745476 784.325242 
L -535.15944 794.212326 
z
" clip-path="url(#pea2210405d)" style="fill: #eeeeee; stroke: #000000; stroke-width: 0.3"/>
    <path d="M 147.943531 182.792626 
L 159.309054 179.661868 
L 168.043063 190.505208 
L 164.694691 193.095482 
L 148.978971 186.985704 
z
" clip-path="url(#pea2210405d)" style="fill: #eeeeee; stroke: #000000; stroke-width: 0.3"/>
    <path d="M 50.576659 240.680772 
L 55.85196 230.843552 
L 65.232394 230.145046 
L 65.875695 233.317392 
L 57.595788 243.378285 
z
" clip-path="url(#pea2210405d)" style="fill: #eeeeee; stroke: #000000; stroke-width: 0.3"/>
    <path d="M -590.798518 800.798164 
L -586.469817 788.250147 
L -575.292665 787.618161 
L -574.108643 804.348884 
L -581.641766 810.373444 
z
" clip-path="url(#pea2210405d)" style="fill: #eeeeee; stroke: #000000; stroke-width: 0.3"/>
    <path d="M -648.093827 791.812414 
L -646.830941 786.22023 
L -643.181265 786.305449 
L -638.8785 791.65383 
L -644.881538 795.546599 
z
" clip-path="url(#pea2210405d)" style="fill: #eeeeee; stroke: #000000; stroke-width: 0.3"/>
    <path d="M -672.697859 756.946549 
L -669.472846 753.088112 
L -663.623773 754.984122 
L -662.316655 759.473114 
L -666.684205 773.535905 
z
" clip-path="url(#pea2210405d)" style="fill: #eeeeee; stroke: #000000; stroke-width: 0.3"/>
    <path d="M -23.625657 297.425518 
L -23.084936 301.100949 
L -22.570303 303.005184 
L -23.339222 302.055161 
z
" clip-path="url(#pea2210405d)" style="fill: #eeeeee; stroke: #000000; stroke-width: 0.3"/>
    <path d="M -678.855464 810.986731 
L -670.331284 804.36135 
L -668.272638 806.278051 
L -672.045335 815.065418 
z
" clip-path="url(#pea2210405d)" style="fill: #eeeeee; stroke: #000000; stroke-width: 0.3"/>
    <path d="M 114.457624 227.045504 
L 116.978578 225.329025 
L 116.284871 228.879694 
z
" clip-path="url(#pea2210405d)" style="fill: #eeeeee; stroke: #000000; stroke-width: 0.3"/>
    <path d="M 78.089417 58.484982 
L 78.43179 56.924635 
L 80.046386 58.859882 
z
" clip-path="url(#pea2210405d)" style="fill: #eeeeee; stroke: #000000; stroke-width: 0.3"/>
    <path d="M 56.83707 253.096516 
L 58.658144 247.333129 
L 64.307214 252.534472 
z
" clip-path="url(#pea2210405d)" style="fill: #eeeeee; stroke: #000000; stroke-width: 0.3"/>
    <path d="M -86.751442 430.037062 
L -86.675401 429.665534 
L -86.566534 429.866012 
z
" clip-path="url(#pea2210405d)" style="fill: #eeeeee; stroke: #000000; stroke-width: 0.3"/>
    <path d="M -106.791459 424.547263 
L -105.220155 424.456732 
L -104.877066 425.022198 
z
" clip-path="url(#pea2210405d)" style="fill: #eeeeee; stroke: #000000; stroke-width: 0.3"/>
    <path d="M -142.084361 428.06738 
L -142.033353 428.03969 
L -142.028271 428.069118 
z
" clip-path="url(#pea2210405d)" style="fill: #eeeeee; stroke: #000000; stroke-width: 0.3"/>
    <path d="M -142.130475 428.196741 
L -142.122796 428.139622 
L -142.108792 428.162153 
z
" clip-path="url(#pea2210405d)" style="fill: #eeeeee; stroke: #000000; stroke-width: 0.3"/>
    <path d="M -157.163744 430.348815 
L -157.043885 430.351471 
L -156.976088 430.370017 
z
" clip-path="url(#pea2210405d)" style="fill: #eeeeee; stroke: #000000; stroke-width: 0.3"/>
    <path d="M -198.458404 391.937134 
L -194.099625 392.591856 
L -197.68828 394.124665 
z
" clip-path="url(#pea2210405d)" style="fill: #eeeeee; stroke: #000000; stroke-width: 0.3"/>
    <path d="M -199.28586 392.460043 
L -199.102533 392.497748 
L -199.174735 392.633494 
z
" clip-path="url(#pea2210405d)" style="fill: #eeeeee; stroke: #000000; stroke-width: 0.3"/>
    <path d="M -504.971801 733.991707 
L -503.726495 730.92333 
L -503.118391 733.313995 
z
" clip-path="url(#pea2210405d)" style="fill: #eeeeee; stroke: #000000; stroke-width: 0.3"/>
    <path d="M 57.721933 54.499637 
L 62.865367 48.362576 
L 69.600057 50.380998 
L 69.035884 55.851433 
L 61.562014 59.637424 
z
" clip-path="url(#pea2210405d)" style="fill: #eeeeee; stroke: #000000; stroke-width: 0.3"/>
   </g>
   <g id="PatchCollection_2">
    <defs>
     <path id="m18e90193b0" d="M 57.721933 -53.500363 
L 62.865367 -59.637424 
L 69.600057 -57.619002 
L 69.035884 -52.148567 
L 61.562014 -48.362576 
z
" style="stroke: #dd0000; stroke-width: 0.5"/>
    </defs>
    <g clip-path="url(#pea2210405d)">
     <use xlink:href="#m18e90193b0" x="0" y="108" style="fill: #ff6b6b; stroke: #dd0000; stroke-width: 0.5"/>
    </g>
   </g>
  </g>
 </g>
 <defs>
  <clipPath id="pea2210405d">
   <rect x="0" y="0" width="127.321991" height="108"/>
  </clipPath>
 </defs>
</svg>
