<?xml version="1.0" encoding="utf-8" standalone="no"?>
<!DOCTYPE svg PUBLIC "-//W3C//DTD SVG 1.1//EN"
  "http://www.w3.org/Graphics/SVG/1.1/DTD/svg11.dtd">
<svg xmlns:xlink="http://www.w3.org/1999/xlink" width="155.406287pt" height="108pt" viewBox="0 0 155.406287 108" xmlns="http://www.w3.org/2000/svg" version="1.1">
 <metadata>
  <rdf:RDF xmlns:dc="http://purl.org/dc/elements/1.1/" xmlns:cc="http://creativecommons.org/ns#" xmlns:rdf="http://www.w3.org/1999/02/22-rdf-syntax-ns#">
   <cc:Work>
    <dc:type rdf:resource="http://purl.org/dc/dcmitype/StillImage"/>
    <dc:date>2025-09-05T13:56:20.276822</dc:date>
    <dc:format>image/svg+xml</dc:format>
    <dc:creator>
     <cc:Agent>
      <dc:title>Matplotlib v3.10.3, https://matplotlib.org/</dc:title>
     </cc:Agent>
    </dc:creator>
   </cc:Work>
  </rdf:RDF>
 </metadata>
 <defs>
  <style type="text/css">*{stroke-linejoin: round; stroke-linecap: butt}</style>
 </defs>
 <g id="figure_1">
  <g id="patch_1">
   <path d="M 0 108 
L 155.406287 108 
L 155.406287 0 
L 0 0 
z
" style="fill: #ffffff"/>
  </g>
  <g id="axes_1">
   <g id="PatchCollection_1">
    <path d="M 96.080966 92.254768 
L 96.367752 86.325791 
L 97.134209 89.635899 
L 99.865858 88.899566 
L 100.429973 94.373518 
L 102.677242 95.126063 
L 110.444525 94.230339 
L 115.326869 89.998956 
L 116.853661 91.438383 
L 125.96992 90.820513 
L 133.962544 93.401954 
L 139.412073 93.029535 
L 149.740875 88.268898 
L 150.839965 85.026107 
L 152.512382 85.026107 
L 149.553847 83.180141 
L 152.651885 83.738361 
L 153.810763 78.70672 
L 162.079323 73.090427 
L 165.848769 67.982924 
L 166.724063 69.222958 
L 166.2504 67.51506 
L 170.908928 61.324358 
L 172.326883 62.209839 
L 178.607233 56.191282 
L 178.182621 57.175622 
L 178.467749 57.271088 
L 180.823723 51.219585 
L 182.82186 52.193746 
L 182.099594 59.392456 
L 186.334678 62.432272 
L 186.586069 73.899208 
L 181.233266 79.087432 
L 178.702414 76.503856 
L 179.917217 76.350708 
L 178.959381 74.03447 
L 175.581678 75.828471 
L 174.764024 89.563493 
L 178.106691 89.764814 
L 179.325393 92.685539 
L 169.133872 95.159239 
L 170.669893 99.203984 
L 164.784695 112.792896 
L 162.797012 123.219716 
L 114.539598 116.618999 
z
M 183.290889 68.094225 
L 183.509072 68.934444 
L 185.852652 67.860607 
L 184.275096 66.508686 
z
" clip-path="url(#pbf790bdeb6)" style="fill: #eeeeee; stroke: #000000; stroke-width: 0.3"/>
    <path d="M 126.333219 88.376282 
L 129.76389 87.701296 
L 130.706638 85.741139 
L 131.152705 87.240239 
L 128.936008 88.885721 
z
" clip-path="url(#pbf790bdeb6)" style="fill: #eeeeee; stroke: #000000; stroke-width: 0.3"/>
    <path d="M 143.813069 88.697574 
L 143.863664 87.716648 
L 145.240215 88.575697 
L 145.286214 89.628233 
z
" clip-path="url(#pbf790bdeb6)" style="fill: #eeeeee; stroke: #000000; stroke-width: 0.3"/>
    <path d="M 135.231804 91.070217 
L 138.832625 88.626844 
L 141.030825 90.772801 
L 137.448407 91.662534 
z
" clip-path="url(#pbf790bdeb6)" style="fill: #eeeeee; stroke: #000000; stroke-width: 0.3"/>
    <path d="M 184.358918 67.553829 
L 184.796923 67.747547 
L 184.696166 68.092088 
z
" clip-path="url(#pbf790bdeb6)" style="fill: #eeeeee; stroke: #000000; stroke-width: 0.3"/>
    <path d="M 147.999479 84.565888 
L 149.156831 83.440086 
L 150.556382 85.485467 
z
" clip-path="url(#pbf790bdeb6)" style="fill: #eeeeee; stroke: #000000; stroke-width: 0.3"/>
    <path d="M 146.94942 86.754467 
L 148.024004 87.050186 
L 147.512009 87.81379 
z
" clip-path="url(#pbf790bdeb6)" style="fill: #eeeeee; stroke: #000000; stroke-width: 0.3"/>
    <path d="M 145.169711 87.328018 
L 146.071055 86.898483 
L 145.877925 88.429126 
z
" clip-path="url(#pbf790bdeb6)" style="fill: #eeeeee; stroke: #000000; stroke-width: 0.3"/>
    <path d="M 114.494917 87.958811 
L 116.279694 87.58279 
L 115.173973 89.080989 
z
" clip-path="url(#pbf790bdeb6)" style="fill: #eeeeee; stroke: #000000; stroke-width: 0.3"/>
    <path d="M 109.354627 83.977843 
L 110.409923 83.882837 
L 109.938822 84.425327 
z
" clip-path="url(#pbf790bdeb6)" style="fill: #eeeeee; stroke: #000000; stroke-width: 0.3"/>
    <path d="M -46.392096 -227.618618 
L -39.364125 -228.465016 
L -38.016939 -234.412529 
L -36.015619 -235.82498 
L -31.471146 -233.186109 
L -24.95873 -224.25575 
L -21.975256 -223.983531 
L -19.573867 -219.872223 
L -6.624702 -216.907138 
L 1.431176 -217.475914 
L 11.762878 -226.242946 
L 28.135519 -234.540229 
L 35.058344 -227.720347 
L 30.67415 -225.42143 
L 34.205653 -219.879805 
L 29.776667 -218.702208 
L 28.544346 -216.64359 
L 34.519093 -211.408785 
L 36.496077 -211.784911 
L 40.123947 -207.132433 
L 45.142233 -207.930218 
L 46.465139 -196.815259 
L 50.006192 -190.950101 
L 55.831264 -188.258721 
L 70.032227 -186.048862 
L 72.417435 -181.104142 
L 85.272493 -173.027427 
L 102.306276 -169.153968 
L 141.815685 -176.901724 
L 134.33044 -175.315704 
L 141.962854 -174.147259 
L 142.070147 -178.474968 
L 140.068167 -185.073046 
L 145.58142 -184.692605 
L 154.011089 -187.086779 
L 156.541922 -188.882393 
L 157.264188 -193.294049 
L 162.983908 -197.839918 
L 173.878238 -201.323993 
L 185.012017 -200.519275 
L 185.080148 -202.596847 
L 187.587624 -204.181402 
L 198.925817 -202.761368 
L 201.497563 -204.652219 
L 204.840212 -198.158676 
L 219.990251 -194.402382 
L 220.934468 -192.109958 
L 223.778741 -191.158564 
L 232.128599 -192.443315 
L 241.757494 -189.001988 
L 244.57257 -182.242175 
L 255.073631 -178.434461 
L 261.159343 -170.294117 
L 276.671496 -170.276795 
L 276.311342 -164.4321 
L 277.781172 -159.539888 
L 275.994003 -156.331802 
L 278.088772 -154.72668 
L 279.011553 -147.483588 
L 277.072543 -142.295888 
L 275.589075 -141.826139 
L 276.32302 -138.1429 
L 274.781141 -132.123965 
L 272.559847 -128.422316 
L 267.891411 -125.87556 
L 271.485207 -121.739349 
L 266.836229 -121.482294 
L 263.993896 -117.971682 
L 264.35211 -107.485882 
L 272.057572 -104.882826 
L 265.403393 -97.283652 
L 265.315785 -95.335435 
L 270.352173 -78.383111 
L 269.308688 -73.739848 
L 270.190575 -62.586225 
L 286.487285 -60.041626 
L 289.115485 -52.538777 
L 288.659924 -49.022216 
L 270.616939 -28.310373 
L 279.903197 -18.177408 
L 284.219259 -7.633695 
L 290.365323 -0.7559 
L 299.218418 1.835238 
L 303.227878 5.811808 
L 306.729205 5.447055 
L 307.730836 21.186573 
L 306.368072 25.96516 
L 309.194827 27.082143 
L 314.557312 26.140488 
L 317.241945 29.0964 
L 315.57938 30.174405 
L 316.210139 33.856576 
L 314.65464 35.108841 
L 314.306165 38.986908 
L 300.267761 40.72084 
L 297.88487 42.000167 
L 297.378695 44.937668 
L 294.717401 44.664904 
L 289.238129 47.777755 
L 287.7605 56.268798 
L 285.986969 57.332729 
L 285.227708 67.463536 
L 281.303596 72.198683 
L 266.644228 67.683791 
L 265.065335 64.082216 
L 262.157376 65.528472 
L 263.513076 67.363211 
L 260.163063 65.542966 
L 252.899843 66.534071 
L 244.42523 63.774726 
L 236.703286 65.073363 
L 232.582804 61.70616 
L 224.930479 60.624657 
L 218.415577 61.637985 
L 216.346144 58.924425 
L 212.739182 60.131219 
L 212.435669 57.886403 
L 204.070534 57.019667 
L 201.343481 50.759931 
L 202.212634 49.016239 
L 199.715518 43.798797 
L 198.6716 34.674678 
L 196.799912 32.492926 
L 197.699731 31.490699 
L 195.668611 31.304898 
L 194.601712 28.630568 
L 181.696078 28.189094 
L 178.222479 30.994685 
L 173.071866 31.649209 
L 170.357076 36.065535 
L 165.631094 35.8985 
L 156.593007 42.113059 
L 149.028064 39.823944 
L 147.496676 37.52287 
L 136.344701 37.657524 
L 132.115381 34.604806 
L 131.221684 32.063412 
L 123.396139 29.373729 
L 115.346798 24.161398 
L 116.642108 22.156923 
L 112.677987 18.303068 
L 104.23161 14.112589 
L 98.057046 14.157159 
L 92.715639 12.038975 
L 86.704236 -0.574142 
L 86.291886 -4.804667 
L 81.507644 -8.944878 
L 81.854084 -10.265843 
L 83.285827 -9.277251 
L 83.863731 -11.480303 
L 82.176 -13.281091 
L 78.473989 -13.340741 
L 78.690138 -19.742797 
L 69.075672 -29.983376 
L 67.729786 -35.380629 
L 64.737515 -35.551936 
L 57.535873 -31.761146 
L 56.548671 -34.549688 
L 52.127746 -34.558212 
L 51.677064 -36.821774 
L 50.550378 -35.967836 
L 46.025194 -39.255784 
L 51.332149 -38.540752 
L 52.480309 -40.698626 
L 51.488511 -41.885817 
L 47.161091 -42.080121 
L 48.212676 -40.339843 
L 46.282726 -40.049234 
L 44.916892 -38.519451 
L 45.914831 -32.164269 
L 37.419818 -31.053046 
L 36.152461 -35.909547 
L 28.929816 -40.996586 
L 28.9045 -51.996517 
L 22.513146 -52.114478 
L 22.626052 -60.767864 
L 25.555993 -69.100879 
L 19.092609 -76.283358 
L 17.576045 -81.449422 
L 14.83494 -83.321883 
L 11.543866 -83.109733 
L 0.029477 -91.848637 
L -7.171752 -93.15827 
L -6.730789 -95.406856 
L -8.428409 -96.328488 
L -5.849863 -97.640823 
L -6.073754 -99.565248 
L -9.480653 -104.394688 
L -11.775936 -104.469377 
L -10.35672 -105.652923 
L -11.147118 -107.329487 
L -13.999189 -106.328307 
L -18.685161 -113.774878 
L -20.670904 -114.505996 
L -17.578404 -117.981442 
L -17.333097 -121.593783 
L -19.979775 -124.366763 
L -18.352245 -125.410147 
L -18.404818 -127.452532 
L -14.621207 -126.606134 
L -16.018027 -130.157337 
L -15.276303 -131.960513 
L -11.820729 -134.052705 
L -10.634144 -137.833358 
L -6.153564 -138.342064 
L -6.735668 -142.675784 
L -9.677287 -146.354687 
L -8.927765 -150.12669 
L -2.838153 -152.833631 
L -7.860922 -153.959286 
L -13.726643 -152.990591 
L -17.664054 -156.823187 
L -21.801998 -156.824255 
L -23.336079 -165.389987 
L -26.474333 -165.817512 
L -27.997697 -168.128325 
L -27.171283 -171.39269 
L -31.162227 -173.900509 
L -29.957163 -178.227736 
L -32.493854 -180.057993 
L -31.573013 -184.024259 
L -35.894915 -186.916833 
L -35.443253 -192.898444 
L -42.865452 -196.685045 
L -38.030558 -205.925073 
L -41.218446 -206.845071 
L -41.49199 -216.507198 
L -43.80965 -219.042602 
L -43.156495 -222.823255 
L -45.208429 -223.973792 
z
" clip-path="url(#pbf790bdeb6)" style="fill: #eeeeee; stroke: #000000; stroke-width: 0.3"/>
    <path d="M 165.891697 38.669993 
L 175.112197 35.806469 
L 174.80714 32.515944 
L 177.439163 33.505395 
L 183.366951 31.490699 
L 184.780309 32.492926 
L 178.368104 37.914914 
L 177.042128 36.93824 
L 166.00206 41.010255 
z
" clip-path="url(#pbf790bdeb6)" style="fill: #eeeeee; stroke: #000000; stroke-width: 0.3"/>
    <path d="M 139.862755 41.267645 
L 142.047148 40.861966 
L 142.387467 42.268176 
L 140.853008 42.181255 
z
" clip-path="url(#pbf790bdeb6)" style="fill: #eeeeee; stroke: #000000; stroke-width: 0.3"/>
    <path d="M 187.551816 30.404944 
L 187.594745 29.877388 
L 188.873196 30.261766 
z
" clip-path="url(#pbf790bdeb6)" style="fill: #eeeeee; stroke: #000000; stroke-width: 0.3"/>
    <path d="M 185.792017 34.080664 
L 186.978509 33.793469 
L 186.507898 34.932068 
z
" clip-path="url(#pbf790bdeb6)" style="fill: #eeeeee; stroke: #000000; stroke-width: 0.3"/>
    <path d="M 176.600657 39.490713 
L 176.885766 38.539612 
L 177.287398 39.433618 
z
" clip-path="url(#pbf790bdeb6)" style="fill: #eeeeee; stroke: #000000; stroke-width: 0.3"/>
    <path d="M 160.756417 54.97768 
L 161.55354 55.333929 
L 160.875991 55.438758 
z
" clip-path="url(#pbf790bdeb6)" style="fill: #eeeeee; stroke: #000000; stroke-width: 0.3"/>
    <path d="M 151.295243 54.304411 
L 152.113821 54.595878 
L 151.368819 54.537086 
z
" clip-path="url(#pbf790bdeb6)" style="fill: #eeeeee; stroke: #000000; stroke-width: 0.3"/>
    <path d="M 150.88749 46.255826 
L 152.003458 46.415194 
L 151.506796 47.241862 
z
" clip-path="url(#pbf790bdeb6)" style="fill: #eeeeee; stroke: #000000; stroke-width: 0.3"/>
    <path d="M 134.181763 38.264335 
L 134.331984 38.035933 
L 135.029462 38.733917 
z
" clip-path="url(#pbf790bdeb6)" style="fill: #eeeeee; stroke: #000000; stroke-width: 0.3"/>
    <path d="M 125.671003 34.73946 
L 130.05207 35.676926 
L 127.053696 35.751908 
z
" clip-path="url(#pbf790bdeb6)" style="fill: #eeeeee; stroke: #000000; stroke-width: 0.3"/>
    <path d="M 71.682643 -15.968889 
L 72.650537 -15.753618 
L 72.495626 -14.712015 
z
" clip-path="url(#pbf790bdeb6)" style="fill: #eeeeee; stroke: #000000; stroke-width: 0.3"/>
    <path d="M 80.492846 63.081685 
L 82.304766 63.654378 
L 81.133607 60.780611 
L 82.493301 59.811623 
L 83.27509 62.295901 
L 84.760498 59.909624 
L 83.065082 59.181815 
L 84.886194 52.888839 
L 89.915688 49.144923 
L 92.500187 53.188831 
L 96.061169 54.993891 
L 96.298772 58.532402 
L 94.698405 59.050554 
L 95.533841 60.223251 
L 94.072958 62.522607 
L 94.955919 67.221017 
L 96.628336 68.099691 
L 96.692719 72.974519 
L 91.598842 82.451473 
L 90.421561 80.501538 
L 84.785608 82.49684 
L 81.56436 78.749342 
L 82.539299 77.724076 
z
" clip-path="url(#pbf790bdeb6)" style="fill: #eeeeee; stroke: #000000; stroke-width: 0.3"/>
    <path d="M -224.248094 8.246593 
L -219.896676 -0.431948 
L -217.153895 -17.702004 
L -196.055668 -14.525565 
L -188.377462 -20.69549 
L -183.636995 -28.212959 
L -169.670622 -31.166692 
L -166.329895 -38.210621 
L -160.041728 -41.728249 
L -179.289778 -62.509378 
L -141.543182 -73.051457 
L -137.883176 -75.71188 
L -115.043252 -71.881442 
L -82.924868 -53.898196 
L -33.640507 -14.563433 
L 18.002391 -10.225377 
L 22.422618 -0.565408 
L 37.991185 0.133225 
L 37.503716 2.500757 
L 38.760694 2.071222 
L 40.957368 9.643419 
L 43.592461 10.461584 
L 42.681905 11.418654 
L 45.300121 14.237859 
L 45.14683 15.427605 
L 44.481543 16.293482 
L 43.97876 14.198672 
L 43.344121 16.482676 
L 45.252615 17.152552 
L 44.342059 18.724937 
L 52.026575 20.136257 
L 53.401602 22.156923 
L 49.767044 22.313736 
L 52.480309 22.884732 
L 51.718448 24.614789 
L 53.401602 24.328432 
L 53.587085 27.244821 
L 55.277886 27.280616 
L 54.571216 28.431132 
L 58.286996 27.486859 
L 60.686031 32.428165 
L 69.331679 38.572852 
L 66.129419 37.325152 
L 66.923471 42.138632 
L 70.426173 45.713796 
L 69.009763 51.74513 
L 66.957189 48.286712 
L 66.15854 52.461022 
L 68.255569 52.718391 
L 71.197245 60.207919 
L 69.072621 58.083263 
L 69.147722 58.78466 
L 75.228819 64.285904 
L 76.936479 72.294443 
L 84.785608 82.49684 
L 90.246796 81.307764 
L 90.879891 83.555995 
L 92.628953 81.164586 
L 94.569639 82.165117 
L 90.435349 87.941637 
L 95.907878 89.022281 
L 96.36325 92.747221 
L 114.539598 116.618999 
L 162.51277 123.271659 
L 164.04881 121.540973 
L 172.538831 136.717685 
L 160.122099 178.262622 
L 103.617051 199.202826 
L 48.185664 207.914125 
L 31.724454 216.937143 
L 20.932331 231.297764 
L 17.891425 239.077691 
L 12.876454 242.101778 
L 9.278759 241.904793 
L 4.376694 235.233178 
L -2.921881 236.307958 
L -19.728646 234.465804 
L -24.72026 232.028338 
L -43.865143 232.521901 
L -48.270753 234.679022 
L -57.731249 230.110427 
L -62.399704 234.174651 
L -60.758537 235.304621 
L -63.277711 239.194584 
L -63.386736 242.885405 
L -61.524598 245.255743 
L -62.118381 248.025477 
L -63.908469 247.858799 
L -64.825411 250.712961 
L -69.474012 254.176091 
L -70.925684 246.643102 
L -77.626069 237.179804 
L -77.508039 240.481388 
L -78.665391 231.500447 
L -88.345765 223.542175 
L -93.888799 215.365764 
L -94.972556 210.213083 
L -99.221805 205.437973 
L -98.49061 202.584649 
L -100.610638 200.441247 
L -99.856444 197.700438 
L -101.88909 196.48514 
L -104.223722 188.520062 
L -107.694252 186.362187 
L -107.987027 182.837311 
L -109.650252 183.203761 
L -111.949622 178.966407 
L -120.438928 172.318062 
L -123.843529 171.710413 
L -123.135334 172.738214 
L -126.536865 170.818963 
L -137.570811 154.941649 
L -139.333661 150.624182 
L -137.632123 148.757774 
L -138.800212 141.559713 
L -142.149453 136.15002 
L -140.747284 136.235223 
L -138.165592 127.831771 
L -139.531143 128.615041 
L -140.609061 120.216972 
L -144.629899 115.360031 
L -144.652898 112.199049 
L -151.16473 98.911721 
L -160.909337 91.476252 
L -160.671451 90.051171 
L -162.221995 91.248352 
L -170.439057 86.694565 
L -169.925461 85.145869 
L -175.728193 76.563318 
L -173.694021 76.139752 
L -173.965342 69.771794 
L -179.727575 59.909624 
L -184.134712 57.106588 
L -184.252741 52.031487 
L -187.706412 50.173583 
L -196.761358 33.505395 
L -213.119118 10.412992 
L -212.125795 9.469557 
L -215.222288 8.104273 
L -219.87622 9.11758 
L -221.677403 7.674738 
L -222.847017 8.53295 
L -222.448456 9.11758 
L -223.489304 9.975791 
z
" clip-path="url(#pbf790bdeb6)" style="fill: #eeeeee; stroke: #000000; stroke-width: 0.3"/>
    <path d="M -88.920712 243.171426 
L -86.131818 246.287817 
L -83.685957 246.954027 
L -83.173698 244.892603 
L -80.833208 247.168606 
L -80.98162 249.724829 
L -82.72976 247.420006 
L -85.184079 247.910323 
z
" clip-path="url(#pbf790bdeb6)" style="fill: #eeeeee; stroke: #000000; stroke-width: 0.3"/>
    <path d="M -87.453594 243.26993 
L -85.692288 241.945551 
L -87.24206 241.054101 
L -86.966143 240.715759 
L -85.509856 241.56886 
L -84.310292 246.007031 
z
" clip-path="url(#pbf790bdeb6)" style="fill: #eeeeee; stroke: #000000; stroke-width: 0.3"/>
    <path d="M -188.106499 59.931783 
L -187.123912 58.721596 
L -187.361516 59.942004 
L -184.787735 61.928593 
L -187.203609 61.102762 
z
" clip-path="url(#pbf790bdeb6)" style="fill: #eeeeee; stroke: #000000; stroke-width: 0.3"/>
    <path d="M -179.534426 64.187882 
L -179.434781 63.650984 
L -178.541103 63.610917 
L -178.021441 64.65407 
z
" clip-path="url(#pbf790bdeb6)" style="fill: #eeeeee; stroke: #000000; stroke-width: 0.3"/>
    <path d="M -184.528677 61.851035 
L -183.696292 61.605583 
L -180.803685 64.157219 
L -183.815866 61.805019 
z
" clip-path="url(#pbf790bdeb6)" style="fill: #eeeeee; stroke: #000000; stroke-width: 0.3"/>
    <path d="M -187.145367 56.64639 
L -186.844906 55.925388 
L -186.234811 55.419153 
L -185.853108 58.583528 
z
" clip-path="url(#pbf790bdeb6)" style="fill: #eeeeee; stroke: #000000; stroke-width: 0.3"/>
    <path d="M 56.10413 25.472141 
L 58.532266 24.342067 
L 60.485215 24.899449 
z
" clip-path="url(#pbf790bdeb6)" style="fill: #eeeeee; stroke: #000000; stroke-width: 0.3"/>
    <path d="M -180.444982 60.971523 
L -180.139925 60.737151 
L -179.974371 62.563512 
z
" clip-path="url(#pbf790bdeb6)" style="fill: #eeeeee; stroke: #000000; stroke-width: 0.3"/>
    <path d="M -181.786291 61.982274 
L -181.516496 61.504169 
L -181.041289 61.76581 
z
" clip-path="url(#pbf790bdeb6)" style="fill: #eeeeee; stroke: #000000; stroke-width: 0.3"/>
    <path d="M -182.736686 63.045891 
L -180.330023 65.188434 
L -180.415861 65.881307 
z
" clip-path="url(#pbf790bdeb6)" style="fill: #eeeeee; stroke: #000000; stroke-width: 0.3"/>
    <path d="M 74.802663 49.113401 
L 75.415828 47.417442 
L 77.522049 47.500949 
L 76.737208 48.429891 
L 78.508855 49.445522 
L 76.99474 56.906314 
z
" clip-path="url(#pbf790bdeb6)" style="fill: #eeeeee; stroke: #000000; stroke-width: 0.3"/>
    <path d="M 81.575888 59.53442 
L 81.790455 59.229569 
L 81.730856 59.428376 
z
" clip-path="url(#pbf790bdeb6)" style="fill: #eeeeee; stroke: #000000; stroke-width: 0.3"/>
    <path d="M 81.242106 60.236927 
L 81.730856 59.945314 
L 81.635487 60.210411 
z
" clip-path="url(#pbf790bdeb6)" style="fill: #eeeeee; stroke: #000000; stroke-width: 0.3"/>
    <path d="M 81.051386 57.837811 
L 81.230201 57.625746 
L 81.254029 57.758284 
z
" clip-path="url(#pbf790bdeb6)" style="fill: #eeeeee; stroke: #000000; stroke-width: 0.3"/>
    <path d="M 80.312318 59.322333 
L 81.432844 58.129425 
L 80.598406 61.297297 
z
" clip-path="url(#pbf790bdeb6)" style="fill: #eeeeee; stroke: #000000; stroke-width: 0.3"/>
    <path d="M 77.882052 47.444608 
L 78.690816 46.702703 
L 79.13564 48.141565 
z
" clip-path="url(#pbf790bdeb6)" style="fill: #eeeeee; stroke: #000000; stroke-width: 0.3"/>
    <path d="M 73.615832 49.917659 
L 74.242616 49.018375 
L 74.3235 49.985101 
z
" clip-path="url(#pbf790bdeb6)" style="fill: #eeeeee; stroke: #000000; stroke-width: 0.3"/>
   </g>
   <g id="PatchCollection_2">
    <path d="M 74.802663 49.113401 
L 75.415828 47.417442 
L 77.522049 47.500949 
L 76.737208 48.429891 
L 78.508855 49.445522 
L 76.99474 56.906314 
z
" clip-path="url(#pbf790bdeb6)" style="fill: #ff6b6b; stroke: #dd0000"/>
    <path d="M 81.575888 59.53442 
L 81.790455 59.229569 
L 81.730856 59.428376 
z
" clip-path="url(#pbf790bdeb6)" style="fill: #ff6b6b; stroke: #dd0000"/>
    <path d="M 81.242106 60.236927 
L 81.730856 59.945314 
L 81.635487 60.210411 
z
" clip-path="url(#pbf790bdeb6)" style="fill: #ff6b6b; stroke: #dd0000"/>
    <path d="M 81.051386 57.837811 
L 81.230201 57.625746 
L 81.254029 57.758284 
z
" clip-path="url(#pbf790bdeb6)" style="fill: #ff6b6b; stroke: #dd0000"/>
    <path d="M 80.312318 59.322333 
L 81.432844 58.129425 
L 80.598406 61.297297 
z
" clip-path="url(#pbf790bdeb6)" style="fill: #ff6b6b; stroke: #dd0000"/>
    <path d="M 77.882052 47.444608 
L 78.690816 46.702703 
L 79.13564 48.141565 
z
" clip-path="url(#pbf790bdeb6)" style="fill: #ff6b6b; stroke: #dd0000"/>
    <path d="M 73.615832 49.917659 
L 74.242616 49.018375 
L 74.3235 49.985101 
z
" clip-path="url(#pbf790bdeb6)" style="fill: #ff6b6b; stroke: #dd0000"/>
   </g>
  </g>
 </g>
 <defs>
  <clipPath id="pbf790bdeb6">
   <rect x="0" y="0" width="155.406287" height="108"/>
  </clipPath>
 </defs>
</svg>
