<?xml version="1.0" encoding="utf-8" standalone="no"?>
<!DOCTYPE svg PUBLIC "-//W3C//DTD SVG 1.1//EN"
  "http://www.w3.org/Graphics/SVG/1.1/DTD/svg11.dtd">
<svg xmlns:xlink="http://www.w3.org/1999/xlink" width="168.240963pt" height="108pt" viewBox="0 0 168.240963 108" xmlns="http://www.w3.org/2000/svg" version="1.1">
 <metadata>
  <rdf:RDF xmlns:dc="http://purl.org/dc/elements/1.1/" xmlns:cc="http://creativecommons.org/ns#" xmlns:rdf="http://www.w3.org/1999/02/22-rdf-syntax-ns#">
   <cc:Work>
    <dc:type rdf:resource="http://purl.org/dc/dcmitype/StillImage"/>
    <dc:date>2025-09-05T15:49:27.474410</dc:date>
    <dc:format>image/svg+xml</dc:format>
    <dc:creator>
     <cc:Agent>
      <dc:title>Matplotlib v3.10.3, https://matplotlib.org/</dc:title>
     </cc:Agent>
    </dc:creator>
   </cc:Work>
  </rdf:RDF>
 </metadata>
 <defs>
  <style type="text/css">*{stroke-linejoin: round; stroke-linecap: butt}</style>
 </defs>
 <g id="figure_1">
  <g id="patch_1">
   <path d="M 0 108 
L 168.240963 108 
L 168.240963 0 
L 0 0 
z
" style="fill: #ffffff"/>
  </g>
  <g id="axes_1">
   <g id="PatchCollection_1">
    <path d="M 2049.337469 -1241.639501 
L 2049.474721 -1248.08197 
L 2056.684547 -1252.114516 
L 2077.842525 -1255.917601 
L 2082.230024 -1252.114516 
L 2083.722247 -1255.932601 
L 2091.808116 -1254.074548 
L 2094.301935 -1259.939644 
L 2104.548739 -1261.056871 
L 2104.878718 -1258.177561 
L 2109.510076 -1261.020864 
L 2108.289451 -1256.917851 
L 2112.498864 -1259.183818 
L 2124.1897 -1247.669561 
L 2137.333287 -1254.654906 
L 2136.822244 -1252.114516 
L 2141.006826 -1250.353944 
L 2146.796016 -1252.868831 
L 2149.381839 -1247.837546 
L 2147.644321 -1252.616889 
L 2150.625824 -1254.654906 
L 2154.281852 -1255.155768 
L 2155.994503 -1251.609121 
L 2171.763313 -1252.616889 
L 2164.692174 -1256.445478 
L 2162.922577 -1260.212556 
L 2166.330368 -1267.005923 
L 2163.258369 -1266.833478 
L 2162.653923 -1273.721341 
L 2164.879052 -1274.075262 
L 2155.260089 -1279.907335 
L 2152.812989 -1285.331569 
L 2154.433672 -1288.606778 
L 2150.999579 -1292.451842 
L 2162.788232 -1289.722495 
L 2175.118571 -1291.397599 
L 2176.384445 -1288.765735 
L 2173.567967 -1286.33333 
L 2180.148516 -1278.496187 
L 2186.695515 -1280.222263 
L 2212.565122 -1276.087775 
L 2235.199211 -1282.425244 
L 2238.136901 -1283.956392 
L 2229.656788 -1282.867653 
L 2223.188623 -1285.481533 
L 2228.903356 -1292.643783 
L 2264.260558 -1301.845599 
L 2275.018405 -1310.531516 
L 2280.455728 -1309.715727 
L 2275.75429 -1312.861943 
L 2278.224714 -1316.281145 
L 2276.244844 -1317.537833 
L 2277.155944 -1334.63974 
L 2310.929673 -1342.701441 
L 2314.038919 -1338.042467 
L 2313.260119 -1333.778213 
L 2320.436251 -1329.27967 
L 2332.726509 -1331.332762 
L 2337.814692 -1322.040503 
L 2349.915848 -1320.181676 
L 2353.094096 -1313.610987 
L 2364.090061 -1315.300318 
L 2371.062236 -1312.1464 
L 2368.484773 -1307.343138 
L 2371.507254 -1304.836765 
L 2368.696159 -1301.698068 
L 2387.146384 -1302.048487 
L 2393.235913 -1308.565846 
L 2395.257084 -1307.771654 
L 2392.101083 -1301.082881 
L 2394.838008 -1299.425947 
L 2394.437484 -1295.034063 
L 2409.156866 -1291.244024 
L 2416.221761 -1284.15342 
L 2426.635456 -1286.014127 
L 2434.32708 -1282.029825 
L 2450.188755 -1282.919251 
L 2461.349745 -1271.619601 
L 2468.548125 -1273.381316 
L 2473.146759 -1269.730295 
L 2481.465148 -1269.635061 
L 2486.349373 -1271.990991 
L 2494.404419 -1267.15725 
L 2514.690409 -1264.237583 
L 2500.69421 -1251.576172 
L 2498.558034 -1241.49068 
L 2492.635432 -1233.690614 
L 2493.907478 -1227.856992 
L 2489.987496 -1218.122877 
L 2492.648422 -1213.600637 
L 2485.20342 -1207.925935 
L 2470.662017 -1210.079972 
L 2466.834756 -1205.107214 
L 2472.931677 -1204.198734 
L 2459.61413 -1192.839085 
L 2451.620264 -1189.996555 
L 2451.138143 -1183.239233 
L 2439.98641 -1176.702857 
L 2437.683379 -1170.656876 
L 2440.5835 -1168.85042 
L 2439.111192 -1164.525207 
L 2434.115695 -1162.567312 
L 2434.260338 -1160.00761 
L 2440.772638 -1160.735131 
L 2445.82745 -1164.047158 
L 2443.420575 -1166.825891 
L 2445.393519 -1169.020875 
L 2453.066593 -1171.731978 
L 2463.97913 -1170.463571 
L 2462.66259 -1167.933352 
L 2465.436618 -1165.130848 
L 2463.211453 -1160.786581 
L 2472.412489 -1152.44467 
L 2464.472375 -1148.803194 
L 2464.298057 -1144.811263 
L 2477.385703 -1133.488727 
L 2473.610364 -1126.21908 
L 2457.364851 -1122.156718 
L 2462.484575 -1114.946114 
L 2471.874713 -1111.786446 
L 2473.599205 -1106.729916 
L 2470.179896 -1106.667041 
L 2465.72587 -1101.170534 
L 2468.670521 -1097.569046 
L 2466.816205 -1095.203607 
L 2471.003191 -1090.39843 
L 2483.497443 -1086.105576 
L 2495.146153 -1087.977745 
L 2496.3774 -1083.970592 
L 2488.767372 -1076.532407 
L 2488.715019 -1072.814457 
L 2477.060712 -1068.7654 
L 2476.604785 -1065.052204 
L 2470.259663 -1064.539438 
L 2467.817515 -1060.394005 
L 2461.97285 -1059.664973 
L 2456.940142 -1054.543983 
L 2460.617485 -1054.694168 
L 2460.130447 -1052.061971 
L 2449.206642 -1047.981661 
L 2442.669763 -1048.642548 
L 2442.198765 -1045.957612 
L 2433.617641 -1049.572994 
L 2430.591859 -1046.285881 
L 2424.036571 -1051.263541 
L 2412.30508 -1052.590696 
L 2410.410216 -1057.734683 
L 2401.075267 -1056.997727 
L 2400.792223 -1059.719592 
L 2407.975783 -1062.334946 
L 2400.900266 -1065.220264 
L 2401.688683 -1060.454411 
L 2395.12421 -1060.166461 
L 2394.67937 -1057.230025 
L 2391.164469 -1060.199447 
L 2390.612556 -1063.963576 
L 2388.895527 -1065.97609 
L 2390.615498 -1060.206965 
L 2393.405566 -1057.398711 
L 2362.284187 -1064.533431 
L 2332.180337 -1048.551737 
L 2329.590172 -1030.962457 
L 2334.582548 -1023.680943 
L 2325.709876 -1025.10875 
L 2315.967405 -1020.27313 
L 2302.160309 -1023.575611 
L 2292.050685 -1020.629261 
L 2281.878015 -1025.974367 
L 2282.230348 -1030.254838 
L 2271.727592 -1029.72158 
L 2268.616086 -1033.896313 
L 2249.60957 -1038.428173 
L 2243.991039 -1038.678641 
L 2243.534896 -1033.005008 
L 2219.043369 -1033.029775 
L 2208.85771 -1038.829084 
L 2200.021997 -1036.25416 
L 2193.181477 -1042.661985 
L 2179.17785 -1044.844585 
L 2174.293625 -1048.657511 
L 2168.154076 -1046.29491 
L 2170.07883 -1053.601707 
L 2162.242562 -1053.736928 
L 2155.97875 -1058.431614 
L 2160.839042 -1059.364161 
L 2167.445893 -1066.012061 
L 2175.327373 -1101.982454 
L 2177.86497 -1106.014999 
L 2182.951861 -1106.160467 
L 2178.377448 -1110.172005 
L 2175.214953 -1104.612807 
L 2181.497638 -1139.316009 
L 2192.947557 -1130.361676 
L 2194.749305 -1123.301366 
L 2201.255397 -1114.472967 
L 2199.047743 -1119.25231 
L 2202.722753 -1118.270045 
L 2196.901448 -1121.996656 
L 2191.896298 -1135.928318 
L 2175.683618 -1144.507761 
L 2178.679689 -1148.075415 
L 2185.017886 -1144.782221 
L 2179.113333 -1150.339871 
L 2182.810268 -1156.629354 
L 2176.993305 -1161.632186 
L 2180.583631 -1166.35455 
L 2175.942046 -1165.675199 
L 2156.016391 -1173.425363 
L 2151.907773 -1180.695599 
L 2144.413181 -1185.419474 
L 2149.008047 -1193.358558 
L 2140.02274 -1197.305637 
L 2142.74725 -1198.24139 
L 2142.913675 -1202.049009 
L 2158.469341 -1199.822035 
L 2148.311598 -1203.838069 
L 2138.685316 -1201.1357 
L 2129.226929 -1203.115229 
L 2133.023151 -1203.370193 
L 2128.710073 -1206.178999 
L 2134.614626 -1207.668133 
L 2130.922105 -1210.157552 
L 2135.616223 -1210.709422 
L 2125.99726 -1211.213306 
L 2127.168224 -1211.555211 
L 2127.977131 -1212.469994 
L 2119.353916 -1210.452984 
L 2116.04832 -1212.634957 
L 2122.069671 -1212.374023 
L 2123.964822 -1214.329558 
L 2124.131282 -1215.01488 
L 2123.322412 -1215.742217 
L 2115.683284 -1214.002616 
L 2113.700507 -1216.519014 
L 2114.947399 -1212.721936 
L 2108.368321 -1214.122616 
L 2108.06608 -1209.679172 
L 2105.594149 -1215.62675 
L 2108.55667 -1219.036922 
L 2105.859897 -1219.563288 
L 2104.747315 -1216.246101 
L 2099.936362 -1217.754731 
L 2102.650646 -1217.526782 
L 2099.936362 -1218.258615 
L 2102.650646 -1221.071955 
L 2096.772395 -1218.021673 
L 2072.16572 -1226.10475 
L 2070.263249 -1222.0317 
L 2063.567337 -1221.803751 
L 2061.312999 -1228.012263 
L 2050.781465 -1230.405712 
L 2066.668545 -1233.162037 
L 2063.300154 -1237.473503 
L 2056.905011 -1235.439982 
L 2054.434587 -1239.489038 
L 2057.291935 -1241.69202 
L 2058.410367 -1239.812959 
L 2067.243818 -1239.538535 
L 2070.181508 -1240.243353 
L 2060.628212 -1241.270618 
L 2066.506498 -1244.815754 
z
M 2290.322497 -1024.408833 
L 2292.187901 -1024.13839 
L 2290.648851 -1025.534427 
z
" clip-path="url(#p2131fcd881)" style="fill: #eeeeee; stroke: #000000; stroke-width: 0.3"/>
    <path d="M 260.690064 454.403856 
L 269.290277 448.598797 
L 276.661109 434.988918 
L 275.190668 424.877701 
L 282.659747 412.789572 
L 282.954596 406.590273 
L 274.118884 397.275128 
L 268.17956 385.659335 
L 265.303553 359.439457 
L 271.59704 347.540838 
L 280.575817 339.775305 
L 285.135912 328.414513 
L 322.364475 340.911992 
L 340.576151 359.699544 
L 344.518344 358.397856 
L 342.316575 366.013057 
L 346.212049 360.453859 
L 353.654037 367.157263 
L 356.301184 375.985662 
L 352.872904 380.424573 
L 356.812191 378.27411 
L 357.79337 368.551936 
L 361.656729 370.137041 
L 367.127638 387.103984 
L 341.783966 423.986358 
L 339.848088 433.356713 
L 329.75332 452.682129 
L 319.335858 460.043213 
L 309.016714 459.214709 
L 310.247961 457.178755 
L 306.303866 453.542992 
L 299.569092 457.323523 
L 291.208074 452.840201 
L 278.766569 462.217042 
z
" clip-path="url(#p2131fcd881)" style="fill: #eeeeee; stroke: #000000; stroke-width: 0.3"/>
    <path d="M 2527.205545 -1021.676685 
L 2531.168191 -1023.621717 
L 2532.949486 -1029.1239 
L 2547.614469 -1034.75655 
L 2553.869453 -1032.646554 
L 2555.825928 -1044.77117 
L 2560.036812 -1044.267286 
L 2559.277567 -1031.386845 
L 2562.334962 -1028.548038 
L 2563.465056 -1013.179725 
L 2557.852517 -1006.044415 
L 2557.797042 -996.959615 
L 2553.869453 -994.0098 
L 2555.966122 -992.343725 
L 2550.946367 -987.442871 
L 2551.393144 -984.65205 
L 2535.913442 -991.607395 
L 2540.611938 -996.524724 
L 2531.010486 -998.56123 
L 2536.404032 -1004.34834 
L 2529.544566 -1004.121902 
L 2528.540062 -1006.635277 
L 2534.234342 -1009.864012 
L 2527.804178 -1015.465188 
L 2532.181486 -1017.837592 
z
" clip-path="url(#p2131fcd881)" style="fill: #eeeeee; stroke: #000000; stroke-width: 0.3"/>
    <path d="M 23.713505 -7.031636 
L 35.919726 -4.480742 
L 33.831849 -0.39424 
L 38.391657 7.139953 
L 36.232194 9.125489 
L 36.30665 6.624091 
L 29.092447 6.965997 
L 27.790044 5.127439 
L 31.732238 3.342875 
L 25.862742 -0.413736 
z
" clip-path="url(#p2131fcd881)" style="fill: #eeeeee; stroke: #000000; stroke-width: 0.3"/>
    <path d="M 4202.084337 1315.192775 
L 4204.309502 1310.84379 
L 4214.749032 1309.482139 
L 4224.657103 1319.883628 
L 4223.132765 1326.721995 
L 4214.629292 1327.657785 
L 4206.54048 1324.100634 
z
" clip-path="url(#p2131fcd881)" style="fill: #eeeeee; stroke: #000000; stroke-width: 0.3"/>
    <path d="M 3836.691694 1008.14129 
L 3838.426269 1006.254748 
L 3842.368462 1009.044058 
L 3841.854513 1018.107888 
L 3838.654053 1018.605765 
L 3837.410068 1015.516527 
L 3840.064463 1015.714476 
z
" clip-path="url(#p2131fcd881)" style="fill: #eeeeee; stroke: #000000; stroke-width: 0.3"/>
    <path d="M 12.062105 -60.061921 
L 14.992475 -68.453918 
L 18.466003 -62.399866 
L 25.719642 -58.868219 
L 15.005608 -57.001172 
z
" clip-path="url(#p2131fcd881)" style="fill: #eeeeee; stroke: #000000; stroke-width: 0.3"/>
    <path d="M 2.977509 -61.050192 
L 5.112142 -63.007239 
L 11.79345 -60.067928 
L 11.2795 -50.779171 
L 6.652519 -47.6704 
z
" clip-path="url(#p2131fcd881)" style="fill: #eeeeee; stroke: #000000; stroke-width: 0.3"/>
    <path d="M 2164.613339 -1164.478474 
L 2173.502266 -1162.825888 
L 2174.460086 -1160.95582 
L 2166.463242 -1162.852866 
z
" clip-path="url(#p2131fcd881)" style="fill: #eeeeee; stroke: #000000; stroke-width: 0.3"/>
    <path d="M 19.674931 -47.036049 
L 21.961419 -49.885359 
L 24.627512 -47.040545 
L 21.72488 -44.891557 
z
" clip-path="url(#p2131fcd881)" style="fill: #eeeeee; stroke: #000000; stroke-width: 0.3"/>
    <path d="M 3845.060857 1012.06434 
L 3845.306152 1009.799884 
L 3845.306152 1012.06434 
z
" clip-path="url(#p2131fcd881)" style="fill: #eeeeee; stroke: #000000; stroke-width: 0.3"/>
    <path d="M 2559.768157 -1031.638787 
L 2560.685071 -1030.63253 
L 2560.495251 -1030.595048 
z
" clip-path="url(#p2131fcd881)" style="fill: #eeeeee; stroke: #000000; stroke-width: 0.3"/>
    <path d="M 2441.700604 -1044.621206 
L 2442.021827 -1044.964623 
L 2444.787243 -1044.730703 
z
" clip-path="url(#p2131fcd881)" style="fill: #eeeeee; stroke: #000000; stroke-width: 0.3"/>
    <path d="M 2170.027302 -1157.158742 
L 2175.671956 -1155.264681 
L 2177.050251 -1148.349839 
z
" clip-path="url(#p2131fcd881)" style="fill: #eeeeee; stroke: #000000; stroke-width: 0.3"/>
    <path d="M 2138.066229 -1193.277587 
L 2141.497416 -1192.952156 
L 2143.559027 -1188.732165 
z
" clip-path="url(#p2131fcd881)" style="fill: #eeeeee; stroke: #000000; stroke-width: 0.3"/>
    <path d="M 2134.934377 -1181.832323 
L 2137.974262 -1181.740849 
L 2139.024049 -1180.902541 
z
" clip-path="url(#p2131fcd881)" style="fill: #eeeeee; stroke: #000000; stroke-width: 0.3"/>
    <path d="M 2103.388002 -1206.178999 
L 2110.387591 -1203.182711 
L 2104.773617 -1203.559149 
z
" clip-path="url(#p2131fcd881)" style="fill: #eeeeee; stroke: #000000; stroke-width: 0.3"/>
    <path d="M 2036.261018 -1245.801003 
L 2037.732788 -1246.628807 
L 2037.87004 -1245.391616 
z
" clip-path="url(#p2131fcd881)" style="fill: #eeeeee; stroke: #000000; stroke-width: 0.3"/>
    <path d="M 28.301051 -60.799761 
L 30.184576 -62.239398 
L 29.127468 -60.682783 
z
" clip-path="url(#p2131fcd881)" style="fill: #eeeeee; stroke: #000000; stroke-width: 0.3"/>
    <path d="M 10.213637 -44.489651 
L 10.77872 -45.151017 
L 10.698414 -44.450658 
z
" clip-path="url(#p2131fcd881)" style="fill: #eeeeee; stroke: #000000; stroke-width: 0.3"/>
    <path d="M 8.683487 -44.134257 
L 9.482166 -44.386199 
L 9.070411 -43.904796 
z
" clip-path="url(#p2131fcd881)" style="fill: #eeeeee; stroke: #000000; stroke-width: 0.3"/>
    <path d="M 3.222804 97.568327 
L 7.495012 89.17633 
L 9.594587 89.974134 
L 8.925875 96.251639 
z
" clip-path="url(#p2131fcd881)" style="fill: #eeeeee; stroke: #000000; stroke-width: 0.3"/>
    <path d="M 13.782075 81.646633 
L 16.229176 78.353402 
L 16.459866 78.956279 
z
" clip-path="url(#p2131fcd881)" style="fill: #eeeeee; stroke: #000000; stroke-width: 0.3"/>
    <path d="M 21.564268 53.064966 
L 24.874278 47.00041 
L 27.141785 49.660801 
L 25.583861 55.638342 
z
" clip-path="url(#p2131fcd881)" style="fill: #eeeeee; stroke: #000000; stroke-width: 0.3"/>
    <path d="M 24.856768 66.314291 
L 25.015908 65.315552 
L 25.310829 65.378538 
z
" clip-path="url(#p2131fcd881)" style="fill: #eeeeee; stroke: #000000; stroke-width: 0.3"/>
    <path d="M 21.641668 61.446459 
L 24.358858 59.135529 
L 22.890031 61.950343 
z
" clip-path="url(#p2131fcd881)" style="fill: #eeeeee; stroke: #000000; stroke-width: 0.3"/>
    <path d="M 18.918628 72.207875 
L 19.555225 71.075648 
L 19.806333 72.098416 
z
" clip-path="url(#p2131fcd881)" style="fill: #eeeeee; stroke: #000000; stroke-width: 0.3"/>
    <path d="M 15.229014 76.276429 
L 15.242147 75.502618 
L 16.280273 76.06348 
z
" clip-path="url(#p2131fcd881)" style="fill: #eeeeee; stroke: #000000; stroke-width: 0.3"/>
    <path d="M 80.20529 49.090909 
L 88.035673 55.110502 
L 85.095076 58.909091 
L 81.050689 57.557906 
z
" clip-path="url(#p2131fcd881)" style="fill: #eeeeee; stroke: #000000; stroke-width: 0.3"/>
    <path d="M 28.771224 28.596815 
L 33.976385 20.042876 
L 35.45691 30.313934 
L 33.201065 34.682378 
z
" clip-path="url(#p2131fcd881)" style="fill: #eeeeee; stroke: #000000; stroke-width: 0.3"/>
   </g>
   <g id="PatchCollection_2">
    <defs>
     <path id="m60362fce05" d="M 80.20529 -58.909091 
L 88.035673 -52.889498 
L 85.095076 -49.090909 
L 81.050689 -50.442094 
z
" style="stroke: #dd0000; stroke-width: 0.5"/>
    </defs>
    <g clip-path="url(#p2131fcd881)">
     <use xlink:href="#m60362fce05" x="0" y="108" style="fill: #ff6b6b; stroke: #dd0000; stroke-width: 0.5"/>
    </g>
   </g>
  </g>
 </g>
 <defs>
  <clipPath id="p2131fcd881">
   <rect x="0" y="0" width="168.240963" height="108"/>
  </clipPath>
 </defs>
</svg>
