<?xml version="1.0" encoding="utf-8" standalone="no"?>
<!DOCTYPE svg PUBLIC "-//W3C//DTD SVG 1.1//EN"
  "http://www.w3.org/Graphics/SVG/1.1/DTD/svg11.dtd">
<svg xmlns:xlink="http://www.w3.org/1999/xlink" width="165.089481pt" height="108pt" viewBox="0 0 165.089481 108" xmlns="http://www.w3.org/2000/svg" version="1.1">
 <metadata>
  <rdf:RDF xmlns:dc="http://purl.org/dc/elements/1.1/" xmlns:cc="http://creativecommons.org/ns#" xmlns:rdf="http://www.w3.org/1999/02/22-rdf-syntax-ns#">
   <cc:Work>
    <dc:type rdf:resource="http://purl.org/dc/dcmitype/StillImage"/>
    <dc:date>2025-09-05T15:49:27.493061</dc:date>
    <dc:format>image/svg+xml</dc:format>
    <dc:creator>
     <cc:Agent>
      <dc:title>Matplotlib v3.10.3, https://matplotlib.org/</dc:title>
     </cc:Agent>
    </dc:creator>
   </cc:Work>
  </rdf:RDF>
 </metadata>
 <defs>
  <style type="text/css">*{stroke-linejoin: round; stroke-linecap: butt}</style>
 </defs>
 <g id="figure_1">
  <g id="patch_1">
   <path d="M 0 108 
L 165.089481 108 
L 165.089481 0 
L 0 0 
z
" style="fill: #ffffff"/>
  </g>
  <g id="axes_1">
   <g id="PatchCollection_1">
    <path d="M 90.882237 98.489801 
L 90.920974 97.56882 
L 91.807315 96.505953 
L 93.642935 98.283303 
L 94.663214 98.219127 
L 93.776467 98.032481 
L 94.420749 97.576002 
L 97.18688 97.594433 
L 98.298454 96.488062 
L 98.418849 94.898229 
L 100.468807 94.283373 
L 99.852435 89.650374 
L 104.07684 89.532119 
L 106.490055 86.549279 
L 110.00254 88.836285 
L 110.152402 87.369803 
L 115.682046 83.667519 
L 115.921577 81.150987 
L 117.070034 80.894634 
L 116.829224 80.125595 
L 118.313525 78.528258 
L 119.424841 78.485896 
L 120.345041 80.004931 
L 122.492847 80.577954 
L 123.68024 79.580187 
L 124.628617 79.973289 
L 124.68293 79.134802 
L 125.611071 79.586891 
L 126.170571 78.772812 
L 128.025049 79.083857 
L 131.089734 77.95014 
L 132.145964 76.509126 
L 135.900092 76.659895 
L 134.278313 78.660171 
L 133.999133 77.522563 
L 133.526318 77.843072 
L 132.983296 78.663554 
L 134.226677 79.00348 
L 135.343377 83.398951 
L 132.917531 87.455752 
L 131.649542 93.069052 
L 132.416469 103.438442 
L 130.872531 103.759377 
L 130.872531 101.903892 
L 131.686662 101.163226 
L 131.601128 99.328434 
L 130.789426 99.596587 
L 131.352614 101.20207 
L 129.512959 102.225667 
L 130.487253 104.85813 
L 131.075863 104.150403 
L 130.540505 107.887535 
L 130.274244 106.359326 
L 129.969246 105.981811 
L 129.482302 105.923955 
L 130.121745 106.458133 
L 129.222496 107.13673 
L 129.659816 108.314033 
L 128.903775 109.098619 
L 129.581549 109.78778 
L 130.253661 109.319895 
L 130.731731 111.712505 
L 129.64771 112.358588 
L 128.588297 115.300155 
L 130.619645 120.142994 
L 128.006608 121.098928 
L 127.187093 120.325333 
L 125.378966 120.405512 
L 123.754283 118.195997 
L 122.933995 118.636288 
L 120.571752 117.409523 
L 118.044031 118.743283 
L 111.436889 115.961545 
L 110.406329 117.300878 
L 102.527737 110.259037 
L 99.789238 105.713669 
z
" clip-path="url(#pbb38692467)" style="fill: #eeeeee; stroke: #000000; stroke-width: 0.3"/>
    <path d="M 139.094491 83.204699 
L 139.845287 83.171345 
L 139.663738 83.255374 
z
" clip-path="url(#pbb38692467)" style="fill: #eeeeee; stroke: #000000; stroke-width: 0.3"/>
    <path d="M 136.638395 106.037551 
L 136.870777 105.782069 
L 136.983736 105.875823 
z
" clip-path="url(#pbb38692467)" style="fill: #eeeeee; stroke: #000000; stroke-width: 0.3"/>
    <path d="M 130.383287 118.783975 
L 130.431582 118.776752 
L 130.495354 118.908446 
z
" clip-path="url(#pbb38692467)" style="fill: #eeeeee; stroke: #000000; stroke-width: 0.3"/>
    <path d="M 129.895421 108.3664 
L 130.185081 107.896824 
L 130.056387 109.108332 
z
" clip-path="url(#pbb38692467)" style="fill: #eeeeee; stroke: #000000; stroke-width: 0.3"/>
    <path d="M 66.815348 89.794169 
L 67.562238 87.661005 
L 69.417499 86.393487 
L 70.29209 86.61604 
L 70.865164 85.242336 
L 72.504462 84.601473 
L 71.913968 82.836815 
L 73.756925 82.384715 
L 76.178082 83.361031 
L 76.639208 82.897411 
L 79.303474 85.964716 
L 82.618953 87.175934 
L 82.69376 88.550977 
L 86.376352 87.097364 
L 87.467671 88.393576 
L 89.425143 87.879811 
L 90.558233 88.926644 
L 89.70233 91.855052 
L 90.384278 92.602111 
L 89.222922 92.808506 
L 88.871126 93.593942 
L 89.702608 94.405977 
L 88.331336 95.738252 
L 84.39786 95.655915 
L 84.126761 95.578631 
L 84.366401 95.339204 
L 84.065835 95.011524 
L 83.506681 95.603974 
L 83.162153 94.74253 
L 81.68397 94.438491 
L 80.453498 94.586707 
L 81.894966 94.656809 
L 83.041927 95.638179 
L 79.82979 94.839231 
L 75.211699 92.482932 
L 69.693199 91.916915 
z
" clip-path="url(#pbb38692467)" style="fill: #eeeeee; stroke: #000000; stroke-width: 0.3"/>
    <path d="M 90.364865 95.681787 
L 90.533654 95.187303 
L 90.661485 95.642517 
z
" clip-path="url(#pbb38692467)" style="fill: #eeeeee; stroke: #000000; stroke-width: 0.3"/>
    <path d="M 89.799148 94.87683 
L 90.084515 95.008815 
L 89.961393 95.160726 
z
" clip-path="url(#pbb38692467)" style="fill: #eeeeee; stroke: #000000; stroke-width: 0.3"/>
    <path d="M 45.518923 81.337529 
L 46.36617 79.913492 
L 46.431498 76.671092 
L 47.228725 75.863977 
L 45.865593 73.805429 
L 50.53985 65.618156 
L 63.453112 65.225064 
L 63.874529 61.900596 
L 61.513059 61.235065 
L 59.888366 57.892374 
L 57.330673 56.827836 
L 55.103955 54.004276 
L 53.487967 53.403627 
L 57.954729 53.258825 
L 58.045409 47.461537 
L 76.113527 47.422391 
L 75.359846 67.351981 
L 79.813252 67.713534 
L 81.579082 69.342668 
L 82.090228 67.777296 
L 82.77284 67.841483 
L 81.616599 66.566213 
L 85.429036 69.098177 
L 76.110453 76.003673 
L 75.400318 78.201128 
L 76.114548 80.974273 
L 74.119419 82.69496 
L 71.913968 82.836815 
L 72.504462 84.601473 
L 70.865164 85.242336 
L 70.29209 86.61604 
L 69.417499 86.393487 
L 67.562238 87.661005 
L 66.815348 89.794169 
L 62.035379 87.906825 
L 54.737634 87.46668 
z
" clip-path="url(#pbb38692467)" style="fill: #eeeeee; stroke: #000000; stroke-width: 0.3"/>
    <path d="M 117.863434 5.26282 
L 122.109562 3.485459 
L 124.417601 3.769231 
L 122.859951 1.856315 
L 125.16799 -2.067037 
L 125.844951 -1.925151 
L 126.802697 -3.46984 
L 133.292319 -5.116295 
L 134.950832 -6.413099 
L 135.513624 -5.668624 
L 136.587155 -6.597212 
L 137.548134 -6.112432 
L 144.933377 -8.409619 
L 151.260823 -8.031253 
L 151.78004 -6.883516 
L 155.544072 -8.597945 
L 154.1845 -7.748332 
L 155.544072 -6.755983 
L 156.248467 -7.471317 
L 160.362669 -7.323101 
L 161.015834 -8.013517 
L 161.417244 -6.47053 
L 162.659415 -5.874271 
L 166.479526 -5.970131 
L 167.765669 -4.829991 
L 168.294563 -5.186812 
L 168.99049 -5.332922 
L 168.353873 -4.533123 
L 170.390803 -3.890423 
L 173.463756 -0.303614 
L 179.015391 -0.069677 
L 179.483775 0.702237 
L 179.746814 -0.031248 
L 186.122267 3.081336 
L 187.877201 5.334603 
L 188.154358 4.335497 
L 188.68931 4.335497 
L 188.268933 4.911903 
L 189.230319 6.011508 
L 192.164485 6.299918 
L 192.415825 7.537185 
L 193.240039 7.734395 
L 192.232263 6.039798 
L 190.591091 5.185961 
L 191.169211 4.725683 
L 195.354026 7.466252 
L 195.151101 8.606393 
L 193.070596 8.013092 
L 194.152604 8.472955 
L 194.123554 9.418002 
L 195.077265 9.379158 
L 195.806675 8.070948 
L 198.548406 10.236378 
L 197.799633 11.172137 
L 198.609729 10.313651 
L 199.939041 10.66794 
L 199.312507 11.398477 
L 201.194122 11.376518 
L 200.517558 12.020909 
L 201.267947 12.445715 
L 202.074415 12.020909 
L 201.386151 11.43479 
L 202.754191 11.411138 
L 206.228157 13.585866 
L 209.53146 13.12727 
L 210.776051 14.223076 
L 209.140937 15.510166 
L 211.04716 16.214106 
L 208.874676 16.065464 
L 209.328138 17.52189 
L 210.234249 16.638912 
L 211.04716 17.637167 
L 212.152161 17.05359 
L 213.410068 17.841133 
L 213.970034 17.779052 
L 213.59363 17.23516 
L 216.527796 17.467416 
L 219.133169 18.416687 
L 222.530078 21.766176 
L 224.086924 21.405982 
L 225.041845 22.224773 
L 223.775065 24.030838 
L 218.365835 24.353039 
L 215.569593 25.806268 
L 215.595064 24.104313 
L 213.689248 25.89941 
L 204.591427 24.819232 
L 189.681758 26.50368 
L 190.867852 23.820967 
L 195.557358 20.915712 
L 195.864766 19.911127 
L 194.303487 18.896393 
L 194.744437 18.133767 
L 193.279976 17.283303 
L 186.117429 17.354246 
L 181.929798 13.961689 
L 181.827725 11.560206 
L 179.384538 7.755929 
L 174.781369 8.669729 
L 170.387174 7.183321 
L 168.416812 7.304099 
L 167.97505 6.474743 
L 166.905544 6.880548 
L 162.49481 3.462234 
L 163.083024 3.13117 
L 162.134547 1.99103 
L 161.601212 2.277333 
L 162.270102 3.556402 
L 156.145988 3.093166 
L 155.099891 1.062016 
L 154.993386 3.358351 
L 154.65208 2.416262 
L 153.672947 3.060227 
L 151.832489 1.856315 
L 148.848699 2.023543 
L 145.482447 -0.134704 
L 150.562853 -1.078569 
L 150.645225 -1.959751 
L 148.322731 -3.070107 
L 139.574177 -3.342307 
L 133.074105 2.052778 
L 131.488169 1.424337 
L 130.540505 2.203848 
L 128.017841 2.203848 
L 126.987072 4.815628 
L 124.897694 4.909371 
L 122.238256 6.403801 
L 122.359285 4.67121 
L 118.951084 5.821905 
z
" clip-path="url(#pbb38692467)" style="fill: #eeeeee; stroke: #000000; stroke-width: 0.3"/>
    <path d="M 135.291731 7.820541 
L 137.598967 8.529535 
L 136.3447 6.056693 
L 137.297608 4.519185 
L 140.130911 5.096442 
L 141.476365 7.755929 
L 141.212514 8.73899 
L 138.123032 9.8217 
L 136.414896 9.492328 
z
" clip-path="url(#pbb38692467)" style="fill: #eeeeee; stroke: #000000; stroke-width: 0.3"/>
    <path d="M 186.3139 1.920087 
L 186.688688 1.55735 
L 186.734276 1.012192 
L 186.590651 0.716175 
L 188.492432 2.345319 
L 188.121283 2.954653 
z
" clip-path="url(#pbb38692467)" style="fill: #eeeeee; stroke: #000000; stroke-width: 0.3"/>
    <path d="M 170.553385 -4.340572 
L 171.201305 -4.36084 
L 173.164409 -3.038278 
L 173.61222 -2.414155 
L 171.695913 -3.495173 
L 171.183548 -4.196569 
z
" clip-path="url(#pbb38692467)" style="fill: #eeeeee; stroke: #000000; stroke-width: 0.3"/>
    <path d="M 187.268424 2.919182 
L 188.039387 3.199155 
L 188.665911 2.950855 
L 190.394223 3.420847 
L 189.710808 4.909371 
z
" clip-path="url(#pbb38692467)" style="fill: #eeeeee; stroke: #000000; stroke-width: 0.3"/>
    <path d="M 179.864621 -1.635049 
L 182.837514 -1.825503 
L 184.006267 -0.672266 
L 181.40493 -0.774031 
L 179.890439 -1.282877 
z
" clip-path="url(#pbb38692467)" style="fill: #eeeeee; stroke: #000000; stroke-width: 0.3"/>
    <path d="M 151.464155 8.104303 
L 151.556135 7.848831 
L 153.331641 7.041436 
L 152.098353 7.943415 
z
" clip-path="url(#pbb38692467)" style="fill: #eeeeee; stroke: #000000; stroke-width: 0.3"/>
    <path d="M 147.745711 7.70019 
L 148.570332 7.475541 
L 148.086204 7.972981 
L 147.778796 7.839543 
z
" clip-path="url(#pbb38692467)" style="fill: #eeeeee; stroke: #000000; stroke-width: 0.3"/>
    <path d="M 210.783319 16.753774 
L 211.473188 16.576842 
L 211.730982 17.083146 
z
" clip-path="url(#pbb38692467)" style="fill: #eeeeee; stroke: #000000; stroke-width: 0.3"/>
    <path d="M 187.950223 0.779936 
L 189.169392 2.132916 
L 188.931369 2.13882 
z
" clip-path="url(#pbb38692467)" style="fill: #eeeeee; stroke: #000000; stroke-width: 0.3"/>
    <path d="M 183.667787 -0.211563 
L 185.337593 -0.467459 
L 186.658428 1.063708 
z
" clip-path="url(#pbb38692467)" style="fill: #eeeeee; stroke: #000000; stroke-width: 0.3"/>
    <path d="M 182.172253 18.48763 
L 182.469181 18.414155 
L 183.406354 19.363852 
z
" clip-path="url(#pbb38692467)" style="fill: #eeeeee; stroke: #000000; stroke-width: 0.3"/>
    <path d="M 181.359738 17.431104 
L 181.968931 17.141417 
L 181.692577 17.567075 
z
" clip-path="url(#pbb38692467)" style="fill: #eeeeee; stroke: #000000; stroke-width: 0.3"/>
    <path d="M 180.685603 17.91165 
L 181.03377 18.010457 
L 180.960342 18.060292 
z
" clip-path="url(#pbb38692467)" style="fill: #eeeeee; stroke: #000000; stroke-width: 0.3"/>
    <path d="M 180.357613 17.970347 
L 180.523427 17.902362 
L 180.509309 17.961474 
z
" clip-path="url(#pbb38692467)" style="fill: #eeeeee; stroke: #000000; stroke-width: 0.3"/>
    <path d="M 179.151353 -1.637166 
L 179.442629 -1.457277 
L 179.172729 -1.399846 
z
" clip-path="url(#pbb38692467)" style="fill: #eeeeee; stroke: #000000; stroke-width: 0.3"/>
    <path d="M 178.765668 16.881297 
L 179.322809 17.205604 
L 178.911306 17.268525 
z
" clip-path="url(#pbb38692467)" style="fill: #eeeeee; stroke: #000000; stroke-width: 0.3"/>
    <path d="M 177.205996 16.290953 
L 178.075798 16.341628 
L 178.369097 16.716185 
z
" clip-path="url(#pbb38692467)" style="fill: #eeeeee; stroke: #000000; stroke-width: 0.3"/>
    <path d="M 176.061058 15.427829 
L 177.138218 15.674437 
L 176.962727 16.032099 
z
" clip-path="url(#pbb38692467)" style="fill: #eeeeee; stroke: #000000; stroke-width: 0.3"/>
    <path d="M 175.987629 -2.988018 
L 177.240688 -2.866826 
L 176.807809 -2.831354 
z
" clip-path="url(#pbb38692467)" style="fill: #eeeeee; stroke: #000000; stroke-width: 0.3"/>
    <path d="M 174.713592 -2.689053 
L 175.09887 -2.706364 
L 174.805977 -2.496067 
z
" clip-path="url(#pbb38692467)" style="fill: #eeeeee; stroke: #000000; stroke-width: 0.3"/>
    <path d="M 174.627254 14.3012 
L 175.48737 14.541893 
L 175.706437 15.287209 
z
" clip-path="url(#pbb38692467)" style="fill: #eeeeee; stroke: #000000; stroke-width: 0.3"/>
    <path d="M 173.309641 13.03775 
L 173.951096 13.585866 
L 173.474246 13.605283 
z
" clip-path="url(#pbb38692467)" style="fill: #eeeeee; stroke: #000000; stroke-width: 0.3"/>
    <path d="M 169.606128 -5.004391 
L 169.639214 -5.397098 
L 169.73039 -5.148809 
z
" clip-path="url(#pbb38692467)" style="fill: #eeeeee; stroke: #000000; stroke-width: 0.3"/>
    <path d="M 168.215086 -5.851046 
L 168.649184 -5.554613 
L 168.459574 -5.463402 
z
" clip-path="url(#pbb38692467)" style="fill: #eeeeee; stroke: #000000; stroke-width: 0.3"/>
    <path d="M 167.359808 -5.90637 
L 167.94358 -5.737035 
L 167.436469 -5.650888 
z
" clip-path="url(#pbb38692467)" style="fill: #eeeeee; stroke: #000000; stroke-width: 0.3"/>
    <path d="M 165.997827 -6.895336 
L 166.17654 -7.119145 
L 166.379476 -6.670687 
z
" clip-path="url(#pbb38692467)" style="fill: #eeeeee; stroke: #000000; stroke-width: 0.3"/>
    <path d="M 164.707241 -7.323101 
L 165.286978 -7.353508 
L 165.636344 -7.296502 
z
" clip-path="url(#pbb38692467)" style="fill: #eeeeee; stroke: #000000; stroke-width: 0.3"/>
    <path d="M 163.906425 -7.789719 
L 164.236438 -7.84714 
L 164.455902 -7.274543 
z
" clip-path="url(#pbb38692467)" style="fill: #eeeeee; stroke: #000000; stroke-width: 0.3"/>
    <path d="M 163.489281 -6.253903 
L 164.461553 -6.507268 
L 164.639464 -5.970131 
z
" clip-path="url(#pbb38692467)" style="fill: #eeeeee; stroke: #000000; stroke-width: 0.3"/>
    <path d="M 162.379026 -7.72848 
L 162.51458 -7.956937 
L 163.206879 -7.972981 
z
" clip-path="url(#pbb38692467)" style="fill: #eeeeee; stroke: #000000; stroke-width: 0.3"/>
    <path d="M 161.180836 -8.250412 
L 161.3886 -8.521938 
L 162.027636 -8.141051 
z
" clip-path="url(#pbb38692467)" style="fill: #eeeeee; stroke: #000000; stroke-width: 0.3"/>
    <path d="M 159.955202 -8.265201 
L 160.047994 -8.510118 
L 160.248501 -8.33276 
z
" clip-path="url(#pbb38692467)" style="fill: #eeeeee; stroke: #000000; stroke-width: 0.3"/>
    <path d="M 158.396739 -8.680719 
L 158.630331 -8.713658 
L 159.879364 -8.374147 
z
" clip-path="url(#pbb38692467)" style="fill: #eeeeee; stroke: #000000; stroke-width: 0.3"/>
    <path d="M 157.591085 -9.063723 
L 157.885593 -9.149859 
L 158.226899 -8.802752 
z
" clip-path="url(#pbb38692467)" style="fill: #eeeeee; stroke: #000000; stroke-width: 0.3"/>
    <path d="M 157.303844 -7.54226 
L 158.957915 -7.980578 
L 158.702144 -7.80154 
z
" clip-path="url(#pbb38692467)" style="fill: #eeeeee; stroke: #000000; stroke-width: 0.3"/>
    <path d="M 151.184569 3.229562 
L 151.247508 3.189016 
L 151.599304 3.521356 
z
" clip-path="url(#pbb38692467)" style="fill: #eeeeee; stroke: #000000; stroke-width: 0.3"/>
    <path d="M 145.975449 8.443388 
L 147.141366 7.85896 
L 147.209144 8.043499 
z
" clip-path="url(#pbb38692467)" style="fill: #eeeeee; stroke: #000000; stroke-width: 0.3"/>
    <path d="M 141.87011 -2.658221 
L 142.074246 -2.139671 
L 141.924176 -1.820428 
z
" clip-path="url(#pbb38692467)" style="fill: #eeeeee; stroke: #000000; stroke-width: 0.3"/>
    <path d="M 140.585583 4.688946 
L 141.08261 4.62011 
L 141.246809 4.7451 
z
" clip-path="url(#pbb38692467)" style="fill: #eeeeee; stroke: #000000; stroke-width: 0.3"/>
    <path d="M 131.167039 4.331699 
L 131.786712 4.386172 
L 131.317922 4.397993 
z
" clip-path="url(#pbb38692467)" style="fill: #eeeeee; stroke: #000000; stroke-width: 0.3"/>
    <path d="M 74.119419 82.69496 
L 76.114548 80.974273 
L 75.400318 78.201128 
L 76.110453 76.003673 
L 84.479846 69.627996 
L 86.440848 69.407281 
L 88.105408 67.629495 
L 91.67176 66.920502 
L 92.781203 68.471511 
L 94.112935 67.80432 
L 98.358656 68.737547 
L 103.733601 68.628185 
L 108.110842 66.908256 
L 108.250432 66.212339 
L 107.370546 65.928577 
L 110.391853 66.49527 
L 112.519741 67.60466 
L 117.364384 66.376184 
L 120.57079 67.535793 
L 120.734364 68.591313 
L 122.78913 68.37178 
L 120.915051 67.673777 
L 124.357379 68.212356 
L 129.955931 72.461592 
L 127.238808 71.049926 
L 126.251208 70.908466 
L 126.392811 71.616618 
L 125.986157 70.908466 
L 125.16799 70.908466 
L 127.889544 73.938712 
L 129.044575 73.819636 
L 127.015716 72.387702 
L 129.122039 73.290522 
L 129.659816 74.531587 
L 131.012924 73.556133 
L 131.961797 73.67775 
L 131.910161 74.436578 
L 131.318725 74.167169 
L 131.031891 74.800581 
L 132.416469 74.391818 
L 131.942434 73.505042 
L 131.143234 73.464922 
L 130.223411 72.456953 
L 133.147891 73.86397 
L 134.374734 75.919612 
L 135.900092 76.659895 
L 132.145964 76.509126 
L 131.089734 77.95014 
L 128.025049 79.083857 
L 126.170571 78.772812 
L 125.611071 79.586891 
L 124.68293 79.134802 
L 124.628617 79.973289 
L 123.68024 79.580187 
L 122.492847 80.577954 
L 120.345041 80.004931 
L 119.424841 78.485896 
L 118.313525 78.528258 
L 116.829224 80.125595 
L 117.070034 80.894634 
L 115.921577 81.150987 
L 115.682046 83.667519 
L 110.152402 87.369803 
L 110.00254 88.836285 
L 108.149083 87.918956 
L 107.248862 86.434241 
L 104.07684 89.532119 
L 99.852435 89.650374 
L 100.468807 94.283373 
L 98.418849 94.898229 
L 98.298454 96.488062 
L 97.18688 97.594433 
L 94.420749 97.576002 
L 94.520808 96.364067 
L 93.376664 96.228937 
L 92.455632 94.40935 
L 93.562249 93.11761 
L 91.401464 93.52384 
L 91.347399 92.545853 
L 90.6656 93.581271 
L 89.432302 93.165327 
L 90.384278 92.602111 
L 89.70233 91.855052 
L 90.558233 88.926644 
L 89.425143 87.879811 
L 87.467671 88.393576 
L 86.637656 87.11238 
L 85.288861 87.080738 
L 84.789573 87.98251 
L 82.69376 88.550977 
L 82.618953 87.175934 
L 79.303474 85.964716 
L 76.639208 82.897411 
z
" clip-path="url(#pbb38692467)" style="fill: #eeeeee; stroke: #000000; stroke-width: 0.3"/>
    <path d="M 101.435387 63.293063 
L 103.082746 62.135768 
L 104.156168 61.794306 
L 105.647091 61.806998 
z
" clip-path="url(#pbb38692467)" style="fill: #eeeeee; stroke: #000000; stroke-width: 0.3"/>
    <path d="M 127.969428 51.62442 
L 128.01098 51.552636 
L 128.147745 51.606684 
z
" clip-path="url(#pbb38692467)" style="fill: #eeeeee; stroke: #000000; stroke-width: 0.3"/>
    <path d="M 107.973919 62.066808 
L 108.925112 60.883443 
L 109.264009 61.079678 
z
" clip-path="url(#pbb38692467)" style="fill: #eeeeee; stroke: #000000; stroke-width: 0.3"/>
    <path d="M 97.560071 65.379735 
L 98.087081 65.041947 
L 98.736677 65.284186 
z
" clip-path="url(#pbb38692467)" style="fill: #eeeeee; stroke: #000000; stroke-width: 0.3"/>
    <path d="M 91.000451 93.942316 
L 91.875092 93.52384 
L 91.67176 94.225662 
z
" clip-path="url(#pbb38692467)" style="fill: #eeeeee; stroke: #000000; stroke-width: 0.3"/>
    <path d="M 90.853594 94.438491 
L 91.344176 94.75984 
L 90.920568 94.727752 
z
" clip-path="url(#pbb38692467)" style="fill: #eeeeee; stroke: #000000; stroke-width: 0.3"/>
    <path d="M 176.639198 215.294338 
L 178.378843 213.39234 
L 181.10364 213.800998 
L 181.359738 212.425592 
L 180.738856 211.250396 
L 180.167924 211.718083 
L 179.795594 209.571012 
L 181.075323 207.045379 
L 181.224996 207.581249 
L 183.336564 204.816084 
L 184.241465 205.917059 
L 184.318989 204.654034 
L 184.70743 205.964351 
L 185.453784 206.427171 
L 185.921761 206.185201 
L 185.814394 204.780125 
L 187.264577 204.54074 
L 187.716235 205.521808 
L 188.356887 205.668344 
L 189.142771 205.401042 
L 189.230715 205.031124 
L 188.62759 203.607212 
L 189.852411 203.324291 
L 189.508279 202.821786 
L 190.375663 202.516055 
L 189.641821 202.012698 
L 190.537839 201.87293 
L 190.397039 201.216293 
L 189.52563 201.349731 
L 191.926065 198.802356 
L 191.310249 198.609151 
L 192.147134 197.466904 
L 193.520022 197.842312 
L 193.378816 195.851708 
L 194.061825 196.276514 
L 193.491775 195.477566 
L 195.509341 194.126289 
L 194.691184 193.447267 
L 195.436329 193.550308 
L 195.191037 192.718846 
L 196.369061 191.658511 
L 194.171968 192.437192 
L 193.705597 191.105331 
L 194.603637 191.020876 
L 194.806166 190.086383 
L 194.061825 189.661992 
L 193.249716 191.516626 
L 192.367411 190.480367 
L 192.451726 188.913304 
L 193.717703 188.676409 
L 194.338982 188.031592 
L 192.843062 187.181554 
L 193.581335 185.893187 
L 193.452245 182.975686 
L 194.123554 183.478191 
L 193.225514 181.920426 
L 192.904781 176.224767 
L 191.137752 175.186392 
L 194.243781 172.787877 
L 191.879664 168.070215 
L 191.88934 166.974835 
L 192.566301 167.548283 
L 192.904781 166.910648 
L 193.257787 164.15446 
L 192.604631 162.829355 
L 191.347935 163.142257 
L 190.800074 161.435425 
L 189.778586 161.216681 
L 190.088422 159.490006 
L 187.799985 157.21178 
L 188.550116 154.706061 
L 189.431896 154.147775 
L 189.105006 152.327616 
L 190.931564 154.168157 
L 193.313527 152.31206 
L 192.91543 151.614887 
L 193.703436 150.28971 
L 195.063236 149.904121 
L 191.836396 144.35835 
L 192.378981 142.75377 
L 193.195254 142.32747 
L 193.958146 144.128471 
L 197.058524 146.507569 
L 197.251772 147.936546 
L 198.345074 147.85674 
L 197.603568 150.005274 
L 199.089009 150.066929 
L 198.914727 144.949378 
L 197.205778 143.612869 
L 203.468272 139.438259 
L 204.929907 136.332846 
L 207.154018 134.322047 
L 208.461964 134.832502 
L 210.358124 134.196278 
L 210.797011 132.450383 
L 209.520286 131.624556 
L 211.250086 126.020462 
L 209.535753 127.123003 
L 211.39855 125.207586 
L 211.317863 124.455089 
L 210.776051 124.384146 
L 211.526847 123.456409 
L 211.620839 124.007472 
L 211.661995 123.314939 
L 211.359823 122.535428 
L 214.037811 121.1833 
L 213.860297 120.264425 
L 218.054571 117.0021 
L 223.473408 118.228459 
L 221.552551 118.353211 
L 221.649785 119.688445 
L 220.507257 119.511928 
L 220.492742 120.403353 
L 220.831618 119.894517 
L 221.034544 120.609851 
L 221.472271 120.581976 
L 221.373431 119.753472 
L 222.509098 120.739906 
L 224.905487 114.573841 
L 233.442132 115.089018 
L 238.905824 110.793216 
L 243.647769 108.945763 
L 244.881067 105.105164 
L 246.556921 105.114878 
L 246.105888 105.74914 
L 246.874431 106.035019 
L 247.534041 105.105164 
L 246.647294 104.828574 
L 248.907732 103.505161 
L 249.293813 103.971354 
L 249.915102 103.326963 
L 248.825836 103.404662 
L 249.47213 102.902157 
L 253.574643 104.21459 
L 255.041523 106.782866 
L 254.801477 107.598274 
L 252.108864 109.710288 
L 246.348919 111.404419 
L 243.607793 116.532689 
L 241.305247 116.886646 
L 239.484321 119.63861 
L 237.184848 124.025468 
L 236.484459 130.467376 
L 232.46294 137.102882 
L 234.236731 137.095919 
L 236.24467 135.830538 
L 236.784182 137.81669 
L 238.41298 137.713452 
L 239.559127 142.512444 
L 242.354051 145.585644 
L 242.926867 148.195504 
L 241.385685 149.922355 
L 241.50968 154.624004 
L 244.211355 155.688541 
L 245.281674 158.751291 
L 246.317152 159.518182 
L 250.019465 159.110602 
L 254.345834 160.03999 
L 259.112319 158.614531 
L 262.921969 160.292047 
L 264.804377 159.936491 
L 271.601595 168.760871 
L 272.714448 168.406644 
L 273.560098 169.192309 
L 275.394082 167.768729 
L 279.615929 168.619286 
L 286.133144 167.768729 
L 287.628212 166.776867 
L 291.368439 167.975206 
L 290.959574 168.841309 
L 291.641016 170.255238 
L 289.63154 172.265788 
L 289.711979 174.786617 
L 287.554942 176.885929 
L 287.966375 179.749984 
L 287.15377 185.257409 
L 289.565954 193.256429 
L 290.874009 193.712545 
L 292.761543 197.178587 
L 287.514985 202.344665 
L 287.343341 203.344849 
L 289.617194 203.099227 
L 290.122896 204.368623 
L 293.948688 207.447997 
L 293.675596 208.779609 
L 296.984411 218.286943 
L 297.068439 219.609443 
L 294.975967 220.092096 
L 294.668034 214.552499 
L 291.619501 210.107453 
L 286.620405 214.225628 
L 284.009421 211.386242 
L 283.136356 213.311258 
L 284.295829 214.433175 
L 270.626834 213.899567 
L 267.511426 214.574479 
L 267.550877 221.301965 
L 273.136629 221.519702 
L 274.489261 223.290535 
L 274.637328 225.549385 
L 273.054911 225.881881 
L 271.26011 224.691315 
L 265.547558 226.192926 
L 265.410754 233.958402 
L 269.855475 237.740315 
L 269.769911 239.907996 
L 272.039669 244.570499 
L 266.432907 276.261998 
L 263.000871 272.036038 
L 261.218374 272.546586 
L 258.806696 271.545872 
L 265.58342 260.473633 
L 265.036472 259.540489 
L 264.593539 259.997414 
L 260.348641 257.260187 
L 259.664641 257.729981 
L 257.116932 255.242663 
L 251.998195 256.954508 
L 251.644674 255.699588 
L 251.231704 256.321678 
L 250.832575 255.366014 
L 248.772891 254.425366 
L 246.764953 256.416064 
L 244.506983 257.310603 
L 242.50776 257.729981 
L 239.867566 256.519033 
L 239.192281 257.432874 
L 238.981186 256.866556 
L 236.981446 257.466125 
L 234.380198 255.26841 
L 235.239937 253.813987 
L 234.427333 250.859033 
L 232.865658 250.879415 
L 231.076498 249.666329 
L 231.411836 247.634867 
L 230.029747 245.322384 
L 227.84248 244.859024 
L 225.663927 242.579791 
L 223.78152 242.386732 
L 222.282357 237.928019 
L 220.057939 235.822542 
L 218.586707 235.540462 
L 218.250081 234.065657 
L 217.171304 234.470019 
L 215.106752 232.747464 
L 213.700838 233.4071 
L 210.297237 231.477528 
L 208.681765 231.420678 
L 206.066675 228.523643 
L 203.617599 227.505764 
L 202.468378 228.125715 
L 202.551374 229.655211 
L 200.99073 230.054218 
L 192.741227 228.273734 
L 192.041344 225.541872 
L 190.281383 224.862933 
L 189.710104 223.546878 
L 188.274466 223.898147 
L 185.577411 222.736005 
L 178.551043 217.411396 
L 178.233542 216.122614 
z
" clip-path="url(#pbb38692467)" style="fill: #eeeeee; stroke: #000000; stroke-width: 0.3"/>
    <path d="M 187.735598 204.315374 
L 188.24957 204.918379 
L 188.89869 205.378241 
L 187.877201 205.378241 
z
" clip-path="url(#pbb38692467)" style="fill: #eeeeee; stroke: #000000; stroke-width: 0.3"/>
    <path d="M 210.655289 125.207088 
L 210.802335 124.596581 
L 211.203982 124.879128 
z
" clip-path="url(#pbb38692467)" style="fill: #eeeeee; stroke: #000000; stroke-width: 0.3"/>
    <path d="M 191.23336 188.659939 
L 192.437201 187.246156 
L 193.987999 188.102535 
z
" clip-path="url(#pbb38692467)" style="fill: #eeeeee; stroke: #000000; stroke-width: 0.3"/>
    <path d="M 187.931663 204.021049 
L 188.283458 204.026113 
L 189.15568 205.281956 
z
" clip-path="url(#pbb38692467)" style="fill: #eeeeee; stroke: #000000; stroke-width: 0.3"/>
    <path d="M 184.636886 204.463985 
L 185.81364 205.936486 
L 185.43442 206.306394 
z
" clip-path="url(#pbb38692467)" style="fill: #eeeeee; stroke: #000000; stroke-width: 0.3"/>
    <path d="M 184.583138 201.851852 
L 184.740446 201.726135 
L 185.110584 201.581125 
z
" clip-path="url(#pbb38692467)" style="fill: #eeeeee; stroke: #000000; stroke-width: 0.3"/>
    <path d="M 166.036554 91.38586 
L 166.051079 91.398106 
L 166.041392 91.400638 
z
" clip-path="url(#pbb38692467)" style="fill: #eeeeee; stroke: #000000; stroke-width: 0.3"/>
    <path d="M 153.194481 93.840976 
L 153.400628 93.503572 
L 153.589435 93.765809 
z
" clip-path="url(#pbb38692467)" style="fill: #eeeeee; stroke: #000000; stroke-width: 0.3"/>
    <path d="M 151.05991 190.906014 
L 151.249927 190.873075 
L 151.26929 191.033963 
z
" clip-path="url(#pbb38692467)" style="fill: #eeeeee; stroke: #000000; stroke-width: 0.3"/>
    <path d="M 149.910125 102.548293 
L 149.914566 101.917414 
L 150.171557 101.626461 
z
" clip-path="url(#pbb38692467)" style="fill: #eeeeee; stroke: #000000; stroke-width: 0.3"/>
    <path d="M -201.149236 -105.311932 
L -177.345504 -107.192054 
L -178.315397 -104.985767 
L -140.482239 -92.811993 
L -112.805582 -92.81467 
L -112.808655 -97.487894 
L -95.099194 -97.287861 
L -92.9209 -94.369914 
L -90.461572 -93.26676 
L -84.538182 -87.863643 
L -80.280473 -85.374726 
L -77.774258 -81.040972 
L -77.763501 -78.439964 
L -76.139065 -75.451219 
L -71.584954 -72.179315 
L -68.871748 -71.512705 
L -64.935288 -68.959705 
L -62.319187 -68.624252 
L -59.701788 -71.038895 
L -59.942598 -72.228392 
L -58.038675 -76.307412 
L -55.213521 -76.72732 
L -54.369923 -77.937998 
L -52.271294 -76.985012 
L -45.288859 -76.739389 
L -44.36738 -74.865328 
L -43.591659 -75.12274 
L -43.382873 -74.177537 
L -37.990291 -69.866832 
L -37.547606 -67.879611 
L -34.55645 -63.579917 
L -34.085082 -61.160179 
L -31.917803 -59.714338 
L -29.701079 -55.966206 
L -26.549035 -54.013574 
L -26.020796 -48.496228 
L -23.904489 -46.110809 
L -22.498069 -41.917561 
L -19.473094 -41.389318 
L -13.735685 -38.309944 
L -8.155832 -37.845515 
L -5.831256 -36.02106 
L -2.994185 -37.172471 
L -3.250769 -34.656136 
L -6.163956 -29.011163 
L -8.072191 -22.125114 
L -8.803614 -14.754722 
L -9.764186 -14.575684 
L -9.154606 -13.159368 
L -8.774167 -14.066412 
L -8.973464 -6.103995 
L -10.447205 -2.202167 
L -9.885216 -2.966484 
L -9.154606 2.989284 
L -7.665934 5.688467 
L -4.748712 8.540514 
L -5.763746 11.524734 
L -6.295475 9.818317 
L -5.28407 8.78375 
L -7.810769 6.117497 
L -9.357929 2.989284 
L -8.133108 7.755929 
L -6.465721 9.372402 
L -6.53915 10.204279 
L -3.105934 18.02482 
L 3.779059 26.101258 
L 5.42264 31.666 
L 10.7528 37.193164 
L 8.709406 36.607885 
L 10.211394 37.689754 
L 9.768422 38.056714 
L 12.581152 38.404248 
L 10.994452 37.636972 
L 10.95048 37.193164 
L 12.429863 38.00604 
L 16.331869 38.177481 
L 17.975857 39.64194 
L 20.328681 40.182449 
L 22.371668 43.525181 
L 23.501277 43.998556 
L 30.301142 42.664578 
L 32.330814 41.221249 
L 29.721406 42.189522 
L 32.569235 41.039243 
L 36.501501 40.897357 
L 36.771797 41.960224 
L 36.681434 41.044733 
L 39.47613 40.658812 
L 40.852528 39.34972 
L 41.326562 41.039243 
L 41.061095 39.106495 
L 43.943635 38.531189 
L 48.475477 38.321951 
L 49.283461 39.285534 
L 48.454408 38.962077 
L 47.436955 39.821829 
L 49.068033 40.246635 
L 48.255111 39.331985 
L 48.932478 39.467955 
L 49.801874 41.461943 
L 49.960025 40.395277 
L 53.051935 40.966193 
L 52.877654 40.182449 
L 56.070824 38.681678 
L 54.914177 38.971365 
L 55.242574 37.860781 
L 53.763588 37.051704 
L 55.52336 35.55769 
L 52.865548 37.021297 
L 60.162033 31.908385 
L 61.011263 27.303894 
L 63.052535 25.54812 
L 62.932814 19.196634 
L 64.494499 14.025025 
L 69.912206 11.408606 
L 76.588206 10.596997 
L 83.179494 8.393564 
L 84.641139 8.606393 
L 86.778922 8.246188 
L 85.288643 8.407076 
L 86.335959 7.968758 
L 94.986773 9.789186 
L 96.162773 8.518555 
L 93.437987 8.819222 
L 96.429044 7.891899 
L 99.240159 9.865193 
L 99.368049 12.236695 
L 100.096646 12.658544 
L 98.770565 15.866147 
L 93.266124 22.446039 
L 93.22942 25.88927 
L 92.777168 26.977895 
L 93.132999 25.637597 
L 92.794915 25.104685 
L 93.026088 25.88843 
L 90.917742 28.54032 
L 90.185517 28.146761 
L 90.853594 29.869638 
L 93.158004 29.371782 
L 92.287398 29.0196 
L 93.167691 28.51752 
L 93.442022 29.123057 
L 92.989373 30.395369 
L 90.833427 31.888117 
L 91.198935 32.824728 
L 92.964358 31.78931 
L 89.160796 43.454238 
L 88.262349 40.896942 
L 86.848315 40.320951 
L 87.597891 38.333305 
L 87.259818 36.414909 
L 86.357336 37.917361 
L 86.284313 37.50945 
L 85.648509 37.816436 
L 85.162775 38.269543 
L 86.124963 38.245892 
L 84.810572 40.395277 
L 82.386342 40.782319 
L 78.980173 46.627075 
L 77.214581 45.50354 
L 76.178597 46.106866 
L 76.113527 47.422391 
L 58.045409 47.461537 
L 57.954729 53.258825 
L 53.487967 53.403627 
L 55.103955 54.004276 
L 57.330673 56.827836 
L 59.888366 57.892374 
L 61.513059 61.235065 
L 63.874529 61.900596 
L 63.453112 65.225064 
L 50.53985 65.618156 
L 45.865593 73.805429 
L 47.228725 75.863977 
L 46.431498 76.671092 
L 45.718805 81.3057 
L 39.626091 74.956393 
L 40.649195 75.667929 
L 40.341778 74.849564 
L 38.212859 73.872843 
L 26.718659 63.897852 
L 24.17219 63.152111 
L 23.803043 63.70276 
L 28.488921 66.276951 
L 24.242386 64.407114 
L 20.96853 64.179092 
L 22.372065 62.86286 
L 21.487747 62.475207 
L 20.267358 63.577343 
L 19.419348 61.844327 
L 17.583321 63.467131 
L 19.8611 63.287667 
L 18.906982 63.719229 
L 20.144316 63.790172 
L 20.526768 64.189221 
L 16.735916 64.31089 
L 13.908452 66.50655 
L 5.955232 69.537398 
L 3.295893 69.799708 
L -4.250911 66.916143 
L -9.274664 66.464271 
L -13.23492 64.080274 
L -12.342532 64.286772 
L -12.206977 64.151217 
L -17.009452 62.984624 
L -19.230866 60.489947 
L -28.019227 59.005615 
L -31.275207 56.809945 
L -41.857665 53.131001 
L -51.086807 45.757402 
L -53.077216 46.367235 
L -64.687518 42.726358 
L -70.818186 36.415408 
L -74.30512 34.886565 
L -74.529829 33.956119 
L -75.374726 34.27063 
L -80.868439 31.566342 
L -81.801101 29.29481 
L -86.142917 24.408353 
L -87.858737 20.51684 
L -83.347131 18.683564 
L -84.317628 16.908175 
L -86.333994 16.768521 
L -83.254775 13.729163 
L -82.765382 9.764269 
L -85.377427 7.813111 
L -87.200228 4.443375 
L -88.037034 -1.352128 
L -88.864878 -2.641751 
L -95.107602 -8.315025 
L -96.029854 -10.62318 
L -98.711065 -12.956253 
L -101.116735 -16.572193 
L -108.445096 -21.726491 
L -108.689575 -22.086685 
L -105.698924 -20.341008 
L -106.012796 -22.188035 
L -106.949166 -21.529707 
L -110.049544 -23.401236 
L -108.757352 -22.261085 
L -109.769164 -22.768665 
L -111.273562 -24.933243 
L -110.466291 -24.627522 
L -110.52923 -26.666269 
L -111.15858 -27.164551 
L -111.544671 -25.314141 
L -113.926535 -28.303 
L -112.492741 -26.956372 
L -112.032021 -27.771779 
L -110.71077 -27.475772 
L -112.837269 -28.94655 
L -114.163756 -28.908547 
L -114.258967 -29.944815 
L -114.634162 -28.656874 
L -114.98918 -29.856137 
L -117.932627 -30.866212 
L -116.5666 -30.795269 
L -118.267875 -31.102691 
L -118.299751 -32.755476 
L -119.562496 -32.963656 
L -119.893312 -31.989467 
L -121.741841 -32.715356 
L -120.396794 -32.801502 
L -118.984782 -35.499844 
L -121.206483 -33.275292 
L -123.070747 -34.270599 
L -122.142051 -32.927759 
L -124.658657 -33.855081 
L -123.434649 -34.524804 
L -124.338737 -35.055184 
L -124.658657 -34.3445 
L -124.886201 -37.75226 
L -123.190161 -40.683273 
L -123.295465 -39.271181 
L -122.738721 -41.097099 
L -121.674867 -39.773686 
L -121.465487 -40.541387 
L -121.741841 -40.525343 
L -122.14447 -41.30697 
L -122.419208 -41.456038 
L -123.065502 -40.998292 
L -123.126022 -42.695411 
L -125.383624 -45.234338 
L -126.071313 -44.968344 
L -125.49232 -44.4719 
L -128.369437 -44.993438 
L -130.169959 -49.035035 
L -133.357021 -49.445177 
L -135.684087 -50.918415 
L -134.725319 -51.0383 
L -135.967689 -51.82163 
L -136.722877 -54.55839 
L -135.939451 -55.614086 
L -136.449388 -55.712893 
L -136.548635 -56.464539 
L -135.594517 -56.967055 
L -138.924044 -57.314588 
L -138.822388 -58.173074 
L -139.292784 -56.610649 
L -140.412717 -57.909996 
L -141.461382 -57.612307 
L -144.76414 -62.300392 
L -147.443249 -63.058275 
L -149.832966 -66.133986 
L -149.028432 -66.617728 
L -151.98574 -68.315532 
L -152.708972 -71.93336 
L -154.412042 -72.238375 
L -154.080195 -73.701661 
L -157.734114 -78.109502 
L -157.912639 -81.233802 
L -161.04176 -85.99641 
L -161.15924 -91.514421 
L -162.558769 -92.405659 
L -166.419272 -92.795378 
L -166.789172 -94.579909 
L -169.943198 -96.297774 
L -169.678553 -95.311339 
L -170.45134 -94.517632 
L -172.235463 -94.73291 
L -180.371135 -99.492705 
L -177.904142 -96.222607 
L -178.929468 -90.669281 
L -177.208353 -88.569854 
L -176.41663 -84.174404 
L -176.764975 -81.109766 
L -175.450267 -78.706083 
L -173.944402 -76.697981 
L -172.231467 -76.389998 
L -166.558693 -71.589252 
L -165.453425 -67.535534 
L -164.559222 -68.244423 
L -163.764166 -66.58812 
L -162.433476 -66.843093 
L -161.270543 -63.519487 
L -158.725759 -62.860432 
L -158.001128 -56.870603 
L -156.263962 -54.695357 
L -153.851758 -53.585198 
L -152.444357 -50.089319 
L -149.842801 -48.873172 
L -150.504999 -47.682066 
L -149.05304 -46.120907 
L -149.344505 -44.942908 
L -148.195988 -43.461337 
L -147.130329 -43.565769 
L -148.496505 -44.943095 
L -148.861705 -46.662682 
L -145.972899 -44.746705 
L -146.019667 -43.318175 
L -144.804771 -42.898132 
L -145.068791 -41.880875 
L -143.613006 -38.546258 
L -143.465067 -35.235977 
L -141.648484 -32.653088 
L -140.611002 -32.496674 
L -139.472737 -28.633658 
L -137.285708 -25.93486 
L -137.828215 -22.526913 
L -136.552234 -19.404772 
L -133.729549 -18.595134 
L -134.792749 -18.573424 
L -134.083129 -17.924456 
L -133.487787 -19.024082 
L -133.801679 -20.183836 
L -132.81162 -20.333391 
L -130.574571 -18.419925 
L -130.382888 -17.252346 
L -128.802831 -17.423383 
L -127.494409 -13.300476 
L -125.230818 -12.154949 
L -124.691544 -10.458785 
L -125.490456 -7.968457 
L -129.468013 -5.088316 
L -130.501935 -5.298353 
L -133.552739 -12.008559 
L -144.826653 -20.138132 
L -143.986911 -19.78457 
L -147.152508 -22.856534 
L -148.479878 -22.021596 
L -150.417858 -25.847894 
L -150.004739 -24.494925 
L -150.688154 -25.493179 
L -151.207777 -24.797698 
L -151.295801 -27.145435 
L -151.771809 -25.842861 
L -151.97875 -26.671438 
L -150.640008 -32.064592 
L -151.172154 -32.141451 
L -151.142409 -34.628614 
L -151.36688 -32.381521 
L -152.10902 -37.062144 
L -154.327518 -40.020295 
L -157.167286 -40.876674 
L -160.851604 -43.74488 
L -161.429962 -45.768309 
L -162.389325 -45.253133 
L -161.694607 -47.595079 
L -162.932 -45.336384 
L -164.919336 -45.876862 
L -166.566694 -45.056774 
L -168.343917 -47.375577 
L -170.215924 -47.671086 
L -171.968438 -49.354278 
L -174.478729 -49.735477 
L -175.18583 -52.12048 
L -180.304061 -55.587788 
L -180.91024 -56.737269 
L -175.112421 -55.938352 
L -173.30017 -56.982674 
L -172.964109 -55.541451 
L -171.184964 -54.151319 
L -170.906597 -55.069768 
L -169.701139 -54.709564 
L -169.357008 -55.37001 
L -170.750875 -56.219622 
L -170.677446 -55.378457 
L -171.562181 -55.489936 
L -171.68563 -57.712371 
L -172.905344 -57.257136 
L -171.496823 -59.154018 
L -171.659891 -58.330392 
L -171.219338 -57.535304 
L -171.366295 -58.521541 
L -170.55836 -58.570784 
L -171.402573 -60.936879 
L -170.840842 -63.658851 
L -179.801888 -72.581104 
L -181.934436 -73.108952 
L -186.99534 -76.504684 
L -187.018491 -77.980288 
L -188.121885 -78.706633 
L -188.380819 -82.63426 
L -189.750148 -83.203018 
L -189.337832 -83.705098 
L -189.885693 -84.201272 
L -190.039025 -82.766038 
L -190.482264 -84.01582 
L -190.568305 -87.366648 
L -193.319792 -88.963424 
L -193.380232 -91.694974 
L -196.692419 -95.151718 
L -196.419297 -96.257238 
L -197.433776 -97.22439 
L -196.375315 -97.036759 
L -196.059966 -98.163792 
L -198.574034 -99.929342 
z
" clip-path="url(#pbb38692467)" style="fill: #eeeeee; stroke: #000000; stroke-width: 0.3"/>
    <path d="M -153.35485 -24.992791 
L -151.57743 -29.908265 
L -152.453786 -25.567153 
L -151.481227 -23.925109 
L -151.68786 -23.339602 
L -150.928815 -22.381945 
L -152.083261 -23.554215 
L -151.879215 -24.486384 
z
" clip-path="url(#pbb38692467)" style="fill: #eeeeee; stroke: #000000; stroke-width: 0.3"/>
    <path d="M -166.090448 -72.911596 
L -165.912379 -74.264358 
L -164.167539 -73.427572 
L -163.920929 -71.878067 
L -161.920505 -71.526352 
L -161.387755 -68.499759 
L -165.168137 -71.620614 
z
" clip-path="url(#pbb38692467)" style="fill: #eeeeee; stroke: #000000; stroke-width: 0.3"/>
    <path d="M -156.115488 -67.367382 
L -155.152546 -68.366373 
L -154.942353 -70.547846 
L -152.955691 -71.223029 
L -152.274239 -68.882203 
L -153.058012 -66.257212 
z
" clip-path="url(#pbb38692467)" style="fill: #eeeeee; stroke: #000000; stroke-width: 0.3"/>
    <path d="M -183.629157 -59.139998 
L -182.45628 -60.707332 
L -182.544382 -62.011919 
L -181.624163 -59.743998 
L -182.34114 -58.576938 
z
" clip-path="url(#pbb38692467)" style="fill: #eeeeee; stroke: #000000; stroke-width: 0.3"/>
    <path d="M 100.096646 11.376518 
L 100.235839 11.84102 
L 100.502903 12.297499 
L 100.116416 11.84186 
z
" clip-path="url(#pbb38692467)" style="fill: #eeeeee; stroke: #000000; stroke-width: 0.3"/>
    <path d="M 97.581249 22.033053 
L 97.850336 19.485895 
L 100.02282 18.593619 
L 99.54596 19.784445 
z
" clip-path="url(#pbb38692467)" style="fill: #eeeeee; stroke: #000000; stroke-width: 0.3"/>
    <path d="M 94.865743 37.831225 
L 95.073914 38.477723 
L 94.927463 38.971365 
L 94.970225 38.677465 
z
" clip-path="url(#pbb38692467)" style="fill: #eeeeee; stroke: #000000; stroke-width: 0.3"/>
    <path d="M 70.311295 -2.006576 
L 71.655292 -0.801003 
L 71.119537 0.133127 
L 71.208998 -0.914329 
z
" clip-path="url(#pbb38692467)" style="fill: #eeeeee; stroke: #000000; stroke-width: 0.3"/>
    <path d="M -9.97317 -3.123574 
L -9.529395 -3.929278 
L -9.431764 -4.057226 
L -9.506799 -3.527271 
z
" clip-path="url(#pbb38692467)" style="fill: #eeeeee; stroke: #000000; stroke-width: 0.3"/>
    <path d="M -97.398399 7.169353 
L -95.926106 8.165937 
L -96.12448 8.740921 
L -97.10401 8.126221 
z
" clip-path="url(#pbb38692467)" style="fill: #eeeeee; stroke: #000000; stroke-width: 0.3"/>
    <path d="M -130.945948 -48.80804 
L -130.359023 -48.627134 
L -129.890937 -48.124815 
L -130.420485 -48.571374 
z
" clip-path="url(#pbb38692467)" style="fill: #eeeeee; stroke: #000000; stroke-width: 0.3"/>
    <path d="M -137.552653 -28.135875 
L -136.205474 -27.312705 
L -135.709865 -25.904163 
L -136.8737 -26.262167 
z
" clip-path="url(#pbb38692467)" style="fill: #eeeeee; stroke: #000000; stroke-width: 0.3"/>
    <path d="M -142.452522 -35.490721 
L -142.16535 -37.977127 
L -140.978969 -38.272636 
L -142.212703 -36.515751 
z
" clip-path="url(#pbb38692467)" style="fill: #eeeeee; stroke: #000000; stroke-width: 0.3"/>
    <path d="M -177.958604 -97.750401 
L -177.204586 -97.342479 
L -176.635746 -96.574789 
L -177.725022 -96.843357 
z
" clip-path="url(#pbb38692467)" style="fill: #eeeeee; stroke: #000000; stroke-width: 0.3"/>
    <path d="M -213.446146 -70.027118 
L -212.537675 -70.628098 
L -212.062252 -67.779268 
L -212.686664 -67.291831 
z
" clip-path="url(#pbb38692467)" style="fill: #eeeeee; stroke: #000000; stroke-width: 0.3"/>
    <path d="M 93.772432 41.318365 
L 94.459486 39.609 
L 94.217823 40.779973 
z
" clip-path="url(#pbb38692467)" style="fill: #eeeeee; stroke: #000000; stroke-width: 0.3"/>
    <path d="M 49.520285 38.737428 
L 52.532312 37.264522 
L 52.674322 37.689754 
z
" clip-path="url(#pbb38692467)" style="fill: #eeeeee; stroke: #000000; stroke-width: 0.3"/>
    <path d="M -8.404217 5.411451 
L -7.665934 6.680391 
L -8.191605 6.283034 
z
" clip-path="url(#pbb38692467)" style="fill: #eeeeee; stroke: #000000; stroke-width: 0.3"/>
    <path d="M -93.616064 11.096379 
L -93.424134 10.894654 
L -93.101914 11.340185 
z
" clip-path="url(#pbb38692467)" style="fill: #eeeeee; stroke: #000000; stroke-width: 0.3"/>
    <path d="M -95.730398 9.494601 
L -95.402943 9.226022 
L -94.684232 9.996566 
z
" clip-path="url(#pbb38692467)" style="fill: #eeeeee; stroke: #000000; stroke-width: 0.3"/>
    <path d="M -97.676935 6.611357 
L -97.367842 6.683525 
L -97.578005 6.816797 
z
" clip-path="url(#pbb38692467)" style="fill: #eeeeee; stroke: #000000; stroke-width: 0.3"/>
    <path d="M -120.720352 -31.787618 
L -119.608887 -31.783395 
L -118.474033 -31.149558 
z
" clip-path="url(#pbb38692467)" style="fill: #eeeeee; stroke: #000000; stroke-width: 0.3"/>
    <path d="M -129.843208 -20.657263 
L -128.550768 -18.194062 
L -129.518122 -18.839346 
z
" clip-path="url(#pbb38692467)" style="fill: #eeeeee; stroke: #000000; stroke-width: 0.3"/>
    <path d="M -134.627331 -22.682882 
L -133.359411 -21.646561 
L -133.956052 -20.948226 
z
" clip-path="url(#pbb38692467)" style="fill: #eeeeee; stroke: #000000; stroke-width: 0.3"/>
    <path d="M -136.259133 -25.293603 
L -136.149079 -25.52891 
L -136.071605 -25.229769 
z
" clip-path="url(#pbb38692467)" style="fill: #eeeeee; stroke: #000000; stroke-width: 0.3"/>
    <path d="M -136.499418 -51.874837 
L -136.385665 -52.232582 
L -135.803193 -50.856179 
z
" clip-path="url(#pbb38692467)" style="fill: #eeeeee; stroke: #000000; stroke-width: 0.3"/>
    <path d="M -137.770283 -30.137833 
L -137.341796 -30.349904 
L -137.731922 -29.847544 
z
" clip-path="url(#pbb38692467)" style="fill: #eeeeee; stroke: #000000; stroke-width: 0.3"/>
    <path d="M -138.491979 -33.837158 
L -138.173536 -34.546764 
L -137.97299 -33.356436 
z
" clip-path="url(#pbb38692467)" style="fill: #eeeeee; stroke: #000000; stroke-width: 0.3"/>
    <path d="M -138.794548 32.072656 
L -138.314861 31.859827 
L -138.736853 32.280835 
z
" clip-path="url(#pbb38692467)" style="fill: #eeeeee; stroke: #000000; stroke-width: 0.3"/>
    <path d="M -140.893048 -34.109244 
L -140.610705 -34.35054 
L -140.702754 -33.913695 
z
" clip-path="url(#pbb38692467)" style="fill: #eeeeee; stroke: #000000; stroke-width: 0.3"/>
    <path d="M -141.086852 37.517472 
L -140.425626 36.485001 
L -139.669595 37.946927 
z
" clip-path="url(#pbb38692467)" style="fill: #eeeeee; stroke: #000000; stroke-width: 0.3"/>
    <path d="M -142.982992 -35.258725 
L -142.874237 -35.442797 
L -142.858551 -35.095824 
z
" clip-path="url(#pbb38692467)" style="fill: #eeeeee; stroke: #000000; stroke-width: 0.3"/>
    <path d="M -143.25773 -38.597618 
L -143.034856 -38.928775 
L -143.039992 -38.617066 
z
" clip-path="url(#pbb38692467)" style="fill: #eeeeee; stroke: #000000; stroke-width: 0.3"/>
    <path d="M -144.261461 -58.159292 
L -144.044794 -57.799399 
L -144.207039 -57.839281 
z
" clip-path="url(#pbb38692467)" style="fill: #eeeeee; stroke: #000000; stroke-width: 0.3"/>
    <path d="M -147.095241 -20.491082 
L -146.9418 -20.665596 
L -145.010205 -20.193965 
z
" clip-path="url(#pbb38692467)" style="fill: #eeeeee; stroke: #000000; stroke-width: 0.3"/>
    <path d="M -149.354112 -52.567184 
L -148.911031 -52.449312 
L -148.943026 -52.369102 
z
" clip-path="url(#pbb38692467)" style="fill: #eeeeee; stroke: #000000; stroke-width: 0.3"/>
    <path d="M -150.402708 -22.110015 
L -148.990359 -22.173102 
L -147.44084 -19.883491 
z
" clip-path="url(#pbb38692467)" style="fill: #eeeeee; stroke: #000000; stroke-width: 0.3"/>
    <path d="M -151.201878 -49.803711 
L -150.783524 -50.153465 
L -150.991992 -49.762438 
z
" clip-path="url(#pbb38692467)" style="fill: #eeeeee; stroke: #000000; stroke-width: 0.3"/>
    <path d="M -151.551929 -30.077454 
L -151.307847 -32.191275 
L -151.369428 -30.702325 
z
" clip-path="url(#pbb38692467)" style="fill: #eeeeee; stroke: #000000; stroke-width: 0.3"/>
    <path d="M -156.326831 -65.230284 
L -155.767718 -65.84377 
L -155.827028 -65.259902 
z
" clip-path="url(#pbb38692467)" style="fill: #eeeeee; stroke: #000000; stroke-width: 0.3"/>
    <path d="M -158.869057 -65.25546 
L -157.794733 -64.417149 
L -158.008079 -64.258379 
z
" clip-path="url(#pbb38692467)" style="fill: #eeeeee; stroke: #000000; stroke-width: 0.3"/>
    <path d="M -162.87263 -44.884491 
L -161.979032 -45.003992 
L -161.618363 -44.429703 
z
" clip-path="url(#pbb38692467)" style="fill: #eeeeee; stroke: #000000; stroke-width: 0.3"/>
    <path d="M -165.348963 -69.213817 
L -165.253672 -69.617453 
L -165.127794 -69.033927 
z
" clip-path="url(#pbb38692467)" style="fill: #eeeeee; stroke: #000000; stroke-width: 0.3"/>
    <path d="M -174.348587 -78.688285 
L -174.148626 -78.893745 
L -174.078549 -78.625478 
z
" clip-path="url(#pbb38692467)" style="fill: #eeeeee; stroke: #000000; stroke-width: 0.3"/>
    <path d="M -178.082053 42.061574 
L -177.342966 41.812008 
L -177.311497 41.907868 
z
" clip-path="url(#pbb38692467)" style="fill: #eeeeee; stroke: #000000; stroke-width: 0.3"/>
    <path d="M -182.264042 -57.12733 
L -181.688966 -56.916691 
L -181.711086 -56.73978 
z
" clip-path="url(#pbb38692467)" style="fill: #eeeeee; stroke: #000000; stroke-width: 0.3"/>
    <path d="M -185.95188 -61.370423 
L -185.911666 -61.497843 
L -185.677697 -61.472873 
z
" clip-path="url(#pbb38692467)" style="fill: #eeeeee; stroke: #000000; stroke-width: 0.3"/>
    <path d="M -187.552649 -26.676398 
L -187.538124 -26.664578 
L -187.5478 -26.662046 
z
" clip-path="url(#pbb38692467)" style="fill: #eeeeee; stroke: #000000; stroke-width: 0.3"/>
    <path d="M -191.211129 -84.073667 
L -191.0807 -84.179313 
L -191.026793 -84.046912 
z
" clip-path="url(#pbb38692467)" style="fill: #eeeeee; stroke: #000000; stroke-width: 0.3"/>
    <path d="M -202.338126 -104.09729 
L -202.281502 -103.832561 
L -202.320011 -103.82867 
z
" clip-path="url(#pbb38692467)" style="fill: #eeeeee; stroke: #000000; stroke-width: 0.3"/>
    <path d="M 75.359846 67.351981 
L 76.178597 46.106866 
L 77.214581 45.50354 
L 78.980173 46.627075 
L 82.386342 40.782319 
L 84.60725 40.5 
L 83.743089 41.649429 
L 84.471696 41.60552 
L 84.070276 42.343654 
L 86.660321 41.599179 
L 86.167319 42.285798 
L 86.678069 42.031167 
L 86.791027 43.314885 
L 84.767007 49.602568 
L 85.960765 50.559446 
L 84.781126 52.348201 
L 85.487136 56.214558 
L 84.200586 60.807218 
L 84.533415 59.377816 
L 82.299211 63.435458 
L 80.282042 63.862381 
L 78.181926 67.5 
z
" clip-path="url(#pbb38692467)" style="fill: #eeeeee; stroke: #000000; stroke-width: 0.3"/>
    <path d="M 87.530114 46.507284 
L 89.034521 43.734627 
L 88.46124 45.674566 
L 88.268397 46.087542 
L 87.958561 46.390315 
z
" clip-path="url(#pbb38692467)" style="fill: #eeeeee; stroke: #000000; stroke-width: 0.3"/>
    <path d="M 89.358476 52.839727 
L 89.461759 51.916213 
L 89.567053 52.839727 
z
" clip-path="url(#pbb38692467)" style="fill: #eeeeee; stroke: #000000; stroke-width: 0.3"/>
    <path d="M 88.702496 43.446216 
L 88.861449 43.447482 
L 88.731942 43.672972 
z
" clip-path="url(#pbb38692467)" style="fill: #eeeeee; stroke: #000000; stroke-width: 0.3"/>
    <path d="M 88.348281 52.981612 
L 89.709459 50.352532 
L 89.729636 50.716525 
z
" clip-path="url(#pbb38692467)" style="fill: #eeeeee; stroke: #000000; stroke-width: 0.3"/>
    <path d="M 88.046911 44.485017 
L 88.250243 44.417021 
L 88.075555 44.579175 
z
" clip-path="url(#pbb38692467)" style="fill: #eeeeee; stroke: #000000; stroke-width: 0.3"/>
    <path d="M 87.774602 44.690239 
L 87.99124 44.665322 
L 87.803643 44.755692 
z
" clip-path="url(#pbb38692467)" style="fill: #eeeeee; stroke: #000000; stroke-width: 0.3"/>
    <path d="M 87.067788 50.03413 
L 87.087955 49.581449 
L 87.185179 50.134629 
z
" clip-path="url(#pbb38692467)" style="fill: #eeeeee; stroke: #000000; stroke-width: 0.3"/>
    <path d="M 86.456583 50.550573 
L 86.948365 50.782403 
L 86.855583 51.088134 
z
" clip-path="url(#pbb38692467)" style="fill: #eeeeee; stroke: #000000; stroke-width: 0.3"/>
    <path d="M 86.236306 48.6913 
L 86.914476 48.252971 
L 86.591731 48.797289 
z
" clip-path="url(#pbb38692467)" style="fill: #eeeeee; stroke: #000000; stroke-width: 0.3"/>
    <path d="M 152.893032 31.277444 
L 153.555576 31.982244 
L 156.164469 31.901162 
L 153.181115 32.379197 
z
" clip-path="url(#pbb38692467)" style="fill: #eeeeee; stroke: #000000; stroke-width: 0.3"/>
    <path d="M 167.991121 28.063998 
L 169.457059 27.254963 
L 169.647988 27.468414 
z
" clip-path="url(#pbb38692467)" style="fill: #eeeeee; stroke: #000000; stroke-width: 0.3"/>
    <path d="M 165.815811 28.282068 
L 166.322129 27.84597 
L 167.292041 27.802186 
z
" clip-path="url(#pbb38692467)" style="fill: #eeeeee; stroke: #000000; stroke-width: 0.3"/>
   </g>
   <g id="PatchCollection_2">
    <path d="M 75.359846 67.351981 
L 76.178597 46.106866 
L 77.214581 45.50354 
L 78.980173 46.627075 
L 82.386342 40.782319 
L 84.60725 40.5 
L 83.743089 41.649429 
L 84.471696 41.60552 
L 84.070276 42.343654 
L 86.660321 41.599179 
L 86.167319 42.285798 
L 86.678069 42.031167 
L 86.791027 43.314885 
L 84.767007 49.602568 
L 85.960765 50.559446 
L 84.781126 52.348201 
L 85.487136 56.214558 
L 84.200586 60.807218 
L 84.533415 59.377816 
L 82.299211 63.435458 
L 80.282042 63.862381 
L 78.181926 67.5 
z
" clip-path="url(#pbb38692467)" style="fill: #ff6b6b; stroke: #dd0000; stroke-width: 0.5"/>
    <path d="M 87.530114 46.507284 
L 89.034521 43.734627 
L 88.46124 45.674566 
L 88.268397 46.087542 
L 87.958561 46.390315 
z
" clip-path="url(#pbb38692467)" style="fill: #ff6b6b; stroke: #dd0000; stroke-width: 0.5"/>
    <path d="M 89.358476 52.839727 
L 89.461759 51.916213 
L 89.567053 52.839727 
z
" clip-path="url(#pbb38692467)" style="fill: #ff6b6b; stroke: #dd0000; stroke-width: 0.5"/>
    <path d="M 88.702496 43.446216 
L 88.861449 43.447482 
L 88.731942 43.672972 
z
" clip-path="url(#pbb38692467)" style="fill: #ff6b6b; stroke: #dd0000; stroke-width: 0.5"/>
    <path d="M 88.348281 52.981612 
L 89.709459 50.352532 
L 89.729636 50.716525 
z
" clip-path="url(#pbb38692467)" style="fill: #ff6b6b; stroke: #dd0000; stroke-width: 0.5"/>
    <path d="M 88.046911 44.485017 
L 88.250243 44.417021 
L 88.075555 44.579175 
z
" clip-path="url(#pbb38692467)" style="fill: #ff6b6b; stroke: #dd0000; stroke-width: 0.5"/>
    <path d="M 87.774602 44.690239 
L 87.99124 44.665322 
L 87.803643 44.755692 
z
" clip-path="url(#pbb38692467)" style="fill: #ff6b6b; stroke: #dd0000; stroke-width: 0.5"/>
    <path d="M 87.067788 50.03413 
L 87.087955 49.581449 
L 87.185179 50.134629 
z
" clip-path="url(#pbb38692467)" style="fill: #ff6b6b; stroke: #dd0000; stroke-width: 0.5"/>
    <path d="M 86.456583 50.550573 
L 86.948365 50.782403 
L 86.855583 51.088134 
z
" clip-path="url(#pbb38692467)" style="fill: #ff6b6b; stroke: #dd0000; stroke-width: 0.5"/>
    <path d="M 86.236306 48.6913 
L 86.914476 48.252971 
L 86.591731 48.797289 
z
" clip-path="url(#pbb38692467)" style="fill: #ff6b6b; stroke: #dd0000; stroke-width: 0.5"/>
   </g>
  </g>
 </g>
 <defs>
  <clipPath id="pbb38692467">
   <rect x="0" y="0" width="165.089481" height="108"/>
  </clipPath>
 </defs>
</svg>
