<?xml version="1.0" encoding="utf-8" standalone="no"?>
<!DOCTYPE svg PUBLIC "-//W3C//DTD SVG 1.1//EN"
  "http://www.w3.org/Graphics/SVG/1.1/DTD/svg11.dtd">
<svg xmlns:xlink="http://www.w3.org/1999/xlink" width="153.237473pt" height="108pt" viewBox="0 0 153.237473 108" xmlns="http://www.w3.org/2000/svg" version="1.1">
 <metadata>
  <rdf:RDF xmlns:dc="http://purl.org/dc/elements/1.1/" xmlns:cc="http://creativecommons.org/ns#" xmlns:rdf="http://www.w3.org/1999/02/22-rdf-syntax-ns#">
   <cc:Work>
    <dc:type rdf:resource="http://purl.org/dc/dcmitype/StillImage"/>
    <dc:date>2025-09-05T15:49:27.531364</dc:date>
    <dc:format>image/svg+xml</dc:format>
    <dc:creator>
     <cc:Agent>
      <dc:title>Matplotlib v3.10.3, https://matplotlib.org/</dc:title>
     </cc:Agent>
    </dc:creator>
   </cc:Work>
  </rdf:RDF>
 </metadata>
 <defs>
  <style type="text/css">*{stroke-linejoin: round; stroke-linecap: butt}</style>
 </defs>
 <g id="figure_1">
  <g id="patch_1">
   <path d="M 0 108 
L 153.237473 108 
L 153.237473 0 
L 0 0 
z
" style="fill: #ffffff"/>
  </g>
  <g id="axes_1">
   <g id="PatchCollection_1">
    <path d="M -317.158465 132.025163 
L -314.816694 130.965959 
L -316.798857 129.134651 
L -315.028163 125.582517 
L -306.887898 124.999527 
L -306.484172 117.70447 
L -304.867449 119.592465 
L -303.711066 117.91561 
L -302.678005 119.178419 
L -292.065152 118.789068 
L -289.387035 120.945387 
L -284.836447 121.012338 
L -282.612306 118.349249 
L -276.982984 116.293866 
L -274.392572 115.852492 
L -274.308543 118.867859 
L -270.989229 119.692384 
L -265.203709 116.103316 
L -267.070717 115.038272 
L -267.465304 112.654828 
L -265.538023 110.70038 
L -269.343271 101.118171 
L -272.774011 96.468703 
L -272.784987 90.93031 
L -279.936946 90.268011 
L -283.199627 84.833682 
L -281.548189 73.875371 
L -287.602253 72.875225 
L -293.106433 69.788283 
L -292.571166 62.006528 
L -278.298287 44.349026 
L -274.887644 44.259432 
L -271.785722 49.737033 
L -269.643772 50.528072 
L -251.211251 45.381103 
L -250.612053 41.87545 
L -246.340968 37.526237 
L -242.723875 29.286126 
L -232.546723 23.695232 
L -227.199643 13.950279 
L -224.769989 6.162345 
L -214.623875 0.960781 
L -216.260695 -2.714293 
L -207.998027 -13.09374 
L -201.995116 -16.888307 
L -204.689673 -18.714513 
L -202.731336 -24.365163 
L -204.989272 -29.393677 
L -203.911457 -31.701937 
L -198.993679 -35.657195 
L -190.756587 -38.117895 
L -189.618481 -40.365881 
L -195.546483 -44.4437 
L -201.456209 -44.545154 
L -202.512107 -46.871951 
L -201.527459 -51.718167 
L -203.498593 -50.14998 
L -207.521231 -50.435805 
L -208.138689 -54.968372 
L -213.599033 -58.623893 
L -210.851504 -64.933234 
L -214.238408 -69.722784 
L -208.827396 -74.259477 
L -215.519015 -76.096506 
L -213.807286 -79.369373 
L -217.619834 -82.407901 
L -215.065957 -87.821141 
L -207.473737 -90.430155 
L -181.898362 -85.137961 
L -177.875723 -88.511246 
L -166.754099 -89.902795 
L -164.898068 -93.254454 
L -160.382177 -94.674845 
L -159.863968 -97.079057 
L -146.467368 -104.82047 
L -145.004086 -103.538088 
L -142.156089 -104.745267 
L -142.917867 -100.305922 
L -137.705969 -87.464758 
L -131.191565 -85.506702 
L -126.125826 -81.973763 
L -125.683727 -79.342585 
L -130.033362 -76.594008 
L -128.782008 -64.933234 
L -123.936399 -60.97688 
L -117.201193 -60.073086 
L -119.366616 -54.968372 
L -114.411702 -50.398831 
L -117.423887 -45.809258 
L -119.598519 -46.955226 
L -123.266852 -44.565763 
L -123.931821 -42.540756 
L -126.262828 -42.054078 
L -129.30264 -44.352033 
L -129.914618 -47.70421 
L -136.13674 -46.063909 
L -134.843354 -39.727799 
L -129.777615 -34.436622 
L -131.080139 -30.57614 
L -128.464133 -27.324381 
L -130.574108 -25.383845 
L -129.768477 -21.359583 
L -126.65913 -20.593578 
L -124.021913 -24.414454 
L -122.940404 -23.957056 
L -118.164578 -15.68936 
L -115.049858 -13.989841 
L -110.232565 -14.311204 
L -103.617676 -9.918201 
L -104.408689 -6.437782 
L -97.04664 -4.450905 
L -89.853568 0.473585 
L -92.246686 0.72389 
L -101.065619 9.538739 
L -100.778817 12.590142 
L -103.80949 16.336294 
L -103.023956 20.610343 
L -105.243537 22.448907 
L -106.944289 27.894078 
L -101.759806 32.07076 
L -98.953824 33.367035 
L -97.762744 31.044883 
L -91.586295 35.790662 
L -86.912404 37.37585 
L -84.676385 42.020176 
L -82.911683 41.375895 
L -74.787855 47.548763 
L -71.755344 46.323565 
L -65.132236 51.01218 
L -60.222677 50.668672 
L -58.942089 54.644002 
L -52.213935 55.655489 
L -49.568711 57.913261 
L -47.71998 55.132235 
L -39.455491 57.632081 
L -39.818104 55.858396 
L -34.814476 54.278868 
L -31.770087 57.013034 
L -26.164521 58.321149 
L -25.568981 63.943994 
L -22.436002 64.298324 
L -14.132221 69.752226 
L -8.438967 67.478986 
L -4.565226 73.157462 
L -1.333583 71.397151 
L 3.492848 72.242804 
L 11.078686 76.178469 
L 16.871507 72.877298 
L 18.019653 76.374181 
L 21.452231 77.545303 
L 23.501915 75.931273 
L 26.51615 76.906703 
L 31.515217 75.180396 
L 33.383144 77.135362 
L 36.804746 69.612144 
L 33.2717 62.301122 
L 34.228951 54.645038 
L 36.638508 49.079876 
L 35.58261 46.006328 
L 44.607073 42.468226 
L 48.008596 44.358294 
L 48.930213 47.384484 
L 46.925283 53.91218 
L 49.588784 58.220213 
L 46.72069 61.500794 
L 48.445198 62.558623 
L 48.870841 65.59715 
L 49.84179 64.886457 
L 53.197639 68.069192 
L 57.530836 67.413071 
L 65.873892 70.565948 
L 71.415526 69.464847 
L 75.333119 66.569491 
L 81.842044 69.152773 
L 92.084984 69.002386 
L 94.26985 67.070082 
L 96.045511 68.544031 
L 101.427288 67.330673 
L 102.37358 68.43588 
L 102.629344 66.87437 
L 105.804338 66.746646 
L 104.30452 62.072463 
L 106.087481 58.682695 
L 104.077991 55.093088 
L 99.694543 55.342059 
L 97.527052 53.902911 
L 98.080383 48.912348 
L 96.818089 47.540092 
L 103.674266 50.062521 
L 108.752802 47.262938 
L 109.889088 48.839895 
L 114.681317 47.61117 
L 117.534404 44.858507 
L 115.811611 43.431817 
L 116.513098 41.925419 
L 125.867209 37.790036 
L 125.486497 35.967139 
L 127.799934 32.549446 
L 130.080831 31.185483 
L 138.592864 30.969061 
L 139.728214 27.742137 
L 146.00817 24.160364 
L 144.95107 21.696994 
L 150.473526 18.334532 
L 153.595546 21.32311 
L 164.038838 23.918251 
L 166.162918 23.270502 
L 167.521332 19.750279 
L 170.220996 20.29486 
L 170.709122 17.860211 
L 176.5377 17.285095 
L 179.379157 19.83782 
L 181.693725 19.51853 
L 178.306821 22.476194 
L 178.672668 25.81956 
L 181.699505 23.917434 
L 183.308628 24.753559 
L 185.694446 29.471533 
L 180.555619 36.192051 
L 194.938121 37.271307 
L 198.613666 40.242883 
L 198.072921 42.682475 
L 199.298715 44.679677 
L 198.790863 46.687164 
L 196.836167 46.576442 
L 190.458784 52.564421 
L 190.798559 55.657542 
L 195.002053 62.769782 
L 190.515398 61.088801 
L 187.685678 57.31895 
L 177.740516 59.376925 
L 164.803037 70.456761 
L 159.715363 72.251036 
L 158.283154 78.70921 
L 160.217735 83.446239 
L 157.556073 85.995536 
L 157.700393 89.680915 
L 150.616026 96.50783 
L 149.649637 100.304469 
L 152.050073 101.612584 
L 152.393508 103.85748 
L 145.089911 117.676127 
L 142.1999 127.156364 
L 134.762942 124.196628 
L 130.265345 125.103552 
L 127.667615 123.03015 
L 129.799508 130.676946 
L 128.820339 141.651741 
L 127.015443 144.119636 
L 124.669819 143.601545 
L 125.296414 146.595285 
L 123.445845 150.358937 
L 125.263538 158.998683 
L 124.699036 160.436595 
L 122.627435 160.14509 
L 121.821822 164.262055 
L 120.027884 165.026326 
L 116.604444 161.093731 
L 114.69726 164.616386 
L 113.283293 150.304363 
L 110.879215 145.700201 
L 109.101734 130.155765 
L 107.952668 131.318655 
L 107.183573 129.654157 
L 104.854387 131.479845 
L 103.151796 129.827187 
L 103.471493 134.367487 
L 99.987762 138.809424 
L 100.904819 142.453604 
L 97.201876 145.344335 
L 93.813151 139.002026 
L 93.398449 142.986126 
L 92.384583 142.223389 
L 91.920567 137.150587 
L 89.251587 131.689968 
L 93.259626 122.31531 
L 97.126985 122.389995 
L 97.961834 120.013747 
L 99.280795 121.456283 
L 99.797786 119.635738 
L 102.346183 121.155509 
L 102.748071 117.567478 
L 106.419975 116.21352 
L 108.46052 106.538608 
L 111.248226 107.628367 
L 113.069561 105.804215 
L 105.119271 100.75252 
L 98.13173 101.900979 
L 91.008989 100.348758 
L 75.612622 101.383904 
L 65.96888 98.693529 
L 66.138777 84.852219 
L 63.034114 80.002913 
L 61.439309 81.599443 
L 62.297913 83.002314 
L 61.066639 85.244639 
L 57.418491 84.470083 
L 53.598625 81.519097 
L 52.265063 76.84593 
L 50.449208 75.68304 
L 49.569606 76.75219 
L 51.835761 79.768075 
L 45.542389 79.170674 
L 46.405553 77.898597 
L 45.416345 76.167147 
L 40.40084 72.251036 
L 39.386037 75.172164 
L 41.967329 75.394645 
L 42.612183 77.4114 
L 36.711578 81.641659 
L 35.364318 87.810401 
L 38.410528 88.646785 
L 43.189465 94.403513 
L 47.46785 94.368493 
L 48.699124 97.739725 
L 51.225604 98.693529 
L 50.151429 101.027521 
L 41.616577 100.591828 
L 39.521219 106.871312 
L 35.847512 106.039571 
L 34.201554 111.437345 
L 35.759824 114.319845 
L 42.219417 118.017581 
L 46.852213 118.583071 
L 45.801794 121.230194 
L 46.439349 125.797264 
L 44.026133 127.192421 
L 43.363003 131.282598 
L 47.429494 134.494175 
L 46.128791 139.207525 
L 50.784424 140.197366 
L 48.642491 144.719628 
L 50.51132 147.266852 
L 50.219038 153.244008 
L 52.873383 161.162756 
L 52.568021 165.395945 
L 49.813421 164.778752 
L 52.953523 171.796634 
L 49.576075 171.075616 
L 48.993509 168.816887 
L 48.993509 171.413821 
L 48.149151 170.314056 
L 47.789544 172.774735 
L 46.322337 172.574399 
L 47.303344 161.567055 
L 44.967335 165.256461 
L 45.890808 160.482717 
L 45.485174 160.082862 
L 43.839604 167.142921 
L 43.796441 168.816887 
L 45.001855 169.151046 
L 43.931658 172.980732 
L 42.441438 173.008318 
L 43.235456 168.249165 
L 42.576656 165.129933 
L 41.881886 171.663609 
L 40.76423 172.137272 
L 39.671019 169.769036 
L 39.291279 171.939367 
L 39.087021 168.871221 
L 38.439728 168.182672 
L 39.222221 172.706608 
L 38.313136 173.045611 
L 36.410088 164.982317 
L 37.316309 160.824969 
L 33.976262 159.377271 
L 32.763654 155.936875 
L 32.165268 155.703293 
L 33.203826 159.28969 
L 36.159803 160.598681 
L 36.720787 162.379721 
L 30.882187 169.564674 
L 19.692602 173.099148 
L 14.685421 177.576045 
L 13.38364 182.462524 
L 15.534091 187.968628 
L 13.997845 188.47472 
L 16.904931 190.12112 
L 11.748128 194.283331 
L 11.200099 196.688859 
L 12.779492 195.759412 
L 10.726856 198.174687 
L 11.80423 197.765922 
L 7.217071 200.364472 
L 6.00015 204.049811 
L 1.161258 201.180366 
L 5.047901 204.731065 
L -10.717336 210.684063 
L -11.662373 209.931413 
L -9.019977 209.099293 
L -9.1293 206.512105 
L -11.430789 206.101726 
L -14.471643 208.418039 
L -17.017672 214.431032 
L -14.834132 210.880333 
L -12.290984 210.199876 
L -13.366926 212.476445 
L -9.019977 210.199876 
L -16.020828 214.497545 
L -22.903748 221.56163 
L -23.827221 221.022311 
L -23.786939 223.4043 
L -34.885903 237.951819 
L -46.573177 245.433598 
L -48.528014 249.529316 
L -50.196597 249.552836 
L -49.274556 250.58852 
L -50.337559 252.010267 
L -65.383581 261.299038 
L -67.769948 265.240662 
L -66.682482 266.886245 
L -66.069708 264.69646 
L -65.757577 265.650224 
L -66.803311 272.205008 
L -76.426443 277.331547 
L -82.64047 276.136885 
L -85.323166 277.129597 
L -89.690247 288.18966 
L -91.502673 286.697355 
L -91.741451 283.141793 
L -93.320843 289.41432 
L -93.868889 286.068003 
L -95.74173 285.600838 
L -102.644782 289.727371 
L -106.650823 301.847456 
L -105.080057 312.239242 
L -104.106226 312.363318 
L -104.494609 316.757498 
L -106.763027 319.506912 
L -105.190811 319.056789 
L -102.042084 334.768932 
L -105.080057 329.027631 
L -105.190811 331.217415 
L -105.925846 329.708885 
L -106.650823 331.217415 
L -105.477066 333.577519 
L -101.807618 334.978994 
L -101.705489 339.607554 
L -104.411181 352.87281 
L -108.579766 359.146972 
L -107.496613 358.67008 
L -111.371767 368.089424 
L -111.971585 371.920745 
L -110.780558 375.816965 
L -112.008986 375.972673 
L -113.309336 377.512018 
L -110.538916 376.604476 
L -110.120326 397.50724 
L -115.423836 397.400186 
L -114.888728 396.50237 
L -120.205194 398.313408 
L -120.330336 402.638643 
L -126.796098 413.831713 
L -123.942232 417.307806 
L -119.234245 416.989074 
L -117.244887 420.115601 
L -125.458347 417.738456 
L -135.65397 421.294836 
L -139.70747 425.73444 
L -140.068527 428.198369 
L -139.134978 427.959923 
L -140.912884 430.103485 
L -141.949993 435.967248 
L -151.583182 441.702071 
L -155.159144 440.607169 
L -160.687044 435.879667 
L -168.674664 425.028849 
L -166.473855 423.137505 
L -168.955156 424.341894 
L -171.873749 416.803348 
L -172.778521 413.458646 
L -174.111942 404.295587 
L -173.844406 404.087955 
L -171.324253 409.752219 
L -171.971565 412.906332 
L -169.393879 412.621644 
L -171.09555 411.942004 
L -171.324253 406.485371 
L -175.065622 401.246914 
L -174.042901 398.589964 
L -175.582029 398.964665 
L -182.964069 376.015666 
L -190.228161 365.499805 
L -189.01124 363.990457 
L -192.541157 363.044805 
L -199.011248 347.05204 
L -197.008934 345.976612 
L -199.189611 346.312365 
L -201.453699 335.951415 
L -201.85647 330.944906 
L -200.638117 330.525597 
L -201.483906 329.369065 
L -201.965793 330.400703 
L -204.884368 323.015435 
L -206.056694 318.832933 
L -204.644158 318.635846 
L -206.298353 317.623681 
L -207.420322 313.056751 
L -206.079708 314.13218 
L -207.299492 312.239242 
L -208.327976 313.11272 
L -207.647593 311.411169 
L -208.763818 311.463071 
L -209.16947 309.295172 
L -211.935576 307.811796 
L -209.48305 306.154055 
L -211.66371 306.75909 
L -215.176358 302.119966 
L -214.308987 300.662541 
L -215.56186 296.852309 
L -217.477864 295.562771 
L -214.209739 296.243228 
L -217.239086 294.746059 
L -216.009226 292.977994 
L -217.771295 293.781731 
L -218.292014 292.297537 
L -216.50117 290.5157 
L -218.619983 291.192908 
L -223.41428 282.387527 
L -222.690752 279.986863 
L -223.41428 281.497007 
L -225.960309 273.136887 
L -224.622558 273.430464 
L -225.75462 271.813265 
L -224.753463 271.599156 
L -228.010081 257.73048 
L -226.91399 258.151423 
L -229.088904 252.736149 
L -227.768422 252.139227 
L -229.170883 251.343603 
L -230.547467 242.562539 
L -232.607314 239.43358 
L -232.377162 238.195925 
L -230.300063 240.197572 
L -230.05121 238.455459 
L -233.234476 235.338659 
L -232.647579 233.221048 
L -231.050918 234.53006 
L -233.936422 229.552751 
L -232.607314 227.42055 
L -231.4019 229.326483 
L -231.639246 226.526781 
L -233.139523 226.068545 
L -230.31157 223.659788 
L -231.522729 223.99311 
L -231.761507 220.714921 
L -234.474393 225.892566 
L -235.374853 224.99798 
L -235.108748 217.708424 
L -230.438144 219.625699 
L -235.497132 216.387254 
L -235.656794 214.362905 
L -233.451672 213.353989 
L -236.22066 213.276115 
L -236.039415 208.4237 
L -237.008915 209.084703 
L -237.516679 206.983317 
L -232.256333 188.895643 
L -233.076245 186.730195 
L -234.198214 187.37334 
L -233.287697 184.447946 
L -235.346095 183.625554 
L -233.969511 183.144616 
L -234.681532 181.509557 
L -238.120827 181.991313 
L -236.007776 180.136484 
L -239.011229 176.411401 
L -235.786249 175.074824 
L -238.674635 175.781232 
L -234.442754 171.266205 
L -233.266115 171.334333 
L -228.982463 168.996932 
L -239.264377 170.812853 
L -238.970947 167.172121 
L -236.007776 164.288087 
L -239.398163 165.946645 
L -240.123123 164.64736 
L -238.81991 160.292128 
L -235.766117 160.899574 
L -232.774171 158.75926 
L -240.751733 159.533796 
L -242.065022 159.116939 
L -241.970087 156.859007 
L -243.18844 158.972572 
L -244.741938 158.151794 
L -246.361612 158.630321 
L -243.573942 159.593812 
L -243.553792 162.594648 
L -245.931533 164.654675 
L -247.27646 164.02937 
L -248.484756 165.389467 
L -246.224963 165.647366 
L -245.99626 167.331079 
L -247.966917 166.187522 
L -247.144124 167.442997 
L -248.917717 167.005052 
L -249.060128 168.16563 
L -246.056675 168.27675 
L -243.709142 171.618204 
L -247.139811 180.014023 
L -264.180935 188.771567 
L -271.258038 189.712355 
L -283.379881 181.048671 
L -302.997083 158.288049 
L -300.717176 154.5646 
L -300.748815 156.206933 
L -298.444445 155.90038 
L -298.268963 158.709789 
L -293.539376 157.348058 
L -292.897844 155.236945 
L -291.128564 157.075568 
L -289.054347 154.601095 
L -287.966898 155.825755 
L -284.819602 153.377253 
L -281.187556 152.968489 
L -277.709411 146.17771 
L -275.420861 144.644843 
L -275.452517 142.156597 
L -277.293701 142.861391 
L -277.405905 145.41615 
L -282.033346 144.357743 
L -281.948486 145.632691 
L -287.290829 147.058484 
L -289.365046 149.282332 
L -291.665103 148.997664 
L -304.382293 143.839493 
L -309.931774 139.060885 
L -308.965156 137.747828 
L -310.212267 135.839462 
L -312.204505 135.352026 
L -311.10555 133.990295 
L -312.417389 134.377174 
L -312.466297 131.85323 
L -305.170566 126.729123 
L -312.132584 130.000017 
L -313.907608 132.539368 
z
" clip-path="url(#p73096b4f57)" style="fill: #eeeeee; stroke: #000000; stroke-width: 0.3"/>
    <path d="M 113.796412 366.329492 
L 114.603368 364.832323 
L 115.436219 366.151879 
L 116.569712 359.111293 
L 118.528862 359.349739 
L 117.205499 356.263754 
L 118.362006 350.234536 
L 117.5536 347.399973 
L 119.272523 343.516729 
L 119.496931 336.68216 
L 122.401118 332.034127 
L 123.579206 335.641612 
L 121.788344 336.673231 
L 123.126095 337.898707 
L 122.844154 342.318021 
L 121.080636 342.219896 
L 121.356815 344.139603 
L 120.007575 345.21828 
L 121.55821 346.249101 
L 122.02714 353.139659 
L 121.063385 355.119381 
L 119.483974 354.847688 
L 120.69227 356.744692 
L 120.324019 359.402439 
L 117.907463 361.94504 
L 117.5536 365.907752 
L 117.986579 364.682276 
L 118.649692 365.499805 
L 116.607113 370.467387 
L 117.977935 370.193243 
L 117.191111 373.565531 
z
" clip-path="url(#p73096b4f57)" style="fill: #eeeeee; stroke: #000000; stroke-width: 0.3"/>
    <path d="M 133.668388 462.887888 
L 134.150256 459.523713 
L 136.878962 458.44667 
L 138.459803 462.664033 
L 138.156298 466.969814 
L 136.939376 468.220425 
z
" clip-path="url(#p73096b4f57)" style="fill: #eeeeee; stroke: #000000; stroke-width: 0.3"/>
    <path d="M 111.307669 392.802341 
L 112.100502 386.394456 
L 113.843764 385.504494 
L 114.860104 387.979984 
L 113.982181 392.891377 
z
" clip-path="url(#p73096b4f57)" style="fill: #eeeeee; stroke: #000000; stroke-width: 0.3"/>
    <path d="M 123.242612 360.428397 
L 124.019361 359.691991 
L 124.019361 361.455172 
L 123.859698 361.675779 
z
" clip-path="url(#p73096b4f57)" style="fill: #eeeeee; stroke: #000000; stroke-width: 0.3"/>
    <path d="M 116.586981 347.59704 
L 116.586981 344.319668 
L 117.475934 344.105539 
L 117.322016 346.100688 
z
" clip-path="url(#p73096b4f57)" style="fill: #eeeeee; stroke: #000000; stroke-width: 0.3"/>
    <path d="M 35.183109 166.070741 
L 35.918144 165.26537 
L 36.026035 166.388656 
L 35.246405 167.172121 
z
" clip-path="url(#p73096b4f57)" style="fill: #eeeeee; stroke: #000000; stroke-width: 0.3"/>
    <path d="M 34.709866 170.041546 
L 35.925338 166.969353 
L 36.410088 166.763357 
L 36.280632 171.537918 
z
" clip-path="url(#p73096b4f57)" style="fill: #eeeeee; stroke: #000000; stroke-width: 0.3"/>
    <path d="M 144.498348 335.00088 
L 145.008993 335.127408 
L 144.728501 335.179311 
z
" clip-path="url(#p73096b4f57)" style="fill: #eeeeee; stroke: #000000; stroke-width: 0.3"/>
    <path d="M 137.251525 358.076406 
L 137.405426 357.884202 
L 137.284596 358.295399 
z
" clip-path="url(#p73096b4f57)" style="fill: #eeeeee; stroke: #000000; stroke-width: 0.3"/>
    <path d="M 133.116029 457.967346 
L 134.512745 454.27796 
L 135.070848 456.429615 
z
" clip-path="url(#p73096b4f57)" style="fill: #eeeeee; stroke: #000000; stroke-width: 0.3"/>
    <path d="M 132.824012 434.483055 
L 132.934784 431.872347 
L 133.297255 433.518747 
z
" clip-path="url(#p73096b4f57)" style="fill: #eeeeee; stroke: #000000; stroke-width: 0.3"/>
    <path d="M 131.221606 443.612051 
L 132.343575 443.838338 
L 132.339262 444.714248 
z
" clip-path="url(#p73096b4f57)" style="fill: #eeeeee; stroke: #000000; stroke-width: 0.3"/>
    <path d="M 130.088113 440.140023 
L 131.113715 438.692325 
L 130.755557 443.378468 
z
" clip-path="url(#p73096b4f57)" style="fill: #eeeeee; stroke: #000000; stroke-width: 0.3"/>
    <path d="M 127.585248 444.214654 
L 128.738873 442.871579 
L 130.226212 445.822126 
z
" clip-path="url(#p73096b4f57)" style="fill: #eeeeee; stroke: #000000; stroke-width: 0.3"/>
    <path d="M 123.356248 437.872365 
L 123.674141 436.122977 
L 124.032317 437.723951 
z
" clip-path="url(#p73096b4f57)" style="fill: #eeeeee; stroke: #000000; stroke-width: 0.3"/>
    <path d="M 122.02714 330.253087 
L 122.780876 329.998437 
L 123.126095 330.796492 
z
" clip-path="url(#p73096b4f57)" style="fill: #eeeeee; stroke: #000000; stroke-width: 0.3"/>
    <path d="M 121.257567 363.694448 
L 122.452907 362.747959 
L 123.367754 365.499805 
z
" clip-path="url(#p73096b4f57)" style="fill: #eeeeee; stroke: #000000; stroke-width: 0.3"/>
    <path d="M 117.442845 420.676845 
L 117.792378 418.078276 
L 119.223986 420.39421 
z
" clip-path="url(#p73096b4f57)" style="fill: #eeeeee; stroke: #000000; stroke-width: 0.3"/>
    <path d="M 115.009003 375.879412 
L 115.752681 373.294635 
L 116.825759 374.363586 
z
" clip-path="url(#p73096b4f57)" style="fill: #eeeeee; stroke: #000000; stroke-width: 0.3"/>
    <path d="M 108.359134 371.499822 
L 109.555905 372.577683 
L 108.974771 372.872098 
z
" clip-path="url(#p73096b4f57)" style="fill: #eeeeee; stroke: #000000; stroke-width: 0.3"/>
    <path d="M 48.641095 173.498983 
L 49.924176 172.802301 
L 49.86521 173.52332 
z
" clip-path="url(#p73096b4f57)" style="fill: #eeeeee; stroke: #000000; stroke-width: 0.3"/>
    <path d="M 44.156066 167.625474 
L 45.669299 166.014772 
L 45.240633 168.396781 
z
" clip-path="url(#p73096b4f57)" style="fill: #eeeeee; stroke: #000000; stroke-width: 0.3"/>
    <path d="M -92.236276 287.509203 
L -91.885294 286.815771 
L -90.925851 288.922838 
z
" clip-path="url(#p73096b4f57)" style="fill: #eeeeee; stroke: #000000; stroke-width: 0.3"/>
    <path d="M -219.422627 386.915139 
L -219.274471 386.847828 
L -219.218369 386.858372 
z
" clip-path="url(#p73096b4f57)" style="fill: #eeeeee; stroke: #000000; stroke-width: 0.3"/>
    <path d="M -219.744833 400.532393 
L -219.727564 400.467515 
L -219.687299 400.581047 
z
" clip-path="url(#p73096b4f57)" style="fill: #eeeeee; stroke: #000000; stroke-width: 0.3"/>
    <path d="M -220.134648 402.211222 
L -219.934703 401.468318 
L -219.986492 401.971162 
z
" clip-path="url(#p73096b4f57)" style="fill: #eeeeee; stroke: #000000; stroke-width: 0.3"/>
    <path d="M -230.889824 438.125401 
L -229.831133 437.067831 
L -230.147595 437.826142 
z
" clip-path="url(#p73096b4f57)" style="fill: #eeeeee; stroke: #000000; stroke-width: 0.3"/>
    <path d="M -231.237924 373.524969 
L -231.122839 373.651497 
L -231.216343 373.860743 
z
" clip-path="url(#p73096b4f57)" style="fill: #eeeeee; stroke: #000000; stroke-width: 0.3"/>
    <path d="M -235.374853 379.361983 
L -234.928936 378.293849 
L -235.28568 379.701803 
z
" clip-path="url(#p73096b4f57)" style="fill: #eeeeee; stroke: #000000; stroke-width: 0.3"/>
    <path d="M -235.920017 381.251692 
L -235.920017 381.149501 
L -235.823651 381.237899 
z
" clip-path="url(#p73096b4f57)" style="fill: #eeeeee; stroke: #000000; stroke-width: 0.3"/>
    <path d="M -236.601849 369.739073 
L -236.528478 369.621474 
L -236.525615 369.721234 
z
" clip-path="url(#p73096b4f57)" style="fill: #eeeeee; stroke: #000000; stroke-width: 0.3"/>
    <path d="M -237.900749 392.295531 
L -237.526754 391.912718 
L -237.705117 392.203067 
z
" clip-path="url(#p73096b4f57)" style="fill: #eeeeee; stroke: #000000; stroke-width: 0.3"/>
    <path d="M -239.431251 387.875401 
L -239.291721 387.819432 
L -239.425489 387.947574 
z
" clip-path="url(#p73096b4f57)" style="fill: #eeeeee; stroke: #000000; stroke-width: 0.3"/>
    <path d="M -245.826523 386.436632 
L -245.455408 385.851051 
L -245.455408 386.122764 
z
" clip-path="url(#p73096b4f57)" style="fill: #eeeeee; stroke: #000000; stroke-width: 0.3"/>
    <path d="M -220.571975 -178.806263 
L -220.133534 -183.610244 
L -216.498183 -184.155104 
L -215.025763 -186.27694 
L -216.847097 -190.341365 
L -214.052074 -195.474941 
L -207.740443 -196.47407 
L -201.165748 -201.209026 
L -198.40178 -201.107054 
L -199.722562 -202.99198 
L -198.874935 -204.803775 
L -192.537727 -203.400904 
L -186.068979 -207.220186 
L -183.913349 -200.420039 
L -173.973666 -203.399867 
L -172.747872 -201.449027 
L -167.517715 -206.507419 
L -166.838128 -209.850825 
L -163.071254 -214.801067 
L -141.613523 -215.325357 
L -136.761515 -219.927447 
L -136.577001 -222.062657 
L -131.303009 -225.150636 
L -112.050241 -232.072845 
L -110.364088 -234.506239 
L -103.500753 -235.141251 
L -102.843101 -239.212891 
L -105.046243 -247.321132 
L -103.199333 -250.738207 
L -97.890626 -251.97937 
L -101.080237 -254.968984 
L -93.562909 -257.380751 
L -96.224571 -260.903924 
L -94.989638 -263.547958 
L -101.597227 -276.755292 
L -101.297628 -287.346915 
L -98.886233 -288.843526 
L -103.261444 -290.597638 
L -107.733482 -290.152657 
L -110.093724 -292.346587 
L -105.760527 -294.907206 
L -92.495133 -296.786969 
L -78.153744 -301.201599 
L -73.118141 -297.145425 
L -67.900764 -298.886143 
L -62.696184 -296.730322 
L -61.065762 -302.554022 
L -67.084192 -304.893177 
L -54.817144 -332.983663 
L -54.18141 -338.233641 
L -38.558531 -333.610444 
L -25.157036 -333.80769 
L -23.600586 -332.494932 
L -23.812498 -330.437475 
L -15.218273 -334.958203 
L -10.396402 -335.162665 
L -7.208612 -339.608707 
L -10.100462 -352.472534 
L -6.507125 -361.213734 
L 8.45356 -364.572089 
L 11.757336 -368.32135 
L 12.419566 -370.787193 
L 11.004697 -373.081022 
L 13.657221 -376.092781 
L 23.218754 -375.408855 
L 30.569844 -377.298923 
L 31.564549 -373.356043 
L 29.183291 -371.389756 
L 34.866506 -368.17507 
L 32.805863 -366.010499 
L 33.516488 -365.070627 
L 42.701692 -361.885819 
L 44.354968 -358.001639 
L 52.297021 -353.921767 
L 61.068459 -354.679859 
L 64.771402 -350.559803 
L 69.955903 -351.66501 
L 70.631813 -349.200185 
L 75.261869 -347.257576 
L 77.452215 -340.286972 
L 81.754356 -334.422591 
L 84.812443 -333.027972 
L 87.682358 -325.487234 
L 85.007917 -320.217703 
L 86.885883 -314.632968 
L 81.730618 -309.258375 
L 80.67654 -304.094922 
L 84.602353 -297.976648 
L 87.846775 -298.601854 
L 96.281161 -295.682798 
L 108.38745 -294.467388 
L 119.499935 -295.045215 
L 131.478343 -293.294212 
L 138.586466 -287.746551 
L 143.08408 -287.505533 
L 152.210831 -281.180226 
L 158.195466 -279.415809 
L 164.574688 -279.924633 
L 163.182656 -274.674674 
L 167.006162 -273.490158 
L 172.999935 -259.326967 
L 180.853398 -252.60922 
L 181.543943 -248.910446 
L 196.311877 -250.161396 
L 236.633269 -245.715354 
L 246.222199 -247.954091 
L 272.876292 -245.182313 
L 276.595672 -243.661505 
L 281.876981 -238.149402 
L 300.247408 -234.559796 
L 311.169899 -229.670845 
L 325.475672 -231.890528 
L 325.548743 -227.624212 
L 333.836987 -226.220823 
L 337.850488 -229.356698 
L 365.546779 -240.182641 
L 390.460827 -243.525031 
L 401.410734 -242.410037 
L 413.576395 -243.425112 
L 429.866064 -249.789565 
L 439.882475 -260.692247 
L 456.849892 -268.28704 
L 455.178357 -273.113683 
L 449.964639 -277.457754 
L 447.370568 -282.054701 
L 453.406355 -293.593929 
L 457.290153 -295.950604 
L 465.324471 -295.581863 
L 471.257953 -291.580263 
L 486.393095 -289.077328 
L 494.957183 -293.503299 
L 500.782879 -298.281527 
L 502.812466 -301.949406 
L 522.850768 -303.320346 
L 531.732732 -308.399328 
L 533.177738 -310.276021 
L 532.498151 -312.366943 
L 538.775085 -319.995222 
L 543.128379 -321.90588 
L 552.370215 -321.318784 
L 553.365822 -325.586117 
L 556.447648 -326.227308 
L 560.503181 -324.567434 
L 568.83526 -328.607144 
L 576.808386 -327.686327 
L 579.043486 -329.455368 
L 587.358226 -326.389534 
L 593.777642 -325.989898 
L 596.858548 -327.345909 
L 597.601148 -332.108172 
L 594.128376 -337.309217 
L 586.73893 -342.398504 
L 587.237644 -343.619057 
L 584.122941 -344.644437 
L 583.231461 -347.315778 
L 577.645055 -349.201221 
L 573.66535 -353.388726 
L 559.960614 -353.924856 
L 552.783079 -347.102565 
L 543.259902 -351.596006 
L 533.040718 -351.328718 
L 527.21868 -347.761257 
L 521.230387 -352.262411 
L 520.143433 -356.685293 
L 525.194572 -358.891581 
L 525.201872 -364.632862 
L 529.22817 -369.358569 
L 540.824769 -390.40275 
L 561.197367 -384.139232 
L 575.470246 -393.020016 
L 583.376683 -393.657579 
L 587.345429 -395.772201 
L 588.059712 -400.717299 
L 584.187793 -401.749356 
L 590.53504 -408.616454 
L 590.911368 -411.95988 
L 594.850879 -415.283215 
L 595.228127 -418.143551 
L 597.940942 -420.449758 
L 601.207282 -427.011458 
L 610.878421 -432.015775 
L 613.203948 -436.133239 
L 610.499352 -440.701863 
L 612.228438 -444.59583 
L 607.456801 -446.526579 
L 600.834612 -445.548578 
L 600.014364 -448.950724 
L 614.884621 -459.305435 
L 620.703919 -459.237448 
L 640.381429 -463.607788 
L 649.977659 -463.16797 
L 663.316124 -464.949907 
L 685.513715 -455.87395 
L 686.000551 -457.418955 
L 689.111612 -457.950959 
L 698.791889 -454.95981 
L 700.774901 -453.355567 
L 699.235809 -451.426871 
L 702.609934 -451.862045 
L 705.077042 -449.037228 
L 707.040858 -449.24478 
L 705.322749 -445.478038 
L 709.237602 -444.414031 
L 709.025691 -443.099219 
L 711.683694 -441.301835 
L 711.065318 -440.092085 
L 713.249282 -439.276329 
L 711.082675 -437.770968 
L 715.311745 -436.393311 
L 713.249282 -433.746706 
L 718.309542 -427.983779 
L 717.449117 -425.35005 
L 721.559444 -421.652811 
L 719.783783 -419.619054 
L 722.668315 -420.315337 
L 721.954032 -415.128703 
L 728.239185 -408.894564 
L 729.648557 -405.441951 
L 728.267483 -403.214036 
L 729.496936 -402.19948 
L 729.004603 -400.466994 
L 733.599963 -398.085603 
L 731.76219 -394.436281 
L 732.681068 -389.738398 
L 738.266537 -385.651291 
L 744.340698 -384.736653 
L 752.711133 -386.180723 
L 755.005622 -385.257834 
L 754.271242 -383.379087 
L 760.549996 -380.945176 
L 764.53792 -380.793753 
L 765.20471 -382.465466 
L 767.005947 -382.390283 
L 768.264618 -379.783322 
L 771.081559 -379.457833 
L 774.886807 -374.505539 
L 779.753432 -371.653435 
L 788.105609 -371.418597 
L 785.549911 -366.344738 
L 787.257981 -363.673915 
L 789.601768 -363.74294 
L 790.77093 -360.395387 
L 788.112927 -355.335979 
L 792.217774 -351.754625 
L 792.833393 -348.44004 
L 794.274758 -347.728808 
L 801.256837 -348.931362 
L 804.524998 -347.315259 
L 820.811026 -348.23197 
L 823.461729 -353.07715 
L 825.781777 -352.789791 
L 830.838378 -356.189844 
L 838.481768 -355.963776 
L 842.25596 -359.066165 
L 853.717377 -361.662302 
L 859.592406 -359.311826 
L 856.775447 -354.251361 
L 860.54416 -348.295832 
L 856.731612 -343.521211 
L 850.133161 -340.657268 
L 850.905915 -336.47644 
L 848.110892 -333.755668 
L 847.149982 -327.453024 
L 844.163144 -323.57863 
L 845.719594 -321.986226 
L 844.473702 -320.960328 
L 845.164248 -319.359692 
L 841.362641 -317.024663 
L 840.845651 -312.89225 
L 837.64874 -310.611795 
L 837.64874 -306.777066 
L 832.391169 -304.108296 
L 830.95896 -296.414102 
L 827.820502 -294.821718 
L 810.986429 -298.929395 
L 808.940403 -300.994585 
L 801.529022 -293.49403 
L 792.685432 -291.110567 
L 795.025577 -287.927832 
L 798.536705 -275.41421 
L 796.702591 -265.02087 
L 798.827166 -261.98027 
L 795.246626 -255.035936 
L 795.683228 -252.616435 
L 783.383304 -249.127266 
L 786.295251 -246.863813 
L 785.56817 -245.043268 
L 785.049359 -246.643904 
L 784.185276 -245.419225 
L 780.829427 -248.593728 
L 780.411084 -252.453173 
L 774.06108 -254.322651 
L 770.942718 -243.287103 
L 767.970498 -241.835817 
L 764.523303 -243.348892 
L 761.93837 -240.813009 
L 762.243448 -238.853917 
L 757.451714 -235.174717 
L 741.447027 -234.345049 
L 741.680856 -231.758678 
L 746.19125 -226.166229 
L 743.418144 -222.038978 
L 740.860608 -223.922867 
L 734.44303 -223.106056 
L 725.540068 -224.942566 
L 726.336561 -226.201249 
L 721.919317 -230.504121 
L 719.423893 -228.408574 
L 717.494791 -229.207347 
L 718.351557 -228.51517 
L 715.507219 -226.779097 
L 714.713466 -221.552798 
L 707.672014 -216.043266 
L 705.62325 -212.530916 
L 701.258997 -212.259004 
L 695.113604 -207.198559 
L 688.253008 -205.256968 
L 688.538909 -203.796413 
L 685.962195 -204.2455 
L 672.559056 -191.463634 
L 666.122053 -190.985108 
L 664.066536 -193.001345 
L 662.911479 -190.307102 
L 660.018781 -189.157048 
L 659.830342 -191.108387 
L 656.913199 -190.959974 
L 656.402554 -188.222738 
L 652.619472 -188.237328 
L 639.909476 -181.669588 
L 635.530871 -175.864206 
L 631.723343 -175.397061 
L 632.508735 -173.689829 
L 629.916662 -175.275396 
L 627.49003 -173.479766 
L 629.41466 -171.942056 
L 621.290374 -170.657381 
L 620.280591 -169.111538 
L 619.131296 -170.052346 
L 619.191711 -173.546279 
L 629.021964 -176.428679 
L 627.534679 -179.937003 
L 633.774547 -182.633897 
L 626.402582 -181.942098 
L 624.814546 -184.811523 
L 621.055908 -185.21056 
L 626.533469 -187.077567 
L 625.42732 -190.823719 
L 632.551881 -194.434433 
L 631.723343 -195.054875 
L 640.118047 -204.618587 
L 637.441696 -206.642039 
L 637.600776 -208.590229 
L 632.150559 -211.194439 
L 632.448321 -214.453991 
L 630.17916 -211.529654 
L 623.494064 -213.334772 
L 616.788076 -211.08577 
L 616.038653 -209.366379 
L 617.473778 -208.943503 
L 614.019689 -208.040645 
L 609.076635 -202.626687 
L 609.880657 -201.926816 
L 607.774854 -198.877286 
L 591.223111 -192.429796 
L 591.136625 -190.912496 
L 585.443158 -186.026455 
L 586.73011 -186.135045 
L 586.695307 -182.327881 
L 580.448916 -177.277023 
L 581.225665 -178.526837 
L 579.525443 -178.935601 
L 569.844689 -175.290425 
L 564.576053 -179.054894 
L 559.050769 -176.89423 
L 560.108469 -174.296339 
L 558.811991 -174.580349 
L 556.012796 -167.126136 
L 559.062399 -162.286397 
L 565.233475 -157.593836 
L 580.873145 -156.680554 
L 586.344767 -149.078206 
L 582.984216 -149.5722 
L 581.225665 -146.638615 
L 581.070315 -140.702658 
L 584.328366 -138.375004 
L 595.37699 -137.836483 
L 597.616632 -139.781323 
L 596.937682 -141.988967 
L 605.13244 -147.414785 
L 603.24378 -148.444789 
L 612.477097 -151.432629 
L 619.545556 -148.785426 
L 620.141061 -146.312588 
L 624.063674 -147.216881 
L 627.187956 -143.353928 
L 629.057916 -143.563991 
L 627.49003 -143.850293 
L 628.331507 -144.402608 
L 634.571446 -143.293115 
L 636.936231 -146.026285 
L 638.020798 -143.144682 
L 646.947728 -142.978429 
L 644.498084 -141.183616 
L 645.899113 -138.653175 
L 642.80647 -137.885137 
L 641.894503 -135.237913 
L 644.328346 -135.362827 
L 643.751524 -132.777253 
L 641.954918 -133.259009 
L 642.49577 -132.232234 
L 640.43594 -131.280882 
L 638.0582 -131.818606 
L 639.48226 -132.777253 
L 637.718742 -135.091135 
L 635.366896 -132.777253 
L 635.651701 -134.40986 
L 633.479667 -134.68237 
L 633.895377 -133.592331 
L 628.37467 -131.448769 
L 628.158906 -129.635299 
L 625.881862 -130.314959 
L 627.839563 -131.719664 
L 625.228806 -131.395251 
L 624.207517 -129.077304 
L 617.52311 -126.516885 
L 612.698606 -127.173005 
L 612.692861 -125.656382 
L 614.462124 -126.928081 
L 616.464438 -125.799115 
L 616.222778 -124.030253 
L 614.764198 -122.396012 
L 613.694001 -124.125149 
L 612.054193 -123.422787 
L 612.196605 -121.466565 
L 610.808514 -121.305993 
L 611.890218 -117.992106 
L 610.528022 -117.200548 
L 605.680486 -115.692018 
L 604.593038 -116.112941 
L 605.822898 -118.697697 
L 604.847635 -120.344097 
L 604.460701 -118.385463 
L 601.14943 -119.390333 
L 602.530327 -114.751209 
L 604.713867 -114.342465 
L 601.14943 -112.901245 
L 599.483711 -109.45192 
L 597.809383 -109.792557 
L 597.744656 -107.395141 
L 593.209269 -106.584927 
L 591.504716 -102.520841 
L 589.249255 -101.19399 
L 588.084122 -96.881711 
L 585.165547 -94.954709 
L 585.15404 -89.329373 
L 589.57291 -89.884119 
L 593.204956 -85.654577 
L 603.975951 -81.229583 
L 607.981993 -68.037318 
L 615.264785 -55.35276 
L 614.108279 -49.055895 
L 623.990215 -42.822953 
L 624.518217 -40.139394 
L 623.485421 -39.767125 
L 624.944001 -37.428907 
L 631.22364 -34.561695 
L 633.405024 -30.254458 
L 631.553499 -28.990194 
L 622.1698 -32.96941 
L 619.141442 -31.090724 
L 616.715129 -31.450117 
L 613.763059 -35.600847 
L 610.644645 -36.685146 
L 601.75356 -34.017712 
L 599.29096 -35.466207 
L 596.64137 -41.110997 
L 592.589302 -42.217261 
L 593.870951 -40.978808 
L 592.468472 -39.075306 
L 595.694883 -39.10937 
L 595.410078 -37.677079 
L 599.544797 -34.159667 
L 603.496946 -33.334006 
L 607.730259 -35.651136 
L 612.694611 -34.71838 
L 614.010462 -31.735881 
L 612.36058 -31.44025 
L 619.659599 -28.864802 
L 629.924845 -20.830409 
L 633.913423 -14.861067 
L 634.07701 -12.711924 
L 626.703896 -11.560614 
L 617.074454 -6.406788 
L 614.134049 -1.3705 
L 611.771845 -3.138485 
L 607.900862 -3.329293 
L 607.037769 -3.056545 
L 606.130168 -0.738139 
L 603.990322 -1.227628 
L 602.031702 0.749443 
L 604.281666 -0.81974 
L 606.231855 -0.261048 
L 607.394442 -2.638372 
L 610.418929 -2.71218 
L 612.412634 0.08527 
L 610.598918 2.274297 
L 611.494641 3.021387 
L 613.43509 3.396885 
L 610.854541 2.183587 
L 612.713542 0.216562 
L 615.212625 1.329363 
L 621.598599 -2.230425 
L 624.700469 -1.125855 
L 629.867754 5.500703 
L 633.643643 6.958945 
L 637.065368 6.631643 
L 629.256429 13.430992 
L 624.944001 14.196618 
L 625.677428 16.861461 
L 629.673571 13.909498 
L 631.459501 14.876676 
L 632.039805 13.958172 
L 630.274838 13.789468 
L 631.179027 12.674733 
L 634.273685 12.819479 
L 633.199175 14.19012 
L 634.269372 15.693787 
L 633.023693 18.692988 
L 634.631861 19.516996 
L 633.774547 20.741655 
L 630.988609 21.295424 
L 631.965002 18.291519 
L 631.011322 17.181209 
L 629.910069 21.017374 
L 628.639732 20.997741 
L 628.426442 18.534011 
L 628.223634 20.890068 
L 627.258446 18.564029 
L 624.328347 21.434271 
L 625.174154 21.97929 
L 624.207517 22.522675 
L 628.091297 22.388055 
L 627.973349 23.488618 
L 626.596765 23.426171 
L 626.511887 24.237202 
L 629.299575 24.305329 
L 629.200327 26.345884 
L 627.49003 25.380758 
L 627.196582 26.03933 
L 626.242902 25.515399 
L 625.799866 26.073394 
L 628.948593 28.126924 
L 628.091297 29.909578 
L 623.314251 30.388902 
L 619.62324 27.718159 
L 622.397972 30.169112 
L 621.674444 31.121262 
L 626.123981 31.481173 
L 627.387619 34.518186 
L 626.149416 34.821191 
L 627.849373 35.066055 
L 628.708384 37.814712 
L 627.456942 39.45868 
L 626.678337 38.1638 
L 624.335541 38.500033 
L 623.219316 41.684163 
L 621.732809 40.077189 
L 621.087123 39.816638 
L 621.785199 37.281871 
L 620.093602 36.90717 
L 619.409455 38.487356 
L 617.549005 38.50653 
L 619.312293 39.883271 
L 616.492612 44.833871 
L 610.143951 43.736078 
L 609.630426 42.272973 
L 609.322607 42.329739 
L 609.841877 44.045881 
L 614.19602 45.455469 
L 614.780495 46.918474 
L 612.204294 50.240115 
L 610.660358 49.294902 
L 611.373811 51.361407 
L 609.976476 53.142746 
L 611.486015 54.910492 
L 610.660358 56.941319 
L 608.355971 57.633935 
L 608.584691 60.491201 
L 607.018237 61.048399 
L 606.081808 59.8002 
L 605.569732 59.538254 
L 604.78867 59.680987 
L 604.94402 58.17734 
L 602.892798 58.573926 
L 602.655469 60.187079 
L 605.569732 59.674509 
L 606.885901 61.580423 
L 603.738605 61.864293 
L 603.942863 64.568283 
L 602.059947 64.87079 
L 603.304195 66.195209 
L 599.997236 66.505031 
L 601.697458 68.556947 
L 601.806781 71.56424 
L 596.73056 74.00465 
L 600.840162 68.556947 
L 598.108576 68.651823 
L 597.304483 71.379332 
L 595.750985 70.734553 
L 596.714723 67.455546 
L 595.122392 69.736998 
L 593.878144 68.256851 
L 594.570033 70.532622 
L 592.468472 68.556947 
L 591.514791 69.510711 
L 592.359149 73.072771 
L 595.630156 72.924357 
L 595.750985 76.203364 
L 593.309949 74.514788 
L 591.767957 75.374493 
L 593.217895 75.722426 
L 593.809086 78.120639 
L 596.352252 75.931671 
L 598.547299 77.167672 
L 593.321455 79.011976 
L 589.860596 84.790589 
L 589.454944 84.813292 
L 589.092473 84.256931 
L 586.654317 83.386682 
L 585.571182 82.446691 
L 583.409205 81.535103 
L 586.119228 85.094711 
L 587.586434 85.55215 
L 589.549897 85.162839 
L 590.930794 83.554569 
L 594.047864 84.38912 
L 591.767957 86.991735 
L 592.183667 90.677055 
L 589.69374 90.677055 
L 590.460414 93.116646 
L 591.99811 92.72006 
L 593.325786 97.235087 
L 591.99811 97.507597 
L 591.937695 95.058258 
L 590.29787 96.975553 
L 590.723655 94.91714 
L 589.65777 95.627615 
L 588.488325 92.595964 
L 587.150574 92.323454 
L 583.568886 95.995818 
L 585.351104 97.235087 
L 585.313703 99.19697 
L 586.667274 97.791448 
L 587.841031 99.54247 
L 586.274577 100.867547 
L 583.808318 100.112425 
L 583.508471 102.158062 
L 582.269968 101.572481 
L 582.973364 100.053426 
L 581.214158 99.861202 
L 582.238771 98.827691 
L 579.557082 99.51327 
L 581.307662 100.734681 
L 579.089601 102.90258 
L 580.937979 104.313782 
L 581.829813 103.372177 
L 582.068591 105.165355 
L 580.194319 105.30161 
L 580.907772 106.949644 
L 576.737755 107.491415 
L 575.883322 105.30161 
L 575.943737 106.87177 
L 574.191726 106.661727 
L 575.356858 108.915593 
L 577.566293 109.103751 
L 575.430211 110.777716 
L 575.04759 113.433032 
L 573.872401 113.979686 
L 571.70323 110.359225 
L 571.235749 112.214053 
L 567.951804 113.513338 
L 566.917559 110.484119 
L 566.031487 112.664177 
L 563.636495 113.288685 
L 565.108014 114.023476 
L 564.465033 115.420886 
L 560.391383 114.987784 
L 562.442605 116.633387 
L 564.84046 116.199468 
L 564.361473 117.790716 
L 565.681955 117.49957 
L 566.316292 119.082705 
L 562.442605 120.59285 
L 562.200946 123.746943 
L 559.627573 126.148425 
L 560.512213 123.871039 
L 558.196336 123.055145 
L 558.691161 125.231136 
L 556.86334 129.546306 
L 556.498995 126.233574 
L 553.768841 125.36496 
L 555.067582 127.642505 
L 551.307672 128.646398 
L 550.949549 131.967002 
L 550.461882 130.428255 
L 547.894077 133.262779 
L 547.614539 131.256288 
L 544.929669 131.027609 
L 542.396932 137.27257 
L 537.977709 135.895431 
L 538.858036 137.785938 
L 541.96231 137.733875 
L 542.955442 139.53106 
L 540.523738 138.630235 
L 541.369545 139.378003 
L 540.161532 140.988704 
L 539.53856 139.479078 
L 537.724543 139.571024 
L 539.414725 140.060553 
L 537.473675 145.446267 
L 532.505911 144.579965 
L 533.704732 145.077427 
L 531.291181 147.27062 
L 529.474053 145.57451 
L 530.07631 146.871024 
L 525.372016 149.298338 
L 523.149078 146.673538 
L 523.963051 145.548339 
L 520.962462 147.240961 
L 520.733759 146.322058 
L 518.230875 145.731633 
L 519.326967 147.240961 
L 520.942329 147.504561 
L 521.872996 146.956293 
L 520.369626 148.880743 
L 521.22162 150.848147 
L 517.656281 150.333085 
L 518.322646 148.457667 
L 515.179646 148.458843 
L 516.424212 146.170395 
L 510.795261 150.430114 
L 508.624394 148.957003 
L 510.4645 150.685681 
L 509.215497 153.256167 
L 506.525466 152.022777 
L 507.081572 147.908442 
L 502.606618 150.098247 
L 502.33339 151.282923 
L 503.813464 151.335882 
L 502.134806 152.968489 
L 504.296765 153.921455 
L 502.496164 155.147331 
L 500.374169 151.940916 
L 492.738946 153.443746 
L 491.440664 155.145955 
L 489.102587 149.152575 
L 487.587922 149.282332 
L 486.40697 147.28234 
L 486.983774 143.541849 
L 486.250171 145.867888 
L 486.61266 143.541849 
L 485.887682 145.459124 
L 486.008512 143.814358 
L 485.050519 144.02197 
L 485.992692 142.275013 
L 490.37561 141.895449 
L 483.082743 142.304214 
L 484.581995 143.830344 
L 484.25795 145.747041 
L 479.467966 146.140398 
L 484.439194 148.725154 
L 482.376466 148.873587 
L 486.294006 152.704928 
L 486.090473 159.427938 
L 484.253814 161.077108 
L 478.62504 152.696796 
L 482.808419 160.59013 
L 481.054552 160.515964 
L 478.486694 163.677072 
L 477.206742 160.031776 
L 476.156235 165.177451 
L 474.140629 167.033794 
L 472.628209 164.844447 
L 467.764854 168.696856 
L 465.5583 167.255656 
L 466.75364 164.844447 
L 464.932588 165.056125 
L 465.053418 162.803893 
L 464.329872 164.573572 
L 465.135397 168.12752 
L 463.087074 169.973418 
L 461.251635 169.092645 
L 461.432879 167.2954 
L 458.525793 168.208623 
L 458.757377 166.477871 
L 457.484371 167.676579 
L 456.090518 165.661977 
L 456.332177 167.851761 
L 458.032417 168.667656 
L 455.693527 170.613334 
L 455.112393 168.816887 
L 452.337661 168.531401 
L 454.279542 171.822586 
L 451.496166 173.540342 
L 450.637421 172.50384 
L 448.767461 173.863957 
L 447.992144 172.082917 
L 448.094273 173.45601 
L 445.077882 175.344084 
L 445.677699 174.148625 
L 441.914766 174.680669 
L 440.840256 173.319755 
L 439.994449 175.23703 
L 441.099167 174.44302 
L 441.565216 174.680669 
L 440.227483 175.632819 
L 436.254512 176.177838 
L 434.181744 178.911008 
L 433.927129 176.721223 
L 436.02869 175.861518 
L 436.110669 175.23703 
L 433.911309 176.506297 
L 433.927129 179.513611 
L 432.843993 179.183518 
L 433.082771 179.605258 
L 431.186917 179.772328 
L 430.297964 180.284898 
L 431.273226 177.413839 
L 430.346872 177.9467 
L 429.013434 175.416278 
L 429.73698 180.581744 
L 426.133692 182.680699 
L 425.447565 187.113806 
L 429.198991 187.113806 
L 429.913893 189.065144 
L 428.977482 189.436596 
L 428.718554 187.658825 
L 427.993594 190.937014 
L 432.119016 194.500689 
L 427.631105 198.990582 
L 423.346003 198.019776 
L 421.214252 199.263091 
L 420.251946 195.934614 
L 422.366428 197.026247 
L 422.849747 195.378233 
L 419.532713 193.737514 
L 419.994467 192.160857 
L 418.285602 190.60449 
L 420.210232 189.77237 
L 418.909882 190.257375 
L 418.426564 186.990527 
L 417.69008 187.931335 
L 416.688941 185.54526 
L 418.535887 177.006709 
L 421.335082 176.870454 
L 421.694689 174.272722 
L 419.393201 174.96452 
L 418.668223 172.50384 
L 418.668223 174.421135 
L 416.484683 173.727702 
L 416.968001 171.67497 
L 415.748199 172.638481 
L 415.509421 169.224037 
L 413.215126 170.857461 
L 415.125368 172.506292 
L 414.383121 174.301902 
L 409.331346 175.498178 
L 409.222023 174.421135 
L 407.452743 176.096735 
L 405.705062 175.126726 
L 407.521801 173.932085 
L 407.400971 172.082917 
L 403.728643 171.842039 
L 402.442681 170.448696 
L 403.659602 168.816887 
L 401.49045 167.790132 
L 402.235542 169.251603 
L 401.104948 169.634416 
L 402.552004 171.266205 
L 400.5008 172.082917 
L 400.138311 169.224037 
L 399.401827 170.041546 
L 398.800578 169.484368 
L 399.292522 167.851761 
L 397.833941 169.348113 
L 398.558919 166.355409 
L 397.459946 165.129933 
L 396.01289 167.034232 
L 395.42168 165.81039 
L 395.77123 170.177801 
L 397.320416 170.576839 
L 395.650401 172.899629 
L 394.213402 172.638481 
L 395.650401 170.721206 
L 393.358969 169.634416 
L 392.341993 173.243515 
L 391.056031 174.122674 
L 391.793965 172.370834 
L 390.96829 171.293791 
L 387.170837 173.170524 
L 388.75023 174.421135 
L 386.808348 175.498178 
L 383.996657 171.188889 
L 375.80432 172.155031 
L 374.469839 169.783945 
L 369.70186 167.945382 
L 369.816026 165.615495 
L 363.519013 164.789415 
L 363.692569 159.718665 
L 361.288474 155.433813 
L 362.176313 152.303618 
L 363.997647 152.619819 
L 365.935887 148.279874 
L 360.597027 145.7239 
L 356.48944 147.134484 
L 354.310053 144.735593 
L 349.392275 146.137946 
L 344.048854 143.047915 
L 339.817044 136.946125 
L 337.850488 139.174557 
L 332.002873 140.977602 
L 330.727747 142.531876 
L 331.181706 145.749632 
L 329.010556 147.860127 
L 326.408248 147.505298 
L 322.636796 150.488734 
L 320.81 149.378364 
L 320.886711 147.737566 
L 318.159296 148.392131 
L 315.90866 154.061836 
L 310.383464 148.242781 
L 307.850586 152.580692 
L 304.421666 148.464245 
L 299.461874 155.595521 
L 289.54137 148.849968 
L 285.126883 155.983835 
L 281.184633 155.251515 
L 278.938557 156.618329 
L 275.778181 154.624236 
L 272.713695 159.278847 
L 277.80593 171.625618 
L 276.61029 172.722574 
L 276.23762 177.70062 
L 278.157601 179.427963 
L 276.960123 181.245937 
L 272.746589 179.265219 
L 267.916499 180.257113 
L 265.061184 168.81882 
L 256.911781 174.751707 
L 251.966606 173.530097 
L 248.794352 175.403701 
L 247.443415 173.120156 
L 248.44634 171.047771 
L 245.042979 169.727299 
L 244.904156 163.26191 
L 230.800255 161.109179 
L 234.570788 154.293585 
L 233.690266 149.316575 
L 235.553615 145.617802 
L 237.756758 145.703808 
L 236.962086 143.093758 
L 234.146965 141.653794 
L 232.075364 143.093758 
L 225.754595 140.6619 
L 226.295341 136.129333 
L 224.373521 133.616611 
L 225.701621 132.0788 
L 224.590912 129.119582 
L 222.30192 128.35272 
L 222.21607 125.080371 
L 225.873339 121.401689 
L 220.915367 122.796328 
L 212.428008 122.281844 
L 203.936991 127.360826 
L 202.024327 125.445006 
L 205.623143 121.366669 
L 204.337057 115.688213 
L 201.967695 115.563579 
L 202.31295 109.888213 
L 206.421456 107.669049 
L 205.261432 103.077762 
L 207.053531 99.637008 
L 208.978992 100.236481 
L 211.36481 98.155864 
L 213.047304 92.185904 
L 216.087115 93.262269 
L 219.375373 87.815563 
L 222.771416 87.121333 
L 220.21388 82.335889 
L 223.04178 80.954644 
L 221.92195 79.368419 
L 223.92596 71.98323 
L 222.577781 53.002166 
L 217.822582 50.871081 
L 217.345786 53.43168 
L 215.780216 53.813816 
L 212.464543 45.114333 
L 212.669155 41.771425 
L 208.75978 37.495322 
L 206.423277 37.553006 
L 204.746262 34.386754 
L 202.223441 34.023155 
L 200.811312 38.645855 
L 198.613666 40.242883 
L 194.28229 37.100311 
L 192.291059 37.990771 
L 187.892216 35.876568 
L 180.555619 36.192051 
L 185.694446 29.471533 
L 183.308628 24.753559 
L 181.699505 23.917434 
L 178.672668 25.81956 
L 178.306821 22.476194 
L 181.693725 19.51853 
L 179.379157 19.83782 
L 177.729557 17.301419 
L 170.709122 17.860211 
L 170.220996 20.29486 
L 167.521332 19.750279 
L 166.162918 23.270502 
L 164.038838 23.918251 
L 153.595546 21.32311 
L 150.473526 18.334532 
L 144.95107 21.696994 
L 146.00817 24.160364 
L 139.728214 27.742137 
L 138.592864 30.969061 
L 130.080831 31.185483 
L 127.799934 32.549446 
L 125.486497 35.967139 
L 125.867209 37.790036 
L 116.513098 41.925419 
L 115.811611 43.431817 
L 117.534404 44.858507 
L 116.602588 46.362552 
L 109.889088 48.839895 
L 108.752802 47.262938 
L 103.674266 50.062521 
L 91.97172 42.755605 
L 87.760926 45.319313 
L 80.965181 42.777231 
L 77.567318 43.135688 
L 79.555703 39.927559 
L 74.319236 39.368408 
L 73.154793 37.434052 
L 67.684922 38.2871 
L 61.416472 41.894007 
L 51.109493 53.940025 
L 50.995787 58.283158 
L 47.245899 55.837786 
L 48.909214 47.693489 
L 48.269822 44.679677 
L 44.607073 42.468226 
L 35.862112 45.628817 
L 35.905965 47.35048 
L 30.929734 46.404947 
L 28.987836 48.409345 
L 22.665228 48.485565 
L 22.572061 47.462756 
L 18.894695 48.049872 
L 10.485886 42.470299 
L 8.249867 42.501712 
L 5.982793 46.373016 
L 2.054241 44.526201 
L 1.222114 41.457796 
L -0.3197 43.047608 
L 0.460337 46.036705 
L -1.883467 46.866392 
L -6.962004 37.896015 
L -8.396051 39.571834 
L -17.665284 38.516078 
L -16.364599 32.71813 
L -18.238906 31.847263 
L -22.53373 33.774923 
L -28.916611 29.94998 
L -33.231549 25.82837 
L -32.794929 24.127835 
L -35.299491 19.530888 
L -38.398674 18.877339 
L -43.261658 21.561038 
L -45.304025 20.9863 
L -51.493271 12.2626 
L -53.413234 13.10927 
L -54.987041 11.41027 
L -57.449589 11.494721 
L -62.659649 6.243727 
L -69.517505 3.554368 
L -70.667471 -1.86557 
L -79.058941 -3.595983 
L -80.908573 -1.831566 
L -83.062384 -2.739009 
L -83.724613 1.579828 
L -86.079376 4.550387 
L -88.183854 4.376302 
L -90.335843 -0.373085 
L -97.04664 -4.450905 
L -104.408689 -6.437782 
L -103.497111 -9.735883 
L -104.810576 -11.095502 
L -106.482111 -10.928651 
L -110.530326 -14.451286 
L -115.049858 -13.989841 
L -118.164578 -15.68936 
L -122.940404 -23.957056 
L -124.021913 -24.414454 
L -126.65913 -20.593578 
L -129.768477 -21.359583 
L -130.574108 -25.383845 
L -128.464133 -27.324381 
L -131.080139 -30.57614 
L -129.777615 -34.436622 
L -134.843354 -39.727799 
L -136.13674 -46.063909 
L -129.914618 -47.70421 
L -129.30264 -44.352033 
L -126.262828 -42.054078 
L -123.931821 -42.540756 
L -123.266852 -44.565763 
L -119.598519 -46.955226 
L -117.423887 -45.809258 
L -114.292216 -49.675102 
L -119.366616 -54.968372 
L -117.201193 -60.073086 
L -123.530217 -60.815671 
L -129.127263 -66.100231 
L -130.192299 -74.902203 
L -130.033362 -76.594008 
L -125.683727 -79.342585 
L -125.683727 -81.176524 
L -131.191565 -85.506702 
L -137.705969 -87.464758 
L -142.917867 -100.305922 
L -142.156089 -104.745267 
L -145.004086 -103.538088 
L -146.467368 -104.82047 
L -153.831238 -104.353863 
L -162.115824 -106.56942 
L -168.200943 -109.920062 
L -168.794645 -112.93491 
L -175.35474 -111.015981 
L -176.699261 -114.441806 
L -180.056948 -116.143397 
L -178.034661 -119.47032 
L -178.703271 -124.099198 
L -180.944769 -127.728967 
L -184.479653 -129.90745 
L -188.330575 -129.287387 
L -190.424094 -133.389922 
L -194.194645 -134.692874 
L -198.220924 -132.958335 
L -199.631233 -135.112103 
L -204.053939 -135.24188 
L -206.878197 -137.332802 
L -200.888084 -140.745233 
L -199.605657 -139.074038 
L -197.868352 -139.416529 
L -193.063838 -142.795474 
L -197.875669 -146.753303 
L -196.580445 -150.107014 
L -199.66411 -156.36537 
L -198.867617 -163.814421 
L -207.733143 -168.036448 
L -211.459841 -168.085879 
L -213.129537 -165.250778 
L -216.885471 -166.433739 
L -219.282248 -172.142073 
L -216.713736 -174.213422 
z
" clip-path="url(#p73096b4f57)" style="fill: #eeeeee; stroke: #000000; stroke-width: 0.3"/>
    <path d="M 398.407882 218.484575 
L 405.151254 212.064431 
L 410.434631 209.791112 
L 409.830483 208.146327 
L 407.888602 209.518602 
L 409.511158 206.05955 
L 415.283581 206.909509 
L 414.316962 205.002778 
L 417.71023 203.821092 
L 419.768628 205.411522 
L 421.66305 204.214449 
L 422.501646 205.907888 
L 425.451878 202.690511 
L 428.770343 202.876237 
L 430.060618 205.559956 
L 429.446412 202.418001 
L 433.384845 205.564819 
L 432.68433 202.647538 
L 434.6593 200.773236 
L 436.611256 203.825955 
L 439.196118 204.131711 
L 440.538182 210.336131 
L 438.169067 213.206373 
L 436.71913 211.980896 
L 436.750786 214.306139 
L 432.934615 220.872264 
L 431.146634 220.591642 
L 432.485817 222.224248 
L 432.969135 220.974455 
L 431.750782 225.830916 
L 430.303708 227.523538 
L 431.388294 228.088828 
L 431.5753 226.319169 
L 432.123328 228.238059 
L 423.281276 233.693077 
L 423.389167 236.277833 
L 422.121906 236.126988 
L 422.918787 235.746607 
L 423.039617 234.917736 
L 418.189218 236.006141 
L 417.936052 238.455459 
L 416.851484 238.455459 
L 418.068388 238.740148 
L 417.528985 239.766903 
L 414.92111 240.521985 
L 414.92111 238.740148 
L 413.462529 240.056454 
L 412.777834 238.137545 
L 407.875646 238.160247 
L 407.405284 236.698776 
L 399.432034 233.628198 
z
" clip-path="url(#p73096b4f57)" style="fill: #eeeeee; stroke: #000000; stroke-width: 0.3"/>
    <path d="M 621.693145 -182.477371 
L 623.127263 -184.268138 
L 624.575768 -184.131883 
L 624.56138 -182.122143 
L 623.062535 -182.195952 
L 623.545836 -183.5528 
z
" clip-path="url(#p73096b4f57)" style="fill: #eeeeee; stroke: #000000; stroke-width: 0.3"/>
    <path d="M 620.223199 -30.851321 
L 622.808697 -31.748418 
L 632.026654 -27.335802 
L 634.391209 -24.741139 
L 632.155668 -23.971925 
L 627.209538 -25.769489 
z
" clip-path="url(#p73096b4f57)" style="fill: #eeeeee; stroke: #000000; stroke-width: 0.3"/>
    <path d="M 593.571758 94.649514 
L 595.513639 93.968239 
L 594.000406 92.529471 
L 595.251847 91.228572 
L 596.719054 93.683571 
L 595.142525 96.302391 
z
" clip-path="url(#p73096b4f57)" style="fill: #eeeeee; stroke: #000000; stroke-width: 0.3"/>
    <path d="M 594.414666 -40.584634 
L 596.149426 -40.643035 
L 597.697179 -36.613012 
L 595.755298 -37.57734 
L 596.238616 -39.211561 
z
" clip-path="url(#p73096b4f57)" style="fill: #eeeeee; stroke: #000000; stroke-width: 0.3"/>
    <path d="M 585.454665 82.476708 
L 586.309098 83.493736 
L 588.847933 84.520511 
L 588.91411 84.881419 
L 586.309098 84.41264 
z
" clip-path="url(#p73096b4f57)" style="fill: #eeeeee; stroke: #000000; stroke-width: 0.3"/>
    <path d="M 572.538202 -175.528134 
L 573.97407 -174.736177 
L 575.547506 -175.563872 
L 574.585695 -174.119722 
L 572.569895 -173.374725 
z
" clip-path="url(#p73096b4f57)" style="fill: #eeeeee; stroke: #000000; stroke-width: 0.3"/>
    <path d="M 470.607213 170.098332 
L 472.946103 168.667656 
L 472.354893 172.355427 
L 471.547937 172.50384 
L 471.716243 170.314056 
z
" clip-path="url(#p73096b4f57)" style="fill: #eeeeee; stroke: #000000; stroke-width: 0.3"/>
    <path d="M 427.022645 184.379819 
L 429.567242 182.190014 
L 432.35493 183.358725 
L 431.814078 185.344127 
L 430.479208 183.984847 
z
" clip-path="url(#p73096b4f57)" style="fill: #eeeeee; stroke: #000000; stroke-width: 0.3"/>
    <path d="M 646.024255 -179.343549 
L 647.484268 -179.495211 
L 647.897096 -179.379227 
L 646.990874 -178.526837 
z
" clip-path="url(#p73096b4f57)" style="fill: #eeeeee; stroke: #000000; stroke-width: 0.3"/>
    <path d="M 639.689399 0.018937 
L 640.509294 -0.710992 
L 641.989438 -0.586915 
L 640.179893 -0.072711 
z
" clip-path="url(#p73096b4f57)" style="fill: #eeeeee; stroke: #000000; stroke-width: 0.3"/>
    <path d="M 635.364015 10.076563 
L 636.681616 8.907055 
L 638.085544 11.223368 
L 637.66264 11.599683 
z
" clip-path="url(#p73096b4f57)" style="fill: #eeeeee; stroke: #000000; stroke-width: 0.3"/>
    <path d="M 634.131274 1.875399 
L 640.571158 4.225756 
L 639.972754 6.033564 
L 635.119492 4.769161 
z
" clip-path="url(#p73096b4f57)" style="fill: #eeeeee; stroke: #000000; stroke-width: 0.3"/>
    <path d="M 619.234857 41.873118 
L 621.182978 40.197936 
L 622.041246 42.874759 
L 619.78635 43.755811 
z
" clip-path="url(#p73096b4f57)" style="fill: #eeeeee; stroke: #000000; stroke-width: 0.3"/>
    <path d="M 586.732001 94.748456 
L 587.881314 93.077719 
L 587.677056 95.643839 
L 587.003868 95.943915 
z
" clip-path="url(#p73096b4f57)" style="fill: #eeeeee; stroke: #000000; stroke-width: 0.3"/>
    <path d="M 565.318034 115.131334 
L 565.716475 113.218923 
L 567.287242 113.639846 
L 566.493224 115.749345 
z
" clip-path="url(#p73096b4f57)" style="fill: #eeeeee; stroke: #000000; stroke-width: 0.3"/>
    <path d="M 552.069997 132.796171 
L 552.993523 128.954605 
L 555.714292 129.485653 
L 554.033319 132.624478 
z
" clip-path="url(#p73096b4f57)" style="fill: #eeeeee; stroke: #000000; stroke-width: 0.3"/>
    <path d="M 480.506506 161.777118 
L 482.150644 161.022056 
L 481.247303 162.64655 
L 480.637411 162.680614 
z
" clip-path="url(#p73096b4f57)" style="fill: #eeeeee; stroke: #000000; stroke-width: 0.3"/>
    <path d="M 467.314624 172.164838 
L 467.854045 170.584951 
L 469.434887 169.893133 
L 469.524059 171.335967 
z
" clip-path="url(#p73096b4f57)" style="fill: #eeeeee; stroke: #000000; stroke-width: 0.3"/>
    <path d="M 430.060618 180.544432 
L 432.485817 180.977533 
L 433.581909 180.284898 
L 432.278696 182.009152 
z
" clip-path="url(#p73096b4f57)" style="fill: #eeeeee; stroke: #000000; stroke-width: 0.3"/>
    <path d="M 654.995763 -176.285947 
L 655.914923 -175.711727 
L 655.297837 -175.25674 
z
" clip-path="url(#p73096b4f57)" style="fill: #eeeeee; stroke: #000000; stroke-width: 0.3"/>
    <path d="M 652.277133 -185.62662 
L 653.166086 -185.232466 
L 652.559057 -184.586072 
z
" clip-path="url(#p73096b4f57)" style="fill: #eeeeee; stroke: #000000; stroke-width: 0.3"/>
    <path d="M 643.70981 -180.592525 
L 646.163786 -180.225139 
L 645.143928 -179.816375 
z
" clip-path="url(#p73096b4f57)" style="fill: #eeeeee; stroke: #000000; stroke-width: 0.3"/>
    <path d="M 642.334676 -9.316873 
L 642.382134 -10.09709 
L 644.057911 -9.274697 
z
" clip-path="url(#p73096b4f57)" style="fill: #eeeeee; stroke: #000000; stroke-width: 0.3"/>
    <path d="M 641.054458 -178.573059 
L 641.898834 -178.935601 
L 641.898834 -177.845563 
z
" clip-path="url(#p73096b4f57)" style="fill: #eeeeee; stroke: #000000; stroke-width: 0.3"/>
    <path d="M 640.535188 5.632095 
L 641.972187 5.656432 
L 641.767929 8.036009 
z
" clip-path="url(#p73096b4f57)" style="fill: #eeeeee; stroke: #000000; stroke-width: 0.3"/>
    <path d="M 639.604521 -3.976225 
L 639.732545 -4.905652 
L 642.261305 -3.556916 
z
" clip-path="url(#p73096b4f57)" style="fill: #eeeeee; stroke: #000000; stroke-width: 0.3"/>
    <path d="M 638.878112 7.977608 
L 639.575745 7.766728 
L 640.233114 9.173067 
z
" clip-path="url(#p73096b4f57)" style="fill: #eeeeee; stroke: #000000; stroke-width: 0.3"/>
    <path d="M 636.08323 -1.094622 
L 638.519936 -2.195185 
L 638.358842 -0.108389 
z
" clip-path="url(#p73096b4f57)" style="fill: #eeeeee; stroke: #000000; stroke-width: 0.3"/>
    <path d="M 633.738595 5.95569 
L 634.649112 6.542068 
L 633.830649 6.628055 
z
" clip-path="url(#p73096b4f57)" style="fill: #eeeeee; stroke: #000000; stroke-width: 0.3"/>
    <path d="M 632.452633 21.707597 
L 633.485429 21.322353 
L 632.815104 23.203949 
z
" clip-path="url(#p73096b4f57)" style="fill: #eeeeee; stroke: #000000; stroke-width: 0.3"/>
    <path d="M 631.861424 3.817011 
L 633.200607 4.233071 
L 632.310222 5.150339 
z
" clip-path="url(#p73096b4f57)" style="fill: #eeeeee; stroke: #000000; stroke-width: 0.3"/>
    <path d="M 631.14509 -22.569154 
L 632.694293 -21.927624 
L 631.861424 -21.049282 
z
" clip-path="url(#p73096b4f57)" style="fill: #eeeeee; stroke: #000000; stroke-width: 0.3"/>
    <path d="M 630.942264 22.16095 
L 631.067424 21.658924 
L 631.990897 22.751394 
z
" clip-path="url(#p73096b4f57)" style="fill: #eeeeee; stroke: #000000; stroke-width: 0.3"/>
    <path d="M 627.438241 -24.016035 
L 629.32547 -23.573226 
L 630.653146 -21.608892 
z
" clip-path="url(#p73096b4f57)" style="fill: #eeeeee; stroke: #000000; stroke-width: 0.3"/>
    <path d="M 618.83928 48.208929 
L 619.122653 47.68418 
L 620.133885 48.189456 
z
" clip-path="url(#p73096b4f57)" style="fill: #eeeeee; stroke: #000000; stroke-width: 0.3"/>
    <path d="M 618.347336 44.918562 
L 619.575764 45.259996 
L 618.932783 45.650104 
z
" clip-path="url(#p73096b4f57)" style="fill: #eeeeee; stroke: #000000; stroke-width: 0.3"/>
    <path d="M 617.922223 55.237276 
L 618.93425 55.50275 
L 618.296148 55.803922 
z
" clip-path="url(#p73096b4f57)" style="fill: #eeeeee; stroke: #000000; stroke-width: 0.3"/>
    <path d="M 615.461849 -162.566501 
L 615.6546 -162.624085 
L 615.77398 -162.452969 
z
" clip-path="url(#p73096b4f57)" style="fill: #eeeeee; stroke: #000000; stroke-width: 0.3"/>
    <path d="M 613.702644 -160.818728 
L 614.168693 -160.972004 
L 614.211839 -160.806569 
z
" clip-path="url(#p73096b4f57)" style="fill: #eeeeee; stroke: #000000; stroke-width: 0.3"/>
    <path d="M 612.559076 -158.48051 
L 613.099928 -157.925763 
L 612.872656 -158.139892 
z
" clip-path="url(#p73096b4f57)" style="fill: #eeeeee; stroke: #000000; stroke-width: 0.3"/>
    <path d="M 612.200918 -153.129317 
L 612.818004 -153.200693 
L 612.769096 -152.682443 
z
" clip-path="url(#p73096b4f57)" style="fill: #eeeeee; stroke: #000000; stroke-width: 0.3"/>
    <path d="M 611.59677 -154.448055 
L 611.877262 -154.535656 
L 612.166397 -154.0247 
z
" clip-path="url(#p73096b4f57)" style="fill: #eeeeee; stroke: #000000; stroke-width: 0.3"/>
    <path d="M 610.070598 -154.130141 
L 610.493484 -154.195019 
L 610.441712 -153.721376 
z
" clip-path="url(#p73096b4f57)" style="fill: #eeeeee; stroke: #000000; stroke-width: 0.3"/>
    <path d="M 605.528018 65.068675 
L 606.248665 65.801852 
L 605.663235 66.028936 
z
" clip-path="url(#p73096b4f57)" style="fill: #eeeeee; stroke: #000000; stroke-width: 0.3"/>
    <path d="M 591.54788 82.535089 
L 592.350523 81.887898 
L 592.721638 83.162029 
z
" clip-path="url(#p73096b4f57)" style="fill: #eeeeee; stroke: #000000; stroke-width: 0.3"/>
    <path d="M 589.616056 99.807685 
L 590.070599 99.347018 
L 591.106276 101.077749 
z
" clip-path="url(#p73096b4f57)" style="fill: #eeeeee; stroke: #000000; stroke-width: 0.3"/>
    <path d="M 545.39761 135.665456 
L 546.090471 135.079517 
L 548.681573 136.277228 
z
" clip-path="url(#p73096b4f57)" style="fill: #eeeeee; stroke: #000000; stroke-width: 0.3"/>
    <path d="M 545.274889 133.562894 
L 546.189737 133.790796 
L 545.296453 133.747803 
z
" clip-path="url(#p73096b4f57)" style="fill: #eeeeee; stroke: #000000; stroke-width: 0.3"/>
    <path d="M 497.032673 163.655466 
L 498.755926 162.788486 
L 498.725719 163.275105 
z
" clip-path="url(#p73096b4f57)" style="fill: #eeeeee; stroke: #000000; stroke-width: 0.3"/>
    <path d="M 488.717474 164.225959 
L 489.215887 164.830774 
L 488.928289 164.71178 
z
" clip-path="url(#p73096b4f57)" style="fill: #eeeeee; stroke: #000000; stroke-width: 0.3"/>
    <path d="M 486.493227 155.930776 
L 487.330761 155.723205 
L 486.683167 156.367645 
z
" clip-path="url(#p73096b4f57)" style="fill: #eeeeee; stroke: #000000; stroke-width: 0.3"/>
    <path d="M 484.717177 145.807753 
L 485.488517 146.005777 
L 485.336773 146.630046 
z
" clip-path="url(#p73096b4f57)" style="fill: #eeeeee; stroke: #000000; stroke-width: 0.3"/>
    <path d="M 484.270889 162.747107 
L 484.875036 161.632751 
L 485.3828 162.323752 
z
" clip-path="url(#p73096b4f57)" style="fill: #eeeeee; stroke: #000000; stroke-width: 0.3"/>
    <path d="M 484.12595 149.828069 
L 486.939462 151.08456 
L 487.048078 152.177848 
z
" clip-path="url(#p73096b4f57)" style="fill: #eeeeee; stroke: #000000; stroke-width: 0.3"/>
    <path d="M 482.705866 146.26854 
L 484.109794 146.216638 
L 485.571238 149.06336 
z
" clip-path="url(#p73096b4f57)" style="fill: #eeeeee; stroke: #000000; stroke-width: 0.3"/>
    <path d="M 481.172501 163.688733 
L 482.467088 162.383767 
L 482.875604 164.02937 
z
" clip-path="url(#p73096b4f57)" style="fill: #eeeeee; stroke: #000000; stroke-width: 0.3"/>
    <path d="M 479.695237 166.146164 
L 480.082171 165.301866 
L 480.272041 166.552477 
z
" clip-path="url(#p73096b4f57)" style="fill: #eeeeee; stroke: #000000; stroke-width: 0.3"/>
    <path d="M 470.847422 270.482368 
L 470.864691 270.426399 
L 470.991266 270.4848 
z
" clip-path="url(#p73096b4f57)" style="fill: #eeeeee; stroke: #000000; stroke-width: 0.3"/>
    <path d="M 463.957326 265.347717 
L 464.056574 265.284453 
L 464.046499 265.35258 
z
" clip-path="url(#p73096b4f57)" style="fill: #eeeeee; stroke: #000000; stroke-width: 0.3"/>
    <path d="M 463.810602 267.222816 
L 463.82354 267.076017 
L 463.957326 267.166049 
z
" clip-path="url(#p73096b4f57)" style="fill: #eeeeee; stroke: #000000; stroke-width: 0.3"/>
    <path d="M 454.65785 172.829887 
L 455.116705 171.266205 
L 458.025223 171.720395 
z
" clip-path="url(#p73096b4f57)" style="fill: #eeeeee; stroke: #000000; stroke-width: 0.3"/>
    <path d="M 453.663887 282.870897 
L 453.669649 282.815746 
L 453.810611 282.791429 
z
" clip-path="url(#p73096b4f57)" style="fill: #eeeeee; stroke: #000000; stroke-width: 0.3"/>
    <path d="M 452.352031 272.178239 
L 452.400939 272.196895 
L 452.376494 272.237437 
z
" clip-path="url(#p73096b4f57)" style="fill: #eeeeee; stroke: #000000; stroke-width: 0.3"/>
    <path d="M 451.008535 273.130389 
L 451.127933 273.231763 
L 451.06895 273.312069 
z
" clip-path="url(#p73096b4f57)" style="fill: #eeeeee; stroke: #000000; stroke-width: 0.3"/>
    <path d="M 443.822127 288.032318 
L 444.020623 287.960941 
L 444.020623 288.102877 
z
" clip-path="url(#p73096b4f57)" style="fill: #eeeeee; stroke: #000000; stroke-width: 0.3"/>
    <path d="M 432.35493 185.74153 
L 433.856657 185.363601 
L 433.091397 186.423622 
z
" clip-path="url(#p73096b4f57)" style="fill: #eeeeee; stroke: #000000; stroke-width: 0.3"/>
    <path d="M 430.059186 190.982439 
L 431.087669 192.155196 
L 430.7597 192.336058 
z
" clip-path="url(#p73096b4f57)" style="fill: #eeeeee; stroke: #000000; stroke-width: 0.3"/>
    <path d="M 406.601191 183.265443 
L 407.170819 182.797481 
L 407.25856 183.460099 
z
" clip-path="url(#p73096b4f57)" style="fill: #eeeeee; stroke: #000000; stroke-width: 0.3"/>
    <path d="M 47.149992 60.271989 
L 51.439194 57.914736 
L 51.109493 53.940025 
L 61.416472 41.894007 
L 67.684922 38.2871 
L 73.154793 37.434052 
L 74.319236 39.368408 
L 79.555703 39.927559 
L 77.567318 43.135688 
L 80.965181 42.777231 
L 87.760926 45.319313 
L 91.97172 42.755605 
L 98.118933 45.778685 
L 96.818089 47.540092 
L 98.080383 48.912348 
L 97.360814 53.61914 
L 99.694543 55.342059 
L 104.935429 55.604403 
L 106.087481 58.682695 
L 104.300861 62.436062 
L 105.804338 66.746646 
L 102.629344 66.87437 
L 102.37358 68.43588 
L 101.427288 67.330673 
L 96.045511 68.544031 
L 94.26985 67.070082 
L 92.084984 69.002386 
L 81.842044 69.152773 
L 75.333119 66.569491 
L 71.415526 69.464847 
L 65.873892 70.565948 
L 57.530836 67.413071 
L 53.197639 68.069192 
L 49.84179 64.886457 
L 48.870841 65.59715 
z
" clip-path="url(#p73096b4f57)" style="fill: #eeeeee; stroke: #000000; stroke-width: 0.3"/>
    <path d="M 107.669507 178.127044 
L 110.221564 174.894878 
L 113.789324 176.903401 
L 114.604093 179.172515 
L 115.720264 178.476232 
L 114.69726 164.616386 
L 116.604444 161.093731 
L 120.027884 165.026326 
L 121.630007 164.423763 
L 122.627435 160.14509 
L 124.699036 160.436595 
L 125.263538 158.998683 
L 123.599303 148.767569 
L 125.296414 146.595285 
L 124.887209 143.242072 
L 127.015443 144.119636 
L 128.820339 141.651741 
L 129.836043 131.335139 
L 127.888665 122.709803 
L 130.265345 125.103552 
L 134.762942 124.196628 
L 142.1999 127.156364 
L 145.089911 117.676127 
L 152.393508 103.85748 
L 152.050073 101.612584 
L 149.649637 100.304469 
L 150.616026 96.50783 
L 157.700393 89.680915 
L 157.556073 85.995536 
L 160.217735 83.446239 
L 158.283154 78.70921 
L 159.715363 72.251036 
L 164.803037 70.456761 
L 177.740516 59.376925 
L 187.685678 57.31895 
L 190.515398 61.088801 
L 195.002053 62.769782 
L 190.798559 55.657542 
L 190.601266 52.169927 
L 196.836167 46.576442 
L 198.790863 46.687164 
L 198.613666 40.242883 
L 200.811312 38.645855 
L 202.223441 34.023155 
L 204.746262 34.386754 
L 206.423277 37.553006 
L 208.75978 37.495322 
L 212.815295 42.100522 
L 212.464543 45.114333 
L 215.780216 53.813816 
L 217.345786 53.43168 
L 217.822582 50.871081 
L 222.577781 53.002166 
L 223.92596 71.98323 
L 221.92195 79.368419 
L 223.04178 80.954644 
L 220.21388 82.335889 
L 222.809772 86.853527 
L 221.353807 88.416053 
L 219.375373 87.815563 
L 216.450647 93.072736 
L 213.047304 92.185904 
L 211.36481 98.155864 
L 208.978992 100.236481 
L 207.053531 99.637008 
L 205.261432 103.077762 
L 206.421456 107.669049 
L 202.31295 109.888213 
L 201.967695 115.563579 
L 204.337057 115.688213 
L 205.623143 121.366669 
L 202.024327 125.445006 
L 203.936991 127.360826 
L 212.428008 122.281844 
L 220.915367 122.796328 
L 225.873339 121.401689 
L 222.21607 125.080371 
L 222.30192 128.35272 
L 224.590912 129.119582 
L 225.701621 132.0788 
L 224.373521 133.616611 
L 226.295341 136.129333 
L 225.754595 140.6619 
L 232.075364 143.093758 
L 234.146965 141.653794 
L 236.962086 143.093758 
L 237.756758 145.703808 
L 235.553615 145.617802 
L 233.690266 149.316575 
L 234.570788 154.293585 
L 230.800255 161.109179 
L 244.904156 163.26191 
L 245.042979 169.727299 
L 248.44634 171.047771 
L 247.512845 173.558938 
L 249.230035 175.572624 
L 251.966606 173.530097 
L 256.911781 174.751707 
L 265.061184 168.81882 
L 266.670607 171.904745 
L 263.658193 176.009353 
L 258.744074 177.889116 
L 255.074927 185.968535 
L 257.448868 186.560794 
L 252.370332 187.525919 
L 249.657517 190.13288 
L 247.677244 197.698831 
L 244.810989 195.163466 
L 239.769889 197.917704 
L 235.681498 196.547801 
L 237.267165 200.967573 
L 233.472876 202.78762 
L 229.545225 202.015615 
L 228.262816 207.600869 
L 226.467058 209.043902 
L 224.850335 207.889264 
L 219.98553 210.494172 
L 214.769974 210.716652 
L 211.00492 207.960341 
L 210.718118 211.226512 
L 207.895697 212.651009 
L 206.454332 216.041814 
L 207.227069 221.728501 
L 204.523392 225.445831 
L 206.076183 232.514799 
L 201.901924 234.10513 
L 199.106901 232.911346 
L 201.49454 238.074301 
L 204.16534 237.791546 
L 206.224162 244.514436 
L 204.846747 247.278998 
L 206.31733 250.04665 
L 219.576325 265.968577 
L 218.64283 269.345988 
L 222.29462 278.047523 
L 225.41116 274.344644 
L 226.52369 276.154366 
L 224.839358 281.55782 
L 220.239456 282.81443 
L 220.467806 296.610933 
L 217.702018 296.515658 
L 217.380501 298.585472 
L 215.573784 297.913386 
L 213.407177 301.573013 
L 214.872279 307.577476 
L 220.252236 316.097232 
L 227.102792 321.922964 
L 229.837524 326.213996 
L 231.607706 338.982547 
L 230.051256 340.14183 
L 229.894157 342.793079 
L 232.214205 349.188427 
L 235.37458 352.009637 
L 236.240502 360.909973 
L 237.82069 360.68544 
L 237.409664 362.972054 
L 239.382619 367.161113 
L 237.837128 370.654927 
L 236.196649 371.187429 
L 232.011432 381.263013 
L 224.123254 389.624669 
L 223.781958 396.366116 
L 220.171494 403.602951 
L 218.689918 389.093582 
L 219.912584 389.538025 
L 221.722129 386.394456 
L 220.850445 385.7724 
L 223.16344 384.928102 
L 222.205447 380.790207 
L 223.991978 378.060267 
L 222.908843 375.687188 
L 224.268158 374.381425 
L 223.573388 370.623912 
L 226.330868 369.594706 
L 224.410569 368.370047 
L 225.165736 366.959661 
L 224.869424 366.452772 
L 222.487371 369.762593 
L 221.23881 367.403287 
L 223.05988 365.907752 
L 220.275055 365.907752 
L 222.309008 365.07643 
L 223.323103 363.533039 
L 221.700547 360.85825 
L 223.002328 358.749568 
L 220.099573 358.67008 
L 223.05988 356.55492 
L 221.267586 354.939335 
L 223.115964 353.275894 
L 221.58403 352.363489 
L 222.81822 349.032579 
L 221.491976 348.215867 
L 220.795774 339.834639 
L 214.898192 329.324458 
L 213.967525 322.335795 
L 213.874039 332.717016 
L 213.121735 332.851657 
L 211.661723 323.424199 
L 212.517587 320.280631 
L 208.547516 309.990239 
L 211.059024 310.718553 
L 209.685304 307.701492 
L 207.926099 309.20191 
L 206.94366 306.078632 
L 207.438485 299.521417 
L 205.735365 296.924482 
L 206.94366 295.562771 
L 205.746871 286.88633 
L 202.950557 282.517284 
L 204.158853 274.246379 
L 205.979905 272.613752 
L 199.440791 274.1231 
L 196.135264 265.393122 
L 195.674959 262.097911 
L 197.508967 261.689943 
L 195.689347 261.251998 
L 195.204597 262.246324 
L 190.828873 254.711825 
L 189.741424 255.961618 
L 191.316504 257.509076 
L 190.233368 259.584511 
L 191.320817 263.334728 
L 187.230251 272.302894 
L 182.931363 274.238287 
L 179.921228 271.865168 
L 179.210639 268.586979 
L 180.295224 267.553726 
L 178.245452 268.382596 
L 180.899372 275.484014 
L 177.32341 277.347772 
L 175.336934 276.040375 
L 176.414325 277.577288 
L 171.644473 280.872519 
L 170.35708 279.319381 
L 169.294076 284.773582 
L 164.893907 289.282928 
L 162.634132 288.940677 
L 163.983372 284.068788 
L 163.935914 280.803575 
L 161.305007 288.015296 
L 159.767329 287.396468 
L 159.271072 283.260188 
L 161.538041 281.370499 
L 159.94426 280.803575 
L 158.792066 282.269112 
L 158.144773 287.63328 
L 154.837814 287.93499 
L 155.712379 286.802795 
L 154.623481 284.774399 
L 156.202892 282.993359 
L 155.1255 281.214771 
L 155.778556 280.097983 
L 156.824291 279.757346 
L 157.41117 278.762203 
L 154.975913 280.56756 
L 155.236255 282.944705 
L 152.616873 286.617866 
L 150.49806 285.331577 
L 152.812505 283.414302 
L 153.898522 280.531882 
L 149.883855 285.046909 
L 151.868882 281.343731 
L 152.812505 273.305571 
L 151.835811 273.157975 
L 150.968422 278.574863 
L 151.000079 276.900877 
L 149.081193 277.871683 
L 147.435642 282.282905 
L 144.102789 284.233446 
L 144.611984 273.24717 
L 145.902258 272.830313 
L 146.627236 265.797023 
L 148.082935 264.832715 
L 147.900242 260.239834 
L 149.376073 260.093832 
L 149.522798 257.45797 
L 150.37723 258.00299 
L 149.773082 252.226808 
L 150.739719 252.955122 
L 147.723328 244.134313 
L 148.540359 242.452236 
L 147.34357 239.063743 
L 145.660599 238.740148 
L 147.240009 237.639565 
L 142.501797 229.326483 
L 143.609395 229.43597 
L 144.806167 229.177253 
L 142.501797 226.591659 
L 140.542664 226.773339 
L 141.051859 216.212072 
L 140.459218 219.888482 
L 139.400545 221.04906 
L 138.285753 220.15856 
L 139.593297 224.606257 
L 138.639616 226.783066 
L 134.193402 223.574619 
L 130.803016 217.313452 
L 131.968148 215.383182 
L 136.939376 219.217752 
L 138.630973 217.990661 
L 139.645068 216.257477 
L 139.593297 214.7157 
L 135.118325 211.357225 
L 136.335229 210.880333 
L 136.454626 209.099293 
L 135.646221 210.513745 
L 135.479364 208.703524 
L 132.824012 209.642698 
L 135.273675 205.525892 
L 132.45866 206.398553 
L 131.48483 204.049811 
L 129.673853 204.724587 
L 128.951757 202.268771 
L 128.589268 203.506406 
L 128.215272 201.996261 
L 127.009875 203.0863 
L 124.463846 202.146309 
L 126.362564 207.078213 
L 124.122922 204.156865 
L 125.177299 207.873837 
L 121.667515 201.452876 
L 123.859698 201.044112 
L 124.33151 199.808091 
L 122.025691 200.945169 
L 123.807909 196.439072 
L 122.742025 195.868101 
L 123.70723 193.41067 
L 123.488584 192.978386 
L 119.855089 201.60129 
L 118.272815 199.416368 
L 121.184214 197.630485 
L 119.134442 194.165732 
L 118.116034 194.962991 
L 117.257288 192.228984 
L 115.742606 190.12112 
L 117.442845 198.867303 
L 111.254695 190.078126 
z
" clip-path="url(#p73096b4f57)" style="fill: #eeeeee; stroke: #000000; stroke-width: 0.3"/>
    <path d="M 215.909423 356.752805 
L 216.149633 349.786845 
L 218.091514 352.930393 
L 218.813611 351.854167 
L 218.628054 354.365116 
z
" clip-path="url(#p73096b4f57)" style="fill: #eeeeee; stroke: #000000; stroke-width: 0.3"/>
    <path d="M 211.939334 385.651552 
L 213.609366 383.846195 
L 215.303826 386.666966 
L 215.003202 389.538025 
L 214.084041 385.779695 
z
" clip-path="url(#p73096b4f57)" style="fill: #eeeeee; stroke: #000000; stroke-width: 0.3"/>
    <path d="M 210.696536 368.233792 
L 210.817365 366.180262 
L 212.155099 370.818548 
L 210.778515 369.374099 
L 211.071963 369.125926 
z
" clip-path="url(#p73096b4f57)" style="fill: #eeeeee; stroke: #000000; stroke-width: 0.3"/>
    <path d="M 201.013519 277.754404 
L 201.020183 274.246379 
L 203.612239 274.1231 
L 202.994852 279.322431 
L 202.572355 279.776182 
z
" clip-path="url(#p73096b4f57)" style="fill: #eeeeee; stroke: #000000; stroke-width: 0.3"/>
    <path d="M 130.751226 226.457039 
L 133.18362 225.752245 
L 135.31682 226.510556 
L 135.131263 230.15049 
L 133.599329 230.356487 
z
" clip-path="url(#p73096b4f57)" style="fill: #eeeeee; stroke: #000000; stroke-width: 0.3"/>
    <path d="M 219.296929 385.591537 
L 220.349857 386.752932 
L 219.888121 387.667769 
L 219.380357 387.534763 
z
" clip-path="url(#p73096b4f57)" style="fill: #eeeeee; stroke: #000000; stroke-width: 0.3"/>
    <path d="M 218.954573 355.018007 
L 219.659418 353.61085 
L 219.659418 355.044775 
L 219.331449 355.400003 
z
" clip-path="url(#p73096b4f57)" style="fill: #eeeeee; stroke: #000000; stroke-width: 0.3"/>
    <path d="M 218.333174 361.25647 
L 222.222698 364.511957 
L 222.205447 364.806372 
L 219.02075 365.662808 
z
" clip-path="url(#p73096b4f57)" style="fill: #eeeeee; stroke: #000000; stroke-width: 0.3"/>
    <path d="M 217.124896 367.689589 
L 220.405959 368.297873 
L 220.033413 372.872098 
L 218.213793 372.125128 
z
" clip-path="url(#p73096b4f57)" style="fill: #eeeeee; stroke: #000000; stroke-width: 0.3"/>
    <path d="M 213.49285 373.974295 
L 215.490833 367.479527 
L 215.582887 373.267069 
L 213.691345 374.468209 
z
" clip-path="url(#p73096b4f57)" style="fill: #eeeeee; stroke: #000000; stroke-width: 0.3"/>
    <path d="M 211.267595 359.356217 
L 211.853025 357.71793 
L 212.901658 359.531399 
L 213.000906 360.723629 
z
" clip-path="url(#p73096b4f57)" style="fill: #eeeeee; stroke: #000000; stroke-width: 0.3"/>
    <path d="M 208.616556 394.981682 
L 209.006371 393.495854 
L 209.573118 394.507221 
L 208.983358 395.341772 
z
" clip-path="url(#p73096b4f57)" style="fill: #eeeeee; stroke: #000000; stroke-width: 0.3"/>
    <path d="M 146.756691 283.742761 
L 151.57257 279.338855 
L 150.998629 282.262634 
L 146.986844 286.965001 
z
" clip-path="url(#p73096b4f57)" style="fill: #eeeeee; stroke: #000000; stroke-width: 0.3"/>
    <path d="M 133.537483 214.158523 
L 134.984539 212.875463 
L 139.351637 215.654874 
L 136.382705 218.450511 
z
" clip-path="url(#p73096b4f57)" style="fill: #eeeeee; stroke: #000000; stroke-width: 0.3"/>
    <path d="M 219.003481 383.945137 
L 219.844975 381.693703 
L 220.142736 384.341724 
z
" clip-path="url(#p73096b4f57)" style="fill: #eeeeee; stroke: #000000; stroke-width: 0.3"/>
    <path d="M 218.222419 383.548531 
L 218.550388 383.382279 
L 218.353324 384.107344 
z
" clip-path="url(#p73096b4f57)" style="fill: #eeeeee; stroke: #000000; stroke-width: 0.3"/>
    <path d="M 215.105331 365.431677 
L 215.262112 365.312444 
L 215.680703 365.833127 
z
" clip-path="url(#p73096b4f57)" style="fill: #eeeeee; stroke: #000000; stroke-width: 0.3"/>
    <path d="M 214.942787 339.270983 
L 216.517867 342.084458 
L 215.909423 345.284793 
z
" clip-path="url(#p73096b4f57)" style="fill: #eeeeee; stroke: #000000; stroke-width: 0.3"/>
    <path d="M 214.739961 364.120234 
L 215.183014 364.064265 
L 214.921205 364.975056 
z
" clip-path="url(#p73096b4f57)" style="fill: #eeeeee; stroke: #000000; stroke-width: 0.3"/>
    <path d="M 214.640713 353.184247 
L 215.695091 352.998521 
L 215.17582 353.617348 
z
" clip-path="url(#p73096b4f57)" style="fill: #eeeeee; stroke: #000000; stroke-width: 0.3"/>
    <path d="M 214.459469 378.057038 
L 215.545485 377.920783 
L 214.942787 379.145442 
z
" clip-path="url(#p73096b4f57)" style="fill: #eeeeee; stroke: #000000; stroke-width: 0.3"/>
    <path d="M 213.924379 393.076565 
L 214.492557 393.424497 
L 213.9776 393.737549 
z
" clip-path="url(#p73096b4f57)" style="fill: #eeeeee; stroke: #000000; stroke-width: 0.3"/>
    <path d="M 213.734509 399.508867 
L 214.821957 399.917632 
L 213.855338 402.514547 
z
" clip-path="url(#p73096b4f57)" style="fill: #eeeeee; stroke: #000000; stroke-width: 0.3"/>
    <path d="M 212.823974 404.14797 
L 215.666315 403.194206 
L 212.930416 406.430219 
z
" clip-path="url(#p73096b4f57)" style="fill: #eeeeee; stroke: #000000; stroke-width: 0.3"/>
    <path d="M 210.843242 406.813033 
L 211.385544 406.782218 
L 210.895031 407.44077 
z
" clip-path="url(#p73096b4f57)" style="fill: #eeeeee; stroke: #000000; stroke-width: 0.3"/>
    <path d="M 209.60907 357.309165 
L 211.913439 354.97015 
L 210.575706 358.126695 
z
" clip-path="url(#p73096b4f57)" style="fill: #eeeeee; stroke: #000000; stroke-width: 0.3"/>
    <path d="M 209.117126 327.938409 
L 209.134395 326.549909 
L 209.478183 326.579109 
z
" clip-path="url(#p73096b4f57)" style="fill: #eeeeee; stroke: #000000; stroke-width: 0.3"/>
    <path d="M 208.512995 386.51935 
L 209.014997 384.930534 
L 209.719842 385.033542 
z
" clip-path="url(#p73096b4f57)" style="fill: #eeeeee; stroke: #000000; stroke-width: 0.3"/>
    <path d="M 207.659994 347.687073 
L 207.969262 347.412948 
L 208.238248 348.045549 
z
" clip-path="url(#p73096b4f57)" style="fill: #eeeeee; stroke: #000000; stroke-width: 0.3"/>
    <path d="M 207.556434 352.385394 
L 207.918923 351.636809 
L 207.918923 352.780365 
z
" clip-path="url(#p73096b4f57)" style="fill: #eeeeee; stroke: #000000; stroke-width: 0.3"/>
    <path d="M 204.400512 291.888773 
L 204.780252 293.062346 
L 204.63929 293.645476 
z
" clip-path="url(#p73096b4f57)" style="fill: #eeeeee; stroke: #000000; stroke-width: 0.3"/>
    <path d="M 204.258101 366.126725 
L 204.888126 365.723641 
L 204.771627 366.723647 
z
" clip-path="url(#p73096b4f57)" style="fill: #eeeeee; stroke: #000000; stroke-width: 0.3"/>
    <path d="M 200.749766 367.470617 
L 201.374046 367.914243 
L 201.012989 367.750422 
z
" clip-path="url(#p73096b4f57)" style="fill: #eeeeee; stroke: #000000; stroke-width: 0.3"/>
    <path d="M 152.6816 287.509203 
L 154.130106 285.13449 
L 154.075453 287.815777 
z
" clip-path="url(#p73096b4f57)" style="fill: #eeeeee; stroke: #000000; stroke-width: 0.3"/>
    <path d="M 134.635006 305.597674 
L 134.997495 305.411151 
L 134.645081 306.264358 
z
" clip-path="url(#p73096b4f57)" style="fill: #eeeeee; stroke: #000000; stroke-width: 0.3"/>
    <path d="M 129.314245 204.968714 
L 131.010155 206.285021 
L 131.243188 209.099293 
z
" clip-path="url(#p73096b4f57)" style="fill: #eeeeee; stroke: #000000; stroke-width: 0.3"/>
    <path d="M 128.81942 322.335795 
L 129.092719 320.560435 
L 129.171834 322.103029 
z
" clip-path="url(#p73096b4f57)" style="fill: #eeeeee; stroke: #000000; stroke-width: 0.3"/>
    <path d="M 120.6376 202.345011 
L 122.452907 205.915183 
L 122.634151 207.465072 
z
" clip-path="url(#p73096b4f57)" style="fill: #eeeeee; stroke: #000000; stroke-width: 0.3"/>
    <path d="M 34.201554 111.437345 
L 35.847512 106.039571 
L 39.521219 106.871312 
L 41.616577 100.591828 
L 50.151429 101.027521 
L 51.225604 98.693529 
L 48.699124 97.739725 
L 47.46785 94.368493 
L 43.189465 94.403513 
L 38.410528 88.646785 
L 35.364318 87.810401 
L 36.711578 81.641659 
L 42.612183 77.4114 
L 41.967329 75.394645 
L 39.386037 75.172164 
L 40.626449 72.013108 
L 45.416345 76.167147 
L 46.405553 77.898597 
L 45.542389 79.170674 
L 51.835761 79.768075 
L 49.569606 76.75219 
L 50.449208 75.68304 
L 52.265063 76.84593 
L 53.598625 81.519097 
L 57.418491 84.470083 
L 61.066639 85.244639 
L 62.297913 83.002314 
L 61.439309 81.599443 
L 63.034114 80.002913 
L 66.138777 84.852219 
L 65.96888 98.693529 
L 75.612622 101.383904 
L 91.008989 100.348758 
L 98.13173 101.900979 
L 105.119271 100.75252 
L 113.069561 105.804215 
L 111.248226 107.628367 
L 108.46052 106.538608 
L 106.419975 116.21352 
L 102.748071 117.567478 
L 102.346183 121.155509 
L 99.797786 119.635738 
L 99.280795 121.456283 
L 97.961834 120.013747 
L 97.126985 122.389995 
L 93.259626 122.31531 
L 89.182175 129.873548 
L 92.384583 142.223389 
L 93.398449 142.986126 
L 93.813151 139.002026 
L 97.201876 145.344335 
L 100.904819 142.453604 
L 99.987762 138.809424 
L 103.471493 134.367487 
L 103.151796 129.827187 
L 104.854387 131.479845 
L 107.183573 129.654157 
L 107.952668 131.318655 
L 109.101734 130.155765 
L 110.879215 145.700201 
L 113.283293 150.304363 
L 115.720264 178.476232 
L 114.604093 179.172515 
L 113.789324 176.903401 
L 110.221564 174.894878 
L 107.669507 178.127044 
L 110.272239 189.309271 
L 103.687098 175.294613 
L 105.036338 170.051293 
L 104.233695 171.142926 
L 104.341586 168.258891 
L 102.73773 168.365149 
L 103.629564 166.477871 
L 101.212991 160.575162 
L 102.89308 155.703293 
L 100.755567 159.426742 
L 98.792104 153.513508 
L 95.016215 148.983074 
L 95.512472 146.140398 
L 92.452917 150.272612 
L 90.057925 149.689482 
L 91.517937 151.396694 
L 90.426423 153.341954 
L 88.419514 153.317836 
L 87.166676 150.554031 
L 87.513345 152.437262 
L 85.813105 152.491597 
L 80.292399 142.953836 
L 80.962706 138.902725 
L 79.777442 135.269309 
L 81.805632 134.304183 
L 81.82002 133.571006 
L 79.909778 134.448531 
L 79.984581 132.156555 
L 77.586708 132.618039 
L 79.363182 133.484223 
L 78.923009 136.564527 
L 73.574922 135.16062 
L 79.964431 139.637537 
L 79.276872 142.608355 
L 79.043839 142.031704 
L 77.185386 142.795696 
L 77.101957 143.126586 
L 77.444296 144.315567 
L 78.189406 145.867888 
L 78.713007 146.299355 
L 77.586708 146.547528 
L 75.7527 148.992801 
L 77.880156 150.019575 
L 76.981128 154.33022 
L 78.431065 152.547566 
L 79.889646 154.885764 
L 79.528589 154.73735 
L 80.010475 157.893077 
L 79.029451 160.116129 
L 76.387055 162.456758 
L 76.620071 160.205344 
L 76.13677 158.424304 
L 73.98775 167.01153 
L 70.810247 167.552483 
L 71.398558 165.525722 
L 69.599088 166.910953 
L 73.393677 160.735753 
L 69.840747 164.437317 
L 70.096776 161.07071 
L 68.008171 164.215096 
L 66.989763 158.693565 
L 69.345922 154.398347 
L 66.920722 155.825755 
L 66.893396 162.338362 
L 65.582971 162.654663 
L 67.053059 166.477871 
L 64.026592 167.556549 
L 62.927619 165.661977 
L 63.876987 168.457613 
L 61.866065 170.132396 
L 60.813119 167.900415 
L 62.565131 157.472154 
L 60.910936 164.47461 
L 60.985738 162.395129 
L 59.901153 158.288049 
L 60.715321 164.920687 
L 59.725671 168.528172 
L 58.025449 169.285666 
L 58.331836 166.138869 
L 57.717613 164.721168 
L 56.750994 170.584951 
L 55.211866 171.063457 
L 54.809095 167.926367 
L 53.341906 167.839603 
L 52.838686 160.680701 
L 50.219038 153.244008 
L 50.51132 147.266852 
L 48.642491 144.719628 
L 50.784424 140.197366 
L 46.128791 139.207525 
L 47.429494 134.494175 
L 43.388579 131.505597 
L 44.026133 127.192421 
L 46.439349 125.797264 
L 45.801794 121.230194 
L 46.852213 118.583071 
L 42.219417 118.017581 
L 35.759824 114.319845 
z
" clip-path="url(#p73096b4f57)" style="fill: #eeeeee; stroke: #000000; stroke-width: 0.3"/>
    <path d="M 79.043839 152.151777 
L 79.51565 148.860612 
L 80.666395 148.47455 
L 84.280323 155.505667 
L 83.947459 160.618155 
L 80.611742 164.288087 
L 81.328076 156.642467 
L 80.611742 153.240998 
z
" clip-path="url(#p73096b4f57)" style="fill: #eeeeee; stroke: #000000; stroke-width: 0.3"/>
    <path d="M 101.929325 169.634416 
L 102.533473 170.448696 
L 103.379262 168.953141 
L 103.992035 173.665256 
L 102.346466 174.513599 
z
" clip-path="url(#p73096b4f57)" style="fill: #eeeeee; stroke: #000000; stroke-width: 0.3"/>
    <path d="M 77.222787 148.873587 
L 77.534918 146.925478 
L 81.155458 148.057673 
L 79.612795 147.946393 
L 78.376165 149.982522 
z
" clip-path="url(#p73096b4f57)" style="fill: #eeeeee; stroke: #000000; stroke-width: 0.3"/>
    <path d="M 94.735245 155.135391 
L 95.107138 152.483086 
L 96.676791 154.63773 
L 96.655898 156.156127 
z
" clip-path="url(#p73096b4f57)" style="fill: #eeeeee; stroke: #000000; stroke-width: 0.3"/>
    <path d="M 86.425879 160.466492 
L 86.437386 159.401608 
L 86.540964 159.003387 
L 86.804187 159.483528 
z
" clip-path="url(#p73096b4f57)" style="fill: #eeeeee; stroke: #000000; stroke-width: 0.3"/>
    <path d="M 80.119798 155.703293 
L 80.810238 156.604357 
L 80.482269 158.015539 
L 80.482269 157.199645 
z
" clip-path="url(#p73096b4f57)" style="fill: #eeeeee; stroke: #000000; stroke-width: 0.3"/>
    <path d="M 77.716163 163.472172 
L 80.010475 160.899574 
L 78.164961 164.181032 
L 78.790673 162.940148 
z
" clip-path="url(#p73096b4f57)" style="fill: #eeeeee; stroke: #000000; stroke-width: 0.3"/>
    <path d="M 76.762482 136.560461 
L 78.7015 137.261209 
L 79.528589 138.223085 
L 77.776578 137.878402 
z
" clip-path="url(#p73096b4f57)" style="fill: #eeeeee; stroke: #000000; stroke-width: 0.3"/>
    <path d="M 76.13677 165.389467 
L 76.860298 163.348095 
L 77.760758 164.631953 
L 76.512197 166.151844 
z
" clip-path="url(#p73096b4f57)" style="fill: #eeeeee; stroke: #000000; stroke-width: 0.3"/>
    <path d="M 101.55821 169.634416 
L 102.170984 165.525722 
L 102.093318 168.355422 
z
" clip-path="url(#p73096b4f57)" style="fill: #eeeeee; stroke: #000000; stroke-width: 0.3"/>
    <path d="M 88.852722 154.972488 
L 89.026861 154.419754 
L 90.569365 154.292688 
z
" clip-path="url(#p73096b4f57)" style="fill: #eeeeee; stroke: #000000; stroke-width: 0.3"/>
    <path d="M 87.240047 162.278347 
L 88.164987 156.424032 
L 90.144358 159.629749 
z
" clip-path="url(#p73096b4f57)" style="fill: #eeeeee; stroke: #000000; stroke-width: 0.3"/>
    <path d="M 85.732558 159.530567 
L 86.425879 156.927135 
L 86.743772 158.148565 
z
" clip-path="url(#p73096b4f57)" style="fill: #eeeeee; stroke: #000000; stroke-width: 0.3"/>
    <path d="M 85.433365 160.979063 
L 86.077778 161.282387 
L 85.594477 161.839565 
z
" clip-path="url(#p73096b4f57)" style="fill: #eeeeee; stroke: #000000; stroke-width: 0.3"/>
    <path d="M 80.611742 155.703293 
L 80.718184 154.532968 
L 80.962706 155.418625 
z
" clip-path="url(#p73096b4f57)" style="fill: #eeeeee; stroke: #000000; stroke-width: 0.3"/>
    <path d="M 78.147692 144.720286 
L 79.528589 143.541849 
L 80.413229 145.805441 
z
" clip-path="url(#p73096b4f57)" style="fill: #eeeeee; stroke: #000000; stroke-width: 0.3"/>
    <path d="M 78.068576 166.910953 
L 79.889646 165.389467 
L 78.725945 166.642509 
z
" clip-path="url(#p73096b4f57)" style="fill: #eeeeee; stroke: #000000; stroke-width: 0.3"/>
    <path d="M 77.222787 142.985468 
L 78.281478 143.202029 
L 77.465878 144.085234 
z
" clip-path="url(#p73096b4f57)" style="fill: #eeeeee; stroke: #000000; stroke-width: 0.3"/>
    <path d="M 75.170134 164.721168 
L 75.506728 163.717116 
L 75.903737 163.709003 
z
" clip-path="url(#p73096b4f57)" style="fill: #eeeeee; stroke: #000000; stroke-width: 0.3"/>
    <path d="M 74.799019 166.305938 
L 76.13677 164.164807 
L 74.875254 167.28079 
z
" clip-path="url(#p73096b4f57)" style="fill: #eeeeee; stroke: #000000; stroke-width: 0.3"/>
    <path d="M 52.299036 165.822548 
L 53.83385 169.717951 
L 52.402596 168.291341 
z
" clip-path="url(#p73096b4f57)" style="fill: #eeeeee; stroke: #000000; stroke-width: 0.3"/>
    <path d="M -107.037457 26.682774 
L -103.023956 20.610343 
L -103.80949 16.336294 
L -100.778817 12.590142 
L -101.065619 9.538739 
L -91.964444 0.519946 
L -89.796936 0.948424 
L -88.183854 4.376302 
L -86.079376 4.550387 
L -83.724613 1.579828 
L -83.062384 -2.739009 
L -80.908573 -1.831566 
L -79.058941 -3.595983 
L -70.667471 -1.86557 
L -69.517505 3.554368 
L -62.659649 6.243727 
L -57.449589 11.494721 
L -54.987041 11.41027 
L -53.413234 13.10927 
L -51.493271 12.2626 
L -45.304025 20.9863 
L -43.261658 21.561038 
L -38.398674 18.877339 
L -35.299491 19.530888 
L -32.794929 24.127835 
L -33.231549 25.82837 
L -28.916611 29.94998 
L -22.53373 33.774923 
L -18.238906 31.847263 
L -16.364599 32.71813 
L -17.838822 35.89367 
L -17.276176 38.752451 
L -8.396051 39.571834 
L -6.962004 37.896015 
L -2.194025 46.742774 
L 0.460337 46.036705 
L -0.3197 43.047608 
L 1.222114 41.457796 
L 2.054241 44.526201 
L 5.982793 46.373016 
L 8.249867 42.501712 
L 10.16619 42.448155 
L 18.894695 48.049872 
L 28.987836 48.409345 
L 30.929734 46.404947 
L 35.905965 47.35048 
L 36.638508 49.079876 
L 34.228951 54.645038 
L 33.2717 62.301122 
L 36.782828 69.235171 
L 34.5998 76.355644 
L 33.383144 77.135362 
L 31.515217 75.180396 
L 26.51615 76.906703 
L 23.501915 75.931273 
L 21.452231 77.545303 
L 18.019653 76.374181 
L 16.871507 72.877298 
L 11.078686 76.178469 
L 3.492848 72.242804 
L -1.333583 71.397151 
L -4.565226 73.157462 
L -8.62988 67.412035 
L -15.764481 69.315497 
L -16.346322 67.478986 
L -18.88194 67.583031 
L -22.436002 64.298324 
L -25.798249 63.782286 
L -26.164521 58.321149 
L -31.770087 57.013034 
L -34.814476 54.278868 
L -39.818104 55.858396 
L -39.455491 57.632081 
L -47.71998 55.132235 
L -49.568711 57.913261 
L -52.213935 55.655489 
L -58.942089 54.644002 
L -60.222677 50.668672 
L -65.132236 51.01218 
L -71.755344 46.323565 
L -74.787855 47.548763 
L -82.911683 41.375895 
L -84.676385 42.020176 
L -86.912404 37.37585 
L -91.586295 35.790662 
L -97.762744 31.044883 
L -98.953824 33.367035 
L -101.759806 32.07076 
z
" clip-path="url(#p73096b4f57)" style="fill: #eeeeee; stroke: #000000; stroke-width: 0.3"/>
   </g>
   <g id="PatchCollection_2">
    <defs>
     <path id="m8452ef46c7" d="M 47.149992 -47.728011 
L 51.439194 -50.085264 
L 51.109493 -54.059975 
L 61.416472 -66.105993 
L 67.684922 -69.7129 
L 73.154793 -70.565948 
L 74.319236 -68.631592 
L 79.555703 -68.072441 
L 77.567318 -64.864312 
L 80.965181 -65.222769 
L 87.760926 -62.680687 
L 91.97172 -65.244395 
L 98.118933 -62.221315 
L 96.818089 -60.459908 
L 98.080383 -59.087652 
L 97.360814 -54.38086 
L 99.694543 -52.657941 
L 104.935429 -52.395597 
L 106.087481 -49.317305 
L 104.300861 -45.563938 
L 105.804338 -41.253354 
L 102.629344 -41.12563 
L 102.37358 -39.56412 
L 101.427288 -40.669327 
L 96.045511 -39.455969 
L 94.26985 -40.929918 
L 92.084984 -38.997614 
L 81.842044 -38.847227 
L 75.333119 -41.430509 
L 71.415526 -38.535153 
L 65.873892 -37.434052 
L 57.530836 -40.586929 
L 53.197639 -39.930808 
L 49.84179 -43.113543 
L 48.870841 -42.40285 
z
" style="stroke: #dd0000; stroke-width: 0.5"/>
    </defs>
    <g clip-path="url(#p73096b4f57)">
     <use xlink:href="#m8452ef46c7" x="0" y="108" style="fill: #ff6b6b; stroke: #dd0000; stroke-width: 0.5"/>
    </g>
   </g>
  </g>
 </g>
 <defs>
  <clipPath id="p73096b4f57">
   <rect x="0" y="0" width="153.237473" height="108"/>
  </clipPath>
 </defs>
</svg>
