<?xml version="1.0" encoding="utf-8" standalone="no"?>
<!DOCTYPE svg PUBLIC "-//W3C//DTD SVG 1.1//EN"
  "http://www.w3.org/Graphics/SVG/1.1/DTD/svg11.dtd">
<svg xmlns:xlink="http://www.w3.org/1999/xlink" width="124.459681pt" height="108pt" viewBox="0 0 124.459681 108" xmlns="http://www.w3.org/2000/svg" version="1.1">
 <metadata>
  <rdf:RDF xmlns:dc="http://purl.org/dc/elements/1.1/" xmlns:cc="http://creativecommons.org/ns#" xmlns:rdf="http://www.w3.org/1999/02/22-rdf-syntax-ns#">
   <cc:Work>
    <dc:type rdf:resource="http://purl.org/dc/dcmitype/StillImage"/>
    <dc:date>2025-09-05T13:56:20.958856</dc:date>
    <dc:format>image/svg+xml</dc:format>
    <dc:creator>
     <cc:Agent>
      <dc:title>Matplotlib v3.10.3, https://matplotlib.org/</dc:title>
     </cc:Agent>
    </dc:creator>
   </cc:Work>
  </rdf:RDF>
 </metadata>
 <defs>
  <style type="text/css">*{stroke-linejoin: round; stroke-linecap: butt}</style>
 </defs>
 <g id="figure_1">
  <g id="patch_1">
   <path d="M 0 108 
L 124.459681 108 
L 124.459681 0 
L 0 0 
z
" style="fill: #ffffff"/>
  </g>
  <g id="axes_1">
   <g id="PatchCollection_1">
    <path d="M -62.281257 -49.834431 
L -59.234011 -51.779664 
L -60.189471 -52.649789 
L -58.595579 -55.225037 
L -58.748101 -57.005767 
L -61.508825 -61.488797 
L -59.14031 -61.875262 
L -59.447545 -62.675443 
L -57.149856 -61.568589 
L -52.946139 -62.845229 
L -52.256498 -63.887438 
L -53.61943 -65.071816 
L -49.967527 -67.562339 
L -49.736557 -69.529892 
L -50.526424 -70.792921 
L -53.251192 -70.94191 
L -53.7055 -72.114579 
L -53.016955 -73.47593 
L -50.050328 -73.348498 
L -48.212397 -78.793168 
L -48.193738 -82.408371 
L -47.559787 -83.498759 
L -46.381106 -83.25401 
L -49.996083 -84.3313 
L -49.702699 -86.324508 
L -48.750486 -86.684205 
L -49.330392 -87.411326 
L -47.861752 -88.576765 
L -39.372475 -89.185383 
L -37.933003 -86.918841 
L -38.892078 -85.681937 
L -37.539245 -84.833327 
L -36.382004 -85.773057 
L -37.266447 -86.509121 
L -36.850394 -87.791864 
L -33.883947 -86.778297 
L -34.538485 -85.941 
L -34.386649 -84.062724 
L -33.739827 -86.82355 
L -34.57966 -89.073436 
L -33.509922 -91.561515 
L -26.941368 -91.584141 
L -23.023572 -87.476249 
L -20.391683 -86.778297 
L -23.009847 -87.785922 
L -24.996622 -90.984452 
L -26.444674 -91.783038 
L -29.324473 -91.95098 
L -30.047645 -92.541742 
L -30.919218 -93.991227 
L -29.191505 -93.900121 
L -28.969327 -94.890462 
L -31.135398 -96.099369 
L -29.550952 -98.106276 
L -32.551711 -97.397611 
L -33.380391 -98.405821 
L -29.040523 -100.868302 
L -32.443621 -104.21929 
L -32.738302 -106.575811 
L -26.58969 -105.192185 
L -23.049303 -106.136263 
L -20.479186 -104.533134 
L -19.174399 -104.866618 
L -18.428921 -103.720834 
L -19.364838 -103.320656 
L -18.209315 -103.217022 
L -18.337992 -101.65319 
L -20.306752 -100.413914 
L -17.109546 -100.656292 
L -16.472168 -100.20489 
L -17.126707 -98.205724 
L -15.265173 -99.945841 
L -10.912445 -97.997886 
L -6.651499 -99.105559 
L -7.378097 -98.705966 
L -7.378097 -96.149393 
L -10.687684 -94.191324 
L -9.111818 -92.892496 
L -6.234592 -93.721466 
L -3.255274 -92.084383 
L -0.809543 -95.729559 
L 3.390485 -96.29828 
L 3.427379 -95.126298 
L 3.673581 -94.890462 
L 3.609237 -96.136294 
L 8.088935 -100.603883 
L 12.171438 -99.802311 
L 9.041148 -99.647482 
L 8.016875 -98.906062 
L 7.083531 -99.129385 
L 6.349216 -97.397611 
L 9.638205 -99.471212 
L 11.470581 -98.695253 
L 13.095348 -99.86902 
L 14.213976 -97.556011 
L 18.100043 -94.793999 
L 20.507171 -95.99932 
L 21.521145 -94.989924 
L 20.867461 -93.991227 
L 22.553135 -92.62452 
L 21.630954 -91.672276 
L 21.615511 -91.305437 
L 26.331966 -89.822598 
L 25.786371 -89.185383 
L 28.199181 -82.50817 
L 27.163091 -79.533988 
L 25.066951 -78.235775 
L 24.850149 -76.636554 
L 30.34107 -72.630378 
L 29.293005 -69.779851 
L 31.053585 -67.639483 
L 30.779038 -65.958215 
L 31.569991 -65.308911 
L 29.718988 -61.316727 
L 31.264948 -59.186589 
L 31.028529 -57.311693 
L 33.614932 -55.923867 
L 34.317634 -53.016598 
L 33.613836 -50.488638 
L 31.547117 -46.773255 
L 30.007692 -47.291337 
L 30.176563 -48.391005 
L 29.345301 -48.2647 
L 29.598059 -49.192693 
L 28.62625 -50.095733 
L 26.574783 -50.090435 
L 26.056196 -49.294805 
L 27.569467 -48.393273 
L 27.196865 -47.798062 
L 18.869502 -45.259125 
L 17.724479 -43.657255 
L 13.104034 -42.126484 
L 12.502645 -40.830935 
L 7.839718 -40.605548 
L 5.628099 -37.269459 
L 4.987485 -38.67091 
L 3.263947 -39.528565 
L 5.063751 -35.573819 
L 7.985704 -33.524966 
L 6.505121 -31.15242 
L 9.245132 -26.566152 
L 13.00054 -24.596726 
L 14.884231 -22.012418 
L 17.839958 -19.47575 
L 19.418596 -19.49239 
L 21.601354 -16.861937 
L 20.555461 -13.28006 
L 17.794199 -14.037505 
L 17.277793 -11.156331 
L 10.250715 -7.305204 
L 12.910106 -3.407171 
L 11.864224 -1.598838 
L 13.762072 -0.661009 
L 13.022329 2.170228 
L 10.672334 0.870508 
L 10.49367 -0.769166 
L 7.695904 -0.213661 
L 4.977682 -0.945392 
L 5.014724 -1.722874 
L 4.29132 0.135001 
L -1.539525 0.360768 
L -5.581455 3.224906 
L -8.29641 3.274828 
L -9.570005 1.224087 
L -14.096748 0.545673 
L -14.106552 3.194274 
L -16.935899 5.022658 
L -16.41514 3.53916 
L -17.747555 3.735422 
L -19.191107 1.076224 
L -20.917913 0.378916 
L -22.704646 1.35266 
L -27.229208 -0.821356 
L -30.409369 -0.612229 
L -33.819413 -2.734816 
L -35.578908 -0.748749 
L -33.301911 -0.614498 
L -33.651628 0.31992 
L -37.247969 -0.111929 
L -39.258039 0.786559 
L -43.817471 0.725309 
L -43.291262 0.259417 
L -44.067499 0.434458 
L -44.849197 -1.361362 
L -43.697628 -5.226861 
L -44.142132 -7.320323 
L -42.331438 -10.640913 
L -41.703896 -14.645947 
L -37.592246 -19.6739 
L -43.551642 -20.833324 
L -45.917965 -22.752843 
L -47.352799 -21.817283 
L -49.796484 -21.855101 
L -51.14742 -23.304953 
L -53.137884 -22.556961 
L -55.392544 -26.496575 
L -57.146262 -26.944611 
L -55.488417 -31.925379 
L -57.596532 -32.500174 
L -59.770023 -35.627517 
L -59.238364 -38.048463 
L -56.838267 -39.533102 
L -57.234829 -41.95557 
L -58.985606 -42.496323 
L -58.160879 -43.908356 
L -61.070857 -46.358046 
L -60.114301 -48.198153 
z
" clip-path="url(#p879d08c966)" style="fill: #eeeeee; stroke: #000000; stroke-width: 0.3"/>
    <path d="M 14.219984 -98.405821 
L 15.815583 -99.105559 
L 14.657489 -99.704648 
L 15.881645 -100.513962 
L 14.514233 -101.403669 
L 16.142426 -101.063628 
L 16.896473 -102.021814 
L 16.680304 -101.121994 
L 18.347963 -100.603883 
L 18.492083 -101.811604 
L 17.655676 -101.612693 
L 16.893901 -102.41665 
L 15.672328 -101.721684 
L 16.096107 -102.857925 
L 15.437279 -103.019311 
L 17.122088 -103.52968 
L 17.478098 -102.021814 
L 20.072239 -101.74491 
L 19.068553 -100.36389 
L 21.081923 -98.505869 
L 20.625549 -97.532199 
L 19.506057 -98.106276 
L 20.285847 -98.605917 
L 18.269894 -98.505869 
L 16.793538 -97.489317 
L 17.295376 -96.797921 
z
" clip-path="url(#p879d08c966)" style="fill: #eeeeee; stroke: #000000; stroke-width: 0.3"/>
    <path d="M 20.939521 -95.69919 
L 21.593205 -95.99932 
L 25.758068 -92.557226 
L 25.66073 -91.674618 
L 21.858287 -91.266726 
L 22.82336 -91.984334 
L 22.536838 -93.390952 
L 24.053514 -92.592351 
L 24.0844 -93.532082 
L 22.975207 -94.432517 
L 21.162563 -93.791145 
L 21.593205 -94.9399 
z
" clip-path="url(#p879d08c966)" style="fill: #eeeeee; stroke: #000000; stroke-width: 0.3"/>
    <path d="M -36.70542 -104.32291 
L -36.562154 -106.813374 
L -35.76435 -108.605301 
L -35.320847 -109.049547 
L -34.818999 -108.835166 
L -35.609941 -106.545384 
L -32.804775 -106.536456 
L -36.466071 -106.123164 
z
" clip-path="url(#p879d08c966)" style="fill: #eeeeee; stroke: #000000; stroke-width: 0.3"/>
    <path d="M -4.119984 -93.192041 
L -3.58297 -93.793516 
L -2.831494 -93.791145 
L -3.255274 -92.892496 
z
" clip-path="url(#p879d08c966)" style="fill: #eeeeee; stroke: #000000; stroke-width: 0.3"/>
    <path d="M -31.135398 -100.513962 
L -30.801693 -101.064228 
L -29.550952 -101.121994 
L -30.343602 -100.313866 
z
" clip-path="url(#p879d08c966)" style="fill: #eeeeee; stroke: #000000; stroke-width: 0.3"/>
    <path d="M 13.649513 -100.313866 
L 14.081019 -102.182014 
L 14.256014 -102.040284 
z
" clip-path="url(#p879d08c966)" style="fill: #eeeeee; stroke: #000000; stroke-width: 0.3"/>
    <path d="M -2.451471 -94.699907 
L -1.587615 -95.0989 
L -2.392282 -94.291372 
z
" clip-path="url(#p879d08c966)" style="fill: #eeeeee; stroke: #000000; stroke-width: 0.3"/>
    <path d="M -8.019775 -100.313866 
L -6.801627 -101.301835 
L -4.76766 -99.51408 
z
" clip-path="url(#p879d08c966)" style="fill: #eeeeee; stroke: #000000; stroke-width: 0.3"/>
    <path d="M -33.180508 -100.667606 
L -32.336385 -101.632949 
L -32.314944 -101.474534 
z
" clip-path="url(#p879d08c966)" style="fill: #eeeeee; stroke: #000000; stroke-width: 0.3"/>
    <path d="M -35.544743 -103.919746 
L -35.099523 -104.412245 
L -33.444724 -104.019794 
z
" clip-path="url(#p879d08c966)" style="fill: #eeeeee; stroke: #000000; stroke-width: 0.3"/>
    <path d="M -36.630778 -103.220608 
L -35.673421 -102.812072 
L -35.472683 -102.721552 
z
" clip-path="url(#p879d08c966)" style="fill: #eeeeee; stroke: #000000; stroke-width: 0.3"/>
    <path d="M -38.113142 -89.276503 
L -38.09771 -89.640371 
L -37.6379 -89.4766 
z
" clip-path="url(#p879d08c966)" style="fill: #eeeeee; stroke: #000000; stroke-width: 0.3"/>
    <path d="M -40.571744 -96.19466 
L -40.443067 -96.31615 
L -40.405318 -96.236942 
z
" clip-path="url(#p879d08c966)" style="fill: #eeeeee; stroke: #000000; stroke-width: 0.3"/>
    <path d="M -40.969792 -96.295894 
L -40.815373 -96.306622 
L -40.766472 -96.065429 
z
" clip-path="url(#p879d08c966)" style="fill: #eeeeee; stroke: #000000; stroke-width: 0.3"/>
    <path d="M -41.237435 -90.304969 
L -40.78278 -90.476468 
L -40.171987 -90.280543 
z
" clip-path="url(#p879d08c966)" style="fill: #eeeeee; stroke: #000000; stroke-width: 0.3"/>
    <path d="M -43.010612 -90.252559 
L -41.676657 -90.284128 
L -42.357791 -89.958971 
z
" clip-path="url(#p879d08c966)" style="fill: #eeeeee; stroke: #000000; stroke-width: 0.3"/>
    <path d="M -45.259041 -89.533766 
L -43.850444 -89.983383 
L -43.63341 -89.81247 
z
" clip-path="url(#p879d08c966)" style="fill: #eeeeee; stroke: #000000; stroke-width: 0.3"/>
    <path d="M -45.991638 -89.604631 
L -45.653653 -89.4766 
L -45.804625 -89.376552 
z
" clip-path="url(#p879d08c966)" style="fill: #eeeeee; stroke: #000000; stroke-width: 0.3"/>
    <path d="M -48.415063 -89.08772 
L -47.789692 -89.498041 
L -46.590423 -89.40692 
z
" clip-path="url(#p879d08c966)" style="fill: #eeeeee; stroke: #000000; stroke-width: 0.3"/>
    <path d="M -51.575385 -88.668471 
L -49.749028 -88.981715 
L -49.344117 -88.87691 
z
" clip-path="url(#p879d08c966)" style="fill: #eeeeee; stroke: #000000; stroke-width: 0.3"/>
    <path d="M -53.834103 -87.590582 
L -52.514727 -87.897283 
L -52.811548 -87.060572 
z
" clip-path="url(#p879d08c966)" style="fill: #eeeeee; stroke: #000000; stroke-width: 0.3"/>
    <path d="M 91.473376 88.759086 
L 92.42775 88.237989 
L 92.066048 86.059802 
L 92.769846 84.024194 
L 94.201412 84.36946 
L 95.065363 80.96757 
L 98.370807 79.300279 
L 100.37761 80.855257 
L 101.932288 78.554937 
L 110.70796 76.748111 
L 113.471942 80.278574 
L 116.709848 81.883079 
L 118.516187 86.319216 
L 117.708895 87.841674 
L 117.791687 91.683727 
L 115.793601 92.190467 
L 115.304434 94.759641 
L 108.381947 94.581161 
L 103.462995 98.760533 
L 96.966479 99.007843 
L 94.351762 98.073806 
L 92.06278 93.356696 
L 92.485495 90.939526 
z
" clip-path="url(#p879d08c966)" style="fill: #eeeeee; stroke: #000000; stroke-width: 0.3"/>
    <path d="M 79.117713 79.523778 
L 83.621572 72.584619 
L 84.519297 75.222639 
L 87.204841 74.00498 
L 89.297713 77.485902 
L 91.868853 78.791666 
L 93.108674 82.745271 
L 92.066048 86.059802 
L 92.42775 88.237989 
L 91.473376 88.759086 
L 92.485495 90.939526 
L 92.06278 93.356696 
L 94.351762 98.073806 
L 96.876057 98.343802 
L 96.738788 100.239113 
L 97.719305 102.076191 
L 96.666876 104.523612 
L 94.915013 105.26329 
L 93.617458 110.062827 
L 89.93178 111.630669 
L 90.976577 114.101537 
L 89.743303 114.308 
L 89.916527 115.575581 
L 88.73228 116.751646 
L 86.675701 116.024261 
L 86.894453 113.405165 
L 85.804983 112.808447 
L 85.352046 110.775342 
L 81.270396 108.311689 
L 79.30248 105.286444 
L 81.256672 106.340507 
L 80.323327 103.487975 
L 81.042199 103.333131 
L 79.458617 101.88006 
L 80.268429 98.146149 
L 81.767944 97.965123 
L 81.472841 96.765143 
L 81.306426 97.47798 
L 80.97015 97.765026 
L 81.695884 93.050888 
L 80.395387 90.751577 
L 81.695884 89.289579 
L 80.89809 88.236101 
L 82.711576 87.944898 
L 82.486826 84.820204 
L 80.098567 84.328905 
L 80.176667 80.642354 
z
" clip-path="url(#p879d08c966)" style="fill: #eeeeee; stroke: #000000; stroke-width: 0.3"/>
    <path d="M 87.156899 71.170698 
L 91.812204 69.647113 
L 91.634626 68.264205 
L 93.800486 66.282675 
L 93.158787 64.63542 
L 95.16559 63.682474 
L 95.630796 65.037779 
L 98.308709 66.205531 
L 100.079103 69.192959 
L 101.638134 69.77191 
L 101.324363 71.277347 
L 105.478504 72.691648 
L 102.772268 77.163701 
L 103.278628 78.563587 
L 101.199069 78.891876 
L 100.48765 80.830304 
L 98.370807 79.300279 
L 95.065363 80.96757 
L 93.974807 84.451141 
L 92.769846 84.024194 
L 92.070412 79.076795 
L 89.297713 77.485902 
L 87.47612 74.166073 
L 87.88685 72.609587 
z
" clip-path="url(#p879d08c966)" style="fill: #eeeeee; stroke: #000000; stroke-width: 0.3"/>
    <path d="M 89.351094 22.044183 
L 91.730499 21.077611 
L 93.790683 21.610065 
L 95.210263 19.709455 
L 98.855621 19.473487 
L 100.291541 17.532029 
L 100.505085 14.78739 
L 102.621918 13.329972 
L 104.003371 8.658628 
L 107.890598 3.226794 
L 107.95705 1.41808 
L 110.752634 -1.601867 
L 114.596283 -2.301444 
L 119.881291 -7.080959 
L 123.272815 -5.225354 
L 131.391535 -4.137775 
L 134.670836 -4.822614 
L 138.407723 -1.401449 
L 140.340442 -1.882459 
L 142.256812 -4.16046 
L 151.863209 -5.54451 
L 153.238127 -8.748235 
L 157.296944 -9.667155 
L 159.928011 -8.642362 
L 162.359162 -5.397028 
L 163.54341 -1.151855 
L 166.650583 2.252289 
L 166.613541 3.499453 
L 171.849532 9.158913 
L 173.589409 13.931243 
L 173.71524 17.364131 
L 172.270065 20.19954 
L 171.993336 23.410832 
L 172.892147 29.005266 
L 171.776534 29.574002 
L 174.602614 33.535568 
L 178.606416 34.940035 
L 179.582579 34.688172 
L 179.446397 33.557492 
L 180.923722 34.17691 
L 185.058257 31.7658 
L 187.668084 32.481271 
L 189.036929 35.893464 
L 188.175645 40.289003 
L 183.308208 41.416917 
L 181.670571 42.814607 
L 181.398638 41.99458 
L 183.124622 41.129871 
L 182.127808 40.229451 
L 182.828665 38.700158 
L 181.48613 38.082013 
L 180.285997 39.090823 
L 181.094955 41.698006 
L 179.386122 43.395241 
L 180.584536 42.406672 
L 181.319715 42.637737 
L 181.531595 43.014103 
L 179.109888 43.723969 
L 179.11675 46.087588 
L 180.871912 43.815075 
L 177.816254 48.266594 
L 178.202285 52.935465 
L 177.218333 56.683675 
L 173.453775 56.380676 
L 170.9213 55.102134 
L 170.194628 52.99468 
L 168.187825 53.647365 
L 167.257412 52.46148 
L 164.626345 52.67627 
L 160.869851 50.305992 
L 151.627886 52.715596 
L 147.731942 56.819332 
L 143.747209 58.018842 
L 123.524477 54.644569 
L 117.242603 55.245825 
L 117.212096 52.977279 
L 118.741707 51.534994 
L 115.15518 49.547405 
L 112.902155 46.10695 
L 113.992711 44.620803 
L 115.939598 44.367433 
L 112.365046 42.159771 
L 109.208856 45.540483 
L 107.814332 43.258692 
L 101.506305 41.331606 
L 101.080322 40.360512 
L 102.985802 39.88177 
L 101.036744 38.287466 
L 102.532581 36.138023 
L 94.877971 31.24621 
L 95.074081 27.247601 
L 94.044527 27.386009 
z
" clip-path="url(#p879d08c966)" style="fill: #eeeeee; stroke: #000000; stroke-width: 0.3"/>
    <path d="M 45.617611 10.99902 
L 47.524188 8.927497 
L 49.753242 9.011812 
L 49.102826 8.638197 
L 49.997283 6.977726 
L 48.977543 6.251279 
L 49.614878 4.93947 
L 49.20088 3.182551 
L 51.381993 2.361953 
L 51.890778 1.116311 
L 51.269782 -0.11269 
L 48.925247 -0.688246 
L 50.611744 -2.047328 
L 53.032544 -0.89509 
L 55.962129 -1.378368 
L 55.210389 -3.6439 
L 57.115869 -5.941571 
L 63.871678 -1.986064 
L 73.012321 -2.395228 
L 74.315326 -3.194283 
L 73.542894 -5.221182 
L 74.547381 -6.23049 
L 80.763899 -6.901338 
L 82.81973 -8.967197 
L 86.039104 -7.548739 
L 90.209595 -9.74203 
L 91.868853 -13.344339 
L 95.227688 -13.97586 
L 98.485201 -12.803206 
L 101.808091 -13.859391 
L 105.333604 -10.529727 
L 110.739552 -11.549617 
L 111.638374 -9.202785 
L 112.949 -9.195218 
L 114.256359 -7.065065 
L 116.321992 -6.976213 
L 117.124941 -4.86535 
L 114.596283 -2.301444 
L 110.752634 -1.601867 
L 107.95705 1.41808 
L 107.890598 3.226794 
L 104.003371 8.658628 
L 102.621918 13.329972 
L 100.505085 14.78739 
L 100.291541 17.532029 
L 97.875104 20.170795 
L 95.431419 19.649698 
L 93.790683 21.610065 
L 91.730499 21.077611 
L 89.351094 22.044183 
L 82.047287 21.223585 
L 79.02728 23.897901 
L 77.182812 23.350329 
L 76.058481 24.769928 
L 72.620112 24.97866 
L 69.97161 27.404904 
L 64.212678 26.967009 
L 61.398583 24.559675 
L 58.807815 24.274546 
L 53.456345 18.037247 
L 50.058296 16.283358 
L 48.510154 14.21561 
L 48.055847 11.340496 
z
" clip-path="url(#p879d08c966)" style="fill: #eeeeee; stroke: #000000; stroke-width: 0.3"/>
    <path d="M 86.7898 115.924813 
L 89.384868 116.372732 
L 89.743303 114.308 
L 90.976577 114.101537 
L 89.93178 111.630669 
L 93.617458 110.062827 
L 94.915013 105.26329 
L 97.530827 103.258315 
L 96.966479 99.007843 
L 103.462995 98.760533 
L 108.381947 94.581161 
L 115.304434 94.759641 
L 116.106287 91.902308 
L 124.871059 91.373645 
L 131.415506 88.581352 
L 134.334191 88.583621 
L 135.07503 90.356404 
L 137.119971 91.709442 
L 138.299865 90.940273 
L 142.50957 93.299969 
L 151.313029 91.567258 
L 151.758619 89.059333 
L 150.546047 86.71856 
L 152.423203 85.831781 
L 156.315869 87.840167 
L 156.747301 90.955406 
L 156.466219 91.963572 
L 153.417887 93.20014 
L 153.824252 97.320517 
L 150.899032 100.673993 
L 150.100837 99.673071 
L 150.607829 99.277649 
L 145.166484 98.699986 
L 140.957011 96.656167 
L 137.410668 98.948321 
L 135.583446 98.873285 
L 134.281231 97.365433 
L 130.117223 100.786686 
L 126.128221 100.435332 
L 125.796234 101.57993 
L 128.059242 103.552283 
L 127.090732 104.01917 
L 127.566839 105.387077 
L 128.982288 105.784299 
L 129.076653 104.86541 
L 133.107683 109.207338 
L 132.118587 109.564649 
L 130.73745 107.410069 
L 128.287429 106.094557 
L 126.11535 106.185678 
L 125.966085 107.702472 
L 128.863909 109.701623 
L 128.863909 112.118251 
L 127.129335 111.309523 
L 125.535443 108.249752 
L 123.037386 107.352888 
L 122.000253 108.10265 
L 122.248162 109.237121 
L 126.298936 112.456507 
L 122.216422 112.008675 
L 121.567892 107.993675 
L 117.236605 105.785485 
L 116.534884 104.090035 
L 118.237719 103.350401 
L 117.471654 102.005121 
L 113.978491 104.586706 
L 114.843201 106.037991 
L 113.896143 110.644925 
L 122.038855 123.445631 
L 120.561634 124.544361 
L 118.963463 124.64441 
L 120.704036 123.445631 
L 119.834172 121.728755 
L 117.739307 120.797351 
L 116.58292 122.836413 
L 118.394699 125.053531 
L 118.03441 125.943237 
L 119.185642 125.543644 
L 116.222631 127.860224 
L 114.426295 127.326043 
L 113.408884 128.150841 
L 118.857945 129.781368 
L 119.516774 131.366641 
L 121.639953 131.158217 
L 121.423772 132.56602 
L 122.437747 132.875093 
L 121.946208 133.339609 
L 124.39451 133.375934 
L 124.460562 134.073872 
L 125.507994 135.493603 
L 128.44013 136.45239 
L 129.805824 138.280627 
L 128.84074 138.915457 
L 129.877884 143.853504 
L 129.301403 145.810387 
L 124.32674 141.108162 
L 124.471714 140.025501 
L 118.363824 142.434972 
L 120.337738 143.503349 
L 119.690062 144.502032 
L 120.192754 146.357067 
L 121.964223 147.508807 
L 121.706004 146.310028 
L 122.617897 146.009883 
L 122.581867 147.808952 
L 123.956141 148.917811 
L 121.184433 149.476404 
L 120.192754 150.962229 
L 119.185642 150.146959 
L 119.806722 148.779652 
L 115.531198 147.056805 
L 119.618002 158.546184 
L 118.79103 160.481612 
L 120.481858 163.650974 
L 118.124485 162.367631 
L 116.168586 158.368714 
L 115.100556 158.134078 
L 113.960476 158.521172 
L 112.976523 161.102743 
L 113.049437 164.259591 
L 111.610829 162.48912 
L 111.963403 159.645501 
L 109.327234 156.558332 
L 109.488505 155.035582 
L 107.274398 155.443517 
L 107.560055 158.346088 
L 106.636156 159.347742 
L 104.789201 158.009018 
L 104.816661 156.184351 
L 103.337722 153.645048 
L 104.446062 149.550255 
L 98.45227 142.494524 
L 100.768459 140.396511 
L 101.278023 137.480841 
L 103.892751 138.444998 
L 106.287008 135.715126 
L 117.015281 141.59529 
L 118.15536 141.017641 
L 117.102784 139.98859 
L 120.237364 139.5467 
L 120.770088 138.37949 
L 116.366751 137.388549 
L 114.688793 135.00289 
L 113.803496 136.414279 
L 112.107523 134.073872 
L 111.904214 135.694885 
L 109.868538 135.981932 
L 107.42967 134.684875 
L 102.790409 136.380925 
L 100.732429 133.4468 
L 100.880839 134.918926 
L 98.972987 136.262421 
L 97.207526 130.99206 
L 95.855557 128.950027 
L 94.479564 128.858907 
L 95.279077 128.010297 
L 94.905916 126.675144 
L 98.230946 128.060321 
L 99.202881 127.888807 
L 99.018452 126.107608 
L 98.230946 125.153579 
L 97.94785 125.943237 
L 95.697712 125.534116 
L 95.460945 124.39906 
L 94.625403 125.643107 
L 95.559601 126.606064 
L 94.869886 126.402382 
L 94.540472 126.804961 
L 91.876843 121.937779 
L 89.279276 120.229831 
L 89.573525 118.630858 
L 88.199251 118.321771 
L 88.707951 116.935409 
z
" clip-path="url(#p879d08c966)" style="fill: #eeeeee; stroke: #000000; stroke-width: 0.3"/>
    <path d="M 123.878083 180.311837 
L 124.532622 176.18786 
L 125.988391 177.110921 
L 126.23202 174.56269 
L 127.028961 176.789335 
L 130.884996 176.04613 
L 130.884996 177.104964 
L 129.714895 177.322931 
L 131.617603 177.605206 
L 132.541512 179.518607 
L 136.556246 178.363896 
L 144.279468 180.311837 
L 147.576184 179.703819 
L 147.010856 181.940592 
L 147.880721 182.931533 
L 150.677307 181.202143 
L 151.930631 181.584467 
L 153.424148 180.002764 
L 152.964338 183.15247 
L 151.590918 184.5835 
L 139.698553 185.617322 
L 136.74154 185.617322 
L 136.787005 183.486555 
L 133.195186 181.819703 
z
" clip-path="url(#p879d08c966)" style="fill: #eeeeee; stroke: #000000; stroke-width: 0.3"/>
    <path d="M 116.662707 128.337239 
L 121.567892 125.453124 
L 124.676742 129.437756 
L 130.596766 131.158217 
L 131.617603 137.373651 
L 135.151086 138.37949 
L 134.929761 140.886624 
L 132.875207 141.121261 
L 131.10632 139.3883 
L 129.401777 134.833762 
L 125.258366 134.773025 
L 124.888632 132.544579 
L 120.54791 128.564133 
z
" clip-path="url(#p879d08c966)" style="fill: #eeeeee; stroke: #000000; stroke-width: 0.3"/>
    <path d="M 148.373989 122.737565 
L 151.763352 120.529961 
L 153.856509 120.529961 
L 156.493531 125.353675 
L 155.724905 125.791379 
L 155.196461 124.410974 
L 154.645722 124.559846 
L 155.806399 126.252324 
L 151.785657 125.746726 
L 150.965547 124.853449 
L 152.990934 123.199681 
L 150.713337 124.744458 
z
" clip-path="url(#p879d08c966)" style="fill: #eeeeee; stroke: #000000; stroke-width: 0.3"/>
    <path d="M 90.432227 138.044805 
L 91.006989 135.381642 
L 92.376119 135.771107 
L 92.460186 133.773742 
L 93.43813 136.934761 
L 93.976862 136.581021 
L 95.200154 138.788611 
L 94.524175 139.796821 
L 92.165083 139.088755 
L 91.485667 136.667971 
L 91.274642 138.144854 
z
" clip-path="url(#p879d08c966)" style="fill: #eeeeee; stroke: #000000; stroke-width: 0.3"/>
    <path d="M 82.853978 115.123841 
L 86.243352 114.507467 
L 85.157307 116.522717 
L 86.027171 116.922896 
L 86.122391 119.152526 
L 87.761746 119.729589 
L 87.905866 120.7378 
L 85.8616 119.776628 
z
" clip-path="url(#p879d08c966)" style="fill: #eeeeee; stroke: #000000; stroke-width: 0.3"/>
    <path d="M 139.849525 111.508434 
L 142.50372 112.121822 
L 144.240002 110.909344 
L 143.176273 114.546778 
L 142.139993 112.631591 
L 141.759106 114.316313 
L 139.993645 113.816072 
z
" clip-path="url(#p879d08c966)" style="fill: #eeeeee; stroke: #000000; stroke-width: 0.3"/>
    <path d="M 167.793129 167.66656 
L 170.063864 165.002811 
L 173.64882 163.650974 
L 172.066081 169.174426 
L 168.303558 171.223601 
L 168.560912 168.74625 
z
" clip-path="url(#p879d08c966)" style="fill: #eeeeee; stroke: #000000; stroke-width: 0.3"/>
    <path d="M 156.155536 144.503817 
L 158.539505 143.424727 
L 161.295781 144.011918 
L 158.444286 145.910435 
L 157.504944 144.902225 
L 156.346839 145.43462 
z
" clip-path="url(#p879d08c966)" style="fill: #eeeeee; stroke: #000000; stroke-width: 0.3"/>
    <path d="M 148.446049 132.215852 
L 151.763352 132.766117 
L 151.220329 137.452258 
L 150.142011 138.416415 
L 148.877545 137.480841 
L 149.923259 135.158919 
z
" clip-path="url(#p879d08c966)" style="fill: #eeeeee; stroke: #000000; stroke-width: 0.3"/>
    <path d="M 132.40339 160.454229 
L 132.690777 158.946363 
L 133.452541 159.745549 
L 133.266393 158.846315 
L 134.578895 158.74091 
L 134.712727 159.900393 
z
" clip-path="url(#p879d08c966)" style="fill: #eeeeee; stroke: #000000; stroke-width: 0.3"/>
    <path d="M 93.32147 142.694621 
L 94.265102 141.804329 
L 97.193802 144.663417 
L 97.294176 145.111249 
L 96.214139 144.611008 
L 95.383741 145.810387 
z
" clip-path="url(#p879d08c966)" style="fill: #eeeeee; stroke: #000000; stroke-width: 0.3"/>
    <path d="M 161.295781 175.997291 
L 162.909395 172.480161 
L 162.232551 175.33805 
L 162.814176 176.995988 
L 162.016371 178.703937 
z
" clip-path="url(#p879d08c966)" style="fill: #eeeeee; stroke: #000000; stroke-width: 0.3"/>
    <path d="M 159.713043 159.5002 
L 163.541628 156.69352 
L 164.330852 157.347391 
L 160.496258 158.951734 
L 160.294667 160.045108 
z
" clip-path="url(#p879d08c966)" style="fill: #eeeeee; stroke: #000000; stroke-width: 0.3"/>
    <path d="M 159.418804 154.031542 
L 161.046997 155.400635 
L 159.648709 156.139084 
L 160.09393 154.937334 
L 159.707045 154.736037 
z
" clip-path="url(#p879d08c966)" style="fill: #eeeeee; stroke: #000000; stroke-width: 0.3"/>
    <path d="M 155.693165 149.890896 
L 156.351129 150.143988 
L 155.824414 150.566207 
L 156.023433 151.326097 
L 155.798672 151.289172 
z
" clip-path="url(#p879d08c966)" style="fill: #eeeeee; stroke: #000000; stroke-width: 0.3"/>
    <path d="M 152.795341 161.380847 
L 154.295721 161.353464 
L 153.856509 160.645383 
L 154.951123 161.452912 
L 153.211405 162.469464 
z
" clip-path="url(#p879d08c966)" style="fill: #eeeeee; stroke: #000000; stroke-width: 0.3"/>
    <path d="M 147.287944 158.346088 
L 150.100837 156.239732 
L 150.826582 156.907301 
L 148.770309 158.346088 
L 147.462086 158.712327 
z
" clip-path="url(#p879d08c966)" style="fill: #eeeeee; stroke: #000000; stroke-width: 0.3"/>
    <path d="M 143.310094 164.759832 
L 144.10189 164.259591 
L 143.525421 162.961364 
L 144.548829 163.770077 
L 144.400429 164.969457 
z
" clip-path="url(#p879d08c966)" style="fill: #eeeeee; stroke: #000000; stroke-width: 0.3"/>
    <path d="M 134.4039 102.085513 
L 135.726702 99.673071 
L 137.245961 100.681281 
L 137.179899 102.479164 
L 135.726702 103.087782 
z
" clip-path="url(#p879d08c966)" style="fill: #eeeeee; stroke: #000000; stroke-width: 0.3"/>
    <path d="M 133.554633 127.860224 
L 133.817131 126.547698 
L 136.087856 128.858907 
L 134.929761 129.550303 
L 134.82768 128.333068 
z
" clip-path="url(#p879d08c966)" style="fill: #eeeeee; stroke: #000000; stroke-width: 0.3"/>
    <path d="M 94.560205 131.165359 
L 95.234477 130.973605 
L 94.79868 131.528027 
L 95.225032 131.995514 
L 94.715478 131.547682 
z
" clip-path="url(#p879d08c966)" style="fill: #eeeeee; stroke: #000000; stroke-width: 0.3"/>
    <path d="M 149.789438 147.793468 
L 150.821427 146.009883 
L 153.856509 145.301818 
L 152.470217 146.983554 
z
" clip-path="url(#p879d08c966)" style="fill: #eeeeee; stroke: #000000; stroke-width: 0.3"/>
    <path d="M 144.173097 104.386609 
L 145.567958 103.906023 
L 146.778379 104.886851 
L 145.476165 105.586588 
z
" clip-path="url(#p879d08c966)" style="fill: #eeeeee; stroke: #000000; stroke-width: 0.3"/>
    <path d="M 143.100776 154.131591 
L 145.043815 152.473667 
L 145.620285 155.085606 
L 144.240002 156.539277 
z
" clip-path="url(#p879d08c966)" style="fill: #eeeeee; stroke: #000000; stroke-width: 0.3"/>
    <path d="M 142.375042 159.445419 
L 142.733624 158.346088 
L 143.81365 159.554995 
L 143.431909 160.413733 
z
" clip-path="url(#p879d08c966)" style="fill: #eeeeee; stroke: #000000; stroke-width: 0.3"/>
    <path d="M 140.587276 155.157071 
L 142.014742 153.123366 
L 142.589504 153.123366 
L 141.484591 155.560835 
z
" clip-path="url(#p879d08c966)" style="fill: #eeeeee; stroke: #000000; stroke-width: 0.3"/>
    <path d="M 136.268006 141.211181 
L 137.168746 140.706783 
L 139.011411 142.086003 
L 139.050013 145.301818 
z
" clip-path="url(#p879d08c966)" style="fill: #eeeeee; stroke: #000000; stroke-width: 0.3"/>
    <path d="M 131.859514 147.564188 
L 132.006206 145.900908 
L 132.906946 145.301818 
L 133.128281 146.203423 
z
" clip-path="url(#p879d08c966)" style="fill: #eeeeee; stroke: #000000; stroke-width: 0.3"/>
    <path d="M 122.88984 144.19653 
L 122.901847 144.102439 
L 124.172321 144.011918 
L 123.518637 145.410194 
z
" clip-path="url(#p879d08c966)" style="fill: #eeeeee; stroke: #000000; stroke-width: 0.3"/>
    <path d="M 122.719978 142.194394 
L 123.661903 141.195111 
L 122.942167 140.886624 
L 124.460562 141.404736 
z
" clip-path="url(#p879d08c966)" style="fill: #eeeeee; stroke: #000000; stroke-width: 0.3"/>
    <path d="M 122.360543 150.915776 
L 123.302467 150.11599 
L 124.604682 149.917094 
L 123.652469 150.662084 
z
" clip-path="url(#p879d08c966)" style="fill: #eeeeee; stroke: #000000; stroke-width: 0.3"/>
    <path d="M 117.378153 165.029609 
L 117.8311 164.282232 
L 119.509912 166.509477 
L 118.317495 167.975647 
z
" clip-path="url(#p879d08c966)" style="fill: #eeeeee; stroke: #000000; stroke-width: 0.3"/>
    <path d="M 93.32147 133.664751 
L 94.776385 135.272666 
L 94.841572 135.981932 
L 94.04206 135.781835 
z
" clip-path="url(#p879d08c966)" style="fill: #eeeeee; stroke: #000000; stroke-width: 0.3"/>
    <path d="M 168.591787 161.55296 
L 169.455644 160.545335 
L 169.466796 162.255084 
z
" clip-path="url(#p879d08c966)" style="fill: #eeeeee; stroke: #000000; stroke-width: 0.3"/>
    <path d="M 166.049984 166.807236 
L 167.078548 166.43027 
L 167.101707 166.642865 
z
" clip-path="url(#p879d08c966)" style="fill: #eeeeee; stroke: #000000; stroke-width: 0.3"/>
    <path d="M 163.711479 163.173373 
L 164.330852 162.961364 
L 165.094335 164.343569 
z
" clip-path="url(#p879d08c966)" style="fill: #eeeeee; stroke: #000000; stroke-width: 0.3"/>
    <path d="M 161.947748 161.645866 
L 162.02667 161.19862 
L 162.667484 161.663722 
z
" clip-path="url(#p879d08c966)" style="fill: #eeeeee; stroke: #000000; stroke-width: 0.3"/>
    <path d="M 158.982154 179.166653 
L 159.528602 178.403792 
L 160.654967 178.795043 
z
" clip-path="url(#p879d08c966)" style="fill: #eeeeee; stroke: #000000; stroke-width: 0.3"/>
    <path d="M 158.18436 152.671963 
L 158.996743 152.604084 
L 158.998461 153.904697 
z
" clip-path="url(#p879d08c966)" style="fill: #eeeeee; stroke: #000000; stroke-width: 0.3"/>
    <path d="M 147.725448 153.531301 
L 148.29592 153.331805 
L 148.318226 153.84753 
z
" clip-path="url(#p879d08c966)" style="fill: #eeeeee; stroke: #000000; stroke-width: 0.3"/>
    <path d="M 147.366013 164.741962 
L 147.591627 164.103577 
L 148.5121 164.659784 
z
" clip-path="url(#p879d08c966)" style="fill: #eeeeee; stroke: #000000; stroke-width: 0.3"/>
    <path d="M 146.34603 156.639325 
L 146.712328 156.93827 
L 146.60252 157.109783 
z
" clip-path="url(#p879d08c966)" style="fill: #eeeeee; stroke: #000000; stroke-width: 0.3"/>
    <path d="M 145.012929 131.966931 
L 146.062934 132.234907 
L 145.40926 132.875093 
z
" clip-path="url(#p879d08c966)" style="fill: #eeeeee; stroke: #000000; stroke-width: 0.3"/>
    <path d="M 144.209127 157.432555 
L 144.540249 157.238415 
L 144.534251 157.758312 
z
" clip-path="url(#p879d08c966)" style="fill: #eeeeee; stroke: #000000; stroke-width: 0.3"/>
    <path d="M 142.733624 149.316804 
L 142.793667 148.200203 
L 144.37726 148.466408 
z
" clip-path="url(#p879d08c966)" style="fill: #eeeeee; stroke: #000000; stroke-width: 0.3"/>
    <path d="M 140.208107 160.645383 
L 140.601012 159.745549 
L 141.43141 159.645501 
z
" clip-path="url(#p879d08c966)" style="fill: #eeeeee; stroke: #000000; stroke-width: 0.3"/>
    <path d="M 139.770613 155.230322 
L 140.264735 154.728295 
L 139.993645 155.796072 
z
" clip-path="url(#p879d08c966)" style="fill: #eeeeee; stroke: #000000; stroke-width: 0.3"/>
    <path d="M 139.338253 145.410194 
L 142.230922 146.710221 
L 141.774549 147.546333 
z
" clip-path="url(#p879d08c966)" style="fill: #eeeeee; stroke: #000000; stroke-width: 0.3"/>
    <path d="M 139.25075 118.205653 
L 139.997082 118.093092 
L 139.338253 119.240076 
z
" clip-path="url(#p879d08c966)" style="fill: #eeeeee; stroke: #000000; stroke-width: 0.3"/>
    <path d="M 138.252219 150.025484 
L 138.394621 147.875061 
L 139.118647 149.465691 
z
" clip-path="url(#p879d08c966)" style="fill: #eeeeee; stroke: #000000; stroke-width: 0.3"/>
    <path d="M 137.819858 160.24519 
L 138.948785 160.843695 
L 139.115211 161.253415 
z
" clip-path="url(#p879d08c966)" style="fill: #eeeeee; stroke: #000000; stroke-width: 0.3"/>
    <path d="M 135.910288 146.463672 
L 136.504773 146.109932 
L 136.526224 146.658412 
z
" clip-path="url(#p879d08c966)" style="fill: #eeeeee; stroke: #000000; stroke-width: 0.3"/>
    <path d="M 135.726702 154.631232 
L 137.028916 156.08906 
L 136.447302 156.747701 
z
" clip-path="url(#p879d08c966)" style="fill: #eeeeee; stroke: #000000; stroke-width: 0.3"/>
    <path d="M 135.367266 158.546184 
L 135.974621 158.643847 
L 135.906852 158.996387 
z
" clip-path="url(#p879d08c966)" style="fill: #eeeeee; stroke: #000000; stroke-width: 0.3"/>
    <path d="M 134.450218 158.018545 
L 134.878288 157.604653 
L 134.994105 158.537242 
z
" clip-path="url(#p879d08c966)" style="fill: #eeeeee; stroke: #000000; stroke-width: 0.3"/>
    <path d="M 133.410513 153.531301 
L 134.443356 152.361105 
L 134.568607 153.441381 
z
" clip-path="url(#p879d08c966)" style="fill: #eeeeee; stroke: #000000; stroke-width: 0.3"/>
    <path d="M 132.834897 150.815728 
L 133.554633 148.218073 
L 134.044464 149.309662 
z
" clip-path="url(#p879d08c966)" style="fill: #eeeeee; stroke: #000000; stroke-width: 0.3"/>
    <path d="M 129.445523 186.825644 
L 129.805824 186.534427 
L 130.382304 187.324085 
z
" clip-path="url(#p879d08c966)" style="fill: #eeeeee; stroke: #000000; stroke-width: 0.3"/>
    <path d="M 129.43008 121.076655 
L 129.947372 121.244583 
L 129.622248 121.727555 
z
" clip-path="url(#p879d08c966)" style="fill: #eeeeee; stroke: #000000; stroke-width: 0.3"/>
    <path d="M 127.656914 157.633251 
L 127.786445 157.77081 
L 127.73669 157.799393 
z
" clip-path="url(#p879d08c966)" style="fill: #eeeeee; stroke: #000000; stroke-width: 0.3"/>
    <path d="M 127.201395 123.935744 
L 128.503609 121.837731 
L 127.858505 123.707065 
z
" clip-path="url(#p879d08c966)" style="fill: #eeeeee; stroke: #000000; stroke-width: 0.3"/>
    <path d="M 124.604682 123.03651 
L 126.770753 124.253759 
L 125.97123 124.944555 
z
" clip-path="url(#p879d08c966)" style="fill: #eeeeee; stroke: #000000; stroke-width: 0.3"/>
    <path d="M 123.269009 124.145368 
L 123.374527 122.945389 
L 123.821466 123.461715 
z
" clip-path="url(#p879d08c966)" style="fill: #eeeeee; stroke: #000000; stroke-width: 0.3"/>
    <path d="M 123.155775 156.382648 
L 123.341069 156.715547 
L 123.305039 156.750687 
z
" clip-path="url(#p879d08c966)" style="fill: #eeeeee; stroke: #000000; stroke-width: 0.3"/>
    <path d="M 123.014227 147.708904 
L 123.694497 147.550489 
L 123.956141 147.708904 
z
" clip-path="url(#p879d08c966)" style="fill: #eeeeee; stroke: #000000; stroke-width: 0.3"/>
    <path d="M 121.531862 172.036486 
L 121.901597 171.957879 
L 121.928193 172.481347 
z
" clip-path="url(#p879d08c966)" style="fill: #eeeeee; stroke: #000000; stroke-width: 0.3"/>
    <path d="M 119.410402 151.324897 
L 120.085528 151.373736 
L 120.126702 151.771543 
z
" clip-path="url(#p879d08c966)" style="fill: #eeeeee; stroke: #000000; stroke-width: 0.3"/>
    <path d="M 105.243867 159.554995 
L 105.555266 159.041055 
L 105.532107 159.745549 
z
" clip-path="url(#p879d08c966)" style="fill: #eeeeee; stroke: #000000; stroke-width: 0.3"/>
    <path d="M 104.720577 158.403254 
L 105.020824 158.346088 
L 104.883566 158.546184 
z
" clip-path="url(#p879d08c966)" style="fill: #eeeeee; stroke: #000000; stroke-width: 0.3"/>
    <path d="M 96.214139 132.674996 
L 96.617332 131.884753 
L 96.358259 132.674996 
z
" clip-path="url(#p879d08c966)" style="fill: #eeeeee; stroke: #000000; stroke-width: 0.3"/>
    <path d="M 95.968791 132.184883 
L 96.155804 131.5048 
L 96.717695 131.528027 
z
" clip-path="url(#p879d08c966)" style="fill: #eeeeee; stroke: #000000; stroke-width: 0.3"/>
    <path d="M 92.532246 132.374866 
L 94.025763 128.268745 
L 94.338881 131.533384 
z
" clip-path="url(#p879d08c966)" style="fill: #eeeeee; stroke: #000000; stroke-width: 0.3"/>
    <path d="M 88.250713 123.011498 
L 88.795454 123.10916 
L 88.919841 123.445631 
z
" clip-path="url(#p879d08c966)" style="fill: #eeeeee; stroke: #000000; stroke-width: 0.3"/>
    <path d="M -23.668823 5.144425 
L -22.315705 2.994236 
L -23.391304 1.167287 
L -20.917913 0.378916 
L -18.382719 1.849184 
L -17.747555 3.735422 
L -16.41514 3.53916 
L -16.935899 5.022658 
L -14.106552 3.194274 
L -14.096748 0.545673 
L -9.570005 1.224087 
L -8.29641 3.274828 
L -5.581455 3.224906 
L -1.539525 0.360768 
L 4.29132 0.135001 
L 4.322912 -1.339423 
L 5.014724 -1.722874 
L 4.977682 -0.945392 
L 7.695904 -0.213661 
L 10.49367 -0.769166 
L 10.672334 0.870508 
L 13.022329 2.170228 
L 13.762072 -0.661009 
L 11.864224 -1.598838 
L 12.910106 -3.407171 
L 10.314996 -7.410331 
L 17.277793 -11.156331 
L 17.794199 -14.037505 
L 20.555461 -13.28006 
L 21.601354 -16.861937 
L 24.332647 -14.304852 
L 26.973528 -13.820812 
L 28.373491 -15.058141 
L 30.665741 -14.078338 
L 31.980721 -17.009419 
L 33.448243 -16.809001 
L 33.896015 -20.396176 
L 42.713093 -18.411617 
L 45.526102 -16.517066 
L 48.403392 -16.28865 
L 50.102959 -17.435224 
L 53.828947 -16.167644 
L 54.588307 -14.487122 
L 53.528247 -10.995619 
L 56.731293 -5.724512 
L 55.210389 -3.6439 
L 55.962129 -1.378368 
L 53.032544 -0.89509 
L 50.611744 -2.047328 
L 48.925247 -0.688246 
L 51.269782 -0.11269 
L 51.890778 1.116311 
L 51.381993 2.361953 
L 49.20088 3.182551 
L 49.614878 4.93947 
L 48.977543 6.251279 
L 49.997283 6.977726 
L 49.102826 8.638197 
L 49.753242 9.011812 
L 47.524188 8.927497 
L 44.433364 11.512565 
L 44.802645 13.810251 
L 43.053007 13.022905 
L 40.789082 13.124256 
L 38.962049 14.630454 
L 34.738177 14.119558 
L 32.508026 14.828223 
L 29.239624 18.08452 
L 6.730641 13.525854 
L 5.271836 10.920369 
L 3.798874 10.324397 
L 4.365404 7.743485 
L -0.333479 9.420611 
L -6.240579 9.519679 
L -8.112296 12.36984 
L -13.495359 11.23916 
L -14.685056 9.045474 
L -17.447952 11.228183 
L -19.937397 10.052879 
L -20.118243 8.764121 
L -23.035842 8.158328 
z
" clip-path="url(#p879d08c966)" style="fill: #eeeeee; stroke: #000000; stroke-width: 0.3"/>
    <path d="M -54.43272 36.747607 
L -49.10249 34.468098 
L -48.551214 32.247571 
L -50.426198 30.781079 
L -50.631015 28.88426 
L -52.543031 26.88306 
L -50.01219 24.720006 
L -48.626394 25.433209 
L -44.540876 23.858576 
L -41.350911 24.808493 
L -38.537903 21.768129 
L -38.783029 19.648191 
L -35.496106 17.008283 
L -35.085376 20.181392 
L -31.176361 22.312672 
L -31.60888 23.873694 
L -30.522677 24.40085 
L -30.216537 26.166828 
L -29.13687 26.250031 
L -28.497353 25.104964 
L -29.140138 23.050828 
L -26.792336 20.242656 
L -26.186593 16.346891 
L -24.580716 16.332899 
L -23.507584 19.255667 
L -19.480907 18.194183 
L -17.822736 20.406017 
L -16.945713 19.785077 
L -17.653865 18.811714 
L -17.137459 17.729433 
L -18.343495 17.094882 
L -18.275947 15.825794 
L -16.595986 14.45234 
L -13.940948 15.756216 
L -13.781891 14.499978 
L -14.72973 13.785268 
L -13.837454 10.974828 
L -8.112296 12.36984 
L -6.240579 9.519679 
L -0.333479 9.420611 
L 4.365404 7.743485 
L 3.798874 10.324397 
L 5.271836 10.920369 
L 6.730641 13.525854 
L 20.391491 16.019407 
L 16.852896 19.377434 
L 17.325724 20.582229 
L 19.721468 20.98611 
L 17.870465 23.532599 
L 19.389186 23.839666 
L 18.968653 26.109354 
L 21.211317 27.381457 
L 22.433702 29.01434 
L 21.939085 29.704843 
L 20.505453 29.579768 
L 21.521145 29.270696 
L 19.055682 26.705195 
L 17.237041 28.376218 
L 16.896473 27.363836 
L 14.260305 26.963643 
L 13.898297 28.866931 
L 6.927404 31.850481 
L 8.593345 30.16993 
L 6.643454 30.369427 
L 4.089634 33.673961 
L 4.890864 35.272348 
L 5.700675 34.885254 
L 6.349216 38.101068 
L 6.349216 37.301282 
L 8.088935 38.700158 
L 7.147874 40.888692 
L 6.75069 39.852484 
L 6.848482 41.140598 
L 5.26918 40.798772 
L 6.349216 49.228351 
L 9.75145 53.034328 
L 19.491479 59.329569 
L 24.338329 73.40409 
L 31.020117 79.599882 
L 31.352103 80.929679 
L 35.828365 83.224803 
L 46.107126 83.340336 
L 46.569508 85.393696 
L 43.573039 87.807925 
L 44.216425 90.079237 
L 55.769951 95.60566 
L 60.186159 99.289548 
L 65.782767 101.9158 
L 71.14948 109.401478 
L 69.811235 114.116216 
L 66.463047 112.734011 
L 64.26609 107.258797 
L 60.565328 106.994392 
L 57.278047 105.286444 
L 58.575117 104.143631 
L 54.915529 104.229395 
L 51.001159 110.20305 
L 51.284244 111.933639 
L 49.789019 114.729005 
L 50.380932 116.402413 
L 56.840542 120.129782 
L 56.984662 126.652503 
L 50.799568 129.033391 
L 50.63057 134.424041 
L 46.412517 138.614126 
L 45.439717 141.589933 
L 41.299732 141.390437 
L 40.755856 137.486212 
L 42.653419 136.310645 
L 43.760051 133.146655 
L 42.903911 131.211812 
L 46.234949 130.013033 
L 46.963256 128.173468 
L 42.248519 113.03297 
L 40.665781 110.300712 
L 38.408075 111.527401 
L 36.838913 111.009392 
L 35.426037 108.956632 
L 33.148439 107.902554 
L 34.066836 105.620675 
L 31.787036 101.635311 
L 27.155501 103.087782 
L 28.541793 100.759888 
L 26.645083 99.163302 
L 24.046631 99.883119 
L 23.768837 97.947721 
L 20.611825 93.109839 
L 18.736566 93.779809 
L 16.015467 92.47561 
L 13.472799 93.473707 
L 11.880626 90.959416 
L 9.157819 90.254322 
L 4.980939 86.027911 
L 2.675903 82.269588 
L 0.6428 81.668113 
L -1.14153 78.079517 
L -4.109695 76.213155 
L -6.956036 76.441834 
L -6.093455 75.139202 
L -6.409587 73.913259 
L -8.674314 71.294163 
L -10.912445 70.394929 
L -10.572731 68.728662 
L -13.355603 68.403505 
L -13.053638 63.921018 
L -15.27718 60.322895 
L -15.968612 55.141869 
L -17.666293 52.525744 
L -20.257862 51.307309 
L -20.389111 52.278009 
L -26.731196 47.7205 
L -26.941368 48.428565 
L -31.667268 46.57293 
L -34.790696 48.44405 
L -38.98987 54.409377 
L -44.950214 55.938084 
L -45.207632 54.865404 
L -42.972041 51.911639 
L -43.333743 50.320365 
L -46.654451 51.087265 
L -50.525339 49.246397 
L -51.976512 45.081397 
L -50.668057 42.898688 
L -49.66357 42.87372 
L -50.193046 40.779497 
L -52.928704 39.610998 
z
M 7.236843 83.574401 
L 7.247426 83.591422 
L 7.246878 83.575177 
z
M 6.632017 53.652209 
L 7.503073 54.11134 
L 7.543899 53.15229 
z
" clip-path="url(#p879d08c966)" style="fill: #eeeeee; stroke: #000000; stroke-width: 0.3"/>
    <path d="M -38.150891 102.757268 
L -37.668786 97.333864 
L -36.433477 98.989417 
L -34.216798 99.336001 
L -31.033316 97.574457 
L -26.731196 92.959767 
L -24.7101 94.158546 
L -24.493919 95.457388 
L -23.263765 94.957747 
L -23.766467 96.565647 
L -22.177731 96.765143 
L -23.847108 97.873402 
L -21.530908 99.073381 
L -22.227485 99.732623 
L -20.726241 104.772503 
L -22.562044 107.588725 
L -21.443405 110.210792 
L -23.191705 123.890491 
L -23.696125 124.544361 
L -29.015645 122.212312 
L -28.320787 122.787589 
L -28.891259 126.143334 
L -30.709046 127.860224 
L -32.150237 127.061038 
L -32.947177 128.060321 
L -33.805025 125.244699 
L -35.773795 122.8245 
L -35.023172 114.99521 
L -34.254535 115.798553 
L -33.739827 115.814037 
L -34.386649 115.515092 
L -33.851353 113.595134 
L -35.544743 112.717341 
L -35.727466 110.945069 
L -34.538485 109.910062 
L -35.699162 104.579564 
L -36.630778 102.725699 
z
" clip-path="url(#p879d08c966)" style="fill: #eeeeee; stroke: #000000; stroke-width: 0.3"/>
    <path d="M 6.96258 143.680805 
L 7.657439 140.396511 
L 9.888697 139.088155 
L 10.175219 137.888776 
L 11.960413 140.299448 
L 13.649513 139.488349 
L 14.06643 137.928087 
L 16.356034 137.480841 
L 17.128097 139.200117 
L 21.338423 141.096248 
L 23.76013 139.98739 
L 28.938113 140.060641 
L 33.105547 137.963212 
L 35.011691 138.833278 
L 36.584995 136.834713 
L 37.161465 137.680352 
L 40.954021 136.681069 
L 36.331067 144.201287 
L 35.050293 148.357432 
L 35.176399 150.519169 
L 36.741122 151.573832 
L 36.018814 152.309295 
L 37.588671 155.175541 
L 35.754587 156.454713 
L 35.075171 160.395863 
L 28.680758 158.3699 
L 26.482948 154.701497 
L 20.548345 152.83752 
L 14.837639 148.218073 
L 9.411736 147.074675 
z
" clip-path="url(#p879d08c966)" style="fill: #eeeeee; stroke: #000000; stroke-width: 0.3"/>
    <path d="M -17.495588 71.083339 
L -17.219354 70.285353 
L -13.947516 69.794639 
L -14.2409 71.793204 
z
" clip-path="url(#p879d08c966)" style="fill: #eeeeee; stroke: #000000; stroke-width: 0.3"/>
    <path d="M -24.555691 94.082324 
L -24.157643 93.348647 
L -24.156789 94.179987 
L -24.267451 94.276464 
z
" clip-path="url(#p879d08c966)" style="fill: #eeeeee; stroke: #000000; stroke-width: 0.3"/>
    <path d="M -37.279318 123.545679 
L -36.479806 123.245534 
L -36.479806 124.544361 
L -37.018528 124.506851 
z
" clip-path="url(#p879d08c966)" style="fill: #eeeeee; stroke: #000000; stroke-width: 0.3"/>
    <path d="M 36.056552 129.162623 
L 36.320768 128.848779 
L 36.377396 129.396659 
z
" clip-path="url(#p879d08c966)" style="fill: #eeeeee; stroke: #000000; stroke-width: 0.3"/>
    <path d="M 33.539626 134.908198 
L 34.162424 135.182731 
L 33.946244 135.381642 
z
" clip-path="url(#p879d08c966)" style="fill: #eeeeee; stroke: #000000; stroke-width: 0.3"/>
    <path d="M 33.29256 133.065062 
L 33.867322 133.574831 
L 33.730064 134.073872 
z
" clip-path="url(#p879d08c966)" style="fill: #eeeeee; stroke: #000000; stroke-width: 0.3"/>
    <path d="M 31.911423 132.344483 
L 32.682632 132.205138 
L 32.626868 132.817327 
z
" clip-path="url(#p879d08c966)" style="fill: #eeeeee; stroke: #000000; stroke-width: 0.3"/>
    <path d="M 29.262383 132.121174 
L 29.488851 132.155114 
L 29.358467 132.490984 
z
" clip-path="url(#p879d08c966)" style="fill: #eeeeee; stroke: #000000; stroke-width: 0.3"/>
    <path d="M 27.15722 132.700609 
L 27.309056 132.642842 
L 27.347658 132.820898 
z
" clip-path="url(#p879d08c966)" style="fill: #eeeeee; stroke: #000000; stroke-width: 0.3"/>
    <path d="M 21.953506 100.970713 
L 22.097626 100.281088 
L 23.18366 100.681281 
z
" clip-path="url(#p879d08c966)" style="fill: #eeeeee; stroke: #000000; stroke-width: 0.3"/>
    <path d="M 17.374298 99.937476 
L 17.473808 99.727266 
L 17.556167 99.709396 
z
" clip-path="url(#p879d08c966)" style="fill: #eeeeee; stroke: #000000; stroke-width: 0.3"/>
    <path d="M 14.620605 130.541843 
L 14.960308 130.208959 
L 15.083841 130.343547 
z
" clip-path="url(#p879d08c966)" style="fill: #eeeeee; stroke: #000000; stroke-width: 0.3"/>
    <path d="M 11.377924 171.990633 
L 11.674745 171.935852 
L 11.659302 172.143091 
z
" clip-path="url(#p879d08c966)" style="fill: #eeeeee; stroke: #000000; stroke-width: 0.3"/>
    <path d="M 8.00744 177.05494 
L 8.31884 176.988246 
L 8.903036 177.456319 
z
" clip-path="url(#p879d08c966)" style="fill: #eeeeee; stroke: #000000; stroke-width: 0.3"/>
    <path d="M 5.84994 33.168363 
L 6.563678 31.916589 
L 7.003754 32.178023 
z
" clip-path="url(#p879d08c966)" style="fill: #eeeeee; stroke: #000000; stroke-width: 0.3"/>
    <path d="M 5.84137 31.970784 
L 6.296025 31.680767 
L 6.27801 31.849295 
z
" clip-path="url(#p879d08c966)" style="fill: #eeeeee; stroke: #000000; stroke-width: 0.3"/>
    <path d="M 5.620045 141.891864 
L 5.7736 141.495241 
L 6.349216 141.804329 
z
" clip-path="url(#p879d08c966)" style="fill: #eeeeee; stroke: #000000; stroke-width: 0.3"/>
    <path d="M 2.782275 140.939034 
L 3.025905 140.821116 
L 3.296984 141.438075 
z
" clip-path="url(#p879d08c966)" style="fill: #eeeeee; stroke: #000000; stroke-width: 0.3"/>
    <path d="M 1.670499 158.097753 
L 3.004453 158.413967 
L 2.783993 159.130975 
z
" clip-path="url(#p879d08c966)" style="fill: #eeeeee; stroke: #000000; stroke-width: 0.3"/>
    <path d="M -9.536452 76.807488 
L -8.714898 77.328775 
L -8.888122 77.503406 
z
" clip-path="url(#p879d08c966)" style="fill: #eeeeee; stroke: #000000; stroke-width: 0.3"/>
    <path d="M -15.517383 77.367266 
L -15.290904 77.180868 
L -15.319218 77.427418 
z
" clip-path="url(#p879d08c966)" style="fill: #eeeeee; stroke: #000000; stroke-width: 0.3"/>
    <path d="M -18.090926 73.651225 
L -17.783817 73.183152 
L -17.716912 73.789984 
z
" clip-path="url(#p879d08c966)" style="fill: #eeeeee; stroke: #000000; stroke-width: 0.3"/>
    <path d="M -20.713655 67.418419 
L -20.656247 66.560735 
L -20.285374 67.167406 
z
" clip-path="url(#p879d08c966)" style="fill: #eeeeee; stroke: #000000; stroke-width: 0.3"/>
    <path d="M -25.229963 93.439167 
L -24.795884 92.962753 
L -24.995768 93.721442 
z
" clip-path="url(#p879d08c966)" style="fill: #eeeeee; stroke: #000000; stroke-width: 0.3"/>
    <path d="M -36.056026 124.64441 
L -34.602829 125.053531 
L -35.383473 126.633447 
z
" clip-path="url(#p879d08c966)" style="fill: #eeeeee; stroke: #000000; stroke-width: 0.3"/>
    <path d="M -37.49378 96.865192 
L -36.265344 94.957747 
L -37.106031 96.89676 
z
" clip-path="url(#p879d08c966)" style="fill: #eeeeee; stroke: #000000; stroke-width: 0.3"/>
    <path d="M 74.72497 25.713801 
L 76.939857 23.450157 
L 79.02728 23.897901 
L 82.047287 21.223585 
L 89.351094 22.044183 
L 94.044527 27.386009 
L 95.074081 27.247601 
L 94.877971 31.24621 
L 102.532581 36.138023 
L 101.036744 38.287466 
L 102.985802 39.88177 
L 101.080322 40.360512 
L 101.506305 41.331606 
L 107.814332 43.258692 
L 109.208856 45.540483 
L 112.365046 42.159771 
L 115.939598 44.367433 
L 112.977325 45.582824 
L 115.164678 49.553889 
L 114.12454 51.96156 
L 112.086145 52.99468 
L 111.557744 55.708321 
L 113.343391 60.591807 
L 118.25254 64.976896 
L 115.537575 69.188041 
L 112.379203 70.260487 
L 112.964253 71.428985 
L 112.357414 73.78413 
L 113.529687 75.166672 
L 112.343257 77.398542 
L 110.70796 76.748111 
L 103.39435 78.626036 
L 102.772268 77.163701 
L 103.841036 76.509494 
L 105.390264 72.36794 
L 101.324363 71.277347 
L 101.638134 69.77191 
L 100.079103 69.192959 
L 98.308709 66.205531 
L 95.630796 65.037779 
L 95.429248 63.765296 
L 93.158787 64.63542 
L 93.578234 66.767842 
L 91.634626 68.264205 
L 91.812204 69.647113 
L 90.431847 70.058166 
L 90.344692 68.894204 
L 86.044554 65.865563 
L 82.554986 64.95383 
L 78.104498 60.494628 
L 78.913982 58.917711 
L 81.411038 59.271671 
L 81.59843 58.060817 
L 78.817013 52.867615 
L 81.821767 53.230648 
L 82.77397 52.374501 
L 77.480234 47.866884 
L 77.619684 45.311321 
L 80.220255 40.266727 
L 78.219988 39.322094 
L 76.416916 40.228148 
L 76.159793 39.506633 
L 77.638205 38.946956 
L 76.723055 36.252985 
L 80.549269 35.288696 
L 76.012869 32.82882 
L 76.351549 30.96335 
L 77.370204 30.773513 
L 75.233754 29.874264 
L 75.917935 28.474334 
z
" clip-path="url(#p879d08c966)" style="fill: #eeeeee; stroke: #000000; stroke-width: 0.3"/>
    <path d="M 18.347963 30.76962 
L 22.373786 32.06151 
L 23.24754 30.735695 
L 27.473594 31.268149 
L 29.667779 28.487945 
L 31.946957 31.453434 
L 33.269569 30.725113 
L 35.553101 31.967726 
L 37.513048 31.634197 
L 36.916023 29.456025 
L 38.0251 28.891812 
L 36.773305 27.673406 
L 41.211797 25.942963 
L 41.442766 23.096212 
L 40.303182 21.964771 
L 40.829391 20.586766 
L 44.82884 19.252637 
L 45.237388 18.10078 
L 47.531809 18.164693 
L 47.102558 16.405886 
L 48.254128 15.620838 
L 53.456345 18.037247 
L 58.226043 23.851009 
L 61.398583 24.559675 
L 64.212678 26.967009 
L 69.97161 27.404904 
L 72.620112 24.97866 
L 75.209783 24.633028 
L 74.616015 26.323384 
L 75.917935 28.474334 
L 75.233754 29.874264 
L 77.370204 30.773513 
L 76.351549 30.96335 
L 76.012869 32.82882 
L 80.549269 35.288696 
L 77.534711 35.396091 
L 76.723055 36.252985 
L 77.638205 38.946956 
L 75.086672 40.293203 
L 72.919716 37.020647 
L 71.159136 37.444169 
L 68.21648 35.957275 
L 63.977355 37.318625 
L 62.385635 35.861969 
L 57.13984 36.087355 
L 54.370409 34.097498 
L 53.182894 35.60936 
L 50.2021 35.008851 
L 47.959974 38.243589 
L 44.841911 35.130618 
L 42.43745 35.483817 
L 41.764159 41.640942 
L 44.924713 43.754074 
L 44.690476 44.9793 
L 45.85403 45.265175 
L 48.072186 51.69155 
L 55.4893 59.50537 
L 58.019045 60.753281 
L 58.223861 63.091799 
L 61.791877 66.85103 
L 61.856158 68.258526 
L 60.603076 68.134329 
L 60.458956 67.079066 
L 53.909271 61.591353 
L 48.752729 60.056689 
L 49.199679 59.486783 
L 44.199263 60.156738 
L 44.104044 57.455464 
L 41.530491 56.359704 
L 35.608759 50.03648 
L 35.567585 48.76325 
L 37.197495 49.228351 
L 36.838913 48.029572 
L 38.559763 48.97526 
L 39.657804 48.919279 
L 34.162424 44.55888 
L 32.86021 42.306623 
L 33.259102 38.864515 
L 32.533367 36.890961 
L 29.560911 33.963979 
L 26.827805 33.22733 
L 25.139559 38.591182 
L 24.269695 39.000303 
L 24.427539 38.460751 
L 23.968594 37.691348 
L 23.54396 40.997668 
L 22.385856 40.698723 
L 22.67924 41.506837 
L 22.523113 41.592601 
L 19.572109 37.192306 
L 20.658154 36.293057 
L 19.284733 36.133457 
L 19.427989 33.576299 
z
" clip-path="url(#p879d08c966)" style="fill: #eeeeee; stroke: #000000; stroke-width: 0.3"/>
    <path d="M 55.18489 66.778921 
L 62.983609 69.88516 
L 62.054555 69.128841 
L 63.724596 68.851849 
L 64.217031 70.211326 
L 70.319156 73.983802 
L 70.94188 76.074995 
L 64.579208 70.593825 
L 62.767429 70.075728 
L 63.198925 70.771295 
L 63.059959 70.868958 
L 57.422167 67.787146 
L 55.654134 67.604905 
z
" clip-path="url(#p879d08c966)" style="fill: #eeeeee; stroke: #000000; stroke-width: 0.3"/>
    <path d="M 26.479522 36.60273 
L 26.850111 35.738035 
L 28.534931 38.679903 
L 28.961282 43.205858 
L 28.054534 43.288036 
L 26.645083 39.598792 
L 27.880392 38.900255 
z
" clip-path="url(#p879d08c966)" style="fill: #eeeeee; stroke: #000000; stroke-width: 0.3"/>
    <path d="M 28.024502 36.983268 
L 29.131988 36.288301 
L 29.329299 34.621434 
L 32.134465 38.591182 
L 31.169381 39.090823 
z
" clip-path="url(#p879d08c966)" style="fill: #eeeeee; stroke: #000000; stroke-width: 0.3"/>
    <path d="M 48.903712 62.663287 
L 49.119892 61.764652 
L 54.032804 62.963431 
L 49.073574 62.884824 
z
" clip-path="url(#p879d08c966)" style="fill: #eeeeee; stroke: #000000; stroke-width: 0.3"/>
    <path d="M 45.141188 66.578824 
L 45.999036 66.238198 
L 47.169147 66.479376 
L 45.545235 67.364912 
z
" clip-path="url(#p879d08c966)" style="fill: #eeeeee; stroke: #000000; stroke-width: 0.3"/>
    <path d="M 34.744049 50.527179 
L 36.464888 51.92784 
L 36.766853 52.63532 
L 35.36942 51.547302 
z
" clip-path="url(#p879d08c966)" style="fill: #eeeeee; stroke: #000000; stroke-width: 0.3"/>
    <path d="M 30.478813 41.206692 
L 31.205411 41.206692 
L 30.773061 40.498627 
L 32.599419 42.398329 
z
" clip-path="url(#p879d08c966)" style="fill: #eeeeee; stroke: #000000; stroke-width: 0.3"/>
    <path d="M 58.580261 70.593825 
L 59.303434 70.434825 
L 63.061667 72.002829 
z
" clip-path="url(#p879d08c966)" style="fill: #eeeeee; stroke: #000000; stroke-width: 0.3"/>
    <path d="M 53.278746 71.395397 
L 54.335623 70.793922 
L 54.496894 71.110736 
z
" clip-path="url(#p879d08c966)" style="fill: #eeeeee; stroke: #000000; stroke-width: 0.3"/>
    <path d="M 51.285109 67.787146 
L 57.278047 68.677438 
L 53.601298 68.985925 
z
" clip-path="url(#p879d08c966)" style="fill: #eeeeee; stroke: #000000; stroke-width: 0.3"/>
    <path d="M 48.543422 64.67138 
L 57.205987 65.670062 
L 54.569386 65.670062 
z
" clip-path="url(#p879d08c966)" style="fill: #eeeeee; stroke: #000000; stroke-width: 0.3"/>
    <path d="M 46.855165 60.360405 
L 47.413631 60.026321 
L 48.582024 60.35862 
z
" clip-path="url(#p879d08c966)" style="fill: #eeeeee; stroke: #000000; stroke-width: 0.3"/>
    <path d="M 46.739359 61.575269 
L 47.546598 61.503804 
L 48.3015 62.575752 
z
" clip-path="url(#p879d08c966)" style="fill: #eeeeee; stroke: #000000; stroke-width: 0.3"/>
    <path d="M 40.4496 57.657946 
L 41.889937 58.348741 
L 41.169337 58.20344 
z
" clip-path="url(#p879d08c966)" style="fill: #eeeeee; stroke: #000000; stroke-width: 0.3"/>
    <path d="M 36.838913 52.735368 
L 38.787096 54.543365 
L 37.865758 54.077078 
z
" clip-path="url(#p879d08c966)" style="fill: #eeeeee; stroke: #000000; stroke-width: 0.3"/>
    <path d="M 36.48634 54.734534 
L 36.892958 54.990011 
L 38.25608 56.228101 
z
" clip-path="url(#p879d08c966)" style="fill: #eeeeee; stroke: #000000; stroke-width: 0.3"/>
    <path d="M 32.499909 50.327082 
L 34.162424 51.535989 
L 36.135474 54.761331 
z
" clip-path="url(#p879d08c966)" style="fill: #eeeeee; stroke: #000000; stroke-width: 0.3"/>
    <path d="M 32.213388 50.428331 
L 32.705791 50.840422 
L 32.265714 50.586145 
z
" clip-path="url(#p879d08c966)" style="fill: #eeeeee; stroke: #000000; stroke-width: 0.3"/>
    <path d="M 31.515103 47.569827 
L 31.591443 46.81828 
L 32.010932 46.962395 
z
" clip-path="url(#p879d08c966)" style="fill: #eeeeee; stroke: #000000; stroke-width: 0.3"/>
    <path d="M 31.434462 49.067566 
L 31.889117 48.908566 
L 31.86853 48.990744 
z
" clip-path="url(#p879d08c966)" style="fill: #eeeeee; stroke: #000000; stroke-width: 0.3"/>
    <path d="M 31.277471 42.605583 
L 36.766853 47.920596 
L 35.442333 48.330902 
z
" clip-path="url(#p879d08c966)" style="fill: #eeeeee; stroke: #000000; stroke-width: 0.3"/>
    <path d="M 29.816558 47.816977 
L 30.32783 48.12962 
L 30.515707 48.379741 
z
" clip-path="url(#p879d08c966)" style="fill: #eeeeee; stroke: #000000; stroke-width: 0.3"/>
    <path d="M 27.083441 42.406672 
L 29.176598 45.812455 
L 27.370828 44.504685 
z
" clip-path="url(#p879d08c966)" style="fill: #eeeeee; stroke: #000000; stroke-width: 0.3"/>
    <path d="M 25.995689 43.734682 
L 26.500109 42.980749 
L 26.402307 43.932393 
z
" clip-path="url(#p879d08c966)" style="fill: #eeeeee; stroke: #000000; stroke-width: 0.3"/>
    <path d="M 16.852896 19.377434 
L 20.391491 16.019407 
L 29.239624 18.08452 
L 32.508026 14.828223 
L 34.738177 14.119558 
L 38.962049 14.630454 
L 40.789082 13.124256 
L 43.053007 13.022905 
L 44.802645 13.810251 
L 44.330955 11.61579 
L 45.617611 10.99902 
L 48.055847 11.340496 
L 48.594041 14.419059 
L 49.905764 15.652597 
L 47.408698 16.075373 
L 47.531809 18.164693 
L 45.237388 18.10078 
L 44.82884 19.252637 
L 40.829391 20.586766 
L 40.303182 21.964771 
L 41.442766 23.096212 
L 41.211797 25.942963 
L 36.773305 27.673406 
L 38.0251 28.891812 
L 36.916023 29.456025 
L 37.513048 31.634197 
L 35.553101 31.967726 
L 33.269569 30.725113 
L 31.946957 31.453434 
L 29.667779 28.487945 
L 27.473594 31.268149 
L 19.779772 31.537661 
L 18.996493 30.369427 
L 22.433702 29.01434 
L 19.129892 26.417929 
L 19.389186 23.839666 
L 17.870465 23.532599 
L 19.721468 20.98611 
L 17.325724 20.582229 
z
" clip-path="url(#p879d08c966)" style="fill: #eeeeee; stroke: #000000; stroke-width: 0.3"/>
    <path d="M 111.510898 77.580813 
L 113.49373 75.471091 
L 112.357414 73.78413 
L 112.964253 71.428985 
L 112.379203 70.260487 
L 115.537575 69.188041 
L 118.218766 64.620302 
L 113.343391 60.591807 
L 111.557744 55.708321 
L 112.086145 52.99468 
L 114.12454 51.96156 
L 115.164678 49.553889 
L 118.741707 51.534994 
L 117.212096 52.977279 
L 117.242603 55.245825 
L 123.524477 54.644569 
L 143.747209 58.018842 
L 147.731942 56.819332 
L 151.627886 52.715596 
L 160.869851 50.305992 
L 164.626345 52.67627 
L 167.257412 52.46148 
L 168.187825 53.647365 
L 170.194628 52.99468 
L 170.9213 55.102134 
L 173.453775 56.380676 
L 177.218333 56.683675 
L 177.027884 60.89043 
L 176.109129 62.163645 
L 174.511812 61.264411 
L 172.374055 61.802163 
L 171.306889 64.126485 
L 170.109328 64.571331 
L 169.985795 71.769378 
L 168.303558 71.711026 
L 167.204653 72.9628 
L 167.433693 74.000794 
L 165.354261 75.141221 
L 168.159438 76.098807 
L 168.548041 78.385019 
L 171.298309 82.569733 
L 169.138932 82.245732 
L 166.34008 83.614664 
L 163.461704 80.825386 
L 161.070862 80.954339 
L 159.93618 82.223428 
L 156.423727 82.645062 
L 155.584843 84.740426 
L 153.561691 85.248293 
L 153.552984 86.368011 
L 150.604878 86.536656 
L 151.890448 90.482709 
L 148.79527 92.353828 
L 142.018221 93.278031 
L 138.299865 90.940273 
L 137.119971 91.709442 
L 135.07503 90.356404 
L 134.334191 88.583621 
L 129.763869 88.958743 
L 129.322633 90.198341 
L 124.871059 91.373645 
L 117.540024 91.889444 
L 118.508566 85.974345 
L 116.709848 81.883079 
L 113.471942 80.278574 
z
" clip-path="url(#p879d08c966)" style="fill: #eeeeee; stroke: #000000; stroke-width: 0.3"/>
    <path d="M 6.632017 53.652209 
L 7.543899 53.15229 
L 7.503073 54.11134 
z
" clip-path="url(#p879d08c966)" style="fill: #eeeeee; stroke: #000000; stroke-width: 0.3"/>
    <path d="M 70.278846 68.202941 
L 72.444706 67.236383 
L 72.711631 64.120002 
L 74.365439 62.53628 
L 76.170693 63.623478 
L 76.984531 63.012768 
L 75.255543 60.352063 
L 76.012722 59.538271 
L 78.309325 59.734913 
L 78.276636 60.880346 
L 82.554986 64.95383 
L 86.044554 65.865563 
L 90.519002 69.128285 
L 88.724648 71.301173 
L 87.07083 71.290958 
L 87.88685 72.609587 
L 86.599098 74.692848 
L 84.697971 75.316803 
L 83.862344 72.712445 
L 82.804476 73.313716 
L 79.148209 79.368729 
L 80.176667 80.642354 
L 80.098567 84.328905 
L 78.044876 83.075931 
L 75.048407 78.006267 
L 73.916044 78.19505 
L 71.455735 75.968991 
L 73.092508 76.416822 
L 72.954397 75.100725 
L 70.94188 76.074995 
L 70.319156 73.983802 
L 71.506671 72.390625 
z
" clip-path="url(#p879d08c966)" style="fill: #eeeeee; stroke: #000000; stroke-width: 0.3"/>
    <path d="M 41.764159 41.640942 
L 42.43745 35.483817 
L 44.841911 35.130618 
L 47.959974 38.243589 
L 50.2021 35.008851 
L 53.182894 35.60936 
L 54.370409 34.097498 
L 57.13984 36.087355 
L 62.385635 35.861969 
L 63.977355 37.318625 
L 68.21648 35.957275 
L 71.159136 37.444169 
L 72.857617 36.982828 
L 75.086672 40.293203 
L 78.219988 39.322094 
L 80.136357 39.913529 
L 77.380007 47.29588 
L 82.695522 52.099207 
L 81.821767 53.230648 
L 79.125334 52.715596 
L 78.667759 53.516524 
L 81.116884 56.378408 
L 81.411038 59.271671 
L 79.903216 58.622001 
L 75.312192 60.108528 
L 76.984531 63.012768 
L 76.170693 63.623478 
L 74.365439 62.53628 
L 72.711631 64.120002 
L 72.444706 67.236383 
L 70.48148 67.629273 
L 70.395411 70.209804 
L 71.506671 72.390625 
L 70.896574 73.902502 
L 65.659497 71.331425 
L 63.724596 68.851849 
L 61.033708 68.487469 
L 62.15358 68.034662 
L 61.791877 66.85103 
L 58.223861 63.091799 
L 58.019045 60.753281 
L 55.4893 59.50537 
L 48.072186 51.69155 
L 45.85403 45.265175 
L 44.690476 44.9793 
L 44.924713 43.754074 
z
" clip-path="url(#p879d08c966)" style="fill: #eeeeee; stroke: #000000; stroke-width: 0.3"/>
    <path d="M 7.236843 83.574401 
L 7.246878 83.575177 
L 7.247426 83.591422 
z
" clip-path="url(#p879d08c966)" style="fill: #eeeeee; stroke: #000000; stroke-width: 0.3"/>
   </g>
   <g id="PatchCollection_2">
    <defs>
     <path id="m3b0ecc23a6" d="M 41.764159 -66.359058 
L 42.43745 -72.516183 
L 44.841911 -72.869382 
L 47.959974 -69.756411 
L 50.2021 -72.991149 
L 53.182894 -72.39064 
L 54.370409 -73.902502 
L 57.13984 -71.912645 
L 62.385635 -72.138031 
L 63.977355 -70.681375 
L 68.21648 -72.042725 
L 71.159136 -70.555831 
L 72.857617 -71.017172 
L 75.086672 -67.706797 
L 78.219988 -68.677906 
L 80.136357 -68.086471 
L 77.380007 -60.70412 
L 82.695522 -55.900793 
L 81.821767 -54.769352 
L 79.125334 -55.284404 
L 78.667759 -54.483476 
L 81.116884 -51.621592 
L 81.411038 -48.728329 
L 79.903216 -49.377999 
L 75.312192 -47.891472 
L 76.984531 -44.987232 
L 76.170693 -44.376522 
L 74.365439 -45.46372 
L 72.711631 -43.879998 
L 72.444706 -40.763617 
L 70.48148 -40.370727 
L 70.395411 -37.790196 
L 71.506671 -35.609375 
L 70.896574 -34.097498 
L 65.659497 -36.668575 
L 63.724596 -39.148151 
L 61.033708 -39.512531 
L 62.15358 -39.965338 
L 61.791877 -41.14897 
L 58.223861 -44.908201 
L 58.019045 -47.246719 
L 55.4893 -48.49463 
L 48.072186 -56.30845 
L 45.85403 -62.734825 
L 44.690476 -63.0207 
L 44.924713 -64.245926 
z
" style="stroke: #dd0000; stroke-width: 0.5"/>
    </defs>
    <g clip-path="url(#p879d08c966)">
     <use xlink:href="#m3b0ecc23a6" x="0" y="108" style="fill: #ff6b6b; stroke: #dd0000; stroke-width: 0.5"/>
    </g>
   </g>
  </g>
 </g>
 <defs>
  <clipPath id="p879d08c966">
   <rect x="0" y="0" width="124.459681" height="108"/>
  </clipPath>
 </defs>
</svg>
