<?xml version="1.0" encoding="utf-8" standalone="no"?>
<!DOCTYPE svg PUBLIC "-//W3C//DTD SVG 1.1//EN"
  "http://www.w3.org/Graphics/SVG/1.1/DTD/svg11.dtd">
<svg xmlns:xlink="http://www.w3.org/1999/xlink" width="168.874556pt" height="108pt" viewBox="0 0 168.874556 108" xmlns="http://www.w3.org/2000/svg" version="1.1">
 <metadata>
  <rdf:RDF xmlns:dc="http://purl.org/dc/elements/1.1/" xmlns:cc="http://creativecommons.org/ns#" xmlns:rdf="http://www.w3.org/1999/02/22-rdf-syntax-ns#">
   <cc:Work>
    <dc:type rdf:resource="http://purl.org/dc/dcmitype/StillImage"/>
    <dc:date>2025-09-05T15:49:27.635200</dc:date>
    <dc:format>image/svg+xml</dc:format>
    <dc:creator>
     <cc:Agent>
      <dc:title>Matplotlib v3.10.3, https://matplotlib.org/</dc:title>
     </cc:Agent>
    </dc:creator>
   </cc:Work>
  </rdf:RDF>
 </metadata>
 <defs>
  <style type="text/css">*{stroke-linejoin: round; stroke-linecap: butt}</style>
 </defs>
 <g id="figure_1">
  <g id="patch_1">
   <path d="M 0 108 
L 168.874556 108 
L 168.874556 0 
L 0 0 
z
" style="fill: #ffffff"/>
  </g>
  <g id="axes_1">
   <g id="PatchCollection_1">
    <path d="M -6.629455 79.365898 
L -5.192372 79.346403 
L -3.975861 78.283188 
L -3.966231 77.532043 
L -2.462588 76.934583 
L -0.197989 72.697531 
L 1.319902 72.316312 
L 2.37059 72.748208 
L 4.074551 72.372326 
L 4.165184 71.814045 
L 9.308752 71.807073 
L 12.109924 75.181779 
L 12.533406 76.581474 
L 13.748915 77.261836 
L 13.196302 79.029815 
L 14.377728 79.265765 
L 14.334417 81.161375 
L 15.248756 82.296192 
L 13.282123 85.354722 
L 16.797921 83.78781 
L 16.49755 86.181987 
L 14.23777 87.383077 
L 14.214109 89.470106 
L 8.766165 93.880941 
L 7.532465 96.216674 
L 4.712335 94.393698 
L -0.463749 92.481213 
L 0.600387 92.481213 
L -0.329232 92.042758 
L 0.143474 91.339671 
L 2.040931 90.790704 
L -0.13125 91.114138 
L -0.753629 90.387141 
L -0.039988 89.430093 
L -1.203279 90.147077 
L -3.810589 88.538318 
L -2.905905 88.291782 
L -3.608176 87.392574 
L -3.329673 86.818086 
L -4.076148 85.620315 
L -5.565 86.275909 
L -6.518303 83.663895 
L -4.553277 84.644853 
L -5.193971 83.880375 
L -3.281676 83.116549 
L -3.758486 83.007983 
L -3.329673 82.195043 
L -4.772732 83.005077 
L -4.500227 82.466132 
L -5.516684 82.308127 
L -5.12703 83.022523 
L -5.553313 83.525599 
L -6.157067 81.078379 
L -4.181929 80.829906 
L -5.304486 80.774654 
L -4.875673 80.178838 
L -6.364525 80.075767 
z
" clip-path="url(#pf5baf86d09)" style="fill: #eeeeee; stroke: #000000; stroke-width: 0.3"/>
    <path d="M -3.917635 91.00751 
L -1.354853 90.497001 
L -0.358286 91.066319 
L -0.79815 92.482825 
L -1.231705 91.775871 
z
" clip-path="url(#pf5baf86d09)" style="fill: #eeeeee; stroke: #000000; stroke-width: 0.3"/>
    <path d="M -20.430139 64.935852 
L -17.571261 59.862856 
L -16.095888 59.741188 
L -14.301295 58.502753 
L -12.170639 58.754712 
L -11.044754 57.908572 
L -9.957367 58.17735 
L -9.910852 55.851082 
L -11.839987 54.669693 
L -10.811556 53.672544 
L -9.686477 53.546978 
L -9.94454 50.525992 
L -4.886188 50.823499 
L -4.6963 52.123071 
L -3.618746 51.614237 
L 0.666629 53.44644 
L 2.660532 52.638471 
L 7.490093 52.472685 
L 8.211945 52.82025 
L 7.287176 54.351675 
L 8.630615 55.665198 
L 9.744262 55.758756 
L 10.821824 54.265089 
L 11.599418 54.130494 
L 13.467797 56.743596 
L 15.017762 54.935596 
L 16.916623 54.143628 
L 21.137829 55.671352 
L 21.873718 54.521964 
L 24.134701 53.730408 
L 24.349251 53.032403 
L 23.546801 52.257253 
L 24.685312 51.940879 
L 26.935477 52.945404 
L 26.792912 54.08782 
L 28.317415 56.467839 
L 27.934031 58.589338 
L 28.870828 58.656636 
L 29.412212 59.871885 
L 31.596204 60.894468 
L 29.070944 63.985014 
L 30.166548 64.039384 
L 30.584016 63.394724 
L 31.974373 63.624521 
L 32.301611 67.694969 
L 34.732235 69.516921 
L 33.159812 72.216188 
L 33.285731 75.479897 
L 34.089392 76.605686 
L 35.553535 76.440312 
L 35.055461 78.235178 
L 36.473895 79.08829 
L 35.037814 79.722691 
L 34.749882 81.181481 
L 36.861687 82.67433 
L 37.128371 84.659384 
L 35.875961 83.841561 
L 35.551928 84.293976 
L 34.73745 83.689941 
L 32.577515 84.034425 
L 32.444774 85.682793 
L 34.483198 86.174602 
L 34.798803 87.515616 
L 33.972692 87.403596 
L 32.954884 91.000292 
L 31.289818 90.709773 
L 30.74162 91.145972 
L 30.105591 90.111891 
L 29.180822 90.063056 
L 27.851818 93.408627 
L 25.775306 94.06642 
L 24.929941 92.548948 
L 22.940447 92.590803 
L 23.989932 89.685538 
L 22.634464 86.163111 
L 22.875081 84.908675 
L 21.49274 84.527052 
L 21.700073 83.945179 
L 21.14465 84.176818 
L 20.745225 83.165313 
L 18.509503 84.283716 
L 17.839786 83.472865 
L 16.080082 83.707172 
L 14.686116 85.159809 
L 13.282123 85.354722 
L 15.248756 82.296192 
L 14.334417 81.161375 
L 14.377728 79.265765 
L 13.196302 79.029815 
L 13.748915 77.261836 
L 12.533406 76.581474 
L 9.678897 71.896319 
L 4.165184 71.814045 
L 4.074551 72.372326 
L 2.37059 72.748208 
L 1.319902 72.316312 
L -0.197989 72.697531 
L -2.462588 76.934583 
L -3.966231 77.532043 
L -3.975861 78.283188 
L -5.192372 79.346403 
L -6.629455 79.365898 
L -5.516684 78.222418 
L -6.306741 78.136142 
L -6.099594 77.572001 
L -6.739659 78.249559 
L -6.629455 76.861806 
L -7.457405 77.416259 
L -7.370885 76.206537 
L -8.281561 76.125113 
L -8.069681 75.176466 
L -8.541439 75.723487 
L -8.859419 75.176466 
L -9.928608 75.637219 
L -8.64722 73.436201 
L -9.346334 73.002589 
L -9.949452 73.786776 
L -9.610946 72.179628 
L -10.833603 72.860101 
L -12.505917 71.553772 
L -12.052473 70.168926 
L -13.241977 71.312732 
L -13.122297 70.331774 
L -13.779094 70.912074 
L -13.945825 70.306896 
L -15.565089 70.050664 
L -16.205154 67.719116 
L -17.157829 67.946578 
L -15.935172 64.67866 
L -17.484011 66.647682 
L -17.107938 65.322939 
L -17.953566 66.201143 
L -17.799469 64.831162 
L -18.329011 65.215668 
L -18.414585 64.51258 
L -17.211507 63.529685 
L -17.370338 63.308353 
L -18.598993 64.072179 
L -19.181585 63.583968 
L -19.499883 65.654123 
z
" clip-path="url(#pf5baf86d09)" style="fill: #eeeeee; stroke: #000000; stroke-width: 0.3"/>
    <path d="M 7.532465 96.216674 
L 8.766165 93.880941 
L 14.214109 89.470106 
L 14.23777 87.383077 
L 16.49755 86.181987 
L 16.797921 83.78781 
L 18.281318 83.585504 
L 18.509503 84.283716 
L 20.745225 83.165313 
L 21.14465 84.176818 
L 21.700073 83.945179 
L 21.49274 84.527052 
L 22.875081 84.908675 
L 22.634464 86.163111 
L 23.989932 89.685538 
L 22.940447 92.590803 
L 24.929941 92.548948 
L 25.775306 94.06642 
L 27.429942 93.590414 
L 29.180822 90.063056 
L 30.105591 90.111891 
L 31.206007 91.591201 
L 32.304017 95.434933 
L 31.889755 97.345511 
L 29.707369 99.604068 
L 31.262952 99.934609 
L 31.313084 100.817467 
L 35.173363 101.359747 
L 36.1647 103.849736 
L 38.432504 105.056575 
L 38.803859 104.740813 
L 39.244585 108.939908 
L 37.80089 110.885981 
L 38.004614 112.142061 
L 37.570299 112.272758 
L 38.073433 116.597142 
L 32.512002 114.793501 
L 25.933904 111.207636 
L 16.399575 102.437168 
L 12.870546 101.19126 
L 13.095052 100.307879 
L 8.487041 97.949832 
z
" clip-path="url(#pf5baf86d09)" style="fill: #eeeeee; stroke: #000000; stroke-width: 0.3"/>
    <path d="M 29.707369 99.604068 
L 31.779077 97.519501 
L 32.284368 95.626154 
L 30.74162 91.145972 
L 31.289818 90.709773 
L 32.731914 91.254713 
L 33.972692 87.403596 
L 34.798803 87.515616 
L 34.483198 86.174602 
L 32.444774 85.682793 
L 32.534608 84.090439 
L 34.73745 83.689941 
L 37.128371 84.659384 
L 36.861687 82.67433 
L 34.749882 81.181481 
L 35.037814 79.722691 
L 36.473895 79.08829 
L 35.055461 78.235178 
L 35.553535 76.440312 
L 34.089392 76.605686 
L 33.285731 75.479897 
L 33.159812 72.216188 
L 34.589064 70.468307 
L 35.835856 70.073962 
L 37.11313 68.283408 
L 38.377568 68.112706 
L 39.449108 69.752045 
L 42.146812 70.635936 
L 42.569897 69.016083 
L 44.838508 68.887856 
L 44.836498 66.560152 
L 46.568536 67.369359 
L 46.715711 66.306557 
L 48.043109 65.98587 
L 48.44293 66.755065 
L 48.001801 67.672401 
L 48.628208 68.417797 
L 48.167026 69.754102 
L 49.905878 70.246927 
L 50.975819 68.768444 
L 53.179856 68.150044 
L 54.666062 69.36796 
L 56.736962 69.338413 
L 57.24587 70.87989 
L 58.074387 71.434471 
L 58.053131 72.540566 
L 59.353865 73.005083 
L 59.369502 73.704113 
L 60.264797 74.279212 
L 61.592792 73.779002 
L 61.656761 74.494032 
L 62.669757 75.066265 
L 64.38414 73.197534 
L 67.451196 72.263792 
L 70.849092 72.538105 
L 70.968997 73.01616 
L 71.643929 72.424648 
L 74.78176 76.430879 
L 75.722367 75.814535 
L 75.940122 77.679153 
L 75.057865 79.258793 
L 76.263752 80.301895 
L 77.141601 85.974352 
L 76.331926 86.32704 
L 76.332733 87.318447 
L 74.935352 88.086411 
L 73.764356 90.993733 
L 73.521535 93.869864 
L 71.564921 96.772667 
L 71.27338 98.61698 
L 73.079599 105.86599 
L 73.583695 105.822077 
L 73.730668 106.628005 
L 74.974449 106.73326 
L 75.121631 110.179566 
L 72.230688 110.328137 
L 71.719142 109.721982 
L 72.17701 108.529388 
L 71.276756 108.751363 
L 70.888041 110.505851 
L 67.712037 109.564311 
L 66.888828 109.889357 
L 65.535122 109.34201 
L 67.654253 109.34201 
L 67.756558 109.216642 
L 67.42121 108.550392 
L 67.06408 108.472842 
L 67.537103 109.282558 
L 66.277181 108.691911 
L 65.634912 109.321333 
L 64.576449 109.016965 
L 63.679664 109.203715 
L 63.419475 108.977539 
L 62.029141 109.40178 
L 61.176249 109.076091 
L 60.217575 109.618586 
L 60.323993 108.967851 
L 59.275323 110.025064 
L 64.123641 109.233445 
L 65.58312 109.618586 
L 58.622942 110.436703 
L 57.71416 109.74266 
L 55.294734 109.630219 
L 54.69351 110.330718 
L 56.339299 110.153981 
L 56.017214 109.835074 
L 57.770996 110.436703 
L 51.183423 111.220238 
L 43.020796 114.142116 
L 38.724448 116.666885 
L 37.816527 116.418094 
L 37.80089 110.885981 
L 39.244585 108.939908 
L 38.803859 104.740813 
L 38.432504 105.056575 
L 36.1647 103.849736 
L 35.173363 101.359747 
L 31.313084 100.817467 
L 31.262952 99.934609 
z
" clip-path="url(#pf5baf86d09)" style="fill: #eeeeee; stroke: #000000; stroke-width: 0.3"/>
    <path d="M 71.165915 110.52039 
L 71.493689 110.16012 
L 72.382263 110.732995 
z
" clip-path="url(#pf5baf86d09)" style="fill: #eeeeee; stroke: #000000; stroke-width: 0.3"/>
    <path d="M 1.417753 33.838152 
L 2.921202 34.160069 
L 4.861364 32.845315 
L 4.66526 30.629019 
L 5.585621 27.753714 
L 6.456246 27.753714 
L 7.158448 26.941425 
L 11.886147 31.233872 
L 13.359121 28.612162 
L 18.463383 29.15464 
L 23.458977 28.552861 
L 23.243224 27.379269 
L 23.982311 26.509537 
L 24.038457 28.115231 
L 53.824709 28.126721 
L 55.048243 21.632955 
L 52.952478 19.918933 
L 45.426812 -47.309673 
L 59.174205 -47.317065 
L 105.48897 -16.401009 
L 105.551526 -13.519129 
L 108.695581 -12.39724 
L 110.390314 -10.068916 
L 112.66494 -9.346087 
L 113.67071 -9.827637 
L 115.21948 -8.101712 
L 121.415342 -6.227447 
L 121.896569 -2.795497 
L 120.680655 -0.788073 
L 122.083453 0.321921 
L 129.407001 -0.841419 
L 129.06051 20.806516 
L 128.102861 21.74129 
L 126.633495 26.374942 
L 123.958654 28.11277 
L 123.807862 29.240202 
L 120.132853 28.664682 
L 119.873798 29.358169 
L 106.924648 29.798887 
L 104.147937 32.12043 
L 101.791502 32.529552 
L 98.308585 32.083299 
L 98.286933 32.757912 
L 94.754691 31.529942 
L 93.287731 32.030358 
L 92.960493 31.416477 
L 91.006292 31.427967 
L 88.221564 33.668062 
L 83.422881 36.052185 
L 81.093717 36.254078 
L 80.792142 38.55264 
L 79.892245 38.751865 
L 77.488085 37.761085 
L 76.434991 38.226419 
L 74.340429 39.987426 
L 74.123473 42.757898 
L 72.786654 43.114285 
L 71.083694 42.391656 
L 71.381055 45.607562 
L 69.829686 45.821962 
L 69.822461 46.591982 
L 65.770493 44.86134 
L 66.186758 44.350664 
L 65.695699 43.970272 
L 62.825755 46.992893 
L 63.905917 49.368195 
L 63.550811 50.148474 
L 61.784488 50.198127 
L 62.545033 51.633112 
L 62.045352 52.416472 
L 62.398455 53.43167 
L 61.761828 53.326622 
L 61.200794 54.686106 
L 59.642402 55.820717 
L 57.096685 56.037793 
L 54.589871 57.234778 
L 55.561558 57.787516 
L 56.095725 60.461349 
L 55.209456 62.848553 
L 53.876843 63.236743 
L 54.441889 65.047197 
L 54.052095 67.503748 
L 53.734479 68.375941 
L 50.975819 68.768444 
L 49.905878 70.246927 
L 48.167026 69.754102 
L 48.628208 68.417797 
L 48.001801 67.672401 
L 48.44293 66.755065 
L 48.043109 65.98587 
L 46.715711 66.306557 
L 46.568536 67.369359 
L 44.836498 66.560152 
L 44.838508 68.887856 
L 42.569897 69.016083 
L 42.146812 70.635936 
L 39.449108 69.752045 
L 38.377568 68.112706 
L 37.11313 68.283408 
L 35.835856 70.073962 
L 34.589064 70.468307 
L 34.537737 69.14801 
L 32.732714 68.392355 
L 32.215394 67.486922 
L 31.974373 63.624521 
L 30.584016 63.394724 
L 30.166548 64.039384 
L 29.105834 64.109755 
L 31.596204 60.894468 
L 29.412212 59.871885 
L 28.870828 58.656636 
L 27.934031 58.589338 
L 28.146974 55.772707 
L 27.352944 55.512958 
L 26.935477 52.945404 
L 25.605269 52.176829 
L 23.658689 52.115273 
L 24.349251 53.032403 
L 24.134701 53.730408 
L 21.873718 54.521964 
L 21.137829 55.671352 
L 16.916623 54.143628 
L 15.017762 54.935596 
L 13.467797 56.743596 
L 11.599418 54.130494 
L 10.821824 54.265089 
L 9.744262 55.758756 
L 8.630615 55.665198 
L 7.287176 54.351675 
L 8.211945 52.82025 
L 8.29616 52.059878 
L 7.597566 51.557199 
L 8.210338 48.166286 
L 7.091072 47.044595 
L 6.469881 45.067339 
L 5.475735 44.694125 
L 4.801214 45.492453 
L 2.709857 42.338929 
L 3.755337 41.345886 
L 3.486248 38.672259 
L 1.746791 36.884985 
L 2.186919 34.894801 
z
" clip-path="url(#pf5baf86d09)" style="fill: #eeeeee; stroke: #000000; stroke-width: 0.3"/>
    <path d="M -39.494062 33.977488 
L -36.676454 32.838534 
L -34.389343 30.200021 
L -31.720143 25.822545 
L -31.190127 22.728171 
L -29.863932 20.055577 
L -28.600293 19.705137 
L -25.029955 20.287836 
L -23.414222 19.492985 
L -20.784289 19.483138 
L -20.648336 18.826583 
L -19.614092 18.62018 
L -15.208812 18.863103 
L -11.881295 21.426552 
L -10.778675 23.152881 
L -9.953363 22.605479 
L -9.484157 23.270658 
L -8.0561 22.879593 
L -6.744548 24.662556 
L -6.138598 27.100438 
L -5.14425 27.315052 
L -4.943513 28.138212 
L -4.015959 28.00792 
L -2.95845 29.796839 
L -3.426453 30.058843 
L -0.295435 31.91382 
L 2.186919 34.894801 
L 1.746791 36.884985 
L 3.486248 38.672259 
L 3.755337 41.345886 
L 2.709857 42.338929 
L 4.801214 45.492453 
L 5.475735 44.694125 
L 6.469881 45.067339 
L 7.091072 47.044595 
L 8.174648 48.08483 
L 7.597566 51.557199 
L 8.213543 52.665962 
L 2.660532 52.638471 
L 0.666629 53.44644 
L -3.618746 51.614237 
L -4.6963 52.123071 
L -5.004494 50.805442 
L -21.327676 50.477982 
L -25.067655 52.384868 
L -29.299686 52.259715 
L -33.226782 53.232644 
L -33.788118 51.946874 
L -32.072858 50.848298 
L -31.712569 51.384019 
L -30.452647 51.503892 
L -27.804928 50.847012 
L -26.332179 51.44961 
L -25.475499 51.176258 
L -24.81712 51.606963 
L -23.770025 50.824389 
L -23.964538 49.655387 
L -22.970501 49.522912 
L -22.852404 49.217249 
L -24.077591 49.565561 
L -24.023276 50.716474 
L -24.788065 51.430544 
L -25.77106 50.907107 
L -26.90119 51.099035 
L -27.745561 50.084472 
L -28.169951 50.799193 
L -30.452647 51.390475 
L -31.46437 50.251838 
L -31.51742 50.907107 
L -32.499149 50.557826 
L -32.158113 49.82211 
L -32.206111 49.541969 
L -32.596402 50.852824 
L -33.430033 51.329411 
L -33.604338 50.489004 
L -32.998061 50.025663 
L -33.752747 50.193037 
L -33.805168 49.409177 
L -33.071342 46.688208 
L -26.280355 46.686977 
L -26.166868 45.284001 
L -21.963706 44.91263 
L -20.881736 43.247642 
L -14.915463 46.060787 
L -11.281561 45.434597 
L -10.646338 44.52301 
L -11.963904 43.333616 
L -14.890002 44.320704 
L -16.263915 42.843864 
L -17.803054 43.045344 
L -18.876604 41.734076 
L -20.405717 41.42939 
L -22.871634 41.806091 
L -23.834894 43.302219 
L -31.93051 43.271933 
L -31.523108 42.054572 
L -32.221267 42.737617 
L -32.460937 41.893661 
L -31.892873 41.217389 
L -31.353537 41.543086 
L -31.353537 39.970838 
L -33.00659 41.825807 
L -33.369409 40.377959 
L -32.046962 40.079404 
L -32.158113 39.645467 
L -30.404331 38.65934 
L -31.211437 38.452547 
L -32.650398 39.969869 
L -33.169526 39.862272 
L -32.63556 39.201517 
L -33.222576 39.4781 
L -33.588546 41.271672 
L -33.67349 39.517518 
L -34.996876 36.89387 
L -37.073372 34.509326 
L -38.573275 34.133873 
L -38.747269 34.800449 
z
" clip-path="url(#pf5baf86d09)" style="fill: #eeeeee; stroke: #000000; stroke-width: 0.3"/>
    <path d="M 117.320056 88.446697 
L 118.081206 79.24238 
L 120.462505 78.939743 
L 120.901228 76.064232 
L 122.445977 74.517831 
L 122.401868 73.329056 
L 123.854386 72.972669 
L 124.447105 72.161 
L 125.052652 70.5908 
L 124.31476 69.485936 
L 124.933143 68.294081 
L 125.867534 68.517715 
L 126.371226 66.991015 
L 125.53789 65.340798 
L 125.476133 62.921798 
L 123.507894 60.482892 
L 125.04864 57.781362 
L 124.559389 56.622953 
L 124.851333 51.759909 
L 127.082648 49.914572 
L 128.321819 47.962345 
L 128.608959 44.176675 
L 131.565322 42.41628 
L 134.282682 41.785572 
L 137.159642 42.045734 
L 139.442291 40.942306 
L 144.258621 42.843864 
L 146.016718 42.959378 
L 150.42601 47.968912 
L 151.447023 47.963575 
L 152.451994 47.000278 
L 153.955839 47.038854 
L 157.308422 45.190642 
L 159.490008 45.552986 
L 163.94622 48.539294 
L 171.015516 49.509563 
L 175.124437 45.946504 
L 179.433062 44.953874 
L 185.369861 45.038609 
L 190.162933 47.005201 
L 193.383978 47.422939 
L 194.069736 46.004773 
L 195.964182 44.9707 
L 196.252122 44.04844 
L 199.246185 43.580644 
L 200.036211 42.299122 
L 202.188921 42.341391 
L 205.740005 47.313174 
L 206.702473 52.931865 
L 209.016397 53.190796 
L 210.435227 54.543713 
L 209.441485 58.17735 
L 210.058261 58.812981 
L 209.937153 59.726617 
L 206.520408 61.92137 
L 205.099172 61.620171 
L 203.33385 63.681146 
L 201.657159 66.820107 
L 200.851093 70.53643 
L 199.262225 71.394672 
L 198.99274 75.389826 
L 196.353984 76.692883 
L 196.687632 77.61145 
L 195.713942 81.608653 
L 194.045671 82.826569 
L 192.577912 82.795585 
L 192.849811 83.69322 
L 191.477496 84.568495 
L 191.206404 87.948536 
L 189.862965 89.868556 
L 189.879006 91.001118 
L 187.671756 93.486184 
L 188.72405 94.946618 
L 186.314682 96.560928 
L 186.094917 98.394982 
L 184.825272 99.898494 
L 182.836173 100.071253 
L 182.240248 97.637063 
L 178.685548 94.537909 
L 178.043907 96.572005 
L 175.831039 96.536304 
L 175.304096 95.51577 
L 173.221967 97.262618 
L 172.553856 97.206612 
L 171.812759 99.298565 
L 169.080964 101.024283 
L 166.300241 104.345237 
L 165.316121 104.728504 
L 165.032202 105.87235 
L 165.689083 106.732847 
L 164.874193 110.190644 
L 162.785661 113.769894 
L 160.083938 111.526226 
L 161.417746 114.246481 
L 160.913782 115.042943 
L 155.247625 115.227438 
L 155.141526 113.753092 
L 154.809337 114.851342 
L 153.094706 114.625483 
L 153.50016 115.195453 
L 153.094706 115.389961 
L 151.471025 113.378932 
L 152.346337 115.27752 
L 151.25504 115.932138 
L 151.25504 114.295912 
L 150.624132 113.595413 
L 150.830642 114.571852 
L 150.142269 113.970223 
L 151.097784 116.237475 
L 150.677182 116.424558 
L 149.894707 116.223904 
L 149.248014 112.911073 
L 148.706785 112.772777 
L 149.911127 116.534092 
L 148.706785 116.582555 
L 148.865934 114.571852 
L 148.547636 116.040703 
L 148.229338 115.335678 
L 148.490163 116.726337 
L 147.907889 116.725051 
L 147.777787 115.570906 
L 147.42539 115.389961 
L 147.573807 116.739591 
L 145.252899 117.075301 
L 145.734133 115.932138 
L 145.194797 116.257183 
L 144.987658 115.444244 
L 144.881559 117.016492 
L 144.028985 117.237823 
L 143.842046 116.134404 
L 143.633006 117.054623 
L 143.065252 116.094986 
L 142.854318 116.750247 
L 142.299197 116.470114 
L 139.082778 112.669381 
L 138.388716 110.461256 
L 139.24129 110.328137 
L 138.230204 110.16012 
L 138.033161 108.727128 
L 139.877879 108.425023 
L 139.536851 107.675411 
L 140.158283 107.448592 
L 140.359113 107.168777 
L 138.680489 107.992055 
L 138.760064 108.317109 
L 136.929866 107.476377 
L 137.122485 106.84308 
L 139.348018 106.768119 
L 138.865527 106.247271 
L 137.923274 106.650835 
L 138.012953 105.704769 
L 137.568348 106.554871 
L 136.395582 106.470541 
L 136.190329 105.159686 
L 137.646657 104.231391 
L 135.740043 105.363889 
L 133.436192 102.414879 
L 130.779945 100.667824 
L 123.315166 100.259091 
L 122.859828 99.987685 
L 126.422336 98.667134 
L 123.871552 99.33209 
L 123.606939 98.735631 
L 122.994975 99.133056 
L 122.74236 99.944058 
L 122.85667 100.359581 
L 117.574277 100.592554 
L 118.260865 91.784057 
z
" clip-path="url(#pf5baf86d09)" style="fill: #eeeeee; stroke: #000000; stroke-width: 0.3"/>
    <path d="M 151.985093 116.246201 
L 152.694947 115.168311 
L 153.041664 115.493032 
L 153.494472 115.493032 
L 153.229223 116.105651 
z
" clip-path="url(#pf5baf86d09)" style="fill: #eeeeee; stroke: #000000; stroke-width: 0.3"/>
    <path d="M 153.528578 115.745062 
L 155.449712 115.550872 
L 154.264949 115.946352 
z
" clip-path="url(#pf5baf86d09)" style="fill: #eeeeee; stroke: #000000; stroke-width: 0.3"/>
    <path d="M 102.557463 68.83964 
L 102.654514 66.251361 
L 103.587299 63.871549 
L 104.066927 64.019278 
L 104.207288 63.177649 
L 105.237923 63.594156 
L 104.835293 62.685848 
L 105.581201 62.496263 
L 105.403948 61.748405 
L 106.915825 61.520252 
L 107.763595 60.051822 
L 109.020413 60.727458 
L 111.983194 60.526391 
L 114.23536 58.636117 
L 115.06789 56.286877 
L 115.656597 56.039436 
L 114.9155 54.135004 
L 115.954159 53.624122 
L 118.664294 52.702894 
L 124.500837 58.288965 
L 123.507894 60.482892 
L 125.476133 62.921798 
L 125.53789 65.340798 
L 126.371226 66.991015 
L 125.867534 68.517715 
L 124.933143 68.294081 
L 124.31476 69.485936 
L 125.052652 70.5908 
L 124.447105 72.161 
L 123.854386 72.972669 
L 122.401868 73.329056 
L 122.445977 74.517831 
L 120.901228 76.064232 
L 120.462505 78.939743 
L 118.081206 79.24238 
L 117.320056 88.446697 
L 118.260865 91.784057 
L 117.574277 100.592554 
L 109.16051 101.819062 
L 110.423203 101.315835 
L 108.744502 98.132564 
L 108.479828 95.640923 
L 109.20729 95.602355 
L 109.0172 79.302086 
L 106.884543 75.550681 
L 106.920636 71.782656 
z
" clip-path="url(#pf5baf86d09)" style="fill: #eeeeee; stroke: #000000; stroke-width: 0.3"/>
    <path d="M 29.213307 -65.504114 
L 29.241376 -76.679947 
L 37.462019 -82.211449 
L 39.556092 -82.16394 
L 41.128927 -83.162875 
L 43.949181 -82.663411 
L 46.823673 -83.606849 
L 51.921835 -83.995325 
L 52.193012 -83.27387 
L 53.603136 -83.27387 
L 56.423398 -86.881136 
L 62.660499 -91.09886 
L 68.301015 -92.708255 
L 68.192541 -93.70719 
L 69.006081 -94.650636 
L 67.634464 -96.400883 
L 66.769846 -96.352055 
L 66.984396 -97.677886 
L 68.084075 -98.091408 
L 68.192541 -100.144776 
L 74.64659 -101.310197 
L 73.786007 -103.327562 
L 74.232553 -103.547099 
L 77.065402 -103.991097 
L 87.198946 -103.653378 
L 87.31324 -104.101068 
L 86.428973 -104.270952 
L 86.936677 -105.775497 
L 88.582893 -106.867228 
L 85.545916 -108.836488 
L 84.494825 -110.355191 
L 84.954803 -111.36013 
L 83.598932 -112.771729 
L 84.040465 -115.284707 
L 83.035889 -116.459529 
L 83.634622 -119.451793 
L 82.548245 -121.780316 
L 83.375962 -122.631784 
L 82.071023 -123.56061 
L 82.859434 -124.709586 
L 79.56701 -126.792105 
L 79.343706 -127.472625 
L 82.924528 -127.792827 
L 86.543236 -129.658452 
L 88.575529 -132.183873 
L 90.370356 -132.908933 
L 91.73006 -132.504401 
L 92.870613 -133.831082 
L 95.946834 -133.071456 
L 99.247888 -136.3397 
L 107.042326 -139.031844 
L 114.840558 -139.773055 
L 116.774326 -139.439608 
L 119.353529 -141.124948 
L 120.96016 -140.593435 
L 121.636543 -141.15467 
L 123.601251 -140.876149 
L 126.654106 -141.987644 
L 133.741228 -141.814465 
L 137.755286 -139.810218 
L 141.087281 -141.313643 
L 144.682623 -141.869391 
L 146.380197 -143.383155 
L 150.514874 -141.771807 
L 152.721472 -142.381838 
L 152.641898 -143.357951 
L 157.111294 -142.594125 
L 156.916145 -141.771164 
L 157.963868 -141.450319 
L 160.483704 -142.312047 
L 163.349947 -142.164635 
L 163.654268 -141.345517 
L 161.880131 -140.929018 
L 162.014074 -139.965927 
L 159.992894 -138.879739 
L 161.450231 -138.121821 
L 160.547921 -133.336343 
L 161.289817 -131.035104 
L 160.958567 -129.344881 
L 162.021291 -128.68299 
L 161.00589 -127.300938 
L 160.509422 -123.965627 
L 157.366974 -122.11331 
L 156.852859 -120.765935 
L 154.929537 -119.57736 
L 154.637585 -117.980281 
L 156.540055 -112.719614 
L 159.348049 -111.630758 
L 160.869541 -109.58271 
L 161.2449 -107.131082 
L 166.783881 -103.511811 
L 170.467714 -88.877553 
L 168.658282 -87.989971 
L 171.616252 -83.949682 
L 172.8458 -80.139801 
L 172.464022 -73.303194 
L 173.684747 -69.807845 
L 172.032516 -65.555404 
L 173.4706 -62.106016 
L 173.390397 -60.480629 
L 172.920392 -59.300875 
L 170.179774 -58.096505 
L 169.366491 -56.638532 
L 174.256614 -49.988016 
L 174.44349 -46.21548 
L 175.695497 -45.370571 
L 176.074869 -44.141172 
L 177.380608 -43.173777 
L 179.619939 -43.831563 
L 186.156674 -41.777972 
L 189.473971 -35.582944 
L 154.660043 -14.581519 
L 141.557301 -3.283605 
L 122.457206 0.482165 
L 120.680655 -0.788073 
L 121.896569 -2.795497 
L 121.415342 -6.227447 
L 115.21948 -8.101712 
L 113.67071 -9.827637 
L 112.66494 -9.346087 
L 110.390314 -10.068916 
L 108.695581 -12.39724 
L 105.551526 -13.519129 
L 105.48897 -16.401009 
L 59.174205 -47.317065 
z
" clip-path="url(#pf5baf86d09)" style="fill: #eeeeee; stroke: #000000; stroke-width: 0.3"/>
    <path d="M 162.634094 115.213867 
L 163.34789 112.400579 
L 164.874193 110.190644 
L 165.689083 106.732847 
L 165.032202 105.87235 
L 165.233513 104.859193 
L 169.080964 101.024283 
L 171.812759 99.298565 
L 172.553856 97.206612 
L 173.221967 97.262618 
L 175.304096 95.51577 
L 175.831039 96.536304 
L 178.043907 96.572005 
L 178.685548 94.537909 
L 182.240248 97.637063 
L 182.708647 99.951221 
L 183.938195 100.103262 
L 186.094917 98.394982 
L 186.314682 96.560928 
L 188.72405 94.946618 
L 187.671756 93.486184 
L 189.879006 91.001118 
L 189.862965 89.868556 
L 191.206404 87.948536 
L 191.477496 84.568495 
L 192.849811 83.69322 
L 192.577912 82.795585 
L 194.045671 82.826569 
L 195.881574 81.373933 
L 196.687632 77.61145 
L 196.353984 76.692883 
L 198.99274 75.389826 
L 199.262225 71.394672 
L 200.851093 70.53643 
L 201.657159 66.820107 
L 203.33385 63.681146 
L 205.099172 61.620171 
L 206.520408 61.92137 
L 210.018163 59.536421 
L 209.441485 58.17735 
L 210.4224 54.459184 
L 209.016397 53.190796 
L 206.702473 52.931865 
L 205.740005 47.313174 
L 208.48143 47.288137 
L 209.541741 49.783471 
L 211.593396 50.800519 
L 212.205361 54.659847 
L 213.380369 55.201507 
L 214.049279 59.598795 
L 213.161411 62.364336 
L 214.069332 67.612282 
L 218.28332 71.823892 
L 211.231671 72.376019 
L 206.646327 71.927915 
L 204.816843 74.512908 
L 207.948861 78.35849 
L 213.399615 82.523932 
L 216.416943 88.911214 
L 217.364969 89.284222 
L 216.355186 92.482063 
L 214.734238 93.611345 
L 211.229257 100.98982 
L 208.241612 103.207546 
L 210.027786 104.589804 
L 210.027786 107.525228 
L 209.270649 109.150822 
L 210.349406 110.151663 
L 210.802571 114.459705 
L 212.949662 116.117101 
L 213.704394 118.431878 
L 214.469556 118.897832 
L 213.198304 119.191845 
L 213.655473 120.305532 
L 221.47389 128.425297 
L 221.457849 131.226746 
L 222.368975 133.509101 
L 221.566929 133.743416 
L 221.251719 135.154396 
L 221.966346 137.511235 
L 221.299042 138.023554 
L 220.864323 137.096371 
L 218.481426 135.820599 
L 216.744181 135.472207 
L 215.614889 135.904103 
L 214.64681 134.965843 
L 212.16205 135.229697 
L 211.886946 134.359759 
L 211.171513 134.76067 
L 209.598686 133.62236 
L 208.59612 134.231318 
L 199.761906 134.001521 
L 199.684908 133.356861 
L 198.747311 133.031871 
L 195.535082 133.400774 
L 187.055779 132.719594 
L 184.684103 132.893584 
L 184.454715 133.964184 
L 174.125076 133.965415 
L 172.727097 133.177131 
L 173.85147 126.938849 
L 173.647481 125.183393 
L 171.417517 123.059273 
L 172.794907 122.35393 
L 171.294368 122.575262 
L 170.671042 120.831113 
L 171.279212 121.38266 
L 171.254581 120.392983 
L 172.211997 120.831113 
L 171.682765 120.121569 
L 172.366723 119.736746 
L 171.237532 119.713805 
L 172.290307 118.321526 
L 170.930602 119.295702 
L 170.148127 118.514422 
L 170.566836 119.482786 
L 169.833624 119.157089 
L 170.135501 120.067287 
L 169.100404 120.067287 
L 168.965886 119.145456 
L 168.069738 119.682789 
L 166.211121 118.598761 
L 165.935769 115.005463 
L 165.247396 114.319178 
L 165.409067 115.074611 
L 164.871633 114.625483 
L 164.792687 115.099489 
L 163.758226 113.536611 
L 164.282406 115.324371 
z
" clip-path="url(#pf5baf86d09)" style="fill: #eeeeee; stroke: #000000; stroke-width: 0.3"/>
    <path d="M 97.778429 35.650456 
L 98.308585 32.083299 
L 103.958654 32.213376 
L 106.924648 29.798887 
L 119.873798 29.358169 
L 120.132853 28.664682 
L 123.807862 29.240202 
L 123.958654 28.11277 
L 126.438602 26.609249 
L 128.102861 21.74129 
L 129.06051 20.806516 
L 129.407001 -0.841419 
L 141.557301 -3.283605 
L 154.660043 -14.581519 
L 189.473971 -35.582944 
L 201.218436 -32.901528 
L 206.914214 -28.427905 
L 212.840723 -31.44037 
L 214.3316 -23.481564 
L 214.428651 -19.493803 
L 217.725088 -15.201555 
L 217.220596 -14.722268 
L 217.421915 -13.623359 
L 220.526663 -10.323336 
L 218.708408 -6.88667 
L 216.659159 16.83065 
L 208.099653 26.098366 
L 203.947421 31.895358 
L 202.58112 35.634455 
L 200.964184 36.505418 
L 202.188921 42.341391 
L 200.036211 42.299122 
L 199.246185 43.580644 
L 196.252122 44.04844 
L 195.964182 44.9707 
L 194.069736 46.004773 
L 193.383978 47.422939 
L 190.162933 47.005201 
L 185.369861 45.038609 
L 179.433062 44.953874 
L 175.124437 45.946504 
L 171.015516 49.509563 
L 163.94622 48.539294 
L 159.490008 45.552986 
L 157.308422 45.190642 
L 153.955839 47.038854 
L 152.451994 47.000278 
L 151.447023 47.963575 
L 150.42601 47.968912 
L 145.498591 42.661053 
L 144.258621 42.843864 
L 139.442291 40.942306 
L 137.159642 42.045734 
L 134.034041 41.812245 
L 131.145045 42.582265 
L 128.608959 44.176675 
L 128.321819 47.962345 
L 127.082648 49.914572 
L 124.851333 51.759909 
L 124.559389 56.622953 
L 125.04864 57.781362 
L 124.500837 58.288965 
L 118.664294 52.702894 
L 114.983674 53.997129 
L 115.661408 55.903197 
L 115.140076 56.694761 
L 112.514156 53.157969 
L 114.01319 52.505107 
L 112.95849 50.269935 
L 111.892561 50.122214 
L 110.899618 51.060268 
L 108.727662 50.853452 
L 104.224128 47.67551 
L 104.224128 45.007013 
L 106.436996 45.184488 
L 104.470363 44.234738 
L 103.552013 43.049449 
L 101.203602 42.462241 
L 99.456323 39.68151 
L 99.608713 37.993748 
z
" clip-path="url(#pf5baf86d09)" style="fill: #eeeeee; stroke: #000000; stroke-width: 0.3"/>
    <path d="M 53.734479 68.375941 
L 54.441889 65.047197 
L 53.876843 63.236743 
L 55.209456 62.848553 
L 56.095725 60.461349 
L 55.561558 57.787516 
L 54.589871 57.234778 
L 57.096685 56.037793 
L 59.642402 55.820717 
L 61.200794 54.686106 
L 61.761828 53.326622 
L 62.398455 53.43167 
L 62.045352 52.416472 
L 62.545033 51.633112 
L 61.784488 50.198127 
L 63.550811 50.148474 
L 63.905917 49.368195 
L 63.012228 46.594038 
L 63.728065 46.538025 
L 65.722969 43.962681 
L 66.186758 44.350664 
L 65.770493 44.86134 
L 69.822461 46.591982 
L 69.829686 45.821962 
L 71.381055 45.607562 
L 71.083694 42.391656 
L 72.786654 43.114285 
L 74.123473 42.757898 
L 74.340429 39.987426 
L 76.434991 38.226419 
L 77.488085 37.761085 
L 79.892245 38.751865 
L 80.792142 38.55264 
L 81.093717 36.254078 
L 83.422881 36.052185 
L 88.221564 33.668062 
L 91.006292 31.427967 
L 92.960493 31.416477 
L 93.287731 32.030358 
L 94.754691 31.529942 
L 98.286933 32.757912 
L 97.824145 36.052185 
L 99.608713 37.993748 
L 99.456323 39.68151 
L 101.203602 42.462241 
L 103.552013 43.049449 
L 104.470363 44.234738 
L 106.436996 45.184488 
L 104.224128 45.007013 
L 104.224128 47.67551 
L 108.727662 50.853452 
L 110.899618 51.060268 
L 111.892561 50.122214 
L 112.95849 50.269935 
L 114.01319 52.505107 
L 112.514156 53.157969 
L 115.140076 56.694761 
L 114.342833 58.531069 
L 112.195742 60.424003 
L 109.020413 60.727458 
L 107.763595 60.051822 
L 106.915825 61.520252 
L 105.565161 61.546512 
L 105.581201 62.496263 
L 104.835293 62.685848 
L 105.263594 63.558248 
L 104.207288 63.177649 
L 104.066927 64.019278 
L 100.375877 64.344062 
L 100.36786 63.788457 
L 94.250401 62.520069 
L 91.665579 64.544724 
L 90.167749 63.767525 
L 74.572828 63.829693 
L 73.834331 66.717727 
L 75.114414 68.409999 
L 74.542144 69.028804 
L 75.212264 69.683723 
L 75.37548 73.161833 
L 74.899057 73.97802 
L 75.722367 75.814535 
L 75.144486 76.583523 
L 71.643929 72.424648 
L 70.968997 73.01616 
L 70.849092 72.538105 
L 67.451196 72.263792 
L 64.38414 73.197534 
L 62.669757 75.066265 
L 61.656761 74.494032 
L 61.592792 73.779002 
L 60.264797 74.279212 
L 59.369502 73.704113 
L 59.353865 73.005083 
L 58.053131 72.540566 
L 58.074387 71.434471 
L 57.24587 70.87989 
L 56.864891 69.423768 
L 54.666062 69.36796 
z
" clip-path="url(#pf5baf86d09)" style="fill: #eeeeee; stroke: #000000; stroke-width: 0.3"/>
    <path d="M 95.302493 62.742068 
L 100.36786 63.788457 
L 100.375877 64.344062 
L 103.587299 63.871549 
L 102.494907 68.720021 
L 107.020092 72.052871 
L 106.884543 75.550681 
L 108.975496 79.085424 
L 109.350856 83.717431 
L 109.20729 95.602355 
L 108.479828 95.640923 
L 108.744502 98.132564 
L 110.423203 101.315835 
L 109.16051 101.819062 
L 105.790622 102.719564 
L 104.224128 100.93996 
L 102.378603 100.01647 
L 100.621305 96.908899 
L 100.429617 95.790289 
L 101.232471 95.329059 
L 101.60222 93.00731 
L 100.437641 91.572318 
L 101.343156 90.022844 
L 101.044795 86.016613 
L 102.122752 85.269986 
L 99.430861 81.487803 
L 100.515439 80.756772 
L 99.938357 79.476274 
L 100.715151 76.510278 
L 99.786169 75.786632 
L 98.351701 76.262226 
L 98.934588 75.665782 
L 98.377962 75.12351 
L 99.522899 75.014968 
L 98.616779 74.477 
L 99.285083 74.429403 
L 99.669275 69.505629 
L 95.907644 66.724294 
L 96.717312 63.316961 
z
" clip-path="url(#pf5baf86d09)" style="fill: #eeeeee; stroke: #000000; stroke-width: 0.3"/>
    <path d="M 71.27338 98.61698 
L 71.434989 97.078377 
L 73.521535 93.869864 
L 73.764356 90.993733 
L 74.935352 88.086411 
L 76.332733 87.318447 
L 76.331926 86.32704 
L 77.141601 85.974352 
L 76.263752 80.301895 
L 75.057865 79.258793 
L 75.950552 77.52835 
L 74.899057 73.97802 
L 75.37548 73.161833 
L 75.212264 69.683723 
L 74.542144 69.028804 
L 75.114414 68.409999 
L 73.834331 66.717727 
L 74.572828 63.829693 
L 90.167749 63.767525 
L 91.665579 64.544724 
L 94.250401 62.520069 
L 96.717312 63.316961 
L 95.907644 66.724294 
L 99.669275 69.505629 
L 99.285083 74.429403 
L 98.616779 74.477 
L 99.522899 75.014968 
L 98.377962 75.12351 
L 98.934588 75.665782 
L 98.351701 76.262226 
L 99.786169 75.786632 
L 100.715151 76.510278 
L 99.938357 79.476274 
L 100.515439 80.756772 
L 99.430861 81.487803 
L 102.122752 85.269986 
L 101.044795 86.016613 
L 101.343156 90.022844 
L 100.437641 91.572318 
L 101.60222 93.00731 
L 101.232471 95.329059 
L 100.429617 95.790289 
L 100.596441 96.832985 
L 102.378603 100.01647 
L 104.224128 100.93996 
L 105.790622 102.719564 
L 104.001476 105.176488 
L 98.479933 105.453715 
L 90.386776 109.752355 
L 84.03161 111.280016 
L 81.214949 113.424171 
L 80.321322 113.534992 
L 78.303564 112.096513 
L 72.382263 110.732995 
L 75.121631 110.179566 
L 74.943571 108.703957 
L 75.404752 108.495084 
L 74.913499 106.629236 
L 73.730668 106.628005 
L 73.583695 105.822077 
L 73.079599 105.86599 
z
" clip-path="url(#pf5baf86d09)" style="fill: #eeeeee; stroke: #000000; stroke-width: 0.3"/>
    <path d="M -35.775564 -13.74247 
L -35.088503 -18.170838 
L -4.41117 -18.24101 
L -5.474693 -30.045503 
L -4.41117 -31.61775 
L -1.339511 -33.62538 
L 3.317414 -35.13546 
L 3.348696 -55.256481 
L 29.172402 -55.297106 
L 29.213307 -65.504114 
L 59.174205 -47.317065 
L 45.426812 -47.309673 
L 52.952478 19.918933 
L 55.048243 21.632955 
L 53.824709 28.126721 
L 24.038457 28.115231 
L 23.982311 26.509537 
L 23.243224 27.379269 
L 23.458977 28.552861 
L 18.463383 29.15464 
L 13.359121 28.612162 
L 11.886147 31.233872 
L 7.158448 26.941425 
L 6.456246 27.753714 
L 5.585621 27.753714 
L 4.66526 30.629019 
L 4.861364 32.845315 
L 2.921202 34.160069 
L 0.4992 33.273717 
L -0.295435 31.91382 
L -3.426453 30.058843 
L -2.95845 29.796839 
L -4.015959 28.00792 
L -4.943513 28.138212 
L -5.14425 27.315052 
L -6.138598 27.100438 
L -6.744548 24.662556 
L -8.0561 22.879593 
L -9.484157 23.270658 
L -9.953363 22.605479 
L -10.778675 23.152881 
L -11.881295 21.426552 
L -15.208812 18.863103 
L -19.614092 18.62018 
L -20.648336 18.826583 
L -20.784289 19.483138 
L -23.414222 19.492985 
L -25.029955 20.287836 
L -29.698707 19.955858 
L -31.133981 22.568547 
L -31.782668 25.628355 
L -31.681303 21.468328 
L -28.18669 11.843231 
L -27.847237 7.10581 
L -29.161466 0.425214 
L -31.7293 -2.735767 
L -30.361393 -3.013962 
L -29.784792 -3.91479 
L -30.611796 -3.396848 
L -30.403703 -3.993951 
L -31.183019 -2.987789 
L -29.388192 -6.014032 
L -29.498707 -6.881572 
L -30.005201 -6.776889 
L -29.300407 -7.680949 
L -29.600383 -8.730085 
L -29.14347 -9.505219 
L -31.19944 -12.810951 
L -30.745367 -13.012892 
L -31.681303 -13.520495 
L -31.782668 -12.106244 
L -32.794073 -13.032927 
L -34.694689 -16.857244 
z
" clip-path="url(#pf5baf86d09)" style="fill: #eeeeee; stroke: #000000; stroke-width: 0.3"/>
    <path d="M -30.660104 -4.475707 
L -30.356341 -5.091232 
L -29.914576 -5.449883 
z
" clip-path="url(#pf5baf86d09)" style="fill: #eeeeee; stroke: #000000; stroke-width: 0.3"/>
    <path d="M -31.174498 -5.148421 
L -30.258452 -6.607259 
L -30.930094 -4.486371 
z
" clip-path="url(#pf5baf86d09)" style="fill: #eeeeee; stroke: #000000; stroke-width: 0.3"/>
    <path d="M -31.254073 -12.370876 
L -31.038087 -12.475241 
L -31.098393 -12.187668 
z
" clip-path="url(#pf5baf86d09)" style="fill: #eeeeee; stroke: #000000; stroke-width: 0.3"/>
    <path d="M -31.429953 -5.314176 
L -31.233228 -5.267643 
L -31.331746 -5.093487 
z
" clip-path="url(#pf5baf86d09)" style="fill: #eeeeee; stroke: #000000; stroke-width: 0.3"/>
   </g>
   <g id="PatchCollection_2">
    <defs>
     <path id="m4868969d4f" d="M 53.734479 -39.624059 
L 54.441889 -42.952803 
L 53.876843 -44.763257 
L 55.209456 -45.151447 
L 56.095725 -47.538651 
L 55.561558 -50.212484 
L 54.589871 -50.765222 
L 57.096685 -51.962207 
L 59.642402 -52.179283 
L 61.200794 -53.313894 
L 61.761828 -54.673378 
L 62.398455 -54.56833 
L 62.045352 -55.583528 
L 62.545033 -56.366888 
L 61.784488 -57.801873 
L 63.550811 -57.851526 
L 63.905917 -58.631805 
L 63.012228 -61.405962 
L 63.728065 -61.461975 
L 65.722969 -64.037319 
L 66.186758 -63.649336 
L 65.770493 -63.13866 
L 69.822461 -61.408018 
L 69.829686 -62.178038 
L 71.381055 -62.392438 
L 71.083694 -65.608344 
L 72.786654 -64.885715 
L 74.123473 -65.242102 
L 74.340429 -68.012574 
L 76.434991 -69.773581 
L 77.488085 -70.238915 
L 79.892245 -69.248135 
L 80.792142 -69.44736 
L 81.093717 -71.745922 
L 83.422881 -71.947815 
L 88.221564 -74.331938 
L 91.006292 -76.572033 
L 92.960493 -76.583523 
L 93.287731 -75.969642 
L 94.754691 -76.470058 
L 98.286933 -75.242088 
L 97.824145 -71.947815 
L 99.608713 -70.006252 
L 99.456323 -68.31849 
L 101.203602 -65.537759 
L 103.552013 -64.950551 
L 104.470363 -63.765262 
L 106.436996 -62.815512 
L 104.224128 -62.992987 
L 104.224128 -60.32449 
L 108.727662 -57.146548 
L 110.899618 -56.939732 
L 111.892561 -57.877786 
L 112.95849 -57.730065 
L 114.01319 -55.494893 
L 112.514156 -54.842031 
L 115.140076 -51.305239 
L 114.342833 -49.468931 
L 112.195742 -47.575997 
L 109.020413 -47.272542 
L 107.763595 -47.948178 
L 106.915825 -46.479748 
L 105.565161 -46.453488 
L 105.581201 -45.503737 
L 104.835293 -45.314152 
L 105.263594 -44.441752 
L 104.207288 -44.822351 
L 104.066927 -43.980722 
L 100.375877 -43.655938 
L 100.36786 -44.211543 
L 94.250401 -45.479931 
L 91.665579 -43.455276 
L 90.167749 -44.232475 
L 74.572828 -44.170307 
L 73.834331 -41.282273 
L 75.114414 -39.590001 
L 74.542144 -38.971196 
L 75.212264 -38.316277 
L 75.37548 -34.838167 
L 74.899057 -34.02198 
L 75.722367 -32.185465 
L 75.144486 -31.416477 
L 71.643929 -35.575352 
L 70.968997 -34.98384 
L 70.849092 -35.461895 
L 67.451196 -35.736208 
L 64.38414 -34.802466 
L 62.669757 -32.933735 
L 61.656761 -33.505968 
L 61.592792 -34.220998 
L 60.264797 -33.720788 
L 59.369502 -34.295887 
L 59.353865 -34.994917 
L 58.053131 -35.459434 
L 58.074387 -36.565529 
L 57.24587 -37.12011 
L 56.864891 -38.576232 
L 54.666062 -38.63204 
z
" style="stroke: #dd0000; stroke-width: 0.5"/>
    </defs>
    <g clip-path="url(#pf5baf86d09)">
     <use xlink:href="#m4868969d4f" x="0" y="108" style="fill: #ff6b6b; stroke: #dd0000; stroke-width: 0.5"/>
    </g>
   </g>
  </g>
 </g>
 <defs>
  <clipPath id="pf5baf86d09">
   <rect x="0" y="0" width="168.874556" height="108"/>
  </clipPath>
 </defs>
</svg>
