<?xml version="1.0" encoding="utf-8" standalone="no"?>
<!DOCTYPE svg PUBLIC "-//W3C//DTD SVG 1.1//EN"
  "http://www.w3.org/Graphics/SVG/1.1/DTD/svg11.dtd">
<svg xmlns:xlink="http://www.w3.org/1999/xlink" width="172.498839pt" height="108pt" viewBox="0 0 172.498839 108" xmlns="http://www.w3.org/2000/svg" version="1.1">
 <metadata>
  <rdf:RDF xmlns:dc="http://purl.org/dc/elements/1.1/" xmlns:cc="http://creativecommons.org/ns#" xmlns:rdf="http://www.w3.org/1999/02/22-rdf-syntax-ns#">
   <cc:Work>
    <dc:type rdf:resource="http://purl.org/dc/dcmitype/StillImage"/>
    <dc:date>2025-09-05T15:49:27.648362</dc:date>
    <dc:format>image/svg+xml</dc:format>
    <dc:creator>
     <cc:Agent>
      <dc:title>Matplotlib v3.10.3, https://matplotlib.org/</dc:title>
     </cc:Agent>
    </dc:creator>
   </cc:Work>
  </rdf:RDF>
 </metadata>
 <defs>
  <style type="text/css">*{stroke-linejoin: round; stroke-linecap: butt}</style>
 </defs>
 <g id="figure_1">
  <g id="patch_1">
   <path d="M 0 108 
L 172.498839 108 
L 172.498839 0 
L 0 0 
z
" style="fill: #ffffff"/>
  </g>
  <g id="axes_1">
   <g id="PatchCollection_1">
    <path d="M 135.998296 10.342987 
L 138.389009 7.378449 
L 139.192364 4.171043 
L 142.167219 1.519102 
L 143.40255 -1.813588 
L 147.281346 -3.681457 
L 147.045364 -5.639089 
L 149.461867 -8.95983 
L 149.883538 -12.242152 
L 148.125961 -17.624512 
L 148.849366 -19.24695 
L 148.251039 -20.670439 
L 142.741042 -28.054687 
L 142.083401 -31.739706 
L 142.811971 -34.125232 
L 139.228471 -35.473806 
L 139.883529 -36.710007 
L 138.383856 -36.74489 
L 137.040203 -41.023782 
L 142.082116 -46.028953 
L 154.938115 -51.156009 
L 154.744965 -49.856841 
L 156.924861 -49.580427 
L 156.3178 -48.032479 
L 157.421492 -46.027153 
L 159.027989 -46.790966 
L 161.291654 -46.01863 
L 162.795207 -43.823304 
L 174.951232 -42.909723 
L 188.503786 -33.436735 
L 193.583091 -33.91371 
L 206.002173 -30.820626 
L 210.294892 -36.619257 
L 221.714623 -41.839188 
L 226.695925 -37.561584 
L 235.704307 -37.993352 
L 228.938354 -28.293656 
L 224.230414 -23.456738 
L 224.409653 22.599037 
L 231.185936 31.372554 
L 231.338325 32.916503 
L 228.189734 36.318771 
L 227.394726 35.743084 
L 224.823863 37.242313 
L 224.738573 35.48473 
L 223.980109 37.626788 
L 222.928208 36.255704 
L 224.403515 39.738324 
L 223.974021 40.578465 
L 222.953598 39.604067 
L 221.841785 40.202126 
L 222.377891 41.685095 
L 220.302523 43.452852 
L 218.310412 43.31757 
L 215.081609 45.07414 
L 214.214498 48.388933 
L 215.091765 48.983942 
L 213.719016 52.552002 
L 212.049786 53.875279 
L 211.762438 53.225339 
L 210.513556 56.915444 
L 209.452522 56.291951 
L 210.526756 57.895954 
L 209.520557 60.673704 
L 208.240198 60.673704 
L 209.007807 61.317545 
L 208.436167 62.314315 
L 207.949805 61.343979 
L 206.702957 62.206504 
L 208.016817 63.109698 
L 204.651956 69.570455 
L 203.45791 69.145298 
L 202.087195 70.176651 
L 184.374835 57.402456 
L 183.593401 55.799403 
L 182.230409 55.6276 
L 182.057621 54.372026 
L 183.490245 53.1397 
L 182.801662 49.78505 
L 136.131109 24.24601 
L 136.746205 13.644681 
z
" clip-path="url(#p8069e0440d)" style="fill: #eeeeee; stroke: #000000; stroke-width: 0.3"/>
    <path d="M 224.278624 38.209599 
L 225.335603 37.331814 
L 226.599706 38.112962 
L 224.583227 39.176873 
z
" clip-path="url(#p8069e0440d)" style="fill: #eeeeee; stroke: #000000; stroke-width: 0.3"/>
    <path d="M 78.982807 73.209505 
L 79.986036 67.330785 
L 84.086616 67.5 
L 87.45734 65.1077 
L 91.309049 59.083011 
L 92.180751 59.063626 
L 92.813252 56.108125 
L 97.398035 52.642377 
L 97.802925 51.370018 
L 97.71912 48.942835 
L 93.514086 48.50493 
L 92.607575 47.356567 
L 93.939613 44.828635 
L 92.561798 45.088276 
L 93.759089 42.504788 
L 97.830012 41.028331 
L 98.496673 37.743422 
L 97.363213 35.82906 
L 97.788103 31.639944 
L 96.621754 29.296725 
L 94.348383 28.193582 
L 93.421236 24.952592 
L 95.38772 25.130857 
L 97.115627 24.036749 
L 137.326466 24.24601 
L 182.801662 49.78505 
L 183.490245 53.1397 
L 182.057621 54.372026 
L 182.230409 55.6276 
L 183.593401 55.799403 
L 184.374835 57.402456 
L 202.392821 70.315995 
L 202.37352 72.412284 
L 201.064738 73.164948 
L 200.763179 74.804546 
L 201.490165 75.405668 
L 196.95258 87.391403 
L 198.649234 92.16373 
L 200.218951 92.581763 
L 203.203063 95.793831 
L 203.206107 97.085575 
L 205.504856 97.425293 
L 206.61768 99.213385 
L 206.540512 100.682105 
L 203.79907 103.069294 
L 202.860893 109.49443 
L 203.79907 108.282026 
L 205.242897 109.61039 
L 205.377932 111.8328 
L 203.203063 115.567662 
L 204.130073 120.625789 
L 206.61768 123.229624 
L 205.315998 122.434241 
L 204.558544 122.936687 
L 205.846016 123.43101 
L 205.929272 125.753095 
L 206.810593 125.363546 
L 207.741658 126.563739 
L 206.788247 129.794117 
L 207.827971 129.759534 
L 208.952972 132.534234 
L 208.404689 133.510669 
L 209.698236 134.497278 
L 208.327521 137.24147 
L 210.026196 136.578306 
L 212.000029 139.460818 
L 212.432567 138.360299 
L 213.84085 138.820039 
L 213.690582 140.088386 
L 215.081609 140.406744 
L 215.081609 139.204501 
L 216.537614 141.174669 
L 217.51337 140.449464 
L 217.636227 142.633216 
L 212.287153 146.836867 
L 205.928673 149.080624 
L 202.993793 151.281749 
L 198.414811 151.293373 
L 193.374196 154.365134 
L 190.434151 152.661332 
L 186.459947 152.746583 
L 184.948658 155.866138 
L 180.615964 158.189985 
L 176.52312 157.630658 
L 175.160127 156.257537 
L 172.511523 156.366048 
L 170.085987 158.213244 
L 164.7707 157.965227 
L 164.376115 156.43064 
L 160.113066 154.365134 
L 156.992497 156.761321 
L 149.361293 156.366048 
L 148.38772 153.889784 
L 146.877729 153.511296 
L 144.980888 150.474417 
L 145.748136 146.103163 
L 144.575986 143.444747 
L 144.018931 137.236633 
L 141.292947 133.189611 
L 137.48508 130.168231 
L 136.22653 133.174113 
L 134.015055 131.501307 
L 130.326465 131.968908 
L 128.595975 130.352944 
L 118.836465 127.428439 
L 117.65593 125.998488 
L 111.600482 124.972834 
L 111.582428 123.358157 
L 108.289071 123.114027 
L 106.621763 120.495656 
L 104.304549 119.041159 
L 100.867412 119.405423 
L 99.391581 118.582593 
L 92.929945 106.657225 
L 91.093704 101.07173 
L 88.553408 97.829465 
L 83.764246 94.446382 
L 81.499895 90.119047 
L 80.883527 86.732102 
L 82.58436 83.0106 
z
" clip-path="url(#p8069e0440d)" style="fill: #eeeeee; stroke: #000000; stroke-width: 0.3"/>
    <path d="M 202.085161 85.63382 
L 203.203063 84.730625 
L 203.620367 83.186627 
L 204.905805 89.106267 
L 205.959727 89.158147 
L 205.929272 88.252903 
L 206.489745 90.720443 
L 206.053139 92.490225 
L 204.905805 90.472263 
L 204.744358 91.376483 
L 202.186695 89.465307 
z
" clip-path="url(#p8069e0440d)" style="fill: #eeeeee; stroke: #000000; stroke-width: 0.3"/>
    <path d="M 207.732525 79.381586 
L 207.988395 77.796918 
L 209.452522 77.198846 
L 208.896117 77.206983 
L 207.817815 76.59265 
L 209.01795 76.771652 
L 208.244265 72.836416 
L 209.959184 74.130197 
L 210.388678 72.92288 
L 209.641381 79.292085 
z
" clip-path="url(#p8069e0440d)" style="fill: #eeeeee; stroke: #000000; stroke-width: 0.3"/>
    <path d="M 207.034984 111.021131 
L 210.884161 107.17337 
L 210.855739 108.628868 
L 209.980507 110.627507 
L 207.566013 111.524602 
z
" clip-path="url(#p8069e0440d)" style="fill: #eeeeee; stroke: #000000; stroke-width: 0.3"/>
    <path d="M 206.888871 79.138531 
L 207.846112 79.843376 
L 207.941308 80.156173 
L 207.38635 80.004055 
z
" clip-path="url(#p8069e0440d)" style="fill: #eeeeee; stroke: #000000; stroke-width: 0.3"/>
    <path d="M 208.477614 112.844692 
L 208.477664 112.314899 
L 209.709004 111.784756 
z
" clip-path="url(#p8069e0440d)" style="fill: #eeeeee; stroke: #000000; stroke-width: 0.3"/>
    <path d="M 202.38425 83.923306 
L 202.676826 84.906515 
L 202.384973 84.932249 
z
" clip-path="url(#p8069e0440d)" style="fill: #eeeeee; stroke: #000000; stroke-width: 0.3"/>
    <path d="M -134.048557 84.565847 
L -133.927609 83.41491 
L -130.808325 83.284439 
L -130.537534 76.240571 
L -131.614263 74.895872 
L -128.688404 73.261173 
L -127.14102 70.955411 
L -123.867002 70.007273 
L -123.584594 68.951923 
L -119.783178 72.774186 
L -115.792854 70.278537 
L -115.7619 67.370829 
L -112.89795 67.934031 
L -107.376349 65.172279 
L -106.344748 67.075018 
L -107.82895 68.696156 
L -107.206131 72.78581 
L -105.719346 72.223896 
L -103.812188 72.956325 
L -101.835398 71.895801 
L -97.184214 65.94604 
L -94.003034 64.381732 
L -93.069448 62.433786 
L -88.34862 60.677016 
L -84.437597 53.125489 
L -84.824434 38.987372 
L -80.839911 35.304616 
L -76.856674 27.576125 
L -74.494332 25.426668 
L -70.932754 24.401027 
L -65.424054 18.257491 
L -65.837977 14.162676 
L -62.97918 6.999961 
L -63.963058 -0.990758 
L -61.408577 -7.675198 
L -61.395677 -15.281292 
L -54.650348 -27.381688 
L -54.232557 -38.85269 
L -55.53752 -42.375593 
L -52.900519 -43.284974 
L -48.783171 -49.643256 
L -44.719984 -52.405971 
L -39.533654 -51.988413 
L -33.117146 -47.925556 
L -30.106184 -43.46485 
L -26.472403 -43.944413 
L -22.237712 -41.922189 
L -15.670337 -41.944786 
L -8.609076 -39.88673 
L -6.023653 -40.668553 
L -5.001085 -44.198555 
L -3.790257 -44.423 
L -1.184198 -48.571434 
L 5.25553 -45.662426 
L 7.420579 -47.451167 
L 15.794539 -49.899985 
L 17.534062 -51.2266 
L 17.50569 -52.304884 
L 21.675902 -49.745305 
L 28.875129 -51.179781 
L 29.57403 -54.657802 
L 31.820976 -55.466746 
L 36.401242 -52.902318 
L 39.987313 -53.755832 
L 43.783576 -51.369668 
L 46.739092 -51.956117 
L 48.331616 -51.24566 
L 50.909303 -53.317614 
L 53.756498 -52.425993 
L 59.275528 -48.124805 
L 59.627555 -45.724755 
L 62.641736 -45.152505 
L 63.087262 -43.516519 
L 67.226519 -41.718741 
L 71.891901 -45.201924 
L 77.704281 -42.536084 
L 80.652698 -46.646085 
L 82.660442 -46.296668 
L 84.88352 -45.227433 
L 84.772629 -42.887438 
L 86.550829 -42.135649 
L 89.782302 -37.729187 
L 93.973137 -36.622494 
L 94.194934 -33.439959 
L 96.739097 -34.214358 
L 97.894478 -31.906347 
L 98.60371 -32.278361 
L 98.773915 -30.69663 
L 96.700419 -26.472956 
L 98.067279 -23.946949 
L 96.285198 -18.844565 
L 98.296811 -17.431399 
L 99.49732 -18.348542 
L 100.585653 -16.908892 
L 102.111764 -17.067134 
L 103.283265 -14.568573 
L 93.387075 -3.765421 
L 90.399968 -2.482713 
L 89.35161 0.358466 
L 86.762307 1.409304 
L 86.677204 5.487334 
L 83.715238 10.809314 
L 81.863538 23.32113 
L 82.153668 29.068092 
L 77.854511 32.445989 
L 76.571469 34.754338 
L 76.625618 39.183722 
L 73.27553 41.610905 
L 73.162055 43.190699 
L 73.587582 44.869967 
L 75.30003 46.022204 
L 74.879657 46.881217 
L 77.870631 49.792799 
L 77.626265 60.457419 
L 79.178814 62.874266 
L 80.069854 67.986986 
L 78.982807 73.209505 
L 82.58436 83.0106 
L 80.883527 86.732102 
L 81.65206 90.609908 
L 83.764246 94.446382 
L 88.553408 97.829465 
L 91.093704 101.07173 
L 96.803576 114.128662 
L 73.560507 117.740378 
L 73.609503 121.273292 
L 66.864174 127.600241 
L 68.904146 128.929443 
L 71.181397 134.098993 
L 69.57727 139.44422 
L 71.19557 144.737791 
L 69.383845 147.135253 
L 66.962178 155.866138 
L 68.802923 160.105647 
L 71.83774 161.59889 
L 75.381265 166.431309 
L 81.177525 167.358775 
L 80.860308 164.728781 
L 84.91576 163.621763 
L 84.702997 179.889314 
L 82.646257 179.459171 
L 83.292294 177.708862 
L 82.109826 177.011315 
L 77.240713 179.65422 
L 74.868041 179.142687 
L 71.300024 172.816388 
L 69.239417 172.76472 
L 67.741028 168.211327 
L 61.951219 166.29309 
L 60.678482 164.975512 
L 57.952511 165.365611 
L 55.239415 160.720517 
L 52.911883 159.309926 
L 52.237486 156.316967 
L 50.286485 156.641187 
L 49.337416 160.560338 
L 46.464432 161.858531 
L 42.686223 160.593921 
L 37.278097 160.484123 
L 32.790668 158.307532 
L 31.220066 158.903029 
L 29.34063 157.223761 
L 28.908653 151.631816 
L 21.450238 153.272327 
L 18.685576 154.965806 
L 16.227801 154.186883 
L 17.454112 152.685879 
L 17.18332 150.44987 
L 14.110462 149.738113 
L 13.985384 148.188028 
L 12.578549 147.61579 
L 10.485702 149.5534 
L 5.772609 148.709898 
L 0.262612 150.478292 
L -6.142281 149.72779 
L -9.427902 152.316439 
L -10.327975 147.352275 
L -8.406631 146.214248 
L -8.482713 141.305627 
L -10.397607 135.842852 
L -13.903728 132.413275 
L -14.988192 129.276922 
L -13.092637 117.400648 
L -15.462727 111.669183 
L -14.128106 105.076132 
L -15.075878 102.745836 
L -30.85151 102.783294 
L -29.716752 98.153685 
L -33.359566 98.185981 
L -33.6742 99.22842 
L -43.311864 99.22842 
L -43.420173 105.196266 
L -45.38536 106.379499 
L -45.386645 111.727313 
L -55.854737 110.85539 
L -55.965629 111.671771 
L -60.797349 111.98308 
L -61.074592 113.068138 
L -63.94629 112.258219 
L -67.287357 112.933806 
L -70.833465 108.623256 
L -72.572988 104.555562 
L -75.453707 101.761527 
L -75.110701 99.388599 
L -77.66905 95.558574 
L -78.442748 92.517821 
L -78.184844 89.070159 
L -80.353774 85.485577 
L -112.909553 84.726026 
L -120.40858 85.338309 
L -125.977566 84.387845 
L -127.595642 85.022287 
L -128.143027 86.446514 
L -131.550495 87.354708 
L -131.454475 86.477872 
L -132.210943 86.78022 
z
" clip-path="url(#p8069e0440d)" style="fill: #eeeeee; stroke: #000000; stroke-width: 0.3"/>
    <path d="M -127.862042 85.958278 
L -126.826074 85.103327 
L -124.749608 85.058958 
z
" clip-path="url(#p8069e0440d)" style="fill: #eeeeee; stroke: #000000; stroke-width: 0.3"/>
    <path d="M 74.779719 46.670657 
L 75.349675 44.469532 
L 78.616594 44.849307 
L 79.181396 47.041383 
L 83.925431 46.779168 
L 86.145939 45.099899 
L 86.567598 40.673102 
L 88.877076 42.10564 
L 92.143359 40.5 
L 94.339363 41.719416 
L 92.610145 44.780841 
L 93.939613 44.828635 
L 92.607575 47.356567 
L 93.514086 48.50493 
L 97.71912 48.942835 
L 97.586294 52.306534 
L 92.813252 56.108125 
L 92.180751 59.063626 
L 91.309049 59.083011 
L 87.45734 65.1077 
L 84.086616 67.5 
L 79.986036 67.330785 
L 79.178814 62.874266 
L 77.626265 60.457419 
L 77.870631 49.792799 
z
" clip-path="url(#p8069e0440d)" style="fill: #eeeeee; stroke: #000000; stroke-width: 0.3"/>
    <path d="M 73.182043 41.939012 
L 76.625618 39.183722 
L 76.571469 34.754338 
L 79.220074 30.669846 
L 85.12594 28.24525 
L 86.926075 30.02268 
L 89.256189 28.526851 
L 91.630134 25.041731 
L 93.306127 25.049205 
L 94.348383 28.193582 
L 96.621754 29.296725 
L 97.879007 31.904747 
L 97.363213 35.82906 
L 98.496673 37.743422 
L 97.830012 41.028331 
L 93.929295 41.703905 
L 92.143359 40.5 
L 88.877076 42.10564 
L 86.567598 40.673102 
L 86.145939 45.099899 
L 83.925431 46.779168 
L 79.181396 47.041383 
L 78.768758 44.96298 
L 76.358694 44.144012 
L 75.134965 45.719931 
L 73.587582 44.869967 
z
" clip-path="url(#p8069e0440d)" style="fill: #eeeeee; stroke: #000000; stroke-width: 0.3"/>
    <path d="M 81.863538 23.32113 
L 83.715238 10.809314 
L 86.677204 5.487334 
L 86.762307 1.409304 
L 89.35161 0.358466 
L 90.399968 -2.482713 
L 93.387075 -3.765421 
L 103.283265 -14.568573 
L 102.111764 -17.067134 
L 100.585653 -16.908892 
L 99.49732 -18.348542 
L 98.296811 -17.431399 
L 96.285198 -18.844565 
L 98.067279 -23.946949 
L 96.700419 -26.472956 
L 98.773915 -30.69663 
L 98.60371 -32.278361 
L 97.894478 -31.906347 
L 99.203322 -34.269588 
L 102.576629 -35.682754 
L 106.430908 -33.979589 
L 109.60177 -35.983727 
L 111.499908 -33.258145 
L 114.468961 -32.181811 
L 114.715898 -33.518112 
L 117.011827 -34.916741 
L 121.810671 -35.391142 
L 124.815182 -36.847252 
L 126.90158 -35.316539 
L 130.971217 -35.150223 
L 137.401263 -40.849067 
L 138.383856 -36.74489 
L 139.883529 -36.710007 
L 139.228471 -35.473806 
L 142.811971 -34.125232 
L 142.083401 -31.739706 
L 142.741042 -28.054687 
L 148.251039 -20.670439 
L 148.849366 -19.24695 
L 148.125961 -17.624512 
L 149.883538 -12.242152 
L 149.461867 -8.95983 
L 147.045364 -5.639089 
L 147.281346 -3.681457 
L 143.40255 -1.813588 
L 142.167219 1.519102 
L 139.192364 4.171043 
L 138.389009 7.378449 
L 135.998296 10.342987 
L 136.746205 13.644681 
L 136.131109 24.24601 
L 97.115627 24.036749 
L 91.630134 25.041731 
L 89.256189 28.526851 
L 86.652064 30.12473 
L 85.23813 28.262035 
L 82.153668 29.068092 
z
" clip-path="url(#p8069e0440d)" style="fill: #eeeeee; stroke: #000000; stroke-width: 0.3"/>
   </g>
   <g id="PatchCollection_2">
    <defs>
     <path id="m01dfa9b08d" d="M 74.779719 -61.329343 
L 75.349675 -63.530468 
L 78.616594 -63.150693 
L 79.181396 -60.958617 
L 83.925431 -61.220832 
L 86.145939 -62.900101 
L 86.567598 -67.326898 
L 88.877076 -65.89436 
L 92.143359 -67.5 
L 94.339363 -66.280584 
L 92.610145 -63.219159 
L 93.939613 -63.171365 
L 92.607575 -60.643433 
L 93.514086 -59.49507 
L 97.71912 -59.057165 
L 97.586294 -55.693466 
L 92.813252 -51.891875 
L 92.180751 -48.936374 
L 91.309049 -48.916989 
L 87.45734 -42.8923 
L 84.086616 -40.5 
L 79.986036 -40.669215 
L 79.178814 -45.125734 
L 77.626265 -47.542581 
L 77.870631 -58.207201 
z
" style="stroke: #dd0000; stroke-width: 0.5"/>
    </defs>
    <g clip-path="url(#p8069e0440d)">
     <use xlink:href="#m01dfa9b08d" x="0" y="108" style="fill: #ff6b6b; stroke: #dd0000; stroke-width: 0.5"/>
    </g>
   </g>
  </g>
 </g>
 <defs>
  <clipPath id="p8069e0440d">
   <rect x="0" y="0" width="172.498839" height="108"/>
  </clipPath>
 </defs>
</svg>
