<?xml version="1.0" encoding="utf-8" standalone="no"?>
<!DOCTYPE svg PUBLIC "-//W3C//DTD SVG 1.1//EN"
  "http://www.w3.org/Graphics/SVG/1.1/DTD/svg11.dtd">
<svg xmlns:xlink="http://www.w3.org/1999/xlink" width="166.542356pt" height="108pt" viewBox="0 0 166.542356 108" xmlns="http://www.w3.org/2000/svg" version="1.1">
 <metadata>
  <rdf:RDF xmlns:dc="http://purl.org/dc/elements/1.1/" xmlns:cc="http://creativecommons.org/ns#" xmlns:rdf="http://www.w3.org/1999/02/22-rdf-syntax-ns#">
   <cc:Work>
    <dc:type rdf:resource="http://purl.org/dc/dcmitype/StillImage"/>
    <dc:date>2025-09-05T15:49:27.677528</dc:date>
    <dc:format>image/svg+xml</dc:format>
    <dc:creator>
     <cc:Agent>
      <dc:title>Matplotlib v3.10.3, https://matplotlib.org/</dc:title>
     </cc:Agent>
    </dc:creator>
   </cc:Work>
  </rdf:RDF>
 </metadata>
 <defs>
  <style type="text/css">*{stroke-linejoin: round; stroke-linecap: butt}</style>
 </defs>
 <g id="figure_1">
  <g id="patch_1">
   <path d="M 0 108 
L 166.542356 108 
L 166.542356 0 
L 0 0 
z
" style="fill: #ffffff"/>
  </g>
  <g id="axes_1">
   <g id="PatchCollection_1">
    <path d="M 141.46228 85.934936 
L 142.258678 84.988056 
L 142.163866 84.055601 
L 142.462624 83.657413 
L 144.033295 83.635991 
L 144.52504 84.031992 
L 145.948864 83.2307 
L 145.869153 79.431586 
L 146.9096 76.178655 
L 146.720404 74.732154 
L 147.924271 73.384244 
L 148.656619 74.230351 
L 148.999617 74.039943 
L 149.487991 73.302706 
L 149.430684 71.822866 
L 149.956138 70.571909 
L 149.954454 69.430142 
L 150.951847 68.563594 
L 152.461631 65.87521 
L 154.204014 65.695078 
L 154.293347 64.296451 
L 155.330352 61.89826 
L 155.881088 59.088658 
L 156.784937 58.79868 
L 158.057486 59.032366 
L 158.305676 58.423229 
L 159.009795 58.268347 
L 160.06955 59.757146 
L 161.446602 56.482793 
L 161.916437 57.139038 
L 162.824077 57.328024 
L 163.629323 58.43864 
L 165.420166 58.115107 
L 166.005875 57.448582 
L 166.485821 57.655927 
L 166.814917 58.341361 
L 168.065979 57.801409 
L 169.603997 58.398964 
L 170.469497 58.232276 
L 173.44019 59.755179 
L 174.903202 61.828415 
L 177.022297 63.384876 
L 177.979657 64.95751 
L 178.951348 65.562933 
L 179.744375 66.693004 
L 177.350968 69.914128 
L 177.224135 72.910203 
L 177.942576 73.190998 
L 180.707219 72.514857 
L 181.963333 72.899272 
L 180.83616 74.449938 
L 181.606852 76.244126 
L 182.55031 77.45213 
L 183.037631 77.617939 
L 183.982773 79.607454 
L 184.808244 79.929456 
L 186.289379 81.319449 
L 198.497864 85.59938 
L 202.574664 85.59938 
L 196.233818 91.944024 
L 190.190042 98.650019 
L 186.224909 98.470327 
L 184.42901 98.945789 
L 182.760575 99.76588 
L 181.58789 101.22692 
L 178.616777 101.694074 
L 177.528369 102.719653 
L 174.784796 102.748291 
L 173.157026 101.300479 
L 169.425333 103.067235 
L 168.022575 105.029858 
L 163.964318 103.982963 
L 162.304523 104.144401 
L 157.875874 100.938143 
L 153.903577 100.628929 
L 153.492313 100.356658 
L 152.722464 98.891684 
L 152.936521 96.930262 
L 151.571269 96.453378 
L 150.830069 96.693076 
L 150.72599 96.110171 
L 150.060216 95.642361 
L 149.553725 94.62443 
L 148.449301 91.147978 
L 147.720325 90.860512 
L 147.634364 90.280339 
L 146.72546 89.899313 
L 146.320519 89.10775 
L 145.717952 88.756454 
L 145.607554 88.08097 
L 144.423277 87.03517 
L 141.741651 86.439472 
z
" clip-path="url(#p67bf130c98)" style="fill: #eeeeee; stroke: #000000; stroke-width: 0.3"/>
    <path d="M 105.369645 83.72835 
L 105.831893 83.132876 
L 105.531875 82.581993 
L 107.086959 81.83371 
L 107.583548 79.775229 
L 108.04158 79.153194 
L 108.057382 77.890649 
L 108.790786 77.262493 
L 109.201207 75.910864 
L 112.265231 75.3496 
L 112.578943 76.357581 
L 115.515715 79.321299 
L 117.369341 78.787579 
L 120.690827 78.835892 
L 121.302539 79.952688 
L 124.559004 79.981716 
L 124.844365 79.116691 
L 127.165249 78.132535 
L 127.698498 77.48623 
L 127.704818 76.878404 
L 129.325636 75.980164 
L 132.39282 78.290695 
L 134.019962 78.122695 
L 136.060256 76.21811 
L 137.193965 74.351238 
L 139.182855 72.546445 
L 138.848704 71.593004 
L 138.847016 69.919593 
L 137.761979 68.664701 
L 140.470994 68.652349 
L 140.410316 67.749514 
L 142.356858 67.773999 
L 141.843202 70.359534 
L 142.074746 73.998081 
L 143.058444 74.392555 
L 145.242429 76.38611 
L 145.471869 77.738391 
L 145.097478 79.24282 
L 145.869153 79.431586 
L 146.036932 82.93438 
L 145.461758 83.700807 
L 144.569284 84.024775 
L 144.033295 83.635991 
L 142.462624 83.657413 
L 142.163866 84.055601 
L 142.258678 84.988056 
L 141.46228 85.934936 
L 141.741651 86.439472 
L 144.423277 87.03517 
L 145.607554 88.08097 
L 145.717952 88.756454 
L 146.320519 89.10775 
L 146.72546 89.899313 
L 147.634364 90.280339 
L 147.720325 90.860512 
L 148.449301 91.147978 
L 149.553725 94.62443 
L 150.060216 95.642361 
L 150.72599 96.110171 
L 150.830069 96.693076 
L 151.571269 96.453378 
L 152.936521 96.930262 
L 152.722464 98.891684 
L 153.412252 99.885892 
L 152.67254 99.624484 
L 152.513385 100.013734 
L 152.147576 99.883007 
L 151.786916 99.204278 
L 151.985289 98.680354 
L 151.272951 98.586798 
L 151.336068 98.147077 
L 150.659799 98.352904 
L 147.135036 99.882398 
L 143.504261 103.564448 
L 142.174402 103.508157 
L 141.492617 102.990067 
L 140.510815 103.482906 
L 138.942668 103.643473 
L 138.192413 104.116858 
L 138.111721 104.569147 
L 137.141505 104.204847 
L 136.521239 103.282338 
L 135.485078 103.960665 
L 133.926626 103.414812 
L 133.123276 103.862511 
L 132.695578 104.662382 
L 132.318027 103.881204 
L 131.529216 104.178831 
L 131.414178 103.066139 
L 130.044713 102.691564 
L 128.988746 101.200138 
L 128.407672 100.945685 
L 128.443909 100.153683 
L 127.37699 99.710899 
L 127.061378 99.673521 
L 126.097906 101.064606 
L 124.19856 100.162317 
L 122.575846 101.309223 
L 121.321416 100.732764 
L 121.175828 100.179043 
L 120.190866 99.985357 
L 120.109961 99.216093 
L 119.139534 98.603672 
L 118.119811 97.1751 
L 118.105904 95.832219 
L 117.546317 95.0236 
L 116.303262 94.491085 
L 116.129657 94.121971 
L 114.696562 93.738868 
L 115.03956 93.176183 
L 114.066185 92.075513 
L 114.505679 91.281763 
L 113.336365 90.532825 
L 113.0709 89.829141 
L 110.35535 88.395539 
L 109.663874 87.694914 
L 109.561059 87.361981 
L 110.026678 87.02533 
L 109.771745 86.159879 
L 109.128729 86.024346 
L 108.072765 84.822243 
L 105.433696 84.240103 
z
" clip-path="url(#p67bf130c98)" style="fill: #eeeeee; stroke: #000000; stroke-width: 0.3"/>
    <path d="M 145.14699 118.962231 
L 145.928218 117.958844 
L 146.190735 116.873254 
L 147.162846 115.975669 
L 147.566522 114.847676 
L 148.83402 114.215471 
L 148.756906 113.552885 
L 149.546561 112.428936 
L 149.684353 111.31799 
L 149.11002 109.496259 
L 149.346411 108.947123 
L 149.150892 108.465324 
L 147.350357 105.966027 
L 147.135456 104.718783 
L 147.373535 103.91137 
L 146.202534 103.454928 
L 146.416591 103.036519 
L 145.926534 103.024712 
L 145.48746 101.576464 
L 147.135036 99.882398 
L 151.336068 98.147077 
L 151.272951 98.586798 
L 151.985289 98.680354 
L 151.786916 99.204278 
L 152.147576 99.883007 
L 152.67254 99.624484 
L 153.412252 99.885892 
L 153.903577 100.628929 
L 157.875874 100.938143 
L 162.304523 104.144401 
L 163.964318 103.982963 
L 168.022575 105.029858 
L 169.425333 103.067235 
L 173.157026 101.300479 
L 174.784796 102.748291 
L 177.728519 102.602154 
L 175.517568 105.885145 
L 173.979127 107.522264 
L 174.037698 123.110454 
L 176.252024 126.079968 
L 176.301821 126.602538 
L 175.272937 127.754081 
L 175.013148 127.559232 
L 174.173051 128.066666 
L 174.145181 127.471788 
L 173.897333 128.196796 
L 173.553597 127.732735 
L 174.035692 128.911474 
L 173.895343 129.195831 
L 173.561894 128.866033 
L 173.19858 129.068454 
L 173.373766 129.570385 
L 172.695586 130.168705 
L 172.044612 130.122917 
L 170.989517 130.717452 
L 170.706166 131.839387 
L 170.992835 132.040776 
L 170.544254 133.248434 
L 169.99879 133.696314 
L 169.904891 133.476333 
L 169.496787 134.725299 
L 169.150067 134.514269 
L 169.5011 135.057165 
L 169.172299 135.997332 
L 168.753908 135.997332 
L 169.004744 136.215248 
L 168.817946 136.552618 
L 168.659015 136.224195 
L 168.251575 136.516128 
L 168.680912 136.821826 
L 167.581357 139.008556 
L 167.191171 138.864655 
L 166.743254 139.213731 
L 160.955281 134.890134 
L 160.699927 134.34756 
L 160.254534 134.289411 
L 160.198071 133.864445 
L 160.666218 133.447348 
L 160.441206 132.311922 
L 145.19039 123.667894 
L 145.391388 120.079733 
z
" clip-path="url(#p67bf130c98)" style="fill: #eeeeee; stroke: #000000; stroke-width: 0.3"/>
    <path d="M 173.99488 128.394057 
L 174.340276 128.096958 
L 174.753354 128.361348 
L 174.094417 128.721443 
z
" clip-path="url(#p67bf130c98)" style="fill: #eeeeee; stroke: #000000; stroke-width: 0.3"/>
    <path d="M 52.273647 136.080612 
L 52.675269 135.067204 
L 53.776321 134.271923 
L 54.612332 135.073325 
L 55.500586 134.839854 
L 55.172339 134.533809 
L 55.659025 133.40013 
L 54.611908 132.840943 
L 54.982296 132.14141 
L 54.405014 131.41215 
L 53.972684 131.553804 
L 54.354451 130.563966 
L 54.117215 129.282073 
L 54.89128 129.643208 
L 55.634587 129.27945 
L 56.139815 129.642772 
L 57.758313 129.282948 
L 57.923491 128.291363 
L 57.626425 127.396837 
L 57.869555 127.569532 
L 58.464116 127.147629 
L 59.166126 127.545052 
L 59.996234 129.056914 
L 59.836532 129.46264 
L 61.833849 129.752949 
L 62.99284 128.29792 
L 63.657346 129.409301 
L 63.411263 129.860938 
L 64.406972 129.996471 
L 64.995633 129.388755 
L 64.643364 128.838308 
L 65.039037 127.780706 
L 65.659719 127.493024 
L 65.869565 126.560024 
L 65.52741 126.246106 
L 65.928135 125.978099 
L 66.028423 125.388742 
L 65.637389 123.755773 
L 66.037694 121.968907 
L 65.347058 121.306976 
L 64.690979 121.352007 
L 64.428886 120.596952 
L 63.351853 120.295717 
L 63.718448 119.650833 
L 63.514922 118.595854 
L 63.816628 117.944414 
L 64.349665 117.144764 
L 65.380347 116.798929 
L 65.948362 115.563602 
L 65.19326 114.646122 
L 65.068111 113.797067 
L 64.629037 113.539877 
L 63.203105 113.358763 
L 62.178535 113.997305 
L 60.575203 114.11098 
L 60.987307 113.768208 
L 60.49135 112.690275 
L 60.624083 111.390023 
L 61.163864 110.284978 
L 65.805094 110.407397 
L 66.331812 110.082989 
L 67.158128 110.689398 
L 67.533995 110.475821 
L 67.678526 110.939261 
L 68.983944 110.798699 
L 69.492544 111.298535 
L 70.08584 111.068453 
L 70.998536 111.25405 
L 72.250439 111.933689 
L 72.478827 112.427624 
L 72.842471 112.088131 
L 72.458601 111.055339 
L 72.543717 110.335259 
L 73.040938 110.022653 
L 74.147469 107.428484 
L 74.091846 106.074017 
L 74.634159 104.613852 
L 77.075181 104.275239 
L 78.1421 103.739876 
L 79.504825 104.123855 
L 79.70456 104.451102 
L 80.68257 104.352512 
L 81.088351 104.716596 
L 81.361403 104.304093 
L 82.272835 104.062318 
L 82.901948 104.718783 
L 82.847593 106.193813 
L 80.643382 110.289353 
L 80.639166 112.863736 
L 79.804423 115.126174 
L 80.125931 117.830739 
L 79.191744 120.255055 
L 79.327005 121.641 
L 77.526894 123.720362 
L 76.363056 124.067503 
L 75.591099 124.795016 
L 74.289473 127.410826 
L 72.987427 128.657304 
L 73.113836 133.442538 
L 71.835807 135.998453 
L 70.293154 136.593055 
L 69.988081 137.252363 
L 68.948547 137.781824 
L 67.428652 139.7956 
L 66.782685 140.154548 
L 66.159471 139.906648 
L 65.673626 140.096835 
L 65.470103 138.712638 
L 65.955105 138.163942 
L 65.618002 137.519934 
L 63.813676 138.454686 
L 62.877806 138.264063 
L 62.867691 139.248215 
L 61.563749 140.092901 
L 60.420981 138.788274 
L 60.073767 138.937361 
L 59.432435 138.090492 
L 58.991258 138.002613 
L 58.429143 138.713509 
L 57.463771 138.908942 
L 57.198306 139.639517 
L 56.66948 139.577434 
L 55.925019 140.66101 
L 55.152835 139.667618 
L 55.096567 138.789074 
z
" clip-path="url(#p67bf130c98)" style="fill: #eeeeee; stroke: #000000; stroke-width: 0.3"/>
    <path d="M 56.902166 144.083946 
L 56.941689 143.694396 
L 57.960996 143.650236 
L 58.049484 141.266145 
L 57.697634 140.811014 
L 58.653735 140.257728 
L 59.159383 139.477313 
L 60.229253 139.156402 
L 60.321537 138.799205 
L 61.563749 140.092901 
L 62.867691 139.248215 
L 62.877806 138.264063 
L 63.813676 138.454686 
L 65.618002 137.519934 
L 65.955105 138.163942 
L 65.470103 138.712638 
L 65.673626 140.096835 
L 66.159471 139.906648 
L 66.782685 140.154548 
L 67.428652 139.7956 
L 68.948547 137.781824 
L 69.988081 137.252363 
L 70.293154 136.593055 
L 71.835807 135.998453 
L 73.113836 133.442538 
L 72.987427 128.657304 
L 74.289473 127.410826 
L 75.591099 124.795016 
L 76.363056 124.067503 
L 77.526894 123.720362 
L 79.327005 121.641 
L 79.191744 120.255055 
L 80.125931 117.830739 
L 79.804423 115.126174 
L 80.639166 112.863736 
L 80.643382 110.289353 
L 82.847593 106.193813 
L 82.984117 102.311299 
L 82.557686 101.118926 
L 83.419395 100.811134 
L 84.764846 98.659089 
L 86.092598 97.724011 
L 87.787365 97.865339 
L 89.884126 99.240467 
L 90.868036 100.750252 
L 92.055469 100.587938 
L 93.439264 101.272386 
L 95.585324 101.264738 
L 97.892775 101.961315 
L 98.737629 101.696696 
L 99.07178 100.50192 
L 99.467449 100.425954 
L 100.319047 99.021861 
L 102.423395 100.006454 
L 103.130881 99.40103 
L 105.86729 98.572195 
L 106.435724 98.123185 
L 106.426453 97.758225 
L 107.789178 98.624549 
L 110.141712 98.139031 
L 110.370096 96.961849 
L 111.104344 96.688051 
L 112.601065 97.556016 
L 113.772907 97.267133 
L 115.013435 98.074761 
L 115.979226 97.87627 
L 116.499625 98.116734 
L 117.341951 97.415453 
L 118.272346 97.717234 
L 120.075832 99.173029 
L 120.190866 99.985357 
L 121.175828 100.179043 
L 121.321416 100.732764 
L 122.674025 101.341246 
L 124.19856 100.162317 
L 126.097906 101.064606 
L 127.061378 99.673521 
L 127.717461 99.791786 
L 128.443909 100.153683 
L 128.407672 100.945685 
L 128.988746 101.200138 
L 130.044713 102.691564 
L 131.414178 103.066139 
L 131.486655 104.14331 
L 132.318027 103.881204 
L 132.695578 104.662382 
L 132.927338 104.536468 
L 132.982957 105.071826 
L 132.305388 106.501385 
L 132.752045 107.356346 
L 132.169704 109.083316 
L 132.82705 109.56162 
L 133.219348 109.251201 
L 133.574989 109.73847 
L 134.073685 109.684911 
L 134.456504 110.530582 
L 131.222666 114.187052 
L 130.246552 114.621202 
L 129.903974 115.582837 
L 129.057852 115.938507 
L 129.030042 117.31877 
L 128.062143 119.120065 
L 127.457051 123.354856 
L 127.551859 125.299992 
L 126.146998 126.443286 
L 125.727731 127.224577 
L 125.745425 128.723761 
L 124.650697 129.545274 
L 124.613616 130.079976 
L 124.752668 130.648347 
L 125.312255 131.038337 
L 125.174887 131.329081 
L 126.152265 132.314545 
L 126.072412 135.924127 
L 126.579748 136.742141 
L 126.870919 138.47261 
L 126.515698 140.24024 
L 127.692599 143.557552 
L 127.136807 144.817143 
L 127.387945 146.129638 
L 128.078157 147.428144 
L 129.64314 148.573194 
L 130.473248 149.670581 
L 132.339097 154.089874 
L 124.743821 155.312307 
L 124.759831 156.508069 
L 122.55562 158.649509 
L 123.222233 159.099395 
L 123.966384 160.849098 
L 123.442194 162.658261 
L 123.971016 164.449941 
L 123.378988 165.261394 
L 122.587645 168.216478 
L 123.189156 169.651396 
L 124.180862 170.156804 
L 125.338801 171.792401 
L 127.232879 172.106314 
L 127.12922 171.216157 
L 128.454444 170.841472 
L 128.384918 176.347442 
L 127.712825 176.201854 
L 127.923935 175.609438 
L 127.537532 175.373345 
L 125.946423 176.267871 
L 125.171091 176.094736 
L 124.005149 173.953516 
L 123.331792 173.936028 
L 122.842155 172.394871 
L 120.950184 171.745618 
L 120.534284 171.299667 
L 119.643502 171.431701 
L 118.756928 169.859507 
L 117.996346 169.382074 
L 117.775969 168.369067 
L 117.138429 168.478804 
L 116.828296 169.805292 
L 115.889474 170.244683 
L 114.654846 169.816659 
L 112.8876 169.779496 
L 111.421217 169.0428 
L 110.907981 169.244354 
L 110.293827 168.675984 
L 110.152667 166.783315 
L 107.715436 167.338568 
L 106.812011 167.911749 
L 106.008869 167.648112 
L 106.409598 167.140077 
L 106.32111 166.38327 
L 105.316974 166.142366 
L 105.276101 165.617719 
L 104.816382 165.424038 
L 104.132489 166.079848 
L 102.592364 165.794353 
L 100.791829 166.39289 
L 98.698864 166.138872 
L 97.625202 167.015035 
L 97.33108 165.334848 
L 97.958929 164.949667 
L 97.934067 163.288279 
L 97.308326 161.43933 
L 96.16261 160.278544 
L 95.808233 159.217004 
L 96.427655 155.197321 
L 95.653166 153.25743 
L 96.089288 151.025924 
L 95.779579 150.237205 
L 90.624482 150.249883 
L 90.995293 148.68293 
L 89.804909 148.693861 
L 89.702094 149.046689 
L 86.552737 149.046689 
L 86.517344 151.066585 
L 85.875169 151.467066 
L 85.874749 153.277105 
L 82.454027 152.981991 
L 82.417791 153.258306 
L 80.838901 153.363673 
L 80.748305 153.730925 
L 79.809903 153.456797 
L 78.718122 153.685459 
L 77.559339 152.226496 
L 76.990905 150.849731 
L 76.049555 149.904052 
L 76.161641 149.100903 
L 75.325634 147.80458 
L 75.072808 146.775397 
L 75.157085 145.60849 
L 74.448331 144.39524 
L 63.809884 144.13816 
L 61.359383 144.345395 
L 59.539572 144.023699 
L 59.010823 144.238434 
L 58.831951 144.720482 
L 57.718472 145.027873 
L 57.749849 144.731096 
L 57.502654 144.83343 
z
" clip-path="url(#p67bf130c98)" style="fill: #eeeeee; stroke: #000000; stroke-width: 0.3"/>
    <path d="M 58.92377 144.555232 
L 59.2623 144.265863 
L 59.940839 144.250845 
z
" clip-path="url(#p67bf130c98)" style="fill: #eeeeee; stroke: #000000; stroke-width: 0.3"/>
    <path d="M 44.822955 -7.975885 
L 47.207091 -8.982775 
L 48.515461 -10.573772 
L 48.833177 -11.353748 
L 48.164875 -13.526234 
L 48.807895 -14.589301 
L 49.76568 -14.859279 
L 50.202221 -15.744622 
L 50.882742 -15.95995 
L 51.291898 -16.519136 
L 54.03631 -17.777967 
L 53.643169 -18.63959 
L 53.868165 -20.937744 
L 57.305957 -19.463264 
L 59.246933 -19.343464 
L 61.39694 -19.766039 
L 62.292774 -19.336924 
L 64.795474 -18.963402 
L 65.95409 -18.136496 
L 68.858922 -17.613914 
L 69.60313 -16.679941 
L 69.589194 -15.794167 
L 70.11641 -14.523166 
L 71.221604 -13.352519 
L 72.375906 -12.876236 
L 76.034234 -12.486022 
L 79.731048 -11.387666 
L 81.197567 -10.734437 
L 83.011136 -9.26687 
L 84.65682 -8.606411 
L 86.938214 -9.26291 
L 88.909386 -11.435692 
L 89.100167 -12.627685 
L 88.164847 -14.922335 
L 88.793924 -16.68717 
L 90.79628 -18.300706 
L 92.78703 -19.207826 
L 94.270468 -19.29716 
L 95.120182 -19.903573 
L 97.266206 -19.950905 
L 101.166078 -18.647547 
L 101.3406 -17.963336 
L 101.061897 -17.353999 
L 102.006174 -16.629334 
L 101.952757 -16.889253 
L 103.463731 -16.716088 
L 105.180087 -15.965263 
L 107.801902 -16.081108 
L 108.960514 -15.725315 
L 109.524561 -14.515594 
L 108.271652 -13.185429 
L 108.866632 -10.801558 
L 107.616837 -8.090216 
L 108.811013 -4.017409 
L 108.792894 34.839062 
L 104.734213 34.841359 
L 104.734213 36.953505 
L 72.133297 20.25 
L 64.921471 23.754436 
L 61.929081 21.371216 
L 55.758892 19.942754 
L 53.882508 16.573525 
L 50.669949 15.564668 
L 49.405403 15.898911 
L 48.793149 15.461704 
L 48.520096 14.72862 
L 47.86233 14.278514 
L 47.76415 12.268783 
L 45.195027 8.725873 
L 45.622302 7.949171 
L 47.138829 7.222315 
L 47.367213 5.873968 
L 46.597784 3.905443 
L 47.470452 1.543866 
L 46.822377 -0.151842 
L 47.022951 -3.793888 
L 46.376984 -5.823514 
z
" clip-path="url(#p67bf130c98)" style="fill: #eeeeee; stroke: #000000; stroke-width: 0.3"/>
    <path d="M 65.618846 93.880196 
L 67.188465 92.698754 
L 69.029876 88.768041 
L 69.881474 88.166442 
L 70.078253 87.601569 
L 71.889323 87.75 
L 73.705868 86.970244 
L 73.793092 86.500244 
L 74.431057 86.134738 
L 74.698205 86.940294 
L 75.383781 87.525933 
L 78.879928 85.64813 
L 82.750674 85.382306 
L 84.931291 82.729112 
L 83.894286 81.991655 
L 84.514551 81.417163 
L 90.276428 80.770313 
L 90.711286 79.994051 
L 91.225361 80.077015 
L 91.870489 79.586028 
L 93.626775 77.226967 
L 94.105457 77.238118 
L 94.671784 76.276153 
L 95.509899 75.869547 
L 95.525489 74.430919 
L 98.479327 72.901459 
L 100.166932 73.236139 
L 101.920695 75.264234 
L 103.362217 77.703635 
L 103.310809 80.180414 
L 102.666949 80.632593 
L 102.509775 81.274523 
L 103.047028 81.461102 
L 102.793358 82.578275 
L 105.697897 82.659597 
L 105.831893 83.132876 
L 105.369645 83.72835 
L 105.433696 84.240103 
L 108.072765 84.822243 
L 109.128729 86.024346 
L 109.771745 86.159879 
L 110.026678 87.02533 
L 109.561059 87.361981 
L 109.663874 87.694914 
L 110.35535 88.395539 
L 113.0709 89.829141 
L 113.336365 90.532825 
L 114.505679 91.281763 
L 114.066185 92.075513 
L 115.03956 93.176183 
L 114.696562 93.738868 
L 116.129657 94.121971 
L 116.303262 94.491085 
L 117.546317 95.0236 
L 118.105904 95.832219 
L 118.119811 97.1751 
L 118.84078 97.976391 
L 117.341951 97.415453 
L 116.499625 98.116734 
L 115.979226 97.87627 
L 115.013435 98.074761 
L 113.772907 97.267133 
L 112.601065 97.556016 
L 111.104344 96.688051 
L 110.370096 96.961849 
L 110.141712 98.139031 
L 107.789178 98.624549 
L 106.426453 97.758225 
L 106.435724 98.123185 
L 105.86729 98.572195 
L 103.130881 99.40103 
L 102.423395 100.006454 
L 100.319047 99.021861 
L 99.467449 100.425954 
L 99.07178 100.50192 
L 98.737629 101.696696 
L 97.892775 101.961315 
L 95.585324 101.264738 
L 93.439264 101.272386 
L 92.055469 100.587938 
L 90.868036 100.750252 
L 89.884126 99.240467 
L 87.787365 97.865339 
L 86.092598 97.724011 
L 84.764846 98.659089 
L 83.419395 100.811134 
L 82.557686 101.118926 
L 82.984117 102.311299 
L 82.901948 104.718783 
L 82.272835 104.062318 
L 81.361403 104.304093 
L 81.088351 104.716596 
L 80.68257 104.352512 
L 79.70456 104.451102 
L 79.504825 104.123855 
L 78.1421 103.739876 
L 76.3087 104.45963 
L 74.80102 104.499962 
L 74.091846 106.074017 
L 74.147469 107.428484 
L 72.926748 109.92144 
L 72.419832 106.990841 
L 71.843395 106.321693 
L 71.320044 106.279285 
L 68.463126 102.988755 
L 68.222943 102.395464 
L 68.890821 102.238835 
L 68.488828 101.990609 
L 68.092314 100.757465 
L 66.964297 99.874525 
L 66.726218 97.579515 
L 66.159471 97.04634 
L 66.557248 96.180342 
L 66.557248 94.616562 
z
" clip-path="url(#p67bf130c98)" style="fill: #eeeeee; stroke: #000000; stroke-width: 0.3"/>
    <path d="M 95.879446 65.306509 
L 96.509823 64.017623 
L 97.747399 63.018385 
L 96.961956 61.13271 
L 97.531654 60.386944 
L 98.883848 59.612429 
L 98.405586 59.084068 
L 98.138433 57.904153 
L 99.414778 57.288895 
L 99.342724 56.576353 
L 100.562181 55.120237 
L 100.35318 53.682916 
L 101.119241 52.993988 
L 104.746852 52.922505 
L 104.734213 34.841359 
L 108.808061 34.813266 
L 108.811013 26.381177 
L 134.362536 26.385331 
L 135.075502 25.401395 
L 135.354873 25.628745 
L 135.125225 26.381177 
L 142.242366 26.380932 
L 143.790609 27.592011 
L 145.577318 27.345663 
L 145.924116 26.380742 
L 157.337642 26.379642 
L 157.354896 27.841532 
L 159.088172 30.347729 
L 158.839329 30.566161 
L 158.748749 30.050982 
L 158.240113 29.71395 
L 158.741782 32.431866 
L 158.526118 33.344836 
L 158.80615 36.614942 
L 159.582873 39.637181 
L 160.012875 40.25409 
L 160.562946 40.148059 
L 160.902736 40.623136 
L 161.585388 40.807591 
L 162.385929 41.534105 
L 162.199449 41.809841 
L 162.50749 42.227738 
L 163.13735 41.985709 
L 162.775034 42.361464 
L 163.485065 42.334094 
L 164.351042 43.223832 
L 162.840512 45.288865 
L 162.376156 45.204701 
L 162.200864 45.482767 
L 162.047485 45.19377 
L 159.834422 46.192136 
L 159.456871 47.386146 
L 157.703953 47.248206 
L 157.810983 48.180551 
L 157.308703 49.570434 
L 157.62558 50.565738 
L 156.470592 52.914197 
L 156.294876 54.088097 
L 155.46814 55.408684 
L 155.881088 59.088658 
L 155.330352 61.89826 
L 154.293347 64.296451 
L 154.238991 65.612008 
L 152.461631 65.87521 
L 150.951847 68.563594 
L 149.954454 69.430142 
L 149.956138 70.571909 
L 149.430684 71.822866 
L 149.487991 73.302706 
L 148.999617 74.039943 
L 148.656619 74.230351 
L 147.924271 73.384244 
L 146.720404 74.732154 
L 146.9096 76.178655 
L 145.869153 79.431586 
L 145.097478 79.24282 
L 145.471869 77.738391 
L 145.242429 76.38611 
L 143.058444 74.392555 
L 142.074746 73.998081 
L 141.843202 70.359534 
L 142.356858 67.773999 
L 140.410316 67.749514 
L 140.470994 68.652349 
L 137.761979 68.664701 
L 138.847016 69.919593 
L 138.848704 71.593004 
L 139.182855 72.546445 
L 137.193965 74.351238 
L 136.060256 76.21811 
L 134.019962 78.122695 
L 132.39282 78.290695 
L 129.325636 75.980164 
L 127.704818 76.878404 
L 127.698498 77.48623 
L 127.165249 78.132535 
L 124.844365 79.116691 
L 124.559004 79.981716 
L 121.302539 79.952688 
L 120.690827 78.835892 
L 117.369341 78.787579 
L 115.515715 79.321299 
L 112.578943 76.357581 
L 112.265231 75.3496 
L 109.201207 75.910864 
L 108.790786 77.262493 
L 108.057382 77.890649 
L 108.04158 79.153194 
L 107.583548 79.775229 
L 107.086959 81.83371 
L 105.275258 82.701349 
L 102.73142 82.485806 
L 103.047028 81.461102 
L 102.509775 81.274523 
L 102.666949 80.632593 
L 103.310809 80.180414 
L 103.362217 77.703635 
L 101.920695 75.264234 
L 100.166932 73.236139 
L 100.544483 71.832596 
L 100.386049 71.218539 
L 99.803288 71.188589 
L 98.864886 70.216459 
L 99.153104 68.355923 
L 98.523991 68.535175 
L 98.629758 67.967025 
L 98.176358 66.70481 
L 98.473428 66.078946 
L 97.491626 65.51932 
L 97.087949 65.912588 
L 96.395209 65.958495 
z
" clip-path="url(#p67bf130c98)" style="fill: #eeeeee; stroke: #000000; stroke-width: 0.3"/>
    <path d="M 158.804491 31.42078 
L 158.968062 31.299258 
L 158.849281 31.650059 
z
" clip-path="url(#p67bf130c98)" style="fill: #eeeeee; stroke: #000000; stroke-width: 0.3"/>
    <path d="M 155.46814 55.408684 
L 156.294876 54.088097 
L 156.470592 52.914197 
L 157.62558 50.565738 
L 157.308703 49.570434 
L 157.810983 48.180551 
L 157.703953 47.248206 
L 159.456871 47.386146 
L 159.834422 46.192136 
L 162.047485 45.19377 
L 162.200864 45.482767 
L 162.376156 45.204701 
L 162.840512 45.288865 
L 164.34175 43.262044 
L 166.016965 46.813232 
L 167.165294 52.044231 
L 167.747917 52.538412 
L 167.831529 53.753984 
L 168.458615 53.858124 
L 168.88364 55.57528 
L 169.273825 55.639313 
L 169.450671 55.239284 
L 169.119542 54.321149 
L 169.534614 53.840738 
L 170.369067 54.531836 
L 170.151744 54.969734 
L 170.693225 56.048292 
L 171.212478 56.339189 
L 172.133532 55.899227 
L 172.874752 56.412173 
L 173.168055 57.262143 
L 174.803123 57.508977 
L 176.878475 60.456168 
L 178.073918 60.856365 
L 178.631993 61.71133 
L 179.110104 62.09036 
L 178.950843 61.610118 
L 179.373213 62.002916 
L 179.744155 63.491834 
L 180.374226 63.449832 
L 181.172516 64.293434 
L 181.382541 65.060271 
L 181.980758 65.323113 
L 182.278375 64.855439 
L 182.754162 65.66926 
L 181.739585 66.015116 
L 181.427348 66.848431 
L 180.962568 67.140923 
L 180.136677 66.479647 
L 179.744375 66.693004 
L 178.951348 65.562933 
L 177.979657 64.95751 
L 177.022297 63.384876 
L 174.903202 61.828415 
L 173.44019 59.755179 
L 170.469497 58.232276 
L 169.603997 58.398964 
L 168.065979 57.801409 
L 166.814917 58.341361 
L 166.485821 57.655927 
L 166.005875 57.448582 
L 165.420166 58.115107 
L 163.629323 58.43864 
L 162.824077 57.328024 
L 161.916437 57.139038 
L 161.446602 56.482793 
L 160.06955 59.757146 
L 159.009795 58.268347 
L 158.305676 58.423229 
L 158.057486 59.032366 
L 156.784937 58.79868 
L 155.881088 59.088658 
z
" clip-path="url(#p67bf130c98)" style="fill: #eeeeee; stroke: #000000; stroke-width: 0.3"/>
    <path d="M 169.759569 52.844631 
L 170.195874 52.426527 
L 169.843177 52.191571 
L 170.599661 52.562681 
L 170.711144 53.247409 
L 171.131524 52.997135 
L 171.649118 53.552079 
L 169.956984 53.407489 
L 169.78777 53.003159 
L 170.374706 53.176493 
z
" clip-path="url(#p67bf130c98)" style="fill: #eeeeee; stroke: #000000; stroke-width: 0.3"/>
    <path d="M 170.002439 51.667956 
L 170.248957 51.289273 
L 170.51008 51.802562 
z
" clip-path="url(#p67bf130c98)" style="fill: #eeeeee; stroke: #000000; stroke-width: 0.3"/>
    <path d="M -43.040188 56.925246 
L -42.250321 57.09674 
L -41.231018 56.396335 
L -41.334045 55.215654 
L -40.850515 53.683902 
L -40.393115 53.683902 
L -40.024199 53.251174 
L -37.540408 55.537876 
L -36.766552 54.14122 
L -34.084926 54.430213 
L -31.460391 54.109629 
L -31.573742 53.484425 
L -31.185448 53.021095 
L -31.15595 53.876492 
L -15.507149 53.882613 
L -14.864342 50.423208 
L -15.965393 49.510103 
L -19.919152 13.695608 
L -12.696685 13.69167 
L 11.635699 30.161488 
L 11.668564 31.696743 
L 13.320356 32.294404 
L 14.210718 33.534765 
L 15.405738 33.919836 
L 15.934139 33.663301 
L 16.747816 34.582748 
L 20.002936 35.58122 
L 20.255758 37.409512 
L 19.616954 38.478921 
L 20.353941 39.070245 
L 24.201513 38.450502 
L 24.019477 49.982942 
L 23.516357 50.480921 
L 22.744396 52.949393 
L 21.339115 53.87518 
L 21.259894 54.475794 
L 19.329155 54.169199 
L 19.193055 54.538638 
L 12.389961 54.773421 
L 10.931161 56.010169 
L 9.693161 56.22812 
L 7.863341 55.990389 
L 7.851966 56.349773 
L 5.996232 55.6956 
L 5.225535 55.962186 
L 5.053614 55.635154 
L 4.026936 55.641276 
L 2.563924 56.834635 
L 0.04284 58.104722 
L -1.180833 58.212275 
L -1.339271 59.436782 
L -1.81205 59.542914 
L -3.075124 59.015099 
L -3.628387 59.262995 
L -4.728807 60.201131 
L -4.842789 61.677036 
L -5.545114 61.866893 
L -6.439798 61.481929 
L -6.283573 63.195129 
L -7.098616 63.309345 
L -7.102412 63.719556 
L -9.231194 62.797596 
L -9.012501 62.525546 
L -9.270488 62.3229 
L -10.778271 63.933132 
L -10.210786 65.198519 
L -10.397348 65.614195 
L -11.325321 65.640647 
L -10.925754 66.405102 
L -11.188271 66.822419 
L -11.002761 67.363243 
L -11.337226 67.307281 
L -11.631976 68.031515 
L -12.450708 68.635952 
L -13.788152 68.751594 
L -15.105156 69.389261 
L -14.594661 69.683719 
L -14.314026 71.108142 
L -14.779645 72.379871 
L -15.47976 72.58667 
L -15.182902 73.551148 
L -15.387688 74.859819 
L -15.554553 75.32446 
L -17.003871 75.533556 
L -17.565985 76.321184 
L -18.479526 76.058643 
L -18.237235 75.346757 
L -18.56633 74.949665 
L -18.334574 74.460975 
L -18.544628 74.051204 
L -19.242003 74.222042 
L -19.319324 74.788226 
L -20.229285 74.357139 
L -20.228229 75.59717 
L -21.420089 75.66548 
L -21.642365 76.528419 
L -23.059657 76.057547 
L -23.622612 75.184227 
L -24.28691 75.275165 
L -24.957952 76.229041 
L -25.612978 76.439119 
L -25.639944 75.735761 
L -26.588249 75.333203 
L -26.860033 74.850855 
L -26.986658 72.793249 
L -27.717111 72.670831 
L -27.936435 73.014258 
L -28.493703 73.051747 
L -27.185337 71.338876 
L -28.332741 70.794119 
L -28.617168 70.146723 
L -29.109333 70.110872 
L -28.997459 68.610376 
L -29.414618 68.472001 
L -29.633943 67.104196 
L -30.332794 66.694755 
L -31.355469 66.661962 
L -30.992668 67.150542 
L -31.105387 67.522389 
L -32.293239 67.944071 
L -32.679853 68.556382 
L -34.897547 67.742522 
L -35.895152 68.164425 
L -36.709457 69.127595 
L -37.691047 67.735525 
L -38.099571 67.807227 
L -38.66569 68.602944 
L -39.250767 68.553103 
L -39.956569 67.853354 
L -39.470724 67.037523 
L -39.426479 66.632452 
L -39.793499 66.364661 
L -39.471568 64.55823 
L -40.059596 63.960675 
L -40.385952 62.907337 
L -40.908246 62.708516 
L -41.262619 63.133807 
L -42.361355 61.45384 
L -41.812091 60.924819 
L -41.953463 59.500506 
L -42.867321 58.548376 
L -42.636091 57.488151 
z
" clip-path="url(#p67bf130c98)" style="fill: #eeeeee; stroke: #000000; stroke-width: 0.3"/>
    <path d="M 17.851396 86.016693 
L 18.251281 81.113305 
L 19.502344 80.952082 
L 19.732836 79.420219 
L 20.544401 78.59641 
L 20.521227 77.963118 
L 21.284336 77.77326 
L 21.595733 77.340862 
L 21.913869 76.504375 
L 21.526203 75.915784 
L 21.851083 75.28085 
L 22.341984 75.399986 
L 22.606609 74.586672 
L 22.168799 73.707556 
L 22.136354 72.41889 
L 21.1023 71.119619 
L 21.911761 69.680441 
L 21.654724 69.063325 
L 21.808102 66.47265 
L 22.980368 65.489589 
L 23.631391 64.449585 
L 23.782246 62.432857 
L 25.33543 61.495047 
L 26.763049 61.159051 
L 28.274517 61.297647 
L 29.473753 60.709821 
L 32.004107 61.722832 
L 32.927759 61.78437 
L 35.244268 64.453084 
L 35.780677 64.450241 
L 36.308659 63.937066 
L 37.098734 63.957617 
L 38.86008 62.973024 
L 40.00622 63.166055 
L 42.34738 64.756942 
L 46.061375 65.27383 
L 48.220079 63.375692 
L 50.483701 62.846891 
L 53.602716 62.892032 
L 56.120852 63.939689 
L 57.813092 64.162229 
L 58.173369 63.406734 
L 59.168654 62.855855 
L 59.319929 62.364543 
L 60.892919 62.115335 
L 61.307975 61.432634 
L 62.438944 61.455151 
L 64.304577 64.103755 
L 64.810229 67.096983 
L 66.025895 67.234923 
L 66.771306 67.955658 
L 66.249223 69.891394 
L 66.573259 70.230012 
L 66.509633 70.716731 
L 64.714577 71.885935 
L 63.967903 71.725478 
L 63.040456 72.823415 
L 62.159573 74.495625 
L 61.73609 76.47541 
L 60.901347 76.932619 
L 60.759767 79.060945 
L 59.373444 79.755119 
L 59.548733 80.244464 
L 59.037185 82.373882 
L 58.160726 83.022699 
L 57.389609 83.006193 
L 57.532457 83.484388 
L 56.811484 83.95067 
L 56.66906 85.751309 
L 55.963258 86.774156 
L 55.971685 87.377502 
L 54.812063 88.701364 
L 55.364906 89.479377 
L 54.099097 90.339363 
L 53.983639 91.316413 
L 53.316605 92.117375 
L 52.271593 92.209408 
L 51.958512 90.912649 
L 50.090979 89.261646 
L 49.753881 90.345264 
L 48.591306 90.326245 
L 48.314466 89.782579 
L 47.220578 90.713172 
L 46.869573 90.683337 
L 46.480223 91.797776 
L 45.04502 92.717113 
L 43.584112 94.486275 
L 43.067085 94.690452 
L 42.917922 95.299809 
L 43.263028 95.758219 
L 42.834909 97.600281 
L 41.737657 99.507044 
L 40.318253 98.311782 
L 41.018996 99.760935 
L 40.754228 100.185232 
L 37.7774 100.283517 
L 37.721658 99.498093 
L 37.547136 100.08316 
L 36.646321 99.96284 
L 36.859334 100.266478 
L 36.646321 100.370098 
L 35.793288 99.298768 
L 36.25315 100.310197 
L 35.679815 100.65893 
L 35.679815 99.787268 
L 35.348355 99.414093 
L 35.45685 99.934269 
L 35.095199 99.613765 
L 35.597198 100.821591 
L 35.376226 100.921255 
L 34.965137 100.814362 
L 34.625385 99.049527 
L 34.341039 98.975853 
L 34.973764 100.979607 
L 34.341039 101.005424 
L 34.424651 99.934269 
L 34.257427 100.716766 
L 34.090203 100.34118 
L 34.227232 101.082021 
L 33.921323 101.081336 
L 33.852971 100.466492 
L 33.667833 100.370098 
L 33.745806 101.089082 
L 32.526471 101.267924 
L 32.779297 100.65893 
L 32.495946 100.83209 
L 32.387122 100.399015 
L 32.33138 101.236594 
L 31.883464 101.354504 
L 31.785251 100.766682 
L 31.675428 101.256908 
L 31.377147 100.745684 
L 31.266329 101.094759 
L 30.974685 100.945524 
L 29.284875 98.920771 
L 28.920236 97.744443 
L 29.368153 97.673527 
L 28.836958 97.58402 
L 28.733438 96.820627 
L 29.702597 96.659687 
L 29.523431 96.260348 
L 29.849913 96.139516 
L 29.955423 95.990451 
L 29.073525 96.429033 
L 29.115331 96.602198 
L 28.1538 96.154317 
L 28.254996 95.816943 
L 29.424225 95.77701 
L 29.170738 95.49954 
L 28.675707 95.714529 
L 28.722821 95.210534 
L 28.489239 95.663407 
L 27.873103 95.618482 
L 27.765269 94.920154 
L 28.530381 94.425626 
L 27.528703 95.028939 
L 26.318329 93.457921 
L 24.922816 92.527217 
L 21.001046 92.309474 
L 20.761826 92.164889 
L 22.63346 91.461396 
L 21.293355 91.815636 
L 21.154335 91.497886 
L 20.832827 91.709605 
L 20.700111 92.141648 
L 20.760166 92.363008 
L 17.984956 92.487119 
L 18.345669 87.794595 
z
" clip-path="url(#p67bf130c98)" style="fill: #eeeeee; stroke: #000000; stroke-width: 0.3"/>
    <path d="M 36.063364 100.82624 
L 36.4363 100.252019 
L 36.618454 100.425006 
L 36.856346 100.425006 
L 36.716992 100.751365 
z
" clip-path="url(#p67bf130c98)" style="fill: #eeeeee; stroke: #000000; stroke-width: 0.3"/>
    <path d="M 36.874264 100.55927 
L 37.88357 100.455819 
L 37.261131 100.666502 
z
" clip-path="url(#p67bf130c98)" style="fill: #eeeeee; stroke: #000000; stroke-width: 0.3"/>
    <path d="M 10.095574 75.571484 
L 10.146561 74.192638 
L 10.636618 72.924848 
L 10.8886 73.003547 
L 10.962342 72.555189 
L 11.503807 72.777073 
L 11.292277 72.293193 
L 11.684155 72.192196 
L 11.591031 71.793792 
L 12.385326 71.672249 
L 12.830719 70.889976 
L 13.491013 71.249906 
L 15.047569 71.142792 
L 16.23079 70.135792 
L 16.668175 68.884289 
L 16.977464 68.75247 
L 16.588114 67.737928 
L 17.133795 67.465767 
L 18.557618 66.975004 
L 21.623962 69.950855 
L 21.1023 71.119619 
L 22.136354 72.41889 
L 22.168799 73.707556 
L 22.606609 74.586672 
L 22.341984 75.399986 
L 21.851083 75.28085 
L 21.526203 75.915784 
L 21.913869 76.504375 
L 21.595733 77.340862 
L 21.284336 77.77326 
L 20.521227 77.963118 
L 20.544401 78.59641 
L 19.732836 79.420219 
L 19.502344 80.952082 
L 18.251281 81.113305 
L 17.851396 86.016693 
L 18.345669 87.794595 
L 17.984956 92.487119 
L 13.564616 93.140513 
L 14.227997 92.87243 
L 13.346058 91.176616 
L 13.207006 89.849252 
L 13.589192 89.828706 
L 13.489325 81.145112 
L 12.368891 79.146637 
L 12.387853 77.139308 
z
" clip-path="url(#p67bf130c98)" style="fill: #eeeeee; stroke: #000000; stroke-width: 0.3"/>
    <path d="M 147.916105 0.502994 
L 148.857944 -1.249822 
L 149.451603 -4.737878 
L 154.018191 -4.096329 
L 155.680094 -5.342477 
L 156.70614 -6.86079 
L 159.72908 -7.457359 
L 160.452161 -8.880031 
L 161.813198 -9.590491 
L 157.64707 -13.787684 
L 165.8171 -15.916882 
L 166.609287 -16.454211 
L 171.552855 -15.680572 
L 178.504691 -12.048472 
L 189.172003 -4.103977 
L 200.349807 -3.227814 
L 201.306539 -1.276777 
L 204.676264 -1.135673 
L 204.570754 -0.6575 
L 204.84282 -0.744253 
L 205.318277 0.785113 
L 205.888628 0.950359 
L 205.691543 1.14366 
L 206.258241 1.713059 
L 206.225062 1.953353 
L 206.081064 2.128235 
L 205.97224 1.705144 
L 205.834876 2.166447 
L 206.247958 2.301743 
L 206.050874 2.61932 
L 207.714143 2.904366 
L 208.011759 3.312482 
L 207.22508 3.344154 
L 207.812351 3.459479 
L 207.64745 3.808901 
L 208.011759 3.751065 
L 208.051906 4.340092 
L 208.41787 4.347322 
L 208.264915 4.579693 
L 209.069174 4.388977 
L 209.588431 5.386979 
L 211.459731 6.62803 
L 210.766621 6.37603 
L 210.938489 7.348215 
L 211.696628 8.070296 
L 211.390054 9.288452 
L 210.945787 8.589951 
L 210.772924 9.433042 
L 211.226813 9.485023 
L 211.863522 10.997693 
L 211.403659 10.568573 
L 211.419915 10.710236 
L 212.736133 11.821329 
L 213.105746 13.438824 
L 214.804644 15.499416 
L 215.986686 15.259257 
L 216.123716 15.713335 
L 216.50229 15.230339 
L 216.92234 15.432418 
L 216.027497 16.599109 
L 217.211994 16.817368 
L 217.310557 17.569699 
L 221.244721 22.391114 
L 231.628234 23.734761 
L 231.960701 23.385212 
L 233.798316 26.450473 
L 231.110787 34.841359 
L 218.880599 39.07068 
L 206.8828 40.830113 
L 203.319867 42.652504 
L 200.983975 45.552938 
L 200.325789 47.12426 
L 199.240328 47.735039 
L 198.461628 47.695254 
L 197.400604 46.347779 
L 195.82087 46.564854 
L 192.183144 46.192791 
L 191.102738 45.700493 
L 186.958941 45.800179 
L 186.005372 46.235855 
L 183.957703 45.31313 
L 182.947243 46.133987 
L 183.302464 46.362208 
L 182.757204 47.147869 
L 182.733606 47.893309 
L 183.136655 48.37205 
L 183.008134 48.931457 
L 182.62068 48.897792 
L 182.422213 49.474251 
L 181.41605 50.173704 
L 181.101845 48.652257 
L 179.651585 46.740941 
L 179.677132 47.407767 
L 179.42663 45.593874 
L 177.33137 43.986531 
L 176.131613 42.335131 
L 175.89704 41.294437 
L 174.977314 40.330001 
L 175.135577 39.753712 
L 174.67671 39.320806 
L 174.839951 38.767241 
L 174.399996 38.521786 
L 173.894679 36.913068 
L 173.143503 36.477239 
L 173.080133 35.765316 
L 172.720138 35.839328 
L 172.222453 34.983504 
L 170.384992 33.640729 
L 169.648086 33.518001 
L 169.801371 33.725587 
L 169.065129 33.337954 
L 166.676896 30.131191 
L 166.295338 29.259187 
L 166.663625 28.882226 
L 166.4108 27.428424 
L 165.685876 26.335821 
L 165.989367 26.353029 
L 166.548159 24.655773 
L 166.252594 24.813971 
L 166.019285 23.117802 
L 165.148998 22.136839 
L 165.14402 21.498411 
L 163.734572 18.814752 
L 161.625409 17.313 
L 161.676898 17.025175 
L 161.341291 17.266971 
L 159.562757 16.347236 
L 159.673921 16.034444 
L 158.417954 14.301015 
L 158.858238 14.215467 
L 158.799513 12.929322 
L 157.552311 10.937446 
L 156.598412 10.371313 
L 156.572865 9.346288 
L 155.825338 8.971045 
L 153.865448 5.604549 
L 150.324907 0.940545 
L 150.539906 0.749998 
L 149.869688 0.47425 
L 148.862371 0.678909 
L 148.472516 0.387496 
L 148.21936 0.56083 
L 148.305626 0.678909 
L 148.080341 0.852243 
z
" clip-path="url(#p67bf130c98)" style="fill: #eeeeee; stroke: #000000; stroke-width: 0.3"/>
    <path d="M 177.206926 47.951078 
L 177.810566 48.580499 
L 178.339958 48.715054 
L 178.450833 48.298706 
L 178.957419 48.758393 
L 178.925296 49.274677 
L 178.546921 48.809169 
L 178.015698 48.908199 
z
" clip-path="url(#p67bf130c98)" style="fill: #eeeeee; stroke: #000000; stroke-width: 0.3"/>
    <path d="M 177.524475 47.970972 
L 177.905699 47.703486 
L 177.57026 47.523438 
L 177.629981 47.455103 
L 177.945186 47.627405 
L 178.204824 48.523788 
z
" clip-path="url(#p67bf130c98)" style="fill: #eeeeee; stroke: #000000; stroke-width: 0.3"/>
    <path d="M 155.738742 10.941922 
L 155.951417 10.697498 
L 155.899989 10.943986 
L 156.457069 11.34522 
L 155.934167 11.178426 
z
" clip-path="url(#p67bf130c98)" style="fill: #eeeeee; stroke: #000000; stroke-width: 0.3"/>
    <path d="M 157.594117 11.801532 
L 157.615685 11.693094 
L 157.809116 11.685001 
L 157.921594 11.895688 
z
" clip-path="url(#p67bf130c98)" style="fill: #eeeeee; stroke: #000000; stroke-width: 0.3"/>
    <path d="M 156.513141 11.329555 
L 156.693305 11.279981 
L 157.319393 11.795338 
L 156.667424 11.320261 
z
" clip-path="url(#p67bf130c98)" style="fill: #eeeeee; stroke: #000000; stroke-width: 0.3"/>
    <path d="M 155.946773 10.278366 
L 156.011806 10.132745 
L 156.143858 10.0305 
L 156.226475 10.669613 
z
" clip-path="url(#p67bf130c98)" style="fill: #eeeeee; stroke: #000000; stroke-width: 0.3"/>
    <path d="M 208.596705 3.982062 
L 209.122261 3.753819 
L 209.544966 3.866394 
z
" clip-path="url(#p67bf130c98)" style="fill: #eeeeee; stroke: #000000; stroke-width: 0.3"/>
    <path d="M 157.397032 11.151919 
L 157.46306 11.104583 
L 157.498893 11.473455 
z
" clip-path="url(#p67bf130c98)" style="fill: #eeeeee; stroke: #000000; stroke-width: 0.3"/>
    <path d="M 157.106714 11.356062 
L 157.16511 11.259498 
L 157.267965 11.312342 
z
" clip-path="url(#p67bf130c98)" style="fill: #eeeeee; stroke: #000000; stroke-width: 0.3"/>
    <path d="M 156.901006 11.570882 
L 157.421915 12.003614 
L 157.403336 12.143555 
z
" clip-path="url(#p67bf130c98)" style="fill: #eeeeee; stroke: #000000; stroke-width: 0.3"/>
    <path d="M 61.795504 58.346171 
L 62.644994 57.882186 
L 63.362808 55.890268 
L 65.544265 52.802053 
L 70.01505 47.958235 
L 71.117786 35.230034 
L 72.073042 33.399229 
L 70.441901 31.641217 
L 70.336134 31.055799 
L 70.601179 30.80047 
L 68.86933 28.513874 
L 68.818343 26.389486 
L 68.035081 22.149614 
L 72.133297 20.25 
L 104.734213 36.953505 
L 104.746852 52.922505 
L 101.119241 52.993988 
L 100.35318 53.682916 
L 100.562181 55.120237 
L 99.342724 56.576353 
L 99.414778 57.288895 
L 98.138433 57.904153 
L 98.405586 59.084068 
L 98.883848 59.612429 
L 97.531654 60.386944 
L 96.961956 61.13271 
L 97.747399 63.018385 
L 96.509823 64.017623 
L 95.879446 65.306509 
L 96.395209 65.958495 
L 97.087949 65.912588 
L 97.491626 65.51932 
L 98.473428 66.078946 
L 98.176358 66.70481 
L 98.629758 67.967025 
L 98.523991 68.535175 
L 99.153104 68.355923 
L 98.864886 70.216459 
L 99.803288 71.188589 
L 100.386049 71.218539 
L 100.416806 72.525788 
L 100.166932 73.236139 
L 98.479327 72.901459 
L 95.525489 74.430919 
L 95.509899 75.869547 
L 94.671784 76.276153 
L 94.105457 77.238118 
L 93.626775 77.226967 
L 91.870489 79.586028 
L 91.225361 80.077015 
L 90.711286 79.994051 
L 90.276428 80.770313 
L 84.514551 81.417163 
L 83.894286 81.991655 
L 84.931291 82.729112 
L 82.750674 85.382306 
L 78.879928 85.64813 
L 75.478169 87.515222 
L 74.698205 86.940294 
L 74.431057 86.134738 
L 73.793092 86.500244 
L 73.705868 86.970244 
L 71.889323 87.75 
L 70.078253 87.601569 
L 70.411984 86.462865 
L 69.913919 86.264154 
L 68.865959 83.557947 
L 65.465044 80.642433 
L 63.826319 78.656746 
L 64.780732 77.216692 
L 67.189733 77.455409 
L 70.894457 77.161276 
L 68.654009 74.837085 
L 68.203561 72.121915 
L 68.67002 70.648637 
L 68.38812 70.014905 
L 68.569313 69.582291 
L 68.318595 68.306083 
L 67.70128 68.017525 
L 67.426964 66.048561 
L 66.301895 65.419748 
L 65.744839 64.090417 
L 64.304577 64.103755 
L 62.438944 61.455151 
z
" clip-path="url(#p67bf130c98)" style="fill: #eeeeee; stroke: #000000; stroke-width: 0.3"/>
    <path d="M -28.43724 4.002938 
L -28.422493 -1.95073 
L -24.103614 -4.897511 
L -23.003451 -4.872201 
L -22.177131 -5.404361 
L -20.695455 -5.138283 
L -19.185283 -5.640878 
L -16.506862 -5.84783 
L -16.364394 -5.463491 
L -15.623557 -5.463491 
L -14.141876 -7.385179 
L -10.865091 -9.632075 
L -7.901733 -10.489442 
L -7.958722 -11.021602 
L -7.531313 -11.524201 
L -8.251919 -12.456605 
L -8.706164 -12.430593 
L -8.593445 -13.1369 
L -8.015707 -13.357193 
L -7.958722 -14.451078 
L -4.567959 -15.071929 
L -5.020084 -16.146634 
L -4.785482 -16.263588 
L -3.297188 -16.500117 
L 2.026671 -16.320205 
L 2.086717 -16.558702 
L 1.62215 -16.649204 
L 1.888883 -17.450715 
L 2.753755 -18.03231 
L 1.158219 -19.081388 
L 0.606007 -19.890442 
L 0.847666 -20.4258 
L 0.135332 -21.177797 
L 0.3673 -22.516528 
L -0.160474 -23.142388 
L 0.154082 -24.736448 
L -0.416668 -25.976915 
L 0.01819 -26.430515 
L -0.667386 -26.925326 
L -0.253178 -27.537416 
L -1.982919 -28.64683 
L -2.100236 -29.009361 
L -0.21898 -29.179942 
L 1.68218 -30.173811 
L 2.749886 -31.519171 
L 3.692834 -31.90543 
L 4.407182 -31.689924 
L 5.006394 -32.396683 
L 6.622548 -31.99201 
L 8.356823 -33.733092 
L 12.451786 -35.16727 
L 16.548742 -35.562133 
L 17.564686 -35.384497 
L 18.919721 -36.282323 
L 19.763797 -35.999172 
L 20.119148 -36.298156 
L 21.151347 -36.149781 
L 22.755225 -36.741904 
L 26.478586 -36.649647 
L 28.587451 -35.58193 
L 30.337981 -36.382846 
L 32.226865 -36.678908 
L 33.11872 -37.485331 
L 35.290955 -36.626922 
L 36.450235 -36.951902 
L 36.408429 -37.471904 
L 38.756515 -37.064993 
L 38.65399 -36.626579 
L 39.204432 -36.455657 
L 40.528278 -36.914722 
L 42.034116 -36.836192 
L 42.193997 -36.399826 
L 41.261919 -36.177946 
L 41.332288 -35.664881 
L 40.270421 -35.086239 
L 41.036062 -34.682476 
L 40.562016 -32.133122 
L 40.951786 -30.907191 
L 40.777757 -30.006763 
L 41.33608 -29.654156 
L 40.802619 -28.917899 
L 40.541789 -27.141089 
L 38.890842 -26.15431 
L 38.620741 -25.436527 
L 37.610286 -24.80334 
L 37.456903 -23.952534 
L 38.456404 -21.150034 
L 39.931639 -20.569971 
L 40.730985 -19.47892 
L 40.928188 -18.172872 
L 43.838201 -16.244789 
L 45.773576 -8.448724 
L 44.822955 -7.975885 
L 46.376984 -5.823514 
L 47.022951 -3.793888 
L 46.822377 -0.151842 
L 47.463709 1.710224 
L 46.595676 3.975615 
L 47.351203 5.813197 
L 47.309066 6.679084 
L 47.06214 7.307571 
L 45.622302 7.949171 
L 45.195027 8.725873 
L 47.76415 12.268783 
L 47.86233 14.278514 
L 48.520096 14.72862 
L 48.719407 15.383554 
L 49.405403 15.898911 
L 50.58188 15.548491 
L 54.016084 16.642494 
L 55.758892 19.942754 
L 37.468702 31.13078 
L 30.584915 37.149484 
L 20.5503 39.155611 
L 19.616954 38.478921 
L 20.255758 37.409512 
L 20.002936 35.58122 
L 16.747816 34.582748 
L 15.934139 33.663301 
L 15.405738 33.919836 
L 14.210718 33.534765 
L 13.320356 32.294404 
L 11.668564 31.696743 
L 11.635699 30.161488 
L -12.696685 13.69167 
z
" clip-path="url(#p67bf130c98)" style="fill: #eeeeee; stroke: #000000; stroke-width: 0.3"/>
    <path d="M 127.457051 123.354856 
L 128.062143 119.120065 
L 129.030042 117.31877 
L 129.057852 115.938507 
L 129.903974 115.582837 
L 130.246552 114.621202 
L 131.222666 114.187052 
L 134.456504 110.530582 
L 134.073685 109.684911 
L 133.574989 109.73847 
L 133.219348 109.251201 
L 132.82705 109.56162 
L 132.169704 109.083316 
L 132.752045 107.356346 
L 132.305388 106.501385 
L 132.982957 105.071826 
L 132.927338 104.536468 
L 132.695578 104.662382 
L 133.123276 103.862511 
L 134.225592 103.384206 
L 135.485078 103.960665 
L 136.521239 103.282338 
L 137.141505 104.204847 
L 138.111721 104.569147 
L 138.192413 104.116858 
L 138.942668 103.643473 
L 140.510815 103.482906 
L 141.492617 102.990067 
L 142.174402 103.508157 
L 143.504261 103.564448 
L 145.605446 101.635599 
L 145.926534 103.024712 
L 146.416591 103.036519 
L 146.202534 103.454928 
L 147.373535 103.91137 
L 147.135456 104.718783 
L 147.350357 105.966027 
L 149.150892 108.465324 
L 149.346411 108.947123 
L 149.11002 109.496259 
L 149.684353 111.31799 
L 149.546561 112.428936 
L 148.756906 113.552885 
L 148.83402 114.215471 
L 147.566522 114.847676 
L 147.162846 115.975669 
L 146.190735 116.873254 
L 145.928218 117.958844 
L 145.14699 118.962231 
L 145.391388 120.079733 
L 145.19039 123.667894 
L 132.441068 123.597067 
L 130.648541 123.937216 
L 129.872792 125.116802 
L 129.021827 125.657625 
L 128.559787 125.027171 
L 127.551859 125.299992 
z
" clip-path="url(#p67bf130c98)" style="fill: #eeeeee; stroke: #000000; stroke-width: 0.3"/>
    <path d="M 41.658028 100.276288 
L 42.033035 98.777573 
L 42.834909 97.600281 
L 43.263028 95.758219 
L 42.917922 95.299809 
L 43.023685 94.760073 
L 45.04502 92.717113 
L 46.480223 91.797776 
L 46.869573 90.683337 
L 47.220578 90.713172 
L 48.314466 89.782579 
L 48.591306 90.326245 
L 49.753881 90.345264 
L 50.090979 89.261646 
L 51.958512 90.912649 
L 52.204594 92.145464 
L 52.850562 92.22646 
L 53.983639 91.316413 
L 54.099097 90.339363 
L 55.364906 89.479377 
L 54.812063 88.701364 
L 55.971685 87.377502 
L 55.963258 86.774156 
L 56.66906 85.751309 
L 56.811484 83.95067 
L 57.532457 83.484388 
L 57.389609 83.006193 
L 58.160726 83.022699 
L 59.125254 82.248841 
L 59.548733 80.244464 
L 59.373444 79.755119 
L 60.759767 79.060945 
L 60.901347 76.932619 
L 61.73609 76.47541 
L 62.159573 74.495625 
L 63.040456 72.823415 
L 63.967903 71.725478 
L 64.714577 71.885935 
L 66.552193 70.615408 
L 66.249223 69.891394 
L 66.764566 67.910627 
L 66.025895 67.234923 
L 64.810229 67.096983 
L 64.304577 64.103755 
L 65.744839 64.090417 
L 66.301895 65.419748 
L 67.379773 65.961557 
L 67.70128 68.017525 
L 68.318595 68.306083 
L 68.67002 70.648637 
L 68.203561 72.121915 
L 68.680555 74.917637 
L 70.894457 77.161276 
L 67.189733 77.455409 
L 64.780732 77.216692 
L 63.819576 78.593787 
L 65.465044 80.642433 
L 68.328706 82.861477 
L 69.913919 86.264154 
L 70.411984 86.462865 
L 69.881474 88.166442 
L 69.029876 88.768041 
L 67.188465 92.698754 
L 65.618846 93.880196 
L 66.557248 94.616562 
L 66.557248 96.180342 
L 66.159471 97.04634 
L 66.726218 97.579515 
L 66.964297 99.874525 
L 68.092314 100.757465 
L 68.488828 101.990609 
L 68.890821 102.238835 
L 68.222943 102.395464 
L 68.463126 102.988755 
L 72.570687 107.314373 
L 72.56226 108.806781 
L 73.040938 110.022653 
L 72.619567 110.147479 
L 72.453965 110.899146 
L 72.829408 112.154698 
L 72.478827 112.427624 
L 72.250439 111.933689 
L 70.998536 111.25405 
L 70.08584 111.068453 
L 69.492544 111.298535 
L 68.983944 110.798699 
L 67.678526 110.939261 
L 67.533995 110.475821 
L 67.158128 110.689398 
L 66.331812 110.082989 
L 65.805094 110.407397 
L 61.163864 110.284978 
L 61.123411 109.941551 
L 60.630826 109.76842 
L 58.943218 109.964944 
L 54.488447 109.602061 
L 53.24244 109.69475 
L 53.121926 110.265088 
L 47.695044 110.265744 
L 46.960589 109.845803 
L 47.5513 106.522502 
L 47.444131 105.587323 
L 46.272574 104.455747 
L 46.996214 104.079992 
L 46.207876 104.197901 
L 45.880399 103.268746 
L 46.199913 103.56257 
L 46.186973 103.035343 
L 46.68997 103.268746 
L 46.411928 102.890753 
L 46.771259 102.685747 
L 46.178015 102.673526 
L 46.731112 101.931821 
L 46.016764 102.450791 
L 45.605675 102.034582 
L 45.825653 102.550456 
L 45.440445 102.376948 
L 45.599042 102.861835 
L 45.055233 102.861835 
L 44.984561 102.370751 
L 44.513752 102.657003 
L 43.537291 102.079512 
L 43.392629 100.165265 
L 43.030978 99.799663 
L 43.115916 100.202102 
L 42.833564 99.96284 
L 42.792088 100.215355 
L 42.248613 99.382768 
L 42.524002 100.335156 
z
" clip-path="url(#p67bf130c98)" style="fill: #eeeeee; stroke: #000000; stroke-width: 0.3"/>
    <path d="M 7.584813 57.89071 
L 7.863341 55.990389 
L 10.831717 56.059684 
L 12.389961 54.773421 
L 19.193055 54.538638 
L 19.329155 54.169199 
L 21.259894 54.475794 
L 21.339115 53.87518 
L 22.642005 53.074214 
L 23.516357 50.480921 
L 24.019477 49.982942 
L 24.201513 38.450502 
L 30.584915 37.149484 
L 37.468702 31.13078 
L 55.758892 19.942754 
L 61.929081 21.371216 
L 64.921471 23.754436 
L 68.035081 22.149614 
L 68.818343 26.389486 
L 68.86933 28.513874 
L 70.601179 30.80047 
L 70.336134 31.055799 
L 70.441901 31.641217 
L 72.073042 33.399229 
L 71.117786 35.230034 
L 70.041172 47.864891 
L 65.544265 52.802053 
L 63.362808 55.890268 
L 62.644994 57.882186 
L 61.795504 58.346171 
L 62.438944 61.455151 
L 61.307975 61.432634 
L 60.892919 62.115335 
L 59.319929 62.364543 
L 59.168654 62.855855 
L 58.173369 63.406734 
L 57.813092 64.162229 
L 56.120852 63.939689 
L 53.602716 62.892032 
L 50.483701 62.846891 
L 48.220079 63.375692 
L 46.061375 65.27383 
L 42.34738 64.756942 
L 40.00622 63.166055 
L 38.86008 62.973024 
L 37.098734 63.957617 
L 36.308659 63.937066 
L 35.780677 64.450241 
L 35.244268 64.453084 
L 32.655551 61.625444 
L 32.004107 61.722832 
L 29.473753 60.709821 
L 28.274517 61.297647 
L 26.632421 61.173261 
L 25.114629 61.583471 
L 23.782246 62.432857 
L 23.631391 64.449585 
L 22.980368 65.489589 
L 21.808102 66.47265 
L 21.654724 69.063325 
L 21.911761 69.680441 
L 21.623962 69.950855 
L 18.557618 66.975004 
L 16.623931 67.664478 
L 16.979992 68.679892 
L 16.7061 69.101579 
L 15.326521 67.217435 
L 16.114068 66.869637 
L 15.55996 65.678901 
L 14.999953 65.600206 
L 14.478291 66.099933 
L 13.33721 65.989756 
L 10.971189 64.29678 
L 10.971189 62.8752 
L 12.133764 62.969746 
L 11.100554 62.463788 
L 10.61808 61.832353 
L 9.384296 61.519531 
L 8.466328 60.038161 
L 8.546389 59.139045 
z
" clip-path="url(#p67bf130c98)" style="fill: #eeeeee; stroke: #000000; stroke-width: 0.3"/>
    <path d="M -15.554553 75.32446 
L -15.182902 73.551148 
L -15.47976 72.58667 
L -14.779645 72.379871 
L -14.314026 71.108142 
L -14.594661 69.683719 
L -15.105156 69.389261 
L -13.788152 68.751594 
L -12.450708 68.635952 
L -11.631976 68.031515 
L -11.337226 67.307281 
L -11.002761 67.363243 
L -11.188271 66.822419 
L -10.925754 66.405102 
L -11.325321 65.640647 
L -10.397348 65.614195 
L -10.210786 65.198519 
L -10.680303 63.720652 
L -10.304224 63.690811 
L -9.256162 62.318856 
L -9.012501 62.525546 
L -9.231194 62.797596 
L -7.102412 63.719556 
L -7.098616 63.309345 
L -6.283573 63.195129 
L -6.439798 61.481929 
L -5.545114 61.866893 
L -4.842789 61.677036 
L -4.728807 60.201131 
L -3.628387 59.262995 
L -3.075124 59.015099 
L -1.81205 59.542914 
L -1.339271 59.436782 
L -1.180833 58.212275 
L 0.04284 58.104722 
L 2.563924 56.834635 
L 4.026936 55.641276 
L 5.053614 55.635154 
L 5.225535 55.962186 
L 5.996232 55.6956 
L 7.851966 56.349773 
L 7.608831 58.104722 
L 8.546389 59.139045 
L 8.466328 60.038161 
L 9.384296 61.519531 
L 10.61808 61.832353 
L 11.100554 62.463788 
L 12.133764 62.969746 
L 10.971189 62.8752 
L 10.971189 64.29678 
L 13.33721 65.989756 
L 14.478291 66.099933 
L 14.999953 65.600206 
L 15.55996 65.678901 
L 16.114068 66.869637 
L 15.326521 67.217435 
L 16.7061 69.101579 
L 16.287253 70.07983 
L 15.159235 71.088247 
L 13.491013 71.249906 
L 12.830719 70.889976 
L 12.385326 71.672249 
L 11.675728 71.686238 
L 11.684155 72.192196 
L 11.292277 72.293193 
L 11.517293 72.757944 
L 10.962342 72.555189 
L 10.8886 73.003547 
L 8.949434 73.176568 
L 8.945222 72.880583 
L 5.731293 72.204878 
L 4.373306 73.283467 
L 3.58639 72.869432 
L -4.606712 72.90255 
L -4.994696 74.441084 
L -4.322179 75.342603 
L -4.622832 75.672257 
L -4.270771 76.02115 
L -4.185023 77.874033 
L -4.435321 78.308838 
L -4.002779 79.287199 
L -4.30638 79.69686 
L -6.145467 77.481315 
L -6.500056 77.796429 
L -6.563051 77.541756 
L -8.348203 77.395623 
L -9.959542 77.893052 
L -10.860227 78.888576 
L -11.392425 78.583732 
L -11.426032 78.202816 
L -12.123721 78.469291 
L -12.594082 78.16292 
L -12.602297 77.790528 
L -13.285663 77.543068 
L -13.274496 76.953821 
L -13.709774 76.658381 
L -13.909929 75.882665 
L -15.065128 75.852935 
z
" clip-path="url(#p67bf130c98)" style="fill: #eeeeee; stroke: #000000; stroke-width: 0.3"/>
    <path d="M 6.284031 72.323143 
L 8.945222 72.880583 
L 8.949434 73.176568 
L 10.636618 72.924848 
L 10.062709 75.50776 
L 12.440105 77.283259 
L 12.368891 79.146637 
L 13.467415 81.02969 
L 13.664618 83.497286 
L 13.589192 89.828706 
L 13.207006 89.849252 
L 13.346058 91.176616 
L 14.227997 92.87243 
L 13.564616 93.140513 
L 11.794178 93.620235 
L 10.971189 92.672192 
L 10.001606 92.180224 
L 9.078374 90.524736 
L 8.977667 89.928823 
L 9.399462 89.683113 
L 9.593718 88.446255 
L 8.981883 87.681796 
L 9.457613 86.856349 
L 9.300863 84.722122 
L 9.86719 84.324374 
L 8.452951 82.309502 
L 9.022755 81.920062 
L 8.719574 81.237907 
L 9.127678 79.65784 
L 8.639619 79.272334 
L 7.885993 79.525696 
L 8.192224 79.207954 
L 7.899789 78.919071 
L 8.501305 78.861248 
L 8.025257 78.574658 
L 8.376364 78.549302 
L 8.578206 75.926275 
L 6.601959 74.444583 
L 7.027334 72.629404 
z
" clip-path="url(#p67bf130c98)" style="fill: #eeeeee; stroke: #000000; stroke-width: 0.3"/>
    <path d="M -6.340142 91.434678 
L -6.255238 90.615022 
L -5.159029 88.905761 
L -5.031459 87.373568 
L -4.416252 85.824759 
L -3.682111 85.415644 
L -3.682535 84.887495 
L -3.257156 84.699608 
L -3.718351 81.677737 
L -4.351888 81.122049 
L -3.882897 80.200195 
L -4.435321 78.308838 
L -4.185023 77.874033 
L -4.270771 76.02115 
L -4.622832 75.672257 
L -4.322179 75.342603 
L -4.994696 74.441084 
L -4.606712 72.90255 
L 3.58639 72.869432 
L 4.373306 73.283467 
L 5.731293 72.204878 
L 7.027334 72.629404 
L 6.601959 74.444583 
L 8.578206 75.926275 
L 8.376364 78.549302 
L 8.025257 78.574658 
L 8.501305 78.861248 
L 7.899789 78.919071 
L 8.192224 79.207954 
L 7.885993 79.525696 
L 8.639619 79.272334 
L 9.127678 79.65784 
L 8.719574 81.237907 
L 9.022755 81.920062 
L 8.452951 82.309502 
L 9.86719 84.324374 
L 9.300863 84.722122 
L 9.457613 86.856349 
L 8.981883 87.681796 
L 9.593718 88.446255 
L 9.399462 89.683113 
L 8.977667 89.928823 
L 9.065312 90.484295 
L 10.001606 92.180224 
L 10.971189 92.672192 
L 11.794178 93.620235 
L 10.854215 94.929105 
L 7.953362 95.076791 
L 3.701461 97.366793 
L 0.362648 98.180619 
L -1.117141 99.322868 
L -1.586626 99.381905 
L -2.646695 98.615589 
L -5.757569 97.889206 
L -4.318387 97.59438 
L -4.411935 96.808283 
L -4.169644 96.697011 
L -4.427733 95.703023 
L -5.049157 95.702367 
L -5.126372 95.273028 
L -5.391209 95.296421 
z
" clip-path="url(#p67bf130c98)" style="fill: #eeeeee; stroke: #000000; stroke-width: 0.3"/>
    <path d="M 107.618101 -8.253512 
L 108.510995 -9.589836 
L 108.866632 -10.801558 
L 108.271652 -13.185429 
L 109.247978 -14.305994 
L 109.502663 -14.487708 
L 109.665904 -13.958928 
L 110.525905 -13.839128 
L 112.829197 -14.319023 
L 118.348876 -13.322396 
L 118.861161 -12.654881 
L 119.733772 -12.473112 
L 120.518787 -12.727176 
L 120.820717 -12.129544 
L 122.848625 -12.063616 
L 125.310184 -10.979033 
L 127.247512 -11.527437 
L 129.556446 -13.121349 
L 129.946297 -12.627685 
L 130.44996 -12.717192 
L 130.004363 -12.887772 
L 130.548168 -13.193644 
L 130.674911 -13.817266 
L 130.759188 -13.657016 
L 130.897877 -13.586096 
L 130.749235 -13.862707 
L 131.457276 -13.67285 
L 133.243309 -14.192678 
L 131.485147 -13.412935 
L 132.266847 -13.352519 
L 133.835553 -13.79661 
L 133.260229 -14.182352 
L 133.746967 -14.282186 
L 135.619926 -13.586096 
L 136.914577 -13.976314 
L 137.071845 -13.973387 
L 137.201907 -13.914346 
L 138.240413 -12.958861 
L 136.976287 -13.961339 
L 136.849544 -13.208103 
L 136.476612 -12.914795 
L 137.126922 -12.501687 
L 137.578157 -12.627685 
L 137.492555 -12.252445 
L 137.860843 -11.936413 
L 138.582489 -12.288246 
L 138.5805 -12.832864 
L 138.270937 -12.958861 
L 138.777914 -12.858854 
L 139.879459 -11.968605 
L 141.207289 -12.368113 
L 140.144231 -11.931941 
L 140.408334 -11.874622 
L 141.206624 -12.18359 
L 141.544387 -11.948807 
L 141.766024 -12.281359 
L 141.627335 -12.136943 
L 141.318107 -12.162938 
L 141.949838 -12.54162 
L 142.047381 -11.903366 
L 143.160872 -12.368113 
L 143.540441 -12.252445 
L 144.14563 -12.206657 
L 146.397421 -13.040065 
L 149.196151 -5.323225 
L 148.583999 -4.566888 
L 148.127121 -2.133333 
L 147.253185 -0.373659 
L 147.354047 1.083413 
L 146.4539 1.862124 
L 146.630081 2.128235 
L 144.616109 0.87858 
L 142.436242 -1.428634 
L 142.229205 -3.206037 
L 140.341976 -5.178978 
L 139.782577 -7.528711 
L 138.803461 -5.756473 
L 139.796512 -4.811658 
L 139.977007 -3.134778 
L 140.716567 -2.311659 
L 140.969393 -1.468915 
L 143.764071 1.418033 
L 143.91769 1.863156 
L 143.434271 1.728034 
L 143.91769 2.474903 
L 143.527505 2.474903 
L 144.922022 4.184144 
L 144.915385 4.699497 
L 145.56503 5.647925 
L 145.369939 5.925226 
L 145.342068 6.676051 
L 147.809266 10.603689 
L 150.247324 15.785042 
L 151.671323 17.44036 
L 152.669152 17.971606 
L 152.889166 18.314365 
L 151.753268 17.997829 
L 151.630728 18.248813 
L 151.653397 20.028775 
L 151.890298 20.464608 
L 152.492755 22.418395 
L 153.270081 23.249345 
L 154.656771 23.673435 
L 155.528191 24.853672 
L 157.385531 26.081753 
L 157.337642 26.379642 
L 135.125225 26.381177 
L 135.354873 25.628745 
L 135.075502 25.401395 
L 134.362536 26.385331 
L 108.811013 26.381177 
L 108.811013 -4.017409 
z
M 150.522656 23.035431 
L 152.190164 21.542029 
L 151.40786 22.222941 
z
M 148.751056 24.247386 
L 148.957632 23.794221 
L 149.095134 23.484179 
z
M 146.182181 25.549914 
L 148.36182 25.101272 
L 147.304527 25.307306 
z
" clip-path="url(#p67bf130c98)" style="fill: #eeeeee; stroke: #000000; stroke-width: 0.3"/>
    <path d="M 147.576682 0.996833 
L 147.761487 0.945194 
L 148.110531 1.31699 
L 147.693139 1.274476 
z
" clip-path="url(#p67bf130c98)" style="fill: #eeeeee; stroke: #000000; stroke-width: 0.3"/>
    <path d="M 145.228596 2.994732 
L 145.697086 3.086647 
L 145.789985 3.286318 
L 145.310879 3.117633 
z
" clip-path="url(#p67bf130c98)" style="fill: #eeeeee; stroke: #000000; stroke-width: 0.3"/>
    <path d="M 141.237814 -12.336441 
L 141.930924 -12.727176 
L 142.496627 -12.638357 
L 141.921967 -12.669856 
z
" clip-path="url(#p67bf130c98)" style="fill: #eeeeee; stroke: #000000; stroke-width: 0.3"/>
    <path d="M 148.360536 1.154773 
L 148.564833 1.16138 
L 148.45399 1.367702 
z
" clip-path="url(#p67bf130c98)" style="fill: #eeeeee; stroke: #000000; stroke-width: 0.3"/>
    <path d="M 145.39781 6.09856 
L 145.481422 6.09856 
L 145.595555 6.444712 
z
" clip-path="url(#p67bf130c98)" style="fill: #eeeeee; stroke: #000000; stroke-width: 0.3"/>
    <path d="M 142.603796 -12.627685 
L 142.721582 -12.610814 
L 143.444223 -12.310277 
z
" clip-path="url(#p67bf130c98)" style="fill: #eeeeee; stroke: #000000; stroke-width: 0.3"/>
    <path d="M 141.380482 -12.076874 
L 141.450823 -12.064479 
L 141.460111 -12.021276 
z
" clip-path="url(#p67bf130c98)" style="fill: #eeeeee; stroke: #000000; stroke-width: 0.3"/>
    <path d="M 45.068174 114.427863 
L 45.551928 113.442941 
L 46.161096 112.708986 
L 46.342251 112.805033 
L 46.45108 112.790228 
L 46.68997 112.658206 
L 46.130571 112.470413 
L 46.956067 111.241414 
L 46.914591 109.520642 
L 47.01284 109.912916 
L 47.695044 110.265744 
L 53.121926 110.265088 
L 53.180077 115.200064 
L 47.851795 115.1817 
L 47.503741 115.514417 
L 46.581142 114.632695 
L 46.037007 115.014821 
L 45.794133 114.632695 
L 45.271231 114.724957 
z
" clip-path="url(#p67bf130c98)" style="fill: #eeeeee; stroke: #000000; stroke-width: 0.3"/>
    <path d="M 41.380316 104.953718 
L 41.94071 104.776082 
L 42.297721 103.663783 
L 43.339542 103.560337 
L 43.455668 104.081887 
L 42.375361 105.901287 
L 41.413165 105.581473 
z
" clip-path="url(#p67bf130c98)" style="fill: #eeeeee; stroke: #000000; stroke-width: 0.3"/>
    <path d="M 29.868827 125.488864 
L 29.927553 125.415879 
L 29.910633 125.669254 
z
" clip-path="url(#p67bf130c98)" style="fill: #eeeeee; stroke: #000000; stroke-width: 0.3"/>
    <path d="M 142.242366 26.380932 
L 143.103532 26.380742 
L 145.924116 26.380742 
L 145.577318 27.345663 
L 143.780661 27.584232 
z
" clip-path="url(#p67bf130c98)" style="fill: #eeeeee; stroke: #000000; stroke-width: 0.3"/>
   </g>
   <g id="PatchCollection_2">
    <defs>
     <path id="m97bfc8f7fc" d="M 61.795504 -49.653829 
L 62.644994 -50.117814 
L 63.362808 -52.109732 
L 65.544265 -55.197947 
L 70.01505 -60.041765 
L 71.117786 -72.769966 
L 72.073042 -74.600771 
L 70.441901 -76.358783 
L 70.336134 -76.944201 
L 70.601179 -77.19953 
L 68.86933 -79.486126 
L 68.818343 -81.610514 
L 68.035081 -85.850386 
L 72.133297 -87.75 
L 104.734213 -71.046495 
L 104.746852 -55.077495 
L 101.119241 -55.006012 
L 100.35318 -54.317084 
L 100.562181 -52.879763 
L 99.342724 -51.423647 
L 99.414778 -50.711105 
L 98.138433 -50.095847 
L 98.405586 -48.915932 
L 98.883848 -48.387571 
L 97.531654 -47.613056 
L 96.961956 -46.86729 
L 97.747399 -44.981615 
L 96.509823 -43.982377 
L 95.879446 -42.693491 
L 96.395209 -42.041505 
L 97.087949 -42.087412 
L 97.491626 -42.48068 
L 98.473428 -41.921054 
L 98.176358 -41.29519 
L 98.629758 -40.032975 
L 98.523991 -39.464825 
L 99.153104 -39.644077 
L 98.864886 -37.783541 
L 99.803288 -36.811411 
L 100.386049 -36.781461 
L 100.416806 -35.474212 
L 100.166932 -34.763861 
L 98.479327 -35.098541 
L 95.525489 -33.569081 
L 95.509899 -32.130453 
L 94.671784 -31.723847 
L 94.105457 -30.761882 
L 93.626775 -30.773033 
L 91.870489 -28.413972 
L 91.225361 -27.922985 
L 90.711286 -28.005949 
L 90.276428 -27.229687 
L 84.514551 -26.582837 
L 83.894286 -26.008345 
L 84.931291 -25.270888 
L 82.750674 -22.617694 
L 78.879928 -22.35187 
L 75.478169 -20.484778 
L 74.698205 -21.059706 
L 74.431057 -21.865262 
L 73.793092 -21.499756 
L 73.705868 -21.029756 
L 71.889323 -20.25 
L 70.078253 -20.398431 
L 70.411984 -21.537135 
L 69.913919 -21.735846 
L 68.865959 -24.442053 
L 65.465044 -27.357567 
L 63.826319 -29.343254 
L 64.780732 -30.783308 
L 67.189733 -30.544591 
L 70.894457 -30.838724 
L 68.654009 -33.162915 
L 68.203561 -35.878085 
L 68.67002 -37.351363 
L 68.38812 -37.985095 
L 68.569313 -38.417709 
L 68.318595 -39.693917 
L 67.70128 -39.982475 
L 67.426964 -41.951439 
L 66.301895 -42.580252 
L 65.744839 -43.909583 
L 64.304577 -43.896245 
L 62.438944 -46.544849 
z
" style="stroke: #dd0000; stroke-width: 0.5"/>
    </defs>
    <g clip-path="url(#p67bf130c98)">
     <use xlink:href="#m97bfc8f7fc" x="0" y="108" style="fill: #ff6b6b; stroke: #dd0000; stroke-width: 0.5"/>
    </g>
   </g>
  </g>
 </g>
 <defs>
  <clipPath id="p67bf130c98">
   <rect x="0" y="0" width="166.542356" height="108"/>
  </clipPath>
 </defs>
</svg>
