<?xml version="1.0" encoding="utf-8" standalone="no"?>
<!DOCTYPE svg PUBLIC "-//W3C//DTD SVG 1.1//EN"
  "http://www.w3.org/Graphics/SVG/1.1/DTD/svg11.dtd">
<svg xmlns:xlink="http://www.w3.org/1999/xlink" width="171.738642pt" height="108pt" viewBox="0 0 171.738642 108" xmlns="http://www.w3.org/2000/svg" version="1.1">
 <metadata>
  <rdf:RDF xmlns:dc="http://purl.org/dc/elements/1.1/" xmlns:cc="http://creativecommons.org/ns#" xmlns:rdf="http://www.w3.org/1999/02/22-rdf-syntax-ns#">
   <cc:Work>
    <dc:type rdf:resource="http://purl.org/dc/dcmitype/StillImage"/>
    <dc:date>2025-09-05T15:49:27.715416</dc:date>
    <dc:format>image/svg+xml</dc:format>
    <dc:creator>
     <cc:Agent>
      <dc:title>Matplotlib v3.10.3, https://matplotlib.org/</dc:title>
     </cc:Agent>
    </dc:creator>
   </cc:Work>
  </rdf:RDF>
 </metadata>
 <defs>
  <style type="text/css">*{stroke-linejoin: round; stroke-linecap: butt}</style>
 </defs>
 <g id="figure_1">
  <g id="patch_1">
   <path d="M 0 108 
L 171.738642 108 
L 171.738642 0 
L 0 0 
z
" style="fill: #ffffff"/>
  </g>
  <g id="axes_1">
   <g id="PatchCollection_1">
    <path d="M 123.488061 19.975474 
L 123.488061 -3.064359 
L 125.726743 -5.293779 
L 129.308496 -10.689039 
L 130.202184 -11.334425 
L 134.909654 -12.12732 
L 136.683641 -14.270642 
L 141.698035 -16.116842 
L 147.922606 -15.907592 
L 157.330862 -26.003063 
L 166.657509 -35.05267 
L 172.578025 -44.07988 
L 172.578031 -55.237077 
L 180.776029 -57.348074 
L 183.075321 -59.613847 
L 184.042027 -59.829221 
L 187.093953 -58.861065 
L 185.790195 -55.810284 
L 185.818807 -54.857562 
L 186.457496 -54.549337 
L 185.998493 -53.64981 
L 186.279568 -51.199194 
L 185.351021 -50.178798 
L 186.647976 -50.228543 
L 186.374931 -50.977998 
L 187.725976 -50.458029 
L 187.740383 -49.94153 
L 185.844408 -50.013019 
L 184.840882 -49.519859 
L 184.242282 -43.883718 
L 181.833072 -40.585684 
L 179.682851 -36.073326 
L 178.037058 -34.663809 
L 177.543171 -32.523788 
L 174.478958 -27.69301 
L 173.176477 -23.557648 
L 166.468337 -13.087819 
L 154.74452 -0.663804 
L 145.50821 4.896472 
L 140.012202 9.576495 
L 129.607426 20.775834 
L 129.489477 20.122338 
L 129.073887 22.078279 
L 128.72656 21.825267 
L 128.772737 22.405027 
L 126.913126 25.098304 
L 126.837795 24.331703 
z
" clip-path="url(#p78a95a6d84)" style="fill: #eeeeee; stroke: #000000; stroke-width: 0.3"/>
    <path d="M 79.783489 13.890097 
L 80.965296 12.418144 
L 81.36242 10.825602 
L 82.832986 9.508859 
L 83.44365 7.854111 
L 85.361063 6.926676 
L 85.24441 5.954673 
L 86.438965 4.305857 
L 86.64741 2.676118 
L 85.778584 0.003668 
L 86.136186 -0.801906 
L 85.840414 -1.508697 
L 83.116645 -5.175126 
L 82.791552 -7.004812 
L 83.151708 -8.189274 
L 81.380269 -8.858869 
L 81.704085 -9.472667 
L 80.962749 -9.489988 
L 80.298538 -11.614544 
L 82.790917 -14.099713 
L 89.14605 -16.6454 
L 89.05057 -16.000336 
L 90.128162 -15.863091 
L 89.828073 -15.094504 
L 90.373663 -14.098819 
L 91.167806 -14.478068 
L 92.286808 -14.094587 
L 93.030063 -13.004563 
L 99.039176 -12.550952 
L 105.738638 -7.847421 
L 108.249502 -8.084249 
L 114.388652 -6.548471 
L 116.510681 -9.427608 
L 122.155821 -12.019409 
L 124.618238 -9.895492 
L 129.071371 -10.109874 
L 125.726743 -5.293779 
L 123.399457 -2.892151 
L 123.488061 19.975474 
L 126.837795 24.331703 
L 126.913126 25.098304 
L 125.356676 26.787599 
L 124.963678 26.501759 
L 123.692818 27.246157 
L 123.650657 26.373481 
L 123.275724 27.437056 
L 122.755735 26.756285 
L 123.485026 28.485477 
L 123.272714 28.902624 
L 122.768286 28.418815 
L 122.218681 28.715764 
L 122.483696 29.452088 
L 121.457775 30.329815 
L 120.47301 30.262645 
L 118.876909 31.134817 
L 118.448269 32.780679 
L 118.881929 33.076113 
L 118.203336 34.847727 
L 117.378182 35.504761 
L 117.236136 35.182052 
L 116.618774 37.014265 
L 116.094271 36.704687 
L 116.625299 37.501107 
L 116.127903 38.880316 
L 115.49498 38.880316 
L 115.874434 39.199997 
L 115.591854 39.694913 
L 115.35143 39.213122 
L 114.735073 39.641383 
L 115.384556 40.089837 
L 113.721197 43.297733 
L 113.130942 43.086634 
L 112.453353 43.598722 
L 103.697565 37.256076 
L 103.311278 36.460127 
L 102.637507 36.374824 
L 102.552092 35.751406 
L 103.260284 35.139531 
L 102.919895 33.47388 
L 79.849143 20.793229 
L 80.153205 15.529455 
z
" clip-path="url(#p78a95a6d84)" style="fill: #eeeeee; stroke: #000000; stroke-width: 0.3"/>
    <path d="M 123.423289 27.726434 
L 123.945788 27.290596 
L 124.570674 27.678451 
L 123.573864 28.206705 
z
" clip-path="url(#p78a95a6d84)" style="fill: #eeeeee; stroke: #000000; stroke-width: 0.3"/>
    <path d="M 72.19576 98.946198 
L 73.119404 98.523528 
L 74.261053 96.501912 
L 74.356034 94.732036 
L 73.909193 93.817429 
L 74.425512 92.8419 
L 76.433441 92.345476 
L 77.523455 91.246795 
L 76.427705 91.07491 
L 75.831066 89.905677 
L 76.209064 87.626226 
L 76.102612 86.517927 
L 75.58374 86.333214 
L 75.692739 85.419252 
L 76.683314 83.856857 
L 75.706764 82.10975 
L 77.362185 81.401674 
L 78.430533 80.209356 
L 77.561385 78.063309 
L 76.147869 77.024278 
L 76.39073 75.582466 
L 75.354263 74.160537 
L 74.191576 74.322803 
L 73.879231 72.853413 
L 75.338961 73.594199 
L 76.124285 73.47747 
L 76.979721 74.279829 
L 78.80311 74.047655 
L 79.896313 74.878238 
L 80.518455 73.385756 
L 82.400805 74.885933 
L 83.748347 76.895361 
L 84.023717 79.977815 
L 84.603148 81.297772 
L 84.223873 83.468189 
L 85.161542 84.97606 
L 85.907979 85.163987 
L 86.389248 86.393503 
L 84.243634 86.423005 
L 83.917265 87.990531 
L 82.652591 89.998036 
L 83.489549 93.305614 
L 83.803164 97.267074 
L 84.390879 98.300974 
L 85.763282 98.446565 
L 87.126125 99.615792 
L 91.832955 105.487588 
L 92.184821 106.955061 
L 91.44412 108.723336 
L 91.791521 110.245958 
L 91.449856 114.125 
L 89.781045 114.926081 
L 88.91796 114.737515 
L 87.421256 117.199121 
L 88.520836 119.141205 
L 88.488327 120.715142 
L 88.055505 120.908195 
L 87.014572 120.749776 
L 87.337112 119.03474 
L 86.024633 118.460068 
L 83.070111 115.562326 
L 82.934979 114.233395 
L 81.878103 113.178973 
L 83.925554 109.501964 
L 83.534807 105.023874 
L 82.562075 103.855286 
L 80.753032 104.524241 
L 78.715462 104.490252 
L 78.249496 105.185501 
L 76.000618 101.828538 
L 75.137534 100.985774 
L 74.271255 101.764402 
L 73.496132 100.33798 
L 72.81089 100.068603 
L 72.852959 99.259828 
z
" clip-path="url(#p78a95a6d84)" style="fill: #eeeeee; stroke: #000000; stroke-width: 0.3"/>
    <path d="M 84.485224 89.513154 
L 84.721072 89.042384 
L 85.141781 89.28996 
L 84.689205 89.812678 
z
" clip-path="url(#p78a95a6d84)" style="fill: #eeeeee; stroke: #000000; stroke-width: 0.3"/>
    <path d="M 83.795517 89.110374 
L 84.309929 88.960934 
L 84.209213 89.490069 
z
" clip-path="url(#p78a95a6d84)" style="fill: #eeeeee; stroke: #000000; stroke-width: 0.3"/>
    <path d="M 51.598903 45.104595 
L 52.094832 42.185692 
L 54.12188 42.269711 
L 55.788137 41.081885 
L 57.692161 38.090506 
L 58.123071 38.080881 
L 58.435736 36.613414 
L 60.702142 34.8926 
L 60.902292 34.260848 
L 60.860864 33.055703 
L 58.782181 32.838274 
L 58.334064 32.268089 
L 58.992533 31.012919 
L 58.311435 31.141836 
L 58.903294 29.859082 
L 60.915682 29.125991 
L 61.245234 27.494968 
L 60.684928 26.544448 
L 60.894965 24.464467 
L 60.318401 23.301011 
L 59.194601 22.753278 
L 58.736282 21.144062 
L 59.708379 21.232573 
L 60.562539 20.689327 
L 80.440046 20.793229 
L 102.919895 33.47388 
L 103.260284 35.139531 
L 102.552092 35.751406 
L 102.637507 36.374824 
L 103.311278 36.460127 
L 103.697565 37.256076 
L 112.604434 43.667909 
L 112.594893 44.708759 
L 111.94792 45.082472 
L 111.79885 45.896566 
L 112.158222 46.195035 
L 109.915149 52.146195 
L 110.753859 54.515752 
L 111.52982 54.723314 
L 113.004963 56.318171 
L 113.006468 56.959548 
L 114.142813 57.128225 
L 114.692918 58.016048 
L 114.654771 58.745298 
L 113.299588 59.930585 
L 112.835817 63.120795 
L 113.299588 62.518812 
L 114.013318 63.178372 
L 114.08007 64.281843 
L 113.004963 66.136278 
L 113.463214 68.647741 
L 114.692918 69.940597 
L 114.049454 69.545673 
L 113.675021 69.795148 
L 114.311459 70.04059 
L 114.352615 71.193552 
L 114.788281 71.000133 
L 115.248536 71.596053 
L 114.777234 73.200001 
L 115.291203 73.18283 
L 115.847328 74.560525 
L 115.576293 75.045344 
L 116.215735 75.535216 
L 115.538147 76.897762 
L 116.377856 76.568488 
L 117.353585 77.999714 
L 117.567403 77.453284 
L 118.263562 77.681554 
L 118.18928 78.311314 
L 118.876909 78.469385 
L 118.876909 77.872447 
L 119.596659 78.850675 
L 120.079007 78.490596 
L 120.139739 79.574873 
L 117.49552 81.662071 
L 114.352319 82.776142 
L 112.901514 83.869045 
L 110.637976 83.874817 
L 108.146238 85.400008 
L 106.69288 84.554036 
L 104.728303 84.596365 
L 103.981224 86.145287 
L 101.839435 87.299124 
L 99.81621 87.021407 
L 99.14244 86.339625 
L 97.833149 86.393503 
L 96.634129 87.310673 
L 94.006612 87.187527 
L 93.811556 86.425574 
L 91.704194 85.400008 
L 90.161597 86.589764 
L 86.389248 86.393503 
L 85.907979 85.163987 
L 85.161542 84.97606 
L 84.223873 83.468189 
L 84.603148 81.297772 
L 84.023717 79.977815 
L 83.748347 76.895361 
L 82.400805 74.885933 
L 80.518455 73.385756 
L 79.896313 74.878238 
L 78.80311 74.047655 
L 76.979721 74.279829 
L 76.124285 73.47747 
L 71.299846 72.025394 
L 70.71627 71.315394 
L 67.722867 70.806136 
L 67.713943 70.004417 
L 66.08593 69.883201 
L 65.261726 68.583127 
L 64.116253 67.860939 
L 62.417166 68.041804 
L 61.687616 67.633253 
L 58.493421 61.712066 
L 57.585708 58.938754 
L 56.329959 57.328904 
L 53.962522 55.649135 
L 52.843181 53.500526 
L 52.53849 51.818839 
L 53.379267 49.971038 
z
" clip-path="url(#p78a95a6d84)" style="fill: #eeeeee; stroke: #000000; stroke-width: 0.3"/>
    <path d="M 112.452348 51.27352 
L 113.004963 50.825065 
L 113.21125 50.058439 
L 113.846683 52.99766 
L 114.36767 53.023419 
L 114.352615 52.573947 
L 114.629675 53.799131 
L 114.413847 54.677863 
L 113.846683 53.675905 
L 113.766874 54.124868 
L 112.50254 53.175931 
z
" clip-path="url(#p78a95a6d84)" style="fill: #eeeeee; stroke: #000000; stroke-width: 0.3"/>
    <path d="M 115.244021 48.169159 
L 115.370506 47.382339 
L 116.094271 47.085384 
L 115.819222 47.089424 
L 115.286183 46.784396 
L 115.879448 46.873274 
L 115.496991 44.919349 
L 116.34473 45.561738 
L 116.557043 44.96228 
L 116.18763 48.12472 
z
" clip-path="url(#p78a95a6d84)" style="fill: #eeeeee; stroke: #000000; stroke-width: 0.3"/>
    <path d="M 114.899204 63.878833 
L 116.801976 61.968342 
L 116.787926 62.691026 
L 116.355271 63.683391 
L 115.161709 64.128817 
z
" clip-path="url(#p78a95a6d84)" style="fill: #eeeeee; stroke: #000000; stroke-width: 0.3"/>
    <path d="M 114.826976 48.048477 
L 115.300171 48.398447 
L 115.34723 48.553757 
L 115.072896 48.478227 
z
" clip-path="url(#p78a95a6d84)" style="fill: #eeeeee; stroke: #000000; stroke-width: 0.3"/>
    <path d="M 115.612343 64.784269 
L 115.612368 64.521215 
L 116.221058 64.257989 
z
" clip-path="url(#p78a95a6d84)" style="fill: #eeeeee; stroke: #000000; stroke-width: 0.3"/>
    <path d="M 112.600197 50.424215 
L 112.744827 50.912398 
L 112.600555 50.925175 
z
" clip-path="url(#p78a95a6d84)" style="fill: #eeeeee; stroke: #000000; stroke-width: 0.3"/>
    <path d="M -158.667055 -285.44516 
L -158.643464 -286.529946 
L -157.404232 -287.208948 
L -153.767575 -287.849313 
L -153.013447 -287.208948 
L -152.756963 -287.851839 
L -151.367155 -287.538979 
L -150.938514 -288.526547 
L -149.177282 -288.714666 
L -149.120565 -288.229846 
L -148.324522 -288.708603 
L -148.534325 -288.017736 
L -147.810806 -288.39928 
L -145.801373 -286.460504 
L -143.542239 -287.6367 
L -143.630078 -287.208948 
L -142.910827 -286.912502 
L -141.915775 -287.33596 
L -141.471321 -286.48879 
L -141.769967 -287.293538 
L -141.257503 -287.6367 
L -140.629101 -287.721035 
L -140.334729 -287.123849 
L -137.624369 -287.293538 
L -138.839764 -287.938198 
L -139.143924 -288.5725 
L -138.558189 -289.716371 
L -139.086208 -289.687334 
L -139.190101 -290.847116 
L -138.807643 -290.906709 
L -140.460961 -291.888717 
L -140.881571 -292.802052 
L -140.603006 -293.353533 
L -141.193262 -294.000967 
L -139.167015 -293.541398 
L -137.047663 -293.823453 
L -136.830084 -293.380298 
L -137.314183 -292.970729 
L -136.183111 -291.651107 
L -135.057806 -291.941744 
L -130.61131 -291.245577 
L -126.720938 -292.312683 
L -126.216005 -292.570499 
L -127.673576 -292.387177 
L -128.785331 -292.827303 
L -127.803076 -294.033286 
L -121.725842 -295.582693 
L -119.876772 -297.045232 
L -118.942199 -296.907869 
L -119.750287 -297.43763 
L -119.325668 -298.013357 
L -119.66597 -298.224959 
L -119.509369 -301.104586 
L -113.704304 -302.46202 
L -113.169884 -301.677539 
L -113.303745 -300.959522 
L -112.070304 -300.202055 
L -109.957841 -300.547756 
L -109.083278 -298.983121 
L -107.003318 -298.67013 
L -106.457038 -297.563755 
L -104.567039 -297.848205 
L -103.368654 -297.317147 
L -103.811672 -296.508371 
L -103.292164 -296.086347 
L -103.775338 -295.557851 
L -100.604094 -295.616855 
L -99.557419 -296.714251 
L -99.210018 -296.580525 
L -99.752475 -295.454266 
L -99.282049 -295.17527 
L -99.350891 -294.435763 
L -96.820908 -293.797594 
L -95.606586 -292.603675 
L -93.816669 -292.916981 
L -92.494625 -292.246103 
L -89.768303 -292.395865 
L -87.84994 -290.493224 
L -86.612674 -290.789862 
L -85.822256 -290.175102 
L -84.392482 -290.159066 
L -83.552977 -290.555759 
L -82.168467 -289.741851 
L -78.681689 -289.250236 
L -81.087371 -287.118301 
L -81.454539 -285.420101 
L -82.472522 -284.106722 
L -82.253881 -283.124454 
L -82.927652 -281.485419 
L -82.470289 -280.723962 
L -83.749944 -279.768452 
L -86.249336 -280.13115 
L -86.90717 -279.293835 
L -85.859225 -279.140865 
L -88.148259 -277.228121 
L -89.522253 -276.749495 
L -89.605121 -275.611693 
L -91.521893 -274.511095 
L -91.91774 -273.49307 
L -91.419264 -273.188898 
L -91.672326 -272.460616 
L -92.530958 -272.130945 
L -92.506096 -271.699941 
L -91.386755 -271.822441 
L -90.517929 -272.380122 
L -90.931625 -272.848007 
L -90.592513 -273.217599 
L -89.273657 -273.674096 
L -87.397998 -273.460521 
L -87.624287 -273.034481 
L -87.147484 -272.562594 
L -87.529947 -271.831104 
L -85.948463 -270.426489 
L -87.313219 -269.813336 
L -87.343181 -269.141172 
L -85.093662 -267.234678 
L -85.742571 -266.010611 
L -88.534868 -265.326589 
L -87.654884 -264.112464 
L -86.040897 -263.580437 
L -85.744489 -262.729016 
L -86.332204 -262.718429 
L -87.097767 -261.792925 
L -86.591637 -261.186504 
L -86.910359 -260.788211 
L -86.190695 -259.979112 
L -84.043169 -259.256279 
L -82.040977 -259.571516 
L -81.829349 -258.89679 
L -83.137368 -257.644345 
L -83.146367 -257.018314 
L -85.149522 -256.336532 
L -85.227887 -255.711302 
L -86.318493 -255.624962 
L -86.738252 -254.926952 
L -87.74284 -254.804197 
L -88.607867 -253.941923 
L -87.975801 -253.967211 
L -88.059514 -253.524 
L -89.937109 -252.836956 
L -91.060675 -252.948236 
L -91.141631 -252.496145 
L -92.616564 -253.104905 
L -93.136638 -252.551419 
L -94.263368 -253.38956 
L -96.27979 -253.613027 
L -96.605481 -254.479174 
L -98.209982 -254.355085 
L -98.258632 -254.813394 
L -97.023914 -255.253769 
L -98.240062 -255.7396 
L -98.104548 -254.937123 
L -99.232856 -254.888638 
L -99.309316 -254.3942 
L -99.913461 -254.894192 
L -100.008324 -255.527998 
L -100.303449 -255.866867 
L -100.007819 -254.895458 
L -99.528259 -254.422603 
L -104.877435 -255.623951 
L -110.051717 -252.932945 
L -110.496918 -249.971254 
L -109.638823 -248.745189 
L -111.163867 -248.985603 
L -112.838414 -248.171379 
L -115.211592 -248.727453 
L -116.949245 -248.231345 
L -118.697735 -249.131356 
L -118.637175 -249.852104 
L -120.4424 -249.762314 
L -120.97721 -250.465258 
L -124.24407 -251.228335 
L -125.209789 -251.270508 
L -125.288191 -250.315179 
L -129.497822 -250.319349 
L -131.248544 -251.29584 
L -132.767236 -250.862273 
L -133.942992 -251.941226 
L -136.34995 -252.308733 
L -137.189456 -252.950756 
L -138.244728 -252.55294 
L -137.9139 -253.783262 
L -139.260806 -253.80603 
L -140.337437 -254.596524 
L -139.502044 -254.753547 
L -138.366452 -255.872923 
L -137.011774 -261.929636 
L -136.575609 -262.608638 
L -135.701269 -262.633132 
L -136.487524 -263.308597 
L -137.031097 -262.372536 
L -135.951222 -268.215879 
L -133.983198 -266.708144 
L -133.673512 -265.519325 
L -132.555237 -264.032795 
L -132.934691 -264.837543 
L -132.303027 -264.672149 
L -133.303599 -265.299638 
L -134.16389 -267.645458 
L -136.950543 -269.090069 
L -136.435575 -269.690792 
L -135.346158 -269.136282 
L -136.361039 -270.072082 
L -135.725606 -271.131109 
L -136.725432 -271.973488 
L -136.108323 -272.768642 
L -136.906124 -272.654252 
L -140.330967 -273.959229 
L -141.03716 -275.183395 
L -142.325339 -275.978803 
L -141.535568 -277.31559 
L -143.079973 -277.980201 
L -142.611681 -278.137764 
L -142.583076 -278.778893 
L -139.909351 -278.403914 
L -141.655275 -279.080136 
L -143.309851 -278.625109 
L -144.935569 -278.958423 
L -144.28307 -279.001354 
L -145.024406 -279.474303 
L -144.009525 -279.725044 
L -144.6442 -280.144213 
L -143.83737 -280.237137 
L -145.490687 -280.321982 
L -145.289421 -280.379552 
L -145.150385 -280.533583 
L -146.632553 -280.193958 
L -147.200722 -280.56136 
L -146.165766 -280.517424 
L -145.840025 -280.846698 
L -145.811414 -280.962093 
L -145.950443 -281.084562 
L -147.263465 -280.791647 
L -147.604267 -281.215359 
L -147.38995 -280.576006 
L -148.520769 -280.811853 
L -148.572718 -280.063664 
L -148.997596 -281.06512 
L -148.488395 -281.639326 
L -148.951919 -281.727956 
L -149.143151 -281.169406 
L -149.970063 -281.42343 
L -149.503529 -281.385048 
L -149.970063 -281.508274 
L -149.503529 -281.981986 
L -150.513889 -281.468378 
L -154.743311 -282.829411 
L -155.07031 -282.143588 
L -156.22121 -282.105206 
L -156.608688 -283.150599 
L -158.41886 -283.553609 
L -155.688171 -284.01772 
L -156.267134 -284.743687 
L -157.366338 -284.401281 
L -157.790957 -285.083064 
L -157.299833 -285.454003 
L -157.107596 -285.137606 
L -155.589293 -285.091398 
L -155.084359 -285.210076 
L -156.72639 -285.383047 
L -155.716024 -285.979979 
z
M -117.246288 -248.867751 
L -116.92566 -248.822214 
L -117.190194 -249.057279 
z
" clip-path="url(#p78a95a6d84)" style="fill: #eeeeee; stroke: #000000; stroke-width: 0.3"/>
    <path d="M -466.101706 0.13547 
L -464.623492 -0.841988 
L -463.356585 -3.133627 
L -463.609326 -4.836159 
L -462.325533 -6.871564 
L -462.274854 -7.915405 
L -463.793545 -9.483894 
L -464.814403 -11.439767 
L -465.308734 -15.854683 
L -464.227003 -17.858178 
L -462.683721 -19.165743 
L -461.899927 -21.078678 
L -455.501041 -18.974347 
L -452.370799 -15.810889 
L -451.69321 -16.030068 
L -452.071653 -14.747817 
L -451.402094 -15.683877 
L -450.122957 -14.555155 
L -449.667963 -13.068624 
L -450.257219 -12.321198 
L -449.58013 -12.683294 
L -449.411484 -14.320319 
L -448.747446 -14.053418 
L -447.8071 -11.196516 
L -452.163198 -4.986243 
L -452.495939 -3.408458 
L -454.231038 -0.154435 
L -456.021603 1.085028 
L -457.795269 0.945524 
L -457.583641 0.602709 
L -458.261556 -0.009482 
L -459.419136 0.627085 
L -460.856237 -0.127819 
L -462.994696 1.451059 
z
" clip-path="url(#p78a95a6d84)" style="fill: #eeeeee; stroke: #000000; stroke-width: 0.3"/>
    <path d="M -76.530574 -248.407711 
L -75.84947 -248.735216 
L -75.543299 -249.661676 
L -73.022666 -250.610105 
L -71.947552 -250.254823 
L -71.611271 -252.296371 
L -70.8875 -252.211527 
L -71.018 -250.042712 
L -70.492491 -249.564712 
L -70.29825 -246.976988 
L -71.262939 -245.775541 
L -71.272474 -244.245838 
L -71.947552 -243.749147 
L -71.587175 -243.468612 
L -72.449975 -242.643404 
L -72.373183 -242.173484 
L -75.033851 -243.344628 
L -74.226268 -244.172611 
L -75.876576 -244.515519 
L -74.949528 -245.489955 
L -76.12854 -245.451827 
L -76.301195 -245.875031 
L -75.322456 -246.418687 
L -76.42768 -247.361816 
L -75.675303 -247.761282 
z
" clip-path="url(#p78a95a6d84)" style="fill: #eeeeee; stroke: #000000; stroke-width: 0.3"/>
    <path d="M -506.833493 -77.561269 
L -504.735474 -77.131748 
L -505.094341 -76.443661 
L -504.310596 -75.17505 
L -504.681767 -74.840724 
L -504.668969 -75.261911 
L -505.908954 -75.204341 
L -506.132813 -75.513918 
L -505.455224 -75.814404 
L -506.46408 -76.446944 
z
" clip-path="url(#p78a95a6d84)" style="fill: #eeeeee; stroke: #000000; stroke-width: 0.3"/>
    <path d="M 211.349404 145.07554 
L 211.731868 144.343255 
L 213.526226 144.11398 
L 215.229236 145.865388 
L 214.967231 147.016836 
L 213.505645 147.174404 
L 212.115331 146.575449 
z
" clip-path="url(#p78a95a6d84)" style="fill: #eeeeee; stroke: #000000; stroke-width: 0.3"/>
    <path d="M 148.545322 93.374057 
L 148.843462 93.0564 
L 149.521051 93.526065 
L 149.432713 95.052238 
L 148.882614 95.13607 
L 148.668797 94.615903 
L 149.125037 94.649234 
z
" clip-path="url(#p78a95a6d84)" style="fill: #eeeeee; stroke: #000000; stroke-width: 0.3"/>
    <path d="M -508.836148 -86.490535 
L -508.332473 -87.903584 
L -507.735439 -86.884199 
L -506.488676 -86.289539 
L -508.330216 -85.975164 
z
" clip-path="url(#p78a95a6d84)" style="fill: #eeeeee; stroke: #000000; stroke-width: 0.3"/>
    <path d="M -510.397618 -86.656941 
L -510.030715 -86.986469 
L -508.882325 -86.491546 
L -508.970663 -84.927501 
L -509.765953 -84.404044 
z
" clip-path="url(#p78a95a6d84)" style="fill: #eeeeee; stroke: #000000; stroke-width: 0.3"/>
    <path d="M -138.853314 -272.452747 
L -137.325476 -272.174484 
L -137.160845 -271.859601 
L -138.535351 -272.179027 
z
" clip-path="url(#p78a95a6d84)" style="fill: #eeeeee; stroke: #000000; stroke-width: 0.3"/>
    <path d="M -507.527647 -84.297232 
L -507.134643 -84.777 
L -506.676392 -84.297989 
L -507.1753 -83.936141 
z
" clip-path="url(#p78a95a6d84)" style="fill: #eeeeee; stroke: #000000; stroke-width: 0.3"/>
    <path d="M 149.983823 94.034622 
L 150.025984 93.653332 
L 150.025984 94.034622 
z
" clip-path="url(#p78a95a6d84)" style="fill: #eeeeee; stroke: #000000; stroke-width: 0.3"/>
    <path d="M -70.933677 -250.085134 
L -70.776077 -249.9157 
L -70.808703 -249.909389 
z
" clip-path="url(#p78a95a6d84)" style="fill: #eeeeee; stroke: #000000; stroke-width: 0.3"/>
    <path d="M -91.227255 -252.271121 
L -91.172043 -252.328945 
L -90.69672 -252.289558 
z
" clip-path="url(#p78a95a6d84)" style="fill: #eeeeee; stroke: #000000; stroke-width: 0.3"/>
    <path d="M -137.922756 -271.220247 
L -136.952547 -270.901324 
L -136.715644 -269.737 
z
" clip-path="url(#p78a95a6d84)" style="fill: #eeeeee; stroke: #000000; stroke-width: 0.3"/>
    <path d="M -143.41626 -277.301956 
L -142.826504 -277.24716 
L -142.472152 -276.536596 
z
" clip-path="url(#p78a95a6d84)" style="fill: #eeeeee; stroke: #000000; stroke-width: 0.3"/>
    <path d="M -143.954566 -275.374797 
L -143.432068 -275.359395 
L -143.251629 -275.21824 
z
" clip-path="url(#p78a95a6d84)" style="fill: #eeeeee; stroke: #000000; stroke-width: 0.3"/>
    <path d="M -149.376791 -279.474303 
L -148.173694 -278.969786 
L -149.13863 -279.033171 
z
" clip-path="url(#p78a95a6d84)" style="fill: #eeeeee; stroke: #000000; stroke-width: 0.3"/>
    <path d="M -160.91465 -286.145875 
L -160.66168 -286.285262 
L -160.638089 -286.076943 
z
" clip-path="url(#p78a95a6d84)" style="fill: #eeeeee; stroke: #000000; stroke-width: 0.3"/>
    <path d="M -506.04498 -86.614773 
L -505.721238 -86.85718 
L -505.902935 -86.595076 
z
" clip-path="url(#p78a95a6d84)" style="fill: #eeeeee; stroke: #000000; stroke-width: 0.3"/>
    <path d="M -509.153865 -83.868468 
L -509.056738 -83.979829 
L -509.070541 -83.861903 
z
" clip-path="url(#p78a95a6d84)" style="fill: #eeeeee; stroke: #000000; stroke-width: 0.3"/>
    <path d="M -509.416869 -83.808627 
L -509.279591 -83.851049 
L -509.350364 -83.76999 
z
" clip-path="url(#p78a95a6d84)" style="fill: #eeeeee; stroke: #000000; stroke-width: 0.3"/>
    <path d="M -53.709337 50.743249 
L -53.649548 50.171786 
L -52.107586 50.107004 
L -51.973725 46.609581 
L -52.505987 45.941911 
L -51.059641 45.13025 
L -50.29472 43.985392 
L -48.676267 43.514622 
L -48.536664 42.99062 
L -46.657502 44.888451 
L -44.684957 43.649311 
L -44.669655 42.205575 
L -43.253913 42.485216 
L -40.524409 41.11395 
L -40.014455 42.058699 
L -40.748144 42.863627 
L -40.440264 44.894222 
L -39.705299 44.615221 
L -38.762529 44.978887 
L -37.785338 44.452315 
L -35.486109 41.498138 
L -33.91355 40.721428 
L -33.452048 39.754233 
L -31.118391 38.881961 
L -29.185047 35.132475 
L -29.376273 28.112614 
L -27.406596 26.284051 
L -25.437554 22.446699 
L -24.269772 21.37945 
L -22.50917 20.870198 
L -19.786043 17.819808 
L -19.990658 15.78665 
L -18.577463 12.230217 
L -19.063826 8.262663 
L -17.801064 4.943703 
L -17.794686 1.167123 
L -14.460254 -4.840968 
L -14.253726 -10.536553 
L -14.898812 -12.285745 
L -13.595257 -12.737271 
L -11.55992 -15.894287 
L -9.551356 -17.266031 
L -6.987587 -17.058705 
L -3.815701 -15.041414 
L -2.327286 -12.826584 
L -0.530991 -13.064696 
L 1.562352 -12.060621 
L 4.808816 -12.071841 
L 8.299424 -11.049975 
L 9.577482 -11.438166 
L 10.08297 -13.190883 
L 10.681521 -13.302325 
L 11.96978 -15.362106 
L 15.153144 -13.917725 
L 16.223397 -14.805871 
L 20.362915 -16.021759 
L 21.222817 -16.680449 
L 21.208792 -17.215839 
L 23.270261 -15.944957 
L 26.82907 -16.657203 
L 27.174559 -18.384111 
L 28.285297 -18.785768 
L 30.549469 -17.512478 
L 32.322179 -17.936264 
L 34.198794 -16.751486 
L 35.6598 -17.042669 
L 36.447036 -16.689913 
L 37.72127 -17.71868 
L 39.128729 -17.275973 
L 41.856963 -15.140345 
L 42.030981 -13.948672 
L 43.520987 -13.664539 
L 43.741225 -12.852238 
L 45.787393 -11.959605 
L 48.093641 -13.689076 
L 50.966887 -12.365433 
L 52.424384 -14.406131 
L 53.416877 -14.232639 
L 54.515815 -13.701742 
L 54.460998 -12.539887 
L 55.34002 -12.166608 
L 56.93744 -9.978711 
L 59.009105 -9.429215 
L 59.118746 -7.849022 
L 60.376407 -8.233527 
L 60.94755 -7.087553 
L 61.298145 -7.272265 
L 61.382284 -6.486904 
L 60.357288 -4.389764 
L 61.03297 -3.13555 
L 60.152031 -0.602114 
L 61.146435 0.099552 
L 61.739886 -0.355828 
L 62.277884 0.358987 
L 63.032289 0.280417 
L 63.6114 1.521003 
L 58.719395 6.884987 
L 57.242773 7.521877 
L 56.724536 8.93258 
L 55.44456 9.454342 
L 55.402491 11.479167 
L 53.938296 14.121637 
L 53.022941 20.334008 
L 53.166362 23.187491 
L 51.041151 24.864685 
L 50.406902 26.010827 
L 50.433669 28.210105 
L 48.777613 29.415251 
L 48.721519 30.199651 
L 48.93187 31.033441 
L 49.778389 31.60555 
L 49.570585 32.032068 
L 51.049119 33.477727 
L 50.928321 38.772927 
L 51.695796 39.97294 
L 52.136266 42.511509 
L 51.598903 45.104595 
L 53.379267 49.971038 
L 52.53849 51.818839 
L 52.918401 53.744248 
L 53.962522 55.649135 
L 56.329959 57.328904 
L 57.585708 58.938754 
L 60.408281 65.421786 
L 48.918487 67.215076 
L 48.942707 68.969239 
L 45.608274 72.110697 
L 46.616698 72.770673 
L 47.742416 75.337459 
L 46.949445 77.991472 
L 47.749423 80.619838 
L 46.853829 81.810226 
L 45.656721 86.145287 
L 46.56666 88.250289 
L 48.066868 88.991715 
L 49.818546 91.391108 
L 52.683823 91.851614 
L 52.527013 90.545769 
L 54.531752 89.996112 
L 54.426577 98.073281 
L 53.409864 97.859705 
L 53.729221 96.990642 
L 53.144689 96.644296 
L 50.737731 97.956552 
L 49.564843 97.702565 
L 47.801057 94.561429 
L 46.782433 94.535775 
L 46.041732 92.274923 
L 43.179643 91.32248 
L 42.550488 90.668276 
L 41.202953 90.861968 
L 39.861783 88.555585 
L 38.711209 87.855198 
L 38.377833 86.369133 
L 37.41339 86.530115 
L 36.944235 88.476052 
L 35.524027 89.120632 
L 33.656337 88.492727 
L 30.982927 88.43821 
L 28.764647 87.357489 
L 27.988248 87.653165 
L 27.059182 86.819375 
L 26.845642 84.042861 
L 23.158708 84.857407 
L 21.792047 85.698254 
L 20.57709 85.311503 
L 21.183295 84.566224 
L 21.049434 83.456001 
L 19.530421 83.102599 
L 19.468591 82.33295 
L 18.773148 82.048823 
L 17.738586 83.010885 
L 15.408753 82.592069 
L 12.684985 83.470112 
L 9.518841 83.097473 
L 7.894652 84.38279 
L 7.449717 81.917982 
L 8.399499 81.352929 
L 8.36189 78.915699 
L 7.415296 76.203321 
L 5.682108 74.500466 
L 5.146023 72.943203 
L 6.083056 67.046393 
L 4.911445 64.200605 
L 5.571191 60.927021 
L 5.102677 59.769982 
L -2.695724 59.78858 
L -2.134777 57.489886 
L -3.935537 57.505922 
L -4.091071 58.023514 
L -8.855277 58.023514 
L -8.908818 60.98667 
L -9.880273 61.574169 
L -9.880908 64.229467 
L -15.055622 63.796539 
L -15.11044 64.201889 
L -17.498914 64.356461 
L -17.635964 64.895214 
L -19.055536 64.493073 
L -20.707133 64.828515 
L -22.460088 62.68824 
L -23.31999 60.668548 
L -24.744022 59.281253 
L -24.574463 58.103046 
L -25.839137 56.201361 
L -26.221601 54.691566 
L -26.094111 52.979731 
L -27.166282 51.199914 
L -43.259649 50.822781 
L -46.966658 51.126792 
L -49.719587 50.654868 
L -50.519454 50.969881 
L -50.790044 51.677039 
L -52.474465 52.127975 
L -52.426999 51.692609 
L -52.800945 51.842731 
z
" clip-path="url(#p78a95a6d84)" style="fill: #eeeeee; stroke: #000000; stroke-width: 0.3"/>
    <path d="M -50.651144 51.434619 
L -50.139032 51.010119 
L -49.112568 50.988089 
z
" clip-path="url(#p78a95a6d84)" style="fill: #eeeeee; stroke: #000000; stroke-width: 0.3"/>
    <path d="M 6.304886 95.254754 
L 18.768047 95.254754 
L 17.935554 93.940575 
L 18.954178 91.42959 
L 18.482476 89.982646 
L 18.484388 86.786664 
L 19.144769 85.359603 
L 18.563432 82.041767 
L 19.468591 82.33295 
L 19.530421 83.102599 
L 21.049434 83.456001 
L 21.183295 84.566224 
L 20.52482 85.1999 
L 21.517948 85.711081 
L 23.158708 84.857407 
L 26.845642 84.042861 
L 27.059182 86.819375 
L 27.988248 87.653165 
L 28.764647 87.357489 
L 30.982927 88.43821 
L 33.656337 88.492727 
L 35.524027 89.120632 
L 36.944235 88.476052 
L 37.41339 86.530115 
L 38.377833 86.369133 
L 38.711209 87.855198 
L 39.861783 88.555585 
L 41.202953 90.861968 
L 42.550488 90.668276 
L 43.179643 91.32248 
L 46.041732 92.274923 
L 46.782433 94.535775 
L 47.801057 94.561429 
L 49.564843 97.702565 
L 50.737731 97.956552 
L 53.144689 96.644296 
L 53.729221 96.990642 
L 53.409864 97.859705 
L 54.333508 98.089962 
L 54.531752 89.996112 
L 52.527013 90.545769 
L 52.683823 91.851614 
L 49.818546 91.391108 
L 48.066868 88.991715 
L 46.56666 88.250289 
L 45.628035 86.049726 
L 46.853829 81.810226 
L 47.749423 80.619838 
L 46.949445 77.991472 
L 47.742416 75.337459 
L 46.616698 72.770673 
L 45.608274 72.110697 
L 48.942707 68.969239 
L 48.918487 67.215076 
L 60.408281 65.421786 
L 62.144658 67.942395 
L 64.116253 67.860939 
L 65.261726 68.583127 
L 66.08593 69.883201 
L 67.713943 70.004417 
L 67.722867 70.806136 
L 70.71627 71.315394 
L 71.299846 72.025394 
L 73.78425 72.954107 
L 74.191576 74.322803 
L 75.354263 74.160537 
L 76.39073 75.582466 
L 76.147869 77.024278 
L 77.561385 78.063309 
L 78.430533 80.209356 
L 77.362185 81.401674 
L 75.706764 82.10975 
L 76.683314 83.856857 
L 75.692739 85.419252 
L 75.58374 86.333214 
L 76.102612 86.517927 
L 76.209064 87.626226 
L 75.831066 89.905677 
L 76.427705 91.07491 
L 77.523455 91.246795 
L 76.433441 92.345476 
L 74.425512 92.8419 
L 73.909193 93.817429 
L 74.356034 94.732036 
L 74.261053 96.501912 
L 73.119404 98.523528 
L 72.19576 98.946198 
L 72.852959 99.259828 
L 72.81089 100.068603 
L 73.496132 100.33798 
L 74.271255 101.764402 
L 75.137534 100.985774 
L 75.522545 101.537354 
L 57.092333 107.541921 
L 58.300598 111.569117 
L 53.223733 111.726258 
L 49.184932 113.637555 
L 48.721519 114.237888 
L 48.721519 116.271692 
L 48.128698 117.165765 
L 42.30508 119.817861 
L 40.827502 122.32179 
L 37.978797 125.54278 
L 35.416619 126.703673 
L 32.406323 125.546628 
L 30.633614 126.267537 
L 29.134362 125.104081 
L 27.001176 125.288793 
L 25.159624 123.675096 
L 22.985325 123.124155 
L 20.123872 123.043977 
L 14.950434 124.04709 
L 7.095939 117.238241 
L 6.315081 114.758043 
z
" clip-path="url(#p78a95a6d84)" style="fill: #eeeeee; stroke: #000000; stroke-width: 0.3"/>
    <path d="M -56.877948 112.975923 
L -55.295903 111.48763 
L -54.898884 109.103428 
L -54.35079 108.703453 
L -53.203404 104.141598 
L -53.218959 102.023545 
L -52.683916 100.697867 
L -52.147867 100.552927 
L -52.068564 97.888941 
L -49.419436 95.13607 
L -49.452562 94.107849 
L -47.977925 92.774091 
L -46.655874 92.57966 
L -45.13305 90.583313 
L -44.192957 87.742571 
L -43.858175 83.53979 
L -44.56789 81.371229 
L -44.319442 80.835405 
L -45.825194 79.151161 
L -49.101719 71.005178 
L -49.126316 70.658733 
L -48.546101 69.754749 
L -48.236914 69.622432 
L -48.998832 70.942556 
L -47.69685 69.019437 
L -47.857966 69.325483 
L -46.734671 68.902782 
L -46.742202 66.371114 
L -50.004566 59.66163 
L -50.10606 57.467093 
L -51.850713 55.731689 
L -53.456368 52.40527 
L -50.20521 52.002757 
L -47.938749 50.914502 
L -27.399583 51.104985 
L -26.094111 52.979731 
L -26.221601 54.691566 
L -25.839137 56.201361 
L -24.574463 58.103046 
L -24.744022 59.281253 
L -23.31999 60.668548 
L -22.460088 62.68824 
L -20.707133 64.828515 
L -19.055536 64.493073 
L -17.635964 64.895214 
L -17.498914 64.356461 
L -15.11044 64.201889 
L -15.055622 63.796539 
L -9.880908 64.229467 
L -9.880273 61.574169 
L -8.908818 60.98667 
L -8.855277 58.023514 
L -4.091071 58.023514 
L -3.935537 57.505922 
L -2.134777 57.489886 
L -2.695724 59.78858 
L 5.102677 59.769982 
L 5.571191 60.927021 
L 4.911445 64.200605 
L 6.083056 67.046393 
L 5.146023 72.943203 
L 5.682108 74.500466 
L 7.415296 76.203321 
L 8.36189 78.915699 
L 8.399499 81.352929 
L 7.449717 81.917982 
L 7.894652 84.38279 
L 9.518841 83.097473 
L 12.684985 83.470112 
L 15.408753 82.592069 
L 17.738586 83.010885 
L 18.563432 82.041767 
L 19.144769 85.359603 
L 18.484388 86.786664 
L 18.482476 89.982646 
L 18.954178 91.42959 
L 17.935554 93.940575 
L 18.768047 95.254754 
L 6.304886 95.254754 
L 6.329106 114.892092 
L 7.364303 117.57176 
L 8.486826 118.043169 
L 11.148129 121.121137 
L 14.950434 124.04709 
L 2.647272 126.363744 
L 1.256385 125.843589 
L -0.933851 126.46893 
L -3.832908 125.373458 
L -7.318416 125.59345 
L -12.751928 125.028396 
L -14.276676 124.027853 
L -15.443822 122.487904 
L -43.031442 122.696998 
L -45.863896 120.824821 
L -46.120146 120.13213 
L -48.05349 119.764622 
L -51.748714 121.523918 
L -53.750265 121.463629 
L -54.70323 120.931925 
L -56.739418 121.552687 
L -56.344909 116.835796 
z
" clip-path="url(#p78a95a6d84)" style="fill: #eeeeee; stroke: #000000; stroke-width: 0.3"/>
    <path d="M -55.18752 45.721857 
L -54.090018 44.160486 
L -53.261349 44.223344 
L -52.859766 43.151602 
L -51.399394 42.864905 
L -50.549052 41.822032 
L -49.881659 41.950949 
L -48.624632 43.33696 
L -50.29472 43.985392 
L -51.059641 45.13025 
L -52.505987 45.941911 
L -51.973725 46.609581 
L -52.107586 50.107004 
L -53.94825 50.33772 
L -54.338744 49.434742 
L -53.832806 48.497421 
L -55.104165 45.885458 
L -54.62677 46.096625 
L -54.401487 45.693094 
z
" clip-path="url(#p78a95a6d84)" style="fill: #eeeeee; stroke: #000000; stroke-width: 0.3"/>
    <path d="M -57.084858 116.96794 
L -56.975266 117.00325 
L -56.859556 118.242769 
z
" clip-path="url(#p78a95a6d84)" style="fill: #eeeeee; stroke: #000000; stroke-width: 0.3"/>
    <path d="M 57.092333 107.541921 
L 75.522545 101.537354 
L 78.249496 105.185501 
L 78.715462 104.490252 
L 80.753032 104.524241 
L 82.562075 103.855286 
L 83.635517 105.22078 
L 83.949774 109.339697 
L 81.878103 113.178973 
L 82.934979 114.233395 
L 83.070111 115.562326 
L 86.024633 118.460068 
L 87.337112 119.03474 
L 87.014572 120.749776 
L 88.408007 120.870998 
L 88.323227 118.211213 
L 87.421256 117.199121 
L 88.91796 114.737515 
L 89.781045 114.926081 
L 91.449856 114.125 
L 91.791521 110.245958 
L 91.44412 108.723336 
L 92.184821 106.955061 
L 91.832955 105.487588 
L 87.126125 99.615792 
L 85.763282 98.446565 
L 84.390879 98.300974 
L 83.803164 97.267074 
L 83.489549 93.305614 
L 82.62327 90.277677 
L 84.243634 86.423005 
L 89.885585 86.636586 
L 91.704194 85.400008 
L 93.811556 86.425574 
L 94.006612 87.187527 
L 96.634129 87.310673 
L 97.833149 86.393503 
L 99.14244 86.339625 
L 99.81621 87.021407 
L 101.839435 87.299124 
L 103.981224 86.145287 
L 104.728303 84.596365 
L 106.69288 84.554036 
L 108.146238 85.400008 
L 110.637976 83.874817 
L 112.746615 83.915228 
L 114.352319 82.776142 
L 116.124394 82.415691 
L 120.593975 79.593056 
L 120.569878 80.143023 
L 121.484881 80.891461 
L 120.438879 81.358104 
L 121.271064 81.846964 
L 120.505131 82.559545 
L 120.569378 83.065073 
L 120.936781 82.920636 
L 120.569378 83.997342 
L 119.596659 84.801836 
L 120.31842 85.224536 
L 120.082516 86.868381 
L 120.653702 88.04104 
L 120.682813 90.309084 
L 120.228071 90.675729 
L 120.905666 91.442355 
L 120.394713 92.149382 
L 120.911685 92.329167 
L 121.43469 93.795244 
L 119.979622 94.886086 
L 120.426833 95.381512 
L 120.530227 94.922954 
L 121.116467 95.09466 
L 120.695863 98.414159 
L 121.116467 98.753027 
L 120.772156 99.194922 
L 121.457775 101.649324 
L 120.767136 102.472 
L 121.093382 103.085097 
L 121.739855 102.584118 
L 122.047025 103.132571 
L 121.962702 103.560826 
L 121.369437 103.560826 
L 121.327275 104.965795 
L 121.76595 104.132507 
L 122.388333 104.000195 
L 122.641801 104.333509 
L 122.138879 104.770855 
L 122.555973 104.708234 
L 122.675427 105.826351 
L 121.924562 106.955067 
L 121.411598 106.749528 
L 122.218681 107.642906 
L 121.583254 107.512108 
L 121.836223 108.109549 
L 120.701883 108.470131 
L 120.607525 108.786776 
L 121.364416 108.678704 
L 121.649506 109.102919 
L 121.033655 110.710907 
L 117.845968 113.795571 
L 118.276613 113.778909 
L 117.398257 115.242962 
L 116.109326 115.73637 
L 116.260907 116.276235 
L 116.557043 116.529756 
L 112.074405 119.248278 
L 111.835991 119.967933 
L 109.198914 120.227008 
L 106.176357 121.85267 
L 105.608688 121.251699 
L 105.899298 121.845099 
L 100.111175 124.652505 
L 98.84433 126.350892 
L 98.251564 125.535786 
L 97.911262 125.514575 
L 98.802168 126.562996 
L 95.691779 129.72695 
L 95.288235 131.144547 
L 94.243743 130.581449 
L 94.421425 131.802587 
L 93.680088 131.86218 
L 93.538549 131.243025 
L 91.882721 132.17782 
L 87.389542 136.854815 
L 85.867724 137.837586 
L 84.305254 136.177581 
L 83.852018 136.09324 
L 85.235812 137.537602 
L 84.814197 137.964846 
L 85.219246 139.629399 
L 84.481425 139.625353 
L 85.024499 140.090984 
L 84.389072 141.019213 
L 84.857863 141.583323 
L 84.561733 142.043395 
L 85.003418 141.939362 
L 85.820542 143.110501 
L 86.566393 143.216556 
L 86.839438 144.508904 
L 87.348386 144.682632 
L 86.708938 145.580559 
L 87.053255 146.889067 
L 87.390548 145.999722 
L 87.348386 147.231974 
L 88.278944 148.888441 
L 88.492762 153.508369 
L 89.037846 154.123489 
L 89.329961 151.838771 
L 89.696358 151.754938 
L 89.798253 153.021532 
L 90.008555 152.20845 
L 89.626091 155.378969 
L 89.924731 156.973317 
L 90.345841 156.773327 
L 89.558833 158.4 
L 89.015254 161.944233 
L 88.961047 161.507898 
L 88.706579 161.498807 
L 88.657386 163.288094 
L 88.952018 162.542685 
L 89.482041 162.764389 
L 89.542273 162.157857 
L 89.859984 162.285626 
L 89.671768 164.137033 
L 87.264063 167.218668 
L 75.981937 171.55579 
L 76.240926 171.280046 
L 73.487399 173.08903 
L 72.342018 175.211632 
L 71.752768 175.727256 
L 71.291001 175.609081 
L 71.045563 175.823718 
L 73.300688 177.710981 
L 73.991327 176.409032 
L 73.612878 181.170369 
L 68.807146 181.132452 
L 68.540059 175.980281 
L 67.79171 175.659589 
L 67.523987 174.7591 
L 68.078557 173.666197 
L 68.021828 166.133876 
L 67.182322 163.077715 
L 65.191286 160.137327 
L 65.245154 158.276693 
L 63.65857 153.674179 
L 70.862879 146.837752 
L 70.200586 145.723042 
L 71.133155 144.496089 
L 71.075149 142.427651 
L 72.24803 141.985744 
L 73.564975 139.324674 
L 74.317148 138.884045 
L 74.4746 137.346027 
L 73.921942 136.509027 
L 73.159882 136.664244 
L 73.237334 135.588016 
L 72.812802 135.359044 
L 73.383623 132.999423 
L 72.305401 132.200266 
L 72.369143 131.45114 
L 73.671106 131.080424 
L 73.475094 129.598846 
L 74.536109 128.458475 
L 73.994608 127.864566 
L 73.824414 126.105909 
L 74.4236 123.911117 
L 73.881143 123.160712 
L 74.405757 122.212756 
L 73.216297 119.665852 
L 74.078111 118.092554 
L 72.615192 118.261237 
L 72.24803 117.584587 
L 69.89621 116.666138 
L 67.551396 116.524394 
L 66.320508 115.214701 
L 64.432422 114.86964 
L 63.540646 114.008271 
L 58.252473 113.870374 
L 58.192549 110.640404 
z
M 84.485224 89.513154 
L 84.689205 89.812678 
L 85.141781 89.28996 
L 84.721072 89.042384 
z
M 83.795517 89.110374 
L 84.209213 89.490069 
L 84.309929 88.960934 
z
" clip-path="url(#p78a95a6d84)" style="fill: #eeeeee; stroke: #000000; stroke-width: 0.3"/>
    <path d="M 89.289804 149.749506 
L 89.30587 149.067221 
L 89.503621 148.298578 
L 89.634121 148.874305 
z
" clip-path="url(#p78a95a6d84)" style="fill: #eeeeee; stroke: #000000; stroke-width: 0.3"/>
    <path d="M 116.343454 115.832416 
L 117.114617 115.737965 
L 116.695863 116.449746 
z
" clip-path="url(#p78a95a6d84)" style="fill: #eeeeee; stroke: #000000; stroke-width: 0.3"/>
    <path d="M 73.768474 175.928253 
L 74.164987 175.727256 
L 74.033488 176.193391 
z
" clip-path="url(#p78a95a6d84)" style="fill: #eeeeee; stroke: #000000; stroke-width: 0.3"/>
    <path d="M 49.521182 31.92752 
L 49.80293 30.834617 
L 51.417873 31.023183 
L 51.697073 32.111594 
L 54.042201 31.981398 
L 55.139869 31.147607 
L 55.348309 28.949613 
L 56.489958 29.660897 
L 58.104587 28.863664 
L 59.190142 29.469129 
L 58.335334 30.989188 
L 58.992533 31.012919 
L 58.334064 32.268089 
L 58.782181 32.838274 
L 60.860864 33.055703 
L 60.795204 34.725847 
L 58.435736 36.613414 
L 58.123071 38.080881 
L 57.692161 38.090506 
L 55.788137 41.081885 
L 54.12188 42.269711 
L 52.094832 42.185692 
L 51.695796 39.97294 
L 50.928321 38.772927 
L 51.049119 33.477727 
z
" clip-path="url(#p78a95a6d84)" style="fill: #eeeeee; stroke: #000000; stroke-width: 0.3"/>
    <path d="M 48.731399 29.578163 
L 50.433669 28.210105 
L 50.406902 26.010827 
L 51.716192 23.982794 
L 54.635651 22.778933 
L 55.525516 23.661463 
L 56.677366 22.918753 
L 57.850883 21.188321 
L 58.67938 21.192032 
L 59.194601 22.753278 
L 60.318401 23.301011 
L 60.939902 24.595947 
L 60.684928 26.544448 
L 61.245234 27.494968 
L 60.915682 29.125991 
L 58.987432 29.461428 
L 58.104587 28.863664 
L 56.489958 29.660897 
L 55.348309 28.949613 
L 55.139869 31.147607 
L 54.042201 31.981398 
L 51.697073 32.111594 
L 51.493092 31.079624 
L 50.30172 30.67299 
L 49.696792 31.455466 
L 48.93187 31.033441 
z
" clip-path="url(#p78a95a6d84)" style="fill: #eeeeee; stroke: #000000; stroke-width: 0.3"/>
    <path d="M 53.022941 20.334008 
L 53.938296 14.121637 
L 55.402491 11.479167 
L 55.44456 9.454342 
L 56.724536 8.93258 
L 57.242773 7.521877 
L 58.719395 6.884987 
L 63.6114 1.521003 
L 63.032289 0.280417 
L 62.277884 0.358987 
L 61.739886 -0.355828 
L 61.146435 0.099552 
L 60.152031 -0.602114 
L 61.03297 -3.13555 
L 60.357288 -4.389764 
L 61.382284 -6.486904 
L 61.298145 -7.272265 
L 60.94755 -7.087553 
L 61.594553 -8.26095 
L 63.262087 -8.962615 
L 65.167381 -8.116959 
L 66.73484 -9.112055 
L 67.67315 -7.758748 
L 69.140848 -7.224326 
L 69.262917 -7.887827 
L 70.397868 -8.582275 
L 72.770091 -8.817824 
L 74.255318 -9.540812 
L 75.286691 -8.780782 
L 77.298443 -8.698203 
L 80.477021 -11.527794 
L 80.962749 -9.489988 
L 81.704085 -9.472667 
L 81.380269 -8.858869 
L 83.151708 -8.189274 
L 82.791552 -7.004812 
L 83.116645 -5.175126 
L 85.840414 -1.508697 
L 86.136186 -0.801906 
L 85.778584 0.003668 
L 86.64741 2.676118 
L 86.438965 4.305857 
L 85.24441 5.954673 
L 85.361063 6.926676 
L 83.44365 7.854111 
L 82.832986 9.508859 
L 81.36242 10.825602 
L 80.965296 12.418144 
L 79.783489 13.890097 
L 80.153205 15.529455 
L 79.849143 20.793229 
L 60.562539 20.689327 
L 57.850883 21.188321 
L 56.677366 22.918753 
L 55.390063 23.712132 
L 54.69111 22.787267 
L 53.166362 23.187491 
z
" clip-path="url(#p78a95a6d84)" style="fill: #eeeeee; stroke: #000000; stroke-width: 0.3"/>
    <path d="M 137.322922 152.678115 
L 137.809279 152.454897 
L 137.470488 151.314563 
L 138.021592 149.662136 
L 138.863312 149.061667 
L 139.078135 146.811799 
L 140.960831 146.283043 
L 141.508425 144.164482 
L 145.038419 138.600166 
L 144.402986 137.28307 
L 145.074555 135.483177 
L 143.561272 133.030799 
L 143.702812 131.262722 
L 142.37323 128.737111 
L 142.335583 124.843405 
L 141.646949 123.459647 
L 144.7719 118.208948 
L 144.858227 115.077313 
L 147.471214 115.233368 
L 149.9261 113.390544 
L 150.120342 114.557649 
L 150.788901 114.203124 
L 150.623265 113.700127 
L 151.799261 113.509228 
L 152.013079 114.184438 
L 152.359401 112.645135 
L 154.133683 112.46131 
L 154.858453 113.005723 
L 154.88857 112.488578 
L 154.548267 112.573422 
L 155.340295 112.023964 
L 155.90345 112.109311 
L 155.729784 112.742608 
L 156.492701 113.721332 
L 156.828988 113.255204 
L 157.341951 113.594072 
L 156.294944 112.718871 
L 156.502742 111.567423 
L 160.306786 108.888289 
L 161.079238 109.667538 
L 160.360993 111.067449 
L 162.049946 110.345777 
L 160.963293 108.858489 
L 162.911742 106.977798 
L 162.368163 106.707106 
L 163.361963 105.618783 
L 163.807663 106.537417 
L 163.256559 108.324688 
L 165.534769 104.965795 
L 166.296681 105.855641 
L 166.592311 105.31224 
L 166.787558 106.181881 
L 166.866355 105.361228 
L 165.576425 104.837014 
L 165.262224 105.177899 
L 164.945013 104.221391 
L 165.496117 102.836628 
L 166.437721 102.894198 
L 166.293165 101.985163 
L 166.87037 102.323529 
L 166.679644 103.470428 
L 166.99535 103.079543 
L 167.083189 101.973044 
L 166.42266 101.476607 
L 166.891451 101.158441 
L 166.02012 100.112546 
L 166.195792 98.988875 
L 167.207663 98.456079 
L 167.972584 100.004474 
L 168.628093 100.199407 
L 168.84191 98.635864 
L 170.080643 98.47729 
L 169.760423 97.482399 
L 170.517314 98.010144 
L 171.597442 97.627842 
L 172.678075 94.077044 
L 172.256466 92.543803 
L 171.288261 91.739304 
L 172.619347 92.018076 
L 172.858767 91.109041 
L 174.196378 89.950016 
L 173.52732 89.651547 
L 173.948935 89.354599 
L 174.331393 89.698009 
L 174.075414 89.312177 
L 174.668685 88.715239 
L 175.25442 90.269696 
L 174.580847 89.91012 
L 174.370045 90.418174 
L 175.108366 90.892388 
L 175.305617 90.422716 
L 175.767383 91.357511 
L 176.280347 91.386802 
L 175.978191 91.565575 
L 176.570451 92.031207 
L 176.422892 92.936202 
L 176.992067 94.034622 
L 177.543171 93.653332 
L 178.764339 95.45575 
L 180.002572 100.105477 
L 180.414646 106.109665 
L 182.143258 109.019086 
L 182.102601 110.408907 
L 181.198145 112.691597 
L 180.158168 113.767292 
L 178.937499 112.112848 
L 178.511375 110.277601 
L 177.38055 110.429107 
L 176.891178 111.036644 
L 177.478929 113.277421 
L 177.207889 114.4016 
L 178.195164 115.357097 
L 178.220765 117.211532 
L 177.424722 118.541759 
L 178.136442 118.998294 
L 176.705971 119.426555 
L 175.613798 121.829945 
L 176.09664 124.584329 
L 175.169098 128.905285 
L 171.414746 138.4729 
L 171.607482 138.916309 
L 168.030812 149.831825 
L 166.173206 154.082582 
L 165.170376 158.887848 
L 164.164531 161.018027 
L 164.125885 162.593689 
L 162.621132 165.18142 
L 161.396449 169.306425 
L 161.269964 168.964019 
L 160.400644 170.12153 
L 158.482306 170.854819 
L 155.916501 170.943704 
L 151.744555 173.189022 
L 149.286153 173.428401 
L 147.263921 171.848698 
L 144.394456 171.307314 
L 143.94373 170.666446 
L 144.484299 171.084604 
L 144.613294 170.881585 
L 142.293422 169.707412 
L 141.611818 167.349974 
L 140.09803 165.586441 
L 139.801394 162.030591 
L 140.643114 160.180705 
L 139.840046 159.442364 
L 139.544915 157.773268 
L 138.175682 156.329415 
z
" clip-path="url(#p78a95a6d84)" style="fill: #eeeeee; stroke: #000000; stroke-width: 0.3"/>
    <path d="M 167.949998 96.885461 
L 168.749557 96.48852 
L 169.003525 97.777331 
L 168.171347 97.730869 
z
" clip-path="url(#p78a95a6d84)" style="fill: #eeeeee; stroke: #000000; stroke-width: 0.3"/>
    <path d="M 178.049103 120.654258 
L 178.240841 119.569981 
L 179.269771 118.146829 
z
" clip-path="url(#p78a95a6d84)" style="fill: #eeeeee; stroke: #000000; stroke-width: 0.3"/>
    <path d="M 294.755741 319.126837 
L 295.240592 318.986446 
L 295.153259 318.433953 
L 295.707379 318.493546 
L 295.020755 317.696623 
L 295.668733 317.551174 
L 296.401534 316.506793 
L 297.023411 316.954242 
L 295.739 317.992567 
L 297.469616 317.242106 
L 296.977734 317.46229 
L 297.315026 317.695612 
L 296.303654 319.211681 
L 296.72527 319.337936 
L 296.957159 318.609698 
L 297.628222 319.403083 
L 299.00649 318.741004 
L 299.095834 319.20259 
L 299.941063 318.356177 
L 300.27735 319.42278 
L 298.771592 319.356119 
L 298.047321 319.793974 
L 299.217298 319.592469 
L 298.655148 319.783368 
L 299.599755 320.185361 
L 298.841859 320.355049 
L 301.250063 320.439391 
L 302.199697 319.639942 
L 303.669314 319.624285 
L 304.544659 318.985434 
L 305.692045 319.245521 
L 305.702585 320.55908 
L 304.394084 320.999454 
L 305.349738 321.375699 
L 304.25104 321.375699 
L 303.335537 320.753008 
L 301.376548 320.821183 
L 302.011981 321.078745 
L 301.846345 321.400441 
L 300.572475 321.16056 
L 301.324352 321.954957 
L 303.317472 322.484719 
L 302.775398 321.88021 
L 304.297716 321.941826 
L 304.470877 322.215547 
L 303.489128 322.484719 
L 303.9795 322.904391 
L 301.582335 322.865004 
L 300.860075 321.745875 
L 300.235189 321.781732 
L 300.71502 322.260495 
L 300.399814 322.777131 
L 299.202237 322.56906 
L 297.707524 321.681739 
L 297.73563 322.206455 
L 297.192051 321.842336 
L 297.234212 322.52361 
L 296.832179 322.003436 
L 296.946618 322.648853 
L 296.463265 323.055897 
L 294.852609 322.839244 
L 295.698843 321.3257 
L 295.111598 320.920673 
L 295.836874 320.439391 
L 295.2943 320.53332 
L 294.851609 319.822756 
L 295.879035 319.550047 
z
" clip-path="url(#p78a95a6d84)" style="fill: #eeeeee; stroke: #000000; stroke-width: 0.3"/>
    <path d="M 297.490191 318.567276 
L 298.42025 317.931962 
L 298.248594 318.271333 
L 298.841859 318.207699 
L 297.677408 319.235927 
z
" clip-path="url(#p78a95a6d84)" style="fill: #eeeeee; stroke: #000000; stroke-width: 0.3"/>
    <path d="M 189.337761 302.381371 
L 189.828132 302.065228 
L 190.433449 302.370765 
L 190.367697 302.833865 
z
" clip-path="url(#p78a95a6d84)" style="fill: #eeeeee; stroke: #000000; stroke-width: 0.3"/>
    <path d="M 180.203845 300.435017 
L 180.774525 300.304722 
L 180.923595 300.753183 
L 180.361944 300.737526 
z
" clip-path="url(#p78a95a6d84)" style="fill: #eeeeee; stroke: #000000; stroke-width: 0.3"/>
    <path d="M 348.796825 254.767522 
L 349.033728 254.925091 
L 348.830451 254.951856 
z
" clip-path="url(#p78a95a6d84)" style="fill: #eeeeee; stroke: #000000; stroke-width: 0.3"/>
    <path d="M 348.758173 249.658232 
L 349.000602 249.272393 
L 349.255076 249.607221 
z
" clip-path="url(#p78a95a6d84)" style="fill: #eeeeee; stroke: #000000; stroke-width: 0.3"/>
    <path d="M 301.459866 321.760521 
L 302.57212 322.151914 
L 301.534154 321.842336 
z
" clip-path="url(#p78a95a6d84)" style="fill: #eeeeee; stroke: #000000; stroke-width: 0.3"/>
    <path d="M 299.599755 319.847001 
L 300.487153 319.592469 
L 300.153875 319.942954 
z
" clip-path="url(#p78a95a6d84)" style="fill: #eeeeee; stroke: #000000; stroke-width: 0.3"/>
    <path d="M 298.799697 317.589557 
L 299.511417 317.763285 
L 298.947263 317.809244 
z
" clip-path="url(#p78a95a6d84)" style="fill: #eeeeee; stroke: #000000; stroke-width: 0.3"/>
    <path d="M 297.192051 318.529905 
L 297.309 318.070336 
L 297.809413 317.968321 
z
" clip-path="url(#p78a95a6d84)" style="fill: #eeeeee; stroke: #000000; stroke-width: 0.3"/>
    <path d="M 294.954497 316.072476 
L 295.186386 315.961369 
L 295.248123 316.122978 
z
" clip-path="url(#p78a95a6d84)" style="fill: #eeeeee; stroke: #000000; stroke-width: 0.3"/>
    <path d="M 294.105758 320.782299 
L 294.400883 320.609073 
L 294.906316 320.907542 
z
" clip-path="url(#p78a95a6d84)" style="fill: #eeeeee; stroke: #000000; stroke-width: 0.3"/>
    <path d="M 293.90047 316.40175 
L 293.998344 316.353265 
L 294.257333 316.449223 
z
" clip-path="url(#p78a95a6d84)" style="fill: #eeeeee; stroke: #000000; stroke-width: 0.3"/>
    <path d="M 206.96464 113.177428 
L 207.004291 113.150154 
L 207.006801 113.205205 
z
" clip-path="url(#p78a95a6d84)" style="fill: #eeeeee; stroke: #000000; stroke-width: 0.3"/>
    <path d="M 162.394264 86.343665 
L 162.466036 86.251243 
L 162.508197 86.370939 
z
" clip-path="url(#p78a95a6d84)" style="fill: #eeeeee; stroke: #000000; stroke-width: 0.3"/>
    <path d="M 134.248169 120.462856 
L 134.460482 120.444673 
L 134.417315 120.540625 
z
" clip-path="url(#p78a95a6d84)" style="fill: #eeeeee; stroke: #000000; stroke-width: 0.3"/>
    <path d="M 119.536932 153.328584 
L 119.826037 153.20334 
L 119.719129 153.346766 
z
" clip-path="url(#p78a95a6d84)" style="fill: #eeeeee; stroke: #000000; stroke-width: 0.3"/>
    <path d="M 115.76953 147.650133 
L 115.77455 147.633464 
L 115.787095 147.647607 
z
" clip-path="url(#p78a95a6d84)" style="fill: #eeeeee; stroke: #000000; stroke-width: 0.3"/>
    <path d="M 155.729784 72.815174 
L 157.506576 72.641954 
L 157.254612 73.069197 
L 156.299964 73.211109 
L 155.896426 73.229795 
z
" clip-path="url(#p78a95a6d84)" style="fill: #eeeeee; stroke: #000000; stroke-width: 0.3"/>
    <path d="M 212.436551 43.493411 
L 212.764635 42.883392 
L 213.276661 44.382284 
L 212.907131 43.778079 
z
" clip-path="url(#p78a95a6d84)" style="fill: #eeeeee; stroke: #000000; stroke-width: 0.3"/>
    <path d="M 217.722769 58.881656 
L 217.899445 58.694293 
L 217.807092 58.964477 
z
" clip-path="url(#p78a95a6d84)" style="fill: #eeeeee; stroke: #000000; stroke-width: 0.3"/>
    <path d="M 215.713526 43.032179 
L 215.783399 42.993121 
L 215.819109 43.061861 
z
" clip-path="url(#p78a95a6d84)" style="fill: #eeeeee; stroke: #000000; stroke-width: 0.3"/>
    <path d="M 215.626014 41.553084 
L 215.662712 41.486161 
L 215.648952 41.56462 
z
" clip-path="url(#p78a95a6d84)" style="fill: #eeeeee; stroke: #000000; stroke-width: 0.3"/>
    <path d="M 215.346222 41.458472 
L 215.40585 41.435393 
L 215.415022 41.483853 
z
" clip-path="url(#p78a95a6d84)" style="fill: #eeeeee; stroke: #000000; stroke-width: 0.3"/>
    <path d="M 215.323285 41.153871 
L 215.34851 41.23233 
L 215.325579 41.234632 
z
" clip-path="url(#p78a95a6d84)" style="fill: #eeeeee; stroke: #000000; stroke-width: 0.3"/>
    <path d="M 215.05037 41.703075 
L 215.245308 41.659232 
L 215.148983 41.769997 
z
" clip-path="url(#p78a95a6d84)" style="fill: #eeeeee; stroke: #000000; stroke-width: 0.3"/>
    <path d="M 214.369229 41.11233 
L 214.54123 41.121565 
L 214.479308 41.209251 
z
" clip-path="url(#p78a95a6d84)" style="fill: #eeeeee; stroke: #000000; stroke-width: 0.3"/>
    <path d="M 214.135552 41.233788 
L 214.81314 41.445893 
L 214.640985 41.618616 
z
" clip-path="url(#p78a95a6d84)" style="fill: #eeeeee; stroke: #000000; stroke-width: 0.3"/>
    <path d="M 214.029802 41.444627 
L 214.064205 41.467699 
L 214.032097 41.472316 
z
" clip-path="url(#p78a95a6d84)" style="fill: #eeeeee; stroke: #000000; stroke-width: 0.3"/>
    <path d="M 214.025214 40.715427 
L 214.094019 40.701582 
L 214.123833 40.710816 
z
" clip-path="url(#p78a95a6d84)" style="fill: #eeeeee; stroke: #000000; stroke-width: 0.3"/>
    <path d="M 213.979456 38.160661 
L 214.027644 38.098039 
L 214.065784 38.226317 
z
" clip-path="url(#p78a95a6d84)" style="fill: #eeeeee; stroke: #000000; stroke-width: 0.3"/>
    <path d="M 213.928895 41.562311 
L 213.960997 41.557694 
L 213.974763 41.587693 
z
" clip-path="url(#p78a95a6d84)" style="fill: #eeeeee; stroke: #000000; stroke-width: 0.3"/>
    <path d="M 213.074204 43.280519 
L 213.113794 43.271465 
L 213.111092 43.301339 
z
" clip-path="url(#p78a95a6d84)" style="fill: #eeeeee; stroke: #000000; stroke-width: 0.3"/>
    <path d="M 213.022927 43.209004 
L 213.066112 43.107616 
L 213.131785 43.121194 
z
" clip-path="url(#p78a95a6d84)" style="fill: #eeeeee; stroke: #000000; stroke-width: 0.3"/>
    <path d="M 212.993236 43.330307 
L 213.067907 43.302245 
L 213.078707 43.363799 
z
" clip-path="url(#p78a95a6d84)" style="fill: #eeeeee; stroke: #000000; stroke-width: 0.3"/>
    <path d="M 212.410801 43.573024 
L 212.468153 43.583208 
L 212.459161 43.613758 
z
" clip-path="url(#p78a95a6d84)" style="fill: #eeeeee; stroke: #000000; stroke-width: 0.3"/>
    <path d="M 212.302042 50.96748 
L 212.314094 50.971011 
L 212.303047 50.993233 
z
" clip-path="url(#p78a95a6d84)" style="fill: #eeeeee; stroke: #000000; stroke-width: 0.3"/>
    <path d="M 212.191501 43.513052 
L 212.264599 43.530025 
L 212.25898 43.539079 
z
" clip-path="url(#p78a95a6d84)" style="fill: #eeeeee; stroke: #000000; stroke-width: 0.3"/>
    <path d="M 211.349404 42.155377 
L 211.562217 42.267489 
L 211.365465 42.419498 
z
" clip-path="url(#p78a95a6d84)" style="fill: #eeeeee; stroke: #000000; stroke-width: 0.3"/>
    <path d="M 199.7079 48.276226 
L 199.730991 48.268146 
L 199.750061 48.336824 
z
" clip-path="url(#p78a95a6d84)" style="fill: #eeeeee; stroke: #000000; stroke-width: 0.3"/>
    <path d="M 196.031851 57.976152 
L 196.064977 58.04282 
L 196.033856 58.022111 
z
" clip-path="url(#p78a95a6d84)" style="fill: #eeeeee; stroke: #000000; stroke-width: 0.3"/>
    <path d="M 163.747436 74.755464 
L 163.782067 74.73223 
L 163.799632 74.767584 
z
" clip-path="url(#p78a95a6d84)" style="fill: #eeeeee; stroke: #000000; stroke-width: 0.3"/>
    <path d="M 157.409209 75.083727 
L 157.45438 74.953935 
L 157.538703 75.055447 
z
" clip-path="url(#p78a95a6d84)" style="fill: #eeeeee; stroke: #000000; stroke-width: 0.3"/>
    <path d="M 156.394827 72.448529 
L 157.084967 72.518219 
L 156.790841 72.638417 
z
" clip-path="url(#p78a95a6d84)" style="fill: #eeeeee; stroke: #000000; stroke-width: 0.3"/>
    <path d="M 137.291301 87.490061 
L 137.653689 85.189691 
L 138.383474 85.31746 
L 138.274055 86.589106 
L 138.647483 88.615246 
z
" clip-path="url(#p78a95a6d84)" style="fill: #eeeeee; stroke: #000000; stroke-width: 0.3"/>
    <path d="M 143.388611 90.036375 
L 144.419552 90.159092 
L 144.996257 89.439443 
L 145.270301 91.399933 
z
" clip-path="url(#p78a95a6d84)" style="fill: #eeeeee; stroke: #000000; stroke-width: 0.3"/>
    <path d="M 139.869157 90.510086 
L 141.2409 91.34438 
L 140.050848 91.227216 
z
" clip-path="url(#p78a95a6d84)" style="fill: #eeeeee; stroke: #000000; stroke-width: 0.3"/>
   </g>
   <g id="PatchCollection_2">
    <path d="M 51.598903 45.104595 
L 52.094832 42.185692 
L 54.12188 42.269711 
L 55.788137 41.081885 
L 57.692161 38.090506 
L 58.123071 38.080881 
L 58.435736 36.613414 
L 60.702142 34.8926 
L 60.902292 34.260848 
L 60.860864 33.055703 
L 58.782181 32.838274 
L 58.334064 32.268089 
L 58.992533 31.012919 
L 58.311435 31.141836 
L 58.903294 29.859082 
L 60.915682 29.125991 
L 61.245234 27.494968 
L 60.684928 26.544448 
L 60.894965 24.464467 
L 60.318401 23.301011 
L 59.194601 22.753278 
L 58.736282 21.144062 
L 59.708379 21.232573 
L 60.562539 20.689327 
L 80.440046 20.793229 
L 102.919895 33.47388 
L 103.260284 35.139531 
L 102.552092 35.751406 
L 102.637507 36.374824 
L 103.311278 36.460127 
L 103.697565 37.256076 
L 112.604434 43.667909 
L 112.594893 44.708759 
L 111.94792 45.082472 
L 111.79885 45.896566 
L 112.158222 46.195035 
L 109.915149 52.146195 
L 110.753859 54.515752 
L 111.52982 54.723314 
L 113.004963 56.318171 
L 113.006468 56.959548 
L 114.142813 57.128225 
L 114.692918 58.016048 
L 114.654771 58.745298 
L 113.299588 59.930585 
L 112.835817 63.120795 
L 113.299588 62.518812 
L 114.013318 63.178372 
L 114.08007 64.281843 
L 113.004963 66.136278 
L 113.463214 68.647741 
L 114.692918 69.940597 
L 114.049454 69.545673 
L 113.675021 69.795148 
L 114.311459 70.04059 
L 114.352615 71.193552 
L 114.788281 71.000133 
L 115.248536 71.596053 
L 114.777234 73.200001 
L 115.291203 73.18283 
L 115.847328 74.560525 
L 115.576293 75.045344 
L 116.215735 75.535216 
L 115.538147 76.897762 
L 116.377856 76.568488 
L 117.353585 77.999714 
L 117.567403 77.453284 
L 118.263562 77.681554 
L 118.18928 78.311314 
L 118.876909 78.469385 
L 118.876909 77.872447 
L 119.596659 78.850675 
L 120.079007 78.490596 
L 120.139739 79.574873 
L 117.49552 81.662071 
L 114.352319 82.776142 
L 112.901514 83.869045 
L 110.637976 83.874817 
L 108.146238 85.400008 
L 106.69288 84.554036 
L 104.728303 84.596365 
L 103.981224 86.145287 
L 101.839435 87.299124 
L 99.81621 87.021407 
L 99.14244 86.339625 
L 97.833149 86.393503 
L 96.634129 87.310673 
L 94.006612 87.187527 
L 93.811556 86.425574 
L 91.704194 85.400008 
L 90.161597 86.589764 
L 86.389248 86.393503 
L 85.907979 85.163987 
L 85.161542 84.97606 
L 84.223873 83.468189 
L 84.603148 81.297772 
L 84.023717 79.977815 
L 83.748347 76.895361 
L 82.400805 74.885933 
L 80.518455 73.385756 
L 79.896313 74.878238 
L 78.80311 74.047655 
L 76.979721 74.279829 
L 76.124285 73.47747 
L 71.299846 72.025394 
L 70.71627 71.315394 
L 67.722867 70.806136 
L 67.713943 70.004417 
L 66.08593 69.883201 
L 65.261726 68.583127 
L 64.116253 67.860939 
L 62.417166 68.041804 
L 61.687616 67.633253 
L 58.493421 61.712066 
L 57.585708 58.938754 
L 56.329959 57.328904 
L 53.962522 55.649135 
L 52.843181 53.500526 
L 52.53849 51.818839 
L 53.379267 49.971038 
z
" clip-path="url(#p78a95a6d84)" style="fill: #ff6b6b; stroke: #dd0000; stroke-width: 0.5"/>
    <path d="M 112.452348 51.27352 
L 113.004963 50.825065 
L 113.21125 50.058439 
L 113.846683 52.99766 
L 114.36767 53.023419 
L 114.352615 52.573947 
L 114.629675 53.799131 
L 114.413847 54.677863 
L 113.846683 53.675905 
L 113.766874 54.124868 
L 112.50254 53.175931 
z
" clip-path="url(#p78a95a6d84)" style="fill: #ff6b6b; stroke: #dd0000; stroke-width: 0.5"/>
    <path d="M 115.244021 48.169159 
L 115.370506 47.382339 
L 116.094271 47.085384 
L 115.819222 47.089424 
L 115.286183 46.784396 
L 115.879448 46.873274 
L 115.496991 44.919349 
L 116.34473 45.561738 
L 116.557043 44.96228 
L 116.18763 48.12472 
z
" clip-path="url(#p78a95a6d84)" style="fill: #ff6b6b; stroke: #dd0000; stroke-width: 0.5"/>
    <path d="M 114.899204 63.878833 
L 116.801976 61.968342 
L 116.787926 62.691026 
L 116.355271 63.683391 
L 115.161709 64.128817 
z
" clip-path="url(#p78a95a6d84)" style="fill: #ff6b6b; stroke: #dd0000; stroke-width: 0.5"/>
    <path d="M 114.826976 48.048477 
L 115.300171 48.398447 
L 115.34723 48.553757 
L 115.072896 48.478227 
z
" clip-path="url(#p78a95a6d84)" style="fill: #ff6b6b; stroke: #dd0000; stroke-width: 0.5"/>
    <path d="M 115.612343 64.784269 
L 115.612368 64.521215 
L 116.221058 64.257989 
z
" clip-path="url(#p78a95a6d84)" style="fill: #ff6b6b; stroke: #dd0000; stroke-width: 0.5"/>
    <path d="M 112.600197 50.424215 
L 112.744827 50.912398 
L 112.600555 50.925175 
z
" clip-path="url(#p78a95a6d84)" style="fill: #ff6b6b; stroke: #dd0000; stroke-width: 0.5"/>
   </g>
  </g>
 </g>
 <defs>
  <clipPath id="p78a95a6d84">
   <rect x="0" y="0" width="171.738642" height="108"/>
  </clipPath>
 </defs>
</svg>
