<?xml version="1.0" encoding="utf-8" standalone="no"?>
<!DOCTYPE svg PUBLIC "-//W3C//DTD SVG 1.1//EN"
  "http://www.w3.org/Graphics/SVG/1.1/DTD/svg11.dtd">
<svg xmlns:xlink="http://www.w3.org/1999/xlink" width="170.96274pt" height="108pt" viewBox="0 0 170.96274 108" xmlns="http://www.w3.org/2000/svg" version="1.1">
 <metadata>
  <rdf:RDF xmlns:dc="http://purl.org/dc/elements/1.1/" xmlns:cc="http://creativecommons.org/ns#" xmlns:rdf="http://www.w3.org/1999/02/22-rdf-syntax-ns#">
   <cc:Work>
    <dc:type rdf:resource="http://purl.org/dc/dcmitype/StillImage"/>
    <dc:date>2025-09-05T15:49:27.732794</dc:date>
    <dc:format>image/svg+xml</dc:format>
    <dc:creator>
     <cc:Agent>
      <dc:title>Matplotlib v3.10.3, https://matplotlib.org/</dc:title>
     </cc:Agent>
    </dc:creator>
   </cc:Work>
  </rdf:RDF>
 </metadata>
 <defs>
  <style type="text/css">*{stroke-linejoin: round; stroke-linecap: butt}</style>
 </defs>
 <g id="figure_1">
  <g id="patch_1">
   <path d="M 0 108 
L 170.96274 108 
L 170.96274 0 
L 0 0 
z
" style="fill: #ffffff"/>
  </g>
  <g id="axes_1">
   <g id="PatchCollection_1">
    <path d="M 75.103731 29.952306 
L 77.316622 29.670645 
L 76.984135 28.772421 
L 77.720492 28.612693 
L 78.374537 27 
L 84.626262 29.541677 
L 87.01801 28.323019 
L 89.253181 29.443915 
L 90.029344 29.041622 
L 91.566631 31.060458 
L 93.277494 30.987198 
L 94.140191 31.707507 
L 96.5254 30.820595 
L 96.211384 29.591905 
L 96.700551 29.693023 
L 97.299104 30.817731 
L 96.892945 30.340841 
L 96.764682 31.635309 
L 97.347203 31.188127 
L 100.834316 37.246484 
L 104.736755 41.575924 
L 106.846759 42.847123 
L 106.022357 43.329286 
L 104.176486 42.259603 
L 104.186675 43.2847 
L 103.292456 43.627948 
L 103.314277 47.390236 
L 105.378303 48.699289 
L 103.468198 50.26732 
L 104.168737 53.026558 
L 102.25669 54.330717 
L 103.27404 55.08043 
L 103.811193 56.468375 
L 103.705933 57.107914 
L 103.041109 55.33976 
L 101.33019 53.935715 
L 101.876067 53.201856 
L 101.137796 51.392682 
L 98.226327 50.680433 
L 100.049476 52.299782 
L 100.049476 53.865101 
L 97.345674 53.218061 
L 95.833257 51.817098 
L 97.347203 49.962788 
L 96.717343 50.023361 
L 97.347203 49.115493 
L 96.790641 47.53705 
L 91.40938 43.545983 
L 87.579845 42.47376 
L 86.481608 38.786343 
L 85.381073 38.786343 
L 85.969326 38.591881 
L 81.269832 35.796525 
L 82.236373 38.13313 
L 85.25282 40.092778 
L 82.877302 42.688277 
L 81.17478 40.293413 
L 77.755232 39.420269 
L 76.064549 36.282291 
L 76.390928 33.589173 
L 78.056038 32.582917 
L 77.415108 32.677057 
L 77.600635 30.921903 
z
" clip-path="url(#pff1f1eb0c4)" style="fill: #eeeeee; stroke: #000000; stroke-width: 0.3"/>
    <path d="M 94.457396 50.67663 
L 94.592019 50.670998 
L 94.507943 50.811013 
z
" clip-path="url(#pff1f1eb0c4)" style="fill: #eeeeee; stroke: #000000; stroke-width: 0.3"/>
    <path d="M 82.114602 37.356449 
L 82.946396 37.427054 
L 83.069696 37.679775 
z
" clip-path="url(#pff1f1eb0c4)" style="fill: #eeeeee; stroke: #000000; stroke-width: 0.3"/>
    <path d="M 64.115981 81 
L 64.613759 80.594492 
L 64.604978 80.814802 
z
" clip-path="url(#pff1f1eb0c4)" style="fill: #eeeeee; stroke: #000000; stroke-width: 0.3"/>
    <path d="M 58.925576 11.036046 
L 58.962229 10.194545 
L 59.800891 9.223402 
L 61.537768 10.847369 
L 62.503164 10.78873 
L 61.664117 10.618192 
L 62.273741 10.201106 
L 64.891074 10.217947 
L 65.942854 9.207054 
L 66.056773 7.754422 
L 67.996457 7.192628 
L 67.413242 2.959451 
L 71.410405 2.851401 
L 73.693806 0.125976 
L 77.017345 2.215616 
L 77.159145 0.87569 
L 82.391335 -2.507091 
L 82.617981 -4.80645 
L 83.704659 -5.04068 
L 83.476803 -5.743352 
L 84.881259 -7.20284 
L 85.932795 -7.241546 
L 86.803494 -5.853602 
L 88.835764 -5.330031 
L 89.959284 -6.241691 
L 90.856645 -5.882513 
L 90.908037 -6.648641 
L 91.786251 -6.235566 
L 92.315654 -6.979391 
L 94.070374 -6.695189 
L 96.970201 -7.731067 
L 97.969614 -9.047724 
L 101.521796 -8.909966 
L 99.987258 -7.082311 
L 99.723096 -8.121745 
L 99.275714 -7.828896 
L 98.761903 -7.07922 
L 99.9384 -6.768629 
L 100.995029 -2.752482 
L 98.699676 0.954222 
L 97.499895 6.083101 
L 98.225567 15.557625 
L 96.764682 15.850864 
L 96.764682 14.155505 
L 97.535019 13.478757 
L 97.454086 11.802306 
L 96.686047 12.047318 
L 97.21894 13.514249 
L 95.478245 14.449512 
L 96.400129 16.854796 
L 96.957076 16.208145 
L 96.450517 19.622767 
L 96.198579 18.226441 
L 95.909987 17.881505 
L 95.449237 17.828642 
L 96.054283 18.316721 
L 95.203407 18.936756 
L 95.617202 20.012459 
L 94.901831 20.729336 
L 95.543146 21.359023 
L 96.179103 20.931516 
L 96.631457 23.117647 
L 95.605748 23.707974 
L 94.603324 26.395687 
L 96.5254 30.820595 
L 94.052925 31.694033 
L 93.277494 30.987198 
L 91.566631 31.060458 
L 90.029344 29.041622 
L 89.253181 29.443915 
L 87.01801 28.323019 
L 84.626262 29.541677 
L 78.374537 27 
L 77.399413 28.22375 
L 69.944632 21.789612 
L 67.353445 17.636503 
z
" clip-path="url(#pff1f1eb0c4)" style="fill: #eeeeee; stroke: #000000; stroke-width: 0.3"/>
    <path d="M 104.54436 -2.92997 
L 105.254769 -2.960446 
L 105.082985 -2.883669 
z
" clip-path="url(#pff1f1eb0c4)" style="fill: #eeeeee; stroke: #000000; stroke-width: 0.3"/>
    <path d="M 102.220384 17.932434 
L 102.440266 17.699 
L 102.547149 17.784663 
z
" clip-path="url(#pff1f1eb0c4)" style="fill: #eeeeee; stroke: #000000; stroke-width: 0.3"/>
    <path d="M 96.301756 29.578857 
L 96.347453 29.572258 
L 96.407794 29.692587 
z
" clip-path="url(#pff1f1eb0c4)" style="fill: #eeeeee; stroke: #000000; stroke-width: 0.3"/>
    <path d="M 95.840133 20.060307 
L 96.114212 19.631254 
L 95.992441 20.738211 
z
" clip-path="url(#pff1f1eb0c4)" style="fill: #eeeeee; stroke: #000000; stroke-width: 0.3"/>
    <path d="M 36.153311 3.090837 
L 36.860023 1.141762 
L 38.615485 -0.016371 
L 39.44303 0.186976 
L 39.985276 -1.068179 
L 41.536391 -1.653736 
L 40.977662 -3.266107 
L 42.721481 -3.679191 
L 45.012397 -2.78713 
L 45.448718 -3.21074 
L 47.969666 -0.408139 
L 51.106796 0.698552 
L 51.177579 1.95493 
L 54.662075 0.626762 
L 55.694688 1.811113 
L 57.546863 1.341685 
L 58.619 2.298178 
L 57.80914 4.973868 
L 58.454403 5.656457 
L 57.355519 5.84504 
L 57.022648 6.562694 
L 57.809402 7.304651 
L 56.511895 8.521953 
L 52.790011 8.446721 
L 52.533495 8.376106 
L 52.760244 8.157341 
L 52.475846 7.85794 
L 51.946771 8.399262 
L 51.620776 7.61216 
L 50.222109 7.334359 
L 49.057827 7.469784 
L 50.421755 7.533837 
L 51.507017 8.430515 
L 48.46767 7.700515 
L 44.097999 5.547563 
L 38.876354 5.030392 
z
" clip-path="url(#pff1f1eb0c4)" style="fill: #eeeeee; stroke: #000000; stroke-width: 0.3"/>
    <path d="M 58.436035 8.47036 
L 58.595744 8.01855 
L 58.716699 8.434479 
z
" clip-path="url(#pff1f1eb0c4)" style="fill: #eeeeee; stroke: #000000; stroke-width: 0.3"/>
    <path d="M 57.900749 7.73487 
L 58.170765 7.855465 
L 58.054267 7.994266 
z
" clip-path="url(#pff1f1eb0c4)" style="fill: #eeeeee; stroke: #000000; stroke-width: 0.3"/>
    <path d="M 16.002479 -4.636006 
L 16.80415 -5.93715 
L 16.865964 -8.899735 
L 17.620305 -9.637197 
L 16.3305 -11.518095 
L 20.753317 -18.998817 
L 32.971938 -19.357985 
L 33.370686 -22.395555 
L 31.136247 -23.003652 
L 29.59895 -26.057873 
L 27.178843 -27.030542 
L 25.071906 -29.610433 
L 23.542846 -30.159246 
L 27.769328 -30.291552 
L 27.855131 -35.588542 
L 44.951315 -35.624309 
L 44.238176 -17.414618 
L 48.452022 -17.084267 
L 50.122863 -15.595725 
L 50.606513 -17.026008 
L 51.252405 -16.96736 
L 50.158362 -18.132576 
L 53.765717 -15.819117 
L 44.948406 -9.509557 
L 44.276471 -7.501739 
L 44.952281 -4.967913 
L 43.064475 -3.395719 
L 40.977662 -3.266107 
L 41.536391 -1.653736 
L 39.985276 -1.068179 
L 39.44303 0.186976 
L 38.615485 -0.016371 
L 36.860023 1.141762 
L 36.153311 3.090837 
L 31.63047 1.366368 
L 24.72529 0.964207 
z
" clip-path="url(#pff1f1eb0c4)" style="fill: #eeeeee; stroke: #000000; stroke-width: 0.3"/>
    <path d="M 43.064475 -3.395719 
L 44.952281 -4.967913 
L 44.276471 -7.501739 
L 44.948406 -9.509557 
L 52.867586 -15.33502 
L 54.723101 -15.536689 
L 56.29812 -17.161054 
L 59.672628 -17.808862 
L 60.722391 -16.391703 
L 61.982485 -17.001316 
L 65.999818 -16.148625 
L 71.085629 -16.248549 
L 75.227407 -17.820051 
L 75.359488 -18.455911 
L 74.526933 -18.715184 
L 77.385716 -18.197397 
L 79.399139 -17.183745 
L 83.983175 -18.306205 
L 87.0171 -17.246669 
L 87.171875 -16.282239 
L 89.116109 -16.482827 
L 87.342842 -17.120593 
L 90.599998 -16.628493 
L 95.897388 -12.74596 
L 93.326427 -14.035801 
L 92.391953 -14.165054 
L 92.525938 -13.518014 
L 92.141159 -14.165054 
L 91.367004 -14.165054 
L 93.942158 -11.396315 
L 95.035057 -11.505114 
L 93.115336 -12.813474 
L 95.108354 -11.988566 
L 95.617202 -10.854603 
L 96.897523 -11.745877 
L 97.795354 -11.634755 
L 97.746495 -10.941413 
L 97.186874 -11.187572 
L 96.91547 -10.608824 
L 98.225567 -10.98231 
L 97.777032 -11.792559 
L 97.020823 -11.829217 
L 96.15048 -12.750199 
L 98.917644 -11.464606 
L 100.078492 -9.586363 
L 101.521796 -8.909966 
L 97.969614 -9.047724 
L 96.970201 -7.731067 
L 94.070374 -6.695189 
L 92.315654 -6.979391 
L 91.786251 -6.235566 
L 90.908037 -6.648641 
L 90.856645 -5.882513 
L 89.959284 -6.241691 
L 88.835764 -5.330031 
L 86.803494 -5.853602 
L 85.932795 -7.241546 
L 84.881259 -7.20284 
L 83.476803 -5.743352 
L 83.704659 -5.04068 
L 82.617981 -4.80645 
L 82.391335 -2.507091 
L 77.159145 0.87569 
L 77.017345 2.215616 
L 75.263591 1.377452 
L 74.411795 0.020866 
L 71.410405 2.851401 
L 67.413242 2.959451 
L 67.996457 7.192628 
L 66.056773 7.754422 
L 65.942854 9.207054 
L 64.891074 10.217947 
L 62.273741 10.201106 
L 62.368418 9.09376 
L 61.285821 8.970292 
L 60.414333 7.307733 
L 61.461422 6.127468 
L 59.416872 6.498641 
L 59.365715 5.605054 
L 58.720592 6.551116 
L 57.553636 6.171068 
L 58.454403 5.656457 
L 57.80914 4.973868 
L 58.619 2.298178 
L 57.546863 1.341685 
L 55.694688 1.811113 
L 54.909322 0.640483 
L 53.633083 0.611571 
L 53.160653 1.435522 
L 51.177579 1.95493 
L 51.106796 0.698552 
L 47.969666 -0.408139 
L 45.448718 -3.21074 
z
" clip-path="url(#pff1f1eb0c4)" style="fill: #eeeeee; stroke: #000000; stroke-width: 0.3"/>
    <path d="M 68.911043 -21.123257 
L 70.469786 -22.180678 
L 71.485466 -22.492673 
L 72.896188 -22.481076 
z
" clip-path="url(#pff1f1eb0c4)" style="fill: #eeeeee; stroke: #000000; stroke-width: 0.3"/>
    <path d="M 94.017745 -31.784911 
L 94.057062 -31.850499 
L 94.186469 -31.801116 
z
" clip-path="url(#pff1f1eb0c4)" style="fill: #eeeeee; stroke: #000000; stroke-width: 0.3"/>
    <path d="M 75.097849 -22.243688 
L 75.997875 -23.324929 
L 76.318541 -23.145629 
z
" clip-path="url(#pff1f1eb0c4)" style="fill: #eeeeee; stroke: #000000; stroke-width: 0.3"/>
    <path d="M 65.244191 -19.216662 
L 65.742851 -19.525299 
L 66.357504 -19.303965 
z
" clip-path="url(#pff1f1eb0c4)" style="fill: #eeeeee; stroke: #000000; stroke-width: 0.3"/>
    <path d="M 59.037431 6.881003 
L 59.865023 6.498641 
L 59.672628 7.139897 
z
" clip-path="url(#pff1f1eb0c4)" style="fill: #eeeeee; stroke: #000000; stroke-width: 0.3"/>
    <path d="M 58.898473 7.334359 
L 59.362666 7.627976 
L 58.961845 7.598657 
z
" clip-path="url(#pff1f1eb0c4)" style="fill: #eeeeee; stroke: #000000; stroke-width: 0.3"/>
    <path d="M 140.069435 117.760495 
L 141.7155 116.022637 
L 144.293722 116.396029 
L 144.536044 115.139318 
L 143.94856 114.06554 
L 143.40834 114.492866 
L 143.05604 112.531085 
L 144.266928 110.223411 
L 144.40855 110.713036 
L 146.406531 108.186502 
L 147.262755 109.192463 
L 147.336108 108.038436 
L 147.703654 109.235674 
L 148.409859 109.658553 
L 148.852663 109.437465 
L 148.751071 108.153646 
L 150.123245 107.934919 
L 150.550607 108.831322 
L 151.156797 108.965212 
L 151.900406 108.720978 
L 151.98362 108.382983 
L 151.412938 107.081953 
L 152.571872 106.823448 
L 152.246253 106.364308 
L 153.066977 106.084961 
L 152.372611 105.625044 
L 153.220429 105.497337 
L 153.087204 104.897367 
L 152.26267 105.01929 
L 154.533979 102.69175 
L 153.951289 102.515219 
L 154.743156 101.471547 
L 156.042193 101.814557 
L 155.908583 99.99574 
L 156.55485 100.383886 
L 156.015465 99.653886 
L 157.924501 98.419222 
L 157.150355 97.798799 
L 157.855416 97.892948 
L 157.62332 97.13324 
L 158.737974 96.164411 
L 156.659069 96.875892 
L 156.217785 95.65897 
L 157.067517 95.581803 
L 157.259151 94.727955 
L 156.55485 94.340189 
L 155.786427 96.03477 
L 154.951584 95.087939 
L 155.031363 93.656111 
L 156.22924 93.43966 
L 156.817099 92.85049 
L 155.401648 92.073809 
L 156.100208 90.896627 
L 155.978062 88.230903 
L 156.613259 88.690042 
L 155.763527 87.26671 
L 155.460047 82.06258 
L 153.788071 81.113815 
L 156.727018 78.922289 
L 154.490074 74.611756 
L 154.49923 73.610905 
L 155.139775 74.134865 
L 155.460047 73.552257 
L 155.794064 71.033925 
L 155.176043 69.823176 
L 153.986948 70.109075 
L 153.468558 68.54954 
L 152.502018 68.349673 
L 152.795188 66.772008 
L 150.629852 64.69039 
L 151.339632 62.400912 
L 152.173978 61.890805 
L 151.864672 60.227724 
L 153.592975 61.909428 
L 155.846806 60.21351 
L 155.470123 59.576502 
L 156.21574 58.365686 
L 157.502393 58.013374 
L 154.449133 52.946196 
L 154.962532 51.480089 
L 155.734895 51.090578 
L 156.456749 52.736154 
L 159.390349 54.90994 
L 159.573202 56.215597 
L 160.607692 56.142679 
L 159.906074 58.105797 
L 161.311608 58.162131 
L 161.146701 53.486219 
L 159.529681 52.265048 
L 165.455299 48.450702 
L 166.838309 45.613283 
L 168.942778 43.776013 
L 170.180367 44.242416 
L 171.974527 43.661098 
L 172.389805 42.065872 
L 171.181759 41.311313 
L 172.818508 36.190844 
L 171.196394 37.198238 
L 172.958985 35.448119 
L 172.882639 34.760562 
L 172.369972 34.695741 
L 173.080381 33.848067 
L 173.169317 34.351574 
L 173.208259 33.718805 
L 172.922341 33.006565 
L 175.456274 31.771123 
L 175.288309 30.931547 
L 179.256961 27.950756 
L 184.384304 29.071282 
L 182.566775 29.185268 
L 182.658779 30.405273 
L 181.57771 30.243989 
L 181.563976 31.058485 
L 181.884623 30.593562 
L 182.076633 31.247163 
L 182.490813 31.221694 
L 182.39729 30.464688 
L 183.471867 31.365995 
L 185.739348 25.732053 
L 193.816783 26.202771 
L 198.986567 22.277691 
L 203.473431 20.589672 
L 204.640387 17.080512 
L 206.226091 17.089387 
L 205.799321 17.668913 
L 206.526522 17.930121 
L 207.15065 17.080512 
L 206.311603 16.827791 
L 208.450446 15.618587 
L 208.815759 16.044548 
L 209.403627 15.455767 
L 208.372955 15.526761 
L 208.984484 15.067621 
L 212.866311 16.266793 
L 214.254283 18.61343 
L 214.02715 19.358469 
L 211.47938 21.288219 
L 206.029278 22.836148 
L 203.435605 27.521855 
L 201.256919 27.845266 
L 199.533945 30.359739 
L 197.358168 34.368016 
L 196.695455 40.253995 
L 192.890264 46.316865 
L 194.568639 46.310503 
L 196.468565 45.154324 
L 196.979055 46.969073 
L 198.520236 46.874744 
L 199.604728 51.259589 
L 202.249305 54.067575 
L 202.791308 56.452208 
L 201.333031 58.030034 
L 201.450355 62.325936 
L 204.006699 63.298605 
L 205.019443 66.097043 
L 205.99922 66.797752 
L 209.502376 66.425347 
L 213.596017 67.274529 
L 218.1061 65.972086 
L 221.710818 67.504834 
L 223.491966 67.179962 
L 229.923543 75.242809 
L 230.976533 74.919151 
L 231.776694 75.637014 
L 233.512023 74.336287 
L 237.506765 75.113442 
L 243.673401 74.336287 
L 245.088045 73.430022 
L 248.627075 74.524946 
L 248.240204 75.316306 
L 248.884989 76.608214 
L 246.983609 78.445256 
L 247.05972 80.74854 
L 245.018716 82.666684 
L 245.408017 85.283575 
L 244.639125 90.315716 
L 246.921551 97.62443 
L 248.159242 98.041184 
L 249.94524 101.208111 
L 244.980909 105.928362 
L 244.818498 106.842232 
L 246.970034 106.617807 
L 247.448533 107.777656 
L 251.068525 110.591284 
L 250.810123 111.807979 
L 253.940949 120.494842 
L 254.020456 121.703212 
L 252.040544 122.144212 
L 251.749176 117.082676 
L 248.864631 113.021232 
L 244.134451 116.784013 
L 241.663918 114.189662 
L 240.837818 115.948552 
L 241.93492 116.973649 
L 229.001218 116.486091 
L 226.053396 117.102759 
L 226.090724 123.249671 
L 231.376004 123.448618 
L 232.655874 125.06663 
L 232.795976 127.130544 
L 231.298682 127.434346 
L 229.600428 126.346524 
L 224.19517 127.718548 
L 224.065725 134.813873 
L 228.271352 138.269411 
L 228.190391 140.250024 
L 230.338052 144.510159 
L 225.032894 173.46672 
L 221.785476 169.605456 
L 220.098864 170.071944 
L 217.816917 169.157591 
L 224.229103 159.040872 
L 223.711576 158.188257 
L 223.29247 158.60575 
L 219.275916 156.104742 
L 218.628711 156.533994 
L 216.21805 154.261328 
L 211.374664 155.825443 
L 211.04016 154.678822 
L 210.649405 155.247225 
L 210.271747 154.374034 
L 208.322859 153.514563 
L 206.422932 155.333466 
L 204.286425 156.150807 
L 202.394745 156.533994 
L 199.896575 155.427549 
L 199.257616 156.262527 
L 199.057876 155.745081 
L 197.165708 156.292908 
L 194.704388 154.284853 
L 195.517879 152.955945 
L 194.748987 150.256 
L 193.271319 150.274623 
L 191.578403 149.166225 
L 191.895702 147.310076 
L 190.587959 145.197157 
L 188.518351 144.773784 
L 186.456989 142.691247 
L 184.675841 142.514848 
L 183.257323 138.440916 
L 181.152563 136.51714 
L 179.760472 136.259403 
L 179.441953 134.911872 
L 178.421208 135.281338 
L 176.467713 133.707438 
L 175.137427 134.310148 
L 171.916915 132.547095 
L 170.388343 132.495152 
L 167.913927 129.848127 
L 165.596593 128.918089 
L 164.509192 129.484539 
L 164.587724 130.882042 
L 163.111031 131.246615 
L 155.305291 129.619785 
L 154.643057 127.123679 
L 152.977769 126.503332 
L 152.437221 125.300851 
L 151.078809 125.621805 
L 148.526836 124.559955 
L 141.878436 119.694854 
L 141.578015 118.517292 
z
" clip-path="url(#pff1f1eb0c4)" style="fill: #eeeeee; stroke: #000000; stroke-width: 0.3"/>
    <path d="M 150.568929 107.729002 
L 151.055252 108.279968 
L 151.669454 108.700145 
L 150.702914 108.700145 
z
" clip-path="url(#pff1f1eb0c4)" style="fill: #eeeeee; stroke: #000000; stroke-width: 0.3"/>
    <path d="M 172.255707 35.447664 
L 172.394843 34.889843 
L 172.774884 35.148006 
z
" clip-path="url(#pff1f1eb0c4)" style="fill: #eeeeee; stroke: #000000; stroke-width: 0.3"/>
    <path d="M 153.878536 93.424612 
L 155.017619 92.132836 
L 156.484996 92.915311 
z
" clip-path="url(#pff1f1eb0c4)" style="fill: #eeeeee; stroke: #000000; stroke-width: 0.3"/>
    <path d="M 150.754446 107.460076 
L 151.087318 107.464704 
L 151.912621 108.612169 
z
" clip-path="url(#pff1f1eb0c4)" style="fill: #eeeeee; stroke: #000000; stroke-width: 0.3"/>
    <path d="M 147.636905 107.864788 
L 148.750358 109.210214 
L 148.391538 109.548199 
z
" clip-path="url(#pff1f1eb0c4)" style="fill: #eeeeee; stroke: #000000; stroke-width: 0.3"/>
    <path d="M 147.586048 105.478079 
L 147.734894 105.363211 
L 148.085121 105.230716 
z
" clip-path="url(#pff1f1eb0c4)" style="fill: #eeeeee; stroke: #000000; stroke-width: 0.3"/>
    <path d="M 130.037136 4.545166 
L 130.050879 4.556355 
L 130.041714 4.558669 
z
" clip-path="url(#pff1f1eb0c4)" style="fill: #eeeeee; stroke: #000000; stroke-width: 0.3"/>
    <path d="M 117.885873 6.788409 
L 118.080931 6.480122 
L 118.259582 6.719729 
z
" clip-path="url(#pff1f1eb0c4)" style="fill: #eeeeee; stroke: #000000; stroke-width: 0.3"/>
    <path d="M 115.866127 95.476854 
L 116.045922 95.446757 
L 116.064244 95.59376 
z
" clip-path="url(#pff1f1eb0c4)" style="fill: #eeeeee; stroke: #000000; stroke-width: 0.3"/>
    <path d="M 114.778191 14.744296 
L 114.782394 14.16786 
L 115.025561 13.902016 
z
" clip-path="url(#pff1f1eb0c4)" style="fill: #eeeeee; stroke: #000000; stroke-width: 0.3"/>
    <path d="M 102.25669 54.330717 
L 104.168737 53.026558 
L 103.468198 50.26732 
L 105.378303 48.699289 
L 103.314277 47.390236 
L 103.292456 43.627948 
L 104.186675 43.2847 
L 104.176486 42.259603 
L 106.196645 43.35942 
L 106.745806 42.491501 
L 108.911367 43.853881 
L 108.838079 45.989861 
L 110.524569 46.060854 
L 109.680935 46.399608 
L 109.846995 47.91285 
L 111.209394 48.613142 
L 114.232699 48.521696 
L 112.751588 46.729884 
L 113.226457 46.252993 
L 116.451321 49.728965 
L 118.652101 50.023408 
L 123.17437 48.991645 
L 125.454816 47.190066 
L 129.672967 45.999884 
L 131.323892 44.414168 
L 131.551842 45.071183 
L 132.098038 44.12239 
L 132.832172 44.642529 
L 134.357807 42.185462 
L 140.547221 42.518867 
L 139.726562 43.612947 
L 145.406574 44.078506 
L 149.306489 45.713634 
L 151.006 47.44036 
L 150.965163 46.90814 
L 153.923567 50.661354 
L 155.529901 51.134177 
L 154.449133 52.946196 
L 157.502393 58.013374 
L 156.21574 58.365686 
L 155.470123 59.576502 
L 155.846806 60.21351 
L 153.592975 61.909428 
L 151.864672 60.227724 
L 152.173978 61.890805 
L 150.414323 64.62831 
L 146.911946 60.362922 
L 145.560993 56.884636 
L 147.2868 56.323249 
L 146.784058 55.030317 
L 147.77924 54.835864 
L 148.409859 53.593861 
L 149.628722 55.190055 
L 150.722381 55.212044 
L 151.73397 56.339454 
L 152.11799 56.201715 
L 150.772008 55.13025 
L 149.435184 54.683068 
L 148.825944 52.57526 
L 148.391538 52.111104 
L 148.769449 53.541387 
L 148.181197 53.016658 
L 147.395596 53.800669 
L 147.750608 53.412134 
L 147.558214 52.299782 
L 147.558214 53.282493 
L 147.237941 52.694101 
L 146.20727 53.412134 
L 145.823241 52.240745 
L 146.266054 53.700356 
L 145.753387 54.059174 
L 143.890161 50.09242 
L 143.540496 50.724421 
L 139.492618 48.06101 
L 139.512469 47.359561 
L 139.260521 47.167423 
L 139.615533 47.070192 
L 139.778911 46.779267 
L 140.011392 46.902356 
L 140.483587 46.578642 
L 139.778911 46.714456 
L 139.154399 47.166266 
L 139.182271 48.010849 
L 136.260876 47.828354 
L 135.469553 48.921031 
L 134.957646 48.338812 
L 134.981316 48.97196 
L 133.216191 49.703885 
L 133.265049 50.819338 
L 132.519273 51.382801 
L 133.733361 51.284489 
L 133.00631 51.941969 
L 126.478254 55.345156 
L 126.345413 56.654682 
L 130.398255 60.878395 
L 130.722346 62.588025 
L 129.618377 62.89322 
L 128.459443 62.763968 
L 128.010907 62.89322 
L 126.787841 64.582397 
L 122.804854 64.969007 
L 120.700751 59.531841 
L 121.308855 59.118614 
L 121.00576 58.279426 
L 120.685862 58.932639 
L 119.703289 58.733161 
L 119.632666 58.446105 
L 119.462796 58.409068 
L 119.963249 59.438081 
L 119.200933 59.768357 
L 119.462796 61.145397 
L 117.529716 60.556616 
L 116.114632 59.70932 
L 115.793984 57.566788 
L 114.862943 57.140448 
L 114.507546 55.618718 
L 114.187274 56.266526 
L 112.772583 55.224779 
L 111.042573 55.224779 
L 110.658554 55.942433 
L 110.070301 55.360204 
L 110.396681 54.183031 
L 104.540167 54.633684 
L 103.705933 57.107914 
L 103.27404 55.08043 
z
" clip-path="url(#pff1f1eb0c4)" style="fill: #eeeeee; stroke: #000000; stroke-width: 0.3"/>
    <path d="M 140.508485 53.223798 
L 141.282153 53.09409 
L 141.824099 54.186786 
L 141.172005 55.358687 
z
" clip-path="url(#pff1f1eb0c4)" style="fill: #eeeeee; stroke: #000000; stroke-width: 0.3"/>
    <path d="M 113.298609 62.269327 
L 114.379284 60.810493 
L 115.992101 63.741284 
L 114.507546 63.611643 
z
" clip-path="url(#pff1f1eb0c4)" style="fill: #eeeeee; stroke: #000000; stroke-width: 0.3"/>
    <path d="M 109.045352 44.047954 
L 109.627498 43.789061 
L 109.819508 44.825413 
L 109.493128 44.402154 
z
" clip-path="url(#pff1f1eb0c4)" style="fill: #eeeeee; stroke: #000000; stroke-width: 0.3"/>
    <path d="M 139.057188 54.713695 
L 139.654504 54.964814 
L 139.120063 55.455785 
z
" clip-path="url(#pff1f1eb0c4)" style="fill: #eeeeee; stroke: #000000; stroke-width: 0.3"/>
    <path d="M 139.050743 53.598327 
L 139.162007 53.368478 
L 139.497862 53.492819 
z
" clip-path="url(#pff1f1eb0c4)" style="fill: #eeeeee; stroke: #000000; stroke-width: 0.3"/>
    <path d="M 134.931772 50.011697 
L 135.075561 49.819123 
L 135.17356 50.083497 
z
" clip-path="url(#pff1f1eb0c4)" style="fill: #eeeeee; stroke: #000000; stroke-width: 0.3"/>
    <path d="M 119.144813 62.269327 
L 119.872399 61.880403 
L 121.198154 61.463317 
z
" clip-path="url(#pff1f1eb0c4)" style="fill: #eeeeee; stroke: #000000; stroke-width: 0.3"/>
    <path d="M 116.145309 47.105561 
L 116.374685 46.980945 
L 116.494101 47.140474 
z
" clip-path="url(#pff1f1eb0c4)" style="fill: #eeeeee; stroke: #000000; stroke-width: 0.3"/>
    <path d="M 113.850969 64.347038 
L 114.315537 64.194251 
L 114.064743 64.776859 
z
" clip-path="url(#pff1f1eb0c4)" style="fill: #eeeeee; stroke: #000000; stroke-width: 0.3"/>
    <path d="M 111.640639 46.227562 
L 112.028683 46.613811 
L 111.657113 46.571312 
z
" clip-path="url(#pff1f1eb0c4)" style="fill: #eeeeee; stroke: #000000; stroke-width: 0.3"/>
    <path d="M 110.140165 44.642529 
L 111.426977 45.219343 
L 110.824605 45.629099 
z
" clip-path="url(#pff1f1eb0c4)" style="fill: #eeeeee; stroke: #000000; stroke-width: 0.3"/>
    <path d="M 109.165603 55.399565 
L 109.558019 55.224779 
L 109.819508 55.81318 
z
" clip-path="url(#pff1f1eb0c4)" style="fill: #eeeeee; stroke: #000000; stroke-width: 0.3"/>
    <path d="M 108.907933 56.267693 
L 109.118265 56.201715 
L 109.141549 56.489928 
z
" clip-path="url(#pff1f1eb0c4)" style="fill: #eeeeee; stroke: #000000; stroke-width: 0.3"/>
    <path d="M 108.084535 54.972058 
L 108.843417 54.652971 
L 108.501389 55.418852 
z
" clip-path="url(#pff1f1eb0c4)" style="fill: #eeeeee; stroke: #000000; stroke-width: 0.3"/>
   </g>
   <g id="PatchCollection_2">
    <path d="M 75.103731 29.952306 
L 77.316622 29.670645 
L 76.984135 28.772421 
L 77.720492 28.612693 
L 78.374537 27 
L 84.626262 29.541677 
L 87.01801 28.323019 
L 89.253181 29.443915 
L 90.029344 29.041622 
L 91.566631 31.060458 
L 93.277494 30.987198 
L 94.140191 31.707507 
L 96.5254 30.820595 
L 96.211384 29.591905 
L 96.700551 29.693023 
L 97.299104 30.817731 
L 96.892945 30.340841 
L 96.764682 31.635309 
L 97.347203 31.188127 
L 100.834316 37.246484 
L 104.736755 41.575924 
L 106.846759 42.847123 
L 106.022357 43.329286 
L 104.176486 42.259603 
L 104.186675 43.2847 
L 103.292456 43.627948 
L 103.314277 47.390236 
L 105.378303 48.699289 
L 103.468198 50.26732 
L 104.168737 53.026558 
L 102.25669 54.330717 
L 103.27404 55.08043 
L 103.811193 56.468375 
L 103.705933 57.107914 
L 103.041109 55.33976 
L 101.33019 53.935715 
L 101.876067 53.201856 
L 101.137796 51.392682 
L 98.226327 50.680433 
L 100.049476 52.299782 
L 100.049476 53.865101 
L 97.345674 53.218061 
L 95.833257 51.817098 
L 97.347203 49.962788 
L 96.717343 50.023361 
L 97.347203 49.115493 
L 96.790641 47.53705 
L 91.40938 43.545983 
L 87.579845 42.47376 
L 86.481608 38.786343 
L 85.381073 38.786343 
L 85.969326 38.591881 
L 81.269832 35.796525 
L 82.236373 38.13313 
L 85.25282 40.092778 
L 82.877302 42.688277 
L 81.17478 40.293413 
L 77.755232 39.420269 
L 76.064549 36.282291 
L 76.390928 33.589173 
L 78.056038 32.582917 
L 77.415108 32.677057 
L 77.600635 30.921903 
z
" clip-path="url(#pff1f1eb0c4)" style="fill: #ff6b6b; stroke: #dd0000; stroke-width: 0.5"/>
    <path d="M 94.457396 50.67663 
L 94.592019 50.670998 
L 94.507943 50.811013 
z
" clip-path="url(#pff1f1eb0c4)" style="fill: #ff6b6b; stroke: #dd0000; stroke-width: 0.5"/>
    <path d="M 82.114602 37.356449 
L 82.946396 37.427054 
L 83.069696 37.679775 
z
" clip-path="url(#pff1f1eb0c4)" style="fill: #ff6b6b; stroke: #dd0000; stroke-width: 0.5"/>
    <path d="M 64.115981 81 
L 64.613759 80.594492 
L 64.604978 80.814802 
z
" clip-path="url(#pff1f1eb0c4)" style="fill: #ff6b6b; stroke: #dd0000; stroke-width: 0.5"/>
   </g>
  </g>
 </g>
 <defs>
  <clipPath id="pff1f1eb0c4">
   <rect x="0" y="0" width="170.96274" height="108"/>
  </clipPath>
 </defs>
</svg>
