<?xml version="1.0" encoding="utf-8" standalone="no"?>
<!DOCTYPE svg PUBLIC "-//W3C//DTD SVG 1.1//EN"
  "http://www.w3.org/Graphics/SVG/1.1/DTD/svg11.dtd">
<svg xmlns:xlink="http://www.w3.org/1999/xlink" width="141.711803pt" height="108pt" viewBox="0 0 141.711803 108" xmlns="http://www.w3.org/2000/svg" version="1.1">
 <metadata>
  <rdf:RDF xmlns:dc="http://purl.org/dc/elements/1.1/" xmlns:cc="http://creativecommons.org/ns#" xmlns:rdf="http://www.w3.org/1999/02/22-rdf-syntax-ns#">
   <cc:Work>
    <dc:type rdf:resource="http://purl.org/dc/dcmitype/StillImage"/>
    <dc:date>2025-09-05T15:49:27.747159</dc:date>
    <dc:format>image/svg+xml</dc:format>
    <dc:creator>
     <cc:Agent>
      <dc:title>Matplotlib v3.10.3, https://matplotlib.org/</dc:title>
     </cc:Agent>
    </dc:creator>
   </cc:Work>
  </rdf:RDF>
 </metadata>
 <defs>
  <style type="text/css">*{stroke-linejoin: round; stroke-linecap: butt}</style>
 </defs>
 <g id="figure_1">
  <g id="patch_1">
   <path d="M 0 108 
L 141.711803 108 
L 141.711803 0 
L 0 0 
z
" style="fill: #ffffff"/>
  </g>
  <g id="axes_1">
   <g id="PatchCollection_1">
    <path d="M 80.421863 50.460028 
L 84.504449 48.965966 
L 84.989341 50.051998 
L 82.751191 50.868059 
L 84.551094 52.768616 
L 80.861079 52.419993 
z
M 81.632804 51.454455 
L 81.841196 51.676815 
L 81.841196 51.438592 
z
" clip-path="url(#p74e6a8b095)" style="fill: #eeeeee; stroke: #000000; stroke-width: 0.3"/>
    <path d="M 53.141926 50.057506 
L 55.896647 50.761631 
L 60.665577 47.356349 
L 63.887198 50.385514 
L 75.324418 47.988631 
L 76.155952 52.3047 
L 77.334148 50.736123 
L 80.888744 52.064042 
L 79.00251 55.992576 
L 66.534107 60.643651 
L 67.018999 59.500173 
L 64.540623 58.857418 
L 61.587514 60.161532 
L 56.772287 58.354094 
z
" clip-path="url(#p74e6a8b095)" style="fill: #eeeeee; stroke: #000000; stroke-width: 0.3"/>
    <path d="M 82.855377 50.607851 
L 87.073751 50.431306 
L 88.569877 52.602756 
L 83.508589 52.636987 
z
" clip-path="url(#p74e6a8b095)" style="fill: #eeeeee; stroke: #000000; stroke-width: 0.3"/>
    <path d="M 81.979756 52.04695 
L 82.661021 52.3047 
L 82.386518 52.268057 
z
" clip-path="url(#p74e6a8b095)" style="fill: #eeeeee; stroke: #000000; stroke-width: 0.3"/>
    <path d="M 81.632804 51.454455 
L 81.841196 51.438592 
L 81.841196 51.676815 
z
" clip-path="url(#p74e6a8b095)" style="fill: #eeeeee; stroke: #000000; stroke-width: 0.3"/>
    <path d="M 91.462809 141.341248 
L 97.427868 133.578362 
L 95.977166 132.554362 
L 100.450189 123.843762 
L 105.017706 103.452925 
L 107.251785 102.408263 
L 107.966492 96.988786 
L 115.343673 96.993633 
L 116.688172 92.416127 
L 117.742116 93.383674 
L 121.953937 89.444478 
L 120.936053 92.612813 
L 123.252353 100.361089 
L 120.722659 105.103179 
L 116.902555 107.548619 
L 116.910582 113.604917 
L 109.733263 109.893565 
L 106.902002 112.437018 
L 105.287013 117.934413 
L 106.791359 124.85956 
L 105.597634 126.638984 
L 109.644392 127.221148 
L 110.339538 125.555977 
L 111.130302 128.642281 
L 105.52344 131.437857 
L 103.686041 137.762305 
L 109.232338 137.775733 
L 114.924891 134.717963 
L 113.706641 140.248336 
L 114.536179 143.887608 
L 108.749443 159.810512 
L 108.851632 167.063407 
L 104.306159 182.03822 
z
" clip-path="url(#p74e6a8b095)" style="fill: #eeeeee; stroke: #000000; stroke-width: 0.3"/>
    <path d="M 108.075351 96.955123 
L 115.156219 77.733957 
L 118.459984 75.433053 
L 118.931712 68.058931 
L 125.095916 62.685623 
L 124.838745 60.056664 
L 130.493785 60.591098 
L 131.411475 59.16545 
L 133.956214 60.541028 
L 131.623881 63.265282 
L 135.603269 65.420869 
L 137.134098 70.712429 
L 131.016753 76.68381 
L 132.587675 79.272463 
L 126.400187 79.758696 
L 123.901551 83.922663 
L 126.105638 85.636627 
L 117.742116 93.383674 
L 116.688172 92.416127 
L 115.343673 96.993633 
z
" clip-path="url(#p74e6a8b095)" style="fill: #eeeeee; stroke: #000000; stroke-width: 0.3"/>
    <path d="M 120.059792 38.018055 
L 122.327004 34.108811 
L 121.517629 31.692448 
L 125.039654 29.868013 
L 128.478044 32.333287 
L 129.239455 29.280411 
L 132.363249 28.281091 
L 132.653785 22.758046 
L 138.300274 22.725068 
L 135.721473 16.81475 
L 137.827383 8.562558 
L 144.125067 10.318058 
L 145.838252 13.483344 
L 153.458393 13.146163 
L 168.544391 6.664129 
L 173.501589 7.908977 
L 178.252392 11.733943 
L 188.228906 12.506009 
L 198.419822 10.594153 
L 216.71577 2.123265 
L 231.659505 2.712096 
L 241.924539 0.347009 
L 245.839813 -3.182313 
L 248.466676 -1.169654 
L 249.05779 3.027292 
L 238.716585 13.532208 
L 229.830095 15.931503 
L 227.728198 19.751576 
L 226.94676 26.712514 
L 229.405322 36.288961 
L 226.261482 46.034009 
L 226.317588 56.669633 
L 221.684989 65.9193 
L 216.357108 67.58258 
L 179.212173 90.272761 
L 141.307842 115.210774 
L 132.942324 113.732574 
L 120.722659 105.103179 
L 123.252353 100.361089 
L 120.843867 91.154164 
L 126.105638 85.636627 
L 123.901551 83.922663 
L 124.422523 82.293591 
L 128.103348 78.950578 
L 132.353226 79.585224 
L 131.016753 76.68381 
L 137.134098 70.712429 
L 135.603269 65.420869 
L 131.623881 63.265282 
L 133.956214 60.541028 
L 131.411475 59.16545 
L 130.493785 60.591098 
L 124.838745 60.056664 
L 122.841345 53.570445 
L 124.693594 47.099593 
L 123.851086 41.905195 
z
" clip-path="url(#p74e6a8b095)" style="fill: #eeeeee; stroke: #000000; stroke-width: 0.3"/>
    <path d="M -67.092186 -54.514175 
L -65.410331 -58.130044 
L -65.198914 -65.797541 
L -54.187941 -75.962204 
L -43.498814 -77.490687 
L -40.292857 -74.034508 
L -34.275394 -73.877702 
L -31.932456 -75.554339 
L -35.796336 -78.151526 
L -34.327468 -79.11827 
L -29.007361 -77.637871 
L -31.536454 -75.87561 
L -30.747591 -75.075293 
L -9.28729 -75.106073 
L -7.349835 -76.683633 
L -14.307633 -79.502069 
L -0.777008 -83.614288 
L 7.92259 -83.798989 
L -5.352435 -85.589122 
L -5.17099 -86.98392 
L -10.140849 -90.78352 
L -9.079034 -91.866645 
L -8.53156 -93.394182 
L -8.948093 -93.674083 
L -6.998016 -95.572937 
L 11.753317 -93.46151 
L 14.575874 -95.157389 
L 25.253969 -91.951277 
L 32.969068 -92.236969 
L 36.10085 -94.516739 
L 36.310696 -97.543918 
L 51.011995 -104.530364 
L 52.979423 -107.08715 
L 73.551462 -114.152483 
L 100.106242 -112.424879 
L 106.499195 -115.88971 
L 110.228954 -114.261181 
L 107.821341 -112.001624 
L 111.816161 -106.968831 
L 117.215154 -104.948796 
L 126.293402 -106.645621 
L 128.028921 -100.981823 
L 133.080806 -96.124109 
L 140.119061 -98.721296 
L 144.516203 -97.024471 
L 147.436587 -93.528837 
L 154.982863 -90.941271 
L 160.006365 -92.961306 
L 162.175749 -89.639782 
L 170.611876 -88.120897 
L 191.923845 -92.721783 
L 205.738453 -88.237301 
L 229.926643 -99.030085 
L 232.454185 -102.218869 
L 238.11948 -100.03418 
L 240.736339 -102.014452 
L 250.722875 -100.271174 
L 254.559981 -103.969098 
L 257.641705 -103.592816 
L 256.605791 -101.985138 
L 264.699812 -97.130332 
L 263.131895 -95.944113 
L 268.562974 -94.487921 
L 275.103114 -84.457015 
L 274.842628 -80.888592 
L 271.97932 -77.719643 
L 275.118139 -70.426441 
L 274.033118 -69.026443 
L 281.14832 -66.625895 
L 286.832866 -67.241605 
L 296.164834 -57.909362 
L 291.487509 -60.887843 
L 289.427682 -59.293616 
L 288.041112 -52.580688 
L 280.807687 -51.625362 
L 282.025957 -47.511465 
L 284.137877 -46.212859 
L 283.465627 -41.945655 
L 285.851042 -39.083957 
L 286.132583 -28.178362 
L 289.413665 -27.139965 
L 284.437428 -16.710792 
L 292.076607 -12.436874 
L 291.491522 -6.072733 
L 296.059988 -2.420624 
L 295.372714 1.14352 
L 292.351109 0.282258 
L 286.041405 5.227465 
L 284.009631 2.427468 
L 285.075614 -1.098804 
L 282.226323 -2.857354 
L 276.824306 -0.222271 
L 263.358318 -4.275082 
L 259.911921 -3.069927 
L 256.876281 -4.378319 
L 252.315821 1.16794 
L 248.671055 1.898494 
L 248.466676 -1.169654 
L 245.839813 -3.182313 
L 241.924539 0.347009 
L 231.659505 2.712096 
L 216.71577 2.123265 
L 198.419822 10.594153 
L 188.228906 12.506009 
L 178.252392 11.733943 
L 173.501589 7.908977 
L 168.544391 6.664129 
L 153.458393 13.146163 
L 145.838252 13.483344 
L 144.125067 10.318058 
L 137.827383 8.562558 
L 135.721473 16.81475 
L 138.412468 22.528382 
L 132.653785 22.758046 
L 132.363249 28.281091 
L 129.239455 29.280411 
L 128.107361 32.399244 
L 123.702755 30.083186 
L 124.946034 27.701432 
L 121.299892 20.945833 
L 129.516711 12.952266 
L 129.085986 9.18536 
L 125.815354 6.239952 
L 117.797331 10.635949 
L 117.268798 11.942237 
L 119.7837 11.120763 
L 118.123927 13.894944 
L 112.743856 15.347447 
L 100.081 8.898699 
L 92.003012 14.262384 
L 85.853019 23.089979 
L 84.149063 20.694774 
L 80.603908 24.899355 
L 79.808725 23.586329 
L 77.967527 25.124434 
L 70.302912 24.899355 
L 63.455563 27.496542 
L 54.959472 23.931642 
L 48.238333 15.218537 
L 35.094269 9.023755 
L 22.409312 7.071048 
L 20.14685 9.668259 
L 20.14685 15.656213 
L 17.385809 22.786958 
L 12.172991 21.078597 
L 2.747635 25.222565 
L -8.419541 18.896934 
L -8.059832 15.073292 
L -10.008318 15.185843 
L -8.419541 12.412607 
L -11.470885 10.378152 
L -13.605546 13.894944 
L -20.912022 7.249981 
L -21.99749 9.474906 
L -24.689105 8.134954 
L -23.953886 11.120763 
L -28.978959 14.787599 
L -30.465178 13.894944 
L -27.937656 12.911865 
L -30.332648 11.855667 
L -27.418584 11.145774 
L -27.379131 9.212286 
L -31.271393 10.635949 
L -35.114742 10.260802 
L -36.050346 12.588656 
L -41.223731 12.412607 
L -42.164047 11.297757 
L -36.550477 9.073778 
L -29.141462 9.668259 
L -28.86378 5.942724 
L -26.470358 6.588173 
L -23.289663 3.62929 
L -38.166086 5.1347 
L -41.763314 3.842832 
L -43.95951 5.364602 
L -44.158306 1.567885 
L -38.106121 1.528453 
L -38.828719 -0.059674 
L -37.238372 -0.221279 
L -37.120052 -1.996046 
L -40.073549 -1.459294 
L -39.535556 -3.239806 
L -41.368863 -3.140729 
L -41.166927 -5.258871 
L -45.363683 -3.948753 
L -45.019736 -9.611582 
L -48.839432 -11.239165 
L -44.224572 -13.097594 
L -44.426508 -18.856639 
L -51.523157 -19.971513 
L -53.709873 -24.265525 
L -56.120646 -23.954822 
L -56.914259 -21.599072 
L -60.885408 -25.327492 
L -63.930412 -25.767106 
L -58.503037 -29.376237 
L -60.929572 -29.88027 
L -61.683732 -34.164684 
L -60.421551 -35.202609 
L -56.227935 -31.41646 
L -57.04679 -29.039552 
L -55.399638 -26.403879 
L -54.831652 -29.310824 
L -53.034618 -27.619767 
L -45.878025 -29.699446 
L -50.3146 -29.422406 
L -52.654378 -31.973424 
L -51.198131 -31.151949 
L -51.991725 -33.264322 
L -54.508216 -34.570611 
L -54.508216 -36.184719 
L -50.93307 -36.506983 
L -51.054569 -38.445245 
L -47.847042 -40.107461 
L -52.81374 -41.60325 
L -51.480544 -44.930542 
L -54.514517 -48.996592 
L -56.638147 -49.288052 
L -50.421889 -54.312169 
L -50.270436 -56.369721 
z
" clip-path="url(#p74e6a8b095)" style="fill: #eeeeee; stroke: #000000; stroke-width: 0.3"/>
    <path d="M -67.805323 -83.798989 
L -61.487456 -89.22752 
L -62.234831 -95.883026 
L -56.201646 -98.514444 
L -56.904953 -104.540813 
L -61.986365 -106.918737 
L -61.970352 -108.72738 
L -58.249433 -109.54772 
L -56.706584 -112.932293 
L -50.24659 -113.613344 
L -48.159718 -115.66326 
L -43.762556 -115.871554 
L -38.468739 -111.366127 
L -33.321178 -113.577317 
L -29.349719 -113.053969 
L -28.803835 -111.10703 
L -30.217469 -109.500629 
L -25.162423 -102.331397 
L -8.170261 -95.624875 
L -10.435882 -90.256367 
L -17.553023 -89.315627 
L -18.974567 -91.965721 
L -19.179664 -89.815807 
L -26.470358 -92.075364 
L -30.813856 -89.379101 
L -38.899715 -89.807155 
L -43.479872 -83.054463 
L -55.200842 -77.189605 
L -61.749997 -71.144868 
L -61.16309 -70.051176 
L -65.396139 -67.730059 
L -63.176271 -71.869204 
L -64.201794 -74.257672 
L -52.378285 -80.65349 
L -53.126126 -82.038666 
L -58.646598 -80.572688 
L -67.407731 -82.038666 
z
" clip-path="url(#p74e6a8b095)" style="fill: #eeeeee; stroke: #000000; stroke-width: 0.3"/>
    <path d="M -74.977698 -69.404757 
L -69.88477 -72.162603 
L -68.63837 -69.658701 
L -72.986598 -68.718907 
z
" clip-path="url(#p74e6a8b095)" style="fill: #eeeeee; stroke: #000000; stroke-width: 0.3"/>
    <path d="M -37.818978 -77.687894 
L -37.288856 -78.37086 
L -36.332759 -77.047243 
z
" clip-path="url(#p74e6a8b095)" style="fill: #eeeeee; stroke: #000000; stroke-width: 0.3"/>
    <path d="M -38.857122 -81.530779 
L -34.857571 -81.201802 
L -37.33777 -80.058064 
z
" clip-path="url(#p74e6a8b095)" style="fill: #eeeeee; stroke: #000000; stroke-width: 0.3"/>
    <path d="M -68.875029 -62.501998 
L -68.367008 -62.762679 
L -66.995948 -61.337102 
z
" clip-path="url(#p74e6a8b095)" style="fill: #eeeeee; stroke: #000000; stroke-width: 0.3"/>
    <path d="M 105.053863 185.306482 
L 108.851632 167.063407 
L 108.749443 159.810512 
L 114.536179 143.887608 
L 113.706641 140.248336 
L 116.880512 128.246922 
L 116.171214 121.332413 
L 117.895391 106.579441 
L 123.400626 105.837705 
L 126.706756 110.470174 
L 141.059377 115.29933 
L 179.212173 90.272761 
L 184.69234 110.960071 
L 183.161511 111.471314 
L 184.141318 114.937729 
L 188.154769 114.358071 
L 189.244793 116.91923 
L 182.874968 122.833828 
L 144.024894 134.73262 
L 163.835639 158.188178 
L 157.363644 162.158508 
L 153.925255 170.108955 
L 139.550591 173.442819 
L 134.671542 181.927749 
L 125.740965 189.129936 
z
" clip-path="url(#p74e6a8b095)" style="fill: #eeeeee; stroke: #000000; stroke-width: 0.3"/>
    <path d="M 61.650037 47.634358 
L 65.178441 47.641143 
L 65.718024 42.375565 
L 80.062755 43.284602 
L 98.135654 35.420867 
L 85.711028 44.414842 
L 84.707587 47.891257 
L 86.886238 50.270883 
L 84.247976 48.965966 
L 82.114012 51.031744 
L 77.742907 50.051998 
L 76.504611 51.714663 
L 75.278334 47.065078 
L 64.448224 49.90784 
z
" clip-path="url(#p74e6a8b095)" style="fill: #eeeeee; stroke: #000000; stroke-width: 0.3"/>
    <path d="M 59.559152 47.657573 
L 59.881987 47.408358 
L 60.013994 47.876245 
z
" clip-path="url(#p74e6a8b095)" style="fill: #eeeeee; stroke: #000000; stroke-width: 0.3"/>
    <path d="M 61.280847 47.436182 
L 64.448224 49.90784 
L 75.278334 47.065078 
L 76.306241 51.658447 
L 77.742907 50.051998 
L 81.054039 52.120235 
L 77.334148 50.736123 
L 76.155952 52.3047 
L 75.324418 47.988631 
L 63.887198 50.385514 
L 61.691118 48.616563 
z
" clip-path="url(#p74e6a8b095)" style="fill: #eeeeee; stroke: #000000; stroke-width: 0.3"/>
    <path d="M 85.305933 50.571185 
L 86.886238 50.270883 
L 87.073751 50.431306 
z
" clip-path="url(#p74e6a8b095)" style="fill: #eeeeee; stroke: #000000; stroke-width: 0.3"/>
    <path d="M 59.211463 47.700788 
L 60.013994 47.876245 
L 60.164283 48.136453 
z
" clip-path="url(#p74e6a8b095)" style="fill: #eeeeee; stroke: #000000; stroke-width: 0.3"/>
    <path d="M 62.609895 59.601329 
L 64.540623 58.857418 
L 67.847955 61.978615 
L 66.115616 61.978615 
L 65.585494 59.895083 
z
" clip-path="url(#p74e6a8b095)" style="fill: #eeeeee; stroke: #000000; stroke-width: 0.3"/>
   </g>
   <g id="PatchCollection_2">
    <path d="M 53.141926 50.057506 
L 55.896647 50.761631 
L 60.665577 47.356349 
L 63.887198 50.385514 
L 75.324418 47.988631 
L 76.155952 52.3047 
L 77.334148 50.736123 
L 80.888744 52.064042 
L 79.00251 55.992576 
L 66.534107 60.643651 
L 67.018999 59.500173 
L 64.540623 58.857418 
L 61.587514 60.161532 
L 56.772287 58.354094 
z
" clip-path="url(#p74e6a8b095)" style="fill: #ff6b6b; stroke: #dd0000; stroke-width: 0.5"/>
    <path d="M 82.855377 50.607851 
L 87.073751 50.431306 
L 88.569877 52.602756 
L 83.508589 52.636987 
z
" clip-path="url(#p74e6a8b095)" style="fill: #ff6b6b; stroke: #dd0000; stroke-width: 0.5"/>
    <path d="M 81.979756 52.04695 
L 82.661021 52.3047 
L 82.386518 52.268057 
z
" clip-path="url(#p74e6a8b095)" style="fill: #ff6b6b; stroke: #dd0000; stroke-width: 0.5"/>
    <path d="M 81.632804 51.454455 
L 81.841196 51.438592 
L 81.841196 51.676815 
z
" clip-path="url(#p74e6a8b095)" style="fill: #ff6b6b; stroke: #dd0000; stroke-width: 0.5"/>
   </g>
  </g>
 </g>
 <defs>
  <clipPath id="p74e6a8b095">
   <rect x="0" y="0" width="141.711803" height="108"/>
  </clipPath>
 </defs>
</svg>
