<?xml version="1.0" encoding="utf-8" standalone="no"?>
<!DOCTYPE svg PUBLIC "-//W3C//DTD SVG 1.1//EN"
  "http://www.w3.org/Graphics/SVG/1.1/DTD/svg11.dtd">
<svg xmlns:xlink="http://www.w3.org/1999/xlink" width="169.136638pt" height="108pt" viewBox="0 0 169.136638 108" xmlns="http://www.w3.org/2000/svg" version="1.1">
 <metadata>
  <rdf:RDF xmlns:dc="http://purl.org/dc/elements/1.1/" xmlns:cc="http://creativecommons.org/ns#" xmlns:rdf="http://www.w3.org/1999/02/22-rdf-syntax-ns#">
   <cc:Work>
    <dc:type rdf:resource="http://purl.org/dc/dcmitype/StillImage"/>
    <dc:date>2025-09-05T15:49:27.780617</dc:date>
    <dc:format>image/svg+xml</dc:format>
    <dc:creator>
     <cc:Agent>
      <dc:title>Matplotlib v3.10.3, https://matplotlib.org/</dc:title>
     </cc:Agent>
    </dc:creator>
   </cc:Work>
  </rdf:RDF>
 </metadata>
 <defs>
  <style type="text/css">*{stroke-linejoin: round; stroke-linecap: butt}</style>
 </defs>
 <g id="figure_1">
  <g id="patch_1">
   <path d="M 0 108 
L 169.136638 108 
L 169.136638 0 
L 0 0 
z
" style="fill: #ffffff"/>
  </g>
  <g id="axes_1">
   <g id="PatchCollection_1">
    <path d="M -58.086266 113.245591 
L -55.182986 109.846675 
L -55.528623 106.499539 
L -54.439497 105.070205 
L -48.713598 104.993309 
L -46.920935 106.414793 
L -41.730368 103.538478 
L -42.020953 89.901192 
L -38.227993 78.224483 
L -38.917707 73.032129 
L -34.528996 68.193674 
L -31.859212 71.230857 
L -30.608808 70.547372 
L -28.828437 67.900986 
L -29.037351 62.588961 
L -27.121801 58.098528 
L -27.12794 54.000046 
L -23.491932 50.88949 
L -17.987995 41.239274 
L -11.636113 40.592673 
L -11.310451 35.572167 
L -7.530035 26.963632 
L -5.522321 16.878295 
L -2.227328 15.837389 
L 2.411765 16.67623 
L 3.316546 14.489673 
L 5.883419 13.93371 
L 9.74677 19.277896 
L 14.766829 7.524291 
L 16.479618 9.879947 
L 19.788434 10.55833 
L 22.723967 14.544991 
L 29.252509 13.383638 
L 31.387718 10.991083 
L 33.137367 11.735369 
L 34.337088 14.1958 
L 38.897853 12.257591 
L 44.504716 14.402572 
L 47.659908 13.804228 
L 58.489604 19.270835 
L 63.823034 26.712915 
L 71.54822 32.299983 
L 75.038289 37.945103 
L 78.580601 40.118329 
L 81.47159 44.174825 
L 72.746396 55.737359 
L 72.284025 66.49206 
L 74.903111 67.5 
L 84.98165 65.072929 
L 89.56083 66.452822 
L 85.451705 72.019087 
L 88.261274 78.459499 
L 91.700661 82.795745 
L 93.477197 83.390931 
L 96.922722 90.532487 
L 99.93199 91.688343 
L 105.331485 96.677857 
L 149.83767 112.041083 
L 164.699695 112.041083 
L 141.584062 134.815793 
L 119.551401 158.887607 
L 105.096457 158.242585 
L 98.549485 159.949301 
L 92.467187 162.893097 
L 88.192147 168.137641 
L 77.36092 169.814534 
L 73.393111 173.495949 
L 63.391384 173.59875 
L 57.457329 168.40169 
L 43.853392 174.743627 
L 38.739622 181.788654 
L 23.945194 178.030722 
L 17.894391 178.610222 
L 1.749695 167.101047 
L -12.731362 165.991095 
L -14.230631 165.013752 
L -17.037124 159.755087 
L -16.256775 152.714373 
L -21.233821 151.002554 
L -23.935872 151.862974 
L -24.315293 149.770577 
L -26.74238 148.09133 
L -28.588802 144.437369 
L -32.614992 131.958307 
L -35.272484 130.926421 
L -35.585854 128.843834 
L -38.899277 127.476104 
L -40.375493 124.634715 
L -42.57216 123.373704 
L -42.974619 120.948987 
L -47.291914 117.194989 
L -57.067813 115.056673 
z
" clip-path="url(#pbf8855f65a)" style="fill: #eeeeee; stroke: #000000; stroke-width: 0.3"/>
    <path d="M 60.667826 246.690693 
L 60.667826 190.314006 
L 66.062714 184.858788 
L 74.694198 171.657003 
L 76.847851 170.077794 
L 88.192147 168.137641 
L 92.467187 162.893097 
L 104.551121 158.375589 
L 119.551401 158.887607 
L 142.223881 134.184771 
L 164.699695 112.041083 
L 178.967247 89.952198 
L 178.967262 62.651401 
L 198.723204 57.485956 
L 204.264149 51.941785 
L 206.593765 51.414779 
L 213.948449 53.783783 
L 210.806589 61.248807 
L 210.875538 63.580046 
L 212.414683 64.334247 
L 211.308554 66.535322 
L 211.985903 72.531789 
L 209.748244 75.028618 
L 212.87371 74.906897 
L 212.215713 73.073037 
L 215.471528 74.345361 
L 215.506248 75.609196 
L 210.937234 75.434266 
L 208.518886 76.640991 
L 207.07635 90.432191 
L 201.270517 98.502225 
L 196.088809 109.543616 
L 192.122695 112.992597 
L 190.932501 118.229062 
L 183.548211 130.049602 
L 180.409427 140.168513 
L 164.243819 165.787375 
L 135.991185 196.187977 
L 113.733069 209.793542 
L 100.488518 221.245197 
L 75.414574 248.649114 
L 75.130335 247.050058 
L 74.128827 251.836095 
L 73.291821 251.216993 
L 73.403099 252.635623 
L 68.921718 259.225863 
L 68.740182 257.350048 
z
" clip-path="url(#pbf8855f65a)" style="fill: #eeeeee; stroke: #000000; stroke-width: 0.3"/>
    <path d="M 85.471666 72.340809 
L 94.896771 58.858256 
L 97.969028 60.650084 
L 97.949676 62.806469 
L 103.024936 69.42635 
L 110.723251 75.324966 
L 114.269472 75.794573 
L 119.855853 75.305408 
L 131.854534 68.285148 
L 141.938543 71.094618 
L 156.179758 63.630703 
L 160.705892 64.896724 
L 166.947163 64.359181 
L 172.767502 61.586169 
L 178.967262 62.651401 
L 178.967247 89.952198 
L 164.699695 112.041083 
L 149.83767 112.041083 
L 105.912135 97.023904 
L 99.93199 91.688343 
L 96.922722 90.532487 
L 93.477197 83.390931 
L 91.700661 82.795745 
L 88.261274 78.459499 
z
" clip-path="url(#pbf8855f65a)" style="fill: #eeeeee; stroke: #000000; stroke-width: 0.3"/>
    <path d="M 72.284025 66.49206 
L 72.746396 55.737359 
L 82.236585 43.348541 
L 85.91253 45.782673 
L 87.606889 44.732747 
L 88.745152 41.741483 
L 92.443807 40.5 
L 95.589844 43.827866 
L 96.852614 47.834161 
L 96.299846 51.17624 
L 93.764646 51.889883 
L 91.51972 54.231615 
L 87.383068 55.315372 
L 85.759843 57.801072 
L 83.488312 57.716431 
L 84.805509 59.331538 
L 88.551488 57.38771 
L 92.951822 57.144889 
L 94.272646 59.026322 
L 88.811203 66.764734 
L 84.98165 65.072929 
L 74.903111 67.5 
z
" clip-path="url(#pbf8855f65a)" style="fill: #eeeeee; stroke: #000000; stroke-width: 0.3"/>
    <path d="M -7.027727 3.668675 
L -4.013852 -1.071701 
L -3.373275 -5.285527 
L 0.837245 -13.715549 
L -0.317931 -17.288286 
L 1.513137 -22.277405 
L 1.122955 -25.624146 
L 7.513243 -25.128999 
L 8.88961 -29.415014 
L 16.957358 -32.998745 
L 17.516501 -31.961361 
L 18.155533 -32.959507 
L 19.848346 -32.657389 
L 25.32113 -39.932861 
L 31.428145 -27.185529 
L 35.614394 -8.408353 
L 37.738351 -6.634443 
L 38.04316 -2.271031 
L 40.329213 -1.89721 
L 41.878644 4.266685 
L 43.301071 4.496538 
L 43.945765 3.060598 
L 42.738628 -0.235137 
L 44.251778 -1.95962 
L 47.293789 0.521144 
L 46.501536 2.093019 
L 48.475511 5.964609 
L 50.368454 7.008811 
L 53.726169 5.429525 
L 56.428294 7.270795 
L 57.497533 10.321841 
L 63.458193 11.207877 
L 71.023916 21.787102 
L 75.38192 23.223649 
L 77.416388 26.292629 
L 79.159349 27.653192 
L 78.578758 25.929316 
L 80.118514 27.339305 
L 81.470788 32.683917 
L 83.76772 32.533147 
L 86.677897 35.56134 
L 87.443546 38.313974 
L 89.624354 39.257469 
L 90.709318 37.578708 
L 92.443807 40.5 
L 88.745152 41.741483 
L 87.606889 44.732747 
L 85.91253 45.782673 
L 82.901731 43.408962 
L 81.47159 44.174825 
L 78.580601 40.118329 
L 75.038289 37.945103 
L 71.54822 32.299983 
L 63.823034 26.712915 
L 58.489604 19.270835 
L 47.659908 13.804228 
L 44.504716 14.402572 
L 38.897853 12.257591 
L 34.337088 14.1958 
L 33.137367 11.735369 
L 31.387718 10.991083 
L 29.252509 13.383638 
L 22.723967 14.544991 
L 19.788434 10.55833 
L 16.479618 9.879947 
L 14.766829 7.524291 
L 9.74677 19.277896 
L 5.883419 13.93371 
L 3.316546 14.489673 
L 2.411765 16.67623 
L -2.227328 15.837389 
L -5.522321 16.878295 
z
" clip-path="url(#pbf8855f65a)" style="fill: #eeeeee; stroke: #000000; stroke-width: 0.3"/>
    <path d="M 45.071855 -5.535242 
L 46.662412 -7.036067 
L 45.37665 -7.879464 
L 48.134422 -6.547328 
L 48.540834 -4.089432 
L 50.073336 -4.987813 
L 51.96023 -2.995789 
L 45.791533 -3.514807 
L 45.174662 -4.96619 
L 47.314345 -4.343991 
z
" clip-path="url(#pbf8855f65a)" style="fill: #eeeeee; stroke: #000000; stroke-width: 0.3"/>
    <path d="M 45.95724 -9.75903 
L 46.855927 -11.118347 
L 47.807854 -9.275848 
z
" clip-path="url(#pbf8855f65a)" style="fill: #eeeeee; stroke: #000000; stroke-width: 0.3"/>
    <path d="M 84.899859 1.996003 
L 85.97757 1.952134 
L 86.420263 0.133126 
L 87.646737 2.516874 
L 86.115454 -4.96619 
L 88.239426 -8.204466 
L 87.565704 -15.12279 
L 91.233682 -17.633544 
L 91.957195 -19.702799 
L 93.369664 -19.581958 
L 93.838188 -21.590002 
L 92.368868 -23.308487 
L 92.454895 -25.984316 
L 94.389647 -28.500066 
L 93.147686 -29.623745 
L 95.199187 -31.645137 
L 98.176202 -32.47142 
L 104.296133 -29.258078 
L 107.772379 -30.821981 
L 122.878647 -31.179812 
L 126.817279 -29.41266 
L 140.078655 -28.077107 
L 145.837595 -28.856318 
L 149.705569 -24.019426 
L 152.544329 -23.876613 
L 156.501391 -26.069062 
L 158.900818 -31.709475 
L 167.416342 -42.120861 
L 180.405057 -48.66251 
L 224.143186 -54.978162 
L 235.1841 -29.202365 
L 236.374591 -28.735477 
L 240.666723 -19.244611 
L 232.376477 -16.281303 
L 228.81193 -13.49593 
L 226.772632 -9.244962 
L 227.855173 -3.660627 
L 215.065413 2.206708 
L 202.96993 4.957474 
L 197.403584 8.074028 
L 193.875332 8.143225 
L 185.407281 11.01263 
L 181.251278 12.989819 
L 179.926828 15.948208 
L 175.351096 20.217702 
L 167.814401 21.348411 
L 165.259834 20.010095 
L 156.064852 26.120858 
L 145.697809 29.530282 
L 130.315983 30.871696 
L 126.410347 34.999698 
L 122.176938 36.645721 
L 121.291538 39.678241 
L 120.113443 39.370536 
L 120.64564 38.21017 
L 118.512007 39.048009 
L 118.657143 40.166358 
L 114.632975 38.804566 
L 111.733692 41.073395 
L 104.75944 42.168268 
L 99.62128 39.765357 
L 97.650916 40.864558 
L 97.727119 38.393679 
L 94.058561 31.754012 
L 94.870166 25.099525 
L 90.090039 13.082508 
L 91.014127 14.166873 
L 88.965153 7.461091 
L 89.886833 8.55844 
L 89.762237 6.477447 
L 88.673647 3.623485 
z
" clip-path="url(#pbf8855f65a)" style="fill: #eeeeee; stroke: #000000; stroke-width: 0.3"/>
    <path d="M 243.88532 42.998075 
L 247.03702 40.40224 
L 251.899547 42.159826 
L 255.961452 40.603196 
L 262.217245 42.894271 
L 256.275104 45.914447 
L 250.191216 46.687811 
z
" clip-path="url(#pbf8855f65a)" style="fill: #eeeeee; stroke: #000000; stroke-width: 0.3"/>
    <path d="M 84.139055 -0.272204 
L 85.284497 -1.070502 
L 84.475314 -0.251203 
L 84.279361 1.612312 
z
" clip-path="url(#pbf8855f65a)" style="fill: #eeeeee; stroke: #000000; stroke-width: 0.3"/>
    <path d="M 243.234042 49.505284 
L 243.587898 49.31596 
L 243.935438 49.557292 
z
" clip-path="url(#pbf8855f65a)" style="fill: #eeeeee; stroke: #000000; stroke-width: 0.3"/>
    <path d="M 239.104956 48.778568 
L 239.382714 48.562715 
L 240.607791 49.209559 
z
" clip-path="url(#pbf8855f65a)" style="fill: #eeeeee; stroke: #000000; stroke-width: 0.3"/>
    <path d="M 225.414011 47.673931 
L 226.221321 47.581667 
L 230.234744 48.989015 
z
" clip-path="url(#pbf8855f65a)" style="fill: #eeeeee; stroke: #000000; stroke-width: 0.3"/>
    <path d="M 96.493377 41.131477 
L 97.367882 41.334134 
L 97.171944 41.65048 
z
" clip-path="url(#pbf8855f65a)" style="fill: #eeeeee; stroke: #000000; stroke-width: 0.3"/>
    <path d="M 86.115454 20.679868 
L 87.74834 20.52849 
L 87.450799 22.094807 
z
" clip-path="url(#pbf8855f65a)" style="fill: #eeeeee; stroke: #000000; stroke-width: 0.3"/>
    <path d="M 86.064652 25.985546 
L 86.139651 25.447379 
L 87.646737 24.373522 
z
" clip-path="url(#pbf8855f65a)" style="fill: #eeeeee; stroke: #000000; stroke-width: 0.3"/>
   </g>
   <g id="PatchCollection_2">
    <defs>
     <path id="m8425ce928d" d="M 72.284025 -41.50794 
L 72.746396 -52.262641 
L 82.236585 -64.651459 
L 85.91253 -62.217327 
L 87.606889 -63.267253 
L 88.745152 -66.258517 
L 92.443807 -67.5 
L 95.589844 -64.172134 
L 96.852614 -60.165839 
L 96.299846 -56.82376 
L 93.764646 -56.110117 
L 91.51972 -53.768385 
L 87.383068 -52.684628 
L 85.759843 -50.198928 
L 83.488312 -50.283569 
L 84.805509 -48.668462 
L 88.551488 -50.61229 
L 92.951822 -50.855111 
L 94.272646 -48.973678 
L 88.811203 -41.235266 
L 84.98165 -42.927071 
L 74.903111 -40.5 
z
" style="stroke: #dd0000; stroke-width: 0.5"/>
    </defs>
    <g clip-path="url(#pbf8855f65a)">
     <use xlink:href="#m8425ce928d" x="0" y="108" style="fill: #ff6b6b; stroke: #dd0000; stroke-width: 0.5"/>
    </g>
   </g>
  </g>
 </g>
 <defs>
  <clipPath id="pbf8855f65a">
   <rect x="0" y="0" width="169.136638" height="108"/>
  </clipPath>
 </defs>
</svg>
