<?xml version="1.0" encoding="utf-8" standalone="no"?>
<!DOCTYPE svg PUBLIC "-//W3C//DTD SVG 1.1//EN"
  "http://www.w3.org/Graphics/SVG/1.1/DTD/svg11.dtd">
<svg xmlns:xlink="http://www.w3.org/1999/xlink" width="172.765946pt" height="108pt" viewBox="0 0 172.765946 108" xmlns="http://www.w3.org/2000/svg" version="1.1">
 <metadata>
  <rdf:RDF xmlns:dc="http://purl.org/dc/elements/1.1/" xmlns:cc="http://creativecommons.org/ns#" xmlns:rdf="http://www.w3.org/1999/02/22-rdf-syntax-ns#">
   <cc:Work>
    <dc:type rdf:resource="http://purl.org/dc/dcmitype/StillImage"/>
    <dc:date>2025-09-05T15:49:27.916208</dc:date>
    <dc:format>image/svg+xml</dc:format>
    <dc:creator>
     <cc:Agent>
      <dc:title>Matplotlib v3.10.3, https://matplotlib.org/</dc:title>
     </cc:Agent>
    </dc:creator>
   </cc:Work>
  </rdf:RDF>
 </metadata>
 <defs>
  <style type="text/css">*{stroke-linejoin: round; stroke-linecap: butt}</style>
 </defs>
 <g id="figure_1">
  <g id="patch_1">
   <path d="M 0 108 
L 172.765946 108 
L 172.765946 0 
L 0 0 
z
" style="fill: #ffffff"/>
  </g>
  <g id="axes_1">
   <g id="PatchCollection_1">
    <path d="M 112.395893 104.075712 
L 113.367813 101.71162 
L 116.032344 99.85638 
L 118.055481 101.725899 
L 120.205045 101.181255 
L 119.410691 100.46731 
L 120.588464 97.822651 
L 118.054455 96.518173 
L 118.950788 94.886293 
L 117.553774 93.185068 
L 116.50754 93.51552 
L 117.431411 91.206414 
L 116.857304 88.215998 
L 118.73053 89.058459 
L 120.529324 88.209879 
L 121.751969 89.057442 
L 125.668716 88.21804 
L 126.068443 85.904859 
L 125.349547 83.818098 
L 125.937921 84.220963 
L 127.376749 83.236743 
L 129.075606 84.163855 
L 131.084456 87.690745 
L 130.697979 88.637228 
L 135.531462 89.314464 
L 138.336205 85.920155 
L 139.944302 88.512798 
L 139.348785 89.566383 
L 141.758388 89.882555 
L 143.18294 88.464868 
L 142.330453 87.180778 
L 143.287977 84.713591 
L 144.79002 84.042484 
L 145.297843 81.86597 
L 144.469835 81.133659 
L 145.439584 80.50845 
L 145.682278 79.133591 
L 144.735981 75.324181 
L 145.704714 71.155759 
L 144.033385 69.611599 
L 142.445682 69.716648 
L 141.81142 67.955246 
L 139.205012 67.25252 
L 140.092169 65.74813 
L 139.599638 63.287061 
L 140.329762 61.767375 
L 141.619706 59.90194 
L 144.113944 59.095173 
L 145.488532 56.213387 
L 143.661194 54.07308 
L 143.358335 52.092393 
L 142.295782 51.492417 
L 138.845046 51.069914 
L 136.365598 52.559512 
L 132.485554 52.824694 
L 133.482841 52.025071 
L 132.282632 49.510458 
L 132.603843 46.477212 
L 133.910106 43.899352 
L 145.141826 44.184933 
L 146.416477 43.428148 
L 148.416151 44.842786 
L 149.325745 44.344553 
L 149.675509 45.425671 
L 152.834604 45.097765 
L 154.065409 46.26379 
L 155.501178 45.72705 
L 157.709892 46.160014 
L 160.739481 47.745483 
L 161.292177 48.897741 
L 162.172191 48.105767 
L 161.24323 45.696458 
L 161.449211 44.016648 
L 162.652478 43.287396 
L 165.33027 37.235689 
L 165.195663 34.075971 
L 166.508053 30.669682 
L 172.415298 29.87976 
L 174.997228 28.630861 
L 178.295005 29.526611 
L 178.77836 30.290017 
L 181.145134 30.060025 
L 182.127118 30.909365 
L 182.7879 29.947072 
L 184.993555 29.383056 
L 186.516001 30.914467 
L 186.384462 34.355433 
L 181.050298 43.909556 
L 181.040096 49.915109 
L 179.020028 55.19295 
L 179.798073 61.502192 
L 177.537354 67.157666 
L 177.864682 70.390814 
L 173.508436 75.241573 
L 170.691962 76.051389 
L 168.823837 77.748539 
L 165.673917 83.850732 
L 162.522982 86.758531 
L 162.82889 97.921581 
L 159.736077 103.884049 
L 156.002875 105.271144 
L 155.264602 106.809186 
L 152.748944 108.044319 
L 149.070817 112.742078 
L 147.507583 113.579438 
L 145.999414 113.001133 
L 144.823674 113.444804 
L 144.331153 110.215731 
L 145.504851 108.935727 
L 144.689066 107.433379 
L 140.322619 109.613979 
L 138.057825 109.169291 
L 138.033346 111.465134 
L 134.877823 113.435626 
L 132.112338 110.392177 
L 131.272085 110.739968 
L 129.72007 108.764383 
L 128.652426 108.559378 
L 127.292115 110.217764 
L 124.955927 110.673672 
L 124.313506 112.377966 
L 123.033754 112.233138 
L 121.232168 114.760916 
L 119.36349 112.443521 
L 119.227324 110.394042 
z
" clip-path="url(#p46fbd7b03e)" style="fill: #eeeeee; stroke: #000000; stroke-width: 0.3"/>
    <path d="M 123.596849 122.745982 
L 123.692494 121.837235 
L 126.159205 121.734219 
L 126.373345 116.172584 
L 125.521874 115.110848 
L 127.835625 113.820137 
L 129.059287 111.999574 
L 131.64836 111.250951 
L 131.871686 110.417677 
L 134.877823 113.435626 
L 138.033346 111.465134 
L 138.057825 109.169291 
L 140.322619 109.613979 
L 144.689066 107.433379 
L 145.504851 108.935727 
L 144.331153 110.215731 
L 144.823674 113.444804 
L 145.999414 113.001133 
L 147.507583 113.579438 
L 149.070817 112.742078 
L 152.748944 108.044319 
L 155.264602 106.809186 
L 156.002875 105.271144 
L 159.736077 103.884049 
L 162.82889 97.921581 
L 162.522982 86.758531 
L 165.673917 83.850732 
L 168.823837 77.748539 
L 170.691962 76.051389 
L 173.508436 75.241573 
L 177.864682 70.390814 
L 177.537354 67.157666 
L 179.798073 61.502192 
L 179.020028 55.19295 
L 181.040096 49.915109 
L 181.050298 43.909556 
L 186.384462 34.355433 
L 186.714849 25.29826 
L 185.682892 22.516677 
L 187.768216 21.798656 
L 191.024189 16.778339 
L 194.237333 14.59698 
L 198.33865 14.926671 
L 203.412785 18.134586 
L 205.793835 21.656631 
L 208.667407 21.277982 
L 212.016174 22.874671 
L 217.209613 22.856829 
L 222.793615 24.481811 
L 224.838151 23.864506 
L 225.646792 21.077319 
L 226.604307 20.900103 
L 228.665163 17.624619 
L 233.757659 19.921488 
L 235.469767 18.509149 
L 242.091843 16.575633 
L 243.467447 15.528177 
L 243.445011 14.676795 
L 246.742788 16.697764 
L 252.435892 15.565144 
L 252.988579 12.818999 
L 254.76545 12.180279 
L 258.387496 14.205078 
L 261.223339 13.531168 
L 264.2254 15.415214 
L 266.562604 14.952171 
L 267.821962 15.513128 
L 269.860381 13.877172 
L 272.111925 14.58117 
L 276.47634 17.977265 
L 276.75472 19.872275 
L 279.138316 20.324107 
L 279.490636 21.615835 
L 282.763935 23.035308 
L 286.45329 20.285088 
L 291.049684 22.389958 
L 293.381274 19.144819 
L 294.968986 19.420709 
L 296.726982 20.264946 
L 296.639289 22.112538 
L 298.045479 22.70613 
L 300.600908 26.185345 
L 303.914995 27.059158 
L 304.09039 29.571996 
L 306.102298 28.960553 
L 307.015967 30.782892 
L 307.576823 30.48916 
L 307.71142 31.73805 
L 306.071712 35.072941 
L 307.152617 37.067404 
L 305.743358 41.096099 
L 307.334129 42.211894 
L 308.283485 41.487744 
L 309.144131 42.62445 
L 310.35097 42.499507 
L 311.277387 44.472299 
L 303.45154 53.002157 
L 301.089355 54.014946 
L 300.26032 56.258259 
L 298.212715 57.08797 
L 298.145416 60.307865 
L 295.803111 64.509947 
L 294.338798 74.388917 
L 294.568232 78.926553 
L 291.168485 81.593643 
L 290.153863 83.416249 
L 290.196684 86.913563 
L 287.547455 88.829997 
L 287.45772 90.077356 
L 287.794223 91.403258 
L 289.148417 92.313031 
L 288.815988 92.991283 
L 291.181233 95.290185 
L 290.987989 103.710662 
L 292.215735 105.618935 
L 292.920364 109.655791 
L 292.060734 113.779341 
L 294.90882 121.518004 
L 293.563812 124.456394 
L 294.171563 127.518198 
L 295.841867 130.547368 
L 299.629107 133.218553 
L 301.637956 135.778551 
L 306.153288 146.087929 
L 287.772813 148.939636 
L 287.811559 151.729123 
L 282.477394 156.7247 
L 284.090591 157.774199 
L 285.891428 161.855927 
L 284.622894 166.076364 
L 285.902636 170.256016 
L 284.469935 172.148983 
L 282.554895 179.042638 
L 284.010545 182.390033 
L 286.41046 183.569054 
L 289.212657 187.384593 
L 293.796304 188.116894 
L 293.545451 186.040326 
L 296.752477 185.166256 
L 296.584225 198.010646 
L 294.957768 197.671017 
L 295.46865 196.289024 
L 294.533561 195.738261 
L 290.683097 197.825023 
L 288.806803 197.421131 
L 285.985237 192.426067 
L 284.355721 192.385271 
L 283.170805 188.790043 
L 278.59226 187.275459 
L 277.585788 186.235137 
L 275.430106 186.543148 
L 273.284607 182.875516 
L 271.444009 181.761754 
L 270.9107 179.3986 
L 269.36786 179.654595 
L 268.617342 182.749043 
L 266.345405 183.774059 
L 263.35762 182.775559 
L 259.080908 182.688866 
L 255.532277 180.970293 
L 254.290254 181.44048 
L 252.804008 180.114578 
L 252.462403 175.699339 
L 246.564334 176.99464 
L 244.378057 178.331762 
L 242.434464 177.716746 
L 243.404223 176.531597 
L 243.190083 174.766109 
L 240.760085 174.204126 
L 240.661174 172.980224 
L 239.548658 172.528401 
L 237.893647 174.058282 
L 234.166563 173.392277 
L 229.809291 174.78855 
L 224.744342 174.195975 
L 222.146092 176.239898 
L 221.43432 172.320337 
L 222.953707 171.421784 
L 222.893542 167.546078 
L 221.379256 163.232828 
L 218.606637 160.524933 
L 217.749049 158.048559 
L 219.248043 148.671395 
L 217.37379 144.145996 
L 218.4292 138.940312 
L 217.679708 137.100377 
L 205.204436 137.129953 
L 206.101796 133.474548 
L 203.221081 133.500048 
L 202.97227 134.323127 
L 195.350865 134.323127 
L 195.265215 139.035167 
L 193.711157 139.969413 
L 193.710141 144.191893 
L 185.432038 143.503448 
L 185.344346 144.148038 
L 181.523451 144.393839 
L 181.30421 145.25057 
L 179.033289 144.611081 
L 176.391193 145.144505 
L 173.586953 141.741019 
L 172.211349 138.529285 
L 169.933294 136.323195 
L 170.204542 134.4496 
L 168.181415 131.425523 
L 167.56958 129.024632 
L 167.773528 126.302457 
L 166.058352 123.472174 
L 140.313443 122.872455 
L 134.383259 123.355895 
L 129.979339 122.605437 
L 128.699775 123.106374 
L 128.266906 124.230902 
L 125.572301 124.947986 
L 125.648233 124.255662 
L 125.050023 124.494387 
z
" clip-path="url(#p46fbd7b03e)" style="fill: #eeeeee; stroke: #000000; stroke-width: 0.3"/>
    <path d="M 128.489107 123.845405 
L 129.308345 123.17036 
L 130.950401 123.135328 
z
" clip-path="url(#p46fbd7b03e)" style="fill: #eeeeee; stroke: #000000; stroke-width: 0.3"/>
    <path d="M 144.691109 5.630082 
L 148.489567 2.874 
L 152.945759 -6.295614 
L 155.006615 -7.699031 
L 155.482817 -9.016772 
L 159.865583 -8.670511 
L 164.2616 -10.489535 
L 164.472682 -11.585958 
L 166.016548 -12.438613 
L 166.663044 -10.559403 
L 168.32213 -9.193218 
L 176.782761 -13.573779 
L 186.149918 -14.193897 
L 191.426985 -20.383297 
L 188.917445 -22.103647 
L 190.418481 -23.443828 
L 204.362151 -24.952808 
L 205.414502 -26.76368 
L 206.658557 -26.570142 
L 208.219758 -27.715522 
L 212.469949 -33.218766 
L 213.628354 -33.192753 
L 214.998858 -35.436836 
L 217.027085 -36.385372 
L 217.064814 -39.741421 
L 224.213065 -43.309363 
L 228.297047 -42.528619 
L 232.541132 -37.797454 
L 236.029597 -32.106791 
L 235.905191 -26.32893 
L 234.347059 -25.274082 
L 233.966699 -23.776579 
L 235.266845 -23.341326 
L 234.652967 -20.735173 
L 241.681913 -20.545464 
L 242.006183 -19.441393 
L 240.887549 -18.052264 
L 241.042551 -16.858441 
L 247.429066 -15.500417 
L 249.984485 -12.696138 
L 251.540575 -12.379966 
L 252.157512 -10.361029 
L 251.030719 -9.575686 
L 251.27953 -8.799017 
L 252.952892 -7.164591 
L 259.524491 -3.820266 
L 260.166913 -2.178705 
L 262.996638 -0.431573 
L 261.933069 1.420095 
L 264.288624 3.987752 
L 263.458573 5.30039 
L 266.926645 6.194098 
L 267.346766 7.055171 
L 270.354945 8.297428 
L 271.709139 10.183784 
L 271.742793 13.316472 
L 273.487529 15.185735 
L 269.860381 13.877172 
L 267.821962 15.513128 
L 266.562604 14.952171 
L 264.2254 15.415214 
L 261.223339 13.531168 
L 258.387496 14.205078 
L 254.76545 12.180279 
L 252.988579 12.818999 
L 252.435892 15.565144 
L 246.742788 16.697764 
L 243.445011 14.676795 
L 243.467447 15.528177 
L 242.091843 16.575633 
L 235.469767 18.509149 
L 233.757659 19.921488 
L 228.665163 17.624619 
L 226.604307 20.900103 
L 225.646792 21.077319 
L 224.838151 23.864506 
L 222.793615 24.481811 
L 217.209613 22.856829 
L 212.016174 22.874671 
L 208.667407 21.277982 
L 205.793835 21.656631 
L 203.412785 18.134586 
L 198.33865 14.926671 
L 194.237333 14.59698 
L 191.024189 16.778339 
L 187.768216 21.798656 
L 185.682892 22.516677 
L 186.714849 25.29826 
L 186.516001 30.914467 
L 184.993555 29.383056 
L 182.7879 29.947072 
L 182.127118 30.909365 
L 181.145134 30.060025 
L 178.77836 30.290017 
L 178.295005 29.526611 
L 174.997228 28.630861 
L 170.560423 30.309912 
L 166.911855 30.403997 
L 165.195663 34.075971 
L 165.33027 37.235689 
L 162.37614 43.051286 
L 161.14941 36.214748 
L 159.754438 34.653753 
L 158.487937 34.554823 
L 151.57423 26.878637 
L 150.99299 25.4946 
L 152.609246 25.129215 
L 151.636428 24.55015 
L 150.67687 21.673456 
L 147.947082 19.613724 
L 147.370933 14.259896 
L 145.999414 13.016099 
L 146.96203 10.99589 
L 146.96203 7.347886 
z
" clip-path="url(#p46fbd7b03e)" style="fill: #eeeeee; stroke: #000000; stroke-width: 0.3"/>
    <path d="M 29.094471 -12.713989 
L 30.062188 -24.152672 
L 33.089744 -24.528775 
L 33.647532 -28.102322 
L 35.611509 -30.024114 
L 35.555428 -31.501466 
L 37.402143 -31.944367 
L 38.15572 -32.953071 
L 38.925605 -34.904439 
L 37.987458 -36.277511 
L 38.773663 -37.758692 
L 39.961637 -37.480769 
L 40.602026 -39.378078 
L 39.542532 -41.428889 
L 39.464015 -44.435105 
L 36.961618 -47.466061 
L 38.920504 -50.823392 
L 38.298477 -52.263007 
L 38.669651 -58.306563 
L 41.506519 -60.59986 
L 43.081987 -63.025994 
L 43.447054 -67.730642 
L 47.205741 -69.918376 
L 50.660562 -70.70219 
L 54.318295 -70.378873 
L 57.22043 -71.75016 
L 63.343857 -69.386995 
L 65.579082 -69.24344 
L 71.185006 -63.017833 
L 72.48311 -63.024464 
L 73.760819 -64.221604 
L 75.672791 -64.173664 
L 79.935227 -66.470532 
L 82.708871 -66.02023 
L 88.374448 -62.308989 
L 97.362271 -61.103185 
L 102.586306 -65.531184 
L 108.064244 -66.764777 
L 115.612223 -66.659472 
L 121.706081 -64.215486 
L 125.801281 -63.696341 
L 126.673146 -65.45877 
L 129.081723 -66.743866 
L 129.447806 -67.890006 
L 133.254424 -68.47136 
L 134.258854 -70.063974 
L 136.995785 -70.011445 
L 141.510594 -63.832752 
L 142.734265 -56.850113 
L 145.676161 -56.528326 
L 147.480046 -54.846986 
L 146.216613 -50.331277 
L 147.000775 -49.541346 
L 146.8468 -48.405923 
L 142.502789 -45.678389 
L 140.695845 -46.052706 
L 138.451435 -43.491424 
L 136.319709 -39.590475 
L 135.294886 -34.972007 
L 133.274818 -33.905426 
L 132.932197 -28.940441 
L 129.577313 -27.321064 
L 130.001509 -26.179513 
L 128.763571 -21.211982 
L 126.64255 -19.698414 
L 124.776457 -19.73692 
L 125.122147 -18.621382 
L 123.377401 -17.533633 
L 123.032738 -13.333081 
L 121.324705 -10.946972 
L 121.345099 -9.539479 
L 118.538826 -6.451159 
L 119.876701 -4.636201 
L 116.813458 -2.630014 
L 116.534051 -0.350741 
L 114.919838 1.517752 
L 112.39092 1.732448 
L 111.633269 -1.292646 
L 107.113862 -5.144125 
L 106.298088 -2.616248 
L 103.484672 -2.660616 
L 102.814724 -3.928887 
L 100.167527 -1.757988 
L 99.318099 -1.827589 
L 98.375877 0.772189 
L 94.902704 2.916828 
L 91.367324 7.04395 
L 90.116125 7.520256 
L 89.755153 8.941773 
L 90.590305 10.011157 
L 89.554263 14.30834 
L 86.898927 18.75646 
L 83.463987 15.968138 
L 85.159775 19.348739 
L 84.519041 20.338544 
L 77.315153 20.567826 
L 77.18026 18.735579 
L 76.757918 20.100431 
L 74.577955 19.819745 
L 75.093445 20.528076 
L 74.577955 20.769801 
L 72.513627 18.270592 
L 73.626488 20.630065 
L 72.239025 21.443593 
L 72.239025 19.410169 
L 71.436896 18.539623 
L 71.699451 19.753095 
L 70.824261 19.005419 
L 72.039092 21.82305 
L 71.504343 22.055549 
L 70.509513 21.806185 
L 69.687315 17.689158 
L 68.999203 17.517291 
L 70.53039 22.191673 
L 68.999203 22.251899 
L 69.201543 19.753095 
L 68.796862 21.578513 
L 68.392182 20.702341 
L 68.723792 22.430586 
L 67.983496 22.428987 
L 67.818085 20.994671 
L 67.370052 20.769801 
L 67.558747 22.447056 
L 64.607971 22.86426 
L 65.219806 21.443593 
L 64.534101 21.847544 
L 64.270747 20.837261 
L 64.135853 22.791175 
L 63.0519 23.066236 
L 62.814229 21.694959 
L 62.548457 22.838563 
L 61.826621 21.645973 
L 61.558442 22.460299 
L 60.852668 22.112164 
L 56.763349 17.388795 
L 55.880927 14.644644 
L 56.96488 14.479211 
L 55.679396 14.270406 
L 55.428878 12.489554 
L 57.774231 12.114112 
L 57.340652 11.18253 
L 58.130734 10.90065 
L 58.386067 10.552909 
L 56.251884 11.57604 
L 56.353054 11.980001 
L 54.026161 10.93518 
L 54.271055 10.148149 
L 57.100573 10.054992 
L 56.487139 9.407707 
L 55.289169 9.909236 
L 55.403186 8.733511 
L 54.837919 9.789977 
L 53.346878 9.685175 
L 53.085922 8.056108 
L 54.937481 6.902468 
L 52.513433 8.309882 
L 49.584344 4.644994 
L 46.207221 2.473838 
L 36.716586 1.965884 
L 36.137674 1.628594 
L 40.667006 -0.012523 
L 37.423968 0.813853 
L 37.087543 0.072601 
L 36.309498 0.566503 
L 35.988327 1.574377 
L 36.133659 2.090768 
L 29.417685 2.380296 
L 30.290605 -8.566479 
z
" clip-path="url(#p46fbd7b03e)" style="fill: #eeeeee; stroke: #000000; stroke-width: 0.3"/>
    <path d="M 73.167207 21.833896 
L 74.069707 20.494346 
L 74.510518 20.897892 
L 75.086213 20.897892 
L 74.74898 21.659226 
z
" clip-path="url(#p46fbd7b03e)" style="fill: #eeeeee; stroke: #000000; stroke-width: 0.3"/>
    <path d="M 75.129576 21.211104 
L 77.572084 20.969774 
L 76.06579 21.461257 
z
" clip-path="url(#p46fbd7b03e)" style="fill: #eeeeee; stroke: #000000; stroke-width: 0.3"/>
    <path d="M 10.325477 -37.080696 
L 10.448866 -40.297286 
L 11.634798 -43.254801 
L 12.244592 -43.07121 
L 12.423045 -44.117147 
L 13.733383 -43.599532 
L 13.221484 -44.728333 
L 14.169824 -44.96394 
L 13.944465 -45.893342 
L 15.866648 -46.176879 
L 16.944494 -48.001774 
L 18.542398 -47.162125 
L 22.309244 -47.412002 
L 25.172624 -49.761143 
L 26.231092 -52.680666 
L 26.979567 -52.988173 
L 26.037345 -55.35491 
L 27.357885 -55.98981 
L 30.80352 -57.134667 
L 38.224035 -50.192568 
L 36.961618 -47.466061 
L 39.464015 -44.435105 
L 39.542532 -41.428889 
L 40.602026 -39.378078 
L 39.961637 -37.480769 
L 38.773663 -37.758692 
L 37.987458 -36.277511 
L 38.925605 -34.904439 
L 38.15572 -32.953071 
L 37.402143 -31.944367 
L 35.555428 -31.501466 
L 35.611509 -30.024114 
L 33.647532 -28.102322 
L 33.089744 -24.528775 
L 30.062188 -24.152672 
L 29.094471 -12.713989 
L 30.290605 -8.566479 
L 29.417685 2.380296 
L 18.720516 3.904542 
L 20.325889 3.279155 
L 18.191608 -0.67686 
L 17.855104 -3.773352 
L 18.779991 -3.821282 
L 18.538313 -24.078472 
L 15.826877 -28.740538 
L 15.872766 -33.423258 
z
" clip-path="url(#p46fbd7b03e)" style="fill: #eeeeee; stroke: #000000; stroke-width: 0.3"/>
    <path d="M 86.706226 20.550961 
L 87.613738 17.054742 
L 89.554263 14.30834 
L 90.590305 10.011157 
L 89.755153 8.941773 
L 90.011097 7.68267 
L 94.902704 2.916828 
L 98.375877 0.772189 
L 99.318099 -1.827589 
L 100.167527 -1.757988 
L 102.814724 -3.928887 
L 103.484672 -2.660616 
L 106.298088 -2.616248 
L 107.113862 -5.144125 
L 111.633269 -1.292646 
L 112.228785 1.583278 
L 113.792019 1.772228 
L 116.534051 -0.350741 
L 116.813458 -2.630014 
L 119.876701 -4.636201 
L 118.538826 -6.451159 
L 121.345099 -9.539479 
L 121.324705 -10.946972 
L 123.032738 -13.333081 
L 123.377401 -17.533633 
L 125.122147 -18.621382 
L 124.776457 -19.73692 
L 126.64255 -19.698414 
L 128.976695 -21.503681 
L 130.001509 -26.179513 
L 129.577313 -27.321064 
L 132.932197 -28.940441 
L 133.274818 -33.905426 
L 135.294886 -34.972007 
L 136.319709 -39.590475 
L 138.451435 -43.491424 
L 140.695845 -46.052706 
L 142.502789 -45.678389 
L 146.949796 -48.642289 
L 146.216613 -50.331277 
L 147.463737 -54.952034 
L 145.676161 -56.528326 
L 142.734265 -56.850113 
L 141.510594 -63.832752 
L 144.99601 -63.863866 
L 146.344077 -60.762786 
L 148.952528 -59.498848 
L 149.730573 -54.702661 
L 151.224466 -54.029511 
L 152.074911 -48.564773 
L 150.946085 -45.127893 
L 152.100405 -38.605998 
L 157.458022 -33.372012 
L 148.492635 -32.685856 
L 142.662881 -33.242737 
L 140.336896 -30.030233 
L 144.318908 -25.251128 
L 151.248934 -20.074517 
L 155.085132 -12.136711 
L 156.290441 -11.673155 
L 155.006615 -7.699031 
L 152.945759 -6.295614 
L 148.489567 2.874 
L 144.691109 5.630082 
L 146.96203 7.347886 
L 146.96203 10.99589 
L 145.999414 13.016099 
L 147.370933 14.259896 
L 147.947082 19.613724 
L 150.67687 21.673456 
L 151.636428 24.55015 
L 152.609246 25.129215 
L 150.99299 25.4946 
L 151.57423 26.878637 
L 161.514477 36.96949 
L 161.494083 40.450995 
L 162.652478 43.287396 
L 161.632765 43.578591 
L 161.232012 45.332089 
L 162.140579 48.261055 
L 161.292177 48.897741 
L 160.739481 47.745483 
L 157.709892 46.160014 
L 155.501178 45.72705 
L 154.065409 46.26379 
L 152.834604 45.097765 
L 149.675509 45.425671 
L 149.325745 44.344553 
L 148.416151 44.842786 
L 146.416477 43.428148 
L 145.141826 44.184933 
L 133.910106 43.899352 
L 133.812211 43.0982 
L 132.620162 42.694318 
L 128.53617 43.152772 
L 117.75568 42.306235 
L 114.740358 42.522461 
L 114.448717 43.852951 
L 101.31573 43.854481 
L 99.538356 42.87484 
L 100.96787 35.122204 
L 100.708522 32.940607 
L 97.873371 30.300853 
L 99.624569 29.424286 
L 97.716801 29.699347 
L 96.924311 27.531803 
L 97.697531 28.217239 
L 97.666215 26.987317 
L 98.883464 27.531803 
L 98.210604 26.650016 
L 99.08018 26.171776 
L 97.644539 26.143267 
L 98.983026 24.413009 
L 97.254313 25.623668 
L 96.259483 24.652731 
L 96.791825 25.856167 
L 95.859627 25.451406 
L 96.24343 26.582556 
L 94.927419 26.582556 
L 94.756395 25.436949 
L 93.617042 26.104721 
L 91.254018 24.757543 
L 90.903938 20.291966 
L 90.028748 19.439084 
L 90.234295 20.377899 
L 89.551007 19.819745 
L 89.450636 20.408817 
L 88.135434 18.466548 
L 88.801871 20.688289 
z
" clip-path="url(#p46fbd7b03e)" style="fill: #eeeeee; stroke: #000000; stroke-width: 0.3"/>
    <path d="M 88.534491 71.014227 
L 90.003056 73.122344 
L 90.8381 72.007655 
L 91.651466 73.856362 
L 92.533089 71.143532 
L 94.562086 68.504577 
L 94.945889 61.71447 
L 95.092021 63.438294 
L 95.724734 63.170871 
L 96.353431 64.255038 
L 96.513207 63.370439 
L 97.327383 64.117305 
L 98.567107 63.894853 
L 99.551498 64.993477 
L 99.022373 63.986402 
L 101.657582 63.370439 
L 99.354782 63.438294 
L 96.452184 62.354127 
L 94.554065 59.854513 
L 94.655235 59.046206 
L 96.856864 58.500506 
L 97.055988 59.091986 
L 96.252261 59.116074 
L 96.116568 59.315642 
L 97.194098 59.315642 
L 97.194098 60.191813 
L 97.536147 60.59536 
L 97.379577 55.21547 
L 98.889887 54.767753 
L 100.852779 56.098648 
L 101.695064 55.322482 
L 114.589442 55.365321 
L 114.740358 42.522461 
L 124.310447 42.389356 
L 128.53617 43.152772 
L 132.620162 42.694318 
L 133.812211 43.0982 
L 132.603843 46.477212 
L 132.282632 49.510458 
L 133.482841 52.025071 
L 132.485554 52.824694 
L 136.365598 52.559512 
L 138.845046 51.069914 
L 142.295782 51.492417 
L 143.358335 52.092393 
L 143.661194 54.07308 
L 145.488532 56.213387 
L 144.113944 59.095173 
L 141.619706 59.90194 
L 140.329762 61.767375 
L 139.599638 63.287061 
L 140.092169 65.74813 
L 139.205012 67.25252 
L 141.81142 67.955246 
L 142.445682 69.716648 
L 144.033385 69.611599 
L 145.704714 71.155759 
L 144.738014 75.182412 
L 145.682278 79.133591 
L 145.439584 80.50845 
L 144.469835 81.133659 
L 145.297843 81.86597 
L 144.861403 83.906834 
L 143.23903 84.787022 
L 142.330453 87.180778 
L 143.18294 88.464868 
L 141.758388 89.882555 
L 139.348785 89.566383 
L 139.944302 88.512798 
L 138.336205 85.920155 
L 135.531462 89.314464 
L 130.697979 88.637228 
L 131.084456 87.690745 
L 129.075606 84.163855 
L 127.376749 83.236743 
L 125.937921 84.220963 
L 125.349547 83.818098 
L 126.068443 85.904859 
L 125.668716 88.21804 
L 121.751969 89.057442 
L 120.529324 88.209879 
L 118.73053 89.058459 
L 116.857304 88.215998 
L 117.431411 91.206414 
L 116.50754 93.51552 
L 117.553774 93.185068 
L 118.950788 94.886293 
L 118.054455 96.518173 
L 120.588464 97.822651 
L 119.410691 100.46731 
L 120.205045 101.181255 
L 118.055481 101.725899 
L 116.032344 99.85638 
L 113.367813 101.71162 
L 112.395893 104.075712 
L 110.913603 101.654344 
L 107.782538 99.290134 
L 107.673939 97.925725 
L 100.441971 91.874235 
L 98.478783 89.334289 
L 99.381273 89.905282 
L 99.826909 89.469209 
L 101.180649 91.166132 
L 102.949499 90.61602 
L 102.760814 90.167089 
L 101.248086 90.491541 
L 100.166541 89.001805 
L 98.957333 89.604129 
L 98.681123 88.70306 
L 98.478783 89.262013 
L 97.428553 88.438036 
L 97.120228 86.862386 
L 94.214423 83.744796 
L 96.148683 84.196934 
L 96.89782 85.661762 
L 96.646493 84.236279 
L 95.233337 83.178609 
L 94.897712 83.859634 
L 94.057853 83.336019 
L 93.709382 80.815129 
L 91.702051 78.210713 
L 91.376065 77.372288 
L 91.729352 78.10149 
L 93.108784 79.712488 
L 94.149384 80.376638 
L 94.303547 81.755543 
L 97.059205 81.089785 
L 96.042698 79.736577 
L 94.366179 80.680209 
L 93.990407 79.850616 
L 94.835089 79.027447 
L 94.847936 77.890278 
L 94.72428 78.753601 
L 93.37054 79.145502 
L 91.834538 78.04527 
L 91.864245 77.002866 
L 90.23028 74.866644 
L 90.627728 75.178247 
L 90.903938 74.733333 
L 89.955678 74.328582 
z
" clip-path="url(#p46fbd7b03e)" style="fill: #eeeeee; stroke: #000000; stroke-width: 0.3"/>
    <path d="M 95.255675 57.232206 
L 95.327699 57.235729 
L 95.283863 57.261959 
z
" clip-path="url(#p46fbd7b03e)" style="fill: #eeeeee; stroke: #000000; stroke-width: 0.3"/>
    <path d="M 91.039641 71.755479 
L 91.947755 71.835787 
L 91.603289 72.746498 
z
" clip-path="url(#p46fbd7b03e)" style="fill: #eeeeee; stroke: #000000; stroke-width: 0.3"/>
    <path d="M 1.10159 -44.658465 
L 7.541641 -43.358063 
L 7.551833 -42.667585 
L 11.634798 -43.254801 
L 10.245944 -37.229353 
L 15.999213 -33.087448 
L 15.826877 -28.740538 
L 18.485291 -24.34773 
L 18.96252 -18.591294 
L 18.779991 -3.821282 
L 17.855104 -3.773352 
L 18.191608 -0.67686 
L 20.325889 3.279155 
L 18.720516 3.904542 
L 14.436079 5.023642 
L 12.444456 2.812036 
L 10.098076 1.664367 
L 7.863868 -2.197573 
L 7.620158 -3.587728 
L 8.640896 -4.160921 
L 9.110991 -7.046279 
L 7.630359 -8.829619 
L 8.781621 -10.75523 
L 8.402287 -15.733981 
L 9.77279 -16.661853 
L 6.350351 -21.362169 
L 7.72927 -22.270659 
L 6.995574 -23.862 
L 7.983182 -27.547997 
L 6.802084 -28.44731 
L 4.978319 -27.856265 
L 5.719394 -28.597496 
L 5.011706 -29.271406 
L 6.467367 -29.406296 
L 5.315335 -30.074857 
L 6.16501 -30.134008 
L 6.653467 -36.253038 
L 1.870973 -39.709546 
L 2.900374 -43.944016 
z
" clip-path="url(#p46fbd7b03e)" style="fill: #eeeeee; stroke: #000000; stroke-width: 0.3"/>
    <path d="M -29.448752 -0.074851 
L -29.243284 -1.986953 
L -26.590474 -5.97434 
L -26.281754 -9.548657 
L -24.792962 -13.161736 
L -23.016348 -14.116124 
L -23.017374 -15.348198 
L -21.987962 -15.786501 
L -23.10405 -22.835958 
L -24.637201 -24.132274 
L -23.502249 -26.282785 
L -24.839107 -30.694965 
L -24.233389 -31.709283 
L -24.440899 -36.03171 
L -25.292883 -36.845612 
L -24.565305 -37.614633 
L -26.192788 -39.717707 
L -25.253871 -43.306817 
L -5.426666 -43.384076 
L -3.522341 -42.418211 
L -0.236028 -44.934355 
L 2.900374 -43.944016 
L 1.870973 -39.709546 
L 6.653467 -36.253038 
L 6.16501 -30.134008 
L 5.315335 -30.074857 
L 6.467367 -29.406296 
L 5.011706 -29.271406 
L 5.719394 -28.597496 
L 4.978319 -27.856265 
L 6.802084 -28.44731 
L 7.983182 -27.547997 
L 6.995574 -23.862 
L 7.72927 -22.270659 
L 6.350351 -21.362169 
L 9.77279 -16.661853 
L 8.402287 -15.733981 
L 8.781621 -10.75523 
L 7.630359 -8.829619 
L 9.110991 -7.046279 
L 8.640896 -4.160921 
L 7.620158 -3.587728 
L 7.832256 -2.291915 
L 10.098076 1.664367 
L 12.444456 2.812036 
L 14.436079 5.023642 
L 12.161378 8.076989 
L 5.141351 8.421513 
L -5.148196 13.763656 
L -13.228083 15.66216 
L -16.809155 18.326812 
L -17.945301 18.464535 
L -20.510656 16.676863 
L -28.038931 14.982349 
L -24.556129 14.294574 
L -24.782514 12.460758 
L -24.196173 12.201181 
L -24.820746 9.882394 
L -26.324584 9.880865 
L -26.511444 8.879296 
L -27.152346 8.933868 
z
" clip-path="url(#p46fbd7b03e)" style="fill: #eeeeee; stroke: #000000; stroke-width: 0.3"/>
    <path d="M 94.958735 53.563922 
L 96.129414 51.266284 
L 97.603593 49.554105 
L 98.041987 49.778166 
L 98.305351 49.743627 
L 98.883464 49.435646 
L 97.529724 48.99756 
L 99.527414 46.130537 
L 99.427043 42.116299 
L 99.664804 43.031401 
L 101.31573 43.854481 
L 114.448717 43.852951 
L 114.589442 55.365321 
L 101.695064 55.322482 
L 100.852779 56.098648 
L 98.6201 54.041758 
L 97.303299 54.933186 
L 96.715548 54.041758 
L 95.450132 54.256987 
z
" clip-path="url(#p46fbd7b03e)" style="fill: #eeeeee; stroke: #000000; stroke-width: 0.3"/>
    <path d="M 86.034166 31.462525 
L 87.390313 31.048134 
L 88.254275 28.453349 
L 90.775468 28.212028 
L 91.056492 29.428707 
L 88.442161 33.673026 
L 86.113659 32.926959 
z
" clip-path="url(#p46fbd7b03e)" style="fill: #eeeeee; stroke: #000000; stroke-width: 0.3"/>
    <path d="M 58.176504 79.367155 
L 58.31862 79.196897 
L 58.277674 79.787972 
z
" clip-path="url(#p46fbd7b03e)" style="fill: #eeeeee; stroke: #000000; stroke-width: 0.3"/>
    <path d="M 75.086213 49.778166 
L 75.606518 48.524945 
L 76.370898 48.700414 
L 75.765496 50.115062 
z
" clip-path="url(#p46fbd7b03e)" style="fill: #eeeeee; stroke: #000000; stroke-width: 0.3"/>
    <path d="M 66.584784 62.5818 
L 68.661969 61.207721 
L 69.403074 62.757683 
L 67.134797 64.987457 
z
" clip-path="url(#p46fbd7b03e)" style="fill: #eeeeee; stroke: #000000; stroke-width: 0.3"/>
   </g>
   <g id="PatchCollection_2">
    <path d="M 94.958735 53.563922 
L 96.129414 51.266284 
L 97.603593 49.554105 
L 98.041987 49.778166 
L 98.305351 49.743627 
L 98.883464 49.435646 
L 97.529724 48.99756 
L 99.527414 46.130537 
L 99.427043 42.116299 
L 99.664804 43.031401 
L 101.31573 43.854481 
L 114.448717 43.852951 
L 114.589442 55.365321 
L 101.695064 55.322482 
L 100.852779 56.098648 
L 98.6201 54.041758 
L 97.303299 54.933186 
L 96.715548 54.041758 
L 95.450132 54.256987 
z
" clip-path="url(#p46fbd7b03e)" style="fill: #ff6b6b; stroke: #dd0000; stroke-width: 0.5"/>
    <path d="M 86.034166 31.462525 
L 87.390313 31.048134 
L 88.254275 28.453349 
L 90.775468 28.212028 
L 91.056492 29.428707 
L 88.442161 33.673026 
L 86.113659 32.926959 
z
" clip-path="url(#p46fbd7b03e)" style="fill: #ff6b6b; stroke: #dd0000; stroke-width: 0.5"/>
    <path d="M 58.176504 79.367155 
L 58.31862 79.196897 
L 58.277674 79.787972 
z
" clip-path="url(#p46fbd7b03e)" style="fill: #ff6b6b; stroke: #dd0000; stroke-width: 0.5"/>
   </g>
  </g>
 </g>
 <defs>
  <clipPath id="p46fbd7b03e">
   <rect x="0" y="0" width="172.765946" height="108"/>
  </clipPath>
 </defs>
</svg>
