<?xml version="1.0" encoding="utf-8" standalone="no"?>
<!DOCTYPE svg PUBLIC "-//W3C//DTD SVG 1.1//EN"
  "http://www.w3.org/Graphics/SVG/1.1/DTD/svg11.dtd">
<svg xmlns:xlink="http://www.w3.org/1999/xlink" width="166.76874pt" height="108pt" viewBox="0 0 166.76874 108" xmlns="http://www.w3.org/2000/svg" version="1.1">
 <metadata>
  <rdf:RDF xmlns:dc="http://purl.org/dc/elements/1.1/" xmlns:cc="http://creativecommons.org/ns#" xmlns:rdf="http://www.w3.org/1999/02/22-rdf-syntax-ns#">
   <cc:Work>
    <dc:type rdf:resource="http://purl.org/dc/dcmitype/StillImage"/>
    <dc:date>2025-09-05T15:49:27.929222</dc:date>
    <dc:format>image/svg+xml</dc:format>
    <dc:creator>
     <cc:Agent>
      <dc:title>Matplotlib v3.10.3, https://matplotlib.org/</dc:title>
     </cc:Agent>
    </dc:creator>
   </cc:Work>
  </rdf:RDF>
 </metadata>
 <defs>
  <style type="text/css">*{stroke-linejoin: round; stroke-linecap: butt}</style>
 </defs>
 <g id="figure_1">
  <g id="patch_1">
   <path d="M 0 108 
L 166.76874 108 
L 166.76874 0 
L 0 0 
z
" style="fill: #ffffff"/>
  </g>
  <g id="axes_1">
   <g id="PatchCollection_1">
    <path d="M 26.091231 117.598463 
L 27.741503 115.639031 
L 27.545037 113.70945 
L 28.164114 112.885457 
L 31.418809 112.841127 
L 32.437788 113.660595 
L 35.388192 112.002436 
L 35.223018 104.140716 
L 37.378999 97.409242 
L 36.986954 94.415917 
L 39.48157 91.626609 
L 40.999119 93.377506 
L 41.709869 92.983486 
L 42.721861 91.457879 
L 42.603111 88.395564 
L 43.691941 85.806887 
L 43.688452 83.444164 
L 45.755219 81.650969 
L 48.883747 76.087743 
L 52.494261 75.714986 
L 52.679372 72.820728 
L 54.828223 67.858018 
L 55.969441 62.04395 
L 57.842369 61.443881 
L 60.479305 61.927463 
L 60.993597 60.66694 
L 62.45265 60.346434 
L 64.648643 63.42729 
L 67.502127 56.651486 
L 68.475704 58.009492 
L 70.356489 58.400571 
L 72.025094 60.69883 
L 75.736025 60.029325 
L 76.949713 58.650048 
L 77.944242 59.079119 
L 78.626184 60.497526 
L 81.218597 59.380173 
L 84.40563 60.616728 
L 86.199093 60.27179 
L 92.35487 63.423219 
L 95.386479 67.713483 
L 99.777602 70.934356 
L 101.761415 74.188696 
L 103.774923 75.441532 
L 105.418209 77.78005 
L 100.458665 84.445703 
L 100.195845 90.645651 
L 101.684577 91.226715 
L 107.413384 89.82754 
L 110.016265 90.623031 
L 107.680571 93.831911 
L 109.277577 97.544726 
L 111.23258 100.044516 
L 112.242393 100.387633 
L 114.200886 104.504649 
L 115.911403 105.170985 
L 118.980565 108.047376 
L 144.278612 116.904079 
L 152.72643 116.904079 
L 139.587125 130.033408 
L 127.063399 143.9105 
L 118.846971 143.538653 
L 115.125564 144.522554 
L 111.668286 146.219614 
L 109.238283 149.243026 
L 103.081636 150.209734 
L 100.826269 152.332023 
L 95.141123 152.391286 
L 91.768108 149.395248 
L 84.035407 153.051293 
L 81.128656 157.112661 
L 72.71926 154.946261 
L 69.279884 155.280335 
L 60.102974 148.645443 
L 51.871703 148.00557 
L 51.019494 147.442145 
L 49.424237 144.410592 
L 49.8678 140.35171 
L 47.038766 139.364869 
L 45.502875 139.860889 
L 45.287206 138.65465 
L 43.90761 137.686585 
L 42.858074 135.580123 
L 40.569521 128.386104 
L 39.058959 127.791235 
L 38.880834 126.59065 
L 36.99743 125.802171 
L 36.158325 124.164147 
L 34.909703 123.43719 
L 34.680939 122.039372 
L 32.226918 119.87524 
L 26.670136 118.642528 
z
" clip-path="url(#p4b3c3979a9)" style="fill: #eeeeee; stroke: #000000; stroke-width: 0.3"/>
    <path d="M -48.698814 113.032251 
L -47.740959 111.800003 
L -48.362647 110.66003 
L -45.140249 109.111567 
L -44.111234 104.851836 
L -43.162114 103.564623 
L -43.129368 100.951969 
L -41.609631 99.652089 
L -40.759171 96.855087 
L -34.409995 95.693632 
L -33.759929 97.779505 
L -27.674442 103.912493 
L -23.833415 102.808035 
L -16.950735 102.908013 
L -15.683163 105.219061 
L -8.935217 105.27913 
L -8.343901 103.489086 
L -3.534636 101.452515 
L -2.429653 100.115081 
L -2.416558 98.857272 
L 0.942052 96.998493 
L 7.297776 101.779805 
L 10.669489 101.432154 
L 14.897323 97.490889 
L 17.24656 93.627666 
L 21.367877 89.892905 
L 20.67546 87.919896 
L 20.671962 84.457013 
L 18.423582 81.860195 
L 24.03712 81.834634 
L 23.911383 79.966347 
L 27.944947 80.017015 
L 26.880567 85.367407 
L 27.360365 92.896858 
L 29.398754 93.713165 
L 33.92434 97.838541 
L 34.399779 100.636891 
L 33.623977 103.750092 
L 35.223018 104.140716 
L 35.570684 111.389245 
L 34.378827 112.975254 
L 32.52947 113.645661 
L 31.418809 112.841127 
L 28.164114 112.885457 
L 27.545037 113.70945 
L 27.741503 115.639031 
L 26.091231 117.598463 
L 26.670136 118.642528 
L 32.226918 119.87524 
L 34.680939 122.039372 
L 34.909703 123.43719 
L 36.158325 124.164147 
L 36.99743 125.802171 
L 38.880834 126.59065 
L 39.058959 127.791235 
L 40.569521 128.386104 
L 42.858074 135.580123 
L 43.90761 137.686585 
L 45.287206 138.65465 
L 45.502875 139.860889 
L 47.038766 139.364869 
L 49.8678 140.35171 
L 49.424237 144.410592 
L 50.853594 146.467962 
L 49.320787 145.927016 
L 48.99099 146.732512 
L 48.232971 146.461991 
L 47.485623 145.057459 
L 47.896686 143.973274 
L 46.420601 143.779674 
L 46.55139 142.869735 
L 45.150048 143.295663 
L 37.846142 146.460731 
L 30.322562 154.080206 
L 27.566867 153.963718 
L 26.154095 152.891605 
L 24.119634 153.911466 
L 20.870169 154.243737 
L 19.315515 155.223339 
L 19.148305 156.159285 
L 17.137855 155.40542 
L 15.852559 153.496419 
L 13.705457 154.90012 
L 10.476081 153.770555 
L 8.811405 154.697004 
L 7.925141 156.352221 
L 7.142791 154.735687 
L 5.508241 155.351583 
L 5.269863 153.049026 
L 2.432101 152.273897 
L 0.243957 149.187606 
L -0.960124 148.661052 
L -0.885036 147.022117 
L -3.095872 146.10584 
L -3.749874 146.028491 
L -5.746351 148.90714 
L -9.682117 147.039983 
L -13.044656 149.413342 
L -15.644048 148.220443 
L -15.945729 147.074596 
L -17.986737 146.673791 
L -18.154386 145.081909 
L -20.165275 143.814593 
L -22.278313 140.858367 
L -22.30713 138.079468 
L -23.46669 136.406148 
L -26.042511 135.304184 
L -26.402249 134.540356 
L -29.371864 133.747579 
L -28.661114 132.583183 
L -30.678112 130.305504 
L -29.767407 128.662954 
L -32.190423 127.113134 
L -32.740511 125.656962 
L -38.367591 122.690327 
L -39.800446 121.240485 
L -40.013496 120.551529 
L -39.048654 119.854878 
L -39.57692 118.06395 
L -40.909357 117.783485 
L -43.097493 115.295906 
L -48.566091 114.09125 
z
" clip-path="url(#p4b3c3979a9)" style="fill: #eeeeee; stroke: #000000; stroke-width: 0.3"/>
    <path d="M 93.593008 194.527856 
L 93.593008 162.027417 
L 96.65955 158.882554 
L 101.565827 151.271894 
L 102.789999 150.3615 
L 109.238283 149.243026 
L 111.668286 146.219614 
L 118.536993 143.615329 
L 127.063399 143.9105 
L 139.950809 129.669632 
L 152.72643 116.904079 
L 160.836341 104.17012 
L 160.83635 88.43156 
L 172.065952 85.453747 
L 175.215516 82.257603 
L 176.539708 81.953791 
L 180.720231 83.319492 
L 178.934346 87.622982 
L 178.973538 88.966912 
L 179.848414 89.401699 
L 179.219672 90.67059 
L 179.604688 94.127477 
L 178.332766 95.566867 
L 180.109332 95.496696 
L 179.735316 94.4395 
L 181.585974 95.172978 
L 181.605709 95.901563 
L 179.008607 95.800718 
L 177.633979 96.49638 
L 176.814017 104.44683 
L 173.513886 109.099101 
L 170.568518 115.464321 
L 168.314114 117.452615 
L 167.637588 120.47137 
L 163.440236 127.28576 
L 161.6561 133.119183 
L 152.467303 147.888128 
L 136.408042 165.413686 
L 123.756163 173.25712 
L 116.227742 179.858853 
L 101.975301 195.65686 
L 101.813735 194.735025 
L 101.244461 197.494114 
L 100.768693 197.13721 
L 100.831946 197.955031 
L 98.284655 201.75422 
L 98.181467 200.672837 
z
" clip-path="url(#p4b3c3979a9)" style="fill: #eeeeee; stroke: #000000; stroke-width: 0.3"/>
    <path d="M 107.691917 94.017379 
L 113.049302 86.24486 
L 114.795623 87.277826 
L 114.784623 88.520955 
L 117.669484 92.337231 
L 122.045333 95.737708 
L 124.061063 96.00843 
L 127.236454 95.726433 
L 134.056702 91.679343 
L 139.788618 93.298967 
L 147.883558 88.996115 
L 150.456287 89.72596 
L 154.003928 89.416073 
L 157.312305 87.817467 
L 160.83635 88.43156 
L 160.836341 104.17012 
L 152.72643 116.904079 
L 144.278612 116.904079 
L 119.310616 108.246868 
L 115.911403 105.170985 
L 114.200886 104.504649 
L 112.242393 100.387633 
L 111.23258 100.044516 
L 109.277577 97.544726 
z
" clip-path="url(#p4b3c3979a9)" style="fill: #eeeeee; stroke: #000000; stroke-width: 0.3"/>
    <path d="M -68.364112 74.910899 
L -67.057864 72.243734 
L -64.493398 70.175956 
L -66.120969 66.273821 
L -64.940458 64.730566 
L -62.138484 63.12782 
L -63.129524 62.034452 
L -63.683109 59.592787 
L -61.038308 58.319598 
L -61.187615 56.845096 
L -58.660693 53.831873 
L -59.09378 50.857544 
L -57.506372 49.431906 
L -49.989348 49.283983 
L -50.015538 11.86765 
L -41.573836 11.809516 
L -41.567719 -5.639481 
L 11.37936 -5.630884 
L 12.856746 -7.667 
L 13.435651 -7.196532 
L 12.959782 -5.639481 
L 27.707701 -5.639988 
L 30.915922 -3.133834 
L 34.618287 -3.643615 
L 35.33691 -5.640382 
L 58.987667 -5.642658 
L 59.023421 -2.617486 
L 62.615061 2.568727 
L 62.099417 3.020742 
L 61.91172 1.954652 
L 60.85774 1.257214 
L 61.897282 6.88155 
L 61.45039 8.770811 
L 62.030664 15.537825 
L 63.640165 21.791915 
L 64.531202 23.068518 
L 65.671043 22.849102 
L 66.375144 23.832206 
L 67.789716 24.21391 
L 69.448572 25.717326 
L 69.062154 26.287921 
L 69.700468 27.152698 
L 71.005642 26.651854 
L 70.254864 27.429426 
L 71.726167 27.372788 
L 73.520619 29.213972 
L 70.390545 33.487262 
L 69.428321 33.313095 
L 69.065085 33.888514 
L 68.747259 33.290475 
L 64.161419 35.35645 
L 63.379069 37.827283 
L 59.746725 37.541837 
L 59.96851 39.47119 
L 58.927701 42.347354 
L 59.584322 44.406991 
L 57.190994 49.26679 
L 56.826879 51.696007 
L 55.113743 54.428773 
L 55.969441 62.04395 
L 54.828223 67.858018 
L 52.679372 72.820728 
L 52.566739 75.543086 
L 48.883747 76.087743 
L 45.755219 81.650969 
L 43.688452 83.444164 
L 43.691941 85.806887 
L 42.603111 88.395564 
L 42.721861 91.457879 
L 41.709869 92.983486 
L 40.999119 93.377506 
L 39.48157 91.626609 
L 36.986954 94.415917 
L 37.378999 97.409242 
L 35.223018 104.140716 
L 33.623977 103.750092 
L 34.399779 100.636891 
L 33.92434 97.838541 
L 29.398754 93.713165 
L 27.360365 92.896858 
L 26.880567 85.367407 
L 27.944947 80.017015 
L 23.911383 79.966347 
L 24.03712 81.834634 
L 18.423582 81.860195 
L 20.671962 84.457013 
L 20.67546 87.919896 
L 21.367877 89.892905 
L 17.24656 93.627666 
L 14.897323 97.490889 
L 10.669489 101.432154 
L 7.297776 101.779805 
L 0.942052 96.998493 
L -2.416558 98.857272 
L -2.429653 100.115081 
L -3.534636 101.452515 
L -8.343901 103.489086 
L -8.935217 105.27913 
L -15.683163 105.219061 
L -16.950735 102.908013 
L -23.833415 102.808035 
L -27.674442 103.912493 
L -33.759929 97.779505 
L -34.409995 95.693632 
L -40.759171 96.855087 
L -41.609631 99.652089 
L -43.129368 100.951969 
L -43.162114 103.564623 
L -44.111234 104.851836 
L -45.140249 109.111567 
L -48.894402 110.907021 
L -54.165664 110.460985 
L -53.51167 108.340508 
L -54.624949 107.95441 
L -54.299257 106.626027 
L -52.965071 105.690308 
L -52.858546 100.564969 
L -55.845624 95.516979 
L -59.479717 91.320128 
L -58.697367 88.415698 
L -59.02567 87.144995 
L -60.233249 87.083017 
L -62.177777 85.071334 
L -61.580539 81.221223 
L -62.884167 81.59216 
L -62.665001 80.416454 
L -63.604523 77.804482 
L -62.988944 76.509347 
L -65.023404 75.35128 
L -65.85989 76.165092 
L -67.295364 76.260089 
z
" clip-path="url(#p4b3c3979a9)" style="fill: #eeeeee; stroke: #000000; stroke-width: 0.3"/>
    <path d="M 62.027226 4.789252 
L 62.366173 4.53778 
L 62.120039 5.263712 
z
" clip-path="url(#p4b3c3979a9)" style="fill: #eeeeee; stroke: #000000; stroke-width: 0.3"/>
    <path d="M 100.195845 90.645651 
L 100.458665 84.445703 
L 105.853044 77.303708 
L 107.942512 78.706954 
L 108.905613 78.101685 
L 109.552621 76.37726 
L 111.654997 75.661561 
L 113.443256 77.580033 
L 114.161035 79.889611 
L 113.846833 81.816277 
L 112.405784 82.227682 
L 111.12973 83.577661 
L 108.77839 84.202433 
L 107.855722 85.635407 
L 106.564546 85.586613 
L 107.313263 86.517701 
L 109.442539 85.397109 
L 111.943761 85.257126 
L 112.694539 86.341748 
L 109.590165 90.802844 
L 107.413384 89.82754 
L 101.684577 91.226715 
z
" clip-path="url(#p4b3c3979a9)" style="fill: #eeeeee; stroke: #000000; stroke-width: 0.3"/>
    <path d="M 55.113743 54.428773 
L 56.826879 51.696007 
L 57.190994 49.26679 
L 59.584322 44.406991 
L 58.927701 42.347354 
L 59.96851 39.47119 
L 59.746725 37.541837 
L 63.379069 37.827283 
L 64.161419 35.35645 
L 68.747259 33.290475 
L 69.065085 33.888514 
L 69.428321 33.313095 
L 70.390545 33.487262 
L 73.501365 29.293046 
L 76.972692 36.64172 
L 79.352225 47.466522 
L 80.559517 48.489158 
L 80.732776 51.004609 
L 82.032206 51.220112 
L 82.912927 54.773518 
L 83.721458 54.906026 
L 84.087913 54.078225 
L 83.401757 52.178276 
L 84.261856 51.184133 
L 85.990985 52.614262 
L 85.540655 53.520428 
L 86.662695 55.75235 
L 87.738675 56.354319 
L 89.647255 55.443881 
L 91.183188 56.505349 
L 91.790961 58.264239 
L 95.179098 58.775027 
L 99.479579 64.873814 
L 101.95674 65.701966 
L 103.113165 67.471193 
L 104.103893 68.25554 
L 103.773875 67.261748 
L 104.649098 68.074589 
L 105.417752 71.155689 
L 106.723366 71.068772 
L 108.377559 72.814486 
L 108.812766 74.401345 
L 110.052373 74.945258 
L 110.669085 73.977473 
L 111.654997 75.661561 
L 109.552621 76.37726 
L 108.905613 78.101685 
L 107.942512 78.706954 
L 106.231124 77.33854 
L 105.418209 77.78005 
L 103.774923 75.441532 
L 101.761415 74.188696 
L 99.777602 70.934356 
L 95.386479 67.713483 
L 92.35487 63.423219 
L 86.199093 60.27179 
L 84.40563 60.616728 
L 81.218597 59.380173 
L 78.626184 60.497526 
L 77.944242 59.079119 
L 76.949713 58.650048 
L 75.736025 60.029325 
L 72.025094 60.69883 
L 70.356489 58.400571 
L 68.475704 58.009492 
L 67.502127 56.651486 
L 64.648643 63.42729 
L 62.45265 60.346434 
L 60.993597 60.66694 
L 60.479305 61.927463 
L 57.842369 61.443881 
L 55.969441 62.04395 
z
" clip-path="url(#p4b3c3979a9)" style="fill: #eeeeee; stroke: #000000; stroke-width: 0.3"/>
    <path d="M 84.728001 49.122833 
L 85.6321 48.257626 
L 84.901251 47.771419 
L 86.468814 48.539379 
L 86.699826 49.956324 
L 87.570925 49.438419 
L 88.643466 50.586795 
L 85.137078 50.287588 
L 84.786439 49.450884 
L 86.002669 49.809574 
z
" clip-path="url(#p4b3c3979a9)" style="fill: #eeeeee; stroke: #000000; stroke-width: 0.3"/>
    <path d="M 85.231269 46.687873 
L 85.742097 45.904244 
L 86.283188 46.966422 
z
" clip-path="url(#p4b3c3979a9)" style="fill: #eeeeee; stroke: #000000; stroke-width: 0.3"/>
    <path d="M 39.464648 -59.190661 
L 41.416298 -62.817863 
L 42.64646 -70.035894 
L 52.109202 -68.708299 
L 55.552946 -71.287023 
L 57.679088 -74.428954 
L 63.943131 -75.663469 
L 65.441477 -78.607484 
L 68.261775 -80.077679 
L 59.628854 -88.763165 
L 76.558538 -93.169234 
L 78.200083 -94.28116 
L 88.443993 -92.680225 
L 102.849374 -85.164116 
L 124.953849 -68.724126 
L 148.116149 -66.911033 
L 150.098661 -62.873642 
L 157.081302 -62.581648 
L 156.862667 -61.592137 
L 157.426433 -61.771661 
L 158.411661 -58.606856 
L 159.593524 -58.264904 
L 159.185131 -57.864896 
L 160.359424 -56.686607 
L 160.290672 -56.189352 
L 159.992285 -55.827458 
L 159.766782 -56.702986 
L 159.482141 -55.748385 
L 160.338118 -55.468409 
L 159.929725 -54.81123 
L 163.376299 -54.221368 
L 163.993011 -53.376829 
L 162.362879 -53.311289 
L 163.579803 -53.072641 
L 163.238101 -52.349563 
L 163.993011 -52.469245 
L 164.076202 -51.250339 
L 164.834541 -51.235378 
L 164.517593 -50.75452 
L 166.184154 -51.149179 
L 167.260142 -49.083957 
L 171.137792 -46.515781 
L 169.70155 -47.037258 
L 170.05769 -45.025461 
L 171.628683 -43.531218 
L 170.99341 -41.010419 
L 170.072812 -42.455867 
L 169.714611 -40.711211 
L 170.655148 -40.603644 
L 171.974515 -37.47339 
L 171.021602 -38.361392 
L 171.055286 -38.068242 
L 173.782712 -35.768994 
L 174.548613 -32.42182 
L 178.069017 -28.157721 
L 180.518409 -28.654696 
L 180.802357 -27.715047 
L 181.586827 -28.714538 
L 182.457242 -28.296365 
L 180.602977 -25.882065 
L 183.057454 -25.430409 
L 183.261693 -23.873568 
L 191.413947 -13.896342 
L 212.930342 -11.115859 
L 213.61927 -11.8392 
L 217.42712 -5.496083 
L 211.858105 11.86765 
L 186.515087 20.619622 
L 161.653616 24.260515 
L 154.270617 28.031692 
L 149.430254 34.033723 
L 148.06638 37.285348 
L 145.817121 38.549268 
L 144.203523 38.466937 
L 142.004903 35.678532 
L 138.731427 36.127736 
L 131.193443 35.357807 
L 128.95466 34.339067 
L 120.368009 34.545352 
L 118.392054 35.446922 
L 114.148937 33.537475 
L 112.055093 35.23612 
L 112.791171 35.708391 
L 111.661299 37.334204 
L 111.612401 38.876785 
L 112.447586 39.867469 
L 112.181269 41.025081 
L 111.378399 40.955418 
L 110.967142 42.148317 
L 108.882203 43.595735 
L 108.231115 40.447317 
L 105.225933 36.492125 
L 105.27887 37.872024 
L 104.759788 34.118434 
L 100.418053 30.792269 
L 97.931954 27.374933 
L 97.445879 25.221366 
L 95.540053 23.225606 
L 95.868 22.033058 
L 94.917149 21.137221 
L 95.255412 19.991698 
L 94.343752 19.483764 
L 93.296648 16.154754 
L 91.740085 15.252869 
L 91.608773 13.779645 
L 90.862802 13.932802 
L 89.831513 12.161798 
L 86.023984 9.383118 
L 84.49699 9.12915 
L 84.814622 9.55872 
L 83.289005 8.756568 
L 78.340182 2.120634 
L 77.549528 0.316146 
L 78.312683 -0.46392 
L 77.788785 -3.472355 
L 76.28662 -5.73334 
L 76.915506 -5.697729 
L 78.073417 -9.209957 
L 77.460955 -8.882589 
L 76.9775 -12.392567 
L 75.174118 -14.422529 
L 75.163803 -15.743663 
L 72.243188 -21.297111 
L 67.872645 -24.40477 
L 67.979339 -25.000384 
L 67.283906 -24.500021 
L 63.598481 -26.403279 
L 63.828833 -27.050558 
L 61.226256 -30.637641 
L 62.1386 -30.81467 
L 62.01691 -33.476162 
L 59.432497 -37.598063 
L 57.455858 -38.769594 
L 57.40292 -40.890736 
L 55.853918 -41.667248 
L 51.792694 -48.633728 
L 44.456093 -58.285213 
L 44.901607 -58.679522 
L 43.512803 -59.250143 
L 41.425473 -58.826631 
L 40.617626 -59.429668 
L 40.093044 -59.070978 
L 40.271802 -58.826631 
L 39.804972 -58.467941 
z
" clip-path="url(#p4b3c3979a9)" style="fill: #eeeeee; stroke: #000000; stroke-width: 0.3"/>
    <path d="M 100.160185 38.996328 
L 101.411028 40.298825 
L 102.508019 40.577268 
L 102.737772 39.715695 
L 103.787503 40.666952 
L 103.720938 41.735327 
L 102.936882 40.772024 
L 101.836098 40.976953 
z
" clip-path="url(#p4b3c3979a9)" style="fill: #eeeeee; stroke: #000000; stroke-width: 0.3"/>
    <path d="M 100.8182 39.037497 
L 101.608162 38.483972 
L 100.913075 38.11139 
L 101.036826 37.96998 
L 101.689984 38.326534 
L 102.227999 40.181471 
z
" clip-path="url(#p4b3c3979a9)" style="fill: #eeeeee; stroke: #000000; stroke-width: 0.3"/>
    <path d="M 55.674476 -37.588801 
L 56.115174 -38.0946 
L 56.008607 -37.58453 
L 57.162971 -36.754234 
L 56.07943 -37.09939 
z
" clip-path="url(#p4b3c3979a9)" style="fill: #eeeeee; stroke: #000000; stroke-width: 0.3"/>
    <path d="M 59.519127 -35.809962 
L 59.563818 -36.034359 
L 59.964641 -36.051105 
L 60.197714 -35.615119 
z
" clip-path="url(#p4b3c3979a9)" style="fill: #eeeeee; stroke: #000000; stroke-width: 0.3"/>
    <path d="M 57.279161 -36.786649 
L 57.652492 -36.889236 
L 58.949852 -35.822778 
L 57.598862 -36.805881 
z
" clip-path="url(#p4b3c3979a9)" style="fill: #eeeeee; stroke: #000000; stroke-width: 0.3"/>
    <path d="M 56.105552 -38.961934 
L 56.240311 -39.263277 
L 56.513944 -39.474858 
L 56.685141 -38.152306 
z
" clip-path="url(#p4b3c3979a9)" style="fill: #eeeeee; stroke: #000000; stroke-width: 0.3"/>
    <path d="M 165.205119 -51.991232 
L 166.29416 -52.463547 
L 167.170074 -52.230589 
z
" clip-path="url(#p4b3c3979a9)" style="fill: #eeeeee; stroke: #000000; stroke-width: 0.3"/>
    <path d="M 59.110734 -37.154242 
L 59.247555 -37.252198 
L 59.321807 -36.488869 
z
" clip-path="url(#p4b3c3979a9)" style="fill: #eeeeee; stroke: #000000; stroke-width: 0.3"/>
    <path d="M 58.509145 -36.731797 
L 58.630151 -36.931622 
L 58.843285 -36.822269 
z
" clip-path="url(#p4b3c3979a9)" style="fill: #eeeeee; stroke: #000000; stroke-width: 0.3"/>
    <path d="M 58.082884 -36.287258 
L 59.162294 -35.391781 
L 59.123795 -35.102194 
z
" clip-path="url(#p4b3c3979a9)" style="fill: #eeeeee; stroke: #000000; stroke-width: 0.3"/>
    <path d="M 107.366893 53.464499 
L 107.979482 53.439209 
L 108.231115 52.390574 
L 108.928263 53.764775 
L 108.057857 49.450884 
L 109.265158 47.58406 
L 108.882203 43.595735 
L 110.967142 42.148317 
L 111.378399 40.955418 
L 112.181269 41.025081 
L 112.447586 39.867469 
L 111.612401 38.876785 
L 111.661299 37.334204 
L 112.761045 35.883906 
L 112.055093 35.23612 
L 113.2212 34.070813 
L 114.913384 33.594471 
L 118.392054 35.446922 
L 120.368009 34.545352 
L 128.95466 34.339067 
L 131.193443 35.357807 
L 138.731427 36.127736 
L 142.004903 35.678532 
L 144.203523 38.466937 
L 145.817121 38.549268 
L 148.06638 37.285348 
L 149.430254 34.033723 
L 154.270617 28.031692 
L 161.653616 24.260515 
L 186.515087 20.619622 
L 192.790924 35.47904 
L 193.467619 35.748195 
L 195.907337 41.219557 
L 191.195025 42.927867 
L 189.168878 44.533598 
L 188.009707 46.984227 
L 188.625042 50.203525 
L 181.355132 53.585968 
L 174.479861 55.17175 
L 171.315858 56.968403 
L 169.310342 57.008294 
L 164.496962 58.66247 
L 162.134622 59.802294 
L 161.381783 61.507767 
L 158.780862 63.969075 
L 154.49688 64.620915 
L 153.044823 63.849393 
L 147.818244 67.372169 
L 141.925446 69.337659 
L 133.182164 70.110967 
L 130.962136 72.490707 
L 128.555797 73.439618 
L 128.052521 75.187827 
L 127.382872 75.010439 
L 127.685382 74.341503 
L 126.47259 74.824507 
L 126.555088 75.469221 
L 124.267684 74.684165 
L 122.619685 75.992116 
L 118.655405 76.623296 
L 115.734791 75.238048 
L 114.614803 75.871724 
L 114.658118 74.447294 
L 112.572849 70.619611 
L 113.034179 66.783384 
L 110.317077 59.855727 
L 110.842343 60.48085 
L 109.677673 56.615053 
L 110.201571 57.24766 
L 110.130749 56.047995 
L 109.511976 54.402722 
z
" clip-path="url(#p4b3c3979a9)" style="fill: #eeeeee; stroke: #000000; stroke-width: 0.3"/>
    <path d="M 197.736841 77.101669 
L 199.528318 75.605203 
L 202.292258 76.618429 
L 204.601112 75.721052 
L 208.157008 77.041827 
L 204.779397 78.78292 
L 201.321215 79.228755 
z
" clip-path="url(#p4b3c3979a9)" style="fill: #eeeeee; stroke: #000000; stroke-width: 0.3"/>
    <path d="M 106.93444 52.156907 
L 107.585527 51.696699 
L 107.125575 52.169014 
L 107.014192 53.243307 
z
" clip-path="url(#p4b3c3979a9)" style="fill: #eeeeee; stroke: #000000; stroke-width: 0.3"/>
    <path d="M 197.366643 80.852992 
L 197.567781 80.743849 
L 197.765328 80.882974 
z
" clip-path="url(#p4b3c3979a9)" style="fill: #eeeeee; stroke: #000000; stroke-width: 0.3"/>
    <path d="M 195.019603 80.434049 
L 195.177485 80.309613 
L 195.873839 80.68251 
z
" clip-path="url(#p4b3c3979a9)" style="fill: #eeeeee; stroke: #000000; stroke-width: 0.3"/>
    <path d="M 187.237445 79.79724 
L 187.696333 79.744051 
L 189.977629 80.555369 
z
" clip-path="url(#p4b3c3979a9)" style="fill: #eeeeee; stroke: #000000; stroke-width: 0.3"/>
    <path d="M 113.956839 76.025599 
L 114.453922 76.142428 
L 114.342547 76.324798 
z
" clip-path="url(#p4b3c3979a9)" style="fill: #eeeeee; stroke: #000000; stroke-width: 0.3"/>
    <path d="M 108.057857 64.235508 
L 108.986016 64.148241 
L 108.816889 65.051203 
z
" clip-path="url(#p4b3c3979a9)" style="fill: #eeeeee; stroke: #000000; stroke-width: 0.3"/>
    <path d="M 108.02898 67.294164 
L 108.071611 66.983918 
L 108.928263 66.364853 
z
" clip-path="url(#p4b3c3979a9)" style="fill: #eeeeee; stroke: #000000; stroke-width: 0.3"/>
   </g>
   <g id="PatchCollection_2">
    <path d="M 55.113743 54.428773 
L 56.826879 51.696007 
L 57.190994 49.26679 
L 59.584322 44.406991 
L 58.927701 42.347354 
L 59.96851 39.47119 
L 59.746725 37.541837 
L 63.379069 37.827283 
L 64.161419 35.35645 
L 68.747259 33.290475 
L 69.065085 33.888514 
L 69.428321 33.313095 
L 70.390545 33.487262 
L 73.501365 29.293046 
L 76.972692 36.64172 
L 79.352225 47.466522 
L 80.559517 48.489158 
L 80.732776 51.004609 
L 82.032206 51.220112 
L 82.912927 54.773518 
L 83.721458 54.906026 
L 84.087913 54.078225 
L 83.401757 52.178276 
L 84.261856 51.184133 
L 85.990985 52.614262 
L 85.540655 53.520428 
L 86.662695 55.75235 
L 87.738675 56.354319 
L 89.647255 55.443881 
L 91.183188 56.505349 
L 91.790961 58.264239 
L 95.179098 58.775027 
L 99.479579 64.873814 
L 101.95674 65.701966 
L 103.113165 67.471193 
L 104.103893 68.25554 
L 103.773875 67.261748 
L 104.649098 68.074589 
L 105.417752 71.155689 
L 106.723366 71.068772 
L 108.377559 72.814486 
L 108.812766 74.401345 
L 110.052373 74.945258 
L 110.669085 73.977473 
L 111.654997 75.661561 
L 109.552621 76.37726 
L 108.905613 78.101685 
L 107.942512 78.706954 
L 106.231124 77.33854 
L 105.418209 77.78005 
L 103.774923 75.441532 
L 101.761415 74.188696 
L 99.777602 70.934356 
L 95.386479 67.713483 
L 92.35487 63.423219 
L 86.199093 60.27179 
L 84.40563 60.616728 
L 81.218597 59.380173 
L 78.626184 60.497526 
L 77.944242 59.079119 
L 76.949713 58.650048 
L 75.736025 60.029325 
L 72.025094 60.69883 
L 70.356489 58.400571 
L 68.475704 58.009492 
L 67.502127 56.651486 
L 64.648643 63.42729 
L 62.45265 60.346434 
L 60.993597 60.66694 
L 60.479305 61.927463 
L 57.842369 61.443881 
L 55.969441 62.04395 
z
" clip-path="url(#p4b3c3979a9)" style="fill: #ff6b6b; stroke: #dd0000; stroke-width: 0.5"/>
    <path d="M 84.728001 49.122833 
L 85.6321 48.257626 
L 84.901251 47.771419 
L 86.468814 48.539379 
L 86.699826 49.956324 
L 87.570925 49.438419 
L 88.643466 50.586795 
L 85.137078 50.287588 
L 84.786439 49.450884 
L 86.002669 49.809574 
z
" clip-path="url(#p4b3c3979a9)" style="fill: #ff6b6b; stroke: #dd0000; stroke-width: 0.5"/>
    <path d="M 85.231269 46.687873 
L 85.742097 45.904244 
L 86.283188 46.966422 
z
" clip-path="url(#p4b3c3979a9)" style="fill: #ff6b6b; stroke: #dd0000; stroke-width: 0.5"/>
   </g>
  </g>
 </g>
 <defs>
  <clipPath id="p4b3c3979a9">
   <rect x="0" y="0" width="166.76874" height="108"/>
  </clipPath>
 </defs>
</svg>
