<?xml version="1.0" encoding="utf-8" standalone="no"?>
<!DOCTYPE svg PUBLIC "-//W3C//DTD SVG 1.1//EN"
  "http://www.w3.org/Graphics/SVG/1.1/DTD/svg11.dtd">
<svg xmlns:xlink="http://www.w3.org/1999/xlink" width="170.605298pt" height="108pt" viewBox="0 0 170.605298 108" xmlns="http://www.w3.org/2000/svg" version="1.1">
 <metadata>
  <rdf:RDF xmlns:dc="http://purl.org/dc/elements/1.1/" xmlns:cc="http://creativecommons.org/ns#" xmlns:rdf="http://www.w3.org/1999/02/22-rdf-syntax-ns#">
   <cc:Work>
    <dc:type rdf:resource="http://purl.org/dc/dcmitype/StillImage"/>
    <dc:date>2025-09-05T13:56:19.407487</dc:date>
    <dc:format>image/svg+xml</dc:format>
    <dc:creator>
     <cc:Agent>
      <dc:title>Matplotlib v3.10.3, https://matplotlib.org/</dc:title>
     </cc:Agent>
    </dc:creator>
   </cc:Work>
  </rdf:RDF>
 </metadata>
 <defs>
  <style type="text/css">*{stroke-linejoin: round; stroke-linecap: butt}</style>
 </defs>
 <g id="figure_1">
  <g id="patch_1">
   <path d="M 0 108 
L 170.605298 108 
L 170.605298 0 
L 0 0 
z
" style="fill: #ffffff"/>
  </g>
  <g id="axes_1">
   <g id="PatchCollection_1">
    <path d="M 42.501437 61.081125 
L 43.616982 59.786381 
L 43.484176 58.511361 
L 43.902657 57.966887 
L 46.102755 57.937595 
L 46.791561 58.479079 
L 48.785964 57.383409 
L 48.674311 52.188578 
L 50.131704 47.740587 
L 49.86669 45.762672 
L 51.552992 43.919567 
L 52.57882 45.076516 
L 53.05927 44.816157 
L 53.743353 43.808074 
L 53.663081 41.784572 
L 54.399104 40.074038 
L 54.396745 38.51281 
L 55.793831 37.32791 
L 57.908643 33.651869 
L 60.349266 33.40556 
L 60.474397 31.493106 
L 61.926969 28.21387 
L 62.698406 24.372078 
L 63.964461 23.975567 
L 65.746968 24.295106 
L 66.094618 23.462184 
L 67.080903 23.250402 
L 68.565343 25.286155 
L 70.494231 20.808872 
L 71.152347 21.706208 
L 72.423713 21.964624 
L 73.551651 23.483256 
L 76.060153 23.040864 
L 76.880578 22.129472 
L 77.552856 22.412991 
L 78.013833 23.35024 
L 79.766243 22.61192 
L 81.920603 23.429005 
L 83.132942 23.201079 
L 87.294103 25.283465 
L 89.343399 28.118365 
L 92.311695 30.246638 
L 93.652706 32.397025 
L 95.013791 33.224869 
L 96.124613 34.770103 
L 92.772078 39.174602 
L 92.594418 43.271374 
L 93.600766 43.655327 
L 97.473305 42.730786 
L 99.232792 43.256427 
L 97.653917 45.376776 
L 98.733455 47.830112 
L 100.054992 49.481911 
L 100.737602 49.708634 
L 102.061497 52.429057 
L 103.217766 52.869355 
L 105.292448 54.770003 
L 122.393334 60.622293 
L 128.103862 60.622293 
L 119.221999 69.297828 
L 110.756254 78.467468 
L 105.202142 78.22176 
L 102.686558 78.871897 
L 100.349519 79.993273 
L 98.706894 81.991069 
L 94.545145 82.629845 
L 93.020569 84.032201 
L 89.177544 84.071361 
L 86.897465 82.091653 
L 81.670341 84.507477 
L 79.705445 87.191128 
L 74.020891 85.759625 
L 71.695953 85.980373 
L 65.492577 81.596201 
L 59.928431 81.173388 
L 59.352358 80.801091 
L 58.274002 78.797915 
L 58.57384 76.115907 
L 56.661479 75.463827 
L 55.623253 75.791585 
L 55.477466 74.994531 
L 54.544891 74.354858 
L 53.835429 72.962961 
L 52.288421 68.209331 
L 51.267317 67.816256 
L 51.146909 67.022939 
L 49.873772 66.501932 
L 49.306556 65.419566 
L 48.462517 64.939211 
L 48.307878 64.015567 
L 46.649017 62.585562 
L 42.892763 61.771017 
z
" clip-path="url(#p64e0cc1d54)" style="fill: #eeeeee; stroke: #000000; stroke-width: 0.3"/>
    <path d="M -8.05488 58.063885 
L -7.407392 57.249646 
L -7.827638 56.49638 
L -5.649373 55.473194 
L -4.953783 52.658469 
L -4.3122 51.807911 
L -4.290065 50.081534 
L -3.262758 49.222605 
L -2.687867 47.374415 
L 1.604027 46.606955 
L 2.043456 47.985248 
L 6.157103 52.037775 
L 8.753547 51.307976 
L 13.406078 51.374039 
L 14.262926 52.901123 
L 18.82438 52.940815 
L 19.224095 51.757998 
L 22.475046 50.412282 
L 23.221988 49.528539 
L 23.23084 48.69741 
L 25.501182 47.469175 
L 29.797502 50.628547 
L 32.076701 50.398828 
L 34.934618 47.794538 
L 36.522646 45.241815 
L 39.30856 42.773978 
L 38.840502 41.470263 
L 38.838138 39.182075 
L 37.318286 37.466162 
L 41.112906 37.449272 
L 41.027911 36.214754 
L 43.754506 36.248234 
L 43.035009 39.783641 
L 43.359341 44.758915 
L 44.737244 45.298311 
L 47.796435 48.024257 
L 48.11782 49.873338 
L 47.593396 51.930464 
L 48.674311 52.188578 
L 48.909325 56.978227 
L 48.103657 58.026223 
L 46.853535 58.469211 
L 46.102755 57.937595 
L 43.902657 57.966887 
L 43.484176 58.511361 
L 43.616982 59.786381 
L 42.501437 61.081125 
L 42.892763 61.771017 
L 46.649017 62.585562 
L 48.307878 64.015567 
L 48.462517 64.939211 
L 49.306556 65.419566 
L 49.873772 66.501932 
L 51.146909 67.022939 
L 51.267317 67.816256 
L 52.288421 68.209331 
L 53.835429 72.962961 
L 54.544891 74.354858 
L 55.477466 74.994531 
L 55.623253 75.791585 
L 56.661479 75.463827 
L 58.57384 76.115907 
L 58.274002 78.797915 
L 59.240214 80.157375 
L 58.204072 79.799931 
L 57.981137 80.332183 
L 57.468734 80.15343 
L 56.963544 79.225349 
L 57.241413 78.508947 
L 56.243614 78.381021 
L 56.332024 77.779756 
L 55.38475 78.061199 
L 50.447481 80.152597 
L 45.361717 85.187357 
L 43.498932 85.110385 
L 42.543931 84.401959 
L 41.168684 85.075858 
L 38.972121 85.295414 
L 37.921211 85.942711 
L 37.808182 86.561161 
L 36.449165 86.063025 
L 35.580335 84.801605 
L 34.128944 85.729136 
L 31.945962 84.982748 
L 30.82068 85.594922 
L 30.221586 86.688648 
L 29.692736 85.620483 
L 28.587819 86.027452 
L 28.42668 84.505979 
L 26.50842 83.993793 
L 25.029286 81.954448 
L 24.215355 81.606514 
L 24.266113 80.523546 
L 22.77164 79.918094 
L 22.32955 79.866983 
L 20.979978 81.769123 
L 18.319492 80.535352 
L 16.046495 82.103609 
L 14.289367 81.315371 
L 14.085438 80.558224 
L 12.705764 80.293382 
L 12.592438 79.241505 
L 11.233124 78.404094 
L 9.804759 76.450693 
L 9.78528 74.614465 
L 9.001445 73.508777 
L 7.26025 72.780627 
L 7.017075 72.275908 
L 5.009685 71.752061 
L 5.490136 70.982657 
L 4.126693 69.477623 
L 4.742308 68.392266 
L 3.104406 67.368183 
L 2.732559 66.405981 
L -1.071215 64.445703 
L -2.039791 63.487683 
L -2.183808 63.032438 
L -1.531598 62.572108 
L -1.888693 61.388707 
L -2.789389 61.203382 
L -4.268518 59.559652 
L -7.965162 58.763645 
z
" clip-path="url(#p64e0cc1d54)" style="fill: #eeeeee; stroke: #000000; stroke-width: 0.3"/>
    <path d="M 88.131055 111.914162 
L 88.131055 90.438677 
L 90.203965 88.36063 
L 93.520494 83.331694 
L 94.348005 82.730128 
L 98.706894 81.991069 
L 100.349519 79.993273 
L 104.992604 78.272425 
L 110.756254 78.467468 
L 119.467841 69.057454 
L 128.103862 60.622293 
L 133.585971 52.208008 
L 133.585977 41.808357 
L 141.176924 39.840692 
L 143.305956 37.72876 
L 144.201079 37.528008 
L 147.027014 38.430429 
L 145.819798 41.274069 
L 145.846291 42.162105 
L 146.437686 42.449401 
L 146.012671 43.287853 
L 146.272933 45.572078 
L 145.413144 46.523192 
L 146.614061 46.476824 
L 146.361235 45.778255 
L 147.612236 46.262919 
L 147.625577 46.74435 
L 145.869996 46.677715 
L 144.94078 47.13739 
L 144.386505 52.390851 
L 142.155694 55.464957 
L 140.164694 59.670937 
L 138.64077 60.984752 
L 138.183455 62.97947 
L 135.346143 67.482251 
L 134.140109 71.336832 
L 127.928698 81.095786 
L 117.073014 92.67624 
L 108.52064 97.858987 
L 103.431605 102.221249 
L 93.797288 112.660181 
L 93.688074 112.051055 
L 93.303258 113.874192 
L 92.98165 113.638359 
L 93.024407 114.178755 
L 91.302498 116.689165 
L 91.232745 115.974614 
z
" clip-path="url(#p64e0cc1d54)" style="fill: #eeeeee; stroke: #000000; stroke-width: 0.3"/>
    <path d="M 47.662749 106.241968 
L 48.757044 104.869956 
L 49.124762 103.385544 
L 50.486435 102.158205 
L 51.05188 100.61581 
L 52.827311 99.751346 
L 52.719296 98.845339 
L 53.825395 97.308474 
L 54.018406 95.78939 
L 53.213915 93.298392 
L 53.545037 92.547515 
L 53.271166 91.888714 
L 50.749089 88.471226 
L 50.448069 86.765771 
L 50.781555 85.661731 
L 49.141289 85.0376 
L 49.441127 84.465477 
L 48.754686 84.449333 
L 48.139659 82.469029 
L 50.447481 80.152597 
L 56.332024 77.779756 
L 56.243614 78.381021 
L 57.241413 78.508947 
L 56.963544 79.225349 
L 57.468734 80.15343 
L 58.204072 79.799931 
L 59.240214 80.157375 
L 59.928431 81.173388 
L 65.492577 81.596201 
L 71.695953 85.980373 
L 74.020891 85.759625 
L 79.705445 87.191128 
L 81.670341 84.507477 
L 86.897465 82.091653 
L 89.177544 84.071361 
L 93.300928 83.871535 
L 90.203965 88.36063 
L 88.049012 90.599193 
L 88.131055 111.914162 
L 91.232745 115.974614 
L 91.302498 116.689165 
L 89.861301 118.263762 
L 89.497404 117.997329 
L 88.32065 118.691184 
L 88.28161 117.877761 
L 87.934441 118.869122 
L 87.452957 118.234574 
L 88.128245 119.846357 
L 87.931654 120.235181 
L 87.464578 119.784222 
L 86.955671 120.061009 
L 87.201061 120.747338 
L 86.251108 121.56547 
L 85.339264 121.50286 
L 83.861353 122.315814 
L 83.464452 123.849926 
L 83.866001 124.125301 
L 83.237656 125.776627 
L 82.473604 126.38905 
L 82.342077 126.088252 
L 81.77043 127.796062 
L 81.284765 127.507504 
L 81.776472 128.249849 
L 81.315907 129.535413 
L 80.729851 129.535413 
L 81.081207 129.833388 
L 80.819552 130.294701 
L 80.59693 129.845622 
L 80.026214 130.244805 
L 80.627603 130.66281 
L 79.087414 133.652899 
L 78.540866 133.456133 
L 77.913453 133.933451 
L 69.806019 128.021454 
L 69.448336 127.279549 
L 68.824457 127.200037 
L 68.745367 126.618948 
L 69.401118 126.048618 
L 69.085935 124.49606 
L 47.723541 112.676394 
L 48.005088 107.770017 
z
" clip-path="url(#p64e0cc1d54)" style="fill: #eeeeee; stroke: #000000; stroke-width: 0.3"/>
    <path d="M 88.071079 119.138852 
L 88.554887 118.732606 
L 89.133502 119.094127 
L 88.210504 119.586513 
z
" clip-path="url(#p64e0cc1d54)" style="fill: #eeeeee; stroke: #000000; stroke-width: 0.3"/>
    <path d="M 97.661587 45.499329 
L 101.283053 40.36344 
L 102.463525 41.045999 
L 102.45609 41.867427 
L 104.406188 44.389128 
L 107.364159 46.636079 
L 108.726746 46.814965 
L 110.873235 46.628629 
L 115.483563 43.954412 
L 119.358203 45.024619 
L 124.830193 42.181401 
L 126.569298 42.663665 
L 128.96742 42.458899 
L 131.203805 41.40258 
L 133.585977 41.808357 
L 133.585971 52.208008 
L 128.103862 60.622293 
L 122.393334 60.622293 
L 105.515554 54.901822 
L 103.217766 52.869355 
L 102.061497 52.429057 
L 100.737602 49.708634 
L 100.054992 49.481911 
L 98.733455 47.830112 
z
" clip-path="url(#p64e0cc1d54)" style="fill: #eeeeee; stroke: #000000; stroke-width: 0.3"/>
    <path d="M -75.945109 140.592882 
L -75.889748 140.06022 
L -74.461966 139.999837 
L -74.338017 136.73988 
L -74.830866 136.117543 
L -73.49162 135.360992 
L -72.78334 134.293867 
L -71.284732 133.855061 
L -71.155466 133.366637 
L -69.415453 135.13561 
L -67.588973 133.980605 
L -67.574804 132.634895 
L -66.263895 132.895549 
L -63.736507 131.617389 
L -63.264315 132.497991 
L -63.943675 133.248267 
L -63.658594 135.14099 
L -62.978051 134.880932 
L -62.105093 135.219906 
L -61.200262 134.729087 
L -59.071287 131.975492 
L -57.615174 131.251518 
L -57.187846 130.349993 
L -55.026993 129.536946 
L -53.236811 126.042041 
L -53.413876 119.498811 
L -51.590051 117.794403 
L -49.766814 114.217597 
L -48.685505 113.222812 
L -47.055273 112.748137 
L -44.53379 109.904861 
L -44.723254 108.009749 
L -43.414704 104.694789 
L -43.865052 100.996622 
L -42.695796 97.903012 
L -42.689891 94.382852 
L -39.602369 88.782696 
L -39.411134 83.473827 
L -40.008452 81.8434 
L -38.801424 81.422532 
L -36.916801 78.479869 
L -35.056969 77.201264 
L -32.683043 77.394513 
L -29.746031 79.274834 
L -28.367831 81.339283 
L -26.70455 81.117338 
L -24.766216 82.053239 
L -21.760148 82.042781 
L -18.528015 82.995265 
L -17.344596 82.633431 
L -16.876538 80.999719 
L -16.322309 80.895844 
L -15.129444 78.975917 
L -12.181804 80.322228 
L -11.190802 79.494385 
L -7.35781 78.361053 
L -6.561583 77.747086 
L -6.574569 77.248047 
L -4.665749 78.43264 
L -1.370465 77.768754 
L -1.050559 76.159099 
L -0.02207 75.784713 
L 2.074444 76.97155 
L 3.715886 76.576537 
L 5.45354 77.680872 
L 6.806361 77.409459 
L 7.535303 77.738264 
L 8.715181 76.779348 
L 10.01842 77.191997 
L 12.544632 79.18262 
L 12.705764 80.293382 
L 14.085438 80.558224 
L 14.289367 81.315371 
L 16.184019 82.147396 
L 18.319492 80.535352 
L 20.979978 81.769123 
L 22.32955 79.866983 
L 23.248549 80.028696 
L 24.266113 80.523546 
L 24.215355 81.606514 
L 25.029286 81.954448 
L 26.50842 83.993793 
L 28.42668 84.505979 
L 28.528203 85.978881 
L 29.692736 85.620483 
L 30.221586 86.688648 
L 30.546221 86.516477 
L 30.624128 87.248515 
L 29.675032 89.203264 
L 30.300682 90.37232 
L 29.484974 92.733742 
L 30.405745 93.387766 
L 30.955251 92.963305 
L 31.45341 93.629586 
L 32.151953 93.556351 
L 32.688182 94.712704 
L 28.158423 99.712487 
L 26.791143 100.306134 
L 26.311281 101.621054 
L 25.126085 102.10739 
L 25.087132 103.994733 
L 23.731358 106.457787 
L 22.883784 112.248353 
L 23.016585 114.908091 
L 21.048743 116.471408 
L 20.461459 117.53973 
L 20.486244 119.589683 
L 18.952817 120.713002 
L 18.900877 121.444143 
L 19.095652 122.221321 
L 19.879487 122.754586 
L 19.68707 123.152143 
L 21.056121 124.499646 
L 20.944268 129.435315 
L 21.654912 130.553851 
L 22.062766 132.920057 
L 21.565195 135.337079 
L 23.213724 139.873102 
L 22.435206 141.595442 
L 22.786985 143.390121 
L 23.753791 145.165671 
L 25.945922 146.731388 
L 27.108685 148.231933 
L 29.72225 154.274782 
L 19.083259 155.946313 
L 19.105686 157.581372 
L 16.018164 160.509534 
L 16.951915 161.124698 
L 17.994275 163.517206 
L 17.260022 165.991019 
L 18.000763 168.440925 
L 17.171487 169.550489 
L 16.063023 173.59121 
L 16.905582 175.553287 
L 18.294702 176.244372 
L 19.91667 178.480853 
L 22.569778 178.910091 
L 22.424579 177.69291 
L 24.28087 177.180573 
L 24.183483 184.709322 
L 23.242056 184.510248 
L 23.537765 183.700191 
L 22.996517 183.377362 
L 20.767791 184.600518 
L 19.681753 184.363777 
L 18.048574 181.435917 
L 17.105377 181.412004 
L 16.419524 179.304659 
L 13.769369 178.416884 
L 13.186803 177.807098 
L 11.939051 177.987639 
L 10.697192 175.837854 
L 9.631817 175.185022 
L 9.323127 173.799857 
L 8.4301 173.949908 
L 7.995685 175.763722 
L 6.680642 176.364536 
L 4.951252 175.779264 
L 2.475804 175.728449 
L 0.421785 174.721106 
L -0.297123 174.996707 
L -1.157392 174.219528 
L -1.35512 171.631533 
L -4.769042 172.390774 
L -6.034503 173.174529 
L -7.159494 172.814037 
L -6.598178 172.119361 
L -6.722127 171.084519 
L -8.128658 170.755112 
L -8.18591 170.037721 
L -8.829857 169.772885 
L -9.787811 170.669626 
L -11.945123 170.279246 
L -14.4672 171.097673 
L -17.398895 170.750335 
L -18.902814 171.948382 
L -19.314802 169.650928 
L -18.43535 169.12424 
L -18.470175 166.852492 
L -19.346675 164.324278 
L -20.951522 162.737043 
L -21.447911 161.285515 
L -20.580264 155.789083 
L -21.665119 153.136517 
L -21.054227 150.085201 
L -21.488047 149.006722 
L -28.708987 149.024058 
L -28.189578 146.881439 
L -29.856993 146.896386 
L -30.00101 147.378835 
L -34.412433 147.378835 
L -34.462009 150.1408 
L -35.36153 150.68841 
L -35.362118 153.16342 
L -40.153651 152.759887 
L -40.204409 153.137714 
L -42.41602 153.28179 
L -42.542922 153.783964 
L -43.857377 153.409127 
L -45.386675 153.721794 
L -47.009826 151.726838 
L -47.806053 149.844278 
L -49.124637 148.551176 
L -48.967634 147.452967 
L -50.138661 145.680402 
L -50.492803 144.273118 
L -50.374754 142.677513 
L -51.367533 141.018541 
L -66.269206 140.667014 
L -69.701717 140.950384 
L -72.250795 140.510502 
L -72.991433 140.804127 
L -73.241986 141.46327 
L -74.801677 141.883589 
L -74.757727 141.477783 
L -75.103983 141.617712 
z
" clip-path="url(#p64e0cc1d54)" style="fill: #eeeeee; stroke: #000000; stroke-width: 0.3"/>
    <path d="M -73.113371 141.23731 
L -72.63918 140.841632 
L -71.688725 140.821098 
z
" clip-path="url(#p64e0cc1d54)" style="fill: #eeeeee; stroke: #000000; stroke-width: 0.3"/>
    <path d="M 150.944201 -3.000092 
L 168.075486 -8.783178 
L 171.84001 -20.256704 
L 169.265993 -24.448078 
L 169.4891 -26.864047 
L 171.273383 -30.616917 
L 170.807689 -31.73396 
L 173.89757 -32.417125 
L 173.528082 -33.223746 
L 172.514647 -33.279345 
L 172.935487 -37.275376 
L 173.941835 -37.477892 
L 174.077 -36.928339 
L 173.66797 -36.971681 
L 174.476002 -36.172534 
L 176.098873 -37.605373 
L 177.400182 -34.817939 
L 180.486139 -31.678401 
L 187.14325 -29.754286 
L 188.667637 -29.904922 
L 189.683584 -29.29815 
L 193.988117 -23.626314 
L 195.753246 -23.321751 
L 195.678422 -21.751389 
L 193.008422 -17.166471 
L 191.352976 -16.196767 
L 189.216972 -13.601153 
L 189.489318 -13.245752 
L 188.711319 -12.53448 
L 188.293043 -11.220665 
L 187.877554 -10.884098 
L 186.490268 -11.150767 
L 186.840231 -12.208735 
L 186.506539 -12.357485 
L 184.509959 -10.317336 
L 183.556757 -7.237342 
L 184.278977 -2.977701 
L 180.805885 -2.504617 
L 178.523025 -1.55374 
L 177.571211 -0.476002 
L 177.115289 1.895781 
L 175.944576 3.106027 
L 170.741209 3.678671 
L 169.502183 5.426965 
L 169.916741 6.13236 
L 169.685297 7.188205 
L 168.352384 8.478952 
L 167.01018 8.824468 
L 165.869215 8.320785 
L 162.973344 8.478952 
L 160.291723 9.943865 
L 157.293142 10.611835 
L 155.643949 6.996494 
L 155.186519 6.818643 
z
" clip-path="url(#p64e0cc1d54)" style="fill: #eeeeee; stroke: #000000; stroke-width: 0.3"/>
    <path d="M 174.351836 -43.868838 
L 175.099196 -45.037506 
L 175.122896 -44.717881 
L 176.217853 -44.757891 
L 175.671305 -44.796964 
L 175.987334 -45.748309 
L 176.770906 -45.590616 
L 176.186249 -45.069991 
L 176.692827 -44.876048 
L 176.376798 -44.796964 
L 176.650069 -44.359182 
L 175.787493 -44.515469 
L 175.828389 -44.161479 
L 176.61103 -44.086161 
L 176.080752 -43.736879 
L 176.49856 -43.210128 
L 176.100735 -43.088212 
L 175.50348 -41.360735 
L 174.738656 -41.611724 
L 174.957634 -43.599802 
z
" clip-path="url(#p64e0cc1d54)" style="fill: #eeeeee; stroke: #000000; stroke-width: 0.3"/>
    <path d="M 189.033396 -10.943173 
L 190.507127 -12.847043 
L 190.757161 -11.753536 
L 189.056171 -9.795768 
z
" clip-path="url(#p64e0cc1d54)" style="fill: #eeeeee; stroke: #000000; stroke-width: 0.3"/>
    <path d="M 175.099835 -39.208544 
L 175.398228 -39.646424 
L 175.876514 -39.273062 
L 175.165984 -38.976499 
z
M 175.423642 -39.357786 
L 175.525889 -39.209134 
L 175.556437 -39.304286 
z
" clip-path="url(#p64e0cc1d54)" style="fill: #eeeeee; stroke: #000000; stroke-width: 0.3"/>
    <path d="M 173.705399 5.535942 
L 174.455511 5.542062 
L 173.754667 5.660687 
z
" clip-path="url(#p64e0cc1d54)" style="fill: #eeeeee; stroke: #000000; stroke-width: 0.3"/>
    <path d="M 173.127247 5.542062 
L 173.286661 5.624674 
L 173.200678 5.674807 
z
" clip-path="url(#p64e0cc1d54)" style="fill: #eeeeee; stroke: #000000; stroke-width: 0.3"/>
    <path d="M -63.735325 71.94531 
L -61.536701 70.32983 
L -58.957366 64.955054 
L -57.764502 64.13244 
L -57.488866 63.360045 
L -54.952032 63.563006 
L -52.407529 62.496784 
L -52.28535 61.854115 
L -51.391729 61.354331 
L -51.017524 62.455831 
L -50.057212 63.256621 
L -45.160028 60.688952 
L -39.738128 60.32547 
L -36.683654 56.697548 
L -38.136227 55.689164 
L -37.267397 54.903615 
L -29.196519 54.019126 
L -28.587397 52.957682 
L -27.867313 53.071124 
L -26.963658 52.399759 
L -24.503561 49.174028 
L -23.833053 49.189276 
L -23.039778 47.873905 
L -21.865799 47.31792 
L -21.843961 45.350769 
L -17.706408 43.259417 
L -15.342517 43.717051 
L -12.885955 46.490227 
L -10.866761 49.825814 
L -10.938769 53.212511 
L -11.840648 53.830811 
L -12.060808 54.708573 
L -11.308257 54.963697 
L -11.663582 56.491296 
L -7.595086 56.602494 
L -7.407392 57.249646 
L -8.05488 58.063885 
L -7.965162 58.763645 
L -4.268518 59.559652 
L -2.789389 61.203382 
L -1.888693 61.388707 
L -1.531598 62.572108 
L -2.183808 63.032438 
L -2.039791 63.487683 
L -1.071215 64.445703 
L 2.732559 66.405981 
L 3.104406 67.368183 
L 4.742308 68.392266 
L 4.126693 69.477623 
L 5.490136 70.982657 
L 5.009685 71.752061 
L 7.017075 72.275908 
L 7.26025 72.780627 
L 9.001445 73.508777 
L 9.78528 74.614465 
L 9.804759 76.450693 
L 10.814648 77.546363 
L 8.715181 76.779348 
L 7.535303 77.738264 
L 6.806361 77.409459 
L 5.45354 77.680872 
L 3.715886 76.576537 
L 2.074444 76.97155 
L -0.02207 75.784713 
L -1.050559 76.159099 
L -1.370465 77.768754 
L -4.665749 78.43264 
L -6.574569 77.248047 
L -6.561583 77.747086 
L -7.35781 78.361053 
L -11.190802 79.494385 
L -12.181804 80.322228 
L -15.129444 78.975917 
L -16.322309 80.895844 
L -16.876538 80.999719 
L -17.344596 82.633431 
L -18.528015 82.995265 
L -21.760148 82.042781 
L -24.766216 82.053239 
L -26.70455 81.117338 
L -28.367831 81.339283 
L -29.746031 79.274834 
L -32.683043 77.394513 
L -35.056969 77.201264 
L -36.916801 78.479869 
L -38.801424 81.422532 
L -40.008452 81.8434 
L -39.411134 83.473827 
L -39.526231 86.765771 
L -40.407454 85.868134 
L -41.684132 86.198732 
L -42.066606 86.76278 
L -42.634998 86.264939 
L -44.004934 86.399749 
L -44.28471 85.952278 
L -46.19353 85.427234 
L -48.761643 86.411411 
L -50.873507 86.466558 
L -51.866874 88.618889 
L -51.788961 90.47096 
L -53.498871 93.879777 
L -54.208927 89.872535 
L -55.016365 88.957556 
L -55.749442 88.899568 
L -59.751235 84.400166 
L -60.087669 83.588912 
L -59.152147 83.374741 
L -59.715234 83.035322 
L -60.270645 81.349146 
L -61.850702 80.141832 
L -62.184188 77.003682 
L -62.978051 76.274629 
L -62.42087 75.090482 
L -62.42087 72.952202 
z
" clip-path="url(#p64e0cc1d54)" style="fill: #eeeeee; stroke: #000000; stroke-width: 0.3"/>
    <path d="M -21.34816 32.874239 
L -20.465167 31.111843 
L -18.731648 29.745506 
L -19.831848 27.167072 
L -19.03385 26.147327 
L -17.139781 25.088272 
L -17.809701 24.365802 
L -18.183912 22.752411 
L -16.396088 21.911119 
L -16.497016 20.936804 
L -14.788876 18.945741 
L -15.081633 16.980378 
L -14.008582 16.038352 
L -8.92725 15.940608 
L -8.944954 -8.783178 
L -3.238561 -8.821592 
L -3.234427 -20.351457 
L 32.556557 -20.345777 
L 33.555235 -21.691191 
L 33.946562 -21.380318 
L 33.624885 -20.351457 
L 43.594133 -20.351792 
L 45.762815 -18.695787 
L 48.265526 -19.032639 
L 48.751299 -20.352053 
L 64.738656 -20.353557 
L 64.762825 -18.354598 
L 67.190689 -14.927676 
L 66.842126 -14.628996 
L 66.715247 -15.333442 
L 66.002781 -15.794292 
L 66.705488 -12.07787 
L 66.403399 -10.829493 
L 66.795651 -6.358018 
L 67.883635 -2.22547 
L 68.485956 -1.381922 
L 69.256461 -1.526907 
L 69.732417 -0.877296 
L 70.688635 -0.625076 
L 71.809983 0.368344 
L 71.548773 0.745379 
L 71.980258 1.316803 
L 72.862526 0.985858 
L 72.355017 1.499657 
L 73.349583 1.462233 
L 74.56259 2.678842 
L 72.446734 5.502526 
L 71.796294 5.387441 
L 71.550754 5.767663 
L 71.335911 5.372494 
L 68.235991 6.737639 
L 67.707141 8.370304 
L 65.251761 8.181689 
L 65.401683 9.456557 
L 64.69812 11.357055 
L 65.141981 12.718012 
L 63.524147 15.929247 
L 63.278014 17.534414 
L 62.119974 19.340158 
L 62.698406 24.372078 
L 61.926969 28.21387 
L 60.474397 31.493106 
L 60.398259 33.291973 
L 57.908643 33.651869 
L 55.793831 37.32791 
L 54.396745 38.51281 
L 54.399104 40.074038 
L 53.663081 41.784572 
L 53.743353 43.808074 
L 53.05927 44.816157 
L 52.57882 45.076516 
L 51.552992 43.919567 
L 49.86669 45.762672 
L 50.131704 47.740587 
L 48.674311 52.188578 
L 47.593396 51.930464 
L 48.11782 49.873338 
L 47.796435 48.024257 
L 44.737244 45.298311 
L 43.359341 44.758915 
L 43.035009 39.783641 
L 43.754506 36.248234 
L 41.027911 36.214754 
L 41.112906 37.449272 
L 37.318286 37.466162 
L 38.838138 39.182075 
L 38.840502 41.470263 
L 39.30856 42.773978 
L 36.522646 45.241815 
L 34.934618 47.794538 
L 32.076701 50.398828 
L 29.797502 50.628547 
L 25.501182 47.469175 
L 23.23084 48.69741 
L 23.221988 49.528539 
L 22.475046 50.412282 
L 19.224095 51.757998 
L 18.82438 52.940815 
L 14.262926 52.901123 
L 13.406078 51.374039 
L 8.753547 51.307976 
L 6.157103 52.037775 
L 2.043456 47.985248 
L 1.604027 46.606955 
L -2.687867 47.374415 
L -3.262758 49.222605 
L -4.290065 50.081534 
L -4.3122 51.807911 
L -4.953783 52.658469 
L -5.649373 55.473194 
L -8.187092 56.659585 
L -11.750342 56.364856 
L -11.308257 54.963697 
L -12.060808 54.708573 
L -11.840648 53.830811 
L -10.938769 53.212511 
L -10.866761 49.825814 
L -12.885955 46.490227 
L -15.342517 43.717051 
L -14.813667 41.797876 
L -15.035592 40.958227 
L -15.851887 40.917274 
L -17.166342 39.588003 
L -16.762623 37.043946 
L -17.643846 37.289051 
L -17.495694 36.512174 
L -18.130789 34.786248 
L -17.714672 33.930454 
L -19.089919 33.165232 
L -19.655365 33.702979 
L -20.625711 33.765751 
z
" clip-path="url(#p64e0cc1d54)" style="fill: #eeeeee; stroke: #000000; stroke-width: 0.3"/>
    <path d="M 66.793326 -13.460409 
L 67.022447 -13.626575 
L 66.856066 -13.146897 
z
" clip-path="url(#p64e0cc1d54)" style="fill: #eeeeee; stroke: #000000; stroke-width: 0.3"/>
    <path d="M 92.594418 43.271374 
L 92.772078 39.174602 
L 96.418552 34.455349 
L 97.830983 35.382579 
L 98.482017 34.982632 
L 98.919379 33.843174 
L 100.340536 33.370258 
L 101.549357 34.637937 
L 102.034559 36.164049 
L 101.822165 37.437142 
L 100.84805 37.708989 
L 99.985468 38.601021 
L 98.396017 39.013855 
L 97.772315 39.960729 
L 96.89951 39.928487 
L 97.405625 40.543727 
L 98.844966 39.803267 
L 100.535734 39.71077 
L 101.043242 40.427462 
L 98.944758 43.375243 
L 97.473305 42.730786 
L 93.600766 43.655327 
z
" clip-path="url(#p64e0cc1d54)" style="fill: #eeeeee; stroke: #000000; stroke-width: 0.3"/>
    <path d="M 62.119974 19.340158 
L 63.278014 17.534414 
L 63.524147 15.929247 
L 65.141981 12.718012 
L 64.69812 11.357055 
L 65.401683 9.456557 
L 65.251761 8.181689 
L 67.707141 8.370304 
L 68.235991 6.737639 
L 71.335911 5.372494 
L 71.550754 5.767663 
L 71.796294 5.387441 
L 72.446734 5.502526 
L 74.549575 2.731092 
L 76.896111 7.586914 
L 78.50462 14.739674 
L 79.320721 15.415407 
L 79.437839 17.077555 
L 80.316224 17.219954 
L 80.911571 19.567957 
L 81.458119 19.655514 
L 81.705834 19.108524 
L 81.242008 17.853085 
L 81.823415 17.19618 
L 82.992266 18.141174 
L 82.687853 18.739946 
L 83.446326 20.214745 
L 84.173663 20.612511 
L 85.463819 20.010916 
L 86.502073 20.712308 
L 86.912913 21.874538 
L 89.203214 22.212055 
L 92.110239 26.241982 
L 93.784742 26.789204 
L 94.566458 27.958266 
L 95.236166 28.476543 
L 95.013083 27.81987 
L 95.604712 28.356975 
L 96.124305 30.39289 
L 97.006869 30.335457 
L 98.125064 31.488982 
L 98.419254 32.537538 
L 99.2572 32.896943 
L 99.674082 32.257455 
L 100.340536 33.370258 
L 98.919379 33.843174 
L 98.482017 34.982632 
L 97.830983 35.382579 
L 96.674125 34.478364 
L 96.124613 34.770103 
L 95.013791 33.224869 
L 93.652706 32.397025 
L 92.311695 30.246638 
L 89.343399 28.118365 
L 87.294103 25.283465 
L 83.132942 23.201079 
L 81.920603 23.429005 
L 79.766243 22.61192 
L 78.013833 23.35024 
L 77.552856 22.412991 
L 76.880578 22.129472 
L 76.060153 23.040864 
L 73.551651 23.483256 
L 72.423713 21.964624 
L 71.152347 21.706208 
L 70.494231 20.808872 
L 68.565343 25.286155 
L 67.080903 23.250402 
L 66.094618 23.462184 
L 65.746968 24.295106 
L 63.964461 23.975567 
L 62.698406 24.372078 
z
" clip-path="url(#p64e0cc1d54)" style="fill: #eeeeee; stroke: #000000; stroke-width: 0.3"/>
    <path d="M 82.138518 15.834124 
L 82.749668 15.262417 
L 82.255631 14.941143 
L 83.315267 15.448592 
L 83.471425 16.384874 
L 84.060268 16.042655 
L 84.785281 16.801474 
L 82.415045 16.603765 
L 82.17802 16.050892 
L 83.000164 16.287905 
z
" clip-path="url(#p64e0cc1d54)" style="fill: #eeeeee; stroke: #000000; stroke-width: 0.3"/>
    <path d="M 82.478715 14.225163 
L 82.824023 13.70736 
L 83.189788 14.409221 
z
" clip-path="url(#p64e0cc1d54)" style="fill: #eeeeee; stroke: #000000; stroke-width: 0.3"/>
    <path d="M 51.541553 -55.736751 
L 52.860823 -58.133516 
L 53.692383 -62.903012 
L 60.088975 -62.025771 
L 62.416865 -63.729728 
L 63.854087 -65.805838 
L 68.088433 -66.621575 
L 69.10128 -68.566907 
L 71.007736 -69.538375 
L 65.172083 -75.27753 
L 76.616153 -78.188951 
L 77.725799 -78.923684 
L 84.650441 -77.865826 
L 94.388141 -72.899367 
L 109.330248 -62.036229 
L 124.987419 -60.838182 
L 126.327551 -58.170374 
L 131.047652 -57.977431 
L 130.899861 -57.323587 
L 131.280953 -57.442212 
L 131.946944 -55.350987 
L 132.745856 -55.125034 
L 132.469792 -54.860718 
L 133.263586 -54.082134 
L 133.217111 -53.75356 
L 133.015409 -53.51443 
L 132.862974 -54.092957 
L 132.670563 -53.46218 
L 133.249184 -53.277179 
L 132.97312 -52.842931 
L 135.302923 -52.453165 
L 135.719806 -51.895115 
L 134.617875 -51.851808 
L 135.440487 -51.694115 
L 135.209505 -51.216322 
L 135.719806 -51.295406 
L 135.776041 -50.489983 
L 136.28866 -50.480097 
L 136.074411 -50.162358 
L 137.200967 -50.423139 
L 137.92831 -49.058491 
L 140.54951 -47.361504 
L 139.578644 -47.706083 
L 139.819386 -46.376737 
L 140.881341 -45.389379 
L 140.451912 -43.723697 
L 139.829609 -44.678813 
L 139.587473 -43.525988 
L 140.223254 -43.45491 
L 141.115116 -41.386516 
L 140.470969 -41.973286 
L 140.493738 -41.77958 
L 142.337414 -40.260293 
L 142.855145 -38.048564 
L 145.234856 -35.230953 
L 146.890587 -35.559342 
L 147.08253 -34.938444 
L 147.612813 -35.598883 
L 148.201193 -35.322565 
L 146.947753 -33.727255 
L 148.606922 -33.428812 
L 148.744983 -32.40009 
L 154.255715 -25.807387 
L 168.800294 -23.970112 
L 169.265993 -24.448078 
L 171.84001 -20.256704 
L 168.075486 -8.783178 
L 150.944201 -3.000092 
L 134.13843 -0.59428 
L 129.147695 1.89762 
L 125.875723 5.863614 
L 124.953777 8.012207 
L 123.43333 8.847374 
L 122.342576 8.792972 
L 120.85636 6.950462 
L 118.643567 7.247286 
L 113.548067 6.738536 
L 112.034702 6.065377 
L 106.230328 6.201685 
L 104.894628 6.79742 
L 102.026381 5.535705 
L 100.610992 6.658128 
L 101.108563 6.970193 
L 100.344796 8.04449 
L 100.311742 9.063789 
L 100.876307 9.718409 
L 100.696283 10.48333 
L 100.153562 10.437298 
L 99.875562 11.225536 
L 98.466192 12.181954 
L 98.026072 10.101558 
L 95.994639 7.488065 
L 96.030424 8.399868 
L 95.679536 5.919589 
L 92.744626 3.721741 
L 91.06408 1.46365 
L 90.735505 0.040627 
L 89.447212 -1.278122 
L 89.668896 -2.066129 
L 89.026143 -2.658075 
L 89.254801 -3.415008 
L 88.63854 -3.750639 
L 87.930723 -5.950366 
L 86.878522 -6.54631 
L 86.789758 -7.51978 
L 86.285499 -7.418577 
L 85.588373 -8.588813 
L 83.014572 -10.424896 
L 81.98236 -10.592711 
L 82.197072 -10.308862 
L 81.165791 -10.838904 
L 77.820502 -15.223765 
L 77.286039 -16.416126 
L 77.801913 -16.931575 
L 77.447771 -18.919474 
L 76.432343 -20.413477 
L 76.857454 -20.389946 
L 77.640176 -22.710739 
L 77.226166 -22.494422 
L 76.899361 -24.813729 
L 75.680317 -26.155078 
L 75.673344 -27.028051 
L 73.699077 -30.697631 
L 70.744693 -32.751096 
L 70.816816 -33.144662 
L 70.346719 -32.814035 
L 67.855458 -34.071661 
L 68.011171 -34.499367 
L 66.25189 -36.869622 
L 66.868613 -36.986599 
L 66.786354 -38.745247 
L 65.039351 -41.468897 
L 63.703189 -42.243015 
L 63.667404 -43.644613 
L 62.620315 -44.157713 
L 59.875023 -48.760991 
L 54.915653 -55.138453 
L 55.21681 -55.399003 
L 54.278011 -55.776055 
L 52.867025 -55.496209 
L 52.320939 -55.894681 
L 51.966334 -55.657667 
L 52.08717 -55.496209 
L 51.771604 -55.259196 
z
" clip-path="url(#p64e0cc1d54)" style="fill: #eeeeee; stroke: #000000; stroke-width: 0.3"/>
    <path d="M 92.570313 9.14278 
L 93.415853 10.003438 
L 94.157393 10.187426 
L 94.312701 9.61812 
L 95.022294 10.246687 
L 94.977298 10.952643 
L 94.447295 10.316116 
L 93.70319 10.451528 
z
" clip-path="url(#p64e0cc1d54)" style="fill: #eeeeee; stroke: #000000; stroke-width: 0.3"/>
    <path d="M 93.015115 9.169984 
L 93.549111 8.804228 
L 93.079249 8.558035 
L 93.162902 8.464595 
L 93.604421 8.700197 
L 93.968106 9.925893 
z
" clip-path="url(#p64e0cc1d54)" style="fill: #eeeeee; stroke: #000000; stroke-width: 0.3"/>
    <path d="M 62.499016 -41.462777 
L 62.796918 -41.796996 
L 62.724881 -41.459954 
L 63.505204 -40.911315 
L 62.772756 -41.139386 
z
" clip-path="url(#p64e0cc1d54)" style="fill: #eeeeee; stroke: #000000; stroke-width: 0.3"/>
    <path d="M 65.09791 -40.287364 
L 65.128121 -40.43564 
L 65.399068 -40.446705 
L 65.556619 -40.158616 
z
" clip-path="url(#p64e0cc1d54)" style="fill: #eeeeee; stroke: #000000; stroke-width: 0.3"/>
    <path d="M 63.583746 -40.932735 
L 63.836109 -41.000521 
L 64.713094 -40.295832 
L 63.799857 -40.945443 
z
" clip-path="url(#p64e0cc1d54)" style="fill: #eeeeee; stroke: #000000; stroke-width: 0.3"/>
    <path d="M 62.790414 -42.370109 
L 62.881508 -42.569229 
L 63.066477 -42.709037 
L 63.182203 -41.835127 
z
" clip-path="url(#p64e0cc1d54)" style="fill: #eeeeee; stroke: #000000; stroke-width: 0.3"/>
    <path d="M 136.539162 -50.979546 
L 137.275328 -51.29164 
L 137.867426 -51.137707 
z
" clip-path="url(#p64e0cc1d54)" style="fill: #eeeeee; stroke: #000000; stroke-width: 0.3"/>
    <path d="M 64.821846 -41.175631 
L 64.914334 -41.240358 
L 64.964527 -40.735969 
z
" clip-path="url(#p64e0cc1d54)" style="fill: #eeeeee; stroke: #000000; stroke-width: 0.3"/>
    <path d="M 64.415186 -40.89649 
L 64.496983 -41.028529 
L 64.641057 -40.956271 
z
" clip-path="url(#p64e0cc1d54)" style="fill: #eeeeee; stroke: #000000; stroke-width: 0.3"/>
    <path d="M 64.127044 -40.60275 
L 64.8567 -40.01104 
L 64.830676 -39.819689 
z
" clip-path="url(#p64e0cc1d54)" style="fill: #eeeeee; stroke: #000000; stroke-width: 0.3"/>
    <path d="M 22.883784 112.248353 
L 23.731358 106.457787 
L 25.087132 103.994733 
L 25.126085 102.10739 
L 26.311281 101.621054 
L 26.791143 100.306134 
L 28.158423 99.712487 
L 32.688182 94.712704 
L 32.151953 93.556351 
L 31.45341 93.629586 
L 30.955251 92.963305 
L 30.405745 93.387766 
L 29.484974 92.733742 
L 30.300682 90.37232 
L 29.675032 89.203264 
L 30.624128 87.248515 
L 30.546221 86.516477 
L 30.221586 86.688648 
L 30.82068 85.594922 
L 32.364735 84.940898 
L 34.128944 85.729136 
L 35.580335 84.801605 
L 36.449165 86.063025 
L 37.808182 86.561161 
L 37.921211 85.942711 
L 38.972121 85.295414 
L 41.168684 85.075858 
L 42.543931 84.401959 
L 43.498932 85.110385 
L 45.361717 85.187357 
L 48.304926 82.549888 
L 48.754686 84.449333 
L 49.441127 84.465477 
L 49.141289 85.0376 
L 50.781555 85.661731 
L 50.448069 86.765771 
L 50.749089 88.471226 
L 53.271166 91.888714 
L 53.545037 92.547515 
L 53.213915 93.298392 
L 54.018406 95.78939 
L 53.825395 97.308474 
L 52.719296 98.845339 
L 52.827311 99.751346 
L 51.05188 100.61581 
L 50.486435 102.158205 
L 49.124762 103.385544 
L 48.757044 104.869956 
L 47.662749 106.241968 
L 48.005088 107.770017 
L 47.723541 112.676394 
L 29.865084 112.579547 
L 27.354224 113.04466 
L 26.267604 114.657601 
L 25.075624 115.397111 
L 24.428428 114.535042 
L 23.016585 114.908091 
z
" clip-path="url(#p64e0cc1d54)" style="fill: #eeeeee; stroke: #000000; stroke-width: 0.3"/>
    <path d="M 97.441878 18.70299 
L 97.855974 18.686279 
L 98.026072 17.993367 
L 98.497328 18.901404 
L 97.908953 16.050892 
L 98.72506 14.817341 
L 98.466192 12.181954 
L 99.875562 11.225536 
L 100.153562 10.437298 
L 100.696283 10.48333 
L 100.876307 9.718409 
L 100.311742 9.063789 
L 100.344796 8.04449 
L 101.088198 7.086169 
L 100.610992 6.658128 
L 101.399252 5.888122 
L 102.543129 5.573367 
L 104.894628 6.79742 
L 106.230328 6.201685 
L 112.034702 6.065377 
L 113.548067 6.738536 
L 118.643567 7.247286 
L 120.85636 6.950462 
L 122.342576 8.792972 
L 123.43333 8.847374 
L 124.953777 8.012207 
L 125.875723 5.863614 
L 129.147695 1.89762 
L 134.13843 -0.59428 
L 150.944201 -3.000092 
L 155.186519 6.818643 
L 155.643949 6.996494 
L 157.293142 10.611835 
L 154.107729 11.740644 
L 152.738101 12.801671 
L 151.954529 14.420986 
L 152.370481 16.548218 
L 147.456192 18.783253 
L 142.80867 19.831098 
L 140.669879 21.018282 
L 139.314197 21.044642 
L 136.060465 22.13768 
L 134.463579 22.890847 
L 133.954677 24.017782 
L 132.196515 25.644153 
L 129.300644 26.074873 
L 128.319087 25.56507 
L 124.786043 27.892834 
L 120.80265 29.19158 
L 114.892396 29.702563 
L 113.391709 31.275036 
L 111.76508 31.902053 
L 111.424878 33.057227 
L 110.972211 32.940013 
L 111.1767 32.497997 
L 110.356881 32.817154 
L 110.412648 33.243165 
L 108.866417 32.724419 
L 107.752407 33.588681 
L 105.072648 34.005749 
L 103.098381 33.090412 
L 102.341296 33.509129 
L 102.370575 32.5679 
L 100.960983 30.038662 
L 101.272831 27.503779 
L 99.436133 22.926155 
L 99.791201 23.33922 
L 99.003911 20.784797 
L 99.358054 21.202809 
L 99.31018 20.410099 
L 98.891904 19.322944 
z
" clip-path="url(#p64e0cc1d54)" style="fill: #eeeeee; stroke: #000000; stroke-width: 0.3"/>
    <path d="M 158.529843 34.321846 
L 159.74084 33.333019 
L 161.609199 34.002533 
L 163.16993 33.409568 
L 165.573632 34.282304 
L 163.290446 35.432775 
L 160.952796 35.727372 
z
" clip-path="url(#p64e0cc1d54)" style="fill: #eeeeee; stroke: #000000; stroke-width: 0.3"/>
    <path d="M 97.14955 17.838965 
L 97.58967 17.534871 
L 97.278753 17.846965 
L 97.20346 18.556831 
z
" clip-path="url(#p64e0cc1d54)" style="fill: #eeeeee; stroke: #000000; stroke-width: 0.3"/>
    <path d="M 158.279598 36.800627 
L 158.415563 36.728508 
L 158.5491 36.820439 
z
" clip-path="url(#p64e0cc1d54)" style="fill: #eeeeee; stroke: #000000; stroke-width: 0.3"/>
    <path d="M 156.693054 36.5238 
L 156.799779 36.441576 
L 157.270498 36.687977 
z
" clip-path="url(#p64e0cc1d54)" style="fill: #eeeeee; stroke: #000000; stroke-width: 0.3"/>
    <path d="M 151.432498 36.103012 
L 151.742696 36.067867 
L 153.284798 36.603965 
z
" clip-path="url(#p64e0cc1d54)" style="fill: #eeeeee; stroke: #000000; stroke-width: 0.3"/>
    <path d="M 101.896527 33.610806 
L 102.232543 33.688004 
L 102.157257 33.808509 
z
" clip-path="url(#p64e0cc1d54)" style="fill: #eeeeee; stroke: #000000; stroke-width: 0.3"/>
    <path d="M 97.908953 25.820206 
L 98.536367 25.762541 
L 98.422041 26.359196 
z
" clip-path="url(#p64e0cc1d54)" style="fill: #eeeeee; stroke: #000000; stroke-width: 0.3"/>
    <path d="M 97.889434 27.841289 
L 97.918251 27.636286 
L 98.497328 27.227224 
z
" clip-path="url(#p64e0cc1d54)" style="fill: #eeeeee; stroke: #000000; stroke-width: 0.3"/>
   </g>
   <g id="PatchCollection_2">
    <defs>
     <path id="mbf1f25d569" d="M 42.501437 -46.918875 
L 43.616982 -48.213619 
L 43.484176 -49.488639 
L 43.902657 -50.033113 
L 46.102755 -50.062405 
L 46.791561 -49.520921 
L 48.785964 -50.616591 
L 48.674311 -55.811422 
L 50.131704 -60.259413 
L 49.86669 -62.237328 
L 51.552992 -64.080433 
L 52.57882 -62.923484 
L 53.05927 -63.183843 
L 53.743353 -64.191926 
L 53.663081 -66.215428 
L 54.399104 -67.925962 
L 54.396745 -69.48719 
L 55.793831 -70.67209 
L 57.908643 -74.348131 
L 60.349266 -74.59444 
L 60.474397 -76.506894 
L 61.926969 -79.78613 
L 62.698406 -83.627922 
L 63.964461 -84.024433 
L 65.746968 -83.704894 
L 66.094618 -84.537816 
L 67.080903 -84.749598 
L 68.565343 -82.713845 
L 70.494231 -87.191128 
L 71.152347 -86.293792 
L 72.423713 -86.035376 
L 73.551651 -84.516744 
L 76.060153 -84.959136 
L 76.880578 -85.870528 
L 77.552856 -85.587009 
L 78.013833 -84.64976 
L 79.766243 -85.38808 
L 81.920603 -84.570995 
L 83.132942 -84.798921 
L 87.294103 -82.716535 
L 89.343399 -79.881635 
L 92.311695 -77.753362 
L 93.652706 -75.602975 
L 95.013791 -74.775131 
L 96.124613 -73.229897 
L 92.772078 -68.825398 
L 92.594418 -64.728626 
L 93.600766 -64.344673 
L 97.473305 -65.269214 
L 99.232792 -64.743573 
L 97.653917 -62.623224 
L 98.733455 -60.169888 
L 100.054992 -58.518089 
L 100.737602 -58.291366 
L 102.061497 -55.570943 
L 103.217766 -55.130645 
L 105.292448 -53.229997 
L 122.393334 -47.377707 
L 128.103862 -47.377707 
L 119.221999 -38.702172 
L 110.756254 -29.532532 
L 105.202142 -29.77824 
L 102.686558 -29.128103 
L 100.349519 -28.006727 
L 98.706894 -26.008931 
L 94.545145 -25.370155 
L 93.020569 -23.967799 
L 89.177544 -23.928639 
L 86.897465 -25.908347 
L 81.670341 -23.492523 
L 79.705445 -20.808872 
L 74.020891 -22.240375 
L 71.695953 -22.019627 
L 65.492577 -26.403799 
L 59.928431 -26.826612 
L 59.352358 -27.198909 
L 58.274002 -29.202085 
L 58.57384 -31.884093 
L 56.661479 -32.536173 
L 55.623253 -32.208415 
L 55.477466 -33.005469 
L 54.544891 -33.645142 
L 53.835429 -35.037039 
L 52.288421 -39.790669 
L 51.267317 -40.183744 
L 51.146909 -40.977061 
L 49.873772 -41.498068 
L 49.306556 -42.580434 
L 48.462517 -43.060789 
L 48.307878 -43.984433 
L 46.649017 -45.414438 
L 42.892763 -46.228983 
z
" style="stroke: #dd0000; stroke-width: 0.5"/>
    </defs>
    <g clip-path="url(#p64e0cc1d54)">
     <use xlink:href="#mbf1f25d569" x="0" y="108" style="fill: #ff6b6b; stroke: #dd0000; stroke-width: 0.5"/>
    </g>
   </g>
  </g>
 </g>
 <defs>
  <clipPath id="p64e0cc1d54">
   <rect x="0" y="0" width="170.605298" height="108"/>
  </clipPath>
 </defs>
</svg>
