<?xml version="1.0" encoding="utf-8" standalone="no"?>
<!DOCTYPE svg PUBLIC "-//W3C//DTD SVG 1.1//EN"
  "http://www.w3.org/Graphics/SVG/1.1/DTD/svg11.dtd">
<svg xmlns:xlink="http://www.w3.org/1999/xlink" width="165.167067pt" height="108pt" viewBox="0 0 165.167067 108" xmlns="http://www.w3.org/2000/svg" version="1.1">
 <metadata>
  <rdf:RDF xmlns:dc="http://purl.org/dc/elements/1.1/" xmlns:cc="http://creativecommons.org/ns#" xmlns:rdf="http://www.w3.org/1999/02/22-rdf-syntax-ns#">
   <cc:Work>
    <dc:type rdf:resource="http://purl.org/dc/dcmitype/StillImage"/>
    <dc:date>2025-09-05T15:57:05.673012</dc:date>
    <dc:format>image/svg+xml</dc:format>
    <dc:creator>
     <cc:Agent>
      <dc:title>Matplotlib v3.10.3, https://matplotlib.org/</dc:title>
     </cc:Agent>
    </dc:creator>
   </cc:Work>
  </rdf:RDF>
 </metadata>
 <defs>
  <style type="text/css">*{stroke-linejoin: round; stroke-linecap: butt}</style>
 </defs>
 <g id="figure_1">
  <g id="patch_1">
   <path d="M 0 108 
L 165.167067 108 
L 165.167067 0 
L 0 0 
z
" style="fill: #ffffff"/>
  </g>
  <g id="axes_1">
   <g id="PatchCollection_1">
    <path d="M 92.473222 31.663073 
L 92.891569 31.666594 
L 93.041107 30.896662 
L 93.736688 30.327134 
L 93.736688 30.770107 
L 94.086181 30.204079 
L 94.311304 30.327134 
L 94.674238 29.486894 
L 94.736403 29.149394 
L 93.995443 29.353298 
L 93.607321 28.706443 
L 94.595267 28.397066 
L 95.144675 28.987675 
L 96.851718 29.588846 
L 98.85953 28.013861 
L 99.119957 28.854079 
L 100.104518 26.92049 
L 100.245653 27.366984 
L 100.527924 26.776354 
L 100.880762 27.050566 
L 101.803179 26.192765 
L 101.515871 25.285738 
L 101.935911 25.447457 
L 102.0468 25.064251 
L 102.508855 25.285738 
L 106.895754 24.403313 
L 107.178025 23.932217 
L 107.819843 23.738854 
L 109.389116 23.956819 
L 109.716767 23.665025 
L 110.02759 23.932217 
L 110.635818 23.503306 
L 111.56158 23.932217 
L 110.995366 22.912675 
L 111.855618 22.765018 
L 112.379817 21.821076 
L 112.688969 22.030272 
L 112.957799 21.038854 
L 114.288488 20.789244 
L 113.970933 20.40781 
L 114.674937 21.008981 
L 114.957187 19.964837 
L 116.239173 20.713666 
L 116.78185 19.817179 
L 117.7194 19.938463 
L 119.01144 19.038456 
L 119.35251 20.112494 
L 120.340457 19.534176 
L 120.599191 19.731038 
L 120.340457 19.964837 
L 120.901633 20.112494 
L 122.030694 19.005062 
L 123.875301 18.340819 
L 123.875301 18.769342 
L 122.595235 19.964837 
L 121.889559 20.112494 
L 120.948664 21.225175 
L 118.475473 25.039627 
L 115.447795 26.899409 
L 115.027755 28.632614 
L 113.112374 30.179477 
L 113.39128 30.780648 
L 113.112374 31.508395 
L 113.970933 31.311511 
L 114.54555 31.666594 
L 117.084291 29.740025 
L 118.851827 27.577908 
L 122.625481 25.127518 
L 122.914462 25.911511 
L 121.607288 28.854079 
L 121.183903 28.854079 
L 120.750402 29.427127 
L 121.644265 29.720693 
L 121.889559 30.62245 
L 122.837184 30.889642 
L 122.675878 31.376549 
L 121.734983 31.065422 
L 122.030694 31.666594 
L 121.059553 31.64022 
L 121.029327 31.065422 
L 120.29004 31.040798 
L 119.787684 30.62245 
L 118.225121 30.62245 
L 116.98515 31.118148 
L 116.78858 31.508395 
L 116.521423 31.227142 
L 115.251226 32.552518 
L 114.48002 32.200956 
L 112.277331 32.700175 
L 109.358891 32.547247 
L 109.906626 31.777337 
L 110.553482 31.503103 
L 110.484587 30.917765 
L 108.72882 30.021278 
L 106.384996 30.984552 
L 105.766693 31.508395 
L 105.901098 31.877518 
L 105.504573 32.39959 
L 104.580484 32.376737 
L 103.639589 34.456234 
L 104.782111 34.160918 
L 103.784089 35.059176 
L 102.288749 34.538854 
L 101.37137 33.438463 
L 101.37137 33.865603 
L 100.628738 33.719717 
L 99.539998 34.616203 
L 98.847762 36.02597 
L 99.119957 36.238666 
L 97.735486 36.871481 
L 96.868524 36.412675 
L 96.424968 34.538854 
L 95.537835 33.213456 
L 95.722656 32.552518 
L 95.018673 31.961909 
L 93.145286 32.707217 
L 92.609299 32.257224 
z
" clip-path="url(#p10da72513a)" style="fill: #eeeeee; stroke: #000000; stroke-width: 0.3"/>
    <path d="M 67.132939 57.28847 
L 67.556345 56.52558 
L 67.42194 55.286323 
L 69.401158 54.753689 
L 69.582635 52.913261 
L 70.904921 52.923823 
L 70.620979 51.371669 
L 69.967392 50.556053 
L 71.54003 49.420498 
L 71.810532 48.52049 
L 72.250723 48.724394 
L 72.573315 47.629296 
L 73.077364 47.782224 
L 75.128863 46.161511 
L 75.486738 46.284566 
L 75.291841 46.477908 
L 75.627874 47.486909 
L 75.627874 46.309169 
L 76.598994 45.746662 
L 77.397081 46.013854 
L 77.741517 45.287878 
L 79.072206 44.583005 
L 78.870578 45.73085 
L 79.203266 45.82049 
L 80.023176 45.129679 
L 81.679822 45.414432 
L 83.45576 44.428306 
L 85.702136 44.21209 
L 86.317073 43.832405 
L 86.508626 43.211902 
L 88.007331 43.969522 
L 88.497939 45.008395 
L 87.649455 46.309169 
L 87.911555 46.600963 
L 87.649455 46.899799 
L 88.854143 46.013854 
L 89.774867 46.226549 
L 90.915696 48.003689 
L 92.468163 48.668148 
L 93.531715 49.85995 
L 94.781762 50.348628 
L 95.038824 51.290798 
L 94.304594 53.027525 
L 95.018673 53.709566 
L 94.948106 54.41971 
L 95.532797 54.579679 
L 95.299251 54.887285 
L 95.714254 55.375963 
L 95.581521 55.639634 
L 95.299251 55.491977 
L 95.440386 55.949011 
L 94.786799 56.10721 
L 94.86577 56.722442 
L 96.561065 58.566391 
L 97.271758 58.146271 
L 96.717313 59.840813 
L 94.736403 61.2576 
L 94.736403 60.814627 
L 93.889591 61.108193 
L 94.156728 60.666991 
L 93.466185 60.264432 
L 92.609299 60.666991 
L 92.654678 61.108193 
L 92.291744 61.384176 
L 91.621372 61.486128 
L 91.629775 60.976346 
L 90.633426 60.519334 
L 90.396535 61.067758 
L 89.917674 60.814627 
L 88.303042 61.479086 
L 87.790591 62.289432 
L 86.058339 63.686909 
L 85.381237 63.924206 
L 84.91751 63.491796 
L 83.386865 64.041991 
L 82.136819 63.778298 
L 80.396185 64.219522 
L 80.224803 63.755467 
L 79.680433 64.061323 
L 79.015079 63.384552 
L 74.152684 61.92031 
L 71.54003 61.698823 
L 68.873594 60.600182 
L 68.413232 59.916391 
L 68.272096 60.076361 
L 68.132633 59.178103 
L 67.366485 58.186706 
z
" clip-path="url(#p10da72513a)" style="fill: #eeeeee; stroke: #000000; stroke-width: 0.3"/>
    <path d="M 81.575643 82.720505 
L 82.200676 82.107022 
L 82.98363 82.129874 
L 83.65233 81.145498 
L 85.240101 81.409169 
L 85.46188 80.82558 
L 86.13731 80.683193 
L 86.520373 79.428103 
L 87.251258 79.1451 
L 88.647477 79.327922 
L 88.817166 78.710918 
L 89.705971 78.29784 
L 90.482215 78.29784 
L 91.468469 78.953508 
L 92.609299 79.166203 
L 92.836135 80.206826 
L 92.100212 80.625175 
L 91.339102 80.361504 
L 91.186198 80.952134 
L 89.633731 80.952134 
L 89.774867 80.361504 
L 89.20025 80.361504 
L 89.479156 80.066189 
L 88.395453 80.080272 
L 87.50832 80.804477 
L 86.611112 80.945114 
L 86.480052 81.725566 
L 86.379259 81.409169 
L 86.182669 81.558576 
L 86.15746 82.031443 
L 86.701851 82.383005 
L 86.278445 83.321676 
L 85.920569 83.172247 
L 85.945757 82.42519 
L 84.475626 83.311114 
L 83.349909 83.003508 
L 82.659366 83.321676 
L 82.560224 83.003508 
z
" clip-path="url(#p10da72513a)" style="fill: #eeeeee; stroke: #000000; stroke-width: 0.3"/>
    <path d="M 70.809145 33.143148 
L 70.963721 32.257224 
L 71.363611 32.520895 
L 71.751712 32.327532 
L 73.470523 30.703298 
L 73.757831 30.228703 
L 73.51421 29.740025 
L 74.142588 29.942179 
L 73.919138 30.854477 
L 71.669397 33.143148 
z
" clip-path="url(#p10da72513a)" style="fill: #eeeeee; stroke: #000000; stroke-width: 0.3"/>
    <path d="M -7305.998779 79.784957 
L -7305.539243 78.266196 
L -7304.775613 78.350566 
L -7304.248875 78.955258 
L -7304.683202 79.626737 
L -7304.859621 78.88847 
L -7305.293102 78.814642 
L -7305.653497 79.124018 
L -7305.4292 79.966008 
L -7305.716508 80.048628 
z
" clip-path="url(#p10da72513a)" style="fill: #eeeeee; stroke: #000000; stroke-width: 0.3"/>
    <path d="M 65.570397 40.24823 
L 66.444069 38.314642 
L 67.069102 37.87519 
L 67.556345 38.465798 
L 67.838615 37.727532 
L 67.880609 38.56073 
L 66.852362 39.940603 
L 66.568398 39.64531 
L 66.145013 40.383576 
z
" clip-path="url(#p10da72513a)" style="fill: #eeeeee; stroke: #000000; stroke-width: 0.3"/>
    <path d="M -7308.642732 35.94551 
L -7308.642732 32.113433 
L -7306.906062 30.121481 
L -7305.836626 29.836706 
L -7305.388879 31.292179 
L -7304.836932 31.80019 
L -7305.682897 32.700175 
L -7305.991202 33.779484 
L -7307.634407 34.688261 
z
" clip-path="url(#p10da72513a)" style="fill: #eeeeee; stroke: #000000; stroke-width: 0.3"/>
    <path d="M 120.379251 71.048923 
L 122.707301 70.337074 
L 122.733583 70.861327 
L 121.642056 71.48831 
L 122.244668 71.769089 
L 121.827043 72.545652 
L 121.454653 72.630518 
L 121.223667 71.902598 
z
" clip-path="url(#p10da72513a)" style="fill: #eeeeee; stroke: #000000; stroke-width: 0.3"/>
    <path d="M -7279.745329 83.11073 
L -7279.678973 82.695881 
L -7279.359726 82.328508 
L -7278.785109 82.277532 
L -7279.502554 82.572847 
L -7279.043864 83.18281 
L -7278.361724 83.311114 
L -7278.437329 83.747066 
z
" clip-path="url(#p10da72513a)" style="fill: #eeeeee; stroke: #000000; stroke-width: 0.3"/>
    <path d="M -7308.642732 26.808084 
L -7308.46526 25.396481 
L -7307.797386 24.772457 
L -7306.529708 24.403313 
L -7306.80946 24.649402 
L -7306.656557 25.006234 
L -7307.351311 25.433395 
L -7307.032064 25.865806 
z
" clip-path="url(#p10da72513a)" style="fill: #eeeeee; stroke: #000000; stroke-width: 0.3"/>
    <path d="M 121.691296 36.017179 
L 121.71314 35.405467 
L 123.200098 33.65995 
L 123.875301 32.083538 
L 123.875301 35.916091 
L 123.190002 36.576166 
L 122.171829 36.693929 
z
" clip-path="url(#p10da72513a)" style="fill: #eeeeee; stroke: #000000; stroke-width: 0.3"/>
    <path d="M 108.034912 57.126751 
L 109.368966 56.979094 
L 110.679484 58.881038 
L 110.461071 60.886706 
L 109.647871 60.259162 
L 108.740588 58.293929 
L 108.475123 59.165813 
z
" clip-path="url(#p10da72513a)" style="fill: #eeeeee; stroke: #000000; stroke-width: 0.3"/>
    <path d="M 97.848171 51.263928 
L 98.090533 50.616641 
L 99.056616 50.081868 
L 99.446224 50.305342 
L 99.834078 51.692234 
L 99.573217 52.469208 
L 98.441162 52.858786 
z
" clip-path="url(#p10da72513a)" style="fill: #eeeeee; stroke: #000000; stroke-width: 0.3"/>
    <path d="M 69.639742 34.623223 
L 70.2547 34.160918 
L 70.108527 33.828689 
L 71.098146 33.865603 
L 70.271485 34.616203 
L 70.53697 34.763861 
L 70.100124 35.354491 
z
" clip-path="url(#p10da72513a)" style="fill: #eeeeee; stroke: #000000; stroke-width: 0.3"/>
    <path d="M -7274.737587 56.469334 
L -7274.326796 55.8576 
L -7273.403553 55.787292 
L -7272.438296 56.539642 
L -7272.484502 57.29549 
L -7273.509405 57.527518 
L -7274.624179 57.147833 
z
" clip-path="url(#p10da72513a)" style="fill: #eeeeee; stroke: #000000; stroke-width: 0.3"/>
    <path d="M 118.630049 84.026549 
L 118.774529 83.458771 
L 119.211375 83.606429 
L 118.850134 82.678298 
L 119.281942 82.572847 
L 119.787684 83.899994 
z
" clip-path="url(#p10da72513a)" style="fill: #eeeeee; stroke: #000000; stroke-width: 0.3"/>
    <path d="M 92.327028 77.914634 
L 92.821001 76.960152 
L 93.558596 76.905655 
L 93.607321 77.988463 
L 93.330088 77.893553 
L 93.078063 78.331234 
z
" clip-path="url(#p10da72513a)" style="fill: #eeeeee; stroke: #000000; stroke-width: 0.3"/>
    <path d="M 62.058842 -60.706454 
L 63.171118 -61.014082 
L 64.513555 -60.780283 
L 64.602621 -60.444533 
L 63.817974 -60.126386 
L 62.174768 -60.275794 
z
" clip-path="url(#p10da72513a)" style="fill: #eeeeee; stroke: #000000; stroke-width: 0.3"/>
    <path d="M -7288.409105 39.940603 
L -7286.153481 41.353891 
L -7287.704276 43.493155 
L -7287.948743 42.835738 
L -7287.13639 41.285333 
L -7288.26797 40.691203 
z
" clip-path="url(#p10da72513a)" style="fill: #eeeeee; stroke: #000000; stroke-width: 0.3"/>
    <path d="M -7289.621762 57.599467 
L -7289.035212 57.368563 
L -7288.654027 57.592706 
L -7288.572146 58.385102 
L -7288.950998 58.482324 
L -7289.428351 58.08929 
z
" clip-path="url(#p10da72513a)" style="fill: #eeeeee; stroke: #000000; stroke-width: 0.3"/>
    <path d="M 111.317958 53.850182 
L 111.420444 53.57597 
L 112.124428 53.871286 
L 112.154674 54.708005 
L 111.954739 55.091189 
z
" clip-path="url(#p10da72513a)" style="fill: #eeeeee; stroke: #000000; stroke-width: 0.3"/>
    <path d="M 110.896245 42.332998 
L 112.268928 41.942772 
L 112.559602 42.990415 
L 112.166442 44.45995 
L 111.29948 45.279086 
z
" clip-path="url(#p10da72513a)" style="fill: #eeeeee; stroke: #000000; stroke-width: 0.3"/>
    <path d="M 84.828464 67.035535 
L 85.098966 66.942374 
L 85.218258 65.915813 
L 85.681985 66.049409 
L 85.522372 67.216586 
z
" clip-path="url(#p10da72513a)" style="fill: #eeeeee; stroke: #000000; stroke-width: 0.3"/>
    <path d="M 74.717204 69.376932 
L 75.049892 68.817967 
L 75.441359 69.208193 
L 75.627874 71.031038 
L 75.078445 70.475573 
z
" clip-path="url(#p10da72513a)" style="fill: #eeeeee; stroke: #000000; stroke-width: 0.3"/>
    <path d="M 63.876774 42.01835 
L 64.417799 42.238066 
L 65.017624 42.01835 
L 65.299874 42.461323 
L 64.246417 43.422847 
z
" clip-path="url(#p10da72513a)" style="fill: #eeeeee; stroke: #000000; stroke-width: 0.3"/>
    <path d="M -7284.80516 63.015408 
L -7283.656753 62.038073 
L -7282.746105 63.106819 
L -7283.109865 63.630662 
L -7284.003707 63.584957 
z
" clip-path="url(#p10da72513a)" style="fill: #eeeeee; stroke: #000000; stroke-width: 0.3"/>
    <path d="M 123.610063 26.315798 
L 123.875301 25.69361 
L 123.875301 26.81154 
L 123.616773 26.836121 
z
" clip-path="url(#p10da72513a)" style="fill: #eeeeee; stroke: #000000; stroke-width: 0.3"/>
    <path d="M 103.340533 50.141203 
L 103.370779 49.53299 
L 104.071398 50.893553 
L 103.918494 50.893553 
z
" clip-path="url(#p10da72513a)" style="fill: #eeeeee; stroke: #000000; stroke-width: 0.3"/>
    <path d="M 97.307951 52.077125 
L 98.678073 53.266594 
L 98.536938 53.57597 
L 97.751755 53.299426 
z
" clip-path="url(#p10da72513a)" style="fill: #eeeeee; stroke: #000000; stroke-width: 0.3"/>
    <path d="M 94.153384 27.806436 
L 95.077473 27.648238 
L 95.437021 27.497059 
L 94.815373 27.985738 
z
" clip-path="url(#p10da72513a)" style="fill: #eeeeee; stroke: #000000; stroke-width: 0.3"/>
    <path d="M 88.365207 32.113066 
L 89.479156 32.257224 
L 89.472425 33.023614 
L 88.575217 33.143148 
z
" clip-path="url(#p10da72513a)" style="fill: #eeeeee; stroke: #000000; stroke-width: 0.3"/>
    <path d="M 12.263758 137.564244 
L 12.937495 137.733005 
L 12.715717 138.480062 
L 12.322557 138.20585 
z
" clip-path="url(#p10da72513a)" style="fill: #eeeeee; stroke: #000000; stroke-width: 0.3"/>
    <path d="M -7272.077902 97.827134 
L -7271.813263 97.528298 
L -7271.893906 97.802532 
L -7272.033369 98.064432 
z
" clip-path="url(#p10da72513a)" style="fill: #eeeeee; stroke: #000000; stroke-width: 0.3"/>
    <path d="M -7275.997729 83.778689 
L -7275.632277 82.803103 
L -7275.463434 82.674799 
L -7275.443263 83.500956 
z
" clip-path="url(#p10da72513a)" style="fill: #eeeeee; stroke: #000000; stroke-width: 0.3"/>
    <path d="M -7278.010558 72.359957 
L -7277.65772 72.008395 
L -7277.386371 72.398621 
L -7277.821545 72.688666 
z
" clip-path="url(#p10da72513a)" style="fill: #eeeeee; stroke: #000000; stroke-width: 0.3"/>
    <path d="M -7287.358168 78.681046 
L -7286.832276 78.329484 
L -7286.571849 79.301549 
L -7287.202746 79.633778 
z
" clip-path="url(#p10da72513a)" style="fill: #eeeeee; stroke: #000000; stroke-width: 0.3"/>
    <path d="M -7291.244384 42.61073 
L -7291.23179 42.208193 
L -7290.771428 42.166008 
L -7290.697495 42.703891 
z
" clip-path="url(#p10da72513a)" style="fill: #eeeeee; stroke: #000000; stroke-width: 0.3"/>
    <path d="M -7291.619912 46.217758 
L -7291.002455 45.883778 
L -7290.697495 46.520114 
L -7291.230118 46.901549 
z
" clip-path="url(#p10da72513a)" style="fill: #eeeeee; stroke: #000000; stroke-width: 0.3"/>
    <path d="M -7294.897074 52.704086 
L -7294.151077 52.341984 
L -7293.793201 53.140018 
L -7294.656818 53.356234 
z
" clip-path="url(#p10da72513a)" style="fill: #eeeeee; stroke: #000000; stroke-width: 0.3"/>
    <path d="M -7308.642732 18.783662 
L -7308.385443 18.103306 
L -7307.374827 17.739432 
L -7307.853667 18.461909 
z
" clip-path="url(#p10da72513a)" style="fill: #eeeeee; stroke: #000000; stroke-width: 0.3"/>
    <path d="M 121.466153 29.279491 
L 122.877506 28.249409 
L 122.790132 29.040422 
z
" clip-path="url(#p10da72513a)" style="fill: #eeeeee; stroke: #000000; stroke-width: 0.3"/>
    <path d="M 110.004075 22.325566 
L 110.004075 22.174409 
L 111.274271 22.325566 
z
" clip-path="url(#p10da72513a)" style="fill: #eeeeee; stroke: #000000; stroke-width: 0.3"/>
    <path d="M -7282.443684 115.725175 
L -7282.318508 115.394717 
L -7281.970707 116.02049 
z
" clip-path="url(#p10da72513a)" style="fill: #eeeeee; stroke: #000000; stroke-width: 0.3"/>
    <path d="M -7286.564292 77.37323 
L -7285.5167 76.772059 
L -7286.239182 77.415415 
z
" clip-path="url(#p10da72513a)" style="fill: #eeeeee; stroke: #000000; stroke-width: 0.3"/>
   </g>
   <g id="PatchCollection_2">
    <path d="M 92.473222 31.663073 
L 92.891569 31.666594 
L 93.041107 30.896662 
L 93.736688 30.327134 
L 93.736688 30.770107 
L 94.086181 30.204079 
L 94.311304 30.327134 
L 94.674238 29.486894 
L 94.736403 29.149394 
L 93.995443 29.353298 
L 93.607321 28.706443 
L 94.595267 28.397066 
L 95.144675 28.987675 
L 96.851718 29.588846 
L 98.85953 28.013861 
L 99.119957 28.854079 
L 100.104518 26.92049 
L 100.245653 27.366984 
L 100.527924 26.776354 
L 100.880762 27.050566 
L 101.803179 26.192765 
L 101.515871 25.285738 
L 101.935911 25.447457 
L 102.0468 25.064251 
L 102.508855 25.285738 
L 106.895754 24.403313 
L 107.178025 23.932217 
L 107.819843 23.738854 
L 109.389116 23.956819 
L 109.716767 23.665025 
L 110.02759 23.932217 
L 110.635818 23.503306 
L 111.56158 23.932217 
L 110.995366 22.912675 
L 111.855618 22.765018 
L 112.379817 21.821076 
L 112.688969 22.030272 
L 112.957799 21.038854 
L 114.288488 20.789244 
L 113.970933 20.40781 
L 114.674937 21.008981 
L 114.957187 19.964837 
L 116.239173 20.713666 
L 116.78185 19.817179 
L 117.7194 19.938463 
L 119.01144 19.038456 
L 119.35251 20.112494 
L 120.340457 19.534176 
L 120.599191 19.731038 
L 120.340457 19.964837 
L 120.901633 20.112494 
L 122.030694 19.005062 
L 123.875301 18.340819 
L 123.875301 18.769342 
L 122.595235 19.964837 
L 121.889559 20.112494 
L 120.948664 21.225175 
L 118.475473 25.039627 
L 115.447795 26.899409 
L 115.027755 28.632614 
L 113.112374 30.179477 
L 113.39128 30.780648 
L 113.112374 31.508395 
L 113.970933 31.311511 
L 114.54555 31.666594 
L 117.084291 29.740025 
L 118.851827 27.577908 
L 122.625481 25.127518 
L 122.914462 25.911511 
L 121.607288 28.854079 
L 121.183903 28.854079 
L 120.750402 29.427127 
L 121.644265 29.720693 
L 121.889559 30.62245 
L 122.837184 30.889642 
L 122.675878 31.376549 
L 121.734983 31.065422 
L 122.030694 31.666594 
L 121.059553 31.64022 
L 121.029327 31.065422 
L 120.29004 31.040798 
L 119.787684 30.62245 
L 118.225121 30.62245 
L 116.98515 31.118148 
L 116.78858 31.508395 
L 116.521423 31.227142 
L 115.251226 32.552518 
L 114.48002 32.200956 
L 112.277331 32.700175 
L 109.358891 32.547247 
L 109.906626 31.777337 
L 110.553482 31.503103 
L 110.484587 30.917765 
L 108.72882 30.021278 
L 106.384996 30.984552 
L 105.766693 31.508395 
L 105.901098 31.877518 
L 105.504573 32.39959 
L 104.580484 32.376737 
L 103.639589 34.456234 
L 104.782111 34.160918 
L 103.784089 35.059176 
L 102.288749 34.538854 
L 101.37137 33.438463 
L 101.37137 33.865603 
L 100.628738 33.719717 
L 99.539998 34.616203 
L 98.847762 36.02597 
L 99.119957 36.238666 
L 97.735486 36.871481 
L 96.868524 36.412675 
L 96.424968 34.538854 
L 95.537835 33.213456 
L 95.722656 32.552518 
L 95.018673 31.961909 
L 93.145286 32.707217 
L 92.609299 32.257224 
z
" clip-path="url(#p10da72513a)" style="fill: #ff6b6b; stroke: #dd0000; stroke-width: 0.8"/>
    <path d="M 67.132939 57.28847 
L 67.556345 56.52558 
L 67.42194 55.286323 
L 69.401158 54.753689 
L 69.582635 52.913261 
L 70.904921 52.923823 
L 70.620979 51.371669 
L 69.967392 50.556053 
L 71.54003 49.420498 
L 71.810532 48.52049 
L 72.250723 48.724394 
L 72.573315 47.629296 
L 73.077364 47.782224 
L 75.128863 46.161511 
L 75.486738 46.284566 
L 75.291841 46.477908 
L 75.627874 47.486909 
L 75.627874 46.309169 
L 76.598994 45.746662 
L 77.397081 46.013854 
L 77.741517 45.287878 
L 79.072206 44.583005 
L 78.870578 45.73085 
L 79.203266 45.82049 
L 80.023176 45.129679 
L 81.679822 45.414432 
L 83.45576 44.428306 
L 85.702136 44.21209 
L 86.317073 43.832405 
L 86.508626 43.211902 
L 88.007331 43.969522 
L 88.497939 45.008395 
L 87.649455 46.309169 
L 87.911555 46.600963 
L 87.649455 46.899799 
L 88.854143 46.013854 
L 89.774867 46.226549 
L 90.915696 48.003689 
L 92.468163 48.668148 
L 93.531715 49.85995 
L 94.781762 50.348628 
L 95.038824 51.290798 
L 94.304594 53.027525 
L 95.018673 53.709566 
L 94.948106 54.41971 
L 95.532797 54.579679 
L 95.299251 54.887285 
L 95.714254 55.375963 
L 95.581521 55.639634 
L 95.299251 55.491977 
L 95.440386 55.949011 
L 94.786799 56.10721 
L 94.86577 56.722442 
L 96.561065 58.566391 
L 97.271758 58.146271 
L 96.717313 59.840813 
L 94.736403 61.2576 
L 94.736403 60.814627 
L 93.889591 61.108193 
L 94.156728 60.666991 
L 93.466185 60.264432 
L 92.609299 60.666991 
L 92.654678 61.108193 
L 92.291744 61.384176 
L 91.621372 61.486128 
L 91.629775 60.976346 
L 90.633426 60.519334 
L 90.396535 61.067758 
L 89.917674 60.814627 
L 88.303042 61.479086 
L 87.790591 62.289432 
L 86.058339 63.686909 
L 85.381237 63.924206 
L 84.91751 63.491796 
L 83.386865 64.041991 
L 82.136819 63.778298 
L 80.396185 64.219522 
L 80.224803 63.755467 
L 79.680433 64.061323 
L 79.015079 63.384552 
L 74.152684 61.92031 
L 71.54003 61.698823 
L 68.873594 60.600182 
L 68.413232 59.916391 
L 68.272096 60.076361 
L 68.132633 59.178103 
L 67.366485 58.186706 
z
" clip-path="url(#p10da72513a)" style="fill: #ff6b6b; stroke: #dd0000; stroke-width: 0.8"/>
    <path d="M 81.575643 82.720505 
L 82.200676 82.107022 
L 82.98363 82.129874 
L 83.65233 81.145498 
L 85.240101 81.409169 
L 85.46188 80.82558 
L 86.13731 80.683193 
L 86.520373 79.428103 
L 87.251258 79.1451 
L 88.647477 79.327922 
L 88.817166 78.710918 
L 89.705971 78.29784 
L 90.482215 78.29784 
L 91.468469 78.953508 
L 92.609299 79.166203 
L 92.836135 80.206826 
L 92.100212 80.625175 
L 91.339102 80.361504 
L 91.186198 80.952134 
L 89.633731 80.952134 
L 89.774867 80.361504 
L 89.20025 80.361504 
L 89.479156 80.066189 
L 88.395453 80.080272 
L 87.50832 80.804477 
L 86.611112 80.945114 
L 86.480052 81.725566 
L 86.379259 81.409169 
L 86.182669 81.558576 
L 86.15746 82.031443 
L 86.701851 82.383005 
L 86.278445 83.321676 
L 85.920569 83.172247 
L 85.945757 82.42519 
L 84.475626 83.311114 
L 83.349909 83.003508 
L 82.659366 83.321676 
L 82.560224 83.003508 
z
" clip-path="url(#p10da72513a)" style="fill: #ff6b6b; stroke: #dd0000; stroke-width: 0.8"/>
    <path d="M 70.809145 33.143148 
L 70.963721 32.257224 
L 71.363611 32.520895 
L 71.751712 32.327532 
L 73.470523 30.703298 
L 73.757831 30.228703 
L 73.51421 29.740025 
L 74.142588 29.942179 
L 73.919138 30.854477 
L 71.669397 33.143148 
z
" clip-path="url(#p10da72513a)" style="fill: #ff6b6b; stroke: #dd0000; stroke-width: 0.8"/>
    <path d="M -7305.998779 79.784957 
L -7305.539243 78.266196 
L -7304.775613 78.350566 
L -7304.248875 78.955258 
L -7304.683202 79.626737 
L -7304.859621 78.88847 
L -7305.293102 78.814642 
L -7305.653497 79.124018 
L -7305.4292 79.966008 
L -7305.716508 80.048628 
z
" clip-path="url(#p10da72513a)" style="fill: #ff6b6b; stroke: #dd0000; stroke-width: 0.8"/>
    <path d="M 65.570397 40.24823 
L 66.444069 38.314642 
L 67.069102 37.87519 
L 67.556345 38.465798 
L 67.838615 37.727532 
L 67.880609 38.56073 
L 66.852362 39.940603 
L 66.568398 39.64531 
L 66.145013 40.383576 
z
" clip-path="url(#p10da72513a)" style="fill: #ff6b6b; stroke: #dd0000; stroke-width: 0.8"/>
    <path d="M -7308.642732 35.94551 
L -7308.642732 32.113433 
L -7306.906062 30.121481 
L -7305.836626 29.836706 
L -7305.388879 31.292179 
L -7304.836932 31.80019 
L -7305.682897 32.700175 
L -7305.991202 33.779484 
L -7307.634407 34.688261 
z
" clip-path="url(#p10da72513a)" style="fill: #ff6b6b; stroke: #dd0000; stroke-width: 0.8"/>
    <path d="M 120.379251 71.048923 
L 122.707301 70.337074 
L 122.733583 70.861327 
L 121.642056 71.48831 
L 122.244668 71.769089 
L 121.827043 72.545652 
L 121.454653 72.630518 
L 121.223667 71.902598 
z
" clip-path="url(#p10da72513a)" style="fill: #ff6b6b; stroke: #dd0000; stroke-width: 0.8"/>
    <path d="M -7279.745329 83.11073 
L -7279.678973 82.695881 
L -7279.359726 82.328508 
L -7278.785109 82.277532 
L -7279.502554 82.572847 
L -7279.043864 83.18281 
L -7278.361724 83.311114 
L -7278.437329 83.747066 
z
" clip-path="url(#p10da72513a)" style="fill: #ff6b6b; stroke: #dd0000; stroke-width: 0.8"/>
    <path d="M -7308.642732 26.808084 
L -7308.46526 25.396481 
L -7307.797386 24.772457 
L -7306.529708 24.403313 
L -7306.80946 24.649402 
L -7306.656557 25.006234 
L -7307.351311 25.433395 
L -7307.032064 25.865806 
z
" clip-path="url(#p10da72513a)" style="fill: #ff6b6b; stroke: #dd0000; stroke-width: 0.8"/>
    <path d="M 121.691296 36.017179 
L 121.71314 35.405467 
L 123.200098 33.65995 
L 123.875301 32.083538 
L 123.875301 35.916091 
L 123.190002 36.576166 
L 122.171829 36.693929 
z
" clip-path="url(#p10da72513a)" style="fill: #ff6b6b; stroke: #dd0000; stroke-width: 0.8"/>
    <path d="M 108.034912 57.126751 
L 109.368966 56.979094 
L 110.679484 58.881038 
L 110.461071 60.886706 
L 109.647871 60.259162 
L 108.740588 58.293929 
L 108.475123 59.165813 
z
" clip-path="url(#p10da72513a)" style="fill: #ff6b6b; stroke: #dd0000; stroke-width: 0.8"/>
    <path d="M 97.848171 51.263928 
L 98.090533 50.616641 
L 99.056616 50.081868 
L 99.446224 50.305342 
L 99.834078 51.692234 
L 99.573217 52.469208 
L 98.441162 52.858786 
z
" clip-path="url(#p10da72513a)" style="fill: #ff6b6b; stroke: #dd0000; stroke-width: 0.8"/>
    <path d="M 69.639742 34.623223 
L 70.2547 34.160918 
L 70.108527 33.828689 
L 71.098146 33.865603 
L 70.271485 34.616203 
L 70.53697 34.763861 
L 70.100124 35.354491 
z
" clip-path="url(#p10da72513a)" style="fill: #ff6b6b; stroke: #dd0000; stroke-width: 0.8"/>
    <path d="M -7274.737587 56.469334 
L -7274.326796 55.8576 
L -7273.403553 55.787292 
L -7272.438296 56.539642 
L -7272.484502 57.29549 
L -7273.509405 57.527518 
L -7274.624179 57.147833 
z
" clip-path="url(#p10da72513a)" style="fill: #ff6b6b; stroke: #dd0000; stroke-width: 0.8"/>
    <path d="M 118.630049 84.026549 
L 118.774529 83.458771 
L 119.211375 83.606429 
L 118.850134 82.678298 
L 119.281942 82.572847 
L 119.787684 83.899994 
z
" clip-path="url(#p10da72513a)" style="fill: #ff6b6b; stroke: #dd0000; stroke-width: 0.8"/>
    <path d="M 92.327028 77.914634 
L 92.821001 76.960152 
L 93.558596 76.905655 
L 93.607321 77.988463 
L 93.330088 77.893553 
L 93.078063 78.331234 
z
" clip-path="url(#p10da72513a)" style="fill: #ff6b6b; stroke: #dd0000; stroke-width: 0.8"/>
    <path d="M 62.058842 -60.706454 
L 63.171118 -61.014082 
L 64.513555 -60.780283 
L 64.602621 -60.444533 
L 63.817974 -60.126386 
L 62.174768 -60.275794 
z
" clip-path="url(#p10da72513a)" style="fill: #ff6b6b; stroke: #dd0000; stroke-width: 0.8"/>
    <path d="M -7288.409105 39.940603 
L -7286.153481 41.353891 
L -7287.704276 43.493155 
L -7287.948743 42.835738 
L -7287.13639 41.285333 
L -7288.26797 40.691203 
z
" clip-path="url(#p10da72513a)" style="fill: #ff6b6b; stroke: #dd0000; stroke-width: 0.8"/>
    <path d="M -7289.621762 57.599467 
L -7289.035212 57.368563 
L -7288.654027 57.592706 
L -7288.572146 58.385102 
L -7288.950998 58.482324 
L -7289.428351 58.08929 
z
" clip-path="url(#p10da72513a)" style="fill: #ff6b6b; stroke: #dd0000; stroke-width: 0.8"/>
    <path d="M 111.317958 53.850182 
L 111.420444 53.57597 
L 112.124428 53.871286 
L 112.154674 54.708005 
L 111.954739 55.091189 
z
" clip-path="url(#p10da72513a)" style="fill: #ff6b6b; stroke: #dd0000; stroke-width: 0.8"/>
    <path d="M 110.896245 42.332998 
L 112.268928 41.942772 
L 112.559602 42.990415 
L 112.166442 44.45995 
L 111.29948 45.279086 
z
" clip-path="url(#p10da72513a)" style="fill: #ff6b6b; stroke: #dd0000; stroke-width: 0.8"/>
    <path d="M 84.828464 67.035535 
L 85.098966 66.942374 
L 85.218258 65.915813 
L 85.681985 66.049409 
L 85.522372 67.216586 
z
" clip-path="url(#p10da72513a)" style="fill: #ff6b6b; stroke: #dd0000; stroke-width: 0.8"/>
    <path d="M 74.717204 69.376932 
L 75.049892 68.817967 
L 75.441359 69.208193 
L 75.627874 71.031038 
L 75.078445 70.475573 
z
" clip-path="url(#p10da72513a)" style="fill: #ff6b6b; stroke: #dd0000; stroke-width: 0.8"/>
    <path d="M 63.876774 42.01835 
L 64.417799 42.238066 
L 65.017624 42.01835 
L 65.299874 42.461323 
L 64.246417 43.422847 
z
" clip-path="url(#p10da72513a)" style="fill: #ff6b6b; stroke: #dd0000; stroke-width: 0.8"/>
    <path d="M -7284.80516 63.015408 
L -7283.656753 62.038073 
L -7282.746105 63.106819 
L -7283.109865 63.630662 
L -7284.003707 63.584957 
z
" clip-path="url(#p10da72513a)" style="fill: #ff6b6b; stroke: #dd0000; stroke-width: 0.8"/>
    <path d="M 123.610063 26.315798 
L 123.875301 25.69361 
L 123.875301 26.81154 
L 123.616773 26.836121 
z
" clip-path="url(#p10da72513a)" style="fill: #ff6b6b; stroke: #dd0000; stroke-width: 0.8"/>
    <path d="M 103.340533 50.141203 
L 103.370779 49.53299 
L 104.071398 50.893553 
L 103.918494 50.893553 
z
" clip-path="url(#p10da72513a)" style="fill: #ff6b6b; stroke: #dd0000; stroke-width: 0.8"/>
    <path d="M 97.307951 52.077125 
L 98.678073 53.266594 
L 98.536938 53.57597 
L 97.751755 53.299426 
z
" clip-path="url(#p10da72513a)" style="fill: #ff6b6b; stroke: #dd0000; stroke-width: 0.8"/>
    <path d="M 94.153384 27.806436 
L 95.077473 27.648238 
L 95.437021 27.497059 
L 94.815373 27.985738 
z
" clip-path="url(#p10da72513a)" style="fill: #ff6b6b; stroke: #dd0000; stroke-width: 0.8"/>
    <path d="M 88.365207 32.113066 
L 89.479156 32.257224 
L 89.472425 33.023614 
L 88.575217 33.143148 
z
" clip-path="url(#p10da72513a)" style="fill: #ff6b6b; stroke: #dd0000; stroke-width: 0.8"/>
    <path d="M 12.263758 137.564244 
L 12.937495 137.733005 
L 12.715717 138.480062 
L 12.322557 138.20585 
z
" clip-path="url(#p10da72513a)" style="fill: #ff6b6b; stroke: #dd0000; stroke-width: 0.8"/>
    <path d="M -7272.077902 97.827134 
L -7271.813263 97.528298 
L -7271.893906 97.802532 
L -7272.033369 98.064432 
z
" clip-path="url(#p10da72513a)" style="fill: #ff6b6b; stroke: #dd0000; stroke-width: 0.8"/>
    <path d="M -7275.997729 83.778689 
L -7275.632277 82.803103 
L -7275.463434 82.674799 
L -7275.443263 83.500956 
z
" clip-path="url(#p10da72513a)" style="fill: #ff6b6b; stroke: #dd0000; stroke-width: 0.8"/>
    <path d="M -7278.010558 72.359957 
L -7277.65772 72.008395 
L -7277.386371 72.398621 
L -7277.821545 72.688666 
z
" clip-path="url(#p10da72513a)" style="fill: #ff6b6b; stroke: #dd0000; stroke-width: 0.8"/>
    <path d="M -7287.358168 78.681046 
L -7286.832276 78.329484 
L -7286.571849 79.301549 
L -7287.202746 79.633778 
z
" clip-path="url(#p10da72513a)" style="fill: #ff6b6b; stroke: #dd0000; stroke-width: 0.8"/>
    <path d="M -7291.244384 42.61073 
L -7291.23179 42.208193 
L -7290.771428 42.166008 
L -7290.697495 42.703891 
z
" clip-path="url(#p10da72513a)" style="fill: #ff6b6b; stroke: #dd0000; stroke-width: 0.8"/>
    <path d="M -7291.619912 46.217758 
L -7291.002455 45.883778 
L -7290.697495 46.520114 
L -7291.230118 46.901549 
z
" clip-path="url(#p10da72513a)" style="fill: #ff6b6b; stroke: #dd0000; stroke-width: 0.8"/>
    <path d="M -7294.897074 52.704086 
L -7294.151077 52.341984 
L -7293.793201 53.140018 
L -7294.656818 53.356234 
z
" clip-path="url(#p10da72513a)" style="fill: #ff6b6b; stroke: #dd0000; stroke-width: 0.8"/>
    <path d="M -7308.642732 18.783662 
L -7308.385443 18.103306 
L -7307.374827 17.739432 
L -7307.853667 18.461909 
z
" clip-path="url(#p10da72513a)" style="fill: #ff6b6b; stroke: #dd0000; stroke-width: 0.8"/>
    <path d="M 121.466153 29.279491 
L 122.877506 28.249409 
L 122.790132 29.040422 
z
" clip-path="url(#p10da72513a)" style="fill: #ff6b6b; stroke: #dd0000; stroke-width: 0.8"/>
    <path d="M 110.004075 22.325566 
L 110.004075 22.174409 
L 111.274271 22.325566 
z
" clip-path="url(#p10da72513a)" style="fill: #ff6b6b; stroke: #dd0000; stroke-width: 0.8"/>
    <path d="M -7282.443684 115.725175 
L -7282.318508 115.394717 
L -7281.970707 116.02049 
z
" clip-path="url(#p10da72513a)" style="fill: #ff6b6b; stroke: #dd0000; stroke-width: 0.8"/>
    <path d="M -7286.564292 77.37323 
L -7285.5167 76.772059 
L -7286.239182 77.415415 
z
" clip-path="url(#p10da72513a)" style="fill: #ff6b6b; stroke: #dd0000; stroke-width: 0.8"/>
   </g>
  </g>
 </g>
 <defs>
  <clipPath id="p10da72513a">
   <rect x="0" y="0" width="165.167067" height="108"/>
  </clipPath>
 </defs>
</svg>
