<?xml version="1.0" encoding="utf-8" standalone="no"?>
<!DOCTYPE svg PUBLIC "-//W3C//DTD SVG 1.1//EN"
  "http://www.w3.org/Graphics/SVG/1.1/DTD/svg11.dtd">
<svg xmlns:xlink="http://www.w3.org/1999/xlink" width="172.175682pt" height="108pt" viewBox="0 0 172.175682 108" xmlns="http://www.w3.org/2000/svg" version="1.1">
 <metadata>
  <rdf:RDF xmlns:dc="http://purl.org/dc/elements/1.1/" xmlns:cc="http://creativecommons.org/ns#" xmlns:rdf="http://www.w3.org/1999/02/22-rdf-syntax-ns#">
   <cc:Work>
    <dc:type rdf:resource="http://purl.org/dc/dcmitype/StillImage"/>
    <dc:date>2025-09-05T15:49:28.437591</dc:date>
    <dc:format>image/svg+xml</dc:format>
    <dc:creator>
     <cc:Agent>
      <dc:title>Matplotlib v3.10.3, https://matplotlib.org/</dc:title>
     </cc:Agent>
    </dc:creator>
   </cc:Work>
  </rdf:RDF>
 </metadata>
 <defs>
  <style type="text/css">*{stroke-linejoin: round; stroke-linecap: butt}</style>
 </defs>
 <g id="figure_1">
  <g id="patch_1">
   <path d="M 0 108 
L 172.175682 108 
L 172.175682 0 
L 0 0 
z
" style="fill: #ffffff"/>
  </g>
  <g id="axes_1">
   <g id="PatchCollection_1">
    <path d="M -77.382969 123.953681 
L -77.319985 122.476659 
L -76.846314 120.833818 
L -73.515196 117.07663 
L -71.534691 115.361661 
L -69.662676 114.704251 
L -68.827094 118.179829 
L -69.996649 119.09812 
L -71.211644 119.094333 
L -71.048335 120.547095 
L -70.140908 120.438842 
L -71.14998 122.164138 
L -70.41529 122.473766 
L -68.644555 121.058859 
L -66.401243 122.493448 
L -65.124767 122.19896 
L -64.024422 122.878785 
L -63.611065 124.919767 
L -62.535615 126.026181 
L -60.789205 126.393353 
L -59.594383 125.165053 
L -59.582881 124.070365 
L -57.93359 123.021106 
L -58.004873 121.37984 
L -56.087236 117.454584 
L -55.584489 114.51423 
L -54.675931 115.374231 
L -54.219199 115.1562 
L -54.457746 114.324217 
L -52.059614 111.589025 
L -42.990963 108.273934 
L -39.093464 105.279838 
L -35.311373 100.946531 
L -34.140315 96.45349 
L -32.789541 96.740411 
L -33.296996 95.157436 
L -33.031862 93.666819 
L -35.782628 90.502385 
L -33.640209 90.777945 
L -32.638108 89.899025 
L -30.643539 91.220057 
L -29.849441 90.934653 
L -29.601647 91.975591 
L -28.518658 92.174687 
L -26.881241 93.660762 
L -25.777693 96.807785 
L -24.392033 96.944049 
L -22.788379 98.552763 
L -21.17831 98.879809 
L -20.16094 100.511993 
L -20.407785 101.945827 
L -19.090767 102.802041 
L -17.941202 102.787655 
L -17.343036 104.873303 
L -17.975898 105.899856 
L -16.061093 107.451034 
L -14.589065 107.027849 
L -14.433676 107.427565 
L -13.936592 106.782563 
L -11.993119 107.637267 
L -10.52147 107.341264 
L -8.859356 106.709886 
L -7.381292 105.304823 
L -5.865138 105.968746 
L -5.571335 106.643267 
L -5.267344 106.204187 
L -5.007113 107.089927 
L -1.882583 105.781757 
L 0.205712 106.740174 
L 0.636235 107.637267 
L 1.139734 107.30568 
L 2.753197 107.902228 
L 2.701525 108.420049 
L 3.363238 108.336773 
L 4.264447 109.237654 
L 4.590494 108.915149 
L 4.994429 109.567718 
L 0.004693 117.388719 
L 1.779953 118.095037 
L 3.092067 117.734685 
L 5.415522 120.310144 
L 5.440037 121.289752 
L 4.348932 120.893061 
L 3.86184 121.497184 
L 2.949691 120.033823 
L 1.091083 120.41007 
L 0.64227 119.832449 
L -0.711335 120.299545 
L -1.707211 121.807573 
L -3.868481 121.735651 
L -4.586961 122.348856 
L -8.556875 122.782639 
L -12.051958 124.800914 
L -13.939985 126.753705 
L -15.93362 127.277576 
L -16.363946 131.08398 
L -18.245945 134.202993 
L -17.611192 137.122903 
L -22.074993 140.135171 
L -22.461194 141.713597 
L -21.736875 143.191344 
L -23.705987 143.570624 
L -23.424446 144.246661 
L -23.965663 144.940871 
L -21.730088 146.732787 
L -22.261306 147.847911 
L -21.407996 148.385407 
L -20.47963 150.914683 
L -19.133761 151.798907 
L -19.091146 152.667236 
L -16.357918 155.50236 
L -16.328118 156.594008 
L -18.101496 158.605471 
L -15.169883 158.619095 
L -11.516017 159.510138 
L -10.42303 162.034866 
L -10.662146 162.975117 
L -4.123063 162.885784 
L 1.531028 158.765965 
L 0.805389 159.753901 
L 1.40789 160.79711 
L 0.702993 161.84864 
L 0.681871 170.338104 
L 1.46446 169.805905 
L 3.250471 170.733279 
L 5.68292 169.668117 
L 8.445188 169.909617 
L 14.96542 181.264487 
L 14.16868 182.126751 
L 14.367815 182.788409 
L 12.799989 183.941381 
L 12.874476 188.581672 
L 11.919529 189.791425 
L 13.650284 193.634168 
L 12.586899 194.034638 
L 12.732107 195.009711 
L 10.948358 196.439759 
L 10.707731 197.732033 
L 9.956635 198.104494 
L 9.856122 199.424779 
L 11.58009 201.267419 
L 9.522529 204.145687 
L 11.311744 208.311688 
L 12.79207 208.421458 
L 13.876198 209.292812 
L 12.457535 210.209594 
L 12.390405 211.792562 
L 11.330033 212.22105 
L 9.541388 214.844201 
L 8.115558 215.567176 
L 7.796678 216.319677 
L 8.846861 216.911684 
L 8.938163 217.918613 
L 6.458575 219.273721 
L 6.945667 221.397978 
L 5.579049 223.368554 
L 2.481932 224.0067 
L -4.741446 219.319567 
L -4.856971 217.140241 
L -5.690867 216.292597 
L -10.096428 214.349321 
L -12.446069 212.116349 
L -14.936467 211.49283 
L -19.600098 209.030356 
L -21.646332 208.674728 
L -24.171075 206.591138 
L -31.48458 202.932893 
L -34.826397 198.959323 
L -37.921427 196.989824 
L -39.516163 193.873433 
L -40.547246 193.459742 
L -40.563879 191.504548 
L -41.302809 191.559733 
L -41.06967 190.780533 
L -40.281221 191.141105 
L -39.750477 188.860264 
L -40.041229 187.527681 
L -44.259513 181.314662 
L -44.199718 180.374924 
L -47.002507 178.110278 
L -47.265329 174.993888 
L -50.449822 172.40016 
L -50.066126 171.468449 
L -50.619743 169.728093 
L -54.355014 163.746099 
L -54.698672 161.423675 
L -55.723961 160.117278 
L -56.051292 158.261864 
L -56.868482 157.584317 
L -56.654553 156.997679 
L -57.061042 157.397937 
L -57.484697 156.902339 
L -57.107343 156.548294 
L -58.602405 153.962082 
L -58.566117 152.740411 
L -59.886639 151.474674 
L -60.218554 149.877093 
L -63.723241 146.203752 
L -64.794772 142.910972 
L -67.654175 139.061828 
L -75.874055 133.888026 
L -76.01568 132.778403 
L -75.468142 132.07311 
L -74.480944 132.542331 
L -73.869933 131.074568 
L -74.421776 129.707411 
L -76.367899 127.834366 
L -76.107318 126.841625 
L -75.381737 126.471509 
z
" clip-path="url(#p1e0e5e0998)" style="fill: #eeeeee; stroke: #000000; stroke-width: 0.3"/>
    <path d="M -74.009828 136.80691 
L -73.773288 136.430113 
L -73.748576 137.115966 
L -73.925612 137.12031 
z
" clip-path="url(#p1e0e5e0998)" style="fill: #eeeeee; stroke: #000000; stroke-width: 0.3"/>
    <path d="M -40.035551 194.245351 
L -39.709577 194.345767 
L -39.738223 194.395818 
z
" clip-path="url(#p1e0e5e0998)" style="fill: #eeeeee; stroke: #000000; stroke-width: 0.3"/>
    <path d="M -41.859601 191.162991 
L -41.761664 190.936332 
L -41.649342 191.163358 
z
" clip-path="url(#p1e0e5e0998)" style="fill: #eeeeee; stroke: #000000; stroke-width: 0.3"/>
    <path d="M -47.453196 178.267557 
L -47.140614 178.316604 
L -47.050859 178.432856 
z
" clip-path="url(#p1e0e5e0998)" style="fill: #eeeeee; stroke: #000000; stroke-width: 0.3"/>
    <path d="M 481.446489 -264.43569 
L 481.474406 -265.716106 
L 482.940843 -266.517559 
L 487.244256 -267.273407 
L 488.136648 -266.517559 
L 488.440158 -267.276388 
L 490.084778 -266.907107 
L 490.592007 -268.072773 
L 492.676148 -268.294817 
L 492.743264 -267.722565 
L 493.685256 -268.287661 
L 493.436988 -267.472203 
L 494.293158 -267.922555 
L 496.671008 -265.634141 
L 499.344339 -267.022451 
L 499.240396 -266.517559 
L 500.091516 -266.167652 
L 501.269004 -266.667476 
L 501.794946 -265.667527 
L 501.441545 -266.617403 
L 502.047966 -267.022451 
L 502.791581 -267.121996 
L 503.139925 -266.417113 
L 506.347211 -266.617403 
L 504.908981 -267.378321 
L 504.549056 -268.127013 
L 505.242181 -269.477169 
L 504.617354 -269.442896 
L 504.494413 -270.811832 
L 504.946991 -270.882173 
L 502.990549 -272.041275 
L 502.492823 -273.119321 
L 502.82246 -273.770256 
L 502.123985 -274.534447 
L 504.52173 -273.992 
L 507.029651 -274.324921 
L 507.287123 -273.801848 
L 506.714267 -273.318417 
L 508.052714 -271.760815 
L 509.384336 -272.103865 
L 514.646067 -271.282152 
L 519.249713 -272.5417 
L 519.847222 -272.846009 
L 518.122415 -272.629627 
L 516.806827 -273.149125 
L 517.969171 -274.572595 
L 525.160626 -276.401421 
L 527.348711 -278.127713 
L 528.454631 -277.965578 
L 527.498385 -278.590877 
L 528.000856 -279.27043 
L 527.598161 -279.520192 
L 527.783474 -282.91913 
L 534.652859 -284.521363 
L 535.285262 -283.59541 
L 535.126858 -282.747905 
L 536.586442 -281.853837 
L 539.086211 -282.261881 
L 540.121119 -280.41508 
L 542.582425 -280.045646 
L 543.228863 -278.739747 
L 545.46538 -279.075495 
L 546.88348 -278.448665 
L 546.359239 -277.494036 
L 546.973995 -276.995904 
L 546.402234 -276.372099 
L 550.154905 -276.441744 
L 551.39348 -277.737044 
L 551.804575 -277.579201 
L 551.162662 -276.249833 
L 551.719338 -275.920524 
L 551.637873 -275.047654 
L 554.631712 -274.294398 
L 556.068671 -272.885168 
L 558.186758 -273.254976 
L 559.751191 -272.463112 
L 562.977365 -272.639882 
L 565.247447 -270.39412 
L 566.711557 -270.744253 
L 567.646893 -270.018627 
L 569.338806 -269.9997 
L 570.33223 -270.467932 
L 571.97058 -269.507244 
L 576.096635 -268.926972 
L 573.249888 -266.410565 
L 572.815402 -264.406112 
L 571.610778 -262.855879 
L 571.869505 -261.696469 
L 571.072203 -259.761851 
L 571.61342 -258.863073 
L 570.099149 -257.735247 
L 567.14151 -258.163354 
L 566.363067 -257.175038 
L 567.603146 -256.994481 
L 564.894433 -254.736794 
L 563.268526 -254.171852 
L 563.170465 -252.82886 
L 560.902266 -251.52978 
L 560.433843 -250.328165 
L 561.023711 -249.969139 
L 560.724252 -249.109519 
L 559.708196 -248.720395 
L 559.737616 -248.211664 
L 561.062181 -248.356256 
L 562.090301 -249.014509 
L 561.600756 -249.566771 
L 562.002042 -250.003016 
L 563.562701 -250.541837 
L 565.782249 -250.289746 
L 565.514472 -249.786875 
L 566.078694 -249.229888 
L 565.626108 -248.366482 
L 567.497546 -246.708559 
L 565.882573 -245.984829 
L 565.847117 -245.191448 
L 568.50907 -242.941138 
L 567.741188 -241.496323 
L 564.436942 -240.688945 
L 565.478265 -239.255865 
L 567.388166 -238.627893 
L 567.738918 -237.622927 
L 567.04345 -237.610431 
L 566.137526 -236.518021 
L 566.736451 -235.802239 
L 566.359294 -235.332117 
L 567.210903 -234.377106 
L 569.752163 -233.523918 
L 572.121445 -233.896005 
L 572.371873 -233.099598 
L 570.824037 -231.621288 
L 570.813389 -230.882359 
L 568.442969 -230.077625 
L 568.350236 -229.339641 
L 567.059674 -229.237731 
L 566.562955 -228.413842 
L 565.374183 -228.26895 
L 564.350559 -227.251173 
L 565.09851 -227.281021 
L 564.999449 -226.757882 
L 562.777609 -225.946936 
L 561.448045 -226.078285 
L 561.352247 -225.544664 
L 559.606895 -226.263208 
L 558.991468 -225.609906 
L 557.65816 -226.599197 
L 555.272041 -226.862964 
L 554.886636 -227.885312 
L 552.98796 -227.738845 
L 552.930391 -228.279805 
L 554.391486 -228.799597 
L 552.952366 -229.373042 
L 553.112726 -228.425847 
L 551.777549 -228.368619 
L 551.687072 -227.785013 
L 550.972161 -228.375174 
L 550.859905 -229.123281 
L 550.510671 -229.52326 
L 550.860503 -228.376669 
L 551.427987 -227.818539 
L 545.098075 -229.236537 
L 538.975123 -226.060237 
L 538.448298 -222.564435 
L 539.463719 -221.117262 
L 537.659068 -221.401033 
L 535.677505 -220.439972 
L 532.86922 -221.096327 
L 530.81298 -220.510752 
L 528.743916 -221.573071 
L 528.815579 -222.423798 
L 526.679378 -222.317815 
L 526.046515 -223.147527 
L 522.180698 -224.048217 
L 521.03792 -224.097997 
L 520.945144 -222.970384 
L 515.963706 -222.975306 
L 513.892001 -224.127897 
L 512.094867 -223.61614 
L 510.703544 -224.889671 
L 507.855286 -225.323454 
L 506.861862 -226.081259 
L 505.613113 -225.611701 
L 506.004597 -227.063899 
L 504.410744 -227.090774 
L 503.136721 -228.023824 
L 504.125276 -228.209164 
L 505.469072 -229.530409 
L 507.072121 -236.679387 
L 507.588253 -237.48084 
L 508.622898 -237.509751 
L 507.692489 -238.307029 
L 507.049255 -237.202159 
L 508.327118 -244.099288 
L 510.655966 -242.319648 
L 511.022431 -240.916439 
L 512.345734 -239.161828 
L 511.896709 -240.111704 
L 512.644185 -239.916483 
L 511.460165 -240.657133 
L 510.442146 -243.425997 
L 507.144579 -245.131128 
L 507.753963 -245.840186 
L 509.043116 -245.185676 
L 507.842163 -246.290238 
L 508.594099 -247.540249 
L 507.410962 -248.534542 
L 508.141214 -249.473094 
L 507.197142 -249.338076 
L 503.144377 -250.878391 
L 502.308707 -252.323323 
L 500.78435 -253.262175 
L 501.718919 -254.840037 
L 499.891359 -255.624504 
L 500.445509 -255.810481 
L 500.479358 -256.567231 
L 503.643292 -256.124628 
L 501.577265 -256.9228 
L 499.619334 -256.385714 
L 497.695552 -256.779138 
L 498.467682 -256.829811 
L 497.590426 -257.388051 
L 498.791379 -257.68401 
L 498.040341 -258.178773 
L 498.995098 -258.288455 
L 497.038656 -258.3886 
L 497.276823 -258.456552 
L 497.44135 -258.638362 
L 495.687437 -258.237489 
L 495.015098 -258.671148 
L 496.239806 -258.619288 
L 496.625269 -259.007943 
L 496.659126 -259.144148 
L 496.494607 -259.288704 
L 494.940851 -258.942965 
L 494.537566 -259.443089 
L 494.791177 -258.688434 
L 493.45303 -258.966814 
L 493.391556 -258.083697 
L 492.888779 -259.265755 
L 493.491339 -259.943514 
L 492.94283 -260.048127 
L 492.716537 -259.388849 
L 491.738017 -259.688683 
L 492.290087 -259.643379 
L 491.738017 -259.788828 
L 492.290087 -260.347969 
L 491.094484 -259.741737 
L 486.089626 -261.348217 
L 485.702674 -260.538714 
L 484.340764 -260.49341 
L 483.882244 -261.727328 
L 481.74019 -262.203017 
L 484.971532 -262.750826 
L 484.28642 -263.607713 
L 482.985684 -263.203559 
L 482.483214 -264.008293 
L 483.064383 -264.446127 
L 483.291865 -264.072671 
L 485.088539 -264.018131 
L 485.686049 -264.158211 
L 483.742962 -264.362375 
L 484.938572 -265.066958 
z
M 530.461476 -221.261927 
L 530.840888 -221.208177 
L 530.527854 -221.485635 
z
" clip-path="url(#p1e0e5e0998)" style="fill: #eeeeee; stroke: #000000; stroke-width: 0.3"/>
    <path d="M 117.645762 72.646426 
L 119.394996 71.492692 
L 120.894182 68.787781 
L 120.595102 66.778215 
L 122.114271 64.375746 
L 122.174241 63.143659 
L 120.377108 61.29231 
L 119.169083 58.983716 
L 118.584119 53.772615 
L 119.864179 51.40781 
L 121.690411 49.864441 
L 122.617909 47.606527 
L 130.189987 50.090353 
L 133.894138 53.824307 
L 134.695958 53.565601 
L 134.248131 55.079093 
L 135.040448 53.974224 
L 136.554106 55.3065 
L 137.092521 57.06111 
L 136.395228 57.943327 
L 137.196457 57.515931 
L 137.396023 55.583686 
L 138.181808 55.898719 
L 139.29456 59.270834 
L 134.139801 66.601065 
L 133.746055 68.463387 
L 131.692836 72.304239 
L 129.573983 73.767226 
L 127.475128 73.602564 
L 127.725557 73.197926 
L 126.92335 72.475332 
L 125.553536 73.226698 
L 123.852952 72.335655 
L 121.32242 74.199266 
z
" clip-path="url(#p1e0e5e0998)" style="fill: #eeeeee; stroke: #000000; stroke-width: 0.3"/>
    <path d="M 578.642143 -220.718923 
L 579.448123 -221.105491 
L 579.810428 -222.199029 
L 582.793202 -223.318496 
L 584.065431 -222.899143 
L 584.463366 -225.308863 
L 585.319836 -225.208718 
L 585.16541 -222.64878 
L 585.787267 -222.084578 
L 586.017122 -219.030185 
L 584.875563 -217.612069 
L 584.86428 -215.8065 
L 584.065431 -215.220236 
L 584.491881 -214.88911 
L 583.470892 -213.915084 
L 583.561763 -213.360419 
L 580.41328 -214.742767 
L 581.368927 -215.720067 
L 579.416046 -216.124815 
L 580.513063 -217.274981 
L 579.117887 -217.229977 
L 578.913576 -217.729501 
L 580.07176 -218.3712 
L 578.763901 -219.484412 
L 579.654221 -219.955918 
z
" clip-path="url(#p1e0e5e0998)" style="fill: #eeeeee; stroke: #000000; stroke-width: 0.3"/>
    <path d="M 69.446075 -19.062109 
L 71.928751 -18.555129 
L 71.504089 -17.742952 
L 72.431528 -16.24556 
L 71.992305 -15.850943 
L 72.00745 -16.348086 
L 70.540121 -16.280134 
L 70.27522 -16.64554 
L 71.07704 -17.000215 
L 69.883218 -17.746827 
z
" clip-path="url(#p1e0e5e0998)" style="fill: #eeeeee; stroke: #000000; stroke-width: 0.3"/>
    <path d="M 919.30298 243.724923 
L 919.755566 242.860579 
L 921.878908 242.589956 
L 923.894153 244.657212 
L 923.584111 246.016312 
L 921.854553 246.202296 
L 920.209335 245.495326 
z
" clip-path="url(#p1e0e5e0998)" style="fill: #eeeeee; stroke: #000000; stroke-width: 0.3"/>
    <path d="M 844.984191 182.699618 
L 845.336994 182.324675 
L 846.138814 182.879039 
L 846.034279 184.680441 
L 845.383324 184.779392 
L 845.130304 184.165418 
L 845.670193 184.20476 
z
" clip-path="url(#p1e0e5e0998)" style="fill: #eeeeee; stroke: #000000; stroke-width: 0.3"/>
    <path d="M 67.076247 -29.601675 
L 67.672267 -31.269552 
L 68.378763 -30.066333 
L 69.854112 -29.364431 
L 67.674938 -28.993363 
z
" clip-path="url(#p1e0e5e0998)" style="fill: #eeeeee; stroke: #000000; stroke-width: 0.3"/>
    <path d="M 65.228491 -29.79809 
L 65.662664 -30.187046 
L 67.021604 -29.602869 
L 66.917069 -27.756764 
L 65.975968 -27.138908 
z
" clip-path="url(#p1e0e5e0998)" style="fill: #eeeeee; stroke: #000000; stroke-width: 0.3"/>
    <path d="M 504.892947 -249.100231 
L 506.700904 -248.771786 
L 506.895719 -248.400117 
L 505.269207 -248.777148 
z
" clip-path="url(#p1e0e5e0998)" style="fill: #eeeeee; stroke: #000000; stroke-width: 0.3"/>
    <path d="M 68.624652 -27.012833 
L 69.089711 -27.579123 
L 69.631979 -27.013727 
L 69.0416 -26.586624 
z
" clip-path="url(#p1e0e5e0998)" style="fill: #eeeeee; stroke: #000000; stroke-width: 0.3"/>
    <path d="M 846.686432 183.479309 
L 846.736323 183.029257 
L 846.736323 183.479309 
z
" clip-path="url(#p1e0e5e0998)" style="fill: #eeeeee; stroke: #000000; stroke-width: 0.3"/>
    <path d="M 585.265193 -222.698853 
L 585.451688 -222.498863 
L 585.41308 -222.491414 
z
" clip-path="url(#p1e0e5e0998)" style="fill: #eeeeee; stroke: #000000; stroke-width: 0.3"/>
    <path d="M 561.250923 -225.279059 
L 561.316258 -225.347311 
L 561.878728 -225.300821 
z
" clip-path="url(#p1e0e5e0998)" style="fill: #eeeeee; stroke: #000000; stroke-width: 0.3"/>
    <path d="M 505.994116 -247.645462 
L 507.142207 -247.269025 
L 507.422544 -245.894727 
z
" clip-path="url(#p1e0e5e0998)" style="fill: #eeeeee; stroke: #000000; stroke-width: 0.3"/>
    <path d="M 499.493416 -254.823945 
L 500.191299 -254.759266 
L 500.610619 -253.920559 
z
" clip-path="url(#p1e0e5e0998)" style="fill: #eeeeee; stroke: #000000; stroke-width: 0.3"/>
    <path d="M 498.856415 -252.549242 
L 499.47471 -252.531062 
L 499.688231 -252.364452 
z
" clip-path="url(#p1e0e5e0998)" style="fill: #eeeeee; stroke: #000000; stroke-width: 0.3"/>
    <path d="M 492.440061 -257.388051 
L 493.863738 -256.79255 
L 492.721887 -256.867366 
z
" clip-path="url(#p1e0e5e0998)" style="fill: #eeeeee; stroke: #000000; stroke-width: 0.3"/>
    <path d="M 478.786814 -265.262772 
L 479.086163 -265.427295 
L 479.114079 -265.181408 
z
" clip-path="url(#p1e0e5e0998)" style="fill: #eeeeee; stroke: #000000; stroke-width: 0.3"/>
    <path d="M 70.379156 -29.748318 
L 70.762254 -30.034441 
L 70.547245 -29.725069 
z
" clip-path="url(#p1e0e5e0998)" style="fill: #eeeeee; stroke: #000000; stroke-width: 0.3"/>
    <path d="M 66.700279 -26.506746 
L 66.815213 -26.63819 
L 66.79888 -26.498997 
z
" clip-path="url(#p1e0e5e0998)" style="fill: #eeeeee; stroke: #000000; stroke-width: 0.3"/>
    <path d="M 66.389055 -26.436113 
L 66.551502 -26.486186 
L 66.467753 -26.390509 
z
" clip-path="url(#p1e0e5e0998)" style="fill: #eeeeee; stroke: #000000; stroke-width: 0.3"/>
    <path d="M 92.461733 59.127934 
L 94.129503 55.619043 
L 93.537752 54.308793 
L 95.227775 53.015954 
L 98.194463 52.8706 
L 98.13223 51.809042 
L 98.891814 51.72028 
L 97.816175 50.660231 
L 99.046664 48.98133 
L 99.494805 46.568958 
L 100.558512 45.652198 
L 108.006715 47.167799 
L 108.28633 48.105069 
L 107.89605 46.604886 
L 108.67542 45.913049 
L 112.386016 46.010132 
L 113.759035 46.409562 
L 113.890172 47.049979 
L 114.213868 46.595452 
L 114.764158 46.795149 
L 115.83771 46.795149 
L 113.670535 46.043783 
L 114.511065 45.78748 
L 121.868309 46.891726 
L 122.235956 47.599934 
L 121.690411 49.305007 
L 118.584119 53.772615 
L 119.55378 60.081048 
L 122.217988 63.236018 
L 120.595102 66.778215 
L 120.894182 68.787781 
L 118.256751 72.544603 
L 116.997434 72.657025 
L 117.004221 71.770523 
L 115.711718 71.75955 
L 115.136564 70.575536 
L 112.498754 71.239839 
L 111.921709 71.885215 
L 109.551865 72.128985 
L 107.751148 71.151641 
L 106.468447 73.159698 
L 108.136217 74.667154 
L 107.876738 76.111024 
L 102.59282 74.901461 
L 99.5854 69.367673 
L 98.765093 68.837744 
L 97.990423 64.818803 
L 96.76543 65.228737 
L 95.497814 64.884477 
L 95.540809 63.927005 
L 94.185321 62.8592 
L 92.708388 60.476603 
z
" clip-path="url(#p1e0e5e0998)" style="fill: #eeeeee; stroke: #000000; stroke-width: 0.3"/>
    <path d="M 68.152507 46.135585 
L 70.160658 44.369782 
L 69.500828 41.624562 
L 70.100315 40.493543 
L 71.530859 40.377144 
L 71.722449 39.765456 
L 73.234837 40.118234 
L 75.592229 38.862305 
L 76.130622 38.015555 
L 75.631078 37.150251 
L 74.346684 37.492819 
L 73.759837 37.012098 
L 73.954258 35.993874 
L 73.0142 34.563446 
L 74.50905 32.454328 
L 75.611088 32.379381 
L 79.592132 29.291974 
L 78.193066 27 
L 79.530023 28.382348 
L 82.478947 30.132784 
L 80.088333 28.48368 
L 80.248401 28.130792 
L 84.879663 30.987583 
L 89.36868 35.657101 
L 89.403128 38.332969 
L 87.983006 42.981325 
L 88.635158 42.680897 
L 89.574479 39.717104 
L 90.664657 39.202081 
L 92.901524 39.937486 
L 95.872665 42.607473 
L 96.381105 43.790703 
L 96.660487 43.254438 
L 97.257726 43.446026 
L 99.020236 45.113559 
L 99.062487 48.381925 
L 97.79128 50.740665 
L 98.855987 51.822293 
L 98.13223 51.809042 
L 98.12129 52.913186 
L 95.227775 53.015954 
L 94.035215 53.627269 
L 93.48759 54.555024 
L 94.129503 55.619043 
L 92.448909 59.279529 
L 94.185321 62.8592 
L 95.540809 63.927005 
L 95.461986 64.853815 
L 96.76543 65.228737 
L 97.990423 64.818803 
L 98.765093 68.837744 
L 99.5854 69.367673 
L 102.392933 74.81913 
L 104.023175 75.463941 
L 101.653711 75.962264 
L 100.159802 75.632764 
L 99.478668 74.879127 
L 97.91009 75.203712 
L 96.145762 77.16804 
L 93.052352 77.543532 
L 92.744216 78.575197 
L 90.603876 77.95726 
L 89.194074 79.14638 
L 89.155604 80.403452 
L 87.850658 80.302384 
L 86.856103 81 
L 85.889085 80.089275 
L 83.747607 79.523198 
L 81.771131 77.211198 
L 80.675501 76.813372 
L 80.926499 76.208495 
L 80.106944 76.046104 
L 80.231403 73.104051 
L 79.053177 72.402274 
L 78.345638 69.952487 
L 78.570799 67.398613 
L 79.647008 65.099475 
L 79.34698 63.450452 
L 80.636279 62.655745 
L 81.793573 60.829571 
L 80.254976 58.901385 
L 80.632506 57.594541 
L 77.178542 56.520677 
L 78.109353 55.073028 
L 78.481227 52.641216 
L 77.384845 51.278923 
L 72.9465 51.581174 
z
" clip-path="url(#p1e0e5e0998)" style="fill: #eeeeee; stroke: #000000; stroke-width: 0.3"/>
    <path d="M 89.581902 39.266459 
L 89.680495 38.829218 
L 90.508151 38.66649 
z
" clip-path="url(#p1e0e5e0998)" style="fill: #eeeeee; stroke: #000000; stroke-width: 0.3"/>
    <path d="M -23.965663 144.940871 
L -23.424446 144.246661 
L -23.705987 143.570624 
L -21.736875 143.191344 
L -22.461194 141.713597 
L -22.074993 140.135171 
L -17.611192 137.122903 
L -18.245945 134.202993 
L -16.363946 131.08398 
L -15.93362 127.277576 
L -13.939985 126.753705 
L -12.051958 124.800914 
L -8.556875 122.782639 
L -4.586961 122.348856 
L -3.868481 121.735651 
L -1.707211 121.807573 
L -0.711335 120.299545 
L 0.64227 119.832449 
L 1.091083 120.41007 
L 2.949691 120.033823 
L 3.86184 121.497184 
L 4.348932 120.893061 
L 5.0923 121.482043 
L 5.56827 121.116388 
L 9.745618 98.349119 
L 8.074826 95.058258 
L 8.137811 93.528278 
L 4.866007 90.85895 
L 4.966709 85.377967 
L 9.171777 84.318109 
L 10.492948 85.158428 
L 11.657781 84.923747 
L 11.548787 83.329419 
L 10.553101 82.07954 
L 6.441372 81.925858 
L 6.412332 77.177504 
L 8.705616 76.701141 
L 18.767501 77.077769 
L 17.914001 76.285904 
L 18.556673 74.9272 
L 20.478645 76.93128 
L 24.158529 74.024613 
L 26.402586 77.16199 
L 26.629258 81.071915 
L 28.169548 80.731252 
L 32.475508 84.222725 
L 33.57529 84.330605 
L 36.413929 82.550416 
L 37.504282 82.481153 
L 38.081137 83.366131 
L 37.583294 84.620932 
L 38.221062 84.860908 
L 39.466425 83.018275 
L 40.372531 82.919097 
L 40.85623 81.431513 
L 43.027317 80.377331 
L 43.818583 80.547663 
L 46.167677 78.643706 
L 46.576889 79.681422 
L 48.474346 77.800553 
L 48.885448 75.568979 
L 53.445982 73.942099 
L 53.731486 73.081725 
L 53.642483 71.955621 
L 48.802663 71.583916 
L 49.170573 69.799566 
L 47.525807 66.8032 
L 47.671387 63.355252 
L 44.460685 60.584666 
L 43.218906 58.844229 
L 43.375237 58.30332 
L 44.849155 59.515915 
L 48.08211 59.576858 
L 48.877901 61.24727 
L 51.549656 60.780363 
L 52.724115 61.45205 
L 53.884234 60.688949 
L 57.258251 63.603563 
L 58.278825 62.87434 
L 58.15738 60.234913 
L 59.655434 60.109812 
L 60.625094 59.044849 
L 62.628531 59.725237 
L 64.565968 59.286722 
L 65.52771 58.582103 
L 67.018028 58.51908 
L 67.385004 57.443136 
L 68.909077 57.104737 
L 68.744637 56.571966 
L 71.213673 56.468063 
L 71.808255 55.196803 
L 73.104904 54.641889 
L 74.026103 53.430055 
L 72.9465 51.581174 
L 75.069499 51.785574 
L 76.788562 51.104424 
L 78.469535 52.432275 
L 78.109353 55.073028 
L 77.178542 56.520677 
L 80.632506 57.594541 
L 80.254976 58.901385 
L 81.793573 60.829571 
L 80.636279 62.655745 
L 79.34698 63.450452 
L 79.647008 65.099475 
L 78.392026 68.756746 
L 78.977938 72.262224 
L 80.231403 73.104051 
L 80.106944 76.046104 
L 80.926499 76.208495 
L 80.675501 76.813372 
L 81.771131 77.211198 
L 83.747607 79.523198 
L 85.889085 80.089275 
L 86.856103 81 
L 87.850658 80.302384 
L 89.155604 80.403452 
L 89.194074 79.14638 
L 90.603876 77.95726 
L 92.744216 78.575197 
L 93.052352 77.543532 
L 96.145762 77.16804 
L 97.91009 75.203712 
L 99.478668 74.879127 
L 100.159802 75.632764 
L 101.653711 75.962264 
L 104.023175 75.463941 
L 107.876738 76.111024 
L 108.136217 74.667154 
L 106.468447 73.159698 
L 107.751148 71.151641 
L 109.551865 72.128985 
L 111.921709 71.885215 
L 112.498754 71.239839 
L 115.136564 70.575536 
L 115.711718 71.75955 
L 117.004221 71.770523 
L 116.997434 72.657025 
L 121.151778 74.225614 
L 123.852952 72.335655 
L 125.553536 73.226698 
L 126.92335 72.475332 
L 127.725557 73.197926 
L 127.475128 73.602564 
L 129.728993 73.75284 
L 132.424132 71.339391 
L 134.139801 66.601065 
L 138.315456 60.526184 
L 139.420771 59.889884 
L 139.759393 58.673949 
L 140.843265 60.902944 
L 140.041438 58.51856 
L 140.261878 57.155483 
L 142.667184 59.809069 
L 142.745955 62.962458 
L 143.448291 61.248976 
L 143.354602 64.954905 
L 143.909007 67.450891 
L 146.372269 73.778616 
L 145.545504 73.851037 
L 145.639346 74.516578 
L 146.808091 74.265424 
L 147.924835 76.38832 
L 150.128531 76.386723 
L 151.690388 77.077512 
L 152.183545 80.107148 
L 150.236963 80.740782 
L 152.150433 81.080192 
L 148.021049 84.821881 
L 145.559458 88.444359 
L 144.178543 88.803802 
L 143.437307 89.924164 
L 141.645085 90.268408 
L 142.198045 90.618916 
L 140.720908 93.251275 
L 139.797031 93.532629 
L 140.145972 93.72815 
L 138.822371 95.496173 
L 138.809606 97.212328 
L 137.248728 98.316897 
L 137.210711 99.497761 
L 136.252983 99.977618 
L 134.995308 99.547833 
L 131.564998 101.405863 
L 134.695958 100.806788 
L 134.833759 102.103296 
L 135.244467 102.066335 
L 141.962841 98.705552 
L 144.006601 97.111589 
L 144.051143 96.442774 
L 145.202204 96.371833 
L 145.296637 97.342878 
L 144.349602 97.952084 
L 145.345638 98.707932 
L 145.350988 100.206518 
L 146.551641 102.416249 
L 145.948789 102.416249 
L 145.581879 103.583827 
L 144.908707 103.25114 
L 145.168441 104.008161 
L 146.873587 102.974643 
L 147.797136 104.171746 
L 148.096485 103.86655 
L 148.295453 104.871567 
L 149.048805 103.667359 
L 151.498288 103.061816 
L 152.283774 103.520811 
L 152.150433 104.976481 
L 152.69835 105.126691 
L 152.449483 103.616188 
L 153.693795 103.66626 
L 154.301989 104.420915 
L 153.849403 103.567309 
L 155.548082 102.716677 
L 155.335452 103.051092 
L 155.313177 103.28178 
L 155.454831 103.456433 
L 155.924641 103.64003 
L 155.846833 104.271891 
L 153.784368 109.299365 
L 154.778923 108.938134 
L 156.934939 103.955964 
L 158.879331 101.403585 
L 159.676458 101.105553 
L 158.385378 103.211711 
L 161.131919 99.81894 
L 162.800412 101.861877 
L 162.40217 100.756715 
L 163.55234 100.456881 
L 162.302394 100.390115 
L 162.403242 99.071222 
L 162.745171 98.6126 
L 162.82192 99.188507 
L 163.484633 99.308202 
L 164.299816 97.842402 
L 163.797346 97.33036 
L 164.558186 97.147356 
L 164.902668 96.287788 
L 164.802294 95.412721 
L 165.649845 94.532877 
L 166.202805 95.412721 
L 167.368383 94.742499 
L 167.320017 93.825673 
L 167.906827 95.227329 
L 168.768639 94.768935 
L 168.958915 93.921482 
L 169.599864 95.28754 
L 170.356244 95.63804 
L 169.853774 94.028585 
L 170.306951 94.028585 
L 170.202416 94.182971 
L 170.198256 94.529904 
L 170.252009 94.678327 
L 171.079074 94.028585 
L 171.35763 94.637791 
L 171.77903 94.458369 
L 171.502853 94.933457 
L 172.050763 94.678327 
L 172.20489 95.537895 
L 172.658957 94.562089 
L 172.807442 96.037426 
L 173.450384 94.78324 
L 173.792495 95.798988 
L 173.494933 96.021926 
L 173.60897 96.287788 
L 174.54443 94.898884 
L 174.809623 96.287788 
L 175.00919 95.688112 
L 175.307941 96.114915 
L 175.054031 96.592984 
L 175.429999 96.137571 
L 175.496815 95.73461 
L 175.905742 96.008815 
L 175.736179 95.559115 
L 176.154901 96.037426 
L 176.005525 96.538143 
L 175.652431 96.442774 
L 175.141042 96.895807 
L 175.054031 97.147356 
L 177.402278 96.0479 
L 177.056504 97.342878 
L 177.860112 97.072248 
L 178.15263 97.797098 
L 178.356648 97.242733 
L 178.710042 97.69696 
L 178.48718 96.910113 
L 179.061356 96.334279 
L 178.610259 98.352664 
L 179.507111 97.842402 
L 179.457219 98.302591 
L 179.781215 97.547929 
L 180.155103 98.55176 
L 180.673221 97.414229 
L 180.90228 98.852187 
L 181.490397 97.475662 
L 181.255674 98.897492 
L 181.7041 98.496919 
L 181.686876 99.05844 
L 181.903374 99.401791 
L 182.55522 97.999175 
L 182.891331 99.693949 
L 183.852394 98.990487 
L 183.955739 100.056301 
L 184.787854 99.118049 
L 183.860707 100.607098 
L 184.458508 101.011253 
L 185.441189 99.30284 
L 185.659162 100.056301 
L 184.895352 101.113778 
L 185.459603 102.466322 
L 186.630559 100.547489 
L 187.361993 100.152278 
L 188.059877 101.011253 
L 187.672925 101.249691 
L 187.661343 101.411826 
L 188.059877 101.361753 
L 188.784787 100.096836 
L 188.304584 101.811805 
L 189.060964 101.661587 
L 189.011072 101.157295 
L 189.477022 102.316104 
L 189.121256 102.571829 
L 189.953663 102.266032 
L 189.205588 102.96704 
L 190.755483 102.466322 
L 190.306466 103.161961 
L 191.250538 103.11785 
L 190.809235 103.616188 
L 191.557303 104.243874 
L 190.614719 104.621205 
L 191.51187 104.671277 
L 190.057898 106.280739 
L 189.636199 106.181781 
L 189.105812 106.380877 
L 190.261917 106.320081 
L 189.858332 107.280988 
L 190.27409 106.94836 
L 190.277659 107.416299 
L 190.356357 107.481271 
L 190.510484 106.326036 
L 191.750636 105.394941 
L 192.466335 106.781457 
L 192.234401 107.280988 
L 191.393082 107.024663 
L 191.095513 107.199917 
L 191.313194 107.998682 
L 190.332302 108.680615 
L 191.175992 108.278255 
L 190.112242 111.050101 
L 190.57879 112.03425 
L 189.415847 113.103052 
L 189.310422 113.859501 
L 191.959997 111.296288 
L 192.433668 108.361107 
L 193.011275 108.585839 
L 192.984249 107.859195 
L 194.868832 107.376958 
L 194.118684 109.244524 
L 193.559185 109.236181 
L 192.576511 110.270403 
L 193.758751 109.89546 
L 193.658968 110.700187 
L 194.346159 109.826313 
L 194.622935 110.160127 
L 195.680154 108.340846 
L 196.010091 108.986412 
L 197.133535 107.831177 
L 197.155802 108.439797 
L 197.713513 107.831177 
L 197.559387 108.085715 
L 198.46099 108.181685 
L 198.496628 107.528962 
L 199.113142 108.385549 
L 199.411893 107.680967 
L 198.863684 107.230915 
L 199.307074 106.810265 
L 204.607698 108.463639 
L 206.410612 109.845387 
L 207.787959 109.89546 
L 207.969411 110.445656 
L 210.126018 110.471286 
L 209.640779 109.662105 
L 210.894922 109.678886 
L 212.007323 110.751453 
L 214.511092 111.076924 
L 215.230352 111.77197 
L 214.71422 110.949956 
L 215.140072 110.746091 
L 216.412891 111.050101 
L 220.667003 110.095156 
L 224.417748 110.549977 
L 231.719969 114.560509 
L 234.095739 116.615246 
L 235.425872 116.769039 
L 238.694034 120.724136 
L 240.598811 121.888908 
L 241.776592 123.439354 
L 244.073371 124.244081 
L 244.87341 125.657428 
L 246.947458 125.85771 
L 249.533479 127.244827 
L 249.273927 126.903263 
L 253.527441 126.65827 
L 257.078918 127.362852 
L 259.176722 130.5776 
L 260.038535 133.602189 
L 260.127626 134.995861 
L 259.704146 135.217013 
L 260.526459 135.36723 
L 261.826297 140.334494 
L 261.428062 141.915938 
L 261.975972 140.761297 
L 262.311551 142.250346 
L 262.229882 144.725338 
L 261.323827 145.030534 
L 262.226196 145.520983 
L 262.043737 145.947082 
L 261.726514 145.484762 
L 261.482406 146.334793 
L 261.78412 146.215552 
L 261.592757 146.54574 
L 261.582328 146.855646 
L 262.17999 147.790463 
L 261.891333 148.787129 
L 261.323827 148.540349 
L 261.676622 148.940328 
L 261.253442 150.826976 
L 258.578622 157.02339 
L 255.724437 160.538566 
L 255.126629 160.737662 
L 254.967159 159.892399 
L 254.54219 160.989811 
L 254.197109 160.185678 
L 253.7766 160.083145 
L 254.429044 161.143003 
L 254.889052 161.06492 
L 250.528632 166.612186 
L 246.915973 168.595397 
L 245.199187 171.181258 
L 244.200472 170.425409 
L 245.119898 171.63191 
L 243.799558 173.340316 
L 243.271252 173.186524 
L 244.222747 172.08613 
L 244.023479 171.685557 
L 243.176811 173.236003 
L 242.777686 172.886096 
L 243.321436 173.463116 
L 242.618808 174.04073 
L 243.575054 173.590678 
L 241.430627 177.948136 
L 236.571583 184.434254 
L 235.022287 185.029755 
L 235.19601 182.879039 
L 234.339847 182.728829 
L 233.867066 181.769709 
L 233.023077 183.701061 
L 232.621273 182.374747 
L 232.168694 182.979184 
L 232.677404 183.819086 
L 233.622659 183.980034 
L 232.378055 185.501861 
L 233.020405 185.962051 
L 231.994073 186.716112 
L 231.943291 187.637077 
L 231.321435 187.343799 
L 230.768474 189.298992 
L 231.525453 188.549106 
L 231.757979 191.031247 
L 230.943088 190.128755 
L 230.526147 190.306397 
L 231.652255 191.233324 
L 231.067817 191.458651 
L 231.760949 192.681237 
L 231.093361 192.792714 
L 231.067817 193.263033 
L 231.321435 193.518157 
L 231.149186 193.038901 
L 231.923688 192.717605 
L 231.684922 191.726893 
L 232.123254 191.483687 
L 232.168694 192.263378 
L 231.121868 197.177588 
L 232.621273 205.815615 
L 230.089296 215.396068 
L 230.611078 219.186042 
L 229.604349 220.55766 
L 228.32618 221.151967 
L 226.799159 223.536944 
L 226.175521 226.526367 
L 226.492686 231.612849 
L 225.873792 233.267015 
L 224.117508 234.456822 
L 222.614542 238.136521 
L 221.618199 237.88676 
L 221.642444 238.55003 
L 222.419427 238.537101 
L 221.768173 239.845528 
L 220.055393 242.056724 
L 218.777896 242.512489 
L 216.597313 247.051134 
L 217.0496 250.936484 
L 212.150765 252.896454 
L 209.96268 254.753883 
L 209.767573 255.958597 
L 210.667096 256.341289 
L 209.792519 256.884931 
L 209.617899 258.022871 
L 202.189167 257.968631 
L 201.463966 257.568051 
L 202.234899 256.219683 
L 201.866952 255.708234 
L 200.446538 256.303735 
L 201.172039 257.935845 
L 198.328539 258.651158 
L 195.092745 258.824024 
L 198.011973 258.213624 
L 196.213518 257.367768 
L 193.759641 258.515847 
L 192.546216 258.151634 
L 192.74133 257.582957 
L 192.117693 257.698601 
L 190.007415 258.945631 
L 190.366152 260.242733 
L 191.058394 259.823086 
L 191.461979 260.328572 
L 188.4106 260.711866 
L 187.507216 261.127345 
L 187.30765 261.932072 
L 184.80745 262.682551 
L 184.707667 264.241941 
L 181.513153 263.697706 
L 179.457219 264.342086 
L 178.805074 264.84221 
L 179.706378 264.492303 
L 179.308143 265.347103 
L 178.423764 265.636807 
L 178.206974 265.601633 
L 178.506316 265.347103 
L 178.337636 264.932818 
L 177.710437 264.554894 
L 177.210339 264.942948 
L 177.778742 265.661243 
L 173.687369 267.484106 
L 173.112733 268.579731 
L 168.59877 271.016568 
L 167.19974 272.031123 
L 166.214388 273.172052 
L 165.550069 273.076082 
L 166.293685 273.39261 
L 166.750723 273.2263 
L 164.400789 276.158493 
L 164.305166 275.290574 
L 164.997401 274.857216 
L 163.497997 275.431255 
L 163.55234 274.481079 
L 163.244977 275.039025 
L 162.600846 274.626528 
L 162.800412 275.180893 
L 162.302394 275.285806 
L 162.904647 275.810373 
L 162.476416 276.290823 
L 160.50364 275.385951 
L 160.738538 276.442235 
L 163.290417 276.98885 
L 161.978098 278.999485 
L 161.704293 278.645403 
L 161.669845 279.066844 
L 160.310905 279.159833 
L 161.81417 279.148508 
L 161.602131 281.478052 
L 160.571047 281.777293 
L 160.113718 280.632789 
L 160.100646 282.364443 
L 161.489875 283.330119 
L 160.939294 284.98309 
L 161.708446 285.819417 
L 161.495224 288.221088 
L 162.45147 288.584106 
L 161.401674 289.263059 
L 161.898809 290.293112 
L 161.201224 290.969084 
L 161.799026 293.757622 
L 161.285564 296.466877 
L 160.37089 298.351137 
L 159.547686 297.317509 
L 159.687267 298.262316 
L 160.408309 298.651572 
L 156.126579 301.545618 
L 152.711713 305.351685 
L 149.026004 312.811228 
L 146.064607 317.081659 
L 142.923247 320.282695 
L 137.729223 323.580295 
L 136.168344 325.305394 
L 136.644095 323.718588 
L 136.096178 322.819077 
L 137.927599 323.01758 
L 140.391869 320.966416 
L 140.764567 321.243603 
L 140.9478 320.308918 
L 142.243477 320.154533 
L 142.85019 317.324865 
L 143.929384 317.215183 
L 144.20705 317.714714 
L 144.188936 315.974109 
L 146.274866 314.752116 
L 146.03372 312.089952 
L 146.895832 312.984093 
L 147.206166 312.727776 
L 147.38969 311.390138 
L 146.842671 310.794637 
L 146.425431 311.547505 
L 144.666467 311.750175 
L 144.495708 312.591864 
L 143.78268 312.182347 
L 143.862867 311.362714 
L 142.330788 310.821461 
L 141.96225 309.485017 
L 141.645085 311.075398 
L 142.661316 312.06849 
L 143.369892 312.008881 
L 142.203388 312.81719 
L 142.063223 315.157464 
L 141.279218 314.13516 
L 141.390285 315.870389 
L 140.486602 316.514176 
L 140.798125 317.348708 
L 139.480165 317.7469 
L 139.378601 318.634485 
L 136.99927 319.189451 
L 136.675274 321.488596 
L 136.124985 320.847791 
L 136.270798 321.62987 
L 135.13756 322.18066 
L 134.919879 323.06944 
L 135.756147 323.573739 
L 134.845633 324.473242 
L 136.138946 324.314682 
L 135.500157 324.817787 
L 136.096178 324.573387 
L 136.06767 325.297051 
L 134.88365 326.14947 
L 132.026488 332.408474 
L 126.667973 336.830463 
L 125.496207 336.160879 
L 125.516569 332.656529 
L 128.625824 329.371726 
L 125.338176 327.37314 
L 123.907638 324.483512 
L 120.13497 322.786599 
L 117.724212 320.123329 
L 113.054677 318.547166 
L 110.518322 315.644668 
L 108.600875 317.301836 
L 107.456776 317.357102 
L 107.456776 315.277503 
L 101.472675 310.17807 
L 99.678556 310.207597 
L 98.452811 311.579361 
L 96.32944 311.440819 
L 95.841903 310.826171 
L 97.868219 309.291576 
L 98.113751 308.076527 
L 99.417566 307.716929 
L 101.562058 305.585105 
L 103.034466 303.284451 
L 104.41617 302.617496 
L 105.451267 300.495509 
L 108.254648 298.18805 
L 108.228622 297.54986 
L 109.771181 297.71187 
L 109.994832 297.172859 
L 109.199793 296.480165 
L 111.621301 295.358983 
L 112.545514 294.158312 
L 114.621745 293.687436 
L 114.245726 293.156752 
L 115.471471 292.853937 
L 116.260854 291.311841 
L 120.042573 290.594162 
L 120.8444 289.239062 
L 121.466702 289.544903 
L 122.398272 288.584216 
L 123.376982 288.604659 
L 124.234627 286.756723 
L 123.783552 285.363761 
L 124.6065 282.034292 
L 123.352087 279.854768 
L 122.793529 277.415587 
L 121.41465 277.180899 
L 121.286797 276.42916 
L 120.568697 276.699424 
L 120.74785 277.06053 
L 119.250547 277.062801 
L 118.871507 277.854666 
L 117.755887 277.017915 
L 117.772104 275.718293 
L 119.022751 273.901399 
L 118.762513 273.079246 
L 120.222849 268.107756 
L 119.694083 266.572473 
L 120.346177 265.85253 
L 117.471141 264.049254 
L 113.630591 265.604973 
L 111.76783 265.148483 
L 110.183028 258.162124 
L 110.286183 255.510207 
L 108.553917 252.952921 
L 105.975888 252.849201 
L 104.564582 251.387357 
L 103.808012 251.501668 
L 102.804407 252.762146 
L 102.318628 252.410122 
L 101.291829 252.979415 
L 93.043302 251.377512 
L 94.274331 243.167402 
L 93.564529 242.816132 
L 93.967326 242.274088 
L 93.377837 241.995496 
L 93.96318 241.531431 
L 93.084414 241.256626 
L 93.020298 239.35494 
L 91.783985 237.391931 
L 93.966574 236.036824 
L 92.033282 234.204028 
L 94.482897 229.291583 
L 95.016947 229.184084 
L 94.531548 228.201444 
L 96.10503 223.408613 
L 96.842741 223.12775 
L 94.91285 220.405428 
L 94.39728 218.11538 
L 92.868682 217.846625 
L 90.029846 215.94721 
L 89.437715 211.890978 
L 90.442079 210.34889 
L 90.464704 209.002111 
L 77.173448 208.82269 
L 76.547942 203.061605 
L 74.096817 200.282508 
L 76.377087 200.168951 
L 76.217173 196.848564 
L 74.957294 194.27235 
L 75.520384 192.111 
L 74.896761 190.752867 
L 70.703196 188.311408 
L 64.943877 188.868585 
L 62.951002 186.73222 
L 62.912532 186.008864 
L 60.654134 185.8355 
L 58.738198 184.652248 
L 57.985022 184.913422 
L 56.53864 183.764992 
L 55.903515 182.364463 
L 54.130896 182.725577 
L 52.905903 181.667228 
L 50.602249 180.916243 
L 49.727628 181.571082 
L 47.05418 181.225116 
L 45.578188 180.320456 
L 45.58102 179.337816 
L 44.117473 178.348357 
L 43.755408 178.642852 
L 43.368829 177.822215 
L 41.873037 177.556492 
L 41.375946 175.775175 
L 41.026705 175.317161 
L 40.748739 175.922038 
L 40.422503 175.692654 
L 40.632389 174.76755 
L 39.522242 173.748572 
L 39.027983 172.292023 
L 39.667823 170.036798 
L 38.900502 168.788435 
L 38.570303 166.362878 
L 39.775685 164.449077 
L 39.671406 161.771422 
L 38.949723 160.639641 
L 37.592344 161.741895 
L 36.099195 160.978795 
L 29.865986 162.259709 
L 26.788413 164.816241 
L 24.896613 165.269707 
L 22.990857 166.609673 
L 21.990274 168.101799 
L 19.639852 167.819427 
L 17.818582 170.104933 
L 15.465518 171.083032 
L 14.29635 171.288947 
L 14.086646 170.220006 
L 9.771264 169.78319 
L 5.68292 169.668117 
L 3.250471 170.733279 
L 1.46446 169.805905 
L 0.681871 170.338104 
L 0.702993 161.84864 
L 1.40789 160.79711 
L 0.805389 159.753901 
L 1.531028 158.765965 
L -4.123063 162.885784 
L -10.662146 162.975117 
L -10.42303 162.034866 
L -11.516017 159.510138 
L -15.169883 158.619095 
L -18.101496 158.605471 
L -16.328118 156.594008 
L -16.357918 155.50236 
L -19.091146 152.667236 
L -19.133761 151.798907 
L -20.47963 150.914683 
L -21.407996 148.385407 
L -22.261306 147.847911 
L -21.730088 146.732787 
z
" clip-path="url(#p1e0e5e0998)" style="fill: #eeeeee; stroke: #000000; stroke-width: 0.3"/>
    <path d="M 145.467696 100.196981 
L 145.545504 97.642119 
L 147.244774 98.352664 
L 146.829008 97.8889 
L 147.851187 97.297574 
L 146.485117 97.705896 
L 145.545504 97.147356 
L 145.948789 93.72815 
L 146.33723 94.37253 
L 147.327034 94.65091 
L 146.347324 94.255098 
L 146.247541 92.323154 
L 147.072233 91.093411 
L 148.642914 90.459755 
L 153.858913 91.452254 
L 155.801401 91.572667 
L 155.804963 91.039163 
L 157.124404 90.713692 
L 162.808433 91.589953 
L 163.227753 92.327329 
L 162.302394 95.133748 
L 161.749433 94.678327 
L 162.075502 96.077961 
L 161.074715 97.019795 
L 161.235074 97.623038 
L 159.951271 98.496919 
L 159.203794 98.04746 
L 160.115199 98.977369 
L 159.847035 100.056301 
L 159.049967 99.177659 
L 158.700726 99.152622 
L 158.700726 99.752299 
L 159.801596 100.306663 
L 158.148065 100.906933 
L 157.184988 99.855417 
L 156.952455 101.211536 
L 157.400589 101.307505 
L 157.002346 101.560849 
L 155.801401 100.557026 
L 156.013141 101.680962 
L 155.394831 101.665103 
L 155.004033 100.65657 
L 154.750415 100.65657 
L 154.550557 102.315504 
L 153.604405 102.645744 
L 153.196667 101.261608 
L 152.961463 102.923523 
L 151.312975 102.471684 
L 151.124101 101.811805 
L 150.198442 102.716677 
L 149.691221 102.423999 
L 149.595298 101.561442 
L 149.296839 101.386789 
L 149.507988 101.13524 
L 149.445624 100.557026 
L 149.197056 101.386789 
L 149.396031 102.466322 
L 149.092821 101.811805 
L 149.251407 102.541431 
L 148.653598 102.666605 
L 149.162316 102.896106 
L 148.37267 103.097583 
L 146.922559 102.666605 
L 147.039267 102.024613 
z
" clip-path="url(#p1e0e5e0998)" style="fill: #eeeeee; stroke: #000000; stroke-width: 0.3"/>
    <path d="M 137.241896 100.459261 
L 137.577767 98.887955 
L 139.03976 97.720802 
L 139.099446 95.888402 
L 140.133799 94.334975 
L 141.496009 93.582701 
L 141.246551 94.482805 
L 141.781097 93.485537 
L 142.673789 94.182971 
L 142.019863 97.195041 
L 138.624593 100.087299 
z
" clip-path="url(#p1e0e5e0998)" style="fill: #eeeeee; stroke: #000000; stroke-width: 0.3"/>
    <path d="M 148.572528 88.160024 
L 150.546793 88.058685 
L 153.882596 86.855809 
L 154.757458 87.094547 
L 152.300107 89.764116 
L 151.29694 90.072594 
L 150.61985 89.459506 
L 148.810995 89.3385 
z
" clip-path="url(#p1e0e5e0998)" style="fill: #eeeeee; stroke: #000000; stroke-width: 0.3"/>
    <path d="M 149.051841 86.653688 
L 149.445624 85.399502 
L 150.451462 85.499047 
L 150.850595 84.944682 
L 151.018085 85.947912 
L 149.508193 87.041545 
z
" clip-path="url(#p1e0e5e0998)" style="fill: #eeeeee; stroke: #000000; stroke-width: 0.3"/>
    <path d="M 143.749122 91.15302 
L 144.416338 89.773631 
L 145.739253 89.346294 
L 146.547481 89.860086 
L 146.397215 90.818012 
L 144.59044 92.106771 
z
" clip-path="url(#p1e0e5e0998)" style="fill: #eeeeee; stroke: #000000; stroke-width: 0.3"/>
    <path d="M 231.276885 188.264771 
L 232.019019 187.799219 
L 232.368253 188.230791 
L 232.326937 189.829551 
L 231.846479 188.558643 
z
" clip-path="url(#p1e0e5e0998)" style="fill: #eeeeee; stroke: #000000; stroke-width: 0.3"/>
    <path d="M 261.650173 146.849047 
L 261.879918 146.067876 
L 262.101927 146.371256 
L 261.933758 146.918471 
z
" clip-path="url(#p1e0e5e0998)" style="fill: #eeeeee; stroke: #000000; stroke-width: 0.3"/>
    <path d="M 233.169781 185.889323 
L 234.025652 184.629182 
L 233.822225 184.033681 
L 234.622563 184.812779 
z
" clip-path="url(#p1e0e5e0998)" style="fill: #eeeeee; stroke: #000000; stroke-width: 0.3"/>
    <path d="M 197.069382 107.411084 
L 197.197082 106.454198 
L 197.840023 106.181781 
L 197.785315 107.264734 
z
" clip-path="url(#p1e0e5e0998)" style="fill: #eeeeee; stroke: #000000; stroke-width: 0.3"/>
    <path d="M 192.440791 259.367072 
L 193.404167 258.660695 
L 194.383578 259.248446 
L 192.728266 259.777782 
z
" clip-path="url(#p1e0e5e0998)" style="fill: #eeeeee; stroke: #000000; stroke-width: 0.3"/>
    <path d="M 190.755483 112.101016 
L 190.91377 110.195294 
L 191.611055 109.494887 
L 191.490486 111.289132 
z
" clip-path="url(#p1e0e5e0998)" style="fill: #eeeeee; stroke: #000000; stroke-width: 0.3"/>
    <path d="M 167.66809 93.903345 
L 168.404254 93.92844 
L 168.528983 94.761778 
L 168.104911 94.883385 
z
" clip-path="url(#p1e0e5e0998)" style="fill: #eeeeee; stroke: #000000; stroke-width: 0.3"/>
    <path d="M 163.644701 96.668694 
L 164.503835 95.688112 
L 164.453053 97.094903 
L 163.68509 97.162263 
z
" clip-path="url(#p1e0e5e0998)" style="fill: #eeeeee; stroke: #000000; stroke-width: 0.3"/>
    <path d="M 162.554224 98.215558 
L 162.850304 97.593233 
L 163.452557 97.497864 
L 163.488195 98.512418 
z
" clip-path="url(#p1e0e5e0998)" style="fill: #eeeeee; stroke: #000000; stroke-width: 0.3"/>
    <path d="M 161.811798 293.442882 
L 162.003635 290.944055 
L 162.754972 290.420681 
L 162.954539 291.698709 
z
" clip-path="url(#p1e0e5e0998)" style="fill: #eeeeee; stroke: #000000; stroke-width: 0.3"/>
    <path d="M 160.793779 282.416303 
L 161.929988 281.356445 
L 162.356737 281.860151 
L 161.669845 283.215669 
z
" clip-path="url(#p1e0e5e0998)" style="fill: #eeeeee; stroke: #000000; stroke-width: 0.3"/>
    <path d="M 155.398707 103.367019 
L 156.057982 102.302392 
L 156.526603 102.56646 
L 155.946616 103.567309 
z
" clip-path="url(#p1e0e5e0998)" style="fill: #eeeeee; stroke: #000000; stroke-width: 0.3"/>
    <path d="M 152.553426 90.441282 
L 155.004033 89.058933 
L 156.091832 89.75696 
L 155.246361 90.623684 
z
" clip-path="url(#p1e0e5e0998)" style="fill: #eeeeee; stroke: #000000; stroke-width: 0.3"/>
    <path d="M 149.261734 84.051771 
L 149.684222 83.392434 
L 151.215075 83.148569 
L 150.5753 84.150678 
z
" clip-path="url(#p1e0e5e0998)" style="fill: #eeeeee; stroke: #000000; stroke-width: 0.3"/>
    <path d="M 147.55837 88.157636 
L 148.653598 85.144972 
L 149.016466 87.424377 
L 148.271668 88.455763 
z
" clip-path="url(#p1e0e5e0998)" style="fill: #eeeeee; stroke: #000000; stroke-width: 0.3"/>
    <path d="M 147.506851 75.025419 
L 148.013758 74.223651 
L 149.037945 75.26872 
L 148.270945 76.039936 
z
" clip-path="url(#p1e0e5e0998)" style="fill: #eeeeee; stroke: #000000; stroke-width: 0.3"/>
    <path d="M 147.363015 73.965407 
L 147.948146 73.666986 
L 148.299854 74.106527 
L 147.69574 74.249603 
z
" clip-path="url(#p1e0e5e0998)" style="fill: #eeeeee; stroke: #000000; stroke-width: 0.3"/>
    <path d="M 146.700718 89.163847 
L 146.873557 88.342426 
L 147.751995 88.518625 
L 148.135123 89.686165 
z
" clip-path="url(#p1e0e5e0998)" style="fill: #eeeeee; stroke: #000000; stroke-width: 0.3"/>
    <path d="M 143.298616 95.738185 
L 143.547775 94.637791 
L 145.192402 93.778223 
L 145.176367 94.930476 
z
" clip-path="url(#p1e0e5e0998)" style="fill: #eeeeee; stroke: #000000; stroke-width: 0.3"/>
    <path d="M 141.0749 93.052772 
L 142.102714 91.293693 
L 142.825244 90.713692 
L 142.81456 91.924368 
z
" clip-path="url(#p1e0e5e0998)" style="fill: #eeeeee; stroke: #000000; stroke-width: 0.3"/>
    <path d="M 305.467676 239.924211 
L 305.492622 239.930173 
L 305.48698 239.949247 
z
" clip-path="url(#p1e0e5e0998)" style="fill: #eeeeee; stroke: #000000; stroke-width: 0.3"/>
    <path d="M 302.0537 240.293792 
L 302.082507 240.21809 
L 302.282664 240.348633 
z
" clip-path="url(#p1e0e5e0998)" style="fill: #eeeeee; stroke: #000000; stroke-width: 0.3"/>
    <path d="M 301.601114 83.570677 
L 301.995788 83.219876 
L 302.048058 83.440727 
z
" clip-path="url(#p1e0e5e0998)" style="fill: #eeeeee; stroke: #000000; stroke-width: 0.3"/>
    <path d="M 279.322642 118.094165 
L 279.511517 117.885525 
L 279.78295 117.974346 
z
" clip-path="url(#p1e0e5e0998)" style="fill: #eeeeee; stroke: #000000; stroke-width: 0.3"/>
    <path d="M 208.359034 109.290422 
L 209.049794 109.304727 
L 209.094935 109.893079 
z
" clip-path="url(#p1e0e5e0998)" style="fill: #eeeeee; stroke: #000000; stroke-width: 0.3"/>
    <path d="M 207.893821 109.729875 
L 208.62908 109.722271 
L 208.94472 109.995824 
z
" clip-path="url(#p1e0e5e0998)" style="fill: #eeeeee; stroke: #000000; stroke-width: 0.3"/>
    <path d="M 197.954002 107.155638 
L 198.462354 107.054204 
L 198.231602 107.437402 
z
" clip-path="url(#p1e0e5e0998)" style="fill: #eeeeee; stroke: #000000; stroke-width: 0.3"/>
    <path d="M 196.408158 107.321978 
L 196.894703 107.61467 
L 196.5127 108.091582 
z
" clip-path="url(#p1e0e5e0998)" style="fill: #eeeeee; stroke: #000000; stroke-width: 0.3"/>
    <path d="M 187.683617 99.777327 
L 188.008796 98.917759 
L 188.658277 99.401791 
z
" clip-path="url(#p1e0e5e0998)" style="fill: #eeeeee; stroke: #000000; stroke-width: 0.3"/>
    <path d="M 184.515822 264.68603 
L 185.57037 263.440788 
L 186.057696 265.246958 
z
" clip-path="url(#p1e0e5e0998)" style="fill: #eeeeee; stroke: #000000; stroke-width: 0.3"/>
    <path d="M 177.455038 265.09674 
L 177.650153 264.897051 
L 178.393169 265.415055 
z
" clip-path="url(#p1e0e5e0998)" style="fill: #eeeeee; stroke: #000000; stroke-width: 0.3"/>
    <path d="M 166.655391 273.076082 
L 167.153709 272.17121 
L 169.952959 270.511676 
z
" clip-path="url(#p1e0e5e0998)" style="fill: #eeeeee; stroke: #000000; stroke-width: 0.3"/>
    <path d="M 166.053138 94.637791 
L 166.750723 94.587125 
L 166.202805 95.03777 
z
" clip-path="url(#p1e0e5e0998)" style="fill: #eeeeee; stroke: #000000; stroke-width: 0.3"/>
    <path d="M 163.448572 275.923513 
L 164.0627 275.357135 
L 163.801944 276.38924 
z
" clip-path="url(#p1e0e5e0998)" style="fill: #eeeeee; stroke: #000000; stroke-width: 0.3"/>
    <path d="M 154.79303 101.939293 
L 155.533551 102.115001 
L 154.916176 102.466805 
z
" clip-path="url(#p1e0e5e0998)" style="fill: #eeeeee; stroke: #000000; stroke-width: 0.3"/>
    <path d="M 150.597677 82.660955 
L 151.867132 81.849409 
L 151.592429 82.552848 
z
" clip-path="url(#p1e0e5e0998)" style="fill: #eeeeee; stroke: #000000; stroke-width: 0.3"/>
    <path d="M 149.720823 87.882464 
L 150.502747 87.2088 
L 150.120868 87.768768 
z
" clip-path="url(#p1e0e5e0998)" style="fill: #eeeeee; stroke: #000000; stroke-width: 0.3"/>
    <path d="M 541.434641 -287.760327 
L 544.35446 -288.354033 
L 546.206368 -287.144851 
L 547.508293 -287.159457 
L 545.354656 -288.203816 
L 546.954143 -288.203816 
L 546.265762 -288.56356 
L 546.732601 -288.90393 
L 544.43642 -289.857688 
L 546.007991 -290.059165 
L 545.555412 -291.114855 
L 546.476611 -291.245991 
L 549.14995 -293.668824 
L 550.88188 -298.292443 
L 551.81853 -297.826292 
L 553.30992 -298.192892 
L 555.507501 -299.242913 
L 557.057096 -300.747761 
L 559.897924 -301.504203 
L 566.089174 -301.830268 
L 566.610657 -301.106612 
L 568.756572 -300.324533 
L 568.743654 -298.515184 
L 567.603898 -295.946925 
L 565.417163 -295.853995 
L 564.940442 -295.172661 
L 565.254986 -294.58576 
L 567.14151 -294.511193 
L 567.688384 -293.879068 
L 567.52847 -292.89434 
L 564.949499 -291.571602 
L 565.954987 -290.916191 
L 562.555702 -289.894568 
L 560.964871 -290.44853 
L 561.17759 -290.048053 
L 559.537721 -289.854633 
L 561.53664 -287.238103 
L 560.451191 -285.430857 
L 561.112714 -284.995374 
L 558.961435 -284.193284 
L 559.122853 -283.626452 
L 560.503236 -283.202887 
L 560.000868 -282.048399 
L 557.896356 -282.079815 
L 557.297431 -282.637 
L 558.79096 -285.026219 
L 556.339463 -285.978959 
L 554.31189 -285.775314 
L 552.940558 -287.372668 
L 552.085175 -286.750761 
L 551.0035 -286.90804 
L 551.445525 -286.91031 
L 551.124193 -287.508558 
L 550.040255 -286.943426 
L 548.96687 -287.354502 
L 548.193711 -287.124173 
L 548.303836 -286.44681 
L 545.432464 -287.199099 
L 544.179839 -286.744579 
z
" clip-path="url(#p1e0e5e0998)" style="fill: #eeeeee; stroke: #000000; stroke-width: 0.3"/>
    <path d="M 540.693091 -286.628583 
L 542.093917 -286.932644 
L 544.229731 -286.394372 
L 545.32555 -286.886746 
L 547.057816 -286.575683 
L 546.30945 -285.87543 
L 544.045024 -285.38411 
L 542.591475 -286.007533 
L 541.001396 -285.687687 
z
" clip-path="url(#p1e0e5e0998)" style="fill: #eeeeee; stroke: #000000; stroke-width: 0.3"/>
    <path d="M 16.913089 -0.094637 
L 17.210651 -0.482999 
L 18.415464 0.11727 
L 18.460896 0.921998 
L 18.103941 1.614963 
L 17.751138 0.301468 
z
" clip-path="url(#p1e0e5e0998)" style="fill: #eeeeee; stroke: #000000; stroke-width: 0.3"/>
    <path d="M 550.606294 -298.73832 
L 551.676576 -299.904879 
L 551.955731 -299.343058 
L 551.248345 -298.532075 
z
" clip-path="url(#p1e0e5e0998)" style="fill: #eeeeee; stroke: #000000; stroke-width: 0.3"/>
    <path d="M 56.472006 -38.686179 
L 56.852075 -38.39145 
L 56.752394 -38.238999 
L 56.589181 -38.262094 
z
" clip-path="url(#p1e0e5e0998)" style="fill: #eeeeee; stroke: #000000; stroke-width: 0.3"/>
    <path d="M 563.35942 -302.617716 
L 563.760925 -302.511608 
L 563.661141 -302.457361 
z
" clip-path="url(#p1e0e5e0998)" style="fill: #eeeeee; stroke: #000000; stroke-width: 0.3"/>
    <path d="M 560.968207 -301.898521 
L 562.306361 -302.295819 
L 562.51008 -302.207006 
z
" clip-path="url(#p1e0e5e0998)" style="fill: #eeeeee; stroke: #000000; stroke-width: 0.3"/>
    <path d="M 557.381982 -301.816263 
L 559.409109 -302.000753 
L 559.706671 -301.907164 
z
" clip-path="url(#p1e0e5e0998)" style="fill: #eeeeee; stroke: #000000; stroke-width: 0.3"/>
    <path d="M 553.963255 -301.227025 
L 554.565508 -301.506891 
L 557.011364 -301.852323 
z
" clip-path="url(#p1e0e5e0998)" style="fill: #eeeeee; stroke: #000000; stroke-width: 0.3"/>
    <path d="M 552.084022 -300.086095 
L 552.641135 -300.653872 
L 553.504728 -300.797834 
z
" clip-path="url(#p1e0e5e0998)" style="fill: #eeeeee; stroke: #000000; stroke-width: 0.3"/>
    <path d="M 543.154697 -288.954002 
L 544.085406 -289.360838 
L 546.166577 -288.671454 
z
" clip-path="url(#p1e0e5e0998)" style="fill: #eeeeee; stroke: #000000; stroke-width: 0.3"/>
    <path d="M 54.616828 -39.405067 
L 54.818468 -39.445009 
L 54.711262 -39.338601 
z
" clip-path="url(#p1e0e5e0998)" style="fill: #eeeeee; stroke: #000000; stroke-width: 0.3"/>
    <path d="M -60.479631 77.68559 
L -59.19906 76.343133 
L -57.19331 76.63157 
L -57.004794 75.660789 
L -57.461832 74.831318 
L -57.8821 75.161419 
L -58.156176 73.645986 
L -57.214154 71.863358 
L -57.103978 72.241582 
L -55.549632 70.28989 
L -54.883525 71.066974 
L -54.826459 70.175513 
L -54.540524 71.100353 
L -53.991125 71.427018 
L -53.646643 71.256232 
L -53.725677 70.26451 
L -52.658182 70.095548 
L -52.325713 70.788 
L -51.854122 70.891427 
L -51.275624 70.702761 
L -51.210888 70.441668 
L -51.654855 69.436651 
L -50.753252 69.236961 
L -51.00657 68.882286 
L -50.368081 68.666497 
L -50.908269 68.311221 
L -50.248701 68.21257 
L -50.352345 67.749106 
L -50.993798 67.843289 
L -49.226814 66.045315 
L -49.680123 65.908949 
L -49.064083 65.102735 
L -48.053486 65.367703 
L -48.157429 63.962707 
L -47.65466 64.262541 
L -48.074279 63.698632 
L -46.589128 62.744881 
L -47.191382 62.265618 
L -46.642873 62.338346 
L -46.823435 61.751488 
L -45.95628 61.003089 
L -47.573582 61.552693 
L -47.916882 60.612647 
L -47.255826 60.553037 
L -47.106743 59.893459 
L -47.65466 59.593917 
L -48.252461 60.902944 
L -48.901935 60.171538 
L -48.83987 59.065483 
L -47.907971 58.898279 
L -47.450641 58.443158 
L -48.551803 57.843189 
L -48.008353 56.933841 
L -48.103377 54.874628 
L -47.60922 55.229303 
L -48.270276 54.129811 
L -48.506371 50.109734 
L -49.807099 49.376834 
L -47.52072 47.683928 
L -49.26097 44.354136 
L -49.253847 43.581001 
L -48.75553 43.985749 
L -48.506371 43.535697 
L -48.24652 41.59034 
L -48.727314 40.655063 
L -49.652381 40.875914 
L -50.055667 39.671207 
L -50.807595 39.516814 
L -50.579521 38.298103 
L -52.264063 36.690099 
L -51.711884 34.921527 
L -51.062797 34.527481 
L -51.303424 33.242787 
L -49.958876 34.541867 
L -48.205489 33.231807 
L -48.498533 32.739733 
L -47.918473 31.804404 
L -46.917511 31.53225 
L -49.29282 27.617966 
L -48.893418 26.485431 
L -48.292551 26.184542 
L -47.730979 27.455714 
L -45.448759 29.134915 
L -45.306507 30.143507 
L -44.501717 30.087179 
L -45.047547 31.603645 
L -43.954099 31.647162 
L -44.08239 28.035122 
L -45.340364 27.091795 
L -40.730479 24.145296 
L -39.654554 21.953452 
L -38.017364 20.534201 
L -37.054572 20.894488 
L -35.65879 20.445432 
L -35.33572 19.213155 
L -36.27553 18.630274 
L -35.002207 14.674825 
L -36.264145 15.453014 
L -34.892922 14.101086 
L -34.952316 13.569963 
L -35.351149 13.519891 
L -34.798481 12.865081 
L -34.729292 13.254029 
L -34.698997 12.765229 
L -34.921429 12.215039 
L -32.950135 11.260688 
L -33.080804 10.612133 
L -29.993357 8.309538 
L -26.004496 9.175119 
L -27.418459 9.263171 
L -27.346884 10.205598 
L -28.18791 10.08101 
L -28.198595 10.71019 
L -27.949145 10.351047 
L -27.799769 10.85594 
L -27.477554 10.836265 
L -27.550311 10.251495 
L -26.714335 10.947734 
L -24.950329 6.595638 
L -18.666418 6.959257 
L -14.64454 3.927219 
L -11.153946 2.623261 
L -10.246103 -0.087488 
L -9.01249 -0.080632 
L -9.3445 0.36704 
L -8.778767 0.568817 
L -8.293222 -0.087488 
L -8.945965 -0.282709 
L -7.282034 -1.216793 
L -6.997836 -0.887747 
L -6.540499 -1.342567 
L -7.342319 -1.287726 
L -6.866575 -1.642402 
L -3.846674 -0.716068 
L -2.766889 1.096658 
L -2.943589 1.672184 
L -4.925649 3.162874 
L -9.165602 4.358615 
L -11.183373 7.978221 
L -12.8783 8.228049 
L -14.218702 10.170424 
L -15.911367 13.26673 
L -16.426931 17.81352 
L -19.387212 22.496954 
L -18.081506 22.492039 
L -16.603442 21.598916 
L -16.206301 23.00077 
L -15.007327 22.927903 
L -14.163636 26.3151 
L -12.106265 28.484207 
L -11.68461 30.326284 
L -12.819089 31.54512 
L -12.727815 34.86361 
L -10.739085 35.614975 
L -9.951212 37.776707 
L -9.188986 38.31799 
L -6.463676 38.030314 
L -3.278993 38.686289 
L 0.229665 37.680181 
L 3.033987 38.864194 
L 4.419646 38.613239 
L 9.423147 44.84161 
L 10.242329 44.591592 
L 10.864821 45.146125 
L 12.214835 44.141343 
L 15.322579 44.741678 
L 20.119967 44.141343 
L 21.220501 43.441272 
L 23.97372 44.287077 
L 23.672751 44.898385 
L 24.174367 45.896356 
L 22.695172 47.315431 
L 22.754383 49.094667 
L 21.166567 50.576392 
L 21.469427 52.597882 
L 20.87126 56.485101 
L 22.646893 62.130922 
L 23.609766 62.452855 
L 24.999198 64.899237 
L 21.137154 68.545527 
L 21.010805 69.251472 
L 22.684611 69.078108 
L 23.056864 69.974066 
L 25.873068 72.147532 
L 25.672042 73.087402 
L 28.107694 79.797813 
L 28.169548 80.731252 
L 26.629258 81.071915 
L 26.402586 77.16199 
L 24.158529 74.024613 
L 20.478645 76.93128 
L 18.556673 74.9272 
L 17.914001 76.285904 
L 18.767501 77.077769 
L 8.705616 76.701141 
L 6.412332 77.177504 
L 6.441372 81.925858 
L 10.553101 82.07954 
L 11.548787 83.329419 
L 11.657781 84.923747 
L 10.492948 85.158428 
L 9.171777 84.318109 
L 4.966709 85.377967 
L 4.866007 90.85895 
L 8.137811 93.528278 
L 8.074826 95.058258 
L 9.745618 98.349119 
L 5.618424 120.717427 
L 3.092067 117.734685 
L 1.779953 118.095037 
L 0.004693 117.388719 
L 4.993108 109.573775 
L 4.590494 108.915149 
L 4.264447 109.237654 
L 1.139734 107.30568 
L 0.636235 107.637267 
L -1.239159 105.881683 
L -5.007113 107.089927 
L -5.267344 106.204187 
L -5.571335 106.643267 
L -5.865138 105.968746 
L -7.381292 105.304823 
L -8.859356 106.709886 
L -10.52147 107.341264 
L -11.993119 107.637267 
L -13.936592 106.782563 
L -14.433676 107.427565 
L -14.589065 107.027849 
L -16.061093 107.451034 
L -17.975898 105.899856 
L -17.343036 104.873303 
L -17.941202 102.787655 
L -19.090767 102.802041 
L -20.407785 101.945827 
L -20.16094 100.511993 
L -21.17831 98.879809 
L -22.788379 98.552763 
L -24.392033 96.944049 
L -25.777693 96.807785 
L -26.881241 93.660762 
L -28.518658 92.174687 
L -29.601647 91.975591 
L -29.849441 90.934653 
L -30.643539 91.220057 
L -32.163276 90.004253 
L -33.198184 90.469834 
L -35.703609 89.107914 
L -36.892775 89.067789 
L -38.817768 87.02302 
L -40.620558 86.304587 
L -41.466511 86.742157 
L -41.405417 87.821697 
L -42.554222 88.103322 
L -48.626765 86.846631 
L -49.141956 84.918444 
L -50.437481 84.43924 
L -50.858005 83.510349 
L -51.914793 83.75828 
L -53.900122 82.938024 
L -59.072302 79.17984 
L -59.306018 78.270199 
z
" clip-path="url(#p1e0e5e0998)" style="fill: #eeeeee; stroke: #000000; stroke-width: 0.3"/>
    <path d="M -52.311459 69.936482 
L -51.933119 70.362091 
L -51.455295 70.686669 
L -52.207224 70.686669 
z
" clip-path="url(#p1e0e5e0998)" style="fill: #eeeeee; stroke: #000000; stroke-width: 0.3"/>
    <path d="M -35.440043 14.100735 
L -35.331801 13.66983 
L -35.036145 13.869255 
z
" clip-path="url(#p1e0e5e0998)" style="fill: #eeeeee; stroke: #000000; stroke-width: 0.3"/>
    <path d="M -49.736721 58.886654 
L -48.850562 57.888786 
L -47.709003 58.493231 
z
" clip-path="url(#p1e0e5e0998)" style="fill: #eeeeee; stroke: #000000; stroke-width: 0.3"/>
    <path d="M -52.167134 69.728743 
L -51.908173 69.732317 
L -51.266122 70.618709 
z
" clip-path="url(#p1e0e5e0998)" style="fill: #eeeeee; stroke: #000000; stroke-width: 0.3"/>
    <path d="M -54.592452 70.041374 
L -53.726231 71.080686 
L -54.005379 71.341772 
z
" clip-path="url(#p1e0e5e0998)" style="fill: #eeeeee; stroke: #000000; stroke-width: 0.3"/>
    <path d="M -54.632016 68.197693 
L -54.516221 68.10896 
L -54.243758 68.006611 
z
" clip-path="url(#p1e0e5e0998)" style="fill: #eeeeee; stroke: #000000; stroke-width: 0.3"/>
    <path d="M -68.284344 -9.770767 
L -68.273652 -9.762124 
L -68.280783 -9.760336 
z
" clip-path="url(#p1e0e5e0998)" style="fill: #eeeeee; stroke: #000000; stroke-width: 0.3"/>
    <path d="M -77.737524 -8.037911 
L -77.585776 -8.276056 
L -77.446794 -8.090965 
z
" clip-path="url(#p1e0e5e0998)" style="fill: #eeeeee; stroke: #000000; stroke-width: 0.3"/>
    <path d="M -79.308802 60.471966 
L -79.168929 60.448717 
L -79.154676 60.562274 
z
" clip-path="url(#p1e0e5e0998)" style="fill: #eeeeee; stroke: #000000; stroke-width: 0.3"/>
    <path d="M -80.155171 -1.892163 
L -80.151902 -2.337447 
L -79.962728 -2.542806 
z
" clip-path="url(#p1e0e5e0998)" style="fill: #eeeeee; stroke: #000000; stroke-width: 0.3"/>
    <path d="M -19.384949 22.337793 
L -16.426931 17.81352 
L -15.911367 13.26673 
L -12.8783 8.228049 
L -11.183373 7.978221 
L -9.023036 4.264366 
L -4.54585 2.880876 
L -4.695714 3.557338 
L -8.945965 4.782019 
L -8.189877 7.523467 
L -6.507831 9.003272 
L -7.545746 9.000884 
L -6.141665 11.155774 
L -6.530405 13.112162 
L -9.00833 15.663449 
L -10.141867 17.711631 
L -9.226303 18.966711 
L -8.846182 19.798569 
L -9.145532 19.293969 
L -9.199284 20.398831 
L -8.642463 20.098697 
L -8.098407 20.54428 
L -8.509713 20.579454 
L -8.54268 20.94456 
L -7.296587 20.94456 
L -7.894987 22.053597 
L -7.370833 22.022005 
L -7.107122 23.200482 
L -6.005952 23.458 
L -3.694926 22.621674 
L -2.39122 21.369876 
L -2.195814 18.312201 
L -5.36123 13.494554 
L -6.191557 10.510201 
L -5.190171 10.605577 
L -4.946062 9.705473 
L -5.593164 9.405639 
L 3.676206 6.537538 
L 4.235268 5.670374 
L 5.096015 5.883307 
L 4.183216 4.948359 
L 6.85943 5.914005 
L 7.233609 5.425805 
L 6.705303 4.031833 
L 3.816962 4.651476 
L 3.844579 3.4411 
L 3.158577 2.827126 
L 3.860614 0.967602 
L 5.233216 0.330972 
L 6.564532 1.67666 
L 7.208073 4.481584 
L 8.109675 5.686591 
L 10.687383 5.186467 
L 13.659473 5.79568 
L 17.015836 7.64596 
L 17.92724 9.658682 
L 17.210651 9.705473 
L 18.216197 9.955536 
L 17.536727 10.361177 
L 17.863985 11.618644 
L 19.013857 12.865081 
L 20.941792 13.125273 
L 27.167497 11.960501 
L 32.542674 11.660667 
L 34.2164 12.215039 
L 33.664038 12.723807 
L 35.118003 14.370515 
L 41.241546 16.089659 
L 43.484865 15.775519 
L 43.919636 14.770495 
L 45.734424 14.616702 
L 46.403502 14.23461 
L 45.770953 13.999747 
L 47.776696 12.939288 
L 51.670575 12.815301 
L 48.920327 12.115487 
L 47.445868 12.665091 
L 47.176814 11.510449 
L 49.772337 11.815353 
L 50.523974 11.210615 
L 52.412709 11.829365 
L 55.271652 11.056222 
L 62.624057 11.410304 
L 64.875098 11.010325 
L 64.023386 11.660667 
L 61.905387 11.805515 
L 61.304915 12.553915 
L 58.915483 12.284185 
L 57.010713 12.549447 
L 56.372223 13.115436 
L 57.494776 12.544077 
L 57.683651 13.457893 
L 56.48626 13.450144 
L 56.422114 14.420588 
L 56.950129 14.345479 
L 56.87084 13.469818 
L 58.170086 13.541946 
L 59.176523 15.479552 
L 58.957353 15.835722 
L 58.075354 15.80413 
L 57.744826 16.129594 
L 57.16989 15.679842 
L 56.322331 15.679842 
L 57.902813 16.46699 
L 58.020412 15.926623 
L 58.518729 16.083103 
L 59.235319 15.766575 
L 59.516853 14.793744 
L 61.423404 18.589387 
L 61.872129 16.62555 
L 62.129301 16.889024 
L 62.175332 19.089805 
L 62.623466 18.443638 
L 62.325007 16.929853 
L 63.550014 17.357557 
L 62.133461 16.790667 
L 62.315548 16.293538 
L 64.979632 17.961694 
L 64.875098 18.993835 
L 65.35441 18.201325 
L 65.622873 19.394114 
L 65.712555 18.678801 
L 65.003563 17.703713 
L 66.723444 18.034722 
L 66.400739 17.179161 
L 67.966019 18.369518 
L 67.37607 17.61282 
L 67.842655 17.767784 
L 69.544078 19.533301 
L 70.659501 19.50469 
L 72.052889 20.421487 
L 72.614162 21.465846 
L 70.424296 23.012116 
L 70.23008 23.458594 
L 71.346094 22.425559 
L 70.320361 24.052901 
L 69.519132 26.626243 
L 66.237898 26.571403 
L 66.678012 27.018481 
L 68.974784 28.177883 
L 69.726712 27.473301 
L 70.853717 27.41816 
L 70.478647 27.67061 
L 70.523189 28.13318 
L 71.226124 26.868263 
L 73.292443 26.658136 
L 74.850949 27.187772 
L 75.631983 26.43311 
L 78.193066 27 
L 79.592132 29.291974 
L 75.611088 32.379381 
L 74.50905 32.454328 
L 73.0142 34.563446 
L 73.954258 35.993874 
L 73.759837 37.012098 
L 74.346684 37.492819 
L 75.631078 37.150251 
L 76.130622 38.015555 
L 75.592229 38.862305 
L 73.234837 40.118234 
L 71.722449 39.765456 
L 71.530859 40.377144 
L 70.100315 40.493543 
L 69.500828 41.624562 
L 70.160658 44.369782 
L 68.152507 46.135585 
L 73.497899 51.814719 
L 73.875056 53.790027 
L 71.808255 55.196803 
L 71.213673 56.468063 
L 68.744637 56.571966 
L 68.909077 57.104737 
L 67.385004 57.443136 
L 66.907713 58.566208 
L 62.628531 59.725237 
L 60.625094 59.044849 
L 59.655434 60.109812 
L 58.316915 60.137449 
L 58.278825 62.87434 
L 57.258251 63.603563 
L 53.884234 60.688949 
L 52.724115 61.45205 
L 51.549656 60.780363 
L 48.877901 61.24727 
L 48.08211 59.576858 
L 44.849155 59.515915 
L 43.375237 58.30332 
L 43.218906 58.844229 
L 44.460685 60.584666 
L 47.671387 63.355252 
L 47.525807 66.8032 
L 49.170573 69.799566 
L 48.802663 71.583916 
L 53.642483 71.955621 
L 53.731486 73.081725 
L 53.445982 73.942099 
L 48.885448 75.568979 
L 48.474346 77.800553 
L 46.576889 79.681422 
L 46.167677 78.643706 
L 43.818583 80.547663 
L 43.027317 80.377331 
L 40.85623 81.431513 
L 40.372531 82.919097 
L 39.466425 83.018275 
L 37.893883 84.929805 
L 37.567829 84.271933 
L 38.070197 83.192393 
L 37.504282 82.481153 
L 36.413929 82.550416 
L 33.57529 84.330605 
L 32.475508 84.222725 
L 28.169548 80.731252 
L 25.672042 73.087402 
L 25.873068 72.147532 
L 23.056864 69.974066 
L 22.684611 69.078108 
L 21.010805 69.251472 
L 21.137154 68.545527 
L 24.999198 64.899237 
L 23.609766 62.452855 
L 22.646893 62.130922 
L 20.87126 56.485101 
L 21.469427 52.597882 
L 21.166567 50.576392 
L 22.754383 49.094667 
L 22.695172 47.315431 
L 24.174367 45.896356 
L 23.672751 44.898385 
L 23.97372 44.287077 
L 21.220501 43.441272 
L 20.119967 44.141343 
L 15.322579 44.741678 
L 12.214835 44.141343 
L 10.864821 45.146125 
L 10.242329 44.591592 
L 9.423147 44.84161 
L 4.419646 38.613239 
L 3.033987 38.864194 
L 0.229665 37.680181 
L -3.278993 38.686289 
L -6.463676 38.030314 
L -9.188986 38.31799 
L -9.951212 37.776707 
L -10.739085 35.614975 
L -12.727815 34.86361 
L -12.819089 31.54512 
L -11.68461 30.326284 
L -12.106265 28.484207 
L -14.163636 26.3151 
L -15.007327 22.927903 
L -16.206301 23.00077 
L -16.603442 21.598916 
L -18.081506 22.492039 
z
" clip-path="url(#p1e0e5e0998)" style="fill: #eeeeee; stroke: #000000; stroke-width: 0.3"/>
    <path d="M 46.170969 9.351091 
L 46.448044 8.655152 
L 47.546542 8.442344 
L 48.794707 9.180906 
L 49.323911 8.246229 
L 50.270655 8.121048 
L 50.702455 9.304893 
L 49.896767 9.955536 
L 48.716907 10.155826 
L 47.869348 9.351091 
z
" clip-path="url(#p1e0e5e0998)" style="fill: #eeeeee; stroke: #000000; stroke-width: 0.3"/>
    <path d="M 70.424296 24.563163 
L 70.541902 23.917589 
L 72.127727 23.058314 
L 71.955485 23.442794 
L 71.463992 23.573344 
z
" clip-path="url(#p1e0e5e0998)" style="fill: #eeeeee; stroke: #000000; stroke-width: 0.3"/>
    <path d="M 69.80776 26.726755 
L 70.125056 25.546257 
L 73.001158 24.552483 
L 73.339232 25.307929 
L 72.167605 26.416175 
z
" clip-path="url(#p1e0e5e0998)" style="fill: #eeeeee; stroke: #000000; stroke-width: 0.3"/>
    <path d="M 69.074567 27.318315 
L 69.386681 26.900448 
L 70.125545 27.173166 
L 70.927664 26.618501 
L 70.744432 27.289104 
z
" clip-path="url(#p1e0e5e0998)" style="fill: #eeeeee; stroke: #000000; stroke-width: 0.3"/>
    <path d="M 70.379156 25.063287 
L 71.629708 23.55397 
L 72.22751 23.758428 
L 72.033286 24.192981 
z
" clip-path="url(#p1e0e5e0998)" style="fill: #eeeeee; stroke: #000000; stroke-width: 0.3"/>
    <path d="M 44.417654 3.031284 
L 44.721456 2.526991 
L 45.089103 2.833081 
L 45.044853 3.131429 
z
" clip-path="url(#p1e0e5e0998)" style="fill: #eeeeee; stroke: #000000; stroke-width: 0.3"/>
    <path d="M 22.332217 1.863831 
L 22.521084 1.90556 
L 22.604241 1.934171 
L 22.397844 1.919866 
z
" clip-path="url(#p1e0e5e0998)" style="fill: #eeeeee; stroke: #000000; stroke-width: 0.3"/>
    <path d="M 72.448168 26.451532 
L 73.412121 25.499092 
L 73.838192 26.423441 
z
" clip-path="url(#p1e0e5e0998)" style="fill: #eeeeee; stroke: #000000; stroke-width: 0.3"/>
    <path d="M 72.177618 22.908397 
L 72.296107 22.387704 
L 73.029329 22.349256 
z
" clip-path="url(#p1e0e5e0998)" style="fill: #eeeeee; stroke: #000000; stroke-width: 0.3"/>
    <path d="M 71.330359 23.254136 
L 72.118224 22.341214 
L 71.852732 23.040434 
z
" clip-path="url(#p1e0e5e0998)" style="fill: #eeeeee; stroke: #000000; stroke-width: 0.3"/>
    <path d="M 67.1059 26.945789 
L 68.751775 26.902551 
L 69.123371 27.746561 
z
" clip-path="url(#p1e0e5e0998)" style="fill: #eeeeee; stroke: #000000; stroke-width: 0.3"/>
    <path d="M 61.57456 16.556997 
L 61.659498 16.25895 
L 62.031897 16.336147 
z
" clip-path="url(#p1e0e5e0998)" style="fill: #eeeeee; stroke: #000000; stroke-width: 0.3"/>
    <path d="M 61.199782 17.373049 
L 61.440328 17.275292 
L 61.37203 17.579001 
z
" clip-path="url(#p1e0e5e0998)" style="fill: #eeeeee; stroke: #000000; stroke-width: 0.3"/>
    <path d="M 60.566051 16.096515 
L 60.634057 16.077141 
L 60.765018 16.638662 
z
" clip-path="url(#p1e0e5e0998)" style="fill: #eeeeee; stroke: #000000; stroke-width: 0.3"/>
    <path d="M 58.048627 12.827226 
L 58.296297 13.066257 
L 58.933896 14.166951 
z
" clip-path="url(#p1e0e5e0998)" style="fill: #eeeeee; stroke: #000000; stroke-width: 0.3"/>
    <path d="M 51.753733 -25.318132 
L 51.819659 -25.318132 
L 51.813127 -25.270147 
z
" clip-path="url(#p1e0e5e0998)" style="fill: #eeeeee; stroke: #000000; stroke-width: 0.3"/>
    <path d="M 49.119893 10.755795 
L 49.856086 10.74417 
L 49.815697 11.049967 
z
" clip-path="url(#p1e0e5e0998)" style="fill: #eeeeee; stroke: #000000; stroke-width: 0.3"/>
    <path d="M 47.540302 10.530468 
L 47.668001 10.37787 
L 47.87707 10.583522 
z
" clip-path="url(#p1e0e5e0998)" style="fill: #eeeeee; stroke: #000000; stroke-width: 0.3"/>
    <path d="M 38.849151 9.664044 
L 40.358656 9.813368 
L 40.069109 9.955536 
z
" clip-path="url(#p1e0e5e0998)" style="fill: #eeeeee; stroke: #000000; stroke-width: 0.3"/>
    <path d="M 33.137805 3.123386 
L 33.245601 3.083143 
L 33.724023 3.399971 
z
" clip-path="url(#p1e0e5e0998)" style="fill: #eeeeee; stroke: #000000; stroke-width: 0.3"/>
    <path d="M 29.414378 3.376722 
L 30.066822 3.076888 
L 29.871715 3.535283 
z
" clip-path="url(#p1e0e5e0998)" style="fill: #eeeeee; stroke: #000000; stroke-width: 0.3"/>
    <path d="M 28.587021 2.732343 
L 28.609289 2.71655 
L 29.361224 2.755592 
z
" clip-path="url(#p1e0e5e0998)" style="fill: #eeeeee; stroke: #000000; stroke-width: 0.3"/>
    <path d="M 28.31885 3.609198 
L 29.242728 3.384472 
L 28.514556 3.646752 
z
" clip-path="url(#p1e0e5e0998)" style="fill: #eeeeee; stroke: #000000; stroke-width: 0.3"/>
    <path d="M 22.316774 1.448653 
L 22.333698 1.433454 
L 22.323306 1.462658 
z
" clip-path="url(#p1e0e5e0998)" style="fill: #eeeeee; stroke: #000000; stroke-width: 0.3"/>
    <path d="M 22.312314 1.584264 
L 22.314993 1.568172 
L 22.319146 1.59082 
z
" clip-path="url(#p1e0e5e0998)" style="fill: #eeeeee; stroke: #000000; stroke-width: 0.3"/>
    <path d="M 22.283508 1.599163 
L 22.301622 1.581876 
L 22.291828 1.604532 
z
" clip-path="url(#p1e0e5e0998)" style="fill: #eeeeee; stroke: #000000; stroke-width: 0.3"/>
    <path d="M 22.262423 1.323171 
L 22.284697 1.321384 
L 22.287368 1.335096 
z
" clip-path="url(#p1e0e5e0998)" style="fill: #eeeeee; stroke: #000000; stroke-width: 0.3"/>
    <path d="M 22.230354 1.282643 
L 22.243126 1.293366 
L 22.241338 1.307672 
z
" clip-path="url(#p1e0e5e0998)" style="fill: #eeeeee; stroke: #000000; stroke-width: 0.3"/>
    <path d="M 11.448522 -1.052863 
L 14.560485 1.399474 
L 12.823198 0.875507 
z
" clip-path="url(#p1e0e5e0998)" style="fill: #eeeeee; stroke: #000000; stroke-width: 0.3"/>
    <path d="M 64.269874 16.024087 
L 67.674938 14.370515 
L 67.479831 11.815353 
L 66.175534 11.260688 
L 71.724441 10.305743 
L 71.031308 11.314928 
L 71.07704 15.425012 
z
" clip-path="url(#p1e0e5e0998)" style="fill: #eeeeee; stroke: #000000; stroke-width: 0.3"/>
    <path d="M 72.160686 7.911822 
L 73.373819 6.941378 
L 74.47439 6.541398 
L 74.455976 7.160741 
z
" clip-path="url(#p1e0e5e0998)" style="fill: #eeeeee; stroke: #000000; stroke-width: 0.3"/>
    <path d="M 65.278383 1.726732 
L 66.147326 0.058855 
L 66.574367 0.217415 
L 66.438355 1.465046 
z
" clip-path="url(#p1e0e5e0998)" style="fill: #eeeeee; stroke: #000000; stroke-width: 0.3"/>
    <path d="M 67.426079 -1.437643 
L 67.923805 -2.09216 
L 67.970726 -1.972341 
z
" clip-path="url(#p1e0e5e0998)" style="fill: #eeeeee; stroke: #000000; stroke-width: 0.3"/>
   </g>
   <g id="PatchCollection_2">
    <path d="M 68.152507 46.135585 
L 70.160658 44.369782 
L 69.500828 41.624562 
L 70.100315 40.493543 
L 71.530859 40.377144 
L 71.722449 39.765456 
L 73.234837 40.118234 
L 75.592229 38.862305 
L 76.130622 38.015555 
L 75.631078 37.150251 
L 74.346684 37.492819 
L 73.759837 37.012098 
L 73.954258 35.993874 
L 73.0142 34.563446 
L 74.50905 32.454328 
L 75.611088 32.379381 
L 79.592132 29.291974 
L 78.193066 27 
L 79.530023 28.382348 
L 82.478947 30.132784 
L 80.088333 28.48368 
L 80.248401 28.130792 
L 84.879663 30.987583 
L 89.36868 35.657101 
L 89.403128 38.332969 
L 87.983006 42.981325 
L 88.635158 42.680897 
L 89.574479 39.717104 
L 90.664657 39.202081 
L 92.901524 39.937486 
L 95.872665 42.607473 
L 96.381105 43.790703 
L 96.660487 43.254438 
L 97.257726 43.446026 
L 99.020236 45.113559 
L 99.062487 48.381925 
L 97.79128 50.740665 
L 98.855987 51.822293 
L 98.13223 51.809042 
L 98.12129 52.913186 
L 95.227775 53.015954 
L 94.035215 53.627269 
L 93.48759 54.555024 
L 94.129503 55.619043 
L 92.448909 59.279529 
L 94.185321 62.8592 
L 95.540809 63.927005 
L 95.461986 64.853815 
L 96.76543 65.228737 
L 97.990423 64.818803 
L 98.765093 68.837744 
L 99.5854 69.367673 
L 102.392933 74.81913 
L 104.023175 75.463941 
L 101.653711 75.962264 
L 100.159802 75.632764 
L 99.478668 74.879127 
L 97.91009 75.203712 
L 96.145762 77.16804 
L 93.052352 77.543532 
L 92.744216 78.575197 
L 90.603876 77.95726 
L 89.194074 79.14638 
L 89.155604 80.403452 
L 87.850658 80.302384 
L 86.856103 81 
L 85.889085 80.089275 
L 83.747607 79.523198 
L 81.771131 77.211198 
L 80.675501 76.813372 
L 80.926499 76.208495 
L 80.106944 76.046104 
L 80.231403 73.104051 
L 79.053177 72.402274 
L 78.345638 69.952487 
L 78.570799 67.398613 
L 79.647008 65.099475 
L 79.34698 63.450452 
L 80.636279 62.655745 
L 81.793573 60.829571 
L 80.254976 58.901385 
L 80.632506 57.594541 
L 77.178542 56.520677 
L 78.109353 55.073028 
L 78.481227 52.641216 
L 77.384845 51.278923 
L 72.9465 51.581174 
z
" clip-path="url(#p1e0e5e0998)" style="fill: #ff6b6b; stroke: #dd0000; stroke-width: 0.5"/>
    <path d="M 89.581902 39.266459 
L 89.680495 38.829218 
L 90.508151 38.66649 
z
" clip-path="url(#p1e0e5e0998)" style="fill: #ff6b6b; stroke: #dd0000; stroke-width: 0.5"/>
   </g>
  </g>
 </g>
 <defs>
  <clipPath id="p1e0e5e0998">
   <rect x="0" y="0" width="172.175682" height="108"/>
  </clipPath>
 </defs>
</svg>
