<?xml version="1.0" encoding="utf-8" standalone="no"?>
<!DOCTYPE svg PUBLIC "-//W3C//DTD SVG 1.1//EN"
  "http://www.w3.org/Graphics/SVG/1.1/DTD/svg11.dtd">
<svg xmlns:xlink="http://www.w3.org/1999/xlink" width="117.505849pt" height="108pt" viewBox="0 0 117.505849 108" xmlns="http://www.w3.org/2000/svg" version="1.1">
 <metadata>
  <rdf:RDF xmlns:dc="http://purl.org/dc/elements/1.1/" xmlns:cc="http://creativecommons.org/ns#" xmlns:rdf="http://www.w3.org/1999/02/22-rdf-syntax-ns#">
   <cc:Work>
    <dc:type rdf:resource="http://purl.org/dc/dcmitype/StillImage"/>
    <dc:date>2025-09-05T13:56:19.756037</dc:date>
    <dc:format>image/svg+xml</dc:format>
    <dc:creator>
     <cc:Agent>
      <dc:title>Matplotlib v3.10.3, https://matplotlib.org/</dc:title>
     </cc:Agent>
    </dc:creator>
   </cc:Work>
  </rdf:RDF>
 </metadata>
 <defs>
  <style type="text/css">*{stroke-linejoin: round; stroke-linecap: butt}</style>
 </defs>
 <g id="figure_1">
  <g id="patch_1">
   <path d="M 0 108 
L 117.505849 108 
L 117.505849 0 
L 0 0 
z
" style="fill: #ffffff"/>
  </g>
  <g id="axes_1">
   <g id="PatchCollection_1">
    <path d="M 79.594776 39.53489 
L 79.64116 37.626741 
L 80.992019 36.328921 
L 82.797773 31.807185 
L 85.374976 32.527606 
L 83.916704 30.776233 
L 84.357765 29.45448 
L 83.791386 26.073799 
L 91.793992 16.800558 
L 94.149039 16.377528 
L 95.144274 14.802072 
L 94.934322 12.808969 
L 93.962684 11.708602 
L 95.423397 11.147946 
L 91.423724 5.957559 
L 91.915239 4.802737 
L 91.27806 2.251375 
L 94.149039 2.700435 
L 97.373192 -0.703879 
L 108.216258 -1.265427 
L 119.106929 0.723195 
L 120.023238 2.68309 
L 123.371079 2.663047 
L 123.541159 4.116439 
L 124.46235 2.388699 
L 126.348668 3.028936 
L 127.444813 1.93664 
L 128.41971 3.367604 
L 130.546089 3.076201 
L 131.52912 4.839546 
L 132.088995 3.318533 
L 134.162479 2.184067 
L 134.927826 2.499994 
L 136.183877 5.2527 
L 138.686217 3.801705 
L 140.189251 4.507154 
L 142.708685 3.876492 
L 145.787167 6.762643 
L 146.621283 5.230862 
L 145.594308 2.495803 
L 147.378087 -0.911208 
L 148.94948 -2.02144 
L 148.772889 -2.778357 
L 155.430336 -3.257638 
L 156.580196 -2.429812 
L 159.122817 -3.029362 
L 160.390262 -5.877211 
L 164.442831 -4.884851 
L 166.599319 -6.346024 
L 168.942972 -6.23562 
L 169.175711 -5.422465 
L 171.490476 -6.199124 
L 173.547684 -3.929879 
L 173.791005 -1.535282 
L 176.282762 0.480863 
L 175.996317 1.280852 
L 173.734857 1.767011 
L 174.794382 3.525261 
L 174.496543 4.921813 
L 175.46411 5.61111 
L 174.497354 6.603481 
L 177.823228 6.776098 
L 178.347301 7.544084 
L 181.526692 7.081558 
L 182.037743 8.808395 
L 183.702715 9.189244 
L 183.149351 10.130159 
L 184.598671 13.323553 
L 183.880928 13.864456 
L 185.720862 16.992037 
L 189.613933 16.188446 
L 190.898873 17.806396 
L 192.00886 17.537733 
L 193.46062 18.697337 
L 199.923572 16.063997 
L 201.372088 17.696293 
L 201.355813 18.784097 
L 204.531134 22.224606 
L 205.83642 21.752515 
L 205.897457 20.367924 
L 206.88944 20.363744 
L 207.33132 21.289387 
L 209.76123 21.467701 
L 211.908765 23.339932 
L 213.628263 22.52797 
L 214.455867 24.022652 
L 216.791387 24.260202 
L 218.712695 26.365191 
L 221.184926 25.805137 
L 220.550188 27.003634 
L 221.531589 28.780734 
L 221.390808 29.797328 
L 219.635508 32.089615 
L 217.7085 32.988928 
L 220.69097 34.383083 
L 218.538545 34.869542 
L 217.37567 37.4263 
L 219.134229 37.782915 
L 219.677822 39.866969 
L 218.825809 40.653794 
L 220.201895 41.283865 
L 218.384748 44.048845 
L 218.179677 46.35249 
L 211.435154 45.828631 
L 210.311341 47.960251 
L 207.039985 48.954116 
L 206.013822 52.315646 
L 206.875606 52.836216 
L 205.648136 55.364629 
L 205.091316 54.645193 
L 200.956467 54.8558 
L 199.293692 57.161564 
L 198.442112 56.530231 
L 195.502294 58.11092 
L 195.571496 58.383705 
L 194.837824 59.999247 
L 195.099255 58.987712 
L 194.261139 58.348367 
L 191.93132 58.997137 
L 190.972099 60.346483 
L 190.272387 59.633172 
L 188.006006 59.821628 
L 184.776561 62.192419 
L 182.180824 65.894655 
L 180.766022 66.478399 
L 183.600758 63.491825 
L 182.389713 61.446132 
L 182.556312 62.789352 
L 181.760486 63.931877 
L 179.428746 65.333987 
L 180.715316 70.652597 
L 179.245407 69.652862 
L 178.455328 67.680404 
L 176.691439 67.896557 
L 175.662504 66.572581 
L 171.82236 65.113503 
L 170.437093 64.854127 
L 169.224599 66.843061 
L 166.849285 65.894655 
L 167.010759 64.787943 
L 166.127149 65.806077 
L 161.249661 66.498187 
L 156.386266 63.674156 
L 155.719868 64.078869 
L 155.709617 63.41691 
L 157.77288 62.819978 
L 155.30594 61.590774 
L 154.817676 62.402076 
L 153.414402 60.575928 
L 159.786153 62.003013 
L 162.368426 59.857904 
L 159.929682 60.870388 
L 157.465309 60.094899 
L 156.81558 58.592887 
L 157.34485 56.782289 
L 157.253861 56.491129 
L 156.780975 56.323874 
L 157.103922 55.692541 
L 156.224793 55.495609 
L 156.473412 54.727171 
L 155.951827 53.63836 
L 155.377701 53.29726 
L 155.252115 52.800669 
L 155.134852 53.247321 
L 156.295916 54.714457 
L 156.005652 55.702904 
L 157.035996 56.530231 
L 156.22095 58.040243 
L 156.493916 59.857904 
L 153.293942 60.0996 
L 154.279438 57.960616 
L 153.414402 58.751192 
L 152.881928 58.11092 
L 153.395182 59.038126 
L 152.689061 60.094899 
L 147.764158 60.977341 
L 147.620628 62.789352 
L 146.671013 63.390059 
L 145.429213 66.447773 
L 142.628436 69.466374 
L 142.541936 68.637646 
L 142.283064 69.523388 
L 140.957968 69.535638 
L 141.006029 70.573086 
L 139.982724 70.41903 
L 140.437028 71.212906 
L 139.441927 71.845178 
L 138.689666 69.390521 
L 138.307776 72.484987 
L 139.231754 72.320082 
L 138.434007 73.421618 
L 139.616211 74.00395 
L 138.97545 76.485457 
L 138.784686 74.950643 
L 137.055425 73.974736 
L 135.461253 74.05192 
L 133.112718 75.726699 
L 132.009243 75.23665 
L 132.110963 76.131181 
L 131.381827 76.33044 
L 128.391223 75.219305 
L 127.361808 73.611533 
L 129.743712 73.067631 
L 129.523178 71.340192 
L 131.603983 69.26033 
L 131.619447 67.92122 
L 133.325111 67.363562 
L 133.785698 65.265139 
L 133.141197 64.380786 
L 133.238036 62.113637 
L 135.115401 61.149692 
L 135.244789 63.244514 
L 136.079716 61.914378 
L 136.615175 62.560601 
L 137.267818 61.767188 
L 138.512075 63.19007 
L 139.287594 61.923953 
L 140.18518 63.449748 
L 142.574407 62.483718 
L 140.766212 61.233163 
L 140.972912 58.003562 
L 138.063683 56.429009 
L 138.405473 55.09438 
L 137.427323 54.5092 
L 137.95464 54.230962 
L 138.047007 52.048778 
L 136.889416 52.561567 
L 134.889985 50.590302 
L 134.589296 49.625465 
L 135.523101 45.71883 
L 134.640971 44.5 
L 133.273837 44.976884 
L 132.084114 42.927532 
L 130.30765 42.427606 
L 129.567121 43.470229 
L 129.031662 42.245414 
L 128.290322 42.654678 
L 128.607687 41.45918 
L 126.525251 41.472646 
L 126.392611 40.575417 
L 122.507673 38.594276 
L 119.559391 40.046475 
L 116.594014 39.690451 
L 116.140741 40.896729 
L 115.396142 40.398899 
L 112.433214 41.766735 
L 111.406232 44.301343 
L 104.230821 45.396326 
L 102.799406 47.198552 
L 101.355779 47.5791 
L 98.564545 44.872467 
L 96.115101 45.414273 
L 90.050897 44.553842 
L 87.517629 43.085791 
L 85.458799 44.838657 
L 84.859044 43.16866 
L 83.316137 43.098365 
L 82.339618 41.413108 
L 81.360657 41.407121 
L 80.689291 39.55044 
z
" clip-path="url(#p9c6e51969b)" style="fill: #eeeeee; stroke: #000000; stroke-width: 0.3"/>
    <path d="M 153.383647 63.056497 
L 154.279438 64.378042 
L 157.843357 65.267096 
L 158.594973 65.650134 
L 153.981482 64.337053 
L 153.522051 63.752846 
z
" clip-path="url(#p9c6e51969b)" style="fill: #eeeeee; stroke: #000000; stroke-width: 0.3"/>
    <path d="M 139.42014 72.110899 
L 142.134409 69.782984 
L 142.530401 69.56249 
L 140.814438 71.241645 
L 140.022455 71.845178 
z
" clip-path="url(#p9c6e51969b)" style="fill: #eeeeee; stroke: #000000; stroke-width: 0.3"/>
    <path d="M 162.162742 66.684756 
L 165.611973 67.087582 
L 165.474852 67.238824 
z
" clip-path="url(#p9c6e51969b)" style="fill: #eeeeee; stroke: #000000; stroke-width: 0.3"/>
    <path d="M 87.72677 -5.444002 
L 89.511368 -7.994171 
L 93.686002 -10.691542 
L 93.458964 -15.431376 
L 91.07543 -20.749512 
L 90.246196 -24.54784 
L 95.631727 -24.775212 
L 97.271472 -23.940509 
L 100.645359 -24.964884 
L 100.764984 -26.808401 
L 102.736747 -26.78148 
L 103.79383 -28.224104 
L 105.78675 -28.711756 
L 106.531759 -27.928521 
L 106.233102 -26.926875 
L 108.178008 -27.062104 
L 108.383897 -27.985952 
L 107.649872 -28.967254 
L 106.332382 -28.967254 
L 107.999795 -31.83335 
L 108.332631 -35.320533 
L 111.135251 -36.469971 
L 112.125604 -38.451703 
L 114.775238 -38.228522 
L 116.348253 -39.994252 
L 113.587136 -40.616531 
L 114.890792 -44.795407 
L 116.522403 -45.005435 
L 117.768282 -46.403781 
L 122.584166 -46.025919 
L 122.995937 -47.514916 
L 126.664813 -50.223947 
L 128.239048 -48.902495 
L 130.605488 -49.432629 
L 131.553938 -47.792251 
L 133.906953 -48.688276 
L 136.779562 -47.80302 
L 137.164066 -47.330628 
L 136.370232 -45.941857 
L 137.450921 -44.715838 
L 140.812596 -46.592863 
L 143.115156 -46.763986 
L 145.22974 -46.017548 
L 147.382157 -43.711795 
L 148.515742 -43.782402 
L 148.768818 -41.319595 
L 147.792298 -40.135455 
L 149.095553 -38.711983 
L 149.45646 -37.095839 
L 147.954237 -35.996074 
L 147.605944 -34.351806 
L 150.734479 -32.44786 
L 149.921118 -30.950781 
L 151.057954 -30.438593 
L 151.968563 -27.905178 
L 155.889302 -25.869593 
L 155.275311 -22.875446 
L 157.94407 -23.046581 
L 160.767034 -21.938433 
L 161.145436 -21.512403 
L 160.428103 -21.028943 
L 160.666944 -20.174498 
L 162.95119 -18.760589 
L 162.934915 -17.550131 
L 160.867125 -17.150733 
L 160.621371 -16.038695 
L 158.209358 -14.61103 
L 154.246707 -16.10063 
L 152.392538 -15.779608 
L 151.357422 -13.838563 
L 153.828023 -11.206416 
L 153.196537 -9.995356 
L 154.36186 -8.439052 
L 153.747058 -8.020201 
L 153.879289 -5.698608 
L 154.919286 -5.004819 
L 155.430336 -3.257638 
L 148.772889 -2.778357 
L 148.94948 -2.02144 
L 147.378087 -0.911208 
L 145.594308 2.495803 
L 146.621283 5.230862 
L 145.874242 6.743793 
L 142.708685 3.876492 
L 140.189251 4.507154 
L 138.686217 3.801705 
L 136.183877 5.2527 
L 134.927826 2.499994 
L 134.162479 2.184067 
L 132.088995 3.318533 
L 131.52912 4.839546 
L 130.546089 3.076201 
L 128.41971 3.367604 
L 127.444813 1.93664 
L 126.348668 3.028936 
L 124.46235 2.388699 
L 123.541159 4.116439 
L 123.371079 2.663047 
L 120.023238 2.68309 
L 119.106929 0.723195 
L 108.216258 -1.265427 
L 97.373192 -0.703879 
L 94.149039 2.700435 
L 91.374899 2.202014 
L 91.195867 3.494751 
L 90.614835 1.855565 
L 91.748419 -2.024729 
L 91.441628 -3.071254 
z
" clip-path="url(#p9c6e51969b)" style="fill: #eeeeee; stroke: #000000; stroke-width: 0.3"/>
    <path d="M 0.411366 17.415068 
L 0.987516 17.455154 
L 2.177248 19.202346 
L 3.829197 16.56302 
L 7.312127 16.384706 
L 7.761329 15.359741 
L 11.212528 14.148681 
L 12.067793 12.881371 
L 18.287841 10.872707 
L 18.566153 10.401809 
L 17.435828 9.688567 
L 17.823183 9.05911 
L 19.355507 9.054918 
L 20.081391 9.769353 
L 19.892595 10.503529 
L 20.513499 10.403604 
L 20.387363 11.273599 
L 23.29171 11.117436 
L 23.125701 9.570695 
L 24.570139 9.351706 
L 25.557241 10.033824 
L 26.236741 12.085561 
L 29.670846 12.464917 
L 31.081923 13.206874 
L 31.164928 14.075074 
L 33.917911 13.607164 
L 34.660062 14.492721 
L 32.877914 16.360183 
L 34.01312 16.780817 
L 36.508137 19.987376 
L 39.296922 18.534586 
L 38.337489 16.051434 
L 42.520265 18.279088 
L 44.754875 17.462934 
L 45.066548 18.545956 
L 43.82148 19.174221 
L 44.16245 19.833008 
L 45.789172 21.36957 
L 47.309292 21.031505 
L 47.073301 20.522906 
L 49.356737 22.13186 
L 51.457077 22.13905 
L 51.917673 24.377472 
L 53.262012 24.901632 
L 53.614376 26.734971 
L 51.271533 27.065858 
L 48.318369 29.647742 
L 47.648632 32.096794 
L 44.906231 34.230509 
L 40.498858 34.267006 
L 38.74763 37.226451 
L 38.180432 35.896916 
L 35.39734 34.894078 
L 34.127863 35.801183 
L 31.978698 35.620473 
L 29.877547 34.121611 
L 23.464231 32.530003 
L 22.957251 35.389511 
L 21.861099 35.230951 
L 20.878886 37.549858 
L 19.166711 36.774693 
L 18.045339 37.761969 
L 15.88071 37.261152 
L 12.477934 33.266564 
L 11.049771 33.106811 
L 7.684025 29.2283 
L 4.878957 27.670201 
L 2.832331 24.041803 
L 3.938239 22.164778 
L 1.755713 20.543841 
L 0.438223 18.253962 
z
" clip-path="url(#p9c6e51969b)" style="fill: #eeeeee; stroke: #000000; stroke-width: 0.3"/>
    <path d="M -48.547028 9.261646 
L -46.270915 7.722687 
L -46.984587 7.034293 
L -45.794044 4.996902 
L -45.907969 3.588088 
L -47.970067 0.041367 
L -46.200925 -0.264383 
L -46.430412 -0.897441 
L -44.714174 -0.021761 
L -41.574246 -1.031767 
L -41.059125 -1.856304 
L -42.077155 -2.793317 
L -39.349399 -4.763679 
L -39.176878 -6.320296 
L -39.766862 -7.319533 
L -41.802103 -7.437406 
L -42.141444 -8.365156 
L -41.627142 -9.44218 
L -39.411247 -9.341363 
L -38.03842 -13.64888 
L -38.024484 -16.509025 
L -37.55096 -17.371679 
L -36.670554 -17.178047 
L -39.370729 -18.030338 
L -39.151588 -19.607253 
L -38.440341 -19.891825 
L -38.873497 -20.467082 
L -37.77651 -21.389112 
L -31.435522 -21.870616 
L -30.360321 -20.077456 
L -31.076694 -19.098887 
L -30.066207 -18.427514 
L -29.201816 -19.170976 
L -29.862443 -19.753308 
L -29.551676 -20.768142 
L -27.335915 -19.966265 
L -27.824817 -19.303843 
L -27.711404 -17.817856 
L -27.228266 -20.002067 
L -27.855572 -21.78205 
L -27.056541 -23.750478 
L -22.150219 -23.768379 
L -19.223857 -20.518446 
L -17.257992 -19.966265 
L -19.213605 -20.763441 
L -20.697609 -23.293938 
L -21.779218 -23.925735 
L -23.930258 -24.058601 
L -24.470425 -24.525979 
L -25.121438 -25.67273 
L -23.830939 -25.600652 
L -23.664985 -26.384154 
L -25.282912 -27.340573 
L -24.099424 -28.928326 
L -26.340814 -28.367669 
L -26.959789 -29.165309 
L -23.718164 -31.113486 
L -26.260077 -33.764599 
L -26.480186 -35.628946 
L -21.887537 -34.534299 
L -19.243077 -35.2812 
L -17.323351 -34.012895 
L -16.348753 -34.276729 
L -15.791925 -33.370249 
L -16.490999 -33.05365 
L -15.627892 -32.971661 
L -15.724006 -31.734444 
L -17.194553 -30.753999 
L -14.806429 -30.945756 
L -14.330346 -30.588631 
L -14.819247 -29.007004 
L -13.428792 -30.383687 
L -10.177561 -28.842573 
L -6.994886 -29.718902 
L -7.537612 -29.402767 
L -7.537612 -27.38015 
L -10.009678 -25.831036 
L -8.832599 -24.803476 
L -6.683481 -25.45931 
L -4.458107 -24.164142 
L -2.631291 -27.048001 
L 0.505882 -27.497941 
L 0.53344 -26.570735 
L 0.717338 -26.384154 
L 0.669277 -27.369787 
L 4.015347 -30.904292 
L 7.064735 -30.270133 
L 4.726593 -30.147641 
L 3.961522 -29.561072 
L 3.264369 -29.737752 
L 2.715879 -28.367669 
L 5.17256 -30.008187 
L 6.541237 -29.394291 
L 7.754841 -30.322909 
L 8.59039 -28.492987 
L 11.493053 -26.307838 
L 13.291035 -27.261421 
L 14.048414 -26.462844 
L 13.56015 -25.67273 
L 14.819249 -24.591469 
L 14.130434 -23.838107 
L 14.118899 -23.547884 
L 17.641812 -22.374745 
L 17.234285 -21.870616 
L 19.036512 -16.587981 
L 18.262614 -14.234975 
L 16.696921 -13.207902 
L 16.534983 -11.942688 
L 20.636376 -8.773227 
L 19.853534 -6.51805 
L 21.168583 -4.824711 
L 20.963513 -3.494586 
L 21.554308 -2.980893 
L 20.171718 0.177498 
L 21.326459 1.862744 
L 21.149867 3.346056 
L 23.081758 4.444026 
L 23.606634 6.744094 
L 23.080939 8.744074 
L 21.537222 11.683476 
L 20.387363 11.273599 
L 20.513499 10.403604 
L 19.892595 10.503529 
L 20.081391 9.769353 
L 19.355507 9.054918 
L 17.823183 9.05911 
L 17.435828 9.688567 
L 18.566153 10.401809 
L 18.287841 10.872707 
L 12.067793 12.881371 
L 11.212528 14.148681 
L 7.761329 15.359741 
L 7.312127 16.384706 
L 3.829197 16.56302 
L 2.177248 19.202346 
L 1.698747 18.093596 
L 0.411366 17.415068 
L 1.755713 20.543841 
L 3.938239 22.164778 
L 2.832331 24.041803 
L 4.878957 27.670201 
L 7.684025 29.2283 
L 9.091031 31.272859 
L 11.298785 33.279729 
L 12.477934 33.266564 
L 14.108325 35.34763 
L 13.327105 38.181411 
L 11.264605 37.582162 
L 10.878881 39.861585 
L 5.630069 42.90838 
L 7.616477 45.992286 
L 6.835264 47.422937 
L 8.252845 48.164894 
L 7.7003 50.40481 
L 5.944993 49.376545 
L 5.811542 48.079327 
L 3.721776 48.518811 
L 1.691425 47.939907 
L 1.719093 47.324807 
L 1.178752 48.794653 
L -3.176544 48.973267 
L -6.195627 51.239212 
L -8.223537 51.278708 
L -9.174837 49.656277 
L -12.556047 49.119554 
L -12.56337 51.214978 
L -14.676726 52.661492 
L -14.287749 51.487832 
L -15.282985 51.643104 
L -16.361232 49.539296 
L -17.651054 48.987625 
L -18.985638 49.757996 
L -22.365218 48.038037 
L -24.740611 48.203486 
L -27.287713 46.524215 
L -28.601951 48.095479 
L -26.901169 48.201692 
L -27.162387 48.940951 
L -29.848641 48.599296 
L -31.350045 49.310129 
L -34.755671 49.261672 
L -34.362624 48.893084 
L -34.942427 49.031566 
L -35.526309 47.610815 
L -34.666155 44.552649 
L -34.998173 42.89642 
L -33.645692 40.269355 
L -33.176955 37.100798 
L -30.105796 33.122964 
L -34.557112 32.205692 
L -36.324616 30.687077 
L -37.396352 31.427239 
L -39.22164 31.397319 
L -40.23071 30.250279 
L -41.717469 30.842047 
L -43.401566 27.725247 
L -44.71149 27.370785 
L -43.473177 23.430281 
L -45.047815 22.975536 
L -46.671284 20.501358 
L -46.274167 18.586042 
L -44.481436 17.411478 
L -44.777644 15.494958 
L -46.085371 15.067145 
L -45.469349 13.950024 
L -47.64293 12.011967 
L -46.928439 10.556177 
z
" clip-path="url(#p9c6e51969b)" style="fill: #eeeeee; stroke: #000000; stroke-width: 0.3"/>
    <path d="M 8.594878 -29.165309 
L 9.786696 -29.718902 
L 8.921668 -30.192868 
L 9.836041 -30.833152 
L 8.814665 -31.537038 
L 10.030828 -31.268016 
L 10.594057 -32.026079 
L 10.432591 -31.314192 
L 11.678234 -30.904292 
L 11.785883 -31.859773 
L 11.161137 -31.702406 
L 10.592136 -32.338452 
L 9.679693 -31.788633 
L 9.996231 -32.687564 
L 9.504125 -32.815243 
L 10.762578 -33.219018 
L 11.028497 -32.026079 
L 12.966166 -31.807009 
L 12.216472 -30.714423 
L 13.720341 -29.244461 
L 13.379457 -28.474148 
L 12.543262 -28.928326 
L 13.125719 -29.323614 
L 11.619921 -29.244461 
L 10.517171 -28.440222 
L 10.892014 -27.893229 
z
" clip-path="url(#p9c6e51969b)" style="fill: #eeeeee; stroke: #000000; stroke-width: 0.3"/>
    <path d="M 13.613975 -27.023975 
L 14.102239 -27.261421 
L 17.213144 -24.538229 
L 17.140439 -23.839959 
L 14.300238 -23.517258 
L 15.021091 -24.084989 
L 14.807076 -25.197826 
L 15.939944 -24.566018 
L 15.963014 -25.309481 
L 15.134512 -26.021854 
L 13.780574 -25.514437 
L 14.102239 -26.423267 
z
" clip-path="url(#p9c6e51969b)" style="fill: #eeeeee; stroke: #000000; stroke-width: 0.3"/>
    <path d="M -29.443389 -33.846577 
L -29.336378 -35.816893 
L -28.740465 -37.234564 
L -28.409195 -37.586027 
L -28.034344 -37.416421 
L -28.625131 -35.604873 
L -26.529838 -35.59781 
L -29.264609 -35.270837 
z
" clip-path="url(#p9c6e51969b)" style="fill: #eeeeee; stroke: #000000; stroke-width: 0.3"/>
    <path d="M -5.103994 -25.040459 
L -4.702876 -25.516313 
L -4.141568 -25.514437 
L -4.458107 -24.803476 
z
" clip-path="url(#p9c6e51969b)" style="fill: #eeeeee; stroke: #000000; stroke-width: 0.3"/>
    <path d="M -25.282912 -30.833152 
L -25.033654 -31.268491 
L -24.099424 -31.314192 
L -24.691487 -30.674847 
z
" clip-path="url(#p9c6e51969b)" style="fill: #eeeeee; stroke: #000000; stroke-width: 0.3"/>
    <path d="M 8.168769 -30.674847 
L 8.491079 -32.152821 
L 8.621791 -32.040692 
z
" clip-path="url(#p9c6e51969b)" style="fill: #eeeeee; stroke: #000000; stroke-width: 0.3"/>
    <path d="M -3.857714 -26.233398 
L -3.212464 -26.549059 
L -3.813503 -25.910188 
z
" clip-path="url(#p9c6e51969b)" style="fill: #eeeeee; stroke: #000000; stroke-width: 0.3"/>
    <path d="M -8.016908 -30.674847 
L -7.107023 -31.456473 
L -5.58777 -30.042101 
z
" clip-path="url(#p9c6e51969b)" style="fill: #eeeeee; stroke: #000000; stroke-width: 0.3"/>
    <path d="M -26.810488 -30.954706 
L -26.179978 -31.718431 
L -26.163963 -31.593102 
z
" clip-path="url(#p9c6e51969b)" style="fill: #eeeeee; stroke: #000000; stroke-width: 0.3"/>
    <path d="M -28.576432 -33.527616 
L -28.243879 -33.917254 
L -27.007842 -33.606769 
z
" clip-path="url(#p9c6e51969b)" style="fill: #eeeeee; stroke: #000000; stroke-width: 0.3"/>
    <path d="M -29.387636 -32.974498 
L -28.672546 -32.651287 
L -28.522608 -32.579673 
z
" clip-path="url(#p9c6e51969b)" style="fill: #eeeeee; stroke: #000000; stroke-width: 0.3"/>
    <path d="M -30.494874 -21.942706 
L -30.483347 -22.230577 
L -30.139897 -22.101011 
z
" clip-path="url(#p9c6e51969b)" style="fill: #eeeeee; stroke: #000000; stroke-width: 0.3"/>
    <path d="M -32.331304 -27.415963 
L -32.23519 -27.512078 
L -32.206994 -27.449414 
z
" clip-path="url(#p9c6e51969b)" style="fill: #eeeeee; stroke: #000000; stroke-width: 0.3"/>
    <path d="M -32.628623 -27.496053 
L -32.513281 -27.504541 
L -32.476755 -27.313722 
z
" clip-path="url(#p9c6e51969b)" style="fill: #eeeeee; stroke: #000000; stroke-width: 0.3"/>
    <path d="M -32.828536 -22.75637 
L -32.488936 -22.89205 
L -32.03271 -22.737045 
z
" clip-path="url(#p9c6e51969b)" style="fill: #eeeeee; stroke: #000000; stroke-width: 0.3"/>
    <path d="M -34.152995 -22.714906 
L -33.15661 -22.739882 
L -33.665376 -22.482636 
z
" clip-path="url(#p9c6e51969b)" style="fill: #eeeeee; stroke: #000000; stroke-width: 0.3"/>
    <path d="M -35.832439 -22.146238 
L -34.7803 -22.501949 
L -34.618188 -22.366732 
z
" clip-path="url(#p9c6e51969b)" style="fill: #eeeeee; stroke: #000000; stroke-width: 0.3"/>
    <path d="M -36.379645 -22.202302 
L -36.12719 -22.101011 
L -36.239958 -22.021858 
z
" clip-path="url(#p9c6e51969b)" style="fill: #eeeeee; stroke: #000000; stroke-width: 0.3"/>
    <path d="M -38.1898 -21.793351 
L -37.722685 -22.117974 
L -36.826902 -22.045884 
z
" clip-path="url(#p9c6e51969b)" style="fill: #eeeeee; stroke: #000000; stroke-width: 0.3"/>
    <path d="M -40.550374 -21.461665 
L -39.186193 -21.709486 
L -38.883748 -21.62657 
z
" clip-path="url(#p9c6e51969b)" style="fill: #eeeeee; stroke: #000000; stroke-width: 0.3"/>
    <path d="M -42.237503 -20.608899 
L -41.252007 -20.851544 
L -41.473715 -20.189585 
z
" clip-path="url(#p9c6e51969b)" style="fill: #eeeeee; stroke: #000000; stroke-width: 0.3"/>
    <path d="M 57.069646 111.602593 
L 60.433762 106.11272 
L 61.10431 108.199773 
L 63.110252 107.23643 
L 64.673504 109.99034 
L 66.593994 111.023387 
L 67.520066 114.151257 
L 66.741287 116.773528 
L 67.011457 118.496787 
L 66.298596 118.90905 
L 67.054589 120.634092 
L 66.738846 122.546421 
L 68.44858 126.278333 
L 70.334079 126.491938 
L 70.231548 127.991402 
L 70.963935 129.444795 
L 70.177833 131.381057 
L 68.869295 131.966249 
L 67.900098 135.763373 
L 65.147115 137.003762 
L 65.927517 138.958573 
L 65.006333 139.121915 
L 65.135722 140.124754 
L 64.251159 141.05519 
L 62.715016 140.479725 
L 62.878411 138.407643 
L 62.064641 137.935553 
L 61.726324 136.327074 
L 58.677573 134.377971 
L 57.207656 131.984567 
L 58.667321 132.818482 
L 57.970168 130.561719 
L 58.507123 130.439216 
L 57.324281 129.289627 
L 57.929162 126.335567 
L 59.049212 126.192349 
L 58.828787 125.242993 
L 58.704485 125.806949 
L 58.453306 126.034044 
L 58.995387 122.304482 
L 58.023993 120.485397 
L 58.995387 119.328746 
L 58.399482 118.495293 
L 59.754049 118.26491 
L 59.586174 115.792828 
L 57.802285 115.40414 
L 57.860622 112.487548 
z
" clip-path="url(#p9c6e51969b)" style="fill: #eeeeee; stroke: #000000; stroke-width: 0.3"/>
    <path d="M 63.074443 104.994105 
L 66.55168 103.788731 
L 66.41904 102.694651 
L 68.036809 101.126976 
L 67.557498 99.823761 
L 69.056461 99.069843 
L 69.403943 100.142085 
L 71.404185 101.065945 
L 72.726565 103.429429 
L 73.891069 103.887463 
L 73.656701 105.07848 
L 76.759599 106.197396 
L 74.7382 109.735433 
L 75.116421 110.842944 
L 73.563114 111.102667 
L 73.031726 112.636243 
L 71.450569 111.425773 
L 68.981598 112.74484 
L 68.167017 115.500846 
L 67.266982 115.163069 
L 66.744547 111.248965 
L 64.673504 109.99034 
L 63.312882 107.363877 
L 63.619673 106.132474 
z
" clip-path="url(#p9c6e51969b)" style="fill: #eeeeee; stroke: #000000; stroke-width: 0.3"/>
    <path d="M 64.713377 66.127967 
L 66.490651 65.363269 
L 68.029487 65.784517 
L 69.08983 64.280861 
L 71.812696 64.094177 
L 72.885244 62.558204 
L 73.044749 60.3868 
L 74.625898 59.233773 
L 75.657762 55.538068 
L 78.56129 51.240706 
L 78.610926 49.809753 
L 80.699062 47.42054 
L 83.570041 46.867075 
L 87.517629 43.085791 
L 90.050897 44.553842 
L 96.115101 45.414273 
L 98.564545 44.872467 
L 101.355779 47.5791 
L 102.799406 47.198552 
L 104.230821 45.396326 
L 111.406232 44.301343 
L 112.433214 41.766735 
L 115.46491 41.039738 
L 117.430162 41.850496 
L 119.246089 44.418023 
L 120.130651 47.776565 
L 122.451526 50.469733 
L 122.423858 51.456419 
L 126.334834 55.933866 
L 127.634419 59.709464 
L 127.728408 62.425373 
L 126.648947 64.668589 
L 126.442247 67.209183 
L 127.113606 71.635185 
L 126.280309 72.085136 
L 128.391223 75.219305 
L 131.381827 76.33044 
L 132.110963 76.131181 
L 132.009243 75.23665 
L 133.112718 75.726699 
L 136.200971 73.819164 
L 138.150357 74.385204 
L 139.172804 77.08474 
L 138.529475 80.562243 
L 134.893788 81.454585 
L 133.670569 82.560359 
L 133.467451 81.9116 
L 134.756659 81.227491 
L 134.012099 80.515129 
L 134.535597 79.305239 
L 133.532803 78.816197 
L 132.636375 79.614311 
L 133.240618 81.676967 
L 131.964221 83.019724 
L 132.859366 82.237624 
L 133.408501 82.42043 
L 133.566762 82.71819 
L 131.757891 83.279796 
L 131.763016 85.149758 
L 133.074019 83.351873 
L 130.791622 86.873665 
L 131.079965 90.567414 
L 130.345011 93.532787 
L 127.533108 93.293071 
L 125.6415 92.28156 
L 125.098718 90.614261 
L 123.599755 91.130629 
L 122.904791 90.192423 
L 120.93954 90.362353 
L 118.133661 88.487123 
L 111.230459 90.393465 
L 108.320419 93.640111 
L 105.344059 94.589096 
L 90.238874 91.919561 
L 85.546685 92.395241 
L 85.523899 90.600494 
L 86.666427 89.45944 
L 83.987504 87.886971 
L 82.304627 85.165077 
L 83.119208 83.98932 
L 84.573417 83.788868 
L 81.903439 82.04229 
L 79.545951 84.71692 
L 78.504324 82.911694 
L 73.792601 81.387093 
L 73.474417 80.618817 
L 74.897698 80.240063 
L 73.441867 78.97874 
L 74.559168 77.278222 
L 68.841627 73.408094 
L 68.98811 70.244619 
L 68.219093 70.35412 
z
" clip-path="url(#p9c6e51969b)" style="fill: #eeeeee; stroke: #000000; stroke-width: 0.3"/>
    <path d="M 32.04705 57.389655 
L 33.47115 55.750782 
L 35.136122 55.817487 
L 34.650299 55.521904 
L 35.318406 54.208233 
L 34.55672 53.633508 
L 35.032772 52.595679 
L 34.72354 51.205703 
L 36.352703 50.556492 
L 36.732734 49.57101 
L 36.268887 48.598693 
L 34.517659 48.143346 
L 35.777371 47.068117 
L 37.585566 47.979703 
L 39.773793 47.59736 
L 39.212288 45.804999 
L 40.635569 43.987211 
L 45.681759 47.116586 
L 52.509279 46.792878 
L 53.482546 46.160711 
L 52.905586 44.557142 
L 53.655878 43.758634 
L 58.29925 43.227897 
L 59.834833 41.593505 
L 62.239516 42.715709 
L 65.354626 40.980501 
L 66.593994 38.130557 
L 69.102845 37.630932 
L 71.536015 38.558671 
L 74.018017 37.723076 
L 76.651367 40.357319 
L 80.689291 39.55044 
L 81.360657 41.407121 
L 82.339618 41.413108 
L 83.316137 43.098365 
L 84.859044 43.16866 
L 85.458799 44.838657 
L 83.570041 46.867075 
L 80.699062 47.42054 
L 78.610926 49.809753 
L 78.56129 51.240706 
L 75.657762 55.538068 
L 74.625898 59.233773 
L 73.044749 60.3868 
L 72.885244 62.558204 
L 71.080309 64.645848 
L 69.25502 64.233585 
L 68.029487 65.784517 
L 66.490651 65.363269 
L 64.713377 66.127967 
L 59.257865 65.478756 
L 57.002097 67.594524 
L 55.624389 67.161316 
L 54.784581 68.284423 
L 52.216322 68.44956 
L 50.238048 70.369068 
L 45.936465 70.022631 
L 43.834503 68.118082 
L 41.899353 67.892505 
L 37.90212 62.957904 
L 35.363979 61.570326 
L 34.207608 59.93444 
L 33.868267 57.659811 
z
" clip-path="url(#p9c6e51969b)" style="fill: #eeeeee; stroke: #000000; stroke-width: 0.3"/>
    <path d="M 37.955827 39.988732 
L 39.379927 35.580387 
L 40.498858 34.267006 
L 44.906231 34.230509 
L 47.648632 32.096794 
L 48.318369 29.647742 
L 51.271533 27.065858 
L 54.393966 26.803784 
L 54.630776 28.136907 
L 56.043482 28.078874 
L 58.418875 25.675292 
L 59.864895 27.99003 
L 60.984685 28.091437 
L 61.115703 30.464486 
L 63.19895 30.637415 
L 63.871127 29.066742 
L 65.302542 28.108782 
L 68.230487 28.00587 
L 70.037051 29.281551 
L 71.246318 28.507289 
L 71.096583 27.844311 
L 72.726565 27.439227 
L 77.128238 28.275123 
L 78.869703 30.356792 
L 82.797773 31.807185 
L 80.992019 36.328921 
L 79.64116 37.626741 
L 79.308331 39.828678 
L 76.404802 40.274739 
L 74.018017 37.723076 
L 71.536015 38.558671 
L 69.102845 37.630932 
L 66.82104 38.0414 
L 65.354626 40.980501 
L 62.239516 42.715709 
L 59.834833 41.593505 
L 58.29925 43.227897 
L 53.655878 43.758634 
L 52.905586 44.557142 
L 53.482546 46.160711 
L 52.509279 46.792878 
L 45.022605 46.938574 
L 41.840764 44.236722 
L 39.729031 43.808897 
z
" clip-path="url(#p9c6e51969b)" style="fill: #eeeeee; stroke: #000000; stroke-width: 0.3"/>
    <path d="M 16.534983 -11.942688 
L 16.696921 -13.207902 
L 18.262614 -14.234975 
L 19.036512 -16.587981 
L 17.637127 -21.77684 
L 17.875693 -22.345532 
L 20.209354 -20.600423 
L 20.470785 -21.230807 
L 19.849881 -21.823977 
L 20.524609 -23.531396 
L 18.959861 -24.164142 
L 18.069842 -23.145533 
L 16.939423 -24.167882 
L 32.717692 -28.296055 
L 35.791434 -31.702406 
L 41.837032 -33.923379 
L 48.253632 -34.957527 
L 49.727391 -34.901462 
L 52.972858 -33.241157 
L 53.630918 -32.233861 
L 50.646881 -34.370957 
L 50.306643 -33.894629 
L 51.68428 -30.272021 
L 54.029477 -29.305238 
L 59.727137 -30.539155 
L 84.047722 -29.221547 
L 85.143867 -29.892897 
L 89.958129 -27.044747 
L 91.07543 -20.749512 
L 93.458964 -15.431376 
L 93.686002 -10.691542 
L 89.511368 -7.994171 
L 87.72677 -5.444002 
L 91.441628 -3.071254 
L 91.748419 -2.024729 
L 90.701099 2.622359 
L 91.915239 4.802737 
L 91.423724 5.957559 
L 95.423397 11.147946 
L 93.962684 11.708602 
L 94.934322 12.808969 
L 95.144274 14.802072 
L 94.149039 16.377528 
L 91.793992 16.800558 
L 83.791386 26.073799 
L 84.357765 29.45448 
L 83.916704 30.776233 
L 85.268374 31.66179 
L 85.283019 32.712496 
L 78.869703 30.356792 
L 77.98514 28.81305 
L 75.408748 27.704903 
L 71.21702 27.789266 
L 70.037051 29.281551 
L 68.230487 28.00587 
L 65.302542 28.108782 
L 63.871127 29.066742 
L 63.19895 30.637415 
L 60.917144 30.394481 
L 60.984685 28.091437 
L 59.864895 27.99003 
L 58.528729 25.718377 
L 56.043482 28.078874 
L 54.630776 28.136907 
L 54.621823 26.937218 
L 53.614376 26.734971 
L 53.262012 24.901632 
L 51.917673 24.377472 
L 51.457077 22.13905 
L 49.356737 22.13186 
L 47.073301 20.522906 
L 47.309292 21.031505 
L 45.789172 21.36957 
L 44.16245 19.833008 
L 43.82148 19.174221 
L 45.066548 18.545956 
L 44.754875 17.462934 
L 42.520265 18.279088 
L 38.337489 16.051434 
L 39.296922 18.534586 
L 36.508137 19.987376 
L 34.01312 16.780817 
L 32.877914 16.360183 
L 34.660062 14.492721 
L 33.917911 13.607164 
L 31.164928 14.075074 
L 31.081923 13.206874 
L 29.670846 12.464917 
L 26.236741 12.085561 
L 25.557241 10.033824 
L 24.570139 9.351706 
L 23.125701 9.570695 
L 23.29171 11.117436 
L 21.94004 11.124615 
L 23.586297 6.339902 
L 23.000375 4.284575 
L 21.149867 3.346056 
L 21.326459 1.862744 
L 20.171718 0.177498 
L 21.554308 -2.980893 
L 20.963513 -3.494586 
L 21.168583 -4.824711 
L 19.853534 -6.51805 
L 20.636376 -8.773227 
z
" clip-path="url(#p9c6e51969b)" style="fill: #eeeeee; stroke: #000000; stroke-width: 0.3"/>
    <path d="M -19.705822 52.757828 
L -18.695122 51.056719 
L -19.498531 49.611339 
L -17.651054 48.987625 
L -15.757414 50.150818 
L -15.282985 51.643104 
L -14.287749 51.487832 
L -14.676726 52.661492 
L -12.56337 51.214978 
L -12.556047 49.119554 
L -9.174837 49.656277 
L -8.223537 51.278708 
L -6.195627 51.239212 
L -3.176544 48.973267 
L 1.178752 48.794653 
L 1.20235 47.628171 
L 1.719093 47.324807 
L 1.691425 47.939907 
L 3.721776 48.518811 
L 5.811542 48.079327 
L 5.944993 49.376545 
L 7.7003 50.40481 
L 8.252845 48.164894 
L 6.835264 47.422937 
L 7.616477 45.992286 
L 5.678083 42.82521 
L 10.878881 39.861585 
L 11.264605 37.582162 
L 13.327105 38.181411 
L 14.108325 35.34763 
L 16.148439 37.370653 
L 18.121021 37.753598 
L 19.166711 36.774693 
L 20.878886 37.549858 
L 21.861099 35.230951 
L 22.957251 35.389511 
L 23.29171 32.551539 
L 29.877547 34.121611 
L 31.978698 35.620473 
L 34.127863 35.801183 
L 35.39734 34.894078 
L 38.180432 35.896916 
L 38.74763 37.226451 
L 37.955827 39.988732 
L 40.348313 44.158936 
L 39.212288 45.804999 
L 39.773793 47.59736 
L 37.585566 47.979703 
L 35.777371 47.068117 
L 34.517659 48.143346 
L 36.268887 48.598693 
L 36.732734 49.57101 
L 36.352703 50.556492 
L 34.72354 51.205703 
L 35.032772 52.595679 
L 34.55672 53.633508 
L 35.318406 54.208233 
L 34.650299 55.521904 
L 35.136122 55.817487 
L 33.47115 55.750782 
L 31.162487 57.795943 
L 31.438318 59.613742 
L 30.131442 58.990839 
L 28.440424 59.071022 
L 27.075738 60.262641 
L 23.920756 59.858449 
L 22.254965 60.419105 
L 19.813662 62.995304 
L 3.000781 59.388744 
L 1.91114 57.32743 
L 0.810925 56.855931 
L 1.234089 54.814058 
L -2.275699 56.140906 
L -6.687954 56.219283 
L -8.086015 58.47417 
L -12.106845 57.579639 
L -12.995479 55.844118 
L -15.059198 57.570955 
L -16.918667 56.641121 
L -17.053748 55.621528 
L -19.233022 55.142259 
z
" clip-path="url(#p9c6e51969b)" style="fill: #eeeeee; stroke: #000000; stroke-width: 0.3"/>
    <path d="M -42.684634 77.76049 
L -38.703268 75.957071 
L -38.291497 74.200314 
L -39.691999 73.040108 
L -39.844985 71.539451 
L -41.273148 69.956215 
L -39.38276 68.244928 
L -38.347652 68.809174 
L -35.296011 67.563412 
L -32.913297 68.314933 
L -30.812145 65.909568 
L -30.99524 64.232393 
L -28.540103 62.143846 
L -28.233312 64.654231 
L -25.313509 66.34038 
L -25.636575 67.575373 
L -24.825245 67.992429 
L -24.596577 69.389572 
L -23.790129 69.455397 
L -23.312448 68.549485 
L -23.79257 66.924368 
L -22.038901 64.7027 
L -21.586447 61.620589 
L -20.386952 61.60952 
L -19.585386 63.92185 
L -16.577696 63.082063 
L -15.33914 64.831942 
L -14.684056 64.340689 
L -15.213003 63.570619 
L -14.827279 62.714379 
L -15.728116 62.212358 
L -15.677662 61.208326 
L -14.42283 60.121727 
L -12.439674 61.153281 
L -12.320868 60.159416 
L -13.028847 59.593978 
L -12.36237 57.370515 
L -8.086015 58.47417 
L -6.687954 56.219283 
L -2.275699 56.140906 
L 1.234089 54.814058 
L 0.810925 56.855931 
L 1.91114 57.32743 
L 3.000781 59.388744 
L 13.204629 61.361502 
L 10.561508 64.018185 
L 10.914682 64.971351 
L 12.704161 65.290879 
L 11.321571 67.305518 
L 12.455966 67.548453 
L 12.141853 69.344102 
L 13.81699 70.350519 
L 14.73004 71.642364 
L 14.36059 72.188651 
L 13.289752 72.089698 
L 14.048414 71.845178 
L 12.206858 69.815498 
L 10.848441 71.137517 
L 10.594057 70.336578 
L 8.624995 70.019967 
L 8.354597 71.525742 
L 3.147752 73.886159 
L 4.392111 72.556601 
L 2.935658 72.714432 
L 1.028105 75.328794 
L 1.626577 76.593348 
L 2.231458 76.287101 
L 2.715879 78.831273 
L 2.715879 78.198527 
L 4.015347 79.305239 
L 3.31243 81.036684 
L 3.015757 80.216894 
L 3.088801 81.235978 
L 1.909156 80.965544 
L 2.715879 87.634554 
L 5.257147 90.645628 
L 12.532373 95.626069 
L 16.152683 106.76104 
L 21.143584 111.662803 
L 21.391558 112.714863 
L 24.735061 114.530636 
L 32.412688 114.622039 
L 32.75806 116.246543 
L 30.519875 118.156544 
L 31.000446 119.953479 
L 39.630247 124.325675 
L 42.928894 127.240159 
L 47.109229 129.317903 
L 51.117847 135.240151 
L 50.118257 138.970187 
L 47.617358 137.876663 
L 45.976361 133.544982 
L 43.212111 133.335799 
L 40.756706 131.984567 
L 41.725541 131.080437 
L 38.992045 131.148289 
L 36.068242 135.874309 
L 36.27969 137.243454 
L 35.162845 139.45499 
L 35.604969 140.778897 
L 40.429916 143.727782 
L 40.537565 148.888192 
L 35.917665 150.771817 
L 35.791434 155.036597 
L 32.640797 158.351557 
L 31.914173 160.705848 
L 28.821849 160.548017 
L 28.415606 157.459214 
L 29.832974 156.529172 
L 30.659562 154.026 
L 30.020076 152.495262 
L 32.508165 151.546855 
L 33.052167 150.091494 
L 29.530537 138.113183 
L 28.348325 135.951574 
L 26.661952 136.922062 
L 25.489881 136.512242 
L 24.434546 134.888213 
L 22.733315 134.054286 
L 23.419303 132.248991 
L 21.716427 129.095995 
L 18.256945 130.245109 
L 19.292423 128.40341 
L 17.875693 127.140281 
L 15.934802 127.70976 
L 15.727307 126.178582 
L 13.369205 122.351121 
L 11.968498 122.881163 
L 9.935997 121.849355 
L 8.036775 122.638993 
L 6.847516 120.649827 
L 4.81374 120.091996 
L 1.693858 116.748298 
L -0.027868 113.774924 
L -1.546476 113.29907 
L -2.879265 110.459975 
L -5.096309 108.983414 
L -7.222357 109.164332 
L -6.57806 108.133762 
L -6.814193 107.163866 
L -8.505809 105.091784 
L -10.177561 104.38036 
L -9.923815 103.062104 
L -12.002456 102.804858 
L -11.776906 99.258566 
L -13.43776 96.411933 
L -13.954219 92.312996 
L -15.222286 90.243265 
L -17.158035 89.279308 
L -17.25607 90.047271 
L -21.993233 86.441626 
L -22.150219 87.001808 
L -25.680187 85.533733 
L -28.013203 87.014058 
L -31.149738 91.73349 
L -35.601763 92.942917 
L -35.794039 92.094273 
L -34.124185 89.75742 
L -34.394355 88.498493 
L -36.874727 89.105221 
L -39.766051 87.64883 
L -40.849992 84.353716 
L -39.872653 82.626879 
L -39.122361 82.607126 
L -39.517849 80.950294 
L -41.561223 80.025844 
z
M 3.378884 114.807219 
L 3.386789 114.820685 
L 3.38638 114.807832 
z
M 2.927115 91.134461 
L 3.577742 91.497699 
L 3.608237 90.738953 
z
" clip-path="url(#p9c6e51969b)" style="fill: #eeeeee; stroke: #000000; stroke-width: 0.3"/>
    <path d="M -30.52307 129.983625 
L -30.162967 125.692933 
L -29.240264 127.002713 
L -27.584535 127.27691 
L -25.206663 125.883276 
L -21.993233 122.232393 
L -20.483594 123.180799 
L -20.32212 124.20837 
L -19.403267 123.813082 
L -19.778756 125.085162 
L -18.592064 125.242993 
L -19.83899 126.119784 
L -18.108926 127.069141 
L -18.629227 127.590695 
L -17.507887 131.577966 
L -18.879123 133.806002 
L -18.043566 135.880434 
L -19.349443 146.703044 
L -19.726215 147.220349 
L -23.699582 145.375362 
L -23.180563 145.83049 
L -23.606672 148.485366 
L -24.964452 149.843674 
L -26.040936 149.211402 
L -26.636203 150.001979 
L -27.276965 147.774417 
L -28.74752 145.859691 
L -28.18685 139.665597 
L -27.612723 140.301157 
L -27.228266 140.313407 
L -27.711404 140.076899 
L -27.31157 138.557936 
L -28.576432 137.863475 
L -28.712915 136.461353 
L -27.824817 135.642513 
L -28.691774 131.425323 
L -29.387636 129.95865 
z
" clip-path="url(#p9c6e51969b)" style="fill: #eeeeee; stroke: #000000; stroke-width: 0.3"/>
    <path d="M 3.174026 162.360028 
L 3.693045 159.761679 
L 5.359662 158.726582 
L 5.573677 157.7777 
L 6.907112 159.684888 
L 8.168769 159.043192 
L 8.480182 157.808801 
L 10.190381 157.454965 
L 10.767066 158.81516 
L 13.911931 160.315272 
L 15.720803 159.438006 
L 19.58845 159.495957 
L 22.701277 157.83659 
L 24.125054 158.524937 
L 25.30022 156.943785 
L 25.730809 157.612807 
L 28.563623 156.822231 
L 25.11055 162.771804 
L 24.153888 166.059913 
L 24.248081 167.770157 
L 25.416837 168.604548 
L 24.877315 169.186405 
L 26.049906 171.454017 
L 24.679953 172.466026 
L 24.17247 175.584043 
L 19.396222 173.981215 
L 17.754587 171.078981 
L 13.32179 169.604306 
L 9.05623 165.94966 
L 5.003401 165.045067 
z
" clip-path="url(#p9c6e51969b)" style="fill: #eeeeee; stroke: #000000; stroke-width: 0.3"/>
    <path d="M -15.09478 104.924992 
L -14.888449 104.29367 
L -12.44458 103.905445 
L -12.66372 105.486597 
z
" clip-path="url(#p9c6e51969b)" style="fill: #eeeeee; stroke: #000000; stroke-width: 0.3"/>
    <path d="M -20.36826 123.120497 
L -20.070941 122.540052 
L -20.070303 123.197762 
L -20.152961 123.27409 
z
" clip-path="url(#p9c6e51969b)" style="fill: #eeeeee; stroke: #000000; stroke-width: 0.3"/>
    <path d="M -29.872057 146.430248 
L -29.274869 146.19279 
L -29.274869 147.220349 
L -29.677262 147.190673 
z
" clip-path="url(#p9c6e51969b)" style="fill: #eeeeee; stroke: #000000; stroke-width: 0.3"/>
    <path d="M 24.905503 150.874058 
L 25.102857 150.625763 
L 25.145155 151.059214 
z
" clip-path="url(#p9c6e51969b)" style="fill: #eeeeee; stroke: #000000; stroke-width: 0.3"/>
    <path d="M 23.025508 155.419634 
L 23.490702 155.636829 
L 23.329228 155.794197 
z
" clip-path="url(#p9c6e51969b)" style="fill: #eeeeee; stroke: #000000; stroke-width: 0.3"/>
    <path d="M 22.840965 153.961449 
L 23.270278 154.364749 
L 23.167755 154.759563 
z
" clip-path="url(#p9c6e51969b)" style="fill: #eeeeee; stroke: #000000; stroke-width: 0.3"/>
    <path d="M 21.809337 153.391367 
L 22.385385 153.281125 
L 22.343733 153.765454 
z
" clip-path="url(#p9c6e51969b)" style="fill: #eeeeee; stroke: #000000; stroke-width: 0.3"/>
    <path d="M 19.830661 153.214698 
L 19.999819 153.241549 
L 19.90243 153.507271 
z
" clip-path="url(#p9c6e51969b)" style="fill: #eeeeee; stroke: #000000; stroke-width: 0.3"/>
    <path d="M 18.258228 153.673114 
L 18.371641 153.627412 
L 18.400475 153.76828 
z
" clip-path="url(#p9c6e51969b)" style="fill: #eeeeee; stroke: #000000; stroke-width: 0.3"/>
    <path d="M 14.371362 128.570203 
L 14.479011 128.02461 
L 15.290214 128.341221 
z
" clip-path="url(#p9c6e51969b)" style="fill: #eeeeee; stroke: #000000; stroke-width: 0.3"/>
    <path d="M 10.950964 127.752764 
L 11.025292 127.586458 
L 11.086809 127.57232 
z
" clip-path="url(#p9c6e51969b)" style="fill: #eeeeee; stroke: #000000; stroke-width: 0.3"/>
    <path d="M 8.894118 151.96522 
L 9.147856 151.70186 
L 9.240128 151.808339 
z
" clip-path="url(#p9c6e51969b)" style="fill: #eeeeee; stroke: #000000; stroke-width: 0.3"/>
    <path d="M 6.472027 184.757173 
L 6.693735 184.713834 
L 6.6822 184.87779 
z
" clip-path="url(#p9c6e51969b)" style="fill: #eeeeee; stroke: #000000; stroke-width: 0.3"/>
    <path d="M 3.954475 188.763769 
L 4.187072 188.711004 
L 4.623432 189.081317 
z
" clip-path="url(#p9c6e51969b)" style="fill: #eeeeee; stroke: #000000; stroke-width: 0.3"/>
    <path d="M 2.34295 74.928793 
L 2.87607 73.93846 
L 3.204781 74.145292 
z
" clip-path="url(#p9c6e51969b)" style="fill: #eeeeee; stroke: #000000; stroke-width: 0.3"/>
    <path d="M 2.336548 73.981336 
L 2.676149 73.751891 
L 2.662693 73.885221 
z
" clip-path="url(#p9c6e51969b)" style="fill: #eeeeee; stroke: #000000; stroke-width: 0.3"/>
    <path d="M 2.171232 160.944718 
L 2.285928 160.630933 
L 2.715879 160.875465 
z
" clip-path="url(#p9c6e51969b)" style="fill: #eeeeee; stroke: #000000; stroke-width: 0.3"/>
    <path d="M 0.051585 160.190893 
L 0.233562 160.097603 
L 0.436042 160.585706 
z
" clip-path="url(#p9c6e51969b)" style="fill: #eeeeee; stroke: #000000; stroke-width: 0.3"/>
    <path d="M -0.778846 173.765907 
L 0.217539 174.016078 
L 0.052869 174.583335 
z
" clip-path="url(#p9c6e51969b)" style="fill: #eeeeee; stroke: #000000; stroke-width: 0.3"/>
    <path d="M -9.149776 109.453617 
L -8.536123 109.86603 
L -8.665512 110.004188 
z
" clip-path="url(#p9c6e51969b)" style="fill: #eeeeee; stroke: #000000; stroke-width: 0.3"/>
    <path d="M -13.617178 109.896482 
L -13.448011 109.749015 
L -13.46916 109.944071 
z
" clip-path="url(#p9c6e51969b)" style="fill: #eeeeee; stroke: #000000; stroke-width: 0.3"/>
    <path d="M -15.539462 106.956559 
L -15.31007 106.586246 
L -15.260096 107.066337 
z
" clip-path="url(#p9c6e51969b)" style="fill: #eeeeee; stroke: #000000; stroke-width: 0.3"/>
    <path d="M -17.498486 102.025513 
L -17.455606 101.346962 
L -17.178585 101.826925 
z
" clip-path="url(#p9c6e51969b)" style="fill: #eeeeee; stroke: #000000; stroke-width: 0.3"/>
    <path d="M -20.871901 122.611667 
L -20.54767 122.234755 
L -20.696971 122.834987 
z
" clip-path="url(#p9c6e51969b)" style="fill: #eeeeee; stroke: #000000; stroke-width: 0.3"/>
    <path d="M -28.95833 147.299502 
L -27.872878 147.623175 
L -28.455973 148.873117 
z
" clip-path="url(#p9c6e51969b)" style="fill: #eeeeee; stroke: #000000; stroke-width: 0.3"/>
    <path d="M -30.032247 125.322145 
L -29.114678 123.813082 
L -29.742621 125.347121 
z
" clip-path="url(#p9c6e51969b)" style="fill: #eeeeee; stroke: #000000; stroke-width: 0.3"/>
    <path d="M 53.788526 69.031162 
L 55.442916 67.240295 
L 57.002097 67.594524 
L 59.257865 65.478756 
L 64.713377 66.127967 
L 68.219093 70.35412 
L 68.98811 70.244619 
L 68.841627 73.408094 
L 74.559168 77.278222 
L 73.441867 78.97874 
L 74.897698 80.240063 
L 73.474417 80.618817 
L 73.792601 81.387093 
L 78.504324 82.911694 
L 79.545951 84.71692 
L 81.903439 82.04229 
L 84.573417 83.788868 
L 82.360774 84.750417 
L 83.994598 87.8921 
L 83.217677 89.796915 
L 81.695116 90.614261 
L 81.300431 92.761142 
L 82.634204 96.624681 
L 86.301048 100.093917 
L 84.27313 103.425539 
L 81.914013 104.273998 
L 82.351011 105.198448 
L 81.897738 107.061706 
L 82.773356 108.155496 
L 81.887164 109.921226 
L 80.665693 109.406642 
L 75.202859 110.89235 
L 74.7382 109.735433 
L 75.536507 109.217861 
L 76.693688 105.941296 
L 73.656701 105.07848 
L 73.891069 103.887463 
L 72.726565 103.429429 
L 71.404185 101.065945 
L 69.403943 100.142085 
L 69.253398 99.135367 
L 67.557498 99.823761 
L 67.8708 101.510813 
L 66.41904 102.694651 
L 66.55168 103.788731 
L 65.520635 104.113932 
L 65.455536 103.193072 
L 62.243587 100.796981 
L 59.637085 100.075669 
L 56.312834 96.547798 
L 56.917471 95.30023 
L 58.782624 95.580263 
L 58.922595 94.622304 
L 56.845041 90.513734 
L 59.089415 90.800946 
L 59.800654 90.12361 
L 55.846546 86.557437 
L 55.950707 84.535619 
L 57.893179 80.54462 
L 56.399098 79.797279 
L 55.05231 80.514098 
L 54.860255 79.943276 
L 55.964541 79.500492 
L 55.280978 77.369173 
L 58.138933 76.606282 
L 54.750511 74.660166 
L 55.003485 73.18431 
L 55.76436 73.034122 
L 54.168558 72.322687 
L 54.679601 71.215141 
z
" clip-path="url(#p9c6e51969b)" style="fill: #eeeeee; stroke: #000000; stroke-width: 0.3"/>
    <path d="M 11.678234 73.031042 
L 14.685286 74.053113 
L 15.337929 73.004202 
L 18.494542 73.42545 
L 20.133468 71.225909 
L 21.835879 73.572038 
L 22.823792 72.995831 
L 24.529455 73.978916 
L 25.99342 73.715047 
L 25.547477 71.9918 
L 26.375893 71.545426 
L 25.440875 70.581492 
L 28.756167 69.212463 
L 28.928687 66.960273 
L 28.077485 66.065141 
L 28.470533 64.97494 
L 31.457884 63.919453 
L 31.763045 63.008168 
L 33.476842 63.058732 
L 33.156217 61.667263 
L 34.016372 61.046177 
L 37.90212 62.957904 
L 41.464803 67.557426 
L 43.834503 68.118082 
L 45.936465 70.022631 
L 50.238048 70.369068 
L 52.216322 68.44956 
L 54.150653 68.176115 
L 53.707144 69.51343 
L 54.679601 71.215141 
L 54.168558 72.322687 
L 55.76436 73.034122 
L 55.003485 73.18431 
L 54.750511 74.660166 
L 58.138933 76.606282 
L 55.887237 76.691247 
L 55.280978 77.369173 
L 55.964541 79.500492 
L 54.058696 80.565566 
L 52.440108 77.976503 
L 51.125059 78.31157 
L 48.927069 77.135224 
L 45.760693 78.212247 
L 44.571772 77.059823 
L 40.653474 77.238136 
L 38.584872 75.663873 
L 37.697869 76.859973 
L 35.471392 76.384884 
L 33.796656 78.944027 
L 31.467648 76.481219 
L 29.671657 76.76065 
L 29.168748 81.631822 
L 31.529496 83.303613 
L 31.354534 84.272943 
L 32.223641 84.499111 
L 33.880472 89.583298 
L 39.420618 95.765153 
L 41.310187 96.75243 
L 41.463173 98.602535 
L 44.128271 101.576627 
L 44.176284 102.690159 
L 43.240306 102.591901 
L 43.132657 101.757036 
L 38.24043 97.415466 
L 34.388798 96.201326 
L 34.722642 95.750448 
L 30.987628 96.280479 
L 30.916505 94.143382 
L 28.994212 93.276479 
L 24.571029 88.273899 
L 24.540274 87.266591 
L 25.757721 87.634554 
L 25.489881 86.686147 
L 26.775255 87.434322 
L 27.595426 87.390033 
L 23.490702 83.94033 
L 22.518025 82.158471 
L 22.815973 79.435268 
L 22.273893 77.873904 
L 20.053644 75.558239 
L 18.012175 74.975444 
L 16.751155 79.219023 
L 16.101418 79.542696 
L 16.219318 79.115833 
L 15.876513 78.507124 
L 15.559337 81.122899 
L 14.694301 80.886391 
L 14.913442 81.525725 
L 14.796825 81.593577 
L 12.592599 78.112311 
L 13.40381 77.400876 
L 12.377946 77.274609 
L 12.48495 75.251529 
z
" clip-path="url(#p9c6e51969b)" style="fill: #eeeeee; stroke: #000000; stroke-width: 0.3"/>
    <path d="M 39.193241 101.519578 
L 45.018424 103.97706 
L 44.324475 103.378703 
L 45.571897 103.159563 
L 45.939717 104.235104 
L 50.497643 107.219675 
L 50.962782 108.87411 
L 46.210242 104.537716 
L 44.85695 104.127827 
L 45.179252 104.67812 
L 45.075453 104.755386 
L 40.864355 102.317229 
L 39.543739 102.17305 
z
" clip-path="url(#p9c6e51969b)" style="fill: #eeeeee; stroke: #000000; stroke-width: 0.3"/>
    <path d="M 17.752028 77.645871 
L 18.028836 76.961773 
L 19.287297 79.289213 
L 19.605757 82.869895 
L 18.928469 82.93491 
L 17.875693 80.016188 
L 18.798395 79.463544 
z
" clip-path="url(#p9c6e51969b)" style="fill: #eeeeee; stroke: #000000; stroke-width: 0.3"/>
    <path d="M 18.906037 77.946931 
L 19.733263 77.397113 
L 19.880643 76.078382 
L 21.975936 79.219023 
L 21.255076 79.614311 
z
" clip-path="url(#p9c6e51969b)" style="fill: #eeeeee; stroke: #000000; stroke-width: 0.3"/>
    <path d="M 34.501573 98.26352 
L 34.663046 97.552571 
L 38.332701 98.500977 
L 34.628449 98.438788 
z
" clip-path="url(#p9c6e51969b)" style="fill: #eeeeee; stroke: #000000; stroke-width: 0.3"/>
    <path d="M 31.69119 101.361273 
L 32.331951 101.091788 
L 33.205956 101.282595 
L 31.992989 101.983181 
z
" clip-path="url(#p9c6e51969b)" style="fill: #eeeeee; stroke: #000000; stroke-width: 0.3"/>
    <path d="M 23.925141 88.662113 
L 25.210507 89.770237 
L 25.436057 90.329956 
L 24.392256 89.469177 
z
" clip-path="url(#p9c6e51969b)" style="fill: #eeeeee; stroke: #000000; stroke-width: 0.3"/>
    <path d="M 20.739262 81.288268 
L 21.281988 81.288268 
L 20.959048 80.728086 
L 22.32323 82.231024 
z
" clip-path="url(#p9c6e51969b)" style="fill: #eeeeee; stroke: #000000; stroke-width: 0.3"/>
    <path d="M 41.729383 104.537716 
L 42.26955 104.411924 
L 45.076728 105.65244 
z
" clip-path="url(#p9c6e51969b)" style="fill: #eeeeee; stroke: #000000; stroke-width: 0.3"/>
    <path d="M 37.769464 105.171874 
L 38.558889 104.696021 
L 38.679349 104.946667 
z
" clip-path="url(#p9c6e51969b)" style="fill: #eeeeee; stroke: #000000; stroke-width: 0.3"/>
    <path d="M 36.280335 102.317229 
L 40.756706 103.021578 
L 38.010392 103.265636 
z
" clip-path="url(#p9c6e51969b)" style="fill: #eeeeee; stroke: #000000; stroke-width: 0.3"/>
    <path d="M 34.232457 99.85221 
L 40.702881 100.642312 
L 38.733496 100.642312 
z
" clip-path="url(#p9c6e51969b)" style="fill: #eeeeee; stroke: #000000; stroke-width: 0.3"/>
    <path d="M 32.97143 96.441609 
L 33.38857 96.1773 
L 34.261291 96.440197 
z
" clip-path="url(#p9c6e51969b)" style="fill: #eeeeee; stroke: #000000; stroke-width: 0.3"/>
    <path d="M 32.884929 97.402741 
L 33.487889 97.346202 
L 34.051756 98.194267 
z
" clip-path="url(#p9c6e51969b)" style="fill: #eeeeee; stroke: #000000; stroke-width: 0.3"/>
    <path d="M 28.186851 94.303575 
L 29.262697 94.850094 
L 28.724451 94.735139 
z
" clip-path="url(#p9c6e51969b)" style="fill: #eeeeee; stroke: #000000; stroke-width: 0.3"/>
    <path d="M 25.489881 90.409108 
L 26.945059 91.839494 
L 26.256874 91.470594 
z
" clip-path="url(#p9c6e51969b)" style="fill: #eeeeee; stroke: #000000; stroke-width: 0.3"/>
    <path d="M 25.22653 91.990736 
L 25.53025 92.192855 
L 26.548421 93.172362 
z
" clip-path="url(#p9c6e51969b)" style="fill: #eeeeee; stroke: #000000; stroke-width: 0.3"/>
    <path d="M 22.248902 88.503808 
L 23.490702 89.460227 
L 24.964454 92.011936 
z
" clip-path="url(#p9c6e51969b)" style="fill: #eeeeee; stroke: #000000; stroke-width: 0.3"/>
    <path d="M 22.034887 88.58391 
L 22.402683 88.909934 
L 22.073972 88.708764 
z
" clip-path="url(#p9c6e51969b)" style="fill: #eeeeee; stroke: #000000; stroke-width: 0.3"/>
    <path d="M 21.513309 86.322422 
L 21.570331 85.72784 
L 21.883665 85.841857 
z
" clip-path="url(#p9c6e51969b)" style="fill: #eeeeee; stroke: #000000; stroke-width: 0.3"/>
    <path d="M 21.453076 87.507349 
L 21.792676 87.381557 
L 21.777299 87.446572 
z
" clip-path="url(#p9c6e51969b)" style="fill: #eeeeee; stroke: #000000; stroke-width: 0.3"/>
    <path d="M 21.335813 82.394991 
L 25.436057 86.599931 
L 24.446719 86.924542 
z
" clip-path="url(#p9c6e51969b)" style="fill: #eeeeee; stroke: #000000; stroke-width: 0.3"/>
    <path d="M 20.244597 86.517953 
L 20.626487 86.765299 
L 20.76682 86.963181 
z
" clip-path="url(#p9c6e51969b)" style="fill: #eeeeee; stroke: #000000; stroke-width: 0.3"/>
    <path d="M 18.20312 82.237624 
L 19.766585 84.932088 
L 18.417781 83.897454 
z
" clip-path="url(#p9c6e51969b)" style="fill: #eeeeee; stroke: #000000; stroke-width: 0.3"/>
    <path d="M 17.390633 83.288271 
L 17.767406 82.691802 
L 17.694353 83.444689 
z
" clip-path="url(#p9c6e51969b)" style="fill: #eeeeee; stroke: #000000; stroke-width: 0.3"/>
    <path d="M 10.561508 64.018185 
L 13.204629 61.361502 
L 19.813662 62.995304 
L 22.254965 60.419105 
L 23.920756 59.858449 
L 27.075738 60.262641 
L 28.440424 59.071022 
L 30.131442 58.990839 
L 31.438318 59.613742 
L 31.085994 57.877608 
L 32.04705 57.389655 
L 33.868267 57.659811 
L 34.270267 60.095397 
L 35.250046 61.071303 
L 33.384885 61.40578 
L 33.476842 63.058732 
L 31.763045 63.008168 
L 31.457884 63.919453 
L 28.470533 64.97494 
L 28.077485 66.065141 
L 28.928687 66.960273 
L 28.756167 69.212463 
L 25.440875 70.581492 
L 26.375893 71.545426 
L 25.547477 71.9918 
L 25.99342 73.715047 
L 24.529455 73.978916 
L 22.823792 72.995831 
L 21.835879 73.572038 
L 20.133468 71.225909 
L 18.494542 73.42545 
L 12.747711 73.638674 
L 12.162648 72.714432 
L 14.73004 71.642364 
L 12.262289 69.588229 
L 12.455966 67.548453 
L 11.321571 67.305518 
L 12.704161 65.290879 
L 10.914682 64.971351 
z
" clip-path="url(#p9c6e51969b)" style="fill: #eeeeee; stroke: #000000; stroke-width: 0.3"/>
    <path d="M 81.265441 110.065428 
L 82.746499 108.396335 
L 81.897738 107.061706 
L 82.351011 105.198448 
L 81.914013 104.273998 
L 84.27313 103.425539 
L 86.275821 99.8118 
L 82.634204 96.624681 
L 81.300431 92.761142 
L 81.695116 90.614261 
L 83.217677 89.796915 
L 83.994598 87.8921 
L 86.666427 89.45944 
L 85.523899 90.600494 
L 85.546685 92.395241 
L 90.238874 91.919561 
L 105.344059 94.589096 
L 108.320419 93.640111 
L 111.230459 90.393465 
L 118.133661 88.487123 
L 120.93954 90.362353 
L 122.904791 90.192423 
L 123.599755 91.130629 
L 125.098718 90.614261 
L 125.6415 92.28156 
L 127.533108 93.293071 
L 130.345011 93.532787 
L 130.202756 96.860935 
L 129.516501 97.868231 
L 128.323399 97.156808 
L 126.726621 97.582247 
L 125.929512 99.42112 
L 125.035004 99.773057 
L 124.942733 105.467747 
L 123.686201 105.421583 
L 122.865383 106.411916 
L 123.036463 107.233118 
L 121.48325 108.13536 
L 123.578551 108.892949 
L 123.868815 110.701671 
L 125.923102 114.012381 
L 124.310175 113.75605 
L 122.219598 114.839072 
L 120.069622 112.632352 
L 118.283805 112.734373 
L 117.436264 113.738404 
L 114.812669 114.071977 
L 114.186072 115.729712 
L 112.674897 116.131507 
L 112.668393 117.017366 
L 110.466333 117.150788 
L 111.426577 120.272683 
L 109.114663 121.753008 
L 104.052607 122.484185 
L 101.275216 120.634682 
L 100.393905 121.243205 
L 98.866455 120.172758 
L 98.313091 118.770232 
L 94.899331 119.067007 
L 94.569754 120.047707 
L 91.244691 120.977542 
L 85.768842 121.385613 
L 86.492285 116.705919 
L 85.148748 113.469139 
L 82.730224 112.199746 
z
" clip-path="url(#p9c6e51969b)" style="fill: #eeeeee; stroke: #000000; stroke-width: 0.3"/>
    <path d="M 2.927115 91.134461 
L 3.608237 90.738953 
L 3.577742 91.497699 
z
" clip-path="url(#p9c6e51969b)" style="fill: #eeeeee; stroke: #000000; stroke-width: 0.3"/>
    <path d="M 50.467534 102.646182 
L 52.085304 101.881496 
L 52.284681 99.415991 
L 53.519978 98.163039 
L 54.868396 99.023169 
L 55.476285 98.540009 
L 54.184833 96.435009 
L 54.750401 95.791183 
L 56.465828 95.946755 
L 56.441411 96.852957 
L 59.637085 100.075669 
L 62.243587 100.796981 
L 65.585735 103.378263 
L 64.245458 105.09733 
L 63.010154 105.089248 
L 63.619673 106.132474 
L 62.657798 107.780633 
L 61.237769 108.274271 
L 60.613605 106.213849 
L 59.82344 106.689541 
L 57.092424 111.479927 
L 57.860622 112.487548 
L 57.802285 115.40414 
L 56.2683 114.412857 
L 54.030115 110.402023 
L 53.184307 110.551378 
L 51.346601 108.790245 
L 52.569174 109.144544 
L 52.466013 108.103322 
L 50.962782 108.87411 
L 50.497643 107.219675 
L 51.384647 105.959243 
z
" clip-path="url(#p9c6e51969b)" style="fill: #eeeeee; stroke: #000000; stroke-width: 0.3"/>
    <path d="M 29.168748 81.631822 
L 29.671657 76.76065 
L 31.467648 76.481219 
L 33.796656 78.944027 
L 35.471392 76.384884 
L 37.697869 76.859973 
L 38.584872 75.663873 
L 40.653474 77.238136 
L 44.571772 77.059823 
L 45.760693 78.212247 
L 48.927069 77.135224 
L 51.125059 78.31157 
L 52.393724 77.946584 
L 54.058696 80.565566 
L 56.399098 79.797279 
L 57.830513 80.265189 
L 55.771682 86.105691 
L 59.742058 89.905813 
L 59.089415 90.800946 
L 57.075338 90.393465 
L 56.733557 91.027114 
L 58.562908 93.291276 
L 58.782624 95.580263 
L 57.65637 95.066281 
L 54.227146 96.242338 
L 55.476285 98.540009 
L 54.868396 99.023169 
L 53.519978 98.163039 
L 52.284681 99.415991 
L 52.085304 101.881496 
L 50.61889 102.192329 
L 50.554602 104.2339 
L 51.384647 105.959243 
L 50.928941 107.155355 
L 47.017154 105.121264 
L 45.571897 103.159563 
L 43.561963 102.871286 
L 44.398441 102.51305 
L 44.128271 101.576627 
L 41.463173 98.602535 
L 41.310187 96.75243 
L 39.420618 95.765153 
L 33.880472 89.583298 
L 32.223641 84.499111 
L 31.354534 84.272943 
L 31.529496 83.303613 
z
" clip-path="url(#p9c6e51969b)" style="fill: #eeeeee; stroke: #000000; stroke-width: 0.3"/>
    <path d="M 114.908697 41.223424 
L 115.396142 40.398899 
L 116.230258 40.816546 
L 116.594014 39.690451 
L 119.559391 40.046475 
L 122.679383 38.616414 
L 126.392611 40.575417 
L 126.525251 41.472646 
L 128.607687 41.45918 
L 128.290322 42.654678 
L 129.031662 42.245414 
L 129.567121 43.470229 
L 130.30765 42.427606 
L 132.084114 42.927532 
L 133.273837 44.976884 
L 134.640971 44.5 
L 135.523101 45.71883 
L 134.589296 49.625465 
L 134.889985 50.590302 
L 136.889416 52.561567 
L 138.047007 52.048778 
L 137.95464 54.230962 
L 137.427323 54.5092 
L 138.405473 55.09438 
L 138.063683 56.429009 
L 140.972912 58.003562 
L 140.766212 61.233163 
L 142.574407 62.483718 
L 140.18518 63.449748 
L 139.287594 61.923953 
L 138.512075 63.19007 
L 137.267818 61.767188 
L 136.615175 62.560601 
L 136.079716 61.914378 
L 135.244789 63.244514 
L 135.115401 61.149692 
L 133.238036 62.113637 
L 133.141197 64.380786 
L 133.785698 65.265139 
L 133.325111 67.363562 
L 131.619447 67.92122 
L 131.603983 69.26033 
L 129.523178 71.340192 
L 129.743712 73.067631 
L 127.361808 73.611533 
L 126.280309 72.085136 
L 127.113606 71.635185 
L 126.442247 67.209183 
L 127.73858 60.19113 
L 126.442247 56.130427 
L 124.267854 54.126255 
L 122.423858 51.456419 
L 122.451526 50.469733 
L 120.311313 48.082916 
L 118.254105 42.748026 
L 116.381212 41.231506 
z
" clip-path="url(#p9c6e51969b)" style="fill: #eeeeee; stroke: #000000; stroke-width: 0.3"/>
   </g>
   <g id="PatchCollection_2">
    <defs>
     <path id="ma5ebbf9262" d="M 32.04705 -50.610345 
L 33.47115 -52.249218 
L 35.136122 -52.182513 
L 34.650299 -52.478096 
L 35.318406 -53.791767 
L 34.55672 -54.366492 
L 35.032772 -55.404321 
L 34.72354 -56.794297 
L 36.352703 -57.443508 
L 36.732734 -58.42899 
L 36.268887 -59.401307 
L 34.517659 -59.856654 
L 35.777371 -60.931883 
L 37.585566 -60.020297 
L 39.773793 -60.40264 
L 39.212288 -62.195001 
L 40.635569 -64.012789 
L 45.681759 -60.883414 
L 52.509279 -61.207122 
L 53.482546 -61.839289 
L 52.905586 -63.442858 
L 53.655878 -64.241366 
L 58.29925 -64.772103 
L 59.834833 -66.406495 
L 62.239516 -65.284291 
L 65.354626 -67.019499 
L 66.593994 -69.869443 
L 69.102845 -70.369068 
L 71.536015 -69.441329 
L 74.018017 -70.276924 
L 76.651367 -67.642681 
L 80.689291 -68.44956 
L 81.360657 -66.592879 
L 82.339618 -66.586892 
L 83.316137 -64.901635 
L 84.859044 -64.83134 
L 85.458799 -63.161343 
L 83.570041 -61.132925 
L 80.699062 -60.57946 
L 78.610926 -58.190247 
L 78.56129 -56.759294 
L 75.657762 -52.461932 
L 74.625898 -48.766227 
L 73.044749 -47.6132 
L 72.885244 -45.441796 
L 71.080309 -43.354152 
L 69.25502 -43.766415 
L 68.029487 -42.215483 
L 66.490651 -42.636731 
L 64.713377 -41.872033 
L 59.257865 -42.521244 
L 57.002097 -40.405476 
L 55.624389 -40.838684 
L 54.784581 -39.715577 
L 52.216322 -39.55044 
L 50.238048 -37.630932 
L 45.936465 -37.977369 
L 43.834503 -39.881918 
L 41.899353 -40.107495 
L 37.90212 -45.042096 
L 35.363979 -46.429674 
L 34.207608 -48.06556 
L 33.868267 -50.340189 
z
" style="stroke: #dd0000; stroke-width: 0.5"/>
    </defs>
    <g clip-path="url(#p9c6e51969b)">
     <use xlink:href="#ma5ebbf9262" x="0" y="108" style="fill: #ff6b6b; stroke: #dd0000; stroke-width: 0.5"/>
    </g>
   </g>
  </g>
 </g>
 <defs>
  <clipPath id="p9c6e51969b">
   <rect x="0" y="0" width="117.505849" height="108"/>
  </clipPath>
 </defs>
</svg>
