<?xml version="1.0" encoding="utf-8" standalone="no"?>
<!DOCTYPE svg PUBLIC "-//W3C//DTD SVG 1.1//EN"
  "http://www.w3.org/Graphics/SVG/1.1/DTD/svg11.dtd">
<svg xmlns:xlink="http://www.w3.org/1999/xlink" width="102.988813pt" height="108pt" viewBox="0 0 102.988813 108" xmlns="http://www.w3.org/2000/svg" version="1.1">
 <metadata>
  <rdf:RDF xmlns:dc="http://purl.org/dc/elements/1.1/" xmlns:cc="http://creativecommons.org/ns#" xmlns:rdf="http://www.w3.org/1999/02/22-rdf-syntax-ns#">
   <cc:Work>
    <dc:type rdf:resource="http://purl.org/dc/dcmitype/StillImage"/>
    <dc:date>2025-09-05T13:56:20.847845</dc:date>
    <dc:format>image/svg+xml</dc:format>
    <dc:creator>
     <cc:Agent>
      <dc:title>Matplotlib v3.10.3, https://matplotlib.org/</dc:title>
     </cc:Agent>
    </dc:creator>
   </cc:Work>
  </rdf:RDF>
 </metadata>
 <defs>
  <style type="text/css">*{stroke-linejoin: round; stroke-linecap: butt}</style>
 </defs>
 <g id="figure_1">
  <g id="patch_1">
   <path d="M 0 108 
L 102.988813 108 
L 102.988813 0 
L 0 0 
z
" style="fill: #ffffff"/>
  </g>
  <g id="axes_1">
   <g id="PatchCollection_1">
    <path d="M 75.430178 112.872158 
L 75.456646 110.842601 
L 76.847021 109.572237 
L 80.92722 108.374159 
L 81.773325 109.572237 
L 82.061091 108.369434 
L 83.620407 108.954772 
L 84.101326 107.107104 
L 86.077365 106.755146 
L 86.141 107.662209 
L 87.034132 106.76649 
L 86.798741 108.059053 
L 87.610503 107.34521 
L 89.865016 110.972521 
L 92.399684 108.771943 
L 92.301132 109.572237 
L 93.108105 110.126866 
L 94.224519 109.334607 
L 94.72318 110.919601 
L 94.38811 109.413975 
L 94.963076 108.771943 
L 95.668121 108.614158 
L 95.998396 109.73145 
L 99.039324 109.413975 
L 97.675694 108.207863 
L 97.334437 107.021129 
L 97.99161 104.88103 
L 97.399192 104.935355 
L 97.282628 102.765486 
L 97.711732 102.653992 
L 95.856768 100.816726 
L 95.384859 99.107942 
L 95.697398 98.07616 
L 95.035153 96.864858 
L 97.308529 97.724678 
L 99.686367 97.196974 
L 99.930483 98.026084 
L 99.387341 98.79236 
L 100.656364 101.261277 
L 101.918916 100.717516 
L 106.907726 102.019994 
L 111.272585 100.023515 
L 111.839103 99.541161 
L 110.20376 99.884144 
L 108.95641 99.060699 
L 110.058465 96.804391 
L 116.876905 93.905564 
L 118.951496 91.169258 
L 120.000054 91.426255 
L 119.093408 90.435109 
L 119.569815 89.357966 
L 119.188008 88.962074 
L 119.363709 83.574498 
L 125.876786 81.034838 
L 126.476386 82.502544 
L 126.326199 83.845903 
L 127.710076 85.263069 
L 130.080185 84.616288 
L 131.061413 87.543608 
L 133.395053 88.12919 
L 134.007961 90.199139 
L 136.128472 89.666953 
L 137.473017 90.660525 
L 136.975968 92.173686 
L 137.558837 92.963263 
L 137.016732 93.95204 
L 140.574756 93.841648 
L 141.749088 91.788499 
L 142.13886 92.038692 
L 141.530242 94.145841 
L 142.058043 94.667821 
L 141.980805 96.051387 
L 144.819356 97.245354 
L 146.181782 99.479092 
L 148.190005 98.892917 
L 149.673292 100.148083 
L 152.732128 99.867889 
L 154.884464 103.427593 
L 156.272631 102.872604 
L 157.159452 104.022777 
L 158.763608 104.052778 
L 159.705503 103.310595 
L 161.258874 104.833357 
L 165.170915 105.753134 
L 162.471826 109.74183 
L 162.059876 112.91904 
L 160.917735 115.376278 
L 161.163042 117.214031 
L 160.407095 120.280548 
L 160.92024 121.705179 
L 159.484513 123.492868 
L 156.680284 122.814286 
L 155.942218 124.380843 
L 157.117975 124.66704 
L 154.54976 128.245645 
L 153.008187 129.141121 
L 152.915212 131.269865 
L 150.764663 133.329005 
L 150.320536 135.233657 
L 150.879808 135.802741 
L 150.595882 137.165303 
L 149.632528 137.782094 
L 149.660421 138.588472 
L 150.916282 138.359282 
L 151.891075 137.315902 
L 151.426922 136.440524 
L 151.807394 135.749043 
L 153.287103 134.89497 
L 155.391526 135.294554 
L 155.137638 136.091643 
L 155.672594 136.974509 
L 155.243484 138.343074 
L 157.017852 140.971008 
L 155.486645 142.118174 
L 155.453029 143.375743 
L 157.976909 146.942657 
L 157.248856 149.232798 
L 154.115999 150.512554 
L 155.103309 152.784095 
L 156.914145 153.779478 
L 157.246704 155.372426 
L 156.587309 155.392233 
L 155.728375 157.123786 
L 156.296235 158.258354 
L 155.93864 159.003533 
L 156.746077 160.517298 
L 159.155524 161.869666 
L 161.401914 161.279881 
L 161.639353 162.542245 
L 160.171801 164.88548 
L 160.161705 166.056738 
L 157.914236 167.332303 
L 157.826313 168.502063 
L 156.602692 168.663599 
L 156.131737 169.969526 
L 155.004626 170.199191 
L 154.034096 171.812445 
L 154.743251 171.765133 
L 154.649329 172.594348 
L 152.542733 173.879759 
L 151.282132 173.671561 
L 151.191303 174.517391 
L 149.536481 173.378445 
L 148.952975 174.413977 
L 147.688825 172.845875 
L 145.426471 172.427785 
L 145.061057 170.807286 
L 143.260864 171.039448 
L 143.206281 170.181984 
L 144.59159 169.358075 
L 143.227116 168.44912 
L 143.379158 169.950496 
L 142.113236 170.041208 
L 142.027451 170.966267 
L 141.349622 170.030817 
L 141.243188 168.845011 
L 140.912069 168.211014 
L 141.243756 170.028448 
L 141.781805 170.913126 
L 135.780219 168.665491 
L 129.974858 173.700169 
L 129.475359 179.241281 
L 130.438111 181.53516 
L 128.727066 181.085361 
L 126.848284 182.608716 
L 124.185662 181.568343 
L 122.236077 182.496525 
L 120.274334 180.812668 
L 120.34228 179.464201 
L 118.316881 179.632192 
L 117.716845 178.317035 
L 114.051543 176.889373 
L 112.968041 176.810469 
L 112.880076 178.597821 
L 108.157021 178.590019 
L 106.192773 176.763075 
L 104.488854 177.574248 
L 103.169698 175.555605 
L 100.469176 174.868025 
L 99.52728 173.666847 
L 98.343302 174.411132 
L 98.71448 172.109288 
L 97.203299 172.06669 
L 95.995358 170.587733 
L 96.932638 170.293955 
L 98.206733 168.199682 
L 99.726633 156.868009 
L 100.215994 155.597645 
L 101.196973 155.551818 
L 100.314823 154.288072 
L 99.704953 156.039374 
L 100.916534 145.106901 
L 103.124588 147.927765 
L 103.472045 150.151959 
L 104.726709 152.93315 
L 104.300975 151.427524 
L 105.00968 151.736964 
L 103.887074 150.562978 
L 102.921858 146.174118 
L 99.795333 143.471355 
L 100.373108 142.347445 
L 101.595395 143.384892 
L 100.456734 141.634078 
L 101.169668 139.652716 
L 100.047899 138.076685 
L 100.740273 136.589009 
L 99.845169 136.803024 
L 96.002617 134.361507 
L 95.210293 132.07118 
L 93.765002 130.583028 
L 94.651097 128.081996 
L 92.91833 126.838557 
L 93.443737 126.543769 
L 93.475831 125.344263 
L 96.475655 126.045822 
L 94.51679 124.780659 
L 92.660415 125.63198 
L 90.836417 125.008374 
L 91.568498 124.928053 
L 90.736745 124.043201 
L 91.875405 123.574083 
L 91.163323 122.789846 
L 92.068557 122.615992 
L 90.213594 122.457255 
L 90.439408 122.349545 
L 90.595401 122.061363 
L 88.932462 122.696777 
L 88.294996 122.009395 
L 89.45618 122.091597 
L 89.821649 121.475548 
L 89.85375 121.259653 
L 89.697764 121.030522 
L 88.224601 121.578544 
L 87.842233 120.785809 
L 88.082689 121.981994 
L 86.81395 121.540741 
L 86.755665 122.940549 
L 86.278967 121.066897 
L 86.850273 119.992598 
L 86.330215 119.826778 
L 86.115659 120.871784 
L 85.187894 120.396524 
L 85.711328 120.468334 
L 85.187894 120.237786 
L 85.711328 119.351506 
L 84.57774 120.31243 
L 79.832479 117.766036 
L 79.465598 119.04916 
L 78.174329 119.12097 
L 77.739592 117.165116 
L 75.708644 116.411113 
L 78.77238 115.542794 
L 78.122804 114.184563 
L 76.889536 114.825179 
L 76.413128 113.549613 
L 76.964152 112.855613 
L 77.179836 113.447569 
L 78.883318 113.53402 
L 79.449835 113.311983 
L 77.607535 112.988366 
L 78.74113 111.87155 
z
M 121.902806 181.305855 
L 122.262538 181.391052 
L 121.965741 180.951261 
z
" clip-path="url(#pbc59d457f4)" style="fill: #eeeeee; stroke: #000000; stroke-width: 0.3"/>
    <path d="M 167.58439 182.166557 
L 168.348564 181.553818 
L 168.692077 179.820478 
L 171.520138 178.046036 
L 172.726377 178.710744 
L 173.103672 174.891153 
L 173.915718 175.04989 
L 173.769302 179.107587 
L 174.358903 180.00189 
L 174.576836 184.843336 
L 173.494489 187.091157 
L 173.483791 189.953121 
L 172.726377 190.882395 
L 173.130708 191.407255 
L 172.162676 192.95116 
L 172.248834 193.830346 
L 169.26366 191.639219 
L 170.169738 190.090124 
L 168.318152 189.448568 
L 169.358267 187.625467 
L 168.035457 187.696802 
L 167.841744 186.905019 
L 168.939854 185.887878 
L 167.699833 184.123352 
L 168.543972 183.375978 
z
" clip-path="url(#pbc59d457f4)" style="fill: #eeeeee; stroke: #000000; stroke-width: 0.3"/>
    <path d="M 97.660491 137.180025 
L 99.374671 137.700636 
L 99.559381 138.289759 
L 98.017234 137.692137 
z
" clip-path="url(#pbc59d457f4)" style="fill: #eeeeee; stroke: #000000; stroke-width: 0.3"/>
    <path d="M 173.863909 179.028218 
L 174.040731 179.345217 
L 174.004125 179.357025 
z
" clip-path="url(#pbc59d457f4)" style="fill: #eeeeee; stroke: #000000; stroke-width: 0.3"/>
    <path d="M 151.095235 174.938395 
L 151.157181 174.83021 
L 151.690477 174.903901 
z
" clip-path="url(#pbc59d457f4)" style="fill: #eeeeee; stroke: #000000; stroke-width: 0.3"/>
    <path d="M 98.704544 139.485944 
L 99.793084 140.082626 
L 100.05888 142.260994 
z
" clip-path="url(#pbc59d457f4)" style="fill: #eeeeee; stroke: #000000; stroke-width: 0.3"/>
    <path d="M 92.541028 128.107504 
L 93.202713 128.210024 
L 93.600283 129.539439 
z
" clip-path="url(#pbc59d457f4)" style="fill: #eeeeee; stroke: #000000; stroke-width: 0.3"/>
    <path d="M 91.937067 131.713081 
L 92.523292 131.741898 
L 92.725738 132.005988 
z
" clip-path="url(#pbc59d457f4)" style="fill: #eeeeee; stroke: #000000; stroke-width: 0.3"/>
    <path d="M 85.853523 124.043201 
L 87.203355 124.987115 
L 86.120732 124.868527 
z
" clip-path="url(#pbc59d457f4)" style="fill: #eeeeee; stroke: #000000; stroke-width: 0.3"/>
    <path d="M 36.036354 68.350959 
L 38.039146 67.110829 
L 38.530763 67.645151 
L 38.814579 66.845798 
L 39.591707 67.682002 
L 41.043751 67.5587 
L 40.132317 67.269566 
L 40.373901 66.084248 
L 39.574809 65.656231 
L 41.756678 64.942388 
L 41.66207 63.818478 
L 44.265161 63.739109 
L 47.870074 62.627482 
L 46.41915 62.387019 
L 46.545298 61.440272 
L 44.170554 63.581324 
L 42.129752 62.708744 
L 39.668856 63.977215 
L 42.697674 61.703886 
L 43.698084 59.602531 
L 42.842962 59.523162 
L 44.264601 57.127471 
L 45.644001 57.454862 
L 45.26135 56.979601 
L 46.588374 57.138339 
L 46.875857 56.265759 
L 45.832365 56.265759 
L 46.545298 55.790975 
L 45.995396 55.632237 
L 42.607294 56.179308 
L 42.310802 55.455074 
L 41.911259 56.088607 
L 42.322911 54.355731 
L 40.565932 55.328938 
L 39.904807 55.069574 
L 40.618018 53.95984 
L 38.007045 54.039208 
L 39.144861 53.239855 
L 37.98086 52.380987 
L 41.326723 51.884933 
L 39.862008 51.329352 
L 39.862008 49.981987 
L 42.228864 49.585155 
L 41.846497 49.340907 
L 42.271663 48.785802 
L 39.617608 48.620447 
L 39.862008 48.144711 
L 39.810484 47.755913 
L 40.698827 48.194322 
L 39.927899 46.92585 
L 40.377845 45.91816 
L 39.431209 46.30791 
L 39.862008 45.845874 
L 39.153026 44.685124 
L 38.415881 46.106655 
L 38.814579 44.641654 
L 38.431928 44.490951 
L 39.24369 43.691134 
L 40.051223 44.166394 
L 39.385601 44.4045 
L 39.851878 44.846694 
L 40.854536 44.252845 
L 40.293936 43.487986 
L 40.712625 43.294766 
L 44.290785 43.691134 
L 45.170963 45.52841 
L 45.79351 43.858846 
L 49.530473 44.80795 
L 48.770804 44.252845 
L 49.813728 44.008608 
L 49.105307 43.575389 
L 49.475572 43.426567 
L 48.474034 43.048625 
L 49.838508 41.705046 
L 51.613513 41.392297 
L 51.192852 41.140014 
L 52.231832 39.713281 
L 49.908336 40.664278 
L 50.385311 40.023198 
L 47.547673 39.186053 
L 50.2434 38.365441 
L 49.203859 37.724361 
L 49.672385 37.327993 
L 50.814422 37.565624 
L 49.908336 35.576227 
L 50.853844 35.211034 
L 51.141043 33.745568 
L 51.985176 34.164135 
L 53.228581 33.033142 
L 53.039366 33.587771 
L 54.061456 33.995958 
L 54.461005 32.636299 
L 54.343022 33.349665 
L 55.126628 34.459411 
L 55.178153 33.200855 
L 54.533926 33.071886 
L 55.531803 32.442602 
L 56.349474 34.260989 
L 55.27276 36.138891 
L 56.831238 34.957822 
L 56.359612 32.239467 
L 58.211199 32.312217 
L 57.327644 31.123591 
L 60.406014 32.83378 
L 57.183539 35.56817 
L 56.229845 38.608888 
L 53.554712 39.13088 
L 55.089489 40.205446 
L 51.865097 41.859012 
L 54.061414 44.765328 
L 57.72529 45.901104 
L 58.926796 44.616529 
L 58.6561 43.333765 
L 59.864395 42.422987 
L 61.456032 44.863123 
L 62.476599 45.269313 
L 62.543825 46.734476 
L 64.452286 45.935297 
L 66.165199 47.061913 
L 64.417507 47.034036 
L 64.289961 47.976058 
L 65.22448 48.785802 
L 65.316839 51.207466 
L 66.37271 52.390902 
L 65.559544 53.477021 
L 66.478583 54.56502 
L 65.397925 54.799818 
L 66.236432 55.515076 
L 66.952458 59.32474 
L 64.374147 66.441872 
L 63.472006 66.21086 
L 64.326843 66.694154 
L 64.506205 68.150645 
L 61.333219 67.969708 
L 61.620703 67.407045 
L 60.457546 68.993456 
L 60.654075 68.44166 
L 60.005911 67.082964 
L 60.298176 68.358517 
L 59.868789 68.834254 
L 55.836177 69.267937 
L 56.215452 69.80226 
L 55.905721 70.543503 
L 54.107071 70.671531 
L 52.925612 72.48518 
L 51.364325 72.731321 
L 51.773444 71.681578 
L 50.238895 71.69717 
L 51.01039 73.157446 
L 49.203859 73.85003 
L 49.625081 74.008767 
L 49.388562 74.959764 
L 47.825303 74.56292 
L 48.250753 75.356131 
L 45.312591 75.514869 
L 44.599665 76.393579 
L 43.508875 76.552316 
L 43.934319 75.83895 
L 43.080893 75.555018 
L 40.472446 76.876409 
L 42.370776 74.959764 
L 40.283514 75.672654 
L 42.974736 74.109859 
L 42.271663 73.208474 
L 41.810742 74.097575 
L 40.099371 74.432535 
L 38.148389 75.284321 
L 39.361949 73.553813 
L 42.129752 71.861098 
L 38.290016 73.446104 
L 37.604963 72.170538 
L 36.868384 72.899033 
L 36.490806 71.781729 
L 37.469812 71.501117 
L 37.386186 70.574677 
L 40.90184 68.675516 
L 36.207267 69.30999 
z
" clip-path="url(#pbc59d457f4)" style="fill: #eeeeee; stroke: #000000; stroke-width: 0.3"/>
    <path d="M 49.152611 35.893702 
L 49.631841 35.601735 
L 49.719128 35.893702 
z
" clip-path="url(#pbc59d457f4)" style="fill: #eeeeee; stroke: #000000; stroke-width: 0.3"/>
    <path d="M 41.232683 56.060255 
L 41.232683 55.632237 
L 41.592803 56.129232 
z
" clip-path="url(#pbc59d457f4)" style="fill: #eeeeee; stroke: #000000; stroke-width: 0.3"/>
    <path d="M 40.533271 57.232824 
L 41.32729 57.245108 
L 41.5776 57.778002 
z
" clip-path="url(#pbc59d457f4)" style="fill: #eeeeee; stroke: #000000; stroke-width: 0.3"/>
    <path d="M 39.796685 74.860077 
L 40.047279 74.60827 
L 40.617173 74.657882 
z
" clip-path="url(#pbc59d457f4)" style="fill: #eeeeee; stroke: #000000; stroke-width: 0.3"/>
    <path d="M 37.388158 47.43088 
L 39.395171 46.974509 
L 39.519063 48.606282 
z
" clip-path="url(#pbc59d457f4)" style="fill: #eeeeee; stroke: #000000; stroke-width: 0.3"/>
    <path d="M 36.259636 71.719846 
L 36.794896 71.240336 
L 36.995653 71.563941 
z
" clip-path="url(#pbc59d457f4)" style="fill: #eeeeee; stroke: #000000; stroke-width: 0.3"/>
    <path d="M 65.285021 15.54006 
L 68.591462 14.886696 
L 67.937381 14.375048 
L 68.749143 14.190803 
L 69.257652 13.863413 
L 67.453369 13.618224 
L 68.072255 12.422027 
L 68.601323 12.080461 
L 69.270322 12.627067 
L 69.874289 12.576515 
L 70.206537 12.342659 
L 68.456311 11.508358 
L 71.05687 11.153556 
L 69.115741 10.555469 
L 69.826141 9.291723 
L 71.009566 9.719265 
L 70.354074 9.165112 
L 70.778119 8.681817 
L 68.780677 8.927005 
L 70.358586 8.081362 
L 70.726588 7.492714 
L 68.237818 8.267964 
L 68.020447 5.662996 
L 69.399003 6.455255 
L 70.279741 6.101881 
L 68.250765 4.927418 
L 69.163044 4.149336 
L 68.265131 3.752492 
L 68.214167 2.715044 
L 68.992983 2.298358 
L 69.257652 3.190781 
L 69.635515 3.443051 
L 69.588211 1.60531 
L 72.294075 2.556307 
L 71.293388 1.439479 
L 73.337567 2.715044 
L 70.734192 -0.201257 
L 71.746144 -0.035913 
L 72.152447 -0.938727 
L 71.114311 -2.256322 
L 74.287012 -1.811295 
L 72.628862 -3.331097 
L 72.837501 -4.037381 
L 73.71543 -3.727941 
L 73.096544 -5.091374 
L 73.90915 -6.51669 
L 74.962773 -6.246458 
L 75.086097 -5.312935 
L 75.373864 -6.271026 
L 76.179986 -5.675296 
L 75.481419 -4.422881 
L 76.699484 -5.887882 
L 77.795906 -5.565217 
L 77.319491 -4.440831 
L 80.546257 -6.131654 
L 85.147635 -6.197323 
L 85.073018 -7.082651 
L 87.534759 -6.65605 
L 86.772556 -5.173575 
L 87.297963 -4.629338 
L 86.768896 -3.509201 
L 80.733777 1.525942 
L 80.163322 1.19429 
L 80.682535 2.312059 
L 78.031857 1.843405 
L 80.47108 2.889363 
L 82.273391 2.454263 
L 80.828384 4.308073 
L 78.70734 4.491843 
L 77.782391 5.683314 
L 80.682535 4.394524 
L 80.02085 5.662996 
L 78.930061 5.979054 
L 79.024669 6.613052 
L 84.835655 3.990598 
L 94.602949 4.228704 
L 95.766949 5.266152 
L 96.25209 6.890366 
L 94.72318 8.681817 
L 93.297037 13.381058 
L 91.63607 15.276445 
L 91.0262 17.131672 
L 89.551625 18.547537 
L 87.247559 18.754458 
L 85.428634 19.750816 
L 88.462808 18.681707 
L 89.031574 19.988923 
L 90.595401 20.774099 
L 87.913749 21.611709 
L 85.295739 23.683783 
L 81.871876 22.763496 
L 83.12598 23.880788 
L 87.125646 24.616354 
L 90.191914 23.325207 
L 93.631824 24.990522 
L 95.856768 28.261614 
L 97.141277 28.816243 
L 97.922627 33.785253 
L 99.600492 38.53032 
L 100.314823 39.078343 
L 100.096891 39.955172 
L 104.530733 41.677646 
L 105.862829 44.344033 
L 107.903915 45.91816 
L 106.907726 46.955608 
L 109.350043 51.369036 
L 109.459293 51.752655 
L 109.33428 52.172638 
L 106.624755 50.291904 
L 104.01828 50.331588 
L 103.399394 50.69583 
L 106.493258 50.620711 
L 109.945277 53.95984 
L 110.894162 57.138339 
L 108.497461 60.14865 
L 111.087314 61.519641 
L 112.367886 59.186786 
L 117.246886 59.652607 
L 119.804078 61.43319 
L 120.517012 63.182112 
L 120.682568 64.799243 
L 119.375535 69.494712 
L 117.645584 71.1364 
L 117.175931 70.506175 
L 116.438785 70.109808 
L 117.245198 70.894984 
L 115.824403 70.981435 
L 117.297567 71.060804 
L 116.727112 71.861098 
L 117.258712 72.242825 
L 115.799063 73.049736 
L 115.206645 72.257001 
L 113.260451 73.691292 
L 114.862011 73.417751 
L 114.823717 75.220545 
L 111.582309 76.181457 
L 111.087314 76.790423 
L 113.23455 76.512632 
L 112.263702 77.265683 
L 113.453043 77.186314 
L 113.71603 77.820312 
L 115.188626 77.996999 
L 118.448053 77.605833 
L 117.959252 78.263458 
L 118.006556 80.29017 
L 115.8092 81.303526 
L 115.206645 83.001443 
L 113.702515 82.853573 
L 110.301744 84.984222 
L 106.560276 84.010074 
L 102.960153 85.185476 
L 101.927365 83.871179 
L 101.363104 83.866453 
L 100.933993 84.594472 
L 101.028033 83.866453 
L 100.366915 83.866453 
L 100.460962 84.589271 
L 98.279093 83.001443 
L 99.311037 84.370542 
L 97.623325 85.31398 
L 94.317154 85.070673 
L 94.014752 85.546409 
L 94.913516 85.80625 
L 94.827642 86.669843 
L 91.83035 86.166242 
L 91.449671 87.535341 
L 88.602463 85.142019 
L 85.119478 86.496941 
L 84.453288 85.783575 
L 84.293918 88.3276 
L 83.817787 88.644599 
L 84.293918 88.962074 
L 83.095567 91.095555 
L 80.371124 90.174328 
L 79.359449 88.3276 
L 78.74113 89.048049 
L 79.406469 89.920153 
L 75.94263 89.674024 
L 73.810598 91.988454 
L 73.460892 91.388463 
L 72.95576 92.543083 
L 73.436396 92.957876 
L 72.504693 94.136111 
L 70.5416 92.147179 
L 68.947929 93.054242 
L 69.08984 91.786247 
L 71.648727 90.717149 
L 73.479478 88.684283 
L 73.719374 87.414871 
L 74.90111 87.693126 
L 74.377392 86.821023 
L 75.263486 86.751105 
L 76.752697 84.666747 
L 77.104375 81.877533 
L 78.410287 82.090131 
L 79.307924 81.164643 
L 79.166012 79.816802 
L 82.34463 79.175246 
L 87.515895 79.816802 
L 87.842233 77.59024 
L 91.933967 73.073352 
L 89.982708 74.884644 
L 87.842233 75.514869 
L 86.388217 77.434812 
L 83.936046 77.42442 
L 81.843152 74.835045 
L 78.74113 75.600844 
L 78.74113 74.887477 
L 80.115458 74.621971 
L 80.259057 74.202928 
L 78.565429 74.185454 
L 78.220788 72.890047 
L 74.235488 75.125584 
L 72.998843 74.174587 
L 74.90111 73.763567 
L 75.043022 72.81257 
L 72.562127 74.048452 
L 72.100922 73.532555 
L 73.064443 73.012409 
L 72.956321 72.11244 
L 71.675756 72.019835 
L 73.341505 70.134851 
L 74.924762 70.268545 
L 78.561768 67.929548 
L 79.988749 66.199516 
L 80.355914 64.293738 
L 81.111646 64.063666 
L 79.878939 63.429193 
L 80.828384 61.915533 
L 79.715915 61.012255 
L 80.210065 59.681888 
L 75.468472 61.274452 
L 78.268376 58.499879 
L 79.515718 56.304027 
L 81.914675 55.4735 
L 81.588621 54.910836 
L 83.499898 55.476333 
L 85.38133 54.745957 
L 87.059756 56.105605 
L 86.377519 54.270221 
L 87.26389 53.782676 
L 88.48702 55.481998 
L 89.7445 54.745957 
L 88.186306 54.766751 
L 86.961771 52.351218 
L 88.365668 50.291904 
L 87.32668 49.896012 
L 87.275155 48.30959 
L 88.649767 47.596223 
L 88.842919 47.034036 
L 88.23305 46.821438 
L 89.078878 45.766505 
L 88.675675 44.966687 
L 88.979765 44.759767 
L 89.078878 44.332214 
L 88.087761 45.419273 
L 87.32668 44.641654 
L 86.661057 46.479407 
L 85.999656 45.91816 
L 86.231947 44.166394 
L 85.544077 44.992195 
L 83.278589 41.265209 
L 84.982632 36.963752 
L 87.515895 35.893702 
L 83.718958 35.662678 
L 83.64181 36.960919 
L 82.013788 36.93115 
L 80.666205 38.300725 
L 77.959213 36.685961 
L 78.101124 39.324008 
L 74.802282 37.162174 
L 74.140036 37.876481 
L 74.802282 39.871078 
L 72.740077 37.013351 
L 72.645476 35.508666 
L 73.857902 36.534782 
L 73.773432 33.970439 
L 76.472258 29.855584 
L 74.377392 27.382893 
L 74.788767 26.823538 
L 74.613067 24.931936 
L 77.414099 24.831785 
L 75.043022 23.087577 
L 75.35725 24.091018 
L 74.854651 24.138261 
L 74.758915 23.22458 
L 75.519152 21.601318 
L 74.853806 22.691685 
L 74.377392 22.049653 
L 74.570268 24.118418 
L 74.14088 24.03905 
L 73.94406 25.496492 
L 72.972091 23.884097 
L 73.228601 25.145475 
L 72.577337 24.355573 
L 72.152447 25.242793 
L 72.435986 25.955695 
L 71.774301 25.709555 
L 71.486541 24.03905 
L 74.377392 20.774099 
L 70.752212 23.679057 
L 71.628452 26.518359 
L 70.436011 28.125552 
L 70.679007 28.736875 
L 69.781931 30.646902 
L 70.19415 31.445779 
L 68.410135 31.969234 
L 69.115741 27.778796 
L 70.679007 25.789864 
L 69.257652 26.352063 
L 69.875978 24.759498 
L 69.008463 24.97493 
L 69.875978 23.563313 
L 68.931598 24.665965 
L 70.148812 22.996877 
L 70.300861 21.812023 
L 69.635515 22.374211 
L 70.417148 20.975819 
L 69.729845 21.098657 
L 69.865273 20.190177 
L 70.726588 19.823091 
L 70.107985 19.823091 
L 70.664925 18.880605 
L 72.38305 18.811152 
L 73.007285 18.103927 
L 73.380643 17.437803 
L 72.435986 18.633988 
L 70.584683 18.475727 
L 72.152447 17.437803 
L 70.963106 17.675433 
L 71.628452 16.320987 
L 73.857902 15.686513 
L 72.178632 15.678955 
L 72.998843 14.496934 
L 69.163044 18.230062 
L 66.851097 16.542084 
L 70.065186 15.924619 
L 65.788458 16.124922 
z
" clip-path="url(#pbc59d457f4)" style="fill: #eeeeee; stroke: #000000; stroke-width: 0.3"/>
    <path d="M 96.730753 -25.753029 
L 98.987799 -25.765312 
L 99.704953 -26.564666 
L 98.773243 -26.970008 
L 98.420721 -28.157694 
L 97.289949 -28.054234 
L 97.86012 -28.907436 
L 98.357647 -28.35045 
L 98.846455 -28.388242 
L 98.184486 -28.704765 
L 99.420847 -29.908508 
L 98.944716 -27.111736 
L 100.001439 -28.224303 
L 100.456734 -27.444328 
L 99.978915 -27.192521 
L 101.268496 -27.6744 
L 100.641161 -26.897722 
L 101.019307 -26.616634 
L 100.314823 -26.478214 
L 100.885561 -25.606575 
L 99.988492 -25.209743 
L 100.65017 -24.179378 
L 100.031284 -23.688989 
L 100.366915 -23.141918 
L 99.606685 -20.749536 
L 98.905017 -21.381653 
L 99.689467 -23.778285 
L 99.653989 -25.289112 
L 98.661745 -25.447849 
L 99.086627 -24.893209 
L 98.355114 -24.255902 
L 98.021462 -25.267853 
L 97.184076 -24.964554 
z
" clip-path="url(#pbc59d457f4)" style="fill: #eeeeee; stroke: #000000; stroke-width: 0.3"/>
    <path d="M 59.12235 2.672051 
L 61.101205 1.525942 
L 59.207387 0.891944 
L 60.440088 0.171007 
L 59.584966 0.329745 
L 59.207387 -1.335094 
L 60.629019 -1.738544 
L 60.423196 -1.671459 
L 60.959294 -0.462514 
L 60.890878 -1.421069 
L 61.998842 -1.421069 
L 61.243117 -2.531755 
L 65.364135 -5.017671 
L 65.748759 -3.244646 
L 64.374147 -1.976174 
L 65.800284 -1.738544 
L 64.137912 -1.659176 
L 64.326843 -0.859358 
L 62.621673 -0.224884 
L 64.090608 -0.462514 
L 64.468755 0.329745 
L 63.136942 0.574933 
L 63.755828 1.05067 
L 63.188467 1.691761 
L 62.333913 1.60531 
L 61.998842 0.733206 
L 62.810888 0.098733 
L 62.144698 0.098733 
L 61.620703 0.733206 
L 62.333913 2.167974 
L 61.461616 1.953019 
L 61.773589 2.734886 
L 60.298176 3.752492 
z
" clip-path="url(#pbc59d457f4)" style="fill: #eeeeee; stroke: #000000; stroke-width: 0.3"/>
    <path d="M 51.865097 41.859012 
L 55.089489 40.205446 
L 53.554712 39.13088 
L 56.229845 38.608888 
L 57.183539 35.56817 
L 59.616223 35.043797 
L 60.246935 33.349665 
L 66.208843 33.143697 
L 67.002862 35.821416 
L 69.053802 38.011591 
L 67.548537 40.188542 
L 69.850637 39.324008 
L 70.825423 41.867557 
L 70.258345 43.294766 
L 69.966081 41.276553 
L 68.969892 40.512634 
L 69.498392 42.098581 
L 68.922305 43.136029 
L 69.816004 42.765169 
L 70.00043 43.753969 
L 67.862205 44.543395 
L 67.642584 46.004611 
L 66.356947 46.818605 
L 64.452286 45.935297 
L 62.543825 46.734476 
L 62.476599 45.269313 
L 61.456032 44.863123 
L 59.864395 42.422987 
L 58.6561 43.333765 
L 58.926796 44.616529 
L 58.049981 45.755301 
L 55.77356 45.595704 
L 54.061414 44.765328 
z
" clip-path="url(#pbc59d457f4)" style="fill: #eeeeee; stroke: #000000; stroke-width: 0.3"/>
    <path d="M 61.483573 7.089253 
L 61.95351 6.418403 
L 62.708675 7.234766 
L 62.543956 6.562976 
L 63.00404 6.541717 
L 62.475817 5.337486 
L 64.756238 7.017442 
L 64.031202 4.890579 
L 64.756238 4.228704 
L 65.842806 5.543943 
L 65.606848 7.810177 
L 66.220945 8.530162 
L 65.842806 8.840554 
L 69.347755 9.316279 
L 66.860951 12.059202 
L 67.977648 10.202559 
L 66.603036 9.719265 
L 66.294441 10.909319 
L 65.769594 10.050916 
L 64.704706 10.519082 
L 64.99275 10.043822 
L 63.571118 8.768268 
L 64.666412 8.772993 
L 63.235771 7.564989 
L 63.00404 8.364818 
z
" clip-path="url(#pbc59d457f4)" style="fill: #eeeeee; stroke: #000000; stroke-width: 0.3"/>
    <path d="M 85.129608 -11.018926 
L 85.426385 -12.311489 
L 86.402575 -12.540621 
L 87.70511 -11.683169 
L 86.859559 -10.811065 
L 89.551625 -10.494066 
L 88.886002 -9.456607 
L 87.797178 -10.368871 
L 86.263764 -9.855808 
L 86.090035 -11.279708 
L 85.664308 -10.25596 
z
" clip-path="url(#pbc59d457f4)" style="fill: #eeeeee; stroke: #000000; stroke-width: 0.3"/>
    <path d="M 63.423297 27.698951 
L 63.826777 25.75444 
L 64.614603 25.276812 
L 64.756238 26.107339 
L 65.937974 24.68013 
L 66.69736 27.144798 
L 64.919261 28.89372 
L 64.698513 28.315475 
L 65.22448 27.945092 
L 64.657402 27.303535 
L 65.177744 26.590157 
z
" clip-path="url(#pbc59d457f4)" style="fill: #eeeeee; stroke: #000000; stroke-width: 0.3"/>
    <path d="M 64.374147 20.258679 
L 65.196891 20.380565 
L 66.763527 19.563738 
L 65.501265 19.58358 
L 66.792251 18.151646 
L 64.5673 17.589458 
L 65.860825 16.43153 
L 69.0645 18.950987 
L 68.231342 20.296471 
L 65.061173 20.939919 
z
" clip-path="url(#pbc59d457f4)" style="fill: #eeeeee; stroke: #000000; stroke-width: 0.3"/>
    <path d="M 56.836303 9.640372 
L 57.291038 8.766851 
L 57.025235 7.888606 
L 58.635521 8.840554 
L 58.211199 9.640372 
L 57.545009 9.568562 
L 58.189235 10.533258 
L 57.592312 10.671213 
L 58.493893 11.067105 
L 57.545009 11.232925 
z
" clip-path="url(#pbc59d457f4)" style="fill: #eeeeee; stroke: #000000; stroke-width: 0.3"/>
    <path d="M 76.79578 55.632237 
L 76.79578 54.270221 
L 78.50039 53.95984 
L 79.340869 55.364838 
L 80.450521 55.314762 
L 77.933589 57.314085 
L 78.082261 56.712214 
L 77.319491 56.741971 
z
" clip-path="url(#pbc59d457f4)" style="fill: #eeeeee; stroke: #000000; stroke-width: 0.3"/>
    <path d="M 56.217701 5.504258 
L 57.828271 4.394524 
L 59.537662 5.028046 
L 58.493893 5.028046 
L 59.118689 5.757957 
L 57.828271 5.979054 
L 58.897664 6.455255 
z
" clip-path="url(#pbc59d457f4)" style="fill: #eeeeee; stroke: #000000; stroke-width: 0.3"/>
    <path d="M 100.441815 -28.344773 
L 100.71831 -30.740928 
L 101.595395 -30.542982 
L 101.551751 -29.822533 
L 101.075337 -30.139056 
L 101.341985 -28.282413 
z
" clip-path="url(#pbc59d457f4)" style="fill: #eeeeee; stroke: #000000; stroke-width: 0.3"/>
    <path d="M 84.668404 -9.496291 
L 85.964178 -9.626688 
L 86.471842 -8.742765 
L 85.948131 -8.419159 
L 86.755665 -8.584979 
L 85.595885 -8.267504 
z
" clip-path="url(#pbc59d457f4)" style="fill: #eeeeee; stroke: #000000; stroke-width: 0.3"/>
    <path d="M 66.387353 24.97493 
L 67.694109 24.276204 
L 66.9381 24.161412 
L 69.066748 22.558456 
L 67.170114 26.266076 
L 66.475767 26.211275 
z
" clip-path="url(#pbc59d457f4)" style="fill: #eeeeee; stroke: #000000; stroke-width: 0.3"/>
    <path d="M 71.108678 28.102877 
L 72.455133 27.432028 
L 73.337567 29.695906 
L 73.012357 30.503758 
L 71.719115 30.243928 
z
" clip-path="url(#pbc59d457f4)" style="fill: #eeeeee; stroke: #000000; stroke-width: 0.3"/>
    <path d="M 101.740683 -30.455591 
L 101.929898 -31.732085 
L 103.085449 -32.118537 
L 102.73912 -30.395588 
z
" clip-path="url(#pbc59d457f4)" style="fill: #eeeeee; stroke: #000000; stroke-width: 0.3"/>
    <path d="M 101.270745 -26.391752 
L 101.462216 -26.726236 
L 102.068709 -26.926074 
L 101.672827 -26.393644 
z
" clip-path="url(#pbc59d457f4)" style="fill: #eeeeee; stroke: #000000; stroke-width: 0.3"/>
    <path d="M 97.565883 86.021681 
L 99.302587 84.696516 
L 100.933993 85.379649 
L 99.574584 86.898499 
z
" clip-path="url(#pbc59d457f4)" style="fill: #eeeeee; stroke: #000000; stroke-width: 0.3"/>
    <path d="M 89.839108 -11.867415 
L 90.311862 -12.318107 
L 89.98158 -12.634166 
L 91.024788 -11.921264 
z
" clip-path="url(#pbc59d457f4)" style="fill: #eeeeee; stroke: #000000; stroke-width: 0.3"/>
    <path d="M 88.842919 -13.11746 
L 89.320178 -13.759017 
L 89.504328 -12.555273 
L 89.126182 -12.519362 
z
" clip-path="url(#pbc59d457f4)" style="fill: #eeeeee; stroke: #000000; stroke-width: 0.3"/>
    <path d="M 87.32668 -14.544669 
L 87.90784 -15.022287 
L 88.842919 -13.759017 
L 88.460275 -13.50721 
z
" clip-path="url(#pbc59d457f4)" style="fill: #eeeeee; stroke: #000000; stroke-width: 0.3"/>
    <path d="M 72.446684 25.031623 
L 73.267456 25.397281 
L 73.621383 26.907632 
L 73.02756 26.502766 
z
" clip-path="url(#pbc59d457f4)" style="fill: #eeeeee; stroke: #000000; stroke-width: 0.3"/>
    <path d="M 66.429591 7.325466 
L 66.95387 6.502033 
L 66.980338 8.356308 
L 66.461685 8.364818 
z
" clip-path="url(#pbc59d457f4)" style="fill: #eeeeee; stroke: #000000; stroke-width: 0.3"/>
    <path d="M 65.083136 18.3888 
L 65.417639 18.151646 
L 65.800284 18.547537 
L 65.264463 18.541872 
z
" clip-path="url(#pbc59d457f4)" style="fill: #eeeeee; stroke: #000000; stroke-width: 0.3"/>
    <path d="M 63.755828 12.342659 
L 64.657402 11.708661 
L 65.22448 12.270384 
L 64.997538 12.933199 
z
" clip-path="url(#pbc59d457f4)" style="fill: #eeeeee; stroke: #000000; stroke-width: 0.3"/>
    <path d="M 62.711775 11.78803 
L 63.188467 11.543317 
L 63.519309 11.708661 
L 63.113851 11.836224 
z
" clip-path="url(#pbc59d457f4)" style="fill: #eeeeee; stroke: #000000; stroke-width: 0.3"/>
    <path d="M 62.050651 17.199697 
L 63.03783 16.275161 
L 63.72992 16.125874 
L 62.642792 17.321119 
z
" clip-path="url(#pbc59d457f4)" style="fill: #eeeeee; stroke: #000000; stroke-width: 0.3"/>
    <path d="M 56.135203 12.933675 
L 56.879386 11.708661 
L 57.261753 12.270384 
L 56.906415 13.003116 
z
" clip-path="url(#pbc59d457f4)" style="fill: #eeeeee; stroke: #000000; stroke-width: 0.3"/>
    <path d="M 113.504851 77.265683 
L 113.733488 76.850425 
L 114.905931 77.743312 
z
" clip-path="url(#pbc59d457f4)" style="fill: #eeeeee; stroke: #000000; stroke-width: 0.3"/>
    <path d="M 101.929898 -29.742224 
L 102.737432 -29.742224 
L 102.501757 -29.029322 
z
" clip-path="url(#pbc59d457f4)" style="fill: #eeeeee; stroke: #000000; stroke-width: 0.3"/>
    <path d="M 101.363104 84.508009 
L 101.696479 84.027559 
L 101.929898 84.594472 
z
" clip-path="url(#pbc59d457f4)" style="fill: #eeeeee; stroke: #000000; stroke-width: 0.3"/>
    <path d="M 100.573022 -24.517159 
L 100.956801 -24.628654 
L 100.926111 -23.663481 
z
" clip-path="url(#pbc59d457f4)" style="fill: #eeeeee; stroke: #000000; stroke-width: 0.3"/>
    <path d="M 98.96077 -22.962874 
L 99.1145 -23.707415 
L 99.19841 -22.948698 
z
" clip-path="url(#pbc59d457f4)" style="fill: #eeeeee; stroke: #000000; stroke-width: 0.3"/>
    <path d="M 97.180132 -17.285224 
L 97.471559 -17.333407 
L 97.377236 -17.009326 
z
" clip-path="url(#pbc59d457f4)" style="fill: #eeeeee; stroke: #000000; stroke-width: 0.3"/>
    <path d="M 93.809773 -24.044732 
L 93.978713 -24.247403 
L 94.15103 -23.812291 
z
" clip-path="url(#pbc59d457f4)" style="fill: #eeeeee; stroke: #000000; stroke-width: 0.3"/>
    <path d="M 89.79406 -13.064552 
L 90.354938 -14.234277 
L 91.8709 -14.146409 
z
" clip-path="url(#pbc59d457f4)" style="fill: #eeeeee; stroke: #000000; stroke-width: 0.3"/>
    <path d="M 87.421004 -8.742765 
L 88.472101 -8.883552 
L 88.082689 -7.705317 
z
" clip-path="url(#pbc59d457f4)" style="fill: #eeeeee; stroke: #000000; stroke-width: 0.3"/>
    <path d="M 86.833658 -12.882187 
L 87.992586 -12.958723 
L 87.031883 -12.490069 
z
" clip-path="url(#pbc59d457f4)" style="fill: #eeeeee; stroke: #000000; stroke-width: 0.3"/>
    <path d="M 76.066516 79.809244 
L 76.156058 80.13711 
L 76.107626 80.192376 
z
" clip-path="url(#pbc59d457f4)" style="fill: #eeeeee; stroke: #000000; stroke-width: 0.3"/>
    <path d="M 75.945163 55.235393 
L 76.413412 55.105009 
L 76.847021 56.021522 
z
" clip-path="url(#pbc59d457f4)" style="fill: #eeeeee; stroke: #000000; stroke-width: 0.3"/>
    <path d="M 69.781931 19.505628 
L 70.184013 19.197604 
L 70.348448 19.109725 
z
" clip-path="url(#pbc59d457f4)" style="fill: #eeeeee; stroke: #000000; stroke-width: 0.3"/>
    <path d="M 69.525428 20.793942 
L 69.531898 20.235052 
L 69.781931 20.218994 
z
" clip-path="url(#pbc59d457f4)" style="fill: #eeeeee; stroke: #000000; stroke-width: 0.3"/>
    <path d="M 69.214292 21.41612 
L 69.602293 21.103382 
L 69.416455 21.801632 
z
" clip-path="url(#pbc59d457f4)" style="fill: #eeeeee; stroke: #000000; stroke-width: 0.3"/>
    <path d="M 68.643554 22.129022 
L 68.71817 21.938635 
L 69.165861 21.921625 
z
" clip-path="url(#pbc59d457f4)" style="fill: #eeeeee; stroke: #000000; stroke-width: 0.3"/>
    <path d="M 66.976954 6.201091 
L 67.171242 5.686147 
L 67.217694 5.741888 
z
" clip-path="url(#pbc59d457f4)" style="fill: #eeeeee; stroke: #000000; stroke-width: 0.3"/>
    <path d="M 66.811398 8.703076 
L 67.396495 8.822129 
L 66.85363 8.863694 
z
" clip-path="url(#pbc59d457f4)" style="fill: #eeeeee; stroke: #000000; stroke-width: 0.3"/>
    <path d="M 65.040053 23.563313 
L 65.98471 22.691685 
L 65.701455 23.491027 
z
" clip-path="url(#pbc59d457f4)" style="fill: #eeeeee; stroke: #000000; stroke-width: 0.3"/>
    <path d="M 64.945446 32.160562 
L 65.701455 32.081205 
L 65.718353 32.205448 
z
" clip-path="url(#pbc59d457f4)" style="fill: #eeeeee; stroke: #000000; stroke-width: 0.3"/>
    <path d="M 64.768341 94.66428 
L 64.941225 94.558463 
L 64.850562 94.711059 
z
" clip-path="url(#pbc59d457f4)" style="fill: #eeeeee; stroke: #000000; stroke-width: 0.3"/>
    <path d="M 64.492967 94.075633 
L 64.648393 94.251379 
L 64.606722 94.338307 
z
" clip-path="url(#pbc59d457f4)" style="fill: #eeeeee; stroke: #000000; stroke-width: 0.3"/>
    <path d="M 60.81795 -2.214281 
L 61.432332 -1.659176 
L 60.864693 -1.659176 
z
" clip-path="url(#pbc59d457f4)" style="fill: #eeeeee; stroke: #000000; stroke-width: 0.3"/>
    <path d="M 60.05772 18.151646 
L 61.861443 17.841729 
L 60.807252 18.840921 
z
" clip-path="url(#pbc59d457f4)" style="fill: #eeeeee; stroke: #000000; stroke-width: 0.3"/>
    <path d="M 59.438834 2.167974 
L 59.726594 1.749871 
L 60.005911 1.764036 
z
" clip-path="url(#pbc59d457f4)" style="fill: #eeeeee; stroke: #000000; stroke-width: 0.3"/>
    <path d="M 58.611025 4.169178 
L 58.74111 3.858785 
L 58.935951 3.956115 
z
" clip-path="url(#pbc59d457f4)" style="fill: #eeeeee; stroke: #000000; stroke-width: 0.3"/>
    <path d="M 57.167146 7.214924 
L 57.430133 6.707537 
L 58.566254 7.528613 
z
" clip-path="url(#pbc59d457f4)" style="fill: #eeeeee; stroke: #000000; stroke-width: 0.3"/>
    <path d="M 48.879493 2.793937 
L 49.246658 2.880864 
L 48.979166 3.045267 
z
" clip-path="url(#pbc59d457f4)" style="fill: #eeeeee; stroke: #000000; stroke-width: 0.3"/>
    <path d="M 92.91833 102.250542 
L 94.014752 102.250542 
L 94.41711 103.2828 
L 92.970138 103.129728 
z
" clip-path="url(#pbc59d457f4)" style="fill: #eeeeee; stroke: #000000; stroke-width: 0.3"/>
    <path d="M 93.021386 97.053829 
L 93.074883 96.927694 
L 93.286622 97.021227 
z
" clip-path="url(#pbc59d457f4)" style="fill: #eeeeee; stroke: #000000; stroke-width: 0.3"/>
    <path d="M 91.970573 100.479885 
L 91.988592 100.21626 
L 92.134448 100.305079 
z
" clip-path="url(#pbc59d457f4)" style="fill: #eeeeee; stroke: #000000; stroke-width: 0.3"/>
    <path d="M 91.437845 99.756592 
L 91.505984 99.761793 
L 91.449671 99.906355 
z
" clip-path="url(#pbc59d457f4)" style="fill: #eeeeee; stroke: #000000; stroke-width: 0.3"/>
    <path d="M 89.926678 100.238946 
L 91.115175 99.389517 
L 90.836417 100.26918 
z
" clip-path="url(#pbc59d457f4)" style="fill: #eeeeee; stroke: #000000; stroke-width: 0.3"/>
    <path d="M 75.279533 46.392956 
L 77.072842 42.969257 
L 78.31624 42.41558 
L 78.588797 43.88577 
L 76.511397 46.558776 
z
" clip-path="url(#pbc59d457f4)" style="fill: #eeeeee; stroke: #000000; stroke-width: 0.3"/>
   </g>
   <g id="PatchCollection_2">
    <path d="M 36.036354 68.350959 
L 38.039146 67.110829 
L 38.530763 67.645151 
L 38.814579 66.845798 
L 39.591707 67.682002 
L 41.043751 67.5587 
L 40.132317 67.269566 
L 40.373901 66.084248 
L 39.574809 65.656231 
L 41.756678 64.942388 
L 41.66207 63.818478 
L 44.265161 63.739109 
L 47.870074 62.627482 
L 46.41915 62.387019 
L 46.545298 61.440272 
L 44.170554 63.581324 
L 42.129752 62.708744 
L 39.668856 63.977215 
L 42.697674 61.703886 
L 43.698084 59.602531 
L 42.842962 59.523162 
L 44.264601 57.127471 
L 45.644001 57.454862 
L 45.26135 56.979601 
L 46.588374 57.138339 
L 46.875857 56.265759 
L 45.832365 56.265759 
L 46.545298 55.790975 
L 45.995396 55.632237 
L 42.607294 56.179308 
L 42.310802 55.455074 
L 41.911259 56.088607 
L 42.322911 54.355731 
L 40.565932 55.328938 
L 39.904807 55.069574 
L 40.618018 53.95984 
L 38.007045 54.039208 
L 39.144861 53.239855 
L 37.98086 52.380987 
L 41.326723 51.884933 
L 39.862008 51.329352 
L 39.862008 49.981987 
L 42.228864 49.585155 
L 41.846497 49.340907 
L 42.271663 48.785802 
L 39.617608 48.620447 
L 39.862008 48.144711 
L 39.810484 47.755913 
L 40.698827 48.194322 
L 39.927899 46.92585 
L 40.377845 45.91816 
L 39.431209 46.30791 
L 39.862008 45.845874 
L 39.153026 44.685124 
L 38.415881 46.106655 
L 38.814579 44.641654 
L 38.431928 44.490951 
L 39.24369 43.691134 
L 40.051223 44.166394 
L 39.385601 44.4045 
L 39.851878 44.846694 
L 40.854536 44.252845 
L 40.293936 43.487986 
L 40.712625 43.294766 
L 44.290785 43.691134 
L 45.170963 45.52841 
L 45.79351 43.858846 
L 49.530473 44.80795 
L 48.770804 44.252845 
L 49.813728 44.008608 
L 49.105307 43.575389 
L 49.475572 43.426567 
L 48.474034 43.048625 
L 49.838508 41.705046 
L 51.613513 41.392297 
L 51.192852 41.140014 
L 52.231832 39.713281 
L 49.908336 40.664278 
L 50.385311 40.023198 
L 47.547673 39.186053 
L 50.2434 38.365441 
L 49.203859 37.724361 
L 49.672385 37.327993 
L 50.814422 37.565624 
L 49.908336 35.576227 
L 50.853844 35.211034 
L 51.141043 33.745568 
L 51.985176 34.164135 
L 53.228581 33.033142 
L 53.039366 33.587771 
L 54.061456 33.995958 
L 54.461005 32.636299 
L 54.343022 33.349665 
L 55.126628 34.459411 
L 55.178153 33.200855 
L 54.533926 33.071886 
L 55.531803 32.442602 
L 56.349474 34.260989 
L 55.27276 36.138891 
L 56.831238 34.957822 
L 56.359612 32.239467 
L 58.211199 32.312217 
L 57.327644 31.123591 
L 60.406014 32.83378 
L 57.183539 35.56817 
L 56.229845 38.608888 
L 53.554712 39.13088 
L 55.089489 40.205446 
L 51.865097 41.859012 
L 54.061414 44.765328 
L 57.72529 45.901104 
L 58.926796 44.616529 
L 58.6561 43.333765 
L 59.864395 42.422987 
L 61.456032 44.863123 
L 62.476599 45.269313 
L 62.543825 46.734476 
L 64.452286 45.935297 
L 66.165199 47.061913 
L 64.417507 47.034036 
L 64.289961 47.976058 
L 65.22448 48.785802 
L 65.316839 51.207466 
L 66.37271 52.390902 
L 65.559544 53.477021 
L 66.478583 54.56502 
L 65.397925 54.799818 
L 66.236432 55.515076 
L 66.952458 59.32474 
L 64.374147 66.441872 
L 63.472006 66.21086 
L 64.326843 66.694154 
L 64.506205 68.150645 
L 61.333219 67.969708 
L 61.620703 67.407045 
L 60.457546 68.993456 
L 60.654075 68.44166 
L 60.005911 67.082964 
L 60.298176 68.358517 
L 59.868789 68.834254 
L 55.836177 69.267937 
L 56.215452 69.80226 
L 55.905721 70.543503 
L 54.107071 70.671531 
L 52.925612 72.48518 
L 51.364325 72.731321 
L 51.773444 71.681578 
L 50.238895 71.69717 
L 51.01039 73.157446 
L 49.203859 73.85003 
L 49.625081 74.008767 
L 49.388562 74.959764 
L 47.825303 74.56292 
L 48.250753 75.356131 
L 45.312591 75.514869 
L 44.599665 76.393579 
L 43.508875 76.552316 
L 43.934319 75.83895 
L 43.080893 75.555018 
L 40.472446 76.876409 
L 42.370776 74.959764 
L 40.283514 75.672654 
L 42.974736 74.109859 
L 42.271663 73.208474 
L 41.810742 74.097575 
L 40.099371 74.432535 
L 38.148389 75.284321 
L 39.361949 73.553813 
L 42.129752 71.861098 
L 38.290016 73.446104 
L 37.604963 72.170538 
L 36.868384 72.899033 
L 36.490806 71.781729 
L 37.469812 71.501117 
L 37.386186 70.574677 
L 40.90184 68.675516 
L 36.207267 69.30999 
z
" clip-path="url(#pbc59d457f4)" style="fill: #ff6b6b; stroke: #dd0000; stroke-width: 0.5"/>
    <path d="M 49.152611 35.893702 
L 49.631841 35.601735 
L 49.719128 35.893702 
z
" clip-path="url(#pbc59d457f4)" style="fill: #ff6b6b; stroke: #dd0000; stroke-width: 0.5"/>
    <path d="M 41.232683 56.060255 
L 41.232683 55.632237 
L 41.592803 56.129232 
z
" clip-path="url(#pbc59d457f4)" style="fill: #ff6b6b; stroke: #dd0000; stroke-width: 0.5"/>
    <path d="M 40.533271 57.232824 
L 41.32729 57.245108 
L 41.5776 57.778002 
z
" clip-path="url(#pbc59d457f4)" style="fill: #ff6b6b; stroke: #dd0000; stroke-width: 0.5"/>
    <path d="M 39.796685 74.860077 
L 40.047279 74.60827 
L 40.617173 74.657882 
z
" clip-path="url(#pbc59d457f4)" style="fill: #ff6b6b; stroke: #dd0000; stroke-width: 0.5"/>
    <path d="M 37.388158 47.43088 
L 39.395171 46.974509 
L 39.519063 48.606282 
z
" clip-path="url(#pbc59d457f4)" style="fill: #ff6b6b; stroke: #dd0000; stroke-width: 0.5"/>
    <path d="M 36.259636 71.719846 
L 36.794896 71.240336 
L 36.995653 71.563941 
z
" clip-path="url(#pbc59d457f4)" style="fill: #ff6b6b; stroke: #dd0000; stroke-width: 0.5"/>
   </g>
  </g>
 </g>
 <defs>
  <clipPath id="pbc59d457f4">
   <rect x="0" y="0" width="102.988813" height="108"/>
  </clipPath>
 </defs>
</svg>
