<?xml version="1.0" encoding="utf-8" standalone="no"?>
<!DOCTYPE svg PUBLIC "-//W3C//DTD SVG 1.1//EN"
  "http://www.w3.org/Graphics/SVG/1.1/DTD/svg11.dtd">
<svg xmlns:xlink="http://www.w3.org/1999/xlink" width="164.238361pt" height="108pt" viewBox="0 0 164.238361 108" xmlns="http://www.w3.org/2000/svg" version="1.1">
 <metadata>
  <rdf:RDF xmlns:dc="http://purl.org/dc/elements/1.1/" xmlns:cc="http://creativecommons.org/ns#" xmlns:rdf="http://www.w3.org/1999/02/22-rdf-syntax-ns#">
   <cc:Work>
    <dc:type rdf:resource="http://purl.org/dc/dcmitype/StillImage"/>
    <dc:date>2025-09-05T15:49:28.537267</dc:date>
    <dc:format>image/svg+xml</dc:format>
    <dc:creator>
     <cc:Agent>
      <dc:title>Matplotlib v3.10.3, https://matplotlib.org/</dc:title>
     </cc:Agent>
    </dc:creator>
   </cc:Work>
  </rdf:RDF>
 </metadata>
 <defs>
  <style type="text/css">*{stroke-linejoin: round; stroke-linecap: butt}</style>
 </defs>
 <g id="figure_1">
  <g id="patch_1">
   <path d="M 0 108 
L 164.238361 108 
L 164.238361 0 
L 0 0 
z
" style="fill: #ffffff"/>
  </g>
  <g id="axes_1">
   <g id="PatchCollection_1">
    <path d="M 134.547714 47.719355 
L 135.87409 44.003068 
L 138.927207 42.95964 
L 147.425641 45.54891 
L 151.498747 44.760313 
L 149.092013 45.401807 
L 150.26329 46.297304 
L 164.309433 47.625317 
L 167.833948 47.554571 
L 170.085583 45.122064 
L 174.643083 45.729776 
L 175.08241 42.703208 
L 170.96805 40.681466 
L 166.010956 35.400846 
L 168.008162 34.102605 
L 166.201956 31.864614 
L 167.880553 30.649981 
L 166.773456 29.009271 
L 168.15943 27.637874 
L 162.468846 24.524479 
L 154.820789 23.882194 
L 153.719814 22.127335 
L 155.65436 20.226993 
L 154.617565 20.226993 
L 159.372186 17.921477 
L 166.715397 17.798496 
L 174.056299 20.435181 
L 175.01823 22.250335 
L 177.181238 20.89982 
L 184.639815 23.47301 
L 184.2089 22.397438 
L 185.841643 22.41753 
L 186.847625 28.25501 
L 185.483319 29.976264 
L 187.978062 33.434124 
L 183.814356 37.149225 
L 186.291617 38.766366 
L 186.538085 41.080259 
L 184.261682 43.993447 
L 181.102269 44.372208 
L 182.936208 47.692724 
L 186.744764 50.013788 
L 185.488652 55.426872 
L 179.939422 51.509608 
L 164.65249 53.40835 
L 155.425918 51.102853 
L 150.117355 52.046594 
L 150.374075 51.090802 
L 146.972568 53.396299 
L 147.604417 55.629449 
L 146.112259 55.684923 
L 141.760275 51.310251 
L 136.744333 50.305405 
z
" clip-path="url(#p23b6428eb7)" style="fill: #eeeeee; stroke: #000000; stroke-width: 0.3"/>
    <path d="M 156.947895 37.700712 
L 158.739567 37.064867 
L 165.399724 39.862326 
L 166.101105 41.970085 
z
" clip-path="url(#p23b6428eb7)" style="fill: #eeeeee; stroke: #000000; stroke-width: 0.3"/>
    <path d="M 163.254292 15.480929 
L 166.220302 14.967255 
L 169.503381 16.527578 
z
" clip-path="url(#p23b6428eb7)" style="fill: #eeeeee; stroke: #000000; stroke-width: 0.3"/>
    <path d="M 149.221894 54.340849 
L 149.36706 54.062705 
L 151.656907 54.879435 
z
" clip-path="url(#p23b6428eb7)" style="fill: #eeeeee; stroke: #000000; stroke-width: 0.3"/>
    <path d="M 148.06055 44.578637 
L 148.615244 43.620416 
L 149.092013 44.323016 
z
" clip-path="url(#p23b6428eb7)" style="fill: #eeeeee; stroke: #000000; stroke-width: 0.3"/>
    <path d="M 121.851963 18.725108 
L 122.382604 17.252521 
L 123.172856 17.25187 
L 123.171805 18.72088 
z
" clip-path="url(#p23b6428eb7)" style="fill: #eeeeee; stroke: #000000; stroke-width: 0.3"/>
    <path d="M 120.583327 18.66507 
L 120.65637 17.926416 
L 122.012752 17.897572 
z
" clip-path="url(#p23b6428eb7)" style="fill: #eeeeee; stroke: #000000; stroke-width: 0.3"/>
    <path d="M -61.869033 -20.386957 
L -53.827502 -23.770455 
L -49.456421 -23.230249 
L -52.406377 -26.871799 
L -48.035296 -34.340545 
L -46.753235 -34.070442 
L -44.939406 -37.011013 
L -32.649033 -40.14531 
L -29.508059 -42.61399 
L -28.442215 -41.196759 
L -26.409107 -42.96448 
L -24.589157 -42.041621 
L -10.602613 -46.414694 
L 1.380623 -45.694412 
L 2.363941 -43.509506 
L 9.492455 -46.773204 
L 6.917629 -45.155826 
L 9.492455 -43.266726 
L 10.826473 -44.628482 
L 18.618156 -44.346328 
L 19.855153 -45.66065 
L 20.615362 -42.723319 
L 22.96785 -41.588243 
L 30.202567 -41.770728 
L 32.63833 -39.600283 
L 33.639975 -40.279551 
L 34.957958 -40.557695 
L 33.7523 -39.035145 
L 37.609939 -37.811661 
L 43.429653 -30.983579 
L 53.943619 -30.538241 
L 54.830667 -29.068776 
L 55.328824 -30.465085 
L 67.402978 -24.53977 
L 70.72656 -20.250305 
L 71.251454 -22.152267 
L 72.264572 -22.152267 
L 71.468442 -21.054983 
L 73.289162 -18.961705 
L 78.846034 -18.412668 
L 79.322033 -16.057328 
L 80.882973 -15.681906 
L 78.974394 -18.907851 
L 75.866261 -20.533269 
L 76.961134 -21.409484 
L 84.886548 -16.192359 
L 84.502237 -14.021914 
L 80.562072 -15.151361 
L 82.611234 -14.275936 
L 82.556217 -12.476883 
L 84.362404 -12.550829 
L 85.743797 -15.041221 
L 90.936224 -10.91897 
L 89.51816 -9.137598 
L 91.05236 -10.771868 
L 93.569879 -10.09742 
L 92.383318 -8.706722 
L 95.946814 -8.748525 
L 94.665504 -7.521821 
L 96.086629 -6.713132 
L 97.613957 -7.521821 
L 96.310489 -8.637596 
L 98.901351 -8.682619 
L 105.480523 -4.542667 
L 111.736484 -5.415681 
L 114.093553 -3.329634 
L 110.996893 -0.879445 
L 114.606994 0.460619 
L 110.492634 0.177655 
L 111.351423 2.950201 
L 113.067461 1.269308 
L 114.606994 3.16965 
L 116.6997 2.058715 
L 119.081987 3.557933 
L 120.142479 3.439753 
L 119.429625 2.404365 
L 124.986497 2.846503 
L 129.920684 4.653597 
L 136.35392 11.0299 
L 139.302354 10.344211 
L 141.110832 11.902914 
L 138.71174 15.341057 
L 128.467469 15.954419 
L 123.171805 18.72088 
L 123.220043 15.480929 
L 119.610712 18.89819 
L 102.380802 16.841895 
L 74.144121 20.048518 
L 76.390405 14.941533 
L 85.271628 9.410902 
L 85.853812 7.498509 
L 82.896984 5.566794 
L 83.732076 4.115011 
L 80.958607 2.496013 
L 67.393815 2.631064 
L 59.463068 -3.827226 
L 59.269758 -8.398845 
L 54.642728 -15.640912 
L 45.925015 -13.901344 
L 37.603067 -16.730965 
L 33.871497 -16.501046 
L 33.034865 -18.07986 
L 31.009381 -17.307344 
L 22.656112 -23.814669 
L 23.770101 -24.444902 
L 21.973828 -26.615347 
L 20.963771 -26.070321 
L 22.230548 -23.635403 
L 10.632393 -24.517248 
L 8.651242 -28.383878 
L 8.449538 -24.012425 
L 7.803156 -25.805848 
L 5.948825 -24.579954 
L 2.463272 -26.871799 
L -3.187579 -26.553452 
L -9.562757 -30.662032 
L 0.058772 -32.458833 
L 0.214772 -34.136309 
L -4.183685 -36.250054 
L -20.752135 -36.768232 
L -33.062298 -26.4978 
L -36.065824 -27.694139 
L -37.860557 -26.210213 
L -42.638105 -26.210213 
L -44.590227 -21.238259 
L -48.547197 -21.059804 
L -53.583775 -18.214912 
L -53.354563 -21.513183 
L -59.809186 -19.322646 
z
" clip-path="url(#p23b6428eb7)" style="fill: #eeeeee; stroke: #000000; stroke-width: 0.3"/>
    <path d="M -28.862446 -15.517912 
L -24.492887 -14.168227 
L -26.868282 -18.875688 
L -25.063616 -21.802587 
L -19.697764 -20.703684 
L -17.149676 -15.640912 
L -17.649371 -13.769493 
L -23.500386 -11.708377 
L -26.73534 -12.335391 
z
" clip-path="url(#p23b6428eb7)" style="fill: #eeeeee; stroke: #000000; stroke-width: 0.3"/>
    <path d="M 67.765901 -26.750399 
L 68.475694 -27.440928 
L 68.562031 -28.478726 
L 68.290026 -29.042244 
L 71.891715 -25.9409 
L 71.188814 -24.780931 
z
" clip-path="url(#p23b6428eb7)" style="fill: #eeeeee; stroke: #000000; stroke-width: 0.3"/>
    <path d="M 37.917846 -38.668594 
L 39.14491 -38.707177 
L 42.862735 -36.189463 
L 43.710821 -35.001341 
L 40.081623 -37.059237 
L 39.11128 -38.394461 
z
" clip-path="url(#p23b6428eb7)" style="fill: #eeeeee; stroke: #000000; stroke-width: 0.3"/>
    <path d="M 69.573628 -24.848457 
L 71.033715 -24.315481 
L 72.220258 -24.788161 
L 75.493423 -23.893455 
L 74.199137 -21.059804 
z
" clip-path="url(#p23b6428eb7)" style="fill: #eeeeee; stroke: #000000; stroke-width: 0.3"/>
    <path d="M 55.551933 -33.518185 
L 61.182148 -33.880746 
L 63.395591 -31.685369 
L 58.469047 -31.879096 
L 55.600828 -32.847768 
z
" clip-path="url(#p23b6428eb7)" style="fill: #eeeeee; stroke: #000000; stroke-width: 0.3"/>
    <path d="M 1.765703 -14.977726 
L 1.939898 -15.464057 
L 5.302442 -17.001068 
L 2.96678 -15.284002 
z
" clip-path="url(#p23b6428eb7)" style="fill: #eeeeee; stroke: #000000; stroke-width: 0.3"/>
    <path d="M -5.276474 -15.747021 
L -3.714765 -16.174678 
L -4.631631 -15.227717 
L -5.213815 -15.481739 
z
" clip-path="url(#p23b6428eb7)" style="fill: #eeeeee; stroke: #000000; stroke-width: 0.3"/>
    <path d="M 114.107317 1.487967 
L 115.413827 1.151148 
L 115.90205 2.11498 
z
" clip-path="url(#p23b6428eb7)" style="fill: #eeeeee; stroke: #000000; stroke-width: 0.3"/>
    <path d="M 70.864853 -28.920863 
L 73.173777 -26.345244 
L 72.722996 -26.334003 
z
" clip-path="url(#p23b6428eb7)" style="fill: #eeeeee; stroke: #000000; stroke-width: 0.3"/>
    <path d="M 62.75456 -30.808344 
L 65.916922 -31.295486 
L 68.418386 -28.380657 
z
" clip-path="url(#p23b6428eb7)" style="fill: #eeeeee; stroke: #000000; stroke-width: 0.3"/>
    <path d="M 59.922243 4.788648 
L 60.484579 4.648776 
L 62.259446 6.45668 
z
" clip-path="url(#p23b6428eb7)" style="fill: #eeeeee; stroke: #000000; stroke-width: 0.3"/>
    <path d="M 58.383461 2.777377 
L 59.537182 2.22591 
L 59.013808 3.036219 
z
" clip-path="url(#p23b6428eb7)" style="fill: #eeeeee; stroke: #000000; stroke-width: 0.3"/>
    <path d="M 57.106751 3.692175 
L 57.766127 3.880271 
L 57.627064 3.975139 
z
" clip-path="url(#p23b6428eb7)" style="fill: #eeeeee; stroke: #000000; stroke-width: 0.3"/>
    <path d="M 56.485586 3.803914 
L 56.799614 3.674493 
L 56.772875 3.787023 
z
" clip-path="url(#p23b6428eb7)" style="fill: #eeeeee; stroke: #000000; stroke-width: 0.3"/>
    <path d="M 54.201109 -33.522215 
L 54.752743 -33.179766 
L 54.241593 -33.070437 
z
" clip-path="url(#p23b6428eb7)" style="fill: #eeeeee; stroke: #000000; stroke-width: 0.3"/>
    <path d="M 53.470681 1.730728 
L 54.525821 2.3481 
L 53.746497 2.46788 
z
" clip-path="url(#p23b6428eb7)" style="fill: #eeeeee; stroke: #000000; stroke-width: 0.3"/>
    <path d="M 50.516895 0.606912 
L 52.164171 0.70338 
L 52.719635 1.416411 
z
" clip-path="url(#p23b6428eb7)" style="fill: #eeeeee; stroke: #000000; stroke-width: 0.3"/>
    <path d="M 48.348555 -1.036188 
L 50.388535 -0.566728 
L 50.05618 0.11414 
z
" clip-path="url(#p23b6428eb7)" style="fill: #eeeeee; stroke: #000000; stroke-width: 0.3"/>
    <path d="M 48.209491 -36.093785 
L 50.582596 -35.863075 
L 49.762788 -35.795549 
z
" clip-path="url(#p23b6428eb7)" style="fill: #eeeeee; stroke: #000000; stroke-width: 0.3"/>
    <path d="M 45.796655 -35.524656 
L 46.526314 -35.557609 
L 45.97162 -35.157275 
z
" clip-path="url(#p23b6428eb7)" style="fill: #eeeeee; stroke: #000000; stroke-width: 0.3"/>
    <path d="M 45.633144 -3.180911 
L 47.262075 -2.722712 
L 47.676955 -1.303881 
z
" clip-path="url(#p23b6428eb7)" style="fill: #eeeeee; stroke: #000000; stroke-width: 0.3"/>
    <path d="M 43.137782 -5.586096 
L 44.352603 -4.542667 
L 43.449519 -4.505704 
z
" clip-path="url(#p23b6428eb7)" style="fill: #eeeeee; stroke: #000000; stroke-width: 0.3"/>
    <path d="M 36.123883 -39.932281 
L 36.186542 -40.679865 
L 36.359216 -40.207205 
z
" clip-path="url(#p23b6428eb7)" style="fill: #eeeeee; stroke: #000000; stroke-width: 0.3"/>
    <path d="M 33.489458 -41.544029 
L 34.311575 -40.979721 
L 33.952482 -40.806086 
z
" clip-path="url(#p23b6428eb7)" style="fill: #eeeeee; stroke: #000000; stroke-width: 0.3"/>
    <path d="M 31.86969 -41.649348 
L 32.975266 -41.32699 
L 32.014875 -41.162996 
z
" clip-path="url(#p23b6428eb7)" style="fill: #eeeeee; stroke: #000000; stroke-width: 0.3"/>
    <path d="M 29.290301 -43.532008 
L 29.628758 -43.958064 
L 30.013087 -43.104352 
z
" clip-path="url(#p23b6428eb7)" style="fill: #eeeeee; stroke: #000000; stroke-width: 0.3"/>
    <path d="M 26.846125 -44.346328 
L 27.944059 -44.404212 
L 28.605707 -44.295693 
z
" clip-path="url(#p23b6428eb7)" style="fill: #eeeeee; stroke: #000000; stroke-width: 0.3"/>
    <path d="M 25.3295 -45.234613 
L 25.954495 -45.343923 
L 26.370126 -44.25389 
z
" clip-path="url(#p23b6428eb7)" style="fill: #eeeeee; stroke: #000000; stroke-width: 0.3"/>
    <path d="M 24.539492 -42.310934 
L 26.380829 -42.793255 
L 26.717765 -41.770728 
z
" clip-path="url(#p23b6428eb7)" style="fill: #eeeeee; stroke: #000000; stroke-width: 0.3"/>
    <path d="M 22.436834 -45.118033 
L 22.693554 -45.55294 
L 24.004664 -45.583483 
z
" clip-path="url(#p23b6428eb7)" style="fill: #eeeeee; stroke: #000000; stroke-width: 0.3"/>
    <path d="M 20.167642 -46.111618 
L 20.561115 -46.628512 
L 21.771355 -45.90343 
z
" clip-path="url(#p23b6428eb7)" style="fill: #eeeeee; stroke: #000000; stroke-width: 0.3"/>
    <path d="M 17.846475 -46.13977 
L 18.022209 -46.60601 
L 18.401938 -46.268381 
z
" clip-path="url(#p23b6428eb7)" style="fill: #eeeeee; stroke: #000000; stroke-width: 0.3"/>
    <path d="M 14.89498 -46.930778 
L 15.337368 -46.993483 
L 17.702849 -46.347168 
z
" clip-path="url(#p23b6428eb7)" style="fill: #eeeeee; stroke: #000000; stroke-width: 0.3"/>
    <path d="M 13.369191 -47.65989 
L 13.926946 -47.823864 
L 14.573328 -47.163088 
z
" clip-path="url(#p23b6428eb7)" style="fill: #eeeeee; stroke: #000000; stroke-width: 0.3"/>
    <path d="M 12.8252 -44.763533 
L 15.957763 -45.597944 
L 15.47337 -45.257115 
z
" clip-path="url(#p23b6428eb7)" style="fill: #eeeeee; stroke: #000000; stroke-width: 0.3"/>
    <path d="M 1.236208 -24.257596 
L 1.355405 -24.334783 
L 2.021654 -23.702119 
z
" clip-path="url(#p23b6428eb7)" style="fill: #eeeeee; stroke: #000000; stroke-width: 0.3"/>
    <path d="M -8.629085 -14.332221 
L -6.421012 -15.444776 
L -6.292652 -15.093476 
z
" clip-path="url(#p23b6428eb7)" style="fill: #eeeeee; stroke: #000000; stroke-width: 0.3"/>
    <path d="M -16.403981 -35.465961 
L -16.01738 -34.478817 
L -16.30159 -33.871085 
z
" clip-path="url(#p23b6428eb7)" style="fill: #eeeeee; stroke: #000000; stroke-width: 0.3"/>
    <path d="M -18.836684 -21.47942 
L -17.895389 -21.610461 
L -17.584422 -21.37252 
z
" clip-path="url(#p23b6428eb7)" style="fill: #eeeeee; stroke: #000000; stroke-width: 0.3"/>
    <path d="M -36.673995 -22.159498 
L -35.500428 -22.055799 
L -36.388246 -22.033297 
z
" clip-path="url(#p23b6428eb7)" style="fill: #eeeeee; stroke: #000000; stroke-width: 0.3"/>
    <path d="M 4662.152631 30.40639 
L 4662.482694 30.830846 
L 4662.329886 31.002071 
z
" clip-path="url(#p23b6428eb7)" style="fill: #eeeeee; stroke: #000000; stroke-width: 0.3"/>
    <path d="M 124.621283 48.36567 
L 124.824526 48.000719 
L 124.896349 48.344768 
z
" clip-path="url(#p23b6428eb7)" style="fill: #eeeeee; stroke: #000000; stroke-width: 0.3"/>
    <path d="M -1471.659441 419.240193 
L -1471.263676 419.167847 
L -1471.56165 419.489394 
z
" clip-path="url(#p23b6428eb7)" style="fill: #eeeeee; stroke: #000000; stroke-width: 0.3"/>
    <path d="M -1510.596526 295.47467 
L -1509.990646 295.443337 
L -1510.022736 295.854102 
z
" clip-path="url(#p23b6428eb7)" style="fill: #eeeeee; stroke: #000000; stroke-width: 0.3"/>
    <path d="M -1516.164871 284.773558 
L -1515.885224 284.479333 
L -1515.885224 284.773558 
z
" clip-path="url(#p23b6428eb7)" style="fill: #eeeeee; stroke: #000000; stroke-width: 0.3"/>
    <path d="M -1649.735369 81.016481 
L -1649.735369 80.984319 
L -1649.718564 81.009251 
z
" clip-path="url(#p23b6428eb7)" style="fill: #eeeeee; stroke: #000000; stroke-width: 0.3"/>
    <path d="M -1650.214429 80.809084 
L -1649.869851 80.64831 
L -1649.805671 80.65153 
z
" clip-path="url(#p23b6428eb7)" style="fill: #eeeeee; stroke: #000000; stroke-width: 0.3"/>
    <path d="M -1650.40849 81.421636 
L -1650.374109 81.344469 
L -1649.89965 81.249601 
z
" clip-path="url(#p23b6428eb7)" style="fill: #eeeeee; stroke: #000000; stroke-width: 0.3"/>
    <path d="M -1780.241316 407.425716 
L -1780.158791 407.34612 
L -1780.151918 407.477971 
z
" clip-path="url(#p23b6428eb7)" style="fill: #eeeeee; stroke: #000000; stroke-width: 0.3"/>
    <path d="M -1780.530126 408.048719 
L -1780.484273 407.908037 
L -1780.454473 407.994055 
z
" clip-path="url(#p23b6428eb7)" style="fill: #eeeeee; stroke: #000000; stroke-width: 0.3"/>
    <path d="M -1783.556485 395.96493 
L -1783.528977 395.866862 
L -1783.473979 395.936798 
z
" clip-path="url(#p23b6428eb7)" style="fill: #eeeeee; stroke: #000000; stroke-width: 0.3"/>
    <path d="M -1796.602504 -145.392855 
L -1796.369462 -145.459571 
L -1796.337372 -145.424208 
z
" clip-path="url(#p23b6428eb7)" style="fill: #eeeeee; stroke: #000000; stroke-width: 0.3"/>
    <path d="M -1797.622494 -145.261834 
L -1797.404736 -145.561669 
L -1797.295491 -145.354272 
z
" clip-path="url(#p23b6428eb7)" style="fill: #eeeeee; stroke: #000000; stroke-width: 0.3"/>
    <path d="M 61.589386 50.955751 
L 64.294093 47.42594 
L 69.188547 47.449252 
L 70.458385 45.953255 
L 82.282692 47.126914 
L 89.374684 48.1172 
L 91.479464 50.71378 
L 99.585175 53.120565 
L 102.648976 57.87224 
L 99.362085 58.951842 
L 94.860335 58.8176 
L 90.218752 56.354926 
L 88.488237 59.490428 
L 84.741757 58.550639 
L 83.337062 60.704291 
L 84.758957 60.839323 
L 84.041522 62.046745 
L 79.558118 58.93416 
L 73.681115 59.070812 
L 67.680334 52.544996 
z
" clip-path="url(#p23b6428eb7)" style="fill: #eeeeee; stroke: #000000; stroke-width: 0.3"/>
    <path d="M 4.471782 29.136163 
L 5.726542 30.477867 
L 10.667394 30.323514 
L 5.017369 31.233531 
z
" clip-path="url(#p23b6428eb7)" style="fill: #eeeeee; stroke: #000000; stroke-width: 0.3"/>
    <path d="M 33.065302 23.018841 
L 35.84157 21.478709 
L 36.20316 21.885048 
z
" clip-path="url(#p23b6428eb7)" style="fill: #eeeeee; stroke: #000000; stroke-width: 0.3"/>
    <path d="M 28.945591 23.433972 
L 29.904481 22.603789 
L 31.741349 22.520438 
z
" clip-path="url(#p23b6428eb7)" style="fill: #eeeeee; stroke: #000000; stroke-width: 0.3"/>
    <path d="M 31.292839 99.78042 
L 31.298961 99.740236 
L 31.325699 99.775599 
z
" clip-path="url(#p23b6428eb7)" style="fill: #eeeeee; stroke: #000000; stroke-width: 0.3"/>
    <path d="M 56.599431 98.400982 
L 56.665902 98.335867 
L 56.66209 98.438775 
z
" clip-path="url(#p23b6428eb7)" style="fill: #eeeeee; stroke: #000000; stroke-width: 0.3"/>
   </g>
   <g id="PatchCollection_2">
    <defs>
     <path id="m5997f0fdf1" d="M 61.589386 -57.044249 
L 64.294093 -60.57406 
L 69.188547 -60.550748 
L 70.458385 -62.046745 
L 82.282692 -60.873086 
L 89.374684 -59.8828 
L 91.479464 -57.28622 
L 99.585175 -54.879435 
L 102.648976 -50.12776 
L 99.362085 -49.048158 
L 94.860335 -49.1824 
L 90.218752 -51.645074 
L 88.488237 -48.509572 
L 84.741757 -49.449361 
L 83.337062 -47.295709 
L 84.758957 -47.160677 
L 84.041522 -45.953255 
L 79.558118 -49.06584 
L 73.681115 -48.929188 
L 67.680334 -55.455004 
z
" style="stroke: #dd0000; stroke-width: 0.5"/>
    </defs>
    <g clip-path="url(#p23b6428eb7)">
     <use xlink:href="#m5997f0fdf1" x="0" y="108" style="fill: #ff6b6b; stroke: #dd0000; stroke-width: 0.5"/>
    </g>
   </g>
  </g>
 </g>
 <defs>
  <clipPath id="p23b6428eb7">
   <rect x="0" y="0" width="164.238361" height="108"/>
  </clipPath>
 </defs>
</svg>
