<?xml version="1.0" encoding="utf-8" standalone="no"?>
<!DOCTYPE svg PUBLIC "-//W3C//DTD SVG 1.1//EN"
  "http://www.w3.org/Graphics/SVG/1.1/DTD/svg11.dtd">
<svg xmlns:xlink="http://www.w3.org/1999/xlink" width="143.447201pt" height="108pt" viewBox="0 0 143.447201 108" xmlns="http://www.w3.org/2000/svg" version="1.1">
 <metadata>
  <rdf:RDF xmlns:dc="http://purl.org/dc/elements/1.1/" xmlns:cc="http://creativecommons.org/ns#" xmlns:rdf="http://www.w3.org/1999/02/22-rdf-syntax-ns#">
   <cc:Work>
    <dc:type rdf:resource="http://purl.org/dc/dcmitype/StillImage"/>
    <dc:date>2025-09-05T13:56:20.103891</dc:date>
    <dc:format>image/svg+xml</dc:format>
    <dc:creator>
     <cc:Agent>
      <dc:title>Matplotlib v3.10.3, https://matplotlib.org/</dc:title>
     </cc:Agent>
    </dc:creator>
   </cc:Work>
  </rdf:RDF>
 </metadata>
 <defs>
  <style type="text/css">*{stroke-linejoin: round; stroke-linecap: butt}</style>
 </defs>
 <g id="figure_1">
  <g id="patch_1">
   <path d="M 0 108 
L 143.447201 108 
L 143.447201 0 
L 0 0 
z
" style="fill: #ffffff"/>
  </g>
  <g id="axes_1">
   <g id="PatchCollection_1">
    <path d="M 55.249616 43.34404 
L 56.844018 42.767612 
L 57.033386 43.186617 
L 56.159305 43.501463 
L 56.862235 44.234722 
L 55.421146 44.100219 
z
M 55.722533 43.727702 
L 55.803918 43.813492 
L 55.803918 43.721582 
z
" clip-path="url(#p4404ed451b)" style="fill: #eeeeee; stroke: #000000; stroke-width: 0.3"/>
    <path d="M 44.59578 43.188742 
L 45.671602 43.460402 
L 47.534047 42.146601 
L 48.792211 43.315292 
L 53.258873 42.390543 
L 53.583618 44.055738 
L 54.043748 43.450561 
L 55.43195 43.962889 
L 54.695305 45.478567 
L 49.825928 47.273011 
L 50.015296 46.831843 
L 49.047398 46.58386 
L 47.894098 47.087004 
L 46.013572 46.389671 
z
" clip-path="url(#p4404ed451b)" style="fill: #eeeeee; stroke: #000000; stroke-width: 0.3"/>
    <path d="M 56.199994 43.401072 
L 57.847426 43.332958 
L 58.43172 44.170731 
L 56.455097 44.183938 
z
" clip-path="url(#p4404ed451b)" style="fill: #eeeeee; stroke: #000000; stroke-width: 0.3"/>
    <path d="M 55.858031 43.956295 
L 56.124091 44.055738 
L 56.016887 44.041601 
z
" clip-path="url(#p4404ed451b)" style="fill: #eeeeee; stroke: #000000; stroke-width: 0.3"/>
    <path d="M 55.722533 43.727702 
L 55.803918 43.721582 
L 55.803918 43.813492 
z
" clip-path="url(#p4404ed451b)" style="fill: #eeeeee; stroke: #000000; stroke-width: 0.3"/>
    <path d="M 59.561518 78.407172 
L 61.891096 75.412152 
L 61.324543 75.01708 
L 63.071426 71.656419 
L 64.855212 63.789375 
L 65.727703 63.386331 
L 66.006823 61.295428 
L 68.887888 61.297297 
L 69.412965 59.531237 
L 69.82457 59.904529 
L 71.469443 58.384737 
L 71.071922 59.607121 
L 71.976523 62.596505 
L 70.988583 64.426064 
L 69.49669 65.369546 
L 69.499825 67.706142 
L 66.696813 66.274256 
L 65.5911 67.255552 
L 64.960386 69.376517 
L 65.54789 72.048327 
L 65.081696 72.734851 
L 66.662106 72.959458 
L 66.933586 72.317014 
L 67.242409 73.507749 
L 65.05272 74.586318 
L 64.335147 77.026371 
L 66.501183 77.031551 
L 68.724338 75.851825 
L 68.248566 77.985513 
L 68.572531 79.389591 
L 66.312595 85.53285 
L 66.352503 88.331109 
L 64.577326 94.108582 
z
" clip-path="url(#p4404ed451b)" style="fill: #eeeeee; stroke: #000000; stroke-width: 0.3"/>
    <path d="M 64.335147 77.026371 
L 65.05272 74.586318 
L 67.242409 73.507749 
L 66.933586 72.317014 
L 66.662106 72.959458 
L 65.081696 72.734851 
L 65.54789 72.048327 
L 64.936249 69.51444 
L 65.73978 66.990906 
L 66.83219 66.265773 
L 69.499825 67.706142 
L 69.488081 73.355214 
L 68.725905 75.852299 
L 66.501183 77.031551 
z
" clip-path="url(#p4404ed451b)" style="fill: #eeeeee; stroke: #000000; stroke-width: 0.3"/>
    <path d="M 59.197469 77.4694 
L 61.324543 75.01708 
L 61.891096 75.412152 
L 59.561518 78.407172 
z
" clip-path="url(#p4404ed451b)" style="fill: #eeeeee; stroke: #000000; stroke-width: 0.3"/>
    <path d="M 66.049337 61.28244 
L 68.81468 53.866669 
L 70.104924 52.978951 
L 70.289151 50.133921 
L 72.696504 48.06083 
L 72.596069 47.046544 
L 74.804573 47.252736 
L 75.162966 46.702703 
L 76.156781 47.233418 
L 75.245918 48.28447 
L 76.800018 49.116123 
L 77.397864 51.157674 
L 75.008812 53.461509 
L 75.622316 54.460244 
L 73.20587 54.647839 
L 72.230059 56.254351 
L 73.090838 56.91562 
L 69.82457 59.904529 
L 69.412965 59.531237 
L 68.887888 61.297297 
z
" clip-path="url(#p4404ed451b)" style="fill: #eeeeee; stroke: #000000; stroke-width: 0.3"/>
    <path d="M 70.729709 38.543768 
L 71.61514 37.035532 
L 71.299049 36.103268 
L 72.674531 35.399378 
L 74.017351 36.350512 
L 74.314711 35.172674 
L 75.534669 34.787123 
L 75.648134 32.656262 
L 77.853299 32.643539 
L 76.846181 30.363263 
L 77.668617 27.179462 
L 80.128099 27.856757 
L 80.797161 29.077964 
L 83.773111 28.947875 
L 89.664758 26.447024 
L 91.600729 26.927302 
L 93.456095 28.403023 
L 97.352297 28.700896 
L 101.33223 27.963277 
L 108.477482 24.695101 
L 114.31357 24.922279 
L 118.322449 24.009799 
L 119.85151 22.648141 
L 120.877398 23.424651 
L 121.10825 25.043886 
L 117.069623 29.096817 
L 113.599116 30.022495 
L 112.778247 31.496328 
L 112.473066 34.181946 
L 113.433227 37.876661 
L 112.20544 41.636425 
L 112.227351 45.739784 
L 110.418148 49.308424 
L 108.337411 49.950138 
L 93.830925 58.704299 
L 79.027867 68.325703 
L 75.760819 67.755394 
L 70.988583 64.426064 
L 71.976523 62.596505 
L 71.03592 59.044356 
L 73.090838 56.91562 
L 72.230059 56.254351 
L 72.433518 55.625834 
L 73.871018 54.336057 
L 75.530754 54.580911 
L 75.008812 53.461509 
L 77.397864 51.157674 
L 76.800018 49.116123 
L 75.245918 48.28447 
L 76.156781 47.233418 
L 75.162966 46.702703 
L 74.804573 47.252736 
L 72.596069 47.046544 
L 71.816009 44.544078 
L 72.539382 42.047541 
L 72.210351 40.043476 
z
" clip-path="url(#p4404ed451b)" style="fill: #eeeeee; stroke: #000000; stroke-width: 0.3"/>
    <path d="M 140.984819 -13.520429 
L 142.856622 -14.925455 
L 144.485846 -14.794893 
L 146.60023 -13.930013 
L 146.159664 -13.57322 
L 147.180866 -12.775742 
L 150.132557 -12.69703 
L 152.299373 -11.28022 
L 153.240756 -11.916508 
L 153.750963 -13.46482 
L 150.915085 -15.374623 
L 149.900925 -16.846814 
L 149.969007 -17.621909 
L 150.913517 -17.772492 
L 151.800515 -18.99276 
L 152.653465 -18.84547 
L 152.835406 -18.046332 
L 154.146918 -18.635256 
L 156.314127 -15.95106 
L 157.179994 -15.909579 
L 158.141714 -13.633079 
L 162.384186 -12.681005 
L 164.086186 -15.078638 
L 166.656785 -16.333537 
L 168.064333 -18.580869 
L 171.573999 -14.650685 
L 172.732387 -11.393718 
L 175.331977 -8.93837 
L 175.33259 -7.715521 
L 180.622347 -6.275936 
L 181.785051 -3.894074 
L 180.565047 -4.876811 
L 178.016602 -5.116549 
L 174.981383 -3.155169 
L 174.459493 0.898601 
L 173.409551 2.607246 
L 174.334406 4.729698 
L 173.320208 4.300304 
L 172.791535 7.058861 
L 171.852506 7.704616 
L 172.3707 6.609064 
L 171.007128 5.693501 
L 170.659615 7.958828 
L 169.978756 8.545208 
L 170.30039 12.531803 
L 168.283268 12.879211 
L 166.82503 10.85322 
L 166.030372 11.017009 
L 163.628797 8.737435 
L 164.124134 7.84098 
L 165.904384 7.328177 
L 164.484881 4.914994 
L 166.247127 3.913897 
L 163.464467 0.944077 
L 156.883414 4.557253 
L 152.430055 8.444743 
L 152.262591 6.623074 
L 151.530928 5.589926 
L 153.100678 5.404694 
L 151.27035 3.628273 
L 152.507526 2.311389 
L 149.933012 1.959311 
L 146.590447 -1.207999 
L 145.353665 -1.478537 
L 147.582302 -1.839571 
L 148.380873 -3.789915 
L 144.950662 -5.773258 
L 143.795651 -7.909774 
L 145.503125 -9.618802 
L 144.139968 -11.029474 
L 141.496979 -11.437644 
L 142.479051 -12.172444 
L 141.230533 -12.674402 
z
M 144.595396 -7.681181 
L 145.109518 -7.4196 
L 145.212027 -7.657613 
z
" clip-path="url(#p4404ed451b)" style="fill: #eeeeee; stroke: #000000; stroke-width: 0.3"/>
    <path d="M 139.259741 0.960102 
L 141.220358 0.343606 
L 142.089745 2.123329 
L 142.934873 1.900392 
L 144.258908 2.911385 
L 146.933584 2.363231 
L 146.710568 4.000151 
L 148.430557 5.095037 
L 148.220844 5.9882 
L 149.566791 8.613248 
L 144.287475 7.331479 
L 143.322226 5.541149 
L 142.123006 5.422607 
z
" clip-path="url(#p4404ed451b)" style="fill: #eeeeee; stroke: #000000; stroke-width: 0.3"/>
    <path d="M 183.103642 -4.831901 
L 183.419112 -4.831901 
L 183.160329 -4.578427 
z
" clip-path="url(#p4404ed451b)" style="fill: #eeeeee; stroke: #000000; stroke-width: 0.3"/>
    <path d="M 181.295203 -6.145674 
L 181.553373 -6.077762 
L 181.501615 -5.397859 
z
" clip-path="url(#p4404ed451b)" style="fill: #eeeeee; stroke: #000000; stroke-width: 0.3"/>
    <path d="M 142.308074 -10.815028 
L 142.635946 -10.680224 
L 142.380842 -10.605288 
z
" clip-path="url(#p4404ed451b)" style="fill: #eeeeee; stroke: #000000; stroke-width: 0.3"/>
    <path d="M 140.716412 -11.28022 
L 141.109633 -11.554534 
L 141.085761 -11.083213 
z
" clip-path="url(#p4404ed451b)" style="fill: #eeeeee; stroke: #000000; stroke-width: 0.3"/>
    <path d="M -2.360136 2.843655 
L -1.703309 1.448607 
L -1.620742 -1.509611 
L 2.679454 -5.431268 
L 6.853958 -6.020976 
L 8.106004 -4.687538 
L 10.456048 -4.627041 
L 11.371053 -5.273908 
L 9.862064 -6.275936 
L 10.435711 -6.648918 
L 12.513412 -6.077762 
L 11.525707 -5.397859 
L 11.833787 -5.089086 
L 20.214837 -5.100962 
L 20.971486 -5.709604 
L 18.254206 -6.796993 
L 23.53842 -8.383539 
L 26.935939 -8.454799 
L 21.751545 -9.145456 
L 21.822406 -9.683586 
L 19.881491 -11.149521 
L 20.296169 -11.567404 
L 20.509978 -12.156747 
L 20.347306 -12.264736 
L 21.108884 -12.997339 
L 28.431981 -12.182723 
L 29.534295 -12.837015 
L 33.70449 -11.600056 
L 36.717525 -11.71028 
L 37.940603 -12.589844 
L 38.022556 -13.757768 
L 43.763963 -16.453228 
L 44.532317 -17.439669 
L 52.566467 -20.165564 
L 62.937102 -19.499032 
L 65.433789 -20.835808 
L 66.890399 -20.207501 
L 65.950136 -19.335735 
L 67.510263 -17.39402 
L 69.618771 -16.614665 
L 73.164167 -17.269321 
L 73.841952 -15.084156 
L 75.814902 -13.209988 
L 78.563603 -14.212016 
L 80.280852 -13.557359 
L 81.421371 -12.208699 
L 84.368474 -11.210383 
L 86.330339 -11.989738 
L 87.177565 -10.708252 
L 90.472188 -10.122247 
L 98.795309 -11.897327 
L 104.19043 -10.167157 
L 113.636822 -14.33115 
L 114.623922 -15.561424 
L 116.836431 -14.718543 
L 117.858412 -15.482557 
L 121.758528 -14.809978 
L 123.257062 -16.236684 
L 124.46059 -16.09151 
L 124.056027 -15.471247 
L 127.217045 -13.598201 
L 126.604714 -13.140543 
L 128.725754 -12.578726 
L 131.279923 -8.708674 
L 131.178194 -7.331931 
L 130.059965 -6.10931 
L 131.285791 -3.2955 
L 130.862049 -2.755363 
L 133.640802 -1.829201 
L 135.86083 -2.06675 
L 139.505312 1.533749 
L 137.678642 0.384613 
L 136.874202 0.999686 
L 136.332695 3.589619 
L 133.507772 3.958196 
L 133.983552 5.54539 
L 134.808336 6.046408 
L 134.545797 7.69275 
L 135.477391 8.796829 
L 135.587343 13.004347 
L 136.868728 13.404974 
L 134.925322 17.428682 
L 137.908707 19.077614 
L 137.680209 21.53298 
L 139.464366 22.942011 
L 139.19596 24.317103 
L 138.01591 23.984817 
L 135.551735 25.892741 
L 134.758251 24.812466 
L 135.174557 23.451986 
L 134.061803 22.773515 
L 131.952113 23.790163 
L 126.693141 22.226537 
L 125.347194 22.691501 
L 124.161663 22.186707 
L 122.380633 24.326524 
L 120.957216 24.608381 
L 120.877398 23.424651 
L 119.85151 22.648141 
L 118.322449 24.009799 
L 114.31357 24.922279 
L 108.477482 24.695101 
L 101.33223 27.963277 
L 97.352297 28.700896 
L 93.456095 28.403023 
L 91.600729 26.927302 
L 89.664758 26.447024 
L 83.773111 28.947875 
L 80.797161 29.077964 
L 80.128099 27.856757 
L 77.668617 27.179462 
L 76.846181 30.363263 
L 77.897115 32.567655 
L 75.648134 32.656262 
L 75.534669 34.787123 
L 74.314711 35.172674 
L 73.872586 36.375959 
L 72.152422 35.482395 
L 72.637969 34.563484 
L 71.214014 31.957087 
L 74.422989 28.873067 
L 74.254775 27.419747 
L 72.977471 26.283371 
L 69.846133 27.979403 
L 69.639721 28.483385 
L 70.621885 28.16645 
L 69.973681 29.236765 
L 67.872562 29.797159 
L 62.927244 27.309149 
L 59.772487 29.378528 
L 57.370685 32.784326 
L 56.705226 31.860226 
L 55.320711 33.482407 
L 55.010162 32.975825 
L 54.291105 33.569245 
L 51.297787 33.482407 
L 48.623641 34.484435 
L 45.3056 33.109051 
L 42.680744 29.747424 
L 37.547495 27.357398 
L 32.593545 26.604019 
L 31.709969 27.606056 
L 31.709969 29.916284 
L 30.63168 32.667417 
L 28.595879 32.008309 
L 24.914925 33.607105 
L 20.553726 31.166596 
L 20.694206 29.691386 
L 19.933249 29.73481 
L 20.553726 28.66486 
L 19.362062 27.879941 
L 18.528397 29.236765 
L 15.674945 26.673053 
L 15.251029 27.531457 
L 14.199852 27.014487 
L 14.486983 28.16645 
L 12.524504 29.581162 
L 11.94408 29.236765 
L 12.931172 28.85748 
L 11.995838 28.449985 
L 13.133889 28.1761 
L 13.149297 27.430136 
L 11.629223 27.979403 
L 10.128252 27.834666 
L 9.762863 28.732782 
L 7.742463 28.66486 
L 7.375234 28.234737 
L 9.567543 27.376697 
L 12.461041 27.606056 
L 12.569486 26.168697 
L 13.504207 26.417719 
L 14.746387 25.276145 
L 8.936588 25.856951 
L 7.531735 25.358532 
L 6.674039 25.94565 
L 6.596402 24.480828 
L 8.960006 24.465615 
L 8.677804 23.852895 
L 9.298895 23.790546 
L 9.345103 23.105818 
L 8.191652 23.312904 
L 8.401759 22.62596 
L 7.685783 22.664185 
L 7.764647 21.846979 
L 6.125657 22.352439 
L 6.259981 20.167647 
L 4.768247 19.539705 
L 6.570522 18.822699 
L 6.491659 16.600786 
L 3.720152 16.170654 
L 2.866158 14.513969 
L 1.924661 14.633843 
L 1.614725 15.542721 
L 0.063843 14.104249 
L -1.125345 13.934641 
L 0.994248 12.542192 
L 0.046595 12.347729 
L -0.247932 10.694748 
L 0.244997 10.294303 
L 1.88276 11.755048 
L 1.562967 12.672089 
L 2.206241 13.688965 
L 2.428061 12.567429 
L 3.12987 13.21986 
L 5.924787 12.417494 
L 4.192139 12.524379 
L 3.278368 11.540164 
L 3.847087 11.857099 
L 3.537159 11.042119 
L 2.554375 10.538136 
L 2.554375 9.915393 
L 3.950603 9.791059 
L 3.903153 9.043253 
L 5.155812 8.401949 
L 3.216131 7.824854 
L 3.736794 6.541143 
L 2.551914 4.972409 
L 1.722557 4.85996 
L 4.150238 2.921591 
L 4.209386 2.127762 
z
" clip-path="url(#p4404ed451b)" style="fill: #eeeeee; stroke: #000000; stroke-width: 0.3"/>
    <path d="M -2.638643 -8.454799 
L -0.17128 -10.549196 
L -0.463157 -13.116975 
L 1.893027 -14.13221 
L 1.618359 -16.457259 
L -0.366122 -17.374693 
L -0.359868 -18.07249 
L 1.09329 -18.388988 
L 1.69583 -19.694799 
L 4.218699 -19.957558 
L 5.033701 -20.748441 
L 6.750957 -20.828804 
L 8.81839 -19.090553 
L 10.828705 -19.943658 
L 12.379709 -19.741743 
L 12.592897 -18.99059 
L 12.04082 -18.37082 
L 14.015004 -15.604838 
L 20.651079 -13.017377 
L 19.766269 -10.946138 
L 16.986759 -10.583189 
L 16.431593 -11.605629 
L 16.351495 -10.776164 
L 13.504207 -11.64793 
L 11.807908 -10.607678 
L 8.650078 -10.772826 
L 6.861355 -8.167552 
L 2.283879 -5.904815 
L -0.273812 -3.572678 
L -0.044602 -3.150718 
L -1.697766 -2.255202 
L -0.830825 -3.852137 
L -1.23133 -4.773638 
L 3.386192 -7.241226 
L 3.094133 -7.775644 
L 0.938182 -7.210051 
L -2.483368 -7.775644 
z
" clip-path="url(#p4404ed451b)" style="fill: #eeeeee; stroke: #000000; stroke-width: 0.3"/>
    <path d="M -5.439723 -2.901321 
L -3.450744 -3.965334 
L -2.963978 -2.999296 
L -4.662124 -2.636712 
z
" clip-path="url(#p4404ed451b)" style="fill: #eeeeee; stroke: #000000; stroke-width: 0.3"/>
    <path d="M 9.072146 -6.097061 
L 9.279179 -6.360558 
L 9.65257 -5.84989 
z
" clip-path="url(#p4404ed451b)" style="fill: #eeeeee; stroke: #000000; stroke-width: 0.3"/>
    <path d="M 8.666712 -7.579695 
L 10.228686 -7.452772 
L 9.260076 -7.011503 
z
" clip-path="url(#p4404ed451b)" style="fill: #eeeeee; stroke: #000000; stroke-width: 0.3"/>
    <path d="M -3.056403 -0.238149 
L -2.858001 -0.338723 
L -2.322551 0.211283 
z
" clip-path="url(#p4404ed451b)" style="fill: #eeeeee; stroke: #000000; stroke-width: 0.3"/>
    <path d="M 129.15849 -11.84346 
L 134.760598 -12.968508 
L 139.814158 -12.776681 
L 139.609139 -13.36442 
L 140.984819 -13.520429 
L 141.230533 -12.674402 
L 142.479051 -12.172444 
L 141.496979 -11.437644 
L 144.139968 -11.029474 
L 145.503125 -9.618802 
L 143.795651 -7.909774 
L 144.950662 -5.773258 
L 148.380873 -3.789915 
L 147.582302 -1.839571 
L 145.353665 -1.478537 
L 146.590447 -1.207999 
L 149.933012 1.959311 
L 152.507526 2.311389 
L 151.27035 3.628273 
L 153.100678 5.404694 
L 151.530928 5.589926 
L 152.262591 6.623074 
L 152.430055 8.444743 
L 149.566791 8.613248 
L 148.220844 5.9882 
L 148.430557 5.095037 
L 146.710568 4.000151 
L 146.762212 2.248228 
L 144.258908 2.911385 
L 142.934873 1.900392 
L 142.089745 2.123329 
L 141.220358 0.343606 
L 139.259741 0.960102 
L 135.86083 -2.06675 
L 133.640802 -1.829201 
L 130.862049 -2.755363 
L 131.285791 -3.2955 
L 130.059965 -6.10931 
L 131.178194 -7.331931 
L 131.279923 -8.708674 
z
M 142.308074 -10.815028 
L 142.380842 -10.605288 
L 142.635946 -10.680224 
z
M 140.716412 -11.28022 
L 141.085761 -11.083213 
L 141.109633 -11.554534 
z
" clip-path="url(#p4404ed451b)" style="fill: #eeeeee; stroke: #000000; stroke-width: 0.3"/>
    <path d="M 144.595396 -7.681181 
L 145.212027 -7.657613 
L 145.109518 -7.4196 
z
" clip-path="url(#p4404ed451b)" style="fill: #eeeeee; stroke: #000000; stroke-width: 0.3"/>
    <path d="M -48.319723 1.044824 
L -46.455778 1.323963 
L -46.198328 0.037242 
L -45.312511 -0.091424 
L -46.062951 -1.631245 
L -43.415661 -2.60831 
L -42.483673 -5.599335 
L -40.604828 -6.848817 
L -41.010179 -9.49767 
L -36.343965 -9.651791 
L -32.810858 -12.256336 
L -27.838684 -12.145109 
L -27.262742 -13.925772 
L -20.96732 -14.25523 
L -16.266679 -15.99536 
L -14.170292 -15.993946 
L -13.638173 -14.889164 
L -12.169365 -14.045964 
L -11.32189 -14.525303 
L -8.29821 -13.054763 
L -1.975001 -14.134572 
L -1.65495 -15.697487 
L -2.525897 -17.156234 
L -1.177603 -17.708866 
L 1.618359 -16.457259 
L 1.928242 -14.515872 
L 1.72635 -13.887592 
L -0.463157 -13.116975 
L -0.17128 -10.549196 
L -2.272361 -8.459342 
L -2.845675 -9.083106 
L -2.481521 -9.32953 
L -6.389844 -9.689524 
L -9.413357 -10.963212 
L -11.960569 -9.534764 
L -13.272997 -9.581526 
L -14.208331 -10.521204 
L -17.199189 -8.389112 
L -20.064346 -8.608073 
L -20.3028 -7.89477 
L -18.677362 -6.665618 
L -19.373008 -6.374659 
L -19.031038 -5.522192 
L -18.014372 -5.274647 
L -17.946593 -5.847291 
L -15.051248 -3.141442 
L -15.761681 -2.918769 
L -16.753702 -4.261483 
L -18.513464 -5.081297 
L -20.073591 -5.024512 
L -20.180802 -4.07926 
L -18.099399 -2.833409 
L -18.099399 -1.327389 
L -19.345282 -1.831381 
L -20.490116 -3.738201 
L -22.284381 -4.297117 
L -23.029317 -3.829873 
L -22.851253 -3.122882 
L -19.941727 -1.116591 
L -22.87405 -1.395676 
L -23.339866 -3.897786 
L -26.450875 -5.273908 
L -26.954896 -6.330496 
L -25.73181 -6.791429 
L -26.282047 -7.629795 
L -28.791061 -6.020976 
L -28.169971 -5.116549 
L -28.850209 -2.245552 
L -23.001591 5.731726 
L -24.062625 6.416444 
L -25.210534 6.478793 
L -23.960343 5.731726 
L -24.585136 4.661785 
L -26.089802 4.081344 
L -26.920393 5.352067 
L -25.619057 6.733754 
L -25.87784 7.28821 
L -25.050951 7.039188 
L -27.179176 8.482858 
L -28.46942 8.149962 
L -29.200189 8.663968 
L -25.286324 9.680097 
L -24.813111 10.668024 
L -23.288108 10.538136 
L -23.443382 11.415466 
L -22.715081 11.608077 
L -23.068136 11.897559 
L -21.309608 11.920196 
L -21.262165 12.355144 
L -20.509832 13.239907 
L -18.403785 13.837414 
L -17.422856 14.976754 
L -18.116041 15.372374 
L -17.371097 18.449717 
L -17.785163 19.669228 
L -21.358285 16.738847 
L -21.254155 16.064142 
L -25.641234 17.565702 
L -24.223442 18.231504 
L -24.688644 18.853874 
L -24.327579 20.009914 
L -23.055196 20.727668 
L -23.240665 19.9806 
L -22.585686 19.793553 
L -22.611565 20.914715 
L -21.624473 21.605745 
L -23.615291 21.953855 
L -24.327579 22.879807 
L -25.050951 22.371739 
L -24.604852 21.519646 
L -27.675807 20.445984 
L -24.740403 27.606056 
L -25.334387 28.812196 
L -24.119926 30.787312 
L -25.813142 29.987544 
L -27.217995 27.495458 
L -27.985122 27.349235 
L -28.804 27.590468 
L -29.510738 29.199279 
L -29.458367 31.166596 
L -30.491667 30.063255 
L -30.238426 28.291139 
L -32.131892 26.367245 
L -32.016057 25.418282 
L -33.606371 25.672503 
L -33.401193 27.481357 
L -34.064797 28.105578 
L -35.391399 27.271299 
L -35.371675 26.134184 
L -36.433944 24.551714 
L -35.637863 21.999878 
L -39.942989 17.602814 
L -38.279353 16.295352 
L -37.913351 14.478335 
L -36.035286 15.079189 
L -34.315577 13.377958 
L -26.609844 17.04242 
L -25.790966 16.682435 
L -26.546994 16.04114 
L -24.295537 15.765759 
L -23.912901 15.038364 
L -27.07566 14.42082 
L -28.280877 12.934099 
L -28.916754 13.813664 
L -30.13491 12.355144 
L -30.28094 13.365344 
L -31.743092 13.544229 
L -33.494844 12.735916 
L -36.827059 13.792877 
L -38.305232 11.964359 
L -38.198635 12.881774 
L -39.568976 13.719027 
L -40.837043 10.434589 
L -41.808114 9.162013 
L -42.796441 9.105228 
L -42.22218 8.576382 
L -42.490208 7.744328 
L -40.101958 8.607557 
L -39.403851 8.500671 
L -39.536321 7.390645 
L -40.101958 6.796103 
L -40.305296 7.28821 
L -41.921489 7.03325 
L -42.09155 6.325894 
L -42.69169 7.101172 
L -42.020689 7.701278 
L -42.516087 7.574345 
L -42.752693 7.825228 
L -44.665882 4.792047 
L -46.531621 3.72767 
L -46.320273 2.731206 
L -47.307365 2.538586 
L -46.941984 1.674618 
z
" clip-path="url(#p4404ed451b)" style="fill: #eeeeee; stroke: #000000; stroke-width: 0.3"/>
    <path d="M -21.680539 41.170202 
L -21.210407 38.60018 
L -20.164781 39.175422 
L -19.98979 37.587389 
L -19.417377 38.975013 
L -16.647725 38.511855 
L -16.647725 39.17171 
L -17.488166 39.307545 
L -16.12152 39.483456 
L -15.457908 40.675869 
L -12.574269 39.956264 
L -7.026955 41.170202 
L -4.659043 40.791292 
L -5.065097 42.185227 
L -4.440305 42.802772 
L -2.431618 41.725033 
L -1.5314 41.963293 
L -0.45866 40.977591 
L -0.788925 42.940458 
L -1.775404 43.832262 
L -10.317263 44.47653 
L -12.441179 44.47653 
L -12.408523 43.148656 
L -14.988398 42.10989 
z
" clip-path="url(#p4404ed451b)" style="fill: #eeeeee; stroke: #000000; stroke-width: 0.3"/>
    <path d="M -26.863085 8.780129 
L -23.339866 6.982776 
L -21.106891 9.465961 
L -16.85475 10.538136 
L -16.12152 14.411535 
L -13.583546 15.038364 
L -13.742515 16.600786 
L -15.218228 16.74701 
L -16.488756 15.667045 
L -17.713068 12.8287 
L -20.689131 12.79085 
L -20.954698 11.402104 
L -24.072483 8.921528 
z
" clip-path="url(#p4404ed451b)" style="fill: #eeeeee; stroke: #000000; stroke-width: 0.3"/>
    <path d="M -4.086008 5.290466 
L -1.65155 3.914708 
L -0.148111 3.914708 
L 1.745968 6.920801 
L 1.193891 7.193574 
L 0.814329 6.333318 
L 0.418753 6.426094 
L 1.252425 7.48083 
L -1.635529 7.165747 
L -2.224585 6.609064 
L -0.769822 5.578452 
L -2.405739 6.541143 
z
" clip-path="url(#p4404ed451b)" style="fill: #eeeeee; stroke: #000000; stroke-width: 0.3"/>
    <path d="M -45.703498 14.829792 
L -45.290667 13.170134 
L -44.30727 13.412845 
L -44.246888 12.168106 
L -43.544466 14.138023 
L -43.157514 13.917576 
L -42.278867 15.293324 
L -42.764399 15.921631 
L -44.45885 15.480372 
L -44.94685 13.971762 
L -45.098422 14.892141 
z
" clip-path="url(#p4404ed451b)" style="fill: #eeeeee; stroke: #000000; stroke-width: 0.3"/>
    <path d="M -51.146682 0.545666 
L -48.712217 0.161548 
L -49.492284 1.417432 
L -48.867492 1.66682 
L -48.799099 3.056304 
L -47.621609 3.415924 
L -47.518092 4.044231 
L -48.986416 3.445238 
z
" clip-path="url(#p4404ed451b)" style="fill: #eeeeee; stroke: #000000; stroke-width: 0.3"/>
    <path d="M -10.208825 -1.707421 
L -8.302412 -1.325163 
L -7.055303 -2.080768 
L -7.819341 0.186046 
L -8.563664 -1.00748 
L -8.837241 0.042422 
L -10.105309 -0.269323 
z
" clip-path="url(#p4404ed451b)" style="fill: #eeeeee; stroke: #000000; stroke-width: 0.3"/>
    <path d="M 9.862064 33.289786 
L 11.493051 31.629764 
L 14.067996 30.787312 
L 12.931172 34.229474 
L 10.228686 35.506501 
L 10.413535 33.962639 
z
" clip-path="url(#p4404ed451b)" style="fill: #eeeeee; stroke: #000000; stroke-width: 0.3"/>
    <path d="M 1.503198 18.854987 
L 3.215518 18.182508 
L 5.195252 18.54844 
L 3.147125 19.731577 
L 2.472429 19.10327 
L 1.640604 19.435054 
z
" clip-path="url(#p4404ed451b)" style="fill: #eeeeee; stroke: #000000; stroke-width: 0.3"/>
    <path d="M -4.03425 11.197244 
L -1.65155 11.540164 
L -2.041584 14.460522 
L -2.816101 15.061376 
L -3.724322 14.478335 
L -2.973223 13.031335 
z
" clip-path="url(#p4404ed451b)" style="fill: #eeeeee; stroke: #000000; stroke-width: 0.3"/>
    <path d="M -15.557117 28.795131 
L -15.350697 27.855443 
L -14.803549 28.353488 
L -14.937253 27.793094 
L -13.994529 27.727407 
L -13.898403 28.449985 
z
" clip-path="url(#p4404ed451b)" style="fill: #eeeeee; stroke: #000000; stroke-width: 0.3"/>
    <path d="M -43.628258 17.727513 
L -42.950481 17.172691 
L -40.846901 18.954448 
L -40.774806 19.233532 
L -41.550558 18.921787 
L -42.147003 19.669228 
z
" clip-path="url(#p4404ed451b)" style="fill: #eeeeee; stroke: #000000; stroke-width: 0.3"/>
    <path d="M 5.195252 38.481419 
L 6.354253 36.289577 
L 5.8681 38.070586 
L 6.28586 39.103797 
L 5.712826 40.168174 
z
" clip-path="url(#p4404ed451b)" style="fill: #eeeeee; stroke: #000000; stroke-width: 0.3"/>
    <path d="M 4.058427 28.200589 
L 6.808363 26.451493 
L 7.375234 26.858979 
L 4.620983 27.85879 
L 4.476187 28.540171 
z
" clip-path="url(#p4404ed451b)" style="fill: #eeeeee; stroke: #000000; stroke-width: 0.3"/>
    <path d="M 3.847087 24.792574 
L 5.016559 25.645779 
L 4.012219 26.105974 
L 4.332005 25.357054 
L 4.054119 25.231608 
z
" clip-path="url(#p4404ed451b)" style="fill: #eeeeee; stroke: #000000; stroke-width: 0.3"/>
    <path d="M 1.171093 22.212163 
L 1.643686 22.369887 
L 1.265365 22.63301 
L 1.408313 23.106566 
L 1.246876 23.083555 
z
" clip-path="url(#p4404ed451b)" style="fill: #eeeeee; stroke: #000000; stroke-width: 0.3"/>
    <path d="M -0.91031 29.37259 
L 0.167359 29.355525 
L -0.148111 28.914257 
L 0.638112 29.4175 
L -0.611466 30.051006 
z
" clip-path="url(#p4404ed451b)" style="fill: #eeeeee; stroke: #000000; stroke-width: 0.3"/>
    <path d="M -4.866075 27.481357 
L -2.845675 26.168697 
L -2.324399 26.584719 
L -3.801346 27.481357 
L -4.740996 27.709594 
z
" clip-path="url(#p4404ed451b)" style="fill: #eeeeee; stroke: #000000; stroke-width: 0.3"/>
    <path d="M -7.723222 31.478342 
L -7.154503 31.166596 
L -7.568561 30.357553 
L -6.833483 30.861536 
L -6.940074 31.608978 
z
" clip-path="url(#p4404ed451b)" style="fill: #eeeeee; stroke: #000000; stroke-width: 0.3"/>
    <path d="M -14.120222 -7.579695 
L -13.170101 -9.083106 
L -12.078872 -8.454799 
L -12.126322 -7.334376 
L -13.170101 -6.955091 
z
" clip-path="url(#p4404ed451b)" style="fill: #eeeeee; stroke: #000000; stroke-width: 0.3"/>
    <path d="M -14.73022 8.482858 
L -14.541677 7.664905 
L -12.910697 9.105228 
L -13.742515 9.536099 
L -13.815836 8.77753 
z
" clip-path="url(#p4404ed451b)" style="fill: #eeeeee; stroke: #000000; stroke-width: 0.3"/>
    <path d="M -42.738519 10.542587 
L -42.254214 10.423087 
L -42.567231 10.768598 
L -42.260998 11.059931 
L -42.626993 10.780847 
z
" clip-path="url(#p4404ed451b)" style="fill: #eeeeee; stroke: #000000; stroke-width: 0.3"/>
    <path d="M -3.069342 20.905065 
L -2.328101 19.793553 
L -0.148111 19.352293 
L -1.143835 20.400335 
z
" clip-path="url(#p4404ed451b)" style="fill: #eeeeee; stroke: #000000; stroke-width: 0.3"/>
    <path d="M -7.103359 -6.145674 
L -6.101479 -6.445171 
L -5.232077 -5.833929 
L -6.167411 -5.397859 
z
" clip-path="url(#p4404ed451b)" style="fill: #eeeeee; stroke: #000000; stroke-width: 0.3"/>
    <path d="M -7.873568 24.854923 
L -6.477953 23.821721 
L -6.063895 25.449456 
L -7.055303 26.35537 
z
" clip-path="url(#p4404ed451b)" style="fill: #eeeeee; stroke: #000000; stroke-width: 0.3"/>
    <path d="M -8.394836 28.16645 
L -8.13728 27.481357 
L -7.361536 28.234737 
L -7.635727 28.769894 
z
" clip-path="url(#p4404ed451b)" style="fill: #eeeeee; stroke: #000000; stroke-width: 0.3"/>
    <path d="M -9.678925 25.493993 
L -8.653627 24.226607 
L -8.240796 24.226607 
L -9.034416 25.745615 
z
" clip-path="url(#p4404ed451b)" style="fill: #eeeeee; stroke: #000000; stroke-width: 0.3"/>
    <path d="M -12.781302 16.803047 
L -12.134332 16.488711 
L -10.810812 17.348228 
L -10.783086 19.352293 
z
" clip-path="url(#p4404ed451b)" style="fill: #eeeeee; stroke: #000000; stroke-width: 0.3"/>
    <path d="M -15.947763 20.762181 
L -15.8424 19.72564 
L -15.19543 19.352293 
L -15.036453 19.914165 
z
" clip-path="url(#p4404ed451b)" style="fill: #eeeeee; stroke: #000000; stroke-width: 0.3"/>
    <path d="M -22.390358 18.663488 
L -22.381735 18.604851 
L -21.469198 18.54844 
L -21.938716 19.419832 
z
" clip-path="url(#p4404ed451b)" style="fill: #eeeeee; stroke: #000000; stroke-width: 0.3"/>
    <path d="M -22.512364 17.415776 
L -21.835813 16.793033 
L -22.352774 16.600786 
L -21.262165 16.923668 
z
" clip-path="url(#p4404ed451b)" style="fill: #eeeeee; stroke: #000000; stroke-width: 0.3"/>
    <path d="M -22.770534 22.850858 
L -22.093983 22.352439 
L -21.158649 22.228489 
L -21.84259 22.69276 
z
" clip-path="url(#p4404ed451b)" style="fill: #eeeeee; stroke: #000000; stroke-width: 0.3"/>
    <path d="M -26.349206 31.646464 
L -26.02387 31.180706 
L -24.81804 32.568704 
L -25.67451 33.482407 
z
" clip-path="url(#p4404ed451b)" style="fill: #eeeeee; stroke: #000000; stroke-width: 0.3"/>
    <path d="M -43.628258 12.100184 
L -42.583245 13.102221 
L -42.536423 13.544229 
L -43.110684 13.419531 
z
" clip-path="url(#p4404ed451b)" style="fill: #eeeeee; stroke: #000000; stroke-width: 0.3"/>
    <path d="M 10.435711 29.47985 
L 11.056188 28.851907 
L 11.064199 29.917406 
z
" clip-path="url(#p4404ed451b)" style="fill: #eeeeee; stroke: #000000; stroke-width: 0.3"/>
    <path d="M 8.610025 32.754264 
L 9.348805 32.519342 
L 9.36544 32.65183 
z
" clip-path="url(#p4404ed451b)" style="fill: #eeeeee; stroke: #000000; stroke-width: 0.3"/>
    <path d="M 6.930361 30.489676 
L 7.375234 30.357553 
L 7.923616 31.218931 
z
" clip-path="url(#p4404ed451b)" style="fill: #eeeeee; stroke: #000000; stroke-width: 0.3"/>
    <path d="M 5.663536 29.537748 
L 5.720223 29.259028 
L 6.180496 29.548875 
z
" clip-path="url(#p4404ed451b)" style="fill: #eeeeee; stroke: #000000; stroke-width: 0.3"/>
    <path d="M 3.533456 40.456535 
L 3.92595 39.981127 
L 4.734978 40.224951 
z
" clip-path="url(#p4404ed451b)" style="fill: #eeeeee; stroke: #000000; stroke-width: 0.3"/>
    <path d="M 2.960429 23.945297 
L 3.543935 23.902995 
L 3.545169 24.713525 
z
" clip-path="url(#p4404ed451b)" style="fill: #eeeeee; stroke: #000000; stroke-width: 0.3"/>
    <path d="M -4.551832 24.480828 
L -4.142082 24.356504 
L -4.126061 24.677899 
z
" clip-path="url(#p4404ed451b)" style="fill: #eeeeee; stroke: #000000; stroke-width: 0.3"/>
    <path d="M -4.810002 31.467205 
L -4.647951 31.069369 
L -3.986808 31.415993 
z
" clip-path="url(#p4404ed451b)" style="fill: #eeeeee; stroke: #000000; stroke-width: 0.3"/>
    <path d="M -5.542619 26.417719 
L -5.27952 26.604019 
L -5.358391 26.710904 
z
" clip-path="url(#p4404ed451b)" style="fill: #eeeeee; stroke: #000000; stroke-width: 0.3"/>
    <path d="M -6.500137 11.042119 
L -5.745956 11.209119 
L -6.215467 11.608077 
z
" clip-path="url(#p4404ed451b)" style="fill: #eeeeee; stroke: #000000; stroke-width: 0.3"/>
    <path d="M -7.077479 26.912052 
L -6.839646 26.791066 
L -6.843954 27.115061 
z
" clip-path="url(#p4404ed451b)" style="fill: #eeeeee; stroke: #000000; stroke-width: 0.3"/>
    <path d="M -8.13728 21.854394 
L -8.094153 21.158539 
L -6.956715 21.324435 
z
" clip-path="url(#p4404ed451b)" style="fill: #eeeeee; stroke: #000000; stroke-width: 0.3"/>
    <path d="M -9.951268 28.914257 
L -9.669059 28.353488 
L -9.072614 28.291139 
z
" clip-path="url(#p4404ed451b)" style="fill: #eeeeee; stroke: #000000; stroke-width: 0.3"/>
    <path d="M -10.265504 25.539642 
L -9.910595 25.226783 
L -10.105309 25.892212 
z
" clip-path="url(#p4404ed451b)" style="fill: #eeeeee; stroke: #000000; stroke-width: 0.3"/>
    <path d="M -10.576053 19.419832 
L -8.498353 20.229997 
L -8.826149 20.751053 
z
" clip-path="url(#p4404ed451b)" style="fill: #eeeeee; stroke: #000000; stroke-width: 0.3"/>
    <path d="M -10.638904 2.466222 
L -10.10284 2.396075 
L -10.576053 3.110864 
z
" clip-path="url(#p4404ed451b)" style="fill: #eeeeee; stroke: #000000; stroke-width: 0.3"/>
    <path d="M -11.356113 22.296037 
L -11.253831 20.955913 
L -10.733788 21.947179 
z
" clip-path="url(#p4404ed451b)" style="fill: #eeeeee; stroke: #000000; stroke-width: 0.3"/>
    <path d="M -11.666662 28.66486 
L -10.855794 29.037842 
L -10.736257 29.293176 
z
" clip-path="url(#p4404ed451b)" style="fill: #eeeeee; stroke: #000000; stroke-width: 0.3"/>
    <path d="M -13.038238 20.076349 
L -12.61124 19.855902 
L -12.595833 20.197709 
z
" clip-path="url(#p4404ed451b)" style="fill: #eeeeee; stroke: #000000; stroke-width: 0.3"/>
    <path d="M -13.170101 25.166295 
L -12.234767 26.074799 
L -12.65252 26.485258 
z
" clip-path="url(#p4404ed451b)" style="fill: #eeeeee; stroke: #000000; stroke-width: 0.3"/>
    <path d="M -13.428271 27.606056 
L -12.992029 27.666918 
L -13.040706 27.886618 
z
" clip-path="url(#p4404ed451b)" style="fill: #eeeeee; stroke: #000000; stroke-width: 0.3"/>
    <path d="M -14.086953 27.277236 
L -13.779486 27.019303 
L -13.696299 27.600483 
z
" clip-path="url(#p4404ed451b)" style="fill: #eeeeee; stroke: #000000; stroke-width: 0.3"/>
    <path d="M -14.833737 24.480828 
L -14.091882 23.751573 
L -14.001919 24.424791 
z
" clip-path="url(#p4404ed451b)" style="fill: #eeeeee; stroke: #000000; stroke-width: 0.3"/>
    <path d="M -15.247181 22.788509 
L -14.73022 21.169675 
L -14.378392 21.849943 
z
" clip-path="url(#p4404ed451b)" style="fill: #eeeeee; stroke: #000000; stroke-width: 0.3"/>
    <path d="M -17.681646 45.229545 
L -17.422856 45.048061 
L -17.00879 45.540169 
z
" clip-path="url(#p4404ed451b)" style="fill: #eeeeee; stroke: #000000; stroke-width: 0.3"/>
    <path d="M -17.692738 4.255403 
L -17.321187 4.360054 
L -17.554712 4.661037 
z
" clip-path="url(#p4404ed451b)" style="fill: #eeeeee; stroke: #000000; stroke-width: 0.3"/>
    <path d="M -18.96634 27.037124 
L -18.873303 27.12285 
L -18.90904 27.140663 
z
" clip-path="url(#p4404ed451b)" style="fill: #eeeeee; stroke: #000000; stroke-width: 0.3"/>
    <path d="M -19.293523 6.03716 
L -18.358189 4.729698 
L -18.821545 5.894649 
z
" clip-path="url(#p4404ed451b)" style="fill: #eeeeee; stroke: #000000; stroke-width: 0.3"/>
    <path d="M -21.158649 5.476766 
L -19.602838 6.235344 
L -20.177107 6.665841 
z
" clip-path="url(#p4404ed451b)" style="fill: #eeeeee; stroke: #000000; stroke-width: 0.3"/>
    <path d="M -22.118015 6.167796 
L -22.042225 5.41998 
L -21.721205 5.741749 
z
" clip-path="url(#p4404ed451b)" style="fill: #eeeeee; stroke: #000000; stroke-width: 0.3"/>
    <path d="M -22.199347 26.25776 
L -22.066257 26.46522 
L -22.092136 26.487119 
z
" clip-path="url(#p4404ed451b)" style="fill: #eeeeee; stroke: #000000; stroke-width: 0.3"/>
    <path d="M -22.301016 20.852366 
L -21.812402 20.753644 
L -21.624473 20.852366 
z
" clip-path="url(#p4404ed451b)" style="fill: #eeeeee; stroke: #000000; stroke-width: 0.3"/>
    <path d="M -23.365745 36.013083 
L -23.100178 35.964095 
L -23.081075 36.290316 
z
" clip-path="url(#p4404ed451b)" style="fill: #eeeeee; stroke: #000000; stroke-width: 0.3"/>
    <path d="M -24.889514 23.105818 
L -24.404595 23.136254 
L -24.375021 23.384164 
z
" clip-path="url(#p4404ed451b)" style="fill: #eeeeee; stroke: #000000; stroke-width: 0.3"/>
    <path d="M -35.064829 28.234737 
L -34.841162 27.914454 
L -34.857796 28.353488 
z
" clip-path="url(#p4404ed451b)" style="fill: #eeeeee; stroke: #000000; stroke-width: 0.3"/>
    <path d="M -35.440688 27.516983 
L -35.225032 27.481357 
L -35.323619 27.606056 
z
" clip-path="url(#p4404ed451b)" style="fill: #eeeeee; stroke: #000000; stroke-width: 0.3"/>
    <path d="M -41.550558 11.483378 
L -41.260959 10.990906 
L -41.447042 11.483378 
z
" clip-path="url(#p4404ed451b)" style="fill: #eeeeee; stroke: #000000; stroke-width: 0.3"/>
    <path d="M -41.726782 11.177944 
L -41.592458 10.754123 
L -41.188872 10.768598 
z
" clip-path="url(#p4404ed451b)" style="fill: #eeeeee; stroke: #000000; stroke-width: 0.3"/>
    <path d="M -44.19513 11.29634 
L -43.12239 8.737445 
L -42.897489 10.771936 
z
" clip-path="url(#p4404ed451b)" style="fill: #eeeeee; stroke: #000000; stroke-width: 0.3"/>
    <path d="M -47.270401 5.461178 
L -46.879134 5.522041 
L -46.789791 5.731726 
z
" clip-path="url(#p4404ed451b)" style="fill: #eeeeee; stroke: #000000; stroke-width: 0.3"/>
    <path d="M 93.830925 58.704299 
L 108.337411 49.950138 
L 110.418148 49.308424 
L 112.227351 45.739784 
L 112.20544 41.636425 
L 113.433227 37.876661 
L 112.473066 34.181946 
L 112.778247 31.496328 
L 113.599116 30.022495 
L 117.069623 29.096817 
L 120.957216 24.608381 
L 122.501927 24.274208 
L 123.671021 22.371 
L 126.693141 22.226537 
L 131.952113 23.790163 
L 134.061803 22.773515 
L 135.174557 23.451986 
L 134.758251 24.812466 
L 135.551735 25.892741 
L 138.01591 23.984817 
L 140.113864 25.466193 
L 139.688957 27.509385 
L 141.314258 28.639158 
L 140.90148 29.864132 
L 141.600669 30.967035 
L 142.775237 31.056582 
L 143.391868 34.786658 
L 145.055132 34.787123 
L 146.637791 36.456084 
L 148.995543 36.034252 
L 151.014467 36.524435 
L 148.566721 37.703213 
L 148.265447 39.345788 
L 149.447844 40.947821 
L 149.681823 42.835004 
L 147.880835 43.056528 
L 147.403882 44.70287 
L 146.014899 45.613946 
L 145.71676 46.399166 
L 146.278218 47.94559 
L 144.757379 47.577013 
L 144.778511 48.466401 
L 144.124318 48.920758 
L 145.188162 50.128293 
L 145.089559 51.701341 
L 143.846516 53.214776 
L 144.644694 53.533152 
L 146.528241 56.775873 
L 147.674643 56.339894 
L 147.992347 57.069979 
L 147.421886 57.585371 
L 148.344485 57.617896 
L 149.713903 59.720948 
L 149.803897 60.558967 
L 148.767439 61.130443 
L 149.449805 61.531781 
L 149.272558 62.510962 
L 152.167123 63.081261 
L 156.795381 66.886747 
L 158.118243 66.794364 
L 159.220042 67.609755 
L 159.829631 69.859395 
L 162.427616 72.987112 
L 161.249914 76.615848 
L 161.204531 80.384094 
L 163.773563 80.435462 
L 163.783739 85.225546 
L 165.995552 86.603228 
L 167.11182 89.443434 
L 167.915222 89.943476 
L 164.583014 89.046108 
L 163.446198 89.419455 
L 163.314955 88.650863 
L 163.187407 88.479777 
L 163.287228 89.510754 
L 161.213919 88.560641 
L 157.601774 89.144147 
L 154.999875 94.522444 
L 152.569347 97.703882 
L 138.633328 96.736257 
L 118.823267 79.607347 
L 106.320835 71.939827 
L 96.64646 70.137476 
L 97.749038 68.984847 
L 97.323343 67.996719 
L 95.755941 68.220358 
L 95.373289 66.882971 
L 95.971135 66.685727 
z
" clip-path="url(#p4404ed451b)" style="fill: #eeeeee; stroke: #000000; stroke-width: 0.3"/>
    <path d="M 133.507772 3.958196 
L 136.332695 3.589619 
L 136.874202 0.999686 
L 137.678642 0.384613 
L 139.505312 1.533749 
L 142.123006 5.422607 
L 143.322226 5.541149 
L 144.287475 7.331479 
L 149.492447 8.62267 
L 152.730542 8.374988 
L 156.883414 4.557253 
L 163.464467 0.944077 
L 166.247127 3.913897 
L 164.484881 4.914994 
L 165.904384 7.328177 
L 164.124134 7.84098 
L 163.628797 8.737435 
L 166.030372 11.017009 
L 166.82503 10.85322 
L 168.283268 12.879211 
L 170.30039 12.531803 
L 170.832137 17.371978 
L 172.255479 19.926049 
L 174.596891 21.09805 
L 180.30503 22.060367 
L 181.263774 24.213619 
L 186.43092 27.730745 
L 193.277722 29.4175 
L 209.158699 26.043624 
L 206.149973 26.734281 
L 209.217855 27.243097 
L 209.260981 25.358532 
L 208.456277 22.4853 
L 210.672353 22.650969 
L 214.060694 21.60839 
L 215.077974 20.826463 
L 215.368292 18.905342 
L 217.667358 16.925775 
L 222.04638 15.408583 
L 226.521651 15.759009 
L 226.549036 14.854299 
L 227.556927 14.164282 
L 232.114363 14.782656 
L 233.148087 13.959257 
L 234.491679 16.786967 
L 240.581302 18.422702 
L 240.960834 19.420972 
L 242.104102 19.835271 
L 245.460364 19.275807 
L 249.330739 20.774384 
L 250.462271 23.718046 
L 254.683218 25.376171 
L 257.129396 28.921006 
L 263.364572 28.928549 
L 263.219807 31.473708 
L 263.810612 33.604095 
L 263.092252 35.001104 
L 263.934253 35.700078 
L 264.305169 38.854191 
L 263.525775 41.113253 
L 262.929489 41.317812 
L 263.224501 42.921733 
L 262.604736 45.542768 
L 261.711878 47.154707 
L 259.83538 48.263729 
L 261.279921 50.064904 
L 259.411245 50.176843 
L 258.268757 51.705591 
L 258.412742 56.271789 
L 261.509986 57.405329 
L 258.83531 60.714503 
L 258.800096 61.562883 
L 260.824494 68.945026 
L 260.40506 70.967004 
L 260.759538 75.824016 
L 267.310071 76.932099 
L 268.366487 80.199327 
L 268.183373 81.730666 
L 260.930917 90.749947 
L 264.663569 95.162498 
L 266.398428 99.753915 
L 268.868865 102.748954 
L 272.427405 103.877303 
L 274.039025 105.60896 
L 275.446398 105.450123 
L 275.849008 112.304131 
L 275.301239 114.385038 
L 276.437465 114.871445 
L 278.592939 114.461388 
L 279.672039 115.748583 
L 279.003764 116.218017 
L 279.2573 117.821473 
L 278.632061 118.366791 
L 278.49199 120.055553 
L 272.849193 120.81062 
L 271.891379 121.367721 
L 271.687921 122.6469 
L 270.618202 122.528121 
L 268.415785 123.883658 
L 267.821846 127.58121 
L 267.108967 128.044514 
L 266.803779 132.456126 
L 265.226465 134.518116 
L 259.334069 132.552039 
L 258.699426 130.983679 
L 257.53056 131.613473 
L 258.075489 132.412438 
L 256.728937 131.619785 
L 253.809455 132.051376 
L 250.403047 130.849778 
L 247.299179 131.415289 
L 245.642933 129.94899 
L 242.567048 129.478034 
L 239.948355 129.919302 
L 239.116538 128.737642 
L 237.666704 129.263159 
L 237.544706 128.28562 
L 234.182304 127.908187 
L 233.086153 125.182292 
L 233.435513 124.422975 
L 232.431786 122.150962 
L 232.012179 118.177728 
L 231.259846 117.227651 
L 231.621532 116.791217 
L 230.805115 116.710307 
L 230.37627 115.54573 
L 225.188795 115.353484 
L 223.792567 116.57522 
L 221.722256 116.860242 
L 220.631034 118.783397 
L 218.731405 118.71066 
L 215.098507 121.416882 
L 212.057746 120.420053 
L 211.442198 119.418016 
L 206.959614 119.476653 
L 205.259621 118.147301 
L 204.900395 117.040613 
L 201.754884 115.869351 
L 198.519416 113.599563 
L 199.040072 112.726684 
L 197.446676 111.048466 
L 194.051619 109.223659 
L 191.569726 109.243068 
L 189.422724 108.320673 
L 187.006415 102.828103 
L 186.84067 100.985858 
L 184.917623 99.182941 
L 185.056876 98.607707 
L 185.632371 99.038204 
L 185.864662 98.078852 
L 185.186271 97.294672 
L 183.698232 97.268697 
L 183.785114 94.480826 
L 179.920538 90.021413 
L 179.379554 87.671099 
L 178.176797 87.5965 
L 175.282066 89.247256 
L 174.885256 88.032944 
L 173.108247 88.029232 
L 172.927093 87.04353 
L 172.474217 87.41539 
L 170.655299 85.983604 
L 172.788453 86.294976 
L 173.249961 85.355297 
L 172.851303 84.838317 
L 171.111878 84.753705 
L 171.534567 85.511535 
L 170.758816 85.638084 
L 170.209813 86.304252 
L 170.610938 89.07171 
L 167.196332 89.555609 
L 166.686912 87.440773 
L 163.783739 85.225546 
L 163.773563 80.435462 
L 161.204531 80.384094 
L 161.249914 76.615848 
L 162.427616 72.987112 
L 159.829631 69.859395 
L 159.220042 67.609755 
L 158.118243 66.794364 
L 156.795381 66.886747 
L 152.167123 63.081261 
L 149.272558 62.510962 
L 149.449805 61.531781 
L 148.767439 61.130443 
L 149.803897 60.558967 
L 149.713903 59.720948 
L 148.344485 57.617896 
L 147.421886 57.585371 
L 147.992347 57.069979 
L 147.674643 56.339894 
L 146.528241 56.775873 
L 144.644694 53.533152 
L 143.846516 53.214776 
L 145.089559 51.701341 
L 145.188162 50.128293 
L 144.124318 48.920758 
L 144.778511 48.466401 
L 144.757379 47.577013 
L 146.278218 47.94559 
L 145.71676 46.399166 
L 146.014899 45.613946 
L 147.403882 44.70287 
L 147.880835 43.056528 
L 149.681823 42.835004 
L 149.447844 40.947821 
L 148.265447 39.345788 
L 148.566721 37.703213 
L 151.014467 36.524435 
L 148.995543 36.034252 
L 146.637791 36.456084 
L 145.055132 34.787123 
L 143.391868 34.786658 
L 142.775237 31.056582 
L 141.513803 30.87041 
L 140.90148 29.864132 
L 141.23366 28.442616 
L 139.629483 27.350548 
L 140.113864 25.466193 
L 139.09423 24.66918 
L 139.464366 22.942011 
L 137.727159 21.682396 
L 137.908707 19.077614 
L 134.925322 17.428682 
L 136.868728 13.404974 
L 135.587343 13.004347 
L 135.477391 8.796829 
L 134.545797 7.69275 
L 134.808336 6.046408 
L 133.983552 5.54539 
z
" clip-path="url(#p4404ed451b)" style="fill: #eeeeee; stroke: #000000; stroke-width: 0.3"/>
    <path d="M 218.836156 119.917548 
L 222.542376 118.670583 
L 222.419757 117.237675 
L 223.47771 117.668546 
L 225.860409 116.791217 
L 226.428515 117.227651 
L 223.851101 119.588737 
L 223.318119 119.16343 
L 218.880517 120.936649 
z
" clip-path="url(#p4404ed451b)" style="fill: #eeeeee; stroke: #000000; stroke-width: 0.3"/>
    <path d="M 208.373711 121.048734 
L 209.251737 120.872075 
L 209.388529 121.48443 
L 208.771747 121.446579 
z
" clip-path="url(#p4404ed451b)" style="fill: #eeeeee; stroke: #000000; stroke-width: 0.3"/>
    <path d="M 227.542534 116.318408 
L 227.559789 116.088676 
L 228.073668 116.256059 
z
" clip-path="url(#p4404ed451b)" style="fill: #eeeeee; stroke: #000000; stroke-width: 0.3"/>
    <path d="M 226.835175 117.919055 
L 227.312091 117.793992 
L 227.122927 118.289812 
z
" clip-path="url(#p4404ed451b)" style="fill: #eeeeee; stroke: #000000; stroke-width: 0.3"/>
    <path d="M 223.140668 120.274942 
L 223.255269 119.860771 
L 223.416707 120.250079 
z
" clip-path="url(#p4404ed451b)" style="fill: #eeeeee; stroke: #000000; stroke-width: 0.3"/>
    <path d="M 216.772008 127.018973 
L 217.092415 127.174107 
L 216.820071 127.219756 
z
" clip-path="url(#p4404ed451b)" style="fill: #eeeeee; stroke: #000000; stroke-width: 0.3"/>
    <path d="M 212.969049 126.725788 
L 213.298079 126.852712 
L 212.998622 126.82711 
z
" clip-path="url(#p4404ed451b)" style="fill: #eeeeee; stroke: #000000; stroke-width: 0.3"/>
    <path d="M 212.80515 123.220912 
L 213.253718 123.290311 
L 213.054083 123.650296 
z
" clip-path="url(#p4404ed451b)" style="fill: #eeeeee; stroke: #000000; stroke-width: 0.3"/>
    <path d="M 206.090212 119.740898 
L 206.150594 119.641437 
L 206.430948 119.945384 
z
" clip-path="url(#p4404ed451b)" style="fill: #eeeeee; stroke: #000000; stroke-width: 0.3"/>
    <path d="M 202.669275 118.205938 
L 204.430264 118.614172 
L 203.225054 118.646824 
z
" clip-path="url(#p4404ed451b)" style="fill: #eeeeee; stroke: #000000; stroke-width: 0.3"/>
    <path d="M 180.968421 96.124231 
L 181.357471 96.217973 
L 181.295203 96.671555 
z
" clip-path="url(#p4404ed451b)" style="fill: #eeeeee; stroke: #000000; stroke-width: 0.3"/>
    <path d="M 62.017789 106.669224 
L 63.76686 102.890024 
L 64.869333 95.36952 
L 73.349856 96.752747 
L 76.436144 94.065961 
L 78.341595 90.792368 
L 83.955438 89.50612 
L 85.298258 86.438736 
L 87.825814 84.906932 
L 80.088977 75.857479 
L 95.261384 71.266774 
L 96.732539 70.108253 
L 105.913145 71.776275 
L 118.823267 79.607347 
L 138.633328 96.736257 
L 159.391413 98.625328 
L 161.168142 102.831906 
L 167.425995 103.136137 
L 167.230055 104.167114 
L 167.735302 103.980066 
L 168.618265 107.277492 
L 169.677452 107.633775 
L 169.31145 108.050545 
L 170.363853 109.27821 
L 170.302237 109.796303 
L 170.034822 110.173362 
L 169.832726 109.261145 
L 169.57763 110.255749 
L 170.344758 110.547456 
L 169.978756 111.232175 
L 173.06758 111.846755 
L 173.620278 112.726684 
L 172.159352 112.794971 
L 173.249961 113.04362 
L 172.943727 113.796999 
L 173.620278 113.672301 
L 173.694834 114.942286 
L 174.374459 114.957873 
L 174.09041 115.458882 
L 175.583984 115.047685 
L 176.548286 117.19945 
L 180.023441 119.875246 
L 178.736279 119.331916 
L 179.055452 121.428018 
L 180.463378 122.984877 
L 179.894046 125.611311 
L 179.069005 124.105291 
L 178.747984 125.923057 
L 179.590894 126.035132 
L 180.773314 129.296559 
L 179.919312 128.371346 
L 179.949499 128.67678 
L 182.393822 131.072378 
L 183.080223 134.559816 
L 186.235214 139.002602 
L 188.430363 138.484802 
L 188.684838 139.463827 
L 189.387881 138.422452 
L 190.167948 138.858148 
L 188.506152 141.37362 
L 190.705859 141.844203 
L 190.888897 143.466284 
L 198.194959 153.861606 
L 217.477981 156.758606 
L 218.0954 156.004953 
L 221.508 162.613879 
L 216.517041 180.705242 
L 193.804594 189.823967 
L 171.52371 193.617432 
L 164.907056 197.54664 
L 160.569115 203.800187 
L 159.34681 207.188072 
L 157.331021 208.504956 
L 155.884912 208.419176 
L 153.914506 205.513921 
L 150.980812 205.98195 
L 144.22526 205.179757 
L 142.21886 204.118326 
L 134.523492 204.333255 
L 132.752638 205.272606 
L 128.949951 203.283143 
L 127.073445 205.05297 
L 127.733119 205.545032 
L 126.720527 207.238975 
L 126.676703 208.846198 
L 127.425198 209.878397 
L 127.186524 211.084519 
L 126.466991 211.011936 
L 126.098422 212.254824 
L 124.229897 213.762896 
L 123.646391 210.482543 
L 120.953142 206.361609 
L 121.000585 207.799333 
L 120.535382 203.888448 
L 116.644314 200.422899 
L 114.416268 196.862359 
L 113.980647 194.618547 
L 112.272643 192.539155 
L 112.56655 191.296632 
L 111.714396 190.363256 
L 112.017547 189.169729 
L 111.200517 188.64051 
L 110.262101 185.171997 
L 108.867107 184.232319 
L 108.749425 182.697359 
L 108.080884 182.856935 
L 107.156642 181.011716 
L 103.74433 178.116595 
L 102.375835 177.851985 
L 102.660498 178.299556 
L 101.293238 177.463789 
L 96.858096 170.549776 
L 96.14951 168.669671 
L 96.833451 167.856916 
L 96.363932 164.722412 
L 95.017691 162.366681 
L 95.581299 162.403784 
L 96.619021 158.744375 
L 96.070131 159.085462 
L 95.636858 155.428397 
L 94.020665 153.31337 
L 94.01142 151.936873 
L 91.393961 146.150708 
L 87.477075 142.912821 
L 87.572694 142.292249 
L 86.949446 142.813579 
L 83.646563 140.830565 
L 83.853005 140.156161 
L 81.520572 136.418762 
L 82.338216 136.234314 
L 82.229157 133.461291 
L 79.913003 129.166662 
L 78.141535 127.946038 
L 78.094093 125.736009 
L 76.705875 124.926957 
L 73.0662 117.668546 
L 66.491128 107.612615 
L 66.890399 107.201782 
L 65.64575 106.607248 
L 63.775082 107.048508 
L 63.051089 106.420201 
L 62.580958 106.793922 
L 62.741161 107.048508 
L 62.322788 107.422229 
z
" clip-path="url(#p4404ed451b)" style="fill: #eeeeee; stroke: #000000; stroke-width: 0.3"/>
    <path d="M 116.413212 208.97075 
L 117.53422 210.327829 
L 118.517344 210.61794 
L 118.723249 209.720262 
L 119.664019 210.711382 
L 119.604364 211.824527 
L 118.901692 210.820858 
L 117.915168 211.034373 
z
" clip-path="url(#p4404ed451b)" style="fill: #eeeeee; stroke: #000000; stroke-width: 0.3"/>
    <path d="M 117.002926 209.013645 
L 117.710891 208.436924 
L 117.087953 208.048729 
L 117.198859 207.901393 
L 117.78422 208.272889 
L 118.26639 210.205557 
z
" clip-path="url(#p4404ed451b)" style="fill: #eeeeee; stroke: #000000; stroke-width: 0.3"/>
    <path d="M 76.545058 129.176312 
L 76.940013 128.649317 
L 76.844507 129.180762 
L 77.87905 130.045852 
L 76.907979 129.686232 
z
" clip-path="url(#p4404ed451b)" style="fill: #eeeeee; stroke: #000000; stroke-width: 0.3"/>
    <path d="M 79.99064 131.029693 
L 80.030693 130.795893 
L 80.38991 130.778445 
L 80.598791 131.232702 
z
" clip-path="url(#p4404ed451b)" style="fill: #eeeeee; stroke: #000000; stroke-width: 0.3"/>
    <path d="M 77.983179 130.012078 
L 78.31776 129.905193 
L 79.480456 131.016341 
L 78.269696 129.99204 
z
" clip-path="url(#p4404ed451b)" style="fill: #eeeeee; stroke: #000000; stroke-width: 0.3"/>
    <path d="M 76.931389 127.745638 
L 77.052161 127.431667 
L 77.297391 127.211219 
L 77.450818 128.589194 
z
" clip-path="url(#p4404ed451b)" style="fill: #eeeeee; stroke: #000000; stroke-width: 0.3"/>
    <path d="M 174.706571 114.170346 
L 175.682571 113.678238 
L 176.467567 113.920958 
z
" clip-path="url(#p4404ed451b)" style="fill: #eeeeee; stroke: #000000; stroke-width: 0.3"/>
    <path d="M 79.624638 129.629082 
L 79.747257 129.527021 
L 79.813802 130.322337 
z
" clip-path="url(#p4404ed451b)" style="fill: #eeeeee; stroke: #000000; stroke-width: 0.3"/>
    <path d="M 79.085493 130.069228 
L 79.193938 129.86103 
L 79.38495 129.974966 
z
" clip-path="url(#p4404ed451b)" style="fill: #eeeeee; stroke: #000000; stroke-width: 0.3"/>
    <path d="M 78.703478 130.532396 
L 79.670846 131.465398 
L 79.636343 131.76712 
z
" clip-path="url(#p4404ed451b)" style="fill: #eeeeee; stroke: #000000; stroke-width: 0.3"/>
    <path d="M 64.869333 95.36952 
L 66.352503 88.331109 
L 66.312595 85.53285 
L 68.572531 79.389591 
L 68.248566 77.985513 
L 69.488081 73.355214 
L 69.211074 70.687509 
L 69.884429 64.995624 
L 72.034429 64.709453 
L 73.325597 66.496719 
L 78.930832 68.359869 
L 93.830925 58.704299 
L 95.971135 66.685727 
L 95.373289 66.882971 
L 95.755941 68.220358 
L 97.323343 67.996719 
L 97.749038 68.984847 
L 95.261384 71.266774 
L 80.088977 75.857479 
L 87.825814 84.906932 
L 85.298258 86.438736 
L 83.955438 89.50612 
L 78.341595 90.792368 
L 76.436144 94.065961 
L 72.94842 96.844657 
z
" clip-path="url(#p4404ed451b)" style="fill: #eeeeee; stroke: #000000; stroke-width: 0.3"/>
    <path d="M -12.818864 87.789558 
L -11.160687 84.908346 
L -10.500241 82.295784 
L -11.605167 77.155985 
L -9.792049 74.739965 
L -9.319078 74.348176 
L -9.015927 75.488264 
L -7.418836 75.746563 
L -3.141437 74.711873 
L 7.109054 76.860675 
L 8.060409 78.299885 
L 9.680918 78.691793 
L 11.138755 78.144013 
L 11.699463 79.432549 
L 15.465451 79.574695 
L 20.036765 81.913134 
L 23.63454 80.730735 
L 27.922418 77.294145 
L 28.646403 78.358522 
L 29.581745 78.165537 
L 28.754235 77.797754 
L 29.764125 77.138273 
L 29.999497 75.793698 
L 30.156006 76.139209 
L 30.413562 76.292117 
L 30.137524 75.695724 
L 31.452413 76.10507 
L 34.76922 74.984282 
L 31.504171 76.665464 
L 32.955852 76.795726 
L 35.869065 75.838235 
L 34.800641 75.006545 
L 35.704554 74.791297 
L 39.182791 76.292117 
L 41.587061 75.450778 
L 41.879121 75.45709 
L 42.120656 75.584387 
L 44.049246 77.644481 
L 41.701662 75.483065 
L 41.46629 77.107098 
L 40.773726 77.739491 
L 41.981403 78.630183 
L 42.819384 78.358522 
L 42.660415 79.167565 
L 43.344355 79.848955 
L 44.68451 79.090377 
L 44.680815 77.916141 
L 44.105933 77.644481 
L 45.04743 77.860103 
L 47.093088 79.779546 
L 49.558975 78.918178 
L 47.584791 79.858595 
L 48.075251 79.982181 
L 49.557741 79.316023 
L 50.184994 79.822231 
L 50.596591 79.105225 
L 50.339035 79.416597 
L 49.764773 79.36055 
L 50.937948 78.544083 
L 51.119094 79.920206 
L 53.186937 78.918178 
L 53.891827 79.167565 
L 55.015712 79.266288 
L 59.197469 77.4694 
L 64.394938 94.10747 
L 63.258122 95.738188 
L 62.409662 100.98511 
L 60.786693 104.779095 
L 60.974002 107.920648 
L 59.302356 109.599605 
L 59.629539 110.173362 
L 55.88943 107.479014 
L 51.84124 102.504491 
L 51.456756 98.672282 
L 47.952019 94.418477 
L 46.913169 89.352281 
L 45.094872 93.173355 
L 46.939048 95.210446 
L 47.274242 98.82592 
L 48.647665 100.600627 
L 49.117183 102.417644 
L 54.307127 108.642114 
L 54.59241 109.601831 
L 53.69466 109.310497 
L 54.59241 110.920803 
L 53.867803 110.920803 
L 56.457535 114.606051 
L 56.445209 115.71719 
L 57.651653 117.76207 
L 57.289353 118.35995 
L 57.237595 119.978784 
L 61.81938 128.447057 
L 66.347052 139.618432 
L 68.991533 143.187418 
L 70.844582 144.332824 
L 71.253166 145.071838 
L 69.143711 144.389363 
L 68.916145 144.930503 
L 68.958242 148.768231 
L 69.398186 149.707919 
L 70.516998 153.920425 
L 71.960555 155.712014 
L 74.53575 156.626383 
L 76.154048 159.17106 
L 79.603279 161.818891 
L 79.514345 162.461162 
L 38.264091 162.464473 
L 38.690566 160.842173 
L 38.17175 160.35199 
L 36.847715 162.473429 
L -10.60353 162.464473 
L -10.60353 96.922903 
z
M 66.858364 155.250799 
L 69.955063 152.030917 
L 68.502261 153.499012 
z
M 63.56836 157.863862 
L 63.951988 156.886807 
L 64.207342 156.218332 
z
M 58.797752 160.672209 
L 62.845518 159.704903 
L 60.88204 160.149127 
z
" clip-path="url(#p4404ed451b)" style="fill: #eeeeee; stroke: #000000; stroke-width: 0.3"/>
    <path d="M 61.387454 107.733975 
L 61.730651 107.622638 
L 62.378854 108.424257 
L 61.603723 108.332594 
z
" clip-path="url(#p4404ed451b)" style="fill: #eeeeee; stroke: #000000; stroke-width: 0.3"/>
    <path d="M 57.026867 112.041592 
L 57.89689 112.239766 
L 58.069413 112.670273 
L 57.179674 112.306576 
z
" clip-path="url(#p4404ed451b)" style="fill: #eeeeee; stroke: #000000; stroke-width: 0.3"/>
    <path d="M 49.615662 78.986465 
L 50.902824 78.144013 
L 51.95338 78.335511 
L 50.88619 78.267598 
z
" clip-path="url(#p4404ed451b)" style="fill: #eeeeee; stroke: #000000; stroke-width: 0.3"/>
    <path d="M 62.843133 108.074505 
L 63.222529 108.088752 
L 63.016685 108.533596 
z
" clip-path="url(#p4404ed451b)" style="fill: #eeeeee; stroke: #000000; stroke-width: 0.3"/>
    <path d="M 57.341111 118.733671 
L 57.496386 118.733671 
L 57.70834 119.48 
z
" clip-path="url(#p4404ed451b)" style="fill: #eeeeee; stroke: #000000; stroke-width: 0.3"/>
    <path d="M 52.152402 78.358522 
L 52.37114 78.394896 
L 53.713142 79.042876 
z
" clip-path="url(#p4404ed451b)" style="fill: #eeeeee; stroke: #000000; stroke-width: 0.3"/>
    <path d="M 49.880608 79.546111 
L 50.011238 79.572835 
L 50.028486 79.665984 
z
" clip-path="url(#p4404ed451b)" style="fill: #eeeeee; stroke: #000000; stroke-width: 0.3"/>
    <path d="M 47.918516 42.253861 
L 49.296489 42.256478 
L 49.507217 40.224951 
L 55.10937 40.575669 
L 62.167513 37.54174 
L 57.315232 41.01173 
L 56.923351 42.352975 
L 57.774196 43.271065 
L 56.743856 42.767612 
L 55.910463 43.564615 
L 54.203383 43.186617 
L 53.719782 43.828094 
L 53.240875 42.034225 
L 49.011312 43.130999 
z
" clip-path="url(#p4404ed451b)" style="fill: #eeeeee; stroke: #000000; stroke-width: 0.3"/>
    <path d="M 47.101947 42.262817 
L 47.228026 42.166667 
L 47.27958 42.347184 
z
" clip-path="url(#p4404ed451b)" style="fill: #eeeeee; stroke: #000000; stroke-width: 0.3"/>
    <path d="M 47.774333 42.177402 
L 49.011312 43.130999 
L 53.240875 42.034225 
L 53.642311 43.806405 
L 54.203383 43.186617 
L 55.496504 43.984569 
L 54.043748 43.450561 
L 53.583618 44.055738 
L 53.258873 42.390543 
L 48.792211 43.315292 
L 47.93456 42.632808 
z
" clip-path="url(#p4404ed451b)" style="fill: #eeeeee; stroke: #000000; stroke-width: 0.3"/>
    <path d="M 57.157028 43.386926 
L 57.774196 43.271065 
L 57.847426 43.332958 
z
" clip-path="url(#p4404ed451b)" style="fill: #eeeeee; stroke: #000000; stroke-width: 0.3"/>
    <path d="M 46.966161 42.27949 
L 47.27958 42.347184 
L 47.338273 42.447575 
z
" clip-path="url(#p4404ed451b)" style="fill: #eeeeee; stroke: #000000; stroke-width: 0.3"/>
    <path d="M 48.293376 46.87087 
L 49.047398 46.58386 
L 50.339035 47.788057 
L 49.662491 47.788057 
L 49.455459 46.984204 
z
" clip-path="url(#p4404ed451b)" style="fill: #eeeeee; stroke: #000000; stroke-width: 0.3"/>
   </g>
   <g id="PatchCollection_2">
    <defs>
     <path id="ma0dfb894fb" d="M 66.049337 -46.71756 
L 68.81468 -54.133331 
L 70.104924 -55.021049 
L 70.289151 -57.866079 
L 72.696504 -59.93917 
L 72.596069 -60.953456 
L 74.804573 -60.747264 
L 75.162966 -61.297297 
L 76.156781 -60.766582 
L 75.245918 -59.71553 
L 76.800018 -58.883877 
L 77.397864 -56.842326 
L 75.008812 -54.538491 
L 75.622316 -53.539756 
L 73.20587 -53.352161 
L 72.230059 -51.745649 
L 73.090838 -51.08438 
L 69.82457 -48.095471 
L 69.412965 -48.468763 
L 68.887888 -46.702703 
z
" style="stroke: #dd0000; stroke-width: 0.5"/>
    </defs>
    <g clip-path="url(#p4404ed451b)">
     <use xlink:href="#ma0dfb894fb" x="0" y="108" style="fill: #ff6b6b; stroke: #dd0000; stroke-width: 0.5"/>
    </g>
   </g>
  </g>
 </g>
 <defs>
  <clipPath id="p4404ed451b">
   <rect x="0" y="0" width="143.447201" height="108"/>
  </clipPath>
 </defs>
</svg>
