<?xml version="1.0" encoding="utf-8" standalone="no"?>
<!DOCTYPE svg PUBLIC "-//W3C//DTD SVG 1.1//EN"
  "http://www.w3.org/Graphics/SVG/1.1/DTD/svg11.dtd">
<svg xmlns:xlink="http://www.w3.org/1999/xlink" width="171.703533pt" height="108pt" viewBox="0 0 171.703533 108" xmlns="http://www.w3.org/2000/svg" version="1.1">
 <metadata>
  <rdf:RDF xmlns:dc="http://purl.org/dc/elements/1.1/" xmlns:cc="http://creativecommons.org/ns#" xmlns:rdf="http://www.w3.org/1999/02/22-rdf-syntax-ns#">
   <cc:Work>
    <dc:type rdf:resource="http://purl.org/dc/dcmitype/StillImage"/>
    <dc:date>2025-09-05T15:49:28.947078</dc:date>
    <dc:format>image/svg+xml</dc:format>
    <dc:creator>
     <cc:Agent>
      <dc:title>Matplotlib v3.10.3, https://matplotlib.org/</dc:title>
     </cc:Agent>
    </dc:creator>
   </cc:Work>
  </rdf:RDF>
 </metadata>
 <defs>
  <style type="text/css">*{stroke-linejoin: round; stroke-linecap: butt}</style>
 </defs>
 <g id="figure_1">
  <g id="patch_1">
   <path d="M 0 108 
L 171.703533 108 
L 171.703533 0 
L 0 0 
z
" style="fill: #ffffff"/>
  </g>
  <g id="axes_1">
   <g id="PatchCollection_1">
    <path d="M 47.930159 28.510063 
L 49.745621 28.485841 
L 51.282434 27.164815 
L 51.294601 26.23153 
L 53.194148 25.489196 
L 56.055007 20.224733 
L 57.972554 19.751076 
L 59.299884 20.287699 
L 61.452492 19.820672 
L 61.566988 19.127018 
L 68.064839 19.118356 
L 71.60355 23.311368 
L 72.138533 25.050466 
L 73.674082 25.895803 
L 72.975967 28.092485 
L 74.468459 28.38565 
L 74.413745 30.740912 
L 75.568825 32.150902 
L 73.084385 35.951071 
L 77.52588 34.004211 
L 77.146422 36.978933 
L 74.29165 38.471267 
L 74.261759 41.064364 
L 67.379391 46.544749 
L 65.820862 49.446856 
L 62.258201 47.18184 
L 55.719273 44.805612 
L 57.063593 44.805612 
L 55.889209 44.26084 
L 56.486376 43.387265 
L 58.883427 42.705185 
L 56.139318 43.107045 
L 55.353069 42.203764 
L 56.254609 41.014649 
L 54.785028 41.905489 
L 51.491222 39.906633 
L 52.634107 39.600317 
L 51.746929 38.483067 
L 52.098761 37.769276 
L 51.155742 36.281067 
L 49.274881 37.095631 
L 48.070576 33.850249 
L 50.552987 35.069072 
L 49.743601 34.119222 
L 52.159396 33.170181 
L 51.557043 33.03529 
L 52.098761 32.025227 
L 50.275751 33.031679 
L 50.620004 32.362049 
L 49.335918 32.165731 
L 49.828167 33.053355 
L 49.289645 33.678419 
L 48.526924 30.63779 
L 51.022109 30.329067 
L 49.603988 30.260418 
L 50.145706 29.520126 
L 48.264844 29.392063 
z
" clip-path="url(#p429b19fcf8)" style="fill: #eeeeee; stroke: #000000; stroke-width: 0.3"/>
    <path d="M 51.355991 42.974562 
L 54.593544 42.340263 
L 55.852504 43.047631 
L 55.296826 44.807615 
L 54.749118 43.929236 
z
" clip-path="url(#p429b19fcf8)" style="fill: #eeeeee; stroke: #000000; stroke-width: 0.3"/>
    <path d="M 30.495804 10.580984 
L 34.107414 4.277875 
L 35.971247 4.126705 
L 38.238351 2.587971 
L 40.93 2.901026 
L 42.352327 1.849712 
L 43.726019 2.183663 
L 43.784782 -0.706683 
L 41.347712 -2.174539 
L 42.646926 -3.413479 
L 44.068233 -3.569493 
L 43.742224 -7.323015 
L 50.132422 -6.953367 
L 50.372306 -5.338673 
L 51.733577 -5.97089 
L 57.147276 -3.694409 
L 59.666167 -4.698296 
L 65.767334 -4.904283 
L 66.679246 -4.472439 
L 65.51099 -2.569671 
L 67.208151 -0.937641 
L 68.615018 -0.821398 
L 69.976298 -2.677252 
L 70.958629 -2.844484 
L 73.318946 0.402249 
L 75.277011 -1.844159 
L 77.675836 -2.828166 
L 83.00847 -0.929995 
L 83.938117 -2.35809 
L 86.794408 -3.341584 
L 87.065448 -4.208843 
L 86.051716 -5.171953 
L 87.489994 -5.565043 
L 90.332619 -4.316938 
L 90.152516 -2.897505 
L 92.078416 0.059625 
L 91.594088 2.695552 
L 92.77754 2.779168 
L 93.46147 4.289093 
L 96.220499 5.559634 
L 93.030346 9.399584 
L 94.41442 9.467138 
L 94.941805 8.666159 
L 96.698239 8.951678 
L 97.111637 14.009138 
L 100.182235 16.272881 
L 98.195799 19.626673 
L 98.354872 23.681775 
L 99.370134 25.080548 
L 101.219781 24.875074 
L 100.590565 27.105163 
L 102.382469 28.16514 
L 100.568272 28.953371 
L 100.204529 30.765893 
L 102.872365 32.620731 
L 103.209266 35.087127 
L 101.627101 34.070996 
L 101.217751 34.633113 
L 100.188823 33.88261 
L 97.460185 34.310626 
L 97.292494 36.358694 
L 99.867628 36.969758 
L 100.266331 38.635944 
L 99.222707 38.496761 
L 97.936915 42.965593 
L 95.833443 42.604628 
L 95.140906 43.146599 
L 94.337412 41.861771 
L 93.169155 41.801094 
L 91.490229 45.957907 
L 88.866979 46.775204 
L 87.799033 44.889771 
L 85.285711 44.941776 
L 86.611522 41.332035 
L 84.899165 36.955482 
L 85.203135 35.396867 
L 83.456828 34.922706 
L 83.718751 34.19974 
L 83.017087 34.487547 
L 82.512496 33.230769 
L 79.688115 34.620366 
L 78.842064 33.612898 
L 76.619037 33.90402 
L 74.858044 35.708895 
L 73.084385 35.951071 
L 75.568825 32.150902 
L 74.413745 30.740912 
L 74.468459 28.38565 
L 72.975967 28.092485 
L 73.674082 25.895803 
L 72.138533 25.050466 
L 68.532442 19.229242 
L 61.566988 19.127018 
L 61.452492 19.820672 
L 59.299884 20.287699 
L 57.972554 19.751076 
L 56.055007 20.224733 
L 53.194148 25.489196 
L 51.294601 26.23153 
L 51.282434 27.164815 
L 49.745621 28.485841 
L 47.930159 28.510063 
L 49.335918 27.089308 
L 48.337842 26.982112 
L 48.59953 26.281177 
L 47.790938 27.123031 
L 47.930159 25.398772 
L 46.884212 26.087671 
L 46.993512 24.584613 
L 45.843059 24.483444 
L 46.110727 23.304767 
L 45.514756 23.984431 
L 45.113053 23.304767 
L 43.762351 23.877245 
L 45.381123 21.142518 
L 44.497935 20.603764 
L 43.736018 21.578101 
L 44.163652 19.581249 
L 42.619074 20.426724 
L 40.506445 18.803634 
L 41.07928 17.082986 
L 39.576583 18.504145 
L 39.727774 17.285322 
L 38.898045 18.006335 
L 38.687415 17.254411 
L 36.641804 16.936048 
L 35.833212 14.039141 
L 34.629701 14.321759 
L 36.174279 10.261427 
L 34.217636 12.707903 
L 34.692729 11.061932 
L 33.624449 12.153086 
L 33.819119 10.450908 
L 33.150151 10.92865 
L 33.042046 10.055076 
L 34.56189 8.833846 
L 34.361239 8.558845 
L 32.809083 9.507885 
L 32.073097 8.901291 
L 31.670992 11.473422 
z
" clip-path="url(#p429b19fcf8)" style="fill: #eeeeee; stroke: #000000; stroke-width: 0.3"/>
    <path d="M 65.820862 49.446856 
L 67.379391 46.544749 
L 74.261759 41.064364 
L 74.29165 38.471267 
L 77.146422 36.978933 
L 77.52588 34.004211 
L 79.39985 33.75285 
L 79.688115 34.620366 
L 82.512496 33.230769 
L 83.017087 34.487547 
L 83.718751 34.19974 
L 83.456828 34.922706 
L 85.203135 35.396867 
L 84.899165 36.955482 
L 86.611522 41.332035 
L 85.285711 44.941776 
L 87.799033 44.889771 
L 88.866979 46.775204 
L 90.957275 46.183774 
L 93.169155 41.801094 
L 94.337412 41.861771 
L 95.727564 43.699788 
L 97.114676 48.475557 
L 96.59134 50.849417 
L 93.83434 53.655635 
L 95.799503 54.066326 
L 95.862834 55.163261 
L 100.739512 55.837035 
L 101.991864 58.930802 
L 104.856772 60.430279 
L 105.325904 60.037949 
L 105.882671 65.255252 
L 104.058857 67.673214 
L 104.316221 69.233871 
L 103.767552 69.396259 
L 104.403159 74.769231 
L 97.377423 72.528239 
L 89.067335 68.072865 
L 77.022651 57.175712 
L 72.564441 55.627693 
L 72.848059 54.530107 
L 67.026775 51.600276 
z
" clip-path="url(#p429b19fcf8)" style="fill: #eeeeee; stroke: #000000; stroke-width: 0.3"/>
    <path d="M 93.83434 53.655635 
L 96.451521 51.065596 
L 97.089854 48.713146 
L 95.140906 43.146599 
L 95.833443 42.604628 
L 97.655238 43.281707 
L 99.222707 38.496761 
L 100.266331 38.635944 
L 99.867628 36.969758 
L 97.292494 36.358694 
L 97.405981 34.380222 
L 100.188823 33.88261 
L 103.209266 35.087127 
L 102.872365 32.620731 
L 100.204529 30.765893 
L 100.568272 28.953371 
L 102.382469 28.16514 
L 100.590565 27.105163 
L 101.219781 24.875074 
L 99.370134 25.080548 
L 98.354872 23.681775 
L 98.195799 19.626673 
L 100.001369 17.454962 
L 101.576436 16.964996 
L 103.190012 14.740264 
L 104.787373 14.52817 
L 106.141045 16.56502 
L 109.549044 17.663238 
L 110.083527 15.650599 
L 112.949455 15.49128 
L 112.946916 12.599147 
L 115.134993 13.604574 
L 115.320919 12.28406 
L 116.997816 11.885613 
L 117.502908 12.841324 
L 116.945631 13.981098 
L 117.736969 14.907239 
L 117.15436 16.567575 
L 119.351045 17.179902 
L 120.702698 15.342912 
L 123.48705 14.574561 
L 125.364568 16.087801 
L 127.98073 16.051089 
L 128.623631 17.966347 
L 129.670294 18.655404 
L 129.643442 20.029708 
L 131.286654 20.606862 
L 131.306408 21.475394 
L 132.437431 22.189945 
L 134.115083 21.568442 
L 134.195894 22.456855 
L 135.475608 23.167844 
L 137.641382 20.845979 
L 141.515984 19.685821 
L 145.808533 20.026649 
L 145.960009 20.620625 
L 146.812648 19.885681 
L 150.776659 24.863353 
L 151.964925 24.097557 
L 152.240014 26.414312 
L 151.125461 28.376987 
L 152.648854 29.673023 
L 153.757838 36.720952 
L 152.734979 37.15916 
L 152.735998 38.390966 
L 150.970692 39.345147 
L 149.491376 42.957444 
L 149.184621 46.530986 
L 146.712838 50.137669 
L 146.344536 52.429195 
L 148.626326 61.435962 
L 149.263148 61.381402 
L 149.448819 62.382753 
L 151.020082 62.51353 
L 151.206018 66.795506 
L 147.553899 66.980103 
L 146.907665 66.226965 
L 147.486087 64.745188 
L 146.3488 65.020989 
L 145.857738 67.200908 
L 141.845503 66.031062 
L 140.805546 66.434925 
L 139.095414 65.754857 
L 141.772505 65.754857 
L 141.901746 65.599089 
L 141.478103 64.771285 
L 141.026941 64.674931 
L 141.62451 65.680989 
L 140.032855 64.94712 
L 139.221479 65.729166 
L 137.884325 65.350994 
L 136.75142 65.583027 
L 136.422725 65.302008 
L 134.66632 65.82912 
L 133.588865 65.424457 
L 132.377776 66.098497 
L 132.512213 65.289971 
L 131.187432 66.603539 
L 137.312295 65.619966 
L 139.15605 66.098497 
L 130.363281 67.114994 
L 129.21522 66.252657 
L 126.158769 66.112951 
L 125.399244 66.983309 
L 127.478364 66.763717 
L 127.071475 66.36748 
L 129.287022 67.114994 
L 120.964964 68.088522 
L 110.653146 71.718904 
L 105.225584 74.855886 
L 104.078611 74.546767 
L 104.058857 67.673214 
L 105.882671 65.255252 
L 105.325904 60.037949 
L 104.856772 60.430279 
L 101.991864 58.930802 
L 100.739512 55.837035 
L 95.862834 55.163261 
L 95.799503 54.066326 
z
" clip-path="url(#p429b19fcf8)" style="fill: #eeeeee; stroke: #000000; stroke-width: 0.3"/>
    <path d="M 146.208775 67.218974 
L 146.62285 66.771343 
L 147.745383 67.483131 
z
" clip-path="url(#p429b19fcf8)" style="fill: #eeeeee; stroke: #000000; stroke-width: 0.3"/>
    <path d="M 58.096168 -28.057363 
L 59.99547 -27.657387 
L 62.44647 -29.290946 
L 62.198733 -32.044655 
L 63.361421 -35.617171 
L 64.461278 -35.617171 
L 65.348367 -36.626426 
L 71.320853 -31.293136 
L 73.181656 -34.550565 
L 79.629853 -33.876544 
L 85.940769 -34.624245 
L 85.668209 -36.082412 
L 86.601895 -37.163039 
L 86.672824 -35.167992 
L 124.301691 -35.153716 
L 125.847377 -43.222107 
L 123.199804 -45.351749 
L 113.692657 -128.882113 
L 131.05969 -128.891299 
L 189.568969 -90.478641 
L 189.647996 -86.897955 
L 193.619869 -85.504027 
L 195.76082 -82.611125 
L 198.634346 -81.713024 
L 199.904933 -82.311341 
L 201.861488 -80.166909 
L 209.688699 -77.838167 
L 210.296631 -73.57403 
L 208.760572 -71.079842 
L 210.532721 -69.700693 
L 219.784534 -71.146123 
L 219.346812 -44.248943 
L 218.137018 -43.087502 
L 216.280773 -37.330271 
L 212.901655 -35.171051 
L 212.711161 -33.770236 
L 208.068535 -34.485309 
L 207.741271 -33.623664 
L 191.382656 -33.076079 
L 187.874847 -30.191603 
L 184.897971 -29.683276 
L 180.498014 -30.237737 
L 180.470662 -29.399543 
L 176.008392 -30.925274 
L 174.155187 -30.303515 
L 173.741788 -31.066252 
L 171.273053 -31.051976 
L 167.755117 -28.268698 
L 161.692957 -25.306466 
L 158.750532 -25.055618 
L 158.369554 -22.199694 
L 157.232717 -21.952161 
L 154.19555 -23.183188 
L 152.86518 -22.605018 
L 150.219128 -20.416998 
L 149.945048 -16.974736 
L 148.256249 -16.53193 
L 146.104906 -17.429785 
L 146.480561 -13.434078 
L 144.520721 -13.16769 
L 144.511594 -12.210953 
L 139.392758 -14.361245 
L 139.918623 -14.995751 
L 139.298271 -15.468382 
L 135.67268 -11.712828 
L 137.037245 -8.761558 
L 136.588641 -7.792074 
L 134.357252 -7.730381 
L 135.318045 -5.947438 
L 134.6868 -4.974126 
L 135.132874 -3.71276 
L 134.328625 -3.84328 
L 133.619873 -2.154145 
L 131.651162 -0.744412 
L 128.435166 -0.474699 
L 125.268317 1.012534 
L 126.495846 1.699301 
L 127.170658 5.021492 
L 126.051037 7.987551 
L 124.367551 8.469871 
L 125.081372 10.719328 
L 124.588946 13.771549 
L 124.187704 14.855235 
L 120.702698 15.342912 
L 119.351045 17.179902 
L 117.15436 16.567575 
L 117.736969 14.907239 
L 116.945631 13.981098 
L 117.502908 12.841324 
L 116.997816 11.885613 
L 115.320919 12.28406 
L 115.134993 13.604574 
L 112.946916 12.599147 
L 112.949455 15.49128 
L 110.083527 15.650599 
L 109.549044 17.663238 
L 106.141045 16.56502 
L 104.787373 14.52817 
L 103.190012 14.740264 
L 101.576436 16.964996 
L 100.001369 17.454962 
L 99.936528 15.814517 
L 97.656247 14.875628 
L 97.002719 13.750643 
L 96.698239 8.951678 
L 94.941805 8.666159 
L 94.41442 9.467138 
L 93.074423 9.554572 
L 96.220499 5.559634 
L 93.46147 4.289093 
L 92.77754 2.779168 
L 91.594088 2.695552 
L 91.863099 -0.804063 
L 90.860004 -1.126796 
L 90.332619 -4.316938 
L 88.652172 -5.271878 
L 86.193064 -5.348361 
L 87.065448 -4.208843 
L 86.794408 -3.341584 
L 83.938117 -2.35809 
L 83.00847 -0.929995 
L 77.675836 -2.828166 
L 75.277011 -1.844159 
L 73.318946 0.402249 
L 70.958629 -2.844484 
L 69.976298 -2.677252 
L 68.615018 -0.821398 
L 67.208151 -0.937641 
L 65.51099 -2.569671 
L 66.679246 -4.472439 
L 66.785635 -5.417188 
L 65.903105 -6.041759 
L 66.677217 -10.254908 
L 65.263252 -11.648589 
L 64.478503 -14.105296 
L 63.222602 -14.569008 
L 62.370482 -13.577098 
L 59.728478 -17.495297 
L 61.04923 -18.729136 
L 60.70929 -22.05107 
L 58.511841 -24.271727 
L 59.067852 -26.744496 
z
" clip-path="url(#p429b19fcf8)" style="fill: #eeeeee; stroke: #000000; stroke-width: 0.3"/>
    <path d="M 124.187704 14.855235 
L 125.081372 10.719328 
L 124.367551 8.469871 
L 126.051037 7.987551 
L 127.170658 5.021492 
L 126.495846 1.699301 
L 125.268317 1.012534 
L 128.435166 -0.474699 
L 131.651162 -0.744412 
L 133.619873 -2.154145 
L 134.328625 -3.84328 
L 135.132874 -3.71276 
L 134.6868 -4.974126 
L 135.318045 -5.947438 
L 134.357252 -7.730381 
L 136.588641 -7.792074 
L 137.037245 -8.761558 
L 135.908251 -12.208398 
L 136.812566 -12.277994 
L 139.33272 -15.477814 
L 139.918623 -14.995751 
L 139.392758 -14.361245 
L 144.511594 -12.210953 
L 144.520721 -13.16769 
L 146.480561 -13.434078 
L 146.104906 -17.429785 
L 148.256249 -16.53193 
L 149.945048 -16.974736 
L 150.219128 -20.416998 
L 152.86518 -22.605018 
L 154.19555 -23.183188 
L 157.232717 -21.952161 
L 158.369554 -22.199694 
L 158.750532 -25.055618 
L 161.692957 -25.306466 
L 167.755117 -28.268698 
L 171.273053 -31.051976 
L 173.741788 -31.066252 
L 174.155187 -30.303515 
L 176.008392 -30.925274 
L 180.470662 -29.399543 
L 179.886023 -25.306466 
L 182.140461 -22.894108 
L 181.947948 -20.797094 
L 184.155279 -17.342084 
L 187.122018 -16.612488 
L 188.282167 -15.139788 
L 190.766607 -13.95974 
L 187.971099 -14.180249 
L 187.971099 -10.864689 
L 193.660397 -6.916152 
L 196.404221 -6.659186 
L 197.658603 -7.824702 
L 199.005187 -7.641161 
L 200.337586 -4.863999 
L 198.443862 -4.052829 
L 201.761178 0.341572 
L 200.754024 2.623154 
L 198.04161 4.975091 
L 194.030229 5.352128 
L 192.442495 4.512662 
L 191.37151 6.337161 
L 189.665221 6.369789 
L 189.685485 7.549837 
L 188.743182 7.785393 
L 189.284253 8.869334 
L 187.949825 8.396447 
L 187.772507 9.442157 
L 183.109617 9.845695 
L 183.099489 9.155366 
L 175.371324 7.579416 
L 172.105929 10.095014 
L 170.213724 9.129358 
L 150.512716 9.206601 
L 149.579776 12.794933 
L 151.1969 14.897551 
L 150.473953 15.666405 
L 151.320514 16.480131 
L 151.526704 20.801621 
L 150.92484 21.815719 
L 151.964925 24.097557 
L 151.234889 25.053011 
L 146.812648 19.885681 
L 145.960009 20.620625 
L 145.808533 20.026649 
L 141.515984 19.685821 
L 137.641382 20.845979 
L 135.475608 23.167844 
L 134.195894 22.456855 
L 134.115083 21.568442 
L 132.437431 22.189945 
L 131.306408 21.475394 
L 131.286654 20.606862 
L 129.643442 20.029708 
L 129.670294 18.655404 
L 128.623631 17.966347 
L 128.142342 16.15714 
L 125.364568 16.087801 
z
" clip-path="url(#p429b19fcf8)" style="fill: #eeeeee; stroke: #000000; stroke-width: 0.3"/>
    <path d="M 146.344536 52.429195 
L 146.548696 50.517508 
L 149.184621 46.530986 
L 149.491376 42.957444 
L 150.970692 39.345147 
L 152.735998 38.390966 
L 152.734979 37.15916 
L 153.757838 36.720952 
L 152.648854 29.673023 
L 151.125461 28.376987 
L 152.25319 26.226942 
L 150.92484 21.815719 
L 151.526704 20.801621 
L 151.320514 16.480131 
L 150.473953 15.666405 
L 151.1969 14.897551 
L 149.579776 12.794933 
L 150.512716 9.206601 
L 170.213724 9.129358 
L 172.105929 10.095014 
L 175.371324 7.579416 
L 178.487764 8.56954 
L 177.464914 12.803092 
L 182.216969 16.258851 
L 181.731621 22.376554 
L 180.887354 22.435692 
L 182.032053 23.104108 
L 180.585658 23.23897 
L 181.288841 23.912733 
L 180.552482 24.653804 
L 182.36464 24.062887 
L 183.53822 24.962005 
L 182.556899 28.647203 
L 183.285925 30.238199 
L 181.915782 31.146492 
L 185.316438 35.845789 
L 183.954658 36.77346 
L 184.331577 41.751132 
L 183.187643 43.676326 
L 184.658851 45.459279 
L 184.191749 48.344011 
L 183.177506 48.91708 
L 183.388255 50.212613 
L 185.639653 54.168036 
L 187.971099 55.315457 
L 189.950045 57.526584 
L 187.689823 60.579269 
L 180.714477 60.923718 
L 170.490421 66.264704 
L 162.461962 68.162795 
L 158.903684 70.82687 
L 157.774769 70.964563 
L 155.225742 69.177279 
L 147.745383 67.483131 
L 151.206018 66.795506 
L 150.981074 64.962087 
L 151.563683 64.702566 
L 150.943085 62.384283 
L 149.448819 62.382753 
L 149.263148 61.381402 
L 148.626326 61.435962 
z
" clip-path="url(#p429b19fcf8)" style="fill: #eeeeee; stroke: #000000; stroke-width: 0.3"/>
    <path d="M 14.32985 -3.960047 
L 19.290936 -5.168895 
L 24.637246 -5.013394 
L 29.361948 -7.382666 
L 43.742224 -7.323015 
L 44.068233 -3.569493 
L 42.646926 -3.413479 
L 41.347712 -2.174539 
L 43.784782 -0.706683 
L 43.726019 2.183663 
L 42.352327 1.849712 
L 40.93 2.901026 
L 38.238351 2.587971 
L 35.971247 4.126705 
L 34.107414 4.277875 
L 30.439561 9.900916 
L 31.266093 7.04816 
L 29.018635 9.238114 
L 29.249207 6.880355 
L 28.985529 7.977932 
L 27.762872 7.763963 
L 27.097089 6.360061 
L 28.646853 4.914818 
L 27.910867 5.453977 
L 27.810341 4.615734 
L 26.303663 5.655909 
L 26.632761 4.308618 
L 28.920903 3.494459 
L 28.518808 3.02235 
L 30.138776 3.092203 
L 30.06618 3.805185 
L 31.203066 3.151213 
L 29.589882 2.6795 
L 29.991977 2.202172 
L 29.03938 2.689139 
L 29.054536 1.736882 
L 26.973828 3.690372 
L 27.095099 2.343081 
L 26.60683 2.730893 
L 25.869246 1.953672 
L 26.973828 0.451018 
L 29.419946 0.591118 
L 30.393278 -0.088545 
L 30.593938 1.258341 
L 31.903161 1.757759 
L 30.58635 0.694694 
L 31.20387 -0.465514 
L 29.166239 0.212552 
L 27.095099 -0.296101 
L 23.133921 1.803528 
L 24.07694 0.720395 
L 23.475391 0.451018 
L 21.873364 1.937205 
L 22.791256 -0.40529 
L 24.210975 -0.357923 
L 24.277993 -0.83526 
L 22.805618 -0.970141 
L 20.249808 0.451018 
L 17.989576 -1.54102 
L 20.852161 -4.142464 
L 16.984726 -2.375642 
z
" clip-path="url(#p429b19fcf8)" style="fill: #eeeeee; stroke: #000000; stroke-width: 0.3"/>
    <path d="M 23.69359 7.479323 
L 23.882672 6.464445 
L 24.819711 6.200682 
L 24.819711 6.880355 
z
" clip-path="url(#p429b19fcf8)" style="fill: #eeeeee; stroke: #000000; stroke-width: 0.3"/>
    <path d="M 21.685085 8.7126 
L 22.197285 8.295091 
L 21.996624 7.21115 
L 22.671583 8.460488 
z
" clip-path="url(#p429b19fcf8)" style="fill: #eeeeee; stroke: #000000; stroke-width: 0.3"/>
    <path d="M 20.651501 4.571967 
L 22.06325 3.218658 
L 22.470933 4.712482 
L 21.125809 5.043286 
z
" clip-path="url(#p429b19fcf8)" style="fill: #eeeeee; stroke: #000000; stroke-width: 0.3"/>
    <path d="M 19.848497 0.591118 
L 21.108653 0.314924 
L 21.61248 0.431345 
L 21.065174 1.736882 
z
" clip-path="url(#p429b19fcf8)" style="fill: #eeeeee; stroke: #000000; stroke-width: 0.3"/>
    <path d="M 19.039513 8.154172 
L 20.491143 7.132871 
L 20.991774 8.019686 
L 20.177202 8.901291 
z
" clip-path="url(#p429b19fcf8)" style="fill: #eeeeee; stroke: #000000; stroke-width: 0.3"/>
    <path d="M 18.710014 6.793237 
L 19.446402 6.127218 
L 19.775499 7.008813 
L 19.006004 7.03933 
z
" clip-path="url(#p429b19fcf8)" style="fill: #eeeeee; stroke: #000000; stroke-width: 0.3"/>
    <path d="M 17.292284 3.965373 
L 19.039513 3.427013 
L 18.769845 4.29818 
L 17.359302 4.370036 
z
" clip-path="url(#p429b19fcf8)" style="fill: #eeeeee; stroke: #000000; stroke-width: 0.3"/>
    <path d="M 25.095761 3.96778 
L 26.091435 3.02235 
L 26.650711 3.60125 
z
" clip-path="url(#p429b19fcf8)" style="fill: #eeeeee; stroke: #000000; stroke-width: 0.3"/>
    <path d="M 24.068166 4.748612 
L 24.479045 4.235145 
L 24.612678 4.841749 
z
" clip-path="url(#p429b19fcf8)" style="fill: #eeeeee; stroke: #000000; stroke-width: 0.3"/>
    <path d="M 22.486089 6.733013 
L 23.178596 6.299443 
L 22.732621 7.21115 
z
" clip-path="url(#p429b19fcf8)" style="fill: #eeeeee; stroke: #000000; stroke-width: 0.3"/>
    <path d="M 20.912394 7.573269 
L 21.721378 8.040563 
L 21.303725 8.509464 
z
" clip-path="url(#p429b19fcf8)" style="fill: #eeeeee; stroke: #000000; stroke-width: 0.3"/>
    <path d="M 18.509363 4.712482 
L 19.848497 4.100264 
L 19.373394 4.841749 
z
" clip-path="url(#p429b19fcf8)" style="fill: #eeeeee; stroke: #000000; stroke-width: 0.3"/>
   </g>
   <g id="PatchCollection_2">
    <defs>
     <path id="m8ced71d682" d="M 65.820862 -58.553144 
L 67.379391 -61.455251 
L 74.261759 -66.935636 
L 74.29165 -69.528733 
L 77.146422 -71.021067 
L 77.52588 -73.995789 
L 79.39985 -74.24715 
L 79.688115 -73.379634 
L 82.512496 -74.769231 
L 83.017087 -73.512453 
L 83.718751 -73.80026 
L 83.456828 -73.077294 
L 85.203135 -72.603133 
L 84.899165 -71.044518 
L 86.611522 -66.667965 
L 85.285711 -63.058224 
L 87.799033 -63.110229 
L 88.866979 -61.224796 
L 90.957275 -61.816226 
L 93.169155 -66.198906 
L 94.337412 -66.138229 
L 95.727564 -64.300212 
L 97.114676 -59.524443 
L 96.59134 -57.150583 
L 93.83434 -54.344365 
L 95.799503 -53.933674 
L 95.862834 -52.836739 
L 100.739512 -52.162965 
L 101.991864 -49.069198 
L 104.856772 -47.569721 
L 105.325904 -47.962051 
L 105.882671 -42.744748 
L 104.058857 -40.326786 
L 104.316221 -38.766129 
L 103.767552 -38.603741 
L 104.403159 -33.230769 
L 97.377423 -35.471761 
L 89.067335 -39.927135 
L 77.022651 -50.824288 
L 72.564441 -52.372307 
L 72.848059 -53.469893 
L 67.026775 -56.399724 
z
" style="stroke: #dd0000; stroke-width: 0.5"/>
    </defs>
    <g clip-path="url(#p429b19fcf8)">
     <use xlink:href="#m8ced71d682" x="0" y="108" style="fill: #ff6b6b; stroke: #dd0000; stroke-width: 0.5"/>
    </g>
   </g>
  </g>
 </g>
 <defs>
  <clipPath id="p429b19fcf8">
   <rect x="0" y="0" width="171.703533" height="108"/>
  </clipPath>
 </defs>
</svg>
