<?xml version="1.0" encoding="utf-8" standalone="no"?>
<!DOCTYPE svg PUBLIC "-//W3C//DTD SVG 1.1//EN"
  "http://www.w3.org/Graphics/SVG/1.1/DTD/svg11.dtd">
<svg xmlns:xlink="http://www.w3.org/1999/xlink" width="154.86114pt" height="108pt" viewBox="0 0 154.86114 108" xmlns="http://www.w3.org/2000/svg" version="1.1">
 <metadata>
  <rdf:RDF xmlns:dc="http://purl.org/dc/elements/1.1/" xmlns:cc="http://creativecommons.org/ns#" xmlns:rdf="http://www.w3.org/1999/02/22-rdf-syntax-ns#">
   <cc:Work>
    <dc:type rdf:resource="http://purl.org/dc/dcmitype/StillImage"/>
    <dc:date>2025-09-05T13:56:20.078301</dc:date>
    <dc:format>image/svg+xml</dc:format>
    <dc:creator>
     <cc:Agent>
      <dc:title>Matplotlib v3.10.3, https://matplotlib.org/</dc:title>
     </cc:Agent>
    </dc:creator>
   </cc:Work>
  </rdf:RDF>
 </metadata>
 <defs>
  <style type="text/css">*{stroke-linejoin: round; stroke-linecap: butt}</style>
 </defs>
 <g id="figure_1">
  <g id="patch_1">
   <path d="M 0 108 
L 154.86114 108 
L 154.86114 0 
L 0 0 
z
" style="fill: #ffffff"/>
  </g>
  <g id="axes_1">
   <g id="PatchCollection_1">
    <path d="M 152.205003 9.805843 
L 153.161782 9.485431 
L 153.275419 9.718338 
L 152.750895 9.893348 
L 153.172714 10.300936 
L 152.307936 10.226171 
z
M 152.488794 10.019105 
L 152.537632 10.066791 
L 152.537632 10.015703 
z
" clip-path="url(#p314f5ce215)" style="fill: #eeeeee; stroke: #000000; stroke-width: 0.3"/>
    <path d="M 145.81178 9.719519 
L 146.457366 9.870524 
L 147.574994 9.140238 
L 148.330001 9.789863 
L 151.010385 9.275835 
L 151.20526 10.201446 
L 151.481377 9.865053 
L 152.314419 10.149835 
L 151.872368 10.992336 
L 148.950321 11.989791 
L 149.063958 11.744565 
L 148.483135 11.606721 
L 147.791056 11.886398 
L 146.662577 11.49878 
z
" clip-path="url(#p314f5ce215)" style="fill: #eeeeee; stroke: #000000; stroke-width: 0.3"/>
    <path d="M 152.775312 9.837545 
L 153.763914 9.799683 
L 154.11454 10.265366 
L 152.928396 10.272707 
z
" clip-path="url(#p314f5ce215)" style="fill: #eeeeee; stroke: #000000; stroke-width: 0.3"/>
    <path d="M 152.570105 10.146169 
L 152.729763 10.201446 
L 152.665432 10.193587 
z
" clip-path="url(#p314f5ce215)" style="fill: #eeeeee; stroke: #000000; stroke-width: 0.3"/>
    <path d="M 152.488794 10.019105 
L 152.537632 10.015703 
L 152.537632 10.066791 
z
" clip-path="url(#p314f5ce215)" style="fill: #eeeeee; stroke: #000000; stroke-width: 0.3"/>
    <path d="M 154.792517 29.295949 
L 156.190466 27.631145 
L 155.850485 27.411541 
L 156.898766 25.543493 
L 157.969192 21.170536 
L 158.492762 20.946501 
L 158.660258 19.784257 
L 160.389146 19.785297 
L 160.704238 18.803619 
L 160.951236 19.011116 
L 161.938303 18.166328 
L 161.699755 18.8458 
L 162.242594 20.507471 
L 161.649745 21.524445 
L 160.75448 22.048886 
L 160.756361 23.347701 
L 159.074312 22.551776 
L 158.410788 23.097237 
L 158.032305 24.276192 
L 158.384858 25.761337 
L 158.105101 26.142947 
L 159.053484 26.267796 
L 159.216396 25.910689 
L 159.401716 26.572568 
L 158.087713 27.172099 
L 157.657108 28.528421 
L 158.956917 28.5313 
L 160.291002 27.87554 
L 160.005498 29.061567 
L 160.199905 29.842034 
L 158.843747 33.256811 
L 158.867696 34.812245 
L 157.802436 38.023697 
z
" clip-path="url(#p314f5ce215)" style="fill: #eeeeee; stroke: #000000; stroke-width: 0.3"/>
    <path d="M 157.657108 28.528421 
L 158.087713 27.172099 
L 159.401716 26.572568 
L 159.216396 25.910689 
L 159.053484 26.267796 
L 158.105101 26.142947 
L 158.384858 25.761337 
L 158.017821 24.352857 
L 158.500009 22.950132 
L 159.155549 22.547061 
L 160.756361 23.347701 
L 160.749314 26.487781 
L 160.291943 27.875804 
L 158.956917 28.5313 
z
" clip-path="url(#p314f5ce215)" style="fill: #eeeeee; stroke: #000000; stroke-width: 0.3"/>
    <path d="M 154.574056 28.774682 
L 155.850485 27.411541 
L 156.190466 27.631145 
L 154.792517 29.295949 
z
" clip-path="url(#p314f5ce215)" style="fill: #eeeeee; stroke: #000000; stroke-width: 0.3"/>
    <path d="M 117.634167 -12.706601 
L 118.02832 -13.482049 
L 118.077867 -15.126397 
L 120.658357 -17.306279 
L 123.163421 -17.634073 
L 123.914757 -16.892872 
L 125.324986 -16.859244 
L 125.874068 -17.21881 
L 124.968544 -17.775795 
L 125.312783 -17.98312 
L 126.559583 -17.665638 
L 125.966874 -17.287709 
L 126.151749 -17.116075 
L 131.181104 -17.122676 
L 131.635159 -17.460995 
L 130.004556 -18.065428 
L 133.175542 -18.947322 
L 135.214347 -18.986932 
L 132.103262 -19.370839 
L 132.145785 -19.669963 
L 130.981067 -20.484813 
L 131.22991 -20.717097 
L 131.358214 -21.044688 
L 131.260597 -21.104714 
L 131.71761 -21.511937 
L 136.112101 -21.059127 
L 136.773585 -21.42282 
L 139.276063 -20.735247 
L 141.084145 -20.796515 
L 141.818097 -21.285428 
L 141.867276 -21.934627 
L 145.312617 -23.432919 
L 145.773696 -23.981239 
L 150.594881 -25.496449 
L 156.818159 -25.125952 
L 158.316388 -25.869009 
L 159.19048 -25.51976 
L 158.626241 -25.035182 
L 159.562452 -23.955865 
L 160.827739 -23.522655 
L 162.955283 -23.886551 
L 163.362013 -22.67191 
L 164.545954 -21.630139 
L 166.195412 -22.187124 
L 167.22591 -21.823228 
L 167.91032 -21.073565 
L 169.678837 -20.518644 
L 170.856126 -20.951854 
L 171.364535 -20.239531 
L 173.341593 -19.913795 
L 178.336186 -20.900487 
L 181.573725 -19.938759 
L 187.242378 -22.253346 
L 187.834724 -22.937203 
L 189.162421 -22.468681 
L 189.775698 -22.893364 
L 192.116105 -22.519506 
L 193.015354 -23.312551 
L 193.737576 -23.231855 
L 193.494803 -22.887078 
L 195.391687 -21.845931 
L 195.024236 -21.591538 
L 196.297043 -21.279248 
L 197.829766 -19.12805 
L 197.768719 -18.362777 
L 197.097685 -17.683174 
L 197.833287 -16.119097 
L 197.579005 -15.818857 
L 199.246497 -15.304043 
L 200.578706 -15.436087 
L 202.765711 -13.434722 
L 201.66955 -14.073478 
L 201.186817 -13.731585 
L 200.861866 -12.291951 
L 199.166668 -12.087075 
L 199.452177 -11.204821 
L 199.947118 -10.926327 
L 199.789573 -10.011195 
L 200.348609 -9.397484 
L 200.41459 -7.058704 
L 201.183532 -6.836012 
L 200.01732 -4.599404 
L 201.807609 -3.682833 
L 201.670491 -2.317999 
L 202.741139 -1.534779 
L 202.580072 -0.770423 
L 201.871941 -0.955127 
L 200.393222 0.105407 
L 199.917063 -0.495072 
L 200.166883 -1.251305 
L 199.499134 -1.628438 
L 198.233137 -1.063327 
L 195.077299 -1.93248 
L 194.269615 -1.674026 
L 193.558194 -1.95462 
L 192.489422 -0.765186 
L 191.635248 -0.608514 
L 191.58735 -1.266499 
L 190.971729 -1.698128 
L 190.05416 -0.941241 
L 187.648485 -0.434031 
L 184.146328 -0.56031 
L 179.858559 1.25633 
L 177.470254 1.666341 
L 175.132196 1.500766 
L 174.018816 0.680476 
L 172.857065 0.413509 
L 169.321568 1.803627 
L 167.535741 1.875937 
L 167.134245 1.19712 
L 165.658343 0.820641 
L 165.16481 2.59038 
L 165.795462 3.815708 
L 164.445879 3.864961 
L 164.37779 5.049417 
L 163.645709 5.263728 
L 163.380396 5.932583 
L 162.348149 5.435888 
L 162.639519 4.925105 
L 161.785023 3.47632 
L 163.710686 1.762044 
L 163.609743 0.954205 
L 162.84325 0.322542 
L 160.964176 1.265294 
L 160.840311 1.545436 
L 161.429694 1.369265 
L 161.040716 1.964208 
L 159.779863 2.275707 
L 156.812244 0.892728 
L 154.919117 2.043008 
L 153.477828 3.936147 
L 153.078495 3.422478 
L 152.247666 4.32418 
L 152.06131 4.042592 
L 151.629814 4.37245 
L 149.833563 4.32418 
L 148.228845 4.881165 
L 146.237733 4.116647 
L 144.662592 2.248062 
L 141.582199 0.919548 
L 138.6094 0.500776 
L 138.079178 1.057766 
L 138.079178 2.341924 
L 137.432111 3.871162 
L 136.210455 3.504792 
L 134.001564 4.393494 
L 131.384467 3.036919 
L 131.468767 2.216913 
L 131.012127 2.24105 
L 131.384467 1.64631 
L 130.669365 1.210007 
L 130.169094 1.964208 
L 128.456776 0.53915 
L 128.20239 1.0163 
L 127.571593 0.728938 
L 127.743896 1.369265 
L 126.566239 2.155644 
L 126.217934 1.964208 
L 126.810275 1.75338 
L 126.248994 1.526871 
L 126.931923 1.374629 
L 126.941169 0.959979 
L 126.028993 1.265294 
L 125.12828 1.184841 
L 124.909015 1.684065 
L 123.6966 1.64631 
L 123.476232 1.407223 
L 124.791807 0.930275 
L 126.528155 1.057766 
L 126.593232 0.258799 
L 127.154145 0.39722 
L 127.899561 -0.237333 
L 124.413179 0.085513 
L 123.570146 -0.191537 
L 123.055454 0.134817 
L 123.008864 -0.679415 
L 124.427232 -0.687872 
L 124.257886 -1.028457 
L 124.630594 -1.063114 
L 124.658323 -1.443725 
L 123.966153 -1.328615 
L 124.092235 -1.710458 
L 123.662588 -1.68921 
L 123.709913 -2.14346 
L 122.726377 -1.862496 
L 122.806983 -3.076929 
L 121.911814 -3.425976 
L 122.993335 -3.824529 
L 122.94601 -5.059596 
L 121.282866 -5.298688 
L 120.770395 -6.219569 
L 120.205416 -6.152936 
L 120.019428 -5.64773 
L 119.088764 -6.447315 
L 118.375148 -6.541593 
L 119.647088 -7.315596 
L 119.078414 -7.42369 
L 118.901672 -8.342512 
L 119.197472 -8.565102 
L 120.180272 -7.753136 
L 119.988368 -7.243392 
L 120.374388 -6.678154 
L 120.507499 -7.301568 
L 120.928646 -6.938909 
L 122.605838 -7.384911 
L 121.566099 -7.325498 
L 121.017757 -7.872581 
L 121.359038 -7.69641 
L 121.173054 -8.149423 
L 120.583299 -8.429566 
L 120.583299 -8.775722 
L 121.421156 -8.844834 
L 121.392682 -9.260508 
L 122.144386 -9.616982 
L 120.98041 -9.937764 
L 121.292853 -10.651325 
L 120.581822 -11.523317 
L 120.084136 -11.585823 
L 121.540955 -12.66328 
L 121.576449 -13.104536 
z
" clip-path="url(#p314f5ce215)" style="fill: #eeeeee; stroke: #000000; stroke-width: 0.3"/>
    <path d="M 117.467039 -18.986932 
L 118.94767 -20.151118 
L 118.772518 -21.578438 
L 120.186433 -22.142763 
L 120.021608 -23.43516 
L 118.830748 -23.945122 
L 118.834501 -24.332998 
L 119.706521 -24.508926 
L 120.068097 -25.234771 
L 121.582037 -25.380827 
L 122.071109 -25.820446 
L 123.101611 -25.865116 
L 124.34225 -24.898896 
L 125.548613 -25.373101 
L 126.479349 -25.260865 
L 126.60728 -24.843331 
L 126.275987 -24.498827 
L 127.460668 -22.961335 
L 131.442887 -21.523075 
L 130.911924 -20.371761 
L 129.243978 -20.170013 
L 128.910831 -20.738344 
L 128.862765 -20.27728 
L 127.154145 -20.761858 
L 126.136219 -20.183626 
L 124.241248 -20.275425 
L 123.16786 -18.827263 
L 120.420978 -17.569504 
L 118.886142 -16.273168 
L 119.023688 -16.038618 
L 118.031646 -15.540839 
L 118.551886 -16.428507 
L 118.311548 -16.940731 
L 121.082461 -18.312358 
L 120.9072 -18.609419 
L 119.613443 -18.29503 
L 117.560217 -18.609419 
z
" clip-path="url(#p314f5ce215)" style="fill: #eeeeee; stroke: #000000; stroke-width: 0.3"/>
    <path d="M 115.786148 -15.89999 
L 116.979708 -16.491429 
L 117.271809 -15.954449 
L 116.252775 -15.752904 
z
" clip-path="url(#p314f5ce215)" style="fill: #eeeeee; stroke: #000000; stroke-width: 0.3"/>
    <path d="M 124.494525 -17.676365 
L 124.618763 -17.822832 
L 124.84283 -17.538974 
z
" clip-path="url(#p314f5ce215)" style="fill: #eeeeee; stroke: #000000; stroke-width: 0.3"/>
    <path d="M 124.25123 -18.500499 
L 125.18855 -18.429947 
L 124.6073 -18.184665 
z
" clip-path="url(#p314f5ce215)" style="fill: #eeeeee; stroke: #000000; stroke-width: 0.3"/>
    <path d="M 117.216347 -14.419645 
L 117.335405 -14.47555 
L 117.656721 -14.169825 
z
" clip-path="url(#p314f5ce215)" style="fill: #eeeeee; stroke: #000000; stroke-width: 0.3"/>
    <path d="M 41.378538 34.843946 
L 44.03544 33.637219 
L 45.4935 31.730458 
L 45.847565 30.795681 
L 45.102804 28.192023 
L 45.819391 26.917969 
L 46.886755 26.594409 
L 47.373241 25.533353 
L 48.131619 25.275289 
L 48.587587 24.605121 
L 51.645985 23.096452 
L 51.207865 22.063822 
L 51.458602 19.309556 
L 55.289709 21.076674 
L 57.452751 21.220251 
L 59.848739 20.713807 
L 60.847064 21.228089 
L 63.636096 21.675743 
L 64.927268 22.666765 
L 68.16444 23.293064 
L 68.993792 24.412402 
L 68.978262 25.473975 
L 69.565796 26.997231 
L 70.797434 28.400215 
L 72.083799 28.971025 
L 76.160673 29.438685 
L 80.280438 30.755031 
L 81.914739 31.537907 
L 83.935797 33.296741 
L 85.769763 34.088281 
L 88.312169 33.301486 
L 90.508861 30.697474 
L 90.72147 29.268907 
L 89.679141 26.518838 
L 90.380189 24.403738 
L 92.611634 22.469965 
L 94.830143 21.382809 
L 96.4833 21.275745 
L 97.43023 20.548978 
L 99.821778 20.492251 
L 104.167832 22.054286 
L 104.362321 22.874292 
L 104.051732 23.604563 
L 105.104043 24.473053 
L 105.044514 24.161548 
L 106.728358 24.369081 
L 108.64108 25.268922 
L 111.562856 25.130085 
L 112.854023 25.556492 
L 113.482603 27.006306 
L 112.086349 28.600468 
L 112.7494 31.457464 
L 111.356617 34.706924 
L 112.687417 39.588058 
L 112.667226 86.15635 
L 108.144194 86.159103 
L 108.144194 88.690444 
L 71.813434 68.671805 
L 63.776509 72.871764 
L 60.441761 70.015549 
L 53.565646 68.30358 
L 51.474586 64.265662 
L 47.894481 63.056578 
L 46.485259 63.457159 
L 45.802957 62.933179 
L 45.498666 62.0546 
L 44.765644 61.515162 
L 44.656232 59.106561 
L 41.793177 54.860492 
L 42.269336 53.929639 
L 43.959368 53.058523 
L 44.213882 51.442571 
L 43.356423 49.083355 
L 44.328932 46.253076 
L 43.606711 44.220822 
L 43.830233 39.855942 
L 43.110361 37.423497 
z
" clip-path="url(#p314f5ce215)" style="fill: #eeeeee; stroke: #000000; stroke-width: 0.3"/>
    <path d="M 33.192754 15.893567 
L 33.340672 14.676756 
L 34.466733 13.917902 
L 34.767735 13.057661 
L 36.607567 11.875036 
L 36.898237 9.745583 
L 37.492732 8.863203 
L 36.870531 8.440614 
L 37.06447 7.361479 
L 36.630107 5.892237 
L 37.158389 2.836915 
L 36.305152 2.353017 
L 37.488506 1.659532 
L 37.410085 1.04464 
L 38.448802 0.778724 
L 38.270629 0.255752 
L 39.27875 0.053127 
L 41.033959 -1.2364 
L 43.459897 -1.80102 
L 43.979024 -1.717885 
L 43.583394 -1.132428 
L 43.783799 -0.820726 
L 44.230824 -0.954812 
L 43.800437 -1.20484 
L 44.086255 -1.387202 
L 45.856621 -0.95605 
L 45.202161 -0.855378 
L 45.651777 -0.64744 
L 45.448787 -0.188029 
L 46.197533 0.556062 
L 45.476516 0.97525 
L 46.234508 1.311916 
L 46.976898 1.187148 
L 47.277946 0.576899 
L 49.395508 -0.458062 
L 49.756757 0.689079 
L 48.254603 2.727924 
L 47.123267 3.106279 
L 46.776902 4.448613 
L 47.44655 5.8169 
L 49.3499 6.855537 
L 49.355511 8.393186 
L 49.886769 8.979651 
L 47.332699 12.396928 
L 45.195878 13.507642 
L 44.643838 14.293408 
L 44.944077 15.431104 
L 46.120621 16.665137 
L 46.843115 16.94755 
L 47.876202 16.6443 
L 47.682822 17.462243 
L 47.973815 17.804896 
L 48.752139 17.49257 
L 48.873791 17.002421 
L 49.358165 17.095873 
L 49.627399 18.38251 
L 50.498106 18.774254 
L 49.770805 18.649451 
L 49.979343 19.158166 
L 51.131488 19.247075 
L 50.762479 18.915976 
L 51.458602 19.309556 
L 51.207865 22.063822 
L 51.645985 23.096452 
L 48.587587 24.605121 
L 48.131619 25.275289 
L 47.373241 25.533353 
L 46.886755 26.594409 
L 45.819391 26.917969 
L 45.102804 28.192023 
L 45.773843 31.170061 
L 44.03544 33.637219 
L 42.437918 34.277263 
L 40.281119 24.933919 
L 37.038173 22.623169 
L 36.818408 21.057911 
L 35.927609 19.75032 
L 34.283594 19.055132 
L 34.138965 17.926085 
z
" clip-path="url(#p314f5ce215)" style="fill: #eeeeee; stroke: #000000; stroke-width: 0.3"/>
    <path d="M 47.964201 15.742806 
L 49.437658 16.168797 
L 48.653781 16.982933 
L 48.373883 16.528363 
L 47.983015 16.600993 
z
" clip-path="url(#p314f5ce215)" style="fill: #eeeeee; stroke: #000000; stroke-width: 0.3"/>
    <path d="M 49.75767 11.79576 
L 50.318901 10.971758 
L 50.513204 11.464184 
z
" clip-path="url(#p314f5ce215)" style="fill: #eeeeee; stroke: #000000; stroke-width: 0.3"/>
    <path d="M 49.105255 11.752722 
L 49.667236 11.814949 
L 49.416735 12.01036 
z
" clip-path="url(#p314f5ce215)" style="fill: #eeeeee; stroke: #000000; stroke-width: 0.3"/>
    <path d="M 90.054438 -13.706495 
L 91.172966 -13.551333 
L 91.327459 -14.266567 
L 91.859026 -14.338087 
L 91.408697 -15.194008 
L 92.9973 -15.737117 
L 93.556573 -17.399701 
L 94.684043 -18.094235 
L 94.440797 -19.56662 
L 97.240929 -19.652289 
L 99.361099 -21.100045 
L 102.344834 -21.038219 
L 102.690449 -22.028013 
L 106.468247 -22.211145 
L 109.289038 -23.178409 
L 110.547052 -23.177624 
L 110.866369 -22.563522 
L 111.747781 -22.094823 
L 112.256339 -22.361267 
L 114.070809 -21.543856 
L 117.865281 -22.144076 
L 118.05734 -23.012834 
L 117.534696 -23.82369 
L 118.343789 -24.130875 
L 120.021608 -23.43516 
L 120.207565 -22.356025 
L 120.086412 -22.006791 
L 118.772518 -21.578438 
L 118.94767 -20.151118 
L 117.68684 -18.989457 
L 117.342801 -19.336181 
L 117.561326 -19.473158 
L 115.215993 -19.673263 
L 113.401624 -20.381252 
L 111.873077 -19.587238 
L 111.085506 -19.613231 
L 110.524225 -20.135559 
L 108.729452 -18.950419 
L 107.010109 -19.07213 
L 106.867016 -18.675636 
L 107.842419 -17.992402 
L 107.424972 -17.83067 
L 107.630183 -17.35682 
L 108.240271 -17.219221 
L 108.280944 -17.537529 
L 110.018402 -16.033462 
L 109.592081 -15.909688 
L 108.996782 -16.656046 
L 107.940773 -17.111746 
L 107.004562 -17.080181 
L 106.940226 -16.554756 
L 108.189248 -15.86224 
L 108.189248 -15.025107 
L 107.44161 -15.305255 
L 106.75461 -16.365175 
L 105.677896 -16.675853 
L 105.23087 -16.416132 
L 105.337724 -16.023145 
L 107.083691 -14.907934 
L 105.324043 -15.063065 
L 105.044514 -16.453882 
L 103.177639 -17.21881 
L 102.875183 -17.806122 
L 103.60914 -18.062335 
L 103.27895 -18.528347 
L 101.773325 -17.634073 
L 102.146033 -17.13134 
L 101.737831 -15.535475 
L 105.247508 -11.101245 
L 104.610796 -10.720639 
L 103.921951 -10.685982 
L 104.672174 -11.101245 
L 104.297244 -11.69598 
L 103.394314 -12.018623 
L 102.895888 -11.312281 
L 103.676802 -10.54426 
L 103.52151 -10.236062 
L 104.017714 -10.374483 
L 102.740596 -9.572007 
L 101.966338 -9.75705 
L 101.527813 -9.471336 
L 103.876471 -8.906513 
L 104.160439 -8.357367 
L 105.075573 -8.429566 
L 104.982395 -7.941896 
L 105.419439 -7.834831 
L 105.207575 -7.67392 
L 106.262844 -7.661337 
L 106.291314 -7.419568 
L 106.742779 -6.927766 
L 108.00659 -6.595637 
L 108.595232 -5.962327 
L 108.179261 -5.742418 
L 108.626291 -4.031854 
L 108.377816 -3.353979 
L 106.233634 -4.982854 
L 106.296121 -5.357893 
L 103.663494 -4.52324 
L 104.514292 -4.153149 
L 104.23513 -3.8072 
L 104.4518 -3.164607 
L 105.21534 -2.765638 
L 105.104043 -3.180901 
L 105.497087 -3.284873 
L 105.481558 -2.661666 
L 106.073898 -2.277552 
L 104.879235 -2.084052 
L 104.4518 -1.569355 
L 104.017714 -1.851769 
L 104.285413 -2.325411 
L 102.442574 -2.922214 
L 104.204071 1.057766 
L 103.847629 1.728208 
L 104.576411 2.826091 
L 103.560334 2.381534 
L 102.717301 0.996289 
L 102.256958 0.91501 
L 101.76556 1.049102 
L 101.341456 1.943371 
L 101.372884 3.036919 
L 100.752814 2.423619 
L 100.904781 1.438575 
L 99.768537 0.369164 
L 99.838048 -0.158325 
L 98.883723 -0.017014 
L 99.006847 0.988452 
L 98.608627 1.335429 
L 97.812551 0.871689 
L 97.824387 0.239615 
L 97.186934 -0.640013 
L 97.664651 -2.05847 
L 95.081204 -4.502611 
L 96.079529 -5.229374 
L 96.299161 -6.239377 
L 97.426163 -5.905388 
L 98.458137 -6.851029 
L 103.082244 -4.814111 
L 103.573642 -5.014211 
L 103.11996 -5.37068 
L 104.471029 -5.523752 
L 104.700643 -5.92808 
L 102.802714 -6.271347 
L 102.07948 -7.097752 
L 101.697899 -6.608839 
L 100.966899 -7.419568 
L 100.879269 -6.858041 
L 100.001851 -6.758607 
L 98.950648 -7.207914 
L 96.951031 -6.620393 
L 96.063999 -7.636789 
L 96.127967 -7.126837 
L 95.305643 -6.661444 
L 94.544693 -8.487123 
L 93.961967 -9.194494 
L 93.368885 -9.226059 
L 93.713492 -9.520022 
L 93.552652 -9.982525 
L 94.985808 -9.502693 
L 95.404733 -9.562106 
L 95.325239 -10.179122 
L 94.985808 -10.509603 
L 94.863788 -10.236062 
L 93.893932 -10.377783 
L 93.791881 -10.770972 
L 93.431745 -10.340028 
L 93.834403 -10.006455 
L 93.537122 -10.077011 
L 93.395138 -9.937556 
L 92.247059 -11.623573 
L 91.127454 -12.215215 
L 91.254281 -12.769107 
L 90.661941 -12.876176 
L 90.881201 -13.356419 
z
" clip-path="url(#p314f5ce215)" style="fill: #eeeeee; stroke: #000000; stroke-width: 0.3"/>
    <path d="M 106.040254 8.597499 
L 106.322373 7.168933 
L 106.94984 7.488686 
L 107.054849 6.605965 
L 107.398347 7.377287 
L 109.060377 7.119836 
L 109.060377 7.486622 
L 108.55604 7.562127 
L 109.376146 7.659908 
L 109.77437 8.32272 
L 111.504803 7.922722 
L 114.833672 8.597499 
L 116.254624 8.386879 
L 116.010956 9.161708 
L 116.385886 9.504975 
L 117.591272 8.905906 
L 118.13148 9.038345 
L 118.775217 8.490435 
L 118.57703 9.581509 
L 117.985057 10.077225 
L 112.859203 10.435346 
L 111.584669 10.435346 
L 111.604265 9.697238 
L 110.056117 9.119832 
z
" clip-path="url(#p314f5ce215)" style="fill: #eeeeee; stroke: #000000; stroke-width: 0.3"/>
    <path d="M 102.930278 -9.406767 
L 105.044514 -10.405839 
L 106.384492 -9.025543 
L 108.936144 -8.429566 
L 109.376146 -6.276508 
L 110.89915 -5.92808 
L 110.803755 -5.059596 
L 109.918199 -4.978317 
L 109.155773 -5.578623 
L 108.42108 -7.156338 
L 106.635184 -7.177378 
L 106.475821 -7.949323 
L 104.60488 -9.32817 
z
" clip-path="url(#p314f5ce215)" style="fill: #eeeeee; stroke: #000000; stroke-width: 0.3"/>
    <path d="M 116.598494 -11.346523 
L 118.05938 -12.111248 
L 118.961573 -12.111248 
L 120.098185 -10.440289 
L 119.766891 -10.288666 
L 119.53912 -10.766845 
L 119.301741 -10.715275 
L 119.802016 -10.128992 
L 118.068994 -10.304134 
L 117.715509 -10.61357 
L 118.588493 -11.186443 
L 117.606802 -10.651325 
z
" clip-path="url(#p314f5ce215)" style="fill: #eeeeee; stroke: #000000; stroke-width: 0.3"/>
    <path d="M 91.624399 -6.044017 
L 91.872134 -6.96655 
L 92.462257 -6.831637 
L 92.498492 -7.523535 
L 92.920006 -6.428541 
L 93.15221 -6.551079 
L 93.679475 -5.786359 
L 93.388114 -5.437109 
L 92.371296 -5.682387 
L 92.078454 -6.520959 
L 91.987498 -6.009359 
z
" clip-path="url(#p314f5ce215)" style="fill: #eeeeee; stroke: #000000; stroke-width: 0.3"/>
    <path d="M 88.358018 -13.983956 
L 89.818908 -14.197471 
L 89.3508 -13.499378 
L 89.72573 -13.360754 
L 89.766771 -12.588399 
L 90.473367 -12.388501 
L 90.535486 -12.039252 
L 89.654365 -12.372207 
z
" clip-path="url(#p314f5ce215)" style="fill: #eeeeee; stroke: #000000; stroke-width: 0.3"/>
    <path d="M 112.924275 -15.236351 
L 114.068287 -15.02387 
L 114.816661 -15.443879 
L 114.358172 -14.183853 
L 113.911514 -14.847284 
L 113.747343 -14.263687 
L 112.986393 -14.436974 
z
" clip-path="url(#p314f5ce215)" style="fill: #eeeeee; stroke: #000000; stroke-width: 0.3"/>
    <path d="M 124.968544 4.217111 
L 125.947278 3.294374 
L 127.492468 2.826091 
L 126.810275 4.739443 
L 125.18855 5.449288 
L 125.299475 4.591121 
z
" clip-path="url(#p314f5ce215)" style="fill: #eeeeee; stroke: #000000; stroke-width: 0.3"/>
    <path d="M 119.952502 -3.806582 
L 120.980042 -4.180384 
L 122.168053 -3.976978 
L 120.939 -3.319322 
L 120.534124 -3.668571 
L 120.034957 -3.484147 
z
" clip-path="url(#p314f5ce215)" style="fill: #eeeeee; stroke: #000000; stroke-width: 0.3"/>
    <path d="M 116.629554 -8.063196 
L 118.05938 -7.872581 
L 117.825326 -6.249278 
L 117.360548 -5.915289 
L 116.815537 -6.239377 
L 117.266262 -7.043702 
z
" clip-path="url(#p314f5ce215)" style="fill: #eeeeee; stroke: #000000; stroke-width: 0.3"/>
    <path d="M 109.714837 1.718722 
L 109.838706 1.19639 
L 110.167042 1.473232 
L 110.086809 1.161733 
L 110.652524 1.12522 
L 110.710209 1.526871 
z
" clip-path="url(#p314f5ce215)" style="fill: #eeeeee; stroke: #000000; stroke-width: 0.3"/>
    <path d="M 92.869723 -4.433297 
L 93.276448 -4.741698 
L 94.538778 -3.751295 
L 94.582041 -3.596164 
L 94.116523 -3.76945 
L 93.758604 -3.353979 
z
" clip-path="url(#p314f5ce215)" style="fill: #eeeeee; stroke: #000000; stroke-width: 0.3"/>
    <path d="M 122.168053 7.102919 
L 122.863554 5.884567 
L 122.571821 6.874554 
L 122.822513 7.448872 
L 122.478643 8.040514 
z
" clip-path="url(#p314f5ce215)" style="fill: #eeeeee; stroke: #000000; stroke-width: 0.3"/>
    <path d="M 121.48586 1.388242 
L 123.13606 0.415994 
L 123.476232 0.642498 
L 121.823442 1.19825 
L 121.736553 1.577001 
z
" clip-path="url(#p314f5ce215)" style="fill: #eeeeee; stroke: #000000; stroke-width: 0.3"/>
    <path d="M 121.359038 -0.506129 
L 122.060822 -0.031868 
L 121.458131 0.223934 
L 121.650031 -0.192358 
L 121.483275 -0.262089 
z
" clip-path="url(#p314f5ce215)" style="fill: #eeeeee; stroke: #000000; stroke-width: 0.3"/>
    <path d="M 119.75321 -1.94047 
L 120.036806 -1.852798 
L 119.809781 -1.706539 
L 119.895563 -1.443309 
L 119.798686 -1.4561 
z
" clip-path="url(#p314f5ce215)" style="fill: #eeeeee; stroke: #000000; stroke-width: 0.3"/>
    <path d="M 118.504188 2.039707 
L 119.150883 2.030222 
L 118.961573 1.784939 
L 119.433375 2.064671 
L 118.68352 2.41681 
z
" clip-path="url(#p314f5ce215)" style="fill: #eeeeee; stroke: #000000; stroke-width: 0.3"/>
    <path d="M 116.130387 0.988452 
L 117.342801 0.258799 
L 117.655612 0.490048 
L 116.769316 0.988452 
L 116.205445 1.115318 
z
" clip-path="url(#p314f5ce215)" style="fill: #eeeeee; stroke: #000000; stroke-width: 0.3"/>
    <path d="M 114.415851 3.210205 
L 114.757132 3.036919 
L 114.508661 2.587207 
L 114.949772 2.867349 
L 114.885808 3.28282 
z
" clip-path="url(#p314f5ce215)" style="fill: #eeeeee; stroke: #000000; stroke-width: 0.3"/>
    <path d="M 110.577098 -18.500499 
L 111.147253 -19.336181 
L 111.802085 -18.986932 
L 111.77361 -18.364136 
L 111.147253 -18.153308 
z
" clip-path="url(#p314f5ce215)" style="fill: #eeeeee; stroke: #000000; stroke-width: 0.3"/>
    <path d="M 110.211046 -9.572007 
L 110.324188 -10.026673 
L 111.302917 -9.226059 
L 110.803755 -8.986556 
L 110.759756 -9.408212 
z
" clip-path="url(#p314f5ce215)" style="fill: #eeeeee; stroke: #000000; stroke-width: 0.3"/>
    <path d="M 93.403643 -8.427092 
L 93.694268 -8.493516 
L 93.506431 -8.301462 
L 93.690197 -8.139522 
L 93.470569 -8.294653 
z
" clip-path="url(#p314f5ce215)" style="fill: #eeeeee; stroke: #000000; stroke-width: 0.3"/>
    <path d="M 117.208582 -2.66703 
L 117.653391 -3.284873 
L 118.961573 -3.53015 
L 118.364053 -2.947588 
z
" clip-path="url(#p314f5ce215)" style="fill: #eeeeee; stroke: #000000; stroke-width: 0.3"/>
    <path d="M 114.787823 -17.703388 
L 115.389037 -17.869865 
L 115.910754 -17.530101 
L 115.349472 -17.287709 
z
" clip-path="url(#p314f5ce215)" style="fill: #eeeeee; stroke: #000000; stroke-width: 0.3"/>
    <path d="M 114.325631 -0.471472 
L 115.163121 -1.045785 
L 115.411591 -0.140996 
L 114.816661 0.362563 
z
" clip-path="url(#p314f5ce215)" style="fill: #eeeeee; stroke: #000000; stroke-width: 0.3"/>
    <path d="M 114.012825 1.369265 
L 114.167381 0.988452 
L 114.632894 1.407223 
L 114.468356 1.704694 
z
" clip-path="url(#p314f5ce215)" style="fill: #eeeeee; stroke: #000000; stroke-width: 0.3"/>
    <path d="M 113.242261 -0.11624 
L 113.857528 -0.820726 
L 114.105262 -0.820726 
L 113.629021 0.023626 
z
" clip-path="url(#p314f5ce215)" style="fill: #eeeeee; stroke: #000000; stroke-width: 0.3"/>
    <path d="M 111.380566 -4.947168 
L 111.768803 -5.121894 
L 112.56303 -4.644125 
L 112.579668 -3.53015 
z
" clip-path="url(#p314f5ce215)" style="fill: #eeeeee; stroke: #000000; stroke-width: 0.3"/>
    <path d="M 109.480415 -2.746454 
L 109.543642 -3.322623 
L 109.93188 -3.53015 
L 110.02728 -3.21783 
z
" clip-path="url(#p314f5ce215)" style="fill: #eeeeee; stroke: #000000; stroke-width: 0.3"/>
    <path d="M 105.6143 -3.913028 
L 105.619476 -3.945621 
L 106.167076 -3.976978 
L 105.885325 -3.492608 
z
" clip-path="url(#p314f5ce215)" style="fill: #eeeeee; stroke: #000000; stroke-width: 0.3"/>
    <path d="M 105.541087 -4.606578 
L 105.947076 -4.952734 
L 105.636854 -5.059596 
L 106.291314 -4.880119 
z
" clip-path="url(#p314f5ce215)" style="fill: #eeeeee; stroke: #000000; stroke-width: 0.3"/>
    <path d="M 105.386162 -1.585446 
L 105.792151 -1.862496 
L 106.353433 -1.931395 
L 105.943009 -1.673327 
z
" clip-path="url(#p314f5ce215)" style="fill: #eeeeee; stroke: #000000; stroke-width: 0.3"/>
    <path d="M 103.23865 3.303657 
L 103.433879 3.044762 
L 104.157482 3.816291 
L 103.643525 4.32418 
z
" clip-path="url(#p314f5ce215)" style="fill: #eeeeee; stroke: #000000; stroke-width: 0.3"/>
    <path d="M 92.869723 -7.56129 
L 93.496821 -7.0043 
L 93.524918 -6.758607 
L 93.180312 -6.827921 
z
" clip-path="url(#p314f5ce215)" style="fill: #eeeeee; stroke: #000000; stroke-width: 0.3"/>
    <path d="M 125.312783 2.099328 
L 125.685122 1.750282 
L 125.68993 2.342548 
z
" clip-path="url(#p314f5ce215)" style="fill: #eeeeee; stroke: #000000; stroke-width: 0.3"/>
    <path d="M 124.217213 3.919437 
L 124.660545 3.788853 
L 124.670527 3.862497 
z
" clip-path="url(#p314f5ce215)" style="fill: #eeeeee; stroke: #000000; stroke-width: 0.3"/>
    <path d="M 123.209269 2.660648 
L 123.476232 2.587207 
L 123.805308 3.06601 
z
" clip-path="url(#p314f5ce215)" style="fill: #eeeeee; stroke: #000000; stroke-width: 0.3"/>
    <path d="M 122.449064 2.131512 
L 122.483082 1.976583 
L 122.759285 2.137697 
z
" clip-path="url(#p314f5ce215)" style="fill: #eeeeee; stroke: #000000; stroke-width: 0.3"/>
    <path d="M 121.170832 8.200802 
L 121.406363 7.936543 
L 121.891849 8.072074 
z
" clip-path="url(#p314f5ce215)" style="fill: #eeeeee; stroke: #000000; stroke-width: 0.3"/>
    <path d="M 120.826967 -0.977094 
L 121.17712 -1.000608 
L 121.177861 -0.550069 
z
" clip-path="url(#p314f5ce215)" style="fill: #eeeeee; stroke: #000000; stroke-width: 0.3"/>
    <path d="M 116.31896 -0.679415 
L 116.564845 -0.748522 
L 116.574459 -0.569872 
z
" clip-path="url(#p314f5ce215)" style="fill: #eeeeee; stroke: #000000; stroke-width: 0.3"/>
    <path d="M 116.164036 3.204015 
L 116.26128 2.982875 
L 116.658023 3.175548 
z
" clip-path="url(#p314f5ce215)" style="fill: #eeeeee; stroke: #000000; stroke-width: 0.3"/>
    <path d="M 115.724402 0.39722 
L 115.882284 0.500776 
L 115.834955 0.560189 
z
" clip-path="url(#p314f5ce215)" style="fill: #eeeeee; stroke: #000000; stroke-width: 0.3"/>
    <path d="M 115.149808 -8.149423 
L 115.602382 -8.056595 
L 115.320635 -7.834831 
z
" clip-path="url(#p314f5ce215)" style="fill: #eeeeee; stroke: #000000; stroke-width: 0.3"/>
    <path d="M 114.803353 0.671999 
L 114.946073 0.604748 
L 114.943488 0.784843 
z
" clip-path="url(#p314f5ce215)" style="fill: #eeeeee; stroke: #000000; stroke-width: 0.3"/>
    <path d="M 114.167381 -2.139339 
L 114.193261 -2.526135 
L 114.875822 -2.43392 
z
" clip-path="url(#p314f5ce215)" style="fill: #eeeeee; stroke: #000000; stroke-width: 0.3"/>
    <path d="M 113.078831 1.784939 
L 113.248181 1.473232 
L 113.6061 1.438575 
z
" clip-path="url(#p314f5ce215)" style="fill: #eeeeee; stroke: #000000; stroke-width: 0.3"/>
    <path d="M 112.890262 -0.090866 
L 113.103239 -0.264771 
L 112.986393 0.105113 
z
" clip-path="url(#p314f5ce215)" style="fill: #eeeeee; stroke: #000000; stroke-width: 0.3"/>
    <path d="M 112.703906 -3.492608 
L 113.950706 -3.042272 
L 113.754 -2.752639 
z
" clip-path="url(#p314f5ce215)" style="fill: #eeeeee; stroke: #000000; stroke-width: 0.3"/>
    <path d="M 112.66619 -12.9164 
L 112.987875 -12.955392 
L 112.703906 -12.558071 
z
" clip-path="url(#p314f5ce215)" style="fill: #eeeeee; stroke: #000000; stroke-width: 0.3"/>
    <path d="M 112.235803 -1.893848 
L 112.297181 -2.638766 
L 112.609251 -2.087763 
z
" clip-path="url(#p314f5ce215)" style="fill: #eeeeee; stroke: #000000; stroke-width: 0.3"/>
    <path d="M 112.049446 1.64631 
L 112.536037 1.853635 
L 112.60777 1.995565 
z
" clip-path="url(#p314f5ce215)" style="fill: #eeeeee; stroke: #000000; stroke-width: 0.3"/>
    <path d="M 111.226382 -3.127678 
L 111.482617 -3.250215 
L 111.491863 -3.060219 
z
" clip-path="url(#p314f5ce215)" style="fill: #eeeeee; stroke: #000000; stroke-width: 0.3"/>
    <path d="M 111.147253 -0.298394 
L 111.708534 0.206605 
L 111.457846 0.434762 
z
" clip-path="url(#p314f5ce215)" style="fill: #eeeeee; stroke: #000000; stroke-width: 0.3"/>
    <path d="M 110.992328 1.057766 
L 111.254111 1.091597 
L 111.224901 1.213718 
z
" clip-path="url(#p314f5ce215)" style="fill: #eeeeee; stroke: #000000; stroke-width: 0.3"/>
    <path d="M 110.597062 0.874989 
L 110.781569 0.731615 
L 110.831488 1.054668 
z
" clip-path="url(#p314f5ce215)" style="fill: #eeeeee; stroke: #000000; stroke-width: 0.3"/>
    <path d="M 110.148927 -0.679415 
L 110.594104 -1.084777 
L 110.64809 -0.710564 
z
" clip-path="url(#p314f5ce215)" style="fill: #eeeeee; stroke: #000000; stroke-width: 0.3"/>
    <path d="M 109.900825 -1.620104 
L 110.211046 -2.519945 
L 110.422174 -2.141813 
z
" clip-path="url(#p314f5ce215)" style="fill: #eeeeee; stroke: #000000; stroke-width: 0.3"/>
    <path d="M 108.439935 10.853915 
L 108.595232 10.753036 
L 108.843707 11.026578 
z
" clip-path="url(#p314f5ce215)" style="fill: #eeeeee; stroke: #000000; stroke-width: 0.3"/>
    <path d="M 108.433279 -11.92187 
L 108.656242 -11.863699 
L 108.516107 -11.696396 
z
" clip-path="url(#p314f5ce215)" style="fill: #eeeeee; stroke: #000000; stroke-width: 0.3"/>
    <path d="M 107.669008 0.741521 
L 107.724838 0.789172 
L 107.703393 0.799074 
z
" clip-path="url(#p314f5ce215)" style="fill: #eeeeee; stroke: #000000; stroke-width: 0.3"/>
    <path d="M 107.472669 -10.931467 
L 108.033951 -11.65823 
L 107.755898 -11.010683 
z
" clip-path="url(#p314f5ce215)" style="fill: #eeeeee; stroke: #000000; stroke-width: 0.3"/>
    <path d="M 106.353433 -11.242967 
L 107.287054 -10.821305 
L 106.942443 -10.58201 
z
" clip-path="url(#p314f5ce215)" style="fill: #eeeeee; stroke: #000000; stroke-width: 0.3"/>
    <path d="M 105.77773 -10.858852 
L 105.823211 -11.274531 
L 106.01585 -11.095673 
z
" clip-path="url(#p314f5ce215)" style="fill: #eeeeee; stroke: #000000; stroke-width: 0.3"/>
    <path d="M 105.728924 0.308306 
L 105.80879 0.423624 
L 105.79326 0.435796 
z
" clip-path="url(#p314f5ce215)" style="fill: #eeeeee; stroke: #000000; stroke-width: 0.3"/>
    <path d="M 105.667914 -2.696323 
L 105.961124 -2.751199 
L 106.073898 -2.696323 
z
" clip-path="url(#p314f5ce215)" style="fill: #eeeeee; stroke: #000000; stroke-width: 0.3"/>
    <path d="M 105.028984 5.730875 
L 105.188347 5.703645 
L 105.199811 5.884977 
z
" clip-path="url(#p314f5ce215)" style="fill: #eeeeee; stroke: #000000; stroke-width: 0.3"/>
    <path d="M 104.114591 -1.443725 
L 104.405584 -1.426807 
L 104.423331 -1.289004 
z
" clip-path="url(#p314f5ce215)" style="fill: #eeeeee; stroke: #000000; stroke-width: 0.3"/>
    <path d="M 98.008522 1.407223 
L 98.142741 1.229192 
L 98.132759 1.473232 
z
" clip-path="url(#p314f5ce215)" style="fill: #eeeeee; stroke: #000000; stroke-width: 0.3"/>
    <path d="M 97.782973 1.008254 
L 97.912386 0.988452 
L 97.853225 1.057766 
z
" clip-path="url(#p314f5ce215)" style="fill: #eeeeee; stroke: #000000; stroke-width: 0.3"/>
    <path d="M 94.116523 -7.904146 
L 94.290307 -8.17789 
L 94.178642 -7.904146 
z
" clip-path="url(#p314f5ce215)" style="fill: #eeeeee; stroke: #000000; stroke-width: 0.3"/>
    <path d="M 94.010773 -8.073924 
L 94.091379 -8.309508 
L 94.333566 -8.301462 
z
" clip-path="url(#p314f5ce215)" style="fill: #eeeeee; stroke: #000000; stroke-width: 0.3"/>
    <path d="M 92.529551 -8.008112 
L 93.173288 -9.430494 
L 93.308248 -8.299606 
z
" clip-path="url(#p314f5ce215)" style="fill: #eeeeee; stroke: #000000; stroke-width: 0.3"/>
    <path d="M 90.684122 -11.251631 
L 90.918916 -11.2178 
L 90.97253 -11.101245 
z
" clip-path="url(#p314f5ce215)" style="fill: #eeeeee; stroke: #000000; stroke-width: 0.3"/>
    <path d="M 98.276361 122.670651 
L 98.978859 121.125961 
L 100.358025 119.928405 
L 99.48272 117.668481 
L 100.117596 116.774703 
L 101.624494 115.846472 
L 101.091514 115.213247 
L 100.793797 113.799155 
L 102.216167 113.061786 
L 102.135869 112.207827 
L 103.494844 110.462717 
L 103.26193 108.740131 
L 104.115636 107.914472 
L 108.158279 107.828802 
L 108.144194 86.159103 
L 112.684128 86.125434 
L 112.687417 76.019834 
L 141.16227 76.024812 
L 141.956806 74.845594 
L 142.26814 75.118066 
L 142.012218 76.019834 
L 149.943625 76.019539 
L 151.669001 77.470981 
L 153.660127 77.17574 
L 154.046601 76.019311 
L 166.76594 76.017993 
L 166.785168 77.770024 
L 168.716746 80.773624 
L 168.439434 81.035409 
L 168.338491 80.417982 
L 167.771662 80.01406 
L 168.330726 83.271399 
L 168.090388 84.365565 
L 168.402459 88.284687 
L 169.268045 91.906748 
L 169.747244 92.646094 
L 170.360248 92.519019 
L 170.738913 93.088385 
L 171.499667 93.309449 
L 172.391797 94.180153 
L 172.183982 94.510614 
L 172.527266 95.011451 
L 173.229187 94.721386 
L 172.82542 95.171717 
L 173.616684 95.138916 
L 174.581737 96.205239 
L 172.898389 98.680119 
L 172.380907 98.57925 
L 172.185559 98.912504 
L 172.014632 98.566149 
L 169.548375 99.76266 
L 169.127629 101.193645 
L 167.17416 101.028329 
L 167.293436 102.145715 
L 166.73369 103.811448 
L 167.08682 105.004288 
L 165.799692 107.818845 
L 165.603871 109.225728 
L 164.68255 110.808412 
L 165.142743 115.218748 
L 164.528997 118.58597 
L 163.373349 121.460127 
L 163.312775 123.036783 
L 161.332068 123.352222 
L 159.649551 126.574168 
L 158.538047 127.612699 
L 158.539923 128.981072 
L 157.954352 130.480306 
L 158.018216 132.253848 
L 157.473968 133.137405 
L 157.091728 133.365602 
L 156.275593 132.351569 
L 154.933992 133.966999 
L 155.144834 135.700585 
L 153.98535 139.599124 
L 153.125389 139.372893 
L 153.542614 137.569881 
L 153.286924 135.949214 
L 150.85307 133.559999 
L 149.756828 133.087234 
L 149.498794 128.726547 
L 150.071216 125.627863 
L 147.901971 125.598519 
L 147.969592 126.680538 
L 144.950641 126.695342 
L 146.159816 128.199291 
L 146.161697 130.204823 
L 146.534078 131.347493 
L 144.31764 133.510482 
L 143.054225 135.747871 
L 140.780503 138.030458 
L 138.967201 138.2318 
L 135.549103 135.4627 
L 133.742848 136.539213 
L 133.735805 137.267674 
L 133.141547 138.04225 
L 130.555132 139.221732 
L 130.237124 140.258438 
L 126.608089 140.223648 
L 125.926391 138.885203 
L 122.224897 138.827301 
L 120.159199 139.466949 
L 116.886434 135.915023 
L 116.53683 134.706988 
L 113.122253 135.379646 
L 112.664877 136.999532 
L 111.847565 137.752358 
L 111.829954 139.265479 
L 111.319519 140.01097 
L 110.766116 142.477996 
L 108.747139 143.517835 
L 105.912263 143.259513 
L 106.26398 142.031437 
L 105.66526 141.807828 
L 105.840417 141.038494 
L 106.55794 140.496572 
L 106.615229 137.528227 
L 105.008784 134.60468 
L 103.054374 132.17407 
L 103.475121 130.491967 
L 103.29856 129.756038 
L 102.649126 129.720144 
L 101.603362 128.555076 
L 101.924556 126.325281 
L 101.223466 126.540109 
L 101.341334 125.859198 
L 100.83606 124.346473 
L 101.167118 123.596394 
L 100.072988 122.925698 
L 99.623127 123.397019 
L 98.851132 123.452036 
z
" clip-path="url(#p314f5ce215)" style="fill: #eeeeee; stroke: #000000; stroke-width: 0.3"/>
    <path d="M 168.400609 82.059642 
L 168.582895 81.914002 
L 168.450524 82.334426 
z
" clip-path="url(#p314f5ce215)" style="fill: #eeeeee; stroke: #000000; stroke-width: 0.3"/>
    <path d="M 29.184619 -41.133884 
L 31.482058 -41.923517 
L 31.719669 -42.692719 
L 30.911512 -43.200719 
L 30.823232 -43.857787 
L 29.999114 -44.551013 
L 31.089958 -45.300306 
L 31.687265 -45.053249 
L 33.448208 -45.59871 
L 34.823148 -45.269654 
L 36.035613 -46.322851 
L 35.929958 -47.057209 
L 37.34669 -47.971686 
L 37.523723 -46.872505 
L 39.208589 -46.134219 
L 39.022165 -45.593473 
L 39.490341 -45.410863 
L 39.622293 -44.799119 
L 40.087652 -44.770297 
L 40.363297 -45.166955 
L 40.086243 -45.878518 
L 41.098195 -46.851283 
L 41.359282 -48.200796 
L 42.051448 -48.205643 
L 42.51399 -47.193181 
L 44.249571 -47.560884 
L 44.964277 -46.794694 
L 45.342292 -47.009791 
L 45.037064 -47.346969 
L 45.259646 -47.721876 
L 44.739819 -47.941688 
L 44.768934 -48.381307 
L 45.493032 -48.857078 
L 46.637408 -48.405408 
L 46.705964 -48.840576 
L 46.297427 -49.088155 
L 46.682016 -50.061706 
L 49.149677 -49.578467 
L 49.956425 -50.565777 
L 52.502508 -50.600095 
L 54.527823 -51.18106 
L 54.283637 -50.287018 
L 54.918514 -50.080571 
L 55.547289 -49.178017 
L 61.435397 -48.314238 
L 59.91019 -47.151 
L 60.113989 -46.733653 
L 61.146603 -46.593747 
L 60.348783 -45.71163 
L 61.003383 -45.60526 
L 60.822125 -44.819029 
L 61.788759 -44.378366 
L 62.315632 -43.812727 
L 62.102442 -43.573533 
L 61.484517 -43.616859 
L 61.922302 -43.723924 
L 60.859636 -44.612626 
L 60.075764 -44.033775 
L 59.928973 -44.38447 
L 58.79273 -44.523099 
L 58.636697 -43.86379 
L 55.632098 -42.830273 
L 56.350153 -43.412424 
L 55.50971 -43.343318 
L 54.40896 -42.19861 
L 54.754307 -41.644921 
L 55.103353 -41.779012 
L 55.382887 -40.665038 
L 55.382887 -40.942088 
L 56.132742 -40.45751 
L 55.727125 -39.69939 
L 55.555931 -40.058338 
L 55.598081 -39.612129 
L 54.917369 -39.730539 
L 55.382887 -36.81049 
L 56.84932 -35.49208 
L 61.047473 -33.311377 
L 63.136566 -28.435891 
L 66.016554 -26.289636 
L 66.159647 -25.828988 
L 68.089008 -25.033945 
L 72.519367 -24.993924 
L 72.718663 -24.28263 
L 71.427123 -23.446329 
L 71.704435 -22.659534 
L 76.684243 -20.745153 
L 78.58772 -19.469036 
L 80.999974 -18.559288 
L 83.313138 -15.966211 
L 82.736327 -14.333002 
L 81.293188 -14.811805 
L 80.346255 -16.708447 
L 78.75115 -16.800038 
L 77.334264 -17.39168 
L 77.893328 -17.787557 
L 76.31597 -17.757847 
L 74.628796 -15.688543 
L 74.750811 -15.089058 
L 74.106339 -14.120729 
L 74.361465 -13.541052 
L 77.14569 -12.249872 
L 77.207809 -9.990368 
L 74.541906 -9.165616 
L 74.469064 -7.298268 
L 72.650996 -5.846801 
L 72.231699 -4.815966 
L 70.44728 -4.885073 
L 70.212859 -6.237516 
L 71.030748 -6.644739 
L 71.507729 -7.740761 
L 71.138715 -8.411 
L 72.574461 -8.826263 
L 72.888376 -9.463498 
L 70.856227 -14.708244 
L 70.174034 -15.654712 
L 69.200917 -15.229781 
L 68.524576 -15.409222 
L 67.915597 -16.120308 
L 66.933905 -16.485446 
L 67.329753 -17.275901 
L 66.347112 -18.656451 
L 64.350825 -18.153308 
L 64.948346 -18.959702 
L 64.130824 -19.512768 
L 63.010838 -19.263419 
L 62.891103 -19.933851 
L 61.530366 -21.609718 
L 60.722091 -21.377637 
L 59.549241 -21.829419 
L 58.453298 -21.483673 
L 57.767039 -22.354636 
L 56.593453 -22.598884 
L 54.793132 -24.062934 
L 53.799613 -25.364837 
L 52.923304 -25.573191 
L 52.154221 -26.816299 
L 50.87488 -27.462816 
L 49.648049 -27.3836 
L 50.019839 -27.834839 
L 49.88358 -28.259512 
L 48.907436 -29.16678 
L 47.942755 -29.478279 
L 48.089179 -30.055483 
L 46.889704 -30.168119 
L 47.019857 -31.720875 
L 46.061464 -32.967283 
L 45.763443 -34.762017 
L 45.031707 -35.668256 
L 43.914688 -36.090328 
L 43.858117 -35.754073 
L 41.124547 -37.332817 
L 41.033959 -37.08754 
L 38.996998 -37.730341 
L 37.650736 -37.082176 
L 35.840806 -35.015756 
L 33.271774 -34.486204 
L 33.160822 -34.857786 
L 34.124408 -35.880985 
L 33.968507 -36.432211 
L 32.537213 -36.166553 
L 30.868781 -36.804239 
L 30.243295 -38.247016 
L 30.807266 -39.003118 
L 31.240221 -39.011767 
L 31.012005 -39.737216 
L 29.832881 -40.14199 
z
M 55.765472 -24.912843 
L 55.770034 -24.906947 
L 55.769798 -24.912574 
z
M 55.50478 -35.278043 
L 55.880223 -35.118998 
L 55.89782 -35.451218 
z
" clip-path="url(#p314f5ce215)" style="fill: #eeeeee; stroke: #000000; stroke-width: 0.3"/>
    <path d="M 36.202423 -18.2678 
L 36.41022 -20.146494 
L 36.942664 -19.573002 
L 37.898098 -19.452944 
L 39.270244 -20.063152 
L 41.124547 -21.661704 
L 41.995681 -21.246441 
L 42.088859 -20.796515 
L 42.619081 -20.969594 
L 42.402406 -20.412609 
L 43.087185 -20.343502 
L 42.367649 -19.959596 
L 43.365978 -19.543917 
L 43.065739 -19.315552 
L 43.712806 -17.569712 
L 42.921538 -16.594158 
L 43.403694 -15.685861 
L 42.650141 -10.947143 
L 42.432725 -10.720639 
L 40.139902 -11.528473 
L 40.439401 -11.329194 
L 40.193515 -10.166747 
L 39.410012 -9.572007 
L 38.788829 -9.84885 
L 38.445331 -9.502693 
L 38.075581 -10.478039 
L 37.227 -11.316408 
L 37.550534 -14.028514 
L 37.881832 -13.750232 
L 38.103682 -13.744868 
L 37.824889 -13.848424 
L 38.055612 -14.513508 
L 37.325726 -14.81758 
L 37.246969 -15.431503 
L 37.759444 -15.790035 
L 37.259168 -17.636547 
L 36.857623 -18.278735 
z
" clip-path="url(#p314f5ce215)" style="fill: #eeeeee; stroke: #000000; stroke-width: 0.3"/>
    <path d="M 55.64726 -4.091678 
L 55.946758 -5.229374 
L 56.908476 -5.682595 
L 57.031973 -6.098066 
L 57.801429 -5.262997 
L 58.529465 -5.543966 
L 58.709165 -6.084448 
L 59.696032 -6.239377 
L 60.028807 -5.643811 
L 61.843545 -4.986981 
L 62.88735 -5.371095 
L 65.119168 -5.345721 
L 66.915418 -6.072281 
L 67.737005 -5.770885 
L 68.415132 -6.463199 
L 68.663602 -6.170265 
L 70.298272 -6.516422 
L 68.305683 -3.91138 
L 67.753644 -2.47167 
L 67.807997 -1.722833 
L 68.482426 -1.357492 
L 68.171096 -1.102724 
L 68.847737 -0.109842 
L 68.057208 0.33327 
L 67.764366 1.698504 
L 65.008243 0.9967 
L 64.060941 -0.274053 
L 61.503005 -0.919745 
L 59.041572 -2.519945 
L 56.702897 -2.916024 
z
" clip-path="url(#p314f5ce215)" style="fill: #eeeeee; stroke: #000000; stroke-width: 0.3"/>
    <path d="M 45.105285 -29.239811 
L 45.224347 -29.516237 
L 46.634577 -29.686223 
L 46.508122 -28.99391 
z
" clip-path="url(#p314f5ce215)" style="fill: #eeeeee; stroke: #000000; stroke-width: 0.3"/>
    <path d="M 42.062234 -21.272844 
L 42.233802 -21.526994 
L 42.23417 -21.239014 
L 42.186472 -21.205593 
z
" clip-path="url(#p314f5ce215)" style="fill: #eeeeee; stroke: #000000; stroke-width: 0.3"/>
    <path d="M 36.578089 -11.066588 
L 36.922695 -11.17056 
L 36.922695 -10.720639 
L 36.690495 -10.733633 
z
" clip-path="url(#p314f5ce215)" style="fill: #eeeeee; stroke: #000000; stroke-width: 0.3"/>
    <path d="M 68.187362 -9.12085 
L 68.301244 -9.229567 
L 68.325652 -9.039779 
z
" clip-path="url(#p314f5ce215)" style="fill: #eeeeee; stroke: #000000; stroke-width: 0.3"/>
    <path d="M 67.102515 -7.130553 
L 67.370954 -7.035454 
L 67.277776 -6.96655 
z
" clip-path="url(#p314f5ce215)" style="fill: #eeeeee; stroke: #000000; stroke-width: 0.3"/>
    <path d="M 66.996024 -7.769025 
L 67.243758 -7.592438 
L 67.184597 -7.419568 
z
" clip-path="url(#p314f5ce215)" style="fill: #eeeeee; stroke: #000000; stroke-width: 0.3"/>
    <path d="M 66.400725 -8.018637 
L 66.733133 -8.066907 
L 66.709097 -7.854842 
z
" clip-path="url(#p314f5ce215)" style="fill: #eeeeee; stroke: #000000; stroke-width: 0.3"/>
    <path d="M 65.258935 -8.095992 
L 65.356547 -8.084236 
L 65.300349 -7.967888 
z
" clip-path="url(#p314f5ce215)" style="fill: #eeeeee; stroke: #000000; stroke-width: 0.3"/>
    <path d="M 64.351566 -7.895274 
L 64.41701 -7.915284 
L 64.433649 -7.853605 
z
" clip-path="url(#p314f5ce215)" style="fill: #eeeeee; stroke: #000000; stroke-width: 0.3"/>
    <path d="M 62.108658 -18.886672 
L 62.170777 -19.125561 
L 62.63888 -18.986932 
z
" clip-path="url(#p314f5ce215)" style="fill: #eeeeee; stroke: #000000; stroke-width: 0.3"/>
    <path d="M 60.134925 -19.24459 
L 60.177816 -19.317408 
L 60.213314 -19.323598 
z
" clip-path="url(#p314f5ce215)" style="fill: #eeeeee; stroke: #000000; stroke-width: 0.3"/>
    <path d="M 58.948026 -8.643081 
L 59.094445 -8.758394 
L 59.14769 -8.711772 
z
" clip-path="url(#p314f5ce215)" style="fill: #eeeeee; stroke: #000000; stroke-width: 0.3"/>
    <path d="M 57.550364 5.714992 
L 57.6783 5.696015 
L 57.671644 5.767804 
z
" clip-path="url(#p314f5ce215)" style="fill: #eeeeee; stroke: #000000; stroke-width: 0.3"/>
    <path d="M 56.097616 7.469294 
L 56.231836 7.44619 
L 56.483636 7.608333 
z
" clip-path="url(#p314f5ce215)" style="fill: #eeeeee; stroke: #000000; stroke-width: 0.3"/>
    <path d="M 55.167689 -42.373752 
L 55.475325 -42.807373 
L 55.665007 -42.716811 
z
" clip-path="url(#p314f5ce215)" style="fill: #eeeeee; stroke: #000000; stroke-width: 0.3"/>
    <path d="M 55.163995 -42.788599 
L 55.359961 -42.889063 
L 55.352196 -42.830684 
z
" clip-path="url(#p314f5ce215)" style="fill: #eeeeee; stroke: #000000; stroke-width: 0.3"/>
    <path d="M 55.068599 -4.711376 
L 55.134785 -4.848768 
L 55.382887 -4.741698 
z
" clip-path="url(#p314f5ce215)" style="fill: #eeeeee; stroke: #000000; stroke-width: 0.3"/>
    <path d="M 53.845462 -5.041441 
L 53.950471 -5.082288 
L 54.067312 -4.86857 
z
" clip-path="url(#p314f5ce215)" style="fill: #eeeeee; stroke: #000000; stroke-width: 0.3"/>
    <path d="M 53.366263 0.902427 
L 53.941225 1.011965 
L 53.846202 1.26034 
z
" clip-path="url(#p314f5ce215)" style="fill: #eeeeee; stroke: #000000; stroke-width: 0.3"/>
    <path d="M 48.535837 -27.256936 
L 48.889943 -27.07636 
L 48.81528 -27.015867 
z
" clip-path="url(#p314f5ce215)" style="fill: #eeeeee; stroke: #000000; stroke-width: 0.3"/>
    <path d="M 45.957932 -27.063026 
L 46.055549 -27.127595 
L 46.043345 -27.042189 
z
" clip-path="url(#p314f5ce215)" style="fill: #eeeeee; stroke: #000000; stroke-width: 0.3"/>
    <path d="M 44.848681 -28.350282 
L 44.981052 -28.512424 
L 45.009889 -28.302215 
z
" clip-path="url(#p314f5ce215)" style="fill: #eeeeee; stroke: #000000; stroke-width: 0.3"/>
    <path d="M 43.718231 -30.509357 
L 43.742975 -30.806464 
L 43.902829 -30.59631 
z
" clip-path="url(#p314f5ce215)" style="fill: #eeeeee; stroke: #000000; stroke-width: 0.3"/>
    <path d="M 41.771609 -21.495637 
L 41.958706 -21.66067 
L 41.872552 -21.397856 
z
" clip-path="url(#p314f5ce215)" style="fill: #eeeeee; stroke: #000000; stroke-width: 0.3"/>
    <path d="M 37.105353 -10.685982 
L 37.731711 -10.54426 
L 37.395237 -9.996969 
z
" clip-path="url(#p314f5ce215)" style="fill: #eeeeee; stroke: #000000; stroke-width: 0.3"/>
    <path d="M 36.485651 -20.308845 
L 37.015133 -20.969594 
L 36.652779 -20.297909 
z
" clip-path="url(#p314f5ce215)" style="fill: #eeeeee; stroke: #000000; stroke-width: 0.3"/>
    <path d="M -56.536958 112.625965 
L -55.656723 112.831495 
L -54.520802 111.992081 
L -54.635616 110.577071 
L -54.096766 108.741313 
L -53.587036 108.741313 
L -53.175912 108.222701 
L -50.407953 110.963244 
L -49.54556 109.289395 
L -46.557132 109.635744 
L -43.632326 109.251533 
L -43.758645 108.502246 
L -43.325926 107.946959 
L -43.293054 108.972126 
L -25.853886 108.979462 
L -25.137535 104.833471 
L -26.364558 103.739142 
L -30.770663 60.816568 
L -22.721879 60.811848 
L 4.394354 80.55042 
L 4.430979 82.390377 
L 6.271751 83.106655 
L 7.263979 84.59319 
L 8.595719 85.054685 
L 9.184575 84.747236 
L 10.091344 85.849165 
L 13.71888 87.045803 
L 14.000627 89.236955 
L 13.288737 90.518609 
L 14.110043 91.227292 
L 18.397813 90.48455 
L 18.19495 104.305825 
L 17.634268 104.902639 
L 16.773988 107.861026 
L 15.20793 108.970554 
L 15.119645 109.690371 
L 12.968012 109.322926 
L 12.81634 109.765688 
L 5.23491 110.047068 
L 3.60921 111.529273 
L 2.229571 111.79048 
L 0.190403 111.505567 
L 0.177726 111.936278 
L -1.89032 111.152272 
L -2.749192 111.471766 
L -2.940782 111.079829 
L -4.084922 111.087165 
L -5.715316 112.517369 
L -8.524835 114.03953 
L -9.888508 114.16843 
L -10.065073 115.635963 
L -10.591942 115.763159 
L -11.999522 115.130589 
L -12.616085 115.427685 
L -13.842403 116.552012 
L -13.969425 118.320839 
L -14.752102 118.548377 
L -15.749146 118.087009 
L -15.575048 120.140227 
L -16.483339 120.277112 
L -16.487569 120.768737 
L -18.859904 119.663797 
L -18.61619 119.337752 
L -18.903694 119.094888 
L -20.58398 121.024701 
L -19.95157 122.541229 
L -20.159476 123.039404 
L -21.193618 123.071106 
L -20.748337 123.987282 
L -21.040888 124.487424 
L -20.834154 125.135584 
L -21.206885 125.068515 
L -21.535357 125.936487 
L -22.44776 126.660887 
L -23.938219 126.799481 
L -25.405902 127.563704 
L -24.837001 127.916604 
L -24.524258 129.623731 
L -25.043149 131.147859 
L -25.823363 131.395701 
L -25.492542 132.551598 
L -25.720757 134.12 
L -25.906714 134.676858 
L -27.521846 134.927454 
L -28.148272 135.871402 
L -29.16633 135.556755 
L -28.896319 134.703581 
L -29.263066 134.227678 
L -29.004795 133.641998 
L -29.23888 133.150901 
L -30.016042 133.355645 
L -30.102209 134.034199 
L -31.116278 133.517555 
L -31.115101 135.003694 
L -32.44332 135.085561 
L -32.691028 136.119767 
L -34.270471 135.555442 
L -34.897833 134.508794 
L -35.638133 134.61778 
L -36.385947 135.760972 
L -37.115915 136.012744 
L -37.145966 135.169791 
L -38.202766 134.687338 
L -38.505645 134.109258 
L -38.646757 131.643281 
L -39.460779 131.496565 
L -39.705197 131.908153 
L -40.326221 131.953082 
L -38.868166 129.900259 
L -40.146843 129.247384 
L -40.463812 128.4715 
L -41.012285 128.428533 
L -40.887611 126.630235 
L -41.352498 126.464397 
L -41.596915 124.825124 
L -42.375721 124.334422 
L -43.515399 124.295121 
L -43.111091 124.880669 
L -43.236705 125.326315 
L -44.560459 125.831689 
L -44.991305 126.565524 
L -47.462724 125.590138 
L -48.574464 126.095776 
L -49.481933 127.250106 
L -50.575826 125.581753 
L -51.031089 125.667686 
L -51.661977 126.621328 
L -52.313992 126.561595 
L -53.100545 125.722967 
L -52.559114 124.745218 
L -52.509808 124.259754 
L -52.918818 123.938814 
L -52.560055 121.773862 
L -53.215359 121.057711 
L -53.579053 119.795318 
L -54.161102 119.557037 
L -54.556019 120.066735 
L -55.78046 118.053345 
L -55.168355 117.41933 
L -55.325901 115.712334 
L -56.344313 114.571236 
L -56.086629 113.300589 
z
" clip-path="url(#p314f5ce215)" style="fill: #eeeeee; stroke: #000000; stroke-width: 0.3"/>
    <path d="M 60.292902 114.328899 
L 61.239582 113.772827 
L 62.039519 111.385574 
L 64.470556 107.684444 
L 69.45284 101.879276 
L 70.681739 86.624917 
L 71.746285 84.430753 
L 69.928526 82.32383 
L 69.810659 81.622224 
L 70.106027 81.31622 
L 68.176039 78.575805 
L 68.119218 76.029791 
L 67.246344 70.948435 
L 71.813434 68.671805 
L 108.144194 88.690444 
L 108.158279 107.828802 
L 104.115636 107.914472 
L 103.26193 108.740131 
L 103.494844 110.462717 
L 102.135869 112.207827 
L 102.216167 113.061786 
L 100.793797 113.799155 
L 101.091514 115.213247 
L 101.624494 115.846472 
L 100.117596 116.774703 
L 99.48272 117.668481 
L 100.358025 119.928405 
L 98.978859 121.125961 
L 98.276361 122.670651 
L 98.851132 123.452036 
L 99.623127 123.397019 
L 100.072988 122.925698 
L 101.167118 123.596394 
L 100.83606 124.346473 
L 101.341334 125.859198 
L 101.223466 126.540109 
L 101.924556 126.325281 
L 101.603362 128.555076 
L 102.649126 129.720144 
L 103.29856 129.756038 
L 103.332836 131.322737 
L 103.054374 132.17407 
L 101.173692 131.772966 
L 97.881908 133.605977 
L 97.864534 135.330129 
L 96.930531 135.817434 
L 96.299411 136.97032 
L 95.765964 136.956956 
L 93.808742 139.784217 
L 93.089805 140.37265 
L 92.516916 140.273221 
L 92.032306 141.203547 
L 85.611218 141.978777 
L 84.919988 142.667288 
L 86.075636 143.551108 
L 83.645536 146.730879 
L 79.331941 147.049461 
L 75.54099 149.287114 
L 74.671791 148.598081 
L 74.374078 147.632646 
L 73.663125 148.070693 
L 73.565921 148.633975 
L 71.541546 149.568488 
L 69.523273 149.390599 
L 69.895186 148.025896 
L 69.340138 147.787747 
L 68.172282 144.544441 
L 64.382271 141.050286 
L 62.556061 138.670501 
L 63.619667 136.944641 
L 66.304281 137.230736 
L 70.432859 136.878227 
L 67.936083 134.092755 
L 67.434099 130.838707 
L 67.953926 129.073028 
L 67.639774 128.313519 
L 67.841697 127.795045 
L 67.562294 126.265549 
L 66.874354 125.919722 
L 66.568653 123.559978 
L 65.314865 122.806365 
L 64.694078 121.213202 
L 63.089036 121.229187 
L 61.009958 118.054917 
z
" clip-path="url(#p314f5ce215)" style="fill: #eeeeee; stroke: #000000; stroke-width: 0.3"/>
    <path d="M -40.263298 49.200199 
L -40.246864 42.06491 
L -35.433866 38.533284 
L -34.207834 38.563616 
L -33.286976 37.925839 
L -31.635781 38.244725 
L -29.952833 37.642381 
L -26.967975 37.394356 
L -26.809207 37.854973 
L -25.983612 37.854973 
L -24.332414 35.55189 
L -20.680734 32.859054 
L -17.378341 31.831525 
L -17.44185 31.193747 
L -16.965541 30.591398 
L -17.768591 29.47394 
L -18.274805 29.505115 
L -18.149191 28.658628 
L -17.505354 28.394613 
L -17.44185 27.083625 
L -13.663152 26.339555 
L -14.167004 25.051554 
L -13.905562 24.911388 
L -12.246993 24.627915 
L -6.314036 24.843534 
L -6.247119 24.557703 
L -6.764838 24.44924 
L -6.467588 23.488652 
L -5.503766 22.791629 
L -7.281847 21.534341 
L -7.897237 20.564714 
L -7.62793 19.923104 
L -8.421761 19.021859 
L -8.163254 17.417431 
L -8.75141 16.667357 
L -8.400866 14.756925 
L -9.036915 13.270264 
L -8.552305 12.726638 
L -9.316317 12.133622 
L -8.854721 11.400051 
L -10.78236 10.070452 
L -10.913099 9.635969 
L -8.81661 9.431534 
L -6.697939 8.240412 
L -5.508078 6.628039 
L -4.457248 6.16512 
L -3.661172 6.423396 
L -2.993405 5.576368 
L -1.192348 6.061356 
L 0.740344 3.974723 
L 5.303808 2.255905 
L 9.869494 1.782673 
L 11.001671 1.995565 
L 12.511735 0.919548 
L 13.452381 1.258896 
L 13.848388 0.900571 
L 14.998679 1.078395 
L 16.786056 0.368753 
L 20.935403 0.479321 
L 23.285542 1.758946 
L 25.236349 0.799074 
L 27.341339 0.444253 
L 28.335229 -0.522221 
L 30.755988 0.506556 
L 32.047901 0.117078 
L 32.001312 -0.506129 
L 34.618041 -0.018459 
L 34.503785 0.506966 
L 35.117203 0.711812 
L 36.59251 0.161636 
L 38.270629 0.255752 
L 38.448802 0.778724 
L 37.410085 1.04464 
L 37.488506 1.659532 
L 36.305152 2.353017 
L 37.158389 2.836915 
L 36.630107 5.892237 
L 37.06447 7.361479 
L 36.870531 8.440614 
L 37.492732 8.863203 
L 36.898237 9.745583 
L 36.607567 11.875036 
L 34.767735 13.057661 
L 34.466733 13.917902 
L 33.340672 14.676756 
L 33.169741 15.696422 
L 34.283594 19.055132 
L 35.927609 19.75032 
L 36.818408 21.057911 
L 37.038173 22.623169 
L 40.281119 24.933919 
L 42.437918 34.277263 
L 41.378538 34.843946 
L 43.110361 37.423497 
L 43.830233 39.855942 
L 43.606711 44.220822 
L 44.321417 46.452452 
L 43.354074 49.167453 
L 44.196039 51.369738 
L 44.149082 52.407478 
L 43.873905 53.1607 
L 42.269336 53.929639 
L 41.793177 54.860492 
L 44.656232 59.106561 
L 44.765644 61.515162 
L 45.498666 62.0546 
L 45.720779 62.839519 
L 46.485259 63.457159 
L 47.796336 63.037191 
L 51.623445 64.34832 
L 53.565646 68.30358 
L 33.18289 81.712087 
L 25.511535 88.925319 
L 14.328867 91.329601 
L 13.288737 90.518609 
L 14.000627 89.236955 
L 13.71888 87.045803 
L 10.091344 85.849165 
L 9.184575 84.747236 
L 8.595719 85.054685 
L 7.263979 84.59319 
L 6.271751 83.106655 
L 4.430979 82.390377 
L 4.394354 80.55042 
L -22.721879 60.811848 
z
" clip-path="url(#p314f5ce215)" style="fill: #eeeeee; stroke: #000000; stroke-width: 0.3"/>
    <path d="M -0.119991 113.783043 
L 0.190403 111.505567 
L 3.498389 111.588615 
L 5.23491 110.047068 
L 12.81634 109.765688 
L 12.968012 109.322926 
L 15.119645 109.690371 
L 15.20793 108.970554 
L 16.659883 108.010621 
L 17.634268 104.902639 
L 18.19495 104.305825 
L 18.397813 90.48455 
L 25.511535 88.925319 
L 33.18289 81.712087 
L 53.565646 68.30358 
L 60.441761 70.015549 
L 63.776509 72.871764 
L 67.246344 70.948435 
L 68.119218 76.029791 
L 68.176039 78.575805 
L 70.106027 81.31622 
L 69.810659 81.622224 
L 69.928526 82.32383 
L 71.746285 84.430753 
L 70.681739 86.624917 
L 69.48195 101.767406 
L 64.470556 107.684444 
L 62.039519 111.385574 
L 61.239582 113.772827 
L 60.292902 114.328899 
L 61.009958 118.054917 
L 59.749595 118.027931 
L 59.287053 118.846127 
L 57.534098 119.144795 
L 57.365516 119.733618 
L 56.256361 120.393829 
L 55.854866 121.299267 
L 53.969018 121.03256 
L 51.162784 119.776975 
L 47.686924 119.722875 
L 45.164323 120.356627 
L 42.758644 122.631487 
L 38.619733 122.012012 
L 36.010724 120.105382 
L 34.733455 119.874042 
L 32.770594 121.054046 
L 31.890128 121.029416 
L 31.30174 121.64444 
L 30.703961 121.647847 
L 27.81907 118.259007 
L 27.093095 118.375725 
L 24.273245 117.161662 
L 22.936806 117.866153 
L 21.106838 117.71708 
L 19.415398 118.208705 
L 17.930577 119.226667 
L 17.762463 121.643655 
L 17.036957 122.890068 
L 15.730573 124.068236 
L 15.559647 127.17308 
L 15.846092 127.912675 
L 15.525366 128.236757 
L 12.108204 124.670292 
L 9.953286 125.496605 
L 10.350083 126.713548 
L 10.044855 127.218927 
L 8.507439 124.960838 
L 9.385089 124.544013 
L 8.767586 123.116952 
L 8.143509 123.022638 
L 7.562164 123.621545 
L 6.290534 123.489502 
L 3.653818 121.460523 
L 3.653818 119.756802 
L 4.949401 119.870113 
L 3.797983 119.263738 
L 3.26031 118.506982 
L 1.885369 118.132075 
L 0.862377 116.356697 
L 0.951598 115.279134 
z
" clip-path="url(#p314f5ce215)" style="fill: #eeeeee; stroke: #000000; stroke-width: 0.3"/>
    <path d="M 111.358026 34.511219 
L 112.353075 32.909676 
L 112.7494 31.457464 
L 112.086349 28.600468 
L 113.174376 27.257505 
L 113.4582 27.039726 
L 113.640117 27.673452 
L 114.598509 27.81703 
L 117.165319 27.24189 
L 123.3165 28.436317 
L 123.887396 29.236313 
L 124.859841 29.454158 
L 125.734669 29.14967 
L 126.071143 29.865913 
L 128.331062 29.944926 
L 131.074246 31.244765 
L 133.233221 30.58752 
L 135.806319 28.677265 
L 136.240773 29.268907 
L 136.802059 29.161635 
L 136.305482 28.9572 
L 136.911503 28.590622 
L 137.052747 27.84323 
L 137.146666 28.035285 
L 137.301222 28.12028 
L 137.135575 27.78877 
L 137.924622 28.016309 
L 139.914993 27.39331 
L 137.955681 28.327808 
L 138.826816 28.400215 
L 140.574996 27.867986 
L 139.933849 27.405685 
L 140.476274 27.286038 
L 142.563518 28.12028 
L 144.006288 27.652616 
L 144.181549 27.656124 
L 144.326491 27.726883 
L 145.483812 28.872002 
L 144.075058 27.670563 
L 143.933815 28.573293 
L 143.518216 28.924814 
L 144.242927 29.419911 
L 144.745788 29.268907 
L 144.650393 29.71862 
L 145.060816 30.097375 
L 145.865025 29.675714 
L 145.862808 29.023006 
L 145.517829 28.872002 
L 146.082808 28.991857 
L 147.31038 30.058794 
L 148.790126 29.579996 
L 147.605444 30.102734 
L 147.899763 30.17143 
L 148.789385 29.801141 
L 149.165792 30.082521 
L 149.412785 29.683968 
L 149.258229 29.857046 
L 148.913623 29.825892 
L 149.617629 29.372052 
L 149.726332 30.136981 
L 150.967217 29.579996 
L 151.390212 29.71862 
L 152.06464 29.773495 
L 154.574056 28.774682 
L 157.692988 38.023078 
L 157.010799 38.929525 
L 156.50165 41.846066 
L 155.527728 43.954981 
L 155.64013 45.701237 
L 154.636997 46.634499 
L 154.833336 46.953425 
L 152.588947 45.455752 
L 150.159682 42.690626 
L 149.928959 40.560463 
L 147.825813 38.195954 
L 147.202413 35.379871 
L 146.111278 37.503843 
L 147.217943 38.636176 
L 147.419088 40.645864 
L 148.243261 41.632348 
L 148.525013 42.642351 
L 151.639428 46.10227 
L 151.810622 46.635736 
L 151.271895 46.473796 
L 151.810622 47.368896 
L 151.375796 47.368896 
L 152.929859 49.417369 
L 152.922462 50.035004 
L 153.646433 51.171666 
L 153.429022 51.504002 
L 153.397962 52.403843 
L 156.14743 57.110996 
L 158.864425 63.32069 
L 160.451342 65.304537 
L 161.563332 65.94122 
L 161.808517 66.352006 
L 160.542662 65.972647 
L 160.406102 66.273444 
L 160.431364 68.406674 
L 160.695369 68.929007 
L 161.366753 71.27056 
L 162.233012 72.266429 
L 163.778352 72.774687 
L 164.749471 74.189165 
L 166.819308 75.660982 
L 166.76594 76.017993 
L 142.012218 76.019834 
L 142.26814 75.118066 
L 141.956806 74.845594 
L 141.16227 76.024812 
L 112.687417 76.019834 
L 112.687417 39.588058 
z
M 159.171256 72.010058 
L 161.029543 70.220263 
L 160.157737 71.036315 
z
M 157.196969 73.462549 
L 157.427179 72.919446 
L 157.580413 72.547869 
z
M 154.334191 75.02359 
L 156.763201 74.485906 
L 155.584944 74.732831 
z
" clip-path="url(#p314f5ce215)" style="fill: #eeeeee; stroke: #000000; stroke-width: 0.3"/>
    <path d="M 155.888237 45.597474 
L 156.094184 45.535586 
L 156.483162 45.981172 
L 156.018017 45.930221 
z
" clip-path="url(#p314f5ce215)" style="fill: #eeeeee; stroke: #000000; stroke-width: 0.3"/>
    <path d="M 153.271507 47.991895 
L 153.793597 48.102052 
L 153.897125 48.341352 
L 153.363204 48.139188 
z
" clip-path="url(#p314f5ce215)" style="fill: #eeeeee; stroke: #000000; stroke-width: 0.3"/>
    <path d="M 148.824143 29.617954 
L 149.596552 29.14967 
L 150.226976 29.256116 
L 149.58657 29.218366 
z
" clip-path="url(#p314f5ce215)" style="fill: #eeeeee; stroke: #000000; stroke-width: 0.3"/>
    <path d="M 156.76177 45.78676 
L 156.98944 45.794679 
L 156.865916 46.041949 
z
" clip-path="url(#p314f5ce215)" style="fill: #eeeeee; stroke: #000000; stroke-width: 0.3"/>
    <path d="M 153.460081 51.711738 
L 153.553259 51.711738 
L 153.68045 52.12659 
z
" clip-path="url(#p314f5ce215)" style="fill: #eeeeee; stroke: #000000; stroke-width: 0.3"/>
    <path d="M 150.346406 29.268907 
L 150.477668 29.289126 
L 151.282985 29.64931 
z
" clip-path="url(#p314f5ce215)" style="fill: #eeeeee; stroke: #000000; stroke-width: 0.3"/>
    <path d="M 148.983134 29.929037 
L 149.061523 29.943892 
L 149.071873 29.99567 
z
" clip-path="url(#p314f5ce215)" style="fill: #eeeeee; stroke: #000000; stroke-width: 0.3"/>
    <path d="M 147.805708 9.199859 
L 148.632612 9.201314 
L 148.759066 8.072074 
L 152.120843 8.267023 
L 156.35634 6.580591 
L 153.444551 8.509411 
L 153.209389 9.254952 
L 153.719969 9.76528 
L 153.101676 9.485431 
L 152.601568 9.928451 
L 151.577173 9.718338 
L 151.28697 10.074908 
L 150.999585 9.077773 
L 148.461481 9.687422 
z
" clip-path="url(#p314f5ce215)" style="fill: #eeeeee; stroke: #000000; stroke-width: 0.3"/>
    <path d="M 147.315696 9.204837 
L 147.391355 9.151391 
L 147.422291 9.251733 
z
" clip-path="url(#p314f5ce215)" style="fill: #eeeeee; stroke: #000000; stroke-width: 0.3"/>
    <path d="M 147.719186 9.157358 
L 148.461481 9.687422 
L 150.999585 9.077773 
L 151.240481 10.062852 
L 151.577173 9.718338 
L 152.353157 10.161886 
L 151.481377 9.865053 
L 151.20526 10.201446 
L 151.010385 9.275835 
L 148.330001 9.789863 
L 147.815336 9.410499 
z
" clip-path="url(#p314f5ce215)" style="fill: #eeeeee; stroke: #000000; stroke-width: 0.3"/>
    <path d="M 153.349615 9.829681 
L 153.719969 9.76528 
L 153.763914 9.799683 
z
" clip-path="url(#p314f5ce215)" style="fill: #eeeeee; stroke: #000000; stroke-width: 0.3"/>
    <path d="M 147.234213 9.214105 
L 147.422291 9.251733 
L 147.457513 9.307536 
z
" clip-path="url(#p314f5ce215)" style="fill: #eeeeee; stroke: #000000; stroke-width: 0.3"/>
    <path d="M 148.030657 11.766258 
L 148.483135 11.606721 
L 149.258229 12.276084 
L 148.852245 12.276084 
L 148.728007 11.829256 
z
" clip-path="url(#p314f5ce215)" style="fill: #eeeeee; stroke: #000000; stroke-width: 0.3"/>
    <path d="M 149.943625 76.019539 
L 150.903317 76.019311 
L 154.046601 76.019311 
L 153.660127 77.17574 
L 151.657915 77.461658 
z
" clip-path="url(#p314f5ce215)" style="fill: #eeeeee; stroke: #000000; stroke-width: 0.3"/>
    <path d="M 64.257279 5.155117 
L 65.284078 5.576368 
L 65.1909 6.026699 
L 64.722797 5.912826 
z
" clip-path="url(#p314f5ce215)" style="fill: #eeeeee; stroke: #000000; stroke-width: 0.3"/>
    <path d="M 63.634247 4.843415 
L 64.224371 4.759864 
L 64.312742 4.844652 
z
" clip-path="url(#p314f5ce215)" style="fill: #eeeeee; stroke: #000000; stroke-width: 0.3"/>
   </g>
   <g id="PatchCollection_2">
    <defs>
     <path id="m19fb95fe50" d="M 41.378538 -73.156054 
L 44.03544 -74.362781 
L 45.4935 -76.269542 
L 45.847565 -77.204319 
L 45.102804 -79.807977 
L 45.819391 -81.082031 
L 46.886755 -81.405591 
L 47.373241 -82.466647 
L 48.131619 -82.724711 
L 48.587587 -83.394879 
L 51.645985 -84.903548 
L 51.207865 -85.936178 
L 51.458602 -88.690444 
L 55.289709 -86.923326 
L 57.452751 -86.779749 
L 59.848739 -87.286193 
L 60.847064 -86.771911 
L 63.636096 -86.324257 
L 64.927268 -85.333235 
L 68.16444 -84.706936 
L 68.993792 -83.587598 
L 68.978262 -82.526025 
L 69.565796 -81.002769 
L 70.797434 -79.599785 
L 72.083799 -79.028975 
L 76.160673 -78.561315 
L 80.280438 -77.244969 
L 81.914739 -76.462093 
L 83.935797 -74.703259 
L 85.769763 -73.911719 
L 88.312169 -74.698514 
L 90.508861 -77.302526 
L 90.72147 -78.731093 
L 89.679141 -81.481162 
L 90.380189 -83.596262 
L 92.611634 -85.530035 
L 94.830143 -86.617191 
L 96.4833 -86.724255 
L 97.43023 -87.451022 
L 99.821778 -87.507749 
L 104.167832 -85.945714 
L 104.362321 -85.125708 
L 104.051732 -84.395437 
L 105.104043 -83.526947 
L 105.044514 -83.838452 
L 106.728358 -83.630919 
L 108.64108 -82.731078 
L 111.562856 -82.869915 
L 112.854023 -82.443508 
L 113.482603 -80.993694 
L 112.086349 -79.399532 
L 112.7494 -76.542536 
L 111.356617 -73.293076 
L 112.687417 -68.411942 
L 112.667226 -21.84365 
L 108.144194 -21.840897 
L 108.144194 -19.309556 
L 71.813434 -39.328195 
L 63.776509 -35.128236 
L 60.441761 -37.984451 
L 53.565646 -39.69642 
L 51.474586 -43.734338 
L 47.894481 -44.943422 
L 46.485259 -44.542841 
L 45.802957 -45.066821 
L 45.498666 -45.9454 
L 44.765644 -46.484838 
L 44.656232 -48.893439 
L 41.793177 -53.139508 
L 42.269336 -54.070361 
L 43.959368 -54.941477 
L 44.213882 -56.557429 
L 43.356423 -58.916645 
L 44.328932 -61.746924 
L 43.606711 -63.779178 
L 43.830233 -68.144058 
L 43.110361 -70.576503 
z
" style="stroke: #dd0000; stroke-width: 0.5"/>
    </defs>
    <g clip-path="url(#p314f5ce215)">
     <use xlink:href="#m19fb95fe50" x="0" y="108" style="fill: #ff6b6b; stroke: #dd0000; stroke-width: 0.5"/>
    </g>
   </g>
  </g>
 </g>
 <defs>
  <clipPath id="p314f5ce215">
   <rect x="0" y="0" width="154.86114" height="108"/>
  </clipPath>
 </defs>
</svg>
