<?xml version="1.0" encoding="utf-8" standalone="no"?>
<!DOCTYPE svg PUBLIC "-//W3C//DTD SVG 1.1//EN"
  "http://www.w3.org/Graphics/SVG/1.1/DTD/svg11.dtd">
<svg xmlns:xlink="http://www.w3.org/1999/xlink" width="111.527089pt" height="108pt" viewBox="0 0 111.527089 108" xmlns="http://www.w3.org/2000/svg" version="1.1">
 <metadata>
  <rdf:RDF xmlns:dc="http://purl.org/dc/elements/1.1/" xmlns:cc="http://creativecommons.org/ns#" xmlns:rdf="http://www.w3.org/1999/02/22-rdf-syntax-ns#">
   <cc:Work>
    <dc:type rdf:resource="http://purl.org/dc/dcmitype/StillImage"/>
    <dc:date>2025-09-05T15:49:28.977208</dc:date>
    <dc:format>image/svg+xml</dc:format>
    <dc:creator>
     <cc:Agent>
      <dc:title>Matplotlib v3.10.3, https://matplotlib.org/</dc:title>
     </cc:Agent>
    </dc:creator>
   </cc:Work>
  </rdf:RDF>
 </metadata>
 <defs>
  <style type="text/css">*{stroke-linejoin: round; stroke-linecap: butt}</style>
 </defs>
 <g id="figure_1">
  <g id="patch_1">
   <path d="M 0 108 
L 111.527089 108 
L 111.527089 0 
L 0 0 
z
" style="fill: #ffffff"/>
  </g>
  <g id="axes_1">
   <g id="PatchCollection_1">
    <path d="M -190.833355 105.207546 
L -190.746654 99.068373 
L -186.192256 95.22567 
L -172.826906 91.601624 
L -170.055353 95.22567 
L -169.112726 91.58733 
L -164.004938 93.357911 
L -162.429609 87.76893 
L -155.956773 86.704298 
L -155.748328 89.448058 
L -152.82273 86.738611 
L -153.593791 90.648464 
L -150.934734 88.489173 
L -143.549713 99.461367 
L -135.246998 92.804875 
L -135.56982 95.22567 
L -132.926449 96.903358 
L -129.269457 94.506866 
L -127.63601 99.30129 
L -128.733588 94.746947 
L -126.850193 92.804875 
L -124.540705 92.327592 
L -123.458835 95.707272 
L -113.497786 94.746947 
L -117.964576 91.098598 
L -119.082418 87.508865 
L -116.92974 81.035313 
L -118.870301 81.19964 
L -119.252126 74.63604 
L -117.846527 74.298782 
L -123.922759 68.741268 
L -125.468576 63.572394 
L -124.444801 60.451374 
L -126.614095 56.787326 
L -119.167283 59.388182 
L -111.378292 57.791937 
L -110.578648 60.2999 
L -112.357798 62.617794 
L -108.20091 70.085983 
L -104.065216 68.441167 
L -87.723562 72.381012 
L -73.425762 66.341896 
L -71.570044 64.882831 
L -76.926873 65.920314 
L -81.012768 63.42949 
L -77.402811 56.604421 
L -55.067908 47.835804 
L -48.272249 39.558798 
L -44.83753 40.336182 
L -47.807396 37.338083 
L -46.246846 34.079848 
L -47.497517 32.882322 
L -46.921981 16.585531 
L -25.587346 8.903355 
L -23.623257 13.342995 
L -24.11522 17.406499 
L -19.582107 21.693261 
L -11.818434 19.736825 
L -8.604264 28.591626 
L -0.960046 30.362945 
L 1.047631 36.624301 
L 7.993708 35.0145 
L 12.397982 38.01994 
L 10.769817 42.597075 
L 12.679098 44.985454 
L 10.903348 47.97639 
L 22.558229 47.642467 
L 26.404943 41.43193 
L 27.681703 42.188734 
L 25.688078 48.562615 
L 27.416976 50.141545 
L 27.163967 54.32667 
L 36.4621 57.938283 
L 40.924946 64.695079 
L 47.503206 62.921969 
L 52.361953 66.7187 
L 62.381664 65.871146 
L 69.431986 76.638836 
L 73.979153 74.960059 
L 76.884078 78.439199 
L 82.138748 78.529949 
L 85.22408 76.28493 
L 90.312397 80.89111 
L 103.126918 83.673326 
L 94.285615 95.738669 
L 92.936207 105.349361 
L 89.19494 112.782219 
L 89.998483 118.341208 
L 87.522257 127.617065 
L 89.203146 131.92641 
L 84.500189 137.333961 
L 75.314484 135.28133 
L 72.89683 140.019983 
L 76.748213 140.885694 
L 68.335609 151.710559 
L 63.285939 154.419269 
L 62.981386 160.858473 
L 55.936913 167.087132 
L 54.482104 172.848483 
L 56.31409 174.569896 
L 55.384044 178.691489 
L 52.228422 180.55721 
L 52.319792 182.996408 
L 56.433568 182.303137 
L 59.626658 179.147032 
L 58.106251 176.499115 
L 59.352547 174.407466 
L 64.199575 171.823994 
L 71.09295 173.032688 
L 70.2613 175.44379 
L 72.013635 178.11436 
L 70.608014 182.254109 
L 76.420245 190.203303 
L 71.40453 193.673347 
L 71.294414 197.477348 
L 79.56179 208.266847 
L 77.176935 215.194257 
L 66.914755 219.065372 
L 70.14885 225.936519 
L 76.080536 228.947438 
L 77.169885 233.765919 
L 75.009931 233.825833 
L 72.196353 239.063578 
L 74.05647 242.495517 
L 72.885111 244.749597 
L 75.530001 249.328559 
L 83.422535 253.419315 
L 90.780945 251.635283 
L 91.558715 255.453789 
L 86.751513 262.541803 
L 86.718442 266.084721 
L 79.356496 269.943158 
L 79.06849 273.481546 
L 75.06032 273.970172 
L 73.517631 277.920448 
L 69.825597 278.61516 
L 66.646469 283.495066 
L 68.969422 283.351951 
L 68.661763 285.86023 
L 61.76127 289.74845 
L 57.631968 289.118675 
L 57.334442 291.677212 
L 51.913805 288.232033 
L 50.002439 291.364397 
L 45.861508 286.621073 
L 38.450806 285.356397 
L 37.253833 280.454576 
L 31.357009 281.156838 
L 31.178212 278.563112 
L 35.716018 276.070882 
L 31.246462 273.321398 
L 31.7445 277.862886 
L 27.597767 278.13728 
L 27.316765 280.935476 
L 25.096426 278.105848 
L 24.747786 274.518924 
L 23.663151 272.601154 
L 24.749645 278.098683 
L 26.512112 280.774731 
L 6.852949 273.975897 
L -12.163448 289.205211 
L -13.799637 305.966431 
L -10.645987 312.905149 
L -16.250793 311.54456 
L -22.405046 316.152531 
L -31.126894 313.005522 
L -37.513075 315.813165 
L -43.939081 310.719694 
L -43.716514 306.640737 
L -50.351033 307.14889 
L -52.316551 303.170694 
L -64.322837 298.852183 
L -67.872025 298.613506 
L -68.160167 304.020039 
L -83.631297 303.996438 
L -90.065509 298.470146 
L -95.646968 300.923849 
L -99.968078 294.817688 
L -108.814073 292.737839 
L -111.899405 289.104417 
L -115.777716 291.355792 
L -114.561862 284.392982 
L -119.511979 284.264126 
L -123.468786 279.790454 
L -120.398573 278.90181 
L -116.225071 272.566877 
L -111.246393 238.289882 
L -109.643411 234.447179 
L -106.430056 234.30856 
L -109.319682 230.485875 
L -111.317409 235.783359 
L -107.348679 202.713899 
L -100.115844 211.246684 
L -98.977692 217.974611 
L -94.867838 226.387391 
L -96.262398 221.833049 
L -93.940919 222.76907 
L -97.618197 219.217899 
L -100.779917 205.942106 
L -111.021356 197.766562 
L -109.128758 194.366864 
L -105.124963 197.505023 
L -108.854828 192.209014 
L -106.5195 186.215624 
L -110.194036 181.448313 
L -107.926051 176.948266 
L -110.858109 177.595635 
L -123.445009 170.21033 
L -126.040395 163.282359 
L -130.774677 158.780872 
L -127.872132 151.215541 
L -133.548089 147.454281 
L -131.827035 146.562581 
L -131.721905 142.934215 
L -121.895497 145.056349 
L -128.312074 141.229379 
L -134.392931 143.804527 
L -140.367729 141.91819 
L -137.969681 141.675229 
L -140.694224 138.998654 
L -136.964358 137.579626 
L -139.296898 135.207402 
L -136.331656 134.681513 
L -142.407889 134.201351 
L -141.668199 133.875541 
L -141.157218 133.003825 
L -146.604444 134.925879 
L -148.692567 132.846627 
L -144.88892 133.095278 
L -143.691766 131.231804 
L -143.586614 130.578745 
L -144.097572 129.88565 
L -148.923157 131.543354 
L -150.175664 129.145423 
L -149.388011 132.763744 
L -153.543969 131.429003 
L -153.734893 135.663261 
L -155.296395 129.995681 
L -153.42499 126.746051 
L -155.128523 126.244465 
L -155.831334 129.405487 
L -158.87038 127.96788 
L -157.155785 128.185098 
L -158.87038 127.487718 
L -157.155785 124.806823 
L -160.869036 127.713505 
L -176.412905 120.010959 
L -177.614683 123.89226 
L -181.844445 124.109478 
L -183.268495 118.193247 
L -189.921193 115.912476 
L -179.885433 113.285912 
L -182.013223 109.17742 
L -186.052991 111.115208 
L -187.613541 107.25677 
L -185.808573 105.1575 
L -185.102068 106.9481 
L -179.522037 107.209604 
L -177.666318 106.537967 
L -183.70107 105.559064 
L -179.987797 102.180824 
z
M -38.604759 312.211527 
L -37.426396 312.469238 
L -38.398604 311.138923 
z
" clip-path="url(#pe8623577ac)" style="fill: #eeeeee; stroke: #000000; stroke-width: 0.3"/>
    <path d="M -1320.709704 1721.405336 
L -1315.277008 1715.873566 
L -1310.620904 1702.904406 
L -1311.549772 1693.2692 
L -1306.831606 1681.750151 
L -1306.645352 1675.8427 
L -1312.226811 1666.966089 
L -1315.978641 1655.897139 
L -1317.795395 1630.911629 
L -1313.819842 1619.573168 
L -1308.14801 1612.173217 
L -1305.267429 1601.347263 
L -1281.7504 1613.256392 
L -1270.246209 1631.159472 
L -1267.755952 1629.919064 
L -1269.146795 1637.17576 
L -1266.686051 1631.878276 
L -1261.984998 1638.266099 
L -1260.312813 1646.678879 
L -1262.478434 1650.908817 
L -1259.990013 1648.859593 
L -1259.370209 1639.595115 
L -1256.929751 1641.105596 
L -1253.473816 1657.273778 
L -1269.48324 1692.41982 
L -1270.706121 1701.349041 
L -1277.082917 1719.764665 
L -1283.663557 1726.779207 
L -1290.18209 1725.989707 
L -1289.404319 1724.049601 
L -1291.895777 1720.585 
L -1296.150088 1724.187553 
L -1301.431686 1719.915295 
L -1309.290899 1728.850697 
z
" clip-path="url(#pe8623577ac)" style="fill: #eeeeee; stroke: #000000; stroke-width: 0.3"/>
    <path d="M 111.032644 314.815052 
L 113.535821 312.961587 
L 114.661053 307.718434 
L 123.924822 302.350955 
L 127.876053 304.361617 
L 129.111945 292.807799 
L 131.771931 293.287961 
L 131.292322 305.562023 
L 133.223657 308.267185 
L 133.93753 322.911996 
L 130.392127 329.711393 
L 130.357084 338.368503 
L 127.876053 341.179448 
L 129.200504 342.767088 
L 126.02956 347.437221 
L 126.311786 350.096658 
L 116.533364 343.468753 
L 119.501371 338.782921 
L 113.4362 336.842288 
L 116.843266 331.327621 
L 112.510188 331.543399 
L 111.87565 329.148347 
L 115.472687 326.071613 
L 111.410796 320.734127 
L 114.175912 318.47341 
z
" clip-path="url(#pe8623577ac)" style="fill: #eeeeee; stroke: #000000; stroke-width: 0.3"/>
    <path d="M -1470.406178 1281.693098 
L -1462.695592 1284.123902 
L -1464.01449 1288.018021 
L -1461.13409 1295.197523 
L -1462.498208 1297.089584 
L -1462.451174 1294.705946 
L -1467.008337 1295.031756 
L -1467.831056 1293.279753 
L -1465.340799 1291.579202 
L -1469.04852 1287.999443 
z
" clip-path="url(#pe8623577ac)" style="fill: #eeeeee; stroke: #000000; stroke-width: 0.3"/>
    <path d="M 1169.042138 2541.670422 
L 1170.447759 2537.526177 
L 1177.042339 2536.228629 
L 1183.301199 2546.140441 
L 1182.338286 2552.656874 
L 1176.9667 2553.54861 
L 1171.857053 2550.158921 
z
" clip-path="url(#pe8623577ac)" style="fill: #eeeeee; stroke: #000000; stroke-width: 0.3"/>
    <path d="M 938.226101 2249.074169 
L 939.32182 2247.27644 
L 941.812077 2249.934437 
L 941.487418 2258.571564 
L 939.465709 2259.046002 
L 938.679892 2256.102198 
L 940.356656 2256.290828 
z
" clip-path="url(#pe8623577ac)" style="fill: #eeeeee; stroke: #000000; stroke-width: 0.3"/>
    <path d="M -1477.766288 1231.159348 
L -1475.915193 1223.162426 
L -1473.720989 1228.931468 
L -1469.138915 1232.296854 
L -1475.906897 1234.076005 
z
" clip-path="url(#pe8623577ac)" style="fill: #eeeeee; stroke: #000000; stroke-width: 0.3"/>
    <path d="M -1483.504965 1230.217602 
L -1482.156532 1228.352689 
L -1477.935995 1231.153624 
L -1478.260654 1240.005089 
L -1481.183486 1242.967507 
z
" clip-path="url(#pe8623577ac)" style="fill: #eeeeee; stroke: #000000; stroke-width: 0.3"/>
    <path d="M -118.014375 178.736021 
L -112.399301 180.310807 
L -111.794253 182.092837 
L -116.845804 180.285099 
z
" clip-path="url(#pe8623577ac)" style="fill: #eeeeee; stroke: #000000; stroke-width: 0.3"/>
    <path d="M -1472.957318 1243.571994 
L -1471.512959 1240.856822 
L -1469.828806 1243.56771 
L -1471.662379 1245.615529 
z
" clip-path="url(#pe8623577ac)" style="fill: #eeeeee; stroke: #000000; stroke-width: 0.3"/>
    <path d="M 943.512844 2252.812531 
L 943.667795 2250.65468 
L 943.667795 2252.812531 
z
" clip-path="url(#pe8623577ac)" style="fill: #eeeeee; stroke: #000000; stroke-width: 0.3"/>
    <path d="M 131.602224 305.321942 
L 132.181432 306.280826 
L 132.061524 306.316544 
z
" clip-path="url(#pe8623577ac)" style="fill: #eeeeee; stroke: #000000; stroke-width: 0.3"/>
    <path d="M 57.019757 292.950702 
L 57.222671 292.623453 
L 58.969566 292.846361 
z
" clip-path="url(#pe8623577ac)" style="fill: #eeeeee; stroke: #000000; stroke-width: 0.3"/>
    <path d="M -114.594412 185.711158 
L -111.028723 187.516052 
L -110.158063 194.10536 
z
" clip-path="url(#pe8623577ac)" style="fill: #eeeeee; stroke: #000000; stroke-width: 0.3"/>
    <path d="M -134.784003 151.2927 
L -132.616546 151.60281 
L -131.314241 155.624135 
z
" clip-path="url(#pe8623577ac)" style="fill: #eeeeee; stroke: #000000; stroke-width: 0.3"/>
    <path d="M -136.762373 162.199149 
L -134.842099 162.286317 
L -134.178955 163.085159 
z
" clip-path="url(#pe8623577ac)" style="fill: #eeeeee; stroke: #000000; stroke-width: 0.3"/>
    <path d="M -156.690003 138.998654 
L -152.26841 141.853885 
L -155.814719 141.495168 
z
" clip-path="url(#pe8623577ac)" style="fill: #eeeeee; stroke: #000000; stroke-width: 0.3"/>
    <path d="M -199.09366 101.241957 
L -198.163953 100.453124 
L -198.077252 101.632072 
z
" clip-path="url(#pe8623577ac)" style="fill: #eeeeee; stroke: #000000; stroke-width: 0.3"/>
    <path d="M -1467.508256 1230.456244 
L -1466.318447 1229.084381 
L -1466.986214 1230.567715 
z
" clip-path="url(#pe8623577ac)" style="fill: #eeeeee; stroke: #000000; stroke-width: 0.3"/>
    <path d="M -1478.933952 1245.998514 
L -1478.576994 1245.368283 
L -1478.627722 1246.035671 
z
" clip-path="url(#pe8623577ac)" style="fill: #eeeeee; stroke: #000000; stroke-width: 0.3"/>
    <path d="M -1479.900538 1246.337177 
L -1479.396018 1246.097096 
L -1479.656121 1246.555835 
z
" clip-path="url(#pe8623577ac)" style="fill: #eeeeee; stroke: #000000; stroke-width: 0.3"/>
    <path d="M 50.038003 11.298513 
L 56.590513 6.630627 
L 54.535983 4.54263 
L 57.963336 -1.637072 
L 57.635368 -5.910208 
L 51.698968 -16.667923 
L 56.792 -17.595305 
L 56.131349 -19.515463 
L 61.072082 -16.859398 
L 70.111359 -19.922891 
L 71.594297 -22.42383 
L 68.663577 -25.265926 
L 76.516285 -31.242318 
L 77.01294 -35.963762 
L 75.314484 -38.994593 
L 69.455401 -39.352116 
L 68.478501 -42.166116 
L 69.959082 -45.432885 
L 76.338236 -45.127094 
L 80.290351 -58.192412 
L 80.330471 -66.867645 
L 81.69366 -69.484199 
L 84.228186 -68.896885 
L 76.45488 -71.482007 
L 77.085746 -76.265017 
L 79.133295 -77.128164 
L 77.886319 -78.873002 
L 81.044344 -81.669653 
L 99.298882 -83.130123 
L 102.394187 -77.69121 
L 100.331882 -74.723068 
L 103.240888 -72.686698 
L 105.729308 -74.941726 
L 103.827485 -76.708022 
L 104.722126 -79.786161 
L 111.100894 -77.353952 
L 109.693437 -75.344729 
L 110.019931 -70.837518 
L 111.410796 -77.462543 
L 109.6049 -82.861489 
L 111.905162 -88.832016 
L 126.02956 -88.886312 
L 134.454018 -79.028795 
L 140.113384 -77.353952 
L 134.483531 -79.771902 
L 130.211359 -87.447265 
L 127.097603 -89.363594 
L 120.905157 -89.766598 
L 119.350115 -91.184221 
L 117.475968 -94.662483 
L 121.191077 -94.44386 
L 121.668828 -96.820334 
L 117.011114 -99.721291 
L 120.418158 -104.537173 
L 113.965609 -102.836622 
L 112.183693 -105.255977 
L 121.515736 -111.165078 
L 114.198035 -119.206287 
L 113.564381 -124.861119 
L 126.785774 -121.540897 
L 134.398688 -123.806356 
L 139.925225 -119.959403 
L 142.730915 -120.75965 
L 144.33392 -118.010166 
L 142.321414 -117.049876 
L 144.80614 -116.801191 
L 144.529445 -113.048535 
L 140.296011 -110.074704 
L 147.170981 -110.656328 
L 148.541537 -109.573118 
L 147.134079 -104.775815 
L 151.136945 -108.951492 
L 160.496641 -104.277074 
L 169.658976 -106.935105 
L 168.096568 -105.97622 
L 168.096568 -99.841332 
L 160.979946 -95.142646 
L 164.368538 -92.02591 
L 170.555453 -94.015149 
L 176.961898 -90.086717 
L 182.220965 -98.833876 
L 191.252308 -100.198609 
L 191.331642 -97.38626 
L 191.861051 -96.820334 
L 191.722692 -99.809899 
L 201.355411 -110.530563 
L 210.134041 -108.607069 
L 203.40296 -108.235533 
L 201.20046 -106.456383 
L 199.193485 -106.992281 
L 197.614484 -102.836622 
L 204.686815 -107.812546 
L 208.626985 -105.950512 
L 212.120729 -108.767146 
L 214.526121 -103.216727 
L 222.882352 -96.588857 
L 228.058413 -99.48121 
L 230.238767 -97.05901 
L 228.833146 -94.662483 
L 232.457859 -91.382861 
L 230.474889 -89.097805 
L 230.441681 -88.217519 
L 240.5835 -84.659218 
L 239.410305 -83.130123 
L 244.598583 -67.107129 
L 242.370674 -59.970123 
L 237.863332 -56.854862 
L 237.397142 -53.017286 
L 249.204299 -43.403855 
L 246.95064 -36.563578 
L 250.736425 -31.427436 
L 250.146065 -27.392977 
L 251.846855 -25.834872 
L 247.866633 -16.255016 
L 251.19092 -11.143422 
L 250.682546 -6.644324 
L 256.244103 -3.314023 
L 257.755126 3.662414 
L 256.241746 9.728643 
L 251.797668 18.644273 
L 248.487435 17.401056 
L 248.850559 14.762235 
L 247.063091 15.065321 
L 247.606598 12.83846 
L 245.516911 10.671478 
L 241.105633 10.684191 
L 239.99051 12.593427 
L 243.244507 14.756791 
L 242.443299 16.185092 
L 224.536924 22.27766 
L 222.074774 26.121593 
L 212.139406 29.794912 
L 210.846235 32.903781 
L 200.81952 33.444631 
L 196.063862 41.450087 
L 194.686348 38.087089 
L 190.980214 36.029015 
L 194.850343 45.519034 
L 201.133434 50.435571 
L 197.949728 56.128859 
L 203.841588 67.134312 
L 211.916862 71.860251 
L 215.967375 78.061692 
L 222.323091 84.148818 
L 225.717644 84.108886 
L 230.41124 90.421061 
L 228.16225 99.016325 
L 222.224693 97.198718 
L 221.114263 104.112536 
L 206.0039 113.353905 
L 211.722403 122.707834 
L 209.473436 127.047206 
L 213.554389 129.297668 
L 211.963715 136.091656 
L 206.910509 132.972779 
L 206.526327 129.038131 
L 200.510275 130.37115 
L 194.665267 128.615249 
L 194.744919 126.749563 
L 193.189378 131.207817 
L 180.65128 131.74958 
L 171.959896 138.622518 
L 166.121916 138.742313 
L 163.383297 133.821246 
L 153.649416 132.193288 
L 153.628335 138.549011 
L 147.544373 142.936498 
L 148.664165 139.376617 
L 145.799065 139.847578 
L 142.694988 133.466427 
L 138.981828 131.793129 
L 135.139806 134.129776 
L 125.410617 128.912892 
L 118.572299 129.414724 
L 111.239661 124.321252 
L 107.456211 129.087123 
L 112.352449 129.40928 
L 111.600451 131.65156 
L 103.86722 130.61527 
L 99.544954 132.77133 
L 89.740783 132.624352 
L 90.872293 131.506373 
L 89.203146 131.92641 
L 87.522257 127.617065 
L 89.998483 118.341208 
L 89.042664 113.317626 
L 92.936207 105.349361 
L 94.285615 95.738669 
L 103.126918 83.673326 
L 90.312397 80.89111 
L 85.22408 76.28493 
L 82.138748 78.529949 
L 76.884078 78.439199 
L 73.979153 74.960059 
L 69.699047 76.754978 
L 64.850841 67.301273 
L 61.079812 66.22614 
L 64.644685 54.274025 
L 60.111594 52.894717 
L 55.437923 45.390179 
L 56.581152 39.580748 
L 61.742094 36.018128 
L 60.889364 30.205045 
L 57.12466 28.907427 
L 58.898075 25.519037 
L 52.640733 19.640631 
L 54.697621 15.225013 
z
" clip-path="url(#pe8623577ac)" style="fill: #eeeeee; stroke: #000000; stroke-width: 0.3"/>
    <path d="M 214.539041 -105.255977 
L 217.970066 -106.935105 
L 215.479809 -108.372712 
L 218.112119 -110.314785 
L 215.171765 -112.449772 
L 218.672876 -111.633791 
L 220.29431 -113.933106 
L 219.829479 -111.77385 
L 223.415455 -110.530563 
L 223.725357 -113.428676 
L 221.926827 -112.951358 
L 220.288779 -114.880577 
L 217.662022 -113.212898 
L 218.573278 -115.939483 
L 217.156595 -116.326753 
L 220.77945 -117.551462 
L 221.54498 -113.933106 
L 227.123175 -113.268633 
L 224.964944 -109.954663 
L 229.294304 -105.496058 
L 228.312962 -103.159586 
L 225.905712 -104.537173 
L 227.582498 -105.736139 
L 223.247584 -105.496058 
L 220.072967 -103.056685 
L 221.152072 -101.397575 
z
" clip-path="url(#pe8623577ac)" style="fill: #eeeeee; stroke: #000000; stroke-width: 0.3"/>
    <path d="M 228.988097 -98.761002 
L 230.393718 -99.48121 
L 239.349444 -91.221378 
L 239.140138 -89.103424 
L 230.963724 -88.124626 
L 233.038926 -89.846636 
L 232.422816 -93.222031 
L 235.684134 -91.305667 
L 235.750548 -93.560695 
L 233.365443 -95.721425 
L 229.467706 -94.182356 
L 230.393718 -96.93897 
z
" clip-path="url(#pe8623577ac)" style="fill: #eeeeee; stroke: #000000; stroke-width: 0.3"/>
    <path d="M 105.033864 -119.454938 
L 105.34193 -125.431189 
L 107.057454 -129.731191 
L 108.01112 -130.797227 
L 109.090247 -130.282788 
L 107.389479 -124.788104 
L 113.421444 -124.766681 
L 105.54854 -123.774924 
z
" clip-path="url(#pe8623577ac)" style="fill: #eeeeee; stroke: #000000; stroke-width: 0.3"/>
    <path d="M 175.102507 -92.744714 
L 176.257251 -94.188046 
L 177.873154 -94.182356 
L 176.961898 -92.02591 
z
" clip-path="url(#pe8623577ac)" style="fill: #eeeeee; stroke: #000000; stroke-width: 0.3"/>
    <path d="M 117.011114 -110.314785 
L 117.728681 -111.635231 
L 120.418158 -111.77385 
L 118.713718 -109.834623 
z
" clip-path="url(#pe8623577ac)" style="fill: #eeeeee; stroke: #000000; stroke-width: 0.3"/>
    <path d="M 213.312352 -109.834623 
L 214.240223 -114.317531 
L 214.616516 -113.977428 
z
" clip-path="url(#pe8623577ac)" style="fill: #eeeeee; stroke: #000000; stroke-width: 0.3"/>
    <path d="M 178.690319 -96.36307 
L 180.547874 -97.320515 
L 178.817594 -95.382727 
z
" clip-path="url(#pe8623577ac)" style="fill: #eeeeee; stroke: #000000; stroke-width: 0.3"/>
    <path d="M 166.716764 -109.834623 
L 169.336154 -112.205407 
L 173.709806 -107.915413 
z
" clip-path="url(#pe8623577ac)" style="fill: #eeeeee; stroke: #000000; stroke-width: 0.3"/>
    <path d="M 112.613504 -110.683476 
L 114.428626 -112.999964 
L 114.47473 -112.619824 
z
" clip-path="url(#pe8623577ac)" style="fill: #eeeeee; stroke: #000000; stroke-width: 0.3"/>
    <path d="M 107.529674 -118.487484 
L 108.487035 -119.669311 
L 112.045357 -118.727565 
z
" clip-path="url(#pe8623577ac)" style="fill: #eeeeee; stroke: #000000; stroke-width: 0.3"/>
    <path d="M 105.194369 -116.809795 
L 107.252979 -115.829452 
L 107.684625 -115.612234 
z
" clip-path="url(#pe8623577ac)" style="fill: #eeeeee; stroke: #000000; stroke-width: 0.3"/>
    <path d="M 102.006832 -83.348781 
L 102.040016 -84.221938 
L 103.028748 -83.828944 
z
" clip-path="url(#pe8623577ac)" style="fill: #eeeeee; stroke: #000000; stroke-width: 0.3"/>
    <path d="M 96.720088 -99.949958 
L 96.996784 -100.241491 
L 97.077954 -100.05142 
z
" clip-path="url(#pe8623577ac)" style="fill: #eeeeee; stroke: #000000; stroke-width: 0.3"/>
    <path d="M 95.864162 -100.192884 
L 96.19621 -100.218627 
L 96.301362 -99.639848 
z
" clip-path="url(#pe8623577ac)" style="fill: #eeeeee; stroke: #000000; stroke-width: 0.3"/>
    <path d="M 95.288649 -85.816743 
L 96.266296 -86.22828 
L 97.579686 -85.758127 
z
" clip-path="url(#pe8623577ac)" style="fill: #eeeeee; stroke: #000000; stroke-width: 0.3"/>
    <path d="M 91.475777 -85.690977 
L 94.344186 -85.766731 
L 92.87954 -84.986468 
z
" clip-path="url(#pe8623577ac)" style="fill: #eeeeee; stroke: #000000; stroke-width: 0.3"/>
    <path d="M 86.640967 -83.966123 
L 89.66988 -85.045048 
L 90.13657 -84.634915 
z
" clip-path="url(#pe8623577ac)" style="fill: #eeeeee; stroke: #000000; stroke-width: 0.3"/>
    <path d="M 85.065661 -84.136174 
L 85.79243 -83.828944 
L 85.467795 -83.588862 
z
" clip-path="url(#pe8623577ac)" style="fill: #eeeeee; stroke: #000000; stroke-width: 0.3"/>
    <path d="M 79.854556 -82.895767 
L 81.199295 -83.880395 
L 83.778088 -83.661737 
z
" clip-path="url(#pe8623577ac)" style="fill: #eeeeee; stroke: #000000; stroke-width: 0.3"/>
    <path d="M 73.058898 -81.889716 
L 76.986125 -82.641392 
L 77.856807 -82.389896 
z
" clip-path="url(#pe8623577ac)" style="fill: #eeeeee; stroke: #000000; stroke-width: 0.3"/>
    <path d="M 68.201965 -79.303154 
L 71.039025 -80.039131 
L 70.40077 -78.031313 
z
" clip-path="url(#pe8623577ac)" style="fill: #eeeeee; stroke: #000000; stroke-width: 0.3"/>
    <path d="M 46.882404 50.912888 
L 52.383033 41.2813 
L 55.915832 42.8675 
L 58.300688 51.061692 
L 60.111594 52.894717 
L 60.833128 52.709599 
L 62.252803 53.820308 
L 63.735719 53.929215 
L 64.522873 54.141552 
L 64.644685 54.274025 
L 61.079812 66.22614 
L 52.361953 66.7187 
L 48.508235 63.332102 
L 50.65647 59.61706 
z
" clip-path="url(#pe8623577ac)" style="fill: #eeeeee; stroke: #000000; stroke-width: 0.3"/>
    <path d="M -25.587346 8.903355 
L -6.827857 -1.200072 
L -5.870338 3.311213 
L -0.931939 1.777658 
L 6.26481 4.734105 
L 12.939427 -0.946435 
L 14.908481 2.452315 
L 13.836516 -0.99483 
L 17.240318 -0.550842 
L 17.65263 -4.246848 
L 22.202154 -2.70964 
L 25.568601 -5.419263 
L 26.56658 -2.550862 
L 25.193758 -2.539975 
L 28.553178 -1.785876 
L 31.209787 -4.767715 
L 35.468812 2.891071 
L 41.765957 1.914661 
L 49.37971 6.482736 
L 44.741173 17.938253 
L 58.898075 25.519037 
L 57.12466 28.907427 
L 60.889364 30.205045 
L 61.742094 36.018128 
L 56.815415 39.275835 
L 55.915832 42.8675 
L 52.383033 41.2813 
L 46.882404 50.912888 
L 50.65647 59.61706 
L 49.56712 62.511801 
L 40.924946 64.695079 
L 36.4621 57.938283 
L 27.163967 54.32667 
L 27.416976 50.141545 
L 25.688078 48.562615 
L 27.47319 41.914691 
L 18.453838 49.35935 
L 10.903348 47.97639 
L 12.679098 44.985454 
L 10.769817 42.597075 
L 12.397982 38.01994 
L 7.993708 35.0145 
L 1.047631 36.624301 
L -0.960046 30.362945 
L -8.604264 28.591626 
L -11.818434 19.736825 
L -19.582107 21.693261 
L -24.11522 17.406499 
L -23.623257 13.342995 
z
" clip-path="url(#pe8623577ac)" style="fill: #eeeeee; stroke: #000000; stroke-width: 0.3"/>
    <path d="M -4.524784 -6.626412 
L 4.543461 -9.473039 
L 10.295035 -3.675409 
L 14.338498 -3.745438 
L 7.649828 -8.752795 
L 12.617444 -8.752795 
L 10.479499 -10.47765 
L 11.929389 -12.109612 
L 4.798011 -16.682568 
L 9.678926 -17.648582 
L 8.273327 -22.71027 
L 11.134346 -23.339026 
L 19.437084 -34.955709 
L 24.816036 -57.124444 
L 27.725042 -54.8894 
L 32.356938 -56.647127 
L 39.182086 -61.681632 
L 43.994751 -68.896885 
L 52.817671 -72.523776 
L 72.046185 -74.087148 
L 73.665782 -70.617455 
L 80.330471 -66.867645 
L 80.290351 -58.192412 
L 76.750547 -45.878454 
L 69.959082 -45.432885 
L 68.478501 -42.166116 
L 69.455401 -39.352116 
L 75.314484 -38.994593 
L 77.01294 -35.963762 
L 76.516285 -31.242318 
L 68.506631 -24.90022 
L 71.629431 -21.757742 
L 61.072082 -16.859398 
L 56.131349 -19.515463 
L 56.792 -17.595305 
L 51.698968 -16.667923 
L 57.907122 -4.122523 
L 54.535983 4.54263 
L 56.590513 6.630627 
L 49.909164 10.476386 
L 50.410489 13.194156 
L 54.697621 15.225013 
L 53.137388 20.760401 
L 46.601289 20.609771 
L 44.741173 17.938253 
L 49.37971 6.482736 
L 41.765957 1.914661 
L 35.468812 2.891071 
L 31.209787 -4.767715 
L 28.553178 -1.785876 
L 25.193758 -2.539975 
L 26.56658 -2.550862 
L 25.568601 -5.419263 
L 22.202154 -2.70964 
L 18.868484 -4.680617 
L 16.46724 -3.576265 
L 16.809261 -0.328531 
L 7.89148 -3.935508 
L 4.001132 -1.756234 
z
" clip-path="url(#pe8623577ac)" style="fill: #eeeeee; stroke: #000000; stroke-width: 0.3"/>
    <path d="M -6.827857 -1.200072 
L -2.477235 -2.657944 
L 4.156083 -0.077106 
L 7.559432 -2.437881 
L 12.939427 -0.946435 
L 10.615183 2.411049 
L 3.582429 4.766767 
L -0.931939 1.777658 
L -5.870338 3.311213 
z
" clip-path="url(#pe8623577ac)" style="fill: #eeeeee; stroke: #000000; stroke-width: 0.3"/>
    <path d="M -1633.560823 1372.635886 
L -1632.636669 1370.773817 
L -1628.894813 1373.651911 
L -1628.753711 1377.510313 
L -1629.862328 1380.832852 
L -1630.958047 1374.535077 
z
" clip-path="url(#pe8623577ac)" style="fill: #eeeeee; stroke: #000000; stroke-width: 0.3"/>
    <path d="M 23.960133 -59.262276 
L 27.28417 -64.855542 
L 28.151157 -62.161794 
L 25.954188 -58.273399 
z
" clip-path="url(#pe8623577ac)" style="fill: #eeeeee; stroke: #000000; stroke-width: 0.3"/>
    <path d="M -1510.700473 1187.602142 
L -1509.52007 1189.01527 
L -1509.829655 1189.746225 
L -1510.336556 1189.635491 
z
" clip-path="url(#pe8623577ac)" style="fill: #eeeeee; stroke: #000000; stroke-width: 0.3"/>
    <path d="M 63.568233 -77.862702 
L 64.815208 -77.353952 
L 64.505306 -77.093852 
z
" clip-path="url(#pe8623577ac)" style="fill: #eeeeee; stroke: #000000; stroke-width: 0.3"/>
    <path d="M 56.141708 -74.414397 
L 60.29769 -76.319313 
L 60.930392 -75.893481 
z
" clip-path="url(#pe8623577ac)" style="fill: #eeeeee; stroke: #000000; stroke-width: 0.3"/>
    <path d="M 45.003769 -74.019998 
L 51.299531 -74.904569 
L 52.223684 -74.455839 
z
" clip-path="url(#pe8623577ac)" style="fill: #eeeeee; stroke: #000000; stroke-width: 0.3"/>
    <path d="M 34.386036 -71.194795 
L 36.256488 -72.536665 
L 43.85272 -74.192895 
z
" clip-path="url(#pe8623577ac)" style="fill: #eeeeee; stroke: #000000; stroke-width: 0.3"/>
    <path d="M 28.549597 -65.724414 
L 30.279854 -68.446716 
L 32.961964 -69.136967 
z
" clip-path="url(#pe8623577ac)" style="fill: #eeeeee; stroke: #000000; stroke-width: 0.3"/>
    <path d="M 0.81729 -12.349693 
L 3.707845 -14.300335 
L 10.171455 -10.994969 
z
" clip-path="url(#pe8623577ac)" style="fill: #eeeeee; stroke: #000000; stroke-width: 0.3"/>
    <path d="M -1516.462203 1184.155312 
L -1515.835961 1183.963802 
L -1516.168915 1184.473992 
z
" clip-path="url(#pe8623577ac)" style="fill: #eeeeee; stroke: #000000; stroke-width: 0.3"/>
   </g>
   <g id="PatchCollection_2">
    <defs>
     <path id="m0bad83d470" d="M 46.882404 -57.087112 
L 52.383033 -66.7187 
L 55.915832 -65.1325 
L 58.300688 -56.938308 
L 60.111594 -55.105283 
L 60.833128 -55.290401 
L 62.252803 -54.179692 
L 63.735719 -54.070785 
L 64.522873 -53.858448 
L 64.644685 -53.725975 
L 61.079812 -41.77386 
L 52.361953 -41.2813 
L 48.508235 -44.667898 
L 50.65647 -48.38294 
z
" style="stroke: #dd0000; stroke-width: 0.5"/>
    </defs>
    <g clip-path="url(#pe8623577ac)">
     <use xlink:href="#m0bad83d470" x="0" y="108" style="fill: #ff6b6b; stroke: #dd0000; stroke-width: 0.5"/>
    </g>
   </g>
  </g>
 </g>
 <defs>
  <clipPath id="pe8623577ac">
   <rect x="0" y="0" width="111.527089" height="108"/>
  </clipPath>
 </defs>
</svg>
