<?xml version="1.0" encoding="utf-8" standalone="no"?>
<!DOCTYPE svg PUBLIC "-//W3C//DTD SVG 1.1//EN"
  "http://www.w3.org/Graphics/SVG/1.1/DTD/svg11.dtd">
<svg xmlns:xlink="http://www.w3.org/1999/xlink" width="163.607094pt" height="108pt" viewBox="0 0 163.607094 108" xmlns="http://www.w3.org/2000/svg" version="1.1">
 <metadata>
  <rdf:RDF xmlns:dc="http://purl.org/dc/elements/1.1/" xmlns:cc="http://creativecommons.org/ns#" xmlns:rdf="http://www.w3.org/1999/02/22-rdf-syntax-ns#">
   <cc:Work>
    <dc:type rdf:resource="http://purl.org/dc/dcmitype/StillImage"/>
    <dc:date>2025-09-05T15:49:28.996182</dc:date>
    <dc:format>image/svg+xml</dc:format>
    <dc:creator>
     <cc:Agent>
      <dc:title>Matplotlib v3.10.3, https://matplotlib.org/</dc:title>
     </cc:Agent>
    </dc:creator>
   </cc:Work>
  </rdf:RDF>
 </metadata>
 <defs>
  <style type="text/css">*{stroke-linejoin: round; stroke-linecap: butt}</style>
 </defs>
 <g id="figure_1">
  <g id="patch_1">
   <path d="M 0 108 
L 163.607094 108 
L 163.607094 0 
L 0 0 
z
" style="fill: #ffffff"/>
  </g>
  <g id="axes_1">
   <g id="PatchCollection_1">
    <path d="M 28.645347 33.521676 
L 29.206242 33.252247 
L 29.899524 31.963578 
L 29.957202 30.835379 
L 29.685852 30.252367 
L 29.999393 29.630521 
L 31.218734 29.314077 
L 31.88066 28.613729 
L 31.215251 28.504161 
L 30.852934 27.758839 
L 31.082479 26.305814 
L 31.017834 25.599334 
L 30.702742 25.48159 
L 30.768934 24.898989 
L 31.370473 23.903048 
L 30.777451 22.789363 
L 31.782727 22.338004 
L 32.431495 21.577966 
L 31.903694 20.209979 
L 31.045318 19.547653 
L 31.192798 18.628577 
L 30.563389 17.722175 
L 29.857332 17.825611 
L 29.667657 16.888955 
L 30.554097 17.361166 
L 31.030995 17.286757 
L 31.550471 17.798217 
L 32.657747 17.650219 
L 33.321609 18.17967 
L 33.699413 17.228295 
L 34.842496 18.184575 
L 35.660808 19.465476 
L 35.82803 21.430371 
L 36.179897 22.271772 
L 35.949578 23.655293 
L 36.51899 24.616479 
L 36.972273 24.736272 
L 37.26453 25.520021 
L 35.961578 25.538826 
L 35.763385 26.538039 
L 34.995395 27.817713 
L 35.50365 29.926113 
L 35.694097 32.451327 
L 36.050994 33.110381 
L 36.884404 33.203188 
L 37.712008 33.948506 
L 40.570293 37.691454 
L 40.783968 38.626887 
L 40.334168 39.754066 
L 40.545132 40.724654 
L 40.337651 43.197331 
L 39.324244 43.707976 
L 38.800124 43.587775 
L 37.891231 45.156914 
L 38.558965 46.394886 
L 38.539224 47.398185 
L 38.276387 47.521246 
L 37.644266 47.420263 
L 37.840133 46.327021 
L 37.043113 45.960699 
L 35.24894 44.113547 
L 35.16688 43.266427 
L 34.525078 42.594291 
L 35.768419 40.250399 
L 35.531133 37.395862 
L 34.940429 36.650951 
L 33.841864 37.077373 
L 32.604522 37.055707 
L 32.321558 37.49889 
L 30.955898 35.35901 
L 30.431778 34.821794 
L 29.905718 35.318127 
L 29.435015 34.408861 
L 29.018893 34.237148 
L 29.04444 33.721598 
z
" clip-path="url(#p430457eae7)" style="fill: #eeeeee; stroke: #000000; stroke-width: 0.3"/>
    <path d="M 36.108287 27.508627 
L 36.251508 27.208537 
L 36.506989 27.366354 
L 36.232156 27.699558 
z
" clip-path="url(#p430457eae7)" style="fill: #eeeeee; stroke: #000000; stroke-width: 0.3"/>
    <path d="M 35.689452 27.251877 
L 36.001836 27.156618 
L 35.940675 27.493912 
z
" clip-path="url(#p430457eae7)" style="fill: #eeeeee; stroke: #000000; stroke-width: 0.3"/>
    <path d="M 16.137634 -0.799396 
L 16.438793 -2.660037 
L 17.669745 -2.606479 
L 18.681601 -3.363653 
L 19.837845 -5.270494 
L 20.09952 -5.276629 
L 20.289391 -6.212059 
L 21.665695 -7.308983 
L 21.787239 -7.71169 
L 21.762082 -8.479905 
L 20.499774 -8.618504 
L 20.227649 -8.981966 
L 20.627513 -9.782067 
L 20.213907 -9.69989 
L 20.573321 -10.517575 
L 21.79537 -10.984881 
L 21.995495 -12.024569 
L 21.655242 -12.630473 
L 21.78279 -13.956347 
L 21.432664 -14.697986 
L 20.750221 -15.047136 
L 20.471901 -16.072923 
L 21.06222 -16.016502 
L 21.58092 -16.362792 
L 33.651799 -16.29656 
L 47.302984 -8.21334 
L 47.50969 -7.151578 
L 47.079631 -6.761542 
L 47.1315 -6.364147 
L 47.540656 -6.309771 
L 47.775234 -5.802397 
L 53.184048 -1.715204 
L 53.178254 -1.05172 
L 52.785371 -0.813498 
L 52.694847 -0.294558 
L 52.91308 -0.1043 
L 51.550944 3.689238 
L 52.060262 5.199701 
L 52.531475 5.33201 
L 53.427274 6.348644 
L 53.428188 6.757487 
L 54.118249 6.865009 
L 54.452307 7.430948 
L 54.429142 7.895805 
L 53.606189 8.65136 
L 53.324558 10.684945 
L 53.606189 10.301213 
L 54.039612 10.721646 
L 54.080148 11.425049 
L 53.427274 12.60715 
L 53.705553 14.208069 
L 54.452307 15.032195 
L 54.061556 14.780452 
L 53.834176 14.939479 
L 54.220662 15.095934 
L 54.245654 15.830885 
L 54.510218 15.70759 
L 54.789714 16.087457 
L 54.50351 17.109886 
L 54.815624 17.09894 
L 55.153338 17.977145 
L 54.988749 18.286191 
L 55.377059 18.598458 
L 54.965584 19.467006 
L 55.475509 19.257112 
L 56.068033 20.16944 
L 56.197877 19.821121 
L 56.620628 19.966631 
L 56.575519 20.368068 
L 56.993091 20.46883 
L 56.993091 20.088315 
L 57.430169 20.711881 
L 57.723081 20.482351 
L 57.759962 21.173518 
L 56.154225 22.503992 
L 54.245475 23.214151 
L 53.364454 23.910817 
L 51.989891 23.914496 
L 50.47675 24.886722 
L 49.594179 24.347461 
L 48.401163 24.374444 
L 47.94749 25.361797 
L 46.64686 26.097305 
L 45.41823 25.920275 
L 45.009074 25.485676 
L 44.21399 25.520021 
L 43.48587 26.104666 
L 41.890275 26.026168 
L 41.771825 25.540464 
L 40.492101 24.886722 
L 39.555339 25.645126 
L 37.26453 25.520021 
L 36.972273 24.736272 
L 36.51899 24.616479 
L 35.949578 23.655293 
L 36.179897 22.271772 
L 35.82803 21.430371 
L 35.660808 19.465476 
L 34.842496 18.184575 
L 33.699413 17.228295 
L 33.321609 18.17967 
L 32.657747 17.650219 
L 31.550471 17.798217 
L 31.030995 17.286757 
L 28.101291 16.361138 
L 27.746907 15.908552 
L 25.929124 15.583929 
L 25.923704 15.072876 
L 24.935072 14.995608 
L 24.434563 14.166882 
L 23.73896 13.706527 
L 22.707166 13.821818 
L 22.264137 13.561389 
L 20.324421 9.786957 
L 19.7732 8.019123 
L 19.01063 6.992931 
L 17.572972 5.922171 
L 16.893238 4.55255 
L 16.70821 3.480566 
L 17.218783 2.302695 
z
" clip-path="url(#p430457eae7)" style="fill: #eeeeee; stroke: #000000; stroke-width: 0.3"/>
    <path d="M 53.091692 3.132955 
L 53.427274 2.84709 
L 53.552545 2.358408 
L 53.93842 4.232 
L 54.254797 4.248421 
L 54.245654 3.961907 
L 54.413903 4.742894 
L 54.282838 5.303038 
L 53.93842 4.664344 
L 53.889955 4.950534 
L 53.122171 4.345638 
z
" clip-path="url(#p430457eae7)" style="fill: #eeeeee; stroke: #000000; stroke-width: 0.3"/>
    <path d="M 54.786972 1.154096 
L 54.863782 0.652541 
L 55.303298 0.463249 
L 55.136271 0.465824 
L 54.812576 0.271385 
L 55.172844 0.32804 
L 54.940591 -0.91748 
L 55.455392 -0.507993 
L 55.584322 -0.890114 
L 55.359991 1.125768 
z
" clip-path="url(#p430457eae7)" style="fill: #eeeeee; stroke: #000000; stroke-width: 0.3"/>
    <path d="M 54.577578 11.168152 
L 55.733061 9.950319 
L 55.724529 10.41099 
L 55.461793 11.043569 
L 54.736987 11.327503 
z
" clip-path="url(#p430457eae7)" style="fill: #eeeeee; stroke: #000000; stroke-width: 0.3"/>
    <path d="M 54.533716 1.077167 
L 54.82107 1.300254 
L 54.849647 1.399256 
L 54.683054 1.35111 
z
" clip-path="url(#p430457eae7)" style="fill: #eeeeee; stroke: #000000; stroke-width: 0.3"/>
    <path d="M 55.01064 11.745318 
L 55.010655 11.577636 
L 55.380291 11.409843 
z
" clip-path="url(#p430457eae7)" style="fill: #eeeeee; stroke: #000000; stroke-width: 0.3"/>
    <path d="M 53.181475 2.59157 
L 53.269303 2.90276 
L 53.181692 2.910905 
z
" clip-path="url(#p430457eae7)" style="fill: #eeeeee; stroke: #000000; stroke-width: 0.3"/>
    <path d="M -111.549148 -211.506755 
L -111.534822 -212.198247 
L -110.782281 -212.631074 
L -108.573874 -213.039272 
L -108.11592 -212.631074 
L -107.960166 -213.040882 
L -107.116187 -212.841451 
L -106.855889 -213.470971 
L -105.786358 -213.590887 
L -105.751916 -213.281841 
L -105.268508 -213.587022 
L -105.395913 -213.146632 
L -104.956547 -213.389846 
L -103.736292 -212.153982 
L -102.364403 -212.903742 
L -102.417744 -212.631074 
L -101.98097 -212.442106 
L -101.376711 -212.712037 
L -101.106811 -212.172012 
L -101.288168 -212.684995 
L -100.976967 -212.903742 
L -100.595362 -212.957502 
L -100.4166 -212.576828 
L -98.770698 -212.684995 
L -99.508763 -213.095931 
L -99.693468 -213.500264 
L -99.337773 -214.229418 
L -99.658419 -214.210909 
L -99.72151 -214.950207 
L -99.489257 -214.988194 
L -100.493256 -215.61417 
L -100.748677 -216.196371 
L -100.579515 -216.54791 
L -100.937956 -216.960614 
L -99.707491 -216.667664 
L -98.420486 -216.847459 
L -98.288358 -216.564972 
L -98.582334 -216.303894 
L -97.895476 -215.462707 
L -97.212119 -215.647972 
L -94.511926 -215.204204 
L -92.149446 -215.884426 
L -91.842819 -216.048769 
L -92.727948 -215.931911 
L -93.403076 -216.212467 
L -92.806589 -216.981216 
L -89.116108 -217.968877 
L -87.993236 -218.901166 
L -87.425704 -218.813605 
L -87.916426 -219.151298 
L -87.658571 -219.518293 
L -87.865224 -219.653177 
L -87.770126 -221.488782 
L -84.244923 -222.354071 
L -83.920389 -221.854008 
L -84.001678 -221.396312 
L -83.252655 -220.913468 
L -81.969834 -221.133833 
L -81.438744 -220.136464 
L -80.175661 -219.93695 
L -79.843925 -219.231696 
L -78.696198 -219.413017 
L -77.968463 -219.074497 
L -78.237491 -218.558947 
L -77.922014 -218.289929 
L -78.215427 -217.953042 
L -76.289647 -217.990654 
L -75.65404 -218.690184 
L -75.443076 -218.604941 
L -75.77249 -217.887012 
L -75.486818 -217.709168 
L -75.528624 -217.237772 
L -73.992258 -216.830975 
L -73.254845 -216.069917 
L -72.167894 -216.269633 
L -71.365065 -215.841984 
L -69.70947 -215.937449 
L -68.544519 -214.72462 
L -67.793173 -214.913711 
L -67.313181 -214.521834 
L -66.444932 -214.511613 
L -65.935131 -214.764482 
L -65.094369 -214.245661 
L -62.976977 -213.932283 
L -64.437859 -212.573292 
L -64.660827 -211.490782 
L -65.279011 -210.653575 
L -65.146238 -210.027433 
L -65.555395 -208.982638 
L -65.277655 -208.49725 
L -66.054742 -207.888166 
L -67.572531 -208.119366 
L -67.972009 -207.585623 
L -67.335631 -207.488113 
L -68.725677 -206.268844 
L -69.560053 -205.963745 
L -69.610376 -205.238459 
L -70.774361 -204.536888 
L -71.014744 -203.887953 
L -70.712038 -203.69406 
L -70.865713 -203.22982 
L -71.387129 -203.019673 
L -71.372031 -202.744932 
L -70.692297 -202.823019 
L -70.16469 -203.17851 
L -70.415913 -203.476761 
L -70.209983 -203.712355 
L -69.40909 -204.003347 
L -68.270071 -203.867205 
L -68.407488 -203.595628 
L -68.117943 -203.294826 
L -68.350199 -202.828541 
L -67.389822 -201.933176 
L -68.218588 -201.542324 
L -68.236783 -201.113857 
L -66.870733 -199.898571 
L -67.264791 -199.118296 
L -68.96045 -198.682269 
L -68.426068 -197.908331 
L -67.445954 -197.569193 
L -67.265956 -197.026459 
L -67.622854 -197.01971 
L -68.087752 -196.429751 
L -67.780398 -196.043192 
L -67.973946 -195.789301 
L -67.53692 -195.273545 
L -66.232807 -194.812779 
L -65.016949 -195.013725 
L -64.888435 -194.583624 
L -65.682747 -193.785259 
L -65.688212 -193.386199 
L -66.904654 -192.9516 
L -66.952242 -192.55305 
L -67.614528 -192.498013 
L -67.869432 -192.05307 
L -68.479481 -191.974821 
L -69.00478 -191.425168 
L -68.62095 -191.441288 
L -68.671785 -191.158765 
L -69.81198 -190.720812 
L -70.49428 -190.791747 
L -70.543442 -190.503564 
L -71.439114 -190.891615 
L -71.754936 -190.538798 
L -72.439158 -191.073067 
L -73.663657 -191.215515 
L -73.861437 -191.767636 
L -74.835791 -191.688536 
L -74.865335 -191.980683 
L -74.115536 -192.261398 
L -74.854057 -192.571089 
L -74.771765 -192.059554 
L -75.456945 -192.028647 
L -75.503376 -191.71347 
L -75.870251 -192.032188 
L -75.927858 -192.436204 
L -76.107077 -192.652214 
L -75.927551 -192.032995 
L -75.636332 -191.731575 
L -78.88469 -192.497369 
L -82.026841 -190.782 
L -82.297195 -188.894084 
L -81.776106 -188.112535 
L -82.702209 -188.265786 
L -83.7191 -187.746762 
L -85.160244 -188.101229 
L -86.215456 -187.784987 
L -87.27725 -188.358695 
L -87.240474 -188.818133 
L -88.336721 -188.760896 
L -88.661491 -189.208984 
L -90.645335 -189.695404 
L -91.231781 -189.722288 
L -91.279392 -189.113318 
L -93.835745 -189.115976 
L -94.898894 -189.738435 
L -95.82114 -189.46206 
L -96.535133 -190.149833 
L -97.996791 -190.384099 
L -98.506592 -190.793353 
L -99.14742 -190.539767 
L -98.94652 -191.32403 
L -99.764446 -191.338544 
L -100.418245 -191.84244 
L -99.910942 -191.942534 
L -99.221338 -192.656075 
L -98.398692 -196.516897 
L -98.133825 -196.949724 
L -97.602871 -196.965338 
L -98.080334 -197.395909 
L -98.410426 -196.799222 
L -97.754658 -200.524033 
L -96.559549 -199.562934 
L -96.371488 -198.805128 
L -95.692401 -197.857546 
L -95.92283 -198.370529 
L -95.539243 -198.265099 
L -96.146854 -198.665089 
L -96.669277 -200.160421 
L -98.361508 -201.081281 
L -98.048787 -201.464209 
L -97.387225 -201.11074 
L -98.003525 -201.707261 
L -97.61765 -202.382332 
L -98.224807 -202.919303 
L -97.850059 -203.42617 
L -98.334535 -203.353253 
L -100.414316 -204.185104 
L -100.843161 -204.965443 
L -101.625425 -205.472472 
L -101.145826 -206.3246 
L -102.083686 -206.748254 
L -101.79931 -206.848691 
L -101.781939 -207.257376 
L -100.158284 -207.018347 
L -101.218519 -207.449401 
L -102.223282 -207.159347 
L -103.210521 -207.371816 
L -102.814282 -207.399183 
L -103.264469 -207.700661 
L -102.648169 -207.860495 
L -103.033584 -208.127693 
L -102.543625 -208.186927 
L -103.547624 -208.24101 
L -103.425403 -208.277708 
L -103.340971 -208.375895 
L -104.241037 -208.159402 
L -104.586065 -208.393601 
L -103.957574 -208.365594 
L -103.759764 -208.575488 
L -103.74239 -208.649046 
L -103.826817 -208.727113 
L -104.624167 -208.540396 
L -104.831123 -208.81049 
L -104.700976 -208.402936 
L -105.387681 -208.553276 
L -105.419228 -208.076347 
L -105.677241 -208.71472 
L -105.368022 -209.080745 
L -105.649503 -209.137242 
L -105.765631 -208.781197 
L -106.267784 -208.943123 
L -105.984475 -208.918657 
L -106.267784 -208.997207 
L -105.984475 -209.299172 
L -106.59803 -208.971775 
L -109.166402 -209.839359 
L -109.364976 -209.402185 
L -110.063876 -209.377718 
L -110.299177 -210.044098 
L -111.398428 -210.300995 
L -109.740181 -210.596841 
L -110.091764 -211.059605 
L -110.75927 -210.84134 
L -111.017126 -211.275939 
L -110.718884 -211.512392 
L -110.602145 -211.310707 
L -109.680136 -211.281252 
L -109.373508 -211.356902 
L -110.370653 -211.467162 
L -109.757095 -211.847673 
z
M -86.39584 -188.190661 
L -86.201134 -188.161634 
L -86.361776 -188.311475 
z
" clip-path="url(#p430457eae7)" style="fill: #eeeeee; stroke: #000000; stroke-width: 0.3"/>
    <path d="M -298.242901 -29.464749 
L -297.345236 -30.087826 
L -296.57589 -31.54862 
L -296.729371 -32.63389 
L -295.94977 -33.93135 
L -295.918995 -34.596741 
L -296.84124 -35.596567 
L -297.461169 -36.843329 
L -297.761358 -39.657596 
L -297.104463 -40.934715 
L -296.167284 -41.768215 
L -295.691315 -42.987607 
L -291.805507 -41.646211 
L -289.904626 -39.62968 
L -289.493152 -39.769394 
L -289.722966 -38.952029 
L -289.316368 -39.548717 
L -288.539595 -38.829218 
L -288.263294 -37.881636 
L -288.621127 -37.405193 
L -288.209956 -37.63601 
L -288.107543 -38.679523 
L -287.704297 -38.509389 
L -287.13326 -36.68827 
L -289.778558 -32.729561 
L -289.980619 -31.72381 
L -291.034281 -29.649548 
L -292.121625 -28.859458 
L -293.198707 -28.948384 
L -293.070193 -29.16691 
L -293.481866 -29.557149 
L -294.184822 -29.151372 
L -295.057521 -29.632582 
L -296.356128 -28.626134 
z
" clip-path="url(#p430457eae7)" style="fill: #eeeeee; stroke: #000000; stroke-width: 0.3"/>
    <path d="M -61.670684 -187.897411 
L -61.257075 -188.106178 
L -61.071148 -188.696745 
L -59.540461 -189.301316 
L -58.887584 -189.074844 
L -58.683373 -190.376219 
L -58.243853 -190.322136 
L -58.323101 -188.939635 
L -58.003979 -188.634936 
L -57.886023 -186.985404 
L -58.471843 -186.219547 
L -58.477634 -185.244445 
L -58.887584 -184.927831 
L -58.66874 -184.749006 
L -59.192687 -184.222981 
L -59.146054 -183.923433 
L -60.761779 -184.669973 
L -60.271364 -185.197767 
L -61.273536 -185.416352 
L -60.710573 -186.037502 
L -61.426544 -186.013197 
L -61.531391 -186.282966 
L -60.937039 -186.629517 
L -61.608201 -187.23071 
L -61.15131 -187.485348 
z
" clip-path="url(#p430457eae7)" style="fill: #eeeeee; stroke: #000000; stroke-width: 0.3"/>
    <path d="M -322.977817 -78.992164 
L -321.703767 -78.718368 
L -321.921694 -78.27975 
L -321.445754 -77.47108 
L -321.671153 -77.257966 
L -321.663381 -77.526449 
L -322.416379 -77.489751 
L -322.55232 -77.68709 
L -322.140845 -77.878633 
L -322.753486 -78.281843 
z
" clip-path="url(#p430457eae7)" style="fill: #eeeeee; stroke: #000000; stroke-width: 0.3"/>
    <path d="M 113.148236 62.926604 
L 113.380492 62.459813 
L 114.47014 62.313663 
L 115.504315 63.430089 
L 115.345209 64.164074 
L 114.457641 64.264515 
L 113.613355 63.882715 
z
" clip-path="url(#p430457eae7)" style="fill: #eeeeee; stroke: #000000; stroke-width: 0.3"/>
    <path d="M 75.009627 29.969742 
L 75.190677 29.767253 
L 75.602151 30.066639 
L 75.548507 31.03949 
L 75.214452 31.092929 
L 75.084609 30.76135 
L 75.361667 30.782597 
z
" clip-path="url(#p430457eae7)" style="fill: #eeeeee; stroke: #000000; stroke-width: 0.3"/>
    <path d="M -324.193956 -84.684082 
L -323.888092 -85.584823 
L -323.525536 -84.935021 
L -322.768422 -84.555958 
L -323.886721 -84.355561 
z
" clip-path="url(#p430457eae7)" style="fill: #eeeeee; stroke: #000000; stroke-width: 0.3"/>
    <path d="M -325.142179 -84.790156 
L -324.919372 -85.000213 
L -324.221997 -84.684727 
L -324.275642 -83.687733 
L -324.758592 -83.354059 
z
" clip-path="url(#p430457eae7)" style="fill: #eeeeee; stroke: #000000; stroke-width: 0.3"/>
    <path d="M -99.516992 -203.224804 
L -98.589192 -203.047427 
L -98.489217 -202.846706 
L -99.323904 -203.050322 
z
" clip-path="url(#p430457eae7)" style="fill: #eeeeee; stroke: #000000; stroke-width: 0.3"/>
    <path d="M -323.399351 -83.285971 
L -323.160694 -83.591797 
L -322.882415 -83.286454 
L -323.185384 -83.055796 
z
" clip-path="url(#p430457eae7)" style="fill: #eeeeee; stroke: #000000; stroke-width: 0.3"/>
    <path d="M 75.883176 30.390815 
L 75.908779 30.147764 
L 75.908779 30.390815 
z
" clip-path="url(#p430457eae7)" style="fill: #eeeeee; stroke: #000000; stroke-width: 0.3"/>
    <path d="M -58.271894 -188.966676 
L -58.17619 -188.858672 
L -58.196003 -188.854648 
z
" clip-path="url(#p430457eae7)" style="fill: #eeeeee; stroke: #000000; stroke-width: 0.3"/>
    <path d="M -70.595438 -190.360123 
L -70.56191 -190.396983 
L -70.273264 -190.371876 
z
" clip-path="url(#p430457eae7)" style="fill: #eeeeee; stroke: #000000; stroke-width: 0.3"/>
    <path d="M -98.951898 -202.439153 
L -98.362726 -202.235857 
L -98.218863 -201.493664 
z
" clip-path="url(#p430457eae7)" style="fill: #eeeeee; stroke: #000000; stroke-width: 0.3"/>
    <path d="M -102.287901 -206.31591 
L -101.929764 -206.28098 
L -101.714579 -205.828034 
z
" clip-path="url(#p430457eae7)" style="fill: #eeeeee; stroke: #000000; stroke-width: 0.3"/>
    <path d="M -102.614794 -205.087451 
L -102.2975 -205.077633 
L -102.187926 -204.987654 
z
" clip-path="url(#p430457eae7)" style="fill: #eeeeee; stroke: #000000; stroke-width: 0.3"/>
    <path d="M -105.907512 -207.700661 
L -105.176916 -207.37906 
L -105.762886 -207.419464 
z
" clip-path="url(#p430457eae7)" style="fill: #eeeeee; stroke: #000000; stroke-width: 0.3"/>
    <path d="M -112.914029 -211.953423 
L -112.76041 -212.042274 
L -112.746084 -211.909483 
z
" clip-path="url(#p430457eae7)" style="fill: #eeeeee; stroke: #000000; stroke-width: 0.3"/>
    <path d="M -322.498982 -84.763277 
L -322.302385 -84.917798 
L -322.412723 -84.750721 
z
" clip-path="url(#p430457eae7)" style="fill: #eeeeee; stroke: #000000; stroke-width: 0.3"/>
    <path d="M -324.386893 -83.012658 
L -324.327912 -83.083645 
L -324.336294 -83.008473 
z
" clip-path="url(#p430457eae7)" style="fill: #eeeeee; stroke: #000000; stroke-width: 0.3"/>
    <path d="M -324.546606 -82.974512 
L -324.463242 -83.001554 
L -324.50622 -82.949884 
z
" clip-path="url(#p430457eae7)" style="fill: #eeeeee; stroke: #000000; stroke-width: 0.3"/>
    <path d="M -47.812187 2.794937 
L -47.775879 2.43066 
L -46.839502 2.389366 
L -46.758214 0.15995 
L -47.081437 -0.265653 
L -46.203124 -0.783043 
L -45.738615 -1.512826 
L -44.755789 -1.812916 
L -44.671013 -2.146939 
L -43.529867 -0.937176 
L -42.332013 -1.72706 
L -42.322721 -2.647362 
L -41.462992 -2.469107 
L -39.805465 -3.343214 
L -39.495788 -2.740988 
L -39.941331 -2.227891 
L -39.754367 -0.933497 
L -39.308049 -1.111345 
L -38.73554 -0.879528 
L -38.142128 -1.215189 
L -36.745891 -3.098315 
L -35.790933 -3.593425 
L -35.51068 -4.209959 
L -34.093536 -4.765984 
L -32.919488 -7.156076 
L -33.035612 -11.630853 
L -31.839499 -12.796462 
L -30.643773 -15.242564 
L -29.934622 -15.922876 
L -28.865473 -16.247496 
L -27.211818 -18.191953 
L -27.336073 -19.48798 
L -26.477892 -21.755011 
L -26.773242 -24.284109 
L -26.006413 -26.399764 
L -26.002541 -28.807127 
L -23.977662 -32.636956 
L -23.852246 -36.267579 
L -24.243982 -37.382594 
L -23.452382 -37.670417 
L -22.216396 -39.682842 
L -20.996669 -40.557253 
L -19.439787 -40.425094 
L -17.513617 -39.139182 
L -16.609757 -37.727349 
L -15.518934 -37.879132 
L -14.247723 -37.23909 
L -12.276265 -37.246242 
L -10.156547 -36.594858 
L -9.38043 -36.842308 
L -9.073465 -37.959569 
L -8.709987 -38.030607 
L -7.927675 -39.343605 
L -5.994535 -38.422891 
L -5.34461 -38.989036 
L -2.830833 -39.764098 
L -2.308646 -40.183977 
L -2.317163 -40.525259 
L -1.065309 -39.715141 
L 1.095825 -40.169159 
L 1.305628 -41.269968 
L 1.980138 -41.526002 
L 3.355087 -40.714349 
L 4.431588 -40.98449 
L 5.571187 -40.229259 
L 6.458403 -40.414872 
L 6.936462 -40.19001 
L 7.710257 -40.845792 
L 8.564956 -40.56359 
L 10.221712 -39.202245 
L 10.327386 -38.442619 
L 11.232212 -38.261499 
L 11.365955 -37.743702 
L 12.608517 -37.174697 
L 14.009017 -38.27714 
L 15.753833 -37.43339 
L 16.638918 -38.734224 
L 17.241622 -38.623632 
L 17.908967 -38.285214 
L 17.875678 -37.544595 
L 18.409476 -37.306651 
L 19.379531 -35.911986 
L 20.637576 -35.561712 
L 20.704157 -34.554426 
L 21.467889 -34.799527 
L 21.814723 -34.069031 
L 22.027627 -34.186775 
L 22.07872 -33.68615 
L 21.456278 -32.349339 
L 21.866596 -31.549846 
L 21.331633 -29.934919 
L 21.935499 -29.487646 
L 22.295879 -29.777925 
L 22.622585 -29.32227 
L 23.080708 -29.372354 
L 23.432381 -28.581548 
L 20.461646 -25.162303 
L 19.564948 -24.75632 
L 19.250242 -23.857074 
L 18.472959 -23.524479 
L 18.447412 -22.233765 
L 17.558261 -20.549334 
L 17.002399 -16.589288 
L 17.089494 -14.770349 
L 15.798931 -13.70123 
L 15.413775 -12.970627 
L 15.43003 -11.568708 
L 14.424368 -10.800493 
L 14.390304 -10.300482 
L 14.518043 -9.768986 
L 15.032102 -9.404297 
L 14.90591 -9.132416 
L 15.80377 -8.210887 
L 15.730414 -4.835488 
L 16.196473 -4.070545 
L 16.463954 -2.452346 
L 16.137634 -0.799396 
L 17.218783 2.302695 
L 16.70821 3.480566 
L 16.938916 4.707909 
L 17.572972 5.922171 
L 19.01063 6.992931 
L 19.7732 8.019123 
L 21.487245 12.1517 
L 14.509915 13.294824 
L 14.524623 14.413007 
L 12.499745 16.415515 
L 13.112123 16.836213 
L 13.795731 18.472398 
L 13.314188 20.164187 
L 13.799986 21.839625 
L 13.256124 22.598433 
L 12.529165 25.361797 
L 13.081737 26.70362 
L 13.992758 27.176238 
L 15.056488 28.70572 
L 16.796465 28.999268 
L 16.70124 28.166863 
L 17.918645 27.816487 
L 17.854776 32.965239 
L 17.237363 32.829097 
L 17.431297 32.275116 
L 17.076332 32.05434 
L 15.614675 32.890831 
L 14.902423 32.728928 
L 13.831342 30.726626 
L 13.212768 30.710273 
L 12.762968 29.269104 
L 11.024926 28.661973 
L 10.642864 28.244954 
L 9.824555 28.368422 
L 9.010112 26.898229 
L 8.311411 26.451771 
L 8.108964 25.504486 
L 7.523293 25.607103 
L 7.238393 26.847532 
L 6.375953 27.258416 
L 5.241773 26.858161 
L 3.618309 26.82341 
L 2.27123 26.134509 
L 1.799751 26.322986 
L 1.235564 25.791491 
L 1.105889 24.021615 
L -1.133051 24.540844 
L -1.962974 25.076838 
L -2.700772 24.830305 
L -2.332646 24.355231 
L -2.413935 23.647524 
L -3.336376 23.42225 
L -3.373923 22.931641 
L -3.79624 22.750525 
L -4.424491 23.363787 
L -5.839313 23.096815 
L -7.493358 23.656519 
L -9.41604 23.418982 
L -10.40235 24.238301 
L -10.672543 22.667121 
L -10.095775 22.306931 
L -10.118614 20.75333 
L -10.693446 19.024338 
L -11.745947 17.938861 
L -12.071492 16.946192 
L -11.502466 13.187298 
L -12.213942 11.373264 
L -11.813303 9.286534 
L -12.097814 8.548985 
L -16.833496 8.56084 
L -16.492854 7.095549 
L -17.586389 7.10577 
L -17.680839 7.435707 
L -20.573966 7.435707 
L -20.60648 9.324557 
L -21.196408 9.699055 
L -21.196794 11.391662 
L -24.339208 11.115695 
L -24.372496 11.374083 
L -25.822929 11.472614 
L -25.906154 11.816039 
L -26.768208 11.559696 
L -27.771162 11.773522 
L -28.835667 10.409214 
L -29.357854 9.121771 
L -30.222616 8.237446 
L -30.119649 7.486404 
L -30.887639 6.274184 
L -31.119896 5.311772 
L -31.042476 4.220572 
L -31.693566 3.086036 
L -41.466475 2.845635 
L -43.717606 3.039425 
L -45.389358 2.738599 
L -45.875088 2.939403 
L -46.039407 3.390177 
L -47.062294 3.677624 
L -47.03347 3.400102 
L -47.260554 3.495796 
z
" clip-path="url(#p430457eae7)" style="fill: #eeeeee; stroke: #000000; stroke-width: 0.3"/>
    <path d="M -45.955059 3.235648 
L -45.644072 2.965052 
L -45.020738 2.951009 
z
" clip-path="url(#p430457eae7)" style="fill: #eeeeee; stroke: #000000; stroke-width: 0.3"/>
    <path d="M -49.803424 49.147012 
L -49.66291 48.040886 
L -48.415741 47.536373 
L -47.837041 47.875305 
L -46.621572 47.913735 
L -44.377599 46.792281 
L -43.20355 47.026547 
L -43.047939 47.4681 
L -41.327894 48.66151 
L -24.574947 48.528224 
L -23.866182 49.509857 
L -22.940259 50.147649 
L -19.640687 50.507839 
L -17.524066 50.367606 
L -15.763576 51.06591 
L -14.433526 50.667289 
L -13.588891 50.998859 
L -2.975995 48.88269 
L 0.082032 49.284994 
L 0.916603 50.127209 
L -0.231127 50.104721 
L -1.687751 51.15054 
L -2.488644 50.767861 
L -5.262931 52.831288 
L -6.450531 50.937533 
L -15.131066 52.204944 
L -15.09468 66.622352 
L -18.86418 66.76749 
L -18.851794 92.170286 
L -20.398224 92.600795 
L -20.824028 93.289284 
L -21.532403 93.437286 
L -21.448406 93.992904 
L -22.078204 94.287271 
L -23.481026 93.822006 
L -25.650287 94.067313 
L -26.598664 93.590193 
L -27.664327 93.522328 
L -27.835807 93.190346 
L -28.507414 93.285605 
L -28.443931 92.84692 
L -28.804701 92.360805 
L -28.522122 92.063168 
L -28.724184 91.400027 
L -29.220823 91.417607 
L -29.732947 90.605645 
L -30.420033 90.826422 
L -30.885317 91.549255 
L -30.991382 92.4021 
L -32.465365 92.699326 
L -34.708975 90.596847 
L -36.403948 87.819294 
L -36.653883 86.328472 
L -37.19886 85.338235 
L -36.877906 84.930682 
L -37.114125 84.251746 
L -37.635938 83.914048 
L -37.588387 82.820474 
L -38.107761 81.605861 
L -38.0593 78.886256 
L -39.535126 75.065351 
L -39.330301 74.250245 
L -39.628392 72.363132 
L -39.412597 71.943664 
L -39.718917 70.605108 
L -39.625651 70.245198 
L -39.535126 70.702009 
L -39.272697 70.325679 
L -39.350417 68.932719 
L -43.5112 62.212901 
L -44.33476 59.601783 
L -44.860606 59.088488 
L -47.060253 54.519907 
L -48.626383 52.940737 
L -49.506456 50.767976 
z
" clip-path="url(#p430457eae7)" style="fill: #eeeeee; stroke: #000000; stroke-width: 0.3"/>
    <path d="M -32.004208 92.952358 
L -30.991382 92.4021 
L -30.885317 91.549255 
L -30.420033 90.826422 
L -29.732947 90.605645 
L -29.220823 91.417607 
L -28.724184 91.400027 
L -28.522122 92.063168 
L -28.804701 92.360805 
L -28.443931 92.84692 
L -28.507414 93.285605 
L -27.835807 93.190346 
L -27.664327 93.522328 
L -26.598664 93.590193 
L -25.650287 94.067313 
L -23.481026 93.822006 
L -22.078204 94.287271 
L -21.448406 93.992904 
L -21.532403 93.437286 
L -20.824028 93.289284 
L -20.398224 92.600795 
L -18.851794 92.170286 
L -18.852566 77.653118 
L -17.416455 78.763535 
L -16.324085 80.482713 
L -16.39376 81.086165 
L -15.631575 83.107482 
L -16.516082 84.539245 
L -16.195957 86.115741 
L -15.38345 85.752691 
L -12.548776 86.002084 
L -12.182586 85.77027 
L -12.114073 85.270666 
L -11.07628 85.031084 
L -10.362481 83.960327 
L -9.250755 83.408387 
L -8.598118 82.5257 
L -8.128961 80.535456 
L -7.432196 79.816713 
L -5.826927 79.748436 
L -4.083463 81.121328 
L -3.114573 81.108242 
L -2.532386 81.606213 
L -1.311112 81.889131 
L 1.660593 81.445537 
L 2.143101 81.082894 
L 3.071737 78.696892 
L 3.195992 77.635945 
L 5.203451 77.179681 
L 5.678413 76.49078 
L 6.831948 75.727064 
L 7.311359 73.563674 
L 7.911547 72.797505 
L 9.490108 72.147854 
L 9.711521 71.577927 
L 10.256936 71.593873 
L 12.31007 69.153495 
L 14.597395 68.559446 
L 15.070035 67.650592 
L 17.402263 67.265053 
L 19.924943 68.128526 
L 22.987224 68.016502 
L 23.497801 68.336629 
L 24.4245 71.341616 
L 24.391788 72.527669 
L 25.600871 74.402005 
L 26.110672 76.35014 
L 26.145121 81.151582 
L 25.756092 82.524063 
L 23.919343 81.54366 
L 22.864516 82.232149 
L 21.683695 84.160248 
L 21.675759 85.78785 
L 21.967046 85.642712 
L 22.242074 86.545028 
L 22.947355 87.321007 
L 24.387724 87.773597 
L 26.042154 87.794855 
L 26.123833 85.785397 
L 29.505911 85.93508 
L 29.40167 86.612406 
L 27.62958 92.617235 
L 26.224163 93.604572 
L 26.423501 93.686343 
L 26.206182 93.927139 
L 25.29606 94.147979 
L 23.782743 95.771115 
L 22.420299 98.025218 
L 22.633964 97.999466 
L 18.905385 103.311193 
L 16.466707 105.047001 
L 13.234338 108.547594 
L 7.812307 112.356584 
L 5.472078 113.301748 
L 2.885267 113.219982 
L 2.318346 113.661338 
L 2.556085 114.372466 
L -0.232805 114.175448 
L -0.677501 115.047862 
L -5.166852 114.153881 
L -6.098008 114.357659 
L -6.017543 114.669601 
L -9.106353 114.21086 
L -10.658681 114.563368 
L -10.739146 114.939694 
L -11.49108 115.119327 
L -12.083604 115.742569 
L -13.02421 115.614445 
L -13.891964 115.913831 
L -15.362 115.660158 
L -15.767381 115.808888 
L -15.632964 116.073827 
L -16.975288 116.095398 
L -18.724516 117.473872 
L -20.082083 117.29649 
L -21.035183 116.614983 
L -21.416481 116.678078 
L -21.179352 116.213866 
L -21.440867 115.852667 
L -22.081549 115.818865 
L -22.004436 115.398756 
L -23.211429 115.725188 
L -23.059641 114.828952 
L -23.277268 114.588476 
L -24.48213 114.657045 
L -24.513216 115.60865 
L -25.089284 114.857283 
L -25.094771 114.349289 
L -24.459572 113.616914 
L -25.122505 112.174376 
L -26.442581 110.68194 
L -25.796412 111.059235 
L -26.133515 110.412171 
L -26.641309 110.424402 
L -26.861677 109.579675 
L -26.39564 109.105807 
L -25.828719 109.380731 
L -25.163655 108.730122 
L -24.96523 107.352613 
L -25.236805 105.898165 
L -28.962945 99.786783 
L -30.678035 94.854922 
z
M 7.44239 97.091925 
L 8.862632 98.975462 
L 8.805729 99.641467 
L 9.127596 99.637788 
L 10.219386 100.785817 
L 11.474727 101.017219 
L 11.649305 100.219977 
L 12.072783 99.804596 
L 11.931108 99.528628 
L 12.61742 98.981594 
L 14.159595 98.764907 
L 15.465255 98.09359 
L 15.351063 97.42268 
L 16.557629 95.809798 
L 16.092731 94.810586 
L 14.853266 94.095522 
L 13.555343 92.757381 
L 11.760014 93.27784 
L 11.230471 93.974506 
L 10.233708 94.093888 
L 8.746114 96.355195 
z
" clip-path="url(#p430457eae7)" style="fill: #eeeeee; stroke: #000000; stroke-width: 0.3"/>
    <path d="M 47.142668 165.456488 
L 47.368831 164.98133 
L 47.96288 165.043139 
L 48.242683 165.224061 
L 47.908318 165.524092 
z
" clip-path="url(#p430457eae7)" style="fill: #eeeeee; stroke: #000000; stroke-width: 0.3"/>
    <path d="M 48.112839 164.220303 
L 48.260054 164.076083 
L 48.549917 164.139178 
L 48.40331 164.292413 
z
" clip-path="url(#p430457eae7)" style="fill: #eeeeee; stroke: #000000; stroke-width: 0.3"/>
    <path d="M -11.367757 31.168583 
L -3.799338 31.168583 
L -4.30488 30.330866 
L -3.686307 28.73025 
L -3.972754 27.807903 
L -3.971593 25.77064 
L -3.570568 24.860966 
L -3.923593 22.746027 
L -3.373923 22.931641 
L -3.336376 23.42225 
L -2.413935 23.647524 
L -2.332646 24.355231 
L -2.732514 24.759164 
L -2.129424 25.085014 
L -1.133051 24.540844 
L 1.105889 24.021615 
L 1.235564 25.791491 
L 1.799751 26.322986 
L 2.27123 26.134509 
L 3.618309 26.82341 
L 5.241773 26.858161 
L 6.375953 27.258416 
L 7.238393 26.847532 
L 7.523293 25.607103 
L 8.108964 25.504486 
L 8.311411 26.451771 
L 9.010112 26.898229 
L 9.824555 28.368422 
L 10.642864 28.244954 
L 11.024926 28.661973 
L 12.762968 29.269104 
L 13.212768 30.710273 
L 13.831342 30.726626 
L 14.902423 32.728928 
L 15.614675 32.890831 
L 17.076332 32.05434 
L 17.431297 32.275116 
L 17.237363 32.829097 
L 17.798258 32.975872 
L 17.918645 27.816487 
L 16.70124 28.166863 
L 16.796465 28.999268 
L 15.056488 28.70572 
L 13.992758 27.176238 
L 13.081737 26.70362 
L 12.511745 25.300882 
L 13.256124 22.598433 
L 13.799986 21.839625 
L 13.314188 20.164187 
L 13.795731 18.472398 
L 13.112123 16.836213 
L 12.499745 16.415515 
L 14.524623 14.413007 
L 14.509915 13.294824 
L 21.487245 12.1517 
L 22.541682 13.75845 
L 23.73896 13.706527 
L 24.434563 14.166882 
L 24.935072 14.995608 
L 25.923704 15.072876 
L 25.929124 15.583929 
L 27.746907 15.908552 
L 28.101291 16.361138 
L 29.609979 16.953142 
L 29.857332 17.825611 
L 30.563389 17.722175 
L 31.192798 18.628577 
L 31.045318 19.547653 
L 31.903694 20.209979 
L 32.431495 21.577966 
L 31.782727 22.338004 
L 30.777451 22.789363 
L 31.370473 23.903048 
L 30.768934 24.898989 
L 30.702742 25.48159 
L 31.017834 25.599334 
L 31.082479 26.305814 
L 30.852934 27.758839 
L 31.215251 28.504161 
L 31.88066 28.613729 
L 31.218734 29.314077 
L 29.999393 29.630521 
L 29.685852 30.252367 
L 29.957202 30.835379 
L 29.899524 31.963578 
L 29.206242 33.252247 
L 28.645347 33.521676 
L 29.04444 33.721598 
L 29.018893 34.237148 
L 29.435015 34.408861 
L 29.905718 35.318127 
L 30.431778 34.821794 
L 30.665581 35.173396 
L 19.473591 39.000978 
L 20.207326 41.568096 
L 17.124333 41.668264 
L 14.671718 42.886612 
L 14.390304 43.269291 
L 14.390304 44.56573 
L 14.030305 45.135652 
L 10.493837 46.826218 
L 9.596558 48.422335 
L 7.866644 50.47554 
L 6.310728 51.215546 
L 4.482686 50.477993 
L 3.406184 50.937533 
L 2.495744 50.195894 
L 1.200339 50.313638 
L 0.082032 49.284994 
L -1.23834 48.933799 
L -2.975995 48.88269 
L -6.117633 49.52212 
L -10.887379 45.181852 
L -11.361566 43.600861 
z
" clip-path="url(#p430457eae7)" style="fill: #eeeeee; stroke: #000000; stroke-width: 0.3"/>
    <path d="M -18.86418 66.76749 
L -15.09468 66.622352 
L -15.131066 52.204944 
L -6.450531 50.937533 
L -5.262931 52.831288 
L -2.488644 50.767861 
L -1.687751 51.15054 
L -0.231127 50.104721 
L 0.916603 50.127209 
L 0.898794 50.946117 
L 3.466956 54.58604 
L 3.496376 55.30601 
L 4.271332 57.022332 
L 4.825651 57.180963 
L 4.858164 57.474103 
L 6.362792 58.566118 
L 8.190058 59.221082 
L 8.439539 60.814339 
L 10.049066 60.867082 
L 9.931006 63.090773 
L 11.143762 64.992298 
L 13.485669 65.368841 
L 15.070035 65.965343 
L 15.07681 66.847626 
L 16.236151 67.503409 
L 15.070035 67.650592 
L 14.664362 68.508749 
L 14.238951 68.714806 
L 12.31007 69.153495 
L 10.256936 71.593873 
L 9.711521 71.577927 
L 9.490108 72.147854 
L 7.911547 72.797505 
L 7.311359 73.563674 
L 6.831948 75.727064 
L 5.678413 76.49078 
L 5.203451 77.179681 
L 3.195992 77.635945 
L 3.071737 78.696892 
L 2.143101 81.082894 
L 1.660593 81.445537 
L -1.311112 81.889131 
L -2.532386 81.606213 
L -3.114573 81.108242 
L -4.083463 81.121328 
L -5.826927 79.748436 
L -7.432196 79.816713 
L -8.128961 80.535456 
L -8.631406 82.575579 
L -9.250755 83.408387 
L -10.362481 83.960327 
L -11.07628 85.031084 
L -12.114073 85.270666 
L -12.182586 85.77027 
L -12.548776 86.002084 
L -15.38345 85.752691 
L -16.195957 86.115741 
L -16.516082 84.539245 
L -15.631575 83.107482 
L -16.39376 81.086165 
L -16.324085 80.482713 
L -17.416455 78.763535 
L -18.852566 77.653118 
z
" clip-path="url(#p430457eae7)" style="fill: #eeeeee; stroke: #000000; stroke-width: 0.3"/>
    <path d="M 0.898794 50.946117 
L 0.916603 50.127209 
L 1.877946 50.397041 
L 2.495744 50.195894 
L 3.406184 50.937533 
L 4.482686 50.477993 
L 6.310728 51.215546 
L 7.514001 50.777675 
L 9.596558 48.422335 
L 10.493837 46.826218 
L 14.209142 44.953717 
L 14.390304 43.269291 
L 14.671718 42.886612 
L 17.124333 41.668264 
L 20.154487 41.590173 
L 20.178102 43.035021 
L 23.389414 43.122923 
L 23.930957 43.671998 
L 25.077523 43.891956 
L 25.824996 44.726813 
L 27.248915 44.817167 
L 28.677089 45.402628 
L 28.900053 45.833956 
L 29.788429 45.726429 
L 29.265081 46.729321 
L 29.987397 48.352832 
L 29.668818 48.957103 
L 29.998232 49.435444 
L 29.634368 50.834504 
L 29.737721 51.955551 
L 30.066555 52.334136 
L 29.42224 53.06106 
L 29.54127 54.005485 
L 28.750636 54.241796 
L 28.711928 54.719323 
L 29.366693 55.228741 
L 29.020054 56.732871 
L 29.277857 56.878828 
L 29.230823 57.564864 
L 29.693594 57.465922 
L 30.029202 57.999463 
L 29.933588 58.979866 
L 29.476821 59.260743 
L 28.677089 60.957029 
L 27.964841 61.23872 
L 28.000066 62.557236 
L 27.433751 63.339351 
L 27.835937 64.049918 
L 23.497801 68.336629 
L 21.808531 67.881586 
L 19.924943 68.128526 
L 17.767292 67.282632 
L 16.261893 67.52017 
L 15.07681 66.847626 
L 15.070035 65.965343 
L 13.485669 65.368841 
L 11.143762 64.992298 
L 9.931006 63.090773 
L 10.049066 60.867082 
L 8.439539 60.814339 
L 8.190058 59.221082 
L 6.362792 58.566118 
L 4.858164 57.474103 
L 4.825651 57.180963 
L 4.271332 57.022332 
L 3.496376 55.30601 
L 3.466956 54.58604 
z
" clip-path="url(#p430457eae7)" style="fill: #eeeeee; stroke: #000000; stroke-width: 0.3"/>
    <path d="M 19.473591 39.000978 
L 30.665581 35.173396 
L 32.321558 37.49889 
L 32.604522 37.055707 
L 33.841864 37.077373 
L 34.940429 36.650951 
L 35.592291 37.521379 
L 35.783127 40.146963 
L 34.525078 42.594291 
L 35.16688 43.266427 
L 35.24894 44.113547 
L 37.043113 45.960699 
L 37.840133 46.327021 
L 37.644266 47.420263 
L 38.490448 47.497535 
L 38.438964 45.802068 
L 37.891231 45.156914 
L 38.800124 43.587775 
L 39.324244 43.707976 
L 40.337651 43.197331 
L 40.545132 40.724654 
L 40.334168 39.754066 
L 40.783968 38.626887 
L 40.570293 37.691454 
L 37.712008 33.948506 
L 36.884404 33.203188 
L 36.050994 33.110381 
L 35.694097 32.451327 
L 35.50365 29.926113 
L 34.97759 27.995969 
L 35.961578 25.538826 
L 39.387727 25.674973 
L 40.492101 24.886722 
L 41.771825 25.540464 
L 41.890275 26.026168 
L 43.48587 26.104666 
L 44.21399 25.520021 
L 45.009074 25.485676 
L 45.41823 25.920275 
L 46.64686 26.097305 
L 47.94749 25.361797 
L 48.401163 24.374444 
L 49.594179 24.347461 
L 50.47675 24.886722 
L 51.989891 23.914496 
L 53.27039 23.940256 
L 54.245475 23.214151 
L 55.32159 22.984383 
L 58.035802 21.185109 
L 58.021169 21.535682 
L 58.576817 22.01277 
L 57.941618 22.31023 
L 58.446973 22.621851 
L 57.981851 23.076083 
L 58.020866 23.398329 
L 58.243976 23.306258 
L 58.020866 23.992599 
L 57.430169 24.50542 
L 57.868468 24.774869 
L 57.725212 25.822729 
L 58.072072 26.570235 
L 58.08975 28.015989 
L 57.813602 28.249705 
L 58.225081 28.738387 
L 57.914798 29.189078 
L 58.228736 29.303682 
L 58.546337 30.238225 
L 57.662729 30.933577 
L 57.934304 31.249384 
L 57.99709 30.957079 
L 58.353093 31.066532 
L 58.097675 33.182531 
L 58.353093 33.39854 
L 58.144005 33.680224 
L 58.560356 35.244771 
L 58.140957 35.769182 
L 58.339074 36.159998 
L 58.731653 35.840651 
L 58.918186 36.19026 
L 58.86698 36.463249 
L 58.506712 36.463249 
L 58.481109 37.358839 
L 58.7475 36.827664 
L 59.12545 36.743322 
L 59.279372 36.955792 
L 58.973966 37.234576 
L 59.227252 37.194658 
L 59.299792 37.907397 
L 58.843819 38.626891 
L 58.532315 38.495872 
L 59.022427 39.065351 
L 58.636555 38.981975 
L 58.790174 39.36281 
L 58.101331 39.592662 
L 58.044031 39.794506 
L 58.503663 39.725616 
L 58.676788 39.996029 
L 58.302804 41.021034 
L 56.367039 42.987338 
L 56.628554 42.976717 
L 56.095161 43.90997 
L 55.31244 44.224491 
L 55.404489 44.568625 
L 55.584322 44.730231 
L 52.862181 46.46314 
L 52.717401 46.921881 
L 51.116001 47.087027 
L 49.280514 48.123297 
L 48.935789 47.740211 
L 49.112265 48.118471 
L 45.597351 49.908039 
L 44.828043 50.990667 
L 44.468078 50.471082 
L 44.261425 50.457561 
L 44.80244 51.125872 
L 42.913615 53.142719 
L 42.668557 54.04636 
L 42.034276 53.687416 
L 42.142176 54.465824 
L 41.691989 54.503811 
L 41.606037 54.109134 
L 40.600514 54.705015 
L 37.871972 57.686343 
L 36.947828 58.312805 
L 35.998997 57.254643 
L 35.723763 57.20088 
L 36.564091 58.121582 
L 36.308059 58.393927 
L 36.554031 59.454988 
L 36.105979 59.452409 
L 36.435768 59.749223 
L 36.049897 60.340918 
L 36.334576 60.700508 
L 36.154747 60.993778 
L 36.422966 60.927463 
L 36.919176 61.674 
L 37.372104 61.741604 
L 37.537914 62.565405 
L 37.846979 62.676147 
L 37.458666 63.248526 
L 37.667757 64.082628 
L 37.872583 63.51572 
L 37.846979 64.301213 
L 38.412073 65.35712 
L 38.541916 68.302071 
L 38.872926 68.694177 
L 39.050317 67.237793 
L 39.272816 67.184355 
L 39.334693 67.991739 
L 39.462402 67.473444 
L 39.230146 69.494476 
L 39.411499 70.510786 
L 39.667223 70.383303 
L 39.189303 71.420218 
L 38.859207 73.679472 
L 38.826289 73.401332 
L 38.67176 73.395537 
L 38.641887 74.53611 
L 38.820806 74.060952 
L 39.142669 74.202277 
L 39.179246 73.815646 
L 39.37218 73.897092 
L 39.257884 75.077262 
L 37.795773 77.041636 
L 30.944553 79.806313 
L 31.101827 79.630541 
L 29.429712 80.78367 
L 28.734164 82.136712 
L 28.376334 82.465394 
L 28.09592 82.390064 
L 27.946874 82.526883 
L 29.316329 83.72991 
L 29.735729 82.899989 
L 29.505911 85.93508 
L 26.587566 85.910911 
L 26.425374 82.626684 
L 25.970929 82.422261 
L 25.808351 81.848248 
L 26.145121 81.151582 
L 26.110672 76.35014 
L 25.600871 74.402005 
L 24.391788 72.527669 
L 24.4245 71.341616 
L 23.461025 68.407766 
L 27.835937 64.049918 
L 27.433751 63.339351 
L 28.000066 62.557236 
L 27.964841 61.23872 
L 28.677089 60.957029 
L 29.476821 59.260743 
L 29.933588 58.979866 
L 30.029202 57.999463 
L 29.693594 57.465922 
L 29.230823 57.564864 
L 29.277857 56.878828 
L 29.020054 56.732871 
L 29.366693 55.228741 
L 28.711928 54.719323 
L 28.750636 54.241796 
L 29.54127 54.005485 
L 29.42224 53.06106 
L 30.066555 52.334136 
L 29.737721 51.955551 
L 29.634368 50.834504 
L 29.998232 49.435444 
L 29.668818 48.957103 
L 29.987397 48.352832 
L 29.265081 46.729321 
L 29.788429 45.726429 
L 28.900053 45.833956 
L 28.677089 45.402628 
L 27.248915 44.817167 
L 25.824996 44.726813 
L 25.077523 43.891956 
L 23.930957 43.671998 
L 23.389414 43.122923 
L 20.178102 43.035021 
L 20.141712 40.976092 
z
M 36.108287 27.508627 
L 36.232156 27.699558 
L 36.506989 27.366354 
L 36.251508 27.208537 
z
M 35.689452 27.251877 
L 35.940675 27.493912 
L 36.001836 27.156618 
z
" clip-path="url(#p430457eae7)" style="fill: #eeeeee; stroke: #000000; stroke-width: 0.3"/>
    <path d="M 39.025931 65.906002 
L 39.035687 65.471083 
L 39.155774 64.981115 
L 39.235022 65.348109 
z
" clip-path="url(#p430457eae7)" style="fill: #eeeeee; stroke: #000000; stroke-width: 0.3"/>
    <path d="M 55.454617 44.285715 
L 55.922916 44.225508 
L 55.668622 44.679229 
z
" clip-path="url(#p430457eae7)" style="fill: #eeeeee; stroke: #000000; stroke-width: 0.3"/>
    <path d="M 29.600398 82.593518 
L 29.841186 82.465394 
L 29.761332 82.76253 
z
" clip-path="url(#p430457eae7)" style="fill: #eeeeee; stroke: #000000; stroke-width: 0.3"/>
    <path d="M 21.613051 85.423981 
L 21.683695 84.160248 
L 22.864516 82.232149 
L 23.919343 81.54366 
L 25.541451 82.517112 
L 26.425374 82.626684 
L 26.310411 83.710115 
L 26.600727 84.891258 
L 26.587566 85.910911 
L 26.123833 85.785397 
L 26.042154 87.794855 
L 24.387724 87.773597 
L 22.947355 87.321007 
z
" clip-path="url(#p430457eae7)" style="fill: #eeeeee; stroke: #000000; stroke-width: 0.3"/>
    <path d="M 7.44239 97.091925 
L 8.746114 96.355195 
L 10.233708 94.093888 
L 11.230471 93.974506 
L 11.760014 93.27784 
L 13.555343 92.757381 
L 14.853266 94.095522 
L 16.092731 94.810586 
L 16.557629 95.809798 
L 15.351063 97.42268 
L 15.465255 98.09359 
L 14.159595 98.764907 
L 12.61742 98.981594 
L 11.931108 99.528628 
L 12.072783 99.804596 
L 11.649305 100.219977 
L 11.474727 101.017219 
L 10.219386 100.785817 
L 9.127596 99.637788 
L 8.805729 99.641467 
L 8.862632 98.975462 
z
" clip-path="url(#p430457eae7)" style="fill: #eeeeee; stroke: #000000; stroke-width: 0.3"/>
    <path d="M 68.194677 67.77283 
L 68.490023 67.63054 
L 68.284288 66.90364 
L 68.618953 65.850308 
L 69.130098 65.467542 
L 69.260552 64.033375 
L 70.403845 63.696322 
L 70.736378 62.345855 
L 72.880014 58.798908 
L 72.494139 57.959332 
L 72.901958 56.811998 
L 71.982997 55.248742 
L 72.068949 54.12169 
L 71.261543 52.511751 
L 71.238681 50.029727 
L 70.820499 49.147657 
L 72.718167 45.800624 
L 72.77059 43.804379 
L 74.357361 43.903855 
L 75.848123 42.729155 
L 75.966079 43.473121 
L 76.37207 43.24713 
L 76.271485 42.926498 
L 76.985625 42.80481 
L 77.115468 43.23522 
L 77.325777 42.253998 
L 78.403233 42.13682 
L 78.84336 42.483853 
L 78.861648 42.154201 
L 78.654995 42.208285 
L 79.135964 41.858035 
L 79.477948 41.912439 
L 79.372487 42.316132 
L 79.835778 42.940015 
L 80.039993 42.642884 
L 80.351497 42.858893 
L 79.715687 42.301001 
L 79.841875 41.567016 
L 82.151931 39.859215 
L 82.621013 40.355943 
L 82.184849 41.24831 
L 83.210489 40.788283 
L 82.550604 39.840219 
L 83.733825 38.641381 
L 83.40373 38.46883 
L 84.007228 37.775083 
L 84.277885 38.360663 
L 83.94322 39.49995 
L 85.326693 37.358839 
L 85.789374 37.926068 
L 85.9689 37.579679 
L 86.087466 38.134028 
L 86.135317 37.610906 
L 85.351989 37.276749 
L 85.161187 37.494044 
L 84.968556 36.884323 
L 85.303221 36.001612 
L 85.875023 36.03831 
L 85.787239 35.45885 
L 86.137755 35.674539 
L 86.021934 36.405625 
L 86.21365 36.156457 
L 86.266992 35.451124 
L 85.865877 35.134673 
L 86.150556 34.93186 
L 85.621429 34.265159 
L 85.728108 33.54888 
L 86.34258 33.209252 
L 86.807089 34.196269 
L 87.205155 34.320528 
L 87.334999 33.323855 
L 88.087236 33.222773 
L 87.892777 32.588585 
L 88.35241 32.924993 
L 89.008331 32.681297 
L 89.66456 30.417857 
L 89.408532 29.4405 
L 88.820577 28.927676 
L 89.628897 29.105378 
L 89.774288 28.525918 
L 90.58657 27.787103 
L 90.180275 27.596846 
L 90.436307 27.407557 
L 90.668559 27.626463 
L 90.513113 27.380515 
L 90.873385 27 
L 91.22908 27.990882 
L 90.820043 27.761671 
L 90.692031 28.085528 
L 91.140386 28.387813 
L 91.26017 28.088424 
L 91.540584 28.684304 
L 91.852088 28.702975 
L 91.668599 28.816934 
L 92.028257 29.113748 
L 91.93865 29.690633 
L 92.284289 30.390815 
L 92.618954 30.147764 
L 93.360524 31.296707 
L 94.112458 34.260653 
L 94.362695 38.087994 
L 95.412418 39.942591 
L 95.387728 40.828525 
L 94.838485 42.283615 
L 94.206945 42.969311 
L 93.465678 41.914694 
L 93.206909 40.744825 
L 92.5202 40.841401 
L 92.223023 41.228673 
L 92.579942 42.657045 
L 92.41535 43.373648 
L 93.014885 43.982725 
L 93.030432 45.164826 
L 92.547025 46.012773 
L 92.979226 46.303789 
L 92.110554 46.576782 
L 91.447317 48.108811 
L 91.740529 49.86458 
L 91.177267 52.618953 
L 88.897387 58.717783 
L 89.014429 59.000432 
L 86.842449 65.958475 
L 85.714393 68.6681 
L 85.105411 71.731194 
L 84.494598 73.089066 
L 84.47113 74.093465 
L 83.557349 75.743001 
L 82.813644 78.372466 
L 82.736834 78.154201 
L 82.208928 78.892051 
L 81.043992 79.359483 
L 79.485873 79.416142 
L 76.952404 80.847409 
L 75.459506 81 
L 74.23148 79.993026 
L 72.488959 79.647923 
L 72.215249 79.239405 
L 72.543517 79.505958 
L 72.621851 79.376544 
L 71.213078 78.628073 
L 70.799165 77.125336 
L 69.879897 76.00118 
L 69.699761 73.734521 
L 70.210907 72.55532 
L 69.723233 72.084668 
L 69.544011 71.020711 
L 68.712526 70.100333 
z
" clip-path="url(#p430457eae7)" style="fill: #eeeeee; stroke: #000000; stroke-width: 0.3"/>
    <path d="M 86.793373 32.208069 
L 87.278916 31.955041 
L 87.433141 32.776588 
L 86.92779 32.746971 
z
" clip-path="url(#p430457eae7)" style="fill: #eeeeee; stroke: #000000; stroke-width: 0.3"/>
    <path d="M 92.926188 47.359375 
L 93.042623 46.668208 
L 93.667455 45.761027 
z
" clip-path="url(#p430457eae7)" style="fill: #eeeeee; stroke: #000000; stroke-width: 0.3"/>
    <path d="M 163.797836 173.874771 
L 164.092268 173.785279 
L 164.039234 173.433095 
L 164.375731 173.471083 
L 163.958769 172.963088 
L 164.352262 172.870372 
L 164.797265 172.204637 
L 165.174908 172.489861 
L 164.394933 173.151736 
L 165.445872 172.673358 
L 165.14717 172.813714 
L 165.351995 172.962443 
L 164.737827 173.928854 
L 164.993858 174.009335 
L 165.134676 173.545123 
L 165.542188 174.050863 
L 166.379159 173.628824 
L 166.433414 173.923059 
L 166.946691 173.383517 
L 167.150906 174.063419 
L 166.236514 174.020925 
L 165.796691 174.300034 
L 166.507175 174.171586 
L 166.165802 174.293274 
L 166.739428 174.549522 
L 166.279185 174.657689 
L 167.741599 174.711452 
L 168.318277 174.201847 
L 169.210721 174.191867 
L 169.742286 173.784634 
L 170.439051 173.950425 
L 170.445451 174.787747 
L 169.650847 175.068462 
L 170.23118 175.308298 
L 169.563981 175.308298 
L 169.00803 174.911366 
L 167.818408 174.954824 
L 168.204283 175.119005 
L 168.103699 175.324069 
L 167.330124 175.171158 
L 167.786711 175.677543 
L 168.99706 176.015237 
L 168.667878 175.629895 
L 169.592326 175.669172 
L 169.69748 175.843654 
L 169.1013 176.015237 
L 169.399085 176.282755 
L 167.943375 176.257647 
L 167.504773 175.544264 
L 167.125303 175.567121 
L 167.416687 175.872306 
L 167.225273 176.201633 
L 166.498029 176.069 
L 165.590345 175.503381 
L 165.607413 175.837859 
L 165.277317 175.605753 
L 165.30292 176.040028 
L 165.05878 175.708445 
L 165.128275 176.119863 
L 164.834752 176.379331 
L 163.85666 176.241227 
L 164.370547 175.276426 
L 164.013934 175.018243 
L 164.454368 174.711452 
L 164.124883 174.771327 
L 163.856053 174.318381 
L 164.479971 174.144544 
z
" clip-path="url(#p430457eae7)" style="fill: #eeeeee; stroke: #000000; stroke-width: 0.3"/>
    <path d="M 165.458367 173.518081 
L 166.023157 173.113103 
L 165.918917 173.329434 
L 166.279185 173.288871 
L 165.572057 173.94431 
z
" clip-path="url(#p430457eae7)" style="fill: #eeeeee; stroke: #000000; stroke-width: 0.3"/>
    <path d="M 99.781375 163.200453 
L 100.079159 162.99893 
L 100.446746 163.193693 
L 100.406817 163.488894 
z
" clip-path="url(#p430457eae7)" style="fill: #eeeeee; stroke: #000000; stroke-width: 0.3"/>
    <path d="M 94.234683 161.95976 
L 94.581236 161.876704 
L 94.671761 162.162573 
L 94.330692 162.152593 
z
" clip-path="url(#p430457eae7)" style="fill: #eeeeee; stroke: #000000; stroke-width: 0.3"/>
    <path d="M 196.614998 132.849233 
L 196.758861 132.949675 
L 196.635418 132.966736 
z
" clip-path="url(#p430457eae7)" style="fill: #eeeeee; stroke: #000000; stroke-width: 0.3"/>
    <path d="M 196.591526 129.592341 
L 196.738744 129.34639 
L 196.893277 129.559825 
z
" clip-path="url(#p430457eae7)" style="fill: #eeeeee; stroke: #000000; stroke-width: 0.3"/>
    <path d="M 167.869004 175.5536 
L 168.544435 175.803092 
L 167.914117 175.605753 
z
" clip-path="url(#p430457eae7)" style="fill: #eeeeee; stroke: #000000; stroke-width: 0.3"/>
    <path d="M 166.739428 174.333836 
L 167.278311 174.171586 
L 167.075924 174.395001 
z
" clip-path="url(#p430457eae7)" style="fill: #eeeeee; stroke: #000000; stroke-width: 0.3"/>
    <path d="M 166.253582 172.894839 
L 166.685783 173.005581 
L 166.343193 173.034878 
z
" clip-path="url(#p430457eae7)" style="fill: #eeeeee; stroke: #000000; stroke-width: 0.3"/>
    <path d="M 165.277317 173.49426 
L 165.348336 173.20131 
L 165.652218 173.13628 
z
" clip-path="url(#p430457eae7)" style="fill: #eeeeee; stroke: #000000; stroke-width: 0.3"/>
    <path d="M 163.918533 171.927783 
L 164.05935 171.856958 
L 164.096841 171.959975 
z
" clip-path="url(#p430457eae7)" style="fill: #eeeeee; stroke: #000000; stroke-width: 0.3"/>
    <path d="M 163.403125 174.930037 
L 163.582344 174.819615 
L 163.889274 175.009873 
z
" clip-path="url(#p430457eae7)" style="fill: #eeeeee; stroke: #000000; stroke-width: 0.3"/>
    <path d="M 163.278461 172.137677 
L 163.337896 172.10677 
L 163.495171 172.167939 
z
" clip-path="url(#p430457eae7)" style="fill: #eeeeee; stroke: #000000; stroke-width: 0.3"/>
    <path d="M 110.48553 42.593306 
L 110.509608 42.57592 
L 110.511133 42.611012 
z
" clip-path="url(#p430457eae7)" style="fill: #eeeeee; stroke: #000000; stroke-width: 0.3"/>
    <path d="M 83.41958 25.488252 
L 83.463165 25.429338 
L 83.488768 25.505637 
z
" clip-path="url(#p430457eae7)" style="fill: #eeeeee; stroke: #000000; stroke-width: 0.3"/>
    <path d="M 66.327492 47.237367 
L 66.456422 47.225776 
L 66.430208 47.286941 
z
" clip-path="url(#p430457eae7)" style="fill: #eeeeee; stroke: #000000; stroke-width: 0.3"/>
    <path d="M 57.393899 68.187468 
L 57.569462 68.107632 
L 57.50454 68.199058 
z
" clip-path="url(#p430457eae7)" style="fill: #eeeeee; stroke: #000000; stroke-width: 0.3"/>
    <path d="M 55.106094 64.567766 
L 55.109143 64.557141 
L 55.116761 64.566156 
z
" clip-path="url(#p430457eae7)" style="fill: #eeeeee; stroke: #000000; stroke-width: 0.3"/>
    <path d="M 79.372487 16.86458 
L 80.451467 16.754162 
L 80.298459 17.026506 
L 79.718736 17.116967 
L 79.473682 17.128878 
z
" clip-path="url(#p430457eae7)" style="fill: #eeeeee; stroke: #000000; stroke-width: 0.3"/>
    <path d="M 113.80842 -1.826437 
L 114.007653 -2.215291 
L 114.318588 -1.25983 
L 114.094186 -1.644977 
z
" clip-path="url(#p430457eae7)" style="fill: #eeeeee; stroke: #000000; stroke-width: 0.3"/>
    <path d="M 117.018546 7.982725 
L 117.125835 7.863292 
L 117.069752 8.035519 
z
" clip-path="url(#p430457eae7)" style="fill: #eeeeee; stroke: #000000; stroke-width: 0.3"/>
    <path d="M 115.798407 -2.120447 
L 115.840838 -2.145345 
L 115.862523 -2.101527 
z
" clip-path="url(#p430457eae7)" style="fill: #eeeeee; stroke: #000000; stroke-width: 0.3"/>
    <path d="M 115.745264 -3.06329 
L 115.767549 -3.105949 
L 115.759193 -3.055936 
z
" clip-path="url(#p430457eae7)" style="fill: #eeeeee; stroke: #000000; stroke-width: 0.3"/>
    <path d="M 115.575356 -3.1236 
L 115.611566 -3.138312 
L 115.617136 -3.107421 
z
" clip-path="url(#p430457eae7)" style="fill: #eeeeee; stroke: #000000; stroke-width: 0.3"/>
    <path d="M 115.561428 -3.317766 
L 115.576746 -3.267753 
L 115.562821 -3.266285 
z
" clip-path="url(#p430457eae7)" style="fill: #eeeeee; stroke: #000000; stroke-width: 0.3"/>
    <path d="M 115.395696 -2.967679 
L 115.514075 -2.995626 
L 115.45558 -2.925019 
z
" clip-path="url(#p430457eae7)" style="fill: #eeeeee; stroke: #000000; stroke-width: 0.3"/>
    <path d="M 114.982064 -3.344246 
L 115.086514 -3.33836 
L 115.048911 -3.282464 
z
" clip-path="url(#p430457eae7)" style="fill: #eeeeee; stroke: #000000; stroke-width: 0.3"/>
    <path d="M 114.840161 -3.266823 
L 115.251635 -3.131618 
L 115.147092 -3.021517 
z
" clip-path="url(#p430457eae7)" style="fill: #eeeeee; stroke: #000000; stroke-width: 0.3"/>
    <path d="M 114.775943 -3.132425 
L 114.796835 -3.117718 
L 114.777336 -3.114775 
z
" clip-path="url(#p430457eae7)" style="fill: #eeeeee; stroke: #000000; stroke-width: 0.3"/>
    <path d="M 114.773157 -3.59725 
L 114.81494 -3.606076 
L 114.833045 -3.600189 
z
" clip-path="url(#p430457eae7)" style="fill: #eeeeee; stroke: #000000; stroke-width: 0.3"/>
    <path d="M 114.74537 -5.225774 
L 114.774632 -5.265691 
L 114.797793 -5.183921 
z
" clip-path="url(#p430457eae7)" style="fill: #eeeeee; stroke: #000000; stroke-width: 0.3"/>
    <path d="M 114.714666 -3.057408 
L 114.73416 -3.060351 
L 114.74252 -3.041229 
z
" clip-path="url(#p430457eae7)" style="fill: #eeeeee; stroke: #000000; stroke-width: 0.3"/>
    <path d="M 114.195643 -1.962145 
L 114.219685 -1.967916 
L 114.218044 -1.948873 
z
" clip-path="url(#p430457eae7)" style="fill: #eeeeee; stroke: #000000; stroke-width: 0.3"/>
    <path d="M 114.164505 -2.007731 
L 114.19073 -2.072361 
L 114.23061 -2.063706 
z
" clip-path="url(#p430457eae7)" style="fill: #eeeeee; stroke: #000000; stroke-width: 0.3"/>
    <path d="M 114.146475 -1.930407 
L 114.191819 -1.948295 
L 114.198378 -1.909058 
z
" clip-path="url(#p430457eae7)" style="fill: #eeeeee; stroke: #000000; stroke-width: 0.3"/>
    <path d="M 113.792783 -1.775689 
L 113.827611 -1.769197 
L 113.82215 -1.749723 
z
" clip-path="url(#p430457eae7)" style="fill: #eeeeee; stroke: #000000; stroke-width: 0.3"/>
    <path d="M 113.726738 2.937872 
L 113.734056 2.940123 
L 113.727348 2.954288 
z
" clip-path="url(#p430457eae7)" style="fill: #eeeeee; stroke: #000000; stroke-width: 0.3"/>
    <path d="M 113.65961 -1.813917 
L 113.704 -1.803098 
L 113.700588 -1.797327 
z
" clip-path="url(#p430457eae7)" style="fill: #eeeeee; stroke: #000000; stroke-width: 0.3"/>
    <path d="M 113.148236 -2.679361 
L 113.277469 -2.607896 
L 113.157989 -2.510999 
z
" clip-path="url(#p430457eae7)" style="fill: #eeeeee; stroke: #000000; stroke-width: 0.3"/>
    <path d="M 106.078778 1.222345 
L 106.092801 1.217194 
L 106.104382 1.260973 
z
" clip-path="url(#p430457eae7)" style="fill: #eeeeee; stroke: #000000; stroke-width: 0.3"/>
    <path d="M 103.846449 7.405516 
L 103.866566 7.448013 
L 103.847667 7.434813 
z
" clip-path="url(#p430457eae7)" style="fill: #eeeeee; stroke: #000000; stroke-width: 0.3"/>
    <path d="M 84.241312 18.101409 
L 84.262342 18.086598 
L 84.273009 18.109134 
z
" clip-path="url(#p430457eae7)" style="fill: #eeeeee; stroke: #000000; stroke-width: 0.3"/>
    <path d="M 80.39234 18.310658 
L 80.41977 18.227923 
L 80.470977 18.292631 
z
" clip-path="url(#p430457eae7)" style="fill: #eeeeee; stroke: #000000; stroke-width: 0.3"/>
    <path d="M 79.776343 16.630864 
L 80.195439 16.675287 
L 80.016828 16.751907 
z
" clip-path="url(#p430457eae7)" style="fill: #eeeeee; stroke: #000000; stroke-width: 0.3"/>
    <path d="M 120.947679 60.610687 
L 121.293318 59.646852 
L 122.028795 58.784422 
L 122.340295 58.852992 
L 122.774935 59.734417 
L 122.312254 60.750726 
L 121.210719 60.858893 
z
" clip-path="url(#p430457eae7)" style="fill: #eeeeee; stroke: #000000; stroke-width: 0.3"/>
    <path d="M 143.511173 57.810602 
L 143.724227 57.606183 
L 144.05036 57.57882 
L 143.638882 57.93229 
z
" clip-path="url(#p430457eae7)" style="fill: #eeeeee; stroke: #000000; stroke-width: 0.3"/>
    <path d="M 118.033518 20.6916 
L 118.055462 20.576673 
L 118.18165 20.903425 
z
" clip-path="url(#p430457eae7)" style="fill: #eeeeee; stroke: #000000; stroke-width: 0.3"/>
    <path d="M 68.175474 26.219016 
L 68.395539 24.752657 
L 68.838711 24.834103 
L 68.772265 25.644707 
L 68.999034 26.93626 
z
" clip-path="url(#p430457eae7)" style="fill: #eeeeee; stroke: #000000; stroke-width: 0.3"/>
    <path d="M 71.878146 27.842152 
L 72.504199 27.920378 
L 72.854411 27.461641 
L 73.020828 28.711346 
z
" clip-path="url(#p430457eae7)" style="fill: #eeeeee; stroke: #000000; stroke-width: 0.3"/>
    <path d="M 69.740911 28.144117 
L 70.573921 28.675933 
L 69.851245 28.601248 
z
" clip-path="url(#p430457eae7)" style="fill: #eeeeee; stroke: #000000; stroke-width: 0.3"/>
   </g>
   <g id="PatchCollection_2">
    <path d="M 68.194677 67.77283 
L 68.490023 67.63054 
L 68.284288 66.90364 
L 68.618953 65.850308 
L 69.130098 65.467542 
L 69.260552 64.033375 
L 70.403845 63.696322 
L 70.736378 62.345855 
L 72.880014 58.798908 
L 72.494139 57.959332 
L 72.901958 56.811998 
L 71.982997 55.248742 
L 72.068949 54.12169 
L 71.261543 52.511751 
L 71.238681 50.029727 
L 70.820499 49.147657 
L 72.718167 45.800624 
L 72.77059 43.804379 
L 74.357361 43.903855 
L 75.848123 42.729155 
L 75.966079 43.473121 
L 76.37207 43.24713 
L 76.271485 42.926498 
L 76.985625 42.80481 
L 77.115468 43.23522 
L 77.325777 42.253998 
L 78.403233 42.13682 
L 78.84336 42.483853 
L 78.861648 42.154201 
L 78.654995 42.208285 
L 79.135964 41.858035 
L 79.477948 41.912439 
L 79.372487 42.316132 
L 79.835778 42.940015 
L 80.039993 42.642884 
L 80.351497 42.858893 
L 79.715687 42.301001 
L 79.841875 41.567016 
L 82.151931 39.859215 
L 82.621013 40.355943 
L 82.184849 41.24831 
L 83.210489 40.788283 
L 82.550604 39.840219 
L 83.733825 38.641381 
L 83.40373 38.46883 
L 84.007228 37.775083 
L 84.277885 38.360663 
L 83.94322 39.49995 
L 85.326693 37.358839 
L 85.789374 37.926068 
L 85.9689 37.579679 
L 86.087466 38.134028 
L 86.135317 37.610906 
L 85.351989 37.276749 
L 85.161187 37.494044 
L 84.968556 36.884323 
L 85.303221 36.001612 
L 85.875023 36.03831 
L 85.787239 35.45885 
L 86.137755 35.674539 
L 86.021934 36.405625 
L 86.21365 36.156457 
L 86.266992 35.451124 
L 85.865877 35.134673 
L 86.150556 34.93186 
L 85.621429 34.265159 
L 85.728108 33.54888 
L 86.34258 33.209252 
L 86.807089 34.196269 
L 87.205155 34.320528 
L 87.334999 33.323855 
L 88.087236 33.222773 
L 87.892777 32.588585 
L 88.35241 32.924993 
L 89.008331 32.681297 
L 89.66456 30.417857 
L 89.408532 29.4405 
L 88.820577 28.927676 
L 89.628897 29.105378 
L 89.774288 28.525918 
L 90.58657 27.787103 
L 90.180275 27.596846 
L 90.436307 27.407557 
L 90.668559 27.626463 
L 90.513113 27.380515 
L 90.873385 27 
L 91.22908 27.990882 
L 90.820043 27.761671 
L 90.692031 28.085528 
L 91.140386 28.387813 
L 91.26017 28.088424 
L 91.540584 28.684304 
L 91.852088 28.702975 
L 91.668599 28.816934 
L 92.028257 29.113748 
L 91.93865 29.690633 
L 92.284289 30.390815 
L 92.618954 30.147764 
L 93.360524 31.296707 
L 94.112458 34.260653 
L 94.362695 38.087994 
L 95.412418 39.942591 
L 95.387728 40.828525 
L 94.838485 42.283615 
L 94.206945 42.969311 
L 93.465678 41.914694 
L 93.206909 40.744825 
L 92.5202 40.841401 
L 92.223023 41.228673 
L 92.579942 42.657045 
L 92.41535 43.373648 
L 93.014885 43.982725 
L 93.030432 45.164826 
L 92.547025 46.012773 
L 92.979226 46.303789 
L 92.110554 46.576782 
L 91.447317 48.108811 
L 91.740529 49.86458 
L 91.177267 52.618953 
L 88.897387 58.717783 
L 89.014429 59.000432 
L 86.842449 65.958475 
L 85.714393 68.6681 
L 85.105411 71.731194 
L 84.494598 73.089066 
L 84.47113 74.093465 
L 83.557349 75.743001 
L 82.813644 78.372466 
L 82.736834 78.154201 
L 82.208928 78.892051 
L 81.043992 79.359483 
L 79.485873 79.416142 
L 76.952404 80.847409 
L 75.459506 81 
L 74.23148 79.993026 
L 72.488959 79.647923 
L 72.215249 79.239405 
L 72.543517 79.505958 
L 72.621851 79.376544 
L 71.213078 78.628073 
L 70.799165 77.125336 
L 69.879897 76.00118 
L 69.699761 73.734521 
L 70.210907 72.55532 
L 69.723233 72.084668 
L 69.544011 71.020711 
L 68.712526 70.100333 
z
" clip-path="url(#p430457eae7)" style="fill: #ff6b6b; stroke: #dd0000; stroke-width: 0.5"/>
    <path d="M 86.793373 32.208069 
L 87.278916 31.955041 
L 87.433141 32.776588 
L 86.92779 32.746971 
z
" clip-path="url(#p430457eae7)" style="fill: #ff6b6b; stroke: #dd0000; stroke-width: 0.5"/>
    <path d="M 92.926188 47.359375 
L 93.042623 46.668208 
L 93.667455 45.761027 
z
" clip-path="url(#p430457eae7)" style="fill: #ff6b6b; stroke: #dd0000; stroke-width: 0.5"/>
   </g>
  </g>
 </g>
 <defs>
  <clipPath id="p430457eae7">
   <rect x="0" y="0" width="163.607094" height="108"/>
  </clipPath>
 </defs>
</svg>
