<?xml version="1.0" encoding="utf-8" standalone="no"?>
<!DOCTYPE svg PUBLIC "-//W3C//DTD SVG 1.1//EN"
  "http://www.w3.org/Graphics/SVG/1.1/DTD/svg11.dtd">
<svg xmlns:xlink="http://www.w3.org/1999/xlink" width="139.928929pt" height="108pt" viewBox="0 0 139.928929 108" xmlns="http://www.w3.org/2000/svg" version="1.1">
 <metadata>
  <rdf:RDF xmlns:dc="http://purl.org/dc/elements/1.1/" xmlns:cc="http://creativecommons.org/ns#" xmlns:rdf="http://www.w3.org/1999/02/22-rdf-syntax-ns#">
   <cc:Work>
    <dc:type rdf:resource="http://purl.org/dc/dcmitype/StillImage"/>
    <dc:date>2025-09-05T15:49:29.253494</dc:date>
    <dc:format>image/svg+xml</dc:format>
    <dc:creator>
     <cc:Agent>
      <dc:title>Matplotlib v3.10.3, https://matplotlib.org/</dc:title>
     </cc:Agent>
    </dc:creator>
   </cc:Work>
  </rdf:RDF>
 </metadata>
 <defs>
  <style type="text/css">*{stroke-linejoin: round; stroke-linecap: butt}</style>
 </defs>
 <g id="figure_1">
  <g id="patch_1">
   <path d="M 0 108 
L 139.928929 108 
L 139.928929 0 
L 0 0 
z
" style="fill: #ffffff"/>
  </g>
  <g id="axes_1">
   <g id="PatchCollection_1">
    <path d="M -85.104081 111.634397 
L -84.370467 104.955516 
L -78.785666 100.790285 
L -77.292818 96.068561 
L -68.16801 89.57732 
L -66.726404 77.889092 
L -63.777957 73.045846 
L -66.863816 70.726322 
L -65.901957 64.803122 
L -68.05622 56.738688 
L -65.436159 39.968511 
L -69.667866 37.31247 
L -63.798913 33.506044 
L -64.187848 30.130999 
L -59.036239 28.671424 
L -59.919906 25.800918 
L -54.92004 24.68874 
L -46.214926 17.610732 
L -34.183268 14.511623 
L -31.608613 14.967937 
L -33.570774 18.181416 
L -32.576849 19.8923 
L -30.359784 19.156321 
L -32.49433 17.783957 
L -31.07679 16.783006 
L -22.296503 19.149531 
L -25.542353 19.7021 
L -23.312444 20.84344 
L -24.319191 23.365075 
L -20.605717 27.449273 
L -24.181666 29.750125 
L -20.422336 31.598031 
L -16.740388 30.913199 
L -15.247315 27.563644 
L -4.745077 21.882904 
L -2.95343 28.179381 
L -10.403496 39.370277 
L -16.014459 41.447008 
L -17.732285 48.814866 
L -14.411104 56.325173 
L -4.971273 62.026088 
L -4.943443 70.465996 
L -2.308622 73.685014 
L -14.975759 92.4419 
L -25.573517 98.538436 
L -28.311408 102.851376 
L -26.822346 109.09601 
L -20.987171 115.869419 
L -17.403899 117.419544 
L -12.280209 115.755049 
L -13.239297 120.244609 
L -11.796091 122.125379 
L -7.935922 120.411072 
L -7.332577 117.72072 
L -4.930283 118.233662 
L -3.594992 125.295809 
L 0.723358 127.446032 
L -2.883755 126.761005 
L -1.849494 129.553261 
L 3.864673 130.04127 
L 2.034538 128.223919 
L 5.487024 130.384215 
L 4.243468 145.501946 
L 6.416367 151.169885 
L -8.752032 159.450733 
L -11.013444 163.12918 
L -14.774689 164.54565 
L -17.187461 170.369617 
L -22.481146 172.145589 
L -26.035124 179.138668 
L -22.707048 195.484645 
L -31.328809 209.026483 
L -39.251862 212.53958 
L -49.948702 161.25545 
L -66.032383 148.572115 
L -67.122325 139.980658 
L -71.54032 132.8035 
L -79.693963 128.987725 
L -80.411262 122.790565 
z
" clip-path="url(#pce7790bd59)" style="fill: #eeeeee; stroke: #000000; stroke-width: 0.3"/>
    <path d="M -11.843773 110.806893 
L -4.53603 113.14509 
L -8.423736 117.613752 
L -9.811914 115.118692 
L -11.75046 115.517347 
z
" clip-path="url(#pce7790bd59)" style="fill: #eeeeee; stroke: #000000; stroke-width: 0.3"/>
    <path d="M -2.9489 89.142184 
L -0.165424 84.61937 
L 0.798238 87.322216 
z
" clip-path="url(#pce7790bd59)" style="fill: #eeeeee; stroke: #000000; stroke-width: 0.3"/>
    <path d="M -6.18461 88.905957 
L -3.397415 89.24751 
L -4.639799 90.320089 
z
" clip-path="url(#pce7790bd59)" style="fill: #eeeeee; stroke: #000000; stroke-width: 0.3"/>
    <path d="M -104.982785 -201.380212 
L -93.58843 -205.714384 
L -92.409975 -209.936411 
L -96.418102 -212.724744 
L -96.855935 -216.331285 
L -100.943223 -220.136291 
L -95.533083 -224.249041 
L -92.570687 -222.892984 
L -83.837135 -225.886933 
L -77.017995 -224.080796 
L -71.004667 -229.861631 
L -71.52867 -233.892401 
L -64.502264 -238.911822 
L -63.624253 -232.878593 
L -55.268009 -228.826257 
L -56.192597 -225.858187 
L -53.870637 -224.855873 
L -53.216207 -221.498108 
L -50.908218 -221.33991 
L -49.541132 -223.517097 
L -50.915204 -227.422755 
L -45.896342 -232.762108 
L -44.601454 -240.16937 
L -41.168595 -240.195973 
L -38.874577 -234.638731 
L -30.266809 -236.656996 
L -26.72216 -232.451498 
L -24.847363 -233.632131 
L -26.361167 -235.482848 
L -25.257254 -237.540655 
L -27.83538 -238.747168 
L -27.690982 -241.160164 
L -24.099756 -243.771598 
L -18.424121 -241.292456 
L -18.084107 -243.68102 
L -20.110287 -245.039943 
L -18.202883 -250.383609 
L -5.964296 -247.731185 
L -1.963155 -253.150375 
L 10.664367 -253.338739 
L 20.709098 -256.527563 
L 19.498037 -251.620314 
L 22.646765 -250.487155 
L 25.765231 -245.533183 
L 54.96783 -240.792036 
L 47.403427 -234.407208 
L 48.414185 -232.116457 
L 53.535531 -231.348532 
L 49.578669 -226.506733 
L 52.825217 -225.922886 
L 51.92625 -221.607386 
L 56.720359 -219.188657 
L 59.333434 -216.083955 
L 58.276099 -214.771059 
L 55.211444 -215.008872 
L 57.382675 -215.596531 
L 52.11229 -220.474478 
L 48.224607 -217.297257 
L 47.496582 -219.222162 
L 41.861283 -219.983074 
L 41.087424 -216.364233 
L 26.185849 -210.691424 
L 29.747106 -213.88676 
L 25.578853 -213.507445 
L 20.119589 -207.224326 
L 21.832368 -204.185213 
L 23.563489 -204.92122 
L 24.949865 -198.80679 
L 24.949865 -200.327474 
L 28.668836 -197.667704 
L 26.657145 -193.506507 
L 25.808091 -195.476714 
L 26.017138 -193.027542 
L 22.641087 -193.677478 
L 24.949865 -177.649791 
L 32.22277 -170.41325 
L 53.043886 -158.443715 
L 63.404926 -131.682947 
L 77.688487 -119.902499 
L 78.398169 -117.374074 
L 87.967007 -113.010211 
L 109.939764 -112.790541 
L 110.928191 -108.886358 
L 104.522683 -104.296035 
L 105.898039 -99.977446 
L 130.595842 -89.469712 
L 140.036305 -82.465307 
L 152.000091 -77.471848 
L 163.472435 -63.238861 
L 160.611689 -54.274434 
L 153.454316 -56.902508 
L 148.757914 -67.312875 
L 140.846849 -67.815604 
L 133.819676 -71.063033 
L 136.592405 -73.235935 
L 128.769357 -73.072867 
L 120.401666 -61.714783 
L 121.006813 -58.424305 
L 117.810493 -53.109301 
L 119.075816 -49.927545 
L 132.88443 -42.840465 
L 133.192513 -30.438408 
L 119.970727 -25.911476 
L 119.609464 -15.661896 
L 110.592593 -7.695025 
L 108.513053 -2.036937 
L 99.663068 -2.416252 
L 98.500432 -9.839599 
L 102.556826 -12.074778 
L 104.922457 -18.090671 
L 103.092299 -21.769508 
L 110.21301 -24.048822 
L 111.769899 -27.546502 
L 101.691276 -56.334078 
L 98.30788 -61.52909 
L 93.481615 -59.19671 
L 90.127242 -60.181632 
L 87.106956 -64.084675 
L 82.23817 -66.088859 
L 84.201413 -70.427539 
L 79.327918 -78.00516 
L 69.427155 -75.243487 
L 72.39061 -79.669656 
L 68.336041 -82.705346 
L 62.781368 -81.336711 
L 62.187533 -85.016606 
L 55.438834 -94.215173 
L 51.430121 -92.941318 
L 45.613267 -95.421073 
L 40.177843 -93.523328 
L 36.774279 -98.303907 
L 30.953773 -99.644547 
L 22.02492 -107.680486 
L 17.097478 -114.826421 
L 12.751343 -115.970043 
L 8.937008 -122.793264 
L 2.592004 -126.341897 
L -3.492576 -125.907094 
L -1.64865 -128.383871 
L -2.324441 -130.714832 
L -7.165713 -135.694683 
L -11.950133 -137.404454 
L -11.223933 -140.57263 
L -17.172836 -141.190871 
L -16.52733 -149.713706 
L -21.280562 -156.555042 
L -22.758628 -166.40605 
L -26.387735 -171.380252 
L -31.927693 -173.696938 
L -32.208262 -171.851286 
L -45.765645 -180.516764 
L -46.214926 -179.170475 
L -56.317412 -182.69871 
L -62.994318 -179.141033 
L -71.970831 -167.798783 
L -84.712171 -164.892156 
L -85.262449 -166.93171 
L -80.48346 -172.547889 
L -81.256666 -175.573478 
L -88.355294 -174.115323 
L -96.630033 -177.61548 
L -99.732184 -185.534655 
L -96.935119 -189.684776 
L -94.787842 -189.73225 
L -95.919697 -193.714127 
L -101.767671 -195.935866 
z
M 26.847331 -112.345498 
L 26.869955 -112.313134 
L 26.868784 -112.344023 
z
M 25.554404 -169.238433 
L 27.416447 -168.36546 
L 27.503721 -170.188961 
z
" clip-path="url(#pce7790bd59)" style="fill: #eeeeee; stroke: #000000; stroke-width: 0.3"/>
    <path d="M -70.177358 -75.871913 
L -69.14677 -86.18377 
L -66.506068 -83.035963 
L -61.767505 -82.376983 
L -54.962224 -85.726316 
L -45.765645 -94.500515 
L -41.445176 -92.221201 
L -40.983051 -89.751631 
L -38.353368 -90.701631 
L -39.427987 -87.64443 
L -36.031769 -87.265115 
L -39.600372 -85.157913 
L -34.649066 -82.876318 
L -36.138129 -81.622861 
L -32.928941 -72.04022 
L -36.853309 -66.685562 
L -34.462012 -61.700062 
L -38.199327 -35.689994 
L -39.277619 -34.446749 
L -50.649078 -38.880821 
L -49.163689 -37.78701 
L -50.383178 -31.406523 
L -54.269036 -28.142092 
L -57.349848 -29.661634 
L -59.053455 -27.761636 
L -60.887264 -33.115153 
L -65.095874 -37.716829 
L -63.491281 -52.603148 
L -61.848177 -51.075703 
L -60.747892 -51.046261 
L -62.130594 -51.614664 
L -60.9863 -55.2652 
L -64.606235 -56.934204 
L -64.996838 -60.303934 
L -62.455172 -62.271859 
L -64.936334 -72.407068 
L -66.927835 -75.931936 
z
" clip-path="url(#pce7790bd59)" style="fill: #eeeeee; stroke: #000000; stroke-width: 0.3"/>
    <path d="M 26.261045 1.938567 
L 27.746434 -4.306066 
L 32.516161 -6.793724 
L 33.128655 -9.074179 
L 36.944838 -4.490618 
L 40.555601 -6.032812 
L 41.446839 -8.999434 
L 46.341292 -9.849811 
L 47.991719 -6.580844 
L 56.992073 -2.975611 
L 62.16892 -5.083953 
L 73.237817 -4.944677 
L 82.14648 -8.932648 
L 86.221216 -7.278338 
L 89.584445 -11.078335 
L 90.816757 -9.470468 
L 98.924046 -11.370467 
L 89.041626 2.928193 
L 86.303736 10.830532 
L 86.573309 14.940777 
L 89.918195 16.946075 
L 88.374127 18.344457 
L 91.729988 23.794229 
L 87.809293 26.226399 
L 86.356916 33.719953 
L 72.687674 29.867863 
L 67.989447 22.8929 
L 55.303135 19.348803 
L 43.095442 10.56556 
L 31.49657 8.391545 
z
" clip-path="url(#pce7790bd59)" style="fill: #eeeeee; stroke: #000000; stroke-width: 0.3"/>
    <path d="M -26.022821 -136.095537 
L -25.43232 -137.612797 
L -18.438159 -138.545822 
L -19.065323 -134.745825 
z
" clip-path="url(#pce7790bd59)" style="fill: #eeeeee; stroke: #000000; stroke-width: 0.3"/>
    <path d="M -41.1151 -92.366126 
L -40.264198 -93.761113 
L -40.262372 -92.180434 
L -40.498933 -91.996996 
z
" clip-path="url(#pce7790bd59)" style="fill: #eeeeee; stroke: #000000; stroke-width: 0.3"/>
    <path d="M -68.31421 -36.345607 
L -66.605104 -36.916291 
L -66.605104 -34.446749 
L -67.756722 -34.518071 
z
" clip-path="url(#pce7790bd59)" style="fill: #eeeeee; stroke: #000000; stroke-width: 0.3"/>
    <path d="M 88.454799 -25.66576 
L 89.019611 -26.262491 
L 89.140663 -25.220772 
z
" clip-path="url(#pce7790bd59)" style="fill: #eeeeee; stroke: #000000; stroke-width: 0.3"/>
    <path d="M 83.074403 -14.741338 
L 84.405751 -14.219352 
L 83.943625 -13.84115 
z
" clip-path="url(#pce7790bd59)" style="fill: #eeeeee; stroke: #000000; stroke-width: 0.3"/>
    <path d="M 82.546254 -18.245809 
L 83.774914 -17.276553 
L 83.4815 -16.327694 
z
" clip-path="url(#pce7790bd59)" style="fill: #eeeeee; stroke: #000000; stroke-width: 0.3"/>
    <path d="M 79.593818 -19.61589 
L 81.24242 -19.880835 
L 81.123216 -18.716843 
z
" clip-path="url(#pce7790bd59)" style="fill: #eeeeee; stroke: #000000; stroke-width: 0.3"/>
    <path d="M 73.931005 -20.040481 
L 74.415123 -19.975949 
L 74.136401 -19.337338 
z
" clip-path="url(#pce7790bd59)" style="fill: #eeeeee; stroke: #000000; stroke-width: 0.3"/>
    <path d="M 69.430828 -18.938766 
L 69.755406 -19.048601 
L 69.837925 -18.710053 
z
" clip-path="url(#pce7790bd59)" style="fill: #eeeeee; stroke: #000000; stroke-width: 0.3"/>
    <path d="M 58.306925 -79.268802 
L 58.615009 -80.580029 
L 60.936608 -79.819117 
z
" clip-path="url(#pce7790bd59)" style="fill: #eeeeee; stroke: #000000; stroke-width: 0.3"/>
    <path d="M 48.518021 -81.233361 
L 48.730741 -81.633045 
L 48.906798 -81.667023 
z
" clip-path="url(#pce7790bd59)" style="fill: #eeeeee; stroke: #000000; stroke-width: 0.3"/>
    <path d="M 42.631491 -23.043362 
L 43.357669 -23.676296 
L 43.621743 -23.420396 
z
" clip-path="url(#pce7790bd59)" style="fill: #eeeeee; stroke: #000000; stroke-width: 0.3"/>
    <path d="M 35.69966 55.765815 
L 36.334169 55.661657 
L 36.301157 56.055693 
z
" clip-path="url(#pce7790bd59)" style="fill: #eeeeee; stroke: #000000; stroke-width: 0.3"/>
    <path d="M 28.494627 65.3949 
L 29.160301 65.26809 
L 30.409129 66.158066 
z
" clip-path="url(#pce7790bd59)" style="fill: #eeeeee; stroke: #000000; stroke-width: 0.3"/>
    <path d="M 23.882569 -208.185651 
L 25.408317 -210.565728 
L 26.349062 -210.068647 
z
" clip-path="url(#pce7790bd59)" style="fill: #eeeeee; stroke: #000000; stroke-width: 0.3"/>
    <path d="M 23.864249 -210.462683 
L 24.836159 -211.014111 
L 24.797648 -210.693678 
z
" clip-path="url(#pce7790bd59)" style="fill: #eeeeee; stroke: #000000; stroke-width: 0.3"/>
    <path d="M 23.391128 -1.462858 
L 23.719379 -2.21698 
L 24.949865 -1.629294 
z
" clip-path="url(#pce7790bd59)" style="fill: #eeeeee; stroke: #000000; stroke-width: 0.3"/>
    <path d="M 17.324868 -3.274533 
L 17.845671 -3.498738 
L 18.425153 -2.325674 
z
" clip-path="url(#pce7790bd59)" style="fill: #eeeeee; stroke: #000000; stroke-width: 0.3"/>
    <path d="M 14.94824 29.350413 
L 17.799815 29.951651 
L 17.328541 31.314943 
z
" clip-path="url(#pce7790bd59)" style="fill: #eeeeee; stroke: #000000; stroke-width: 0.3"/>
    <path d="M -9.008693 -125.211854 
L -7.252469 -124.220698 
L -7.622768 -123.888662 
z
" clip-path="url(#pce7790bd59)" style="fill: #eeeeee; stroke: #000000; stroke-width: 0.3"/>
    <path d="M -21.794042 -124.147512 
L -21.309902 -124.501922 
L -21.370428 -124.033141 
z
" clip-path="url(#pce7790bd59)" style="fill: #eeeeee; stroke: #000000; stroke-width: 0.3"/>
    <path d="M -27.295468 -131.213054 
L -26.638965 -132.103029 
L -26.495942 -130.949222 
z
" clip-path="url(#pce7790bd59)" style="fill: #eeeeee; stroke: #000000; stroke-width: 0.3"/>
    <path d="M -32.902036 -143.063877 
L -32.779316 -144.694646 
L -31.986506 -143.541145 
z
" clip-path="url(#pce7790bd59)" style="fill: #eeeeee; stroke: #000000; stroke-width: 0.3"/>
    <path d="M -42.556481 -93.589001 
L -41.628557 -94.494838 
L -42.055845 -93.052294 
z
" clip-path="url(#pce7790bd59)" style="fill: #eeeeee; stroke: #000000; stroke-width: 0.3"/>
    <path d="M -65.699197 -34.256521 
L -62.592719 -33.478634 
L -64.261489 -30.474639 
z
" clip-path="url(#pce7790bd59)" style="fill: #eeeeee; stroke: #000000; stroke-width: 0.3"/>
    <path d="M -68.772662 -87.074887 
L -66.146652 -90.701631 
L -67.943776 -87.014863 
z
" clip-path="url(#pce7790bd59)" style="fill: #eeeeee; stroke: #000000; stroke-width: 0.3"/>
    <path d="M 68.963204 52.692753 
L 74.055707 55.004931 
L 73.593582 57.476727 
L 71.271982 56.851695 
z
" clip-path="url(#pce7790bd59)" style="fill: #eeeeee; stroke: #000000; stroke-width: 0.3"/>
    <path d="M 65.873222 50.981869 
L 68.799991 50.523273 
L 69.238276 50.988659 
z
" clip-path="url(#pce7790bd59)" style="fill: #eeeeee; stroke: #000000; stroke-width: 0.3"/>
   </g>
   <g id="PatchCollection_2">
    <path d="M 68.963204 52.692753 
L 74.055707 55.004931 
L 73.593582 57.476727 
L 71.271982 56.851695 
z
" clip-path="url(#pce7790bd59)" style="fill: #ff6b6b; stroke: #dd0000; stroke-width: 1.5"/>
    <path d="M 65.873222 50.981869 
L 68.799991 50.523273 
L 69.238276 50.988659 
z
" clip-path="url(#pce7790bd59)" style="fill: #ff6b6b; stroke: #dd0000; stroke-width: 1.5"/>
   </g>
  </g>
 </g>
 <defs>
  <clipPath id="pce7790bd59">
   <rect x="0" y="0" width="139.928929" height="108"/>
  </clipPath>
 </defs>
</svg>
