<?xml version="1.0" encoding="utf-8" standalone="no"?>
<!DOCTYPE svg PUBLIC "-//W3C//DTD SVG 1.1//EN"
  "http://www.w3.org/Graphics/SVG/1.1/DTD/svg11.dtd">
<svg xmlns:xlink="http://www.w3.org/1999/xlink" width="166.579155pt" height="108pt" viewBox="0 0 166.579155 108" xmlns="http://www.w3.org/2000/svg" version="1.1">
 <metadata>
  <rdf:RDF xmlns:dc="http://purl.org/dc/elements/1.1/" xmlns:cc="http://creativecommons.org/ns#" xmlns:rdf="http://www.w3.org/1999/02/22-rdf-syntax-ns#">
   <cc:Work>
    <dc:type rdf:resource="http://purl.org/dc/dcmitype/StillImage"/>
    <dc:date>2025-09-05T15:57:05.746835</dc:date>
    <dc:format>image/svg+xml</dc:format>
    <dc:creator>
     <cc:Agent>
      <dc:title>Matplotlib v3.10.3, https://matplotlib.org/</dc:title>
     </cc:Agent>
    </dc:creator>
   </cc:Work>
  </rdf:RDF>
 </metadata>
 <defs>
  <style type="text/css">*{stroke-linejoin: round; stroke-linecap: butt}</style>
 </defs>
 <g id="figure_1">
  <g id="patch_1">
   <path d="M 0 108 
L 166.579155 108 
L 166.579155 0 
L 0 0 
z
" style="fill: #ffffff"/>
  </g>
  <g id="axes_1">
   <g id="PatchCollection_1">
    <path d="M -2510.55196 -2911.083149 
L -2509.850453 -2912.485896 
L -2509.067573 -2912.656406 
L -2510.124976 -2913.46321 
L -2509.704697 -2914.713029 
L -2507.932253 -2916.785506 
L -2507.049383 -2916.463795 
L -2507.35947 -2916.785506 
L -2506.695236 -2917.101902 
L -2504.621117 -2917.376136 
L -2501.904794 -2916.785506 
L -2503.174002 -2918.290162 
L -2499.942533 -2918.233915 
L -2501.081269 -2918.553854 
L -2501.337134 -2919.4398 
L -2494.797944 -2920.028659 
L -2495.626551 -2920.645642 
L -2492.159539 -2921.566752 
L -2490.322671 -2920.909334 
L -2490.629384 -2919.95483 
L -2487.945253 -2920.645642 
L -2485.933851 -2920.323974 
L -2486.735347 -2920.80384 
L -2485.106911 -2922.095822 
L -2481.16544 -2922.347203 
L -2480.531689 -2921.826902 
L -2480.219895 -2923.004621 
L -2476.781659 -2923.897608 
L -2475.980164 -2920.645642 
L -2473.367203 -2921.531587 
L -2473.963681 -2920.940957 
L -2471.689626 -2919.4398 
L -2471.947199 -2921.826902 
L -2471.096521 -2921.20992 
L -2471.082986 -2922.793675 
L -2470.24247 -2923.004621 
L -2469.957786 -2923.91519 
L -2460.573508 -2921.737262 
L -2459.980402 -2921.960477 
L -2460.393852 -2923.91519 
L -2458.221493 -2924.185882 
L -2460.437912 -2926.393704 
L -2458.816264 -2927.137262 
L -2457.679236 -2928.612067 
L -2452.778644 -2927.116138 
L -2447.027416 -2928.861677 
L -2445.787026 -2929.921632 
L -2444.846561 -2929.193885 
L -2445.710774 -2927.137262 
L -2445.40406 -2926.546632 
L -2442.274246 -2929.49447 
L -2440.029009 -2929.879426 
L -2439.998483 -2928.341333 
L -2439.429116 -2928.021437 
L -2441.44564 -2925.070056 
L -2438.947869 -2927.835115 
L -2436.56029 -2927.726122 
L -2437.985374 -2926.277669 
L -2433.43389 -2925.391723 
L -2433.999843 -2923.91519 
L -2429.014545 -2920.645642 
L -2428.431643 -2918.09857 
L -2424.310517 -2916.463795 
L -2425.162861 -2915.30893 
L -2422.992168 -2914.229621 
L -2422.732929 -2915.577893 
L -2420.396156 -2915.723779 
L -2418.28818 -2917.671408 
L -2413.712917 -2919.735115 
L -2414.87539 -2920.323974 
L -2410.659397 -2920.323974 
L -2407.738015 -2922.417533 
L -2406.318011 -2921.20992 
L -2408.33112 -2919.4398 
L -2407.595673 -2919.031992 
L -2405.026772 -2920.323974 
L -2403.474588 -2917.376136 
L -2402.596799 -2918.847398 
L -2401.824121 -2917.42357 
L -2401.200532 -2917.671408 
L -2401.742789 -2918.233915 
L -2401.281865 -2918.722594 
L -2399.753376 -2918.553854 
L -2400.607427 -2919.735115 
L -2396.755784 -2920.323974 
L -2394.612202 -2917.671408 
L -2394.920582 -2917.080821 
L -2393.592071 -2915.379259 
L -2393.754736 -2914.426526 
L -2392.050048 -2915.30893 
L -2393.212521 -2915.873208 
L -2393.754736 -2917.671408 
L -2392.616042 -2917.080821 
L -2394.595252 -2918.216333 
L -2395.77126 -2920.028659 
L -2393.988613 -2921.956978 
L -2392.310994 -2922.417533 
L -2388.06789 -2923.004621 
L -2387.75951 -2922.095822 
L -2388.794841 -2920.933915 
L -2388.78468 -2919.924936 
L -2386.080226 -2918.847398 
L -2379.747761 -2919.172608 
L -2377.072083 -2920.028659 
L -2367.779299 -2920.028659 
L -2369.363675 -2921.109696 
L -2371.390318 -2920.87417 
L -2371.912252 -2921.763614 
L -2373.864352 -2922.285686 
L -2374.4388 -2923.567128 
L -2375.985904 -2924.516362 
L -2376.533241 -2927.757744 
L -2378.039658 -2928.931963 
L -2377.022942 -2929.505011 
L -2376.406141 -2932.074936 
L -2375.535141 -2932.642714 
L -2376.379031 -2933.607758 
L -2375.658867 -2936.750731 
L -2374.084653 -2936.894846 
L -2375.823239 -2937.158539 
L -2377.061922 -2936.008944 
L -2377.649946 -2936.692714 
L -2377.473706 -2938.986677 
L -2378.239637 -2939.877893 
L -2376.646765 -2941.640971 
L -2377.473706 -2941.640971 
L -2378.351453 -2944.766362 
L -2375.769018 -2945.181211 
L -2378.619187 -2945.731406 
L -2378.944558 -2944.914019 
L -2380.910192 -2947.54019 
L -2380.340866 -2947.861858 
L -2382.043846 -2948.985101 
L -2382.359014 -2949.660101 
L -2381.50667 -2949.927293 
L -2382.045554 -2950.813238 
L -2382.696254 -2950.06441 
L -2385.226175 -2951.42845 
L -2384.912673 -2952.017309 
L -2386.93257 -2952.017309 
L -2387.054589 -2954.96869 
L -2389.772619 -2958.375355 
L -2388.06789 -2960.143704 
L -2387.891691 -2962.21441 
L -2389.140535 -2964.024965 
L -2392.310994 -2964.728088 
L -2391.877222 -2966.721422 
L -2387.888276 -2966.345237 
L -2386.93257 -2965.318675 
L -2378.632763 -2964.137458 
L -2378.195576 -2963.522203 
L -2374.230368 -2964.061858 
L -2371.908879 -2965.775731 
L -2369.98389 -2966.18004 
L -2363.885261 -2965.485686 
L -2362.416116 -2962.400731 
L -2363.925906 -2960.896032 
L -2365.483213 -2960.572594 
L -2365.684857 -2959.549574 
L -2363.824251 -2956.74408 
L -2360.247089 -2953.377893 
L -2360.509743 -2950.827278 
L -2359.24903 -2951.108554 
L -2358.047619 -2950.363224 
L -2357.237628 -2950.517923 
L -2357.359606 -2951.832758 
L -2355.939602 -2952.581587 
L -2350.44932 -2952.386453 
L -2345.523324 -2951.108554 
L -2328.406858 -2950.247232 
L -2320.425634 -2947.54019 
L -2310.749842 -2949.895627 
L -2304.524155 -2953.376122 
L -2294.157018 -2954.96869 
L -2290.7476 -2956.763434 
L -2293.706254 -2955.503074 
L -2300.58943 -2955.487262 
L -2306.937179 -2956.763434 
L -2308.096236 -2958.551136 
L -2305.835716 -2961.511286 
L -2304.1683 -2965.318675 
L -2301.463846 -2966.946408 
L -2286.43674 -2972.472984 
L -2283.183241 -2973.27456 
L -2279.597583 -2973.242894 
L -2260.42907 -2977.732368 
L -2250.658411 -2983.97965 
L -2249.367173 -2986.633944 
L -2247.943754 -2987.913614 
L -2241.633319 -2986.957382 
L -2242.799165 -2987.815162 
L -2241.945114 -2988.135101 
L -2243.592207 -2988.330235 
L -2247.089703 -2990.645237 
L -2246.67288 -2993.719651 
L -2245.818829 -2994.86929 
L -2244.222584 -2994.653074 
L -2246.520377 -2996.126107 
L -2245.757819 -2997.880416 
L -2245.517195 -3001.672037 
L -2244.222584 -3002.320642 
L -2245.574832 -3004.067909 
L -2246.188218 -3007.942128 
L -2244.419147 -3012.76908 
L -2245.462974 -3016.172203 
L -2242.433149 -3017.049379 
L -2239.247448 -3019.417128 
L -2231.269597 -3021.70055 
L -2222.413958 -3022.702488 
L -2214.832649 -3024.389966 
L -2211.985811 -3024.23004 
L -2206.265941 -3025.621771 
L -2204.800877 -3021.890846 
L -2202.65742 -3020.16073 
L -2202.52399 -3019.301266 
L -2203.970147 -3018.017621 
L -2203.148079 -3016.122307 
L -2203.561279 -3015.16236 
L -2202.158141 -3013.912195 
L -2199.183995 -3013.581802 
L -2195.232821 -3009.889368 
L -2191.062137 -3008.735194 
L -2187.541403 -3011.378386 
L -2180.969022 -3012.29591 
L -2178.481246 -3009.53219 
L -2176.673529 -3008.70396 
L -2176.200069 -3007.674806 
L -2176.781098 -3006.953712 
L -2175.063791 -3001.403938 
L -2171.314886 -2999.798798 
L -2166.481383 -3001.098082 
L -2165.611965 -3000.75205 
L -2166.081094 -2999.923819 
L -2165.564615 -2999.669328 
L -2161.019461 -2999.225102 
L -2159.517334 -2997.885643 
L -2158.794255 -2992.434062 
L -2157.330857 -2991.523234 
L -2154.90763 -2993.601629 
L -2151.361035 -2993.55251 
L -2149.041129 -2992.693003 
L -2144.569187 -2993.503392 
L -2140.630922 -2991.375878 
L -2139.490313 -2989.748448 
L -2138.724174 -2989.509595 
L -2137.927926 -2990.43157 
L -2136.477438 -2989.806509 
L -2136.322477 -2989.074269 
L -2138.345415 -2987.475869 
L -2139.468783 -2984.176339 
L -2137.187606 -2984.136163 
L -2135.960959 -2981.23848 
L -2138.986744 -2979.722635 
L -2139.223453 -2977.559438 
L -2136.331098 -2976.610637 
L -2133.146063 -2976.918739 
L -2126.586592 -2975.7132 
L -2117.810536 -2977.970184 
L -2116.682837 -2979.347616 
L -2116.308408 -2982.265387 
L -2110.743165 -2985.609542 
L -2110.553807 -2984.966597 
L -2108.397439 -2984.678626 
L -2108.771909 -2982.272083 
L -2109.473458 -2982.557808 
L -2110.256838 -2981.408126 
L -2110.278326 -2980.195934 
L -2112.060224 -2976.838344 
L -2108.883809 -2974.896158 
L -2109.938297 -2972.290896 
L -2109.348648 -2969.748187 
L -2107.88525 -2969.315107 
L -2104.269816 -2969.873208 
L -2099.651492 -2967.957806 
L -2096.005908 -2965.127083 
L -2092.265664 -2965.305672 
L -2090.591336 -2964.059957 
L -2090.655927 -2961.932486 
L -2089.115028 -2962.474949 
L -2086.317373 -2961.465883 
L -2084.311635 -2959.016918 
L -2084.066305 -2956.994381 
L -2080.257181 -2958.052522 
L -2077.980294 -2957.632834 
L -2076.215638 -2958.932117 
L -2073.482532 -2958.382915 
L -2071.980404 -2959.175419 
L -2070.133916 -2958.67093 
L -2068.098069 -2957.034557 
L -2064.409465 -2956.275533 
L -2063.053677 -2954.505197 
L -2058.168494 -2954.967307 
L -2056.950425 -2956.284432 
L -2055.478449 -2956.438483 
L -2055.749598 -2956.83588 
L -2053.356522 -2957.014469 
L -2047.86878 -2955.170477 
L -2044.644973 -2955.547742 
L -2040.108482 -2953.788595 
L -2039.811471 -2952.813053 
L -2037.358135 -2950.81056 
L -2038.279234 -2950.437744 
L -2038.244794 -2949.540307 
L -2034.777824 -2947.153853 
L -2033.073386 -2944.403525 
L -2032.160907 -2944.669162 
L -2031.691778 -2942.302795 
L -2027.193975 -2941.822843 
L -2026.475186 -2942.472442 
L -2026.707605 -2944.488326 
L -2023.337501 -2944.367798 
L -2019.377706 -2943.289526 
L -2018.917198 -2940.579374 
L -2018.000429 -2940.088234 
L -2016.722101 -2940.637392 
L -2016.446621 -2941.575005 
L -2013.317556 -2940.382901 
L -2008.346293 -2939.976605 
L -2007.399374 -2940.974525 
L -2005.862806 -2941.235712 
L -2005.156968 -2942.316187 
L -2002.677771 -2942.738122 
L -1999.944665 -2941.985794 
L -2000.155596 -2940.983424 
L -1998.081019 -2939.05463 
L -1994.426814 -2938.117018 
L -1993.329265 -2937.072226 
L -1987.553133 -2937.518698 
L -1980.963553 -2936.945002 
L -1974.361064 -2934.540662 
L -1969.785801 -2933.649922 
L -1974.365353 -2927.124562 
L -1976.5131 -2926.401264 
L -1977.408379 -2925.151099 
L -1979.371057 -2924.954626 
L -1979.827275 -2923.403098 
L -1984.27344 -2920.695192 
L -1986.029475 -2918.808778 
L -1986.386746 -2915.895456 
L -1985.896087 -2914.681018 
L -1987.436944 -2913.76129 
L -1989.025152 -2909.805422 
L -1988.508673 -2906.987011 
L -1990.5187 -2905.683278 
L -1991.155699 -2903.166187 
L -1994.228834 -2899.981656 
L -1995.382312 -2897.84412 
L -1995.795511 -2894.560229 
L -1993.996415 -2892.354566 
L -1993.906004 -2891.006208 
L -1995.412463 -2889.665626 
L -1996.49277 -2887.173115 
L -1996.367961 -2885.294563 
L -1997.164209 -2884.871506 
L -1997.870088 -2882.872382 
L -1997.37514 -2880.654451 
L -1998.455447 -2879.59631 
L -1998.205828 -2878.201037 
L -1995.188622 -2875.303354 
L -1995.367236 -2874.295541 
L -1999.669226 -2872.465934 
L -1998.735217 -2872.066334 
L -1998.903087 -2871.387662 
L -1999.910225 -2871.282773 
L -1999.596056 -2870.335094 
L -2000.306225 -2869.858469 
L -2002.518521 -2870.215646 
L -2002.027862 -2868.728875 
L -2004.007739 -2867.643907 
L -2009.857041 -2867.04563 
L -2012.762306 -2868.202008 
L -2012.241497 -2870.133048 
L -2019.364796 -2870.60747 
L -2020.884164 -2870.168774 
L -2020.148176 -2868.575947 
L -2022.851131 -2867.393866 
L -2022.915722 -2866.579027 
L -2025.325998 -2864.339928 
L -2019.605836 -2864.943778 
L -2017.92726 -2863.74947 
L -2018.250048 -2863.275048 
L -2021.495343 -2861.591803 
L -2021.594333 -2859.633979 
L -2032.694627 -2852.422128 
L -2033.254166 -2851.73568 
L -2032.754887 -2850.934234 
L -2033.706095 -2849.959771 
L -2036.484386 -2848.458485 
L -2042.983596 -2846.627885 
L -2043.603396 -2845.112083 
L -2042.811437 -2842.893029 
L -2044.046704 -2840.493182 
L -2043.401127 -2839.794466 
L -2043.543136 -2838.707251 
L -2050.326405 -2835.231379 
L -2056.485586 -2831.045602 
L -2055.349308 -2829.670416 
L -2058.745233 -2826.192298 
L -2058.603224 -2824.571563 
L -2059.158432 -2823.958771 
L -2055.792617 -2821.841323 
L -2057.501344 -2816.771501 
L -2062.128289 -2815.461029 
L -2063.299007 -2814.476544 
L -2062.128289 -2813.219683 
L -2063.131137 -2811.476174 
L -2055.573107 -2812.328942 
L -2049.706606 -2816.211154 
L -2049.921826 -2817.206784 
L -2051.522943 -2817.414403 
L -2052.499972 -2819.468261 
L -2050.210216 -2822.041123 
L -2048.858718 -2822.881622 
L -2044.855904 -2823.473203 
L -2041.30502 -2825.218958 
L -2035.860297 -2825.534837 
L -2028.640173 -2823.732187 
L -2028.846773 -2822.189558 
L -2030.16812 -2820.766378 
L -2026.948645 -2817.481406 
L -2029.531122 -2812.38925 
L -2029.169562 -2811.663706 
L -2025.218387 -2810.692613 
L -2026.079227 -2809.513858 
L -2025.980237 -2807.984664 
L -2023.307391 -2807.940038 
L -2020.285895 -2805.542395 
L -2018.852607 -2802.611232 
L -2021.895633 -2799.69791 
L -2025.041939 -2799.13536 
L -2025.417575 -2798.361691 
L -2026.295655 -2798.869378 
L -2028.067724 -2798.342856 
L -2028.820953 -2796.996701 
L -2028.270034 -2793.663691 
L -2026.307357 -2792.134454 
L -2021.297364 -2790.319493 
L -2021.732094 -2788.31255 
L -2020.488206 -2784.7206 
L -2016.773741 -2782.945814 
L -2015.740742 -2781.450101 
L -2013.080806 -2780.391917 
L -2015.917232 -2776.63477 
L -2015.258703 -2773.837526 
L -2017.462379 -2771.87076 
L -2018.534107 -2772.49811 
L -2021.491054 -2771.70336 
L -2023.36332 -2769.991085 
L -2025.041939 -2769.808003 
L -2024.908509 -2768.74092 
L -2026.264296 -2768.260968 
L -2030.74919 -2769.437434 
L -2036.316557 -2767.10904 
L -2034.906964 -2765.856629 
L -2034.278544 -2764.18008 
L -2031.287199 -2763.21793 
L -2031.10213 -2759.561222 
L -2030.37472 -2758.65709 
L -2026.139487 -2756.55191 
L -2022.575692 -2756.663539 
L -2020.488206 -2756.029493 
L -2019.476737 -2754.953467 
L -2019.838256 -2753.73013 
L -2017.47533 -2749.026427 
L -2021.443704 -2748.952728 
L -2022.506812 -2747.376662 
L -2022.037683 -2746.459138 
L -2026.612947 -2742.509966 
L -2025.549797 -2739.956069 
L -2023.19545 -2738.288462 
L -2024.886978 -2737.341907 
L -2025.347528 -2735.5158 
L -2020.488206 -2729.883384 
L -2017.85409 -2729.820874 
L -2013.735045 -2728.39212 
L -2006.891515 -2725.811438 
L -2005.987657 -2724.851491 
L -1992.468426 -2727.045965 
L -1993.040875 -2725.641792 
L -1990.95772 -2723.096837 
L -1991.039468 -2722.348958 
L -1992.563126 -2721.154608 
L -1993.497136 -2719.161058 
L -1999.871495 -2713.630248 
L -1998.854529 -2710.46399 
L -1999.932255 -2710.130011 
L -1999.932255 -2709.272232 
L -2001.554569 -2708.353195 
L -2002.824111 -2709.223459 
L -2003.633311 -2708.981237 
L -2006.007272 -2705.893517 
L -2009.058169 -2706.119194 
L -2011.285415 -2704.076352 
L -2011.581677 -2704.618814 
L -2013.457982 -2704.526107 
L -2014.518592 -2702.411986 
L -2013.987121 -2700.173664 
L -2016.089725 -2700.806717 
L -2018.222979 -2699.406605 
L -2018.496502 -2699.908805 
L -2021.351127 -2699.572622 
L -2022.233955 -2698.378272 
L -2021.675457 -2697.844579 
L -2024.18543 -2694.71353 
L -2025.479375 -2695.220438 
L -2026.157561 -2694.063326 
L -2028.807085 -2693.893032 
L -2029.888351 -2694.500078 
L -2030.968617 -2693.85899 
L -2031.522825 -2691.386093 
L -2033.324671 -2691.203659 
L -2036.809465 -2687.856394 
L -2032.541624 -2688.032434 
L -2033.583493 -2686.587955 
L -2033.106868 -2684.94709 
L -2036.018963 -2683.731182 
L -2036.71035 -2684.349936 
L -2038.932516 -2684.111213 
L -2040.357976 -2682.761947 
L -2044.6892 -2682.587722 
L -2046.171713 -2681.365032 
L -2045.784791 -2680.164331 
L -2049.740921 -2681.366371 
L -2053.371347 -2680.938994 
L -2055.038388 -2679.348974 
L -2055.055046 -2678.318222 
L -2053.695261 -2678.203181 
L -2053.917977 -2677.79183 
L -2057.730765 -2677.745477 
L -2055.917177 -2678.513962 
L -2056.041195 -2679.322838 
L -2056.850186 -2679.882451 
L -2060.292295 -2679.618024 
L -2060.729065 -2680.514035 
L -2064.16172 -2681.147218 
L -2063.877037 -2682.029621 
L -2066.439191 -2681.442533 
L -2063.441849 -2679.69505 
L -2066.608643 -2679.211858 
L -2067.388692 -2678.176613 
L -2070.50089 -2679.657898 
L -2068.992849 -2680.520688 
L -2069.268537 -2680.85052 
L -2070.740181 -2681.891035 
L -2074.064601 -2682.585 
L -2074.996612 -2684.011205 
L -2076.65016 -2684.328293 
L -2077.557724 -2683.170533 
L -2079.211606 -2683.547194 
L -2081.200311 -2685.425573 
L -2088.611917 -2685.566837 
L -2087.68861 -2687.921842 
L -2088.949115 -2690.681285 
L -2090.811053 -2691.59639 
L -2093.138747 -2690.411371 
L -2101.644987 -2690.732563 
L -2102.829781 -2692.72633 
L -2101.973481 -2693.923013 
L -2095.822337 -2694.742128 
L -2093.636403 -2696.988614 
L -2093.782118 -2698.011677 
L -2097.23218 -2697.225912 
L -2098.658972 -2699.266723 
L -2100.824585 -2699.48821 
L -2101.848089 -2700.370656 
L -2102.675029 -2698.602307 
L -2100.468771 -2695.751107 
L -2100.933069 -2694.784334 
L -2103.125709 -2694.154997 
L -2106.040386 -2695.253659 
L -2108.55165 -2694.446813 
L -2109.297258 -2693.581992 
L -2108.578428 -2692.012838 
L -2107.184452 -2692.092888 
L -2109.067921 -2691.004853 
L -2110.005553 -2692.741752 
L -2113.147236 -2694.485477 
L -2113.787774 -2695.624574 
L -2113.787774 -2698.897622 
L -2115.780519 -2701.256602 
L -2114.357142 -2699.045237 
L -2113.784359 -2694.49429 
L -2110.432162 -2692.101701 
L -2110.546269 -2691.202579 
L -2120.038907 -2691.787205 
L -2121.123629 -2692.271261 
L -2120.315095 -2693.703254 
L -2120.569545 -2694.818851 
L -2123.341547 -2695.93043 
L -2127.656447 -2695.582411 
L -2137.141797 -2696.27495 
L -2139.175229 -2697.28043 
L -2139.825929 -2698.292909 
L -2139.175229 -2699.256182 
L -2140.32071 -2700.080611 
L -2146.665044 -2699.565581 
L -2155.537633 -2694.07417 
L -2160.441598 -2692.435896 
L -2164.972759 -2688.382354 
L -2170.300377 -2688.50543 
L -2173.120063 -2687.605402 
L -2176.176998 -2685.71929 
L -2181.602898 -2680.832549 
L -2184.72759 -2673.767923 
L -2184.01588 -2672.228059 
L -2184.608985 -2660.215176 
L -2184.192121 -2657.010686 
L -2180.630242 -2655.716933 
L -2178.814946 -2651.680109 
L -2182.76383 -2651.494133 
L -2185.118176 -2653.156166 
L -2189.112369 -2653.35372 
L -2192.564264 -2652.409411 
L -2195.155361 -2650.838918 
L -2199.244255 -2650.58663 
L -2201.331742 -2649.146731 
L -2200.419263 -2647.685621 
L -2205.171016 -2648.257114 
L -2206.556955 -2647.108555 
L -2209.44069 -2648.244845 
L -2210.400519 -2649.615538 
L -2216.443469 -2651.556643 
L -2222.292771 -2651.020834 
L -2225.843656 -2648.261563 
L -2228.176472 -2648.103062 
L -2229.50644 -2648.904509 
L -2231.017188 -2651.913821 
L -2239.982645 -2654.368358 
L -2239.586644 -2656.735848 
L -2237.778927 -2657.37767 
L -2239.935295 -2658.508387 
L -2239.573735 -2659.385736 
L -2244.308289 -2659.742914 
L -2247.024154 -2661.092438 
L -2250.20061 -2660.750856 
L -2250.841898 -2659.048646 
L -2251.762998 -2658.760675 
L -2254.603714 -2662.706477 
L -2255.554922 -2663.040197 
L -2255.374142 -2663.654112 
L -2263.33242 -2663.570434 
L -2265.932096 -2666.360938 
L -2271.712517 -2667.432514 
L -2272.926296 -2666.924611 
L -2277.432679 -2668.966157 
L -2281.853023 -2669.612472 
L -2283.95342 -2669.259744 
L -2284.646389 -2666.506046 
L -2284.185839 -2666.018275 
L -2284.904628 -2665.214582 
L -2283.815659 -2664.571637 
L -2283.57466 -2663.222155 
L -2284.482808 -2662.609363 
L -2294.241307 -2662.513373 
L -2296.536476 -2664.03587 
L -2299.817294 -2661.927365 
L -2301.359234 -2663.727811 
L -2304.240803 -2664.423202 
L -2312.907126 -2662.638394 
L -2316.242832 -2664.007963 
L -2317.856859 -2665.902197 
L -2318.007529 -2667.399034 
L -2321.078499 -2667.005006 
L -2324.728374 -2669.436086 
L -2328.939953 -2667.196987 
L -2333.519505 -2667.945946 
L -2333.592675 -2666.917915 
L -2334.982903 -2666.417875 
L -2338.284169 -2669.750885 
L -2342.114823 -2671.263317 
L -2342.921857 -2673.928843 
L -2350.565925 -2673.989107 
L -2354.116809 -2675.665656 
L -2359.174153 -2676.48719 
L -2365.161174 -2678.62477 
L -2366.052123 -2679.8202 
L -2364.842675 -2680.956533 
L -2367.43373 -2680.261099 
L -2368.178339 -2677.679338 
L -2371.968098 -2678.187197 
L -2373.246426 -2679.774451 
L -2370.661826 -2682.08388 
L -2369.575022 -2685.171341 
L -2369.734272 -2686.751899 
L -2370.93081 -2687.688389 
L -2376.211952 -2688.512126 
L -2377.399911 -2687.109077 
L -2378.828869 -2686.9104 
L -2380.204021 -2689.093685 
L -2384.05404 -2688.811286 
L -2384.404856 -2690.001187 
L -2386.117873 -2690.97673 
L -2386.098508 -2692.413302 
L -2385.999643 -2692.915848 
L -2385.226175 -2692.490371 
L -2380.457763 -2693.506392 
L -2377.782085 -2695.357382 
L -2372.79 -2701.298765 
L -2367.343777 -2720.269094 
L -2364.656273 -2732.494651 
L -2363.22948 -2741.236258 
L -2363.64293 -2743.461662 
L -2360.697852 -2748.188434 
L -2357.10374 -2747.750731 
L -2354.79412 -2748.358944 
L -2355.649837 -2750.43492 
L -2360.103081 -2753.061091 
L -2362.660113 -2749.976136 
L -2363.773403 -2746.544846 
L -2361.236694 -2767.860115 
L -2359.504896 -2774.697984 
L -2358.759287 -2783.810506 
L -2356.481859 -2787.222398 
L -2355.370234 -2787.248794 
L -2355.526152 -2785.640371 
L -2354.594142 -2784.554064 
L -2349.40212 -2782.098403 
L -2343.19334 -2776.726526 
L -2341.102272 -2768.450746 
L -2339.695844 -2765.944066 
L -2334.979946 -2762.553254 
L -2334.461427 -2759.120237 
L -2333.551447 -2758.102488 
L -2334.125895 -2760.459696 
L -2333.731102 -2761.625146 
L -2336.113601 -2763.704621 
L -2331.848466 -2762.553254 
L -2332.897374 -2763.912067 
L -2336.362678 -2764.94917 
L -2338.604542 -2766.921422 
L -2341.25819 -2778.238224 
L -2344.413407 -2783.251498 
L -2356.420849 -2791.168675 
L -2359.149041 -2791.96848 
L -2361.018101 -2793.320251 
L -2363.22948 -2793.307939 
L -2362.521144 -2796.872803 
L -2359.752307 -2797.489786 
L -2355.314305 -2794.617504 
L -2352.396338 -2793.62965 
L -2358.150982 -2797.531992 
L -2359.24903 -2800.14408 
L -2355.985369 -2801.708525 
L -2355.86335 -2802.657758 
L -2356.668261 -2803.712443 
L -2355.810836 -2804.299574 
L -2357.542635 -2806.63393 
L -2355.970086 -2806.162834 
L -2354.958451 -2807.516333 
L -2356.437798 -2808.282744 
L -2356.97156 -2810.226917 
L -2358.303485 -2810.842128 
L -2357.803581 -2811.380011 
L -2361.709487 -2813.38043 
L -2360.641923 -2814.357744 
L -2360.409795 -2815.75345 
L -2357.542635 -2817.038434 
L -2357.542635 -2818.915776 
L -2358.447493 -2819.842114 
L -2360.311472 -2819.930026 
L -2361.85691 -2819.262067 
L -2361.809476 -2817.897984 
L -2362.929555 -2818.11947 
L -2364.483447 -2819.64348 
L -2368.348666 -2821.141138 
L -2371.617407 -2820.675355 
L -2372.979816 -2823.473765 
L -2378.985203 -2824.465162 
L -2378.632763 -2825.001317 
L -2379.310574 -2825.465371 
L -2384.627989 -2827.094875 
L -2385.795542 -2828.863224 
L -2385.485455 -2827.242533 
L -2386.054823 -2827.203869 
L -2387.190143 -2831.517518 
L -2390.823192 -2835.725717 
L -2392.761757 -2836.265371 
L -2396.66933 -2840.056992 
L -2399.521248 -2841.262834 
L -2399.938112 -2844.437429 
L -2398.587572 -2845.432368 
L -2398.829861 -2846.04408 
L -2396.625269 -2847.202488 
L -2394.188549 -2850.568675 
L -2395.825481 -2853.019066 
L -2404.616696 -2855.195266 
L -2401.454691 -2856.292114 
L -2401.261542 -2860.755235 
L -2395.181528 -2862.005011 
L -2391.121452 -2861.315971 
L -2390.34536 -2860.851917 
L -2391.195997 -2860.531978 
L -2386.410636 -2858.499936 
L -2383.207985 -2858.144875 
L -2385.756563 -2858.78471 
L -2390.645286 -2861.737819 
L -2394.996833 -2862.852293 
L -2400.742981 -2862.571018 
L -2406.168881 -2859.684696 
L -2407.738015 -2859.911453 
L -2410.042596 -2861.414381 
L -2413.24862 -2860.556602 
L -2417.146072 -2862.005011 
L -2414.400931 -2861.597203 
L -2412.740262 -2862.303869 
L -2414.590706 -2864.068675 
L -2415.468453 -2862.890957 
L -2416.014125 -2864.805235 
L -2417.745924 -2865.596227 
L -2414.431415 -2866.997203 
L -2412.858908 -2866.751136 
L -2412.858908 -2866.160506 
L -2410.893232 -2867.341723 
L -2413.238458 -2867.642309 
L -2412.858908 -2868.254064 
L -2414.9364 -2868.876317 
L -2414.590706 -2869.698974 
L -2415.178689 -2870.25971 
L -2409.730801 -2870.906587 
L -2416.125941 -2871.866362 
L -2420.894353 -2871.497218 
L -2419.535359 -2871.897984 
L -2418.59656 -2872.970251 
L -2421.155299 -2872.379621 
L -2420.302955 -2871.792533 
L -2422.290661 -2872.087848 
L -2422.924411 -2870.822218 
L -2428.604469 -2870.606002 
L -2432.44087 -2873.163614 
L -2430.61079 -2873.518675 
L -2429.997362 -2872.650355 
L -2428.573985 -2872.650355 
L -2428.289301 -2873.560882 
L -2425.452625 -2872.857758 
L -2423.253155 -2875.14995 
L -2423.059965 -2875.953254 
L -2423.998722 -2876.805806 
L -2423.544586 -2875.969066 
L -2424.310517 -2875.652669 
L -2423.717453 -2875.357354 
L -2424.085177 -2875.058539 
L -2426.865882 -2876.216947 
L -2425.162861 -2875.921632 
L -2425.655976 -2876.422622 
L -2427.438623 -2876.805806 
L -2426.865882 -2876.538614 
L -2432.864523 -2874.766723 
L -2432.583212 -2875.357354 
L -2433.718574 -2875.035686 
L -2433.43389 -2876.538614 
L -2435.165689 -2877.716333 
L -2434.704764 -2875.072622 
L -2433.43389 -2873.856197 
L -2433.718574 -2873.265566 
L -2435.990922 -2874.766723 
L -2435.745218 -2874.193675 
L -2436.362019 -2874.039019 
L -2436.711127 -2875.269485 
L -2436.873792 -2874.149741 
L -2439.295269 -2873.944066 
L -2441.354104 -2874.907382 
L -2441.354104 -2871.460282 
L -2439.74091 -2869.698974 
L -2441.704879 -2869.698974 
L -2442.274246 -2871.335477 
L -2441.704879 -2873.121408 
L -2442.099713 -2874.875717 
L -2444.573746 -2876.670461 
L -2443.980641 -2878.442309 
L -2440.850827 -2879.460101 
L -2441.135511 -2880.667714 
L -2442.015007 -2880.346046 
L -2442.015007 -2881.551888 
L -2444.265325 -2881.284696 
L -2442.845321 -2879.755416 
L -2444.856723 -2879.164786 
L -2444.265325 -2878.577698 
L -2445.556563 -2877.396437 
L -2447.134151 -2878.577698 
L -2451.140047 -2879.164786 
L -2447.98991 -2878.897594 
L -2451.140047 -2879.755416 
L -2447.98991 -2883.053088 
L -2452.177085 -2880.88043 
L -2451.399286 -2880.077083 
L -2454.812076 -2879.477683 
L -2458.221493 -2882.733149 
L -2462.254458 -2882.733149 
L -2465.628269 -2883.467894 
L -2466.338271 -2884.178059 
L -2468.510671 -2883.323779 
L -2471.689626 -2883.643675 
L -2473.111338 -2885.978074 
L -2476.275009 -2887.918704 
L -2477.376472 -2888.069861 
L -2477.000253 -2887.185686 
L -2478.235604 -2885.814605 
L -2479.08116 -2885.978074 
L -2477.945839 -2886.593285 
L -2479.392954 -2885.978074 
L -2482.302467 -2887.060882 
L -2483.370031 -2888.952307 
L -2483.808884 -2888.439005 
L -2482.495616 -2886.593285 
L -2484.225749 -2885.978074 
L -2485.594946 -2886.814771 
L -2485.362776 -2885.413795 
L -2484.225749 -2885.413795 
L -2485.577996 -2884.178059 
L -2493.349122 -2883.910867 
L -2493.349122 -2885.088629 
L -2492.342568 -2885.255597 
L -2492.328992 -2886.319094 
L -2493.355869 -2888.604245 
L -2495.965456 -2891.18821 
L -2500.073007 -2893.376722 
L -2501.686201 -2892.496046 
L -2502.933379 -2893.345056 
L -2508.188118 -2893.993704 
L -2507.049383 -2895.470237 
L -2489.74993 -2897.224546 
L -2489.346642 -2898.44447 
L -2490.456559 -2900.722622 
L -2493.111872 -2901.534696 
L -2493.659209 -2902.278254 
L -2498.081928 -2902.721227 
L -2500.005209 -2900.149574 
L -2501.081269 -2899.894651 
L -2500.510194 -2901.098765 
L -2501.337134 -2902.278254 
L -2500.652535 -2903.151888 
L -2503.948387 -2903.75483 
L -2503.948387 -2904.640776 
L -2501.818381 -2904.76908 
L -2500.632213 -2907.223013 
L -2499.942533 -2906.997984 
L -2500.486456 -2905.401917 
L -2499.334186 -2905.020461 
L -2495.626551 -2905.201512 
L -2494.064205 -2904.640776 
L -2488.80097 -2905.201512 
L -2489.937998 -2904.93432 
L -2489.082281 -2904.698794 
L -2485.672863 -2905.52495 
L -2491.38682 -2906.138434 
L -2489.083988 -2907.910282 
L -2496.760205 -2906.729064 
L -2494.38108 -2908.991362 
L -2489.937998 -2910.884515 
L -2502.824936 -2907.367128 
L -2506.622358 -2907.910282 
L -2507.203594 -2906.997984 
L -2509.863988 -2907.161453 
L -2510.487577 -2908.500912 
L -2509.713192 -2908.553659 
L -2509.779282 -2909.107354 
z
M -2230.182168 -2652.533309 
L -2228.017222 -2652.216307 
L -2229.329991 -2654.022326 
L -2229.803409 -2653.85268 
z
" clip-path="url(#pbf93691e24)" style="fill: #eeeeee; stroke: #000000; stroke-width: 0.3"/>
    <path d="M -4585.72806 -919.134734 
L -4584.456187 -920.087986 
L -4582.241725 -919.735258 
L -4580.651352 -923.057122 
L -4577.739632 -923.87196 
L -4575.746846 -925.939166 
L -4571.987196 -934.328606 
L -4567.192423 -941.892062 
L -4568.072627 -942.941304 
L -4566.891123 -946.339027 
L -4567.814346 -948.14509 
L -4567.149362 -948.70319 
L -4568.044642 -950.794978 
L -4567.476482 -951.384312 
L -4567.478648 -953.275176 
L -4567.932742 -953.898034 
L -4568.898985 -953.743982 
L -4567.457117 -956.905099 
L -4563.445683 -961.61999 
L -4562.42347 -964.555603 
L -4560.230539 -967.91315 
L -4559.888344 -975.179693 
L -4560.848173 -975.950986 
L -4562.191051 -975.651869 
L -4565.330901 -982.313395 
L -4567.906923 -983.43409 
L -4570.142873 -986.098493 
L -4574.840822 -993.242218 
L -4574.203823 -998.020742 
L -4577.035918 -999.71401 
L -4576.517274 -1003.096138 
L -4578.154997 -1007.6994 
L -4578.878076 -1012.358477 
L -4577.739632 -1017.547704 
L -4578.238911 -1022.086253 
L -4580.03805 -1024.064165 
L -4580.373748 -1030.447786 
L -4578.878076 -1031.90665 
L -4578.787706 -1035.689501 
L -4574.412547 -1041.395573 
L -4573.069669 -1044.394819 
L -4567.224323 -1049.6898 
L -4564.54698 -1051.106587 
L -4562.649102 -1053.497232 
L -4560.403864 -1058.753074 
L -4559.768073 -1063.210234 
L -4557.356757 -1066.813848 
L -4552.120549 -1065.520915 
L -4553.125646 -1066.249181 
L -4552.205713 -1066.221792 
L -4539.082482 -1059.354936 
L -4530.013996 -1057.889894 
L -4528.041699 -1056.037262 
L -4527.118184 -1056.341347 
L -4527.112312 -1056.846398 
L -4530.516233 -1058.352566 
L -4529.765127 -1058.847552 
L -4521.895636 -1055.037053 
L -4518.233893 -1054.409357 
L -4514.150122 -1052.164858 
L -4509.429644 -1048.329389 
L -4508.17118 -1046.189606 
L -4498.724601 -1037.696227 
L -4498.750046 -1036.956211 
L -4496.792866 -1036.351498 
L -4493.569851 -1033.50911 
L -4492.641255 -1031.911272 
L -4493.014059 -1030.142923 
L -4490.296029 -1032.505402 
L -4488.438838 -1031.668704 
L -4487.584786 -1029.995266 
L -4491.099232 -1024.322803 
L -4490.994162 -1022.742504 
L -4489.314878 -1026.578059 
L -4486.473162 -1029.258749 
L -4484.846392 -1028.146046 
L -4483.456913 -1025.80992 
L -4477.836158 -1021.401317 
L -4476.661817 -1019.618885 
L -4474.763939 -1011.053059 
L -4475.224863 -1009.082578 
L -4478.742723 -1005.849965 
L -4474.791049 -1007.453074 
L -4474.170875 -1008.370642 
L -4473.598134 -1010.754245 
L -4473.952282 -1016.945237 
L -4473.03214 -1019.766542 
L -4471.18511 -1020.158539 
L -4468.548412 -1017.908554 
L -4466.738655 -1012.079621 
L -4465.613496 -1011.186677 
L -4466.182863 -1010.300731 
L -4465.921875 -1009.282939 
L -4463.907101 -1008.075326 
L -4464.832323 -1006.721827 
L -4464.93227 -1005.097594 
L -4462.519288 -1000.826107 
L -4462.198998 -998.020656 
L -4463.622417 -993.140957 
L -4467.785813 -990.61691 
L -4469.960462 -985.717858 
L -4474.260287 -981.658181 
L -4474.319464 -979.947029 
L -4476.332698 -978.676776 
L -4477.346332 -974.985466 
L -4479.90403 -970.558589 
L -4480.712147 -970.136654 
L -4480.677707 -969.036091 
L -4486.306375 -959.476838 
L -4488.45308 -958.715611 
L -4490.114458 -955.913918 
L -4491.612296 -954.788774 
L -4491.45517 -951.089645 
L -4494.397041 -945.106747 
L -4493.859032 -943.805261 
L -4495.774359 -942.409987 
L -4499.426399 -933.185621 
L -4500.792931 -932.417654 
L -4499.863253 -929.810189 
L -4505.574794 -921.152866 
L -4512.743319 -916.886693 
L -4515.009421 -913.495666 
L -4517.665067 -912.52453 
L -4521.009352 -913.087123 
L -4523.180753 -914.515877 
L -4529.641234 -913.495666 
L -4529.796194 -914.542661 
L -4528.212276 -915.88212 
L -4532.789705 -920.1438 
L -4534.222952 -918.326635 
L -4537.704998 -916.228152 
L -4540.605932 -915.71243 
L -4549.366954 -918.369014 
L -4549.166809 -920.119262 
L -4550.309542 -920.967581 
L -4551.816001 -920.324635 
L -4553.062055 -918.438221 
L -4554.557727 -918.21276 
L -4555.990974 -916.467005 
L -4557.310198 -916.688016 
L -4557.861117 -914.629709 
L -4558.601436 -914.082797 
L -4561.269951 -912.754483 
L -4563.297219 -912.975494 
L -4564.748873 -909.976464 
L -4566.273489 -909.981821 
L -4568.203892 -912.084754 
L -4571.089792 -911.441808 
L -4573.18161 -911.729822 
L -4575.6758 -913.529146 
L -4579.954094 -914.290416 
L -4582.833539 -916.643347 
L -4582.973424 -917.112197 
L -4582.026547 -917.250566 
L -4582.771155 -918.00959 
z
" clip-path="url(#pbf93691e24)" style="fill: #eeeeee; stroke: #000000; stroke-width: 0.3"/>
    <path d="M -1955.261014 -2649.330806 
L -1953.197099 -2649.78432 
L -1952.36337 -2651.165942 
L -1950.662056 -2651.610686 
L -1949.9436 -2653.451136 
L -1950.763752 -2653.778074 
L -1950.329938 -2655.059515 
L -1948.286345 -2655.966542 
L -1948.594725 -2658.060101 
L -1947.998247 -2657.46947 
L -1945.354802 -2657.318314 
L -1944.500751 -2658.316752 
L -1944.585456 -2659.237819 
L -1934.401348 -2661.646046 
L -1934.275956 -2662.484515 
L -1931.574875 -2664.662443 
L -1926.620061 -2664.254635 
L -1924.31548 -2662.1892 
L -1922.217665 -2665.400731 
L -1922.512511 -2667.92845 
L -1923.752901 -2669.296032 
L -1922.614207 -2670.500146 
L -1922.729438 -2672.073403 
L -1921.48226 -2673.156211 
L -1922.04484 -2676.401136 
L -1918.892995 -2676.991723 
L -1917.157782 -2675.810506 
L -1917.581434 -2674.676722 
L -1916.906997 -2673.746842 
L -1916.378316 -2667.699965 
L -1918.038944 -2660.712624 
L -1916.622313 -2658.060101 
L -1915.165037 -2657.46947 
L -1916.093633 -2659.505011 
L -1914.4906 -2657.385101 
L -1913.748406 -2651.837443 
L -1914.317774 -2649.18492 
L -1913.179039 -2645.765942 
L -1913.179039 -2639.371046 
L -1913.761941 -2637.532368 
L -1919.692825 -2631.007354 
L -1919.757208 -2620.358554 
L -1920.980649 -2619.384696 
L -1920.74344 -2618.198208 
L -1922.105849 -2617.502083 
L -1922.04484 -2616.605597 
L -1924.31548 -2616.900912 
L -1924.881474 -2615.6898 
L -1922.112596 -2615.95345 
L -1921.882133 -2614.948013 
L -1925.461003 -2612.771813 
L -1924.857737 -2611.079064 
L -1925.20343 -2610.089395 
L -1927.707948 -2609.20345 
L -1927.18264 -2608.299965 
L -1927.707948 -2607.435101 
L -1926.057482 -2608.321046 
L -1927.189429 -2605.932173 
L -1927.874027 -2605.647398 
L -1932.466198 -2607.271632 
L -1931.429118 -2608.616362 
L -1933.709961 -2609.79408 
L -1933.157543 -2610.678254 
L -1934.869019 -2609.79408 
L -1934.869019 -2610.409334 
L -1939.159598 -2610.97357 
L -1943.162079 -2612.771813 
L -1942.592711 -2613.33432 
L -1945.154824 -2614.08492 
L -1944.961675 -2614.919846 
L -1945.724191 -2615.397984 
L -1944.738001 -2617.447608 
L -1941.789508 -2617.966138 
L -1939.701855 -2619.848794 
L -1945.276843 -2620.622203 
L -1945.805524 -2621.047594 
L -1945.439508 -2621.915957 
L -1949.160719 -2621.351722 
L -1948.852298 -2621.915957 
L -1950.845084 -2622.235896 
L -1948.245658 -2623.192128 
L -1948.594725 -2624.594875 
L -1945.439508 -2625.454426 
L -1946.859553 -2626.366723 
L -1945.154824 -2626.953854 
L -1945.724191 -2627.544485 
L -1944.585456 -2629.01929 
L -1946.293559 -2630.20055 
L -1952.546399 -2628.753869 
L -1952.539611 -2630.62417 
L -1953.712203 -2631.699936 
L -1950.848458 -2632.120056 
L -1950.451958 -2633.66519 
L -1947.167933 -2634.946632 
L -1947.10355 -2635.484515 
L -1949.008216 -2637.762624 
L -1950.604461 -2637.595656 
L -1954.823828 -2639.692714 
L -1953.400409 -2640.256992 
L -1954.566254 -2640.578659 
L -1953.898605 -2641.44348 
L -1954.566254 -2642.049965 
L -1954.220561 -2642.540371 
L -1955.244065 -2643.505416 
L -1949.486048 -2644.830792 
L -1952.092263 -2646.827669 
L -1952.919161 -2646.451526 
L -1953.14625 -2646.947203 
L -1951.692348 -2647.681992 
L -1952.607367 -2648.265581 
L -1955.135622 -2647.681992 
z
" clip-path="url(#pbf93691e24)" style="fill: #eeeeee; stroke: #000000; stroke-width: 0.3"/>
    <path d="M -4861.037344 -1458.335491 
L -4860.757741 -1460.00893 
L -4858.737843 -1461.299184 
L -4857.277152 -1461.322037 
L -4851.712326 -1458.49369 
L -4850.005931 -1455.837624 
L -4846.591474 -1457.018885 
L -4848.041962 -1455.248765 
L -4848.862115 -1455.853478 
L -4848.892641 -1454.067504 
L -4847.757279 -1453.802083 
L -4848.892641 -1453.181602 
L -4849.014618 -1452.228869 
L -4848.297828 -1452.59447 
L -4846.903269 -1451.975717 
L -4847.757279 -1451.682173 
L -4847.496332 -1451.026526 
L -4845.303609 -1449.191347 
L -4845.171429 -1448.117309 
L -4844.627506 -1448.435477 
L -4844.320792 -1446.345461 
L -4844.886745 -1445.756602 
L -4843.722607 -1443.397622 
L -4845.171429 -1441.330416 
L -4846.228832 -1441.070266 
L -4846.903269 -1441.921046 
L -4845.781483 -1442.738434 
L -4846.142419 -1444.002293 
L -4847.374313 -1443.350146 
L -4848.287667 -1443.8898 
L -4854.515062 -1443.601526 
L -4856.026601 -1445.756602 
L -4853.442459 -1447.848389 
L -4852.356238 -1446.997608 
L -4851.45138 -1447.848389 
L -4852.303724 -1449.912053 
L -4855.433538 -1449.616738 
L -4858.263384 -1452.251722 
L -4859.181818 -1454.243285 
L -4858.993709 -1455.621408 
z
" clip-path="url(#pbf93691e24)" style="fill: #eeeeee; stroke: #000000; stroke-width: 0.3"/>
    <path d="M -435.500752 -270.068299 
L -433.487643 -272.279621 
L -433.223282 -271.692533 
L -433.772327 -271.397218 
L -431.494898 -269.354635 
L -428.912421 -269.010115 
L -427.902452 -267.428088 
L -429.434314 -264.942533 
L -428.393902 -263.441333 
L -430.264628 -259.447622 
L -429.5089 -258.385896 
L -430.362951 -257.506992 
L -433.223282 -257.802307 
L -433.33514 -258.846408 
L -434.341694 -258.983525 
L -433.514754 -260.322984 
L -434.667023 -261.423374 
L -433.772327 -261.905011 
L -432.074427 -260.431978 
L -431.586392 -261.191347 
L -433.772327 -263.993299 
L -432.918275 -264.26399 
L -433.640146 -267.421046 
L -435.20928 -268.517894 
z
" clip-path="url(#pbf93691e24)" style="fill: #eeeeee; stroke: #000000; stroke-width: 0.3"/>
    <path d="M -11.434243 89.843818 
L -10.749644 88.27583 
L -8.834859 87.038323 
L -8.851766 84.746131 
L -6.831911 84.457858 
L -3.83257 82.650845 
L 3.264119 83.150064 
L 6.273579 84.155544 
L 8.134185 85.762152 
L 10.279475 91.264104 
L 14.058281 94.00981 
L 14.763203 95.342227 
L 12.99409 103.357858 
L 7.625827 104.577782 
L 3.12515 104.454749 
L -2.734522 102.021941 
L -4.256222 100.552406 
L -6.262543 100.285214 
L -8.512861 97.184448 
L -8.811121 94.76568 
L -11.108914 91.552378 
z
" clip-path="url(#pbf93691e24)" style="fill: #eeeeee; stroke: #000000; stroke-width: 0.3"/>
    <path d="M -4874.280095 -1522.168675 
L -4873.592123 -1524.434515 
L -4872.25341 -1525.614005 
L -4872.455095 -1526.49995 
L -4873.42267 -1526.893675 
L -4873.868311 -1529.249155 
L -4870.879173 -1532.005402 
L -4868.667793 -1530.251136 
L -4868.032336 -1526.65992 
L -4866.847874 -1524.90911 
L -4865.722716 -1524.213029 
L -4863.702818 -1524.213029 
L -4858.429464 -1520.76947 
L -4859.246201 -1520.386286 
L -4861.38133 -1520.997998 
L -4870.863931 -1518.581002 
L -4873.849696 -1519.922232 
z
" clip-path="url(#pbf93691e24)" style="fill: #eeeeee; stroke: #000000; stroke-width: 0.3"/>
    <path d="M -4884.823473 -1523.327083 
L -4882.346066 -1525.621046 
L -4877.264152 -1523.311272 
L -4876.552443 -1522.441138 
L -4877.14384 -1522.175717 
L -4875.983075 -1521.560506 
L -4875.378143 -1522.356768 
L -4874.591889 -1522.175717 
L -4874.437679 -1520.140176 
L -4875.74924 -1519.444094 
L -4874.844382 -1513.569456 
L -4875.188368 -1511.287848 
L -4876.499929 -1509.698779 
L -4880.558338 -1507.643885 
L -4880.853183 -1509.403464 
L -4882.134219 -1510.444066 
L -4883.627101 -1513.625746 
z
" clip-path="url(#pbf93691e24)" style="fill: #eeeeee; stroke: #000000; stroke-width: 0.3"/>
    <path d="M -2376.077397 -2816.716723 
L -2372.923888 -2817.038434 
L -2372.664607 -2816.126136 
L -2374.084653 -2816.447803 
L -2373.359367 -2815.535506 
L -2370.051646 -2816.126136 
L -2370.644752 -2815.50911 
L -2365.761109 -2814.779635 
L -2363.514164 -2812.856587 
L -2364.649484 -2812.587624 
L -2370.956546 -2814.948374 
L -2373.930442 -2814.811258 
z
" clip-path="url(#pbf93691e24)" style="fill: #eeeeee; stroke: #000000; stroke-width: 0.3"/>
    <path d="M -2369.794073 -2808.136858 
L -2367.086246 -2807.47417 
L -2364.334317 -2805.737443 
L -2363.243015 -2805.916723 
L -2360.264038 -2801.465957 
L -2361.643397 -2797.811453 
L -2362.378802 -2798.054064 
L -2363.773403 -2800.73471 
L -2368.685864 -2804.802293 
L -2368.407968 -2805.637262 
z
" clip-path="url(#pbf93691e24)" style="fill: #eeeeee; stroke: #000000; stroke-width: 0.3"/>
    <path d="M -2406.887378 -2850.473765 
L -2402.90522 -2850.092309 
L -2402.908593 -2848.410101 
L -2400.607427 -2847.202488 
L -2400.512561 -2845.145822 
L -2402.688334 -2847.392309 
L -2403.745695 -2847.910882 
L -2404.874269 -2847.497803 
z
" clip-path="url(#pbf93691e24)" style="fill: #eeeeee; stroke: #000000; stroke-width: 0.3"/>
    <path d="M -4865.44482 -1506.900326 
L -4864.455215 -1508.876122 
L -4862.791172 -1510.240162 
L -4860.945808 -1509.301512 
L -4859.696965 -1506.905597 
L -4860.601822 -1505.258554 
L -4863.065695 -1504.386648 
L -4864.323034 -1504.590552 
z
" clip-path="url(#pbf93691e24)" style="fill: #eeeeee; stroke: #000000; stroke-width: 0.3"/>
    <path d="M -2447.134151 -2865.596227 
L -2446.339444 -2866.118299 
L -2440.994877 -2863.360282 
L -2439.249502 -2863.223208 
L -2439.010586 -2862.08411 
L -2445.526038 -2862.525355 
L -2446.254697 -2862.890957 
z
" clip-path="url(#pbf93691e24)" style="fill: #eeeeee; stroke: #000000; stroke-width: 0.3"/>
    <path d="M -2525.040223 -2912.039381 
L -2523.332121 -2913.009696 
L -2521.034328 -2912.334696 
L -2523.172829 -2911.559515 
L -2523.904903 -2911.448794 
L -2523.58124 -2912.169456 
z
" clip-path="url(#pbf93691e24)" style="fill: #eeeeee; stroke: #000000; stroke-width: 0.3"/>
    <path d="M -2410.522135 -2837.058134 
L -2408.619177 -2837.444861 
L -2406.994114 -2836.950912 
L -2405.775754 -2835.968285 
L -2410.042596 -2836.265371 
z
" clip-path="url(#pbf93691e24)" style="fill: #eeeeee; stroke: #000000; stroke-width: 0.3"/>
    <path d="M -426.350267 -267.262848 
L -425.503004 -268.12417 
L -425.503004 -265.469875 
L -425.787688 -265.469875 
z
" clip-path="url(#pbf93691e24)" style="fill: #eeeeee; stroke: #000000; stroke-width: 0.3"/>
    <path d="M -2054.496131 -2676.225355 
L -2051.628971 -2677.207939 
L -2050.913847 -2676.353702 
L -2052.984592 -2675.68393 
z
" clip-path="url(#pbf93691e24)" style="fill: #eeeeee; stroke: #000000; stroke-width: 0.3"/>
    <path d="M -4855.433538 -1523.033539 
L -4853.247561 -1524.721018 
L -4851.170069 -1524.803659 
L -4854.474417 -1522.896422 
z
" clip-path="url(#pbf93691e24)" style="fill: #eeeeee; stroke: #000000; stroke-width: 0.3"/>
    <path d="M -4876.425385 -1503.915552 
L -4875.769562 -1504.690776 
L -4875.20869 -1504.585282 
L -4875.862763 -1503.869846 
z
" clip-path="url(#pbf93691e24)" style="fill: #eeeeee; stroke: #000000; stroke-width: 0.3"/>
    <path d="M -4878.201243 -1503.498974 
L -4877.631876 -1504.277698 
L -4877.274314 -1503.79429 
L -4877.752188 -1503.230011 
z
" clip-path="url(#pbf93691e24)" style="fill: #eeeeee; stroke: #000000; stroke-width: 0.3"/>
    <path d="M -1917.469577 -2661.007939 
L -1916.405427 -2659.82845 
L -1916.625728 -2659.784515 
z
" clip-path="url(#pbf93691e24)" style="fill: #eeeeee; stroke: #000000; stroke-width: 0.3"/>
    <path d="M 75.105418 63.97583 
L 77.365939 63.824674 
L 77.616724 63.265666 
L 77.901408 56.614118 
L 79.131637 54.026611 
L 82.903655 51.442646 
L 84.459254 46.693022 
L 87.309465 44.608277 
L 90.773062 45.357106 
L 91.986342 49.245365 
L 93.484305 49.899283 
L 93.47077 51.572722 
L 95.605857 54.982886 
L 95.012793 59.862542 
L 92.83702 61.082467 
L 92.128684 62.098488 
L 92.589608 64.119989 
L 90.461268 66.081701 
L 83.439124 67.709434 
L 79.094365 66.872693 
L 78.213202 67.262962 
L 75.288447 64.552378 
z
" clip-path="url(#pbf93691e24)" style="fill: #eeeeee; stroke: #000000; stroke-width: 0.3"/>
    <path d="M 326.173895 33.973474 
L 326.631405 32.820379 
L 328.542859 31.74107 
L 332.904567 31.618037 
L 331.884478 33.389885 
L 327.593899 35.302392 
z
" clip-path="url(#pbf93691e24)" style="fill: #eeeeee; stroke: #000000; stroke-width: 0.3"/>
    <path d="M 42.651801 -372.383525 
L 43.129634 -372.647218 
L 44.53273 -369.078854 
L 42.885637 -371.392128 
z
" clip-path="url(#pbf93691e24)" style="fill: #eeeeee; stroke: #000000; stroke-width: 0.3"/>
   </g>
   <g id="PatchCollection_2">
    <path d="M 75.105418 63.97583 
L 77.365939 63.824674 
L 77.616724 63.265666 
L 77.901408 56.614118 
L 79.131637 54.026611 
L 82.903655 51.442646 
L 84.459254 46.693022 
L 87.309465 44.608277 
L 90.773062 45.357106 
L 91.986342 49.245365 
L 93.484305 49.899283 
L 93.47077 51.572722 
L 95.605857 54.982886 
L 95.012793 59.862542 
L 92.83702 61.082467 
L 92.128684 62.098488 
L 92.589608 64.119989 
L 90.461268 66.081701 
L 83.439124 67.709434 
L 79.094365 66.872693 
L 78.213202 67.262962 
L 75.288447 64.552378 
z
" clip-path="url(#pbf93691e24)" style="fill: #ff6b6b; stroke: #dd0000; stroke-width: 0.8"/>
    <path d="M 326.173895 33.973474 
L 326.631405 32.820379 
L 328.542859 31.74107 
L 332.904567 31.618037 
L 331.884478 33.389885 
L 327.593899 35.302392 
z
" clip-path="url(#pbf93691e24)" style="fill: #ff6b6b; stroke: #dd0000; stroke-width: 0.8"/>
    <path d="M 42.651801 -372.383525 
L 43.129634 -372.647218 
L 44.53273 -369.078854 
L 42.885637 -371.392128 
z
" clip-path="url(#pbf93691e24)" style="fill: #ff6b6b; stroke: #dd0000; stroke-width: 0.8"/>
   </g>
  </g>
 </g>
 <defs>
  <clipPath id="pbf93691e24">
   <rect x="0" y="0" width="166.579155" height="108"/>
  </clipPath>
 </defs>
</svg>
