<?xml version="1.0" encoding="utf-8" standalone="no"?>
<!DOCTYPE svg PUBLIC "-//W3C//DTD SVG 1.1//EN"
  "http://www.w3.org/Graphics/SVG/1.1/DTD/svg11.dtd">
<svg xmlns:xlink="http://www.w3.org/1999/xlink" width="124.843808pt" height="108pt" viewBox="0 0 124.843808 108" xmlns="http://www.w3.org/2000/svg" version="1.1">
 <metadata>
  <rdf:RDF xmlns:dc="http://purl.org/dc/elements/1.1/" xmlns:cc="http://creativecommons.org/ns#" xmlns:rdf="http://www.w3.org/1999/02/22-rdf-syntax-ns#">
   <cc:Work>
    <dc:type rdf:resource="http://purl.org/dc/dcmitype/StillImage"/>
    <dc:date>2025-09-05T15:49:29.525495</dc:date>
    <dc:format>image/svg+xml</dc:format>
    <dc:creator>
     <cc:Agent>
      <dc:title>Matplotlib v3.10.3, https://matplotlib.org/</dc:title>
     </cc:Agent>
    </dc:creator>
   </cc:Work>
  </rdf:RDF>
 </metadata>
 <defs>
  <style type="text/css">*{stroke-linejoin: round; stroke-linecap: butt}</style>
 </defs>
 <g id="figure_1">
  <g id="patch_1">
   <path d="M 0 108 
L 124.843808 108 
L 124.843808 0 
L 0 0 
z
" style="fill: #ffffff"/>
  </g>
  <g id="axes_1">
   <g id="PatchCollection_1">
    <path d="M -1830.94864 -938.807012 
L -1830.352812 -976.496523 
L -1799.053973 -1000.087585 
L -1707.204303 -1022.336266 
L -1688.15757 -1000.087585 
L -1681.679628 -1022.424019 
L -1646.577767 -1011.554097 
L -1635.751755 -1045.865879 
L -1591.268981 -1052.401847 
L -1589.8365 -1035.557403 
L -1569.73114 -1052.191197 
L -1575.030042 -1028.187891 
L -1556.756407 -1041.444172 
L -1506.004893 -974.08386 
L -1448.946786 -1014.94929 
L -1451.165293 -1000.087585 
L -1432.999452 -989.787949 
L -1407.86779 -1004.500452 
L -1396.642379 -975.066605 
L -1404.18518 -1003.02655 
L -1391.242068 -1014.94929 
L -1375.370751 -1017.879415 
L -1367.935901 -997.13094 
L -1299.481344 -1003.02655 
L -1330.178124 -1025.424432 
L -1337.860185 -1047.462463 
L -1323.0665 -1087.204787 
L -1336.402469 -1086.195953 
L -1339.026451 -1126.491097 
L -1329.366862 -1128.561589 
L -1371.12409 -1162.680186 
L -1381.747286 -1194.412855 
L -1374.711679 -1213.57337 
L -1389.619545 -1236.067629 
L -1338.443396 -1220.100498 
L -1284.91571 -1229.900137 
L -1279.420379 -1214.503291 
L -1291.647094 -1200.27332 
L -1263.080032 -1154.424738 
L -1234.658617 -1164.522564 
L -1122.355124 -1140.335128 
L -1024.097454 -1177.41037 
L -1011.34454 -1186.367841 
L -1048.15787 -1179.998539 
L -1076.237054 -1195.290168 
L -1051.428619 -1237.19052 
L -897.93818 -1291.022669 
L -851.236899 -1341.836724 
L -827.632739 -1337.064222 
L -848.042323 -1355.470105 
L -837.317875 -1375.473004 
L -845.912761 -1382.824836 
L -841.957549 -1482.873827 
L -695.341182 -1530.036114 
L -681.843521 -1502.780348 
L -685.224401 -1477.833754 
L -654.071832 -1451.516533 
L -600.718144 -1463.527457 
L -578.629647 -1409.166205 
L -526.096878 -1398.291755 
L -512.299668 -1359.85214 
L -464.564682 -1369.735005 
L -434.297523 -1351.284059 
L -445.486639 -1323.184184 
L -432.365636 -1308.521486 
L -444.568985 -1290.159587 
L -364.474041 -1292.209596 
L -338.038565 -1330.337224 
L -329.264385 -1325.691068 
L -342.965017 -1286.560643 
L -331.083649 -1276.867299 
L -332.822378 -1251.17405 
L -268.923535 -1229.001695 
L -238.25386 -1187.520486 
L -193.04659 -1198.405932 
L -159.656198 -1175.097102 
L -90.798503 -1180.300391 
L -42.347122 -1114.195569 
L -11.097974 -1124.50189 
L 8.865322 -1103.142811 
L 44.976587 -1102.585678 
L 66.179675 -1116.36826 
L 101.147727 -1088.090077 
L 189.211977 -1071.009541 
L 128.452567 -996.938186 
L 119.179137 -937.936383 
L 93.468314 -892.304703 
L 98.990438 -858.177051 
L 81.973261 -801.230863 
L 93.524704 -774.775006 
L 61.204934 -741.577059 
L -1.921279 -754.178536 
L -18.53594 -725.087076 
L 7.931624 -719.772317 
L -49.881667 -653.316484 
L -84.584128 -636.687217 
L -86.677083 -597.155759 
L -135.088276 -558.916877 
L -145.086046 -523.546886 
L -132.496226 -512.978816 
L -138.887715 -487.675604 
L -160.573852 -476.221598 
L -159.945934 -461.246914 
L -131.675151 -465.503033 
L -109.731523 -484.878942 
L -120.180098 -501.134989 
L -111.615276 -513.976008 
L -78.305418 -529.836413 
L -30.932603 -522.416017 
L -36.647884 -507.613821 
L -24.605448 -491.218705 
L -34.265193 -465.804024 
L 5.677756 -417.002462 
L -28.791358 -395.699226 
L -29.5481 -372.345765 
L 27.267159 -306.10705 
L 10.877899 -263.578413 
L -59.646091 -239.812923 
L -37.42067 -197.629692 
L 3.343198 -179.145111 
L 10.829454 -149.563572 
L -4.014234 -149.195743 
L -23.349768 -117.040265 
L -10.566635 -95.970965 
L -18.616475 -82.132755 
L -0.440197 -54.021669 
L 53.799057 -28.907761 
L 104.367694 -39.860261 
L 109.712705 -16.417754 
L 76.676539 27.096862 
L 76.449268 48.847487 
L 25.85633 72.535141 
L 23.877088 94.257952 
L -3.667952 97.257718 
L -14.269652 121.50919 
L -39.642137 125.77415 
L -61.48981 155.732789 
L -45.525965 154.854183 
L -47.640261 170.252969 
L -95.061988 194.12346 
L -123.439475 190.257162 
L -125.484141 205.964484 
L -162.73597 184.8139 
L -175.871304 204.044056 
L -204.328702 174.92392 
L -255.256706 167.159844 
L -263.482568 137.066665 
L -304.006859 141.37798 
L -305.23559 125.454617 
L -274.050777 110.154364 
L -304.76656 93.274776 
L -301.343934 121.155807 
L -329.84121 122.84036 
L -331.772318 140.018998 
L -347.030982 122.64739 
L -349.426914 100.626607 
L -356.88077 88.853069 
L -349.414141 122.603405 
L -337.302075 139.032156 
L -472.404229 97.292863 
L -603.089152 190.788422 
L -614.333412 293.688625 
L -592.660827 336.286688 
L -631.178305 327.933784 
L -673.471701 356.222964 
L -733.410191 336.902898 
L -777.297448 354.139535 
L -821.458397 322.869778 
L -819.928869 297.828315 
L -865.522766 300.94796 
L -879.03024 276.52508 
L -961.540121 250.012949 
L -985.93093 248.547671 
L -987.911107 281.739365 
L -1094.232169 281.594476 
L -1138.449507 247.667555 
L -1176.806539 262.731285 
L -1206.50217 225.244447 
L -1267.293825 212.475873 
L -1288.496913 190.169624 
L -1315.149534 203.991232 
L -1306.793914 161.245261 
L -1340.812224 160.454192 
L -1368.004285 132.989501 
L -1346.905097 127.533949 
L -1318.223854 88.642634 
L -1284.009272 -121.790129 
L -1272.993218 -145.381191 
L -1250.910329 -146.232199 
L -1270.76848 -169.700364 
L -1284.497306 -137.178135 
L -1257.223309 -340.197618 
L -1207.517649 -287.813283 
L -1199.696016 -246.509304 
L -1171.452182 -194.861705 
L -1181.03591 -222.82165 
L -1165.082189 -217.075242 
L -1190.353268 -238.876534 
L -1212.081307 -320.379064 
L -1282.462765 -370.570226 
L -1269.456411 -391.441597 
L -1241.941434 -372.175865 
L -1267.573904 -404.689038 
L -1251.525006 -441.483557 
L -1276.777236 -470.750954 
L -1261.191138 -498.377567 
L -1281.340894 -494.403249 
L -1367.840879 -539.742994 
L -1385.676951 -582.275081 
L -1418.211998 -609.910534 
L -1398.265057 -656.355491 
L -1437.271504 -679.446556 
L -1425.444033 -684.920866 
L -1424.721562 -707.196066 
L -1357.192293 -694.167899 
L -1401.28844 -717.662368 
L -1443.077445 -701.853063 
L -1484.137593 -713.433631 
L -1467.657674 -714.925214 
L -1486.381335 -731.357198 
L -1460.748866 -740.068875 
L -1476.778603 -754.632393 
L -1456.400796 -757.86092 
L -1498.158024 -760.808725 
L -1493.07471 -762.808929 
L -1489.563138 -768.160557 
L -1526.997687 -756.360714 
L -1541.347733 -769.125622 
L -1515.208225 -767.599111 
L -1506.981117 -779.039319 
L -1506.25849 -783.048566 
L -1509.769906 -787.303607 
L -1542.932404 -777.126652 
L -1551.539908 -791.847996 
L -1546.12698 -769.634459 
L -1574.687655 -777.828675 
L -1575.999724 -751.83379 
L -1586.730714 -786.628105 
L -1573.870007 -806.578179 
L -1585.577066 -809.657505 
L -1590.406938 -790.251412 
L -1611.291939 -799.077146 
L -1599.508863 -797.743605 
L -1611.291939 -802.024951 
L -1599.508863 -818.483455 
L -1625.027152 -800.638801 
L -1731.848086 -847.926142 
L -1740.106972 -824.098126 
L -1769.174842 -822.764585 
L -1778.96123 -859.085411 
L -1824.680056 -873.087483 
L -1755.712074 -889.212441 
L -1770.334721 -914.43523 
L -1798.096908 -902.538795 
L -1808.821356 -926.226449 
L -1796.417217 -939.114255 
L -1791.561954 -928.121436 
L -1753.214735 -926.516012 
L -1740.461821 -930.639316 
L -1781.933986 -936.648983 
L -1756.415542 -957.388617 
z
M -784.799748 332.028412 
L -776.701775 333.61055 
L -783.383 325.443501 
z
" clip-path="url(#p9ce2d9808a)" style="fill: #eeeeee; stroke: #000000; stroke-width: 0.3"/>
    <path d="M -9595.711122 8983.327827 
L -9558.376423 8949.367272 
L -9526.378634 8869.747223 
L -9532.762023 8810.594925 
L -9500.33773 8739.877366 
L -9499.05775 8703.610443 
L -9537.414782 8649.115297 
L -9563.198195 8581.160982 
L -9575.683336 8427.770353 
L -9548.362452 8358.161455 
L -9509.384356 8312.731801 
L -9489.588358 8246.269284 
L -9327.974088 8319.38161 
L -9248.914717 8429.291904 
L -9231.801117 8421.676814 
L -9241.359299 8466.227 
L -9224.448514 8433.704772 
L -9192.141829 8472.920794 
L -9180.650203 8524.568393 
L -9195.532834 8550.536758 
L -9178.431852 8537.956195 
L -9174.172417 8481.079865 
L -9157.401048 8490.352988 
L -9133.651086 8589.612419 
L -9243.671425 8805.380424 
L -9252.075335 8860.198552 
L -9295.898102 8973.255443 
L -9341.121729 9016.319005 
L -9385.918539 9011.472118 
L -9380.573528 8999.561452 
L -9397.695384 8978.291635 
L -9426.931955 9000.408363 
L -9463.228277 8974.180189 
L -9517.238545 9029.036264 
z
" clip-path="url(#p9ce2d9808a)" style="fill: #eeeeee; stroke: #000000; stroke-width: 0.3"/>
    <path d="M 243.54189 348.01193 
L 260.74428 336.633171 
L 268.477123 304.44449 
L 332.139815 271.492553 
L 359.293556 283.836377 
L 367.786879 212.905366 
L 386.066901 215.85317 
L 382.770917 291.205889 
L 396.043487 307.813379 
L 400.949376 397.720559 
L 376.584581 439.463302 
L 376.343757 492.610892 
L 359.293556 509.867796 
L 368.395481 519.614611 
L 346.604042 548.285418 
L 348.543562 564.612185 
L 281.344062 523.922261 
L 301.740872 495.155077 
L 260.059661 483.241177 
L 283.473779 449.385622 
L 253.6959 450.710323 
L 249.335213 436.00666 
L 274.054858 417.118028 
L 246.140637 384.350221 
L 265.143131 370.471261 
z
" clip-path="url(#p9ce2d9808a)" style="fill: #eeeeee; stroke: #000000; stroke-width: 0.3"/>
    <path d="M -10624.458703 6283.853697 
L -10571.469833 6298.776851 
L -10580.533594 6322.683564 
L -10560.738843 6366.759842 
L -10570.113369 6378.375555 
L -10569.790141 6363.741964 
L -10601.107984 6365.742168 
L -10606.761892 6354.986303 
L -10589.648292 6344.546305 
L -10615.128572 6322.569507 
z
" clip-path="url(#p9ce2d9808a)" style="fill: #eeeeee; stroke: #000000; stroke-width: 0.3"/>
    <path d="M 7514.419298 14019.085722 
L 7524.079043 13993.643443 
L 7569.398469 13985.677557 
L 7612.410754 14046.52799 
L 7605.793395 14086.533572 
L 7568.878658 14092.008097 
L 7533.764023 14071.198175 
z
" clip-path="url(#p9ce2d9808a)" style="fill: #eeeeee; stroke: #000000; stroke-width: 0.3"/>
    <path d="M 5928.199968 12222.78363 
L 5935.729996 12211.747043 
L 5952.843596 12228.06497 
L 5950.612471 12281.089879 
L 5936.718838 12284.002539 
L 5931.318527 12265.929987 
L 5942.841619 12267.088022 
z
" clip-path="url(#p9ce2d9808a)" style="fill: #eeeeee; stroke: #000000; stroke-width: 0.3"/>
    <path d="M -10675.039023 5973.617737 
L -10662.317888 5924.523163 
L -10647.238828 5959.940372 
L -10615.749791 5980.601094 
L -10662.260875 5991.523624 
z
" clip-path="url(#p9ce2d9808a)" style="fill: #eeeeee; stroke: #000000; stroke-width: 0.3"/>
    <path d="M -10714.476492 5967.836185 
L -10705.20976 5956.387138 
L -10676.20529 5973.582593 
L -10678.436415 6027.923363 
L -10698.522771 6046.110188 
z
" clip-path="url(#p9ce2d9808a)" style="fill: #eeeeee; stroke: #000000; stroke-width: 0.3"/>
    <path d="M -1330.520355 -487.402212 
L -1291.932313 -477.73431 
L -1287.774285 -466.7941 
L -1322.489676 -477.892136 
z
" clip-path="url(#p9ce2d9808a)" style="fill: #eeeeee; stroke: #000000; stroke-width: 0.3"/>
    <path d="M -10641.990707 6049.821248 
L -10632.064748 6033.15231 
L -10620.490874 6049.794944 
L -10633.091598 6062.366882 
z
" clip-path="url(#p9ce2d9808a)" style="fill: #eeeeee; stroke: #000000; stroke-width: 0.3"/>
    <path d="M 5964.531651 12245.734118 
L 5965.596509 12232.486677 
L 5965.596509 12245.734118 
z
" clip-path="url(#p9ce2d9808a)" style="fill: #eeeeee; stroke: #000000; stroke-width: 0.3"/>
    <path d="M 384.900635 289.731986 
L 388.881082 295.618756 
L 388.057047 295.83803 
z
" clip-path="url(#p9ce2d9808a)" style="fill: #eeeeee; stroke: #000000; stroke-width: 0.3"/>
    <path d="M -127.646727 213.782678 
L -126.252254 211.773635 
L -114.247203 213.142104 
z
" clip-path="url(#p9ce2d9808a)" style="fill: #eeeeee; stroke: #000000; stroke-width: 0.3"/>
    <path d="M -1307.017603 -444.580563 
L -1282.513391 -433.499991 
L -1276.530026 -393.047021 
z
" clip-path="url(#p9ce2d9808a)" style="fill: #eeeeee; stroke: #000000; stroke-width: 0.3"/>
    <path d="M -1445.764983 -655.881798 
L -1430.869734 -653.977972 
L -1421.919999 -629.290323 
z
" clip-path="url(#p9ce2d9808a)" style="fill: #eeeeee; stroke: #000000; stroke-width: 0.3"/>
    <path d="M -1459.36078 -588.925106 
L -1446.164227 -588.389965 
L -1441.606956 -583.485725 
z
" clip-path="url(#p9ce2d9808a)" style="fill: #eeeeee; stroke: #000000; stroke-width: 0.3"/>
    <path d="M -1596.3079 -731.357198 
L -1565.921731 -713.828411 
L -1590.292757 -716.03064 
z
" clip-path="url(#p9ce2d9808a)" style="fill: #eeeeee; stroke: #000000; stroke-width: 0.3"/>
    <path d="M -1887.715297 -963.152489 
L -1881.326145 -967.995281 
L -1880.730317 -960.757506 
z
" clip-path="url(#p9ce2d9808a)" style="fill: #eeeeee; stroke: #000000; stroke-width: 0.3"/>
    <path d="M -10604.54354 5969.301248 
L -10596.366902 5960.879133 
L -10600.955951 5969.98559 
z
" clip-path="url(#p9ce2d9808a)" style="fill: #eeeeee; stroke: #000000; stroke-width: 0.3"/>
    <path d="M -10683.063472 6064.718097 
L -10680.610372 6060.848996 
L -10680.95899 6064.946212 
z
" clip-path="url(#p9ce2d9808a)" style="fill: #eeeeee; stroke: #000000; stroke-width: 0.3"/>
    <path d="M -10689.706066 6066.797214 
L -10686.238888 6065.323312 
L -10688.026374 6068.139595 
z
" clip-path="url(#p9ce2d9808a)" style="fill: #eeeeee; stroke: #000000; stroke-width: 0.3"/>
    <path d="M -59.646091 -239.812923 
L 19.12074 -273.394438 
L 27.267159 -306.10705 
L -0.440197 -327.711276 
L -3.46685 -355.65505 
L -31.721433 -385.136546 
L 5.677756 -417.002462 
L 26.156191 -406.495625 
L 86.529442 -429.692985 
L 133.668755 -415.69889 
L 175.237654 -460.489264 
L 171.615328 -491.719996 
L 220.187433 -530.61088 
L 226.25694 -483.864933 
L 284.021942 -452.467105 
L 277.630453 -429.470261 
L 293.681687 -421.704245 
L 298.205623 -395.688014 
L 314.160278 -394.462277 
L 323.610665 -411.331301 
L 314.111988 -441.592655 
L 348.806349 -482.962394 
L 357.757642 -540.354461 
L 381.488289 -540.560583 
L 397.346366 -497.502626 
L 456.850096 -513.140307 
L 481.353529 -480.555768 
L 494.313619 -489.703406 
L 483.848999 -504.042906 
L 491.480123 -519.986968 
L 473.658071 -529.335122 
L 474.656259 -548.031215 
L 499.481673 -568.264816 
L 538.71617 -549.05622 
L 541.066617 -567.563009 
L 527.060049 -578.092053 
L 540.245542 -619.495212 
L 624.848378 -598.94402 
L 652.507443 -640.932341 
L 739.798907 -642.391797 
L 809.236074 -667.099066 
L 800.864254 -629.077302 
L 822.630769 -620.297492 
L 844.188083 -581.913721 
L 1046.05965 -545.178925 
L 993.768484 -495.70876 
L 1000.755645 -477.959837 
L 1036.158458 -472.009894 
L 1008.805485 -434.495242 
L 1031.248207 -429.971552 
L 1025.033831 -396.53471 
L 1058.174521 -377.794201 
L 1076.238175 -353.738718 
L 1068.929033 -343.566291 
L 1047.743703 -345.408884 
L 1062.752977 -349.962113 
L 1026.319887 -387.756841 
L 999.445134 -363.139481 
L 994.412446 -378.053794 
L 955.456781 -383.949404 
L 950.107252 -355.910331 
L 847.095726 -311.95695 
L 871.713963 -336.714672 
L 842.899691 -333.775707 
L 805.160918 -285.093592 
L 817.001007 -261.546299 
L 828.967893 -267.248938 
L 838.551622 -219.873845 
L 838.551622 -231.656224 
L 864.260108 -211.048111 
L 850.353702 -178.80682 
L 844.484361 -194.072145 
L 845.92946 -175.09576 
L 822.591515 -180.131521 
L 838.551622 -55.947703 
L 888.827719 0.121603 
L 1032.75982 92.862531 
L 1104.383562 300.207128 
L 1203.12288 391.482994 
L 1208.028769 411.073433 
L 1274.176183 444.885003 
L 1426.069334 446.587019 
L 1432.902125 476.836946 
L 1388.622167 512.403141 
L 1398.129723 545.863915 
L 1568.86056 627.278692 
L 1634.12054 681.549389 
L 1716.823734 720.23911 
L 1796.129693 830.517449 
L 1776.353946 899.974558 
L 1726.876492 879.612024 
L 1694.411231 798.951662 
L 1639.723666 795.056472 
L 1591.146264 769.89513 
L 1610.313565 753.05931 
L 1556.234445 754.322778 
L 1498.390312 842.326132 
L 1502.573574 867.821021 
L 1480.478068 909.002102 
L 1489.224988 933.654607 
L 1584.681095 988.565877 
L 1586.810813 1084.658014 
L 1495.411324 1119.733052 
L 1492.913985 1199.147626 
L 1430.58221 1260.875588 
L 1416.206774 1304.714911 
L 1355.028648 1301.775946 
L 1346.991582 1244.259258 
L 1375.032601 1226.940905 
L 1391.385721 1180.329283 
L 1378.734216 1151.825357 
L 1427.958228 1134.165049 
L 1438.720684 1107.064737 
L 1369.049236 884.016266 
L 1345.660509 843.76489 
L 1312.297532 861.836365 
L 1289.10944 854.205104 
L 1268.230826 823.964017 
L 1234.573908 808.435434 
L 1248.145404 774.81899 
L 1214.45593 716.106966 
L 1146.013991 737.504639 
L 1166.499748 703.21032 
L 1138.471346 679.689547 
L 1100.073034 690.293839 
L 1095.967969 661.78172 
L 1049.3156 590.510478 
L 1021.604195 600.380406 
L 981.393474 581.167067 
L 943.819508 595.870946 
L 920.291365 558.830633 
L 880.055408 548.443244 
L 818.33208 486.180141 
L 784.269687 430.812857 
L 754.225749 421.951979 
L 727.858034 369.085112 
L 683.996324 341.59002 
L 641.934873 344.958909 
L 654.681556 325.76864 
L 650.009948 307.708161 
L 616.543227 269.123873 
L 583.46952 255.876432 
L 588.489591 231.329145 
L 547.366044 226.538962 
L 551.828294 160.503351 
L 518.970176 107.496122 
L 508.752611 31.169714 
L 483.665344 -7.370805 
L 445.368751 -25.320676 
L 443.429231 -11.020417 
L 349.709828 -78.16124 
L 346.604042 -67.730082 
L 276.767631 -95.067132 
L 230.611552 -67.501967 
L 168.558766 20.378705 
L 80.480496 42.899484 
L 76.676539 27.096862 
L 109.712705 -16.417754 
L 104.367694 -39.860261 
L 55.296339 -28.562356 
L -1.905234 -55.681857 
L -23.349768 -117.040265 
L -4.014234 -149.195743 
L 10.829454 -149.563572 
L 3.005173 -180.415478 
L -37.42067 -197.629692 
z
M 851.668419 450.035252 
L 851.824814 450.286005 
L 851.816714 450.046679 
z
M 842.730678 9.224179 
L 855.602601 15.988046 
L 856.205907 1.859411 
z
" clip-path="url(#p9ce2d9808a)" style="fill: #eeeeee; stroke: #000000; stroke-width: 0.3"/>
    <path d="M 180.956674 732.635543 
L 188.080915 652.738436 
L 206.335547 677.127898 
L 239.092257 682.233732 
L 286.13577 656.282831 
L 349.709828 588.299624 
L 379.576341 605.959933 
L 382.770917 625.094359 
L 400.949376 617.733687 
L 393.520756 641.421126 
L 416.998118 644.360091 
L 392.329099 660.686858 
L 426.556455 678.364846 
L 416.262873 688.076733 
L 438.447325 762.323809 
L 411.318975 803.812133 
L 427.84952 842.440189 
L 402.014235 1043.968305 
L 394.560224 1053.601064 
L 315.951658 1019.245513 
L 326.219849 1027.720451 
L 317.78977 1077.156981 
L 290.927634 1102.45006 
L 269.630616 1090.676521 
L 257.853927 1105.397864 
L 245.177186 1063.91838 
L 216.083926 1028.264217 
L 227.176152 912.923812 
L 238.534593 924.758584 
L 246.140637 924.986698 
L 236.5823 920.582671 
L 244.492568 892.298019 
L 219.4687 879.366445 
L 216.768545 853.257503 
L 234.338557 838.009858 
L 217.186793 759.481437 
L 203.419959 732.170475 
z
" clip-path="url(#p9ce2d9808a)" style="fill: #eeeeee; stroke: #000000; stroke-width: 0.3"/>
    <path d="M 847.615538 1335.517443 
L 857.883729 1287.133516 
L 890.855873 1267.858944 
L 895.089917 1250.189796 
L 921.470404 1285.703598 
L 946.430873 1273.754553 
L 952.591819 1250.768921 
L 986.426161 1244.180129 
L 997.835228 1269.508352 
L 1060.052822 1297.441992 
L 1095.839301 1281.106385 
L 1172.356315 1282.185507 
L 1233.940071 1251.286383 
L 1262.107889 1264.104115 
L 1285.3572 1234.661428 
L 1293.875913 1247.11931 
L 1349.919943 1232.397966 
L 1281.604803 1343.185142 
L 1262.678326 1404.413107 
L 1264.541829 1436.259617 
L 1287.664341 1451.796825 
L 1276.990519 1462.631602 
L 1300.188893 1504.856878 
L 1273.085934 1523.701525 
L 1263.045949 1581.762195 
L 1168.553292 1551.915889 
L 1136.075414 1497.873306 
L 1048.37754 1470.413358 
L 963.988268 1402.360079 
L 883.807649 1385.515635 
z
" clip-path="url(#p9ce2d9808a)" style="fill: #eeeeee; stroke: #000000; stroke-width: 0.3"/>
    <path d="M 486.187919 266.018027 
L 490.269929 254.262168 
L 538.619124 247.033018 
L 534.283673 276.475705 
z
" clip-path="url(#p9ce2d9808a)" style="fill: #eeeeee; stroke: #000000; stroke-width: 0.3"/>
    <path d="M 381.858092 604.837042 
L 387.740206 594.028568 
L 387.752824 606.2758 
L 386.117527 607.697093 
z
" clip-path="url(#p9ce2d9808a)" style="fill: #eeeeee; stroke: #000000; stroke-width: 0.3"/>
    <path d="M 193.83623 1038.88856 
L 205.650928 1034.466853 
L 205.650928 1053.601064 
L 197.690034 1053.048458 
z
" clip-path="url(#p9ce2d9808a)" style="fill: #eeeeee; stroke: #000000; stroke-width: 0.3"/>
    <path d="M 1277.548184 1121.636879 
L 1281.452614 1117.013362 
L 1282.289422 1125.08468 
z
" clip-path="url(#p9ce2d9808a)" style="fill: #eeeeee; stroke: #000000; stroke-width: 0.3"/>
    <path d="M 1240.354614 1206.280184 
L 1249.557946 1210.324575 
L 1246.36337 1213.254916 
z
" clip-path="url(#p9ce2d9808a)" style="fill: #eeeeee; stroke: #000000; stroke-width: 0.3"/>
    <path d="M 1236.703625 1179.127263 
L 1245.197104 1186.637136 
L 1243.168794 1193.988968 
z
" clip-path="url(#p9ce2d9808a)" style="fill: #eeeeee; stroke: #000000; stroke-width: 0.3"/>
    <path d="M 1216.294041 1168.51176 
L 1227.690491 1166.458947 
L 1226.866456 1175.477652 
z
" clip-path="url(#p9ce2d9808a)" style="fill: #eeeeee; stroke: #000000; stroke-width: 0.3"/>
    <path d="M 1177.148179 1165.221999 
L 1180.494788 1165.721996 
L 1178.568042 1170.670005 
z
" clip-path="url(#p9ce2d9808a)" style="fill: #eeeeee; stroke: #000000; stroke-width: 0.3"/>
    <path d="M 1146.039382 1173.758171 
L 1148.283125 1172.907162 
L 1148.853562 1175.53026 
z
" clip-path="url(#p9ce2d9808a)" style="fill: #eeeeee; stroke: #000000; stroke-width: 0.3"/>
    <path d="M 1069.142129 706.316166 
L 1071.271846 696.156676 
L 1087.320588 702.052285 
z
" clip-path="url(#p9ce2d9808a)" style="fill: #eeeeee; stroke: #000000; stroke-width: 0.3"/>
    <path d="M 1001.473443 691.09461 
L 1002.943933 687.99782 
L 1004.160981 687.734562 
z
" clip-path="url(#p9ce2d9808a)" style="fill: #eeeeee; stroke: #000000; stroke-width: 0.3"/>
    <path d="M 960.781074 1141.955429 
L 965.800989 1137.051405 
L 967.626483 1139.034144 
z
" clip-path="url(#p9ce2d9808a)" style="fill: #eeeeee; stroke: #000000; stroke-width: 0.3"/>
    <path d="M 912.862745 1752.575316 
L 917.248978 1751.768292 
L 917.020772 1754.821314 
z
" clip-path="url(#p9ce2d9808a)" style="fill: #eeeeee; stroke: #000000; stroke-width: 0.3"/>
    <path d="M 863.055833 1827.182243 
L 867.6575 1826.199714 
L 876.290394 1833.095317 
z
" clip-path="url(#p9ce2d9808a)" style="fill: #eeeeee; stroke: #000000; stroke-width: 0.3"/>
    <path d="M 831.173628 -292.542017 
L 841.720807 -310.983045 
L 848.223984 -307.131623 
z
" clip-path="url(#p9ce2d9808a)" style="fill: #eeeeee; stroke: #000000; stroke-width: 0.3"/>
    <path d="M 831.046985 -310.184645 
L 837.765595 -314.457151 
L 837.499381 -311.974414 
z
" clip-path="url(#p9ce2d9808a)" style="fill: #eeeeee; stroke: #000000; stroke-width: 0.3"/>
    <path d="M 827.776392 1309.162922 
L 830.045525 1303.319922 
L 838.551622 1307.873366 
z
" clip-path="url(#p9ce2d9808a)" style="fill: #eeeeee; stroke: #000000; stroke-width: 0.3"/>
    <path d="M 785.841584 1295.125922 
L 789.441791 1293.388761 
L 793.447628 1302.477753 
z
" clip-path="url(#p9ce2d9808a)" style="fill: #eeeeee; stroke: #000000; stroke-width: 0.3"/>
    <path d="M 769.412447 1547.906641 
L 789.124794 1552.565087 
L 785.866975 1563.127982 
z
" clip-path="url(#p9ce2d9808a)" style="fill: #eeeeee; stroke: #000000; stroke-width: 0.3"/>
    <path d="M 603.803087 350.345681 
L 615.943505 358.025238 
L 613.3837 360.597883 
z
" clip-path="url(#p9ce2d9808a)" style="fill: #eeeeee; stroke: #000000; stroke-width: 0.3"/>
    <path d="M 515.420595 358.59229 
L 518.76736 355.846295 
L 518.348956 359.478442 
z
" clip-path="url(#p9ce2d9808a)" style="fill: #eeeeee; stroke: #000000; stroke-width: 0.3"/>
    <path d="M 477.390373 303.8479 
L 481.92864 296.952297 
L 482.917326 305.892088 
z
" clip-path="url(#p9ce2d9808a)" style="fill: #eeeeee; stroke: #000000; stroke-width: 0.3"/>
    <path d="M 438.633317 212.026759 
L 439.481652 199.391432 
L 444.962185 208.328851 
z
" clip-path="url(#p9ce2d9808a)" style="fill: #eeeeee; stroke: #000000; stroke-width: 0.3"/>
    <path d="M 371.894124 595.362109 
L 378.308667 588.343609 
L 375.354915 599.520558 
z
" clip-path="url(#p9ce2d9808a)" style="fill: #eeeeee; stroke: #000000; stroke-width: 0.3"/>
    <path d="M 211.913281 1055.074966 
L 233.387724 1061.102097 
L 221.851859 1084.377292 
z
" clip-path="url(#p9ce2d9808a)" style="fill: #eeeeee; stroke: #000000; stroke-width: 0.3"/>
    <path d="M 190.667045 645.833993 
L 208.820113 617.733687 
L 196.396969 646.299062 
z
" clip-path="url(#p9ce2d9808a)" style="fill: #eeeeee; stroke: #000000; stroke-width: 0.3"/>
    <path d="M 59.211517 57.882577 
L 65.632291 49.090909 
L 65.219495 58.909091 
z
" clip-path="url(#p9ce2d9808a)" style="fill: #eeeeee; stroke: #000000; stroke-width: 0.3"/>
   </g>
   <g id="PatchCollection_2">
    <defs>
     <path id="m361fd1054c" d="M 59.211517 -50.117423 
L 65.632291 -58.909091 
L 65.219495 -49.090909 
z
" style="stroke: #dd0000; stroke-width: 1.5"/>
    </defs>
    <g clip-path="url(#p9ce2d9808a)">
     <use xlink:href="#m361fd1054c" x="0" y="108" style="fill: #ff6b6b; stroke: #dd0000; stroke-width: 1.5"/>
    </g>
   </g>
  </g>
 </g>
 <defs>
  <clipPath id="p9ce2d9808a">
   <rect x="0" y="0" width="124.843808" height="108"/>
  </clipPath>
 </defs>
</svg>
