<?xml version="1.0" encoding="utf-8" standalone="no"?>
<!DOCTYPE svg PUBLIC "-//W3C//DTD SVG 1.1//EN"
  "http://www.w3.org/Graphics/SVG/1.1/DTD/svg11.dtd">
<svg xmlns:xlink="http://www.w3.org/1999/xlink" width="151.611048pt" height="108pt" viewBox="0 0 151.611048 108" xmlns="http://www.w3.org/2000/svg" version="1.1">
 <metadata>
  <rdf:RDF xmlns:dc="http://purl.org/dc/elements/1.1/" xmlns:cc="http://creativecommons.org/ns#" xmlns:rdf="http://www.w3.org/1999/02/22-rdf-syntax-ns#">
   <cc:Work>
    <dc:type rdf:resource="http://purl.org/dc/dcmitype/StillImage"/>
    <dc:date>2025-09-05T13:56:19.297892</dc:date>
    <dc:format>image/svg+xml</dc:format>
    <dc:creator>
     <cc:Agent>
      <dc:title>Matplotlib v3.10.3, https://matplotlib.org/</dc:title>
     </cc:Agent>
    </dc:creator>
   </cc:Work>
  </rdf:RDF>
 </metadata>
 <defs>
  <style type="text/css">*{stroke-linejoin: round; stroke-linecap: butt}</style>
 </defs>
 <g id="figure_1">
  <g id="patch_1">
   <path d="M 0 108 
L 151.611048 108 
L 151.611048 0 
L 0 0 
z
" style="fill: #ffffff"/>
  </g>
  <g id="axes_1">
   <g id="PatchCollection_1">
    <path d="M 41.660586 89.319846 
L 42.056833 86.829577 
L 42.972254 85.15347 
L 43.998421 84.657057 
L 44.75475 82.112778 
L 45.294788 81.657781 
L 45.081625 81.164938 
L 46.963925 77.787955 
L 46.953145 77.183541 
L 46.014257 78.483524 
L 46.25037 77.85137 
L 50.711314 73.31768 
L 51.037664 70.276194 
L 52.342376 67.321309 
L 52.546496 66.06829 
L 56.413679 63.36607 
L 58.079514 58.808005 
L 59.014752 57.621571 
L 62.821779 56.840394 
L 65.282365 55.688046 
L 67.08764 53.609657 
L 69.178411 52.450374 
L 70.568839 50.945683 
L 73.103839 46.915536 
L 73.289706 45.564232 
L 72.106531 44.376409 
L 72.429753 43.505261 
L 72.281788 40.703563 
L 74.716471 36.835714 
L 74.792624 34.983638 
L 77.915131 31.614379 
L 82.188294 29.841965 
L 85.209437 27.859889 
L 87.474072 23.763157 
L 89.033154 19.380272 
L 91.290901 18.680154 
L 91.929453 20.335446 
L 92.712034 21.149516 
L 93.975887 22.008776 
L 95.661369 22.443157 
L 97.612867 21.883135 
L 98.176376 22.163741 
L 98.551934 21.766217 
L 100.177081 22.199809 
L 101.211949 21.780487 
L 101.675479 21.008422 
L 102.156229 22.543235 
L 102.617498 22.617943 
L 102.060774 21.983013 
L 102.965239 22.655595 
L 104.638026 22.649054 
L 106.799015 24.442362 
L 106.3649 25.147047 
L 107.083425 25.716712 
L 106.627668 26.238932 
L 107.225848 27.667054 
L 106.896174 29.50226 
L 107.449313 30.222798 
L 107.206197 31.76405 
L 107.952766 32.629807 
L 107.699492 33.246153 
L 108.278244 34.177599 
L 109.950462 35.385379 
L 109.044024 36.054956 
L 108.764472 36.977719 
L 109.251367 37.081911 
L 109.188434 37.356487 
L 103.608709 37.149359 
L 102.048887 37.42167 
L 101.80301 37.556316 
L 102.276864 38.7936 
L 98.72314 39.508372 
L 98.663416 40.767737 
L 98.057912 41.021357 
L 97.939776 41.834511 
L 98.415852 41.804564 
L 99.17109 42.87802 
L 98.72314 43.456651 
L 98.782868 44.069315 
L 95.67709 45.056384 
L 92.242821 47.643185 
L 90.68993 49.855581 
L 89.913489 49.855581 
L 89.764174 49.413101 
L 87.554293 49.583285 
L 85.374276 50.229986 
L 83.821389 49.923657 
L 82.955356 50.53632 
L 81.656362 50.57161 
L 77.323569 53.807884 
L 77.260418 58.922771 
L 76.68506 58.922649 
L 76.783903 61.5588 
L 74.142539 61.715717 
L 72.412798 62.876184 
L 71.494767 62.581348 
L 70.560067 62.823834 
L 68.396539 62.048682 
L 65.684073 62.714357 
L 65.917695 63.931956 
L 64.292509 66.509845 
L 62.827855 67.061514 
L 61.246284 72.711586 
L 58.853224 74.466629 
L 57.48661 76.84935 
L 55.007766 78.261994 
L 54.110711 81.13938 
L 53.59743 84.986963 
L 51.846935 87.17476 
L 51.932502 87.712209 
L 51.333654 88.929681 
L 50.392771 89.219861 
L 45.82128 88.929681 
z
" clip-path="url(#p0e826529b8)" style="fill: #eeeeee; stroke: #000000; stroke-width: 0.3"/>
    <path d="M 41.272167 92.034859 
L 41.660586 89.319846 
L 45.82128 88.929681 
L 50.392771 89.219861 
L 51.333654 88.929681 
L 51.932502 87.712209 
L 51.846935 87.17476 
L 53.59743 84.986963 
L 54.110711 81.13938 
L 55.007766 78.261994 
L 57.48661 76.84935 
L 58.853224 74.466629 
L 61.246284 72.711586 
L 62.827855 67.061514 
L 64.292509 66.509845 
L 65.917695 63.931956 
L 65.684073 62.714357 
L 68.396539 62.048682 
L 70.560067 62.823834 
L 71.494767 62.581348 
L 72.412798 62.876184 
L 74.142539 61.715717 
L 76.783903 61.5588 
L 76.68506 58.922649 
L 77.260418 58.922771 
L 77.237895 67.014201 
L 63.018863 67.039116 
L 63.001638 79.379676 
L 60.437445 80.305834 
L 58.74613 81.537147 
L 58.160534 82.501433 
L 58.74613 89.741326 
L 41.895225 89.744097 
L 41.476287 92.500356 
z
" clip-path="url(#p0e826529b8)" style="fill: #eeeeee; stroke: #000000; stroke-width: 0.3"/>
    <path d="M 74.708822 -16.046643 
L 75.442892 -16.466165 
L 74.973449 -16.535326 
L 76.191572 -16.924726 
L 75.954417 -17.157175 
L 76.62972 -17.440556 
L 77.214612 -17.207708 
L 78.763085 -17.754454 
L 79.278087 -17.304216 
L 79.426744 -17.806375 
L 78.872277 -17.975614 
L 79.455955 -18.17497 
L 78.752829 -18.075092 
L 78.840285 -18.540788 
L 80.566971 -19.511016 
L 80.781352 -19.033037 
L 81.519947 -19.642998 
L 81.494215 -19.320577 
L 82.880814 -19.0909 
L 83.29097 -18.511655 
L 84.259939 -18.503137 
L 84.258722 -18.112544 
L 84.6887 -18.535236 
L 88.426697 -18.553271 
L 89.353766 -19.007474 
L 90.100356 -18.511655 
L 91.312219 -18.482921 
L 91.226503 -18.245714 
L 95.210005 -17.647047 
L 98.008593 -18.199345 
L 98.254619 -18.112544 
L 98.075012 -17.850962 
L 99.065368 -18.302788 
L 99.697378 -18.052499 
L 99.570974 -17.787552 
L 101.506307 -17.341672 
L 101.769023 -17.876725 
L 102.529872 -17.982549 
L 102.861439 -17.568774 
L 105.268125 -17.17858 
L 106.694117 -17.65875 
L 106.893747 -17.19602 
L 108.363037 -16.963853 
L 108.133834 -15.998306 
L 108.864943 -16.310509 
L 109.446565 -15.806655 
L 111.114144 -15.518238 
L 111.928726 -14.671484 
L 112.980899 -15.011744 
L 114.193826 -14.245401 
L 115.08304 -14.446613 
L 115.536918 -14.165243 
L 117.16641 -14.259242 
L 117.164641 -14.991864 
L 117.833707 -14.958766 
L 120.097038 -14.359909 
L 120.547057 -13.025412 
L 121.654211 -13.357241 
L 122.945526 -12.598949 
L 124.091547 -12.996093 
L 125.10596 -12.494635 
L 126.895874 -13.198688 
L 127.952448 -13.010012 
L 127.979702 -12.610803 
L 128.536776 -12.481597 
L 127.686908 -11.971909 
L 128.171303 -10.645768 
L 126.892836 -9.508255 
L 124.048535 -8.22336 
L 123.463986 -7.517286 
L 118.707641 -6.290629 
L 117.411971 -5.138476 
L 118.026773 -4.510481 
L 117.253404 -3.920736 
L 116.89176 -4.003174 
L 117.49091 -4.254645 
L 116.767962 -4.041814 
L 112.978497 1.187845 
L 113.684926 3.691497 
L 115.362409 4.957199 
L 112.181661 6.924216 
L 112.206521 7.562911 
L 111.695177 7.781095 
L 111.109584 9.565003 
L 110.702039 9.826191 
L 111.346394 10.425052 
L 108.703877 10.705297 
L 107.220494 11.672919 
L 106.614387 12.433885 
L 106.240052 13.728715 
L 105.272821 14.726094 
L 104.268728 14.237215 
L 103.417992 14.324805 
L 102.74512 14.990846 
L 101.826396 14.651784 
L 95.545396 14.787132 
L 94.451245 15.840196 
L 92.198079 16.309857 
L 91.547648 17.625195 
L 91.177299 17.437036 
L 91.120964 18.006569 
L 90.381155 18.281033 
L 88.565099 17.389474 
L 87.397572 15.71119 
L 87.733139 16.010424 
L 87.955865 15.811462 
L 87.035752 15.210618 
L 86.870576 14.653961 
L 87.245437 14.440735 
L 87.277078 14.008531 
L 87.768259 13.917965 
L 87.889791 13.772907 
L 87.249261 13.923118 
L 87.064266 14.376527 
L 86.58752 13.638748 
L 84.906905 12.631064 
L 85.078688 12.004457 
L 84.609244 12.303491 
L 84.754944 12.602924 
L 82.678432 12.503246 
L 82.251453 10.513363 
L 83.283975 8.684075 
L 84.34675 8.462224 
L 84.673552 7.614462 
L 84.006918 7.726709 
L 82.914336 6.398251 
L 83.293692 4.980322 
L 84.209625 4.407384 
L 84.563365 3.63399 
L 83.346468 2.67285 
L 83.109534 1.474128 
L 82.067958 0.39118 
L 84.358893 0.32197 
L 84.963257 -1.212989 
L 84.26505 -2.051566 
L 85.327602 -2.903984 
L 85.059754 -3.321509 
L 85.234639 -5.341187 
L 84.694973 -6.116345 
L 85.285206 -6.352164 
L 85.959125 -7.341741 
L 87.350027 -8.040134 
L 87.84222 -8.815793 
L 86.408259 -9.247413 
L 86.482233 -10.262919 
L 86.117892 -10.725118 
L 83.828059 -10.847681 
L 83.514947 -10.319544 
L 82.557502 -9.963553 
L 81.364008 -10.417946 
L 80.618102 -10.216735 
L 80.57747 -10.489046 
L 79.408926 -9.986706 
L 79.192533 -10.444372 
L 79.769956 -11.107909 
L 79.304486 -11.247338 
L 79.226093 -11.656813 
L 77.497569 -11.157113 
L 76.410644 -10.388944 
L 76.349792 -11.488577 
L 76.644501 -11.544263 
L 77.515405 -12.600897 
L 76.469415 -12.157394 
L 77.37631 -13.058071 
L 76.571646 -12.874762 
L 76.148453 -13.194212 
L 76.644501 -13.157944 
L 77.052918 -14.261346 
L 75.790628 -13.55369 
L 75.774459 -14.355278 
L 76.383173 -14.956321 
L 75.474884 -14.597837 
L 75.328487 -15.377231 
L 74.736464 -15.259319 
z
" clip-path="url(#p0e826529b8)" style="fill: #eeeeee; stroke: #000000; stroke-width: 0.3"/>
    <path d="M 124.404963 0.894358 
L 126.381154 -0.547712 
L 127.945971 -1.016185 
L 127.593363 -0.747073 
L 128.062811 -0.647196 
L 127.762364 -0.139489 
L 129.20617 0.050755 
L 129.11854 0.4891 
L 128.258587 1.821187 
L 127.438971 2.391515 
L 127.003254 1.932953 
L 126.267445 1.871126 
L 125.818862 0.981154 
L 125.011416 1.411771 
z
" clip-path="url(#p0e826529b8)" style="fill: #eeeeee; stroke: #000000; stroke-width: 0.3"/>
    <path d="M 130.611028 -1.256562 
L 131.90113 -1.555002 
L 132.892528 -0.52136 
L 132.512454 -0.274442 
L 130.72856 -0.856857 
z
" clip-path="url(#p0e826529b8)" style="fill: #eeeeee; stroke: #000000; stroke-width: 0.3"/>
    <path d="M 119.558902 4.26163 
L 120.157702 3.323896 
L 121.222476 3.257311 
L 121.295497 3.559715 
L 120.355644 4.51877 
z
" clip-path="url(#p0e826529b8)" style="fill: #eeeeee; stroke: #000000; stroke-width: 0.3"/>
    <path d="M 111.136188 9.670827 
L 111.197565 10.021188 
L 111.255981 10.202709 
L 111.168701 10.112148 
z
" clip-path="url(#p0e826529b8)" style="fill: #eeeeee; stroke: #000000; stroke-width: 0.3"/>
    <path d="M 126.810038 2.961847 
L 127.096192 2.798223 
L 127.017449 3.136691 
z
" clip-path="url(#p0e826529b8)" style="fill: #eeeeee; stroke: #000000; stroke-width: 0.3"/>
    <path d="M 122.681878 -13.106198 
L 122.720741 -13.254938 
L 122.904014 -13.070461 
z
" clip-path="url(#p0e826529b8)" style="fill: #eeeeee; stroke: #000000; stroke-width: 0.3"/>
    <path d="M 120.269522 5.445161 
L 120.476232 4.895766 
L 121.117459 5.391585 
z
" clip-path="url(#p0e826529b8)" style="fill: #eeeeee; stroke: #000000; stroke-width: 0.3"/>
    <path d="M 103.970772 22.312033 
L 103.979404 22.276617 
L 103.991761 22.295727 
z
" clip-path="url(#p0e826529b8)" style="fill: #eeeeee; stroke: #000000; stroke-width: 0.3"/>
    <path d="M 101.696027 21.788717 
L 101.874386 21.780087 
L 101.91333 21.83399 
z
" clip-path="url(#p0e826529b8)" style="fill: #eeeeee; stroke: #000000; stroke-width: 0.3"/>
    <path d="M 97.689926 22.124273 
L 97.695716 22.121633 
L 97.696293 22.124438 
z
" clip-path="url(#p0e826529b8)" style="fill: #eeeeee; stroke: #000000; stroke-width: 0.3"/>
    <path d="M 97.684691 22.136604 
L 97.685563 22.131159 
L 97.687153 22.133307 
z
" clip-path="url(#p0e826529b8)" style="fill: #eeeeee; stroke: #000000; stroke-width: 0.3"/>
    <path d="M 95.978263 22.341751 
L 95.991868 22.342004 
L 95.999564 22.343772 
z
" clip-path="url(#p0e826529b8)" style="fill: #eeeeee; stroke: #000000; stroke-width: 0.3"/>
    <path d="M 91.290901 18.680154 
L 91.785667 18.742566 
L 91.378318 18.888681 
z
" clip-path="url(#p0e826529b8)" style="fill: #eeeeee; stroke: #000000; stroke-width: 0.3"/>
    <path d="M 91.196977 18.73 
L 91.217786 18.733595 
L 91.20959 18.746535 
z
" clip-path="url(#p0e826529b8)" style="fill: #eeeeee; stroke: #000000; stroke-width: 0.3"/>
    <path d="M 146.343097 28.758939 
L 146.482209 27.590042 
L 147.541227 26.861069 
L 147.824309 26.034701 
L 149.554602 24.898644 
L 149.827966 22.853042 
L 150.387066 22.005406 
L 149.80191 21.599457 
L 149.984302 20.562815 
L 149.5758 19.151427 
L 150.072629 16.216413 
L 149.270191 15.751569 
L 150.383092 15.085391 
L 150.30934 14.494711 
L 151.286215 14.239266 
L 151.11865 13.736887 
L 152.06675 13.542241 
L 153.717458 12.303491 
L 155.998963 11.761104 
L 156.487182 11.840965 
L 156.115107 12.403368 
L 156.30358 12.702797 
L 156.723991 12.57399 
L 156.319228 12.333808 
L 156.588029 12.158627 
L 158.252992 12.572802 
L 157.637497 12.669509 
L 158.060344 12.86926 
L 157.86944 13.310581 
L 158.573608 14.025372 
L 157.895518 14.428053 
L 158.608381 14.751462 
L 159.306571 14.631607 
L 159.589695 14.045389 
L 161.581183 13.05118 
L 161.920925 14.153151 
L 160.508205 16.111714 
L 159.444226 16.47517 
L 159.118482 17.764648 
L 159.748262 19.079056 
L 161.538291 20.076795 
L 161.543568 21.553897 
L 162.043196 22.117269 
L 159.641189 25.399985 
L 157.631588 26.466964 
L 157.112415 27.221788 
L 157.394779 28.314686 
L 158.501274 29.500127 
L 159.180753 29.77142 
L 160.152333 29.48011 
L 159.970466 30.265846 
L 160.244134 30.595007 
L 160.976119 30.294979 
L 161.090528 29.82413 
L 161.546064 29.913902 
L 161.799268 31.149876 
L 162.618136 31.526195 
L 161.934137 31.406306 
L 162.130259 31.894989 
L 163.213808 31.980398 
L 162.866769 31.662336 
L 163.521447 32.040418 
L 163.285637 34.686231 
L 163.697674 35.678199 
L 160.821364 37.127462 
L 160.392544 37.771242 
L 159.679317 38.019144 
L 159.221795 39.038419 
L 158.217979 39.349239 
L 157.544056 40.573125 
L 158.175142 43.433898 
L 156.54024 45.803908 
L 155.03783 46.418749 
L 153.00944 37.443313 
L 149.95957 35.223553 
L 149.75289 33.719929 
L 148.915127 32.463826 
L 147.368992 31.796013 
L 147.232974 30.711423 
z
" clip-path="url(#p0e826529b8)" style="fill: #eeeeee; stroke: #000000; stroke-width: 0.3"/>
    <path d="M 160.235092 28.614114 
L 161.620824 29.023331 
L 160.883617 29.805409 
L 160.620384 29.368739 
L 160.252787 29.438509 
z
" clip-path="url(#p0e826529b8)" style="fill: #eeeeee; stroke: #000000; stroke-width: 0.3"/>
    <path d="M 161.921784 24.822489 
L 162.449601 24.030934 
L 162.632335 24.503969 
z
" clip-path="url(#p0e826529b8)" style="fill: #eeeeee; stroke: #000000; stroke-width: 0.3"/>
    <path d="M 161.308212 24.781146 
L 161.836734 24.840923 
L 161.601147 25.028639 
z
" clip-path="url(#p0e826529b8)" style="fill: #eeeeee; stroke: #000000; stroke-width: 0.3"/>
    <path d="M 142.573596 -26.022968 
L 144.734251 -26.781509 
L 144.957716 -27.520422 
L 144.197675 -28.008419 
L 144.11465 -28.639614 
L 143.339598 -29.305543 
L 144.365496 -30.025331 
L 144.927241 -29.788002 
L 146.583342 -30.311985 
L 147.876422 -29.995886 
L 149.0167 -31.007613 
L 148.917336 -31.713053 
L 150.249719 -32.591522 
L 150.416212 -31.535623 
L 152.000766 -30.826408 
L 151.825441 -30.306954 
L 152.265743 -30.131535 
L 152.389839 -29.54388 
L 152.827492 -29.516193 
L 153.086726 -29.897231 
L 152.826167 -30.580775 
L 153.77787 -31.515236 
L 154.023413 -32.81161 
L 154.674369 -32.816266 
L 155.109373 -31.843672 
L 156.741622 -32.196896 
L 157.413776 -31.460875 
L 157.769285 -31.667502 
L 157.48223 -31.991404 
L 157.691559 -32.351549 
L 157.202682 -32.562705 
L 157.230063 -32.985013 
L 157.91105 -33.44205 
L 158.987293 -33.008166 
L 159.051768 -33.426198 
L 158.667554 -33.664028 
L 159.029245 -34.599244 
L 161.349989 -34.135033 
L 162.108706 -35.083466 
L 164.503201 -35.116433 
L 166.407935 -35.674521 
L 166.178287 -34.815684 
L 166.775365 -34.617366 
L 167.366705 -33.750352 
L 172.904251 -32.920585 
L 171.46985 -31.803152 
L 171.661515 -31.402238 
L 172.632651 -31.267841 
L 171.882331 -30.420459 
L 172.497958 -30.318277 
L 172.327491 -29.563005 
L 173.236574 -29.139694 
L 173.732079 -28.596328 
L 173.531582 -28.366553 
L 172.950446 -28.408173 
L 173.362166 -28.511022 
L 172.362769 -29.36473 
L 171.625566 -28.808673 
L 171.487515 -29.145558 
L 170.41892 -29.278728 
L 170.272177 -28.64538 
L 167.446464 -27.65256 
L 168.121768 -28.211788 
L 167.331363 -28.145403 
L 166.296149 -27.04577 
L 166.620935 -26.513883 
L 166.949199 -26.642694 
L 167.212091 -25.572584 
L 167.212091 -25.838725 
L 167.917301 -25.373228 
L 167.535834 -24.644961 
L 167.374832 -24.989774 
L 167.414472 -24.561135 
L 166.774288 -24.674883 
L 167.212091 -21.869815 
L 168.591216 -20.60332 
L 172.539423 -18.508485 
L 174.504136 -13.824978 
L 177.212658 -11.763236 
L 177.347232 -11.320727 
L 179.161724 -10.55699 
L 183.328311 -10.518545 
L 183.515741 -9.835258 
L 182.301096 -9.031888 
L 182.561898 -8.276075 
L 187.245222 -6.437075 
L 189.035371 -5.211207 
L 191.304006 -4.337282 
L 193.47945 -1.846312 
L 192.936981 -0.277412 
L 191.579763 -0.737362 
L 190.689207 -2.559321 
L 189.189071 -2.647306 
L 187.856542 -3.215651 
L 188.382321 -3.595939 
L 186.898875 -3.5674 
L 185.31215 -1.579577 
L 185.426902 -1.003698 
L 184.820799 -0.073498 
L 185.060736 0.483354 
L 187.679196 1.723691 
L 187.737616 3.894223 
L 185.230434 4.686499 
L 185.161929 6.480318 
L 183.452104 7.874631 
L 183.057771 8.864875 
L 181.379591 8.79849 
L 181.159126 7.499301 
L 181.92832 7.108114 
L 182.376903 6.055249 
L 182.029859 5.411401 
L 183.380125 5.01249 
L 183.675351 4.400347 
L 181.76419 -0.637879 
L 181.122613 -1.547078 
L 180.207432 -1.138879 
L 179.571359 -1.311254 
L 178.998637 -1.994341 
L 178.075393 -2.345101 
L 178.447673 -3.10443 
L 177.523536 -4.430619 
L 175.646102 -3.947288 
L 176.208048 -4.721929 
L 175.4392 -5.253217 
L 174.385894 -5.013687 
L 174.273288 -5.65772 
L 172.993565 -7.267597 
L 172.233413 -7.044655 
L 171.130391 -7.478646 
L 170.099698 -7.146515 
L 169.454296 -7.983182 
L 168.350582 -8.217813 
L 166.657448 -9.624214 
L 165.723081 -10.874852 
L 164.898944 -11.075002 
L 164.175651 -12.26916 
L 162.972478 -12.89022 
L 161.818689 -12.814124 
L 162.168344 -13.247594 
L 162.040197 -13.655545 
L 161.12217 -14.527088 
L 160.214924 -14.826321 
L 160.35263 -15.380796 
L 159.224568 -15.488997 
L 159.346972 -16.980612 
L 158.44564 -18.177941 
L 158.165362 -19.902004 
L 157.477192 -20.772558 
L 156.426677 -21.178011 
L 156.373473 -20.854996 
L 153.802653 -22.371575 
L 153.717458 -22.135956 
L 151.801773 -22.753446 
L 150.535664 -22.130803 
L 148.833491 -20.145752 
L 146.417413 -19.637051 
L 146.313067 -19.994002 
L 147.219283 -20.976911 
L 147.072664 -21.506431 
L 145.726586 -21.251234 
L 144.157487 -21.86381 
L 143.569241 -23.249776 
L 144.099635 -23.976105 
L 144.506813 -23.984413 
L 144.292185 -24.681297 
L 143.183262 -25.070132 
z
M 167.571898 -10.440656 
L 167.576188 -10.434992 
L 167.575966 -10.440398 
z
M 167.326726 -20.39771 
L 167.679817 -20.244928 
L 167.696366 -20.564066 
z
" clip-path="url(#p0e826529b8)" style="fill: #eeeeee; stroke: #000000; stroke-width: 0.3"/>
    <path d="M 149.173579 -4.057271 
L 149.369004 -5.86199 
L 149.869748 -5.31108 
L 150.768298 -5.195749 
L 152.058751 -5.781929 
L 153.802653 -7.317536 
L 154.621922 -6.918624 
L 154.709553 -6.486415 
L 155.208207 -6.652678 
L 155.004432 -6.117626 
L 155.648441 -6.05124 
L 154.971744 -5.682451 
L 155.910636 -5.28314 
L 155.628272 -5.063767 
L 156.236815 -3.386672 
L 155.492656 -2.449532 
L 155.946106 -1.577001 
L 155.237417 2.975123 
L 155.032946 3.192708 
L 152.876631 2.416684 
L 153.158299 2.608116 
L 152.927053 3.72479 
L 152.190196 4.296111 
L 151.605997 4.03017 
L 151.28295 4.362696 
L 150.935214 3.425756 
L 150.137156 2.620398 
L 150.441427 0.015086 
L 150.753001 0.28241 
L 150.961643 0.287563 
L 150.699448 0.188084 
L 150.916434 -0.45081 
L 150.230004 -0.742909 
L 150.155936 -1.332659 
L 150.637899 -1.677073 
L 150.167409 -3.450876 
L 149.78977 -4.067776 
z
" clip-path="url(#p0e826529b8)" style="fill: #eeeeee; stroke: #000000; stroke-width: 0.3"/>
    <path d="M 167.460723 9.560644 
L 167.74239 8.467746 
L 168.64685 8.032372 
L 168.762995 7.63326 
L 169.486639 8.435447 
L 170.17133 8.165542 
L 170.340331 7.646342 
L 171.268443 7.497514 
L 171.581405 8.069629 
L 173.288098 8.700595 
L 174.269759 8.331605 
L 176.3687 8.355981 
L 178.058006 7.65803 
L 178.830678 7.947558 
L 179.468431 7.282505 
L 179.702108 7.563904 
L 181.239454 7.231378 
L 179.365499 9.733842 
L 178.846326 11.116861 
L 178.897444 11.836211 
L 179.531718 12.187166 
L 179.238924 12.431903 
L 179.87528 13.385689 
L 179.131817 13.811352 
L 178.85641 15.122828 
L 176.264379 14.448659 
L 175.373477 13.227943 
L 172.967833 12.607677 
L 170.652948 11.070488 
L 168.45351 10.690005 
z
" clip-path="url(#p0e826529b8)" style="fill: #eeeeee; stroke: #000000; stroke-width: 0.3"/>
    <path d="M 157.546389 -14.597243 
L 157.658362 -14.862784 
L 158.984631 -15.026077 
L 158.865705 -14.361024 
z
" clip-path="url(#p0e826529b8)" style="fill: #eeeeee; stroke: #000000; stroke-width: 0.3"/>
    <path d="M 154.684513 -6.943988 
L 154.845866 -7.18813 
L 154.846212 -6.911489 
L 154.801354 -6.879385 
z
" clip-path="url(#p0e826529b8)" style="fill: #eeeeee; stroke: #000000; stroke-width: 0.3"/>
    <path d="M 149.526879 2.860381 
L 149.850968 2.760504 
L 149.850968 3.192708 
L 149.632592 3.180226 
z
" clip-path="url(#p0e826529b8)" style="fill: #eeeeee; stroke: #000000; stroke-width: 0.3"/>
    <path d="M 179.254222 4.729503 
L 179.361324 4.625067 
L 179.384279 4.807382 
z
" clip-path="url(#p0e826529b8)" style="fill: #eeeeee; stroke: #000000; stroke-width: 0.3"/>
    <path d="M 178.233963 6.641429 
L 178.48642 6.732784 
L 178.39879 6.798974 
z
" clip-path="url(#p0e826529b8)" style="fill: #eeeeee; stroke: #000000; stroke-width: 0.3"/>
    <path d="M 178.133813 6.028098 
L 178.366798 6.197731 
L 178.311159 6.363794 
z
" clip-path="url(#p0e826529b8)" style="fill: #eeeeee; stroke: #000000; stroke-width: 0.3"/>
    <path d="M 177.573957 5.788314 
L 177.886573 5.741945 
L 177.863969 5.94566 
z
" clip-path="url(#p0e826529b8)" style="fill: #eeeeee; stroke: #000000; stroke-width: 0.3"/>
    <path d="M 176.500145 5.714005 
L 176.591946 5.725299 
L 176.539094 5.837065 
z
" clip-path="url(#p0e826529b8)" style="fill: #eeeeee; stroke: #000000; stroke-width: 0.3"/>
    <path d="M 175.646799 5.90682 
L 175.708347 5.887598 
L 175.723995 5.946848 
z
" clip-path="url(#p0e826529b8)" style="fill: #eeeeee; stroke: #000000; stroke-width: 0.3"/>
    <path d="M 173.537427 -4.651774 
L 173.595848 -4.881257 
L 174.036081 -4.748087 
z
" clip-path="url(#p0e826529b8)" style="fill: #eeeeee; stroke: #000000; stroke-width: 0.3"/>
    <path d="M 171.681205 -4.995599 
L 171.721542 -5.06555 
L 171.754927 -5.071496 
z
" clip-path="url(#p0e826529b8)" style="fill: #eeeeee; stroke: #000000; stroke-width: 0.3"/>
    <path d="M 170.564971 5.188459 
L 170.702673 5.077687 
L 170.752748 5.122473 
z
" clip-path="url(#p0e826529b8)" style="fill: #eeeeee; stroke: #000000; stroke-width: 0.3"/>
    <path d="M 169.250522 18.981161 
L 169.370841 18.962931 
L 169.364581 19.031893 
z
" clip-path="url(#p0e826529b8)" style="fill: #eeeeee; stroke: #000000; stroke-width: 0.3"/>
    <path d="M 167.884266 20.666384 
L 168.010495 20.644191 
L 168.247304 20.799949 
z
" clip-path="url(#p0e826529b8)" style="fill: #eeeeee; stroke: #000000; stroke-width: 0.3"/>
    <path d="M 167.009705 -27.214015 
L 167.299025 -27.630561 
L 167.477413 -27.543565 
z
" clip-path="url(#p0e826529b8)" style="fill: #eeeeee; stroke: #000000; stroke-width: 0.3"/>
    <path d="M 167.006231 -27.612527 
L 167.190529 -27.709035 
L 167.183226 -27.652954 
z
" clip-path="url(#p0e826529b8)" style="fill: #eeeeee; stroke: #000000; stroke-width: 0.3"/>
    <path d="M 166.916515 8.965347 
L 166.97876 8.833365 
L 167.212091 8.936219 
z
" clip-path="url(#p0e826529b8)" style="fill: #eeeeee; stroke: #000000; stroke-width: 0.3"/>
    <path d="M 165.7662 8.648279 
L 165.864957 8.60904 
L 165.974841 8.814342 
z
" clip-path="url(#p0e826529b8)" style="fill: #eeeeee; stroke: #000000; stroke-width: 0.3"/>
    <path d="M 165.315531 14.358098 
L 165.856261 14.463323 
L 165.766896 14.701918 
z
" clip-path="url(#p0e826529b8)" style="fill: #eeeeee; stroke: #000000; stroke-width: 0.3"/>
    <path d="M 160.772695 -12.692447 
L 161.105719 -12.518981 
L 161.035501 -12.46087 
z
" clip-path="url(#p0e826529b8)" style="fill: #eeeeee; stroke: #000000; stroke-width: 0.3"/>
    <path d="M 158.348271 -12.506172 
L 158.440077 -12.568199 
L 158.428599 -12.486156 
z
" clip-path="url(#p0e826529b8)" style="fill: #eeeeee; stroke: #000000; stroke-width: 0.3"/>
    <path d="M 157.305063 -13.74274 
L 157.429552 -13.898498 
L 157.456673 -13.696566 
z
" clip-path="url(#p0e826529b8)" style="fill: #eeeeee; stroke: #000000; stroke-width: 0.3"/>
    <path d="M 156.241917 -15.816799 
L 156.265187 -16.102206 
L 156.415524 -15.900328 
z
" clip-path="url(#p0e826529b8)" style="fill: #eeeeee; stroke: #000000; stroke-width: 0.3"/>
    <path d="M 154.411191 -7.158008 
L 154.587149 -7.316542 
L 154.506124 -7.064077 
z
" clip-path="url(#p0e826529b8)" style="fill: #eeeeee; stroke: #000000; stroke-width: 0.3"/>
    <path d="M 150.022751 3.226 
L 150.611817 3.362141 
L 150.295376 3.887882 
z
" clip-path="url(#p0e826529b8)" style="fill: #eeeeee; stroke: #000000; stroke-width: 0.3"/>
    <path d="M 149.439945 -6.017948 
L 149.937902 -6.652678 
L 149.597122 -6.007443 
z
" clip-path="url(#p0e826529b8)" style="fill: #eeeeee; stroke: #000000; stroke-width: 0.3"/>
    <path d="M 61.955648 121.68235 
L 62.783476 121.879787 
L 63.851767 121.073427 
L 63.743789 119.714135 
L 64.250557 117.950662 
L 64.72994 117.950662 
L 65.116586 117.452472 
L 67.719748 120.085101 
L 68.530797 118.477163 
L 71.341302 118.809874 
L 74.091973 118.440792 
L 73.973175 117.721009 
L 74.380131 117.187588 
L 74.411046 118.172387 
L 90.811933 118.179434 
L 91.485634 114.196698 
L 90.331666 113.14546 
L 86.187888 71.913027 
L 93.757469 71.908493 
L 119.259275 90.869829 
L 119.29372 92.637335 
L 121.024897 93.325408 
L 121.958051 94.753409 
L 123.210503 95.196731 
L 123.7643 94.901389 
L 124.617083 95.959928 
L 128.028644 97.109446 
L 128.293617 99.214319 
L 127.624112 100.445505 
L 128.396519 101.126283 
L 132.429007 100.412787 
L 132.238222 113.689829 
L 131.710922 114.263142 
L 130.90186 117.105038 
L 129.429041 118.170877 
L 129.346012 118.86235 
L 127.322481 118.509374 
L 127.17984 118.934702 
L 120.049788 119.205001 
L 118.520877 120.628842 
L 117.223378 120.879764 
L 115.305616 120.60607 
L 115.293695 121.019821 
L 113.348773 120.266686 
L 112.541037 120.5736 
L 112.360853 120.197096 
L 111.284833 120.204143 
L 109.751508 121.578031 
L 107.10926 123.040254 
L 105.826776 123.164078 
L 105.660724 124.573825 
L 105.165223 124.696013 
L 103.841446 124.088351 
L 103.261592 124.373748 
L 102.108286 125.453803 
L 101.988826 127.15298 
L 101.252747 127.371558 
L 100.315064 126.928357 
L 100.478797 128.900727 
L 99.624583 129.032222 
L 99.620605 129.504488 
L 97.389513 128.443057 
L 97.618716 128.12985 
L 97.34833 127.896549 
L 95.768083 129.750374 
L 96.362841 131.207186 
L 96.167313 131.685744 
L 95.194742 131.716198 
L 95.613512 132.596298 
L 95.338378 133.076746 
L 95.532804 133.699384 
L 95.182264 133.634956 
L 94.873348 134.468751 
L 94.015267 135.164626 
L 92.613546 135.297762 
L 91.233246 136.031893 
L 91.768276 136.370897 
L 92.062399 138.010803 
L 91.574401 139.474916 
L 90.840639 139.713 
L 91.151764 140.823381 
L 90.937136 142.330025 
L 90.762251 142.864956 
L 89.243279 143.105684 
L 88.654148 144.012463 
L 87.696703 143.710205 
L 87.950639 142.890627 
L 87.605727 142.433463 
L 87.848621 141.870845 
L 87.628472 141.399085 
L 86.897581 141.595768 
L 86.816544 142.247602 
L 85.86285 141.751302 
L 85.863957 143.178922 
L 84.614816 143.257566 
L 84.381856 144.251048 
L 82.896449 143.708944 
L 82.306438 142.70351 
L 81.610214 142.808204 
L 80.906922 143.906381 
L 80.220414 144.148239 
L 80.192153 143.338479 
L 79.198272 142.875023 
L 78.913426 142.319705 
L 78.780715 139.95083 
L 78.015157 139.809892 
L 77.785291 140.205273 
L 77.201242 140.248432 
L 78.572488 138.276443 
L 77.369939 137.649275 
L 77.071843 136.903943 
L 76.556024 136.862668 
L 76.673275 135.135181 
L 76.236067 134.975873 
L 76.006201 133.401149 
L 75.273763 132.929769 
L 74.201938 132.892015 
L 74.582175 133.454506 
L 74.464039 133.882605 
L 73.219099 134.368079 
L 72.813904 135.073018 
L 70.489626 134.136039 
L 69.444076 134.621767 
L 68.590636 135.730643 
L 67.56187 134.127984 
L 67.133712 134.210534 
L 66.540385 135.126624 
L 65.92719 135.069244 
L 65.187466 134.263638 
L 65.696662 133.32439 
L 65.743032 132.858041 
L 65.358373 132.549739 
L 65.695777 130.470035 
L 65.079488 129.782083 
L 64.737447 128.569399 
L 64.190051 128.3405 
L 63.818647 128.830129 
L 62.667105 126.896019 
L 63.242767 126.286969 
L 63.094601 124.647189 
L 62.136823 123.551024 
L 62.379166 122.33041 
z
" clip-path="url(#p0e826529b8)" style="fill: #eeeeee; stroke: #000000; stroke-width: 0.3"/>
    <path d="M 77.260418 60.754071 
L 77.275874 53.899745 
L 81.802319 50.507182 
L 82.955356 50.53632 
L 83.821389 49.923657 
L 85.374276 50.229986 
L 86.957027 49.65136 
L 89.764174 49.413101 
L 89.913489 49.855581 
L 90.68993 49.855581 
L 92.242821 47.643185 
L 95.67709 45.056384 
L 98.782868 44.069315 
L 98.72314 43.456651 
L 99.17109 42.87802 
L 98.415852 41.804564 
L 97.939776 41.834511 
L 98.057912 41.021357 
L 98.663416 40.767737 
L 98.72314 39.508372 
L 102.276864 38.7936 
L 101.80301 37.556316 
L 102.048887 37.42167 
L 103.608709 37.149359 
L 109.188434 37.356487 
L 109.251367 37.081911 
L 108.764472 36.977719 
L 109.044024 36.054956 
L 109.950462 35.385379 
L 108.278244 34.177599 
L 107.699492 33.246153 
L 107.952766 32.629807 
L 107.206197 31.76405 
L 107.449313 30.222798 
L 106.896174 29.50226 
L 107.225848 27.667054 
L 106.627668 26.238932 
L 107.083425 25.716712 
L 106.3649 25.147047 
L 106.799015 24.442362 
L 104.986142 23.165118 
L 104.863187 22.747743 
L 106.834857 22.551358 
L 108.827387 21.407139 
L 109.946407 19.858256 
L 110.934674 19.413564 
L 111.683353 19.661671 
L 112.311363 18.847995 
L 114.005191 19.313886 
L 115.822815 17.309418 
L 120.114583 15.65828 
L 124.408441 15.203683 
L 125.473211 15.408192 
L 126.89337 14.374545 
L 127.778012 14.70053 
L 128.150442 14.356316 
L 129.232248 14.527137 
L 130.913209 13.845438 
L 134.815516 13.951652 
L 137.025734 15.180891 
L 138.860395 14.258814 
L 140.840059 13.917965 
L 141.774777 12.989548 
L 144.05141 13.977815 
L 145.266406 13.603673 
L 145.22259 13.005006 
L 147.683527 13.473474 
L 147.576074 13.978209 
L 148.15297 14.174989 
L 149.540441 13.646477 
L 151.11865 13.736887 
L 151.286215 14.239266 
L 150.30934 14.494711 
L 150.383092 15.085391 
L 149.270191 15.751569 
L 150.072629 16.216413 
L 149.5758 19.151427 
L 149.984302 20.562815 
L 149.80191 21.599457 
L 150.387066 22.005406 
L 149.827966 22.853042 
L 149.554602 24.898644 
L 147.824309 26.034701 
L 147.541227 26.861069 
L 146.482209 27.590042 
L 146.321455 28.569557 
L 147.368992 31.796013 
L 148.915127 32.463826 
L 149.75289 33.719929 
L 149.95957 35.223553 
L 153.00944 37.443313 
L 155.03783 46.418749 
L 154.041522 46.963118 
L 155.670237 49.441095 
L 156.34725 51.777759 
L 156.137036 55.970765 
L 156.809191 58.114521 
L 155.89944 60.722614 
L 156.691277 62.838182 
L 156.647116 63.835059 
L 156.388322 64.558622 
L 154.879285 65.297282 
L 154.431475 66.191481 
L 157.124072 70.270355 
L 157.22697 72.584114 
L 157.916349 73.102311 
L 158.125238 73.856322 
L 158.844203 74.449641 
L 160.077222 74.04621 
L 163.676475 75.305712 
L 165.503043 79.105227 
L 146.333821 91.985753 
L 139.119197 98.914953 
L 128.602315 101.224563 
L 127.624112 100.445505 
L 128.293617 99.214319 
L 128.028644 97.109446 
L 124.617083 95.959928 
L 123.7643 94.901389 
L 123.210503 95.196731 
L 121.958051 94.753409 
L 121.024897 93.325408 
L 119.29372 92.637335 
L 119.259275 90.869829 
L 93.757469 71.908493 
z
" clip-path="url(#p0e826529b8)" style="fill: #eeeeee; stroke: #000000; stroke-width: 0.3"/>
    <path d="M 73.777579 4.628437 
L 74.40403 2.741004 
L 74.154354 1.874691 
L 74.973449 1.723691 
L 75.516828 0.88076 
L 76.466633 -1.776157 
L 76.822018 -1.746434 
L 76.2945 -2.145545 
L 76.958681 -4.289131 
L 77.729264 -4.847965 
L 77.31998 -4.808526 
L 77.254778 -4.982124 
L 77.41769 -5.179697 
L 77.37631 -5.28314 
L 76.968069 -4.349175 
L 77.405867 -6.782478 
L 77.026314 -7.254321 
L 76.627477 -9.309172 
L 77.201575 -9.554653 
L 76.414703 -9.627078 
L 76.469415 -10.222481 
L 77.497569 -11.157113 
L 79.226093 -11.656813 
L 79.304486 -11.247338 
L 79.769956 -11.107909 
L 79.186128 -10.353645 
L 79.776801 -9.967328 
L 80.57747 -10.489046 
L 80.618102 -10.216735 
L 81.364008 -10.417946 
L 82.557502 -9.963553 
L 83.514947 -10.319544 
L 83.766674 -10.839124 
L 86.117892 -10.725118 
L 86.482233 -10.262919 
L 86.408259 -9.247413 
L 87.84222 -8.815793 
L 87.350027 -8.040134 
L 85.959125 -7.341741 
L 85.285206 -6.352164 
L 84.694973 -6.116345 
L 85.234639 -5.341187 
L 85.059754 -3.321509 
L 85.327602 -2.903984 
L 84.26505 -2.051566 
L 84.963257 -1.212989 
L 84.358893 0.32197 
L 82.067958 0.39118 
L 83.109534 1.474128 
L 83.406084 2.749108 
L 84.510371 3.376781 
L 84.001176 4.54354 
L 83.293692 4.980322 
L 82.914336 6.398251 
L 84.006918 7.726709 
L 84.673552 7.614462 
L 84.34675 8.462224 
L 83.283975 8.684075 
L 82.185871 10.680099 
L 82.707467 12.639387 
L 80.947225 13.448504 
L 77.697272 12.838543 
L 75.912336 13.337732 
L 76.962155 9.883264 
L 76.720654 9.921709 
L 76.737276 9.050011 
L 76.352574 8.803248 
L 76.867256 7.661639 
L 76.778912 6.822614 
L 76.148453 6.227653 
L 76.763948 6.496965 
L 77.583388 6.533033 
L 77.03066 6.371523 
L 76.871743 5.818836 
L 76.807413 6.227653 
L 76.305631 6.076649 
L 74.91781 6.533033 
L 75.117906 5.88603 
L 74.823573 5.331087 
L 75.442892 5.363245 
L 76.148453 4.7949 
L 75.85392 4.123701 
L 76.906867 3.226 
L 76.177313 3.503635 
L 75.474884 4.528759 
L 75.422527 5.093919 
L 73.887814 5.151007 
z
" clip-path="url(#p0e826529b8)" style="fill: #eeeeee; stroke: #000000; stroke-width: 0.3"/>
    <path d="M 80.365457 13.537088 
L 80.774049 13.440181 
L 80.803259 13.506766 
L 80.586969 13.608426 
z
" clip-path="url(#p0e826529b8)" style="fill: #eeeeee; stroke: #000000; stroke-width: 0.3"/>
    <path d="M 75.562861 4.577904 
L 75.640928 4.421552 
L 75.726299 4.436411 
z
" clip-path="url(#p0e826529b8)" style="fill: #eeeeee; stroke: #000000; stroke-width: 0.3"/>
    <path d="M 115.013702 122.793867 
L 115.305616 120.60607 
L 118.416654 120.685848 
L 120.049788 119.205001 
L 127.17984 118.934702 
L 127.322481 118.509374 
L 129.346012 118.86235 
L 129.429041 118.170877 
L 130.794548 117.248742 
L 131.710922 114.263142 
L 132.238222 113.689829 
L 132.429007 100.412787 
L 139.119197 98.914953 
L 146.333821 91.985753 
L 165.503043 79.105227 
L 171.969773 80.749785 
L 175.105979 83.493532 
L 178.369229 81.645937 
L 179.190135 86.527207 
L 179.243573 88.972967 
L 181.058655 91.605475 
L 180.780872 91.899429 
L 180.891722 92.573409 
L 182.601257 94.597368 
L 181.60009 96.705133 
L 180.471734 111.251364 
L 175.758704 116.93541 
L 173.472405 120.490802 
L 172.720094 122.784053 
L 171.829777 123.318229 
L 172.504141 126.897529 
L 171.318817 126.871605 
L 170.883813 127.657584 
L 169.235224 127.944491 
L 169.076679 128.510129 
L 168.033561 129.144343 
L 167.655969 130.014128 
L 165.882399 129.757922 
L 163.243241 128.551778 
L 159.974324 128.499809 
L 157.601912 129.108606 
L 155.339461 131.29389 
L 151.446969 130.698807 
L 148.993293 128.867254 
L 147.792069 128.645023 
L 145.946072 129.778562 
L 145.118026 129.754903 
L 144.564669 130.345709 
L 144.00248 130.348982 
L 141.289348 127.093583 
L 140.606596 127.205704 
L 137.954631 126.039447 
L 136.69776 126.716198 
L 134.976744 126.572995 
L 133.386007 127.045261 
L 131.989589 128.02314 
L 131.831484 130.344955 
L 131.149173 131.542288 
L 129.920567 132.674065 
L 129.759817 135.656651 
L 130.029208 136.367122 
L 129.727578 136.678444 
L 126.513864 133.252413 
L 124.487244 134.046189 
L 124.860417 135.215213 
L 124.573361 135.700692 
L 123.127479 133.531518 
L 123.952876 133.131107 
L 123.372138 131.760239 
L 122.785217 131.669639 
L 122.238483 132.244963 
L 121.042562 132.118119 
L 118.562829 130.169034 
L 118.562829 128.5324 
L 119.781277 128.641249 
L 118.698411 128.058751 
L 118.192749 127.331793 
L 116.899669 126.971648 
L 115.937583 125.26618 
L 116.021492 124.231047 
z
" clip-path="url(#p0e826529b8)" style="fill: #eeeeee; stroke: #000000; stroke-width: 0.3"/>
    <path d="M 91.498607 17.731516 
L 91.547648 17.625195 
L 91.533731 17.77432 
z
" clip-path="url(#p0e826529b8)" style="fill: #eeeeee; stroke: #000000; stroke-width: 0.3"/>
    <path d="M 41.476287 92.500356 
L 41.854597 89.784364 
L 58.74613 89.741326 
L 58.160534 82.501433 
L 58.74613 81.537147 
L 60.437445 80.305834 
L 63.001638 79.379676 
L 63.018863 67.039116 
L 77.237895 67.014201 
L 77.260418 60.754071 
L 93.757469 71.908493 
L 86.187888 71.913027 
L 90.331666 113.14546 
L 91.485634 114.196698 
L 90.811933 118.179434 
L 74.411046 118.172387 
L 74.380131 117.187588 
L 73.973175 117.721009 
L 74.091973 118.440792 
L 71.341302 118.809874 
L 68.530797 118.477163 
L 67.719748 120.085101 
L 65.116586 117.452472 
L 64.72994 117.950662 
L 64.250557 117.950662 
L 63.743789 119.714135 
L 63.851767 121.073427 
L 62.783476 121.879787 
L 61.449875 121.336173 
L 61.012333 120.502125 
L 59.288335 119.364437 
L 59.546026 119.203745 
L 58.963741 118.106571 
L 58.453012 118.186481 
L 58.342482 117.681624 
L 57.794975 117.549997 
L 57.461327 116.054803 
L 56.739161 114.961282 
L 55.952845 115.201129 
L 55.694491 114.793163 
L 55.240059 115.128894 
L 54.632935 114.070107 
L 52.80074 112.497901 
L 50.375107 112.348912 
L 49.805632 112.475503 
L 49.730774 112.878179 
L 48.282682 112.884218 
L 47.393028 113.371714 
L 44.822323 113.168106 
L 44.032033 114.770512 
L 43.674853 116.647144 
L 43.730667 114.095729 
L 45.654868 108.192496 
L 45.841778 105.286956 
L 45.118138 101.189634 
L 43.704239 99.250952 
L 44.457435 99.08033 
L 44.774923 98.527837 
L 44.319558 98.8455 
L 44.434139 98.479287 
L 44.005032 99.096382 
L 44.993298 97.240337 
L 44.932446 96.70826 
L 44.653561 96.772464 
L 45.041634 96.217989 
L 44.876462 95.574536 
L 45.128047 95.099133 
L 43.99599 93.071672 
L 44.246011 92.947819 
L 43.730667 92.636497 
L 43.674853 93.503881 
L 43.117954 92.935531 
L 42.071438 90.590013 
z
" clip-path="url(#p0e826529b8)" style="fill: #eeeeee; stroke: #000000; stroke-width: 0.3"/>
    <path d="M 44.292959 98.183818 
L 44.460217 97.806306 
L 44.703461 97.586339 
z
" clip-path="url(#p0e826529b8)" style="fill: #eeeeee; stroke: #000000; stroke-width: 0.3"/>
    <path d="M 44.009724 97.771231 
L 44.514116 96.8765 
L 44.144297 98.177277 
z
" clip-path="url(#p0e826529b8)" style="fill: #eeeeee; stroke: #000000; stroke-width: 0.3"/>
    <path d="M 43.965908 93.341577 
L 44.084834 93.277569 
L 44.051629 93.453942 
z
" clip-path="url(#p0e826529b8)" style="fill: #eeeeee; stroke: #000000; stroke-width: 0.3"/>
    <path d="M 43.869065 97.66957 
L 43.977386 97.69811 
L 43.92314 97.804922 
z
" clip-path="url(#p0e826529b8)" style="fill: #eeeeee; stroke: #000000; stroke-width: 0.3"/>
   </g>
   <g id="PatchCollection_2">
    <defs>
     <path id="m520eebac71" d="M 41.660586 -18.680154 
L 42.056833 -21.170423 
L 42.972254 -22.84653 
L 43.998421 -23.342943 
L 44.75475 -25.887222 
L 45.294788 -26.342219 
L 45.081625 -26.835062 
L 46.963925 -30.212045 
L 46.953145 -30.816459 
L 46.014257 -29.516476 
L 46.25037 -30.14863 
L 50.711314 -34.68232 
L 51.037664 -37.723806 
L 52.342376 -40.678691 
L 52.546496 -41.93171 
L 56.413679 -44.63393 
L 58.079514 -49.191995 
L 59.014752 -50.378429 
L 62.821779 -51.159606 
L 65.282365 -52.311954 
L 67.08764 -54.390343 
L 69.178411 -55.549626 
L 70.568839 -57.054317 
L 73.103839 -61.084464 
L 73.289706 -62.435768 
L 72.106531 -63.623591 
L 72.429753 -64.494739 
L 72.281788 -67.296437 
L 74.716471 -71.164286 
L 74.792624 -73.016362 
L 77.915131 -76.385621 
L 82.188294 -78.158035 
L 85.209437 -80.140111 
L 87.474072 -84.236843 
L 89.033154 -88.619728 
L 91.290901 -89.319846 
L 91.929453 -87.664554 
L 92.712034 -86.850484 
L 93.975887 -85.991224 
L 95.661369 -85.556843 
L 97.612867 -86.116865 
L 98.176376 -85.836259 
L 98.551934 -86.233783 
L 100.177081 -85.800191 
L 101.211949 -86.219513 
L 101.675479 -86.991578 
L 102.156229 -85.456765 
L 102.617498 -85.382057 
L 102.060774 -86.016987 
L 102.965239 -85.344405 
L 104.638026 -85.350946 
L 106.799015 -83.557638 
L 106.3649 -82.852953 
L 107.083425 -82.283288 
L 106.627668 -81.761068 
L 107.225848 -80.332946 
L 106.896174 -78.49774 
L 107.449313 -77.777202 
L 107.206197 -76.23595 
L 107.952766 -75.370193 
L 107.699492 -74.753847 
L 108.278244 -73.822401 
L 109.950462 -72.614621 
L 109.044024 -71.945044 
L 108.764472 -71.022281 
L 109.251367 -70.918089 
L 109.188434 -70.643513 
L 103.608709 -70.850641 
L 102.048887 -70.57833 
L 101.80301 -70.443684 
L 102.276864 -69.2064 
L 98.72314 -68.491628 
L 98.663416 -67.232263 
L 98.057912 -66.978643 
L 97.939776 -66.165489 
L 98.415852 -66.195436 
L 99.17109 -65.12198 
L 98.72314 -64.543349 
L 98.782868 -63.930685 
L 95.67709 -62.943616 
L 92.242821 -60.356815 
L 90.68993 -58.144419 
L 89.913489 -58.144419 
L 89.764174 -58.586899 
L 87.554293 -58.416715 
L 85.374276 -57.770014 
L 83.821389 -58.076343 
L 82.955356 -57.46368 
L 81.656362 -57.42839 
L 77.323569 -54.192116 
L 77.260418 -49.077229 
L 76.68506 -49.077351 
L 76.783903 -46.4412 
L 74.142539 -46.284283 
L 72.412798 -45.123816 
L 71.494767 -45.418652 
L 70.560067 -45.176166 
L 68.396539 -45.951318 
L 65.684073 -45.285643 
L 65.917695 -44.068044 
L 64.292509 -41.490155 
L 62.827855 -40.938486 
L 61.246284 -35.288414 
L 58.853224 -33.533371 
L 57.48661 -31.15065 
L 55.007766 -29.738006 
L 54.110711 -26.86062 
L 53.59743 -23.013037 
L 51.846935 -20.82524 
L 51.932502 -20.287791 
L 51.333654 -19.070319 
L 50.392771 -18.780139 
L 45.82128 -19.070319 
z
" style="stroke: #dd0000; stroke-width: 0.5"/>
    </defs>
    <g clip-path="url(#p0e826529b8)">
     <use xlink:href="#m520eebac71" x="0" y="108" style="fill: #ff6b6b; stroke: #dd0000; stroke-width: 0.5"/>
    </g>
   </g>
  </g>
 </g>
 <defs>
  <clipPath id="p0e826529b8">
   <rect x="0" y="0" width="151.611048" height="108"/>
  </clipPath>
 </defs>
</svg>
