<?xml version="1.0" encoding="utf-8" standalone="no"?>
<!DOCTYPE svg PUBLIC "-//W3C//DTD SVG 1.1//EN"
  "http://www.w3.org/Graphics/SVG/1.1/DTD/svg11.dtd">
<svg xmlns:xlink="http://www.w3.org/1999/xlink" width="163.714721pt" height="108pt" viewBox="0 0 163.714721 108" xmlns="http://www.w3.org/2000/svg" version="1.1">
 <metadata>
  <rdf:RDF xmlns:dc="http://purl.org/dc/elements/1.1/" xmlns:cc="http://creativecommons.org/ns#" xmlns:rdf="http://www.w3.org/1999/02/22-rdf-syntax-ns#">
   <cc:Work>
    <dc:type rdf:resource="http://purl.org/dc/dcmitype/StillImage"/>
    <dc:date>2025-09-05T15:49:29.542850</dc:date>
    <dc:format>image/svg+xml</dc:format>
    <dc:creator>
     <cc:Agent>
      <dc:title>Matplotlib v3.10.3, https://matplotlib.org/</dc:title>
     </cc:Agent>
    </dc:creator>
   </cc:Work>
  </rdf:RDF>
 </metadata>
 <defs>
  <style type="text/css">*{stroke-linejoin: round; stroke-linecap: butt}</style>
 </defs>
 <g id="figure_1">
  <g id="patch_1">
   <path d="M 0 108 
L 163.714721 108 
L 163.714721 0 
L 0 0 
z
" style="fill: #ffffff"/>
  </g>
  <g id="axes_1">
   <g id="PatchCollection_1">
    <path d="M 70.652449 33.11052 
L 71.237551 32.829648 
L 71.960752 31.486247 
L 72.02092 30.310132 
L 71.737859 29.702358 
L 72.064932 29.054101 
L 73.336897 28.724218 
L 74.027389 27.994125 
L 73.333263 27.879904 
L 72.95531 27.102927 
L 73.194761 25.58819 
L 73.127326 24.851704 
L 72.798636 24.72896 
L 72.867684 24.121615 
L 73.495184 23.083375 
L 72.876568 21.92239 
L 73.925229 21.45186 
L 74.601997 20.659543 
L 74.051417 19.233455 
L 73.155996 18.542999 
L 73.309841 17.584889 
L 72.653269 16.639991 
L 71.91674 16.74782 
L 71.718879 15.771383 
L 72.643576 16.263649 
L 73.141055 16.18608 
L 73.68295 16.719262 
L 74.838014 16.564979 
L 75.530526 17.116916 
L 75.924635 16.125134 
L 77.11705 17.122029 
L 77.970678 18.457332 
L 78.145117 20.50568 
L 78.51217 21.382815 
L 78.27191 22.825097 
L 78.865896 23.827106 
L 79.338743 23.951987 
L 79.643612 24.769022 
L 78.284428 24.788627 
L 78.077682 25.830277 
L 77.276548 27.164301 
L 77.806737 29.362248 
L 78.005403 31.994711 
L 78.377703 32.681757 
L 79.247081 32.778505 
L 80.110403 33.555478 
L 83.092043 37.457395 
L 83.31494 38.432557 
L 82.845727 39.607609 
L 83.065796 40.619419 
L 82.849361 43.197114 
L 81.792218 43.729447 
L 81.245478 43.604142 
L 80.29736 45.239924 
L 80.993912 46.530475 
L 80.973318 47.576385 
L 80.699138 47.704673 
L 80.039737 47.5994 
L 80.244057 46.459727 
L 79.412639 46.077847 
L 77.541035 44.152244 
L 77.455433 43.269145 
L 76.785933 42.568462 
L 78.082933 40.125021 
L 77.835407 37.149248 
L 77.219209 36.3727 
L 76.073233 36.817233 
L 74.782492 36.794647 
L 74.487315 37.256652 
L 73.062717 35.025888 
L 72.515977 34.465856 
L 71.967215 34.983269 
L 71.476197 34.035385 
L 71.042116 33.856379 
L 71.068765 33.318933 
z
" clip-path="url(#p53cd0e066d)" style="fill: #eeeeee; stroke: #000000; stroke-width: 0.3"/>
    <path d="M 78.437469 26.842088 
L 78.586872 26.529253 
L 78.853378 26.693772 
L 78.566684 27.041127 
z
" clip-path="url(#p53cd0e066d)" style="fill: #eeeeee; stroke: #000000; stroke-width: 0.3"/>
    <path d="M 78.000559 26.574433 
L 78.326424 26.475128 
L 78.262623 26.826748 
z
" clip-path="url(#p53cd0e066d)" style="fill: #eeeeee; stroke: #000000; stroke-width: 0.3"/>
    <path d="M 57.604937 -2.668219 
L 57.919093 -4.607884 
L 59.203169 -4.552052 
L 60.258695 -5.341384 
L 61.464839 -7.329211 
L 61.737808 -7.335607 
L 61.935872 -8.310766 
L 63.371575 -9.454278 
L 63.498364 -9.874089 
L 63.472121 -10.674931 
L 62.155335 -10.819416 
L 61.871466 -11.198315 
L 62.288587 -12.032398 
L 61.857131 -11.94673 
L 62.232057 -12.799144 
L 63.506846 -13.286297 
L 63.715608 -14.370142 
L 63.36067 -15.00178 
L 63.493722 -16.383965 
L 63.128486 -17.157103 
L 62.416591 -17.521082 
L 62.126259 -18.590436 
L 62.742054 -18.531619 
L 63.28314 -18.892616 
L 75.874966 -18.823571 
L 90.115299 -10.397044 
L 90.330925 -9.290188 
L 89.882306 -8.883586 
L 89.936414 -8.469313 
L 90.363228 -8.412628 
L 90.60793 -7.883705 
L 96.250173 -3.622924 
L 96.244129 -2.93126 
L 95.834291 -2.68292 
L 95.739859 -2.14194 
L 95.967511 -1.943602 
L 94.546589 2.011054 
L 95.077888 3.585668 
L 95.569437 3.723597 
L 96.503897 4.783409 
L 96.50485 5.209616 
L 97.224692 5.321705 
L 97.573167 5.91168 
L 97.549003 6.39628 
L 96.690533 7.183925 
L 96.396748 9.303879 
L 96.690533 8.90385 
L 97.142661 9.342139 
L 97.184946 10.075416 
L 96.503897 11.307722 
L 96.794185 12.976636 
L 97.573167 13.835763 
L 97.165552 13.573329 
L 96.928359 13.739109 
L 97.331524 13.90221 
L 97.357596 14.668374 
L 97.633577 14.539844 
L 97.925135 14.935844 
L 97.62658 16.001697 
L 97.952164 15.990286 
L 98.304453 16.90579 
L 98.13276 17.227962 
L 98.537828 17.55349 
L 98.108596 18.458928 
L 98.640527 18.240119 
L 99.258623 19.191194 
L 99.394071 18.828082 
L 99.835067 18.979771 
L 99.788011 19.398258 
L 100.223605 19.5033 
L 100.223605 19.106624 
L 100.679545 19.756674 
L 100.985099 19.517395 
L 101.023571 20.237917 
L 99.348535 21.624899 
L 97.357408 22.365219 
L 96.438365 23.091474 
L 95.004479 23.095309 
L 93.426036 24.108827 
L 92.505375 23.546663 
L 91.260873 23.574791 
L 90.78762 24.604079 
L 89.430858 25.370825 
L 88.149204 25.186276 
L 87.72239 24.733219 
L 86.892993 24.769022 
L 86.133448 25.378499 
L 84.468992 25.296666 
L 84.34543 24.790334 
L 83.010477 24.108827 
L 82.033286 24.899441 
L 79.643612 24.769022 
L 79.338743 23.951987 
L 78.865896 23.827106 
L 78.27191 22.825097 
L 78.51217 21.382815 
L 78.145117 20.50568 
L 77.970678 18.457332 
L 77.11705 17.122029 
L 75.924635 16.125134 
L 75.530526 17.116916 
L 74.838014 16.564979 
L 73.68295 16.719262 
L 73.141055 16.18608 
L 70.084913 15.221149 
L 69.715235 14.749341 
L 67.819001 14.41093 
L 67.813347 13.878172 
L 66.782049 13.797622 
L 66.259939 12.933699 
L 65.534315 12.453792 
L 64.457993 12.57398 
L 63.995844 12.30249 
L 61.972414 8.367752 
L 61.397404 6.524835 
L 60.601923 5.45506 
L 59.102221 4.338822 
L 58.393151 2.911032 
L 58.200138 1.79352 
L 58.732745 0.565622 
z
" clip-path="url(#p53cd0e066d)" style="fill: #eeeeee; stroke: #000000; stroke-width: 0.3"/>
    <path d="M 96.153831 1.431145 
L 96.503897 1.133139 
L 96.634574 0.623701 
L 97.037102 2.576868 
L 97.367133 2.593986 
L 97.357596 2.295303 
L 97.533105 3.10946 
L 97.396384 3.693394 
L 97.037102 3.027574 
L 96.986546 3.325919 
L 96.185626 2.695332 
z
" clip-path="url(#p53cd0e066d)" style="fill: #eeeeee; stroke: #000000; stroke-width: 0.3"/>
    <path d="M 97.922276 -0.63176 
L 98.0024 -1.154616 
L 98.460884 -1.351948 
L 98.286648 -1.349264 
L 97.948984 -1.551961 
L 98.3248 -1.4929 
L 98.082524 -2.791319 
L 98.619543 -2.36444 
L 98.754037 -2.76279 
L 98.520024 -0.661291 
z
" clip-path="url(#p53cd0e066d)" style="fill: #eeeeee; stroke: #000000; stroke-width: 0.3"/>
    <path d="M 97.703844 9.807609 
L 98.909195 8.538052 
L 98.900294 9.018289 
L 98.62622 9.677734 
L 97.870133 9.973728 
z
" clip-path="url(#p53cd0e066d)" style="fill: #eeeeee; stroke: #000000; stroke-width: 0.3"/>
    <path d="M 97.658089 -0.711955 
L 97.957845 -0.479394 
L 97.987655 -0.376188 
L 97.813872 -0.426378 
z
" clip-path="url(#p53cd0e066d)" style="fill: #eeeeee; stroke: #000000; stroke-width: 0.3"/>
    <path d="M 98.155597 10.409287 
L 98.155612 10.234484 
L 98.5412 10.059564 
z
" clip-path="url(#p53cd0e066d)" style="fill: #eeeeee; stroke: #000000; stroke-width: 0.3"/>
    <path d="M 96.247489 0.866766 
L 96.339108 1.191173 
L 96.247716 1.199664 
z
" clip-path="url(#p53cd0e066d)" style="fill: #eeeeee; stroke: #000000; stroke-width: 0.3"/>
    <path d="M -75.592458 -222.324635 
L -75.577513 -223.045496 
L -74.792495 -223.496705 
L -72.488779 -223.92224 
L -72.011061 -223.496705 
L -71.848585 -223.923918 
L -70.968182 -223.716017 
L -70.696651 -224.372274 
L -69.580961 -224.497283 
L -69.545033 -224.175111 
L -69.040763 -224.493254 
L -69.173666 -224.03416 
L -68.715338 -224.287703 
L -67.442421 -222.99935 
L -66.011325 -223.780954 
L -66.066968 -223.496705 
L -65.611343 -223.299711 
L -64.981007 -223.581107 
L -64.699458 -223.018147 
L -64.888642 -223.552917 
L -64.564011 -223.780954 
L -64.165936 -223.836997 
L -63.97946 -223.440155 
L -62.262525 -223.552917 
L -63.032443 -223.981305 
L -63.22512 -224.402811 
L -62.854073 -225.162934 
L -63.188558 -225.143638 
L -63.254371 -225.914335 
L -63.012095 -225.953936 
L -64.059424 -226.606498 
L -64.325868 -227.213426 
L -64.149406 -227.579896 
L -64.523316 -228.010127 
L -63.239747 -227.704735 
L -61.897199 -227.892166 
L -61.759369 -227.597681 
L -62.066031 -227.325515 
L -61.34953 -226.448602 
L -60.636682 -226.641736 
L -57.819956 -226.17912 
L -55.355518 -226.888232 
L -55.035657 -227.059555 
L -55.958986 -226.937734 
L -56.663251 -227.230206 
L -56.041021 -228.031604 
L -52.191269 -229.061213 
L -51.019937 -230.033097 
L -50.427912 -229.941817 
L -50.939812 -230.293853 
L -50.670828 -230.676434 
L -50.8864 -230.817048 
L -50.787198 -232.730613 
L -47.109857 -233.632653 
L -46.771317 -233.111351 
L -46.856114 -232.634216 
L -46.074765 -232.130865 
L -44.736581 -232.360589 
L -44.182571 -231.32086 
L -42.864977 -231.112872 
L -42.518924 -230.377665 
L -41.321665 -230.566688 
L -40.562522 -230.21379 
L -40.843161 -229.676343 
L -40.514068 -229.395901 
L -40.820145 -229.044706 
L -38.811253 -229.083915 
L -38.148215 -229.813155 
L -37.928147 -229.724291 
L -38.271777 -228.975871 
L -37.973776 -228.790473 
L -38.017386 -228.299057 
L -36.414715 -227.874982 
L -35.645477 -227.081601 
L -34.511617 -227.289799 
L -33.674139 -226.843987 
L -31.947094 -226.943507 
L -30.731866 -225.679167 
L -29.948094 -225.876289 
L -29.447387 -225.467769 
L -28.541667 -225.457113 
L -28.009864 -225.720723 
L -27.132818 -225.179866 
L -24.924045 -224.853179 
L -26.447975 -223.436469 
L -26.680565 -222.307983 
L -27.325428 -221.435219 
L -27.186925 -220.782483 
L -27.61374 -219.693314 
L -27.324013 -219.187312 
L -28.134638 -218.552358 
L -29.71793 -218.793378 
L -30.134649 -218.236966 
L -29.470806 -218.135315 
L -30.920843 -216.864261 
L -31.791228 -216.546205 
L -31.843723 -215.790115 
L -33.057942 -215.058747 
L -33.3087 -214.382251 
L -32.99293 -214.180123 
L -33.153237 -213.696166 
L -33.697155 -213.477094 
L -33.681406 -213.190684 
L -32.972336 -213.272087 
L -32.42196 -213.642677 
L -32.684024 -213.953594 
L -32.469207 -214.199195 
L -31.63375 -214.502546 
L -30.445574 -214.360621 
L -30.588921 -214.07751 
L -30.286881 -213.763933 
L -30.52916 -213.277844 
L -29.527336 -212.344451 
L -30.391869 -211.937 
L -30.410849 -211.490335 
L -28.985844 -210.223434 
L -29.396909 -209.410019 
L -31.165748 -208.955473 
L -30.608304 -208.148665 
L -29.58589 -207.795123 
L -29.398124 -207.229338 
L -29.770424 -207.222303 
L -30.255386 -206.607288 
L -29.934768 -206.204311 
L -30.136669 -205.939637 
L -29.680783 -205.401977 
L -28.320387 -204.921641 
L -27.052056 -205.131121 
L -26.917996 -204.682753 
L -27.746589 -203.85048 
L -27.752289 -203.434471 
L -29.02123 -202.981415 
L -29.070872 -202.565938 
L -29.761739 -202.508563 
L -30.027644 -202.044723 
L -30.664021 -201.96315 
L -31.211991 -201.390152 
L -30.811596 -201.406957 
L -30.864625 -201.112435 
L -32.054028 -200.655881 
L -32.765774 -200.729829 
L -32.817057 -200.429407 
L -33.751384 -200.833939 
L -34.080837 -200.466137 
L -34.794587 -201.023097 
L -36.071932 -201.171595 
L -36.278248 -201.747166 
L -37.294653 -201.664707 
L -37.325471 -201.969261 
L -36.543313 -202.261899 
L -37.313707 -202.584742 
L -37.227863 -202.051482 
L -37.942614 -202.019263 
L -37.991049 -201.690699 
L -38.373757 -202.022953 
L -38.433851 -202.444129 
L -38.620804 -202.669313 
L -38.43353 -202.023795 
L -38.129743 -201.709574 
L -41.518291 -202.507891 
L -44.796049 -200.719668 
L -45.078071 -198.75157 
L -44.534492 -197.936827 
L -45.500564 -198.096587 
L -46.561341 -197.55552 
L -48.06468 -197.925041 
L -49.165433 -197.595368 
L -50.273051 -198.193442 
L -50.234688 -198.672393 
L -51.378246 -198.612725 
L -51.717032 -199.079844 
L -53.786494 -199.586923 
L -54.398249 -199.614948 
L -54.447914 -198.980114 
L -57.114593 -198.982886 
L -58.223625 -199.631782 
L -59.185672 -199.343668 
L -59.930479 -200.060653 
L -61.455218 -200.304868 
L -61.987021 -200.731504 
L -62.655505 -200.467148 
L -62.445935 -201.284719 
L -63.299161 -201.29985 
L -63.981175 -201.825147 
L -63.451978 -201.929492 
L -62.732613 -202.673338 
L -61.874464 -206.698136 
L -61.598167 -207.149345 
L -61.044297 -207.165622 
L -61.542367 -207.61448 
L -61.886705 -206.992451 
L -61.202635 -210.87546 
L -59.955949 -209.873542 
L -59.759772 -209.08355 
L -59.051377 -208.095724 
L -59.291751 -208.630493 
L -58.891609 -208.520586 
L -59.525443 -208.937564 
L -60.070412 -210.496405 
L -61.835676 -211.456375 
L -61.509459 -211.855567 
L -60.819345 -211.487085 
L -61.462243 -212.108941 
L -61.059714 -212.812684 
L -61.693075 -213.372461 
L -61.302154 -213.900855 
L -61.807538 -213.824841 
L -63.977077 -214.692022 
L -64.42443 -215.505503 
L -65.240454 -216.034067 
L -64.740157 -216.922386 
L -65.718492 -217.364033 
L -65.421843 -217.468736 
L -65.403723 -217.894778 
L -63.709995 -217.645597 
L -64.815988 -218.094959 
L -65.864113 -217.792586 
L -66.893959 -218.014079 
L -66.480619 -218.042608 
L -66.950235 -218.35689 
L -66.307337 -218.523513 
L -66.709385 -218.802059 
L -66.198281 -218.863808 
L -67.24561 -218.920189 
L -67.118114 -218.958445 
L -67.030039 -219.060802 
L -67.968949 -218.835115 
L -68.328868 -219.07926 
L -67.673253 -219.050064 
L -67.466906 -219.268872 
L -67.448781 -219.345554 
L -67.536852 -219.426938 
L -68.368613 -219.23229 
L -68.584501 -219.513855 
L -68.448738 -219.088992 
L -69.165079 -219.245717 
L -69.197987 -218.748532 
L -69.467135 -219.414018 
L -69.144571 -219.795589 
L -69.4382 -219.854485 
L -69.55934 -219.483318 
L -70.083165 -219.652122 
L -69.787629 -219.626616 
L -70.083165 -219.708502 
L -69.787629 -220.023292 
L -70.427663 -219.68199 
L -73.106879 -220.586422 
L -73.314023 -220.13068 
L -74.043086 -220.105174 
L -74.288542 -220.799857 
L -75.435233 -221.067665 
L -73.705421 -221.376075 
L -74.072177 -221.858494 
L -74.768491 -221.630959 
L -75.037475 -222.084016 
L -74.726362 -222.330512 
L -74.604585 -222.12026 
L -73.642784 -222.089554 
L -73.322923 -222.168418 
L -74.363103 -222.28336 
L -73.723065 -222.680032 
z
M -49.353601 -198.018272 
L -49.150493 -197.988011 
L -49.318067 -198.144217 
z
" clip-path="url(#p53cd0e066d)" style="fill: #eeeeee; stroke: #000000; stroke-width: 0.3"/>
    <path d="M -270.343404 -32.551033 
L -269.406998 -33.200572 
L -268.604449 -34.723408 
L -268.764553 -35.854772 
L -267.951308 -37.207337 
L -267.919204 -37.900988 
L -268.881251 -38.943278 
L -269.527935 -40.242992 
L -269.841079 -43.176785 
L -269.155834 -44.508145 
L -268.178209 -45.377045 
L -267.681698 -46.648227 
L -263.62819 -45.249859 
L -261.645272 -43.147683 
L -261.216039 -43.293332 
L -261.455771 -42.441252 
L -261.031626 -43.063282 
L -260.22133 -42.313225 
L -259.933104 -41.325398 
L -260.306381 -40.828719 
L -259.877464 -41.069339 
L -259.770632 -42.157172 
L -259.349983 -41.979812 
L -258.754301 -40.081347 
L -261.513763 -35.954506 
L -261.724544 -34.906039 
L -262.82368 -32.74368 
L -263.957951 -31.920034 
L -265.081516 -32.012737 
L -264.947456 -32.240544 
L -265.376896 -32.647357 
L -266.110189 -32.224346 
L -267.020551 -32.725993 
L -268.375203 -31.6768 
z
" clip-path="url(#p53cd0e066d)" style="fill: #eeeeee; stroke: #000000; stroke-width: 0.3"/>
    <path d="M -23.561376 -197.712566 
L -23.129916 -197.9302 
L -22.935966 -198.54585 
L -21.339218 -199.176098 
L -20.658164 -198.940006 
L -20.44514 -200.296653 
L -19.986652 -200.240273 
L -20.06932 -198.799055 
L -19.736425 -198.481415 
L -19.613379 -196.761825 
L -20.224482 -195.963441 
L -20.230522 -194.946925 
L -20.658164 -194.616865 
L -20.429875 -194.430444 
L -20.976435 -193.882078 
L -20.927789 -193.569808 
L -22.613245 -194.348055 
L -22.101665 -194.898264 
L -23.147087 -195.126133 
L -22.559829 -195.773664 
L -23.306699 -195.748327 
L -23.416071 -196.029554 
L -22.796068 -196.390823 
L -23.496195 -197.01755 
L -23.019587 -197.283003 
z
" clip-path="url(#p53cd0e066d)" style="fill: #eeeeee; stroke: #000000; stroke-width: 0.3"/>
    <path d="M -296.145811 -84.181951 
L -294.816777 -83.896526 
L -295.044109 -83.43928 
L -294.547629 -82.596264 
L -294.782755 -82.374099 
L -294.774648 -82.653985 
L -295.560143 -82.615729 
L -295.701951 -82.821448 
L -295.272718 -83.021127 
L -295.911798 -83.441461 
z
" clip-path="url(#p53cd0e066d)" style="fill: #eeeeee; stroke: #000000; stroke-width: 0.3"/>
    <path d="M 158.802252 63.764319 
L 159.044532 63.277703 
L 160.181205 63.125345 
L 161.260013 64.289188 
L 161.09404 65.054346 
L 160.168168 65.159054 
L 159.287444 64.761037 
z
" clip-path="url(#p53cd0e066d)" style="fill: #eeeeee; stroke: #000000; stroke-width: 0.3"/>
    <path d="M 119.017685 29.407729 
L 119.206548 29.196641 
L 119.635781 29.508742 
L 119.579821 30.522912 
L 119.23135 30.57862 
L 119.095902 30.232959 
L 119.384918 30.255108 
z
" clip-path="url(#p53cd0e066d)" style="fill: #eeeeee; stroke: #000000; stroke-width: 0.3"/>
    <path d="M -297.414435 -90.115613 
L -297.095372 -91.05461 
L -296.717168 -90.37721 
L -295.92738 -89.982047 
L -297.093942 -89.77314 
z
" clip-path="url(#p53cd0e066d)" style="fill: #eeeeee; stroke: #000000; stroke-width: 0.3"/>
    <path d="M -298.403581 -90.226193 
L -298.171159 -90.445171 
L -297.443687 -90.116285 
L -297.499646 -89.076948 
L -298.00344 -88.729102 
z
" clip-path="url(#p53cd0e066d)" style="fill: #eeeeee; stroke: #000000; stroke-width: 0.3"/>
    <path d="M -63.041026 -213.690937 
L -62.073185 -213.506026 
L -61.968896 -213.296781 
L -62.839606 -213.509045 
z
" clip-path="url(#p53cd0e066d)" style="fill: #eeeeee; stroke: #000000; stroke-width: 0.3"/>
    <path d="M -296.585538 -88.658123 
L -296.336581 -88.976938 
L -296.046292 -88.658626 
L -296.362336 -88.418171 
z
" clip-path="url(#p53cd0e066d)" style="fill: #eeeeee; stroke: #000000; stroke-width: 0.3"/>
    <path d="M 119.928933 29.846687 
L 119.955642 29.593313 
L 119.955642 29.846687 
z
" clip-path="url(#p53cd0e066d)" style="fill: #eeeeee; stroke: #000000; stroke-width: 0.3"/>
    <path d="M -20.015903 -198.827245 
L -19.916068 -198.714653 
L -19.936736 -198.710459 
z
" clip-path="url(#p53cd0e066d)" style="fill: #eeeeee; stroke: #000000; stroke-width: 0.3"/>
    <path d="M -32.871298 -200.279874 
L -32.836323 -200.318299 
L -32.535219 -200.292125 
z
" clip-path="url(#p53cd0e066d)" style="fill: #eeeeee; stroke: #000000; stroke-width: 0.3"/>
    <path d="M -62.451545 -212.871918 
L -61.836946 -212.659988 
L -61.686875 -211.886273 
z
" clip-path="url(#p53cd0e066d)" style="fill: #eeeeee; stroke: #000000; stroke-width: 0.3"/>
    <path d="M -65.931521 -216.913326 
L -65.557927 -216.876913 
L -65.333456 -216.40473 
z
" clip-path="url(#p53cd0e066d)" style="fill: #eeeeee; stroke: #000000; stroke-width: 0.3"/>
    <path d="M -66.272522 -215.632693 
L -65.941534 -215.622458 
L -65.827232 -215.528658 
z
" clip-path="url(#p53cd0e066d)" style="fill: #eeeeee; stroke: #000000; stroke-width: 0.3"/>
    <path d="M -69.707344 -218.35689 
L -68.945217 -218.02163 
L -69.556476 -218.06375 
z
" clip-path="url(#p53cd0e066d)" style="fill: #eeeeee; stroke: #000000; stroke-width: 0.3"/>
    <path d="M -77.016244 -222.790274 
L -76.855995 -222.882898 
L -76.841051 -222.744467 
z
" clip-path="url(#p53cd0e066d)" style="fill: #eeeeee; stroke: #000000; stroke-width: 0.3"/>
    <path d="M -295.646311 -90.198172 
L -295.44123 -90.359255 
L -295.55633 -90.185083 
z
" clip-path="url(#p53cd0e066d)" style="fill: #eeeeee; stroke: #000000; stroke-width: 0.3"/>
    <path d="M -297.615699 -88.373201 
L -297.554172 -88.447203 
L -297.562916 -88.368838 
z
" clip-path="url(#p53cd0e066d)" style="fill: #eeeeee; stroke: #000000; stroke-width: 0.3"/>
    <path d="M -297.782305 -88.333436 
L -297.695343 -88.361626 
L -297.740176 -88.307761 
z
" clip-path="url(#p53cd0e066d)" style="fill: #eeeeee; stroke: #000000; stroke-width: 0.3"/>
    <path d="M -9.104783 1.078771 
L -9.066909 0.699022 
L -8.090121 0.655974 
L -8.005324 -1.668128 
L -8.342496 -2.111807 
L -7.426278 -2.651171 
L -6.941722 -3.41195 
L -5.916479 -3.724785 
L -5.828045 -4.072995 
L -4.63765 -2.811851 
L -3.3881 -3.635283 
L -3.378407 -4.594672 
L -2.481575 -4.408845 
L -0.752513 -5.320077 
L -0.429472 -4.692274 
L -0.894243 -4.157384 
L -0.69921 -2.808016 
L -0.233631 -2.993418 
L 0.363587 -2.751755 
L 0.982609 -3.101671 
L 2.439104 -5.064776 
L 3.435275 -5.580915 
L 3.727622 -6.223634 
L 5.205926 -6.803275 
L 6.430644 -9.294877 
L 6.309508 -13.959704 
L 7.557242 -15.174818 
L 8.804573 -17.72481 
L 9.544328 -18.434016 
L 10.659619 -18.772424 
L 12.384641 -20.799464 
L 12.255023 -22.150535 
L 13.150241 -24.513851 
L 12.842145 -27.150364 
L 13.642068 -29.355874 
L 13.646108 -31.865481 
L 15.758374 -35.857968 
L 15.889203 -39.64279 
L 15.48056 -40.80516 
L 16.306324 -41.105208 
L 17.595652 -43.203103 
L 18.868019 -44.114652 
L 20.492092 -43.97688 
L 22.50139 -42.636353 
L 23.444258 -41.164557 
L 24.582158 -41.322788 
L 25.908231 -40.655561 
L 27.964772 -40.663017 
L 30.175971 -39.983968 
L 30.985583 -40.241928 
L 31.305796 -41.406641 
L 31.68496 -41.480696 
L 32.501035 -42.849459 
L 34.517604 -41.889641 
L 35.195578 -42.47983 
L 37.817843 -43.28781 
L 38.362566 -43.725522 
L 38.353681 -44.081299 
L 39.659562 -43.236774 
L 41.913965 -43.710074 
L 42.132822 -44.857637 
L 42.836442 -45.124545 
L 44.27073 -44.27842 
L 45.39369 -44.560035 
L 46.582471 -43.772727 
L 47.507977 -43.966224 
L 48.006668 -43.731811 
L 48.813858 -44.415446 
L 49.705443 -44.121258 
L 51.4337 -42.702095 
L 51.543935 -41.910206 
L 52.487811 -41.721394 
L 52.627325 -41.181605 
L 53.923513 -40.588434 
L 55.384455 -41.737699 
L 57.204573 -40.858114 
L 58.127855 -42.214196 
L 58.75657 -42.098907 
L 59.452716 -41.746116 
L 59.417991 -40.974042 
L 59.974826 -40.725992 
L 60.986745 -39.272093 
L 62.299085 -38.906943 
L 62.368539 -37.856876 
L 63.165231 -38.112386 
L 63.527033 -37.350865 
L 63.749126 -37.47361 
L 63.802425 -36.951723 
L 63.15312 -35.558135 
L 63.581145 -34.724687 
L 63.023095 -33.041171 
L 63.653022 -32.574902 
L 64.028955 -32.87751 
L 64.369761 -32.402502 
L 64.847656 -32.454714 
L 65.214505 -31.630321 
L 62.115562 -28.065855 
L 61.180164 -27.64263 
L 60.851876 -26.705191 
L 60.041049 -26.358471 
L 60.014399 -25.012937 
L 59.086874 -23.256967 
L 58.507023 -19.128732 
L 58.597876 -17.23254 
L 57.251617 -16.118013 
L 56.849838 -15.356381 
L 56.866795 -13.89492 
L 55.817731 -13.094078 
L 55.782197 -12.57283 
L 55.915449 -12.018761 
L 56.451693 -11.638584 
L 56.320056 -11.355155 
L 57.256664 -10.394488 
L 57.180142 -6.87573 
L 57.666315 -6.078299 
L 57.94534 -4.391373 
L 57.604937 -2.668219 
L 58.732745 0.565622 
L 58.200138 1.79352 
L 58.4408 3.07299 
L 59.102221 4.338822 
L 60.601923 5.45506 
L 61.397404 6.524835 
L 63.185423 10.832929 
L 55.90697 12.024603 
L 55.922313 13.190277 
L 53.810047 15.277834 
L 54.448854 15.7164 
L 55.161964 17.422077 
L 54.659639 19.185718 
L 55.166402 20.932315 
L 54.599069 21.72335 
L 53.840736 24.604079 
L 54.417156 26.002891 
L 55.367494 26.495582 
L 56.477132 28.090024 
L 58.292202 28.396038 
L 58.192867 27.52828 
L 59.462812 27.163023 
L 59.396186 32.53045 
L 58.752128 32.388526 
L 58.954431 31.811017 
L 58.584147 31.580864 
L 57.059409 32.452882 
L 56.316418 32.284103 
L 55.199111 30.19676 
L 54.553842 30.179713 
L 54.084629 28.677335 
L 52.271579 28.044419 
L 51.873028 27.609688 
L 51.019403 27.7384 
L 50.169811 26.205766 
L 49.440956 25.740346 
L 49.229772 24.752828 
L 48.618825 24.859804 
L 48.321629 26.152915 
L 47.421968 26.58125 
L 46.238841 26.163996 
L 44.545313 26.127768 
L 43.140097 25.409609 
L 42.64827 25.606091 
L 42.059734 25.052022 
L 41.924463 23.206977 
L 39.588897 23.748259 
L 38.723157 24.307017 
L 37.953516 24.050013 
L 38.33753 23.554762 
L 38.252733 22.816998 
L 37.290482 22.582156 
L 37.251315 22.07071 
L 36.810771 21.881902 
L 36.155407 22.52121 
L 34.679525 22.242899 
L 32.954096 22.826375 
L 30.948436 22.57875 
L 29.91956 23.432867 
L 29.637706 21.794956 
L 30.239366 21.419468 
L 30.215541 19.799883 
L 29.615901 17.997458 
L 28.517977 16.86588 
L 28.178382 15.83105 
L 28.771966 11.91251 
L 28.029784 10.021432 
L 28.447714 7.846075 
L 28.150924 7.077201 
L 23.210863 7.08956 
L 23.566207 5.562035 
L 22.425477 5.572691 
L 22.326951 5.916641 
L 19.308964 5.916641 
L 19.275048 7.885713 
L 18.659659 8.276117 
L 18.659257 10.040611 
L 15.381225 9.752923 
L 15.3465 10.022285 
L 13.833471 10.125001 
L 13.746654 10.483012 
L 12.847396 10.215782 
L 11.801157 10.43869 
L 10.690711 9.016437 
L 10.145988 7.674315 
L 9.243905 6.752431 
L 9.351316 5.969491 
L 8.550181 4.705787 
L 8.307902 3.7025 
L 8.388663 2.564954 
L 7.709473 1.382233 
L -2.485208 1.131621 
L -4.833492 1.333642 
L -6.577392 1.020039 
L -7.084085 1.229372 
L -7.255496 1.699291 
L -8.322527 1.998947 
L -8.292459 1.709637 
L -8.529343 1.809396 
z
" clip-path="url(#p53cd0e066d)" style="fill: #eeeeee; stroke: #000000; stroke-width: 0.3"/>
    <path d="M -7.167507 1.538199 
L -6.843098 1.25611 
L -6.192863 1.241471 
z
" clip-path="url(#p53cd0e066d)" style="fill: #eeeeee; stroke: #000000; stroke-width: 0.3"/>
    <path d="M -11.181957 49.399487 
L -11.035379 48.246383 
L -9.734385 47.720442 
L -9.13071 48.073769 
L -7.862785 48.113832 
L -5.521968 46.944747 
L -4.297251 47.188963 
L -4.134923 47.649269 
L -2.340646 48.893365 
L 15.135312 48.754418 
L 15.874665 49.777743 
L 16.840549 50.442623 
L 20.282522 50.818111 
L 22.49049 50.671922 
L 24.326958 51.399884 
L 25.714409 50.984333 
L 26.595496 51.329985 
L 37.666416 49.123939 
L 40.856419 49.54333 
L 41.727008 50.421315 
L 40.529745 50.397871 
L 39.010257 51.488108 
L 38.1748 51.089176 
L 35.280782 53.24024 
L 34.041929 51.266054 
L 24.986765 52.587294 
L 25.024722 67.617031 
L 21.09254 67.768333 
L 21.105461 94.250024 
L 19.492292 94.698817 
L 19.048111 95.416548 
L 18.309164 95.570836 
L 18.396786 96.150052 
L 17.739807 96.45692 
L 16.276444 95.971895 
L 14.013563 96.22762 
L 13.024257 95.730237 
L 11.912604 95.659489 
L 11.733722 95.313408 
L 11.03313 95.412713 
L 11.099354 94.955396 
L 10.723014 94.448635 
L 11.017788 94.138356 
L 10.807006 93.447051 
L 10.288932 93.465377 
L 9.754708 92.618931 
L 9.037968 92.849084 
L 8.552604 93.602617 
L 8.441962 94.491683 
L 6.904365 94.801533 
L 4.563927 92.609759 
L 2.795804 89.714239 
L 2.535083 88.160099 
L 1.966586 87.127806 
L 2.301391 86.702943 
L 2.054977 85.995172 
L 1.510645 85.643131 
L 1.560248 84.503112 
L 1.018459 83.236912 
L 1.069012 80.401801 
L -0.470507 76.418617 
L -0.256842 75.568892 
L -0.567799 73.60163 
L -0.34269 73.164347 
L -0.66223 71.76894 
L -0.564939 71.393745 
L -0.470507 71.869957 
L -0.196753 71.477644 
L -0.277826 70.025522 
L -4.618178 63.020304 
L -5.47728 60.298288 
L -6.02582 59.763193 
L -8.320398 55.000578 
L -9.954118 53.354337 
L -10.872173 51.089296 
z
" clip-path="url(#p53cd0e066d)" style="fill: #eeeeee; stroke: #000000; stroke-width: 0.3"/>
    <path d="M 7.385424 95.065312 
L 8.441962 94.491683 
L 8.552604 93.602617 
L 9.037968 92.849084 
L 9.754708 92.618931 
L 10.288932 93.465377 
L 10.807006 93.447051 
L 11.017788 94.138356 
L 10.723014 94.448635 
L 11.099354 94.955396 
L 11.03313 95.412713 
L 11.733722 95.313408 
L 11.912604 95.659489 
L 13.024257 95.730237 
L 14.013563 96.22762 
L 16.276444 95.971895 
L 17.739807 96.45692 
L 18.396786 96.150052 
L 18.309164 95.570836 
L 19.048111 95.416548 
L 19.492292 94.698817 
L 21.105461 94.250024 
L 21.104656 79.11629 
L 22.602745 80.273869 
L 23.742259 82.066063 
L 23.669577 82.695144 
L 24.464656 84.80231 
L 23.541975 86.294881 
L 23.875917 87.938334 
L 24.72349 87.559864 
L 27.6805 87.819849 
L 28.062493 87.57819 
L 28.133964 87.057367 
L 29.216545 86.807609 
L 29.96115 85.691376 
L 31.120855 85.115994 
L 31.801658 84.195819 
L 32.291062 82.121045 
L 33.017897 81.371776 
L 34.692445 81.300599 
L 36.511153 82.7318 
L 37.521858 82.718159 
L 38.12917 83.237279 
L 39.403151 83.532213 
L 42.503106 83.069779 
L 43.006439 82.691733 
L 43.975151 80.204395 
L 44.104769 79.098388 
L 46.198864 78.622745 
L 46.694324 77.904586 
L 47.897643 77.108433 
L 48.397745 74.853161 
L 49.023835 74.054452 
L 50.670522 73.377209 
L 50.901491 72.783077 
L 51.470445 72.7997 
L 53.612185 70.255676 
L 55.998226 69.636397 
L 56.491263 68.688942 
L 58.924145 68.287028 
L 61.555696 69.187175 
L 64.750137 69.070393 
L 65.282749 69.404116 
L 66.249441 72.53673 
L 66.215318 73.773155 
L 67.476581 75.727097 
L 68.008384 77.757973 
L 68.04432 82.763339 
L 67.638502 84.194111 
L 65.722483 83.172069 
L 64.622133 83.8898 
L 63.390352 85.899788 
L 63.382073 87.596516 
L 63.68593 87.445214 
L 63.972828 88.385852 
L 64.708547 89.194789 
L 66.211079 89.666601 
L 67.936909 89.688762 
L 68.022113 87.59396 
L 71.550152 87.75 
L 71.441413 88.456093 
L 69.592844 94.715956 
L 68.126773 95.745227 
L 68.334714 95.83047 
L 68.108016 96.081494 
L 67.158615 96.311713 
L 65.579988 98.003785 
L 64.158745 100.353624 
L 64.381631 100.326778 
L 60.492137 105.864102 
L 57.948212 107.673633 
L 54.576342 111.322901 
L 48.920311 115.293664 
L 46.479085 116.278971 
L 43.780634 116.193732 
L 43.189246 116.653833 
L 43.437246 117.395164 
L 40.527994 117.189778 
L 40.064107 118.099244 
L 35.381008 117.167295 
L 34.409666 117.379728 
L 34.493603 117.704919 
L 31.271489 117.226694 
L 29.652166 117.594174 
L 29.568228 117.986483 
L 28.783843 118.173745 
L 28.165747 118.823457 
L 27.184548 118.689892 
L 26.279343 119.001993 
L 24.745865 118.737546 
L 24.322989 118.892593 
L 24.463206 119.168784 
L 23.062952 119.191271 
L 21.238232 120.628291 
L 19.822076 120.443376 
L 18.827843 119.732924 
L 18.430089 119.798698 
L 18.677452 119.314771 
L 18.404651 118.938231 
L 17.736319 118.902993 
L 17.816759 118.465042 
L 16.557676 118.805338 
L 16.716014 117.871038 
L 16.488995 117.620348 
L 15.232135 117.69183 
L 15.199707 118.68385 
L 14.598778 117.900572 
L 14.593054 117.371002 
L 15.255667 116.607523 
L 14.564123 115.103718 
L 13.187076 113.547896 
L 13.861132 113.941215 
L 13.509481 113.266669 
L 12.979772 113.27942 
L 12.749893 112.398816 
L 13.236043 111.904822 
L 13.827431 112.191422 
L 14.521197 111.513181 
L 14.728185 110.077168 
L 14.44489 108.560946 
L 10.55794 102.190005 
L 8.768832 97.048681 
z
M 48.53443 99.380692 
L 50.015966 101.344226 
L 49.956607 102.038517 
L 50.292365 102.034682 
L 51.431273 103.23147 
L 52.740792 103.4727 
L 52.922904 102.641598 
L 53.364659 102.208574 
L 53.216869 101.920886 
L 53.9328 101.350618 
L 55.541531 101.124729 
L 56.90354 100.4249 
L 56.78442 99.725496 
L 58.043058 98.044112 
L 57.558096 97.002461 
L 56.265139 96.257027 
L 54.911202 94.862054 
L 53.038391 95.404618 
L 52.485994 96.130872 
L 51.446214 96.255324 
L 49.894419 98.612672 
z
" clip-path="url(#p53cd0e066d)" style="fill: #eeeeee; stroke: #000000; stroke-width: 0.3"/>
    <path d="M 89.948064 170.6488 
L 90.183987 170.153462 
L 90.803674 170.217896 
L 91.095553 170.406502 
L 90.746757 170.719276 
z
" clip-path="url(#p53cd0e066d)" style="fill: #eeeeee; stroke: #000000; stroke-width: 0.3"/>
    <path d="M 90.960105 169.360113 
L 91.113673 169.209768 
L 91.416046 169.275543 
L 91.263111 169.435286 
z
" clip-path="url(#p53cd0e066d)" style="fill: #eeeeee; stroke: #000000; stroke-width: 0.3"/>
    <path d="M 28.912488 30.657488 
L 36.80754 30.657488 
L 36.28018 29.784191 
L 36.925449 28.115595 
L 36.626639 27.154074 
L 36.62785 25.030285 
L 37.046183 24.081977 
L 36.677922 21.877213 
L 37.251315 22.07071 
L 37.290482 22.582156 
L 38.252733 22.816998 
L 38.33753 23.554762 
L 37.920405 23.975851 
L 38.549523 24.315541 
L 39.588897 23.748259 
L 41.924463 23.206977 
L 42.059734 25.052022 
L 42.64827 25.606091 
L 43.140097 25.409609 
L 44.545313 26.127768 
L 46.238841 26.163996 
L 47.421968 26.58125 
L 48.321629 26.152915 
L 48.618825 24.859804 
L 49.229772 24.752828 
L 49.440956 25.740346 
L 50.169811 26.205766 
L 51.019403 27.7384 
L 51.873028 27.609688 
L 52.271579 28.044419 
L 54.084629 28.677335 
L 54.553842 30.179713 
L 55.199111 30.19676 
L 56.316418 32.284103 
L 57.059409 32.452882 
L 58.584147 31.580864 
L 58.954431 31.811017 
L 58.752128 32.388526 
L 59.33723 32.541535 
L 59.462812 27.163023 
L 58.192867 27.52828 
L 58.292202 28.396038 
L 56.477132 28.090024 
L 55.367494 26.495582 
L 54.417156 26.002891 
L 53.822565 24.540576 
L 54.599069 21.72335 
L 55.166402 20.932315 
L 54.659639 19.185718 
L 55.161964 17.422077 
L 54.448854 15.7164 
L 53.810047 15.277834 
L 55.922313 13.190277 
L 55.90697 12.024603 
L 63.185423 10.832929 
L 64.285367 12.507921 
L 65.534315 12.453792 
L 66.259939 12.933699 
L 66.782049 13.797622 
L 67.813347 13.878172 
L 67.819001 14.41093 
L 69.715235 14.749341 
L 70.084913 15.221149 
L 71.658712 15.838295 
L 71.91674 16.74782 
L 72.653269 16.639991 
L 73.309841 17.584889 
L 73.155996 18.542999 
L 74.051417 19.233455 
L 74.601997 20.659543 
L 73.925229 21.45186 
L 72.876568 21.92239 
L 73.495184 23.083375 
L 72.867684 24.121615 
L 72.798636 24.72896 
L 73.127326 24.851704 
L 73.194761 25.58819 
L 72.95531 27.102927 
L 73.333263 27.879904 
L 74.027389 27.994125 
L 73.336897 28.724218 
L 72.064932 29.054101 
L 71.737859 29.702358 
L 72.02092 30.310132 
L 71.960752 31.486247 
L 71.237551 32.829648 
L 70.652449 33.11052 
L 71.068765 33.318933 
L 71.042116 33.856379 
L 71.476197 34.035385 
L 71.967215 34.983269 
L 72.515977 34.465856 
L 72.759871 34.832391 
L 61.084865 38.822536 
L 61.850266 41.498683 
L 58.634219 41.603106 
L 56.075756 42.873198 
L 55.782197 43.27213 
L 55.782197 44.623631 
L 55.406662 45.217759 
L 51.717569 46.980125 
L 50.781566 48.644032 
L 48.976994 50.78444 
L 47.353928 51.555875 
L 45.446993 50.786997 
L 44.324033 51.266054 
L 43.374301 50.492916 
L 42.022989 50.615661 
L 40.856419 49.54333 
L 39.479064 49.177219 
L 37.666416 49.123939 
L 34.389193 49.790526 
L 29.413598 45.265921 
L 28.918947 43.617783 
z
" clip-path="url(#p53cd0e066d)" style="fill: #eeeeee; stroke: #000000; stroke-width: 0.3"/>
    <path d="M -11.112007 42.433532 
L -10.109827 41.444534 
L -9.858327 39.860187 
L -9.511125 39.594396 
L -8.78429 36.562959 
L -8.794143 35.155474 
L -8.455209 34.274536 
L -8.115637 34.178221 
L -8.065401 32.407953 
L -6.387255 30.57862 
L -6.408239 29.895348 
L -5.4741 29.009041 
L -4.636619 28.879838 
L -3.671954 27.553229 
L -3.076432 25.665503 
L -2.864357 22.872677 
L -3.313942 21.431629 
L -3.156557 21.075564 
L -4.110407 19.956353 
L -6.185991 14.543196 
L -6.201572 14.312977 
L -5.834023 13.712263 
L -5.638162 13.624336 
L -6.120815 14.501583 
L -5.296047 13.223635 
L -5.398109 13.427008 
L -4.686534 13.146115 
L -4.691305 11.463775 
L -6.757918 7.0052 
L -6.822211 5.546889 
L -7.927399 4.393681 
L -8.944534 2.183214 
L -6.88502 1.915737 
L -5.449283 1.192571 
L 7.561684 1.319151 
L 8.388663 2.564954 
L 8.307902 3.7025 
L 8.550181 4.705787 
L 9.351316 5.969491 
L 9.243905 6.752431 
L 10.145988 7.674315 
L 10.690711 9.016437 
L 11.801157 10.43869 
L 12.847396 10.215782 
L 13.746654 10.483012 
L 13.833471 10.125001 
L 15.3465 10.022285 
L 15.381225 9.752923 
L 18.659257 10.040611 
L 18.659659 8.276117 
L 19.275048 7.885713 
L 19.308964 5.916641 
L 22.326951 5.916641 
L 22.425477 5.572691 
L 23.566207 5.562035 
L 23.210863 7.08956 
L 28.150924 7.077201 
L 28.447714 7.846075 
L 28.029784 10.021432 
L 28.771966 11.91251 
L 28.178382 15.83105 
L 28.517977 16.86588 
L 29.615901 17.997458 
L 30.215541 19.799883 
L 30.239366 21.419468 
L 29.637706 21.794956 
L 29.91956 23.432867 
L 30.948436 22.57875 
L 32.954096 22.826375 
L 34.679525 22.242899 
L 36.155407 22.52121 
L 36.677922 21.877213 
L 37.046183 24.081977 
L 36.62785 25.030285 
L 36.626639 27.154074 
L 36.925449 28.115595 
L 36.28018 29.784191 
L 36.80754 30.657488 
L 28.912488 30.657488 
L 28.927831 43.706861 
L 29.583598 45.48755 
L 30.294685 45.80081 
L 31.980543 47.846177 
L 34.389193 49.790526 
L 26.595496 51.329985 
L 25.714409 50.984333 
L 24.326958 51.399884 
L 22.49049 50.671922 
L 20.282522 50.818111 
L 16.840549 50.442623 
L 15.874665 49.777743 
L 15.135312 48.754418 
L -2.340646 48.893365 
L -4.134923 47.649269 
L -4.297251 47.188963 
L -5.521968 46.944747 
L -7.862785 48.113832 
L -9.13071 48.073769 
L -9.734385 47.720442 
L -11.024252 48.13295 
L -10.774342 44.998488 
z
" clip-path="url(#p53cd0e066d)" style="fill: #eeeeee; stroke: #000000; stroke-width: 0.3"/>
    <path d="M -10.041169 -2.258037 
L -9.345934 -3.295597 
L -8.820996 -3.253827 
L -8.566604 -3.966019 
L -7.641502 -4.156535 
L -7.102834 -4.849543 
L -6.68006 -4.763875 
L -5.88377 -3.842846 
L -6.941722 -3.41195 
L -7.426278 -2.651171 
L -8.342496 -2.111807 
L -8.005324 -1.668128 
L -8.090121 0.655974 
L -9.256128 0.809289 
L -9.503495 0.209243 
L -9.182997 -0.413623 
L -9.988367 -2.149322 
L -9.685951 -2.008997 
L -9.54324 -2.277151 
z
" clip-path="url(#p53cd0e066d)" style="fill: #eeeeee; stroke: #000000; stroke-width: 0.3"/>
    <path d="M -11.243078 45.0863 
L -11.173655 45.109765 
L -11.100356 45.933448 
z
" clip-path="url(#p53cd0e066d)" style="fill: #eeeeee; stroke: #000000; stroke-width: 0.3"/>
    <path d="M 21.09254 67.768333 
L 25.024722 67.617031 
L 24.986765 52.587294 
L 34.041929 51.266054 
L 35.280782 53.24024 
L 38.1748 51.089176 
L 39.010257 51.488108 
L 40.529745 50.397871 
L 41.727008 50.421315 
L 41.70843 51.275003 
L 44.387428 55.069519 
L 44.418117 55.820067 
L 45.226518 57.609284 
L 45.804759 57.774652 
L 45.838676 58.080242 
L 47.408239 59.218637 
L 49.314365 59.901418 
L 49.574613 61.562344 
L 51.253603 61.617326 
L 51.130448 63.935461 
L 52.395544 65.917746 
L 54.83852 66.310282 
L 56.491263 66.932118 
L 56.498331 67.851873 
L 57.707706 68.535508 
L 56.491263 68.688942 
L 56.068083 69.583546 
L 55.624312 69.798355 
L 53.612185 70.255676 
L 51.470445 72.7997 
L 50.901491 72.783077 
L 50.670522 73.377209 
L 49.023835 74.054452 
L 48.397745 74.853161 
L 47.897643 77.108433 
L 46.694324 77.904586 
L 46.198864 78.622745 
L 44.104769 79.098388 
L 43.975151 80.204395 
L 43.006439 82.691733 
L 42.503106 83.069779 
L 39.403151 83.532213 
L 38.12917 83.237279 
L 37.521858 82.718159 
L 36.511153 82.7318 
L 34.692445 81.300599 
L 33.017897 81.371776 
L 32.291062 82.121045 
L 31.766933 84.247815 
L 31.120855 85.115994 
L 29.96115 85.691376 
L 29.216545 86.807609 
L 28.133964 87.057367 
L 28.062493 87.57819 
L 27.6805 87.819849 
L 24.72349 87.559864 
L 23.875917 87.938334 
L 23.541975 86.294881 
L 24.464656 84.80231 
L 23.669577 82.695144 
L 23.742259 82.066063 
L 22.602745 80.273869 
L 21.104656 79.11629 
z
" clip-path="url(#p53cd0e066d)" style="fill: #eeeeee; stroke: #000000; stroke-width: 0.3"/>
    <path d="M 41.70843 51.275003 
L 41.727008 50.421315 
L 42.72984 50.702607 
L 43.374301 50.492916 
L 44.324033 51.266054 
L 45.446993 50.786997 
L 47.353928 51.555875 
L 48.609132 51.099407 
L 50.781566 48.644032 
L 51.717569 46.980125 
L 55.593216 45.028097 
L 55.782197 43.27213 
L 56.075756 42.873198 
L 58.634219 41.603106 
L 61.795147 41.521698 
L 61.81978 43.027911 
L 65.169685 43.119546 
L 65.734599 43.691941 
L 66.930647 43.921241 
L 67.710379 44.791556 
L 69.195751 44.885748 
L 70.685561 45.496074 
L 70.918147 45.94572 
L 71.844864 45.833627 
L 71.298929 46.879113 
L 72.052418 48.571577 
L 71.72009 49.201512 
L 72.063721 49.70017 
L 71.684154 51.15865 
L 71.791967 52.327309 
L 72.134992 52.721973 
L 71.46287 53.479771 
L 71.587038 54.464307 
L 70.762282 54.710654 
L 70.721903 55.208462 
L 71.404926 55.739517 
L 71.043327 57.307529 
L 71.312256 57.459685 
L 71.263192 58.174858 
L 71.745935 58.071714 
L 72.096028 58.627915 
L 71.996286 59.649957 
L 71.519807 59.942763 
L 70.685561 61.711093 
L 69.942574 62.004749 
L 69.979319 63.379264 
L 69.388564 64.194597 
L 69.808107 64.935342 
L 65.282749 69.404116 
L 63.520575 68.929747 
L 61.555696 69.187175 
L 59.304927 68.305355 
L 57.734559 68.55298 
L 56.498331 67.851873 
L 56.491263 66.932118 
L 54.83852 66.310282 
L 52.395544 65.917746 
L 51.130448 63.935461 
L 51.253603 61.617326 
L 49.574613 61.562344 
L 49.314365 59.901418 
L 47.408239 59.218637 
L 45.838676 58.080242 
L 45.804759 57.774652 
L 45.226518 57.609284 
L 44.418117 55.820067 
L 44.387428 55.069519 
z
" clip-path="url(#p53cd0e066d)" style="fill: #eeeeee; stroke: #000000; stroke-width: 0.3"/>
    <path d="M 61.084865 38.822536 
L 72.759871 34.832391 
L 74.487315 37.256652 
L 74.782492 36.794647 
L 76.073233 36.817233 
L 77.219209 36.3727 
L 77.899204 37.280096 
L 78.098276 40.017192 
L 76.785933 42.568462 
L 77.455433 43.269145 
L 77.541035 44.152244 
L 79.412639 46.077847 
L 80.244057 46.459727 
L 80.039737 47.5994 
L 80.922438 47.679955 
L 80.868732 45.912478 
L 80.29736 45.239924 
L 81.245478 43.604142 
L 81.792218 43.729447 
L 82.849361 43.197114 
L 83.065796 40.619419 
L 82.845727 39.607609 
L 83.31494 38.432557 
L 83.092043 37.457395 
L 80.110403 33.555478 
L 79.247081 32.778505 
L 78.377703 32.681757 
L 78.005403 31.994711 
L 77.806737 29.362248 
L 77.257974 27.350128 
L 78.284428 24.788627 
L 81.858441 24.930556 
L 83.010477 24.108827 
L 84.34543 24.790334 
L 84.468992 25.296666 
L 86.133448 25.378499 
L 86.892993 24.769022 
L 87.72239 24.733219 
L 88.149204 25.186276 
L 89.430858 25.370825 
L 90.78762 24.604079 
L 91.260873 23.574791 
L 92.505375 23.546663 
L 93.426036 24.108827 
L 95.004479 23.095309 
L 96.340241 23.122163 
L 97.357408 22.365219 
L 98.479966 22.125693 
L 101.311316 20.25 
L 101.296051 20.615463 
L 101.87568 21.112814 
L 101.213067 21.422907 
L 101.740232 21.747763 
L 101.255036 22.221287 
L 101.295735 22.557219 
L 101.528474 22.461238 
L 101.295735 23.176729 
L 100.679545 23.71133 
L 101.13676 23.992223 
L 100.987322 25.084588 
L 101.349151 25.863841 
L 101.367592 27.370998 
L 101.079527 27.61464 
L 101.508763 28.124078 
L 101.185089 28.59391 
L 101.512576 28.713381 
L 101.843884 29.687616 
L 100.922142 30.412501 
L 101.205437 30.74172 
L 101.270934 30.437 
L 101.6423 30.551102 
L 101.375859 32.756971 
L 101.6423 32.982155 
L 101.424189 33.275802 
L 101.858508 34.906797 
L 101.421008 35.453481 
L 101.627676 35.860895 
L 102.037198 35.527985 
L 102.231781 35.892442 
L 102.178365 36.177026 
L 101.802549 36.177026 
L 101.775841 37.110653 
L 102.053728 36.556918 
L 102.44799 36.468995 
L 102.608555 36.690488 
L 102.289968 36.981112 
L 102.554185 36.939499 
L 102.629856 37.682509 
L 102.154204 38.432561 
L 101.829257 38.295977 
L 102.34052 38.889643 
L 101.937996 38.802726 
L 102.098245 39.199736 
L 101.379673 39.439349 
L 101.3199 39.649766 
L 101.799368 39.57795 
L 101.979965 39.859849 
L 101.589841 40.928387 
L 99.570533 42.978203 
L 99.843334 42.96713 
L 99.286922 43.940021 
L 98.470421 44.2679 
L 98.566443 44.62665 
L 98.754037 44.795119 
L 95.914415 46.601627 
L 95.763387 47.079851 
L 94.092875 47.252012 
L 92.178173 48.332294 
L 91.818571 47.932937 
L 92.002664 48.327263 
L 88.336056 50.192836 
L 87.533546 51.321445 
L 87.158046 50.779793 
L 86.942474 50.765697 
L 87.506838 51.462392 
L 85.536496 53.564898 
L 85.280863 54.506918 
L 84.619208 54.132729 
L 84.731764 54.944197 
L 84.262149 54.983798 
L 84.172487 54.572358 
L 83.123568 55.193547 
L 80.27727 58.301496 
L 79.313242 58.954565 
L 78.323463 57.851462 
L 78.036351 57.795415 
L 78.912944 58.755221 
L 78.645863 59.039132 
L 78.90245 60.145258 
L 78.435062 60.14257 
L 78.779083 60.45199 
L 78.376559 61.068816 
L 78.673524 61.443677 
L 78.485935 61.749403 
L 78.765729 61.680272 
L 79.283353 62.458515 
L 79.755829 62.528991 
L 79.928795 63.38778 
L 80.251199 63.503225 
L 79.846127 64.099914 
L 80.064242 64.969442 
L 80.277907 64.378456 
L 80.251199 65.19731 
L 80.84068 66.298063 
L 80.976127 69.36809 
L 81.321422 69.776849 
L 81.506469 68.258611 
L 81.738571 68.202903 
L 81.803118 69.044578 
L 81.936338 68.50427 
L 81.694059 70.611139 
L 81.883238 71.670612 
L 82.149999 71.537715 
L 81.651453 72.618669 
L 81.307111 74.973877 
L 81.272773 74.683925 
L 81.111575 74.677884 
L 81.080412 75.866898 
L 81.267053 75.37156 
L 81.602807 75.518887 
L 81.640963 75.115835 
L 81.842223 75.20074 
L 81.722994 76.431034 
L 80.197782 78.478837 
L 73.050882 81.360935 
L 73.214944 81.177698 
L 71.470665 82.379801 
L 70.745099 83.790309 
L 70.371826 84.132951 
L 70.07931 84.054422 
L 69.923832 84.197052 
L 71.352389 85.451173 
L 71.789888 84.586004 
L 71.550152 87.75 
L 68.50586 87.724804 
L 68.336668 84.301091 
L 67.86261 84.087985 
L 67.693016 83.489593 
L 68.04432 82.763339 
L 68.008384 77.757973 
L 67.476581 75.727097 
L 66.215318 73.773155 
L 66.249441 72.53673 
L 65.244386 69.478274 
L 69.808107 64.935342 
L 69.388564 64.194597 
L 69.979319 63.379264 
L 69.942574 62.004749 
L 70.685561 61.711093 
L 71.519807 59.942763 
L 71.996286 59.649957 
L 72.096028 58.627915 
L 71.745935 58.071714 
L 71.263192 58.174858 
L 71.312256 57.459685 
L 71.043327 57.307529 
L 71.404926 55.739517 
L 70.721903 55.208462 
L 70.762282 54.710654 
L 71.587038 54.464307 
L 71.46287 53.479771 
L 72.134992 52.721973 
L 71.791967 52.327309 
L 71.684154 51.15865 
L 72.063721 49.70017 
L 71.72009 49.201512 
L 72.052418 48.571577 
L 71.298929 46.879113 
L 71.844864 45.833627 
L 70.918147 45.94572 
L 70.685561 45.496074 
L 69.195751 44.885748 
L 67.710379 44.791556 
L 66.930647 43.921241 
L 65.734599 43.691941 
L 65.169685 43.119546 
L 61.81978 43.027911 
L 61.78182 40.881536 
z
M 78.437469 26.842088 
L 78.566684 27.041127 
L 78.853378 26.693772 
L 78.586872 26.529253 
z
M 78.000559 26.574433 
L 78.262623 26.826748 
L 78.326424 26.475128 
z
" clip-path="url(#p53cd0e066d)" style="fill: #eeeeee; stroke: #000000; stroke-width: 0.3"/>
    <path d="M 81.48103 66.870257 
L 81.491208 66.416866 
L 81.616478 65.906088 
L 81.699145 66.288669 
z
" clip-path="url(#p53cd0e066d)" style="fill: #eeeeee; stroke: #000000; stroke-width: 0.3"/>
    <path d="M 98.618734 44.331724 
L 99.107243 44.26896 
L 98.841975 44.741951 
z
" clip-path="url(#p53cd0e066d)" style="fill: #eeeeee; stroke: #000000; stroke-width: 0.3"/>
    <path d="M 71.648717 84.266517 
L 71.899897 84.132951 
L 71.816597 84.442706 
z
" clip-path="url(#p53cd0e066d)" style="fill: #eeeeee; stroke: #000000; stroke-width: 0.3"/>
    <path d="M 63.316658 87.217193 
L 63.390352 85.899788 
L 64.622133 83.8898 
L 65.722483 83.172069 
L 67.414597 84.186866 
L 68.336668 84.301091 
L 68.216743 85.430537 
L 68.519589 86.661845 
L 68.50586 87.724804 
L 68.022113 87.59396 
L 67.936909 89.688762 
L 66.211079 89.666601 
L 64.708547 89.194789 
z
" clip-path="url(#p53cd0e066d)" style="fill: #eeeeee; stroke: #000000; stroke-width: 0.3"/>
    <path d="M 48.53443 99.380692 
L 49.894419 98.612672 
L 51.446214 96.255324 
L 52.485994 96.130872 
L 53.038391 95.404618 
L 54.911202 94.862054 
L 56.265139 96.257027 
L 57.558096 97.002461 
L 58.043058 98.044112 
L 56.78442 99.725496 
L 56.90354 100.4249 
L 55.541531 101.124729 
L 53.9328 101.350618 
L 53.216869 101.920886 
L 53.364659 102.208574 
L 52.922904 102.641598 
L 52.740792 103.4727 
L 51.431273 103.23147 
L 50.292365 102.034682 
L 49.956607 102.038517 
L 50.015966 101.344226 
z
" clip-path="url(#p53cd0e066d)" style="fill: #eeeeee; stroke: #000000; stroke-width: 0.3"/>
    <path d="M 111.90862 68.816371 
L 112.216713 68.668038 
L 112.002098 67.910266 
L 112.351207 66.812198 
L 112.884412 66.413175 
L 113.020496 64.918096 
L 114.213129 64.566728 
L 114.560014 63.158905 
L 116.796163 59.461314 
L 116.393635 58.586079 
L 116.819054 57.390017 
L 115.860434 55.760367 
L 115.950095 54.585447 
L 115.107844 52.907132 
L 115.083995 50.319692 
L 114.647765 49.40016 
L 116.627331 45.910973 
L 116.682017 43.829944 
L 118.337268 43.933645 
L 119.892368 42.709055 
L 120.015414 43.484617 
L 120.438927 43.249029 
L 120.334001 42.914779 
L 121.078961 42.787922 
L 121.214408 43.236612 
L 121.433793 42.213717 
L 122.55775 42.091562 
L 123.016871 42.453334 
L 123.035948 42.109681 
L 122.820377 42.166062 
L 123.322104 41.800937 
L 123.678846 41.857651 
L 123.568833 42.278489 
L 124.052119 42.92887 
L 124.265147 42.619119 
L 124.590095 42.844303 
L 123.926846 42.262716 
L 124.05848 41.497557 
L 126.468232 39.717223 
L 126.957557 40.235048 
L 126.50257 41.165315 
L 127.572473 40.685751 
L 126.88411 39.697421 
L 128.118396 38.447667 
L 127.774054 38.267787 
L 128.403598 37.544576 
L 128.685936 38.155026 
L 128.336827 39.3427 
L 129.780008 37.110653 
L 130.262657 37.701973 
L 130.44993 37.340873 
L 130.573613 37.918765 
L 130.623529 37.373426 
L 129.806395 37.025076 
L 129.607358 37.251601 
L 129.406414 36.615983 
L 129.755523 35.695783 
L 130.352001 35.734039 
L 130.26043 35.129969 
L 130.626072 35.354819 
L 130.505253 36.116954 
L 130.705243 35.857204 
L 130.760886 35.121915 
L 130.342461 34.792023 
L 130.639426 34.580596 
L 130.087464 33.88558 
L 130.198746 33.13888 
L 130.839737 32.784827 
L 131.324293 33.813764 
L 131.739538 33.943301 
L 131.874986 32.904297 
L 132.659687 32.798922 
L 132.456837 32.137799 
L 132.936305 32.488495 
L 133.620535 32.234448 
L 134.305085 29.874877 
L 134.038008 28.856011 
L 133.424678 28.321406 
L 134.267883 28.506655 
L 134.419548 27.902585 
L 135.266886 27.132391 
L 134.843057 26.934053 
L 135.110138 26.736725 
L 135.352414 26.964928 
L 135.190258 26.708535 
L 135.566079 26.311859 
L 135.937125 27.344825 
L 135.510436 27.105879 
L 135.376899 27.443491 
L 135.844604 27.758615 
L 135.969557 27.446509 
L 136.262072 28.067697 
L 136.58702 28.087162 
L 136.395613 28.20596 
L 136.770793 28.515381 
L 136.677318 29.116767 
L 137.037874 29.846687 
L 137.386982 29.593313 
L 138.160557 30.791053 
L 138.944942 33.880883 
L 139.205979 37.870776 
L 140.301004 39.804141 
L 140.275249 40.727702 
L 139.702302 42.244592 
L 139.043507 42.959411 
L 138.270249 41.860002 
L 138.000312 40.640447 
L 137.283967 40.741125 
L 136.973963 41.144845 
L 137.346287 42.633882 
L 137.174591 43.38092 
L 137.800001 44.015866 
L 137.816219 45.248172 
L 137.311949 46.132133 
L 137.762802 46.435508 
L 136.856641 46.720095 
L 136.164781 48.317193 
L 136.470647 50.147532 
L 135.883076 53.018887 
L 133.504802 59.376743 
L 133.626896 59.671397 
L 131.361179 66.924959 
L 130.184439 69.749665 
L 129.549175 72.942854 
L 128.912001 74.358396 
L 128.88752 75.405453 
L 127.934303 77.125048 
L 127.158501 79.86619 
L 127.078377 79.638655 
L 126.527688 80.407842 
L 125.312476 80.895127 
L 123.687113 80.954192 
L 121.044306 82.446248 
L 119.48698 82.605319 
L 118.205955 81.555578 
L 116.388232 81.195818 
L 116.102709 80.769949 
L 116.445145 81.047823 
L 116.526859 80.912913 
L 115.057287 80.132653 
L 114.625511 78.566093 
L 113.66657 77.394192 
L 113.47866 75.031264 
L 114.011865 73.801981 
L 113.503145 73.31134 
L 113.316188 72.202195 
L 112.448819 71.242727 
z
" clip-path="url(#p53cd0e066d)" style="fill: #eeeeee; stroke: #000000; stroke-width: 0.3"/>
    <path d="M 131.309985 31.741123 
L 131.816482 31.477348 
L 131.977364 32.333786 
L 131.450203 32.302912 
z
" clip-path="url(#p53cd0e066d)" style="fill: #eeeeee; stroke: #000000; stroke-width: 0.3"/>
    <path d="M 137.707476 47.535927 
L 137.828936 46.815405 
L 138.480734 45.869694 
z
" clip-path="url(#p53cd0e066d)" style="fill: #eeeeee; stroke: #000000; stroke-width: 0.3"/>
    <path d="M 211.63775 179.424621 
L 211.94489 179.331328 
L 211.889567 178.964186 
L 212.240586 179.003787 
L 211.805629 178.474217 
L 212.216104 178.377564 
L 212.680312 177.683553 
L 213.074253 177.980891 
L 212.260617 178.670877 
L 213.356912 178.172182 
L 213.045318 178.318498 
L 213.258983 178.473545 
L 212.618309 179.481001 
L 212.88539 179.5649 
L 213.032285 179.080972 
L 213.457384 179.608191 
L 214.330477 179.168228 
L 214.387073 179.47496 
L 214.922502 178.912503 
L 215.13553 179.62128 
L 214.181675 179.576983 
L 213.722871 179.867945 
L 214.464017 179.734041 
L 214.107912 179.860898 
L 214.706293 180.128029 
L 214.226188 180.24079 
L 215.751715 180.296837 
L 216.353281 179.765589 
L 217.284241 179.755184 
L 217.838747 179.330656 
L 218.565582 179.503488 
L 218.572259 180.376372 
L 217.743362 180.669009 
L 218.348741 180.919031 
L 217.652747 180.919031 
L 217.072803 180.505241 
L 215.83184 180.550545 
L 216.234368 180.721699 
L 216.129442 180.935473 
L 215.322483 180.776067 
L 215.798775 181.303959 
L 217.061359 181.655995 
L 216.71797 181.254288 
L 217.682315 181.295233 
L 217.792007 181.477125 
L 217.170098 181.655995 
L 217.480734 181.934875 
L 215.9622 181.908701 
L 215.504669 181.16502 
L 215.108822 181.188847 
L 215.412781 181.506994 
L 215.213107 181.850308 
L 214.454477 181.712042 
L 213.50762 181.1224 
L 213.525424 181.471084 
L 213.181082 181.22912 
L 213.20779 181.681839 
L 212.953113 181.336174 
L 213.025608 181.765065 
L 212.719417 182.035553 
L 211.699113 181.891583 
L 212.235178 180.885806 
L 211.863175 180.616658 
L 212.322617 180.296837 
L 211.978912 180.359255 
L 211.69848 179.887071 
L 212.349325 179.705851 
z
" clip-path="url(#p53cd0e066d)" style="fill: #eeeeee; stroke: #000000; stroke-width: 0.3"/>
    <path d="M 213.369945 179.052782 
L 213.95911 178.630604 
L 213.850371 178.856122 
L 214.226188 178.813837 
L 213.488542 179.497113 
z
" clip-path="url(#p53cd0e066d)" style="fill: #eeeeee; stroke: #000000; stroke-width: 0.3"/>
    <path d="M 144.858513 168.296949 
L 145.16915 168.086866 
L 145.5526 168.289901 
L 145.510948 168.59764 
z
" clip-path="url(#p53cd0e066d)" style="fill: #eeeeee; stroke: #000000; stroke-width: 0.3"/>
    <path d="M 139.072442 167.003561 
L 139.433951 166.916978 
L 139.528383 167.214988 
L 139.172594 167.204584 
z
" clip-path="url(#p53cd0e066d)" style="fill: #eeeeee; stroke: #000000; stroke-width: 0.3"/>
    <path d="M 245.871212 136.656667 
L 246.021283 136.761375 
L 245.892513 136.77916 
z
" clip-path="url(#p53cd0e066d)" style="fill: #eeeeee; stroke: #000000; stroke-width: 0.3"/>
    <path d="M 245.846727 133.26145 
L 246.000299 133.005053 
L 246.161501 133.227552 
z
" clip-path="url(#p53cd0e066d)" style="fill: #eeeeee; stroke: #000000; stroke-width: 0.3"/>
    <path d="M 215.884619 181.174752 
L 216.5892 181.43484 
L 215.931679 181.22912 
z
" clip-path="url(#p53cd0e066d)" style="fill: #eeeeee; stroke: #000000; stroke-width: 0.3"/>
    <path d="M 214.706293 179.903183 
L 215.268434 179.734041 
L 215.057312 179.966945 
z
" clip-path="url(#p53cd0e066d)" style="fill: #eeeeee; stroke: #000000; stroke-width: 0.3"/>
    <path d="M 214.19948 178.403069 
L 214.650333 178.518515 
L 214.292958 178.549056 
z
" clip-path="url(#p53cd0e066d)" style="fill: #eeeeee; stroke: #000000; stroke-width: 0.3"/>
    <path d="M 213.181082 179.027948 
L 213.255166 178.722556 
L 213.572163 178.654765 
z
" clip-path="url(#p53cd0e066d)" style="fill: #eeeeee; stroke: #000000; stroke-width: 0.3"/>
    <path d="M 211.763656 177.394941 
L 211.910551 177.321109 
L 211.94966 177.4285 
z
" clip-path="url(#p53cd0e066d)" style="fill: #eeeeee; stroke: #000000; stroke-width: 0.3"/>
    <path d="M 211.226005 180.524705 
L 211.412958 180.409594 
L 211.733135 180.607932 
z
" clip-path="url(#p53cd0e066d)" style="fill: #eeeeee; stroke: #000000; stroke-width: 0.3"/>
    <path d="M 211.095961 177.61375 
L 211.157961 177.581531 
L 211.322023 177.645297 
z
" clip-path="url(#p53cd0e066d)" style="fill: #eeeeee; stroke: #000000; stroke-width: 0.3"/>
    <path d="M 156.024631 42.567435 
L 156.049749 42.549311 
L 156.051339 42.585893 
z
" clip-path="url(#p53cd0e066d)" style="fill: #eeeeee; stroke: #000000; stroke-width: 0.3"/>
    <path d="M 127.790588 24.735904 
L 127.836054 24.674488 
L 127.862762 24.754028 
z
" clip-path="url(#p53cd0e066d)" style="fill: #eeeeee; stroke: #000000; stroke-width: 0.3"/>
    <path d="M 109.960853 47.408737 
L 110.095347 47.396654 
L 110.068002 47.460416 
z
" clip-path="url(#p53cd0e066d)" style="fill: #eeeeee; stroke: #000000; stroke-width: 0.3"/>
    <path d="M 100.64171 69.24862 
L 100.82485 69.165393 
L 100.757126 69.260702 
z
" clip-path="url(#p53cd0e066d)" style="fill: #eeeeee; stroke: #000000; stroke-width: 0.3"/>
    <path d="M 98.25517 65.475184 
L 98.25835 65.464108 
L 98.266297 65.473506 
z
" clip-path="url(#p53cd0e066d)" style="fill: #eeeeee; stroke: #000000; stroke-width: 0.3"/>
    <path d="M 123.568833 15.745972 
L 124.69438 15.630864 
L 124.534768 15.914775 
L 123.930026 16.009078 
L 123.674396 16.021495 
z
" clip-path="url(#p53cd0e066d)" style="fill: #eeeeee; stroke: #000000; stroke-width: 0.3"/>
    <path d="M 159.490928 -3.738881 
L 159.69876 -4.14425 
L 160.023113 -3.148208 
L 159.789026 -3.549714 
z
" clip-path="url(#p53cd0e066d)" style="fill: #eeeeee; stroke: #000000; stroke-width: 0.3"/>
    <path d="M 162.839594 6.486892 
L 162.951513 6.362386 
L 162.89301 6.541928 
z
" clip-path="url(#p53cd0e066d)" style="fill: #eeeeee; stroke: #000000; stroke-width: 0.3"/>
    <path d="M 161.566797 -4.045378 
L 161.611059 -4.071333 
L 161.63368 -4.025654 
z
" clip-path="url(#p53cd0e066d)" style="fill: #eeeeee; stroke: #000000; stroke-width: 0.3"/>
    <path d="M 161.511361 -5.028264 
L 161.534607 -5.072735 
L 161.525891 -5.020598 
z
" clip-path="url(#p53cd0e066d)" style="fill: #eeeeee; stroke: #000000; stroke-width: 0.3"/>
    <path d="M 161.33412 -5.091136 
L 161.371893 -5.106472 
L 161.377703 -5.074269 
z
" clip-path="url(#p53cd0e066d)" style="fill: #eeeeee; stroke: #000000; stroke-width: 0.3"/>
    <path d="M 161.31959 -5.293548 
L 161.33557 -5.241411 
L 161.321044 -5.239881 
z
" clip-path="url(#p53cd0e066d)" style="fill: #eeeeee; stroke: #000000; stroke-width: 0.3"/>
    <path d="M 161.146706 -4.928592 
L 161.270194 -4.957727 
L 161.209175 -4.884121 
z
" clip-path="url(#p53cd0e066d)" style="fill: #eeeeee; stroke: #000000; stroke-width: 0.3"/>
    <path d="M 160.715223 -5.321153 
L 160.824181 -5.315017 
L 160.784955 -5.256747 
z
" clip-path="url(#p53cd0e066d)" style="fill: #eeeeee; stroke: #000000; stroke-width: 0.3"/>
    <path d="M 160.567196 -5.240442 
L 160.996428 -5.099495 
L 160.887373 -4.984717 
z
" clip-path="url(#p53cd0e066d)" style="fill: #eeeeee; stroke: #000000; stroke-width: 0.3"/>
    <path d="M 160.500206 -5.100336 
L 160.522 -5.085004 
L 160.50166 -5.081935 
z
" clip-path="url(#p53cd0e066d)" style="fill: #eeeeee; stroke: #000000; stroke-width: 0.3"/>
    <path d="M 160.4973 -5.584903 
L 160.540886 -5.594103 
L 160.559772 -5.587967 
z
" clip-path="url(#p53cd0e066d)" style="fill: #eeeeee; stroke: #000000; stroke-width: 0.3"/>
    <path d="M 160.468314 -7.282592 
L 160.498839 -7.324205 
L 160.523 -7.238962 
z
" clip-path="url(#p53cd0e066d)" style="fill: #eeeeee; stroke: #000000; stroke-width: 0.3"/>
    <path d="M 160.436284 -5.022132 
L 160.45662 -5.0252 
L 160.465341 -5.005266 
z
" clip-path="url(#p53cd0e066d)" style="fill: #eeeeee; stroke: #000000; stroke-width: 0.3"/>
    <path d="M 159.894863 -3.880352 
L 159.919942 -3.886368 
L 159.91823 -3.866516 
z
" clip-path="url(#p53cd0e066d)" style="fill: #eeeeee; stroke: #000000; stroke-width: 0.3"/>
    <path d="M 159.86238 -3.927874 
L 159.889737 -3.995249 
L 159.931338 -3.986226 
z
" clip-path="url(#p53cd0e066d)" style="fill: #eeeeee; stroke: #000000; stroke-width: 0.3"/>
    <path d="M 159.843572 -3.847266 
L 159.890874 -3.865914 
L 159.897715 -3.82501 
z
" clip-path="url(#p53cd0e066d)" style="fill: #eeeeee; stroke: #000000; stroke-width: 0.3"/>
    <path d="M 159.474616 -3.685976 
L 159.510947 -3.679209 
L 159.505251 -3.658908 
z
" clip-path="url(#p53cd0e066d)" style="fill: #eeeeee; stroke: #000000; stroke-width: 0.3"/>
    <path d="M 159.40572 1.227776 
L 159.413355 1.230122 
L 159.406357 1.24489 
z
" clip-path="url(#p53cd0e066d)" style="fill: #eeeeee; stroke: #000000; stroke-width: 0.3"/>
    <path d="M 159.335696 -3.725829 
L 159.382001 -3.71455 
L 159.378442 -3.708534 
z
" clip-path="url(#p53cd0e066d)" style="fill: #eeeeee; stroke: #000000; stroke-width: 0.3"/>
    <path d="M 158.802252 -4.628029 
L 158.937062 -4.553529 
L 158.812426 -4.452516 
z
" clip-path="url(#p53cd0e066d)" style="fill: #eeeeee; stroke: #000000; stroke-width: 0.3"/>
    <path d="M 151.427696 -0.560612 
L 151.442324 -0.565981 
L 151.454404 -0.520343 
z
" clip-path="url(#p53cd0e066d)" style="fill: #eeeeee; stroke: #000000; stroke-width: 0.3"/>
    <path d="M 149.099026 5.885168 
L 149.12001 5.92947 
L 149.100295 5.915709 
z
" clip-path="url(#p53cd0e066d)" style="fill: #eeeeee; stroke: #000000; stroke-width: 0.3"/>
    <path d="M 128.647784 17.035331 
L 128.669722 17.019891 
L 128.680849 17.043385 
z
" clip-path="url(#p53cd0e066d)" style="fill: #eeeeee; stroke: #000000; stroke-width: 0.3"/>
    <path d="M 124.6327 17.253467 
L 124.661315 17.167218 
L 124.714731 17.234675 
z
" clip-path="url(#p53cd0e066d)" style="fill: #eeeeee; stroke: #000000; stroke-width: 0.3"/>
    <path d="M 123.990119 15.50233 
L 124.427303 15.54864 
L 124.240983 15.628514 
z
" clip-path="url(#p53cd0e066d)" style="fill: #eeeeee; stroke: #000000; stroke-width: 0.3"/>
    <path d="M 111.888589 25.497706 
L 112.118151 23.969067 
L 112.580449 24.053972 
L 112.511135 24.899004 
L 112.747691 26.245412 
z
" clip-path="url(#p53cd0e066d)" style="fill: #eeeeee; stroke: #000000; stroke-width: 0.3"/>
    <path d="M 115.751058 27.189778 
L 116.404129 27.271326 
L 116.769455 26.793106 
L 116.943054 28.095888 
z
" clip-path="url(#p53cd0e066d)" style="fill: #eeeeee; stroke: #000000; stroke-width: 0.3"/>
    <path d="M 113.521586 27.504568 
L 114.390545 28.058971 
L 113.636681 27.981114 
z
" clip-path="url(#p53cd0e066d)" style="fill: #eeeeee; stroke: #000000; stroke-width: 0.3"/>
   </g>
   <g id="PatchCollection_2">
    <path d="M 61.084865 38.822536 
L 72.759871 34.832391 
L 74.487315 37.256652 
L 74.782492 36.794647 
L 76.073233 36.817233 
L 77.219209 36.3727 
L 77.899204 37.280096 
L 78.098276 40.017192 
L 76.785933 42.568462 
L 77.455433 43.269145 
L 77.541035 44.152244 
L 79.412639 46.077847 
L 80.244057 46.459727 
L 80.039737 47.5994 
L 80.922438 47.679955 
L 80.868732 45.912478 
L 80.29736 45.239924 
L 81.245478 43.604142 
L 81.792218 43.729447 
L 82.849361 43.197114 
L 83.065796 40.619419 
L 82.845727 39.607609 
L 83.31494 38.432557 
L 83.092043 37.457395 
L 80.110403 33.555478 
L 79.247081 32.778505 
L 78.377703 32.681757 
L 78.005403 31.994711 
L 77.806737 29.362248 
L 77.257974 27.350128 
L 78.284428 24.788627 
L 81.858441 24.930556 
L 83.010477 24.108827 
L 84.34543 24.790334 
L 84.468992 25.296666 
L 86.133448 25.378499 
L 86.892993 24.769022 
L 87.72239 24.733219 
L 88.149204 25.186276 
L 89.430858 25.370825 
L 90.78762 24.604079 
L 91.260873 23.574791 
L 92.505375 23.546663 
L 93.426036 24.108827 
L 95.004479 23.095309 
L 96.340241 23.122163 
L 97.357408 22.365219 
L 98.479966 22.125693 
L 101.311316 20.25 
L 101.296051 20.615463 
L 101.87568 21.112814 
L 101.213067 21.422907 
L 101.740232 21.747763 
L 101.255036 22.221287 
L 101.295735 22.557219 
L 101.528474 22.461238 
L 101.295735 23.176729 
L 100.679545 23.71133 
L 101.13676 23.992223 
L 100.987322 25.084588 
L 101.349151 25.863841 
L 101.367592 27.370998 
L 101.079527 27.61464 
L 101.508763 28.124078 
L 101.185089 28.59391 
L 101.512576 28.713381 
L 101.843884 29.687616 
L 100.922142 30.412501 
L 101.205437 30.74172 
L 101.270934 30.437 
L 101.6423 30.551102 
L 101.375859 32.756971 
L 101.6423 32.982155 
L 101.424189 33.275802 
L 101.858508 34.906797 
L 101.421008 35.453481 
L 101.627676 35.860895 
L 102.037198 35.527985 
L 102.231781 35.892442 
L 102.178365 36.177026 
L 101.802549 36.177026 
L 101.775841 37.110653 
L 102.053728 36.556918 
L 102.44799 36.468995 
L 102.608555 36.690488 
L 102.289968 36.981112 
L 102.554185 36.939499 
L 102.629856 37.682509 
L 102.154204 38.432561 
L 101.829257 38.295977 
L 102.34052 38.889643 
L 101.937996 38.802726 
L 102.098245 39.199736 
L 101.379673 39.439349 
L 101.3199 39.649766 
L 101.799368 39.57795 
L 101.979965 39.859849 
L 101.589841 40.928387 
L 99.570533 42.978203 
L 99.843334 42.96713 
L 99.286922 43.940021 
L 98.470421 44.2679 
L 98.566443 44.62665 
L 98.754037 44.795119 
L 95.914415 46.601627 
L 95.763387 47.079851 
L 94.092875 47.252012 
L 92.178173 48.332294 
L 91.818571 47.932937 
L 92.002664 48.327263 
L 88.336056 50.192836 
L 87.533546 51.321445 
L 87.158046 50.779793 
L 86.942474 50.765697 
L 87.506838 51.462392 
L 85.536496 53.564898 
L 85.280863 54.506918 
L 84.619208 54.132729 
L 84.731764 54.944197 
L 84.262149 54.983798 
L 84.172487 54.572358 
L 83.123568 55.193547 
L 80.27727 58.301496 
L 79.313242 58.954565 
L 78.323463 57.851462 
L 78.036351 57.795415 
L 78.912944 58.755221 
L 78.645863 59.039132 
L 78.90245 60.145258 
L 78.435062 60.14257 
L 78.779083 60.45199 
L 78.376559 61.068816 
L 78.673524 61.443677 
L 78.485935 61.749403 
L 78.765729 61.680272 
L 79.283353 62.458515 
L 79.755829 62.528991 
L 79.928795 63.38778 
L 80.251199 63.503225 
L 79.846127 64.099914 
L 80.064242 64.969442 
L 80.277907 64.378456 
L 80.251199 65.19731 
L 80.84068 66.298063 
L 80.976127 69.36809 
L 81.321422 69.776849 
L 81.506469 68.258611 
L 81.738571 68.202903 
L 81.803118 69.044578 
L 81.936338 68.50427 
L 81.694059 70.611139 
L 81.883238 71.670612 
L 82.149999 71.537715 
L 81.651453 72.618669 
L 81.307111 74.973877 
L 81.272773 74.683925 
L 81.111575 74.677884 
L 81.080412 75.866898 
L 81.267053 75.37156 
L 81.602807 75.518887 
L 81.640963 75.115835 
L 81.842223 75.20074 
L 81.722994 76.431034 
L 80.197782 78.478837 
L 73.050882 81.360935 
L 73.214944 81.177698 
L 71.470665 82.379801 
L 70.745099 83.790309 
L 70.371826 84.132951 
L 70.07931 84.054422 
L 69.923832 84.197052 
L 71.352389 85.451173 
L 71.789888 84.586004 
L 71.550152 87.75 
L 68.50586 87.724804 
L 68.336668 84.301091 
L 67.86261 84.087985 
L 67.693016 83.489593 
L 68.04432 82.763339 
L 68.008384 77.757973 
L 67.476581 75.727097 
L 66.215318 73.773155 
L 66.249441 72.53673 
L 65.244386 69.478274 
L 69.808107 64.935342 
L 69.388564 64.194597 
L 69.979319 63.379264 
L 69.942574 62.004749 
L 70.685561 61.711093 
L 71.519807 59.942763 
L 71.996286 59.649957 
L 72.096028 58.627915 
L 71.745935 58.071714 
L 71.263192 58.174858 
L 71.312256 57.459685 
L 71.043327 57.307529 
L 71.404926 55.739517 
L 70.721903 55.208462 
L 70.762282 54.710654 
L 71.587038 54.464307 
L 71.46287 53.479771 
L 72.134992 52.721973 
L 71.791967 52.327309 
L 71.684154 51.15865 
L 72.063721 49.70017 
L 71.72009 49.201512 
L 72.052418 48.571577 
L 71.298929 46.879113 
L 71.844864 45.833627 
L 70.918147 45.94572 
L 70.685561 45.496074 
L 69.195751 44.885748 
L 67.710379 44.791556 
L 66.930647 43.921241 
L 65.734599 43.691941 
L 65.169685 43.119546 
L 61.81978 43.027911 
L 61.78182 40.881536 
z
M 78.437469 26.842088 
L 78.566684 27.041127 
L 78.853378 26.693772 
L 78.586872 26.529253 
z
M 78.000559 26.574433 
L 78.262623 26.826748 
L 78.326424 26.475128 
z
" clip-path="url(#p53cd0e066d)" style="fill: #ff6b6b; stroke: #dd0000; stroke-width: 0.5"/>
    <path d="M 81.48103 66.870257 
L 81.491208 66.416866 
L 81.616478 65.906088 
L 81.699145 66.288669 
z
" clip-path="url(#p53cd0e066d)" style="fill: #ff6b6b; stroke: #dd0000; stroke-width: 0.5"/>
    <path d="M 98.618734 44.331724 
L 99.107243 44.26896 
L 98.841975 44.741951 
z
" clip-path="url(#p53cd0e066d)" style="fill: #ff6b6b; stroke: #dd0000; stroke-width: 0.5"/>
    <path d="M 71.648717 84.266517 
L 71.899897 84.132951 
L 71.816597 84.442706 
z
" clip-path="url(#p53cd0e066d)" style="fill: #ff6b6b; stroke: #dd0000; stroke-width: 0.5"/>
   </g>
  </g>
 </g>
 <defs>
  <clipPath id="p53cd0e066d">
   <rect x="0" y="0" width="163.714721" height="108"/>
  </clipPath>
 </defs>
</svg>
