<?xml version="1.0" encoding="utf-8" standalone="no"?>
<!DOCTYPE svg PUBLIC "-//W3C//DTD SVG 1.1//EN"
  "http://www.w3.org/Graphics/SVG/1.1/DTD/svg11.dtd">
<svg xmlns:xlink="http://www.w3.org/1999/xlink" width="130.986405pt" height="108pt" viewBox="0 0 130.986405 108" xmlns="http://www.w3.org/2000/svg" version="1.1">
 <metadata>
  <rdf:RDF xmlns:dc="http://purl.org/dc/elements/1.1/" xmlns:cc="http://creativecommons.org/ns#" xmlns:rdf="http://www.w3.org/1999/02/22-rdf-syntax-ns#">
   <cc:Work>
    <dc:type rdf:resource="http://purl.org/dc/dcmitype/StillImage"/>
    <dc:date>2025-09-05T13:56:19.277994</dc:date>
    <dc:format>image/svg+xml</dc:format>
    <dc:creator>
     <cc:Agent>
      <dc:title>Matplotlib v3.10.3, https://matplotlib.org/</dc:title>
     </cc:Agent>
    </dc:creator>
   </cc:Work>
  </rdf:RDF>
 </metadata>
 <defs>
  <style type="text/css">*{stroke-linejoin: round; stroke-linecap: butt}</style>
 </defs>
 <g id="figure_1">
  <g id="patch_1">
   <path d="M 0 108 
L 130.986405 108 
L 130.986405 0 
L 0 0 
z
" style="fill: #ffffff"/>
  </g>
  <g id="axes_1">
   <g id="PatchCollection_1">
    <path d="M -184.631156 -26.929735 
L -184.129729 -26.468707 
L -184.002243 -27.792938 
L -183.910487 -26.246122 
L -183.673358 -25.646514 
L -183.764363 -27.703079 
L -183.241487 -25.106228 
L -183.00209 -26.178178 
L -182.909626 -24.63293 
L -182.658304 -25.328295 
L -182.471038 -24.144767 
L -181.62529 -24.871703 
L -181.564242 -25.869337 
L -182.860188 -27.277646 
L -183.519501 -29.285223 
L -183.121409 -30.502007 
L -182.102883 -28.41242 
L -182.224865 -26.678966 
L -181.718908 -27.097712 
L -181.6918 -28.084145 
L -180.987933 -25.601301 
L -180.641365 -25.284461 
L -180.091039 -26.014371 
L -180.292624 -27.891419 
L -179.946946 -27.832603 
L -179.989124 -28.653272 
L -180.424311 -28.943267 
L -181.911281 -32.378393 
L -182.375958 -32.748463 
L -182.745985 -34.84402 
L -183.643105 -36.593023 
L -183.355382 -39.391167 
L -182.052914 -41.90746 
L -181.890359 -44.837701 
L -182.515875 -45.965104 
L -182.567657 -46.799343 
L -181.301883 -50.274741 
L -180.352981 -51.106267 
L -180.752155 -49.035593 
L -180.616355 -48.171045 
L -180.356411 -48.246144 
L -180.611556 -47.355351 
L -179.656821 -47.265776 
L -178.980897 -49.101191 
L -178.990155 -49.986102 
L -178.7597 -49.777994 
L -178.353324 -50.88187 
L -174.848181 -52.784246 
L -172.917452 -55.242173 
L -172.012101 -55.737107 
L -171.823487 -56.421604 
L -170.748043 -56.600304 
L -169.318003 -58.155681 
L -169.045712 -57.170788 
L -167.787482 -57.814114 
L -166.945918 -57.083926 
L -165.333776 -57.468927 
L -163.586861 -59.149619 
L -160.827603 -59.567192 
L -159.606409 -61.314394 
L -157.523079 -60.763356 
L -156.914022 -61.337014 
L -154.241871 -61.868139 
L -151.040224 -63.794035 
L -149.392077 -66.301734 
L -148.872871 -67.743559 
L -148.996328 -68.286897 
L -148.339949 -68.59318 
L -148.497699 -69.017991 
L -148.162995 -69.676243 
L -147.744613 -69.665836 
L -145.904422 -71.574093 
L -145.916769 -72.342284 
L -146.651335 -72.368523 
L -146.641735 -76.355137 
L -145.373901 -78.250725 
L -144.859499 -77.968424 
L -145.14962 -78.575554 
L -144.912654 -79.032486 
L -143.907167 -79.03158 
L -144.169167 -80.006066 
L -143.505931 -81.053845 
L -143.067318 -81.239332 
L -142.926368 -80.749824 
L -143.322117 -80.139981 
L -142.972322 -79.516563 
L -142.595781 -79.550947 
L -142.548799 -78.286465 
L -140.74736 -74.498458 
L -140.437686 -76.779948 
L -140.645508 -77.889706 
L -139.303941 -76.608486 
L -139.804285 -77.806463 
L -139.515876 -77.664859 
L -139.606068 -78.104146 
L -139.135563 -78.760136 
L -139.813202 -78.414499 
L -140.168138 -79.24195 
L -141.003874 -79.731003 
L -140.585492 -80.329088 
L -141.365329 -80.635822 
L -140.441803 -80.44219 
L -141.019992 -81.098179 
L -140.153735 -80.976933 
L -140.491187 -81.338858 
L -140.153735 -81.511682 
L -140.87836 -81.891703 
L -140.750103 -82.382562 
L -139.752504 -82.303844 
L -140.065258 -81.926537 
L -139.517591 -81.546516 
L -139.515876 -80.976933 
L -139.394479 -81.482725 
L -138.968895 -81.265572 
L -139.314232 -82.157265 
L -138.406825 -81.852794 
L -138.000444 -81.166946 
L -137.311831 -81.413958 
L -136.942833 -81.179616 
L -135.400306 -80.999554 
L -135.129388 -81.128944 
L -137.246671 -81.535659 
L -137.108468 -83.044889 
L -136.745985 -82.385281 
L -136.426371 -82.726848 
L -136.369444 -83.929345 
L -135.851266 -84.441473 
L -136.369444 -84.441473 
L -136.889332 -83.3756 
L -137.09098 -84.331535 
L -137.235015 -84.062354 
L -137.352298 -86.004994 
L -136.285425 -86.118096 
L -136.241187 -86.61303 
L -136.062172 -86.290914 
L -135.851266 -86.937859 
L -136.116701 -86.966811 
L -136.141732 -87.533226 
L -135.060115 -86.918402 
L -134.810115 -86.270106 
L -133.944203 -86.046616 
L -134.419171 -86.596742 
L -134.116699 -87.18487 
L -135.208262 -87.275352 
L -134.491184 -88.023184 
L -135.273077 -87.533226 
L -135.390706 -88.140355 
L -134.635218 -88.367921 
L -134.72404 -89.089959 
L -134.420199 -89.100366 
L -134.028222 -88.023184 
L -134.110525 -88.769655 
L -134.028222 -88.861949 
L -133.510048 -88.143974 
L -132.903735 -88.158456 
L -133.180485 -88.639365 
L -132.914712 -88.875068 
L -133.937688 -89.228399 
L -133.423282 -89.564535 
L -134.151679 -90.393349 
L -133.455178 -90.956144 
L -133.743242 -91.070152 
L -133.259704 -91.712115 
L -133.28028 -91.108154 
L -133.078633 -91.487269 
L -132.872872 -90.933068 
L -132.644478 -91.756906 
L -132.241873 -91.452885 
L -132.119785 -93.240803 
L -131.635218 -92.978403 
L -131.951748 -92.632767 
L -132.037482 -90.956144 
L -131.636246 -92.269029 
L -131.635218 -91.870914 
L -131.143104 -91.940581 
L -131.214439 -91.234826 
L -130.855727 -90.938949 
L -130.826579 -91.601276 
L -130.336866 -91.656468 
L -130.594067 -92.367655 
L -129.900651 -93.399145 
L -129.944202 -93.956965 
L -130.625272 -94.365487 
L -130.104696 -94.345129 
L -130.437686 -94.917875 
L -130.146537 -95.099294 
L -129.871844 -94.917425 
L -130.044685 -94.385845 
L -129.581719 -94.727868 
L -129.811833 -94.009894 
L -129.293655 -93.205513 
L -129.123903 -94.155116 
L -128.287826 -94.879423 
L -128.600584 -94.053328 
L -128.287139 -94.079111 
L -127.967524 -93.205513 
L -127.76382 -94.117114 
L -127.591666 -93.813099 
L -127.418825 -94.079111 
L -127.530622 -94.575858 
L -126.898249 -94.765871 
L -127.361215 -95.642182 
L -126.958265 -95.49334 
L -126.871844 -95.911363 
L -126.21238 -95.719994 
L -125.750101 -94.664076 
L -125.600584 -95.148604 
L -125.466836 -94.766321 
L -125.298799 -95.084818 
L -124.533366 -94.807036 
L -122.304973 -91.298162 
L -121.108128 -90.491974 
L -121.585834 -89.73826 
L -121.980555 -86.165143 
L -121.655795 -86.565077 
L -121.555317 -87.913252 
L -120.863615 -86.691748 
L -121.257649 -88.609506 
L -120.761763 -89.453696 
L -120.607443 -88.718083 
L -120.545029 -89.013959 
L -120.321435 -88.704513 
L -120.18563 -88.688224 
L -120.232958 -89.75998 
L -120.44592 -90.018304 
L -119.839266 -90.299248 
L -117.437686 -89.451434 
L -117.093724 -89.026173 
L -117.225752 -87.681617 
L -116.935632 -87.982013 
L -116.966495 -87.605612 
L -116.760393 -88.3272 
L -116.904768 -89.833722 
L -115.860528 -89.293547 
L -115.402708 -87.982013 
L -114.804974 -87.84901 
L -115.290569 -89.244682 
L -115.13316 -89.855436 
L -113.728843 -90.004278 
L -113.682889 -90.453972 
L -114.654766 -89.928273 
L -114.510732 -90.235006 
L -114.870131 -90.121449 
L -115.390706 -91.074221 
L -114.844754 -91.171941 
L -114.542282 -91.52889 
L -115.612927 -91.452885 
L -116.35984 -92.212025 
L -116.297427 -92.654031 
L -115.836867 -94.196288 
L -115.402708 -93.968272 
L -115.316287 -94.499853 
L -114.768966 -94.530161 
L -114.85161 -95.22144 
L -114.430485 -95.807762 
L -114.112927 -97.610606 
L -113.78577 -97.094864 
L -112.583779 -98.243525 
L -112.254561 -98.11821 
L -113.13762 -99.128436 
L -113.107444 -100.374366 
L -112.312175 -100.566186 
L -112.161626 -101.866858 
L -111.479869 -101.96684 
L -111.518963 -102.287149 
L -111.183575 -101.660111 
L -110.735013 -101.708065 
L -111.293312 -102.1098 
L -111.052571 -102.245527 
L -111.217523 -103.374737 
L -110.351611 -103.184724 
L -110.325547 -102.350029 
L -110.237071 -102.615596 
L -109.862586 -102.046013 
L -109.573148 -102.11885 
L -109.972668 -102.747699 
L -109.573148 -102.615596 
L -110.179457 -103.374737 
L -109.831722 -103.75747 
L -109.224726 -103.526741 
L -109.330692 -104.784891 
L -108.356412 -104.289501 
L -108.192488 -105.358993 
L -107.553942 -103.991817 
L -105.660941 -104.402602 
L -104.982956 -103.897717 
L -104.167798 -104.733769 
L -104.053944 -104.334291 
L -103.625962 -104.402152 
L -103.593725 -103.488739 
L -103.374248 -104.741913 
L -102.850242 -105.093881 
L -102.36533 -104.842345 
L -102.034397 -104.861346 
L -102.552916 -105.229603 
L -102.727813 -106.801269 
L -102.295715 -107.529194 
L -103.139335 -108.514988 
L -103.66814 -108.743909 
L -104.778224 -108.25395 
L -105.327606 -109.209436 
L -106.206206 -109.434282 
L -105.721981 -110.206092 
L -105.29743 -109.904334 
L -105.287485 -110.444058 
L -104.744272 -110.001603 
L -104.490842 -108.902702 
L -104.233987 -109.275034 
L -104.602639 -110.398818 
L -104.025137 -109.669536 
L -103.781311 -110.483868 
L -103.634192 -109.588099 
L -103.22541 -109.86045 
L -102.385907 -108.335837 
L -101.455866 -108.833484 
L -101.387962 -109.317562 
L -100.310116 -107.246437 
L -98.770681 -106.997613 
L -98.770681 -106.348862 
L -97.153739 -107.146455 
L -97.457235 -106.407673 
L -97.038512 -106.082844 
L -96.562862 -106.465583 
L -96.431861 -106.003676 
L -96.217525 -106.272857 
L -96.015877 -105.178031 
L -95.597841 -105.779735 
L -94.294685 -105.244986 
L -93.560119 -105.893743 
L -93.170198 -104.899349 
L -91.667931 -103.930588 
L -91.868159 -104.334191 
L -91.159914 -104.237022 
L -91.646465 -104.53928 
L -91.041408 -105.115862 
L -90.107444 -105.054978 
L -89.584504 -105.500169 
L -90.136251 -105.282988 
L -90.087895 -105.796924 
L -89.318349 -106.051179 
L -88.790571 -106.941516 
L -88.777862 -106.437359 
L -89.563814 -105.586136 
L -88.7237 -105.779735 
L -89.83675 -104.472815 
L -89.500448 -103.871478 
L -88.14551 -105.244986 
L -88.643107 -104.415272 
L -88.117045 -104.312121 
L -88.433575 -103.585102 
L -88.227814 -103.012806 
L -87.171914 -103.291493 
L -86.840981 -104.363699 
L -87.624931 -104.653238 
L -86.471561 -105.923501 
L -85.959553 -106.178612 
L -86.389228 -105.678385 
L -85.574521 -104.137496 
L -85.229871 -104.125277 
L -85.507708 -104.46496 
L -85.164369 -104.688528 
L -84.225757 -103.682371 
L -85.121129 -102.593143 
L -84.976441 -103.065285 
L -85.251476 -102.958065 
L -85.162814 -102.410068 
L -85.462626 -101.637708 
L -85.807032 -101.628441 
L -85.797428 -100.986927 
L -86.014166 -101.460148 
L -86.383164 -101.300899 
L -85.600188 -100.067421 
L -86.277541 -100.18164 
L -85.980555 -99.720184 
L -86.380421 -98.696387 
L -87.013953 -98.331566 
L -86.735016 -98.788675 
L -86.96821 -99.783108 
L -87.071436 -99.138843 
L -87.320407 -99.322969 
L -87.702447 -98.582346 
L -87.748734 -99.36414 
L -88.14551 -98.309579 
L -88.335949 -98.845701 
L -88.862361 -98.232751 
L -88.499663 -97.677455 
L -88.982957 -97.508817 
L -88.848185 -96.076493 
L -88.04263 -96.3597 
L -88.694893 -94.708867 
L -88.752506 -93.399145 
L -89.385907 -93.009168 
L -90.382478 -90.862494 
L -91.033367 -90.466185 
L -90.606073 -89.214373 
L -87.424315 -86.653746 
L -87.219583 -85.814981 
L -85.864645 -84.973504 
L -85.355385 -83.722143 
L -84.470611 -83.729381 
L -84.191118 -84.12117 
L -82.634878 -82.687033 
L -81.012795 -81.964539 
L -79.16643 -79.490324 
L -75.693865 -78.38826 
L -75.062862 -77.623688 
L -75.036457 -76.674535 
L -74.573491 -75.87061 
L -71.51691 -73.881372 
L -69.310119 -74.303014 
L -67.953125 -75.354412 
L -67.524111 -77.705125 
L -66.460323 -79.457747 
L -65.483987 -83.022719 
L -65.709297 -83.758789 
L -65.447978 -85.31824 
L -64.495646 -88.861949 
L -65.102642 -91.794908 
L -64.77891 -93.847932 
L -65.329666 -95.232303 
L -64.378021 -98.650691 
L -64.840982 -100.12283 
L -63.88865 -101.89129 
L -63.3451 -100.552616 
L -63.486045 -101.394093 
L -63.05189 -101.628441 
L -63.831723 -101.96684 
L -63.19592 -102.350029 
L -63.939749 -102.378531 
L -64.378021 -102.805604 
L -64.162315 -103.074785 
L -64.524111 -103.112788 
L -64.35127 -102.576688 
L -64.812176 -102.596595 
L -64.278912 -104.308502 
L -63.88865 -104.289501 
L -64.125961 -104.446036 
L -63.798117 -105.569814 
L -63.452093 -105.85574 
L -63.425688 -105.013357 
L -62.947977 -105.373925 
L -63.307717 -106.180113 
L -62.531311 -109.282272 
L -62.450381 -111.43664 
L -61.72404 -111.70899 
L -60.785429 -112.898367 
L -60.491532 -112.538704 
L -60.972669 -111.452022 
L -60.597156 -111.913023 
L -60.279257 -111.144838 
L -59.960325 -111.300918 
L -59.411284 -109.035711 
L -59.453125 -106.509917 
L -58.905799 -105.969742 
L -57.823494 -105.779735 
L -58.509363 -104.774484 
L -58.547774 -103.775115 
L -57.807034 -103.440785 
L -57.63008 -102.629617 
L -57.044344 -102.194855 
L -57.360532 -100.70779 
L -56.581382 -100.973352 
L -56.753536 -99.626083 
L -56.353329 -97.129698 
L -56.638996 -95.873361 
L -55.976788 -94.404846 
L -55.574525 -92.248221 
L -54.906826 -91.642898 
L -53.977814 -92.410182 
L -53.81115 -93.092411 
L -53.379735 -92.746774 
L -52.609501 -93.584633 
L -52.21307 -92.459948 
L -51.990845 -92.594764 
L -51.803605 -91.394525 
L -50.863274 -91.070152 
L -50.316293 -90.004278 
L -49.505934 -89.855436 
L -48.988102 -89.244682 
L -49.451068 -88.002827 
L -48.972329 -87.533226 
L -49.417116 -86.543813 
L -48.496334 -83.029963 
L -48.757652 -80.901834 
L -47.400312 -78.917572 
L -47.182204 -77.871606 
L -46.908885 -78.465621 
L -46.420201 -78.512218 
L -46.728842 -77.475297 
L -45.608472 -74.29035 
L -46.188377 -70.93303 
L -45.457923 -70.134531 
L -45.349556 -69.393942 
L -44.800861 -69.317937 
L -45.089953 -67.513281 
L -44.826579 -66.916102 
L -42.416774 -64.995181 
L -41.915402 -65.702292 
L -41.45244 -64.40479 
L -40.241191 -64.393932 
L -40.321439 -64.99925 
L -39.13351 -62.085292 
L -38.708955 -62.044576 
L -38.852989 -62.844432 
L -38.54503 -62.71776 
L -38.101959 -61.698939 
L -36.629051 -61.31982 
L -36.686664 -60.667449 
L -36.108817 -60.025936 
L -35.847498 -60.098322 
L -35.931176 -60.785076 
L -35.442837 -60.836648 
L -35.228847 -59.941786 
L -35.070409 -60.212324 
L -34.924318 -59.605194 
L -34.507651 -59.790682 
L -33.854361 -58.155681 
L -34.848871 -58.687712 
L -35.021025 -57.948479 
L -34.248394 -56.807056 
L -34.317322 -56.178657 
L -33.351614 -56.134322 
L -33.476787 -55.702274 
L -32.614646 -55.071167 
L -32.760737 -54.34641 
L -32.151685 -53.210863 
L -32.357787 -52.731311 
L -31.923632 -52.769314 
L -31.779598 -52.325052 
L -31.536113 -52.591064 
L -31.754221 -51.180009 
L -31.112931 -48.442489 
L -30.64997 -48.096846 
L -30.794004 -47.265776 
L -30.164029 -47.909101 
L -29.17809 -46.423843 
L -29.697296 -48.352913 
L -29.149283 -49.224249 
L -28.557377 -47.905933 
L -26.808065 -46.617024 
L -27.083782 -47.971081 
L -26.768968 -48.152043 
L -26.57761 -47.679729 
L -26.519997 -48.020847 
L -26.173291 -47.395616 
L -26.519997 -46.883037 
L -26.290574 -46.519305 
L -26.115677 -47.063549 
L -25.892424 -46.131135 
L -26.271371 -44.825037 
L -25.656828 -41.734186 
L -25.944896 -41.621084 
L -25.113467 -41.302587 
L -24.372193 -39.981558 
L -22.840984 -38.38456 
L -22.246335 -38.346107 
L -22.458269 -39.013409 
L -22.122536 -38.566428 
L -21.872192 -38.767299 
L -20.428436 -35.60316 
L -18.967529 -34.414228 
L -18.262794 -32.442185 
L -18.554634 -32.340396 
L -17.096129 -31.734167 
L -17.279257 -30.689107 
L -16.891397 -30.901735 
L -16.875624 -30.569217 
L -17.221643 -29.58523 
L -16.643454 -28.746466 
L -16.643454 -27.94661 
L -16.473702 -28.788538 
L -16.220614 -28.142505 
L -15.866706 -28.135717 
L -16.420888 -26.014377 
L -15.847157 -21.785721 
L -16.571782 -21.139682 
L -16.238106 -21.120231 
L -16.459298 -20.489124 
L -14.854362 -17.815395 
L -15.047775 -16.910576 
L -14.328641 -15.57869 
L -14.075553 -12.978247 
L -14.179461 -11.833656 
L -15.255593 -9.534521 
L -15.490165 -6.501579 
L -16.635789 -2.338233 
L -16.482269 0.450833 
L -17.798239 4.705695 
L -18.644586 5.823613 
L -18.671922 8.038465 
L -19.704864 8.691653 
L -20.023084 9.456647 
L -20.690437 9.460722 
L -20.167118 9.843455 
L -21.793011 10.548927 
L -22.763409 12.764529 
L -23.2487 12.831078 
L -23.037857 13.141342 
L -23.373565 14.073923 
L -24.18872 14.113732 
L -24.210325 14.525874 
L -23.725058 14.572588 
L -24.120478 15.900744 
L -23.975074 16.434131 
L -24.759711 16.779317 
L -24.186663 16.92409 
L -25.29182 18.159424 
L -25.502878 19.403175 
L -25.999763 19.747111 
L -25.510737 20.053845 
L -26.311151 21.558555 
L -25.815266 22.687764 
L -26.443867 22.403651 
L -26.17466 23.252822 
L -27.040572 23.445548 
L -28.145856 26.276714 
L -28.570407 26.298884 
L -28.36945 26.889725 
L -29.031312 28.28314 
L -28.771027 28.453702 
L -28.77514 29.596481 
L -29.755592 32.851557 
L -29.621162 33.722437 
L -29.896883 33.909737 
L -29.149283 34.870648 
L -29.581381 34.95706 
L -29.436665 36.133322 
L -30.561493 36.244161 
L -30.359845 36.623731 
L -30.729875 37.218192 
L -31.518966 37.731221 
L -36.511767 37.954261 
L -38.824523 38.853193 
L -42.658885 42.7439 
L -45.286456 42.907673 
L -45.462382 43.138402 
L -45.02411 43.993905 
L -44.221985 43.441511 
L -44.193865 44.854384 
L -44.569724 45.300908 
L -45.465471 43.763177 
L -45.844073 43.493089 
L -46.563207 43.97626 
L -47.254222 42.602752 
L -46.848187 42.830762 
L -47.034399 42.550268 
L -47.918144 42.716754 
L -48.872879 41.920067 
L -48.671918 41.309319 
L -48.098187 41.077228 
L -48.488104 40.239826 
L -49.366704 40.278279 
L -49.479871 41.233313 
L -50.678431 41.773033 
L -51.807035 40.788145 
L -50.516909 40.833836 
L -49.94215 39.821797 
L -50.719585 38.201728 
L -52.479875 39.556235 
L -53.086871 39.594238 
L -51.689064 39.748055 
L -51.907855 40.52484 
L -52.96547 40.610346 
L -56.610189 43.707529 
L -59.672602 42.151246 
L -60.969584 41.017511 
L -62.3475 41.152333 
L -64.089952 40.39138 
L -64.950036 41.380343 
L -65.638308 41.168616 
L -65.652711 40.637491 
L -66.735016 39.64536 
L -68.606416 39.314649 
L -69.836868 38.490361 
L -71.033371 36.253662 
L -71.565261 36.084457 
L -72.379051 34.870648 
L -72.896883 33.11757 
L -72.180146 32.51994 
L -72.117046 31.347297 
L -72.656824 29.887377 
L -73.80429 27.583717 
L -76.075206 25.464639 
L -73.843042 27.413612 
L -72.896883 29.083902 
L -73.725413 27.241699 
L -75.55463 25.616649 
L -75.074522 25.056572 
L -74.742219 25.302227 
L -74.761764 26.090776 
L -74.304289 26.079918 
L -74.229869 25.556932 
L -74.806348 25.078287 
L -74.207582 24.979661 
L -74.199352 24.35353 
L -74.978843 24.011507 
L -75.892424 24.55892 
L -75.598528 25.13529 
L -76.597842 24.948897 
L -75.75662 25.302227 
L -76.799831 25.253368 
L -77.70415 25.84919 
L -79.490161 25.708943 
L -78.096468 24.163517 
L -77.861559 21.099811 
L -77.622533 21.045976 
L -79.613615 17.412692 
L -80.396882 19.623608 
L -80.998391 22.986804 
L -81.327609 23.263679 
L -82.363615 22.915774 
L -83.443863 23.605247 
L -84.833781 23.682153 
L -84.073493 21.71056 
L -82.276853 21.799234 
L -81.996332 20.133469 
L -82.140366 19.291085 
L -82.410942 19.325469 
L -82.117733 18.674905 
L -82.250448 17.564697 
L -81.845096 17.18377 
L -81.619791 16.013395 
L -80.233986 14.567045 
L -80.741666 12.585284 
L -79.773426 11.59382 
L -80.895511 8.470397 
L -80.87699 11.0446 
L -81.493244 10.926068 
L -82.251476 11.918649 
L -83.209296 14.771534 
L -84.071777 15.199058 
L -84.386251 14.933045 
L -84.64928 15.336136 
L -84.306004 15.326636 
L -85.811149 16.159518 
L -87.887277 18.832347 
L -87.943521 19.672468 
L -88.078634 19.377948 
L -88.637279 19.671111 
L -88.863958 20.971327 
L -89.21581 21.175816 
L -88.301888 20.835605 
L -88.519995 22.30005 
L -89.286457 21.466717 
L -89.919171 21.996485 
L -91.371848 19.992771 
L -92.129389 20.012223 
L -91.70072 19.09836 
L -91.022053 20.191379 
L -90.462725 20.100897 
L -90.94489 19.863832 
L -91.785084 16.104327 
L -93.255591 14.649382 
L -93.170544 13.805192 
L -93.947633 12.43711 
L -93.822806 12.101424 
L -94.348182 11.951226 
L -94.151338 12.511303 
L -94.786454 12.014562 
L -95.39345 12.279674 
L -96.1726 11.292968 
L -95.995304 10.842374 
L -96.509361 10.746917 
L -96.23913 10.226194 
L -96.486728 9.549841 
L -95.885222 9.615895 
L -95.896878 10.062876 
L -95.544686 9.352596 
L -96.173974 8.121141 
L -97.370132 8.620601 
L -97.350242 7.98542 
L -97.009705 7.745641 
L -98.277194 6.145929 
L -99.871502 6.797394 
L -101.955865 5.307615 
L -104.241871 5.764097 
L -107.182546 3.388051 
L -108.870132 2.661032 
L -110.325547 3.402077 
L -112.993586 3.212064 
L -117.024108 3.670808 
L -125.080005 7.100508 
L -130.47884 7.100508 
L -135.42433 10.404488 
L -138.090982 11.351329 
L -139.138989 14.293789 
L -140.933572 16.358126 
L -141.537483 16.092563 
L -142.50113 16.751722 
L -143.055312 15.92427 
L -144.807031 16.114278 
L -145.00559 16.472134 
L -145.89242 16.228285 
L -146.28028 16.821845 
L -146.967523 16.805557 
L -147.342695 15.702587 
L -148.23604 16.127397 
L -150.174312 15.671822 
L -153.425684 16.104327 
L -154.133159 16.55357 
L -155.785423 16.288002 
L -157.598181 17.488692 
L -158.030279 18.441464 
L -157.652023 18.832347 
L -158.28748 18.756342 
L -158.474725 19.45124 
L -158.738441 19.177984 
L -159.039539 19.657536 
L -160.683573 19.21508 
L -160.481925 19.481098 
L -161.157849 19.801402 
L -161.167794 20.233901 
L -162.357438 20.812985 
L -162.543654 21.707847 
L -163.545025 21.955314 
L -163.382474 22.351623 
L -164.916081 22.433059 
L -164.216495 22.748387 
L -164.439402 22.910799 
L -165.552912 22.515847 
L -165.825544 23.024807 
L -167.629044 22.30005 
L -167.845095 22.607234 
L -169.962719 22.537566 
L -170.98604 21.977484 
L -170.52822 21.92048 
L -171.017591 21.466261 
L -171.065601 21.799234 
L -172.741185 21.344565 
L -174.284395 19.177984 
L -175.639332 18.377222 
L -176.363953 18.719245 
L -176.820746 18.061444 
L -176.912994 14.036821 
L -176.044339 14.723581 
L -175.317316 14.649382 
L -173.872186 12.644768 
L -174.332405 9.259396 
L -173.910938 8.432395 
L -174.169167 9.232706 
L -173.855381 9.91946 
L -174.088233 9.074814 
L -173.62287 8.929141 
L -174.02582 7.100508 
L -173.675338 6.612812 
L -173.824172 4.316846 
L -176.608466 -2.633498 
L -177.106408 -5.365132 
L -176.954148 -8.428838 
L -177.528561 -10.493175 
L -178.534395 -11.99426 
L -178.840634 -13.751869 
L -180.379044 -16.062767 
L -180.66608 -17.419081 
L -180.472321 -18.39176 
L -181.025821 -20.461979 
z
" clip-path="url(#p95c0fc94be)" style="fill: #eeeeee; stroke: #000000; stroke-width: 0.3"/>
    <path d="M -52.106072 55.594091 
L -51.693177 54.898287 
L -51.715128 53.724742 
L -49.944206 54.620505 
L -49.310464 54.056809 
L -49.044346 54.713249 
L -48.237076 54.756227 
L -47.032342 55.76329 
L -43.763136 56.614719 
L -43.0951 55.97773 
L -42.825552 56.484428 
L -42.22953 56.508855 
L -42.778225 56.032472 
L -41.942835 55.483702 
L -40.572466 55.291882 
L -40.142424 55.66014 
L -39.275484 54.66032 
L -38.43735 54.9951 
L -37.869447 54.148647 
L -36.920886 54.728181 
L -36.406484 55.625756 
L -36.655455 55.863723 
L -36.44798 57.106034 
L -36.715812 57.540345 
L -36.310464 57.233612 
L -36.703124 60.06297 
L -36.267941 62.308726 
L -36.446951 62.718154 
L -36.715812 62.530404 
L -36.454153 61.836412 
L -37.118417 61.501626 
L -36.784399 61.2139 
L -37.040231 60.88002 
L -37.249422 61.517009 
L -36.888308 61.691639 
L -37.411285 61.729642 
L -37.955181 63.061528 
L -37.672603 63.019907 
L -37.77754 64.030589 
L -38.272056 64.202957 
L -38.000448 65.175181 
L -38.457927 65.9877 
L -37.783027 66.225216 
L -38.015538 67.136817 
L -37.80909 68.012678 
L -38.296746 67.463002 
L -38.677404 68.088683 
L -39.066293 67.636727 
L -38.865332 67.319592 
L -39.373906 66.96943 
L -39.09853 66.377227 
L -38.801549 66.940472 
L -38.278913 66.923283 
L -38.475757 66.187214 
L -39.768626 65.823476 
L -39.660942 66.605237 
L -40.178774 66.987975 
L -40.005591 66.225216 
L -40.821437 65.50046 
L -40.499079 66.316153 
L -40.612933 66.968974 
L -40.944894 66.883468 
L -40.931519 68.145687 
L -41.326581 68.233455 
L -41.567663 67.591942 
L -41.761768 67.852529 
L -42.131108 67.46074 
L -41.59647 68.396323 
L -42.174318 68.623432 
L -41.783715 68.712101 
L -42.347159 69.120173 
L -41.941807 69.389811 
L -42.431178 69.689301 
L -42.324521 70.132662 
L -43.236046 70.228575 
L -43.893454 69.341401 
L -44.066978 69.700158 
L -45.227473 69.425551 
L -46.129048 69.803308 
L -46.470272 68.760055 
L -45.550859 69.044168 
L -45.263823 68.509425 
L -46.123907 68.537926 
L -46.580008 67.820858 
L -46.781656 68.249744 
L -46.543658 68.339319 
L -46.939748 68.35832 
L -49.326237 64.531855 
L -49.649627 62.260766 
L -48.612589 63.2814 
L -48.455867 64.023351 
L -48.093042 63.071485 
L -48.493249 62.99186 
L -48.988102 61.991135 
L -49.479871 62.260766 
L -49.574521 60.98679 
L -50.781311 59.520988 
L -51.499076 57.916296 
z
" clip-path="url(#p95c0fc94be)" style="fill: #eeeeee; stroke: #000000; stroke-width: 0.3"/>
    <path d="M -112.106414 -110.026486 
L -111.968553 -110.310143 
L -111.180486 -109.567742 
L -111.268963 -108.9683 
L -110.880075 -109.320275 
L -110.723698 -108.747528 
L -109.774109 -109.442427 
L -109.342697 -108.864699 
L -108.795713 -109.7763 
L -108.516907 -108.940254 
L -108.575548 -109.791682 
L -108.284395 -110.107917 
L -108.170542 -109.61977 
L -107.638306 -109.774043 
L -107.176373 -108.864699 
L -107.443519 -107.825521 
L -107.81183 -107.949935 
L -108.205522 -107.136954 
L -109.604357 -105.970648 
L -111.562173 -107.551364 
z
" clip-path="url(#p95c0fc94be)" style="fill: #eeeeee; stroke: #000000; stroke-width: 0.3"/>
    <path d="M -86.126646 27.327655 
L -85.851612 26.469439 
L -82.744619 25.499022 
L -81.531996 25.494503 
L -81.709296 26.298884 
L -80.876303 26.369457 
L -80.731928 26.769385 
L -80.214441 26.297071 
L -79.396539 26.796531 
L -79.741876 27.365208 
L -80.693863 27.061643 
L -81.507307 27.319061 
L -81.618758 27.961025 
L -82.221641 28.277259 
L -83.196607 27.704963 
L -85.355385 28.16642 
z
" clip-path="url(#p95c0fc94be)" style="fill: #eeeeee; stroke: #000000; stroke-width: 0.3"/>
    <path d="M -87.005247 -93.208231 
L -86.527881 -93.815361 
L -86.644478 -95.49334 
L -85.864645 -95.528174 
L -85.959296 -96.228954 
L -85.34407 -96.442944 
L -85.287143 -95.376619 
L -84.939746 -95.320066 
L -84.565261 -95.832195 
L -85.401684 -93.779165 
L -85.267936 -93.433073 
L -84.361215 -93.47515 
L -84.565261 -92.82278 
z
" clip-path="url(#p95c0fc94be)" style="fill: #eeeeee; stroke: #000000; stroke-width: 0.3"/>
    <path d="M -16.959297 -30.092834 
L -16.444208 -31.504345 
L -16.672261 -32.157621 
L -15.780285 -33.180517 
L -15.723358 -33.815693 
L -16.15477 -34.350442 
L -15.547774 -35.037196 
L -15.173976 -33.394501 
L -16.312179 -29.121061 
L -16.499765 -28.902095 
z
" clip-path="url(#p95c0fc94be)" style="fill: #eeeeee; stroke: #000000; stroke-width: 0.3"/>
    <path d="M -38.824182 49.383435 
L -37.999765 48.451477 
L -37.099214 49.696501 
L -36.542976 49.842179 
L -36.859501 50.756943 
L -36.542976 50.604939 
L -36.425346 51.291693 
L -37.279257 51.558611 
L -38.287488 50.225819 
L -38.304976 49.470298 
z
" clip-path="url(#p95c0fc94be)" style="fill: #eeeeee; stroke: #000000; stroke-width: 0.3"/>
    <path d="M -75.118419 -79.163232 
L -75.036457 -79.940017 
L -74.515882 -80.749824 
L -73.273424 -81.166946 
L -72.635223 -80.901834 
L -72.746675 -80.439477 
L -73.676374 -80.48743 
L -73.855043 -79.671286 
L -74.455866 -79.338313 
L -74.978843 -79.683956 
z
" clip-path="url(#p95c0fc94be)" style="fill: #eeeeee; stroke: #000000; stroke-width: 0.3"/>
    <path d="M -41.653743 69.120173 
L -41.261765 69.255895 
L -41.308406 68.779056 
L -40.733988 68.187309 
L -40.73639 69.560817 
L -41.108473 69.040099 
L -41.310121 69.520557 
z
" clip-path="url(#p95c0fc94be)" style="fill: #eeeeee; stroke: #000000; stroke-width: 0.3"/>
    <path d="M -113.584809 -106.84244 
L -113.353326 -107.431019 
L -112.873559 -107.40116 
L -113.035426 -108.443508 
L -112.201065 -109.399448 
L -111.766905 -107.263176 
L -111.007649 -106.689073 
z
" clip-path="url(#p95c0fc94be)" style="fill: #eeeeee; stroke: #000000; stroke-width: 0.3"/>
    <path d="M -37.80909 52.376568 
L -36.43975 51.746812 
L -35.761082 52.433566 
L -36.367733 52.854307 
L -36.423631 52.477906 
z
" clip-path="url(#p95c0fc94be)" style="fill: #eeeeee; stroke: #000000; stroke-width: 0.3"/>
    <path d="M -40.787485 67.582441 
L -40.499762 67.14813 
L -40.173287 68.060181 
L -40.496336 68.165594 
L -40.382478 67.822671 
z
" clip-path="url(#p95c0fc94be)" style="fill: #eeeeee; stroke: #000000; stroke-width: 0.3"/>
    <path d="M -45.820752 -70.884626 
L -44.957925 -70.928961 
L -44.921229 -69.586668 
L -45.289545 -69.659954 
L -45.391397 -70.161677 
z
" clip-path="url(#p95c0fc94be)" style="fill: #eeeeee; stroke: #000000; stroke-width: 0.3"/>
    <path d="M -55.345098 49.60195 
L -54.892423 47.713145 
L -54.198665 48.196316 
L -54.184948 50.225819 
L -55.068348 50.755587 
z
" clip-path="url(#p95c0fc94be)" style="fill: #eeeeee; stroke: #000000; stroke-width: 0.3"/>
    <path d="M -87.879047 -95.503747 
L -87.547773 -96.321247 
L -87.161969 -96.119927 
L -87.37596 -95.333641 
L -87.624931 -95.797355 
z
" clip-path="url(#p95c0fc94be)" style="fill: #eeeeee; stroke: #000000; stroke-width: 0.3"/>
    <path d="M -137.005247 -86.918858 
L -136.542281 -87.567609 
L -136.199005 -86.728845 
L -136.700032 -86.477308 
L -136.483984 -86.846472 
z
" clip-path="url(#p95c0fc94be)" style="fill: #eeeeee; stroke: #000000; stroke-width: 0.3"/>
    <path d="M -15.056005 -19.473917 
L -14.903741 -20.03038 
L -14.420203 -19.906872 
L -15.033372 -18.17777 
z
" clip-path="url(#p95c0fc94be)" style="fill: #eeeeee; stroke: #000000; stroke-width: 0.3"/>
    <path d="M -25.246925 -41.742408 
L -24.153398 -41.734186 
L -23.906829 -40.292361 
L -24.259709 -40.12633 
z
" clip-path="url(#p95c0fc94be)" style="fill: #eeeeee; stroke: #000000; stroke-width: 0.3"/>
    <path d="M -29.925349 -49.220174 
L -29.726785 -49.777994 
L -29.677406 -49.121098 
L -29.844756 -48.750123 
z
" clip-path="url(#p95c0fc94be)" style="fill: #eeeeee; stroke: #000000; stroke-width: 0.3"/>
    <path d="M -33.422945 -58.345694 
L -33.192494 -58.804433 
L -33.104017 -58.462865 
L -33.365331 -58.193684 
z
" clip-path="url(#p95c0fc94be)" style="fill: #eeeeee; stroke: #000000; stroke-width: 0.3"/>
    <path d="M -33.896538 -59.532358 
L -33.652713 -60.287429 
L -33.571779 -59.854924 
L -33.304978 -59.377184 
z
" clip-path="url(#p95c0fc94be)" style="fill: #eeeeee; stroke: #000000; stroke-width: 0.3"/>
    <path d="M -34.086867 -60.364335 
L -33.741876 -60.898178 
L -33.672261 -60.813122 
L -33.76794 -60.329951 
z
" clip-path="url(#p95c0fc94be)" style="fill: #eeeeee; stroke: #000000; stroke-width: 0.3"/>
    <path d="M -49.9689 41.885234 
L -49.267941 41.446397 
L -48.923632 41.985216 
L -48.959295 42.110075 
z
" clip-path="url(#p95c0fc94be)" style="fill: #eeeeee; stroke: #000000; stroke-width: 0.3"/>
    <path d="M -51.674315 52.775139 
L -51.32624 52.395569 
L -51.327609 52.845713 
L -51.530285 53.347885 
z
" clip-path="url(#p95c0fc94be)" style="fill: #eeeeee; stroke: #000000; stroke-width: 0.3"/>
    <path d="M -60.553259 -120.059532 
L -60.400653 -120.201586 
L -59.90717 -120.224656 
L -60.078637 -119.89757 
z
" clip-path="url(#p95c0fc94be)" style="fill: #eeeeee; stroke: #000000; stroke-width: 0.3"/>
    <path d="M -62.613618 -112.916918 
L -62.27274 -113.433116 
L -62.010735 -113.015087 
L -62.298804 -112.442791 
z
" clip-path="url(#p95c0fc94be)" style="fill: #eeeeee; stroke: #000000; stroke-width: 0.3"/>
    <path d="M -62.678088 -116.062055 
L -62.28577 -116.271069 
L -62.28577 -115.922263 
L -62.484674 -115.689272 
z
" clip-path="url(#p95c0fc94be)" style="fill: #eeeeee; stroke: #000000; stroke-width: 0.3"/>
    <path d="M -84.431939 -84.915388 
L -84.178969 -85.630011 
L -83.806296 -85.299684 
L -83.849696 -84.216949 
z
" clip-path="url(#p95c0fc94be)" style="fill: #eeeeee; stroke: #000000; stroke-width: 0.3"/>
    <path d="M -86.181517 -106.766435 
L -86.141736 -106.845153 
L -85.820407 -107.014808 
L -85.920198 -106.725263 
z
" clip-path="url(#p95c0fc94be)" style="fill: #eeeeee; stroke: #000000; stroke-width: 0.3"/>
    <path d="M -86.269993 -85.435867 
L -86.158883 -85.955229 
L -85.776168 -85.928989 
L -85.893452 -85.394246 
z
" clip-path="url(#p95c0fc94be)" style="fill: #eeeeee; stroke: #000000; stroke-width: 0.3"/>
    <path d="M -86.356494 -108.671957 
L -85.1527 -110.939348 
L -85.351613 -110.015629 
L -86.115155 -108.698446 
z
" clip-path="url(#p95c0fc94be)" style="fill: #eeeeee; stroke: #000000; stroke-width: 0.3"/>
    <path d="M -87.826579 -105.282988 
L -87.826579 -105.510098 
L -87.147911 -105.738113 
L -87.236043 -105.386139 
z
" clip-path="url(#p95c0fc94be)" style="fill: #eeeeee; stroke: #000000; stroke-width: 0.3"/>
    <path d="M -92.390707 -105.928121 
L -92.35777 -106.050784 
L -92.070907 -105.993752 
L -92.341719 -105.863173 
z
" clip-path="url(#p95c0fc94be)" style="fill: #eeeeee; stroke: #000000; stroke-width: 0.3"/>
    <path d="M -98.629049 7.366527 
L -98.571436 7.024503 
L -98.166083 6.911402 
L -98.398594 7.024503 
z
" clip-path="url(#p95c0fc94be)" style="fill: #eeeeee; stroke: #000000; stroke-width: 0.3"/>
    <path d="M -103.082749 -107.550908 
L -102.929457 -107.65089 
L -102.614988 -107.567196 
L -102.766565 -107.158674 
z
" clip-path="url(#p95c0fc94be)" style="fill: #eeeeee; stroke: #000000; stroke-width: 0.3"/>
    <path d="M -134.318347 -91.432527 
L -133.902708 -91.870914 
L -133.861213 -91.187773 
L -134.145506 -90.884208 
z
" clip-path="url(#p95c0fc94be)" style="fill: #eeeeee; stroke: #000000; stroke-width: 0.3"/>
    <path d="M -174.083434 6.873399 
L -174.083434 6.413754 
L -174.005589 6.784274 
L -173.997013 6.911402 
z
" clip-path="url(#p95c0fc94be)" style="fill: #eeeeee; stroke: #000000; stroke-width: 0.3"/>
    <path d="M -185.487068 -29.036005 
L -185.463406 -30.651104 
L -184.805653 -27.978281 
L -184.420195 -26.997457 
z
" clip-path="url(#p95c0fc94be)" style="fill: #eeeeee; stroke: #000000; stroke-width: 0.3"/>
    <path d="M 8.841111 2.917549 
L 8.999549 3.17723 
L 8.92856 3.296213 
z
" clip-path="url(#p95c0fc94be)" style="fill: #eeeeee; stroke: #000000; stroke-width: 0.3"/>
    <path d="M 7.869234 132.054608 
L 7.929591 131.291849 
L 8.392553 130.491993 
z
" clip-path="url(#p95c0fc94be)" style="fill: #eeeeee; stroke: #000000; stroke-width: 0.3"/>
    <path d="M -15.213756 -21.848156 
L -14.831041 -22.120506 
L -14.924318 -20.24482 
z
" clip-path="url(#p95c0fc94be)" style="fill: #eeeeee; stroke: #000000; stroke-width: 0.3"/>
    <path d="M -16.928434 -31.785289 
L -16.706213 -31.511583 
L -16.758681 -31.451866 
z
" clip-path="url(#p95c0fc94be)" style="fill: #eeeeee; stroke: #000000; stroke-width: 0.3"/>
    <path d="M -23.77617 -39.988346 
L -23.756621 -40.281504 
L -23.546748 -39.562179 
z
" clip-path="url(#p95c0fc94be)" style="fill: #eeeeee; stroke: #000000; stroke-width: 0.3"/>
    <path d="M -27.359163 -48.808939 
L -27.032688 -48.308123 
L -27.342698 -48.093227 
z
" clip-path="url(#p95c0fc94be)" style="fill: #eeeeee; stroke: #000000; stroke-width: 0.3"/>
    <path d="M -27.937693 -51.451453 
L -27.820409 -51.530171 
L -27.930491 -51.279991 
z
" clip-path="url(#p95c0fc94be)" style="fill: #eeeeee; stroke: #000000; stroke-width: 0.3"/>
    <path d="M -28.3379 -51.796184 
L -28.3379 -52.103374 
L -28.088242 -51.902503 
z
" clip-path="url(#p95c0fc94be)" style="fill: #eeeeee; stroke: #000000; stroke-width: 0.3"/>
    <path d="M -30.595786 -47.869742 
L -30.359845 -47.983745 
L -30.534742 -47.565722 
z
" clip-path="url(#p95c0fc94be)" style="fill: #eeeeee; stroke: #000000; stroke-width: 0.3"/>
    <path d="M -35.904771 -60.898178 
L -35.776168 -61.104023 
L -35.821439 -60.8647 
z
" clip-path="url(#p95c0fc94be)" style="fill: #eeeeee; stroke: #000000; stroke-width: 0.3"/>
    <path d="M -36.830694 62.837137 
L -36.683575 62.820849 
L -36.367733 63.141152 
z
" clip-path="url(#p95c0fc94be)" style="fill: #eeeeee; stroke: #000000; stroke-width: 0.3"/>
    <path d="M -37.25045 52.910405 
L -36.744619 52.775139 
L -36.984674 53.369149 
z
" clip-path="url(#p95c0fc94be)" style="fill: #eeeeee; stroke: #000000; stroke-width: 0.3"/>
    <path d="M -37.75422 65.348905 
L -37.699354 64.582977 
L -37.061149 64.776153 
z
" clip-path="url(#p95c0fc94be)" style="fill: #eeeeee; stroke: #000000; stroke-width: 0.3"/>
    <path d="M -42.942836 -65.954735 
L -42.721298 -66.119865 
L -42.77514 -65.715412 
z
" clip-path="url(#p95c0fc94be)" style="fill: #eeeeee; stroke: #000000; stroke-width: 0.3"/>
    <path d="M -43.828297 -68.018171 
L -43.781315 -68.455196 
L -43.558749 -68.153437 
z
" clip-path="url(#p95c0fc94be)" style="fill: #eeeeee; stroke: #000000; stroke-width: 0.3"/>
    <path d="M -44.244618 43.089993 
L -43.692834 43.08773 
L -43.959984 43.366868 
z
" clip-path="url(#p95c0fc94be)" style="fill: #eeeeee; stroke: #000000; stroke-width: 0.3"/>
    <path d="M -49.24942 41.174047 
L -49.18975 40.584556 
L -48.361562 40.965939 
z
" clip-path="url(#p95c0fc94be)" style="fill: #eeeeee; stroke: #000000; stroke-width: 0.3"/>
    <path d="M -50.980903 54.034639 
L -50.73776 53.475013 
L -50.170203 53.996637 
z
" clip-path="url(#p95c0fc94be)" style="fill: #eeeeee; stroke: #000000; stroke-width: 0.3"/>
    <path d="M -51.156142 52.433566 
L -50.611559 52.266179 
L -50.65477 52.574719 
z
" clip-path="url(#p95c0fc94be)" style="fill: #eeeeee; stroke: #000000; stroke-width: 0.3"/>
    <path d="M -61.930488 -113.158953 
L -61.846815 -113.534904 
L -61.716497 -113.316845 
z
" clip-path="url(#p95c0fc94be)" style="fill: #eeeeee; stroke: #000000; stroke-width: 0.3"/>
    <path d="M -62.183576 -115.869329 
L -61.678432 -115.606935 
L -62.154769 -115.375301 
z
" clip-path="url(#p95c0fc94be)" style="fill: #eeeeee; stroke: #000000; stroke-width: 0.3"/>
    <path d="M -62.451064 -120.771619 
L -61.906485 -120.82591 
L -61.910598 -120.684757 
z
" clip-path="url(#p95c0fc94be)" style="fill: #eeeeee; stroke: #000000; stroke-width: 0.3"/>
    <path d="M -73.937692 -77.012939 
L -73.647567 -77.889706 
L -73.329664 -77.249093 
z
" clip-path="url(#p95c0fc94be)" style="fill: #eeeeee; stroke: #000000; stroke-width: 0.3"/>
    <path d="M -75.275137 -78.571485 
L -75.167116 -78.846998 
L -75.062862 -78.765567 
z
" clip-path="url(#p95c0fc94be)" style="fill: #eeeeee; stroke: #000000; stroke-width: 0.3"/>
    <path d="M -82.74016 19.563886 
L -82.581723 19.468885 
L -82.661628 19.690107 
z
" clip-path="url(#p95c0fc94be)" style="fill: #eeeeee; stroke: #000000; stroke-width: 0.3"/>
    <path d="M -84.824177 -85.849365 
L -84.648597 -86.156099 
L -84.79537 -85.394246 
z
" clip-path="url(#p95c0fc94be)" style="fill: #eeeeee; stroke: #000000; stroke-width: 0.3"/>
    <path d="M -84.95621 -95.550344 
L -84.923286 -95.588797 
L -84.950378 -95.547175 
z
" clip-path="url(#p95c0fc94be)" style="fill: #eeeeee; stroke: #000000; stroke-width: 0.3"/>
    <path d="M -85.01202 -105.000554 
L -84.875963 -104.867678 
L -84.911285 -104.836013 
z
" clip-path="url(#p95c0fc94be)" style="fill: #eeeeee; stroke: #000000; stroke-width: 0.3"/>
    <path d="M -85.287143 -84.78711 
L -85.287143 -85.31824 
L -84.852297 -85.131846 
z
" clip-path="url(#p95c0fc94be)" style="fill: #eeeeee; stroke: #000000; stroke-width: 0.3"/>
    <path d="M -85.776168 -84.955859 
L -85.370816 -85.01422 
L -85.574521 -84.597103 
z
" clip-path="url(#p95c0fc94be)" style="fill: #eeeeee; stroke: #000000; stroke-width: 0.3"/>
    <path d="M -86.357442 -106.635688 
L -86.269993 -106.725263 
L -86.334468 -106.217665 
z
" clip-path="url(#p95c0fc94be)" style="fill: #eeeeee; stroke: #000000; stroke-width: 0.3"/>
    <path d="M -86.485017 23.199888 
L -86.363616 23.062809 
L -86.269993 23.21482 
z
" clip-path="url(#p95c0fc94be)" style="fill: #eeeeee; stroke: #000000; stroke-width: 0.3"/>
    <path d="M -87.624931 -107.336018 
L -86.356414 -108.598687 
L -86.787826 -107.870761 
z
" clip-path="url(#p95c0fc94be)" style="fill: #eeeeee; stroke: #000000; stroke-width: 0.3"/>
    <path d="M -87.970613 -98.039942 
L -87.514849 -97.47986 
L -87.768447 -96.928088 
z
" clip-path="url(#p95c0fc94be)" style="fill: #eeeeee; stroke: #000000; stroke-width: 0.3"/>
    <path d="M -88.007991 21.970246 
L -87.835837 21.971602 
L -87.522396 22.677358 
z
" clip-path="url(#p95c0fc94be)" style="fill: #eeeeee; stroke: #000000; stroke-width: 0.3"/>
    <path d="M -88.451497 -107.485438 
L -88.138229 -107.548368 
L -88.345389 -107.222432 
z
" clip-path="url(#p95c0fc94be)" style="fill: #eeeeee; stroke: #000000; stroke-width: 0.3"/>
    <path d="M -89.688805 -89.465204 
L -89.517788 -89.845258 
L -89.370931 -89.476267 
z
" clip-path="url(#p95c0fc94be)" style="fill: #eeeeee; stroke: #000000; stroke-width: 0.3"/>
    <path d="M -92.970552 -105.477143 
L -92.769233 -105.511365 
L -92.800909 -105.299004 
z
" clip-path="url(#p95c0fc94be)" style="fill: #eeeeee; stroke: #000000; stroke-width: 0.3"/>
    <path d="M -93.199005 -105.392927 
L -92.895509 -105.224178 
L -92.972667 -104.947758 
z
" clip-path="url(#p95c0fc94be)" style="fill: #eeeeee; stroke: #000000; stroke-width: 0.3"/>
    <path d="M -94.78028 15.496291 
L -94.749417 15.096363 
L -94.478499 15.218515 
z
" clip-path="url(#p95c0fc94be)" style="fill: #eeeeee; stroke: #000000; stroke-width: 0.3"/>
    <path d="M -99.348184 -108.13678 
L -99.348184 -108.443508 
L -98.8595 -108.36479 
z
" clip-path="url(#p95c0fc94be)" style="fill: #eeeeee; stroke: #000000; stroke-width: 0.3"/>
    <path d="M -99.497705 -107.730064 
L -98.971638 -107.81557 
L -99.494961 -107.491191 
z
" clip-path="url(#p95c0fc94be)" style="fill: #eeeeee; stroke: #000000; stroke-width: 0.3"/>
    <path d="M -103.254217 -110.995541 
L -102.701409 -111.338014 
L -102.701409 -109.244269 
z
" clip-path="url(#p95c0fc94be)" style="fill: #eeeeee; stroke: #000000; stroke-width: 0.3"/>
    <path d="M -103.794687 -105.054978 
L -103.491186 -105.137766 
L -103.516909 -104.863609 
z
" clip-path="url(#p95c0fc94be)" style="fill: #eeeeee; stroke: #000000; stroke-width: 0.3"/>
    <path d="M -115.41197 -90.016041 
L -115.271021 -89.898865 
L -115.290569 -89.662711 
z
" clip-path="url(#p95c0fc94be)" style="fill: #eeeeee; stroke: #000000; stroke-width: 0.3"/>
    <path d="M -115.753531 -90.045444 
L -115.394823 -89.573135 
L -115.376303 -89.127511 
z
" clip-path="url(#p95c0fc94be)" style="fill: #eeeeee; stroke: #000000; stroke-width: 0.3"/>
    <path d="M -120.592011 -89.652304 
L -120.460665 -89.527439 
L -120.225756 -88.709938 
z
" clip-path="url(#p95c0fc94be)" style="fill: #eeeeee; stroke: #000000; stroke-width: 0.3"/>
    <path d="M -121.529253 -88.716726 
L -121.263135 -88.21998 
L -121.295714 -87.868011 
z
" clip-path="url(#p95c0fc94be)" style="fill: #eeeeee; stroke: #000000; stroke-width: 0.3"/>
    <path d="M -128.339953 -95.013338 
L -128.17637 -95.178012 
L -127.936661 -95.034596 
z
" clip-path="url(#p95c0fc94be)" style="fill: #eeeeee; stroke: #000000; stroke-width: 0.3"/>
    <path d="M -135.298799 -89.077745 
L -135.042627 -89.279521 
L -135.032336 -88.762873 
z
" clip-path="url(#p95c0fc94be)" style="fill: #eeeeee; stroke: #000000; stroke-width: 0.3"/>
    <path d="M -137.522051 -87.257256 
L -137.219579 -87.412886 
L -137.119787 -87.209303 
z
" clip-path="url(#p95c0fc94be)" style="fill: #eeeeee; stroke: #000000; stroke-width: 0.3"/>
    <path d="M -175.00993 5.702173 
L -174.653996 5.546366 
L -174.537753 5.615277 
z
" clip-path="url(#p95c0fc94be)" style="fill: #eeeeee; stroke: #000000; stroke-width: 0.3"/>
    <path d="M -175.571087 -56.289952 
L -175.057026 -57.409661 
L -175.145162 -56.383602 
z
" clip-path="url(#p95c0fc94be)" style="fill: #eeeeee; stroke: #000000; stroke-width: 0.3"/>
    <path d="M -182.407778 -13.952645 
L -182.257697 -14.275928 
L -182.134117 -14.278974 
z
" clip-path="url(#p95c0fc94be)" style="fill: #eeeeee; stroke: #000000; stroke-width: 0.3"/>
    <path d="M -184.79674 -33.360123 
L -184.652706 -34.69201 
L -184.724036 -33.933776 
z
" clip-path="url(#p95c0fc94be)" style="fill: #eeeeee; stroke: #000000; stroke-width: 0.3"/>
    <path d="M -185.00044 -31.796602 
L -184.959291 -32.986429 
L -184.79674 -33.280949 
z
" clip-path="url(#p95c0fc94be)" style="fill: #eeeeee; stroke: #000000; stroke-width: 0.3"/>
    <path d="M 66.173414 19.367091 
L 66.29447 18.988427 
L 67.88089 18.987971 
L 67.707366 19.601438 
L 67.420672 19.292898 
L 67.156952 19.709108 
L 67.533497 19.822216 
L 67.578422 20.318957 
L 67.697763 19.769731 
L 68.341795 21.344565 
L 68.065387 21.200249 
L 68.803388 21.7549 
L 68.670327 22.301407 
L 69.099682 22.07611 
L 69.418268 21.12605 
L 69.667239 21.534578 
L 69.249544 21.721422 
L 69.479999 22.153921 
L 70.018062 22.341222 
L 70.025609 21.855332 
L 70.852424 22.30005 
L 70.750576 22.797247 
L 71.300987 22.262048 
L 71.718682 22.918493 
L 72.299956 23.017118 
L 72.414155 23.271824 
L 72.005718 23.100812 
L 71.823964 23.464549 
L 72.154893 23.480382 
L 72.397695 24.313715 
L 72.821218 24.051322 
L 72.454276 23.87126 
L 72.414155 23.784397 
L 73.248517 23.366825 
L 73.194333 23.991605 
L 73.540698 24.335885 
L 73.162096 24.087512 
L 74.160724 25.562364 
L 73.769092 25.834258 
L 74.317787 26.947635 
L 73.385349 26.647233 
L 73.277323 26.223779 
L 73.247143 26.939041 
L 73.883633 26.872536 
L 73.854826 27.748397 
L 75.471422 29.770656 
L 74.924442 29.787851 
L 75.042754 30.526177 
L 74.780753 30.105441 
L 74.807158 31.11793 
L 75.371972 31.213837 
L 74.80956 31.326939 
L 75.212506 32.396432 
L 74.725883 32.034051 
L 74.378144 32.244422 
L 74.637406 32.282424 
L 74.627115 32.861958 
L 75.45085 32.548442 
L 75.517376 33.142002 
L 75.701877 32.472437 
L 75.819502 33.007181 
L 76.08905 32.679639 
L 76.368543 33.212576 
L 76.990284 33.05604 
L 77.522178 34.52863 
L 78.346254 34.377075 
L 78.543439 34.775191 
L 77.81299 32.624447 
L 78.238228 32.187418 
L 78.071561 31.326939 
L 77.467653 30.546991 
L 78.217651 30.640185 
L 78.62163 32.063915 
L 79.564017 31.811016 
L 78.981711 32.682808 
L 79.5599 32.492795 
L 80.08528 35.989 
L 80.901467 36.850841 
L 79.949134 36.278089 
L 80.177187 36.888838 
L 81.091109 37.376534 
L 81.102423 36.813739 
L 84.954964 39.056325 
L 86.749202 38.456884 
L 87.516005 37.135855 
L 88.583219 36.395716 
L 89.786925 36.485747 
L 90.936788 37.160287 
L 90.084593 39.006109 
L 89.881575 41.891566 
L 88.95325 42.877815 
L 88.33185 42.840719 
L 88.123001 44.970654 
L 88.612026 45.216759 
L 88.245771 45.917995 
L 87.947416 45.767791 
L 87.99337 44.991462 
L 86.144262 44.823169 
L 84.676499 45.603567 
L 84.139464 46.433737 
L 84.207735 47.872371 
L 84.903865 48.20446 
L 83.820532 50.836568 
L 83.061959 51.580781 
L 82.836995 52.623129 
L 81.978967 53.411671 
L 80.048926 56.9866 
L 76.975539 59.061794 
L 76.740972 57.936654 
L 75.408326 57.945704 
L 75.509833 56.861735 
L 75.070533 57.00017 
L 75.174441 57.468865 
L 74.328765 57.23633 
L 75.410037 56.192626 
L 75.308872 55.856484 
L 76.570191 53.803461 
L 76.981026 51.701571 
L 76.749202 50.801734 
L 75.836995 49.589731 
L 74.152839 49.091178 
L 73.105169 47.907683 
L 71.133978 47.074344 
L 70.746459 46.170437 
L 71.140147 45.242548 
L 73.509835 44.289776 
L 74.263949 43.486752 
L 74.751947 39.518232 
L 75.328762 39.790582 
L 75.733086 39.477067 
L 75.098311 39.406943 
L 75.502973 38.751854 
L 75.081852 38.854099 
L 75.097625 38.224349 
L 75.878144 37.545739 
L 75.344194 37.628982 
L 74.785553 35.666434 
L 75.291725 35.038946 
L 74.737543 35.31039 
L 74.1134 33.725605 
L 74.572932 33.763158 
L 74.879175 34.735381 
L 75.152495 34.30107 
L 74.780753 34.225065 
L 75.757434 33.942308 
L 75.072248 33.423847 
L 75.27012 33.058759 
L 73.869229 33.5555 
L 72.529037 30.337071 
L 72.844538 30.302237 
L 73.578763 31.517858 
L 73.724512 29.892358 
L 73.156609 29.999578 
L 72.902839 29.694651 
L 73.972796 29.159907 
L 73.248517 29.463472 
L 73.046869 29.387467 
L 73.65901 28.725146 
L 73.420671 28.507987 
L 73.385349 28.866749 
L 73.162096 29.083902 
L 72.960452 28.473153 
L 72.529037 28.624708 
L 73.104482 29.159907 
L 72.858941 29.308749 
L 72.077735 28.751835 
L 71.341795 27.593218 
L 71.536583 27.352989 
L 71.373004 27.096477 
L 71.25572 27.593218 
L 72.615457 29.749848 
L 72.097284 30.038481 
L 69.262919 25.43388 
L 69.476227 24.692835 
L 69.828766 24.774266 
L 70.331849 23.997937 
L 69.928903 23.784397 
L 69.933702 24.262593 
L 69.261891 24.433154 
L 69.105855 25.129859 
L 68.693647 24.434055 
L 68.888434 23.93912 
L 68.597627 24.319146 
L 68.396666 24.053128 
L 68.629177 23.8224 
L 67.938504 23.407996 
L 68.382949 22.864652 
L 68.207365 21.952601 
z
" clip-path="url(#p95c0fc94be)" style="fill: #eeeeee; stroke: #000000; stroke-width: 0.3"/>
    <path d="M 40.049616 83.387301 
L 40.112717 82.339528 
L 41.7979 82.166704 
L 42.350713 81.728773 
L 41.311618 81.8464 
L 41.803387 81.462761 
L 41.326022 81.500763 
L 41.344197 81.153314 
L 42.228971 81.049257 
L 42.494402 80.583281 
L 41.060245 81.050164 
L 41.283498 80.127255 
L 42.062649 80.27926 
L 41.527666 79.61332 
L 41.803387 79.423307 
L 42.463197 79.862143 
L 42.309559 80.2209 
L 42.672388 79.974339 
L 43.129863 80.510895 
L 42.463197 79.668511 
L 43.564364 79.592506 
L 42.463197 79.349564 
L 42.313676 78.589068 
L 42.982399 78.87725 
L 42.494402 78.415793 
L 42.762234 78.068344 
L 43.072591 78.605806 
L 43.420329 78.375078 
L 42.901469 77.892357 
L 43.67753 78.057037 
L 43.101398 77.650321 
L 43.888436 76.973968 
L 44.429589 77.809114 
L 44.191591 76.679004 
L 44.602426 76.659546 
L 44.656955 77.194296 
L 44.575679 76.374077 
L 45.125749 76.545995 
L 44.769093 76.169588 
L 45.431646 75.644345 
L 46.192963 76.165969 
L 45.787611 75.1001 
L 48.039669 72.508708 
L 49.863746 72.275717 
L 52.45908 70.348459 
L 53.715595 69.920935 
L 55.347282 68.166501 
L 55.911068 68.0543 
L 56.124031 67.325924 
L 58.522179 65.861028 
L 60.068731 63.678114 
L 61.091454 59.873413 
L 62.722796 59.31288 
L 63.631231 57.916296 
L 63.921356 57.233612 
L 63.782809 54.984693 
L 65.469711 53.331147 
L 65.830134 53.412578 
L 65.843851 52.988223 
L 66.870944 52.845713 
L 67.533497 52.968315 
L 66.46045 52.95022 
L 66.115801 53.655069 
L 66.941933 54.744469 
L 67.619918 54.486596 
L 67.792413 55.408147 
L 67.533497 55.708093 
L 67.984457 57.324549 
L 70.027325 55.926608 
L 70.389462 56.20484 
L 70.697075 55.820294 
L 70.527323 55.581422 
L 71.727253 55.057535 
L 71.907637 55.243923 
L 71.415182 55.623949 
L 70.835964 55.676878 
L 70.828076 56.212078 
L 71.039669 55.939728 
L 71.465594 55.881818 
L 71.574306 55.939728 
L 70.809559 57.19199 
L 72.325332 56.588479 
L 71.323961 56.67896 
L 71.545499 56.052829 
L 71.661068 56.43285 
L 71.953249 56.129741 
L 71.545499 55.67371 
L 71.75469 55.440268 
L 72.532467 55.463795 
L 72.633978 56.005782 
L 73.136378 55.665571 
L 72.845225 56.318848 
L 72.465936 56.257769 
L 72.673071 56.663578 
L 71.487886 57.167563 
L 73.133289 56.815589 
L 71.974168 58.042518 
L 72.992002 59.672543 
L 72.667584 60.376036 
L 70.511891 63.27733 
L 70.594195 63.600347 
L 69.900778 63.903005 
L 68.757434 66.475396 
L 67.188847 67.303304 
L 66.487824 68.286707 
L 66.483771 69.884745 
L 66.84008 70.076565 
L 66.204278 70.286029 
L 67.820533 70.334889 
L 67.938504 71.480387 
L 67.533497 71.673563 
L 67.330134 70.907635 
L 67.40181 71.765401 
L 66.776639 71.631941 
L 66.549956 71.138819 
L 65.113743 71.482644 
L 66.062304 71.082716 
L 65.091451 70.83163 
L 64.918614 71.537391 
L 60.576892 73.839983 
L 59.851399 75.331729 
L 59.974856 77.325042 
L 58.8075 79.175389 
L 58.554071 80.529896 
L 57.545844 81.776732 
L 58.104484 82.168516 
L 57.251261 82.83265 
L 58.17753 82.187517 
L 58.18576 82.720905 
L 56.311275 83.306776 
L 55.819161 84.370837 
L 54.481029 85.326773 
L 54.268408 86.008551 
L 53.469368 86.145179 
L 53.874716 86.186801 
L 53.657982 86.461414 
L 50.842483 87.200196 
L 50.223827 87.05633 
L 50.037269 86.523393 
L 49.080478 86.452819 
L 48.969368 86.824695 
L 48.018064 86.412554 
L 48.070191 86.85501 
L 47.605514 86.335192 
L 48.099685 86.186801 
L 48.031439 85.727156 
L 47.749203 86.069174 
L 47.198105 85.281082 
L 45.796873 85.595504 
L 45.267035 84.509728 
L 44.749203 84.296645 
L 44.171014 84.24416 
L 43.972796 84.805599 
L 43.50675 84.930464 
L 41.259837 84.63233 
L 40.877464 84.263162 
L 42.062649 83.098212 
L 40.644952 83.898974 
L 41.456335 83.022663 
L 40.961823 83.076948 
L 41.183703 82.636305 
z
" clip-path="url(#p95c0fc94be)" style="fill: #eeeeee; stroke: #000000; stroke-width: 0.3"/>
    <path d="M 44.458396 90.486486 
L 45.693993 88.475079 
L 45.581167 87.285246 
L 46.340082 87.299722 
L 47.232057 88.214948 
L 46.511208 88.385503 
L 46.33631 88.816196 
L 47.447076 88.810764 
L 47.569505 89.439614 
L 46.063332 90.015979 
L 45.486171 89.732772 
L 44.861687 90.148082 
L 45.324649 90.109629 
L 45.094198 90.416813 
z
" clip-path="url(#p95c0fc94be)" style="fill: #eeeeee; stroke: #000000; stroke-width: 0.3"/>
    <path d="M 40.181991 81.879878 
L 40.43679 81.392187 
L 41.04687 81.276367 
L 41.164154 81.897072 
L 40.7883 81.959502 
L 40.674442 81.509808 
z
" clip-path="url(#p95c0fc94be)" style="fill: #eeeeee; stroke: #000000; stroke-width: 0.3"/>
    <path d="M 70.852424 55.097344 
L 71.054072 54.265818 
L 71.286583 54.53138 
L 71.612712 53.994374 
L 71.430613 54.872953 
z
" clip-path="url(#p95c0fc94be)" style="fill: #eeeeee; stroke: #000000; stroke-width: 0.3"/>
    <path d="M 79.227939 31.022924 
L 79.342479 30.984921 
L 79.546871 31.292556 
L 79.335623 31.27401 
z
" clip-path="url(#p95c0fc94be)" style="fill: #eeeeee; stroke: #000000; stroke-width: 0.3"/>
    <path d="M 77.381233 29.061282 
L 77.557159 28.183614 
L 78.210795 28.797982 
L 78.177871 29.775181 
z
" clip-path="url(#p95c0fc94be)" style="fill: #eeeeee; stroke: #000000; stroke-width: 0.3"/>
    <path d="M 76.024235 32.279711 
L 76.052014 32.050795 
L 76.685414 31.937688 
L 76.744402 32.40367 
z
" clip-path="url(#p95c0fc94be)" style="fill: #eeeeee; stroke: #000000; stroke-width: 0.3"/>
    <path d="M 72.592137 56.8925 
L 73.240974 56.588935 
L 73.3658 56.20484 
L 73.3658 56.697962 
z
" clip-path="url(#p95c0fc94be)" style="fill: #eeeeee; stroke: #000000; stroke-width: 0.3"/>
    <path d="M 41.813332 79.203435 
L 42.151808 78.757817 
L 42.250576 79.146432 
L 42.407981 79.520576 
z
" clip-path="url(#p95c0fc94be)" style="fill: #eeeeee; stroke: #000000; stroke-width: 0.3"/>
    <path d="M 76.315388 28.96085 
L 76.627805 29.004734 
L 76.397691 29.083902 
z
" clip-path="url(#p95c0fc94be)" style="fill: #eeeeee; stroke: #000000; stroke-width: 0.3"/>
    <path d="M 75.323621 30.310831 
L 75.534523 30.049794 
L 75.578761 30.31445 
z
" clip-path="url(#p95c0fc94be)" style="fill: #eeeeee; stroke: #000000; stroke-width: 0.3"/>
    <path d="M 63.816166 17.513514 
L 63.918082 17.528201 
L 63.942919 17.638923 
z
" clip-path="url(#p95c0fc94be)" style="fill: #eeeeee; stroke: #000000; stroke-width: 0.3"/>
    <path d="M 48.761551 87.632695 
L 49.029384 87.604193 
L 48.850369 87.863424 
z
" clip-path="url(#p95c0fc94be)" style="fill: #eeeeee; stroke: #000000; stroke-width: 0.3"/>
    <path d="M 45.056129 87.737202 
L 45.184732 87.619125 
L 45.139465 87.829496 
z
" clip-path="url(#p95c0fc94be)" style="fill: #eeeeee; stroke: #000000; stroke-width: 0.3"/>
    <path d="M 44.061273 90.328139 
L 44.177187 90.121843 
L 44.315048 90.185634 
z
" clip-path="url(#p95c0fc94be)" style="fill: #eeeeee; stroke: #000000; stroke-width: 0.3"/>
   </g>
   <g id="PatchCollection_2">
    <path d="M 66.173414 19.367091 
L 66.29447 18.988427 
L 67.88089 18.987971 
L 67.707366 19.601438 
L 67.420672 19.292898 
L 67.156952 19.709108 
L 67.533497 19.822216 
L 67.578422 20.318957 
L 67.697763 19.769731 
L 68.341795 21.344565 
L 68.065387 21.200249 
L 68.803388 21.7549 
L 68.670327 22.301407 
L 69.099682 22.07611 
L 69.418268 21.12605 
L 69.667239 21.534578 
L 69.249544 21.721422 
L 69.479999 22.153921 
L 70.018062 22.341222 
L 70.025609 21.855332 
L 70.852424 22.30005 
L 70.750576 22.797247 
L 71.300987 22.262048 
L 71.718682 22.918493 
L 72.299956 23.017118 
L 72.414155 23.271824 
L 72.005718 23.100812 
L 71.823964 23.464549 
L 72.154893 23.480382 
L 72.397695 24.313715 
L 72.821218 24.051322 
L 72.454276 23.87126 
L 72.414155 23.784397 
L 73.248517 23.366825 
L 73.194333 23.991605 
L 73.540698 24.335885 
L 73.162096 24.087512 
L 74.160724 25.562364 
L 73.769092 25.834258 
L 74.317787 26.947635 
L 73.385349 26.647233 
L 73.277323 26.223779 
L 73.247143 26.939041 
L 73.883633 26.872536 
L 73.854826 27.748397 
L 75.471422 29.770656 
L 74.924442 29.787851 
L 75.042754 30.526177 
L 74.780753 30.105441 
L 74.807158 31.11793 
L 75.371972 31.213837 
L 74.80956 31.326939 
L 75.212506 32.396432 
L 74.725883 32.034051 
L 74.378144 32.244422 
L 74.637406 32.282424 
L 74.627115 32.861958 
L 75.45085 32.548442 
L 75.517376 33.142002 
L 75.701877 32.472437 
L 75.819502 33.007181 
L 76.08905 32.679639 
L 76.368543 33.212576 
L 76.990284 33.05604 
L 77.522178 34.52863 
L 78.346254 34.377075 
L 78.543439 34.775191 
L 77.81299 32.624447 
L 78.238228 32.187418 
L 78.071561 31.326939 
L 77.467653 30.546991 
L 78.217651 30.640185 
L 78.62163 32.063915 
L 79.564017 31.811016 
L 78.981711 32.682808 
L 79.5599 32.492795 
L 80.08528 35.989 
L 80.901467 36.850841 
L 79.949134 36.278089 
L 80.177187 36.888838 
L 81.091109 37.376534 
L 81.102423 36.813739 
L 84.954964 39.056325 
L 86.749202 38.456884 
L 87.516005 37.135855 
L 88.583219 36.395716 
L 89.786925 36.485747 
L 90.936788 37.160287 
L 90.084593 39.006109 
L 89.881575 41.891566 
L 88.95325 42.877815 
L 88.33185 42.840719 
L 88.123001 44.970654 
L 88.612026 45.216759 
L 88.245771 45.917995 
L 87.947416 45.767791 
L 87.99337 44.991462 
L 86.144262 44.823169 
L 84.676499 45.603567 
L 84.139464 46.433737 
L 84.207735 47.872371 
L 84.903865 48.20446 
L 83.820532 50.836568 
L 83.061959 51.580781 
L 82.836995 52.623129 
L 81.978967 53.411671 
L 80.048926 56.9866 
L 76.975539 59.061794 
L 76.740972 57.936654 
L 75.408326 57.945704 
L 75.509833 56.861735 
L 75.070533 57.00017 
L 75.174441 57.468865 
L 74.328765 57.23633 
L 75.410037 56.192626 
L 75.308872 55.856484 
L 76.570191 53.803461 
L 76.981026 51.701571 
L 76.749202 50.801734 
L 75.836995 49.589731 
L 74.152839 49.091178 
L 73.105169 47.907683 
L 71.133978 47.074344 
L 70.746459 46.170437 
L 71.140147 45.242548 
L 73.509835 44.289776 
L 74.263949 43.486752 
L 74.751947 39.518232 
L 75.328762 39.790582 
L 75.733086 39.477067 
L 75.098311 39.406943 
L 75.502973 38.751854 
L 75.081852 38.854099 
L 75.097625 38.224349 
L 75.878144 37.545739 
L 75.344194 37.628982 
L 74.785553 35.666434 
L 75.291725 35.038946 
L 74.737543 35.31039 
L 74.1134 33.725605 
L 74.572932 33.763158 
L 74.879175 34.735381 
L 75.152495 34.30107 
L 74.780753 34.225065 
L 75.757434 33.942308 
L 75.072248 33.423847 
L 75.27012 33.058759 
L 73.869229 33.5555 
L 72.529037 30.337071 
L 72.844538 30.302237 
L 73.578763 31.517858 
L 73.724512 29.892358 
L 73.156609 29.999578 
L 72.902839 29.694651 
L 73.972796 29.159907 
L 73.248517 29.463472 
L 73.046869 29.387467 
L 73.65901 28.725146 
L 73.420671 28.507987 
L 73.385349 28.866749 
L 73.162096 29.083902 
L 72.960452 28.473153 
L 72.529037 28.624708 
L 73.104482 29.159907 
L 72.858941 29.308749 
L 72.077735 28.751835 
L 71.341795 27.593218 
L 71.536583 27.352989 
L 71.373004 27.096477 
L 71.25572 27.593218 
L 72.615457 29.749848 
L 72.097284 30.038481 
L 69.262919 25.43388 
L 69.476227 24.692835 
L 69.828766 24.774266 
L 70.331849 23.997937 
L 69.928903 23.784397 
L 69.933702 24.262593 
L 69.261891 24.433154 
L 69.105855 25.129859 
L 68.693647 24.434055 
L 68.888434 23.93912 
L 68.597627 24.319146 
L 68.396666 24.053128 
L 68.629177 23.8224 
L 67.938504 23.407996 
L 68.382949 22.864652 
L 68.207365 21.952601 
z
" clip-path="url(#p95c0fc94be)" style="fill: #ff6b6b; stroke: #dd0000; stroke-width: 0.5"/>
    <path d="M 40.049616 83.387301 
L 40.112717 82.339528 
L 41.7979 82.166704 
L 42.350713 81.728773 
L 41.311618 81.8464 
L 41.803387 81.462761 
L 41.326022 81.500763 
L 41.344197 81.153314 
L 42.228971 81.049257 
L 42.494402 80.583281 
L 41.060245 81.050164 
L 41.283498 80.127255 
L 42.062649 80.27926 
L 41.527666 79.61332 
L 41.803387 79.423307 
L 42.463197 79.862143 
L 42.309559 80.2209 
L 42.672388 79.974339 
L 43.129863 80.510895 
L 42.463197 79.668511 
L 43.564364 79.592506 
L 42.463197 79.349564 
L 42.313676 78.589068 
L 42.982399 78.87725 
L 42.494402 78.415793 
L 42.762234 78.068344 
L 43.072591 78.605806 
L 43.420329 78.375078 
L 42.901469 77.892357 
L 43.67753 78.057037 
L 43.101398 77.650321 
L 43.888436 76.973968 
L 44.429589 77.809114 
L 44.191591 76.679004 
L 44.602426 76.659546 
L 44.656955 77.194296 
L 44.575679 76.374077 
L 45.125749 76.545995 
L 44.769093 76.169588 
L 45.431646 75.644345 
L 46.192963 76.165969 
L 45.787611 75.1001 
L 48.039669 72.508708 
L 49.863746 72.275717 
L 52.45908 70.348459 
L 53.715595 69.920935 
L 55.347282 68.166501 
L 55.911068 68.0543 
L 56.124031 67.325924 
L 58.522179 65.861028 
L 60.068731 63.678114 
L 61.091454 59.873413 
L 62.722796 59.31288 
L 63.631231 57.916296 
L 63.921356 57.233612 
L 63.782809 54.984693 
L 65.469711 53.331147 
L 65.830134 53.412578 
L 65.843851 52.988223 
L 66.870944 52.845713 
L 67.533497 52.968315 
L 66.46045 52.95022 
L 66.115801 53.655069 
L 66.941933 54.744469 
L 67.619918 54.486596 
L 67.792413 55.408147 
L 67.533497 55.708093 
L 67.984457 57.324549 
L 70.027325 55.926608 
L 70.389462 56.20484 
L 70.697075 55.820294 
L 70.527323 55.581422 
L 71.727253 55.057535 
L 71.907637 55.243923 
L 71.415182 55.623949 
L 70.835964 55.676878 
L 70.828076 56.212078 
L 71.039669 55.939728 
L 71.465594 55.881818 
L 71.574306 55.939728 
L 70.809559 57.19199 
L 72.325332 56.588479 
L 71.323961 56.67896 
L 71.545499 56.052829 
L 71.661068 56.43285 
L 71.953249 56.129741 
L 71.545499 55.67371 
L 71.75469 55.440268 
L 72.532467 55.463795 
L 72.633978 56.005782 
L 73.136378 55.665571 
L 72.845225 56.318848 
L 72.465936 56.257769 
L 72.673071 56.663578 
L 71.487886 57.167563 
L 73.133289 56.815589 
L 71.974168 58.042518 
L 72.992002 59.672543 
L 72.667584 60.376036 
L 70.511891 63.27733 
L 70.594195 63.600347 
L 69.900778 63.903005 
L 68.757434 66.475396 
L 67.188847 67.303304 
L 66.487824 68.286707 
L 66.483771 69.884745 
L 66.84008 70.076565 
L 66.204278 70.286029 
L 67.820533 70.334889 
L 67.938504 71.480387 
L 67.533497 71.673563 
L 67.330134 70.907635 
L 67.40181 71.765401 
L 66.776639 71.631941 
L 66.549956 71.138819 
L 65.113743 71.482644 
L 66.062304 71.082716 
L 65.091451 70.83163 
L 64.918614 71.537391 
L 60.576892 73.839983 
L 59.851399 75.331729 
L 59.974856 77.325042 
L 58.8075 79.175389 
L 58.554071 80.529896 
L 57.545844 81.776732 
L 58.104484 82.168516 
L 57.251261 82.83265 
L 58.17753 82.187517 
L 58.18576 82.720905 
L 56.311275 83.306776 
L 55.819161 84.370837 
L 54.481029 85.326773 
L 54.268408 86.008551 
L 53.469368 86.145179 
L 53.874716 86.186801 
L 53.657982 86.461414 
L 50.842483 87.200196 
L 50.223827 87.05633 
L 50.037269 86.523393 
L 49.080478 86.452819 
L 48.969368 86.824695 
L 48.018064 86.412554 
L 48.070191 86.85501 
L 47.605514 86.335192 
L 48.099685 86.186801 
L 48.031439 85.727156 
L 47.749203 86.069174 
L 47.198105 85.281082 
L 45.796873 85.595504 
L 45.267035 84.509728 
L 44.749203 84.296645 
L 44.171014 84.24416 
L 43.972796 84.805599 
L 43.50675 84.930464 
L 41.259837 84.63233 
L 40.877464 84.263162 
L 42.062649 83.098212 
L 40.644952 83.898974 
L 41.456335 83.022663 
L 40.961823 83.076948 
L 41.183703 82.636305 
z
" clip-path="url(#p95c0fc94be)" style="fill: #ff6b6b; stroke: #dd0000; stroke-width: 0.5"/>
    <path d="M 44.458396 90.486486 
L 45.693993 88.475079 
L 45.581167 87.285246 
L 46.340082 87.299722 
L 47.232057 88.214948 
L 46.511208 88.385503 
L 46.33631 88.816196 
L 47.447076 88.810764 
L 47.569505 89.439614 
L 46.063332 90.015979 
L 45.486171 89.732772 
L 44.861687 90.148082 
L 45.324649 90.109629 
L 45.094198 90.416813 
z
" clip-path="url(#p95c0fc94be)" style="fill: #ff6b6b; stroke: #dd0000; stroke-width: 0.5"/>
    <path d="M 40.181991 81.879878 
L 40.43679 81.392187 
L 41.04687 81.276367 
L 41.164154 81.897072 
L 40.7883 81.959502 
L 40.674442 81.509808 
z
" clip-path="url(#p95c0fc94be)" style="fill: #ff6b6b; stroke: #dd0000; stroke-width: 0.5"/>
    <path d="M 70.852424 55.097344 
L 71.054072 54.265818 
L 71.286583 54.53138 
L 71.612712 53.994374 
L 71.430613 54.872953 
z
" clip-path="url(#p95c0fc94be)" style="fill: #ff6b6b; stroke: #dd0000; stroke-width: 0.5"/>
    <path d="M 79.227939 31.022924 
L 79.342479 30.984921 
L 79.546871 31.292556 
L 79.335623 31.27401 
z
" clip-path="url(#p95c0fc94be)" style="fill: #ff6b6b; stroke: #dd0000; stroke-width: 0.5"/>
    <path d="M 77.381233 29.061282 
L 77.557159 28.183614 
L 78.210795 28.797982 
L 78.177871 29.775181 
z
" clip-path="url(#p95c0fc94be)" style="fill: #ff6b6b; stroke: #dd0000; stroke-width: 0.5"/>
    <path d="M 76.024235 32.279711 
L 76.052014 32.050795 
L 76.685414 31.937688 
L 76.744402 32.40367 
z
" clip-path="url(#p95c0fc94be)" style="fill: #ff6b6b; stroke: #dd0000; stroke-width: 0.5"/>
    <path d="M 72.592137 56.8925 
L 73.240974 56.588935 
L 73.3658 56.20484 
L 73.3658 56.697962 
z
" clip-path="url(#p95c0fc94be)" style="fill: #ff6b6b; stroke: #dd0000; stroke-width: 0.5"/>
    <path d="M 41.813332 79.203435 
L 42.151808 78.757817 
L 42.250576 79.146432 
L 42.407981 79.520576 
z
" clip-path="url(#p95c0fc94be)" style="fill: #ff6b6b; stroke: #dd0000; stroke-width: 0.5"/>
    <path d="M 76.315388 28.96085 
L 76.627805 29.004734 
L 76.397691 29.083902 
z
" clip-path="url(#p95c0fc94be)" style="fill: #ff6b6b; stroke: #dd0000; stroke-width: 0.5"/>
    <path d="M 75.323621 30.310831 
L 75.534523 30.049794 
L 75.578761 30.31445 
z
" clip-path="url(#p95c0fc94be)" style="fill: #ff6b6b; stroke: #dd0000; stroke-width: 0.5"/>
    <path d="M 63.816166 17.513514 
L 63.918082 17.528201 
L 63.942919 17.638923 
z
" clip-path="url(#p95c0fc94be)" style="fill: #ff6b6b; stroke: #dd0000; stroke-width: 0.5"/>
    <path d="M 48.761551 87.632695 
L 49.029384 87.604193 
L 48.850369 87.863424 
z
" clip-path="url(#p95c0fc94be)" style="fill: #ff6b6b; stroke: #dd0000; stroke-width: 0.5"/>
    <path d="M 45.056129 87.737202 
L 45.184732 87.619125 
L 45.139465 87.829496 
z
" clip-path="url(#p95c0fc94be)" style="fill: #ff6b6b; stroke: #dd0000; stroke-width: 0.5"/>
    <path d="M 44.061273 90.328139 
L 44.177187 90.121843 
L 44.315048 90.185634 
z
" clip-path="url(#p95c0fc94be)" style="fill: #ff6b6b; stroke: #dd0000; stroke-width: 0.5"/>
   </g>
  </g>
 </g>
 <defs>
  <clipPath id="p95c0fc94be">
   <rect x="0" y="0" width="130.986405" height="108"/>
  </clipPath>
 </defs>
</svg>
