<?xml version="1.0" encoding="utf-8" standalone="no"?>
<!DOCTYPE svg PUBLIC "-//W3C//DTD SVG 1.1//EN"
  "http://www.w3.org/Graphics/SVG/1.1/DTD/svg11.dtd">
<svg xmlns:xlink="http://www.w3.org/1999/xlink" width="133.222016pt" height="108pt" viewBox="0 0 133.222016 108" xmlns="http://www.w3.org/2000/svg" version="1.1">
 <metadata>
  <rdf:RDF xmlns:dc="http://purl.org/dc/elements/1.1/" xmlns:cc="http://creativecommons.org/ns#" xmlns:rdf="http://www.w3.org/1999/02/22-rdf-syntax-ns#">
   <cc:Work>
    <dc:type rdf:resource="http://purl.org/dc/dcmitype/StillImage"/>
    <dc:date>2025-09-05T13:56:19.095357</dc:date>
    <dc:format>image/svg+xml</dc:format>
    <dc:creator>
     <cc:Agent>
      <dc:title>Matplotlib v3.10.3, https://matplotlib.org/</dc:title>
     </cc:Agent>
    </dc:creator>
   </cc:Work>
  </rdf:RDF>
 </metadata>
 <defs>
  <style type="text/css">*{stroke-linejoin: round; stroke-linecap: butt}</style>
 </defs>
 <g id="figure_1">
  <g id="patch_1">
   <path d="M 0 108 
L 133.222016 108 
L 133.222016 0 
L 0 0 
z
" style="fill: #ffffff"/>
  </g>
  <g id="axes_1">
   <g id="PatchCollection_1">
    <path d="M 89.105408 -29.137384 
L 89.133313 -30.791541 
L 90.599176 -31.82693 
L 94.900901 -32.803403 
L 95.792943 -31.82693 
L 96.096334 -32.807254 
L 97.740309 -32.330184 
L 98.247339 -33.836095 
L 100.330663 -34.122952 
L 100.397752 -33.383666 
L 101.339375 -34.113707 
L 101.091204 -33.060225 
L 101.947039 -33.64203 
L 104.323956 -30.685651 
L 106.996239 -32.479195 
L 106.892336 -31.82693 
L 107.743123 -31.374888 
L 108.920149 -32.020606 
L 109.445885 -30.728783 
L 109.092622 -31.955918 
L 109.698805 -32.479195 
L 110.442129 -32.607796 
L 110.790336 -31.697165 
L 113.996365 -31.955918 
L 112.558699 -32.938939 
L 112.198914 -33.906167 
L 112.891768 -35.65042 
L 112.267185 -35.606143 
L 112.144293 -37.374658 
L 112.596694 -37.46553 
L 110.641019 -38.962962 
L 110.143488 -40.355679 
L 110.472996 -41.196615 
L 109.774795 -42.183866 
L 112.1716 -41.483084 
L 114.678537 -41.913181 
L 114.935908 -41.237428 
L 114.363277 -40.612889 
L 115.701198 -38.600639 
L 117.032299 -39.043822 
L 122.291966 -37.982259 
L 126.893806 -39.609456 
L 127.491081 -40.002591 
L 125.766951 -39.723048 
L 124.451879 -40.394183 
L 125.613767 -42.233149 
L 132.802401 -44.59579 
L 134.989628 -46.82597 
L 136.095115 -46.61651 
L 135.139244 -47.424326 
L 135.641517 -48.302234 
L 135.238981 -48.624899 
L 135.424221 -53.015953 
L 142.290912 -55.08586 
L 142.923067 -53.889631 
L 142.764725 -52.794749 
L 144.223737 -51.639711 
L 146.722526 -52.166859 
L 147.757028 -49.780996 
L 150.217369 -49.303727 
L 150.863553 -47.616649 
L 153.099193 -48.050399 
L 154.516737 -47.240605 
L 153.992702 -46.007328 
L 154.607216 -45.363796 
L 154.035679 -44.55791 
L 157.786879 -44.647883 
L 159.024969 -46.321268 
L 159.435902 -46.117353 
L 158.794241 -44.399956 
L 159.350698 -43.974525 
L 159.269266 -42.846873 
L 162.26193 -41.873749 
L 163.698326 -40.053179 
L 165.815582 -40.530931 
L 167.379401 -39.507929 
L 170.604311 -39.736296 
L 172.873503 -36.835019 
L 174.337038 -37.287354 
L 175.272007 -36.349924 
L 176.963257 -36.325472 
L 177.956291 -36.930376 
L 179.593999 -35.689274 
L 183.718436 -34.939626 
L 180.872805 -31.688705 
L 180.43849 -29.099173 
L 179.234338 -27.096443 
L 179.492964 -25.598613 
L 178.695974 -23.0993 
L 179.236979 -21.938177 
L 177.723302 -20.481152 
L 174.766823 -21.034218 
L 173.988685 -19.757422 
L 175.228278 -19.524162 
L 172.520627 -16.60748 
L 170.895357 -15.877637 
L 170.797335 -14.14264 
L 168.530026 -12.464372 
L 168.061786 -10.912017 
L 168.651423 -10.448195 
L 168.352081 -9.337661 
L 167.336424 -8.834956 
L 167.365832 -8.177731 
L 168.689877 -8.364528 
L 169.717594 -9.214918 
L 169.228241 -9.928381 
L 169.62937 -10.491961 
L 171.189417 -11.188059 
L 173.408095 -10.862385 
L 173.140423 -10.21273 
L 173.704423 -9.493165 
L 173.252015 -8.377739 
L 175.122719 -6.235885 
L 173.508379 -5.300907 
L 173.472937 -4.275946 
L 176.133846 -1.368792 
L 175.366265 0.497749 
L 172.063316 1.540793 
L 173.10423 3.392175 
L 175.013382 4.203445 
L 175.363996 5.50175 
L 174.668801 5.517894 
L 173.763232 6.929167 
L 174.361923 7.853878 
L 173.984913 8.461224 
L 174.836189 9.694992 
L 177.376452 10.797218 
L 179.744804 10.316523 
L 179.995135 11.345392 
L 178.447905 13.255207 
L 178.437261 14.20982 
L 176.067771 15.249449 
L 175.975074 16.202842 
L 174.685019 16.334499 
L 174.188494 17.398873 
L 173.000189 17.586058 
L 171.976966 18.900913 
L 172.724623 18.862352 
L 172.625602 19.53819 
L 170.404633 20.585843 
L 169.07559 20.416155 
L 168.97983 21.105534 
L 167.235162 20.177255 
L 166.619977 21.021248 
L 165.287191 19.743194 
L 162.902008 19.402436 
L 162.516755 18.081675 
L 160.618824 18.270895 
L 160.561277 17.572034 
L 162.021799 16.90052 
L 160.583243 16.159691 
L 160.74354 17.383363 
L 159.408887 17.457296 
L 159.318445 18.21125 
L 158.603814 17.448827 
L 158.491602 16.482356 
L 158.142505 15.965627 
L 158.4922 17.446897 
L 159.059462 18.167939 
L 152.732032 16.336041 
L 146.611481 20.439471 
L 146.084863 24.955662 
L 147.099886 26.82525 
L 145.295942 26.458649 
L 143.315156 27.700234 
L 140.507972 26.852295 
L 138.452539 27.608794 
L 136.384287 26.236395 
L 136.455921 25.137349 
L 134.320558 25.274267 
L 133.687943 24.202371 
L 129.823642 23.038779 
L 128.681313 22.974469 
L 128.588572 24.431221 
L 123.609088 24.424862 
L 121.538195 22.935842 
L 119.741766 23.596974 
L 118.350989 21.951713 
L 115.503848 21.391313 
L 114.510814 20.412313 
L 113.262554 21.01893 
L 113.653885 19.142851 
L 112.060657 19.108131 
L 110.787133 17.902732 
L 111.775301 17.663294 
L 113.11857 15.956391 
L 114.72099 6.7207 
L 115.23692 5.685311 
L 116.271159 5.647961 
L 115.341115 4.617966 
L 114.698133 6.045335 
L 115.975495 -2.864994 
L 118.30343 -0.565896 
L 118.669751 1.246895 
L 119.992535 3.513659 
L 119.543686 2.286524 
L 120.290869 2.538728 
L 119.107313 1.58189 
L 118.089694 -1.995177 
L 114.79342 -4.198019 
L 115.402565 -5.114043 
L 116.691212 -4.268489 
L 115.490731 -5.695461 
L 116.242371 -7.310337 
L 115.059698 -8.594855 
L 115.789664 -9.80736 
L 114.845962 -9.632931 
L 110.794786 -11.622849 
L 109.959444 -13.489541 
L 108.435685 -14.702435 
L 109.369888 -16.740859 
L 107.543044 -17.754304 
L 108.096976 -17.994566 
L 108.130813 -18.972203 
L 111.293506 -18.400409 
L 109.228289 -19.431559 
L 107.271126 -18.737704 
L 105.348098 -19.245964 
L 106.119926 -19.311428 
L 105.243014 -20.032612 
L 106.443495 -20.414959 
L 105.692752 -21.054138 
L 106.647135 -21.195835 
L 104.69146 -21.325211 
L 104.929534 -21.412998 
L 105.093996 -21.647876 
L 103.340771 -21.129992 
L 102.668695 -21.690231 
L 103.892924 -21.623234 
L 104.278235 -22.125334 
L 104.312079 -22.301296 
L 104.147624 -22.488046 
L 102.594478 -22.041389 
L 102.191351 -22.687495 
L 102.444862 -21.712564 
L 101.10724 -22.0722 
L 101.04579 -20.93131 
L 100.54321 -22.458399 
L 101.145534 -23.333988 
L 100.597241 -23.469137 
L 100.371036 -22.617422 
L 99.3929 -23.004775 
L 99.944753 -22.946247 
L 99.3929 -23.134151 
L 99.944753 -23.856499 
L 98.749619 -23.073315 
L 93.746724 -25.14871 
L 93.359924 -24.102922 
L 91.998547 -24.044394 
L 91.540208 -25.63848 
L 89.398993 -26.253017 
L 92.629068 -26.960726 
L 91.944225 -28.06773 
L 90.643999 -27.545607 
L 90.141726 -28.585235 
L 90.722667 -29.150869 
L 90.95006 -28.668405 
L 92.746029 -28.597944 
L 93.343305 -28.778912 
L 91.40098 -29.04267 
L 92.596121 -29.952913 
z
M 138.101173 26.638359 
L 138.480437 26.707797 
L 138.167525 26.349353 
z
" clip-path="url(#p48fbbefee0)" style="fill: #eeeeee; stroke: #000000; stroke-width: 0.3"/>
    <path d="M 186.262946 27.33986 
L 187.068609 26.840457 
L 187.430772 25.427727 
L 190.412377 23.981498 
L 191.684106 24.523257 
L 192.081886 21.410163 
L 192.93802 21.539539 
L 192.783655 24.846697 
L 193.405268 25.575584 
L 193.635032 29.521524 
L 192.493921 31.353572 
L 192.482642 33.686169 
L 191.684106 34.443558 
L 192.11039 34.871336 
L 191.0898 36.12967 
L 191.180637 36.846236 
L 188.033388 35.060395 
L 188.98866 33.797831 
L 187.036546 33.274941 
L 188.133132 31.789054 
L 186.738503 31.847193 
L 186.534272 31.201864 
L 187.692002 30.37286 
L 186.384656 28.934712 
L 187.274627 28.325578 
z
" clip-path="url(#p48fbbefee0)" style="fill: #eeeeee; stroke: #000000; stroke-width: 0.3"/>
    <path d="M 112.542671 -9.325662 
L 114.349919 -8.901347 
L 114.544658 -8.421192 
L 112.918783 -8.908274 
z
" clip-path="url(#p48fbbefee0)" style="fill: #eeeeee; stroke: #000000; stroke-width: 0.3"/>
    <path d="M 192.883399 24.782009 
L 193.069821 25.040374 
L 193.031227 25.049998 
z
" clip-path="url(#p48fbbefee0)" style="fill: #eeeeee; stroke: #000000; stroke-width: 0.3"/>
    <path d="M 168.878546 21.448667 
L 168.943855 21.360492 
L 169.506105 21.420553 
z
" clip-path="url(#p48fbbefee0)" style="fill: #eeeeee; stroke: #000000; stroke-width: 0.3"/>
    <path d="M 113.643408 -7.446261 
L 114.791049 -6.959946 
L 115.071276 -5.184504 
z
" clip-path="url(#p48fbbefee0)" style="fill: #eeeeee; stroke: #000000; stroke-width: 0.3"/>
    <path d="M 107.145257 -16.720069 
L 107.842867 -16.636512 
L 108.262022 -15.552995 
z
" clip-path="url(#p48fbbefee0)" style="fill: #eeeeee; stroke: #000000; stroke-width: 0.3"/>
    <path d="M 106.508506 -13.781404 
L 107.126558 -13.757918 
L 107.339996 -13.542675 
z
" clip-path="url(#p48fbbefee0)" style="fill: #eeeeee; stroke: #000000; stroke-width: 0.3"/>
    <path d="M 100.094668 -20.032612 
L 101.517787 -19.26329 
L 100.376384 -19.359944 
z
" clip-path="url(#p48fbbefee0)" style="fill: #eeeeee; stroke: #000000; stroke-width: 0.3"/>
    <path d="M -0.230611 225.654389 
L 0.445922 220.815742 
L 2.008866 217.55903 
L 3.760895 216.594489 
L 5.052212 211.650899 
L 5.974247 210.766831 
L 5.610303 209.809226 
L 8.824051 203.247675 
L 8.805644 202.073286 
L 7.202633 204.59918 
L 7.605761 203.370891 
L 15.222159 194.561833 
L 15.779353 188.652159 
L 18.006953 182.910754 
L 18.355459 180.47611 
L 24.958097 175.225639 
L 27.802261 166.369219 
L 29.399041 164.063951 
L 35.898973 162.546108 
L 40.100057 160.307071 
L 43.182295 156.268717 
L 46.751975 154.016204 
L 49.125923 151.092557 
L 53.454058 143.261893 
L 53.771398 140.636279 
L 51.751303 138.328314 
L 52.303157 136.635654 
L 52.050528 131.191894 
L 56.207386 123.67658 
L 56.337407 120.077956 
L 61.668621 113.531413 
L 68.964412 110.087573 
L 74.122563 106.236356 
L 77.989089 98.276316 
L 80.65099 89.760276 
L 84.505757 88.399932 
L 85.595989 91.6162 
L 86.93213 93.197955 
L 89.089971 94.867517 
L 91.96768 95.711529 
L 95.299571 94.623394 
L 96.261679 95.168616 
L 96.902888 94.396219 
L 99.677585 95.238698 
L 101.444467 94.423946 
L 102.235875 92.923807 
L 103.056684 95.905982 
L 103.844233 96.051142 
L 102.89371 94.817459 
L 104.437948 96.1243 
L 107.293983 96.111591 
L 110.98355 99.596027 
L 110.242364 100.965247 
L 111.469138 102.072118 
L 110.691 103.086802 
L 111.712304 105.861674 
L 111.149435 109.427519 
L 112.093837 110.82754 
L 111.678752 113.822225 
L 112.953407 115.504411 
L 112.520981 116.701984 
L 113.509113 118.511804 
L 116.364177 120.858548 
L 114.816568 122.15955 
L 114.339275 123.952498 
L 115.170575 124.154947 
L 115.063127 124.688454 
L 105.536577 124.285998 
L 102.873414 124.815105 
L 102.453617 125.076725 
L 103.262651 127.480794 
L 97.195196 128.869612 
L 97.093227 131.316586 
L 96.059419 131.809374 
L 95.85772 133.389351 
L 96.670548 133.331164 
L 97.960005 135.416912 
L 97.195196 136.541205 
L 97.297173 137.731624 
L 91.99452 139.64952 
L 86.131019 144.675731 
L 83.479689 148.974465 
L 82.154031 148.974465 
L 81.899097 148.114716 
L 78.126055 148.445386 
L 74.404001 149.701942 
L 71.752678 149.106737 
L 70.274056 150.297156 
L 68.056217 150.365724 
L 60.658618 156.653874 
L 60.550798 166.592212 
L 59.568459 166.591975 
L 59.737218 171.714073 
L 55.227484 172.018967 
L 52.274208 174.273779 
L 50.706807 173.700906 
L 49.110946 174.172062 
L 45.417045 172.665924 
L 40.785914 173.959346 
L 41.184788 176.325167 
L 38.410025 181.334061 
L 35.909347 182.405967 
L 33.20905 193.384179 
L 29.123257 196.794265 
L 26.789967 201.423944 
L 22.55771 204.168743 
L 21.026122 209.759565 
L 20.149772 217.235504 
L 17.161062 221.486441 
L 17.307154 222.530716 
L 16.284712 224.89629 
L 14.678294 225.460116 
L 6.873154 224.89629 
z
" clip-path="url(#p48fbbefee0)" style="fill: #eeeeee; stroke: #000000; stroke-width: 0.3"/>
    <path d="M 56.194327 20.925011 
L 57.447643 20.10987 
L 56.646138 19.975488 
L 58.725902 19.218875 
L 58.320994 18.767222 
L 59.473975 18.216606 
L 60.47259 18.669035 
L 63.116377 17.606696 
L 63.995667 18.481519 
L 64.249477 17.505813 
L 63.302806 17.176978 
L 64.299349 16.789625 
L 63.098867 16.983689 
L 63.248184 16.078831 
L 66.196244 14.193658 
L 66.562267 15.122381 
L 67.823308 13.937214 
L 67.779375 14.563684 
L 70.146786 15.009953 
L 70.847066 16.135438 
L 72.501437 16.151989 
L 72.499358 16.91092 
L 73.233482 16.089619 
L 79.615555 16.054578 
L 81.198386 15.172052 
L 82.473078 16.135438 
L 84.542154 16.191269 
L 84.395806 16.652167 
L 91.197042 17.81539 
L 95.975214 16.742263 
L 96.395267 16.91092 
L 96.088615 17.41918 
L 97.7795 16.541272 
L 98.858563 17.027588 
L 98.642747 17.542387 
L 101.947039 18.40874 
L 102.395588 17.369121 
L 103.694625 17.163503 
L 104.260726 17.967477 
L 108.369784 18.725633 
L 110.804453 17.792651 
L 111.145291 18.691746 
L 113.653885 19.142851 
L 113.262554 21.01893 
L 114.510814 20.412313 
L 115.503848 21.391313 
L 118.350989 21.951713 
L 119.741766 23.596974 
L 121.538195 22.935842 
L 123.609088 24.424862 
L 125.127289 24.033903 
L 125.902217 24.580611 
L 128.684333 24.397968 
L 128.681313 22.974469 
L 129.823642 23.038779 
L 133.687943 24.202371 
L 134.456283 26.795329 
L 136.346584 26.150576 
L 138.551312 27.623954 
L 140.507972 26.852295 
L 142.239931 27.826639 
L 145.295942 26.458649 
L 147.099886 26.82525 
L 147.146416 27.600921 
L 148.097538 27.851971 
L 146.646514 28.842307 
L 147.473546 31.419027 
L 145.290755 33.62924 
L 140.434536 36.125819 
L 139.436504 37.497736 
L 131.315754 39.881157 
L 129.103591 42.119816 
L 130.153274 43.340024 
L 128.832862 44.485911 
L 128.215408 44.325733 
L 129.238368 43.837118 
L 128.004042 44.250655 
L 121.534095 54.411994 
L 122.740216 59.276646 
L 125.604269 61.735931 
L 120.173616 65.557888 
L 120.216061 66.798886 
L 119.343016 67.222823 
L 118.343205 70.688995 
L 117.647382 71.196488 
L 118.747521 72.36009 
L 114.235817 72.904612 
L 111.703163 74.784722 
L 110.668326 76.263295 
L 110.029204 78.779178 
L 108.377802 80.717107 
L 106.663462 79.767205 
L 105.210958 79.937395 
L 104.062128 81.231527 
L 102.493545 80.572722 
L 91.769673 80.835705 
L 89.901573 82.881832 
L 86.054627 83.794393 
L 84.944114 86.350124 
L 84.311799 85.984526 
L 84.215615 87.091142 
L 82.952501 87.624431 
L 79.851856 85.892112 
L 77.858478 82.63117 
L 78.431408 83.212588 
L 78.811678 82.826001 
L 77.240724 81.658548 
L 76.958709 80.576952 
L 77.598729 80.162649 
L 77.652752 79.322867 
L 78.49137 79.146895 
L 78.698868 78.865044 
L 77.605258 79.156907 
L 77.289407 80.037891 
L 76.475434 78.60437 
L 73.606034 76.646418 
L 73.899328 75.428907 
L 73.097822 76.009936 
L 73.346584 76.591742 
L 69.801249 76.398065 
L 69.072246 72.53168 
L 70.835123 68.977333 
L 72.649652 68.546271 
L 73.207619 66.899051 
L 72.069441 67.117151 
L 70.204019 64.535927 
L 70.851713 61.780861 
L 72.415533 60.66763 
L 73.01949 59.164908 
L 70.94182 57.297393 
L 70.537292 54.96825 
L 68.758956 52.864059 
L 72.670386 52.729582 
L 73.702247 49.747123 
L 72.510163 48.11775 
L 74.324312 46.461483 
L 73.867001 45.650222 
L 74.165591 41.725943 
L 73.244192 40.219796 
L 74.251926 39.761594 
L 75.402543 37.838825 
L 77.777301 36.481831 
L 78.617647 34.974709 
L 76.169373 34.136062 
L 76.295673 32.162912 
L 75.673615 31.264849 
L 71.764066 31.026706 
L 71.229474 32.052888 
L 69.594779 32.744585 
L 67.557066 31.86169 
L 66.283542 32.252649 
L 66.214169 31.723542 
L 64.219055 32.699599 
L 63.849596 31.810345 
L 64.835459 30.521077 
L 64.040738 30.250164 
L 63.906895 29.454545 
L 60.955698 30.425473 
L 59.099935 31.918042 
L 58.99604 29.781431 
L 59.49921 29.673232 
L 60.986149 27.620169 
L 59.200277 28.481905 
L 60.748666 26.731871 
L 59.374822 27.088043 
L 58.652283 26.467346 
L 59.49921 26.537816 
L 60.196521 24.39388 
L 58.041351 25.768873 
L 58.013745 24.21137 
L 59.053032 23.043529 
L 57.502264 23.740072 
L 57.252313 22.225692 
L 56.241522 22.454797 
z
" clip-path="url(#p48fbbefee0)" style="fill: #eeeeee; stroke: #000000; stroke-width: 0.3"/>
    <path d="M 141.043083 53.841743 
L 144.417134 51.039769 
L 147.088826 50.129517 
L 146.486801 50.652407 
L 147.288314 50.846471 
L 146.775345 51.832956 
L 149.240429 52.202604 
L 149.090813 53.054319 
L 147.622572 55.642593 
L 146.2232 56.750751 
L 145.479278 55.859756 
L 144.222993 55.739625 
L 143.457105 54.01039 
L 142.078511 54.847087 
z
" clip-path="url(#p48fbbefee0)" style="fill: #eeeeee; stroke: #000000; stroke-width: 0.3"/>
    <path d="M 151.639013 49.662459 
L 153.84167 49.082584 
L 155.534335 51.090973 
L 154.885415 51.57074 
L 151.839683 50.439095 
z
" clip-path="url(#p48fbbefee0)" style="fill: #eeeeee; stroke: #000000; stroke-width: 0.3"/>
    <path d="M 132.769156 60.384426 
L 133.791518 58.562389 
L 135.609461 58.433012 
L 135.734134 59.02059 
L 134.129474 60.884055 
z
" clip-path="url(#p48fbbefee0)" style="fill: #eeeeee; stroke: #000000; stroke-width: 0.3"/>
    <path d="M 118.388627 70.894614 
L 118.493419 71.575372 
L 118.593156 71.928072 
L 118.444138 71.75211 
z
" clip-path="url(#p48fbbefee0)" style="fill: #eeeeee; stroke: #000000; stroke-width: 0.3"/>
    <path d="M 145.14939 57.858919 
L 145.637955 57.540995 
L 145.503514 58.198645 
z
" clip-path="url(#p48fbbefee0)" style="fill: #eeeeee; stroke: #000000; stroke-width: 0.3"/>
    <path d="M 138.101173 26.638359 
L 138.167525 26.349353 
L 138.480437 26.707797 
z
" clip-path="url(#p48fbbefee0)" style="fill: #eeeeee; stroke: #000000; stroke-width: 0.3"/>
    <path d="M 133.982434 62.684054 
L 134.335361 61.616566 
L 135.43016 62.579953 
z
" clip-path="url(#p48fbbefee0)" style="fill: #eeeeee; stroke: #000000; stroke-width: 0.3"/>
    <path d="M 106.154747 95.456751 
L 106.169484 95.387937 
L 106.190582 95.425069 
z
" clip-path="url(#p48fbbefee0)" style="fill: #eeeeee; stroke: #000000; stroke-width: 0.3"/>
    <path d="M 102.270959 94.439938 
L 102.575481 94.42317 
L 102.641972 94.527905 
z
" clip-path="url(#p48fbbefee0)" style="fill: #eeeeee; stroke: #000000; stroke-width: 0.3"/>
    <path d="M 95.431138 95.091929 
L 95.441023 95.0868 
L 95.442008 95.092251 
z
" clip-path="url(#p48fbbefee0)" style="fill: #eeeeee; stroke: #000000; stroke-width: 0.3"/>
    <path d="M 95.422201 95.115889 
L 95.423689 95.10531 
L 95.426403 95.109483 
z
" clip-path="url(#p48fbbefee0)" style="fill: #eeeeee; stroke: #000000; stroke-width: 0.3"/>
    <path d="M 92.508729 95.514494 
L 92.531958 95.514986 
L 92.545097 95.518421 
z
" clip-path="url(#p48fbbefee0)" style="fill: #eeeeee; stroke: #000000; stroke-width: 0.3"/>
    <path d="M 84.505757 88.399932 
L 85.350495 88.521199 
L 84.655008 88.805104 
z
" clip-path="url(#p48fbbefee0)" style="fill: #eeeeee; stroke: #000000; stroke-width: 0.3"/>
    <path d="M 84.345394 88.496785 
L 84.380923 88.503768 
L 84.366931 88.528911 
z
" clip-path="url(#p48fbbefee0)" style="fill: #eeeeee; stroke: #000000; stroke-width: 0.3"/>
    <path d="M 60.550798 170.150467 
L 60.577186 156.832363 
L 68.305417 150.24054 
L 70.274056 150.297156 
L 71.752678 149.106737 
L 74.404001 149.701942 
L 77.106312 148.577658 
L 81.899097 148.114716 
L 82.154031 148.974465 
L 83.479689 148.974465 
L 86.131019 144.675731 
L 91.99452 139.64952 
L 97.297173 137.731624 
L 97.195196 136.541205 
L 97.960005 135.416912 
L 96.670548 133.331164 
L 95.85772 133.389351 
L 96.059419 131.809374 
L 97.093227 131.316586 
L 97.195196 128.869612 
L 103.262651 127.480794 
L 102.453617 125.076725 
L 102.873414 124.815105 
L 105.536577 124.285998 
L 115.063127 124.688454 
L 115.170575 124.154947 
L 114.339275 123.952498 
L 114.816568 122.15955 
L 116.364177 120.858548 
L 113.509113 118.511804 
L 112.520981 116.701984 
L 112.953407 115.504411 
L 111.678752 113.822225 
L 112.093837 110.82754 
L 111.149435 109.427519 
L 111.712304 105.861674 
L 110.691 103.086802 
L 111.469138 102.072118 
L 110.242364 100.965247 
L 110.98355 99.596027 
L 107.88834 97.114314 
L 107.678412 96.303346 
L 111.044744 95.921766 
L 114.446694 93.698522 
L 116.357253 90.689009 
L 118.044571 89.824964 
L 119.32283 90.30704 
L 120.395064 88.726051 
L 123.287021 89.631288 
L 126.390344 85.736561 
L 133.717899 82.528366 
L 141.049021 81.645073 
L 142.866957 82.042438 
L 145.291667 80.034039 
L 146.802061 80.667436 
L 147.43793 79.99862 
L 149.284953 80.33053 
L 152.154944 79.005974 
L 158.81755 79.21235 
L 162.591169 81.600787 
L 165.723579 79.809173 
L 169.103561 79.146895 
L 170.699451 77.342961 
L 174.586464 79.263185 
L 176.660888 78.536219 
L 176.58608 77.372996 
L 180.787761 78.283239 
L 180.604302 79.263951 
L 181.589267 79.646298 
L 183.958166 78.619388 
L 186.652722 78.795057 
L 186.938815 79.771189 
L 185.270947 80.267526 
L 185.396868 81.41523 
L 183.496755 82.709627 
L 184.866799 83.612829 
L 184.018536 89.315625 
L 184.715993 92.057983 
L 184.404585 94.072201 
L 185.403653 94.860969 
L 184.449073 96.507943 
L 183.982344 100.482593 
L 181.028126 102.689977 
L 180.544807 104.295627 
L 178.73669 105.712038 
L 178.462227 107.615257 
L 180.25074 113.88433 
L 182.890536 115.181907 
L 184.320891 117.622541 
L 184.673767 120.544116 
L 189.880966 124.857158 
L 193.344139 142.296624 
L 191.643091 143.354345 
L 194.42388 148.169109 
L 195.579779 152.709297 
L 195.220869 160.856399 
L 196.368473 165.021764 
L 194.81521 170.089346 
L 196.167154 174.19994 
L 196.091755 176.136894 
L 195.649903 177.542792 
L 193.073447 178.978025 
L 192.308878 180.715473 
L 196.906086 188.640813 
L 197.081768 193.136498 
L 198.25878 194.143366 
L 198.615428 195.608426 
L 199.842954 196.761258 
L 201.94815 195.977383 
L 208.093338 198.424622 
L 211.211931 205.807162 
L 178.48334 230.834305 
L 166.165445 244.297892 
L 148.209436 248.785514 
L 146.539299 247.271787 
L 147.68238 244.879565 
L 147.229979 240.789752 
L 141.405246 238.556212 
L 139.949247 236.499449 
L 139.003721 237.073306 
L 136.865345 236.21192 
L 135.272124 233.437284 
L 132.316397 232.100342 
L 132.257588 228.666041 
L 88.717054 191.823752 
z
" clip-path="url(#p48fbbefee0)" style="fill: #eeeeee; stroke: #000000; stroke-width: 0.3"/>
    <path d="M 54.604368 61.09714 
L 55.67394 57.429816 
L 55.247656 55.746552 
L 56.646138 55.453156 
L 57.573877 53.815323 
L 59.195528 48.652875 
L 59.802294 48.710627 
L 58.901636 47.935145 
L 60.035626 43.770112 
L 61.351282 42.684286 
L 60.65249 42.760916 
L 60.541168 42.423612 
L 60.819316 42.039722 
L 60.748666 41.838731 
L 60.051654 43.653444 
L 60.799129 38.925484 
L 60.151099 38.008683 
L 59.470145 34.016063 
L 60.450332 33.539088 
L 59.106866 33.398365 
L 59.200277 32.241483 
L 60.955698 30.425473 
L 63.906895 29.454545 
L 64.040738 30.250164 
L 64.835459 30.521077 
L 63.83866 31.986629 
L 64.847146 32.737252 
L 66.214169 31.723542 
L 66.283542 32.252649 
L 67.557066 31.86169 
L 69.594779 32.744585 
L 71.229474 32.052888 
L 71.659259 31.043332 
L 75.673615 31.264849 
L 76.295673 32.162912 
L 76.169373 34.136062 
L 78.617647 34.974709 
L 77.777301 36.481831 
L 75.402543 37.838825 
L 74.251926 39.761594 
L 73.244192 40.219796 
L 74.165591 41.725943 
L 73.867001 45.650222 
L 74.324312 46.461483 
L 72.510163 48.11775 
L 73.702247 49.747123 
L 72.670386 52.729582 
L 68.758956 52.864059 
L 70.537292 54.96825 
L 71.043607 57.445562 
L 72.929012 58.665146 
L 72.059636 60.932184 
L 70.851713 61.780861 
L 70.204019 64.535927 
L 72.069441 67.117151 
L 73.207619 66.899051 
L 72.649652 68.546271 
L 70.835123 68.977333 
L 68.960275 72.855651 
L 69.850822 76.66259 
L 66.845471 78.234722 
L 61.29666 77.049555 
L 58.249148 78.01949 
L 60.041557 71.307384 
L 59.629231 71.382084 
L 59.65761 69.688354 
L 59.000789 69.208889 
L 59.879532 66.990718 
L 59.728697 65.360474 
L 58.652283 64.204452 
L 59.703149 64.72773 
L 61.102221 64.797812 
L 60.158519 64.483995 
L 59.887192 63.410111 
L 59.777358 64.204452 
L 58.920641 63.911047 
L 56.551143 64.797812 
L 56.892777 63.54067 
L 56.390248 62.462405 
L 57.447643 62.524888 
L 58.652283 61.420581 
L 58.149412 60.116428 
L 59.947161 58.372175 
L 58.701557 58.911625 
L 57.502264 60.903464 
L 57.412873 62.001582 
L 54.792578 62.112506 
z
" clip-path="url(#p48fbbefee0)" style="fill: #eeeeee; stroke: #000000; stroke-width: 0.3"/>
    <path d="M 65.852189 78.406842 
L 66.549799 78.21855 
L 66.599671 78.347927 
L 66.230387 78.545455 
z
" clip-path="url(#p48fbbefee0)" style="fill: #eeeeee; stroke: #000000; stroke-width: 0.3"/>
    <path d="M 57.652471 60.998954 
L 57.78576 60.695158 
L 57.931517 60.724029 
z
" clip-path="url(#p48fbbefee0)" style="fill: #eeeeee; stroke: #000000; stroke-width: 0.3"/>
    <path d="M 84.860384 86.556708 
L 84.944114 86.350124 
L 84.920353 86.639877 
z
" clip-path="url(#p48fbbefee0)" style="fill: #eeeeee; stroke: #000000; stroke-width: 0.3"/>
   </g>
   <g id="PatchCollection_2">
    <path d="M 54.604368 61.09714 
L 55.67394 57.429816 
L 55.247656 55.746552 
L 56.646138 55.453156 
L 57.573877 53.815323 
L 59.195528 48.652875 
L 59.802294 48.710627 
L 58.901636 47.935145 
L 60.035626 43.770112 
L 61.351282 42.684286 
L 60.65249 42.760916 
L 60.541168 42.423612 
L 60.819316 42.039722 
L 60.748666 41.838731 
L 60.051654 43.653444 
L 60.799129 38.925484 
L 60.151099 38.008683 
L 59.470145 34.016063 
L 60.450332 33.539088 
L 59.106866 33.398365 
L 59.200277 32.241483 
L 60.955698 30.425473 
L 63.906895 29.454545 
L 64.040738 30.250164 
L 64.835459 30.521077 
L 63.83866 31.986629 
L 64.847146 32.737252 
L 66.214169 31.723542 
L 66.283542 32.252649 
L 67.557066 31.86169 
L 69.594779 32.744585 
L 71.229474 32.052888 
L 71.659259 31.043332 
L 75.673615 31.264849 
L 76.295673 32.162912 
L 76.169373 34.136062 
L 78.617647 34.974709 
L 77.777301 36.481831 
L 75.402543 37.838825 
L 74.251926 39.761594 
L 73.244192 40.219796 
L 74.165591 41.725943 
L 73.867001 45.650222 
L 74.324312 46.461483 
L 72.510163 48.11775 
L 73.702247 49.747123 
L 72.670386 52.729582 
L 68.758956 52.864059 
L 70.537292 54.96825 
L 71.043607 57.445562 
L 72.929012 58.665146 
L 72.059636 60.932184 
L 70.851713 61.780861 
L 70.204019 64.535927 
L 72.069441 67.117151 
L 73.207619 66.899051 
L 72.649652 68.546271 
L 70.835123 68.977333 
L 68.960275 72.855651 
L 69.850822 76.66259 
L 66.845471 78.234722 
L 61.29666 77.049555 
L 58.249148 78.01949 
L 60.041557 71.307384 
L 59.629231 71.382084 
L 59.65761 69.688354 
L 59.000789 69.208889 
L 59.879532 66.990718 
L 59.728697 65.360474 
L 58.652283 64.204452 
L 59.703149 64.72773 
L 61.102221 64.797812 
L 60.158519 64.483995 
L 59.887192 63.410111 
L 59.777358 64.204452 
L 58.920641 63.911047 
L 56.551143 64.797812 
L 56.892777 63.54067 
L 56.390248 62.462405 
L 57.447643 62.524888 
L 58.652283 61.420581 
L 58.149412 60.116428 
L 59.947161 58.372175 
L 58.701557 58.911625 
L 57.502264 60.903464 
L 57.412873 62.001582 
L 54.792578 62.112506 
z
" clip-path="url(#p48fbbefee0)" style="fill: #ff6b6b; stroke: #dd0000; stroke-width: 0.5"/>
    <path d="M 65.852189 78.406842 
L 66.549799 78.21855 
L 66.599671 78.347927 
L 66.230387 78.545455 
z
" clip-path="url(#p48fbbefee0)" style="fill: #ff6b6b; stroke: #dd0000; stroke-width: 0.5"/>
    <path d="M 57.652471 60.998954 
L 57.78576 60.695158 
L 57.931517 60.724029 
z
" clip-path="url(#p48fbbefee0)" style="fill: #ff6b6b; stroke: #dd0000; stroke-width: 0.5"/>
   </g>
  </g>
 </g>
 <defs>
  <clipPath id="p48fbbefee0">
   <rect x="0" y="0" width="133.222016" height="108"/>
  </clipPath>
 </defs>
</svg>
