<?xml version="1.0" encoding="utf-8" standalone="no"?>
<!DOCTYPE svg PUBLIC "-//W3C//DTD SVG 1.1//EN"
  "http://www.w3.org/Graphics/SVG/1.1/DTD/svg11.dtd">
<svg xmlns:xlink="http://www.w3.org/1999/xlink" width="156.14299pt" height="108pt" viewBox="0 0 156.14299 108" xmlns="http://www.w3.org/2000/svg" version="1.1">
 <metadata>
  <rdf:RDF xmlns:dc="http://purl.org/dc/elements/1.1/" xmlns:cc="http://creativecommons.org/ns#" xmlns:rdf="http://www.w3.org/1999/02/22-rdf-syntax-ns#">
   <cc:Work>
    <dc:type rdf:resource="http://purl.org/dc/dcmitype/StillImage"/>
    <dc:date>2025-09-05T13:56:20.243292</dc:date>
    <dc:format>image/svg+xml</dc:format>
    <dc:creator>
     <cc:Agent>
      <dc:title>Matplotlib v3.10.3, https://matplotlib.org/</dc:title>
     </cc:Agent>
    </dc:creator>
   </cc:Work>
  </rdf:RDF>
 </metadata>
 <defs>
  <style type="text/css">*{stroke-linejoin: round; stroke-linecap: butt}</style>
 </defs>
 <g id="figure_1">
  <g id="patch_1">
   <path d="M 0 108 
L 156.14299 108 
L 156.14299 0 
L 0 0 
z
" style="fill: #ffffff"/>
  </g>
  <g id="axes_1">
   <g id="PatchCollection_1">
    <path d="M 84.677189 112.367123 
L 109.520668 103.203818 
L 114.979911 85.024008 
L 111.247118 78.382771 
L 111.570664 74.554666 
L 114.158199 68.608242 
L 113.482858 66.838286 
L 117.963747 65.75581 
L 117.427923 64.477719 
L 115.958258 64.389622 
L 116.568553 58.057907 
L 118.02794 57.73702 
L 118.223953 58.607788 
L 117.630786 58.539112 
L 118.802579 59.805362 
L 121.156037 57.535026 
L 123.043171 61.951718 
L 127.51837 66.926319 
L 137.172391 69.97508 
L 139.383029 69.736398 
L 140.856338 70.697828 
L 147.098693 79.684857 
L 149.658451 80.167438 
L 149.549942 82.655677 
L 145.677957 89.920484 
L 143.27726 91.456981 
L 140.179665 95.569733 
L 140.574616 96.132867 
L 139.446377 97.259877 
L 138.8398 99.341618 
L 138.237266 99.87491 
L 136.225449 99.452371 
L 136.732958 97.776021 
L 136.249044 97.540326 
L 133.353641 100.772944 
L 131.971324 105.653197 
L 133.018675 112.402602 
L 127.98206 113.152204 
L 124.671498 114.658869 
L 123.291194 116.366546 
L 122.630024 120.124638 
L 120.932279 122.042274 
L 113.38645 122.949629 
L 111.589637 125.719802 
L 112.190822 126.837501 
L 111.855185 128.510488 
L 109.922219 130.555677 
L 107.975779 131.103148 
L 106.321173 130.305062 
L 102.121634 130.555677 
L 98.232795 132.876834 
L 93.884307 133.935233 
L 91.492678 128.206722 
L 90.829322 127.924917 
z
" clip-path="url(#p176fc32bd8)" style="fill: #eeeeee; stroke: #000000; stroke-width: 0.3"/>
    <path d="M 118.622515 47.610562 
L 119.706323 45.758806 
L 119.740692 46.265252 
L 121.32858 46.201856 
L 120.535986 46.139944 
L 120.994285 44.632538 
L 122.130607 44.882402 
L 121.282748 45.707333 
L 122.017378 46.014637 
L 121.559079 46.139944 
L 121.955372 46.833611 
L 120.704479 46.585974 
L 120.763785 47.146871 
L 121.898757 47.266212 
L 121.129758 47.81965 
L 121.735655 48.654287 
L 121.158736 48.847464 
L 120.292608 51.584652 
L 119.183475 51.18696 
L 119.501033 48.036849 
z
" clip-path="url(#p176fc32bd8)" style="fill: #eeeeee; stroke: #000000; stroke-width: 0.3"/>
    <path d="M 139.913446 99.781305 
L 142.050624 96.764621 
L 142.413219 98.497284 
L 139.946474 101.599369 
z
" clip-path="url(#p176fc32bd8)" style="fill: #eeeeee; stroke: #000000; stroke-width: 0.3"/>
    <path d="M 119.70725 54.994801 
L 120.139975 54.300979 
L 120.833576 54.892571 
L 119.803178 55.362476 
z
M 120.176829 54.758327 
L 120.325106 54.993866 
L 120.369406 54.843097 
z
" clip-path="url(#p176fc32bd8)" style="fill: #eeeeee; stroke: #000000; stroke-width: 0.3"/>
    <path d="M 117.685064 125.892476 
L 118.772863 125.902173 
L 117.756512 126.090135 
z
" clip-path="url(#p176fc32bd8)" style="fill: #eeeeee; stroke: #000000; stroke-width: 0.3"/>
    <path d="M 116.846639 125.902173 
L 117.077817 126.033072 
L 116.953127 126.112508 
z
" clip-path="url(#p176fc32bd8)" style="fill: #eeeeee; stroke: #000000; stroke-width: 0.3"/>
    <path d="M 81.363812 65.567307 
L 81.489902 62.972823 
L 81.826889 64.421306 
L 83.027909 64.099091 
L 83.275932 66.494459 
L 84.263985 66.823768 
L 87.679014 66.431805 
L 89.825625 64.580177 
L 90.496907 65.210062 
L 94.505037 64.939686 
L 98.019141 66.069309 
L 100.415126 65.90634 
L 104.956373 63.823115 
L 105.439608 62.404089 
L 106.174916 62.404089 
L 104.874143 61.596306 
L 106.236251 61.840579 
L 106.745773 59.638764 
L 110.381197 57.181109 
L 112.038503 54.946097 
L 112.423342 55.488728 
L 112.215088 54.741362 
L 114.263295 52.032349 
L 114.886724 52.41983 
L 117.647995 49.786146 
L 117.461307 50.216887 
L 117.586668 50.258663 
L 118.622515 47.610562 
L 119.501033 48.036849 
L 119.183475 51.18696 
L 121.045508 52.517165 
L 121.156037 57.535026 
L 118.802579 59.805362 
L 117.689843 58.674804 
L 118.223953 58.607788 
L 117.802824 57.594216 
L 116.317755 58.37926 
L 115.958258 64.389622 
L 117.427923 64.477719 
L 117.963747 65.75581 
L 113.482858 66.838286 
L 114.158199 68.608242 
L 111.570664 74.554666 
L 110.696742 79.117379 
L 89.479487 76.228946 
z
M 119.70725 54.994801 
L 119.803178 55.362476 
L 120.833576 54.892571 
L 120.139975 54.300979 
z
" clip-path="url(#p176fc32bd8)" style="fill: #eeeeee; stroke: #000000; stroke-width: 0.3"/>
    <path d="M 94.664768 63.870105 
L 96.173126 63.574735 
L 96.587622 62.716983 
L 96.783744 63.37298 
L 95.809132 64.093033 
z
" clip-path="url(#p176fc32bd8)" style="fill: #eeeeee; stroke: #000000; stroke-width: 0.3"/>
    <path d="M 102.350104 64.010701 
L 102.372349 63.581454 
L 102.977575 63.957368 
L 102.997799 64.417952 
z
" clip-path="url(#p176fc32bd8)" style="fill: #eeeeee; stroke: #000000; stroke-width: 0.3"/>
    <path d="M 98.577194 65.048955 
L 100.160361 63.97975 
L 101.12684 64.918808 
L 99.551764 65.308149 
z
" clip-path="url(#p176fc32bd8)" style="fill: #eeeeee; stroke: #000000; stroke-width: 0.3"/>
    <path d="M 120.176829 54.758327 
L 120.369406 54.843097 
L 120.325106 54.993866 
z
" clip-path="url(#p176fc32bd8)" style="fill: #eeeeee; stroke: #000000; stroke-width: 0.3"/>
    <path d="M 104.190736 62.2027 
L 104.699587 61.710056 
L 105.314925 62.605102 
z
" clip-path="url(#p176fc32bd8)" style="fill: #eeeeee; stroke: #000000; stroke-width: 0.3"/>
    <path d="M 103.729058 63.160409 
L 104.201519 63.289814 
L 103.976411 63.623962 
z
" clip-path="url(#p176fc32bd8)" style="fill: #eeeeee; stroke: #000000; stroke-width: 0.3"/>
    <path d="M 102.946577 63.411392 
L 103.342869 63.22343 
L 103.257956 63.893229 
z
" clip-path="url(#p176fc32bd8)" style="fill: #eeeeee; stroke: #000000; stroke-width: 0.3"/>
    <path d="M 89.459842 63.687423 
L 90.244552 63.522878 
L 89.758402 64.178481 
z
" clip-path="url(#p176fc32bd8)" style="fill: #eeeeee; stroke: #000000; stroke-width: 0.3"/>
    <path d="M 87.19982 61.945375 
L 87.6638 61.903801 
L 87.456672 62.141192 
z
" clip-path="url(#p176fc32bd8)" style="fill: #eeeeee; stroke: #000000; stroke-width: 0.3"/>
    <path d="M -24.676667 -19.393577 
L -8.809087 -28.190537 
L -6.533122 -28.835389 
L -4.554167 -32.421475 
L -4.578135 -36.544895 
L -3.235148 -40.32304 
L -4.285397 -44.035818 
L -3.951583 -46.734567 
L -3.053694 -48.215605 
L 0.742439 -49.145809 
L 4.994791 -53.656188 
L 6.684437 -53.991995 
L 7.963223 -55.904508 
L 11.268898 -56.049677 
L 17.021301 -54.478406 
L 19.328936 -55.500025 
L 20.546097 -54.818237 
L 20.09073 -53.451105 
L 20.958664 -52.365549 
L 23.654044 -54.282801 
L 25.948842 -52.794183 
L 25.484067 -50.741001 
L 27.261865 -49.605705 
L 26.810357 -48.374742 
L 27.575149 -47.266447 
L 28.859923 -47.176462 
L 29.53441 -43.42815 
L 31.353732 -43.427683 
L 33.084887 -41.750562 
L 35.663859 -42.174457 
L 37.872211 -41.681878 
L 35.194802 -40.497337 
L 34.86526 -38.846731 
L 36.158597 -37.236866 
L 36.41453 -35.340456 
L 34.444561 -35.11785 
L 33.922857 -33.463459 
L 32.403551 -32.547929 
L 32.077438 -31.75887 
L 32.691576 -30.204885 
L 31.028042 -30.575264 
L 31.051157 -29.681529 
L 30.335583 -29.22495 
L 31.499244 -28.011511 
L 31.39139 -26.430773 
L 30.031716 -24.909939 
L 30.904784 -24.590006 
L 32.965058 -21.331432 
L 34.219023 -21.769543 
L 34.566536 -21.035888 
L 33.942551 -20.517976 
L 34.951714 -20.485292 
L 36.44962 -18.371959 
L 36.548058 -17.529842 
L 35.414353 -16.955573 
L 36.160742 -16.552272 
L 35.966865 -15.568304 
L 39.133017 -14.995217 
L 44.195529 -11.171126 
L 45.64251 -11.263961 
L 46.847687 -10.444584 
L 47.514472 -8.183946 
L 50.356217 -5.040937 
L 49.068015 -1.394461 
L 49.018374 2.392208 
L 51.828449 2.443827 
L 51.83958 7.257329 
L 54.25892 8.641747 
L 55.479923 11.495838 
L 56.358706 11.998325 
L 52.713849 11.09657 
L 51.470369 11.471742 
L 51.326812 10.699392 
L 51.187296 10.52747 
L 51.296484 11.563487 
L 49.028643 10.608729 
L 45.077583 11.195088 
L 42.231556 16.599679 
L 39.57298 19.796671 
L 24.329393 18.824316 
L 2.660621 1.611664 
L -11.014872 -6.093342 
L -21.59696 -7.904505 
L -20.39093 -9.062769 
L -20.856567 -10.055728 
L -22.571034 -9.830995 
L -22.989588 -11.174921 
L -22.335648 -11.373129 
z
" clip-path="url(#p176fc32bd8)" style="fill: #eeeeee; stroke: #000000; stroke-width: 0.3"/>
    <path d="M 18.722923 -74.407331 
L 21.812899 -74.777709 
L 22.405214 -77.380305 
L 23.285131 -77.998384 
L 25.283192 -76.843631 
L 28.146495 -72.93576 
L 29.458234 -72.816639 
L 30.514048 -71.017556 
L 36.207385 -69.720052 
L 39.749299 -69.968945 
L 44.291822 -73.805345 
L 51.490353 -77.436185 
L 54.534099 -74.451846 
L 52.606508 -73.445854 
L 54.159198 -71.020873 
L 52.211913 -70.505564 
L 51.670101 -69.604726 
L 54.297008 -67.314007 
L 55.166225 -67.478597 
L 56.761285 -65.442701 
L 58.967666 -65.791807 
L 59.549306 -60.927969 
L 61.106194 -58.361412 
L 63.667294 -57.18368 
L 69.911007 -56.216659 
L 70.959708 -54.05288 
L 76.611669 -50.518559 
L 84.100883 -48.823557 
L 101.471918 -52.213928 
L 98.180893 -51.519895 
L 101.536624 -51.008591 
L 101.583797 -52.90237 
L 100.70359 -55.789648 
L 103.127592 -55.62317 
L 106.83385 -56.670846 
L 107.946577 -57.456595 
L 108.264135 -59.387109 
L 110.778914 -61.376353 
L 115.568806 -62.900963 
L 120.463976 -62.548824 
L 120.493931 -63.457957 
L 121.596389 -64.151348 
L 126.581432 -63.52995 
L 127.712148 -64.357375 
L 129.181804 -61.51584 
L 135.842796 -59.872109 
L 136.257939 -58.868958 
L 137.508475 -58.452634 
L 141.179643 -59.014833 
L 145.413163 -57.508929 
L 146.650862 -54.550876 
L 151.267846 -52.884644 
L 153.943541 -49.322479 
L 160.763743 -49.3149 
L 160.605394 -46.757297 
L 161.251632 -44.616495 
L 160.465871 -43.212656 
L 161.386874 -42.510264 
L 161.792592 -39.340731 
L 160.940071 -37.070626 
L 160.287837 -36.865066 
L 160.610529 -35.253303 
L 159.932613 -32.619455 
L 158.955981 -30.999635 
L 156.903418 -29.885191 
L 158.483496 -28.07521 
L 156.439488 -27.962724 
L 155.189804 -26.426502 
L 155.347299 -21.83798 
L 158.735147 -20.698899 
L 155.809515 -17.373547 
L 155.770997 -16.521018 
L 157.985337 -9.102785 
L 157.526549 -7.070922 
L 157.914287 -2.190164 
L 165.079434 -1.076664 
L 166.23497 2.206537 
L 166.034675 3.745363 
L 158.101746 12.808739 
L 162.184619 17.242862 
L 164.082255 21.856726 
L 166.784485 24.866407 
L 170.67691 26.000274 
L 172.439742 27.740396 
L 173.979165 27.580783 
L 174.41955 34.4683 
L 173.820386 36.55938 
L 175.06322 37.048165 
L 177.420935 36.636103 
L 178.601283 37.929591 
L 177.870306 38.40132 
L 178.147631 40.012615 
L 177.463727 40.560599 
L 177.310514 42.257617 
L 171.138273 43.016376 
L 170.090591 43.576201 
L 169.868042 44.861633 
L 168.697955 44.742274 
L 166.288893 46.104438 
L 165.639226 49.820067 
L 164.859461 50.285636 
L 164.525638 54.718816 
L 162.80033 56.790887 
L 156.355071 54.815198 
L 155.660882 53.239171 
L 154.382344 53.872043 
L 154.978403 54.674914 
L 153.505508 53.878386 
L 150.312101 54.312087 
L 146.586082 53.104615 
L 143.190988 53.672891 
L 141.379342 52.199423 
L 138.014858 51.726164 
L 135.150462 52.16959 
L 134.240598 50.982153 
L 132.654731 51.510239 
L 132.521286 50.527921 
L 128.843401 50.148643 
L 127.644403 47.40942 
L 128.026542 46.646391 
L 126.928639 44.363271 
L 126.469661 40.370612 
L 125.646739 39.415891 
L 126.042361 38.977322 
L 125.149342 38.896017 
L 124.680261 37.725746 
L 119.006063 37.53256 
L 117.478831 38.76027 
L 115.21427 39.046685 
L 114.020663 40.979242 
L 111.942798 40.906149 
L 107.969038 43.625602 
L 104.642972 42.623899 
L 103.96967 41.616963 
L 99.0665 41.675887 
L 97.207002 40.340036 
L 96.814072 39.227938 
L 93.373427 38.050949 
L 89.834387 35.770065 
L 90.403894 34.892919 
L 88.660996 33.206495 
L 84.947392 31.372767 
L 82.232631 31.392271 
L 79.884184 30.465367 
L 77.241161 24.945944 
L 77.059864 23.094692 
L 74.956384 21.282961 
L 75.108703 20.704915 
L 75.738195 21.137517 
L 75.992281 20.173474 
L 75.250239 19.385461 
L 73.622582 19.359358 
L 73.717616 16.557857 
L 69.49044 12.076643 
L 68.898697 9.714838 
L 67.58309 9.639875 
L 64.416756 11.298702 
L 63.982715 10.078453 
L 62.038974 10.074722 
L 61.840824 9.084202 
L 61.345456 9.45788 
L 59.355876 8.019094 
L 61.689176 8.331988 
L 62.193985 7.387715 
L 61.757923 6.868208 
L 59.855294 6.783181 
L 60.317642 7.544716 
L 59.469105 7.671885 
L 58.868591 8.341309 
L 59.307353 11.122297 
L 55.572365 11.608562 
L 55.015148 9.483387 
L 51.83958 7.257329 
L 51.828449 2.443827 
L 49.018374 2.392208 
L 49.068015 -1.394461 
L 50.356217 -5.040937 
L 47.514472 -8.183946 
L 46.847687 -10.444584 
L 45.64251 -11.263961 
L 44.195529 -11.171126 
L 39.133017 -14.995217 
L 35.966865 -15.568304 
L 36.160742 -16.552272 
L 35.414353 -16.955573 
L 36.548058 -17.529842 
L 36.44962 -18.371959 
L 34.951714 -20.485292 
L 33.942551 -20.517976 
L 34.566536 -21.035888 
L 34.219023 -21.769543 
L 32.965058 -21.331432 
L 30.904784 -24.590006 
L 30.031716 -24.909939 
L 31.39139 -26.430773 
L 31.499244 -28.011511 
L 30.335583 -29.22495 
L 31.051157 -29.681529 
L 31.028042 -30.575264 
L 32.691576 -30.204885 
L 32.077438 -31.75887 
L 32.403551 -32.547929 
L 33.922857 -33.463459 
L 34.444561 -35.11785 
L 36.41453 -35.340456 
L 36.158597 -37.236866 
L 34.86526 -38.846731 
L 35.194802 -40.497337 
L 37.872211 -41.681878 
L 35.663859 -42.174457 
L 33.084887 -41.750562 
L 31.353732 -43.427683 
L 29.53441 -43.42815 
L 28.859923 -47.176462 
L 27.480132 -47.363544 
L 26.810357 -48.374742 
L 27.173705 -49.803208 
L 25.419014 -50.900615 
L 25.948842 -52.794183 
L 24.833539 -53.595092 
L 25.238404 -55.330705 
L 23.338201 -56.596478 
L 23.536782 -59.213995 
L 20.273476 -60.870988 
L 22.399226 -64.914368 
L 20.997613 -65.316953 
L 20.877344 -69.545041 
L 19.858343 -70.654518 
L 20.145514 -72.308909 
L 19.243344 -72.812377 
z
" clip-path="url(#p176fc32bd8)" style="fill: #eeeeee; stroke: #000000; stroke-width: 0.3"/>
    <path d="M 112.057377 42.118937 
L 116.111339 40.865877 
L 115.977215 39.425963 
L 117.134432 39.858941 
L 119.740692 38.977322 
L 120.362101 39.415891 
L 117.542858 41.788519 
L 116.959868 41.361133 
L 112.1059 43.143022 
z
" clip-path="url(#p176fc32bd8)" style="fill: #eeeeee; stroke: #000000; stroke-width: 0.3"/>
    <path d="M 100.613276 43.255654 
L 101.573685 43.078131 
L 101.723312 43.69348 
L 101.048659 43.655444 
z
" clip-path="url(#p176fc32bd8)" style="fill: #eeeeee; stroke: #000000; stroke-width: 0.3"/>
    <path d="M 121.580645 38.502202 
L 121.599519 38.271347 
L 122.161614 38.439548 
z
" clip-path="url(#p176fc32bd8)" style="fill: #eeeeee; stroke: #000000; stroke-width: 0.3"/>
    <path d="M 120.806917 40.110675 
L 121.32858 39.985 
L 121.121667 40.483244 
z
" clip-path="url(#p176fc32bd8)" style="fill: #eeeeee; stroke: #000000; stroke-width: 0.3"/>
    <path d="M 116.765767 42.478079 
L 116.891121 42.061883 
L 117.067705 42.453095 
z
" clip-path="url(#p176fc32bd8)" style="fill: #eeeeee; stroke: #000000; stroke-width: 0.3"/>
    <path d="M 109.799557 49.255081 
L 110.150027 49.410974 
L 109.85213 49.456846 
z
" clip-path="url(#p176fc32bd8)" style="fill: #eeeeee; stroke: #000000; stroke-width: 0.3"/>
    <path d="M 105.639779 48.960463 
L 105.999682 49.088007 
L 105.672128 49.06228 
z
" clip-path="url(#p176fc32bd8)" style="fill: #eeeeee; stroke: #000000; stroke-width: 0.3"/>
    <path d="M 105.460503 45.438451 
L 105.951159 45.50819 
L 105.732792 45.869935 
z
" clip-path="url(#p176fc32bd8)" style="fill: #eeeeee; stroke: #000000; stroke-width: 0.3"/>
    <path d="M 98.115525 41.941424 
L 98.181572 41.841476 
L 98.488231 42.14691 
z
" clip-path="url(#p176fc32bd8)" style="fill: #eeeeee; stroke: #000000; stroke-width: 0.3"/>
    <path d="M 94.373613 40.39896 
L 96.299829 40.809189 
L 94.981539 40.842001 
z
" clip-path="url(#p176fc32bd8)" style="fill: #eeeeee; stroke: #000000; stroke-width: 0.3"/>
    <path d="M 70.636642 18.209297 
L 71.062195 18.303498 
L 70.994085 18.759297 
z
" clip-path="url(#p176fc32bd8)" style="fill: #eeeeee; stroke: #000000; stroke-width: 0.3"/>
    <path d="M 74.51021 52.801344 
L 75.306853 53.051951 
L 74.791932 51.794409 
L 75.389746 51.370385 
L 75.733474 52.45749 
L 76.386561 51.41327 
L 75.64114 51.094785 
L 76.441826 48.341017 
L 78.653135 46.702703 
L 79.789457 48.472292 
L 81.355108 49.262175 
L 81.459574 50.810606 
L 80.755944 51.037346 
L 81.123258 51.550511 
L 80.480955 52.556695 
L 80.869164 54.612691 
L 81.604473 54.997193 
L 81.63278 57.130388 
L 79.393164 61.277445 
L 78.875551 60.424166 
L 76.397601 61.297297 
L 74.98132 59.657415 
L 75.40997 59.208765 
z
" clip-path="url(#p176fc32bd8)" style="fill: #eeeeee; stroke: #000000; stroke-width: 0.3"/>
    <path d="M -59.474721 28.805843 
L -57.56154 25.008167 
L -56.355626 17.450896 
L -47.079405 18.840886 
L -43.703541 16.140965 
L -41.619308 12.851367 
L -35.478737 11.558831 
L -34.009925 8.476451 
L -31.245217 6.937158 
L -39.707975 -2.156537 
L -23.111993 -6.769686 
L -21.502805 -7.933871 
L -11.460814 -6.257694 
L 2.660621 1.611664 
L 24.329393 18.824316 
L 47.035137 20.722622 
L 48.978571 24.949766 
L 55.823577 25.255483 
L 55.609252 26.291501 
L 56.161905 26.103539 
L 57.127713 29.417086 
L 58.28628 29.77511 
L 57.885938 30.193918 
L 59.037084 31.427585 
L 58.969687 31.94821 
L 58.677181 32.327113 
L 58.456123 31.410437 
L 58.177093 32.409903 
L 59.016197 32.703037 
L 58.615855 33.391103 
L 61.994493 34.008688 
L 62.599048 34.892919 
L 61.001049 34.961539 
L 62.193985 35.211403 
L 61.859019 35.968466 
L 62.599048 35.843158 
L 62.680599 37.119352 
L 63.423991 37.135015 
L 63.113291 37.638474 
L 64.747001 37.225266 
L 65.801781 39.387551 
L 69.602998 42.076429 
L 68.195066 41.530443 
L 68.544186 43.636793 
L 70.084213 45.201263 
L 69.461462 47.840537 
L 68.55901 46.327155 
L 68.20787 48.153807 
L 69.129867 48.26643 
L 70.423229 51.543802 
L 69.489099 50.614065 
L 69.522118 50.920993 
L 72.195784 53.328303 
L 72.946588 56.832791 
L 76.397601 61.297297 
L 78.798712 60.776965 
L 79.077064 61.760777 
L 79.846071 60.714311 
L 80.699329 61.152137 
L 78.881613 63.679907 
L 81.28771 64.152791 
L 81.487923 65.782801 
L 89.479487 76.228946 
L 110.57177 79.140109 
L 111.247118 78.382771 
L 114.979911 85.024008 
L 109.520668 103.203818 
L 84.677189 112.367123 
L 60.305766 116.179134 
L 53.068294 120.127552 
L 48.323339 126.411672 
L 46.986349 129.816121 
L 44.781425 131.139442 
L 43.199633 131.053243 
L 41.044351 128.133785 
L 37.835398 128.604102 
L 30.445997 127.797987 
L 28.251342 126.731367 
L 19.833944 126.947347 
L 17.896937 127.89129 
L 13.737457 125.892101 
L 11.684885 127.67058 
L 12.406454 128.165048 
L 11.298854 129.867272 
L 11.250919 131.482353 
L 12.069642 132.519598 
L 11.808574 133.731617 
L 11.021529 133.658679 
L 10.618379 134.907643 
L 8.574536 136.423088 
L 7.936282 133.126698 
L 4.990335 128.985617 
L 5.042229 130.430369 
L 4.533378 126.500365 
L 0.277225 123.017874 
L -2.159871 119.439926 
L -2.636365 117.185144 
L -4.504625 115.095586 
L -4.183142 113.846988 
L -5.115251 112.909049 
L -4.783656 111.709688 
L -5.677346 111.177881 
L -6.70381 107.692411 
L -8.229691 106.748138 
L -8.358416 105.205674 
L -9.089683 105.36603 
L -10.100643 103.51179 
L -13.833121 100.602515 
L -15.330017 100.336612 
L -15.018646 100.786371 
L -16.514191 99.946518 
L -21.365467 92.998703 
L -22.140537 91.109406 
L -21.392425 90.292677 
L -21.905996 87.14285 
L -23.378551 84.775601 
L -22.762062 84.812885 
L -21.626974 81.135586 
L -22.227363 81.47834 
L -22.70129 77.803396 
L -24.469125 75.678029 
L -24.479237 74.294803 
L -27.342283 68.480349 
L -31.626677 65.226633 
L -31.522086 64.603026 
L -32.203812 65.126906 
L -35.816593 63.134196 
L -35.590781 62.456496 
L -38.142059 58.700824 
L -37.247698 58.515475 
L -37.366989 55.728895 
L -39.90046 51.41327 
L -41.838138 50.186679 
L -41.890032 47.965845 
L -43.408502 47.152838 
L -47.389675 39.858941 
L -54.581663 29.753846 
L -54.14493 29.341005 
L -55.50636 28.743565 
L -57.552546 29.186982 
L -58.344469 28.555603 
L -58.858712 28.931151 
L -58.683477 29.186982 
L -59.141105 29.56253 
z
" clip-path="url(#p176fc32bd8)" style="fill: #eeeeee; stroke: #000000; stroke-width: 0.3"/>
    <path d="M 0.024439 131.607514 
L 1.250627 132.971227 
L 2.325995 133.262757 
L 2.551219 132.36069 
L 3.580258 133.356655 
L 3.515006 134.475243 
L 2.746404 133.466666 
L 1.667318 133.681226 
z
" clip-path="url(#p176fc32bd8)" style="fill: #eeeeee; stroke: #000000; stroke-width: 0.3"/>
    <path d="M 0.669484 131.650618 
L 1.443875 131.071078 
L 0.762489 130.680985 
L 0.883801 130.532929 
L 1.524084 130.906241 
L 2.051494 132.848357 
z
" clip-path="url(#p176fc32bd8)" style="fill: #eeeeee; stroke: #000000; stroke-width: 0.3"/>
    <path d="M -43.584407 51.422967 
L -43.152395 50.893396 
L -43.256862 51.427439 
L -42.125252 52.296758 
L -43.187435 51.93538 
z
" clip-path="url(#p176fc32bd8)" style="fill: #eeeeee; stroke: #000000; stroke-width: 0.3"/>
    <path d="M -39.815539 53.28541 
L -39.771728 53.050466 
L -39.378806 53.032933 
L -39.150327 53.489411 
z
" clip-path="url(#p176fc32bd8)" style="fill: #eeeeee; stroke: #000000; stroke-width: 0.3"/>
    <path d="M -42.011352 52.262819 
L -41.645379 52.155411 
L -40.373592 53.271992 
L -41.697952 52.242683 
z
" clip-path="url(#p176fc32bd8)" style="fill: #eeeeee; stroke: #000000; stroke-width: 0.3"/>
    <path d="M -43.161828 49.985299 
L -43.029725 49.669793 
L -42.761485 49.448267 
L -42.593663 50.832978 
z
" clip-path="url(#p176fc32bd8)" style="fill: #eeeeee; stroke: #000000; stroke-width: 0.3"/>
    <path d="M 63.787264 36.343638 
L 64.854839 35.849125 
L 65.713488 36.093031 
z
" clip-path="url(#p176fc32bd8)" style="fill: #eeeeee; stroke: #000000; stroke-width: 0.3"/>
    <path d="M -40.215881 51.87795 
L -40.081757 51.775391 
L -40.008969 52.574595 
z
" clip-path="url(#p176fc32bd8)" style="fill: #eeeeee; stroke: #000000; stroke-width: 0.3"/>
    <path d="M -40.805612 52.320249 
L -40.686992 52.111033 
L -40.478058 52.225526 
z
" clip-path="url(#p176fc32bd8)" style="fill: #eeeeee; stroke: #000000; stroke-width: 0.3"/>
    <path d="M -41.223471 52.785681 
L -40.165337 53.723245 
L -40.203078 54.026442 
z
" clip-path="url(#p176fc32bd8)" style="fill: #eeeeee; stroke: #000000; stroke-width: 0.3"/>
    <path d="M 39.57298 19.796671 
L 42.231556 16.599679 
L 44.643616 11.478314 
L 49.028643 10.608729 
L 51.296484 11.563487 
L 53.190939 15.707382 
L 51.441598 15.392261 
L 49.281586 17.341398 
L 52.557447 17.466771 
L 53.039382 20.515835 
L 54.986493 23.026071 
L 54.640744 23.96885 
L 55.311272 24.885838 
L 48.978571 24.949766 
L 47.040272 20.723804 
z
" clip-path="url(#p176fc32bd8)" style="fill: #eeeeee; stroke: #000000; stroke-width: 0.3"/>
    <path d="M 52.108623 13.337549 
L 53.362215 12.193005 
L 52.728003 11.679465 
L 53.290097 11.659704 
L 54.648156 14.168823 
L 53.623722 15.175749 
L 53.065668 14.902761 
z
" clip-path="url(#p176fc32bd8)" style="fill: #eeeeee; stroke: #000000; stroke-width: 0.3"/>
    <path d="M 53.956874 16.736012 
L 54.948753 16.780125 
L 55.017889 17.122678 
z
" clip-path="url(#p176fc32bd8)" style="fill: #eeeeee; stroke: #000000; stroke-width: 0.3"/>
    <path d="M 51.816118 11.688043 
L 52.631627 11.252454 
L 51.984611 11.774564 
z
" clip-path="url(#p176fc32bd8)" style="fill: #eeeeee; stroke: #000000; stroke-width: 0.3"/>
    <path d="M 72.008416 46.688909 
L 72.278006 45.946768 
L 73.204044 45.98331 
L 72.858975 46.389809 
L 73.637912 46.834243 
L 72.972203 50.09904 
z
" clip-path="url(#p176fc32bd8)" style="fill: #eeeeee; stroke: #000000; stroke-width: 0.3"/>
    <path d="M 74.986389 51.249083 
L 75.080727 51.115682 
L 75.054523 51.202679 
z
" clip-path="url(#p176fc32bd8)" style="fill: #eeeeee; stroke: #000000; stroke-width: 0.3"/>
    <path d="M 74.839635 51.556496 
L 75.054523 51.428888 
L 75.012593 51.544893 
z
" clip-path="url(#p176fc32bd8)" style="fill: #eeeeee; stroke: #000000; stroke-width: 0.3"/>
    <path d="M 74.755782 50.506657 
L 74.834401 50.413859 
L 74.844878 50.471857 
z
" clip-path="url(#p176fc32bd8)" style="fill: #eeeeee; stroke: #000000; stroke-width: 0.3"/>
    <path d="M 74.430837 51.156275 
L 74.923497 50.634266 
L 74.556621 52.020507 
z
" clip-path="url(#p176fc32bd8)" style="fill: #eeeeee; stroke: #000000; stroke-width: 0.3"/>
    <path d="M 73.362326 45.958655 
L 73.717914 45.634002 
L 73.913489 46.263639 
z
" clip-path="url(#p176fc32bd8)" style="fill: #eeeeee; stroke: #000000; stroke-width: 0.3"/>
    <path d="M 71.486604 47.040847 
L 71.762182 46.647326 
L 71.797744 47.070359 
z
" clip-path="url(#p176fc32bd8)" style="fill: #eeeeee; stroke: #000000; stroke-width: 0.3"/>
   </g>
   <g id="PatchCollection_2">
    <defs>
     <path id="m64d10cd006" d="M 74.51021 -55.198656 
L 75.306853 -54.948049 
L 74.791932 -56.205591 
L 75.389746 -56.629615 
L 75.733474 -55.54251 
L 76.386561 -56.58673 
L 75.64114 -56.905215 
L 76.441826 -59.658983 
L 78.653135 -61.297297 
L 79.789457 -59.527708 
L 81.355108 -58.737825 
L 81.459574 -57.189394 
L 80.755944 -56.962654 
L 81.123258 -56.449489 
L 80.480955 -55.443305 
L 80.869164 -53.387309 
L 81.604473 -53.002807 
L 81.63278 -50.869612 
L 79.393164 -46.722555 
L 78.875551 -47.575834 
L 76.397601 -46.702703 
L 74.98132 -48.342585 
L 75.40997 -48.791235 
z
" style="stroke: #dd0000"/>
    </defs>
    <g clip-path="url(#p176fc32bd8)">
     <use xlink:href="#m64d10cd006" x="0" y="108" style="fill: #ff6b6b; stroke: #dd0000"/>
    </g>
   </g>
  </g>
 </g>
 <defs>
  <clipPath id="p176fc32bd8">
   <rect x="0" y="0" width="156.14299" height="108"/>
  </clipPath>
 </defs>
</svg>
