<?xml version="1.0" encoding="utf-8" standalone="no"?>
<!DOCTYPE svg PUBLIC "-//W3C//DTD SVG 1.1//EN"
  "http://www.w3.org/Graphics/SVG/1.1/DTD/svg11.dtd">
<svg xmlns:xlink="http://www.w3.org/1999/xlink" width="167.730185pt" height="108pt" viewBox="0 0 167.730185 108" xmlns="http://www.w3.org/2000/svg" version="1.1">
 <metadata>
  <rdf:RDF xmlns:dc="http://purl.org/dc/elements/1.1/" xmlns:cc="http://creativecommons.org/ns#" xmlns:rdf="http://www.w3.org/1999/02/22-rdf-syntax-ns#">
   <cc:Work>
    <dc:type rdf:resource="http://purl.org/dc/dcmitype/StillImage"/>
    <dc:date>2025-09-05T15:49:29.837439</dc:date>
    <dc:format>image/svg+xml</dc:format>
    <dc:creator>
     <cc:Agent>
      <dc:title>Matplotlib v3.10.3, https://matplotlib.org/</dc:title>
     </cc:Agent>
    </dc:creator>
   </cc:Work>
  </rdf:RDF>
 </metadata>
 <defs>
  <style type="text/css">*{stroke-linejoin: round; stroke-linecap: butt}</style>
 </defs>
 <g id="figure_1">
  <g id="patch_1">
   <path d="M 0 108 
L 167.730185 108 
L 167.730185 0 
L 0 0 
z
" style="fill: #ffffff"/>
  </g>
  <g id="axes_1">
   <g id="PatchCollection_1">
    <path d="M 1432.636166 -797.073589 
L 1432.727936 -801.394319 
L 1437.548624 -804.098801 
L 1451.695431 -806.649392 
L 1454.629033 -804.098801 
L 1455.626775 -806.659452 
L 1461.033209 -805.413323 
L 1462.700646 -809.34683 
L 1469.551941 -810.096114 
L 1469.772573 -808.165065 
L 1472.869227 -810.071965 
L 1472.053083 -807.320223 
L 1474.867612 -808.839925 
L 1482.684427 -801.117731 
L 1491.472591 -805.802549 
L 1491.130894 -804.098801 
L 1493.92882 -802.91805 
L 1497.799632 -804.604693 
L 1499.528584 -801.230393 
L 1498.366832 -804.435724 
L 1500.360347 -805.802549 
L 1502.804868 -806.138458 
L 1503.949994 -803.759851 
L 1514.493454 -804.435724 
L 1509.765496 -807.00342 
L 1508.582295 -809.529862 
L 1510.860837 -814.085926 
L 1508.806814 -813.970274 
L 1508.402665 -818.589713 
L 1509.890447 -818.827075 
L 1503.458945 -822.738434 
L 1501.822746 -826.376271 
L 1502.906379 -828.572835 
L 1500.61025 -831.151579 
L 1508.492468 -829.321105 
L 1516.736872 -830.444537 
L 1517.58327 -828.679441 
L 1515.700096 -827.048115 
L 1520.100032 -821.792029 
L 1524.477535 -822.949645 
L 1541.774666 -820.176795 
L 1556.908441 -824.427104 
L 1558.872661 -825.45399 
L 1553.202624 -824.723812 
L 1548.877832 -826.476846 
L 1552.698859 -831.280307 
L 1576.339657 -837.451631 
L 1583.53265 -843.276959 
L 1587.168193 -842.729839 
L 1584.024683 -844.839892 
L 1585.676476 -847.133026 
L 1584.35268 -847.975841 
L 1584.961867 -859.445468 
L 1607.543912 -864.852158 
L 1609.622839 -861.727554 
L 1609.102112 -858.867674 
L 1613.900271 -855.850665 
L 1622.117876 -857.227598 
L 1625.519975 -850.995618 
L 1633.611141 -849.74897 
L 1635.736205 -845.342249 
L 1643.08841 -846.475221 
L 1647.750198 -844.360003 
L 1646.026835 -841.13863 
L 1648.047749 -839.457697 
L 1646.168174 -837.352687 
L 1658.504502 -837.5877 
L 1662.576128 -841.958656 
L 1663.927539 -841.42602 
L 1661.81735 -836.940103 
L 1663.647334 -835.828857 
L 1663.379532 -832.883381 
L 1673.221316 -830.341539 
L 1677.945099 -825.586129 
L 1684.907982 -826.834038 
L 1690.050814 -824.161911 
L 1700.656366 -824.758417 
L 1708.118911 -817.180153 
L 1712.931946 -818.36167 
L 1716.006719 -815.913063 
L 1721.568623 -815.849193 
L 1724.83435 -817.42923 
L 1730.220175 -814.187416 
L 1743.783946 -812.229302 
L 1734.425703 -803.737754 
L 1732.997397 -796.973781 
L 1729.037382 -791.74256 
L 1729.887907 -787.830162 
L 1727.266899 -781.301845 
L 1729.046067 -778.268943 
L 1724.068134 -774.463126 
L 1714.345352 -775.907761 
L 1711.78634 -772.572713 
L 1715.862909 -771.963428 
L 1706.958431 -764.344924 
L 1701.613512 -762.438543 
L 1701.291152 -757.906653 
L 1693.834797 -753.522943 
L 1692.294928 -749.468124 
L 1694.234028 -748.256599 
L 1693.249603 -745.355836 
L 1689.909475 -744.042747 
L 1690.006188 -742.326048 
L 1694.360491 -742.81397 
L 1697.740277 -745.035226 
L 1696.130974 -746.898821 
L 1697.450139 -748.370917 
L 1702.580567 -750.189156 
L 1709.87699 -749.338481 
L 1708.996715 -747.641555 
L 1710.851507 -745.762017 
L 1709.3637 -742.848476 
L 1715.515766 -737.253859 
L 1710.206787 -734.811654 
L 1710.090233 -732.134411 
L 1718.840994 -724.540797 
L 1716.316698 -719.66531 
L 1705.454501 -716.940831 
L 1708.87769 -712.104941 
L 1715.156194 -709.985867 
L 1716.309237 -706.594636 
L 1714.022993 -706.552468 
L 1711.044908 -702.86616 
L 1713.013783 -700.450774 
L 1711.773936 -698.86436 
L 1714.57347 -695.641702 
L 1722.927471 -692.762641 
L 1730.716119 -694.018236 
L 1731.539364 -691.330785 
L 1726.451091 -686.342264 
L 1726.416086 -683.848771 
L 1718.623696 -681.133215 
L 1718.318851 -678.64291 
L 1714.076327 -678.299016 
L 1712.44344 -675.518825 
L 1708.535536 -675.02989 
L 1705.170529 -671.595428 
L 1707.629302 -671.696151 
L 1707.303655 -669.930833 
L 1699.999698 -667.194317 
L 1695.628961 -667.63755 
L 1695.314039 -665.836861 
L 1689.576463 -668.261566 
L 1687.553342 -666.057019 
L 1683.170296 -669.395355 
L 1675.326298 -670.285429 
L 1674.05934 -673.735314 
L 1667.817736 -673.241065 
L 1667.628485 -675.066521 
L 1672.431611 -676.820543 
L 1667.700726 -678.755621 
L 1668.227883 -675.559337 
L 1663.838696 -675.36622 
L 1663.541264 -673.396859 
L 1661.191104 -675.388342 
L 1660.82208 -677.912807 
L 1659.674027 -679.262526 
L 1660.824047 -675.393384 
L 1662.689563 -673.50999 
L 1641.880953 -678.294987 
L 1621.75269 -667.576646 
L 1620.020835 -655.780156 
L 1623.358874 -650.896709 
L 1617.426362 -651.854287 
L 1610.912278 -648.611213 
L 1601.680473 -650.826067 
L 1594.920901 -648.850057 
L 1588.119174 -652.434825 
L 1588.354753 -655.305581 
L 1581.332322 -654.947945 
L 1579.251883 -657.747787 
L 1566.543603 -660.78714 
L 1562.786899 -660.95512 
L 1562.48191 -657.15002 
L 1546.106201 -657.16663 
L 1539.295788 -661.056016 
L 1533.387988 -659.329109 
L 1528.814228 -663.626604 
L 1519.451018 -665.090395 
L 1516.185291 -667.647585 
L 1512.080219 -666.063075 
L 1513.367162 -670.963477 
L 1508.127618 -671.054166 
L 1503.939461 -674.202721 
L 1507.189186 -674.828146 
L 1511.606708 -679.286651 
L 1516.876483 -703.410685 
L 1518.57319 -706.115167 
L 1521.974425 -706.212727 
L 1518.915847 -708.90312 
L 1516.801315 -705.174768 
L 1521.002092 -728.448944 
L 1528.657823 -722.443598 
L 1529.862521 -717.708505 
L 1534.212673 -711.787619 
L 1532.736575 -714.99295 
L 1535.193788 -714.334181 
L 1531.301503 -716.833484 
L 1527.954922 -726.176942 
L 1517.114678 -731.930863 
L 1519.117934 -734.323559 
L 1523.355826 -732.114933 
L 1519.40788 -735.842247 
L 1521.879752 -740.060375 
L 1517.99037 -743.415592 
L 1520.390962 -746.58271 
L 1517.28747 -746.127094 
L 1503.964629 -751.324847 
L 1501.217494 -756.20073 
L 1496.206403 -759.368862 
L 1499.278657 -764.693316 
L 1493.270833 -767.340479 
L 1495.092516 -767.968054 
L 1495.203792 -770.521686 
L 1505.604738 -769.028135 
L 1498.812992 -771.721544 
L 1492.376595 -769.909163 
L 1486.052457 -771.236761 
L 1488.590716 -771.407756 
L 1485.706873 -773.29152 
L 1489.65482 -774.290228 
L 1487.185898 -775.959791 
L 1490.324515 -776.32991 
L 1483.893012 -776.667847 
L 1484.675951 -776.89715 
L 1485.216808 -777.510661 
L 1479.451089 -776.157926 
L 1477.240877 -777.621297 
L 1481.266918 -777.446297 
L 1482.534068 -778.757804 
L 1482.645368 -779.217424 
L 1482.104535 -779.705223 
L 1476.996803 -778.538535 
L 1475.671064 -780.226192 
L 1476.504771 -777.67963 
L 1472.105818 -778.619015 
L 1471.903732 -775.638959 
L 1470.25093 -779.627783 
L 1472.231753 -781.914862 
L 1470.428617 -782.267876 
L 1469.684714 -780.043159 
L 1466.467979 -781.054942 
L 1468.282823 -780.902065 
L 1466.467979 -781.392879 
L 1468.282823 -783.279684 
L 1464.352463 -781.233971 
L 1447.899763 -786.654997 
L 1446.627719 -783.92335 
L 1442.150647 -783.770473 
L 1440.643335 -787.934297 
L 1433.601662 -789.539496 
L 1444.2242 -791.388062 
L 1441.972001 -794.279606 
L 1437.696033 -792.915797 
L 1436.044239 -795.631352 
L 1437.954741 -797.108812 
L 1438.702555 -795.848594 
L 1444.608844 -795.664548 
L 1446.573064 -796.137244 
L 1440.185467 -796.826193 
L 1444.115851 -799.203787 
z
M 1593.765387 -651.384878 
L 1595.012647 -651.203502 
L 1593.983596 -652.139773 
z
" clip-path="url(#p6b7c351813)" style="fill: #eeeeee; stroke: #000000; stroke-width: 0.3"/>
    <path d="M 236.697294 340.401026 
L 242.447633 336.507784 
L 247.375974 327.380133 
L 246.392797 320.598907 
L 251.386829 312.491838 
L 251.583973 308.334194 
L 245.676172 302.086865 
L 241.704977 294.296575 
L 239.782 276.711856 
L 243.989998 268.731885 
L 249.993455 263.523824 
L 253.042461 255.904554 
L 277.934502 264.286159 
L 290.11133 276.886287 
L 292.747189 276.013292 
L 291.275025 281.120531 
L 293.879646 277.392179 
L 298.855564 281.887908 
L 300.625519 287.808794 
L 298.333277 290.78581 
L 300.967193 289.343573 
L 301.623237 282.823265 
L 304.206385 283.886336 
L 307.864385 295.265448 
L 290.918908 320.001116 
L 289.624527 326.285472 
L 282.874887 339.246326 
L 275.909485 344.183138 
L 269.009822 343.62749 
L 269.833068 342.26205 
L 267.195937 339.823676 
L 262.692882 342.35914 
L 257.102475 339.352339 
L 248.783743 345.641046 
z
" clip-path="url(#p6b7c351813)" style="fill: #eeeeee; stroke: #000000; stroke-width: 0.3"/>
    <path d="M 1752.151911 -649.552526 
L 1754.801445 -650.856988 
L 1755.992468 -654.547102 
L 1765.797879 -658.324716 
L 1769.980134 -656.909619 
L 1771.288286 -665.041157 
L 1774.103799 -664.703221 
L 1773.596147 -656.064777 
L 1775.640406 -654.160893 
L 1776.396017 -643.853924 
L 1772.64332 -639.068531 
L 1772.606228 -632.975686 
L 1769.980134 -630.997352 
L 1771.382024 -629.879976 
L 1768.025678 -626.593152 
L 1768.324405 -624.721449 
L 1757.97425 -629.386147 
L 1761.115794 -632.68402 
L 1754.695999 -634.049831 
L 1758.302272 -637.931035 
L 1753.715844 -637.779171 
L 1753.044206 -639.464801 
L 1756.851558 -641.630196 
L 1752.552173 -645.386701 
L 1755.478962 -646.977786 
z
" clip-path="url(#p6b7c351813)" style="fill: #eeeeee; stroke: #000000; stroke-width: 0.3"/>
    <path d="M 78.248246 30.933018 
L 86.409661 32.64381 
L 85.013649 35.384478 
L 88.062462 40.437388 
L 86.618586 41.769014 
L 86.66837 40.091418 
L 81.844754 40.320721 
L 80.973932 39.087668 
L 83.609791 37.890825 
L 79.685285 35.371403 
z
" clip-path="url(#p6b7c351813)" style="fill: #eeeeee; stroke: #000000; stroke-width: 0.3"/>
    <path d="M 2872.021958 917.700857 
L 2873.509764 914.784152 
L 2880.489922 913.870942 
L 2887.11473 920.846842 
L 2886.095516 925.433086 
L 2880.409859 926.060686 
L 2875.001458 923.675035 
z
" clip-path="url(#p6b7c351813)" style="fill: #eeeeee; stroke: #000000; stroke-width: 0.3"/>
    <path d="M 2627.710382 711.772591 
L 2628.870167 710.507355 
L 2631.506026 712.378044 
L 2631.162385 718.456825 
L 2629.022469 718.790733 
L 2628.190707 716.718894 
L 2629.965508 716.851651 
z
" clip-path="url(#p6b7c351813)" style="fill: #eeeeee; stroke: #000000; stroke-width: 0.3"/>
    <path d="M 70.457799 -4.632466 
L 72.417125 -10.260673 
L 74.739622 -6.20044 
L 79.589604 -3.831893 
L 72.425906 -2.579733 
z
" clip-path="url(#p6b7c351813)" style="fill: #eeeeee; stroke: #000000; stroke-width: 0.3"/>
    <path d="M 64.383589 -5.295264 
L 65.810863 -6.607784 
L 70.278169 -4.636495 
L 69.934528 1.593137 
L 66.840801 3.678077 
z
" clip-path="url(#p6b7c351813)" style="fill: #eeeeee; stroke: #000000; stroke-width: 0.3"/>
    <path d="M 1509.712785 -745.324494 
L 1515.656166 -744.216165 
L 1516.296591 -742.961978 
L 1510.949681 -744.234258 
z
" clip-path="url(#p6b7c351813)" style="fill: #eeeeee; stroke: #000000; stroke-width: 0.3"/>
    <path d="M 75.547944 4.103513 
L 77.076753 2.192584 
L 78.859376 4.100497 
L 76.918596 5.541746 
z
" clip-path="url(#p6b7c351813)" style="fill: #eeeeee; stroke: #000000; stroke-width: 0.3"/>
    <path d="M 2633.306235 714.403637 
L 2633.470246 712.884949 
L 2633.470246 714.403637 
z
" clip-path="url(#p6b7c351813)" style="fill: #eeeeee; stroke: #000000; stroke-width: 0.3"/>
    <path d="M 1773.924169 -656.233745 
L 1774.537243 -655.558885 
L 1774.410324 -655.533748 
z
" clip-path="url(#p6b7c351813)" style="fill: #eeeeee; stroke: #000000; stroke-width: 0.3"/>
    <path d="M 1694.980954 -664.940582 
L 1695.195733 -665.170899 
L 1697.044767 -665.014018 
z
" clip-path="url(#p6b7c351813)" style="fill: #eeeeee; stroke: #000000; stroke-width: 0.3"/>
    <path d="M 1513.33271 -740.415416 
L 1517.10688 -739.145138 
L 1518.028446 -734.507605 
z
" clip-path="url(#p6b7c351813)" style="fill: #eeeeee; stroke: #000000; stroke-width: 0.3"/>
    <path d="M 1491.962657 -764.639012 
L 1494.256842 -764.420757 
L 1495.635292 -761.590563 
z
" clip-path="url(#p6b7c351813)" style="fill: #eeeeee; stroke: #000000; stroke-width: 0.3"/>
    <path d="M 1489.868614 -756.96309 
L 1491.901165 -756.901741 
L 1492.603081 -756.339519 
z
" clip-path="url(#p6b7c351813)" style="fill: #eeeeee; stroke: #000000; stroke-width: 0.3"/>
    <path d="M 1468.77584 -773.29152 
L 1473.455957 -771.282018 
L 1469.7023 -771.534482 
z
" clip-path="url(#p6b7c351813)" style="fill: #eeeeee; stroke: #000000; stroke-width: 0.3"/>
    <path d="M 1423.892891 -799.864558 
L 1424.876957 -800.419736 
L 1424.968727 -799.589996 
z
" clip-path="url(#p6b7c351813)" style="fill: #eeeeee; stroke: #000000; stroke-width: 0.3"/>
    <path d="M 81.315606 -5.127309 
L 82.574982 -6.092821 
L 81.868171 -5.048856 
z
" clip-path="url(#p6b7c351813)" style="fill: #eeeeee; stroke: #000000; stroke-width: 0.3"/>
    <path d="M 69.221863 5.811289 
L 69.599693 5.367735 
L 69.545998 5.83744 
z
" clip-path="url(#p6b7c351813)" style="fill: #eeeeee; stroke: #000000; stroke-width: 0.3"/>
    <path d="M 68.198762 6.049639 
L 68.732781 5.880671 
L 68.45747 6.20353 
z
" clip-path="url(#p6b7c351813)" style="fill: #eeeeee; stroke: #000000; stroke-width: 0.3"/>
    <path d="M -213.770068 170.635886 
L -204.046039 155.368846 
L -202.351203 140.025825 
L -192.380462 123.02293 
L -186.808649 122.179893 
L -179.706875 109.647589 
L -164.988813 104.979036 
L -165.48147 107.26174 
L -179.453517 111.394395 
L -176.967993 120.645336 
L -171.438526 125.638899 
L -174.85051 125.630841 
L -170.234812 132.902461 
L -171.512734 139.504238 
L -179.65853 148.113491 
L -183.38486 155.025027 
L -180.375082 159.260259 
L -179.125495 162.067343 
L -180.10956 160.364584 
L -180.286263 164.092911 
L -178.455799 163.080114 
L -176.667298 164.583725 
L -178.019405 164.702418 
L -178.127778 165.934458 
L -174.031439 165.934458 
L -175.998587 169.676874 
L -174.275512 169.570268 
L -173.408601 173.547005 
L -169.788676 174.415996 
L -162.191534 171.593834 
L -157.905801 167.369675 
L -157.263433 157.051633 
L -167.66925 140.794611 
L -170.398823 130.72399 
L -167.10692 131.045836 
L -166.304451 128.00846 
L -168.431699 126.996677 
L -137.960071 117.318346 
L -136.122242 114.392124 
L -133.29267 115.11066 
L -136.293355 111.955703 
L -127.495713 115.21425 
L -126.265656 113.566834 
L -128.002382 108.86291 
L -137.497357 110.953881 
L -137.40657 106.869499 
L -139.661697 104.79766 
L -137.353859 98.522746 
L -132.84164 96.374455 
L -128.465144 100.915442 
L -126.349604 110.380585 
L -123.385723 114.446848 
L -114.911905 112.759192 
L -105.141619 114.814965 
L -94.108093 121.058686 
L -91.111991 127.850565 
L -93.467669 128.00846 
L -90.16209 128.852288 
L -92.395743 130.221114 
L -91.319932 134.464404 
L -87.539907 138.67047 
L -81.202118 139.548482 
L -60.736068 135.617991 
L -43.066002 134.606208 
L -37.563886 136.476922 
L -39.379691 138.193745 
L -34.600005 143.750519 
L -14.469799 149.551723 
L -7.095234 148.491667 
L -5.665992 145.100239 
L 0.299845 144.581271 
L 2.499334 143.291912 
L 0.419927 142.499372 
L 7.013497 138.920882 
L 19.814027 138.50249 
L 10.773008 136.140987 
L 5.925953 137.99561 
L 5.041479 134.099303 
L 13.573862 135.128191 
L 16.044751 133.08752 
L 22.253677 135.175475 
L 31.652012 132.566526 
L 55.821911 133.761367 
L 63.221861 132.411647 
L 60.421991 134.606208 
L 53.459396 135.094995 
L 51.485434 137.620449 
L 43.630544 136.710254 
L 37.368906 137.605371 
L 35.269969 139.515287 
L 38.960191 137.587253 
L 39.581086 140.670901 
L 35.644848 140.644749 
L 35.43398 143.919487 
L 37.169747 143.666035 
L 36.909095 140.71114 
L 41.180169 140.954533 
L 44.488674 147.492935 
L 43.768188 148.69482 
L 40.86875 148.588213 
L 39.782189 149.686483 
L 37.892177 148.168808 
L 35.105959 148.168808 
L 40.301549 150.825017 
L 40.688136 149.001563 
L 42.326278 149.529601 
L 44.681956 148.461487 
L 45.607456 145.178692 
L 51.874948 157.98699 
L 53.350063 151.360075 
L 54.195477 152.249161 
L 54.346796 159.675635 
L 55.819968 157.495163 
L 54.838829 152.386936 
L 58.865854 153.830211 
L 54.209153 151.917255 
L 54.807735 150.239708 
L 63.565501 155.868855 
L 63.221861 159.351787 
L 64.797527 156.677485 
L 65.680057 160.702521 
L 65.974874 158.288716 
L 63.644172 154.998307 
L 69.298014 156.115288 
L 68.237174 153.228218 
L 73.382789 157.245047 
L 71.443424 154.691589 
L 72.977248 155.21451 
L 78.570414 161.172201 
L 82.237195 161.075655 
L 86.817745 164.169362 
L 88.662844 167.693523 
L 81.463998 172.911372 
L 80.82554 174.417998 
L 84.494265 170.93205 
L 81.122324 176.423471 
L 78.488408 185.107148 
L 67.701859 184.922088 
L 69.148663 186.430741 
L 76.698948 190.343114 
L 79.170796 187.96552 
L 82.875653 187.779447 
L 81.642668 188.631333 
L 81.789092 190.192264 
L 84.099881 185.923836 
L 90.892587 185.214767 
L 96.015937 187.00201 
L 98.583466 184.455423 
L 107.00263 186.368379 
L 111.601845 194.102585 
L 98.514776 204.520955 
L 94.891996 204.773864 
L 89.977907 211.891025 
L 93.068203 216.717967 
L 92.429073 220.153936 
L 94.358241 221.776116 
L 98.580491 220.620132 
L 100.222664 223.540076 
L 98.45278 226.39741 
L 90.703216 230.635509 
L 85.731473 229.445069 
L 85.101652 231.509196 
L 80.398958 231.901981 
L 78.428236 235.718574 
L 80.597326 244.982245 
L 73.995838 250.940899 
L 91.567992 270.104987 
L 92.807839 276.77061 
L 86.013549 281.51774 
L 84.05895 285.807573 
L 75.942376 286.158189 
L 76.482945 287.956011 
L 71.472791 289.097932 
L 69.90377 292.887706 
L 55.836618 296.798819 
L 49.250629 294.502866 
L 46.063021 298.096558 
L 41.662845 298.189817 
L 41.537629 307.425384 
L 38.182651 309.886127 
L 27.091088 300.050841 
L 23.277378 302.625902 
L 19.416523 300.359314 
L 10.633542 301.934877 
L 8.0175 296.298118 
L -2.610341 296.092469 
L -7.455621 292.000598 
L -7.969535 293.825881 
L -3.887376 299.698939 
L 6.667313 309.048207 
L 6.18874 320.683218 
L 11.595654 330.794376 
L 10.386206 336.815615 
L 26.296369 338.069925 
L 26.588955 341.869933 
L 25.650402 344.773242 
L 10.658349 350.263106 
L 9.306915 357.793492 
L 3.069317 364.140433 
L 1.724097 360.63869 
L -5.998189 367.06354 
L -8.599355 366.488761 
L -15.736469 370.046068 
L -17.326555 375.065881 
L -20.305239 375.400555 
L -25.474726 381.850963 
L -26.546579 379.630992 
L -24.895122 375.988113 
L -26.75548 373.588051 
L -30.339848 373.821779 
L -39.671436 379.828978 
L -43.286802 379.46494 
L -57.441982 367.683058 
L -65.652149 341.889089 
L -64.991307 338.717522 
L -74.249143 331.383219 
L -75.472867 328.359833 
L -80.975247 328.944845 
L -80.559893 326.562653 
L -67.864018 314.258343 
L -72.431564 306.003094 
L -75.596859 304.916738 
L -81.433979 285.865065 
L -79.467599 272.74775 
L -80.463205 265.926284 
L -75.243502 260.926245 
L -75.438151 254.922259 
L -70.575524 250.133628 
L -72.224511 246.766003 
L -71.235119 244.70316 
L -80.285902 241.849015 
L -83.903739 244.211383 
L -99.674412 246.237198 
L -109.890642 244.211383 
L -114.328606 247.601995 
L -116.374952 245.730738 
L -119.067889 246.574418 
L -135.516126 225.556943 
L -140.071268 226.403787 
L -149.290045 222.408363 
L -160.824217 225.80345 
L -171.293373 223.589881 
L -180.25241 224.560633 
L -182.758111 222.73409 
L -185.348121 215.439384 
L -191.885766 212.90392 
L -192.185813 201.705764 
L -188.456387 197.592834 
L -189.842515 191.376797 
L -196.605806 184.057201 
L -199.379309 172.627196 
L -203.320753 172.873084 
L -204.626291 168.142565 
L -209.485199 171.156385 
z
" clip-path="url(#p6b7c351813)" style="fill: #eeeeee; stroke: #000000; stroke-width: 0.3"/>
    <path d="M 1.734917 126.812606 
L 2.645758 124.464179 
L 6.256902 123.746063 
L 10.360054 126.238321 
L 12.099731 123.084279 
L 15.212004 122.661858 
L 16.631481 126.656713 
L 13.982906 128.852288 
L 10.104297 129.528161 
L 7.318078 126.812606 
z
" clip-path="url(#p6b7c351813)" style="fill: #eeeeee; stroke: #000000; stroke-width: 0.3"/>
    <path d="M 81.463998 178.145336 
L 81.850608 175.966866 
L 87.063762 173.067265 
L 86.497545 174.364682 
L 84.881836 174.805221 
z
" clip-path="url(#p6b7c351813)" style="fill: #eeeeee; stroke: #000000; stroke-width: 0.3"/>
    <path d="M 79.437229 185.44632 
L 80.480292 181.462761 
L 89.935032 178.109298 
L 91.046401 180.65853 
L 87.194855 184.398276 
z
" clip-path="url(#p6b7c351813)" style="fill: #eeeeee; stroke: #000000; stroke-width: 0.3"/>
    <path d="M 77.026969 187.442524 
L 78.052997 186.032444 
L 80.481899 186.952724 
L 83.118742 185.081021 
L 82.516393 187.343951 
z
" clip-path="url(#p6b7c351813)" style="fill: #eeeeee; stroke: #000000; stroke-width: 0.3"/>
    <path d="M 81.315606 179.832993 
L 85.426603 174.739843 
L 87.391783 175.429781 
L 86.753302 176.896167 
z
" clip-path="url(#p6b7c351813)" style="fill: #eeeeee; stroke: #000000; stroke-width: 0.3"/>
    <path d="M -4.028834 105.486584 
L -3.030133 103.784863 
L -1.821548 104.817755 
L -1.967013 105.82452 
z
" clip-path="url(#p6b7c351813)" style="fill: #eeeeee; stroke: #000000; stroke-width: 0.3"/>
    <path d="M -76.631309 101.547046 
L -76.010438 101.687861 
L -75.73707 101.784408 
L -76.41557 101.736135 
z
" clip-path="url(#p6b7c351813)" style="fill: #eeeeee; stroke: #000000; stroke-width: 0.3"/>
    <path d="M 88.117165 184.517587 
L 91.286011 181.303605 
L 92.686654 184.422796 
z
" clip-path="url(#p6b7c351813)" style="fill: #eeeeee; stroke: #000000; stroke-width: 0.3"/>
    <path d="M 87.227773 172.561373 
L 87.617286 170.80431 
L 90.027643 170.674568 
z
" clip-path="url(#p6b7c351813)" style="fill: #eeeeee; stroke: #000000; stroke-width: 0.3"/>
    <path d="M 84.442538 173.72806 
L 87.032524 170.647429 
L 86.159758 173.006929 
z
" clip-path="url(#p6b7c351813)" style="fill: #eeeeee; stroke: #000000; stroke-width: 0.3"/>
    <path d="M 70.55528 186.185445 
L 75.965841 186.039538 
L 77.187405 188.887628 
z
" clip-path="url(#p6b7c351813)" style="fill: #eeeeee; stroke: #000000; stroke-width: 0.3"/>
    <path d="M 52.371851 151.128745 
L 52.651073 150.122993 
L 53.875277 150.383489 
z
" clip-path="url(#p6b7c351813)" style="fill: #eeeeee; stroke: #000000; stroke-width: 0.3"/>
    <path d="M 51.139826 153.882488 
L 51.930586 153.55261 
L 51.706067 154.577468 
z
" clip-path="url(#p6b7c351813)" style="fill: #eeeeee; stroke: #000000; stroke-width: 0.3"/>
    <path d="M 49.056532 149.574859 
L 49.280092 149.509481 
L 49.710609 151.404319 
z
" clip-path="url(#p6b7c351813)" style="fill: #eeeeee; stroke: #000000; stroke-width: 0.3"/>
    <path d="M 40.78089 138.54273 
L 41.595067 139.349334 
L 43.691076 143.063597 
z
" clip-path="url(#p6b7c351813)" style="fill: #eeeeee; stroke: #000000; stroke-width: 0.3"/>
    <path d="M 20.087394 9.822235 
L 20.304116 9.822235 
L 20.282643 9.984159 
z
" clip-path="url(#p6b7c351813)" style="fill: #eeeeee; stroke: #000000; stroke-width: 0.3"/>
    <path d="M 11.429052 131.552741 
L 13.849173 131.513514 
L 13.7164 132.545417 
z
" clip-path="url(#p6b7c351813)" style="fill: #eeeeee; stroke: #000000; stroke-width: 0.3"/>
    <path d="M 6.236388 130.792383 
L 6.656181 130.277445 
L 7.343462 130.971412 
z
" clip-path="url(#p6b7c351813)" style="fill: #eeeeee; stroke: #000000; stroke-width: 0.3"/>
    <path d="M -22.33443 127.868658 
L -17.372164 128.372547 
L -18.324008 128.852288 
z
" clip-path="url(#p6b7c351813)" style="fill: #eeeeee; stroke: #000000; stroke-width: 0.3"/>
    <path d="M -41.109603 105.797381 
L -40.755238 105.661583 
L -39.182499 106.730711 
z
" clip-path="url(#p6b7c351813)" style="fill: #eeeeee; stroke: #000000; stroke-width: 0.3"/>
    <path d="M -53.349794 106.652258 
L -51.204984 105.640475 
L -51.846369 107.187316 
z
" clip-path="url(#p6b7c351813)" style="fill: #eeeeee; stroke: #000000; stroke-width: 0.3"/>
    <path d="M -56.069602 104.477816 
L -55.996402 104.424525 
L -53.52453 104.556269 
z
" clip-path="url(#p6b7c351813)" style="fill: #eeeeee; stroke: #000000; stroke-width: 0.3"/>
    <path d="M -56.951173 107.436739 
L -53.914068 106.678409 
L -56.307821 107.563466 
z
" clip-path="url(#p6b7c351813)" style="fill: #eeeeee; stroke: #000000; stroke-width: 0.3"/>
    <path d="M -76.682076 100.146038 
L -76.626438 100.094749 
L -76.660603 100.193298 
z
" clip-path="url(#p6b7c351813)" style="fill: #eeeeee; stroke: #000000; stroke-width: 0.3"/>
    <path d="M -76.696735 100.603656 
L -76.68793 100.549352 
L -76.674279 100.625778 
z
" clip-path="url(#p6b7c351813)" style="fill: #eeeeee; stroke: #000000; stroke-width: 0.3"/>
    <path d="M -76.791433 100.653932 
L -76.731884 100.595598 
L -76.764082 100.672049 
z
" clip-path="url(#p6b7c351813)" style="fill: #eeeeee; stroke: #000000; stroke-width: 0.3"/>
    <path d="M -76.860746 99.722604 
L -76.787522 99.716573 
L -76.778741 99.762844 
z
" clip-path="url(#p6b7c351813)" style="fill: #eeeeee; stroke: #000000; stroke-width: 0.3"/>
    <path d="M -76.966168 99.585842 
L -76.924182 99.622028 
L -76.93006 99.670302 
z
" clip-path="url(#p6b7c351813)" style="fill: #eeeeee; stroke: #000000; stroke-width: 0.3"/>
    <path d="M 64.5476 101.08441 
L 67.404115 95.456203 
L 68.807949 95.991261 
L 68.36083 100.201355 
z
" clip-path="url(#p6b7c351813)" style="fill: #eeeeee; stroke: #000000; stroke-width: 0.3"/>
    <path d="M 71.607819 90.406309 
L 73.244017 88.197659 
L 73.398264 88.601987 
z
" clip-path="url(#p6b7c351813)" style="fill: #eeeeee; stroke: #000000; stroke-width: 0.3"/>
    <path d="M 76.811207 71.237624 
L 79.024371 67.170347 
L 80.540488 68.954574 
L 79.498818 72.963494 
z
" clip-path="url(#p6b7c351813)" style="fill: #eeeeee; stroke: #000000; stroke-width: 0.3"/>
    <path d="M 79.012663 80.123464 
L 79.119068 79.453647 
L 79.316261 79.495889 
z
" clip-path="url(#p6b7c351813)" style="fill: #eeeeee; stroke: #000000; stroke-width: 0.3"/>
    <path d="M 76.862958 76.858787 
L 78.679747 75.30893 
L 77.697648 77.196723 
z
" clip-path="url(#p6b7c351813)" style="fill: #eeeeee; stroke: #000000; stroke-width: 0.3"/>
    <path d="M 75.04226 84.076077 
L 75.467906 83.316733 
L 75.635804 84.002667 
z
" clip-path="url(#p6b7c351813)" style="fill: #eeeeee; stroke: #000000; stroke-width: 0.3"/>
    <path d="M 72.575282 86.804708 
L 72.584063 86.285741 
L 73.278182 86.661891 
z
" clip-path="url(#p6b7c351813)" style="fill: #eeeeee; stroke: #000000; stroke-width: 0.3"/>
    <path d="M 116.020208 68.572369 
L 121.255817 72.609491 
L 119.289654 75.157066 
L 116.585465 74.250876 
z
" clip-path="url(#p6b7c351813)" style="fill: #eeeeee; stroke: #000000; stroke-width: 0.3"/>
    <path d="M 81.629976 54.827725 
L 85.11029 49.090909 
L 86.100209 55.979334 
L 84.591889 58.909091 
z
" clip-path="url(#p6b7c351813)" style="fill: #eeeeee; stroke: #000000; stroke-width: 0.3"/>
    <path d="M 71.783538 13.897546 
L 72.261895 11.471654 
L 76.131747 12.821399 
L 77.331551 15.457463 
L 77.355951 20.085949 
L 74.807951 22.150769 
z
" clip-path="url(#p6b7c351813)" style="fill: #eeeeee; stroke: #000000; stroke-width: 0.3"/>
   </g>
   <g id="PatchCollection_2">
    <defs>
     <path id="m46906a5314" d="M 81.629976 -53.172275 
L 85.11029 -58.909091 
L 86.100209 -52.020666 
L 84.591889 -49.090909 
z
" style="stroke: #dd0000; stroke-width: 0.5"/>
    </defs>
    <g clip-path="url(#p6b7c351813)">
     <use xlink:href="#m46906a5314" x="0" y="108" style="fill: #ff6b6b; stroke: #dd0000; stroke-width: 0.5"/>
    </g>
   </g>
  </g>
 </g>
 <defs>
  <clipPath id="p6b7c351813">
   <rect x="0" y="0" width="167.730185" height="108"/>
  </clipPath>
 </defs>
</svg>
