<?xml version="1.0" encoding="utf-8" standalone="no"?>
<!DOCTYPE svg PUBLIC "-//W3C//DTD SVG 1.1//EN"
  "http://www.w3.org/Graphics/SVG/1.1/DTD/svg11.dtd">
<svg xmlns:xlink="http://www.w3.org/1999/xlink" width="167.84259pt" height="108pt" viewBox="0 0 167.84259 108" xmlns="http://www.w3.org/2000/svg" version="1.1">
 <metadata>
  <rdf:RDF xmlns:dc="http://purl.org/dc/elements/1.1/" xmlns:cc="http://creativecommons.org/ns#" xmlns:rdf="http://www.w3.org/1999/02/22-rdf-syntax-ns#">
   <cc:Work>
    <dc:type rdf:resource="http://purl.org/dc/dcmitype/StillImage"/>
    <dc:date>2025-09-05T15:49:29.864622</dc:date>
    <dc:format>image/svg+xml</dc:format>
    <dc:creator>
     <cc:Agent>
      <dc:title>Matplotlib v3.10.3, https://matplotlib.org/</dc:title>
     </cc:Agent>
    </dc:creator>
   </cc:Work>
  </rdf:RDF>
 </metadata>
 <defs>
  <style type="text/css">*{stroke-linejoin: round; stroke-linecap: butt}</style>
 </defs>
 <g id="figure_1">
  <g id="patch_1">
   <path d="M 0 108 
L 167.84259 108 
L 167.84259 0 
L 0 0 
z
" style="fill: #ffffff"/>
  </g>
  <g id="axes_1">
   <g id="PatchCollection_1">
    <path d="M 62.940971 46.365308 
L 76.642411 44.520811 
L 81.126429 48.691855 
L 80.562738 55.543171 
L 71.052649 55.543171 
z
" clip-path="url(#pf034429ff6)" style="fill: #eeeeee; stroke: #000000; stroke-width: 0.3"/>
    <path d="M 85.422133 58.108185 
L 92.587143 55.608687 
L 104.901619 63.479189 
L 95.128166 63.468726 
z
" clip-path="url(#pf034429ff6)" style="fill: #eeeeee; stroke: #000000; stroke-width: 0.3"/>
    <path d="M 123.961228 72.093775 
L 128.113147 70.196897 
L 131.473628 70.335753 
L 126.544247 73.872756 
z
" clip-path="url(#pf034429ff6)" style="fill: #eeeeee; stroke: #000000; stroke-width: 0.3"/>
    <path d="M 207.084767 78.670019 
L 207.47922 78.580937 
L 207.444853 78.966082 
z
" clip-path="url(#pf034429ff6)" style="fill: #eeeeee; stroke: #000000; stroke-width: 0.3"/>
    <path d="M 164.256317 69.431855 
L 165.388766 68.965483 
L 165.457469 70.521774 
z
" clip-path="url(#pf034429ff6)" style="fill: #eeeeee; stroke: #000000; stroke-width: 0.3"/>
    <path d="M 160.582813 67.899164 
L 160.643885 67.246771 
L 161.350079 67.508771 
z
" clip-path="url(#pf034429ff6)" style="fill: #eeeeee; stroke: #000000; stroke-width: 0.3"/>
    <path d="M 116.006061 -33.120533 
L 116.386505 -32.774698 
L 116.134585 -32.646305 
z
" clip-path="url(#pf034429ff6)" style="fill: #eeeeee; stroke: #000000; stroke-width: 0.3"/>
   </g>
   <g id="PatchCollection_2">
    <path d="M 62.940971 46.365308 
L 76.642411 44.520811 
L 81.126429 48.691855 
L 80.562738 55.543171 
L 71.052649 55.543171 
z
" clip-path="url(#pf034429ff6)" style="fill: #ff6b6b; stroke: #dd0000; stroke-width: 0.5"/>
    <path d="M 85.422133 58.108185 
L 92.587143 55.608687 
L 104.901619 63.479189 
L 95.128166 63.468726 
z
" clip-path="url(#pf034429ff6)" style="fill: #ff6b6b; stroke: #dd0000; stroke-width: 0.5"/>
   </g>
  </g>
 </g>
 <defs>
  <clipPath id="pf034429ff6">
   <rect x="0" y="0" width="167.84259" height="108"/>
  </clipPath>
 </defs>
</svg>
