<?xml version="1.0" encoding="utf-8" standalone="no"?>
<!DOCTYPE svg PUBLIC "-//W3C//DTD SVG 1.1//EN"
  "http://www.w3.org/Graphics/SVG/1.1/DTD/svg11.dtd">
<svg xmlns:xlink="http://www.w3.org/1999/xlink" width="124.407036pt" height="108pt" viewBox="0 0 124.407036 108" xmlns="http://www.w3.org/2000/svg" version="1.1">
 <metadata>
  <rdf:RDF xmlns:dc="http://purl.org/dc/elements/1.1/" xmlns:cc="http://creativecommons.org/ns#" xmlns:rdf="http://www.w3.org/1999/02/22-rdf-syntax-ns#">
   <cc:Work>
    <dc:type rdf:resource="http://purl.org/dc/dcmitype/StillImage"/>
    <dc:date>2025-09-05T15:49:29.878964</dc:date>
    <dc:format>image/svg+xml</dc:format>
    <dc:creator>
     <cc:Agent>
      <dc:title>Matplotlib v3.10.3, https://matplotlib.org/</dc:title>
     </cc:Agent>
    </dc:creator>
   </cc:Work>
  </rdf:RDF>
 </metadata>
 <defs>
  <style type="text/css">*{stroke-linejoin: round; stroke-linecap: butt}</style>
 </defs>
 <g id="figure_1">
  <g id="patch_1">
   <path d="M 0 108 
L 124.407036 108 
L 124.407036 0 
L 0 0 
z
" style="fill: #ffffff"/>
  </g>
  <g id="axes_1">
   <g id="PatchCollection_1">
    <path d="M -425.432356 -79.887173 
L -383.182961 -97.963054 
L -378.81334 -115.571231 
L -393.675167 -127.200111 
L -395.29862 -142.241372 
L -410.453972 -158.110341 
L -390.393585 -175.262768 
L -379.409247 -169.607266 
L -347.025904 -182.09368 
L -321.741055 -174.561096 
L -299.444095 -198.670356 
L -301.387059 -215.480884 
L -275.333681 -236.414632 
L -272.078084 -211.252749 
L -241.093769 -194.352278 
L -244.522071 -181.973795 
L -235.91242 -177.793591 
L -233.485846 -163.789866 
L -224.927999 -163.130091 
L -219.858947 -172.210159 
L -224.953901 -188.498901 
L -206.344345 -210.76694 
L -201.543 -241.659297 
L -188.814222 -241.770247 
L -180.308178 -218.593493 
L -148.391234 -227.010768 
L -135.247945 -209.471528 
L -128.296339 -214.395416 
L -133.90941 -222.113921 
L -129.816185 -230.696112 
L -139.375678 -235.727931 
L -138.840264 -245.791455 
L -125.524269 -256.68257 
L -104.479449 -246.343183 
L -103.218704 -256.304809 
L -110.731625 -261.972265 
L -103.659116 -284.258292 
L -58.279373 -273.196227 
L -43.443448 -295.797229 
L 3.378438 -296.582809 
L 40.623535 -309.881961 
L 36.133011 -289.416032 
L 47.808256 -284.690135 
L 59.371289 -264.029349 
L 167.652293 -244.256156 
L 139.604064 -217.627911 
L 143.351877 -208.07422 
L 162.341436 -204.871551 
L 147.669695 -184.678585 
L 159.707648 -182.243624 
L 156.374347 -164.245616 
L 174.150535 -154.158186 
L 183.83962 -141.20987 
L 179.919101 -135.73437 
L 168.555595 -136.726181 
L 176.606353 -139.177042 
L 157.064168 -159.520764 
L 142.648937 -146.270007 
L 139.949476 -154.297917 
L 119.054218 -157.471339 
L 116.184808 -142.378782 
L 60.930907 -118.720049 
L 74.135775 -132.046358 
L 58.680214 -130.464405 
L 38.43768 -104.260343 
L 44.788533 -91.58557 
L 51.207399 -94.655123 
L 56.347973 -69.154589 
L 56.347973 -75.496676 
L 70.137635 -64.403972 
L 62.678438 -47.049492 
L 59.530209 -55.26634 
L 60.305339 -45.051945 
L 47.787201 -47.762537 
L 56.347973 19.081734 
L 83.315348 49.262091 
L 160.518456 99.181637 
L 198.9364 210.788759 
L 251.89875 259.919707 
L 254.530198 270.464628 
L 290.010719 288.664341 
L 371.48402 289.580483 
L 375.149031 305.863074 
L 351.397898 325.007246 
L 356.497614 343.018136 
L 448.075179 386.841168 
L 483.079693 416.05339 
L 527.440496 436.878858 
L 569.979071 496.238245 
L 559.371645 533.624838 
L 532.832651 522.664321 
L 515.418752 479.247367 
L 486.085129 477.150708 
L 460.02891 463.607143 
L 470.309974 454.544947 
L 441.302712 455.225033 
L 410.275952 502.59449 
L 412.519793 516.317592 
L 400.668082 538.484083 
L 405.359804 551.753756 
L 456.561086 581.310778 
L 457.703436 633.034175 
L 408.678066 651.913973 
L 407.338529 694.660358 
L 373.904662 727.886592 
L 366.193884 751.483931 
L 333.378818 749.901978 
L 329.067851 718.942541 
L 344.108651 709.620612 
L 352.880229 684.531031 
L 346.094143 669.188258 
L 372.497195 659.682266 
L 378.270022 645.095014 
L 340.899259 525.034988 
L 328.353883 503.368929 
L 310.458463 513.096239 
L 298.020703 508.98857 
L 286.821715 492.710737 
L 268.768629 484.352186 
L 276.048184 466.257504 
L 257.977635 434.654654 
L 221.266364 446.172353 
L 232.254629 427.712793 
L 217.220597 415.052295 
L 196.624295 420.760254 
L 194.422398 405.413071 
L 169.398738 367.049987 
L 154.534739 372.362661 
L 132.966287 362.02072 
L 112.812152 369.935359 
L 100.191995 349.997715 
L 78.610007 344.406508 
L 45.502501 310.892224 
L 27.231924 281.089744 
L 11.116788 276.32021 
L -3.026475 247.863626 
L -26.553265 233.063877 
L -49.114422 234.877244 
L -42.277285 224.547722 
L -44.783068 214.82633 
L -62.734136 194.057613 
L -80.474396 186.926929 
L -77.781703 173.713891 
L -99.839781 171.135485 
L -97.446295 135.590578 
L -115.070916 107.058441 
L -120.551471 65.974319 
L -134.00792 45.229161 
L -154.549662 35.567306 
L -155.589992 43.264689 
L -205.859732 7.124881 
L -207.525631 12.739648 
L -244.984877 -1.975033 
L -269.742333 12.862434 
L -303.026555 60.165856 
L -350.270471 72.288089 
L -352.310859 63.782031 
L -334.590735 40.359471 
L -337.457722 27.741102 
L -363.778891 33.822411 
L -394.460992 19.224831 
L -405.963531 -13.802484 
L -395.592229 -31.110774 
L -387.630288 -31.308765 
L -391.82712 -47.915383 
L -413.51096 -57.181256 
z
M 63.383634 291.436559 
L 63.467522 291.571532 
L 63.463177 291.44271 
z
M 58.589558 54.161723 
L 65.493873 57.802501 
L 65.817477 50.197499 
z
" clip-path="url(#p983e48312e)" style="fill: #eeeeee; stroke: #000000; stroke-width: 0.3"/>
    <path d="M -296.376495 443.551471 
L -292.555155 400.545354 
L -282.763633 413.673439 
L -265.193405 416.42175 
L -239.959941 402.45319 
L -205.859732 365.859953 
L -189.839764 375.365946 
L -188.126239 385.66541 
L -178.375575 381.70339 
L -182.36018 394.453599 
L -169.767261 396.035552 
L -182.999368 404.823741 
L -164.640307 414.33925 
L -170.161636 419.566855 
L -158.262215 459.531737 
L -172.813472 481.863607 
L -163.946725 502.655884 
L -177.8044 611.132175 
L -181.802624 616.317188 
L -223.967128 597.824668 
L -218.459418 602.386463 
L -222.981192 628.996603 
L -237.389654 642.611078 
L -248.813068 636.273749 
L -255.129915 644.197789 
L -261.929536 621.870678 
L -277.534743 602.679155 
L -271.585032 540.595017 
L -265.492528 546.965305 
L -261.412755 547.088092 
L -266.53971 544.717541 
L -262.296756 529.492796 
L -275.719199 522.532134 
L -277.167523 508.478506 
L -267.743221 500.271174 
L -276.943181 458.001777 
L -284.327513 443.301139 
z
" clip-path="url(#p983e48312e)" style="fill: #eeeeee; stroke: #000000; stroke-width: 0.3"/>
    <path d="M 61.209727 768.063972 
L 66.717437 742.020415 
L 84.40322 731.645515 
L 86.674301 722.134764 
L 100.824415 741.250735 
L 114.212851 734.818937 
L 117.517493 722.446489 
L 135.665748 718.899948 
L 141.785407 732.53334 
L 175.158029 747.569146 
L 194.353382 738.776199 
L 235.396007 739.357057 
L 268.428648 722.725023 
L 283.53746 729.624408 
L 296.008056 713.776329 
L 300.577371 720.482017 
L 330.638582 712.557978 
L 293.995324 772.191255 
L 283.843434 805.148357 
L 284.84299 822.290339 
L 297.245573 830.653532 
L 291.520289 836.485555 
L 303.963562 859.214102 
L 289.425925 869.357588 
L 284.040622 900.609833 
L 233.35612 884.544498 
L 215.935454 855.455063 
L 168.895576 840.674231 
L 123.630385 804.043276 
L 80.622654 794.976438 
z
" clip-path="url(#p983e48312e)" style="fill: #eeeeee; stroke: #000000; stroke-width: 0.3"/>
    <path d="M -132.654848 192.385833 
L -130.465316 186.058021 
L -104.531503 182.166795 
L -106.856977 198.014874 
z
" clip-path="url(#p983e48312e)" style="fill: #eeeeee; stroke: #000000; stroke-width: 0.3"/>
    <path d="M -188.615865 374.761528 
L -185.460784 368.943665 
L -185.454016 375.535967 
L -186.331166 376.301005 
z
" clip-path="url(#p983e48312e)" style="fill: #eeeeee; stroke: #000000; stroke-width: 0.3"/>
    <path d="M -289.468087 608.397907 
L -283.130853 606.01784 
L -283.130853 616.317188 
L -287.400962 616.019738 
z
" clip-path="url(#p983e48312e)" style="fill: #eeeeee; stroke: #000000; stroke-width: 0.3"/>
    <path d="M 291.819412 652.938743 
L 293.913692 650.450048 
L 294.362544 654.794587 
z
" clip-path="url(#p983e48312e)" style="fill: #eeeeee; stroke: #000000; stroke-width: 0.3"/>
    <path d="M 271.869316 698.499591 
L 276.805851 700.676561 
L 275.092327 702.253871 
z
" clip-path="url(#p983e48312e)" style="fill: #eeeeee; stroke: #000000; stroke-width: 0.3"/>
    <path d="M 269.910978 683.884022 
L 274.466758 687.926352 
L 273.378802 691.883613 
z
" clip-path="url(#p983e48312e)" style="fill: #eeeeee; stroke: #000000; stroke-width: 0.3"/>
    <path d="M 258.963571 678.170028 
L 265.076463 677.065063 
L 264.634462 681.91955 
z
" clip-path="url(#p983e48312e)" style="fill: #eeeeee; stroke: #000000; stroke-width: 0.3"/>
    <path d="M 237.966294 676.399253 
L 239.761367 676.668385 
L 238.727888 679.331744 
z
" clip-path="url(#p983e48312e)" style="fill: #eeeeee; stroke: #000000; stroke-width: 0.3"/>
    <path d="M 221.279983 680.994007 
L 222.483494 680.535936 
L 222.789469 681.947867 
z
" clip-path="url(#p983e48312e)" style="fill: #eeeeee; stroke: #000000; stroke-width: 0.3"/>
    <path d="M 180.033403 429.384573 
L 181.175753 423.916036 
L 189.784066 427.089458 
z
" clip-path="url(#p983e48312e)" style="fill: #eeeeee; stroke: #000000; stroke-width: 0.3"/>
    <path d="M 143.736894 421.191284 
L 144.525643 419.524379 
L 145.17845 419.382675 
z
" clip-path="url(#p983e48312e)" style="fill: #eeeeee; stroke: #000000; stroke-width: 0.3"/>
    <path d="M 121.910092 663.875584 
L 124.602702 661.235901 
L 125.581871 662.303148 
z
" clip-path="url(#p983e48312e)" style="fill: #eeeeee; stroke: #000000; stroke-width: 0.3"/>
    <path d="M 96.20739 992.553202 
L 98.560102 992.118806 
L 98.437696 993.762153 
z
" clip-path="url(#p983e48312e)" style="fill: #eeeeee; stroke: #000000; stroke-width: 0.3"/>
    <path d="M 69.491679 1032.711781 
L 71.959947 1032.182916 
L 76.590507 1035.894604 
z
" clip-path="url(#p983e48312e)" style="fill: #eeeeee; stroke: #000000; stroke-width: 0.3"/>
    <path d="M 52.390523 -108.269597 
L 58.047878 -118.195827 
L 61.536089 -116.122727 
z
" clip-path="url(#p983e48312e)" style="fill: #eeeeee; stroke: #000000; stroke-width: 0.3"/>
    <path d="M 52.322593 -117.766073 
L 55.926359 -120.065829 
L 55.783566 -118.72945 
z
" clip-path="url(#p983e48312e)" style="fill: #eeeeee; stroke: #000000; stroke-width: 0.3"/>
    <path d="M 50.568294 753.878157 
L 51.785425 750.733052 
L 56.347973 753.184029 
z
" clip-path="url(#p983e48312e)" style="fill: #eeeeee; stroke: #000000; stroke-width: 0.3"/>
    <path d="M 28.075067 746.322477 
L 30.006166 745.387418 
L 32.15484 750.279739 
z
" clip-path="url(#p983e48312e)" style="fill: #eeeeee; stroke: #000000; stroke-width: 0.3"/>
    <path d="M 19.262714 882.386446 
L 29.836134 884.893941 
L 28.088686 890.579618 
z
" clip-path="url(#p983e48312e)" style="fill: #eeeeee; stroke: #000000; stroke-width: 0.3"/>
    <path d="M -69.567763 237.776776 
L -63.055818 241.910442 
L -64.428861 243.295216 
z
" clip-path="url(#p983e48312e)" style="fill: #eeeeee; stroke: #000000; stroke-width: 0.3"/>
    <path d="M -116.974861 242.215668 
L -115.179704 240.737584 
L -115.40413 242.692656 
z
" clip-path="url(#p983e48312e)" style="fill: #eeeeee; stroke: #000000; stroke-width: 0.3"/>
    <path d="M -137.373725 212.748472 
L -134.939464 209.036784 
L -134.409147 213.848795 
z
" clip-path="url(#p983e48312e)" style="fill: #eeeeee; stroke: #000000; stroke-width: 0.3"/>
    <path d="M -158.162452 163.32402 
L -157.707417 156.522817 
L -154.767738 161.333551 
z
" clip-path="url(#p983e48312e)" style="fill: #eeeeee; stroke: #000000; stroke-width: 0.3"/>
    <path d="M -193.960394 369.661468 
L -190.519726 365.883629 
L -192.104076 371.899831 
z
" clip-path="url(#p983e48312e)" style="fill: #eeeeee; stroke: #000000; stroke-width: 0.3"/>
    <path d="M -279.771816 617.110544 
L -268.253234 620.35476 
L -274.440907 632.883071 
z
" clip-path="url(#p983e48312e)" style="fill: #eeeeee; stroke: #000000; stroke-width: 0.3"/>
    <path d="M -291.167992 396.828907 
L -281.430947 381.70339 
L -288.094543 397.079239 
z
" clip-path="url(#p983e48312e)" style="fill: #eeeeee; stroke: #000000; stroke-width: 0.3"/>
    <path d="M 58.589558 54.161723 
L 65.817477 50.197499 
L 65.493873 57.802501 
z
" clip-path="url(#p983e48312e)" style="fill: #eeeeee; stroke: #000000; stroke-width: 0.3"/>
   </g>
   <g id="PatchCollection_2">
    <defs>
     <path id="mcb62d696d4" d="M 58.589558 -53.838277 
L 65.817477 -57.802501 
L 65.493873 -50.197499 
z
" style="stroke: #dd0000; stroke-width: 1.5"/>
    </defs>
    <g clip-path="url(#p983e48312e)">
     <use xlink:href="#mcb62d696d4" x="0" y="108" style="fill: #ff6b6b; stroke: #dd0000; stroke-width: 1.5"/>
    </g>
   </g>
  </g>
 </g>
 <defs>
  <clipPath id="p983e48312e">
   <rect x="0" y="0" width="124.407036" height="108"/>
  </clipPath>
 </defs>
</svg>
