<?xml version="1.0" encoding="utf-8" standalone="no"?>
<!DOCTYPE svg PUBLIC "-//W3C//DTD SVG 1.1//EN"
  "http://www.w3.org/Graphics/SVG/1.1/DTD/svg11.dtd">
<svg xmlns:xlink="http://www.w3.org/1999/xlink" width="172.780615pt" height="108pt" viewBox="0 0 172.780615 108" xmlns="http://www.w3.org/2000/svg" version="1.1">
 <metadata>
  <rdf:RDF xmlns:dc="http://purl.org/dc/elements/1.1/" xmlns:cc="http://creativecommons.org/ns#" xmlns:rdf="http://www.w3.org/1999/02/22-rdf-syntax-ns#">
   <cc:Work>
    <dc:type rdf:resource="http://purl.org/dc/dcmitype/StillImage"/>
    <dc:date>2025-09-05T15:49:29.892190</dc:date>
    <dc:format>image/svg+xml</dc:format>
    <dc:creator>
     <cc:Agent>
      <dc:title>Matplotlib v3.10.3, https://matplotlib.org/</dc:title>
     </cc:Agent>
    </dc:creator>
   </cc:Work>
  </rdf:RDF>
 </metadata>
 <defs>
  <style type="text/css">*{stroke-linejoin: round; stroke-linecap: butt}</style>
 </defs>
 <g id="figure_1">
  <g id="patch_1">
   <path d="M 0 108 
L 172.780615 108 
L 172.780615 0 
L 0 0 
z
" style="fill: #ffffff"/>
  </g>
  <g id="axes_1">
   <g id="PatchCollection_1">
    <path d="M 153.505287 131.608251 
L 155.099459 127.730927 
L 159.469901 124.688167 
L 162.788309 127.754347 
L 166.314087 126.861082 
L 165.011164 125.690147 
L 166.942981 121.352668 
L 162.786625 119.213207 
L 164.256818 116.536778 
L 161.965394 113.746616 
L 160.249331 114.288586 
L 161.764691 110.501446 
L 160.823025 105.596894 
L 163.895545 106.978606 
L 166.845979 105.586859 
L 168.851397 106.976939 
L 175.275759 105.600244 
L 175.931404 101.80642 
L 174.752249 98.383943 
L 175.717317 99.044679 
L 178.077324 97.430469 
L 180.863839 98.951016 
L 184.158813 104.735432 
L 183.524902 106.28775 
L 191.452923 107.398477 
L 196.053344 101.831506 
L 198.69099 106.083674 
L 197.714207 107.811647 
L 201.666508 108.330198 
L 204.003099 106.005063 
L 202.604825 103.899041 
L 204.175385 99.852633 
L 206.639078 98.751957 
L 207.472026 95.182278 
L 206.113902 93.981223 
L 207.704513 92.955823 
L 208.102587 90.700931 
L 206.550443 84.453155 
L 208.139387 77.61657 
L 205.398023 75.084008 
L 202.793828 75.256297 
L 201.753493 72.36744 
L 197.478386 71.214907 
L 198.933527 68.747571 
L 198.125664 64.711198 
L 199.323234 62.218775 
L 201.439038 59.159295 
L 205.530159 57.836124 
L 207.784798 53.109737 
L 204.787546 49.599441 
L 204.290787 46.350936 
L 202.547957 45.366922 
L 196.887959 44.673978 
L 192.821096 47.117052 
L 186.456936 47.551975 
L 188.092715 46.240522 
L 186.124097 42.11633 
L 186.650956 37.141535 
L 188.793527 32.913613 
L 207.216121 33.38199 
L 209.306841 32.140796 
L 212.586765 34.460929 
L 214.078707 33.643782 
L 214.6524 35.416912 
L 219.83404 34.879117 
L 221.852842 36.791502 
L 224.207833 35.911201 
L 227.830629 36.621301 
L 232.799849 39.221613 
L 233.706397 41.11142 
L 235.149823 39.81251 
L 233.626113 35.861028 
L 233.963969 33.105987 
L 235.937603 31.909949 
L 240.329796 21.984605 
L 240.109009 16.802384 
L 242.261629 11.215765 
L 251.950864 9.920222 
L 256.185821 7.871915 
L 261.594932 9.341026 
L 262.387745 10.59308 
L 266.269796 10.215873 
L 267.880474 11.608866 
L 268.964309 10.030619 
L 272.582089 9.105583 
L 275.079249 11.617233 
L 274.863495 17.260727 
L 266.114243 32.930348 
L 266.09751 42.779995 
L 262.784136 51.436129 
L 264.060308 61.783852 
L 260.35221 71.059337 
L 260.889103 76.361991 
L 253.743862 84.317671 
L 249.124199 85.645843 
L 246.060045 88.42932 
L 240.893456 98.437467 
L 235.725199 103.206518 
L 236.226958 121.514923 
L 231.154037 131.293906 
L 225.030731 133.568867 
L 223.819793 136.091394 
L 219.693538 138.117123 
L 213.660566 145.821871 
L 211.096505 147.195215 
L 208.622762 146.246743 
L 206.694279 146.974403 
L 205.886431 141.678434 
L 207.811565 139.579112 
L 206.473492 137.115126 
L 199.311518 140.691506 
L 195.596736 139.962178 
L 195.556586 143.727566 
L 190.380804 146.959351 
L 185.844775 141.967822 
L 184.466568 142.538229 
L 181.920907 139.298092 
L 180.169727 138.961865 
L 177.938505 141.681768 
L 174.106622 142.429498 
L 173.052904 145.224693 
L 170.953817 144.987163 
L 167.998803 149.132946 
L 164.933743 145.33221 
L 164.7104 141.970881 
z
" clip-path="url(#pbbf87bc56a)" style="fill: #eeeeee; stroke: #000000; stroke-width: 0.3"/>
    <path d="M 111.368348 -5.379848 
L 112.856875 -11.113961 
L 116.039781 -15.618307 
L 117.739127 -22.666074 
L 116.369286 -24.41996 
L 116.789094 -26.485002 
L 124.81245 -34.30141 
L 130.509248 -37.818812 
L 132.054709 -42.082681 
L 133.447966 -41.968528 
L 137.789975 -45.528998 
L 138.888844 -43.44892 
L 143.503491 -43.376153 
L 144.841548 -47.522098 
L 152.254409 -41.205325 
L 153.231193 -36.488552 
L 155.795254 -36.178658 
L 160.292815 -39.660517 
L 160.751107 -43.398731 
L 165.775527 -46.689057 
L 163.581106 -49.66575 
L 168.184036 -54.730873 
L 168.150585 -57.039289 
L 170.95215 -60.952721 
L 171.517477 -67.842005 
L 174.37926 -69.626011 
L 173.81225 -71.455594 
L 176.87307 -71.39244 
L 180.701603 -74.35324 
L 182.382532 -82.022025 
L 181.686753 -83.894272 
L 187.189532 -86.550195 
L 187.751509 -94.693216 
L 191.064883 -96.442506 
L 192.745828 -104.017207 
L 196.242348 -110.415115 
L 199.923695 -114.615847 
L 202.887496 -114.001934 
L 210.181606 -118.862997 
L 208.979019 -121.633089 
L 211.024587 -129.211546 
L 208.092553 -131.796806 
L 203.267169 -132.324566 
L 201.260068 -143.77672 
L 206.97695 -143.827751 
L 209.188089 -138.741701 
L 213.466546 -136.668728 
L 214.742719 -128.802551 
L 217.193044 -127.698525 
L 218.587969 -118.735864 
L 216.736436 -113.099071 
L 218.629786 -102.402577 
L 227.417505 -93.818369 
L 212.712216 -92.693011 
L 203.150084 -93.606346 
L 199.334935 -88.337551 
L 205.866348 -80.49939 
L 217.233179 -72.009282 
L 223.525421 -58.990567 
L 225.502405 -58.230293 
L 223.396635 -51.712374 
L 220.01636 -49.410643 
L 212.707183 -34.371653 
L 206.476842 -29.85143 
L 210.201673 -27.034077 
L 210.201673 -21.051023 
L 208.622762 -17.737698 
L 210.872368 -15.697759 
L 211.817384 -6.917001 
L 216.294862 -3.538855 
L 217.868756 1.179181 
L 219.464401 2.1289 
L 216.813371 2.728165 
L 217.766738 4.998109 
L 234.07102 21.548015 
L 234.03757 27.257997 
L 235.937603 31.909949 
L 234.26504 32.387536 
L 233.607713 35.263429 
L 235.097972 40.067197 
L 233.706397 41.11142 
L 232.799849 39.221613 
L 227.830629 36.621301 
L 224.207833 35.911201 
L 221.852842 36.791502 
L 219.83404 34.879117 
L 214.6524 35.416912 
L 214.078707 33.643782 
L 212.586765 34.460929 
L 209.306841 32.140796 
L 207.216121 33.38199 
L 188.793527 32.913613 
L 188.632957 31.599651 
L 186.677723 30.937248 
L 179.979041 31.689154 
L 162.296567 30.300757 
L 157.350748 30.655387 
L 156.87239 32.837511 
L 135.331282 32.84002 
L 132.415982 31.23332 
L 134.760712 18.5183 
L 134.335322 14.940286 
L 129.685024 10.610851 
L 132.55739 9.173204 
L 129.428213 9.624328 
L 128.128348 6.069361 
L 129.396607 7.193537 
L 129.345242 5.176354 
L 131.341808 6.069361 
L 130.238164 4.623152 
L 131.664468 3.838795 
L 129.309687 3.792036 
L 131.505112 0.954259 
L 128.669627 2.939849 
L 127.037878 1.347424 
L 127.911041 3.321167 
L 126.382023 2.657323 
L 127.011548 4.512511 
L 124.852989 4.512511 
L 124.57247 2.633612 
L 122.70367 3.728818 
L 118.827769 1.519325 
L 118.253557 -5.804623 
L 116.818046 -7.203426 
L 117.15519 -5.663684 
L 116.03444 -6.579107 
L 115.869809 -5.612977 
L 113.712577 -8.798473 
L 114.805685 -5.154618 
z
" clip-path="url(#pbbf87bc56a)" style="fill: #eeeeee; stroke: #000000; stroke-width: 0.3"/>
    <path d="M 114.367121 77.384445 
L 116.775905 80.841946 
L 118.145567 79.013755 
L 119.479675 82.045801 
L 120.925738 77.596516 
L 124.253758 73.268393 
L 124.883283 62.132007 
L 125.122972 64.959233 
L 126.160767 64.520636 
L 127.191974 66.298767 
L 127.454044 64.847945 
L 128.789479 66.072873 
L 130.822911 65.708031 
L 132.437538 67.509873 
L 131.569651 65.858179 
L 135.891997 64.847945 
L 132.114878 64.959233 
L 127.353951 63.181102 
L 124.240601 59.08151 
L 124.406543 57.755814 
L 128.01772 56.860817 
L 128.344329 57.830897 
L 127.026032 57.870404 
L 126.803465 58.197713 
L 128.570861 58.197713 
L 128.570861 59.634713 
L 129.131899 60.296566 
L 128.875088 51.473063 
L 131.352343 50.738766 
L 134.571936 52.921554 
L 135.953477 51.648573 
L 157.10321 51.718832 
L 157.350748 30.655387 
L 173.047887 30.437084 
L 179.979041 31.689154 
L 186.677723 30.937248 
L 188.632957 31.599651 
L 186.650956 37.141535 
L 186.124097 42.11633 
L 188.092715 46.240522 
L 186.456936 47.551975 
L 192.821096 47.117052 
L 196.887959 44.673978 
L 202.547957 45.366922 
L 204.290787 46.350936 
L 204.787546 49.599441 
L 207.784798 53.109737 
L 205.530159 57.836124 
L 201.439038 59.159295 
L 199.323234 62.218775 
L 198.125664 64.711198 
L 198.933527 68.747571 
L 197.478386 71.214907 
L 201.753493 72.36744 
L 202.793828 75.256297 
L 205.398023 75.084008 
L 208.139387 77.61657 
L 206.553777 84.220642 
L 208.102587 90.700931 
L 207.704513 92.955823 
L 206.113902 93.981223 
L 207.472026 95.182278 
L 206.756163 98.529478 
L 204.0951 99.973065 
L 202.604825 103.899041 
L 204.003099 106.005063 
L 201.666508 108.330198 
L 197.714207 107.811647 
L 198.69099 106.083674 
L 196.053344 101.831506 
L 191.452923 107.398477 
L 183.524902 106.28775 
L 184.158813 104.735432 
L 180.863839 98.951016 
L 178.077324 97.430469 
L 175.717317 99.044679 
L 174.752249 98.383943 
L 175.931404 101.80642 
L 175.275759 105.600244 
L 168.851397 106.976939 
L 166.845979 105.586859 
L 163.895545 106.978606 
L 160.823025 105.596894 
L 161.764691 110.501446 
L 160.249331 114.288586 
L 161.965394 113.746616 
L 164.256818 116.536778 
L 162.786625 119.213207 
L 166.942981 121.352668 
L 165.011164 125.690147 
L 166.314087 126.861082 
L 162.788309 127.754347 
L 159.469901 124.688167 
L 155.099459 127.730927 
L 153.505287 131.608251 
L 151.073993 127.63699 
L 145.938329 123.759472 
L 145.760201 121.52172 
L 133.898117 111.596732 
L 130.678039 107.430993 
L 132.158329 108.367472 
L 132.889275 107.652274 
L 135.109719 110.435379 
L 138.011037 109.533147 
L 137.70155 108.79686 
L 135.220331 109.328989 
L 133.446348 106.885688 
L 131.462971 107.873555 
L 131.009923 106.39572 
L 130.678039 107.312454 
L 128.955422 105.961056 
L 128.449698 103.376848 
L 123.683512 98.263721 
L 126.856141 99.005268 
L 128.084897 101.407719 
L 127.672663 99.069798 
L 125.354764 97.335124 
L 124.804261 98.452065 
L 123.426701 97.59329 
L 122.855128 93.458804 
L 119.562646 89.187328 
L 119.027954 87.812235 
L 119.607425 89.008192 
L 121.87001 91.650375 
L 123.576832 92.73964 
L 123.829694 95.001168 
L 128.349605 93.909264 
L 126.682301 91.689882 
L 123.932425 93.237523 
L 123.316073 91.876916 
L 124.701546 90.526845 
L 124.722617 88.661785 
L 124.519793 90.077712 
L 122.299349 90.720466 
L 119.779954 88.915986 
L 119.828681 87.20635 
L 117.148603 83.702755 
L 117.80051 84.213812 
L 118.253557 83.484112 
L 116.698193 82.820285 
z
" clip-path="url(#pbbf87bc56a)" style="fill: #eeeeee; stroke: #000000; stroke-width: 0.3"/>
    <path d="M 125.391403 54.780691 
L 125.50954 54.786469 
L 125.437638 54.829489 
z
" clip-path="url(#pbbf87bc56a)" style="fill: #eeeeee; stroke: #000000; stroke-width: 0.3"/>
    <path d="M 118.476141 78.600163 
L 119.965656 78.731877 
L 119.400653 80.225524 
z
" clip-path="url(#pbbf87bc56a)" style="fill: #eeeeee; stroke: #000000; stroke-width: 0.3"/>
    <path d="M 124.904354 48.764376 
L 126.824535 44.996043 
L 129.242527 42.187916 
L 129.961594 42.555396 
L 130.393571 42.498748 
L 131.341808 41.993631 
L 129.121364 41.275131 
L 132.398035 36.572957 
L 132.233403 29.989245 
L 132.623385 31.490095 
L 135.331282 32.84002 
L 156.87239 32.837511 
L 157.10321 51.718832 
L 135.953477 51.648573 
L 134.571936 52.921554 
L 130.90983 49.548069 
L 128.749976 51.010091 
L 127.785929 49.548069 
L 125.710357 49.901064 
z
" clip-path="url(#pbbf87bc56a)" style="fill: #eeeeee; stroke: #000000; stroke-width: 0.3"/>
    <path d="M 110.266015 12.516099 
L 112.490408 11.836459 
L 113.907503 7.580779 
L 118.042836 7.184992 
L 118.503782 9.180454 
L 114.215679 16.141519 
L 110.396403 14.917902 
z
" clip-path="url(#pbbf87bc56a)" style="fill: #eeeeee; stroke: #000000; stroke-width: 0.3"/>
    <path d="M 64.573067 91.083997 
L 64.806169 90.804758 
L 64.739009 91.774174 
z
" clip-path="url(#pbbf87bc56a)" style="fill: #eeeeee; stroke: #000000; stroke-width: 0.3"/>
    <path d="M 92.308864 42.555396 
L 93.162284 40.5 
L 94.416042 40.787785 
L 93.423043 43.107935 
z
" clip-path="url(#pbbf87bc56a)" style="fill: #eeeeee; stroke: #000000; stroke-width: 0.3"/>
    <path d="M 78.364573 63.554506 
L 81.771632 61.300892 
L 82.987214 63.842971 
L 79.26672 67.5 
z
" clip-path="url(#pbbf87bc56a)" style="fill: #eeeeee; stroke: #000000; stroke-width: 0.3"/>
   </g>
   <g id="PatchCollection_2">
    <path d="M 92.308864 42.555396 
L 93.162284 40.5 
L 94.416042 40.787785 
L 93.423043 43.107935 
z
" clip-path="url(#pbbf87bc56a)" style="fill: #ff6b6b; stroke: #dd0000; stroke-width: 0.5"/>
    <path d="M 78.364573 63.554506 
L 81.771632 61.300892 
L 82.987214 63.842971 
L 79.26672 67.5 
z
" clip-path="url(#pbbf87bc56a)" style="fill: #ff6b6b; stroke: #dd0000; stroke-width: 0.5"/>
   </g>
  </g>
 </g>
 <defs>
  <clipPath id="pbbf87bc56a">
   <rect x="0" y="0" width="172.780615" height="108"/>
  </clipPath>
 </defs>
</svg>
