<?xml version="1.0" encoding="utf-8" standalone="no"?>
<!DOCTYPE svg PUBLIC "-//W3C//DTD SVG 1.1//EN"
  "http://www.w3.org/Graphics/SVG/1.1/DTD/svg11.dtd">
<svg xmlns:xlink="http://www.w3.org/1999/xlink" width="167.297048pt" height="108pt" viewBox="0 0 167.297048 108" xmlns="http://www.w3.org/2000/svg" version="1.1">
 <metadata>
  <rdf:RDF xmlns:dc="http://purl.org/dc/elements/1.1/" xmlns:cc="http://creativecommons.org/ns#" xmlns:rdf="http://www.w3.org/1999/02/22-rdf-syntax-ns#">
   <cc:Work>
    <dc:type rdf:resource="http://purl.org/dc/dcmitype/StillImage"/>
    <dc:date>2025-09-05T15:49:29.904521</dc:date>
    <dc:format>image/svg+xml</dc:format>
    <dc:creator>
     <cc:Agent>
      <dc:title>Matplotlib v3.10.3, https://matplotlib.org/</dc:title>
     </cc:Agent>
    </dc:creator>
   </cc:Work>
  </rdf:RDF>
 </metadata>
 <defs>
  <style type="text/css">*{stroke-linejoin: round; stroke-linecap: butt}</style>
 </defs>
 <g id="figure_1">
  <g id="patch_1">
   <path d="M 0 108 
L 167.297048 108 
L 167.297048 0 
L 0 0 
z
" style="fill: #ffffff"/>
  </g>
  <g id="axes_1">
   <g id="PatchCollection_1">
    <path d="M 95.174634 109.951242 
L 97.012868 109.926071 
L 98.56896 108.553242 
L 98.581279 107.58336 
L 100.504654 106.811917 
L 103.4014 101.341015 
L 105.343 100.848784 
L 106.68698 101.40645 
L 108.86659 100.921109 
L 108.982522 100.200255 
L 115.561883 100.191252 
L 119.144982 104.548688 
L 119.686676 106.355982 
L 121.241487 107.234467 
L 120.534615 109.51729 
L 122.045828 109.821951 
L 121.990428 112.269571 
L 123.159998 113.734852 
L 120.644393 117.68404 
L 125.141602 115.660836 
L 124.757384 118.752208 
L 121.866802 120.303062 
L 121.836536 122.997844 
L 114.867836 128.693135 
L 113.289757 131.709044 
L 109.682406 129.355208 
L 103.061454 126.8858 
L 104.422637 126.8858 
L 103.233521 126.319664 
L 103.838179 125.411834 
L 106.265299 124.703006 
L 103.486768 125.120626 
L 102.690656 124.181923 
L 103.603505 122.946178 
L 102.11549 123.871951 
L 98.780366 121.794714 
L 99.937587 121.476386 
L 99.039281 120.315324 
L 99.395526 119.573543 
L 98.440678 118.026976 
L 96.536223 118.873482 
L 95.316812 115.500837 
L 97.830362 116.767454 
L 97.010823 115.780357 
L 99.456922 114.794101 
L 98.847013 114.65392 
L 99.395526 113.604248 
L 97.549648 114.650167 
L 97.89822 113.954279 
L 96.598026 113.750263 
L 97.09645 114.672694 
L 96.551173 115.322269 
L 95.778885 112.162406 
L 98.305369 111.841576 
L 96.869459 111.770235 
L 97.417972 111.000914 
L 95.513517 110.867829 
z
" clip-path="url(#p25f8d79069)" style="fill: #eeeeee; stroke: #000000; stroke-width: 0.3"/>
    <path d="M 98.643439 124.982947 
L 101.921604 124.323775 
L 103.196356 125.058881 
L 102.633707 126.887881 
L 102.079129 125.975058 
z
" clip-path="url(#p25f8d79069)" style="fill: #eeeeee; stroke: #000000; stroke-width: 0.3"/>
    <path d="M 77.521583 91.319099 
L 81.178497 84.768823 
L 83.065709 84.611725 
L 85.361252 83.012651 
L 88.086665 83.337982 
L 89.526834 82.245442 
L 90.917757 82.592489 
L 90.977257 79.588801 
L 88.509617 78.063386 
L 89.825128 76.775863 
L 91.264264 76.61373 
L 90.934165 72.71302 
L 97.404522 73.097162 
L 97.647415 74.775175 
L 99.025761 74.118166 
L 104.50737 76.483916 
L 107.057857 75.440663 
L 113.235558 75.226598 
L 114.158909 75.675377 
L 112.975997 77.652759 
L 114.694448 79.348787 
L 116.118962 79.469589 
L 117.497318 77.540959 
L 118.491972 77.367169 
L 120.881896 80.741219 
L 122.864523 78.406721 
L 125.293439 77.384128 
L 130.692965 79.356733 
L 131.634273 77.872637 
L 134.526394 76.850577 
L 134.800834 75.949309 
L 133.774386 74.948432 
L 135.230705 74.539928 
L 138.108987 75.836976 
L 137.926626 77.312069 
L 139.876684 80.38516 
L 139.386281 83.124451 
L 140.584578 83.211346 
L 141.277087 84.78048 
L 144.070725 86.100844 
L 140.840555 90.091372 
L 142.24199 90.161575 
L 142.775991 89.329187 
L 144.554458 89.625902 
L 144.973042 94.881683 
L 148.082157 97.234196 
L 146.070803 100.719503 
L 146.231872 104.93362 
L 147.259869 106.387243 
L 149.132718 106.173712 
L 148.49561 108.491252 
L 150.309991 109.592794 
L 148.473037 110.411935 
L 148.10473 112.295532 
L 150.806032 114.223105 
L 151.147159 116.786217 
L 149.545147 115.73024 
L 149.130663 116.3144 
L 148.088828 115.534467 
L 145.325962 115.979267 
L 145.156168 118.107647 
L 147.763603 118.742673 
L 148.167308 120.474196 
L 147.110593 120.329556 
L 145.808672 124.973627 
L 143.678814 124.598507 
L 142.97759 125.16173 
L 142.164017 123.82652 
L 140.981106 123.763463 
L 139.281119 128.08328 
L 136.624963 128.932627 
L 135.543621 126.973259 
L 132.998772 127.027303 
L 134.341213 123.27601 
L 132.607377 118.727837 
L 132.91516 117.108103 
L 131.146948 116.615349 
L 131.412156 115.864032 
L 130.701691 116.163126 
L 130.190769 114.857065 
L 127.33096 116.301153 
L 126.474296 115.254178 
L 124.223383 115.556716 
L 122.440301 117.432367 
L 120.644393 117.68404 
L 123.159998 113.734852 
L 121.990428 112.269571 
L 122.045828 109.821951 
L 120.534615 109.51729 
L 121.241487 107.234467 
L 119.686676 106.355982 
L 116.035351 100.306487 
L 108.982522 100.200255 
L 108.86659 100.921109 
L 106.68698 101.40645 
L 105.343 100.848784 
L 103.4014 101.341015 
L 100.504654 106.811917 
L 98.581279 107.58336 
L 98.56896 108.553242 
L 97.012868 109.926071 
L 95.174634 109.951242 
L 96.598026 108.474775 
L 95.587431 108.363375 
L 95.852401 107.634954 
L 95.033666 108.50982 
L 95.174634 106.717947 
L 94.115566 107.43386 
L 94.226238 105.871861 
L 93.061353 105.766726 
L 93.332379 104.541828 
L 92.728932 105.248144 
L 92.32219 104.541828 
L 90.954545 105.136754 
L 92.593622 102.294789 
L 91.699356 101.734908 
L 90.927882 102.747453 
L 91.36088 100.672297 
L 89.796926 101.550927 
L 87.657797 99.864189 
L 88.237817 98.076068 
L 86.71627 99.552956 
L 86.869358 98.286339 
L 86.029222 99.035625 
L 85.815949 98.254216 
L 83.744678 97.923369 
L 82.925943 94.912863 
L 81.707336 95.206563 
L 83.271289 90.987012 
L 81.290101 93.529422 
L 81.771154 91.818907 
L 80.689474 92.952849 
L 80.886586 91.183922 
L 80.209225 91.680398 
L 80.099765 90.772568 
L 81.638674 89.503449 
L 81.435506 89.217664 
L 79.86388 90.203921 
L 79.118661 89.573539 
L 78.711512 92.246533 
z
" clip-path="url(#p25f8d79069)" style="fill: #eeeeee; stroke: #000000; stroke-width: 0.3"/>
    <path d="M 141.654634 136.082863 
L 144.304645 133.39126 
L 144.950985 130.946561 
L 142.97759 125.16173 
L 143.678814 124.598507 
L 145.523461 125.302136 
L 147.110593 120.329556 
L 148.167308 120.474196 
L 147.763603 118.742673 
L 145.156168 118.107647 
L 145.271078 116.051592 
L 148.088828 115.534467 
L 151.147159 116.786217 
L 150.806032 114.223105 
L 148.10473 112.295532 
L 148.473037 110.411935 
L 150.309991 109.592794 
L 148.49561 108.491252 
L 149.132718 106.173712 
L 147.259869 106.387243 
L 146.231872 104.93362 
L 146.070803 100.719503 
L 147.899022 98.462631 
L 149.493847 97.953451 
L 151.127663 95.641479 
L 152.745061 95.421068 
L 154.115714 97.537791 
L 157.566463 98.679074 
L 158.10765 96.587512 
L 161.009528 96.421945 
L 161.006957 93.416402 
L 163.222482 94.461255 
L 163.410739 93.088959 
L 165.108672 92.674888 
L 165.620099 93.668075 
L 165.055833 94.852544 
L 165.857097 95.815003 
L 165.26718 97.540446 
L 167.491419 98.176784 
L 168.860027 96.267759 
L 171.679306 95.469278 
L 173.580376 97.041858 
L 176.229355 97.003706 
L 176.88032 98.994069 
L 177.940112 99.710146 
L 177.912923 101.138342 
L 179.576748 101.738128 
L 179.59675 102.640719 
L 180.74196 103.383289 
L 182.440657 102.737416 
L 182.522482 103.660667 
L 183.818249 104.399536 
L 186.01119 101.986622 
L 189.934394 100.78097 
L 194.280789 101.135163 
L 194.434165 101.752431 
L 195.2975 100.988667 
L 199.311235 106.161532 
L 200.514406 105.365706 
L 200.792946 107.773309 
L 199.664413 109.812948 
L 201.206915 111.159806 
L 202.32981 118.48411 
L 201.29412 118.939502 
L 201.295152 120.219612 
L 199.507702 121.21121 
L 198.00983 124.965158 
L 197.699227 128.678832 
L 195.196437 132.426945 
L 194.823515 134.808331 
L 197.133928 144.168286 
L 197.778739 144.111586 
L 197.966738 145.152204 
L 199.557712 145.288109 
L 199.745979 149.737997 
L 196.048049 149.929832 
L 195.393708 149.147162 
L 195.979387 147.607279 
L 194.827833 147.893894 
L 194.330611 150.159297 
L 190.268047 148.943576 
L 189.215045 149.363277 
L 187.483461 148.656541 
L 190.194133 148.656541 
L 190.324996 148.494665 
L 189.896038 147.634398 
L 189.439217 147.534267 
L 190.044282 148.579776 
L 188.432661 147.817129 
L 187.611107 148.629841 
L 186.257181 148.23684 
L 185.110064 148.477972 
L 184.777246 148.185933 
L 182.998809 148.733716 
L 181.907838 148.313185 
L 180.681557 149.013656 
L 180.81768 148.173425 
L 179.476281 149.538502 
L 185.677974 148.51636 
L 187.544857 149.013656 
L 178.641793 150.070013 
L 177.47933 149.173861 
L 174.384539 149.028677 
L 173.615487 149.933165 
L 175.720687 149.704961 
L 175.308694 149.293186 
L 177.552033 150.070013 
L 169.125583 151.081717 
L 158.684415 154.854459 
L 153.18877 158.114453 
L 152.027409 157.793214 
L 152.007407 150.650123 
L 153.854099 148.137344 
L 153.290348 142.715452 
L 152.815332 143.123167 
L 149.914486 141.56489 
L 148.646424 138.349804 
L 143.708574 137.649609 
L 143.644448 136.509659 
z
" clip-path="url(#p25f8d79069)" style="fill: #eeeeee; stroke: #000000; stroke-width: 0.3"/>
    <path d="M 194.686052 150.17807 
L 195.105321 149.712887 
L 196.241935 150.452587 
z
" clip-path="url(#p25f8d79069)" style="fill: #eeeeee; stroke: #000000; stroke-width: 0.3"/>
    <path d="M 105.468164 51.165602 
L 107.391291 51.581262 
L 109.873036 49.883646 
L 109.622192 47.021954 
L 110.799465 43.309346 
L 111.913118 43.309346 
L 112.811335 42.260515 
L 118.858739 47.802943 
L 120.742885 44.417778 
L 127.271966 45.118229 
L 133.662046 44.341208 
L 133.386067 42.825861 
L 134.331465 41.702859 
L 134.403284 43.776139 
L 172.504166 43.790976 
L 174.069241 35.406193 
L 171.388457 33.193041 
L 161.762053 -53.612853 
L 179.346938 -53.622399 
L 238.590154 -13.703441 
L 238.670172 -9.982344 
L 242.691868 -8.533755 
L 244.859675 -5.527412 
L 247.769246 -4.594092 
L 249.055772 -5.215871 
L 251.03687 -2.987349 
L 258.962265 -0.567289 
L 259.577822 3.864061 
L 258.022495 6.456056 
L 259.816874 7.889286 
L 269.184741 6.387175 
L 268.741529 34.339091 
L 267.516558 35.546076 
L 265.637029 41.529069 
L 262.215524 43.772961 
L 262.022641 45.228707 
L 257.321777 44.485592 
L 256.990408 45.381027 
L 240.426592 45.950084 
L 236.87478 48.947671 
L 233.860563 49.475931 
L 229.405413 48.899727 
L 229.377718 49.77079 
L 224.859474 48.18523 
L 222.983022 48.83137 
L 222.564438 48.038723 
L 220.064735 48.053559 
L 216.502669 50.94598 
L 210.364467 54.024372 
L 207.385131 54.285057 
L 206.999374 57.252971 
L 205.848278 57.510211 
L 202.773012 56.230911 
L 201.425955 56.831753 
L 198.74671 59.105573 
L 198.469192 62.682819 
L 196.759209 63.142989 
L 194.58088 62.209926 
L 194.961247 66.36232 
L 192.976823 66.639153 
L 192.967581 67.633407 
L 187.784535 65.398795 
L 188.316996 64.739407 
L 187.688862 64.248243 
L 184.017793 68.151066 
L 185.399474 71.218066 
L 184.945243 72.225567 
L 182.685864 72.289679 
L 183.658709 74.142538 
L 183.019546 75.154017 
L 183.471215 76.464845 
L 182.656878 76.329207 
L 181.939235 78.084579 
L 179.945828 79.549594 
L 176.689492 79.829883 
L 173.482917 81.375435 
L 174.725845 82.089133 
L 175.409121 85.541599 
L 174.275456 88.623969 
L 172.570853 89.125202 
L 173.293627 91.462868 
L 172.795025 94.634778 
L 172.388749 95.760959 
L 168.860027 96.267759 
L 167.491419 98.176784 
L 165.26718 97.540446 
L 165.857097 95.815003 
L 165.055833 94.852544 
L 165.620099 93.668075 
L 165.108672 92.674888 
L 163.410739 93.088959 
L 163.222482 94.461255 
L 161.006957 93.416402 
L 161.009528 96.421945 
L 158.10765 96.587512 
L 157.566463 98.679074 
L 154.115714 97.537791 
L 152.745061 95.421068 
L 151.127663 95.641479 
L 149.493847 97.953451 
L 147.899022 98.462631 
L 147.833367 96.757858 
L 145.524484 95.782152 
L 144.862758 94.613052 
L 144.554458 89.625902 
L 142.775991 89.329187 
L 142.24199 90.161575 
L 140.885185 90.252438 
L 144.070725 86.100844 
L 141.277087 84.78048 
L 140.584578 83.211346 
L 139.386281 83.124451 
L 139.658666 79.487603 
L 138.642988 79.152214 
L 138.108987 75.836976 
L 136.407462 74.844588 
L 133.917507 74.765106 
L 134.800834 75.949309 
L 134.526394 76.850577 
L 131.634273 77.872637 
L 130.692965 79.356733 
L 125.293439 77.384128 
L 122.864523 78.406721 
L 120.881896 80.741219 
L 118.491972 77.367169 
L 117.497318 77.540959 
L 116.118962 79.469589 
L 114.694448 79.348787 
L 112.975997 77.652759 
L 114.158909 75.675377 
L 114.266632 74.693581 
L 113.373031 74.044518 
L 114.156854 69.666156 
L 112.725153 68.217824 
L 111.930559 65.664781 
L 110.658904 65.182885 
L 109.796095 66.213691 
L 107.12095 62.141845 
L 108.45827 60.859623 
L 108.114065 57.407424 
L 105.889051 55.099686 
L 106.452038 52.529951 
z
" clip-path="url(#p25f8d79069)" style="fill: #eeeeee; stroke: #000000; stroke-width: 0.3"/>
    <path d="M 53.136094 51.345513 
L 56.740219 49.87489 
L 59.665762 46.46803 
L 63.08005 40.815812 
L 63.758016 36.820342 
L 65.45441 33.369476 
L 67.070785 32.916986 
L 71.637759 33.669369 
L 73.704513 32.643054 
L 77.068573 32.63034 
L 77.242477 31.782593 
L 78.565423 31.516084 
L 84.200407 31.829747 
L 88.456778 35.139684 
L 89.867187 37.368729 
L 90.922879 36.661922 
L 91.52306 37.520803 
L 93.34975 37.015859 
L 95.027412 39.318029 
L 95.80251 42.465834 
L 97.074423 42.742944 
L 97.331194 43.805812 
L 98.517669 43.637579 
L 99.870375 45.947439 
L 99.271732 46.28574 
L 103.276752 48.680895 
L 106.452038 52.529951 
L 105.889051 55.099686 
L 108.114065 57.407424 
L 108.45827 60.859623 
L 107.12095 62.141845 
L 109.796095 66.213691 
L 110.658904 65.182885 
L 111.930559 65.664781 
L 112.725153 68.217824 
L 114.111202 69.56098 
L 113.373031 74.044518 
L 114.160954 75.476159 
L 107.057857 75.440663 
L 104.50737 76.483916 
L 99.025761 74.118166 
L 97.647415 74.775175 
L 97.253191 73.073847 
L 76.373504 72.651029 
L 71.589535 75.113209 
L 66.176162 74.95161 
L 61.152844 76.207861 
L 60.434814 74.547669 
L 62.628877 73.129183 
L 63.089739 73.820908 
L 64.701359 73.975689 
L 68.088171 73.127522 
L 69.972028 73.905599 
L 71.067844 73.552646 
L 71.910005 74.108774 
L 73.249389 73.098311 
L 73.00058 71.58889 
L 74.272096 71.417837 
L 74.423158 71.023165 
L 72.855969 71.472907 
L 72.925445 72.958971 
L 71.94717 73.880981 
L 70.68978 73.205117 
L 69.244181 73.452935 
L 68.164109 72.142927 
L 67.621254 73.065778 
L 64.701359 73.829244 
L 63.407221 72.359031 
L 63.339362 73.205117 
L 62.08359 72.754124 
L 62.519824 71.804164 
L 62.458428 71.442445 
L 61.95919 73.135027 
L 60.892856 73.750398 
L 60.669895 72.665261 
L 61.44541 72.066992 
L 60.480059 72.283107 
L 60.413005 71.270982 
L 61.351673 67.757654 
L 70.038318 67.756065 
L 70.183484 65.944536 
L 75.559931 65.465019 
L 76.943925 63.31518 
L 84.575642 66.947526 
L 89.223924 66.138987 
L 90.036465 64.961941 
L 88.351109 63.42619 
L 84.608211 64.700722 
L 82.850779 62.79382 
L 80.882 63.053971 
L 79.508776 61.360856 
L 77.552822 60.967445 
L 74.39856 61.453842 
L 73.166413 63.385649 
L 62.81096 63.346544 
L 63.332086 61.774682 
L 62.439041 62.656633 
L 62.132469 61.566913 
L 62.859104 60.693707 
L 63.548992 61.114249 
L 63.548992 59.084155 
L 61.434501 61.4793 
L 60.970403 59.609831 
L 62.662002 59.224335 
L 62.519824 58.664034 
L 64.763162 57.390742 
L 63.730758 57.123731 
L 61.890121 59.082904 
L 61.226082 58.943974 
L 61.9091 58.090803 
L 61.158224 58.447929 
L 60.690096 60.763797 
L 60.58144 58.498826 
L 58.888639 55.111159 
L 56.232504 52.032225 
L 54.313913 51.547437 
L 54.091349 52.408124 
z
" clip-path="url(#p25f8d79069)" style="fill: #eeeeee; stroke: #000000; stroke-width: 0.3"/>
    <path d="M 61.152844 76.207861 
L 66.176162 74.95161 
L 71.589535 75.113209 
L 76.373504 72.651029 
L 90.934165 72.71302 
L 91.264264 76.61373 
L 89.825128 76.775863 
L 88.509617 78.063386 
L 90.977257 79.588801 
L 90.917757 82.592489 
L 89.526834 82.245442 
L 88.086665 83.337982 
L 85.361252 83.012651 
L 83.065709 84.611725 
L 81.178497 84.768823 
L 77.464634 90.612363 
L 78.301534 87.64774 
L 76.025885 89.92357 
L 76.259348 87.473355 
L 75.992363 88.613972 
L 74.754369 88.391613 
L 74.080235 86.932658 
L 75.649439 85.430742 
L 74.904221 85.991044 
L 74.802433 85.11993 
L 73.276856 86.200894 
L 73.610082 84.800771 
L 75.926927 83.954685 
L 75.519788 83.464064 
L 77.160077 83.536656 
L 77.08657 84.277596 
L 78.237716 83.59798 
L 76.604297 83.107769 
L 77.011436 82.611724 
L 76.04689 83.117786 
L 76.062236 82.128187 
L 73.955428 84.158281 
L 74.07822 82.758158 
L 73.583826 83.161177 
L 72.836989 82.353479 
L 73.955428 80.7919 
L 76.43223 80.937495 
L 77.417771 80.231179 
L 77.620948 81.630881 
L 78.946594 82.149883 
L 77.613265 81.045132 
L 78.23853 79.839428 
L 76.17534 80.544083 
L 74.07822 80.015484 
L 70.067353 82.197447 
L 71.022201 81.071841 
L 70.413106 80.7919 
L 68.790983 82.336366 
L 69.720389 79.902013 
L 71.157918 79.951238 
L 71.225776 79.455183 
L 69.734932 79.315013 
L 67.147061 80.7919 
L 64.858477 78.721748 
L 67.756971 76.018292 
L 63.841022 77.854397 
z
" clip-path="url(#p25f8d79069)" style="fill: #eeeeee; stroke: #000000; stroke-width: 0.3"/>
    <path d="M 70.634042 88.095811 
L 70.825496 87.041136 
L 71.774289 86.767029 
L 71.774289 87.473355 
z
" clip-path="url(#p25f8d79069)" style="fill: #eeeeee; stroke: #000000; stroke-width: 0.3"/>
    <path d="M 68.600343 89.377449 
L 69.118967 88.943568 
L 68.91579 87.817121 
L 69.599216 89.115451 
z
" clip-path="url(#p25f8d79069)" style="fill: #eeeeee; stroke: #000000; stroke-width: 0.3"/>
    <path d="M 67.553793 85.074447 
L 68.983251 83.66807 
L 69.396048 85.220472 
L 68.034051 85.564248 
z
" clip-path="url(#p25f8d79069)" style="fill: #eeeeee; stroke: #000000; stroke-width: 0.3"/>
    <path d="M 66.740717 80.937495 
L 68.01668 80.650469 
L 68.526827 80.771456 
L 67.972655 82.128187 
z
" clip-path="url(#p25f8d79069)" style="fill: #eeeeee; stroke: #000000; stroke-width: 0.3"/>
    <path d="M 65.921585 88.797123 
L 67.391424 87.735773 
L 67.898335 88.657363 
L 67.073545 89.573539 
z
" clip-path="url(#p25f8d79069)" style="fill: #eeeeee; stroke: #000000; stroke-width: 0.3"/>
    <path d="M 65.587952 87.38282 
L 66.333578 86.690685 
L 66.666803 87.606851 
L 65.887656 87.638564 
z
" clip-path="url(#p25f8d79069)" style="fill: #eeeeee; stroke: #000000; stroke-width: 0.3"/>
    <path d="M 64.152439 84.444066 
L 65.921585 83.884595 
L 65.648534 84.789924 
L 64.220297 84.864597 
z
" clip-path="url(#p25f8d79069)" style="fill: #eeeeee; stroke: #000000; stroke-width: 0.3"/>
    <path d="M 72.053802 84.446568 
L 73.061966 83.464064 
L 73.628257 84.065665 
z
" clip-path="url(#p25f8d79069)" style="fill: #eeeeee; stroke: #000000; stroke-width: 0.3"/>
    <path d="M 71.013317 85.258019 
L 71.42935 84.724416 
L 71.564659 85.354808 
z
" clip-path="url(#p25f8d79069)" style="fill: #eeeeee; stroke: #000000; stroke-width: 0.3"/>
    <path d="M 69.411395 87.320235 
L 70.112589 86.869663 
L 69.661018 87.817121 
z
" clip-path="url(#p25f8d79069)" style="fill: #eeeeee; stroke: #000000; stroke-width: 0.3"/>
    <path d="M 67.817959 88.193441 
L 68.637091 88.679059 
L 68.214199 89.166348 
z
" clip-path="url(#p25f8d79069)" style="fill: #eeeeee; stroke: #000000; stroke-width: 0.3"/>
    <path d="M 65.384785 85.220472 
L 66.740717 84.584246 
L 66.259654 85.354808 
z
" clip-path="url(#p25f8d79069)" style="fill: #eeeeee; stroke: #000000; stroke-width: 0.3"/>
    <path d="M 57.892586 -10.270723 
L 58.771436 -15.988652 
L 98.012138 -16.079259 
L 96.651739 -31.321275 
L 98.012138 -33.351369 
L 101.941229 -35.94363 
L 107.898103 -37.893452 
L 107.938117 -63.87381 
L 140.970335 -63.926264 
L 141.022658 -77.105602 
L 179.346938 -53.622399 
L 161.762053 -53.612853 
L 171.388457 33.193041 
L 174.069241 35.406193 
L 172.504166 43.790976 
L 134.403284 43.776139 
L 134.331465 41.702859 
L 133.386067 42.825861 
L 133.662046 44.341208 
L 127.271966 45.118229 
L 120.742885 44.417778 
L 118.858739 47.802943 
L 112.811335 42.260515 
L 111.913118 43.309346 
L 110.799465 43.309346 
L 109.622192 47.021954 
L 109.873036 49.883646 
L 107.391291 51.581262 
L 104.293204 50.436801 
L 103.276752 48.680895 
L 99.271732 46.28574 
L 99.870375 45.947439 
L 98.517669 43.637579 
L 97.331194 43.805812 
L 97.074423 42.742944 
L 95.80251 42.465834 
L 95.027412 39.318029 
L 93.34975 37.015859 
L 91.52306 37.520803 
L 90.922879 36.661922 
L 89.867187 37.368729 
L 88.456778 35.139684 
L 84.200407 31.829747 
L 78.565423 31.516084 
L 77.242477 31.782593 
L 77.068573 32.63034 
L 73.704513 32.643054 
L 71.637759 33.669369 
L 65.665757 33.240718 
L 63.829835 36.614234 
L 63.000072 40.565073 
L 63.129733 35.193626 
L 67.599843 22.765656 
L 68.034051 16.648675 
L 66.352964 8.022658 
L 63.068337 3.941185 
L 64.818086 3.581978 
L 65.555641 2.418825 
L 64.497785 3.087594 
L 64.763966 2.316612 
L 63.767109 3.615772 
L 66.062949 -0.291726 
L 65.921585 -1.411898 
L 65.273706 -1.276732 
L 66.175239 -2.444058 
L 65.791527 -3.798708 
L 66.375984 -4.799564 
L 63.746104 -9.067941 
L 64.326929 -9.328688 
L 63.129733 -9.984107 
L 63.000072 -8.158019 
L 61.70634 -9.354557 
L 59.275181 -14.292533 
z
" clip-path="url(#p25f8d79069)" style="fill: #eeeeee; stroke: #000000; stroke-width: 0.3"/>
    <path d="M 64.435992 1.694566 
L 64.824548 0.899797 
L 65.389629 0.436705 
z
" clip-path="url(#p25f8d79069)" style="fill: #eeeeee; stroke: #000000; stroke-width: 0.3"/>
    <path d="M 63.778008 0.825954 
L 64.949762 -1.057705 
L 64.090636 1.680796 
z
" clip-path="url(#p25f8d79069)" style="fill: #eeeeee; stroke: #000000; stroke-width: 0.3"/>
    <path d="M 63.676221 -8.499714 
L 63.952498 -8.634471 
L 63.875358 -8.263155 
z
" clip-path="url(#p25f8d79069)" style="fill: #eeeeee; stroke: #000000; stroke-width: 0.3"/>
    <path d="M 63.451245 0.611931 
L 63.702884 0.672014 
L 63.576866 0.896885 
z
" clip-path="url(#p25f8d79069)" style="fill: #eeeeee; stroke: #000000; stroke-width: 0.3"/>
    <path d="M 60.147638 65.893271 
L 61.645351 64.277044 
L 64.220297 67.229568 
L 64.016723 66.529917 
L 65.823024 66.033031 
L 66.124345 66.739357 
L 66.302071 66.789002 
L 66.882091 66.529917 
L 66.129189 65.942916 
L 66.78353 64.968759 
L 72.147509 64.700917 
L 72.915757 64.138534 
L 74.929662 64.84443 
L 75.284707 64.695914 
L 75.384469 64.277044 
L 72.789729 63.947458 
L 66.97822 64.703419 
L 64.507076 65.910383 
L 63.203646 65.683 
L 62.81096 63.346544 
L 73.166413 63.385649 
L 74.39856 61.453842 
L 77.340453 60.956853 
L 79.508776 61.360856 
L 80.882 63.053971 
L 82.850779 62.79382 
L 84.608211 64.700722 
L 88.351109 63.42619 
L 90.036465 64.961941 
L 89.223924 66.138987 
L 84.575642 66.947526 
L 76.943925 63.31518 
L 75.559931 65.465019 
L 70.183484 65.944536 
L 70.038318 67.756065 
L 61.697932 67.679505 
L 60.902555 68.697689 
z
" clip-path="url(#p25f8d79069)" style="fill: #eeeeee; stroke: #000000; stroke-width: 0.3"/>
    <path d="M -8.970088 47.978712 
L -8.840427 45.662423 
L -8.083088 45.64406 
L -5.636582 48.615358 
L -6.38181 49.794782 
L -8.200628 49.181503 
z
" clip-path="url(#p25f8d79069)" style="fill: #eeeeee; stroke: #000000; stroke-width: 0.3"/>
    <path d="M -0.744791 38.069806 
L -0.264533 36.103538 
L 1.638711 36.424777 
L 2.053126 37.440245 
L 0.821992 38.749422 
z
" clip-path="url(#p25f8d79069)" style="fill: #eeeeee; stroke: #000000; stroke-width: 0.3"/>
    <path d="M -1.010962 30.24188 
L -0.332391 29.784212 
L 0.075562 31.502663 
L -0.399445 32.520622 
z
" clip-path="url(#p25f8d79069)" style="fill: #eeeeee; stroke: #000000; stroke-width: 0.3"/>
    <path d="M -3.597224 46.228979 
L -2.370944 45.662423 
L -2.213419 47.095089 
L -3.0475 47.606575 
z
" clip-path="url(#p25f8d79069)" style="fill: #eeeeee; stroke: #000000; stroke-width: 0.3"/>
    <path d="M -15.303854 32.048353 
L -11.354791 32.838529 
L -13.732227 32.584037 
L -14.252063 33.656245 
z
" clip-path="url(#p25f8d79069)" style="fill: #eeeeee; stroke: #000000; stroke-width: 0.3"/>
    <path d="M -16.252657 49.629994 
L -14.650734 48.392578 
L -13.97256 49.703417 
L -14.766657 50.744753 
z
" clip-path="url(#p25f8d79069)" style="fill: #eeeeee; stroke: #000000; stroke-width: 0.3"/>
    <path d="M -18.707154 30.379282 
L -17.816769 30.853949 
L -17.831133 30.987444 
L -18.376847 31.076452 
z
" clip-path="url(#p25f8d79069)" style="fill: #eeeeee; stroke: #000000; stroke-width: 0.3"/>
    <path d="M -24.533284 27.785411 
L -21.974092 26.336053 
L -20.670255 27.251388 
L -23.920546 29.198883 
z
" clip-path="url(#p25f8d79069)" style="fill: #eeeeee; stroke: #000000; stroke-width: 0.3"/>
    <path d="M -16.998193 32.352122 
L -16.68225 32.248289 
L -16.739695 32.396621 
z
" clip-path="url(#p25f8d79069)" style="fill: #eeeeee; stroke: #000000; stroke-width: 0.3"/>
    <path d="M -18.562633 50.225331 
L -17.811359 50.473148 
L -18.156298 50.868241 
z
" clip-path="url(#p25f8d79069)" style="fill: #eeeeee; stroke: #000000; stroke-width: 0.3"/>
    <path d="M -21.890073 30.134243 
L -20.738113 29.141312 
L -19.87455 30.259402 
z
" clip-path="url(#p25f8d79069)" style="fill: #eeeeee; stroke: #000000; stroke-width: 0.3"/>
   </g>
   <g id="PatchCollection_2">
    <defs>
     <path id="m1a1b427bc4" d="M 53.136094 -56.654487 
L 56.740219 -58.12511 
L 59.665762 -61.53197 
L 63.08005 -67.184188 
L 63.758016 -71.179658 
L 65.45441 -74.630524 
L 67.070785 -75.083014 
L 71.637759 -74.330631 
L 73.704513 -75.356946 
L 77.068573 -75.36966 
L 77.242477 -76.217407 
L 78.565423 -76.483916 
L 84.200407 -76.170253 
L 88.456778 -72.860316 
L 89.867187 -70.631271 
L 90.922879 -71.338078 
L 91.52306 -70.479197 
L 93.34975 -70.984141 
L 95.027412 -68.681971 
L 95.80251 -65.534166 
L 97.074423 -65.257056 
L 97.331194 -64.194188 
L 98.517669 -64.362421 
L 99.870375 -62.052561 
L 99.271732 -61.71426 
L 103.276752 -59.319105 
L 106.452038 -55.470049 
L 105.889051 -52.900314 
L 108.114065 -50.592576 
L 108.45827 -47.140377 
L 107.12095 -45.858155 
L 109.796095 -41.786309 
L 110.658904 -42.817115 
L 111.930559 -42.335219 
L 112.725153 -39.782176 
L 114.111202 -38.43902 
L 113.373031 -33.955482 
L 114.160954 -32.523841 
L 107.057857 -32.559337 
L 104.50737 -31.516084 
L 99.025761 -33.881834 
L 97.647415 -33.224825 
L 97.253191 -34.926153 
L 76.373504 -35.348971 
L 71.589535 -32.886791 
L 66.176162 -33.04839 
L 61.152844 -31.792139 
L 60.434814 -33.452331 
L 62.628877 -34.870817 
L 63.089739 -34.179092 
L 64.701359 -34.024311 
L 68.088171 -34.872478 
L 69.972028 -34.094401 
L 71.067844 -34.447354 
L 71.910005 -33.891226 
L 73.249389 -34.901689 
L 73.00058 -36.41111 
L 74.272096 -36.582163 
L 74.423158 -36.976835 
L 72.855969 -36.527093 
L 72.925445 -35.041029 
L 71.94717 -34.119019 
L 70.68978 -34.794883 
L 69.244181 -34.547065 
L 68.164109 -35.857073 
L 67.621254 -34.934222 
L 64.701359 -34.170756 
L 63.407221 -35.640969 
L 63.339362 -34.794883 
L 62.08359 -35.245876 
L 62.519824 -36.195836 
L 62.458428 -36.557555 
L 61.95919 -34.864973 
L 60.892856 -34.249602 
L 60.669895 -35.334739 
L 61.44541 -35.933008 
L 60.480059 -35.716893 
L 60.413005 -36.729018 
L 61.351673 -40.242346 
L 70.038318 -40.243935 
L 70.183484 -42.055464 
L 75.559931 -42.534981 
L 76.943925 -44.68482 
L 84.575642 -41.052474 
L 89.223924 -41.861013 
L 90.036465 -43.038059 
L 88.351109 -44.57381 
L 84.608211 -43.299278 
L 82.850779 -45.20618 
L 80.882 -44.946029 
L 79.508776 -46.639144 
L 77.552822 -47.032555 
L 74.39856 -46.546158 
L 73.166413 -44.614351 
L 62.81096 -44.653456 
L 63.332086 -46.225318 
L 62.439041 -45.343367 
L 62.132469 -46.433087 
L 62.859104 -47.306293 
L 63.548992 -46.885751 
L 63.548992 -48.915845 
L 61.434501 -46.5207 
L 60.970403 -48.390169 
L 62.662002 -48.775665 
L 62.519824 -49.335966 
L 64.763162 -50.609258 
L 63.730758 -50.876269 
L 61.890121 -48.917096 
L 61.226082 -49.056026 
L 61.9091 -49.909197 
L 61.158224 -49.552071 
L 60.690096 -47.236203 
L 60.58144 -49.501174 
L 58.888639 -52.888841 
L 56.232504 -55.967775 
L 54.313913 -56.452563 
L 54.091349 -55.591876 
z
" style="stroke: #dd0000; stroke-width: 0.5"/>
    </defs>
    <g clip-path="url(#p25f8d79069)">
     <use xlink:href="#m1a1b427bc4" x="0" y="108" style="fill: #ff6b6b; stroke: #dd0000; stroke-width: 0.5"/>
    </g>
   </g>
  </g>
 </g>
 <defs>
  <clipPath id="p25f8d79069">
   <rect x="0" y="0" width="167.297048" height="108"/>
  </clipPath>
 </defs>
</svg>
