<?xml version="1.0" encoding="utf-8" standalone="no"?>
<!DOCTYPE svg PUBLIC "-//W3C//DTD SVG 1.1//EN"
  "http://www.w3.org/Graphics/SVG/1.1/DTD/svg11.dtd">
<svg xmlns:xlink="http://www.w3.org/1999/xlink" width="170.921324pt" height="108pt" viewBox="0 0 170.921324 108" xmlns="http://www.w3.org/2000/svg" version="1.1">
 <metadata>
  <rdf:RDF xmlns:dc="http://purl.org/dc/elements/1.1/" xmlns:cc="http://creativecommons.org/ns#" xmlns:rdf="http://www.w3.org/1999/02/22-rdf-syntax-ns#">
   <cc:Work>
    <dc:type rdf:resource="http://purl.org/dc/dcmitype/StillImage"/>
    <dc:date>2025-09-05T15:49:30.004460</dc:date>
    <dc:format>image/svg+xml</dc:format>
    <dc:creator>
     <cc:Agent>
      <dc:title>Matplotlib v3.10.3, https://matplotlib.org/</dc:title>
     </cc:Agent>
    </dc:creator>
   </cc:Work>
  </rdf:RDF>
 </metadata>
 <defs>
  <style type="text/css">*{stroke-linejoin: round; stroke-linecap: butt}</style>
 </defs>
 <g id="figure_1">
  <g id="patch_1">
   <path d="M 0 108 
L 170.921324 108 
L 170.921324 0 
L 0 0 
z
" style="fill: #ffffff"/>
  </g>
  <g id="axes_1">
   <g id="PatchCollection_1">
    <path d="M 65.285575 46.09382 
L 67.760736 46.060646 
L 69.855995 44.251344 
L 69.872583 42.973101 
L 72.462385 41.956387 
L 76.36282 34.746084 
L 78.977162 34.097354 
L 80.786815 34.832323 
L 83.721635 34.192675 
L 83.877737 33.242634 
L 92.736768 33.230769 
L 97.561371 38.973594 
L 98.290755 41.355494 
L 100.38429 42.513283 
L 99.432495 45.521899 
L 101.467326 45.923422 
L 101.39273 49.149232 
L 102.967542 51.08038 
L 99.580309 56.28516 
L 105.635749 53.618705 
L 105.118404 57.692939 
L 101.226269 59.736866 
L 101.185516 63.288418 
L 91.802242 70.794453 
L 89.677377 74.769231 
L 84.820122 71.667024 
L 75.905086 68.412499 
L 77.737903 68.412499 
L 76.136773 67.666369 
L 76.950938 66.469906 
L 80.219026 65.535715 
L 76.477767 66.086111 
L 75.405812 64.848961 
L 76.634952 63.220327 
L 74.631357 64.440437 
L 70.140652 61.702769 
L 71.698837 61.283233 
L 70.489278 59.753027 
L 70.968958 58.775406 
L 69.683266 56.737128 
L 67.11894 57.85277 
L 65.477016 53.407836 
L 68.861482 55.077157 
L 67.757983 53.776226 
L 71.051627 52.476402 
L 70.230391 52.291653 
L 70.968958 50.908252 
L 68.483505 52.286708 
L 68.952853 51.369571 
L 67.202157 51.10069 
L 67.873278 52.316395 
L 67.139069 53.172494 
L 66.099192 49.007995 
L 69.501074 48.585161 
L 67.567637 48.491138 
L 68.306204 47.477221 
L 65.741878 47.301823 
z
" clip-path="url(#p66b460bf4a)" style="fill: #eeeeee; stroke: #000000; stroke-width: 0.3"/>
    <path d="M 69.956281 65.904659 
L 74.370292 65.035912 
L 76.086731 66.004736 
L 75.329131 68.415242 
L 74.582397 67.212199 
z
" clip-path="url(#p66b460bf4a)" style="fill: #eeeeee; stroke: #000000; stroke-width: 0.3"/>
    <path d="M 41.515948 21.537831 
L 46.43994 12.904979 
L 48.981049 12.697934 
L 52.071971 10.590455 
L 55.741708 11.019221 
L 57.680878 9.579322 
L 59.55374 10.036708 
L 59.633856 6.078038 
L 56.311208 4.067636 
L 58.082527 2.370762 
L 60.020308 2.157082 
L 59.575834 -2.983809 
L 68.288093 -2.477533 
L 68.615147 -0.266018 
L 70.471073 -1.131914 
L 77.851996 1.985994 
L 81.286197 0.611053 
L 89.604399 0.328929 
L 90.84768 0.920391 
L 89.254904 3.526456 
L 91.568778 5.761713 
L 93.48687 5.920923 
L 95.34281 3.379111 
L 96.6821 3.150067 
L 99.900105 7.596852 
L 102.569689 4.520131 
L 105.840196 3.172417 
L 113.110595 5.772186 
L 114.378056 3.816241 
L 118.272262 2.469231 
L 118.641793 1.281416 
L 117.259692 -0.037677 
L 119.220609 -0.576059 
L 123.096183 1.133368 
L 122.850635 3.077448 
L 125.476365 7.127588 
L 124.816043 10.7378 
L 126.429537 10.852323 
L 127.361991 12.920343 
L 131.123593 14.6605 
L 126.774207 19.919764 
L 128.661223 20.012287 
L 129.380249 18.915252 
L 131.774933 19.306303 
L 132.338552 26.233092 
L 136.52494 29.333555 
L 133.816675 33.92697 
L 134.033552 39.480911 
L 135.417738 41.396695 
L 137.939507 41.115274 
L 137.081648 44.169645 
L 139.524691 45.621408 
L 137.051254 46.700984 
L 136.555334 49.183447 
L 140.192605 51.723866 
L 140.651929 55.101886 
L 138.494839 53.710174 
L 137.93674 54.480061 
L 136.533922 53.452158 
L 132.813755 54.038377 
L 132.585129 56.843447 
L 136.096011 57.680372 
L 136.639594 59.96241 
L 135.21674 59.771783 
L 133.463718 65.892376 
L 130.595889 65.397991 
L 129.651699 66.140284 
L 128.556233 64.380562 
L 126.963456 64.297457 
L 124.674444 69.990703 
L 121.097961 71.110088 
L 119.641946 68.527765 
L 116.215337 68.598991 
L 118.022919 63.655025 
L 115.688328 57.660818 
L 116.102755 55.526111 
L 113.721877 54.876693 
L 114.078977 53.886505 
L 113.122344 54.280691 
L 112.434394 52.559385 
L 108.583694 54.462602 
L 107.430206 53.082755 
L 104.399378 53.481481 
L 101.998478 55.953472 
L 99.580309 56.28516 
L 102.967542 51.08038 
L 101.39273 49.149232 
L 101.467326 45.923422 
L 99.432495 45.521899 
L 100.38429 42.513283 
L 98.290755 41.355494 
L 93.374288 33.382641 
L 83.877737 33.242634 
L 83.721635 34.192675 
L 80.786815 34.832323 
L 78.977162 34.097354 
L 76.36282 34.746084 
L 72.462385 41.956387 
L 69.872583 42.973101 
L 69.855995 44.251344 
L 67.760736 46.060646 
L 65.285575 46.09382 
L 67.202157 44.14793 
L 65.841401 44.001112 
L 66.198181 43.041098 
L 65.095764 44.194117 
L 65.285575 41.832541 
L 63.859553 42.776069 
L 64.008571 40.717453 
L 62.440067 40.578891 
L 62.805 38.964554 
L 61.992466 39.895434 
L 61.444792 38.964554 
L 59.603274 39.748629 
L 61.810273 36.003098 
L 60.606154 35.26521 
L 59.567373 36.599681 
L 60.150399 33.864756 
L 58.044555 35.022734 
L 55.164242 32.79972 
L 55.945232 30.44309 
L 53.896487 32.389534 
L 54.102618 30.720213 
L 52.971384 31.707725 
L 52.684215 30.677877 
L 49.895272 30.241841 
L 48.792856 26.274185 
L 47.152015 26.661263 
L 49.25786 21.10016 
L 46.590214 24.450897 
L 47.237945 22.196546 
L 45.781476 23.69101 
L 46.046885 21.359676 
L 45.134827 22.014 
L 44.98744 20.817537 
L 47.059562 19.144918 
L 46.786 18.768272 
L 44.669823 20.068096 
L 43.666395 19.237293 
L 43.118174 22.76013 
z
" clip-path="url(#p66b460bf4a)" style="fill: #eeeeee; stroke: #000000; stroke-width: 0.3"/>
    <path d="M 89.677377 74.769231 
L 91.802242 70.794453 
L 101.185516 63.288418 
L 101.226269 59.736866 
L 105.118404 57.692939 
L 105.635749 53.618705 
L 108.19068 53.274436 
L 108.583694 54.462602 
L 112.434394 52.559385 
L 113.122344 54.280691 
L 114.078977 53.886505 
L 113.721877 54.876693 
L 116.102755 55.526111 
L 115.688328 57.660818 
L 118.022919 63.655025 
L 116.215337 68.598991 
L 119.641946 68.527765 
L 121.097961 71.110088 
L 123.947826 70.300055 
L 126.963456 64.297457 
L 128.556233 64.380562 
L 130.451536 66.897942 
L 132.342696 73.438922 
L 131.62919 76.690204 
L 127.870355 80.533649 
L 130.549616 81.096139 
L 130.63596 82.598522 
L 137.284719 83.521334 
L 138.992149 87.758615 
L 142.898104 89.812325 
L 143.537708 89.274983 
L 144.296792 96.420695 
L 141.810243 99.732379 
L 142.161128 101.869883 
L 141.413084 102.092293 
L 142.279658 109.451212 
L 132.700919 106.381909 
L 121.371123 100.279748 
L 104.949658 85.354811 
L 98.871429 83.234616 
L 99.258108 81.731342 
L 91.321493 77.718593 
z
" clip-path="url(#p66b460bf4a)" style="fill: #eeeeee; stroke: #000000; stroke-width: 0.3"/>
    <path d="M 127.870355 80.533649 
L 131.438564 76.986286 
L 132.308853 73.764327 
L 129.651699 66.140284 
L 130.595889 65.397991 
L 133.079685 66.325331 
L 135.21674 59.771783 
L 136.639594 59.96241 
L 136.096011 57.680372 
L 132.585129 56.843447 
L 132.739854 54.133697 
L 136.533922 53.452158 
L 140.651929 55.101886 
L 140.192605 51.723866 
L 136.555334 49.183447 
L 137.051254 46.700984 
L 139.524691 45.621408 
L 137.081648 44.169645 
L 137.939507 41.115274 
L 135.417738 41.396695 
L 134.033552 39.480911 
L 133.816675 33.92697 
L 136.27835 30.952555 
L 138.425763 30.281488 
L 140.625678 27.234455 
L 142.803486 26.943967 
L 144.649054 29.733674 
L 149.295447 31.237813 
L 150.024149 28.481267 
L 153.931495 28.26306 
L 153.928033 24.301944 
L 156.91121 25.678994 
L 157.164697 23.870394 
L 159.450943 23.324674 
L 160.139575 24.633632 
L 159.379796 26.194688 
L 160.458689 27.463148 
L 159.664372 29.737174 
L 162.659285 30.575827 
L 164.5021 28.059853 
L 168.298226 27.007505 
L 170.857995 29.080066 
L 174.424814 29.029785 
L 175.301331 31.652958 
L 176.728329 32.596701 
L 176.691719 34.478973 
L 178.93204 35.269453 
L 178.958972 36.459011 
L 180.500984 37.437673 
L 182.78826 36.586452 
L 182.898436 37.803238 
L 184.643171 38.777021 
L 187.595941 35.596953 
L 192.87849 34.00798 
L 198.73086 34.474784 
L 198.937378 35.288304 
L 200.099849 34.281711 
L 205.504296 41.099221 
L 207.124353 40.050373 
L 207.499404 43.223442 
L 205.979846 45.911558 
L 208.056807 47.686632 
L 209.568773 57.339602 
L 208.174228 57.93978 
L 208.175618 59.626884 
L 205.768837 60.933748 
L 203.75197 65.881214 
L 203.333747 70.775602 
L 199.963769 75.71538 
L 199.461634 78.853896 
L 202.572578 91.189726 
L 203.440808 91.115 
L 203.693948 92.486469 
L 205.836175 92.665583 
L 206.089675 98.530254 
L 201.110454 98.783081 
L 200.229392 97.751571 
L 201.018002 95.722102 
L 199.467448 96.099843 
L 198.797944 99.085501 
L 193.327749 97.483258 
L 191.909894 98.036397 
L 189.578337 97.104963 
L 193.228226 97.104963 
L 193.40443 96.891621 
L 192.826844 95.757844 
L 192.211739 95.625877 
L 193.026452 97.003792 
L 190.856423 95.998672 
L 189.750211 97.069775 
L 187.927164 96.551824 
L 186.382586 96.869622 
L 185.93445 96.484732 
L 183.539805 97.206675 
L 182.070825 96.652442 
L 180.419652 97.575619 
L 180.602941 96.468247 
L 178.796762 98.267333 
L 187.14727 96.920214 
L 189.661006 97.575619 
L 177.673133 98.96783 
L 176.107891 97.786758 
L 171.94079 97.595415 
L 170.905271 98.787473 
L 173.739898 98.486715 
L 173.185155 97.944022 
L 176.205784 98.96783 
L 164.859668 100.301193 
L 150.800756 105.273429 
L 143.400934 109.569896 
L 141.837175 109.146522 
L 141.810243 99.732379 
L 144.296792 96.420695 
L 143.537708 89.274983 
L 142.898104 89.812325 
L 138.992149 87.758615 
L 137.284719 83.521334 
L 130.63596 82.598522 
L 130.549616 81.096139 
z
" clip-path="url(#p66b460bf4a)" style="fill: #eeeeee; stroke: #000000; stroke-width: 0.3"/>
    <path d="M 199.276541 99.110243 
L 199.841082 98.497161 
L 201.37152 99.472039 
z
" clip-path="url(#p66b460bf4a)" style="fill: #eeeeee; stroke: #000000; stroke-width: 0.3"/>
    <path d="M 79.145694 -31.381947 
L 81.735162 -30.834133 
L 85.076803 -33.071484 
L 84.739044 -36.843014 
L 86.324228 -41.735996 
L 87.82375 -41.735996 
L 89.033188 -43.118289 
L 97.175948 -35.81372 
L 99.712927 -40.275153 
L 108.50426 -39.352003 
L 117.108428 -40.376067 
L 116.736826 -42.373199 
L 118.009793 -43.853245 
L 118.106496 -41.120793 
L 169.40889 -41.101239 
L 171.516245 -52.151854 
L 167.906602 -55.068649 
L 154.94476 -169.473344 
L 178.622603 -169.485924 
L 258.392904 -116.875255 
L 258.500647 -111.971084 
L 263.915814 -110.061935 
L 266.834741 -106.099764 
L 270.752445 -104.869708 
L 272.484736 -105.689173 
L 275.152262 -102.752122 
L 285.823714 -99.562635 
L 286.652555 -93.722395 
L 284.558325 -90.30631 
L 286.974435 -88.417403 
L 299.588159 -90.39709 
L 298.991379 -53.558227 
L 297.341971 -51.967497 
L 294.811206 -44.082289 
L 290.20419 -41.124982 
L 289.944474 -39.206401 
L 283.614817 -40.185778 
L 283.168632 -39.005652 
L 260.865646 -38.25567 
L 256.083173 -34.30504 
L 252.024565 -33.608826 
L 246.025757 -34.368227 
L 245.988465 -33.220221 
L 239.904703 -35.30989 
L 237.378082 -34.458317 
L 236.814463 -35.502976 
L 233.448643 -35.483423 
L 228.652363 -31.671395 
L 220.387344 -27.614269 
L 216.375704 -27.270702 
L 215.856287 -23.359178 
L 214.306349 -23.020152 
L 210.165539 -24.706189 
L 208.351742 -23.914317 
L 204.74417 -20.917565 
L 204.370496 -16.20298 
L 202.068024 -15.596506 
L 199.134928 -16.826224 
L 199.647088 -11.353631 
L 196.975085 -10.988782 
L 196.962641 -9.678418 
L 189.983729 -12.623496 
L 190.700682 -13.492527 
L 189.854907 -14.139851 
L 184.911855 -8.996177 
L 186.772272 -4.954064 
L 186.160656 -3.626241 
L 183.118427 -3.541745 
L 184.428352 -1.099794 
L 183.567727 0.233271 
L 184.175894 1.96086 
L 183.079399 1.782098 
L 182.113101 4.095568 
L 179.429002 6.026364 
L 175.044383 6.395768 
L 170.726767 8.432709 
L 172.400355 9.373318 
L 173.320379 13.92345 
L 171.793911 17.985819 
L 169.498683 18.646412 
L 170.47189 21.727309 
L 169.800528 25.907687 
L 169.253483 27.391921 
L 164.5021 28.059853 
L 162.659285 30.575827 
L 159.664372 29.737174 
L 160.458689 27.463148 
L 159.379796 26.194688 
L 160.139575 24.633632 
L 159.450943 23.324674 
L 157.164697 23.870394 
L 156.91121 25.678994 
L 153.928033 24.301944 
L 153.931495 28.26306 
L 150.024149 28.481267 
L 149.295447 31.237813 
L 144.649054 29.733674 
L 142.803486 26.943967 
L 140.625678 27.234455 
L 138.425763 30.281488 
L 136.27835 30.952555 
L 136.189947 28.705771 
L 133.081062 27.419853 
L 132.190056 25.879053 
L 131.774933 19.306303 
L 129.380249 18.915252 
L 128.661223 20.012287 
L 126.8343 20.132039 
L 131.123593 14.6605 
L 127.361991 12.920343 
L 126.429537 10.852323 
L 124.816043 10.7378 
L 125.182807 5.944665 
L 123.815208 5.502643 
L 123.096183 1.133368 
L 120.805098 -0.174536 
L 117.452403 -0.279288 
L 118.641793 1.281416 
L 118.272262 2.469231 
L 114.378056 3.816241 
L 113.110595 5.772186 
L 105.840196 3.172417 
L 102.569689 4.520131 
L 99.900105 7.596852 
L 96.6821 3.150067 
L 95.34281 3.379111 
L 93.48687 5.920923 
L 91.568778 5.761713 
L 89.254904 3.526456 
L 90.84768 0.920391 
L 90.992728 -0.373554 
L 89.789505 -1.228978 
L 90.844914 -6.999383 
L 88.917144 -8.908194 
L 87.847234 -12.272944 
L 86.134965 -12.908052 
L 84.973203 -11.549515 
L 81.371151 -16.91595 
L 83.171836 -18.605838 
L 82.708369 -23.155619 
L 79.712414 -26.197072 
L 80.470468 -29.583821 
z
" clip-path="url(#p66b460bf4a)" style="fill: #eeeeee; stroke: #000000; stroke-width: 0.3"/>
    <path d="M 8.681171 -31.144836 
L 13.534083 -33.083024 
L 17.473292 -37.573051 
L 22.070592 -45.022317 
L 22.983465 -50.288095 
L 25.26764 -54.836119 
L 27.44407 -55.432472 
L 33.593447 -54.440879 
L 36.376308 -55.793497 
L 40.905975 -55.810253 
L 41.140135 -56.92753 
L 42.921466 -57.278772 
L 50.508907 -56.865384 
L 56.24006 -52.503096 
L 58.139159 -49.565355 
L 59.560637 -50.496883 
L 60.368774 -49.364931 
L 62.828391 -50.030416 
L 65.087343 -46.996301 
L 66.131003 -42.847693 
L 67.843619 -42.482478 
L 68.189358 -41.081686 
L 69.786933 -41.303407 
L 71.608335 -38.259157 
L 70.80227 -37.813297 
L 76.194982 -34.656633 
L 80.470468 -29.583821 
L 79.712414 -26.197072 
L 82.708369 -23.155619 
L 83.171836 -18.605838 
L 81.371151 -16.91595 
L 84.973203 -11.549515 
L 86.134965 -12.908052 
L 87.847234 -12.272944 
L 88.917144 -8.908194 
L 90.783443 -7.137998 
L 89.789505 -1.228978 
L 90.850434 0.657834 
L 81.286197 0.611053 
L 77.851996 1.985994 
L 70.471073 -1.131914 
L 68.615147 -0.266018 
L 68.084328 -2.508262 
L 39.970073 -3.065508 
L 33.528515 0.17949 
L 26.23947 -0.033488 
L 19.475631 1.622172 
L 18.508812 -0.565857 
L 21.463093 -2.435332 
L 22.083637 -1.523682 
L 24.253666 -1.31969 
L 28.813968 -2.437521 
L 31.35056 -1.412065 
L 32.826063 -1.877234 
L 33.960024 -1.144292 
L 35.763489 -2.47602 
L 35.428469 -4.465341 
L 37.140551 -4.690778 
L 37.343955 -5.210931 
L 35.233753 -4.6182 
L 35.327302 -2.659661 
L 34.010066 -1.444509 
L 32.317004 -2.335255 
L 30.370523 -2.008648 
L 28.916218 -3.735156 
L 28.18527 -2.518896 
L 24.253666 -1.512696 
L 22.511123 -3.450343 
L 22.419753 -2.335255 
L 20.72887 -2.929636 
L 21.316253 -4.181623 
L 21.233584 -4.658346 
L 20.561367 -2.42763 
L 19.125561 -1.61661 
L 18.825347 -3.046752 
L 19.869568 -3.835233 
L 18.569735 -3.550407 
L 18.479447 -4.884323 
L 19.743352 -9.514668 
L 31.439818 -9.516763 
L 31.635283 -11.904243 
L 38.874606 -12.536216 
L 40.738138 -15.36957 
L 51.014156 -10.582366 
L 57.273014 -11.64797 
L 58.36709 -13.199242 
L 56.097779 -15.223265 
L 51.05801 -13.543512 
L 48.691648 -16.056689 
L 46.04071 -15.713825 
L 44.19168 -17.945245 
L 41.55801 -18.463736 
L 37.310834 -17.822696 
L 35.651762 -15.276695 
L 21.708266 -15.328234 
L 22.409956 -17.399849 
L 21.207481 -16.237492 
L 20.794684 -17.673675 
L 21.773091 -18.824505 
L 22.702017 -18.270258 
L 22.702017 -20.945794 
L 19.854878 -17.789143 
L 19.229976 -20.252985 
L 21.507695 -20.761045 
L 21.316253 -21.499486 
L 24.336883 -23.177605 
L 22.946762 -23.529509 
L 20.468366 -20.947442 
L 19.574245 -21.130543 
L 20.493922 -22.254968 
L 19.482875 -21.784299 
L 18.852546 -18.73213 
L 18.706242 -21.71722 
L 16.426906 -26.181951 
L 12.85045 -30.239793 
L 10.267091 -30.878712 
L 9.967411 -29.744381 
z
" clip-path="url(#p66b460bf4a)" style="fill: #eeeeee; stroke: #000000; stroke-width: 0.3"/>
    <path d="M 169.253483 27.391921 
L 170.47189 21.727309 
L 169.498683 18.646412 
L 171.793911 17.985819 
L 173.320379 13.92345 
L 172.400355 9.373318 
L 170.726767 8.432709 
L 175.044383 6.395768 
L 179.429002 6.026364 
L 182.113101 4.095568 
L 183.079399 1.782098 
L 184.175894 1.96086 
L 183.567727 0.233271 
L 184.428352 -1.099794 
L 183.118427 -3.541745 
L 186.160656 -3.626241 
L 186.772272 -4.954064 
L 185.233027 -9.674918 
L 186.46595 -9.770239 
L 189.901875 -14.15277 
L 190.700682 -13.492527 
L 189.983729 -12.623496 
L 196.962641 -9.678418 
L 196.975085 -10.988782 
L 199.647088 -11.353631 
L 199.134928 -16.826224 
L 202.068024 -15.596506 
L 204.370496 -16.20298 
L 204.74417 -20.917565 
L 208.351742 -23.914317 
L 210.165539 -24.706189 
L 214.306349 -23.020152 
L 215.856287 -23.359178 
L 216.375704 -27.270702 
L 220.387344 -27.614269 
L 228.652363 -31.671395 
L 233.448643 -35.483423 
L 236.814463 -35.502976 
L 237.378082 -34.458317 
L 239.904703 -35.30989 
L 245.988465 -33.220221 
L 245.191382 -27.614269 
L 248.265035 -24.31026 
L 248.002566 -21.438151 
L 251.011994 -16.706108 
L 255.056782 -15.706839 
L 256.638505 -13.689803 
L 260.025738 -12.073587 
L 256.214401 -12.375602 
L 256.214401 -7.83455 
L 263.971069 -2.426562 
L 267.711941 -2.074618 
L 269.422138 -3.670929 
L 271.258042 -3.419547 
L 273.074606 0.384103 
L 270.492743 1.495096 
L 275.0155 7.513747 
L 273.642368 10.638642 
L 269.944322 13.859898 
L 264.475289 14.376295 
L 262.310607 13.226547 
L 260.850449 15.725414 
L 258.524131 15.770101 
L 258.551759 17.386317 
L 257.267043 17.708938 
L 258.004727 19.193524 
L 256.185397 18.545849 
L 255.943645 19.978072 
L 249.58636 20.530765 
L 249.572553 19.585278 
L 239.036138 17.426829 
L 234.584167 20.872237 
L 232.004376 19.549658 
L 205.144443 19.655451 
L 203.872491 24.570095 
L 206.077245 27.449878 
L 205.091593 28.502915 
L 206.245777 29.617408 
L 206.526891 35.536199 
L 205.706324 36.925127 
L 207.124353 40.050373 
L 206.129038 41.35898 
L 200.099849 34.281711 
L 198.937378 35.288304 
L 198.73086 34.474784 
L 192.87849 34.00798 
L 187.595941 35.596953 
L 184.643171 38.777021 
L 182.898436 37.803238 
L 182.78826 36.586452 
L 180.500984 37.437673 
L 178.958972 36.459011 
L 178.93204 35.269453 
L 176.691719 34.478973 
L 176.728329 32.596701 
L 175.301331 31.652958 
L 174.645153 29.175035 
L 170.857995 29.080066 
z
" clip-path="url(#p66b460bf4a)" style="fill: #eeeeee; stroke: #000000; stroke-width: 0.3"/>
    <path d="M 19.475631 1.622172 
L 26.23947 -0.033488 
L 33.528515 0.17949 
L 39.970073 -3.065508 
L 59.575834 -2.983809 
L 60.020308 2.157082 
L 58.082527 2.370762 
L 56.311208 4.067636 
L 59.633856 6.078038 
L 59.55374 10.036708 
L 57.680878 9.579322 
L 55.741708 11.019221 
L 52.071971 10.590455 
L 48.981049 12.697934 
L 46.43994 12.904979 
L 41.439267 20.606397 
L 42.566143 16.699211 
L 39.502008 19.698611 
L 39.816363 16.469383 
L 39.45687 17.972643 
L 37.789926 17.679588 
L 36.882212 15.756778 
L 38.995128 13.777348 
L 37.9917 14.51579 
L 37.854644 13.367716 
L 35.800473 14.792359 
L 36.249157 12.947086 
L 39.368762 11.831997 
L 38.820554 11.18539 
L 41.029183 11.281061 
L 40.930208 12.257574 
L 42.480213 11.361882 
L 40.280833 10.715815 
L 40.829041 10.062059 
L 39.53029 10.729017 
L 39.550954 9.424788 
L 36.714161 12.100324 
L 36.879499 10.255051 
L 36.213804 10.786204 
L 35.208197 9.721708 
L 36.714161 7.663647 
L 40.049146 7.85553 
L 41.376166 6.924651 
L 41.649742 8.76937 
L 43.434708 9.453382 
L 41.639396 7.997389 
L 42.481309 6.408348 
L 39.703246 7.337039 
L 36.879499 6.640379 
L 31.478914 9.516068 
L 32.764606 8.03259 
L 31.944466 7.663647 
L 29.760297 9.699155 
L 31.011731 6.490831 
L 32.947346 6.555707 
L 33.038716 5.901937 
L 31.031312 5.717202 
L 27.546775 7.663647 
L 24.465223 4.935316 
L 28.368011 1.372331 
L 23.095232 3.792202 
z
" clip-path="url(#p66b460bf4a)" style="fill: #eeeeee; stroke: #000000; stroke-width: 0.3"/>
    <path d="M 32.241954 17.28974 
L 32.499745 15.899745 
L 33.777283 15.53849 
L 33.777283 16.469383 
z
" clip-path="url(#p66b460bf4a)" style="fill: #eeeeee; stroke: #000000; stroke-width: 0.3"/>
    <path d="M 29.503602 18.978858 
L 30.201924 18.407031 
L 29.928348 16.922445 
L 30.848572 18.633562 
z
" clip-path="url(#p66b460bf4a)" style="fill: #eeeeee; stroke: #000000; stroke-width: 0.3"/>
    <path d="M 28.094435 13.307773 
L 30.019183 11.454257 
L 30.57501 13.500224 
L 28.741097 13.9533 
z
" clip-path="url(#p66b460bf4a)" style="fill: #eeeeee; stroke: #000000; stroke-width: 0.3"/>
    <path d="M 26.999637 7.85553 
L 28.717706 7.477249 
L 29.404613 7.636702 
L 28.658428 9.424788 
z
" clip-path="url(#p66b460bf4a)" style="fill: #eeeeee; stroke: #000000; stroke-width: 0.3"/>
    <path d="M 25.896685 18.214025 
L 27.875807 16.815233 
L 28.558356 18.02983 
L 27.447786 19.237293 
z
" clip-path="url(#p66b460bf4a)" style="fill: #eeeeee; stroke: #000000; stroke-width: 0.3"/>
    <path d="M 25.447453 16.350063 
L 26.451429 15.437872 
L 26.900113 16.645321 
L 25.851 16.687117 
z
" clip-path="url(#p66b460bf4a)" style="fill: #eeeeee; stroke: #000000; stroke-width: 0.3"/>
    <path d="M 23.514551 12.47697 
L 25.896685 11.739623 
L 25.529026 12.932789 
L 23.605921 13.031204 
z
" clip-path="url(#p66b460bf4a)" style="fill: #eeeeee; stroke: #000000; stroke-width: 0.3"/>
    <path d="M 34.153644 12.480267 
L 35.511125 11.18539 
L 36.27363 11.978262 
z
" clip-path="url(#p66b460bf4a)" style="fill: #eeeeee; stroke: #000000; stroke-width: 0.3"/>
    <path d="M 32.752643 13.549709 
L 33.312827 12.846455 
L 33.495019 13.677271 
z
" clip-path="url(#p66b460bf4a)" style="fill: #eeeeee; stroke: #000000; stroke-width: 0.3"/>
    <path d="M 30.595673 16.26758 
L 31.539823 15.673754 
L 30.931789 16.922445 
z
" clip-path="url(#p66b460bf4a)" style="fill: #eeeeee; stroke: #000000; stroke-width: 0.3"/>
    <path d="M 28.450132 17.41841 
L 29.553083 18.058424 
L 28.983663 18.70064 
z
" clip-path="url(#p66b460bf4a)" style="fill: #eeeeee; stroke: #000000; stroke-width: 0.3"/>
    <path d="M 25.17389 13.500224 
L 26.999637 12.661719 
L 26.351892 13.677271 
z
" clip-path="url(#p66b460bf4a)" style="fill: #eeeeee; stroke: #000000; stroke-width: 0.3"/>
   </g>
   <g id="PatchCollection_2">
    <path d="M 65.285575 46.09382 
L 67.760736 46.060646 
L 69.855995 44.251344 
L 69.872583 42.973101 
L 72.462385 41.956387 
L 76.36282 34.746084 
L 78.977162 34.097354 
L 80.786815 34.832323 
L 83.721635 34.192675 
L 83.877737 33.242634 
L 92.736768 33.230769 
L 97.561371 38.973594 
L 98.290755 41.355494 
L 100.38429 42.513283 
L 99.432495 45.521899 
L 101.467326 45.923422 
L 101.39273 49.149232 
L 102.967542 51.08038 
L 99.580309 56.28516 
L 105.635749 53.618705 
L 105.118404 57.692939 
L 101.226269 59.736866 
L 101.185516 63.288418 
L 91.802242 70.794453 
L 89.677377 74.769231 
L 84.820122 71.667024 
L 75.905086 68.412499 
L 77.737903 68.412499 
L 76.136773 67.666369 
L 76.950938 66.469906 
L 80.219026 65.535715 
L 76.477767 66.086111 
L 75.405812 64.848961 
L 76.634952 63.220327 
L 74.631357 64.440437 
L 70.140652 61.702769 
L 71.698837 61.283233 
L 70.489278 59.753027 
L 70.968958 58.775406 
L 69.683266 56.737128 
L 67.11894 57.85277 
L 65.477016 53.407836 
L 68.861482 55.077157 
L 67.757983 53.776226 
L 71.051627 52.476402 
L 70.230391 52.291653 
L 70.968958 50.908252 
L 68.483505 52.286708 
L 68.952853 51.369571 
L 67.202157 51.10069 
L 67.873278 52.316395 
L 67.139069 53.172494 
L 66.099192 49.007995 
L 69.501074 48.585161 
L 67.567637 48.491138 
L 68.306204 47.477221 
L 65.741878 47.301823 
z
" clip-path="url(#p66b460bf4a)" style="fill: #ff6b6b; stroke: #dd0000; stroke-width: 0.5"/>
    <path d="M 69.956281 65.904659 
L 74.370292 65.035912 
L 76.086731 66.004736 
L 75.329131 68.415242 
L 74.582397 67.212199 
z
" clip-path="url(#p66b460bf4a)" style="fill: #ff6b6b; stroke: #dd0000; stroke-width: 0.5"/>
   </g>
  </g>
 </g>
 <defs>
  <clipPath id="p66b460bf4a">
   <rect x="0" y="0" width="170.921324" height="108"/>
  </clipPath>
 </defs>
</svg>
