<?xml version="1.0" encoding="utf-8" standalone="no"?>
<!DOCTYPE svg PUBLIC "-//W3C//DTD SVG 1.1//EN"
  "http://www.w3.org/Graphics/SVG/1.1/DTD/svg11.dtd">
<svg xmlns:xlink="http://www.w3.org/1999/xlink" width="114.085487pt" height="108pt" viewBox="0 0 114.085487 108" xmlns="http://www.w3.org/2000/svg" version="1.1">
 <metadata>
  <rdf:RDF xmlns:dc="http://purl.org/dc/elements/1.1/" xmlns:cc="http://creativecommons.org/ns#" xmlns:rdf="http://www.w3.org/1999/02/22-rdf-syntax-ns#">
   <cc:Work>
    <dc:type rdf:resource="http://purl.org/dc/dcmitype/StillImage"/>
    <dc:date>2025-09-05T13:56:21.003866</dc:date>
    <dc:format>image/svg+xml</dc:format>
    <dc:creator>
     <cc:Agent>
      <dc:title>Matplotlib v3.10.3, https://matplotlib.org/</dc:title>
     </cc:Agent>
    </dc:creator>
   </cc:Work>
  </rdf:RDF>
 </metadata>
 <defs>
  <style type="text/css">*{stroke-linejoin: round; stroke-linecap: butt}</style>
 </defs>
 <g id="figure_1">
  <g id="patch_1">
   <path d="M 0 108 
L 114.085487 108 
L 114.085487 0 
L 0 0 
z
" style="fill: #ffffff"/>
  </g>
  <g id="axes_1">
   <g id="PatchCollection_1">
    <path d="M 79.267189 57.844856 
L 79.320829 55.572038 
L 80.883017 54.02619 
L 82.971263 48.6403 
L 85.951645 49.498401 
L 84.265241 47.412321 
L 84.775302 45.837966 
L 84.120318 41.811199 
L 93.374856 30.765737 
L 96.098327 30.26186 
L 97.249257 28.385316 
L 97.00646 26.011309 
L 95.882819 24.70065 
L 97.572046 24.032846 
L 92.946662 17.850517 
L 93.515071 16.474995 
L 92.778211 13.436039 
L 96.098327 13.970919 
L 99.826868 9.916003 
L 112.366228 9.247137 
L 124.96064 11.615807 
L 126.020298 13.95026 
L 129.891877 13.926386 
L 130.088564 15.657538 
L 131.153867 13.599608 
L 133.33528 14.362202 
L 134.602907 13.061155 
L 135.730318 14.765593 
L 138.189348 14.418499 
L 139.326165 16.518839 
L 139.973627 14.707144 
L 142.371487 13.355868 
L 143.256565 13.732173 
L 144.709114 17.010952 
L 147.602921 15.282654 
L 149.34109 16.122923 
L 152.254666 15.371735 
L 155.814747 18.809462 
L 156.779352 16.984941 
L 155.591717 13.72718 
L 157.654551 9.66905 
L 159.471774 8.346641 
L 159.267556 7.445069 
L 166.966498 6.874192 
L 168.296242 7.860224 
L 171.236632 7.146094 
L 172.702357 3.753989 
L 177.388911 4.936 
L 179.882761 3.19558 
L 182.593057 3.327083 
L 182.862205 4.295641 
L 185.539093 3.370554 
L 187.918131 6.073478 
L 188.199518 8.92571 
L 191.081087 11.327162 
L 190.74983 12.280039 
L 188.134587 12.859108 
L 189.359863 14.953379 
L 189.015431 16.616828 
L 190.134365 17.437857 
L 189.016369 18.619882 
L 192.862543 18.825488 
L 193.468603 19.740245 
L 197.14538 19.189325 
L 197.736379 21.24618 
L 199.66182 21.699814 
L 199.021888 22.820548 
L 200.69794 26.624236 
L 199.867913 27.268512 
L 201.995687 30.993809 
L 206.497792 30.036642 
L 207.983749 31.963801 
L 209.267382 31.643794 
L 210.946256 33.025011 
L 218.420275 29.88841 
L 220.095398 31.832656 
L 220.076577 33.128352 
L 223.748646 37.226381 
L 225.258132 36.664069 
L 225.328717 35.014866 
L 226.475887 35.009888 
L 226.986895 36.112431 
L 229.796941 36.324822 
L 232.280437 38.554859 
L 234.268934 37.587721 
L 235.226009 39.368054 
L 237.926899 39.651003 
L 240.148777 42.158279 
L 243.007765 41.491192 
L 242.273728 42.918735 
L 243.408661 45.035459 
L 243.245855 46.246336 
L 241.215956 48.976705 
L 238.987485 50.047886 
L 242.436534 51.708481 
L 239.947383 52.287908 
L 238.602588 55.333291 
L 240.636257 55.758059 
L 241.264889 58.2404 
L 240.279586 59.177596 
L 241.870948 59.928081 
L 239.769526 63.221479 
L 239.532374 65.965377 
L 231.732735 65.341403 
L 230.433112 67.880399 
L 226.649984 69.064203 
L 225.463287 73.068159 
L 226.459889 73.688217 
L 225.040393 76.699838 
L 224.396463 75.842909 
L 219.614757 76.093765 
L 217.691856 78.840188 
L 216.707055 78.088199 
L 213.30733 79.970976 
L 213.387358 80.295893 
L 212.538911 82.220183 
L 212.84124 81.015333 
L 211.872009 80.253801 
L 209.177711 81.02656 
L 208.068429 82.63378 
L 207.259254 81.784147 
L 204.63832 82.00862 
L 200.903659 84.832496 
L 197.901843 89.24227 
L 196.26571 89.937575 
L 199.543913 86.380233 
L 198.143411 83.943584 
L 198.336074 85.543509 
L 197.415748 86.904384 
L 194.719229 88.574453 
L 196.207071 94.90951 
L 194.507208 93.718714 
L 193.59353 91.369297 
L 191.553697 91.626759 
L 190.363795 90.049756 
L 185.922897 88.311832 
L 184.320918 88.002886 
L 182.918741 90.371928 
L 180.171832 89.24227 
L 180.358567 87.924053 
L 179.336725 89.136765 
L 173.6962 89.961145 
L 168.071974 86.59741 
L 167.301324 87.079468 
L 167.289469 86.291001 
L 169.67551 85.579988 
L 166.822641 84.115869 
L 166.257993 85.082221 
L 164.63519 82.907075 
L 172.00374 84.606892 
L 174.989986 82.051829 
L 172.169724 83.25781 
L 169.319823 82.334116 
L 168.56845 80.545053 
L 169.180519 78.388429 
L 169.075296 78.041625 
L 168.528431 77.842405 
L 168.901901 77.090417 
L 167.885239 76.855849 
L 168.172753 75.940554 
L 167.569571 74.643659 
L 166.905628 74.237372 
L 166.760396 73.645876 
L 166.624788 74.177888 
L 167.967489 75.925411 
L 167.631816 77.10276 
L 168.823348 78.088199 
L 167.880796 79.886792 
L 168.196464 82.051829 
L 164.495886 82.339715 
L 165.635553 79.791947 
L 164.63519 80.733612 
L 164.019415 79.970976 
L 164.612964 81.075382 
L 163.796377 82.334116 
L 158.101019 83.385203 
L 157.935036 85.543509 
L 156.836862 86.259018 
L 155.400794 89.901096 
L 152.161863 93.496586 
L 152.06183 92.509478 
L 151.762461 93.564496 
L 150.230066 93.579087 
L 150.285646 94.814803 
L 149.102254 94.631306 
L 149.62763 95.576901 
L 148.476855 96.330006 
L 147.60691 93.406237 
L 147.165276 97.09209 
L 148.233802 96.895669 
L 147.311255 98.207721 
L 148.678404 98.901343 
L 147.937401 101.857095 
L 147.716794 100.02896 
L 145.717007 98.866547 
L 143.873442 98.958482 
L 141.157501 100.95333 
L 139.881398 100.369627 
L 139.999031 101.435113 
L 139.155829 101.672453 
L 135.697374 100.348967 
L 134.506917 98.433932 
L 137.261447 97.786084 
L 137.006412 95.728512 
L 139.41274 93.251164 
L 139.430623 91.656135 
L 141.403121 90.991903 
L 141.935763 88.492448 
L 141.190436 87.439085 
L 141.302424 84.738658 
L 143.473485 83.590491 
L 143.623115 86.085658 
L 144.588658 84.501318 
L 145.207884 85.271042 
L 145.962627 84.325998 
L 147.401536 86.02081 
L 148.298378 84.512723 
L 149.336383 86.330114 
L 152.099381 85.179465 
L 150.008311 83.689915 
L 150.247348 79.843101 
L 146.882998 77.967633 
L 147.278257 76.377942 
L 146.147085 75.680927 
L 146.756896 75.349514 
L 146.863713 72.75029 
L 145.525027 73.361079 
L 143.212804 71.013083 
L 142.865076 69.863855 
L 143.944966 65.210617 
L 142.924835 63.758855 
L 141.343826 64.326877 
L 139.967982 61.88587 
L 137.913607 61.290403 
L 137.057229 62.532284 
L 136.438003 61.073392 
L 135.580688 61.560871 
L 135.947701 60.1369 
L 133.539489 60.152939 
L 133.386098 59.08424 
L 128.893399 56.72448 
L 125.483886 58.454211 
L 122.054605 58.030147 
L 121.530421 59.466958 
L 120.669336 58.873987 
L 117.242887 60.503233 
L 116.055243 63.522233 
L 107.757307 64.826479 
L 106.101961 66.973131 
L 104.432493 67.426406 
L 101.204597 64.202504 
L 98.371961 64.847856 
L 91.35907 63.822986 
L 88.429497 62.074374 
L 86.048582 64.162233 
L 85.355001 62.173081 
L 83.570722 62.089352 
L 82.441435 60.082023 
L 81.309325 60.074892 
L 80.53293 57.863378 
z
" clip-path="url(#p76f9200f13)" style="fill: #eeeeee; stroke: #000000; stroke-width: 0.3"/>
    <path d="M 164.599624 85.861709 
L 165.635553 87.435816 
L 169.757013 88.494778 
L 170.626211 88.951019 
L 165.290984 87.386994 
L 164.75968 86.691138 
z
" clip-path="url(#p76f9200f13)" style="fill: #eeeeee; stroke: #000000; stroke-width: 0.3"/>
    <path d="M 148.45166 96.64651 
L 151.590549 93.873704 
L 152.048491 93.61107 
L 150.064082 95.611131 
L 149.1482 96.330006 
z
" clip-path="url(#p76f9200f13)" style="fill: #eeeeee; stroke: #000000; stroke-width: 0.3"/>
    <path d="M 174.752124 90.183369 
L 178.740954 90.66318 
L 178.582382 90.843326 
z
" clip-path="url(#p76f9200f13)" style="fill: #eeeeee; stroke: #000000; stroke-width: 0.3"/>
    <path d="M 88.671356 4.269989 
L 90.735136 1.232453 
L 95.562853 -1.980416 
L 95.300297 -7.626085 
L 92.543882 -13.960577 
L 91.584922 -18.484809 
L 97.812967 -18.755635 
L 99.709235 -17.761411 
L 103.610935 -18.981556 
L 103.749274 -21.177389 
L 106.0295 -21.145323 
L 107.251954 -22.863649 
L 109.556647 -23.444497 
L 110.418206 -22.511576 
L 110.072826 -21.318505 
L 112.321994 -21.479577 
L 112.560093 -22.579983 
L 111.711236 -23.748823 
L 110.187637 -23.748823 
L 112.115901 -27.162663 
L 112.500807 -31.316286 
L 115.741869 -32.685394 
L 116.887154 -35.045858 
L 119.951297 -34.780024 
L 121.770396 -36.883205 
L 118.577329 -37.624409 
L 120.084929 -42.601915 
L 121.97179 -42.852082 
L 123.412575 -44.517668 
L 128.981859 -44.067593 
L 129.458047 -45.841154 
L 133.700883 -49.067911 
L 135.521393 -47.493914 
L 138.25804 -48.125364 
L 139.354865 -46.171491 
L 142.075987 -47.238755 
L 145.397988 -46.184317 
L 145.842644 -45.621646 
L 144.924622 -43.967465 
L 146.174374 -42.507139 
L 150.061952 -44.742886 
L 152.724726 -44.946712 
L 155.170116 -44.057621 
L 157.659258 -41.311213 
L 158.970181 -41.395314 
L 159.262849 -38.461836 
L 158.133562 -37.051394 
L 159.640698 -35.35588 
L 160.058065 -33.430873 
L 158.320834 -32.120931 
L 157.918054 -30.162424 
L 161.536018 -27.894612 
L 160.595415 -26.111424 
L 161.910098 -25.501352 
L 162.963163 -22.483773 
L 167.497265 -20.059164 
L 166.787221 -16.492802 
L 169.873481 -16.696642 
L 173.138072 -15.376715 
L 173.575671 -14.869266 
L 172.746118 -14.293411 
L 173.022323 -13.275672 
L 175.663918 -11.591549 
L 175.645097 -10.149759 
L 173.25382 -9.674031 
L 172.96962 -8.34947 
L 170.180271 -6.648963 
L 165.597701 -8.423241 
L 163.453465 -8.040868 
L 162.256415 -5.728868 
L 165.113518 -2.593688 
L 164.383242 -1.151181 
L 165.730869 0.702551 
L 165.019887 1.201449 
L 165.172804 3.966725 
L 166.375499 4.793105 
L 166.966498 6.874192 
L 159.267556 7.445069 
L 159.471774 8.346641 
L 157.654551 9.66905 
L 155.591717 13.72718 
L 156.779352 16.984941 
L 155.915444 18.787009 
L 152.254666 15.371735 
L 149.34109 16.122923 
L 147.602921 15.282654 
L 144.709114 17.010952 
L 143.256565 13.732173 
L 142.371487 13.355868 
L 139.973627 14.707144 
L 139.326165 16.518839 
L 138.189348 14.418499 
L 135.730318 14.765593 
L 134.602907 13.061155 
L 133.33528 14.362202 
L 131.153867 13.599608 
L 130.088564 15.657538 
L 129.891877 13.926386 
L 126.020298 13.95026 
L 124.96064 11.615807 
L 112.366228 9.247137 
L 99.826868 9.916003 
L 96.098327 13.970919 
L 92.890199 13.377245 
L 92.683159 14.917039 
L 92.011231 12.964586 
L 93.322153 8.342724 
L 92.967368 7.096196 
z
" clip-path="url(#p76f9200f13)" style="fill: #eeeeee; stroke: #000000; stroke-width: 0.3"/>
    <path d="M -12.303709 31.497686 
L -11.637426 31.545432 
L -10.261572 33.626533 
L -8.351192 30.482801 
L -4.32339 30.27041 
L -3.803914 29.049562 
L 0.187192 27.607055 
L 1.176255 26.097548 
L 8.36937 23.705005 
L 8.691221 23.144114 
L 7.384068 22.294564 
L 7.83202 21.54481 
L 9.604061 21.539817 
L 10.443503 22.390788 
L 10.225172 23.265273 
L 10.943211 23.146251 
L 10.797341 24.182512 
L 14.156046 23.996505 
L 13.964067 22.154165 
L 15.634473 21.893324 
L 16.775997 22.705802 
L 17.561799 25.14965 
L 21.533137 25.601505 
L 23.164964 26.485258 
L 23.260953 27.519382 
L 26.444615 26.962048 
L 27.302868 28.016846 
L 25.24192 30.2412 
L 26.554718 30.742222 
L 29.440057 34.561591 
L 32.665121 32.831156 
L 31.555593 29.873446 
L 36.392724 32.52683 
L 38.976918 31.5547 
L 39.337349 32.844699 
L 37.897502 33.593033 
L 38.291814 34.377721 
L 40.173021 36.207938 
L 41.930949 35.805264 
L 41.65804 35.199467 
L 44.298697 37.11591 
L 46.727616 37.124474 
L 47.260267 39.790685 
L 48.814916 40.415018 
L 49.222403 42.598728 
L 46.513045 42.992851 
L 43.097887 46.068162 
L 42.323376 48.985256 
L 39.151953 51.526748 
L 34.055088 51.57022 
L 32.029896 55.095248 
L 31.373966 53.511625 
L 28.155486 52.317132 
L 26.687412 53.397596 
L 24.20203 53.18235 
L 21.772174 51.397038 
L 14.355556 49.501256 
L 13.769264 52.907248 
L 12.501629 52.718386 
L 11.365759 55.480462 
L 9.385731 54.557154 
L 8.088931 55.73311 
L 5.585666 55.136581 
L 1.650558 50.378582 
L -0.001027 50.188299 
L -3.893312 45.568561 
L -7.137206 43.712691 
L -9.504007 39.390865 
L -8.22509 37.155119 
L -10.749052 35.224403 
L -12.27265 32.496902 
z
" clip-path="url(#p76f9200f13)" style="fill: #eeeeee; stroke: #000000; stroke-width: 0.3"/>
    <path d="M -68.921176 21.786053 
L -66.288987 19.95298 
L -67.114306 19.133027 
L -65.737514 16.706267 
L -65.869261 15.028213 
L -68.253955 10.803673 
L -66.208048 10.439492 
L -66.473436 9.685449 
L -64.488709 10.728481 
L -60.857569 9.525452 
L -60.261863 8.543337 
L -61.439153 7.42725 
L -58.284666 5.080329 
L -58.085156 3.226225 
L -58.767438 2.036022 
L -61.121072 1.895623 
L -61.513499 0.790569 
L -60.91874 -0.492286 
L -58.356189 -0.372202 
L -56.768597 -5.502934 
L -56.752481 -8.909685 
L -56.204878 -9.937203 
L -55.186742 -9.706565 
L -58.309333 -10.721739 
L -58.055909 -12.60002 
L -57.233395 -12.938977 
L -57.734314 -13.624172 
L -56.465713 -14.722413 
L -49.132738 -15.295938 
L -47.889332 -13.160084 
L -48.717775 -11.994499 
L -47.549207 -11.194819 
L -46.549591 -12.080366 
L -47.313567 -12.773988 
L -46.954183 -13.982768 
L -44.391788 -13.027643 
L -44.957173 -12.238624 
L -44.826018 -10.468649 
L -44.267298 -13.070287 
L -44.992739 -15.190445 
L -44.068708 -17.535063 
L -38.394839 -17.556384 
L -35.010675 -13.685352 
L -32.737269 -13.027643 
L -34.99882 -13.977169 
L -36.714981 -16.991273 
L -37.965799 -17.743813 
L -40.453347 -17.902071 
L -41.078018 -18.45877 
L -41.830876 -19.824679 
L -40.338491 -19.738826 
L -40.146575 -20.672064 
L -42.017611 -21.811265 
L -40.648978 -23.702455 
L -43.241012 -23.034651 
L -43.95682 -23.984729 
L -40.208073 -26.305224 
L -43.147645 -29.462995 
L -43.402188 -31.68364 
L -38.091062 -30.379794 
L -35.032902 -31.269436 
L -32.812853 -29.758743 
L -31.685788 -30.072999 
L -31.04185 -28.99328 
L -31.850288 -28.616176 
L -30.852156 -28.518518 
L -30.963306 -27.044855 
L -32.663906 -25.877036 
L -29.902183 -26.105439 
L -29.351621 -25.680064 
L -29.917007 -23.796169 
L -28.309027 -25.435952 
L -24.549172 -23.600315 
L -20.868599 -24.64412 
L -21.496229 -24.267567 
L -21.496229 -21.858405 
L -24.355026 -20.013238 
L -22.993805 -18.7893 
L -20.508478 -19.570472 
L -17.934964 -18.027782 
L -15.82236 -21.462779 
L -12.194407 -21.998707 
L -12.162538 -20.894302 
L -11.949871 -20.672064 
L -12.005451 -21.846062 
L -8.13592 -26.056051 
L -4.609484 -25.300698 
L -7.313406 -25.154796 
L -8.198165 -24.456126 
L -9.004381 -24.666573 
L -9.638677 -23.034651 
L -6.797672 -24.98869 
L -5.214879 -24.257472 
L -3.811417 -25.36356 
L -2.845155 -23.183918 
L 0.511601 -20.581163 
L 2.590861 -21.716986 
L 3.466725 -20.765791 
L 2.902077 -19.824679 
L 4.358149 -18.536776 
L 3.561576 -17.639438 
L 3.548237 -17.293751 
L 7.622276 -15.896411 
L 7.150995 -15.295938 
L 9.235163 -9.00373 
L 8.340196 -6.201038 
L 6.529566 -4.97768 
L 6.342293 -3.47067 
L 11.085311 0.304511 
L 10.18 2.990678 
L 11.700776 5.007634 
L 11.463625 6.59196 
L 12.146844 7.203826 
L 10.547961 10.965822 
L 11.88335 12.973137 
L 11.679133 14.739927 
L 13.913249 16.047731 
L 14.520237 18.787368 
L 13.912302 21.169567 
L 12.127085 24.670722 
L 10.797341 24.182512 
L 10.943211 23.146251 
L 10.225172 23.265273 
L 10.443503 22.390788 
L 9.604061 21.539817 
L 7.83202 21.54481 
L 7.384068 22.294564 
L 8.691221 23.144114 
L 8.36937 23.705005 
L 1.176255 26.097548 
L 0.187192 27.607055 
L -3.803914 29.049562 
L -4.32339 30.27041 
L -8.351192 30.482801 
L -10.261572 33.626533 
L -10.81493 32.305888 
L -12.303709 31.497686 
L -10.749052 35.224403 
L -8.22509 37.155119 
L -9.504007 39.390865 
L -7.137206 43.712691 
L -3.893312 45.568561 
L -2.266193 48.003858 
L 0.286942 50.394263 
L 1.650558 50.378582 
L 3.536008 52.857364 
L 2.632573 56.232712 
L 0.247415 55.51894 
L -0.198652 58.233987 
L -6.26859 61.863059 
L -3.971428 65.536334 
L -4.874853 67.240399 
L -3.235506 68.124152 
L -3.874491 70.792141 
L -5.904399 69.567363 
L -6.058728 68.022232 
L -8.475418 68.545707 
L -10.823398 67.856167 
L -10.791401 67.123515 
L -11.416273 68.874265 
L -16.452914 69.087014 
L -19.944303 71.786007 
L -22.289461 71.83305 
L -23.389583 69.900554 
L -27.299751 69.261258 
L -27.308219 71.757141 
L -29.752189 73.480101 
L -29.302361 72.082141 
L -30.453291 72.267087 
L -31.70022 69.761218 
L -33.191823 69.104116 
L -34.73519 70.021714 
L -38.643473 67.973051 
L -41.390472 68.17012 
L -44.336044 66.169921 
L -45.855882 68.041471 
L -43.88903 68.167982 
L -44.191112 69.048522 
L -47.297605 68.641572 
L -49.033889 69.488254 
L -52.972293 69.430536 
L -52.517758 68.991507 
L -53.188266 69.156455 
L -53.86349 67.464182 
L -52.868773 63.821566 
L -53.252732 61.848812 
L -51.688669 58.719686 
L -51.146602 54.945581 
L -47.594989 50.207538 
L -52.742672 49.114966 
L -54.786684 47.306126 
L -56.026083 48.187741 
L -58.136921 48.152104 
L -59.303849 46.785851 
L -61.023198 47.490713 
L -62.970756 43.778256 
L -64.485604 43.356053 
L -63.05357 38.662475 
L -64.874544 38.120823 
L -66.751991 35.173801 
L -66.292747 32.892446 
L -64.219561 31.49341 
L -64.562109 29.210621 
L -66.074417 28.701048 
L -65.362023 27.370432 
L -67.875641 25.06199 
L -67.049375 23.327984 
z
" clip-path="url(#p76f9200f13)" style="fill: #eeeeee; stroke: #000000; stroke-width: 0.3"/>
    <path d="M -2.839965 -23.984729 
L -1.461698 -24.64412 
L -2.462052 -25.208666 
L -1.404634 -25.971315 
L -2.585795 -26.809722 
L -1.179374 -26.489287 
L -0.528033 -27.392225 
L -0.714759 -26.544288 
L 0.725753 -26.056051 
L 0.850243 -27.194136 
L 0.127761 -27.006694 
L -0.530255 -27.764295 
L -1.585441 -27.1094 
L -1.219384 -28.180126 
L -1.788475 -28.332207 
L -0.333149 -28.813148 
L -0.02563 -27.392225 
L 2.21517 -27.131287 
L 1.348193 -25.829896 
L 3.087327 -24.079008 
L 2.693115 -23.161479 
L 1.726106 -23.702455 
L 2.399683 -24.173288 
L 0.658318 -24.079008 
L -0.616948 -23.12107 
L -0.183464 -22.46954 
z
" clip-path="url(#p76f9200f13)" style="fill: #eeeeee; stroke: #000000; stroke-width: 0.3"/>
    <path d="M 2.964322 -21.434161 
L 3.52897 -21.716986 
L 7.126547 -18.473362 
L 7.042467 -17.641644 
L 3.757945 -17.257272 
L 4.591568 -17.933503 
L 4.344072 -19.259015 
L 5.654166 -18.506462 
L 5.680845 -19.392008 
L 4.722732 -20.240524 
L 3.156984 -19.636133 
L 3.52897 -20.718652 
z
" clip-path="url(#p76f9200f13)" style="fill: #eeeeee; stroke: #000000; stroke-width: 0.3"/>
    <path d="M -46.828956 -29.56064 
L -46.705203 -31.907505 
L -46.016066 -33.59611 
L -45.632972 -34.014741 
L -45.199479 -33.812721 
L -45.882689 -31.654967 
L -43.459607 -31.646554 
L -46.622207 -31.257092 
z
" clip-path="url(#p76f9200f13)" style="fill: #eeeeee; stroke: #000000; stroke-width: 0.3"/>
    <path d="M -18.681895 -19.071573 
L -18.218026 -19.638368 
L -17.568907 -19.636133 
L -17.934964 -18.7893 
z
" clip-path="url(#p76f9200f13)" style="fill: #eeeeee; stroke: #000000; stroke-width: 0.3"/>
    <path d="M -42.017611 -25.971315 
L -41.729359 -26.489853 
L -40.648978 -26.544288 
L -41.333663 -25.782756 
z
" clip-path="url(#p76f9200f13)" style="fill: #eeeeee; stroke: #000000; stroke-width: 0.3"/>
    <path d="M -3.332734 -25.782756 
L -2.960002 -27.543188 
L -2.808842 -27.40963 
z
" clip-path="url(#p76f9200f13)" style="fill: #eeeeee; stroke: #000000; stroke-width: 0.3"/>
    <path d="M -17.240645 -20.492497 
L -16.494453 -20.868484 
L -17.189518 -20.107517 
z
" clip-path="url(#p76f9200f13)" style="fill: #eeeeee; stroke: #000000; stroke-width: 0.3"/>
    <path d="M -22.050506 -25.782756 
L -20.998279 -26.71376 
L -19.241352 -25.029085 
z
" clip-path="url(#p76f9200f13)" style="fill: #eeeeee; stroke: #000000; stroke-width: 0.3"/>
    <path d="M -43.784162 -26.1161 
L -43.055015 -27.025781 
L -43.036494 -26.876501 
z
" clip-path="url(#p76f9200f13)" style="fill: #eeeeee; stroke: #000000; stroke-width: 0.3"/>
    <path d="M -45.826372 -29.180722 
L -45.441793 -29.644824 
L -44.01239 -29.275002 
z
" clip-path="url(#p76f9200f13)" style="fill: #eeeeee; stroke: #000000; stroke-width: 0.3"/>
    <path d="M -46.76448 -28.521896 
L -45.937522 -28.136917 
L -45.764127 -28.051616 
z
" clip-path="url(#p76f9200f13)" style="fill: #eeeeee; stroke: #000000; stroke-width: 0.3"/>
    <path d="M -48.044936 -15.381804 
L -48.031605 -15.724691 
L -47.634425 -15.570363 
z
" clip-path="url(#p76f9200f13)" style="fill: #eeeeee; stroke: #000000; stroke-width: 0.3"/>
    <path d="M -50.168657 -21.901063 
L -50.057507 -22.015547 
L -50.0249 -21.940907 
z
" clip-path="url(#p76f9200f13)" style="fill: #eeeeee; stroke: #000000; stroke-width: 0.3"/>
    <path d="M -50.512489 -21.996459 
L -50.379103 -22.006569 
L -50.336863 -21.779283 
z
" clip-path="url(#p76f9200f13)" style="fill: #eeeeee; stroke: #000000; stroke-width: 0.3"/>
    <path d="M -50.743677 -16.350969 
L -50.350949 -16.512579 
L -49.823351 -16.327951 
z
" clip-path="url(#p76f9200f13)" style="fill: #eeeeee; stroke: #000000; stroke-width: 0.3"/>
    <path d="M -52.275334 -16.301581 
L -51.123074 -16.33133 
L -51.711432 -16.024921 
z
" clip-path="url(#p76f9200f13)" style="fill: #eeeeee; stroke: #000000; stroke-width: 0.3"/>
    <path d="M -54.217511 -15.624233 
L -53.000775 -16.047926 
L -52.813303 -15.886867 
z
" clip-path="url(#p76f9200f13)" style="fill: #eeeeee; stroke: #000000; stroke-width: 0.3"/>
    <path d="M -54.850322 -15.691012 
L -54.558374 -15.570363 
L -54.688782 -15.476084 
z
" clip-path="url(#p76f9200f13)" style="fill: #eeeeee; stroke: #000000; stroke-width: 0.3"/>
    <path d="M -56.943659 -15.203906 
L -56.403468 -15.590568 
L -55.367549 -15.504701 
z
" clip-path="url(#p76f9200f13)" style="fill: #eeeeee; stroke: #000000; stroke-width: 0.3"/>
    <path d="M -59.673522 -14.808831 
L -58.095928 -15.104013 
L -57.746169 -15.005251 
z
" clip-path="url(#p76f9200f13)" style="fill: #eeeeee; stroke: #000000; stroke-width: 0.3"/>
    <path d="M -61.624586 -13.793092 
L -60.484919 -14.082109 
L -60.741311 -13.293642 
z
" clip-path="url(#p76f9200f13)" style="fill: #eeeeee; stroke: #000000; stroke-width: 0.3"/>
    <path d="M 62.057737 89.520172 
L 64.113049 88.609332 
L 65.892621 89.111085 
L 67.118844 87.320063 
L 70.267677 87.097701 
L 71.508014 85.268187 
L 71.692473 82.681803 
L 73.520977 81.308419 
L 74.714266 76.906423 
L 78.072024 71.787786 
L 78.129425 70.083362 
L 80.54423 67.237544 
L 83.864345 66.578304 
L 88.429497 62.074374 
L 91.35907 63.822986 
L 98.371961 64.847856 
L 101.204597 64.202504 
L 104.432493 67.426406 
L 106.101961 66.973131 
L 107.757307 64.826479 
L 116.055243 63.522233 
L 117.242887 60.503233 
L 120.748863 59.637298 
L 123.021559 60.603001 
L 125.12157 63.661211 
L 126.144514 67.661609 
L 128.828468 70.869471 
L 128.796471 72.044724 
L 133.319282 77.377862 
L 134.822175 81.87502 
L 134.930867 85.109969 
L 133.682535 87.781889 
L 133.443499 90.80802 
L 134.219885 96.079881 
L 133.256227 96.615823 
L 135.697374 100.348967 
L 139.155829 101.672453 
L 139.999031 101.435113 
L 139.881398 100.369627 
L 141.157501 100.95333 
L 144.728882 98.681243 
L 146.983231 99.35546 
L 148.16563 102.570908 
L 147.421659 106.713001 
L 143.217202 107.77588 
L 141.802623 109.09298 
L 141.56773 108.320235 
L 143.058622 107.505385 
L 142.197582 106.656883 
L 142.802977 105.215769 
L 141.643305 104.633266 
L 140.606639 105.583909 
L 141.30541 108.040762 
L 139.829333 109.640135 
L 140.864515 108.708566 
L 141.499557 108.926308 
L 141.682577 109.280974 
L 139.590724 109.949909 
L 139.596652 112.177242 
L 141.112748 110.035762 
L 138.473293 114.230608 
L 138.806744 118.630273 
L 137.956813 122.162363 
L 134.705015 121.876835 
L 132.517482 120.672012 
L 131.889788 118.686074 
L 130.156327 119.301125 
L 129.352642 118.183618 
L 127.079946 118.386023 
L 123.835114 116.152415 
L 115.851973 118.423082 
L 112.486685 122.290197 
L 109.044701 123.420545 
L 91.576454 120.240831 
L 86.150217 120.807419 
L 86.123866 118.669676 
L 87.445132 117.310553 
L 84.347117 115.437568 
L 82.40097 112.195488 
L 83.342985 110.795032 
L 85.024691 110.556271 
L 81.93702 108.475901 
L 79.210726 111.661683 
L 78.006146 109.511459 
L 72.557318 107.695489 
L 72.189358 106.780387 
L 73.835297 106.329249 
L 72.151716 104.826873 
L 73.443808 102.801366 
L 66.831813 98.191613 
L 67.001211 94.423562 
L 66.111889 94.55399 
z
" clip-path="url(#p76f9200f13)" style="fill: #eeeeee; stroke: #000000; stroke-width: 0.3"/>
    <path d="M 24.281075 79.111869 
L 25.927962 77.159789 
L 27.853403 77.239242 
L 27.291578 76.88717 
L 28.064203 75.322441 
L 27.183359 74.63788 
L 27.733885 73.40171 
L 27.376277 71.746094 
L 29.260306 70.972812 
L 29.69979 69.798993 
L 29.163378 68.640855 
L 27.138187 68.098486 
L 28.59497 66.817768 
L 30.686039 67.903569 
L 33.216593 67.448156 
L 32.567246 65.313254 
L 34.213186 63.148066 
L 40.048804 66.8755 
L 47.944424 66.489928 
L 49.06995 65.736946 
L 48.402729 63.826917 
L 49.270398 62.875805 
L 54.640181 62.243639 
L 56.415992 60.296896 
L 59.196864 61.633566 
L 62.799304 59.56674 
L 64.232558 56.172139 
L 67.133895 55.577031 
L 69.947711 56.682071 
L 72.817999 55.686784 
L 75.863312 58.824461 
L 80.53293 57.863378 
L 81.309325 60.074892 
L 82.441435 60.082023 
L 83.570722 62.089352 
L 85.355001 62.173081 
L 86.048582 64.162233 
L 83.864345 66.578304 
L 80.54423 67.237544 
L 78.129425 70.083362 
L 78.072024 71.787786 
L 74.714266 76.906423 
L 73.520977 81.308419 
L 71.692473 82.681803 
L 71.508014 85.268187 
L 69.420714 87.754803 
L 67.309877 87.263752 
L 65.892621 89.111085 
L 64.113049 88.609332 
L 62.057737 89.520172 
L 55.748762 88.746889 
L 53.140101 91.267005 
L 51.546864 90.751005 
L 50.575675 92.088751 
L 47.605637 92.285447 
L 45.317881 94.571795 
L 40.343357 94.159149 
L 37.912563 91.890621 
L 35.674677 91.621932 
L 31.052115 85.744274 
L 28.116906 84.091513 
L 26.779632 82.142991 
L 26.387205 79.433655 
z
" clip-path="url(#p76f9200f13)" style="fill: #eeeeee; stroke: #000000; stroke-width: 0.3"/>
    <path d="M 31.114224 58.385432 
L 32.761111 53.134603 
L 34.055088 51.57022 
L 39.151953 51.526748 
L 42.323376 48.985256 
L 43.097887 46.068162 
L 46.513045 42.992851 
L 50.123953 42.680691 
L 50.397809 44.26859 
L 52.03152 44.199466 
L 54.77852 41.336532 
L 56.450757 44.093643 
L 57.745726 44.21443 
L 57.897241 47.040996 
L 60.306392 47.246973 
L 61.083725 45.376126 
L 62.739071 44.23509 
L 66.125065 44.11251 
L 68.21425 45.631988 
L 69.612694 44.709756 
L 69.439535 43.920076 
L 71.324512 43.437576 
L 76.414784 44.43322 
L 78.428685 46.91272 
L 82.971263 48.6403 
L 80.883017 54.02619 
L 79.320829 55.572038 
L 78.935932 58.194791 
L 75.578174 58.726099 
L 72.817999 55.686784 
L 69.947711 56.682071 
L 67.133895 55.577031 
L 64.495123 56.065944 
L 62.799304 59.56674 
L 59.196864 61.633566 
L 56.415992 60.296896 
L 54.640181 62.243639 
L 49.270398 62.875805 
L 48.402729 63.826917 
L 49.06995 65.736946 
L 47.944424 66.489928 
L 39.286531 66.663468 
L 35.606923 63.445262 
L 33.164829 62.935675 
z
" clip-path="url(#p76f9200f13)" style="fill: #eeeeee; stroke: #000000; stroke-width: 0.3"/>
    <path d="M 6.342293 -3.47067 
L 6.529566 -4.97768 
L 8.340196 -6.201038 
L 9.235163 -9.00373 
L 7.616858 -15.184239 
L 7.892744 -15.861615 
L 10.591485 -13.782997 
L 10.893814 -14.533854 
L 10.175775 -15.240385 
L 10.956059 -17.274111 
L 9.146521 -18.027782 
L 8.117267 -16.814505 
L 6.810005 -18.032237 
L 25.056633 -22.94935 
L 28.611232 -27.006694 
L 35.602607 -29.65212 
L 43.023022 -30.883905 
L 44.727337 -30.817126 
L 48.480527 -28.839518 
L 49.241534 -27.639715 
L 45.790673 -30.185235 
L 45.397207 -29.617875 
L 46.990363 -25.302946 
L 49.702443 -24.1514 
L 56.291447 -25.621132 
L 84.416756 -24.051714 
L 85.684382 -24.851367 
L 91.251789 -21.458903 
L 92.543882 -13.960577 
L 95.300297 -7.626085 
L 95.562853 -1.980416 
L 90.735136 1.232453 
L 88.671356 4.269989 
L 92.967368 7.096196 
L 93.322153 8.342724 
L 92.11099 13.877923 
L 93.515071 16.474995 
L 92.946662 17.850517 
L 97.572046 24.032846 
L 95.882819 24.70065 
L 97.00646 26.011309 
L 97.249257 28.385316 
L 96.098327 30.26186 
L 93.374856 30.765737 
L 84.120318 41.811199 
L 84.775302 45.837966 
L 84.265241 47.412321 
L 85.828366 48.467118 
L 85.845303 49.718625 
L 78.428685 46.91272 
L 77.405741 45.073952 
L 74.426297 43.754024 
L 69.578812 43.85451 
L 68.21425 45.631988 
L 66.125065 44.11251 
L 62.739071 44.23509 
L 61.083725 45.376126 
L 60.306392 47.246973 
L 57.66762 46.957611 
L 57.745726 44.21443 
L 56.450757 44.093643 
L 54.90556 41.387851 
L 52.03152 44.199466 
L 50.397809 44.26859 
L 50.387456 42.839626 
L 49.222403 42.598728 
L 48.814916 40.415018 
L 47.260267 39.790685 
L 46.727616 37.124474 
L 44.298697 37.11591 
L 41.65804 35.199467 
L 41.930949 35.805264 
L 40.173021 36.207938 
L 38.291814 34.377721 
L 37.897502 33.593033 
L 39.337349 32.844699 
L 38.976918 31.5547 
L 36.392724 32.52683 
L 31.555593 29.873446 
L 32.665121 32.831156 
L 29.440057 34.561591 
L 26.554718 30.742222 
L 25.24192 30.2412 
L 27.302868 28.016846 
L 26.444615 26.962048 
L 23.260953 27.519382 
L 23.164964 26.485258 
L 21.533137 25.601505 
L 17.561799 25.14965 
L 16.775997 22.705802 
L 15.634473 21.893324 
L 13.964067 22.154165 
L 14.156046 23.996505 
L 12.59292 24.005056 
L 14.496718 18.30593 
L 13.819135 15.857806 
L 11.679133 14.739927 
L 11.88335 12.973137 
L 10.547961 10.965822 
L 12.146844 7.203826 
L 11.463625 6.59196 
L 11.700776 5.007634 
L 10.18 2.990678 
L 11.085311 0.304511 
z
" clip-path="url(#p76f9200f13)" style="fill: #eeeeee; stroke: #000000; stroke-width: 0.3"/>
    <path d="M -35.568039 73.594847 
L -34.399225 71.568637 
L -35.328319 69.847029 
L -33.191823 69.104116 
L -31.001941 70.489608 
L -30.453291 72.267087 
L -29.302361 72.082141 
L -29.752189 73.480101 
L -27.308219 71.757141 
L -27.299751 69.261258 
L -23.389583 69.900554 
L -22.289461 71.83305 
L -19.944303 71.786007 
L -16.452914 69.087014 
L -11.416273 68.874265 
L -11.388983 67.484855 
L -10.791401 67.123515 
L -10.823398 67.856167 
L -8.475418 68.545707 
L -6.058728 68.022232 
L -5.904399 69.567363 
L -3.874491 70.792141 
L -3.235506 68.124152 
L -4.874853 67.240399 
L -3.971428 65.536334 
L -6.213065 61.763994 
L -0.198652 58.233987 
L 0.247415 55.51894 
L 2.632573 56.232712 
L 3.536008 52.857364 
L 5.895279 55.267009 
L 8.176452 55.723139 
L 9.385731 54.557154 
L 11.365759 55.480462 
L 12.501629 52.718386 
L 13.769264 52.907248 
L 14.156046 49.526908 
L 21.772174 51.397038 
L 24.20203 53.18235 
L 26.687412 53.397596 
L 28.155486 52.317132 
L 31.373966 53.511625 
L 32.029896 55.095248 
L 31.114224 58.385432 
L 33.880991 63.352609 
L 32.567246 65.313254 
L 33.216593 67.448156 
L 30.686039 67.903569 
L 28.59497 66.817768 
L 27.138187 68.098486 
L 29.163378 68.640855 
L 29.69979 69.798993 
L 29.260306 70.972812 
L 27.376277 71.746094 
L 27.733885 73.40171 
L 27.183359 74.63788 
L 28.064203 75.322441 
L 27.291578 76.88717 
L 27.853403 77.239242 
L 25.927962 77.159789 
L 23.258131 79.595803 
L 23.577113 81.761005 
L 22.065789 81.019057 
L 20.110227 81.114564 
L 18.53205 82.533915 
L 14.8835 82.052477 
L 12.957112 82.720281 
L 10.13389 85.788821 
L -9.309205 81.493006 
L -10.56931 79.037753 
L -11.841643 78.476144 
L -11.352279 76.044046 
L -15.41114 77.62447 
L -20.51365 77.717825 
L -22.130425 80.403647 
L -26.780275 79.338162 
L -27.807926 77.270963 
L -30.194496 79.327818 
L -32.34486 78.220282 
L -32.501073 77.005833 
L -35.021274 76.43497 
z
" clip-path="url(#p76f9200f13)" style="fill: #eeeeee; stroke: #000000; stroke-width: 0.3"/>
    <path d="M -62.141667 103.375801 
L -57.537453 101.227728 
L -57.061265 99.135236 
L -58.680863 97.753301 
L -58.857782 95.965852 
L -60.509367 94.080041 
L -58.323246 92.041708 
L -57.126205 92.713787 
L -53.597165 91.229947 
L -50.841697 92.125092 
L -48.41184 89.260034 
L -48.623579 87.262331 
L -45.784359 84.77464 
L -45.429574 87.764788 
L -42.052995 89.773179 
L -42.426601 91.244193 
L -41.488347 91.740954 
L -41.223906 93.405106 
L -40.291297 93.483512 
L -39.738887 92.404469 
L -40.29412 90.468773 
L -38.266106 87.822519 
L -37.74287 84.151383 
L -36.355725 84.138198 
L -35.428762 86.89244 
L -31.950548 85.892161 
L -30.518231 87.976462 
L -29.760666 87.391324 
L -30.372362 86.474085 
L -29.926294 85.454208 
L -30.968059 84.856245 
L -30.909711 83.660332 
L -29.458574 82.366071 
L -27.165172 83.594767 
L -27.02778 82.410963 
L -27.846515 81.737463 
L -27.075774 79.089071 
L -22.130425 80.403647 
L -20.51365 77.717825 
L -15.41114 77.62447 
L -11.352279 76.044046 
L -11.841643 78.476144 
L -10.56931 79.037753 
L -9.309205 81.493006 
L 2.490938 83.842781 
L -0.565675 87.007186 
L -0.15725 88.142513 
L 1.912176 88.523106 
L 0.313293 90.922766 
L 1.625154 91.212128 
L 1.261901 93.350946 
L 3.199097 94.5497 
L 4.254985 96.088432 
L 3.827738 96.739121 
L 2.589377 96.621257 
L 3.466725 96.330006 
L 1.337075 93.912431 
L -0.233854 95.487103 
L -0.528033 94.533095 
L -2.805136 94.155977 
L -3.117836 95.949523 
L -9.139242 98.761041 
L -7.700215 97.177391 
L -9.384516 97.365384 
L -11.590487 100.479381 
L -10.89839 101.985605 
L -10.198881 101.620831 
L -9.638677 104.651223 
L -9.638677 103.897552 
L -8.13592 105.215769 
L -8.948801 107.278113 
L -9.291886 106.301652 
L -9.207415 107.515494 
L -10.571604 107.193377 
L -9.638677 115.13691 
L -6.699852 118.723435 
L 1.713513 124.655695 
L 5.900187 137.918684 
L 11.671867 143.75723 
L 11.958634 145.01035 
L 15.825196 147.173139 
L 24.703914 147.28201 
L 25.103316 149.216975 
L 22.514988 151.491999 
L 23.07074 153.632349 
L 33.050592 158.84012 
L 36.86528 162.311596 
L 41.699588 164.78642 
L 46.335316 171.840476 
L 45.17935 176.283364 
L 42.287209 174.980856 
L 40.389494 169.821341 
L 37.192803 169.572182 
L 34.353274 167.962713 
L 35.473674 166.885794 
L 32.312548 166.966613 
L 28.931344 172.595829 
L 29.175871 174.226634 
L 27.884307 176.86082 
L 28.395597 178.43774 
L 33.975361 181.95019 
L 34.09985 188.096813 
L 28.757211 190.34042 
L 28.611232 195.420247 
L 24.967709 199.368733 
L 24.127411 202.172956 
L 20.551323 201.984963 
L 20.081526 198.305855 
L 21.720628 197.19807 
L 22.676528 194.216514 
L 21.937001 192.393234 
L 24.814327 191.263576 
L 25.443433 189.53008 
L 21.370878 175.262577 
L 20.00372 172.687861 
L 18.05353 173.843819 
L 16.6981 173.355679 
L 15.477668 171.42128 
L 13.510296 170.427979 
L 14.3036 168.277672 
L 12.334325 164.522103 
L 8.33364 165.890825 
L 9.531108 163.697157 
L 7.892744 162.192629 
L 5.64822 162.870943 
L 5.408264 161.047139 
L 2.68126 156.488207 
L 1.061426 157.119547 
L -1.28904 155.890547 
L -3.485378 156.831095 
L -4.860685 154.461777 
L -7.212626 153.797338 
L -10.820584 149.814621 
L -12.811657 146.273001 
L -14.567837 145.706207 
L -16.109128 142.324528 
L -18.673008 140.565779 
L -21.131656 140.781274 
L -20.386565 139.55375 
L -20.659637 138.398495 
L -22.615892 135.930415 
L -24.549172 135.08303 
L -24.255731 133.51284 
L -26.659555 133.206432 
L -26.39872 128.982403 
L -28.319399 125.591746 
L -28.916653 120.709457 
L -30.383097 118.244177 
L -32.621675 117.095996 
L -32.735047 118.010726 
L -38.213294 113.716001 
L -38.394839 114.383239 
L -42.477036 112.6346 
L -45.17503 114.397831 
L -48.802246 120.0192 
L -53.950748 121.459762 
L -54.173103 120.448933 
L -52.242017 117.66548 
L -52.554453 116.165958 
L -55.422855 116.888639 
L -58.7665 115.153915 
L -60.020012 111.229068 
L -58.889779 109.172213 
L -58.02211 109.148684 
L -58.479468 107.175214 
L -60.842509 106.07409 
z
M -8.871951 147.502579 
L -8.862809 147.518619 
L -8.863283 147.50331 
z
M -9.394395 119.30569 
L -8.641984 119.738347 
L -8.606718 118.834596 
z
" clip-path="url(#p76f9200f13)" style="fill: #eeeeee; stroke: #000000; stroke-width: 0.3"/>
    <path d="M -48.077542 165.579369 
L -47.661104 160.468677 
L -46.594053 162.028771 
L -44.679302 162.35537 
L -41.929434 160.695397 
L -38.213294 156.346788 
L -36.467486 157.476446 
L -36.280751 158.700397 
L -35.218152 158.229565 
L -35.652383 159.744754 
L -34.280044 159.932748 
L -35.72204 160.977105 
L -33.721324 162.107894 
L -34.323022 162.729123 
L -33.026258 167.478406 
L -34.612011 170.132246 
L -33.645739 172.603125 
L -35.155907 185.494058 
L -35.591622 186.110226 
L -40.186585 183.912642 
L -39.586371 184.454749 
L -40.07914 187.617002 
L -41.649332 189.234898 
L -42.894221 188.481792 
L -43.582613 189.423457 
L -44.323615 186.770183 
L -46.024224 184.489531 
L -45.375842 177.111675 
L -44.711899 177.868698 
L -44.267298 177.883289 
L -44.826018 177.601581 
L -44.363634 175.792327 
L -45.826372 174.965147 
L -45.984206 173.295065 
L -44.957173 172.319735 
L -45.959757 167.296592 
L -46.76448 165.549621 
z
" clip-path="url(#p76f9200f13)" style="fill: #eeeeee; stroke: #000000; stroke-width: 0.3"/>
    <path d="M -9.108857 204.143269 
L -8.508643 201.048346 
L -6.581299 199.81543 
L -6.333804 198.685207 
L -4.791766 200.95688 
L -3.332734 200.192548 
L -2.972604 198.722251 
L -0.994861 198.300793 
L -0.327959 199.920936 
L 3.308891 201.707737 
L 5.400743 200.662815 
L 9.873447 200.731842 
L 13.473246 198.755351 
L 15.119759 199.575249 
L 16.478768 197.69192 
L 16.976718 198.4888 
L 20.2527 197.547136 
L 16.259426 204.63374 
L 15.153103 208.550244 
L 15.262032 210.587336 
L 16.613629 211.581187 
L 15.989704 212.274244 
L 17.345735 214.975223 
L 15.761467 216.180638 
L 15.174592 219.894543 
L 9.651146 217.985396 
L 7.752693 214.528512 
L 2.626427 212.772011 
L -2.306439 208.41892 
L -6.993294 207.34145 
z
" clip-path="url(#p76f9200f13)" style="fill: #eeeeee; stroke: #000000; stroke-width: 0.3"/>
    <path d="M -30.235643 135.731747 
L -29.997035 134.979772 
L -27.170845 134.517353 
L -27.424268 136.400682 
z
" clip-path="url(#p76f9200f13)" style="fill: #eeeeee; stroke: #000000; stroke-width: 0.3"/>
    <path d="M -36.334109 157.404619 
L -35.990277 156.713245 
L -35.98954 157.496651 
L -36.085129 157.587565 
z
" clip-path="url(#p76f9200f13)" style="fill: #eeeeee; stroke: #000000; stroke-width: 0.3"/>
    <path d="M -47.324685 185.169127 
L -46.634072 184.886289 
L -46.634072 186.110226 
L -47.099415 186.074878 
z
" clip-path="url(#p76f9200f13)" style="fill: #eeeeee; stroke: #000000; stroke-width: 0.3"/>
    <path d="M 16.022302 190.4622 
L 16.25053 190.166453 
L 16.299445 190.682742 
z
" clip-path="url(#p76f9200f13)" style="fill: #eeeeee; stroke: #000000; stroke-width: 0.3"/>
    <path d="M 13.8482 195.876488 
L 14.386169 196.135191 
L 14.199434 196.322633 
z
" clip-path="url(#p76f9200f13)" style="fill: #eeeeee; stroke: #000000; stroke-width: 0.3"/>
    <path d="M 13.634786 194.139626 
L 14.131261 194.620002 
L 14.012699 195.090269 
z
" clip-path="url(#p76f9200f13)" style="fill: #eeeeee; stroke: #000000; stroke-width: 0.3"/>
    <path d="M 12.44177 193.460596 
L 13.107935 193.329286 
L 13.059767 193.906175 
z
" clip-path="url(#p76f9200f13)" style="fill: #eeeeee; stroke: #000000; stroke-width: 0.3"/>
    <path d="M 10.153549 193.250163 
L 10.349171 193.282146 
L 10.236545 193.59865 
z
" clip-path="url(#p76f9200f13)" style="fill: #eeeeee; stroke: #000000; stroke-width: 0.3"/>
    <path d="M 8.335124 193.796187 
L 8.466279 193.741752 
L 8.499623 193.90954 
z
" clip-path="url(#p76f9200f13)" style="fill: #eeeeee; stroke: #000000; stroke-width: 0.3"/>
    <path d="M 3.840194 163.895826 
L 3.964684 163.245964 
L 4.902793 163.623083 
z
" clip-path="url(#p76f9200f13)" style="fill: #eeeeee; stroke: #000000; stroke-width: 0.3"/>
    <path d="M -0.115292 162.922165 
L -0.029336 162.724076 
L 0.041805 162.707236 
z
" clip-path="url(#p76f9200f13)" style="fill: #eeeeee; stroke: #000000; stroke-width: 0.3"/>
    <path d="M -2.493912 191.761895 
L -2.200479 191.448205 
L -2.093772 191.575033 
z
" clip-path="url(#p76f9200f13)" style="fill: #eeeeee; stroke: #000000; stroke-width: 0.3"/>
    <path d="M -5.294916 230.820763 
L -5.038524 230.769141 
L -5.051864 230.96443 
z
" clip-path="url(#p76f9200f13)" style="fill: #eeeeee; stroke: #000000; stroke-width: 0.3"/>
    <path d="M -8.206315 235.593064 
L -7.93733 235.530216 
L -7.432705 235.971299 
z
" clip-path="url(#p76f9200f13)" style="fill: #eeeeee; stroke: #000000; stroke-width: 0.3"/>
    <path d="M -10.069948 100.002936 
L -9.453426 98.823338 
L -9.073291 99.069698 
z
" clip-path="url(#p76f9200f13)" style="fill: #eeeeee; stroke: #000000; stroke-width: 0.3"/>
    <path d="M -10.077351 98.874408 
L -9.684623 98.601114 
L -9.700184 98.759924 
z
" clip-path="url(#p76f9200f13)" style="fill: #eeeeee; stroke: #000000; stroke-width: 0.3"/>
    <path d="M -10.268529 202.457478 
L -10.13589 202.083725 
L -9.638677 202.37499 
z
" clip-path="url(#p76f9200f13)" style="fill: #eeeeee; stroke: #000000; stroke-width: 0.3"/>
    <path d="M -12.719774 201.559588 
L -12.509329 201.448469 
L -12.275173 202.029855 
z
" clip-path="url(#p76f9200f13)" style="fill: #eeeeee; stroke: #000000; stroke-width: 0.3"/>
    <path d="M -13.680118 217.728941 
L -12.527858 218.026923 
L -12.71829 218.702588 
z
" clip-path="url(#p76f9200f13)" style="fill: #eeeeee; stroke: #000000; stroke-width: 0.3"/>
    <path d="M -23.3606 141.125843 
L -22.650948 141.617073 
L -22.800578 141.781635 
z
" clip-path="url(#p76f9200f13)" style="fill: #eeeeee; stroke: #000000; stroke-width: 0.3"/>
    <path d="M -28.526885 141.653345 
L -28.331254 141.477695 
L -28.355711 141.710029 
z
" clip-path="url(#p76f9200f13)" style="fill: #eeeeee; stroke: #000000; stroke-width: 0.3"/>
    <path d="M -30.749892 138.15157 
L -30.484614 137.710486 
L -30.426821 138.282328 
z
" clip-path="url(#p76f9200f13)" style="fill: #eeeeee; stroke: #000000; stroke-width: 0.3"/>
    <path d="M -33.015386 132.278145 
L -32.965798 131.469915 
L -32.64544 132.041605 
z
" clip-path="url(#p76f9200f13)" style="fill: #eeeeee; stroke: #000000; stroke-width: 0.3"/>
    <path d="M -36.91654 156.798547 
L -36.541586 156.349602 
L -36.714244 157.064546 
z
" clip-path="url(#p76f9200f13)" style="fill: #eeeeee; stroke: #000000; stroke-width: 0.3"/>
    <path d="M -46.268014 186.204506 
L -45.012753 186.590037 
L -45.687067 188.078856 
z
" clip-path="url(#p76f9200f13)" style="fill: #eeeeee; stroke: #000000; stroke-width: 0.3"/>
    <path d="M -47.509935 160.027027 
L -46.448821 158.229565 
L -47.175 160.056776 
z
" clip-path="url(#p76f9200f13)" style="fill: #eeeeee; stroke: #000000; stroke-width: 0.3"/>
    <path d="M 49.423798 92.9782 
L 51.337001 90.845078 
L 53.140101 91.267005 
L 55.748762 88.746889 
L 62.057737 89.520172 
L 66.111889 94.55399 
L 67.001211 94.423562 
L 66.831813 98.191613 
L 73.443808 102.801366 
L 72.151716 104.826873 
L 73.835297 106.329249 
L 72.189358 106.780387 
L 72.557318 107.695489 
L 78.006146 109.511459 
L 79.210726 111.661683 
L 81.93702 108.475901 
L 85.024691 110.556271 
L 82.465901 111.701583 
L 84.355321 115.443677 
L 83.456858 117.712523 
L 81.696107 118.686074 
L 81.239678 121.243248 
L 82.782107 125.845153 
L 87.022593 129.977399 
L 84.677427 133.945732 
L 81.949248 134.95634 
L 82.45461 136.057464 
L 81.930427 138.276811 
L 82.943027 139.579637 
L 81.918199 141.682818 
L 80.505641 141.069891 
L 74.188198 142.839535 
L 73.650848 141.461518 
L 74.574042 140.845032 
L 75.912254 136.942279 
L 72.400158 135.914569 
L 72.671191 134.495935 
L 71.324512 133.950366 
L 69.795258 131.135192 
L 67.482097 130.034772 
L 67.308001 128.83566 
L 65.346794 129.655613 
L 65.709109 131.66508 
L 64.030235 133.075163 
L 64.183625 134.378334 
L 62.991283 134.765685 
L 62.915999 133.668837 
L 59.201571 130.814827 
L 56.187308 129.955664 
L 52.343009 125.753577 
L 53.042236 124.267585 
L 55.199174 124.601135 
L 55.361042 123.460099 
L 52.958475 118.566335 
L 55.55396 118.908436 
L 56.376465 118.101654 
L 51.803775 113.853945 
L 51.924231 111.445734 
L 54.170585 106.69201 
L 52.442769 105.801844 
L 50.885288 106.655656 
L 50.663188 105.975742 
L 51.940229 105.448337 
L 51.149729 102.909699 
L 54.454784 102.001011 
L 50.536276 99.68297 
L 50.828825 97.925062 
L 51.708732 97.746171 
L 49.863282 96.898772 
L 50.454272 95.579562 
z
" clip-path="url(#p76f9200f13)" style="fill: #eeeeee; stroke: #000000; stroke-width: 0.3"/>
    <path d="M 0.725753 97.742502 
L 4.203229 98.959903 
L 4.957972 97.710533 
L 8.608406 98.212286 
L 10.503727 95.592389 
L 12.472464 98.386888 
L 13.614927 97.700562 
L 15.587425 98.871526 
L 17.280413 98.557229 
L 16.764707 96.504649 
L 17.72272 95.972968 
L 16.641428 94.824816 
L 20.475365 93.19415 
L 20.674875 90.511541 
L 19.69051 89.445338 
L 20.145046 88.146788 
L 23.59974 86.889585 
L 23.952641 85.804143 
L 25.934545 85.864371 
L 25.563761 84.206977 
L 26.558479 83.467194 
L 31.052115 85.744274 
L 35.172146 91.222816 
L 37.912563 91.890621 
L 40.343357 94.159149 
L 45.317881 94.571795 
L 47.605637 92.285447 
L 49.842576 91.959744 
L 49.329684 93.552635 
L 50.454272 95.579562 
L 49.863282 96.898772 
L 51.708732 97.746171 
L 50.828825 97.925062 
L 50.536276 99.68297 
L 54.454784 102.001011 
L 51.850832 102.102214 
L 51.149729 102.909699 
L 51.940229 105.448337 
L 49.736234 106.716959 
L 47.864433 103.633097 
L 46.343657 104.032199 
L 43.801812 102.63104 
L 40.140087 103.913895 
L 38.765171 102.541228 
L 34.233892 102.753619 
L 31.841677 100.878497 
L 30.815911 102.303185 
L 28.241123 101.737301 
L 26.304391 104.785525 
L 23.611031 101.852047 
L 21.534075 102.184881 
L 20.952491 107.986988 
L 23.682555 109.978278 
L 23.480222 111.132858 
L 24.485292 111.402249 
L 26.401318 117.458082 
L 32.808168 124.82136 
L 34.993342 125.997316 
L 35.170261 128.200997 
L 38.252287 131.743472 
L 38.307813 133.069812 
L 37.22541 132.952776 
L 37.10092 131.958359 
L 31.44335 126.787066 
L 26.989167 125.34089 
L 27.375239 124.803845 
L 23.055917 125.43517 
L 22.973667 122.88965 
L 20.75065 121.857071 
L 15.635502 115.898442 
L 15.599936 114.698626 
L 17.007841 115.13691 
L 16.6981 114.007252 
L 18.184558 114.898412 
L 19.133037 114.845659 
L 14.386169 110.736679 
L 13.261325 108.614287 
L 13.605885 105.370649 
L 12.979001 103.51089 
L 10.411416 100.752676 
L 8.050578 100.058502 
L 6.592284 105.113076 
L 5.840901 105.498607 
L 5.977246 104.990165 
L 5.580813 104.265126 
L 5.214017 107.380805 
L 4.213655 107.099098 
L 4.467078 107.860616 
L 4.332217 107.941435 
L 1.783161 103.794859 
L 2.721279 102.947461 
L 1.534928 102.797063 
L 1.658671 100.387349 
z
" clip-path="url(#p76f9200f13)" style="fill: #eeeeee; stroke: #000000; stroke-width: 0.3"/>
    <path d="M 32.54522 131.67552 
L 39.281696 134.602654 
L 38.479186 133.889945 
L 39.921756 133.628924 
L 40.347117 134.910014 
L 45.618088 138.464971 
L 46.155993 140.435587 
L 40.659963 135.270458 
L 39.094962 134.782235 
L 39.467685 135.437696 
L 39.347647 135.529727 
L 34.477764 132.625611 
L 32.95055 132.453878 
z
" clip-path="url(#p76f9200f13)" style="fill: #eeeeee; stroke: #000000; stroke-width: 0.3"/>
    <path d="M 7.749734 103.239278 
L 8.069846 102.424441 
L 9.525181 105.196681 
L 9.89346 109.461671 
L 9.110218 109.539111 
L 7.892744 106.062588 
L 8.959795 105.404328 
z
" clip-path="url(#p76f9200f13)" style="fill: #eeeeee; stroke: #000000; stroke-width: 0.3"/>
    <path d="M 9.084276 103.597874 
L 10.040914 102.942978 
L 10.21135 101.372223 
L 12.634432 105.113076 
L 11.8008 105.583909 
z
" clip-path="url(#p76f9200f13)" style="fill: #eeeeee; stroke: #000000; stroke-width: 0.3"/>
    <path d="M 27.119584 127.797192 
L 27.306319 126.950373 
L 31.550057 128.080031 
L 27.26631 128.005956 
z
" clip-path="url(#p76f9200f13)" style="fill: #eeeeee; stroke: #000000; stroke-width: 0.3"/>
    <path d="M 23.869544 131.486961 
L 24.610547 131.165975 
L 25.621281 131.393247 
L 24.218557 132.227723 
z
" clip-path="url(#p76f9200f13)" style="fill: #eeeeee; stroke: #000000; stroke-width: 0.3"/>
    <path d="M 14.888572 116.360848 
L 16.37502 117.680747 
L 16.635855 118.347434 
L 15.428762 117.322151 
z
" clip-path="url(#p76f9200f13)" style="fill: #eeeeee; stroke: #000000; stroke-width: 0.3"/>
    <path d="M 11.204292 107.577777 
L 11.831922 107.577777 
L 11.458462 106.910539 
L 13.036056 108.700705 
z
" clip-path="url(#p76f9200f13)" style="fill: #eeeeee; stroke: #000000; stroke-width: 0.3"/>
    <path d="M 35.478117 135.270458 
L 36.102788 135.120626 
L 39.349122 136.598219 
z
" clip-path="url(#p76f9200f13)" style="fill: #eeeeee; stroke: #000000; stroke-width: 0.3"/>
    <path d="M 30.898707 136.025812 
L 31.811629 135.459018 
L 31.950934 135.757565 
z
" clip-path="url(#p76f9200f13)" style="fill: #eeeeee; stroke: #000000; stroke-width: 0.3"/>
    <path d="M 29.176618 132.625611 
L 34.353274 133.46457 
L 31.177325 133.755269 
z
" clip-path="url(#p76f9200f13)" style="fill: #eeeeee; stroke: #000000; stroke-width: 0.3"/>
    <path d="M 26.808369 129.689499 
L 34.291029 130.630598 
L 32.013552 130.630598 
z
" clip-path="url(#p76f9200f13)" style="fill: #eeeeee; stroke: #000000; stroke-width: 0.3"/>
    <path d="M 25.350065 125.627094 
L 25.832464 125.312273 
L 26.841713 125.625411 
z
" clip-path="url(#p76f9200f13)" style="fill: #eeeeee; stroke: #000000; stroke-width: 0.3"/>
    <path d="M 25.250033 126.771909 
L 25.94732 126.704565 
L 26.599398 127.714704 
z
" clip-path="url(#p76f9200f13)" style="fill: #eeeeee; stroke: #000000; stroke-width: 0.3"/>
    <path d="M 19.816985 123.080457 
L 21.061137 123.731422 
L 20.438688 123.594499 
z
" clip-path="url(#p76f9200f13)" style="fill: #eeeeee; stroke: #000000; stroke-width: 0.3"/>
    <path d="M 16.6981 118.441714 
L 18.380926 120.145462 
L 17.585081 119.706061 
z
" clip-path="url(#p76f9200f13)" style="fill: #eeeeee; stroke: #000000; stroke-width: 0.3"/>
    <path d="M 16.39355 120.325608 
L 16.744784 120.566355 
L 17.922239 121.733057 
z
" clip-path="url(#p76f9200f13)" style="fill: #eeeeee; stroke: #000000; stroke-width: 0.3"/>
    <path d="M 12.9501 116.172289 
L 14.386169 117.311491 
L 16.090474 120.350861 
z
" clip-path="url(#p76f9200f13)" style="fill: #eeeeee; stroke: #000000; stroke-width: 0.3"/>
    <path d="M 12.702605 116.267699 
L 13.127939 116.65603 
L 12.747804 116.416414 
z
" clip-path="url(#p76f9200f13)" style="fill: #eeeeee; stroke: #000000; stroke-width: 0.3"/>
    <path d="M 12.099432 113.574016 
L 12.165373 112.865802 
L 12.527725 113.001609 
z
" clip-path="url(#p76f9200f13)" style="fill: #eeeeee; stroke: #000000; stroke-width: 0.3"/>
    <path d="M 12.029775 114.985396 
L 12.422503 114.835563 
L 12.40472 114.913003 
z
" clip-path="url(#p76f9200f13)" style="fill: #eeeeee; stroke: #000000; stroke-width: 0.3"/>
    <path d="M 11.894167 108.896008 
L 16.635855 113.90456 
L 15.491745 114.291208 
z
" clip-path="url(#p76f9200f13)" style="fill: #eeeeee; stroke: #000000; stroke-width: 0.3"/>
    <path d="M 10.632241 113.806915 
L 11.073874 114.101532 
L 11.236161 114.337231 
z
" clip-path="url(#p76f9200f13)" style="fill: #eeeeee; stroke: #000000; stroke-width: 0.3"/>
    <path d="M 8.271395 108.708566 
L 10.079449 111.917973 
L 8.519637 110.685609 
z
" clip-path="url(#p76f9200f13)" style="fill: #eeeeee; stroke: #000000; stroke-width: 0.3"/>
    <path d="M 7.331802 109.960004 
L 7.767517 109.249543 
L 7.683036 110.146315 
z
" clip-path="url(#p76f9200f13)" style="fill: #eeeeee; stroke: #000000; stroke-width: 0.3"/>
    <path d="M -0.565675 87.007186 
L 2.490938 83.842781 
L 10.13389 85.788821 
L 12.957112 82.720281 
L 14.8835 82.052477 
L 18.53205 82.533915 
L 20.110227 81.114564 
L 22.065789 81.019057 
L 23.577113 81.761005 
L 23.169671 79.693075 
L 24.281075 79.111869 
L 26.387205 79.433655 
L 26.852093 82.334709 
L 27.98515 83.497122 
L 25.828202 83.895521 
L 25.934545 85.864371 
L 23.952641 85.804143 
L 23.59974 86.889585 
L 20.145046 88.146788 
L 19.69051 89.445338 
L 20.674875 90.511541 
L 20.475365 93.19415 
L 16.641428 94.824816 
L 17.72272 95.972968 
L 16.764707 96.504649 
L 17.280413 98.557229 
L 15.587425 98.871526 
L 13.614927 97.700562 
L 12.472464 98.386888 
L 10.503727 95.592389 
L 8.608406 98.212286 
L 1.962539 98.466259 
L 1.285948 97.365384 
L 4.254985 96.088432 
L 1.401178 93.641729 
L 1.625154 91.212128 
L 0.313293 90.922766 
L 1.912176 88.523106 
L -0.15725 88.142513 
z
" clip-path="url(#p76f9200f13)" style="fill: #eeeeee; stroke: #000000; stroke-width: 0.3"/>
    <path d="M 20.952491 107.986988 
L 21.534075 102.184881 
L 23.611031 101.852047 
L 26.304391 104.785525 
L 28.241123 101.737301 
L 30.815911 102.303185 
L 31.841677 100.878497 
L 34.233892 102.753619 
L 38.765171 102.541228 
L 40.140087 103.913895 
L 43.801812 102.63104 
L 46.343657 104.032199 
L 47.810792 103.59746 
L 49.736234 106.716959 
L 52.442769 105.801844 
L 54.098114 106.359177 
L 51.7172 113.315864 
L 56.308702 117.842234 
L 55.55396 118.908436 
L 53.2248 118.423082 
L 52.82955 119.177828 
L 54.945086 121.874697 
L 55.199174 124.601135 
L 53.896729 123.988925 
L 49.931036 125.38974 
L 51.37559 128.126522 
L 50.672603 128.702019 
L 49.113238 127.677508 
L 47.684691 129.169914 
L 47.454122 132.106605 
L 45.758303 132.476841 
L 45.683957 134.90858 
L 46.643855 136.963656 
L 46.116858 138.388358 
L 41.593109 135.965529 
L 39.921756 133.628924 
L 37.597386 133.285554 
L 38.564723 132.858855 
L 38.252287 131.743472 
L 35.170261 128.200997 
L 34.993342 125.997316 
L 32.808168 124.82136 
L 26.401318 117.458082 
L 24.485292 111.402249 
L 23.480222 111.132858 
L 23.682555 109.978278 
z
" clip-path="url(#p76f9200f13)" style="fill: #eeeeee; stroke: #000000; stroke-width: 0.3"/>
   </g>
   <g id="PatchCollection_2">
    <defs>
     <path id="m892d9a9559" d="M 31.114224 -49.614568 
L 32.761111 -54.865397 
L 34.055088 -56.42978 
L 39.151953 -56.473252 
L 42.323376 -59.014744 
L 43.097887 -61.931838 
L 46.513045 -65.007149 
L 50.123953 -65.319309 
L 50.397809 -63.73141 
L 52.03152 -63.800534 
L 54.77852 -66.663468 
L 56.450757 -63.906357 
L 57.745726 -63.78557 
L 57.897241 -60.959004 
L 60.306392 -60.753027 
L 61.083725 -62.623874 
L 62.739071 -63.76491 
L 66.125065 -63.88749 
L 68.21425 -62.368012 
L 69.612694 -63.290244 
L 69.439535 -64.079924 
L 71.324512 -64.562424 
L 76.414784 -63.56678 
L 78.428685 -61.08728 
L 82.971263 -59.3597 
L 80.883017 -53.97381 
L 79.320829 -52.427962 
L 78.935932 -49.805209 
L 75.578174 -49.273901 
L 72.817999 -52.313216 
L 69.947711 -51.317929 
L 67.133895 -52.422969 
L 64.495123 -51.934056 
L 62.799304 -48.43326 
L 59.196864 -46.366434 
L 56.415992 -47.703104 
L 54.640181 -45.756361 
L 49.270398 -45.124195 
L 48.402729 -44.173083 
L 49.06995 -42.263054 
L 47.944424 -41.510072 
L 39.286531 -41.336532 
L 35.606923 -44.554738 
L 33.164829 -45.064325 
z
" style="stroke: #dd0000; stroke-width: 0.5"/>
    </defs>
    <g clip-path="url(#p76f9200f13)">
     <use xlink:href="#m892d9a9559" x="0" y="108" style="fill: #ff6b6b; stroke: #dd0000; stroke-width: 0.5"/>
    </g>
   </g>
  </g>
 </g>
 <defs>
  <clipPath id="p76f9200f13">
   <rect x="0" y="0" width="114.085487" height="108"/>
  </clipPath>
 </defs>
</svg>
