<?xml version="1.0" encoding="utf-8" standalone="no"?>
<!DOCTYPE svg PUBLIC "-//W3C//DTD SVG 1.1//EN"
  "http://www.w3.org/Graphics/SVG/1.1/DTD/svg11.dtd">
<svg xmlns:xlink="http://www.w3.org/1999/xlink" width="142.330205pt" height="108pt" viewBox="0 0 142.330205 108" xmlns="http://www.w3.org/2000/svg" version="1.1">
 <metadata>
  <rdf:RDF xmlns:dc="http://purl.org/dc/elements/1.1/" xmlns:cc="http://creativecommons.org/ns#" xmlns:rdf="http://www.w3.org/1999/02/22-rdf-syntax-ns#">
   <cc:Work>
    <dc:type rdf:resource="http://purl.org/dc/dcmitype/StillImage"/>
    <dc:date>2025-09-05T13:56:18.528372</dc:date>
    <dc:format>image/svg+xml</dc:format>
    <dc:creator>
     <cc:Agent>
      <dc:title>Matplotlib v3.10.3, https://matplotlib.org/</dc:title>
     </cc:Agent>
    </dc:creator>
   </cc:Work>
  </rdf:RDF>
 </metadata>
 <defs>
  <style type="text/css">*{stroke-linejoin: round; stroke-linecap: butt}</style>
 </defs>
 <g id="figure_1">
  <g id="patch_1">
   <path d="M 0 108 
L 142.330205 108 
L 142.330205 0 
L 0 0 
z
" style="fill: #ffffff"/>
  </g>
  <g id="axes_1">
   <g id="PatchCollection_1">
    <path d="M 29.095246 -1.995593 
L 29.197033 -2.91664 
L 30.100469 -3.336737 
L 30.519674 -3.054516 
L 31.400146 -3.022515 
L 33.025657 -3.956326 
L 33.876126 -3.761258 
L 33.98885 -3.393586 
L 35.234832 -2.399859 
L 47.370494 -2.510844 
L 47.883916 -1.69346 
L 48.554646 -1.162384 
L 50.944821 -0.862461 
L 52.478079 -0.97923 
L 53.753361 -0.397768 
L 54.716835 -0.729691 
L 55.32868 -0.453599 
L 63.016552 -2.215688 
L 65.231755 -1.880698 
L 65.83631 -1.179404 
L 65.004906 -1.198129 
L 63.949743 -0.327298 
L 63.369584 -0.645947 
L 61.359919 1.072224 
L 60.499634 -0.504665 
L 54.211544 0.550681 
L 54.237902 12.555746 
L 51.507315 12.676599 
L 51.516287 33.82896 
L 50.39607 34.187435 
L 50.087621 34.760725 
L 49.574482 34.883963 
L 49.635328 35.346614 
L 49.179109 35.591727 
L 48.162919 35.204311 
L 46.591529 35.408573 
L 45.904534 35.011285 
L 45.13258 34.954775 
L 45.008361 34.678341 
L 44.521855 34.757662 
L 44.567842 34.392378 
L 44.306504 33.987601 
L 44.511201 33.739764 
L 44.36483 33.187581 
L 44.005069 33.202219 
L 43.634093 32.526117 
L 43.136374 32.709953 
L 42.799327 33.31184 
L 42.722495 34.021986 
L 41.654757 34.269479 
L 40.029509 32.518791 
L 38.801688 30.205982 
L 38.620638 28.964607 
L 38.225862 28.140058 
L 38.458357 27.800697 
L 38.287243 27.235362 
L 37.909247 26.954168 
L 37.943693 26.043573 
L 37.567463 25.03219 
L 37.602568 22.767634 
L 36.533495 19.586049 
L 36.681868 18.907328 
L 36.465934 17.335969 
L 36.622254 16.986687 
L 36.400358 15.872101 
L 36.46792 15.572412 
L 36.533495 15.952788 
L 36.723596 15.639426 
L 36.667296 14.479538 
L 33.653268 8.884091 
L 33.05669 6.70987 
L 32.675772 6.28246 
L 31.082371 2.478301 
L 29.947882 1.16336 
L 29.310366 -0.645851 
z
" clip-path="url(#pd0866509da)" style="fill: #eeeeee; stroke: #000000; stroke-width: 0.3"/>
    <path d="M 41.988814 34.480174 
L 42.722495 34.021986 
L 42.799327 33.31184 
L 43.136374 32.709953 
L 43.634093 32.526117 
L 44.005069 33.202219 
L 44.36483 33.187581 
L 44.511201 33.739764 
L 44.306504 33.987601 
L 44.567842 34.392378 
L 44.521855 34.757662 
L 45.008361 34.678341 
L 45.13258 34.954775 
L 45.904534 35.011285 
L 46.591529 35.408573 
L 48.162919 35.204311 
L 49.179109 35.591727 
L 49.635328 35.346614 
L 49.574482 34.883963 
L 50.087621 34.760725 
L 50.39607 34.187435 
L 51.516287 33.82896 
L 51.515728 21.740826 
L 52.556032 22.665447 
L 53.347334 24.09697 
L 53.296862 24.599451 
L 53.848981 26.282558 
L 53.208253 27.474756 
L 53.440148 28.787471 
L 54.02872 28.485166 
L 56.082128 28.69283 
L 56.347392 28.499804 
L 56.397023 28.083795 
L 57.14879 27.8843 
L 57.665858 26.992703 
L 58.471181 26.533115 
L 58.943945 25.798121 
L 59.283797 24.140887 
L 59.788526 23.542405 
L 60.951366 23.485553 
L 62.214314 24.62873 
L 62.916168 24.617834 
L 63.337898 25.032484 
L 64.222576 25.268063 
L 66.375248 24.898692 
L 66.724773 24.596727 
L 67.397467 22.609955 
L 67.487476 21.726528 
L 68.941658 21.346606 
L 69.285716 20.772973 
L 70.121325 20.137043 
L 70.468606 18.335635 
L 70.903375 17.697663 
L 72.046868 17.156712 
L 72.207258 16.682147 
L 72.602351 16.695424 
L 74.08962 14.663374 
L 75.746535 14.168723 
L 76.08891 13.411939 
L 77.778352 13.090909 
L 79.605755 13.809905 
L 81.82404 13.716625 
L 82.193897 13.983187 
L 82.865188 16.485375 
L 82.841492 17.472976 
L 83.717339 19.033695 
L 84.086633 20.655865 
L 84.111588 24.653922 
L 83.82978 25.796757 
L 82.499257 24.980397 
L 81.735152 25.553687 
L 80.879777 27.159174 
L 80.874028 28.514443 
L 81.085033 28.393589 
L 81.284261 29.144928 
L 81.79516 29.791069 
L 82.838548 30.167931 
L 84.037 30.185633 
L 84.096167 28.5124 
L 86.546109 28.637038 
L 86.470599 29.201033 
L 85.186915 34.201124 
L 84.168845 35.023259 
L 84.313244 35.091347 
L 84.15582 35.291853 
L 83.496537 35.475742 
L 82.400306 36.827292 
L 81.413366 38.704235 
L 81.568142 38.682792 
L 78.867198 43.105752 
L 77.100645 44.551122 
L 74.75915 47.46599 
L 70.831486 50.637654 
L 69.136249 51.424672 
L 67.26239 51.356587 
L 66.851718 51.724094 
L 67.023934 52.316236 
L 65.00369 52.152183 
L 64.681557 52.878623 
L 61.429518 52.134225 
L 60.754998 52.303906 
L 60.813286 52.563654 
L 58.575784 52.18167 
L 57.451293 52.475196 
L 57.393005 52.788555 
L 56.848312 52.938131 
L 56.419094 53.457091 
L 55.737729 53.350405 
L 55.109137 53.599697 
L 54.044258 53.388469 
L 53.750604 53.512313 
L 53.847974 53.732922 
L 52.875609 53.750884 
L 51.608486 54.898709 
L 50.625079 54.751008 
L 49.934663 54.183531 
L 49.658454 54.236069 
L 49.830228 53.84953 
L 49.640789 53.548767 
L 49.176686 53.520621 
L 49.232546 53.170805 
L 48.358213 53.442618 
L 48.468166 52.696342 
L 48.310519 52.496102 
L 47.43773 52.553199 
L 47.415211 53.345579 
L 46.997914 52.719933 
L 46.993939 52.296937 
L 47.454071 51.687104 
L 46.973849 50.485934 
L 46.0176 49.243214 
L 46.485678 49.55738 
L 46.241483 49.018583 
L 45.873643 49.028768 
L 45.71401 48.325382 
L 46.051603 47.930803 
L 46.462275 48.159725 
L 46.94404 47.617978 
L 47.087777 46.470956 
L 46.891051 45.259868 
L 44.191873 40.171052 
L 42.94948 36.064398 
z
M 70.563523 37.927102 
L 71.592331 39.495483 
L 71.551111 40.05005 
L 71.784268 40.046987 
L 72.57515 41.002926 
L 73.484506 41.19561 
L 73.610969 40.531764 
L 73.917732 40.185884 
L 73.815104 39.956092 
L 74.312261 39.500588 
L 75.429396 39.320158 
L 76.375203 38.761167 
L 76.292484 38.202515 
L 77.166508 36.859503 
L 76.82974 36.02748 
L 75.931885 35.432061 
L 74.991683 34.317821 
L 73.691165 34.751196 
L 73.307569 35.331294 
L 72.585525 35.430701 
L 71.507927 37.313643 
z
" clip-path="url(#pd0866509da)" style="fill: #eeeeee; stroke: #000000; stroke-width: 0.3"/>
    <path d="M 99.321995 94.852798 
L 99.485825 94.457145 
L 99.916147 94.508612 
L 100.118834 94.659262 
L 99.876623 94.909091 
z
" clip-path="url(#pd0866509da)" style="fill: #eeeeee; stroke: #000000; stroke-width: 0.3"/>
    <path d="M 100.024777 93.823454 
L 100.131417 93.703365 
L 100.341391 93.755903 
L 100.23519 93.883499 
z
" clip-path="url(#pd0866509da)" style="fill: #eeeeee; stroke: #000000; stroke-width: 0.3"/>
    <path d="M 51.507315 12.676599 
L 54.237902 12.555746 
L 54.211544 0.550681 
L 60.499634 -0.504665 
L 61.359919 1.072224 
L 63.369584 -0.645947 
L 63.949743 -0.327298 
L 65.004906 -1.198129 
L 65.83631 -1.179404 
L 65.823409 -0.497517 
L 67.68376 2.533369 
L 67.705071 3.132872 
L 68.266441 4.562016 
L 68.667984 4.694105 
L 68.691536 4.938196 
L 69.781473 5.847494 
L 71.105126 6.392868 
L 71.285847 7.719539 
L 72.451772 7.763457 
L 72.36625 9.615077 
L 73.244759 11.198435 
L 74.941212 11.511975 
L 76.08891 12.008668 
L 76.093818 12.743327 
L 76.933632 13.289383 
L 76.08891 13.411939 
L 75.795045 14.126508 
L 75.486881 14.298087 
L 74.08962 14.663374 
L 72.602351 16.695424 
L 72.207258 16.682147 
L 72.046868 17.156712 
L 70.903375 17.697663 
L 70.468606 18.335635 
L 70.121325 20.137043 
L 69.285716 20.772973 
L 68.941658 21.346606 
L 67.487476 21.726528 
L 67.397467 22.609955 
L 66.724773 24.596727 
L 66.375248 24.898692 
L 64.222576 25.268063 
L 63.337898 25.032484 
L 62.916168 24.617834 
L 62.214314 24.62873 
L 60.951366 23.485553 
L 59.788526 23.542405 
L 59.283797 24.140887 
L 58.919831 25.839654 
L 58.471181 26.533115 
L 57.665858 26.992703 
L 57.14879 27.8843 
L 56.397023 28.083795 
L 56.347392 28.499804 
L 56.082128 28.69283 
L 54.02872 28.485166 
L 53.440148 28.787471 
L 53.208253 27.474756 
L 53.848981 26.282558 
L 53.296862 24.599451 
L 53.347334 24.09697 
L 52.556032 22.665447 
L 51.515728 21.740826 
z
" clip-path="url(#pd0866509da)" style="fill: #eeeeee; stroke: #000000; stroke-width: 0.3"/>
    <path d="M 65.823409 -0.497517 
L 65.83631 -1.179404 
L 66.532697 -0.95472 
L 66.980224 -1.122212 
L 67.639737 -0.504665 
L 68.419544 -0.887314 
L 69.743758 -0.273169 
L 70.615397 -0.637774 
L 72.12398 -2.599015 
L 72.773959 -3.928068 
L 75.465288 -5.487259 
L 75.59652 -6.889844 
L 75.800373 -7.208493 
L 77.577022 -8.222984 
L 79.772035 -8.288009 
L 79.789141 -7.084916 
L 82.115383 -7.011722 
L 82.507671 -6.554519 
L 83.338231 -6.371365 
L 83.879692 -5.676197 
L 84.911165 -5.600961 
L 85.945719 -5.11346 
L 86.107232 -4.754303 
L 86.750763 -4.843838 
L 86.371655 -4.008752 
L 86.894893 -2.656889 
L 86.664118 -2.153726 
L 86.902742 -1.755421 
L 86.639163 -0.590454 
L 86.714031 0.343017 
L 86.952234 0.658257 
L 86.485499 1.263551 
L 86.571724 2.049953 
L 85.998996 2.246724 
L 85.970957 2.64435 
L 86.445261 3.068532 
L 86.19416 4.320988 
L 86.38091 4.442523 
L 86.346839 5.013771 
L 86.682065 4.931384 
L 86.925177 5.375652 
L 86.855914 6.192013 
L 86.525037 6.425893 
L 85.945719 7.838354 
L 85.429774 8.072912 
L 85.455291 9.170812 
L 85.045059 9.822062 
L 85.336398 10.413736 
L 82.193897 13.983187 
L 80.970207 13.604283 
L 79.605755 13.809905 
L 78.042775 13.105547 
L 76.95228 13.303339 
L 76.093818 12.743327 
L 76.08891 12.008668 
L 74.941212 11.511975 
L 73.244759 11.198435 
L 72.36625 9.615077 
L 72.451772 7.763457 
L 71.285847 7.719539 
L 71.105126 6.392868 
L 69.781473 5.847494 
L 68.691536 4.938196 
L 68.667984 4.694105 
L 68.266441 4.562016 
L 67.705071 3.132872 
L 67.68376 2.533369 
z
" clip-path="url(#pd0866509da)" style="fill: #eeeeee; stroke: #000000; stroke-width: 0.3"/>
    <path d="M 79.278801 -10.443976 
L 87.386163 -13.631121 
L 88.585735 -11.694732 
L 88.790712 -12.063761 
L 89.687029 -12.045721 
L 90.482818 -12.400793 
L 90.95502 -11.676007 
L 91.09326 -9.48974 
L 90.181942 -7.451902 
L 90.646857 -6.892229 
L 90.706301 -6.18685 
L 92.005981 -4.648767 
L 92.583334 -4.343738 
L 92.44145 -3.43342 
L 93.054415 -3.369076 
L 93.017121 -4.780855 
L 92.620349 -5.318061 
L 93.278742 -6.624649 
L 93.658408 -6.524561 
L 94.39251 -6.949764 
L 94.542807 -9.008708 
L 94.389987 -9.816896 
L 94.715818 -10.755473 
L 94.561034 -11.534389 
L 92.490522 -14.651061 
L 91.891014 -15.271671 
L 91.2873 -15.348949 
L 91.028767 -15.897729 
L 90.89081 -18.00042 
L 90.509738 -19.60761 
L 91.222528 -21.653619 
L 93.704395 -21.540253 
L 94.504393 -22.196612 
L 95.431411 -21.652256 
L 95.517215 -21.247821 
L 96.673047 -21.182457 
L 97.200491 -21.669279 
L 97.776441 -21.697876 
L 98.07283 -21.335995 
L 98.962836 -21.188586 
L 99.904999 -21.801028 
L 100.233636 -22.623176 
L 101.097843 -22.645643 
L 101.737169 -22.196612 
L 102.833273 -23.006164 
L 103.760853 -22.984714 
L 104.467194 -23.589326 
L 105.246721 -23.780649 
L 107.212868 -25.278866 
L 107.202268 -24.986951 
L 107.604774 -24.58969 
L 107.144642 -24.342002 
L 107.510717 -24.082522 
L 107.173786 -23.704293 
L 107.202049 -23.435965 
L 107.363667 -23.512631 
L 107.202049 -22.941129 
L 106.774154 -22.514115 
L 107.091653 -22.289751 
L 106.98788 -21.417219 
L 107.239142 -20.794788 
L 107.251948 -19.590939 
L 107.051909 -19.396329 
L 107.34998 -18.989414 
L 107.125214 -18.614133 
L 107.352628 -18.518706 
L 107.582695 -17.740532 
L 106.942618 -17.161527 
L 107.139344 -16.898561 
L 107.184826 -17.141957 
L 107.44271 -17.050819 
L 107.257689 -15.288872 
L 107.44271 -15.109005 
L 107.29125 -14.874453 
L 107.59285 -13.571689 
L 107.289041 -13.135023 
L 107.432555 -12.809599 
L 107.716936 -13.075512 
L 107.852058 -12.784401 
L 107.814965 -12.557089 
L 107.55399 -12.557089 
L 107.535444 -11.81135 
L 107.728415 -12.253648 
L 108.002198 -12.323877 
L 108.113698 -12.146959 
L 107.892464 -11.914821 
L 108.075942 -11.94806 
L 108.128489 -11.354578 
L 107.798187 -10.75547 
L 107.572537 -10.864567 
L 107.927569 -10.390374 
L 107.648048 -10.4598 
L 107.759328 -10.142686 
L 107.260337 -9.951294 
L 107.218829 -9.783223 
L 107.551782 -9.840586 
L 107.677192 -9.615418 
L 107.406282 -8.761919 
L 106.004033 -7.12462 
L 106.193472 -7.133464 
L 105.807088 -6.356364 
L 105.240093 -6.094469 
L 105.306773 -5.807917 
L 105.437042 -5.673351 
L 103.465151 -4.230395 
L 103.360273 -3.848411 
L 102.200236 -3.710898 
L 100.870628 -2.848018 
L 100.620912 -3.167006 
L 100.74875 -2.852036 
L 98.202583 -1.361902 
L 97.645304 -0.460421 
L 97.384549 -0.893068 
L 97.234852 -0.904327 
L 97.626757 -0.347839 
L 96.258512 1.331547 
L 96.080995 2.083989 
L 95.621528 1.785103 
L 95.699689 2.433267 
L 95.373579 2.464899 
L 95.311316 2.13626 
L 94.582926 2.632436 
L 92.606398 5.114924 
L 91.936957 5.636566 
L 91.249634 4.755457 
L 91.050258 4.71069 
L 91.658982 5.477338 
L 91.473516 5.704114 
L 91.651695 6.587636 
L 91.327131 6.585489 
L 91.566027 6.83264 
L 91.286505 7.325332 
L 91.492724 7.624754 
L 91.362458 7.868954 
L 91.556753 7.813735 
L 91.916202 8.43536 
L 92.244298 8.491653 
L 92.36441 9.177614 
L 92.588293 9.269827 
L 92.307003 9.746434 
L 92.458467 10.440973 
L 92.60684 9.968921 
L 92.588293 10.622984 
L 92.997641 11.502215 
L 93.091699 13.954412 
L 93.331479 14.28091 
L 93.459979 13.068211 
L 93.621155 13.023714 
L 93.665978 13.696005 
L 93.758489 13.264432 
L 93.590245 14.947302 
L 93.721615 15.793561 
L 93.906859 15.687408 
L 93.560659 16.550825 
L 93.321541 18.432057 
L 93.297695 18.200457 
L 93.185756 18.195631 
L 93.164116 19.145361 
L 93.293723 18.749708 
L 93.526878 18.867386 
L 93.553374 18.545447 
L 93.693133 18.613265 
L 93.610338 19.595967 
L 92.5512 21.231659 
L 87.588247 23.533746 
L 87.702175 23.387385 
L 86.490912 24.34757 
L 85.987064 25.474219 
L 85.727856 25.747906 
L 85.524727 25.68518 
L 85.41676 25.799106 
L 86.408778 26.80084 
L 86.712587 26.109783 
L 86.546109 28.637038 
L 84.432091 28.616913 
L 84.3146 25.882208 
L 83.985405 25.711989 
L 83.867636 25.234021 
L 84.111588 24.653922 
L 84.086633 20.655865 
L 83.717339 19.033695 
L 82.841492 17.472976 
L 82.865188 16.485375 
L 82.167257 14.042421 
L 85.336398 10.413736 
L 85.045059 9.822062 
L 85.455291 9.170812 
L 85.429774 8.072912 
L 85.945719 7.838354 
L 86.525037 6.425893 
L 86.855914 6.192013 
L 86.925177 5.375652 
L 86.682065 4.931384 
L 86.346839 5.013771 
L 86.38091 4.442523 
L 86.19416 4.320988 
L 86.445261 3.068532 
L 85.970957 2.64435 
L 85.998996 2.246724 
L 86.571724 2.049953 
L 86.485499 1.263551 
L 86.952234 0.658257 
L 86.714031 0.343017 
L 86.639163 -0.590454 
L 86.902742 -1.755421 
L 86.664118 -2.153726 
L 86.894893 -2.656889 
L 86.371655 -4.008752 
L 86.750763 -4.843838 
L 86.107232 -4.754303 
L 85.945719 -5.11346 
L 84.911165 -5.600961 
L 83.879692 -5.676197 
L 83.338231 -6.371365 
L 82.507671 -6.554519 
L 82.115383 -7.011722 
L 79.789141 -7.084916 
L 79.76278 -8.799341 
z
M 91.328802 -20.013409 
L 91.418532 -19.854425 
L 91.617619 -20.131877 
L 91.432551 -20.263287 
z
M 91.025403 -20.227199 
L 91.207386 -20.025662 
L 91.251691 -20.30652 
z
" clip-path="url(#pd0866509da)" style="fill: #eeeeee; stroke: #000000; stroke-width: 0.3"/>
    <path d="M 93.442314 11.959257 
L 93.449381 11.597109 
L 93.536371 11.189123 
L 93.593777 11.494711 
z
" clip-path="url(#pd0866509da)" style="fill: #eeeeee; stroke: #000000; stroke-width: 0.3"/>
    <path d="M 105.343085 -6.04349 
L 105.682315 -6.093623 
L 105.498108 -5.715819 
z
" clip-path="url(#pd0866509da)" style="fill: #eeeeee; stroke: #000000; stroke-width: 0.3"/>
    <path d="M 86.614555 25.854592 
L 86.78898 25.747906 
L 86.731134 25.995324 
z
" clip-path="url(#pd0866509da)" style="fill: #eeeeee; stroke: #000000; stroke-width: 0.3"/>
    <path d="M 80.828603 28.211456 
L 80.879777 27.159174 
L 81.735152 25.553687 
L 82.499257 24.980397 
L 83.674295 25.79097 
L 84.3146 25.882208 
L 84.231322 26.784358 
L 84.441624 27.76787 
L 84.432091 28.616913 
L 84.096167 28.5124 
L 84.037 30.185633 
L 82.838548 30.167931 
L 81.79516 29.791069 
z
" clip-path="url(#pd0866509da)" style="fill: #eeeeee; stroke: #000000; stroke-width: 0.3"/>
    <path d="M 70.563523 37.927102 
L 71.507927 37.313643 
L 72.585525 35.430701 
L 73.307569 35.331294 
L 73.691165 34.751196 
L 74.991683 34.317821 
L 75.931885 35.432061 
L 76.82974 36.02748 
L 77.166508 36.859503 
L 76.292484 38.202515 
L 76.375203 38.761167 
L 75.429396 39.320158 
L 74.312261 39.500588 
L 73.815104 39.956092 
L 73.917732 40.185884 
L 73.610969 40.531764 
L 73.484506 41.19561 
L 72.57515 41.002926 
L 71.784268 40.046987 
L 71.551111 40.05005 
L 71.592331 39.495483 
z
" clip-path="url(#pd0866509da)" style="fill: #eeeeee; stroke: #000000; stroke-width: 0.3"/>
    <path d="M 114.571852 13.513724 
L 114.785798 13.395242 
L 114.636766 12.789968 
L 114.879194 11.912882 
L 115.249462 11.594161 
L 115.343962 10.399961 
L 116.172151 10.119304 
L 116.413035 8.994799 
L 117.965862 6.041333 
L 117.686338 5.342236 
L 117.981758 4.386876 
L 117.316072 3.085186 
L 117.378335 2.146714 
L 116.793459 0.806153 
L 116.776898 -1.260575 
L 116.473971 -1.995056 
L 117.848622 -4.782058 
L 117.886597 -6.444288 
L 119.036037 -6.361456 
L 120.11593 -7.339603 
L 120.201376 -6.720119 
L 120.495472 -6.908297 
L 120.422609 -7.17528 
L 120.939924 -7.276607 
L 121.033982 -6.918215 
L 121.186327 -7.735257 
L 121.966825 -7.832829 
L 122.285648 -7.543861 
L 122.298896 -7.818355 
L 122.149199 -7.773321 
L 122.497608 -8.064966 
L 122.745338 -8.019665 
L 122.668942 -7.683519 
L 123.004546 -7.164025 
L 123.152477 -7.41144 
L 123.378127 -7.231573 
L 122.917553 -7.696119 
L 123.008963 -8.307292 
L 124.682344 -9.729341 
L 125.022142 -9.315726 
L 124.706189 -8.572672 
L 125.449152 -8.955726 
L 124.971138 -9.745158 
L 125.828251 -10.743405 
L 125.589133 -10.887084 
L 126.026301 -11.464752 
L 126.222363 -10.977153 
L 125.979935 -10.028493 
L 126.982108 -11.81135 
L 127.31727 -11.339031 
L 127.447316 -11.627461 
L 127.533204 -11.165867 
L 127.567867 -11.601459 
L 127.000433 -11.879705 
L 126.862217 -11.698767 
L 126.722678 -12.206469 
L 126.965106 -12.941484 
L 127.379313 -12.910926 
L 127.315723 -13.39343 
L 127.569633 -13.21383 
L 127.485733 -12.605071 
L 127.624611 -12.812547 
L 127.663251 -13.399863 
L 127.372687 -13.663365 
L 127.578906 -13.832243 
L 127.195612 -14.387391 
L 127.272889 -14.98382 
L 127.718006 -15.266621 
L 128.054492 -14.444754 
L 128.342847 -14.341286 
L 128.436904 -15.171194 
L 128.981817 -15.255363 
L 128.840953 -15.783438 
L 129.173906 -15.503318 
L 129.649049 -15.706239 
L 130.124414 -17.590956 
L 129.93895 -18.40478 
L 129.513042 -18.831798 
L 130.09858 -18.683829 
L 130.2039 -19.166333 
L 130.792309 -19.781528 
L 130.497993 -19.939951 
L 130.68346 -20.097568 
L 130.851701 -19.91529 
L 130.739097 -20.120085 
L 131.000074 -20.436932 
L 131.257736 -19.611846 
L 130.961434 -19.802704 
L 130.868704 -19.533036 
L 131.193488 -19.281329 
L 131.280258 -19.530625 
L 131.483386 -19.034448 
L 131.709037 -19.018901 
L 131.57612 -18.92401 
L 131.836652 -18.676859 
L 131.771741 -18.1965 
L 132.022119 -17.613473 
L 132.264547 -17.815857 
L 132.801733 -16.859156 
L 133.346426 -14.391142 
L 133.527695 -11.204198 
L 134.288103 -9.659916 
L 134.270218 -8.922217 
L 133.872352 -7.710595 
L 133.414871 -7.139631 
L 132.877905 -8.017788 
L 132.690455 -8.991913 
L 132.193011 -8.911495 
L 131.977738 -8.589022 
L 132.236287 -7.399648 
L 132.117058 -6.802948 
L 132.551355 -6.295783 
L 132.562617 -5.311473 
L 132.212442 -4.605406 
L 132.525524 -4.363083 
L 131.896267 -4.135768 
L 131.415825 -2.86008 
L 131.628225 -1.398089 
L 131.220203 0.895418 
L 129.568682 5.973782 
L 129.653466 6.209138 
L 128.080106 12.00295 
L 127.262954 14.259196 
L 126.821814 16.809769 
L 126.379347 17.940439 
L 126.362347 18.776781 
L 125.700413 20.150314 
L 125.161681 22.339812 
L 125.106041 22.158068 
L 124.723631 22.77246 
L 123.879763 23.16168 
L 122.751078 23.208859 
L 120.915859 24.400644 
L 119.83442 24.527703 
L 118.94485 23.689218 
L 117.682586 23.401858 
L 117.484314 23.061694 
L 117.722108 23.283647 
L 117.778852 23.175887 
L 116.758351 22.552651 
L 116.458517 21.301354 
L 115.792609 20.365294 
L 115.66212 18.477895 
L 116.032389 17.496 
L 115.679123 17.104098 
L 115.549296 16.218164 
L 114.946977 15.451786 
z
" clip-path="url(#pd0866509da)" style="fill: #eeeeee; stroke: #000000; stroke-width: 0.3"/>
    <path d="M 128.044556 -16.100285 
L 128.396278 -16.310976 
L 128.507998 -15.626892 
L 128.141926 -15.651553 
z
" clip-path="url(#pd0866509da)" style="fill: #eeeeee; stroke: #000000; stroke-width: 0.3"/>
    <path d="M 132.487104 -3.484119 
L 132.571448 -4.059639 
L 133.02407 -4.81503 
z
" clip-path="url(#pd0866509da)" style="fill: #eeeeee; stroke: #000000; stroke-width: 0.3"/>
    <path d="M 183.825794 101.862521 
L 184.039078 101.788003 
L 184.000661 101.494747 
L 184.244415 101.526379 
L 183.942373 101.103382 
L 184.227415 101.02618 
L 184.549771 100.471836 
L 184.823331 100.709336 
L 184.258325 101.260465 
L 185.019615 100.862131 
L 184.803238 100.979002 
L 184.951611 101.102846 
L 184.506714 101.907555 
L 184.692181 101.97457 
L 184.794187 101.588031 
L 185.089385 102.009149 
L 185.695678 101.657726 
L 185.73498 101.90273 
L 186.106792 101.453465 
L 186.254724 102.019604 
L 185.592348 101.984221 
L 185.273744 102.216629 
L 185.788412 102.109672 
L 185.541125 102.210999 
L 185.956653 102.424372 
L 185.623258 102.51444 
L 186.682615 102.559207 
L 187.100355 102.134871 
L 187.746832 102.12656 
L 188.131892 101.787466 
L 188.636622 101.925517 
L 188.641258 102.622737 
L 188.065655 102.856482 
L 188.486043 103.056188 
L 188.002731 103.056188 
L 187.600005 102.725671 
L 186.738255 102.761858 
L 187.017779 102.898568 
L 186.944917 103.069321 
L 186.384548 102.941995 
L 186.715295 103.36365 
L 187.592059 103.644841 
L 187.353603 103.323975 
L 188.023263 103.35668 
L 188.099436 103.501968 
L 187.667569 103.644841 
L 187.883281 103.867597 
L 186.82878 103.846691 
L 186.511062 103.252672 
L 186.236177 103.271704 
L 186.447252 103.525825 
L 186.308595 103.800049 
L 185.781786 103.689608 
L 185.12427 103.21863 
L 185.136633 103.497142 
L 184.897515 103.303873 
L 184.916062 103.665484 
L 184.739209 103.389382 
L 184.789551 103.731961 
L 184.576926 103.948015 
L 183.868406 103.833018 
L 184.24066 103.029649 
L 183.982334 102.814666 
L 184.301379 102.559207 
L 184.062704 102.609064 
L 183.867966 102.231906 
L 184.319926 102.087155 
z
" clip-path="url(#pd0866509da)" style="fill: #eeeeee; stroke: #000000; stroke-width: 0.3"/>
    <path d="M 185.028666 101.565513 
L 185.437794 101.228297 
L 185.362283 101.408431 
L 185.623258 101.374655 
L 185.111022 101.920425 
z
" clip-path="url(#pd0866509da)" style="fill: #eeeeee; stroke: #000000; stroke-width: 0.3"/>
    <path d="M 137.45293 92.974247 
L 137.668642 92.806443 
L 137.934918 92.968618 
L 137.905994 93.214425 
z
" clip-path="url(#pd0866509da)" style="fill: #eeeeee; stroke: #000000; stroke-width: 0.3"/>
    <path d="M 133.434964 91.941148 
L 133.686004 91.87199 
L 133.751579 92.110027 
L 133.504512 92.101716 
z
" clip-path="url(#pd0866509da)" style="fill: #eeeeee; stroke: #000000; stroke-width: 0.3"/>
    <path d="M 207.598208 67.701441 
L 207.70242 67.785077 
L 207.613 67.799283 
z
" clip-path="url(#pd0866509da)" style="fill: #eeeeee; stroke: #000000; stroke-width: 0.3"/>
    <path d="M 207.581205 64.989497 
L 207.687848 64.784699 
L 207.79979 64.962421 
z
" clip-path="url(#pd0866509da)" style="fill: #eeeeee; stroke: #000000; stroke-width: 0.3"/>
    <path d="M 186.774907 103.260446 
L 187.264182 103.468192 
L 186.807586 103.303873 
z
" clip-path="url(#pd0866509da)" style="fill: #eeeeee; stroke: #000000; stroke-width: 0.3"/>
    <path d="M 185.956653 102.244775 
L 186.347015 102.109672 
L 186.200408 102.295705 
z
" clip-path="url(#pd0866509da)" style="fill: #eeeeee; stroke: #000000; stroke-width: 0.3"/>
    <path d="M 185.604711 101.046553 
L 185.917793 101.138766 
L 185.669625 101.16316 
z
" clip-path="url(#pd0866509da)" style="fill: #eeeeee; stroke: #000000; stroke-width: 0.3"/>
    <path d="M 184.897515 101.545678 
L 184.948961 101.301744 
L 185.16909 101.247596 
z
" clip-path="url(#pd0866509da)" style="fill: #eeeeee; stroke: #000000; stroke-width: 0.3"/>
    <path d="M 183.913226 100.241306 
L 184.015233 100.182332 
L 184.042391 100.268112 
z
" clip-path="url(#pd0866509da)" style="fill: #eeeeee; stroke: #000000; stroke-width: 0.3"/>
    <path d="M 183.53987 102.741218 
L 183.669694 102.649272 
L 183.892031 102.807696 
z
" clip-path="url(#pd0866509da)" style="fill: #eeeeee; stroke: #000000; stroke-width: 0.3"/>
    <path d="M 183.449565 100.416081 
L 183.492619 100.390345 
L 183.606547 100.441279 
z
" clip-path="url(#pd0866509da)" style="fill: #eeeeee; stroke: #000000; stroke-width: 0.3"/>
    <path d="M 145.20691 -7.452722 
L 145.224352 -7.467199 
L 145.225456 -7.437979 
z
" clip-path="url(#pd0866509da)" style="fill: #eeeeee; stroke: #000000; stroke-width: 0.3"/>
    <path d="M 125.600615 -21.695732 
L 125.632187 -21.744788 
L 125.650734 -21.681255 
z
" clip-path="url(#pd0866509da)" style="fill: #eeeeee; stroke: #000000; stroke-width: 0.3"/>
    <path d="M 113.219283 -3.585713 
L 113.312679 -3.595364 
L 113.29369 -3.544434 
z
" clip-path="url(#pd0866509da)" style="fill: #eeeeee; stroke: #000000; stroke-width: 0.3"/>
    <path d="M 106.747881 13.858984 
L 106.875057 13.792507 
L 106.828028 13.868635 
z
" clip-path="url(#pd0866509da)" style="fill: #eeeeee; stroke: #000000; stroke-width: 0.3"/>
    <path d="M 105.090618 10.844937 
L 105.092827 10.836089 
L 105.098345 10.843596 
z
" clip-path="url(#pd0866509da)" style="fill: #eeeeee; stroke: #000000; stroke-width: 0.3"/>
   </g>
   <g id="PatchCollection_2">
    <path d="M 41.988814 34.480174 
L 42.722495 34.021986 
L 42.799327 33.31184 
L 43.136374 32.709953 
L 43.634093 32.526117 
L 44.005069 33.202219 
L 44.36483 33.187581 
L 44.511201 33.739764 
L 44.306504 33.987601 
L 44.567842 34.392378 
L 44.521855 34.757662 
L 45.008361 34.678341 
L 45.13258 34.954775 
L 45.904534 35.011285 
L 46.591529 35.408573 
L 48.162919 35.204311 
L 49.179109 35.591727 
L 49.635328 35.346614 
L 49.574482 34.883963 
L 50.087621 34.760725 
L 50.39607 34.187435 
L 51.516287 33.82896 
L 51.515728 21.740826 
L 52.556032 22.665447 
L 53.347334 24.09697 
L 53.296862 24.599451 
L 53.848981 26.282558 
L 53.208253 27.474756 
L 53.440148 28.787471 
L 54.02872 28.485166 
L 56.082128 28.69283 
L 56.347392 28.499804 
L 56.397023 28.083795 
L 57.14879 27.8843 
L 57.665858 26.992703 
L 58.471181 26.533115 
L 58.943945 25.798121 
L 59.283797 24.140887 
L 59.788526 23.542405 
L 60.951366 23.485553 
L 62.214314 24.62873 
L 62.916168 24.617834 
L 63.337898 25.032484 
L 64.222576 25.268063 
L 66.375248 24.898692 
L 66.724773 24.596727 
L 67.397467 22.609955 
L 67.487476 21.726528 
L 68.941658 21.346606 
L 69.285716 20.772973 
L 70.121325 20.137043 
L 70.468606 18.335635 
L 70.903375 17.697663 
L 72.046868 17.156712 
L 72.207258 16.682147 
L 72.602351 16.695424 
L 74.08962 14.663374 
L 75.746535 14.168723 
L 76.08891 13.411939 
L 77.778352 13.090909 
L 79.605755 13.809905 
L 81.82404 13.716625 
L 82.193897 13.983187 
L 82.865188 16.485375 
L 82.841492 17.472976 
L 83.717339 19.033695 
L 84.086633 20.655865 
L 84.111588 24.653922 
L 83.82978 25.796757 
L 82.499257 24.980397 
L 81.735152 25.553687 
L 80.879777 27.159174 
L 80.874028 28.514443 
L 81.085033 28.393589 
L 81.284261 29.144928 
L 81.79516 29.791069 
L 82.838548 30.167931 
L 84.037 30.185633 
L 84.096167 28.5124 
L 86.546109 28.637038 
L 86.470599 29.201033 
L 85.186915 34.201124 
L 84.168845 35.023259 
L 84.313244 35.091347 
L 84.15582 35.291853 
L 83.496537 35.475742 
L 82.400306 36.827292 
L 81.413366 38.704235 
L 81.568142 38.682792 
L 78.867198 43.105752 
L 77.100645 44.551122 
L 74.75915 47.46599 
L 70.831486 50.637654 
L 69.136249 51.424672 
L 67.26239 51.356587 
L 66.851718 51.724094 
L 67.023934 52.316236 
L 65.00369 52.152183 
L 64.681557 52.878623 
L 61.429518 52.134225 
L 60.754998 52.303906 
L 60.813286 52.563654 
L 58.575784 52.18167 
L 57.451293 52.475196 
L 57.393005 52.788555 
L 56.848312 52.938131 
L 56.419094 53.457091 
L 55.737729 53.350405 
L 55.109137 53.599697 
L 54.044258 53.388469 
L 53.750604 53.512313 
L 53.847974 53.732922 
L 52.875609 53.750884 
L 51.608486 54.898709 
L 50.625079 54.751008 
L 49.934663 54.183531 
L 49.658454 54.236069 
L 49.830228 53.84953 
L 49.640789 53.548767 
L 49.176686 53.520621 
L 49.232546 53.170805 
L 48.358213 53.442618 
L 48.468166 52.696342 
L 48.310519 52.496102 
L 47.43773 52.553199 
L 47.415211 53.345579 
L 46.997914 52.719933 
L 46.993939 52.296937 
L 47.454071 51.687104 
L 46.973849 50.485934 
L 46.0176 49.243214 
L 46.485678 49.55738 
L 46.241483 49.018583 
L 45.873643 49.028768 
L 45.71401 48.325382 
L 46.051603 47.930803 
L 46.462275 48.159725 
L 46.94404 47.617978 
L 47.087777 46.470956 
L 46.891051 45.259868 
L 44.191873 40.171052 
L 42.94948 36.064398 
z
M 70.563523 37.927102 
L 71.592331 39.495483 
L 71.551111 40.05005 
L 71.784268 40.046987 
L 72.57515 41.002926 
L 73.484506 41.19561 
L 73.610969 40.531764 
L 73.917732 40.185884 
L 73.815104 39.956092 
L 74.312261 39.500588 
L 75.429396 39.320158 
L 76.375203 38.761167 
L 76.292484 38.202515 
L 77.166508 36.859503 
L 76.82974 36.02748 
L 75.931885 35.432061 
L 74.991683 34.317821 
L 73.691165 34.751196 
L 73.307569 35.331294 
L 72.585525 35.430701 
L 71.507927 37.313643 
z
" clip-path="url(#pd0866509da)" style="fill: #ff6b6b; stroke: #dd0000; stroke-width: 0.5"/>
    <path d="M 99.321995 94.852798 
L 99.485825 94.457145 
L 99.916147 94.508612 
L 100.118834 94.659262 
L 99.876623 94.909091 
z
" clip-path="url(#pd0866509da)" style="fill: #ff6b6b; stroke: #dd0000; stroke-width: 0.5"/>
    <path d="M 100.024777 93.823454 
L 100.131417 93.703365 
L 100.341391 93.755903 
L 100.23519 93.883499 
z
" clip-path="url(#pd0866509da)" style="fill: #ff6b6b; stroke: #dd0000; stroke-width: 0.5"/>
   </g>
  </g>
 </g>
 <defs>
  <clipPath id="pd0866509da">
   <rect x="0" y="0" width="142.330205" height="108"/>
  </clipPath>
 </defs>
</svg>
