<?xml version="1.0" encoding="utf-8" standalone="no"?>
<!DOCTYPE svg PUBLIC "-//W3C//DTD SVG 1.1//EN"
  "http://www.w3.org/Graphics/SVG/1.1/DTD/svg11.dtd">
<svg xmlns:xlink="http://www.w3.org/1999/xlink" width="133.36963pt" height="108pt" viewBox="0 0 133.36963 108" xmlns="http://www.w3.org/2000/svg" version="1.1">
 <metadata>
  <rdf:RDF xmlns:dc="http://purl.org/dc/elements/1.1/" xmlns:cc="http://creativecommons.org/ns#" xmlns:rdf="http://www.w3.org/1999/02/22-rdf-syntax-ns#">
   <cc:Work>
    <dc:type rdf:resource="http://purl.org/dc/dcmitype/StillImage"/>
    <dc:date>2025-09-05T13:56:18.510591</dc:date>
    <dc:format>image/svg+xml</dc:format>
    <dc:creator>
     <cc:Agent>
      <dc:title>Matplotlib v3.10.3, https://matplotlib.org/</dc:title>
     </cc:Agent>
    </dc:creator>
   </cc:Work>
  </rdf:RDF>
 </metadata>
 <defs>
  <style type="text/css">*{stroke-linejoin: round; stroke-linecap: butt}</style>
 </defs>
 <g id="figure_1">
  <g id="patch_1">
   <path d="M 0 108 
L 133.36963 108 
L 133.36963 0 
L 0 0 
z
" style="fill: #ffffff"/>
  </g>
  <g id="axes_1">
   <g id="PatchCollection_1">
    <path d="M 54.051713 -9.148744 
L 54.072749 -10.39429 
L 55.177736 -11.173916 
L 58.420434 -11.90918 
L 59.092867 -11.173916 
L 59.321567 -11.91208 
L 60.560818 -11.552856 
L 60.943023 -12.686775 
L 62.513461 -12.902773 
L 62.564034 -12.346106 
L 63.273842 -12.895811 
L 63.086767 -12.102561 
L 63.731907 -12.540649 
L 65.523659 -10.314557 
L 67.538062 -11.665058 
L 67.459739 -11.173916 
L 68.101073 -10.833538 
L 68.988331 -11.31975 
L 69.384638 -10.347034 
L 69.118344 -11.271041 
L 69.575293 -11.665058 
L 70.13562 -11.761892 
L 70.398103 -11.076206 
L 72.814851 -11.271041 
L 71.731119 -12.011236 
L 71.459908 -12.739538 
L 71.982191 -14.052924 
L 71.511372 -14.019584 
L 71.418734 -15.351239 
L 71.75976 -15.419664 
L 70.285546 -16.547199 
L 69.9105 -17.595886 
L 70.158888 -18.229093 
L 69.632575 -18.972473 
L 71.439318 -18.444799 
L 73.329082 -18.768652 
L 73.523091 -18.259825 
L 73.091434 -17.789559 
L 74.099977 -16.274377 
L 75.103378 -16.608085 
L 79.068187 -15.80875 
L 82.537115 -17.033995 
L 82.987349 -17.330018 
L 81.687677 -17.119528 
L 80.696358 -17.624879 
L 81.572205 -19.009582 
L 86.991094 -20.788601 
L 88.639855 -22.46788 
L 89.473185 -22.310161 
L 88.752637 -22.918429 
L 89.131257 -23.579476 
L 88.82782 -23.822436 
L 88.967456 -27.128807 
L 94.14366 -28.687404 
L 94.620187 -27.786669 
L 94.500827 -26.962246 
L 95.60065 -26.092526 
L 97.48427 -26.489458 
L 98.264092 -24.692953 
L 100.11873 -24.333579 
L 100.605832 -23.063245 
L 102.291088 -23.389849 
L 103.359652 -22.780091 
L 102.964627 -21.85146 
L 103.427856 -21.366894 
L 102.997024 -20.760078 
L 105.824728 -20.827826 
L 106.758017 -22.08785 
L 107.067784 -21.934306 
L 106.584092 -20.641142 
L 107.003556 -20.320801 
L 106.942171 -19.471703 
L 109.198082 -18.738961 
L 110.280857 -17.36811 
L 111.876873 -17.727847 
L 113.055701 -16.957548 
L 115.486681 -17.129504 
L 117.197228 -14.944903 
L 118.30046 -15.285501 
L 119.005253 -14.579636 
L 120.28014 -14.561224 
L 121.028702 -15.016705 
L 122.263228 -14.082181 
L 125.372284 -13.517711 
L 123.227209 -11.069836 
L 122.899816 -9.119972 
L 121.992111 -7.611958 
L 122.187066 -6.484124 
L 121.586285 -4.602193 
L 121.994102 -3.727892 
L 120.853072 -2.630782 
L 118.624438 -3.04723 
L 118.037867 -2.085829 
L 118.972289 -1.910189 
L 116.931225 0.286012 
L 115.706075 0.835568 
L 115.632185 2.141985 
L 113.923056 3.405685 
L 113.570091 4.574576 
L 114.014567 4.923825 
L 113.78892 5.760033 
L 113.023303 6.13856 
L 113.045472 6.633436 
L 114.043555 6.492782 
L 114.818262 5.852456 
L 114.449381 5.315234 
L 114.751757 4.89087 
L 115.927742 4.366723 
L 117.600211 4.611949 
L 117.398436 5.101125 
L 117.823587 5.642943 
L 117.482556 6.482835 
L 118.892718 8.095606 
L 117.675806 8.799625 
L 117.64909 9.571399 
L 119.654919 11.760425 
L 119.076306 13.165891 
L 116.586498 13.951282 
L 117.371153 15.345334 
L 118.810297 15.956203 
L 119.074595 16.9338 
L 118.550548 16.945956 
L 117.867918 18.008615 
L 118.319219 18.704903 
L 118.035024 19.162222 
L 118.676727 20.091224 
L 120.591612 20.921176 
L 122.376907 20.559223 
L 122.56561 21.33394 
L 121.399288 22.771991 
L 121.391264 23.490795 
L 119.60511 24.273613 
L 119.535234 24.991499 
L 118.562773 25.090633 
L 118.188486 25.892085 
L 117.292726 26.033031 
L 116.521407 27.02309 
L 117.085001 26.994054 
L 117.010357 27.502946 
L 115.336161 28.291807 
L 114.33431 28.164035 
L 114.262125 28.683123 
L 112.946971 27.984149 
L 112.483236 28.619658 
L 111.478564 27.657309 
L 109.680581 27.400726 
L 109.390172 26.406221 
L 107.959486 26.548699 
L 107.916107 26.022471 
L 109.017068 25.516836 
L 107.932665 24.959007 
L 108.053499 25.880406 
L 107.04742 25.936076 
L 106.979243 26.503788 
L 106.440545 25.929699 
L 106.355958 25.201967 
L 106.092804 24.812881 
L 106.356409 25.928246 
L 106.784018 26.471175 
L 102.014317 25.091795 
L 97.400563 28.181592 
L 97.003591 31.582189 
L 97.768729 32.98995 
L 96.408893 32.713907 
L 94.915749 33.648795 
L 92.799657 33.010314 
L 91.250243 33.579942 
L 89.691167 32.546554 
L 89.745166 31.718996 
L 88.135501 31.822092 
L 87.658627 31.014977 
L 84.745665 30.138816 
L 83.884562 30.090392 
L 83.814653 31.187296 
L 80.061051 31.182508 
L 78.499984 30.061307 
L 77.145812 30.559126 
L 76.097425 29.320278 
L 73.951212 28.898309 
L 73.202649 28.161142 
L 72.261694 28.617912 
L 72.556685 27.205264 
L 71.355688 27.179121 
L 70.395689 26.271481 
L 71.140583 26.091188 
L 72.153157 24.805926 
L 73.361083 17.851644 
L 73.749998 17.072017 
L 74.529621 17.043894 
L 73.828541 16.268329 
L 73.343853 17.343108 
L 74.306745 10.633816 
L 76.061574 12.364989 
L 76.337712 13.729983 
L 77.334844 15.436809 
L 76.996496 14.512802 
L 77.559733 14.702706 
L 76.667553 13.982227 
L 75.900457 11.28877 
L 73.415681 9.630077 
L 73.874863 8.940329 
L 74.846263 9.577014 
L 73.941324 8.502534 
L 74.507921 7.286566 
L 73.616406 6.319351 
L 74.166664 5.40636 
L 73.455288 5.537701 
L 70.401458 4.039335 
L 69.771766 2.633754 
L 68.623135 1.720471 
L 69.32735 0.18558 
L 67.950251 -0.577523 
L 68.367813 -0.758435 
L 68.393319 -1.494575 
L 70.7774 -1.064027 
L 69.220612 -1.840461 
L 67.745276 -1.318002 
L 66.295671 -1.700711 
L 66.877485 -1.750004 
L 66.216457 -2.293041 
L 67.121397 -2.58094 
L 66.555476 -3.062229 
L 67.274903 -3.168923 
L 65.800688 -3.266341 
L 65.980152 -3.332443 
L 66.104126 -3.509301 
L 64.782521 -3.119345 
L 64.275901 -3.541194 
L 65.198741 -3.490747 
L 65.489194 -3.868817 
L 65.514706 -4.001313 
L 65.390738 -4.141931 
L 64.219956 -3.805608 
L 63.916073 -4.292112 
L 64.107173 -3.55801 
L 63.098855 -3.828808 
L 63.052533 -2.969742 
L 62.673682 -4.119608 
L 63.127722 -4.778908 
L 62.714411 -4.880672 
L 62.543895 -4.239349 
L 61.806563 -4.531018 
L 62.222557 -4.486948 
L 61.806563 -4.628435 
L 62.222557 -5.172348 
L 61.321649 -4.582627 
L 57.550399 -6.145356 
L 57.258824 -5.357899 
L 56.232601 -5.313829 
L 55.887098 -6.514143 
L 54.273022 -6.976876 
L 56.707896 -7.509766 
L 56.191652 -8.343317 
L 55.211524 -7.950169 
L 54.832904 -8.732988 
L 55.270825 -9.158898 
L 55.442237 -8.795613 
L 56.796063 -8.742557 
L 57.246297 -8.878822 
L 55.782147 -9.077427 
L 56.68306 -9.76282 
z
M 90.985379 32.849224 
L 91.271273 32.90151 
L 91.035396 32.631609 
z
" clip-path="url(#p13c9fb64b4)" style="fill: #eeeeee; stroke: #000000; stroke-width: 0.3"/>
    <path d="M 127.29037 33.37744 
L 127.89769 33.0014 
L 128.170693 31.937644 
L 130.418267 30.848664 
L 131.376913 31.256597 
L 131.676765 28.912502 
L 132.322131 29.00992 
L 132.205768 31.500141 
L 132.674348 32.048977 
L 132.847547 35.020187 
L 131.987363 36.399682 
L 131.978861 38.156078 
L 131.376913 38.726376 
L 131.698252 39.048485 
L 130.928918 39.995984 
L 130.997391 40.535543 
L 128.624953 39.190842 
L 129.34505 38.240157 
L 127.87352 37.846432 
L 128.700141 36.72759 
L 127.648851 36.771368 
L 127.494899 36.285448 
L 128.367612 35.661226 
L 127.382117 34.578331 
L 128.052989 34.119666 
z
" clip-path="url(#p13c9fb64b4)" style="fill: #eeeeee; stroke: #000000; stroke-width: 0.3"/>
    <path d="M 71.719037 5.769068 
L 73.081365 6.088568 
L 73.228161 6.450115 
L 72.002555 6.083353 
z
" clip-path="url(#p13c9fb64b4)" style="fill: #eeeeee; stroke: #000000; stroke-width: 0.3"/>
    <path d="M 132.280956 31.451432 
L 132.421483 31.645975 
L 132.392391 31.653222 
z
" clip-path="url(#p13c9fb64b4)" style="fill: #eeeeee; stroke: #000000; stroke-width: 0.3"/>
    <path d="M 114.185776 28.941495 
L 114.235007 28.875101 
L 114.658838 28.920326 
z
" clip-path="url(#p13c9fb64b4)" style="fill: #eeeeee; stroke: #000000; stroke-width: 0.3"/>
    <path d="M 72.548787 7.184218 
L 73.413894 7.550403 
L 73.625133 8.887274 
z
" clip-path="url(#p13c9fb64b4)" style="fill: #eeeeee; stroke: #000000; stroke-width: 0.3"/>
    <path d="M 67.650394 0.201234 
L 68.176261 0.264151 
L 68.492227 1.080017 
z
" clip-path="url(#p13c9fb64b4)" style="fill: #eeeeee; stroke: #000000; stroke-width: 0.3"/>
    <path d="M 67.170402 2.413988 
L 67.636299 2.431673 
L 67.79719 2.593746 
z
" clip-path="url(#p13c9fb64b4)" style="fill: #eeeeee; stroke: #000000; stroke-width: 0.3"/>
    <path d="M 62.335565 -2.293041 
L 63.408331 -1.713758 
L 62.547926 -1.786536 
z
" clip-path="url(#p13c9fb64b4)" style="fill: #eeeeee; stroke: #000000; stroke-width: 0.3"/>
    <path d="M -13.290977 182.704137 
L -12.780997 179.060736 
L -11.602829 176.6085 
L -10.282127 175.882222 
L -9.308714 172.159801 
L -8.613672 171.494116 
L -8.888018 170.77306 
L -6.465452 165.832349 
L -6.479327 164.948059 
L -7.687698 166.850004 
L -7.383815 165.925128 
L -1.642472 159.292092 
L -1.222452 154.842231 
L 0.456743 150.519073 
L 0.719452 148.685837 
L 5.696609 144.732342 
L 7.840578 138.063643 
L 9.044253 136.327824 
L 13.943988 135.18492 
L 17.110822 133.498971 
L 19.434254 130.458175 
L 22.125127 128.762081 
L 23.914641 126.560635 
L 27.177247 120.664309 
L 27.416462 118.687276 
L 25.893688 116.949427 
L 26.309682 115.674889 
L 26.119247 111.575852 
L 29.252743 105.916977 
L 29.350754 103.207289 
L 33.369495 98.277878 
L 38.86916 95.684739 
L 42.757443 92.784853 
L 45.672083 86.79111 
L 47.67866 80.378709 
L 50.584434 79.354399 
L 51.406266 81.776181 
L 52.413467 82.96721 
L 54.040076 84.224355 
L 56.209332 84.859879 
L 58.720956 84.040536 
L 59.446207 84.451076 
L 59.929558 83.869478 
L 62.021162 84.503847 
L 63.353062 83.890355 
L 63.949636 82.760782 
L 64.568373 85.006297 
L 65.162038 85.1156 
L 64.445521 84.186662 
L 65.609588 85.170686 
L 67.762505 85.161117 
L 70.54375 87.784824 
L 69.985034 88.815818 
L 70.909793 89.649269 
L 70.323223 90.413305 
L 71.093095 92.502726 
L 70.668797 95.187732 
L 71.3807 96.241919 
L 71.067804 98.496854 
L 72.028655 99.763505 
L 71.702687 100.665252 
L 72.447554 102.028009 
L 74.599739 103.795058 
L 73.433131 104.774686 
L 73.073341 106.124738 
L 73.699986 106.277178 
L 73.61899 106.678897 
L 66.43775 106.375856 
L 64.430221 106.774263 
L 64.113772 106.971257 
L 64.723633 108.781471 
L 60.149904 109.827222 
L 60.073039 111.669742 
L 59.29374 112.040801 
L 59.141697 113.230491 
L 59.754417 113.186677 
L 60.726428 114.757202 
L 60.149904 115.603771 
L 60.226776 116.500132 
L 56.229565 117.944267 
L 51.809579 121.728899 
L 49.810971 124.965756 
L 48.811672 124.965756 
L 48.619499 124.318383 
L 45.77533 124.567371 
L 42.969595 125.513531 
L 40.970993 125.065354 
L 39.856387 125.961715 
L 38.184551 126.013345 
L 32.608141 130.748191 
L 32.526865 138.231551 
L 31.786365 138.231373 
L 31.913578 142.088206 
L 28.51408 142.317785 
L 26.28786 144.015611 
L 25.106332 143.58425 
L 23.903351 143.93902 
L 21.118839 142.80493 
L 17.62783 143.77885 
L 17.928507 145.560263 
L 15.836853 149.331856 
L 13.951809 150.138979 
L 11.916288 158.405343 
L 8.836363 160.973066 
L 7.077497 164.459118 
L 3.887165 166.525894 
L 2.732634 170.735666 
L 2.072029 176.364892 
L -0.180901 179.565759 
L -0.070774 180.352076 
L -0.841505 182.133304 
L -2.052444 182.557853 
L -7.936064 182.133304 
z
" clip-path="url(#p13c9fb64b4)" style="fill: #eeeeee; stroke: #000000; stroke-width: 0.3"/>
    <path d="M 29.242899 28.547193 
L 30.187665 27.933409 
L 29.58348 27.832222 
L 31.151234 27.262509 
L 30.846009 26.922423 
L 31.715141 26.507821 
L 32.467911 26.848491 
L 34.460833 26.048571 
L 35.123653 26.707295 
L 35.314979 25.972608 
L 34.601365 25.725003 
L 35.352573 25.433334 
L 34.447634 25.57946 
L 34.560191 24.898121 
L 36.782478 23.478625 
L 37.058391 24.177934 
L 38.008981 23.285528 
L 37.975863 23.757247 
L 39.760449 24.093278 
L 40.28833 24.940745 
L 41.535417 24.953207 
L 41.53385 25.524666 
L 42.087242 24.906244 
L 46.898135 24.879859 
L 48.091294 24.215335 
L 49.052174 24.940745 
L 50.611871 24.982784 
L 50.501552 25.329831 
L 55.628415 26.205714 
L 59.230265 25.397672 
L 59.546907 25.524666 
L 59.315749 25.907376 
L 60.590361 25.246329 
L 61.403772 25.612515 
L 61.241088 26.000148 
L 63.731907 26.652494 
L 64.07003 25.869683 
L 65.049261 25.714856 
L 65.475996 26.320232 
L 68.573459 26.891107 
L 70.408745 26.188591 
L 70.665673 26.865591 
L 72.556685 27.205264 
L 72.261694 28.617912 
L 73.202649 28.161142 
L 73.951212 28.898309 
L 76.097425 29.320278 
L 77.145812 30.559126 
L 78.499984 30.061307 
L 80.061051 31.182508 
L 81.205491 30.888124 
L 81.789642 31.299784 
L 83.886839 31.162257 
L 83.884562 30.090392 
L 84.745665 30.138816 
L 87.658627 31.014977 
L 88.237812 32.96742 
L 89.662746 32.481935 
L 91.3247 33.591357 
L 92.799657 33.010314 
L 94.10523 33.743975 
L 96.408893 32.713907 
L 97.768729 32.98995 
L 97.803805 33.574014 
L 98.520773 33.763049 
L 97.426972 34.508752 
L 98.0504 36.448968 
L 96.404982 38.113212 
L 92.744299 39.993084 
L 91.99197 41.026109 
L 85.870439 42.820775 
L 84.202881 44.506438 
L 84.994146 45.42523 
L 83.998802 46.288059 
L 83.533356 46.167448 
L 84.304477 45.799531 
L 83.374026 46.110916 
L 78.496893 53.762192 
L 79.406083 57.425173 
L 81.565044 59.276963 
L 77.471346 62.154817 
L 77.503342 63.089263 
L 76.845229 63.408478 
L 76.091557 66.018433 
L 75.567037 66.400565 
L 76.396336 67.276733 
L 72.995353 67.686746 
L 71.086205 69.10243 
L 70.30613 70.215765 
L 69.824352 72.110172 
L 68.579503 73.569392 
L 67.28721 72.854136 
L 66.192293 72.982285 
L 65.32629 73.956739 
L 64.143871 73.460673 
L 56.060072 73.658694 
L 54.651873 75.199385 
L 51.751994 75.886524 
L 50.914874 77.810936 
L 50.438226 77.535648 
L 50.365722 78.368907 
L 49.41357 78.770463 
L 47.076262 77.466062 
L 45.573626 75.010641 
L 46.005509 75.448437 
L 46.292162 75.157345 
L 45.107955 74.278278 
L 44.895369 73.463858 
L 45.377824 73.151897 
L 45.418548 72.519558 
L 46.050709 72.387055 
L 46.207124 72.174827 
L 45.382746 72.394594 
L 45.144653 73.057956 
L 44.531069 71.978545 
L 42.368077 70.504248 
L 42.589166 69.587488 
L 41.98498 70.024991 
L 42.1725 70.463078 
L 39.499979 70.317244 
L 38.950447 67.405936 
L 40.279328 64.729587 
L 41.647144 64.405007 
L 42.067747 63.164684 
L 41.209773 63.328909 
L 39.803593 61.385302 
L 40.291833 59.310794 
L 41.470661 58.472555 
L 41.925933 57.341037 
L 40.359757 55.934836 
L 40.054818 54.181041 
L 38.714285 52.596629 
L 41.662773 52.49537 
L 42.440604 50.249641 
L 41.541995 49.022757 
L 42.909525 47.775623 
L 42.564798 47.164761 
L 42.789879 44.20986 
L 42.095316 43.075763 
L 42.854959 42.730747 
L 43.72231 41.282941 
L 45.512434 40.261153 
L 46.145899 39.126322 
L 44.300356 38.494838 
L 44.395563 37.009098 
L 43.926647 36.332875 
L 40.979577 36.153558 
L 40.576595 36.926252 
L 39.344339 37.447086 
L 37.808284 36.782284 
L 36.848285 37.076668 
L 36.79599 36.678261 
L 35.292046 37.413212 
L 35.013543 36.743622 
L 35.7567 35.77283 
L 35.157629 35.568839 
L 35.056736 34.969754 
L 32.832084 35.700843 
L 31.433185 36.824716 
L 31.354867 35.215892 
L 31.734164 35.134421 
L 32.855039 33.588507 
L 31.508824 34.237376 
L 32.676021 32.919637 
L 31.640398 33.187828 
L 31.095739 32.720455 
L 31.734164 32.773518 
L 32.259806 31.159179 
L 30.63521 32.19452 
L 30.6144 31.021753 
L 31.397829 30.142393 
L 30.228839 30.666875 
L 30.040423 29.526578 
L 29.278475 29.69909 
z
" clip-path="url(#p13c9fb64b4)" style="fill: #eeeeee; stroke: #000000; stroke-width: 0.3"/>
    <path d="M 93.20303 53.332804 
L 95.746435 51.222977 
L 97.760392 50.537576 
L 97.306578 50.931301 
L 97.910769 51.077428 
L 97.524086 51.82023 
L 99.382299 52.098567 
L 99.269517 52.739891 
L 98.162737 54.688807 
L 97.107872 55.523227 
L 96.547094 54.852326 
L 95.600089 54.76187 
L 95.022752 53.459792 
L 93.983549 54.089808 
z
" clip-path="url(#p13c9fb64b4)" style="fill: #eeeeee; stroke: #000000; stroke-width: 0.3"/>
    <path d="M 101.190385 50.185891 
L 102.850777 49.749257 
L 104.126731 51.261532 
L 103.637566 51.622787 
L 101.341652 50.770682 
z
" clip-path="url(#p13c9fb64b4)" style="fill: #eeeeee; stroke: #000000; stroke-width: 0.3"/>
    <path d="M 86.966033 58.259308 
L 87.736703 56.887352 
L 89.107093 56.789934 
L 89.201073 57.232368 
L 87.991459 58.635519 
z
" clip-path="url(#p13c9fb64b4)" style="fill: #eeeeee; stroke: #000000; stroke-width: 0.3"/>
    <path d="M 76.125797 66.17326 
L 76.204791 66.685857 
L 76.279974 66.951432 
L 76.167642 66.818937 
z
" clip-path="url(#p13c9fb64b4)" style="fill: #eeeeee; stroke: #000000; stroke-width: 0.3"/>
    <path d="M 96.29842 56.357654 
L 96.666707 56.118264 
L 96.565363 56.613461 
z
" clip-path="url(#p13c9fb64b4)" style="fill: #eeeeee; stroke: #000000; stroke-width: 0.3"/>
    <path d="M 90.985379 32.849224 
L 91.035396 32.631609 
L 91.271273 32.90151 
z
" clip-path="url(#p13c9fb64b4)" style="fill: #eeeeee; stroke: #000000; stroke-width: 0.3"/>
    <path d="M 87.880618 59.99088 
L 88.146659 59.187084 
L 88.971933 59.912494 
z
" clip-path="url(#p13c9fb64b4)" style="fill: #eeeeee; stroke: #000000; stroke-width: 0.3"/>
    <path d="M 66.903734 84.668036 
L 66.914843 84.616221 
L 66.930747 84.64418 
z
" clip-path="url(#p13c9fb64b4)" style="fill: #eeeeee; stroke: #000000; stroke-width: 0.3"/>
    <path d="M 63.976083 83.902397 
L 64.205635 83.889771 
L 64.255757 83.968634 
z
" clip-path="url(#p13c9fb64b4)" style="fill: #eeeeee; stroke: #000000; stroke-width: 0.3"/>
    <path d="M 58.820133 84.393333 
L 58.827585 84.389471 
L 58.828327 84.393575 
z
" clip-path="url(#p13c9fb64b4)" style="fill: #eeeeee; stroke: #000000; stroke-width: 0.3"/>
    <path d="M 58.813396 84.411374 
L 58.814518 84.403408 
L 58.816564 84.40655 
z
" clip-path="url(#p13c9fb64b4)" style="fill: #eeeeee; stroke: #000000; stroke-width: 0.3"/>
    <path d="M 56.617182 84.711515 
L 56.634692 84.711885 
L 56.644597 84.714472 
z
" clip-path="url(#p13c9fb64b4)" style="fill: #eeeeee; stroke: #000000; stroke-width: 0.3"/>
    <path d="M 50.584434 79.354399 
L 51.22121 79.44571 
L 50.696942 79.659484 
z
" clip-path="url(#p13c9fb64b4)" style="fill: #eeeeee; stroke: #000000; stroke-width: 0.3"/>
    <path d="M 50.463551 79.427327 
L 50.490333 79.432585 
L 50.479785 79.451517 
z
" clip-path="url(#p13c9fb64b4)" style="fill: #eeeeee; stroke: #000000; stroke-width: 0.3"/>
    <path d="M 121.437938 94.100213 
L 121.616978 92.390053 
L 122.97996 91.323525 
L 123.344293 90.114504 
L 125.571221 88.45239 
L 125.923048 85.459562 
L 126.642623 84.219425 
L 125.889513 83.625499 
L 126.124256 82.108835 
L 125.598504 80.043897 
L 126.237935 75.74981 
L 125.205178 75.069718 
L 126.637509 74.095064 
L 126.542588 73.230867 
L 127.799849 72.857136 
L 127.584188 72.122128 
L 128.804416 71.83735 
L 130.928918 70.024991 
L 133.865269 69.231449 
L 134.493619 69.34829 
L 134.01475 70.171117 
L 134.257319 70.609197 
L 134.798398 70.420746 
L 134.277458 70.069346 
L 134.623412 69.813048 
L 136.766259 70.419008 
L 135.974103 70.560496 
L 136.518317 70.852742 
L 136.272618 71.498419 
L 137.178899 72.544198 
L 136.306181 73.133342 
L 137.223654 73.606508 
L 138.122241 73.431153 
L 138.486629 72.573483 
L 141.049722 71.118902 
L 141.486977 72.731145 
L 139.668773 75.596629 
L 138.299405 76.128387 
L 137.880166 78.014963 
L 138.690707 79.938014 
L 140.994518 81.397761 
L 141.00131 83.558841 
L 141.644344 84.383086 
L 138.552902 89.18588 
L 135.966497 90.746928 
L 135.298309 91.851277 
L 135.661718 93.450246 
L 137.085804 95.184611 
L 137.96031 95.581528 
L 139.210757 95.155326 
L 138.97669 96.3049 
L 139.328907 96.78648 
L 140.270989 96.347524 
L 140.418237 95.658646 
L 141.004522 95.789987 
L 141.330402 97.598285 
L 142.384305 98.14886 
L 141.503981 97.973455 
L 141.756395 98.688426 
L 143.15095 98.813383 
L 142.704301 98.348042 
L 143.546888 98.901196 
L 143.243395 102.772166 
L 143.773696 104.223469 
L 140.071816 106.343821 
L 139.519914 107.285705 
L 138.601974 107.648399 
L 138.013132 109.139655 
L 136.721197 109.594401 
L 135.853841 111.385014 
L 136.666065 115.570481 
L 134.561906 119.037936 
L 132.628268 119.937482 
L 130.017682 106.805928 
L 126.092426 103.558297 
L 125.826423 101.358412 
L 124.748202 99.520666 
L 122.758288 98.543618 
L 122.58323 96.956805 
z
" clip-path="url(#p13c9fb64b4)" style="fill: #eeeeee; stroke: #000000; stroke-width: 0.3"/>
    <path d="M 139.31727 93.888326 
L 141.10074 94.487033 
L 140.151937 95.631256 
L 139.81315 94.992384 
L 139.340043 95.094461 
z
" clip-path="url(#p13c9fb64b4)" style="fill: #eeeeee; stroke: #000000; stroke-width: 0.3"/>
    <path d="M 141.488082 88.340971 
L 142.167396 87.182882 
L 142.40258 87.874959 
z
" clip-path="url(#p13c9fb64b4)" style="fill: #eeeeee; stroke: #000000; stroke-width: 0.3"/>
    <path d="M 140.698401 88.280484 
L 141.378621 88.36794 
L 141.075415 88.642579 
z
" clip-path="url(#p13c9fb64b4)" style="fill: #eeeeee; stroke: #000000; stroke-width: 0.3"/>
    <path d="M 132.636226 -1.434829 
L 133.342157 -2.481656 
L 132.78101 -3.371112 
L 134.071394 -3.754933 
L 135.394021 -3.039128 
L 135.72539 -2.120807 
L 136.42052 -2.216358 
L 136.148837 -1.494112 
L 137.624926 -2.384267 
L 137.630041 -3.673747 
L 139.991673 -3.343459 
L 140.656115 -2.345049 
L 142.072525 -2.369353 
L 144.181226 -3.763768 
L 147.223217 -3.873684 
L 147.239699 -4.591512 
L 147.600622 -4.778196 
L 147.581297 -4.399676 
L 148.999411 -4.043431 
L 150.459024 -4.31388 
L 150.552234 -3.5156 
L 151.778242 -2.882827 
L 152.164171 -4.261224 
L 151.174051 -4.717809 
L 151.719695 -5.598201 
L 150.365808 -7.547153 
L 153.998346 -9.370905 
L 154.267758 -10.773614 
L 155.708326 -10.404849 
L 156.253976 -12.148698 
L 157.678909 -10.903773 
L 159.056674 -10.668116 
L 159.787045 -11.270514 
L 160.982926 -10.793494 
L 161.66896 -12.2205 
L 162.434576 -12.122926 
L 162.668182 -13.869354 
L 167.26811 -12.903165 
L 168.735675 -11.980797 
L 170.236776 -11.869591 
L 171.123451 -12.427805 
L 173.067324 -11.810679 
L 173.463487 -10.992512 
L 172.910446 -9.292662 
L 174.581497 -6.726406 
L 173.788031 -5.713454 
L 174.180219 -4.610472 
L 172.651835 -4.375187 
L 171.388888 -4.936158 
L 170.509031 -4.274484 
L 171.73219 -3.994273 
L 172.056168 -3.39593 
L 171.790732 -2.789485 
L 170.652831 -2.389974 
L 170.868816 -1.534613 
L 170.536314 -0.895954 
L 171.068319 -0.542281 
L 170.601675 0.266125 
L 170.941002 0.448021 
L 169.778089 0.406972 
L 168.165586 1.66552 
L 168.358243 2.784156 
L 167.445445 2.400834 
L 166.26434 2.450177 
L 165.311165 3.183474 
L 163.107543 2.934743 
L 161.944059 3.279759 
L 160.238912 4.865098 
L 148.495827 2.645697 
L 147.734759 1.377208 
L 146.966305 1.087057 
L 147.261867 -0.169469 
L 144.810429 0.647046 
L 141.728656 0.695277 
L 140.752169 2.082887 
L 137.943789 1.532412 
L 137.323117 0.464409 
L 135.881696 1.527068 
L 134.582936 0.954867 
L 134.488587 0.327431 
L 132.966456 0.032499 
z
" clip-path="url(#p13c9fb64b4)" style="fill: #eeeeee; stroke: #000000; stroke-width: 0.3"/>
    <path d="M 116.586498 13.951282 
L 119.367314 12.841496 
L 119.654919 11.760425 
L 118.676727 11.046459 
L 118.569873 10.122986 
L 117.572361 9.148696 
L 118.892718 8.095606 
L 119.615697 8.442831 
L 121.747138 7.676216 
L 123.411364 8.138686 
L 124.878929 6.658475 
L 124.751045 5.626376 
L 126.465854 4.341129 
L 126.680135 5.885967 
L 128.719494 6.923587 
L 128.493846 7.683576 
L 129.060525 7.940224 
L 129.22024 8.799996 
L 129.78351 8.840503 
L 130.11715 8.283024 
L 129.781805 7.282961 
L 131.006669 5.915793 
L 131.322689 4.019127 
L 132.160485 4.012315 
L 132.720345 5.435275 
L 134.821089 4.918488 
L 135.686168 5.995326 
L 136.143717 5.693019 
L 135.774269 5.219134 
L 136.043682 4.692223 
L 135.414485 4.383289 
L 135.449725 3.76543 
L 136.326172 3.096759 
L 137.711322 3.731556 
L 137.794303 3.119952 
L 137.29981 2.771993 
L 137.765316 1.403721 
L 140.752169 2.082887 
L 141.728656 0.695277 
L 144.810429 0.647046 
L 147.261867 -0.169469 
L 146.966305 1.087057 
L 147.734759 1.377208 
L 148.495827 2.645697 
L 155.622783 3.859691 
L 153.776674 5.494557 
L 154.023352 6.081115 
L 155.273227 6.277746 
L 154.307546 7.517513 
L 155.099873 7.66701 
L 154.880479 8.772015 
L 156.050491 9.391342 
L 156.688218 10.186316 
L 156.430173 10.52249 
L 155.682237 10.461597 
L 156.212131 10.311124 
L 154.925882 9.062101 
L 153.977085 9.875644 
L 153.799409 9.382763 
L 152.424102 9.187928 
L 152.23524 10.11455 
L 148.598479 11.5671 
L 149.467612 10.748919 
L 148.450341 10.846044 
L 147.117996 12.454868 
L 147.536003 13.233048 
L 147.958487 13.04459 
L 148.296835 14.610219 
L 148.296835 14.220841 
L 149.204458 14.901888 
L 148.7135 15.967383 
L 148.506287 15.462902 
L 148.557305 16.090024 
L 147.733373 15.923605 
L 148.296835 20.027573 
L 150.071803 21.880525 
L 155.15324 24.945383 
L 157.681874 31.79761 
L 161.167807 34.814051 
L 161.341006 35.461467 
L 163.676301 36.578856 
L 169.038799 36.635103 
L 169.280026 37.634788 
L 167.716749 38.810163 
L 168.052407 39.915959 
L 174.079958 42.606516 
L 176.383923 44.400029 
L 179.30371 45.678628 
L 182.10356 49.323055 
L 181.405389 51.61844 
L 179.658617 50.945509 
L 178.51245 48.279883 
L 176.581738 48.151157 
L 174.866742 47.319637 
L 175.543432 46.763255 
L 173.634201 46.805009 
L 171.592048 49.713302 
L 171.739736 50.555845 
L 170.959667 51.916778 
L 171.268472 52.731483 
L 174.638493 54.546164 
L 174.713681 57.721772 
L 171.486877 58.880915 
L 171.39871 61.505371 
L 169.198123 63.545327 
L 168.690607 64.994108 
L 166.53075 64.896983 
L 166.247006 62.996199 
L 167.236977 62.42387 
L 167.814315 60.883471 
L 167.367661 59.941487 
L 169.105485 59.357857 
L 169.485447 58.462259 
L 167.025738 51.091058 
L 166.200013 49.76085 
L 165.022153 50.358067 
L 164.203511 50.105873 
L 163.466404 49.10648 
L 162.278167 48.593299 
L 162.7573 47.482358 
L 161.567913 45.542071 
L 159.151611 46.249211 
L 159.874849 45.115869 
L 158.885323 44.338565 
L 157.529693 44.689011 
L 157.384766 43.746756 
L 155.737732 41.391418 
L 154.759397 41.717594 
L 153.339782 41.082641 
L 152.013255 41.568568 
L 151.182608 40.344477 
L 149.762101 40.0012 
L 147.582996 37.943558 
L 146.380443 36.113806 
L 145.31976 35.820976 
L 144.388864 34.073857 
L 142.840352 33.165212 
L 141.355397 33.276545 
L 141.805411 32.642354 
L 141.640483 32.0455 
L 140.45896 30.770385 
L 139.291313 30.33259 
L 139.468543 29.521363 
L 138.016701 29.363059 
L 138.174238 27.180745 
L 137.014202 25.428987 
L 136.653477 22.906588 
L 135.767786 21.632919 
L 134.415747 21.039721 
L 134.347274 21.512309 
L 131.038566 19.293471 
L 130.928918 19.638195 
L 128.463385 18.734773 
L 126.833872 19.645733 
L 124.643135 22.549972 
L 121.533584 23.294228 
L 121.399288 22.771991 
L 122.56561 21.33394 
L 122.376907 20.559223 
L 120.644472 20.932591 
L 118.625005 20.036359 
L 117.867918 18.008615 
L 118.550548 16.945956 
L 119.074595 16.9338 
L 118.798364 15.914221 
L 117.371153 15.345334 
z
M 148.759916 36.749059 
L 148.765437 36.757346 
L 148.765151 36.749436 
z
M 148.444374 22.181343 
L 148.89881 22.404872 
L 148.920109 21.937955 
z
" clip-path="url(#p13c9fb64b4)" style="fill: #eeeeee; stroke: #000000; stroke-width: 0.3"/>
    <path d="M 125.080836 46.0883 
L 125.332353 43.447898 
L 125.976822 44.253909 
L 127.133278 44.422644 
L 128.794121 43.565031 
L 131.038566 41.318354 
L 132.092985 41.901984 
L 132.205768 42.534329 
L 132.847547 42.291077 
L 132.585284 43.073889 
L 133.414139 43.171014 
L 132.543214 43.710574 
L 133.75159 44.294787 
L 133.388181 44.615741 
L 134.17139 47.069423 
L 133.21364 48.44051 
L 133.797241 49.717072 
L 132.885142 56.377078 
L 132.621982 56.695417 
L 129.846753 55.560051 
L 130.209266 55.840126 
L 129.911647 57.473881 
L 128.963295 58.309755 
L 128.211417 57.920669 
L 127.795648 58.407173 
L 127.348103 57.036378 
L 126.320983 55.858096 
L 126.712587 52.046381 
L 127.11359 52.437491 
L 127.382117 52.44503 
L 127.044665 52.299488 
L 127.323933 51.36475 
L 126.44048 50.937393 
L 126.345153 50.074557 
L 126.965451 49.57066 
L 126.359919 46.97549 
L 125.873889 46.07293 
z
" clip-path="url(#p13c9fb64b4)" style="fill: #eeeeee; stroke: #000000; stroke-width: 0.3"/>
    <path d="M 148.616831 66.012056 
L 148.979343 64.413087 
L 150.143405 63.77611 
L 150.292886 63.192188 
L 151.224233 64.365832 
L 152.105448 63.970945 
L 152.322956 63.211327 
L 153.517458 62.993584 
L 153.920248 63.830619 
L 156.116803 64.753756 
L 157.380224 64.213905 
L 160.081611 64.249567 
L 162.255789 63.228428 
L 163.250237 63.652022 
L 164.071041 62.679014 
L 164.371789 63.090716 
L 166.35039 62.604212 
L 163.938564 66.265454 
L 163.270376 68.288887 
L 163.336166 69.341336 
L 164.152493 69.854802 
L 163.77566 70.212865 
L 164.594665 71.608306 
L 163.637811 72.231075 
L 163.283355 74.149836 
L 159.947348 73.16349 
L 158.800736 71.377516 
L 155.704614 70.470032 
L 152.725301 68.22104 
L 149.894572 67.664373 
z
" clip-path="url(#p13c9fb64b4)" style="fill: #eeeeee; stroke: #000000; stroke-width: 0.3"/>
    <path d="M 135.856844 30.667744 
L 136.000957 30.279242 
L 137.707896 30.040337 
L 137.554836 31.013345 
z
" clip-path="url(#p13c9fb64b4)" style="fill: #eeeeee; stroke: #000000; stroke-width: 0.3"/>
    <path d="M 132.173541 41.864875 
L 132.381206 41.507682 
L 132.381651 41.912423 
L 132.323918 41.959393 
z
" clip-path="url(#p13c9fb64b4)" style="fill: #eeeeee; stroke: #000000; stroke-width: 0.3"/>
    <path d="M 125.535541 56.209205 
L 125.952652 56.063078 
L 125.952652 56.695417 
L 125.671597 56.677154 
z
" clip-path="url(#p13c9fb64b4)" style="fill: #eeeeee; stroke: #000000; stroke-width: 0.3"/>
    <path d="M 163.795348 58.943832 
L 163.933191 58.791036 
L 163.962734 59.057773 
z
" clip-path="url(#p13c9fb64b4)" style="fill: #eeeeee; stroke: #000000; stroke-width: 0.3"/>
    <path d="M 162.482251 61.741084 
L 162.807169 61.874741 
L 162.694387 61.971582 
z
" clip-path="url(#p13c9fb64b4)" style="fill: #eeeeee; stroke: #000000; stroke-width: 0.3"/>
    <path d="M 162.353355 60.843747 
L 162.653212 61.09193 
L 162.581604 61.33489 
z
" clip-path="url(#p13c9fb64b4)" style="fill: #eeeeee; stroke: #000000; stroke-width: 0.3"/>
    <path d="M 161.632807 60.492931 
L 162.035152 60.425091 
L 162.00606 60.723137 
z
" clip-path="url(#p13c9fb64b4)" style="fill: #eeeeee; stroke: #000000; stroke-width: 0.3"/>
    <path d="M 160.250785 60.384213 
L 160.368935 60.400736 
L 160.300913 60.564256 
z
" clip-path="url(#p13c9fb64b4)" style="fill: #eeeeee; stroke: #000000; stroke-width: 0.3"/>
    <path d="M 159.152508 60.666312 
L 159.231722 60.638188 
L 159.251861 60.724875 
z
" clip-path="url(#p13c9fb64b4)" style="fill: #eeeeee; stroke: #000000; stroke-width: 0.3"/>
    <path d="M 156.437696 45.218509 
L 156.512884 44.882763 
L 157.079476 45.077599 
z
" clip-path="url(#p13c9fb64b4)" style="fill: #eeeeee; stroke: #000000; stroke-width: 0.3"/>
    <path d="M 154.048693 44.715475 
L 154.100608 44.613133 
L 154.143575 44.604433 
z
" clip-path="url(#p13c9fb64b4)" style="fill: #eeeeee; stroke: #000000; stroke-width: 0.3"/>
    <path d="M 152.612073 59.61531 
L 152.789298 59.453244 
L 152.853746 59.518769 
z
" clip-path="url(#p13c9fb64b4)" style="fill: #eeeeee; stroke: #000000; stroke-width: 0.3"/>
    <path d="M 150.920345 79.794788 
L 151.075198 79.768117 
L 151.067142 79.869012 
z
" clip-path="url(#p13c9fb64b4)" style="fill: #eeeeee; stroke: #000000; stroke-width: 0.3"/>
    <path d="M 149.161942 82.260362 
L 149.324401 82.227892 
L 149.62918 82.455774 
z
" clip-path="url(#p13c9fb64b4)" style="fill: #eeeeee; stroke: #000000; stroke-width: 0.3"/>
    <path d="M 148.036359 12.208716 
L 148.408721 11.599286 
L 148.638312 11.726565 
z
" clip-path="url(#p13c9fb64b4)" style="fill: #eeeeee; stroke: #000000; stroke-width: 0.3"/>
    <path d="M 148.031888 11.625671 
L 148.269085 11.484475 
L 148.259686 11.566523 
z
" clip-path="url(#p13c9fb64b4)" style="fill: #eeeeee; stroke: #000000; stroke-width: 0.3"/>
    <path d="M 147.916422 65.141104 
L 147.996532 64.948007 
L 148.296835 65.098488 
z
" clip-path="url(#p13c9fb64b4)" style="fill: #eeeeee; stroke: #000000; stroke-width: 0.3"/>
    <path d="M 146.435938 64.677216 
L 146.563041 64.619807 
L 146.704465 64.920176 
z
" clip-path="url(#p13c9fb64b4)" style="fill: #eeeeee; stroke: #000000; stroke-width: 0.3"/>
    <path d="M 145.855917 73.030994 
L 146.55185 73.184944 
L 146.436835 73.534022 
z
" clip-path="url(#p13c9fb64b4)" style="fill: #eeeeee; stroke: #000000; stroke-width: 0.3"/>
    <path d="M 140.009177 33.454565 
L 140.437787 33.708355 
L 140.347415 33.793375 
z
" clip-path="url(#p13c9fb64b4)" style="fill: #eeeeee; stroke: #000000; stroke-width: 0.3"/>
    <path d="M 136.888886 33.727095 
L 137.007041 33.636347 
L 136.99227 33.75638 
z
" clip-path="url(#p13c9fb64b4)" style="fill: #eeeeee; stroke: #000000; stroke-width: 0.3"/>
    <path d="M 135.546251 31.917928 
L 135.706472 31.690046 
L 135.741377 31.985484 
z
" clip-path="url(#p13c9fb64b4)" style="fill: #eeeeee; stroke: #000000; stroke-width: 0.3"/>
    <path d="M 134.177957 28.883467 
L 134.207907 28.4659 
L 134.401394 28.76126 
z
" clip-path="url(#p13c9fb64b4)" style="fill: #eeeeee; stroke: #000000; stroke-width: 0.3"/>
    <path d="M 131.821769 41.551752 
L 132.048231 41.319808 
L 131.94395 41.689179 
z
" clip-path="url(#p13c9fb64b4)" style="fill: #eeeeee; stroke: #000000; stroke-width: 0.3"/>
    <path d="M 126.17374 56.744125 
L 126.931883 56.943307 
L 126.524616 57.712495 
z
" clip-path="url(#p13c9fb64b4)" style="fill: #eeeeee; stroke: #000000; stroke-width: 0.3"/>
    <path d="M 125.423655 43.219723 
L 126.064538 42.291077 
L 125.625946 43.235092 
z
" clip-path="url(#p13c9fb64b4)" style="fill: #eeeeee; stroke: #000000; stroke-width: 0.3"/>
    <path d="M 113.043767 6.052764 
L 113.765046 5.807538 
L 114.021953 5.002624 
L 113.570091 4.574576 
L 113.923056 3.405685 
L 115.632185 2.141985 
L 115.706075 0.835568 
L 116.931225 0.286012 
L 118.972289 -1.910189 
L 118.037867 -2.085829 
L 118.624438 -3.04723 
L 119.765754 -3.041337 
L 120.080636 -2.532103 
L 122.274596 -3.801696 
L 122.529803 -3.440299 
L 127.35424 -3.76193 
L 127.61058 -4.23858 
L 126.422656 -4.30394 
L 127.340596 -5.270863 
L 129.119639 -4.237475 
L 131.272671 -4.194395 
L 133.346705 -2.783592 
L 132.450361 -1.058704 
L 132.393524 -0.017578 
L 134.488587 0.327431 
L 134.582936 0.954867 
L 135.881696 1.527068 
L 137.353809 0.469746 
L 137.765316 1.403721 
L 137.29981 2.771993 
L 137.794303 3.119952 
L 137.711322 3.731556 
L 136.326172 3.096759 
L 135.449725 3.76543 
L 135.414485 4.383289 
L 136.043682 4.692223 
L 135.918069 5.916157 
L 135.504285 5.992013 
L 134.821089 4.918488 
L 132.720345 5.435275 
L 132.160485 4.012315 
L 131.21754 4.106398 
L 131.006669 5.915793 
L 129.781805 7.282961 
L 130.11715 8.283024 
L 129.78351 8.840503 
L 129.22024 8.799996 
L 129.060525 7.940224 
L 128.493846 7.683576 
L 128.719494 6.923587 
L 126.680135 5.885967 
L 126.465854 4.341129 
L 124.751045 5.626376 
L 124.878929 6.658475 
L 123.342588 8.17256 
L 121.747138 7.676216 
L 119.139395 8.345256 
L 117.530302 6.602505 
L 117.600211 4.611949 
L 116.64675 4.314622 
L 114.93023 4.752239 
L 114.449381 5.315234 
L 114.818262 5.852456 
L 113.045472 6.633436 
z
" clip-path="url(#p13c9fb64b4)" style="fill: #eeeeee; stroke: #000000; stroke-width: 0.3"/>
    <path d="M 132.393524 -0.017578 
L 132.636226 -1.434829 
L 133.156297 -0.323012 
L 132.966456 0.032499 
z
" clip-path="url(#p13c9fb64b4)" style="fill: #eeeeee; stroke: #000000; stroke-width: 0.3"/>
    <path d="M 120.782695 23.789382 
L 121.009377 23.498839 
L 120.994803 23.823306 
z
" clip-path="url(#p13c9fb64b4)" style="fill: #eeeeee; stroke: #000000; stroke-width: 0.3"/>
    <path d="M 32.526865 140.910843 
L 32.546756 130.882589 
L 38.372401 125.919084 
L 39.856387 125.961715 
L 40.970993 125.065354 
L 42.969595 125.513531 
L 45.006634 124.666969 
L 48.619499 124.318383 
L 48.811672 124.965756 
L 49.810971 124.965756 
L 51.809579 121.728899 
L 56.229565 117.944267 
L 60.226776 116.500132 
L 60.149904 115.603771 
L 60.726428 114.757202 
L 59.754417 113.186677 
L 59.141697 113.230491 
L 59.29374 112.040801 
L 60.073039 111.669742 
L 60.149904 109.827222 
L 64.723633 108.781471 
L 64.113772 106.971257 
L 64.430221 106.774263 
L 66.43775 106.375856 
L 73.61899 106.678897 
L 73.699986 106.277178 
L 73.073341 106.124738 
L 73.433131 104.774686 
L 74.599739 103.795058 
L 72.447554 102.028009 
L 71.702687 100.665252 
L 72.028655 99.763505 
L 71.067804 98.496854 
L 71.3807 96.241919 
L 70.668797 95.187732 
L 71.093095 92.502726 
L 70.323223 90.413305 
L 70.909793 89.649269 
L 69.985034 88.815818 
L 70.54375 87.784824 
L 68.21054 85.916146 
L 68.052293 85.305505 
L 70.58988 85.018182 
L 73.154315 83.344126 
L 74.59452 81.078026 
L 75.866443 80.427418 
L 76.830012 80.790411 
L 77.638276 79.599959 
L 79.818272 80.281584 
L 82.157599 77.348936 
L 87.681208 74.933232 
L 93.207506 74.268131 
L 94.577891 74.567338 
L 96.40567 73.055056 
L 97.544225 73.531991 
L 98.023552 73.028386 
L 99.415862 73.278307 
L 101.5793 72.280945 
L 106.601662 72.436341 
L 109.446267 74.234785 
L 111.807519 72.885737 
L 114.355395 72.387055 
L 115.558399 71.02873 
L 118.488481 72.474619 
L 120.05221 71.927229 
L 119.995818 71.051346 
L 123.163102 71.73674 
L 123.024808 72.475196 
L 123.767288 72.763095 
L 125.552996 71.989853 
L 127.584188 72.122128 
L 127.799849 72.857136 
L 126.542588 73.230867 
L 126.637509 74.095064 
L 125.205178 75.069718 
L 126.237935 75.74981 
L 125.598504 80.043897 
L 126.124256 82.108835 
L 125.889513 83.625499 
L 126.642623 84.219425 
L 125.923048 85.459562 
L 125.571221 88.45239 
L 123.344293 90.114504 
L 122.97996 91.323525 
L 121.616978 92.390053 
L 121.410083 93.823137 
L 122.758288 98.543618 
L 124.748202 99.520666 
L 125.826423 101.358412 
L 126.092426 103.558297 
L 130.017682 106.805928 
L 132.628268 119.937482 
L 131.345996 120.733924 
L 133.442191 124.35934 
L 134.313523 127.778007 
L 134.042973 133.912604 
L 134.908052 137.049037 
L 133.737182 140.864821 
L 134.756295 143.960012 
L 134.699458 145.418498 
L 134.366384 146.477109 
L 132.424217 147.55781 
L 131.847875 148.866072 
L 135.313311 154.833688 
L 135.445744 158.218844 
L 136.332991 158.976995 
L 136.601837 160.080154 
L 137.527162 160.948213 
L 139.114088 160.357971 
L 143.746413 162.200691 
L 146.09725 167.75959 
L 121.425998 186.604505 
L 112.140604 196.742305 
L 98.605123 200.121391 
L 97.346152 198.981585 
L 98.207821 197.180292 
L 97.866795 194.100748 
L 93.476033 192.41894 
L 92.378482 190.87024 
L 91.665732 191.302342 
L 90.053795 190.653737 
L 88.852804 188.564494 
L 86.624737 187.557805 
L 86.580406 184.971848 
L 53.758967 157.230374 
z
" clip-path="url(#p13c9fb64b4)" style="fill: #eeeeee; stroke: #000000; stroke-width: 0.3"/>
    <path d="M 88.009888 32.293405 
L 88.761293 31.437495 
L 89.745166 31.718996 
L 89.662746 32.481935 
L 88.570886 33.009951 
z
" clip-path="url(#p13c9fb64b4)" style="fill: #eeeeee; stroke: #000000; stroke-width: 0.3"/>
    <path d="M 28.044367 58.795967 
L 28.850624 56.034548 
L 28.529286 54.767086 
L 29.58348 54.546164 
L 30.282822 53.312911 
L 31.505244 49.425695 
L 31.962633 49.469181 
L 31.283704 48.88526 
L 32.138522 45.749076 
L 33.13028 44.931472 
L 32.603522 44.989173 
L 32.519606 44.73519 
L 32.729277 44.44613 
L 32.676021 44.294787 
L 32.150604 45.661228 
L 32.71406 42.101173 
L 32.225567 41.410841 
L 31.712254 38.404482 
L 32.451132 38.045329 
L 31.438409 37.939368 
L 31.508824 37.06826 
L 32.832084 35.700843 
L 35.056736 34.969754 
L 35.157629 35.568839 
L 35.7567 35.77283 
L 35.0053 36.87636 
L 35.76551 37.441563 
L 36.79599 36.678261 
L 36.848285 37.076668 
L 37.808284 36.782284 
L 39.344339 37.447086 
L 40.576595 36.926252 
L 40.900572 36.166078 
L 43.926647 36.332875 
L 44.395563 37.009098 
L 44.300356 38.494838 
L 46.145899 39.126322 
L 45.512434 40.261153 
L 43.72231 41.282941 
L 42.854959 42.730747 
L 42.095316 43.075763 
L 42.789879 44.20986 
L 42.564798 47.164761 
L 42.909525 47.775623 
L 41.541995 49.022757 
L 42.440604 50.249641 
L 41.662773 52.49537 
L 38.714285 52.596629 
L 40.054818 54.181041 
L 40.436485 56.046405 
L 41.857729 56.964726 
L 41.202382 58.671758 
L 40.291833 59.310794 
L 39.803593 61.385302 
L 41.209773 63.328909 
L 42.067747 63.164684 
L 41.647144 64.405007 
L 40.279328 64.729587 
L 38.866042 67.64988 
L 39.537348 70.516426 
L 37.271874 71.700208 
L 33.089106 70.807802 
L 30.791851 71.538142 
L 32.142993 66.484067 
L 31.832175 66.540314 
L 31.853568 65.264971 
L 31.358447 64.903944 
L 32.020855 63.233708 
L 31.907154 62.006168 
L 31.095739 61.135708 
L 31.887895 61.529725 
L 32.942535 61.582495 
L 32.23116 61.346198 
L 32.02663 60.537586 
L 31.943836 61.135708 
L 31.29803 60.91478 
L 29.511871 61.582495 
L 29.769399 60.635894 
L 29.390587 59.823983 
L 30.187665 59.871031 
L 31.095739 59.039511 
L 30.716668 58.057511 
L 32.071835 56.744125 
L 31.132882 57.15032 
L 30.228839 58.650133 
L 30.161455 59.476993 
L 28.186241 59.560516 
z
" clip-path="url(#p13c9fb64b4)" style="fill: #eeeeee; stroke: #000000; stroke-width: 0.3"/>
    <path d="M 36.523124 71.829811 
L 37.048992 71.688031 
L 37.086586 71.785449 
L 36.808216 71.934183 
z
" clip-path="url(#p13c9fb64b4)" style="fill: #eeeeee; stroke: #000000; stroke-width: 0.3"/>
    <path d="M 30.342068 58.722034 
L 30.442542 58.493283 
L 30.552416 58.515022 
z
" clip-path="url(#p13c9fb64b4)" style="fill: #eeeeee; stroke: #000000; stroke-width: 0.3"/>
    <path d="M 50.851757 77.966489 
L 50.914874 77.810936 
L 50.896962 78.029114 
z
" clip-path="url(#p13c9fb64b4)" style="fill: #eeeeee; stroke: #000000; stroke-width: 0.3"/>
   </g>
   <g id="PatchCollection_2">
    <path d="M 29.242899 28.547193 
L 30.187665 27.933409 
L 29.58348 27.832222 
L 31.151234 27.262509 
L 30.846009 26.922423 
L 31.715141 26.507821 
L 32.467911 26.848491 
L 34.460833 26.048571 
L 35.123653 26.707295 
L 35.314979 25.972608 
L 34.601365 25.725003 
L 35.352573 25.433334 
L 34.447634 25.57946 
L 34.560191 24.898121 
L 36.782478 23.478625 
L 37.058391 24.177934 
L 38.008981 23.285528 
L 37.975863 23.757247 
L 39.760449 24.093278 
L 40.28833 24.940745 
L 41.535417 24.953207 
L 41.53385 25.524666 
L 42.087242 24.906244 
L 46.898135 24.879859 
L 48.091294 24.215335 
L 49.052174 24.940745 
L 50.611871 24.982784 
L 50.501552 25.329831 
L 55.628415 26.205714 
L 59.230265 25.397672 
L 59.546907 25.524666 
L 59.315749 25.907376 
L 60.590361 25.246329 
L 61.403772 25.612515 
L 61.241088 26.000148 
L 63.731907 26.652494 
L 64.07003 25.869683 
L 65.049261 25.714856 
L 65.475996 26.320232 
L 68.573459 26.891107 
L 70.408745 26.188591 
L 70.665673 26.865591 
L 72.556685 27.205264 
L 72.261694 28.617912 
L 73.202649 28.161142 
L 73.951212 28.898309 
L 76.097425 29.320278 
L 77.145812 30.559126 
L 78.499984 30.061307 
L 80.061051 31.182508 
L 81.205491 30.888124 
L 81.789642 31.299784 
L 83.886839 31.162257 
L 83.884562 30.090392 
L 84.745665 30.138816 
L 87.658627 31.014977 
L 88.237812 32.96742 
L 89.662746 32.481935 
L 91.3247 33.591357 
L 92.799657 33.010314 
L 94.10523 33.743975 
L 96.408893 32.713907 
L 97.768729 32.98995 
L 97.803805 33.574014 
L 98.520773 33.763049 
L 97.426972 34.508752 
L 98.0504 36.448968 
L 96.404982 38.113212 
L 92.744299 39.993084 
L 91.99197 41.026109 
L 85.870439 42.820775 
L 84.202881 44.506438 
L 84.994146 45.42523 
L 83.998802 46.288059 
L 83.533356 46.167448 
L 84.304477 45.799531 
L 83.374026 46.110916 
L 78.496893 53.762192 
L 79.406083 57.425173 
L 81.565044 59.276963 
L 77.471346 62.154817 
L 77.503342 63.089263 
L 76.845229 63.408478 
L 76.091557 66.018433 
L 75.567037 66.400565 
L 76.396336 67.276733 
L 72.995353 67.686746 
L 71.086205 69.10243 
L 70.30613 70.215765 
L 69.824352 72.110172 
L 68.579503 73.569392 
L 67.28721 72.854136 
L 66.192293 72.982285 
L 65.32629 73.956739 
L 64.143871 73.460673 
L 56.060072 73.658694 
L 54.651873 75.199385 
L 51.751994 75.886524 
L 50.914874 77.810936 
L 50.438226 77.535648 
L 50.365722 78.368907 
L 49.41357 78.770463 
L 47.076262 77.466062 
L 45.573626 75.010641 
L 46.005509 75.448437 
L 46.292162 75.157345 
L 45.107955 74.278278 
L 44.895369 73.463858 
L 45.377824 73.151897 
L 45.418548 72.519558 
L 46.050709 72.387055 
L 46.207124 72.174827 
L 45.382746 72.394594 
L 45.144653 73.057956 
L 44.531069 71.978545 
L 42.368077 70.504248 
L 42.589166 69.587488 
L 41.98498 70.024991 
L 42.1725 70.463078 
L 39.499979 70.317244 
L 38.950447 67.405936 
L 40.279328 64.729587 
L 41.647144 64.405007 
L 42.067747 63.164684 
L 41.209773 63.328909 
L 39.803593 61.385302 
L 40.291833 59.310794 
L 41.470661 58.472555 
L 41.925933 57.341037 
L 40.359757 55.934836 
L 40.054818 54.181041 
L 38.714285 52.596629 
L 41.662773 52.49537 
L 42.440604 50.249641 
L 41.541995 49.022757 
L 42.909525 47.775623 
L 42.564798 47.164761 
L 42.789879 44.20986 
L 42.095316 43.075763 
L 42.854959 42.730747 
L 43.72231 41.282941 
L 45.512434 40.261153 
L 46.145899 39.126322 
L 44.300356 38.494838 
L 44.395563 37.009098 
L 43.926647 36.332875 
L 40.979577 36.153558 
L 40.576595 36.926252 
L 39.344339 37.447086 
L 37.808284 36.782284 
L 36.848285 37.076668 
L 36.79599 36.678261 
L 35.292046 37.413212 
L 35.013543 36.743622 
L 35.7567 35.77283 
L 35.157629 35.568839 
L 35.056736 34.969754 
L 32.832084 35.700843 
L 31.433185 36.824716 
L 31.354867 35.215892 
L 31.734164 35.134421 
L 32.855039 33.588507 
L 31.508824 34.237376 
L 32.676021 32.919637 
L 31.640398 33.187828 
L 31.095739 32.720455 
L 31.734164 32.773518 
L 32.259806 31.159179 
L 30.63521 32.19452 
L 30.6144 31.021753 
L 31.397829 30.142393 
L 30.228839 30.666875 
L 30.040423 29.526578 
L 29.278475 29.69909 
z
" clip-path="url(#p13c9fb64b4)" style="fill: #ff6b6b; stroke: #dd0000; stroke-width: 0.5"/>
    <path d="M 93.20303 53.332804 
L 95.746435 51.222977 
L 97.760392 50.537576 
L 97.306578 50.931301 
L 97.910769 51.077428 
L 97.524086 51.82023 
L 99.382299 52.098567 
L 99.269517 52.739891 
L 98.162737 54.688807 
L 97.107872 55.523227 
L 96.547094 54.852326 
L 95.600089 54.76187 
L 95.022752 53.459792 
L 93.983549 54.089808 
z
" clip-path="url(#p13c9fb64b4)" style="fill: #ff6b6b; stroke: #dd0000; stroke-width: 0.5"/>
    <path d="M 101.190385 50.185891 
L 102.850777 49.749257 
L 104.126731 51.261532 
L 103.637566 51.622787 
L 101.341652 50.770682 
z
" clip-path="url(#p13c9fb64b4)" style="fill: #ff6b6b; stroke: #dd0000; stroke-width: 0.5"/>
    <path d="M 86.966033 58.259308 
L 87.736703 56.887352 
L 89.107093 56.789934 
L 89.201073 57.232368 
L 87.991459 58.635519 
z
" clip-path="url(#p13c9fb64b4)" style="fill: #ff6b6b; stroke: #dd0000; stroke-width: 0.5"/>
    <path d="M 76.125797 66.17326 
L 76.204791 66.685857 
L 76.279974 66.951432 
L 76.167642 66.818937 
z
" clip-path="url(#p13c9fb64b4)" style="fill: #ff6b6b; stroke: #dd0000; stroke-width: 0.5"/>
    <path d="M 96.29842 56.357654 
L 96.666707 56.118264 
L 96.565363 56.613461 
z
" clip-path="url(#p13c9fb64b4)" style="fill: #ff6b6b; stroke: #dd0000; stroke-width: 0.5"/>
    <path d="M 90.985379 32.849224 
L 91.035396 32.631609 
L 91.271273 32.90151 
z
" clip-path="url(#p13c9fb64b4)" style="fill: #ff6b6b; stroke: #dd0000; stroke-width: 0.5"/>
    <path d="M 87.880618 59.99088 
L 88.146659 59.187084 
L 88.971933 59.912494 
z
" clip-path="url(#p13c9fb64b4)" style="fill: #ff6b6b; stroke: #dd0000; stroke-width: 0.5"/>
    <path d="M 66.903734 84.668036 
L 66.914843 84.616221 
L 66.930747 84.64418 
z
" clip-path="url(#p13c9fb64b4)" style="fill: #ff6b6b; stroke: #dd0000; stroke-width: 0.5"/>
    <path d="M 63.976083 83.902397 
L 64.205635 83.889771 
L 64.255757 83.968634 
z
" clip-path="url(#p13c9fb64b4)" style="fill: #ff6b6b; stroke: #dd0000; stroke-width: 0.5"/>
    <path d="M 58.820133 84.393333 
L 58.827585 84.389471 
L 58.828327 84.393575 
z
" clip-path="url(#p13c9fb64b4)" style="fill: #ff6b6b; stroke: #dd0000; stroke-width: 0.5"/>
    <path d="M 58.813396 84.411374 
L 58.814518 84.403408 
L 58.816564 84.40655 
z
" clip-path="url(#p13c9fb64b4)" style="fill: #ff6b6b; stroke: #dd0000; stroke-width: 0.5"/>
    <path d="M 56.617182 84.711515 
L 56.634692 84.711885 
L 56.644597 84.714472 
z
" clip-path="url(#p13c9fb64b4)" style="fill: #ff6b6b; stroke: #dd0000; stroke-width: 0.5"/>
    <path d="M 50.584434 79.354399 
L 51.22121 79.44571 
L 50.696942 79.659484 
z
" clip-path="url(#p13c9fb64b4)" style="fill: #ff6b6b; stroke: #dd0000; stroke-width: 0.5"/>
    <path d="M 50.463551 79.427327 
L 50.490333 79.432585 
L 50.479785 79.451517 
z
" clip-path="url(#p13c9fb64b4)" style="fill: #ff6b6b; stroke: #dd0000; stroke-width: 0.5"/>
   </g>
  </g>
 </g>
 <defs>
  <clipPath id="p13c9fb64b4">
   <rect x="0" y="0" width="133.36963" height="108"/>
  </clipPath>
 </defs>
</svg>
