<?xml version="1.0" encoding="utf-8" standalone="no"?>
<!DOCTYPE svg PUBLIC "-//W3C//DTD SVG 1.1//EN"
  "http://www.w3.org/Graphics/SVG/1.1/DTD/svg11.dtd">
<svg xmlns:xlink="http://www.w3.org/1999/xlink" width="166.552119pt" height="108pt" viewBox="0 0 166.552119 108" xmlns="http://www.w3.org/2000/svg" version="1.1">
 <metadata>
  <rdf:RDF xmlns:dc="http://purl.org/dc/elements/1.1/" xmlns:cc="http://creativecommons.org/ns#" xmlns:rdf="http://www.w3.org/1999/02/22-rdf-syntax-ns#">
   <cc:Work>
    <dc:type rdf:resource="http://purl.org/dc/dcmitype/StillImage"/>
    <dc:date>2025-09-05T15:49:30.077643</dc:date>
    <dc:format>image/svg+xml</dc:format>
    <dc:creator>
     <cc:Agent>
      <dc:title>Matplotlib v3.10.3, https://matplotlib.org/</dc:title>
     </cc:Agent>
    </dc:creator>
   </cc:Work>
  </rdf:RDF>
 </metadata>
 <defs>
  <style type="text/css">*{stroke-linejoin: round; stroke-linecap: butt}</style>
 </defs>
 <g id="figure_1">
  <g id="patch_1">
   <path d="M 0 108 
L 166.552119 108 
L 166.552119 0 
L 0 0 
z
" style="fill: #ffffff"/>
  </g>
  <g id="axes_1">
   <g id="PatchCollection_1">
    <path d="M 95.540584 88.459556 
L 96.401377 87.436175 
L 96.298899 86.428383 
L 96.621813 85.998024 
L 98.319484 85.974871 
L 98.85099 86.402867 
L 100.38994 85.536836 
L 100.303784 81.430777 
L 101.428358 77.915029 
L 101.223865 76.35166 
L 102.525073 74.894847 
L 103.316637 75.809314 
L 103.687369 75.603523 
L 104.21523 74.806721 
L 104.15329 73.20732 
L 104.72123 71.855293 
L 104.71941 70.621278 
L 105.79745 69.684719 
L 107.42931 66.77913 
L 109.312578 66.584444 
L 109.409134 65.072817 
L 110.529988 62.480868 
L 111.125255 59.444267 
L 112.102187 59.13086 
L 113.47763 59.383428 
L 113.745888 58.725076 
L 114.50694 58.55768 
L 115.652384 60.166765 
L 117.14078 56.627864 
L 117.648605 57.33713 
L 118.629635 57.541385 
L 119.49999 58.741731 
L 121.435636 58.392059 
L 122.068704 57.671683 
L 122.587457 57.895781 
L 122.943162 58.636593 
L 124.295382 58.053017 
L 125.957759 58.698851 
L 126.893241 58.518695 
L 130.104135 60.164639 
L 131.685442 62.405379 
L 133.975881 64.087593 
L 135.010651 65.787286 
L 136.06091 66.441624 
L 136.918059 67.662996 
L 134.331128 71.144367 
L 134.19404 74.382507 
L 134.970572 74.685988 
L 137.958755 73.95522 
L 139.316435 74.370693 
L 138.098122 76.046643 
L 138.93113 77.98579 
L 139.950873 79.291393 
L 140.477598 79.470598 
L 141.499161 81.620854 
L 142.391378 81.968871 
L 143.992273 83.471167 
L 157.187901 88.09689 
L 161.594339 88.09689 
L 154.740791 94.954142 
L 148.208332 102.201939 
L 143.92259 102.007729 
L 141.981479 102.521605 
L 140.17814 103.407954 
L 138.910635 104.987037 
L 135.699287 105.491934 
L 134.522872 106.600374 
L 131.557463 106.631326 
L 129.798076 105.06654 
L 125.764648 106.976038 
L 124.248468 109.097229 
L 119.862072 107.965751 
L 118.06807 108.140233 
L 113.281333 104.674929 
L 108.987848 104.340733 
L 108.54333 104.046464 
L 107.711234 102.463129 
L 107.942599 100.343236 
L 106.466956 99.827824 
L 105.665826 100.086888 
L 105.553331 99.456887 
L 104.833725 98.951281 
L 104.28628 97.851108 
L 103.092556 94.09378 
L 102.304636 93.783088 
L 102.211725 93.156041 
L 101.229329 92.74423 
L 100.791647 91.888715 
L 100.140357 91.509036 
L 100.021032 90.778977 
L 98.740999 89.648683 
L 95.842545 89.004856 
z
" clip-path="url(#p9f8d488327)" style="fill: #eeeeee; stroke: #000000; stroke-width: 0.3"/>
    <path d="M 56.529603 86.074692 
L 57.029227 85.431108 
L 56.70495 84.835717 
L 58.385774 84.026978 
L 58.922515 81.802184 
L 59.417582 81.129892 
L 59.434663 79.765342 
L 60.227368 79.086434 
L 60.670973 77.625602 
L 63.982746 77.018992 
L 64.321824 78.108412 
L 67.496054 81.31158 
L 69.499559 80.734738 
L 73.089611 80.786955 
L 73.750784 81.993981 
L 77.270558 82.025354 
L 77.578992 81.09044 
L 80.087536 80.02677 
L 80.663903 79.328248 
L 80.670733 78.671314 
L 82.422606 77.700501 
L 85.737794 80.197709 
L 87.496502 80.016136 
L 89.701768 77.957672 
L 90.927145 75.939968 
L 93.076851 73.989359 
L 92.715682 72.958886 
L 92.713858 71.150274 
L 91.541087 69.793995 
L 94.469146 69.780645 
L 94.403561 68.804867 
L 96.507495 68.831329 
L 95.952307 71.625759 
L 96.202572 75.558278 
L 97.265809 75.984623 
L 99.626385 78.139245 
L 99.874377 79.600782 
L 99.469714 81.22676 
L 100.303784 81.430777 
L 100.485129 85.216575 
L 99.863449 86.044924 
L 98.898812 86.395067 
L 98.319484 85.974871 
L 96.621813 85.998024 
L 96.298899 86.428383 
L 96.401377 87.436175 
L 95.540584 88.459556 
L 95.842545 89.004856 
L 98.740999 89.648683 
L 100.021032 90.778977 
L 100.140357 91.509036 
L 100.791647 91.888715 
L 101.229329 92.74423 
L 102.211725 93.156041 
L 102.304636 93.783088 
L 103.092556 94.09378 
L 104.28628 97.851108 
L 104.833725 98.951281 
L 105.553331 99.456887 
L 105.665826 100.086888 
L 106.466956 99.827824 
L 107.942599 100.343236 
L 107.711234 102.463129 
L 108.456796 103.537663 
L 107.657274 103.255135 
L 107.485249 103.675833 
L 107.089862 103.534544 
L 106.70004 102.800978 
L 106.914453 102.234725 
L 106.144517 102.13361 
L 106.212738 101.658363 
L 105.481788 101.880819 
L 101.672023 103.533886 
L 97.747674 107.513424 
L 96.310286 107.452584 
L 95.573374 106.892635 
L 94.512186 107.425293 
L 92.817243 107.598833 
L 92.006326 108.110465 
L 91.919108 108.599296 
L 90.870444 108.205563 
L 90.200025 107.20852 
L 89.080083 107.941652 
L 87.395619 107.351698 
L 86.527313 107.835568 
L 86.065031 108.700063 
L 85.656953 107.855772 
L 84.804361 108.177445 
L 84.680021 106.974854 
L 83.199826 106.570016 
L 82.058476 104.958092 
L 81.430419 104.683081 
L 81.469585 103.827089 
L 80.316399 103.348532 
L 79.975267 103.308134 
L 78.933891 104.811609 
L 76.88097 103.836421 
L 75.127047 105.075991 
L 73.771187 104.452957 
L 73.613828 103.854499 
L 72.549225 103.645164 
L 72.461779 102.813748 
L 71.412885 102.151848 
L 70.310711 100.607855 
L 70.295679 99.156478 
L 69.690846 98.282528 
L 68.34728 97.706989 
L 68.159638 97.308053 
L 66.610668 96.893998 
L 66.9814 96.285851 
L 65.92932 95.096254 
L 66.40435 94.238374 
L 65.140489 93.428926 
L 64.853559 92.66839 
L 61.918437 91.118961 
L 61.171051 90.36173 
L 61.059922 90.001898 
L 61.56319 89.638048 
L 61.287643 88.702673 
L 60.592635 88.55619 
L 59.451289 87.256965 
L 56.598832 86.627792 
z
" clip-path="url(#p9f8d488327)" style="fill: #eeeeee; stroke: #000000; stroke-width: 0.3"/>
    <path d="M 130.749956 128.638625 
L 130.749956 111.664133 
L 132.349485 110.021618 
L 134.908631 106.046684 
L 135.547167 105.571199 
L 138.910635 104.987037 
L 140.17814 103.407954 
L 143.760903 102.047775 
L 148.208332 102.201939 
L 154.930491 94.764147 
L 161.594339 88.09689 
L 165.824522 81.446134 
L 165.824527 73.22612 
L 171.681961 71.670853 
L 173.324795 70.001555 
L 174.015502 69.842879 
L 176.19609 70.556164 
L 175.264561 72.803812 
L 175.285004 73.505727 
L 175.741344 73.732809 
L 175.413389 74.395532 
L 175.614215 76.201012 
L 174.950772 76.952784 
L 175.877441 76.916135 
L 175.682352 76.363977 
L 176.647667 76.747062 
L 176.657962 77.127591 
L 175.303296 77.074921 
L 174.586281 77.438255 
L 174.158583 81.590656 
L 172.437213 84.020467 
L 170.90089 87.344926 
L 169.724978 88.383382 
L 169.372097 89.960033 
L 167.182731 93.519086 
L 166.252114 96.565795 
L 161.459177 104.279394 
L 153.08256 113.43273 
L 146.483257 117.529238 
L 142.556383 120.977224 
L 135.122215 129.228287 
L 135.037942 128.746826 
L 134.741004 130.187857 
L 134.492841 130.001451 
L 134.525834 130.428587 
L 133.19715 132.412847 
L 133.143326 131.848056 
z
" clip-path="url(#p9f8d488327)" style="fill: #eeeeee; stroke: #000000; stroke-width: 0.3"/>
    <path d="M 99.523229 124.155251 
L 100.367624 123.070796 
L 100.651368 121.897498 
L 101.702081 120.927394 
L 102.138398 119.708266 
L 103.508381 119.024983 
L 103.425033 118.308863 
L 104.278537 117.094106 
L 104.427471 115.893403 
L 103.806698 113.924487 
L 104.062203 113.330985 
L 103.850875 112.81026 
L 101.904754 110.109035 
L 101.672477 108.761022 
L 101.929806 107.888375 
L 100.664121 107.395054 
L 100.895486 106.942841 
L 100.365804 106.93008 
L 99.891229 105.364823 
L 101.672023 103.533886 
L 106.212738 101.658363 
L 106.144517 102.13361 
L 106.914453 102.234725 
L 106.70004 102.800978 
L 107.089862 103.534544 
L 107.657274 103.255135 
L 108.456796 103.537663 
L 108.987848 104.340733 
L 113.281333 104.674929 
L 118.06807 108.140233 
L 119.862072 107.965751 
L 124.248468 109.097229 
L 125.764648 106.976038 
L 129.798076 105.06654 
L 131.557463 106.631326 
L 134.739206 106.473381 
L 132.349485 110.021618 
L 130.686649 111.791006 
L 130.749956 128.638625 
L 133.143326 131.848056 
L 133.19715 132.412847 
L 132.085073 133.657427 
L 131.804278 133.446835 
L 130.896254 133.995267 
L 130.86613 133.352327 
L 130.598242 134.135911 
L 130.226712 133.634357 
L 130.747788 134.908331 
L 130.596091 135.215662 
L 130.23568 134.859218 
L 129.842989 135.077994 
L 130.032341 135.620477 
L 129.299325 136.267138 
L 128.595715 136.217651 
L 127.455308 136.86022 
L 127.149046 138.072801 
L 127.458895 138.290461 
L 126.974043 139.595689 
L 126.384474 140.079756 
L 126.282983 139.842002 
L 125.84188 141.191876 
L 125.467125 140.963797 
L 125.846543 141.550555 
L 125.491155 142.566681 
L 125.038934 142.566681 
L 125.310052 142.802204 
L 125.10815 143.166832 
L 124.936368 142.811874 
L 124.495984 143.127393 
L 124.960036 143.45779 
L 123.771574 145.821193 
L 123.349839 145.665667 
L 122.865705 146.042945 
L 116.609732 141.370029 
L 116.333731 140.783618 
L 115.852325 140.720771 
L 115.791297 140.261471 
L 116.297297 139.810675 
L 116.054091 138.583514 
L 99.570138 129.241102 
L 99.787389 125.36304 
z
" clip-path="url(#p9f8d488327)" style="fill: #eeeeee; stroke: #000000; stroke-width: 0.3"/>
    <path d="M 130.703677 134.349109 
L 131.076999 134.028007 
L 131.523478 134.313758 
L 130.811262 134.702947 
z
" clip-path="url(#p9f8d488327)" style="fill: #eeeeee; stroke: #000000; stroke-width: 0.3"/>
    <path d="M 138.10404 76.14351 
L 140.898487 72.08404 
L 141.80938 72.623542 
L 141.803642 73.27281 
L 143.308405 75.265994 
L 145.590876 77.042012 
L 146.642295 77.183406 
L 148.298599 77.036123 
L 151.856085 74.922389 
L 154.845891 75.768294 
L 159.068265 73.520979 
L 160.410217 73.902166 
L 162.260691 73.740317 
L 163.986361 72.905389 
L 165.824527 73.22612 
L 165.824522 81.446134 
L 161.594339 88.09689 
L 157.187901 88.09689 
L 144.16443 83.575359 
L 142.391378 81.968871 
L 141.499161 81.620854 
L 140.477598 79.470598 
L 139.950873 79.291393 
L 138.93113 77.98579 
z
" clip-path="url(#p9f8d488327)" style="fill: #eeeeee; stroke: #000000; stroke-width: 0.3"/>
    <path d="M -0.859584 142.656691 
L -0.425488 141.561405 
L 0.764592 140.70187 
L 1.6682 141.568021 
L 2.628276 141.315686 
L 2.273488 140.984915 
L 2.799525 139.759642 
L 1.667742 139.155276 
L 2.068078 138.399225 
L 1.444119 137.611046 
L 0.976832 137.764144 
L 1.389467 136.694334 
L 1.13305 135.308871 
L 1.969703 135.699184 
L 2.773111 135.306037 
L 3.31919 135.698713 
L 5.068556 135.309818 
L 5.247089 134.238119 
L 4.926004 133.27132 
L 5.188793 133.457968 
L 5.831428 133.001978 
L 6.590201 133.43151 
L 7.487428 135.065521 
L 7.314813 135.504028 
L 9.473628 135.817791 
L 10.726331 134.245205 
L 11.444567 135.446379 
L 11.178587 135.934506 
L 12.254807 136.080989 
L 12.891065 135.424173 
L 12.510312 134.829253 
L 12.937978 133.686203 
L 13.608847 133.375279 
L 13.83566 132.366898 
L 13.46584 132.027618 
L 13.898966 131.737958 
L 14.007363 131.100984 
L 13.584711 129.336081 
L 14.017384 127.404848 
L 13.270905 126.689437 
L 12.561778 126.738106 
L 12.278493 125.922047 
L 11.114373 125.596474 
L 11.510611 124.899488 
L 11.290628 123.759273 
L 11.616729 123.055201 
L 12.192866 122.190944 
L 13.306886 121.817168 
L 13.920828 120.482034 
L 13.104671 119.490428 
L 12.969403 118.572774 
L 12.494827 118.294804 
L 10.953599 118.099058 
L 9.846184 118.78919 
L 8.113212 118.912049 
L 8.558637 118.541583 
L 8.022579 117.376561 
L 8.166044 115.971255 
L 8.74947 114.776931 
L 13.765976 114.90924 
L 14.335283 114.558621 
L 15.228413 115.214024 
L 15.634671 114.983192 
L 15.790889 115.484075 
L 17.201859 115.332156 
L 17.751583 115.872376 
L 18.392851 115.623704 
L 19.379345 115.824297 
L 20.732473 116.558846 
L 20.979328 117.092689 
L 21.372376 116.725766 
L 20.957467 115.609531 
L 21.049465 114.831274 
L 21.58689 114.493411 
L 22.782892 111.689649 
L 22.722771 110.225749 
L 23.308934 108.647613 
L 25.947331 108.281641 
L 27.100517 107.703025 
L 28.573428 108.118027 
L 28.789313 108.471714 
L 29.846402 108.365158 
L 30.284993 108.758658 
L 30.580124 108.312827 
L 31.565252 108.051518 
L 32.245233 108.761022 
L 32.186483 110.355224 
L 29.804045 114.781658 
L 29.799489 117.564036 
L 28.897251 120.009264 
L 29.244755 122.932342 
L 28.235033 125.552528 
L 28.38123 127.050448 
L 26.435567 129.297809 
L 25.177624 129.672997 
L 24.34325 130.459288 
L 22.936378 133.28644 
L 21.529052 134.633626 
L 21.665682 139.805476 
L 20.284316 142.567893 
L 18.616928 143.210536 
L 18.287187 143.923112 
L 17.1636 144.49535 
L 15.520811 146.671826 
L 14.822612 147.059775 
L 14.149007 146.791846 
L 13.623878 146.997399 
L 13.403899 145.501367 
L 13.928117 144.90834 
L 13.563757 144.212301 
L 11.613538 145.222575 
L 10.601996 145.01655 
L 10.591063 146.080216 
L 9.181688 146.993147 
L 7.946519 145.583115 
L 7.571231 145.744246 
L 6.878042 144.828956 
L 6.401193 144.733977 
L 5.793627 145.502309 
L 4.750198 145.713531 
L 4.463268 146.503132 
L 3.891683 146.436033 
L 3.087027 147.607155 
L 2.252406 146.533504 
L 2.191589 145.583979 
z
" clip-path="url(#p9f8d488327)" style="fill: #eeeeee; stroke: #000000; stroke-width: 0.3"/>
    <path d="M 4.143183 151.306643 
L 4.185902 150.88562 
L 5.287627 150.837893 
L 5.38327 148.261182 
L 5.002971 147.769279 
L 6.036379 147.171291 
L 6.582912 146.327823 
L 7.739289 145.980985 
L 7.839035 145.594929 
L 9.181688 146.993147 
L 10.591063 146.080216 
L 10.601996 145.01655 
L 11.613538 145.222575 
L 13.563757 144.212301 
L 13.928117 144.90834 
L 13.403899 145.501367 
L 13.623878 146.997399 
L 14.149007 146.791846 
L 14.822612 147.059775 
L 15.520811 146.671826 
L 17.1636 144.49535 
L 18.287187 143.923112 
L 18.616928 143.210536 
L 20.284316 142.567893 
L 21.665682 139.805476 
L 21.529052 134.633626 
L 22.936378 133.28644 
L 24.34325 130.459288 
L 25.177624 129.672997 
L 26.435567 129.297809 
L 28.38123 127.050448 
L 28.235033 125.552528 
L 29.244755 122.932342 
L 28.897251 120.009264 
L 29.799489 117.564036 
L 29.804045 114.781658 
L 32.186483 110.355224 
L 32.334046 106.159028 
L 31.873135 104.870318 
L 32.804519 104.537658 
L 34.258759 102.211741 
L 35.693869 101.201116 
L 37.525671 101.353862 
L 39.79197 102.840092 
L 40.855436 104.471858 
L 42.13888 104.29643 
L 43.634565 105.036177 
L 45.95415 105.027911 
L 48.448174 105.780767 
L 49.361341 105.494769 
L 49.72251 104.203462 
L 50.150172 104.121358 
L 51.070627 102.603824 
L 53.345127 103.667965 
L 54.109819 103.013627 
L 57.067486 102.117828 
L 57.681882 101.63254 
L 57.671861 101.238094 
L 59.144772 102.174411 
L 61.687526 101.649667 
L 61.934376 100.377375 
L 62.727993 100.081456 
L 64.345735 101.019547 
L 65.612328 100.707324 
L 66.953161 101.580204 
L 67.997044 101.365676 
L 68.559521 101.625568 
L 69.469955 100.867628 
L 70.475579 101.193791 
L 72.42489 102.767205 
L 72.549225 103.645164 
L 73.613828 103.854499 
L 73.771187 104.452957 
L 75.233165 105.110601 
L 76.88097 103.836421 
L 78.933891 104.811609 
L 79.975267 103.308134 
L 80.684398 103.435954 
L 81.469585 103.827089 
L 81.430419 104.683081 
L 82.058476 104.958092 
L 83.199826 106.570016 
L 84.680021 106.974854 
L 84.758359 108.139054 
L 85.656953 107.855772 
L 86.065031 108.700063 
L 86.315531 108.563977 
L 86.375647 109.142588 
L 85.643292 110.687646 
L 86.126064 111.611683 
L 85.496637 113.478181 
L 86.207135 113.99513 
L 86.631152 113.65963 
L 87.015549 114.186267 
L 87.554569 114.128381 
L 87.968341 115.042377 
L 84.473025 118.994268 
L 83.417984 119.463494 
L 83.047706 120.502823 
L 82.133169 120.887229 
L 82.103111 122.379009 
L 81.05695 124.325837 
L 80.402933 128.902773 
L 80.505407 131.005063 
L 78.986952 132.240728 
L 78.533784 133.085143 
L 78.552909 134.705452 
L 77.369665 135.593337 
L 77.329586 136.17124 
L 77.479881 136.785532 
L 78.084714 137.207031 
L 77.936239 137.521265 
L 78.992646 138.586348 
L 78.906336 142.487563 
L 79.454694 143.371667 
L 79.769407 145.241946 
L 79.385464 147.152391 
L 80.657526 150.73772 
L 80.056795 152.099079 
L 80.328239 153.517615 
L 81.07426 154.921032 
L 82.765783 156.158594 
L 83.66301 157.344644 
L 85.679727 162.120988 
L 77.470318 163.442186 
L 77.487623 164.734558 
L 75.105186 167.049013 
L 75.8257 167.535247 
L 76.630021 169.426315 
L 76.063446 171.381647 
L 76.635027 173.318084 
L 75.995129 174.195097 
L 75.1398 177.388933 
L 75.789948 178.939784 
L 76.86184 179.486026 
L 78.113407 181.253768 
L 80.160635 181.593044 
L 80.048594 180.630968 
L 81.480972 180.226011 
L 81.405825 186.176828 
L 80.679388 186.019478 
L 80.907567 185.379199 
L 80.489922 185.12403 
L 78.77016 186.090829 
L 77.932137 185.903705 
L 76.67192 183.589488 
L 75.944117 183.570587 
L 75.414889 181.904915 
L 73.369939 181.203206 
L 72.920411 180.721224 
L 71.957603 180.863926 
L 70.999342 179.164709 
L 70.177262 178.648702 
L 69.939067 177.553851 
L 69.249977 177.672453 
L 68.914767 179.106114 
L 67.900035 179.581005 
L 66.565578 179.118399 
L 64.655438 179.078234 
L 63.070487 178.282017 
L 62.515753 178.499856 
L 61.85194 177.885564 
L 61.699366 175.83998 
L 59.065068 176.440094 
L 58.088595 177.059584 
L 57.220513 176.774647 
L 57.653644 176.225566 
L 57.558001 175.407614 
L 56.472673 175.147247 
L 56.428496 174.580211 
L 55.931604 174.370882 
L 55.192414 175.079677 
L 53.527759 174.771116 
L 51.581638 175.41801 
L 49.319442 175.14347 
L 48.158966 176.090421 
L 47.841062 174.274485 
L 48.519677 173.858185 
L 48.492805 172.062567 
L 47.816468 170.064235 
L 46.578113 168.809664 
L 46.195082 167.662358 
L 46.864589 163.31791 
L 46.027478 161.221288 
L 46.498863 158.80949 
L 46.164112 157.957047 
L 40.592188 157.97075 
L 40.992982 156.277197 
L 39.706347 156.289011 
L 39.595219 156.670345 
L 36.191214 156.670345 
L 36.15296 158.853437 
L 35.458859 159.286274 
L 35.458405 161.242553 
L 31.761095 160.923595 
L 31.721928 161.222235 
L 30.015373 161.336114 
L 29.917452 161.733039 
L 28.903173 161.436763 
L 27.723114 161.683899 
L 26.470636 160.107061 
L 25.85624 158.619061 
L 24.838775 157.596978 
L 24.959924 156.72894 
L 24.05632 155.327882 
L 23.783051 154.215547 
L 23.874142 152.954361 
L 23.10808 151.643089 
L 11.60944 151.365238 
L 8.960798 151.589217 
L 6.993842 151.241528 
L 6.422341 151.473613 
L 6.229005 151.994608 
L 5.025494 152.326834 
L 5.059408 152.006079 
L 4.792225 152.116681 
z
" clip-path="url(#p9f8d488327)" style="fill: #eeeeee; stroke: #000000; stroke-width: 0.3"/>
    <path d="M 6.328248 151.816007 
L 6.694151 151.503258 
L 7.427554 151.487027 
z
" clip-path="url(#p9f8d488327)" style="fill: #eeeeee; stroke: #000000; stroke-width: 0.3"/>
    <path d="M -8.912717 -13.038672 
L -6.335807 -14.126913 
L -4.921647 -15.846452 
L -4.578241 -16.689445 
L -5.300579 -19.037454 
L -4.605567 -20.186411 
L -3.570339 -20.478202 
L -3.0985 -21.435074 
L -2.362954 -21.667799 
L -1.920715 -22.272165 
L 1.045603 -23.632701 
L 0.620673 -24.563938 
L 0.863861 -27.047768 
L 4.579623 -25.45416 
L 6.677542 -25.32468 
L 9.001392 -25.781397 
L 9.96966 -25.317612 
L 12.674722 -24.913912 
L 13.92702 -24.020197 
L 17.066728 -23.455393 
L 17.87111 -22.445961 
L 17.856048 -21.488622 
L 18.425893 -20.114932 
L 19.62045 -18.849704 
L 20.868085 -18.334941 
L 24.822215 -17.9132 
L 28.817943 -16.726104 
L 30.40304 -16.020097 
L 32.363249 -14.43396 
L 34.141999 -13.72014 
L 36.60786 -14.429681 
L 38.738414 -16.77801 
L 38.944622 -18.066308 
L 37.933675 -20.546352 
L 38.613616 -22.453774 
L 40.777878 -24.197674 
L 42.929593 -25.178083 
L 44.532978 -25.274635 
L 45.451398 -25.930043 
L 47.770943 -25.981199 
L 51.986147 -24.572538 
L 52.174781 -23.833046 
L 51.873543 -23.174479 
L 52.894171 -22.391266 
L 52.836435 -22.672184 
L 54.469582 -22.485029 
L 56.324718 -21.673542 
L 59.158525 -21.798746 
L 60.410819 -21.414208 
L 61.020474 -20.106748 
L 59.666257 -18.669114 
L 60.309346 -16.092642 
L 58.958496 -13.16224 
L 60.249229 -8.760376 
L 60.229646 33.235456 
L 55.842791 33.237938 
L 55.842791 35.520732 
L 20.60586 17.467688 
L 12.810907 21.255261 
L 9.57656 18.679492 
L 2.907467 17.135618 
L 0.879364 13.494177 
L -2.592953 12.40381 
L -3.959746 12.765059 
L -4.621506 12.292527 
L -4.916636 11.500215 
L -5.627588 11.013744 
L -5.733706 8.841638 
L -8.510561 5.012484 
L -8.048738 4.173029 
L -6.409589 3.387447 
L -6.162738 1.930163 
L -6.994381 -0.197406 
L -6.051152 -2.749785 
L -6.751629 -4.582495 
L -6.534836 -8.518795 
L -7.233035 -10.712403 
z
" clip-path="url(#p9f8d488327)" style="fill: #eeeeee; stroke: #000000; stroke-width: 0.3"/>
    <path d="M 13.564669 97.046744 
L 15.261203 95.769849 
L 17.251505 91.521559 
L 18.171961 90.871354 
L 18.38465 90.260844 
L 20.342158 90.421267 
L 22.305584 89.578511 
L 22.399861 89.070538 
L 23.089409 88.675502 
L 23.378159 89.546142 
L 24.119169 90.179096 
L 27.898003 88.149578 
L 32.081727 87.862277 
L 34.438662 84.994723 
L 33.317808 84.197683 
L 33.988227 83.576776 
L 40.215992 82.877664 
L 40.686011 82.038686 
L 41.241653 82.128352 
L 41.938944 81.597696 
L 43.837238 79.048039 
L 44.354625 79.06009 
L 44.966744 78.020405 
L 45.872626 77.580947 
L 45.889477 76.026087 
L 49.082154 74.373056 
L 50.906213 74.734776 
L 52.80178 76.926728 
L 54.35986 79.563218 
L 54.304295 82.240106 
L 53.608375 82.728818 
L 53.438492 83.422612 
L 54.019186 83.624265 
L 53.745005 84.831698 
L 56.884396 84.919591 
L 57.029227 85.431108 
L 56.529603 86.074692 
L 56.598832 86.627792 
L 59.451289 87.256965 
L 60.592635 88.55619 
L 61.287643 88.702673 
L 61.56319 89.638048 
L 61.059922 90.001898 
L 61.171051 90.36173 
L 61.918437 91.118961 
L 64.853559 92.66839 
L 65.140489 93.428926 
L 66.40435 94.238374 
L 65.92932 95.096254 
L 66.9814 96.285851 
L 66.610668 96.893998 
L 68.159638 97.308053 
L 68.34728 97.706989 
L 69.690846 98.282528 
L 70.295679 99.156478 
L 70.310711 100.607855 
L 71.089975 101.473887 
L 69.469955 100.867628 
L 68.559521 101.625568 
L 67.997044 101.365676 
L 66.953161 101.580204 
L 65.612328 100.707324 
L 64.345735 101.019547 
L 62.727993 100.081456 
L 61.934376 100.377375 
L 61.687526 101.649667 
L 59.144772 102.174411 
L 57.671861 101.238094 
L 57.681882 101.63254 
L 57.067486 102.117828 
L 54.109819 103.013627 
L 53.345127 103.667965 
L 51.070627 102.603824 
L 50.150172 104.121358 
L 49.72251 104.203462 
L 49.361341 105.494769 
L 48.448174 105.780767 
L 45.95415 105.027911 
L 43.634565 105.036177 
L 42.13888 104.29643 
L 40.855436 104.471858 
L 39.79197 102.840092 
L 37.525671 101.353862 
L 35.693869 101.201116 
L 34.258759 102.211741 
L 32.804519 104.537658 
L 31.873135 104.870318 
L 32.334046 106.159028 
L 32.245233 108.761022 
L 31.565252 108.051518 
L 30.580124 108.312827 
L 30.284993 108.758658 
L 29.846402 108.365158 
L 28.789313 108.471714 
L 28.573428 108.118027 
L 27.100517 107.703025 
L 25.118874 108.480931 
L 23.489287 108.52452 
L 22.722771 110.225749 
L 22.782892 111.689649 
L 21.463467 114.384021 
L 20.915563 111.216647 
L 20.292516 110.493436 
L 19.72685 110.447602 
L 16.638929 106.891218 
L 16.379326 106.249993 
L 17.101206 106.080709 
L 16.666709 105.812428 
L 16.238135 104.479653 
L 15.018909 103.525378 
L 14.761579 101.044945 
L 14.149007 100.468692 
L 14.578948 99.532727 
L 14.578948 97.842604 
z
" clip-path="url(#p9f8d488327)" style="fill: #eeeeee; stroke: #000000; stroke-width: 0.3"/>
    <path d="M 46.272054 66.164482 
L 46.953402 64.771462 
L 48.291044 63.691492 
L 47.442092 61.653466 
L 48.057854 60.847447 
L 49.519383 60.010356 
L 49.00245 59.439307 
L 48.713696 58.164062 
L 50.093242 57.499094 
L 50.015362 56.728984 
L 51.333421 55.155223 
L 51.10752 53.601775 
L 51.935523 52.857186 
L 55.856452 52.779928 
L 55.842791 33.237938 
L 60.246039 33.207576 
L 60.249229 24.094226 
L 87.866775 24.098716 
L 88.637389 23.035284 
L 88.93935 23.281002 
L 88.691134 24.094226 
L 96.383745 24.093961 
L 98.057175 25.402888 
L 99.988352 25.136637 
L 100.363191 24.093756 
L 112.699582 24.092567 
L 112.718231 25.672569 
L 114.591655 28.38125 
L 114.322691 28.617331 
L 114.224787 28.060528 
L 113.675024 27.696266 
L 114.217256 30.633773 
L 113.984155 31.620505 
L 114.286829 35.154815 
L 115.126356 38.421233 
L 115.591126 39.087984 
L 116.185675 38.973386 
L 116.552939 39.486846 
L 117.290789 39.686204 
L 118.156059 40.471416 
L 117.954501 40.769429 
L 118.287449 41.22109 
L 118.968237 40.959506 
L 118.576626 41.36562 
L 119.344068 41.336039 
L 120.280065 42.297662 
L 118.647398 44.529538 
L 118.145496 44.438573 
L 117.95603 44.739105 
L 117.790249 44.426759 
L 115.398245 45.505786 
L 114.990166 46.796265 
L 113.095511 46.647181 
L 113.211196 47.654853 
L 112.668303 49.15703 
L 113.010801 50.232748 
L 111.762425 52.770948 
L 111.572501 54.039692 
L 110.678917 55.466975 
L 111.125255 59.444267 
L 110.529988 62.480868 
L 109.409134 65.072817 
L 109.350383 66.494664 
L 107.42931 66.77913 
L 105.79745 69.684719 
L 104.71941 70.621278 
L 104.72123 71.855293 
L 104.15329 73.20732 
L 104.21523 74.806721 
L 103.687369 75.603523 
L 103.316637 75.809314 
L 102.525073 74.894847 
L 101.223865 76.35166 
L 101.428358 77.915029 
L 100.303784 81.430777 
L 99.469714 81.22676 
L 99.874377 79.600782 
L 99.626385 78.139245 
L 97.265809 75.984623 
L 96.202572 75.558278 
L 95.952307 71.625759 
L 96.507495 68.831329 
L 94.403561 68.804867 
L 94.469146 69.780645 
L 91.541087 69.793995 
L 92.713858 71.150274 
L 92.715682 72.958886 
L 93.076851 73.989359 
L 90.927145 75.939968 
L 89.701768 77.957672 
L 87.496502 80.016136 
L 85.737794 80.197709 
L 82.422606 77.700501 
L 80.670733 78.671314 
L 80.663903 79.328248 
L 80.087536 80.02677 
L 77.578992 81.09044 
L 77.270558 82.025354 
L 73.750784 81.993981 
L 73.089611 80.786955 
L 69.499559 80.734738 
L 67.496054 81.31158 
L 64.321824 78.108412 
L 63.982746 77.018992 
L 60.670973 77.625602 
L 60.227368 79.086434 
L 59.434663 79.765342 
L 59.417582 81.129892 
L 58.922515 81.802184 
L 58.385774 84.026978 
L 56.427583 84.964716 
L 53.678058 84.731759 
L 54.019186 83.624265 
L 53.438492 83.422612 
L 53.608375 82.728818 
L 54.304295 82.240106 
L 54.35986 79.563218 
L 52.80178 76.926728 
L 50.906213 74.734776 
L 51.314292 73.217836 
L 51.143047 72.554167 
L 50.513166 72.521797 
L 49.498887 71.471125 
L 49.810411 69.46027 
L 49.130429 69.654004 
L 49.244748 69.039951 
L 48.754687 67.675757 
L 49.075777 66.999327 
L 48.014589 66.394486 
L 47.578273 66.819528 
L 46.82952 66.869144 
z
" clip-path="url(#p9f8d488327)" style="fill: #eeeeee; stroke: #000000; stroke-width: 0.3"/>
    <path d="M 114.285036 29.540997 
L 114.461833 29.409657 
L 114.333448 29.7888 
z
" clip-path="url(#p9f8d488327)" style="fill: #eeeeee; stroke: #000000; stroke-width: 0.3"/>
    <path d="M 134.19404 74.382507 
L 134.331128 71.144367 
L 137.144872 67.41421 
L 138.234752 68.147104 
L 138.737112 67.830981 
L 139.074595 66.93034 
L 140.171209 66.556541 
L 141.103976 67.55853 
L 141.478374 68.764788 
L 141.314485 69.771057 
L 140.562824 69.985928 
L 139.897226 70.691002 
L 138.670751 71.017311 
L 138.189482 71.765732 
L 137.515996 71.740247 
L 137.906531 72.22654 
L 139.017176 71.641272 
L 140.32183 71.568161 
L 140.713441 72.134643 
L 139.094179 74.464606 
L 137.958755 73.95522 
L 134.970572 74.685988 
z
" clip-path="url(#p9f8d488327)" style="fill: #eeeeee; stroke: #000000; stroke-width: 0.3"/>
    <path d="M 110.678917 55.466975 
L 111.572501 54.039692 
L 111.762425 52.770948 
L 113.010801 50.232748 
L 112.668303 49.15703 
L 113.211196 47.654853 
L 113.095511 46.647181 
L 114.990166 46.796265 
L 115.398245 45.505786 
L 117.790249 44.426759 
L 117.95603 44.739105 
L 118.145496 44.438573 
L 118.647398 44.529538 
L 120.270022 42.338961 
L 122.08069 46.177064 
L 123.32187 51.830695 
L 123.951601 52.364802 
L 124.041974 53.678585 
L 124.719765 53.791139 
L 125.179156 55.64703 
L 125.600891 55.716236 
L 125.792036 55.283888 
L 125.434132 54.291573 
L 125.882766 53.772348 
L 126.784691 54.519283 
L 126.549796 54.99256 
L 127.135059 56.158259 
L 127.696297 56.472658 
L 128.691825 55.99715 
L 129.492978 56.551539 
L 129.809996 57.470181 
L 131.577271 57.736958 
L 133.82043 60.922263 
L 135.112534 61.354794 
L 135.715733 62.278835 
L 136.232503 62.688488 
L 136.060364 62.169445 
L 136.516885 62.59398 
L 136.917821 64.203192 
L 137.598838 64.157796 
L 138.461675 65.069557 
L 138.688682 65.898349 
L 139.33527 66.182427 
L 139.65695 65.676968 
L 140.171209 66.556541 
L 139.074595 66.93034 
L 138.737112 67.830981 
L 138.234752 68.147104 
L 137.342081 67.432402 
L 136.918059 67.662996 
L 136.06091 66.441624 
L 135.010651 65.787286 
L 133.975881 64.087593 
L 131.685442 62.405379 
L 130.104135 60.164639 
L 126.893241 58.518695 
L 125.957759 58.698851 
L 124.295382 58.053017 
L 122.943162 58.636593 
L 122.587457 57.895781 
L 122.068704 57.671683 
L 121.435636 58.392059 
L 119.49999 58.741731 
L 118.629635 57.541385 
L 117.648605 57.33713 
L 117.14078 56.627864 
L 115.652384 60.166765 
L 114.50694 58.55768 
L 113.745888 58.725076 
L 113.47763 59.383428 
L 112.102187 59.13086 
L 111.125255 59.444267 
z
" clip-path="url(#p9f8d488327)" style="fill: #eeeeee; stroke: #000000; stroke-width: 0.3"/>
    <path d="M 126.12591 52.695762 
L 126.597494 52.243877 
L 126.216278 51.989938 
L 127.03393 52.391032 
L 127.154427 53.131082 
L 127.608798 52.860587 
L 128.168242 53.460367 
L 126.339287 53.304096 
L 126.156391 52.867098 
L 126.790785 53.054436 
z
" clip-path="url(#p9f8d488327)" style="fill: #eeeeee; stroke: #000000; stroke-width: 0.3"/>
    <path d="M 126.388418 51.424019 
L 126.654869 51.014741 
L 126.937106 51.5695 
z
" clip-path="url(#p9f8d488327)" style="fill: #eeeeee; stroke: #000000; stroke-width: 0.3"/>
    <path d="M -38.065119 88.54792 
L -37.632901 83.248368 
L -36.280681 83.074119 
L -36.031552 81.418492 
L -35.154366 80.528124 
L -35.179414 79.843665 
L -34.354602 79.638469 
L -34.018026 79.171136 
L -33.674166 78.267065 
L -34.093178 77.630919 
L -33.74203 76.944687 
L -33.211436 77.073449 
L -32.925414 76.194424 
L -33.398624 75.244281 
L -33.433692 73.851499 
L -34.551357 72.447255 
L -33.676445 70.8918 
L -33.954265 70.224825 
L -33.788485 67.42484 
L -32.521434 66.362354 
L -31.817771 65.238324 
L -31.654718 63.058656 
L -29.975948 62.045077 
L -28.432895 61.681936 
L -26.799214 61.831728 
L -25.503013 61.19641 
L -22.76806 62.291266 
L -21.769725 62.357775 
L -19.265909 65.242105 
L -18.686128 65.239032 
L -18.115455 64.684397 
L -17.261497 64.706608 
L -15.357733 63.642466 
L -14.11892 63.851092 
L -11.588461 65.570513 
L -7.574163 66.129163 
L -5.240913 64.077667 
L -2.79426 63.506142 
L 0.57695 63.55493 
L 3.298695 64.687231 
L 5.127765 64.927751 
L 5.517172 64.111217 
L 6.592933 63.515831 
L 6.756439 62.984823 
L 8.456617 62.715481 
L 8.905233 61.977621 
L 10.127649 62.001958 
L 12.144132 64.864552 
L 12.69067 68.099615 
L 14.004631 68.248699 
L 14.810313 69.027666 
L 14.246017 71.119797 
L 14.596253 71.485773 
L 14.527482 72.011816 
L 12.587284 73.275484 
L 11.780235 73.102063 
L 10.777797 74.288707 
L 9.825689 76.09602 
L 9.367964 78.235761 
L 8.465726 78.729909 
L 8.312699 81.03019 
L 6.814282 81.780449 
L 7.003744 82.309331 
L 6.450834 84.610792 
L 5.503507 85.31203 
L 4.67004 85.29419 
L 4.824438 85.811019 
L 4.045169 86.314974 
L 3.891229 88.261094 
L 3.128358 89.36658 
L 3.137467 90.018673 
L 1.88408 91.449495 
L 2.481625 92.290366 
L 1.113466 93.219834 
L 0.988673 94.275824 
L 0.267705 95.141498 
L -0.861805 95.240967 
L -1.2002 93.839438 
L -3.218737 92.055045 
L -3.583092 93.226212 
L -4.839669 93.205656 
L -5.138893 92.618065 
L -6.32123 93.623845 
L -6.700617 93.591598 
L -7.121448 94.796078 
L -8.672697 95.789691 
L -10.251731 97.701791 
L -10.810563 97.922463 
L -10.971786 98.581053 
L -10.598776 99.0765 
L -11.061511 101.067389 
L -12.247484 103.128207 
L -13.781657 101.836374 
L -13.024254 103.40261 
L -13.31043 103.861188 
L -16.527956 103.967414 
L -16.588205 103.118532 
L -16.776838 103.750869 
L -17.750491 103.620828 
L -17.520254 103.948998 
L -17.750491 104.060989 
L -18.672498 102.903103 
L -18.175452 103.99625 
L -18.795145 104.373157 
L -18.795145 103.431071 
L -19.153406 103.027746 
L -19.036139 103.589948 
L -19.427032 103.243549 
L -18.884443 104.548961 
L -19.123282 104.656677 
L -19.56761 104.541147 
L -19.934834 102.633725 
L -20.242171 102.554099 
L -19.558286 104.719744 
L -20.242171 104.747647 
L -20.151799 103.589948 
L -20.332544 104.435666 
L -20.51329 104.029735 
L -20.36518 104.830432 
L -20.695824 104.829691 
L -20.769703 104.165172 
L -20.969811 104.060989 
L -20.885533 104.838063 
L -22.20346 105.031354 
L -21.930191 104.373157 
L -22.236453 104.560308 
L -22.354077 104.092244 
L -22.414325 104.997494 
L -22.898459 105.124929 
L -23.004612 104.489616 
L -23.123316 105.019448 
L -23.445715 104.46692 
L -23.565494 104.844198 
L -23.880719 104.682907 
L -25.707162 102.494566 
L -26.101285 101.223198 
L -25.617151 101.146553 
L -26.191296 101.049814 
L -26.303187 100.224743 
L -25.255664 100.050801 
L -25.449317 99.619198 
L -25.096437 99.488603 
L -24.982395 99.327494 
L -25.935601 99.801512 
L -25.890415 99.988667 
L -26.929693 99.5046 
L -26.820314 99.139968 
L -25.556545 99.096809 
L -25.830528 98.796921 
L -26.365586 99.02928 
L -26.314662 98.484565 
L -26.567131 98.974027 
L -27.233086 98.925472 
L -27.349639 98.170724 
L -26.522663 97.636242 
L -27.605333 98.288298 
L -28.913574 96.590352 
L -30.421924 95.584453 
L -34.660797 95.349118 
L -34.919361 95.192851 
L -32.896391 94.43252 
L -34.344854 94.815381 
L -34.495114 94.471958 
L -34.842618 94.700783 
L -34.986065 95.167732 
L -34.921154 95.406977 
L -37.92076 95.541115 
L -37.530881 90.469465 
z
" clip-path="url(#p9f8d488327)" style="fill: #eeeeee; stroke: #000000; stroke-width: 0.3"/>
    <path d="M -18.380584 104.553985 
L -17.977494 103.933371 
L -17.780611 104.120334 
L -17.523484 104.120334 
L -17.674106 104.47306 
z
" clip-path="url(#p9f8d488327)" style="fill: #eeeeee; stroke: #000000; stroke-width: 0.3"/>
    <path d="M -17.504117 104.265445 
L -16.413201 104.153637 
L -17.085969 104.381341 
z
" clip-path="url(#p9f8d488327)" style="fill: #eeeeee; stroke: #000000; stroke-width: 0.3"/>
    <path d="M 102.516247 -3.874752 
L 103.53424 -5.769185 
L 104.1759 -9.539055 
L 109.111729 -8.845672 
L 110.908009 -10.192501 
L 112.017018 -11.833484 
L 115.284384 -12.478253 
L 116.065932 -14.015867 
L 117.537018 -14.783728 
L 113.034029 -19.320028 
L 121.864664 -21.621251 
L 122.720905 -22.201993 
L 128.064196 -21.365849 
L 135.578138 -17.440298 
L 147.107978 -8.853938 
L 159.189586 -7.906987 
L 160.223677 -5.798318 
L 163.865869 -5.645814 
L 163.751828 -5.129007 
L 164.045892 -5.22277 
L 164.559793 -3.56984 
L 165.17626 -3.391243 
L 164.96324 -3.182325 
L 165.575759 -2.566922 
L 165.539897 -2.307213 
L 165.384257 -2.118202 
L 165.266633 -2.575476 
L 165.118162 -2.076903 
L 165.564645 -1.930676 
L 165.351625 -1.587441 
L 167.149381 -1.279365 
L 167.471062 -0.838275 
L 166.620774 -0.804044 
L 167.25553 -0.679402 
L 167.077296 -0.301749 
L 167.471062 -0.364258 
L 167.514455 0.272359 
L 167.910009 0.280173 
L 167.744687 0.531318 
L 168.613976 0.325193 
L 169.175219 1.403828 
L 171.197827 2.745148 
L 170.448674 2.472788 
L 170.634438 3.52352 
L 171.453879 4.30394 
L 171.122516 5.620516 
L 170.642326 4.86558 
L 170.455486 5.776787 
L 170.946076 5.832968 
L 171.634267 7.467853 
L 171.137222 7.004063 
L 171.154791 7.15717 
L 172.577435 8.358033 
L 172.976934 10.106212 
L 174.813199 12.333287 
L 176.090818 12.073724 
L 176.238928 12.564489 
L 176.648113 12.04247 
L 177.102127 12.260875 
L 176.134929 13.521828 
L 177.415201 13.757721 
L 177.521733 14.570836 
L 181.774003 19.781791 
L 192.997096 21.233996 
L 193.356446 20.856206 
L 195.342645 24.169121 
L 192.43781 33.237938 
L 179.218725 37.808962 
L 166.250818 39.710546 
L 162.399797 41.680175 
L 159.875032 44.814946 
L 159.163626 46.513221 
L 157.990398 47.173347 
L 157.148734 47.130347 
L 156.00192 45.674005 
L 154.294453 45.908618 
L 150.362591 45.506495 
L 149.194827 44.974422 
L 144.715973 45.082162 
L 143.685302 45.553038 
L 141.472064 44.555763 
L 140.379901 45.442939 
L 140.763845 45.6896 
L 140.174496 46.538737 
L 140.14899 47.344404 
L 140.584628 47.861824 
L 140.445716 48.466427 
L 140.026933 48.430043 
L 139.812419 49.053076 
L 138.724901 49.809041 
L 138.385289 48.16467 
L 136.817766 46.098932 
L 136.845379 46.819633 
L 136.574622 44.859189 
L 134.309945 43.121983 
L 133.013179 41.337159 
L 132.759639 40.212384 
L 131.765547 39.170028 
L 131.936607 38.547178 
L 131.440637 38.079296 
L 131.617077 37.481007 
L 131.141549 37.21572 
L 130.595373 35.477028 
L 129.783459 35.005987 
L 129.714966 34.236544 
L 129.325862 34.316536 
L 128.787936 33.391567 
L 126.801903 31.940304 
L 126.005413 31.807661 
L 126.171092 32.032019 
L 125.37532 31.613067 
L 122.793981 28.147218 
L 122.381571 27.204761 
L 122.779638 26.797344 
L 122.506369 25.226084 
L 121.72283 24.045205 
L 122.050861 24.063804 
L 122.654835 22.22942 
L 122.335371 22.4004 
L 122.083197 20.56719 
L 121.142542 19.506972 
L 121.137161 18.816963 
L 119.613749 15.916481 
L 117.334045 14.293397 
L 117.389697 13.982317 
L 117.026955 14.243649 
L 115.104613 13.249606 
L 115.224766 12.911542 
L 113.867245 11.038062 
L 114.343129 10.945602 
L 114.279655 9.555545 
L 112.931608 7.402738 
L 111.90058 6.790865 
L 111.872968 5.683025 
L 111.064998 5.277464 
L 108.946637 1.638976 
L 105.119817 -3.40185 
L 105.3522 -3.607792 
L 104.627791 -3.905819 
L 103.539026 -3.684625 
L 103.117647 -3.999582 
L 102.844022 -3.812243 
L 102.937263 -3.684625 
L 102.693762 -3.497286 
z
" clip-path="url(#p9f8d488327)" style="fill: #eeeeee; stroke: #000000; stroke-width: 0.3"/>
    <path d="M 134.175439 47.40684 
L 134.827887 48.087115 
L 135.400085 48.232541 
L 135.519925 47.782554 
L 136.067472 48.279382 
L 136.032751 48.837378 
L 135.623782 48.33426 
L 135.049606 48.44129 
z
" clip-path="url(#p9f8d488327)" style="fill: #eeeeee; stroke: #000000; stroke-width: 0.3"/>
    <path d="M 134.518664 47.428342 
L 134.930713 47.139244 
L 134.568151 46.94465 
L 134.632701 46.870794 
L 134.973392 47.057017 
L 135.254024 48.025822 
z
" clip-path="url(#p9f8d488327)" style="fill: #eeeeee; stroke: #000000; stroke-width: 0.3"/>
    <path d="M 110.971399 7.407575 
L 111.201271 7.143404 
L 111.145685 7.409806 
L 111.747808 7.843458 
L 111.182626 7.663187 
z
" clip-path="url(#p9f8d488327)" style="fill: #eeeeee; stroke: #000000; stroke-width: 0.3"/>
    <path d="M 112.976795 8.336636 
L 113.000106 8.219437 
L 113.209178 8.210691 
L 113.33075 8.4384 
z
" clip-path="url(#p9f8d488327)" style="fill: #eeeeee; stroke: #000000; stroke-width: 0.3"/>
    <path d="M 111.808414 7.826527 
L 112.003146 7.772948 
L 112.679858 8.329943 
L 111.975172 7.816483 
z
" clip-path="url(#p9f8d488327)" style="fill: #eeeeee; stroke: #000000; stroke-width: 0.3"/>
    <path d="M 111.196252 6.690409 
L 111.266543 6.533022 
L 111.409272 6.422516 
L 111.498569 7.113265 
z
" clip-path="url(#p9f8d488327)" style="fill: #eeeeee; stroke: #000000; stroke-width: 0.3"/>
    <path d="M 168.103305 -0.114598 
L 168.671356 -0.361281 
L 169.128239 -0.239611 
z
" clip-path="url(#p9f8d488327)" style="fill: #eeeeee; stroke: #000000; stroke-width: 0.3"/>
    <path d="M 112.763775 7.634539 
L 112.835141 7.583378 
L 112.873872 7.982054 
z
" clip-path="url(#p9f8d488327)" style="fill: #eeeeee; stroke: #000000; stroke-width: 0.3"/>
    <path d="M 112.449982 7.855176 
L 112.513099 7.75081 
L 112.624271 7.807924 
z
" clip-path="url(#p9f8d488327)" style="fill: #eeeeee; stroke: #000000; stroke-width: 0.3"/>
    <path d="M 112.227641 8.087352 
L 112.790669 8.555046 
L 112.770587 8.706293 
z
" clip-path="url(#p9f8d488327)" style="fill: #eeeeee; stroke: #000000; stroke-width: 0.3"/>
    <path d="M 9.432183 58.641792 
L 10.35036 58.140319 
L 11.126214 55.987467 
L 13.484057 52.649744 
L 18.316338 47.414576 
L 19.508237 33.658015 
L 20.540733 31.679292 
L 18.777702 29.779245 
L 18.663383 29.146528 
L 18.949859 28.87057 
L 17.077978 26.399231 
L 17.022868 24.103206 
L 16.176273 19.520779 
L 20.60586 17.467688 
L 55.842791 35.520732 
L 55.856452 52.779928 
L 51.935523 52.857186 
L 51.10752 53.601775 
L 51.333421 55.155223 
L 50.015362 56.728984 
L 50.093242 57.499094 
L 48.713696 58.164062 
L 49.00245 59.439307 
L 49.519383 60.010356 
L 48.057854 60.847447 
L 47.442092 61.653466 
L 48.291044 63.691492 
L 46.953402 64.771462 
L 46.272054 66.164482 
L 46.82952 66.869144 
L 47.578273 66.819528 
L 48.014589 66.394486 
L 49.075777 66.999327 
L 48.754687 67.675757 
L 49.244748 69.039951 
L 49.130429 69.654004 
L 49.810411 69.46027 
L 49.498887 71.471125 
L 50.513166 72.521797 
L 51.143047 72.554167 
L 51.176291 73.967034 
L 50.906213 74.734776 
L 49.082154 74.373056 
L 45.889477 76.026087 
L 45.872626 77.580947 
L 44.966744 78.020405 
L 44.354625 79.06009 
L 43.837238 79.048039 
L 41.938944 81.597696 
L 41.241653 82.128352 
L 40.686011 82.038686 
L 40.215992 82.877664 
L 33.988227 83.576776 
L 33.317808 84.197683 
L 34.438662 84.994723 
L 32.081727 87.862277 
L 27.898003 88.149578 
L 24.221188 90.16752 
L 23.378159 89.546142 
L 23.089409 88.675502 
L 22.399861 89.070538 
L 22.305584 89.578511 
L 20.342158 90.421267 
L 18.38465 90.260844 
L 18.745366 89.030139 
L 18.207029 88.815373 
L 17.074334 85.890522 
L 13.398431 82.739452 
L 11.627203 80.593334 
L 12.658787 79.036933 
L 15.262573 79.294937 
L 19.266851 78.97704 
L 16.845247 76.465069 
L 16.358376 73.53053 
L 16.862552 71.93822 
L 16.557859 71.253286 
L 16.753702 70.78572 
L 16.482711 69.406402 
L 15.815483 69.094531 
L 15.518987 66.966486 
L 14.302947 66.28687 
L 13.70085 64.850137 
L 12.144132 64.864552 
L 10.127649 62.001958 
z
" clip-path="url(#p9f8d488327)" style="fill: #eeeeee; stroke: #000000; stroke-width: 0.3"/>
    <path d="M -88.09652 -0.092035 
L -88.080581 -6.526722 
L -83.412491 -9.711584 
L -82.223372 -9.68423 
L -81.330238 -10.259385 
L -79.728757 -9.97181 
L -78.096477 -10.515011 
L -75.201487 -10.738683 
L -75.047499 -10.323292 
L -74.246761 -10.323292 
L -72.645275 -12.40024 
L -69.103539 -14.828671 
L -65.900572 -15.755309 
L -65.962169 -16.330464 
L -65.500201 -16.87367 
L -66.279073 -17.881406 
L -66.770046 -17.853293 
L -66.648214 -18.616664 
L -66.023762 -18.854757 
L -65.962169 -20.03702 
L -62.297239 -20.708032 
L -62.785921 -21.869567 
L -62.53235 -21.995969 
L -60.923717 -22.251609 
L -55.169386 -22.057161 
L -55.104484 -22.314927 
L -55.606615 -22.41274 
L -55.318315 -23.279009 
L -54.383512 -23.907593 
L -56.108059 -25.04143 
L -56.704921 -25.915851 
L -56.443722 -26.494463 
L -57.213653 -27.307216 
L -56.962929 -28.754108 
L -57.533377 -29.430534 
L -57.193387 -31.153383 
L -57.810286 -32.494072 
L -57.340267 -32.98432 
L -58.081276 -33.519109 
L -57.633577 -34.180652 
L -59.50318 -35.3797 
L -59.629983 -35.771522 
L -57.596614 -35.955884 
L -55.541731 -37.030052 
L -54.387694 -38.484108 
L -53.368502 -38.901574 
L -52.596394 -38.668658 
L -51.948731 -39.432518 
L -50.201899 -38.99515 
L -48.327397 -40.8769 
L -43.901327 -42.426951 
L -39.473102 -42.853716 
L -38.375012 -42.661728 
L -36.910412 -43.632093 
L -35.998087 -43.326065 
L -35.614003 -43.649206 
L -34.498344 -43.488843 
L -32.764781 -44.128806 
L -28.74036 -44.029095 
L -26.460978 -42.875113 
L -24.568905 -43.740738 
L -22.527291 -44.060719 
L -21.563324 -44.932297 
L -19.215448 -44.004534 
L -17.962432 -44.35577 
L -18.007618 -44.917785 
L -15.469672 -44.477998 
L -15.580488 -44.004164 
L -14.985538 -43.819431 
L -13.55465 -44.315586 
L -11.927055 -44.230712 
L -11.754246 -43.75909 
L -12.761689 -43.519283 
L -12.68563 -42.964766 
L -13.833356 -42.339374 
L -13.005808 -41.902988 
L -13.518184 -39.147663 
L -13.096899 -37.822684 
L -13.284999 -36.849507 
L -12.681531 -36.468411 
L -13.258127 -35.67267 
L -13.540046 -33.752305 
L -15.324485 -32.6858 
L -15.616425 -31.910025 
L -16.708583 -31.225681 
L -16.874368 -30.306134 
L -15.79405 -27.27721 
L -14.199532 -26.650281 
L -13.335553 -25.471081 
L -13.122405 -24.059512 
L -9.977096 -21.975651 
L -7.885232 -13.549714 
L -8.912717 -13.038672 
L -7.233035 -10.712403 
L -6.534836 -8.518795 
L -6.751629 -4.582495 
L -6.05844 -2.569985 
L -6.996659 -0.121566 
L -6.180044 1.864481 
L -6.225587 2.800327 
L -6.492479 3.479592 
L -8.048738 4.173029 
L -8.510561 5.012484 
L -5.733706 8.841638 
L -5.627588 11.013744 
L -4.916636 11.500215 
L -4.70121 12.208064 
L -3.959746 12.765059 
L -2.688143 12.386327 
L 1.023741 13.568719 
L 2.907467 17.135618 
L -16.861615 29.227567 
L -24.302004 35.732545 
L -35.147989 37.900755 
L -36.156804 37.169392 
L -35.466348 36.013582 
L -35.739612 34.037575 
L -39.257931 32.958433 
L -40.1374 31.9647 
L -40.708526 32.241961 
L -42.000172 31.82578 
L -42.962526 30.485205 
L -44.747877 29.839257 
L -44.783399 28.179963 
L -71.08323 10.379486 
z
" clip-path="url(#p9f8d488327)" style="fill: #eeeeee; stroke: #000000; stroke-width: 0.3"/>
    <path d="M 80.402933 128.902773 
L 81.05695 124.325837 
L 82.103111 122.379009 
L 82.133169 120.887229 
L 83.047706 120.502823 
L 83.417984 119.463494 
L 84.473025 118.994268 
L 87.968341 115.042377 
L 87.554569 114.128381 
L 87.015549 114.186267 
L 86.631152 113.65963 
L 86.207135 113.99513 
L 85.496637 113.478181 
L 86.126064 111.611683 
L 85.643292 110.687646 
L 86.375647 109.142588 
L 86.315531 108.563977 
L 86.065031 108.700063 
L 86.527313 107.835568 
L 87.718758 107.318619 
L 89.080083 107.941652 
L 90.200025 107.20852 
L 90.870444 108.205563 
L 91.919108 108.599296 
L 92.006326 108.110465 
L 92.817243 107.598833 
L 94.512186 107.425293 
L 95.573374 106.892635 
L 96.310286 107.452584 
L 97.747674 107.513424 
L 100.018754 105.428735 
L 100.365804 106.93008 
L 100.895486 106.942841 
L 100.664121 107.395054 
L 101.929806 107.888375 
L 101.672477 108.761022 
L 101.904754 110.109035 
L 103.850875 112.81026 
L 104.062203 113.330985 
L 103.806698 113.924487 
L 104.427471 115.893403 
L 104.278537 117.094106 
L 103.425033 118.308863 
L 103.508381 119.024983 
L 102.138398 119.708266 
L 101.702081 120.927394 
L 100.651368 121.897498 
L 100.367624 123.070796 
L 99.523229 124.155251 
L 99.787389 125.36304 
L 99.570138 129.241102 
L 85.789943 129.164553 
L 83.852477 129.532184 
L 83.014004 130.807072 
L 82.094232 131.391591 
L 81.594833 130.7102 
L 80.505407 131.005063 
z
" clip-path="url(#p9f8d488327)" style="fill: #eeeeee; stroke: #000000; stroke-width: 0.3"/>
    <path d="M -12.333551 103.9596 
L -11.928222 102.339799 
L -11.061511 101.067389 
L -10.598776 99.0765 
L -10.971786 98.581053 
L -10.857472 97.99771 
L -8.672697 95.789691 
L -7.121448 94.796078 
L -6.700617 93.591598 
L -6.32123 93.623845 
L -5.138893 92.618065 
L -4.839669 93.205656 
L -3.583092 93.226212 
L -3.218737 92.055045 
L -1.2002 93.839438 
L -0.93422 95.171856 
L -0.236022 95.259397 
L 0.988673 94.275824 
L 1.113466 93.219834 
L 2.481625 92.290366 
L 1.88408 91.449495 
L 3.137467 90.018673 
L 3.128358 89.36658 
L 3.891229 88.261094 
L 4.045169 86.314974 
L 4.824438 85.811019 
L 4.67004 85.29419 
L 5.503507 85.31203 
L 6.546024 84.475648 
L 7.003744 82.309331 
L 6.814282 81.780449 
L 8.312699 81.03019 
L 8.465726 78.729909 
L 9.367964 78.235761 
L 9.825689 76.09602 
L 10.777797 74.288707 
L 11.780235 73.102063 
L 12.587284 73.275484 
L 14.573483 71.902307 
L 14.246017 71.119797 
L 14.803029 68.978996 
L 14.004631 68.248699 
L 12.69067 68.099615 
L 12.144132 64.864552 
L 13.70085 64.850137 
L 14.302947 66.28687 
L 15.467979 66.872454 
L 15.815483 69.094531 
L 16.482711 69.406402 
L 16.862552 71.93822 
L 16.358376 73.53053 
L 16.873939 76.552129 
L 19.266851 78.97704 
L 15.262573 79.294937 
L 12.658787 79.036933 
L 11.619915 80.525289 
L 13.398431 82.739452 
L 16.49364 85.137781 
L 18.207029 88.815373 
L 18.745366 89.030139 
L 18.171961 90.871354 
L 17.251505 91.521559 
L 15.261203 95.769849 
L 13.564669 97.046744 
L 14.578948 97.842604 
L 14.578948 99.532727 
L 14.149007 100.468692 
L 14.761579 101.044945 
L 15.018909 103.525378 
L 16.238135 104.479653 
L 16.666709 105.812428 
L 17.101206 106.080709 
L 16.379326 106.249993 
L 16.638929 106.891218 
L 21.078616 111.566319 
L 21.069507 113.179304 
L 21.58689 114.493411 
L 21.131448 114.628322 
L 20.952456 115.440719 
L 21.358257 116.797711 
L 20.979328 117.092689 
L 20.732473 116.558846 
L 19.379345 115.824297 
L 18.392851 115.623704 
L 17.751583 115.872376 
L 17.201859 115.332156 
L 15.790889 115.484075 
L 15.634671 114.983192 
L 15.228413 115.214024 
L 14.335283 114.558621 
L 13.765976 114.90924 
L 8.74947 114.776931 
L 8.705746 114.405756 
L 8.173332 114.218637 
L 6.349268 114.431039 
L 1.534298 114.038838 
L 0.187542 114.139015 
L 0.057284 114.755433 
L -5.8084 114.756142 
L -6.602241 114.302273 
L -5.963767 110.71047 
L -6.079601 109.699734 
L -7.345886 108.476734 
L -6.563736 108.07062 
L -7.415816 108.198056 
L -7.769772 107.193831 
L -7.424423 107.511394 
L -7.43841 106.94157 
L -6.894741 107.193831 
L -7.195265 106.785298 
L -6.80688 106.563729 
L -7.448091 106.550521 
L -6.850273 105.748891 
L -7.622381 106.30979 
L -8.066709 105.859954 
L -7.828945 106.417507 
L -8.2453 106.229981 
L -8.073879 106.754044 
L -8.661658 106.754044 
L -8.738044 106.223283 
L -9.246922 106.532662 
L -10.302337 105.908513 
L -10.458696 103.839608 
L -10.849588 103.444467 
L -10.757784 103.879421 
L -11.062966 103.620828 
L -11.107795 103.893745 
L -11.695213 102.99389 
L -11.397558 104.023224 
z
" clip-path="url(#p9f8d488327)" style="fill: #eeeeee; stroke: #000000; stroke-width: 0.3"/>
    <path d="M -49.161829 58.149532 
L -48.86078 56.095677 
L -45.652389 56.170571 
L -43.96815 54.780386 
L -36.614978 54.526635 
L -36.467873 54.127347 
L -34.38102 54.458713 
L -34.295393 53.809573 
L -32.887155 52.943894 
L -31.942106 50.141079 
L -31.398305 49.602866 
L -31.20155 37.138677 
L -24.302004 35.732545 
L -16.861615 29.227567 
L 2.907467 17.135618 
L 9.57656 18.679492 
L 12.810907 21.255261 
L 16.176273 19.520779 
L 17.022868 24.103206 
L 17.077978 26.399231 
L 18.949859 28.87057 
L 18.663383 29.146528 
L 18.777702 29.779245 
L 20.540733 31.679292 
L 19.508237 33.658015 
L 18.344571 47.31369 
L 13.484057 52.649744 
L 11.126214 55.987467 
L 10.35036 58.140319 
L 9.432183 58.641792 
L 10.127649 62.001958 
L 8.905233 61.977621 
L 8.456617 62.715481 
L 6.756439 62.984823 
L 6.592933 63.515831 
L 5.517172 64.111217 
L 5.127765 64.927751 
L 3.298695 64.687231 
L 0.57695 63.55493 
L -2.79426 63.506142 
L -5.240913 64.077667 
L -7.574163 66.129163 
L -11.588461 65.570513 
L -14.11892 63.851092 
L -15.357733 63.642466 
L -17.261497 64.706608 
L -18.115455 64.684397 
L -18.686128 65.239032 
L -19.265909 65.242105 
L -22.063944 62.186009 
L -22.76806 62.291266 
L -25.503013 61.19641 
L -26.799214 61.831728 
L -28.574086 61.697293 
L -30.214602 62.140646 
L -31.654718 63.058656 
L -31.817771 65.238324 
L -32.521434 66.362354 
L -33.788485 67.42484 
L -33.954265 70.224825 
L -33.676445 70.8918 
L -33.987514 71.184061 
L -37.301794 67.967781 
L -39.391833 68.71296 
L -39.006982 69.810413 
L -39.303021 70.26617 
L -40.794149 68.229798 
L -39.942923 67.853901 
L -40.541834 66.566961 
L -41.147122 66.481908 
L -41.710964 67.022009 
L -42.944309 66.902931 
L -45.50164 65.073173 
L -45.50164 63.536738 
L -44.245063 63.638923 
L -45.361815 63.092087 
L -45.8833 62.409636 
L -47.216845 62.07154 
L -48.209037 60.470484 
L -48.122502 59.498725 
z
" clip-path="url(#p9f8d488327)" style="fill: #eeeeee; stroke: #000000; stroke-width: 0.3"/>
    <path d="M 58.959862 -13.338729 
L 59.924953 -14.78302 
L 60.309346 -16.092642 
L 59.666257 -18.669114 
L 60.721527 -19.880214 
L 60.996805 -20.076609 
L 61.173245 -19.505108 
L 62.102783 -19.375628 
L 64.592312 -19.894296 
L 70.558297 -18.817147 
L 71.112004 -18.095701 
L 72.055172 -17.899246 
L 72.903661 -18.173837 
L 73.230004 -17.527921 
L 75.421883 -17.456666 
L 78.082476 -16.284456 
L 80.17645 -16.877168 
L 82.672079 -18.599857 
L 83.093452 -18.066308 
L 83.637839 -18.163047 
L 83.156213 -18.347409 
L 83.743988 -18.677993 
L 83.880979 -19.352 
L 83.97207 -19.178803 
L 84.121973 -19.102153 
L 83.961314 -19.401112 
L 84.726604 -19.195916 
L 86.65705 -19.757743 
L 84.756729 -18.915002 
L 85.601635 -18.849704 
L 87.297182 -19.329675 
L 86.675338 -19.746583 
L 87.201433 -19.854483 
L 89.225835 -19.102153 
L 90.625167 -19.523898 
L 90.795151 -19.520735 
L 90.935729 -19.456923 
L 92.058206 -18.424242 
L 90.691867 -19.507714 
L 90.554875 -18.69362 
L 90.151789 -18.376615 
L 90.854681 -17.93013 
L 91.342402 -18.066308 
L 91.249879 -17.660752 
L 91.647946 -17.319186 
L 92.427942 -17.699445 
L 92.425791 -18.288064 
L 92.091199 -18.424242 
L 92.639168 -18.316155 
L 93.829781 -17.353979 
L 95.264975 -17.785764 
L 94.115962 -17.314353 
L 94.401419 -17.252402 
L 95.264257 -17.586333 
L 95.62933 -17.332582 
L 95.868888 -17.692001 
L 95.718985 -17.535917 
L 95.384754 -17.564012 
L 96.067564 -17.97329 
L 96.172995 -17.283469 
L 97.376519 -17.785764 
L 97.786779 -17.660752 
L 98.440902 -17.611264 
L 100.874766 -18.512006 
L 103.899794 -10.171694 
L 103.238144 -9.354249 
L 102.744324 -6.724078 
L 101.799725 -4.822234 
L 101.908742 -3.247439 
L 100.935812 -2.405814 
L 101.126239 -2.118202 
L 98.949423 -3.468821 
L 96.593298 -5.962444 
L 96.369521 -7.88345 
L 94.329696 -10.015792 
L 93.725065 -12.555369 
L 92.666781 -10.639946 
L 93.740127 -9.618795 
L 93.935216 -7.806434 
L 94.734575 -6.916811 
L 95.007844 -6.005979 
L 98.028491 -2.885784 
L 98.194532 -2.404698 
L 97.672024 -2.550737 
L 98.194532 -1.743525 
L 97.772797 -1.743525 
L 99.280071 0.103812 
L 99.272897 0.660802 
L 99.975071 1.685857 
L 99.764205 1.985562 
L 99.734081 2.797049 
L 102.400769 7.042015 
L 105.035962 12.641989 
L 106.575101 14.431047 
L 107.653612 15.005214 
L 107.891415 15.375666 
L 106.663672 15.033556 
L 106.531224 15.304818 
L 106.555725 17.22859 
L 106.811781 17.699636 
L 107.462951 19.811276 
L 108.30313 20.709362 
L 109.801943 21.167716 
L 110.743824 22.443308 
L 112.751343 23.77061 
L 112.699582 24.092567 
L 88.691134 24.094226 
L 88.93935 23.281002 
L 88.637389 23.035284 
L 87.866775 24.098716 
L 60.249229 24.094226 
L 60.249229 -8.760376 
z
M 105.333556 20.478164 
L 107.135894 18.864105 
L 106.290335 19.600031 
z
M 103.418709 21.788038 
L 103.641988 21.29826 
L 103.790609 20.963168 
z
M 100.642123 23.195802 
L 102.998001 22.710913 
L 101.855218 22.933593 
z
" clip-path="url(#p9f8d488327)" style="fill: #eeeeee; stroke: #000000; stroke-width: 0.3"/>
    <path d="M 102.149379 -3.341015 
L 102.349127 -3.396825 
L 102.726394 -2.994991 
L 102.275253 -3.04094 
z
" clip-path="url(#p9f8d488327)" style="fill: #eeeeee; stroke: #000000; stroke-width: 0.3"/>
    <path d="M 99.611433 -1.181697 
L 100.117804 -1.082357 
L 100.218215 -0.866553 
L 99.70037 -1.048867 
z
" clip-path="url(#p9f8d488327)" style="fill: #eeeeee; stroke: #000000; stroke-width: 0.3"/>
    <path d="M 95.297968 -17.751534 
L 96.047121 -18.173837 
L 96.658565 -18.077843 
L 96.03744 -18.111886 
z
" clip-path="url(#p9f8d488327)" style="fill: #eeeeee; stroke: #000000; stroke-width: 0.3"/>
    <path d="M 102.996613 -3.170314 
L 103.217428 -3.163173 
L 103.097623 -2.940182 
z
" clip-path="url(#p9f8d488327)" style="fill: #eeeeee; stroke: #000000; stroke-width: 0.3"/>
    <path d="M 99.794329 2.1729 
L 99.884702 2.1729 
L 100.008064 2.547019 
z
" clip-path="url(#p9f8d488327)" style="fill: #eeeeee; stroke: #000000; stroke-width: 0.3"/>
    <path d="M 96.7744 -18.066308 
L 96.90171 -18.048075 
L 97.682781 -17.723256 
z
" clip-path="url(#p9f8d488327)" style="fill: #eeeeee; stroke: #000000; stroke-width: 0.3"/>
    <path d="M 95.452172 -17.470995 
L 95.528201 -17.457599 
L 95.538239 -17.410905 
z
" clip-path="url(#p9f8d488327)" style="fill: #eeeeee; stroke: #000000; stroke-width: 0.3"/>
    <path d="M 137.934505 54.963349 
L 138.254036 54.95014 
L 138.385289 54.402454 
L 138.748926 55.120178 
L 138.294917 52.867098 
L 138.924653 51.892083 
L 138.724901 49.809041 
L 139.812419 49.053076 
L 140.026933 48.430043 
L 140.445716 48.466427 
L 140.584628 47.861824 
L 140.14899 47.344404 
L 140.174496 46.538737 
L 140.74813 45.781269 
L 140.379901 45.442939 
L 140.98815 44.834317 
L 141.870805 44.585531 
L 143.685302 45.553038 
L 144.715973 45.082162 
L 149.194827 44.974422 
L 150.362591 45.506495 
L 154.294453 45.908618 
L 156.00192 45.674005 
L 157.148734 47.130347 
L 157.990398 47.173347 
L 159.163626 46.513221 
L 159.875032 44.814946 
L 162.399797 41.680175 
L 166.250818 39.710546 
L 179.218725 37.808962 
L 182.492243 45.569813 
L 182.845212 45.710389 
L 184.117785 48.567999 
L 181.659812 49.460224 
L 180.60296 50.298873 
L 179.998329 51.5788 
L 180.319292 53.260191 
L 176.527259 55.02679 
L 172.941072 55.85502 
L 171.290707 56.793385 
L 170.244617 56.81422 
L 167.733926 57.678171 
L 166.501714 58.273484 
L 166.109028 59.164227 
L 164.75237 60.449731 
L 162.517817 60.790178 
L 161.760415 60.387223 
L 159.034197 62.227116 
L 155.960475 63.253662 
L 151.399921 63.657549 
L 150.24194 64.900452 
L 148.986777 65.396054 
L 148.724265 66.309117 
L 148.374972 66.21647 
L 148.532763 65.867095 
L 147.900163 66.11936 
L 147.943194 66.456085 
L 146.750069 66.046062 
L 145.890462 66.729185 
L 143.822668 67.058841 
L 142.299256 66.335347 
L 141.715063 66.666306 
L 141.737656 65.922348 
L 140.649966 63.923206 
L 140.890599 61.919603 
L 139.47334 58.301391 
L 139.747323 58.627884 
L 139.139823 56.608836 
L 139.413092 56.939237 
L 139.376151 56.31267 
L 139.053395 55.453368 
z
" clip-path="url(#p9f8d488327)" style="fill: #eeeeee; stroke: #000000; stroke-width: 0.3"/>
    <path d="M 185.072066 67.308688 
L 186.006513 66.527107 
L 187.448202 67.056299 
L 188.652515 66.587613 
L 190.507294 67.277434 
L 188.74551 68.18678 
L 186.941699 68.419633 
z
" clip-path="url(#p9f8d488327)" style="fill: #eeeeee; stroke: #000000; stroke-width: 0.3"/>
    <path d="M 137.708935 54.280413 
L 138.048546 54.040053 
L 137.808632 54.286736 
L 137.750534 54.847823 
z
" clip-path="url(#p9f8d488327)" style="fill: #eeeeee; stroke: #000000; stroke-width: 0.3"/>
    <path d="M 184.878968 69.267948 
L 184.983883 69.210944 
L 185.086925 69.283607 
z
" clip-path="url(#p9f8d488327)" style="fill: #eeeeee; stroke: #000000; stroke-width: 0.3"/>
    <path d="M 183.654737 69.04914 
L 183.737089 68.984149 
L 184.100312 69.178908 
z
" clip-path="url(#p9f8d488327)" style="fill: #eeeeee; stroke: #000000; stroke-width: 0.3"/>
    <path d="M 179.595512 68.716544 
L 179.834871 68.688765 
L 181.02481 69.112504 
z
" clip-path="url(#p9f8d488327)" style="fill: #eeeeee; stroke: #000000; stroke-width: 0.3"/>
    <path d="M 141.371864 66.746673 
L 141.631146 66.807691 
L 141.573053 66.90294 
z
" clip-path="url(#p9f8d488327)" style="fill: #eeeeee; stroke: #000000; stroke-width: 0.3"/>
    <path d="M 138.294917 60.588885 
L 138.779051 60.543307 
L 138.690833 61.01491 
z
" clip-path="url(#p9f8d488327)" style="fill: #eeeeee; stroke: #000000; stroke-width: 0.3"/>
    <path d="M 138.279854 62.186375 
L 138.302091 62.024338 
L 138.748926 61.70101 
z
" clip-path="url(#p9f8d488327)" style="fill: #eeeeee; stroke: #000000; stroke-width: 0.3"/>
    <path d="M 96.383745 24.093961 
L 97.314543 24.093756 
L 100.363191 24.093756 
L 99.988352 25.136637 
L 98.046422 25.39448 
z
" clip-path="url(#p9f8d488327)" style="fill: #eeeeee; stroke: #000000; stroke-width: 0.3"/>
   </g>
   <g id="PatchCollection_2">
    <path d="M 46.272054 66.164482 
L 46.953402 64.771462 
L 48.291044 63.691492 
L 47.442092 61.653466 
L 48.057854 60.847447 
L 49.519383 60.010356 
L 49.00245 59.439307 
L 48.713696 58.164062 
L 50.093242 57.499094 
L 50.015362 56.728984 
L 51.333421 55.155223 
L 51.10752 53.601775 
L 51.935523 52.857186 
L 55.856452 52.779928 
L 55.842791 33.237938 
L 60.246039 33.207576 
L 60.249229 24.094226 
L 87.866775 24.098716 
L 88.637389 23.035284 
L 88.93935 23.281002 
L 88.691134 24.094226 
L 96.383745 24.093961 
L 98.057175 25.402888 
L 99.988352 25.136637 
L 100.363191 24.093756 
L 112.699582 24.092567 
L 112.718231 25.672569 
L 114.591655 28.38125 
L 114.322691 28.617331 
L 114.224787 28.060528 
L 113.675024 27.696266 
L 114.217256 30.633773 
L 113.984155 31.620505 
L 114.286829 35.154815 
L 115.126356 38.421233 
L 115.591126 39.087984 
L 116.185675 38.973386 
L 116.552939 39.486846 
L 117.290789 39.686204 
L 118.156059 40.471416 
L 117.954501 40.769429 
L 118.287449 41.22109 
L 118.968237 40.959506 
L 118.576626 41.36562 
L 119.344068 41.336039 
L 120.280065 42.297662 
L 118.647398 44.529538 
L 118.145496 44.438573 
L 117.95603 44.739105 
L 117.790249 44.426759 
L 115.398245 45.505786 
L 114.990166 46.796265 
L 113.095511 46.647181 
L 113.211196 47.654853 
L 112.668303 49.15703 
L 113.010801 50.232748 
L 111.762425 52.770948 
L 111.572501 54.039692 
L 110.678917 55.466975 
L 111.125255 59.444267 
L 110.529988 62.480868 
L 109.409134 65.072817 
L 109.350383 66.494664 
L 107.42931 66.77913 
L 105.79745 69.684719 
L 104.71941 70.621278 
L 104.72123 71.855293 
L 104.15329 73.20732 
L 104.21523 74.806721 
L 103.687369 75.603523 
L 103.316637 75.809314 
L 102.525073 74.894847 
L 101.223865 76.35166 
L 101.428358 77.915029 
L 100.303784 81.430777 
L 99.469714 81.22676 
L 99.874377 79.600782 
L 99.626385 78.139245 
L 97.265809 75.984623 
L 96.202572 75.558278 
L 95.952307 71.625759 
L 96.507495 68.831329 
L 94.403561 68.804867 
L 94.469146 69.780645 
L 91.541087 69.793995 
L 92.713858 71.150274 
L 92.715682 72.958886 
L 93.076851 73.989359 
L 90.927145 75.939968 
L 89.701768 77.957672 
L 87.496502 80.016136 
L 85.737794 80.197709 
L 82.422606 77.700501 
L 80.670733 78.671314 
L 80.663903 79.328248 
L 80.087536 80.02677 
L 77.578992 81.09044 
L 77.270558 82.025354 
L 73.750784 81.993981 
L 73.089611 80.786955 
L 69.499559 80.734738 
L 67.496054 81.31158 
L 64.321824 78.108412 
L 63.982746 77.018992 
L 60.670973 77.625602 
L 60.227368 79.086434 
L 59.434663 79.765342 
L 59.417582 81.129892 
L 58.922515 81.802184 
L 58.385774 84.026978 
L 56.427583 84.964716 
L 53.678058 84.731759 
L 54.019186 83.624265 
L 53.438492 83.422612 
L 53.608375 82.728818 
L 54.304295 82.240106 
L 54.35986 79.563218 
L 52.80178 76.926728 
L 50.906213 74.734776 
L 51.314292 73.217836 
L 51.143047 72.554167 
L 50.513166 72.521797 
L 49.498887 71.471125 
L 49.810411 69.46027 
L 49.130429 69.654004 
L 49.244748 69.039951 
L 48.754687 67.675757 
L 49.075777 66.999327 
L 48.014589 66.394486 
L 47.578273 66.819528 
L 46.82952 66.869144 
z
" clip-path="url(#p9f8d488327)" style="fill: #ff6b6b; stroke: #dd0000; stroke-width: 0.5"/>
    <path d="M 114.285036 29.540997 
L 114.461833 29.409657 
L 114.333448 29.7888 
z
" clip-path="url(#p9f8d488327)" style="fill: #ff6b6b; stroke: #dd0000; stroke-width: 0.5"/>
   </g>
  </g>
 </g>
 <defs>
  <clipPath id="p9f8d488327">
   <rect x="0" y="0" width="166.552119" height="108"/>
  </clipPath>
 </defs>
</svg>
