<?xml version="1.0" encoding="utf-8" standalone="no"?>
<!DOCTYPE svg PUBLIC "-//W3C//DTD SVG 1.1//EN"
  "http://www.w3.org/Graphics/SVG/1.1/DTD/svg11.dtd">
<svg xmlns:xlink="http://www.w3.org/1999/xlink" width="118.265682pt" height="108pt" viewBox="0 0 118.265682 108" xmlns="http://www.w3.org/2000/svg" version="1.1">
 <metadata>
  <rdf:RDF xmlns:dc="http://purl.org/dc/elements/1.1/" xmlns:cc="http://creativecommons.org/ns#" xmlns:rdf="http://www.w3.org/1999/02/22-rdf-syntax-ns#">
   <cc:Work>
    <dc:type rdf:resource="http://purl.org/dc/dcmitype/StillImage"/>
    <dc:date>2025-09-05T13:56:19.425720</dc:date>
    <dc:format>image/svg+xml</dc:format>
    <dc:creator>
     <cc:Agent>
      <dc:title>Matplotlib v3.10.3, https://matplotlib.org/</dc:title>
     </cc:Agent>
    </dc:creator>
   </cc:Work>
  </rdf:RDF>
 </metadata>
 <defs>
  <style type="text/css">*{stroke-linejoin: round; stroke-linecap: butt}</style>
 </defs>
 <g id="figure_1">
  <g id="patch_1">
   <path d="M -0 108 
L 118.265682 108 
L 118.265682 0 
L -0 0 
z
" style="fill: #ffffff"/>
  </g>
  <g id="axes_1">
   <g id="PatchCollection_1">
    <path d="M -95.87399 27.219948 
L -95.828302 24.169181 
L -93.428317 22.259608 
L -86.385313 20.458695 
L -84.924815 22.259608 
L -84.428088 20.451592 
L -81.736489 21.331455 
L -80.906353 18.554096 
L -77.495428 18.025044 
L -77.385586 19.388513 
L -75.843913 18.042095 
L -76.250231 19.985037 
L -74.849015 18.91201 
L -70.957404 24.364473 
L -66.582206 21.056632 
L -66.752321 22.259608 
L -65.35937 23.09331 
L -63.432282 21.90241 
L -62.57152 24.284925 
L -63.1499 22.021715 
L -62.157426 21.056632 
L -60.940419 20.819453 
L -60.370317 22.498933 
L -55.121242 22.021715 
L -57.475062 20.208724 
L -58.06412 18.424861 
L -56.929745 15.207929 
L -57.952343 15.289589 
L -58.153549 12.027909 
L -57.412855 11.860314 
L -60.614786 9.098593 
L -61.429369 6.53 
L -60.889881 4.979058 
L -62.033012 3.158266 
L -58.108841 4.450721 
L -54.004354 3.657492 
L -53.582974 4.903785 
L -54.520515 6.055627 
L -52.330001 9.766828 
L -50.150656 8.949462 
L -41.539259 10.907308 
L -34.004891 7.906262 
L -33.027002 7.181202 
L -35.849836 7.696764 
L -38.002939 6.458987 
L -36.100636 3.067374 
L -24.331037 -1.290056 
L -20.749997 -5.403186 
L -18.940038 -5.016877 
L -20.505038 -6.506736 
L -19.682691 -8.125866 
L -20.341744 -8.720958 
L -20.03846 -16.819397 
L -8.795962 -20.636936 
L -7.760966 -18.430725 
L -8.02021 -16.41143 
L -5.631441 -14.281189 
L -1.540297 -15.25341 
L 0.153442 -10.853153 
L 4.181639 -9.972924 
L 5.239605 -6.861439 
L 8.899908 -7.661405 
L 11.220785 -6.167898 
L 10.362807 -3.893361 
L 11.368921 -2.706493 
L 10.433172 -1.220194 
L 16.574828 -1.386131 
L 18.601892 -4.472362 
L 19.274693 -4.09628 
L 18.224133 -0.928878 
L 19.135193 -0.144253 
L 19.001867 1.93548 
L 23.901611 3.730216 
L 26.253352 7.087901 
L 29.719832 6.206782 
L 32.280196 8.093509 
L 37.560183 7.67233 
L 41.27542 13.023168 
L 43.671595 12.188925 
L 45.202374 13.91783 
L 47.971375 13.962927 
L 49.597221 12.8473 
L 52.278561 15.13627 
L 59.0313 16.518849 
L 54.372287 22.514536 
L 53.661204 27.290421 
L 51.689706 30.984065 
L 52.11314 33.746519 
L 50.808269 38.356014 
L 51.69403 40.497476 
L 49.21576 43.184675 
L 44.375261 42.164652 
L 43.101254 44.519452 
L 45.130779 44.949654 
L 40.697674 50.328904 
L 38.0367 51.674956 
L 37.876212 54.874819 
L 34.164057 57.970056 
L 33.397431 60.83307 
L 34.362815 61.6885 
L 33.872717 63.736662 
L 32.209831 64.663803 
L 32.25798 65.875925 
L 34.425774 65.531415 
L 36.108405 63.963037 
L 35.307212 62.647195 
L 35.96396 61.607782 
L 38.518149 60.323966 
L 42.150682 60.924608 
L 41.712436 62.122768 
L 42.635846 63.449866 
L 41.89514 65.507051 
L 44.957953 69.457281 
L 42.314872 71.181665 
L 42.256845 73.072005 
L 46.613422 78.433681 
L 45.356698 81.87615 
L 39.948941 83.799841 
L 41.653179 87.214352 
L 44.77894 88.710581 
L 45.352983 91.105051 
L 44.214774 91.134825 
L 42.732131 93.737642 
L 43.712338 95.443091 
L 43.095079 96.563221 
L 44.48883 98.838666 
L 48.647879 100.871504 
L 52.525467 99.984957 
L 52.935321 101.882505 
L 50.402118 105.404784 
L 50.38469 107.165382 
L 46.50524 109.082773 
L 46.353472 110.841121 
L 44.241327 111.083936 
L 43.428392 113.046965 
L 41.482837 113.392191 
L 39.807565 115.817185 
L 41.031667 115.746067 
L 40.869544 116.992517 
L 37.23326 118.924708 
L 35.057284 118.611751 
L 34.900499 119.883177 
L 32.044041 118.171148 
L 31.036827 119.727728 
L 28.854723 117.370606 
L 24.949579 116.742145 
L 24.318823 114.306261 
L 21.211433 114.655239 
L 21.117214 113.366326 
L 23.508456 112.127851 
L 21.153179 110.761538 
L 21.415625 113.01836 
L 19.230463 113.154716 
L 19.082386 114.545236 
L 17.912356 113.139096 
L 17.728637 111.35663 
L 17.157077 110.403624 
L 17.729616 113.135536 
L 18.658366 114.465357 
L 8.298774 111.086781 
L -1.722105 118.654754 
L -2.584311 126.983984 
L -0.922464 130.432073 
L -3.875973 129.755949 
L -7.119017 132.04581 
L -11.715082 130.481952 
L -15.080343 131.877167 
L -18.466591 129.346045 
L -18.349307 127.31907 
L -21.845433 127.571589 
L -22.881182 125.594685 
L -29.208014 123.448668 
L -31.078294 123.330061 
L -31.230133 126.016754 
L -39.382799 126.005026 
L -42.773371 123.258821 
L -45.714576 124.47815 
L -47.991628 121.443788 
L -52.653114 120.410239 
L -54.27896 118.604666 
L -56.322674 119.723452 
L -55.681968 116.263391 
L -58.290482 116.199358 
L -60.37556 113.976236 
L -58.757681 113.534637 
L -56.558412 110.38659 
L -53.934849 93.353165 
L -53.090141 91.443593 
L -51.396832 91.374708 
L -52.919549 89.475084 
L -53.972271 92.107587 
L -51.880909 75.674229 
L -48.069495 79.914465 
L -47.469734 83.257804 
L -45.304006 87.438406 
L -46.038883 85.175195 
L -44.815557 85.640337 
L -46.753335 83.875637 
L -48.419435 77.278436 
L -53.816263 73.215726 
L -52.81894 71.526298 
L -50.7091 73.085758 
L -52.67459 70.453987 
L -51.443965 67.475665 
L -53.380299 65.106623 
L -52.185161 62.870394 
L -53.730238 63.192094 
L -60.36303 59.52208 
L -61.730695 56.079332 
L -64.225472 53.842387 
L -62.695947 50.082912 
L -65.686949 48.213812 
L -64.780022 47.770696 
L -64.724624 45.967635 
L -59.5465 47.022197 
L -62.927779 45.120443 
L -66.132147 46.400124 
L -69.280626 45.462737 
L -68.016951 45.342002 
L -69.452676 44.011919 
L -67.487186 43.306755 
L -68.716341 42.127914 
L -67.153777 41.866582 
L -70.355709 41.627973 
L -69.965922 41.466067 
L -69.696656 41.032881 
L -72.567125 41.988016 
L -73.667482 40.954764 
L -71.663113 41.078327 
L -71.032261 40.152302 
L -70.97685 39.827775 
L -71.246104 39.483352 
L -73.788994 40.307123 
L -74.449015 39.115507 
L -74.033953 40.913576 
L -76.223977 40.250298 
L -76.324586 42.354447 
L -77.147435 39.53803 
L -76.16128 37.923176 
L -77.058974 37.673921 
L -77.429327 39.244742 
L -79.030782 38.530346 
L -78.12726 38.638289 
L -79.030782 38.291736 
L -78.12726 36.959507 
L -80.083994 38.403938 
L -88.27499 34.576276 
L -88.908279 36.505029 
L -91.137194 36.612972 
L -91.887611 33.672992 
L -95.393317 32.539598 
L -90.104873 31.234368 
L -91.226134 29.192716 
L -93.354929 30.15567 
L -94.177277 28.238279 
L -93.226131 27.195079 
L -92.853831 28.084889 
L -89.913378 28.21484 
L -88.935489 27.88108 
L -92.115562 27.394629 
L -90.158815 25.715865 
z
M -15.655617 130.087388 
L -15.034667 130.215454 
L -15.546981 129.554374 
z
" clip-path="url(#pd9b080c38f)" style="fill: #eeeeee; stroke: #000000; stroke-width: 0.3"/>
    <path d="M 63.197301 131.38117 
L 64.516375 130.460119 
L 65.109327 127.854615 
L 69.990962 125.187329 
L 72.073103 126.186496 
L 72.724368 120.445004 
L 74.126075 120.683614 
L 73.87334 126.78302 
L 74.891076 128.127309 
L 75.267258 135.404822 
L 73.398973 138.783677 
L 73.380507 143.085695 
L 72.073103 144.48255 
L 72.771036 145.271504 
L 71.100075 147.592255 
L 71.248797 148.913821 
L 66.09596 145.620185 
L 67.659981 143.291633 
L 64.463879 142.327266 
L 66.259266 139.586837 
L 63.975907 139.694064 
L 63.641531 138.50388 
L 65.537026 136.974945 
L 63.396572 134.322563 
L 64.853677 133.199134 
z
" clip-path="url(#pd9b080c38f)" style="fill: #eeeeee; stroke: #000000; stroke-width: 0.3"/>
    <path d="M -57.501304 63.758791 
L -54.542385 64.541357 
L -54.223549 65.42691 
L -56.885514 64.528582 
z
" clip-path="url(#pd9b080c38f)" style="fill: #eeeeee; stroke: #000000; stroke-width: 0.3"/>
    <path d="M 74.036646 126.663715 
L 74.341865 127.140218 
L 74.278678 127.157967 
z
" clip-path="url(#pd9b080c38f)" style="fill: #eeeeee; stroke: #000000; stroke-width: 0.3"/>
    <path d="M 34.734673 120.516018 
L 34.841601 120.353397 
L 35.762144 120.464167 
z
" clip-path="url(#pd9b080c38f)" style="fill: #eeeeee; stroke: #000000; stroke-width: 0.3"/>
    <path d="M -55.69912 67.224978 
L -53.820145 68.121892 
L -53.361342 71.396348 
z
" clip-path="url(#pd9b080c38f)" style="fill: #eeeeee; stroke: #000000; stroke-width: 0.3"/>
    <path d="M -66.338227 50.121255 
L -65.196064 50.27536 
L -64.509801 52.273695 
z
" clip-path="url(#pd9b080c38f)" style="fill: #eeeeee; stroke: #000000; stroke-width: 0.3"/>
    <path d="M -67.380748 55.541047 
L -66.36884 55.584364 
L -66.01939 55.981337 
z
" clip-path="url(#pd9b080c38f)" style="fill: #eeeeee; stroke: #000000; stroke-width: 0.3"/>
    <path d="M -77.881811 44.011919 
L -75.551809 45.430782 
L -77.420572 45.252523 
z
" clip-path="url(#pd9b080c38f)" style="fill: #eeeeee; stroke: #000000; stroke-width: 0.3"/>
    <path d="M 105.326468 -7.157257 
L 106.2005 -7.096837 
L 108.005347 -4.463339 
L 110.511388 -8.441527 
L 115.795066 -8.710294 
L 116.476515 -10.255199 
L 121.712056 -12.080598 
L 123.00951 -13.990781 
L 132.445452 -17.01839 
L 132.867657 -17.728161 
L 131.152931 -18.803212 
L 131.740556 -19.751977 
L 134.065123 -19.758295 
L 135.166304 -18.681447 
L 134.879898 -17.574842 
L 135.821822 -17.725456 
L 135.63047 -16.414135 
L 140.036425 -16.649515 
L 139.784586 -18.980877 
L 141.975828 -19.310955 
L 143.473282 -18.282816 
L 144.504098 -15.190285 
L 149.713708 -14.618492 
L 151.85434 -13.500159 
L 151.98026 -12.191543 
L 156.156593 -12.896812 
L 157.282452 -11.562035 
L 154.578895 -8.747259 
L 156.301027 -8.113248 
L 160.08602 -3.280083 
L 164.316665 -5.469837 
L 162.861184 -9.212627 
L 169.206542 -5.854941 
L 172.596493 -7.085109 
L 173.069306 -5.452698 
L 171.180512 -4.505731 
L 171.697772 -3.512759 
L 174.165542 -1.196738 
L 176.471596 -1.706295 
L 176.113593 -2.472892 
L 179.577612 -0.047759 
L 182.763872 -0.036921 
L 183.462605 3.336996 
L 185.501996 4.127049 
L 186.036539 6.890393 
L 182.482398 7.38913 
L 178.002387 11.280737 
L 176.986382 14.97213 
L 172.826103 18.188224 
L 166.140026 18.243234 
L 163.483376 22.703929 
L 162.622926 20.699957 
L 158.400917 19.188404 
L 156.475095 20.55566 
L 153.214766 20.283281 
L 150.027276 18.024084 
L 140.298143 15.625094 
L 139.529044 19.935158 
L 137.866158 19.696164 
L 136.376122 23.191392 
L 133.778717 22.023006 
L 132.077572 23.511103 
L 128.793784 22.756234 
L 123.631703 16.735294 
L 121.46515 16.494503 
L 116.359243 10.648524 
L 112.103897 8.300041 
L 108.999123 2.831051 
L 110.676808 0.001859 
L 107.365871 -2.441338 
L 105.367211 -5.892813 
z
" clip-path="url(#pd9b080c38f)" style="fill: #eeeeee; stroke: #000000; stroke-width: 0.3"/>
    <path d="M 31.055568 -19.4467 
L 34.508479 -21.766334 
L 33.425823 -22.803931 
L 35.231901 -25.874839 
L 35.059075 -27.998308 
L 31.93083 -33.344189 
L 34.614654 -33.805037 
L 34.266518 -34.75923 
L 36.870086 -33.43934 
L 41.633423 -34.961695 
L 42.414872 -36.204499 
L 40.870499 -37.616834 
L 45.008562 -40.58671 
L 45.270279 -42.932959 
L 44.375261 -44.439084 
L 41.287759 -44.61675 
L 40.772972 -46.015123 
L 41.553179 -47.638494 
L 44.914737 -47.486536 
L 46.997344 -53.979144 
L 47.018486 -58.290168 
L 47.736832 -59.590424 
L 49.072425 -59.298567 
L 44.976204 -60.583204 
L 45.308645 -62.960047 
L 46.387622 -63.388975 
L 45.730515 -64.256045 
L 47.394668 -65.645798 
L 57.014078 -66.371556 
L 58.64518 -63.668772 
L 57.558428 -62.193799 
L 59.091357 -61.181856 
L 60.402655 -62.302458 
L 59.400471 -63.180192 
L 59.871911 -64.709825 
L 63.233266 -63.501176 
L 62.491592 -62.502724 
L 62.663642 -60.262935 
L 63.396572 -63.555139 
L 62.444937 -66.238062 
L 63.657083 -69.205024 
L 71.100075 -69.232005 
L 75.539427 -64.333464 
L 78.521686 -63.501176 
L 75.554979 -64.702739 
L 73.303715 -68.516893 
L 71.662891 -69.469183 
L 68.39972 -69.66945 
L 67.580275 -70.373916 
L 66.592674 -72.102385 
L 68.550388 -71.993743 
L 68.802144 -73.174695 
L 66.347715 -74.616281 
L 68.143091 -77.00946 
L 64.742856 -76.164397 
L 63.803858 -77.366658 
L 68.72147 -80.303095 
L 64.865335 -84.29905 
L 64.531425 -87.109131 
L 71.498569 -85.459198 
L 75.51027 -86.584983 
L 78.422534 -84.673299 
L 79.90102 -85.07097 
L 80.74574 -83.704656 
L 79.68523 -83.227455 
L 80.994581 -83.103874 
L 80.848773 -81.23905 
L 78.617923 -79.76125 
L 82.240757 -80.050279 
L 82.962985 -79.511995 
L 82.221311 -77.128049 
L 84.330661 -79.203087 
L 89.262846 -76.880207 
L 94.09103 -78.201075 
L 93.267703 -77.724572 
L 93.267703 -74.675934 
L 89.517528 -72.340994 
L 91.303181 -70.79218 
L 94.563437 -71.780702 
L 97.939377 -69.828528 
L 100.710695 -74.175294 
L 105.469851 -74.853477 
L 105.511657 -73.455923 
L 105.790634 -73.174695 
L 105.717724 -74.660314 
L 110.793782 -79.987782 
L 115.419768 -79.031932 
L 111.872758 -78.847303 
L 110.712128 -77.963181 
L 109.654533 -78.229487 
L 108.822463 -76.164397 
L 112.549298 -78.637106 
L 114.625609 -77.711797 
L 116.466673 -79.11148 
L 117.734218 -76.353284 
L 122.137617 -73.059666 
L 124.865194 -74.496977 
L 126.014153 -73.293302 
L 125.273447 -72.102385 
L 127.183526 -70.472627 
L 126.13858 -69.337103 
L 126.121081 -68.899659 
L 131.465413 -67.131416 
L 130.847186 -66.371556 
L 133.581201 -58.409176 
L 132.407182 -54.86255 
L 130.031994 -53.31447 
L 129.78633 -51.407445 
L 136.008229 -46.630199 
L 134.820641 -43.231029 
L 136.815598 -40.678702 
L 136.504502 -38.673839 
L 137.40075 -37.899563 
L 135.303333 -33.139001 
L 137.055098 -30.598873 
L 136.787206 -28.363116 
L 139.717924 -26.708174 
L 140.514172 -23.241341 
L 139.716681 -20.226822 
L 137.37483 -15.796337 
L 135.63047 -16.414135 
L 135.821822 -17.725456 
L 134.879898 -17.574842 
L 135.166304 -18.681447 
L 134.065123 -19.758295 
L 131.740556 -19.751977 
L 131.152931 -18.803212 
L 132.867657 -17.728161 
L 132.445452 -17.01839 
L 123.00951 -13.990781 
L 121.712056 -12.080598 
L 116.476515 -10.255199 
L 115.795066 -8.710294 
L 110.511388 -8.441527 
L 108.005347 -4.463339 
L 107.279452 -6.134529 
L 105.326468 -7.157257 
L 107.365871 -2.441338 
L 110.676808 0.001859 
L 108.999123 2.831051 
L 112.103897 8.300041 
L 116.359243 10.648524 
L 118.493701 13.730234 
L 121.842909 16.755137 
L 123.631703 16.735294 
L 126.105039 19.872032 
L 124.919912 24.143316 
L 121.791057 23.240084 
L 121.205905 26.6758 
L 113.243349 31.268156 
L 116.256771 35.916447 
L 115.071655 38.072831 
L 117.222154 39.191163 
L 116.383933 42.567331 
L 113.721095 41.017453 
L 113.518647 39.06219 
L 110.348428 39.724614 
L 107.268344 38.852046 
L 107.310317 37.924922 
L 106.490609 40.140382 
L 99.883534 40.409603 
L 95.303522 43.825004 
L 92.22714 43.884534 
L 90.783998 41.439086 
L 85.654633 40.630097 
L 85.643524 43.788476 
L 82.43752 45.96877 
L 83.027605 44.199742 
L 81.517812 44.433779 
L 79.882088 41.262764 
L 77.925401 40.431244 
L 75.90081 41.592405 
L 70.773917 38.999955 
L 67.170397 39.249332 
L 63.306391 36.71821 
L 61.312664 39.086536 
L 63.892785 39.246627 
L 63.496512 40.360893 
L 59.421409 39.845925 
L 57.143749 40.917346 
L 51.977343 40.844308 
L 52.573603 40.288745 
L 51.69403 40.497476 
L 50.808269 38.356014 
L 52.11314 33.746519 
L 51.609462 31.250127 
L 53.661204 27.290421 
L 54.372287 22.514536 
L 59.0313 16.518849 
L 52.278561 15.13627 
L 49.597221 12.8473 
L 47.971375 13.962927 
L 45.202374 13.91783 
L 43.671595 12.188925 
L 41.416151 13.080883 
L 38.86134 8.38301 
L 36.874159 7.848739 
L 38.752704 1.909319 
L 36.363947 1.223894 
L 33.90111 -2.505371 
L 34.503546 -5.392278 
L 37.223155 -7.162668 
L 36.773801 -10.05139 
L 34.789952 -10.696221 
L 35.724471 -12.380029 
L 32.427103 -15.301213 
L 33.511 -17.495486 
z
" clip-path="url(#pd9b080c38f)" style="fill: #eeeeee; stroke: #000000; stroke-width: 0.3"/>
    <path d="M 117.741026 -77.366658 
L 119.549039 -78.201075 
L 118.236773 -78.915472 
L 119.623895 -79.880555 
L 118.074447 -80.941504 
L 119.919392 -80.536015 
L 120.773822 -81.678624 
L 120.528875 -80.605615 
L 122.418541 -79.987782 
L 122.581847 -81.427955 
L 121.634094 -81.190759 
L 120.770908 -82.149455 
L 119.386712 -81.320727 
L 119.866908 -82.675662 
L 119.120372 -82.86811 
L 121.029472 -83.47671 
L 121.432876 -81.678624 
L 124.372361 -81.348424 
L 123.235059 -79.701598 
L 125.516459 -77.485963 
L 124.999331 -76.324889 
L 123.730807 -77.00946 
L 124.614406 -77.605267 
L 122.33008 -77.485963 
L 120.657184 -76.273754 
L 121.225829 -75.449285 
z
" clip-path="url(#pd9b080c38f)" style="fill: #eeeeee; stroke: #000000; stroke-width: 0.3"/>
    <path d="M 125.3551 -74.13908 
L 126.095806 -74.496977 
L 130.815115 -70.39238 
L 130.704819 -69.339896 
L 126.396176 -68.853497 
L 127.489725 -69.709224 
L 127.16506 -71.386574 
L 128.883643 -70.434266 
L 128.918641 -71.554868 
L 127.661786 -72.628609 
L 125.607835 -71.863793 
L 126.095806 -73.233649 
z
" clip-path="url(#pd9b080c38f)" style="fill: #eeeeee; stroke: #000000; stroke-width: 0.3"/>
    <path d="M 60.036184 -84.422613 
L 60.198523 -87.392419 
L 61.102535 -89.529239 
L 61.605079 -90.058989 
L 62.173735 -89.803346 
L 61.277499 -87.072848 
L 64.456103 -87.062202 
L 60.307397 -86.569363 
z
" clip-path="url(#pd9b080c38f)" style="fill: #eeeeee; stroke: #000000; stroke-width: 0.3"/>
    <path d="M 96.959553 -71.149379 
L 97.568056 -71.86662 
L 98.419572 -71.863793 
L 97.939377 -70.79218 
z
" clip-path="url(#pd9b080c38f)" style="fill: #eeeeee; stroke: #000000; stroke-width: 0.3"/>
    <path d="M 66.347715 -79.880555 
L 66.725844 -80.53673 
L 68.143091 -80.605615 
L 67.244919 -79.641945 
z
" clip-path="url(#pd9b080c38f)" style="fill: #eeeeee; stroke: #000000; stroke-width: 0.3"/>
    <path d="M 117.09461 -79.641945 
L 117.583561 -81.869658 
L 117.781853 -81.700649 
z
" clip-path="url(#pd9b080c38f)" style="fill: #eeeeee; stroke: #000000; stroke-width: 0.3"/>
    <path d="M 98.850186 -72.947465 
L 99.829043 -73.423252 
L 98.917255 -72.460298 
z
" clip-path="url(#pd9b080c38f)" style="fill: #eeeeee; stroke: #000000; stroke-width: 0.3"/>
    <path d="M 92.540602 -79.641945 
L 93.920915 -80.82007 
L 96.225655 -78.688224 
z
" clip-path="url(#pd9b080c38f)" style="fill: #eeeeee; stroke: #000000; stroke-width: 0.3"/>
    <path d="M 64.030351 -80.06377 
L 64.986847 -81.214913 
L 65.011143 -81.026008 
z
" clip-path="url(#pd9b080c38f)" style="fill: #eeeeee; stroke: #000000; stroke-width: 0.3"/>
    <path d="M 61.351376 -83.941851 
L 61.855867 -84.529142 
L 63.73096 -84.061156 
z
" clip-path="url(#pd9b080c38f)" style="fill: #eeeeee; stroke: #000000; stroke-width: 0.3"/>
    <path d="M 60.120764 -83.10815 
L 61.205569 -82.620984 
L 61.433029 -82.513041 
z
" clip-path="url(#pd9b080c38f)" style="fill: #eeeeee; stroke: #000000; stroke-width: 0.3"/>
    <path d="M 58.441059 -66.480215 
L 58.458546 -66.914116 
L 58.979568 -66.718824 
z
" clip-path="url(#pd9b080c38f)" style="fill: #eeeeee; stroke: #000000; stroke-width: 0.3"/>
    <path d="M 55.655157 -74.729914 
L 55.800965 -74.874786 
L 55.843738 -74.780334 
z
" clip-path="url(#pd9b080c38f)" style="fill: #eeeeee; stroke: #000000; stroke-width: 0.3"/>
    <path d="M 55.204119 -74.850632 
L 55.379095 -74.863425 
L 55.434505 -74.575809 
z
" clip-path="url(#pd9b080c38f)" style="fill: #eeeeee; stroke: #000000; stroke-width: 0.3"/>
    <path d="M 54.900846 -67.70663 
L 55.416027 -67.911137 
L 56.108131 -67.677502 
z
" clip-path="url(#pd9b080c38f)" style="fill: #eeeeee; stroke: #000000; stroke-width: 0.3"/>
    <path d="M 52.891615 -67.644133 
L 54.403152 -67.681778 
L 53.631342 -67.294038 
z
" clip-path="url(#pd9b080c38f)" style="fill: #eeeeee; stroke: #000000; stroke-width: 0.3"/>
    <path d="M 50.343864 -66.786993 
L 51.93998 -67.323148 
L 52.185907 -67.119339 
z
" clip-path="url(#pd9b080c38f)" style="fill: #eeeeee; stroke: #000000; stroke-width: 0.3"/>
    <path d="M 49.513741 -66.871497 
L 49.896719 -66.718824 
L 49.725649 -66.599519 
z
" clip-path="url(#pd9b080c38f)" style="fill: #eeeeee; stroke: #000000; stroke-width: 0.3"/>
    <path d="M 46.767698 -66.255096 
L 47.476321 -66.744392 
L 48.835242 -66.635733 
z
" clip-path="url(#pd9b080c38f)" style="fill: #eeeeee; stroke: #000000; stroke-width: 0.3"/>
    <path d="M 43.186658 -65.755154 
L 45.256149 -66.128688 
L 45.714963 -66.003712 
z
" clip-path="url(#pd9b080c38f)" style="fill: #eeeeee; stroke: #000000; stroke-width: 0.3"/>
    <path d="M 40.627248 -64.469802 
L 42.122266 -64.835535 
L 41.785931 -63.837781 
z
" clip-path="url(#pd9b080c38f)" style="fill: #eeeeee; stroke: #000000; stroke-width: 0.3"/>
    <path d="M 29.392694 0.239054 
L 32.291305 -4.547215 
L 34.152949 -3.758977 
L 35.409672 0.313 
L 36.363947 1.223894 
L 36.744166 1.131902 
L 37.492278 1.683852 
L 38.273716 1.737972 
L 38.688514 1.843489 
L 38.752704 1.909319 
L 36.874159 7.848739 
L 32.280196 8.093509 
L 30.249442 6.410591 
L 31.381476 4.564458 
z
" clip-path="url(#pd9b080c38f)" style="fill: #eeeeee; stroke: #000000; stroke-width: 0.3"/>
    <path d="M -8.795962 -20.636936 
L 1.089538 -25.657679 
L 1.594112 -23.415865 
L 4.19645 -24.177942 
L 7.988849 -22.708781 
L 11.506105 -25.531638 
L 12.543717 -23.842681 
L 11.978835 -25.555687 
L 13.772502 -25.335054 
L 13.989773 -27.171727 
L 16.387191 -26.407836 
L 18.161173 -27.754341 
L 18.687069 -26.328933 
L 17.963646 -26.323523 
L 19.733926 -25.948785 
L 21.133853 -27.430564 
L 23.378188 -23.624648 
L 26.696531 -24.10986 
L 30.708674 -21.839826 
L 28.264351 -16.147183 
L 35.724471 -12.380029 
L 34.789952 -10.696221 
L 36.773801 -10.05139 
L 37.223155 -7.162668 
L 34.626993 -5.5438 
L 34.152949 -3.758977 
L 32.291305 -4.547215 
L 29.392694 0.239054 
L 31.381476 4.564458 
L 30.807432 6.002955 
L 26.253352 7.087901 
L 23.901611 3.730216 
L 19.001867 1.93548 
L 19.135193 -0.144253 
L 18.224133 -0.928878 
L 19.164815 -4.232461 
L 14.411978 -0.532953 
L 10.433172 -1.220194 
L 11.368921 -2.706493 
L 10.362807 -3.893361 
L 11.220785 -6.167898 
L 8.899908 -7.661405 
L 5.239605 -6.861439 
L 4.181639 -9.972924 
L 0.153442 -10.853153 
L -1.540297 -15.25341 
L -5.631441 -14.281189 
L -8.02021 -16.41143 
L -7.760966 -18.430725 
z
" clip-path="url(#pd9b080c38f)" style="fill: #eeeeee; stroke: #000000; stroke-width: 0.3"/>
    <path d="M 74.808276 46.113974 
L 76.341528 43.549936 
L 75.122741 41.371353 
L 77.925401 40.431244 
L 80.798093 42.184495 
L 81.517812 44.433779 
L 83.027605 44.199742 
L 82.43752 45.96877 
L 85.643524 43.788476 
L 85.654633 40.630097 
L 90.783998 41.439086 
L 92.22714 43.884534 
L 95.303522 43.825004 
L 99.883534 40.409603 
L 106.490609 40.140382 
L 106.526407 38.382175 
L 107.310317 37.924922 
L 107.268344 38.852046 
L 110.348428 39.724614 
L 113.518647 39.06219 
L 113.721095 41.017453 
L 116.383933 42.567331 
L 117.222154 39.191163 
L 115.071655 38.072831 
L 116.256771 35.916447 
L 113.316187 31.142795 
L 121.205905 26.6758 
L 121.791057 23.240084 
L 124.919912 24.143316 
L 126.105039 19.872032 
L 129.199935 22.921281 
L 132.192383 23.498485 
L 133.778717 22.023006 
L 136.376122 23.191392 
L 137.866158 19.696164 
L 139.529044 19.935158 
L 140.036425 15.657556 
L 150.027276 18.024084 
L 153.214766 20.283281 
L 156.475095 20.55566 
L 158.400917 19.188404 
L 162.622926 20.699957 
L 163.483376 22.703929 
L 162.282195 26.867445 
L 165.911646 33.153085 
L 164.188273 35.634154 
L 165.040087 38.335734 
L 161.720502 38.91203 
L 158.977433 37.538019 
L 157.066422 39.158685 
L 159.723072 39.845018 
L 160.426739 41.310566 
L 159.850222 42.795958 
L 157.378749 43.774497 
L 157.84786 45.86957 
L 157.125679 47.433864 
L 158.281172 48.300132 
L 157.26764 50.280194 
L 158.004644 50.725719 
L 155.478847 50.625176 
L 151.976557 53.707794 
L 152.394999 56.447717 
L 150.412441 55.50883 
L 147.847131 55.629688 
L 145.776875 57.425785 
L 140.9907 56.816556 
L 138.463661 57.661619 
L 134.760154 61.544657 
L 109.254665 56.108582 
L 107.601657 53.001618 
L 105.932607 52.290938 
L 106.574556 49.213277 
L 101.250135 51.2132 
L 94.556653 51.331335 
L 92.435764 54.730069 
L 86.336082 53.381766 
L 84.988007 50.76586 
L 81.857301 53.368677 
L 79.036449 51.967161 
L 78.831528 50.430355 
L 75.525524 49.707965 
z
" clip-path="url(#pd9b080c38f)" style="fill: #eeeeee; stroke: #000000; stroke-width: 0.3"/>
    <path d="M 39.948941 83.799841 
L 45.988757 81.081594 
L 46.613422 78.433681 
L 44.48883 76.684932 
L 44.256747 74.423031 
L 42.090195 72.036659 
L 44.957953 69.457281 
L 46.528233 70.307754 
L 51.157635 68.43005 
L 54.772263 69.562798 
L 57.959753 65.937253 
L 57.681994 63.409289 
L 61.406488 60.261277 
L 61.871896 64.045115 
L 66.301299 66.586604 
L 65.811201 68.448078 
L 67.042005 69.076696 
L 67.388899 71.182573 
L 68.612297 71.28179 
L 69.33695 69.916331 
L 68.608594 67.466834 
L 71.268947 64.118171 
L 71.955329 59.472585 
L 73.774988 59.455901 
L 74.99098 62.941216 
L 79.553708 61.675428 
L 81.432624 64.312975 
L 82.426399 63.572522 
L 81.623976 62.411815 
L 82.209128 61.121227 
L 80.842538 60.364543 
L 80.919079 58.851193 
L 82.822684 57.213389 
L 85.831173 58.768224 
L 86.011405 57.270197 
L 84.937385 56.417926 
L 85.948445 53.066558 
L 92.435764 54.730069 
L 94.556653 51.331335 
L 101.250135 51.2132 
L 106.574556 49.213277 
L 105.932607 52.290938 
L 107.601657 53.001618 
L 109.254665 56.108582 
L 124.734114 59.08207 
L 120.724444 63.08642 
L 121.260217 64.523102 
L 123.974894 65.004718 
L 121.877476 68.041332 
L 123.598377 68.407501 
L 123.121861 71.114037 
L 125.663079 72.630983 
L 127.048194 74.578148 
L 126.487731 75.401552 
L 124.863247 75.252404 
L 126.014153 74.883844 
L 123.220475 71.82456 
L 121.159727 73.817205 
L 120.773822 72.60997 
L 117.786714 72.132752 
L 117.376514 74.402367 
L 109.477622 77.960162 
L 111.365341 75.956155 
L 109.155871 76.194048 
L 106.262074 80.134609 
L 107.169968 82.040639 
L 108.087585 81.57904 
L 108.822463 85.413805 
L 108.822463 84.460083 
L 110.793782 86.128201 
L 109.727443 88.737964 
L 109.277383 87.502317 
L 109.388193 89.038355 
L 107.598647 88.630737 
L 108.822463 98.682763 
L 112.677618 103.221279 
L 123.714287 110.728169 
L 129.206374 127.511623 
L 136.777674 134.899924 
L 137.153856 136.485666 
L 142.226019 139.222535 
L 153.873139 139.360304 
L 154.397075 141.808877 
L 151.001702 144.687773 
L 151.730738 147.396247 
L 164.822326 153.986344 
L 169.826441 158.379272 
L 176.168096 161.511001 
L 182.249252 170.437452 
L 180.732854 176.05964 
L 176.938939 174.4114 
L 174.449512 167.882368 
L 170.256087 167.567073 
L 166.531187 165.530395 
L 168.000929 164.167624 
L 163.854159 164.269895 
L 159.418689 171.393303 
L 159.73946 173.45698 
L 158.045184 176.790372 
L 158.715895 178.785862 
L 166.03544 183.230641 
L 166.198746 191.008794 
L 159.190261 193.847933 
L 158.998766 200.276125 
L 154.219185 205.272679 
L 153.116881 208.821241 
L 148.425761 208.583348 
L 147.809481 203.927674 
L 149.959658 202.525845 
L 151.21361 198.752879 
L 150.243497 196.445636 
L 154.017979 195.016127 
L 154.84324 192.8225 
L 149.500855 174.7679 
L 147.707415 171.509763 
L 145.149152 172.972554 
L 143.371097 172.354843 
L 141.770131 169.906986 
L 139.189329 168.650029 
L 140.229987 165.928955 
L 137.646689 161.176526 
L 132.398582 162.908555 
L 133.969423 160.13261 
L 131.820214 158.228727 
L 128.875844 159.087089 
L 128.561069 156.779183 
L 124.983779 151.010151 
L 122.858877 151.80907 
L 119.775532 150.253851 
L 116.894372 151.444053 
L 115.090241 148.445834 
L 112.00496 147.60503 
L 107.272035 142.565159 
L 104.660141 138.083469 
L 102.356381 137.366228 
L 100.334513 133.086933 
L 96.97121 130.86135 
L 93.745951 131.134044 
L 94.723363 129.580692 
L 94.365146 128.118792 
L 91.798928 124.995597 
L 89.262846 123.923286 
L 89.647784 121.936312 
L 86.494443 121.548572 
L 86.836607 116.203337 
L 84.317057 111.912681 
L 83.533577 105.73446 
L 81.609893 102.614807 
L 78.673322 101.16186 
L 78.5246 102.319391 
L 71.338226 96.884694 
L 71.100075 97.729042 
L 65.74504 95.516251 
L 62.205807 97.747506 
L 57.447618 104.860984 
L 50.693804 106.683923 
L 50.402118 105.404784 
L 52.935321 101.882505 
L 52.525467 99.984957 
L 48.76269 100.899463 
L 44.376492 98.704282 
L 42.732131 93.737642 
L 44.214774 91.134825 
L 45.352983 91.105051 
L 44.75302 88.607752 
L 41.653179 87.214352 
z
M 109.828255 139.639421 
L 109.840247 139.659718 
L 109.839626 139.640346 
z
M 109.142912 103.958084 
L 110.129927 104.505584 
L 110.176188 103.361945 
z
" clip-path="url(#pd9b080c38f)" style="fill: #eeeeee; stroke: #000000; stroke-width: 0.3"/>
    <path d="M 58.398286 162.514427 
L 58.944571 156.047177 
L 60.34433 158.021375 
L 62.856104 158.434666 
L 66.463386 156.334077 
L 71.338226 150.831194 
L 73.628381 152.260703 
L 73.87334 153.809534 
L 75.267258 153.213727 
L 74.697634 155.1311 
L 76.497871 155.368994 
L 74.606258 156.69056 
L 77.230801 158.1215 
L 76.441492 158.907626 
L 78.142589 164.917536 
L 76.062396 168.275797 
L 77.329953 171.402535 
L 75.348911 187.715176 
L 74.77734 188.494897 
L 68.749659 185.713996 
L 69.537021 186.399997 
L 68.890605 190.401624 
L 66.830825 192.448966 
L 65.197776 191.49596 
L 64.294744 192.687575 
L 63.322695 189.330029 
L 61.091833 186.444012 
L 61.942381 177.107814 
L 62.813343 178.065776 
L 63.396572 178.084241 
L 62.663642 177.727758 
L 63.270199 175.438264 
L 61.351376 174.391521 
L 61.144329 172.27814 
L 62.491592 171.043923 
L 61.1764 164.687461 
L 60.120764 162.476782 
z
" clip-path="url(#pd9b080c38f)" style="fill: #eeeeee; stroke: #000000; stroke-width: 0.3"/>
    <path d="M 109.517481 211.314544 
L 110.304843 207.39812 
L 112.833137 205.837945 
L 113.157802 204.40772 
L 115.180649 207.282376 
L 117.09461 206.315163 
L 117.56703 204.454597 
L 120.161437 203.921269 
L 121.03628 205.971456 
L 125.807106 208.232537 
L 128.551202 206.910255 
L 134.418503 206.997605 
L 139.140727 204.496483 
L 141.300626 205.534011 
L 143.083376 203.150781 
L 143.736588 204.15918 
L 148.034027 202.967565 
L 142.795643 211.935204 
L 141.344367 216.891286 
L 141.48726 219.469093 
L 143.260287 220.726748 
L 142.441822 221.603766 
L 144.220666 225.02168 
L 142.142419 226.547055 
L 141.372556 231.246761 
L 134.126889 228.83086 
L 131.636495 224.456397 
L 124.911849 222.233659 
L 118.440906 216.725104 
L 112.292681 215.361635 
z
" clip-path="url(#pd9b080c38f)" style="fill: #eeeeee; stroke: #000000; stroke-width: 0.3"/>
    <path d="M 81.803323 124.744195 
L 82.11633 123.79262 
L 85.823732 123.207458 
L 85.491291 125.590689 
z
" clip-path="url(#pd9b080c38f)" style="fill: #eeeeee; stroke: #000000; stroke-width: 0.3"/>
    <path d="M 73.803344 152.169811 
L 74.254383 151.294922 
L 74.255351 152.286271 
L 74.129957 152.401317 
z
" clip-path="url(#pd9b080c38f)" style="fill: #eeeeee; stroke: #000000; stroke-width: 0.3"/>
    <path d="M 59.385886 187.303997 
L 60.291834 186.946083 
L 60.291834 188.494897 
L 59.681395 188.450166 
z
" clip-path="url(#pd9b080c38f)" style="fill: #eeeeee; stroke: #000000; stroke-width: 0.3"/>
    <path d="M 142.484583 194.002038 
L 142.783974 193.627789 
L 142.84814 194.281119 
z
" clip-path="url(#pd9b080c38f)" style="fill: #eeeeee; stroke: #000000; stroke-width: 0.3"/>
    <path d="M 139.632592 200.853468 
L 140.3383 201.18084 
L 140.093341 201.418036 
z
" clip-path="url(#pd9b080c38f)" style="fill: #eeeeee; stroke: #000000; stroke-width: 0.3"/>
    <path d="M 139.352635 198.655582 
L 140.003912 199.263467 
L 139.848382 199.858559 
z
" clip-path="url(#pd9b080c38f)" style="fill: #eeeeee; stroke: #000000; stroke-width: 0.3"/>
    <path d="M 137.787634 197.796313 
L 138.661511 197.630149 
L 138.598324 198.360165 
z
" clip-path="url(#pd9b080c38f)" style="fill: #eeeeee; stroke: #000000; stroke-width: 0.3"/>
    <path d="M 134.785942 197.530024 
L 135.042559 197.570496 
L 134.894817 197.971012 
z
" clip-path="url(#pd9b080c38f)" style="fill: #eeeeee; stroke: #000000; stroke-width: 0.3"/>
    <path d="M 132.400529 198.220982 
L 132.572578 198.152098 
L 132.616319 198.364424 
z
" clip-path="url(#pd9b080c38f)" style="fill: #eeeeee; stroke: #000000; stroke-width: 0.3"/>
    <path d="M 126.504071 160.384012 
L 126.667377 159.561655 
L 127.89799 160.038873 
z
" clip-path="url(#pd9b080c38f)" style="fill: #eeeeee; stroke: #000000; stroke-width: 0.3"/>
    <path d="M 121.315258 159.151907 
L 121.428014 158.901238 
L 121.521337 158.879929 
z
" clip-path="url(#pd9b080c38f)" style="fill: #eeeeee; stroke: #000000; stroke-width: 0.3"/>
    <path d="M 118.194979 195.646718 
L 118.579905 195.249763 
L 118.719883 195.410255 
z
" clip-path="url(#pd9b080c38f)" style="fill: #eeeeee; stroke: #000000; stroke-width: 0.3"/>
    <path d="M 114.520617 245.073184 
L 114.856952 245.00786 
L 114.839453 245.254986 
z
" clip-path="url(#pd9b080c38f)" style="fill: #eeeeee; stroke: #000000; stroke-width: 0.3"/>
    <path d="M 110.701438 251.112222 
L 111.054292 251.032692 
L 111.71626 251.590855 
z
" clip-path="url(#pd9b080c38f)" style="fill: #eeeeee; stroke: #000000; stroke-width: 0.3"/>
    <path d="M 108.25672 79.531699 
L 109.065475 78.038994 
L 109.564137 78.350747 
z
" clip-path="url(#pd9b080c38f)" style="fill: #eeeeee; stroke: #000000; stroke-width: 0.3"/>
    <path d="M 108.24701 78.103621 
L 108.76219 77.757784 
L 108.741777 77.958748 
z
" clip-path="url(#pd9b080c38f)" style="fill: #eeeeee; stroke: #000000; stroke-width: 0.3"/>
    <path d="M 107.996221 209.181284 
L 108.170218 208.708324 
L 108.822463 209.076902 
z
" clip-path="url(#pd9b080c38f)" style="fill: #eeeeee; stroke: #000000; stroke-width: 0.3"/>
    <path d="M 104.780673 208.045063 
L 105.056736 207.904449 
L 105.363903 208.640155 
z
" clip-path="url(#pd9b080c38f)" style="fill: #eeeeee; stroke: #000000; stroke-width: 0.3"/>
    <path d="M 103.520892 228.506332 
L 105.032429 228.883409 
L 104.78262 229.738419 
z
" clip-path="url(#pd9b080c38f)" style="fill: #eeeeee; stroke: #000000; stroke-width: 0.3"/>
    <path d="M 90.822018 131.570075 
L 91.752941 132.191694 
L 91.556656 132.399936 
z
" clip-path="url(#pd9b080c38f)" style="fill: #eeeeee; stroke: #000000; stroke-width: 0.3"/>
    <path d="M 84.044876 132.237594 
L 84.301505 132.01532 
L 84.269422 132.309324 
z
" clip-path="url(#pd9b080c38f)" style="fill: #eeeeee; stroke: #000000; stroke-width: 0.3"/>
    <path d="M 81.12873 127.806324 
L 81.476723 127.248161 
L 81.552535 127.97179 
z
" clip-path="url(#pd9b080c38f)" style="fill: #eeeeee; stroke: #000000; stroke-width: 0.3"/>
    <path d="M 78.156851 120.373886 
L 78.221901 119.351123 
L 78.642147 120.07456 
z
" clip-path="url(#pd9b080c38f)" style="fill: #eeeeee; stroke: #000000; stroke-width: 0.3"/>
    <path d="M 73.03931 151.402865 
L 73.531176 150.834754 
L 73.304683 151.73947 
z
" clip-path="url(#pd9b080c38f)" style="fill: #eeeeee; stroke: #000000; stroke-width: 0.3"/>
    <path d="M 60.772029 188.614202 
L 62.418683 189.102066 
L 61.534116 190.986071 
z
" clip-path="url(#pd9b080c38f)" style="fill: #eeeeee; stroke: #000000; stroke-width: 0.3"/>
    <path d="M 59.142874 155.488298 
L 60.534846 153.213727 
L 59.582243 155.525943 
z
" clip-path="url(#pd9b080c38f)" style="fill: #eeeeee; stroke: #000000; stroke-width: 0.3"/>
    <path d="M 32.254277 64.453659 
L 33.820866 63.853017 
L 34.378856 61.881506 
L 33.397431 60.83307 
L 34.164057 57.970056 
L 37.876212 54.874819 
L 38.0367 51.674956 
L 40.697674 50.328904 
L 45.130779 44.949654 
L 43.101254 44.519452 
L 44.375261 42.164652 
L 46.854152 42.179085 
L 47.538062 43.426373 
L 52.30325 40.316704 
L 52.857549 41.20189 
L 63.336025 40.414106 
L 63.892785 39.246627 
L 61.312664 39.086536 
L 63.306391 36.71821 
L 67.170397 39.249332 
L 71.846694 39.35485 
L 76.351406 42.810391 
L 74.404586 47.035234 
L 74.281139 49.58531 
L 78.831528 50.430355 
L 79.036449 51.967161 
L 81.857301 53.368677 
L 85.054669 50.778932 
L 85.948445 53.066558 
L 84.937385 56.417926 
L 86.011405 57.270197 
L 85.831173 58.768224 
L 82.822684 57.213389 
L 80.919079 58.851193 
L 80.842538 60.364543 
L 82.209128 61.121227 
L 81.936302 64.119061 
L 81.037581 64.30486 
L 79.553708 61.675428 
L 74.99098 62.941216 
L 73.774988 59.455901 
L 71.726949 59.686342 
L 71.268947 64.118171 
L 68.608594 67.466834 
L 69.33695 69.916331 
L 68.612297 71.28179 
L 67.388899 71.182573 
L 67.042005 69.076696 
L 65.811201 68.448078 
L 66.301299 66.586604 
L 61.871896 64.045115 
L 61.406488 60.261277 
L 57.681994 63.409289 
L 57.959753 65.937253 
L 54.622884 69.645767 
L 51.157635 68.43005 
L 45.493726 70.068761 
L 41.998843 65.800164 
L 42.150682 60.924608 
L 40.079805 60.196354 
L 36.351596 61.268228 
L 35.307212 62.647195 
L 36.108405 63.963037 
L 32.25798 65.875925 
z
" clip-path="url(#pd9b080c38f)" style="fill: #eeeeee; stroke: #000000; stroke-width: 0.3"/>
    <path d="M 74.281139 49.58531 
L 74.808276 46.113974 
L 75.93785 48.837195 
L 75.525524 49.707965 
z
" clip-path="url(#pd9b080c38f)" style="fill: #eeeeee; stroke: #000000; stroke-width: 0.3"/>
    <path d="M 109.142912 103.958084 
L 110.176188 103.361945 
L 110.129927 104.505584 
z
" clip-path="url(#pd9b080c38f)" style="fill: #eeeeee; stroke: #000000; stroke-width: 0.3"/>
    <path d="M 49.062905 107.896725 
L 49.555248 107.185086 
L 49.523595 107.979816 
z
" clip-path="url(#pd9b080c38f)" style="fill: #eeeeee; stroke: #000000; stroke-width: 0.3"/>
   </g>
   <g id="PatchCollection_2">
    <defs>
     <path id="m516020a455" d="M 32.254277 -43.546341 
L 33.820866 -44.146983 
L 34.378856 -46.118494 
L 33.397431 -47.16693 
L 34.164057 -50.029944 
L 37.876212 -53.125181 
L 38.0367 -56.325044 
L 40.697674 -57.671096 
L 45.130779 -63.050346 
L 43.101254 -63.480548 
L 44.375261 -65.835348 
L 46.854152 -65.820915 
L 47.538062 -64.573627 
L 52.30325 -67.683296 
L 52.857549 -66.79811 
L 63.336025 -67.585894 
L 63.892785 -68.753373 
L 61.312664 -68.913464 
L 63.306391 -71.28179 
L 67.170397 -68.750668 
L 71.846694 -68.64515 
L 76.351406 -65.189609 
L 74.404586 -60.964766 
L 74.281139 -58.41469 
L 78.831528 -57.569645 
L 79.036449 -56.032839 
L 81.857301 -54.631323 
L 85.054669 -57.221068 
L 85.948445 -54.933442 
L 84.937385 -51.582074 
L 86.011405 -50.729803 
L 85.831173 -49.231776 
L 82.822684 -50.786611 
L 80.919079 -49.148807 
L 80.842538 -47.635457 
L 82.209128 -46.878773 
L 81.936302 -43.880939 
L 81.037581 -43.69514 
L 79.553708 -46.324572 
L 74.99098 -45.058784 
L 73.774988 -48.544099 
L 71.726949 -48.313658 
L 71.268947 -43.881829 
L 68.608594 -40.533166 
L 69.33695 -38.083669 
L 68.612297 -36.71821 
L 67.388899 -36.817427 
L 67.042005 -38.923304 
L 65.811201 -39.551922 
L 66.301299 -41.413396 
L 61.871896 -43.954885 
L 61.406488 -47.738723 
L 57.681994 -44.590711 
L 57.959753 -42.062747 
L 54.622884 -38.354233 
L 51.157635 -39.56995 
L 45.493726 -37.931239 
L 41.998843 -42.199836 
L 42.150682 -47.075392 
L 40.079805 -47.803646 
L 36.351596 -46.731772 
L 35.307212 -45.352805 
L 36.108405 -44.036963 
L 32.25798 -42.124075 
z
" style="stroke: #dd0000; stroke-width: 0.5"/>
    </defs>
    <g clip-path="url(#pd9b080c38f)">
     <use xlink:href="#m516020a455" x="0" y="108" style="fill: #ff6b6b; stroke: #dd0000; stroke-width: 0.5"/>
    </g>
   </g>
  </g>
 </g>
 <defs>
  <clipPath id="pd9b080c38f">
   <rect x="0" y="0" width="118.265682" height="108"/>
  </clipPath>
 </defs>
</svg>
