<?xml version="1.0" encoding="utf-8" standalone="no"?>
<!DOCTYPE svg PUBLIC "-//W3C//DTD SVG 1.1//EN"
  "http://www.w3.org/Graphics/SVG/1.1/DTD/svg11.dtd">
<svg xmlns:xlink="http://www.w3.org/1999/xlink" width="143.615834pt" height="108pt" viewBox="0 0 143.615834 108" xmlns="http://www.w3.org/2000/svg" version="1.1">
 <metadata>
  <rdf:RDF xmlns:dc="http://purl.org/dc/elements/1.1/" xmlns:cc="http://creativecommons.org/ns#" xmlns:rdf="http://www.w3.org/1999/02/22-rdf-syntax-ns#">
   <cc:Work>
    <dc:type rdf:resource="http://purl.org/dc/dcmitype/StillImage"/>
    <dc:date>2025-09-05T13:56:19.615309</dc:date>
    <dc:format>image/svg+xml</dc:format>
    <dc:creator>
     <cc:Agent>
      <dc:title>Matplotlib v3.10.3, https://matplotlib.org/</dc:title>
     </cc:Agent>
    </dc:creator>
   </cc:Work>
  </rdf:RDF>
 </metadata>
 <defs>
  <style type="text/css">*{stroke-linejoin: round; stroke-linecap: butt}</style>
 </defs>
 <g id="figure_1">
  <g id="patch_1">
   <path d="M 0 108 
L 143.615834 108 
L 143.615834 0 
L 0 0 
z
" style="fill: #ffffff"/>
  </g>
  <g id="axes_1">
   <g id="PatchCollection_1">
    <path d="M 140.174798 -16.769645 
L 143.168772 -20.767219 
L 143.765542 -19.247484 
L 145.550778 -19.948964 
L 146.942031 -17.943643 
L 148.651215 -17.191406 
L 149.475396 -14.913778 
L 148.782302 -13.004312 
L 149.022747 -11.749483 
L 148.388319 -11.449284 
L 149.061133 -10.193156 
L 148.78013 -8.800651 
L 150.301748 -6.083175 
L 151.979792 -5.927634 
L 151.888542 -4.835765 
L 152.540348 -3.777445 
L 151.840738 -2.367512 
L 150.676174 -1.941391 
L 149.813614 0.823569 
L 147.363532 1.726787 
L 148.058068 3.150226 
L 147.23824 3.269168 
L 147.353392 3.999407 
L 146.566155 4.676925 
L 145.199028 4.257887 
L 145.344445 2.749054 
L 144.620211 2.405291 
L 144.319118 1.234041 
L 141.605811 -0.185242 
L 140.297623 -1.928053 
L 141.596687 -1.320819 
L 140.976239 -2.964131 
L 141.454115 -3.053335 
L 140.401417 -3.890433 
L 140.939745 -6.041499 
L 141.936559 -6.145787 
L 141.740387 -6.837082 
L 141.629762 -6.426424 
L 141.406219 -6.26106 
L 141.888657 -8.976824 
L 141.024142 -10.301432 
L 141.888657 -11.143673 
L 141.358317 -11.75057 
L 142.563846 -11.918329 
L 142.414442 -13.718431 
L 140.826828 -14.001463 
L 140.878746 -16.125245 
z
" clip-path="url(#p3701f15715)" style="fill: #eeeeee; stroke: #000000; stroke-width: 0.3"/>
    <path d="M -59.896929 -24.14132 
L -58.69311 -24.867605 
L -59.462962 -24.987338 
L -57.465333 -25.661476 
L -57.854249 -26.063896 
L -56.746803 -26.554491 
L -55.787625 -26.151379 
L -53.248248 -27.097917 
L -52.403683 -26.318455 
L -52.159896 -27.187803 
L -53.069181 -27.480793 
L -52.111994 -27.825922 
L -53.265065 -27.653012 
L -53.121645 -28.459234 
L -50.290011 -30.138912 
L -49.938444 -29.311425 
L -48.727204 -30.367401 
L -48.769402 -29.80922 
L -46.495485 -29.411598 
L -45.822861 -28.408798 
L -44.233825 -28.394052 
L -44.235822 -27.717849 
L -43.53069 -28.449623 
L -37.400659 -28.480844 
L -35.880338 -29.267169 
L -34.655987 -28.408798 
L -32.668623 -28.359053 
L -32.809191 -27.948396 
L -26.276552 -26.911972 
L -21.68708 -27.868121 
L -21.283616 -27.717849 
L -21.578158 -27.264992 
L -19.954049 -28.047203 
L -18.917602 -27.613899 
L -19.124894 -27.155216 
L -15.951096 -26.383301 
L -15.520261 -27.309594 
L -14.272527 -27.492799 
L -13.728782 -26.776463 
L -9.782 -26.100951 
L -7.443482 -26.932232 
L -7.116104 -26.131144 
L -4.70658 -25.729213 
L -5.082456 -24.057638 
L -3.883493 -24.59813 
L -2.929676 -23.725848 
L -0.194975 -23.226535 
L 1.140877 -21.760618 
L 2.866361 -22.349682 
L 4.85547 -21.022975 
L 6.313713 -21.371317 
L 7.058037 -20.884204 
L 9.730282 -21.046937 
L 9.727381 -22.315266 
L 10.824596 -22.257966 
L 14.536288 -21.221213 
L 15.274284 -18.910905 
L 17.089932 -19.485375 
L 19.207591 -18.172605 
L 21.086978 -18.860148 
L 22.750538 -17.992014 
L 25.685861 -19.210884 
L 27.418562 -18.884245 
L 27.463255 -18.193127 
L 28.376815 -17.969443 
L 26.983095 -17.08706 
L 27.777466 -14.791219 
L 25.680878 -12.821934 
L 21.016442 -10.597498 
L 20.057825 -9.375129 
L 12.257781 -7.251516 
L 10.132982 -5.256886 
L 11.141211 -4.169688 
L 9.872945 -3.148711 
L 9.279875 -3.291428 
L 10.262436 -3.726781 
L 9.076857 -3.358322 
L 2.862423 5.695365 
L 4.020911 10.029738 
L 6.771856 12.220945 
L 1.555672 15.626284 
L 1.596441 16.732006 
L 0.757875 17.10973 
L -0.202452 20.198067 
L -0.870795 20.650241 
L 0.185897 21.687002 
L -4.14763 22.172167 
L -6.580263 23.847334 
L -7.574233 25.164732 
L -8.188114 27.406368 
L -9.774299 29.13305 
L -11.420935 28.286694 
L -12.816077 28.438331 
L -13.919537 29.591395 
L -15.426173 29.004404 
L -25.726535 29.23872 
L -27.52086 31.061806 
L -31.21588 31.874892 
L -32.282537 34.152031 
L -32.889881 33.826286 
L -32.982266 34.812274 
L -34.195497 35.287431 
L -37.17369 33.743945 
L -39.088346 30.838468 
L -38.538042 31.356507 
L -38.172789 31.012061 
L -39.681703 29.971868 
L -39.95258 29.008173 
L -39.337836 28.639031 
L -39.285947 27.890791 
L -38.480448 27.734002 
L -38.281144 27.482874 
L -39.331565 27.742922 
L -39.634942 28.527872 
L -40.41677 27.250615 
L -43.172851 25.506092 
L -42.89114 24.421298 
L -43.660992 24.938991 
L -43.422054 25.457376 
L -46.827376 25.284812 
L -47.527589 21.839887 
L -45.834332 18.672987 
L -44.091463 18.288914 
L -43.555531 16.821251 
L -44.64876 17.015577 
L -46.440512 14.715723 
L -45.818397 12.260977 
L -44.316336 11.269096 
L -43.73623 9.930181 
L -45.731849 8.266236 
L -46.120401 6.190985 
L -47.828507 4.316164 
L -44.071548 4.196347 
L -43.080437 1.538995 
L -44.225444 0.087234 
L -42.482939 -1.388489 
L -42.92219 -2.111317 
L -42.635392 -5.607824 
L -43.520403 -6.949792 
L -42.552466 -7.358046 
L -41.44729 -9.071221 
L -39.166317 -10.280294 
L -38.359157 -11.62313 
L -40.710744 -12.370359 
L -40.589432 -14.128422 
L -41.186923 -14.928592 
L -44.942075 -15.140775 
L -45.455555 -14.226454 
L -47.025692 -13.610156 
L -48.982931 -14.396809 
L -50.206161 -14.048468 
L -50.272794 -14.519899 
L -52.189117 -13.650238 
L -52.543985 -14.442558 
L -51.597056 -15.591287 
L -52.360391 -15.832669 
L -52.488949 -16.54156 
L -55.323596 -15.676469 
L -57.106071 -14.346601 
L -57.205863 -16.250307 
L -56.722564 -16.346711 
L -55.294347 -18.175978 
L -57.009692 -17.408176 
L -55.522452 -18.967445 
L -56.84204 -18.650098 
L -57.536044 -19.203135 
L -56.722564 -19.140347 
L -56.052791 -21.05058 
L -58.122849 -19.82547 
L -58.149365 -21.213195 
L -57.151122 -22.253734 
L -58.640646 -21.633119 
L -58.880726 -22.982422 
L -59.851599 -22.77829 
z
" clip-path="url(#p3701f15715)" style="fill: #eeeeee; stroke: #000000; stroke-width: 0.3"/>
    <path d="M 21.600956 5.187275 
L 24.841758 2.690735 
L 27.407939 1.879706 
L 26.82969 2.345597 
L 27.599549 2.518507 
L 27.106839 3.397459 
L 29.47457 3.726813 
L 29.330863 4.485685 
L 27.920606 6.79182 
L 26.576499 7.779182 
L 25.861956 6.985311 
L 24.655285 6.878275 
L 23.919643 5.337539 
L 22.595493 6.08303 
z
" clip-path="url(#p3701f15715)" style="fill: #eeeeee; stroke: #000000; stroke-width: 0.3"/>
    <path d="M 31.778429 1.46356 
L 33.894098 0.946895 
L 35.519916 2.736357 
L 34.896624 3.163826 
L 31.971175 2.155538 
z
" clip-path="url(#p3701f15715)" style="fill: #eeeeee; stroke: #000000; stroke-width: 0.3"/>
    <path d="M 13.653785 11.016763 
L 14.635772 9.393339 
L 16.38192 9.278066 
L 16.50167 9.801594 
L 14.960382 11.46193 
z
" clip-path="url(#p3701f15715)" style="fill: #eeeeee; stroke: #000000; stroke-width: 0.3"/>
    <path d="M -0.158824 20.381272 
L -0.05817 20.987823 
L 0.037628 21.302077 
L -0.105505 21.145296 
z
" clip-path="url(#p3701f15715)" style="fill: #eeeeee; stroke: #000000; stroke-width: 0.3"/>
    <path d="M 25.545096 8.766553 
L 26.014367 8.483285 
L 25.885235 9.069247 
z
" clip-path="url(#p3701f15715)" style="fill: #eeeeee; stroke: #000000; stroke-width: 0.3"/>
    <path d="M 18.775229 -19.050764 
L 18.838961 -19.308266 
L 19.139515 -18.988895 
z
" clip-path="url(#p3701f15715)" style="fill: #eeeeee; stroke: #000000; stroke-width: 0.3"/>
    <path d="M 14.819148 13.065716 
L 15.158137 12.114592 
L 16.2097 12.972963 
z
" clip-path="url(#p3701f15715)" style="fill: #eeeeee; stroke: #000000; stroke-width: 0.3"/>
    <path d="M -11.90956 42.265977 
L -11.895405 42.204664 
L -11.87514 42.237749 
z
" clip-path="url(#p3701f15715)" style="fill: #eeeeee; stroke: #000000; stroke-width: 0.3"/>
    <path d="M -15.639968 41.360003 
L -15.347473 41.345063 
L -15.283608 41.438381 
z
" clip-path="url(#p3701f15715)" style="fill: #eeeeee; stroke: #000000; stroke-width: 0.3"/>
    <path d="M -22.20967 41.940923 
L -22.200175 41.936353 
L -22.199229 41.94121 
z
" clip-path="url(#p3701f15715)" style="fill: #eeeeee; stroke: #000000; stroke-width: 0.3"/>
    <path d="M -22.218254 41.962271 
L -22.216824 41.952845 
L -22.214218 41.956563 
z
" clip-path="url(#p3701f15715)" style="fill: #eeeeee; stroke: #000000; stroke-width: 0.3"/>
    <path d="M -25.016666 42.317425 
L -24.994355 42.317864 
L -24.981734 42.320924 
z
" clip-path="url(#p3701f15715)" style="fill: #eeeeee; stroke: #000000; stroke-width: 0.3"/>
    <path d="M -32.703583 35.978397 
L -31.892205 36.086445 
L -32.560226 36.339402 
z
" clip-path="url(#p3701f15715)" style="fill: #eeeeee; stroke: #000000; stroke-width: 0.3"/>
    <path d="M -32.857612 36.064692 
L -32.823486 36.070914 
L -32.836926 36.093317 
z
" clip-path="url(#p3701f15715)" style="fill: #eeeeee; stroke: #000000; stroke-width: 0.3"/>
    <path d="M 70.202655 84.942423 
L 74.300363 82.935575 
L 76.549109 79.764535 
L 77.09518 78.209954 
L 75.946544 73.87994 
L 77.051727 71.761125 
L 78.697909 71.223027 
L 79.44821 69.458438 
L 80.617847 69.029265 
L 81.32108 67.914742 
L 86.038009 65.405748 
L 85.362301 63.688433 
L 85.74901 59.107949 
L 91.657678 62.046756 
L 94.99371 62.285532 
L 98.689011 61.443291 
L 100.228716 62.298567 
L 104.530204 63.043039 
L 106.521562 64.691157 
L 111.51421 65.732724 
L 112.79331 67.594241 
L 112.769359 69.35969 
L 113.675504 71.89294 
L 115.575045 74.226174 
L 117.558989 75.17546 
L 123.846699 75.953201 
L 130.20056 78.142352 
L 132.721122 79.444313 
L 135.838174 82.369343 
L 138.666676 83.685713 
L 142.587797 82.377234 
L 145.975727 78.04663 
L 146.30363 75.670852 
L 144.696059 71.09735 
L 145.777277 67.579831 
L 149.218806 64.363869 
L 152.640385 62.555875 
L 155.190028 62.377822 
L 156.650465 61.169171 
L 160.33892 61.074832 
L 167.041783 63.672574 
L 167.341741 65.036286 
L 166.862723 66.250764 
L 168.485689 67.695105 
L 168.393878 67.177057 
L 170.990849 67.522195 
L 173.940817 69.018675 
L 178.447034 68.787783 
L 180.438385 69.496919 
L 181.407835 71.908032 
L 179.25441 74.559204 
L 180.277026 79.310532 
L 178.128955 84.714549 
L 180.181431 92.83212 
L 180.15029 170.277533 
L 173.174476 170.282111 
L 173.174476 174.49186 
L 117.142008 141.199855 
L 104.746761 148.184598 
L 99.603622 143.434568 
L 88.998677 140.587478 
L 85.773662 133.872217 
L 80.252111 131.861449 
L 78.078687 132.527636 
L 77.026382 131.65623 
L 76.557076 130.19511 
L 75.426547 129.297998 
L 75.257802 125.292372 
L 70.842149 118.230945 
L 71.576523 116.68289 
L 74.183038 115.234181 
L 74.575571 112.546772 
L 73.253123 108.623276 
L 74.753012 103.916381 
L 73.639139 100.536639 
L 73.983874 93.277624 
L 72.873624 89.232346 
z
" clip-path="url(#p3701f15715)" style="fill: #eeeeee; stroke: #000000; stroke-width: 0.3"/>
    <path d="M 57.577826 53.426988 
L 57.805958 51.403371 
L 59.542668 50.141358 
L 60.0069 48.710734 
L 62.844448 46.74397 
L 63.292746 43.202582 
L 64.209627 41.735139 
L 63.250014 41.032352 
L 63.549125 39.237697 
L 62.879212 36.794274 
L 63.693974 31.713119 
L 62.378037 30.908372 
L 64.20311 29.755073 
L 64.082162 28.732476 
L 65.684162 28.290243 
L 65.409367 27.420515 
L 66.96418 27.08354 
L 69.671216 24.938991 
L 73.412709 24 
L 74.213352 24.138257 
L 73.603177 25.111901 
L 73.912259 25.630278 
L 74.601701 25.407285 
L 73.93792 24.991476 
L 74.378733 24.688201 
L 77.109146 25.405228 
L 76.099781 25.57265 
L 76.793218 25.918462 
L 76.480149 26.682485 
L 77.634931 27.919947 
L 76.522915 28.617076 
L 77.691957 29.176968 
L 78.836935 28.969473 
L 79.301237 27.954599 
L 82.567126 26.233406 
L 83.124276 28.14116 
L 80.807523 31.531862 
L 79.062678 32.161085 
L 78.528484 34.393455 
L 79.561274 36.668984 
L 82.496786 38.39629 
L 82.50544 40.953477 
L 83.324792 41.928799 
L 79.385683 47.611901 
L 76.09009 49.459076 
L 75.238686 50.765843 
L 75.701741 52.657889 
L 77.51631 54.710148 
L 78.630603 55.179816 
L 80.22392 54.675495 
L 79.925672 56.035775 
L 80.374467 56.605625 
L 81.574867 56.086212 
L 81.762489 55.271069 
L 82.509532 55.426484 
L 82.924769 57.566226 
L 84.26765 58.217717 
L 83.145943 58.010162 
L 83.467568 58.856181 
L 85.244507 59.004041 
L 84.675388 58.453407 
L 85.74901 59.107949 
L 85.362301 63.688433 
L 86.038009 65.405748 
L 81.32108 67.914742 
L 80.617847 69.029265 
L 79.44821 69.458438 
L 78.697909 71.223027 
L 77.051727 71.761125 
L 75.946544 73.87994 
L 76.981478 78.832567 
L 74.300363 82.935575 
L 71.836525 84 
L 68.51012 68.461549 
L 63.508566 64.618656 
L 63.169626 62.015552 
L 61.795758 59.840963 
L 59.260214 58.68483 
L 59.037155 56.807168 
z
" clip-path="url(#p3701f15715)" style="fill: #eeeeee; stroke: #000000; stroke-width: 0.3"/>
    <path d="M 80.359639 53.176265 
L 82.632134 53.88471 
L 81.423171 55.238658 
L 80.991488 54.482686 
L 80.388657 54.603474 
z
" clip-path="url(#p3701f15715)" style="fill: #eeeeee; stroke: #000000; stroke-width: 0.3"/>
    <path d="M 83.125685 46.612129 
L 83.991265 45.241772 
L 84.290935 46.060701 
z
" clip-path="url(#p3701f15715)" style="fill: #eeeeee; stroke: #000000; stroke-width: 0.3"/>
    <path d="M 82.119473 46.540555 
L 82.98621 46.644041 
L 82.599865 46.969019 
z
" clip-path="url(#p3701f15715)" style="fill: #eeeeee; stroke: #000000; stroke-width: 0.3"/>
    <path d="M 145.274876 4.200596 
L 146.999968 4.458637 
L 147.23824 3.269168 
L 148.058068 3.150226 
L 147.363532 1.726787 
L 149.813614 0.823569 
L 150.676174 -1.941391 
L 152.415056 -3.096436 
L 152.039901 -5.545086 
L 156.358509 -5.687559 
L 159.62842 -8.09525 
L 164.230197 -7.99243 
L 164.763234 -9.638508 
L 170.589684 -9.943065 
L 174.940154 -11.551675 
L 176.880372 -11.550368 
L 177.372851 -10.529086 
L 178.732241 -9.749616 
L 179.516585 -10.192726 
L 182.315018 -8.833331 
L 188.167185 -9.831527 
L 188.463394 -11.276315 
L 187.657327 -12.624809 
L 188.905181 -13.135673 
L 191.49286 -11.978664 
L 191.779658 -10.184008 
L 191.592807 -9.603214 
L 189.566405 -8.890841 
L 189.836539 -6.517137 
L 187.891977 -4.585236 
L 187.361371 -5.161856 
L 187.698398 -5.389654 
L 184.081222 -5.72244 
L 181.282943 -6.899861 
L 178.925484 -5.579377 
L 177.710824 -5.622604 
L 176.845167 -6.491261 
L 174.077111 -4.520315 
L 171.425391 -4.722726 
L 171.204701 -4.063335 
L 172.709053 -2.927084 
L 172.065228 -2.658115 
L 172.381724 -1.870079 
L 173.322654 -1.641244 
L 173.385384 -2.170606 
L 176.065042 0.330732 
L 175.407533 0.536575 
L 174.489411 -0.704655 
L 172.860741 -1.462507 
L 171.416835 -1.410014 
L 171.317611 -0.536205 
L 173.243961 0.615484 
L 173.243961 2.007677 
L 172.090889 1.541777 
L 171.031338 -0.220923 
L 169.370735 -0.737597 
L 168.681293 -0.305667 
L 168.846093 0.347889 
L 171.538876 2.202542 
L 168.824993 1.944551 
L 168.393878 -0.368447 
L 165.514622 -1.640561 
L 165.048147 -2.617291 
L 166.18012 -3.043386 
L 165.670872 -3.818388 
L 163.348766 -2.331164 
L 163.923589 -1.495095 
L 163.294024 1.15891 
L 168.706954 8.533257 
L 167.724961 9.166224 
L 166.662564 9.223861 
L 167.819623 8.533257 
L 167.241374 7.544184 
L 165.848797 7.007612 
L 165.08008 8.182294 
L 166.284474 9.459551 
L 166.044969 9.972101 
L 166.810259 9.7419 
L 164.840575 11.076457 
L 163.646447 10.768721 
L 162.970115 11.243878 
L 166.59242 12.183207 
L 167.030382 13.096465 
L 168.441781 12.976394 
L 168.298073 13.787415 
L 168.97212 13.965468 
L 168.645366 14.233071 
L 170.272894 14.253997 
L 170.316802 14.656072 
L 171.013091 15.473963 
L 172.96225 16.02631 
L 173.870106 17.079537 
L 173.228559 17.445256 
L 173.918008 20.290011 
L 173.534788 21.41735 
L 170.227843 18.708449 
L 170.324216 18.08474 
L 166.263949 19.472811 
L 167.576124 20.088291 
L 167.145576 20.663621 
L 167.479744 21.732287 
L 168.657342 22.395792 
L 168.485689 21.705188 
L 169.091877 21.532278 
L 169.067925 22.568702 
L 169.981485 23.207503 
L 168.138971 23.529303 
L 167.479744 24.385271 
L 166.810259 23.915602 
L 167.223127 23.127911 
L 164.380939 22.135398 
L 167.097674 28.754305 
L 166.547937 29.869284 
L 167.671929 31.695118 
L 166.104847 30.955798 
L 164.804648 28.652066 
L 164.094667 28.516895 
L 163.33679 28.739896 
L 162.6827 30.22711 
L 162.73117 32.045736 
L 161.774845 31.025787 
L 162.009221 29.387609 
L 160.256807 27.609125 
L 160.364013 26.731885 
L 158.892169 26.966892 
L 159.082062 28.639031 
L 158.467893 29.216073 
L 157.240115 28.444849 
L 157.258369 27.393678 
L 156.275234 25.930813 
L 157.012011 23.571847 
L 153.027592 19.507118 
L 154.567296 18.298475 
L 154.906033 16.618789 
L 156.644193 17.17423 
L 158.235794 15.60158 
L 165.367495 18.989079 
L 166.125371 18.656302 
L 165.425663 18.063476 
L 167.509399 17.808908 
L 167.863532 17.136491 
L 164.93638 16.565621 
L 163.820944 15.191269 
L 163.232436 16.004355 
L 162.105026 14.656072 
L 161.969874 15.58992 
L 160.616644 15.755284 
L 158.995387 15.008064 
L 155.911403 15.985139 
L 154.543345 14.294822 
L 154.642002 15.142898 
L 153.373743 15.916871 
L 152.200139 12.880673 
L 151.301407 11.70428 
L 150.386706 11.651787 
L 150.918188 11.162912 
L 150.670126 10.393745 
L 152.880465 11.19173 
L 153.526567 11.092923 
L 153.403966 10.066794 
L 152.880465 9.517188 
L 152.692275 9.972101 
L 151.196479 9.736411 
L 151.039086 9.082518 
L 150.483653 9.799199 
L 151.104668 10.353949 
L 150.646175 10.23661 
L 150.427194 10.468531 
L 148.656527 7.6646 
L 146.929775 6.68067 
L 147.125379 5.759519 
L 146.211819 5.581458 
L 146.549982 4.782789 
z
" clip-path="url(#p3701f15715)" style="fill: #eeeeee; stroke: #000000; stroke-width: 0.3"/>
    <path d="M 169.929595 41.29326 
L 170.364705 38.917482 
L 171.332438 39.449248 
L 171.494393 37.98124 
L 172.024165 39.263986 
L 174.587494 38.835833 
L 174.587494 39.445816 
L 173.80966 39.571384 
L 175.0745 39.734 
L 175.688676 40.83629 
L 178.3575 40.171073 
L 183.491571 41.29326 
L 185.683088 40.942988 
L 185.307282 42.231569 
L 185.885532 42.802439 
L 187.744583 41.806156 
L 188.57774 42.026409 
L 189.570567 41.115207 
L 189.264905 42.929718 
L 188.351913 43.754119 
L 180.446373 44.349693 
L 178.480676 44.349693 
L 178.510899 43.122181 
L 176.123211 42.161926 
z
" clip-path="url(#p3701f15715)" style="fill: #eeeeee; stroke: #000000; stroke-width: 0.3"/>
    <path d="M 165.133119 11.35126 
L 168.393878 9.689752 
L 170.46051 11.985255 
L 174.395891 12.976394 
L 175.0745 16.557038 
L 177.423409 17.136491 
L 177.276282 18.580824 
L 175.910501 18.715996 
L 174.734621 17.717656 
L 173.601513 15.093836 
L 170.847149 15.058846 
L 170.601365 13.775063 
L 167.715837 11.481971 
z
" clip-path="url(#p3701f15715)" style="fill: #eeeeee; stroke: #000000; stroke-width: 0.3"/>
    <path d="M 186.213435 8.125348 
L 188.46654 6.853572 
L 189.857982 6.853572 
L 191.610963 9.632461 
L 191.100012 9.884618 
L 190.748725 9.089381 
L 190.382618 9.175144 
L 191.154186 10.150163 
L 188.481368 9.858893 
L 187.936193 9.344286 
L 189.282585 8.391568 
L 187.768535 9.281498 
z
" clip-path="url(#p3701f15715)" style="fill: #eeeeee; stroke: #000000; stroke-width: 0.3"/>
    <path d="M 147.696207 16.943683 
L 148.078285 15.409464 
L 148.988425 15.63383 
L 149.044308 14.48317 
L 149.694404 16.304199 
L 150.052531 16.100413 
L 150.865723 17.372181 
L 150.416361 17.953 
L 148.848137 17.545091 
L 148.39649 16.150504 
L 148.256209 17.00132 
z
" clip-path="url(#p3701f15715)" style="fill: #eeeeee; stroke: #000000; stroke-width: 0.3"/>
    <path d="M 142.658509 3.739165 
L 144.91162 3.384078 
L 144.189664 4.545042 
L 144.767913 4.77558 
L 144.831211 6.060046 
L 145.920985 6.392486 
L 146.01679 6.973305 
L 144.657848 6.419585 
z
" clip-path="url(#p3701f15715)" style="fill: #eeeeee; stroke: #000000; stroke-width: 0.3"/>
    <path d="M 180.546733 1.656368 
L 182.311129 2.009734 
L 183.465336 1.311239 
L 182.758214 3.406725 
L 182.069339 2.303407 
L 181.816141 3.273957 
L 180.642538 2.985773 
z
" clip-path="url(#p3701f15715)" style="fill: #eeeeee; stroke: #000000; stroke-width: 0.3"/>
    <path d="M 199.122456 34.008454 
L 200.631945 32.473897 
L 203.015072 31.695118 
L 201.962934 34.877119 
L 199.461768 36.057627 
L 199.632846 34.630452 
z
" clip-path="url(#p3701f15715)" style="fill: #eeeeee; stroke: #000000; stroke-width: 0.3"/>
    <path d="M 191.386278 20.66465 
L 192.97104 20.042998 
L 194.803295 20.381272 
L 192.907742 21.474987 
L 192.283307 20.894168 
L 191.513448 21.200875 
z
" clip-path="url(#p3701f15715)" style="fill: #eeeeee; stroke: #000000; stroke-width: 0.3"/>
    <path d="M 186.261338 13.585686 
L 188.46654 13.902688 
L 188.105562 16.602323 
L 187.388741 17.157764 
L 186.548178 16.618789 
L 187.243324 15.281155 
z
" clip-path="url(#p3701f15715)" style="fill: #eeeeee; stroke: #000000; stroke-width: 0.3"/>
    <path d="M 175.596858 29.853509 
L 175.7879 28.984843 
L 176.294289 29.445246 
L 176.170545 28.927207 
L 177.043042 28.866484 
L 177.132007 29.534449 
z
" clip-path="url(#p3701f15715)" style="fill: #eeeeee; stroke: #000000; stroke-width: 0.3"/>
    <path d="M 149.616854 19.622391 
L 150.244141 19.109504 
L 152.191016 20.756594 
L 152.25774 21.014585 
L 151.539778 20.726401 
L 150.987764 21.41735 
z
" clip-path="url(#p3701f15715)" style="fill: #eeeeee; stroke: #000000; stroke-width: 0.3"/>
    <path d="M 194.803295 38.807698 
L 195.875957 36.781517 
L 195.42602 38.427916 
L 195.812659 39.383036 
L 195.282313 40.366967 
z
" clip-path="url(#p3701f15715)" style="fill: #eeeeee; stroke: #000000; stroke-width: 0.3"/>
    <path d="M 193.751158 29.303902 
L 196.296239 27.687005 
L 196.820882 28.063693 
L 194.271806 28.987938 
L 194.137797 29.617819 
z
" clip-path="url(#p3701f15715)" style="fill: #eeeeee; stroke: #000000; stroke-width: 0.3"/>
    <path d="M 193.55556 26.153469 
L 194.637914 26.942188 
L 193.708391 27.3676 
L 194.004355 26.675285 
L 193.74717 26.55932 
z
" clip-path="url(#p3701f15715)" style="fill: #eeeeee; stroke: #000000; stroke-width: 0.3"/>
    <path d="M 191.078913 23.768087 
L 191.5163 23.913891 
L 191.166162 24.157127 
L 191.298461 24.594891 
L 191.14905 24.573619 
z
" clip-path="url(#p3701f15715)" style="fill: #eeeeee; stroke: #000000; stroke-width: 0.3"/>
    <path d="M 189.152563 30.387323 
L 190.149951 30.371548 
L 189.857982 29.963631 
L 190.585635 30.428839 
L 189.429144 31.014464 
z
" clip-path="url(#p3701f15715)" style="fill: #eeeeee; stroke: #000000; stroke-width: 0.3"/>
    <path d="M 185.491479 28.639031 
L 187.361371 27.425583 
L 187.843815 27.810162 
L 186.476892 28.639031 
L 185.60724 28.850017 
z
" clip-path="url(#p3701f15715)" style="fill: #eeeeee; stroke: #000000; stroke-width: 0.3"/>
    <path d="M 182.847173 32.33392 
L 183.373525 32.045736 
L 182.990312 31.297841 
L 183.670631 31.763733 
L 183.571981 32.454682 
z
" clip-path="url(#p3701f15715)" style="fill: #eeeeee; stroke: #000000; stroke-width: 0.3"/>
    <path d="M 176.926712 -3.772074 
L 177.806054 -5.161856 
L 178.815994 -4.581037 
L 178.772078 -3.545296 
L 177.806054 -3.194678 
z
" clip-path="url(#p3701f15715)" style="fill: #eeeeee; stroke: #000000; stroke-width: 0.3"/>
    <path d="M 176.362155 11.076457 
L 176.536653 10.320325 
L 178.046134 11.651787 
L 177.276282 12.050092 
L 177.208423 11.348857 
z
" clip-path="url(#p3701f15715)" style="fill: #eeeeee; stroke: #000000; stroke-width: 0.3"/>
    <path d="M 150.440312 12.980509 
L 150.888539 12.870041 
L 150.59884 13.189438 
L 150.882261 13.458752 
L 150.543531 13.200761 
z
" clip-path="url(#p3701f15715)" style="fill: #eeeeee; stroke: #000000; stroke-width: 0.3"/>
    <path d="M 187.154365 22.559782 
L 187.840388 21.532278 
L 189.857982 21.124369 
L 188.936434 22.093199 
z
" clip-path="url(#p3701f15715)" style="fill: #eeeeee; stroke: #000000; stroke-width: 0.3"/>
    <path d="M 183.42086 -2.446438 
L 184.348105 -2.723298 
L 185.152742 -2.158254 
L 184.287085 -1.755143 
z
" clip-path="url(#p3701f15715)" style="fill: #eeeeee; stroke: #000000; stroke-width: 0.3"/>
    <path d="M 182.708027 26.211105 
L 183.999677 25.255993 
L 184.38289 26.760703 
L 183.465336 27.598147 
z
" clip-path="url(#p3701f15715)" style="fill: #eeeeee; stroke: #000000; stroke-width: 0.3"/>
    <path d="M 182.22559 29.272344 
L 182.46396 28.639031 
L 183.181915 29.335469 
L 182.92815 29.830179 
z
" clip-path="url(#p3701f15715)" style="fill: #eeeeee; stroke: #000000; stroke-width: 0.3"/>
    <path d="M 181.037159 26.801873 
L 181.986077 25.630278 
L 182.368155 25.630278 
L 181.633655 27.034477 
z
" clip-path="url(#p3701f15715)" style="fill: #eeeeee; stroke: #000000; stroke-width: 0.3"/>
    <path d="M 178.165891 18.767798 
L 178.764664 18.47722 
L 179.98959 19.271773 
L 180.015251 21.124369 
z
" clip-path="url(#p3701f15715)" style="fill: #eeeeee; stroke: #000000; stroke-width: 0.3"/>
    <path d="M 175.235312 22.427696 
L 175.332827 21.469498 
L 175.931601 21.124369 
L 176.078735 21.643774 
z
" clip-path="url(#p3701f15715)" style="fill: #eeeeee; stroke: #000000; stroke-width: 0.3"/>
    <path d="M 169.272653 20.487625 
L 169.280635 20.43342 
L 170.125192 20.381272 
L 169.69065 21.186803 
z
" clip-path="url(#p3701f15715)" style="fill: #eeeeee; stroke: #000000; stroke-width: 0.3"/>
    <path d="M 169.159736 19.334216 
L 169.785888 18.75854 
L 169.307438 18.580824 
L 170.316802 18.879302 
z
" clip-path="url(#p3701f15715)" style="fill: #eeeeee; stroke: #000000; stroke-width: 0.3"/>
    <path d="M 168.920798 24.35851 
L 169.54695 23.897761 
L 170.412607 23.783179 
L 169.779616 24.21236 
z
" clip-path="url(#p3701f15715)" style="fill: #eeeeee; stroke: #000000; stroke-width: 0.3"/>
    <path d="M 165.608717 32.489335 
L 165.909817 32.058779 
L 167.02582 33.341871 
L 166.233152 34.186516 
z
" clip-path="url(#p3701f15715)" style="fill: #eeeeee; stroke: #000000; stroke-width: 0.3"/>
    <path d="M 149.616854 14.420382 
L 150.58402 15.346684 
L 150.627353 15.755284 
L 150.095871 15.64001 
z
" clip-path="url(#p3701f15715)" style="fill: #eeeeee; stroke: #000000; stroke-width: 0.3"/>
    <path d="M 199.653371 30.486476 
L 200.227626 29.905994 
L 200.23504 30.890961 
z
" clip-path="url(#p3701f15715)" style="fill: #eeeeee; stroke: #000000; stroke-width: 0.3"/>
    <path d="M 197.963688 33.513407 
L 198.647433 33.296241 
L 198.662828 33.418714 
z
" clip-path="url(#p3701f15715)" style="fill: #eeeeee; stroke: #000000; stroke-width: 0.3"/>
    <path d="M 196.409149 31.419978 
L 196.820882 31.297841 
L 197.328412 32.094115 
z
" clip-path="url(#p3701f15715)" style="fill: #eeeeee; stroke: #000000; stroke-width: 0.3"/>
    <path d="M 195.236695 30.539998 
L 195.289159 30.282344 
L 195.715145 30.550284 
z
" clip-path="url(#p3701f15715)" style="fill: #eeeeee; stroke: #000000; stroke-width: 0.3"/>
    <path d="M 193.265294 40.633532 
L 193.628549 40.194057 
L 194.377309 40.419452 
z
" clip-path="url(#p3701f15715)" style="fill: #eeeeee; stroke: #000000; stroke-width: 0.3"/>
    <path d="M 192.734954 25.37023 
L 193.274992 25.331125 
L 193.276134 26.080394 
z
" clip-path="url(#p3701f15715)" style="fill: #eeeeee; stroke: #000000; stroke-width: 0.3"/>
    <path d="M 185.782313 25.865285 
L 186.161538 25.750357 
L 186.176366 26.047461 
z
" clip-path="url(#p3701f15715)" style="fill: #eeeeee; stroke: #000000; stroke-width: 0.3"/>
    <path d="M 185.543375 32.323625 
L 185.693354 31.955858 
L 186.305246 32.276283 
z
" clip-path="url(#p3701f15715)" style="fill: #eeeeee; stroke: #000000; stroke-width: 0.3"/>
    <path d="M 184.865334 27.655784 
L 185.108833 27.828003 
L 185.035837 27.92681 
z
" clip-path="url(#p3701f15715)" style="fill: #eeeeee; stroke: #000000; stroke-width: 0.3"/>
    <path d="M 183.979145 13.442286 
L 184.677144 13.596664 
L 184.242609 13.965468 
z
" clip-path="url(#p3701f15715)" style="fill: #eeeeee; stroke: #000000; stroke-width: 0.3"/>
    <path d="M 183.444811 28.112755 
L 183.664927 28.000913 
L 183.66094 28.30042 
z
" clip-path="url(#p3701f15715)" style="fill: #eeeeee; stroke: #000000; stroke-width: 0.3"/>
    <path d="M 182.46396 23.437359 
L 182.503874 22.794097 
L 183.556579 22.947455 
z
" clip-path="url(#p3701f15715)" style="fill: #eeeeee; stroke: #000000; stroke-width: 0.3"/>
    <path d="M 180.785103 29.963631 
L 181.046289 29.445246 
L 181.598303 29.387609 
z
" clip-path="url(#p3701f15715)" style="fill: #eeeeee; stroke: #000000; stroke-width: 0.3"/>
    <path d="M 180.494276 26.844072 
L 180.822747 26.55486 
L 180.642538 27.169995 
z
" clip-path="url(#p3701f15715)" style="fill: #eeeeee; stroke: #000000; stroke-width: 0.3"/>
    <path d="M 180.206861 21.186803 
L 182.129785 21.935735 
L 181.826407 22.41741 
z
" clip-path="url(#p3701f15715)" style="fill: #eeeeee; stroke: #000000; stroke-width: 0.3"/>
    <path d="M 180.148693 5.514563 
L 180.644822 5.449718 
L 180.206861 6.110483 
z
" clip-path="url(#p3701f15715)" style="fill: #eeeeee; stroke: #000000; stroke-width: 0.3"/>
    <path d="M 179.484911 23.845622 
L 179.579574 22.606786 
L 180.060876 23.523131 
z
" clip-path="url(#p3701f15715)" style="fill: #eeeeee; stroke: #000000; stroke-width: 0.3"/>
    <path d="M 179.197496 29.733084 
L 179.947959 30.077875 
L 180.058592 30.313911 
z
" clip-path="url(#p3701f15715)" style="fill: #eeeeee; stroke: #000000; stroke-width: 0.3"/>
    <path d="M 177.928095 21.793701 
L 178.323283 21.589915 
L 178.337543 21.905888 
z
" clip-path="url(#p3701f15715)" style="fill: #eeeeee; stroke: #000000; stroke-width: 0.3"/>
    <path d="M 177.806054 26.498943 
L 178.671712 27.338782 
L 178.285079 27.718218 
z
" clip-path="url(#p3701f15715)" style="fill: #eeeeee; stroke: #000000; stroke-width: 0.3"/>
    <path d="M 177.567117 28.754305 
L 177.970861 28.810567 
L 177.925811 29.013662 
z
" clip-path="url(#p3701f15715)" style="fill: #eeeeee; stroke: #000000; stroke-width: 0.3"/>
    <path d="M 176.957503 28.450338 
L 177.242065 28.211899 
L 177.319055 28.749153 
z
" clip-path="url(#p3701f15715)" style="fill: #eeeeee; stroke: #000000; stroke-width: 0.3"/>
    <path d="M 176.26635 25.865285 
L 176.952941 25.191148 
L 177.036202 25.813483 
z
" clip-path="url(#p3701f15715)" style="fill: #eeeeee; stroke: #000000; stroke-width: 0.3"/>
    <path d="M 175.883705 24.300873 
L 176.362155 22.804392 
L 176.687774 23.433244 
z
" clip-path="url(#p3701f15715)" style="fill: #eeeeee; stroke: #000000; stroke-width: 0.3"/>
    <path d="M 173.630593 45.045794 
L 173.870106 44.878027 
L 174.253326 45.332941 
z
" clip-path="url(#p3701f15715)" style="fill: #eeeeee; stroke: #000000; stroke-width: 0.3"/>
    <path d="M 173.620328 7.168516 
L 173.964201 7.265258 
L 173.748072 7.543492 
z
" clip-path="url(#p3701f15715)" style="fill: #eeeeee; stroke: #000000; stroke-width: 0.3"/>
    <path d="M 172.441602 28.228374 
L 172.527708 28.30762 
L 172.494634 28.324087 
z
" clip-path="url(#p3701f15715)" style="fill: #eeeeee; stroke: #000000; stroke-width: 0.3"/>
    <path d="M 172.138792 8.815606 
L 173.004449 7.606964 
L 172.575611 8.683866 
z
" clip-path="url(#p3701f15715)" style="fill: #eeeeee; stroke: #000000; stroke-width: 0.3"/>
    <path d="M 170.412607 8.297567 
L 171.852519 8.998811 
L 171.32103 9.396771 
z
" clip-path="url(#p3701f15715)" style="fill: #eeeeee; stroke: #000000; stroke-width: 0.3"/>
    <path d="M 169.524709 8.936369 
L 169.594853 8.245074 
L 169.891959 8.542523 
z
" clip-path="url(#p3701f15715)" style="fill: #eeeeee; stroke: #000000; stroke-width: 0.3"/>
    <path d="M 169.449435 27.507915 
L 169.572611 27.699694 
L 169.54866 27.719938 
z
" clip-path="url(#p3701f15715)" style="fill: #eeeeee; stroke: #000000; stroke-width: 0.3"/>
    <path d="M 169.35534 22.511065 
L 169.807555 22.419804 
L 169.981485 22.511065 
z
" clip-path="url(#p3701f15715)" style="fill: #eeeeee; stroke: #000000; stroke-width: 0.3"/>
    <path d="M 168.369927 36.525921 
L 168.615711 36.480636 
L 168.633391 36.7822 
z
" clip-path="url(#p3701f15715)" style="fill: #eeeeee; stroke: #000000; stroke-width: 0.3"/>
    <path d="M 166.95967 24.5942 
L 167.408465 24.622335 
L 167.435836 24.851508 
z
" clip-path="url(#p3701f15715)" style="fill: #eeeeee; stroke: #000000; stroke-width: 0.3"/>
    <path d="M 157.542358 29.335469 
L 157.749363 29.039394 
L 157.733967 29.445246 
z
" clip-path="url(#p3701f15715)" style="fill: #eeeeee; stroke: #000000; stroke-width: 0.3"/>
    <path d="M 157.194497 28.671964 
L 157.394088 28.639031 
L 157.302845 28.754305 
z
" clip-path="url(#p3701f15715)" style="fill: #eeeeee; stroke: #000000; stroke-width: 0.3"/>
    <path d="M 151.539778 13.850195 
L 151.807803 13.394944 
L 151.635582 13.850195 
z
" clip-path="url(#p3701f15715)" style="fill: #eeeeee; stroke: #000000; stroke-width: 0.3"/>
    <path d="M 151.376681 13.567845 
L 151.500999 13.176057 
L 151.87452 13.189438 
z
" clip-path="url(#p3701f15715)" style="fill: #eeeeee; stroke: #000000; stroke-width: 0.3"/>
    <path d="M 149.092211 13.677293 
L 150.085038 11.311801 
L 150.293185 13.192524 
z
" clip-path="url(#p3701f15715)" style="fill: #eeeeee; stroke: #000000; stroke-width: 0.3"/>
    <path d="M 146.246029 8.283158 
L 146.60815 8.33942 
L 146.690837 8.533257 
z
" clip-path="url(#p3701f15715)" style="fill: #eeeeee; stroke: #000000; stroke-width: 0.3"/>
    <path d="M 51.39613 -41.412532 
L 54.939441 -42.725732 
L 55.305906 -44.004954 
L 54.059496 -44.849784 
L 53.923342 -45.942521 
L 52.652315 -47.09539 
L 54.334711 -48.341502 
L 55.255929 -47.930634 
L 57.971809 -48.837763 
L 60.092362 -48.290526 
L 61.962331 -50.042047 
L 61.799381 -51.26332 
L 63.984388 -52.784142 
L 64.257424 -50.956149 
L 66.855972 -49.728341 
L 66.568452 -48.829053 
L 67.290513 -48.525364 
L 67.494022 -47.508004 
L 68.211739 -47.460071 
L 68.636863 -48.119732 
L 68.209567 -49.303098 
L 69.770286 -50.920855 
L 70.172958 -53.165163 
L 71.240477 -53.173223 
L 71.953849 -51.489448 
L 74.630614 -52.100958 
L 75.732896 -50.826744 
L 76.315903 -51.184461 
L 75.845154 -51.745205 
L 76.188439 -52.368695 
L 75.386717 -52.734253 
L 75.43162 -53.465361 
L 76.548387 -54.256593 
L 78.313344 -53.505444 
L 78.419078 -54.229149 
L 77.788995 -54.640886 
L 78.382142 -56.25995 
L 82.187985 -55.456299 
L 83.432223 -57.098245 
L 87.359013 -57.155317 
L 90.482631 -58.121491 
L 90.106026 -56.634656 
L 91.085188 -56.291323 
L 92.05494 -54.790331 
L 101.136095 -53.353823 
L 98.783786 -51.4193 
L 99.098102 -50.725231 
L 100.690691 -50.492559 
L 99.460223 -49.025554 
L 100.469805 -48.848656 
L 100.190252 -47.541114 
L 101.68108 -46.808269 
L 102.49367 -45.867583 
L 102.164869 -45.469792 
L 101.211851 -45.541846 
L 101.887041 -45.719899 
L 100.248105 -47.197856 
L 99.039149 -46.235198 
L 98.812755 -46.81842 
L 97.060342 -47.048967 
L 96.819694 -45.952503 
L 92.18574 -44.233713 
L 93.293187 -45.20186 
L 91.996982 -45.086932 
L 90.29931 -43.183226 
L 90.831935 -42.262412 
L 91.370263 -42.485413 
L 91.801385 -40.632817 
L 91.801385 -41.093566 
L 92.957876 -40.287688 
L 92.332299 -39.026898 
L 92.068268 -39.623846 
L 92.133276 -38.881777 
L 91.083423 -39.0787 
L 91.801385 -34.222511 
L 94.063046 -32.029929 
L 100.537804 -28.403309 
L 103.759785 -20.295131 
L 108.201554 -16.725802 
L 108.422245 -15.959721 
L 111.397874 -14.637524 
L 118.230759 -14.570967 
L 118.538131 -13.388049 
L 116.546205 -11.997238 
L 116.973901 -10.688759 
L 124.654195 -7.505047 
L 127.589903 -5.3828 
L 131.310291 -3.869844 
L 134.877854 0.442573 
L 133.988246 3.158683 
L 131.762512 2.362409 
L 130.302068 -0.791802 
L 127.841959 -0.944123 
L 125.656713 -1.928053 
L 126.518951 -2.586415 
L 124.086212 -2.537007 
L 121.484104 0.90435 
L 121.672288 1.901324 
L 120.678325 3.511704 
L 121.071804 4.475736 
L 125.365879 6.623033 
L 125.461684 10.380701 
L 121.350095 11.752305 
L 121.237753 14.8578 
L 118.43377 17.271663 
L 117.787093 18.985993 
L 115.035007 18.871065 
L 114.673461 16.621884 
L 115.934881 15.944652 
L 116.670523 14.121912 
L 116.101397 13.00727 
L 118.31573 12.316666 
L 118.799877 11.256913 
L 115.66572 2.534637 
L 114.613583 0.960613 
L 113.112756 1.667295 
L 112.069644 1.368876 
L 111.130423 0.186303 
L 109.616373 -0.42094 
L 110.226884 -1.735506 
L 108.71137 -4.031431 
L 105.632522 -3.194678 
L 106.55407 -4.535752 
L 105.293217 -5.455529 
L 103.565876 -5.040849 
L 103.381211 -6.155811 
L 101.282563 -8.942862 
L 100.03597 -8.5569 
L 98.227099 -9.308235 
L 96.536841 -8.733242 
L 95.478432 -10.181698 
L 93.668425 -10.587895 
L 90.891813 -13.022684 
L 89.359522 -15.187813 
L 88.008001 -15.534317 
L 86.821855 -17.601667 
L 84.848744 -18.676859 
L 82.956617 -18.545119 
L 83.530025 -19.295552 
L 83.319873 -20.001804 
L 81.814379 -21.510636 
L 80.326565 -22.028676 
L 80.552391 -22.988594 
L 78.702456 -23.175913 
L 78.90319 -25.758225 
L 77.425074 -27.831065 
L 76.965438 -30.815797 
L 75.836892 -32.322919 
L 74.114127 -33.024846 
L 74.026879 -32.465636 
L 69.810929 -35.091168 
L 69.671216 -34.683259 
L 66.529638 -35.75227 
L 64.453315 -34.674338 
L 61.661882 -31.237778 
L 57.699698 -30.357107 
L 57.528578 -30.975066 
L 59.014703 -32.676698 
L 58.774259 -33.593414 
L 56.566793 -33.151611 
L 53.993591 -34.212115 
L 53.028913 -36.611526 
L 53.898718 -37.868961 
L 54.566459 -37.883345 
L 54.214485 -39.089804 
L 52.395936 -39.762963 
z
M 92.391442 -14.436125 
L 92.398477 -14.426319 
L 92.398113 -14.435678 
z
M 91.989379 -31.673974 
L 92.56842 -31.409474 
L 92.59556 -31.961972 
z
" clip-path="url(#p3701f15715)" style="fill: #eeeeee; stroke: #000000; stroke-width: 0.3"/>
    <path d="M 62.2196 -3.385083 
L 62.540083 -6.509448 
L 63.361264 -5.555701 
L 64.834818 -5.356039 
L 66.951062 -6.370845 
L 69.810929 -9.029317 
L 71.154468 -8.338714 
L 71.298176 -7.590465 
L 72.11593 -7.878303 
L 71.781755 -6.952009 
L 72.83788 -6.837082 
L 71.728149 -6.198626 
L 73.26786 -5.507331 
L 72.804805 -5.127549 
L 73.802768 -2.224128 
L 72.582405 -0.601734 
L 73.326028 0.90881 
L 72.163833 8.789537 
L 71.828515 9.166224 
L 68.292324 7.822756 
L 68.754236 8.154167 
L 68.375011 10.087375 
L 67.166623 11.076457 
L 66.208581 10.616054 
L 65.678808 11.19173 
L 65.108548 9.569681 
L 63.799793 8.175431 
L 64.298774 3.665062 
L 64.809732 4.127859 
L 65.151888 4.136779 
L 64.721908 3.96456 
L 65.07775 2.858493 
L 63.952056 2.352806 
L 63.83059 1.33182 
L 64.620974 0.735563 
L 63.849405 -2.335279 
L 63.230107 -3.40327 
z
" clip-path="url(#p3701f15715)" style="fill: #eeeeee; stroke: #000000; stroke-width: 0.3"/>
    <path d="M 92.209123 20.190521 
L 92.671036 18.298475 
L 94.154282 17.544746 
L 94.344749 16.853796 
L 95.531471 18.242558 
L 96.654313 17.775293 
L 96.931462 16.876443 
L 98.453493 16.618789 
L 98.966728 17.609246 
L 101.765575 18.701586 
L 103.375423 18.062785 
L 106.817526 18.104984 
L 109.58786 16.896678 
L 110.854984 17.397914 
L 111.90085 16.246562 
L 112.284063 16.733726 
L 114.805193 16.15805 
L 111.732049 20.490365 
L 110.880645 22.884675 
L 110.964474 24.130028 
L 112.004636 24.737608 
L 111.524476 25.161301 
L 112.568051 26.812514 
L 111.348829 27.549431 
L 110.897182 29.819884 
L 106.646448 28.652749 
L 105.185437 26.539422 
L 101.240364 25.465605 
L 97.444129 22.804392 
L 93.837219 22.145693 
z
" clip-path="url(#p3701f15715)" style="fill: #eeeeee; stroke: #000000; stroke-width: 0.3"/>
    <path d="M 75.95037 -21.63209 
L 76.133998 -22.091801 
L 78.308978 -22.374496 
L 78.113948 -21.223144 
z
" clip-path="url(#p3701f15715)" style="fill: #eeeeee; stroke: #000000; stroke-width: 0.3"/>
    <path d="M 71.257112 -8.382624 
L 71.521718 -8.805288 
L 71.522286 -8.326362 
L 71.448722 -8.270782 
z
" clip-path="url(#p3701f15715)" style="fill: #eeeeee; stroke: #000000; stroke-width: 0.3"/>
    <path d="M 62.798984 8.590894 
L 63.330466 8.417984 
L 63.330466 9.166224 
L 62.972347 9.144615 
z
" clip-path="url(#p3701f15715)" style="fill: #eeeeee; stroke: #000000; stroke-width: 0.3"/>
    <path d="M 111.549563 11.826754 
L 111.725203 11.645952 
L 111.762846 11.96158 
z
" clip-path="url(#p3701f15715)" style="fill: #eeeeee; stroke: #000000; stroke-width: 0.3"/>
    <path d="M 109.876417 15.136718 
L 110.290427 15.294873 
L 110.14672 15.409464 
z
" clip-path="url(#p3701f15715)" style="fill: #eeeeee; stroke: #000000; stroke-width: 0.3"/>
    <path d="M 109.712178 14.074907 
L 110.094255 14.368579 
L 110.003012 14.656072 
z
" clip-path="url(#p3701f15715)" style="fill: #eeeeee; stroke: #000000; stroke-width: 0.3"/>
    <path d="M 108.794057 13.659789 
L 109.306724 13.579514 
L 109.269655 13.932189 
z
" clip-path="url(#p3701f15715)" style="fill: #eeeeee; stroke: #000000; stroke-width: 0.3"/>
    <path d="M 107.033087 13.531144 
L 107.183634 13.550696 
L 107.09696 13.744187 
z
" clip-path="url(#p3701f15715)" style="fill: #eeeeee; stroke: #000000; stroke-width: 0.3"/>
    <path d="M 105.633664 13.864949 
L 105.734598 13.831671 
L 105.760259 13.934247 
z
" clip-path="url(#p3701f15715)" style="fill: #eeeeee; stroke: #000000; stroke-width: 0.3"/>
    <path d="M 102.174456 -4.414299 
L 102.27026 -4.811584 
L 102.99221 -4.581037 
z
" clip-path="url(#p3701f15715)" style="fill: #eeeeee; stroke: #000000; stroke-width: 0.3"/>
    <path d="M 99.130392 -5.009535 
L 99.196542 -5.130635 
L 99.251291 -5.140929 
z
" clip-path="url(#p3701f15715)" style="fill: #eeeeee; stroke: #000000; stroke-width: 0.3"/>
    <path d="M 97.299854 12.621308 
L 97.525674 12.429537 
L 97.607793 12.507072 
z
" clip-path="url(#p3701f15715)" style="fill: #eeeeee; stroke: #000000; stroke-width: 0.3"/>
    <path d="M 95.144257 36.499505 
L 95.341571 36.467947 
L 95.331305 36.587335 
z
" clip-path="url(#p3701f15715)" style="fill: #eeeeee; stroke: #000000; stroke-width: 0.3"/>
    <path d="M 92.903702 39.416998 
L 93.110707 39.378576 
L 93.499057 39.648228 
z
" clip-path="url(#p3701f15715)" style="fill: #eeeeee; stroke: #000000; stroke-width: 0.3"/>
    <path d="M 91.469487 -43.474495 
L 91.94395 -44.195629 
L 92.236494 -44.045019 
z
" clip-path="url(#p3701f15715)" style="fill: #eeeeee; stroke: #000000; stroke-width: 0.3"/>
    <path d="M 91.46379 -44.164407 
L 91.766026 -44.331483 
L 91.75405 -44.234396 
z
" clip-path="url(#p3701f15715)" style="fill: #eeeeee; stroke: #000000; stroke-width: 0.3"/>
    <path d="M 91.316663 19.159932 
L 91.41874 18.931442 
L 91.801385 19.109504 
z
" clip-path="url(#p3701f15715)" style="fill: #eeeeee; stroke: #000000; stroke-width: 0.3"/>
    <path d="M 89.430234 18.611017 
L 89.592188 18.543085 
L 89.77239 18.898509 
z
" clip-path="url(#p3701f15715)" style="fill: #eeeeee; stroke: #000000; stroke-width: 0.3"/>
    <path d="M 88.691172 28.495968 
L 89.577928 28.678136 
L 89.431376 29.091196 
z
" clip-path="url(#p3701f15715)" style="fill: #eeeeee; stroke: #000000; stroke-width: 0.3"/>
    <path d="M 81.241266 -18.33447 
L 81.787401 -18.034162 
L 81.672248 -17.933559 
z
" clip-path="url(#p3701f15715)" style="fill: #eeeeee; stroke: #000000; stroke-width: 0.3"/>
    <path d="M 77.265396 -18.011988 
L 77.41595 -18.119369 
L 77.397128 -17.977335 
z
" clip-path="url(#p3701f15715)" style="fill: #eeeeee; stroke: #000000; stroke-width: 0.3"/>
    <path d="M 75.554614 -20.152759 
L 75.758767 -20.42241 
L 75.803243 -20.072821 
z
" clip-path="url(#p3701f15715)" style="fill: #eeeeee; stroke: #000000; stroke-width: 0.3"/>
    <path d="M 73.811135 -23.74341 
L 73.849297 -24.237513 
L 74.095838 -23.888016 
z
" clip-path="url(#p3701f15715)" style="fill: #eeeeee; stroke: #000000; stroke-width: 0.3"/>
    <path d="M 70.808885 -8.75314 
L 71.097442 -9.027598 
L 70.964568 -8.590525 
z
" clip-path="url(#p3701f15715)" style="fill: #eeeeee; stroke: #000000; stroke-width: 0.3"/>
    <path d="M 63.612177 9.223861 
L 64.578201 9.459551 
L 64.059262 10.369724 
z
" clip-path="url(#p3701f15715)" style="fill: #eeeeee; stroke: #000000; stroke-width: 0.3"/>
    <path d="M 62.656419 -6.779445 
L 63.473031 -7.878303 
L 62.914179 -6.761258 
z
" clip-path="url(#p3701f15715)" style="fill: #eeeeee; stroke: #000000; stroke-width: 0.3"/>
    <path d="M -55.712506 108.817593 
L -55.68716 96.951249 
L -48.264135 91.077977 
L -46.373242 91.128422 
L -44.953013 90.067766 
L -42.406397 90.59809 
L -39.810807 89.596361 
L -35.2073 89.183882 
L -34.962434 89.949913 
L -33.689129 89.949913 
L -31.142506 86.119768 
L -25.510568 81.641447 
L -20.417329 79.932614 
L -20.515278 78.871959 
L -19.780673 77.870221 
L -21.019207 76.011833 
L -21.799934 76.063678 
L -21.606201 74.655928 
L -20.61322 74.216857 
L -20.515278 72.036619 
L -14.687441 70.799192 
L -15.464525 68.657181 
L -15.061306 68.42408 
L -12.503317 67.952649 
L -3.352992 68.311234 
L -3.249788 67.835883 
L -4.048258 67.655503 
L -3.589814 66.057998 
L -2.103324 64.898813 
L -4.845635 62.80788 
L -5.794743 61.195342 
L -5.379394 60.128312 
L -6.60371 58.629495 
L -6.205018 55.961251 
L -7.112124 54.71384 
L -6.571483 51.536696 
L -7.552454 49.064303 
L -6.805046 48.160226 
L -7.983373 47.174011 
L -7.271458 45.954045 
L -10.244431 43.742855 
L -10.446068 43.020288 
L -7.21268 42.680302 
L -3.945081 40.699407 
L -2.109974 38.01795 
L -0.489292 37.248091 
L 0.738485 37.677618 
L 1.768374 36.268967 
L 4.546122 37.075527 
L 7.526887 33.605351 
L 14.56506 30.746869 
L 21.60666 29.959862 
L 23.352802 30.313911 
L 25.681754 28.524441 
L 27.1325 29.088793 
L 27.743256 28.492882 
L 29.517336 28.788612 
L 32.273985 27.608442 
L 38.67347 27.792321 
L 42.298059 29.920403 
L 45.306763 28.324087 
L 48.553263 27.734002 
L 50.086128 26.126707 
L 53.819633 27.837614 
L 55.812133 27.189893 
L 55.74028 26.153469 
L 59.776027 26.964489 
L 59.599813 27.838297 
L 60.54588 28.178966 
L 62.821226 27.263996 
L 65.409367 27.420515 
L 65.684162 28.290243 
L 64.082162 28.732476 
L 64.20311 29.755073 
L 62.378037 30.908372 
L 63.693974 31.713119 
L 62.879212 36.794274 
L 63.549125 39.237697 
L 63.250014 41.032352 
L 64.209627 41.735139 
L 63.292746 43.202582 
L 62.844448 46.74397 
L 60.0069 48.710734 
L 59.542668 50.141358 
L 57.805958 51.403371 
L 57.542333 53.099127 
L 59.260214 58.68483 
L 61.795758 59.840963 
L 63.169626 62.015552 
L 63.508566 64.618656 
L 68.51012 68.461549 
L 71.836525 84 
L 70.202655 84.942423 
L 72.873624 89.232346 
L 73.983874 93.277624 
L 73.639139 100.536639 
L 74.741421 104.247952 
L 73.249501 108.763135 
L 74.548053 112.425647 
L 74.475631 114.151461 
L 74.051229 115.404107 
L 71.576523 116.68289 
L 70.842149 118.230945 
L 75.257802 125.292372 
L 75.426547 129.297998 
L 76.557076 130.19511 
L 76.899639 131.500469 
L 78.078687 132.527636 
L 80.100745 131.829208 
L 86.003245 134.009682 
L 88.998677 140.587478 
L 57.562613 162.886499 
L 45.731179 174.882468 
L 28.484294 178.88091 
L 26.880115 177.532189 
L 27.978053 175.400734 
L 27.543518 171.756737 
L 21.948816 169.766669 
L 20.550318 167.934106 
L 19.642133 168.445408 
L 17.588206 167.677919 
L 16.057906 165.205737 
L 13.218907 164.01453 
L 13.162421 160.95459 
L -28.658599 128.12835 
z
" clip-path="url(#p3701f15715)" style="fill: #eeeeee; stroke: #000000; stroke-width: 0.3"/>
    <path d="M 105.488247 35.568406 
L 107.071866 36.268967 
L 106.928159 37.01789 
L 106.206209 36.828514 
z
" clip-path="url(#p3701f15715)" style="fill: #eeeeee; stroke: #000000; stroke-width: 0.3"/>
    <path d="M 104.527352 35.050029 
L 105.437492 34.911081 
L 105.573786 35.052087 
z
" clip-path="url(#p3701f15715)" style="fill: #eeeeee; stroke: #000000; stroke-width: 0.3"/>
   </g>
   <g id="PatchCollection_2">
    <path d="M 57.577826 53.426988 
L 57.805958 51.403371 
L 59.542668 50.141358 
L 60.0069 48.710734 
L 62.844448 46.74397 
L 63.292746 43.202582 
L 64.209627 41.735139 
L 63.250014 41.032352 
L 63.549125 39.237697 
L 62.879212 36.794274 
L 63.693974 31.713119 
L 62.378037 30.908372 
L 64.20311 29.755073 
L 64.082162 28.732476 
L 65.684162 28.290243 
L 65.409367 27.420515 
L 66.96418 27.08354 
L 69.671216 24.938991 
L 73.412709 24 
L 74.213352 24.138257 
L 73.603177 25.111901 
L 73.912259 25.630278 
L 74.601701 25.407285 
L 73.93792 24.991476 
L 74.378733 24.688201 
L 77.109146 25.405228 
L 76.099781 25.57265 
L 76.793218 25.918462 
L 76.480149 26.682485 
L 77.634931 27.919947 
L 76.522915 28.617076 
L 77.691957 29.176968 
L 78.836935 28.969473 
L 79.301237 27.954599 
L 82.567126 26.233406 
L 83.124276 28.14116 
L 80.807523 31.531862 
L 79.062678 32.161085 
L 78.528484 34.393455 
L 79.561274 36.668984 
L 82.496786 38.39629 
L 82.50544 40.953477 
L 83.324792 41.928799 
L 79.385683 47.611901 
L 76.09009 49.459076 
L 75.238686 50.765843 
L 75.701741 52.657889 
L 77.51631 54.710148 
L 78.630603 55.179816 
L 80.22392 54.675495 
L 79.925672 56.035775 
L 80.374467 56.605625 
L 81.574867 56.086212 
L 81.762489 55.271069 
L 82.509532 55.426484 
L 82.924769 57.566226 
L 84.26765 58.217717 
L 83.145943 58.010162 
L 83.467568 58.856181 
L 85.244507 59.004041 
L 84.675388 58.453407 
L 85.74901 59.107949 
L 85.362301 63.688433 
L 86.038009 65.405748 
L 81.32108 67.914742 
L 80.617847 69.029265 
L 79.44821 69.458438 
L 78.697909 71.223027 
L 77.051727 71.761125 
L 75.946544 73.87994 
L 76.981478 78.832567 
L 74.300363 82.935575 
L 71.836525 84 
L 68.51012 68.461549 
L 63.508566 64.618656 
L 63.169626 62.015552 
L 61.795758 59.840963 
L 59.260214 58.68483 
L 59.037155 56.807168 
z
" clip-path="url(#p3701f15715)" style="fill: #ff6b6b; stroke: #dd0000; stroke-width: 0.5"/>
    <path d="M 80.359639 53.176265 
L 82.632134 53.88471 
L 81.423171 55.238658 
L 80.991488 54.482686 
L 80.388657 54.603474 
z
" clip-path="url(#p3701f15715)" style="fill: #ff6b6b; stroke: #dd0000; stroke-width: 0.5"/>
    <path d="M 83.125685 46.612129 
L 83.991265 45.241772 
L 84.290935 46.060701 
z
" clip-path="url(#p3701f15715)" style="fill: #ff6b6b; stroke: #dd0000; stroke-width: 0.5"/>
    <path d="M 82.119473 46.540555 
L 82.98621 46.644041 
L 82.599865 46.969019 
z
" clip-path="url(#p3701f15715)" style="fill: #ff6b6b; stroke: #dd0000; stroke-width: 0.5"/>
   </g>
  </g>
 </g>
 <defs>
  <clipPath id="p3701f15715">
   <rect x="0" y="0" width="143.615834" height="108"/>
  </clipPath>
 </defs>
</svg>
