<?xml version="1.0" encoding="utf-8" standalone="no"?>
<!DOCTYPE svg PUBLIC "-//W3C//DTD SVG 1.1//EN"
  "http://www.w3.org/Graphics/SVG/1.1/DTD/svg11.dtd">
<svg xmlns:xlink="http://www.w3.org/1999/xlink" width="134.355486pt" height="108pt" viewBox="0 0 134.355486 108" xmlns="http://www.w3.org/2000/svg" version="1.1">
 <metadata>
  <rdf:RDF xmlns:dc="http://purl.org/dc/elements/1.1/" xmlns:cc="http://creativecommons.org/ns#" xmlns:rdf="http://www.w3.org/1999/02/22-rdf-syntax-ns#">
   <cc:Work>
    <dc:type rdf:resource="http://purl.org/dc/dcmitype/StillImage"/>
    <dc:date>2025-09-05T13:56:20.613613</dc:date>
    <dc:format>image/svg+xml</dc:format>
    <dc:creator>
     <cc:Agent>
      <dc:title>Matplotlib v3.10.3, https://matplotlib.org/</dc:title>
     </cc:Agent>
    </dc:creator>
   </cc:Work>
  </rdf:RDF>
 </metadata>
 <defs>
  <style type="text/css">*{stroke-linejoin: round; stroke-linecap: butt}</style>
 </defs>
 <g id="figure_1">
  <g id="patch_1">
   <path d="M 0 108 
L 134.355486 108 
L 134.355486 0 
L 0 0 
z
" style="fill: #ffffff"/>
  </g>
  <g id="axes_1">
   <g id="PatchCollection_1">
    <path d="M 44.394005 4.460166 
L 60.872592 -0.164354 
L 76.727143 9.485976 
L 77.528158 11.250428 
L 83.051395 16.899848 
L 90.602929 15.693191 
L 98.389878 16.354166 
L 101.560259 14.940063 
L 105.355341 18.406959 
L 107.133685 21.85857 
L 109.089008 20.928993 
L 108.497328 29.04525 
L 111.663089 29.12063 
L 113.125122 35.985846 
L 120.82094 35.638052 
L 121.440356 36.933674 
L 122.059773 37.041119 
L 121.162675 38.836988 
L 124.170939 40.697834 
L 125.145297 40.49697 
L 124.86828 37.995324 
L 127.809513 35.569254 
L 127.841211 34.211203 
L 130.180866 33.382695 
L 130.126052 32.806435 
L 131.600633 31.792784 
L 133.439734 31.426723 
L 136.286213 28.55562 
L 137.003687 28.314203 
L 137.699047 28.933565 
L 138.690906 27.445782 
L 140.68123 26.676088 
L 141.910817 27.750261 
L 139.401454 28.817631 
L 139.200374 29.728315 
L 138.145778 29.992445 
L 135.063558 33.009846 
L 136.895061 33.952587 
L 138.266295 33.411145 
L 138.922028 35.324649 
L 141.539691 36.396061 
L 141.707425 35.733598 
L 142.153166 36.354866 
L 143.047293 36.238086 
L 143.064461 34.429899 
L 144.129951 34.626094 
L 144.193346 33.227276 
L 144.678707 32.786475 
L 144.682011 33.788243 
L 145.150204 33.563598 
L 145.80066 34.475761 
L 145.957825 35.686462 
L 147.790319 35.740813 
L 147.833243 37.289965 
L 148.901703 36.686102 
L 150.983811 38.376235 
L 154.083538 38.650144 
L 151.786806 39.999279 
L 150.774476 41.307219 
L 149.026507 40.555578 
L 149.295933 42.302191 
L 147.837862 41.767972 
L 146.501298 42.908174 
L 146.898831 43.52987 
L 145.733303 43.454711 
L 144.907191 44.316763 
L 144.403339 43.374877 
L 143.719204 43.82798 
L 142.01053 42.83641 
L 137.974416 43.862379 
L 137.347735 42.677588 
L 136.372386 42.503481 
L 136.36116 41.594712 
L 138.900899 39.440851 
L 138.072147 39.169925 
L 138.504682 38.867138 
L 136.847186 37.071689 
L 136.322198 37.018184 
L 135.790942 38.289605 
L 132.024586 40.324984 
L 130.863672 39.136372 
L 129.878752 39.089663 
L 129.586541 40.606109 
L 128.877974 40.846893 
L 129.608003 42.68523 
L 128.941369 43.050857 
L 129.432679 43.900172 
L 124.933656 44.152847 
L 127.52688 44.74864 
L 126.170508 44.845887 
L 126.848362 46.502049 
L 126.069473 45.662077 
L 126.251397 46.474446 
L 125.959193 46.984455 
L 125.221573 46.738157 
L 124.526871 49.213056 
L 119.41636 48.597302 
L 117.561408 49.803327 
L 117.068124 51.913454 
L 119.096745 52.637064 
L 119.243343 53.805296 
L 121.865626 53.890225 
L 122.323257 54.99136 
L 121.647052 55.462312 
L 121.573089 57.530389 
L 123.496714 60.190439 
L 122.809941 62.357037 
L 122.001661 62.69082 
L 120.129547 65.816718 
L 119.818513 68.603105 
L 118.046111 67.838086 
L 116.487005 68.633683 
L 114.86913 66.996414 
L 111.761811 67.162459 
L 111.75686 63.723158 
L 112.431084 61.988222 
L 107.654047 59.69444 
L 105.912685 59.986601 
L 97.818669 53.958596 
L 96.625399 54.135258 
L 93.805666 52.151255 
L 92.325142 50.408891 
L 85.777691 45.426388 
L 85.141764 41.965433 
L 83.741804 40.753894 
L 82.104441 36.257627 
L 79.26292 34.816759 
L 78.292856 35.992215 
L 75.602552 35.205748 
L 73.160545 35.541651 
L 70.707976 34.083806 
L 70.564018 33.057837 
L 71.158337 32.477755 
L 70.420059 31.092734 
L 71.720307 30.874458 
L 69.508099 29.341446 
L 70.087895 28.979854 
L 70.286004 27.427523 
L 69.251886 26.567163 
L 65.367654 26.211094 
L 64.649841 24.738383 
L 63.041869 24.565123 
L 61.083249 22.565408 
L 60.742505 23.688632 
L 58.977361 23.400925 
L 58.102389 23.937264 
L 59.283769 24.722671 
L 60.461852 26.621736 
L 59.867526 26.701571 
L 59.403953 25.518259 
L 57.429481 24.960686 
L 56.743372 25.529944 
L 56.371588 27.493979 
L 53.38016 27.722445 
L 50.799479 29.928964 
L 51.062963 33.455733 
L 51.968974 34.260887 
L 51.126358 35.12676 
L 44.410508 34.640952 
z
M 137.586786 37.329031 
L 138.121013 37.817388 
L 137.939415 37.337947 
z
" clip-path="url(#p702d5f5799)" style="fill: #eeeeee; stroke: #000000; stroke-width: 0.3"/>
    <path d="M 140.095159 44.715088 
L 140.443494 44.205924 
L 141.947793 45.118088 
L 141.505023 45.551665 
L 141.720632 46.416265 
L 140.528684 46.481661 
L 140.681556 45.567805 
z
" clip-path="url(#p702d5f5799)" style="fill: #eeeeee; stroke: #000000; stroke-width: 0.3"/>
    <path d="M 144.641067 45.993732 
L 144.744741 45.871429 
L 145.407746 45.586911 
L 145.227464 46.298638 
z
" clip-path="url(#p702d5f5799)" style="fill: #eeeeee; stroke: #000000; stroke-width: 0.3"/>
    <path d="M -16.289324 -23.612416 
L -14.528806 -27.750067 
L -12.822444 -29.252074 
L -12.772914 -30.112006 
L -14.392777 -31.188932 
L -13.450442 -35.534447 
L -10.856553 -37.273417 
L -11.262016 -38.205114 
L -11.002825 -39.096897 
L -9.126743 -40.393801 
L -6.609789 -38.167748 
L -5.037476 -35.562477 
L -3.819772 -35.109794 
L -1.553422 -36.126419 
L -0.981549 -37.247515 
L -1.564648 -37.589787 
L -2.26397 -41.436328 
L -2.935555 -41.904732 
L -1.260553 -41.571796 
L 2.183216 -43.467895 
L 2.530235 -43.922271 
L 2.042229 -44.597899 
L 2.612121 -45.814541 
L 4.800547 -45.7311 
L 8.291208 -47.385141 
L 8.509782 -48.28796 
L 9.580888 -48.754441 
L 9.928897 -50.112073 
L 10.498783 -49.555133 
L 11.264139 -49.799738 
L 11.112915 -51.131887 
L 14.977999 -50.065151 
L 14.112924 -49.295243 
L 14.545465 -48.767187 
L 16.335035 -49.287181 
L 17.03138 -48.623017 
L 18.15498 -50.422494 
L 19.577392 -50.304439 
L 20.957545 -51.25631 
L 22.478347 -48.667606 
L 27.982768 -48.870162 
L 29.279712 -48.083276 
L 29.176038 -47.269848 
L 29.685833 -46.698255 
L 31.359845 -46.416711 
L 33.531761 -44.104875 
L 34.827389 -43.687437 
L 34.196082 -41.76417 
L 34.960779 -40.973882 
L 36.090655 -41.625301 
L 35.847642 -43.952422 
L 34.983232 -44.301917 
L 35.847642 -45.118953 
L 38.463982 -43.940112 
L 40.110258 -42.138293 
L 41.14768 -42.07247 
L 42.375945 -41.029507 
L 45.052377 -42.629616 
L 45.560197 -44.115065 
L 46.56394 -43.93671 
L 47.604664 -45.491597 
L 48.946513 -44.63782 
L 49.123492 -45.486921 
L 51.924734 -45.71284 
L 53.073758 -44.048395 
L 53.92562 -43.728632 
L 55.553405 -44.141394 
L 55.849903 -45.87485 
L 58.398229 -45.344872 
L 59.297634 -46.124329 
L 61.128812 -45.083494 
L 60.842217 -44.014424 
L 61.571914 -43.165109 
L 63.243281 -42.246577 
L 66.512716 -41.860144 
L 67.31637 -41.438884 
L 66.602525 -41.088962 
L 67.056853 -40.574276 
L 68.92831 -41.299596 
L 70.241758 -43.692113 
L 70.97608 -43.613552 
L 72.025392 -42.300082 
L 74.696541 -42.037225 
L 78.872645 -43.103962 
L 79.908092 -46.584877 
L 80.735521 -47.014839 
L 79.522443 -48.390516 
L 76.682897 -48.857852 
L 76.095178 -49.913758 
L 72.50745 -50.335864 
L 72.994134 -51.510465 
L 70.494016 -51.94765 
L 70.014597 -52.716917 
L 72.826407 -54.173916 
L 74.400701 -54.295159 
L 76.750253 -55.861929 
L 76.089236 -57.124006 
L 75.312654 -57.397916 
L 75.237374 -58.26761 
L 74.403339 -58.632604 
L 76.868457 -60.687089 
L 76.332907 -61.090303 
L 79.359329 -61.502646 
L 82.624145 -60.791979 
L 83.486242 -61.264837 
L 83.208235 -62.351961 
L 77.534765 -63.784965 
L 77.998332 -65.460446 
L 79.12953 -64.907548 
L 80.043464 -65.482527 
L 79.709326 -66.166651 
L 78.288888 -65.784039 
L 75.73 -66.526763 
L 76.543564 -66.550964 
L 77.767209 -67.877172 
L 76.354701 -68.579556 
L 76.470265 -69.062809 
L 77.841831 -68.785514 
L 77.73155 -69.694275 
L 78.652749 -70.063303 
L 80.212513 -69.114194 
L 81.551065 -69.550746 
L 82.907769 -68.985522 
L 82.901169 -69.68706 
L 85.521471 -69.763073 
L 85.37619 -69.064083 
L 86.2406 -68.491225 
L 86.596532 -69.984743 
L 89.814788 -70.248027 
L 90.275391 -71.023877 
L 93.801704 -71.602265 
L 95.008181 -71.139811 
L 95.713445 -71.423483 
L 95.691984 -72.171729 
L 99.359617 -72.712736 
L 100.264638 -72.287655 
L 101.481676 -72.853725 
L 103.229646 -72.095289 
L 103.318796 -73.785849 
L 104.921484 -74.11835 
L 104.926436 -74.70056 
L 106.806147 -74.481856 
L 108.012624 -75.317588 
L 108.297897 -74.571034 
L 119.294189 -76.676485 
L 120.468311 -77.519004 
L 122.281656 -77.401377 
L 123.189648 -78.360249 
L 122.35231 -79.163274 
L 125.088176 -79.369232 
L 125.697031 -80.724317 
L 127.422215 -80.051656 
L 127.246891 -81.332847 
L 128.799391 -80.438944 
L 129.747668 -80.926881 
L 131.915629 -80.506895 
L 135.364682 -78.846485 
L 136.818127 -80.090303 
L 139.240985 -80.179054 
L 139.067309 -79.67796 
L 140.242747 -78.402718 
L 140.426991 -75.906585 
L 142.079867 -74.982104 
L 141.291069 -74.176958 
L 141.606722 -72.158984 
L 140.202469 -72.0507 
L 141.419175 -70.382221 
L 142.437122 -71.19629 
L 144.524187 -70.43658 
L 145.260484 -71.57933 
L 147.913142 -70.661644 
L 147.204581 -71.371671 
L 147.054016 -72.650742 
L 148.850851 -71.627312 
L 148.685762 -71.010293 
L 149.863845 -70.65867 
L 149.068114 -70.308328 
L 149.284049 -68.790182 
L 151.251921 -69.196156 
L 150.970604 -69.893865 
L 149.992616 -69.962235 
L 150.766553 -70.653575 
L 152.797156 -70.544864 
L 153.568454 -69.372391 
L 155.469627 -69.038181 
L 156.477337 -69.182992 
L 157.010907 -70.129554 
L 157.89975 -70.020416 
L 157.530611 -68.509912 
L 155.926594 -68.438566 
L 154.634934 -66.770087 
L 154.640876 -66.02991 
L 155.667077 -65.601863 
L 155.38576 -65.101616 
L 155.793203 -64.860404 
L 157.339102 -66.332696 
L 158.944435 -66.578995 
L 160.983625 -66.212941 
L 162.038215 -65.12497 
L 162.358488 -66.860538 
L 163.495628 -66.92042 
L 164.489467 -68.154475 
L 166.124517 -67.965922 
L 168.719063 -69.433539 
L 168.25087 -70.03358 
L 168.688688 -70.284555 
L 173.509965 -71.6116 
L 173.832219 -72.399341 
L 175.380099 -72.199751 
L 178.059835 -73.356093 
L 177.146559 -72.639698 
L 177.688057 -71.984031 
L 176.581957 -70.645932 
L 174.742198 -70.811977 
L 175.499625 -69.481102 
L 184.263245 -63.564569 
L 191.778129 -53.047511 
L 198.029083 -42.975717 
L 198.442468 -42.854688 
L 197.991443 -43.572357 
L 198.805006 -43.38848 
L 200.69825 -44.547369 
L 200.589293 -46.432843 
L 201.721807 -46.605256 
L 202.255376 -47.37325 
L 205.253736 -46.424354 
L 204.611535 -44.527408 
L 206.843217 -44.555438 
L 207.222924 -42.675479 
L 209.036934 -43.123922 
L 213.711939 -42.541293 
L 214.970253 -43.163835 
L 215.31331 -44.075571 
L 216.907085 -43.920998 
L 217.748385 -44.831041 
L 219.833795 -44.831041 
L 223.134596 -43.086976 
L 224.700309 -40.876635 
L 225.047654 -38.809831 
L 229.755021 -37.224161 
L 230.002327 -36.707355 
L 229.549654 -35.908998 
L 230.199446 -35.632968 
L 231.268564 -33.351718 
L 233.76835 -33.527525 
L 237.361694 -32.263747 
L 240.127936 -34.993441 
L 241.010837 -34.890244 
L 241.186493 -34.16748 
L 240.058598 -33.169114 
L 241.496198 -32.640837 
L 242.062787 -31.239471 
L 244.354893 -30.141729 
L 244.687383 -29.156955 
L 241.72072 -29.321718 
L 240.761882 -28.08002 
L 241.273331 -27.134313 
L 241.033947 -26.117687 
L 239.839693 -24.57193 
L 234.431681 -23.187336 
L 233.132756 -19.583485 
L 234.178106 -14.279945 
L 233.025779 -12.446916 
L 231.282761 -12.362619 
L 228.176108 -10.498799 
L 228.25271 -11.347054 
L 227.690082 -11.888282 
L 222.845688 -11.806961 
L 217.198306 -13.713028 
L 216.9685 -11.54855 
L 212.534188 0.032688 
L 214.70974 0.997083 
L 214.120372 3.398097 
L 212.239012 2.509288 
L 210.353027 3.226957 
L 208.532749 1.554664 
L 203.348602 3.374742 
L 198.553406 4.149737 
L 196.987035 5.205437 
L 197.840219 6.109958 
L 199.456779 5.9265 
L 201.038337 6.649691 
L 200.166662 7.266719 
L 200.058362 11.633468 
L 202.446884 17.078631 
L 202.000479 18.168722 
L 202.96262 19.621267 
L 200.245245 20.615598 
L 201.39823 21.848166 
L 199.346498 22.567109 
L 198.787832 23.947881 
L 199.484515 27.383353 
L 197.368723 25.579201 
L 194.223433 25.208052 
L 192.451031 22.567109 
L 180.821457 21.691251 
L 178.449452 20.943859 
L 174.981243 21.790413 
L 171.039564 21.373821 
L 169.910353 22.449482 
L 167.087317 22.084907 
L 160.699011 18.698906 
L 160.923533 19.184295 
L 159.335368 19.066874 
L 158.92859 19.773293 
L 156.815437 20.587149 
L 155.804429 23.911995 
L 156.394793 25.755855 
L 145.805279 22.21316 
L 141.957038 22.927435 
L 141.300972 24.115619 
L 140.409158 24.436238 
L 140.798768 25.202103 
L 140.145674 25.220362 
L 139.447349 26.551879 
L 140.055207 27.027917 
L 138.690906 27.445782 
L 137.898478 28.84184 
L 136.286213 28.55562 
L 133.439734 31.426723 
L 131.600633 31.792784 
L 130.126052 32.806435 
L 130.180866 33.382695 
L 127.841211 34.211203 
L 127.809513 35.569254 
L 124.86828 37.995324 
L 125.145297 40.49697 
L 124.170939 40.697834 
L 121.162675 38.836988 
L 122.059773 37.041119 
L 121.440356 36.933674 
L 120.82094 35.638052 
L 113.125122 35.985846 
L 111.663089 29.12063 
L 108.497328 29.04525 
L 109.089008 20.928993 
L 107.133685 21.85857 
L 105.355341 18.406959 
L 101.560259 14.940063 
L 98.389878 16.354166 
L 90.602929 15.693191 
L 83.051395 16.899848 
L 77.528158 11.250428 
L 76.727143 9.485976 
L 60.872592 -0.164354 
L 44.395985 4.454643 
L 44.410508 34.640952 
L 41.036077 34.992994 
L 37.843908 30.74706 
L 37.565236 29.624699 
L 32.553109 26.292835 
L 28.014465 26.945535 
L 25.244263 28.026496 
L 21.787376 31.130724 
L 22.127967 29.872041 
L 21.559647 28.306832 
L 23.311935 24.642072 
L 22.593343 22.96752 
L 23.530323 24.256535 
L 23.695674 23.303571 
L 21.999535 22.277372 
L 20.734978 22.503069 
L 20.072018 21.777815 
L 18.431525 22.144953 
L 16.761384 19.276686 
L 14.363298 19.579965 
L 14.612361 17.049072 
L 11.712499 12.42332 
L 11.62515 11.076462 
L 7.986416 9.866689 
L 7.647397 7.966769 
L 8.200645 7.189005 
L 11.789459 7.464196 
L 13.517308 8.648223 
L 14.941503 8.028294 
L 16.18162 8.429544 
L 12.361422 5.53452 
L 12.341666 4.588237 
L 13.857369 3.875014 
L 14.345618 4.211731 
L 14.163106 3.084545 
L 15.257642 1.209705 
L 16.07555 1.662118 
L 17.446701 0.656652 
L 18.608312 1.395621 
L 22.30892 1.05422 
L 24.803205 1.84468 
L 27.049461 1.596911 
L 23.667592 -0.139504 
L 26.13692 -4.742846 
L 26.381824 -6.611342 
L 25.588355 -7.672984 
L 26.032403 -7.448281 
L 25.902411 -8.014376 
L 25.35853 -7.95152 
L 26.707841 -9.514723 
L 26.056325 -9.861802 
L 25.766184 -11.136108 
L 21.903867 -12.030562 
L 21.273141 -11.146807 
L 20.197333 -11.065888 
L 20.555591 -10.460004 
L 19.710119 -10.482068 
L 19.11164 -11.503254 
L 18.616631 -11.034456 
L 17.354668 -11.419656 
L 16.947532 -12.489664 
L 16.385971 -11.916206 
L 13.959803 -13.014629 
L 11.620991 -12.323142 
L 10.943994 -11.249798 
L 11.017823 -11.812886 
L 10.148442 -11.491881 
L 9.848416 -10.616155 
L 8.960832 -11.172224 
L 5.045477 -8.244428 
L 3.800676 -8.592847 
L 3.521973 -7.902699 
L 2.820018 -8.68781 
L 2.971849 -7.908714 
L 1.773844 -8.631971 
L 2.196059 -7.085145 
L 1.250236 -7.672984 
L 1.687012 -7.061076 
L 0.897703 -7.16774 
L 1.274081 -6.49775 
L -3.120125 -8.470643 
L -3.658646 -9.233533 
L -3.009512 -10.063101 
L -1.684832 -9.414649 
L -0.136952 -10.123616 
L -3.211582 -15.392125 
L -5.452509 -17.878914 
L -10.322326 -18.889812 
L -10.657787 -17.636437 
L -12.164724 -18.661132 
L -11.942182 -19.183033 
L -12.673202 -20.125346 
L -11.728886 -20.828585 
L -12.294153 -21.070207 
L -12.32387 -22.419342 
z
M 88.019276 -3.278788 
L 89.356505 -1.00942 
L 91.726862 -0.235477 
L 94.602393 -1.469113 
L 95.433783 -3.971828 
L 93.809959 -6.43611 
L 90.975703 -6.946119 
L 88.636712 -5.520553 
z
" clip-path="url(#p702d5f5799)" style="fill: #eeeeee; stroke: #000000; stroke-width: 0.3"/>
    <path d="M 6.123375 4.851727 
L 6.544549 3.875014 
L 6.937124 3.75765 
L 6.347475 4.874128 
L 7.300059 5.81004 
L 6.719253 5.782626 
z
" clip-path="url(#p702d5f5799)" style="fill: #eeeeee; stroke: #000000; stroke-width: 0.3"/>
    <path d="M 4.423077 -6.735058 
L 4.614949 -6.741074 
L 5.077718 -6.383295 
L 4.964364 -5.533315 
z
" clip-path="url(#p702d5f5799)" style="fill: #eeeeee; stroke: #000000; stroke-width: 0.3"/>
    <path d="M 22.517948 0.483441 
L 23.051434 0.094896 
L 23.317136 1.15219 
z
" clip-path="url(#p702d5f5799)" style="fill: #eeeeee; stroke: #000000; stroke-width: 0.3"/>
    <path d="M 10.224354 4.685205 
L 10.772401 4.793875 
L 10.670491 5.58233 
z
" clip-path="url(#p702d5f5799)" style="fill: #eeeeee; stroke: #000000; stroke-width: 0.3"/>
    <path d="M 7.982774 3.82653 
L 8.438266 3.716521 
L 8.285918 4.634379 
z
" clip-path="url(#p702d5f5799)" style="fill: #eeeeee; stroke: #000000; stroke-width: 0.3"/>
    <path d="M 117.068124 51.913454 
L 117.947057 49.298839 
L 119.41636 48.597302 
L 124.526871 49.213056 
L 125.221573 46.738157 
L 125.959193 46.984455 
L 126.251397 46.474446 
L 126.069473 45.662077 
L 126.848362 46.502049 
L 126.170508 44.845887 
L 127.52688 44.74864 
L 124.933656 44.152847 
L 129.432679 43.900172 
L 128.941369 43.050857 
L 129.608003 42.68523 
L 128.877974 40.846893 
L 129.586541 40.606109 
L 129.878752 39.089663 
L 130.863672 39.136372 
L 132.195617 40.273608 
L 135.790942 38.289605 
L 136.322198 37.018184 
L 138.900899 39.440851 
L 136.36116 41.594712 
L 136.372386 42.503481 
L 137.347735 42.677588 
L 137.974416 43.862379 
L 140.126525 43.543461 
L 138.25441 44.646298 
L 137.048591 46.31647 
L 137.35698 45.225525 
L 134.028775 43.786793 
L 130.919802 44.474312 
L 130.814806 46.139389 
L 130.200015 46.355964 
L 129.616258 45.609846 
L 129.148065 46.908015 
L 129.438621 49.28482 
L 133.863687 49.328135 
L 135.281473 48.629153 
L 135.42609 49.454259 
L 137.048591 48.779486 
L 137.974416 49.08906 
L 138.920047 50.580031 
L 140.242747 50.474714 
L 141.001503 49.509465 
L 143.324974 48.689881 
L 143.665719 49.949411 
L 145.118506 50.035614 
L 145.188508 51.466284 
L 147.096281 50.688742 
L 148.240679 52.164847 
L 148.799346 51.017849 
L 150.094309 50.632681 
L 154.240039 50.799573 
L 157.028733 49.943043 
L 157.051185 52.016215 
L 158.445867 53.909767 
L 157.517397 54.763749 
L 158.383788 57.117199 
L 159.741489 57.604915 
L 160.345053 56.43605 
L 161.692186 56.456429 
L 164.878419 58.127456 
L 164.608993 61.26822 
L 165.72368 63.848435 
L 165.255481 65.231114 
L 166.994869 66.862861 
L 165.258126 68.255944 
L 163.77628 66.91764 
L 161.573325 66.646919 
L 157.699002 68.371878 
L 156.983828 68.003704 
L 157.889846 67.374785 
L 157.981636 66.634822 
L 155.060867 66.334378 
L 151.830394 68.345121 
L 150.980507 69.918268 
L 148.43813 70.423824 
L 145.733961 72.627369 
L 144.561162 72.727163 
L 143.143376 69.604659 
L 144.207869 62.772774 
L 142.038924 62.541761 
L 142.677164 59.872795 
L 140.07403 58.05017 
L 138.247478 58.606042 
L 137.004351 60.947174 
L 135.670425 62.436452 
L 135.099217 62.380605 
L 135.80811 64.363121 
L 135.008085 65.705879 
L 133.480677 65.083756 
L 130.860043 65.397373 
L 130.027662 66.560716 
L 130.435099 68.317518 
L 129.679653 69.160892 
L 129.179762 69.301454 
L 126.893598 67.376487 
L 127.072226 67.861868 
L 126.561109 67.450371 
L 126.462387 68.093301 
L 125.494296 67.868237 
L 121.429788 70.76949 
L 119.84922 69.361755 
L 120.129547 65.816718 
L 122.001661 62.69082 
L 122.809941 62.357037 
L 123.496714 60.190439 
L 121.573089 57.530389 
L 121.647052 55.462312 
L 122.323257 54.99136 
L 121.865626 53.890225 
L 119.243343 53.805296 
L 119.096745 52.637064 
z
" clip-path="url(#p702d5f5799)" style="fill: #eeeeee; stroke: #000000; stroke-width: 0.3"/>
    <path d="M 137.18595 46.472745 
L 138.465061 46.665538 
L 138.502701 46.964495 
L 137.715557 47.420581 
z
" clip-path="url(#p702d5f5799)" style="fill: #eeeeee; stroke: #000000; stroke-width: 0.3"/>
    <path d="M 137.586786 37.329031 
L 137.939415 37.337947 
L 138.121013 37.817388 
z
" clip-path="url(#p702d5f5799)" style="fill: #eeeeee; stroke: #000000; stroke-width: 0.3"/>
    <path d="M -25.719246 34.897875 
L -24.139668 33.631968 
L -22.764799 33.749604 
L -20.980513 34.528847 
L -21.352297 34.850312 
L -20.490526 35.568827 
L -17.999653 35.639745 
L -16.171121 36.916269 
L -15.376706 36.342984 
L -14.946153 34.947978 
L -17.339294 33.227276 
L -18.195123 31.900854 
L -18.13767 31.202505 
L -17.340616 31.066832 
L -16.592096 29.96739 
L -15.872309 30.100096 
L -15.718773 30.820107 
L -14.612015 30.289495 
L -12.78315 32.707914 
L -12.052463 32.745288 
L -11.240886 34.796379 
L -7.660749 35.654183 
L -6.224466 33.493954 
L -4.055188 32.363309 
L -2.867387 30.338497 
L 0.094349 33.879532 
L 1.071889 36.814009 
L 3.265631 39.02624 
L 3.266149 40.128008 
L 7.730069 41.425051 
L 8.711251 43.571073 
L 7.681714 42.685641 
L 5.531132 42.469641 
L 2.969772 44.236814 
L 2.52936 47.889198 
L 1.643335 49.428661 
L 2.423801 51.340957 
L 1.56794 50.95408 
L 1.121803 53.439497 
L 0.329376 54.021312 
L 0.76667 53.034237 
L -0.384022 52.209329 
L -0.677281 54.250354 
L -1.251844 54.778672 
L -0.980424 58.370533 
L -2.682633 58.683542 
L -3.91321 56.858156 
L -4.583806 57.005728 
L -6.610447 54.951867 
L -6.192442 54.144174 
L -4.690125 53.682147 
L -5.888015 51.507906 
L -4.400891 50.605933 
L -6.749121 47.930171 
L -12.30274 51.185587 
L -16.06084 54.688155 
L -16.20216 53.04686 
L -16.819596 52.11601 
L -15.494916 51.949118 
L -17.039492 50.34859 
L -15.995464 49.162098 
L -18.168045 48.844882 
L -20.988768 45.991184 
L -22.032464 45.747433 
L -20.151762 45.422147 
L -19.477864 43.664918 
L -22.37255 41.877957 
L -23.347241 39.952989 
L -21.906338 38.413181 
L -23.056678 37.142187 
L -25.287044 36.774433 
L -24.458293 36.112389 
L -25.511892 35.660133 
z
M -22.672352 40.158947 
L -22.238495 40.394628 
L -22.15199 40.180181 
z
" clip-path="url(#p702d5f5799)" style="fill: #eeeeee; stroke: #000000; stroke-width: 0.3"/>
    <path d="M -27.175004 47.944609 
L -25.520479 47.389156 
L -24.786821 48.992659 
L -24.073634 48.791796 
L -22.956308 49.702686 
L -20.699203 49.208807 
L -20.887401 50.683647 
L -19.435937 51.670122 
L -19.612909 52.474848 
L -18.477092 54.839976 
L -22.932201 53.685122 
L -23.746755 52.072062 
L -24.758753 51.965257 
z
" clip-path="url(#p702d5f5799)" style="fill: #eeeeee; stroke: #000000; stroke-width: 0.3"/>
    <path d="M 9.823984 42.726105 
L 10.090203 42.726105 
L 9.871821 42.95448 
z
" clip-path="url(#p702d5f5799)" style="fill: #eeeeee; stroke: #000000; stroke-width: 0.3"/>
    <path d="M 8.297879 41.542415 
L 8.515743 41.603604 
L 8.472065 42.216185 
z
" clip-path="url(#p702d5f5799)" style="fill: #eeeeee; stroke: #000000; stroke-width: 0.3"/>
    <path d="M -24.602577 37.3354 
L -24.325893 37.456856 
L -24.541169 37.524372 
z
" clip-path="url(#p702d5f5799)" style="fill: #eeeeee; stroke: #000000; stroke-width: 0.3"/>
    <path d="M -25.945749 36.916269 
L -25.613917 36.669116 
L -25.634063 37.093769 
z
" clip-path="url(#p702d5f5799)" style="fill: #eeeeee; stroke: #000000; stroke-width: 0.3"/>
    <path d="M 129.055943 47.548405 
L 129.592815 45.627251 
L 130.200015 46.355964 
L 130.814806 46.139389 
L 130.919802 44.474312 
L 134.028775 43.786793 
L 137.35698 45.225525 
L 137.048591 46.31647 
L 138.25441 44.646298 
L 139.937004 44.100188 
L 140.357653 43.311601 
L 142.01053 42.83641 
L 143.719204 43.82798 
L 144.403339 43.374877 
L 144.907191 44.316763 
L 145.733303 43.454711 
L 146.898831 43.52987 
L 146.501298 42.908174 
L 147.837862 41.767972 
L 149.295933 42.302191 
L 149.026507 40.555578 
L 150.774476 41.307219 
L 151.786806 39.999279 
L 154.117217 38.815754 
L 150.983811 38.376235 
L 148.901703 36.686102 
L 147.833243 37.289965 
L 147.790319 35.740813 
L 145.957825 35.686462 
L 145.80066 34.475761 
L 145.150204 33.563598 
L 144.682011 33.788243 
L 144.678707 32.786475 
L 144.193346 33.227276 
L 144.129951 34.626094 
L 143.064461 34.429899 
L 143.047293 36.238086 
L 142.153166 36.354866 
L 141.707425 35.733598 
L 141.539691 36.396061 
L 138.922028 35.324649 
L 138.266295 33.411145 
L 136.895061 33.952587 
L 135.063558 33.009846 
L 138.145778 29.992445 
L 139.200374 29.728315 
L 139.401454 28.817631 
L 141.910817 27.750261 
L 140.884616 26.756563 
L 139.447349 26.551879 
L 140.145674 25.220362 
L 140.798768 25.202103 
L 140.409158 24.436238 
L 142.973994 22.535044 
L 144.007122 22.844412 
L 145.805279 22.21316 
L 148.646142 22.812988 
L 156.394793 25.755855 
L 155.804429 23.911995 
L 156.815437 20.587149 
L 158.92859 19.773293 
L 159.335368 19.066874 
L 160.923533 19.184295 
L 160.699011 18.698906 
L 167.087317 22.084907 
L 169.910353 22.449482 
L 171.039564 21.373821 
L 174.981243 21.790413 
L 178.449452 20.943859 
L 180.821457 21.691251 
L 192.451031 22.567109 
L 194.223433 25.208052 
L 197.368723 25.579201 
L 199.236876 27.509691 
L 199.370273 28.790241 
L 196.889304 29.052046 
L 196.279791 30.055293 
L 193.307518 30.846222 
L 187.413819 34.182327 
L 187.347121 35.062638 
L 185.593209 36.960003 
L 177.836635 37.176159 
L 176.47498 39.217061 
L 176.301962 40.478711 
L 174.445035 42.641915 
L 173.895614 41.876683 
L 170.302602 43.105216 
L 169.523382 40.30163 
L 167.185048 41.876256 
L 164.894265 41.297875 
L 164.587863 42.044848 
L 165.065302 42.821971 
L 164.066178 42.77993 
L 161.689547 44.732073 
L 159.341969 45.228927 
L 158.426054 47.099116 
L 159.089052 48.847848 
L 158.411524 49.872552 
L 156.214511 49.900574 
L 154.240039 50.799573 
L 150.094309 50.632681 
L 148.799346 51.017849 
L 148.240679 52.164847 
L 147.096281 50.688742 
L 145.188508 51.466284 
L 145.118506 50.035614 
L 143.665719 49.949411 
L 143.324974 48.689881 
L 141.001503 49.509465 
L 140.242747 50.474714 
L 138.920047 50.580031 
L 137.974416 49.08906 
L 137.048591 48.779486 
L 135.42609 49.454259 
L 135.281473 48.629153 
L 134.845636 49.199891 
L 129.529088 49.482717 
z
M 140.095159 44.715088 
L 140.681556 45.567805 
L 140.528684 46.481661 
L 141.720632 46.416265 
L 141.505023 45.551665 
L 141.947793 45.118088 
L 140.443494 44.205924 
z
M 144.641067 45.993732 
L 145.227464 46.298638 
L 145.407746 45.586911 
L 144.744741 45.871429 
z
M 137.18595 46.472745 
L 137.715557 47.420581 
L 138.502701 46.964495 
L 138.465061 46.665538 
z
" clip-path="url(#p702d5f5799)" style="fill: #eeeeee; stroke: #000000; stroke-width: 0.3"/>
    <path d="M -32.028975 50.645846 
L -29.645079 50.313764 
L -29.188112 47.980274 
L -28.509262 47.426103 
L -26.967772 48.461456 
L -24.758753 51.965257 
L -23.746755 52.072062 
L -22.932201 53.685122 
L -18.539829 54.848464 
L -15.807266 54.625307 
L -12.30274 51.185587 
L -6.749121 47.930171 
L -4.400891 50.605933 
L -5.888015 51.507906 
L -4.690125 53.682147 
L -6.192442 54.144174 
L -6.610447 54.951867 
L -4.583806 57.005728 
L -3.91321 56.858156 
L -2.682633 58.683542 
L -0.980424 58.370533 
L -0.531693 62.731456 
L 0.669436 65.032634 
L 2.645308 66.088589 
L 7.462291 66.955621 
L 8.271356 68.895668 
L 12.631807 72.064544 
L 18.409686 73.584285 
L 31.811323 70.544475 
L 29.27232 71.166745 
L 31.861243 71.625181 
L 31.897637 69.927217 
L 31.218563 67.33848 
L 33.088665 67.487745 
L 35.948019 66.548398 
L 36.80648 65.843893 
L 37.051474 64.112993 
L 38.991609 62.329434 
L 42.686979 60.962467 
L 46.46357 61.278196 
L 46.48668 60.463066 
L 47.337219 59.841371 
L 51.183147 60.398517 
L 52.055486 59.656647 
L 53.189316 62.20437 
L 58.328227 63.678142 
L 58.648507 64.577568 
L 59.613287 64.950844 
L 62.445569 64.446776 
L 65.711701 65.796971 
L 66.666578 68.449164 
L 70.228551 69.94311 
L 72.292832 73.136951 
L 77.554572 73.143747 
L 77.432407 75.436897 
L 77.930975 77.356342 
L 77.324765 78.615025 
L 78.035313 79.24479 
L 78.348322 82.086597 
L 77.690607 84.121977 
L 77.187413 84.306281 
L 77.436368 85.75139 
L 76.913361 88.112901 
L 76.159896 89.565233 
L 74.576357 90.564445 
L 75.795376 92.187276 
L 74.218438 92.288131 
L 73.254315 93.66551 
L 73.375822 97.779584 
L 75.989523 98.800885 
L 73.732418 101.782399 
L 73.702701 102.546777 
L 75.41105 109.197973 
L 75.057099 111.019744 
L 75.356236 115.395837 
L 80.884099 116.394203 
L 81.775587 119.337924 
L 81.621061 120.717637 
L 75.500859 128.84387 
L 78.650769 132.81951 
L 80.114782 136.956305 
L 82.199534 139.654789 
L 85.202514 140.671414 
L 86.562528 142.23161 
L 87.750182 142.088501 
L 88.089936 148.263856 
L 87.627685 150.138721 
L 88.586523 150.576966 
L 90.405485 150.20751 
L 91.316115 151.367254 
L 90.752171 151.790206 
L 90.966125 153.234895 
L 90.438499 153.726218 
L 90.320295 155.247767 
L 85.558452 155.92807 
L 84.750173 156.43001 
L 84.578478 157.58253 
L 83.675764 157.475512 
L 81.817188 158.69683 
L 81.315975 162.028267 
L 80.714391 162.445697 
L 80.456849 166.420491 
L 79.125785 168.278312 
L 74.153311 166.506907 
L 73.617748 165.093839 
L 72.631365 165.661274 
L 73.09122 166.381129 
L 71.954892 165.66696 
L 69.491199 166.055818 
L 66.616601 164.973197 
L 63.997308 165.482713 
L 62.599636 164.161601 
L 60.003958 163.737276 
L 57.794096 164.134852 
L 57.092142 163.070195 
L 55.868656 163.543677 
L 55.765704 162.66293 
L 52.928241 162.322869 
L 52.003221 159.866879 
L 52.298039 159.182746 
L 51.451014 157.135698 
L 51.096916 153.555875 
L 50.462037 152.699871 
L 50.767257 152.30665 
L 50.078299 152.233752 
L 49.716405 151.184486 
L 45.338799 151.011275 
L 44.16055 152.112041 
L 42.413457 152.368841 
L 41.492596 154.101574 
L 39.889538 154.036039 
L 36.823808 156.474303 
L 34.257771 155.576175 
L 33.738322 154.673356 
L 29.955559 154.726187 
L 28.520969 153.528461 
L 28.217826 152.531353 
L 25.563392 151.476063 
L 22.833046 149.43102 
L 23.272417 148.64457 
L 21.927782 147.132521 
L 19.062761 145.488398 
L 16.968342 145.505885 
L 15.15653 144.674822 
L 13.117456 139.726101 
L 12.977586 138.066267 
L 11.354766 136.441866 
L 11.472279 135.92359 
L 11.957927 136.311461 
L 12.153953 135.4471 
L 11.581473 134.740566 
L 10.325746 134.717162 
L 10.399064 132.205334 
L 7.137826 128.187471 
L 6.6813 126.069875 
L 5.666318 126.002663 
L 3.223513 127.489969 
L 2.888653 126.395892 
L 1.38907 126.392548 
L 1.236198 125.504445 
L 0.854025 125.839486 
L -0.680923 124.549468 
L 1.119203 124.83001 
L 1.50866 123.983374 
L 1.172241 123.517583 
L -0.295625 123.441348 
L 0.061074 124.124141 
L -0.593567 124.238161 
L -1.05686 124.838367 
L -0.718358 127.331804 
L -3.599876 127.76779 
L -4.029765 125.862355 
L -6.479695 123.86647 
L -6.488282 119.550678 
L -8.656237 119.504396 
L -8.617939 116.109265 
L -7.6241 112.83983 
L -9.816487 110.021805 
L -10.330907 107.994915 
L -11.260693 107.26026 
L -12.377029 107.343496 
L -16.282724 103.914812 
L -18.725389 103.400981 
L -18.575814 102.518755 
L -19.151648 102.157155 
L -18.277003 101.642264 
L -18.352947 100.887222 
L -19.508571 98.992405 
L -20.287134 98.963101 
L -19.805734 98.49874 
L -20.073838 97.840944 
L -21.041263 98.233755 
L -22.630751 95.312114 
L -23.304317 95.025262 
L -22.255338 93.66168 
L -22.172129 92.244388 
L -23.069885 91.156418 
L -22.517825 90.747049 
L -22.535658 89.945725 
L -21.252253 90.277807 
L -21.726056 88.884502 
L -21.474462 88.177032 
L -20.302327 87.356166 
L -19.899836 85.872838 
L -18.380018 85.673248 
L -18.577469 83.972926 
L -19.575269 82.529518 
L -19.32103 81.049584 
L -17.255427 79.987523 
L -18.959156 79.545876 
L -20.948816 79.92594 
L -22.28439 78.422232 
L -23.687985 78.421813 
L -24.208348 75.061072 
L -25.272847 74.893334 
L -25.789574 73.986693 
L -25.509253 72.705929 
L -26.862986 71.721993 
L -26.454227 70.024218 
L -27.314675 69.306122 
L -27.002325 67.749969 
L -28.468319 66.615075 
L -28.315115 64.268207 
L -30.832734 62.782545 
L -29.192732 59.157247 
L -30.274067 58.796288 
L -30.366853 55.00538 
L -31.153007 54.010621 
L -30.931456 52.527293 
L -31.627474 52.075883 
z
" clip-path="url(#p702d5f5799)" style="fill: #eeeeee; stroke: #000000; stroke-width: 0.3"/>
    <path d="M 39.977935 155.123426 
L 43.105539 153.99993 
L 43.002064 152.708902 
L 43.894849 153.097111 
L 45.905561 152.30665 
L 46.384974 152.699871 
L 44.209946 154.827173 
L 43.760174 154.443977 
L 40.01537 156.041621 
z
" clip-path="url(#p702d5f5799)" style="fill: #eeeeee; stroke: #000000; stroke-width: 0.3"/>
    <path d="M 31.148887 156.142607 
L 31.889836 155.98344 
L 32.005272 156.535163 
L 31.484782 156.50106 
z
" clip-path="url(#p702d5f5799)" style="fill: #eeeeee; stroke: #000000; stroke-width: 0.3"/>
    <path d="M 47.325073 151.880657 
L 47.339634 151.673672 
L 47.773286 151.824482 
z
" clip-path="url(#p702d5f5799)" style="fill: #eeeeee; stroke: #000000; stroke-width: 0.3"/>
    <path d="M 46.728147 153.322816 
L 47.130606 153.210136 
L 46.970974 153.656862 
z
" clip-path="url(#p702d5f5799)" style="fill: #eeeeee; stroke: #000000; stroke-width: 0.3"/>
    <path d="M 43.610426 155.445433 
L 43.707136 155.072271 
L 43.84337 155.423032 
z
" clip-path="url(#p702d5f5799)" style="fill: #eeeeee; stroke: #000000; stroke-width: 0.3"/>
    <path d="M 38.236042 161.521701 
L 38.506427 161.661474 
L 38.276602 161.702603 
z
" clip-path="url(#p702d5f5799)" style="fill: #eeeeee; stroke: #000000; stroke-width: 0.3"/>
    <path d="M 35.026801 161.257545 
L 35.304463 161.371902 
L 35.051758 161.348835 
z
" clip-path="url(#p702d5f5799)" style="fill: #eeeeee; stroke: #000000; stroke-width: 0.3"/>
    <path d="M 34.88849 158.099706 
L 35.267028 158.162234 
L 35.09856 158.486575 
z
" clip-path="url(#p702d5f5799)" style="fill: #eeeeee; stroke: #000000; stroke-width: 0.3"/>
    <path d="M 29.221888 154.964267 
L 29.272844 154.874654 
L 29.509429 155.148506 
z
" clip-path="url(#p702d5f5799)" style="fill: #eeeeee; stroke: #000000; stroke-width: 0.3"/>
    <path d="M 26.335029 153.581292 
L 27.821091 153.949105 
L 26.80404 153.978524 
z
" clip-path="url(#p702d5f5799)" style="fill: #eeeeee; stroke: #000000; stroke-width: 0.3"/>
    <path d="M 8.022114 133.686016 
L 8.350425 133.770477 
L 8.297879 134.179147 
z
" clip-path="url(#p702d5f5799)" style="fill: #eeeeee; stroke: #000000; stroke-width: 0.3"/>
    <path d="M 75.500859 128.84387 
L 85.935514 132.544754 
L 92.906919 131.807979 
L 96.213336 132.719082 
L 96.766054 131.916263 
L 98.715435 131.208997 
L 102.285004 131.45721 
L 109.691914 129.031568 
L 110.617739 128.035322 
L 109.843138 127.203001 
L 110.392559 125.667015 
L 110.154165 122.736458 
L 110.782169 120.094668 
L 111.956284 119.650054 
L 112.895316 117.851629 
L 114.468951 116.874489 
L 115.05667 117.522095 
L 117.043358 117.753535 
L 119.717478 116.715667 
L 119.753469 116.217549 
L 118.738168 116.085056 
L 118.466761 115.106642 
L 121.003861 114.216141 
L 122.106 112.683975 
L 124.402725 113.501019 
L 124.733566 113.268732 
L 123.896228 113.026255 
L 125.538543 113.094626 
L 126.356726 114.509156 
L 127.866308 113.929494 
L 129.519516 111.755253 
L 129.097876 107.441163 
L 130.332083 105.859954 
L 130.014455 104.900227 
L 130.659621 104.202092 
L 130.72632 102.792442 
L 133.965712 101.979228 
L 135.88075 100.404601 
L 134.989594 98.86246 
L 134.754178 97.1375 
L 133.727983 96.840245 
L 133.023045 95.408301 
L 133.185495 94.666423 
L 137.334528 95.311686 
L 140.788865 94.362158 
L 141.168572 91.875787 
L 140.113976 90.436201 
L 140.809336 90.21878 
L 140.903765 89.278167 
L 143.389028 87.003704 
L 144.464753 85.031592 
L 143.774019 84.117736 
L 144.365699 83.059916 
L 143.356007 80.059715 
L 141.448892 77.997151 
L 143.956275 75.678527 
L 144.289097 74.609662 
L 145.389255 75.114158 
L 145.329163 74.427913 
L 147.874844 73.001492 
L 147.862295 72.527147 
L 150.389491 71.629422 
L 157.257216 71.004538 
L 159.782432 71.670617 
L 163.789487 69.707421 
L 165.130678 70.918549 
L 166.586103 70.203428 
L 168.190778 70.847204 
L 168.705857 72.43202 
L 170.602404 72.429899 
L 172.214708 74.712276 
L 172.42764 76.479432 
L 171.705866 77.439151 
L 171.839256 78.112658 
L 172.910362 78.552604 
L 173.396382 79.965015 
L 175.884616 79.212093 
L 175.982347 80.416844 
L 177.302351 81.280877 
L 179.037828 85.682805 
L 178.808687 86.702192 
L 177.176276 87.287796 
L 176.422146 88.717619 
L 172.485093 89.243341 
L 170.911457 90.667856 
L 161.383139 88.489572 
L 159.041509 89.527859 
L 158.150027 91.553263 
L 159.496495 93.012382 
L 158.875098 93.865099 
L 159.021696 94.578306 
L 161.296634 95.119107 
L 159.340652 96.989509 
L 160.564956 98.964161 
L 159.571775 101.565397 
L 161.545589 103.072507 
L 161.768788 104.941209 
L 163.222898 105.059049 
L 163.935426 104.412512 
L 163.579494 106.410526 
L 163.961182 107.369825 
L 166.097439 107.411653 
L 168.240302 109.09287 
L 167.828898 110.019677 
L 164.851341 111.034182 
L 163.012247 112.797362 
L 162.684045 113.616526 
L 163.500247 115.689698 
L 162.792344 118.019367 
L 163.766377 118.772281 
L 161.596435 120.336717 
L 158.609633 124.61599 
L 159.201313 126.131162 
L 155.53368 128.275679 
L 154.655405 131.486514 
L 152.722534 135.504196 
L 149.043681 137.809228 
L 147.736169 141.206488 
L 146.192251 142.999596 
L 145.975651 144.444917 
L 139.312635 146.566927 
L 138.53836 146.240795 
L 137.417072 143.982471 
L 136.184187 144.019409 
L 131.024805 151.299302 
L 130.831316 154.50759 
L 132.820975 155.780285 
L 135.009408 156.192628 
L 134.412444 160.710556 
L 135.591843 162.951039 
L 138.177144 163.224094 
L 138.181112 165.507481 
L 139.421261 167.424379 
L 140.796788 171.374964 
L 140.100111 172.18075 
L 140.855563 173.67979 
L 138.826277 175.082216 
L 137.735364 174.864795 
L 137.327928 173.492297 
L 134.700361 174.478567 
L 133.820763 175.626411 
L 132.17581 175.598809 
L 131.20772 174.709794 
L 127.371369 174.870317 
L 126.997936 174.349682 
L 126.579925 175.041022 
L 125.99551 174.262633 
L 125.84957 177.270263 
L 123.331952 177.258799 
L 122.390173 178.281613 
L 122.226899 177.763993 
L 122.173344 179.494393 
L 121.621661 179.25932 
L 121.873842 178.498286 
L 121.307081 177.483124 
L 121.307081 178.886158 
L 120.295741 177.707818 
L 120.145469 178.549441 
L 118.90587 178.613308 
L 118.986983 177.534278 
L 118.757681 178.216069 
L 117.888811 177.875679 
L 118.285028 177.483124 
L 117.714101 177.08521 
L 118.237191 176.406764 
L 117.093266 176.401751 
L 116.750087 175.453464 
L 116.658572 174.275789 
L 117.147339 174.157751 
L 116.567057 173.951111 
L 116.004449 172.133112 
L 116.445385 172.133112 
L 115.787102 171.7653 
L 116.464099 170.837409 
L 114.608342 170.051961 
L 112.621545 170.088069 
L 113.151912 167.278311 
L 111.942464 165.761923 
L 111.834829 164.50868 
L 110.841175 163.624925 
L 109.74508 163.891759 
L 109.045209 164.864453 
L 110.591587 164.219116 
L 111.586807 164.813635 
L 111.626325 165.491744 
L 110.050824 164.88051 
L 106.219182 165.9358 
L 104.578689 165.542907 
L 103.044782 166.333368 
L 100.419465 166.103653 
L 99.848543 167.404706 
L 99.276057 166.545694 
L 98.470109 166.838611 
L 96.267007 166.006348 
L 96.198372 165.259687 
L 96.655422 165.093839 
L 95.953468 165.065752 
L 95.513573 165.374381 
L 96.044983 165.935126 
L 92.931933 165.767273 
L 92.273657 166.389543 
L 92.471765 167.174991 
L 86.25479 166.59551 
L 85.076791 167.48897 
L 85.319216 168.046872 
L 84.520565 167.956026 
L 84.785238 167.245153 
L 83.812228 166.971687 
L 83.261439 167.438242 
L 83.505449 167.886209 
L 81.156541 168.5875 
L 81.498372 167.221807 
L 80.253571 167.105774 
L 80.714391 162.445697 
L 81.315975 162.028267 
L 81.817188 158.69683 
L 83.675764 157.475512 
L 84.578478 157.58253 
L 84.750173 156.43001 
L 85.558452 155.92807 
L 87.699329 155.255409 
L 90.176995 155.409563 
L 90.485058 153.5967 
L 90.945654 153.38522 
L 90.752171 151.790206 
L 91.316115 151.367254 
L 90.405485 150.20751 
L 88.586523 150.576966 
L 87.627685 150.138721 
L 88.089936 148.263856 
L 87.750182 142.088501 
L 86.562528 142.23161 
L 85.202514 140.671414 
L 82.199534 139.654789 
L 80.114782 136.956305 
L 78.650769 132.81951 
z
" clip-path="url(#p702d5f5799)" style="fill: #eeeeee; stroke: #000000; stroke-width: 0.3"/>
    <path d="M 117.325685 176.579301 
L 117.932489 176.585325 
L 117.559152 176.92237 
z
" clip-path="url(#p702d5f5799)" style="fill: #eeeeee; stroke: #000000; stroke-width: 0.3"/>
    <path d="M 73.254315 93.66551 
L 74.218438 92.288131 
L 75.795376 92.187276 
L 74.576357 90.564445 
L 76.159896 89.565233 
L 76.913361 88.112901 
L 77.436368 85.75139 
L 77.149774 84.481242 
L 77.690607 84.121977 
L 78.218234 81.50779 
L 80.359117 83.051846 
L 82.932202 82.983476 
L 84.377731 84.176336 
L 84.713191 85.434592 
L 85.643968 84.2842 
L 87.316325 84.549186 
L 89.786394 82.99876 
L 89.763616 81.456832 
L 90.643872 80.844053 
L 89.93894 79.552244 
L 92.022702 79.432489 
L 94.959316 78.129217 
L 95.951507 78.383166 
L 96.029099 77.507949 
L 98.715435 76.140554 
L 100.63906 70.660779 
L 100.63906 69.185093 
L 102.455709 68.238539 
L 105.482789 68.042343 
L 106.91775 65.402254 
L 110.323221 67.433385 
L 114.86913 66.996414 
L 116.487005 68.633683 
L 118.046111 67.838086 
L 119.601588 68.269963 
L 119.770638 69.251343 
L 121.349889 70.765882 
L 125.494296 67.868237 
L 126.462387 68.093301 
L 126.561109 67.450371 
L 127.072226 67.861868 
L 126.893598 67.376487 
L 129.604041 69.189769 
L 130.435099 68.317518 
L 130.027662 66.560716 
L 130.860043 65.397373 
L 133.480677 65.083756 
L 135.008085 65.705879 
L 135.80811 64.363121 
L 135.099217 62.380605 
L 135.670425 62.436452 
L 137.004351 60.947174 
L 138.247478 58.606042 
L 140.07403 58.05017 
L 142.677164 59.872795 
L 142.038924 62.541761 
L 144.207869 62.772774 
L 143.143376 69.604659 
L 144.561162 72.727163 
L 145.733961 72.627369 
L 148.43813 70.423824 
L 150.980507 69.918268 
L 151.830394 68.345121 
L 155.060867 66.334378 
L 157.981636 66.634822 
L 157.889846 67.374785 
L 156.983828 68.003704 
L 157.699002 68.371878 
L 161.573325 66.646919 
L 163.77628 66.91764 
L 165.258126 68.255944 
L 164.630122 68.397147 
L 164.166549 67.708141 
L 161.910108 68.782306 
L 162.990453 70.465438 
L 162.074538 70.204274 
L 159.782432 71.670617 
L 158.105781 71.042544 
L 154.393243 71.165694 
L 148.142948 72.403143 
L 145.329163 74.427913 
L 145.389255 75.114158 
L 144.289097 74.609662 
L 143.956275 75.678527 
L 141.81407 77.342331 
L 141.480922 78.150878 
L 142.665937 78.922907 
L 143.681565 80.825793 
L 143.536948 81.581255 
L 144.180797 82.07598 
L 144.355795 83.220011 
L 143.774019 84.117736 
L 144.464753 85.031592 
L 143.389028 87.003704 
L 140.903765 89.278167 
L 140.809336 90.21878 
L 140.113976 90.436201 
L 141.168572 91.875787 
L 140.788865 94.362158 
L 137.334528 95.311686 
L 133.185495 94.666423 
L 133.023045 95.408301 
L 133.727983 96.840245 
L 134.754178 97.1375 
L 134.989594 98.86246 
L 135.88075 100.404601 
L 133.965712 101.979228 
L 130.72632 102.792442 
L 130.659621 104.202092 
L 130.014455 104.900227 
L 130.332083 105.859954 
L 129.097876 107.441163 
L 129.519516 111.755253 
L 127.866308 113.929494 
L 126.356726 114.509156 
L 125.538543 113.094626 
L 123.896228 113.026255 
L 124.733566 113.268732 
L 124.402725 113.501019 
L 122.106 112.683975 
L 121.003861 114.216141 
L 118.466761 115.106642 
L 118.738168 116.085056 
L 119.753469 116.217549 
L 119.717478 116.715667 
L 117.043358 117.753535 
L 115.05667 117.522095 
L 114.468951 116.874489 
L 112.895316 117.851629 
L 111.956284 119.650054 
L 110.782169 120.094668 
L 110.154165 122.736458 
L 110.392559 125.667015 
L 109.843138 127.203001 
L 110.617739 128.035322 
L 109.691914 129.031568 
L 102.285004 131.45721 
L 98.715435 131.208997 
L 96.766054 131.916263 
L 96.213336 132.719082 
L 92.906919 131.807979 
L 85.935514 132.544754 
L 75.500859 128.84387 
L 81.621061 120.717637 
L 81.775587 119.337924 
L 80.884099 116.394203 
L 75.356236 115.395837 
L 75.057099 111.019744 
L 75.41105 109.197973 
L 73.702701 102.546777 
L 73.732418 101.782399 
L 75.989523 98.800885 
L 73.375822 97.779584 
z
" clip-path="url(#p702d5f5799)" style="fill: #eeeeee; stroke: #000000; stroke-width: 0.3"/>
    <path d="M 21.787376 31.130724 
L 25.244263 28.026496 
L 28.014465 26.945535 
L 32.553109 26.292835 
L 37.565236 29.624699 
L 37.843908 30.74706 
L 41.215036 35.092361 
L 43.974013 34.600611 
L 51.002871 35.196405 
L 51.968974 34.260887 
L 51.062963 33.455733 
L 50.799479 29.928964 
L 53.38016 27.722445 
L 56.371588 27.493979 
L 56.743372 25.529944 
L 57.429481 24.960686 
L 59.403953 25.518259 
L 59.867526 26.701571 
L 60.461852 26.621736 
L 59.283769 24.722671 
L 58.102389 23.937264 
L 58.977361 23.400925 
L 60.742505 23.688632 
L 61.083249 22.565408 
L 63.041869 24.565123 
L 64.649841 24.738383 
L 65.367654 26.211094 
L 69.251886 26.567163 
L 70.286004 27.427523 
L 70.087895 28.979854 
L 69.508099 29.341446 
L 71.720307 30.874458 
L 70.420059 31.092734 
L 71.158337 32.477755 
L 70.564018 33.057837 
L 70.707976 34.083806 
L 73.160545 35.541651 
L 75.602552 35.205748 
L 78.292856 35.992215 
L 79.26292 34.816759 
L 82.104441 36.257627 
L 83.741804 40.753894 
L 85.141764 41.965433 
L 85.777691 45.426388 
L 92.325142 50.408891 
L 93.805666 52.151255 
L 96.625399 54.135258 
L 97.818669 53.958596 
L 105.912685 59.986601 
L 107.654047 59.69444 
L 112.56811 62.382093 
L 111.75686 63.723158 
L 111.934497 66.450731 
L 111.444509 67.445276 
L 109.483902 67.057988 
L 106.91775 65.402254 
L 105.482789 68.042343 
L 102.455709 68.238539 
L 100.825278 69.041564 
L 99.44579 73.269024 
L 99.460977 74.886966 
L 98.715435 76.140554 
L 96.029099 77.507949 
L 95.951507 78.383166 
L 94.959316 78.129217 
L 92.022702 79.432489 
L 89.93894 79.552244 
L 90.643872 80.844053 
L 89.763616 81.456832 
L 89.786394 82.99876 
L 87.316325 84.549186 
L 85.643968 84.2842 
L 84.713191 85.434592 
L 84.377731 84.176336 
L 82.932202 82.983476 
L 80.359117 83.051846 
L 78.218234 81.50779 
L 78.035313 79.24479 
L 77.324765 78.615025 
L 77.930975 77.356342 
L 77.432407 75.436897 
L 77.554572 73.143747 
L 72.292832 73.136951 
L 70.228551 69.94311 
L 66.666578 68.449164 
L 65.711701 65.796971 
L 62.445569 64.446776 
L 59.613287 64.950844 
L 58.648507 64.577568 
L 58.328227 63.678142 
L 53.189316 62.20437 
L 52.125482 59.665563 
L 51.183147 60.398517 
L 47.337219 59.841371 
L 45.916129 61.371836 
L 41.017586 61.24996 
L 37.242976 63.900453 
L 36.80648 65.843893 
L 35.948019 66.548398 
L 33.088665 67.487745 
L 31.218563 67.33848 
L 30.650754 64.034186 
L 30.664274 57.619526 
L 31.659493 54.410186 
L 29.862486 53.074693 
L 30.010156 51.733849 
L 29.597302 52.073237 
L 29.749132 53.034237 
L 29.268684 51.782333 
L 29.007142 52.131418 
L 28.971259 50.81632 
L 26.338147 50.891889 
L 26.411982 52.244106 
L 25.924774 50.429114 
L 27.143059 48.256345 
L 26.766598 49.405257 
L 29.008701 49.87639 
L 29.046136 49.386866 
L 30.064754 49.38118 
L 28.788754 48.127944 
L 28.043122 48.378721 
L 27.821091 47.398335 
L 29.05082 45.765915 
L 27.949524 45.446587 
L 27.18673 45.995293 
L 24.828162 45.324202 
L 25.431841 47.422413 
L 23.709193 45.061715 
L 23.697233 41.520343 
L 24.50578 40.094233 
L 24.846883 36.584968 
L 26.159277 38.334415 
L 25.793741 38.566809 
L 26.140038 39.176038 
L 27.744138 38.639034 
L 28.466896 39.445543 
L 29.371636 38.213041 
L 29.987276 40.360731 
L 32.862699 39.506066 
L 34.348244 39.966507 
L 33.367069 38.183614 
L 34.073182 37.966266 
L 34.804259 38.847013 
L 35.858229 38.609607 
L 36.6257 37.572043 
L 36.101574 36.702332 
L 36.673019 36.982536 
L 32.242375 33.27465 
L 31.122889 29.844955 
L 31.174886 28.549917 
L 30.611242 28.044682 
L 26.427061 28.214877 
L 25.126622 29.1956 
L 23.905736 31.732837 
L 24.846883 31.74421 
L 24.1886 34.167428 
L 24.628494 36.870185 
L 23.853222 34.181809 
L 22.582941 33.015836 
L 22.77689 31.978272 
z
" clip-path="url(#p702d5f5799)" style="fill: #eeeeee; stroke: #000000; stroke-width: 0.3"/>
    <path d="M 28.523052 49.540347 
L 28.657721 48.861564 
L 28.79499 49.383859 
z
" clip-path="url(#p702d5f5799)" style="fill: #eeeeee; stroke: #000000; stroke-width: 0.3"/>
    <path d="M 25.637227 54.486758 
L 25.933611 52.969696 
L 26.032403 55.732647 
z
" clip-path="url(#p702d5f5799)" style="fill: #eeeeee; stroke: #000000; stroke-width: 0.3"/>
   </g>
   <g id="PatchCollection_2">
    <path d="M 21.787376 31.130724 
L 25.244263 28.026496 
L 28.014465 26.945535 
L 32.553109 26.292835 
L 37.565236 29.624699 
L 37.843908 30.74706 
L 41.215036 35.092361 
L 43.974013 34.600611 
L 51.002871 35.196405 
L 51.968974 34.260887 
L 51.062963 33.455733 
L 50.799479 29.928964 
L 53.38016 27.722445 
L 56.371588 27.493979 
L 56.743372 25.529944 
L 57.429481 24.960686 
L 59.403953 25.518259 
L 59.867526 26.701571 
L 60.461852 26.621736 
L 59.283769 24.722671 
L 58.102389 23.937264 
L 58.977361 23.400925 
L 60.742505 23.688632 
L 61.083249 22.565408 
L 63.041869 24.565123 
L 64.649841 24.738383 
L 65.367654 26.211094 
L 69.251886 26.567163 
L 70.286004 27.427523 
L 70.087895 28.979854 
L 69.508099 29.341446 
L 71.720307 30.874458 
L 70.420059 31.092734 
L 71.158337 32.477755 
L 70.564018 33.057837 
L 70.707976 34.083806 
L 73.160545 35.541651 
L 75.602552 35.205748 
L 78.292856 35.992215 
L 79.26292 34.816759 
L 82.104441 36.257627 
L 83.741804 40.753894 
L 85.141764 41.965433 
L 85.777691 45.426388 
L 92.325142 50.408891 
L 93.805666 52.151255 
L 96.625399 54.135258 
L 97.818669 53.958596 
L 105.912685 59.986601 
L 107.654047 59.69444 
L 112.56811 62.382093 
L 111.75686 63.723158 
L 111.934497 66.450731 
L 111.444509 67.445276 
L 109.483902 67.057988 
L 106.91775 65.402254 
L 105.482789 68.042343 
L 102.455709 68.238539 
L 100.825278 69.041564 
L 99.44579 73.269024 
L 99.460977 74.886966 
L 98.715435 76.140554 
L 96.029099 77.507949 
L 95.951507 78.383166 
L 94.959316 78.129217 
L 92.022702 79.432489 
L 89.93894 79.552244 
L 90.643872 80.844053 
L 89.763616 81.456832 
L 89.786394 82.99876 
L 87.316325 84.549186 
L 85.643968 84.2842 
L 84.713191 85.434592 
L 84.377731 84.176336 
L 82.932202 82.983476 
L 80.359117 83.051846 
L 78.218234 81.50779 
L 78.035313 79.24479 
L 77.324765 78.615025 
L 77.930975 77.356342 
L 77.432407 75.436897 
L 77.554572 73.143747 
L 72.292832 73.136951 
L 70.228551 69.94311 
L 66.666578 68.449164 
L 65.711701 65.796971 
L 62.445569 64.446776 
L 59.613287 64.950844 
L 58.648507 64.577568 
L 58.328227 63.678142 
L 53.189316 62.20437 
L 52.125482 59.665563 
L 51.183147 60.398517 
L 47.337219 59.841371 
L 45.916129 61.371836 
L 41.017586 61.24996 
L 37.242976 63.900453 
L 36.80648 65.843893 
L 35.948019 66.548398 
L 33.088665 67.487745 
L 31.218563 67.33848 
L 30.650754 64.034186 
L 30.664274 57.619526 
L 31.659493 54.410186 
L 29.862486 53.074693 
L 30.010156 51.733849 
L 29.597302 52.073237 
L 29.749132 53.034237 
L 29.268684 51.782333 
L 29.007142 52.131418 
L 28.971259 50.81632 
L 26.338147 50.891889 
L 26.411982 52.244106 
L 25.924774 50.429114 
L 27.143059 48.256345 
L 26.766598 49.405257 
L 29.008701 49.87639 
L 29.046136 49.386866 
L 30.064754 49.38118 
L 28.788754 48.127944 
L 28.043122 48.378721 
L 27.821091 47.398335 
L 29.05082 45.765915 
L 27.949524 45.446587 
L 27.18673 45.995293 
L 24.828162 45.324202 
L 25.431841 47.422413 
L 23.709193 45.061715 
L 23.697233 41.520343 
L 24.50578 40.094233 
L 24.846883 36.584968 
L 26.159277 38.334415 
L 25.793741 38.566809 
L 26.140038 39.176038 
L 27.744138 38.639034 
L 28.466896 39.445543 
L 29.371636 38.213041 
L 29.987276 40.360731 
L 32.862699 39.506066 
L 34.348244 39.966507 
L 33.367069 38.183614 
L 34.073182 37.966266 
L 34.804259 38.847013 
L 35.858229 38.609607 
L 36.6257 37.572043 
L 36.101574 36.702332 
L 36.673019 36.982536 
L 32.242375 33.27465 
L 31.122889 29.844955 
L 31.174886 28.549917 
L 30.611242 28.044682 
L 26.427061 28.214877 
L 25.126622 29.1956 
L 23.905736 31.732837 
L 24.846883 31.74421 
L 24.1886 34.167428 
L 24.628494 36.870185 
L 23.853222 34.181809 
L 22.582941 33.015836 
L 22.77689 31.978272 
z
" clip-path="url(#p702d5f5799)" style="fill: #ff6b6b; stroke: #dd0000; stroke-width: 0.5"/>
    <path d="M 28.523052 49.540347 
L 28.657721 48.861564 
L 28.79499 49.383859 
z
" clip-path="url(#p702d5f5799)" style="fill: #ff6b6b; stroke: #dd0000; stroke-width: 0.5"/>
    <path d="M 25.637227 54.486758 
L 25.933611 52.969696 
L 26.032403 55.732647 
z
" clip-path="url(#p702d5f5799)" style="fill: #ff6b6b; stroke: #dd0000; stroke-width: 0.5"/>
   </g>
  </g>
 </g>
 <defs>
  <clipPath id="p702d5f5799">
   <rect x="0" y="0" width="134.355486" height="108"/>
  </clipPath>
 </defs>
</svg>
