<?xml version="1.0" encoding="utf-8" standalone="no"?>
<!DOCTYPE svg PUBLIC "-//W3C//DTD SVG 1.1//EN"
  "http://www.w3.org/Graphics/SVG/1.1/DTD/svg11.dtd">
<svg xmlns:xlink="http://www.w3.org/1999/xlink" width="172.750864pt" height="108pt" viewBox="0 0 172.750864 108" xmlns="http://www.w3.org/2000/svg" version="1.1">
 <metadata>
  <rdf:RDF xmlns:dc="http://purl.org/dc/elements/1.1/" xmlns:cc="http://creativecommons.org/ns#" xmlns:rdf="http://www.w3.org/1999/02/22-rdf-syntax-ns#">
   <cc:Work>
    <dc:type rdf:resource="http://purl.org/dc/dcmitype/StillImage"/>
    <dc:date>2025-09-05T15:49:30.240499</dc:date>
    <dc:format>image/svg+xml</dc:format>
    <dc:creator>
     <cc:Agent>
      <dc:title>Matplotlib v3.10.3, https://matplotlib.org/</dc:title>
     </cc:Agent>
    </dc:creator>
   </cc:Work>
  </rdf:RDF>
 </metadata>
 <defs>
  <style type="text/css">*{stroke-linejoin: round; stroke-linecap: butt}</style>
 </defs>
 <g id="figure_1">
  <g id="patch_1">
   <path d="M 0 108 
L 172.750864 108 
L 172.750864 0 
L 0 0 
z
" style="fill: #ffffff"/>
  </g>
  <g id="axes_1">
   <g id="PatchCollection_1">
    <path d="M 93.117831 -8.294102 
L 94.974823 -10.422628 
L 94.753747 -12.518727 
L 95.450372 -13.413829 
L 99.112764 -13.461984 
L 100.259385 -12.571799 
L 103.579367 -14.373052 
L 103.393504 -22.913222 
L 105.819552 -30.225606 
L 105.378398 -33.477248 
L 108.185499 -36.507266 
L 109.893142 -34.605271 
L 110.692923 -35.033295 
L 111.831682 -36.690558 
L 111.698057 -40.017143 
L 112.923278 -42.829218 
L 112.919352 -45.395838 
L 115.24501 -47.343782 
L 118.76543 -53.387101 
L 122.828212 -53.792027 
L 123.036511 -56.936052 
L 125.454535 -62.327032 
L 126.738707 -68.642841 
L 128.846245 -69.294695 
L 131.813495 -68.769381 
L 132.39221 -70.138684 
L 134.034029 -70.486848 
L 136.505101 -67.140123 
L 139.716024 -74.500662 
L 140.811555 -73.025463 
L 142.927935 -72.600635 
L 144.805557 -70.104042 
L 148.981334 -70.831323 
L 150.347053 -72.329629 
L 151.466161 -71.86353 
L 152.233525 -70.322718 
L 155.150675 -71.536496 
L 158.736928 -70.193229 
L 160.755048 -70.567934 
L 167.681923 -67.144544 
L 171.093283 -62.484041 
L 176.034456 -58.985213 
L 178.266769 -55.450032 
L 180.532497 -54.089078 
L 182.381627 -51.548752 
L 176.800831 -44.307868 
L 176.50509 -37.57288 
L 178.180306 -36.941671 
L 184.626727 -38.461591 
L 187.555655 -37.597452 
L 184.927383 -34.111652 
L 186.724435 -30.07843 
L 188.924331 -27.362913 
L 190.060636 -26.990186 
L 192.264458 -22.517881 
L 194.189242 -21.794042 
L 197.642859 -18.669425 
L 226.109842 -9.048409 
L 235.615868 -9.048409 
L 220.83068 5.21395 
L 206.738181 20.288604 
L 197.492531 19.884668 
L 193.304966 20.953476 
L 189.414615 22.796989 
L 186.68022 26.081315 
L 179.752366 27.131447 
L 177.214482 29.436885 
L 170.817192 29.501263 
L 167.02166 26.246672 
L 158.320329 30.218227 
L 155.049467 34.630081 
L 145.586677 32.276726 
L 141.71647 32.63963 
L 131.390023 25.432162 
L 122.12767 24.737069 
L 121.16871 24.125022 
L 119.373625 20.831852 
L 119.87275 16.422699 
L 116.689339 15.350695 
L 114.961057 15.889521 
L 114.718373 14.579186 
L 113.165963 13.527579 
L 111.984957 11.239335 
L 109.409731 3.424488 
L 107.70995 2.778283 
L 107.509513 1.474091 
L 105.390186 0.617568 
L 104.445971 -1.161814 
L 103.040942 -1.951506 
L 102.783522 -3.469952 
L 100.0221 -5.820844 
L 93.769253 -7.159936 
z
" clip-path="url(#p3cd08002b5)" style="fill: #eeeeee; stroke: #000000; stroke-width: 0.3"/>
    <path d="M 8.959283 -13.254367 
L 10.037123 -14.592955 
L 9.33756 -15.831305 
L 12.963608 -17.513397 
L 14.121523 -22.140733 
L 15.189533 -23.539029 
L 15.22638 -26.37715 
L 16.936486 -27.789206 
L 17.893478 -30.827583 
L 25.037978 -32.089269 
L 25.769473 -29.82339 
L 32.617253 -23.161139 
L 36.939423 -24.36091 
L 44.684256 -24.252304 
L 46.110608 -21.741817 
L 53.703829 -21.676564 
L 54.369216 -23.621085 
L 59.780909 -25.833407 
L 61.024306 -27.286259 
L 61.039042 -28.652614 
L 64.818365 -30.671802 
L 71.970232 -25.477873 
L 75.7643 -25.855526 
L 80.521729 -30.136912 
L 83.165241 -34.333523 
L 87.802811 -38.390585 
L 87.023659 -40.53386 
L 87.019723 -44.295582 
L 84.489702 -47.1165 
L 90.806414 -47.144267 
L 90.664927 -49.173782 
L 95.203752 -49.118742 
L 94.006043 -43.306623 
L 94.545942 -35.127399 
L 96.839668 -34.240646 
L 101.932148 -29.75926 
L 102.467142 -26.719418 
L 101.59416 -23.337556 
L 103.393504 -22.913222 
L 103.78472 -15.03916 
L 102.443565 -13.316282 
L 100.36255 -12.588021 
L 99.112764 -13.461984 
L 95.450372 -13.413829 
L 94.753747 -12.518727 
L 94.974823 -10.422628 
L 93.117831 -8.294102 
L 93.769253 -7.159936 
L 100.0221 -5.820844 
L 102.783522 -3.469952 
L 103.040942 -1.951506 
L 104.445971 -1.161814 
L 105.390186 0.617568 
L 107.509513 1.474091 
L 107.70995 2.778283 
L 109.409731 3.424488 
L 111.984957 11.239335 
L 113.165963 13.527579 
L 114.718373 14.579186 
L 114.961057 15.889521 
L 116.689339 15.350695 
L 119.87275 16.422699 
L 119.373625 20.831852 
L 120.982029 23.066768 
L 119.257216 22.479141 
L 118.886107 23.354149 
L 118.033136 23.060283 
L 117.192172 21.534543 
L 117.654726 20.356796 
L 115.993741 20.146488 
L 116.140913 19.158023 
L 114.564033 19.620708 
L 106.34521 23.058914 
L 97.879196 31.335932 
L 94.778312 31.209392 
L 93.18857 30.044758 
L 90.899265 31.15263 
L 87.242758 31.513575 
L 85.493362 32.577715 
L 85.305207 33.594431 
L 83.04292 32.775508 
L 81.596623 30.701765 
L 79.180566 32.226602 
L 75.546665 30.999559 
L 73.673465 32.005958 
L 72.676184 33.804016 
L 71.795834 32.04798 
L 69.956534 32.717026 
L 69.688295 30.215764 
L 66.495064 29.373743 
L 64.032824 26.021112 
L 62.677914 25.449117 
L 62.762409 23.668746 
L 60.274634 22.673397 
L 59.538709 22.589372 
L 57.292146 25.716443 
L 52.863369 23.688154 
L 49.079626 26.266328 
L 46.154623 24.970485 
L 45.815152 23.725754 
L 43.518479 23.290361 
L 43.32983 21.561102 
L 41.067049 20.18442 
L 38.689323 16.973078 
L 38.656896 13.954367 
L 37.352085 12.136643 
L 34.453607 10.939582 
L 34.048806 10.109838 
L 30.707205 9.248646 
L 31.506986 7.983765 
L 29.237331 5.509528 
L 30.262115 3.72523 
L 27.535582 2.041663 
L 26.916588 0.459827 
L 20.584637 -2.762821 
L 18.972297 -4.337781 
L 18.73256 -5.086193 
L 19.818262 -5.842963 
L 19.223823 -7.788444 
L 17.724479 -8.093113 
L 15.262249 -10.795364 
L 9.108632 -12.103979 
z
" clip-path="url(#p3cd08002b5)" style="fill: #eeeeee; stroke: #000000; stroke-width: 0.3"/>
    <path d="M 169.075154 75.274121 
L 169.075154 39.968969 
L 172.525824 36.552711 
L 178.046681 28.285269 
L 179.424198 27.29631 
L 186.68022 26.081315 
L 189.414615 22.796989 
L 197.143724 19.96796 
L 206.738181 20.288604 
L 221.239921 4.818781 
L 235.615868 -9.048409 
L 244.74166 -22.88128 
L 244.741669 -39.978041 
L 257.377936 -43.212833 
L 260.922028 -46.684796 
L 262.412093 -47.014826 
L 267.116286 -45.531269 
L 265.106694 -40.856397 
L 265.150795 -39.39649 
L 266.135261 -38.924181 
L 265.42776 -37.545788 
L 265.861005 -33.79058 
L 264.429757 -32.226973 
L 266.428863 -32.3032 
L 266.007996 -33.45163 
L 268.090475 -32.654854 
L 268.112683 -31.863394 
L 265.190257 -31.972942 
L 263.643437 -31.217246 
L 262.720763 -22.58069 
L 259.007245 -17.526939 
L 255.692928 -10.612415 
L 253.156128 -8.452536 
L 252.394858 -5.17327 
L 247.671729 2.229187 
L 245.664105 8.56602 
L 235.324282 24.609492 
L 217.253373 43.647465 
L 203.016668 52.16777 
L 194.545207 59.339216 
L 178.507447 76.500556 
L 178.325643 75.499168 
L 177.685059 78.49636 
L 177.149695 78.108656 
L 177.220871 78.997054 
L 174.354496 83.124104 
L 174.238382 81.9494 
z
" clip-path="url(#p3cd08002b5)" style="fill: #eeeeee; stroke: #000000; stroke-width: 0.3"/>
    <path d="M 101.709608 65.949176 
L 103.531226 63.693625 
L 104.143347 61.253289 
L 106.410055 59.235575 
L 107.351323 56.699917 
L 110.306794 55.27876 
L 110.126986 53.789307 
L 111.968254 51.26274 
L 112.289549 48.765405 
L 110.950353 44.670268 
L 111.501555 43.435845 
L 111.045657 42.352792 
L 106.847282 36.734529 
L 106.346189 33.930804 
L 106.901327 32.11579 
L 104.170859 31.089736 
L 104.669984 30.149179 
L 103.5273 30.122639 
L 102.503495 26.867069 
L 106.34521 23.058914 
L 116.140913 19.158023 
L 115.993741 20.146488 
L 117.654726 20.356796 
L 117.192172 21.534543 
L 118.033136 23.060283 
L 119.257216 22.479141 
L 120.982029 23.066768 
L 122.12767 24.737069 
L 131.390023 25.432162 
L 141.71647 32.63963 
L 145.586677 32.276726 
L 155.049467 34.630081 
L 158.320329 30.218227 
L 167.02166 26.246672 
L 170.817192 29.501263 
L 177.681181 29.172754 
L 172.525824 36.552711 
L 168.938582 40.232853 
L 169.075154 75.274121 
L 174.238382 81.9494 
L 174.354496 83.124104 
L 171.955408 85.7127 
L 171.349647 85.274692 
L 169.390764 86.415372 
L 169.325776 85.078125 
L 168.74786 86.707897 
L 167.946358 85.664716 
L 169.070477 88.314448 
L 168.743221 88.953664 
L 167.965704 88.212299 
L 167.118551 88.667329 
L 167.527041 89.795637 
L 165.945702 91.140624 
L 164.427801 91.037696 
L 161.967596 92.374172 
L 161.306897 94.896213 
L 161.975335 95.348922 
L 160.929361 98.063659 
L 159.657481 99.070467 
L 159.438535 98.575964 
L 158.486942 101.383559 
L 157.678481 100.909178 
L 158.497 102.129574 
L 157.730321 104.243009 
L 156.754743 104.243009 
L 157.339628 104.732872 
L 156.904064 105.491258 
L 156.533477 104.752984 
L 155.583434 105.409231 
L 156.584537 106.096421 
L 154.020662 111.01205 
L 153.110852 110.688572 
L 152.066427 111.473271 
L 138.570392 101.754099 
L 137.974974 100.534426 
L 136.936434 100.403711 
L 136.804777 99.448415 
L 137.896374 98.510806 
L 137.371704 95.958441 
L 101.810806 76.52721 
L 102.279481 68.461251 
z
" clip-path="url(#p3cd08002b5)" style="fill: #eeeeee; stroke: #000000; stroke-width: 0.3"/>
    <path d="M 168.975315 87.151326 
L 169.780687 86.483468 
L 170.743877 87.0778 
L 169.20741 87.88727 
z
" clip-path="url(#p3cd08002b5)" style="fill: #eeeeee; stroke: #000000; stroke-width: 0.3"/>
    <path d="M 58.266326 113.7808 
L 59.030742 109.30801 
L 62.155203 109.436757 
L 64.723546 107.616589 
L 67.658378 103.03274 
L 68.322576 103.017991 
L 68.804513 100.769315 
L 72.297916 98.132421 
L 72.606424 97.164354 
L 72.542568 95.317646 
L 69.338519 94.984468 
L 68.647797 94.110743 
L 69.662751 92.187381 
L 68.612917 92.384927 
L 69.5252 90.419296 
L 72.627063 89.295942 
L 73.135029 86.796638 
L 72.271383 85.340106 
L 72.59513 82.152842 
L 71.706424 80.370018 
L 69.974216 79.530697 
L 69.26777 77.064809 
L 70.766145 77.200441 
L 72.082734 76.367996 
L 102.721615 76.52721 
L 137.371704 95.958441 
L 137.896374 98.510806 
L 136.804777 99.448415 
L 136.936434 100.403711 
L 137.974974 100.534426 
L 138.570392 101.754099 
L 152.299301 111.57929 
L 152.284594 113.174239 
L 151.287361 113.7469 
L 151.057586 114.994379 
L 151.611517 115.451738 
L 148.154078 124.571015 
L 149.446853 128.202012 
L 150.642908 128.52007 
L 152.91667 130.963954 
L 152.918989 131.94677 
L 154.670534 132.205242 
L 155.518457 133.565701 
L 155.459658 134.683169 
L 153.3708 136.499447 
L 152.655951 141.387975 
L 153.3708 140.465524 
L 154.470933 141.476202 
L 154.573823 143.16711 
L 152.91667 146.008758 
L 153.623011 149.857204 
L 155.518457 151.838317 
L 154.526633 151.233154 
L 153.949486 151.615438 
L 154.930483 151.991541 
L 154.99392 153.758285 
L 155.665448 153.461899 
L 156.374878 154.375059 
L 155.648422 156.832874 
L 156.440645 156.806561 
L 157.297846 158.917676 
L 156.880079 159.660591 
L 157.865705 160.411246 
L 156.82128 162.499148 
L 158.115595 161.994584 
L 159.619569 164.187726 
L 159.949144 163.350403 
L 161.022193 163.700193 
L 160.907695 164.665208 
L 161.967596 164.907429 
L 161.967596 163.992709 
L 163.077008 165.4917 
L 163.820491 164.939932 
L 163.914102 166.601427 
L 159.838344 169.799751 
L 154.993464 171.5069 
L 152.757215 173.181613 
L 149.268234 173.190457 
L 145.427507 175.527589 
L 143.187323 174.231261 
L 140.159155 174.296124 
L 139.00762 176.669619 
L 135.706298 178.437704 
L 132.587732 178.012144 
L 131.549192 176.967413 
L 129.531073 177.049972 
L 127.682922 178.455401 
L 123.632908 178.266698 
L 123.332252 177.099117 
L 120.083996 175.527589 
L 117.706261 177.350714 
L 111.891621 177.049972 
L 111.149802 175.165921 
L 109.999255 174.877951 
L 108.553946 172.567359 
L 109.138555 169.241516 
L 108.245429 167.218876 
L 107.820978 162.495468 
L 105.743898 159.416316 
L 102.842472 157.117516 
L 101.883512 159.404524 
L 100.198466 158.131779 
L 97.387923 158.487551 
L 96.069367 157.258054 
L 88.633052 155.032961 
L 87.733536 153.944991 
L 83.119552 153.164628 
L 83.105796 151.936111 
L 80.596404 151.750366 
L 79.325988 149.758194 
L 77.560374 148.651548 
L 74.941427 148.928696 
L 73.81691 148.302651 
L 68.893429 139.229304 
L 67.494294 134.979612 
L 65.558701 132.512754 
L 61.909571 129.938755 
L 60.184236 126.646327 
L 59.714591 124.06939 
L 61.01055 121.237907 
z
" clip-path="url(#p3cd08002b5)" style="fill: #eeeeee; stroke: #000000; stroke-width: 0.3"/>
    <path d="M 152.064878 123.233768 
L 152.91667 122.546578 
L 153.234637 121.371836 
L 154.214084 125.875759 
L 155.017126 125.915232 
L 154.99392 125.226483 
L 155.420976 127.103896 
L 155.088302 128.450424 
L 154.214084 126.91507 
L 154.091068 127.60304 
L 152.142242 126.148933 
z
" clip-path="url(#p3cd08002b5)" style="fill: #eeeeee; stroke: #000000; stroke-width: 0.3"/>
    <path d="M 156.36792 118.476793 
L 156.562881 117.271107 
L 157.678481 116.816068 
L 157.254525 116.822258 
L 156.432907 116.354847 
L 157.347357 116.491039 
L 156.757843 113.496938 
L 158.064535 114.481304 
L 158.391791 113.562723 
L 157.822383 118.408697 
z
" clip-path="url(#p3cd08002b5)" style="fill: #eeeeee; stroke: #000000; stroke-width: 0.3"/>
    <path d="M 155.836424 142.549556 
L 158.769327 139.62201 
L 158.74767 140.729417 
L 158.080782 142.25007 
L 156.241044 142.932619 
z
" clip-path="url(#p3cd08002b5)" style="fill: #eeeeee; stroke: #000000; stroke-width: 0.3"/>
    <path d="M 155.725092 118.291865 
L 156.454468 118.828143 
L 156.527003 119.066132 
L 156.104149 118.950395 
z
" clip-path="url(#p3cd08002b5)" style="fill: #eeeeee; stroke: #000000; stroke-width: 0.3"/>
    <path d="M 156.935645 143.937002 
L 156.935683 143.533912 
L 157.873909 143.130556 
z
" clip-path="url(#p3cd08002b5)" style="fill: #eeeeee; stroke: #000000; stroke-width: 0.3"/>
    <path d="M 152.29277 121.932334 
L 152.5157 122.680403 
L 152.293321 122.699982 
z
" clip-path="url(#p3cd08002b5)" style="fill: #eeeeee; stroke: #000000; stroke-width: 0.3"/>
    <path d="M -104.054156 122.421207 
L -103.961999 121.545523 
L -101.585242 121.446256 
L -101.378911 116.08697 
L -102.199331 115.063863 
L -99.969956 113.820112 
L -98.790918 112.065787 
L -96.296261 111.344401 
L -96.081079 110.541444 
L -93.184568 113.449591 
L -90.144117 111.550791 
L -90.120531 109.338478 
L -87.938328 109.766987 
L -83.731112 107.665724 
L -82.945078 109.113412 
L -84.075974 110.346846 
L -83.601414 113.458435 
L -82.468549 113.030906 
L -81.015379 113.58817 
L -79.509152 112.781277 
L -75.965156 108.254436 
L -73.541237 107.064241 
L -72.829886 105.582158 
L -69.232824 104.245529 
L -66.252798 98.499994 
L -66.54755 87.74309 
L -63.51152 84.941086 
L -60.476469 79.060909 
L -58.676469 77.425507 
L -55.962704 76.645154 
L -51.765318 71.970881 
L -52.080709 68.855364 
L -49.902432 63.405655 
L -50.652104 57.325962 
L -48.705702 52.240145 
L -48.695873 46.453092 
L -43.55623 37.246577 
L -43.237892 28.518932 
L -44.232216 25.838552 
L -42.222938 25.146654 
L -39.085701 20.308992 
L -35.989732 18.206997 
L -32.037978 18.524694 
L -27.148882 21.615895 
L -24.854662 25.009796 
L -22.085882 24.644924 
L -18.859235 26.183521 
L -13.855185 26.166328 
L -8.474817 27.732188 
L -6.504839 27.137343 
L -5.725687 24.451562 
L -4.803089 24.280794 
L -2.817387 21.124482 
L 2.0894 23.337784 
L 3.739072 21.97683 
L 10.119659 20.113661 
L 11.445099 19.104315 
L 11.423481 18.283908 
L 14.600998 20.231349 
L 20.08649 19.139937 
L 20.619022 16.493705 
L 22.331095 15.878224 
L 25.821056 17.829354 
L 28.553483 17.179963 
L 31.446068 18.995462 
L 33.698041 18.549266 
L 34.911473 19.089813 
L 36.875557 17.513378 
L 39.044994 18.191763 
L 43.250251 21.464297 
L 43.518479 23.290361 
L 45.815152 23.725754 
L 46.154623 24.970485 
L 49.308554 26.338314 
L 52.863369 23.688154 
L 57.292146 25.716443 
L 59.538709 22.589372 
L 61.068522 22.855224 
L 62.762409 23.668746 
L 62.677914 25.449117 
L 64.032824 26.021112 
L 66.495064 29.373743 
L 69.688295 30.215764 
L 69.857294 32.637176 
L 71.795834 32.04798 
L 72.676184 33.804016 
L 73.216587 33.520972 
L 73.346276 34.724423 
L 71.766363 37.93798 
L 72.80785 39.859878 
L 71.449983 43.741997 
L 72.982743 44.817196 
L 73.897478 44.119393 
L 74.72674 45.214742 
L 75.889569 45.094345 
L 76.782201 46.995361 
L 69.241741 55.214876 
L 66.965698 56.190817 
L 66.166896 58.352511 
L 64.193961 59.152035 
L 64.129117 62.254781 
L 61.872229 66.303978 
L 60.461316 75.823521 
L 60.682382 80.196064 
L 57.406615 82.766117 
L 56.428993 84.52241 
L 56.470252 87.892482 
L 53.917633 89.73919 
L 53.83117 90.941167 
L 54.155403 92.218828 
L 55.460213 93.095501 
L 55.139907 93.749076 
L 57.418897 95.964336 
L 57.232701 104.078451 
L 58.415675 105.917295 
L 59.094608 109.807278 
L 58.266326 113.7808 
L 61.01055 121.237907 
L 59.714591 124.06939 
L 60.300179 127.019796 
L 61.909571 129.938755 
L 65.558701 132.512754 
L 67.494294 134.979612 
L 71.844964 144.913903 
L 54.134773 147.661856 
L 54.172106 150.349853 
L 49.032463 155.163676 
L 50.586832 156.174991 
L 52.321997 160.108213 
L 51.099723 164.175098 
L 52.332796 168.202681 
L 50.952342 170.026776 
L 49.107138 176.669619 
L 50.509705 179.895225 
L 52.822101 181.03135 
L 55.522111 184.708068 
L 59.938604 185.413725 
L 59.696899 183.412709 
L 62.786974 182.570441 
L 62.624858 194.947513 
L 61.057713 194.62024 
L 61.549965 193.288528 
L 60.648976 192.757804 
L 56.938928 194.768643 
L 55.131056 194.379446 
L 52.412385 189.566118 
L 50.842293 189.526806 
L 49.700588 186.062384 
L 45.289009 184.602904 
L 44.31924 183.600433 
L 42.24217 183.897237 
L 40.174911 180.363045 
L 38.401434 179.289805 
L 37.887574 177.012629 
L 36.400997 177.25931 
L 35.677848 180.241174 
L 33.488762 181.228896 
L 30.609933 180.266725 
L 26.489181 180.183186 
L 23.069958 178.527139 
L 21.873229 178.98022 
L 20.441182 177.702558 
L 20.112035 173.44796 
L 14.429052 174.696133 
L 12.322502 175.984606 
L 10.449786 175.391967 
L 11.384181 174.249937 
L 11.177849 172.548683 
L 8.836467 172.007147 
L 8.741163 170.827774 
L 7.669217 170.39239 
L 6.07456 171.866609 
L 2.483392 171.224835 
L -1.714982 172.570307 
L -6.595227 171.999292 
L -9.098726 173.968851 
L -9.784542 170.191896 
L -8.320563 169.326035 
L -8.378534 165.591339 
L -9.837598 161.435019 
L -12.509107 158.825645 
L -13.335421 156.439369 
L -11.891092 147.403374 
L -13.696995 143.042623 
L -12.680074 138.026338 
L -13.402234 136.253346 
L -25.422568 136.281846 
L -24.557932 132.759435 
L -27.333595 132.784007 
L -27.573333 133.577141 
L -34.916807 133.577141 
L -34.999333 138.117742 
L -36.496719 139.017998 
L -36.497698 143.086851 
L -44.473922 142.423453 
L -44.558417 143.044592 
L -48.239974 143.28145 
L -48.45122 144.10701 
L -50.639327 143.490788 
L -53.185073 144.004804 
L -55.88705 140.725147 
L -57.21249 137.630266 
L -59.40747 135.50444 
L -59.146115 133.699012 
L -61.095463 130.78496 
L -61.684987 128.471421 
L -61.488476 125.848287 
L -63.141105 123.120979 
L -87.947169 122.543079 
L -93.661096 123.00893 
L -97.904417 122.285776 
L -99.13732 122.768487 
L -99.554403 123.852102 
L -102.150743 124.543096 
L -102.07758 123.875961 
L -102.653975 124.106 
z
" clip-path="url(#p3cd08002b5)" style="fill: #eeeeee; stroke: #000000; stroke-width: 0.3"/>
    <path d="M -99.340305 123.48063 
L -98.550943 122.830146 
L -96.968768 122.796388 
z
" clip-path="url(#p3cd08002b5)" style="fill: #eeeeee; stroke: #000000; stroke-width: 0.3"/>
    <path d="M -83.729145 9.566343 
L -80.069206 6.910535 
L -75.775518 -1.92546 
L -73.789816 -3.277817 
L -73.33098 -4.547614 
L -69.10804 -4.213951 
L -64.872334 -5.966793 
L -64.668949 -7.023325 
L -63.181384 -7.844958 
L -62.558464 -6.034119 
L -60.95988 -4.71764 
L -52.807784 -8.938823 
L -43.782221 -9.536379 
L -38.697594 -15.50059 
L -41.115618 -17.158348 
L -39.669321 -18.44977 
L -26.234137 -19.903848 
L -25.220163 -21.648835 
L -24.021475 -21.462338 
L -22.517206 -22.566046 
L -18.422007 -27.869065 
L -17.305846 -27.843999 
L -15.985321 -30.006435 
L -14.031058 -30.920461 
L -13.994704 -34.154406 
L -7.10713 -37.592535 
L -3.172079 -36.840197 
L 0.917235 -32.281167 
L 4.278486 -26.797547 
L 4.158618 -21.229902 
L 2.657306 -20.213433 
L 2.290817 -18.770414 
L 3.54355 -18.350997 
L 2.952058 -15.839664 
L 9.724679 -15.656857 
L 10.037123 -14.592955 
L 8.959283 -13.254367 
L 9.108632 -12.103979 
L 15.262249 -10.795364 
L 17.724479 -8.093113 
L 19.223823 -7.788444 
L 19.818262 -5.842963 
L 18.73256 -5.086193 
L 18.972297 -4.337781 
L 20.584637 -2.762821 
L 26.916588 0.459827 
L 27.535582 2.041663 
L 30.262115 3.72523 
L 29.237331 5.509528 
L 31.506986 7.983765 
L 30.707205 9.248646 
L 34.048806 10.109838 
L 34.453607 10.939582 
L 37.352085 12.136643 
L 38.656896 13.954367 
L 38.689323 16.973078 
L 40.370433 18.774332 
L 36.875557 17.513378 
L 34.911473 19.089813 
L 33.698041 18.549266 
L 31.446068 18.995462 
L 28.553483 17.179963 
L 25.821056 17.829354 
L 22.331095 15.878224 
L 20.619022 16.493705 
L 20.08649 19.139937 
L 14.600998 20.231349 
L 11.423481 18.283908 
L 11.445099 19.104315 
L 10.119659 20.113661 
L 3.739072 21.97683 
L 2.0894 23.337784 
L -2.817387 21.124482 
L -4.803089 24.280794 
L -5.725687 24.451562 
L -6.504839 27.137343 
L -8.474817 27.732188 
L -13.855185 26.166328 
L -18.859235 26.183521 
L -22.085882 24.644924 
L -24.854662 25.009796 
L -27.148882 21.615895 
L -32.037978 18.524694 
L -35.989732 18.206997 
L -39.085701 20.308992 
L -42.222938 25.146654 
L -44.232216 25.838552 
L -43.237892 28.518932 
L -43.429488 33.930804 
L -44.896415 32.455111 
L -47.021636 32.998606 
L -47.658321 33.925888 
L -48.604495 33.10745 
L -50.884959 33.329074 
L -51.350688 32.593443 
L -54.528204 31.730283 
L -58.803211 33.348245 
L -62.318726 33.438906 
L -63.972334 36.977283 
L -63.842635 40.022041 
L -66.689037 45.626049 
L -67.871031 39.038245 
L -69.215132 37.534044 
L -70.435448 37.438713 
L -77.097031 30.04181 
L -77.657075 28.708129 
L -76.09976 28.356037 
L -77.037102 27.79804 
L -77.961667 25.02601 
L -80.591907 23.041217 
L -81.147046 17.882178 
L -82.468549 16.683634 
L -81.541037 14.736926 
L -81.541037 11.221648 
z
" clip-path="url(#p3cd08002b5)" style="fill: #eeeeee; stroke: #000000; stroke-width: 0.3"/>
    <path d="M 55.063759 93.588873 
L 55.49804 91.914159 
L 57.987288 92.203109 
L 58.417642 93.870938 
L 62.032387 93.671432 
L 63.724316 92.393771 
L 64.045601 89.025668 
L 65.805322 90.115606 
L 68.294085 88.893964 
L 69.967343 89.82175 
L 68.649755 92.151017 
L 69.662751 92.187381 
L 68.647797 94.110743 
L 69.338519 94.984468 
L 72.542568 95.317646 
L 72.441361 97.876897 
L 68.804513 100.769315 
L 68.322576 103.017991 
L 67.658378 103.03274 
L 64.723546 107.616589 
L 62.155203 109.436757 
L 59.030742 109.30801 
L 58.415675 105.917295 
L 57.232701 104.078451 
L 57.418897 95.964336 
z
" clip-path="url(#p3cd08002b5)" style="fill: #eeeeee; stroke: #000000; stroke-width: 0.3"/>
    <path d="M 53.8464 89.988828 
L 56.470252 87.892482 
L 56.428993 84.52241 
L 58.447113 81.414749 
L 62.947122 79.570009 
L 64.318745 80.922356 
L 66.094189 79.784263 
L 67.90303 77.13263 
L 69.180062 77.138316 
L 69.974216 79.530697 
L 71.706424 80.370018 
L 72.664395 82.354316 
L 72.271383 85.340106 
L 73.135029 86.796638 
L 72.627063 89.295942 
L 69.654889 89.809949 
L 68.294085 88.893964 
L 65.805322 90.115606 
L 64.045601 89.025668 
L 63.724316 92.393771 
L 62.032387 93.671432 
L 58.417642 93.870938 
L 58.10323 92.289596 
L 56.266868 91.666489 
L 55.334441 92.865518 
L 54.155403 92.218828 
z
" clip-path="url(#p3cd08002b5)" style="fill: #eeeeee; stroke: #000000; stroke-width: 0.3"/>
    <path d="M 60.461316 75.823521 
L 61.872229 66.303978 
L 64.129117 62.254781 
L 64.193961 59.152035 
L 66.166896 58.352511 
L 66.965698 56.190817 
L 69.241741 55.214876 
L 76.782201 46.995361 
L 75.889569 45.094345 
L 74.72674 45.214742 
L 73.897478 44.119393 
L 72.982743 44.817196 
L 71.449983 43.741997 
L 72.80785 39.859878 
L 71.766363 37.93798 
L 73.346276 34.724423 
L 73.216587 33.520972 
L 72.676184 33.804016 
L 73.673465 32.005958 
L 76.243775 30.930759 
L 79.180566 32.226602 
L 81.596623 30.701765 
L 83.04292 32.775508 
L 85.305207 33.594431 
L 85.493362 32.577715 
L 87.242758 31.513575 
L 90.899265 31.15263 
L 93.18857 30.044758 
L 94.778312 31.209392 
L 97.879196 31.335932 
L 102.778607 27 
L 103.5273 30.122639 
L 104.669984 30.149179 
L 104.170859 31.089736 
L 106.901327 32.11579 
L 106.346189 33.930804 
L 106.847282 36.734529 
L 111.045657 42.352792 
L 111.501555 43.435845 
L 110.950353 44.670268 
L 112.289549 48.765405 
L 111.968254 51.26274 
L 110.126986 53.789307 
L 110.306794 55.27876 
L 107.351323 56.699917 
L 106.410055 59.235575 
L 104.143347 61.253289 
L 103.531226 63.693625 
L 101.709608 65.949176 
L 102.279481 68.461251 
L 101.810806 76.52721 
L 72.082734 76.367996 
L 67.90303 77.13263 
L 66.094189 79.784263 
L 64.109961 81 
L 63.032606 79.58278 
L 60.682382 80.196064 
z
" clip-path="url(#p3cd08002b5)" style="fill: #eeeeee; stroke: #000000; stroke-width: 0.3"/>
   </g>
   <g id="PatchCollection_2">
    <defs>
     <path id="m49b1685cb7" d="M 60.461316 -32.176479 
L 61.872229 -41.696022 
L 64.129117 -45.745219 
L 64.193961 -48.847965 
L 66.166896 -49.647489 
L 66.965698 -51.809183 
L 69.241741 -52.785124 
L 76.782201 -61.004639 
L 75.889569 -62.905655 
L 74.72674 -62.785258 
L 73.897478 -63.880607 
L 72.982743 -63.182804 
L 71.449983 -64.258003 
L 72.80785 -68.140122 
L 71.766363 -70.06202 
L 73.346276 -73.275577 
L 73.216587 -74.479028 
L 72.676184 -74.195984 
L 73.673465 -75.994042 
L 76.243775 -77.069241 
L 79.180566 -75.773398 
L 81.596623 -77.298235 
L 83.04292 -75.224492 
L 85.305207 -74.405569 
L 85.493362 -75.422285 
L 87.242758 -76.486425 
L 90.899265 -76.84737 
L 93.18857 -77.955242 
L 94.778312 -76.790608 
L 97.879196 -76.664068 
L 102.778607 -81 
L 103.5273 -77.877361 
L 104.669984 -77.850821 
L 104.170859 -76.910264 
L 106.901327 -75.88421 
L 106.346189 -74.069196 
L 106.847282 -71.265471 
L 111.045657 -65.647208 
L 111.501555 -64.564155 
L 110.950353 -63.329732 
L 112.289549 -59.234595 
L 111.968254 -56.73726 
L 110.126986 -54.210693 
L 110.306794 -52.72124 
L 107.351323 -51.300083 
L 106.410055 -48.764425 
L 104.143347 -46.746711 
L 103.531226 -44.306375 
L 101.709608 -42.050824 
L 102.279481 -39.538749 
L 101.810806 -31.47279 
L 72.082734 -31.632004 
L 67.90303 -30.86737 
L 66.094189 -28.215737 
L 64.109961 -27 
L 63.032606 -28.41722 
L 60.682382 -27.803936 
z
" style="stroke: #dd0000; stroke-width: 0.5"/>
    </defs>
    <g clip-path="url(#p3cd08002b5)">
     <use xlink:href="#m49b1685cb7" x="0" y="108" style="fill: #ff6b6b; stroke: #dd0000; stroke-width: 0.5"/>
    </g>
   </g>
  </g>
 </g>
 <defs>
  <clipPath id="p3cd08002b5">
   <rect x="0" y="0" width="172.750864" height="108"/>
  </clipPath>
 </defs>
</svg>
