<?xml version="1.0" encoding="utf-8" standalone="no"?>
<!DOCTYPE svg PUBLIC "-//W3C//DTD SVG 1.1//EN"
  "http://www.w3.org/Graphics/SVG/1.1/DTD/svg11.dtd">
<svg xmlns:xlink="http://www.w3.org/1999/xlink" width="157.438023pt" height="108pt" viewBox="0 0 157.438023 108" xmlns="http://www.w3.org/2000/svg" version="1.1">
 <metadata>
  <rdf:RDF xmlns:dc="http://purl.org/dc/elements/1.1/" xmlns:cc="http://creativecommons.org/ns#" xmlns:rdf="http://www.w3.org/1999/02/22-rdf-syntax-ns#">
   <cc:Work>
    <dc:type rdf:resource="http://purl.org/dc/dcmitype/StillImage"/>
    <dc:date>2025-09-05T13:56:20.226094</dc:date>
    <dc:format>image/svg+xml</dc:format>
    <dc:creator>
     <cc:Agent>
      <dc:title>Matplotlib v3.10.3, https://matplotlib.org/</dc:title>
     </cc:Agent>
    </dc:creator>
   </cc:Work>
  </rdf:RDF>
 </metadata>
 <defs>
  <style type="text/css">*{stroke-linejoin: round; stroke-linecap: butt}</style>
 </defs>
 <g id="figure_1">
  <g id="patch_1">
   <path d="M 0 108 
L 157.438023 108 
L 157.438023 0 
L 0 0 
z
" style="fill: #ffffff"/>
  </g>
  <g id="axes_1">
   <g id="PatchCollection_1">
    <path d="M 57.311085 116.741563 
L 89.38344 105.009255 
L 96.431197 81.732595 
L 91.612248 73.229437 
L 92.029937 68.328094 
L 95.370385 60.714543 
L 94.498537 58.448367 
L 100.28326 57.06241 
L 99.591523 55.425996 
L 97.69422 55.313201 
L 98.482096 47.20634 
L 100.366131 46.795491 
L 100.61918 47.910385 
L 99.853414 47.822456 
L 101.366172 49.443708 
L 104.404432 46.536867 
L 106.840678 52.191811 
L 112.618057 58.56108 
L 125.081174 62.464586 
L 127.935057 62.158986 
L 129.837064 63.389961 
L 137.8958 74.896573 
L 141.200388 75.514448 
L 141.060306 78.700285 
L 136.061663 88.001836 
L 132.962418 89.969102 
L 128.963495 95.234895 
L 129.473367 95.955908 
L 128.016837 97.398885 
L 127.233761 100.064257 
L 126.455903 100.747062 
L 123.858694 100.206061 
L 124.513877 98.059733 
L 123.889154 97.757959 
L 120.151256 101.896866 
L 118.366718 108.145336 
L 119.718823 116.786989 
L 113.21667 117.746747 
L 108.942811 119.675817 
L 107.160871 121.862255 
L 106.307316 126.673956 
L 104.115565 129.129216 
L 94.374075 130.290955 
L 92.054432 133.837768 
L 92.830547 135.268822 
L 92.397248 137.410844 
L 89.901834 140.029418 
L 87.389025 140.730376 
L 85.252967 139.70854 
L 79.831459 140.029418 
L 74.811058 143.001329 
L 69.197261 144.356458 
L 66.109724 137.021915 
L 65.253346 136.661104 
z
" clip-path="url(#pb848c7486d)" style="fill: #eeeeee; stroke: #000000; stroke-width: 0.3"/>
    <path d="M 101.133715 33.830002 
L 102.532884 31.459092 
L 102.577255 32.107525 
L 104.627181 32.026355 
L 103.603961 31.947086 
L 104.195614 30.017066 
L 105.662579 30.336982 
L 104.568013 31.393189 
L 105.516403 31.786647 
L 104.92475 31.947086 
L 105.436355 32.835227 
L 103.821482 32.518163 
L 103.898044 33.236313 
L 105.363267 33.389112 
L 104.370507 34.09771 
L 105.152706 35.166344 
L 104.407917 35.41368 
L 103.289766 38.918259 
L 101.857901 38.409072 
L 102.267861 34.375802 
z
" clip-path="url(#pb848c7486d)" style="fill: #eeeeee; stroke: #000000; stroke-width: 0.3"/>
    <path d="M 128.619812 100.627214 
L 131.37886 96.76478 
L 131.846961 98.983207 
L 128.662451 102.954986 
z
" clip-path="url(#pb848c7486d)" style="fill: #eeeeee; stroke: #000000; stroke-width: 0.3"/>
    <path d="M 102.534082 43.28447 
L 103.092719 42.39613 
L 103.988143 43.153579 
L 102.657923 43.755225 
z
M 103.140297 42.981699 
L 103.33172 43.283273 
L 103.388909 43.090235 
z
" clip-path="url(#pb848c7486d)" style="fill: #eeeeee; stroke: #000000; stroke-width: 0.3"/>
    <path d="M 99.923487 134.058853 
L 101.32781 134.071268 
L 100.015724 134.311927 
z
" clip-path="url(#pb848c7486d)" style="fill: #eeeeee; stroke: #000000; stroke-width: 0.3"/>
    <path d="M 98.841099 134.071268 
L 99.139545 134.238866 
L 98.978572 134.340572 
z
" clip-path="url(#pb848c7486d)" style="fill: #eeeeee; stroke: #000000; stroke-width: 0.3"/>
    <path d="M 53.033592 56.821059 
L 53.196372 53.499192 
L 53.631414 55.353768 
L 55.181902 54.941218 
L 55.502095 58.008145 
L 56.777648 58.429779 
L 61.186371 57.927926 
L 63.957596 55.55718 
L 64.824206 56.363658 
L 69.998609 56.01748 
L 74.535235 57.463801 
L 77.628397 57.255143 
L 83.491041 54.587869 
L 84.114886 52.771009 
L 85.064153 52.771009 
L 83.384884 51.736757 
L 85.143335 52.049515 
L 85.801116 49.230403 
L 90.494364 46.083726 
L 92.633907 43.222111 
L 93.130725 43.916873 
L 92.861874 42.959978 
L 95.506062 39.491471 
L 96.310895 39.987586 
L 99.875631 36.615528 
L 99.634621 37.167031 
L 99.79646 37.220519 
L 101.133715 33.830002 
L 102.267861 34.375802 
L 101.857901 38.409072 
L 104.261741 40.11221 
L 104.404432 46.536867 
L 101.366172 49.443708 
L 99.929656 47.99619 
L 100.61918 47.910385 
L 100.075511 46.612651 
L 98.158322 47.617788 
L 97.69422 55.313201 
L 99.591523 55.425996 
L 100.28326 57.06241 
L 94.498537 58.448367 
L 95.370385 60.714543 
L 92.029937 68.328094 
L 90.901725 74.169998 
L 63.51074 70.47177 
z
M 102.534082 43.28447 
L 102.657923 43.755225 
L 103.988143 43.153579 
L 103.092719 42.39613 
z
" clip-path="url(#pb848c7486d)" style="fill: #eeeeee; stroke: #000000; stroke-width: 0.3"/>
    <path d="M 70.204818 54.648034 
L 72.152073 54.269855 
L 72.687178 53.171625 
L 72.940366 54.011535 
L 71.682165 54.933461 
z
" clip-path="url(#pb848c7486d)" style="fill: #eeeeee; stroke: #000000; stroke-width: 0.3"/>
    <path d="M 80.126409 54.828047 
L 80.155126 54.278456 
L 80.936459 54.759761 
L 80.962568 55.349473 
z
" clip-path="url(#pb848c7486d)" style="fill: #eeeeee; stroke: #000000; stroke-width: 0.3"/>
    <path d="M 75.255669 56.157383 
L 77.299501 54.788418 
L 78.547203 55.990748 
L 76.513816 56.489244 
z
" clip-path="url(#pb848c7486d)" style="fill: #eeeeee; stroke: #000000; stroke-width: 0.3"/>
    <path d="M 103.140297 42.981699 
L 103.388909 43.090235 
L 103.33172 43.283273 
z
" clip-path="url(#pb848c7486d)" style="fill: #eeeeee; stroke: #000000; stroke-width: 0.3"/>
    <path d="M 82.502622 52.513159 
L 83.159536 51.882399 
L 83.953924 53.028377 
z
" clip-path="url(#pb848c7486d)" style="fill: #eeeeee; stroke: #000000; stroke-width: 0.3"/>
    <path d="M 81.906607 53.739369 
L 82.516542 53.905053 
L 82.225933 54.332883 
z
" clip-path="url(#pb848c7486d)" style="fill: #eeeeee; stroke: #000000; stroke-width: 0.3"/>
    <path d="M 80.896441 54.060716 
L 81.408045 53.820058 
L 81.298424 54.677641 
z
" clip-path="url(#pb848c7486d)" style="fill: #eeeeee; stroke: #000000; stroke-width: 0.3"/>
    <path d="M 63.485379 54.414135 
L 64.498421 54.203459 
L 63.870812 55.042865 
z
" clip-path="url(#pb848c7486d)" style="fill: #eeeeee; stroke: #000000; stroke-width: 0.3"/>
    <path d="M 60.567743 52.183691 
L 61.16673 52.130462 
L 60.899333 52.434406 
z
" clip-path="url(#pb848c7486d)" style="fill: #eeeeee; stroke: #000000; stroke-width: 0.3"/>
    <path d="M -27.834344 -122.396543 
L -23.845257 -122.87076 
L -23.080592 -126.203013 
L -21.944639 -126.994376 
L -19.365189 -125.515879 
L -15.668732 -120.512406 
L -13.975307 -120.359888 
L -12.612275 -118.056419 
L -5.262309 -116.39515 
L -0.68978 -116.713822 
L 5.174511 -121.625786 
L 14.467648 -126.27456 
L 18.397054 -122.453539 
L 15.908579 -121.16551 
L 17.913066 -118.060667 
L 15.399166 -117.400886 
L 14.699699 -116.247491 
L 18.090975 -113.314551 
L 19.213114 -113.525286 
L 21.272299 -110.918611 
L 24.120686 -111.365592 
L 24.871569 -105.138139 
L 26.881477 -101.852027 
L 30.187797 -100.34411 
L 38.248286 -99.105977 
L 39.602134 -96.335566 
L 46.898685 -91.810371 
L 56.567087 -89.640162 
L 78.99269 -93.98105 
L 74.744053 -93.092439 
L 79.076224 -92.437787 
L 79.137124 -94.862501 
L 78.000796 -98.559251 
L 81.130127 -98.346099 
L 85.914821 -99.687498 
L 87.351326 -100.693539 
L 87.761286 -103.165287 
L 91.007807 -105.712231 
L 97.191446 -107.664278 
L 103.510997 -107.213413 
L 103.549668 -108.377428 
L 104.972916 -109.265217 
L 111.408492 -108.469605 
L 112.868219 -109.529005 
L 114.765512 -105.890824 
L 123.364698 -103.78626 
L 123.900637 -102.501868 
L 125.515051 -101.968824 
L 130.254444 -102.68864 
L 135.719819 -100.760545 
L 137.317661 -96.973179 
L 143.27808 -94.839806 
L 146.73234 -90.278961 
L 155.537062 -90.269256 
L 155.332638 -86.99461 
L 156.166916 -84.253618 
L 155.152517 -82.456202 
L 156.341511 -81.556889 
L 156.865283 -77.498753 
L 155.764698 -74.592206 
L 154.922679 -74.329017 
L 155.339267 -72.265384 
L 154.464094 -68.893115 
L 153.203284 -66.819167 
L 150.553473 -65.392279 
L 152.593317 -63.074857 
L 149.954549 -62.930835 
L 148.341237 -60.963921 
L 148.54456 -55.088971 
L 152.918192 -53.63054 
L 149.14127 -49.3729 
L 149.091543 -48.281359 
L 151.950205 -38.783367 
L 151.357921 -36.181855 
L 151.858481 -29.93274 
L 161.10852 -28.50706 
L 162.60029 -24.303389 
L 162.341713 -22.333142 
L 152.100486 -10.728779 
L 157.371381 -5.051515 
L 159.821185 0.855882 
L 163.309701 4.70935 
L 168.334731 6.161104 
L 170.610507 8.389083 
L 172.597866 8.184721 
L 173.166393 17.003206 
L 172.392886 19.680537 
L 173.997357 20.306357 
L 177.041112 19.778769 
L 178.564914 21.434898 
L 177.621239 22.038879 
L 177.979259 24.101913 
L 177.096355 24.803529 
L 176.89856 26.976319 
L 168.93034 27.947801 
L 167.577807 28.664577 
L 167.290502 30.310391 
L 165.779947 30.157568 
L 162.669903 31.901625 
L 161.831199 36.658959 
L 160.82454 37.255054 
L 160.393582 42.93111 
L 158.16625 45.584102 
L 149.84557 43.054514 
L 148.949387 41.036635 
L 147.298825 41.846938 
L 148.068323 42.8749 
L 146.16685 41.855059 
L 142.044235 42.410352 
L 137.234031 40.864356 
L 132.851043 41.591952 
L 130.512251 39.705386 
L 126.168779 39.099445 
L 122.470911 39.667189 
L 121.296297 38.146845 
L 119.24898 38.822984 
L 119.076705 37.565265 
L 114.328641 37.079654 
L 112.780762 33.572469 
L 113.274095 32.595519 
L 111.856728 29.672308 
L 111.264198 24.560277 
L 110.201825 23.337892 
L 110.712564 22.776368 
L 109.559697 22.672268 
L 108.954123 21.173903 
L 101.628865 20.926555 
L 99.657244 22.498463 
L 96.733748 22.865177 
L 95.192829 25.339542 
L 92.510355 25.245956 
L 87.380322 28.727828 
L 83.086448 27.445291 
L 82.21723 26.156053 
L 75.887351 26.231496 
L 73.486783 24.521129 
L 72.979519 23.097245 
L 68.537727 21.590279 
L 63.968908 18.669931 
L 64.704128 17.54687 
L 62.454087 15.387645 
L 57.65991 13.039818 
L 54.155218 13.064789 
L 51.123426 11.87802 
L 47.711345 4.811185 
L 47.477294 2.44092 
L 44.761751 0.121256 
L 44.958391 -0.618849 
L 45.77105 -0.064964 
L 46.099069 -1.299283 
L 45.141111 -2.308222 
L 43.039843 -2.341643 
L 43.16253 -5.928566 
L 37.705344 -11.666124 
L 36.941417 -14.690079 
L 35.242999 -14.786058 
L 31.155335 -12.662167 
L 30.594998 -14.224522 
L 28.085674 -14.229298 
L 27.829867 -15.497519 
L 27.190358 -15.019077 
L 24.621856 -16.861238 
L 27.634092 -16.460622 
L 28.285789 -17.669629 
L 27.722843 -18.334784 
L 25.266593 -18.443648 
L 25.863474 -17.468611 
L 24.768032 -17.305789 
L 23.992782 -16.448687 
L 24.559214 -12.888027 
L 19.737431 -12.265435 
L 19.018077 -14.986419 
L 14.918492 -17.836569 
L 14.904123 -23.999574 
L 11.27638 -24.065664 
L 11.340466 -28.913955 
L 13.003505 -33.582749 
L 9.334878 -37.606924 
L 8.474074 -40.50135 
L 6.918218 -41.550446 
L 5.0502 -41.431583 
L -1.485386 -46.327787 
L -5.572815 -47.061544 
L -5.322524 -48.321375 
L -6.286096 -48.837743 
L -4.822509 -49.573014 
L -4.949589 -50.651224 
L -6.883351 -53.357047 
L -8.186157 -53.398894 
L -7.380608 -54.062007 
L -7.829239 -55.001347 
L -9.448079 -54.440409 
L -12.107844 -58.612549 
L -13.234955 -59.022178 
L -11.479647 -60.969389 
L -11.34041 -62.993299 
L -12.842669 -64.546936 
L -11.918881 -65.131519 
L -11.948721 -66.27582 
L -9.801137 -65.801603 
L -10.593975 -67.791259 
L -10.172971 -68.801536 
L -8.211582 -69.973743 
L -7.538074 -72.091954 
L -4.99489 -72.37697 
L -5.325293 -74.805053 
L -6.994961 -76.866257 
L -6.56953 -78.979622 
L -3.113057 -80.496258 
L -5.963989 -81.126936 
L -9.293382 -80.584199 
L -11.528262 -82.731513 
L -13.876966 -82.732112 
L -14.747713 -87.531292 
L -16.528991 -87.770823 
L -17.393654 -89.065518 
L -16.924581 -90.894466 
L -19.189847 -92.299539 
L -18.50585 -94.723983 
L -19.94568 -95.749433 
L -19.42301 -97.971639 
L -21.876128 -99.592282 
L -21.619764 -102.943639 
L -25.832616 -105.065183 
L -23.088322 -110.242155 
L -24.897772 -110.757609 
L -25.053036 -116.171073 
L -26.368544 -117.591601 
L -25.997812 -119.709813 
L -27.162493 -120.354432 
z
" clip-path="url(#pb848c7486d)" style="fill: #eeeeee; stroke: #000000; stroke-width: 0.3"/>
    <path d="M 92.658273 26.798759 
L 97.891844 25.194393 
L 97.718693 23.350789 
L 99.212633 23.905155 
L 102.577255 22.776368 
L 103.379479 23.337892 
L 99.739901 26.375706 
L 98.987275 25.828498 
L 92.720915 28.109953 
z
" clip-path="url(#pb848c7486d)" style="fill: #eeeeee; stroke: #000000; stroke-width: 0.3"/>
    <path d="M 77.884204 28.254163 
L 79.124069 28.02687 
L 79.317235 28.814737 
L 78.446274 28.766037 
z
" clip-path="url(#pb848c7486d)" style="fill: #eeeeee; stroke: #000000; stroke-width: 0.3"/>
    <path d="M 104.952591 22.168044 
L 104.976957 21.872467 
L 105.702608 22.087825 
z
" clip-path="url(#pb848c7486d)" style="fill: #eeeeee; stroke: #000000; stroke-width: 0.3"/>
    <path d="M 103.953726 24.227465 
L 104.627181 24.066556 
L 104.360061 24.704486 
z
" clip-path="url(#pb848c7486d)" style="fill: #eeeeee; stroke: #000000; stroke-width: 0.3"/>
    <path d="M 98.736696 27.258589 
L 98.898524 26.72571 
L 99.126491 27.2266 
z
" clip-path="url(#pb848c7486d)" style="fill: #eeeeee; stroke: #000000; stroke-width: 0.3"/>
    <path d="M 89.74348 35.935576 
L 90.195928 36.135174 
L 89.811351 36.193907 
z
" clip-path="url(#pb848c7486d)" style="fill: #eeeeee; stroke: #000000; stroke-width: 0.3"/>
    <path d="M 84.373303 35.558359 
L 84.837929 35.721661 
L 84.415064 35.688721 
z
" clip-path="url(#pb848c7486d)" style="fill: #eeeeee; stroke: #000000; stroke-width: 0.3"/>
    <path d="M 84.141861 31.048924 
L 84.775286 31.138214 
L 84.49338 31.601377 
z
" clip-path="url(#pb848c7486d)" style="fill: #eeeeee; stroke: #000000; stroke-width: 0.3"/>
    <path d="M 74.659664 26.571478 
L 74.74493 26.44351 
L 75.14082 26.834574 
z
" clip-path="url(#pb848c7486d)" style="fill: #eeeeee; stroke: #000000; stroke-width: 0.3"/>
    <path d="M 69.828944 24.596573 
L 72.315644 25.121813 
L 70.613762 25.163824 
z
" clip-path="url(#pb848c7486d)" style="fill: #eeeeee; stroke: #000000; stroke-width: 0.3"/>
    <path d="M 39.185064 -3.814133 
L 39.734443 -3.693522 
L 39.646515 -3.109936 
z
" clip-path="url(#pb848c7486d)" style="fill: #eeeeee; stroke: #000000; stroke-width: 0.3"/>
    <path d="M 44.18575 40.476061 
L 45.214199 40.796927 
L 44.549447 39.186823 
L 45.321211 38.643921 
L 45.764956 40.035804 
L 46.608076 38.698829 
L 45.645755 38.291054 
L 46.679421 34.765247 
L 49.53417 32.667618 
L 51.001136 34.933325 
L 53.022355 35.944658 
L 53.157219 37.927203 
L 52.248848 38.217512 
L 52.723043 38.874547 
L 51.893843 40.162822 
L 52.395013 42.795232 
L 53.344279 43.287533 
L 53.380823 46.018785 
L 50.489531 51.328502 
L 49.821304 50.235998 
L 46.622328 51.353919 
L 44.793943 49.254284 
L 45.34732 48.679851 
z
" clip-path="url(#pb848c7486d)" style="fill: #eeeeee; stroke: #000000; stroke-width: 0.3"/>
    <path d="M -128.785691 9.753237 
L -126.315819 4.890853 
L -124.759012 -4.785157 
L -112.783625 -3.005472 
L -108.425463 -6.462338 
L -105.734767 -10.6742 
L -97.807431 -12.329108 
L -95.911229 -16.275657 
L -92.342056 -18.246502 
L -103.267279 -29.889685 
L -81.842252 -35.796166 
L -79.764827 -37.286739 
L -66.800849 -35.140633 
L -48.570404 -25.06504 
L -20.596522 -3.026689 
L 8.716068 -0.596178 
L 11.224996 4.816078 
L 20.06174 5.207506 
L 19.785051 6.533979 
L 20.498514 6.293321 
L 21.74535 10.535846 
L 23.241033 10.994245 
L 22.7242 11.530469 
L 24.210303 13.110004 
L 24.123295 13.776591 
L 23.745677 14.261721 
L 23.460297 13.088048 
L 23.100075 14.367722 
L 24.183339 14.743038 
L 23.666506 15.624009 
L 28.02825 16.414738 
L 28.808717 17.54687 
L 26.745736 17.634729 
L 28.285789 17.954645 
L 27.853356 18.923956 
L 28.808717 18.763517 
L 28.913997 20.397501 
L 29.873698 20.417556 
L 29.472592 21.062163 
L 31.581674 20.533109 
L 32.94337 23.301608 
L 37.850654 26.744333 
L 36.033046 26.045276 
L 36.483751 28.742157 
L 38.471891 30.745238 
L 37.667934 34.124453 
L 36.502889 32.186782 
L 36.049575 34.525551 
L 37.239852 34.669749 
L 38.909552 38.865957 
L 37.703612 37.675561 
L 37.746239 38.068538 
L 41.19788 41.150756 
L 42.16715 45.637754 
L 46.622328 51.353919 
L 49.722107 50.687708 
L 50.081453 51.947339 
L 51.074223 50.607489 
L 52.17576 51.168063 
L 49.829131 54.404512 
L 52.935346 55.009972 
L 53.193816 57.096969 
L 63.51074 70.47177 
L 90.740388 74.1991 
L 91.612248 73.229437 
L 96.431197 81.732595 
L 89.38344 105.009255 
L 57.311085 116.741563 
L 25.848142 121.622301 
L 16.504733 126.677688 
L 10.379107 134.723609 
L 8.653084 139.082521 
L 5.806578 140.776846 
L 3.764521 140.66648 
L 0.982101 136.92853 
L -3.160582 137.530704 
L -12.700128 136.498588 
L -15.533376 135.132932 
L -26.400042 135.409464 
L -28.900673 136.618049 
L -34.270466 134.058372 
L -36.920288 136.335462 
L -35.988759 136.968557 
L -37.418646 139.148013 
L -37.480529 141.215894 
L -36.423577 142.543939 
L -36.760609 144.095756 
L -37.776666 144.00237 
L -38.297123 145.601491 
L -40.935677 147.541802 
L -41.759648 143.321244 
L -45.562797 138.019179 
L -45.495803 139.868979 
L -46.152718 134.837167 
L -51.647314 130.378333 
L -54.793548 125.79728 
L -55.408691 122.910354 
L -57.820571 120.234971 
L -57.405543 118.63632 
L -58.608875 117.435422 
L -58.180793 115.89981 
L -59.334526 115.218907 
L -60.659667 110.756259 
L -62.629545 109.547252 
L -62.795725 107.572347 
L -63.739774 107.77766 
L -65.0449 105.403569 
L -69.863443 101.678657 
L -71.795901 101.338205 
L -71.393928 101.914058 
L -73.324642 100.838746 
L -79.587527 91.943057 
L -80.588124 89.524081 
L -79.622329 88.478377 
L -80.285337 84.445471 
L -82.186372 81.414545 
L -81.390498 81.462283 
L -79.925126 76.754024 
L -80.700215 77.192873 
L -81.312043 72.48763 
L -83.594277 69.766399 
L -83.607331 67.995375 
L -87.303457 60.550795 
L -92.834512 56.384875 
L -92.699487 55.586435 
L -93.579579 56.257188 
L -98.243596 53.705807 
L -97.952078 52.838109 
L -101.245718 48.029505 
L -100.091119 47.792191 
L -100.245121 44.224373 
L -103.515774 38.698829 
L -106.017271 37.128353 
L -106.084265 34.284892 
L -108.044574 33.243952 
L -113.184176 23.905155 
L -122.468866 10.96702 
L -121.905054 10.438435 
L -123.662629 9.673499 
L -126.304208 10.241231 
L -127.326562 9.43284 
L -127.990437 9.913676 
L -127.764213 10.241231 
L -128.355 10.722066 
z
" clip-path="url(#pb848c7486d)" style="fill: #eeeeee; stroke: #000000; stroke-width: 0.3"/>
    <path d="M -51.973654 141.376145 
L -50.390674 143.122186 
L -49.002399 143.495448 
L -48.71164 142.34048 
L -47.383174 143.615672 
L -47.467413 145.047864 
L -48.45966 143.756525 
L -49.852736 144.031238 
z
" clip-path="url(#pb848c7486d)" style="fill: #eeeeee; stroke: #000000; stroke-width: 0.3"/>
    <path d="M -51.140916 141.431334 
L -50.141195 140.689316 
L -51.020849 140.189857 
L -50.864238 140.000292 
L -50.037647 140.478264 
L -49.356773 142.964868 
z
" clip-path="url(#pb848c7486d)" style="fill: #eeeeee; stroke: #000000; stroke-width: 0.3"/>
    <path d="M -108.271664 38.711244 
L -107.713946 38.033204 
L -107.84881 38.716971 
L -106.387929 39.83001 
L -107.759183 39.367317 
z
" clip-path="url(#pb848c7486d)" style="fill: #eeeeee; stroke: #000000; stroke-width: 0.3"/>
    <path d="M -103.406142 41.095837 
L -103.349583 40.795026 
L -102.84233 40.772577 
L -102.547369 41.357032 
z
" clip-path="url(#pb848c7486d)" style="fill: #eeeeee; stroke: #000000; stroke-width: 0.3"/>
    <path d="M -106.240887 39.786556 
L -105.768424 39.649035 
L -104.126576 41.078657 
L -105.836294 39.760775 
z
" clip-path="url(#pb848c7486d)" style="fill: #eeeeee; stroke: #000000; stroke-width: 0.3"/>
    <path d="M -107.726124 36.870515 
L -107.555582 36.466554 
L -107.209291 36.182923 
L -106.992636 37.955848 
z
" clip-path="url(#pb848c7486d)" style="fill: #eeeeee; stroke: #000000; stroke-width: 0.3"/>
    <path d="M 30.342676 19.40431 
L 31.72089 18.771156 
L 32.829387 19.083444 
z
" clip-path="url(#pb848c7486d)" style="fill: #eeeeee; stroke: #000000; stroke-width: 0.3"/>
    <path d="M -103.922975 39.293786 
L -103.749824 39.162473 
L -103.655856 40.185741 
z
" clip-path="url(#pb848c7486d)" style="fill: #eeeeee; stroke: #000000; stroke-width: 0.3"/>
    <path d="M -104.684304 39.860087 
L -104.531168 39.592215 
L -104.26144 39.738807 
z
" clip-path="url(#pb848c7486d)" style="fill: #eeeeee; stroke: #000000; stroke-width: 0.3"/>
    <path d="M -105.22375 40.456006 
L -103.857724 41.656423 
L -103.906446 42.044624 
z
" clip-path="url(#pb848c7486d)" style="fill: #eeeeee; stroke: #000000; stroke-width: 0.3"/>
    <path d="M -0.917404 -1.781726 
L 2.514756 -5.87502 
L 5.62867 -12.432199 
L 11.289638 -13.545578 
L 14.217368 -12.323147 
L 16.663066 -7.017478 
L 14.404706 -7.420946 
L 11.616182 -4.925353 
L 15.845242 -4.764832 
L 16.467409 -0.860939 
L 18.981084 2.353061 
L 18.53473 3.560155 
L 19.400367 4.734228 
L 11.224996 4.816078 
L 8.722697 -0.594664 
z
" clip-path="url(#pb848c7486d)" style="fill: #eeeeee; stroke: #000000; stroke-width: 0.3"/>
    <path d="M 15.26582 -10.051713 
L 16.884179 -11.517138 
L 16.065425 -12.174654 
L 16.791076 -12.199954 
L 18.544299 -8.987385 
L 17.221778 -7.698159 
L 16.501344 -8.047681 
z
" clip-path="url(#pb848c7486d)" style="fill: #eeeeee; stroke: #000000; stroke-width: 0.3"/>
    <path d="M 17.65187 -5.700464 
L 18.932363 -5.643984 
L 19.021616 -5.205394 
z
" clip-path="url(#pb848c7486d)" style="fill: #eeeeee; stroke: #000000; stroke-width: 0.3"/>
    <path d="M 14.888203 -12.16367 
L 15.941007 -12.721381 
L 15.105724 -12.052893 
z
" clip-path="url(#pb848c7486d)" style="fill: #eeeeee; stroke: #000000; stroke-width: 0.3"/>
    <path d="M 40.955993 32.649957 
L 41.304026 31.699751 
L 42.499521 31.746538 
L 42.054044 32.267002 
L 43.059634 32.836037 
L 42.20022 37.016145 
z
" clip-path="url(#pb848c7486d)" style="fill: #eeeeee; stroke: #000000; stroke-width: 0.3"/>
    <path d="M 44.800486 38.488611 
L 44.922275 38.31781 
L 44.888446 38.429197 
z
" clip-path="url(#pb848c7486d)" style="fill: #eeeeee; stroke: #000000; stroke-width: 0.3"/>
    <path d="M 44.611031 38.882209 
L 44.888446 38.718825 
L 44.834315 38.867353 
z
" clip-path="url(#pb848c7486d)" style="fill: #eeeeee; stroke: #000000; stroke-width: 0.3"/>
    <path d="M 44.502778 37.53804 
L 44.604274 37.419225 
L 44.617799 37.493483 
z
" clip-path="url(#pb848c7486d)" style="fill: #eeeeee; stroke: #000000; stroke-width: 0.3"/>
    <path d="M 44.083282 38.369784 
L 44.719294 37.701425 
L 44.245666 39.47631 
z
" clip-path="url(#pb848c7486d)" style="fill: #eeeeee; stroke: #000000; stroke-width: 0.3"/>
    <path d="M 42.703859 31.714971 
L 43.162915 31.299299 
L 43.415397 32.10546 
z
" clip-path="url(#pb848c7486d)" style="fill: #eeeeee; stroke: #000000; stroke-width: 0.3"/>
    <path d="M 40.282346 33.100564 
L 40.638109 32.596716 
L 40.684019 33.13835 
z
" clip-path="url(#pb848c7486d)" style="fill: #eeeeee; stroke: #000000; stroke-width: 0.3"/>
   </g>
   <g id="PatchCollection_2">
    <path d="M 53.033592 56.821059 
L 53.196372 53.499192 
L 53.631414 55.353768 
L 55.181902 54.941218 
L 55.502095 58.008145 
L 56.777648 58.429779 
L 61.186371 57.927926 
L 63.957596 55.55718 
L 64.824206 56.363658 
L 69.998609 56.01748 
L 74.535235 57.463801 
L 77.628397 57.255143 
L 83.491041 54.587869 
L 84.114886 52.771009 
L 85.064153 52.771009 
L 83.384884 51.736757 
L 85.143335 52.049515 
L 85.801116 49.230403 
L 90.494364 46.083726 
L 92.633907 43.222111 
L 93.130725 43.916873 
L 92.861874 42.959978 
L 95.506062 39.491471 
L 96.310895 39.987586 
L 99.875631 36.615528 
L 99.634621 37.167031 
L 99.79646 37.220519 
L 101.133715 33.830002 
L 102.267861 34.375802 
L 101.857901 38.409072 
L 104.261741 40.11221 
L 104.404432 46.536867 
L 101.366172 49.443708 
L 99.929656 47.99619 
L 100.61918 47.910385 
L 100.075511 46.612651 
L 98.158322 47.617788 
L 97.69422 55.313201 
L 99.591523 55.425996 
L 100.28326 57.06241 
L 94.498537 58.448367 
L 95.370385 60.714543 
L 92.029937 68.328094 
L 90.901725 74.169998 
L 63.51074 70.47177 
z
M 102.534082 43.28447 
L 102.657923 43.755225 
L 103.988143 43.153579 
L 103.092719 42.39613 
z
" clip-path="url(#pb848c7486d)" style="fill: #ff6b6b; stroke: #dd0000; stroke-width: 0.5"/>
    <path d="M 70.204818 54.648034 
L 72.152073 54.269855 
L 72.687178 53.171625 
L 72.940366 54.011535 
L 71.682165 54.933461 
z
" clip-path="url(#pb848c7486d)" style="fill: #ff6b6b; stroke: #dd0000; stroke-width: 0.5"/>
    <path d="M 80.126409 54.828047 
L 80.155126 54.278456 
L 80.936459 54.759761 
L 80.962568 55.349473 
z
" clip-path="url(#pb848c7486d)" style="fill: #ff6b6b; stroke: #dd0000; stroke-width: 0.5"/>
    <path d="M 75.255669 56.157383 
L 77.299501 54.788418 
L 78.547203 55.990748 
L 76.513816 56.489244 
z
" clip-path="url(#pb848c7486d)" style="fill: #ff6b6b; stroke: #dd0000; stroke-width: 0.5"/>
    <path d="M 103.140297 42.981699 
L 103.388909 43.090235 
L 103.33172 43.283273 
z
" clip-path="url(#pb848c7486d)" style="fill: #ff6b6b; stroke: #dd0000; stroke-width: 0.5"/>
    <path d="M 82.502622 52.513159 
L 83.159536 51.882399 
L 83.953924 53.028377 
z
" clip-path="url(#pb848c7486d)" style="fill: #ff6b6b; stroke: #dd0000; stroke-width: 0.5"/>
    <path d="M 81.906607 53.739369 
L 82.516542 53.905053 
L 82.225933 54.332883 
z
" clip-path="url(#pb848c7486d)" style="fill: #ff6b6b; stroke: #dd0000; stroke-width: 0.5"/>
    <path d="M 80.896441 54.060716 
L 81.408045 53.820058 
L 81.298424 54.677641 
z
" clip-path="url(#pb848c7486d)" style="fill: #ff6b6b; stroke: #dd0000; stroke-width: 0.5"/>
    <path d="M 63.485379 54.414135 
L 64.498421 54.203459 
L 63.870812 55.042865 
z
" clip-path="url(#pb848c7486d)" style="fill: #ff6b6b; stroke: #dd0000; stroke-width: 0.5"/>
    <path d="M 60.567743 52.183691 
L 61.16673 52.130462 
L 60.899333 52.434406 
z
" clip-path="url(#pb848c7486d)" style="fill: #ff6b6b; stroke: #dd0000; stroke-width: 0.5"/>
   </g>
  </g>
 </g>
 <defs>
  <clipPath id="pb848c7486d">
   <rect x="0" y="0" width="157.438023" height="108"/>
  </clipPath>
 </defs>
</svg>
