<?xml version="1.0" encoding="utf-8" standalone="no"?>
<!DOCTYPE svg PUBLIC "-//W3C//DTD SVG 1.1//EN"
  "http://www.w3.org/Graphics/SVG/1.1/DTD/svg11.dtd">
<svg xmlns:xlink="http://www.w3.org/1999/xlink" width="145.679725pt" height="108pt" viewBox="0 0 145.679725 108" xmlns="http://www.w3.org/2000/svg" version="1.1">
 <metadata>
  <rdf:RDF xmlns:dc="http://purl.org/dc/elements/1.1/" xmlns:cc="http://creativecommons.org/ns#" xmlns:rdf="http://www.w3.org/1999/02/22-rdf-syntax-ns#">
   <cc:Work>
    <dc:type rdf:resource="http://purl.org/dc/dcmitype/StillImage"/>
    <dc:date>2025-09-05T15:49:30.275582</dc:date>
    <dc:format>image/svg+xml</dc:format>
    <dc:creator>
     <cc:Agent>
      <dc:title>Matplotlib v3.10.3, https://matplotlib.org/</dc:title>
     </cc:Agent>
    </dc:creator>
   </cc:Work>
  </rdf:RDF>
 </metadata>
 <defs>
  <style type="text/css">*{stroke-linejoin: round; stroke-linecap: butt}</style>
 </defs>
 <g id="figure_1">
  <g id="patch_1">
   <path d="M 0 108 
L 145.679725 108 
L 145.679725 0 
L 0 0 
z
" style="fill: #ffffff"/>
  </g>
  <g id="axes_1">
   <g id="PatchCollection_1">
    <path d="M -86.185708 238.423881 
L -85.223663 236.596295 
L -82.825317 235.774315 
L -81.600841 234.423161 
L -82.59801 230.54709 
L -81.15379 228.437923 
L -77.659855 226.627871 
L -77.284366 222.731658 
L -74.831447 221.622838 
L -75.195389 218.685341 
L -76.990628 217.035252 
L -75.207866 213.721939 
L -75.357505 212.117881 
L -73.653715 211.65769 
L -72.400238 209.431284 
L -71.063168 209.68987 
L -71.004512 208.848394 
L -72.175782 207.993761 
L -71.367998 207.321025 
L -71.683445 205.365248 
L -69.333522 204.051538 
L -70.014296 199.328096 
L -71.367068 198.350754 
L -68.664294 196.423463 
L -69.970878 195.126184 
L -70.029999 192.202935 
L -67.563227 191.419532 
L -67.735041 190.464103 
L -66.026638 188.967414 
L -68.453683 185.902818 
L -72.786353 185.097503 
L -72.922605 183.831996 
L -65.853904 183.967862 
L -64.2859 181.357965 
L -65.066899 180.066168 
L -70.883508 179.531482 
L -70.377773 178.870789 
L -70.866884 176.676165 
L -69.089663 174.752161 
L -70.51356 172.9684 
L -69.530271 172.187192 
L -69.575995 171.316127 
L -71.72824 169.634277 
L -71.25115 168.345766 
L -69.901139 168.063083 
L -69.83233 166.94768 
L -73.285161 165.379783 
L -73.456045 160.613607 
L -72.479683 159.432466 
L -73.324414 157.37973 
L -72.486144 155.864415 
L -71.448354 156.206264 
L -69.772288 155.220154 
L -71.467293 150.652297 
L -70.817925 149.743979 
L -71.271009 147.627148 
L -70.801757 143.075722 
L -71.732396 140.764951 
L -69.216209 136.564142 
L -70.554207 135.355617 
L -70.46738 134.113116 
L -69.30258 134.177762 
L -68.703092 132.17269 
L -69.576459 128.9021 
L -67.692087 128.905386 
L -66.766069 121.578631 
L -62.700817 119.847464 
L -61.74039 118.121777 
L -62.957375 116.427873 
L -63.258272 112.678476 
L -64.845671 108.809657 
L -64.243876 106.269887 
L -65.029487 104.426972 
L -63.988471 102.420797 
L -65.043349 101.031478 
L -64.404599 100.810155 
L -64.936198 99.619165 
L -64.49097 98.019475 
L -63.70535 98.012902 
L -63.578805 95.857715 
L -60.677423 95.118138 
L -60.604681 93.541463 
L -57.712773 91.345737 
L -58.083185 83.907223 
L -59.428334 82.875093 
L -57.710002 81.888994 
L -57.081422 77.42522 
L -54.858509 73.915783 
L -54.769143 72.607543 
L -52.725193 71.993973 
L -53.488183 67.102893 
L -52.356872 62.941521 
L -52.796326 61.736283 
L -54.343998 62.090185 
L -55.232845 60.717309 
L -54.256482 57.611082 
L -55.646434 56.146165 
L -55.691926 53.462865 
L -57.731944 48.880759 
L -56.79899 48.813929 
L -56.439436 47.70565 
L -58.402789 46.603404 
L -59.525556 43.734931 
L -59.339657 40.942067 
L -58.542731 38.741952 
L -57.906751 39.307328 
L -56.636883 38.103182 
L -57.286251 37.061193 
L -55.804386 30.981307 
L -53.938032 31.088688 
L -52.78662 28.831601 
L -54.079128 27.883847 
L -53.500195 25.054811 
L -54.617877 19.668493 
L -52.502124 17.560418 
L -51.153507 10.130661 
L -47.016898 5.39736 
L -43.657588 -3.412949 
L -41.615729 -2.962628 
L -39.333239 -4.211692 
L -39.108775 -5.76974 
L -41.700242 -10.441681 
L -41.520125 -12.072041 
L -40.035257 -13.760475 
L -41.79539 -21.258165 
L -40.991761 -23.944751 
L -39.656533 -24.582429 
L -41.495181 -28.330733 
L -40.8084 -30.112289 
L -38.564707 -32.406628 
L -30.479006 -36.485819 
L -27.567006 -47.0859 
L -29.175184 -48.978132 
L -27.680163 -50.916374 
L -27.734655 -52.133666 
L -25.521447 -53.161407 
L -25.081761 -55.308919 
L -21.253905 -56.877929 
L -20.492997 -59.953476 
L -16.222219 -56.485671 
L -9.749316 -56.670844 
L -5.958398 -55.505053 
L -3.537127 -48.451111 
L -2.871591 -51.962742 
L -0.161426 -57.614219 
L 10.056206 -57.651472 
L 11.656537 -54.460869 
L 15.08951 -51.986849 
L 17.634332 -46.728711 
L 21.704205 -42.770045 
L 25.200679 -40.658684 
L 26.125776 -38.554447 
L 32.104724 -36.318181 
L 34.819054 -36.417886 
L 45.76272 -28.25732 
L 48.763853 -27.467333 
L 49.99193 -25.977228 
L 50.992308 -26.514098 
L 55.192882 -23.973237 
L 56.944238 -21.18914 
L 56.790442 -19.907202 
L 55.00953 -18.452145 
L 54.132463 -15.180463 
L 51.642597 -13.366033 
L 51.398273 -8.39168 
L 49.955903 -6.717494 
L 50.172511 -6.022835 
L 48.745379 -5.34571 
L 47.156131 -3.031653 
L 47.594897 -1.335554 
L 52.79862 -1.933784 
L 60.32271 0.477784 
L 62.787176 -0.24974 
L 63.977608 0.683777 
L 65.985987 0.135935 
L 67.297192 1.532918 
L 69.756572 -1.519624 
L 71.827531 -1.138328 
L 73.061838 0.015409 
L 74.522226 -1.207353 
L 74.46011 -2.912219 
L 76.107086 -4.901962 
L 78.570622 -5.179175 
L 80.523115 -8.142964 
L 81.656741 -8.451948 
L 83.039999 -13.201681 
L 83.380382 -19.795761 
L 84.746552 -18.584724 
L 85.210718 -19.730796 
L 87.04429 -19.734083 
L 86.824902 -20.256715 
L 87.704276 -20.647871 
L 87.860842 -19.559872 
L 89.549394 -19.220207 
L 90.233395 -15.68996 
L 91.769528 -12.535518 
L 90.761759 -7.71675 
L 91.314138 -5.700705 
L 90.263881 -3.026172 
L 89.065369 -3.05576 
L 87.924584 -1.665349 
L 87.162523 -2.107995 
L 86.180619 -0.146748 
L 81.54959 0.891954 
L 80.582925 3.123841 
L 79.081898 3.562109 
L 79.542364 4.330172 
L 76.999848 5.011675 
L 75.868072 6.749415 
L 72.902733 8.37211 
L 73.876325 9.374652 
L 73.602446 10.154768 
L 71.713454 9.920289 
L 71.745324 10.843947 
L 68.312352 14.183551 
L 67.044789 17.25472 
L 65.352778 18.220008 
L 64.714957 20.008147 
L 61.090776 24.486159 
L 59.326953 25.155619 
L 59.026279 26.914169 
L 56.266234 29.061691 
L 56.098585 30.6044 
L 53.980052 32.954619 
L 54.816928 36.321616 
L 53.853042 36.971347 
L 53.84288 40.271515 
L 52.32245 42.754313 
L 53.177344 44.064737 
L 52.557997 46.167331 
L 51.18398 47.185212 
L 51.327614 49.93918 
L 52.132163 51.296717 
L 51.027897 53.507528 
L 51.68286 59.449173 
L 49.15029 60.007363 
L 49.309574 62.081375 
L 48.33204 63.682614 
L 48.086207 66.396774 
L 49.611418 71.516237 
L 47.896733 72.575676 
L 48.931841 73.402597 
L 48.756801 75.050004 
L 50.179295 76.487696 
L 57.266683 80.261316 
L 59.708957 82.759391 
L 60.787037 84.800434 
L 58.78075 87.834551 
L 58.657243 90.594742 
L 59.715509 92.528998 
L 62.475733 94.803163 
L 64.250782 94.079329 
L 64.861379 97.089403 
L 64.734825 100.557601 
L 57.576062 110.146891 
L 56.941467 113.207014 
L 50.036903 117.149703 
L 36.935487 120.814597 
L 21.552421 122.648777 
L 17.006235 121.865406 
L 15.83887 120.517814 
L 13.851074 120.390132 
L 13.903081 121.46683 
L 14.795879 122.044854 
L 14.04709 123.610716 
L 14.946073 125.236114 
L 14.335109 125.226626 
L 17.031331 126.39476 
L 16.735672 126.889977 
L 14.707505 125.82105 
L 16.746575 127.317887 
L 16.222903 131.235568 
L 14.518764 131.125994 
L 14.030359 135.161868 
L 12.865175 136.392125 
L 14.884243 138.975159 
L 14.298018 140.221805 
L 15.622486 139.771463 
L 14.226009 142.380363 
L 10.726095 144.165364 
L 7.418193 145.371461 
L 1.341702 145.41288 
L -1.185049 143.723641 
L -8.773668 141.861865 
L -7.288094 141.580613 
L -7.745942 140.796384 
L -9.404992 140.796384 
L -8.752576 141.29246 
L -10.744367 142.058561 
L -10.879286 145.644094 
L -9.490085 149.285686 
L -10.233422 153.810735 
L -9.611911 155.318788 
L -8.291805 156.383401 
L -4.927535 157.03046 
L -6.012711 158.805103 
L -4.607512 159.06651 
L -1.555623 158.866358 
L -1.241418 157.189204 
L -3.665978 156.847556 
L 1.437868 155.154776 
L 2.963286 157.510995 
L 2.763998 162.294864 
L -1.594179 163.699395 
L -2.876095 162.547641 
L -2.438607 161.067194 
L -4.542054 159.704929 
L -9.084959 161.266476 
L -9.541726 162.651173 
L -3.329948 164.7295 
L -9.066048 167.470408 
L -12.523786 171.964385 
L -11.997924 175.152189 
L -11.235971 175.910128 
L -12.32634 177.654526 
L -11.505676 179.417783 
L -12.530847 180.418014 
L -12.063311 181.006416 
L -15.315917 182.615023 
L -16.065697 184.116217 
L -14.227264 185.412679 
L -15.73965 186.79957 
L -20.295497 186.059579 
L -22.942975 187.071609 
L -22.73484 187.922807 
L -23.758151 187.611797 
L -23.187924 188.425551 
L -26.809995 188.854235 
L -30.40874 192.638435 
L -30.700744 194.473718 
L -32.612321 196.660147 
L -33.005444 198.471895 
L -31.224684 202.751291 
L -28.604 204.226745 
L -25.533566 207.407235 
L -18.322073 208.038753 
L -16.224802 209.501602 
L -16.142247 212.738925 
L -17.125017 215.205535 
L -18.791298 215.177113 
L -21.982736 216.495276 
L -17.627284 215.499657 
L -16.377185 217.393066 
L -17.855734 217.317341 
L -17.765037 219.145055 
L -19.47562 219.245671 
L -21.553425 221.677817 
L -28.464156 225.081092 
L -29.214339 226.614068 
L -32.416305 228.707439 
L -33.804774 231.885586 
L -34.868134 232.563696 
L -33.923472 232.682166 
L -32.873062 231.349829 
L -33.984497 236.822558 
L -35.440541 239.107908 
L -39.435054 240.387832 
L -42.225093 236.574552 
L -42.99097 236.254478 
L -41.538965 238.373674 
L -45.437722 239.223144 
L -41.59436 238.826571 
L -39.506598 240.718613 
L -44.212666 242.645522 
L -46.00096 245.079576 
L -46.539719 248.71909 
L -48.98782 250.631942 
L -46.816583 249.511472 
L -44.982404 255.680663 
L -48.688165 255.646156 
L -50.829793 256.36999 
L -48.039056 256.034067 
L -46.720094 256.472886 
L -47.095306 257.021354 
L -45.080331 256.314598 
L -39.647256 263.589746 
L -40.265164 264.486031 
L -40.441688 263.52299 
L -53.832266 260.422244 
L -71.818767 260.03218 
L -71.966101 258.699843 
L -76.151893 255.601281 
L -74.44257 252.341653 
L -75.745462 250.864142 
L -74.506303 249.325822 
L -75.234187 247.019429 
L -74.836068 246.020174 
L -78.884232 245.676131 
L -82.655282 247.08626 
L -83.608085 242.671803 
L -85.808834 240.633845 
L -85.344203 239.241251 
z
" clip-path="url(#pcbff75362e)" style="fill: #eeeeee; stroke: #000000; stroke-width: 0.3"/>
    <path d="M -42.116414 289.846642 
L -41.988921 267.123873 
L -39.163025 270.012403 
L -38.397872 272.031205 
L -39.503881 271.116209 
L -41.03349 272.223713 
L -41.301935 273.473668 
L -37.375276 274.589611 
L -36.233338 277.319758 
L -32.43149 279.809543 
L -32.550135 280.570545 
L -25.356015 284.194793 
L -22.814482 286.484224 
L -17.112523 288.409342 
L -10.835645 288.404168 
L -12.775438 291.370247 
L -13.702788 290.922491 
L -15.547298 291.848206 
L -18.202865 291.109275 
L -18.445338 291.854471 
L -22.532594 292.698863 
L -27.719193 291.142489 
L -39.079388 289.944152 
L -41.030085 290.580844 
z
" clip-path="url(#pcbff75362e)" style="fill: #eeeeee; stroke: #000000; stroke-width: 0.3"/>
    <path d="M -7.410278 290.369476 
L -5.300289 289.83286 
L -5.477036 289.132317 
L -4.065286 289.862194 
L -3.881996 289.030513 
L 1.049313 289.284159 
L -0.33298 290.186582 
L -0.447898 289.575769 
L -2.815365 290.420383 
L -3.410322 289.789724 
L -6.210551 291.126958 
z
" clip-path="url(#pcbff75362e)" style="fill: #eeeeee; stroke: #000000; stroke-width: 0.3"/>
    <path d="M 15.123981 138.534368 
L 15.857085 137.095308 
L 16.990201 137.950587 
L 16.273489 139.108056 
z
" clip-path="url(#pcbff75362e)" style="fill: #eeeeee; stroke: #000000; stroke-width: 0.3"/>
    <path d="M 16.369093 123.458015 
L 17.96668 124.143886 
L 18.422347 125.065296 
z
" clip-path="url(#pcbff75362e)" style="fill: #eeeeee; stroke: #000000; stroke-width: 0.3"/>
    <path d="M 16.076347 122.745397 
L 16.885866 122.584926 
L 17.537549 123.024921 
z
" clip-path="url(#pcbff75362e)" style="fill: #eeeeee; stroke: #000000; stroke-width: 0.3"/>
    <path d="M 16.054781 135.048085 
L 17.114048 134.985209 
L 17.055909 136.770358 
z
" clip-path="url(#pcbff75362e)" style="fill: #eeeeee; stroke: #000000; stroke-width: 0.3"/>
    <path d="M -42.120534 290.595961 
L -42.117451 290.018351 
L -41.458126 290.857792 
z
" clip-path="url(#pcbff75362e)" style="fill: #eeeeee; stroke: #000000; stroke-width: 0.3"/>
    <path d="M -90.169442 -210.951931 
L -89.506677 -211.956667 
L -89.851448 -212.935102 
L -87.440106 -213.484036 
L -88.327094 -215.622791 
L -87.85416 -217.90726 
L -82.387864 -222.26694 
L -83.165172 -226.492949 
L -80.860508 -231.007121 
L -80.333538 -236.51616 
L -77.892166 -237.274364 
L -75.580119 -240.100654 
L -71.3001 -243.021719 
L -66.43861 -243.649538 
L -65.558772 -244.537034 
L -62.912116 -244.43294 
L -61.692583 -246.615521 
L -60.034981 -247.291554 
L -59.485373 -246.455558 
L -57.209353 -247.000103 
L -56.092351 -244.882169 
L -55.495865 -245.75652 
L -54.58555 -244.904082 
L -54.002686 -245.433298 
L -48.887175 -278.384551 
L -50.933199 -283.14744 
L -50.856069 -285.361792 
L -54.862665 -289.225131 
L -54.739346 -297.157803 
L -49.589891 -298.691744 
L -47.972007 -297.475544 
L -46.545573 -297.815199 
L -46.679045 -300.122683 
L -47.898345 -301.931643 
L -52.933498 -302.154068 
L -52.969061 -309.0264 
L -50.160744 -309.715843 
L -37.839129 -309.170747 
L -38.884311 -310.316819 
L -38.097306 -312.283282 
L -35.743691 -309.382762 
L -31.237366 -313.589603 
L -28.489333 -309.048853 
L -28.211754 -303.389987 
L -26.325541 -303.883031 
L -21.052535 -298.829794 
L -19.70576 -298.673658 
L -16.22961 -301.25014 
L -14.894382 -301.350385 
L -14.187975 -300.06955 
L -14.797625 -298.253466 
L -14.016626 -297.906147 
L -12.491575 -300.573004 
L -11.381973 -300.716546 
L -10.789644 -302.869538 
L -8.130967 -304.395263 
L -7.161996 -304.148741 
L -4.285335 -306.904353 
L -3.784221 -305.402459 
L -1.460627 -308.124655 
L -0.957198 -311.35443 
L 4.627555 -313.709027 
L 4.977179 -314.954253 
L 4.868187 -316.584072 
L -1.058576 -317.122045 
L -0.608039 -319.704548 
L -2.622191 -324.041212 
L -2.443916 -329.031457 
L -6.375688 -333.041348 
L -7.89635 -335.560296 
L -7.70491 -336.343158 
L -5.899974 -334.588159 
L -1.940952 -334.499956 
L -0.966439 -332.082356 
L 2.305346 -332.758113 
L 3.74357 -331.785976 
L 5.164231 -332.890417 
L 9.295996 -328.672073 
L 10.545773 -329.727484 
L 10.397054 -333.547548 
L 12.231546 -333.728607 
L 13.418975 -335.269938 
L 15.87235 -334.285206 
L 18.244903 -334.919873 
L 19.422635 -335.939673 
L 21.247654 -336.030887 
L 21.697047 -337.588109 
L 23.5634 -338.077877 
L 23.362031 -338.848961 
L 26.38557 -338.99934 
L 27.113686 -340.839245 
L 28.70154 -341.642376 
L 29.829625 -343.396273 
L 28.507562 -346.072174 
L 31.10735 -345.776345 
L 33.212485 -346.762179 
L 35.270977 -344.840369 
L 34.829905 -341.018385 
L 33.690049 -338.923191 
L 37.919715 -337.36898 
L 37.457398 -335.477574 
L 39.341538 -332.686894 
L 37.924336 -330.043857 
L 36.345481 -328.893672 
L 36.712891 -326.507027 
L 35.176061 -321.21383 
L 35.893559 -316.140324 
L 37.428531 -314.92194 
L 37.27612 -310.663884 
L 38.279733 -310.428853 
L 37.972365 -309.553411 
L 39.314055 -308.977634 
L 41.734415 -305.631457 
L 44.356832 -304.812169 
L 45.541027 -303.49407 
L 46.758942 -304.503736 
L 48.356958 -304.357459 
L 48.404067 -306.176829 
L 50.130487 -307.897851 
L 52.751511 -307.003506 
L 53.12885 -308.496643 
L 56.916988 -309.040097 
L 59.077553 -311.883084 
L 60.998408 -312.352858 
L 61.832513 -311.262114 
L 63.661929 -310.785226 
L 66.563534 -311.506452 
L 71.282543 -310.569925 
L 71.600296 -312.659649 
L 69.557973 -314.841402 
L 71.128748 -317.747679 
L 73.333876 -316.333161 
L 76.235946 -316.685972 
L 76.942585 -317.620029 
L 80.172803 -318.58148 
L 80.877128 -316.867847 
L 82.459905 -316.851966 
L 82.451593 -315.568926 
L 87.538933 -313.298694 
L 90.846745 -316.034046 
L 92.929251 -314.744432 
L 94.606703 -315.83189 
L 95.589072 -314.786074 
L 95.282401 -314.200438 
L 98.042447 -313.982943 
L 101.342868 -317.475947 
L 103.443848 -324.333765 
L 108.557285 -333.125988 
L 109.910834 -334.046911 
L 110.325505 -335.806744 
L 111.652797 -332.580701 
L 110.670893 -336.03164 
L 110.94084 -338.004431 
L 113.886337 -334.163875 
L 113.982799 -329.59995 
L 114.842868 -332.079886 
L 114.728138 -326.716265 
L 115.407053 -323.103805 
L 118.423523 -313.945637 
L 117.411079 -313.840822 
L 117.525997 -312.877579 
L 118.957222 -313.241076 
L 120.324768 -310.168592 
L 123.023378 -310.170903 
L 124.936001 -309.171118 
L 125.539913 -304.786302 
L 123.156161 -303.869239 
L 125.499364 -303.378007 
L 120.442591 -297.96263 
L 117.428168 -292.71979 
L 115.737122 -292.199564 
L 114.829417 -290.578056 
L 112.634692 -290.079828 
L 113.311838 -289.572535 
L 111.502961 -285.762701 
L 110.371596 -285.355495 
L 110.798904 -285.072515 
L 109.178044 -282.513643 
L 109.162412 -280.029837 
L 107.250987 -278.431186 
L 107.204432 -276.722111 
L 106.031615 -276.027611 
L 104.491487 -276.649641 
L 100.290787 -273.9605 
L 104.124908 -274.827546 
L 104.293656 -272.951099 
L 104.796602 -273.004593 
L 113.023811 -277.868682 
L 115.526565 -280.175637 
L 115.58111 -281.143618 
L 116.99068 -281.246292 
L 117.106321 -279.840891 
L 115.946598 -278.959182 
L 117.166327 -277.865237 
L 117.172879 -275.696321 
L 118.643178 -272.498159 
L 117.904936 -272.498159 
L 117.455624 -270.808316 
L 116.631269 -271.289815 
L 116.949335 -270.194173 
L 119.037427 -271.689992 
L 120.16839 -269.957415 
L 120.534968 -270.399128 
L 120.778621 -268.944558 
L 121.701162 -270.687419 
L 124.700758 -271.563826 
L 125.662651 -270.899518 
L 125.499364 -268.792716 
L 126.170334 -268.575315 
L 125.865576 -270.761479 
L 127.38934 -270.689009 
L 128.134124 -269.596791 
L 127.579895 -270.832222 
L 129.660068 -272.063348 
L 129.399685 -271.579347 
L 129.372408 -271.24547 
L 129.545875 -270.992693 
L 130.121196 -270.726972 
L 130.025914 -269.812474 
L 127.500253 -262.53617 
L 128.718168 -263.058983 
L 131.358389 -270.269718 
L 133.73946 -273.963797 
L 134.715608 -274.395141 
L 133.134573 -271.346882 
L 136.497941 -276.257267 
L 138.541149 -273.300506 
L 138.053468 -274.900017 
L 139.461948 -275.333969 
L 137.931285 -275.4306 
L 138.054782 -277.339445 
L 138.473502 -278.003212 
L 138.567488 -277.169697 
L 139.379035 -276.996462 
L 140.377295 -279.117926 
L 139.761978 -279.859008 
L 140.693689 -280.123871 
L 141.115537 -281.367931 
L 140.99262 -282.634423 
L 142.030517 -283.907827 
L 142.707663 -282.634423 
L 144.13501 -283.60444 
L 144.075781 -284.93137 
L 144.794379 -282.902741 
L 145.84974 -283.56618 
L 146.082748 -284.792705 
L 146.867644 -282.815599 
L 147.793894 -282.308317 
L 147.178578 -284.637693 
L 147.733531 -284.637693 
L 147.60552 -284.41425 
L 147.600425 -283.912131 
L 147.666249 -283.697318 
L 148.679059 -284.637693 
L 149.020175 -283.755985 
L 149.536214 -284.015663 
L 149.198012 -283.328064 
L 149.868973 -283.697318 
L 150.057714 -282.453258 
L 150.613758 -283.865549 
L 150.79559 -281.730282 
L 151.582926 -283.545476 
L 152.001869 -282.075375 
L 151.63748 -281.752715 
L 151.777128 -281.367931 
L 152.922676 -283.378103 
L 153.247427 -281.367931 
L 153.491813 -282.235847 
L 153.857659 -281.618131 
L 153.546725 -280.926218 
L 154.007129 -281.585342 
L 154.088951 -282.16855 
L 154.589716 -281.771691 
L 154.382072 -282.422546 
L 154.894832 -281.730282 
L 154.711909 -281.00559 
L 154.279515 -281.143618 
L 153.653277 -280.48794 
L 153.546725 -280.123871 
L 156.422349 -281.715122 
L 155.99892 -279.840891 
L 156.983004 -280.232576 
L 157.341217 -279.183495 
L 157.591055 -279.985831 
L 158.023815 -279.328425 
L 157.750901 -280.467235 
L 158.454028 -281.300644 
L 157.901622 -278.37942 
L 158.999892 -279.117926 
L 158.938795 -278.45189 
L 159.335555 -279.544119 
L 159.793412 -278.091266 
L 160.427891 -279.737624 
L 160.708392 -277.656455 
L 161.42859 -279.648711 
L 161.141153 -277.590886 
L 161.690287 -278.170638 
L 161.669195 -277.357944 
L 161.934316 -276.861009 
L 162.732555 -278.891027 
L 163.144151 -276.438167 
L 164.321052 -277.456292 
L 164.447607 -275.913732 
L 165.466601 -277.271671 
L 164.331232 -275.116558 
L 165.06329 -274.531622 
L 166.266664 -277.004222 
L 166.53359 -275.913732 
L 165.598241 -274.383236 
L 166.289213 -272.425689 
L 167.723146 -275.202832 
L 168.618848 -275.774824 
L 169.473465 -274.531622 
L 168.999611 -274.186529 
L 168.985427 -273.95187 
L 169.473465 -274.024341 
L 170.361177 -275.855065 
L 169.773129 -273.372977 
L 170.699379 -273.590388 
L 170.638283 -274.320254 
L 171.208877 -272.6431 
L 170.773212 -272.272988 
L 171.792564 -272.71557 
L 170.876484 -271.700996 
L 172.774459 -272.425689 
L 172.2246 -271.418886 
L 173.380695 -271.482727 
L 172.840283 -270.761479 
L 173.756354 -269.853024 
L 172.602082 -269.30691 
L 173.700718 -269.234439 
L 171.920208 -266.905052 
L 171.403802 -267.048276 
L 170.7543 -266.760122 
L 172.170046 -266.848113 
L 171.675823 -265.457384 
L 172.184953 -265.938799 
L 172.189324 -265.261547 
L 172.285696 -265.167513 
L 172.474437 -266.839494 
L 173.993107 -268.187075 
L 174.86954 -266.18036 
L 174.585517 -265.457384 
L 173.555252 -265.828365 
L 173.190854 -265.574719 
L 173.457423 -264.41866 
L 172.256238 -263.431692 
L 173.289408 -264.014031 
L 171.986756 -260.002316 
L 172.558083 -258.57795 
L 171.133963 -257.031064 
L 171.004861 -255.936249 
L 174.249486 -259.646007 
L 174.829536 -263.89412 
L 175.536863 -263.568862 
L 175.503768 -264.620541 
L 177.811596 -265.318486 
L 176.892978 -262.615542 
L 176.207824 -262.627617 
L 175.004459 -261.13078 
L 176.45221 -261.673438 
L 176.330017 -260.50875 
L 177.171541 -261.773514 
L 177.510476 -261.290382 
L 178.805128 -263.923443 
L 179.209163 -262.98911 
L 180.584914 -264.66109 
L 180.612182 -263.78023 
L 181.295146 -264.66109 
L 181.106405 -264.292696 
L 182.210493 -264.153798 
L 182.254134 -265.098489 
L 183.009107 -263.858743 
L 183.374953 -264.878491 
L 182.703625 -265.529855 
L 183.246593 -266.138665 
L 189.737648 -263.745723 
L 191.945466 -261.745909 
L 193.632142 -261.673438 
L 193.854345 -260.877134 
L 196.49529 -260.84004 
L 195.901074 -262.011174 
L 197.436877 -261.986886 
L 198.799105 -260.434552 
L 201.865177 -259.963494 
L 202.745972 -258.95755 
L 202.113924 -260.147257 
L 202.635416 -260.442312 
L 204.194089 -260.002316 
L 209.403603 -261.384416 
L 213.996701 -260.72615 
L 222.938879 -254.921675 
L 225.848206 -251.947836 
L 227.477065 -251.725252 
L 231.479202 -246.001007 
L 233.81176 -244.315224 
L 235.254049 -242.071251 
L 238.066647 -240.906563 
L 239.046361 -238.861015 
L 241.586206 -238.571144 
L 244.753003 -236.563559 
L 244.435161 -237.057907 
L 249.643942 -237.412488 
L 253.993021 -236.39274 
L 256.561957 -231.740009 
L 257.617318 -227.362497 
L 257.726417 -225.345424 
L 257.20783 -225.02535 
L 258.214822 -224.807939 
L 259.806582 -217.618778 
L 259.31891 -215.329941 
L 259.989871 -217.001063 
L 260.400815 -214.84595 
L 260.300805 -211.263874 
L 259.191265 -210.822161 
L 260.296291 -210.112331 
L 260.072855 -209.495634 
L 259.684389 -210.164754 
L 259.385458 -208.934497 
L 259.754932 -209.107076 
L 259.520592 -208.629191 
L 259.507821 -208.180662 
L 260.239708 -206.827695 
L 259.886223 -205.385211 
L 259.191265 -205.742378 
L 259.623292 -205.163485 
L 259.105072 -202.432924 
L 255.829533 -193.464805 
L 252.334347 -188.377262 
L 251.60228 -188.089109 
L 251.406997 -189.312465 
L 250.886587 -187.724171 
L 250.464007 -188.888 
L 249.949057 -189.036397 
L 250.74803 -187.502456 
L 251.311348 -187.615465 
L 245.971651 -179.586863 
L 241.547649 -176.716546 
L 239.445302 -172.974008 
L 238.222293 -174.067954 
L 239.348206 -172.321775 
L 237.731341 -169.849186 
L 237.084385 -170.071771 
L 238.24957 -171.664379 
L 238.005551 -172.244132 
L 236.968735 -170.000159 
L 236.479973 -170.506582 
L 237.145839 -169.671456 
L 236.285413 -168.835471 
L 237.456416 -169.486835 
L 234.830388 -163.180251 
L 228.880084 -153.79284 
L 226.982842 -152.930967 
L 227.19558 -156.043714 
L 226.147137 -156.261115 
L 225.568178 -157.649257 
L 224.534642 -154.853997 
L 224.0426 -156.773581 
L 223.48838 -155.898774 
L 224.111338 -154.683178 
L 225.268881 -154.450236 
L 223.74476 -152.247683 
L 224.531371 -151.581647 
L 223.274542 -150.490288 
L 223.212356 -149.157368 
L 222.45084 -149.581833 
L 221.773694 -146.752065 
L 222.700678 -147.837382 
L 222.985425 -144.244958 
L 221.987523 -145.551142 
L 221.476944 -145.29404 
L 222.855957 -143.95249 
L 222.140264 -143.626374 
L 222.989062 -141.856915 
L 222.171545 -141.695574 
L 222.140264 -141.014876 
L 222.45084 -140.645634 
L 222.239908 -141.339265 
L 223.18835 -141.804279 
L 222.895961 -143.238144 
L 223.432735 -143.590139 
L 223.48838 -142.461686 
L 222.206455 -135.349309 
L 224.0426 -122.847424 
L 220.941984 -108.981556 
L 221.580949 -103.496296 
L 220.348127 -101.511143 
L 218.782902 -100.650998 
L 216.912937 -97.199201 
L 216.149241 -92.872586 
L 216.537636 -85.510878 
L 215.779749 -83.116792 
L 213.629033 -81.394773 
L 211.788526 -76.069115 
L 210.568421 -76.430597 
L 210.598111 -75.470641 
L 211.549592 -75.489352 
L 210.752077 -73.595657 
L 208.654636 -70.395375 
L 207.090234 -69.735742 
L 204.419929 -63.166925 
L 204.973792 -57.543626 
L 198.974761 -54.706946 
L 196.295269 -52.018674 
L 196.056345 -50.275082 
L 197.157885 -49.721208 
L 196.086893 -48.934391 
L 195.873055 -47.28744 
L 186.775956 -47.365943 
L 185.887887 -47.945706 
L 186.831958 -49.89721 
L 186.381377 -50.637434 
L 184.641961 -49.77556 
L 185.530398 -47.413394 
L 182.048296 -46.378116 
L 178.085797 -46.127926 
L 181.660634 -47.011362 
L 179.458277 -48.235576 
L 176.4533 -46.573953 
L 174.96736 -47.101081 
L 175.206294 -47.924132 
L 174.442598 -47.756759 
L 171.858388 -45.951923 
L 172.29769 -44.074617 
L 173.145398 -44.681975 
L 173.639622 -43.950381 
L 169.902954 -43.395637 
L 168.796686 -42.794311 
L 168.5523 -41.629623 
L 165.490598 -40.543448 
L 165.368405 -38.286531 
L 161.456457 -39.074206 
L 158.938795 -38.141591 
L 158.140189 -37.417757 
L 159.243911 -37.92418 
L 158.756239 -36.687021 
L 157.673243 -36.26773 
L 157.407765 -36.318637 
L 157.774335 -36.687021 
L 157.567773 -37.286619 
L 156.799715 -37.833592 
L 156.187303 -37.271957 
L 156.883361 -36.232364 
L 151.873134 -33.594119 
L 151.169444 -32.008412 
L 145.641721 -28.481558 
L 143.928492 -27.013185 
L 142.721847 -25.361909 
L 141.908333 -25.500807 
L 142.818952 -25.042694 
L 143.378633 -25.283396 
L 140.500944 -21.039609 
L 140.383846 -22.295754 
L 141.231545 -22.922958 
L 139.3954 -22.092146 
L 139.461948 -23.467344 
L 139.085556 -22.659824 
L 138.296764 -23.256835 
L 138.541149 -22.454498 
L 137.931285 -22.302656 
L 138.668794 -21.543445 
L 138.144389 -20.848086 
L 135.728561 -22.157715 
L 136.016213 -20.628947 
L 139.141201 -19.837827 
L 137.534158 -16.927819 
L 137.198861 -17.440284 
L 137.156676 -16.830329 
L 135.492541 -16.695746 
L 137.333414 -16.712136 
L 137.073754 -13.340569 
L 135.811107 -12.907475 
L 135.251069 -14.563924 
L 135.235062 -12.057687 
L 136.936287 -10.660057 
L 136.262055 -8.267698 
L 137.203946 -7.057276 
L 136.942838 -3.581318 
L 138.113841 -3.055919 
L 136.828278 -2.073265 
L 137.437062 -0.582461 
L 136.582811 0.395878 
L 137.314869 4.431753 
L 136.686092 8.352879 
L 135.565998 11.079984 
L 134.557916 9.584006 
L 134.728845 10.951433 
L 135.61182 11.514806 
L 130.368486 15.703382 
L 126.186698 21.211933 
L 121.673242 32.008189 
L 118.046764 38.188819 
L 114.199907 42.821705 
L 107.839393 47.594347 
L 105.927967 50.091097 
L 106.510564 47.7945 
L 105.839594 46.492631 
L 108.082322 46.779925 
L 111.100025 43.81126 
L 111.556424 44.212434 
L 111.780808 42.859658 
L 113.367473 42.636214 
L 114.110444 38.540814 
L 115.432006 38.38207 
L 115.772032 39.105045 
L 115.749849 36.585853 
L 118.304243 34.817253 
L 118.008941 30.964282 
L 119.064668 32.25838 
L 119.444698 31.887409 
L 119.669439 29.951436 
L 118.999568 29.089562 
L 118.488623 30.179193 
L 116.334626 30.47252 
L 116.125517 31.690702 
L 115.252355 31.098006 
L 115.35055 29.911744 
L 113.474392 29.128384 
L 113.023087 27.194139 
L 112.634692 29.495909 
L 113.879151 30.93322 
L 114.746861 30.846947 
L 113.31838 32.016819 
L 113.146736 35.403917 
L 112.186658 33.924328 
L 112.322668 36.435739 
L 111.216033 37.367496 
L 111.597519 38.575321 
L 109.983567 39.151627 
L 109.859194 40.436237 
L 106.945505 41.239443 
L 106.548745 44.567015 
L 105.87487 43.639572 
L 106.053431 44.771482 
L 104.665687 45.568645 
L 104.399118 46.854982 
L 105.423198 47.584859 
L 104.308198 48.886717 
L 105.891967 48.657232 
L 105.109717 49.38538 
L 105.839594 49.031658 
L 105.804684 50.079022 
L 104.354753 51.312735 
L 100.85592 60.371442 
L 94.293973 66.771423 
L 92.859048 65.802329 
L 92.883983 60.730455 
L 96.691524 55.976333 
L 92.665525 53.083763 
L 90.913714 48.90158 
L 86.293767 46.445625 
L 83.341594 42.591053 
L 77.62336 40.309859 
L 74.517382 36.10905 
L 72.169308 38.507483 
L 70.768265 38.58747 
L 70.768265 35.57765 
L 63.440235 28.1972 
L 61.243187 28.239933 
L 59.74216 30.225298 
L 57.141916 30.024786 
L 56.544886 29.135201 
L 59.026279 26.914169 
L 59.326953 25.155619 
L 60.923584 24.63517 
L 63.549692 21.549764 
L 65.352778 18.220008 
L 67.044789 17.25472 
L 68.312352 14.183551 
L 71.745324 10.843947 
L 71.713454 9.920289 
L 73.602446 10.154768 
L 73.876325 9.374652 
L 72.902733 8.37211 
L 75.868072 6.749415 
L 76.999848 5.011675 
L 79.542364 4.330172 
L 79.081898 3.562109 
L 80.582925 3.123841 
L 81.54959 0.891954 
L 86.180619 -0.146748 
L 87.162523 -2.107995 
L 87.924584 -1.665349 
L 89.065369 -3.05576 
L 90.263881 -3.026172 
L 91.314138 -5.700705 
L 90.761759 -7.71675 
L 91.769528 -12.535518 
L 90.233395 -15.68996 
L 89.549394 -19.220207 
L 87.860842 -19.559872 
L 87.704276 -20.647871 
L 86.824902 -20.256715 
L 87.04429 -19.734083 
L 85.210718 -19.730796 
L 84.746552 -18.584724 
L 83.380382 -19.795761 
L 83.400241 -21.676714 
L 84.931763 -24.306319 
L 84.61308 -25.496227 
L 86.401383 -32.691505 
L 85.753865 -34.913533 
L 86.552408 -35.955512 
L 83.031688 -38.565409 
L 78.328614 -36.313803 
L 76.047509 -36.974485 
L 74.106786 -47.0859 
L 74.233108 -50.924039 
L 72.111805 -54.625221 
L 68.954794 -54.775335 
L 67.226532 -56.891075 
L 66.300049 -56.725631 
L 65.071052 -54.901331 
L 64.476175 -55.410818 
L 63.218774 -54.586876 
L 53.117767 -56.905323 
L 54.625265 -68.787882 
L 53.756053 -69.296277 
L 54.249311 -70.080782 
L 53.527433 -70.483991 
L 54.244234 -71.155635 
L 53.168112 -71.553363 
L 53.089596 -74.305688 
L 51.575628 -77.146767 
L 54.24839 -79.108024 
L 51.880914 -81.760644 
L 54.88067 -88.870466 
L 55.534659 -89.02605 
L 54.940247 -90.448233 
L 56.867108 -97.384935 
L 57.770496 -97.79143 
L 55.407184 -101.73147 
L 54.775825 -105.045874 
L 52.90393 -105.434846 
L 49.427539 -108.183884 
L 48.702426 -114.054501 
L 49.932353 -116.286378 
L 49.960059 -118.235582 
L 33.683811 -118.49526 
L 32.917827 -126.833324 
L 29.91622 -130.855534 
L 32.708601 -131.019885 
L 32.512772 -135.825508 
L 30.969945 -139.554084 
L 31.659496 -142.682224 
L 30.895818 -144.64786 
L 25.760449 -148.181404 
L 18.707684 -147.374996 
L 16.267242 -150.466976 
L 16.220133 -151.513894 
L 13.454537 -151.764805 
L 11.108314 -153.477336 
L 10.185987 -153.099337 
L 8.414772 -154.761469 
L 7.637009 -156.788465 
L 5.46629 -156.265822 
L 3.966184 -157.797579 
L 1.145167 -158.884486 
L 0.074121 -157.936732 
L -3.199738 -158.437451 
L -5.007212 -159.746773 
L -5.003745 -161.168955 
L -6.79598 -162.601008 
L -7.239358 -162.174783 
L -7.712757 -163.362497 
L -9.544478 -163.74708 
L -10.153208 -166.325194 
L -10.580883 -166.988082 
L -10.921275 -166.112639 
L -11.320779 -166.444628 
L -11.063755 -167.783538 
L -12.423222 -169.258313 
L -13.028484 -171.366388 
L -12.244947 -174.630394 
L -13.184594 -176.43716 
L -13.588951 -179.947688 
L -12.11286 -182.717548 
L -12.240558 -186.59294 
L -13.12432 -188.230975 
L -14.786543 -186.635674 
L -16.615029 -187.740115 
L -24.248111 -185.886238 
L -28.016855 -182.186148 
L -30.333522 -181.529844 
L -32.667278 -179.590499 
L -33.892575 -177.430934 
L -36.770863 -177.839613 
L -39.001159 -174.531781 
L -41.882682 -173.116171 
L -43.314425 -172.818148 
L -43.571225 -174.365235 
L -48.855769 -174.997442 
L -53.862287 -175.163989 
L -56.841023 -173.622372 
L -59.028142 -174.964568 
L -59.986487 -174.194311 
L -59.960622 -186.481181 
L -59.097416 -188.003069 
L -59.835229 -189.512914 
L -58.946623 -190.942761 
L -65.870528 -184.980115 
L -73.878179 -184.850821 
L -73.585361 -186.211655 
L -74.923816 -189.865714 
L -79.398278 -191.155327 
L -82.988282 -191.175046 
L -80.816634 -194.086252 
L -80.853125 -195.666203 
L -84.200191 -199.769502 
L -84.252377 -201.026241 
L -85.900505 -202.305985 
L -87.037367 -205.966627 
L -88.082315 -206.744549 
L -87.431794 -208.358477 
z
" clip-path="url(#pcbff75362e)" style="fill: #eeeeee; stroke: #000000; stroke-width: 0.3"/>
    <path d="M 117.315797 -275.710124 
L 117.411079 -279.407797 
L 119.491977 -278.37942 
L 118.982837 -279.050629 
L 120.234581 -279.90646 
L 118.561713 -279.315491 
L 117.411079 -280.123871 
L 117.904936 -285.072515 
L 118.380614 -284.1399 
L 119.592711 -283.736998 
L 118.392974 -284.309859 
L 118.270782 -287.105978 
L 119.280687 -288.885795 
L 121.204115 -289.80289 
L 127.59154 -288.366438 
L 129.970278 -288.192164 
L 129.97464 -288.964308 
L 131.590406 -289.435365 
L 138.550972 -288.167145 
L 139.064464 -287.099936 
L 137.931285 -283.038183 
L 137.254139 -283.697318 
L 137.653437 -281.671615 
L 136.427889 -280.308492 
L 136.624263 -279.435413 
L 135.052139 -278.170638 
L 134.136792 -278.821143 
L 135.252883 -277.475279 
L 134.924494 -275.913732 
L 133.948418 -277.185398 
L 133.520743 -277.221633 
L 133.520743 -276.353717 
L 134.86885 -275.55138 
L 132.843963 -274.682606 
L 131.664595 -276.204472 
L 131.379839 -274.241752 
L 131.928616 -274.102854 
L 131.440936 -273.736187 
L 129.970278 -275.189029 
L 130.229572 -273.562347 
L 129.4724 -273.585299 
L 128.993835 -275.044957 
L 128.683259 -275.044957 
L 128.438516 -272.643969 
L 127.279874 -272.166011 
L 126.780565 -274.169281 
L 126.492538 -271.763978 
L 124.473827 -272.417929 
L 124.242535 -273.372977 
L 123.108989 -272.063348 
L 122.487855 -272.486943 
L 122.37039 -273.735328 
L 122.004902 -273.988105 
L 122.263471 -274.352174 
L 122.1871 -275.189029 
L 121.882709 -273.988105 
L 122.126371 -272.425689 
L 121.755064 -273.372977 
L 121.949266 -272.316984 
L 121.2172 -272.135818 
L 121.840167 -271.803659 
L 120.873179 -271.51206 
L 119.097397 -272.135818 
L 119.240316 -273.064978 
z
" clip-path="url(#pcbff75362e)" style="fill: #eeeeee; stroke: #000000; stroke-width: 0.3"/>
    <path d="M 107.242621 -275.330524 
L 107.653923 -277.604689 
L 109.444255 -279.293918 
L 109.517345 -281.945965 
L 110.783996 -284.194253 
L 112.452136 -285.283025 
L 112.146654 -283.980298 
L 112.80125 -285.423651 
L 113.894425 -284.41425 
L 113.093639 -280.054856 
L 108.935848 -275.868867 
z
" clip-path="url(#pcbff75362e)" style="fill: #eeeeee; stroke: #000000; stroke-width: 0.3"/>
    <path d="M 121.117922 -293.13131 
L 123.535574 -293.277979 
L 127.620542 -295.01891 
L 128.691883 -294.673383 
L 125.682653 -290.809694 
L 124.454192 -290.363232 
L 123.625038 -291.250559 
L 121.409945 -291.425692 
z
" clip-path="url(#pcbff75362e)" style="fill: #eeeeee; stroke: #000000; stroke-width: 0.3"/>
    <path d="M 121.70488 -295.311442 
L 122.1871 -297.126635 
L 123.418833 -296.982564 
L 123.907604 -297.7849 
L 124.11271 -296.332917 
L 122.263721 -294.750093 
z
" clip-path="url(#pcbff75362e)" style="fill: #eeeeee; stroke: #000000; stroke-width: 0.3"/>
    <path d="M 115.21126 -288.799522 
L 116.028322 -290.795923 
L 117.648342 -291.414412 
L 118.638084 -290.670796 
L 118.454071 -289.284382 
L 116.241525 -287.419151 
z
" clip-path="url(#pcbff75362e)" style="fill: #eeeeee; stroke: #000000; stroke-width: 0.3"/>
    <path d="M 222.396286 -148.248902 
L 223.305091 -148.922698 
L 223.732757 -148.298081 
L 223.682162 -145.984183 
L 223.0938 -147.823579 
z
" clip-path="url(#pcbff75362e)" style="fill: #eeeeee; stroke: #000000; stroke-width: 0.3"/>
    <path d="M 259.590903 -208.190213 
L 259.872245 -209.320808 
L 260.144113 -208.881724 
L 259.938177 -208.089735 
z
" clip-path="url(#pcbff75362e)" style="fill: #eeeeee; stroke: #000000; stroke-width: 0.3"/>
    <path d="M 224.714294 -151.686907 
L 225.76238 -153.510719 
L 225.513266 -154.372593 
L 226.493347 -153.244998 
z
" clip-path="url(#pcbff75362e)" style="fill: #eeeeee; stroke: #000000; stroke-width: 0.3"/>
    <path d="M 180.506353 -265.269095 
L 180.662732 -266.654003 
L 181.450068 -267.048276 
L 181.383072 -265.480908 
z
" clip-path="url(#pcbff75362e)" style="fill: #eeeeee; stroke: #000000; stroke-width: 0.3"/>
    <path d="M 174.838259 -45.341968 
L 176.017993 -46.364313 
L 177.217363 -45.513656 
L 175.190296 -44.747544 
z
" clip-path="url(#pcbff75362e)" style="fill: #eeeeee; stroke: #000000; stroke-width: 0.3"/>
    <path d="M 172.774459 -258.481319 
L 172.968294 -261.239486 
L 173.822178 -262.25319 
L 173.674531 -259.656365 
z
" clip-path="url(#pcbff75362e)" style="fill: #eeeeee; stroke: #000000; stroke-width: 0.3"/>
    <path d="M 144.502026 -284.818954 
L 145.40352 -284.782634 
L 145.556261 -283.576537 
L 145.03695 -283.400535 
z
" clip-path="url(#pcbff75362e)" style="fill: #eeeeee; stroke: #000000; stroke-width: 0.3"/>
    <path d="M 139.575051 -280.816643 
L 140.627132 -282.235847 
L 140.564945 -280.199786 
L 139.624511 -280.102297 
z
" clip-path="url(#pcbff75362e)" style="fill: #eeeeee; stroke: #000000; stroke-width: 0.3"/>
    <path d="M 138.239671 -278.577854 
L 138.602246 -279.47855 
L 139.339755 -279.616578 
L 139.383397 -278.148206 
z
" clip-path="url(#pcbff75362e)" style="fill: #eeeeee; stroke: #000000; stroke-width: 0.3"/>
    <path d="M 137.330509 3.976227 
L 137.56543 0.359654 
L 138.485505 -0.397829 
L 138.72989 1.451872 
z
" clip-path="url(#pcbff75362e)" style="fill: #eeeeee; stroke: #000000; stroke-width: 0.3"/>
    <path d="M 136.08386 -11.98263 
L 137.475242 -13.516571 
L 137.997833 -12.787553 
L 137.156676 -10.825702 
z
" clip-path="url(#pcbff75362e)" style="fill: #eeeeee; stroke: #000000; stroke-width: 0.3"/>
    <path d="M 129.477146 -271.122103 
L 130.284483 -272.662946 
L 130.858348 -272.280759 
L 130.148107 -270.832222 
z
" clip-path="url(#pcbff75362e)" style="fill: #eeeeee; stroke: #000000; stroke-width: 0.3"/>
    <path d="M 125.992863 -289.829627 
L 128.993835 -291.830311 
L 130.325935 -290.820051 
L 129.290585 -289.565634 
z
" clip-path="url(#pcbff75362e)" style="fill: #eeeeee; stroke: #000000; stroke-width: 0.3"/>
    <path d="M 121.961912 -299.077217 
L 122.479284 -300.03148 
L 124.35394 -300.384429 
L 123.570484 -298.934068 
z
" clip-path="url(#pcbff75362e)" style="fill: #eeeeee; stroke: #000000; stroke-width: 0.3"/>
    <path d="M 119.876001 -293.134766 
L 121.2172 -297.495019 
L 121.661561 -294.196018 
L 120.749494 -292.703283 
z
" clip-path="url(#pcbff75362e)" style="fill: #eeeeee; stroke: #000000; stroke-width: 0.3"/>
    <path d="M 119.812912 -312.14113 
L 120.433662 -313.301535 
L 121.687863 -311.788997 
L 120.748609 -310.67281 
z
" clip-path="url(#pcbff75362e)" style="fill: #eeeeee; stroke: #000000; stroke-width: 0.3"/>
    <path d="M 119.636772 -313.675293 
L 120.353315 -314.1072 
L 120.78401 -313.471049 
L 120.044222 -313.263974 
z
" clip-path="url(#pcbff75362e)" style="fill: #eeeeee; stroke: #000000; stroke-width: 0.3"/>
    <path d="M 118.825735 -291.678469 
L 119.037391 -292.867317 
L 120.113112 -292.612303 
L 120.582283 -290.922513 
z
" clip-path="url(#pcbff75362e)" style="fill: #eeeeee; stroke: #000000; stroke-width: 0.3"/>
    <path d="M 114.659578 -282.163376 
L 114.964694 -283.755985 
L 116.978677 -285.000045 
L 116.959041 -283.332379 
z
" clip-path="url(#pcbff75362e)" style="fill: #eeeeee; stroke: #000000; stroke-width: 0.3"/>
    <path d="M 111.936454 -286.049996 
L 113.195097 -288.595924 
L 114.079895 -289.435365 
L 114.066811 -287.683144 
z
" clip-path="url(#pcbff75362e)" style="fill: #eeeeee; stroke: #000000; stroke-width: 0.3"/>
    <path d="M 313.249079 -73.481778 
L 313.279628 -73.473148 
L 313.272719 -73.445543 
z
" clip-path="url(#pcbff75362e)" style="fill: #eeeeee; stroke: #000000; stroke-width: 0.3"/>
    <path d="M 309.068382 -72.94688 
L 309.103658 -73.056444 
L 309.348768 -72.867508 
z
" clip-path="url(#pcbff75362e)" style="fill: #eeeeee; stroke: #000000; stroke-width: 0.3"/>
    <path d="M 308.514153 -299.773509 
L 308.997463 -300.281225 
L 309.061473 -299.961586 
z
" clip-path="url(#pcbff75362e)" style="fill: #eeeeee; stroke: #000000; stroke-width: 0.3"/>
    <path d="M 281.232311 -249.807385 
L 281.463604 -250.109352 
L 281.795996 -249.980801 
z
" clip-path="url(#pcbff75362e)" style="fill: #eeeeee; stroke: #000000; stroke-width: 0.3"/>
    <path d="M 194.33147 -262.549114 
L 195.177364 -262.52841 
L 195.232642 -261.676884 
z
" clip-path="url(#pcbff75362e)" style="fill: #eeeeee; stroke: #000000; stroke-width: 0.3"/>
    <path d="M 193.76178 -261.913091 
L 194.662165 -261.924095 
L 195.048692 -261.52818 
z
" clip-path="url(#pcbff75362e)" style="fill: #eeeeee; stroke: #000000; stroke-width: 0.3"/>
    <path d="M 181.589644 -265.638804 
L 182.212164 -265.78561 
L 181.929589 -265.231004 
z
" clip-path="url(#pcbff75362e)" style="fill: #eeeeee; stroke: #000000; stroke-width: 0.3"/>
    <path d="M 179.696629 -265.398059 
L 180.292444 -264.974443 
L 179.824649 -264.284204 
z
" clip-path="url(#pcbff75362e)" style="fill: #eeeeee; stroke: #000000; stroke-width: 0.3"/>
    <path d="M 169.012704 -276.317492 
L 169.410912 -277.561552 
L 170.206256 -276.861009 
z
" clip-path="url(#pcbff75362e)" style="fill: #eeeeee; stroke: #000000; stroke-width: 0.3"/>
    <path d="M 165.133476 -37.643797 
L 166.424857 -39.446046 
L 167.021628 -36.831962 
z
" clip-path="url(#pcbff75362e)" style="fill: #eeeeee; stroke: #000000; stroke-width: 0.3"/>
    <path d="M 156.486958 -37.049373 
L 156.725892 -37.338385 
L 157.635778 -36.588673 
z
" clip-path="url(#pcbff75362e)" style="fill: #eeeeee; stroke: #000000; stroke-width: 0.3"/>
    <path d="M 143.261892 -25.500807 
L 143.872123 -26.810436 
L 147.300037 -29.212293 
z
" clip-path="url(#pcbff75362e)" style="fill: #eeeeee; stroke: #000000; stroke-width: 0.3"/>
    <path d="M 142.524383 -283.755985 
L 143.378633 -283.829314 
L 142.707663 -283.177092 
z
" clip-path="url(#pcbff75362e)" style="fill: #eeeeee; stroke: #000000; stroke-width: 0.3"/>
    <path d="M 139.334875 -21.379698 
L 140.086926 -22.199421 
L 139.767609 -20.705648 
z
" clip-path="url(#pcbff75362e)" style="fill: #eeeeee; stroke: #000000; stroke-width: 0.3"/>
    <path d="M 128.735445 -273.188462 
L 129.642274 -272.934158 
L 128.886246 -272.424989 
z
" clip-path="url(#pcbff75362e)" style="fill: #eeeeee; stroke: #000000; stroke-width: 0.3"/>
    <path d="M 123.597886 -301.090156 
L 125.152439 -302.264714 
L 124.816042 -301.24662 
z
" clip-path="url(#pcbff75362e)" style="fill: #eeeeee; stroke: #000000; stroke-width: 0.3"/>
    <path d="M 122.524105 -293.533024 
L 123.481636 -294.508024 
L 123.013993 -293.697577 
z
" clip-path="url(#pcbff75362e)" style="fill: #eeeeee; stroke: #000000; stroke-width: 0.3"/>
    <path d="M 49.068102 66.324304 
L 49.854347 60.209243 
L 51.763592 59.927991 
L 52.561474 57.983388 
L 51.230455 53.298747 
L 52.132163 51.296717 
L 51.327614 49.93918 
L 51.18398 47.185212 
L 52.557997 46.167331 
L 53.177344 44.064737 
L 52.32245 42.754313 
L 53.84288 40.271515 
L 53.853042 36.971347 
L 54.816928 36.321616 
L 54.0932 32.573322 
L 56.098585 30.6044 
L 56.544886 29.135201 
L 57.141916 30.024786 
L 59.74216 30.225298 
L 61.243187 28.239933 
L 63.440235 28.1972 
L 70.768265 35.57765 
L 70.768265 38.58747 
L 72.169308 38.507483 
L 74.517382 36.10905 
L 77.62336 40.309859 
L 83.341594 42.591053 
L 86.293767 46.445625 
L 90.913714 48.90158 
L 92.665525 53.083763 
L 96.611624 55.817462 
L 93.109368 59.973354 
L 92.859048 65.802329 
L 94.293973 66.771423 
L 92.860728 70.182459 
L 90.925663 72.358265 
L 90.846021 73.659275 
L 87.440657 76.597748 
L 86.423843 76.792726 
L 86.612226 75.772968 
L 85.807793 75.476196 
L 86.005633 77.023071 
L 80.349541 79.8028 
L 73.60956 77.627821 
L 69.474739 79.498385 
L 67.268485 78.582031 
L 67.508214 77.818517 
L 63.059411 76.625353 
L 60.574147 74.301044 
L 54.287635 74.513441 
L 52.306908 71.555928 
L 51.129355 71.08574 
L 49.395766 68.702001 
z
" clip-path="url(#pcbff75362e)" style="fill: #eeeeee; stroke: #000000; stroke-width: 0.3"/>
    <path d="M 11.432538 -55.209214 
L 14.780989 -67.590319 
L 14.842416 -73.033619 
L 17.743333 -77.793222 
L 19.450806 -82.651427 
L 35.062913 -86.338372 
L 43.434961 -86.408488 
L 51.525292 -80.668257 
L 51.540996 -76.319538 
L 53.089596 -74.305688 
L 53.168112 -71.553363 
L 54.266864 -71.053735 
L 53.527433 -70.483991 
L 54.249311 -70.080782 
L 53.756053 -69.296277 
L 54.625265 -68.787882 
L 53.117767 -56.905323 
L 63.218774 -54.586876 
L 64.476175 -55.410818 
L 65.071052 -54.901331 
L 66.300049 -56.725631 
L 67.226532 -56.891075 
L 68.954794 -54.775335 
L 72.111805 -54.625221 
L 74.233108 -50.924039 
L 74.106786 -47.0859 
L 76.047509 -36.974485 
L 78.328614 -36.313803 
L 83.031688 -38.565409 
L 86.552408 -35.955512 
L 85.753865 -34.913533 
L 86.401383 -32.691505 
L 84.61308 -25.496227 
L 84.931763 -24.306319 
L 83.294484 -21.303083 
L 83.039999 -13.201681 
L 81.656741 -8.451948 
L 80.523115 -8.142964 
L 78.570622 -5.179175 
L 76.107086 -4.901962 
L 74.46011 -2.912219 
L 74.522226 -1.207353 
L 73.061838 0.015409 
L 71.827531 -1.138328 
L 69.756572 -1.519624 
L 67.297192 1.532918 
L 65.985987 0.135935 
L 63.977608 0.683777 
L 62.787176 -0.24974 
L 60.32271 0.477784 
L 52.79862 -1.933784 
L 47.594897 -1.335554 
L 47.156131 -3.031653 
L 48.745379 -5.34571 
L 50.172511 -6.022835 
L 49.955903 -6.717494 
L 51.398273 -8.39168 
L 51.642597 -13.366033 
L 54.132463 -15.180463 
L 55.00953 -18.452145 
L 56.790442 -19.907202 
L 56.944238 -21.18914 
L 55.192882 -23.973237 
L 50.992308 -26.514098 
L 49.99193 -25.977228 
L 48.763853 -27.467333 
L 45.76272 -28.25732 
L 34.819054 -36.417886 
L 32.104724 -36.318181 
L 26.125776 -38.554447 
L 25.200679 -40.658684 
L 21.704205 -42.770045 
L 17.634332 -46.728711 
L 14.677994 -52.564269 
z
" clip-path="url(#pcbff75362e)" style="fill: #eeeeee; stroke: #000000; stroke-width: 0.3"/>
    <path d="M 56.19031 29.162499 
L 56.266234 29.061691 
L 56.544886 29.135201 
z
" clip-path="url(#pcbff75362e)" style="fill: #eeeeee; stroke: #000000; stroke-width: 0.3"/>
   </g>
   <g id="PatchCollection_2">
    <defs>
     <path id="mee503d935b" d="M 49.068102 -41.675696 
L 49.854347 -47.790757 
L 51.763592 -48.072009 
L 52.561474 -50.016612 
L 51.230455 -54.701253 
L 52.132163 -56.703283 
L 51.327614 -58.06082 
L 51.18398 -60.814788 
L 52.557997 -61.832669 
L 53.177344 -63.935263 
L 52.32245 -65.245687 
L 53.84288 -67.728485 
L 53.853042 -71.028653 
L 54.816928 -71.678384 
L 54.0932 -75.426678 
L 56.098585 -77.3956 
L 56.544886 -78.864799 
L 57.141916 -77.975214 
L 59.74216 -77.774702 
L 61.243187 -79.760067 
L 63.440235 -79.8028 
L 70.768265 -72.42235 
L 70.768265 -69.41253 
L 72.169308 -69.492517 
L 74.517382 -71.89095 
L 77.62336 -67.690141 
L 83.341594 -65.408947 
L 86.293767 -61.554375 
L 90.913714 -59.09842 
L 92.665525 -54.916237 
L 96.611624 -52.182538 
L 93.109368 -48.026646 
L 92.859048 -42.197671 
L 94.293973 -41.228577 
L 92.860728 -37.817541 
L 90.925663 -35.641735 
L 90.846021 -34.340725 
L 87.440657 -31.402252 
L 86.423843 -31.207274 
L 86.612226 -32.227032 
L 85.807793 -32.523804 
L 86.005633 -30.976929 
L 80.349541 -28.1972 
L 73.60956 -30.372179 
L 69.474739 -28.501615 
L 67.268485 -29.417969 
L 67.508214 -30.181483 
L 63.059411 -31.374647 
L 60.574147 -33.698956 
L 54.287635 -33.486559 
L 52.306908 -36.444072 
L 51.129355 -36.91426 
L 49.395766 -39.297999 
z
" style="stroke: #dd0000; stroke-width: 0.5"/>
    </defs>
    <g clip-path="url(#pcbff75362e)">
     <use xlink:href="#mee503d935b" x="0" y="108" style="fill: #ff6b6b; stroke: #dd0000; stroke-width: 0.5"/>
    </g>
   </g>
  </g>
 </g>
 <defs>
  <clipPath id="pcbff75362e">
   <rect x="0" y="0" width="145.679725" height="108"/>
  </clipPath>
 </defs>
</svg>
