<?xml version="1.0" encoding="utf-8" standalone="no"?>
<!DOCTYPE svg PUBLIC "-//W3C//DTD SVG 1.1//EN"
  "http://www.w3.org/Graphics/SVG/1.1/DTD/svg11.dtd">
<svg xmlns:xlink="http://www.w3.org/1999/xlink" width="168.281367pt" height="108pt" viewBox="0 0 168.281367 108" xmlns="http://www.w3.org/2000/svg" version="1.1">
 <metadata>
  <rdf:RDF xmlns:dc="http://purl.org/dc/elements/1.1/" xmlns:cc="http://creativecommons.org/ns#" xmlns:rdf="http://www.w3.org/1999/02/22-rdf-syntax-ns#">
   <cc:Work>
    <dc:type rdf:resource="http://purl.org/dc/dcmitype/StillImage"/>
    <dc:date>2025-09-05T15:49:30.330490</dc:date>
    <dc:format>image/svg+xml</dc:format>
    <dc:creator>
     <cc:Agent>
      <dc:title>Matplotlib v3.10.3, https://matplotlib.org/</dc:title>
     </cc:Agent>
    </dc:creator>
   </cc:Work>
  </rdf:RDF>
 </metadata>
 <defs>
  <style type="text/css">*{stroke-linejoin: round; stroke-linecap: butt}</style>
 </defs>
 <g id="figure_1">
  <g id="patch_1">
   <path d="M 0 108 
L 168.281367 108 
L 168.281367 0 
L 0 0 
z
" style="fill: #ffffff"/>
  </g>
  <g id="axes_1">
   <g id="PatchCollection_1">
    <path d="M 114.253608 56.970813 
L 115.186073 56.53534 
L 116.338626 54.452487 
L 116.434513 52.628999 
L 115.983405 51.686687 
L 116.504655 50.681608 
L 118.53176 50.170146 
L 119.632185 49.038185 
L 118.525969 48.861093 
L 117.923632 47.656442 
L 118.305241 45.307944 
L 118.197772 44.166073 
L 117.673944 43.975765 
L 117.783985 43.034118 
L 118.78402 41.424396 
L 117.798144 39.624367 
L 119.469375 38.894842 
L 120.547925 37.666407 
L 119.670477 35.455354 
L 118.243461 34.384849 
L 118.488642 32.899362 
L 117.442275 31.434361 
L 116.268484 31.601543 
L 115.953157 30.087643 
L 117.426827 30.850868 
L 118.219651 30.730603 
L 119.083258 31.557267 
L 120.924061 31.31806 
L 122.027704 32.173802 
L 122.655788 30.636111 
L 124.556116 32.18173 
L 125.916527 34.252027 
L 126.194527 37.427853 
L 126.779493 38.787793 
L 126.396595 41.023954 
L 127.34322 42.577501 
L 128.096786 42.771121 
L 128.58265 44.03788 
L 126.416545 44.068275 
L 126.087058 45.683285 
L 124.810306 47.751599 
L 125.655258 51.159368 
L 125.971868 55.240826 
L 126.565196 56.306044 
L 127.950706 56.456046 
L 129.326565 57.66069 
L 134.078347 63.71035 
L 134.433574 65.222275 
L 133.685799 67.044113 
L 134.036518 68.612858 
L 133.691589 72.609401 
L 132.006841 73.434747 
L 131.135513 73.240469 
L 129.624515 75.776641 
L 130.734596 77.777553 
L 130.701777 79.399167 
L 130.264821 79.598068 
L 129.213947 79.43485 
L 129.539567 77.667863 
L 128.214553 77.075783 
L 125.231814 74.090265 
L 125.095392 72.721079 
L 124.028422 71.634718 
L 126.095427 67.846327 
L 125.700948 63.23259 
L 124.718926 62.028604 
L 122.892606 62.717822 
L 120.835576 62.682804 
L 120.36516 63.399113 
L 118.094804 59.940462 
L 117.223477 59.07217 
L 116.348924 59.874384 
L 115.566399 58.404754 
L 114.874612 58.127217 
L 114.917083 57.293943 
z
" clip-path="url(#pc1a1fa8fb0)" style="fill: #eeeeee; stroke: #000000; stroke-width: 0.3"/>
    <path d="M 126.660442 47.25203 
L 126.898543 46.766999 
L 127.32327 47.022075 
L 126.866371 47.560627 
z
" clip-path="url(#pc1a1fa8fb0)" style="fill: #eeeeee; stroke: #000000; stroke-width: 0.3"/>
    <path d="M 125.964148 46.837048 
L 126.483473 46.683082 
L 126.381795 47.228245 
z
" clip-path="url(#pc1a1fa8fb0)" style="fill: #eeeeee; stroke: #000000; stroke-width: 0.3"/>
    <path d="M 93.46004 1.498277 
L 93.960705 -1.509044 
L 96.007113 -1.42248 
L 97.689284 -2.646286 
L 99.611492 -5.728279 
L 100.046517 -5.738195 
L 100.362168 -7.250113 
L 102.650219 -9.023053 
L 102.852281 -9.673941 
L 102.810458 -10.915592 
L 100.711922 -11.139608 
L 100.259525 -11.727064 
L 100.924283 -13.020255 
L 100.23668 -12.887433 
L 100.834192 -14.209043 
L 102.865799 -14.96434 
L 103.198498 -16.64477 
L 102.632841 -17.624082 
L 102.844884 -19.767068 
L 102.262814 -20.965766 
L 101.128281 -21.530091 
L 100.665585 -23.188053 
L 101.646965 -23.09686 
L 102.509283 -23.656562 
L 122.576631 -23.549513 
L 145.271174 -10.484749 
L 145.614813 -8.768642 
L 144.899858 -8.138233 
L 144.986088 -7.495931 
L 145.666294 -7.408043 
L 146.056271 -6.587985 
L 155.048205 0.018072 
L 155.038572 1.09045 
L 154.385421 1.475484 
L 154.234927 2.314237 
L 154.597731 2.621747 
L 152.333235 8.753176 
L 153.179956 11.19451 
L 153.963328 11.408359 
L 155.452559 13.051526 
L 155.454078 13.712331 
L 156.601276 13.886118 
L 157.156634 14.800835 
L 157.118123 15.552174 
L 155.749998 16.773366 
L 155.281797 20.060211 
L 155.749998 19.439993 
L 156.470545 20.119532 
L 156.537934 21.256429 
L 155.452559 23.167037 
L 155.915186 25.754575 
L 157.156634 27.086594 
L 156.507026 26.679707 
L 156.129016 26.936739 
L 156.771533 27.189616 
L 156.813082 28.377502 
L 157.252908 28.178224 
L 157.717559 28.792196 
L 157.241756 30.44473 
L 157.760634 30.427038 
L 158.322069 31.846465 
L 158.048447 32.345971 
L 158.693996 32.850681 
L 158.009936 34.254501 
L 158.857665 33.915253 
L 159.842713 35.389832 
L 160.058572 34.82685 
L 160.76138 35.062035 
L 160.686388 35.710871 
L 161.380585 35.87373 
L 161.380585 35.25871 
L 162.107209 36.26657 
L 162.594163 35.895584 
L 162.655475 37.012705 
L 159.986003 39.163127 
L 156.812783 40.310945 
L 155.348122 41.436953 
L 153.062966 41.4429 
L 150.547431 43.014291 
L 149.080192 42.142693 
L 147.096853 42.186304 
L 146.342639 43.782146 
L 144.180394 44.970934 
L 142.137847 44.684804 
L 141.457641 43.98237 
L 140.135847 44.03788 
L 138.925376 44.982832 
L 136.272764 44.855956 
L 136.075846 44.070922 
L 133.948357 43.014291 
L 132.391027 44.240086 
L 128.58265 44.03788 
L 128.096786 42.771121 
L 127.34322 42.577501 
L 126.396595 41.023954 
L 126.779493 38.787793 
L 126.194527 37.427853 
L 125.916527 34.252027 
L 124.556116 32.18173 
L 122.655788 30.636111 
L 122.027704 32.173802 
L 120.924061 31.31806 
L 119.083258 31.557267 
L 118.219651 30.730603 
L 113.349137 29.234542 
L 112.759987 28.503035 
L 109.737996 27.978352 
L 109.728986 27.152347 
L 108.085426 27.027459 
L 107.25335 25.688004 
L 106.096937 24.943941 
L 104.381623 25.130284 
L 103.645105 24.709357 
L 100.420405 18.60881 
L 99.504022 15.751491 
L 98.23628 14.092876 
L 95.846233 12.362225 
L 94.716202 10.148531 
L 94.408601 8.415903 
L 95.257407 6.51213 
z
" clip-path="url(#pc1a1fa8fb0)" style="fill: #eeeeee; stroke: #000000; stroke-width: 0.3"/>
    <path d="M 154.894666 7.854066 
L 155.452559 7.392027 
L 155.660816 6.602179 
L 156.302318 9.630433 
L 156.828281 9.656973 
L 156.813082 9.193885 
L 157.092788 10.456182 
L 156.874898 11.361532 
L 156.302318 10.329222 
L 156.221747 10.791785 
L 154.945337 9.814104 
z
" clip-path="url(#pc1a1fa8fb0)" style="fill: #eeeeee; stroke: #000000; stroke-width: 0.3"/>
    <path d="M 157.713001 4.65567 
L 157.840694 3.845017 
L 158.571371 3.539067 
L 158.293695 3.543229 
L 157.755566 3.228961 
L 158.354497 3.320531 
L 157.968387 1.30742 
L 158.824223 1.969267 
L 159.038563 1.351651 
L 158.665622 4.609885 
z
" clip-path="url(#pc1a1fa8fb0)" style="fill: #eeeeee; stroke: #000000; stroke-width: 0.3"/>
    <path d="M 157.364891 20.841211 
L 159.285835 18.872849 
L 159.271651 19.617424 
L 158.834864 20.639849 
L 157.629903 21.098767 
z
" clip-path="url(#pc1a1fa8fb0)" style="fill: #eeeeee; stroke: #000000; stroke-width: 0.3"/>
    <path d="M 157.291973 4.531332 
L 157.769687 4.891904 
L 157.817195 5.051918 
L 157.540241 4.974101 
z
" clip-path="url(#pc1a1fa8fb0)" style="fill: #eeeeee; stroke: #000000; stroke-width: 0.3"/>
    <path d="M 158.08484 21.774073 
L 158.084865 21.503052 
L 158.699369 21.231852 
z
" clip-path="url(#pc1a1fa8fb0)" style="fill: #eeeeee; stroke: #000000; stroke-width: 0.3"/>
    <path d="M 155.043927 6.979034 
L 155.189938 7.482005 
L 155.044288 7.49517 
z
" clip-path="url(#pc1a1fa8fb0)" style="fill: #eeeeee; stroke: #000000; stroke-width: 0.3"/>
    <path d="M -19.922633 -4.788671 
L -19.309275 -6.320358 
L -17.627745 -7.522362 
L -16.350987 -6.311107 
L -14.994442 -6.66398 
L -15.495742 -7.126543 
L -14.752475 -8.840008 
L -16.351634 -9.685175 
L -15.785977 -10.742465 
L -16.667603 -11.844682 
L -17.327859 -11.630584 
L -16.744824 -13.126646 
L -17.107131 -15.064126 
L -15.924977 -14.518298 
L -14.789796 -15.06809 
L -14.018211 -14.518957 
L -11.546435 -15.062803 
L -11.294176 -16.561505 
L -11.747856 -17.913511 
L -11.376546 -17.652495 
L -10.468532 -18.290168 
L -9.396419 -17.689496 
L -8.128677 -15.404436 
L -8.372574 -14.791212 
L -5.322265 -14.352434 
L -3.552251 -16.551595 
L -2.537416 -14.87183 
L -2.913234 -14.189216 
L -1.392584 -13.984369 
L -0.49358 -14.902884 
L -1.031567 -15.734842 
L -0.427293 -17.333323 
L 0.520614 -17.768131 
L 0.841091 -19.178288 
L 0.318552 -19.652749 
L 0.930541 -20.05782 
L 1.0837 -20.948587 
L 0.486512 -23.416691 
L 1.097859 -26.117397 
L 0.043118 -27.117853 
L -0.958847 -27.049792 
L -1.359117 -28.190999 
L -3.003966 -28.646292 
L -2.4441 -29.620982 
L -2.754925 -31.215499 
L -2.29416 -32.200099 
L -1.480103 -33.408708 
L 0.093957 -33.93141 
L 0.96143 -35.798509 
L -0.191764 -37.185207 
L -0.382892 -38.468487 
L -1.053446 -38.857209 
L -3.231133 -39.130948 
L -4.79586 -38.165842 
L -7.244473 -37.994032 
L -6.615107 -38.512104 
L -7.372533 -40.141314 
L -7.169824 -42.106543 
L -6.345469 -43.77673 
L 0.742632 -43.591704 
L 1.547037 -44.082022 
L 2.808989 -43.165482 
L 3.383014 -43.488286 
L 3.603743 -42.787834 
L 5.597381 -43.000283 
L 6.374116 -42.244819 
L 7.280199 -42.592571 
L 8.674072 -42.312055 
L 10.585981 -41.284835 
L 10.934776 -40.538291 
L 11.490134 -41.051409 
L 10.903886 -42.612392 
L 11.033876 -43.700735 
L 11.793233 -44.173215 
L 13.483131 -48.094095 
L 13.398183 -50.141266 
L 14.226405 -52.348189 
L 17.954342 -52.859976 
L 19.583743 -53.669134 
L 21.6649 -53.08878 
L 21.969936 -52.594172 
L 23.463556 -52.743183 
L 24.083265 -52.192899 
L 24.500271 -52.816365 
L 25.892213 -53.181789 
L 26.852997 -52.189594 
L 26.769985 -49.960203 
L 23.403707 -43.770119 
L 23.397269 -39.879142 
L 22.122447 -36.459646 
L 22.613455 -32.37191 
L 21.186763 -28.707748 
L 21.393332 -26.613002 
L 18.644198 -23.470212 
L 16.866781 -22.945535 
L 15.687847 -21.845958 
L 13.699999 -17.892367 
L 11.711511 -16.008414 
L 11.904563 -8.775912 
L 9.952754 -4.912849 
L 7.59681 -4.014155 
L 7.130901 -3.017663 
L 5.543323 -2.217424 
L 3.222134 0.826238 
L 2.235611 1.36876 
L 1.283837 0.994078 
L 0.541853 1.281532 
L 0.231033 -0.810574 
L 0.971729 -1.639884 
L 0.456905 -2.61325 
L -2.298668 -1.200447 
L -3.727931 -1.488559 
L -3.743379 -0.00109 
L -5.734763 1.275585 
L -7.480002 -0.696255 
L -8.010268 -0.470923 
L -8.989712 -1.750897 
L -9.663479 -1.883719 
L -10.521943 -0.809257 
L -11.996261 -0.513875 
L -12.40168 0.590331 
L -13.209304 0.496497 
L -14.346247 2.134236 
L -15.52553 0.632804 
L -15.611461 -0.695046 
z
" clip-path="url(#pc1a1fa8fb0)" style="fill: #eeeeee; stroke: #000000; stroke-width: 0.3"/>
    <path d="M -12.853946 7.307733 
L -12.793587 6.718959 
L -11.236898 6.652216 
L -11.101759 3.048851 
L -11.639104 2.360956 
L -10.178945 1.524708 
L -9.406718 0.345172 
L -7.772809 -0.139858 
L -7.631872 -0.679734 
L -5.734763 1.275585 
L -3.743379 -0.00109 
L -3.727931 -1.488559 
L -2.298668 -1.200447 
L 0.456905 -2.61325 
L 0.971729 -1.639884 
L 0.231033 -0.810574 
L 0.541853 1.281532 
L 1.283837 0.994078 
L 2.235611 1.36876 
L 3.222134 0.826238 
L 5.543323 -2.217424 
L 7.130901 -3.017663 
L 7.59681 -4.014155 
L 9.952754 -4.912849 
L 11.904563 -8.775912 
L 11.711511 -16.008414 
L 13.699999 -17.892367 
L 15.687847 -21.845958 
L 16.866781 -22.945535 
L 18.644198 -23.470212 
L 21.393332 -26.613002 
L 21.186763 -28.707748 
L 22.613455 -32.37191 
L 22.122447 -36.459646 
L 23.397269 -39.879142 
L 23.403707 -43.770119 
L 26.769985 -49.960203 
L 26.978485 -55.828315 
L 26.327239 -57.630493 
L 27.643243 -58.095696 
L 29.698019 -61.348343 
L 31.725765 -62.761638 
L 34.31402 -62.548032 
L 37.516199 -60.469635 
L 39.018829 -58.187714 
L 40.832279 -58.433039 
L 42.945615 -57.39855 
L 46.223085 -57.410109 
L 49.74703 -56.357289 
L 51.037293 -56.757239 
L 51.54761 -58.563048 
L 52.151877 -58.677866 
L 53.452439 -60.80004 
L 56.666206 -59.311907 
L 57.746681 -60.226957 
L 61.925732 -61.479675 
L 62.793847 -62.158318 
L 62.779688 -62.709926 
L 64.860845 -61.400547 
L 68.453643 -62.134368 
L 68.802432 -63.913586 
L 69.923777 -64.32741 
L 72.209574 -63.01555 
L 73.999214 -63.452174 
L 75.893751 -62.231507 
L 77.368711 -62.531511 
L 78.163465 -62.168069 
L 79.449868 -63.227999 
L 80.87077 -62.771881 
L 83.62506 -60.571563 
L 83.80074 -59.343792 
L 85.304976 -59.051052 
L 85.527318 -58.214146 
L 87.593027 -57.294474 
L 89.921301 -59.076332 
L 92.821988 -57.712594 
L 94.293405 -59.815108 
L 95.295376 -59.63636 
L 96.404811 -59.089382 
L 96.34947 -57.892333 
L 97.236886 -57.507747 
L 98.849563 -55.253575 
L 100.941013 -54.687435 
L 101.051701 -53.059376 
L 102.321374 -53.455528 
L 102.897971 -52.27484 
L 103.251915 -52.465148 
L 103.336857 -51.655997 
L 102.302072 -49.495332 
L 102.984208 -48.203127 
L 102.094855 -45.592949 
L 103.098756 -44.870029 
L 103.697874 -45.339203 
L 104.24101 -44.602735 
L 105.002621 -44.683685 
L 105.587263 -43.40552 
L 100.648537 -37.879054 
L 99.157811 -37.222872 
L 98.634625 -35.769437 
L 97.342425 -35.23187 
L 97.299954 -33.145711 
L 95.821775 -30.423196 
L 94.897679 -24.022645 
L 95.042469 -21.082726 
L 92.896961 -19.354727 
L 92.256655 -18.173867 
L 92.283678 -15.907969 
L 90.611805 -14.666318 
L 90.555176 -13.858158 
L 90.767536 -12.999111 
L 91.622139 -12.409672 
L 91.41235 -11.970235 
L 92.905006 -10.480784 
L 92.783054 -5.025186 
L 93.557858 -3.788823 
L 94.002535 -1.173357 
L 93.46004 1.498277 
L 95.257407 6.51213 
L 94.408601 8.415903 
L 94.79214 10.399636 
L 95.846233 12.362225 
L 98.23628 14.092876 
L 99.504022 15.751491 
L 102.353552 22.430902 
L 90.754025 24.278513 
L 90.778476 26.085812 
L 87.412198 29.322429 
L 88.430252 30.002396 
L 89.566722 32.646934 
L 88.766177 35.381341 
L 89.573795 38.089323 
L 88.669648 39.31577 
L 87.461107 43.782146 
L 88.379737 45.950911 
L 89.894272 46.714795 
L 91.66268 49.18687 
L 94.555322 49.661325 
L 94.397014 48.315924 
L 96.4209 47.749617 
L 96.31472 56.071454 
L 95.288297 55.851409 
L 95.610704 54.95602 
L 95.020589 54.599183 
L 92.590643 55.951189 
L 91.406553 55.689509 
L 89.625923 52.453224 
L 88.59757 52.426792 
L 87.849795 50.097456 
L 84.960372 49.116162 
L 84.325209 48.442141 
L 82.964804 48.6417 
L 81.610824 46.265454 
L 80.449262 45.543852 
L 80.112702 44.012772 
L 79.139049 44.17863 
L 78.665413 46.183513 
L 77.231641 46.847617 
L 75.346114 46.200693 
L 72.647171 46.144524 
L 70.407705 45.031066 
L 69.623891 45.335699 
L 68.685953 44.476652 
L 68.470373 41.616034 
L 64.748227 42.455254 
L 63.368514 43.321571 
L 62.141953 42.923105 
L 62.753948 42.15525 
L 62.618808 41.011397 
L 61.085288 40.64729 
L 61.022868 39.854328 
L 60.320782 39.561594 
L 59.27634 40.552798 
L 56.924256 40.121296 
L 54.174474 41.025936 
L 50.978092 40.642009 
L 49.338392 41.96626 
L 48.889208 39.426789 
L 49.848061 38.84462 
L 49.810092 36.333563 
L 48.854458 33.539024 
L 47.104717 31.784587 
L 46.563511 30.180153 
L 47.509494 24.10472 
L 46.326693 21.172729 
L 46.99274 17.799985 
L 46.519752 16.607897 
L 38.646872 16.627059 
L 39.213176 14.258735 
L 37.395218 14.275256 
L 37.238199 14.808526 
L 32.428492 14.808526 
L 32.37444 17.861441 
L 31.393707 18.466736 
L 31.393066 21.202466 
L 26.168931 20.756425 
L 26.11359 21.174053 
L 23.702304 21.333307 
L 23.563946 21.88838 
L 22.130815 21.474057 
L 20.463445 21.81966 
L 18.693748 19.614553 
L 17.825634 17.533682 
L 16.388002 16.104364 
L 16.55918 14.890468 
L 15.282428 12.931178 
L 14.896312 11.375649 
L 15.025019 9.611961 
L 13.942608 7.778231 
L -2.304458 7.389674 
L -6.046872 7.702894 
L -8.826092 7.216674 
L -9.633598 7.54123 
L -9.906773 8.269808 
L -11.607281 8.734404 
L -11.559362 8.28585 
L -11.936879 8.440519 
z
" clip-path="url(#pc1a1fa8fb0)" style="fill: #eeeeee; stroke: #000000; stroke-width: 0.3"/>
    <path d="M -9.766546 8.020046 
L -9.249543 7.582687 
L -8.213276 7.559989 
z
" clip-path="url(#pc1a1fa8fb0)" style="fill: #eeeeee; stroke: #000000; stroke-width: 0.3"/>
    <path d="M -16.164298 82.225764 
L -15.930699 80.437953 
L -13.857331 79.622517 
L -12.895265 80.170327 
L -10.874598 80.232441 
L -7.144083 78.419855 
L -5.192275 78.798494 
L -4.933577 79.512169 
L -2.074072 81.441056 
L 25.777024 81.225628 
L 26.955316 82.812224 
L 28.494627 83.843076 
L 33.980031 84.425245 
L 37.498827 84.198589 
L 40.425572 85.327245 
L 42.636726 84.682961 
L 44.040896 85.218872 
L 61.684406 81.798546 
L 66.768253 82.448782 
L 68.155693 83.810039 
L 66.247638 83.773691 
L 63.82606 85.464031 
L 62.494609 84.845514 
L 57.882468 88.180593 
L 55.908132 85.119751 
L 41.477093 87.168245 
L 41.537584 110.470844 
L 35.270943 110.705428 
L 35.291534 151.763515 
L 32.720657 152.459338 
L 32.012775 153.572131 
L 30.83513 153.811344 
L 30.974771 154.70938 
L 29.927757 155.185158 
L 27.595623 154.43316 
L 23.989314 154.829644 
L 22.412676 154.058485 
L 20.641055 153.948795 
L 20.355976 153.412219 
L 19.239456 153.566185 
L 19.344995 152.857146 
L 18.745229 152.071447 
L 19.215005 151.59038 
L 18.879086 150.518558 
L 18.053442 150.546971 
L 17.202058 149.234613 
L 16.059804 149.59145 
L 15.286289 150.759753 
L 15.109961 152.13819 
L 12.659523 152.618591 
L 8.929613 149.220393 
L 6.111788 144.731083 
L 5.696282 142.321494 
L 4.79028 140.720992 
L 5.323852 140.062271 
L 4.931148 138.964919 
L 4.063656 138.419104 
L 4.142707 136.65158 
L 3.279269 134.688422 
L 3.359833 130.292773 
L 0.906332 124.117113 
L 1.246846 122.799671 
L 0.75128 119.749564 
L 1.110031 119.071585 
L 0.600786 116.908101 
L 0.755838 116.326386 
L 0.906332 117.06472 
L 1.342609 116.456465 
L 1.213403 114.205049 
L -5.70373 103.343927 
L -7.072865 99.123624 
L -7.947063 98.293994 
L -11.603887 90.909879 
L -14.207515 88.357493 
L -15.670601 84.845699 
z
" clip-path="url(#pc1a1fa8fb0)" style="fill: #eeeeee; stroke: #000000; stroke-width: 0.3"/>
    <path d="M 47.733442 53.16755 
L 60.315633 53.16755 
L 59.475189 51.813563 
L 60.503542 49.226517 
L 60.027335 47.735743 
L 60.029265 44.442951 
L 60.695953 42.972662 
L 60.109063 39.554324 
L 61.022868 39.854328 
L 61.085288 40.64729 
L 62.618808 41.011397 
L 62.753948 42.15525 
L 62.089184 42.808121 
L 63.091796 43.334787 
L 64.748227 42.455254 
L 68.470373 41.616034 
L 68.685953 44.476652 
L 69.623891 45.335699 
L 70.407705 45.031066 
L 72.647171 46.144524 
L 75.346114 46.200693 
L 77.231641 46.847617 
L 78.665413 46.183513 
L 79.139049 44.17863 
L 80.112702 44.012772 
L 80.449262 45.543852 
L 81.610824 46.265454 
L 82.964804 48.6417 
L 84.325209 48.442141 
L 84.960372 49.116162 
L 87.849795 50.097456 
L 88.59757 52.426792 
L 89.625923 52.453224 
L 91.406553 55.689509 
L 92.590643 55.951189 
L 95.020589 54.599183 
L 95.610704 54.95602 
L 95.288297 55.851409 
L 96.220762 56.08864 
L 96.4209 47.749617 
L 94.397014 48.315924 
L 94.555322 49.661325 
L 91.66268 49.18687 
L 89.894272 46.714795 
L 88.379737 45.950911 
L 87.432148 43.68369 
L 88.669648 39.31577 
L 89.573795 38.089323 
L 88.766177 35.381341 
L 89.566722 32.646934 
L 88.430252 30.002396 
L 87.412198 29.322429 
L 90.778476 26.085812 
L 90.754025 24.278513 
L 102.353552 22.430902 
L 104.106512 25.027864 
L 106.096937 24.943941 
L 107.25335 25.688004 
L 108.085426 27.027459 
L 109.728986 27.152347 
L 109.737996 27.978352 
L 112.759987 28.503035 
L 113.349137 29.234542 
L 115.857269 30.191387 
L 116.268484 31.601543 
L 117.442275 31.434361 
L 118.488642 32.899362 
L 118.243461 34.384849 
L 119.670477 35.455354 
L 120.547925 37.666407 
L 119.469375 38.894842 
L 117.798144 39.624367 
L 118.78402 41.424396 
L 117.783985 43.034118 
L 117.673944 43.975765 
L 118.197772 44.166073 
L 118.305241 45.307944 
L 117.923632 47.656442 
L 118.525969 48.861093 
L 119.632185 49.038185 
L 118.53176 50.170146 
L 116.504655 50.681608 
L 115.983405 51.686687 
L 116.434513 52.628999 
L 116.338626 54.452487 
L 115.186073 56.53534 
L 114.253608 56.970813 
L 114.917083 57.293943 
L 114.874612 58.127217 
L 115.566399 58.404754 
L 116.348924 59.874384 
L 117.223477 59.07217 
L 117.612165 59.640459 
L 99.005935 65.826911 
L 100.22574 69.976097 
L 95.100388 70.137998 
L 91.023015 72.107191 
L 90.555176 72.725708 
L 90.555176 74.821119 
L 89.956693 75.742275 
L 84.077457 78.474706 
L 82.585767 81.054482 
L 79.709855 84.373041 
L 77.123207 85.569098 
L 74.084162 84.377005 
L 72.294522 85.119751 
L 70.780952 83.921053 
L 68.627393 84.11136 
L 66.768253 82.448782 
L 64.573188 81.881152 
L 61.684406 81.798546 
L 56.46156 82.832044 
L 48.53205 75.816946 
L 47.743734 73.26162 
z
" clip-path="url(#pc1a1fa8fb0)" style="fill: #eeeeee; stroke: #000000; stroke-width: 0.3"/>
    <path d="M -16.052819 71.425517 
L -14.455665 69.892142 
L -14.054854 67.435719 
L -13.501525 67.023628 
L -12.343182 62.323588 
L -12.358885 60.141377 
L -11.818732 58.775542 
L -11.277563 58.626211 
L -11.197503 55.88153 
L -8.523074 53.045271 
L -8.556517 51.985904 
L -7.067797 50.611744 
L -5.733119 50.411424 
L -4.195752 48.354605 
L -3.24668 45.427813 
L -2.908701 41.097724 
L -3.625194 38.863475 
L -3.374373 38.31142 
L -4.894506 36.576158 
L -8.202324 28.183422 
L -8.227155 27.826483 
L -7.641399 26.895117 
L -7.329259 26.758791 
L -8.098453 28.118904 
L -6.784037 26.13753 
L -6.946692 26.452847 
L -5.812669 26.017342 
L -5.820272 23.408986 
L -9.113793 16.496264 
L -9.216256 14.235251 
L -10.977572 12.44728 
L -12.598561 9.020099 
L -9.316353 8.605393 
L -7.028246 7.484173 
L 13.707079 7.680427 
L 15.025019 9.611961 
L 14.896312 11.375649 
L 15.282428 12.931178 
L 16.55918 14.890468 
L 16.388002 16.104364 
L 17.825634 17.533682 
L 18.693748 19.614553 
L 20.463445 21.81966 
L 22.130815 21.474057 
L 23.563946 21.88838 
L 23.702304 21.333307 
L 26.11359 21.174053 
L 26.168931 20.756425 
L 31.393066 21.202466 
L 31.393707 18.466736 
L 32.37444 17.861441 
L 32.428492 14.808526 
L 37.238199 14.808526 
L 37.395218 14.275256 
L 39.213176 14.258735 
L 38.646872 16.627059 
L 46.519752 16.607897 
L 46.99274 17.799985 
L 46.326693 21.172729 
L 47.509494 24.10472 
L 46.563511 30.180153 
L 47.104717 31.784587 
L 48.854458 33.539024 
L 49.810092 36.333563 
L 49.848061 38.84462 
L 48.889208 39.426789 
L 49.338392 41.96626 
L 50.978092 40.642009 
L 54.174474 41.025936 
L 56.924256 40.121296 
L 59.27634 40.552798 
L 60.109063 39.554324 
L 60.695953 42.972662 
L 60.029265 44.442951 
L 60.027335 47.735743 
L 60.503542 49.226517 
L 59.475189 51.813563 
L 60.315633 53.16755 
L 47.733442 53.16755 
L 47.757893 73.399729 
L 48.802977 76.160568 
L 49.936221 76.646257 
L 52.622941 79.81746 
L 56.46156 82.832044 
L 44.040896 85.218872 
L 42.636726 84.682961 
L 40.425572 85.327245 
L 37.498827 84.198589 
L 33.980031 84.425245 
L 28.494627 83.843076 
L 26.955316 82.812224 
L 25.777024 81.225628 
L -2.074072 81.441056 
L -4.933577 79.512169 
L -5.192275 78.798494 
L -7.144083 78.419855 
L -10.874598 80.232441 
L -12.895265 80.170327 
L -13.857331 79.622517 
L -15.912966 80.262082 
L -15.51469 75.40231 
z
" clip-path="url(#pc1a1fa8fb0)" style="fill: #eeeeee; stroke: #000000; stroke-width: 0.3"/>
    <path d="M -14.346247 2.134236 
L -13.238263 0.525569 
L -12.40168 0.590331 
L -11.996261 -0.513875 
L -10.521943 -0.809257 
L -9.663479 -1.883719 
L -8.989712 -1.750897 
L -7.72068 -0.322903 
L -9.406718 0.345172 
L -10.178945 1.524708 
L -11.639104 2.360956 
L -11.101759 3.048851 
L -11.236898 6.652216 
L -13.095142 6.88992 
L -13.489365 5.959589 
L -12.978594 4.993876 
L -14.262096 2.302793 
L -13.780142 2.520357 
L -13.552707 2.104602 
z
" clip-path="url(#pc1a1fa8fb0)" style="fill: #eeeeee; stroke: #000000; stroke-width: 0.3"/>
    <path d="M -16.261705 75.538457 
L -16.151067 75.574837 
L -16.034252 76.851903 
z
" clip-path="url(#pc1a1fa8fb0)" style="fill: #eeeeee; stroke: #000000; stroke-width: 0.3"/>
    <path d="M 35.270943 110.705428 
L 41.537584 110.470844 
L 41.477093 87.168245 
L 55.908132 85.119751 
L 57.882468 88.180593 
L 62.494609 84.845514 
L 63.82606 85.464031 
L 66.247638 83.773691 
L 68.155693 83.810039 
L 68.126086 85.133625 
L 72.395553 91.016769 
L 72.444462 92.180442 
L 73.732795 94.954503 
L 74.654327 95.210896 
L 74.708379 95.684692 
L 77.209761 97.449697 
L 80.247518 98.508304 
L 80.66227 101.083457 
L 83.338044 101.168704 
L 83.141773 104.762817 
L 85.157932 107.836217 
L 89.051257 108.444817 
L 91.685201 109.408932 
L 91.696465 110.834951 
L 93.623822 111.894881 
L 91.685201 112.13277 
L 91.010786 113.519794 
L 90.303557 113.85284 
L 87.09687 114.561886 
L 83.68362 118.506225 
L 82.776888 118.480452 
L 82.408798 119.401614 
L 79.784504 120.451634 
L 78.786717 121.689979 
L 77.989715 125.186627 
L 76.072009 126.421008 
L 75.282404 127.534466 
L 71.945086 128.271919 
L 71.738516 129.986708 
L 70.194697 133.843159 
L 69.392546 134.429293 
L 64.452208 135.146266 
L 62.421889 134.688991 
L 61.454027 133.88413 
L 59.843286 133.90528 
L 56.944847 131.686299 
L 54.276153 131.796654 
L 53.11781 132.958346 
L 52.282515 136.25576 
L 51.252873 137.601814 
L 49.404673 138.493903 
L 48.218012 140.224549 
L 46.492722 140.611781 
L 46.378821 141.419283 
L 45.770046 141.793958 
L 41.057516 141.390869 
L 39.706756 141.977661 
L 39.17456 139.429598 
L 40.645018 137.115466 
L 39.377917 133.848447 
L 39.493748 132.873099 
L 37.677726 130.094422 
L 35.290251 128.299674 
z
" clip-path="url(#pc1a1fa8fb0)" style="fill: #eeeeee; stroke: #000000; stroke-width: 0.3"/>
    <path d="M 68.126086 85.133625 
L 68.155693 83.810039 
L 69.753887 84.246165 
L 70.780952 83.921053 
L 72.294522 85.119751 
L 74.084162 84.377005 
L 77.123207 85.569098 
L 79.123601 84.861376 
L 82.585767 81.054482 
L 84.077457 78.474706 
L 90.254001 75.448217 
L 90.555176 72.725708 
L 91.023015 72.107191 
L 95.100388 70.137998 
L 100.137897 70.01178 
L 100.177155 72.347062 
L 105.515832 72.489136 
L 106.416125 73.376597 
L 108.322244 73.732111 
L 109.564888 75.081476 
L 111.932096 75.227514 
L 114.306377 76.173783 
L 114.677046 76.87093 
L 116.153936 76.697137 
L 115.283891 78.318093 
L 116.484711 80.942145 
L 115.955087 81.918817 
L 116.502724 82.691952 
L 115.897816 84.953228 
L 116.069635 86.765156 
L 116.616308 87.377056 
L 115.54516 88.55197 
L 115.743044 90.078427 
L 114.428646 90.460372 
L 114.364296 91.232191 
L 115.452815 92.055555 
L 114.876542 94.486652 
L 115.305129 94.72256 
L 115.226937 95.831389 
L 115.996275 95.67147 
L 116.554211 96.533823 
L 116.395255 98.11843 
L 115.635899 98.572407 
L 114.306377 101.314083 
L 113.122294 101.769377 
L 113.180854 103.900471 
L 112.239379 105.164589 
L 112.907997 106.313065 
L 105.69602 113.241599 
L 102.887679 112.506122 
L 99.756288 112.905247 
L 96.169282 111.538044 
L 93.666616 111.921971 
L 91.696465 110.834951 
L 91.685201 109.408932 
L 89.051257 108.444817 
L 85.157932 107.836217 
L 83.141773 104.762817 
L 83.338044 101.168704 
L 80.66227 101.083457 
L 80.247518 98.508304 
L 77.209761 97.449697 
L 74.708379 95.684692 
L 74.654327 95.210896 
L 73.732795 94.954503 
L 72.444462 92.180442 
L 72.395553 91.016769 
z
" clip-path="url(#pc1a1fa8fb0)" style="fill: #eeeeee; stroke: #000000; stroke-width: 0.3"/>
    <path d="M 99.005935 65.826911 
L 117.612165 59.640459 
L 120.36516 63.399113 
L 120.835576 62.682804 
L 122.892606 62.717822 
L 124.718926 62.028604 
L 125.80262 63.435461 
L 126.119878 67.679145 
L 124.028422 71.634718 
L 125.095392 72.721079 
L 125.231814 74.090265 
L 128.214553 77.075783 
L 129.539567 77.667863 
L 129.213947 79.43485 
L 130.620689 79.559744 
L 130.5351 76.819391 
L 129.624515 75.776641 
L 131.135513 73.240469 
L 132.006841 73.434747 
L 133.691589 72.609401 
L 134.036518 68.612858 
L 133.685799 67.044113 
L 134.433574 65.222275 
L 134.078347 63.71035 
L 129.326565 57.66069 
L 127.950706 56.456046 
L 126.565196 56.306044 
L 125.971868 55.240826 
L 125.655258 51.159368 
L 124.780705 48.039711 
L 126.416545 44.068275 
L 132.11238 44.288326 
L 133.948357 43.014291 
L 136.075846 44.070922 
L 136.272764 44.855956 
L 138.925376 44.982832 
L 140.135847 44.03788 
L 141.457641 43.98237 
L 142.137847 44.684804 
L 144.180394 44.970934 
L 146.342639 43.782146 
L 147.096853 42.186304 
L 149.080192 42.142693 
L 150.547431 43.014291 
L 153.062966 41.4429 
L 155.191744 41.484535 
L 156.812783 40.310945 
L 158.601782 39.939575 
L 163.11405 37.031439 
L 163.089723 37.598065 
L 164.013465 38.369174 
L 162.957472 38.849952 
L 163.797605 39.35362 
L 163.024357 40.087786 
L 163.089218 40.608628 
L 163.46013 40.459815 
L 163.089218 41.569136 
L 162.107209 42.397999 
L 162.835863 42.833504 
L 162.597706 44.527143 
L 163.174347 45.735323 
L 163.203736 48.072069 
L 162.744651 48.44982 
L 163.428717 49.239669 
L 162.912884 49.968112 
L 163.434794 50.153343 
L 163.962793 51.663829 
L 162.49383 52.787715 
L 162.945312 53.298147 
L 163.049693 52.8257 
L 163.641532 53.002606 
L 163.216911 56.422658 
L 163.641532 56.771791 
L 163.293933 57.227071 
L 163.986099 59.75582 
L 163.288864 60.603416 
L 163.618226 61.235085 
L 164.270874 60.71893 
L 164.580977 61.283997 
L 164.495849 61.725224 
L 163.896917 61.725224 
L 163.854353 63.172751 
L 164.297218 62.314222 
L 164.925544 62.177902 
L 165.181434 62.521313 
L 164.673708 62.971907 
L 165.094786 62.907388 
L 165.215381 64.059374 
L 164.457344 65.222281 
L 163.939482 65.010516 
L 164.754273 65.930955 
L 164.112777 65.796196 
L 164.368162 66.411734 
L 163.222988 66.783238 
L 163.127729 67.109475 
L 163.891849 66.99813 
L 164.179662 67.435195 
L 163.557929 69.091891 
L 160.339798 72.269993 
L 160.774555 72.252826 
L 159.887811 73.761227 
L 158.58657 74.269582 
L 158.739598 74.825799 
L 159.038563 75.087 
L 154.513114 77.887869 
L 154.272423 78.629324 
L 151.61016 78.896247 
L 148.558737 80.571152 
L 147.985645 79.951977 
L 148.279031 80.563352 
L 142.435629 83.455798 
L 141.156685 85.205631 
L 140.558258 84.365835 
L 140.214705 84.343981 
L 141.11412 85.42416 
L 137.974025 88.683954 
L 137.566627 90.144493 
L 136.51216 89.564337 
L 136.691539 90.822465 
L 135.943122 90.883863 
L 135.80023 90.245954 
L 134.128589 91.209065 
L 129.592498 96.027732 
L 128.056145 97.040272 
L 126.478754 95.329984 
L 126.021188 95.243088 
L 127.418199 96.731202 
L 126.992557 97.171387 
L 127.401474 98.886362 
L 126.656607 98.882193 
L 127.204867 99.361929 
L 126.563372 100.318275 
L 127.03664 100.899473 
L 126.737682 101.373481 
L 127.183585 101.266297 
L 128.008513 102.472911 
L 128.761487 102.582179 
L 129.03714 103.913673 
L 129.550949 104.092664 
L 128.905394 105.01779 
L 129.252999 106.365934 
L 129.593513 105.449651 
L 129.550949 106.719229 
L 130.490394 108.425873 
L 130.706254 113.185744 
L 131.256544 113.819497 
L 131.551448 111.465571 
L 131.921345 111.379199 
L 132.024213 112.68416 
L 132.236523 111.846449 
L 131.850407 115.113007 
L 132.151899 116.75565 
L 132.577031 116.549602 
L 131.782507 118.225549 
L 131.233736 121.877141 
L 131.179012 121.427589 
L 130.922113 121.418223 
L 130.872451 123.26171 
L 131.169896 122.493721 
L 131.704981 122.722142 
L 131.765789 122.097237 
L 132.086533 122.228876 
L 131.89652 124.136364 
L 129.46582 127.311346 
L 118.075944 131.779845 
L 118.337407 131.495749 
L 115.557582 133.359529 
L 114.401262 135.546427 
L 113.806385 136.077671 
L 113.340208 135.955916 
L 113.092425 136.177054 
L 115.369088 138.121485 
L 116.066323 136.780099 
L 115.68426 141.685662 
L 110.83263 141.646597 
L 110.562992 136.33836 
L 109.807496 136.007954 
L 109.537217 135.080188 
L 110.097083 133.954179 
L 110.039812 126.193694 
L 109.192289 123.044958 
L 107.182238 120.015502 
L 107.23662 118.098507 
L 105.634883 113.356576 
L 112.907997 106.313065 
L 112.239379 105.164589 
L 113.180854 103.900471 
L 113.122294 101.769377 
L 114.306377 101.314083 
L 115.635899 98.572407 
L 116.395255 98.11843 
L 116.554211 96.533823 
L 115.996275 95.67147 
L 115.226937 95.831389 
L 115.305129 94.72256 
L 114.876542 94.486652 
L 115.452815 92.055555 
L 114.364296 91.232191 
L 114.428646 90.460372 
L 115.743044 90.078427 
L 115.54516 88.55197 
L 116.616308 87.377056 
L 116.069635 86.765156 
L 115.897816 84.953228 
L 116.502724 82.691952 
L 115.955087 81.918817 
L 116.484711 80.942145 
L 115.283891 78.318093 
L 116.153936 76.697137 
L 114.677046 76.87093 
L 114.306377 76.173783 
L 111.932096 75.227514 
L 109.564888 75.081476 
L 108.322244 73.732111 
L 106.416125 73.376597 
L 105.515832 72.489136 
L 100.177155 72.347062 
L 100.116658 69.019252 
z
M 126.660442 47.25203 
L 126.866371 47.560627 
L 127.32327 47.022075 
L 126.898543 46.766999 
z
M 125.964148 46.837048 
L 126.381795 47.228245 
L 126.483473 46.683082 
z
" clip-path="url(#pc1a1fa8fb0)" style="fill: #eeeeee; stroke: #000000; stroke-width: 0.3"/>
    <path d="M 131.510908 109.31302 
L 131.527128 108.610068 
L 131.726767 107.818142 
L 131.858514 108.411308 
z
" clip-path="url(#pc1a1fa8fb0)" style="fill: #eeeeee; stroke: #000000; stroke-width: 0.3"/>
    <path d="M 158.822934 74.368537 
L 159.601462 74.271225 
L 159.178709 75.004566 
z
" clip-path="url(#pc1a1fa8fb0)" style="fill: #eeeeee; stroke: #000000; stroke-width: 0.3"/>
    <path d="M 115.841341 136.284756 
L 116.241642 136.077671 
L 116.108887 136.557925 
z
" clip-path="url(#pc1a1fa8fb0)" style="fill: #eeeeee; stroke: #000000; stroke-width: 0.3"/>
    <path d="M 338.939148 283.821014 
L 339.42863 283.67637 
L 339.340463 283.107142 
L 339.899875 283.16854 
L 339.206693 282.347478 
L 339.86086 282.197623 
L 340.600659 281.121606 
L 341.228475 281.582609 
L 339.931798 282.652385 
L 341.678942 281.879192 
L 341.182362 282.106046 
L 341.522875 282.346435 
L 340.501845 283.908429 
L 340.927487 284.038508 
L 341.16159 283.28821 
L 341.839062 284.105629 
L 343.230494 283.423494 
L 343.320691 283.899062 
L 344.173992 283.02701 
L 344.513491 284.125922 
L 342.993352 284.057241 
L 342.262164 284.50836 
L 343.443315 284.300751 
L 342.875796 284.497433 
L 343.829425 284.911602 
L 343.06429 285.086431 
L 345.495494 285.173327 
L 346.454198 284.349662 
L 347.93785 284.333531 
L 348.821556 283.675328 
L 349.979899 283.943293 
L 349.99054 285.296642 
L 348.669542 285.750356 
L 349.634323 286.137998 
L 348.525132 286.137998 
L 347.600885 285.496444 
L 345.623187 285.566685 
L 346.264689 285.832048 
L 346.097471 286.163489 
L 344.811435 285.916342 
L 345.570492 286.734802 
L 347.582648 287.280611 
L 347.035396 286.65779 
L 348.572254 286.721273 
L 348.747068 287.003285 
L 347.755943 287.280611 
L 348.250998 287.712996 
L 345.83094 287.672415 
L 345.101782 286.519387 
L 344.470927 286.556329 
L 344.955341 287.049595 
L 344.637124 287.581881 
L 343.42811 287.367507 
L 341.919122 286.453308 
L 341.947497 286.993918 
L 341.398726 286.61877 
L 341.44129 287.32068 
L 341.035417 286.78475 
L 341.150949 287.449717 
L 340.66298 287.869091 
L 339.036941 287.645875 
L 339.891257 286.086484 
L 339.298403 285.669188 
L 340.030606 285.173327 
L 339.48285 285.270102 
L 339.035932 284.538013 
L 340.07317 284.257043 
z
" clip-path="url(#pc1a1fa8fb0)" style="fill: #eeeeee; stroke: #000000; stroke-width: 0.3"/>
    <path d="M 341.699714 283.244503 
L 342.638655 282.589945 
L 342.465359 282.939595 
L 343.06429 282.874035 
L 341.888719 283.933409 
z
" clip-path="url(#pc1a1fa8fb0)" style="fill: #eeeeee; stroke: #000000; stroke-width: 0.3"/>
    <path d="M 232.514373 266.568306 
L 233.009428 266.242586 
L 233.620526 266.557379 
L 233.554146 267.034506 
z
" clip-path="url(#pc1a1fa8fb0)" style="fill: #eeeeee; stroke: #000000; stroke-width: 0.3"/>
    <path d="M 223.293224 264.562994 
L 223.869354 264.428753 
L 224.019848 264.890798 
L 223.452833 264.874667 
z
" clip-path="url(#pc1a1fa8fb0)" style="fill: #eeeeee; stroke: #000000; stroke-width: 0.3"/>
    <path d="M 393.496352 217.51217 
L 393.735517 217.674512 
L 393.530299 217.702088 
z
" clip-path="url(#pc1a1fa8fb0)" style="fill: #eeeeee; stroke: #000000; stroke-width: 0.3"/>
    <path d="M 393.457331 212.248114 
L 393.702075 211.850587 
L 393.958979 212.195558 
z
" clip-path="url(#pc1a1fa8fb0)" style="fill: #eeeeee; stroke: #000000; stroke-width: 0.3"/>
    <path d="M 345.707301 286.534476 
L 346.830178 286.937725 
L 345.782299 286.61877 
z
" clip-path="url(#pc1a1fa8fb0)" style="fill: #eeeeee; stroke: #000000; stroke-width: 0.3"/>
    <path d="M 343.829425 284.562993 
L 344.725297 284.300751 
L 344.388837 284.661852 
z
" clip-path="url(#pc1a1fa8fb0)" style="fill: #eeeeee; stroke: #000000; stroke-width: 0.3"/>
    <path d="M 343.021726 282.237168 
L 343.740243 282.416158 
L 343.170701 282.46351 
z
" clip-path="url(#pc1a1fa8fb0)" style="fill: #eeeeee; stroke: #000000; stroke-width: 0.3"/>
    <path d="M 341.398726 283.206001 
L 341.516792 282.732511 
L 342.021984 282.627405 
z
" clip-path="url(#pc1a1fa8fb0)" style="fill: #eeeeee; stroke: #000000; stroke-width: 0.3"/>
    <path d="M 339.139802 280.674132 
L 339.373905 280.55966 
L 339.436233 280.726164 
z
" clip-path="url(#pc1a1fa8fb0)" style="fill: #eeeeee; stroke: #000000; stroke-width: 0.3"/>
    <path d="M 338.282958 285.526622 
L 338.580901 285.348149 
L 339.091161 285.655659 
z
" clip-path="url(#pc1a1fa8fb0)" style="fill: #eeeeee; stroke: #000000; stroke-width: 0.3"/>
    <path d="M 338.075709 281.01338 
L 338.174517 280.963427 
L 338.43598 281.062292 
z
" clip-path="url(#pc1a1fa8fb0)" style="fill: #eeeeee; stroke: #000000; stroke-width: 0.3"/>
    <path d="M 250.309598 71.633126 
L 250.349628 71.605026 
L 250.352162 71.661744 
z
" clip-path="url(#pc1a1fa8fb0)" style="fill: #eeeeee; stroke: #000000; stroke-width: 0.3"/>
    <path d="M 205.313552 43.986532 
L 205.38601 43.891311 
L 205.428574 44.014632 
z
" clip-path="url(#pc1a1fa8fb0)" style="fill: #eeeeee; stroke: #000000; stroke-width: 0.3"/>
    <path d="M 176.898649 79.139239 
L 177.112989 79.120505 
L 177.06941 79.219364 
z
" clip-path="url(#pc1a1fa8fb0)" style="fill: #eeeeee; stroke: #000000; stroke-width: 0.3"/>
    <path d="M 162.046912 113.000513 
L 162.338778 112.871476 
L 162.230848 113.019246 
z
" clip-path="url(#pc1a1fa8fb0)" style="fill: #eeeeee; stroke: #000000; stroke-width: 0.3"/>
    <path d="M 158.243529 107.150054 
L 158.248597 107.132881 
L 158.261262 107.147452 
z
" clip-path="url(#pc1a1fa8fb0)" style="fill: #eeeeee; stroke: #000000; stroke-width: 0.3"/>
   </g>
   <g id="PatchCollection_2">
    <defs>
     <path id="m11380dadc7" d="M 47.733442 -54.83245 
L 60.315633 -54.83245 
L 59.475189 -56.186437 
L 60.503542 -58.773483 
L 60.027335 -60.264257 
L 60.029265 -63.557049 
L 60.695953 -65.027338 
L 60.109063 -68.445676 
L 61.022868 -68.145672 
L 61.085288 -67.35271 
L 62.618808 -66.988603 
L 62.753948 -65.84475 
L 62.089184 -65.191879 
L 63.091796 -64.665213 
L 64.748227 -65.544746 
L 68.470373 -66.383966 
L 68.685953 -63.523348 
L 69.623891 -62.664301 
L 70.407705 -62.968934 
L 72.647171 -61.855476 
L 75.346114 -61.799307 
L 77.231641 -61.152383 
L 78.665413 -61.816487 
L 79.139049 -63.82137 
L 80.112702 -63.987228 
L 80.449262 -62.456148 
L 81.610824 -61.734546 
L 82.964804 -59.3583 
L 84.325209 -59.557859 
L 84.960372 -58.883838 
L 87.849795 -57.902544 
L 88.59757 -55.573208 
L 89.625923 -55.546776 
L 91.406553 -52.310491 
L 92.590643 -52.048811 
L 95.020589 -53.400817 
L 95.610704 -53.04398 
L 95.288297 -52.148591 
L 96.220762 -51.91136 
L 96.4209 -60.250383 
L 94.397014 -59.684076 
L 94.555322 -58.338675 
L 91.66268 -58.81313 
L 89.894272 -61.285205 
L 88.379737 -62.049089 
L 87.432148 -64.31631 
L 88.669648 -68.68423 
L 89.573795 -69.910677 
L 88.766177 -72.618659 
L 89.566722 -75.353066 
L 88.430252 -77.997604 
L 87.412198 -78.677571 
L 90.778476 -81.914188 
L 90.754025 -83.721487 
L 102.353552 -85.569098 
L 104.106512 -82.972136 
L 106.096937 -83.056059 
L 107.25335 -82.311996 
L 108.085426 -80.972541 
L 109.728986 -80.847653 
L 109.737996 -80.021648 
L 112.759987 -79.496965 
L 113.349137 -78.765458 
L 115.857269 -77.808613 
L 116.268484 -76.398457 
L 117.442275 -76.565639 
L 118.488642 -75.100638 
L 118.243461 -73.615151 
L 119.670477 -72.544646 
L 120.547925 -70.333593 
L 119.469375 -69.105158 
L 117.798144 -68.375633 
L 118.78402 -66.575604 
L 117.783985 -64.965882 
L 117.673944 -64.024235 
L 118.197772 -63.833927 
L 118.305241 -62.692056 
L 117.923632 -60.343558 
L 118.525969 -59.138907 
L 119.632185 -58.961815 
L 118.53176 -57.829854 
L 116.504655 -57.318392 
L 115.983405 -56.313313 
L 116.434513 -55.371001 
L 116.338626 -53.547513 
L 115.186073 -51.46466 
L 114.253608 -51.029187 
L 114.917083 -50.706057 
L 114.874612 -49.872783 
L 115.566399 -49.595246 
L 116.348924 -48.125616 
L 117.223477 -48.92783 
L 117.612165 -48.359541 
L 99.005935 -42.173089 
L 100.22574 -38.023903 
L 95.100388 -37.862002 
L 91.023015 -35.892809 
L 90.555176 -35.274292 
L 90.555176 -33.178881 
L 89.956693 -32.257725 
L 84.077457 -29.525294 
L 82.585767 -26.945518 
L 79.709855 -23.626959 
L 77.123207 -22.430902 
L 74.084162 -23.622995 
L 72.294522 -22.880249 
L 70.780952 -24.078947 
L 68.627393 -23.88864 
L 66.768253 -25.551218 
L 64.573188 -26.118848 
L 61.684406 -26.201454 
L 56.46156 -25.167956 
L 48.53205 -32.183054 
L 47.743734 -34.73838 
z
" style="stroke: #dd0000; stroke-width: 0.5"/>
    </defs>
    <g clip-path="url(#pc1a1fa8fb0)">
     <use xlink:href="#m11380dadc7" x="0" y="108" style="fill: #ff6b6b; stroke: #dd0000; stroke-width: 0.5"/>
    </g>
   </g>
  </g>
 </g>
 <defs>
  <clipPath id="pc1a1fa8fb0">
   <rect x="0" y="0" width="168.281367" height="108"/>
  </clipPath>
 </defs>
</svg>
