<?xml version="1.0" encoding="utf-8" standalone="no"?>
<!DOCTYPE svg PUBLIC "-//W3C//DTD SVG 1.1//EN"
  "http://www.w3.org/Graphics/SVG/1.1/DTD/svg11.dtd">
<svg xmlns:xlink="http://www.w3.org/1999/xlink" width="163.369237pt" height="108pt" viewBox="0 0 163.369237 108" xmlns="http://www.w3.org/2000/svg" version="1.1">
 <metadata>
  <rdf:RDF xmlns:dc="http://purl.org/dc/elements/1.1/" xmlns:cc="http://creativecommons.org/ns#" xmlns:rdf="http://www.w3.org/1999/02/22-rdf-syntax-ns#">
   <cc:Work>
    <dc:type rdf:resource="http://purl.org/dc/dcmitype/StillImage"/>
    <dc:date>2025-09-05T15:49:30.345404</dc:date>
    <dc:format>image/svg+xml</dc:format>
    <dc:creator>
     <cc:Agent>
      <dc:title>Matplotlib v3.10.3, https://matplotlib.org/</dc:title>
     </cc:Agent>
    </dc:creator>
   </cc:Work>
  </rdf:RDF>
 </metadata>
 <defs>
  <style type="text/css">*{stroke-linejoin: round; stroke-linecap: butt}</style>
 </defs>
 <g id="figure_1">
  <g id="patch_1">
   <path d="M 0 108 
L 163.369237 108 
L 163.369237 0 
L 0 0 
z
" style="fill: #ffffff"/>
  </g>
  <g id="axes_1">
   <g id="PatchCollection_1">
    <path d="M 106.348823 13.76402 
L 107.399827 13.258429 
L 108.698898 10.840206 
L 108.806975 8.72311 
L 108.29852 7.629072 
L 108.886033 6.462161 
L 111.170834 5.868346 
L 112.411149 4.554122 
L 111.164307 4.348516 
L 110.485398 2.949899 
L 110.915518 0.223259 
L 110.794387 -1.102471 
L 110.203968 -1.323421 
L 110.327998 -2.416687 
L 111.455162 -4.285598 
L 110.343957 -6.375458 
L 112.227642 -7.222447 
L 113.443303 -8.648678 
L 112.45431 -11.215743 
L 110.845885 -12.458615 
L 111.122234 -14.183287 
L 109.942849 -15.884174 
L 108.61984 -15.690074 
L 108.264426 -17.447734 
L 109.925437 -16.561618 
L 110.819049 -16.701248 
L 111.792441 -15.741479 
L 113.867255 -16.019201 
L 115.111199 -15.025673 
L 115.819128 -16.810954 
L 117.961034 -15.016468 
L 119.494387 -12.612824 
L 119.807728 -8.925643 
L 120.467056 -7.346732 
L 120.035483 -4.750517 
L 121.102447 -2.946826 
L 121.95181 -2.722031 
L 122.49944 -1.251305 
L 120.057969 -1.216015 
L 119.686597 0.659034 
L 118.247538 3.060378 
L 119.199904 7.016848 
L 119.556763 11.75548 
L 120.225517 12.992213 
L 121.78716 13.166368 
L 123.337925 14.564977 
L 128.693775 21.588721 
L 129.09416 23.344088 
L 128.251324 25.459268 
L 128.646628 27.280604 
L 128.257851 31.92065 
L 126.358929 32.878889 
L 125.376835 32.653329 
L 123.673751 35.597861 
L 124.924951 37.920949 
L 124.887959 39.803667 
L 124.395456 40.034594 
L 123.21099 39.845096 
L 123.578004 37.793598 
L 122.084549 37.106185 
L 118.72263 33.639954 
L 118.568865 32.05031 
L 117.366257 30.789028 
L 119.696029 26.390651 
L 119.251402 21.034034 
L 118.144541 19.636189 
L 116.086051 20.436382 
L 113.767522 20.395725 
L 113.237304 21.22737 
L 110.67833 17.211826 
L 109.696236 16.203726 
L 108.710506 17.135108 
L 107.828502 15.428846 
L 107.048772 15.106622 
L 107.096642 14.139178 
z
" clip-path="url(#pade963c065)" style="fill: #eeeeee; stroke: #000000; stroke-width: 0.3"/>
    <path d="M 120.332872 2.48037 
L 120.601241 1.917243 
L 121.079961 2.213389 
L 120.564979 2.838656 
z
" clip-path="url(#pade963c065)" style="fill: #eeeeee; stroke: #000000; stroke-width: 0.3"/>
    <path d="M 119.548061 1.998571 
L 120.133406 1.819814 
L 120.018802 2.452756 
z
" clip-path="url(#pade963c065)" style="fill: #eeeeee; stroke: #000000; stroke-width: 0.3"/>
    <path d="M -36.917234 -43.895543 
L -36.849201 -44.579118 
L -35.094619 -44.656608 
L -34.9423 -48.840167 
L -35.547955 -49.638824 
L -33.902173 -50.609719 
L -33.031777 -51.979178 
L -31.190158 -52.542306 
L -31.031305 -53.169109 
L -28.893027 -50.898955 
L -26.648489 -52.381194 
L -26.631077 -54.108166 
L -25.020119 -53.773665 
L -21.914245 -55.41395 
L -21.333974 -54.283857 
L -22.168831 -53.321016 
L -21.818498 -50.892051 
L -20.982189 -51.225788 
L -19.909422 -50.790777 
L -18.797487 -51.420653 
L -16.181218 -54.95439 
L -14.39182 -55.883479 
L -13.866683 -57.04042 
L -11.21124 -58.083818 
L -9.011308 -62.56889 
L -9.228902 -70.965931 
L -6.987627 -73.153228 
L -4.747075 -77.743405 
L -3.418269 -79.02003 
L -1.414899 -79.629188 
L 1.683718 -83.278013 
L 1.450888 -85.710044 
L 3.058948 -89.96419 
L 2.505521 -94.710111 
L 3.942405 -98.680195 
L 3.949661 -103.197677 
L 7.743876 -110.384456 
L 7.978882 -117.197419 
L 7.244846 -119.289774 
L 8.728146 -119.829882 
L 11.044135 -123.606252 
L 13.329658 -125.247109 
L 16.246943 -124.999109 
L 19.856198 -122.586059 
L 21.54985 -119.936716 
L 23.593834 -120.221542 
L 25.975827 -119.020485 
L 29.669944 -119.033906 
L 33.641869 -117.811566 
L 35.096157 -118.275913 
L 35.671347 -120.372484 
L 36.352432 -120.505789 
L 37.818328 -122.969665 
L 41.440643 -121.24192 
L 42.658473 -122.304306 
L 47.368785 -123.758731 
L 48.347258 -124.546646 
L 48.331299 -125.18707 
L 50.677023 -123.666862 
L 54.726554 -124.518839 
L 55.119682 -126.584537 
L 56.383578 -127.064993 
L 58.959956 -125.541904 
L 60.977104 -126.048831 
L 63.112483 -124.631618 
L 64.774947 -124.979927 
L 65.670734 -124.557966 
L 67.120671 -125.78856 
L 68.722204 -125.259001 
L 71.826632 -122.704399 
L 72.024645 -121.27894 
L 73.720107 -120.939063 
L 73.970714 -119.967403 
L 76.299026 -118.899651 
L 78.923281 -120.968415 
L 82.192716 -119.385095 
L 83.851186 -121.826144 
L 84.980533 -121.618615 
L 86.231004 -120.983565 
L 86.168628 -119.593774 
L 87.168857 -119.147264 
L 88.986545 -116.530138 
L 91.34387 -115.87284 
L 91.468629 -113.98264 
L 92.899708 -114.442578 
L 93.549605 -113.071783 
L 93.948544 -113.292733 
L 94.044284 -112.353297 
L 92.877952 -109.844733 
L 93.646804 -108.344464 
L 92.644393 -105.314009 
L 93.775915 -104.474688 
L 94.451196 -105.019406 
L 95.063378 -104.164356 
L 95.921808 -104.258341 
L 96.580772 -102.774372 
L 91.014212 -96.358065 
L 89.333979 -95.596227 
L 88.744283 -93.908768 
L 87.287812 -93.284644 
L 87.239942 -90.862583 
L 85.573851 -87.701704 
L 84.532278 -80.27057 
L 84.695475 -76.857281 
L 82.27722 -74.85105 
L 81.555515 -73.480054 
L 81.585973 -70.849313 
L 79.701565 -69.407738 
L 79.637736 -68.469453 
L 79.877093 -67.472086 
L 80.840337 -66.787739 
L 80.603879 -66.277546 
L 82.286287 -64.548272 
L 82.148833 -58.214243 
L 83.022134 -56.778807 
L 83.52334 -53.742213 
L 82.911881 -50.640407 
L 84.937737 -44.819249 
L 83.981027 -42.608941 
L 84.413323 -40.305798 
L 85.601417 -38.027204 
L 88.295298 -36.017892 
L 89.724202 -34.092217 
L 92.935977 -26.337323 
L 79.861864 -24.192219 
L 79.889423 -22.093918 
L 76.095208 -18.336158 
L 77.242683 -17.546707 
L 78.523626 -14.47636 
L 77.621312 -11.301673 
L 78.531598 -8.157667 
L 77.512511 -6.733744 
L 76.150335 -1.548216 
L 77.185745 0.969752 
L 78.892815 1.856633 
L 80.886031 4.726748 
L 84.146399 5.277597 
L 83.967966 3.715567 
L 86.249138 3.058076 
L 86.12946 12.719851 
L 84.972554 12.464376 
L 85.335947 11.424816 
L 84.670814 11.010523 
L 81.931962 12.580221 
L 80.597345 12.276407 
L 78.590353 8.519033 
L 77.431271 8.488345 
L 76.588435 5.783952 
L 73.331695 4.644655 
L 72.615787 3.862107 
L 71.082441 4.093798 
L 69.556337 1.334941 
L 68.247112 0.49715 
L 67.867767 -1.280456 
L 66.770338 -1.087892 
L 66.236491 1.239806 
L 64.620452 2.010841 
L 62.495227 1.259752 
L 59.453183 1.19454 
L 56.929026 -0.098201 
L 56.045569 0.255482 
L 54.988396 -0.741884 
L 54.745411 -4.063104 
L 50.550088 -3.088756 
L 48.99498 -2.08295 
L 47.612493 -2.545575 
L 48.302287 -3.437065 
L 48.149968 -4.765096 
L 46.4215 -5.187829 
L 46.351144 -6.10847 
L 45.559806 -6.448339 
L 44.38259 -5.297536 
L 41.731498 -5.798516 
L 38.632151 -4.748215 
L 35.02943 -5.193961 
L 33.181284 -3.656486 
L 32.674997 -6.604848 
L 33.755744 -7.280755 
L 33.712948 -10.196129 
L 32.635829 -13.440631 
L 30.663653 -15.477557 
L 30.053647 -17.340329 
L 31.119888 -24.393995 
L 29.786724 -27.798079 
L 30.537441 -31.713885 
L 30.004325 -33.097916 
L 21.130608 -33.075669 
L 21.768904 -35.825328 
L 19.719838 -35.806147 
L 19.542858 -35.187012 
L 14.121719 -35.187012 
L 14.060795 -31.642534 
L 12.955387 -30.939777 
L 12.954664 -27.763554 
L 7.066413 -28.281415 
L 7.004037 -27.796543 
L 4.286217 -27.611647 
L 4.13027 -26.967199 
L 2.514954 -27.448234 
L 0.635619 -27.046983 
L -1.359049 -29.607144 
L -2.337523 -32.023067 
L -3.957913 -33.682526 
L -3.764974 -35.091877 
L -5.204033 -37.366641 
L -5.639234 -39.172633 
L -5.494164 -41.2203 
L -6.714177 -43.349288 
L -25.026646 -43.800408 
L -29.244812 -43.436755 
L -32.37734 -44.001263 
L -33.2875 -43.62445 
L -33.595402 -42.77856 
L -35.512086 -42.239157 
L -35.458075 -42.759935 
L -35.883585 -42.580362 
z
" clip-path="url(#pade963c065)" style="fill: #eeeeee; stroke: #000000; stroke-width: 0.3"/>
    <path d="M -33.437349 -43.068538 
L -32.854622 -43.576318 
L -31.68662 -43.60267 
z
" clip-path="url(#pade963c065)" style="fill: #eeeeee; stroke: #000000; stroke-width: 0.3"/>
    <path d="M -40.648413 43.085388 
L -40.385118 41.009713 
L -38.048173 40.06298 
L -36.963805 40.698995 
L -34.686261 40.771111 
L -30.481506 38.666671 
L -28.281575 39.106277 
L -27.98999 39.934864 
L -24.766972 42.174331 
L 6.624685 41.924215 
L 7.952768 43.766276 
L 9.687762 44.96311 
L 15.870497 45.639017 
L 19.836618 45.375867 
L 23.135424 46.686252 
L 25.62767 45.938229 
L 27.210346 46.56043 
L 47.096781 42.589381 
L 52.826909 43.344315 
L 54.390728 44.924755 
L 52.240112 44.882554 
L 49.510692 46.845063 
L 48.009979 46.126955 
L 42.811522 49.999032 
L 40.586199 46.445349 
L 24.32062 48.823681 
L 24.3888 75.878339 
L 17.325515 76.150694 
L 17.348723 123.819734 
L 14.451025 124.627595 
L 13.653154 125.919564 
L 12.325801 126.197294 
L 12.483194 127.239926 
L 11.303079 127.792312 
L 8.674473 126.919232 
L 4.609713 127.379556 
L 2.832645 126.484228 
L 0.835808 126.356876 
L 0.514488 125.733904 
L -0.743969 125.91266 
L -0.625014 125.089456 
L -1.301024 124.177248 
L -0.771529 123.618723 
L -1.150151 122.374321 
L -2.080754 122.40731 
L -3.04037 120.883642 
L -4.327833 121.297935 
L -5.199681 122.654352 
L -5.398425 124.254738 
L -8.160373 124.812491 
L -12.364447 120.867133 
L -15.540487 115.654978 
L -16.008814 112.85741 
L -17.029992 110.999203 
L -16.428589 110.234419 
L -16.871216 108.960377 
L -17.848987 108.326678 
L -17.759887 106.274556 
L -18.733089 103.995302 
L -18.642283 98.891889 
L -21.407685 91.721857 
L -21.023883 90.192288 
L -21.582447 86.651069 
L -21.17809 85.863926 
L -21.752073 83.352089 
L -21.57731 82.676709 
L -21.407685 83.533926 
L -20.915946 82.827733 
L -21.061577 80.213805 
L -28.858049 67.603884 
L -30.401234 62.704051 
L -31.386564 61.740838 
L -35.508261 53.167773 
L -38.442874 50.204415 
L -40.091954 46.127171 
z
" clip-path="url(#pade963c065)" style="fill: #eeeeee; stroke: #000000; stroke-width: 0.3"/>
    <path d="M -7.296258 125.287312 
L -5.398425 124.254738 
L -5.199681 122.654352 
L -4.327833 121.297935 
L -3.04037 120.883642 
L -2.080754 122.40731 
L -1.150151 122.374321 
L -0.771529 123.618723 
L -1.301024 124.177248 
L -0.625014 125.089456 
L -0.743969 125.91266 
L 0.514488 125.733904 
L 0.835808 126.356876 
L 2.832645 126.484228 
L 4.609713 127.379556 
L 8.674473 126.919232 
L 11.303079 127.792312 
L 12.483194 127.239926 
L 12.325801 126.197294 
L 13.653154 125.919564 
L 14.451025 124.627595 
L 17.348723 123.819734 
L 17.347278 96.577871 
L 20.03826 98.6616 
L 22.085142 101.887685 
L 21.954586 103.020078 
L 23.382767 106.813135 
L 21.725378 109.499876 
L 22.325229 112.458215 
L 23.847704 111.776941 
L 29.159313 112.244934 
L 29.845479 111.80993 
L 29.973859 110.872409 
L 31.918475 110.422826 
L 33.25599 108.413521 
L 35.339142 107.377792 
L 36.562053 105.721406 
L 37.441158 101.986658 
L 38.746755 100.637917 
L 41.754707 100.509793 
L 45.021609 103.086063 
L 46.837114 103.061507 
L 47.928016 103.995962 
L 50.216438 104.526866 
L 55.784815 103.694449 
L 56.688939 103.01394 
L 58.429015 98.536543 
L 58.661845 96.545647 
L 62.423419 95.689454 
L 63.313402 94.396713 
L 65.474896 92.963579 
L 66.373216 88.903919 
L 67.497847 87.466182 
L 70.455753 86.247094 
L 70.870637 85.177611 
L 71.892636 85.207534 
L 75.739795 80.628099 
L 80.025783 79.51335 
L 80.911415 77.80786 
L 85.281543 77.084385 
L 90.008537 78.704717 
L 95.746638 78.494501 
L 96.703355 79.095226 
L 98.439803 84.734167 
L 98.378507 86.959827 
L 100.644086 90.47707 
L 101.59935 94.132798 
L 101.663902 103.142835 
L 100.93494 105.718333 
L 97.49324 103.87858 
L 95.516707 105.170549 
L 93.304087 108.78868 
L 93.289215 111.842918 
L 93.835028 111.570563 
L 94.350375 113.263783 
L 95.671931 114.719929 
L 98.370893 115.569226 
L 101.470963 115.609118 
L 101.624012 111.838316 
L 107.961346 112.1192 
L 107.766021 113.390221 
L 104.44548 124.658446 
L 101.81201 126.511211 
L 102.18553 126.664655 
L 101.778317 127.116517 
L 100.072931 127.530929 
L 97.237279 130.576787 
L 94.684334 134.806673 
L 95.084698 134.758349 
L 88.098092 144.725949 
L 83.528498 147.98324 
L 77.471688 154.552198 
L 67.311891 161.699871 
L 62.926772 163.473498 
L 58.079609 163.320062 
L 57.017312 164.148277 
L 57.462788 165.482729 
L 52.236968 165.113019 
L 51.403697 166.750127 
L 42.991555 165.072548 
L 41.246756 165.454944 
L 41.397531 166.040311 
L 35.609722 165.179471 
L 32.70097 165.840962 
L 32.550195 166.547148 
L 31.141223 166.884233 
L 30.030951 168.053765 
L 28.268446 167.813337 
L 26.642448 168.375143 
L 23.887896 167.899119 
L 23.128294 168.178214 
L 23.380164 168.675379 
L 20.864919 168.715858 
L 17.587217 171.302601 
L 15.043409 170.96974 
L 13.257492 169.690873 
L 12.543015 169.809272 
L 12.987347 168.938166 
L 12.497321 168.260366 
L 11.296812 168.196935 
L 11.441306 167.40859 
L 9.179644 168.021148 
L 9.464063 166.339337 
L 9.056274 165.888077 
L 6.798605 166.01675 
L 6.740356 167.802462 
L 5.660921 166.392502 
L 5.65064 165.439236 
L 6.840875 164.064915 
L 5.598671 161.357954 
L 3.125114 158.557356 
L 4.335905 159.265361 
L 3.704241 158.051127 
L 2.752738 158.07408 
L 2.339812 156.488926 
L 3.213071 155.5997 
L 4.275368 156.115601 
L 5.521564 154.894717 
L 5.893372 152.309784 
L 5.384495 149.580471 
L -1.597543 138.112297 
L -4.811276 128.857527 
z
M 66.618742 133.055323 
L 69.279989 136.589832 
L 69.173364 137.839608 
L 69.776479 137.832704 
L 71.822273 139.987013 
L 74.174531 140.421244 
L 74.501655 138.925198 
L 75.295168 138.145723 
L 75.029698 137.627862 
L 76.315708 136.601338 
L 79.205433 136.19472 
L 81.651978 134.934975 
L 81.438005 133.675995 
L 83.698867 130.649378 
L 82.827742 128.774328 
L 80.505233 127.43249 
L 78.073188 124.921433 
L 74.7091 125.898089 
L 73.716844 127.205401 
L 71.84911 127.429425 
L 69.061658 131.672829 
z
" clip-path="url(#pade963c065)" style="fill: #eeeeee; stroke: #000000; stroke-width: 0.3"/>
    <path d="M 141.009087 261.343286 
L 141.43287 260.45164 
L 142.545998 260.567627 
L 143.070293 260.907132 
L 142.443759 261.470148 
z
" clip-path="url(#pade963c065)" style="fill: #eeeeee; stroke: #000000; stroke-width: 0.3"/>
    <path d="M 142.826992 259.023553 
L 143.102843 258.75292 
L 143.645988 258.871319 
L 143.371275 259.15887 
z
" clip-path="url(#pade963c065)" style="fill: #eeeeee; stroke: #000000; stroke-width: 0.3"/>
    <path d="M 31.372305 9.348376 
L 45.554003 9.348376 
L 44.606717 7.776377 
L 45.765799 4.772779 
L 45.229054 3.041968 
L 45.23123 -0.781011 
L 45.98267 -2.488038 
L 45.321173 -6.456779 
L 46.351144 -6.10847 
L 46.4215 -5.187829 
L 48.149968 -4.765096 
L 48.302287 -3.437065 
L 47.553015 -2.679073 
L 48.683085 -2.067606 
L 50.550088 -3.088756 
L 54.745411 -4.063104 
L 54.988396 -0.741884 
L 56.045569 0.255482 
L 56.929026 -0.098201 
L 59.453183 1.19454 
L 62.495227 1.259752 
L 64.620452 2.010841 
L 66.236491 1.239806 
L 66.770338 -1.087892 
L 67.867767 -1.280456 
L 68.247112 0.49715 
L 69.556337 1.334941 
L 71.082441 4.093798 
L 72.615787 3.862107 
L 73.331695 4.644655 
L 76.588435 5.783952 
L 77.431271 8.488345 
L 78.590353 8.519033 
L 80.597345 12.276407 
L 81.931962 12.580221 
L 84.670814 11.010523 
L 85.335947 11.424816 
L 84.972554 12.464376 
L 86.023558 12.739804 
L 86.249138 3.058076 
L 83.967966 3.715567 
L 84.146399 5.277597 
L 80.886031 4.726748 
L 78.892815 1.856633 
L 77.185745 0.969752 
L 76.117694 -1.662525 
L 77.512511 -6.733744 
L 78.531598 -8.157667 
L 77.621312 -11.301673 
L 78.523626 -14.47636 
L 77.242683 -17.546707 
L 76.095208 -18.336158 
L 79.889423 -22.093918 
L 79.861864 -24.192219 
L 92.935977 -26.337323 
L 94.911781 -23.322211 
L 97.155239 -23.419648 
L 98.45866 -22.555779 
L 99.396513 -21.000652 
L 101.249011 -20.855656 
L 101.259166 -19.896652 
L 104.665326 -19.287487 
L 105.329371 -18.438197 
L 108.156349 -17.327286 
L 108.61984 -15.690074 
L 109.942849 -15.884174 
L 111.122234 -14.183287 
L 110.845885 -12.458615 
L 112.45431 -11.215743 
L 113.443303 -8.648678 
L 112.227642 -7.222447 
L 110.343957 -6.375458 
L 111.455162 -4.285598 
L 110.327998 -2.416687 
L 110.203968 -1.323421 
L 110.794387 -1.102471 
L 110.915518 0.223259 
L 110.485398 2.949899 
L 111.164307 4.348516 
L 112.411149 4.554122 
L 111.170834 5.868346 
L 108.886033 6.462161 
L 108.29852 7.629072 
L 108.806975 8.72311 
L 108.698898 10.840206 
L 107.399827 13.258429 
L 106.348823 13.76402 
L 107.096642 14.139178 
L 107.048772 15.106622 
L 107.828502 15.428846 
L 108.710506 17.135108 
L 109.696236 16.203726 
L 110.134335 16.863518 
L 89.162795 24.04608 
L 90.537668 28.863345 
L 84.760757 29.051314 
L 80.165049 31.337576 
L 79.637736 32.055684 
L 79.637736 34.488487 
L 78.963171 35.557962 
L 72.33654 38.730354 
L 70.655219 41.725512 
L 67.413708 45.578407 
L 64.498233 46.967048 
L 61.07285 45.58301 
L 59.055703 46.445349 
L 57.349721 45.053643 
L 54.922392 45.274593 
L 52.826909 43.344315 
L 50.352798 42.685288 
L 47.096781 42.589381 
L 41.209982 43.789288 
L 32.272436 35.644656 
L 31.383906 32.677885 
z
" clip-path="url(#pade963c065)" style="fill: #eeeeee; stroke: #000000; stroke-width: 0.3"/>
    <path d="M -40.522762 30.546143 
L -38.72257 28.765872 
L -38.270806 25.913929 
L -37.647136 25.435485 
L -36.341538 19.978671 
L -36.359238 17.445091 
L -35.750418 15.859337 
L -35.140454 15.685962 
L -35.050216 12.499346 
L -32.035801 9.206409 
L -32.073495 7.976468 
L -30.395522 6.381048 
L -28.891174 6.148473 
L -27.158369 3.760477 
L -26.088647 0.362428 
L -25.707702 -4.664868 
L -26.51528 -7.258865 
L -26.232573 -7.899809 
L -27.945952 -9.914473 
L -31.674275 -19.658562 
L -31.702263 -20.072974 
L -31.042043 -21.154304 
L -30.690222 -21.31258 
L -31.5572 -19.733469 
L -30.075689 -22.033873 
L -30.259021 -21.667785 
L -28.980836 -22.173413 
L -28.989405 -25.201752 
L -32.701615 -33.227524 
L -32.817103 -35.852594 
L -34.802325 -37.928454 
L -36.629383 -41.907461 
L -32.929925 -42.388941 
L -30.350943 -43.690694 
L -6.979648 -43.46284 
L -5.494164 -41.2203 
L -5.639234 -39.172633 
L -5.204033 -37.366641 
L -3.764974 -35.091877 
L -3.957913 -33.682526 
L -2.337523 -32.023067 
L -1.359049 -29.607144 
L 0.635619 -27.046983 
L 2.514954 -27.448234 
L 4.13027 -26.967199 
L 4.286217 -27.611647 
L 7.004037 -27.796543 
L 7.066413 -28.281415 
L 12.954664 -27.763554 
L 12.955387 -30.939777 
L 14.060795 -31.642534 
L 14.121719 -35.187012 
L 19.542858 -35.187012 
L 19.719838 -35.806147 
L 21.768904 -35.825328 
L 21.130608 -33.075669 
L 30.004325 -33.097916 
L 30.537441 -31.713885 
L 29.786724 -27.798079 
L 31.119888 -24.393995 
L 30.053647 -17.340329 
L 30.663653 -15.477557 
L 32.635829 -13.440631 
L 33.712948 -10.196129 
L 33.755744 -7.280755 
L 32.674997 -6.604848 
L 33.181284 -3.656486 
L 35.02943 -5.193961 
L 38.632151 -4.748215 
L 41.731498 -5.798516 
L 44.38259 -5.297536 
L 45.321173 -6.456779 
L 45.98267 -2.488038 
L 45.23123 -0.781011 
L 45.229054 3.041968 
L 45.765799 4.772779 
L 44.606717 7.776377 
L 45.554003 9.348376 
L 31.372305 9.348376 
L 31.399865 32.838232 
L 32.577804 36.043606 
L 33.855112 36.607498 
L 36.88338 40.289312 
L 41.209982 43.789288 
L 27.210346 46.56043 
L 25.62767 45.938229 
L 23.135424 46.686252 
L 19.836618 45.375867 
L 15.870497 45.639017 
L 9.687762 44.96311 
L 7.952768 43.766276 
L 6.624685 41.924215 
L -24.766972 42.174331 
L -27.98999 39.934864 
L -28.281575 39.106277 
L -30.481506 38.666671 
L -34.686261 40.771111 
L -36.963805 40.698995 
L -38.048173 40.06298 
L -40.36513 40.805525 
L -39.916223 35.163258 
z
" clip-path="url(#pade963c065)" style="fill: #eeeeee; stroke: #000000; stroke-width: 0.3"/>
    <path d="M -38.599242 -49.902048 
L -37.350407 -51.769734 
L -36.407473 -51.694545 
L -35.950515 -52.976545 
L -34.288775 -53.319487 
L -33.321179 -54.566954 
L -32.56176 -54.412745 
L -31.131403 -52.754823 
L -33.031777 -51.979178 
L -33.902173 -50.609719 
L -35.547955 -49.638824 
L -34.9423 -48.840167 
L -35.094619 -44.656608 
L -37.189091 -44.380631 
L -37.633429 -45.460758 
L -37.057727 -46.581965 
L -38.504394 -49.706352 
L -37.961171 -49.453757 
L -37.704824 -49.936455 
z
" clip-path="url(#pade963c065)" style="fill: #eeeeee; stroke: #000000; stroke-width: 0.3"/>
    <path d="M -40.758203 35.321326 
L -40.633499 35.363564 
L -40.501834 36.846256 
z
" clip-path="url(#pade963c065)" style="fill: #eeeeee; stroke: #000000; stroke-width: 0.3"/>
    <path d="M 17.325515 76.150694 
L 24.3888 75.878339 
L 24.32062 48.823681 
L 40.586199 46.445349 
L 42.811522 49.999032 
L 48.009979 46.126955 
L 49.510692 46.845063 
L 52.240112 44.882554 
L 54.390728 44.924755 
L 54.357357 46.461457 
L 59.169578 53.291873 
L 59.224704 54.642915 
L 60.676817 57.86364 
L 61.715497 58.161316 
L 61.776421 58.7114 
L 64.595791 60.760597 
L 68.019721 61.989655 
L 68.487198 64.979446 
L 71.503129 65.078418 
L 71.281907 69.251236 
L 73.55437 72.819498 
L 77.942632 73.526092 
L 80.911415 74.645444 
L 80.924111 76.301072 
L 83.096483 77.531667 
L 80.911415 77.80786 
L 80.151266 79.418215 
L 79.354131 79.804886 
L 75.739795 80.628099 
L 71.892636 85.207534 
L 70.870637 85.177611 
L 70.455753 86.247094 
L 67.497847 87.466182 
L 66.373216 88.903919 
L 65.474896 92.963579 
L 63.313402 94.396713 
L 62.423419 95.689454 
L 58.661845 96.545647 
L 58.429015 98.536543 
L 56.688939 103.01394 
L 55.784815 103.694449 
L 50.216438 104.526866 
L 47.928016 103.995962 
L 46.837114 103.061507 
L 45.021609 103.086063 
L 41.754707 100.509793 
L 38.746755 100.637917 
L 37.441158 101.986658 
L 36.499677 105.815004 
L 35.339142 107.377792 
L 33.25599 108.413521 
L 31.918475 110.422826 
L 29.973859 110.872409 
L 29.845479 111.80993 
L 29.159313 112.244934 
L 23.847704 111.776941 
L 22.325229 112.458215 
L 21.725378 109.499876 
L 23.382767 106.813135 
L 21.954586 103.020078 
L 22.085142 101.887685 
L 20.03826 98.6616 
L 17.347278 96.577871 
z
" clip-path="url(#pade963c065)" style="fill: #eeeeee; stroke: #000000; stroke-width: 0.3"/>
    <path d="M 54.357357 46.461457 
L 54.390728 44.924755 
L 56.192092 45.431102 
L 57.349721 45.053643 
L 59.055703 46.445349 
L 61.07285 45.58301 
L 64.498233 46.967048 
L 66.752926 46.145372 
L 70.655219 41.725512 
L 72.33654 38.730354 
L 79.298275 35.216556 
L 79.637736 32.055684 
L 80.165049 31.337576 
L 84.760757 29.051314 
L 90.438657 28.904774 
L 90.482906 31.61607 
L 96.500261 31.78102 
L 97.515003 32.811375 
L 99.663437 33.224132 
L 101.064051 34.790765 
L 103.732189 34.960317 
L 106.408301 36.05895 
L 106.82609 36.868347 
L 108.490729 36.666571 
L 107.51008 38.548524 
L 108.863555 41.595088 
L 108.266602 42.729018 
L 108.883858 43.626639 
L 108.20205 46.252013 
L 108.395712 48.355688 
L 109.01188 49.066113 
L 107.804564 50.430205 
L 108.027603 52.202444 
L 106.546113 52.645888 
L 106.473582 53.541981 
L 107.700479 54.497919 
L 107.050948 57.320459 
L 107.534019 57.59435 
L 107.445887 58.881717 
L 108.313026 58.696049 
L 108.94189 59.697254 
L 108.762727 61.537006 
L 107.906837 62.064079 
L 106.408301 65.247206 
L 105.073691 65.775808 
L 105.139695 68.250039 
L 104.078536 69.717699 
L 104.832152 71.051097 
L 96.703355 79.095226 
L 93.538004 78.241327 
L 90.008537 78.704717 
L 85.965533 77.117373 
L 83.144718 77.563119 
L 80.924111 76.301072 
L 80.911415 74.645444 
L 77.942632 73.526092 
L 73.55437 72.819498 
L 71.281907 69.251236 
L 71.503129 65.078418 
L 68.487198 64.979446 
L 68.019721 61.989655 
L 64.595791 60.760597 
L 61.776421 58.7114 
L 61.715497 58.161316 
L 60.676817 57.86364 
L 59.224704 54.642915 
L 59.169578 53.291873 
z
" clip-path="url(#pade963c065)" style="fill: #eeeeee; stroke: #000000; stroke-width: 0.3"/>
    <path d="M 89.162795 24.04608 
L 110.134335 16.863518 
L 113.237304 21.22737 
L 113.767522 20.395725 
L 116.086051 20.436382 
L 118.144541 19.636189 
L 119.365999 21.269571 
L 119.723589 26.19655 
L 117.366257 30.789028 
L 118.568865 32.05031 
L 118.72263 33.639954 
L 122.084549 37.106185 
L 123.578004 37.793598 
L 123.21099 39.845096 
L 124.796564 39.990099 
L 124.700094 36.808509 
L 123.673751 35.597861 
L 125.376835 32.653329 
L 126.358929 32.878889 
L 128.257851 31.92065 
L 128.646628 27.280604 
L 128.251324 25.459268 
L 129.09416 23.344088 
L 128.693775 21.588721 
L 123.337925 14.564977 
L 121.78716 13.166368 
L 120.225517 12.992213 
L 119.556763 11.75548 
L 119.199904 7.016848 
L 118.214174 3.394879 
L 120.057969 -1.216015 
L 126.477885 -0.960533 
L 128.54726 -2.439706 
L 130.945205 -1.212942 
L 131.167157 -0.301506 
L 134.15698 -0.154201 
L 135.521332 -1.251305 
L 137.01116 -1.315753 
L 137.777836 -0.500216 
L 140.080041 -0.168015 
L 142.517161 -1.548216 
L 143.367253 -3.401011 
L 145.602724 -3.451644 
L 147.256485 -2.439706 
L 150.091807 -4.264115 
L 152.491205 -4.215775 
L 154.318318 -5.578331 
L 156.334742 -6.009497 
L 161.420631 -9.385885 
L 161.393211 -8.728024 
L 162.434384 -7.832755 
L 161.244149 -7.274565 
L 162.191083 -6.689799 
L 161.319536 -5.837421 
L 161.392643 -5.232717 
L 161.810706 -5.405491 
L 161.392643 -4.117552 
L 160.285796 -3.155231 
L 161.10708 -2.649603 
L 160.838648 -0.683263 
L 161.488593 0.719451 
L 161.521718 3.432448 
L 161.004273 3.871022 
L 161.775301 4.788048 
L 161.193893 5.633782 
L 161.78215 5.848838 
L 162.377271 7.602534 
L 160.721566 8.907382 
L 161.230443 9.500001 
L 161.348093 8.951483 
L 162.015169 9.156874 
L 161.536569 13.127604 
L 162.015169 13.532952 
L 161.623381 14.06154 
L 162.40354 16.997453 
L 161.617669 17.981525 
L 161.988901 18.714902 
L 162.724516 18.115639 
L 163.074041 18.771689 
L 162.978091 19.283961 
L 162.30302 19.283961 
L 162.255045 20.964561 
L 162.754209 19.967796 
L 163.462411 19.809527 
L 163.750831 20.208231 
L 163.178561 20.731378 
L 163.653168 20.656471 
L 163.789093 21.993943 
L 162.934691 23.344095 
L 162.350996 23.098233 
L 163.269367 24.166876 
L 162.546321 24.010419 
L 162.834172 24.725067 
L 161.543418 25.156389 
L 161.436049 25.535155 
L 162.297308 25.405881 
L 162.621709 25.91332 
L 161.920938 27.836769 
L 158.293703 31.526592 
L 158.783729 31.506661 
L 157.784258 33.257937 
L 156.317597 33.848144 
L 156.490079 34.49392 
L 156.82705 34.797178 
L 151.726304 38.049028 
L 151.455015 38.909868 
L 148.454314 39.21977 
L 145.014979 41.16436 
L 144.369034 40.445487 
L 144.699716 41.155303 
L 138.113473 44.513475 
L 136.671944 46.545057 
L 135.997442 45.570041 
L 135.610216 45.544669 
L 136.623969 46.798772 
L 133.08469 50.583441 
L 132.625501 52.279148 
L 131.436986 51.605579 
L 131.639168 53.066283 
L 130.795609 53.137568 
L 130.634552 52.396946 
L 128.750404 53.515131 
L 123.637664 59.109674 
L 121.906003 60.285248 
L 120.128086 58.299579 
L 119.612353 58.198691 
L 121.186958 59.926414 
L 120.707206 60.437475 
L 121.168107 62.428585 
L 120.328549 62.423745 
L 120.946507 62.980726 
L 120.223461 64.091058 
L 120.756894 64.765837 
L 120.41993 65.316167 
L 120.922519 65.191725 
L 121.852315 66.592622 
L 122.701011 66.719483 
L 123.011706 68.265368 
L 123.590833 68.473179 
L 122.863212 69.547264 
L 123.255007 71.112479 
L 123.638808 70.04866 
L 123.590833 71.52266 
L 124.649705 73.504098 
L 124.893005 79.030378 
L 125.513251 79.766175 
L 125.845645 77.033232 
L 126.262565 76.932953 
L 126.37851 78.448032 
L 126.61781 77.475436 
L 126.182609 81.267959 
L 126.522428 83.175091 
L 127.001604 82.935866 
L 126.106077 84.881665 
L 125.487544 89.121217 
L 125.425863 88.599281 
L 125.136306 88.588406 
L 125.08033 90.728722 
L 125.415588 89.837076 
L 126.018696 90.102275 
L 126.087234 89.376751 
L 126.448753 89.529587 
L 126.234584 91.744208 
L 123.494883 95.430409 
L 110.657073 100.618401 
L 110.951773 100.288561 
L 107.818565 102.452438 
L 106.515248 104.991458 
L 105.844747 105.60824 
L 105.319307 105.466881 
L 105.040025 105.723625 
L 107.606108 107.981138 
L 108.391979 106.423769 
L 107.961346 112.1192 
L 102.492955 112.073845 
L 102.189039 105.910904 
L 101.337501 105.527298 
L 101.032863 104.450148 
L 101.663902 103.142835 
L 101.59935 94.132798 
L 100.644086 90.47707 
L 98.378507 86.959827 
L 98.439803 84.734167 
L 96.634445 79.228717 
L 104.832152 71.051097 
L 104.078536 69.717699 
L 105.139695 68.250039 
L 105.073691 65.775808 
L 106.408301 65.247206 
L 107.906837 62.064079 
L 108.762727 61.537006 
L 108.94189 59.697254 
L 108.313026 58.696049 
L 107.445887 58.881717 
L 107.534019 57.59435 
L 107.050948 57.320459 
L 107.700479 54.497919 
L 106.473582 53.541981 
L 106.546113 52.645888 
L 108.027603 52.202444 
L 107.804564 50.430205 
L 109.01188 49.066113 
L 108.395712 48.355688 
L 108.20205 46.252013 
L 108.883858 43.626639 
L 108.266602 42.729018 
L 108.863555 41.595088 
L 107.51008 38.548524 
L 108.490729 36.666571 
L 106.82609 36.868347 
L 106.408301 36.05895 
L 103.732189 34.960317 
L 101.064051 34.790765 
L 99.663437 33.224132 
L 97.515003 32.811375 
L 96.500261 31.78102 
L 90.482906 31.61607 
L 90.414719 27.752434 
z
M 120.332872 2.48037 
L 120.564979 2.838656 
L 121.079961 2.213389 
L 120.601241 1.917243 
z
M 119.548061 1.998571 
L 120.018802 2.452756 
L 120.133406 1.819814 
z
" clip-path="url(#pade963c065)" style="fill: #eeeeee; stroke: #000000; stroke-width: 0.3"/>
    <path d="M 125.799951 74.534089 
L 125.818233 73.717951 
L 126.043252 72.798513 
L 126.191746 73.487188 
z
" clip-path="url(#pade963c065)" style="fill: #eeeeee; stroke: #000000; stroke-width: 0.3"/>
    <path d="M 156.584009 33.963032 
L 157.461507 33.850051 
L 156.985011 34.701472 
z
" clip-path="url(#pade963c065)" style="fill: #eeeeee; stroke: #000000; stroke-width: 0.3"/>
    <path d="M 108.138397 105.848668 
L 108.589585 105.60824 
L 108.439954 106.165822 
z
" clip-path="url(#pade963c065)" style="fill: #eeeeee; stroke: #000000; stroke-width: 0.3"/>
    <path d="M 93.171713 111.160108 
L 93.304087 108.78868 
L 95.516707 105.170549 
L 97.49324 103.87858 
L 100.532745 105.70529 
L 102.189039 105.910904 
L 101.973621 107.943992 
L 102.517616 110.16044 
L 102.492955 112.073845 
L 101.624012 111.838316 
L 101.470963 115.609118 
L 98.370893 115.569226 
L 95.671931 114.719929 
z
" clip-path="url(#pade963c065)" style="fill: #eeeeee; stroke: #000000; stroke-width: 0.3"/>
    <path d="M 359.597432 277.140425 
L 360.149139 276.972491 
L 360.049764 276.311608 
L 360.680291 276.382892 
L 359.898989 275.429627 
L 360.636316 275.255643 
L 361.470162 274.006372 
L 362.177789 274.541603 
L 360.716273 275.783629 
L 362.685522 274.885941 
L 362.125814 275.149321 
L 362.509615 275.428417 
L 361.358786 277.241914 
L 361.838538 277.392938 
L 362.102402 276.521832 
L 362.865997 277.470866 
L 364.434314 276.678898 
L 364.535977 277.231039 
L 365.497754 276.218574 
L 365.880412 277.494427 
L 364.167026 277.414688 
L 363.342886 277.938442 
L 364.67419 277.697405 
L 364.034525 277.925756 
L 365.109384 278.406613 
L 364.246982 278.609591 
L 366.987252 278.710479 
L 368.06783 277.754193 
L 369.740091 277.735464 
L 370.736137 276.971281 
L 372.041735 277.282392 
L 372.053728 278.85365 
L 370.564799 279.380418 
L 371.652227 279.830476 
L 370.40203 279.830476 
L 369.36029 279.085623 
L 367.131177 279.167174 
L 367.85423 279.475264 
L 367.665754 279.860072 
L 366.216231 279.573131 
L 367.071784 280.523375 
L 369.339734 281.157067 
L 368.722913 280.433963 
L 370.455143 280.507668 
L 370.652181 280.835088 
L 369.535059 281.157067 
L 370.093048 281.659072 
L 367.365341 281.611957 
L 366.543488 280.273274 
L 365.832437 280.316165 
L 366.378432 280.888854 
L 366.019762 281.506845 
L 364.657052 281.257955 
L 362.956235 280.196556 
L 362.988216 280.824213 
L 362.369683 280.38866 
L 362.417658 281.203588 
L 361.960188 280.581365 
L 362.090408 281.353401 
L 361.540406 281.8403 
L 359.707657 281.581144 
L 360.670578 279.770668 
L 360.002358 279.286181 
L 360.827642 278.710479 
L 360.210252 278.822836 
L 359.70652 277.972871 
L 360.875617 277.646661 
z
" clip-path="url(#pade963c065)" style="fill: #eeeeee; stroke: #000000; stroke-width: 0.3"/>
    <path d="M 362.708934 276.471087 
L 363.767237 275.711135 
L 363.571912 276.117084 
L 364.246982 276.040968 
L 362.921966 277.270916 
z
" clip-path="url(#pade963c065)" style="fill: #eeeeee; stroke: #000000; stroke-width: 0.3"/>
    <path d="M 239.643446 257.109777 
L 240.201435 256.731612 
L 240.890218 257.097091 
L 240.815399 257.651043 
z
" clip-path="url(#pade963c065)" style="fill: #eeeeee; stroke: #000000; stroke-width: 0.3"/>
    <path d="M 229.250061 254.781582 
L 229.899431 254.625725 
L 230.069057 255.162166 
L 229.429961 255.143438 
z
" clip-path="url(#pade963c065)" style="fill: #eeeeee; stroke: #000000; stroke-width: 0.3"/>
    <path d="M 421.090201 200.154886 
L 421.35977 200.343367 
L 421.128463 200.375383 
z
" clip-path="url(#pade963c065)" style="fill: #eeeeee; stroke: #000000; stroke-width: 0.3"/>
    <path d="M 421.046219 194.043239 
L 421.322077 193.581705 
L 421.61164 193.982221 
z
" clip-path="url(#pade963c065)" style="fill: #eeeeee; stroke: #000000; stroke-width: 0.3"/>
    <path d="M 367.225984 280.290793 
L 368.491606 280.758971 
L 367.310516 280.38866 
z
" clip-path="url(#pade963c065)" style="fill: #eeeeee; stroke: #000000; stroke-width: 0.3"/>
    <path d="M 365.109384 278.001873 
L 366.119144 277.697405 
L 365.739911 278.11665 
z
" clip-path="url(#pade963c065)" style="fill: #eeeeee; stroke: #000000; stroke-width: 0.3"/>
    <path d="M 364.199007 275.301555 
L 365.008865 275.509366 
L 364.36692 275.564342 
z
" clip-path="url(#pade963c065)" style="fill: #eeeeee; stroke: #000000; stroke-width: 0.3"/>
    <path d="M 362.369683 276.426385 
L 362.502758 275.876656 
L 363.072173 275.754627 
z
" clip-path="url(#pade963c065)" style="fill: #eeeeee; stroke: #000000; stroke-width: 0.3"/>
    <path d="M 359.823595 273.486848 
L 360.087458 273.353944 
L 360.157708 273.547258 
z
" clip-path="url(#pade963c065)" style="fill: #eeeeee; stroke: #000000; stroke-width: 0.3"/>
    <path d="M 358.857824 279.12066 
L 359.193643 278.91345 
L 359.76877 279.270474 
z
" clip-path="url(#pade963c065)" style="fill: #eeeeee; stroke: #000000; stroke-width: 0.3"/>
    <path d="M 358.624229 273.880721 
L 358.735598 273.822724 
L 359.030299 273.937508 
z
" clip-path="url(#pade963c065)" style="fill: #eeeeee; stroke: #000000; stroke-width: 0.3"/>
    <path d="M 259.700882 30.78718 
L 259.746001 30.754555 
L 259.748857 30.820406 
z
" clip-path="url(#pade963c065)" style="fill: #eeeeee; stroke: #000000; stroke-width: 0.3"/>
    <path d="M 208.98473 -1.31092 
L 209.066399 -1.421473 
L 209.114374 -1.278295 
z
" clip-path="url(#pade963c065)" style="fill: #eeeeee; stroke: #000000; stroke-width: 0.3"/>
    <path d="M 176.957592 39.501887 
L 177.199181 39.480137 
L 177.150061 39.594913 
z
" clip-path="url(#pade963c065)" style="fill: #eeeeee; stroke: #000000; stroke-width: 0.3"/>
    <path d="M 160.217834 78.815322 
L 160.546803 78.665508 
L 160.425153 78.837071 
z
" clip-path="url(#pade963c065)" style="fill: #eeeeee; stroke: #000000; stroke-width: 0.3"/>
    <path d="M 155.930947 72.022853 
L 155.936659 72.002915 
L 155.950934 72.019832 
z
" clip-path="url(#pade963c065)" style="fill: #eeeeee; stroke: #000000; stroke-width: 0.3"/>
   </g>
   <g id="PatchCollection_2">
    <defs>
     <path id="mb646f19a5f" d="M 54.357357 -61.538543 
L 54.390728 -63.075245 
L 56.192092 -62.568898 
L 57.349721 -62.946357 
L 59.055703 -61.554651 
L 61.07285 -62.41699 
L 64.498233 -61.032952 
L 66.752926 -61.854628 
L 70.655219 -66.274488 
L 72.33654 -69.269646 
L 79.298275 -72.783444 
L 79.637736 -75.944316 
L 80.165049 -76.662424 
L 84.760757 -78.948686 
L 90.438657 -79.095226 
L 90.482906 -76.38393 
L 96.500261 -76.21898 
L 97.515003 -75.188625 
L 99.663437 -74.775868 
L 101.064051 -73.209235 
L 103.732189 -73.039683 
L 106.408301 -71.94105 
L 106.82609 -71.131653 
L 108.490729 -71.333429 
L 107.51008 -69.451476 
L 108.863555 -66.404912 
L 108.266602 -65.270982 
L 108.883858 -64.373361 
L 108.20205 -61.747987 
L 108.395712 -59.644312 
L 109.01188 -58.933887 
L 107.804564 -57.569795 
L 108.027603 -55.797556 
L 106.546113 -55.354112 
L 106.473582 -54.458019 
L 107.700479 -53.502081 
L 107.050948 -50.679541 
L 107.534019 -50.40565 
L 107.445887 -49.118283 
L 108.313026 -49.303951 
L 108.94189 -48.302746 
L 108.762727 -46.462994 
L 107.906837 -45.935921 
L 106.408301 -42.752794 
L 105.073691 -42.224192 
L 105.139695 -39.749961 
L 104.078536 -38.282301 
L 104.832152 -36.948903 
L 96.703355 -28.904774 
L 93.538004 -29.758673 
L 90.008537 -29.295283 
L 85.965533 -30.882627 
L 83.144718 -30.436881 
L 80.924111 -31.698928 
L 80.911415 -33.354556 
L 77.942632 -34.473908 
L 73.55437 -35.180502 
L 71.281907 -38.748764 
L 71.503129 -42.921582 
L 68.487198 -43.020554 
L 68.019721 -46.010345 
L 64.595791 -47.239403 
L 61.776421 -49.2886 
L 61.715497 -49.838684 
L 60.676817 -50.13636 
L 59.224704 -53.357085 
L 59.169578 -54.708127 
z
" style="stroke: #dd0000; stroke-width: 0.5"/>
    </defs>
    <g clip-path="url(#pade963c065)">
     <use xlink:href="#mb646f19a5f" x="0" y="108" style="fill: #ff6b6b; stroke: #dd0000; stroke-width: 0.5"/>
    </g>
   </g>
  </g>
 </g>
 <defs>
  <clipPath id="pade963c065">
   <rect x="0" y="0" width="163.369237" height="108"/>
  </clipPath>
 </defs>
</svg>
