<svg id="Layer_1" data-name="Layer 1" xmlns="http://www.w3.org/2000/svg" xmlns:xlink="http://www.w3.org/1999/xlink" viewBox="0 0 1500 1000"><defs><style>.cls-1{fill:none;}.cls-2{fill:#f9f9f9;}.cls-3{fill:#f9d90f;}.cls-4{fill:#012a87;}.cls-5{clip-path:url(#clip-path);}.cls-6{fill:#dc171d;}</style><clipPath id="clip-path"><rect class="cls-1" width="1500" height="1000"/></clipPath></defs><title>Bonaire</title><rect class="cls-2" width="1500" height="1000"/><polygon class="cls-3" points="0 0 0 414.49 618.38 0 0 0"/><polygon class="cls-4" points="1500 0 0 1000 1500 1000 1500 0"/><g class="cls-5"><path d="M412.67,642.79a210.78,210.78,0,1,1,149-61.74,209.33,209.33,0,0,1-149,61.74m0-396.84c-102.56,0-186,83.46-186,186s83.43,186,186,186,186-83.46,186-186-83.44-186-186-186"/><polygon points="204.44 461.26 154.12 432.57 203.66 404.78 204.44 461.26"/><polygon points="618.38 461.26 668.7 432.57 619.16 404.78 618.38 461.26"/><polygon points="439.64 640.05 410.96 690.38 383.18 640.83 439.64 640.05"/><polygon points="439.64 226.01 410.96 175.67 383.18 225.22 439.64 226.01"/><polygon class="cls-6" points="412.67 559.57 301.86 369.15 522.15 369.15 412.67 559.57"/><polygon class="cls-6" points="413.34 305.33 302.53 495.74 522.82 495.74 413.34 305.33"/></g></svg>