<svg xmlns="http://www.w3.org/2000/svg" xmlns:xlink="http://www.w3.org/1999/xlink" width="640" zoomAndPan="magnify" viewBox="0 0 480 359.999987" height="480" preserveAspectRatio="xMidYMid meet" version="1.0"><defs><clipPath id="2091e894b4"><path d="M 186 168.128906 L 217 168.128906 L 217 192 L 186 192 Z M 186 168.128906 " clip-rule="nonzero"/></clipPath><clipPath id="ed580969fe"><path d="M 202 168.128906 L 233 168.128906 L 233 192 L 202 192 Z M 202 168.128906 " clip-rule="nonzero"/></clipPath><clipPath id="51b6f98901"><path d="M 240.191406 168.128906 L 271.691406 168.128906 L 271.691406 192 L 240.191406 192 Z M 240.191406 168.128906 " clip-rule="nonzero"/></clipPath><clipPath id="6b21267331"><path d="M 265 168.128906 L 296 168.128906 L 296 192 L 265 192 Z M 265 168.128906 " clip-rule="nonzero"/></clipPath></defs><rect x="-48" width="576" fill="#ffffff" y="-35.999999" height="431.999984" fill-opacity="1"/><rect x="-48" width="576" fill="#ffffff" y="-35.999999" height="431.999984" fill-opacity="1"/><rect x="-48" width="576" fill="#be0027" y="-35.999999" height="431.999984" fill-opacity="1"/><path fill="#3b5aa3" d="M 19.199219 20.476562 L 461.324219 20.476562 L 461.324219 341.773438 L 19.199219 341.773438 Z M 19.199219 20.476562 " fill-opacity="1" fill-rule="evenodd"/><path fill="#cbe0e5" d="M 235.800781 309.898438 C 236.792969 310.375 237.839844 310.617188 238.941406 310.632812 C 240.042969 310.644531 241.09375 310.425781 242.101562 309.976562 C 345.449219 255 345.449219 104.25 242.175781 50.023438 C 241.132812 49.550781 240.039062 49.328125 238.894531 49.351562 C 237.75 49.378906 236.667969 49.652344 235.648438 50.175781 C 134.925781 105.226562 134.625 254.25 235.726562 309.898438 Z M 235.800781 309.898438 " fill-opacity="1" fill-rule="evenodd"/><path fill="#add2d9" d="M 235.800781 312.675781 C 237.300781 313.949219 240.601562 313.800781 242.101562 312.675781 C 318.226562 255.675781 318.601562 220.199219 315.300781 220.199219 L 164.550781 220.199219 C 162.300781 220.199219 165.898438 256.351562 235.800781 312.675781 " fill-opacity="1" fill-rule="evenodd"/><path fill="#fdf9a1" d="M 176.476562 248.398438 C 178.183594 247.859375 179.925781 247.480469 181.707031 247.261719 C 183.484375 247.042969 185.265625 246.988281 187.054688 247.097656 C 188.84375 247.207031 190.609375 247.476562 192.347656 247.910156 C 194.085938 248.34375 195.769531 248.933594 197.398438 249.675781 C 203.101562 252.675781 206.398438 252.675781 212.550781 252.675781 C 219 252.824219 224.023438 257.550781 231 257.773438 C 243.824219 258.074219 249.226562 264.449219 239.25 264.523438 C 234.601562 264.523438 224.476562 261.300781 219.601562 261.976562 C 209.398438 263.023438 202.949219 265.273438 193.351562 276 L 204.449219 283.5 C 214.050781 279.675781 215.625 275.25 220.949219 275.101562 C 226.949219 274.875 228.976562 271.199219 235.949219 271.199219 C 244.34375 271.894531 252.59375 271.09375 260.699219 268.800781 C 271.800781 266.25 266.550781 258.449219 259.800781 255.675781 C 254.324219 253.351562 244.199219 255.601562 237.898438 253.273438 C 233.101562 251.398438 237 248.398438 239.625 247.800781 C 242.175781 247.273438 244.949219 248.175781 248.175781 248.699219 C 253.949219 249.148438 261.226562 248.625 266.25 247.800781 C 276.75 246.226562 276.300781 243.148438 281.25 243.074219 C 285 242.851562 287.773438 241.800781 290.25 240 C 293.25 237.976562 296.324219 234 299.925781 234.148438 L 309.449219 234.523438 L 295.949219 264.824219 L 257.925781 303.601562 L 238.199219 311.101562 L 194.851562 282.824219 L 173.023438 249.300781 Z M 176.476562 248.398438 " fill-opacity="1" fill-rule="evenodd"/><path fill="#179a3b" d="M 226.351562 219 L 313.351562 218.550781 L 314.851562 210.824219 C 314.851562 210.824219 311.773438 210.375 309.226562 210.226562 C 306.148438 210 300.75 213.523438 297.226562 213.449219 C 294.601562 213.449219 291.75 208.949219 289.199219 208.949219 C 284.699219 208.949219 284.398438 212.925781 280.199219 213.074219 C 276.824219 212.925781 275.398438 210.375 270.976562 210.675781 C 266.550781 210.976562 266.773438 213.449219 261 213.300781 C 253.351562 213.074219 250.273438 206.476562 244.125 206.398438 C 233.925781 206.25 233.625 216.148438 226.273438 218.925781 Z M 226.351562 219 " fill-opacity="1" fill-rule="evenodd"/><path fill="#fdf9a1" d="M 226.351562 220.800781 L 315.898438 220.351562 L 315.898438 217.949219 L 224.25 218.398438 Z M 226.351562 220.800781 " fill-opacity="1" fill-rule="evenodd"/><path fill="#a79270" d="M 263.101562 247.726562 C 264.523438 252.976562 265.949219 254.773438 271.5 256.199219 C 276.976562 257.476562 285.375 252.148438 280.199219 246.976562 C 275.25 242.175781 270 240.976562 265.574219 236.625 C 256.199219 227.398438 242.101562 204.75 242.101562 188.773438 C 242.101562 175.050781 240.75 146.925781 240.75 120.300781 C 240.75 118.574219 235.5 125.101562 235.5 126.898438 C 235.800781 150.375 235.800781 168.148438 236.699219 191.851562 C 238.199219 209.175781 246.449219 220.875 253.726562 231.375 C 256.949219 236.476562 261.675781 241.875 263.101562 247.726562 " fill-opacity="1" fill-rule="evenodd"/><path fill="#239e46" d="M 194.699219 120.675781 C 193.574219 122.925781 197.398438 120 198.300781 119.699219 C 203.324219 117.898438 205.273438 111.601562 213.898438 115.425781 C 220.648438 118.351562 229.726562 116.625 225 119.625 C 219.148438 123.148438 207.375 127.050781 207.148438 144.523438 C 208.125 146.175781 208.199219 145.949219 209.023438 144.074219 C 210.824219 140.023438 219.300781 129 223.5 129.898438 C 225.226562 130.351562 230.175781 124.875 230.25 126.449219 C 230.773438 130.800781 223.5 139.648438 223.648438 151.425781 C 223.648438 154.199219 227.023438 155.101562 228.601562 153.148438 C 230.25 151.425781 231.148438 149.699219 234 147.449219 C 238.949219 143.398438 237.601562 126 238.199219 126.824219 C 241.726562 131.324219 242.25 144.300781 247.5 149.550781 C 251.925781 153.976562 255.449219 151.800781 254.476562 145.800781 C 252.601562 133.5 246.824219 137.023438 244.050781 124.351562 C 243.449219 121.875 243.300781 119.699219 246.601562 120.675781 C 250.574219 121.875 252.976562 123.675781 255.898438 128.175781 C 258.898438 132.523438 264.449219 136.648438 267.675781 139.125 C 273.300781 143.476562 275.324219 139.726562 272.625 134.175781 C 271.769531 132.617188 270.78125 131.144531 269.664062 129.761719 C 268.546875 128.378906 267.316406 127.101562 265.972656 125.9375 C 264.628906 124.773438 263.191406 123.738281 261.664062 122.828125 C 260.136719 121.917969 258.539062 121.148438 256.875 120.523438 C 252.226562 118.875 250.574219 118.726562 246.523438 117.976562 C 245.398438 117.75 244.273438 115.425781 246.226562 114.148438 C 248.398438 112.59375 250.726562 111.324219 253.214844 110.347656 C 255.703125 109.371094 258.273438 108.714844 260.925781 108.375 C 265.949219 108.226562 269.925781 112.273438 273.449219 113.324219 C 280.5 115.125 280.5 110.699219 277.351562 107.324219 C 274.800781 104.550781 269.398438 99.824219 264.375 100.5 C 254.25 101.773438 254.925781 101.476562 248.625 105.601562 C 246.375 106.949219 243.824219 108.449219 244.800781 106.800781 C 247.050781 102.675781 244.949219 103.425781 248.476562 99.226562 C 251.175781 96.226562 253.199219 93.976562 255.976562 93.226562 C 258.523438 92.550781 261.976562 89.851562 262.949219 88.425781 C 265.5 84.976562 263.324219 82.949219 259.425781 84.148438 C 255.976562 85.050781 254.175781 87.300781 251.925781 87.898438 C 246.375 89.699219 241.949219 102.148438 241.273438 103.949219 C 240.449219 106.050781 239.476562 105 239.625 103.199219 C 240.375 94.425781 241.125 79.574219 238.125 73.5 C 233.324219 64.5 233.773438 68.699219 231.976562 72.976562 C 229.273438 79.726562 230.25 86.101562 231.976562 92.699219 C 232.726562 96 235.425781 99.75 235.949219 102.375 C 236.324219 104.398438 234.75 101.773438 233.851562 100.5 C 230.925781 96 228.75 93 223.949219 90.523438 C 221.554688 89.53125 219.066406 88.90625 216.484375 88.652344 C 213.90625 88.398438 211.34375 88.519531 208.800781 89.023438 C 207.449219 89.476562 210.300781 91.425781 211.425781 92.324219 C 214.648438 94.875 220.726562 95.699219 224.925781 98.25 C 228.375 100.425781 231.074219 101.773438 232.273438 104.773438 C 232.726562 107.023438 233.476562 110.324219 231.976562 110.25 C 228.148438 110.023438 222.226562 106.648438 209.925781 108 C 203.625 108.898438 198.226562 114.226562 194.699219 120.675781 " fill-opacity="1" fill-rule="evenodd"/><path fill="#000000" d="M 221.476562 232.949219 L 225 232.949219 L 225 238.875 L 221.476562 238.875 Z M 221.476562 232.949219 " fill-opacity="1" fill-rule="evenodd"/><path fill="#fdf9ff" d="M 203.773438 193.425781 C 217.875 212.925781 240.523438 224.324219 240.976562 233.175781 L 196.875 233.175781 C 207 221.023438 213.226562 212.773438 203.773438 193.425781 " fill-opacity="1" fill-rule="evenodd"/><path fill="#a68861" d="M 190.949219 233.625 C 210.148438 237.898438 233.023438 240.300781 247.648438 233.023438 C 247.800781 237.300781 242.925781 243.523438 238.875 243.523438 L 202.125 243.523438 C 206.398438 242.851562 208.875 241.574219 215.773438 241.273438 L 196.273438 241.425781 C 194.023438 241.5 190.273438 235.726562 190.949219 233.625 " fill-opacity="1" fill-rule="evenodd"/><path fill="#be0027" d="M 234.449219 318.75 C 236.398438 319.875 239.476562 319.800781 241.199219 318.898438 C 352.050781 259.875 352.125 98.101562 241.351562 39.898438 C 240.222656 39.394531 239.042969 39.15625 237.808594 39.183594 C 236.574219 39.210938 235.40625 39.5 234.300781 40.050781 C 126.300781 99.148438 126 259.050781 234.449219 318.824219 Z M 234.976562 305.476562 C 235.914062 305.957031 236.910156 306.203125 237.964844 306.214844 C 239.019531 306.230469 240.023438 306.007812 240.976562 305.550781 C 333.675781 250.949219 334.800781 106.726562 241.050781 55.050781 C 239.25 53.699219 236.625 54.148438 234.824219 55.050781 C 146.023438 107.625 141.074219 245.925781 234.976562 305.476562 " fill-opacity="1" fill-rule="evenodd"/><path fill="#bd0728" d="M 201.601562 169.050781 C 203.300781 169.050781 204.800781 169.398438 206.101562 170.101562 C 207.851562 171 208.925781 172.648438 209.324219 175.050781 L 207 175.050781 C 206.699219 173.75 206.050781 172.75 205.050781 172.050781 C 204.148438 171.449219 202.976562 171.148438 201.523438 171.148438 C 199.875 171.148438 198.449219 171.824219 197.25 173.175781 C 196.101562 174.425781 195.523438 176.324219 195.523438 178.875 C 195.523438 180.976562 196 182.726562 196.949219 184.125 C 197.949219 185.476562 199.523438 186.148438 201.675781 186.148438 C 203.324219 186.148438 204.675781 185.675781 205.726562 184.726562 C 206.875 183.773438 207.449219 182.226562 207.449219 180.074219 L 201.75 180.074219 L 201.75 178.050781 L 209.699219 178.050781 L 209.699219 187.800781 L 208.125 187.800781 L 207.523438 185.398438 C 206.726562 186.351562 205.976562 187.023438 205.273438 187.425781 C 204.175781 188.023438 202.800781 188.324219 201.148438 188.324219 C 199 188.324219 197.125 187.625 195.523438 186.226562 C 193.824219 184.425781 192.976562 182 192.976562 178.949219 C 192.976562 175.898438 193.800781 173.476562 195.449219 171.675781 C 197.050781 169.925781 199.101562 169.050781 201.601562 169.050781 " fill-opacity="1" fill-rule="nonzero"/><path fill="#bd0728" d="M 219.300781 169.574219 L 219.300781 180.976562 C 219.300781 182.273438 219.550781 183.351562 220.050781 184.199219 C 220.75 185.550781 222 186.226562 223.800781 186.226562 C 225.851562 186.226562 227.273438 185.523438 228.074219 184.125 C 228.476562 183.324219 228.675781 182.273438 228.675781 180.976562 L 228.675781 169.5 L 231.226562 169.5 L 231.226562 179.851562 C 231.226562 182.050781 230.875 183.800781 230.175781 185.101562 C 229.125 187.25 227.074219 188.324219 224.023438 188.324219 C 220.875 188.324219 218.75 187.226562 217.648438 185.023438 C 217.050781 183.773438 216.75 182.050781 216.75 179.851562 L 216.75 169.5 Z M 219.300781 169.574219 " fill-opacity="1" fill-rule="nonzero"/><path fill="#bd0728" d="M 253.800781 180.375 L 251.023438 172.351562 L 248.023438 180.375 Z M 249.75 169.5 L 252.523438 169.5 L 259.273438 187.875 L 256.425781 187.875 L 254.625 182.398438 L 247.351562 182.398438 L 245.324219 187.875 L 242.851562 187.875 Z M 249.75 169.5 " fill-opacity="1" fill-rule="nonzero"/><path fill="#bd0728" d="M 267.75 169.5 L 271.425781 169.5 L 276.601562 185.023438 L 281.851562 169.5 L 285.375 169.5 L 285.375 187.800781 L 282.976562 187.800781 L 282.976562 172.351562 L 277.726562 187.800781 L 275.398438 187.800781 L 270.148438 172.351562 L 270.148438 187.800781 L 267.75 187.800781 Z M 267.75 169.5 " fill-opacity="1" fill-rule="nonzero"/><g clip-path="url(#2091e894b4)"><path fill="#cbe0e5" d="M 215.617188 169.234375 C 215.597656 169.21875 213.851562 168.75 210.785156 168.644531 C 207.183594 168.519531 202 168.75 199.195312 168.644531 C 196.394531 168.539062 193.582031 168.285156 190.78125 168.269531 C 190.441406 168.269531 189.628906 168.148438 189.359375 168.472656 C 187.566406 170.648438 186.816406 177.171875 186.679688 180.117188 C 186.566406 182.476562 185.75 189.390625 187.792969 191.074219 C 188.042969 191.28125 189.792969 191.0625 190.152344 191.109375 C 194.792969 191.722656 199.449219 191.367188 204.121094 191.410156 C 205.398438 191.421875 213.980469 191.84375 214.722656 191.378906 C 216.332031 190.371094 217.441406 173.753906 216.332031 171.261719 C 216.101562 170.734375 215.96875 169.527344 215.617188 169.234375 Z M 215.617188 169.234375 " fill-opacity="1" fill-rule="evenodd"/></g><g clip-path="url(#ed580969fe)"><path fill="#cbe0e5" d="M 231.464844 169.234375 C 231.445312 169.21875 229.699219 168.75 226.636719 168.644531 C 223.03125 168.519531 217.847656 168.75 215.046875 168.644531 C 212.242188 168.539062 209.429688 168.285156 206.628906 168.269531 C 206.289062 168.269531 205.476562 168.148438 205.210938 168.472656 C 203.414062 170.648438 202.664062 177.171875 202.527344 180.117188 C 202.417969 182.476562 201.597656 189.390625 203.640625 191.074219 C 203.890625 191.28125 205.640625 191.0625 206 191.109375 C 210.644531 191.722656 215.296875 191.367188 219.96875 191.410156 C 221.25 191.421875 229.828125 191.84375 230.574219 191.378906 C 232.183594 190.371094 233.289062 173.753906 232.183594 171.261719 C 231.949219 170.734375 231.816406 169.527344 231.464844 169.234375 Z M 231.464844 169.234375 " fill-opacity="1" fill-rule="evenodd"/></g><g clip-path="url(#51b6f98901)"><path fill="#cbe0e5" d="M 269.875 169.234375 C 269.855469 169.21875 268.109375 168.75 265.042969 168.644531 C 261.441406 168.519531 256.257812 168.75 253.453125 168.644531 C 250.652344 168.539062 247.839844 168.285156 245.039062 168.269531 C 244.699219 168.269531 243.886719 168.148438 243.617188 168.472656 C 241.820312 170.648438 241.074219 177.171875 240.9375 180.117188 C 240.824219 182.476562 240.007812 189.390625 242.046875 191.074219 C 242.300781 191.28125 244.050781 191.0625 244.410156 191.109375 C 249.050781 191.722656 253.707031 191.367188 258.378906 191.410156 C 259.65625 191.421875 268.238281 191.84375 268.980469 191.378906 C 270.589844 190.371094 271.699219 173.753906 270.589844 171.261719 C 270.359375 170.734375 270.226562 169.527344 269.875 169.234375 Z M 269.875 169.234375 " fill-opacity="1" fill-rule="evenodd"/></g><g clip-path="url(#6b21267331)"><path fill="#cbe0e5" d="M 294.285156 169.234375 C 294.265625 169.21875 292.519531 168.75 289.453125 168.644531 C 285.851562 168.519531 280.667969 168.75 277.863281 168.644531 C 275.0625 168.539062 272.25 168.285156 269.449219 168.269531 C 269.105469 168.269531 268.292969 168.148438 268.027344 168.472656 C 266.230469 170.648438 265.484375 177.171875 265.34375 180.117188 C 265.234375 182.476562 264.417969 189.390625 266.457031 191.074219 C 266.710938 191.28125 268.460938 191.0625 268.820312 191.109375 C 273.460938 191.722656 278.117188 191.367188 282.789062 191.410156 C 284.066406 191.421875 292.648438 191.84375 293.390625 191.378906 C 295 190.371094 296.105469 173.753906 295 171.261719 C 294.765625 170.734375 294.636719 169.527344 294.285156 169.234375 Z M 294.285156 169.234375 " fill-opacity="1" fill-rule="evenodd"/></g></svg>